<svg width="33" height="32" viewBox="0 0 33 32" fill="none" xmlns="http://www.w3.org/2000/svg">
<g clip-path="url(#clip0_1634_56322)">
<path d="M16.8392 0.078125C7.96645 0.078125 0.773438 7.20629 0.773438 15.9993C0.773438 24.7924 7.96645 31.9206 16.8392 31.9206C25.712 31.9206 32.905 24.7924 32.905 15.9993C32.905 7.20629 25.712 0.078125 16.8392 0.078125ZM22.392 16.8433L14.3591 21.8187C14.1965 21.9192 14.0117 21.9698 13.8269 21.9698C13.6595 21.9698 13.4918 21.9285 13.34 21.8449C13.0208 21.6695 12.8228 21.3367 12.8228 20.9747V11.024C12.8228 10.662 13.0208 10.3291 13.34 10.1538C13.6592 9.97739 14.0495 9.98808 14.3591 10.18L22.392 15.1554C22.6854 15.3376 22.8639 15.6563 22.8639 15.9993C22.8639 16.3423 22.6854 16.6611 22.392 16.8433Z" fill="#FC0E18"/>
</g>
<defs>
<clipPath id="clip0_1634_56322">
<rect x="0.773438" y="0.078125" width="32.1316" height="31.8424" rx="8" fill="white"/>
</clipPath>
</defs>
</svg>
