<svg width="33" height="33" viewBox="0 0 33 33" fill="none" xmlns="http://www.w3.org/2000/svg">
<g id="free-icon-play-button-109197 1">
<g clip-path="url(#clip0_2569_1654)">
<path id="Vector" d="M16.8334 0.329834C7.9606 0.329834 0.767578 7.458 0.767578 16.251C0.767578 25.0441 7.9606 32.1723 16.8334 32.1723C25.7061 32.1723 32.8992 25.0441 32.8992 16.251C32.8992 7.458 25.7061 0.329834 16.8334 0.329834ZM22.3861 17.095L14.3532 22.0704C14.1907 22.1709 14.0059 22.2215 13.821 22.2215C13.6536 22.2215 13.4859 22.1802 13.3342 22.0966C13.015 21.9212 12.8169 21.5884 12.8169 21.2264V11.2757C12.8169 10.9137 13.015 10.5809 13.3342 10.4055C13.6533 10.2291 14.0436 10.2398 14.3532 10.4317L22.3861 15.4071C22.6796 15.5893 22.858 15.9081 22.858 16.251C22.858 16.594 22.6796 16.9128 22.3861 17.095Z" fill="#FFDF80"/>
</g>
</g>
<defs>
<clipPath id="clip0_2569_1654">
<rect x="0.767578" y="0.329834" width="32.1316" height="31.8424" rx="8" fill="white"/>
</clipPath>
</defs>
</svg>
