<svg width="33" height="32" viewBox="0 0 33 32" fill="none" xmlns="http://www.w3.org/2000/svg">
<g id="free-icon-play-button-109197 1">
<g clip-path="url(#clip0_390_9717)">
<path id="Vector" d="M16.8314 0.0786133C7.95864 0.0786133 0.765625 7.20678 0.765625 15.9998C0.765625 24.7929 7.95864 31.921 16.8314 31.921C25.7042 31.921 32.8972 24.7929 32.8972 15.9998C32.8972 7.20678 25.7042 0.0786133 16.8314 0.0786133ZM22.3842 16.8438L14.3513 21.8192C14.1887 21.9197 14.0039 21.9703 13.8191 21.9703C13.6516 21.9703 13.484 21.929 13.3322 21.8454C13.013 21.67 12.815 21.3372 12.815 20.9752V11.0244C12.815 10.6625 13.013 10.3296 13.3322 10.1543C13.6514 9.97788 14.0417 9.98857 14.3513 10.1805L22.3842 15.1559C22.6776 15.3381 22.8561 15.6568 22.8561 15.9998C22.8561 16.3428 22.6776 16.6616 22.3842 16.8438Z" fill="#156FF1"/>
</g>
</g>
<defs>
<clipPath id="clip0_390_9717">
<rect x="0.765625" y="0.0786133" width="32.1316" height="31.8424" rx="8" fill="white"/>
</clipPath>
</defs>
</svg>
