<svg width="33" height="32" viewBox="0 0 33 32" fill="none" xmlns="http://www.w3.org/2000/svg">
<path d="M16.8314 0.078125C7.95864 0.078125 0.765625 7.20629 0.765625 15.9993C0.765625 24.7924 7.95864 31.9206 16.8314 31.9206C25.7042 31.9206 32.8972 24.7924 32.8972 15.9993C32.8972 7.20629 25.7042 0.078125 16.8314 0.078125ZM22.3842 16.8433L14.3513 21.8187C14.1887 21.9192 14.0039 21.9698 13.8191 21.9698C13.6516 21.9698 13.484 21.9285 13.3322 21.8449C13.013 21.6695 12.815 21.3367 12.815 20.9747V11.024C12.815 10.662 13.013 10.3291 13.3322 10.1538C13.6514 9.97739 14.0417 9.98808 14.3513 10.18L22.3842 15.1554C22.6776 15.3376 22.8561 15.6563 22.8561 15.9993C22.8561 16.3423 22.6776 16.6611 22.3842 16.8433Z" fill="#FF5500"/>
</svg>
