<svg width="33" height="32" viewBox="0 0 33 32" fill="none" xmlns="http://www.w3.org/2000/svg">
<g clip-path="url(#clip0_1329_46135)">
<path d="M16.8334 0.078125C7.9606 0.078125 0.767578 7.20629 0.767578 15.9993C0.767578 24.7924 7.9606 31.9206 16.8334 31.9206C25.7061 31.9206 32.8992 24.7924 32.8992 15.9993C32.8992 7.20629 25.7061 0.078125 16.8334 0.078125ZM22.3861 16.8433L14.3532 21.8187C14.1907 21.9192 14.0059 21.9698 13.821 21.9698C13.6536 21.9698 13.4859 21.9285 13.3342 21.8449C13.015 21.6695 12.8169 21.3367 12.8169 20.9747V11.024C12.8169 10.662 13.015 10.3291 13.3342 10.1538C13.6533 9.97739 14.0436 9.98808 14.3532 10.18L22.3861 15.1554C22.6796 15.3376 22.858 15.6563 22.858 15.9993C22.858 16.3423 22.6796 16.6611 22.3861 16.8433Z" fill="#FF0012"/>
</g>
<defs>
<clipPath id="clip0_1329_46135">
<rect x="0.767578" y="0.078125" width="32.1316" height="31.8424" rx="8" fill="white"/>
</clipPath>
</defs>
</svg>
