<svg width="32" height="33" viewBox="0 0 32 33" fill="none" xmlns="http://www.w3.org/2000/svg">
<g id="Icons Huge">
<path id="Vector" d="M28 16.251C28 16.6329 27.8483 16.9992 27.5782 17.2692C27.3082 17.5393 26.9419 17.691 26.56 17.691H17.44V26.811C17.44 27.1929 17.2883 27.5592 17.0182 27.8292C16.7482 28.0993 16.3819 28.251 16 28.251C15.6181 28.251 15.2518 28.0993 14.9818 27.8292C14.7117 27.5592 14.56 27.1929 14.56 26.811V17.691H5.44C5.05809 17.691 4.69182 17.5393 4.42177 17.2692C4.15171 16.9992 4 16.6329 4 16.251C4 15.8691 4.15171 15.5028 4.42177 15.2327C4.69182 14.9627 5.05809 14.811 5.44 14.811H14.56V5.69098C14.56 5.30906 14.7117 4.9428 14.9818 4.67274C15.2518 4.40269 15.6181 4.25098 16 4.25098C16.3819 4.25098 16.7482 4.40269 17.0182 4.67274C17.2883 4.9428 17.44 5.30906 17.44 5.69098V14.811H26.56C26.9419 14.811 27.3082 14.9627 27.5782 15.2327C27.8483 15.5028 28 15.8691 28 16.251Z" fill="#FFDF80"/>
</g>
</svg>
