<svg width="32" height="33" viewBox="0 0 32 33" fill="none" xmlns="http://www.w3.org/2000/svg">
<g id="Icons Huge">
<path id="Vector" d="M28 16.5C28 16.8819 27.8483 17.2482 27.5782 17.5182C27.3082 17.7883 26.9419 17.94 26.56 17.94H17.44V27.06C17.44 27.4419 17.2883 27.8082 17.0182 28.0782C16.7482 28.3483 16.3819 28.5 16 28.5C15.6181 28.5 15.2518 28.3483 14.9818 28.0782C14.7117 27.8082 14.56 27.4419 14.56 27.06V17.94H5.44C5.05809 17.94 4.69182 17.7883 4.42177 17.5182C4.15171 17.2482 4 16.8819 4 16.5C4 16.1181 4.15171 15.7518 4.42177 15.4818C4.69182 15.2117 5.05809 15.06 5.44 15.06H14.56V5.94C14.56 5.55809 14.7117 5.19182 14.9818 4.92177C15.2518 4.65171 15.6181 4.5 16 4.5C16.3819 4.5 16.7482 4.65171 17.0182 4.92177C17.2883 5.19182 17.44 5.55809 17.44 5.94V15.06H26.56C26.9419 15.06 27.3082 15.2117 27.5782 15.4818C27.8483 15.7518 28 16.1181 28 16.5Z" fill="#65FF93"/>
</g>
</svg>
