<svg width="200" height="32" viewBox="0 0 200 32" fill="none" xmlns="http://www.w3.org/2000/svg">
<path d="M2.69687e-06 10.8539C2.69687e-06 22.6193 -0.00521832 22.4119 0.443786 23.9461C1.6185 27.9526 4.95993 30.9639 9.15759 31.7932C10.2383 32.0005 12.4207 31.9849 13.5067 31.7517C15.0782 31.4148 16.2268 30.9276 17.5634 30.0517C21.6879 27.3099 23.4996 22.1165 21.9751 17.3689C21.4269 15.6844 20.5341 14.2384 19.2027 12.9115C17.5529 11.2633 15.6212 10.2423 13.3083 9.78617C12.238 9.57885 10.1183 9.5944 9.04273 9.82763C7.21539 10.2215 5.57078 10.9886 4.12979 12.1392L3.86352 12.3466V2.56626L1.93176 1.28606L2.69687e-06 0.00585938V10.8539ZM13.0577 13.6682C15.0782 14.1865 16.8011 15.5393 17.7826 17.3689C19.7405 20.997 18.2682 25.5166 14.5143 27.3772C13.089 28.0821 11.3347 28.3102 9.82066 27.9992C7.07442 27.4343 4.96515 25.5114 4.12979 22.811C3.93662 22.1787 3.91051 21.9818 3.91051 20.8311C3.90007 19.7271 3.92618 19.4628 4.08803 18.9134C4.78764 16.4981 6.57843 14.6115 8.91743 13.8393C9.31944 13.7045 9.86765 13.5594 10.1235 13.5179C10.8335 13.4039 12.3476 13.4868 13.0524 13.6682" fill="white"/>
<path d="M48.737 11.0143C48.7631 23.2824 48.7317 22.5257 49.3269 24.2983C50.4964 27.7813 53.3523 30.5231 56.8608 31.5338C57.6283 31.7514 59.0275 31.9795 59.6123 31.9795H59.9829V28.1648L59.3408 28.1078C57.6074 27.9627 55.8479 27.1023 54.621 25.7962C53.7334 24.8581 53.1644 23.8059 52.7937 22.4532C52.6266 21.8001 52.6162 21.6705 52.6162 17.6278V13.471L55.9001 13.4451L59.1789 13.4296V9.59415H52.5744V2.51936L50.747 1.32209C49.7498 0.669032 48.8779 0.0989029 48.8153 0.067805C48.7213 0.0107921 48.7109 1.66417 48.737 11.0195" fill="white"/>
<path d="M88.433 11.091C88.4591 22.0116 88.4591 22.193 88.6262 22.9445C89.1431 25.2769 90.0985 27.0287 91.7431 28.6665C92.6307 29.5373 93.6697 30.3044 94.6042 30.776C95.8625 31.398 97.5175 31.8489 98.9533 31.9526L99.6842 31.9992V28.1379H99.3031C98.7236 28.1379 97.5384 27.8684 96.8545 27.5885C95.1368 26.8784 93.6018 25.3753 92.8917 23.722C92.7612 23.4006 92.5785 22.8927 92.4793 22.5869C92.3174 22.0375 92.3174 21.8457 92.2861 12.2779L92.26 2.5287L91.7223 2.17626C91.4247 1.97412 90.5528 1.40917 89.7905 0.911606L88.3965 0.00976562L88.4278 11.0962L88.433 11.091Z" fill="#FF2727"/>
<path d="M146.699 15.8755V31.7407H150.563V25.0183L152.171 23.028C153.058 21.9241 153.795 21.0274 153.815 21.0274C153.836 21.0274 155.126 23.4323 156.692 26.3814L159.543 31.7355H161.772C163.004 31.7355 164.012 31.7199 164.012 31.7096C164.012 31.694 162.331 28.5583 160.269 24.754C158.206 20.9393 156.515 17.7984 156.509 17.7621C156.494 17.731 157.961 15.8755 159.773 13.6468C161.574 11.4181 163.051 9.57817 163.051 9.55226C163.051 9.52634 161.95 9.51079 160.613 9.51079H158.164L154.426 14.1392C152.374 16.6892 150.667 18.7728 150.636 18.7728C150.594 18.7832 150.573 15.1188 150.573 10.6459V2.52412L149.785 2.011C149.357 1.72075 148.49 1.15581 147.858 0.746351L146.71 0V15.8755H146.699Z" fill="#FF2727"/>
<path d="M63.3672 10.973C63.3672 22.9768 63.3516 22.5207 63.8685 24.143C64.9544 27.5534 67.7111 30.3211 71.0995 31.3991C72.4778 31.8397 73.1044 31.933 74.6028 31.933C76.1012 31.933 76.7695 31.8293 78.1061 31.4043C80.941 30.4921 83.3479 28.4293 84.7106 25.7445C85.0865 25.0033 85.572 23.4847 85.7182 22.6192C85.8801 21.6344 85.8696 19.9033 85.7078 18.934C84.9351 14.3678 81.4579 10.8123 76.7956 9.81197C75.7148 9.58911 73.6787 9.56319 72.6031 9.78088C70.9429 10.1022 69.1834 10.8589 67.9513 11.7867C67.5753 12.0769 67.236 12.305 67.2099 12.305C67.1838 12.305 67.1629 10.097 67.1629 7.3967V2.50395L65.3355 1.32223C64.3383 0.669175 63.4821 0.114595 63.4456 0.109412C63.4142 0.093863 63.3829 4.98661 63.3829 10.9781M76.4667 13.6733C76.8217 13.7718 77.443 13.9998 77.8346 14.1916C82.523 16.4877 83.4628 22.5984 79.6776 26.1591C79.051 26.7448 78.5759 27.0558 77.6884 27.4704C76.5398 28.0043 76.0281 28.1079 74.5714 28.1028C73.4594 28.0924 73.2505 28.0768 72.6136 27.8851C69.8987 27.061 67.9199 24.9515 67.3456 22.2719C67.1942 21.5463 67.1942 20.0328 67.3508 19.2969C67.9878 16.3736 70.3164 14.119 73.3028 13.5489C74.1016 13.3986 75.6313 13.4608 76.4562 13.6681" fill="#FF2727"/>
<path d="M188.786 9.57264C188.755 9.59855 188.729 14.6001 188.729 20.685V31.7403H192.587L192.613 25.6814C192.644 19.7106 192.644 19.6225 192.822 18.9901C193.046 18.192 193.537 17.1502 193.996 16.5178C194.398 15.9581 195.286 15.0977 195.819 14.7349C196.826 14.0559 198.22 13.5584 199.358 13.4651L200.001 13.4081V9.57264L199.301 9.62965C197.813 9.74886 196.273 10.1635 194.968 10.8114C194.315 11.1379 193.01 11.9879 192.832 12.2004C192.775 12.2626 192.702 12.3144 192.665 12.3144C192.629 12.3144 192.592 11.6821 192.592 10.915V9.51562H190.718C189.679 9.51562 188.812 9.54154 188.786 9.57264Z" fill="#FF2727"/>
<path d="M34.1861 9.6772C31.5704 10.0037 29.4037 11.0662 27.5346 12.9477C25.8848 14.601 24.9554 16.2959 24.4594 18.5764C24.2036 19.7737 24.2036 21.8521 24.4594 23.0182C24.7101 24.1222 25.0494 25.0655 25.5297 25.9777C27.1065 28.9735 29.9571 31.083 33.3717 31.7879C34.3845 31.9952 36.6243 31.9952 37.6372 31.7879C42.7172 30.7409 46.3667 26.6411 46.7426 21.5255L46.8 20.7895H42.9365L42.879 21.4271C42.7851 22.5777 42.3047 23.9045 41.626 24.9204C41.177 25.5942 39.9971 26.693 39.2922 27.1024C37.2247 28.2997 34.8074 28.4552 32.5781 27.5326C31.9411 27.2683 30.8969 26.5738 30.4531 26.1177L30.1085 25.7652L38.1593 21.5048C42.5971 19.1621 46.2205 17.2029 46.2205 17.1511C46.2205 16.9334 45.1397 14.9276 44.6751 14.2797C43.0513 11.9992 40.5453 10.3976 37.7416 9.82751C36.8175 9.64611 35.058 9.56318 34.1913 9.6772M37.3239 13.6629C38.4778 13.9687 39.8822 14.7358 40.5714 15.4511L40.8429 15.7309L39.3236 16.5291C38.4934 16.9697 35.6741 18.4624 33.0584 19.8462L28.3073 22.3652L28.2342 22.1475C28.1924 22.0335 28.1611 21.396 28.1611 20.7377C28.1611 19.6596 28.1768 19.4679 28.3804 18.8304C29.2314 16.0419 31.4086 14.0827 34.2488 13.5385C35.0371 13.3882 36.4938 13.4504 37.3239 13.6577" fill="white"/>
<path d="M110.518 9.67589C106.227 10.2097 102.635 13.0656 101.22 17.0513C100.76 18.3522 100.614 19.223 100.614 20.783C100.604 22.3587 100.703 22.9651 101.178 24.38C102.441 28.1636 105.663 30.9417 109.745 31.7917C110.706 31.9887 112.972 31.9887 113.933 31.7917C118.548 30.8225 121.905 27.5209 122.887 23.0014C123.137 21.8352 123.137 19.7413 122.887 18.5751C122.396 16.3153 121.42 14.5375 119.78 12.9101C118.12 11.2567 116.188 10.2305 113.927 9.80028C113.123 9.64998 111.296 9.5826 110.523 9.68107M113.656 13.6668C114.366 13.8482 115.421 14.3199 116.016 14.7241C116.564 15.0973 117.446 15.9629 117.854 16.5226C119.013 18.1294 119.498 20.301 119.107 22.1514C118.778 23.7581 118.068 25.0124 116.851 26.1578C115.368 27.5469 113.484 28.2362 111.442 28.1222C109.599 28.0185 108.101 27.3706 106.749 26.0749C105.663 25.0383 105.015 23.9499 104.629 22.509C104.404 21.6538 104.42 19.8449 104.66 19.0105C105.496 16.108 107.673 14.1022 110.576 13.5528C111.364 13.4025 112.821 13.4647 113.651 13.672" fill="white"/>
<path d="M108.722 16.0726C108.132 16.4562 107.208 17.415 106.926 17.9437L106.723 18.3117L110.529 22.0901L114.33 25.8633L114.711 25.6612C115.212 25.4072 116.491 24.1322 116.747 23.6398L116.951 23.2614L113.165 19.5038C111.082 17.4357 109.349 15.7461 109.302 15.7461C109.255 15.7461 108.994 15.8912 108.722 16.0674" fill="#FF2727"/>
<path d="M134.864 9.68635C132.963 9.91958 130.917 10.7437 129.429 11.8736C128.609 12.4955 127.408 13.7602 126.87 14.5584C125.967 15.9008 125.398 17.3572 125.106 18.9846C124.902 20.1819 124.939 22.0063 125.194 23.1103C126.218 27.5521 129.47 30.75 133.987 31.7503C135.073 31.9888 137.166 32.0043 138.268 31.7918C139.145 31.6156 140.231 31.2631 141.035 30.8952C141.688 30.5997 142.982 29.7704 143.489 29.3195L143.797 29.0552L142.492 27.6351L141.197 26.2201L140.988 26.4119C140.591 26.7643 139.782 27.2671 139.119 27.5521C137.213 28.3659 134.796 28.314 132.984 27.407C131.423 26.6244 130.301 25.4945 129.538 23.9396C128.974 22.789 128.792 21.8923 128.844 20.5033C128.891 19.249 129.037 18.6737 129.544 17.6267C130.217 16.2428 131.079 15.2995 132.363 14.5169C134.89 12.9672 138.106 13.1019 140.565 14.8538C140.889 15.087 141.186 15.2529 141.223 15.2114C141.254 15.1803 141.829 14.5376 142.497 13.7965L143.713 12.4385L143.447 12.2156C142.173 11.1117 140.116 10.1528 138.236 9.79519C137.406 9.63452 135.678 9.5775 134.853 9.68116" fill="#FF2727"/>
<path d="M174.046 9.6768C169.013 10.3091 165.06 14.0305 164.225 18.9388C164.058 19.9132 164.058 21.6495 164.225 22.6291C164.371 23.5102 164.862 25.0185 165.233 25.7441C166.82 28.8798 169.702 31.0463 173.278 31.7875C174.228 31.9844 176.437 31.9844 177.382 31.7875C180.958 31.0463 183.84 28.885 185.427 25.7441C186.038 24.5468 186.56 22.5099 186.56 21.323V20.7788H182.791L182.744 21.0742C182.718 21.2401 182.681 21.5925 182.655 21.8568C182.592 22.427 182.274 23.4584 181.997 24.013C181.465 25.0496 180.457 26.2054 179.517 26.8532C178.979 27.2212 177.763 27.7706 177.1 27.9417C176.666 28.0557 176.254 28.0868 175.288 28.0868C174.171 28.0764 173.967 28.0609 173.315 27.8639C172.156 27.5115 170.809 26.7289 170.119 26.0032L169.895 25.77L177.946 21.5096C182.994 18.8403 185.996 17.2077 185.996 17.1351C185.996 16.933 185.239 15.3988 184.827 14.7769C183.151 12.2009 180.561 10.4387 177.523 9.82711C176.599 9.63534 174.897 9.56278 174.046 9.66644M177.178 13.6522C178.327 13.9476 179.763 14.7458 180.462 15.4818L180.687 15.715L174.448 19.0166C171.017 20.8306 168.182 22.3181 168.151 22.3233C167.927 22.3544 167.869 20.1827 168.073 19.2757C168.715 16.3318 171.033 14.0979 174.025 13.5278C174.829 13.3775 176.353 13.4397 177.183 13.647" fill="#FF2727"/>
</svg>
