<svg width="200" height="32" viewBox="0 0 200 32" fill="none" xmlns="http://www.w3.org/2000/svg">
<path d="M2.69687e-06 10.8519C2.69687e-06 22.6173 -0.00521832 22.41 0.443786 23.9442C1.6185 27.9506 4.95993 30.9619 9.15759 31.7912C10.2383 31.9985 12.4207 31.983 13.5067 31.7497C15.0782 31.4128 16.2268 30.9256 17.5634 30.0497C21.6879 27.3079 23.4996 22.1146 21.9751 17.3669C21.4269 15.6825 20.5341 14.2364 19.2027 12.9096C17.5529 11.2614 15.6212 10.2403 13.3083 9.78421C12.238 9.5769 10.1183 9.59244 9.04273 9.82568C7.21539 10.2196 5.57078 10.9867 4.12979 12.1373L3.86352 12.3446V2.56431L1.93176 1.28411L2.69687e-06 0.00390625V10.8519ZM13.0577 13.6663C15.0782 14.1846 16.8011 15.5373 17.7826 17.3669C19.7405 20.995 18.2682 25.5146 14.5143 27.3753C13.089 28.0802 11.3347 28.3082 9.82066 27.9973C7.07442 27.4323 4.96515 25.5094 4.12979 22.8091C3.93662 22.1768 3.91051 21.9798 3.91051 20.8292C3.90007 19.7252 3.92618 19.4609 4.08803 18.9115C4.78764 16.4962 6.57843 14.6096 8.91743 13.8373C9.31944 13.7026 9.86765 13.5574 10.1235 13.516C10.8335 13.4019 12.3476 13.4849 13.0524 13.6663" fill="#0A0515"/>
<path d="M48.7389 11.0143C48.765 23.2824 48.7337 22.5257 49.3289 24.2983C50.4984 27.7813 53.3543 30.5231 56.8628 31.5338C57.6302 31.7514 59.0295 31.9795 59.6142 31.9795H59.9849V28.1648L59.3427 28.1078C57.6094 27.9627 55.8499 27.1023 54.623 25.7962C53.7354 24.8581 53.1663 23.8059 52.7956 22.4532C52.6285 21.8001 52.6181 21.6705 52.6181 17.6278V13.471L55.9021 13.4451L59.1809 13.4296V9.59415H52.5763V2.51936L50.749 1.32209C49.7518 0.669032 48.8799 0.0989029 48.8172 0.067805C48.7233 0.0107921 48.7128 1.66417 48.7389 11.0195" fill="#0A0515"/>
<path d="M88.4311 11.093C88.4572 22.0135 88.4572 22.1949 88.6243 22.9465C89.1411 25.2788 90.0966 27.0307 91.7412 28.6685C92.6287 29.5392 93.6677 30.3063 94.6023 30.778C95.8605 31.3999 97.5156 31.8508 98.9513 31.9545L99.6823 32.0012V28.1398H99.3011C98.7216 28.1398 97.5365 27.8703 96.8525 27.5904C95.1348 26.8804 93.5998 25.3773 92.8898 23.7239C92.7593 23.4026 92.5765 22.8946 92.4773 22.5888C92.3155 22.0394 92.3155 21.8477 92.2842 12.2799L92.2581 2.53065L91.7203 2.17821C91.4227 1.97607 90.5508 1.41113 89.7885 0.91356L88.3945 0.0117188L88.4259 11.0981L88.4311 11.093Z" fill="#FF2727"/>
<path d="M146.699 15.8755V31.7407H150.563V25.0183L152.171 23.028C153.058 21.9241 153.795 21.0274 153.815 21.0274C153.836 21.0274 155.126 23.4323 156.692 26.3814L159.543 31.7355H161.772C163.004 31.7355 164.012 31.7199 164.012 31.7096C164.012 31.694 162.331 28.5583 160.269 24.754C158.206 20.9393 156.515 17.7984 156.509 17.7621C156.494 17.731 157.961 15.8755 159.773 13.6468C161.574 11.4181 163.051 9.57817 163.051 9.55226C163.051 9.52634 161.95 9.51079 160.613 9.51079H158.164L154.426 14.1392C152.374 16.6892 150.667 18.7728 150.636 18.7728C150.594 18.7832 150.573 15.1188 150.573 10.6459V2.52412L149.785 2.011C149.357 1.72075 148.49 1.15581 147.858 0.746351L146.71 0V15.8755H146.699Z" fill="#FF2727"/>
<path d="M63.3672 10.973C63.3672 22.9768 63.3516 22.5207 63.8685 24.143C64.9544 27.5534 67.7111 30.3211 71.0995 31.3991C72.4778 31.8397 73.1044 31.933 74.6028 31.933C76.1012 31.933 76.7695 31.8293 78.1061 31.4043C80.941 30.4921 83.3479 28.4293 84.7106 25.7445C85.0865 25.0033 85.572 23.4847 85.7182 22.6192C85.8801 21.6344 85.8696 19.9033 85.7078 18.934C84.9351 14.3678 81.4579 10.8123 76.7956 9.81197C75.7148 9.58911 73.6787 9.56319 72.6031 9.78088C70.9429 10.1022 69.1834 10.8589 67.9513 11.7867C67.5753 12.0769 67.236 12.305 67.2099 12.305C67.1838 12.305 67.1629 10.097 67.1629 7.3967V2.50395L65.3355 1.32223C64.3383 0.669175 63.4821 0.114595 63.4456 0.109412C63.4142 0.093863 63.3829 4.98661 63.3829 10.9781M76.4667 13.6733C76.8217 13.7718 77.443 13.9998 77.8346 14.1916C82.523 16.4877 83.4628 22.5984 79.6776 26.1591C79.051 26.7448 78.5759 27.0558 77.6884 27.4704C76.5398 28.0043 76.0281 28.1079 74.5714 28.1028C73.4594 28.0924 73.2505 28.0768 72.6136 27.8851C69.8987 27.061 67.9199 24.9515 67.3456 22.2719C67.1942 21.5463 67.1942 20.0328 67.3508 19.2969C67.9878 16.3736 70.3164 14.119 73.3028 13.5489C74.1016 13.3986 75.6313 13.4608 76.4562 13.6681" fill="#FF2727"/>
<path d="M188.784 9.57264C188.753 9.59855 188.727 14.6001 188.727 20.685V31.7403H192.585L192.611 25.6814C192.642 19.7106 192.642 19.6225 192.82 18.9901C193.044 18.192 193.535 17.1502 193.995 16.5178C194.397 15.9581 195.284 15.0977 195.817 14.7349C196.824 14.0559 198.218 13.5584 199.356 13.4651L199.999 13.4081V9.57264L199.299 9.62965C197.811 9.74886 196.271 10.1635 194.966 10.8114C194.313 11.1379 193.008 11.9879 192.83 12.2004C192.773 12.2626 192.7 12.3144 192.663 12.3144C192.627 12.3144 192.59 11.6821 192.59 10.915V9.51562H190.716C189.677 9.51562 188.81 9.54154 188.784 9.57264Z" fill="#FF2727"/>
<path d="M34.1881 9.6772C31.5724 10.0037 29.4057 11.0662 27.5366 12.9477C25.8867 14.601 24.9574 16.2959 24.4614 18.5764C24.2056 19.7737 24.2056 21.8521 24.4614 23.0182C24.712 24.1222 25.0514 25.0655 25.5317 25.9777C27.1084 28.9735 29.9591 31.083 33.3736 31.7879C34.3865 31.9952 36.6263 31.9952 37.6391 31.7879C42.7191 30.7409 46.3686 26.6411 46.7445 21.5255L46.802 20.7895H42.9384L42.881 21.4271C42.787 22.5777 42.3067 23.9045 41.628 24.9204C41.179 25.5942 39.999 26.693 39.2942 27.1024C37.2267 28.2997 34.8094 28.4552 32.58 27.5326C31.9431 27.2683 30.8989 26.5738 30.4551 26.1177L30.1105 25.7652L38.1612 21.5048C42.5991 19.1621 46.2224 17.2029 46.2224 17.1511C46.2224 16.9334 45.1417 14.9276 44.677 14.2797C43.0533 11.9992 40.5472 10.3976 37.7436 9.82751C36.8194 9.64611 35.06 9.56318 34.1933 9.6772M37.3259 13.6629C38.4797 13.9687 39.8842 14.7358 40.5733 15.4511L40.8448 15.7309L39.3255 16.5291C38.4954 16.9697 35.6761 18.4624 33.0603 19.8462L28.3093 22.3652L28.2362 22.1475C28.1944 22.0335 28.1631 21.396 28.1631 20.7377C28.1631 19.6596 28.1787 19.4679 28.3824 18.8304C29.2334 16.0419 31.4105 14.0827 34.2507 13.5385C35.0391 13.3882 36.4957 13.4504 37.3259 13.6577" fill="#0A0515"/>
<path d="M110.518 9.67784C106.227 10.2117 102.635 13.0675 101.22 17.0532C100.76 18.3542 100.614 19.2249 100.614 20.785C100.604 22.3606 100.703 22.967 101.178 24.382C102.441 28.1656 105.663 30.9437 109.745 31.7937C110.706 31.9906 112.972 31.9906 113.933 31.7937C118.548 30.8245 121.905 27.5229 122.887 23.0033C123.137 21.8371 123.137 19.7432 122.887 18.577C122.396 16.3173 121.42 14.5395 119.78 12.912C118.12 11.2587 116.188 10.2324 113.927 9.80224C113.123 9.65193 111.296 9.58455 110.523 9.68303M113.656 13.6687C114.366 13.8502 115.421 14.3218 116.016 14.7261C116.564 15.0993 117.446 15.9648 117.854 16.5246C119.013 18.1313 119.498 20.303 119.107 22.1533C118.778 23.76 118.068 25.0143 116.851 26.1598C115.368 27.5488 113.484 28.2381 111.442 28.1241C109.599 28.0205 108.101 27.3726 106.749 26.0768C105.663 25.0402 105.015 23.9518 104.629 22.5109C104.404 21.6557 104.42 19.8469 104.66 19.0124C105.496 16.1099 107.673 14.1041 110.576 13.5547C111.364 13.4044 112.821 13.4666 113.651 13.6739" fill="#0A0515"/>
<path d="M108.722 16.0726C108.132 16.4562 107.208 17.415 106.926 17.9437L106.723 18.3117L110.529 22.0901L114.33 25.8633L114.711 25.6612C115.212 25.4072 116.491 24.1322 116.747 23.6398L116.951 23.2614L113.165 19.5038C111.082 17.4357 109.349 15.7461 109.302 15.7461C109.255 15.7461 108.994 15.8912 108.722 16.0674" fill="#FF2727"/>
<path d="M134.862 9.68635C132.961 9.91958 130.915 10.7437 129.427 11.8736C128.607 12.4955 127.406 13.7602 126.868 14.5584C125.965 15.9008 125.396 17.3572 125.104 18.9846C124.9 20.1819 124.937 22.0063 125.193 23.1103C126.216 27.5521 129.468 30.75 133.985 31.7503C135.071 31.9888 137.164 32.0043 138.266 31.7918C139.143 31.6156 140.229 31.2631 141.033 30.8952C141.686 30.5997 142.98 29.7704 143.487 29.3195L143.795 29.0552L142.49 27.6351L141.195 26.2201L140.986 26.4119C140.589 26.7643 139.78 27.2671 139.117 27.5521C137.211 28.3659 134.794 28.314 132.982 27.407C131.421 26.6244 130.299 25.4945 129.536 23.9396C128.973 22.789 128.79 21.8923 128.842 20.5033C128.889 19.249 129.035 18.6737 129.542 17.6267C130.215 16.2428 131.077 15.2995 132.361 14.5169C134.888 12.9672 138.104 13.1019 140.563 14.8538C140.887 15.087 141.184 15.2529 141.221 15.2114C141.252 15.1803 141.827 14.5376 142.495 13.7965L143.711 12.4385L143.445 12.2156C142.171 11.1117 140.114 10.1528 138.235 9.79519C137.404 9.63452 135.676 9.5775 134.851 9.68116" fill="#FF2727"/>
<path d="M174.048 9.67485C169.014 10.3072 165.062 14.0286 164.227 18.9369C164.06 19.9113 164.06 21.6476 164.227 22.6272C164.373 23.5083 164.864 25.0165 165.235 25.7421C166.822 28.8778 169.704 31.0443 173.28 31.7855C174.23 31.9825 176.439 31.9825 177.384 31.7855C180.96 31.0443 183.842 28.883 185.429 25.7421C186.04 24.5449 186.562 22.5079 186.562 21.321V20.7768H182.793L182.746 21.0723C182.72 21.2381 182.683 21.5906 182.657 21.8549C182.594 22.425 182.276 23.4564 181.999 24.011C181.467 25.0476 180.459 26.2034 179.519 26.8513C178.981 27.2193 177.765 27.7687 177.102 27.9397C176.668 28.0537 176.256 28.0848 175.29 28.0848C174.173 28.0745 173.969 28.0589 173.317 27.862C172.158 27.5095 170.811 26.7269 170.121 26.0013L169.897 25.768L177.948 21.5076C182.996 18.8384 185.998 17.2057 185.998 17.1332C185.998 16.931 185.241 15.3969 184.829 14.7749C183.153 12.199 180.563 10.4368 177.525 9.82516C176.601 9.63339 174.899 9.56082 174.048 9.66448M177.18 13.6502C178.329 13.9456 179.764 14.7438 180.464 15.4798L180.689 15.713L174.45 19.0146C171.019 20.8287 168.184 22.3162 168.153 22.3214C167.929 22.3525 167.871 20.1808 168.075 19.2738C168.717 16.3298 171.035 14.0959 174.027 13.5258C174.831 13.3755 176.355 13.4377 177.185 13.645" fill="#FF2727"/>
</svg>
