<svg width="109" height="32" viewBox="0 0 109 32" fill="none" xmlns="http://www.w3.org/2000/svg">
<path d="M54.5021 15.6284C54.4861 18.9896 52.3085 20.9739 49.0819 20.9739C45.3388 20.9739 42.9961 18.3352 42.9961 15.4137C42.9961 12.4923 45.3708 9.85352 48.9168 9.85352C50.8975 9.85352 52.4096 10.5603 53.8472 11.9059L53.0166 12.665C51.792 11.4975 50.3331 10.8797 48.9328 10.8797C46.3398 10.8797 44.1089 12.8273 44.1089 15.3771C44.1089 17.9268 46.1961 19.9792 49.0978 19.9792C51.1477 19.9792 52.9687 18.775 53.2722 16.6336H49.8326V15.6074H54.4968V15.6231L54.5021 15.6284ZM57.0738 16.7959C57.0578 18.5289 58.4422 19.9478 60.2045 19.9844C61.9882 20.0368 63.479 18.6546 63.5163 16.9059C63.5695 15.1519 62.1639 13.686 60.3856 13.6493C58.6019 13.597 57.1111 14.9792 57.0738 16.7279V16.8012M63.3193 12.8902H64.3256V20.7331H63.3193V19.3875C62.5473 20.3614 61.3546 20.9268 60.098 20.9268C57.7926 20.8535 55.9557 18.9635 56.0302 16.6964C56.1047 14.5027 57.9044 12.7488 60.1353 12.6964C61.4132 12.6807 62.6005 13.2985 63.3193 14.3404V12.8902ZM73.0736 20.7122H72.0673V16.6964C72.0673 16.0944 72.014 15.597 71.9927 15.2252C71.9395 14.3038 71.1302 13.597 70.1931 13.6336C69.453 13.6336 68.7715 13.9687 68.3189 14.5551C67.7439 15.2828 67.6534 16.1991 67.6534 17.3875V20.7174H66.6258V12.8745H67.6534V14.22C68.3562 13.2095 69.24 12.6807 70.3901 12.6807C71.6147 12.6807 72.4773 13.2985 72.9085 14.576C73.6114 13.3195 74.6709 12.6807 75.8423 12.6807C77.4982 12.6807 78.563 13.8483 78.563 16.0786V20.7174H77.5354V16.4347C77.5354 15.8483 77.4609 15.4085 77.4449 15.1258C77.3917 14.4347 76.7261 13.6546 75.6453 13.6546C74.6177 13.6703 73.7178 14.309 73.3771 15.2462C73.1428 15.9006 73.0523 16.6074 73.0896 17.2985L73.0736 20.7174V20.7122ZM88.0671 16.7802C88.0831 15.0472 86.6827 13.6284 84.915 13.5917C83.1846 13.5551 81.763 14.9216 81.747 16.6179V16.7593C81.747 18.4766 83.1527 19.8745 84.8991 19.8745C86.6455 19.8745 88.0511 18.4923 88.0671 16.775M81.8216 20.7226H80.794V9.85875H81.8216V14.2305C82.5776 13.2567 83.765 12.6703 85.0269 12.6912C87.3483 12.7645 89.1692 14.6546 89.0947 16.9373C89.0202 19.131 87.2205 20.9006 84.9896 20.9373C83.7117 20.9373 82.5244 20.3195 81.8216 19.2933V20.7279V20.7226ZM91.6504 16.7907C91.6344 18.5237 93.0188 19.9425 94.7811 19.9792C96.5648 20.0315 98.0556 18.6493 98.0929 16.9006C98.1462 15.1467 96.7405 13.6807 94.9622 13.6441C93.1785 13.5917 91.6877 14.9739 91.6504 16.7226V16.7959M97.8959 12.8849H98.9022V20.7279H97.8959V19.3823C97.1239 20.3561 95.9312 20.9216 94.6747 20.9216C92.3692 20.8483 90.5323 18.9582 90.6068 16.6755C90.6814 14.4818 92.481 12.7279 94.7119 12.6755C95.9898 12.6598 97.1771 13.2776 97.8959 14.3195V12.8849ZM102.235 14.2828C103.066 13.22 104.051 12.6703 105.222 12.6703C106.969 12.6703 108.172 13.8588 108.172 16.3142V20.7226H107.144V16.4556C107.144 14.6127 106.548 13.5865 105.004 13.5865C104.173 13.5865 103.385 13.9739 102.896 14.6493C102.299 15.4085 102.214 16.1886 102.214 17.4294V20.7226H101.186V12.8797H102.214L102.23 14.2776L102.235 14.2828Z" fill="white"/>
<path d="M25.8408 25.1675C25.6225 25.3822 25.4255 25.555 25.2285 25.733L25.0315 25.8901C24.8717 26.0157 24.7067 26.1571 24.5469 26.2775L24.3659 26.4188C24.1476 26.5759 23.9346 26.7173 23.7163 26.8639L23.5353 26.9686C23.3543 27.0733 23.1945 27.1832 22.9975 27.288L22.7792 27.4136C22.5609 27.5183 22.348 27.644 22.1297 27.733L22.0764 27.7696C21.8262 27.8743 21.5919 27.9843 21.3363 28.089L21.1553 28.1623C20.9583 28.2356 20.74 28.3037 20.527 28.377L20.3673 28.4293C20.117 28.5026 19.8455 28.5707 19.574 28.644C19.558 28.644 19.5367 28.6597 19.4994 28.6597C19.2651 28.712 19.0149 28.7644 18.7806 28.801L18.5996 28.8377L17.8435 28.9424H17.7903L16.981 28.9948H15.9534C15.6818 28.9948 15.4476 28.9791 15.1813 28.9424L15.0003 28.9267C14.6968 28.8901 14.404 28.8534 14.1005 28.801L13.6852 28.712C13.4509 28.6597 13.2007 28.6073 12.9664 28.534L12.6948 28.4607L12.5511 28.4084L16.0971 24.9372C21.1021 25.1309 25.3296 21.2932 25.5107 16.3717C25.5852 14.5864 25.1167 12.8325 24.1423 11.3089L21.9114 13.5026V18.8639H18.1683V11.466L24.2009 5.50262C24.7599 5.91099 25.2817 6.33508 25.7875 6.81152C30.9895 11.8743 30.9895 20.089 25.8408 25.1675ZM7.06696 25.2042C1.91827 20.1257 1.91827 11.911 7.06696 6.84817L7.08294 6.83246C7.27994 6.63874 7.47694 6.46073 7.67927 6.28272L7.87627 6.12565C8.036 6 8.20106 5.85864 8.34482 5.73822L8.52585 5.59686C8.74415 5.43979 8.95712 5.29843 9.17542 5.15183L9.35645 5.04712C9.53748 4.94241 9.69721 4.83246 9.89422 4.72775L10.1125 4.60209C10.3308 4.49738 10.5438 4.37173 10.7621 4.28272L10.8153 4.24607C11.0656 4.14136 11.2999 4.03141 11.5554 3.9267L11.7365 3.8534C11.9335 3.7801 12.1518 3.71204 12.3647 3.63874L12.5245 3.58639C12.7747 3.51309 13.0463 3.44503 13.3178 3.37173H13.3923C13.6266 3.31937 13.8769 3.26702 14.1111 3.23037L14.2922 3.19372L15.0482 3.089H15.1015L15.9108 3.03665H16.9384C17.2099 3.03665 17.4442 3.05236 17.7104 3.089L17.8915 3.10471C18.0885 3.12042 18.2695 3.15707 18.4665 3.17801L18.7913 3.23037C18.935 3.24607 19.0628 3.28272 19.2066 3.31937C19.4409 3.37173 19.6911 3.42408 19.9254 3.49738L20.1969 3.57068L20.3407 3.62304L16.7946 7.09424C11.7897 6.90052 7.56213 10.7225 7.3598 15.6597C7.26929 17.466 7.73784 19.2356 8.7122 20.7382L10.9431 18.5445V13.1832H14.6862V20.5812L8.65363 26.5445C8.09457 26.1361 7.55681 25.6963 7.06696 25.199M16.4432 0C7.44499 0 0.171875 7.16754 0.171875 16C0.171875 24.8325 7.46097 32 16.4432 32C25.4255 32 32.7146 24.8325 32.7146 16C32.7305 7.16754 25.4414 0 16.4432 0Z" fill="#D85A43"/>
</svg>
