<svg width="79" height="28" viewBox="0 0 79 28" fill="none" xmlns="http://www.w3.org/2000/svg">
<path d="M9.88654 11.6598C9.875 12.047 9.79424 13.1201 8.84816 13.8779C7.82131 14.702 6.07913 14.8846 4.82153 14.8846C4.34272 14.8846 3.8466 14.8735 3.36779 14.8237C2.38133 14.7131 1.25064 14.4752 0.639147 13.5902C0.264174 13.0316 0.223794 12.4453 0.212256 11.7705H3.44856C3.44856 11.87 3.40817 12.3181 3.71969 12.578C3.88698 12.7274 4.2908 12.8767 4.83884 12.8767C4.93114 12.8767 5.64647 12.8656 6.06182 12.567C6.54063 12.2185 6.48871 11.5437 6.48871 11.422C6.48871 11.0625 6.50025 10.714 6.50025 10.36C6.34449 10.5978 6.33296 10.62 6.18874 10.7195C5.65801 11.1288 4.83884 11.2284 4.18696 11.2284C3.24088 11.2284 2.43325 11.0514 1.666 10.4928C1.01412 10.006 0.171875 8.99932 0.171875 7.09104C0.171875 6.68173 0.212256 5.03342 1.3141 3.91058C2.09289 3.11409 3.28703 2.8154 4.39464 2.82646C4.65424 2.82646 5.65801 2.82646 6.39641 3.38512C6.55217 3.49574 6.64447 3.58424 6.86369 3.87186L6.85215 3.0643H9.93269L9.92116 11.162C9.92116 11.339 9.92115 11.4884 9.89231 11.6488M5.70993 5.33211C5.60609 5.28233 5.38687 5.18277 5.07536 5.19383C4.85614 5.19383 4.61962 5.24361 4.44079 5.33211C3.93313 5.56995 3.59854 6.10648 3.59854 7.1906C3.59854 7.9152 3.76584 8.36323 3.99082 8.60107C4.1062 8.73935 4.25042 8.81126 4.41771 8.88869C4.48117 8.92741 4.72923 8.98826 4.98883 8.98826C5.13305 8.98826 5.3638 8.98825 5.66377 8.84997C6.37911 8.55129 6.4541 7.70501 6.4541 7.05785C6.4541 6.44942 6.39064 5.66398 5.71569 5.33764M16.763 11.6654V11.0072C16.6187 11.1067 16.4514 11.245 16.0995 11.4054C15.7246 11.5935 14.9054 11.8645 13.7863 11.8645C13.567 11.8645 12.9555 11.8645 12.3556 11.6543C11.1961 11.2173 10.573 10.2604 10.573 9.09888C10.573 8.63979 10.6769 7.60545 11.8076 6.88086C12.546 6.40517 13.4978 6.28348 14.3689 6.17286C14.8766 6.11201 15.4073 6.03458 15.9034 5.94608C16.1226 5.8963 16.3707 5.84651 16.5899 5.78567C16.5899 5.74695 16.5899 5.5257 16.538 5.38742C16.4341 5.03895 16.1745 4.79005 15.3784 4.79005C15.1188 4.79005 14.9516 4.82877 14.8593 4.83983C14.2997 4.97811 14.2478 5.41508 14.1958 5.59761L10.8557 5.67505C10.8961 5.48698 10.948 5.32658 10.9711 5.16617C11.0634 4.82877 11.2422 4.24246 11.9575 3.70593C12.6729 3.18046 13.7516 2.80987 15.69 2.82093C17.0918 2.82093 18.9897 3.04771 19.682 4.43052C19.8781 4.8177 19.9416 5.15511 19.9416 5.95161L19.93 10.6255C19.93 11.2505 20.0223 11.3833 20.2415 11.6875L16.7572 11.6764L16.763 11.6654ZM15.2285 8.0756C14.8535 8.1641 14.3054 8.27473 14.0343 8.60107C13.9939 8.65085 13.8786 8.80019 13.8786 8.99932C13.8786 9.25929 14.0978 9.65753 14.7612 9.65753C15.0727 9.65753 15.3438 9.55797 15.6323 9.41969C16.6303 8.91082 16.5784 8.05901 16.5784 7.66076C16.1226 7.82116 15.6842 7.94838 15.2285 8.07007M36.7519 11.6986L36.7634 6.27795C36.7634 5.74142 36.7634 5.28233 36.5961 4.78452C36.1692 3.5234 35.0501 3.16387 34.5943 3.04218C34.0636 2.89283 33.6482 2.9039 33.4233 2.9039C31.9695 2.87624 31.2253 3.42936 30.81 3.83868C30.6946 3.9493 30.4985 4.13736 30.3427 4.48583C30.1466 4.14843 30.0312 3.9493 29.8985 3.82761C29.039 2.89283 27.5448 2.89284 27.2333 2.89284C26.0103 2.89284 25.2604 3.34087 24.8912 3.66721C24.747 3.80549 24.6201 3.96589 24.4124 4.31436V3.09196H20.9684L20.9569 11.6764H24.5335L24.5451 7.0136C24.5451 6.75364 24.597 6.57664 24.6374 6.47708C24.8854 5.76908 25.6238 5.68058 25.8719 5.68058C26.143 5.68058 26.8584 5.76908 27.066 6.48814C27.118 6.68726 27.118 6.82554 27.118 7.02467L27.0891 11.6709H30.6485L30.66 7.09657C30.66 6.88639 30.66 6.70939 30.7119 6.51026C30.9311 5.75248 31.6869 5.68611 31.958 5.68611C33.3079 5.68611 33.2041 6.84767 33.2041 7.17954L33.1925 11.6654L36.7403 11.693L36.7519 11.6986ZM45.5378 11.4109C44.9263 11.7594 44.2225 11.9198 43.5129 11.9198C42.6014 11.9198 41.9553 11.6322 41.6438 11.4331C41.4881 11.3224 41.3842 11.1952 41.2688 11.0735V11.7096H37.8249L37.8364 0.00553136H41.3842L41.3958 3.71699C41.5515 3.56765 41.6669 3.46808 41.863 3.3298C42.3822 2.9924 43.0226 2.87071 43.6571 2.87071C44.7647 2.87071 45.6993 3.24683 46.4377 4.01568C46.9684 4.57433 47.5568 5.50911 47.5568 7.22932C47.5684 7.71607 47.528 10.2438 45.5435 11.4054M43.686 5.79673C43.3745 5.35977 42.8956 5.29892 42.6995 5.29892C42.5553 5.29892 42.2322 5.33764 41.9438 5.54783C41.3727 5.99586 41.3092 6.74257 41.3092 7.38973C41.3092 7.9871 41.3727 8.7836 41.8919 9.18185C41.9957 9.27035 42.2841 9.44182 42.6822 9.44182C42.838 9.44182 43.2533 9.39203 43.5764 9.08229C43.8763 8.7836 44.0552 8.25813 44.0552 7.38973C44.0552 6.8532 44.0033 6.24476 43.6802 5.79673M51.7508 11.7041L51.7796 0H48.2029L48.1914 11.7041H51.7508ZM52.8295 2.2844V0.0165936H56.3889V2.2844H52.8295ZM52.8007 11.7152L52.8122 3.13068H56.3716L56.36 11.7152H52.8007ZM67.0035 11.7262L67.015 6.30561C67.015 5.69717 66.9631 5.39848 66.8996 5.11086C66.7554 4.55221 66.4727 3.98802 66.0055 3.61743C65.1632 2.92049 64.0556 2.90943 63.7326 2.90943C62.8211 2.90943 61.8635 3.13621 61.2116 3.76677C61.0443 3.92718 61.0039 3.9659 60.7847 4.27564V3.13068H57.433L57.4215 11.7152H60.9693L60.9808 7.14082C60.9808 6.78129 60.9693 5.73036 62.2788 5.73036C63.0865 5.73036 63.3461 6.13967 63.4384 6.43836C63.4903 6.63748 63.4903 6.82554 63.4903 7.02467L63.4787 11.7096L67.015 11.7207L67.0035 11.7262ZM77.4392 11.7373C77.4277 12.1245 77.3469 13.1975 76.4008 13.9553C75.3855 14.7795 73.6318 14.962 72.3742 14.962C71.8954 14.962 71.3993 14.9509 70.9205 14.9011C69.934 14.7905 68.7918 14.5527 68.1918 13.6677C67.8169 13.109 67.7765 12.5227 67.765 11.8479H71.0013C71.0013 11.9475 70.9609 12.3955 71.2724 12.6555C71.4397 12.8048 71.8435 12.9541 72.3915 12.9541C72.4838 12.9541 73.1992 12.9431 73.6145 12.6444C74.0933 12.2959 74.0414 11.6211 74.0414 11.4994C74.0414 11.1399 74.053 10.7914 74.053 10.4374C73.8972 10.6753 73.8857 10.6974 73.7414 10.797C73.2107 11.2063 72.3915 11.3058 71.7397 11.3058C70.7936 11.3058 69.9744 11.1454 69.2187 10.5702C68.5668 10.0834 67.7246 9.07676 67.7246 7.16848C67.7246 6.75917 67.765 5.11086 68.8668 3.98802C69.6456 3.19152 70.8397 2.89283 71.9473 2.9039C72.2069 2.9039 73.2107 2.9039 73.9491 3.46255C74.1049 3.57318 74.1972 3.66168 74.4164 3.9493L74.4048 3.14174H77.4854L77.4739 11.2395C77.4739 11.4165 77.4739 11.5658 77.445 11.7262M73.2626 5.40955C73.1588 5.35977 72.9396 5.2602 72.6281 5.27127C72.4088 5.27127 72.1723 5.32105 71.9935 5.40955C71.4858 5.64739 71.1512 6.18392 71.1512 7.26804C71.1512 7.99263 71.3185 8.44066 71.5435 8.67851C71.6589 8.81679 71.8031 8.88869 71.9704 8.96613C72.0339 9.00485 72.2819 9.06569 72.5415 9.06569C72.6858 9.06569 72.9165 9.06569 73.2165 8.92741C73.9318 8.62873 74.0068 7.78245 74.0068 7.13529C74.0068 6.53792 73.9433 5.74142 73.2684 5.41508M18.3205 24.6859C19.2839 24.6859 20.2704 24.5366 20.5704 24.5089V22.1802C20.2185 22.2411 20.1435 22.2411 19.9358 22.2411C19.0013 22.2411 18.9493 21.6935 18.9493 21.345L19.0128 18.0429H20.5704V16.1844H19.0474L19.0762 13.4796H15.4996L15.4477 16.1733H14.2016V18.0318H15.4246L15.3611 22.1913C15.3611 22.49 15.3727 22.7997 15.465 23.115C15.7361 23.989 16.4399 24.6748 18.3263 24.6859M34.9001 20.9081C34.9001 20.9081 34.9001 21.3063 34.9808 21.5663C35.0962 21.9037 35.4481 22.5232 36.4 22.5121C36.948 22.5121 37.2422 22.3241 37.4153 22.1858C37.7787 21.8982 37.946 21.5276 38.0268 21.4114L40.94 22.5951C40.8477 22.7334 40.7439 22.9048 40.5131 23.1703C39.8901 23.8673 39.1748 24.2434 38.8748 24.3927C38.4479 24.5919 37.5076 24.9403 36.2384 24.9403C35.5 24.9403 34.7847 24.8408 34.1213 24.5808C32.2753 23.8451 31.2888 22.1249 31.3003 20.2554C31.3003 18.4854 32.1599 17.3902 32.6676 16.9145C33.954 15.7419 35.7192 15.6534 36.2269 15.6534C36.8384 15.6534 38.6556 15.7419 39.9593 17.086C40.3862 17.534 40.715 18.0927 40.9054 18.679C41.1419 19.4257 41.165 20.1503 41.165 20.9357L34.9116 20.897L34.9001 20.9081ZM37.4499 18.6292C37.2134 17.9212 36.5557 17.8216 36.2788 17.8216C36.0077 17.8327 35.8231 17.9101 35.7192 17.9599C35.0558 18.2365 34.9808 18.9334 34.9405 19.1215H37.5249C37.5133 19.0219 37.5133 18.8449 37.4441 18.6347M47.5684 18.6956C47.7357 18.6956 47.9203 18.7066 48.0876 18.7343V15.858C47.153 15.858 46.3973 15.8857 45.607 16.4167C45.4108 16.5273 45.2955 16.6269 45.1282 16.7762V16.0295H41.7073L41.6957 24.614H45.232L45.2435 20.5762C45.2435 20.2775 45.2435 20.0397 45.3474 19.7686C45.7743 18.596 47.2972 18.6845 47.5684 18.6956ZM54.2602 24.6251V23.9668C54.116 24.0664 53.9487 24.2047 53.5968 24.3651C53.2218 24.5531 52.4026 24.8242 51.2835 24.8242C51.0643 24.8242 50.4528 24.8242 49.8528 24.614C48.6933 24.177 48.0703 23.2201 48.0703 22.0586C48.0703 21.5995 48.1741 20.5651 49.3048 19.8405C50.0432 19.3538 50.995 19.2432 51.8661 19.1325C52.3622 19.0717 52.9045 18.9943 53.4006 18.9058C53.6198 18.856 53.8679 18.8062 54.0871 18.7454C54.0871 18.7066 54.0871 18.4854 54.0352 18.3471C53.9314 17.9986 53.6718 17.7497 52.8757 17.7497C52.6161 17.7497 52.4488 17.7884 52.3565 17.7995C51.7969 17.9378 51.745 18.3748 51.6931 18.5573L48.3529 18.6347C48.3933 18.4467 48.4452 18.2863 48.4683 18.1259C48.5606 17.7884 48.7394 17.2021 49.4548 16.6656C50.1701 16.1401 51.2489 15.7695 53.1872 15.7806C54.589 15.7806 56.4869 16.0074 57.1792 17.3902C57.3753 17.7774 57.4388 18.1259 57.4388 18.9113L57.4273 23.5852C57.4273 24.2213 57.5196 24.343 57.7388 24.6472L54.2544 24.6361L54.2602 24.6251ZM52.7257 21.0242C52.3507 21.1127 51.8142 21.2233 51.5315 21.5497C51.4912 21.5995 51.3758 21.7488 51.3758 21.9479C51.3758 22.2079 51.595 22.6062 52.2584 22.6062C52.5699 22.6062 52.8411 22.5066 53.1295 22.3683C54.1275 21.8594 54.0756 21.0076 54.0756 20.6094C53.6198 20.7698 53.1814 20.9081 52.7257 21.0187M64.2806 24.8463C64.021 24.8463 63.0865 24.8463 62.3423 24.3596C62.2269 24.2711 62.1461 24.2102 61.9673 24.0498V27.7391H58.4714L58.4829 16.035H61.9558V16.6933C62.1231 16.4941 62.2038 16.4333 62.3077 16.3559C62.6307 16.107 63.3057 15.7972 64.3325 15.7972C67.1246 15.7972 68.2322 17.9931 68.2322 20.3715C68.2322 22.7997 67.0612 24.8574 64.2806 24.8463ZM64.3441 18.7675C64.0325 18.3692 63.5653 18.3084 63.398 18.3084C63.2538 18.3084 62.9826 18.3194 62.7115 18.4688C61.9846 18.8449 61.9442 19.7133 61.9442 20.3881C61.9442 21.0629 61.9962 21.9313 62.6826 22.2964C62.9538 22.4457 63.1903 22.4457 63.3057 22.4457C63.4614 22.4457 63.7095 22.4347 63.9922 22.2687C64.6267 21.8816 64.719 21.0574 64.719 20.4379C64.719 19.9014 64.6786 19.2155 64.3441 18.7675ZM78.1719 16.0738H74.4798C74.4683 16.1733 73.1299 21.6714 73.1299 21.6714L71.855 16.0738H68.1399L70.9609 23.9613C71.1051 24.3485 71.232 24.708 71.232 24.8352C71.232 25.145 70.984 25.2446 70.4936 25.2446C70.1417 25.2446 69.8186 25.2058 69.4783 25.1948V27.623L70.4648 27.7225C70.7647 27.7613 71.0763 27.7336 71.3589 27.7336C72.2416 27.7336 72.9338 27.7447 73.6491 27.2081C74.3241 26.6716 74.6356 25.8972 74.9125 25.1395L78.1719 16.0682V16.0738ZM30.5619 17.8659C30.4177 17.1413 30.0658 16.7043 29.8351 16.4941C29.2005 15.8857 28.2083 15.6368 27.3545 15.6368C26.0565 15.6368 25.2489 16.1125 24.897 16.4333C24.7816 16.5439 24.6893 16.6324 24.4932 16.8703L24.5047 12.8933H20.9569L20.9453 24.5974H24.4816L24.4932 18.4799H27.6487L27.6372 24.5974H30.6369L30.6485 18.9998C30.66 18.5628 30.6485 18.2918 30.5562 17.8659" fill="#7D4199"/>
<path d="M11.2519 27.961L18.9301 27.972L24.4797 24.5703H20.9435L11.2461 27.961H11.2519Z" fill="#DBCFE6"/>
<path d="M27.6541 24.5869H30.6539L34.4613 27.9997L27.3311 27.9886L27.6541 24.5869Z" fill="#DBCFE6"/>
<path d="M24.4925 18.4512L26.4828 19.1435V23.6727L24.481 24.5687L24.4925 18.4512Z" fill="#818386"/>
</svg>
