<svg width="130" height="18" viewBox="0 0 130 18" fill="none" xmlns="http://www.w3.org/2000/svg">
<path d="M7.41665 0.808594C3.38204 0.808594 0.828125 3.6609 0.828125 9.31567C0.828125 14.4498 3.14673 17.1914 6.71073 17.1914C8.4956 17.1914 10.0165 16.56 10.7913 14.9981L10.9347 16.92H13.0238V9.11629H7.18708V11.0824H10.6306V11.5587C10.6306 14.3391 8.80552 15.1311 7.23299 15.1311C5.02917 15.1311 3.45665 13.3698 3.45665 9.16059C3.45665 4.70767 5.18986 2.87444 7.37073 2.87444C8.91456 2.87444 10.0624 3.64429 10.51 5.63259L10.6019 6.05906L12.9951 5.56059L12.9033 5.08429C12.3179 2.12121 10.2059 0.808594 7.41665 0.808594Z" fill="#0A0515"/>
<path fill-rule="evenodd" clip-rule="evenodd" d="M18.7801 17.186C20.3297 17.1638 21.2881 16.5767 22.017 15.8291V15.8235C22.0399 16.1614 22.0916 16.477 22.1604 16.7927L22.1834 16.909H24.6225L24.5766 16.7041C24.4561 16.2057 24.4331 15.458 24.4331 14.893V8.94474C24.4331 6.61859 22.7401 5.32812 20.0943 5.32812C17.4486 5.32812 16.0196 6.72936 15.503 7.74843L15.3825 7.97551L17.2363 8.92813L17.3051 8.78966C17.7241 7.97551 18.6883 7.24997 19.882 7.24997C21.1733 7.24997 21.994 7.88136 21.994 9.14966V9.55951L18.3611 10.5564C16.8575 10.9663 15.1472 11.941 15.1472 13.9294C15.1472 15.7626 16.5763 17.186 18.7801 17.186ZM21.994 14.1287C21.4545 14.7878 20.4961 15.397 19.4171 15.397H19.4114C18.3382 15.397 17.6552 14.7435 17.6552 13.7687C17.6552 12.794 18.5046 12.3177 19.463 12.0241L21.994 11.2764V14.1287Z" fill="#0A0515"/>
<path d="M38.5858 7.37141C37.6273 7.37141 36.6172 8.00279 36.0548 8.54556V16.9142H33.6157V9.11048C33.6157 7.95848 33.0073 7.36587 31.8365 7.36587C30.8781 7.36587 29.868 7.99725 29.3056 8.54002V16.9086H26.8665V5.60464H29.1851V6.85079C30.0746 5.94802 31.343 5.33325 32.6515 5.33325C34.2929 5.33325 35.2743 6.05879 35.7449 7.05017C36.6345 6.0311 37.9946 5.33325 39.4007 5.33325C41.8169 5.33325 42.7983 6.8951 42.7983 8.58987V16.9142H40.3591V9.11048C40.3591 7.95848 39.7508 7.36587 38.58 7.36587L38.5858 7.37141Z" fill="#0A0515"/>
<path fill-rule="evenodd" clip-rule="evenodd" d="M47.5618 16.9141L47.7971 15.8728C48.4571 16.7091 49.559 17.1854 50.7528 17.1854C53.4215 17.1854 55.3211 14.9479 55.3211 11.0987C55.3211 7.24944 53.519 5.32759 50.8446 5.32759C49.7197 5.32759 48.6465 5.75959 47.9406 6.52944V1.07959H45.5015V16.9141H47.5618ZM52.8361 11.1707C52.8361 14.0617 51.6653 15.2857 50.2822 15.2857C49.3467 15.2857 48.5489 14.8094 47.9406 14.2002V8.2962C48.526 7.70913 49.3008 7.25497 50.2362 7.25497C51.6194 7.25497 52.8361 8.27959 52.8361 11.1707Z" fill="#0A0515"/>
<path d="M57.3357 1.07959H59.7748V16.9141H57.3357V1.07959Z" fill="#0A0515"/>
<path fill-rule="evenodd" clip-rule="evenodd" d="M67.0175 5.33325C63.7864 5.33325 61.9326 7.84771 61.9326 11.42H61.9441C61.9441 15.1751 64.0963 17.1911 67.0519 17.1911C69.1352 17.1911 70.6848 16.3548 71.5514 14.6822L71.6662 14.4551L69.7436 13.6631L69.6001 13.9123C69.0147 14.9259 68.1481 15.3357 67.1151 15.3357C65.5196 15.3357 64.3258 14.1117 64.3258 11.9185V11.78H71.6834V10.7166C71.6834 6.64587 69.2902 5.33325 67.0175 5.33325ZM69.3877 10.0631V10.2182H64.3488C64.5611 8.13571 65.7836 7.23294 67.0232 7.23294C68.2629 7.23294 69.3877 8.00279 69.3877 10.0631Z" fill="#0A0515"/>
<path fill-rule="evenodd" clip-rule="evenodd" d="M78.163 1.07812H81.6925L86.3355 16.9126H83.7357L82.5878 12.7532H77.1529L76.0051 16.9126H73.543L78.163 1.07812ZM82.0197 10.8037L79.8618 3.02213L77.7038 10.8037H82.0197Z" fill="#F0681C"/>
<path d="M88.1604 5.60352L90.0831 13.6786L92.218 5.60352H94.5137L96.6027 13.6786L98.5942 5.60352H100.821L97.7964 16.9131H95.3803L93.2683 8.86013L91.1333 16.9131H88.7401L85.7156 5.60352H88.1604Z" fill="#F0681C"/>
<path fill-rule="evenodd" clip-rule="evenodd" d="M104.77 17.1845C106.319 17.1624 107.278 16.5753 108.006 15.8276V15.822C108.035 16.1599 108.081 16.4756 108.15 16.7913L108.173 16.9076H110.612L110.566 16.7027C110.446 16.2042 110.423 15.4565 110.423 14.8916V8.94328C110.423 6.61712 108.73 5.32666 106.084 5.32666C103.438 5.32666 102.009 6.72789 101.493 7.74697L101.372 7.97404L103.226 8.92666L103.295 8.7882C103.714 7.97405 104.678 7.24851 105.872 7.24851C107.163 7.24851 107.984 7.87989 107.984 9.1482V9.55805L104.351 10.555C102.847 10.9648 101.137 11.9396 101.137 13.9279C101.137 15.7611 102.566 17.1845 104.77 17.1845ZM107.984 14.1273C107.444 14.7864 106.486 15.3956 105.407 15.3956H105.401C104.328 15.3956 103.645 14.742 103.645 13.7673C103.645 12.7925 104.488 12.3162 105.453 12.0227L107.984 11.275V14.1273Z" fill="#F0681C"/>
<path d="M112.793 5.60349H115.065V7.73026C116.615 5.98564 117.998 5.47056 119.169 5.44287V7.6361C117.528 7.6361 116.236 8.51672 115.232 9.40287V16.913H112.793V5.60349Z" fill="#F0681C"/>
<path fill-rule="evenodd" clip-rule="evenodd" d="M124.507 5.33179C121.275 5.33179 119.422 7.84625 119.422 11.4186H119.433C119.433 15.1736 121.585 17.1896 124.541 17.1896C126.624 17.1896 128.174 16.3533 129.04 14.6807L129.155 14.4536L127.233 13.6616L127.089 13.9109C126.504 14.9244 125.637 15.3342 124.604 15.3342C123.009 15.3342 121.815 14.1102 121.815 11.917V11.7786H129.172V10.7152C129.172 6.6444 126.779 5.33179 124.507 5.33179ZM126.877 10.0616V10.2222L126.871 10.2167H121.832C122.044 8.13425 123.261 7.23148 124.507 7.23148C125.752 7.23148 126.877 8.00133 126.877 10.0616Z" fill="#F0681C"/>
</svg>
