<svg width="109" height="32" viewBox="0 0 109 32" fill="none" xmlns="http://www.w3.org/2000/svg">
<path d="M54.5021 15.6264C54.4861 18.9877 52.3085 20.972 49.0819 20.972C45.3388 20.972 42.9961 18.3332 42.9961 15.4118C42.9961 12.4903 45.3708 9.85156 48.9168 9.85156C50.8975 9.85156 52.4096 10.5584 53.8472 11.9039L53.0166 12.6631C51.792 11.4955 50.3331 10.8777 48.9328 10.8777C46.3398 10.8777 44.1089 12.8254 44.1089 15.3751C44.1089 17.9249 46.1961 19.9772 49.0978 19.9772C51.1477 19.9772 52.9687 18.773 53.2722 16.6317H49.8326V15.6055H54.4968V15.6212L54.5021 15.6264ZM57.0738 16.794C57.0578 18.527 58.4422 19.9458 60.2045 19.9825C61.9882 20.0348 63.479 18.6526 63.5163 16.9039C63.5695 15.15 62.1639 13.684 60.3856 13.6474C58.6019 13.595 57.1111 14.9772 57.0738 16.7259V16.7992M63.3193 12.8882H64.3256V20.7311H63.3193V19.3856C62.5473 20.3594 61.3546 20.9249 60.098 20.9249C57.7926 20.8516 55.9557 18.9615 56.0302 16.6945C56.1047 14.5008 57.9044 12.7469 60.1353 12.6945C61.4132 12.6788 62.6005 13.2966 63.3193 14.3385V12.8882ZM73.0736 20.7102H72.0673V16.6945C72.0673 16.0924 72.014 15.595 71.9927 15.2233C71.9395 14.3018 71.1302 13.595 70.1931 13.6317C69.453 13.6317 68.7715 13.9667 68.3189 14.5531C67.7439 15.2809 67.6534 16.1971 67.6534 17.3856V20.7154H66.6258V12.8725H67.6534V14.2181C68.3562 13.2076 69.24 12.6788 70.3901 12.6788C71.6147 12.6788 72.4773 13.2966 72.9085 14.5741C73.6114 13.3175 74.6709 12.6788 75.8423 12.6788C77.4982 12.6788 78.563 13.8463 78.563 16.0767V20.7154H77.5354V16.4327C77.5354 15.8463 77.4609 15.4065 77.4449 15.1238C77.3917 14.4327 76.7261 13.6526 75.6453 13.6526C74.6177 13.6683 73.7178 14.3071 73.3771 15.2442C73.1428 15.8987 73.0523 16.6055 73.0896 17.2966L73.0736 20.7154V20.7102ZM88.0671 16.7783C88.0831 15.0453 86.6827 13.6264 84.915 13.5898C83.1846 13.5531 81.763 14.9196 81.747 16.616V16.7573C81.747 18.4746 83.1527 19.8725 84.8991 19.8725C86.6455 19.8725 88.0511 18.4903 88.0671 16.773M81.8216 20.7207H80.794V9.8568H81.8216V14.2285C82.5776 13.2547 83.765 12.6683 85.0269 12.6893C87.3483 12.7626 89.1692 14.6526 89.0947 16.9353C89.0202 19.1291 87.2205 20.8987 84.9896 20.9353C83.7117 20.9353 82.5244 20.3175 81.8216 19.2914V20.7259V20.7207ZM91.6504 16.7887C91.6344 18.5217 93.0188 19.9406 94.7811 19.9772C96.5648 20.0296 98.0556 18.6474 98.0929 16.8987C98.1462 15.1448 96.7405 13.6788 94.9622 13.6421C93.1785 13.5898 91.6877 14.972 91.6504 16.7207V16.794M97.8959 12.883H98.9022V20.7259H97.8959V19.3804C97.1239 20.3542 95.9312 20.9196 94.6747 20.9196C92.3692 20.8463 90.5323 18.9563 90.6068 16.6736C90.6814 14.4798 92.481 12.7259 94.7119 12.6736C95.9898 12.6578 97.1771 13.2756 97.8959 14.3175V12.883ZM102.235 14.2809C103.066 13.2181 104.051 12.6683 105.222 12.6683C106.969 12.6683 108.172 13.8568 108.172 16.3123V20.7207H107.144V16.4537C107.144 14.6107 106.548 13.5845 105.004 13.5845C104.173 13.5845 103.385 13.972 102.896 14.6474C102.299 15.4065 102.214 16.1866 102.214 17.4275V20.7207H101.186V12.8777H102.214L102.23 14.2756L102.235 14.2809Z" fill="#0A0515"/>
<path d="M25.8408 25.1675C25.6225 25.3822 25.4255 25.555 25.2285 25.733L25.0315 25.8901C24.8717 26.0157 24.7067 26.1571 24.5469 26.2775L24.3659 26.4188C24.1476 26.5759 23.9346 26.7173 23.7163 26.8639L23.5353 26.9686C23.3543 27.0733 23.1945 27.1832 22.9975 27.288L22.7792 27.4136C22.5609 27.5183 22.348 27.644 22.1297 27.733L22.0764 27.7696C21.8262 27.8743 21.5919 27.9843 21.3363 28.089L21.1553 28.1623C20.9583 28.2356 20.74 28.3037 20.527 28.377L20.3673 28.4293C20.117 28.5026 19.8455 28.5707 19.574 28.644C19.558 28.644 19.5367 28.6597 19.4994 28.6597C19.2651 28.712 19.0149 28.7644 18.7806 28.801L18.5996 28.8377L17.8435 28.9424H17.7903L16.981 28.9948H15.9534C15.6818 28.9948 15.4476 28.9791 15.1813 28.9424L15.0003 28.9267C14.6968 28.8901 14.404 28.8534 14.1005 28.801L13.6852 28.712C13.4509 28.6597 13.2007 28.6073 12.9664 28.534L12.6948 28.4607L12.5511 28.4084L16.0971 24.9372C21.1021 25.1309 25.3296 21.2932 25.5107 16.3717C25.5852 14.5864 25.1167 12.8325 24.1423 11.3089L21.9114 13.5026V18.8639H18.1683V11.466L24.2009 5.50262C24.7599 5.91099 25.2817 6.33508 25.7875 6.81152C30.9895 11.8743 30.9895 20.089 25.8408 25.1675ZM7.06696 25.2042C1.91827 20.1257 1.91827 11.911 7.06696 6.84817L7.08294 6.83246C7.27994 6.63874 7.47694 6.46073 7.67927 6.28272L7.87627 6.12565C8.036 6 8.20106 5.85864 8.34482 5.73822L8.52585 5.59686C8.74415 5.43979 8.95712 5.29843 9.17542 5.15183L9.35645 5.04712C9.53748 4.94241 9.69721 4.83246 9.89422 4.72775L10.1125 4.60209C10.3308 4.49738 10.5438 4.37173 10.7621 4.28272L10.8153 4.24607C11.0656 4.14136 11.2999 4.03141 11.5554 3.9267L11.7365 3.8534C11.9335 3.7801 12.1518 3.71204 12.3647 3.63874L12.5245 3.58639C12.7747 3.51309 13.0463 3.44503 13.3178 3.37173H13.3923C13.6266 3.31937 13.8769 3.26702 14.1111 3.23037L14.2922 3.19372L15.0482 3.089H15.1015L15.9108 3.03665H16.9384C17.2099 3.03665 17.4442 3.05236 17.7104 3.089L17.8915 3.10471C18.0885 3.12042 18.2695 3.15707 18.4665 3.17801L18.7913 3.23037C18.935 3.24607 19.0628 3.28272 19.2066 3.31937C19.4409 3.37173 19.6911 3.42408 19.9254 3.49738L20.1969 3.57068L20.3407 3.62304L16.7946 7.09424C11.7897 6.90052 7.56213 10.7225 7.3598 15.6597C7.26929 17.466 7.73784 19.2356 8.7122 20.7382L10.9431 18.5445V13.1832H14.6862V20.5812L8.65363 26.5445C8.09457 26.1361 7.55681 25.6963 7.06696 25.199M16.4432 0C7.44499 0 0.171875 7.16754 0.171875 16C0.171875 24.8325 7.46097 32 16.4432 32C25.4255 32 32.7146 24.8325 32.7146 16C32.7305 7.16754 25.4414 0 16.4432 0Z" fill="#D85A43"/>
</svg>
