<svg width="117" height="32" viewBox="0 0 117 32" fill="none" xmlns="http://www.w3.org/2000/svg">
<path d="M44.607 8.18863C44.5593 8.28576 44.4747 8.35733 44.3688 8.38288L42.1724 9.01164C41.9025 9.08832 41.7649 9.01164 41.6537 8.75093C41.3944 7.68768 40.3571 6.97202 39.2298 7.07937C37.1657 7.07937 36.4565 8.2602 36.4565 9.85509V13.5152C36.4565 15.1049 37.1551 16.2909 39.2298 16.2909C40.9393 16.2909 41.8125 15.5241 41.8125 13.8525V13.3516H39.5791C39.4203 13.3618 39.2827 13.2544 39.2721 13.1011C39.2721 13.0806 39.2721 13.0602 39.2721 13.0346V11.0513C39.2509 10.8979 39.3621 10.7599 39.5209 10.7394C39.5367 10.7394 39.5579 10.7394 39.5738 10.7394H44.5435C44.6969 10.719 44.8451 10.8212 44.8663 10.9695C44.8663 10.9899 44.8663 11.0104 44.8663 11.0359V14.0621C44.8663 16.9554 42.6646 19.1382 39.2457 19.1382C35.1916 19.1382 33.2969 16.8174 33.2969 13.6481V9.77841C33.2969 6.58863 35.1916 4.28832 39.2457 4.28832C42.527 4.28832 44.0089 6.09279 44.6017 7.90748M55.7583 11.5062V18.6065C55.7689 18.7599 55.6471 18.8928 55.4831 18.903C55.4725 18.903 55.4619 18.903 55.4513 18.903H53.2073C53.0432 18.9183 52.9003 18.8059 52.8845 18.6525C52.8845 18.6372 52.8845 18.627 52.8845 18.6116V17.4513C52.2388 18.5043 51.0532 19.1433 49.783 19.1228C47.666 19.1228 46.2953 17.804 46.2953 15.7797C46.2953 13.7554 47.5814 12.6308 50.7145 12.4161C51.392 12.365 52.0747 12.365 52.7521 12.4161V11.6084C52.7521 10.5452 52.1806 10.1107 51.2014 10.1107C50.4975 10.0136 49.8307 10.4429 49.6507 11.1126C49.5449 11.3477 49.4708 11.3886 49.2432 11.3273L46.9992 10.7752C46.7769 10.7139 46.7557 10.5963 46.7981 10.4429C47.105 8.88384 48.6346 7.74391 51.3179 7.74391C54.1494 7.74391 55.7371 9.04231 55.7371 11.4858M52.7416 15.2021V14.2104C52.1435 14.1899 51.5455 14.2104 50.9474 14.2717C49.8095 14.4046 49.1956 14.742 49.1956 15.5906C49.1956 16.3522 49.7142 16.7663 50.6034 16.7663C51.5931 16.7867 52.4716 16.158 52.7416 15.2327M63.84 7.77458C65.1313 7.75413 66.2745 8.57202 66.6291 9.76819C67.4653 8.58736 68.4815 7.77458 69.9105 7.77458C71.8846 7.77458 73.0119 9.27234 73.0119 11.5522V18.6219C73.0013 18.7957 72.8425 18.9286 72.6573 18.9183H70.3074C70.1274 18.9388 69.9634 18.811 69.9422 18.6372V12.0736C69.9422 11.0717 69.4924 10.4992 68.6985 10.4992C67.9046 10.4992 67.2536 11.1739 66.9467 12.1963V18.627C66.9572 18.7803 66.8408 18.9081 66.682 18.9183C66.6767 18.9183 66.6661 18.9183 66.6609 18.9183H64.1257C63.9458 18.9183 63.8611 18.8008 63.8611 18.6219V12.0685C63.8611 11.0666 63.4113 10.4941 62.6174 10.4941C61.8235 10.4941 61.1514 11.2046 60.8656 12.2116V18.6219C60.8814 18.7701 60.7703 18.903 60.6168 18.9183C60.6009 18.9183 60.5798 18.9183 60.5639 18.9183H58.0764C57.9229 18.9337 57.7853 18.8263 57.7694 18.6781C57.7694 18.6628 57.7694 18.6423 57.7694 18.627V8.28065C57.7694 8.12729 57.8965 8.00461 58.0552 8.00461C58.0605 8.00461 58.0711 8.00461 58.0764 8.00461H60.458C60.6115 7.98927 60.7491 8.10173 60.7597 8.24998C60.7597 8.2602 60.7597 8.27042 60.7597 8.28065V9.51771C61.4266 8.46978 62.5909 7.81547 63.8611 7.76947M85.8197 8.00972C85.8833 8.26531 85.8197 8.45956 85.5551 8.51068L83.3958 9.11899C83.2264 9.19566 83.02 9.12921 82.9406 8.96563C82.9247 8.93496 82.9142 8.89918 82.9089 8.8634C82.5966 7.86148 82.0726 7.08959 80.5643 7.08959C78.7119 7.08959 78.1191 8.27042 78.1191 9.86531V13.5254C78.1191 15.1152 78.7913 16.3011 80.5643 16.3011C82.1573 16.3011 82.766 15.4321 83.0094 14.3484C83.0253 14.1695 83.1894 14.0417 83.3746 14.057C83.4169 14.057 83.4593 14.0723 83.4963 14.0928L85.661 14.7727C85.8727 14.834 85.9944 15.0436 85.9309 15.2481C85.9309 15.2583 85.9309 15.2634 85.9203 15.2736C85.4016 17.4001 83.8245 19.1228 80.5219 19.1228C76.8172 19.1228 74.9436 16.8021 74.9436 13.6327V9.7733C74.9436 6.58352 76.8542 4.2832 80.5219 4.2832C83.7398 4.2832 85.2482 5.93432 85.8145 8.01994M96.6482 11.5062V18.6065C96.6588 18.7599 96.5371 18.8928 96.373 18.903C96.3624 18.903 96.3518 18.903 96.3413 18.903H94.0972C93.9332 18.9183 93.7903 18.8059 93.7744 18.6525C93.7744 18.6372 93.7744 18.627 93.7744 18.6116V17.4461C93.1287 18.4992 91.9432 19.1382 90.673 19.1177C88.556 19.1177 87.1905 17.7989 87.1905 15.7746C87.1905 13.7503 88.4713 12.6257 91.6045 12.411C92.2819 12.3599 92.9646 12.3599 93.6474 12.411V11.6033C93.6474 10.5401 93.0758 10.1056 92.0967 10.1056C91.3928 10.0136 90.7312 10.4429 90.546 11.1075C90.4454 11.3426 90.366 11.3835 90.1384 11.3222L87.8997 10.7701C87.6721 10.7088 87.651 10.5912 87.6933 10.4378C88.0003 8.87873 89.5298 7.73879 92.2184 7.73879C95.0499 7.73879 96.6323 9.0372 96.6323 11.4806M93.6421 15.1969V14.2052C93.044 14.1848 92.446 14.2052 91.8479 14.2666C90.71 14.3995 90.0961 14.7369 90.0961 15.5854C90.0961 16.3471 90.6148 16.7612 91.5039 16.7612C92.4936 16.7816 93.3722 16.1477 93.6421 15.2276M105.365 8.20397V10.31C105.365 10.5656 105.259 10.6628 105 10.6628H104.672C103.047 10.6628 102.089 11.3733 101.761 12.5541V18.6116C101.771 18.765 101.655 18.8928 101.496 18.9081H98.9081C98.7494 18.903 98.6329 18.7701 98.6382 18.6219V8.28065C98.6329 8.1324 98.7493 8.00972 98.8975 8.00461C98.9134 8.00461 98.924 8.00461 98.9399 8.00461H101.263C101.507 8.00461 101.57 8.15796 101.57 8.32154V9.77841C102.179 8.5618 103.476 7.81036 104.873 7.85125C105.28 7.85125 105.391 7.9126 105.391 8.18352M109.366 14.333V14.7471C109.366 15.8921 109.98 16.6947 111.43 16.6947C112.88 16.6947 113.224 16.1937 113.59 15.5394C113.769 15.2429 113.854 15.2072 114.177 15.3401L115.781 16.1273C116.114 16.2858 116.13 16.4442 115.987 16.7356C115.294 18.2334 113.563 19.1177 111.404 19.1177C108.144 19.1177 106.434 17.2519 106.434 14.6909V12.1963C106.434 9.70173 108.038 7.76435 111.383 7.76435C114.727 7.76435 116.109 9.71707 116.109 12.135V13.8679C116.109 14.1644 116.003 14.3688 115.59 14.3688L109.361 14.3382L109.366 14.333ZM109.366 12.0327V12.4059H113.298V12.0327C113.388 11.0768 112.663 10.2334 111.674 10.1414C111.563 10.1311 111.451 10.1311 111.346 10.1414C110.345 10.0545 109.461 10.765 109.371 11.7311C109.361 11.8334 109.361 11.9305 109.371 12.0327" fill="white"/>
<path d="M14.2605 0H0.589983C0.362405 0 0.171875 0.173802 0.171875 0.39361V19.5987C0.171875 26.4486 5.92483 32 13.0168 32H14.2552C21.3472 32 27.0949 26.4486 27.0949 19.5987V12.4013C27.0949 5.55144 21.3472 0 14.2552 0M22.972 19.8083C22.972 24.4805 19.4207 28.0077 13.8954 28.0077C7.34852 28.0077 4.29474 24.2556 4.29474 19.1387V12.8869C4.29474 7.73418 7.35381 3.99233 13.8901 3.99233C19.1826 3.99233 21.5854 6.91629 22.5433 9.84025C22.6862 10.1367 22.5486 10.4895 22.2416 10.6275C22.2152 10.6377 22.1834 10.6479 22.157 10.6581L18.6004 11.6601C18.177 11.7827 17.9441 11.6601 17.8171 11.246C17.2561 9.49776 16.0706 8.54696 13.9006 8.54696C10.5452 8.54696 9.42847 10.4537 9.42847 13.0351V18.9546C9.42847 21.531 10.5452 23.4428 13.9006 23.4428C16.6633 23.4428 18.1082 22.2006 18.1082 19.5016V18.7297H14.4034C14.1494 18.7604 13.9218 18.5917 13.8848 18.3514C13.8795 18.3105 13.8795 18.2696 13.8848 18.2288V14.9521C13.8636 14.6965 14.0594 14.4716 14.324 14.4511C14.3505 14.4511 14.377 14.4511 14.4034 14.4511H22.448C22.7021 14.4204 22.9297 14.5891 22.9614 14.8345C22.9614 14.8652 22.9614 14.8958 22.9614 14.9265L22.972 19.8134V19.8083Z" fill="#2F008C"/>
<path d="M36.3411 23.1458C36.3622 23.1816 36.3517 23.2276 36.3146 23.248C36.3093 23.248 36.304 23.2531 36.2987 23.2531L35.9388 23.3605C35.8806 23.3605 35.8489 23.3605 35.8277 23.3145C35.7219 22.9158 35.3302 22.6448 34.9015 22.6806C34.3987 22.6142 33.933 22.9566 33.8642 23.4423C33.8536 23.5241 33.8536 23.6007 33.8642 23.6825V25.0065C33.7954 25.4921 34.15 25.9419 34.6528 26.0084C34.7374 26.0186 34.8168 26.0186 34.9015 26.0084C35.4837 26.0084 35.87 25.7477 35.87 25.165V24.664H35.0232C34.9756 24.664 34.9491 24.664 34.9491 24.5873V24.3113C34.9491 24.2602 34.9491 24.2346 35.0232 24.2346H36.3358C36.3728 24.2295 36.4099 24.255 36.4205 24.2959C36.4205 24.3011 36.4205 24.3062 36.4205 24.3113V25.2314C36.4258 25.9624 35.8224 26.5605 35.0656 26.5656C35.0127 26.5656 34.9597 26.5656 34.9068 26.5605C34.1235 26.6474 33.4143 26.1106 33.3243 25.3541C33.3138 25.257 33.3138 25.1598 33.3243 25.0627V23.6621C33.2502 22.9055 33.8271 22.2308 34.6104 22.1643C34.711 22.1541 34.8115 22.1541 34.9121 22.1643C35.5737 22.1132 36.177 22.517 36.357 23.1304M39.1461 25.5177V25.0167C38.9026 25.0014 38.6592 25.0014 38.4104 25.0167C37.9553 25.0678 37.6801 25.2212 37.6801 25.5841C37.6589 25.8602 37.8706 26.1004 38.1564 26.1209C38.1987 26.1209 38.2464 26.1209 38.2887 26.1158C38.6751 26.1158 39.0138 25.8755 39.1408 25.5177M39.6595 24.2397V26.4225C39.6595 26.4685 39.6595 26.4889 39.5801 26.4889H39.2202C39.1673 26.4889 39.1408 26.4889 39.1408 26.4225V26.0084C38.9397 26.3407 38.5692 26.54 38.1723 26.54C37.6536 26.5912 37.1932 26.2282 37.1402 25.7273C37.1402 25.6864 37.135 25.6455 37.1402 25.6046C37.1402 25.0218 37.5478 24.6998 38.3416 24.6435C38.601 24.6282 38.8603 24.6282 39.1196 24.6435V24.2755C39.1196 23.8563 38.8656 23.6825 38.4581 23.6825C38.1564 23.6365 37.8653 23.8154 37.7912 24.1017C37.7912 24.1579 37.7489 24.163 37.6854 24.1528L37.3361 24.0557C37.2779 24.0557 37.262 24.0148 37.2778 23.9688C37.3837 23.5292 37.7965 23.2429 38.4687 23.2429C39.1408 23.2429 39.6489 23.565 39.6489 24.2448M42.0252 23.2378C42.3957 23.2327 42.7185 23.4678 42.8138 23.8103C43.0096 23.4678 43.3748 23.2531 43.7771 23.2378C44.2693 23.2378 44.6662 23.6314 44.6609 24.1068C44.6609 24.1426 44.6609 24.1733 44.6556 24.209V26.4071C44.6556 26.4582 44.6239 26.4787 44.5709 26.4787H44.2163C44.1581 26.4787 44.1316 26.4787 44.1316 26.4071V24.3062C44.1316 23.9177 43.9517 23.7081 43.613 23.7081C43.269 23.7439 42.9832 23.9841 42.8932 24.3062V26.4173C42.8932 26.4685 42.8932 26.4889 42.8191 26.4889H42.4222C42.364 26.4889 42.3481 26.4889 42.3481 26.4173V24.3062C42.3481 23.9177 42.1734 23.7081 41.8294 23.7081C41.4907 23.7541 41.2102 23.9892 41.1096 24.3062V26.3918C41.1096 26.4429 41.1096 26.4634 41.0355 26.4634H40.6439C40.5857 26.4634 40.5698 26.4634 40.5698 26.3918V23.3605C40.5698 23.3196 40.5698 23.294 40.6439 23.294H41.0249C41.0832 23.294 41.099 23.3196 41.099 23.3605V23.7796C41.2896 23.4576 41.6336 23.2531 42.0199 23.2378M46.1216 24.5311V25.2672C46.0899 25.6812 46.418 26.0391 46.8467 26.0697C46.8785 26.0697 46.9102 26.0697 46.942 26.0697C47.4183 26.0697 47.7041 25.7988 47.7041 25.2672V24.526C47.7041 23.9943 47.4183 23.7132 46.942 23.7132C46.508 23.703 46.1428 24.0352 46.1322 24.4595C46.1322 24.4851 46.1322 24.5055 46.1322 24.5311M46.1322 22.1439V23.7336C46.3386 23.4116 46.7091 23.2173 47.106 23.2327C47.7306 23.2225 48.2386 23.703 48.2492 24.3011C48.2492 24.3471 48.2492 24.3982 48.2439 24.4442V25.3285C48.3127 25.9266 47.8682 26.4634 47.2489 26.5298C47.196 26.5349 47.1431 26.54 47.0849 26.5349C46.6932 26.5451 46.328 26.356 46.1216 26.034V26.402C46.1216 26.448 46.0846 26.4634 46.0475 26.4634H45.6665C45.6188 26.4634 45.5924 26.4634 45.5924 26.402V22.1388C45.5924 22.1081 45.6136 22.0774 45.6506 22.0723C45.6506 22.0723 45.6559 22.0723 45.6612 22.0723H46.0687C46.1163 22.0723 46.1322 22.0723 46.1322 22.1388M49.6253 22.1388V26.402C49.6253 26.4531 49.6253 26.4736 49.5512 26.4736H49.1595C49.096 26.4736 49.0801 26.4736 49.0801 26.402V22.1388C49.0801 22.0927 49.0801 22.0672 49.1595 22.0672H49.5512C49.5829 22.0621 49.62 22.0825 49.6253 22.1132C49.6253 22.1183 49.6253 22.1285 49.6253 22.1336M51.0754 23.3554V26.4071C51.0754 26.4531 51.0754 26.4736 51.0066 26.4736H50.615C50.5515 26.4736 50.5356 26.4736 50.5356 26.4071V23.3554C50.5356 23.3094 50.5356 23.2889 50.615 23.2889H51.0066C51.0595 23.2889 51.0754 23.2889 51.0754 23.3554ZM51.0754 22.1541V22.7113C51.0754 22.7675 51.0754 22.7982 50.9854 22.7982H50.6256C50.5832 22.8033 50.5462 22.7777 50.5356 22.7368C50.5356 22.7317 50.5356 22.7215 50.5356 22.7164V22.1592C50.5303 22.1183 50.5568 22.0825 50.5991 22.0723C50.6044 22.0723 50.615 22.0723 50.6203 22.0723H50.9802C51.049 22.0723 51.0701 22.103 51.0701 22.1592M52.5414 24.3317V26.4122C52.5414 26.4582 52.5414 26.4787 52.4726 26.4787H52.1022C52.0387 26.4787 52.0228 26.4787 52.0228 26.4122V23.3605C52.0228 23.3196 52.0228 23.294 52.0969 23.294H52.4779C52.5362 23.294 52.552 23.3196 52.552 23.3605V23.7796C52.7796 23.4423 53.1713 23.2378 53.5894 23.2378C54.1133 23.2225 54.5526 23.6263 54.5632 24.1324C54.5632 24.1835 54.5632 24.2397 54.5526 24.2908V26.4173C54.5526 26.4634 54.5526 26.4838 54.4732 26.4838H54.0816C54.0286 26.4838 54.0022 26.4838 54.0022 26.4173V24.3726C54.0022 23.9637 53.8116 23.7234 53.3988 23.7234C53.0178 23.7439 52.6896 23.9892 52.5679 24.3368M55.8228 24.388C55.791 24.7407 56.061 25.0474 56.4261 25.0781C56.4738 25.0781 56.5161 25.0781 56.5638 25.0781C56.9078 25.1241 57.2253 24.8889 57.2729 24.5515C57.2782 24.5004 57.2782 24.4544 57.2729 24.4033C57.2994 24.0199 57.003 23.6825 56.6008 23.657C56.1986 23.6314 55.8546 23.9177 55.8281 24.3062C55.8281 24.3368 55.8281 24.3726 55.8281 24.4033M57.5587 26.8007C57.5587 26.5707 57.4264 26.356 56.9395 26.356H56.3362C55.881 26.356 55.7434 26.5809 55.7434 26.811C55.7434 27.1279 56.0027 27.3426 56.6378 27.3426C57.273 27.3426 57.564 27.1228 57.564 26.8058M58.0827 26.7701C58.0827 27.271 57.6805 27.7209 56.6114 27.7209C55.627 27.7209 55.2353 27.363 55.2353 26.8621C55.2353 26.5503 55.447 26.2742 55.754 26.172C55.6164 26.08 55.5317 25.9317 55.5211 25.7681C55.5264 25.5688 55.6587 25.3899 55.8546 25.3183C55.5211 25.1343 55.32 24.7816 55.3359 24.4084C55.3041 23.8308 55.7699 23.3349 56.3679 23.3094C56.4314 23.3094 56.5002 23.3094 56.5638 23.3196H58.0033C58.0457 23.3196 58.0668 23.3451 58.0668 23.3912V23.6774C58.0668 23.7336 58.0351 23.7541 57.9927 23.7541H57.4211C57.6487 23.933 57.7704 24.2039 57.7546 24.4902C57.7546 25.0781 57.347 25.4921 56.5638 25.4921H56.2938C56.0663 25.4921 55.9657 25.5943 55.9657 25.7119C55.9657 25.8295 56.0716 25.9317 56.2938 25.9317H57.003C57.781 25.9317 58.0827 26.3049 58.0827 26.7701ZM63.01 23.0793C63.0259 23.11 63.01 23.1509 62.9836 23.1662C62.973 23.1662 62.9677 23.1713 62.9571 23.1713L62.6237 23.294C62.5813 23.3094 62.5337 23.294 62.5178 23.248C62.4014 22.8902 62.0468 22.6602 61.6657 22.6857C61.1471 22.6857 60.856 22.9209 60.856 23.3042C60.856 23.6876 61.073 23.8052 61.8933 24.1221C62.7136 24.4391 63.063 24.7816 63.063 25.3745C63.0471 26.0544 62.4596 26.586 61.761 26.5707C61.724 26.5707 61.6816 26.5707 61.6446 26.5605C60.983 26.6269 60.3691 26.2129 60.1997 25.5943C60.1997 25.533 60.1997 25.5074 60.2526 25.4921L60.6019 25.3848C60.6707 25.3848 60.6972 25.3848 60.7131 25.4461C60.8189 25.855 61.2159 26.1209 61.6499 26.0749C62.1685 26.0749 62.5019 25.8244 62.5019 25.4205C62.5019 25.0167 62.3061 24.8685 61.5546 24.5924C60.6549 24.2499 60.3161 23.9074 60.3161 23.3196C60.3426 22.6704 60.9089 22.1643 61.5811 22.1899C61.6181 22.1899 61.6499 22.1899 61.6869 22.2001C62.2955 22.1592 62.8565 22.5221 63.0471 23.0844M63.8674 25.5228V23.3912C63.8674 23.3451 63.8939 23.3196 63.9468 23.3196H64.3384C64.3914 23.3196 64.4178 23.3451 64.4178 23.3912V25.4308C64.4178 25.8448 64.6084 26.0851 65.0159 26.0851C65.3969 26.0646 65.7304 25.8193 65.8468 25.4665V23.3912C65.8468 23.3451 65.8468 23.3196 65.9262 23.3196H66.3125C66.3761 23.3196 66.3919 23.3451 66.3919 23.3912V26.4378C66.3919 26.4838 66.3919 26.5094 66.3178 26.5094H65.9368C65.905 26.5145 65.868 26.494 65.8627 26.4634C65.8627 26.4582 65.8627 26.448 65.8627 26.4429V26.0289C65.6351 26.3713 65.2488 26.5758 64.8254 26.5809C64.2961 26.5911 63.8621 26.1873 63.8515 25.6761C63.8515 25.625 63.8515 25.579 63.8621 25.5279M69.4193 25.2979V24.5362C69.4828 24.1579 69.2128 23.8001 68.8212 23.7439C68.7683 23.7336 68.7154 23.7336 68.6571 23.7388C68.2284 23.7285 67.8685 24.0557 67.8527 24.4697C67.8527 24.4953 67.8527 24.5158 67.8527 24.5413V25.2927C67.8209 25.7119 68.1438 26.0749 68.5777 26.1055C68.6042 26.1055 68.6307 26.1055 68.6571 26.1055C69.1335 26.1055 69.4193 25.8244 69.4193 25.2979ZM67.3816 27.68C67.3499 27.68 67.3181 27.6595 67.3128 27.6237C67.3128 27.6237 67.3128 27.6186 67.3128 27.6135V23.3963C67.3128 23.3503 67.3393 23.3298 67.3869 23.3298H67.768C67.7997 23.3247 67.8315 23.3451 67.8421 23.3809C67.8421 23.386 67.8421 23.3911 67.8421 23.3963V23.7541C68.0485 23.4372 68.4137 23.248 68.8053 23.2531C69.4245 23.2327 69.9485 23.703 69.9697 24.3062C69.9697 24.3573 69.9697 24.4033 69.9644 24.4544V25.349C70.0332 25.9471 69.5833 26.4889 68.9641 26.5554C68.9165 26.5554 68.8741 26.5605 68.8265 26.5605C68.4348 26.5809 68.0644 26.3867 67.858 26.0595V27.588C67.858 27.6186 67.8368 27.6493 67.7998 27.6544C67.7998 27.6544 67.7945 27.6544 67.7892 27.6544L67.3816 27.68ZM72.9123 25.303V24.5413C72.9758 24.163 72.7059 23.8052 72.3143 23.749C72.2613 23.7388 72.2084 23.7388 72.1502 23.7439C71.7215 23.7336 71.3616 24.0608 71.3457 24.4749C71.3457 24.5004 71.3457 24.5209 71.3457 24.5464V25.2979C71.314 25.717 71.6368 26.08 72.0708 26.1106C72.0973 26.1106 72.1184 26.1106 72.1449 26.1106C72.6212 26.1106 72.907 25.8295 72.907 25.303M70.8694 27.6851C70.8376 27.6851 70.8059 27.6646 70.8006 27.6289C70.8006 27.6289 70.8006 27.6237 70.8006 27.6186V23.4014C70.8006 23.3554 70.8271 23.3349 70.8747 23.3349H71.2558C71.2875 23.3298 71.3193 23.3503 71.3299 23.386C71.3299 23.3911 71.3299 23.3963 71.3299 23.4014V23.7592C71.5363 23.4423 71.9014 23.2531 72.2931 23.2582C72.9123 23.2378 73.4363 23.703 73.4627 24.3062C73.4627 24.3573 73.4627 24.4084 73.4574 24.4595V25.3541C73.5262 25.9522 73.0764 26.494 72.4572 26.5605C72.4095 26.5605 72.3672 26.5656 72.3196 26.5656C71.9279 26.5809 71.5574 26.3918 71.351 26.0646V27.5931C71.351 27.6237 71.3299 27.6544 71.2928 27.6595C71.2928 27.6595 71.2875 27.6595 71.2822 27.6595L70.8694 27.6851ZM74.7647 24.5413V25.349C74.7647 25.7681 75.1193 26.1106 75.5533 26.1106C75.9873 26.1106 76.3419 25.7681 76.3419 25.349V24.5413C76.3419 24.1221 75.9873 23.7796 75.5533 23.7796C75.1193 23.7796 74.7647 24.1221 74.7647 24.5413ZM76.887 24.5158V25.349C76.887 26.0595 76.2889 26.6372 75.5533 26.632C74.8176 26.632 74.2249 26.0544 74.2249 25.349V24.5311C74.2249 23.8205 74.8229 23.2429 75.5586 23.248C76.2942 23.248 76.887 23.8257 76.887 24.5311M79.3639 23.3554V23.7081C79.3639 23.7643 79.3639 23.7848 79.2792 23.7848H79.2104C78.787 23.7694 78.4007 24.0301 78.2683 24.4186V26.448C78.2683 26.494 78.2366 26.5094 78.1995 26.5094H77.792C77.7603 26.5094 77.7338 26.4889 77.7285 26.4582C77.7285 26.4582 77.7285 26.4531 77.7285 26.448V23.4116C77.7285 23.3605 77.7285 23.3451 77.8026 23.3451H78.1731C78.226 23.3451 78.2525 23.3707 78.2525 23.4167V23.9177C78.4483 23.5394 78.8505 23.3094 79.2898 23.3247C79.3692 23.3247 79.3903 23.3247 79.3903 23.4014M80.941 22.5988V23.3605H81.645C81.6979 23.3605 81.719 23.386 81.719 23.4423V23.7285C81.719 23.7848 81.719 23.8052 81.645 23.8052H80.941V25.6455C80.941 25.9317 81.0998 26.0595 81.4015 26.0595H81.6397C81.6926 26.0595 81.719 26.0595 81.719 26.1311V26.4531C81.719 26.5094 81.719 26.5298 81.6397 26.5298H81.3221C80.8828 26.5912 80.4806 26.2998 80.4171 25.8755C80.4118 25.8244 80.4065 25.7733 80.4118 25.7221V23.8103H79.9619C79.9196 23.8103 79.8931 23.8103 79.8931 23.7336V23.4474C79.8931 23.3912 79.9196 23.3656 79.9619 23.3656H80.4171V22.5988C80.4171 22.5579 80.4171 22.5324 80.4965 22.5324H80.867C80.9305 22.5324 80.9463 22.5324 80.9463 22.5988M86.8634 23.1407C86.8634 23.202 86.8634 23.248 86.7734 23.2685L86.1965 23.4729C86.1436 23.4985 86.0801 23.4781 86.0483 23.4269C86.0483 23.4218 86.043 23.4116 86.0377 23.4065C85.9372 23.1458 85.6673 22.9822 85.3815 23.0129C85.0269 23.0129 84.794 23.1765 84.794 23.4269C84.794 23.6774 84.9739 23.7796 85.7784 24.0506C86.5829 24.3215 86.9057 24.6896 86.9057 25.303C86.9057 26.0391 86.2547 26.5963 85.3127 26.5963C84.5929 26.6781 83.9207 26.2435 83.7302 25.5688C83.709 25.5177 83.7408 25.4614 83.7937 25.441L84.4182 25.2416C84.5029 25.2161 84.54 25.2416 84.5611 25.3234C84.6299 25.6506 84.9581 25.8704 85.3021 25.8244C85.7255 25.8244 85.9478 25.6506 85.9478 25.3899C85.9478 25.1292 85.789 25.0423 85.138 24.8225C84.2012 24.5004 83.8466 24.1375 83.8466 23.4729C83.9049 22.7368 84.5664 22.1899 85.3232 22.241C85.3338 22.241 85.3497 22.241 85.3603 22.241C86.0219 22.1796 86.6411 22.5579 86.8581 23.1662M88.7157 22.6448V23.3656H89.335C89.3826 23.3605 89.4249 23.3912 89.4355 23.4372C89.4355 23.4423 89.4355 23.4525 89.4355 23.4576V23.9841C89.4355 24.0301 89.4038 24.071 89.3561 24.0761C89.3508 24.0761 89.3456 24.0761 89.3403 24.0761H88.721V25.4972C88.721 25.6812 88.8269 25.7886 89.0703 25.7886H89.3403C89.4038 25.7886 89.4408 25.8193 89.4408 25.8755V26.4685C89.4408 26.5298 89.4038 26.5554 89.3403 26.5554H88.9221C88.1759 26.5554 87.8266 26.1771 87.8266 25.6148V24.0659H87.4455C87.3979 24.071 87.3556 24.0404 87.345 23.9892C87.345 23.9841 87.345 23.979 87.345 23.9739V23.4474C87.3397 23.4014 87.3714 23.3605 87.4191 23.3503C87.4244 23.3503 87.435 23.3503 87.4403 23.3503H87.8372V22.6448C87.8319 22.5988 87.8637 22.563 87.9113 22.5528C87.9166 22.5528 87.9219 22.5528 87.9272 22.5528H88.6311C88.6893 22.5528 88.7157 22.5886 88.7157 22.6448ZM91.8277 25.4512V25.1496C91.6531 25.1394 91.4837 25.1394 91.3091 25.1496C90.9757 25.1905 90.7904 25.2876 90.7904 25.5381C90.7904 25.7886 90.9439 25.8857 91.2032 25.8857C91.4943 25.8857 91.7536 25.7017 91.833 25.4308M92.7169 24.3317V26.4276C92.7169 26.4736 92.6798 26.5145 92.6269 26.5145H91.9601C91.9124 26.5145 91.8701 26.4838 91.8648 26.4327V26.0851C91.6743 26.402 91.325 26.5912 90.9492 26.586C90.4199 26.6269 89.9542 26.2487 89.9119 25.7375C89.9119 25.6864 89.9119 25.6352 89.9119 25.5892C89.9119 25.0065 90.2929 24.6589 91.2191 24.5873C91.4202 24.572 91.6213 24.572 91.8172 24.5873V24.3624C91.8489 24.1528 91.6954 23.9586 91.4784 23.9279C91.4414 23.9228 91.399 23.9228 91.362 23.9279C91.1556 23.9023 90.9598 24.025 90.9016 24.2244C90.8698 24.2959 90.8486 24.3113 90.7851 24.2908L90.1236 24.1324C90.0548 24.1324 90.0495 24.0761 90.0653 24.0301C90.1553 23.5701 90.584 23.2378 91.3938 23.2378C92.2035 23.2378 92.701 23.6161 92.701 24.3368M95.3949 23.3707V23.9943C95.3949 24.071 95.3631 24.0966 95.289 24.0966H95.1885C94.7968 24.0506 94.4317 24.2857 94.3311 24.6538V26.4378C94.3364 26.4787 94.3046 26.5145 94.2623 26.5247C94.2623 26.5247 94.257 26.5247 94.2517 26.5247H93.4949C93.4525 26.5247 93.4155 26.494 93.4155 26.448C93.4155 26.448 93.4155 26.4429 93.4155 26.4378V23.3963C93.4155 23.3554 93.442 23.3196 93.4896 23.3145C93.4949 23.3145 93.5002 23.3145 93.5055 23.3145H94.1935C94.2411 23.3145 94.2782 23.3451 94.2835 23.3912C94.2835 23.3963 94.2835 23.4014 94.2835 23.4065V23.8717C94.4634 23.5138 94.8392 23.294 95.252 23.3094C95.3684 23.3094 95.3949 23.3094 95.3949 23.4116M97.1626 22.6602V23.3809H97.7818C97.8294 23.3809 97.8718 23.4116 97.8771 23.4576C97.8771 23.4627 97.8771 23.4678 97.8771 23.4729V23.9995C97.8824 24.0455 97.8506 24.0812 97.8083 24.0915C97.803 24.0915 97.7924 24.0915 97.7871 24.0915H97.1679V25.5126C97.1679 25.6966 97.2737 25.8039 97.5119 25.8039H97.7871C97.8347 25.7988 97.8718 25.8295 97.8824 25.8755C97.8824 25.8806 97.8824 25.8857 97.8824 25.8908V26.4838C97.8824 26.5451 97.8453 26.5707 97.7871 26.5707H97.369C96.6228 26.5707 96.2787 26.1924 96.2787 25.6301V24.0812H95.8924C95.8448 24.0864 95.8077 24.0557 95.7971 24.0148C95.7971 24.0097 95.7971 23.9995 95.7971 23.9943V23.4678C95.7918 23.4218 95.8236 23.3809 95.8765 23.3707C95.8818 23.3707 95.8871 23.3707 95.8924 23.3707H96.2893V22.6653C96.284 22.6193 96.3158 22.5835 96.3581 22.5733C96.3634 22.5733 96.374 22.5733 96.3793 22.5733H97.0832C97.1308 22.5733 97.1679 22.609 97.1679 22.655C97.1679 22.655 97.1679 22.6602 97.1679 22.6653M101.095 24.0557C101.095 24.1068 101.095 24.1528 101.021 24.1681L100.47 24.3573C100.407 24.3573 100.375 24.3573 100.354 24.2908C100.269 24.0659 100.031 23.9228 99.7824 23.9483C99.4966 23.9483 99.3325 24.0557 99.3325 24.2142C99.3325 24.3726 99.449 24.434 100.089 24.5975C100.83 24.7867 101.127 25.0985 101.127 25.5995C101.127 26.218 100.608 26.6014 99.7824 26.6014C98.9567 26.6014 98.5228 26.3151 98.3534 25.8295C98.3534 25.7579 98.3534 25.7273 98.4434 25.6915L98.9303 25.4614C99.0044 25.4257 99.0414 25.4614 99.0785 25.533C99.1896 25.7937 99.4595 25.9522 99.7506 25.9266C100.084 25.9266 100.269 25.8193 100.269 25.6455C100.269 25.4717 100.084 25.3848 99.4913 25.2263C98.7609 25.0423 98.454 24.7253 98.454 24.2244C98.454 23.6161 98.9726 23.2225 99.7453 23.2225C100.322 23.1662 100.873 23.4832 101.09 24.0046M106.668 22.3841V26.4531C106.668 26.5042 106.668 26.54 106.573 26.54H105.837C105.789 26.54 105.747 26.5094 105.742 26.4582V24.848H104.228V26.4634C104.228 26.5094 104.196 26.5451 104.149 26.5503C104.143 26.5503 104.138 26.5503 104.133 26.5503H103.376C103.328 26.5503 103.286 26.5196 103.281 26.4685V22.3841C103.281 22.3381 103.318 22.2972 103.371 22.2972C103.371 22.2972 103.376 22.2972 103.381 22.2972H104.133C104.18 22.2921 104.218 22.3228 104.228 22.3688C104.228 22.3739 104.228 22.379 104.228 22.3841V23.9995H105.742V22.3841C105.742 22.3381 105.779 22.2972 105.832 22.2972H106.589C106.657 22.2972 106.684 22.333 106.684 22.3841M108.266 24.5362V24.6435H109.425V24.5362C109.452 24.2295 109.214 23.9586 108.891 23.933C108.573 23.9074 108.293 24.1375 108.266 24.4493C108.266 24.48 108.266 24.5106 108.266 24.5362ZM108.266 25.2161V25.3388C108.219 25.6097 108.409 25.8704 108.695 25.9164C108.753 25.9266 108.817 25.9266 108.875 25.9164C109.14 25.9573 109.404 25.8193 109.51 25.579C109.568 25.487 109.595 25.4768 109.685 25.5177L110.161 25.7528C110.262 25.7988 110.267 25.8448 110.225 25.9317C109.96 26.4071 109.425 26.6781 108.87 26.632C108.155 26.7241 107.504 26.2384 107.409 25.5535C107.398 25.4819 107.393 25.4052 107.398 25.3336V24.5822C107.367 23.8921 107.917 23.3043 108.631 23.2736C108.706 23.2736 108.785 23.2736 108.859 23.2838C109.558 23.2173 110.182 23.7081 110.251 24.3828C110.256 24.4442 110.256 24.5055 110.251 24.572V25.0729C110.251 25.1598 110.219 25.2161 110.092 25.2161H108.272H108.266ZM112.865 23.3912V24.0148C112.865 24.0915 112.839 24.117 112.754 24.117H112.659C112.267 24.071 111.902 24.3062 111.802 24.6742V26.4582C111.802 26.5042 111.77 26.54 111.722 26.5451H110.96C110.918 26.5451 110.881 26.5145 110.881 26.4685C110.881 26.4685 110.881 26.4634 110.881 26.4582V23.4167C110.881 23.3758 110.907 23.34 110.955 23.3349C110.96 23.3349 110.965 23.3349 110.971 23.3349H111.659C111.733 23.3349 111.749 23.3809 111.749 23.4269V23.8921C111.929 23.5343 112.304 23.3145 112.717 23.3298C112.839 23.3298 112.86 23.3298 112.86 23.432M114.173 24.5515V24.6589H115.332V24.5515C115.358 24.2448 115.12 23.9739 114.797 23.9483C114.48 23.9228 114.199 24.1528 114.173 24.4646C114.173 24.4953 114.173 24.526 114.173 24.5515ZM114.173 25.2314V25.3541C114.125 25.625 114.316 25.8857 114.601 25.9317C114.66 25.9419 114.723 25.9419 114.781 25.9317C115.051 25.9726 115.311 25.8346 115.422 25.5943C115.475 25.5023 115.501 25.4921 115.591 25.533L116.067 25.7681C116.168 25.8142 116.173 25.8602 116.131 25.9471C115.866 26.4225 115.332 26.6934 114.776 26.6474C114.062 26.7343 113.411 26.2435 113.326 25.5535C113.315 25.4819 113.315 25.4154 113.315 25.3439V24.5924C113.284 23.9023 113.834 23.3145 114.548 23.2838C114.623 23.2838 114.702 23.2838 114.776 23.294C115.475 23.2276 116.099 23.7183 116.168 24.3931C116.173 24.4544 116.173 24.5158 116.168 24.5822V25.0832C116.168 25.1701 116.136 25.2263 116.009 25.2263H114.178L114.173 25.2314Z" fill="white"/>
</svg>
