<svg width="32" height="32" viewBox="0 0 32 32" fill="none" xmlns="http://www.w3.org/2000/svg">
<path d="M5.02084 27.1617C3.54848 25.7792 2.33564 24.1524 1.47236 22.3021C0.545513 20.3271 0 18.0974 0 15.7794V15.6858C0 7.02692 7.16052 0 15.9841 0C24.8076 0 31.9999 7.02692 31.9999 15.6858C31.9999 15.8106 31.9999 15.9353 31.9681 16.06H28.4832C28.4832 13.3626 27.5881 10.8834 26.0522 8.90839C24.5799 7.02692 22.5673 5.58203 20.2052 4.79722L20.0145 4.61012L20.1098 4.26709L19.7603 4.32945L19.5379 4.04879L19.379 4.36064H18.9976L19.1565 4.67248L18.9341 4.95315L19.2519 5.0467L19.3472 5.38973L19.6332 5.20262L19.951 5.35854V5.01551C22.3184 5.76914 24.3627 7.20883 25.8298 9.09549C27.3021 11.0081 28.1972 13.4249 28.1972 16.06H27.175C27.175 13.1131 25.9622 10.478 23.9761 8.59654C22.0589 6.74626 19.4054 5.58723 16.466 5.49368L16.6567 5.30657L15.9205 5.05709L15.7616 4.30347L15.1208 4.74005L14.4164 4.36584L14.3528 5.11946L13.6166 5.43131L14.1939 5.96664L13.9715 6.72027L14.7394 6.62672L15.2214 7.2556L15.6345 6.59553L16.4025 6.62672L16.1483 5.90427C19.0877 5.90427 21.7729 7.03211 23.6901 8.8824C25.6073 10.7015 26.7884 13.2119 26.7884 16.0652H24.5852C24.5852 14.4332 24.1032 12.926 23.3088 11.6734C22.6362 10.6391 21.7411 9.76076 20.6871 9.10069L21.0685 8.72648L20.4594 8.477L20.3641 7.84811L19.7868 8.15996L19.2413 7.81693L19.1459 8.44581L18.5051 8.66411L18.95 9.16826L18.7275 9.76596L19.4001 9.73478L19.7497 10.2701L20.131 9.73478L20.7719 9.79714L20.7401 9.61004C21.6352 10.2077 22.3713 10.9926 22.9433 11.9021C23.7431 13.0923 24.188 14.506 24.188 16.0756H21.2485C21.2485 14.9478 20.8672 13.9759 20.2264 13.1911C19.6808 12.4998 18.95 11.9697 18.0867 11.6214L18.3091 11.372L17.9278 11.2472L17.8642 10.8106L17.5147 11.0289L17.1651 10.8106L17.1016 11.216L16.6885 11.3408L16.9745 11.6526L16.8474 12.058L17.2605 12.0268L17.4829 12.3699L17.7371 12.0268L18.1502 12.0892L18.1185 11.9645C18.8546 12.2763 19.5273 12.7805 20.0039 13.3782C20.5812 14.1006 20.9308 15.0413 20.9625 16.0756H4.59714C4.62892 17.2347 4.85136 18.3677 5.20621 19.402C5.61931 20.4986 6.16483 21.5017 6.86923 22.4113L7.02812 22.2242L7.15523 22.4425H7.44122L7.34589 22.692L7.50478 22.9102L7.25056 22.9726L7.18701 23.2533L6.96456 23.0974L6.71034 23.1909V22.9414L6.45612 22.8167L6.64679 22.6296L6.61501 22.4113C5.94239 21.5017 5.40217 20.5298 5.01555 19.4644C4.66599 18.3989 4.43825 17.271 4.3747 16.0756H1.6895C1.72128 16.4187 1.72128 16.7669 1.75306 17.1099C1.78483 17.453 1.84839 17.8012 1.91195 18.113L2.00728 17.9883L2.13439 18.2378H2.42038L2.29327 18.4872L2.48394 18.7055L2.19794 18.7679L2.16616 19.0174L1.94372 18.8615L1.6895 18.9862L1.65772 18.7055L1.43528 18.612L1.62595 18.4249L1.56239 18.1754L1.72128 18.2066C1.65772 17.8324 1.59417 17.4841 1.56239 17.1411C1.53061 16.7981 1.49883 16.4498 1.49883 16.0756H0.317774C0.349551 18.2689 0.863285 20.3115 1.72657 22.193C2.62164 24.0433 3.83448 25.7376 5.37039 27.1202H5.40217L5.65639 26.7771L5.87883 27.1513H6.29194L6.13305 27.5256L6.38727 27.8374L5.97416 27.9621L5.91061 28.3675L5.56106 28.1181L5.17973 28.3052L5.14795 27.8998L4.76662 27.7127L5.0844 27.432L5.02084 27.1825V27.1617Z" fill="url(#paint0_radial_899_4368)"/>
<path d="M8.75781 20.0079V19.9767C8.75781 19.6648 8.98025 19.4102 9.30333 19.4102H9.43043C9.74821 19.4102 9.97595 19.6596 9.97595 19.9767V20.0079C9.97595 20.2885 9.7535 20.5432 9.43043 20.5432H9.30333C8.98555 20.5432 8.75781 20.2937 8.75781 20.0079ZM8.75781 25.2469V21.7334C8.75781 21.4216 8.98025 21.1669 9.30333 21.1669H9.43043C9.74821 21.1669 9.97595 21.4164 9.97595 21.7334V25.2469C9.97595 25.5587 9.7535 25.8134 9.43043 25.8134H9.30333C8.98555 25.8134 8.75781 25.5639 8.75781 25.2469ZM12.7512 25.2469V20.512H10.8022V19.9767C10.8022 19.6648 11.0564 19.4102 11.3795 19.4102H15.9819V19.9455C15.9819 20.2573 15.7277 20.512 15.4046 20.512H14.0646V25.2469C14.0646 25.5587 13.8104 25.8134 13.4874 25.8134H13.2967C12.9789 25.8134 12.7512 25.5639 12.7512 25.2469ZM19.3026 24.3997L19.3344 24.4309C19.5251 24.4621 19.684 24.5868 19.7793 24.7739C19.8429 24.9922 19.7793 25.1793 19.6522 25.3404C19.5569 25.434 19.4615 25.4963 19.3662 25.5587C19.0166 25.8082 18.5982 25.9329 18.058 25.9329C17.2583 25.9329 16.6492 25.6523 16.2361 25.1169C15.9501 24.7115 15.7912 24.1762 15.7912 23.5161C15.7912 22.7625 15.9819 22.1648 16.4003 21.7282C16.8187 21.2916 17.3271 21.0681 17.9362 21.0681C18.6406 21.0681 19.2126 21.2864 19.5992 21.7594C19.917 22.1024 20.113 22.6066 20.1765 23.2355C20.1765 23.4226 20.1447 23.5473 20.0176 23.672C19.9223 23.7968 19.7952 23.828 19.6363 23.828H17.0782C17.0782 24.2022 17.1735 24.488 17.3642 24.7063C17.5549 24.8934 17.8091 24.987 18.1004 24.987C18.2911 24.987 18.4499 24.9558 18.5823 24.8311C18.6459 24.7999 18.7095 24.7375 18.7412 24.644C18.8683 24.4569 19.0908 24.3633 19.3185 24.3945L19.3026 24.3997ZM18.9531 23.1159C18.9531 22.7417 18.8578 22.487 18.6671 22.2999C18.5082 22.1128 18.2858 22.0193 18.0262 22.0193C17.7402 22.0193 17.5125 22.1128 17.3536 22.2999C17.163 22.487 17.0994 22.7729 17.0994 23.1159H18.9531ZM24.6095 22.6793H24.5459C24.3235 22.7417 24.101 22.617 23.9686 22.4299C23.9368 22.3363 23.8733 22.2739 23.8097 22.2428C23.6509 22.118 23.4602 22.0556 23.2324 22.0556C22.9147 22.0556 22.6869 22.1492 22.4963 22.3675C22.3056 22.5858 22.2103 22.934 22.2103 23.433C22.2103 23.9683 22.3056 24.3737 22.4963 24.592C22.6869 24.8103 22.9412 24.935 23.2324 24.935C23.4867 24.935 23.6773 24.8726 23.8415 24.7167C23.9051 24.6544 23.9686 24.5608 24.0322 24.4361C24.1275 24.2178 24.3817 24.093 24.6413 24.1242L24.7366 24.1554C24.8955 24.1866 25.0544 24.2801 25.1179 24.4361C25.2132 24.592 25.2132 24.7791 25.1179 24.9402C24.9908 25.1585 24.8319 25.3456 24.636 25.5067C24.2864 25.7874 23.8044 25.9433 23.1954 25.9433C22.491 25.9433 21.9508 25.725 21.5324 25.2832C21.114 24.8415 20.9233 24.2801 20.9233 23.4953C20.9233 22.7105 21.114 22.144 21.5324 21.7074C21.9455 21.302 22.491 21.0785 23.1954 21.0785C23.7727 21.0785 24.2493 21.2033 24.5724 21.4527C24.7313 21.5463 24.8584 21.671 24.9537 21.7958C25.0808 21.9517 25.0808 22.1388 25.0173 22.3311C24.9537 22.5234 24.7948 22.643 24.6042 22.6741L24.6095 22.6793ZM27.4853 19.9819V21.801C27.8984 21.328 28.3804 21.0785 28.9577 21.0785C29.2437 21.0785 29.5032 21.1409 29.7256 21.2345C29.9481 21.328 30.1388 21.4839 30.2394 21.6398C30.3665 21.7958 30.4618 21.9829 30.4936 22.1752C30.5254 22.3675 30.5572 22.6793 30.5572 23.0847V25.2469C30.5572 25.5587 30.3029 25.8134 29.9799 25.8134H29.8528C29.5668 25.8134 29.3072 25.5639 29.3072 25.2469V23.3654C29.3072 22.8612 29.2755 22.5806 29.2437 22.4558C29.1801 22.2999 29.1166 22.2064 28.9895 22.144C28.8624 22.0504 28.7035 22.0193 28.5446 22.0193C28.3221 22.0193 28.1315 22.0504 27.9673 22.1752C27.8084 22.2687 27.6813 22.4247 27.6177 22.6118C27.5224 22.7989 27.4906 23.1159 27.4906 23.4901V25.2469C27.4906 25.5587 27.2364 25.8134 26.9451 25.8134H26.818C26.5002 25.8134 26.2407 25.5639 26.2407 25.2469V19.9767C26.2407 19.6648 26.4949 19.4102 26.818 19.4102H26.9451C27.2311 19.4102 27.4906 19.6596 27.4906 19.9767L27.4853 19.9819ZM8.84785 31.8996V27.4142C8.84785 27.1335 9.10207 26.8789 9.36158 26.8789H9.39336C9.67936 26.8789 9.9071 27.1283 9.9071 27.4142V31.0524H12.497V31.3954C12.497 31.6761 12.2427 31.8996 11.9514 31.8996H8.85315H8.84785ZM13.964 29.358L13.7734 29.3268C13.5827 29.2957 13.4238 29.1709 13.3602 28.9526C13.3285 28.7655 13.392 28.5472 13.5827 28.4173C13.8369 28.2614 14.1918 28.1678 14.6684 28.1678C15.1133 28.1678 15.4364 28.2302 15.6588 28.3237C15.8813 28.4173 16.0084 28.542 16.1037 28.698C16.199 28.8539 16.2308 29.1345 16.2308 29.5763V30.7042C16.2308 31.016 16.2308 31.2707 16.2626 31.3954C16.2944 31.5513 16.3579 31.7384 16.4533 31.8996H15.8442C15.6217 31.8996 15.4311 31.7748 15.3622 31.5565L15.3305 31.5253C15.1716 31.6813 14.9809 31.806 14.7849 31.8684C14.5943 31.9619 14.4036 31.9931 14.1759 31.9931C13.7945 31.9931 13.5032 31.8996 13.2808 31.6813C13.0584 31.4942 12.9313 31.2447 12.9313 30.9276C12.9313 30.7094 12.9948 30.5222 13.0901 30.3611C13.1855 30.2 13.3444 30.0805 13.5032 29.9869C13.6939 29.8934 13.9481 29.831 14.303 29.7686C14.7479 29.6751 15.0709 29.6127 15.2616 29.5191V29.4256C15.2616 29.2385 15.198 29.1137 15.1345 29.0202C15.0392 28.9578 14.8485 28.9266 14.589 28.9266C14.3983 28.9266 14.2712 28.9578 14.1759 29.0202C14.0805 29.0826 13.9852 29.2073 13.9534 29.3632L13.964 29.358ZM15.2722 30.1428C15.1451 30.2052 14.9544 30.2364 14.6631 30.2988C14.4089 30.3611 14.2182 30.4235 14.1176 30.4547C13.9905 30.5482 13.9269 30.673 13.9269 30.7977C13.9269 30.9536 13.9905 31.0472 14.0858 31.1719C14.1812 31.2655 14.3083 31.2967 14.4672 31.2967C14.6578 31.2967 14.8167 31.2343 14.9809 31.1407C15.108 31.0472 15.2033 30.9536 15.2351 30.8289C15.2351 30.7353 15.2669 30.5794 15.2669 30.3247V30.1376L15.2722 30.1428ZM17.1577 31.8996V26.8477H17.6396C17.9256 26.8477 18.1534 27.066 18.1534 27.3518V28.6668C18.4711 28.3237 18.826 28.1626 19.2391 28.1626C19.684 28.1626 20.0706 28.3185 20.3566 28.6356C20.6744 28.9786 20.8015 29.4204 20.8015 30.0493C20.8015 30.6782 20.6426 31.1459 20.3566 31.4942C20.0388 31.8372 19.684 31.9983 19.2391 31.9983C19.0484 31.9983 18.826 31.9359 18.63 31.8424C18.4076 31.7177 18.2487 31.5929 18.0845 31.3694V31.4006C18.0845 31.6813 17.8621 31.9048 17.5708 31.9048H17.1577V31.8996ZM18.1481 29.9869C18.1481 30.3923 18.2116 30.6782 18.3069 30.8341C18.4976 31.1148 18.7201 31.2395 19.0113 31.2395C19.2338 31.2395 19.3927 31.1459 19.5569 30.9588C19.721 30.7717 19.7793 30.4859 19.7793 30.0805C19.7793 29.6751 19.7157 29.358 19.5569 29.1709C19.398 28.9838 19.2073 28.9214 18.9796 28.9214C18.7253 28.9214 18.5347 28.9838 18.3705 29.1709C18.2063 29.358 18.1481 29.6439 18.1481 29.9869ZM21.2464 30.8653L21.8554 30.7717C22.0461 30.7405 22.2368 30.8341 22.3692 30.99C22.4009 31.0524 22.4327 31.1148 22.4963 31.1459C22.6234 31.2395 22.814 31.3019 23.0418 31.3019C23.296 31.3019 23.4867 31.2395 23.6191 31.1459C23.7144 31.0836 23.7462 31.0212 23.7462 30.8965C23.7462 30.8341 23.7144 30.7717 23.6826 30.7094C23.6191 30.6782 23.5237 30.6158 23.3649 30.5846C22.5651 30.4287 22.0567 30.2728 21.8289 30.1116C21.5429 29.9245 21.3841 29.6387 21.3841 29.2957C21.3841 28.9838 21.5112 28.698 21.7654 28.4797C22.0196 28.2614 22.438 28.1678 22.9465 28.1678C23.4549 28.1678 23.8415 28.2614 24.0957 28.4173C24.35 28.5732 24.5088 28.8227 24.6095 29.1397L24.064 29.2333C23.8733 29.2645 23.6826 29.2021 23.5502 29.0774L23.4549 28.9838C23.3596 28.8903 23.2007 28.8591 22.9729 28.8591C22.7187 28.8591 22.5281 28.8903 22.3956 28.9838C22.3321 29.015 22.3003 29.0774 22.3003 29.1709C22.3003 29.2333 22.3321 29.2957 22.3956 29.3268C22.491 29.4204 22.777 29.4828 23.3225 29.6075C23.8362 29.7322 24.2176 29.857 24.4082 30.0441C24.6307 30.2 24.726 30.4495 24.726 30.7665C24.726 31.1096 24.5989 31.3954 24.3129 31.6449C24.0269 31.8632 23.6085 31.9879 23.0365 31.9879C22.5228 31.9879 22.1414 31.8944 21.8237 31.6761C21.5377 31.489 21.3417 31.2031 21.2464 30.8601V30.8653Z" fill="#0A0515"/>
<defs>
<radialGradient id="paint0_radial_899_4368" cx="0" cy="0" r="1" gradientUnits="userSpaceOnUse" gradientTransform="translate(16.7273 15.4848) scale(22.6797 19.9931)">
<stop stop-color="#01CFF7"/>
<stop offset="0.39" stop-color="#044F99"/>
<stop offset="0.84" stop-color="#051989"/>
</radialGradient>
</defs>
</svg>
