<svg width="32" height="32" viewBox="0 0 32 32" fill="none" xmlns="http://www.w3.org/2000/svg">
<circle cx="16" cy="16" r="16" fill="#345D9D"/>
<path d="M14.7241 23.0726L16.372 17.5828V17.5773L18.9427 16.8597L19.481 15.044L16.9487 15.7993L19.6348 6.79056V6.64593C19.6348 6.58698 19.6184 6.53354 19.5963 6.47967C19.5831 6.44744 19.566 6.41733 19.5449 6.39018C19.5309 6.37237 19.5151 6.35541 19.4975 6.34056C19.4536 6.30324 19.4041 6.27101 19.3492 6.24938C19.2943 6.22817 19.2393 6.22266 19.1789 6.22266H15.7623C15.6305 6.22266 15.5041 6.2604 15.3998 6.33505C15.2954 6.41012 15.2185 6.51742 15.1855 6.64042L11.9996 17.3152L9.46741 18.0701L8.89062 19.8107L11.4229 19.0558L9.15976 26.6666H22.656C22.7878 26.6717 22.9141 26.6344 23.0185 26.5593C23.1228 26.4843 23.1998 26.3774 23.2327 26.254L24.0017 23.6405V23.4959C24.0017 23.4369 23.9852 23.3831 23.9633 23.3296C23.9413 23.2762 23.9083 23.2279 23.8644 23.1905C23.8439 23.1727 23.8222 23.1566 23.7992 23.1418C23.7731 23.1252 23.7453 23.1108 23.7161 23.0993C23.6612 23.0781 23.6062 23.0726 23.5458 23.0726H14.7241Z" fill="#0A0515"/>
</svg>
