<svg width="32" height="32" viewBox="0 0 32 32" fill="none" xmlns="http://www.w3.org/2000/svg">
<circle cx="16" cy="16" r="16" fill="#345D9D"/>
<path d="M14.7222 23.0726L16.3701 17.5828V17.5773L18.9407 16.8597L19.4791 15.044L16.9468 15.7993L19.6329 6.79056V6.64593C19.6329 6.58698 19.6164 6.53354 19.5944 6.47967C19.5812 6.44744 19.564 6.41733 19.5429 6.39018C19.5289 6.37237 19.5131 6.35541 19.4955 6.34056C19.4516 6.30324 19.4022 6.27101 19.3472 6.24938C19.2923 6.22817 19.2374 6.22266 19.1769 6.22266H15.7604C15.6285 6.22266 15.5022 6.2604 15.3978 6.33505C15.2934 6.41012 15.2166 6.51742 15.1836 6.64042L11.9977 17.3152L9.46545 18.0701L8.88867 19.8107L11.4209 19.0558L9.1578 26.6666H22.654C22.7858 26.6717 22.9121 26.6344 23.0165 26.5593C23.1209 26.4843 23.1978 26.3774 23.2307 26.254L23.9998 23.6405V23.4959C23.9998 23.4369 23.9833 23.3831 23.9613 23.3296C23.9393 23.2762 23.9064 23.2279 23.8624 23.1905C23.8419 23.1727 23.8202 23.1566 23.7973 23.1418C23.7711 23.1252 23.7434 23.1108 23.7141 23.0993C23.6592 23.0781 23.6042 23.0726 23.5439 23.0726H14.7222Z" fill="white"/>
</svg>
