<svg width="112" height="47" viewBox="0 0 112 47" fill="none" xmlns="http://www.w3.org/2000/svg">
<path d="M12.2984 15.3932L17.9578 16.0376C17.6458 17.2191 17.134 18.2443 16.4223 19.1133C15.7106 19.9726 14.7991 20.6414 13.6877 21.1199C12.586 21.5983 11.1822 21.8375 9.47609 21.8375C7.8285 21.8375 6.45388 21.6862 5.35223 21.3835C4.26034 21.071 3.31955 20.5731 2.52988 19.8896C1.74021 19.1963 1.12114 18.3859 0.672685 17.4583C0.224228 16.5307 0 15.3004 0 13.7674C0 12.1661 0.272974 10.8333 0.818921 9.76903C1.21863 8.9879 1.76458 8.28976 2.45676 7.67462C3.14895 7.04971 3.86063 6.58592 4.59181 6.28323C5.75195 5.80479 7.23868 5.56556 9.052 5.56556C11.5868 5.56556 13.5171 6.0196 14.8429 6.92766C16.1786 7.83573 17.1145 9.16365 17.6507 10.9114L12.0498 11.6584C11.8744 10.9944 11.5526 10.4965 11.0847 10.1645C10.6265 9.82273 10.0074 9.65186 9.22748 9.65186C8.24283 9.65186 7.44341 10.0083 6.82922 10.721C6.22477 11.4241 5.92255 12.4932 5.92255 13.9286C5.92255 15.2077 6.22477 16.1792 6.82922 16.8432C7.43366 17.5071 8.20383 17.8391 9.13974 17.8391C9.91967 17.8391 10.5729 17.6389 11.0993 17.2386C11.6355 16.8383 12.0352 16.2231 12.2984 15.3932Z" fill="#7AC01F"/>
<path d="M19.9612 13.7382C19.9612 11.3655 20.7606 9.41264 22.3595 7.87967C23.9583 6.33693 26.1177 5.56556 28.8377 5.56556C31.9477 5.56556 34.2972 6.46875 35.8863 8.27512C37.1634 9.72997 37.802 11.5217 37.802 13.6503C37.802 16.0425 37.0074 18.0051 35.4183 19.5381C33.839 21.0613 31.6503 21.8229 28.8523 21.8229C26.3566 21.8229 24.3385 21.1882 22.7982 19.9189C20.9069 18.3468 19.9612 16.2866 19.9612 13.7382ZM25.9276 13.7235C25.9276 15.11 26.2055 16.1353 26.7612 16.7992C27.3266 17.4632 28.0334 17.7952 28.8816 17.7952C29.7395 17.7952 30.4414 17.4681 30.9874 16.8139C31.5431 16.1597 31.8209 15.11 31.8209 13.6649C31.8209 12.3175 31.5431 11.3166 30.9874 10.6624C30.4317 9.99849 29.7444 9.66651 28.9255 9.66651C28.0578 9.66651 27.3412 10.0034 26.7758 10.6771C26.2103 11.3411 25.9276 12.3565 25.9276 13.7235Z" fill="#7AC01F"/>
<path d="M57.0174 0V21.4714H51.4458V19.1719C50.6659 20.1483 49.9542 20.8074 49.3107 21.1491C48.4528 21.5983 47.4974 21.8229 46.4445 21.8229C44.329 21.8229 42.7106 21.0173 41.5895 19.4062C40.4781 17.7952 39.9224 15.8374 39.9224 13.5331C39.9224 10.9554 40.5366 8.98302 41.765 7.61604C43.0031 6.24905 44.5727 5.56556 46.4738 5.56556C47.3999 5.56556 48.2383 5.72179 48.989 6.03424C49.7495 6.3467 50.4221 6.81538 51.0071 7.44028V0H57.0174ZM51.0509 13.6503C51.0509 12.4298 50.7926 11.5217 50.2759 10.9261C49.7592 10.3207 49.106 10.018 48.3163 10.018C47.6242 10.018 47.0441 10.3061 46.5761 10.8821C46.1082 11.4582 45.8742 12.4249 45.8742 13.7821C45.8742 15.0514 46.1131 15.9839 46.5908 16.5795C47.0782 17.1654 47.6778 17.4583 48.3895 17.4583C49.1499 17.4583 49.7836 17.1605 50.2905 16.5649C50.7975 15.9693 51.0509 14.9977 51.0509 13.6503Z" fill="#7AC01F"/>
<path d="M77.8852 15.1735H65.9524C66.0596 16.1304 66.318 16.8432 66.7274 17.3118C67.3026 17.9856 68.0533 18.3224 68.9795 18.3224C69.5644 18.3224 70.1201 18.176 70.6466 17.883C70.9683 17.6975 71.3144 17.3704 71.6848 16.9017L77.5489 17.4437C76.652 19.0059 75.5698 20.1288 74.3025 20.8123C73.0351 21.486 71.2169 21.8229 68.8479 21.8229C66.7908 21.8229 65.1725 21.5348 63.9928 20.9587C62.8132 20.3729 61.8334 19.4502 61.0535 18.1906C60.2833 16.9213 59.8982 15.4322 59.8982 13.7235C59.8982 11.2922 60.6733 9.32476 62.2234 7.82108C63.7832 6.3174 65.9329 5.56556 68.6724 5.56556C70.8952 5.56556 72.65 5.90243 73.9369 6.57615C75.2237 7.24988 76.2035 8.22629 76.8762 9.5054C77.5489 10.7845 77.8852 12.4493 77.8852 14.4998V15.1735ZM71.8311 12.3175C71.7141 11.1653 71.4021 10.3402 70.8952 9.84226C70.398 9.34429 69.7399 9.0953 68.921 9.0953C67.9753 9.0953 67.2198 9.47122 66.6543 10.2231C66.2936 10.6917 66.0645 11.3899 65.967 12.3175H71.8311Z" fill="#7AC01F"/>
<path d="M80.6783 5.91707H86.2499V8.46552C86.7861 7.36217 87.337 6.60545 87.9024 6.19535C88.4776 5.77549 89.1844 5.56556 90.0228 5.56556C90.9002 5.56556 91.8605 5.83896 92.9037 6.38575L91.0611 10.6332C90.3592 10.3402 89.8035 10.1938 89.394 10.1938C88.6141 10.1938 88.0096 10.516 87.5807 11.1604C86.9665 12.0685 86.6594 13.7674 86.6594 16.2573V21.4714H80.6783V5.91707Z" fill="#7AC01F"/>
<path d="M111.666 15.1735H99.7329C99.8401 16.1304 100.098 16.8432 100.508 17.3118C101.083 17.9856 101.834 18.3224 102.76 18.3224C103.345 18.3224 103.901 18.176 104.427 17.883C104.749 17.6975 105.095 17.3704 105.465 16.9017L111.329 17.4437C110.432 19.0059 109.35 20.1288 108.083 20.8123C106.816 21.486 104.997 21.8229 102.628 21.8229C100.571 21.8229 98.953 21.5348 97.7733 20.9587C96.5937 20.3729 95.6139 19.4502 94.834 18.1906C94.0638 16.9213 93.6787 15.4322 93.6787 13.7235C93.6787 11.2922 94.4538 9.32476 96.0039 7.82108C97.5637 6.3174 99.7134 5.56556 102.453 5.56556C104.676 5.56556 106.43 5.90243 107.717 6.57615C109.004 7.24988 109.984 8.22629 110.657 9.5054C111.329 10.7845 111.666 12.4493 111.666 14.4998V15.1735ZM105.612 12.3175C105.495 11.1653 105.183 10.3402 104.676 9.84226C104.178 9.34429 103.52 9.0953 102.701 9.0953C101.756 9.0953 101 9.47122 100.435 10.2231C100.074 10.6917 99.845 11.3899 99.7475 12.3175H105.612Z" fill="#7AC01F"/>
<path d="M51.5926 47C50.1152 47 48.8706 46.3801 47.859 45.1403C46.8474 43.9005 46.3416 42.3807 46.3416 40.581C46.3416 38.3813 46.9472 36.5282 48.1585 35.0218C49.3831 33.5154 50.8805 32.7622 52.6508 32.7622C53.343 32.7622 53.9819 32.8355 54.5676 32.9821C55.1666 33.1154 55.5925 33.2554 55.8454 33.4021L56.2048 33.622L54.8471 36.4016C54.541 36.135 54.1084 35.8883 53.5493 35.6617C52.9903 35.4218 52.4845 35.3018 52.0319 35.3018C51.1135 35.3018 50.3747 35.6817 49.8157 36.4416C49.2699 37.2015 48.9971 38.288 48.9971 39.7011C48.9971 41.1009 49.2832 42.2541 49.8556 43.1606C50.428 44.0538 51.2066 44.5004 52.1916 44.5004C52.8305 44.5004 53.4096 44.3004 53.9287 43.9005C54.4478 43.5005 54.8138 42.9673 55.0268 42.3007L56.684 43.2606C56.2447 44.4337 55.5726 45.3536 54.6674 46.0201C53.7623 46.6734 52.7374 47 51.5926 47Z" fill="#7AC01F"/>
<path d="M66.4031 46.88L65.4248 42.9806H60.6529L59.5947 46.78L57.039 46.5801L58.796 41.7208L61.4715 33.1221L65.0454 32.8621L67.621 41.4208L69.2782 46.4401L66.4031 46.88ZM63.2485 35.4617H62.9889L61.2718 40.8609H64.8258L63.2485 35.4617Z" fill="#7AC01F"/>
<path d="M71.3862 42.8006C72.5176 43.9338 73.649 44.5004 74.7804 44.5004C75.3661 44.5004 75.832 44.3671 76.1781 44.1004C76.5375 43.8205 76.7171 43.4672 76.7171 43.0406C76.7171 42.6007 76.5042 42.2341 76.0782 41.9408C75.6523 41.6341 75.1332 41.3675 74.5209 41.1409C73.9219 40.9143 73.3229 40.661 72.7239 40.381C72.1249 40.0877 71.6125 39.6744 71.1865 39.1412C70.7606 38.6079 70.5476 37.9614 70.5476 37.2015C70.5476 36.0017 71.0468 34.9685 72.0451 34.1019C73.0434 33.2221 74.228 32.7822 75.599 32.7822C76.2246 32.7822 76.8303 32.8488 77.416 32.9821C78.0016 33.1154 78.5673 33.3087 79.1131 33.562L77.7554 36.4816C77.3827 36.1883 76.8702 35.9217 76.218 35.6817C75.5791 35.4284 75.0134 35.3018 74.5209 35.3018C74.0417 35.3018 73.649 35.4218 73.3429 35.6617C73.05 35.8883 72.9036 36.195 72.9036 36.5816C72.9036 36.9682 73.1166 37.3148 73.5425 37.6214C73.9685 37.9147 74.4809 38.1747 75.0799 38.4013C75.6922 38.6279 76.2979 38.8812 76.8968 39.1612C77.5091 39.4278 78.0282 39.8277 78.4542 40.361C78.8801 40.8943 79.0931 41.5408 79.0931 42.3007C79.0931 43.5539 78.594 44.6537 77.5956 45.6002C76.5973 46.5334 75.4327 47 74.1016 47C73.1033 47 72.2181 46.76 71.4461 46.2801C70.7673 45.8668 70.2881 45.5002 70.0085 45.1803L69.8288 44.9603L71.3862 42.8006Z" fill="#7AC01F"/>
<path d="M84.0433 32.8821L83.7638 41.5808L84.0033 46.78H81.2081L81.4477 41.9208L81.2081 33.3821L84.0433 32.8821Z" fill="#7AC01F"/>
<path d="M97.7951 32.9421L97.5355 41.5808L97.7551 46.3401L95.3991 46.84L89.4493 37.2015V41.5808L89.7288 46.78H87.233L87.4726 41.9208L87.233 33.0421L89.629 32.9221L95.5589 42.7006L95.3592 33.2421L97.7951 32.9421Z" fill="#7AC01F"/>
<path d="M106.589 32.7822C108.16 32.7822 109.451 33.3821 110.463 34.5819C111.488 35.7817 112 37.3081 112 39.1612C112 41.5075 111.394 43.4005 110.183 44.8403C108.972 46.2801 107.381 47 105.411 47C103.88 47 102.596 46.3868 101.558 45.1603C100.52 43.9205 100 42.394 100 40.581C100 38.3146 100.619 36.4483 101.857 34.9818C103.095 33.5154 104.672 32.7822 106.589 32.7822ZM109.285 40.281C109.285 36.9082 108.18 35.2218 105.97 35.2218C104.959 35.2218 104.16 35.6017 103.574 36.3616C103.002 37.1082 102.716 38.2347 102.716 39.7411C102.716 41.2342 103.022 42.4674 103.634 43.4405C104.26 44.4004 105.078 44.8803 106.09 44.8803C107.115 44.8803 107.9 44.4737 108.446 43.6605C109.005 42.834 109.285 41.7075 109.285 40.281Z" fill="#7AC01F"/>
</svg>
