<svg width="127" height="44" viewBox="0 0 127 44" fill="none" xmlns="http://www.w3.org/2000/svg">
<path d="M31.5625 39.0987V27.942H34.3401L34.4558 28.7753C34.8108 28.4666 35.2505 28.2043 35.7752 27.9883C36.3153 27.7722 36.8554 27.6642 37.3955 27.6642C37.9356 27.6642 38.4834 27.7491 39.0389 27.9188C39.5944 28.0732 40.1036 28.3509 40.5666 28.7521C41.1067 28.4435 41.693 28.1889 42.3257 27.9883C42.9584 27.7722 43.6451 27.6642 44.3858 27.6642C45.2653 27.6642 45.9983 27.7722 46.5847 27.9883C47.1711 28.2043 47.6417 28.5129 47.9967 28.9142C48.367 29.3154 48.6293 29.8092 48.7836 30.3955C48.938 30.9819 49.0151 31.6532 49.0151 32.4093V39.0987H46.006V32.5482C46.006 31.8075 45.8594 31.2134 45.5663 30.7659C45.2731 30.303 44.733 30.0715 43.946 30.0715C43.7145 30.0715 43.4831 30.1101 43.2516 30.1872C43.0201 30.2489 42.7964 30.3261 42.5803 30.4187C42.3797 30.5113 42.1946 30.6116 42.0248 30.7196C41.8551 30.8122 41.7239 30.8971 41.6313 30.9742C41.6622 31.1594 41.693 31.3677 41.7239 31.5992C41.7548 31.8306 41.7702 32.0852 41.7702 32.363V39.0987H38.7611V32.5482C38.7611 32.2087 38.7303 31.8924 38.6685 31.5992C38.6068 31.2905 38.5065 31.0282 38.3676 30.8122C38.2288 30.5807 38.0359 30.4033 37.789 30.2798C37.5575 30.1409 37.2643 30.0715 36.9094 30.0715C36.4619 30.0715 36.0298 30.1872 35.6132 30.4187C35.1965 30.6502 34.857 30.8971 34.5947 31.1594V39.0987H31.5625Z" fill="#111111"/>
<path d="M50.7808 40.9736C51.074 41.1125 51.3595 41.2128 51.6373 41.2745C51.9304 41.3362 52.1773 41.3671 52.3779 41.3671C52.5631 41.3671 52.7483 41.3131 52.9335 41.2051C53.1186 41.097 53.2884 40.881 53.4427 40.5569L54.2991 38.6358L49.6698 27.942H52.8872L55.8037 35.5573L58.5813 27.942H61.6366L55.85 41.7374C55.6802 42.1232 55.4796 42.4473 55.2481 42.7096C55.0167 42.9719 54.7621 43.1802 54.4843 43.3345C54.2065 43.4889 53.9056 43.5969 53.5816 43.6586C53.273 43.7203 52.9643 43.7512 52.6557 43.7512C52.2545 43.7512 51.807 43.6972 51.3132 43.5892C50.8348 43.4966 50.341 43.3423 49.8318 43.1262L50.7808 40.9736Z" fill="#111111"/>
<path d="M73.5827 36.3737C73.1044 37.3767 72.4563 38.1174 71.6384 38.5958C70.836 39.0741 69.8947 39.3133 68.8145 39.3133C68.1047 39.3133 67.418 39.1899 66.7545 38.943C66.1064 38.6961 65.5277 38.3334 65.0185 37.8551C64.5247 37.3613 64.1235 36.7595 63.8148 36.0496C63.5216 35.3244 63.375 34.4834 63.375 33.5266C63.375 32.539 63.5216 31.6749 63.8148 30.9342C64.108 30.1935 64.4938 29.5763 64.9722 29.0825C65.466 28.5887 66.0292 28.226 66.6619 27.9946C67.2946 27.7477 67.9504 27.6242 68.6294 27.6242C69.3083 27.6242 69.9101 27.7245 70.4348 27.9251C70.9749 28.1103 71.4378 28.3572 71.8236 28.6658C72.2248 28.9745 72.5489 29.3217 72.7958 29.7074C73.0581 30.0932 73.2587 30.479 73.3976 30.8648L71.0135 32.0452C70.7511 31.3046 70.4194 30.7876 70.0182 30.4944C69.6324 30.1858 69.1926 30.0315 68.6988 30.0315C68.3902 30.0315 68.097 30.1009 67.8192 30.2398C67.5415 30.3787 67.2868 30.587 67.0554 30.8648C66.8393 31.1425 66.6619 31.4974 66.523 31.9295C66.3996 32.3616 66.3378 32.8785 66.3378 33.4803C66.3378 34.5451 66.5693 35.3707 67.0322 35.957C67.5106 36.5434 68.1278 36.8366 68.884 36.8366C69.4704 36.8366 69.9487 36.69 70.3191 36.3968C70.6894 36.1036 71.0212 35.687 71.3144 35.1469L73.5827 36.3737Z" fill="#D30100"/>
<path d="M81.3397 39.0587L81.2008 38.2254C80.8767 38.5649 80.4601 38.8349 79.9509 39.0356C79.4571 39.2207 78.9093 39.3133 78.3074 39.3133C77.8136 39.3133 77.3276 39.2284 76.8492 39.0587C76.3863 38.9044 75.9773 38.6806 75.6224 38.3874C75.2675 38.0788 74.982 37.7085 74.766 37.2764C74.55 36.8289 74.4419 36.3274 74.4419 35.7719C74.4419 35.2163 74.5577 34.7303 74.7891 34.3136C75.0206 33.8816 75.3292 33.5189 75.715 33.2257C76.1008 32.9325 76.5406 32.6934 77.0344 32.5082C77.5436 32.323 78.076 32.1841 78.6315 32.0915C79.0173 32.0144 79.4416 31.9604 79.9046 31.9295C80.3675 31.8832 80.7533 31.8446 81.0619 31.8138V31.4434C81.0619 30.9959 80.9076 30.6333 80.599 30.3555C80.2903 30.0778 79.9277 29.9389 79.5111 29.9389C79.2487 29.9389 78.917 30.0083 78.5158 30.1472C78.1146 30.2861 77.7288 30.5484 77.3584 30.9342L75.2984 29.4991C75.5916 29.1288 75.9233 28.8201 76.2937 28.5732C76.6795 28.3263 77.0652 28.1335 77.451 27.9946C77.8522 27.8557 78.2457 27.7631 78.6315 27.7168C79.0173 27.6551 79.3722 27.6242 79.6962 27.6242C80.3443 27.6242 80.9384 27.7091 81.4785 27.8788C82.0186 28.0332 82.4816 28.2878 82.8673 28.6427C83.2686 28.9822 83.5772 29.422 83.7932 29.962C84.0092 30.4867 84.1173 31.1271 84.1173 31.8832V39.0587H81.3397ZM81.085 33.8507C80.7764 33.8661 80.4447 33.897 80.0897 33.9433C79.7503 33.9741 79.4262 34.0204 79.1176 34.0822C78.4695 34.2056 78.0143 34.4216 77.7519 34.7303C77.505 35.0235 77.3816 35.3475 77.3816 35.7024C77.3816 36.0728 77.5205 36.3737 77.7982 36.6052C78.076 36.8212 78.4849 36.9292 79.025 36.9292C79.4108 36.9292 79.7811 36.852 80.136 36.6977C80.5064 36.5434 80.8227 36.3505 81.085 36.1191V33.8507Z" fill="#D30100"/>
<path d="M88.1362 35.3089C88.3985 35.8027 88.7611 36.2194 89.2241 36.5589C89.7024 36.8829 90.2965 37.0449 91.0064 37.0449C91.6236 37.0449 92.102 36.9524 92.4414 36.7672C92.7964 36.5666 92.9738 36.2965 92.9738 35.957C92.9738 35.633 92.7887 35.3475 92.4183 35.1006C92.048 34.8537 91.3613 34.6377 90.3582 34.4525C89.7719 34.3445 89.2318 34.2056 88.738 34.0359C88.2596 33.8507 87.8507 33.6192 87.5112 33.3415C87.1717 33.0637 86.9094 32.7319 86.7242 32.3462C86.539 31.9604 86.4465 31.4974 86.4465 30.9574C86.4465 29.9698 86.8554 29.1673 87.6732 28.5501C88.5065 27.9329 89.6253 27.6242 91.0295 27.6242C92.2949 27.6242 93.2979 27.8325 94.0386 28.2492C94.7793 28.6504 95.3502 29.1442 95.7514 29.7306L93.6219 31.1888C93.3442 30.8185 92.9893 30.5099 92.5572 30.263C92.1251 30.0161 91.6159 29.8926 91.0295 29.8926C90.3814 29.8926 89.9339 29.9929 89.687 30.1935C89.4401 30.3787 89.3166 30.6256 89.3166 30.9342C89.3166 31.2891 89.471 31.5437 89.7796 31.698C90.0882 31.8524 90.6592 32.0144 91.4924 32.1841C92.1714 32.323 92.7732 32.485 93.2979 32.6702C93.838 32.8554 94.2932 33.0946 94.6635 33.3878C95.0339 33.6655 95.3116 34.005 95.4968 34.4062C95.6974 34.8074 95.7977 35.2781 95.7977 35.8182C95.7977 36.42 95.6743 36.9446 95.4274 37.3921C95.1805 37.8242 94.841 38.1868 94.4089 38.48C93.9768 38.7578 93.4676 38.9661 92.8812 39.105C92.2949 39.2439 91.6699 39.3133 91.0064 39.3133C89.6793 39.3133 88.5991 39.0664 87.7658 38.5726C86.948 38.0634 86.323 37.4307 85.8909 36.6746L88.1362 35.3089Z" fill="#D30100"/>
<path d="M99.138 26.6289C98.5361 26.6289 98.0809 26.4592 97.7723 26.1197C97.4791 25.7802 97.3325 25.4021 97.3325 24.9855C97.3325 24.5843 97.4791 24.2139 97.7723 23.8745C98.0809 23.535 98.5361 23.3652 99.138 23.3652C99.7398 23.3652 100.187 23.535 100.48 23.8745C100.789 24.2139 100.943 24.5843 100.943 24.9855C100.943 25.4021 100.789 25.7802 100.48 26.1197C100.187 26.4592 99.7398 26.6289 99.138 26.6289ZM97.6334 39.0587V27.902H100.642V39.0587H97.6334Z" fill="#D30100"/>
<path d="M103.321 39.0587V27.902H106.076L106.214 28.7816C106.677 28.4112 107.21 28.1257 107.812 27.9251C108.413 27.7245 109.015 27.6242 109.617 27.6242C110.234 27.6242 110.797 27.7168 111.307 27.902C111.831 28.0717 112.279 28.3495 112.649 28.7353C113.02 29.121 113.305 29.6226 113.506 30.2398C113.722 30.8571 113.83 31.5977 113.83 32.4619V39.0587H110.797V32.6934C110.797 31.8446 110.612 31.1888 110.242 30.7259C109.872 30.263 109.355 30.0315 108.691 30.0315C108.228 30.0315 107.796 30.1472 107.395 30.3787C106.994 30.6102 106.646 30.8648 106.353 31.1425V39.0587H103.321Z" fill="#D30100"/>
<path d="M118.899 38.8041C118.205 38.4646 117.618 38.0171 117.14 37.4616C116.677 36.9061 116.33 36.2811 116.098 35.5867C115.867 34.8769 115.751 34.1593 115.751 33.4341C115.751 32.7088 115.867 31.999 116.098 31.3046C116.33 30.6102 116.677 29.9929 117.14 29.4528C117.618 28.8973 118.205 28.4575 118.899 28.1335C119.609 27.794 120.434 27.6242 121.376 27.6242C122.317 27.6242 123.135 27.794 123.829 28.1335C124.539 28.4575 125.125 28.8973 125.588 29.4528C126.067 29.9929 126.422 30.6102 126.653 31.3046C126.885 31.999 127 32.7088 127 33.4341C127 34.1593 126.885 34.8769 126.653 35.5867C126.422 36.2811 126.067 36.9061 125.588 37.4616C125.125 38.0171 124.539 38.4646 123.829 38.8041C123.135 39.1436 122.317 39.3133 121.376 39.3133C120.434 39.3133 119.609 39.1436 118.899 38.8041ZM119.385 35.8413C119.601 36.1499 119.871 36.3968 120.195 36.582C120.535 36.7517 120.928 36.8366 121.376 36.8366C121.808 36.8366 122.186 36.7517 122.51 36.582C122.849 36.3968 123.127 36.1499 123.343 35.8413C123.575 35.5327 123.744 35.1778 123.852 34.7766C123.976 34.3599 124.038 33.9124 124.038 33.4341C124.038 32.9711 123.976 32.5313 123.852 32.1147C123.744 31.698 123.575 31.3431 123.343 31.0499C123.127 30.7413 122.849 30.5021 122.51 30.3324C122.186 30.1472 121.808 30.0546 121.376 30.0546C120.944 30.0546 120.558 30.1472 120.218 30.3324C119.894 30.5021 119.617 30.7413 119.385 31.0499C119.169 31.3431 118.999 31.698 118.876 32.1147C118.768 32.5313 118.714 32.9711 118.714 33.4341C118.714 33.9124 118.768 34.3599 118.876 34.7766C118.999 35.1778 119.169 35.5327 119.385 35.8413Z" fill="#D30100"/>
<path d="M23.1085 27.4548C23.0739 28.3119 23.574 28.9545 24.4226 29.1225C24.4043 29.8547 24.1154 30.4733 23.6235 31.0031C22.7279 31.9678 21.5627 32.2859 20.3016 32.3524C19.2103 32.4101 18.1113 32.3955 17.0285 32.5222C15.8807 32.6562 14.8216 33.0919 13.8384 33.8855C15.3779 33.9371 16.8399 33.9064 18.2821 33.6096C19.5894 37.3271 18.2092 41.7975 15.7167 43.9315C15.4666 43.2306 15.2567 42.5115 14.9592 41.8306C13.7045 38.9577 11.558 36.9276 8.83303 35.4662C6.97092 34.4676 4.97333 33.8891 2.88427 33.6181C2.45316 33.5622 2.01627 33.5488 1.4782 33.5081C1.82851 32.929 2.0983 32.3667 2.47442 31.8882C3.07355 31.1256 3.74834 30.4228 4.37876 29.684C4.46747 29.5801 4.54737 29.4035 4.52488 29.2799C3.85375 25.5399 4.75123 22.1985 7.05356 19.2071C7.06055 19.198 7.06238 19.1849 7.09276 19.1044C6.95301 18.9826 6.7859 18.8446 6.627 18.6979C3.48552 15.7964 1.45389 12.2584 0.546389 8.0779C0.141399 6.21215 -0.0284297 4.32788 0.180597 2.42416C0.235892 1.92012 0.349203 1.41668 0.492909 0.929967C0.713785 0.181966 1.14947 -0.045285 1.91205 0.122727C3.27407 0.422595 4.44528 1.11318 5.50591 1.97724C8.69267 4.57367 10.803 7.85641 11.7242 11.8835C12.1465 13.7298 12.1568 15.5938 12.0116 17.4674C11.994 17.6965 11.9842 17.9262 11.9697 18.1787C12.6335 18.1787 13.287 18.1556 13.9387 18.1826C16.4929 18.2896 18.7342 19.2198 20.7087 20.8173C22.4131 22.1964 23.7186 23.9132 24.8558 25.7693C25.0396 26.0694 25.2298 26.3675 25.3884 26.681C25.6032 27.1054 25.5266 27.5147 25.2031 27.8559C24.9278 28.1457 24.6459 28.1852 24.1725 27.9729C23.8198 27.8152 23.4771 27.6356 23.1085 27.4548ZM3.24369 5.08134C6.62853 8.58437 9.37687 12.4641 10.57 17.3559C10.8969 15.8678 10.6638 13.238 9.51267 11.0006C8.12088 8.29575 6.07588 6.28294 3.24369 5.08134ZM12.7626 21.9229C12.7514 21.9755 12.7398 22.0283 12.7286 22.0809C13.0895 22.3179 13.4435 22.567 13.8147 22.7864C13.9904 22.8903 14.0985 22.9738 14.1316 23.2093C14.1975 23.6762 14.4373 24.0745 14.824 24.3662C15.7537 25.068 16.7767 24.7955 17.8002 24.6934C17.7829 24.5497 17.7762 24.4528 17.7595 24.3577C17.4943 22.8502 16.7016 21.9399 15.3302 21.8081C14.4856 21.7269 13.6191 21.877 12.7626 21.9229Z" fill="#D30100"/>
<path d="M13.7468 16.6645C13.1693 13.8673 13.6107 11.2985 15.3264 9.00619C16.2795 7.73258 17.2702 6.48724 18.226 5.21545C18.6474 4.65491 19.0245 4.06124 19.4714 3.41016C19.5136 3.8112 19.5695 4.15907 19.5838 4.50846C19.7075 7.48892 18.9838 10.2868 17.6898 12.944C17.0478 14.2619 16.3193 15.5377 15.6357 16.8219C14.994 16.7687 14.3709 16.7168 13.7468 16.6645Z" fill="#D30100"/>
<path d="M13.5482 43.2057C11.632 41.525 9.57271 40.1028 7.29012 39.0124C5.00298 37.9198 2.61193 37.1931 0 36.992C0.207508 36.4427 0.390706 35.9198 0.610975 35.4127C0.646825 35.3304 0.84584 35.2818 0.970406 35.2803C3.23325 35.2538 5.37455 35.7776 7.41742 36.7313C9.4363 37.6737 11.1787 38.9704 12.4353 40.8313C12.8588 41.4581 13.1377 42.183 13.474 42.8672C13.5239 42.9678 13.5248 43.0921 13.5482 43.2057Z" fill="#D30100"/>
<path d="M18.3639 0.611328C18.4697 1.20864 18.3171 1.74852 18.0941 2.27686C17.5813 3.49092 16.7643 4.50354 15.9367 5.50675C14.8147 6.86634 13.7562 8.26967 12.9146 9.83555C12.5586 9.028 12.2052 8.23961 11.8686 7.44391C11.8346 7.3637 11.8716 7.22363 11.9236 7.14129C13.5104 4.62932 15.3859 2.38987 17.9462 0.80242C18.0389 0.744998 18.1364 0.694878 18.2336 0.645356C18.2625 0.630469 18.2983 0.628038 18.3639 0.611328Z" fill="#D30100"/>
</svg>
