<svg width="100" height="24" viewBox="0 0 100 24" fill="none" xmlns="http://www.w3.org/2000/svg">
<path d="M12.1876 2.05916C11.5543 2.399 10.8824 3.04004 10.1718 3.98231C9.46125 4.90912 8.74297 6.09854 8.01696 7.55055C8.57305 7.65868 9.0828 7.78225 9.54621 7.92128C10.0251 8.0603 10.4576 8.20705 10.8438 8.36152L12.1876 2.05916ZM13.9949 0.414062C14.3193 0.414062 14.6437 0.444956 14.9681 0.506744C15.2925 0.553085 15.5782 0.63032 15.8254 0.738448L12.1876 17.7919H8.8511L10.6352 9.38101C10.0946 9.13386 9.58483 8.9485 9.10597 8.82492C8.62712 8.6859 8.10192 8.59322 7.53039 8.54688C6.64991 10.4623 5.9239 12.4086 5.35237 14.3858C4.79628 16.363 4.51823 17.9463 4.51823 19.1358C4.51823 19.4138 4.5414 19.6532 4.58774 19.854C4.64953 20.0703 4.73449 20.2634 4.84262 20.4333C3.66865 20.4333 2.85768 20.2325 2.40972 19.8309C1.96176 19.4293 1.73778 18.8114 1.73778 17.9772C1.73778 16.9423 2.04672 15.5598 2.6646 13.8297C3.29792 12.0997 4.12433 10.3387 5.14383 8.54688C4.35604 8.59322 3.73816 8.71679 3.2902 8.91761C2.85768 9.11842 2.57192 9.39646 2.43289 9.75174C2.49468 9.75174 2.55647 9.8367 2.61826 10.0066C2.69549 10.1611 2.73411 10.3156 2.73411 10.47C2.73411 10.7326 2.61053 10.9489 2.36338 11.1188C2.11623 11.2887 1.80729 11.3737 1.43657 11.3737C1.00405 11.3737 0.656495 11.2578 0.393897 11.0261C0.131299 10.779 0 10.4469 0 10.0298C0 9.22654 0.447961 8.5546 1.34388 8.01396C2.25525 7.45787 3.38288 7.17982 4.72677 7.17982C4.88123 7.17982 5.05887 7.18755 5.25968 7.20299C5.46049 7.20299 5.68448 7.21844 5.93163 7.24934C7.29096 5.10221 8.67346 3.42622 10.0791 2.22136C11.4848 1.01649 12.7901 0.414062 13.9949 0.414062Z" fill="url(#paint0_linear_8021_70414)"/>
<path d="M18.3502 2.2677C19.138 1.75795 19.9799 1.36405 20.8758 1.08601C21.7872 0.792514 22.6754 0.645768 23.5404 0.645768C23.6485 0.645768 23.7644 0.653491 23.888 0.668938C24.027 0.668938 24.2201 0.676661 24.4672 0.692108L20.899 17.3285C21.2543 17.4057 21.6327 17.537 22.0343 17.7224C22.4514 17.8923 23.077 18.2012 23.9111 18.6492C25.1623 19.3288 26.1201 19.7768 26.7843 19.9931C27.4485 20.2093 28.0818 20.3174 28.6843 20.3174C29.0395 20.3174 29.3716 20.2866 29.6806 20.2248C30.005 20.163 30.3216 20.0703 30.6306 19.9467C30.507 21.0589 30.2289 21.9394 29.7964 22.5882C29.3639 23.2524 28.8387 23.5845 28.2208 23.5845C27.6648 23.5845 27.07 23.43 26.4367 23.1211C25.8188 22.8276 24.8766 22.1788 23.6099 21.1748C22.1579 20.0008 21.0303 19.2284 20.227 18.8577C19.4238 18.5024 18.6437 18.3248 17.8868 18.3248C17.7478 18.3248 17.6397 18.3248 17.5625 18.3248C17.4852 18.3248 17.4157 18.3325 17.3539 18.348L20.8063 2.29087C19.7559 2.72338 18.9527 3.37215 18.3966 4.23718C17.8405 5.10221 17.5625 6.13715 17.5625 7.34202C17.5625 7.63551 17.5779 7.89038 17.6088 8.10664C17.6551 8.3229 17.7246 8.53143 17.8173 8.73224C17.8482 8.79403 17.8637 8.84037 17.8637 8.87126C17.8791 8.88671 17.8868 8.90216 17.8868 8.91761C17.0218 8.91761 16.3885 8.73997 15.9869 8.38469C15.6007 8.01396 15.4076 7.44242 15.4076 6.67008C15.4076 5.89773 15.6625 5.12538 16.1722 4.35303C16.6974 3.58069 17.4234 2.88557 18.3502 2.2677Z" fill="url(#paint1_linear_8021_70414)"/>
<path d="M27.1297 2.2677C27.9175 1.75795 28.7593 1.36405 29.6552 1.08601C30.5666 0.792514 31.4548 0.645768 32.3198 0.645768C32.428 0.645768 32.5438 0.653491 32.6674 0.668938C32.8064 0.668938 32.9995 0.676661 33.2467 0.692108L29.6784 17.3285C30.0337 17.4057 30.4121 17.537 30.8138 17.7224C31.2308 17.8923 31.8564 18.2012 32.6906 18.6492C33.9418 19.3288 34.8995 19.7768 35.5637 19.9931C36.2279 20.2093 36.8612 20.3174 37.4637 20.3174C37.8189 20.3174 38.1511 20.2866 38.46 20.2248C38.7844 20.163 39.101 20.0703 39.41 19.9467C39.2864 21.0589 39.0084 21.9394 38.5758 22.5882C38.1433 23.2524 37.6181 23.5845 37.0003 23.5845C36.4442 23.5845 35.8495 23.43 35.2161 23.1211C34.5983 22.8276 33.656 22.1788 32.3893 21.1748C30.9373 20.0008 29.8097 19.2284 29.0065 18.8577C28.2032 18.5024 27.4232 18.3248 26.6663 18.3248C26.5272 18.3248 26.4191 18.3248 26.3419 18.3248C26.2646 18.3248 26.1951 18.3325 26.1333 18.348L29.5857 2.29087C28.5353 2.72338 27.7321 3.37215 27.176 4.23718C26.6199 5.10221 26.3419 6.13715 26.3419 7.34202C26.3419 7.63551 26.3573 7.89038 26.3882 8.10664C26.4345 8.3229 26.5041 8.53143 26.5967 8.73224C26.6276 8.79403 26.6431 8.84037 26.6431 8.87126C26.6585 8.88671 26.6663 8.90216 26.6663 8.91761C25.8012 8.91761 25.1679 8.73997 24.7663 8.38469C24.3801 8.01396 24.187 7.44242 24.187 6.67008C24.187 5.89773 24.4419 5.12538 24.9516 4.35303C25.4768 3.58069 26.2028 2.88557 27.1297 2.2677Z" fill="url(#paint2_linear_8021_70414)"/>
<path d="M41.3726 4.56157C41.3726 3.37215 41.8823 2.38355 42.9018 1.59575C43.9368 0.80796 45.2112 0.414062 46.725 0.414062C47.8989 0.414062 48.8103 0.65349 49.4591 1.13235C50.1233 1.6112 50.4554 2.29859 50.4554 3.19451C50.4554 3.88962 50.2777 4.45344 49.9225 4.88595C49.5826 5.31847 49.127 5.53472 48.5554 5.53472C48.3392 5.53472 48.1383 5.49611 47.953 5.41887C47.7831 5.34164 47.6286 5.21806 47.4896 5.04815C47.7985 4.86278 48.0457 4.58474 48.231 4.21401C48.4318 3.84328 48.5322 3.45711 48.5322 3.05549C48.5322 2.56119 48.3855 2.18274 48.092 1.92014C47.7985 1.6421 47.3737 1.50307 46.8176 1.50307C46.1534 1.50307 45.6282 1.68844 45.242 2.05916C44.8713 2.42989 44.686 2.94736 44.686 3.61158C44.686 4.15222 44.825 4.6697 45.103 5.164C45.3811 5.64285 45.9835 6.29163 46.9103 7.11031C48.1306 8.17615 48.9339 9.10297 49.32 9.89076C49.7062 10.6631 49.8993 11.5281 49.8993 12.4858C49.8993 14.2468 49.2891 15.6525 48.0688 16.7029C46.8485 17.7533 45.2884 18.2785 43.3884 18.2785C41.8746 18.2785 40.6775 17.9309 39.797 17.2358C38.9165 16.5407 38.4763 15.5598 38.4763 14.2931C38.4763 13.181 38.8084 12.2696 39.4726 11.559C40.1368 10.8485 40.9401 10.4932 41.8823 10.4932C42.4693 10.4932 42.9482 10.6322 43.3189 10.9103C43.6896 11.1729 43.8904 11.5436 43.9213 12.0224C43.1181 12.0224 42.4616 12.2155 41.9518 12.6017C41.4575 12.9879 41.2104 13.5208 41.2104 14.2005C41.2104 14.8492 41.4112 15.3822 41.8128 15.7992C42.2144 16.2163 42.7551 16.4248 43.4348 16.4248C44.238 16.4248 44.8868 16.1468 45.3811 15.5907C45.8754 15.0346 46.1225 14.2854 46.1225 13.3432C46.1225 12.6171 45.9603 11.922 45.6359 11.2578C45.3116 10.5936 44.6396 9.7054 43.6201 8.59322C42.6933 7.60462 42.0831 6.83227 41.7897 6.27618C41.5116 5.70464 41.3726 5.1331 41.3726 4.56157Z" fill="url(#paint3_linear_8021_70414)"/>
<path d="M54.1467 2.2677C54.9345 1.75795 55.7764 1.36405 56.6723 1.08601C57.5837 0.792514 58.4719 0.645768 59.3369 0.645768C59.445 0.645768 59.5609 0.653491 59.6845 0.668938C59.8235 0.668938 60.0166 0.676661 60.2637 0.692108L56.6955 17.3285C57.0508 17.4057 57.4292 17.537 57.8308 17.7224C58.2479 17.8923 58.8735 18.2012 59.7076 18.6492C60.9588 19.3288 61.9165 19.7768 62.5808 19.9931C63.245 20.2093 63.8783 20.3174 64.4807 20.3174C64.836 20.3174 65.1681 20.2866 65.4771 20.2248C65.8014 20.163 66.1181 20.0703 66.427 19.9467C66.3035 21.0589 66.0254 21.9394 65.5929 22.5882C65.1604 23.2524 64.6352 23.5845 64.0173 23.5845C63.4612 23.5845 62.8665 23.43 62.2332 23.1211C61.6153 22.8276 60.6731 22.1788 59.4064 21.1748C57.9544 20.0008 56.8268 19.2284 56.0235 18.8577C55.2203 18.5024 54.4402 18.3248 53.6833 18.3248C53.5443 18.3248 53.4362 18.3248 53.3589 18.3248C53.2817 18.3248 53.2122 18.3325 53.1504 18.348L56.6028 2.29087C55.5524 2.72338 54.7492 3.37215 54.1931 4.23718C53.637 5.10221 53.3589 6.13715 53.3589 7.34202C53.3589 7.63551 53.3744 7.89038 53.4053 8.10664C53.4516 8.3229 53.5211 8.53143 53.6138 8.73224C53.6447 8.79403 53.6601 8.84037 53.6601 8.87126C53.6756 8.88671 53.6833 8.90216 53.6833 8.91761C52.8183 8.91761 52.185 8.73997 51.7833 8.38469C51.3972 8.01396 51.2041 7.44242 51.2041 6.67008C51.2041 5.89773 51.459 5.12538 51.9687 4.35303C52.4939 3.58069 53.2199 2.88557 54.1467 2.2677Z" fill="url(#paint4_linear_8021_70414)"/>
<path d="M63.8066 6.69324C64.4245 5.30302 65.1428 4.24491 65.9615 3.5189C66.7802 2.77745 67.6684 2.40672 68.6261 2.40672C68.8423 2.40672 69.0509 2.42217 69.2517 2.45306C69.4525 2.48395 69.6456 2.53029 69.8309 2.59208C68.8423 3.19451 67.9155 4.66197 67.0505 6.99446C66.2009 9.32695 65.7761 11.4509 65.7761 13.3663C65.7761 14.2314 65.892 14.8956 66.1237 15.359C66.3554 15.8224 66.6875 16.0541 67.12 16.0541C67.7533 16.0541 68.4021 15.6447 69.0663 14.8261C69.7305 14.0074 70.3175 12.9106 70.8273 11.5359C71.198 10.5627 71.476 9.55865 71.6614 8.52371C71.8622 7.47332 71.9626 6.47699 71.9626 5.53472C71.9626 3.99003 71.7386 2.93192 71.2907 2.36038C70.8427 1.77339 70.0781 1.4799 68.9968 1.4799C67.0968 1.4799 65.5058 2.04372 64.2237 3.17134C62.957 4.28352 62.3237 5.70464 62.3237 7.4347C62.3237 7.65096 62.3314 7.84404 62.3469 8.01396C62.3778 8.16843 62.4318 8.33062 62.5091 8.50054C62.5245 8.56233 62.5322 8.60867 62.5322 8.63956C62.5477 8.65501 62.5554 8.67045 62.5554 8.6859C61.7676 8.6859 61.1806 8.53143 60.7945 8.22249C60.4083 7.89811 60.2152 7.4038 60.2152 6.73959C60.2152 5.87456 60.5164 5.02498 61.1189 4.19084C61.7367 3.34126 62.5863 2.59981 63.6676 1.96648C64.5326 1.47218 65.4672 1.09373 66.4712 0.83113C67.4907 0.553085 68.5179 0.414062 69.5529 0.414062C71.3756 0.414062 72.7427 0.916088 73.6541 1.92014C74.5809 2.90874 75.0443 4.38393 75.0443 6.34569C75.0443 7.62779 74.8589 8.9485 74.4882 10.3078C74.1175 11.6672 73.6077 12.8797 72.9589 13.9456C72.1711 15.2431 71.2289 16.2317 70.1321 16.9114C69.0354 17.5911 67.8228 17.9309 66.4944 17.9309C65.1351 17.9309 64.1001 17.537 63.3896 16.7492C62.6944 15.9614 62.3469 14.8029 62.3469 13.2736C62.3469 12.285 62.4782 11.196 62.7408 10.0066C63.0034 8.80175 63.3587 7.6973 63.8066 6.69324Z" fill="url(#paint5_linear_8021_70414)"/>
<path d="M89.2255 0.970154C89.6889 0.970154 90.16 0.931536 90.6389 0.854302C91.1177 0.761619 91.5425 0.638044 91.9132 0.483574C91.8978 1.47218 91.6429 2.21363 91.1486 2.70793C90.6698 3.18679 89.9592 3.42622 89.0169 3.42622C88.569 3.42622 88.0669 3.3876 87.5109 3.31037C86.9702 3.23313 86.2751 3.10183 85.4255 2.91647L82.228 17.7919H78.8915L82.1817 2.45306H81.9036C80.4053 2.45306 79.3008 2.83923 78.5902 3.61158C77.8951 4.36848 77.5476 5.54245 77.5476 7.13348C77.5476 7.42698 77.563 7.68185 77.5939 7.89811C77.6403 8.11436 77.7098 8.3229 77.8025 8.52371C77.8334 8.5855 77.8488 8.63184 77.8488 8.66273C77.8642 8.67818 77.872 8.69362 77.872 8.70907C77.0069 8.70907 76.3736 8.53143 75.972 8.17615C75.5858 7.80543 75.3927 7.23389 75.3927 6.46154C75.3927 4.62335 76.0801 3.16362 77.4549 2.08233C78.8451 0.9856 80.7914 0.437234 83.2938 0.437234C83.8036 0.437234 84.2902 0.460404 84.7536 0.506744C85.2324 0.537639 85.8426 0.60715 86.584 0.715278C87.2328 0.823407 87.7348 0.892918 88.0901 0.923812C88.4608 0.954706 88.8393 0.970154 89.2255 0.970154Z" fill="url(#paint6_linear_8021_70414)"/>
<path d="M89.9309 4.56157C89.9309 3.37215 90.4407 2.38355 91.4602 1.59575C92.4951 0.80796 93.7695 0.414062 95.2833 0.414062C96.4572 0.414062 97.3686 0.65349 98.0174 1.13235C98.6816 1.6112 99.0137 2.29859 99.0137 3.19451C99.0137 3.88962 98.8361 4.45344 98.4808 4.88595C98.141 5.31847 97.6853 5.53472 97.1137 5.53472C96.8975 5.53472 96.6967 5.49611 96.5113 5.41887C96.3414 5.34164 96.1869 5.21806 96.0479 5.04815C96.3568 4.86278 96.604 4.58474 96.7893 4.21401C96.9902 3.84328 97.0906 3.45711 97.0906 3.05549C97.0906 2.56119 96.9438 2.18274 96.6503 1.92014C96.3568 1.6421 95.932 1.50307 95.376 1.50307C94.7117 1.50307 94.1865 1.68844 93.8004 2.05916C93.4296 2.42989 93.2443 2.94736 93.2443 3.61158C93.2443 4.15222 93.3833 4.6697 93.6613 5.164C93.9394 5.64285 94.5418 6.29163 95.4686 7.11031C96.6889 8.17615 97.4922 9.10297 97.8784 9.89076C98.2645 10.6631 98.4576 11.5281 98.4576 12.4858C98.4576 14.2468 97.8475 15.6525 96.6272 16.7029C95.4068 17.7533 93.8467 18.2785 91.9467 18.2785C90.4329 18.2785 89.2358 17.9309 88.3553 17.2358C87.4748 16.5407 87.0346 15.5598 87.0346 14.2931C87.0346 13.181 87.3667 12.2696 88.0309 11.559C88.6951 10.8485 89.4984 10.4932 90.4407 10.4932C91.0276 10.4932 91.5065 10.6322 91.8772 10.9103C92.2479 11.1729 92.4488 11.5436 92.4797 12.0224C91.6764 12.0224 91.0199 12.2155 90.5102 12.6017C90.0159 12.9879 89.7687 13.5208 89.7687 14.2005C89.7687 14.8492 89.9695 15.3822 90.3711 15.7992C90.7728 16.2163 91.3134 16.4248 91.9931 16.4248C92.7963 16.4248 93.4451 16.1468 93.9394 15.5907C94.4337 15.0346 94.6808 14.2854 94.6808 13.3432C94.6808 12.6171 94.5186 11.922 94.1943 11.2578C93.8699 10.5936 93.1979 9.7054 92.1784 8.59322C91.2516 7.60462 90.6415 6.83227 90.348 6.27618C90.0699 5.70464 89.9309 5.1331 89.9309 4.56157Z" fill="url(#paint7_linear_8021_70414)"/>
<defs>
<linearGradient id="paint0_linear_8021_70414" x1="49.7182" y1="-5.93022" x2="49.4424" y2="21.1019" gradientUnits="userSpaceOnUse">
<stop stop-color="white"/>
<stop offset="0.590751" stop-color="#E4A061"/>
<stop offset="1" stop-color="#D33D28"/>
</linearGradient>
<linearGradient id="paint1_linear_8021_70414" x1="49.7182" y1="-5.93022" x2="49.4424" y2="21.1019" gradientUnits="userSpaceOnUse">
<stop stop-color="white"/>
<stop offset="0.590751" stop-color="#E4A061"/>
<stop offset="1" stop-color="#D33D28"/>
</linearGradient>
<linearGradient id="paint2_linear_8021_70414" x1="49.7182" y1="-5.93022" x2="49.4424" y2="21.1019" gradientUnits="userSpaceOnUse">
<stop stop-color="white"/>
<stop offset="0.590751" stop-color="#E4A061"/>
<stop offset="1" stop-color="#D33D28"/>
</linearGradient>
<linearGradient id="paint3_linear_8021_70414" x1="49.7182" y1="-5.93022" x2="49.4424" y2="21.1019" gradientUnits="userSpaceOnUse">
<stop stop-color="white"/>
<stop offset="0.590751" stop-color="#E4A061"/>
<stop offset="1" stop-color="#D33D28"/>
</linearGradient>
<linearGradient id="paint4_linear_8021_70414" x1="49.7182" y1="-5.93022" x2="49.4424" y2="21.1019" gradientUnits="userSpaceOnUse">
<stop stop-color="white"/>
<stop offset="0.590751" stop-color="#E4A061"/>
<stop offset="1" stop-color="#D33D28"/>
</linearGradient>
<linearGradient id="paint5_linear_8021_70414" x1="49.7182" y1="-5.93022" x2="49.4424" y2="21.1019" gradientUnits="userSpaceOnUse">
<stop stop-color="white"/>
<stop offset="0.590751" stop-color="#E4A061"/>
<stop offset="1" stop-color="#D33D28"/>
</linearGradient>
<linearGradient id="paint6_linear_8021_70414" x1="49.7182" y1="-5.93022" x2="49.4424" y2="21.1019" gradientUnits="userSpaceOnUse">
<stop stop-color="white"/>
<stop offset="0.590751" stop-color="#E4A061"/>
<stop offset="1" stop-color="#D33D28"/>
</linearGradient>
<linearGradient id="paint7_linear_8021_70414" x1="49.7182" y1="-5.93022" x2="49.4424" y2="21.1019" gradientUnits="userSpaceOnUse">
<stop stop-color="white"/>
<stop offset="0.590751" stop-color="#E4A061"/>
<stop offset="1" stop-color="#D33D28"/>
</linearGradient>
</defs>
</svg>
