<svg width="172" height="36" viewBox="0 0 172 36" fill="none" xmlns="http://www.w3.org/2000/svg">
<path d="M14.1921 29.1312C11.2659 29.1312 8.85179 29.0185 6.94975 28.7931C5.09648 28.5301 3.65776 28.0228 2.63359 27.2713C1.65819 26.5199 0.975403 25.4114 0.585242 23.9461C0.243851 22.4807 0.0731554 20.5268 0.0731554 18.0845L0 0.5H6.73028V6.64332C6.92536 6.64332 7.38868 6.64332 8.12023 6.64332C8.85179 6.60574 9.70526 6.58696 10.6807 6.58696C11.7048 6.54938 12.7046 6.51181 13.68 6.47423C14.6554 6.43666 15.5089 6.41787 16.2405 6.41787C19.7519 6.41787 22.483 6.77483 24.4339 7.48873C26.3847 8.20263 27.7502 9.3862 28.5306 11.0395C29.3596 12.6927 29.7986 14.9283 29.8473 17.7464C29.8473 20.4517 29.4816 22.5746 28.75 24.1151C28.0672 25.6557 27.0674 26.7829 25.7507 27.4968C24.4339 28.2107 22.8001 28.6616 20.8492 28.8494C18.8984 29.0373 16.6794 29.1312 14.1921 29.1312ZM14.2653 26.2005C16.5575 26.2005 18.3132 26.0126 19.5325 25.6369C20.8005 25.2236 21.6783 24.3969 22.166 23.157C22.7025 21.9171 22.9708 20.0384 22.9708 17.5209C22.922 15.4544 22.6294 13.8387 22.0929 12.6739C21.5564 11.5091 20.6786 10.6825 19.4593 10.194C18.2888 9.66801 16.7038 9.40499 14.7042 9.40499C14.1677 9.40499 13.485 9.42378 12.6559 9.46135C11.8268 9.46135 10.9977 9.48014 10.1686 9.51771C9.33949 9.51771 8.60793 9.5365 7.97392 9.57407C7.38868 9.57407 6.99852 9.57407 6.80344 9.57407V18.7045C6.80344 20.3578 6.87659 21.6728 7.0229 22.6498C7.21799 23.6267 7.55938 24.3782 8.04708 24.9042C8.53478 25.3926 9.26633 25.7308 10.2417 25.9187C11.2659 26.1066 12.6071 26.2005 14.2653 26.2005Z" fill="#FF0004"/>
<path d="M50.4005 29.3003C47.962 29.3003 45.7918 29.1688 43.8897 28.9058C42.0365 28.6052 40.427 28.0604 39.0615 27.2713C37.7447 26.4823 36.7449 25.3175 36.0621 23.777C35.3793 22.2364 35.0379 20.2262 35.0379 17.7464C35.0379 15.2665 35.3793 13.2563 36.0621 11.7158C36.7449 10.1753 37.7447 9.01047 39.0615 8.22142C40.427 7.43237 42.0365 6.90633 43.8897 6.64332C45.7918 6.34273 47.962 6.19243 50.4005 6.19243C52.7415 6.19243 54.8386 6.34273 56.6919 6.64332C58.5939 6.90633 60.2033 7.43237 61.5201 8.22142C62.8369 9.01047 63.8367 10.1753 64.5195 11.7158C65.2511 13.2563 65.6168 15.2665 65.6168 17.7464C65.6168 20.2638 65.2511 22.2928 64.5195 23.8333C63.8367 25.3739 62.8369 26.5386 61.5201 27.3277C60.2033 28.0792 58.5939 28.6052 56.6919 28.9058C54.8386 29.1688 52.7415 29.3003 50.4005 29.3003ZM50.4005 26.4823C52.1563 26.4823 53.6438 26.2756 54.863 25.8623C56.131 25.449 57.0821 24.6224 57.7161 23.3824C58.3501 22.1425 58.6671 20.2638 58.6671 17.7464C58.6671 15.2289 58.3501 13.3502 57.7161 12.1103C57.0821 10.8704 56.131 10.0437 54.863 9.63043C53.6438 9.21712 52.1563 9.01047 50.4005 9.01047C48.6448 9.01047 47.1329 9.21712 45.8649 9.63043C44.5969 10.0437 43.6215 10.8704 42.9387 12.1103C42.3047 13.3502 41.9877 15.2289 41.9877 17.7464C41.9877 20.2638 42.3047 22.1425 42.9387 23.3824C43.6215 24.6224 44.5969 25.449 45.8649 25.8623C47.1329 26.2756 48.6448 26.4823 50.4005 26.4823Z" fill="#FF0004"/>
<path d="M70.8126 17.6337C70.8126 14.5902 71.349 12.2606 72.422 10.6449C73.4949 8.99168 75.0556 7.86446 77.1039 7.26328C79.1523 6.62453 81.6152 6.30515 84.4926 6.30515C85.3705 6.30515 86.3703 6.34273 87.492 6.41787C88.6625 6.45545 89.8085 6.53059 90.9303 6.64332C92.052 6.75604 93.0518 6.88755 93.9296 7.03784C94.8075 7.15056 95.4171 7.28207 95.7585 7.43237L93.9296 8.1087V0.5H100.66L100.587 17.6337C100.587 20.1887 100.343 22.2364 99.8552 23.777C99.3675 25.2799 98.5628 26.4071 97.4411 27.1586C96.3194 27.9101 94.7587 28.4173 92.7591 28.6804C90.7596 28.9434 88.2723 29.0749 85.2973 29.0749C82.5174 29.0749 80.1764 28.9434 78.2744 28.6804C76.4211 28.3798 74.9336 27.8349 73.8119 27.0459C72.739 26.2568 71.9587 25.1108 71.471 23.6079C71.032 22.1049 70.8126 20.1135 70.8126 17.6337ZM85.151 26.2005C87.053 26.2005 88.5893 26.1066 89.7598 25.9187C90.9303 25.6932 91.8081 25.2987 92.3934 24.7351C93.0274 24.1715 93.4419 23.3824 93.637 22.368C93.8321 21.3159 93.9296 19.9632 93.9296 18.31L93.8565 9.6868C93.3688 9.64922 92.7104 9.61165 91.8813 9.57407C91.0522 9.5365 90.1743 9.51771 89.2477 9.51771C88.3211 9.48014 87.4676 9.46135 86.6873 9.46135C84.4926 9.46135 82.7369 9.68679 81.4201 10.1377C80.1033 10.551 79.1523 11.3588 78.567 12.5612C77.9818 13.7636 77.6892 15.4919 77.6892 17.7464C77.6892 20.1511 77.9086 21.9546 78.3476 23.157C78.8353 24.3594 79.6156 25.1672 80.6885 25.5805C81.8102 25.9938 83.2977 26.2005 85.151 26.2005Z" fill="#FF0004"/>
<path d="M121.521 29.3003C119.083 29.3003 116.912 29.1688 115.01 28.9058C113.157 28.6052 111.548 28.0604 110.182 27.2713C108.865 26.4823 107.866 25.3175 107.183 23.777C106.5 22.2364 106.159 20.2262 106.159 17.7464C106.159 15.2665 106.5 13.2563 107.183 11.7158C107.866 10.1753 108.865 9.01047 110.182 8.22142C111.548 7.43237 113.157 6.90633 115.01 6.64332C116.912 6.34273 119.083 6.19243 121.521 6.19243C123.862 6.19243 125.959 6.34273 127.813 6.64332C129.715 6.90633 131.324 7.43237 132.641 8.22142C133.958 9.01047 134.957 10.1753 135.64 11.7158C136.372 13.2563 136.737 15.2665 136.737 17.7464C136.737 20.2638 136.372 22.2928 135.64 23.8333C134.957 25.3739 133.958 26.5386 132.641 27.3277C131.324 28.0792 129.715 28.6052 127.813 28.9058C125.959 29.1688 123.862 29.3003 121.521 29.3003ZM121.521 26.4823C123.277 26.4823 124.764 26.2756 125.984 25.8623C127.252 25.449 128.203 24.6224 128.837 23.3824C129.471 22.1425 129.788 20.2638 129.788 17.7464C129.788 15.2289 129.471 13.3502 128.837 12.1103C128.203 10.8704 127.252 10.0437 125.984 9.63043C124.764 9.21712 123.277 9.01047 121.521 9.01047C119.765 9.01047 118.254 9.21712 116.986 9.63043C115.718 10.0437 114.742 10.8704 114.059 12.1103C113.425 13.3502 113.108 15.2289 113.108 17.7464C113.108 20.2638 113.425 22.1425 114.059 23.3824C114.742 24.6224 115.718 25.449 116.986 25.8623C118.254 26.2756 119.765 26.4823 121.521 26.4823Z" fill="#FF0004"/>
<path d="M156.052 35.5C154.638 35.5 153.223 35.4624 151.809 35.3873C150.395 35.3121 149.078 35.1806 147.859 34.9928C146.688 34.8049 145.713 34.5231 144.933 34.1473C144.201 33.8092 143.835 33.3583 143.835 32.7947C143.835 32.6444 143.835 32.4377 143.835 32.1747C143.835 31.9117 143.835 31.7238 143.835 31.6111C144.469 31.8741 145.42 32.0996 146.688 32.2874C148.005 32.5129 149.395 32.682 150.858 32.7947C152.37 32.945 153.687 33.0201 154.809 33.0201C157.637 33.0201 159.807 32.7008 161.319 32.062C162.831 31.4232 163.855 30.39 164.392 28.9622C164.928 27.5719 165.099 25.712 164.904 23.3824H166.074C165.587 24.6224 164.782 25.5805 163.66 26.2568C162.587 26.9332 161.271 27.4028 159.71 27.6659C158.149 27.9289 156.394 28.0604 154.443 28.0604C151.565 28.0604 149.176 27.7974 147.274 27.2713C145.42 26.7077 144.055 25.6744 143.177 24.1715C142.348 22.6685 141.933 20.4893 141.933 17.6337C141.933 15.2289 142.201 13.2939 142.738 11.8285C143.323 10.3255 144.25 9.17955 145.518 8.3905C146.835 7.56387 148.517 7.01905 150.566 6.75604C152.663 6.45545 155.247 6.30515 158.32 6.30515C159.344 6.30515 160.563 6.34273 161.978 6.41787C163.392 6.49302 164.782 6.56817 166.148 6.64332C167.562 6.71846 168.781 6.79361 169.805 6.86876C170.878 6.94391 171.61 7.00027 172 7.03784C171.951 7.15056 171.902 7.45115 171.854 7.93961C171.854 8.42807 171.854 8.99168 171.854 9.63043C171.854 10.2316 171.854 10.8328 171.854 11.434L171.781 24.7915C171.781 27.5344 171.244 29.6761 170.171 31.2166C169.098 32.7947 167.391 33.9031 165.05 34.5419C162.758 35.1806 159.759 35.5 156.052 35.5ZM156.345 25.0169C157.954 25.0169 159.393 24.8666 160.661 24.566C161.929 24.2654 162.953 23.7582 163.733 23.0443C164.563 22.3304 164.977 21.3535 164.977 20.1135V9.74316C164.538 9.66801 163.612 9.57407 162.197 9.46135C160.783 9.34863 159.149 9.29227 157.296 9.29227C155.199 9.29227 153.54 9.49893 152.321 9.91224C151.102 10.3255 150.224 11.0958 149.688 12.223C149.151 13.3502 148.883 14.9847 148.883 17.1264C148.883 19.2305 149.127 20.865 149.614 22.0298C150.151 23.157 150.956 23.9461 152.029 24.3969C153.102 24.8103 154.54 25.0169 156.345 25.0169Z" fill="#FF0004"/>
</svg>
