<svg width="168" height="42" viewBox="0 0 168 42" fill="none" xmlns="http://www.w3.org/2000/svg">
<path d="M9.1084 1.13223C12.1728 1.13231 14.6464 2.01936 16.2822 3.99258C17.8908 5.89752 18.582 8.77223 18.582 12.3744C18.582 14.6705 18.1843 16.6398 17.2988 18.2025C16.8349 19.0212 16.2467 19.7072 15.5449 20.2611C16.4927 20.8241 17.2747 21.5819 17.8691 22.5414C18.9234 24.1861 19.3857 26.3934 19.3857 29.0375C19.3857 32.7816 18.6956 35.7752 17.1162 37.8119C15.4912 39.9073 13.0281 40.8695 9.96484 40.8695H1.88379V1.13223H9.1084ZM29.5664 1.13223C32.6308 1.13229 35.1044 2.01938 36.7402 3.99258C38.3489 5.89753 39.04 8.77223 39.04 12.3744C39.04 14.6705 38.6424 16.6398 37.7568 18.2025C37.2929 19.0213 36.7047 19.7072 36.0029 20.2611C36.9507 20.8241 37.7327 21.5819 38.3271 22.5414H38.3281C39.3824 24.1861 39.8437 26.3934 39.8438 29.0375C39.8438 32.7816 39.1537 35.7752 37.5742 37.8119C35.9492 39.9073 33.4861 40.8695 30.4229 40.8695H22.3418V1.13223H29.5664ZM8.40234 35.2621H9.8584C11.0322 35.262 11.7117 34.8835 12.1377 34.266C12.6371 33.5037 12.9746 32.1619 12.9746 30.0561V28.6088C12.9746 26.458 12.628 25.0351 12.0889 24.182C11.6043 23.4155 10.9176 23.0278 9.8584 23.0277H8.40234V35.2621ZM28.8604 35.2621H30.3164C31.4953 35.2621 32.1759 34.8804 32.6016 34.2582C33.0983 33.4947 33.4326 32.1551 33.4326 30.0561V28.6088C33.4326 26.458 33.086 25.0351 32.5469 24.182C32.0623 23.4155 31.3757 23.0278 30.3164 23.0277H28.8604V35.2621ZM8.40234 17.9555H9.37598C10.4197 17.9554 11.0792 17.5868 11.5371 16.891C12.0488 16.1136 12.3848 14.8057 12.3848 12.8031V11.518C12.3848 9.55764 12.0491 8.36803 11.582 7.7289L11.5547 7.68984C11.1682 7.11013 10.5303 6.73968 9.37598 6.73965H8.40234V17.9555ZM28.8604 17.9555H29.834C30.8778 17.9555 31.5381 17.5869 31.9961 16.891C32.5076 16.1135 32.8438 14.8054 32.8438 12.8031V11.518C32.8438 9.55764 32.5071 8.36803 32.04 7.7289L32.0127 7.68984C31.6262 7.1101 30.9884 6.73965 29.834 6.73965H28.8604V17.9555Z" stroke="#9C46FF" stroke-width="2.23243"/>
<path d="M61.8984 40.5561C59.0052 40.5561 56.8977 39.5917 55.5761 37.6629C54.2545 35.6983 53.5938 32.5729 53.5938 28.2866V13.7133C53.5938 9.42706 54.2545 6.31951 55.5761 4.39069C56.8977 2.42615 59.0052 1.44388 61.8984 1.44388C64.2201 1.44388 65.9704 2.1404 67.1491 3.53343C68.3635 4.89075 69.0958 7.05175 69.3458 10.0164L65.4346 10.9808C65.256 8.80197 64.8809 7.2482 64.3094 6.31951C63.7379 5.39082 62.8985 4.92647 61.7912 4.92647C60.3982 4.92647 59.3802 5.55155 58.7373 6.80172C58.1301 8.05188 57.8264 10.0521 57.8264 12.8025V29.4118C57.8264 32.0907 58.1301 34.0374 58.7373 35.2518C59.3802 36.4663 60.3982 37.0735 61.7912 37.0735C63.0414 37.0735 63.9701 36.5734 64.5773 35.5733C65.2203 34.5374 65.631 32.7694 65.8096 30.269L69.5601 30.7512C69.2386 34.1445 68.4528 36.627 67.2027 38.1986C65.9882 39.7703 64.2201 40.5561 61.8984 40.5561Z" fill="#00C9FF"/>
<path d="M86.9743 39.7524L85.3134 30.0011H77.7588L76.1515 39.7524H71.8652L78.7233 2.24755H84.4026L91.2606 39.7524H86.9743ZM81.5629 7.65897L78.3482 26.5721H84.724L81.5629 7.65897Z" fill="#00C9FF"/>
<path d="M102.756 40.5561C100.149 40.5561 98.1662 39.6631 96.8089 37.8772C95.4516 36.0555 94.63 33.198 94.3443 29.3046L98.3627 28.6081C98.5055 31.5013 98.9342 33.6266 99.6485 34.9839C100.363 36.3413 101.399 37.0199 102.756 37.0199C105.578 37.0199 106.989 35.1268 106.989 31.3406C106.989 29.8761 106.757 28.6081 106.292 27.5365C105.864 26.465 105.131 25.5363 104.096 24.7505L99.8093 21.5893C98.2019 20.4106 96.9875 18.9997 96.1659 17.3567C95.3801 15.7136 94.9872 13.749 94.9872 11.463C94.9872 8.03402 95.6302 5.51583 96.916 3.90848C98.2376 2.26541 100.274 1.44388 103.024 1.44388C105.56 1.44388 107.453 2.19398 108.703 3.69417C109.989 5.19436 110.775 7.62325 111.061 10.9808L106.989 11.8917C106.846 7.31964 105.506 5.03363 102.97 5.03363C100.47 5.03363 99.2199 6.98031 99.2199 10.8737C99.2199 12.6953 99.4164 14.1419 99.8093 15.2135C100.202 16.2494 100.917 17.1602 101.952 17.946L106.185 21.1071C107.971 22.393 109.239 23.8218 109.989 25.3934C110.775 26.965 111.168 28.9117 111.168 31.2334C111.168 37.4485 108.364 40.5561 102.756 40.5561Z" fill="#00C9FF"/>
<path d="M116.817 39.7524V2.24755H121.103V39.7524H116.817Z" fill="#00C9FF"/>
<path d="M140.77 39.7524L132.036 12.3739V39.7524H127.857V2.24755H132.304L141.037 29.6797V2.24755H145.217V39.7524H140.77Z" fill="#00C9FF"/>
<path d="M159.64 40.5561C156.711 40.5561 154.567 39.6095 153.21 37.7164C151.889 35.7876 151.228 32.7336 151.228 28.5545V13.4454C151.228 9.26632 151.889 6.23021 153.21 4.33711C154.567 2.40829 156.711 1.44388 159.64 1.44388C162.533 1.44388 164.64 2.40829 165.962 4.33711C167.319 6.26593 167.998 9.30204 167.998 13.4454V28.5545C167.998 32.6979 167.319 35.734 165.962 37.6629C164.64 39.5917 162.533 40.5561 159.64 40.5561ZM159.64 37.0735C162.39 37.0735 163.765 34.5017 163.765 29.3582V12.6418C163.765 7.49823 162.39 4.92647 159.64 4.92647C158.211 4.92647 157.157 5.55155 156.478 6.80172C155.8 8.05188 155.46 9.99856 155.46 12.6418V29.3582C155.46 32.0014 155.8 33.9481 156.478 35.1982C157.157 36.4484 158.211 37.0735 159.64 37.0735Z" fill="#00C9FF"/>
</svg>
