<svg width="277" height="28" viewBox="0 0 277 28" fill="none" xmlns="http://www.w3.org/2000/svg">
<path d="M10.9786 27.1767C8.89083 27.1767 6.8511 26.9487 4.85936 26.4928C2.89162 26.0128 1.27183 25.3769 0 24.585L2.73564 18.3938C3.93548 19.0897 5.27931 19.6537 6.76711 20.0856C8.25492 20.4935 9.68273 20.6975 11.0506 20.6975C12.2264 20.6975 13.0663 20.5895 13.5702 20.3736C14.0742 20.1336 14.3261 19.7856 14.3261 19.3297C14.3261 18.8018 13.9902 18.4058 13.3183 18.1419C12.6703 17.8779 11.5905 17.5899 10.0787 17.278C8.13493 16.87 6.51515 16.4381 5.21932 15.9821C3.92349 15.5022 2.79563 14.7343 1.83576 13.6784C0.875885 12.5986 0.395948 11.1468 0.395948 9.32301C0.395948 7.73922 0.83989 6.29941 1.72777 5.00358C2.61566 3.70775 3.93548 2.68788 5.68725 1.94398C7.46302 1.20008 9.61074 0.828125 12.1304 0.828125C13.8582 0.828125 15.55 1.0201 17.2057 1.40405C18.8855 1.764 20.3613 2.30393 21.6332 3.02384L19.0775 9.17903C16.6058 7.93119 14.2661 7.30727 12.0584 7.30727C9.87471 7.30727 8.78285 7.83521 8.78285 8.89107C8.78285 9.395 9.10681 9.77895 9.75472 10.0429C10.4026 10.2829 11.4705 10.5469 12.9583 10.8348C14.878 11.1948 16.4978 11.6147 17.8177 12.0946C19.1375 12.5506 20.2773 13.3065 21.2372 14.3623C22.2211 15.4182 22.713 16.858 22.713 18.6818C22.713 20.2656 22.2691 21.7054 21.3812 23.0012C20.4933 24.2731 19.1615 25.2929 17.3857 26.0608C15.6339 26.8047 13.4982 27.1767 10.9786 27.1767Z" fill="url(#paint0_linear_3443_8555)"/>
<path d="M25.2408 1.40405H33.7357V26.6007H25.2408V1.40405Z" fill="url(#paint1_linear_3443_8555)"/>
<path d="M60.3222 26.6007L60.2502 15.1183L54.7789 24.333H51.0354L45.5641 15.5142V26.6007H37.8251V1.40405H44.8082L53.0151 14.8303L61.0061 1.40405H67.9892L68.0612 26.6007H60.3222Z" fill="url(#paint2_linear_3443_8555)"/>
<path d="M84.2987 1.40405C86.6264 1.40405 88.6541 1.788 90.3819 2.5559C92.1097 3.3238 93.4415 4.42765 94.3774 5.86746C95.3132 7.30727 95.7812 8.98705 95.7812 10.9068C95.7812 12.8266 95.3132 14.5063 94.3774 15.9461C93.4415 17.386 92.1097 18.4898 90.3819 19.2577C88.6541 20.0256 86.6264 20.4096 84.2987 20.4096H80.6632V26.6007H72.1683V1.40405H84.2987ZM83.7588 13.8584C84.9106 13.8584 85.7745 13.6064 86.3504 13.1025C86.9264 12.5746 87.2143 11.8427 87.2143 10.9068C87.2143 9.97093 86.9264 9.25102 86.3504 8.74709C85.7745 8.21916 84.9106 7.95519 83.7588 7.95519H80.6632V13.8584H83.7588Z" fill="url(#paint3_linear_3443_8555)"/>
<path d="M98.5672 1.40405H107.062V20.0136H118.437V26.6007H98.5672V1.40405Z" fill="url(#paint4_linear_3443_8555)"/>
<path d="M141.732 20.1936V26.6007H120.783V1.40405H141.264V7.81121H129.134V10.7628H139.789V16.882H129.134V20.1936H141.732Z" fill="url(#paint5_linear_3443_8555)"/>
<path d="M178.291 26.6007L178.219 15.1183L172.748 24.333H169.004L163.533 15.5142V26.6007H155.794V1.40405H162.777L170.984 14.8303L178.975 1.40405H185.958L186.03 26.6007H178.291Z" fill="url(#paint6_linear_3443_8555)"/>
<path d="M190.137 1.40405H198.632V26.6007H190.137V1.40405Z" fill="url(#paint7_linear_3443_8555)"/>
<path d="M227.558 1.40405V26.6007H220.575L211 15.1542V26.6007H202.721V1.40405H209.705L219.279 12.8505V1.40405H227.558Z" fill="url(#paint8_linear_3443_8555)"/>
<path d="M252.601 20.1936V26.6007H231.651V1.40405H252.133V7.81121H240.002V10.7628H250.657V16.882H240.002V20.1936H252.601Z" fill="url(#paint9_linear_3443_8555)"/>
<path d="M265.266 27.1767C263.178 27.1767 261.138 26.9487 259.146 26.4928C257.179 26.0128 255.559 25.3769 254.287 24.585L257.023 18.3938C258.222 19.0897 259.566 19.6537 261.054 20.0856C262.542 20.4935 263.97 20.6975 265.338 20.6975C266.513 20.6975 267.353 20.5895 267.857 20.3736C268.361 20.1336 268.613 19.7856 268.613 19.3297C268.613 18.8018 268.277 18.4058 267.605 18.1419C266.957 17.8779 265.877 17.5899 264.366 17.278C262.422 16.87 260.802 16.4381 259.506 15.9821C258.21 15.5022 257.083 14.7343 256.123 13.6784C255.163 12.5986 254.683 11.1468 254.683 9.32301C254.683 7.73922 255.127 6.29941 256.015 5.00358C256.903 3.70775 258.222 2.68788 259.974 1.94398C261.75 1.20008 263.898 0.828125 266.417 0.828125C268.145 0.828125 269.837 1.0201 271.493 1.40405C273.173 1.764 274.648 2.30393 275.92 3.02384L273.364 9.17903C270.893 7.93119 268.553 7.30727 266.345 7.30727C264.162 7.30727 263.07 7.83521 263.07 8.89107C263.07 9.395 263.394 9.77895 264.042 10.0429C264.69 10.2829 265.757 10.5469 267.245 10.8348C269.165 11.1948 270.785 11.6147 272.105 12.0946C273.424 12.5506 274.564 13.3065 275.524 14.3623C276.508 15.4182 277 16.858 277 18.6818C277 20.2656 276.556 21.7054 275.668 23.0012C274.78 24.2731 273.448 25.2929 271.673 26.0608C269.921 26.8047 267.785 27.1767 265.266 27.1767Z" fill="url(#paint10_linear_3443_8555)"/>
<defs>
<linearGradient id="paint0_linear_3443_8555" x1="137.286" y1="-19.5739" x2="139.722" y2="46.949" gradientUnits="userSpaceOnUse">
<stop offset="0.545" stop-color="#FEFFFB"/>
<stop offset="0.5451" stop-color="#FAD765"/>
</linearGradient>
<linearGradient id="paint1_linear_3443_8555" x1="137.286" y1="-19.5739" x2="139.722" y2="46.949" gradientUnits="userSpaceOnUse">
<stop offset="0.545" stop-color="#FEFFFB"/>
<stop offset="0.5451" stop-color="#FAD765"/>
</linearGradient>
<linearGradient id="paint2_linear_3443_8555" x1="137.286" y1="-19.5739" x2="139.722" y2="46.949" gradientUnits="userSpaceOnUse">
<stop offset="0.545" stop-color="#FEFFFB"/>
<stop offset="0.5451" stop-color="#FAD765"/>
</linearGradient>
<linearGradient id="paint3_linear_3443_8555" x1="137.286" y1="-19.5739" x2="139.722" y2="46.949" gradientUnits="userSpaceOnUse">
<stop offset="0.545" stop-color="#FEFFFB"/>
<stop offset="0.5451" stop-color="#FAD765"/>
</linearGradient>
<linearGradient id="paint4_linear_3443_8555" x1="137.286" y1="-19.5739" x2="139.722" y2="46.949" gradientUnits="userSpaceOnUse">
<stop offset="0.545" stop-color="#FEFFFB"/>
<stop offset="0.5451" stop-color="#FAD765"/>
</linearGradient>
<linearGradient id="paint5_linear_3443_8555" x1="137.286" y1="-19.5739" x2="139.722" y2="46.949" gradientUnits="userSpaceOnUse">
<stop offset="0.545" stop-color="#FEFFFB"/>
<stop offset="0.5451" stop-color="#FAD765"/>
</linearGradient>
<linearGradient id="paint6_linear_3443_8555" x1="137.286" y1="-19.5739" x2="139.722" y2="46.949" gradientUnits="userSpaceOnUse">
<stop offset="0.545" stop-color="#FEFFFB"/>
<stop offset="0.5451" stop-color="#FAD765"/>
</linearGradient>
<linearGradient id="paint7_linear_3443_8555" x1="137.286" y1="-19.5739" x2="139.722" y2="46.949" gradientUnits="userSpaceOnUse">
<stop offset="0.545" stop-color="#FEFFFB"/>
<stop offset="0.5451" stop-color="#FAD765"/>
</linearGradient>
<linearGradient id="paint8_linear_3443_8555" x1="137.286" y1="-19.5739" x2="139.722" y2="46.949" gradientUnits="userSpaceOnUse">
<stop offset="0.545" stop-color="#FEFFFB"/>
<stop offset="0.5451" stop-color="#FAD765"/>
</linearGradient>
<linearGradient id="paint9_linear_3443_8555" x1="137.286" y1="-19.5739" x2="139.722" y2="46.949" gradientUnits="userSpaceOnUse">
<stop offset="0.545" stop-color="#FEFFFB"/>
<stop offset="0.5451" stop-color="#FAD765"/>
</linearGradient>
<linearGradient id="paint10_linear_3443_8555" x1="137.286" y1="-19.5739" x2="139.722" y2="46.949" gradientUnits="userSpaceOnUse">
<stop offset="0.545" stop-color="#FEFFFB"/>
<stop offset="0.5451" stop-color="#FAD765"/>
</linearGradient>
</defs>
</svg>
