<svg width="237" height="26" viewBox="0 0 237 26" fill="none" xmlns="http://www.w3.org/2000/svg">
<path d="M0 24.721L4.83371 0.552423H11.5318L20.6123 15.2607H17.7811L20.7159 0.552423H28.657L23.8233 24.721H17.1251L8.04467 10.0127H10.8758L7.94109 24.721H0Z" fill="#FFBA5B"/>
<path d="M27.7493 24.721L32.583 0.552423H40.7313L35.8976 24.721H27.7493Z" fill="#FFBA5B"/>
<path d="M48.141 19.7491L49.3494 10.5996L60.1217 0.552423H69.4783L57.0833 11.8081L51.5591 16.5727L48.141 19.7491ZM39.8201 24.721L44.6538 0.552423H52.6639L47.8302 24.721H39.8201ZM56.1511 24.721L50.3161 15.3298L56.3583 9.87457L65.2316 24.721H56.1511Z" fill="#F965B8"/>
<path d="M62.3829 24.721L77.7817 0.552423H85.7918L91.5232 24.721H83.4095L79.508 4.31581H82.6844L70.98 24.721H62.3829ZM69.4953 20.5087L72.7408 14.6392H83.8583L84.756 20.5087H69.4953Z" fill="#F965B8"/>
<path d="M106.228 25.2734C103.742 25.2734 101.567 24.8245 99.7025 23.9268C97.8381 23.0061 96.3879 21.7402 95.3521 20.1289C94.3394 18.4947 93.833 16.6072 93.833 14.4666C93.833 12.349 94.2013 10.404 94.9378 8.63162C95.6974 6.85926 96.7562 5.32859 98.1143 4.0396C99.4723 2.75061 101.084 1.76085 102.948 1.07032C104.812 0.356773 106.861 0 109.094 0C111.418 0 113.479 0.414318 115.274 1.24295C117.069 2.07159 118.404 3.26851 119.279 4.83371L113.41 9.42573C112.903 8.52804 112.247 7.83751 111.441 7.35414C110.636 6.84775 109.681 6.59456 108.576 6.59456C107.609 6.59456 106.723 6.7787 105.917 7.14698C105.135 7.49225 104.456 7.99863 103.88 8.66615C103.305 9.31064 102.856 10.0817 102.534 10.9794C102.211 11.8771 102.05 12.8669 102.05 13.9487C102.05 14.8924 102.257 15.7211 102.672 16.4346C103.086 17.1482 103.662 17.7006 104.398 18.0919C105.158 18.4832 106.032 18.6788 107.022 18.6788C107.966 18.6788 108.887 18.4602 109.784 18.0228C110.705 17.5855 111.58 16.8719 112.408 15.8822L117.207 20.4742C115.734 22.2696 114.089 23.524 112.27 24.2376C110.475 24.9281 108.461 25.2734 106.228 25.2734Z" fill="white"/>
<path d="M115.218 24.721L130.617 0.552423H138.627L144.358 24.721H136.244L132.343 4.31581H135.519L123.815 24.721H115.218ZM122.33 20.5087L125.576 14.6392H136.693L137.591 20.5087H122.33Z" fill="white"/>
<path d="M155.257 25.2734C153.83 25.2734 152.46 25.1698 151.148 24.9626C149.836 24.7555 148.639 24.4678 147.558 24.0995C146.499 23.7082 145.578 23.2824 144.795 22.822L147.937 16.8144C148.835 17.3208 149.733 17.7466 150.63 18.0919C151.551 18.4141 152.46 18.6558 153.358 18.8169C154.279 18.9781 155.188 19.0586 156.086 19.0586C156.799 19.0586 157.386 19.0011 157.846 18.886C158.33 18.7709 158.687 18.6098 158.917 18.4026C159.17 18.1724 159.297 17.9192 159.297 17.643C159.297 17.2747 159.089 16.9755 158.675 16.7453C158.261 16.5152 157.708 16.308 157.018 16.1239C156.35 15.9397 155.602 15.7556 154.774 15.5714C153.968 15.3643 153.151 15.1111 152.322 14.8119C151.494 14.4896 150.734 14.0868 150.043 13.6034C149.376 13.1201 148.835 12.5101 148.421 11.7735C148.006 11.037 147.799 10.1393 147.799 9.08046C147.799 7.23905 148.283 5.63932 149.249 4.28128C150.239 2.92324 151.643 1.87594 153.462 1.13937C155.303 0.379791 157.49 0 160.022 0C161.817 0 163.486 0.184141 165.028 0.552423C166.593 0.897687 167.94 1.40408 169.068 2.07159L166.133 8.01014C165.166 7.41168 164.107 6.96284 162.956 6.66361C161.828 6.36438 160.678 6.21477 159.504 6.21477C158.721 6.21477 158.065 6.29533 157.536 6.45645C157.006 6.59456 156.603 6.79021 156.327 7.0434C156.074 7.2966 155.947 7.5613 155.947 7.83751C155.947 8.20579 156.155 8.51653 156.569 8.76973C156.983 8.9999 157.536 9.20706 158.226 9.3912C158.917 9.55233 159.665 9.73647 160.47 9.94363C161.299 10.1278 162.116 10.3695 162.922 10.6687C163.75 10.9449 164.51 11.3247 165.201 11.8081C165.891 12.2684 166.444 12.8669 166.858 13.6034C167.272 14.317 167.479 15.2032 167.479 16.262C167.479 18.0573 166.984 19.6341 165.995 20.9921C165.005 22.3271 163.589 23.3744 161.748 24.134C159.93 24.8936 157.766 25.2734 155.257 25.2734Z" fill="white"/>
<path d="M168.35 24.721L173.184 0.552423H181.332L176.499 24.721H168.35Z" fill="white"/>
<path d="M180.421 24.721L185.255 0.552423H191.953L201.033 15.2607H198.202L201.137 0.552423H209.078L204.244 24.721H197.546L188.466 10.0127H191.297L188.362 24.721H180.421Z" fill="white"/>
<path d="M221.774 25.2734C219.265 25.2734 217.09 24.813 215.248 23.8923C213.43 22.9716 212.014 21.7056 211.002 20.0944C210.012 18.4602 209.517 16.5842 209.517 14.4666C209.517 12.326 209.885 10.381 210.622 8.63162C211.381 6.85926 212.44 5.32859 213.798 4.0396C215.156 2.75061 216.767 1.76085 218.632 1.07032C220.496 0.356773 222.533 0 224.743 0C227.252 0 229.416 0.460353 231.234 1.38106C233.075 2.30176 234.491 3.57924 235.481 5.2135C236.494 6.82473 237 8.68916 237 10.8068C237 12.9474 236.62 14.9039 235.861 16.6763C235.124 18.4256 234.077 19.9448 232.719 21.2338C231.361 22.5228 229.749 23.524 227.885 24.2376C226.021 24.9281 223.984 25.2734 221.774 25.2734ZM222.464 18.6788C223.477 18.6788 224.363 18.4832 225.123 18.0919C225.905 17.7006 226.573 17.1597 227.125 16.4691C227.678 15.7786 228.092 14.996 228.368 14.1213C228.645 13.2236 228.783 12.2799 228.783 11.2902C228.783 10.3464 228.587 9.52931 228.196 8.83878C227.827 8.12523 227.287 7.57281 226.573 7.18151C225.882 6.79021 225.042 6.59456 224.053 6.59456C223.063 6.59456 222.177 6.79021 221.394 7.18151C220.611 7.57281 219.944 8.11372 219.391 8.80425C218.839 9.49478 218.425 10.2889 218.149 11.1866C217.872 12.0612 217.734 12.9935 217.734 13.9832C217.734 14.9039 217.918 15.7211 218.287 16.4346C218.678 17.1482 219.219 17.7006 219.909 18.0919C220.623 18.4832 221.475 18.6788 222.464 18.6788Z" fill="white"/>
</svg>
