<svg width="165" height="42" viewBox="0 0 165 42" fill="none" xmlns="http://www.w3.org/2000/svg">
<g id="logo">
<g id="Group 582">
<g id="Casino">
<path id="Vector" d="M69.0896 32.2412C68.7093 32.2889 68.3448 32.3127 67.9962 32.3127C66.3164 32.3127 64.8665 31.8838 63.6463 31.0259C62.4261 30.1522 61.4911 29.0163 60.8414 27.6183C60.2076 26.2203 59.8906 24.7508 59.8906 23.2098C59.8906 21.8436 60.1521 20.5727 60.675 19.3971C61.198 18.2057 61.9824 17.2286 63.0283 16.4661C64.09 15.6877 65.3815 15.2349 66.9028 15.1078C67.0612 15.0919 67.2989 15.084 67.6159 15.084C69.2639 15.084 70.698 15.5288 71.9182 16.4184C73.1384 17.2922 74.0655 18.436 74.6993 19.8499C75.349 21.2638 75.6739 22.7412 75.6739 24.2822C75.6739 25.6007 75.4283 26.8319 74.937 27.9758C74.4616 29.1196 73.7248 30.0727 72.7264 30.8353C71.7439 31.5978 70.5317 32.0665 69.0896 32.2412ZM68.5429 32.0029C69.5888 32.0029 70.4683 31.6693 71.1814 31.0021C71.9103 30.319 72.4491 29.4214 72.7977 28.3094C73.1622 27.1973 73.3444 25.982 73.3444 24.6634C73.3444 23.0748 73.0909 21.5497 72.5838 20.0882C72.0767 18.6266 71.3319 17.4511 70.3494 16.5614C69.3828 15.6718 68.226 15.2746 66.879 15.3699C65.8648 15.4335 65.0091 15.7989 64.3118 16.4661C63.6304 17.1174 63.1233 17.9674 62.7906 19.0159C62.4578 20.0644 62.2914 21.2082 62.2914 22.4473C62.2914 24.0042 62.5449 25.5213 63.052 26.9987C63.5591 28.4603 64.2801 29.6597 65.2151 30.597C66.1659 31.5343 67.2752 32.0029 68.5429 32.0029Z" fill="white"/>
<path id="Vector_2" d="M59.4045 15.4645C59.0401 15.528 58.7469 15.6789 58.525 15.9172C58.319 16.1396 58.216 16.3938 58.216 16.6798V31.4064L58.5963 32.0975L56.3857 32.0736L48.0662 17.1325L47.9712 30.7868C47.9712 31.0728 48.0742 31.3349 48.2802 31.5732C48.502 31.7956 48.7952 31.9386 49.1597 32.0021V32.0975L46.4737 32.0736V31.9545C46.9015 31.8909 47.2105 31.7559 47.4007 31.5494C47.6067 31.3429 47.7097 31.0887 47.7097 30.7868L47.7572 16.5606C47.5671 16.1952 47.3848 15.941 47.2105 15.7981C47.0521 15.6551 46.7827 15.5598 46.4023 15.5121V15.393H49.4211L57.907 30.8345L57.9546 16.6798C57.9546 16.3779 57.8516 16.1237 57.6455 15.9172C57.4554 15.7107 57.1464 15.5757 56.7185 15.5121V15.393L59.4045 15.3691V15.4645Z" fill="white"/>
<path id="Vector_3" d="M44.8294 31.1449C44.8294 31.3355 44.8928 31.5182 45.0195 31.6929C45.1463 31.8518 45.4474 31.9471 45.9228 31.9789V32.098H41.668V31.9789C42.1434 31.9471 42.4445 31.8518 42.5712 31.6929C42.698 31.5182 42.7614 31.3355 42.7614 31.1449V16.3467C42.7614 16.1402 42.698 15.9575 42.5712 15.7987C42.4445 15.6398 42.1434 15.5445 41.668 15.5127V15.3936H45.9228V15.5127C45.4474 15.5445 45.1463 15.6398 45.0195 15.7987C44.8928 15.9575 44.8294 16.1402 44.8294 16.3467V31.1449Z" fill="white"/>
<path id="Vector_4" d="M30.296 28.3806C30.6287 29.5403 31.2309 30.4141 32.1025 31.0019C32.974 31.5738 34.0595 31.8598 35.359 31.8598C36.0562 31.8598 36.6742 31.7009 37.213 31.3832C37.7677 31.0495 38.1955 30.6206 38.4966 30.0964C38.7977 29.5562 38.9482 28.9843 38.9482 28.3806C38.9482 27.8087 38.8056 27.2607 38.5204 26.7364C38.2193 26.2122 37.7756 25.7673 37.1893 25.402C36.6188 25.0366 35.8423 24.6156 34.8598 24.139C33.909 23.6942 33.1404 23.2891 32.5541 22.9237C31.9678 22.5583 31.4765 22.0976 31.0804 21.5416C30.6842 20.9697 30.4861 20.2945 30.4861 19.5161C30.4861 18.7059 30.7476 17.991 31.2705 17.3714C31.7935 16.736 32.4828 16.2514 33.3385 15.9178C34.2101 15.5683 35.1371 15.3936 36.1196 15.3936C36.7218 15.3936 37.3557 15.4571 38.0212 15.5842C38.7026 15.6954 39.2018 15.8304 39.5187 15.9893L40.1605 15.465L40.7072 18.6344H40.4933C40.2873 17.6653 39.8357 16.9186 39.1384 16.3944C38.4411 15.8701 37.6092 15.608 36.6425 15.608C35.8502 15.608 35.1609 15.751 34.5746 16.037C33.9882 16.307 33.5445 16.6803 33.2434 17.1569C32.9424 17.6176 32.7918 18.1181 32.7918 18.6582C32.7918 18.9442 32.8394 19.2301 32.9344 19.5161C33.1246 20.1833 33.5287 20.7473 34.1467 21.208C34.7806 21.6687 35.6838 22.185 36.8565 22.7569C38.045 23.3447 38.9799 23.8848 39.6613 24.3773C40.3586 24.8698 40.8498 25.4814 41.1351 26.2122C41.3411 26.7841 41.4441 27.3083 41.4441 27.7849C41.4441 28.5316 41.246 29.2226 40.8498 29.8581C40.4537 30.4935 39.8594 31.0178 39.0671 31.4308C38.2906 31.828 37.3319 32.0504 36.1909 32.098L35.4303 32.1219C34.5112 32.1219 33.6951 32.0504 32.982 31.9074C32.2689 31.7644 31.7142 31.5659 31.3181 31.3117L30.5337 32.098L30.082 28.3806H30.296Z" fill="white"/>
<path id="Vector_5" d="M28.088 30.5968C28.2782 31.0575 28.5001 31.3832 28.7536 31.5738C29.0072 31.7644 29.3716 31.8915 29.847 31.9551V32.0742H25.1881V31.9789C25.7903 31.8518 26.0914 31.5817 26.0914 31.1687C26.0914 30.9939 26.0597 30.8351 25.9963 30.6921L24.0947 25.8547H16.7498L14.9195 30.8827C14.8878 30.9781 14.8719 31.0495 14.8719 31.0972C14.8719 31.3037 14.967 31.4864 15.1572 31.6453C15.3632 31.8041 15.6246 31.9154 15.9416 31.9789V32.0742H13.1367V31.9551C13.9132 31.8597 14.4203 31.4705 14.658 30.7874L20.1251 15.7987L19.9587 15.3936H22.0505L28.088 30.5968ZM16.8448 25.6164H23.9996L20.2915 16.2276L16.8448 25.6164Z" fill="white"/>
<path id="Vector_6" d="M8.53343 32.1929C6.71106 32.2564 5.15809 31.9069 3.87451 31.1444C2.59093 30.3659 1.62428 29.3254 0.97457 28.0227C0.324856 26.72 0 25.322 0 23.8287C0 22.3513 0.316933 20.9612 0.9508 19.6585C1.58467 18.34 2.52754 17.2756 3.77943 16.4654C5.03131 15.6552 6.5209 15.258 8.24819 15.2739C9.34161 15.2739 10.3558 15.4963 11.2907 15.9411L11.7424 15.5599L12.6456 19.2773H12.4317C12.1306 18.1176 11.5918 17.2041 10.8153 16.5369C10.0547 15.8537 9.19899 15.5122 8.24819 15.5122C6.98045 15.5122 5.87911 15.9093 4.94416 16.7037C4.02505 17.4821 3.31988 18.5068 2.82863 19.7777C2.35323 21.0486 2.11553 22.3989 2.11553 23.8287C2.11553 25.2426 2.35323 26.5691 2.82863 27.8082C3.30403 29.0315 4.02505 30.0323 4.9917 30.8107C5.95834 31.5733 7.13892 31.9625 8.53343 31.9784C9.19899 31.9784 9.79324 31.7719 10.3162 31.3588C10.855 30.9458 11.2828 30.4771 11.5998 29.9529C11.9325 29.4286 12.1544 28.9838 12.2653 28.6184H12.4555L11.9563 32.0737L11.3145 31.5018C11.267 31.5177 10.9976 31.6289 10.5063 31.8354C10.0309 32.0419 9.3733 32.1611 8.53343 32.1929Z" fill="white"/>
</g>
<g id="Velden">
<path id="Vector_7" d="M164.998 15.1793C164.634 15.2428 164.341 15.3938 164.119 15.6321C163.913 15.8545 163.81 16.1087 163.81 16.3946V31.1212L164.19 31.8123L161.979 31.7885L153.66 16.8474L153.565 30.5017C153.565 30.7876 153.668 31.0498 153.874 31.2881C154.096 31.5105 154.389 31.6534 154.753 31.717V31.8123L152.067 31.7885V31.6693C152.495 31.6058 152.804 31.4707 152.994 31.2642C153.2 31.0577 153.303 30.8035 153.303 30.5017L153.351 16.2755C153.161 15.9101 152.979 15.6559 152.804 15.5129C152.646 15.3699 152.376 15.2746 151.996 15.227V15.1078H155.015L163.501 30.5493L163.548 16.3946C163.548 16.0928 163.445 15.8386 163.239 15.6321C163.049 15.4255 162.74 15.2905 162.312 15.227V15.1078L164.998 15.084V15.1793Z" fill="white"/>
<path id="Vector_8" d="M142.833 30.8111C143.039 31.0494 143.38 31.24 143.855 31.383C144.331 31.5101 144.878 31.5736 145.496 31.5736C146.763 31.5736 147.968 31.3274 149.109 30.8349C150.265 30.3424 150.994 29.6514 151.295 28.7617H151.509L150.654 31.8119H139.672V31.6928C140.147 31.661 140.448 31.5657 140.575 31.4068C140.702 31.2321 140.765 31.0494 140.765 30.8587V16.0606C140.765 15.8541 140.702 15.6714 140.575 15.5125C140.448 15.3537 140.147 15.2583 139.672 15.2266V15.1074H150.654L151.509 18.1576H151.295C151.042 17.2521 150.345 16.5531 149.204 16.0606C148.079 15.5681 146.874 15.3219 145.591 15.3219C144.957 15.3219 144.394 15.3934 143.903 15.5364C143.412 15.6634 143.055 15.8541 142.833 16.1083V23.1141H148.205C148.395 23.1141 148.53 22.9473 148.609 22.6137C148.704 22.2642 148.752 21.9703 148.752 21.732H148.918V24.6154H148.752C148.752 24.3771 148.704 24.107 148.609 23.8052C148.53 23.5034 148.395 23.3524 148.205 23.3524H142.833V30.8111Z" fill="white"/>
<path id="Vector_9" d="M130.787 15.084C132.561 15.084 134.083 15.4891 135.351 16.2993C136.618 17.0936 137.569 18.1342 138.203 19.421C138.853 20.6919 139.177 22.0501 139.177 23.4958C139.177 24.9415 138.853 26.2997 138.203 27.5706C137.569 28.8416 136.61 29.8662 135.327 30.6447C134.059 31.4231 132.522 31.8123 130.715 31.8123H128.79H124.535V31.6932C125.011 31.6614 125.312 31.5661 125.438 31.4072C125.565 31.2325 125.629 31.0498 125.629 30.8591V16.061C125.629 15.8545 125.565 15.6718 125.438 15.5129C125.312 15.3541 125.011 15.2587 124.535 15.227V15.1078H127.934H128.79L130.787 15.084ZM130.692 31.574C132.102 31.574 133.298 31.2086 134.281 30.4778C135.263 29.7312 136 28.7542 136.491 27.5468C136.983 26.3395 137.228 25.0447 137.228 23.6626C137.228 22.2487 136.975 20.9063 136.468 19.6354C135.976 18.3645 135.24 17.3319 134.257 16.5376C133.29 15.7433 132.134 15.3382 130.787 15.3223C129.313 15.3223 128.299 15.4653 127.744 15.7512C127.712 15.8306 127.697 15.9339 127.697 16.061V30.8591C127.697 30.9544 127.704 31.0418 127.72 31.1212C128.069 31.296 128.544 31.4151 129.147 31.4787C129.765 31.5422 130.28 31.574 130.692 31.574ZM127.364 30.7876C127.364 30.7876 127.364 30.7956 127.364 30.8115C127.38 30.8115 127.388 30.8115 127.388 30.8115L127.364 30.7876Z" fill="white"/>
<path id="Vector_10" d="M124.537 28.7617L123.682 31.8119H112.652V31.6928C113.128 31.661 113.429 31.5657 113.556 31.4068C113.682 31.2321 113.746 31.0494 113.746 30.8587V16.0606C113.746 15.8541 113.682 15.6714 113.556 15.5125C113.429 15.3537 113.128 15.2583 112.652 15.2266V15.1074H116.907V15.2266C116.432 15.2583 116.131 15.3537 116.004 15.5125C115.877 15.6714 115.814 15.8541 115.814 16.0606V30.7396C116.004 31.0097 116.345 31.2162 116.836 31.3591C117.327 31.5021 117.898 31.5736 118.547 31.5736C119.34 31.5736 120.148 31.4704 120.972 31.2638C121.796 31.0414 122.509 30.7158 123.111 30.2868C123.729 29.8579 124.133 29.3495 124.323 28.7617H124.537Z" fill="white"/>
<path id="Vector_11" d="M103.486 30.8111C103.692 31.0494 104.032 31.24 104.508 31.383C104.983 31.5101 105.53 31.5736 106.148 31.5736C107.416 31.5736 108.62 31.3274 109.761 30.8349C110.918 30.3424 111.647 29.6514 111.948 28.7617H112.162L111.306 31.8119H100.324V31.6928C100.8 31.661 101.101 31.5657 101.227 31.4068C101.354 31.2321 101.418 31.0494 101.418 30.8587V16.0606C101.418 15.8541 101.354 15.6714 101.227 15.5125C101.101 15.3537 100.8 15.2583 100.324 15.2266V15.1074H111.306L112.162 18.1576H111.948C111.694 17.2521 110.997 16.5531 109.856 16.0606C108.731 15.5681 107.527 15.3219 106.243 15.3219C105.609 15.3219 105.047 15.3934 104.555 15.5364C104.064 15.6634 103.707 15.8541 103.486 16.1083V23.1141H108.858C109.048 23.1141 109.183 22.9473 109.262 22.6137C109.357 22.2642 109.404 21.9703 109.404 21.732H109.571V24.6154H109.404C109.404 24.3771 109.357 24.107 109.262 23.8052C109.183 23.5034 109.048 23.3524 108.858 23.3524H103.486V30.8111Z" fill="white"/>
<path id="Vector_12" d="M99.837 15.1074V15.2266C99.0605 15.3219 98.5534 15.7111 98.3157 16.3942L93.3002 31.3115L93.4904 31.7881H91.4699L85.0045 16.5134C84.7034 15.7826 84.0378 15.3537 83.0078 15.2266V15.1074H87.9044V15.2027C87.6033 15.2663 87.3656 15.3854 87.1913 15.5602C87.0329 15.7349 86.9536 15.9256 86.9536 16.1321C86.9536 16.2433 86.9774 16.3466 87.0249 16.4419L93.1101 30.9064L98.0542 16.2989C98.0859 16.2036 98.1018 16.1321 98.1018 16.0844C98.1018 15.8779 97.9988 15.6952 97.7927 15.5364C97.6026 15.3775 97.349 15.2663 97.0321 15.2027V15.1074H99.837Z" fill="white"/>
</g>
</g>
<g id="Das Erlebnis.">
<path id="Vector_13" d="M105.441 41.3821V40.6406H106.055V41.3821H105.441Z" fill="white"/>
<path id="Vector_14" d="M101.278 40.0168C101.357 40.3931 101.497 40.6599 101.699 40.8172C101.906 40.9689 102.201 41.0447 102.582 41.0447C102.767 41.0447 102.926 41.0222 103.061 40.9773C103.195 40.9324 103.305 40.8734 103.389 40.8004C103.478 40.7217 103.546 40.6347 103.591 40.5392C103.635 40.4437 103.658 40.3426 103.658 40.2359C103.658 40.0224 103.588 39.8651 103.448 39.764C103.313 39.6573 103.142 39.5759 102.935 39.5197C102.727 39.4579 102.503 39.4074 102.262 39.368C102.021 39.3231 101.797 39.2585 101.59 39.1743C101.382 39.09 101.208 38.9692 101.068 38.812C100.934 38.6547 100.867 38.4328 100.867 38.1464C100.867 37.7813 100.998 37.4836 101.262 37.2533C101.531 37.0174 101.909 36.8994 102.397 36.8994C102.868 36.8994 103.249 37.0061 103.54 37.2196C103.837 37.4274 104.017 37.7785 104.078 38.2727H103.565C103.521 37.9357 103.392 37.6998 103.179 37.565C102.971 37.4246 102.708 37.3544 102.388 37.3544C102.069 37.3544 101.825 37.4246 101.657 37.565C101.489 37.6998 101.405 37.8796 101.405 38.1042C101.405 38.3008 101.472 38.4525 101.606 38.5592C101.747 38.6603 101.92 38.7446 102.128 38.812C102.335 38.8738 102.559 38.9299 102.8 38.9805C103.041 39.031 103.265 39.104 103.473 39.1995C103.68 39.2894 103.851 39.413 103.986 39.5703C104.126 39.7275 104.196 39.9466 104.196 40.2274C104.196 40.4353 104.151 40.6206 104.061 40.7835C103.972 40.9408 103.848 41.0728 103.691 41.1795C103.535 41.2862 103.347 41.3649 103.128 41.4154C102.915 41.4716 102.68 41.4997 102.422 41.4997C102.164 41.4997 101.934 41.4603 101.733 41.3817C101.536 41.3087 101.368 41.2048 101.228 41.07C101.088 40.9352 100.979 40.7779 100.9 40.5981C100.822 40.4184 100.777 40.2246 100.766 40.0168H101.278Z" fill="white"/>
<path id="Vector_15" d="M99.1971 41.3817V37.0174H99.7016V41.3817H99.1971ZM99.1719 36.0653V35.3154H99.7268V36.0653H99.1719Z" fill="white"/>
<path id="Vector_16" d="M95.1021 41.3817H94.5977V37.0174H95.1021V37.624C95.3039 37.4106 95.5113 37.2364 95.7243 37.1016C95.9429 36.9668 96.2035 36.8994 96.5062 36.8994C96.7752 36.8994 97.0247 36.9472 97.2545 37.0426C97.4843 37.1325 97.6777 37.2926 97.8346 37.5229C97.9411 37.6802 98.0028 37.8431 98.0196 38.0116C98.042 38.1745 98.0532 38.3458 98.0532 38.5255V41.3817H97.5487V38.5339C97.5487 38.1407 97.4619 37.8459 97.2881 37.6493C97.1143 37.4527 96.8257 37.3544 96.4221 37.3544C96.2652 37.3544 96.1222 37.3797 95.9933 37.4302C95.8644 37.4751 95.7467 37.5369 95.6402 37.6156C95.5393 37.6942 95.4524 37.7841 95.3796 37.8852C95.3067 37.9863 95.2506 38.093 95.2114 38.2053C95.161 38.3458 95.1301 38.4806 95.1189 38.6098C95.1077 38.7389 95.1021 38.8794 95.1021 39.031V41.3817Z" fill="white"/>
<path id="Vector_17" d="M90.0201 39.1827C90.0201 39.4467 90.0509 39.6938 90.1126 39.9241C90.1798 40.1488 90.2751 40.3454 90.3984 40.5139C90.5217 40.6768 90.6759 40.806 90.8608 40.9014C91.0458 40.9969 91.256 41.0447 91.4914 41.0447C91.7044 41.0447 91.9006 41.0082 92.08 40.9351C92.2593 40.8565 92.4163 40.7442 92.5508 40.5981C92.6853 40.4521 92.789 40.2752 92.8619 40.0673C92.9403 39.8539 92.9796 39.6096 92.9796 39.3343C92.9908 39.0591 92.9684 38.8035 92.9123 38.5676C92.8563 38.3261 92.7666 38.1155 92.6433 37.9357C92.52 37.756 92.3602 37.6156 92.164 37.5144C91.9735 37.4077 91.7493 37.3544 91.4914 37.3544C91.2616 37.3544 91.0542 37.4049 90.8693 37.506C90.6899 37.6015 90.5358 37.7335 90.4068 37.902C90.2835 38.0649 90.1882 38.2587 90.121 38.4834C90.0537 38.7024 90.0201 38.9355 90.0201 39.1827ZM90.0201 41.3817H89.5156V35.3154H90.0201V37.7167C90.1826 37.447 90.404 37.2448 90.6843 37.11C90.9701 36.9696 91.2672 36.8994 91.5755 36.8994C91.9062 36.8994 92.1921 36.964 92.4331 37.0932C92.6797 37.2168 92.8815 37.3853 93.0384 37.5987C93.201 37.8065 93.3215 38.0509 93.4 38.3317C93.4784 38.6126 93.5177 38.9046 93.5177 39.2079C93.5177 39.5281 93.4812 39.8286 93.4084 40.1095C93.3355 40.3903 93.2178 40.6346 93.0552 40.8425C92.8983 41.0447 92.6965 41.2048 92.4499 41.3227C92.2033 41.4407 91.9034 41.4996 91.5503 41.4996C91.4101 41.4996 91.2672 41.48 91.1215 41.4407C90.9758 41.4013 90.8328 41.3452 90.6927 41.2722C90.5582 41.1991 90.4321 41.1093 90.3143 41.0025C90.2022 40.8902 90.1098 40.761 90.0369 40.615H90.0201V41.3817Z" fill="white"/>
<path id="Vector_18" d="M87.9385 38.8962C87.9385 38.6828 87.9076 38.4834 87.846 38.298C87.7899 38.107 87.7031 37.9442 87.5853 37.8094C87.4732 37.6689 87.3303 37.5594 87.1566 37.4808C86.9828 37.3965 86.7838 37.3544 86.5596 37.3544C86.3354 37.3544 86.1364 37.3965 85.9627 37.4808C85.7945 37.565 85.6488 37.6774 85.5255 37.8178C85.4078 37.9582 85.3125 38.1211 85.2396 38.3064C85.1667 38.4918 85.1191 38.6884 85.0967 38.8962H87.9385ZM85.0967 39.3175C85.0967 39.5534 85.1275 39.7781 85.1892 39.9915C85.2508 40.1993 85.3405 40.3819 85.4582 40.5392C85.5815 40.6908 85.7357 40.8144 85.9206 40.9099C86.1056 40.9998 86.3186 41.0447 86.5596 41.0447C86.8903 41.0447 87.1734 40.9576 87.4088 40.7835C87.6442 40.6094 87.8011 40.3622 87.8796 40.0421H88.4429C88.3813 40.2499 88.3 40.4437 88.1991 40.6234C88.0982 40.7975 87.9721 40.952 87.8208 41.0868C87.6694 41.216 87.4901 41.3171 87.2827 41.3901C87.0753 41.4631 86.8343 41.4997 86.5596 41.4997C86.2121 41.4997 85.9122 41.4407 85.66 41.3227C85.4078 41.2048 85.2004 41.0447 85.0378 40.8425C84.8753 40.6347 84.7548 40.3931 84.6763 40.1179C84.5978 39.8371 84.5586 39.5366 84.5586 39.2164C84.5586 38.8962 84.6034 38.5957 84.6931 38.3149C84.7884 38.034 84.9201 37.7897 85.0883 37.5819C85.262 37.3684 85.4722 37.2027 85.7188 37.0848C85.9655 36.9612 86.2457 36.8994 86.5596 36.8994C87.1594 36.8994 87.6302 37.1072 87.9721 37.5229C88.314 37.9329 88.4822 38.5311 88.4766 39.3175H85.0967Z" fill="white"/>
<path id="Vector_19" d="M82.9961 41.3817V35.3154H83.5006V41.3817H82.9961Z" fill="white"/>
<path id="Vector_20" d="M80.649 41.3817H80.1445V37.0174H80.649V37.8346H80.6658C80.8059 37.4864 80.9853 37.2449 81.2039 37.11C81.4281 36.9696 81.7224 36.8994 82.0867 36.8994V37.4471C81.8008 37.4414 81.5654 37.4864 81.3805 37.5819C81.1955 37.6774 81.047 37.8065 80.9348 37.9694C80.8284 38.1323 80.7527 38.3261 80.7078 38.5508C80.6686 38.7698 80.649 39.0001 80.649 39.2417V41.3817Z" fill="white"/>
<path id="Vector_21" d="M75.0547 41.3817V35.3154H79.0819V35.8041H75.6264V37.9947H78.7456V38.4834H75.6264V40.893H79.166V41.3817H75.0547Z" fill="white"/>
<path id="Vector_22" d="M68.7316 40.0168C68.8101 40.3931 68.9502 40.6599 69.152 40.8172C69.3594 40.9689 69.6537 41.0447 70.0348 41.0447C70.2198 41.0447 70.3795 41.0222 70.514 40.9773C70.6486 40.9324 70.7579 40.8734 70.8419 40.8004C70.9316 40.7217 70.9989 40.6347 71.0437 40.5392C71.0886 40.4437 71.111 40.3426 71.111 40.2359C71.111 40.0224 71.0409 39.8651 70.9008 39.764C70.7663 39.6573 70.5953 39.5759 70.3879 39.5197C70.1805 39.4579 69.9563 39.4074 69.7153 39.368C69.4743 39.3231 69.2501 39.2585 69.0427 39.1743C68.8353 39.09 68.6616 38.9692 68.5214 38.812C68.3869 38.6547 68.3196 38.4328 68.3196 38.1464C68.3196 37.7813 68.4514 37.4836 68.7148 37.2533C68.9838 37.0174 69.3622 36.8994 69.8498 36.8994C70.3207 36.8994 70.7018 37.0061 70.9933 37.2196C71.2903 37.4274 71.4697 37.7785 71.5314 38.2727H71.0185C70.9737 37.9357 70.8447 37.6998 70.6317 37.565C70.4244 37.4246 70.1609 37.3544 69.8414 37.3544C69.5219 37.3544 69.2781 37.4246 69.11 37.565C68.9418 37.6998 68.8577 37.8796 68.8577 38.1042C68.8577 38.3008 68.925 38.4525 69.0595 38.5592C69.1996 38.6603 69.3734 38.7446 69.5808 38.812C69.7882 38.8738 70.0124 38.9299 70.2534 38.9805C70.4944 39.031 70.7186 39.104 70.926 39.1995C71.1334 39.2894 71.3044 39.413 71.4389 39.5703C71.579 39.7275 71.6491 39.9466 71.6491 40.2274C71.6491 40.4353 71.6042 40.6206 71.5145 40.7835C71.4249 40.9408 71.3016 41.0728 71.1446 41.1795C70.9877 41.2862 70.7999 41.3649 70.5813 41.4154C70.3683 41.4716 70.1329 41.4997 69.8751 41.4997C69.6172 41.4997 69.3874 41.4603 69.1856 41.3817C68.9895 41.3087 68.8213 41.2048 68.6812 41.07C68.541 40.9352 68.4317 40.7779 68.3533 40.5981C68.2748 40.4184 68.23 40.2246 68.2188 40.0168H68.7316Z" fill="white"/>
<path id="Vector_23" d="M66.6157 39.09C66.4027 39.1799 66.1869 39.2389 65.9683 39.2669C65.7497 39.295 65.5311 39.3175 65.3125 39.3343C64.9257 39.3624 64.6231 39.4495 64.4045 39.5955C64.1915 39.7416 64.085 39.9634 64.085 40.2611C64.085 40.3959 64.1102 40.5139 64.1606 40.615C64.2167 40.7105 64.2867 40.7919 64.3708 40.8593C64.4605 40.9211 64.5614 40.9689 64.6735 41.0026C64.7912 41.0306 64.9089 41.0447 65.0266 41.0447C65.2284 41.0447 65.4246 41.0194 65.6152 40.9689C65.8057 40.9183 65.9739 40.8425 66.1196 40.7414C66.271 40.6347 66.3915 40.5027 66.4811 40.3454C66.5708 40.1825 66.6157 39.9915 66.6157 39.7725V39.09ZM65.7665 38.8372C65.8618 38.826 65.9739 38.8092 66.1028 38.7867C66.2373 38.7642 66.3466 38.7333 66.4307 38.694C66.5148 38.6547 66.5652 38.5901 66.582 38.5002C66.6045 38.4047 66.6157 38.3177 66.6157 38.239C66.6157 37.9807 66.5316 37.77 66.3634 37.6071C66.2009 37.4386 65.9234 37.3544 65.5311 37.3544C65.3573 37.3544 65.1976 37.3712 65.0518 37.4049C64.9061 37.433 64.7772 37.4864 64.6651 37.565C64.5586 37.638 64.4689 37.7391 64.396 37.8683C64.3288 37.9919 64.2839 38.1492 64.2615 38.3401H63.7487C63.7655 38.0818 63.8243 37.8627 63.9252 37.683C64.0261 37.4976 64.155 37.3488 64.312 37.2364C64.4745 37.1185 64.6595 37.0342 64.8669 36.9837C65.0799 36.9275 65.3041 36.8994 65.5395 36.8994C65.7581 36.8994 65.9627 36.9247 66.1532 36.9752C66.3494 37.0202 66.5176 37.096 66.6577 37.2027C66.8034 37.3038 66.9155 37.4414 66.994 37.6156C67.0781 37.7897 67.1201 38.0031 67.1201 38.2559V40.6318C67.1201 40.8284 67.1538 40.9548 67.221 41.011C67.2939 41.0615 67.4368 41.0475 67.6498 40.9689V41.3649C67.6106 41.3761 67.5517 41.3929 67.4732 41.4154C67.4004 41.4379 67.3275 41.4491 67.2546 41.4491C67.1762 41.4491 67.1005 41.4407 67.0276 41.4238C66.9436 41.4126 66.8763 41.3873 66.8259 41.348C66.7754 41.3031 66.7334 41.2525 66.6997 41.1963C66.6717 41.1346 66.6521 41.07 66.6409 41.0026C66.6297 40.9295 66.6241 40.8537 66.6241 40.7751C66.4111 41.011 66.1673 41.1907 65.8926 41.3143C65.618 41.4379 65.3209 41.4997 65.0014 41.4997C64.8108 41.4997 64.6259 41.4744 64.4465 41.4238C64.2727 41.3733 64.1186 41.2946 63.9841 41.1879C63.8496 41.0812 63.7431 40.952 63.6646 40.8004C63.5861 40.6431 63.5469 40.4577 63.5469 40.2443C63.5469 39.5028 64.0541 39.0647 65.0687 38.9299L65.7665 38.8372Z" fill="white"/>
<path id="Vector_24" d="M57.7734 41.3817V35.3154H59.8417C60.0099 35.3154 60.1752 35.321 60.3378 35.3323C60.5003 35.3379 60.6601 35.3576 60.817 35.3913C60.9739 35.4193 61.1253 35.4643 61.271 35.5261C61.4224 35.5878 61.5681 35.6693 61.7082 35.7704C61.91 35.9164 62.0753 36.0962 62.2043 36.3096C62.3332 36.5174 62.4341 36.7393 62.5069 36.9752C62.5854 37.2055 62.6387 37.4414 62.6667 37.683C62.7003 37.9189 62.7171 38.1379 62.7171 38.3401C62.7171 38.5423 62.7031 38.7474 62.6751 38.9552C62.6527 39.163 62.6134 39.368 62.5574 39.5702C62.5013 39.7668 62.4257 39.9578 62.3304 40.1432C62.2407 40.3229 62.1258 40.4886 61.9857 40.6403C61.8455 40.7975 61.6914 40.9239 61.5232 41.0194C61.3607 41.1149 61.1869 41.1907 61.002 41.2469C60.8226 41.2974 60.6348 41.3339 60.4387 41.3564C60.2425 41.3733 60.0435 41.3817 59.8417 41.3817H57.7734ZM58.3452 40.893H59.7156C59.9734 40.893 60.2145 40.879 60.4387 40.8509C60.6685 40.8172 60.9011 40.7385 61.1365 40.615C61.3383 40.5139 61.5036 40.3763 61.6325 40.2021C61.7615 40.028 61.8624 39.8398 61.9352 39.6376C62.0137 39.4298 62.0669 39.2136 62.095 38.9889C62.1286 38.7642 62.1454 38.548 62.1454 38.3401C62.1454 38.1211 62.1314 37.8992 62.1034 37.6745C62.0753 37.4442 62.0221 37.228 61.9436 37.0258C61.8652 36.818 61.7587 36.6298 61.6241 36.4613C61.4896 36.2872 61.3159 36.1439 61.1029 36.0316C60.9235 35.9361 60.7105 35.8743 60.4639 35.8462C60.2173 35.8181 59.9678 35.8041 59.7156 35.8041H58.3452V40.893Z" fill="white"/>
</g>
<path id="Ellipse 14" d="M90.3657 5.93734C90.7731 7.86872 86.9387 10.3174 81.8012 11.4067C76.6637 12.4959 72.1686 11.8132 71.7612 9.88184C71.3537 7.95046 75.1882 5.50176 80.3257 4.41252C85.4632 3.32327 89.9582 4.00596 90.3657 5.93734ZM73.9086 9.42654C74.222 10.9121 77.6794 11.4371 81.6309 10.5994C85.5823 9.76157 88.5316 7.87816 88.2182 6.39264C87.9048 4.90712 84.4475 4.38204 80.496 5.21983C76.5445 6.05761 73.5952 7.94102 73.9086 9.42654Z" fill="#E60000"/>
<ellipse id="Ellipse 11" cx="2.72115" cy="2.71715" rx="2.72115" ry="2.71715" transform="matrix(0.45218 0.891927 -0.891011 0.453981 87.293 0.5)" fill="white"/>
</g>
</svg>
