<svg width="138" height="59" viewBox="0 0 138 59" fill="none" xmlns="http://www.w3.org/2000/svg">
<path d="M5.44111 31.3975C5.38554 31.3975 5.32998 31.4015 5.27442 31.4094C5.2268 31.4094 5.17123 31.4094 5.10773 31.4094V36.5291H5.27442C6.02848 36.5291 6.63966 36.4537 7.10797 36.3028C7.57627 36.152 7.93743 35.9536 8.19142 35.7075C8.45336 35.4535 8.62798 35.1638 8.71529 34.8384C8.81054 34.513 8.85817 34.1796 8.85817 33.8383C8.85817 33.4414 8.80261 33.0922 8.69148 32.7905C8.58036 32.4889 8.38986 32.2349 8.11999 32.0285C7.85805 31.8222 7.50881 31.6674 7.07225 31.5642C6.63569 31.4531 6.09197 31.3975 5.44111 31.3975ZM6.596 37.8387C6.23882 37.8387 5.9491 37.8546 5.72685 37.8864C5.51254 37.9181 5.30617 37.9538 5.10773 37.9935V43.8037C5.10773 43.8513 5.11964 43.9029 5.14345 43.9585C5.3657 44.0537 5.59589 44.1212 5.83401 44.1609C6.07213 44.1926 6.35391 44.2085 6.67934 44.2085C7.82233 44.2085 8.67164 43.9545 9.22726 43.4465C9.79082 42.9306 10.0726 42.2242 10.0726 41.3272C10.0726 40.8907 10.021 40.466 9.91781 40.0533C9.81463 39.6326 9.63207 39.2595 9.37013 38.9341C9.1082 38.6007 8.75101 38.3348 8.29858 38.1364C7.85408 37.938 7.28656 37.8387 6.596 37.8387ZM13.573 41.1606C13.573 41.8352 13.4301 42.4464 13.1444 42.9941C12.8586 43.5338 12.4419 43.9942 11.8942 44.3752C11.3466 44.7562 10.6758 45.0499 9.8821 45.2563C9.08835 45.4626 8.18746 45.5658 7.1794 45.5658C7.00478 45.5658 6.78253 45.5619 6.51266 45.5539C6.25072 45.5539 5.96101 45.5499 5.64351 45.542C5.33395 45.5341 5.00455 45.5261 4.6553 45.5182C4.31399 45.5103 3.97665 45.4984 3.64328 45.4825C2.85747 45.4587 2.02801 45.4309 1.1549 45.3991H0.166686V44.4109C0.706431 44.2998 1.10727 44.1807 1.36921 44.0537C1.63908 43.9188 1.77401 43.7958 1.77401 43.6847V31.6356C1.46446 31.6674 1.17077 31.7031 0.892961 31.7428C0.623088 31.7745 0.380996 31.8103 0.166686 31.8499L0 30.7546C0.365122 30.6673 0.80168 30.5839 1.30968 30.5046C1.82561 30.4172 2.36535 30.3418 2.92891 30.2783C3.49247 30.2069 4.05999 30.1513 4.63149 30.1117C5.20298 30.064 5.73479 30.0402 6.22691 30.0402C7.17146 30.0402 8.0168 30.1156 8.76292 30.2664C9.50904 30.4093 10.1401 30.6196 10.656 30.8975C11.1719 31.1753 11.5648 31.5126 11.8347 31.9095C12.1125 32.3064 12.2514 32.7548 12.2514 33.2549C12.2514 34.1121 12.0133 34.8463 11.537 35.4575C11.0687 36.0687 10.3544 36.5132 9.39394 36.791C10.021 36.8862 10.5885 37.0648 11.0965 37.3268C11.6125 37.5887 12.053 37.9141 12.4181 38.3031C12.7832 38.6841 13.065 39.1206 13.2634 39.6128C13.4698 40.0969 13.573 40.6129 13.573 41.1606Z" fill="white"/>
<path d="M27.1936 41.5415C27.1619 41.8829 27.1222 42.2559 27.0746 42.6607C27.0349 43.0576 26.9912 43.4426 26.9436 43.8156C26.9039 44.1807 26.8602 44.5062 26.8126 44.7919C26.7729 45.0777 26.7372 45.2801 26.7055 45.3991H15.2399V44.4109C15.7796 44.2998 16.1804 44.1807 16.4424 44.0537C16.7122 43.9188 16.8472 43.7958 16.8472 43.6847V32.1238C16.8472 32.0285 16.7202 31.9095 16.4662 31.7666C16.2201 31.6237 15.8114 31.4967 15.2399 31.3856V30.3974H21.7882V31.3856C21.2485 31.4967 20.8437 31.6198 20.5738 31.7547C20.3119 31.8896 20.1809 32.0127 20.1809 32.1238V42.9703C20.1809 43.1132 20.2127 43.2402 20.2762 43.3513C20.3476 43.4545 20.4667 43.5457 20.6333 43.6251C20.8 43.6966 21.0262 43.7521 21.312 43.7918C21.5977 43.8315 21.9589 43.8513 22.3954 43.8513H23.6218C23.9869 43.8513 24.2925 43.8037 24.5386 43.7085C24.7925 43.6053 25.0148 43.4465 25.2053 43.2322C25.3958 43.0179 25.5664 42.7441 25.7173 42.4107C25.876 42.0773 26.0387 41.6765 26.2054 41.2082L27.1936 41.5415Z" fill="white"/>
<path d="M36.3018 38.7912L34.3849 33.4573L32.6824 38.7912H36.3018ZM32.1704 40.339L31.0869 43.6013C31.0076 43.8474 31.0988 44.026 31.3608 44.1371C31.6306 44.2482 32.091 44.3395 32.7419 44.4109V45.3991H27.4556V44.4109C27.9953 44.3157 28.4041 44.2165 28.6819 44.1133C28.9597 44.0101 29.1383 43.8394 29.2177 43.6013L33.2896 31.1475C33.5039 30.9649 33.738 30.8022 33.992 30.6593C34.254 30.5085 34.5199 30.3736 34.7897 30.2545C35.0596 30.1355 35.3255 30.0323 35.5875 29.945C35.8573 29.8577 36.1113 29.7822 36.3494 29.7188L41.35 43.6013C41.3897 43.7124 41.4373 43.8117 41.4929 43.899C41.5564 43.9863 41.6397 44.0617 41.7429 44.1252C41.8541 44.1887 41.993 44.2442 42.1596 44.2919C42.3263 44.3395 42.5367 44.3792 42.7907 44.4109V45.3991H36.5757V44.4109C37.1868 44.3792 37.5996 44.3038 37.8139 44.1847C38.0362 44.0577 38.1036 43.8632 38.0163 43.6013L36.8495 40.339H32.1704Z" fill="white"/>
<path d="M56.0065 42.8869C54.9905 43.9109 53.9824 44.6451 52.9823 45.0896C51.9901 45.5341 51.0257 45.7563 50.0891 45.7563C49.2636 45.7563 48.462 45.5896 47.6841 45.2563C46.9142 44.9229 46.2276 44.4427 45.6243 43.8156C45.029 43.1886 44.5488 42.4226 44.1837 41.5177C43.8265 40.6049 43.6479 39.5731 43.6479 38.4221C43.6479 37.1521 43.8424 36.0012 44.2313 34.9694C44.6282 33.9375 45.1679 33.0564 45.8505 32.3262C46.5411 31.588 47.3547 31.0205 48.2913 30.6236C49.2279 30.2267 50.2439 30.0323 51.3393 30.0402C51.7679 30.0402 52.2005 30.072 52.637 30.1355C53.0736 30.199 53.4903 30.2863 53.8872 30.3974C54.2841 30.5006 54.6452 30.6236 54.9706 30.7665C55.304 30.9094 55.5739 31.0641 55.7803 31.2308C55.812 31.2546 55.808 31.334 55.7684 31.469C55.7366 31.6039 55.681 31.7706 55.6017 31.969C55.5223 32.1595 55.431 32.3699 55.3278 32.6C55.2246 32.8223 55.1175 33.0366 55.0064 33.243C54.9032 33.4493 54.804 33.6319 54.7087 33.7906C54.6135 33.9494 54.5341 34.0605 54.4706 34.124L53.5776 33.9335C53.1808 33.1318 52.7244 32.5603 52.2084 32.219C51.7004 31.8698 51.1567 31.6991 50.5773 31.7071C50.1725 31.7071 49.7597 31.8023 49.339 31.9928C48.9184 32.1833 48.5374 32.5167 48.1961 32.9929C47.8547 33.4692 47.5769 34.1121 47.3626 34.9217C47.1483 35.7234 47.0412 36.7434 47.0412 37.9816C47.0412 38.9817 47.1682 39.839 47.4222 40.5533C47.6762 41.2598 48.0056 41.8392 48.4104 42.2916C48.8152 42.7441 49.2716 43.0774 49.7796 43.2917C50.2876 43.5061 50.7956 43.6132 51.3036 43.6132C51.5179 43.6132 51.7719 43.5934 52.0656 43.5537C52.3592 43.5061 52.6767 43.4227 53.018 43.3037C53.3673 43.1846 53.7364 43.0219 54.1253 42.8155C54.5222 42.6012 54.923 42.3274 55.3278 41.994C55.3675 42.0257 55.4191 42.0853 55.4826 42.1726C55.554 42.2599 55.6215 42.3551 55.685 42.4583C55.7565 42.5536 55.82 42.6448 55.8755 42.7322C55.939 42.8115 55.9827 42.8631 56.0065 42.8869Z" fill="white"/>
<path d="M57.3162 45.3991V44.4109C57.8559 44.2998 58.2567 44.1807 58.5187 44.0537C58.7885 43.9188 58.9235 43.7958 58.9235 43.6847V32.1238C58.9235 32.0285 58.7965 31.9095 58.5425 31.7666C58.2964 31.6237 57.8876 31.4967 57.3162 31.3856V30.3974H63.8645V31.3856C63.3248 31.4967 62.92 31.6198 62.6501 31.7547C62.3882 31.8896 62.2572 32.0127 62.2572 32.1238V37.4935L66.5315 32.4453C66.7141 32.2309 66.845 32.0603 66.9244 31.9333C67.0117 31.8063 67.0395 31.7071 67.0078 31.6356C66.976 31.5642 66.8768 31.5126 66.7101 31.4809C66.5514 31.4412 66.3172 31.4094 66.0076 31.3856V30.3974H71.4845V31.3856C71.2305 31.4174 71.0162 31.4491 70.8415 31.4809C70.6748 31.5126 70.524 31.5563 70.3891 31.6118C70.2621 31.6595 70.147 31.7269 70.0438 31.8142C69.9406 31.8936 69.8255 31.9968 69.6985 32.1238L64.6265 37.3387L70.3534 43.2917C70.4804 43.4267 70.6074 43.5299 70.7344 43.6013C70.8614 43.6648 70.9963 43.7124 71.1392 43.7442C71.2821 43.7759 71.4368 43.7878 71.6035 43.7799C71.7702 43.772 71.9567 43.7561 72.1631 43.7323L72.2465 44.7205C72.0163 44.7919 71.7504 44.8792 71.4487 44.9824C71.1471 45.0777 70.8415 45.169 70.532 45.2563C70.2303 45.3436 69.9406 45.415 69.6628 45.4706C69.385 45.5341 69.1509 45.5658 68.9604 45.5658C68.7302 45.5658 68.5238 45.5301 68.3412 45.4587C68.1666 45.3872 67.9999 45.2523 67.8412 45.0539L62.2572 38.0173V43.6847C62.2572 43.7799 62.3802 43.899 62.6263 44.0418C62.8724 44.1768 63.2851 44.2998 63.8645 44.4109V45.3991H57.3162Z" fill="white"/>
<path d="M84.3074 31.3975C84.2518 31.3975 84.1963 31.4015 84.1407 31.4094C84.0931 31.4094 84.0375 31.4094 83.974 31.4094V36.5291H84.1407C84.8948 36.5291 85.5059 36.4537 85.9742 36.3028C86.4426 36.152 86.8037 35.9536 87.0577 35.7075C87.3196 35.4535 87.4943 35.1638 87.5816 34.8384C87.6768 34.513 87.7244 34.1796 87.7244 33.8383C87.7244 33.4414 87.6689 33.0922 87.5578 32.7905C87.4466 32.4889 87.2561 32.2349 86.9863 32.0285C86.7243 31.8222 86.3751 31.6674 85.9385 31.5642C85.502 31.4531 84.9583 31.3975 84.3074 31.3975ZM85.4623 37.8387C85.1051 37.8387 84.8154 37.8546 84.5931 37.8864C84.3788 37.9181 84.1724 37.9538 83.974 37.9935V43.8037C83.974 43.8513 83.9859 43.9029 84.0097 43.9585C84.232 44.0537 84.4622 44.1212 84.7003 44.1609C84.9384 44.1926 85.2202 44.2085 85.5456 44.2085C86.6886 44.2085 87.5379 43.9545 88.0935 43.4465C88.6571 42.9306 88.9389 42.2242 88.9389 41.3272C88.9389 40.8907 88.8873 40.466 88.7841 40.0533C88.6809 39.6326 88.4983 39.2595 88.2364 38.9341C87.9745 38.6007 87.6173 38.3348 87.1649 38.1364C86.7204 37.938 86.1528 37.8387 85.4623 37.8387ZM92.4393 41.1606C92.4393 41.8352 92.2964 42.4464 92.0107 42.9941C91.7249 43.5338 91.3082 43.9942 90.7605 44.3752C90.2128 44.7562 89.5421 45.0499 88.7484 45.2563C87.9546 45.4626 87.0537 45.5658 86.0457 45.5658C85.871 45.5658 85.6488 45.5619 85.3789 45.5539C85.117 45.5539 84.8273 45.5499 84.5098 45.542C84.2002 45.5341 83.8708 45.5261 83.5216 45.5182C83.1803 45.5103 82.8429 45.4984 82.5096 45.4825C81.7237 45.4587 80.8943 45.4309 80.0212 45.3991H79.033V44.4109C79.5727 44.2998 79.9735 44.1807 80.2355 44.0537C80.5054 43.9188 80.6403 43.7958 80.6403 43.6847V31.6356C80.3307 31.6674 80.037 31.7031 79.7592 31.7428C79.4894 31.7745 79.2473 31.8103 79.033 31.8499L78.8663 30.7546C79.2314 30.6673 79.668 30.5839 80.1759 30.5046C80.6919 30.4172 81.2316 30.3418 81.7952 30.2783C82.3587 30.2069 82.9263 30.1513 83.4978 30.1117C84.0693 30.064 84.6011 30.0402 85.0932 30.0402C86.0377 30.0402 86.8831 30.1156 87.6292 30.2664C88.3753 30.4093 89.0063 30.6196 89.5223 30.8975C90.0382 31.1753 90.4311 31.5126 90.701 31.9095C90.9788 32.3064 91.1177 32.7548 91.1177 33.2549C91.1177 34.1121 90.8796 34.8463 90.4033 35.4575C89.935 36.0687 89.2206 36.5132 88.2602 36.791C88.8873 36.8862 89.4548 37.0648 89.9628 37.3268C90.4787 37.5887 90.9193 37.9141 91.2844 38.3031C91.6495 38.6841 91.9313 39.1206 92.1297 39.6128C92.3361 40.0969 92.4393 40.6129 92.4393 41.1606Z" fill="white"/>
<path d="M106.179 41.5415C106.147 41.8829 106.111 42.2559 106.072 42.6607C106.032 43.0576 105.988 43.4426 105.941 43.8156C105.893 44.1807 105.846 44.5062 105.798 44.7919C105.758 45.0777 105.723 45.2801 105.691 45.3991H94.1061V44.4109C94.6459 44.2998 95.0467 44.1807 95.3087 44.0537C95.5785 43.9188 95.7135 43.7958 95.7135 43.6847V32.1238C95.7135 32.0285 95.5865 31.9095 95.3325 31.7666C95.0864 31.6237 94.6776 31.4967 94.1061 31.3856V30.3974H104.893L105.405 30.8141C105.389 31.0205 105.365 31.2904 105.334 31.6237C105.302 31.9571 105.262 32.2984 105.215 32.6477C105.167 32.9969 105.115 33.3263 105.06 33.6359C105.012 33.9454 104.965 34.1756 104.917 34.3264H103.905C103.865 33.5882 103.766 33.0088 103.607 32.5881C103.448 32.1595 103.222 31.9452 102.929 31.9452H99.0472V36.6481H103.75L104.179 37.1006C104.115 37.2117 104.036 37.3426 103.941 37.4935C103.853 37.6443 103.758 37.7991 103.655 37.9578C103.56 38.1086 103.46 38.2475 103.357 38.3745C103.262 38.5015 103.171 38.5968 103.083 38.6603C102.964 38.5412 102.833 38.442 102.69 38.3626C102.556 38.2832 102.397 38.2158 102.214 38.1602C102.04 38.1046 101.829 38.065 101.583 38.0411C101.345 38.0173 101.059 38.0054 100.726 38.0054H99.0472V43.0893C99.0472 43.2084 99.075 43.3156 99.1305 43.4108C99.1861 43.4981 99.3012 43.5775 99.4758 43.6489C99.6504 43.7124 99.8965 43.764 100.214 43.8037C100.531 43.8355 100.952 43.8513 101.476 43.8513H102.536C102.901 43.8513 103.21 43.8037 103.464 43.7085C103.726 43.6053 103.956 43.4465 104.155 43.2322C104.353 43.0179 104.532 42.7441 104.691 42.4107C104.857 42.0773 105.024 41.6765 105.191 41.2082L106.179 41.5415Z" fill="white"/>
<path d="M115.525 38.7912L113.608 33.4573L111.906 38.7912H115.525ZM111.394 40.339L110.31 43.6013C110.231 43.8474 110.322 44.026 110.584 44.1371C110.854 44.2482 111.314 44.3395 111.965 44.4109V45.3991H106.679V44.4109C107.219 44.3157 107.628 44.2165 107.905 44.1133C108.183 44.0101 108.362 43.8394 108.441 43.6013L112.513 31.1475C112.727 30.9649 112.961 30.8022 113.215 30.6593C113.477 30.5085 113.743 30.3736 114.013 30.2545C114.283 30.1355 114.549 30.0323 114.811 29.945C115.081 29.8577 115.335 29.7822 115.573 29.7188L120.573 43.6013C120.613 43.7124 120.661 43.8117 120.716 43.899C120.78 43.9863 120.863 44.0617 120.966 44.1252C121.078 44.1887 121.216 44.2442 121.383 44.2919C121.55 44.3395 121.76 44.3792 122.014 44.4109V45.3991H115.799V44.4109C116.41 44.3792 116.823 44.3038 117.037 44.1847C117.26 44.0577 117.327 43.8632 117.24 43.6013L116.073 40.339H111.394Z" fill="white"/>
<path d="M122.752 45.3991V44.4109C123.292 44.2998 123.693 44.1807 123.955 44.0537C124.225 43.9188 124.36 43.7958 124.36 43.6847V31.7428L122.752 31.969L122.586 30.7546C123.451 30.572 124.411 30.4093 125.467 30.2664C126.523 30.1156 127.638 30.0402 128.813 30.0402C129.94 30.0402 130.896 30.1315 131.682 30.3141C132.468 30.4966 133.103 30.7506 133.587 31.076C134.079 31.4015 134.432 31.7864 134.647 32.2309C134.869 32.6675 134.98 33.1398 134.98 33.6478C134.98 34.1875 134.897 34.6876 134.73 35.1479C134.571 35.6004 134.345 36.0131 134.051 36.3862C133.765 36.7513 133.416 37.0767 133.003 37.3625C132.599 37.6403 132.15 37.8665 131.658 38.0411L135.468 43.0298C135.595 43.1965 135.71 43.3314 135.813 43.4346C135.924 43.5378 136.044 43.6172 136.171 43.6727C136.305 43.7204 136.46 43.7482 136.635 43.7561C136.817 43.764 137.044 43.7561 137.314 43.7323L137.504 44.7205C137.242 44.8078 136.933 44.903 136.575 45.0062C136.226 45.1015 135.877 45.1928 135.528 45.2801C135.186 45.3594 134.865 45.4269 134.563 45.4825C134.262 45.538 134.035 45.5658 133.885 45.5658C133.654 45.5658 133.428 45.5023 133.206 45.3753C132.992 45.2483 132.829 45.0935 132.718 44.911L129.36 38.4817C129.297 38.4896 129.229 38.4936 129.158 38.4936H128.955C128.749 38.4936 128.543 38.4856 128.336 38.4698C128.13 38.446 127.916 38.4102 127.693 38.3626V43.6847C127.693 43.7799 127.816 43.899 128.062 44.0418C128.309 44.1768 128.721 44.2998 129.301 44.4109V45.3991H122.752ZM128.253 31.3975C128.166 31.3975 128.074 31.4015 127.979 31.4094C127.892 31.4094 127.797 31.4094 127.693 31.4094V36.9339C127.908 36.9736 128.094 36.9974 128.253 37.0053C128.412 37.0132 128.578 37.0172 128.753 37.0172C129.261 37.0172 129.694 36.9497 130.051 36.8148C130.408 36.6719 130.698 36.4735 130.92 36.2195C131.15 35.9576 131.317 35.644 131.42 35.2789C131.531 34.9059 131.587 34.4852 131.587 34.0169C131.587 33.6756 131.539 33.3462 131.444 33.0287C131.356 32.7112 131.186 32.4333 130.932 32.1952C130.686 31.9492 130.344 31.7547 129.908 31.6118C129.479 31.469 128.928 31.3975 128.253 31.3975Z" fill="white"/>
<path d="M47.864 56.9789C47.326 57.521 46.7923 57.9097 46.2628 58.1451C45.7375 58.3804 45.2269 58.4981 44.7311 58.4981C44.294 58.4981 43.8696 58.4098 43.4577 58.2333C43.0501 58.0568 42.6866 57.8026 42.3672 57.4706C42.052 57.1386 41.7978 56.7331 41.6045 56.254C41.4153 55.7707 41.3208 55.2244 41.3208 54.615C41.3208 53.9427 41.4238 53.3333 41.6297 52.787C41.8398 52.2407 42.1256 51.7742 42.487 51.3876C42.8526 50.9968 43.2833 50.6963 43.7792 50.4862C44.2751 50.276 44.813 50.1731 45.3929 50.1773C45.6199 50.1773 45.8489 50.1941 46.08 50.2277C46.3112 50.2613 46.5318 50.3076 46.7419 50.3664C46.952 50.421 47.1432 50.4862 47.3155 50.5618C47.492 50.6375 47.6349 50.7194 47.7442 50.8077C47.761 50.8203 47.7589 50.8623 47.7379 50.9337C47.7211 51.0052 47.6917 51.0934 47.6496 51.1985C47.6076 51.2993 47.5593 51.4107 47.5047 51.5326C47.45 51.6502 47.3933 51.7637 47.3345 51.873C47.2798 51.9822 47.2273 52.0789 47.1769 52.1629C47.1264 52.247 47.0844 52.3058 47.0508 52.3394L46.578 52.2386C46.3679 51.8141 46.1263 51.5116 45.8531 51.3309C45.5841 51.1459 45.2963 51.0556 44.9895 51.0598C44.7752 51.0598 44.5567 51.1102 44.3339 51.2111C44.1112 51.3119 43.9095 51.4884 43.7288 51.7406C43.5481 51.9927 43.401 52.3331 43.2875 52.7618C43.1741 53.1862 43.1173 53.7262 43.1173 54.3818C43.1173 54.9113 43.1846 55.3652 43.319 55.7434C43.4535 56.1174 43.6279 56.4242 43.8422 56.6637C44.0566 56.9033 44.2982 57.0798 44.5672 57.1932C44.8361 57.3067 45.1051 57.3634 45.374 57.3634C45.4875 57.3634 45.622 57.3529 45.7775 57.3319C45.9329 57.3067 46.101 57.2626 46.2817 57.1995C46.4667 57.1365 46.6621 57.0503 46.868 56.9411C47.0781 56.8276 47.2903 56.6826 47.5047 56.5061C47.5257 56.5229 47.553 56.5545 47.5866 56.6007C47.6244 56.6469 47.6601 56.6973 47.6938 56.752C47.7316 56.8024 47.7652 56.8507 47.7946 56.897C47.8282 56.939 47.8514 56.9663 47.864 56.9789Z" fill="white"/>
<path d="M55.3126 54.8105L54.2977 51.9864L53.3963 54.8105H55.3126ZM53.1252 55.6299L52.5516 57.3571C52.5096 57.4874 52.5579 57.582 52.6966 57.6408C52.8395 57.6996 53.0832 57.7479 53.4278 57.7858V58.309H50.629V57.7858C50.9147 57.7353 51.1312 57.6828 51.2783 57.6282C51.4253 57.5735 51.5199 57.4832 51.5619 57.3571L53.7178 50.7635C53.8312 50.6669 53.9552 50.5807 54.0897 50.5051C54.2284 50.4252 54.3691 50.3538 54.512 50.2908C54.6549 50.2277 54.7957 50.1731 54.9344 50.1269C55.0772 50.0806 55.2117 50.0407 55.3378 50.0071L57.9853 57.3571C58.0063 57.416 58.0315 57.4685 58.061 57.5147C58.0946 57.5609 58.1387 57.6009 58.1933 57.6345C58.2522 57.6681 58.3257 57.6975 58.414 57.7227C58.5022 57.7479 58.6136 57.769 58.7481 57.7858V58.309H55.4576V57.7858C55.7811 57.769 55.9997 57.729 56.1131 57.666C56.2308 57.5988 56.2665 57.4958 56.2203 57.3571L55.6025 55.6299H53.1252Z" fill="white"/>
<path d="M67.4826 55.9325C67.4826 56.1216 67.4532 56.3149 67.3944 56.5124C67.3355 56.7099 67.2473 56.9054 67.1296 57.0987C67.0162 57.2878 66.8691 57.4685 66.6884 57.6408C66.5119 57.8089 66.3017 57.956 66.058 58.082C65.8185 58.2081 65.5474 58.309 65.2448 58.3846C64.9423 58.4603 64.6061 58.4981 64.2363 58.4981C64.0808 58.4981 63.9001 58.4834 63.6941 58.454C63.4882 58.4245 63.2781 58.3825 63.0638 58.3279C62.8495 58.2775 62.6393 58.2144 62.4334 58.1388C62.2317 58.0631 62.0573 57.977 61.9102 57.8803C61.8892 57.8719 61.8724 57.8299 61.8598 57.7543C61.8472 57.6744 61.8388 57.5756 61.8346 57.458C61.8304 57.3403 61.8283 57.2079 61.8283 57.0609C61.8283 56.9138 61.8346 56.7646 61.8472 56.6133C61.8598 56.4578 61.8766 56.3065 61.8976 56.1594C61.9186 56.0123 61.9438 55.88 61.9732 55.7623L62.4838 55.7938C62.5805 56.0418 62.6961 56.2729 62.8305 56.4872C62.9692 56.7015 63.1226 56.8886 63.2907 57.0482C63.463 57.2037 63.6479 57.3277 63.8454 57.4202C64.0429 57.5084 64.2489 57.5525 64.4632 57.5525C64.6523 57.5525 64.8309 57.5294 64.999 57.4832C65.1713 57.437 65.3226 57.3676 65.4529 57.2752C65.5831 57.1785 65.6861 57.0588 65.7617 56.9159C65.8374 56.7688 65.8752 56.5944 65.8752 56.3927C65.8752 56.1363 65.8185 55.9157 65.705 55.7308C65.5915 55.5417 65.4402 55.3757 65.2511 55.2328C65.0662 55.0857 64.854 54.9533 64.6145 54.8357C64.3749 54.718 64.1291 54.6003 63.8769 54.4827C63.629 54.365 63.3853 54.241 63.1457 54.1108C62.9062 53.9805 62.6919 53.8313 62.5028 53.6632C62.3178 53.4909 62.1687 53.2934 62.0552 53.0707C61.9417 52.8479 61.885 52.5832 61.885 52.2764C61.885 52.1461 61.9102 52.0032 61.9606 51.8477C62.0153 51.6923 62.0951 51.5368 62.2002 51.3813C62.3094 51.2258 62.446 51.0766 62.6099 50.9337C62.7738 50.7866 62.9671 50.6585 63.1898 50.5492C63.4126 50.4357 63.6668 50.3454 63.9526 50.2781C64.2383 50.2109 64.5556 50.1773 64.9044 50.1773C65.144 50.1773 65.3772 50.192 65.6041 50.2214C65.8311 50.2508 66.0412 50.2908 66.2345 50.3412C66.432 50.3916 66.6043 50.4525 66.7514 50.524C66.9027 50.5954 67.0162 50.6732 67.0918 50.7572C67.1128 50.774 67.117 50.8161 67.1044 50.8833C67.096 50.9463 67.0771 51.022 67.0477 51.1102C67.0183 51.1985 66.9804 51.2951 66.9342 51.4002C66.8922 51.501 66.846 51.5998 66.7955 51.6965C66.7493 51.7889 66.7031 51.873 66.6568 51.9486C66.6106 52.02 66.5707 52.0705 66.5371 52.0999L66.058 52.0621C65.974 51.8477 65.8731 51.6691 65.7554 51.5263C65.6378 51.3792 65.5117 51.2615 65.3772 51.1733C65.2469 51.085 65.1125 51.0241 64.9738 50.9905C64.8393 50.9526 64.7132 50.9337 64.5956 50.9337C64.3938 50.9337 64.2215 50.9589 64.0787 51.0094C63.9358 51.0598 63.8181 51.1291 63.7257 51.2174C63.6332 51.3014 63.566 51.4002 63.5239 51.5137C63.4819 51.6229 63.4609 51.7364 63.4609 51.8541C63.4609 52.0516 63.5176 52.2281 63.6311 52.3836C63.7488 52.539 63.9022 52.6819 64.0913 52.8122C64.2804 52.9425 64.4947 53.0686 64.7342 53.1904L65.4718 53.556C65.7239 53.6821 65.9697 53.8187 66.2093 53.9658C66.4488 54.1129 66.6631 54.281 66.8523 54.4701C67.0414 54.655 67.1927 54.8672 67.3061 55.1067C67.4238 55.3463 67.4826 55.6215 67.4826 55.9325Z" fill="white"/>
<path d="M70.6952 58.309V57.7858C70.981 57.7269 71.1932 57.6639 71.3319 57.5967C71.4748 57.5252 71.5462 57.4601 71.5462 57.4012V51.2804C71.5462 51.23 71.479 51.167 71.3445 51.0913C71.2142 51.0157 70.9978 50.9484 70.6952 50.8896V50.3664H74.1622V50.8896C73.8764 50.9484 73.6621 51.0136 73.5192 51.085C73.3806 51.1565 73.3112 51.2216 73.3112 51.2804V57.4012C73.3112 57.4517 73.3764 57.5147 73.5066 57.5904C73.6411 57.6618 73.8596 57.7269 74.1622 57.7858V58.309H70.6952Z" fill="white"/>
<path d="M77.2424 58.309V57.7858C77.5492 57.7479 77.7677 57.6891 77.898 57.6093C78.0283 57.5294 78.0934 57.4601 78.0934 57.4012V51.3624C77.9589 51.2363 77.8181 51.1312 77.6711 51.0472C77.5282 50.9631 77.3853 50.9106 77.2424 50.8896V50.3664H79.1461C79.2091 50.3664 79.2596 50.3727 79.2974 50.3853C79.3394 50.3937 79.3814 50.4147 79.4235 50.4483C79.4655 50.482 79.5096 50.5324 79.5558 50.5996C79.6063 50.6627 79.6714 50.7488 79.7513 50.8581L83.5145 56.0838V51.2804C83.5145 51.2552 83.5019 51.2258 83.4767 51.1922C83.4515 51.1544 83.4053 51.1186 83.338 51.085C83.275 51.0472 83.1888 51.0115 83.0796 50.9778C82.9703 50.9442 82.8316 50.9148 82.6635 50.8896V50.3664H85.3741V50.8896C85.0715 50.9316 84.853 50.9926 84.7185 51.0724C84.5882 51.1522 84.5231 51.2216 84.5231 51.2804V58.4981C84.292 58.4813 84.0818 58.4477 83.8927 58.3972C83.7078 58.351 83.5418 58.2943 83.3948 58.227C83.2519 58.1598 83.1279 58.0841 83.0228 58.0001C82.9178 57.916 82.8316 57.8278 82.7644 57.7353L79.102 52.6672V57.4012C79.102 57.4265 79.1146 57.458 79.1398 57.4958C79.1692 57.5294 79.2175 57.5651 79.2848 57.603C79.352 57.6366 79.4382 57.6702 79.5432 57.7038C79.6525 57.7374 79.7891 57.7648 79.953 57.7858V58.309H77.2424Z" fill="white"/>
<path d="M93.8313 54.344C93.8313 53.9111 93.7809 53.4951 93.68 53.0959C93.5833 52.6924 93.4426 52.3394 93.2577 52.0369C93.077 51.7301 92.8584 51.4863 92.6021 51.3056C92.3499 51.1207 92.0684 51.0283 91.7574 51.0283C91.48 51.0283 91.2342 51.1018 91.0199 51.2489C90.8097 51.3918 90.6332 51.6019 90.4904 51.8793C90.3475 52.1566 90.2403 52.497 90.1689 52.9005C90.0974 53.2997 90.0617 53.7556 90.0617 54.2683C90.0617 54.739 90.1143 55.1782 90.2193 55.5858C90.3244 55.9934 90.4673 56.3485 90.648 56.6511C90.8329 56.9495 91.0472 57.1848 91.2909 57.3571C91.5347 57.5294 91.7952 57.6156 92.0726 57.6156C92.3247 57.6156 92.558 57.5504 92.7723 57.4202C92.9908 57.2857 93.1778 57.084 93.3333 56.815C93.4888 56.5461 93.6107 56.2057 93.6989 55.7938C93.7872 55.382 93.8313 54.8987 93.8313 54.344ZM95.6278 54.2305C95.6278 54.6129 95.5795 54.9828 95.4828 55.34C95.3904 55.6972 95.258 56.0355 95.0857 56.3548C94.9176 56.67 94.7159 56.96 94.4806 57.2247C94.2452 57.4853 93.9826 57.7101 93.6926 57.8992C93.4068 58.0883 93.1001 58.2354 92.7723 58.3405C92.4487 58.4455 92.1125 58.4981 91.7637 58.4981C91.2258 58.4981 90.7404 58.3867 90.3076 58.164C89.8747 57.9413 89.507 57.6429 89.2044 57.2689C88.9018 56.8949 88.6686 56.4641 88.5047 55.9766C88.345 55.4891 88.2652 54.9807 88.2652 54.4511C88.2652 53.8796 88.3576 53.3354 88.5425 52.8185C88.7317 52.3016 88.9964 51.8477 89.3368 51.4569C89.6772 51.0661 90.0827 50.7551 90.5534 50.524C91.0283 50.2929 91.5536 50.1773 92.1293 50.1773C92.6966 50.1773 93.1967 50.2929 93.6296 50.524C94.0666 50.7509 94.4322 51.0535 94.7264 51.4317C95.0248 51.8099 95.2496 52.2428 95.4009 52.7303C95.5522 53.2177 95.6278 53.7178 95.6278 54.2305Z" fill="white"/>
<path d="M75.1495 27.1759H69.4732C69.4732 27.1759 69.1664 23.9142 71.6226 23.6524C74.0789 23.3906 73.3502 19.8438 73.3502 19.8438H79.4592V27.1759H75.1495Z" fill="#414141"/>
<path d="M38.9698 6.60156C38.9698 6.60156 40.3397 7.27524 39.5451 8.22323C39.4722 8.34813 39.3677 8.45159 39.242 8.52317C39.1163 8.59474 38.974 8.6319 38.8294 8.63088C38.6847 8.62987 38.543 8.59072 38.4183 8.51739C38.2936 8.44406 38.1905 8.33914 38.1194 8.21323C38.1194 8.21323 37.2056 7.9014 38.9698 6.60156Z" fill="white"/>
<path d="M79.4587 24.4185C79.4587 24.4185 73.9534 24.7853 75.2774 27.9411H83.0714C83.0714 27.9411 85.12 27.9411 84.7139 23.0728C84.7139 23.0728 86.1397 9.84933 84.2995 9.15898L86.6774 10.6673C86.8011 10.7437 86.9431 10.7852 87.0885 10.7875C87.2338 10.7898 87.3771 10.7528 87.5031 10.6804C87.6291 10.6079 87.7332 10.5027 87.8044 10.376C87.8755 10.2492 87.9111 10.1055 87.9072 9.96022V9.31572C87.5212 7.85164 80.0574 1.50004 73.8392 1.50004C72.4559 1.49665 71.081 1.71394 69.7662 2.1437C69.7662 2.1437 69.7296 2.15287 69.6745 2.17205C69.0759 2.3238 65.8692 3.16673 65.1055 3.2426C64.2576 3.31764 50.4288 2.74401 50.4288 2.74401C48.472 2.71233 48.1034 2.07533 46.7894 2.44636C43.3843 3.40935 37.2737 6.94867 38.1183 8.21099C39.0171 9.55501 39.8459 12.078 46.9178 9.30322H46.9545C47.2038 9.30322 48.7604 9.47414 52.6024 13.2236C52.6035 13.2313 52.6066 13.2377 52.6116 13.2427C55.127 15.6957 62.6476 25.6324 63.3363 26.1794C64.025 26.7263 68.2146 27.9403 67.6385 23.6698C66.8298 23.5868 66.0246 23.4728 65.2247 23.3279L65.128 20.5532C69.3527 21.7004 75.0806 19.6777 75.0806 19.6777" fill="#222222"/>
<path d="M52.2595 13.1875C52.3696 13.6327 54.9876 23.2302 52.2504 23.6145C49.5131 23.9989 49.0904 24.58 49.1638 26.5119H56.4609L59.9335 23.311C59.9335 23.311 56.8152 15.1485 52.2595 13.1875Z" fill="#414141"/>
<path d="M65.2247 23.3288C65.2247 23.3288 66.3528 23.5414 67.6385 23.6698C68.2138 27.9403 64.0241 26.7263 63.3363 26.1794C62.6484 25.6325 55.127 15.6957 52.6116 13.2427C52.6068 13.2374 52.6039 13.2307 52.6032 13.2236C48.7604 9.47414 47.2038 9.30322 46.9553 9.30322H46.9178C39.8459 12.078 39.0171 9.55502 38.1183 8.21099C37.2737 6.94868 43.3843 3.40936 46.7894 2.44719C48.1034 2.07534 48.4728 2.71316 50.4288 2.74401C50.4288 2.74401 64.2576 3.31847 65.1047 3.2426C65.8692 3.16673 69.0759 2.3238 69.6745 2.17205C69.7296 2.15288 69.7662 2.1437 69.7662 2.1437C71.081 1.71394 72.4559 1.49665 73.8392 1.50004C80.0574 1.50004 87.5212 7.85164 87.9072 9.31573V9.96022C87.911 10.1056 87.8754 10.2493 87.8041 10.3761C87.7329 10.5028 87.6287 10.608 87.5025 10.6804C87.3764 10.7527 87.2331 10.7897 87.0877 10.7872C86.9422 10.7847 86.8002 10.743 86.6766 10.6664L84.2987 9.15731" stroke="white" stroke-width="2.17075" stroke-linecap="round" stroke-linejoin="round"/>
<path d="M52.6103 13.2422C52.7211 13.6874 55.3392 23.2849 52.6019 23.6692C49.8647 24.0536 49.442 24.6347 49.5153 26.5665H56.8116L60.285 23.3657M75.0793 27.1777H69.4031C69.4031 27.1777 69.0954 24.2312 71.5525 23.9944C74.0096 23.7576 73.2801 20.5526 73.2801 20.5526C70.6037 21.2263 67.8022 21.2263 65.1267 20.5526M79.4574 24.4171C79.4574 24.4171 73.4243 19.121 72.9349 15.2741" stroke="white" stroke-width="2.17075" stroke-linecap="round" stroke-linejoin="round"/>
<path d="M79.4575 24.4167C79.4575 24.4167 73.9521 24.7836 75.2762 27.9394H83.0702C83.0702 27.9394 84.997 27.851 84.2374 23.0568C84.2374 23.0568 87.1773 15.4488 85.403 9.84672M47.1992 4.03373C47.1992 4.03373 49.1185 3.7169 48.3506 6.59839" stroke="white" stroke-width="2.17075" stroke-linecap="round" stroke-linejoin="round"/>
</svg>
