<svg width="193" height="26" viewBox="0 0 193 26" fill="none" xmlns="http://www.w3.org/2000/svg">
<path d="M11.111 7.26166L8.94974 21.8212C8.76502 23.013 8.23856 23.9197 7.37037 24.5415C6.52066 25.1632 5.42157 25.4741 4.0731 25.4741C3.64824 25.4741 3.16797 25.4482 2.63228 25.3964C2.11506 25.3446 1.61631 25.2668 1.13604 25.1632C0.65576 25.0769 0.277082 24.9646 0 24.8264L0.858953 21.7953H1.93957C2.56762 21.7953 3.02943 21.6917 3.32498 21.4845C3.63901 21.2599 3.82373 20.949 3.87914 20.5518L5.92955 7.26166H11.111Z" fill="white"/>
<path d="M30.3913 7.26166L28.7565 17.9611C28.4795 19.8264 28.0177 21.3117 27.3711 22.4171C26.7246 23.5052 25.801 24.291 24.6003 24.7746C23.4181 25.2582 21.8664 25.5 19.9453 25.5C18.0612 25.5 16.528 25.2496 15.3458 24.7487C14.182 24.2306 13.3693 23.4102 12.9075 22.2876C12.4457 21.1477 12.3441 19.6451 12.6027 17.7798L14.2097 7.26166H19.4189L17.7841 17.9611C17.6363 18.9456 17.5901 19.7228 17.6456 20.2927C17.7194 20.8454 17.9411 21.234 18.3106 21.4585C18.6985 21.6831 19.2711 21.7953 20.0285 21.7953C20.8228 21.7953 21.4508 21.6744 21.9126 21.4326C22.3744 21.1908 22.7254 20.7763 22.9655 20.1891C23.2057 19.6019 23.4181 18.7988 23.6028 17.7798L25.1822 7.26166H30.3913Z" fill="white"/>
<path d="M37.5506 7.18394C38.6405 7.18394 39.7396 7.19257 40.8479 7.20984C41.9562 7.20984 43.0276 7.23575 44.0621 7.28756C45.0965 7.32211 46.0386 7.39119 46.8883 7.49482L46.3064 10.9404H39.4348C38.936 10.9404 38.5666 11.0268 38.3265 11.1995C38.1048 11.3722 37.957 11.6831 37.8831 12.1321L36.664 20.2927C36.6086 20.6727 36.6732 20.9663 36.8579 21.1736C37.0427 21.3636 37.3659 21.4585 37.8277 21.4585H44.6439L44.5608 24.956C43.6926 25.0596 42.7413 25.12 41.7069 25.1373C40.6909 25.1718 39.6472 25.1891 38.5758 25.1891C37.5229 25.2064 36.5162 25.215 35.5556 25.215C34.0225 25.215 32.8957 24.7919 32.1753 23.9456C31.4733 23.0993 31.2147 22.0026 31.3994 20.6554L32.8402 10.9404C33.025 9.78325 33.5145 8.86788 34.3088 8.1943C35.1216 7.52072 36.2022 7.18394 37.5506 7.18394ZM32.868 14.2824H44.7548L44.3114 17.5725H32.3138L32.868 14.2824Z" fill="white"/>
<path d="M57.7012 6.89896C58.4401 6.89896 59.1605 6.92487 59.8624 6.97668C60.5644 7.0285 61.2571 7.10622 61.9405 7.20984C62.624 7.31347 63.2798 7.45164 63.9078 7.62435L63.2982 11.1218C62.6517 11.1045 62.0144 11.0959 61.3864 11.0959C60.7583 11.0786 60.1303 11.0699 59.5022 11.0699C58.8742 11.0527 58.1907 11.044 57.4518 11.044C56.7314 11.044 56.1218 11.1304 55.6231 11.3031C55.1243 11.4585 54.7087 11.7349 54.3762 12.1321C54.0437 12.5294 53.7666 13.0734 53.545 13.7642C53.3233 14.4551 53.1386 15.3273 52.9908 16.3808C52.7876 17.6934 52.7045 18.7124 52.7414 19.4378C52.7968 20.1459 52.9908 20.6382 53.3233 20.9145C53.6558 21.1908 54.1638 21.329 54.8473 21.329C55.4568 21.329 55.9556 21.2513 56.3435 21.0959C56.7499 20.9404 57.1101 20.7504 57.4241 20.5259C57.7381 20.2841 58.0337 20.0682 58.3108 19.8782L59.142 21.9249C58.8834 22.2358 58.5509 22.5898 58.1445 22.987C57.7381 23.3843 57.2579 23.7815 56.7037 24.1788C56.168 24.5587 55.5492 24.8782 54.8473 25.1373C54.1453 25.3791 53.3602 25.5 52.4921 25.5C51.2175 25.5 50.1553 25.1978 49.3056 24.5933C48.4559 23.9888 47.8648 22.9957 47.5323 21.614C47.2183 20.215 47.2275 18.3497 47.56 16.0181C47.8371 14.1701 48.225 12.6503 48.7237 11.4585C49.241 10.2668 49.906 9.34283 50.7187 8.68653C51.5315 8.01295 52.5105 7.54663 53.6558 7.28756C54.8011 7.0285 56.1495 6.89896 57.7012 6.89896ZM63.7139 14.8264L62.1622 25.1373H58.3662L58.1168 22.3653L57.7566 21.5104L58.7541 14.8264H63.7139Z" fill="white"/>
<path d="M77.6 7.26166C78.0064 7.26166 78.3666 7.39119 78.6806 7.65026C79.0131 7.90933 79.2071 8.22884 79.2625 8.60881L81.9779 25.1373H76.7687L75.3833 12.7539C75.3464 12.4257 75.3187 12.1062 75.3002 11.7953C75.3002 11.4845 75.3002 11.1736 75.3002 10.8627H74.5244C74.4505 11.1218 74.3674 11.4154 74.275 11.7435C74.1826 12.0717 74.0626 12.3912 73.9148 12.7021L68.678 25.1373H63.2749L70.9777 8.42746C71.1255 8.0475 71.3564 7.76252 71.6704 7.57254C72.0029 7.36528 72.3816 7.26166 72.8065 7.26166H77.6ZM78.7637 17.3394L78.3204 20.9404H68.3455L68.8165 17.3394H78.7637Z" fill="white"/>
<path d="M91.8985 11.899C93.7087 11.899 95.1034 12.0803 96.0824 12.443C97.0799 12.8057 97.7449 13.3325 98.0774 14.0233C98.4284 14.6969 98.5207 15.5432 98.3545 16.5622C98.2437 17.3394 97.9573 17.9525 97.4955 18.4016C97.0522 18.8333 96.4334 19.1615 95.6391 19.386C94.8448 19.5933 93.8381 19.7401 92.6189 19.8264L85.4425 20.3705L85.775 18.013L91.4552 17.4689C91.88 17.4344 92.231 17.3826 92.5081 17.3135C92.8036 17.2271 93.0345 17.0976 93.2008 16.9249C93.3855 16.7349 93.4963 16.4585 93.5333 16.0959C93.5887 15.8022 93.5702 15.5777 93.4779 15.4223C93.3855 15.2668 93.21 15.1632 92.9514 15.1114C92.7113 15.0423 92.3511 15.0164 91.8708 15.0337C91.409 15.0337 91.0211 15.0855 90.707 15.1891C90.393 15.2927 90.1252 15.4655 89.9035 15.7073C89.7003 15.9318 89.5248 16.2686 89.377 16.7176C89.2477 17.1494 89.1184 17.7193 88.9891 18.4275C88.8229 19.3946 88.7767 20.12 88.8506 20.6036C88.9429 21.0872 89.1739 21.4067 89.5433 21.5622C89.9312 21.7176 90.4669 21.7953 91.1504 21.7953C91.5752 21.7953 92.1109 21.7867 92.7574 21.7694C93.404 21.7349 94.0782 21.7003 94.7801 21.6658C95.5005 21.614 96.1286 21.5622 96.6643 21.5104L97.0245 24.4119C96.4149 24.6537 95.7499 24.861 95.0295 25.0337C94.3091 25.1891 93.5794 25.2927 92.8406 25.3446C92.1017 25.4136 91.3813 25.4482 90.6793 25.4482C88.7028 25.4482 87.1789 25.1891 86.1075 24.671C85.0361 24.1356 84.3249 23.3584 83.9739 22.3394C83.623 21.3031 83.5306 20.0423 83.6969 18.557C83.8631 17.2098 84.1494 16.1045 84.5558 15.2409C84.9807 14.3601 85.5256 13.6865 86.1906 13.2202C86.8741 12.7366 87.6869 12.3998 88.6289 12.2098C89.5895 12.0026 90.6793 11.899 91.8985 11.899Z" fill="white"/>
<path d="M111.325 11.899C112.083 11.899 112.748 12.0371 113.32 12.3135C113.893 12.5898 114.318 13.0043 114.595 13.557C114.891 14.0924 114.974 14.766 114.844 15.5777L113.404 25.1373H108.361L109.58 17.0803C109.654 16.614 109.626 16.2945 109.497 16.1218C109.367 15.9318 109.09 15.8541 108.665 15.8886C108.204 15.8886 107.696 16.0181 107.141 16.2772C106.587 16.5363 105.922 16.9594 105.146 17.5466L104.398 15.4482C105.396 14.3428 106.504 13.4793 107.723 12.8575C108.961 12.2185 110.162 11.899 111.325 11.899ZM105.119 12.2617L105.202 15.6813L105.645 16.0181L104.287 25.1373H99.2446L101.156 12.2617H105.119Z" fill="white"/>
<path d="M124.219 7.26166L122.224 20.0855C122.187 20.4827 122.243 20.7763 122.391 20.9663C122.557 21.1563 122.871 21.2513 123.333 21.2513H129.789L129.706 24.93C128.45 25.0682 127.046 25.1459 125.494 25.1632C123.961 25.1978 122.437 25.215 120.922 25.215C120.035 25.215 119.269 25.0509 118.622 24.7228C117.994 24.3774 117.523 23.9024 117.209 23.2979C116.895 22.6762 116.803 21.9594 116.932 21.1477L119.01 7.26166H124.219Z" fill="white"/>
<path d="M139.32 7.26166L136.632 25.1373H131.423L134.111 7.26166H139.32ZM141.093 0.5L142.756 3.79015L135.774 6.43264L134.582 4.48964L141.093 0.5Z" fill="white"/>
<path d="M159.37 7.26166L156.932 23.5311C156.858 24.0838 156.664 24.4896 156.35 24.7487C156.055 25.0078 155.611 25.1373 155.02 25.1373H152.97C152.416 25.1373 152.018 25.0078 151.778 24.7487C151.538 24.4724 151.307 24.0924 151.086 23.6088L147.483 15.9922C147.28 15.595 147.105 15.1546 146.957 14.671C146.809 14.1874 146.68 13.6952 146.569 13.1943H146.292C146.31 13.7124 146.301 14.2306 146.264 14.7487C146.246 15.2496 146.2 15.7677 146.126 16.3031L144.768 25.1373H139.947L142.385 8.86788C142.459 8.3152 142.644 7.90933 142.939 7.65026C143.253 7.39119 143.706 7.26166 144.297 7.26166H146.347C146.883 7.26166 147.271 7.39983 147.511 7.67617C147.751 7.9525 147.982 8.32383 148.204 8.79015L151.723 16.0699C151.926 16.5017 152.12 16.9594 152.305 17.443C152.508 17.9266 152.683 18.462 152.831 19.0492H153.136C153.099 18.4965 153.081 17.9957 153.081 17.5466C153.099 17.0803 153.145 16.6054 153.219 16.1218L154.577 7.26166H159.37Z" fill="white"/>
<path d="M166.675 7.18394C167.765 7.18394 168.864 7.19257 169.972 7.20984C171.081 7.20984 172.152 7.23575 173.186 7.28756C174.221 7.32211 175.163 7.39119 176.013 7.49482L175.431 10.9404H168.559C168.06 10.9404 167.691 11.0268 167.451 11.1995C167.229 11.3722 167.081 11.6831 167.008 12.1321L165.788 20.2927C165.733 20.6727 165.798 20.9663 165.982 21.1736C166.167 21.3636 166.49 21.4585 166.952 21.4585H173.768L173.685 24.956C172.817 25.0596 171.866 25.12 170.831 25.1373C169.815 25.1718 168.772 25.1891 167.7 25.1891C166.647 25.2064 165.641 25.215 164.68 25.215C163.147 25.215 162.02 24.7919 161.3 23.9456C160.598 23.0993 160.339 22.0026 160.524 20.6554L161.965 10.9404C162.149 9.78325 162.639 8.86788 163.433 8.1943C164.246 7.52072 165.327 7.18394 166.675 7.18394ZM161.992 14.2824H173.879L173.436 17.5725H161.438L161.992 14.2824Z" fill="white"/>
<path d="M188.622 7.26166C189.028 7.26166 189.389 7.39119 189.703 7.65026C190.035 7.90933 190.229 8.22884 190.285 8.60881L193 25.1373H187.791L186.405 12.7539C186.368 12.4257 186.341 12.1062 186.322 11.7953C186.322 11.4845 186.322 11.1736 186.322 10.8627H185.546C185.473 11.1218 185.389 11.4154 185.297 11.7435C185.205 12.0717 185.085 12.3912 184.937 12.7021L179.7 25.1373H174.297L182 8.42746C182.148 8.0475 182.379 7.76252 182.693 7.57254C183.025 7.36528 183.404 7.26166 183.829 7.26166H188.622ZM189.786 17.3394L189.342 20.9404H179.368L179.839 17.3394H189.786Z" fill="white"/>
<path d="M142.756 3.79015L141.093 0.5L134.582 4.48964L135.774 6.43264L142.756 3.79015Z" fill="#F14116"/>
</svg>
