<svg width="92" height="48" viewBox="0 0 92 48" fill="none" xmlns="http://www.w3.org/2000/svg">
<rect width="91.5402" height="47.7041" rx="16.7609" fill="#FDD13C"/>
<path d="M31.2914 24.6096V28.8309H11.72V25.473L24.0001 10.6666H11.9759V6.44531H30.8117V9.80315L18.5636 24.6096H31.2914Z" fill="#191919"/>
<path d="M55.4646 24.6735V28.8309H38.1317V6.44531H55.0488V10.6026H43.2804V15.4635H53.6737V19.4929H43.2804V24.6735H55.4646Z" fill="#191919"/>
<path d="M67.7414 10.6666H60.578V6.44531H80.0854V10.6666H72.922V28.8309H67.7414V10.6666Z" fill="#191919"/>
<path d="M15.0042 40.5422C14.3642 40.5422 13.7839 40.4046 13.2635 40.1295C12.749 39.8483 12.3423 39.4625 12.0432 38.972C11.7501 38.4755 11.6035 37.9162 11.6035 37.2941C11.6035 36.672 11.7501 36.1156 12.0432 35.6251C12.3423 35.1286 12.749 34.7428 13.2635 34.4676C13.7839 34.1865 14.3671 34.0459 15.0132 34.0459C15.5575 34.0459 16.0481 34.1416 16.4847 34.333C16.9274 34.5245 17.2983 34.7996 17.5974 35.1585L16.6642 36.0199C16.2395 35.5294 15.7131 35.2842 15.085 35.2842C14.6961 35.2842 14.3492 35.3709 14.0441 35.5444C13.739 35.7119 13.4998 35.9481 13.3263 36.2532C13.1588 36.5583 13.0751 36.9052 13.0751 37.2941C13.0751 37.6829 13.1588 38.0298 13.3263 38.3349C13.4998 38.64 13.739 38.8793 14.0441 39.0527C14.3492 39.2202 14.6961 39.304 15.085 39.304C15.7131 39.304 16.2395 39.0557 16.6642 38.5592L17.5974 39.4206C17.2983 39.7855 16.9274 40.0637 16.4847 40.2551C16.0421 40.4465 15.5486 40.5422 15.0042 40.5422Z" fill="#191919"/>
<path d="M28.8738 39.0886H25.9576L25.4013 40.4346H23.9118L26.7113 34.1536H28.147L30.9554 40.4346H29.4301L28.8738 39.0886ZM28.4161 37.985L27.4202 35.5803L26.4242 37.985H28.4161Z" fill="#191919"/>
<path d="M39.9518 40.5422C39.4553 40.5422 38.9738 40.4764 38.5072 40.3448C38.0466 40.2072 37.6757 40.0308 37.3946 39.8154L37.8881 38.7207C38.1573 38.9182 38.4773 39.0767 38.8482 39.1963C39.219 39.3159 39.5899 39.3758 39.9608 39.3758C40.3735 39.3758 40.6786 39.3159 40.876 39.1963C41.0734 39.0707 41.1721 38.9062 41.1721 38.7028C41.1721 38.5533 41.1123 38.4306 40.9927 38.3349C40.879 38.2332 40.7295 38.1525 40.544 38.0927C40.3646 38.0328 40.1193 37.967 39.8083 37.8952C39.3297 37.7816 38.9379 37.6679 38.6328 37.5543C38.3277 37.4406 38.0645 37.2582 37.8432 37.0069C37.6279 36.7557 37.5202 36.4207 37.5202 36.002C37.5202 35.6371 37.6189 35.3081 37.8163 35.015C38.0137 34.7159 38.3098 34.4796 38.7046 34.3061C39.1054 34.1326 39.5929 34.0459 40.1672 34.0459C40.568 34.0459 40.9598 34.0938 41.3426 34.1895C41.7255 34.2852 42.0604 34.4228 42.3476 34.6022L41.8989 35.7059C41.3187 35.3769 40.7384 35.2124 40.1582 35.2124C39.7514 35.2124 39.4493 35.2782 39.2519 35.4098C39.0605 35.5414 38.9648 35.7149 38.9648 35.9302C38.9648 36.1455 39.0755 36.3071 39.2968 36.4147C39.5241 36.5164 39.8681 36.6181 40.3287 36.7198C40.8072 36.8335 41.1991 36.9471 41.5041 37.0608C41.8092 37.1744 42.0694 37.3539 42.2848 37.5991C42.5061 37.8444 42.6168 38.1764 42.6168 38.5951C42.6168 38.954 42.5151 39.283 42.3117 39.5821C42.1143 39.8753 41.8152 40.1085 41.4144 40.282C41.0136 40.4555 40.5261 40.5422 39.9518 40.5422Z" fill="#191919"/>
<path d="M49.891 34.1536H51.3446V40.4346H49.891V34.1536Z" fill="#191919"/>
<path d="M64.8767 34.1536V40.4346H63.6833L60.5518 36.6211V40.4346H59.1162V34.1536H60.3185L63.4411 37.967V34.1536H64.8767Z" fill="#191919"/>
<path d="M75.6855 40.5422C75.0335 40.5422 74.4443 40.4017 73.9179 40.1205C73.3975 39.8394 72.9877 39.4535 72.6886 38.963C72.3955 38.4665 72.2489 37.9102 72.2489 37.2941C72.2489 36.6779 72.3955 36.1246 72.6886 35.6341C72.9877 35.1376 73.3975 34.7488 73.9179 34.4676C74.4443 34.1865 75.0335 34.0459 75.6855 34.0459C76.3376 34.0459 76.9238 34.1865 77.4442 34.4676C77.9646 34.7488 78.3744 35.1376 78.6735 35.6341C78.9726 36.1246 79.1221 36.6779 79.1221 37.2941C79.1221 37.9102 78.9726 38.4665 78.6735 38.963C78.3744 39.4535 77.9646 39.8394 77.4442 40.1205C76.9238 40.4017 76.3376 40.5422 75.6855 40.5422ZM75.6855 39.304C76.0564 39.304 76.3914 39.2202 76.6905 39.0527C76.9896 38.8793 77.2229 38.64 77.3904 38.3349C77.5639 38.0298 77.6506 37.6829 77.6506 37.2941C77.6506 36.9052 77.5639 36.5583 77.3904 36.2532C77.2229 35.9481 76.9896 35.7119 76.6905 35.5444C76.3914 35.3709 76.0564 35.2842 75.6855 35.2842C75.3147 35.2842 74.9797 35.3709 74.6806 35.5444C74.3815 35.7119 74.1452 35.9481 73.9717 36.2532C73.8042 36.5583 73.7205 36.9052 73.7205 37.2941C73.7205 37.6829 73.8042 38.0298 73.9717 38.3349C74.1452 38.64 74.3815 38.8793 74.6806 39.0527C74.9797 39.2202 75.3147 39.304 75.6855 39.304Z" fill="#191919"/>
</svg>
