<svg width="320" height="24" viewBox="0 0 320 24" fill="none" xmlns="http://www.w3.org/2000/svg">
<path d="M16.4837 23.9019C14.2532 23.9019 12.1949 23.6122 10.3086 23.0327C8.42239 22.4427 6.77709 21.6157 5.37273 20.5516C3.98214 19.4874 2.89445 18.2389 2.10966 16.8061C1.33864 15.3627 0.953125 13.7876 0.953125 12.0808C0.953125 10.374 1.33864 8.79887 2.10966 7.35546C2.88068 5.90152 3.97525 4.63196 5.39338 3.54677C6.81151 2.46158 8.49123 1.61872 10.4326 1.01818C12.3739 0.407101 14.5148 0.101562 16.8554 0.101562C18.5902 0.101562 20.2631 0.275403 21.8739 0.623085C23.4848 0.96023 24.958 1.45541 26.2936 2.10863L24.0218 6.18599C23.2645 5.60652 22.2595 5.13768 21.0065 4.77946C19.7674 4.41071 18.3837 4.22633 16.8554 4.22633C14.9554 4.22633 13.2482 4.54767 11.7336 5.19035C10.2329 5.8225 9.04196 6.71805 8.16079 7.87698C7.29339 9.03592 6.85969 10.395 6.85969 11.9543C6.85969 13.1133 7.10064 14.1774 7.58253 15.1467C8.07818 16.1054 8.76659 16.9378 9.64776 17.6437C10.5289 18.339 11.5547 18.8816 12.725 19.2715C13.8953 19.6507 15.1757 19.8404 16.5663 19.8404C18.1359 19.8404 19.5127 19.5981 20.6968 19.1134C21.8946 18.6182 22.824 17.9492 23.4848 17.1063C24.1457 16.2529 24.4761 15.2995 24.4761 14.2459H15.6163V10.4214H30.1142V13.6927C30.1142 15.6524 29.5566 17.4014 28.4414 18.9396C27.3262 20.4778 25.7428 21.6894 23.6914 22.5744C21.6537 23.4594 19.2511 23.9019 16.4837 23.9019Z" fill="white"/>
<path d="M50.6922 23.9019C48.5168 23.9019 46.486 23.6017 44.5998 23.0011C42.7273 22.4006 41.082 21.5577 39.6639 20.4725C38.2458 19.3873 37.1374 18.1231 36.3388 16.6796C35.5541 15.2362 35.1617 13.6717 35.1617 11.9859C35.1617 10.3108 35.5541 8.75146 36.3388 7.30805C37.1374 5.86465 38.2389 4.60562 39.6432 3.53097C41.0614 2.45631 42.7067 1.61872 44.5791 1.01818C46.4654 0.407101 48.4893 0.101562 50.6509 0.101562C52.8538 0.101562 54.8915 0.407101 56.764 1.01818C58.6503 1.61872 60.2956 2.45631 61.6999 3.53097C63.1181 4.60562 64.2126 5.86465 64.9837 7.30805C65.7684 8.75146 66.1608 10.316 66.1608 12.0018C66.1608 13.6769 65.7684 15.2362 64.9837 16.6796C64.2126 18.1231 63.1181 19.3873 61.6999 20.4725C60.2956 21.5577 58.6571 22.4006 56.7847 23.0011C54.9122 23.6017 52.8814 23.9019 50.6922 23.9019ZM50.6303 19.7772C52.0071 19.7772 53.2738 19.577 54.4303 19.1766C55.6006 18.7763 56.6194 18.2231 57.4868 17.5172C58.368 16.8113 59.0495 15.9896 59.5314 15.0519C60.0133 14.1036 60.2543 13.0817 60.2543 11.9859C60.2543 10.8692 60.0064 9.84191 59.5108 8.90423C59.0289 7.956 58.3474 7.13421 57.4662 6.43885C56.5988 5.74348 55.5799 5.20089 54.4096 4.81107C53.2393 4.42124 51.9796 4.22633 50.6303 4.22633C49.2948 4.22633 48.0487 4.42124 46.8922 4.81107C45.7357 5.20089 44.7237 5.74348 43.8563 6.43885C42.9889 7.13421 42.3074 7.956 41.8117 8.90423C41.3161 9.84191 41.0682 10.8692 41.0682 11.9859C41.0682 13.0817 41.3092 14.1036 41.7911 15.0519C42.2867 16.0001 42.9614 16.8271 43.815 17.533C44.6824 18.2389 45.6944 18.7921 46.8509 19.1924C48.0212 19.5823 49.281 19.7772 50.6303 19.7772Z" fill="white"/>
<path d="M72.468 23.6491V0.354422H78.3746V19.5875H89.878V23.6491H72.468Z" fill="white"/>
<path d="M95.1526 23.6491V0.354422H105.396C107.393 0.354422 109.293 0.596745 111.096 1.08139C112.914 1.56604 114.524 2.28774 115.929 3.2465C117.333 4.20526 118.442 5.40107 119.254 6.83394C120.066 8.26681 120.472 9.93147 120.472 11.8279C120.472 13.756 120.066 15.4575 119.254 16.9325C118.455 18.397 117.368 19.6297 115.991 20.6306C114.614 21.6315 113.051 22.3848 111.303 22.8905C109.554 23.3962 107.737 23.6491 105.851 23.6491H95.1526ZM101.059 19.5875H105.995C106.986 19.5875 107.978 19.4348 108.969 19.1292C109.974 18.8237 110.897 18.3548 111.736 17.7227C112.59 17.08 113.272 16.274 113.781 15.3047C114.304 14.3249 114.566 13.166 114.566 11.8279C114.566 10.5215 114.304 9.39941 113.781 8.46172C113.272 7.52404 112.59 6.76019 111.736 6.17018C110.897 5.56964 109.974 5.12714 108.969 4.84267C107.978 4.55821 106.986 4.41597 105.995 4.41597H101.059V19.5875Z" fill="white"/>
<path d="M126.759 23.6491V0.354422H144.251V4.41597H132.665V9.86825H142.31V13.8192H132.665V19.5875H144.251V23.6491H126.759Z" fill="white"/>
<path d="M151.385 23.6491V0.354422H155.701L168.588 13.0132L170.963 15.5576H171.149L171.005 10.295V0.354422H176.911V23.6491H172.595L159.79 10.8165L157.353 8.25627H157.188L157.291 13.6295V23.6491H151.385Z" fill="white"/>
<path d="M202.578 15.2099V11.4802H208.216C209.235 11.4802 210.13 11.3327 210.901 11.0377C211.672 10.7427 212.271 10.3318 212.697 9.80504C213.138 9.26771 213.358 8.6461 213.358 7.9402C213.358 6.84448 212.863 5.98581 211.871 5.3642C210.88 4.73205 209.579 4.41597 207.968 4.41597H202.578V0.354422H208.897C210.839 0.354422 212.58 0.628353 214.122 1.17621C215.678 1.72408 216.911 2.51953 217.819 3.56257C218.728 4.60562 219.182 5.88045 219.182 7.38707C219.182 8.85155 218.714 10.1738 217.778 11.3538C216.842 12.5338 215.499 13.4715 213.751 14.1669C212.002 14.8622 209.916 15.2099 207.493 15.2099H202.578ZM198.447 23.6491V0.354422H204.354V23.6491H198.447ZM215.093 23.6491L208.092 14.562L212.532 11.8753L221.784 23.6491H215.093Z" fill="white"/>
<path d="M227.782 23.6491V0.354422H245.274V4.41597H233.689V9.86825H243.333V13.8192H233.689V19.5875H245.274V23.6491H227.782Z" fill="white"/>
<path d="M252.408 23.6491V0.354422H269.9V4.41597H258.314V9.86825H267.959V13.8192H258.314V19.5875H269.9V23.6491H252.408Z" fill="white"/>
<path d="M277.034 23.6491V0.354422H282.94V19.5875H294.444V23.6491H277.034Z" fill="white"/>
<path d="M309.198 23.9019C307.449 23.9019 305.818 23.6438 304.303 23.1276C302.788 22.6113 301.501 21.9317 300.441 21.0889C299.381 20.2355 298.637 19.3136 298.211 18.3232L303.807 16.5216C304.041 17.0379 304.399 17.5489 304.881 18.0546C305.377 18.5498 305.976 18.9606 306.678 19.2873C307.394 19.6139 308.199 19.7772 309.094 19.7772C309.852 19.7772 310.554 19.656 311.201 19.4137C311.848 19.1714 312.371 18.8395 312.77 18.4181C313.17 17.9861 313.369 17.5067 313.369 16.9799C313.369 16.411 313.149 15.9263 312.708 15.526C312.282 15.1151 311.738 14.7727 311.077 14.4987C310.416 14.2248 309.728 13.993 309.012 13.8034C308.31 13.6032 307.676 13.4294 307.112 13.2819C305.721 12.9131 304.434 12.4495 303.25 11.8911C302.066 11.3222 301.109 10.6005 300.379 9.72602C299.663 8.85155 299.305 7.78216 299.305 6.51787C299.305 5.20089 299.704 4.06302 300.503 3.10427C301.302 2.14551 302.403 1.408 303.807 0.891748C305.225 0.364958 306.85 0.101562 308.681 0.101562C310.389 0.101562 311.882 0.317546 313.163 0.749514C314.457 1.17095 315.538 1.73461 316.405 2.44051C317.286 3.14641 317.961 3.91552 318.429 4.74785L312.998 6.42304C312.846 6.15965 312.585 5.85411 312.213 5.50643C311.841 5.14821 311.359 4.83741 310.767 4.57401C310.189 4.30008 309.507 4.16311 308.723 4.16311C307.855 4.16311 307.043 4.35803 306.286 4.74785C305.528 5.13768 305.15 5.73295 305.15 6.53367C305.15 7.1026 305.356 7.58725 305.769 7.98761C306.196 8.38797 306.726 8.72512 307.36 8.99905C307.993 9.27298 308.64 9.4995 309.301 9.67861C309.975 9.85772 310.561 10.0105 311.056 10.1369C311.635 10.2739 312.378 10.4951 313.287 10.8007C314.195 11.0957 315.097 11.5013 315.992 12.0176C316.901 12.5338 317.665 13.1923 318.285 13.993C318.904 14.7937 319.214 15.7683 319.214 16.9167C319.214 18.2231 318.773 19.4084 317.892 20.4725C317.025 21.5261 315.834 22.3637 314.319 22.9853C312.805 23.5964 311.098 23.9019 309.198 23.9019Z" fill="white"/>
</svg>
