<svg width="181" height="48" viewBox="0 0 181 48" fill="none" xmlns="http://www.w3.org/2000/svg">
<path d="M13.4361 47.7217L0 24.0313H26.8723L13.4361 47.7217Z" fill="white"/>
<path d="M0 24.0313H26.8723L13.4361 0.340859L0 24.0313Z" fill="white"/>
<path d="M42.2243 17.7141L37.0395 0.277967H40.0745L45.1581 17.7141H42.2243ZM34.9909 17.7141V0.277967H37.8994V17.7141H34.9909ZM43.59 17.7141L48.2689 0.277967H51.2028L46.3215 17.7141H43.59ZM50.3934 17.7141V0.277967H53.479V17.7141H50.3934Z" fill="white"/>
<path d="M64.2038 17.9921C62.6526 17.9921 61.2784 17.6383 60.0813 16.9308C58.901 16.2064 57.9737 15.1703 57.2992 13.8226C56.6416 12.4749 56.3128 10.866 56.3128 8.99605C56.3128 7.10924 56.6416 5.5004 57.2992 4.16952C57.9737 2.82179 58.901 1.79416 60.0813 1.0866C61.2784 0.3622 62.6526 0 64.2038 0C65.7719 0 67.146 0.3622 68.3263 1.0866C69.5066 1.79416 70.4255 2.82179 71.0831 4.16952C71.7576 5.5004 72.0948 7.10924 72.0948 8.99605C72.0948 10.866 71.7576 12.4749 71.0831 13.8226C70.4255 15.1703 69.5066 16.2064 68.3263 16.9308C67.146 17.6383 65.7719 17.9921 64.2038 17.9921ZM64.2038 15.1366C65.6539 15.1366 66.8004 14.6144 67.6435 13.5699C68.5034 12.5086 68.9333 10.9839 68.9333 8.99605C68.9333 6.99131 68.5034 5.4667 67.6435 4.42222C66.8004 3.37773 65.6539 2.85549 64.2038 2.85549C62.7538 2.85549 61.6072 3.37773 60.7642 4.42222C59.9211 5.4667 59.4996 6.99131 59.4996 8.99605C59.4996 10.9839 59.9211 12.5086 60.7642 13.5699C61.6072 14.6144 62.7538 15.1366 64.2038 15.1366Z" fill="white"/>
<path d="M82.0857 17.9921C80.5345 17.9921 79.1603 17.6383 77.9632 16.9308C76.7829 16.2064 75.8556 15.1703 75.1811 13.8226C74.5236 12.4749 74.1948 10.866 74.1948 8.99605C74.1948 7.10924 74.5236 5.5004 75.1811 4.16952C75.8556 2.82179 76.7829 1.79416 77.9632 1.0866C79.1603 0.3622 80.5345 0 82.0857 0C83.6538 0 85.028 0.3622 86.2083 1.0866C87.3885 1.79416 88.3074 2.82179 88.965 4.16952C89.6395 5.5004 89.9767 7.10924 89.9767 8.99605C89.9767 10.866 89.6395 12.4749 88.965 13.8226C88.3074 15.1703 87.3885 16.2064 86.2083 16.9308C85.028 17.6383 83.6538 17.9921 82.0857 17.9921ZM82.0857 15.1366C83.5358 15.1366 84.6823 14.6144 85.5254 13.5699C86.3853 12.5086 86.8152 10.9839 86.8152 8.99605C86.8152 6.99131 86.3853 5.4667 85.5254 4.42222C84.6823 3.37773 83.5358 2.85549 82.0857 2.85549C80.6357 2.85549 79.4891 3.37773 78.6461 4.42222C77.803 5.4667 77.3815 6.99131 77.3815 8.99605C77.3815 10.9839 77.803 12.5086 78.6461 13.5699C79.4891 14.6144 80.6357 15.1366 82.0857 15.1366Z" fill="white"/>
<path d="M98.6525 17.9921C96.8652 17.9921 95.3814 17.5962 94.2012 16.8044C93.0378 15.9958 92.22 14.8502 91.7479 13.3677L94.7576 12.3822C95.0779 13.3593 95.5753 14.0837 96.2498 14.5554C96.9411 15.0271 97.8179 15.263 98.8801 15.263C99.9424 15.263 100.76 15.0692 101.333 14.6818C101.907 14.2943 102.193 13.7973 102.193 13.1908C102.193 12.5844 102.016 12.1042 101.662 11.7505C101.308 11.3798 100.836 11.0766 100.246 10.8407C99.6557 10.588 99.0066 10.369 98.2984 10.1837C97.5902 9.99842 96.8821 9.78784 96.1739 9.55199C95.4826 9.31614 94.8419 9.0129 94.2517 8.64227C93.6616 8.27165 93.1811 7.79152 92.8101 7.2019C92.456 6.61227 92.279 5.8626 92.279 4.95288C92.279 4.00948 92.5235 3.16715 93.0125 2.4259C93.5183 1.66781 94.2433 1.07818 95.1875 0.657016C96.1318 0.219005 97.2783 0 98.6272 0C100.263 0 101.645 0.38747 102.775 1.16241C103.905 1.92051 104.697 2.99868 105.152 4.39695L102.244 5.38247C101.924 4.47276 101.435 3.80732 100.777 3.38615C100.136 2.94814 99.3269 2.72914 98.349 2.72914C97.3036 2.72914 96.5449 2.92287 96.0727 3.31034C95.6006 3.69781 95.3646 4.15267 95.3646 4.67491C95.3646 5.19716 95.5416 5.61832 95.8957 5.93841C96.2666 6.25849 96.7472 6.52803 97.3373 6.74704C97.9275 6.9492 98.5766 7.14293 99.2848 7.32824C99.9929 7.51356 100.701 7.73256 101.409 7.98526C102.117 8.23796 102.767 8.56647 103.357 8.97078C103.947 9.3751 104.419 9.89734 104.773 10.5375C105.144 11.1777 105.329 11.9863 105.329 12.9634C105.329 13.9237 105.06 14.7913 104.52 15.5662C103.997 16.3243 103.239 16.9223 102.244 17.3604C101.249 17.7815 100.052 17.9921 98.6525 17.9921Z" fill="white"/>
<path d="M108.05 17.7141V0.277967H111.11V17.7141H108.05ZM109.466 17.7141V14.8839H120.696V17.7141H109.466ZM109.466 10.1837V7.40405H119.203V10.1837H109.466ZM109.466 3.10819V0.277967H120.569V3.10819H109.466Z" fill="white"/>
<path d="M133.577 17.9921C131.925 17.9921 130.559 17.5204 129.48 16.577C128.401 15.6167 127.726 14.2522 127.456 12.4833L130.466 11.8263C130.601 12.9044 130.93 13.7299 131.452 14.3027C131.992 14.8586 132.709 15.1366 133.602 15.1366C134.563 15.1366 135.314 14.825 135.853 14.2016C136.41 13.5615 136.688 12.6265 136.688 11.3967V0.277967H139.773V11.5988C139.773 12.896 139.52 14.0247 139.015 14.985C138.509 15.9453 137.792 16.6865 136.865 17.2087C135.954 17.731 134.858 17.9921 133.577 17.9921Z" fill="white"/>
<path d="M154.482 17.7141L148.816 0.277967H151.851L157.744 17.7141H154.482ZM141.431 17.7141L147.324 0.277967H150.131L144.618 17.7141H141.431ZM144.921 13.1656V10.3859H154.229V13.1656H144.921Z" fill="white"/>
<path d="M161.627 17.7141L157.833 0.277967H160.969L164.56 17.7141H161.627ZM163.599 17.7141L167.166 0.277967H169.948L166.356 17.7141H163.599ZM172.527 17.7141L168.911 0.277967H171.769L175.411 17.7141H172.527ZM174.449 17.7141L177.94 0.277967H181L177.206 17.7141H174.449Z" fill="white"/>
<path d="M42.0219 48C40.4876 48 39.1303 47.6378 37.95 46.9134C36.7866 46.1721 35.8761 45.1277 35.2185 43.7799C34.5609 42.4322 34.2321 40.8402 34.2321 39.0039C34.2321 37.1508 34.5609 35.5504 35.2185 34.2027C35.8761 32.855 36.7866 31.8189 37.95 31.0945C39.1303 30.3701 40.4791 30.0079 41.9966 30.0079C43.2444 30.0079 44.3572 30.2269 45.3351 30.6649C46.3299 31.1029 47.1645 31.7431 47.839 32.5854C48.5134 33.4277 48.9855 34.4554 49.2553 35.6683L46.195 36.477C45.9758 35.2977 45.4953 34.4048 44.7534 33.7984C44.0284 33.175 43.0926 32.8634 41.9461 32.8634C40.5803 32.8634 39.4843 33.3941 38.6581 34.4554C37.832 35.5167 37.4189 37.0329 37.4189 39.0039C37.4189 40.9581 37.832 42.4743 38.6581 43.5525C39.4843 44.6138 40.5887 45.1445 41.9713 45.1445C43.1516 45.1445 44.0958 44.8329 44.804 44.2095C45.529 43.5862 46.0264 42.6765 46.2962 41.4804L49.3312 42.289C49.0445 43.502 48.5556 44.538 47.8643 45.3972C47.1898 46.2564 46.3552 46.905 45.3604 47.343C44.3656 47.781 43.2528 48 42.0219 48Z" fill="white"/>
<path d="M63.269 47.722L57.6037 30.2859H60.6387L66.5316 47.722H63.269ZM50.2186 47.722L56.1115 30.2859H58.9189L53.4053 47.722H50.2186ZM53.7088 43.1735V40.3938H63.0161V43.1735H53.7088Z" fill="white"/>
<path d="M74.3983 48C72.611 48 71.1272 47.6041 69.947 46.8123C68.7836 46.0037 67.9658 44.8581 67.4937 43.3756L70.5034 42.3901C70.8237 43.3672 71.3211 44.0916 71.9956 44.5633C72.6869 45.035 73.5637 45.2709 74.6259 45.2709C75.6881 45.2709 76.5059 45.0771 77.0792 44.6897C77.6525 44.3022 77.9391 43.8052 77.9391 43.1987C77.9391 42.5923 77.7621 42.1121 77.408 41.7584C77.0539 41.3877 76.5818 41.0845 75.9916 40.8486C75.4015 40.5959 74.7524 40.3769 74.0442 40.1916C73.336 40.0063 72.6279 39.7957 71.9197 39.5599C71.2284 39.324 70.5877 39.0208 69.9975 38.6502C69.4074 38.2795 68.9269 37.7994 68.5559 37.2098C68.2018 36.6202 68.0248 35.8705 68.0248 34.9608C68.0248 34.0174 68.2693 33.175 68.7583 32.4338C69.2641 31.6757 69.9891 31.0861 70.9333 30.6649C71.8776 30.2269 73.0241 30.0079 74.373 30.0079C76.0085 30.0079 77.3911 30.3954 78.5208 31.1703C79.6505 31.9284 80.443 33.0066 80.8982 34.4048L77.9897 35.3904C77.6693 34.4807 77.1803 33.8152 76.5228 33.3941C75.882 32.956 75.0727 32.737 74.0948 32.737C73.0494 32.737 72.2906 32.9308 71.8185 33.3182C71.3464 33.7057 71.1104 34.1606 71.1104 34.6828C71.1104 35.2051 71.2874 35.6262 71.6415 35.9463C72.0124 36.2664 72.493 36.5359 73.0831 36.7549C73.6733 36.9571 74.3224 37.1508 75.0306 37.3361C75.7387 37.5215 76.4469 37.7405 77.1551 37.9932C77.8632 38.2459 78.5124 38.5744 79.1025 38.9787C79.6926 39.383 80.1647 39.9052 80.5188 40.5454C80.8898 41.1856 81.0752 41.9942 81.0752 42.9713C81.0752 43.9316 80.8055 44.7992 80.2659 45.5741C79.7432 46.3322 78.9845 46.9302 77.9897 47.3683C76.9949 47.7894 75.7977 48 74.3983 48Z" fill="white"/>
<path d="M83.7957 47.722V30.2859H86.8559V47.722H83.7957Z" fill="white"/>
<path d="M100.253 47.722L91.7801 30.2859H94.9921L103.465 47.722H100.253ZM90.4396 47.722V30.2859H93.3482V47.722H90.4396ZM101.897 47.722V30.2859H104.805V47.722H101.897Z" fill="white"/>
<path d="M115.528 48C113.977 48 112.602 47.6462 111.405 46.9387C110.225 46.2143 109.298 45.1782 108.623 43.8305C107.966 42.4828 107.637 40.8739 107.637 39.0039C107.637 37.1171 107.966 35.5083 108.623 34.1774C109.298 32.8297 110.225 31.8021 111.405 31.0945C112.602 30.3701 113.977 30.0079 115.528 30.0079C117.096 30.0079 118.47 30.3701 119.65 31.0945C120.831 31.8021 121.75 32.8297 122.407 34.1774C123.082 35.5083 123.419 37.1171 123.419 39.0039C123.419 40.8739 123.082 42.4828 122.407 43.8305C121.75 45.1782 120.831 46.2143 119.65 46.9387C118.47 47.6462 117.096 48 115.528 48ZM115.528 45.1445C116.978 45.1445 118.124 44.6223 118.968 43.5778C119.827 42.5165 120.257 40.9918 120.257 39.0039C120.257 36.9992 119.827 35.4746 118.968 34.4301C118.124 33.3856 116.978 32.8634 115.528 32.8634C114.078 32.8634 112.931 33.3856 112.088 34.4301C111.245 35.4746 110.824 36.9992 110.824 39.0039C110.824 40.9918 111.245 42.5165 112.088 43.5778C112.931 44.6223 114.078 45.1445 115.528 45.1445Z" fill="white"/>
</svg>
