<svg width="126" height="16" viewBox="0 0 126 16" fill="none" xmlns="http://www.w3.org/2000/svg">
<path d="M49.4084 15.551C48.3813 15.551 47.4089 15.3729 46.4914 15.0168C45.5875 14.6608 44.7863 14.1472 44.0878 13.4761C43.3894 12.7914 42.8347 11.9697 42.4239 11.011C42.0267 10.0523 41.8281 8.97039 41.8281 7.76521C41.8281 6.54633 42.0267 5.45756 42.4239 4.49889C42.8347 3.54022 43.3894 2.72536 44.0878 2.05429C44.8 1.38322 45.608 0.876497 46.5119 0.534115C47.4295 0.178039 48.395 0 49.4084 0C50.4219 0 51.3806 0.178039 52.2845 0.534115C53.202 0.876497 54.0101 1.38322 54.7085 2.05429C55.4207 2.72536 55.9753 3.54022 56.3725 4.49889C56.7833 5.45756 56.9888 6.54633 56.9888 7.76521C56.9888 8.97039 56.7833 10.0523 56.3725 11.011C55.9753 11.9697 55.4275 12.7914 54.7291 13.4761C54.0306 14.1472 53.2226 14.6608 52.305 15.0168C51.4011 15.3729 50.4356 15.551 49.4084 15.551ZM49.4084 13.4761C50.3397 13.4761 51.1957 13.257 51.9763 12.8188C52.7569 12.3805 53.3801 11.7437 53.8457 10.9083C54.3114 10.0592 54.5442 9.01833 54.5442 7.78575C54.5442 6.53948 54.3114 5.49865 53.8457 4.66324C53.3801 3.81413 52.7569 3.1773 51.9763 2.75275C51.2094 2.3145 50.3534 2.09537 49.4084 2.09537C48.4635 2.09537 47.6007 2.3145 46.82 2.75275C46.0531 3.1773 45.4368 3.81413 44.9712 4.66324C44.5055 5.49865 44.2727 6.53948 44.2727 7.78575C44.2727 9.01833 44.5124 10.0592 44.9917 10.9083C45.4711 11.7437 46.101 12.3805 46.8817 12.8188C47.6623 13.257 48.5046 13.4761 49.4084 13.4761Z" fill="url(#paint0_linear_9357_122969)"/>
<path d="M59.477 15.3455V0.246515H61.7984V13.2912H66.1329V15.3455H59.477Z" fill="url(#paint1_linear_9357_122969)"/>
<path d="M70.167 15.3455V8.29933L64.9286 0.246515H67.6813L71.3174 6.20395L74.9535 0.246515H77.6857L72.4678 8.34041V15.3455H70.167Z" fill="url(#paint2_linear_9357_122969)"/>
<path d="M85.7331 15.3455L82.097 8.29933L81.152 6.16287L80.7206 8.29933L79.3237 15.3455H77.0434L80.166 0.246515H80.4125L84.5621 8.40204L85.7947 11.1342L87.0273 8.40204L91.0948 0.246515H91.3208L94.5665 15.3455H92.3068L90.7866 8.29933L90.3347 6.16287L89.513 8.29933L85.8563 15.3455H85.7331Z" fill="url(#paint3_linear_9357_122969)"/>
<path d="M96.5906 15.3455V0.246515H99.9186C101.233 0.246515 102.288 0.438249 103.082 0.821716C103.877 1.20518 104.452 1.7393 104.808 2.42406C105.164 3.09513 105.342 3.86891 105.342 4.74541C105.342 6.34775 104.876 7.58717 103.945 8.46367C103.014 9.32647 101.603 9.75787 99.7132 9.75787H98.912V15.3455H96.5906ZM98.912 7.72413H99.7748C100.679 7.72413 101.363 7.58032 101.829 7.29272C102.295 7.00512 102.61 6.64905 102.774 6.22449C102.938 5.79994 103.021 5.38908 103.021 4.99192C103.021 4.51259 102.932 4.06749 102.754 3.65663C102.575 3.24578 102.267 2.91024 101.829 2.65003C101.391 2.38982 100.775 2.25972 99.9802 2.25972H98.912V7.72413Z" fill="url(#paint4_linear_9357_122969)"/>
<path d="M107.611 15.3455V0.246515H109.911V15.3455H107.611Z" fill="url(#paint5_linear_9357_122969)"/>
<path d="M118.502 0.225971H118.728L126 15.3455H123.35L122.055 12.3874H115.133L113.838 15.3455H111.27L118.502 0.225971ZM118.604 4.60161L117.7 6.6559L116.057 10.3125H121.152L119.529 6.67644L118.645 4.60161H118.604Z" fill="url(#paint6_linear_9357_122969)"/>
<path d="M10.3331 0.164062L14.4622 9.96302L18.0777 0.246234H20.5223L14.6471 15.3453H14.3595L10.2509 5.56684L6.16287 15.3247H5.87527L0 0.246234H2.4446L6.06015 9.96302L10.2098 0.164062H10.3331Z" fill="white"/>
<path d="M22.2356 15.3453V0.246234H24.5364V15.3453H22.2356Z" fill="white"/>
<path d="M38.6985 15.3453L29.865 5.56684L29.9267 7.21027V15.3453H27.6258V0.22569H27.9134L36.788 10.1274L36.7058 8.40176V0.246234H39.0066V15.3453H38.6985Z" fill="white"/>
<defs>
<linearGradient id="paint0_linear_9357_122969" x1="40.6999" y1="7.11519" x2="125.825" y2="7.11519" gradientUnits="userSpaceOnUse">
<stop stop-color="#FFBF00"/>
<stop offset="1" stop-color="#A900FF"/>
</linearGradient>
<linearGradient id="paint1_linear_9357_122969" x1="40.6999" y1="7.11519" x2="125.825" y2="7.11519" gradientUnits="userSpaceOnUse">
<stop stop-color="#FFBF00"/>
<stop offset="1" stop-color="#A900FF"/>
</linearGradient>
<linearGradient id="paint2_linear_9357_122969" x1="40.6999" y1="7.11519" x2="125.825" y2="7.11519" gradientUnits="userSpaceOnUse">
<stop stop-color="#FFBF00"/>
<stop offset="1" stop-color="#A900FF"/>
</linearGradient>
<linearGradient id="paint3_linear_9357_122969" x1="40.6999" y1="7.11519" x2="125.825" y2="7.11519" gradientUnits="userSpaceOnUse">
<stop stop-color="#FFBF00"/>
<stop offset="1" stop-color="#A900FF"/>
</linearGradient>
<linearGradient id="paint4_linear_9357_122969" x1="40.6999" y1="7.11519" x2="125.825" y2="7.11519" gradientUnits="userSpaceOnUse">
<stop stop-color="#FFBF00"/>
<stop offset="1" stop-color="#A900FF"/>
</linearGradient>
<linearGradient id="paint5_linear_9357_122969" x1="40.6999" y1="7.11519" x2="125.825" y2="7.11519" gradientUnits="userSpaceOnUse">
<stop stop-color="#FFBF00"/>
<stop offset="1" stop-color="#A900FF"/>
</linearGradient>
<linearGradient id="paint6_linear_9357_122969" x1="40.6999" y1="7.11519" x2="125.825" y2="7.11519" gradientUnits="userSpaceOnUse">
<stop stop-color="#FFBF00"/>
<stop offset="1" stop-color="#A900FF"/>
</linearGradient>
</defs>
</svg>
