<svg width="199" height="38" viewBox="0 0 199 38" fill="none" xmlns="http://www.w3.org/2000/svg">
<path d="M18.4651 5.06277L15.3221 8.86055C15.0477 8.03739 14.6922 7.25164 14.2557 6.50331C13.8192 5.75498 13.3016 5.10019 12.7029 4.53894C12.1043 3.97769 11.4245 3.52869 10.6637 3.19194C9.90292 2.85519 9.05481 2.68682 8.11939 2.68682C7.4459 2.68682 6.82229 2.81154 6.24857 3.06098C5.67485 3.29795 5.16972 3.6347 4.7332 4.07123C4.30914 4.49528 3.97239 5.00041 3.72295 5.5866C3.48598 6.17279 3.36749 6.80264 3.36749 7.47614C3.36749 8.17458 3.49845 8.82937 3.76036 9.44051C4.02228 10.0516 4.3715 10.6067 4.80803 11.1055C5.24456 11.592 5.74344 12.016 6.30469 12.3777C6.87841 12.7394 7.47084 13.02 8.08198 13.2196C8.69312 13.4316 9.33543 13.6686 10.0089 13.9305C10.6824 14.1924 11.3435 14.498 11.992 14.8472C12.6406 15.1964 13.2579 15.5893 13.8441 16.0258C14.4303 16.4499 14.9479 16.9301 15.3969 17.4664C15.8459 18.0027 16.2014 18.6013 16.4633 19.2624C16.7252 19.9109 16.8562 20.6218 16.8562 21.3951C16.8562 22.5176 16.6067 23.5278 16.1078 24.4258C15.6214 25.3114 14.9791 26.0597 14.1809 26.6708C13.3827 27.282 12.466 27.7497 11.4308 28.074C10.408 28.3982 9.36661 28.5604 8.30648 28.5604C7.58309 28.5604 6.84723 28.4544 6.0989 28.2423C5.36304 28.0303 4.65213 27.7434 3.96616 27.3818C3.29266 27.0076 2.65658 26.5773 2.05791 26.0909C1.47172 25.6045 0.960359 25.0806 0.523832 24.5194L3.55457 21.0396C3.74166 21.6383 4.06593 22.2744 4.5274 22.9479C5.00135 23.6214 5.55012 24.245 6.17373 24.8187C6.79734 25.3924 7.4646 25.8726 8.17552 26.2593C8.89891 26.6334 9.59735 26.8205 10.2708 26.8205C10.6575 26.8205 11.0566 26.7207 11.4682 26.5212C11.8798 26.3216 12.2539 26.0659 12.5907 25.7541C12.9399 25.4299 13.2268 25.0806 13.4513 24.7065C13.6758 24.3323 13.788 23.9644 13.788 23.6027C13.788 23.0539 13.6758 22.5363 13.4513 22.0499C13.2268 21.551 12.9274 21.0833 12.5533 20.6468C12.1916 20.2102 11.7675 19.8111 11.2811 19.4494C10.8072 19.0753 10.3083 18.7448 9.78443 18.4579C9.27307 18.1586 8.75548 17.9029 8.23164 17.6909C7.72028 17.4664 7.24634 17.2917 6.80982 17.167C5.94923 16.9051 5.10736 16.5309 4.2842 16.0445C3.4735 15.5581 2.75012 14.9719 2.11404 14.286C1.47795 13.6 0.966595 12.8329 0.579957 11.9848C0.193319 11.1243 0 10.2075 0 9.23472C0 8.39908 0.130958 7.6071 0.392874 6.85876C0.65479 6.11043 1.01648 5.41823 1.47795 4.78215C1.93943 4.14606 2.48197 3.57234 3.10558 3.06098C3.72918 2.53715 4.40268 2.10062 5.12607 1.7514C5.84946 1.38971 6.60402 1.11532 7.38977 0.928239C8.17552 0.728684 8.9675 0.628906 9.76572 0.628906C11.5118 0.628906 13.1332 1.02178 14.6299 1.80753C16.1265 2.5808 17.4049 3.66588 18.4651 5.06277Z" fill="url(#paint0_linear_7983_38579)"/>
<path d="M27.2954 28.4668C26.8589 28.4668 26.441 28.4045 26.0419 28.2797C25.6428 28.1675 25.2687 27.9742 24.9194 27.6998L26.3787 25.6045C26.6157 25.9287 26.89 26.1844 27.2018 26.3715C27.5261 26.5461 27.8816 26.6334 28.2682 26.6334C28.6673 26.6334 29.0103 26.5336 29.2972 26.3341C29.584 26.1221 29.821 25.8477 30.0081 25.5109C30.2076 25.1742 30.3698 24.8 30.4945 24.3884C30.6192 23.9644 30.7128 23.5403 30.7751 23.1163C30.8375 22.6922 30.8811 22.2869 30.9061 21.9002C30.931 21.5011 30.9435 21.1644 30.9435 20.89C30.9435 20.3661 30.8687 19.7987 30.719 19.1875C30.5818 18.5764 30.3635 18.0027 30.0642 17.4664C29.7773 16.9301 29.4032 16.4873 28.9417 16.1381C28.4802 15.7764 27.9315 15.5955 27.2954 15.5955C26.8589 15.5955 26.4847 15.7078 26.1729 15.9323C25.8736 16.1443 25.6179 16.4312 25.4058 16.7929C25.2063 17.1421 25.0442 17.5474 24.9194 18.0089C24.8072 18.4579 24.7199 18.9131 24.6575 19.3746C24.6076 19.8236 24.5764 20.2664 24.564 20.7029C24.5515 21.1269 24.5453 21.4949 24.5453 21.8067V36.1746L21.1404 37.372V16.3626C21.1404 16.1131 21.078 15.8886 20.9533 15.6891C20.8286 15.477 20.6352 15.371 20.3733 15.371C20.0615 15.371 19.7747 15.4895 19.5127 15.7265C19.2633 15.951 19.0637 16.1755 18.9141 16.4L18.409 15.8387C18.5586 15.5269 18.7457 15.2276 18.9702 14.9407C19.2072 14.6414 19.4691 14.3795 19.7559 14.155C20.0553 13.9305 20.3733 13.7559 20.7101 13.6312C21.0593 13.494 21.421 13.4254 21.7951 13.4254C22.3315 13.4254 22.7742 13.5064 23.1234 13.6686C23.4727 13.8182 23.7533 14.0365 23.9653 14.3234C24.1773 14.6102 24.327 14.9532 24.4143 15.3523C24.5016 15.7514 24.5453 16.1942 24.5453 16.6806C24.7448 16.294 24.9756 15.9073 25.2375 15.5207C25.5119 15.1216 25.8174 14.7724 26.1542 14.473C26.4909 14.1612 26.8589 13.9118 27.258 13.7247C27.6696 13.5251 28.1185 13.4254 28.605 13.4254C29.4655 13.4254 30.2263 13.6187 30.8874 14.0053C31.5609 14.3795 32.1221 14.8784 32.5711 15.502C33.0326 16.1131 33.3818 16.8053 33.6188 17.5786C33.8558 18.3519 33.9742 19.1376 33.9742 19.9359C33.9742 20.9212 33.8308 21.9189 33.5439 22.9292C33.2696 23.9394 32.8517 24.8561 32.2905 25.6793C31.7417 26.5025 31.0495 27.176 30.2139 27.6998C29.3782 28.2112 28.4054 28.4668 27.2954 28.4668Z" fill="url(#paint1_linear_7983_38579)"/>
<path d="M43.5716 25.9412C43.2847 26.5524 42.948 27.0201 42.5613 27.3443C42.1872 27.6686 41.8255 27.9056 41.4763 28.0552C41.0647 28.2299 40.6469 28.3296 40.2228 28.3546C39.674 28.3546 39.2188 28.2673 38.8571 28.0927C38.4954 27.9181 38.2085 27.6873 37.9965 27.4005C37.7845 27.1136 37.6348 26.7893 37.5475 26.4276C37.4727 26.0659 37.4353 25.698 37.4353 25.3238V14.8285L40.8776 13.6499V25.4174C40.8776 25.7167 40.9462 25.9537 41.0834 26.1283C41.2206 26.3029 41.3952 26.3964 41.6072 26.4089C41.8317 26.4089 42.0687 26.3279 42.3181 26.1657C42.5801 26.0036 42.8295 25.7417 43.0665 25.38L43.5716 25.9412Z" fill="url(#paint2_linear_7983_38579)"/>
<path d="M61.3632 25.9412C61.2135 26.2655 61.0202 26.5711 60.7832 26.8579C60.5462 27.1448 60.2781 27.4005 59.9788 27.625C59.6919 27.8495 59.3801 28.0241 59.0433 28.1488C58.7066 28.286 58.3574 28.3546 57.9957 28.3546C57.0104 28.3546 56.2932 28.0864 55.8442 27.5501C55.4077 27.0014 55.1894 26.2593 55.1894 25.3238V17.7096C55.1894 17.6223 55.1832 17.5225 55.1707 17.4102C55.1707 17.2855 55.152 17.1733 55.1146 17.0735C55.0772 16.9612 55.0273 16.8677 54.9649 16.7929C54.9026 16.718 54.8153 16.6806 54.703 16.6806C54.3538 16.6806 53.9983 16.8926 53.6367 17.3167C53.2874 17.7407 52.9444 18.2895 52.6077 18.963C52.2834 19.6365 51.9778 20.3911 51.691 21.2267C51.4166 22.0624 51.1734 22.8918 50.9614 23.7149C50.7493 24.5256 50.581 25.2864 50.4562 25.9973C50.344 26.7083 50.2879 27.2757 50.2879 27.6998L46.883 28.8971V16.3252C46.883 16.0757 46.8206 15.8512 46.6959 15.6517C46.5712 15.4396 46.3778 15.3336 46.1159 15.3336C45.8041 15.3336 45.5173 15.4521 45.2553 15.6891C45.0059 15.9136 44.8063 16.1381 44.6567 16.3626L44.1516 15.8013C44.3012 15.4895 44.4883 15.1902 44.7128 14.9033C44.9498 14.604 45.2117 14.3421 45.4985 14.1176C45.7979 13.8931 46.1159 13.7185 46.4527 13.5937C46.8019 13.4566 47.1636 13.388 47.5378 13.388C48.5106 13.388 49.209 13.6623 49.6331 14.2111C50.0696 14.7474 50.2879 15.477 50.2879 16.4V22.4989C50.4001 21.9875 50.5498 21.4076 50.7369 20.759C50.9364 20.098 51.1734 19.4307 51.4478 18.7572C51.7222 18.0837 52.0277 17.4289 52.3645 16.7929C52.7137 16.1443 53.0941 15.5706 53.5057 15.0717C53.9173 14.5603 54.3663 14.155 54.8527 13.8557C55.3391 13.5439 55.8629 13.388 56.4242 13.388C57.0104 13.388 57.4531 13.5189 57.7525 13.7808C58.0518 14.0303 58.2638 14.3546 58.3886 14.7537C58.5257 15.1403 58.6006 15.5706 58.6131 16.0445C58.6255 16.5185 58.6318 16.9737 58.6318 17.4102V25.4174C58.6318 25.6668 58.6941 25.8976 58.8188 26.1096C58.9436 26.3091 59.1369 26.4089 59.3988 26.4089C59.6857 26.4089 59.9538 26.2967 60.2033 26.0722C60.4652 25.8352 60.671 25.6045 60.8206 25.38L61.3632 25.9412Z" fill="url(#paint3_linear_7983_38579)"/>
<path d="M100.164 4.65119C100.164 5.3621 99.9708 6.02936 99.5842 6.65297C99.21 7.27658 98.7361 7.8503 98.1624 8.37414C97.6011 8.8855 96.9837 9.34073 96.3102 9.73984C95.6492 10.1265 95.0318 10.432 94.4581 10.6565C93.847 10.8935 93.2234 11.0868 92.5873 11.2365C91.9637 11.3737 91.3338 11.461 90.6978 11.4984L90.3236 10.8436C90.8599 10.7064 91.4087 10.4882 91.9699 10.1888C92.5312 9.88951 93.0425 9.52781 93.504 9.10376C93.9655 8.66723 94.3396 8.18082 94.6265 7.64451C94.9258 7.10821 95.0755 6.52825 95.0755 5.90464C95.0755 5.46812 94.9944 5.08148 94.8323 4.74473C94.6826 4.40798 94.4706 4.12736 94.1962 3.90286C93.9343 3.66588 93.6225 3.49127 93.2608 3.37902C92.8991 3.2543 92.5062 3.19194 92.0822 3.19194C91.047 3.19194 90.124 3.38526 89.3133 3.7719C88.5151 4.15854 87.8104 4.68237 87.1993 5.34339C86.5882 5.99195 86.0706 6.74028 85.6465 7.58839C85.2225 8.4365 84.8732 9.32826 84.5989 10.2637C84.3369 11.1866 84.1436 12.122 84.0189 13.0699C83.9066 14.0178 83.8505 14.9096 83.8505 15.7452C83.8505 16.3688 83.8817 17.0298 83.9441 17.7283C84.0189 18.4142 84.1436 19.1002 84.3182 19.7862C84.4928 20.4722 84.7236 21.1269 85.0104 21.7506C85.2973 22.3742 85.659 22.9229 86.0955 23.3969C86.5321 23.8708 87.0434 24.2512 87.6296 24.5381C88.2283 24.8125 88.9205 24.9497 89.7062 24.9497C90.3797 24.9497 91.0096 24.825 91.5958 24.5755C92.182 24.3261 92.7183 23.9956 93.2047 23.584C93.6911 23.1724 94.1214 22.6922 94.4955 22.1434C94.8822 21.5947 95.2065 21.0209 95.4684 20.4223C95.7428 19.8236 95.9485 19.2187 96.0857 18.6076C96.2229 17.9964 96.2915 17.4165 96.2915 16.8677L100.164 15.4833V30.8054L96.2915 32.1898V20.5345C96.0546 21.5572 95.6555 22.5425 95.0942 23.4904C94.5454 24.4383 93.8969 25.2802 93.1485 26.016C92.4002 26.7394 91.5833 27.3256 90.6978 27.7746C89.8247 28.2112 88.9454 28.4294 88.0599 28.4294C86.7129 28.4294 85.4906 28.155 84.3931 27.6063C83.2955 27.045 82.3601 26.3029 81.5868 25.38C80.8135 24.457 80.2149 23.3969 79.7908 22.1996C79.3792 21.0022 79.1735 19.7612 79.1735 18.4766C79.1735 17.0922 79.3605 15.7015 79.7347 14.3047C80.1089 12.8953 80.6389 11.5483 81.3249 10.2637C82.0109 8.97904 82.834 7.77547 83.7944 6.65297C84.7548 5.53048 85.8149 4.55765 86.9748 3.73448C88.1472 2.91132 89.4007 2.26276 90.7352 1.78882C92.0822 1.31488 93.479 1.07791 94.9258 1.07791C95.4621 1.07791 96.0359 1.14027 96.647 1.26499C97.2706 1.37724 97.8381 1.57056 98.3494 1.84494C98.8733 2.11933 99.3036 2.48726 99.6403 2.94873C99.9895 3.39773 100.164 3.96522 100.164 4.65119Z" fill="url(#paint4_linear_7983_38579)"/>
<path d="M118.854 25.9038C118.704 26.2281 118.517 26.5336 118.292 26.8205C118.068 27.1074 117.806 27.363 117.507 27.5875C117.22 27.812 116.902 27.9929 116.553 28.1301C116.216 28.2548 115.86 28.3172 115.486 28.3172C114.501 28.3172 113.79 28.049 113.353 27.5127C112.929 26.9639 112.717 26.2218 112.717 25.2864V24.9497C112.493 25.3737 112.237 25.7978 111.95 26.2218C111.676 26.6459 111.358 27.0263 110.996 27.363C110.647 27.6998 110.254 27.9742 109.818 28.1862C109.381 28.3982 108.895 28.5042 108.358 28.5042C107.548 28.5042 106.831 28.3483 106.207 28.0365C105.583 27.7247 105.059 27.3069 104.635 26.7831C104.211 26.2468 103.893 25.6232 103.681 24.9123C103.469 24.2013 103.363 23.4468 103.363 22.6486C103.363 21.5635 103.55 20.4846 103.925 19.412C104.311 18.3269 104.847 17.3603 105.533 16.5122C106.232 15.6641 107.061 14.9782 108.022 14.4543C108.994 13.918 110.073 13.6499 111.258 13.6499C111.732 13.6499 112.206 13.6935 112.68 13.7808C113.154 13.8681 113.603 14.0116 114.027 14.2111C114.464 14.3982 114.856 14.6476 115.206 14.9595C115.567 15.2713 115.86 15.6517 116.085 16.1007L113.297 17.2793C113.148 17.0423 112.973 16.8178 112.774 16.6058C112.586 16.3813 112.374 16.188 112.137 16.0258C111.913 15.8637 111.67 15.7327 111.408 15.6329C111.146 15.5332 110.872 15.4833 110.585 15.4833C109.936 15.4833 109.356 15.6828 108.845 16.0819C108.346 16.4811 107.916 16.9737 107.554 17.5599C107.205 18.1461 106.937 18.7697 106.749 19.4307C106.562 20.0918 106.469 20.6904 106.469 21.2267C106.469 21.7007 106.512 22.237 106.6 22.8356C106.7 23.4218 106.868 23.9768 107.105 24.5007C107.342 25.0245 107.654 25.4673 108.04 25.829C108.427 26.1907 108.913 26.3715 109.5 26.3715C109.961 26.3715 110.36 26.2717 110.697 26.0722C111.034 25.8601 111.321 25.592 111.557 25.2677C111.794 24.931 111.988 24.5506 112.137 24.1265C112.3 23.69 112.418 23.2472 112.493 22.7982C112.58 22.3492 112.636 21.9065 112.661 21.4699C112.699 21.0209 112.717 20.6218 112.717 20.2726V18.9817L116.122 17.7844V25.38C116.122 25.6294 116.185 25.8601 116.309 26.0722C116.434 26.2717 116.627 26.3715 116.889 26.3715C117.201 26.3715 117.482 26.2593 117.731 26.0348C117.993 25.7978 118.199 25.5608 118.349 25.3238L118.854 25.9038Z" fill="url(#paint5_linear_7983_38579)"/>
<path d="M141.547 25.9412C141.26 26.5524 140.923 27.0201 140.537 27.3443C140.15 27.6686 139.782 27.9056 139.433 28.0552C139.021 28.2299 138.603 28.3296 138.179 28.3546C137.618 28.3546 137.157 28.2673 136.795 28.0927C136.446 27.9181 136.165 27.6873 135.953 27.4005C135.741 27.1136 135.591 26.7893 135.504 26.4276C135.429 26.0659 135.392 25.698 135.392 25.3238V17.4851C135.392 17.2855 135.354 17.1109 135.28 16.9612C135.205 16.7991 135.105 16.7056 134.98 16.6806C134.856 16.6557 134.706 16.718 134.531 16.8677C134.357 17.0174 134.17 17.2855 133.97 17.6722C133.633 18.6699 133.328 19.7176 133.053 20.8151C132.816 21.763 132.598 22.8356 132.399 24.033C132.211 25.2178 132.105 26.4401 132.08 27.6998L128.638 28.8971V17.4851C128.638 17.2855 128.601 17.1109 128.526 16.9612C128.451 16.7991 128.345 16.7056 128.208 16.6806C128.083 16.6557 127.933 16.718 127.759 16.8677C127.584 17.0174 127.403 17.2855 127.216 17.6722C126.842 18.7198 126.518 19.8111 126.243 20.9461C126.119 21.4325 126 21.9501 125.888 22.4989C125.776 23.0477 125.676 23.6152 125.589 24.2013C125.514 24.7751 125.452 25.3613 125.402 25.9599C125.352 26.5461 125.333 27.1261 125.345 27.6998L121.941 28.8971V16.3252C121.941 16.0258 121.872 15.7889 121.735 15.6142C121.598 15.4396 121.417 15.3523 121.192 15.3523C120.98 15.3399 120.743 15.4147 120.481 15.5768C120.219 15.739 119.964 16.0009 119.714 16.3626L119.209 15.8013C119.496 15.2027 119.827 14.7412 120.201 14.4169C120.587 14.0802 120.962 13.837 121.323 13.6873C121.735 13.5127 122.159 13.4129 122.595 13.388C123.144 13.388 123.593 13.4753 123.942 13.6499C124.304 13.8245 124.585 14.0552 124.784 14.3421C124.996 14.6165 125.14 14.9345 125.215 15.2962C125.302 15.6579 125.345 16.0258 125.345 16.4V20.3474C125.57 19.2249 125.907 18.2334 126.356 17.3728C126.805 16.5122 127.272 15.7889 127.759 15.2027C128.258 14.604 128.744 14.155 129.218 13.8557C129.692 13.5439 130.072 13.388 130.359 13.388C130.721 13.388 131.014 13.4503 131.239 13.575C131.463 13.6873 131.638 13.8619 131.762 14.0989C131.887 14.3358 131.968 14.6289 132.006 14.9782C132.056 15.3149 132.08 15.714 132.08 16.1755V20.3474C132.317 19.2249 132.654 18.2334 133.091 17.3728C133.54 16.5122 134.014 15.7889 134.513 15.2027C135.011 14.604 135.498 14.155 135.972 13.8557C136.446 13.5439 136.826 13.388 137.113 13.388C137.824 13.388 138.285 13.6249 138.497 14.0989C138.722 14.5603 138.834 15.2525 138.834 16.1755V25.4174C138.834 25.7167 138.903 25.9537 139.04 26.1283C139.177 26.3029 139.352 26.3964 139.564 26.4089C139.776 26.4089 140.007 26.3279 140.256 26.1657C140.518 26.0036 140.774 25.7417 141.023 25.38L141.547 25.9412Z" fill="url(#paint6_linear_7983_38579)"/>
<path d="M156.644 20.7029C156.644 21.5884 156.426 22.4927 155.99 23.4156C155.566 24.3261 155.004 25.1617 154.306 25.9225C153.607 26.6833 152.809 27.3069 151.911 27.7933C151.026 28.2673 150.122 28.5042 149.199 28.5042C148.338 28.5042 147.577 28.3608 146.916 28.074C146.255 27.7746 145.7 27.3693 145.251 26.8579C144.802 26.3341 144.459 25.7229 144.222 25.0245C143.998 24.3136 143.885 23.5466 143.885 22.7234V2.49973L147.328 1.3024V23.3408C147.328 23.7648 147.384 24.1826 147.496 24.5942C147.608 25.0058 147.777 25.38 148.001 25.7167C148.226 26.041 148.506 26.3091 148.843 26.5212C149.192 26.7207 149.604 26.8205 150.078 26.8205C150.652 26.8205 151.15 26.6833 151.575 26.4089C152.011 26.1221 152.373 25.7604 152.66 25.3238C152.959 24.8748 153.177 24.3884 153.314 23.8646C153.464 23.3408 153.539 22.8356 153.539 22.3492C153.539 21.6258 153.402 20.8962 153.127 20.1604C152.865 19.412 152.497 18.7385 152.024 18.1399C151.55 17.5412 150.995 17.0423 150.358 16.6432C149.722 16.2441 149.043 16.0134 148.319 15.951L151.425 13.6499C152.098 13.8744 152.747 14.2298 153.37 14.7162C154.007 15.1902 154.568 15.7452 155.054 16.3813C155.541 17.0174 155.927 17.7096 156.214 18.4579C156.501 19.2062 156.644 19.9546 156.644 20.7029Z" fill="url(#paint7_linear_7983_38579)"/>
<path d="M163.529 3.71577L162.538 10.5443L160.704 11.1243L159.582 5.06277L163.529 3.71577ZM166.111 25.9412C165.824 26.5524 165.487 27.0201 165.101 27.3443C164.726 27.6686 164.365 27.9056 164.016 28.0552C163.604 28.2299 163.186 28.3296 162.762 28.3546C162.213 28.3546 161.758 28.2673 161.396 28.0927C161.035 27.9181 160.748 27.6873 160.536 27.4005C160.324 27.1136 160.174 26.7893 160.087 26.4276C160.012 26.0659 159.975 25.698 159.975 25.3238V14.8285L163.417 13.6499V25.4174C163.417 25.7167 163.485 25.9537 163.623 26.1283C163.76 26.3029 163.934 26.3964 164.146 26.4089C164.371 26.4089 164.608 26.3279 164.857 26.1657C165.119 26.0036 165.369 25.7417 165.606 25.38L166.111 25.9412Z" fill="url(#paint8_linear_7983_38579)"/>
<path d="M183.902 25.9412C183.753 26.2655 183.559 26.5711 183.322 26.8579C183.085 27.1448 182.817 27.4005 182.518 27.625C182.231 27.8495 181.919 28.0241 181.583 28.1488C181.246 28.286 180.897 28.3546 180.535 28.3546C179.55 28.3546 178.832 28.0864 178.383 27.5501C177.947 27.0014 177.729 26.2593 177.729 25.3238V17.7096C177.729 17.6223 177.722 17.5225 177.71 17.4102C177.71 17.2855 177.691 17.1733 177.654 17.0735C177.616 16.9612 177.567 16.8677 177.504 16.7929C177.442 16.718 177.355 16.6806 177.242 16.6806C176.893 16.6806 176.538 16.8926 176.176 17.3167C175.827 17.7407 175.484 18.2895 175.147 18.963C174.823 19.6365 174.517 20.3911 174.23 21.2267C173.956 22.0624 173.713 22.8918 173.501 23.7149C173.289 24.5256 173.12 25.2864 172.995 25.9973C172.883 26.7083 172.827 27.2757 172.827 27.6998L169.422 28.8971V16.3252C169.422 16.0757 169.36 15.8512 169.235 15.6517C169.11 15.4396 168.917 15.3336 168.655 15.3336C168.343 15.3336 168.057 15.4521 167.795 15.6891C167.545 15.9136 167.346 16.1381 167.196 16.3626L166.691 15.8013C166.84 15.4895 167.028 15.1902 167.252 14.9033C167.489 14.604 167.751 14.3421 168.038 14.1176C168.337 13.8931 168.655 13.7185 168.992 13.5937C169.341 13.4566 169.703 13.388 170.077 13.388C171.05 13.388 171.748 13.6623 172.172 14.2111C172.609 14.7474 172.827 15.477 172.827 16.4V22.4989C172.939 21.9875 173.089 21.4076 173.276 20.759C173.476 20.098 173.713 19.4307 173.987 18.7572C174.261 18.0837 174.567 17.4289 174.904 16.7929C175.253 16.1443 175.633 15.5706 176.045 15.0717C176.457 14.5603 176.906 14.155 177.392 13.8557C177.878 13.5439 178.402 13.388 178.963 13.388C179.55 13.388 179.992 13.5189 180.292 13.7808C180.591 14.0303 180.803 14.3546 180.928 14.7537C181.065 15.1403 181.14 15.5706 181.152 16.0445C181.165 16.5185 181.171 16.9737 181.171 17.4102V25.4174C181.171 25.6668 181.233 25.8976 181.358 26.1096C181.483 26.3091 181.676 26.4089 181.938 26.4089C182.225 26.4089 182.493 26.2967 182.743 26.0722C183.004 25.8352 183.21 25.6045 183.36 25.38L183.902 25.9412Z" fill="url(#paint9_linear_7983_38579)"/>
<path d="M191.835 28.5604C190.912 28.5604 190.045 28.3982 189.234 28.074C188.436 27.7372 187.738 27.2757 187.139 26.6895C186.553 26.1034 186.085 25.4174 185.736 24.6316C185.399 23.8334 185.231 22.9666 185.231 22.0312C185.231 20.971 185.405 19.9795 185.755 19.0566C186.104 18.1212 186.584 17.2793 187.195 16.5309C187.819 15.7826 188.548 15.1341 189.384 14.5853C190.232 14.0365 191.149 13.6062 192.134 13.2944L192.677 13.9492C192.115 14.3608 191.592 14.8347 191.105 15.371C190.619 15.8949 190.195 16.4686 189.833 17.0922C189.471 17.7033 189.184 18.3519 188.972 19.0379C188.76 19.7114 188.654 20.4036 188.654 21.1145C188.654 21.7131 188.742 22.343 188.916 23.004C189.091 23.665 189.353 24.2699 189.702 24.8187C190.051 25.3675 190.488 25.8227 191.012 26.1844C191.548 26.5336 192.165 26.7083 192.864 26.7083C193.487 26.7083 194.024 26.596 194.473 26.3715C194.934 26.147 195.314 25.8414 195.614 25.4548C195.913 25.0682 196.138 24.6192 196.287 24.1078C196.437 23.584 196.512 23.0352 196.512 22.4615C196.512 21.788 196.381 21.102 196.119 20.4036C195.857 19.6926 195.495 19.0379 195.034 18.4392C194.585 17.8405 194.055 17.3416 193.444 16.9425C192.833 16.5434 192.178 16.3127 191.479 16.2503C191.916 15.7514 192.396 15.29 192.92 14.8659C193.444 14.4419 193.974 14.0365 194.51 13.6499C195.233 13.8868 195.869 14.2361 196.418 14.6975C196.98 15.159 197.447 15.6891 197.821 16.2877C198.208 16.8864 198.501 17.5412 198.701 18.2521C198.9 18.9506 199 19.6615 199 20.3849C199 21.3702 198.825 22.3492 198.476 23.3221C198.139 24.2949 197.653 25.1742 197.017 25.9599C196.393 26.7332 195.639 27.363 194.753 27.8495C193.88 28.3234 192.907 28.5604 191.835 28.5604Z" fill="url(#paint10_linear_7983_38579)"/>
<path d="M64.6346 16.3996C64.6346 16.3996 61.5781 16.7944 61.6647 18.9323C61.7513 21.0702 63.5411 22.4396 64.2373 22.3739C64.2373 22.3739 63.604 26.3377 66.6059 27.7059C69.6078 29.0741 72.0393 27.1723 72.6428 25.0234C72.6428 25.0234 77.4258 24.5042 76.6427 20.1825C76.6427 20.1825 75.2322 16.6124 72.4279 17.3401C72.4279 17.3401 72.2841 13.1417 69.0562 12.9817C65.8284 12.8217 64.6346 16.3996 64.6346 16.3996Z" fill="#EA5A47"/>
<path d="M71.0867 27.8965C71.8737 28.913 72.6604 29.7871 73.7074 30.0582C74.8092 30.3433 75.9178 29.9572 76.6432 29.3037C77.4091 28.613 77.8377 27.5053 77.5844 26.2993C77.3707 25.28 76.4786 24.4175 75.6286 23.4744L73.0523 25.545L71.0867 27.8965ZM73.0106 16.4357C73.0106 16.4357 72.6875 14.5241 72.2933 14.1306C72.2933 14.1306 72.728 13.0148 73.8959 12.9614C74.7854 12.9207 75.6802 14.5613 76.0562 15.346C76.1877 15.6207 76.3183 15.7239 76.1754 15.9928C75.9451 16.4264 75.3776 17.272 74.7451 17.5717L73.0106 16.4357Z" fill="#D22F27"/>
<path d="M71.2895 18.4275C71.5065 19.3665 70.4776 20.4068 68.991 20.7504C67.5044 21.0941 66.1233 20.6109 65.9062 19.6719" fill="#EA5A47"/>
<path d="M73.664 23.0145C73.4668 23.4762 72.991 23.8397 72.5281 24.0989C71.9119 24.4472 71.2275 24.6579 70.5221 24.7167C69.3037 24.8172 68.0841 24.5373 67.0314 23.9157C66.066 23.3486 65.2968 22.5001 64.8268 21.4838L64.8069 21.4344C64.6819 21.0753 64.6482 20.6909 64.7087 20.3155C64.7692 19.9402 64.9221 19.5858 65.1536 19.2842C65.4575 18.878 65.9482 18.5656 66.4455 18.3767C67.1062 18.1226 67.8141 18.0147 68.5206 18.0601C69.7337 18.1393 70.8915 18.5966 71.8312 19.3679C72.6931 20.0739 73.3159 21.0289 73.6144 22.1023" fill="#D22F27"/>
<path d="M65.9295 19.7508C66.1429 20.6792 67.3881 21.0312 68.8987 20.7493C70.4093 20.4675 71.4896 19.4711 71.3124 18.5235L71.2705 18.3421C71.0418 17.4052 69.6414 16.9149 68.1425 17.2469C66.6435 17.5788 65.7012 18.8132 65.9295 19.7508Z" fill="#EA5A47"/>
<path d="M68.5846 20.3366C68.0448 19.6019 68.3503 18.4596 69.2671 17.7843C69.7429 17.4341 70.3485 17.3196 70.9177 17.3815C71.7993 17.4773 72.5555 18.1432 72.7352 19.0126C72.7631 19.1313 72.7703 19.254 72.7566 19.3752" fill="#D22F27"/>
<path d="M68.4515 19.7672C68.2888 20.6636 69.0647 21.5566 70.1848 21.7604C70.7661 21.8668 71.3603 21.7034 71.8447 21.3979C72.5948 20.9249 72.982 19.9948 72.762 19.1347C72.7349 19.016 72.6876 18.9028 72.6221 18.8001" fill="#D22F27"/>
<path d="M73.1839 22.6567C73.0133 23.0813 72.5948 23.4116 72.187 23.6471C71.6453 23.9619 71.0397 24.1506 70.4151 24.1992C69.3261 24.2782 68.2402 24.0083 67.3148 23.4287C66.4459 22.8876 65.7583 22.0994 65.3402 21.165M66.4959 19.6078C66.2789 18.6694 67.0546 17.6876 68.2285 17.4163C69.4024 17.1449 70.5301 17.686 70.7472 18.6251" stroke="black" stroke-width="1.38255" stroke-miterlimit="10" stroke-linecap="round" stroke-linejoin="round"/>
<path d="M72.1977 19.6036C72.352 20.2714 71.8003 20.9703 70.9649 21.1634C70.5314 21.2636 70.0785 21.1621 69.7036 20.9492C69.1223 20.6202 68.7977 19.9346 68.9327 19.2805C68.9525 19.185 68.9825 19.0968 69.0262 19.0236M73.2329 13.8547C73.7141 13.365 74.5992 13.4552 75.2112 14.0561C75.8232 14.657 75.9287 15.5412 75.4481 16.0307M76.4082 25.2637C76.8579 25.7728 77.0885 26.4387 77.0499 27.1169C77.0113 27.795 76.7067 28.4305 76.2022 28.8854C75.6977 29.3402 75.0342 29.5776 74.3557 29.5459C73.6772 29.5142 73.0386 29.2161 72.5786 28.7163M64.5519 16.0373C63.1409 15.8449 61.3084 17.5337 61.2919 19.0205C61.2752 20.4441 62.637 22.4784 64.048 22.6708C63.8843 23.2564 63.8382 23.8687 63.9123 24.4723C63.9864 25.0759 64.1793 25.6588 64.4799 26.1875C64.7804 26.7161 65.1826 27.18 65.6633 27.5525C66.144 27.9249 66.6937 28.1985 67.2807 28.3575C67.8677 28.5164 68.4803 28.5576 69.0833 28.4786C69.6862 28.3996 70.2676 28.202 70.7938 27.8972C71.32 27.5924 71.7807 27.1865 72.1492 26.7028C72.5178 26.2191 72.7869 25.6672 72.9411 25.0789C74.6075 25.125 76.9413 23.3931 76.992 21.298C77.0261 19.8873 75.6856 16.6594 72.4838 17.0186C72.5482 16.4978 72.5094 15.9694 72.3696 15.4636C72.2297 14.9578 71.9917 14.4845 71.6689 14.0707C71.3462 13.6569 70.9451 13.3107 70.4886 13.0519C70.0321 12.7931 69.529 12.6268 69.0082 12.5624C68.4874 12.498 67.959 12.5368 67.4532 12.6766C66.9474 12.8164 66.4741 13.0545 66.0603 13.3772C65.2246 14.029 64.6819 14.9855 64.5519 16.0373Z" stroke="black" stroke-width="1.38255" stroke-miterlimit="10" stroke-linecap="round" stroke-linejoin="round"/>
<path d="M40.13 6.91438C41.5813 8.75426 41.0926 11.5604 41.0926 11.5604C41.0926 11.5604 38.2499 11.3835 36.7978 9.5436C35.3457 7.70371 35.8348 4.89753 35.8348 4.89753C35.8348 4.89753 38.6783 5.07598 40.13 6.91438Z" fill="#B1CC33"/>
<path d="M40.13 6.80574C41.5813 8.64525 41.0926 11.4514 41.0926 11.4514C41.0926 11.4514 38.2499 11.2741 36.7978 9.43422C35.3457 7.59433 35.8348 4.78816 35.8348 4.78816C35.8348 4.78816 38.6779 4.96697 40.1296 6.80537" stroke="black" stroke-width="0.869051" stroke-linecap="round" stroke-linejoin="round"/>
<defs>
<linearGradient id="paint0_linear_7983_38579" x1="99.341" y1="-7.71717" x2="99.341" y2="37.3003" gradientUnits="userSpaceOnUse">
<stop stop-color="#FFB83B"/>
<stop offset="1" stop-color="#FFDEA6"/>
</linearGradient>
<linearGradient id="paint1_linear_7983_38579" x1="99.341" y1="-7.71717" x2="99.341" y2="37.3003" gradientUnits="userSpaceOnUse">
<stop stop-color="#FFB83B"/>
<stop offset="1" stop-color="#FFDEA6"/>
</linearGradient>
<linearGradient id="paint2_linear_7983_38579" x1="99.341" y1="-7.71717" x2="99.341" y2="37.3003" gradientUnits="userSpaceOnUse">
<stop stop-color="#FFB83B"/>
<stop offset="1" stop-color="#FFDEA6"/>
</linearGradient>
<linearGradient id="paint3_linear_7983_38579" x1="99.341" y1="-7.71717" x2="99.341" y2="37.3003" gradientUnits="userSpaceOnUse">
<stop stop-color="#FFB83B"/>
<stop offset="1" stop-color="#FFDEA6"/>
</linearGradient>
<linearGradient id="paint4_linear_7983_38579" x1="99.341" y1="-7.71717" x2="99.341" y2="37.3003" gradientUnits="userSpaceOnUse">
<stop stop-color="#FFB83B"/>
<stop offset="1" stop-color="#FFDEA6"/>
</linearGradient>
<linearGradient id="paint5_linear_7983_38579" x1="99.341" y1="-7.71717" x2="99.341" y2="37.3003" gradientUnits="userSpaceOnUse">
<stop stop-color="#FFB83B"/>
<stop offset="1" stop-color="#FFDEA6"/>
</linearGradient>
<linearGradient id="paint6_linear_7983_38579" x1="99.341" y1="-7.71717" x2="99.341" y2="37.3003" gradientUnits="userSpaceOnUse">
<stop stop-color="#FFB83B"/>
<stop offset="1" stop-color="#FFDEA6"/>
</linearGradient>
<linearGradient id="paint7_linear_7983_38579" x1="99.341" y1="-7.71717" x2="99.341" y2="37.3003" gradientUnits="userSpaceOnUse">
<stop stop-color="#FFB83B"/>
<stop offset="1" stop-color="#FFDEA6"/>
</linearGradient>
<linearGradient id="paint8_linear_7983_38579" x1="99.341" y1="-7.71717" x2="99.341" y2="37.3003" gradientUnits="userSpaceOnUse">
<stop stop-color="#FFB83B"/>
<stop offset="1" stop-color="#FFDEA6"/>
</linearGradient>
<linearGradient id="paint9_linear_7983_38579" x1="99.341" y1="-7.71717" x2="99.341" y2="37.3003" gradientUnits="userSpaceOnUse">
<stop stop-color="#FFB83B"/>
<stop offset="1" stop-color="#FFDEA6"/>
</linearGradient>
<linearGradient id="paint10_linear_7983_38579" x1="99.341" y1="-7.71717" x2="99.341" y2="37.3003" gradientUnits="userSpaceOnUse">
<stop stop-color="#FFB83B"/>
<stop offset="1" stop-color="#FFDEA6"/>
</linearGradient>
</defs>
</svg>
