<svg width="87" height="40" viewBox="0 0 87 40" fill="none" xmlns="http://www.w3.org/2000/svg">
<path d="M19.1959 19.5626L17.5052 8.92096C17.461 8.92096 17.411 8.92671 17.3554 8.9382C17.2997 8.94969 17.2502 8.955 17.2068 8.95411C16.6543 8.95411 16.1849 8.76051 15.7986 8.3733C15.4122 7.98609 15.2186 7.51667 15.2178 6.96503C15.2169 6.41339 15.4105 5.94397 15.7986 5.55676C16.1867 5.16955 16.6561 4.97595 17.2068 4.97595C17.7576 4.97595 18.2275 5.16955 18.6164 5.55676C19.0054 5.94397 19.1986 6.41339 19.1959 6.96503C19.1959 7.11974 19.1791 7.26339 19.1455 7.396C19.1119 7.5286 19.0735 7.65016 19.0302 7.76066L23.1741 9.61714L27.318 3.94826C27.0749 3.77145 26.876 3.53939 26.7213 3.25208C26.5666 2.96476 26.4892 2.65535 26.4892 2.32384C26.4892 1.77131 26.6828 1.30145 27.07 0.91424C27.4572 0.527032 27.9267 0.33387 28.4783 0.334754C29.0299 0.335638 29.4998 0.529242 29.8879 0.915566C30.276 1.30189 30.4692 1.77131 30.4674 2.32384C30.4674 2.65535 30.39 2.96476 30.2353 3.25208C30.0806 3.53939 29.8817 3.77145 29.6386 3.94826L33.7825 9.61714L37.9264 7.76066C37.8822 7.65016 37.8433 7.5286 37.8098 7.396C37.7762 7.26339 37.7598 7.11974 37.7607 6.96503C37.7607 6.41251 37.9543 5.94264 38.3415 5.55543C38.7287 5.16823 39.1981 4.97506 39.7498 4.97595C40.3014 4.97683 40.7713 5.17044 41.1594 5.55676C41.5475 5.94308 41.7406 6.41251 41.7389 6.96503C41.7371 7.51755 41.5439 7.98742 41.1594 8.37463C40.7748 8.76184 40.305 8.955 39.7498 8.95411C39.7056 8.95411 39.6561 8.94881 39.6013 8.9382C39.5464 8.92759 39.4965 8.92185 39.4514 8.92096L37.7607 19.5626H19.1959ZM21.4502 16.9104H35.5064L36.3683 11.3742L32.8874 12.8991L28.4783 6.83243L24.0692 12.8991L20.5883 11.3742L21.4502 16.9104Z" fill="white"/>
<path d="M0 19.5626V0H3.74971V10.3818L8.13994 5.39104H12.757L7.91309 10.5686L13.104 19.5626H9.06069L5.4978 13.1974L3.74971 15.0255V19.5626H0Z" fill="white"/>
<path d="M43.8526 3.95186V0.652042H47.4189V3.95186H43.8526ZM43.8526 19.258V5.77946H47.4189V19.258H43.8526Z" fill="white"/>
<path d="M50.8254 5.77946H52.8052V4.76413C52.8052 3.63034 52.9237 2.78423 53.1606 2.2258C53.406 1.66737 53.8502 1.2147 54.4932 0.867799C55.1447 0.512434 55.9655 0.334751 56.9554 0.334751C57.9707 0.334751 58.9649 0.487051 59.9379 0.79165L59.4557 3.27921C58.8888 3.14383 58.343 3.07614 57.8184 3.07614C57.3023 3.07614 56.93 3.19883 56.7016 3.4442C56.4816 3.68111 56.3716 4.14224 56.3716 4.82758V5.77946H59.0368V8.5843H56.3716V19.258H52.8052V8.5843H50.8254V5.77946Z" fill="white"/>
<path d="M60.7807 5.77946H62.7606V4.76413C62.7606 3.63034 62.879 2.78423 63.1159 2.2258C63.3613 1.66737 63.8055 1.2147 64.4485 0.867799C65.1 0.512434 65.9208 0.334751 66.9107 0.334751C67.926 0.334751 68.9202 0.487051 69.8932 0.79165L69.411 3.27921C68.8441 3.14383 68.2983 3.07614 67.7737 3.07614C67.2576 3.07614 66.8853 3.19883 66.6569 3.4442C66.4369 3.68111 66.3269 4.14224 66.3269 4.82758V5.77946H68.9921V8.5843H66.3269V19.258H62.7606V8.5843H60.7807V5.77946Z" fill="white"/>
<path d="M12.5393 30.2021L9.02374 30.8367C8.90528 30.1344 8.63453 29.6056 8.21147 29.2502C7.79688 28.8948 7.25538 28.7171 6.58695 28.7171C5.69854 28.7171 4.98781 29.026 4.45476 29.6436C3.93017 30.2528 3.66788 31.2766 3.66788 32.715C3.66788 34.3142 3.9344 35.4437 4.46745 36.1037C5.00895 36.7636 5.73238 37.0936 6.63772 37.0936C7.3146 37.0936 7.86881 36.9032 8.30032 36.5225C8.73184 36.1333 9.03643 35.4691 9.21411 34.5299L12.717 35.1264C12.3532 36.734 11.6551 37.9482 10.6229 38.7689C9.59063 39.5896 8.20725 40 6.47273 40C4.5013 40 2.92753 39.3781 1.75144 38.1343C0.583813 36.8906 0 35.1687 0 32.9688C0 30.7436 0.588044 29.0133 1.76413 27.778C2.94022 26.5342 4.53091 25.9123 6.53618 25.9123C8.17763 25.9123 9.48064 26.2677 10.4452 26.9784C11.4182 27.6807 12.1163 28.7552 12.5393 30.2021Z" fill="white"/>
<path d="M19.2202 30.329L15.9838 29.7452C16.3476 28.4422 16.9738 27.4776 17.8622 26.8515C18.7506 26.2254 20.0705 25.9123 21.822 25.9123C23.4126 25.9123 24.5972 26.1027 25.3756 26.4834C26.154 26.8557 26.6998 27.3338 27.0128 27.9176C27.3344 28.4929 27.4951 29.5548 27.4951 31.1032L27.457 35.266C27.457 36.4506 27.5121 37.3263 27.622 37.8932C27.7405 38.4516 27.9562 39.0524 28.2693 39.6954H24.741C24.648 39.4585 24.5337 39.1074 24.3984 38.642C24.3391 38.4305 24.2968 38.2909 24.2715 38.2232C23.6623 38.8154 23.0108 39.2597 22.3169 39.5558C21.6231 39.8519 20.8828 40 20.0959 40C18.7083 40 17.6126 39.6235 16.8088 38.8704C16.0134 38.1174 15.6158 37.1655 15.6158 36.0148C15.6158 35.2533 15.7977 34.5765 16.1615 33.9842C16.5253 33.3834 17.033 32.9265 17.6845 32.6135C18.3445 32.292 19.2921 32.0127 20.5274 31.7758C22.1943 31.4628 23.3492 31.1709 23.9922 30.9001V30.5447C23.9922 29.8594 23.823 29.3729 23.4846 29.0852C23.1461 28.7891 22.5073 28.641 21.5681 28.641C20.9336 28.641 20.4386 28.7679 20.0832 29.0217C19.7279 29.2671 19.4402 29.7029 19.2202 30.329ZM23.9922 33.2227C23.5353 33.375 22.8119 33.5569 21.822 33.7684C20.832 33.9799 20.1847 34.1872 19.8801 34.3903C19.4148 34.7203 19.1821 35.1391 19.1821 35.6468C19.1821 36.146 19.3683 36.5775 19.7405 36.9413C20.1128 37.3051 20.5867 37.4871 21.162 37.4871C21.805 37.4871 22.4185 37.2755 23.0023 36.8525C23.4338 36.531 23.7173 36.1375 23.8526 35.6722C23.9457 35.3676 23.9922 34.788 23.9922 33.9334V33.2227Z" fill="white"/>
<path d="M31.0665 35.8498L34.6456 35.3041C34.7979 35.9979 35.1067 36.5267 35.5721 36.8906C36.0374 37.2459 36.6889 37.4236 37.5266 37.4236C38.4488 37.4236 39.1426 37.2544 39.608 36.9159C39.9211 36.679 40.0776 36.3617 40.0776 35.9641C40.0776 35.6933 39.993 35.4691 39.8238 35.2914C39.6461 35.1222 39.2484 34.9657 38.6308 34.8218C35.754 34.1872 33.9306 33.6077 33.1607 33.0831C32.0946 32.3554 31.5615 31.3443 31.5615 30.0498C31.5615 28.8821 32.0226 27.9007 32.9449 27.1053C33.8672 26.31 35.2971 25.9123 37.2347 25.9123C39.0792 25.9123 40.4499 26.2127 41.3467 26.8134C42.2436 27.4141 42.8613 28.3026 43.1997 29.4786L39.8365 30.1005C39.6926 29.576 39.4176 29.174 39.0115 28.8948C38.6138 28.6156 38.0427 28.476 37.2981 28.476C36.359 28.476 35.6863 28.6072 35.2802 28.8695C35.0094 29.0556 34.874 29.2967 34.874 29.5929C34.874 29.8467 34.9925 30.0625 35.2294 30.2401C35.5509 30.4771 36.6593 30.8113 38.5546 31.2428C40.4584 31.6743 41.7867 32.2031 42.5398 32.8292C43.2843 33.4638 43.6566 34.348 43.6566 35.4818C43.6566 36.7171 43.1405 37.779 42.1082 38.6674C41.076 39.5558 39.5488 40 37.5266 40C35.6905 40 34.2352 39.6277 33.1607 38.8831C32.0946 38.1386 31.3965 37.1275 31.0665 35.8498Z" fill="white"/>
<path d="M48.0911 24.3893V21.0895H51.6574V24.3893H48.0911ZM48.0911 39.6954V26.2169H51.6574V39.6954H48.0911Z" fill="white"/>
<path d="M68.885 39.6954H65.3187V32.8165C65.3187 31.3612 65.2425 30.4221 65.0902 29.999C64.9379 29.5675 64.6883 29.2333 64.3414 28.9964C64.003 28.7595 63.5926 28.641 63.1103 28.641C62.4927 28.641 61.9385 28.8102 61.4478 29.1487C60.957 29.4871 60.6186 29.9355 60.4324 30.494C60.2547 31.0524 60.1659 32.0847 60.1659 33.5907V39.6954H56.5995V26.2169H59.9121V28.1968C61.0881 26.6738 62.5688 25.9123 64.3541 25.9123C65.141 25.9123 65.8602 26.0561 66.5117 26.3438C67.1632 26.623 67.6539 26.9826 67.9839 27.4226C68.3224 27.8626 68.5551 28.3618 68.682 28.9202C68.8173 29.4786 68.885 30.2782 68.885 31.3189V39.6954Z" fill="white"/>
<path d="M72.9895 32.7658C72.9895 31.5812 73.2814 30.4347 73.8652 29.3263C74.449 28.2179 75.274 27.3718 76.3401 26.788C77.4146 26.2042 78.6119 25.9123 79.9318 25.9123C81.9709 25.9123 83.642 26.5765 84.945 27.9049C86.248 29.2248 86.8995 30.8959 86.8995 32.9181C86.8995 34.9572 86.2396 36.6494 84.9196 37.9947C83.6082 39.3316 81.954 40 79.9572 40C78.7219 40 77.5416 39.7208 76.4162 39.1624C75.2994 38.6039 74.449 37.7874 73.8652 36.7129C73.2814 35.6299 72.9895 34.3142 72.9895 32.7658ZM76.6447 32.9562C76.6447 34.293 76.962 35.3168 77.5966 36.0275C78.2311 36.7383 79.0138 37.0936 79.9445 37.0936C80.8752 37.0936 81.6536 36.7383 82.2798 36.0275C82.9143 35.3168 83.2316 34.2845 83.2316 32.9308C83.2316 31.6108 82.9143 30.5955 82.2798 29.8848C81.6536 29.174 80.8752 28.8187 79.9445 28.8187C79.0138 28.8187 78.2311 29.174 77.5966 29.8848C76.962 30.5955 76.6447 31.6193 76.6447 32.9562Z" fill="white"/>
</svg>
