<svg width="107" height="48" viewBox="0 0 107 48" fill="none" xmlns="http://www.w3.org/2000/svg">
<path d="M14.6317 6.1249C14.367 5.14945 13.9738 4.31011 13.4521 3.60688C12.9303 2.90366 12.3103 2.363 11.5919 1.98492C10.8736 1.59928 10.0834 1.40646 9.22138 1.40646C8.45009 1.40646 7.74308 1.59928 7.10035 1.98492C6.46517 2.37056 5.91317 2.915 5.44435 3.61823C4.9831 4.32146 4.62392 5.15701 4.36683 6.1249C4.11729 7.08522 3.99253 8.14763 3.99253 9.31212C3.99253 10.4312 4.13242 11.4483 4.4122 12.3632C4.69954 13.2706 5.10786 14.0495 5.63718 14.6998C6.17405 15.3501 6.813 15.8491 7.55404 16.197C8.29508 16.5448 9.12308 16.7187 10.038 16.7187C10.9152 16.7187 11.7167 16.5561 12.4426 16.231C13.1685 15.8983 13.7999 15.4219 14.3368 14.8018C14.8737 14.1742 15.2971 13.4181 15.6072 12.5334L16.6733 13.1458C16.2726 14.2952 15.6941 15.2782 14.9379 16.0949C14.1818 16.904 13.2782 17.5202 12.2271 17.9437C11.1836 18.3671 10.0191 18.5789 8.73365 18.5789C7.44062 18.5789 6.26101 18.3596 5.19482 17.921C4.12864 17.4749 3.20612 16.8473 2.42727 16.0382C1.65599 15.2215 1.05862 14.2574 0.635175 13.1458C0.211725 12.0267 0 10.7942 0 9.44822C0 8.02664 0.211725 6.73739 0.635175 5.58046C1.05862 4.41598 1.66355 3.41784 2.44996 2.58607C3.23637 1.75429 4.17779 1.11534 5.27422 0.669202C6.37065 0.223067 7.59185 0 8.93782 0C9.62592 0 10.3254 0.0831776 11.0362 0.249533C11.7545 0.408327 12.4956 0.665421 13.2593 1.02082C13.4332 1.08887 13.5882 1.14558 13.7243 1.19095C13.8604 1.22876 13.9852 1.24766 14.0986 1.24766C14.2877 1.25523 14.42 1.18717 14.4956 1.0435C14.5788 0.899831 14.6241 0.642736 14.6317 0.272218H15.7206V6.1249H14.6317Z" fill="white"/>
<path d="M26.6206 0.113424H29.2407L34.4469 13.747C34.6662 14.3292 34.8817 14.817 35.0934 15.2102C35.3051 15.6034 35.532 15.9247 35.7739 16.1743C36.0159 16.4238 36.2844 16.6128 36.5793 16.7414C36.8817 16.8699 37.2296 16.9569 37.6228 17.0023V18.1138H28.9345V16.9796C29.7058 16.9796 30.2615 16.8964 30.6018 16.73C30.9496 16.5637 31.1236 16.2953 31.1236 15.9247C31.1236 15.7508 31.0933 15.5542 31.0328 15.3349C30.9799 15.1081 30.8702 14.764 30.7039 14.3028L29.9893 12.2611H23.8304L23.5241 13.1685C23.3805 13.5995 23.2633 13.9512 23.1725 14.2234C23.0894 14.4956 23.0251 14.7111 22.9797 14.8699C22.9419 15.0287 22.9154 15.1572 22.9003 15.2555C22.8852 15.3463 22.8776 15.4332 22.8776 15.5164C22.8776 15.9399 23.0705 16.2764 23.4561 16.5259C23.8493 16.7679 24.4542 16.9266 25.2709 17.0023V18.1138H18.1819V17.025C18.6734 16.9115 19.1006 16.7603 19.4636 16.5713C19.8265 16.3822 20.1517 16.1327 20.439 15.8227C20.7264 15.5126 20.991 15.1194 21.233 14.643C21.4825 14.1591 21.7358 13.5731 21.9929 12.885L26.6206 0.113424ZM26.8475 3.33467L24.2501 10.866H29.5923L26.8475 3.33467Z" fill="white"/>
<path d="M40.6398 11.5352C40.7835 12.3065 40.999 13.0022 41.2864 13.6222C41.5737 14.2423 41.9556 14.8321 42.4319 15.3916C42.9234 15.9739 43.5435 16.4276 44.2921 16.7527C45.0483 17.0703 45.8611 17.2291 46.7307 17.2291C47.4869 17.2291 48.1372 17.1195 48.6816 16.9002C49.2336 16.6733 49.6571 16.3557 49.952 15.9474C50.2469 15.5315 50.3943 15.0362 50.3943 14.4616C50.3943 13.6222 50.0843 12.9984 49.4642 12.5901C49.313 12.4842 49.1051 12.3557 48.8404 12.2044C48.5757 12.0532 48.2771 11.8944 47.9443 11.728C47.6116 11.5541 47.2676 11.384 46.9122 11.2176C46.5644 11.0437 46.2316 10.8887 45.9141 10.7526L44.587 10.1741C43.12 9.52384 41.9442 8.80171 41.0595 8.00774C40.6058 7.60697 40.2731 7.15706 40.0614 6.65799C39.8572 6.15136 39.7551 5.55778 39.7551 4.87723C39.7551 4.1362 39.9064 3.467 40.2088 2.86963C40.5113 2.27226 40.9461 1.76185 41.5132 1.3384C42.0803 0.907393 42.7571 0.578463 43.5435 0.351615C44.3375 0.117205 45.226 0 46.209 0C46.6173 0 47.0143 0.0340272 47.3999 0.102082C47.7856 0.162574 48.1977 0.264656 48.6362 0.408327C49.0824 0.551997 49.5928 0.748599 50.1675 0.998132C50.3187 1.05106 50.4435 1.09265 50.5418 1.1229C50.6401 1.15314 50.7232 1.16449 50.7913 1.15693C51.003 1.13424 51.1429 0.8469 51.211 0.294903H52.4813V5.87537H51.4378C51.1278 4.96041 50.7157 4.15888 50.2015 3.47078C49.6873 2.78267 49.1126 2.24958 48.4774 1.8715C47.8423 1.48585 47.1882 1.29303 46.5152 1.29303C45.5171 1.29303 44.7269 1.52744 44.1446 1.99626C43.57 2.46508 43.2826 3.10782 43.2826 3.92447C43.2826 4.31768 43.3469 4.65039 43.4754 4.9226C43.6115 5.18726 43.8195 5.41789 44.0993 5.61449C44.5303 5.90183 44.9613 6.16271 45.3923 6.39712C45.8309 6.63153 46.3148 6.85837 46.8441 7.07766L48.1145 7.61075C48.848 7.91322 49.4642 8.18544 49.9633 8.42741C50.4699 8.66182 50.8972 8.88488 51.245 9.09661C51.5928 9.30077 51.8991 9.5125 52.1637 9.73178C52.746 10.193 53.1883 10.7526 53.4908 11.4105C53.7933 12.0608 53.9445 12.7715 53.9445 13.5428C53.9445 14.42 53.8046 15.1572 53.5248 15.7546C53.2526 16.3444 52.7913 16.8662 52.141 17.3199C51.5361 17.7584 50.8291 18.076 50.02 18.2726C49.2185 18.4768 48.2355 18.5789 47.071 18.5789C46.3299 18.5789 45.6759 18.5411 45.1087 18.4654C44.5416 18.3898 44.0199 18.2688 43.5435 18.1025C43.0747 17.9361 42.6021 17.7168 42.1257 17.4446C41.9064 17.3009 41.7438 17.2064 41.638 17.1611C41.5321 17.1157 41.43 17.1006 41.3317 17.1157C41.1881 17.1233 41.0482 17.2556 40.9121 17.5127C40.7835 17.7622 40.7079 18.0571 40.6852 18.3974H39.5056V11.5352H40.6398Z" fill="white"/>
<path d="M56.3604 0.465039H66.0695V1.59928C65.389 1.62953 64.8445 1.67868 64.4362 1.74673C64.0279 1.80722 63.7179 1.91309 63.5061 2.06432C63.302 2.20799 63.1696 2.41971 63.1091 2.69949C63.0487 2.97927 63.0222 3.34601 63.0297 3.79971V14.7224C63.0146 15.1761 63.0411 15.5467 63.1091 15.834C63.1772 16.1138 63.3171 16.3331 63.5288 16.4919C63.7405 16.6431 64.0506 16.7565 64.4589 16.8321C64.8672 16.9002 65.4041 16.9493 66.0695 16.9796V18.1138H56.3604V16.9796C57.0334 16.9418 57.574 16.8888 57.9824 16.8208C58.3907 16.7452 58.6969 16.6317 58.9011 16.4805C59.1128 16.3217 59.2527 16.1024 59.3208 15.8227C59.3888 15.5429 59.4153 15.1761 59.4002 14.7224V3.79971C59.4153 3.34601 59.3888 2.97927 59.3208 2.69949C59.2603 2.41971 59.1242 2.20421 58.9125 2.05298C58.7083 1.90174 58.402 1.79588 57.9937 1.73539C57.5854 1.66733 57.041 1.62196 56.3604 1.59928V0.465039Z" fill="white"/>
<path d="M67.907 0.465039H74.1793L82.3799 12.6808H82.4706V5.47838C82.4782 4.55587 82.3912 3.82239 82.2098 3.27796C82.0358 2.73352 81.7334 2.33275 81.3024 2.07566C80.8713 1.81857 80.2853 1.65977 79.5443 1.59928V0.465039H86.5766V1.59928C85.896 1.65221 85.3629 1.80722 84.9773 2.06432C84.5917 2.31385 84.3194 2.71462 84.1606 3.26661C84.0094 3.81105 83.9414 4.5483 83.9565 5.47838V18.3974H81.4498L71.6953 3.36869H71.5933V13.1005C71.5857 14.0079 71.6764 14.7376 71.8655 15.2896C72.0545 15.834 72.3683 16.2385 72.8069 16.5032C73.2455 16.7603 73.8353 16.9191 74.5763 16.9796V18.1138H67.4419V16.9796C68.1225 16.9191 68.6594 16.7603 69.0526 16.5032C69.4458 16.2385 69.7218 15.834 69.8806 15.2896C70.0469 14.7376 70.1225 14.0079 70.1074 13.1005V3.64091C70.1528 3.17209 70.1112 2.79779 69.9826 2.51801C69.8617 2.23823 69.6348 2.02651 69.3021 1.88284C68.9694 1.73917 68.5043 1.63709 67.907 1.57659V0.465039Z" fill="white"/>
<path d="M97.4653 0C98.8264 0 100.07 0.226848 101.197 0.680544C102.324 1.12668 103.295 1.76185 104.112 2.58607C104.936 3.41028 105.571 4.38951 106.017 5.52375C106.464 6.65799 106.687 7.91322 106.687 9.28943C106.687 10.6581 106.464 11.9095 106.017 13.0438C105.571 14.178 104.936 15.161 104.112 15.9928C103.295 16.817 102.324 17.456 101.197 17.9097C100.07 18.3558 98.8264 18.5789 97.4653 18.5789C96.1042 18.5789 94.8603 18.3558 93.7336 17.9097C92.607 17.456 91.6315 16.817 90.8073 15.9928C89.9906 15.161 89.3592 14.178 88.9131 13.0438C88.467 11.9095 88.2439 10.6581 88.2439 9.28943C88.2439 7.91322 88.467 6.65799 88.9131 5.52375C89.3592 4.38951 89.9906 3.41028 90.8073 2.58607C91.6315 1.76185 92.607 1.12668 93.7336 0.680544C94.8603 0.226848 96.1042 0 97.4653 0ZM97.4653 1.27035C96.7016 1.27035 96.0021 1.46695 95.3669 1.86015C94.7393 2.2458 94.1949 2.79401 93.7336 3.5048C93.2799 4.21559 92.9283 5.06249 92.6788 6.0455C92.4293 7.02095 92.3045 8.10226 92.3045 9.28943C92.3045 10.469 92.4255 11.5466 92.6674 12.522C92.917 13.4899 93.2686 14.3255 93.7223 15.0287C94.1836 15.7319 94.728 16.2764 95.3556 16.662C95.9908 17.0401 96.694 17.2291 97.4653 17.2291C98.229 17.2291 98.9247 17.0401 99.5523 16.662C100.187 16.2764 100.732 15.7319 101.186 15.0287C101.647 14.3255 101.998 13.4899 102.24 12.522C102.49 11.5466 102.615 10.469 102.615 9.28943C102.615 8.10226 102.49 7.02095 102.24 6.0455C101.991 5.06249 101.636 4.21559 101.174 3.5048C100.721 2.79401 100.18 2.2458 99.5523 1.86015C98.9247 1.46695 98.229 1.27035 97.4653 1.27035Z" fill="white"/>
<path d="M0.545771 40.3106H3.34739L5.27772 44.9223L7.16472 40.3106H9.91339V40.792C9.62136 40.8017 9.39832 40.8337 9.24428 40.8883C9.09023 40.9429 8.98594 41.0359 8.93138 41.1675C8.88003 41.2959 8.85917 41.482 8.8688 41.7259V46.3808C8.86238 46.567 8.87201 46.7194 8.89768 46.8381C8.92657 46.9569 8.98112 47.0515 9.06135 47.1221C9.14158 47.1895 9.2539 47.2377 9.39832 47.2666C9.54594 47.2954 9.73368 47.3131 9.96153 47.3195V47.8009H6.27417V47.3195C6.50523 47.3131 6.69297 47.2954 6.83738 47.2666C6.98501 47.2345 7.09733 47.1847 7.17435 47.1173C7.25458 47.0499 7.30914 46.9569 7.33802 46.8381C7.3669 46.7194 7.37813 46.567 7.37171 46.3808V41.4804H7.33802L5.04184 47.0692H4.56047L2.17283 41.3552H2.14395V45.8898C2.14074 46.4033 2.22418 46.7707 2.39426 46.9922C2.56435 47.2104 2.84515 47.3195 3.23668 47.3195V47.8009H0.46875V47.3195C0.841016 47.3227 1.10898 47.2104 1.27265 46.9825C1.43953 46.7515 1.51976 46.3872 1.51334 45.8898V41.7259C1.52297 41.5109 1.4989 41.3392 1.44113 41.2108C1.38658 41.0792 1.28709 40.9814 1.14268 40.9172C0.998266 40.8498 0.799296 40.8049 0.545771 40.7824V40.3106Z" fill="white"/>
<path d="M22.2677 40.1133C22.8453 40.1133 23.3732 40.2096 23.8514 40.4021C24.3296 40.5915 24.742 40.861 25.0886 41.2108C25.4384 41.5606 25.7079 41.9762 25.8973 42.4576C26.0866 42.939 26.1813 43.4717 26.1813 44.0558C26.1813 44.6366 26.0866 45.1678 25.8973 45.6491C25.7079 46.1305 25.4384 46.5477 25.0886 46.9007C24.742 47.2505 24.3296 47.5217 23.8514 47.7142C23.3732 47.9036 22.8453 47.9983 22.2677 47.9983C21.69 47.9983 21.1621 47.9036 20.6839 47.7142C20.2058 47.5217 19.7918 47.2505 19.442 46.9007C19.0954 46.5477 18.8274 46.1305 18.6381 45.6491C18.4487 45.1678 18.3541 44.6366 18.3541 44.0558C18.3541 43.4717 18.4487 42.939 18.6381 42.4576C18.8274 41.9762 19.0954 41.5606 19.442 41.2108C19.7918 40.861 20.2058 40.5915 20.6839 40.4021C21.1621 40.2096 21.69 40.1133 22.2677 40.1133ZM22.2677 40.6524C21.9435 40.6524 21.6467 40.7359 21.3771 40.9027C21.1108 41.0664 20.8797 41.2991 20.6839 41.6007C20.4914 41.9024 20.3422 42.2618 20.2363 42.679C20.1304 43.093 20.0774 43.5519 20.0774 44.0558C20.0774 44.5564 20.1288 45.0137 20.2314 45.4277C20.3374 45.8385 20.4866 46.1931 20.6791 46.4915C20.8749 46.79 21.1059 47.0211 21.3723 47.1847C21.6419 47.3452 21.9403 47.4254 22.2677 47.4254C22.5918 47.4254 22.8871 47.3452 23.1534 47.1847C23.423 47.0211 23.654 46.79 23.8466 46.4915C24.0424 46.1931 24.1916 45.8385 24.2943 45.4277C24.4002 45.0137 24.4531 44.5564 24.4531 44.0558C24.4531 43.5519 24.4002 43.093 24.2943 42.679C24.1884 42.2618 24.0375 41.9024 23.8418 41.6007C23.6492 41.2991 23.4198 41.0664 23.1534 40.9027C22.8871 40.7359 22.5918 40.6524 22.2677 40.6524Z" fill="white"/>
<path d="M34.7712 40.3106H37.4332L40.9136 45.4951H40.9521V42.4383C40.9553 42.0468 40.9184 41.7355 40.8414 41.5045C40.7676 41.2734 40.6392 41.1033 40.4563 40.9942C40.2733 40.8851 40.0246 40.8177 39.7101 40.792V40.3106H42.6947V40.792C42.4058 40.8145 42.1796 40.8803 42.0159 40.9894C41.8523 41.0953 41.7367 41.2654 41.6693 41.4997C41.6052 41.7307 41.5763 42.0436 41.5827 42.4383V47.9212H40.5188L36.379 41.543H36.3357V45.6732C36.3325 46.0583 36.371 46.368 36.4512 46.6023C36.5314 46.8333 36.6646 47.005 36.8507 47.1173C37.0369 47.2264 37.2872 47.2938 37.6017 47.3195V47.8009H34.5738V47.3195C34.8626 47.2938 35.0905 47.2264 35.2574 47.1173C35.4243 47.005 35.5414 46.8333 35.6088 46.6023C35.6794 46.368 35.7115 46.0583 35.7051 45.6732V41.6585C35.7243 41.4595 35.7067 41.3007 35.6521 41.1819C35.6008 41.0632 35.5045 40.9733 35.3633 40.9124C35.2221 40.8514 35.0247 40.8081 34.7712 40.7824V40.3106Z" fill="white"/>
<path d="M57.3692 42.7127C57.2569 42.2987 57.09 41.9425 56.8686 41.6441C56.6471 41.3456 56.384 41.1162 56.0791 40.9557C55.7742 40.792 55.4389 40.7102 55.073 40.7102C54.7457 40.7102 54.4456 40.792 54.1729 40.9557C53.9033 41.1194 53.669 41.3504 53.47 41.6489C53.2743 41.9473 53.1218 42.3019 53.0127 42.7127C52.9068 43.1203 52.8539 43.5712 52.8539 44.0654C52.8539 44.5404 52.9132 44.972 53.032 45.3603C53.1539 45.7454 53.3272 46.076 53.5519 46.3519C53.7797 46.6279 54.0509 46.8397 54.3654 46.9874C54.6799 47.135 55.0313 47.2088 55.4196 47.2088C55.7919 47.2088 56.1321 47.1398 56.4401 47.0018C56.7482 46.8606 57.0162 46.6584 57.244 46.3953C57.4719 46.1289 57.6516 45.808 57.7832 45.4325L58.2357 45.6925C58.0656 46.1803 57.8201 46.5974 57.4992 46.944C57.1783 47.2874 56.7948 47.549 56.3487 47.7287C55.9058 47.9084 55.4116 47.9983 54.866 47.9983C54.3173 47.9983 53.8166 47.9052 53.3641 47.7191C52.9116 47.5297 52.5201 47.2634 52.1896 46.92C51.8622 46.5734 51.6087 46.1642 51.429 45.6925C51.2493 45.2175 51.1594 44.6944 51.1594 44.1232C51.1594 43.5198 51.2493 42.9727 51.429 42.4817C51.6087 41.9874 51.8654 41.5638 52.1992 41.2108C52.533 40.8578 52.9325 40.5866 53.3978 40.3973C53.8632 40.208 54.3815 40.1133 54.9527 40.1133C55.2447 40.1133 55.5416 40.1486 55.8432 40.2192C56.1481 40.2866 56.4626 40.3957 56.7867 40.5465C56.8605 40.5754 56.9263 40.5995 56.9841 40.6187C57.0419 40.6348 57.0948 40.6428 57.143 40.6428C57.2232 40.646 57.2794 40.6171 57.3114 40.5561C57.3467 40.4952 57.366 40.3861 57.3692 40.2288H57.8313V42.7127H57.3692Z" fill="white"/>
<path d="M66.8545 40.3106H73.5167L73.6756 42.939H73.2424C73.1974 42.6566 73.1124 42.3934 72.9872 42.1495C72.8653 41.9056 72.7144 41.6922 72.5347 41.5093C72.355 41.3264 72.1544 41.1835 71.933 41.0809C71.7148 40.9749 71.4869 40.9204 71.2495 40.9172H70.9414V46.3808C70.935 46.567 70.9462 46.721 70.9751 46.8429C71.004 46.9617 71.0585 47.0564 71.1387 47.127C71.2222 47.1944 71.3393 47.2425 71.4901 47.2714C71.641 47.297 71.8367 47.3131 72.0774 47.3195V47.8009H68.2938V47.3195C68.5345 47.3131 68.7302 47.2954 68.8811 47.2666C69.0319 47.2377 69.1474 47.1895 69.2277 47.1221C69.3079 47.0548 69.3624 46.9617 69.3913 46.8429C69.4202 46.721 69.4314 46.567 69.425 46.3808V40.9172H69.1218C68.8843 40.9204 68.6548 40.9749 68.4334 41.0809C68.2152 41.1835 68.0162 41.3264 67.8365 41.5093C67.6568 41.6922 67.5043 41.9056 67.3792 42.1495C67.2572 42.3934 67.1738 42.6566 67.1289 42.939H66.6956L66.8545 40.3106Z" fill="white"/>
<path d="M85.9625 40.1133C86.5401 40.1133 87.0681 40.2096 87.5462 40.4021C88.0244 40.5915 88.4368 40.861 88.7834 41.2108C89.1332 41.5606 89.4027 41.9762 89.5921 42.4576C89.7814 42.939 89.8761 43.4717 89.8761 44.0558C89.8761 44.6366 89.7814 45.1678 89.5921 45.6491C89.4027 46.1305 89.1332 46.5477 88.7834 46.9007C88.4368 47.2505 88.0244 47.5217 87.5462 47.7142C87.0681 47.9036 86.5401 47.9983 85.9625 47.9983C85.3848 47.9983 84.8569 47.9036 84.3788 47.7142C83.9006 47.5217 83.4866 47.2505 83.1368 46.9007C82.7902 46.5477 82.5222 46.1305 82.3329 45.6491C82.1436 45.1678 82.0489 44.6366 82.0489 44.0558C82.0489 43.4717 82.1436 42.939 82.3329 42.4576C82.5222 41.9762 82.7902 41.5606 83.1368 41.2108C83.4866 40.861 83.9006 40.5915 84.3788 40.4021C84.8569 40.2096 85.3848 40.1133 85.9625 40.1133ZM85.9625 40.6524C85.6384 40.6524 85.3415 40.7359 85.0719 40.9027C84.8056 41.0664 84.5745 41.2991 84.3788 41.6007C84.1862 41.9024 84.037 42.2618 83.9311 42.679C83.8252 43.093 83.7722 43.5519 83.7722 44.0558C83.7722 44.5564 83.8236 45.0137 83.9263 45.4277C84.0322 45.8385 84.1814 46.1931 84.3739 46.4915C84.5697 46.79 84.8008 47.0211 85.0671 47.1847C85.3367 47.3452 85.6352 47.4254 85.9625 47.4254C86.2866 47.4254 86.5819 47.3452 86.8482 47.1847C87.1178 47.0211 87.3489 46.79 87.5414 46.4915C87.7372 46.1931 87.8864 45.8385 87.9891 45.4277C88.095 45.0137 88.1479 44.5564 88.1479 44.0558C88.1479 43.5519 88.095 43.093 87.9891 42.679C87.8832 42.2618 87.7324 41.9024 87.5366 41.6007C87.344 41.2991 87.1146 41.0664 86.8482 40.9027C86.5819 40.7359 86.2866 40.6524 85.9625 40.6524Z" fill="white"/>
<path d="M98.466 40.3106H101.128L104.608 45.4951H104.647V42.4383C104.65 42.0468 104.613 41.7355 104.536 41.5045C104.462 41.2734 104.334 41.1033 104.151 40.9942C103.968 40.8851 103.719 40.8177 103.405 40.792V40.3106H106.389V40.792C106.101 40.8145 105.874 40.8803 105.711 40.9894C105.547 41.0953 105.432 41.2654 105.364 41.4997C105.3 41.7307 105.271 42.0436 105.278 42.4383V47.9212H104.214L100.074 41.543H100.03V45.6732C100.027 46.0583 100.066 46.368 100.146 46.6023C100.226 46.8333 100.359 47.005 100.546 47.1173C100.732 47.2264 100.982 47.2938 101.297 47.3195V47.8009H98.2686V47.3195C98.5575 47.2938 98.7853 47.2264 98.9522 47.1173C99.1191 47.005 99.2362 46.8333 99.3036 46.6023C99.3742 46.368 99.4063 46.0583 99.3999 45.6732V41.6585C99.4191 41.4595 99.4015 41.3007 99.3469 41.1819C99.2956 41.0632 99.1993 40.9733 99.0581 40.9124C98.9169 40.8514 98.7195 40.8081 98.466 40.7824V40.3106Z" fill="white"/>
<path d="M1.40234 34.9469V32.0832C3.91635 32.0832 6.06279 31.9731 7.84166 31.7528C9.62054 31.5325 11.4185 31.2937 13.2355 31.0362C15.0525 30.7787 17.0689 30.5462 19.2847 30.3386C21.5005 30.131 24.2087 30.0273 27.4093 30.0273C30.7035 30.0273 33.4134 30.1315 35.5391 30.3401C37.6647 30.5486 39.636 30.7806 41.453 31.0362C43.2701 31.2917 45.0905 31.5306 46.9145 31.7528C48.7385 31.9751 50.9057 32.0852 53.4162 32.0832C55.9268 32.0813 58.094 31.9711 59.918 31.7528C61.7419 31.5345 63.5624 31.2956 65.3794 31.0362C67.1964 30.7767 69.1903 30.5442 71.361 30.3386C73.5317 30.133 76.2191 30.0292 79.4232 30.0273C82.7174 30.0273 85.4481 30.1315 87.6154 30.3401C89.7826 30.5486 91.7765 30.7806 93.597 31.0362C95.4174 31.2917 97.2379 31.5306 99.0584 31.7528C100.879 31.9751 103.003 32.0852 105.43 32.0832V34.9469C102.136 34.9469 99.3826 34.8368 97.1703 34.6165C94.958 34.3962 92.9433 34.1578 91.1263 33.9013C89.3093 33.6448 87.5321 33.4123 85.7949 33.2038C84.0576 32.9952 81.9337 32.891 79.4232 32.891C76.9959 32.891 74.8928 32.9952 73.1139 33.2038C71.335 33.4123 69.5579 33.6448 67.7825 33.9013C66.0071 34.1578 64.0132 34.3962 61.8009 34.6165C59.5886 34.8368 56.7937 34.9469 53.4162 34.9469C50.0388 34.9469 47.2422 34.8368 45.0264 34.6165C42.8106 34.3962 40.8167 34.1578 39.0448 33.9013C37.2729 33.6448 35.5183 33.4123 33.781 33.2038C32.0437 32.9952 29.9198 32.891 27.4093 32.891C24.982 32.891 22.8789 32.9952 21.1 33.2038C19.3211 33.4123 17.5232 33.6448 15.7062 33.9013C13.8891 34.1578 11.8727 34.3962 9.65695 34.6165C7.44116 34.8368 4.68962 34.9469 1.40234 34.9469ZM1.40234 28.4119V25.5482C3.91635 25.5482 6.06105 25.438 7.83646 25.2177C9.61187 24.9975 11.4115 24.7591 13.2355 24.5026C15.0595 24.246 17.0741 24.0135 19.2795 23.805C21.4849 23.5965 24.1948 23.4922 27.4093 23.4922C30.7035 23.4922 33.4134 23.5965 35.5391 23.805C37.6647 24.0135 39.636 24.246 41.453 24.5026C43.2701 24.7591 45.0905 24.9975 46.9145 25.2177C48.7385 25.438 50.9057 25.5482 53.4162 25.5482C55.9268 25.5482 58.094 25.438 59.918 25.2177C61.7419 24.9975 63.5624 24.7586 65.3794 24.5011C67.1964 24.2436 69.1903 24.0116 71.361 23.805C73.5317 23.5984 76.2191 23.4941 79.4232 23.4922C82.7174 23.4922 85.4481 23.5965 87.6154 23.805C89.7826 24.0135 91.7765 24.246 93.597 24.5026C95.4174 24.7591 97.2379 24.9975 99.0584 25.2177C100.879 25.438 103.003 25.5482 105.43 25.5482V28.4119C102.136 28.4119 99.3826 28.3017 97.1703 28.0814C94.958 27.8611 92.9433 27.6227 91.1263 27.3662C89.3093 27.1097 87.5321 26.8772 85.7949 26.6687C84.0576 26.4601 81.9337 26.3559 79.4232 26.3559C76.9959 26.3559 74.8928 26.4601 73.1139 26.6687C71.335 26.8772 69.5579 27.1097 67.7825 27.3662C66.0071 27.6227 64.0132 27.8611 61.8009 28.0814C59.5886 28.3017 56.7937 28.4119 53.4162 28.4119C50.0388 28.4119 47.2422 28.3017 45.0264 28.0814C42.8106 27.8611 40.8167 27.6223 39.0448 27.3648C37.2729 27.1073 35.5183 26.8753 33.781 26.6687C32.0437 26.4621 29.9198 26.3578 27.4093 26.3559C24.982 26.3559 22.8789 26.4601 21.1 26.6687C19.3211 26.8772 17.5232 27.1097 15.7062 27.3662C13.8891 27.6227 11.8727 27.8611 9.65695 28.0814C7.44116 28.3017 4.68962 28.4119 1.40234 28.4119Z" fill="#FF0054"/>
</svg>
