<svg width="156" height="32" viewBox="0 0 156 32" fill="none" xmlns="http://www.w3.org/2000/svg">
<path d="M31.8918 23.063H29.1066V12.2174H25.5283V9.89339H35.4701V12.2174H31.8918V23.063Z" fill="#DEBB4E"/>
<path d="M45.1313 18.0091C45.1313 18.8453 45.0145 19.5892 44.7809 20.241C44.5595 20.8927 44.2337 21.446 43.8033 21.901C43.3852 22.3437 42.8749 22.6818 42.2724 22.9155C41.6698 23.1368 40.9874 23.2475 40.225 23.2475C39.5241 23.2475 38.8724 23.1368 38.2698 22.9155C37.6796 22.6818 37.1693 22.3437 36.7389 21.901C36.3085 21.446 35.9704 20.8927 35.7244 20.241C35.4908 19.5892 35.374 18.8453 35.374 18.0091C35.374 16.8901 35.5707 15.9495 35.9642 15.1871C36.3577 14.4124 36.9234 13.8221 37.6612 13.4164C38.399 13.0106 39.272 12.8077 40.2803 12.8077C41.2272 12.8077 42.0633 13.0106 42.7888 13.4164C43.5143 13.8221 44.0861 14.4124 44.5042 15.1871C44.9223 15.9495 45.1313 16.8901 45.1313 18.0091ZM38.1776 18.0091C38.1776 18.6731 38.2452 19.2326 38.3805 19.6876C38.5281 20.1303 38.7556 20.4684 39.063 20.7021C39.3704 20.9234 39.77 21.0341 40.2619 21.0341C40.7537 21.0341 41.1472 20.9234 41.4424 20.7021C41.7498 20.4684 41.9711 20.1303 42.1064 19.6876C42.2539 19.2326 42.3277 18.6731 42.3277 18.0091C42.3277 17.3451 42.2539 16.7918 42.1064 16.3491C41.9711 15.9064 41.7498 15.5744 41.4424 15.3531C41.1349 15.1317 40.7353 15.0211 40.2434 15.0211C39.5179 15.0211 38.9892 15.2731 38.6572 15.7773C38.3375 16.2692 38.1776 17.0131 38.1776 18.0091Z" fill="#DEBB4E"/>
<path d="M51.645 21.0525C51.9524 21.0525 52.2475 21.0218 52.5303 20.9603C52.8131 20.8988 53.096 20.825 53.3788 20.739V22.7864C53.0837 22.9093 52.7148 23.0138 52.2721 23.0999C51.8417 23.1983 51.3683 23.2475 50.8518 23.2475C50.2493 23.2475 49.7083 23.1491 49.2287 22.9524C48.7614 22.7556 48.3864 22.4175 48.1036 21.9379C47.833 21.446 47.6978 20.7697 47.6978 19.909V15.058H46.3882V13.8959L47.9007 12.9737L48.6938 10.8525H50.4461V12.9921H53.2681V15.058H50.4461V19.909C50.4461 20.2901 50.5567 20.5791 50.7781 20.7759C50.9994 20.9603 51.2884 21.0525 51.645 21.0525Z" fill="#DEBB4E"/>
<path d="M59.5319 12.7892C60.8845 12.7892 61.9174 13.0843 62.6306 13.6746C63.3561 14.2525 63.7189 15.144 63.7189 16.3491V23.063H61.8006L61.2657 21.6981H61.1919C60.9091 22.0547 60.614 22.3498 60.3066 22.5835C60.0114 22.8171 59.6671 22.9831 59.2737 23.0815C58.8925 23.1921 58.419 23.2475 57.8534 23.2475C57.2632 23.2475 56.7283 23.1368 56.2487 22.9155C55.7814 22.6818 55.4125 22.3314 55.142 21.8641C54.8715 21.3845 54.7362 20.782 54.7362 20.0565C54.7362 18.9867 55.1113 18.1997 55.8614 17.6956C56.6114 17.1791 57.7366 16.8963 59.2368 16.8471L60.989 16.7918V16.3491C60.989 15.8203 60.8476 15.433 60.5648 15.1871C60.2943 14.9411 59.9131 14.8182 59.4212 14.8182C58.9293 14.8182 58.4498 14.8919 57.9825 15.0395C57.5152 15.1748 57.048 15.3469 56.5807 15.556L55.6769 13.693C56.218 13.4102 56.8143 13.1889 57.4661 13.029C58.1301 12.8692 58.8187 12.7892 59.5319 12.7892ZM59.9192 18.4334C59.0339 18.458 58.419 18.6178 58.0747 18.9129C57.7304 19.208 57.5583 19.5954 57.5583 20.075C57.5583 20.493 57.6812 20.7943 57.9272 20.9788C58.1731 21.1509 58.4928 21.237 58.8863 21.237C59.4765 21.237 59.9746 21.0648 60.3803 20.7205C60.7861 20.3639 60.989 19.8659 60.989 19.2265V18.3965L59.9192 18.4334Z" fill="#DEBB4E"/>
<path d="M69.2803 23.063H66.532V9.04492H69.2803V23.063Z" fill="#DEBB4E"/>
<path d="M77.9621 12.033C77.4333 12.033 76.9599 12.1375 76.5418 12.3466C76.136 12.5556 75.7917 12.8569 75.5089 13.2504C75.2261 13.6315 75.0109 14.0988 74.8633 14.6522C74.7281 15.2055 74.6604 15.8265 74.6604 16.5151C74.6604 17.4496 74.7711 18.2489 74.9924 18.9129C75.2261 19.5646 75.5888 20.0627 76.0807 20.407C76.5725 20.7513 77.1997 20.9234 77.9621 20.9234C78.5031 20.9234 79.038 20.8619 79.5668 20.739C80.1078 20.616 80.6919 20.4439 81.319 20.2225V22.565C80.7411 22.7987 80.1693 22.9708 79.6037 23.0815C79.038 23.1921 78.4047 23.2475 77.7038 23.2475C76.3512 23.2475 75.2322 22.9708 74.3469 22.4175C73.4738 21.8518 72.8282 21.0648 72.4101 20.0565C71.9921 19.0359 71.783 17.8493 71.783 16.4967C71.783 15.5006 71.9183 14.5907 72.1888 13.7668C72.4593 12.9306 72.8528 12.2113 73.3693 11.6088C73.898 11.0062 74.5436 10.539 75.306 10.2069C76.0807 9.87494 76.966 9.70894 77.9621 9.70894C78.6138 9.70894 79.2655 9.79501 79.9172 9.96717C80.5812 10.127 81.2145 10.3484 81.817 10.6312L80.9132 12.8999C80.4214 12.6663 79.9234 12.4634 79.4192 12.2912C78.9273 12.1191 78.4416 12.033 77.9621 12.033Z" fill="#DEBB4E"/>
<path d="M88.0278 12.7892C89.3804 12.7892 90.4133 13.0843 91.1265 13.6746C91.852 14.2525 92.2148 15.144 92.2148 16.3491V23.063H90.2965L89.7616 21.6981H89.6878C89.405 22.0547 89.1099 22.3498 88.8025 22.5835C88.5073 22.8171 88.163 22.9831 87.7695 23.0815C87.3884 23.1921 86.9149 23.2475 86.3493 23.2475C85.7591 23.2475 85.2242 23.1368 84.7446 22.9155C84.2773 22.6818 83.9084 22.3314 83.6379 21.8641C83.3674 21.3845 83.2321 20.782 83.2321 20.0565C83.2321 18.9867 83.6072 18.1997 84.3572 17.6956C85.1073 17.1791 86.2325 16.8963 87.7327 16.8471L89.4849 16.7918V16.3491C89.4849 15.8203 89.3435 15.433 89.0607 15.1871C88.7902 14.9411 88.409 14.8182 87.9171 14.8182C87.4252 14.8182 86.9457 14.8919 86.4784 15.0395C86.0111 15.1748 85.5439 15.3469 85.0766 15.556L84.1728 13.693C84.7138 13.4102 85.3102 13.1889 85.9619 13.029C86.626 12.8692 87.3146 12.7892 88.0278 12.7892ZM88.4151 18.4334C87.5298 18.458 86.9149 18.6178 86.5706 18.9129C86.2263 19.208 86.0542 19.5954 86.0542 20.075C86.0542 20.493 86.1771 20.7943 86.4231 20.9788C86.669 21.1509 86.9887 21.237 87.3822 21.237C87.9724 21.237 88.4704 21.0648 88.8762 20.7205C89.282 20.3639 89.4849 19.8659 89.4849 19.2265V18.3965L88.4151 18.4334Z" fill="#DEBB4E"/>
<path d="M102.055 20.075C102.055 20.7513 101.896 21.3292 101.576 21.8088C101.256 22.276 100.777 22.6326 100.137 22.8786C99.4977 23.1245 98.7046 23.2475 97.7577 23.2475C97.0568 23.2475 96.4543 23.1983 95.9501 23.0999C95.446 23.0138 94.9418 22.8663 94.4377 22.6572V20.3885C94.9787 20.6345 95.5628 20.8373 96.1899 20.9972C96.817 21.1571 97.3704 21.237 97.85 21.237C98.391 21.237 98.7722 21.1571 98.9935 20.9972C99.2272 20.8373 99.344 20.6283 99.344 20.3701C99.344 20.1979 99.2948 20.0442 99.1964 19.909C99.1104 19.7737 98.9136 19.62 98.6062 19.4478C98.2988 19.2757 97.8192 19.0543 97.1675 18.7838C96.5404 18.5133 96.0239 18.2489 95.6181 17.9907C95.2123 17.7202 94.9111 17.4005 94.7143 17.0316C94.5176 16.6504 94.4192 16.1769 94.4192 15.6113C94.4192 14.6768 94.782 13.9759 95.5075 13.5086C96.233 13.0413 97.1982 12.8077 98.4033 12.8077C99.0304 12.8077 99.6268 12.8692 100.192 12.9921C100.758 13.1151 101.342 13.318 101.945 13.6008L101.115 15.5744C100.783 15.4268 100.463 15.2977 100.156 15.1871C99.8482 15.0764 99.5469 14.9903 99.2518 14.9288C98.9689 14.8674 98.6738 14.8366 98.3664 14.8366C97.9606 14.8366 97.6532 14.8919 97.4442 15.0026C97.2474 15.1133 97.149 15.2793 97.149 15.5006C97.149 15.6605 97.1982 15.808 97.2966 15.9433C97.4073 16.0663 97.6102 16.2015 97.9053 16.3491C98.2127 16.4967 98.6615 16.6934 99.2518 16.9393C99.8297 17.173 100.328 17.4189 100.746 17.6771C101.164 17.9231 101.484 18.2366 101.705 18.6178C101.939 18.9867 102.055 19.4724 102.055 20.075Z" fill="#DEBB4E"/>
<path d="M106.945 12.9921V23.063H104.196V12.9921H106.945ZM105.58 9.04492C105.985 9.04492 106.336 9.14329 106.631 9.34004C106.926 9.52449 107.074 9.87494 107.074 10.3914C107.074 10.8956 106.926 11.246 106.631 11.4428C106.336 11.6395 105.985 11.7379 105.58 11.7379C105.162 11.7379 104.805 11.6395 104.51 11.4428C104.227 11.246 104.086 10.8956 104.086 10.3914C104.086 9.87494 104.227 9.52449 104.51 9.34004C104.805 9.14329 105.162 9.04492 105.58 9.04492Z" fill="#DEBB4E"/>
<path d="M115.534 12.8077C116.616 12.8077 117.483 13.1028 118.135 13.693C118.787 14.271 119.112 15.2055 119.112 16.4967V23.063H116.364V17.1791C116.364 16.4536 116.235 15.9126 115.977 15.556C115.719 15.1871 115.307 15.0026 114.741 15.0026C113.905 15.0026 113.333 15.2916 113.026 15.8695C112.718 16.4352 112.564 17.2529 112.564 18.3227V23.063H109.816V12.9921H111.919L112.288 14.2833H112.435C112.657 13.939 112.927 13.6623 113.247 13.4532C113.567 13.2319 113.923 13.0721 114.317 12.9737C114.71 12.863 115.116 12.8077 115.534 12.8077Z" fill="#DEBB4E"/>
<path d="M131.087 18.0091C131.087 18.8453 130.971 19.5892 130.737 20.241C130.516 20.8927 130.19 21.446 129.759 21.901C129.341 22.3437 128.831 22.6818 128.228 22.9155C127.626 23.1368 126.943 23.2475 126.181 23.2475C125.48 23.2475 124.828 23.1368 124.226 22.9155C123.636 22.6818 123.125 22.3437 122.695 21.901C122.265 21.446 121.926 20.8927 121.68 20.241C121.447 19.5892 121.33 18.8453 121.33 18.0091C121.33 16.8901 121.527 15.9495 121.92 15.1871C122.314 14.4124 122.879 13.8221 123.617 13.4164C124.355 13.0106 125.228 12.8077 126.236 12.8077C127.183 12.8077 128.019 13.0106 128.745 13.4164C129.47 13.8221 130.042 14.4124 130.46 15.1871C130.878 15.9495 131.087 16.8901 131.087 18.0091ZM124.134 18.0091C124.134 18.6731 124.201 19.2326 124.337 19.6876C124.484 20.1303 124.712 20.4684 125.019 20.7021C125.326 20.9234 125.726 21.0341 126.218 21.0341C126.71 21.0341 127.103 20.9234 127.398 20.7021C127.706 20.4684 127.927 20.1303 128.062 19.6876C128.21 19.2326 128.284 18.6731 128.284 18.0091C128.284 17.3451 128.21 16.7918 128.062 16.3491C127.927 15.9064 127.706 15.5744 127.398 15.3531C127.091 15.1317 126.691 15.0211 126.199 15.0211C125.474 15.0211 124.945 15.2731 124.613 15.7773C124.293 16.2692 124.134 17.0131 124.134 18.0091Z" fill="#DEBB4E"/>
<rect x="24.3193" y="0.724609" width="108.314" height="0.925764" fill="#DEBB4E"/>
<rect x="24.3193" y="30.3496" width="108.314" height="0.925764" fill="#DEBB4E"/>
<path d="M12.8114 12.9913L19.5741 13.974L14.6806 18.7441L15.8359 25.4795L9.78707 22.2994L3.73824 25.4795L4.89354 18.7441L0 13.974L6.76276 12.9913L9.78707 6.86328L12.8114 12.9913ZM7.5828 14.1201L2.65349 14.836L6.22048 18.313L5.37833 23.2218L9.78707 20.9043L14.1956 23.2218L13.3537 18.313L16.9205 14.836L11.9913 14.1201L9.78707 9.65344L7.5828 14.1201Z" fill="#DEBB4E"/>
<path d="M149.237 12.9913L156 13.974L151.106 18.7441L152.262 25.4795L146.213 22.2994L140.164 25.4795L141.319 18.7441L136.426 13.974L143.189 12.9913L146.213 6.86328L149.237 12.9913ZM144.009 14.1201L139.079 14.836L142.646 18.313L141.804 23.2218L146.213 20.9043L150.621 23.2218L149.779 18.313L153.346 14.836L148.417 14.1201L146.213 9.65344L144.009 14.1201Z" fill="#DEBB4E"/>
</svg>
