<svg width="208" height="28" viewBox="0 0 208 28" fill="none" xmlns="http://www.w3.org/2000/svg">
<path d="M9.55213 27.9997C7.94627 27.9997 6.28503 27.5983 4.56841 26.7953C2.8518 25.9924 1.32899 24.6772 0 22.8499L3.90392 19.1121C4.65147 20.0535 5.59284 20.8149 6.72803 21.3963C7.86321 21.9777 9.02608 22.2684 10.2166 22.2684C10.7981 22.2684 11.3103 22.1854 11.7533 22.0193C12.224 21.8531 12.5839 21.6178 12.8331 21.3132C13.0823 21.0087 13.2069 20.6349 13.2069 20.1919C13.2069 19.472 12.9438 18.9044 12.4178 18.4891C11.8917 18.0738 11.1303 17.5616 10.1336 16.9525L7.97396 15.6235C6.70034 14.8205 5.68975 13.893 4.94219 12.8409C4.19463 11.7611 3.82085 10.3906 3.82085 8.72933C3.82085 7.12346 4.26385 5.66988 5.14985 4.36857C6.03584 3.03958 7.21255 1.98746 8.67998 1.21221C10.1751 0.40928 11.7948 0.0078125 13.5391 0.0078125C15.1173 0.0078125 16.6401 0.381592 18.1075 1.12915C19.575 1.87671 20.8209 2.91499 21.8453 4.24398L18.1075 8.06483C17.4153 7.34496 16.6816 6.77737 15.9064 6.36206C15.1588 5.94675 14.342 5.73909 13.4561 5.73909C12.8192 5.73909 12.2932 5.836 11.8779 6.02981C11.4626 6.22362 11.1442 6.5005 10.9227 6.86043C10.7288 7.19268 10.6319 7.56646 10.6319 7.98177C10.6319 8.59089 10.9088 9.08926 11.4626 9.47689C12.0163 9.86451 12.8469 10.4183 13.9544 11.1381L16.3632 12.6332C17.6922 13.4639 18.6474 14.3499 19.2289 15.2912C19.8103 16.2049 20.101 17.4508 20.101 19.029C20.101 20.6626 19.6719 22.1577 18.8136 23.5144C17.9552 24.8711 16.737 25.9647 15.1588 26.7953C13.5806 27.5983 11.7117 27.9997 9.55213 27.9997Z" fill="white"/>
<path d="M25.0052 27.5014L26.002 0.506186H32.8131L31.7333 12.7163C31.5948 14.1284 31.4426 15.5681 31.2764 17.0355C31.138 18.4753 30.958 19.915 30.7365 21.3548H30.9026C31.4564 19.915 32.024 18.4614 32.6054 16.994C33.2145 15.5266 33.7821 14.1007 34.3082 12.7163L39.4165 0.506186H44.9401V12.7163C44.9124 14.073 44.8571 15.485 44.774 16.9525C44.6909 18.4199 44.6079 19.8873 44.5248 21.3548H44.6909C45.1616 19.8873 45.6462 18.4337 46.1445 16.994C46.6429 15.5266 47.0997 14.1007 47.5151 12.7163L51.5851 0.506186H57.8978L47.7642 27.5014H39.5411L39.8733 15.9557C39.9287 14.9867 39.9979 13.9207 40.081 12.7578C40.1641 11.5673 40.261 10.3906 40.3717 9.2277H40.2056C39.8457 10.3352 39.4442 11.4981 39.0012 12.7163C38.5859 13.9069 38.1844 14.9867 37.7968 15.9557L33.2284 27.5014H25.0052Z" fill="white"/>
<path d="M56.5529 27.5014L61.952 0.506186H68.5969L63.1979 27.5014H56.5529Z" fill="white"/>
<path d="M78.3784 27.9997C76.7726 27.9997 75.1113 27.5983 73.3947 26.7953C71.6781 25.9924 70.1553 24.6772 68.8263 22.8499L72.7302 19.1121C73.4778 20.0535 74.4192 20.8149 75.5543 21.3963C76.6895 21.9777 77.8524 22.2684 79.0429 22.2684C79.6244 22.2684 80.1366 22.1854 80.5796 22.0193C81.0503 21.8531 81.4102 21.6178 81.6594 21.3132C81.9086 21.0087 82.0332 20.6349 82.0332 20.1919C82.0332 19.472 81.7701 18.9044 81.2441 18.4891C80.718 18.0738 79.9566 17.5616 78.9599 16.9525L76.8003 15.6235C75.5266 14.8205 74.5161 13.893 73.7685 12.8409C73.0209 11.7611 72.6472 10.3906 72.6472 8.72933C72.6472 7.12346 73.0902 5.66988 73.9762 4.36857C74.8622 3.03958 76.0389 1.98746 77.5063 1.21221C79.0014 0.40928 80.6211 0.0078125 82.3654 0.0078125C83.9436 0.0078125 85.4664 0.381592 86.9338 1.12915C88.4013 1.87671 89.6472 2.91499 90.6716 4.24398L86.9338 8.06483C86.2417 7.34496 85.5079 6.77737 84.7327 6.36206C83.9851 5.94675 83.1684 5.73909 82.2824 5.73909C81.6456 5.73909 81.1195 5.836 80.7042 6.02981C80.2889 6.22362 79.9705 6.5005 79.749 6.86043C79.5552 7.19268 79.4583 7.56646 79.4583 7.98177C79.4583 8.59089 79.7351 9.08926 80.2889 9.47689C80.8426 9.86451 81.6732 10.4183 82.7807 11.1381L85.1895 12.6332C86.5185 13.4639 87.4737 14.3499 88.0552 15.2912C88.6366 16.2049 88.9273 17.4508 88.9273 19.029C88.9273 20.6626 88.4982 22.1577 87.6399 23.5144C86.7816 24.8711 85.5633 25.9647 83.9851 26.7953C82.407 27.5983 80.5381 27.9997 78.3784 27.9997Z" fill="white"/>
<path d="M100.32 27.9997C98.7143 27.9997 97.053 27.5983 95.3364 26.7953C93.6198 25.9924 92.097 24.6772 90.768 22.8499L94.6719 19.1121C95.4195 20.0535 96.3608 20.8149 97.496 21.3963C98.6312 21.9777 99.7941 22.2684 100.985 22.2684C101.566 22.2684 102.078 22.1854 102.521 22.0193C102.992 21.8531 103.352 21.6178 103.601 21.3132C103.85 21.0087 103.975 20.6349 103.975 20.1919C103.975 19.472 103.712 18.9044 103.186 18.4891C102.66 18.0738 101.898 17.5616 100.902 16.9525L98.7419 15.6235C97.4683 14.8205 96.4577 13.893 95.7102 12.8409C94.9626 11.7611 94.5888 10.3906 94.5888 8.72933C94.5888 7.12346 95.0318 5.66988 95.9178 4.36857C96.8038 3.03958 97.9805 1.98746 99.448 1.21221C100.943 0.40928 102.563 0.0078125 104.307 0.0078125C105.885 0.0078125 107.408 0.381592 108.876 1.12915C110.343 1.87671 111.589 2.91499 112.613 4.24398L108.876 8.06483C108.183 7.34496 107.45 6.77737 106.674 6.36206C105.927 5.94675 105.11 5.73909 104.224 5.73909C103.587 5.73909 103.061 5.836 102.646 6.02981C102.231 6.22362 101.912 6.5005 101.691 6.86043C101.497 7.19268 101.4 7.56646 101.4 7.98177C101.4 8.59089 101.677 9.08926 102.231 9.47689C102.784 9.86451 103.615 10.4183 104.722 11.1381L107.131 12.6332C108.46 13.4639 109.415 14.3499 109.997 15.2912C110.578 16.2049 110.869 17.4508 110.869 19.029C110.869 20.6626 110.44 22.1577 109.582 23.5144C108.723 24.8711 107.505 25.9647 105.927 26.7953C104.349 27.5983 102.48 27.9997 100.32 27.9997Z" fill="white"/>
<path d="M128.897 27.5014H122.834L124.038 21.4378H112.949L113.863 16.7863L126.073 1.17068H134.13L131.098 16.371H133.964L132.967 21.4378H130.101L128.897 27.5014ZM120.342 16.371H125.035L125.741 12.7994C125.962 11.8026 126.198 10.792 126.447 9.7676C126.724 8.74317 126.959 7.73258 127.153 6.73584H126.987C126.488 7.56646 125.976 8.39708 125.45 9.2277C124.924 10.0583 124.356 10.8889 123.747 11.7196L120.342 16.371Z" fill="#EC2C24"/>
<path d="M137.35 27.5014L138.347 0.506186H145.158L144.078 12.7163C143.939 14.1284 143.787 15.5681 143.621 17.0355C143.483 18.4753 143.303 19.915 143.081 21.3548H143.247C143.801 19.915 144.369 18.4614 144.95 16.994C145.559 15.5266 146.127 14.1007 146.653 12.7163L151.761 0.506186H157.285V12.7163C157.257 14.073 157.202 15.485 157.119 16.9525C157.036 18.4199 156.953 19.8873 156.869 21.3548H157.036C157.506 19.8873 157.991 18.4337 158.489 16.994C158.988 15.5266 159.444 14.1007 159.86 12.7163L163.93 0.506186H170.242L160.109 27.5014H151.886L152.218 15.9557C152.273 14.9867 152.343 13.9207 152.426 12.7578C152.509 11.5673 152.606 10.3906 152.716 9.2277H152.55C152.19 10.3352 151.789 11.4981 151.346 12.7163C150.931 13.9069 150.529 14.9867 150.141 15.9557L145.573 27.5014H137.35Z" fill="#EC2C24"/>
<path d="M168.898 27.5014L174.297 0.506186H180.942L175.543 27.5014H168.898Z" fill="#EC2C24"/>
<path d="M181.835 27.5014L187.234 0.506186H193.796L197.368 13.4639C197.534 14.073 197.686 14.696 197.825 15.3328C197.963 15.9419 198.088 16.5787 198.199 17.2432C198.337 17.9077 198.476 18.6137 198.614 19.3613H198.78C198.863 17.8108 198.988 16.1357 199.154 14.336C199.348 12.5363 199.611 10.8336 199.943 9.2277L201.687 0.506186H208L202.601 27.5014H196.039L192.467 14.5437C192.218 13.63 191.997 12.7025 191.803 11.7611C191.637 10.792 191.443 9.75376 191.221 8.64627H191.055C190.972 10.1691 190.834 11.8303 190.64 13.63C190.474 15.4297 190.225 17.1463 189.892 18.7798L188.148 27.5014H181.835Z" fill="#EC2C24"/>
</svg>
