<svg width="153" height="26" viewBox="0 0 153 26" fill="none" xmlns="http://www.w3.org/2000/svg">
<path d="M0 25.6066L4.08239 0.393397H15.6735C17.6904 0.393397 19.3185 0.667583 20.5578 1.21596C21.7971 1.74049 22.6962 2.46767 23.2551 3.39752C23.814 4.30353 24.0934 5.32875 24.0934 6.47318C24.0934 8.2375 23.5224 9.67996 22.3803 10.8005C21.2382 11.9211 19.7437 12.6364 17.8969 12.9464V12.3384C18.9661 12.5291 19.8652 12.8987 20.5942 13.447C21.3475 13.9716 21.9186 14.6272 22.3074 15.414C22.7205 16.2008 22.927 17.083 22.927 18.0605C22.927 19.6818 22.5261 21.0527 21.7242 22.1733C20.9466 23.2939 19.8288 24.1522 18.3708 24.7483C16.9128 25.3205 15.1996 25.6066 13.2313 25.6066H0ZM7.18064 20.7785H12.8304C13.3407 20.7785 13.7902 20.7428 14.179 20.6713C14.5678 20.5759 14.908 20.4448 15.1996 20.2779C15.5155 20.0871 15.7707 19.8606 15.9651 19.5984C16.1595 19.3361 16.3053 19.0381 16.4025 18.7043C16.4997 18.3705 16.5483 18.0128 16.5483 17.6314C16.5483 17.2022 16.4754 16.8446 16.3296 16.5585C16.2081 16.2724 16.0015 16.0339 15.7099 15.8432C15.4426 15.6286 15.1024 15.4736 14.6893 15.3783C14.3005 15.2829 13.8388 15.2352 13.3042 15.2352H8.09188L7.18064 20.7785ZM8.85733 10.4072H13.7781C15.066 10.4072 16.038 10.1449 16.6941 9.62036C17.3745 9.09583 17.7147 8.32095 17.7147 7.29574C17.7147 6.62815 17.4595 6.11554 16.9492 5.75791C16.4632 5.40027 15.6613 5.22146 14.5435 5.22146H9.69568L8.85733 10.4072Z" fill="#CF0032"/>
<path d="M25.6297 25.6066L29.6757 0.393397H47.8277L47.0258 5.4718H35.2525L34.487 10.2641H45.422L44.5837 15.3425H33.6487L32.8103 20.5282H44.5472L43.7453 25.6066H25.6297Z" fill="#FFF6F6"/>
<path d="M54.2116 25.6066L57.4192 5.75791H49.2544L50.1292 0.393397H73.1656L72.2907 5.75791H64.126L60.9184 25.6066H54.2116Z" fill="#FFF6F6"/>
<path d="M71.6184 25.6066L75.7008 0.393397H82.4076L78.3252 25.6066H71.6184Z" fill="#FFF6F6"/>
<path d="M93.1065 26C91.8672 26 90.6158 25.8927 89.3522 25.6781C88.1129 25.4635 86.9222 25.1417 85.7801 24.7125C84.6623 24.2595 83.6295 23.6992 82.6818 23.0316L84.8688 18.0963C85.8651 18.6923 86.8736 19.1811 87.8942 19.5626C88.9148 19.9202 89.9232 20.1825 90.9195 20.3494C91.9158 20.5163 92.8635 20.5997 93.7626 20.5997C94.686 20.5997 95.4636 20.5044 96.0954 20.3136C96.7272 20.1229 97.2132 19.8487 97.5534 19.4911C97.8936 19.1334 98.0637 18.7281 98.0637 18.2751C98.0637 17.8936 97.9665 17.5598 97.7721 17.2737C97.5777 16.9876 97.2739 16.7373 96.8608 16.5227C96.4478 16.3081 95.9132 16.1412 95.2571 16.022L91.0653 15.0206C89.2185 14.6153 87.7484 13.8404 86.6549 12.696C85.5857 11.5516 85.0511 10.133 85.0511 8.44016C85.0511 7.08116 85.3427 5.88904 85.9259 4.86382C86.5091 3.81476 87.311 2.9326 88.3316 2.21733C89.3522 1.47822 90.5186 0.929847 91.8308 0.572214C93.143 0.190738 94.5159 0 95.9496 0C97.5291 0 99.1572 0.226502 100.834 0.679505C102.511 1.13251 104.029 1.84778 105.39 2.82531L103.094 7.51032C101.976 6.74736 100.773 6.21091 99.4852 5.90096C98.1973 5.56717 97.0066 5.40028 95.9132 5.40028C95.0141 5.40028 94.2365 5.50757 93.5804 5.72214C92.9486 5.91288 92.4626 6.18707 92.1224 6.5447C91.7822 6.90234 91.6121 7.30766 91.6121 7.76066C91.6121 8.30903 91.8186 8.76204 92.2317 9.11967C92.6448 9.4773 93.2888 9.76341 94.1636 9.97799L98.3553 10.9436C100.348 11.3966 101.891 12.2072 102.984 13.3755C104.078 14.5199 104.625 15.9028 104.625 17.5241C104.625 18.9546 104.309 20.2063 103.677 21.2792C103.069 22.3283 102.219 23.2105 101.125 23.9257C100.056 24.6171 98.8291 25.1417 97.444 25.4993C96.059 25.8331 94.6131 26 93.1065 26Z" fill="#FFF6F6"/>
<path d="M112.232 25.6066L115.44 5.75791H107.275L108.15 0.393397H131.186L130.312 5.75791H122.147L118.939 25.6066H112.232Z" fill="#FFF6F6"/>
<path d="M123.658 25.6066L139.769 0.393397H145.09L153 25.6066H146.585L144.872 19.1692L146.731 20.4924H132.151L134.411 19.3122L130.62 25.6066H123.658ZM141.628 7.25997L135.978 16.63L135.176 15.4498H145.382L144.252 16.773L141.701 7.25997H141.628Z" fill="#FFF6F6"/>
</svg>
