<svg width="90" height="58" viewBox="0 0 90 58" fill="none" xmlns="http://www.w3.org/2000/svg">
<path d="M4.97149 4.69415C8.10353 1.56211 12.0265 -0.00390625 16.7404 -0.00390625C21.4542 -0.00390625 25.3772 1.56211 28.5092 4.69415C31.6413 7.82619 33.2073 11.7333 33.2073 16.4156C33.2073 21.0978 31.6413 25.0049 28.5092 28.137C25.3772 31.269 21.4542 32.835 16.7404 32.835C12.0265 32.835 8.10353 31.269 4.97149 28.137C1.83946 25.0049 0.273438 21.0978 0.273438 16.4156C0.273438 11.7333 1.83946 7.82619 4.97149 4.69415ZM8.38826 25.0524C10.5712 27.267 13.3552 28.3743 16.7404 28.3743C20.1255 28.3743 22.9095 27.267 25.0925 25.0524C27.2754 22.8062 28.3669 19.9272 28.3669 16.4156C28.3669 12.9039 27.2754 10.0408 25.0925 7.82619C22.9095 5.57998 20.1255 4.45687 16.7404 4.45687C13.3552 4.45687 10.5712 5.57998 8.38826 7.82619C6.20533 10.0408 5.11386 12.9039 5.11386 16.4156C5.11386 19.9272 6.20533 22.8062 8.38826 25.0524Z" fill="#04C74D"/>
<path d="M56.8418 5.31107L52.9505 7.58891C52.6341 6.82963 52.1596 6.16526 51.5268 5.5958C50.5777 4.83652 49.4388 4.45687 48.1101 4.45687C46.6864 4.45687 45.5791 4.8207 44.7882 5.54834C44.0289 6.27599 43.6493 7.17764 43.6493 8.25329C43.6493 9.8984 44.7882 11.1797 47.066 12.0972L50.2455 13.3784C55.2125 15.4032 57.696 18.5036 57.696 22.6796C57.696 25.6851 56.7311 28.137 54.8012 30.0352C52.903 31.9018 50.467 32.835 47.4931 32.835C44.4244 32.835 41.9409 31.7752 40.0427 29.6555C38.4925 27.9155 37.6067 25.8591 37.3852 23.4864L42.1782 22.4424C42.1782 23.9609 42.6211 25.3055 43.5069 26.4761C44.5193 27.7415 45.8955 28.3743 47.6355 28.3743C49.1224 28.3743 50.3563 27.8839 51.337 26.9032C52.3494 25.9224 52.8556 24.6411 52.8556 23.0593C52.8556 21.604 52.4285 20.4809 51.5743 19.69C50.7517 18.8991 49.6603 18.2189 48.2999 17.6494L45.2627 16.3681C40.9601 14.5648 38.8088 11.8915 38.8088 8.3482C38.8088 6.07035 39.6314 4.10887 41.2765 2.46376C42.9533 0.818649 45.2153 -0.00390625 48.0626 -0.00390625C50.6252 -0.00390625 52.7448 0.707921 54.4216 2.13158C55.4023 3.0174 56.2091 4.07723 56.8418 5.31107Z" fill="#04C74D"/>
<path d="M68.5929 0.565554V13.0937H82.165V0.565554H87.0055V32.2181H82.165V17.6494H68.5929V32.2181H63.7524V0.565554H68.5929Z" fill="#04C74D"/>
<path d="M11.2326 43.6555V46.2181C10.0652 45.1646 8.77683 44.6378 7.36741 44.6378C5.82986 44.6378 4.57705 45.1504 3.60896 46.1754C2.65511 47.1862 2.17819 48.4817 2.17819 50.062C2.17819 51.5853 2.66935 52.8594 3.65167 53.8845C4.63399 54.8953 5.87969 55.4007 7.38876 55.4007C8.79818 55.4007 10.0795 54.8526 11.2326 53.7563V56.3403C10.0368 57.0521 8.73412 57.408 7.3247 57.408C5.34582 57.408 3.66591 56.7531 2.28496 55.4434C0.761655 54.0197 0 52.2259 0 50.062C0 47.7841 0.761655 45.9262 2.28496 44.4884C3.59473 43.2498 5.31023 42.6305 7.43147 42.6305C8.89784 42.6305 10.1649 42.9722 11.2326 43.6555Z" fill="white"/>
<path d="M26.7864 57.1304L25.2916 53.6923H19.2055L17.6466 57.1304H15.2975L22.3873 42.0539L29.1355 57.1304H26.7864ZM20.1024 51.6422H24.416L22.3019 46.816L20.1024 51.6422Z" fill="white"/>
<path d="M41.622 45.0222L39.8709 46.0473C39.7286 45.7056 39.515 45.4066 39.2303 45.1504C38.8032 44.8087 38.2907 44.6378 37.6927 44.6378C37.0521 44.6378 36.5538 44.8016 36.1979 45.129C35.8562 45.4564 35.6854 45.8622 35.6854 46.3462C35.6854 47.0865 36.1979 47.6631 37.2229 48.076L38.6537 48.6525C40.8888 49.5637 42.0064 50.9589 42.0064 52.8381C42.0064 54.1906 41.5722 55.2939 40.7038 56.1481C39.8496 56.988 38.7534 57.408 37.4151 57.408C36.0342 57.408 34.9166 56.9311 34.0624 55.9772C33.3648 55.1942 32.9662 54.2689 32.8666 53.2011L35.0234 52.7313C35.0234 53.4147 35.2227 54.0197 35.6213 54.5465C36.0769 55.1159 36.6962 55.4007 37.4792 55.4007C38.1483 55.4007 38.7035 55.18 39.1449 54.7387C39.6004 54.2973 39.8282 53.7208 39.8282 53.0089C39.8282 52.354 39.636 51.8486 39.2516 51.4927C38.8815 51.1368 38.3903 50.8307 37.7782 50.5745L36.4114 49.9979C34.4753 49.1864 33.5072 47.9834 33.5072 46.3889C33.5072 45.3639 33.8773 44.4812 34.6176 43.7409C35.3722 43.0006 36.3901 42.6305 37.6714 42.6305C38.8245 42.6305 39.7784 42.9508 40.5329 43.5915C40.9743 43.9901 41.3373 44.467 41.622 45.0222Z" fill="white"/>
<path d="M47.935 42.8867H50.1132V57.1304H47.935V42.8867Z" fill="white"/>
<path d="M58.9054 57.1304H56.7272V41.9258L67.0629 52.7527V42.8867H69.2411V58.0059L58.9054 47.1791V57.1304Z" fill="white"/>
<path d="M77.2939 44.7446C78.7033 43.3352 80.4686 42.6305 82.5899 42.6305C84.7111 42.6305 86.4765 43.3352 87.8859 44.7446C89.2953 46.154 90 47.9122 90 50.0193C90 52.1263 89.2953 53.8845 87.8859 55.2939C86.4765 56.7033 84.7111 57.408 82.5899 57.408C80.4686 57.408 78.7033 56.7033 77.2939 55.2939C75.8845 53.8845 75.1798 52.1263 75.1798 50.0193C75.1798 47.9122 75.8845 46.154 77.2939 44.7446ZM78.8314 53.9058C79.8138 54.9024 81.0666 55.4007 82.5899 55.4007C84.1132 55.4007 85.366 54.9024 86.3483 53.9058C87.3307 52.895 87.8218 51.5995 87.8218 50.0193C87.8218 48.439 87.3307 47.1506 86.3483 46.154C85.366 45.1432 84.1132 44.6378 82.5899 44.6378C81.0666 44.6378 79.8138 45.1432 78.8314 46.154C77.8491 47.1506 77.3579 48.439 77.3579 50.0193C77.3579 51.5995 77.8491 52.895 78.8314 53.9058Z" fill="white"/>
</svg>
