<svg width="85" height="36" viewBox="0 0 85 36" fill="none" xmlns="http://www.w3.org/2000/svg">
<path d="M13.5704 26.8979C12.5069 26.8979 11.6183 26.709 10.9046 26.3312C10.191 25.9533 9.65223 25.3726 9.2884 24.589C8.92457 23.7914 8.72167 22.7628 8.67969 21.5034L11.8912 21.0206C11.9052 21.7483 11.9681 22.336 12.0801 22.7838C12.206 23.2316 12.374 23.5535 12.5839 23.7494C12.8078 23.9453 13.0736 24.0432 13.3815 24.0432C13.7733 24.0432 14.0252 23.9103 14.1371 23.6444C14.2631 23.3785 14.326 23.0987 14.326 22.8048C14.326 22.1051 14.1581 21.5174 13.8223 21.0416C13.4864 20.5519 13.0317 20.0621 12.4579 19.5723L10.9886 18.2919C10.3449 17.7462 9.79916 17.1305 9.35137 16.4448C8.91758 15.7451 8.70068 14.8845 8.70068 13.863C8.70068 12.4217 9.12748 11.3232 9.98108 10.5675C10.8347 9.79791 11.9961 9.41309 13.4654 9.41309C14.375 9.41309 15.1027 9.56701 15.6484 9.87487C16.2082 10.1827 16.628 10.5885 16.9078 11.0923C17.2017 11.5821 17.3976 12.1068 17.4956 12.6666C17.6075 13.2123 17.6705 13.7371 17.6845 14.2408L14.452 14.6396C14.438 14.1359 14.403 13.7021 14.347 13.3382C14.3051 12.9604 14.2071 12.6736 14.0532 12.4777C13.8992 12.2677 13.6614 12.1628 13.3395 12.1628C12.9897 12.1628 12.7308 12.3097 12.5629 12.6036C12.4089 12.8975 12.332 13.1913 12.332 13.4852C12.332 14.1149 12.4789 14.6326 12.7728 15.0385C13.0806 15.4303 13.4794 15.8431 13.9692 16.2769L15.3756 17.5153C16.1172 18.145 16.7399 18.8587 17.2437 19.6563C17.7614 20.4539 18.0203 21.4405 18.0203 22.6159C18.0203 23.4135 17.8384 24.1412 17.4746 24.7989C17.1107 25.4426 16.593 25.9533 15.9213 26.3312C15.2636 26.709 14.48 26.8979 13.5704 26.8979Z" fill="#D91420"/>
<path d="M19.8396 26.646V9.64398H23.5968V24.1062H27.501V26.646H19.8396Z" fill="#D91420"/>
<path d="M33.749 26.8979C32.4756 26.8979 31.4681 26.674 30.7264 26.2262C29.9848 25.7784 29.453 25.1347 29.1312 24.2951C28.8093 23.4555 28.6484 22.455 28.6484 21.2935V14.9755C28.6484 13.8 28.8093 12.7995 29.1312 11.9739C29.453 11.1483 29.9848 10.5186 30.7264 10.0848C31.4681 9.63698 32.4756 9.41309 33.749 9.41309C35.0364 9.41309 36.0509 9.63698 36.7926 10.0848C37.5482 10.5186 38.087 11.1483 38.4088 11.9739C38.7307 12.7995 38.8916 13.8 38.8916 14.9755V21.2935C38.8916 22.455 38.7307 23.4555 38.4088 24.2951C38.087 25.1347 37.5482 25.7784 36.7926 26.2262C36.0509 26.674 35.0364 26.8979 33.749 26.8979ZM33.749 24.2321C34.1408 24.2321 34.4277 24.1342 34.6096 23.9383C34.7915 23.7424 34.9105 23.4905 34.9664 23.1826C35.0224 22.8748 35.0504 22.5599 35.0504 22.2381V14.0519C35.0504 13.7161 35.0224 13.4012 34.9664 13.1074C34.9105 12.7995 34.7915 12.5476 34.6096 12.3517C34.4277 12.1558 34.1408 12.0578 33.749 12.0578C33.3852 12.0578 33.1123 12.1558 32.9304 12.3517C32.7485 12.5476 32.6295 12.7995 32.5736 13.1074C32.5176 13.4012 32.4896 13.7161 32.4896 14.0519V22.2381C32.4896 22.5599 32.5106 22.8748 32.5526 23.1826C32.6085 23.4905 32.7205 23.7424 32.8884 23.9383C33.0703 24.1342 33.3572 24.2321 33.749 24.2321Z" fill="#D91420"/>
<path d="M42.5465 26.646V12.4357H39.9857V9.64398H48.8646V12.4357H46.3247V26.646H42.5465Z" fill="#D91420"/>
<path d="M50.3824 26.646V9.64398H54.1396V26.646H50.3824Z" fill="white"/>
<path d="M56.6749 26.646V9.64398H64.3153V12.2048H60.4321V16.4238H63.3917V19.0266H60.4321V24.1062H64.3573V26.646H56.6749Z" fill="white"/>
<path d="M66.063 26.646V9.64398H70.7439C71.8913 9.64398 72.8849 9.76992 73.7245 10.0218C74.5641 10.2737 75.2148 10.7285 75.6765 11.3862C76.1523 12.0299 76.3902 12.9464 76.3902 14.1359C76.3902 14.8355 76.3342 15.4583 76.2223 16.004C76.1103 16.5497 75.9004 17.0255 75.5926 17.4313C75.2987 17.8231 74.8719 18.152 74.3122 18.4179L76.6421 26.646H72.7589L70.8908 19.0266H69.8203V26.646H66.063ZM69.8203 16.8646H70.8698C71.4015 16.8646 71.8144 16.7736 72.1082 16.5917C72.4021 16.3958 72.605 16.1229 72.7169 15.7731C72.8429 15.4093 72.9058 14.9755 72.9058 14.4717C72.9058 13.7441 72.7729 13.1773 72.507 12.7715C72.2412 12.3657 71.7514 12.1628 71.0377 12.1628H69.8203V16.8646Z" fill="white"/>
<rect x="1.0459" y="1.78034" width="83.0066" height="32.4394" rx="6.67869" stroke="white" stroke-width="1.9082"/>
</svg>
