<svg width="128" height="48" viewBox="0 0 128 48" fill="none" xmlns="http://www.w3.org/2000/svg">
<path d="M27.8187 6.38951C27.8187 7.54199 27.6094 8.73967 27.1908 9.98254C26.7835 11.2141 26.1442 12.4174 25.273 13.5925C24.4131 14.7676 23.31 15.8862 21.9636 16.9483C20.6172 18.0104 19.0106 18.9369 17.1438 19.7278C17.6077 20.8464 18.0829 21.9141 18.5694 22.931C19.0672 23.9479 19.5537 24.9083 20.0289 25.8122C20.5154 26.7049 20.9736 27.5297 21.4036 28.2867C21.8448 29.055 22.2408 29.7386 22.5916 30.3374C22.2861 30.4391 21.924 30.5578 21.5054 30.6934C21.0868 30.8289 20.6568 30.9645 20.2156 31.1001C19.7743 31.247 19.3387 31.3826 18.9088 31.5069C18.4902 31.6425 18.1225 31.7498 17.8057 31.8289C17.7152 31.5803 17.585 31.1905 17.4153 30.6595C17.2456 30.1284 17.0533 29.49 16.8383 28.7443C16.6233 28.0099 16.3914 27.1851 16.1425 26.2699C15.8936 25.3433 15.6447 24.3716 15.3958 23.3547C15.1582 22.3265 14.9262 21.2701 14.6999 20.1854C14.485 19.0894 14.2926 17.9991 14.1229 16.9144C15.5598 16.4172 16.844 15.858 17.9754 15.2365C19.1181 14.6151 20.1194 13.9597 20.9793 13.2705C21.8392 12.57 22.5689 11.8525 23.1686 11.1181C23.7682 10.3837 24.2547 9.66053 24.6281 8.9487C25.0128 8.23687 25.29 7.55329 25.4597 6.89795C25.6407 6.23132 25.7312 5.62118 25.7312 5.06754C25.7312 4.85286 25.7143 4.66643 25.6803 4.50825C25.6464 4.33876 25.5785 4.20318 25.4767 4.10149C25.3748 3.9998 25.2278 3.93765 25.0354 3.91506C24.8544 3.88116 24.6111 3.88681 24.3057 3.932C23.7739 4.04499 23.1856 4.25402 22.5406 4.55909C21.9071 4.86416 21.2339 5.24832 20.5211 5.71157C19.8196 6.16353 19.0842 6.68893 18.3148 7.28777C17.5568 7.88661 16.7874 8.53064 16.0067 9.21987C15.5881 10.5305 15.1072 11.9203 14.5642 13.3892C14.0211 14.8467 13.4327 16.3043 12.7992 17.7618C12.1656 19.2081 11.498 20.6148 10.7965 21.9819C10.1064 23.3491 9.39924 24.6033 8.67514 25.7445C7.96234 26.8743 7.2439 27.8517 6.51979 28.6765C5.807 29.5126 5.11683 30.1115 4.4493 30.473C4.27958 30.5634 4.07027 30.6482 3.82136 30.7273C3.58376 30.8063 3.28394 30.8628 2.92188 30.8967C2.78611 30.908 2.62772 30.8515 2.44669 30.7273C2.25435 30.603 2.06201 30.4448 1.86967 30.2527C1.67733 30.0606 1.48498 29.8459 1.29264 29.6087C1.1003 29.3714 0.924933 29.1454 0.766535 28.9307C0.596822 28.7161 0.461052 28.524 0.359225 28.3545C0.246083 28.185 0.172541 28.072 0.138599 28.0155C0.0480852 27.846 0.00282854 27.6427 0.00282854 27.4054C-0.00848562 27.1794 0.0141427 26.9534 0.0707135 26.7275C0.296997 25.9704 0.613794 25.14 1.0211 24.2361C1.42841 23.3321 1.90927 22.3887 2.46366 21.4057C3.00674 20.4114 3.61205 19.3945 4.27958 18.355C4.95843 17.3042 5.68254 16.2647 6.4519 15.2365C7.23258 14.197 8.0472 13.1745 8.89576 12.1689C9.75564 11.1633 10.6381 10.2029 11.5433 9.28766C12.1203 7.49115 12.5955 5.79067 12.9689 4.18623C13.3422 2.58179 13.5629 1.18638 13.6307 0C14.0833 0.180782 14.5132 0.412408 14.9206 0.69488C15.3279 0.977351 15.6956 1.27112 16.0237 1.57619C16.3518 1.88126 16.6403 2.18633 16.8892 2.4914C17.1381 2.79647 17.3361 3.06764 17.4832 3.30492C17.4606 3.497 17.4323 3.69473 17.3984 3.89811C17.3644 4.09019 17.3192 4.29922 17.2626 4.52519C18.4053 3.79077 19.5254 3.22018 20.6229 2.81342C21.7317 2.39536 22.8065 2.18633 23.8474 2.18633C24.0963 2.18633 24.3679 2.25977 24.6621 2.40666C24.9562 2.54224 25.2447 2.72868 25.5276 2.96595C25.8218 3.19193 26.1046 3.45745 26.3762 3.76252C26.6477 4.05629 26.8853 4.36136 27.0889 4.67773C27.3039 4.9828 27.4736 5.28787 27.5981 5.59294C27.7339 5.88671 27.8074 6.15223 27.8187 6.38951ZM2.82006 27.4223C3.08028 27.4223 3.43102 27.1342 3.87227 26.558C4.31353 25.9817 4.80569 25.1965 5.34877 24.2022C5.90317 23.2079 6.48585 22.0497 7.09681 20.7278C7.70778 19.4058 8.31308 18.0047 8.91273 16.5246C8.01892 17.5867 7.18732 18.6375 6.41796 19.677C5.65991 20.7165 4.99803 21.7051 4.43232 22.6429C3.87793 23.5694 3.44234 24.4281 3.12554 25.2191C2.80874 25.9987 2.65034 26.6653 2.65034 27.219C2.65034 27.3545 2.70691 27.4223 2.82006 27.4223Z" fill="#8A724D"/>
<path d="M27.0889 28.2189C26.9192 28.2189 26.7043 28.1568 26.444 28.0325C26.1838 27.9195 25.9349 27.7726 25.6973 27.5918C25.4597 27.4223 25.256 27.2303 25.0863 27.0156C24.9166 26.8009 24.8318 26.5919 24.8318 26.3885C24.9449 25.8913 25.0977 25.3207 25.29 24.6767C25.4823 24.0327 25.6916 23.3773 25.9179 22.7107C26.1329 22.0441 26.3648 21.3944 26.6137 20.7617C26.8513 20.1176 27.0663 19.547 27.2587 19.0499C27.4623 18.5527 27.6377 18.1516 27.7848 17.8466C27.9318 17.5415 28.028 17.3889 28.0733 17.3889C28.1412 17.3889 28.3109 17.4624 28.5824 17.6093C28.854 17.7562 29.1368 17.9369 29.431 18.1516C29.7365 18.355 30.008 18.5753 30.2456 18.8126C30.4832 19.0386 30.602 19.2363 30.602 19.4058C30.602 19.4397 30.5963 19.4849 30.585 19.5414C30.5737 19.5866 30.5567 19.6487 30.5341 19.7278C30.4436 20.0103 30.3248 20.3436 30.1777 20.7278C30.0419 21.1119 29.8949 21.513 29.7365 21.9311C29.5781 22.3378 29.4197 22.7503 29.2613 23.1683C29.1029 23.5751 28.9614 23.9592 28.837 24.3208C28.7125 24.6824 28.6107 24.9987 28.5315 25.2699C28.4523 25.5411 28.4127 25.7388 28.4127 25.8631C28.4127 25.9309 28.4466 25.9648 28.5145 25.9648C28.639 25.9648 28.8257 25.8913 29.0746 25.7445C29.3235 25.5976 29.6063 25.4055 29.9231 25.1682C30.2513 24.9309 30.5907 24.6711 30.9414 24.3886C31.2922 24.1061 31.6259 23.8293 31.9427 23.5581C32.2708 23.2757 32.565 23.0214 32.8252 22.7955C33.0855 22.5695 33.2835 22.4 33.4192 22.287C33.521 22.3887 33.6398 22.5186 33.7756 22.6768C33.9227 22.835 34.0585 22.9819 34.1829 23.1175C33.934 23.366 33.6229 23.6711 33.2495 24.0327C32.8761 24.3829 32.4688 24.7445 32.0276 25.1174C31.5976 25.4902 31.1451 25.8631 30.6699 26.236C30.206 26.6088 29.7534 26.9421 29.3122 27.2359C28.8709 27.5297 28.458 27.767 28.0733 27.9477C27.6886 28.1285 27.3605 28.2189 27.0889 28.2189ZM33.8096 12.2197C33.7982 12.2649 33.753 12.3779 33.6738 12.5587C33.6059 12.7282 33.521 12.9315 33.4192 13.1688C33.3174 13.3948 33.1986 13.6377 33.0628 13.8976C32.9384 14.1462 32.8139 14.3778 32.6895 14.5925C32.565 14.8072 32.4462 14.9879 32.3331 15.1348C32.2199 15.2704 32.1294 15.3382 32.0615 15.3382C31.8579 15.3269 31.609 15.2648 31.3148 15.1518C31.0319 15.0388 30.7547 14.9145 30.4832 14.7789C30.223 14.632 29.9967 14.4908 29.8043 14.3552C29.6233 14.2196 29.5328 14.1236 29.5328 14.0671C29.5328 13.8298 29.6007 13.5247 29.7365 13.1519C29.8722 12.7677 30.0306 12.4005 30.2117 12.0502C30.3927 11.6887 30.5737 11.378 30.7547 11.1181C30.9471 10.8582 31.0942 10.7283 31.196 10.7283C31.3996 10.7283 31.6486 10.7961 31.9427 10.9316C32.2369 11.0559 32.5197 11.2028 32.7913 11.3723C33.0741 11.5418 33.3117 11.7113 33.5041 11.8808C33.7077 12.0389 33.8096 12.1519 33.8096 12.2197Z" fill="#8A724D"/>
<path d="M41.1751 25.5241C40.6999 25.5241 40.2869 25.445 39.9362 25.2869C39.5628 25.6823 39.1725 26.0552 38.7652 26.4054C38.3579 26.7444 37.9562 27.0438 37.5602 27.3037C37.1642 27.5749 36.7739 27.7895 36.3892 27.9477C36.0045 28.1059 35.6425 28.1963 35.303 28.2189C35.1333 28.2189 34.8844 28.1455 34.5563 27.9986C34.2395 27.8517 33.9284 27.6596 33.6229 27.4223C33.3061 27.1964 33.0345 26.9365 32.8083 26.6427C32.5707 26.3376 32.4519 26.0326 32.4519 25.7275C32.4519 24.9818 32.5254 24.2361 32.6725 23.4903C32.8196 22.7333 33.0063 21.9876 33.2325 21.2532C33.4475 20.5187 33.6908 19.8013 33.9623 19.1007C34.2225 18.3889 34.4714 17.7053 34.709 17.05C35.2861 17.3099 35.8461 17.598 36.3892 17.9143C36.9436 18.2307 37.4584 18.6036 37.9336 19.0329C37.7639 19.3719 37.5941 19.7617 37.4244 20.2024C37.2547 20.643 37.0907 21.1006 36.9323 21.5752C36.7739 22.0497 36.6268 22.5243 36.491 22.9988C36.3552 23.4734 36.2364 23.914 36.1346 24.3208C36.0328 24.7276 35.9536 25.0891 35.897 25.4055C35.8405 25.7106 35.8122 25.9309 35.8122 26.0665C35.8122 26.1569 35.8291 26.2416 35.8631 26.3207C35.9083 26.3885 35.9762 26.4224 36.0667 26.4224C36.2478 26.4224 36.4458 26.3659 36.6607 26.2529C36.887 26.1399 37.1246 25.993 37.3735 25.8122C37.6224 25.6202 37.8713 25.3998 38.1203 25.1513C38.3805 24.8914 38.6294 24.6202 38.867 24.3377C38.6633 23.9875 38.5615 23.6372 38.5615 23.287C38.5615 23.0497 38.5955 22.7672 38.6633 22.4395C38.7425 22.1006 38.8444 21.7503 38.9688 21.3887C39.0933 21.0272 39.229 20.6656 39.3761 20.3041C39.5345 19.9312 39.6929 19.5866 39.8513 19.2702C40.021 18.9538 40.1794 18.677 40.3265 18.4397C40.4849 18.2025 40.6263 18.0273 40.7508 17.9143C41.011 18.016 41.2826 18.1573 41.5654 18.3381C41.8483 18.5075 42.1085 18.694 42.3461 18.8973C42.5837 19.0894 42.776 19.2815 42.9231 19.4736C43.0815 19.6544 43.172 19.8069 43.1947 19.9312C43.1947 20.1685 43.1381 20.4453 43.0249 20.7617C42.9118 21.078 42.7534 21.4226 42.5498 21.7955C42.3574 22.1571 42.1198 22.5412 41.837 22.948C41.5654 23.3434 41.2656 23.7446 40.9375 24.1513C41.0054 24.1739 41.0733 24.1965 41.1411 24.2191C41.2203 24.2304 41.3109 24.2361 41.4127 24.2361C41.8652 24.2361 42.2669 24.1909 42.6176 24.1005C42.9684 24.0101 43.3021 23.8801 43.6189 23.7107C43.9357 23.5299 44.2469 23.3096 44.5524 23.0497C44.8578 22.7898 45.1916 22.4904 45.5537 22.1514C45.6555 22.2531 45.7856 22.3887 45.944 22.5582C46.1137 22.7164 46.2495 22.8576 46.3513 22.9819C45.8761 23.4564 45.4235 23.8575 44.9936 24.1852C44.575 24.5016 44.1564 24.7615 43.7377 24.9648C43.3304 25.1569 42.9175 25.2982 42.4988 25.3885C42.0802 25.4789 41.639 25.5241 41.1751 25.5241Z" fill="#8A724D"/>
<path d="M57.145 23.1175C56.1041 24.1344 55.1198 24.9874 54.192 25.6767C53.2756 26.3659 52.3987 26.9195 51.5615 27.3376C50.7242 27.7557 49.9209 28.0551 49.1516 28.2359C48.3935 28.4166 47.6524 28.507 46.9283 28.507C46.6229 28.507 46.2834 28.394 45.9101 28.1681C45.5367 27.9421 45.1916 27.6653 44.8748 27.3376C44.5467 27.0212 44.2752 26.6879 44.0602 26.3376C43.8452 25.9874 43.7377 25.688 43.7377 25.4394C43.7377 24.5129 43.8679 23.6655 44.1281 22.8971C44.377 22.1175 44.7108 21.417 45.1294 20.7956C45.548 20.1741 46.0232 19.6261 46.555 19.1516C47.098 18.677 47.6581 18.2816 48.2351 17.9652C48.8235 17.6488 49.4061 17.4115 49.9832 17.2534C50.5602 17.0952 51.0919 17.0161 51.5785 17.0161C51.9292 17.0161 52.2743 17.1178 52.6137 17.3212C52.9644 17.5245 53.2812 17.7731 53.5641 18.0669C53.8469 18.3606 54.0732 18.6714 54.2429 18.999C54.424 19.3154 54.5145 19.5922 54.5145 19.8295C54.5145 20.2137 54.3504 20.6091 54.0223 21.0159C53.7055 21.4113 53.253 21.8181 52.6646 22.2362C52.0763 22.6542 51.3691 23.0836 50.5432 23.5242C49.7173 23.9536 48.8065 24.3886 47.8108 24.8292C47.7769 25.1004 47.7599 25.3659 47.7599 25.6258C47.7599 25.9761 47.8335 26.2134 47.9806 26.3376C48.139 26.4619 48.4275 26.5241 48.8461 26.5241C49.5928 26.5241 50.2943 26.3998 50.9505 26.1512C51.6181 25.9026 52.2573 25.5806 52.8683 25.1852C53.4792 24.7897 54.0676 24.3377 54.6333 23.8293C55.199 23.3209 55.759 22.8068 56.3134 22.287L57.145 23.1175ZM51.1711 18.8804C50.9449 18.8804 50.696 19.0047 50.4244 19.2533C50.1529 19.4905 49.8813 19.8069 49.6098 20.2024C49.3383 20.5978 49.078 21.0554 48.8291 21.5752C48.5802 22.0836 48.3652 22.6147 48.1842 23.1683C48.6028 22.8971 49.0101 22.609 49.4061 22.304C49.8134 21.9989 50.1755 21.6825 50.4923 21.3548C50.8091 21.0159 51.0637 20.6713 51.256 20.321C51.4483 19.9707 51.5445 19.6205 51.5445 19.2702C51.5445 19.1685 51.5106 19.0781 51.4427 18.999C51.3861 18.9199 51.2956 18.8804 51.1711 18.8804Z" fill="#8A724D"/>
<path d="M64.0184 20.2702C63.8713 20.7108 63.6846 21.2136 63.4583 21.7786C63.2434 22.3435 63.034 22.8971 62.8304 23.4395C62.6267 23.9818 62.4514 24.4733 62.3043 24.914C62.1685 25.3546 62.1006 25.671 62.1006 25.8631C62.1006 25.9309 62.1346 25.9648 62.2025 25.9648C62.3269 25.9648 62.5136 25.8913 62.7625 25.7445C63.0114 25.5976 63.2943 25.4055 63.6111 25.1682C63.9392 24.9309 64.2786 24.6711 64.6293 24.3886C64.9801 24.1061 65.3139 23.8293 65.6307 23.5581C65.9588 23.2757 66.2529 23.0214 66.5132 22.7955C66.7734 22.5695 66.9714 22.4 67.1072 22.287C67.209 22.3887 67.3278 22.5186 67.4635 22.6768C67.6106 22.835 67.7464 22.9819 67.8709 23.1175C67.6219 23.366 67.3108 23.6711 66.9374 24.0327C66.5641 24.3829 66.1568 24.7445 65.7155 25.1174C65.2856 25.4902 64.833 25.8631 64.3578 26.236C63.8939 26.6088 63.4357 26.9421 62.9831 27.2359C62.5419 27.5297 62.1289 27.767 61.7442 27.9477C61.3596 28.1285 61.0371 28.2189 60.7769 28.2189C60.6072 28.2189 60.3922 28.1568 60.132 28.0325C59.8717 27.9195 59.6228 27.7726 59.3852 27.5918C59.1476 27.4223 58.944 27.2303 58.7743 27.0156C58.6046 26.8009 58.5197 26.5919 58.5197 26.3885C58.6894 25.6315 58.8591 24.9705 59.0288 24.4055C59.1985 23.8406 59.3569 23.3604 59.504 22.9649C59.6511 22.5582 59.7812 22.2305 59.8944 21.9819C60.0075 21.7334 60.0924 21.5469 60.1489 21.4226C60.0132 21.3661 59.8831 21.304 59.7586 21.2362C59.6341 21.1684 59.5097 21.1006 59.3852 21.0328C59.2042 21.2249 59.0005 21.4283 58.7743 21.643C58.5593 21.8576 58.3387 22.0723 58.1124 22.287C57.8861 22.5017 57.6598 22.7107 57.4335 22.9141C57.2073 23.1175 57.0036 23.3039 56.8226 23.4734L56.008 22.6429C56.3021 22.3604 56.6585 22.0215 57.0771 21.626C57.4845 21.2193 57.8861 20.8125 58.2821 20.4057C57.9992 20.2363 57.7447 20.0781 57.5184 19.9312C57.2921 19.773 57.0998 19.6318 56.9414 19.5075C56.749 19.3719 56.5793 19.2476 56.4322 19.1346C56.3643 19.1007 56.3304 19.0273 56.3304 18.9143C56.3304 18.79 56.3813 18.6149 56.4832 18.3889C56.5737 18.1516 56.6925 17.903 56.8395 17.6432C56.9866 17.372 57.145 17.1008 57.3147 16.8297C57.4845 16.5472 57.6485 16.293 57.8069 16.067C57.9653 15.841 58.1011 15.6602 58.2142 15.5246C58.3387 15.3778 58.4179 15.3043 58.4518 15.3043C58.4744 15.3043 58.548 15.3326 58.6724 15.389C58.8082 15.4455 58.9496 15.5133 59.0967 15.5924C59.2438 15.6602 59.3796 15.7393 59.504 15.8297C59.6285 15.9201 59.7077 15.9992 59.7416 16.067C59.7529 16.1235 59.7643 16.2421 59.7756 16.4229C59.7869 16.6037 59.7982 16.824 59.8095 17.0839C60.2508 17.3099 60.7033 17.5697 61.1672 17.8635C61.6311 18.146 62.0554 18.4171 62.4401 18.677C62.8926 18.9708 63.3226 19.2702 63.7299 19.5753C63.877 19.6657 63.9675 19.7787 64.0014 19.9142C64.0467 20.0498 64.0523 20.1685 64.0184 20.2702Z" fill="#8A724D"/>
<path d="M92.9544 6.38951C92.9544 7.54199 92.7451 8.73967 92.3264 9.98254C91.9191 11.2141 91.2799 12.4174 90.4087 13.5925C89.5488 14.7676 88.4457 15.8862 87.0993 16.9483C85.7529 18.0104 84.1463 18.9369 82.2794 19.7278C82.7433 20.8464 83.2185 21.9141 83.705 22.931C84.2029 23.9479 84.6894 24.9083 85.1646 25.8122C85.6511 26.7049 86.1093 27.5297 86.5392 28.2867C86.9805 29.055 87.3765 29.7386 87.7272 30.3374C87.4217 30.4391 87.0597 30.5578 86.6411 30.6934C86.2224 30.8289 85.7925 30.9645 85.3512 31.1001C84.91 31.247 84.4744 31.3826 84.0445 31.5069C83.6258 31.6425 83.2581 31.7498 82.9413 31.8289C82.8508 31.5803 82.7207 31.1905 82.551 30.6595C82.3813 30.1284 82.1889 29.49 81.974 28.7443C81.759 28.0099 81.5271 27.1851 81.2781 26.2699C81.0292 25.3433 80.7803 24.3716 80.5314 23.3547C80.2938 22.3265 80.0619 21.2701 79.8356 20.1854C79.6206 19.0894 79.4283 17.9991 79.2586 16.9144C80.6955 16.4172 81.9796 15.858 83.111 15.2365C84.2538 14.6151 85.2551 13.9597 86.115 13.2705C86.9748 12.57 87.7046 11.8525 88.3042 11.1181C88.9039 10.3837 89.3904 9.66053 89.7638 8.9487C90.1485 8.23687 90.4257 7.55329 90.5954 6.89795C90.7764 6.23132 90.8669 5.62118 90.8669 5.06754C90.8669 4.85286 90.8499 4.66643 90.816 4.50825C90.782 4.33876 90.7142 4.20318 90.6123 4.10149C90.5105 3.9998 90.3634 3.93765 90.1711 3.91506C89.9901 3.88116 89.7468 3.88681 89.4413 3.932C88.9096 4.04499 88.3212 4.25402 87.6763 4.55909C87.0427 4.86416 86.3695 5.24832 85.6567 5.71157C84.9552 6.16353 84.2198 6.68893 83.4505 7.28777C82.6924 7.88661 81.923 8.53064 81.1424 9.21987C80.7237 10.5305 80.2429 11.9203 79.6998 13.3892C79.1567 14.8467 78.5684 16.3043 77.9348 17.7618C77.3012 19.2081 76.6337 20.6148 75.9322 21.9819C75.242 23.3491 74.5349 24.6033 73.8108 25.7445C73.098 26.8743 72.3796 27.8517 71.6554 28.6765C70.9427 29.5126 70.2525 30.1115 69.585 30.473C69.4152 30.5634 69.2059 30.6482 68.957 30.7273C68.7194 30.8063 68.4196 30.8628 68.0575 30.8967C67.9218 30.908 67.7634 30.8515 67.5823 30.7273C67.39 30.603 67.1977 30.4448 67.0053 30.2527C66.813 30.0606 66.6206 29.8459 66.4283 29.6087C66.236 29.3714 66.0606 29.1454 65.9022 28.9307C65.7325 28.7161 65.5967 28.524 65.4949 28.3545C65.3817 28.185 65.3082 28.072 65.2743 28.0155C65.1837 27.846 65.1385 27.6427 65.1385 27.4054C65.1272 27.1794 65.1498 26.9534 65.2064 26.7275C65.4327 25.9704 65.7495 25.14 66.1568 24.2361C66.5641 23.3321 67.0449 22.3887 67.5993 21.4057C68.1424 20.4114 68.7477 19.3945 69.4152 18.355C70.0941 17.3042 70.8182 16.2647 71.5876 15.2365C72.3682 14.197 73.1829 13.1745 74.0314 12.1689C74.8913 11.1633 75.7738 10.2029 76.6789 9.28766C77.256 7.49115 77.7312 5.79067 78.1045 4.18623C78.4779 2.58179 78.6985 1.18638 78.7664 0C79.219 0.180782 79.6489 0.412408 80.0562 0.69488C80.4635 0.977351 80.8312 1.27112 81.1593 1.57619C81.4875 1.88126 81.776 2.18633 82.0249 2.4914C82.2738 2.79647 82.4718 3.06764 82.6189 3.30492C82.5962 3.497 82.568 3.69473 82.534 3.89811C82.5001 4.09019 82.4548 4.29922 82.3982 4.52519C83.541 3.79077 84.6611 3.22018 85.7586 2.81342C86.8673 2.39536 87.9422 2.18633 88.9831 2.18633C89.232 2.18633 89.5035 2.25977 89.7977 2.40666C90.0919 2.54224 90.3804 2.72868 90.6632 2.96595C90.9574 3.19193 91.2403 3.45745 91.5118 3.76252C91.7833 4.05629 92.0209 4.36136 92.2246 4.67773C92.4396 4.9828 92.6093 5.28787 92.7337 5.59294C92.8695 5.88671 92.9431 6.15223 92.9544 6.38951ZM67.9557 27.4223C68.2159 27.4223 68.5667 27.1342 69.0079 26.558C69.4492 25.9817 69.9414 25.1965 70.4844 24.2022C71.0388 23.2079 71.6215 22.0497 72.2325 20.7278C72.8434 19.4058 73.4487 18.0047 74.0484 16.5246C73.1546 17.5867 72.323 18.6375 71.5536 19.677C70.7956 20.7165 70.1337 21.7051 69.568 22.6429C69.0136 23.5694 68.578 24.4281 68.2612 25.2191C67.9444 25.9987 67.786 26.6653 67.786 27.219C67.786 27.3545 67.8426 27.4223 67.9557 27.4223Z" fill="#8A724D"/>
<path d="M92.4622 25.558C92.4622 25.897 92.5867 26.0665 92.8356 26.0665C93.0958 26.0665 93.4409 25.8631 93.8708 25.4563C94.3008 25.0383 94.7477 24.5129 95.2115 23.8801C95.1889 23.7559 95.1719 23.6485 95.1606 23.5581C95.1606 23.4564 95.1606 23.366 95.1606 23.287C95.1606 23.061 95.1833 22.7955 95.2285 22.4904C95.2851 22.174 95.4152 21.8181 95.6189 21.4226C95.7546 21.1176 95.9187 20.8182 96.111 20.5244C96.2694 20.2645 96.4618 19.9877 96.688 19.6939C96.9143 19.3888 97.1632 19.1064 97.4348 18.8465L97.5366 18.7448C97.6497 18.8804 97.7968 19.0668 97.9779 19.3041C98.1702 19.5301 98.3569 19.7674 98.5379 20.0159C98.7302 20.2532 98.8943 20.4735 99.0301 20.6769C99.1772 20.8803 99.2677 21.0215 99.3016 21.1006C99.3016 21.5865 99.2111 22.0723 99.0301 22.5582C98.8604 23.044 98.6284 23.5242 98.3343 23.9988C99.0131 23.9536 99.641 23.7841 100.218 23.4903C100.806 23.1853 101.417 22.6938 102.051 22.0158C102.153 22.1175 102.283 22.2588 102.441 22.4395C102.611 22.609 102.747 22.7559 102.849 22.8802C102.373 23.3773 101.904 23.7898 101.44 24.1174C100.987 24.4451 100.529 24.705 100.065 24.897C99.6128 25.0891 99.1489 25.2304 98.6737 25.3207C98.1985 25.3998 97.712 25.4394 97.2141 25.4394C96.8295 25.8461 96.4165 26.219 95.9753 26.558C95.534 26.8969 95.0814 27.1907 94.6175 27.4393C94.165 27.6879 93.7124 27.8799 93.2598 28.0155C92.8073 28.1511 92.3773 28.2189 91.97 28.2189C91.6306 28.2189 91.2799 28.1172 90.9178 27.9138C90.5558 27.7105 90.2277 27.4619 89.9335 27.1681C89.6393 26.863 89.3961 26.541 89.2037 26.2021C89.0114 25.8631 88.9152 25.5637 88.9152 25.3038C88.9152 24.4451 89.034 23.592 89.2716 22.7446C89.4979 21.8972 89.8599 21.1063 90.3578 20.3718C90.8443 19.6261 91.4666 18.9708 92.2246 18.4058C92.994 17.8409 93.9048 17.4115 94.957 17.1178C94.9909 17.0952 95.0475 17.0782 95.1267 17.0669C95.2172 17.0556 95.2907 17.05 95.3473 17.05C95.5057 17.05 95.6698 17.1121 95.8395 17.2364C96.0205 17.3494 96.1846 17.4793 96.3316 17.6262C96.49 17.7731 96.6202 17.92 96.722 18.0669C96.8238 18.2025 96.8747 18.2929 96.8747 18.3381C96.8521 18.3945 96.7672 18.468 96.6202 18.5584C96.4731 18.6375 96.2751 18.7787 96.0262 18.9821C95.7773 19.1855 95.4831 19.4792 95.1437 19.8634C94.8042 20.2363 94.4309 20.7334 94.0236 21.3548C93.4126 22.2701 92.9996 23.1005 92.7847 23.8462C92.5697 24.5807 92.4622 25.1513 92.4622 25.558Z" fill="#8A724D"/>
<path d="M103.273 28.5409C103.069 28.5409 102.837 28.4731 102.577 28.3375C102.317 28.2133 102.051 28.0381 101.779 27.8121C101.508 27.5975 101.248 27.3432 100.999 27.0495C100.739 26.7444 100.524 26.428 100.354 26.1004C100.286 25.9761 100.241 25.8348 100.218 25.6767C100.195 25.5185 100.184 25.3151 100.184 25.0665C100.184 24.4225 100.286 23.7785 100.49 23.1344C100.682 22.4791 100.953 21.8576 101.304 21.2701C101.655 20.6826 102.079 20.1346 102.577 19.6261C103.064 19.1064 103.595 18.6601 104.172 18.2872C104.749 17.9143 105.366 17.6206 106.022 17.4059C106.678 17.1912 107.346 17.0839 108.025 17.0839C108.127 17.0839 108.262 17.1404 108.432 17.2534C108.613 17.3551 108.806 17.4963 109.009 17.6771C109.213 17.8579 109.416 18.0612 109.62 18.2872C109.835 18.5132 110.027 18.7448 110.197 18.9821C110.367 19.2081 110.503 19.434 110.604 19.66C110.718 19.8747 110.774 20.0668 110.774 20.2363C110.718 20.4509 110.542 20.6882 110.248 20.9481C109.954 21.1967 109.603 21.4339 109.196 21.6599C108.8 21.8746 108.381 22.0554 107.94 22.2023C107.499 22.3491 107.114 22.4226 106.786 22.4226C106.594 22.4226 106.497 22.3661 106.497 22.2531C106.497 22.1288 106.582 21.948 106.752 21.7108C106.922 21.4622 107.108 21.1967 107.312 20.9142C107.527 20.6204 107.719 20.3323 107.889 20.0498C108.059 19.7561 108.144 19.5075 108.144 19.3041C108.144 19.2024 108.115 19.1177 108.059 19.0499C108.014 18.9821 107.946 18.9482 107.855 18.9482C107.606 18.9482 107.346 19.0612 107.074 19.2872C106.803 19.5131 106.531 19.8126 106.26 20.1854C105.988 20.5583 105.728 20.9876 105.479 21.4735C105.23 21.948 105.01 22.4395 104.817 22.948C104.636 23.4564 104.489 23.9649 104.376 24.4733C104.263 24.9818 104.206 25.445 104.206 25.8631C104.206 26.1117 104.28 26.2868 104.427 26.3885C104.574 26.4789 104.8 26.5241 105.106 26.5241C105.864 26.5241 106.594 26.3998 107.295 26.1512C108.008 25.8913 108.687 25.5637 109.332 25.1682C109.988 24.7615 110.61 24.3095 111.198 23.8124C111.787 23.3152 112.341 22.8181 112.862 22.3209C112.986 22.4678 113.139 22.6147 113.32 22.7616C113.501 22.8971 113.637 23.0158 113.727 23.1175C113.026 23.8519 112.279 24.5524 111.487 25.2191C110.706 25.8744 109.88 26.4506 109.009 26.9478C108.138 27.4336 107.222 27.8178 106.26 28.1003C105.309 28.394 104.314 28.5409 103.273 28.5409Z" fill="#8A724D"/>
<path d="M122.23 25.5919C122.411 25.5919 122.637 25.5241 122.909 25.3885C123.191 25.253 123.497 25.0835 123.825 24.8801C124.153 24.6654 124.487 24.4281 124.826 24.1683C125.177 23.9084 125.505 23.6542 125.811 23.4056C126.128 23.157 126.41 22.9254 126.659 22.7107C126.908 22.496 127.101 22.3322 127.236 22.2192C127.338 22.3209 127.457 22.4508 127.593 22.609C127.74 22.7672 127.876 22.9141 128 23.0497C127.751 23.2983 127.44 23.6033 127.067 23.9649C126.693 24.3151 126.286 24.6767 125.845 25.0496C125.415 25.4224 124.962 25.7953 124.487 26.1682C124.023 26.541 123.565 26.8743 123.112 27.1681C122.671 27.4619 122.258 27.6992 121.873 27.8799C121.489 28.0607 121.166 28.1511 120.906 28.1511C120.465 28.1511 120.063 28.0607 119.701 27.8799C119.35 27.7105 119.028 27.4901 118.734 27.219C118.451 26.9365 118.185 26.6201 117.936 26.2699C117.687 25.9083 117.455 25.5411 117.24 25.1682C117.048 25.4168 116.85 25.6936 116.646 25.9987C116.454 26.2924 116.273 26.5749 116.103 26.8461C115.933 27.1173 115.792 27.3545 115.679 27.5579C115.566 27.7613 115.492 27.8856 115.458 27.9308C115.436 28.0212 115.402 28.0833 115.356 28.1172C115.311 28.1624 115.238 28.185 115.136 28.185C114.966 28.185 114.762 28.1172 114.525 27.9816C114.299 27.8573 114.067 27.6879 113.829 27.4732C113.591 27.2585 113.359 27.0269 113.133 26.7783C112.896 26.5184 112.692 26.2586 112.522 25.9987C112.432 25.8744 112.375 25.7332 112.353 25.575C112.33 25.4168 112.319 25.2247 112.319 24.9987C112.319 24.253 112.409 23.4112 112.59 22.4734C112.771 21.5356 113.026 20.5526 113.354 19.5244C113.682 18.4849 114.072 17.4172 114.525 16.3212C114.989 15.2139 115.498 14.1236 116.052 13.0502C116.607 11.9655 117.206 10.9091 117.851 9.88085C118.496 8.85266 119.164 7.89225 119.854 6.99964C120.544 6.10703 121.251 5.30482 121.975 4.59299C122.699 3.88116 123.429 3.29927 124.164 2.84731C124.278 2.77952 124.379 2.73432 124.47 2.71173C124.572 2.68913 124.657 2.67783 124.725 2.67783C124.86 2.67783 125.053 2.75692 125.302 2.91511C125.55 3.06199 125.811 3.24277 126.082 3.45745C126.365 3.67213 126.625 3.88681 126.863 4.10149C127.112 4.31616 127.293 4.4913 127.406 4.62688C127.474 4.72857 127.508 4.87546 127.508 5.06754C127.508 5.81326 127.259 6.74542 126.761 7.86401C126.263 8.9713 125.562 10.1972 124.657 11.5418C123.752 12.8751 122.654 14.2931 121.364 15.7958C120.086 17.2986 118.66 18.807 117.087 20.321C116.918 20.8972 116.754 21.4735 116.595 22.0497C116.437 22.6147 116.29 23.1853 116.154 23.7615C117.218 22.2362 118.157 21.0328 118.971 20.1515C119.797 19.2589 120.504 18.5866 121.093 18.1347C121.681 17.6714 122.156 17.3776 122.518 17.2534C122.892 17.1178 123.152 17.05 123.299 17.05C123.435 17.05 123.593 17.1234 123.774 17.2703C123.966 17.4059 124.148 17.5697 124.317 17.7618C124.487 17.9426 124.64 18.1234 124.775 18.3042C124.911 18.4736 125.002 18.5979 125.047 18.677C125.058 18.79 124.94 19.0216 124.691 19.3719C124.442 19.7109 124.097 20.1063 123.655 20.5583C123.214 21.0102 122.688 21.4904 122.077 21.9989C121.477 22.496 120.821 22.9593 120.108 23.3886C120.47 23.9084 120.782 24.3151 121.042 24.6089C121.302 24.9027 121.523 25.123 121.704 25.2699C121.907 25.4394 122.083 25.5467 122.23 25.5919ZM120.414 11.9146C120.074 12.5926 119.724 13.344 119.362 14.1688C119.011 14.9936 118.66 15.8693 118.309 16.7958C119.565 15.3721 120.634 14.0501 121.517 12.8299C122.411 11.6096 123.141 10.5079 123.706 9.52494C124.283 8.53064 124.702 7.65498 124.962 6.89795C125.222 6.14093 125.352 5.50819 125.352 4.99975C125.352 4.96585 125.347 4.93195 125.336 4.89806C125.336 4.85286 125.307 4.83026 125.251 4.83026C125.115 4.83026 124.894 4.98845 124.589 5.30482C124.283 5.62118 123.916 6.08444 123.486 6.69458C123.056 7.30471 122.575 8.05044 122.043 8.93175C121.523 9.80176 120.98 10.7961 120.414 11.9146Z" fill="#8A724D"/>
<path d="M38.2508 48C37.3384 48 36.5129 47.8004 35.7743 47.4013C35.0444 46.9934 34.4709 46.438 34.0539 45.7352C33.6368 45.0236 33.4282 44.2253 33.4282 43.3402C33.4282 42.4551 33.6368 41.6611 34.0539 40.9582C34.4709 40.2466 35.0488 39.6913 35.7874 39.2921C36.526 38.8843 37.3514 38.6803 38.2638 38.6803C38.9763 38.6803 39.628 38.8018 40.2189 39.0448C40.8098 39.2791 41.3137 39.6305 41.7308 40.0991L40.8836 40.9191C40.1972 40.1989 39.3413 39.8388 38.3159 39.8388C37.6382 39.8388 37.0256 39.9906 36.4782 40.2944C35.9307 40.5981 35.5006 41.0189 35.1878 41.5569C34.8837 42.0863 34.7316 42.6807 34.7316 43.3402C34.7316 43.9997 34.8837 44.5984 35.1878 45.1364C35.5006 45.6657 35.9307 46.0823 36.4782 46.386C37.0256 46.6897 37.6382 46.8416 38.3159 46.8416C39.3326 46.8416 40.1885 46.4771 40.8836 45.7482L41.7308 46.5682C41.3137 47.0368 40.8054 47.3926 40.2059 47.6355C39.615 47.8785 38.9633 48 38.2508 48Z" fill="#120E39"/>
<path d="M51.6634 45.618H46.8148L45.8112 47.8959H44.4687L48.6004 38.7845H49.8908L54.0356 47.8959H52.667L51.6634 45.618ZM51.2072 44.5767L49.2391 40.1121L47.271 44.5767H51.2072Z" fill="#120E39"/>
<path d="M60.532 48C59.8455 48 59.1808 47.8959 58.5378 47.6876C57.9035 47.4707 57.4038 47.193 57.0389 46.8546L57.5211 45.8393C57.8687 46.1517 58.3118 46.4077 58.8506 46.6073C59.398 46.7982 59.9585 46.8936 60.532 46.8936C61.2879 46.8936 61.8527 46.7678 62.2264 46.5161C62.6 46.2558 62.7868 45.9131 62.7868 45.4879C62.7868 45.1755 62.6826 44.9238 62.474 44.7329C62.2742 44.5333 62.0222 44.3815 61.718 44.2773C61.4226 44.1732 61.0012 44.0561 60.4538 43.9259C59.7673 43.761 59.2112 43.5962 58.7854 43.4313C58.3683 43.2664 58.0077 43.0148 57.7036 42.6763C57.4082 42.3292 57.2604 41.865 57.2604 41.2836C57.2604 40.7977 57.3864 40.3594 57.6384 39.969C57.8991 39.5785 58.2901 39.2661 58.8115 39.0318C59.3328 38.7975 59.9802 38.6803 60.7535 38.6803C61.2923 38.6803 61.8223 38.7498 62.3437 38.8886C62.865 39.0274 63.3125 39.227 63.6862 39.4874L63.256 40.5287C62.8737 40.2857 62.4653 40.1035 62.0309 39.982C61.5964 39.8518 61.1706 39.7867 60.7535 39.7867C60.0149 39.7867 59.4588 39.9212 59.0852 40.1902C58.7202 40.4592 58.5378 40.8063 58.5378 41.2315C58.5378 41.5439 58.642 41.7999 58.8506 41.9995C59.0591 42.1904 59.3155 42.3423 59.6196 42.4551C59.9324 42.5592 60.3538 42.672 60.8839 42.7935C61.5703 42.9584 62.1221 43.1232 62.5392 43.2881C62.9563 43.453 63.3125 43.7046 63.608 44.0431C63.9121 44.3815 64.0641 44.837 64.0641 45.4098C64.0641 45.887 63.9338 46.3252 63.6731 46.7244C63.4125 47.1149 63.0171 47.4273 62.487 47.6616C61.957 47.8872 61.3053 48 60.532 48Z" fill="#120E39"/>
<path d="M68.4448 38.7845H69.7482V47.8959H68.4448V38.7845Z" fill="#120E39"/>
<path d="M82.8025 38.7845V47.8959H81.7338L76.2595 41.1014V47.8959H74.9561V38.7845H76.0249L81.4992 45.579V38.7845H82.8025Z" fill="#120E39"/>
<path d="M92.1286 48C91.2076 48 90.3777 47.8004 89.6391 47.4013C88.9006 46.9934 88.3184 46.4337 87.8926 45.7222C87.4755 45.0106 87.267 44.2166 87.267 43.3402C87.267 42.4637 87.4755 41.6697 87.8926 40.9582C88.3184 40.2466 88.9006 39.6913 89.6391 39.2921C90.3777 38.8843 91.2076 38.6803 92.1286 38.6803C93.041 38.6803 93.8665 38.8843 94.6051 39.2921C95.3437 39.6913 95.9215 40.2466 96.3386 40.9582C96.7557 41.6611 96.9642 42.4551 96.9642 43.3402C96.9642 44.2253 96.7557 45.0236 96.3386 45.7352C95.9215 46.438 95.3437 46.9934 94.6051 47.4013C93.8665 47.8004 93.041 48 92.1286 48ZM92.1286 46.8416C92.7977 46.8416 93.3973 46.6897 93.9273 46.386C94.466 46.0823 94.8875 45.6657 95.1916 45.1364C95.5044 44.5984 95.6608 43.9997 95.6608 43.3402C95.6608 42.6807 95.5044 42.0863 95.1916 41.5569C94.8875 41.0189 94.466 40.5981 93.9273 40.2944C93.3973 39.9906 92.7977 39.8388 92.1286 39.8388C91.4595 39.8388 90.8513 39.9906 90.3039 40.2944C89.7651 40.5981 89.3394 41.0189 89.0266 41.5569C88.7224 42.0863 88.5704 42.6807 88.5704 43.3402C88.5704 43.9997 88.7224 44.5984 89.0266 45.1364C89.3394 45.6657 89.7651 46.0823 90.3039 46.386C90.8513 46.6897 91.4595 46.8416 92.1286 46.8416Z" fill="#120E39"/>
</svg>
