<svg width="90" height="32" viewBox="0 0 90 32" fill="none" xmlns="http://www.w3.org/2000/svg">
<path d="M8.46974 24.9389C8.93475 25.0724 9.53261 25.1726 10.2633 25.2394C10.9941 25.2727 11.6916 25.2894 12.3559 25.2894C13.6844 25.2894 14.7805 25.0224 15.6441 24.4882C16.5409 23.9206 16.9893 23.0526 16.9893 21.8841C16.9893 20.7824 16.6239 19.9979 15.8932 19.5305C15.1625 19.0631 14.0498 18.8294 12.5551 18.8294H8.46974V24.9389ZM8.46974 12.7198H12.1067C13.535 12.7198 14.5646 12.4528 15.1957 11.9186C15.86 11.3844 16.1922 10.5999 16.1922 9.56492C16.1922 8.66351 15.8102 7.94572 15.0462 7.41156C14.3155 6.87739 13.2028 6.61031 11.7082 6.61031C11.21 6.61031 10.6287 6.627 9.9644 6.66039C9.33332 6.69377 8.8351 6.74385 8.46974 6.81062V12.7198ZM11.7082 31.9999C11.1435 31.9999 10.4792 31.9832 9.71529 31.9498C8.95136 31.9164 8.1542 31.8497 7.32384 31.7495C6.52668 31.6494 5.72953 31.5158 4.93238 31.3489C4.13523 31.2153 3.4045 31.015 2.74021 30.748C0.913404 30.0469 0 28.8283 0 27.0922V3.70578C0 3.00468 0.182681 2.47052 0.548042 2.10328C0.946618 1.70265 1.47805 1.38549 2.14235 1.1518C3.27165 0.751171 4.68327 0.467395 6.37722 0.300468C8.07117 0.100156 9.81494 0 11.6085 0C15.86 0 19.1317 0.717786 21.4235 2.15336C23.7153 3.58893 24.8612 5.80906 24.8612 8.81374C24.8612 10.3161 24.4294 11.6181 23.5658 12.7198C22.7022 13.7882 21.5397 14.5727 20.0783 15.0735C21.739 15.5409 23.1174 16.3922 24.2135 17.6275C25.3428 18.8627 25.9074 20.4152 25.9074 22.2848C25.9074 25.5899 24.6785 28.0437 22.2206 29.6462C19.7959 31.2153 16.2918 31.9999 11.7082 31.9999Z" fill="white"/>
<path d="M37.2739 1.75273C37.8385 1.41888 38.6855 1.10172 39.8148 0.801248C40.9773 0.500779 42.1398 0.350545 43.3023 0.350545C44.9631 0.350545 46.4245 0.600936 47.6867 1.10172C48.982 1.56911 49.8124 2.32029 50.1778 3.35523C50.7756 5.09127 51.4233 7.11109 52.1208 9.41468C52.8183 11.7183 53.5158 14.1053 54.2134 16.5758C54.9109 19.013 55.5918 21.4334 56.2561 23.8372C56.9203 26.2075 57.5016 28.3108 57.9998 30.147C57.6012 30.6144 57.0034 30.9816 56.2062 31.2487C55.4091 31.5492 54.4625 31.6994 53.3664 31.6994C52.5692 31.6994 51.8883 31.6327 51.3237 31.4991C50.7922 31.3656 50.3438 31.1653 49.9785 30.8982C49.6463 30.6311 49.364 30.2806 49.1315 29.8465C48.9322 29.4125 48.7495 28.9118 48.5835 28.3442L47.6867 24.8888H38.6689C38.4032 25.8904 38.1375 26.9253 37.8717 27.9937C37.606 29.062 37.3403 30.0969 37.0746 31.0985C36.6096 31.2654 36.1114 31.399 35.5799 31.4991C35.0817 31.6327 34.4672 31.6994 33.7365 31.6994C32.0426 31.6994 30.7804 31.4157 29.95 30.8481C29.1529 30.2472 28.7543 29.4292 28.7543 28.3943C28.7543 27.9269 28.8207 27.4595 28.9536 26.9921C29.0865 26.5247 29.2359 25.9738 29.402 25.3395C29.6345 24.4381 29.95 23.3197 30.3486 21.9843C30.7804 20.6489 31.2454 19.2133 31.7436 17.6776C32.2418 16.1085 32.7733 14.506 33.3379 12.8701C33.9026 11.2342 34.434 9.69846 34.9322 8.26289C35.4305 6.79393 35.8789 5.4919 36.2774 4.35679C36.7092 3.22169 37.0414 2.35367 37.2739 1.75273ZM43.2525 8.21281C42.7875 9.61499 42.2561 11.1841 41.6582 12.9201C41.0936 14.6228 40.5787 16.3588 40.1137 18.1283H46.2917C45.8266 16.3255 45.345 14.5727 44.8468 12.8701C44.3818 11.134 43.95 9.58161 43.5514 8.21281H43.2525Z" fill="white"/>
<path d="M75.3384 5.44444C77.128 5.44444 78.6067 4.51174 79.582 3.01911C80.1817 2.10188 80.8009 1.11372 81.4395 0.0546364C81.4481 0.0403726 81.4598 0.0283363 81.4738 0.0194865C81.4878 0.0106367 81.5036 0.00521827 81.52 0.00366424C81.5364 0.00211022 81.5529 0.00446265 81.5683 0.0105348C81.5836 0.016607 81.5974 0.0262312 81.6084 0.0386384C84.5659 3.37747 86.7422 7.14825 88.3424 11.3654C89.4124 14.1859 90.1115 17.0944 89.9869 20.0972C89.676 27.6276 83.2749 31.6895 76.4415 31.9887C76.2605 31.9962 75.8902 31.9999 75.3305 31.9999C74.7718 31.9999 74.402 31.9956 74.221 31.9871C67.3876 31.6847 60.9881 27.6196 60.682 20.0892C60.5589 17.0864 61.2596 14.1779 62.3311 11.3574C63.9346 7.14185 66.1124 3.37267 69.0715 0.0354381C69.0825 0.0230309 69.0962 0.0134079 69.1116 0.00733571C69.1269 0.00126355 69.1435 -0.00108889 69.1599 0.000465134C69.1763 0.00201916 69.1921 0.00743636 69.2061 0.0162861C69.22 0.0251359 69.2318 0.0371735 69.2403 0.0514373C69.879 1.11052 70.4976 2.09868 71.0963 3.01591C72.07 4.51014 73.5487 5.44284 75.3384 5.44444ZM65.7794 13.4564C65.7689 13.467 65.7631 13.4788 65.7621 13.4916C65.5964 15.2258 65.6484 18.267 66.9504 19.5853C68.2524 20.9035 71.2509 20.9515 72.9616 20.7819C72.9743 20.7809 72.9858 20.775 72.9964 20.7643C73.01 20.7505 73.0174 20.7372 73.0185 20.7244C73.1842 18.9901 73.1321 15.9489 71.8301 14.6306C70.5281 13.3124 67.5296 13.2644 65.8189 13.434C65.8063 13.435 65.7931 13.4425 65.7794 13.4564ZM84.8941 13.458C84.8805 13.4441 84.8673 13.4366 84.8547 13.4356C83.1455 13.266 80.147 13.314 78.8466 14.6322C77.5446 15.9489 77.4941 18.9885 77.6583 20.7212C77.6593 20.7339 77.6667 20.7473 77.6804 20.7611C77.6909 20.7729 77.703 20.7793 77.7166 20.7803C79.4258 20.9483 82.4227 20.9003 83.7247 19.5837C85.0251 18.2654 85.0772 15.2274 84.9131 13.4932C84.912 13.4804 84.9057 13.4686 84.8941 13.458ZM75.3399 25.1735C75.3599 25.1735 75.3726 25.1719 75.3778 25.1687C76.1932 24.5597 76.8965 23.884 77.4878 23.1417C77.4954 23.1322 77.5007 23.1211 77.5032 23.1093C77.5058 23.0974 77.5057 23.0851 77.5028 23.0733C77.4999 23.0615 77.4943 23.0506 77.4865 23.0413C77.4787 23.0321 77.4689 23.0248 77.4578 23.0201C76.8529 22.7673 76.1458 22.6415 75.3368 22.6425C74.5277 22.6447 73.8212 22.7721 73.2173 23.0249C73.206 23.0296 73.1959 23.0369 73.1879 23.0462C73.18 23.0556 73.1743 23.0667 73.1713 23.0787C73.1684 23.0908 73.1683 23.1033 73.1711 23.1154C73.1739 23.1274 73.1794 23.1386 73.1873 23.1481C73.7807 23.8883 74.4856 24.5618 75.3021 25.1687C75.3073 25.1719 75.3199 25.1735 75.3399 25.1735Z" fill="#71CC3E"/>
</svg>
