<svg width="236" height="33" viewBox="0 0 236 33" fill="none" xmlns="http://www.w3.org/2000/svg">
<path d="M107.805 12.2791H98.5305V16.6645H102.522C102.509 20.0235 101.309 21.7031 98.9219 21.7031C97.4347 21.7031 96.3064 21.081 95.5367 19.8369C94.767 18.5928 94.3822 16.4468 94.3822 13.3988C94.3822 9.96512 94.7736 7.63246 95.5563 6.40082C96.352 5.16917 97.4087 4.55335 98.7262 4.55335C100.892 4.55335 102.157 6.22042 102.522 9.55457L107.805 8.73347C107.14 2.91116 104.075 0 98.6088 0C95.178 0 92.582 1.22542 90.821 3.67627C89.0729 6.11468 88.1989 9.43016 88.1989 13.6227C88.1989 17.4794 89.086 20.5523 90.8601 22.8414C92.6472 25.1181 95.0606 26.2564 98.1 26.2564C100.97 26.2564 103.122 25.1554 104.557 22.9534L105.32 25.8645H107.805V12.2791Z" fill="white"/>
<path fill-rule="evenodd" clip-rule="evenodd" d="M14.958 0.391887H22.648C24.9831 0.391887 26.7898 0.578499 28.0682 0.951725C29.3596 1.32495 30.4424 2.17093 31.3164 3.48966C32.1904 4.79595 32.6274 6.41948 32.6274 8.36025C32.6274 10.2264 32.2752 11.769 31.5708 12.9882C30.8663 14.2074 29.888 15.0907 28.6356 15.6381C27.3964 16.1731 25.4853 16.4406 22.9024 16.4406H20.8282V25.8645H14.958V0.391887ZM20.8282 4.51603V12.0552H22.648C24.2525 12.0552 25.2831 11.7006 25.7397 10.9915C26.2093 10.2824 26.4441 9.36174 26.4441 8.22962C26.4441 7.27168 26.2615 6.50034 25.8962 5.91562C25.544 5.31846 25.1266 4.93902 24.6439 4.77729C24.1743 4.60311 23.509 4.51603 22.648 4.51603H20.8282Z" fill="white"/>
<path fill-rule="evenodd" clip-rule="evenodd" d="M35.4647 0.391887H41.3349V21.0872H49.9446V23.5658L57.2432 0.391887H63.1526L70.7839 25.8645H64.7767L63.4461 20.602H55.9322L54.6212 25.8645H35.4647V0.391887ZM59.65 5.84098L62.3308 16.2353H57.0476L59.65 5.84098Z" fill="white"/>
<path d="M68.3575 0.391887H74.8148L78.5913 9.6852L82.6222 0.391887H88.3555L80.9394 15.097V25.8645H75.0692V15.097L68.3575 0.391887Z" fill="white"/>
<path fill-rule="evenodd" clip-rule="evenodd" d="M152.517 13.1189C152.517 21.8772 149.288 26.2564 142.831 26.2564C139.622 26.2564 137.202 25.143 135.572 22.916C133.941 20.6767 133.126 17.411 133.126 13.1189C133.126 4.37296 136.354 0 142.812 0C145.969 0 148.375 1.09479 150.032 3.28438C151.689 5.47397 152.517 8.75214 152.517 13.1189ZM146.334 13.1189C146.334 9.6852 146.053 7.4023 145.492 6.27019C144.931 5.12563 144.038 4.55335 142.812 4.55335C141.598 4.55335 140.711 5.12563 140.15 6.27019C139.59 7.41474 139.309 9.69764 139.309 13.1189C139.309 16.4779 139.583 18.7484 140.131 19.9302C140.692 21.1121 141.585 21.7031 142.812 21.7031C144.025 21.7031 144.912 21.137 145.473 20.0049C146.047 18.8728 146.334 16.5774 146.334 13.1189Z" fill="white"/>
<path d="M162.496 0.391887H156.626V14.9477C156.626 18.3316 156.907 20.6953 157.468 22.039C158.029 23.3701 158.974 24.4089 160.305 25.1554C161.635 25.8894 163.462 26.2564 165.784 26.2564C168.262 26.2564 170.206 25.7526 171.615 24.7448C173.037 23.7371 173.917 22.5304 174.256 21.1246C174.609 19.7187 174.785 17.5851 174.785 14.7237V0.391887H169.873V14.9477C169.873 17.0129 169.808 18.4249 169.678 19.1838C169.547 19.9427 169.195 20.5523 168.621 21.0126C168.047 21.4729 167.271 21.7031 166.293 21.7031C165.392 21.7031 164.629 21.4978 164.003 21.0872C163.39 20.6642 162.986 20.0484 162.79 19.2398C162.594 18.4311 162.496 17.0004 162.496 14.9477V0.391887Z" fill="white"/>
<path d="M179.618 0.391887H186.134L193.002 16.2166V0.391887H197.542V25.8645H192.298L184.158 7.42719V25.8645H179.618V0.391887Z" fill="white"/>
<path fill-rule="evenodd" clip-rule="evenodd" d="M208.695 0.391887H202.375V25.8645H209.4C211.317 25.8645 212.915 25.6903 214.194 25.342C215.472 24.9937 216.62 24.3094 217.637 23.2893C218.655 22.2691 219.477 20.8757 220.103 19.1091C220.729 17.3301 221.042 15.296 221.042 13.0069C221.042 9.78473 220.527 7.22813 219.496 5.33712C218.466 3.44612 217.09 2.15227 215.368 1.45558C213.659 0.746451 211.435 0.391887 208.695 0.391887ZM209.243 21.4791H208.245V4.75862H209.243C210.521 4.75862 211.526 4.97012 212.256 5.39311C213 5.80366 213.613 6.59365 214.096 7.76309C214.591 8.93253 214.839 10.5996 214.839 12.7643C214.839 15.1032 214.618 16.8947 214.174 18.1388C213.731 19.3704 213.137 20.235 212.393 20.7327C211.65 21.2303 210.6 21.4791 209.243 21.4791Z" fill="white"/>
<path fill-rule="evenodd" clip-rule="evenodd" d="M121.125 0H112.725V25.8446H118.599V15.6204H121.536L125.1 25.8446H131.502L126.588 14.5412C129.094 13.2284 130.347 10.9564 130.347 7.72499C130.347 6.34914 130.092 5.11213 129.583 4.01397C129.087 2.90318 128.395 2.03223 127.508 1.4011C126.62 0.757352 125.739 0.366054 124.865 0.227206C124.003 0.0757352 122.757 0 121.125 0ZM118.599 11.436V4.18437H120.949C121.823 4.18437 122.482 4.28535 122.926 4.48731C123.383 4.67665 123.781 5.04902 124.121 5.60441C124.46 6.14718 124.63 6.84773 124.63 7.70606C124.63 10.1927 123.481 11.436 121.184 11.436H118.599Z" fill="white"/>
<mask id="path-2-outside-1_2258_20402" maskUnits="userSpaceOnUse" x="0" y="0.640625" width="236" height="33" fill="black">
<rect fill="white" y="0.640625" width="236" height="33"/>
<path fill-rule="evenodd" clip-rule="evenodd" d="M10.8526 30.3586H5.92632C8.38947 26.7893 9.62105 19.4868 9.62105 19.4868C8.38947 20.6765 7.15789 20.6765 5.92632 20.6765C3.46316 20.6765 1 18.297 1 15.9175C1 12.2499 3.34075 9.93904 6.00182 7.31193L6.00182 7.31193C7.65688 5.67798 9.43585 3.92172 10.8526 1.64062V30.3586ZM225.147 30.3586H230.074C227.61 26.7893 226.379 19.4868 226.379 19.4868C227.61 20.6765 228.842 20.6765 230.074 20.6765C232.537 20.6765 235 18.297 235 15.9175C235 12.2499 232.659 9.93904 229.998 7.31193C228.343 5.67799 226.564 3.92172 225.147 1.64062V30.3586ZM230.073 30.3594H5.92605V32.0004H230.073V30.3594Z"/>
</mask>
<path fill-rule="evenodd" clip-rule="evenodd" d="M10.8526 30.3586H5.92632C8.38947 26.7893 9.62105 19.4868 9.62105 19.4868C8.38947 20.6765 7.15789 20.6765 5.92632 20.6765C3.46316 20.6765 1 18.297 1 15.9175C1 12.2499 3.34075 9.93904 6.00182 7.31193L6.00182 7.31193C7.65688 5.67798 9.43585 3.92172 10.8526 1.64062V30.3586ZM225.147 30.3586H230.074C227.61 26.7893 226.379 19.4868 226.379 19.4868C227.61 20.6765 228.842 20.6765 230.074 20.6765C232.537 20.6765 235 18.297 235 15.9175C235 12.2499 232.659 9.93904 229.998 7.31193C228.343 5.67799 226.564 3.92172 225.147 1.64062V30.3586ZM230.073 30.3594H5.92605V32.0004H230.073V30.3594Z" fill="#CB0010"/>
<path d="M5.92632 30.3586L5.10328 29.7906C4.89217 30.0965 4.86814 30.4942 5.04088 30.8233C5.21362 31.1524 5.55464 31.3586 5.92632 31.3586V30.3586ZM10.8526 30.3586V31.3586C11.4049 31.3586 11.8526 30.9109 11.8526 30.3586H10.8526ZM9.62105 19.4868L10.6071 19.6531C10.679 19.2272 10.4693 18.8033 10.0872 18.602C9.70505 18.4007 9.23689 18.4675 8.92627 18.7676L9.62105 19.4868ZM6.00182 7.31193L6.70438 8.02358L6.70892 8.01904L6.00182 7.31193ZM6.00182 7.31193L5.29926 6.60028L5.29472 6.60482L6.00182 7.31193ZM10.8526 1.64062H11.8526C11.8526 1.19399 11.5565 0.801515 11.127 0.67899C10.6975 0.556465 10.2388 0.733606 10.0031 1.11301L10.8526 1.64062ZM230.074 30.3586V31.3586C230.445 31.3586 230.786 31.1524 230.959 30.8233C231.132 30.4942 231.108 30.0965 230.897 29.7906L230.074 30.3586ZM225.147 30.3586H224.147C224.147 30.9109 224.595 31.3586 225.147 31.3586V30.3586ZM226.379 19.4868L227.074 18.7676C226.763 18.4675 226.295 18.4007 225.913 18.602C225.531 18.8033 225.321 19.2272 225.393 19.6531L226.379 19.4868ZM229.998 7.31193L229.296 8.02356V8.02357L229.998 7.31193ZM225.147 1.64062L225.997 1.11301C225.761 0.733607 225.302 0.556465 224.873 0.67899C224.443 0.801514 224.147 1.19399 224.147 1.64062L225.147 1.64062ZM5.92605 30.3594V29.3594C5.37377 29.3594 4.92605 29.8071 4.92605 30.3594H5.92605ZM230.073 30.3594H231.073C231.073 29.8071 230.626 29.3594 230.073 29.3594V30.3594ZM5.92605 32.0004H4.92605C4.92605 32.5527 5.37377 33.0004 5.92605 33.0004V32.0004ZM230.073 32.0004V33.0004C230.626 33.0004 231.073 32.5527 231.073 32.0004H230.073ZM5.92632 31.3586H10.8526V29.3586H5.92632V31.3586ZM9.62105 19.4868C8.63498 19.3205 8.63499 19.3204 8.635 19.3203C8.635 19.3203 8.63501 19.3203 8.635 19.3203C8.63499 19.3204 8.63496 19.3206 8.63491 19.3208C8.63482 19.3214 8.63465 19.3224 8.6344 19.3239C8.63391 19.3267 8.63312 19.3313 8.63204 19.3376C8.62986 19.3502 8.62649 19.3696 8.62193 19.3954C8.6128 19.4469 8.5989 19.5242 8.58023 19.6244C8.54288 19.825 8.48648 20.1173 8.41107 20.48C8.2601 21.2061 8.03367 22.2104 7.7322 23.3226C7.1196 25.5826 6.23088 28.1566 5.10328 29.7906L6.74935 30.9266C8.0849 28.9913 9.04355 26.1294 9.66254 23.8458C9.97686 22.6862 10.2123 21.6418 10.3692 20.8871C10.4477 20.5094 10.5068 20.2034 10.5464 19.9906C10.5662 19.8842 10.5812 19.8011 10.5913 19.744C10.5964 19.7154 10.6002 19.6933 10.6029 19.678C10.6042 19.6704 10.6052 19.6645 10.6059 19.6603C10.6063 19.6582 10.6065 19.6566 10.6067 19.6554C10.6068 19.6548 10.6069 19.6543 10.607 19.6539C10.607 19.6537 10.6071 19.6535 10.6071 19.6534C10.6071 19.6532 10.6071 19.6531 9.62105 19.4868ZM5.92632 21.6765C7.16793 21.6765 8.77386 21.6956 10.3158 20.206L8.92627 18.7676C8.00509 19.6575 7.14785 19.6765 5.92632 19.6765V21.6765ZM0 15.9175C0 17.4449 0.779546 18.8796 1.84469 19.9086C2.91201 20.9396 4.38153 21.6765 5.92632 21.6765V19.6765C5.00795 19.6765 4.0143 19.2237 3.23426 18.4701C2.45203 17.7145 2 16.7696 2 15.9175H0ZM5.29926 6.6003C2.69556 9.17078 0 11.7671 0 15.9175H2C2 12.7328 3.98594 10.7073 6.70437 8.02356L5.29926 6.6003ZM5.29472 6.60482L5.29471 6.60483L6.70892 8.01904L6.70893 8.01903L5.29472 6.60482ZM10.0031 1.11301C8.6578 3.2791 6.96285 4.95794 5.29927 6.60029L6.70438 8.02356C8.35092 6.39803 10.2139 4.56434 11.7021 2.16824L10.0031 1.11301ZM11.8526 30.3586V1.64062H9.85263V30.3586H11.8526ZM230.074 29.3586H225.147V31.3586H230.074V29.3586ZM226.379 19.4868C225.393 19.6531 225.393 19.6532 225.393 19.6534C225.393 19.6535 225.393 19.6537 225.393 19.6539C225.393 19.6543 225.393 19.6548 225.393 19.6554C225.393 19.6566 225.394 19.6582 225.394 19.6603C225.395 19.6645 225.396 19.6704 225.397 19.678C225.4 19.6933 225.404 19.7154 225.409 19.744C225.419 19.8011 225.434 19.8842 225.454 19.9906C225.493 20.2034 225.552 20.5094 225.631 20.8871C225.788 21.6418 226.023 22.6862 226.337 23.8458C226.956 26.1294 227.915 28.9913 229.251 30.9266L230.897 29.7906C229.769 28.1566 228.88 25.5826 228.268 23.3226C227.966 22.2104 227.74 21.2061 227.589 20.48C227.513 20.1173 227.457 19.825 227.42 19.6244C227.401 19.5242 227.387 19.4469 227.378 19.3954C227.373 19.3696 227.37 19.3502 227.368 19.3376C227.367 19.3313 227.366 19.3267 227.366 19.3239C227.365 19.3224 227.365 19.3214 227.365 19.3208C227.365 19.3206 227.365 19.3204 227.365 19.3203C227.365 19.3203 227.365 19.3203 227.365 19.3203C227.365 19.3204 227.365 19.3205 226.379 19.4868ZM230.074 19.6765C228.852 19.6765 227.995 19.6575 227.074 18.7676L225.684 20.206C227.226 21.6956 228.832 21.6765 230.074 21.6765V19.6765ZM234 15.9175C234 16.7696 233.548 17.7145 232.766 18.4701C231.986 19.2237 230.992 19.6765 230.074 19.6765V21.6765C231.618 21.6765 233.088 20.9396 234.155 19.9086C235.22 18.8796 236 17.4449 236 15.9175H234ZM229.296 8.02357C232.014 10.7073 234 12.7328 234 15.9175H236C236 11.7671 233.304 9.17079 230.701 6.6003L229.296 8.02357ZM224.298 2.16824C225.786 4.56434 227.649 6.39804 229.296 8.02356L230.701 6.6003C229.037 4.95794 227.342 3.2791 225.997 1.11301L224.298 2.16824ZM226.147 30.3586V1.64062H224.147V30.3586H226.147ZM5.92605 31.3594H230.073V29.3594H5.92605V31.3594ZM6.92605 32.0004V30.3594H4.92605V32.0004H6.92605ZM230.073 31.0004H5.92605V33.0004H230.073V31.0004ZM229.073 30.3594V32.0004H231.073V30.3594H229.073Z" fill="white" mask="url(#path-2-outside-1_2258_20402)"/>
</svg>
