<svg width="199" height="24" viewBox="0 0 199 24" fill="none" xmlns="http://www.w3.org/2000/svg">
<path d="M93.6502 23.2117C91.8454 23.2117 90.3484 23.0525 89.1593 22.734C87.9703 22.3942 87.0785 21.8528 86.4839 21.1096C85.9106 20.3452 85.6239 19.326 85.6239 18.052C85.6239 17.2663 85.6877 16.3745 85.815 15.3765C85.9637 14.3785 86.1866 13.2532 86.4839 12.0004C86.9298 10.0894 87.3545 8.47562 87.7579 7.15913C88.1826 5.84265 88.6497 4.77036 89.1593 3.94225C89.6902 3.09291 90.3378 2.44528 91.1022 1.99938C91.8878 1.53224 92.854 1.21373 94.0006 1.04387C95.1684 0.873997 96.5911 0.789062 98.2685 0.789062C98.948 0.789062 99.6487 0.820913 100.371 0.884614C101.114 0.927081 101.815 0.990781 102.473 1.07572C103.152 1.16065 103.726 1.26682 104.193 1.39422L103.142 6.36287C102.292 6.29917 101.602 6.24609 101.071 6.20362C100.541 6.16116 100.116 6.13992 99.7974 6.13992C99.5001 6.11869 99.2453 6.10807 99.0329 6.10807C98.2898 6.10807 97.674 6.1293 97.1856 6.17177C96.6973 6.21424 96.2938 6.33102 95.9753 6.52213C95.6568 6.71323 95.3914 7.02111 95.1791 7.44579C94.988 7.84922 94.7969 8.42253 94.6058 9.16571C94.4146 9.90888 94.2023 10.8538 93.9687 12.0004C93.7564 12.9984 93.5759 13.8689 93.4273 14.6121C93.2999 15.3553 93.2362 15.8861 93.2362 16.2046C93.2362 16.693 93.3424 17.0646 93.5547 17.3194C93.767 17.553 94.1068 17.7122 94.5739 17.7972C95.0623 17.8609 95.7099 17.8927 96.5168 17.8927C97.1538 17.8927 97.8757 17.8715 98.6826 17.829C99.5107 17.7865 100.243 17.7228 100.88 17.6379L99.7974 22.7021C99.309 22.787 98.7144 22.872 98.0137 22.9569C97.313 23.0418 96.5805 23.1055 95.8161 23.148C95.0729 23.1905 94.351 23.2117 93.6502 23.2117Z" fill="white"/>
<path d="M100.301 22.9569L111.034 1.04387H121.386L122.787 22.9569H115.621L115.525 19.6763H109.187L107.722 22.9569H100.301ZM111.48 14.5803H115.366L115.175 7.03173H114.888L111.48 14.5803Z" fill="white"/>
<path d="M132.924 23.2117C132.011 23.2117 131.034 23.1799 129.994 23.1162C128.953 23.0737 127.955 23.01 127 22.9251C126.066 22.8401 125.259 22.7446 124.579 22.6384L125.598 17.5742C126.363 17.6379 127.117 17.7016 127.86 17.7653C128.624 17.8078 129.335 17.8396 129.994 17.8609C130.652 17.8821 131.215 17.8927 131.682 17.8927C132.255 17.8927 132.722 17.8927 133.083 17.8927C133.465 17.8715 133.763 17.8396 133.975 17.7972C134.209 17.7547 134.389 17.7016 134.516 17.6379C134.58 17.5954 134.644 17.5317 134.708 17.4468C134.771 17.3619 134.824 17.2663 134.867 17.1601C134.931 17.054 134.984 16.9372 135.026 16.8098C135.069 16.6612 135.1 16.5125 135.122 16.3639C135.143 16.2153 135.153 16.0666 135.153 15.918C135.153 15.7269 135.111 15.5889 135.026 15.5039C134.941 15.3978 134.718 15.3022 134.357 15.2173C133.996 15.1323 133.391 15.0156 132.542 14.8669L128.943 14.2618C128.093 14.1131 127.499 13.7522 127.159 13.1789C126.819 12.6055 126.649 11.8305 126.649 10.8538C126.649 10.3442 126.681 9.7921 126.745 9.19756C126.83 8.58178 126.947 7.93416 127.095 7.25468C127.414 5.85327 127.86 4.72789 128.433 3.87855C129.006 3.0292 129.707 2.38158 130.535 1.93568C131.385 1.48977 132.361 1.1925 133.465 1.04387C134.591 0.873997 135.833 0.789062 137.192 0.789062C138.084 0.789062 138.997 0.820913 139.931 0.884614C140.865 0.948314 141.736 1.03325 142.543 1.13942C143.371 1.22435 144.05 1.33052 144.581 1.45792L143.498 6.45843C142.989 6.39473 142.373 6.34164 141.651 6.29917C140.95 6.23547 140.218 6.19301 139.453 6.17177C138.689 6.1293 137.967 6.10807 137.287 6.10807C136.884 6.10807 136.544 6.11869 136.268 6.13992C135.992 6.16116 135.759 6.19301 135.568 6.23547C135.376 6.27794 135.217 6.35226 135.09 6.45843C134.984 6.54336 134.888 6.63891 134.803 6.74508C134.718 6.85125 134.654 6.96803 134.612 7.09543C134.57 7.22283 134.538 7.36085 134.516 7.50949C134.495 7.65812 134.485 7.81737 134.485 7.98724C134.485 8.24205 134.591 8.41191 134.803 8.49685C135.037 8.58178 135.451 8.67733 136.045 8.7835L139.294 9.32496C139.91 9.40989 140.494 9.56914 141.046 9.80271C141.619 10.015 142.086 10.3866 142.447 10.9175C142.808 11.4483 142.989 12.2446 142.989 13.3063C142.989 13.5611 142.978 13.8477 142.957 14.1662C142.936 14.4635 142.893 14.782 142.829 15.1217C142.787 15.4615 142.723 15.833 142.638 16.2365C142.277 17.8078 141.81 19.0605 141.237 19.9948C140.685 20.9291 140.016 21.6298 139.23 22.097C138.445 22.5429 137.532 22.8401 136.491 22.9888C135.451 23.1374 134.262 23.2117 132.924 23.2117Z" fill="white"/>
<path d="M143.638 22.9569L148.288 1.04387H155.741L151.059 22.9569H143.638Z" fill="white"/>
<path d="M154.213 22.9569L158.863 1.04387H166.635L169.087 9.51606H169.31L171.125 1.04387H178.069L173.387 22.9569H166.38L163.513 12.7329H163.322L161.124 22.9569H154.213Z" fill="white"/>
<path d="M186.578 23.2117C184.306 23.2117 182.512 23.0525 181.196 22.734C179.9 22.4155 178.987 21.9058 178.457 21.2051C177.926 20.4832 177.66 19.5171 177.66 18.3068C177.66 17.4999 177.766 16.555 177.979 15.4721C178.191 14.3679 178.435 13.1045 178.711 11.6819C179.051 9.9195 179.37 8.41191 179.667 7.15913C179.985 5.88512 180.378 4.84467 180.845 4.0378C181.312 3.20969 181.918 2.56207 182.661 2.09493C183.425 1.60656 184.413 1.26682 185.623 1.07572C186.833 0.884614 188.351 0.789062 190.177 0.789062C192.449 0.789062 194.222 0.948314 195.496 1.26682C196.77 1.58532 197.673 2.10554 198.204 2.82749C198.735 3.52819 199 4.49432 199 5.72587C199 6.55398 198.904 7.50949 198.713 8.5924C198.543 9.67531 198.299 10.9175 197.981 12.3189C197.577 14.1025 197.206 15.6313 196.866 16.9053C196.526 18.1581 196.133 19.1986 195.688 20.0267C195.242 20.8336 194.647 21.4706 193.904 21.9377C193.182 22.4048 192.227 22.734 191.037 22.9251C189.87 23.1162 188.383 23.2117 186.578 23.2117ZM187.056 17.8927C187.502 17.8927 187.874 17.8715 188.171 17.829C188.468 17.7865 188.712 17.6698 188.903 17.4786C189.116 17.2875 189.296 16.9903 189.445 16.5868C189.615 16.1622 189.785 15.5782 189.954 14.8351C190.124 14.0919 190.337 13.147 190.592 12.0004C190.846 10.7901 191.037 9.80271 191.165 9.03831C191.313 8.2739 191.388 7.68997 191.388 7.28653C191.388 6.90433 191.324 6.62829 191.197 6.45843C191.069 6.28856 190.868 6.19301 190.592 6.17177C190.337 6.1293 189.997 6.10807 189.572 6.10807C189.126 6.10807 188.755 6.1293 188.458 6.17177C188.182 6.21424 187.937 6.33102 187.725 6.52213C187.534 6.71323 187.353 7.02111 187.184 7.44579C187.035 7.84922 186.876 8.42253 186.706 9.16571C186.536 9.90888 186.334 10.8538 186.101 12.0004C185.931 12.8285 185.771 13.5504 185.623 14.1662C185.495 14.782 185.4 15.3022 185.336 15.7269C185.273 16.1515 185.241 16.5019 185.241 16.7779C185.241 17.1389 185.304 17.4043 185.432 17.5742C185.559 17.7228 185.75 17.8184 186.005 17.8609C186.281 17.8821 186.631 17.8927 187.056 17.8927Z" fill="white"/>
<path d="M0 22.9569L4.65015 1.04387H15.543C17.1567 1.04387 18.4095 1.20312 19.3013 1.52162C20.2144 1.81889 20.8514 2.28603 21.2123 2.92304C21.5945 3.53881 21.7856 4.32445 21.7856 5.27996C21.7856 5.59847 21.7644 5.9382 21.7219 6.29917C21.7007 6.66014 21.6582 7.04235 21.5945 7.44579C21.5308 7.82799 21.4459 8.24205 21.3397 8.68795C21.1911 9.38866 21.0319 10.0469 20.862 10.6627C20.6921 11.2784 20.4798 11.8411 20.225 12.3507C19.9702 12.8603 19.6304 13.3169 19.2058 13.7203C18.7811 14.1237 18.2184 14.4741 17.5177 14.7714L18.7599 22.9569H11.275L10.638 15.6632C10.5531 15.6632 10.4575 15.6632 10.3514 15.6632C10.2664 15.6632 10.1709 15.6632 10.0647 15.6632H8.9818L7.42113 22.9569H0ZM10.0329 10.7264H11.3706C11.8165 10.7264 12.1775 10.7158 12.4535 10.6945C12.7508 10.6521 12.9843 10.5671 13.1542 10.4397C13.3241 10.2911 13.4621 10.0681 13.5683 9.77086C13.6957 9.45236 13.8124 9.02769 13.9186 8.49685C13.9823 8.17834 14.0354 7.90231 14.0779 7.66874C14.1203 7.41394 14.1416 7.21222 14.1416 7.06358C14.1416 6.83001 14.0885 6.66014 13.9823 6.55398C13.8761 6.42658 13.685 6.34164 13.409 6.29917C13.1542 6.25671 12.7826 6.23547 12.2942 6.23547H10.9884L10.0329 10.7264Z" fill="url(#paint0_linear_8198_96320)"/>
<path d="M30.8724 23.2117C28.6005 23.2117 26.8062 23.0525 25.4897 22.734C24.1945 22.4155 23.2814 21.9058 22.7506 21.2051C22.2198 20.4832 21.9543 19.5171 21.9543 18.3068C21.9543 17.4999 22.0605 16.555 22.2729 15.4721C22.4852 14.3679 22.7294 13.1045 23.0054 11.6819C23.3451 9.9195 23.6637 8.41191 23.9609 7.15913C24.2794 5.88512 24.6722 4.84467 25.1394 4.0378C25.6065 3.20969 26.2117 2.56207 26.9549 2.09493C27.7193 1.60656 28.7066 1.26682 29.9169 1.07572C31.1273 0.884614 32.6455 0.789062 34.4715 0.789062C36.7435 0.789062 38.5165 0.948314 39.7905 1.26682C41.0646 1.58532 41.967 2.10554 42.4978 2.82749C43.0287 3.52819 43.2941 4.49432 43.2941 5.72587C43.2941 6.55398 43.1985 7.50949 43.0074 8.5924C42.8376 9.67531 42.5934 10.9175 42.2749 12.3189C41.8714 14.1025 41.4998 15.6313 41.1601 16.9053C40.8204 18.1581 40.4276 19.1986 39.9816 20.0267C39.5357 20.8336 38.9412 21.4706 38.198 21.9377C37.4761 22.4048 36.5206 22.734 35.3315 22.9251C34.1637 23.1162 32.6773 23.2117 30.8724 23.2117ZM31.3502 17.8927C31.7961 17.8927 32.1677 17.8715 32.465 17.829C32.7622 17.7865 33.0064 17.6698 33.1975 17.4786C33.4099 17.2875 33.5903 16.9903 33.739 16.5868C33.9088 16.1622 34.0787 15.5782 34.2486 14.8351C34.4185 14.0919 34.6308 13.147 34.8856 12.0004C35.1404 10.7901 35.3315 9.80271 35.4589 9.03831C35.6075 8.2739 35.6819 7.68997 35.6819 7.28653C35.6819 6.90433 35.6182 6.62829 35.4907 6.45843C35.3633 6.28856 35.1616 6.19301 34.8856 6.17177C34.6308 6.1293 34.2911 6.10807 33.8664 6.10807C33.4205 6.10807 33.0489 6.1293 32.7516 6.17177C32.4756 6.21424 32.2314 6.33102 32.0191 6.52213C31.828 6.71323 31.6475 7.02111 31.4776 7.44579C31.329 7.84922 31.1697 8.42253 30.9998 9.16571C30.83 9.90888 30.6283 10.8538 30.3947 12.0004C30.2248 12.8285 30.0656 13.5504 29.9169 14.1662C29.7895 14.782 29.694 15.3022 29.6303 15.7269C29.5666 16.1515 29.5347 16.5019 29.5347 16.7779C29.5347 17.1389 29.5984 17.4043 29.7258 17.5742C29.8532 17.7228 30.0443 17.8184 30.2991 17.8609C30.5752 17.8821 30.9255 17.8927 31.3502 17.8927Z" fill="url(#paint1_linear_8198_96320)"/>
<path d="M42.9855 22.9569L47.6357 1.04387H59.0381C60.2484 1.04387 61.2783 1.20312 62.1276 1.52162C62.9982 1.84012 63.6564 2.31788 64.1023 2.95489C64.5695 3.57066 64.803 4.33507 64.803 5.24811C64.803 5.48168 64.7818 5.72587 64.7393 5.98067C64.7181 6.23547 64.6756 6.51151 64.6119 6.80878C64.2722 8.3376 63.6883 9.46298 62.8602 10.1849C62.0533 10.9069 60.9598 11.4165 59.5796 11.7137V11.8411C60.2166 12.011 60.758 12.234 61.2039 12.51C61.6711 12.7648 62.0214 13.1258 62.255 13.5929C62.5098 14.0388 62.6372 14.6546 62.6372 15.4402C62.6372 15.6101 62.6266 15.8012 62.6054 16.0135C62.6054 16.2046 62.5841 16.417 62.5416 16.6505C62.5204 16.8629 62.478 17.0964 62.4142 17.3512C62.2019 18.2855 61.9153 19.103 61.5543 19.8037C61.2146 20.5044 60.7474 21.0884 60.1529 21.5555C59.5796 22.0226 58.8364 22.373 57.9234 22.6066C57.0315 22.8401 55.9274 22.9569 54.6109 22.9569H42.9855ZM51.394 17.829H52.9228C53.4962 17.829 53.9208 17.7972 54.1969 17.7334C54.4941 17.6485 54.7065 17.4786 54.8339 17.2238C54.9825 16.9478 55.1099 16.5338 55.2161 15.9817C55.2585 15.7481 55.2904 15.5464 55.3116 15.3765C55.3541 15.1854 55.3753 15.0262 55.3753 14.8988C55.3753 14.5378 55.2479 14.3148 54.9931 14.2299C54.7595 14.1237 54.3349 14.0707 53.7191 14.0707H52.1903L51.394 17.829ZM53.1139 9.70716H54.6428C55.2161 9.70716 55.6407 9.67531 55.9168 9.61161C56.214 9.52668 56.4264 9.35681 56.5538 9.10201C56.6812 8.8472 56.798 8.465 56.9041 7.95539C56.9466 7.72182 56.9785 7.53072 56.9997 7.38209C57.0422 7.21222 57.0634 7.06358 57.0634 6.93618C57.0634 6.59644 56.936 6.38411 56.6812 6.29917C56.4264 6.21424 55.9911 6.17177 55.3753 6.17177H53.8465L53.1139 9.70716Z" fill="url(#paint2_linear_8198_96320)"/>
<path d="M68.2073 22.9569L69.7361 15.8861L65.9778 1.04387H73.3989L74.6729 9.19756H74.8959L79.6734 1.04387H87.2538L77.1891 15.8861L75.6603 22.9569H68.2073Z" fill="url(#paint3_linear_8198_96320)"/>
<defs>
<linearGradient id="paint0_linear_8198_96320" x1="84.4289" y1="12.6054" x2="0.0254661" y2="12.6054" gradientUnits="userSpaceOnUse">
<stop stop-color="#FF7C27"/>
<stop offset="1" stop-color="#E2008C"/>
</linearGradient>
<linearGradient id="paint1_linear_8198_96320" x1="84.4289" y1="12.6054" x2="0.0254661" y2="12.6054" gradientUnits="userSpaceOnUse">
<stop stop-color="#FF7C27"/>
<stop offset="1" stop-color="#E2008C"/>
</linearGradient>
<linearGradient id="paint2_linear_8198_96320" x1="84.4289" y1="12.6054" x2="0.0254661" y2="12.6054" gradientUnits="userSpaceOnUse">
<stop stop-color="#FF7C27"/>
<stop offset="1" stop-color="#E2008C"/>
</linearGradient>
<linearGradient id="paint3_linear_8198_96320" x1="84.4289" y1="12.6054" x2="0.0254661" y2="12.6054" gradientUnits="userSpaceOnUse">
<stop stop-color="#FF7C27"/>
<stop offset="1" stop-color="#E2008C"/>
</linearGradient>
</defs>
</svg>
