<svg width="200" height="30" viewBox="0 0 200 30" fill="none" xmlns="http://www.w3.org/2000/svg">
<path d="M11.5049 10.6301V14.1471H0V0.316136H11.2479V3.83315H4.58613V5.45335H10.4374V8.81229H4.58613V10.6301H11.5049Z" fill="#FF0012"/>
<path d="M13.3008 0.316136H17.966V10.5313H24.2126V14.1471H13.3008V0.316136Z" fill="#120919"/>
<path d="M37.0061 10.6301V14.1471H25.5012V0.316136H36.7491V3.83315H30.0873V5.45335H35.9386V8.81229H30.0873V10.6301H37.0061Z" fill="#120919"/>
<path d="M51.1569 14.1471L51.1173 7.84413L48.1126 12.9023H46.0568L43.0521 8.06147V14.1471H38.802V0.316136H42.637L47.144 7.68606L51.5325 0.316136H55.3674L55.407 14.1471H51.1569Z" fill="#120919"/>
<path d="M69.1673 10.6301V14.1471H57.6625V0.316136H68.9104V3.83315H62.2486V5.45335H68.0999V8.81229H62.2486V10.6301H69.1673Z" fill="#120919"/>
<path d="M84.6031 0.316136V14.1471H80.7681L75.5099 7.86389V14.1471H70.9633V0.316136H74.7982L80.0565 6.59934V0.316136H84.6031Z" fill="#120919"/>
<path d="M89.8556 3.93194H85.8032V0.316136H98.5732V3.93194H94.5208V14.1471H89.8556V3.93194Z" fill="#120919"/>
<path d="M104.944 14.4632C103.798 14.4632 102.678 14.3381 101.584 14.0878C100.503 13.8244 99.6135 13.4753 98.9151 13.0406L100.417 9.64215C101.076 10.0241 101.814 10.3337 102.631 10.5708C103.449 10.7947 104.233 10.9067 104.984 10.9067C105.63 10.9067 106.091 10.8474 106.368 10.7289C106.644 10.5971 106.783 10.4061 106.783 10.1559C106.783 9.86608 106.598 9.64874 106.229 9.50384C105.873 9.35895 105.28 9.20088 104.45 9.02964C103.383 8.80571 102.493 8.56861 101.781 8.31833C101.07 8.05488 100.45 7.63337 99.9232 7.05379C99.3961 6.46103 99.1325 5.66411 99.1325 4.66301C99.1325 3.79363 99.3763 3.00329 99.8639 2.29199C100.352 1.58068 101.076 1.02086 102.038 0.612513C103.014 0.204171 104.193 0 105.577 0C106.526 0 107.455 0.105379 108.364 0.316136C109.287 0.51372 110.097 0.810098 110.796 1.20527L109.392 4.58397C108.035 3.89901 106.75 3.55653 105.537 3.55653C104.338 3.55653 103.738 3.84632 103.738 4.42591C103.738 4.70253 103.916 4.91328 104.272 5.05818C104.628 5.1899 105.214 5.3348 106.031 5.49287C107.086 5.69045 107.975 5.92097 108.7 6.18441C109.425 6.43469 110.051 6.84962 110.578 7.4292C111.118 8.00878 111.389 8.79912 111.389 9.80022C111.389 10.6696 111.145 11.4599 110.657 12.1712C110.17 12.8694 109.438 13.4292 108.463 13.8507C107.501 14.2591 106.328 14.4632 104.944 14.4632Z" fill="#120919"/>
<path d="M125.859 14.4632C124.396 14.4632 123.079 14.1603 121.906 13.5543C120.733 12.9352 119.81 12.079 119.138 10.9857C118.479 9.87925 118.15 8.62788 118.15 7.23161C118.15 5.83535 118.479 4.59056 119.138 3.49726C119.81 2.39078 120.733 1.53458 121.906 0.92865C123.079 0.30955 124.396 0 125.859 0C127.203 0 128.403 0.237102 129.457 0.711307C130.511 1.18551 131.381 1.87047 132.066 2.76619L129.121 5.39407C128.264 4.31394 127.256 3.77387 126.096 3.77387C125.121 3.77387 124.337 4.09001 123.744 4.72228C123.151 5.34138 122.854 6.17783 122.854 7.23161C122.854 8.2854 123.151 9.12843 123.744 9.7607C124.337 10.3798 125.121 10.6894 126.096 10.6894C127.256 10.6894 128.264 10.1493 129.121 9.06916L132.066 11.697C131.381 12.5928 130.511 13.2777 129.457 13.7519C128.403 14.2261 127.203 14.4632 125.859 14.4632Z" fill="#120919"/>
<path d="M142.649 11.7366H137.391L136.462 14.1471H131.718L137.767 0.316136H142.353L148.402 14.1471H143.579L142.649 11.7366ZM141.365 8.37761L140.02 4.90011L138.676 8.37761H141.365Z" fill="#120919"/>
<path d="M154.306 14.4632C153.159 14.4632 152.039 14.3381 150.945 14.0878C149.865 13.8244 148.975 13.4753 148.277 13.0406L149.779 9.64215C150.438 10.0241 151.176 10.3337 151.993 10.5708C152.81 10.7947 153.594 10.9067 154.345 10.9067C154.991 10.9067 155.452 10.8474 155.729 10.7289C156.006 10.5971 156.144 10.4061 156.144 10.1559C156.144 9.86608 155.96 9.64874 155.591 9.50384C155.235 9.35895 154.642 9.20088 153.812 9.02964C152.744 8.80571 151.855 8.56861 151.143 8.31833C150.431 8.05488 149.812 7.63337 149.285 7.05379C148.758 6.46103 148.494 5.66411 148.494 4.66301C148.494 3.79363 148.738 3.00329 149.225 2.29199C149.713 1.58068 150.438 1.02086 151.4 0.612513C152.375 0.204171 153.555 0 154.938 0C155.887 0 156.816 0.105379 157.726 0.316136C158.648 0.51372 159.459 0.810098 160.157 1.20527L158.754 4.58397C157.396 3.89901 156.111 3.55653 154.899 3.55653C153.7 3.55653 153.1 3.84632 153.1 4.42591C153.1 4.70253 153.278 4.91328 153.634 5.05818C153.99 5.1899 154.576 5.3348 155.393 5.49287C156.447 5.69045 157.337 5.92097 158.062 6.18441C158.787 6.43469 159.413 6.84962 159.94 7.4292C160.48 8.00878 160.75 8.79912 160.75 9.80022C160.75 10.6696 160.506 11.4599 160.019 12.1712C159.531 12.8694 158.8 13.4292 157.824 13.8507C156.862 14.2591 155.69 14.4632 154.306 14.4632Z" fill="#120919"/>
<path d="M162.138 0.316136H166.804V14.1471H162.138V0.316136Z" fill="#120919"/>
<path d="M182.689 0.316136V14.1471H178.854L173.596 7.86389V14.1471H169.049V0.316136H172.884L178.143 6.59934V0.316136H182.689Z" fill="#120919"/>
<path d="M192.192 14.4632C190.703 14.4632 189.365 14.1537 188.179 13.5346C186.993 12.9155 186.064 12.0593 185.392 10.966C184.719 9.8595 184.383 8.61471 184.383 7.23161C184.383 5.84852 184.719 4.61032 185.392 3.51701C186.064 2.41054 186.993 1.54775 188.179 0.92865C189.365 0.30955 190.703 0 192.192 0C193.681 0 195.019 0.30955 196.205 0.92865C197.391 1.54775 198.32 2.41054 198.992 3.51701C199.664 4.61032 200 5.84852 200 7.23161C200 8.61471 199.664 9.8595 198.992 10.966C198.32 12.0593 197.391 12.9155 196.205 13.5346C195.019 14.1537 193.681 14.4632 192.192 14.4632ZM192.192 10.6894C192.772 10.6894 193.292 10.551 193.753 10.2744C194.228 9.98463 194.603 9.58288 194.88 9.06916C195.157 8.54226 195.295 7.92975 195.295 7.23161C195.295 6.53348 195.157 5.92755 194.88 5.41383C194.603 4.88694 194.228 4.48518 193.753 4.20856C193.292 3.91877 192.772 3.77387 192.192 3.77387C191.612 3.77387 191.085 3.91877 190.61 4.20856C190.149 4.48518 189.78 4.88694 189.503 5.41383C189.227 5.92755 189.088 6.53348 189.088 7.23161C189.088 7.92975 189.227 8.54226 189.503 9.06916C189.78 9.58288 190.149 9.98463 190.61 10.2744C191.085 10.551 191.612 10.6894 192.192 10.6894Z" fill="#120919"/>
<path d="M70.5718 30C69.8074 30 69.0606 29.9166 68.3314 29.7497C67.611 29.5741 67.018 29.3414 66.5523 29.0516L67.5539 26.7859C67.9932 27.0406 68.4852 27.247 69.0299 27.4051C69.5746 27.5543 70.0974 27.629 70.5981 27.629C71.0286 27.629 71.3361 27.5895 71.5206 27.5104C71.7051 27.4226 71.7974 27.2953 71.7974 27.1284C71.7974 26.9352 71.6744 26.7903 71.4284 26.6937C71.1912 26.5971 70.7958 26.4918 70.2423 26.3776C69.5307 26.2283 68.9377 26.0703 68.4632 25.9034C67.9888 25.7278 67.5759 25.4468 67.2244 25.0604C66.873 24.6652 66.6973 24.1339 66.6973 23.4665C66.6973 22.8869 66.8598 22.36 67.1849 21.8858C67.51 21.4116 67.9932 21.0384 68.6345 20.7662C69.2847 20.494 70.071 20.3578 70.9935 20.3578C71.6261 20.3578 72.2455 20.4281 72.8517 20.5686C73.4667 20.7003 74.007 20.8979 74.4726 21.1614L73.5369 23.4138C72.632 22.9572 71.7754 22.7289 70.9671 22.7289C70.1676 22.7289 69.7679 22.9221 69.7679 23.3085C69.7679 23.4929 69.8865 23.6334 70.1237 23.73C70.3609 23.8178 70.7519 23.9144 71.2966 24.0198C71.9995 24.1515 72.5925 24.3052 73.0757 24.4808C73.5589 24.6476 73.9762 24.9243 74.3277 25.3106C74.6879 25.697 74.868 26.2239 74.868 26.8913C74.868 27.4709 74.7055 27.9978 74.3804 28.472C74.0553 28.9374 73.5677 29.3106 72.9176 29.5917C72.2762 29.8639 71.4943 30 70.5718 30Z" fill="#120919"/>
<path d="M82.1851 30C80.7706 30 79.668 29.618 78.8772 28.854C78.0865 28.09 77.6912 27.0187 77.6912 25.64V20.5686H80.8013V25.5478C80.8013 26.2239 80.9199 26.7157 81.1571 27.0231C81.4031 27.3304 81.7546 27.4841 82.2114 27.4841C82.6683 27.4841 83.0153 27.3304 83.2525 27.0231C83.4985 26.7157 83.6215 26.2239 83.6215 25.5478V20.5686H86.6789V25.64C86.6789 27.0187 86.2836 28.09 85.4929 28.854C84.7021 29.618 83.5995 30 82.1851 30Z" fill="#120919"/>
<path d="M94.0349 27.4709H93.1915V29.7892H90.0814V20.5686H94.5225C95.3747 20.5686 96.1171 20.7091 96.7497 20.9901C97.3823 21.2711 97.8699 21.6751 98.2125 22.202C98.5552 22.7289 98.7265 23.3436 98.7265 24.0461C98.7265 24.7047 98.5771 25.2799 98.2784 25.7717C97.9797 26.2634 97.5492 26.6542 96.9869 26.944L98.9241 29.7892H95.6032L94.0349 27.4709ZM95.59 24.0461C95.59 23.7036 95.4846 23.4402 95.2737 23.2558C95.0628 23.0626 94.7466 22.966 94.3248 22.966H93.1915V25.1262H94.3248C94.7466 25.1262 95.0628 25.034 95.2737 24.8496C95.4846 24.6564 95.59 24.3886 95.59 24.0461Z" fill="#120919"/>
<path d="M105.831 27.4709H104.988V29.7892H101.878V20.5686H106.319C107.171 20.5686 107.913 20.7091 108.546 20.9901C109.179 21.2711 109.666 21.6751 110.009 22.202C110.351 22.7289 110.523 23.3436 110.523 24.0461C110.523 24.7047 110.373 25.2799 110.075 25.7717C109.776 26.2634 109.346 26.6542 108.783 26.944L110.72 29.7892H107.399L105.831 27.4709ZM107.386 24.0461C107.386 23.7036 107.281 23.4402 107.07 23.2558C106.859 23.0626 106.543 22.966 106.121 22.966H104.988V25.1262H106.121C106.543 25.1262 106.859 25.034 107.07 24.8496C107.281 24.6564 107.386 24.3886 107.386 24.0461Z" fill="#120919"/>
<path d="M121.344 27.4446V29.7892H113.674V20.5686H121.173V22.9133H116.731V23.9934H120.632V26.2327H116.731V27.4446H121.344Z" fill="#120919"/>
<path d="M129.936 26.4435V29.7892H126.826V26.404L123.347 20.5686H126.628L128.513 23.7563L130.41 20.5686H133.415L129.936 26.4435Z" fill="#120919"/>
</svg>
