<svg width="140" height="140" viewBox="0 0 140 140" fill="none" xmlns="http://www.w3.org/2000/svg">
<g id="logo">
<path id="Rectangle 309" d="M0 70L70 0L140 70L70 140L0 70Z" fill="#0D121A"/>
<g id="Union">
<path fill-rule="evenodd" clip-rule="evenodd" d="M70.0002 17.674L62.4579 25.2163L70.0002 32.7587L77.5426 25.2163L70.0002 17.674ZM76.2093 25.2163L70.0002 19.0073L63.7912 25.2163L70.0002 31.4254L76.2093 25.2163Z" fill="#B3A26B"/>
<path fill-rule="evenodd" clip-rule="evenodd" d="M70.0002 107.241L77.5426 114.783L70.0002 122.326L62.4579 114.783L70.0002 107.241ZM70.0002 108.574L76.2093 114.783L70.0002 120.992L63.7912 114.783L70.0002 108.574Z" fill="#B3A26B"/>
<path fill-rule="evenodd" clip-rule="evenodd" d="M122.326 69.9997L114.784 62.4573L107.241 69.9997L114.784 77.542L122.326 69.9997ZM114.784 76.2087L120.993 69.9997L114.784 63.7906L108.575 69.9997L114.784 76.2087Z" fill="#B3A26B"/>
<path fill-rule="evenodd" clip-rule="evenodd" d="M32.7593 69.9997L25.2169 77.542L17.6746 69.9997L25.2169 62.4573L32.7593 69.9997ZM31.4259 69.9997L25.2169 76.2087L19.0079 69.9997L25.2169 63.7906L31.4259 69.9997Z" fill="#B3A26B"/>
<path fill-rule="evenodd" clip-rule="evenodd" d="M70 12.4888L127.511 70L70 127.511L12.4888 70L70 12.4888ZM70 13.8221L126.178 70L70 126.178L13.8221 70L70 13.8221Z" fill="#B3A26B"/>
<path fill-rule="evenodd" clip-rule="evenodd" d="M70 0L140 70L70 140L0 70L70 0ZM70 5.33333L134.667 70L70 134.667L5.33333 70L70 5.33333Z" fill="#B3A26B"/>
</g>
<g id="MC">
<path d="M39.4551 83.5154V82.4994C41.2298 82.4994 42.265 82.1768 42.5608 81.5317V57.1942C42.265 56.5491 41.2298 56.2265 39.4551 56.2265V55.2104H46.6525L57.1527 77.7093L67.653 55.2104H74.949V56.2265C73.1743 56.2265 72.1391 56.5491 71.8433 57.1942V81.5317C72.1391 82.1768 73.1743 82.4994 74.949 82.4994V83.5154H64.2022V82.4994C65.9769 82.4994 67.0122 82.1768 67.3079 81.5317V59.807L56.2654 83.5154H55.5259L44.2369 59.5166V81.5317C44.5327 82.1768 45.5679 82.4994 47.3426 82.4994V83.5154H39.4551Z" fill="white"/>
<path d="M93.725 56.3716C90.8987 56.3716 88.5488 57.5167 86.6755 59.807C84.8022 62.0972 83.8656 65.0648 83.8656 68.7097C83.8656 72.9676 84.8515 76.3061 86.8234 78.7254C88.7953 81.1446 91.1616 82.3542 93.9222 82.3542C95.5654 82.3542 97.1922 81.8059 98.8026 80.7091C100.413 79.5802 101.448 78.3867 101.908 77.1287L103.091 77.7093C102.336 79.4834 101.136 80.9833 99.4928 82.2091C97.8824 83.4026 95.6969 83.9993 92.9363 83.9993C88.5653 83.9993 85.098 82.6123 82.5346 79.8382C80.004 77.0319 78.7387 73.6772 78.7387 69.7742C78.7387 65.2583 80.2012 61.6294 83.1261 58.8876C86.084 56.1136 89.6005 54.7266 93.6757 54.7266C94.6288 54.7266 95.7298 54.9685 96.9786 55.4523C98.2275 55.9362 98.9505 56.1781 99.1477 56.1781C99.5421 56.1781 99.7393 55.8555 99.7393 55.2104H100.873L101.366 61.3553H100.282C100.051 59.9037 99.3942 58.7102 98.3097 57.7748C97.258 56.8394 95.7298 56.3716 93.725 56.3716Z" fill="white"/>
</g>
</g>
</svg>
