<svg width="155" height="30" viewBox="0 0 155 30" fill="none" xmlns="http://www.w3.org/2000/svg">
<path d="M14.2927 4.21128L11.8599 7.15091C11.6475 6.51375 11.3724 5.90555 11.0345 5.32631C10.6966 4.74707 10.2959 4.24024 9.83255 3.80581C9.36916 3.37138 8.84302 3.02384 8.25413 2.76318C7.66524 2.50253 7.00877 2.3722 6.28472 2.3722C5.76341 2.3722 5.28071 2.46874 4.83663 2.66182C4.39255 2.84524 4.00156 3.1059 3.66368 3.44379C3.33544 3.77202 3.07478 4.16301 2.88171 4.61674C2.69828 5.07048 2.60657 5.558 2.60657 6.07932C2.60657 6.61994 2.70793 7.12677 2.91067 7.59982C3.1134 8.07286 3.38371 8.50246 3.7216 8.88862C4.05949 9.26512 4.44565 9.59336 4.88007 9.87332C5.32416 10.1533 5.78272 10.3705 6.25576 10.525C6.72881 10.6891 7.22598 10.8725 7.7473 11.0752C8.26861 11.278 8.78027 11.5145 9.28228 11.7848C9.78428 12.0551 10.2622 12.3592 10.7159 12.6971C11.1696 13.0253 11.5703 13.397 11.9178 13.8121C12.2653 14.2273 12.5405 14.6906 12.7432 15.2023C12.946 15.7043 13.0473 16.2546 13.0473 16.8531C13.0473 17.722 12.8542 18.504 12.4681 19.199C12.0916 19.8845 11.5944 20.4637 10.9765 20.9368C10.3587 21.4098 9.64913 21.7718 8.84785 22.0228C8.05622 22.2738 7.25012 22.3993 6.42953 22.3993C5.8696 22.3993 5.30002 22.3173 4.72078 22.1532C4.1512 21.989 3.60092 21.767 3.06996 21.487C2.54864 21.1974 2.05629 20.8643 1.5929 20.4878C1.13917 20.1113 0.743354 19.7059 0.405466 19.2714L2.75138 16.578C2.89619 17.0414 3.14719 17.5337 3.50438 18.055C3.87124 18.5764 4.29601 19.0591 4.77871 19.5031C5.2614 19.9472 5.77789 20.3189 6.32817 20.6182C6.8881 20.9078 7.42872 21.0526 7.95003 21.0526C8.2493 21.0526 8.55823 20.9754 8.87681 20.8209C9.19539 20.6664 9.48501 20.4685 9.74567 20.2272C10.016 19.9762 10.238 19.7059 10.4118 19.4163C10.5856 19.1266 10.6724 18.8418 10.6724 18.5619C10.6724 18.1371 10.5856 17.7365 10.4118 17.36C10.238 16.9738 10.0063 16.6118 9.7167 16.2739C9.43674 15.936 9.10851 15.6271 8.732 15.3471C8.36515 15.0575 7.97899 14.8017 7.57353 14.5796C7.17771 14.3479 6.77708 14.15 6.37161 13.9859C5.9758 13.8121 5.60895 13.677 5.27106 13.5804C4.60494 13.3777 3.95329 13.0881 3.31613 12.7116C2.68863 12.3351 2.1287 11.8813 1.63635 11.3504C1.14399 10.8194 0.748181 10.2257 0.448909 9.56922C0.149636 8.9031 0 8.19353 0 7.44053C0 6.79371 0.101367 6.18068 0.3041 5.60145C0.506833 5.02221 0.786797 4.48642 1.14399 3.99406C1.50119 3.50171 1.92114 3.05763 2.40383 2.66182C2.88653 2.25635 3.40785 1.91846 3.96777 1.64815C4.5277 1.36819 5.11177 1.1558 5.71997 1.01099C6.32817 0.856529 6.94119 0.779297 7.55905 0.779297C8.9106 0.779297 10.1656 1.0834 11.3241 1.6916C12.4826 2.29014 13.4721 3.13003 14.2927 4.21128Z" fill="url(#paint0_linear_7983_89452)"/>
<path d="M21.1277 22.3269C20.7898 22.3269 20.4664 22.2787 20.1575 22.1821C19.8485 22.0952 19.5589 21.9456 19.2886 21.7332L20.4181 20.1113C20.6015 20.3623 20.8139 20.5602 21.0553 20.7051C21.3063 20.8402 21.5814 20.9078 21.8807 20.9078C22.1896 20.9078 22.4551 20.8306 22.6771 20.6761C22.8992 20.512 23.0826 20.2996 23.2274 20.0389C23.3819 19.7783 23.5074 19.4887 23.6039 19.1701C23.7005 18.8418 23.7729 18.5136 23.8211 18.1854C23.8694 17.8571 23.9032 17.5434 23.9225 17.2441C23.9418 16.9352 23.9515 16.6745 23.9515 16.4621C23.9515 16.0567 23.8935 15.6174 23.7777 15.1444C23.6715 14.6713 23.5026 14.2273 23.2709 13.8121C23.0488 13.397 22.7592 13.0543 22.402 12.784C22.0448 12.504 21.62 12.364 21.1277 12.364C20.7898 12.364 20.5002 12.4509 20.2588 12.6247C20.0271 12.7888 19.8292 13.0109 19.6651 13.2908C19.5106 13.5611 19.3851 13.8749 19.2886 14.2321C19.2017 14.5796 19.1341 14.932 19.0859 15.2892C19.0473 15.6367 19.0231 15.9794 19.0135 16.3173C19.0038 16.6456 18.999 16.9304 18.999 17.1717V28.2931L16.3635 29.2198V12.9578C16.3635 12.7647 16.3152 12.5909 16.2186 12.4364C16.1221 12.2723 15.9725 12.1903 15.7697 12.1903C15.5284 12.1903 15.3063 12.282 15.1036 12.4654C14.9105 12.6392 14.7561 12.813 14.6402 12.9867L14.2492 12.5523C14.3651 12.3109 14.5099 12.0793 14.6837 11.8572C14.8671 11.6255 15.0698 11.4228 15.2919 11.249C15.5236 11.0752 15.7697 10.9401 16.0304 10.8435C16.3007 10.7374 16.5807 10.6843 16.8703 10.6843C17.2854 10.6843 17.6281 10.747 17.8984 10.8725C18.1687 10.9884 18.386 11.1573 18.5501 11.3793C18.7142 11.6014 18.83 11.8669 18.8976 12.1758C18.9652 12.4847 18.999 12.8274 18.999 13.2039C19.1534 12.9047 19.332 12.6054 19.5348 12.3061C19.7472 11.9972 19.9837 11.7269 20.2443 11.4952C20.505 11.2538 20.7898 11.0608 21.0987 10.9159C21.4173 10.7615 21.7648 10.6843 22.1413 10.6843C22.8075 10.6843 23.3964 10.8339 23.908 11.1332C24.4293 11.4228 24.8638 11.8089 25.2113 12.2916C25.5685 12.7647 25.8388 13.3005 26.0222 13.899C26.2057 14.4976 26.2974 15.1058 26.2974 15.7236C26.2974 16.4863 26.1863 17.2586 25.9643 18.0406C25.7519 18.8225 25.4285 19.5321 24.9941 20.1693C24.5693 20.8064 24.0335 21.3277 23.3867 21.7332C22.7399 22.129 21.9869 22.3269 21.1277 22.3269Z" fill="url(#paint1_linear_7983_89452)"/>
<path d="M33.7261 20.372C33.504 20.845 33.2434 21.2071 32.9441 21.4581C32.6545 21.7091 32.3745 21.8925 32.1042 22.0083C31.7856 22.1435 31.4622 22.2207 31.134 22.24C30.7092 22.24 30.3569 22.1725 30.0769 22.0373C29.7969 21.9021 29.5749 21.7236 29.4108 21.5015C29.2467 21.2795 29.1308 21.0285 29.0632 20.7485C29.0053 20.4685 28.9763 20.1837 28.9763 19.8941V11.7703L31.6408 10.858V19.9665C31.6408 20.1982 31.6939 20.3817 31.8001 20.5168C31.9063 20.652 32.0415 20.7244 32.2056 20.734C32.3794 20.734 32.5628 20.6713 32.7559 20.5458C32.9586 20.4203 33.1517 20.2175 33.3351 19.9376L33.7261 20.372Z" fill="url(#paint2_linear_7983_89452)"/>
<path d="M47.4975 20.372C47.3816 20.623 47.232 20.8595 47.0485 21.0816C46.8651 21.3036 46.6576 21.5015 46.4259 21.6753C46.2038 21.8491 45.9625 21.9842 45.7018 22.0807C45.4412 22.1869 45.1709 22.24 44.8909 22.24C44.1282 22.24 43.5731 22.0325 43.2256 21.6174C42.8877 21.1926 42.7188 20.6182 42.7188 19.8941V14.0004C42.7188 13.9328 42.7139 13.8556 42.7043 13.7687C42.7043 13.6722 42.6898 13.5853 42.6608 13.508C42.6319 13.4212 42.5932 13.3487 42.545 13.2908C42.4967 13.2329 42.4291 13.2039 42.3422 13.2039C42.0719 13.2039 41.7968 13.3681 41.5168 13.6963C41.2465 14.0245 40.981 14.4493 40.7204 14.9706C40.4694 15.4919 40.2329 16.076 40.0108 16.7228C39.7984 17.3696 39.6102 18.0116 39.4461 18.6488C39.2819 19.2763 39.1516 19.8652 39.0551 20.4154C38.9682 20.9657 38.9247 21.405 38.9247 21.7332L36.2892 22.66V12.9288C36.2892 12.7357 36.2409 12.5619 36.1444 12.4075C36.0479 12.2434 35.8982 12.1613 35.6955 12.1613C35.4541 12.1613 35.2321 12.253 35.0294 12.4364C34.8363 12.6102 34.6818 12.784 34.566 12.9578L34.175 12.5233C34.2908 12.282 34.4357 12.0503 34.6094 11.8282C34.7929 11.5966 34.9956 11.3938 35.2176 11.22C35.4493 11.0463 35.6955 10.9111 35.9562 10.8146C36.2265 10.7084 36.5064 10.6553 36.796 10.6553C37.5491 10.6553 38.0897 10.8677 38.4179 11.2925C38.7558 11.7076 38.9247 12.2723 38.9247 12.9867V17.7075C39.0116 17.3117 39.1275 16.8628 39.2723 16.3608C39.4268 15.8491 39.6102 15.3326 39.8226 14.8113C40.0349 14.29 40.2715 13.7832 40.5321 13.2908C40.8024 12.7888 41.0969 12.3447 41.4155 11.9586C41.734 11.5628 42.0816 11.249 42.4581 11.0173C42.8346 10.776 43.2401 10.6553 43.6745 10.6553C44.1282 10.6553 44.4709 10.7567 44.7026 10.9594C44.9343 11.1525 45.0984 11.4035 45.195 11.7124C45.3012 12.0117 45.3591 12.3447 45.3688 12.7116C45.3784 13.0784 45.3832 13.4308 45.3832 13.7687V19.9665C45.3832 20.1596 45.4315 20.3382 45.528 20.5023C45.6246 20.6568 45.7742 20.734 45.977 20.734C46.199 20.734 46.4066 20.6471 46.5996 20.4734C46.8024 20.2899 46.9617 20.1113 47.0775 19.9376L47.4975 20.372Z" fill="url(#paint3_linear_7983_89452)"/>
<path d="M77.5309 3.8927C77.5309 4.44297 77.3813 4.95946 77.082 5.44216C76.7924 5.92485 76.4255 6.36894 75.9814 6.7744C75.547 7.17021 75.0691 7.52258 74.5478 7.83151C74.0362 8.13078 73.5583 8.3673 73.1142 8.54108C72.6412 8.7245 72.1585 8.87414 71.6661 8.98998C71.1834 9.09618 70.6959 9.16376 70.2036 9.19272L69.9139 8.68588C70.3291 8.57969 70.7538 8.41075 71.1883 8.17905C71.6227 7.94736 72.0185 7.66739 72.3757 7.33916C72.7329 7.00127 73.0225 6.62477 73.2445 6.20965C73.4762 5.79453 73.5921 5.34562 73.5921 4.86292C73.5921 4.52503 73.5293 4.22576 73.4038 3.9651C73.288 3.70444 73.1239 3.48723 72.9115 3.31346C72.7088 3.13003 72.4674 2.99488 72.1874 2.90799C71.9075 2.81145 71.6034 2.76318 71.2751 2.76318C70.4739 2.76318 69.7595 2.91282 69.132 3.21209C68.5141 3.51137 67.9687 3.91683 67.4956 4.42849C67.0226 4.9305 66.6219 5.50973 66.2937 6.1662C65.9655 6.82267 65.6952 7.51293 65.4828 8.23698C65.28 8.95137 65.1304 9.67542 65.0339 10.4091C64.947 11.1428 64.9035 11.8331 64.9035 12.4799C64.9035 12.9626 64.9277 13.4742 64.9759 14.0149C65.0339 14.5458 65.1304 15.0768 65.2656 15.6078C65.4007 16.1387 65.5793 16.6456 65.8013 17.1283C66.0234 17.611 66.3034 18.0357 66.6412 18.4026C66.9791 18.7694 67.3749 19.0639 67.8287 19.2859C68.2921 19.4983 68.8279 19.6045 69.4361 19.6045C69.9574 19.6045 70.4449 19.508 70.8986 19.3149C71.3524 19.1218 71.7675 18.866 72.144 18.5474C72.5205 18.2288 72.8536 17.8571 73.1432 17.4324C73.4425 17.0076 73.6935 16.5635 73.8962 16.1001C74.1086 15.6367 74.2679 15.1685 74.3741 14.6955C74.4803 14.2224 74.5334 13.7735 74.5334 13.3487L77.5309 12.2772V24.137L74.5334 25.2086V16.187C74.3499 16.9786 74.041 17.7413 73.6066 18.475C73.1818 19.2087 72.6798 19.8603 72.1006 20.4299C71.5213 20.9898 70.889 21.4436 70.2036 21.7911C69.5278 22.129 68.8472 22.298 68.1617 22.298C67.1191 22.298 66.173 22.0856 65.3235 21.6608C64.4739 21.2264 63.7499 20.652 63.1513 19.9376C62.5528 19.2232 62.0894 18.4026 61.7612 17.4758C61.4426 16.549 61.2833 15.5885 61.2833 14.5941C61.2833 13.5225 61.4281 12.4461 61.7177 11.3649C62.0073 10.274 62.4176 9.23133 62.9486 8.23698C63.4796 7.24262 64.1167 6.31101 64.8601 5.44216C65.6034 4.5733 66.424 3.82029 67.3219 3.18313C68.2293 2.54597 69.1995 2.04396 70.2325 1.67711C71.2751 1.31026 72.3564 1.12684 73.4762 1.12684C73.8914 1.12684 74.3354 1.17511 74.8085 1.27165C75.2912 1.35853 75.7304 1.50817 76.1263 1.72056C76.5317 1.93294 76.8648 2.21774 77.1254 2.57493C77.3958 2.92247 77.5309 3.36173 77.5309 3.8927Z" fill="url(#paint4_linear_7983_89452)"/>
<path d="M91.9974 20.343C91.8815 20.594 91.7367 20.8306 91.5629 21.0526C91.3892 21.2746 91.1864 21.4725 90.9547 21.6463C90.7327 21.8201 90.4865 21.9601 90.2162 22.0663C89.9555 22.1628 89.6804 22.2111 89.3908 22.2111C88.6281 22.2111 88.0778 22.0035 87.74 21.5884C87.4117 21.1636 87.2476 20.5892 87.2476 19.8652V19.6045C87.0738 19.9327 86.8759 20.261 86.6539 20.5892C86.4415 20.9174 86.1953 21.2119 85.9154 21.4725C85.6451 21.7332 85.341 21.9456 85.0031 22.1097C84.6652 22.2738 84.2887 22.3559 83.8736 22.3559C83.246 22.3559 82.6909 22.2352 82.2082 21.9939C81.7255 21.7525 81.3201 21.4291 80.9918 21.0236C80.6636 20.6085 80.4174 20.1258 80.2533 19.5755C80.0892 19.0253 80.0071 18.4412 80.0071 17.8234C80.0071 16.9835 80.1519 16.1484 80.4416 15.3182C80.7408 14.4783 81.156 13.7301 81.6869 13.0736C82.2275 12.4171 82.8695 11.8862 83.6129 11.4807C84.3659 11.0656 85.201 10.858 86.1181 10.858C86.4849 10.858 86.8518 10.8918 87.2186 10.9594C87.5855 11.027 87.933 11.138 88.2613 11.2925C88.5992 11.4373 88.9033 11.6303 89.1736 11.8717C89.4535 12.113 89.6804 12.4075 89.8542 12.755L87.6965 13.6673C87.5807 13.4839 87.4455 13.3101 87.2911 13.146C87.1462 12.9722 86.9821 12.8226 86.7987 12.6971C86.6249 12.5716 86.4367 12.4702 86.2339 12.393C86.0312 12.3158 85.8188 12.2772 85.5968 12.2772C85.0948 12.2772 84.6459 12.4316 84.2501 12.7405C83.8639 13.0495 83.5308 13.4308 83.2509 13.8845C82.9806 14.3383 82.773 14.821 82.6282 15.3326C82.4834 15.8443 82.411 16.3077 82.411 16.7228C82.411 17.0897 82.4448 17.5048 82.5123 17.9682C82.5896 18.4219 82.7199 18.8515 82.9033 19.257C83.0868 19.6624 83.3281 20.0051 83.6274 20.2851C83.9266 20.5651 84.3032 20.7051 84.7569 20.7051C85.1141 20.7051 85.423 20.6278 85.6837 20.4734C85.9443 20.3092 86.1664 20.1017 86.3498 19.8507C86.5332 19.59 86.6828 19.2956 86.7987 18.9673C86.9242 18.6295 87.0159 18.2867 87.0738 17.9392C87.1414 17.5917 87.1849 17.2489 87.2042 16.9111C87.2331 16.5635 87.2476 16.2546 87.2476 15.9843V14.9851L89.8831 14.0583V19.9376C89.8831 20.1306 89.9314 20.3092 90.0279 20.4734C90.1245 20.6278 90.2741 20.7051 90.4769 20.7051C90.7182 20.7051 90.9354 20.6182 91.1285 20.4444C91.3312 20.261 91.4905 20.0776 91.6064 19.8941L91.9974 20.343Z" fill="url(#paint5_linear_7983_89452)"/>
<path d="M109.563 20.372C109.341 20.845 109.08 21.2071 108.781 21.4581C108.481 21.7091 108.197 21.8925 107.926 22.0083C107.608 22.1435 107.284 22.2207 106.956 22.24C106.522 22.24 106.165 22.1725 105.885 22.0373C105.614 21.9021 105.397 21.7236 105.233 21.5015C105.069 21.2795 104.953 21.0285 104.885 20.7485C104.827 20.4685 104.798 20.1837 104.798 19.8941V13.8266C104.798 13.6722 104.77 13.537 104.712 13.4211C104.654 13.2956 104.576 13.2232 104.48 13.2039C104.383 13.1846 104.268 13.2329 104.132 13.3487C103.997 13.4646 103.852 13.6722 103.698 13.9714C103.437 14.7437 103.201 15.5547 102.988 16.4042C102.805 17.1379 102.636 17.9682 102.482 18.8949C102.337 19.8121 102.255 20.7582 102.235 21.7332L99.5709 22.66V13.8266C99.5709 13.6722 99.5419 13.537 99.484 13.4211C99.4261 13.2956 99.344 13.2232 99.2378 13.2039C99.1413 13.1846 99.0254 13.2329 98.8903 13.3487C98.7551 13.4646 98.6151 13.6722 98.4703 13.9714C98.1807 14.7824 97.9297 15.6271 97.7173 16.5056C97.6208 16.8821 97.5291 17.2827 97.4422 17.7075C97.3553 18.1323 97.2781 18.5715 97.2105 19.0253C97.1526 19.4694 97.1043 19.9231 97.0657 20.3865C97.0271 20.8402 97.0126 21.2891 97.0222 21.7332L94.3867 22.66V12.9288C94.3867 12.6971 94.3336 12.5137 94.2274 12.3785C94.1212 12.2434 93.9812 12.1758 93.8075 12.1758C93.6434 12.1661 93.4599 12.2241 93.2572 12.3496C93.0545 12.4751 92.8566 12.6778 92.6635 12.9578L92.2725 12.5233C92.4945 12.0599 92.7504 11.7027 93.04 11.4517C93.3393 11.1911 93.6289 11.0028 93.9088 10.887C94.2274 10.7518 94.5557 10.6746 94.8935 10.6553C95.3183 10.6553 95.6659 10.7229 95.9362 10.858C96.2161 10.9932 96.4333 11.1718 96.5878 11.3938C96.7519 11.6062 96.863 11.8524 96.9209 12.1323C96.9885 12.4123 97.0222 12.6971 97.0222 12.9867V16.0422C97.196 15.1733 97.4567 14.4059 97.8042 13.7397C98.1517 13.0736 98.5138 12.5137 98.8903 12.0599C99.2764 11.5966 99.6529 11.249 100.02 11.0173C100.387 10.776 100.681 10.6553 100.903 10.6553C101.183 10.6553 101.41 10.7036 101.584 10.8001C101.757 10.887 101.893 11.0221 101.989 11.2056C102.086 11.389 102.148 11.6159 102.177 11.8862C102.216 12.1468 102.235 12.4558 102.235 12.813V16.0422C102.419 15.1733 102.679 14.4059 103.017 13.7397C103.365 13.0736 103.732 12.5137 104.118 12.0599C104.504 11.5966 104.881 11.249 105.247 11.0173C105.614 10.776 105.909 10.6553 106.131 10.6553C106.681 10.6553 107.038 10.8387 107.202 11.2056C107.376 11.5628 107.463 12.0986 107.463 12.813V19.9665C107.463 20.1982 107.516 20.3817 107.622 20.5168C107.728 20.652 107.864 20.7244 108.028 20.734C108.192 20.734 108.37 20.6713 108.564 20.5458C108.766 20.4203 108.964 20.2175 109.157 19.9376L109.563 20.372Z" fill="url(#paint6_linear_7983_89452)"/>
<path d="M121.249 16.3173C121.249 17.0028 121.08 17.7027 120.742 18.4171C120.414 19.1218 119.979 19.7686 119.439 20.3575C118.898 20.9464 118.28 21.4291 117.585 21.8056C116.9 22.1725 116.2 22.3559 115.485 22.3559C114.819 22.3559 114.23 22.2449 113.719 22.0228C113.207 21.7911 112.777 21.4774 112.43 21.0816C112.082 20.6761 111.817 20.2031 111.634 19.6624C111.46 19.1122 111.373 18.5184 111.373 17.8813V2.22739L114.037 1.30061V18.3591C114.037 18.6874 114.081 19.0108 114.168 19.3294C114.255 19.6479 114.385 19.9376 114.559 20.1982C114.732 20.4492 114.95 20.6568 115.21 20.8209C115.481 20.9754 115.799 21.0526 116.166 21.0526C116.61 21.0526 116.996 20.9464 117.325 20.734C117.662 20.512 117.942 20.232 118.164 19.8941C118.396 19.5466 118.565 19.1701 118.671 18.7646C118.787 18.3591 118.845 17.9682 118.845 17.5917C118.845 17.0317 118.739 16.467 118.526 15.8974C118.324 15.3182 118.039 14.7968 117.672 14.3334C117.305 13.8701 116.876 13.4839 116.383 13.175C115.891 12.866 115.365 12.6874 114.805 12.6392L117.209 10.858C117.73 11.0318 118.232 11.3069 118.715 11.6834C119.207 12.0503 119.641 12.4799 120.018 12.9722C120.394 13.4646 120.694 14.0004 120.916 14.5796C121.138 15.1589 121.249 15.7381 121.249 16.3173Z" fill="url(#paint7_linear_7983_89452)"/>
<path d="M126.578 3.16865L125.81 8.45419L124.391 8.9031L123.522 4.21128L126.578 3.16865ZM128.576 20.372C128.354 20.845 128.094 21.2071 127.794 21.4581C127.505 21.7091 127.225 21.8925 126.954 22.0083C126.636 22.1435 126.312 22.2207 125.984 22.24C125.559 22.24 125.207 22.1725 124.927 22.0373C124.647 21.9021 124.425 21.7236 124.261 21.5015C124.097 21.2795 123.981 21.0285 123.913 20.7485C123.855 20.4685 123.826 20.1837 123.826 19.8941V11.7703L126.491 10.858V19.9665C126.491 20.1982 126.544 20.3817 126.65 20.5168C126.756 20.652 126.892 20.7244 127.056 20.734C127.229 20.734 127.413 20.6713 127.606 20.5458C127.809 20.4203 128.002 20.2175 128.185 19.9376L128.576 20.372Z" fill="url(#paint8_linear_7983_89452)"/>
<path d="M142.348 20.372C142.232 20.623 142.082 20.8595 141.899 21.0816C141.715 21.3036 141.508 21.5015 141.276 21.6753C141.054 21.8491 140.813 21.9842 140.552 22.0807C140.291 22.1869 140.021 22.24 139.741 22.24C138.978 22.24 138.423 22.0325 138.076 21.6174C137.738 21.1926 137.569 20.6182 137.569 19.8941V14.0004C137.569 13.9328 137.564 13.8556 137.554 13.7687C137.554 13.6722 137.54 13.5853 137.511 13.508C137.482 13.4212 137.443 13.3487 137.395 13.2908C137.347 13.2329 137.279 13.2039 137.192 13.2039C136.922 13.2039 136.647 13.3681 136.367 13.6963C136.097 14.0245 135.831 14.4493 135.57 14.9706C135.319 15.4919 135.083 16.076 134.861 16.7228C134.649 17.3696 134.46 18.0116 134.296 18.6488C134.132 19.2763 134.002 19.8652 133.905 20.4154C133.818 20.9657 133.775 21.405 133.775 21.7332L131.139 22.66V12.9288C131.139 12.7357 131.091 12.5619 130.995 12.4075C130.898 12.2434 130.748 12.1613 130.546 12.1613C130.304 12.1613 130.082 12.253 129.879 12.4364C129.686 12.6102 129.532 12.784 129.416 12.9578L129.025 12.5233C129.141 12.282 129.286 12.0503 129.46 11.8282C129.643 11.5966 129.846 11.3938 130.068 11.22C130.299 11.0463 130.546 10.9111 130.806 10.8146C131.077 10.7084 131.357 10.6553 131.646 10.6553C132.399 10.6553 132.94 10.8677 133.268 11.2925C133.606 11.7076 133.775 12.2723 133.775 12.9867V17.7075C133.862 17.3117 133.978 16.8628 134.122 16.3608C134.277 15.8491 134.46 15.3326 134.673 14.8113C134.885 14.29 135.122 13.7832 135.382 13.2908C135.653 12.7888 135.947 12.3447 136.266 11.9586C136.584 11.5628 136.932 11.249 137.308 11.0173C137.685 10.776 138.09 10.6553 138.525 10.6553C138.978 10.6553 139.321 10.7567 139.553 10.9594C139.784 11.1525 139.949 11.4035 140.045 11.7124C140.151 12.0117 140.209 12.3447 140.219 12.7116C140.229 13.0784 140.233 13.4308 140.233 13.7687V19.9665C140.233 20.1596 140.282 20.3382 140.378 20.5023C140.475 20.6568 140.624 20.734 140.827 20.734C141.049 20.734 141.257 20.6471 141.45 20.4734C141.652 20.2899 141.812 20.1113 141.928 19.9376L142.348 20.372Z" fill="url(#paint9_linear_7983_89452)"/>
<path d="M148.487 22.3993C147.773 22.3993 147.102 22.2738 146.475 22.0228C145.857 21.7622 145.316 21.405 144.853 20.9512C144.399 20.4975 144.037 19.9665 143.767 19.3583C143.506 18.7405 143.376 18.0695 143.376 17.3455C143.376 16.5249 143.511 15.7574 143.781 15.043C144.051 14.319 144.423 13.6673 144.896 13.0881C145.379 12.5089 145.944 12.0068 146.59 11.5821C147.247 11.1573 147.956 10.8242 148.719 10.5829L149.139 11.0897C148.705 11.4083 148.299 11.7752 147.923 12.1903C147.546 12.5957 147.218 13.0398 146.938 13.5225C146.658 13.9956 146.436 14.4976 146.272 15.0285C146.108 15.5498 146.026 16.0856 146.026 16.6359C146.026 17.0993 146.093 17.5868 146.228 18.0985C146.364 18.6102 146.566 19.0784 146.837 19.5031C147.107 19.9279 147.445 20.2803 147.85 20.5602C148.265 20.8306 148.743 20.9657 149.284 20.9657C149.767 20.9657 150.182 20.8788 150.529 20.7051C150.886 20.5313 151.181 20.2948 151.413 19.9955C151.644 19.6962 151.818 19.3487 151.934 18.9529C152.05 18.5474 152.108 18.1226 152.108 17.6785C152.108 17.1572 152.006 16.6263 151.804 16.0856C151.601 15.5354 151.321 15.0285 150.964 14.5651C150.616 14.1018 150.206 13.7156 149.733 13.4067C149.26 13.0977 148.753 12.9191 148.212 12.8709C148.55 12.4847 148.922 12.1275 149.327 11.7993C149.733 11.4711 150.143 11.1573 150.558 10.858C151.118 11.0414 151.611 11.3118 152.035 11.669C152.47 12.0262 152.832 12.4364 153.121 12.8998C153.421 13.3632 153.647 13.8701 153.802 14.4203C153.956 14.961 154.034 15.5112 154.034 16.0712C154.034 16.8338 153.898 17.5917 153.628 18.3447C153.368 19.0977 152.991 19.7783 152.499 20.3865C152.016 20.985 151.432 21.4725 150.746 21.8491C150.071 22.2159 149.318 22.3993 148.487 22.3993Z" fill="url(#paint10_linear_7983_89452)"/>
<path d="M50.0272 12.9867C50.0272 12.9867 47.6613 13.2923 47.7284 14.9472C47.7955 16.602 49.1808 17.662 49.7197 17.6111C49.7197 17.6111 49.2295 20.6793 51.5531 21.7383C53.8766 22.7974 55.7588 21.3252 56.2259 19.6619C56.2259 19.6619 59.9281 19.2601 59.322 15.9149C59.322 15.9149 58.2302 13.1515 56.0595 13.7147C56.0595 13.7147 55.9482 10.465 53.4497 10.3412C50.9513 10.2174 50.0272 12.9867 50.0272 12.9867Z" fill="#EA5A47"/>
<path d="M55.0175 21.8862C55.6266 22.6731 56.2356 23.3497 57.046 23.5595C57.8989 23.7802 58.757 23.4813 59.3184 22.9755C59.9112 22.4409 60.2431 21.5834 60.047 20.6499C59.8815 19.861 59.1911 19.1934 58.5331 18.4634L56.5389 20.0661L55.0175 21.8862ZM56.5066 13.0152C56.5066 13.0152 56.2566 11.5355 55.9515 11.2309C55.9515 11.2309 56.2879 10.3673 57.192 10.3259C57.8804 10.2945 58.573 11.5643 58.8641 12.1717C58.9658 12.3843 59.0669 12.4642 58.9564 12.6724C58.7781 13.0079 58.3388 13.6625 57.8493 13.8944L56.5066 13.0152Z" fill="#D22F27"/>
<path d="M55.1824 14.5563C55.3505 15.2832 54.554 16.0884 53.4033 16.3544C52.2527 16.6204 51.1836 16.2464 51.0156 15.5195" fill="#EA5A47"/>
<path d="M57.0166 18.1062C56.864 18.4635 56.4957 18.7449 56.1374 18.9455C55.6604 19.2151 55.1307 19.3782 54.5847 19.4237C53.6416 19.5015 52.6976 19.2849 51.8828 18.8037C51.1355 18.3647 50.5401 17.708 50.1763 16.9213L50.1609 16.8831C50.0642 16.6052 50.038 16.3076 50.0849 16.017C50.1317 15.7265 50.25 15.4522 50.4292 15.2188C50.6645 14.9043 51.0443 14.6625 51.4292 14.5163C51.9407 14.3197 52.4886 14.2361 53.0354 14.2713C53.9744 14.3325 54.8706 14.6865 55.598 15.2835C56.2651 15.83 56.7472 16.5692 56.9782 17.4" fill="#D22F27"/>
<path d="M51.026 15.5793C51.1912 16.2979 52.155 16.5704 53.3243 16.3522C54.4935 16.134 55.3297 15.3628 55.1926 14.6293L55.1601 14.4889C54.9831 13.7637 53.8992 13.3842 52.7389 13.6412C51.5786 13.8981 50.8493 14.8535 51.026 15.5793Z" fill="#EA5A47"/>
<path d="M53.0816 16.0336C52.6637 15.4649 52.9002 14.5807 53.6098 14.058C53.9781 13.787 54.4468 13.6983 54.8874 13.7462C55.5698 13.8204 56.1551 14.3358 56.2943 15.0088C56.3158 15.1007 56.3214 15.1956 56.3108 15.2894" fill="#D22F27"/>
<path d="M52.9819 15.5924C52.8559 16.2863 53.4565 16.9775 54.3234 17.1353C54.7735 17.2176 55.2334 17.0911 55.6083 16.8547C56.1889 16.4886 56.4886 15.7686 56.3183 15.1029C56.2973 15.011 56.2607 14.9234 56.2101 14.8439" fill="#D22F27"/>
<path d="M56.6415 17.8306C56.5095 18.1593 56.1855 18.4149 55.87 18.5972C55.4507 18.8409 54.9819 18.987 54.4984 19.0246C53.6554 19.0857 52.8149 18.8768 52.0987 18.4282C51.4261 18.0093 50.8939 17.3992 50.5702 16.676M51.4648 15.4707C51.2968 14.7443 51.8972 13.9844 52.8059 13.7743C53.7146 13.5643 54.5874 13.9831 54.7554 14.71" stroke="black" stroke-width="1.07014" stroke-miterlimit="10" stroke-linecap="round" stroke-linejoin="round"/>
<path d="M55.8795 15.4664C55.999 15.9833 55.5719 16.5243 54.9253 16.6737C54.5897 16.7513 54.2392 16.6727 53.949 16.5079C53.499 16.2532 53.2478 15.7226 53.3523 15.2163C53.3676 15.1423 53.3908 15.0741 53.4246 15.0174M56.6808 11.0165C57.0533 10.6375 57.7384 10.7073 58.2121 11.1724C58.6858 11.6375 58.7675 12.3219 58.3954 12.7008M59.1386 19.8475C59.4867 20.2415 59.6651 20.757 59.6353 21.2819C59.6054 21.8068 59.3697 22.2988 58.9792 22.6508C58.5887 23.0029 58.075 23.1866 57.5499 23.1621C57.0247 23.1376 56.5304 22.9068 56.1744 22.5199M49.9613 12.7059C48.8692 12.557 47.4508 13.8642 47.438 15.015C47.4251 16.117 48.4792 17.6915 49.5713 17.8405C49.4446 18.2938 49.4089 18.7677 49.4663 19.2349C49.5237 19.7021 49.673 20.1533 49.9056 20.5625C50.1382 20.9717 50.4496 21.3308 50.8217 21.6191C51.1938 21.9074 51.6192 22.1192 52.0736 22.2422C52.5279 22.3652 53.0021 22.3971 53.4688 22.3359C53.9355 22.2748 54.3855 22.1218 54.7928 21.8859C55.2002 21.65 55.5567 21.3358 55.842 20.9614C56.1273 20.587 56.3356 20.1598 56.455 19.7045C57.7448 19.7401 59.5513 18.3996 59.5905 16.7779C59.6169 15.6859 58.5793 13.1874 56.101 13.4655C56.1508 13.0624 56.1208 12.6534 56.0125 12.2618C55.9043 11.8703 55.72 11.504 55.4702 11.1837C55.2204 10.8634 54.91 10.5954 54.5566 10.3951C54.2032 10.1948 53.8139 10.066 53.4107 10.0162C53.0076 9.96633 52.5986 9.99638 52.2071 10.1046C51.8156 10.2128 51.4492 10.3971 51.1289 10.6469C50.4821 11.1514 50.062 11.8918 49.9613 12.7059Z" stroke="black" stroke-width="1.07014" stroke-miterlimit="10" stroke-linecap="round" stroke-linejoin="round"/>
<path d="M31.0596 5.64591C32.183 7.07005 31.8047 9.24214 31.8047 9.24214C31.8047 9.24214 29.6044 9.10518 28.4804 7.68103C27.3564 6.25688 27.735 4.08479 27.735 4.08479C27.735 4.08479 29.9359 4.22292 31.0596 5.64591Z" fill="#B1CC33"/>
<path d="M31.0596 5.56055C32.183 6.9844 31.8047 9.15649 31.8047 9.15649C31.8047 9.15649 29.6044 9.01924 28.4804 7.59509C27.3564 6.17095 27.735 3.99886 27.735 3.99886C27.735 3.99886 29.9357 4.13726 31.0594 5.56026" stroke="black" stroke-width="0.672679" stroke-linecap="round" stroke-linejoin="round"/>
<defs>
<linearGradient id="paint0_linear_7983_89452" x1="76.8937" y1="-5.68088" x2="76.8937" y2="29.1644" gradientUnits="userSpaceOnUse">
<stop stop-color="#FFB83B"/>
<stop offset="1" stop-color="#FFDEA6"/>
</linearGradient>
<linearGradient id="paint1_linear_7983_89452" x1="76.8937" y1="-5.68088" x2="76.8937" y2="29.1644" gradientUnits="userSpaceOnUse">
<stop stop-color="#FFB83B"/>
<stop offset="1" stop-color="#FFDEA6"/>
</linearGradient>
<linearGradient id="paint2_linear_7983_89452" x1="76.8937" y1="-5.68088" x2="76.8937" y2="29.1644" gradientUnits="userSpaceOnUse">
<stop stop-color="#FFB83B"/>
<stop offset="1" stop-color="#FFDEA6"/>
</linearGradient>
<linearGradient id="paint3_linear_7983_89452" x1="76.8937" y1="-5.68088" x2="76.8937" y2="29.1644" gradientUnits="userSpaceOnUse">
<stop stop-color="#FFB83B"/>
<stop offset="1" stop-color="#FFDEA6"/>
</linearGradient>
<linearGradient id="paint4_linear_7983_89452" x1="76.8937" y1="-5.68088" x2="76.8937" y2="29.1644" gradientUnits="userSpaceOnUse">
<stop stop-color="#FFB83B"/>
<stop offset="1" stop-color="#FFDEA6"/>
</linearGradient>
<linearGradient id="paint5_linear_7983_89452" x1="76.8937" y1="-5.68088" x2="76.8937" y2="29.1644" gradientUnits="userSpaceOnUse">
<stop stop-color="#FFB83B"/>
<stop offset="1" stop-color="#FFDEA6"/>
</linearGradient>
<linearGradient id="paint6_linear_7983_89452" x1="76.8937" y1="-5.68088" x2="76.8937" y2="29.1644" gradientUnits="userSpaceOnUse">
<stop stop-color="#FFB83B"/>
<stop offset="1" stop-color="#FFDEA6"/>
</linearGradient>
<linearGradient id="paint7_linear_7983_89452" x1="76.8937" y1="-5.68088" x2="76.8937" y2="29.1644" gradientUnits="userSpaceOnUse">
<stop stop-color="#FFB83B"/>
<stop offset="1" stop-color="#FFDEA6"/>
</linearGradient>
<linearGradient id="paint8_linear_7983_89452" x1="76.8937" y1="-5.68088" x2="76.8937" y2="29.1644" gradientUnits="userSpaceOnUse">
<stop stop-color="#FFB83B"/>
<stop offset="1" stop-color="#FFDEA6"/>
</linearGradient>
<linearGradient id="paint9_linear_7983_89452" x1="76.8937" y1="-5.68088" x2="76.8937" y2="29.1644" gradientUnits="userSpaceOnUse">
<stop stop-color="#FFB83B"/>
<stop offset="1" stop-color="#FFDEA6"/>
</linearGradient>
<linearGradient id="paint10_linear_7983_89452" x1="76.8937" y1="-5.68088" x2="76.8937" y2="29.1644" gradientUnits="userSpaceOnUse">
<stop stop-color="#FFB83B"/>
<stop offset="1" stop-color="#FFDEA6"/>
</linearGradient>
</defs>
</svg>
