<svg width="132" height="30" viewBox="0 0 132 30" fill="none" xmlns="http://www.w3.org/2000/svg">
<path d="M12.32 23.568C10.912 23.568 9.552 23.408 8.24 23.088C6.928 22.768 5.848 22.352 5 21.84L6.824 17.712C7.624 18.176 8.512 18.552 9.488 18.84C10.48 19.112 11.44 19.248 12.368 19.248C12.912 19.248 13.336 19.216 13.64 19.152C13.96 19.072 14.192 18.968 14.336 18.84C14.48 18.696 14.552 18.528 14.552 18.336C14.552 18.032 14.384 17.792 14.048 17.616C13.712 17.44 13.264 17.296 12.704 17.184C12.16 17.056 11.56 16.928 10.904 16.8C10.248 16.656 9.584 16.472 8.912 16.248C8.256 16.024 7.648 15.728 7.088 15.36C6.544 14.992 6.104 14.512 5.768 13.92C5.432 13.312 5.264 12.56 5.264 11.664C5.264 10.624 5.552 9.68 6.128 8.832C6.72 7.968 7.592 7.28 8.744 6.768C9.912 6.256 11.36 6 13.088 6C14.224 6 15.344 6.12 16.448 6.36C17.552 6.6 18.544 6.968 19.424 7.464L17.72 11.568C16.888 11.152 16.08 10.84 15.296 10.632C14.528 10.424 13.776 10.32 13.04 10.32C12.496 10.32 12.064 10.368 11.744 10.464C11.424 10.56 11.192 10.688 11.048 10.848C10.92 11.008 10.856 11.184 10.856 11.376C10.856 11.664 11.024 11.896 11.36 12.072C11.696 12.232 12.136 12.368 12.68 12.48C13.24 12.592 13.848 12.712 14.504 12.84C15.176 12.968 15.84 13.144 16.496 13.368C17.152 13.592 17.752 13.888 18.296 14.256C18.856 14.624 19.304 15.104 19.64 15.696C19.976 16.288 20.144 17.024 20.144 17.904C20.144 18.928 19.848 19.872 19.256 20.736C18.68 21.584 17.816 22.272 16.664 22.8C15.512 23.312 14.064 23.568 12.32 23.568Z" fill="white"/>
<path d="M21.8294 23.184V6.384H27.4934V18.792H35.0774V23.184H21.8294Z" fill="white"/>
<path d="M60.1649 23.184V10.776H55.2449V6.384H70.7489V10.776H65.8289V23.184H60.1649Z" fill="white"/>
<path d="M72.2201 23.184V6.384H81.1961C83.5161 6.384 85.2281 6.8 86.3321 7.632C87.4361 8.448 87.9881 9.496 87.9881 10.776C87.9881 11.624 87.7481 12.384 87.2681 13.056C86.8041 13.712 86.1241 14.232 85.2281 14.616C84.3321 15 83.2281 15.192 81.9161 15.192L82.3961 13.896C83.7081 13.896 84.8361 14.08 85.7801 14.448C86.7401 14.816 87.4761 15.352 87.9881 16.056C88.5161 16.744 88.7801 17.576 88.7801 18.552C88.7801 20.008 88.1721 21.144 86.9561 21.96C85.7561 22.776 83.9961 23.184 81.6761 23.184H72.2201ZM77.7881 19.224H81.1961C81.8201 19.224 82.2841 19.112 82.5881 18.888C82.9081 18.664 83.0681 18.336 83.0681 17.904C83.0681 17.472 82.9081 17.144 82.5881 16.92C82.2841 16.696 81.8201 16.584 81.1961 16.584H77.4041V12.84H80.4281C81.0681 12.84 81.5321 12.736 81.8201 12.528C82.1241 12.304 82.2761 11.992 82.2761 11.592C82.2761 11.176 82.1241 10.864 81.8201 10.656C81.5321 10.448 81.0681 10.344 80.4281 10.344H77.7881V19.224Z" fill="white"/>
<path d="M99.5906 23.568C98.2306 23.568 96.9666 23.352 95.7986 22.92C94.6466 22.488 93.6466 21.88 92.7986 21.096C91.9506 20.296 91.2866 19.36 90.8066 18.288C90.3426 17.216 90.1106 16.048 90.1106 14.784C90.1106 13.504 90.3426 12.336 90.8066 11.28C91.2866 10.208 91.9506 9.28 92.7986 8.496C93.6466 7.696 94.6466 7.08 95.7986 6.648C96.9666 6.216 98.2306 6 99.5906 6C100.967 6 102.231 6.216 103.383 6.648C104.535 7.08 105.535 7.696 106.383 8.496C107.231 9.28 107.887 10.208 108.351 11.28C108.831 12.336 109.071 13.504 109.071 14.784C109.071 16.048 108.831 17.216 108.351 18.288C107.887 19.36 107.231 20.296 106.383 21.096C105.535 21.88 104.535 22.488 103.383 22.92C102.231 23.352 100.967 23.568 99.5906 23.568ZM99.5906 18.984C100.119 18.984 100.607 18.888 101.055 18.696C101.519 18.504 101.919 18.232 102.255 17.88C102.607 17.512 102.879 17.072 103.071 16.56C103.263 16.032 103.359 15.44 103.359 14.784C103.359 14.128 103.263 13.544 103.071 13.032C102.879 12.504 102.607 12.064 102.255 11.712C101.919 11.344 101.519 11.064 101.055 10.872C100.607 10.68 100.119 10.584 99.5906 10.584C99.0626 10.584 98.5666 10.68 98.1026 10.872C97.6546 11.064 97.2546 11.344 96.9026 11.712C96.5666 12.064 96.3026 12.504 96.1106 13.032C95.9186 13.544 95.8226 14.128 95.8226 14.784C95.8226 15.44 95.9186 16.032 96.1106 16.56C96.3026 17.072 96.5666 17.512 96.9026 17.88C97.2546 18.232 97.6546 18.504 98.1026 18.696C98.5666 18.888 99.0626 18.984 99.5906 18.984Z" fill="white"/>
<path d="M108.957 23.184L116.445 12.72L116.421 16.68L109.173 6.384H115.533L119.757 12.624L117.045 12.648L121.173 6.384H127.269L120.021 16.464V12.528L127.629 23.184H121.149L116.925 16.656L119.541 16.632L115.413 23.184H108.957Z" fill="white"/>
<path d="M36.4162 17.1875C35.9512 18.1875 35.7188 19.2936 35.7188 20.5057C35.7188 21.4571 35.8656 22.351 36.1594 23.1875H42.3052C42.071 22.8947 41.8798 22.5614 41.7314 22.1875C41.539 21.6875 41.4428 21.1269 41.4428 20.5057C41.4428 19.8845 41.539 19.3314 41.7314 18.8466C41.9238 18.3466 42.1884 17.9299 42.5251 17.5966C42.8778 17.2481 43.2787 16.983 43.7276 16.8011C44.1926 16.6193 44.6896 16.5284 45.2188 16.5284C45.7479 16.5284 46.2369 16.6193 46.6858 16.8011C47.1508 16.983 47.5517 17.2481 47.8884 17.5966C48.2411 17.9299 48.5137 18.3466 48.7061 18.8466C48.8985 19.3314 48.9947 19.8845 48.9947 20.5057C48.9947 21.1269 48.8985 21.6875 48.7061 22.1875C48.5577 22.5614 48.3617 22.8947 48.118 23.1875H54.2629C54.5668 22.351 54.7188 21.4571 54.7188 20.5057C54.7188 19.2936 54.4782 18.1875 53.9972 17.1875C53.5323 16.1723 52.8749 15.2936 52.0251 14.5511C51.1753 13.7936 50.1732 13.2102 49.0188 12.8011C47.8643 12.392 46.5977 12.1875 45.2188 12.1875C43.8559 12.1875 42.5892 12.392 41.4187 12.8011C40.2643 13.2102 39.2622 13.7936 38.4124 14.5511C37.5626 15.2936 36.8972 16.1723 36.4162 17.1875Z" fill="white"/>
<path d="M41.4402 10.6431C42.604 11.006 43.8634 11.1875 45.2185 11.1875C46.5895 11.1875 47.8489 11.006 48.9967 10.6431C50.1446 10.2802 51.141 9.76949 51.9859 9.11089C52.8308 8.43884 53.4844 7.65255 53.9467 6.75202C54.0449 6.56724 54.1329 6.37907 54.2109 6.1875H48.1011C48.0292 6.26459 47.9531 6.33852 47.8728 6.40927C47.5381 6.70497 47.1395 6.93347 46.6772 7.09476C46.2308 7.25605 45.7446 7.33669 45.2185 7.33669C44.6924 7.33669 44.1982 7.25605 43.7359 7.09476C43.2895 6.93347 42.891 6.70497 42.5402 6.40927C42.4636 6.33852 42.3907 6.26459 42.3216 6.1875H36.2109C36.2863 6.37907 36.3715 6.56724 36.4663 6.75202C36.9446 7.65255 37.6062 8.43884 38.4511 9.11089C39.296 9.76949 40.2924 10.2802 41.4402 10.6431Z" fill="white"/>
<rect x="1.5" y="1.5" width="129" height="27" stroke="#2DFFDB" stroke-width="3"/>
</svg>
