<svg width="157" height="41" viewBox="0 0 157 41" fill="none" xmlns="http://www.w3.org/2000/svg">
<path d="M59.6058 32.4609C59.974 32.4609 60.3575 32.4763 60.7564 32.507C61.163 32.5376 61.5734 32.599 61.9876 32.6911C61.9876 32.6911 61.9991 32.7716 62.0221 32.9327C62.0528 33.0861 62.0835 33.2702 62.1142 33.485C62.1449 33.6921 62.1717 33.8839 62.1947 34.0604C62.2254 34.2291 62.2408 34.3288 62.2408 34.3595C62.2484 34.3902 62.2254 34.4209 62.1717 34.4516C62.118 34.4823 62.0605 34.4976 61.9991 34.4976C61.9454 34.4976 61.8994 34.4861 61.8611 34.4631C61.8457 34.3787 61.8074 34.2483 61.746 34.0719C61.6923 33.8954 61.5887 33.7113 61.4353 33.5195C61.2896 33.3278 61.0748 33.1667 60.7909 33.0363C60.5071 32.8982 60.1312 32.8291 59.6633 32.8291C59.2491 32.8291 58.8732 32.925 58.5357 33.1168C58.1981 33.3009 57.9066 33.5541 57.6612 33.8762C57.4234 34.1908 57.2392 34.5436 57.1088 34.9349C56.9861 35.3184 56.9247 35.7058 56.9247 36.097C56.9247 36.5343 56.9823 36.9638 57.0973 37.3858C57.2201 37.8077 57.4003 38.1912 57.6381 38.5364C57.8836 38.8739 58.1866 39.1463 58.5472 39.3534C58.9154 39.5528 59.3449 39.6526 59.8359 39.6526C60.1811 39.6526 60.4726 39.5989 60.7104 39.4915C60.9559 39.3841 61.1592 39.2575 61.3202 39.1117C61.5427 38.9123 61.7038 38.6898 61.8035 38.4444C61.9032 38.1989 61.9723 37.9841 62.0106 37.8C62.141 37.7846 62.26 37.8153 62.3673 37.892C62.3673 37.9457 62.352 38.0531 62.3213 38.2142C62.2983 38.3753 62.2676 38.5518 62.2293 38.7435C62.1909 38.9276 62.1487 39.0926 62.1027 39.2383C62.0567 39.3841 62.0145 39.4761 61.9761 39.5145C61.6693 39.6832 61.3202 39.8098 60.929 39.8942C60.5378 39.9786 60.0814 40.0208 59.5597 40.0208C59.0074 40.0208 58.5011 39.9249 58.0409 39.7331C57.5806 39.5336 57.1817 39.2652 56.8442 38.9276C56.5143 38.5824 56.2574 38.1912 56.0732 37.754C55.8968 37.309 55.8086 36.8373 55.8086 36.3387C55.8086 35.8094 55.9006 35.3146 56.0848 34.8543C56.2765 34.3864 56.5412 33.9721 56.8787 33.6116C57.2162 33.2511 57.6151 32.9711 58.0754 32.7716C58.5433 32.5645 59.0534 32.4609 59.6058 32.4609Z" fill="#EFEFEF"/>
<path d="M65.0622 38.3868C65.0622 38.3868 65.0967 38.2948 65.1658 38.1107C65.2425 37.9189 65.3422 37.6619 65.465 37.3397C65.5877 37.0175 65.7258 36.6608 65.8792 36.2696C66.0403 35.8707 66.2014 35.4642 66.3625 35.0499C66.5236 34.628 66.677 34.2253 66.8227 33.8417C66.9762 33.4582 67.1104 33.1206 67.2255 32.8291C67.2561 32.7678 67.3213 32.6987 67.4211 32.622C67.5285 32.5453 67.609 32.507 67.6627 32.507C67.6781 32.507 67.6857 32.5108 67.6857 32.5185C67.6934 32.5185 67.7049 32.5223 67.7202 32.53L70.0101 38.5364C70.1788 38.9813 70.2747 39.2268 70.2977 39.2728C70.3361 39.3572 70.4089 39.4301 70.5163 39.4915C70.6314 39.5528 70.7426 39.5989 70.85 39.6295C70.9651 39.6526 71.038 39.6641 71.0687 39.6641C71.0993 39.7024 71.1108 39.7638 71.1032 39.8482C71.0955 39.9249 71.0878 39.9709 71.0802 39.9862C70.8577 39.9709 70.6583 39.9594 70.4818 39.9517C70.3054 39.9364 70.0944 39.9287 69.849 39.9287C69.5881 39.9287 69.3695 39.9364 69.1931 39.9517C69.0243 39.9594 68.8095 39.9709 68.5487 39.9862C68.518 39.9556 68.5027 39.9019 68.5027 39.8251C68.5104 39.7484 68.5295 39.6947 68.5602 39.6641C68.6293 39.6641 68.7367 39.6526 68.8824 39.6295C69.0282 39.5989 69.1279 39.5605 69.1816 39.5145C69.2123 39.4838 69.2276 39.4301 69.2276 39.3534C69.2276 39.2843 69.2008 39.1693 69.1471 39.0082C69.101 38.8394 69.0397 38.6515 68.963 38.4444C68.8862 38.2372 68.8095 38.0378 68.7328 37.846C68.6561 37.6466 68.5909 37.4855 68.5372 37.3627C68.4912 37.2323 68.4682 37.1671 68.4682 37.1671C68.4682 37.1671 68.4605 37.1595 68.4452 37.1441C68.4298 37.1288 68.4145 37.1211 68.3991 37.1211C68.2841 37.1134 68.1422 37.1096 67.9734 37.1096C67.8046 37.1096 67.6474 37.1096 67.5016 37.1096C67.4633 37.1096 67.4249 37.1096 67.3866 37.1096C67.3482 37.1096 67.3137 37.1096 67.283 37.1096C67.0529 37.1096 66.8572 37.1134 66.6962 37.1211C66.5351 37.1211 66.3279 37.1288 66.0748 37.1441C66.0671 37.1441 66.0556 37.1518 66.0403 37.1671C66.0249 37.1748 66.0173 37.1786 66.0173 37.1786C66.0173 37.1786 65.9866 37.2553 65.9252 37.4088C65.8715 37.5622 65.8025 37.7463 65.7181 37.9611C65.6414 38.1682 65.5723 38.3638 65.511 38.5479C65.4419 38.7397 65.3959 38.9008 65.3729 39.0312C65.3576 39.1616 65.3499 39.2652 65.3499 39.3419C65.3499 39.4263 65.4074 39.4953 65.5225 39.549C65.6452 39.595 65.768 39.6257 65.8907 39.641C66.0211 39.6564 66.1017 39.6641 66.1323 39.6641C66.1477 39.6794 66.1592 39.7293 66.1669 39.8136C66.1745 39.8904 66.1707 39.9479 66.1553 39.9862C66.0096 39.9786 65.883 39.9709 65.7756 39.9632C65.6759 39.9556 65.5723 39.9479 65.465 39.9402C65.3652 39.9325 65.231 39.9287 65.0622 39.9287C64.8935 39.9287 64.7515 39.9325 64.6365 39.9402C64.5214 39.9479 64.4063 39.9556 64.2913 39.9632C64.1762 39.9709 64.0305 39.9786 63.854 39.9862C63.8387 39.9709 63.831 39.9249 63.831 39.8482C63.831 39.7638 63.8387 39.7024 63.854 39.6641C63.9231 39.6641 64.0381 39.6487 64.1992 39.618C64.368 39.5797 64.4792 39.5221 64.5329 39.4454C64.648 39.2997 64.7439 39.1386 64.8206 38.9622C64.905 38.7781 64.9855 38.5863 65.0622 38.3868ZM67.26 33.8647L66.2359 36.6033C66.2359 36.6033 66.2359 36.611 66.2359 36.6263C66.2436 36.6417 66.2512 36.6493 66.2589 36.6493C66.4047 36.657 66.5773 36.6647 66.7767 36.6723C66.9838 36.6723 67.1487 36.6723 67.2715 36.6723C67.4479 36.6723 67.6052 36.6685 67.7433 36.6608C67.889 36.6532 68.0463 36.6455 68.215 36.6378C68.2304 36.6378 68.238 36.6302 68.238 36.6148C68.2457 36.5918 68.2495 36.5803 68.2495 36.5803L67.26 33.8647Z" fill="#EFEFEF"/>
<path d="M75.1225 32.4724C75.3603 32.4724 75.5559 32.4878 75.7093 32.5185C75.8704 32.5415 76.0315 32.576 76.1926 32.622C76.3614 32.6681 76.5685 32.7218 76.8139 32.7831C76.86 33.0746 76.8945 33.3776 76.9175 33.6921C76.9482 33.999 76.9674 34.2291 76.975 34.3825C76.9827 34.4209 76.9559 34.4516 76.8945 34.4746C76.8331 34.4899 76.7833 34.4976 76.7449 34.4976C76.6912 34.4976 76.649 34.4823 76.6183 34.4516C76.603 34.3135 76.557 34.1524 76.4803 33.9683C76.4035 33.7842 76.2962 33.6078 76.1581 33.439C76.0277 33.2702 75.8666 33.1322 75.6748 33.0248C75.4907 32.9097 75.2797 32.8522 75.0419 32.8522C74.7351 32.8522 74.4935 32.9174 74.317 33.0478C74.1406 33.1782 74.014 33.3393 73.9373 33.531C73.8606 33.7228 73.8222 33.9108 73.8222 34.0949C73.8222 34.394 73.8989 34.6434 74.0524 34.8428C74.2135 35.0422 74.4129 35.2187 74.6507 35.3721C74.8962 35.5255 75.1417 35.6828 75.3871 35.8439C75.5712 35.9589 75.7745 36.0855 75.997 36.2236C76.2194 36.3617 76.4342 36.5151 76.6413 36.6839C76.8485 36.8526 77.0172 37.0482 77.1476 37.2707C77.278 37.4855 77.3433 37.731 77.3433 38.0071C77.3433 38.4137 77.2282 38.7742 76.9981 39.0887C76.7756 39.3956 76.4841 39.6372 76.1236 39.8136C75.7707 39.9824 75.3948 40.0668 74.9959 40.0668C74.62 40.0668 74.2557 40.0246 73.9028 39.9402C73.5576 39.8558 73.2469 39.7868 72.9707 39.7331C72.9247 39.5106 72.8825 39.2728 72.8442 39.0197C72.8135 38.7665 72.7866 38.5441 72.7636 38.3523C72.7483 38.1605 72.7406 38.0416 72.7406 37.9956C72.779 37.9572 72.8212 37.9266 72.8672 37.9036C72.9209 37.8729 72.9746 37.8575 73.0283 37.8575C73.0973 37.8575 73.1395 37.892 73.1549 37.9611C73.1779 38.0685 73.2239 38.2181 73.2929 38.4098C73.3696 38.5939 73.477 38.7857 73.6151 38.9852C73.7609 39.1846 73.945 39.3534 74.1674 39.4915C74.3976 39.6219 74.6814 39.6871 75.0189 39.6871C75.3795 39.6871 75.694 39.5682 75.9625 39.3304C76.2309 39.0849 76.3652 38.7435 76.3652 38.3063C76.3652 37.9918 76.2923 37.7463 76.1466 37.5699C76.0085 37.3934 75.8244 37.24 75.5942 37.1096C75.3718 36.9792 75.1302 36.8411 74.8693 36.6954C74.5855 36.5266 74.2902 36.3425 73.9833 36.143C73.6842 35.9359 73.431 35.6943 73.2239 35.4181C73.0168 35.142 72.9132 34.816 72.9132 34.4401C72.9132 34.0412 73.0168 33.696 73.2239 33.4045C73.4387 33.1053 73.7148 32.8752 74.0524 32.7141C74.3899 32.553 74.7466 32.4724 75.1225 32.4724Z" fill="#EFEFEF"/>
<path d="M80.8209 32.5645C81.0434 32.5645 81.2582 32.5607 81.4653 32.553C81.6801 32.5376 81.9026 32.5261 82.1327 32.5185C82.1634 32.5492 82.1749 32.6029 82.1672 32.6796C82.1672 32.7563 82.1557 32.81 82.1327 32.8407C82.0867 32.8407 82.0023 32.8483 81.8795 32.8637C81.7568 32.8713 81.6417 32.8867 81.5343 32.9097C81.4269 32.9327 81.3656 32.9672 81.3502 33.0133C81.3272 33.09 81.3119 33.1897 81.3042 33.3124C81.3042 33.4352 81.3042 33.5694 81.3042 33.7152C81.3042 33.7382 81.3042 33.7612 81.3042 33.7842C81.3042 33.8072 81.3042 33.8302 81.3042 33.8532V38.6515C81.3042 38.6745 81.3042 38.6975 81.3042 38.7205C81.3042 38.7435 81.3042 38.7665 81.3042 38.7896C81.3042 38.9353 81.3042 39.0696 81.3042 39.1923C81.3119 39.3074 81.3272 39.4032 81.3502 39.48C81.3656 39.5183 81.4269 39.5528 81.5343 39.5835C81.6417 39.6142 81.7568 39.6372 81.8795 39.6526C82.0023 39.6602 82.0867 39.6641 82.1327 39.6641C82.1557 39.6947 82.1672 39.7484 82.1672 39.8251C82.1749 39.9019 82.1634 39.9556 82.1327 39.9862C81.9026 39.9709 81.6801 39.9594 81.4653 39.9517C81.2582 39.9364 81.0434 39.9287 80.8209 39.9287C80.6061 39.9287 80.3875 39.9364 80.1651 39.9517C79.9426 39.9594 79.7163 39.9709 79.4862 39.9862C79.4555 39.9556 79.4401 39.9019 79.4401 39.8251C79.4478 39.7484 79.4632 39.6947 79.4862 39.6641C79.5322 39.6641 79.6166 39.6602 79.7393 39.6526C79.8621 39.6372 79.9771 39.6142 80.0845 39.5835C80.1996 39.5528 80.2609 39.5183 80.2686 39.48C80.2993 39.3879 80.3146 39.269 80.3146 39.1232C80.3223 38.9775 80.3262 38.8202 80.3262 38.6515V33.8532C80.3262 33.6845 80.3223 33.5272 80.3146 33.3815C80.3146 33.228 80.2993 33.1053 80.2686 33.0133C80.2609 32.9672 80.1996 32.9327 80.0845 32.9097C79.9771 32.8867 79.8621 32.8713 79.7393 32.8637C79.6166 32.8483 79.5322 32.8407 79.4862 32.8407C79.4632 32.81 79.4478 32.7563 79.4401 32.6796C79.4401 32.6029 79.4555 32.5492 79.4862 32.5185C79.7163 32.5261 79.9426 32.5376 80.1651 32.553C80.3875 32.5607 80.6061 32.5645 80.8209 32.5645Z" fill="#EFEFEF"/>
<path d="M85.3822 32.53C85.551 32.53 85.7159 32.53 85.877 32.53C86.0381 32.53 86.157 32.5261 86.2337 32.5185C86.3488 32.6949 86.5329 32.9442 86.786 33.2664C87.0392 33.5886 87.3345 33.9568 87.672 34.371C88.0096 34.7776 88.3586 35.1995 88.7191 35.6368C89.0797 36.074 89.4287 36.5074 89.7662 36.937C90.1037 37.3589 90.3952 37.7425 90.6407 38.0877V33.8302C90.6407 33.6308 90.6369 33.4735 90.6292 33.3585C90.6215 33.2434 90.587 33.1398 90.5257 33.0478C90.5026 33.0094 90.4336 32.9749 90.3185 32.9442C90.2035 32.9059 90.0807 32.879 89.9503 32.8637C89.8276 32.8407 89.7355 32.8291 89.6742 32.8291C89.6435 32.7908 89.6281 32.7371 89.6281 32.6681C89.6358 32.5913 89.6435 32.5376 89.6512 32.507C89.8736 32.5146 90.0807 32.5261 90.2725 32.5415C90.472 32.5492 90.6944 32.553 90.9399 32.553C91.1163 32.553 91.2582 32.553 91.3656 32.553C91.4807 32.5453 91.5958 32.5376 91.7108 32.53C91.8336 32.5223 91.9793 32.5146 92.1481 32.507C92.1634 32.5376 92.1749 32.5837 92.1826 32.645C92.1903 32.7064 92.1788 32.7678 92.1481 32.8291C92.1021 32.8291 92.01 32.8368 91.8719 32.8522C91.7415 32.8675 91.6149 32.8944 91.4922 32.9327C91.3695 32.9634 91.2928 33.0017 91.2621 33.0478C91.2084 33.1322 91.1777 33.228 91.17 33.3354C91.1624 33.4428 91.1585 33.6039 91.1585 33.8187V38.3868C91.1585 38.6016 91.1585 38.7896 91.1585 38.9506C91.1585 39.1117 91.1585 39.269 91.1585 39.4224C91.1662 39.5682 91.1739 39.7408 91.1815 39.9402C91.1739 39.9709 91.1508 39.9901 91.1125 39.9977C91.0741 40.0054 91.0473 40.0093 91.0319 40.0093C91.0013 40.0093 90.9476 39.9901 90.8709 39.9517C90.8018 39.9134 90.7251 39.8443 90.6407 39.7446L85.7389 33.5541V38.663C85.7389 38.8624 85.7428 39.0197 85.7504 39.1348C85.7658 39.2421 85.8003 39.3419 85.854 39.4339C85.877 39.4723 85.9422 39.5106 86.0496 39.549C86.1647 39.5797 86.2836 39.6065 86.4063 39.6295C86.5367 39.6526 86.6326 39.6641 86.694 39.6641C86.7246 39.7024 86.74 39.7561 86.74 39.8251C86.74 39.8942 86.7323 39.9479 86.717 39.9862C86.4945 39.9709 86.2874 39.9594 86.0956 39.9517C85.9038 39.9364 85.6852 39.9287 85.4397 39.9287C85.271 39.9287 85.1252 39.9325 85.0025 39.9402C84.8874 39.9479 84.7724 39.9556 84.6573 39.9632C84.5499 39.9709 84.408 39.9786 84.2316 39.9862C84.2162 39.9556 84.2047 39.9095 84.197 39.8482C84.1894 39.7868 84.2009 39.7254 84.2316 39.6641C84.2776 39.6641 84.3658 39.6564 84.4962 39.641C84.6266 39.618 84.7532 39.5912 84.8759 39.5605C85.0063 39.5221 85.083 39.48 85.1061 39.4339C85.1598 39.3495 85.1904 39.2575 85.1981 39.1578C85.2135 39.0504 85.2211 38.8893 85.2211 38.6745V33.7957C85.2211 33.5809 85.2135 33.4198 85.1981 33.3124C85.1904 33.205 85.1598 33.1091 85.1061 33.0248C85.083 32.9787 85.0063 32.9404 84.8759 32.9097C84.7532 32.8713 84.6266 32.8445 84.4962 32.8291C84.3658 32.8138 84.2776 32.8061 84.2316 32.8061C84.2009 32.7448 84.1894 32.6834 84.197 32.622C84.2047 32.5607 84.2162 32.5146 84.2316 32.484C84.4924 32.4916 84.7033 32.5031 84.8644 32.5185C85.0255 32.5261 85.1981 32.53 85.3822 32.53Z" fill="#EFEFEF"/>
<path d="M97.7066 32.4609C98.2052 32.4609 98.6731 32.553 99.1104 32.7371C99.5553 32.9212 99.9465 33.1859 100.284 33.531C100.622 33.8686 100.886 34.2713 101.078 34.7392C101.277 35.1995 101.377 35.7096 101.377 36.2696C101.377 36.7989 101.277 37.2937 101.078 37.754C100.886 38.2066 100.622 38.6093 100.284 38.9622C99.9465 39.3074 99.5553 39.5797 99.1104 39.7791C98.6731 39.9709 98.2052 40.0668 97.7066 40.0668C97.2156 40.0668 96.7477 39.9747 96.3028 39.7906C95.8655 39.6065 95.4781 39.3457 95.1406 39.0082C94.8107 38.663 94.5499 38.2603 94.3582 37.8C94.1664 37.3321 94.0705 36.8219 94.0705 36.2696C94.0705 35.7403 94.1664 35.2455 94.3582 34.7853C94.5499 34.325 94.8107 33.9223 95.1406 33.5771C95.4781 33.2242 95.8655 32.9519 96.3028 32.7601C96.7477 32.5607 97.2156 32.4609 97.7066 32.4609ZM97.5455 32.8407C97.1236 32.8407 96.763 32.9365 96.4639 33.1283C96.1647 33.3124 95.9192 33.5579 95.7274 33.8647C95.5433 34.1716 95.4053 34.5129 95.3132 34.8888C95.2288 35.2647 95.1866 35.6406 95.1866 36.0165C95.1866 36.4537 95.2442 36.891 95.3592 37.3282C95.482 37.7578 95.6584 38.1529 95.8885 38.5134C96.1187 38.8663 96.3987 39.1501 96.7285 39.3649C97.066 39.5797 97.4534 39.6871 97.8907 39.6871C98.3126 39.6871 98.6731 39.595 98.9723 39.4109C99.2715 39.2191 99.5169 38.966 99.7087 38.6515C99.9005 38.337 100.039 37.9918 100.123 37.6159C100.215 37.2323 100.261 36.8526 100.261 36.4767C100.261 36.0395 100.2 35.6061 100.077 35.1765C99.9619 34.7469 99.7854 34.3557 99.5476 34.0028C99.3175 33.65 99.0337 33.37 98.6961 33.1628C98.3663 32.948 97.9827 32.8407 97.5455 32.8407Z" fill="#EFEFEF"/>
<path d="M5.9374 9.58424C6.44369 9.58424 6.96532 9.66862 7.50229 9.83738C8.03927 10.0061 8.53021 10.2516 8.97513 10.5738C9.4354 10.896 9.80361 11.3026 10.0798 11.7935C10.3559 12.2691 10.494 12.8291 10.494 13.4735C10.494 14.0104 10.3406 14.5321 10.0337 15.0384C9.74224 15.5446 9.35869 15.9896 8.88308 16.3731C8.42282 16.7567 7.93954 17.0328 7.43325 17.2016C7.83215 17.8613 8.2157 18.4673 8.58391 19.0196C8.95212 19.572 9.33567 20.1243 9.73457 20.6766C10.1335 21.2136 10.5784 21.8119 11.0693 22.4716C11.3915 22.9012 11.7367 23.2234 12.1049 23.4382C12.4885 23.653 12.9871 23.7834 13.6008 23.8294C13.6621 23.8908 13.6775 24.0058 13.6468 24.1746C13.6161 24.3434 13.5931 24.4431 13.5778 24.4738C12.826 24.4738 12.197 24.4507 11.6907 24.4047C11.1997 24.3434 10.8392 24.2743 10.6091 24.1976C10.4556 24.1362 10.2409 24.0442 9.9647 23.9214C9.68854 23.7834 9.42006 23.5456 9.15924 23.208C9.06719 23.0853 8.89842 22.8475 8.65295 22.4946C8.40748 22.1418 8.11598 21.7122 7.77845 21.2059C7.44092 20.6996 7.08038 20.1626 6.69683 19.595C6.31328 19.012 5.94507 18.4443 5.5922 17.892C5.46946 17.7079 5.23933 17.6158 4.9018 17.6158H3.72813V21.8042C3.72813 21.8503 3.72813 21.8963 3.72813 21.9423C3.72813 21.9883 3.72813 22.0344 3.72813 22.0804C3.72813 22.3719 3.72813 22.6404 3.72813 22.8858C3.74347 23.116 3.77416 23.3078 3.82019 23.4612C3.85087 23.5379 3.97361 23.6069 4.1884 23.6683C4.40319 23.7297 4.63332 23.7757 4.87879 23.8064C5.12426 23.8217 5.29303 23.8294 5.38508 23.8294C5.43111 23.8908 5.45412 23.9982 5.45412 24.1516C5.46946 24.305 5.44645 24.4124 5.38508 24.4738C4.92482 24.4431 4.4799 24.4201 4.05032 24.4047C3.63608 24.374 3.2065 24.3587 2.76158 24.3587C2.332 24.3587 1.89475 24.374 1.44983 24.4047C1.00491 24.4201 0.552316 24.4431 0.0920527 24.4738C0.0306842 24.4124 0 24.305 0 24.1516C0.0153421 23.9982 0.0460263 23.8908 0.0920527 23.8294C0.184105 23.8294 0.352868 23.8217 0.598342 23.8064C0.843816 23.7757 1.07395 23.7297 1.28874 23.6683C1.51887 23.6069 1.64161 23.5379 1.65695 23.4612C1.71832 23.2771 1.749 23.0393 1.749 22.7478C1.76434 22.4563 1.77201 22.1418 1.77201 21.8042L1.749 12.2077C1.749 11.8702 1.74133 11.5557 1.72599 11.2642C1.72599 10.9574 1.6953 10.7119 1.63393 10.5278C1.61859 10.4357 1.49586 10.3667 1.26572 10.3207C1.05093 10.2746 0.820803 10.244 0.575329 10.2286C0.345197 10.1979 0.184105 10.1826 0.0920527 10.1826C0.0460263 10.1212 0.0153421 10.0138 0 9.8604C0 9.70698 0.0306842 9.59958 0.0920527 9.53821C0.552316 9.55356 0.997237 9.57657 1.42682 9.60725C1.87174 9.6226 2.30899 9.63027 2.73857 9.63027C3.18349 9.63027 3.65909 9.6226 4.16538 9.60725C4.68701 9.59191 5.27769 9.58424 5.9374 9.58424ZM8.39981 13.6806C8.39981 12.6987 8.13132 11.8932 7.59434 11.2642C7.07271 10.6352 6.19054 10.3207 4.94783 10.3207C4.80975 10.3207 4.59496 10.3283 4.30346 10.3437C4.0273 10.359 3.86621 10.4204 3.82019 10.5278C3.75882 10.6659 3.72046 10.9037 3.70512 11.2412C3.70512 11.5634 3.70512 11.8932 3.70512 12.2308L3.72813 16.9254H4.92482C5.50782 16.9254 6.06013 16.795 6.58176 16.5342C7.11874 16.2581 7.55599 15.8822 7.89352 15.4066C8.23104 14.9156 8.39981 14.3403 8.39981 13.6806Z" fill="#EFEFEF"/>
<path d="M18.0986 9.63027C18.5435 9.63027 18.9731 9.6226 19.3873 9.60725C19.8169 9.57657 20.2618 9.55356 20.7221 9.53821C20.7835 9.59958 20.8065 9.70698 20.7911 9.8604C20.7911 10.0138 20.7681 10.1212 20.7221 10.1826C20.63 10.1826 20.4613 10.1979 20.2158 10.2286C19.9703 10.244 19.7402 10.2746 19.5254 10.3207C19.3106 10.3667 19.1879 10.4357 19.1572 10.5278C19.1112 10.6812 19.0805 10.8806 19.0651 11.1261C19.0651 11.3716 19.0651 11.6401 19.0651 11.9316C19.0651 11.9776 19.0651 12.0236 19.0651 12.0697C19.0651 12.1157 19.0651 12.1617 19.0651 12.2077V21.8042C19.0651 21.8503 19.0651 21.8963 19.0651 21.9423C19.0651 21.9883 19.0651 22.0344 19.0651 22.0804C19.0651 22.3719 19.0651 22.6404 19.0651 22.8858C19.0805 23.116 19.1112 23.3078 19.1572 23.4612C19.1879 23.5379 19.3106 23.6069 19.5254 23.6683C19.7402 23.7297 19.9703 23.7757 20.2158 23.8064C20.4613 23.8217 20.63 23.8294 20.7221 23.8294C20.7681 23.8908 20.7911 23.9982 20.7911 24.1516C20.8065 24.305 20.7835 24.4124 20.7221 24.4738C20.2618 24.4431 19.8169 24.4201 19.3873 24.4047C18.9731 24.374 18.5435 24.3587 18.0986 24.3587C17.669 24.3587 17.2318 24.374 16.7868 24.4047C16.3419 24.4201 15.8893 24.4431 15.4291 24.4738C15.3677 24.4124 15.337 24.305 15.337 24.1516C15.3524 23.9982 15.383 23.8908 15.4291 23.8294C15.5211 23.8294 15.6899 23.8217 15.9354 23.8064C16.1808 23.7757 16.411 23.7297 16.6258 23.6683C16.8559 23.6069 16.9786 23.5379 16.994 23.4612C17.0553 23.2771 17.086 23.0393 17.086 22.7478C17.1014 22.4563 17.109 22.1418 17.109 21.8042V12.2077C17.109 11.8702 17.1014 11.5557 17.086 11.2642C17.086 10.9574 17.0553 10.7119 16.994 10.5278C16.9786 10.4357 16.8559 10.3667 16.6258 10.3207C16.411 10.2746 16.1808 10.244 15.9354 10.2286C15.6899 10.1979 15.5211 10.1826 15.4291 10.1826C15.383 10.1212 15.3524 10.0138 15.337 9.8604C15.337 9.70698 15.3677 9.59958 15.4291 9.53821C15.8893 9.55356 16.3419 9.57657 16.7868 9.60725C17.2318 9.6226 17.669 9.63027 18.0986 9.63027Z" fill="#EFEFEF"/>
<path d="M25.5412 9.63027C26.0321 9.63027 26.5077 9.6226 26.968 9.60725C27.4283 9.57657 27.8809 9.55356 28.3258 9.53821C28.3565 9.59958 28.3641 9.72232 28.3488 9.90642C28.3488 10.0752 28.3258 10.1672 28.2798 10.1826C28.2184 10.1826 28.0726 10.2056 27.8425 10.2516C27.6277 10.2823 27.4206 10.3513 27.2212 10.4587C27.0217 10.5508 26.922 10.7042 26.922 10.919C26.922 11.1645 27.0601 11.6708 27.3362 12.4379C27.459 12.7754 27.62 13.228 27.8195 13.7956C28.0343 14.348 28.2644 14.9616 28.5099 15.6367C28.7554 16.3118 29.0008 16.9868 29.2463 17.6619C29.5071 18.3369 29.7373 18.9583 29.9367 19.5259C30.1515 20.0936 30.3203 20.5615 30.443 20.9297C30.5811 21.2826 30.6578 21.4744 30.6731 21.5051C30.7038 21.4437 30.8035 21.2136 30.9723 20.8147C31.1411 20.4004 31.3482 19.8788 31.5937 19.2498C31.8545 18.6207 32.1383 17.9303 32.4451 17.1786C32.752 16.4115 33.0588 15.6367 33.3657 14.8543C33.6879 14.0718 33.987 13.3354 34.2632 12.645C34.3706 12.3842 34.4626 12.108 34.5393 11.8165C34.6161 11.525 34.6544 11.2795 34.6544 11.0801C34.6544 10.8346 34.547 10.6505 34.3322 10.5278C34.1328 10.405 33.9103 10.3207 33.6648 10.2746C33.4347 10.2286 33.2736 10.2056 33.1816 10.2056C33.1202 10.1749 33.0895 10.0752 33.0895 9.90642C33.0895 9.72232 33.1202 9.59958 33.1816 9.53821C33.5958 9.55356 33.987 9.57657 34.3552 9.60725C34.7234 9.6226 35.1147 9.63027 35.5289 9.63027C35.8818 9.63027 36.1579 9.63027 36.3574 9.63027C36.5722 9.61492 36.7793 9.59958 36.9787 9.58424C37.1782 9.5689 37.4237 9.55356 37.7152 9.53821C37.7458 9.59958 37.7535 9.72232 37.7382 9.90642C37.7228 10.0905 37.6998 10.1826 37.6691 10.1826C37.5771 10.1826 37.3623 10.2209 37.0248 10.2976C36.7026 10.3744 36.4418 10.5278 36.2423 10.7579C36.1042 10.9113 35.9201 11.2258 35.69 11.7015C35.4752 12.1617 35.2834 12.6066 35.1147 13.0362C34.7004 14.0641 34.3169 15.0077 33.964 15.8668C33.6265 16.726 33.289 17.5545 32.9514 18.3523C32.6292 19.15 32.2917 19.9785 31.9389 20.8377C31.586 21.6968 31.1871 22.648 30.7422 23.6913C30.6194 23.9828 30.4814 24.1823 30.3279 24.2897C30.1899 24.397 30.0441 24.4507 29.8907 24.4507C29.8447 24.4507 29.8063 24.4047 29.7756 24.3127C29.7449 24.2053 29.7142 24.1286 29.6836 24.0825C29.1773 22.7478 28.7017 21.5051 28.2567 20.3544C27.8272 19.1884 27.3822 18.0071 26.922 16.8104C26.4771 15.6137 25.9708 14.2943 25.4031 12.8521C25.2344 12.4072 25.0656 12.0083 24.8968 11.6554C24.7434 11.3026 24.567 10.9804 24.3675 10.6889C24.2908 10.5661 24.1527 10.4664 23.9533 10.3897C23.7538 10.313 23.5544 10.2593 23.3549 10.2286C23.1708 10.1979 23.0328 10.1826 22.9407 10.1826C22.9254 10.1826 22.9177 10.0829 22.9177 9.88341C22.9177 9.66862 22.9254 9.55356 22.9407 9.53821C23.4623 9.55356 23.8919 9.57657 24.2294 9.60725C24.5823 9.6226 25.0196 9.63027 25.5412 9.63027Z" fill="#EFEFEF"/>
<path d="M42.48 9.63027C43.5386 9.63027 44.7046 9.60725 45.978 9.56123C47.2514 9.5152 48.4941 9.49219 49.7061 9.49219C49.7828 10.0598 49.8825 10.5815 50.0053 11.0571C50.128 11.5327 50.2431 12.0236 50.3505 12.5299C50.2737 12.6066 50.1433 12.645 49.9592 12.645C49.7598 12.645 49.6524 12.5913 49.6371 12.4839C49.3916 11.5787 49.0464 11.0034 48.6015 10.7579C48.1565 10.5124 47.6349 10.3897 47.0366 10.3897H45.1035C45.0114 10.3897 44.8426 10.3974 44.5972 10.4127C44.3517 10.4127 44.1216 10.4281 43.9068 10.4587C43.692 10.4894 43.5692 10.5431 43.5386 10.6198C43.4925 10.7733 43.4619 10.9727 43.4465 11.2182C43.4465 11.4636 43.4465 11.7168 43.4465 11.9776C43.4465 12.085 43.4465 12.1694 43.4465 12.2308V16.4192C43.4465 16.4805 43.5462 16.5189 43.7457 16.5342C43.9451 16.5496 44.1676 16.5572 44.4131 16.5572H45.5867C46.1237 16.5572 46.5379 16.5419 46.8294 16.5112C47.1363 16.4805 47.3587 16.4115 47.4968 16.3041C47.6349 16.1967 47.7423 16.0356 47.819 15.8208C47.8957 15.606 47.9801 15.3145 48.0722 14.9463C48.0875 14.8389 48.1949 14.7852 48.3943 14.7852C48.5784 14.7852 48.7089 14.8236 48.7856 14.9003V19.1347C48.7242 19.1961 48.6015 19.2268 48.4174 19.2268C48.2332 19.2268 48.1182 19.1731 48.0722 19.0657C47.9648 18.6361 47.8727 18.3292 47.796 18.1451C47.7346 17.9457 47.6733 17.8153 47.6119 17.7539C47.5659 17.6772 47.5045 17.6158 47.4278 17.5698C47.3511 17.5084 47.1746 17.4701 46.8985 17.4547C46.6223 17.4241 46.3155 17.4087 45.978 17.4087C45.6558 17.3934 45.3489 17.3857 45.0574 17.3857C44.858 17.3857 44.6278 17.3934 44.367 17.4087C44.1216 17.4087 43.9068 17.4241 43.7227 17.4547C43.5386 17.4701 43.4465 17.5161 43.4465 17.5928V21.8733C43.4465 21.904 43.4465 21.95 43.4465 22.0113C43.4465 22.2261 43.4465 22.5023 43.4465 22.8398C43.4619 23.1774 43.5002 23.3691 43.5616 23.4152C43.715 23.5225 43.8991 23.5916 44.1139 23.6223C44.344 23.6376 44.6969 23.6453 45.1725 23.6453H46.2541C46.7911 23.6453 47.3204 23.5916 47.842 23.4842C48.3637 23.3768 48.7779 23.2234 49.0847 23.0239C49.4376 22.8091 49.7138 22.5023 49.9132 22.1034C50.1127 21.6892 50.3044 21.2442 50.4885 20.7686C50.5192 20.6766 50.6266 20.6306 50.8107 20.6306C51.0869 20.6306 51.271 20.6766 51.363 20.7686C51.1483 21.3823 50.9104 22.0344 50.6496 22.7248C50.4042 23.4152 50.2431 24.0058 50.1664 24.4968C48.9543 24.4968 47.75 24.4814 46.5533 24.4507C45.3566 24.4201 44.0065 24.4047 42.503 24.4047C41.9813 24.4047 41.5134 24.4124 41.0992 24.4277C40.6849 24.4584 40.2554 24.4738 39.8104 24.4738C39.7491 24.4124 39.7184 24.305 39.7184 24.1516C39.7337 23.9982 39.7644 23.8908 39.8104 23.8294C39.9025 23.8294 40.0712 23.8217 40.3167 23.8064C40.5622 23.7757 40.7923 23.7297 41.0071 23.6683C41.2372 23.6069 41.36 23.5379 41.3753 23.4612C41.4367 23.2771 41.4674 23.0393 41.4674 22.7478C41.4827 22.4563 41.4904 22.1418 41.4904 21.8042V12.2077C41.4904 11.8702 41.4827 11.5557 41.4674 11.2642C41.4674 10.9574 41.4367 10.7119 41.3753 10.5278C41.36 10.4357 41.2372 10.3667 41.0071 10.3207C40.7923 10.2746 40.5622 10.244 40.3167 10.2286C40.0712 10.1979 39.9025 10.1826 39.8104 10.1826C39.7644 10.1212 39.7337 10.0138 39.7184 9.8604C39.7184 9.70698 39.7491 9.59958 39.8104 9.53821C40.2707 9.55356 40.7233 9.57657 41.1682 9.60725C41.6131 9.6226 42.0504 9.63027 42.48 9.63027Z" fill="#EFEFEF"/>
<path d="M60.2287 9.58424C60.735 9.58424 61.2566 9.66862 61.7936 9.83738C62.3306 10.0061 62.8215 10.2516 63.2664 10.5738C63.7267 10.896 64.0949 11.3026 64.3711 11.7935C64.6472 12.2691 64.7853 12.8291 64.7853 13.4735C64.7853 14.0104 64.6319 14.5321 64.325 15.0384C64.0335 15.5446 63.65 15.9896 63.1744 16.3731C62.7141 16.7567 62.2308 17.0328 61.7245 17.2016C62.1234 17.8613 62.507 18.4673 62.8752 19.0196C63.2434 19.572 63.627 20.1243 64.0259 20.6766C64.4248 21.2136 64.8697 21.8119 65.3606 22.4716C65.6828 22.9012 66.028 23.2234 66.3962 23.4382C66.7798 23.653 67.2784 23.7834 67.8921 23.8294C67.9534 23.8908 67.9688 24.0058 67.9381 24.1746C67.9074 24.3434 67.8844 24.4431 67.8691 24.4738C67.1173 24.4738 66.4883 24.4507 65.982 24.4047C65.491 24.3434 65.1305 24.2743 64.9004 24.1976C64.7469 24.1362 64.5322 24.0442 64.256 23.9214C63.9798 23.7834 63.7113 23.5456 63.4505 23.208C63.3585 23.0853 63.1897 22.8475 62.9442 22.4946C62.6988 22.1418 62.4073 21.7122 62.0697 21.2059C61.7322 20.6996 61.3717 20.1626 60.9881 19.595C60.6046 19.012 60.2364 18.4443 59.8835 17.892C59.7607 17.7079 59.5306 17.6158 59.1931 17.6158H58.0194V21.8042C58.0194 21.8503 58.0194 21.8963 58.0194 21.9423C58.0194 21.9883 58.0194 22.0344 58.0194 22.0804C58.0194 22.3719 58.0194 22.6404 58.0194 22.8858C58.0348 23.116 58.0654 23.3078 58.1115 23.4612C58.1422 23.5379 58.2649 23.6069 58.4797 23.6683C58.6945 23.7297 58.9246 23.7757 59.1701 23.8064C59.4156 23.8217 59.5843 23.8294 59.6764 23.8294C59.7224 23.8908 59.7454 23.9982 59.7454 24.1516C59.7607 24.305 59.7377 24.4124 59.6764 24.4738C59.2161 24.4431 58.7712 24.4201 58.3416 24.4047C57.9274 24.374 57.4978 24.3587 57.0529 24.3587C56.6233 24.3587 56.186 24.374 55.7411 24.4047C55.2962 24.4201 54.8436 24.4431 54.3833 24.4738C54.322 24.4124 54.2913 24.305 54.2913 24.1516C54.3066 23.9982 54.3373 23.8908 54.3833 23.8294C54.4754 23.8294 54.6442 23.8217 54.8896 23.8064C55.1351 23.7757 55.3652 23.7297 55.58 23.6683C55.8102 23.6069 55.9329 23.5379 55.9482 23.4612C56.0096 23.2771 56.0403 23.0393 56.0403 22.7478C56.0556 22.4563 56.0633 22.1418 56.0633 21.8042L56.0403 12.2077C56.0403 11.8702 56.0326 11.5557 56.0173 11.2642C56.0173 10.9574 55.9866 10.7119 55.9252 10.5278C55.9099 10.4357 55.7871 10.3667 55.557 10.3207C55.3422 10.2746 55.1121 10.244 54.8666 10.2286C54.6365 10.1979 54.4754 10.1826 54.3833 10.1826C54.3373 10.1212 54.3066 10.0138 54.2913 9.8604C54.2913 9.70698 54.322 9.59958 54.3833 9.53821C54.8436 9.55356 55.2885 9.57657 55.7181 9.60725C56.163 9.6226 56.6003 9.63027 57.0299 9.63027C57.4748 9.63027 57.9504 9.6226 58.4567 9.60725C58.9783 9.59191 59.569 9.58424 60.2287 9.58424ZM62.6911 13.6806C62.6911 12.6987 62.4226 11.8932 61.8856 11.2642C61.364 10.6352 60.4818 10.3207 59.2391 10.3207C59.101 10.3207 58.8862 10.3283 58.5947 10.3437C58.3186 10.359 58.1575 10.4204 58.1115 10.5278C58.0501 10.6659 58.0117 10.9037 57.9964 11.2412C57.9964 11.5634 57.9964 11.8932 57.9964 12.2308L58.0194 16.9254H59.2161C59.7991 16.9254 60.3514 16.795 60.8731 16.5342C61.41 16.2581 61.8473 15.8822 62.1848 15.4066C62.5223 14.9156 62.6911 14.3403 62.6911 13.6806Z" fill="#EFEFEF"/>
<path d="M106.672 9.44531C107.409 9.44531 108.176 9.476 108.974 9.53737C109.787 9.59873 110.608 9.72147 111.436 9.90558C111.436 9.90558 111.459 10.0667 111.505 10.3889C111.567 10.6957 111.628 11.0639 111.689 11.4935C111.751 11.9077 111.804 12.2913 111.85 12.6441C111.912 12.9817 111.942 13.1811 111.942 13.2425C111.958 13.3039 111.912 13.3652 111.804 13.4266C111.697 13.488 111.582 13.5186 111.459 13.5186C111.352 13.5186 111.26 13.4956 111.183 13.4496C111.152 13.2808 111.076 13.02 110.953 12.6672C110.846 12.3143 110.638 11.9461 110.332 11.5625C110.04 11.179 109.61 10.8568 109.043 10.596C108.475 10.3198 107.723 10.1817 106.788 10.1817C105.959 10.1817 105.207 10.3735 104.532 10.7571C103.857 11.1253 103.274 11.6316 102.783 12.2759C102.308 12.905 101.939 13.6107 101.679 14.3931C101.433 15.1602 101.31 15.935 101.31 16.7175C101.31 17.592 101.425 18.4511 101.656 19.2949C101.901 20.1388 102.262 20.9059 102.737 21.5963C103.228 22.2713 103.834 22.816 104.555 23.2302C105.292 23.6291 106.151 23.8285 107.133 23.8285C107.823 23.8285 108.406 23.7211 108.882 23.5064C109.373 23.2916 109.779 23.0384 110.101 22.7469C110.546 22.348 110.869 21.9031 111.068 21.4122C111.267 20.9212 111.406 20.4916 111.482 20.1234C111.743 20.0927 111.981 20.1541 112.196 20.3075C112.196 20.4149 112.165 20.6297 112.104 20.9519C112.058 21.2741 111.996 21.6269 111.919 22.0105C111.843 22.3787 111.758 22.7086 111.666 23.0001C111.574 23.2916 111.49 23.4757 111.413 23.5524C110.799 23.8899 110.101 24.1431 109.319 24.3118C108.537 24.4806 107.624 24.565 106.58 24.565C105.476 24.565 104.463 24.3732 103.543 23.9896C102.622 23.5907 101.824 23.0538 101.149 22.3787C100.49 21.6883 99.9756 20.9059 99.6074 20.0314C99.2546 19.1415 99.0781 18.198 99.0781 17.2007C99.0781 16.1421 99.2622 15.1526 99.6304 14.2321C100.014 13.2962 100.543 12.4677 101.218 11.7466C101.893 11.0255 102.691 10.4656 103.612 10.0667C104.548 9.65243 105.568 9.44531 106.672 9.44531Z" fill="#EFEFEF"/>
<path d="M121.383 9.6064C121.889 9.6064 122.41 9.69079 122.947 9.85955C123.484 10.0283 123.975 10.2738 124.42 10.596C124.881 10.9182 125.249 11.3247 125.525 11.8157C125.801 12.2913 125.939 12.8513 125.939 13.4956C125.939 14.0326 125.786 14.5542 125.479 15.0605C125.187 15.5668 124.804 16.0117 124.328 16.3953C123.868 16.7788 123.385 17.055 122.878 17.2238C123.277 17.8835 123.661 18.4895 124.029 19.0418C124.397 19.5941 124.781 20.1464 125.18 20.6988C125.579 21.2357 126.024 21.8341 126.514 22.4938C126.837 22.9234 127.182 23.2455 127.55 23.4603C127.934 23.6751 128.432 23.8055 129.046 23.8516C129.107 23.9129 129.123 24.028 129.092 24.1968C129.061 24.3655 129.038 24.4652 129.023 24.4959C128.271 24.4959 127.642 24.4729 127.136 24.4269C126.645 24.3655 126.284 24.2965 126.054 24.2198C125.901 24.1584 125.686 24.0663 125.41 23.9436C125.134 23.8055 124.865 23.5677 124.604 23.2302C124.512 23.1075 124.344 22.8697 124.098 22.5168C123.853 22.1639 123.561 21.7343 123.224 21.2281C122.886 20.7218 122.526 20.1848 122.142 19.6171C121.758 19.0341 121.39 18.4665 121.037 17.9142C120.915 17.7301 120.684 17.638 120.347 17.638H119.173V21.8264C119.173 21.8724 119.173 21.9184 119.173 21.9645C119.173 22.0105 119.173 22.0565 119.173 22.1026C119.173 22.3941 119.173 22.6625 119.173 22.908C119.189 23.1381 119.219 23.3299 119.265 23.4833C119.296 23.5601 119.419 23.6291 119.634 23.6905C119.848 23.7518 120.078 23.7979 120.324 23.8285C120.569 23.8439 120.738 23.8516 120.83 23.8516C120.876 23.9129 120.899 24.0203 120.899 24.1737C120.915 24.3272 120.892 24.4346 120.83 24.4959C120.37 24.4652 119.925 24.4422 119.495 24.4269C119.081 24.3962 118.652 24.3809 118.207 24.3809C117.777 24.3809 117.34 24.3962 116.895 24.4269C116.45 24.4422 115.997 24.4652 115.537 24.4959C115.476 24.4346 115.445 24.3272 115.445 24.1737C115.46 24.0203 115.491 23.9129 115.537 23.8516C115.629 23.8516 115.798 23.8439 116.044 23.8285C116.289 23.7979 116.519 23.7518 116.734 23.6905C116.964 23.6291 117.087 23.5601 117.102 23.4833C117.163 23.2992 117.194 23.0614 117.194 22.7699C117.21 22.4784 117.217 22.1639 117.217 21.8264L117.194 12.2299C117.194 11.8924 117.186 11.5779 117.171 11.2864C117.171 10.9795 117.14 10.734 117.079 10.5499C117.064 10.4579 116.941 10.3889 116.711 10.3428C116.496 10.2968 116.266 10.2661 116.02 10.2508C115.79 10.2201 115.629 10.2047 115.537 10.2047C115.491 10.1434 115.46 10.036 115.445 9.88256C115.445 9.72914 115.476 9.62175 115.537 9.56038C115.997 9.57572 116.442 9.59873 116.872 9.62942C117.317 9.64476 117.754 9.65243 118.184 9.65243C118.629 9.65243 119.104 9.64476 119.611 9.62942C120.132 9.61408 120.723 9.6064 121.383 9.6064ZM123.845 13.7027C123.845 12.7209 123.576 11.9154 123.04 11.2864C122.518 10.6573 121.636 10.3428 120.393 10.3428C120.255 10.3428 120.04 10.3505 119.749 10.3658C119.472 10.3812 119.311 10.4425 119.265 10.5499C119.204 10.688 119.166 10.9258 119.15 11.2634C119.15 11.5855 119.15 11.9154 119.15 12.2529L119.173 16.9476H120.37C120.953 16.9476 121.505 16.8172 122.027 16.5564C122.564 16.2802 123.001 15.9043 123.339 15.4287C123.676 14.9378 123.845 14.3625 123.845 13.7027Z" fill="#EFEFEF"/>
<path d="M133.544 9.65243C134.602 9.65243 135.768 9.62942 137.042 9.58339C138.315 9.53737 139.558 9.51435 140.77 9.51435C140.847 10.082 140.946 10.6036 141.069 11.0792C141.192 11.5549 141.307 12.0458 141.414 12.5521C141.338 12.6288 141.207 12.6672 141.023 12.6672C140.824 12.6672 140.716 12.6135 140.701 12.5061C140.455 11.6009 140.11 11.0255 139.665 10.7801C139.22 10.5346 138.699 10.4119 138.1 10.4119H136.167C136.075 10.4119 135.906 10.4195 135.661 10.4349C135.415 10.4349 135.185 10.4502 134.971 10.4809C134.756 10.5116 134.633 10.5653 134.602 10.642C134.556 10.7954 134.526 10.9949 134.51 11.2403C134.51 11.4858 134.51 11.739 134.51 11.9998C134.51 12.1072 134.51 12.1915 134.51 12.2529V16.4413C134.51 16.5027 134.61 16.541 134.809 16.5564C135.009 16.5717 135.231 16.5794 135.477 16.5794H136.651C137.188 16.5794 137.602 16.5641 137.893 16.5334C138.2 16.5027 138.423 16.4336 138.561 16.3262C138.699 16.2189 138.806 16.0578 138.883 15.843C138.96 15.6282 139.044 15.3367 139.136 14.9685C139.151 14.8611 139.259 14.8074 139.458 14.8074C139.642 14.8074 139.773 14.8457 139.849 14.9224V19.1569C139.788 19.2182 139.665 19.2489 139.481 19.2489C139.297 19.2489 139.182 19.1952 139.136 19.0878C139.029 18.6582 138.937 18.3514 138.86 18.1673C138.798 17.9679 138.737 17.8374 138.676 17.7761C138.63 17.6994 138.568 17.638 138.492 17.592C138.415 17.5306 138.238 17.4922 137.962 17.4769C137.686 17.4462 137.379 17.4309 137.042 17.4309C136.72 17.4155 136.413 17.4079 136.121 17.4079C135.922 17.4079 135.692 17.4155 135.431 17.4309C135.185 17.4309 134.971 17.4462 134.786 17.4769C134.602 17.4922 134.51 17.5383 134.51 17.615V21.8954C134.51 21.9261 134.51 21.9721 134.51 22.0335C134.51 22.2483 134.51 22.5245 134.51 22.862C134.526 23.1995 134.564 23.3913 134.625 23.4373C134.779 23.5447 134.963 23.6138 135.178 23.6444C135.408 23.6598 135.761 23.6674 136.236 23.6674H137.318C137.855 23.6674 138.384 23.6138 138.906 23.5064C139.427 23.399 139.842 23.2455 140.149 23.0461C140.501 22.8313 140.778 22.5245 140.977 22.1256C141.176 21.7113 141.368 21.2664 141.552 20.7908C141.583 20.6988 141.69 20.6527 141.875 20.6527C142.151 20.6527 142.335 20.6988 142.427 20.7908C142.212 21.4045 141.974 22.0565 141.713 22.7469C141.468 23.4373 141.307 24.028 141.23 24.5189C140.018 24.5189 138.814 24.5036 137.617 24.4729C136.42 24.4422 135.07 24.4269 133.567 24.4269C133.045 24.4269 132.577 24.4346 132.163 24.4499C131.749 24.4806 131.319 24.4959 130.874 24.4959C130.813 24.4346 130.782 24.3272 130.782 24.1737C130.798 24.0203 130.828 23.9129 130.874 23.8516C130.966 23.8516 131.135 23.8439 131.381 23.8285C131.626 23.7979 131.856 23.7518 132.071 23.6905C132.301 23.6291 132.424 23.5601 132.439 23.4833C132.5 23.2992 132.531 23.0614 132.531 22.7699C132.547 22.4784 132.554 22.1639 132.554 21.8264V12.2299C132.554 11.8924 132.547 11.5779 132.531 11.2864C132.531 10.9795 132.5 10.734 132.439 10.5499C132.424 10.4579 132.301 10.3889 132.071 10.3428C131.856 10.2968 131.626 10.2661 131.381 10.2508C131.135 10.2201 130.966 10.2047 130.874 10.2047C130.828 10.1434 130.798 10.036 130.782 9.88256C130.782 9.72914 130.813 9.62175 130.874 9.56038C131.334 9.57572 131.787 9.59873 132.232 9.62942C132.677 9.64476 133.114 9.65243 133.544 9.65243Z" fill="#EFEFEF"/>
<path d="M148.117 9.65243C149.175 9.65243 150.341 9.62942 151.615 9.58339C152.888 9.53737 154.131 9.51435 155.343 9.51435C155.419 10.082 155.519 10.6036 155.642 11.0792C155.765 11.5549 155.88 12.0458 155.987 12.5521C155.91 12.6288 155.78 12.6672 155.596 12.6672C155.396 12.6672 155.289 12.6135 155.274 12.5061C155.028 11.6009 154.683 11.0255 154.238 10.7801C153.793 10.5346 153.272 10.4119 152.673 10.4119H150.74C150.648 10.4119 150.479 10.4195 150.234 10.4349C149.988 10.4349 149.758 10.4502 149.543 10.4809C149.329 10.5116 149.206 10.5653 149.175 10.642C149.129 10.7954 149.099 10.9949 149.083 11.2403C149.083 11.4858 149.083 11.739 149.083 11.9998C149.083 12.1072 149.083 12.1915 149.083 12.2529V16.4413C149.083 16.5027 149.183 16.541 149.382 16.5564C149.582 16.5717 149.804 16.5794 150.05 16.5794H151.223C151.76 16.5794 152.175 16.5641 152.466 16.5334C152.773 16.5027 152.995 16.4336 153.134 16.3262C153.272 16.2189 153.379 16.0578 153.456 15.843C153.532 15.6282 153.617 15.3367 153.709 14.9685C153.724 14.8611 153.832 14.8074 154.031 14.8074C154.215 14.8074 154.346 14.8457 154.422 14.9224V19.1569C154.361 19.2182 154.238 19.2489 154.054 19.2489C153.87 19.2489 153.755 19.1952 153.709 19.0878C153.601 18.6582 153.509 18.3514 153.433 18.1673C153.371 17.9679 153.31 17.8374 153.249 17.7761C153.203 17.6994 153.141 17.638 153.064 17.592C152.988 17.5306 152.811 17.4922 152.535 17.4769C152.259 17.4462 151.952 17.4309 151.615 17.4309C151.292 17.4155 150.986 17.4079 150.694 17.4079C150.495 17.4079 150.265 17.4155 150.004 17.4309C149.758 17.4309 149.543 17.4462 149.359 17.4769C149.175 17.4922 149.083 17.5383 149.083 17.615V21.8954C149.083 21.9261 149.083 21.9721 149.083 22.0335C149.083 22.2483 149.083 22.5245 149.083 22.862C149.099 23.1995 149.137 23.3913 149.198 23.4373C149.352 23.5447 149.536 23.6138 149.751 23.6444C149.981 23.6598 150.334 23.6674 150.809 23.6674H151.891C152.428 23.6674 152.957 23.6138 153.479 23.5064C154 23.399 154.415 23.2455 154.721 23.0461C155.074 22.8313 155.35 22.5245 155.55 22.1256C155.749 21.7113 155.941 21.2664 156.125 20.7908C156.156 20.6988 156.263 20.6527 156.447 20.6527C156.724 20.6527 156.908 20.6988 157 20.7908C156.785 21.4045 156.547 22.0565 156.286 22.7469C156.041 23.4373 155.88 24.028 155.803 24.5189C154.591 24.5189 153.387 24.5036 152.19 24.4729C150.993 24.4422 149.643 24.4269 148.14 24.4269C147.618 24.4269 147.15 24.4346 146.736 24.4499C146.322 24.4806 145.892 24.4959 145.447 24.4959C145.386 24.4346 145.355 24.3272 145.355 24.1737C145.37 24.0203 145.401 23.9129 145.447 23.8516C145.539 23.8516 145.708 23.8439 145.953 23.8285C146.199 23.7979 146.429 23.7518 146.644 23.6905C146.874 23.6291 146.997 23.5601 147.012 23.4833C147.073 23.2992 147.104 23.0614 147.104 22.7699C147.119 22.4784 147.127 22.1639 147.127 21.8264V12.2299C147.127 11.8924 147.119 11.5779 147.104 11.2864C147.104 10.9795 147.073 10.734 147.012 10.5499C146.997 10.4579 146.874 10.3889 146.644 10.3428C146.429 10.2968 146.199 10.2661 145.953 10.2508C145.708 10.2201 145.539 10.2047 145.447 10.2047C145.401 10.1434 145.37 10.036 145.355 9.88256C145.355 9.72914 145.386 9.62175 145.447 9.56038C145.907 9.57572 146.36 9.59873 146.805 9.62942C147.25 9.64476 147.687 9.65243 148.117 9.65243Z" fill="#EFEFEF"/>
<path d="M82.3928 0.242188L93.6117 24.406H73.1875L86.1324 2.83117" stroke="#EFEFEF" stroke-width="1.15066"/>
</svg>
