<svg width="178" height="38" viewBox="0 0 178 38" fill="none" xmlns="http://www.w3.org/2000/svg">
<path d="M161.286 0.796975C160.843 0.799101 160.34 0.843326 159.76 0.920549C159.602 1.94198 159.431 2.98339 159.263 4.04062C159.274 4.03645 159.283 4.03237 159.294 4.02829L159.867 5.45089C158.756 5.88667 158.075 6.31974 157.766 6.64088C157.456 6.96194 157.466 7.05251 157.531 7.26462C157.596 7.47665 157.873 7.85469 158.391 8.26343C158.908 8.67217 159.637 9.11323 160.488 9.55854L159.761 10.9112C159.299 10.6694 158.865 10.4265 158.464 10.1788C158.335 11.6809 158.271 13.1983 158.316 14.7208C161.043 15.1766 163.529 15.5007 167.114 13.9259C167.072 13.9441 167.187 13.8735 167.292 13.6344C167.397 13.3954 167.49 13.0316 167.539 12.6274C167.636 11.82 167.548 10.8382 167.332 10.2656L166.169 7.45666L166.008 5.38804L166.007 5.38055C165.97 4.74899 165.632 3.62244 165.128 2.70741C164.625 1.79238 163.924 1.14499 163.562 1.0676C162.732 0.890527 162.063 0.793318 161.286 0.796975ZM158.174 1.00126C152.543 1.64167 147.599 3.90089 144.682 10.4237C145.901 10.9822 148.514 11.4719 150.994 11.6406C152.332 11.7316 153.649 11.7473 154.729 11.6876C155.662 11.636 156.445 11.499 156.811 11.3844C156.855 10.6154 156.92 9.85357 156.997 9.09809C156.557 8.69224 156.213 8.24999 156.047 7.70976C155.83 7.00591 156.069 6.18069 156.642 5.58595C156.891 5.3274 157.193 5.09011 157.556 4.86499C157.76 3.54173 157.977 2.25062 158.174 1.00126ZM164.572 5.40845C164.992 6.64802 164.818 7.02011 164.176 8.2596L161.245 5.96194L164.572 5.40845ZM144.667 12.0861C144.956 13.9232 145.888 15.6113 147.838 16.8796C150.902 18.8096 153.974 19.4073 157.341 19.7726C156.866 17.4908 156.712 15.222 156.75 12.996C156.199 13.1164 155.557 13.175 154.816 13.2159C153.651 13.2803 152.282 13.2627 150.887 13.1678C148.617 13.0134 146.323 12.7024 144.667 12.0861ZM158.403 16.2789C158.517 17.6782 158.732 19.0786 159.086 20.4723L159.354 21.5239L158.26 21.4204C154.746 21.0881 151.356 20.5921 147.992 18.7508C147.334 19.6616 146.527 20.5422 145.396 21.2969L145.2 21.4281H137.445V24.6526H165.783C165.404 23.449 164.863 22.2878 164.087 21.1841C163.344 20.1285 162.767 19.0292 162.674 17.7954C162.644 17.3986 162.671 16.9946 162.755 16.5855C161.204 16.6822 159.791 16.5027 158.403 16.2789ZM137.445 26.1835V28.7349H166.547C166.469 27.8709 166.354 27.0189 166.18 26.1835H137.445ZM137.445 30.2658V32.3761C138.673 32.1205 140.117 31.9212 142.028 31.7586C142.383 31.7284 142.717 31.7147 143.032 31.717C143.975 31.7238 144.745 31.8751 145.382 32.1626C146.23 32.5458 146.798 33.1858 147.133 33.8608C147.637 34.8773 147.741 35.9708 147.883 36.7969H177.425C177.528 35.693 177.267 34.5903 176.058 33.7013C175.675 33.4192 175.098 33.1808 173.814 33.1379C172.53 33.0952 170.583 33.2714 167.648 33.8052L166.75 33.9687L166.732 33.0675C166.713 32.1267 166.694 31.1914 166.649 30.2658H137.445ZM143.017 33.2484C142.757 33.2463 142.473 33.2573 142.162 33.2838C140.111 33.4583 138.661 33.6609 137.445 33.9307V36.7969H146.279C146.119 35.9421 146.032 35.1235 145.74 34.5337C145.525 34.1001 145.255 33.7888 144.736 33.5546C144.347 33.3789 143.794 33.2548 143.017 33.2484Z" fill="#FFB200"/>
<path d="M0 36.6829V14.2852H15.431V19.2335H6.99927V23.7586H14.8124V28.121H6.99927V36.6829H0Z" fill="white"/>
<path d="M18.0895 36.6829V14.2852H33.8134V19.2335H26.0003V23.2052H33.1298V27.3071H26.0003V31.5718H33.8134V36.6829H18.0895Z" fill="white"/>
<path d="M36.7513 36.6829V14.2852H43.7831V31.5392H51.7264L51.4009 36.6829H36.7513Z" fill="white"/>
<path d="M54.2049 36.6829V14.2852H61.5623V36.6829H54.2049Z" fill="white"/>
<path d="M63.3508 36.6829L69.5687 25.5491L63.5461 14.2852H70.936L73.573 20.2753L76.2099 14.2852H83.73L77.6749 25.5491L83.9254 36.6829H76.4052L73.573 30.7905L70.7407 36.6829H63.3508Z" fill="white"/>
<path d="M92.4199 37.2037C91.0526 37.2037 89.6636 37.0301 88.2529 36.6829C86.8422 36.3573 85.6485 35.9124 84.6718 35.3481L85.8438 30.0417C87.1026 30.7145 88.2746 31.1594 89.3597 31.3764C90.4666 31.5718 91.4866 31.6694 92.4199 31.6694C93.288 31.6694 93.9391 31.5284 94.3732 31.2462C94.8289 30.9641 95.0568 30.5843 95.0568 30.1068C95.0568 29.6727 94.8072 29.3363 94.3081 29.0976C93.8089 28.8372 93.1578 28.5984 92.3548 28.3814C91.5735 28.1644 90.7379 27.9148 89.8481 27.6326C88.9582 27.3288 88.1118 26.9381 87.3088 26.4607C86.5275 25.9615 85.8872 25.3104 85.3881 24.5074C84.8889 23.6827 84.6393 22.6518 84.6393 21.4147C84.6393 19.8521 85.0191 18.5065 85.7787 17.3779C86.5383 16.2276 87.6235 15.3487 89.0342 14.741C90.4449 14.1116 92.1052 13.7969 94.0151 13.7969C95.2955 13.7969 96.5435 13.9705 97.7589 14.3177C98.9959 14.6433 99.9834 15.0882 100.721 15.6525L99.6145 20.438C98.5076 19.9823 97.5093 19.6567 96.6194 19.4614C95.7513 19.2444 94.9266 19.1359 94.1453 19.1359C93.2338 19.1359 92.5392 19.2661 92.0618 19.5265C91.5843 19.7869 91.3456 20.1342 91.3456 20.5683C91.3456 20.9806 91.5952 21.317 92.0943 21.5775C92.5935 21.8379 93.2337 22.0875 94.0151 22.3262C94.7964 22.565 95.6319 22.8362 96.5218 23.1401C97.4116 23.4439 98.2472 23.8454 99.0285 24.3446C99.8098 24.8438 100.45 25.4949 100.949 26.2979C101.448 27.1009 101.698 28.1101 101.698 29.3255C101.698 31.8431 100.873 33.7855 99.2238 35.1528C97.5961 36.5201 95.3281 37.2037 92.4199 37.2037Z" fill="white"/>
<path d="M103.927 36.6829V14.2526H111.512C115.202 14.2526 117.98 14.8603 119.846 16.0757C121.735 17.2694 122.679 19.0382 122.679 21.3821C122.679 23.0099 122.266 24.3989 121.442 25.5491C120.639 26.6777 119.499 27.5458 118.023 28.1535C116.548 28.7395 114.811 29.0325 112.815 29.0325H111.122V36.6829H103.927ZM112.522 24.5074C113.672 24.5074 114.562 24.2687 115.191 23.7912C115.821 23.3137 116.135 22.5975 116.135 21.6426C116.135 20.7527 115.831 20.0908 115.224 19.6567C114.616 19.201 113.737 18.9731 112.587 18.9731H111.122V24.5074H112.522Z" fill="white"/>
<path d="M125.005 36.6829V14.2852H132.363V36.6829H125.005Z" fill="white"/>
<path d="M135.942 36.6829V14.2852H142.452L151.242 26.1677V14.2852H157.232V36.6829H150.721L141.932 25.2887V36.6829H135.942Z" fill="white"/>
</svg>
