<svg width="159" height="40" viewBox="0 0 159 40" fill="none" xmlns="http://www.w3.org/2000/svg">
<path d="M27.7869 26.9446L30.2085 18.2059L22.7332 13.047L20.3116 21.7856L27.7869 26.9446ZM4.20299 35.4201L2.46578 34.5778C1.37783 34.1216 0.640837 33.3411 0.25479 32.2363C-0.131256 31.1315 -0.078613 30.0344 0.412719 28.945L4.20299 20.7328V35.4201ZM12.6258 40C11.4677 40 10.4766 39.5789 9.65256 38.7366C8.82853 37.8943 8.41581 36.8941 8.4144 35.7359V23.1543L14.0472 38.6313C14.1525 38.877 14.2402 39.1142 14.3104 39.343C14.3806 39.5718 14.5034 39.7908 14.6789 40H12.6258ZM23.4702 39.7368C22.3823 40.1228 21.2943 40.0702 20.2064 39.5789C19.1184 39.0875 18.3814 38.2979 17.9954 37.2099L8.67762 11.4677C8.29157 10.3797 8.34421 9.3002 8.83554 8.2291C9.32688 7.158 10.1165 6.43013 11.2045 6.04548L27.0499 0.25479C28.1379 -0.131256 29.2174 -0.078613 30.2885 0.412719C31.3596 0.90405 32.0875 1.69369 32.4721 2.78164L41.8425 28.5239C42.2285 29.6118 42.1759 30.6914 41.6846 31.7625C41.1932 32.8336 40.4036 33.5615 39.3156 33.9461L23.4702 39.7368Z" fill="#FEC330"/>
<path d="M59.869 34.2511H63.235C63.1674 35.365 62.8635 36.3538 62.3231 37.2176C61.7903 38.0814 61.0435 38.7558 60.0829 39.2408C59.1298 39.7257 57.9815 39.9682 56.6382 39.9682C55.5875 39.9682 54.6456 39.7864 53.8126 39.4226C52.9795 39.0513 52.2666 38.5209 51.6737 37.8314C51.0883 37.1419 50.6418 36.3083 50.3341 35.3309C50.0264 34.3534 49.8725 33.2585 49.8725 32.0461V30.8981C49.8725 29.6857 50.0301 28.5908 50.3453 27.6133C50.668 26.6283 51.1258 25.791 51.7187 25.1014C52.3191 24.4119 53.0358 23.8815 53.8689 23.5102C54.7019 23.1389 55.6325 22.9533 56.6607 22.9533C58.0266 22.9533 59.1786 23.2033 60.1167 23.7034C61.0623 24.2035 61.794 24.8931 62.3119 25.772C62.8372 26.651 63.1524 27.6512 63.2575 28.7727H59.8803C59.8428 28.1059 59.7114 27.5413 59.4863 27.0791C59.2611 26.6093 58.9197 26.257 58.4619 26.0221C58.0116 25.7796 57.4112 25.6584 56.6607 25.6584C56.0978 25.6584 55.6062 25.7645 55.186 25.9766C54.7657 26.1888 54.413 26.5108 54.1278 26.9427C53.8426 27.3746 53.6287 27.9202 53.4861 28.5794C53.351 29.2311 53.2835 29.9964 53.2835 30.8754V32.0461C53.2835 32.9023 53.3473 33.6563 53.4749 34.3079C53.6024 34.952 53.7976 35.4976 54.0602 35.9446C54.3304 36.3841 54.6756 36.7175 55.0959 36.9448C55.5237 37.1646 56.0378 37.2745 56.6382 37.2745C57.3436 37.2745 57.9253 37.1608 58.3831 36.9335C58.8409 36.7062 59.1898 36.369 59.43 35.9219C59.6777 35.4748 59.824 34.9179 59.869 34.2511Z" fill="white"/>
<path d="M72.117 26.0221L67.6591 39.7409H64.068L70.1582 23.1919H72.4435L72.117 26.0221ZM75.8207 39.7409L71.3515 26.0221L70.9913 23.1919H73.299L79.423 39.7409H75.8207ZM75.6181 33.5805V36.2515H66.9612V33.5805H75.6181Z" fill="white"/>
<path d="M89.4759 35.4104C89.4759 35.1149 89.4308 34.8497 89.3408 34.6148C89.2582 34.3723 89.1006 34.1526 88.868 33.9556C88.6353 33.751 88.3088 33.5502 87.8886 33.3532C87.4683 33.1562 86.9242 32.9516 86.2563 32.7394C85.5133 32.4969 84.8078 32.2241 84.1399 31.9211C83.4794 31.618 82.8941 31.2656 82.3837 30.864C81.8809 30.4548 81.4831 29.9813 81.1904 29.4433C80.9053 28.9053 80.7627 28.2801 80.7627 27.5679C80.7627 26.8783 80.9128 26.2532 81.213 25.6925C81.5132 25.1242 81.9334 24.6392 82.4738 24.2376C83.0141 23.8284 83.6521 23.514 84.3875 23.2942C85.1305 23.0745 85.9448 22.9646 86.8304 22.9646C88.0387 22.9646 89.0931 23.1844 89.9937 23.6238C90.8943 24.0633 91.5922 24.6657 92.0876 25.431C92.5904 26.1964 92.8418 27.0715 92.8418 28.0566H89.4871C89.4871 27.5717 89.3858 27.1473 89.1832 26.7836C88.988 26.4123 88.6878 26.1206 88.2826 25.9084C87.8848 25.6963 87.382 25.5902 86.7741 25.5902C86.1887 25.5902 85.7009 25.6811 85.3106 25.863C84.9204 26.0372 84.6277 26.2759 84.4326 26.579C84.2374 26.8745 84.1399 27.2079 84.1399 27.5792C84.1399 27.8596 84.2074 28.1134 84.3425 28.3408C84.4851 28.5681 84.6952 28.7802 84.9729 28.9773C85.2506 29.1743 85.5921 29.3599 85.9973 29.5342C86.4026 29.7085 86.8717 29.879 87.4045 30.0457C88.2976 30.3184 89.0818 30.6253 89.7573 30.9663C90.4402 31.3073 91.0106 31.6899 91.4684 32.1143C91.9262 32.5386 92.2714 33.0198 92.5041 33.5578C92.7367 34.0958 92.8531 34.7057 92.8531 35.3877C92.8531 36.1075 92.7142 36.7516 92.4365 37.3199C92.1589 37.8882 91.7573 38.3694 91.232 38.7634C90.7067 39.1574 90.08 39.4567 89.352 39.6613C88.624 39.8659 87.8098 39.9682 86.9092 39.9682C86.0986 39.9682 85.2994 39.8621 84.5114 39.65C83.7234 39.4302 83.0066 39.1006 82.3612 38.6611C81.7233 38.2216 81.213 37.6609 80.8302 36.9789C80.4475 36.297 80.2561 35.49 80.2561 34.558H83.6445C83.6445 35.0732 83.7234 35.5089 83.881 35.8651C84.0386 36.2212 84.26 36.5091 84.5451 36.7289C84.8378 36.9486 85.1831 37.1078 85.5808 37.2063C85.9861 37.3048 86.4289 37.354 86.9092 37.354C87.4946 37.354 87.9749 37.2707 88.3501 37.104C88.7329 36.9373 89.0143 36.7062 89.1944 36.4106C89.382 36.1151 89.4759 35.7817 89.4759 35.4104Z" fill="white"/>
<path d="M98.7406 23.1919V39.7409H95.3747V23.1919H98.7406Z" fill="white"/>
<path d="M115.244 23.1919V39.7409H111.867L105.281 28.6476V39.7409H101.904V23.1919H105.281L111.878 34.2966V23.1919H115.244Z" fill="white"/>
<path d="M131.646 31.08V31.8642C131.646 33.1221 131.477 34.2511 131.139 35.2513C130.802 36.2515 130.325 37.104 129.71 37.8087C129.094 38.5058 128.359 39.04 127.503 39.4113C126.655 39.7826 125.713 39.9682 124.678 39.9682C123.649 39.9682 122.708 39.7826 121.852 39.4113C121.004 39.04 120.268 38.5058 119.646 37.8087C119.023 37.104 118.539 36.2515 118.193 35.2513C117.856 34.2511 117.687 33.1221 117.687 31.8642V31.08C117.687 29.8145 117.856 28.6855 118.193 27.6929C118.531 26.6927 119.008 25.8402 119.623 25.1355C120.246 24.4308 120.981 23.8928 121.829 23.5216C122.685 23.1503 123.627 22.9646 124.655 22.9646C125.691 22.9646 126.633 23.1503 127.481 23.5216C128.336 23.8928 129.072 24.4308 129.687 25.1355C130.31 25.8402 130.79 26.6927 131.128 27.6929C131.473 28.6855 131.646 29.8145 131.646 31.08ZM128.235 31.8642V31.0572C128.235 30.1783 128.156 29.4054 127.999 28.7386C127.841 28.0718 127.608 27.511 127.301 27.0564C126.993 26.6018 126.618 26.2608 126.175 26.0334C125.732 25.7985 125.225 25.6811 124.655 25.6811C124.085 25.6811 123.578 25.7985 123.135 26.0334C122.7 26.2608 122.329 26.6018 122.021 27.0564C121.721 27.511 121.492 28.0718 121.334 28.7386C121.177 29.4054 121.098 30.1783 121.098 31.0572V31.8642C121.098 32.7356 121.177 33.5085 121.334 34.1829C121.492 34.8497 121.724 35.4142 122.032 35.8764C122.34 36.3311 122.715 36.6758 123.158 36.9107C123.601 37.1456 124.107 37.2631 124.678 37.2631C125.248 37.2631 125.755 37.1456 126.197 36.9107C126.64 36.6758 127.012 36.3311 127.312 35.8764C127.612 35.4142 127.841 34.8497 127.999 34.1829C128.156 33.5085 128.235 32.7356 128.235 31.8642Z" fill="white"/>
<path d="M58.8634 12.5515C58.8634 12.2558 58.8183 11.9904 58.728 11.7553C58.6452 11.5127 58.4872 11.2928 58.2539 11.0956C58.0206 10.8909 57.6933 10.69 57.2718 10.4928C56.8504 10.2957 56.3048 10.091 55.6351 9.87867C54.8901 9.63603 54.1827 9.36306 53.5129 9.05976C52.8507 8.75647 52.2637 8.40388 51.752 8.00202C51.2478 7.59257 50.8489 7.11866 50.5555 6.58031C50.2695 6.04196 50.1265 5.41641 50.1265 4.70366C50.1265 4.01366 50.277 3.38811 50.578 2.82701C50.879 2.25833 51.3005 1.77306 51.8423 1.37119C52.3841 0.961737 53.0238 0.647067 53.7613 0.427176C54.5063 0.207286 55.3228 0.097341 56.2108 0.097341C57.4223 0.097341 58.4797 0.317231 59.3827 0.757012C60.2857 1.19679 60.9856 1.79959 61.4823 2.56542C61.9865 3.33124 62.2386 4.20701 62.2386 5.19273H58.8747C58.8747 4.70745 58.7731 4.28284 58.57 3.91888C58.3743 3.54734 58.0733 3.25542 57.6669 3.04311C57.2681 2.8308 56.7639 2.72465 56.1543 2.72465C55.5673 2.72465 55.0782 2.81564 54.6869 2.99762C54.2956 3.17201 54.0021 3.41086 53.8064 3.71416C53.6107 4.00987 53.5129 4.3435 53.5129 4.71504C53.5129 4.99559 53.5806 5.2496 53.7161 5.47707C53.8591 5.70454 54.0698 5.91685 54.3482 6.11399C54.6267 6.31114 54.9691 6.49691 55.3754 6.6713C55.7818 6.8457 56.2522 7.0163 56.7865 7.18312C57.682 7.45608 58.4684 7.76317 59.1456 8.10438C59.8305 8.44559 60.4024 8.8285 60.8614 9.25312C61.3205 9.67773 61.6666 10.1592 61.8999 10.6976C62.1332 11.2359 62.2499 11.8463 62.2499 12.5287C62.2499 13.2491 62.1106 13.8936 61.8322 14.4622C61.5538 15.0309 61.1512 15.5124 60.6244 15.9067C60.0976 16.301 59.4692 16.6005 58.7393 16.8052C58.0093 17.0099 57.1928 17.1123 56.2898 17.1123C55.477 17.1123 54.6756 17.0061 53.8854 16.7938C53.0953 16.5739 52.3766 16.2441 51.7294 15.8043C51.0898 15.3645 50.578 14.8034 50.1942 14.121C49.8104 13.4386 49.6185 12.6311 49.6185 11.6984H53.0162C53.0162 12.2141 53.0953 12.65 53.2533 13.0064C53.4113 13.3628 53.6333 13.6509 53.9193 13.8708C54.2128 14.0907 54.5589 14.2499 54.9578 14.3485C55.3642 14.4471 55.8082 14.4964 56.2898 14.4964C56.8768 14.4964 57.3584 14.413 57.7346 14.2461C58.1184 14.0793 58.4006 13.8481 58.5812 13.5524C58.7694 13.2566 58.8634 12.923 58.8634 12.5515Z" fill="#FEC330"/>
<path d="M75.1182 14.2234V16.8848H66.8441V14.2234H75.1182ZM67.939 0.324814V16.8848H64.5526V0.324814H67.939Z" fill="#FEC330"/>
<path d="M89.8152 8.21812V9.0029C89.8152 10.2616 89.6459 11.3914 89.3073 12.3922C88.9686 13.3931 88.4908 14.2461 87.8737 14.9513C87.2566 15.6489 86.5191 16.1834 85.6613 16.555C84.8109 16.9265 83.8665 17.1123 82.828 17.1123C81.797 17.1123 80.8525 16.9265 79.9947 16.555C79.1443 16.1834 78.4068 15.6489 77.7822 14.9513C77.1576 14.2461 76.6722 13.3931 76.326 12.3922C75.9874 11.3914 75.8181 10.2616 75.8181 9.0029V8.21812C75.8181 6.95185 75.9874 5.82207 76.326 4.82877C76.6647 3.82789 77.1425 2.97487 77.7596 2.26971C78.3842 1.56454 79.1217 1.02619 79.9721 0.654649C80.83 0.28311 81.7744 0.097341 82.8054 0.097341C83.8439 0.097341 84.7883 0.28311 85.6387 0.654649C86.4966 1.02619 87.234 1.56454 87.8511 2.26971C88.4757 2.97487 88.9574 3.82789 89.296 4.82877C89.6422 5.82207 89.8152 6.95185 89.8152 8.21812ZM86.395 9.0029V8.19537C86.395 7.31581 86.316 6.5424 86.1579 5.87515C85.9999 5.20789 85.7666 4.64679 85.4581 4.19185C85.1495 3.7369 84.7733 3.39569 84.3293 3.16822C83.8853 2.93317 83.3773 2.81564 82.8054 2.81564C82.2335 2.81564 81.7255 2.93317 81.2815 3.16822C80.845 3.39569 80.4725 3.7369 80.164 4.19185C79.863 4.64679 79.6334 5.20789 79.4754 5.87515C79.3174 6.5424 79.2384 7.31581 79.2384 8.19537V9.0029C79.2384 9.87488 79.3174 10.6483 79.4754 11.3231C79.6334 11.9904 79.8667 12.5553 80.1753 13.0178C80.4838 13.4727 80.8601 13.8177 81.3041 14.0528C81.7481 14.2878 82.256 14.4054 82.828 14.4054C83.3999 14.4054 83.9078 14.2878 84.3518 14.0528C84.7958 13.8177 85.1683 13.4727 85.4694 13.0178C85.7704 12.5553 85.9999 11.9904 86.1579 11.3231C86.316 10.6483 86.395 9.87488 86.395 9.0029Z" fill="#FEC330"/>
<path d="M98.8344 0.324814V16.8848H95.4593V0.324814H98.8344ZM103.891 0.324814V2.99762H90.4812V0.324814H103.891Z" fill="#FEC330"/>
<path d="M121.535 14.2234V16.8848H113.26V14.2234H121.535ZM114.355 0.324814V16.8848H110.969V0.324814H114.355Z" fill="#FEC330"/>
<path d="M130.384 3.15685L125.914 16.8848H122.314L128.42 0.324814H130.712L130.384 3.15685ZM134.098 16.8848L129.617 3.15685L129.256 0.324814H131.57L137.71 16.8848H134.098ZM133.895 10.7203V13.3931H125.215V10.7203H133.895Z" fill="#FEC330"/>
<path d="M142.835 0.324814V16.8848H139.46V0.324814H142.835Z" fill="#FEC330"/>
<path d="M146.007 0.324814H152.137C153.393 0.324814 154.473 0.514374 155.376 0.893495C156.287 1.27262 156.987 1.83372 157.476 2.57679C157.965 3.31987 158.209 4.23355 158.209 5.31784C158.209 6.20498 158.059 6.96702 157.758 7.60394C157.464 8.23328 157.047 8.76026 156.505 9.18487C155.971 9.60191 155.342 9.93553 154.62 10.1858L153.548 10.7544H148.22L148.197 8.09301H152.159C152.754 8.09301 153.246 7.98685 153.638 7.77454C154.029 7.56224 154.323 7.26652 154.518 6.8874C154.721 6.50828 154.823 6.0685 154.823 5.56806C154.823 5.03729 154.725 4.57855 154.53 4.19185C154.334 3.80515 154.037 3.50943 153.638 3.30471C153.239 3.09998 152.739 2.99762 152.137 2.99762H149.393V16.8848H146.007V0.324814ZM155.196 16.8848L151.448 9.50334L155.026 9.48059L158.819 16.7256V16.8848H155.196Z" fill="#FEC330"/>
</svg>
