<svg width="129" height="15" viewBox="0 0 129 15" fill="none" xmlns="http://www.w3.org/2000/svg">
<path d="M5.89311 15.0098C4.75957 15.0098 3.66468 14.8821 2.60843 14.6268C1.88977 14.453 1.25757 14.2438 0.711834 13.9991C0.294216 13.8118 0.140184 13.3163 0.326514 12.8982L1.06036 11.2519C1.27865 10.7621 1.87223 10.5717 2.36368 10.786C2.7581 10.9581 3.17459 11.1083 3.61315 11.2365C4.41178 11.4536 5.18465 11.5622 5.93176 11.5622C6.36971 11.5622 6.71106 11.5366 6.95581 11.4855C7.21343 11.4217 7.4002 11.3387 7.51613 11.2365C7.63206 11.1216 7.69003 10.9875 7.69003 10.8343C7.69003 10.5917 7.55478 10.4002 7.28427 10.2597C7.01377 10.1192 6.6531 10.0043 6.20226 9.91493C5.7643 9.81277 5.28126 9.71062 4.75313 9.60847C4.22501 9.49354 3.69044 9.3467 3.14943 9.16793C2.62131 8.98916 2.13183 8.75293 1.68099 8.45924C1.24303 8.16555 0.888797 7.78247 0.618294 7.31001C0.34779 6.82478 0.212538 6.22463 0.212538 5.50955C0.212538 4.67956 0.444399 3.92617 0.908119 3.24941C1.38472 2.55987 2.08674 2.01079 3.01418 1.60218C3.9545 1.19357 5.12025 0.989258 6.51141 0.989258C7.42597 0.989258 8.32765 1.08503 9.21644 1.27656C9.81429 1.4054 10.3713 1.58046 10.8876 1.80174C11.3105 1.98302 11.478 2.47831 11.3003 2.90273L10.6129 4.54386C10.4112 5.02548 9.84603 5.23231 9.36053 5.04012C8.99737 4.89636 8.64019 4.7783 8.289 4.68594C7.67071 4.51994 7.0653 4.43694 6.47276 4.43694C6.03481 4.43694 5.68702 4.47525 5.42939 4.55186C5.17177 4.62848 4.98499 4.73063 4.86906 4.85833C4.76601 4.98602 4.71449 5.12648 4.71449 5.27971C4.71449 5.50955 4.84974 5.69471 5.12025 5.83517C5.39075 5.96286 5.74498 6.0714 6.18294 6.16078C6.63378 6.25017 7.12326 6.34594 7.65139 6.44809C8.19239 6.55024 8.72696 6.6907 9.25509 6.86947C9.78321 7.04824 10.2663 7.28447 10.7042 7.57816C11.1551 7.87186 11.5157 8.25493 11.7862 8.72739C12.0567 9.19985 12.192 9.78724 12.192 10.4895C12.192 11.3068 11.9537 12.0602 11.4771 12.7497C11.0134 13.4265 10.3178 13.9755 9.39034 14.3969C8.4629 14.8055 7.29716 15.0098 5.89311 15.0098Z" fill="white"/>
<path d="M14.4534 14.7034C13.9539 14.7034 13.5489 14.2984 13.5489 13.7988V2.20027C13.5489 1.7007 13.9539 1.29572 14.4534 1.29572H20.0603C21.3226 1.29572 22.4111 1.50003 23.3256 1.90864C24.2531 2.31725 24.968 2.90464 25.4704 3.67079C25.9727 4.42417 26.2239 5.31802 26.2239 6.35232C26.2239 7.38663 25.9727 8.28047 25.4704 9.03385C24.968 9.78724 24.2531 10.3746 23.3256 10.796C22.4111 11.2046 21.3226 11.4089 20.0603 11.4089H17.5288C17.0054 11.4089 16.7497 10.7703 17.1285 10.4091C17.4977 10.0571 18.1088 10.3188 18.1088 10.8289V13.7988C18.1088 14.2984 17.7038 14.7034 17.2042 14.7034H14.4534ZM18.1088 8.52016C18.1088 9.05369 17.4625 9.31948 17.0871 8.94031C16.7138 8.56322 16.981 7.92293 17.5116 7.92293H19.7705C20.4016 7.92293 20.8654 7.78247 21.1616 7.50155C21.4708 7.22063 21.6253 6.83755 21.6253 6.35232C21.6253 5.86709 21.4708 5.48402 21.1616 5.20309C20.8654 4.92217 20.4016 4.78171 19.7705 4.78171H17.5116C16.981 4.78171 16.7138 4.14143 17.0871 3.76433C17.4625 3.38516 18.1088 3.65095 18.1088 4.18448V8.52016Z" fill="white"/>
<path d="M28.6239 14.7034C28.1243 14.7034 27.7194 14.2984 27.7194 13.7988V2.20027C27.7194 1.7007 28.1243 1.29572 28.6239 1.29572H31.3747C31.8743 1.29572 32.2793 1.7007 32.2793 2.20027V13.7988C32.2793 14.2984 31.8743 14.7034 31.3747 14.7034H28.6239Z" fill="white"/>
<path d="M35.379 14.7034C34.8794 14.7034 34.4744 14.2984 34.4744 13.7988V2.20027C34.4744 1.7007 34.8794 1.29572 35.379 1.29572H37.8023C38.0689 1.29572 38.322 1.41337 38.4939 1.61725L44.3362 8.54764C44.6388 8.90651 44.3836 9.45524 43.9143 9.45524C43.6095 9.45524 43.3624 9.20815 43.3624 8.90335V2.20027C43.3624 1.7007 43.7674 1.29572 44.2669 1.29572H46.9018C47.4014 1.29572 47.8064 1.7007 47.8064 2.20027V13.7988C47.8064 14.2984 47.4014 14.7034 46.9018 14.7034H44.4785C44.2118 14.7034 43.9588 14.5857 43.7869 14.3818L37.9446 7.45146C37.642 7.09258 37.8971 6.54386 38.3665 6.54386C38.6713 6.54386 38.9184 6.79095 38.9184 7.09575V13.7988C38.9184 14.2984 38.5134 14.7034 38.0138 14.7034H35.379Z" fill="white"/>
<path d="M50.908 14.7034C50.4084 14.7034 50.0035 14.2984 50.0035 13.7988V2.20027C50.0035 1.7007 50.4084 1.29572 50.908 1.29572H53.2476C53.561 1.29572 53.8522 1.45804 54.017 1.7247L58.6399 9.20446C58.8679 9.57322 58.6026 10.049 58.1691 10.049C57.7388 10.049 57.473 9.57948 57.6945 9.21054L62.1831 1.73465C62.3466 1.46233 62.6409 1.29572 62.9586 1.29572H65.2931C65.7916 1.29572 66.1962 1.69911 66.1976 2.19766L66.231 13.7962C66.2325 14.2968 65.8271 14.7034 65.3265 14.7034H62.9792C62.4815 14.7034 62.0774 14.3013 62.0747 13.8037L62.0421 7.73992C62.0414 7.60848 62.1478 7.50155 62.2792 7.50155C62.4635 7.50155 62.5773 7.70252 62.4826 7.86055L59.3674 13.0572C59.204 13.3298 58.9094 13.4967 58.5916 13.4967H57.5958C57.2839 13.4967 56.9941 13.3361 56.8288 13.0717L53.6229 7.94429C53.5024 7.75157 53.641 7.50155 53.8683 7.50155C54.0281 7.50155 54.1576 7.63109 54.1576 7.7909V13.7988C54.1576 14.2984 53.7526 14.7034 53.2531 14.7034H50.908Z" fill="#FDB70A"/>
<path d="M68.3573 14.7034C67.7039 14.7034 67.266 14.0318 67.5297 13.4338L72.6444 1.8353C72.789 1.50735 73.1136 1.29572 73.472 1.29572H76.7752C77.1336 1.29572 77.4582 1.50735 77.6029 1.8353L82.7175 13.4339C82.9812 14.0318 82.5433 14.7034 81.8899 14.7034H79.1823C78.8089 14.7034 78.4739 14.474 78.3389 14.1258L74.5175 4.26963C74.3628 3.87072 74.6571 3.44094 75.085 3.44094C75.5128 3.44094 75.8071 3.87072 75.6525 4.26963L71.831 14.1258C71.696 14.474 71.361 14.7034 70.9876 14.7034H68.3573ZM71.7686 12.3666C71.1435 12.3666 70.7068 11.7476 70.9165 11.1587L71.4317 9.71162C71.56 9.35118 71.9012 9.11047 72.2838 9.11047H77.2292C77.6118 9.11047 77.953 9.35118 78.0813 9.71162L78.5965 11.1587C78.8062 11.7476 78.3695 12.3666 77.7444 12.3666H71.7686Z" fill="#FDB70A"/>
<path d="M90.8109 15.0098C89.7288 15.0098 88.7241 14.8438 87.7967 14.5118C86.8821 14.1671 86.0835 13.6818 85.4008 13.0562C84.731 12.4305 84.2093 11.6898 83.8357 10.8343C83.4622 9.97877 83.2754 9.03385 83.2754 7.99955C83.2754 6.96524 83.4622 6.02032 83.8357 5.16479C84.2093 4.30925 84.731 3.56864 85.4008 2.94295C86.0835 2.31725 86.8821 1.83841 87.7967 1.50641C88.7241 1.16164 89.7288 0.989258 90.8109 0.989258C92.1376 0.989258 93.3098 1.2191 94.3274 1.67879C95.0905 2.01919 95.7547 2.47162 96.32 3.03608C96.6568 3.37237 96.601 3.91576 96.2446 4.23116L94.71 5.589C94.323 5.93147 93.7348 5.8702 93.3408 5.53574C93.1262 5.35358 92.9012 5.198 92.6657 5.06902C92.1891 4.78809 91.6481 4.64763 91.0427 4.64763C90.5661 4.64763 90.1346 4.72425 89.7482 4.87748C89.3617 5.03071 89.0268 5.25417 88.7434 5.54786C88.4729 5.84155 88.2604 6.19909 88.1058 6.62047C87.9512 7.02909 87.874 7.48878 87.874 7.99955C87.874 8.51031 87.9512 8.97639 88.1058 9.39778C88.2604 9.80639 88.4729 10.1575 88.7434 10.4512C89.0268 10.7449 89.3617 10.9684 89.7482 11.1216C90.1346 11.2748 90.5661 11.3515 91.0427 11.3515C91.6481 11.3515 92.1891 11.2174 92.6657 10.9492C92.9022 10.8135 93.1281 10.6525 93.3435 10.4662C93.7343 10.128 94.323 10.0676 94.71 10.4101L96.24 11.7639C96.5983 12.081 96.6522 12.6278 96.3117 12.9638C95.7482 13.52 95.0867 13.9722 94.3274 14.3203C93.3098 14.78 92.1376 15.0098 90.8109 15.0098Z" fill="#FDB70A"/>
<path d="M106.966 2.20027C106.966 1.7007 107.371 1.29572 107.871 1.29572H110.622C111.121 1.29572 111.526 1.7007 111.526 2.20027V13.7988C111.526 14.2984 111.121 14.7034 110.622 14.7034H107.871C107.371 14.7034 106.966 14.2984 106.966 13.7988V2.20027ZM102.754 13.7988C102.754 14.2984 102.349 14.7034 101.85 14.7034H99.099C98.5994 14.7034 98.1945 14.2984 98.1945 13.7988V2.20027C98.1945 1.7007 98.5994 1.29572 99.099 1.29572H101.85C102.349 1.29572 102.754 1.7007 102.754 2.20027V13.7988ZM107.276 8.85714C107.276 9.35671 106.871 9.7617 106.371 9.7617H103.35C102.85 9.7617 102.445 9.35671 102.445 8.85714V6.95041C102.445 6.45084 102.85 6.04586 103.35 6.04586H106.371C106.871 6.04586 107.276 6.45084 107.276 6.95041V8.85714Z" fill="#FDB70A"/>
<path d="M120.815 15.0098C119.72 15.0098 118.702 14.8375 117.762 14.4927C116.834 14.1479 116.029 13.6627 115.347 13.037C114.664 12.3985 114.129 11.6515 113.743 10.796C113.369 9.94047 113.182 9.00831 113.182 7.99955C113.182 6.97801 113.369 6.04586 113.743 5.20309C114.129 4.34756 114.664 3.60694 115.347 2.98125C116.029 2.34279 116.834 1.85118 117.762 1.50641C118.702 1.16164 119.72 0.989258 120.815 0.989258C121.922 0.989258 122.94 1.16164 123.867 1.50641C124.795 1.85118 125.6 2.34279 126.283 2.98125C126.965 3.60694 127.493 4.34756 127.867 5.20309C128.253 6.04586 128.447 6.97801 128.447 7.99955C128.447 9.00831 128.253 9.94047 127.867 10.796C127.493 11.6515 126.965 12.3985 126.283 13.037C125.6 13.6627 124.795 14.1479 123.867 14.4927C122.94 14.8375 121.922 15.0098 120.815 15.0098ZM120.815 11.3515C121.24 11.3515 121.632 11.2748 121.993 11.1216C122.367 10.9684 122.689 10.7513 122.959 10.4704C123.243 10.1767 123.462 9.82554 123.616 9.41693C123.771 8.99554 123.848 8.52308 123.848 7.99955C123.848 7.47601 123.771 7.00993 123.616 6.60132C123.462 6.17994 123.243 5.82878 122.959 5.54786C122.689 5.25417 122.367 5.03071 121.993 4.87748C121.632 4.72425 121.24 4.64763 120.815 4.64763C120.389 4.64763 119.99 4.72425 119.617 4.87748C119.256 5.03071 118.934 5.25417 118.651 5.54786C118.38 5.82878 118.167 6.17994 118.013 6.60132C117.858 7.00993 117.781 7.47601 117.781 7.99955C117.781 8.52308 117.858 8.99554 118.013 9.41693C118.167 9.82554 118.38 10.1767 118.651 10.4704C118.934 10.7513 119.256 10.9684 119.617 11.1216C119.99 11.2748 120.389 11.3515 120.815 11.3515Z" fill="#FDB70A"/>
</svg>
