<svg width="228" height="42" viewBox="0 0 228 42" fill="none" xmlns="http://www.w3.org/2000/svg">
<path d="M65.7198 3.0599C65.9186 2.96368 66.0845 2.81095 66.1965 2.62108C66.3085 2.43121 66.3616 2.21275 66.3489 1.99342C66.3363 1.77409 66.2585 1.56377 66.1255 1.38913C65.9925 1.21449 65.8102 1.08339 65.6017 1.01248C65.3933 0.941562 65.1681 0.934017 64.9547 0.9908C64.7414 1.04758 64.5494 1.16614 64.4032 1.33142C64.257 1.49671 64.1632 1.70128 64.1336 1.9192C64.104 2.13711 64.1401 2.35855 64.2371 2.55542C64.3664 2.81778 64.5948 3.01805 64.8726 3.11255C65.1504 3.20706 65.4549 3.18813 65.7198 3.0599ZM78.79 5.24712C77.9922 5.89552 77.2635 6.62403 76.6153 7.42102C75.8338 8.41203 75.1631 9.48471 74.615 10.6199C73.6038 10.1602 72.6461 9.59225 71.759 8.92597C70.2912 7.75648 68.9103 6.48282 67.627 5.11486C67.5059 4.98563 67.3448 4.90045 67.1693 4.87274C66.9937 4.84503 66.8136 4.87637 66.6573 4.96183C66.4943 5.03373 66.3598 5.1575 66.2748 5.31362C66.1898 5.46975 66.1593 5.64935 66.188 5.82411C66.493 7.67486 66.6621 9.54596 66.6939 11.4225C66.6836 12.5299 66.5496 13.6332 66.2944 14.7122C65.06 14.4653 63.8027 14.3464 62.5425 14.3575C61.5385 14.3821 60.539 14.5057 59.5585 14.7263C59.4131 14.7593 59.2796 14.8321 59.173 14.9365C59.0665 15.0408 58.9911 15.1725 58.9554 15.3169C58.9198 15.4653 58.9276 15.6206 58.9778 15.7643C59.0281 15.9081 59.1187 16.0343 59.2389 16.128C62.1233 18.5401 64.6888 21.3066 66.8746 24.3622C66.9864 24.5157 67.1499 24.6241 67.3354 24.6679C67.5209 24.7117 67.7164 24.6879 67.8866 24.601L74.615 16.2431L80.3107 18.8731C80.4833 18.7911 80.6212 18.6505 80.6995 18.4767C80.7777 18.3029 80.7913 18.1072 80.7377 17.925C79.6456 14.3304 80.2598 9.60063 80.1036 5.84386C80.1025 5.69142 80.0576 5.54269 79.9742 5.41528C79.8908 5.28787 79.7724 5.1871 79.633 5.1249C79.4955 5.06436 79.3436 5.04371 79.1945 5.06533C79.0454 5.08694 78.9052 5.14995 78.79 5.24712ZM68.3926 21.4366C68.235 21.516 68.0576 21.5471 67.8827 21.5259C67.7079 21.5048 67.5436 21.4324 67.4106 21.3178C67.2777 21.2032 67.182 21.0518 67.1359 20.8825C67.0898 20.7133 67.0953 20.534 67.1516 20.3674C67.2079 20.2008 67.3126 20.0544 67.4523 19.9467C67.5921 19.839 67.7605 19.775 67.9364 19.7627C68.1122 19.7505 68.2875 19.7905 68.44 19.8777C68.5925 19.965 68.7153 20.0955 68.7928 20.2528C68.896 20.4621 68.9118 20.7038 68.8368 20.9255C68.7619 21.1472 68.6022 21.3309 68.3926 21.4366ZM73.5368 18.901C73.3298 18.9798 73.1011 18.979 72.8954 18.8988C72.6897 18.8185 72.5218 18.6647 72.4245 18.4672C72.3271 18.2698 72.3074 18.0429 72.369 17.8309C72.4307 17.6189 72.5694 17.437 72.7579 17.3208C72.965 17.242 73.1937 17.2428 73.3994 17.323C73.605 17.4033 73.7729 17.5571 73.8703 17.7546C73.9676 17.9521 73.9874 18.1789 73.9257 18.3909C73.864 18.6029 73.7254 18.7848 73.5368 18.901ZM78.6882 16.3619C78.5307 16.4413 78.3532 16.4724 78.1784 16.4512C78.0036 16.4301 77.8392 16.3577 77.7063 16.2431C77.5733 16.1285 77.4777 15.9771 77.4316 15.8078C77.3855 15.6386 77.3909 15.4593 77.4472 15.2927C77.5036 15.1261 77.6082 14.9797 77.748 14.872C77.8877 14.7643 78.0562 14.7003 78.232 14.688C78.4079 14.6758 78.5832 14.7158 78.7357 14.803C78.8881 14.8903 79.0109 15.0208 79.0885 15.1781C79.1916 15.3874 78.8417 15.8148 78.7668 16.0365C78.6918 16.2582 78.8979 16.2562 78.6882 16.3619Z" fill="white"/>
<path d="M57.9206 14.6021C57.8086 14.792 57.6427 14.9447 57.4439 15.0409C57.179 15.1692 56.8745 15.1881 56.5967 15.0936C56.3189 14.9991 56.0905 14.7988 55.9612 14.5364C55.8641 14.3396 55.8281 14.1181 55.8577 13.9002C55.8873 13.6823 55.9811 13.4777 56.1273 13.3124C56.2735 13.1472 56.4654 13.0286 56.6788 12.9718C56.8922 12.915 57.1174 12.9226 57.3258 12.9935C57.5343 13.0644 57.7165 13.1955 57.8496 13.3702C57.9826 13.5448 58.0604 13.7551 58.073 13.9744C58.0857 14.1938 58.0326 14.4122 57.9206 14.6021Z" fill="white"/>
<path d="M80.8623 3.29418C80.7503 3.48405 80.5844 3.63679 80.3856 3.73301C80.1207 3.86124 79.8162 3.88017 79.5384 3.78566C79.2606 3.69116 79.0322 3.49089 78.9029 3.22853C78.8059 3.03166 78.7698 2.81022 78.7994 2.59231C78.829 2.37439 78.9228 2.16982 79.069 2.00453C79.2152 1.83925 79.4072 1.72069 79.6205 1.66391C79.8339 1.60713 80.0591 1.61467 80.2675 1.68559C80.476 1.75651 80.6583 1.8876 80.7913 2.06224C80.9243 2.23688 81.0021 2.4472 81.0147 2.66653C81.0274 2.88586 80.9743 3.10431 80.8623 3.29418Z" fill="white"/>
<path d="M64.9465 19.5226L78.7668 12.7106L79.4283 17.5903L73.5368 18.3909L66.8538 23.3923L64.9465 19.5226Z" fill="white"/>
<path d="M81.9037 28.408C81.9037 25.175 81.4616 22.6618 80.5776 20.8684C79.7188 19.0499 78.5191 18.1406 76.9783 18.1406C75.4628 18.1406 74.2631 19.0499 73.379 20.8684C72.495 22.687 72.053 25.2255 72.053 28.4838C72.053 31.7421 72.4697 34.2553 73.3033 36.0234C74.162 37.7914 75.3871 38.6755 76.9783 38.6755C80.2619 38.6755 81.9037 35.253 81.9037 28.408ZM88.0035 28.6353C88.0035 32.0957 86.9806 34.7604 84.9346 36.6295C82.8887 38.4987 80.224 39.4332 76.9404 39.4332C73.6569 39.4332 71.0048 38.5113 68.9841 36.6674C66.9634 34.7983 65.9531 32.1336 65.9531 28.6732C65.9531 25.1876 66.9634 22.4344 68.9841 20.4138C71.0048 18.3931 73.6821 17.3828 77.0162 17.3828C80.3755 17.3828 83.0403 18.3931 85.0104 20.4138C87.0058 22.4092 88.0035 25.1497 88.0035 28.6353Z" fill="#3C5B84"/>
<path d="M11.3662 39.7173C15.1549 39.7173 17.0493 37.5703 17.0493 33.2765H17.807V40.475H0V39.7173H1.89436V20.0159H0V19.2582H17.4281V25.699H16.6704C16.6704 23.451 16.2158 21.9482 15.3065 21.1904C14.4224 20.4074 12.9827 20.0159 10.9873 20.0159H7.57746V29.1089H9.09295C10.9115 29.1089 12.0608 28.8815 12.5407 28.4269C13.0206 27.9722 13.2605 27.0629 13.2605 25.699H14.0183V33.2765H13.2605C13.2605 31.862 13.0206 30.9401 12.5407 30.5107C12.0608 30.0813 10.9115 29.8666 9.09295 29.8666H7.57746V39.7173H11.3662Z" fill="white"/>
<path d="M39.7787 31.2305C39.7787 37.7724 37.0255 41.0433 31.5193 41.0433C28.463 41.0433 26.0761 40.2603 24.3586 38.6943C22.641 37.1283 21.7822 34.7667 21.7822 31.6094V20.0159H19.8879V19.2582H29.7386V20.0159H27.8442V32.0262C27.8442 37.3051 29.6123 39.9446 33.1484 39.9446C34.5881 39.9446 35.8889 39.2374 37.0508 37.8229C38.2379 36.3832 38.8315 34.4383 38.8315 31.9883V20.0159H35.8384V19.2582H41.673V20.0159H39.7787V31.2305Z" fill="white"/>
<path d="M50.7838 20.0159V29.7908C53.3096 29.7908 55.0019 29.4246 55.8606 28.6921C56.7194 27.9596 57.1488 26.7346 57.1488 25.017C57.1488 23.2995 56.7068 22.0366 55.8228 21.2283C54.9387 20.42 53.2591 20.0159 50.7838 20.0159ZM65.6735 40.8539H64.0064C60.8491 40.8539 58.6517 40.1719 57.414 38.808C56.429 37.7471 55.7596 36.3453 55.406 34.6025C55.2544 33.87 55.0903 33.2007 54.9135 32.5945C54.5093 31.2305 53.6884 30.5486 52.4508 30.5486H50.7838V39.7173H52.6781V40.475H43.2063V39.7173H45.1007V20.0159H43.2063V19.2582H53.1706C59.6115 19.2582 62.8319 21.1399 62.8319 24.9034C62.8319 26.3936 62.2889 27.606 61.2028 28.5405C60.1166 29.4751 58.7274 29.9424 57.0351 29.9424V30.2076C59.561 30.2076 61.3164 31.8746 62.3015 35.2087C62.8066 36.9768 63.3118 38.2397 63.817 38.9974C64.3474 39.7299 64.9662 40.0962 65.6735 40.0962V40.8539Z" fill="white"/>
<path d="M82.7535 29.8287C82.7535 26.5957 82.3115 24.0825 81.4275 22.2891C80.5687 20.4706 79.3689 19.5613 77.8282 19.5613C76.3127 19.5613 75.1129 20.4706 74.2289 22.2891C73.3448 24.1077 72.9028 26.6462 72.9028 29.9045C72.9028 33.1628 73.3196 35.676 74.1531 37.444C75.0119 39.2121 76.2369 40.0962 77.8282 40.0962C81.1117 40.0962 82.7535 36.6737 82.7535 29.8287ZM88.8534 30.056C88.8534 33.5164 87.8304 36.1811 85.7845 38.0502C83.7386 39.9194 81.0738 40.8539 77.7903 40.8539C74.5067 40.8539 71.8546 39.932 69.8339 38.0881C67.8133 36.219 66.803 33.5543 66.803 30.0939C66.803 26.6083 67.8133 23.8551 69.8339 21.8345C71.8546 19.8138 74.532 18.8035 77.8661 18.8035C81.2254 18.8035 83.8901 19.8138 85.8603 21.8345C87.8557 23.8299 88.8534 26.5704 88.8534 30.056Z" fill="white"/>
<path d="M106.847 20.0159V32.3672C108.918 32.3672 110.332 31.9251 111.09 31.0411C111.848 30.1318 112.227 28.5532 112.227 26.3052C112.227 24.0572 111.848 22.4533 111.09 21.4935C110.332 20.5084 108.918 20.0159 106.847 20.0159ZM108.741 39.7173V40.475H99.2691V39.7173H101.163V20.0159H99.2691V19.2582H106.809C114.235 18.9045 117.948 21.2914 117.948 26.4189C117.948 28.6921 117.013 30.4223 115.144 31.6094C113.275 32.7965 110.509 33.3017 106.847 33.1249V39.7173H108.741Z" fill="white"/>
<path d="M143.085 39.7173V40.475H133.12V39.7173H135.356L132.817 34.451H125.164L122.967 39.7173H125.96V40.475H119.481V39.7173H122.02L130.696 18.8793H131.643L141.266 39.7173H143.085ZM125.505 33.6553H132.439L128.726 25.9263L125.505 33.6553Z" fill="white"/>
<path d="M162.012 33.2765H162.77V40.475H144.963V39.7173H146.858V20.0159H144.963V19.2582H154.814V20.0159H152.541V39.7173H156.329C157.188 39.7173 157.895 39.6541 158.451 39.5279C159.032 39.4016 159.626 39.1363 160.232 38.7322C161.419 37.9492 162.012 36.1306 162.012 33.2765Z" fill="white"/>
<path d="M187.114 39.7173V40.475H177.15V39.7173H179.385L176.847 34.451H169.193L166.996 39.7173H169.989V40.475H163.51V39.7173H166.049L174.725 18.8793H175.672L185.295 39.7173H187.114ZM169.534 33.6553H176.468L172.755 25.9263L169.534 33.6553Z" fill="white"/>
<path d="M207.368 27.707H206.61C206.61 25.6864 205.966 23.8173 204.678 22.0997C203.39 20.3821 201.546 19.5234 199.146 19.5234C197.807 19.5234 196.696 20.3064 195.812 21.8724C194.953 23.4384 194.524 26.1158 194.524 29.9045C194.524 33.6932 194.953 36.3706 195.812 37.9366C196.696 39.5026 198.06 40.2856 199.904 40.2856C201.773 40.2856 203.339 39.7047 204.602 38.5428C205.89 37.3809 206.686 35.7391 206.989 33.6174H207.747C207.393 36.118 206.509 37.9871 205.094 39.2248C203.705 40.4371 202.038 41.0433 200.093 41.0433C196.33 41.0433 193.438 40.1467 191.417 38.3533C189.422 36.5348 188.424 33.7058 188.424 29.8666C188.424 26.0021 189.397 23.1858 191.341 21.4177C193.312 19.6497 195.913 18.7656 199.146 18.7656C200.889 18.7656 202.581 19.2329 204.223 20.1675C204.753 20.4958 205.183 20.66 205.511 20.66C205.865 20.66 206.143 20.5084 206.345 20.2053C206.547 19.877 206.648 19.5613 206.648 19.2582H207.368V27.707Z" fill="white"/>
<path d="M221.559 39.7173C225.348 39.7173 227.242 37.5703 227.242 33.2765H228V40.475H210.193V39.7173H212.087V20.0159H210.193V19.2582H227.621V25.699H226.863C226.863 23.451 226.409 21.9482 225.499 21.1904C224.615 20.4074 223.176 20.0159 221.18 20.0159H217.77V29.1089H219.286C221.105 29.1089 222.254 28.8815 222.734 28.4269C223.214 27.9722 223.454 27.0629 223.454 25.699H224.211V33.2765H223.454C223.454 31.862 223.214 30.9401 222.734 30.5107C222.254 30.0813 221.105 29.8666 219.286 29.8666H217.77V39.7173H221.559Z" fill="white"/>
</svg>
