<svg width="81" height="42" viewBox="0 0 81 42" fill="none" xmlns="http://www.w3.org/2000/svg">
<g id="logo">
<g id="Just">
<path id="Vector" d="M48.2751 21.6598C46.6037 21.6598 45.3021 21.2607 44.3703 20.4626C43.4385 19.6497 42.9726 18.4081 42.9726 16.738V6.58398H47.9867V16.6936C47.9867 17.0631 48.0828 17.3513 48.2751 17.5583C48.4822 17.7652 48.7336 17.8687 49.0294 17.8687C49.4584 17.8687 49.8355 17.7578 50.1609 17.5361L51.359 21.0168C50.9744 21.2385 50.5085 21.4011 49.9613 21.5046C49.4288 21.608 48.8667 21.6598 48.2751 21.6598ZM41.3086 13.6341V9.97604H50.4716V13.6341H41.3086Z" fill="white"/>
<path id="Vector_2" d="M34.6194 21.6604C33.584 21.6604 32.5635 21.5495 31.5577 21.3278C30.5519 21.1061 29.7384 20.8179 29.1172 20.4632L30.4927 17.1598C31.0696 17.4998 31.7352 17.7658 32.4895 17.958C33.2586 18.1501 34.0056 18.2462 34.7303 18.2462C35.3368 18.2462 35.7435 18.1944 35.9506 18.091C36.1725 17.9875 36.2834 17.8471 36.2834 17.6697C36.2834 17.4924 36.1577 17.3667 35.9062 17.2928C35.6548 17.2042 35.322 17.1377 34.9078 17.0933C34.4937 17.049 34.0352 16.9972 33.5323 16.9381C33.0442 16.8642 32.5487 16.7608 32.0458 16.6277C31.5429 16.4947 31.0844 16.2952 30.6702 16.0291C30.2561 15.7631 29.9233 15.4084 29.6718 14.965C29.4204 14.5068 29.2947 13.9304 29.2947 13.2357C29.2947 12.4671 29.5239 11.7724 29.9825 11.1517C30.4558 10.5309 31.1509 10.0358 32.068 9.66627C32.9998 9.28199 34.1461 9.08984 35.5069 9.08984C36.3943 9.08984 37.2818 9.17114 38.1692 9.33372C39.0567 9.4963 39.8184 9.74756 40.4544 10.0875L39.0789 13.3909C38.4576 13.0509 37.8438 12.8218 37.2374 12.7036C36.6458 12.5706 36.0911 12.5041 35.5734 12.5041C34.9374 12.5041 34.5011 12.5632 34.2644 12.6814C34.0426 12.7997 33.9316 12.9327 33.9316 13.0805C33.9316 13.2579 34.0573 13.3909 34.3088 13.4796C34.5602 13.5682 34.893 13.6348 35.3072 13.6791C35.7213 13.7234 36.1725 13.7826 36.6606 13.8565C37.1634 13.9156 37.6589 14.019 38.147 14.1668C38.6499 14.2999 39.1084 14.4994 39.5226 14.7654C39.9367 15.0315 40.2695 15.3936 40.521 15.8518C40.7724 16.2952 40.8981 16.8642 40.8981 17.5589C40.8981 18.2831 40.6689 18.963 40.2104 19.5986C39.7519 20.2193 39.0567 20.7218 38.1248 21.1061C37.193 21.4756 36.0245 21.6604 34.6194 21.6604Z" fill="white"/>
<path id="Vector_3" d="M19.4388 21.6594C18.4774 21.6594 17.6047 21.4672 16.8208 21.083C16.0517 20.6839 15.4453 20.0705 15.0015 19.2428C14.5578 18.4004 14.3359 17.3214 14.3359 16.006V9.31055H19.3501V15.1413C19.3501 15.9986 19.4906 16.5972 19.7716 16.9371C20.0526 17.2771 20.4372 17.447 20.9253 17.447C21.2211 17.447 21.4947 17.3731 21.7462 17.2253C22.0124 17.0628 22.2269 16.8041 22.3896 16.4494C22.5523 16.0799 22.6336 15.5995 22.6336 15.0083V9.31055H27.6478V21.4377H22.8777V17.9348L23.8317 18.8881C23.4028 19.834 22.7889 20.5361 21.9902 20.9943C21.2063 21.4377 20.3558 21.6594 19.4388 21.6594Z" fill="white"/>
<path id="Vector_4" d="M5.72408 21.7929C4.51123 21.7929 3.4167 21.6007 2.4405 21.2164C1.4643 20.8174 0.6508 20.2409 0 19.4872L2.81767 16.1616C3.23181 16.6641 3.63856 17.0484 4.03792 17.3145C4.43727 17.5657 4.85142 17.6914 5.28035 17.6914C6.40446 17.6914 6.96652 17.0484 6.96652 15.7625V9.86525H1.68616V5.91895H12.1359V15.4522C12.1359 17.5805 11.5887 19.1694 10.4941 20.2188C9.39962 21.2682 7.8096 21.7929 5.72408 21.7929Z" fill="white"/>
</g>
<g id="Casino">
<path id="Vector_5" d="M73.9459 41.3674C72.5703 41.3674 71.3501 41.1014 70.2851 40.5693C69.235 40.0224 68.4067 39.276 67.8003 38.3301C67.1938 37.3842 66.8906 36.2978 66.8906 35.0711C66.8906 33.8443 67.1938 32.758 67.8003 31.812C68.4067 30.8661 69.235 30.1271 70.2851 29.595C71.3501 29.0629 72.5703 28.7969 73.9459 28.7969C75.3214 28.7969 76.5417 29.0629 77.6066 29.595C78.6716 30.1271 79.4999 30.8661 80.0915 31.812C80.6979 32.758 81.0011 33.8443 81.0011 35.0711C81.0011 36.2978 80.6979 37.3842 80.0915 38.3301C79.4999 39.276 78.6716 40.0224 77.6066 40.5693C76.5417 41.1014 75.3214 41.3674 73.9459 41.3674ZM73.9459 37.4655C74.3157 37.4655 74.6485 37.3768 74.9443 37.1994C75.2401 37.022 75.4767 36.756 75.6542 36.4013C75.8317 36.0318 75.9205 35.5884 75.9205 35.0711C75.9205 34.539 75.8317 34.103 75.6542 33.763C75.4767 33.4083 75.2401 33.1422 74.9443 32.9649C74.6485 32.7875 74.3157 32.6988 73.9459 32.6988C73.5761 32.6988 73.2433 32.7875 72.9475 32.9649C72.6517 33.1422 72.415 33.4083 72.2375 33.763C72.06 34.103 71.9713 34.539 71.9713 35.0711C71.9713 35.5884 72.06 36.0318 72.2375 36.4013C72.415 36.756 72.6517 37.022 72.9475 37.1994C73.2433 37.3768 73.5761 37.4655 73.9459 37.4655Z" fill="white"/>
<path id="Vector_6" d="M60.1691 28.7969C61.1009 28.7969 61.944 28.989 62.6983 29.3733C63.4527 29.7428 64.0443 30.3266 64.4732 31.1248C64.917 31.9229 65.1388 32.9575 65.1388 34.2286V41.1457H60.1247V35.0932C60.1247 34.3394 59.9916 33.8074 59.7254 33.497C59.4591 33.1718 59.0968 33.0092 58.6382 33.0092C58.298 33.0092 57.98 33.0905 57.6842 33.2531C57.4032 33.4009 57.1739 33.6522 56.9964 34.0069C56.8337 34.3616 56.7524 34.842 56.7524 35.448V41.1457H51.7383V29.0186H56.5083V32.5658L55.5543 31.546C56.0276 30.6296 56.6636 29.9423 57.4624 29.4842C58.2759 29.026 59.1781 28.7969 60.1691 28.7969Z" fill="white"/>
<path id="Vector_7" d="M44.5025 41.1452V29.018H49.5166V41.1452H44.5025ZM47.0095 28.0425C46.0925 28.0425 45.3603 27.7986 44.8131 27.3109C44.2658 26.8232 43.9922 26.2172 43.9922 25.4929C43.9922 24.7687 44.2658 24.1627 44.8131 23.675C45.3603 23.1872 46.0925 22.9434 47.0095 22.9434C47.9266 22.9434 48.6587 23.1725 49.206 23.6306C49.7532 24.0888 50.0269 24.68 50.0269 25.4043C50.0269 26.1728 49.7532 26.8084 49.206 27.3109C48.6587 27.7986 47.9266 28.0425 47.0095 28.0425Z" fill="white"/>
<path id="Vector_8" d="M36.7053 41.3674C35.67 41.3674 34.6494 41.2566 33.6436 41.0349C32.6378 40.8132 31.8243 40.525 31.2031 40.1702L32.5787 36.8669C33.1555 37.2068 33.8211 37.4728 34.5755 37.665C35.3446 37.8571 36.0915 37.9532 36.8163 37.9532C37.4227 37.9532 37.8295 37.9015 38.0365 37.798C38.2584 37.6945 38.3693 37.5541 38.3693 37.3768C38.3693 37.1994 38.2436 37.0738 37.9922 36.9999C37.7407 36.9112 37.4079 36.8447 36.9938 36.8003C36.5796 36.756 36.1211 36.7043 35.6182 36.6452C35.1301 36.5713 34.6346 36.4678 34.1317 36.3348C33.6288 36.2017 33.1703 36.0022 32.7562 35.7362C32.342 35.4701 32.0092 35.1154 31.7578 34.672C31.5063 34.2138 31.3806 33.6374 31.3806 32.9427C31.3806 32.1741 31.6099 31.4795 32.0684 30.8587C32.5417 30.2379 33.2369 29.7428 34.1539 29.3733C35.0857 28.989 36.232 28.7969 37.5928 28.7969C38.4803 28.7969 39.3677 28.8782 40.2552 29.0407C41.1426 29.2033 41.9043 29.4546 42.5404 29.7945L41.1648 33.0979C40.5436 32.758 39.9298 32.5289 39.3233 32.4106C38.7317 32.2776 38.177 32.2111 37.6594 32.2111C37.0233 32.2111 36.587 32.2702 36.3504 32.3885C36.1285 32.5067 36.0176 32.6397 36.0176 32.7875C36.0176 32.9649 36.1433 33.0979 36.3947 33.1866C36.6462 33.2753 36.979 33.3418 37.3931 33.3861C37.8073 33.4305 38.2584 33.4896 38.7465 33.5635C39.2494 33.6226 39.7449 33.7261 40.233 33.8739C40.7359 34.0069 41.1944 34.2064 41.6085 34.4725C42.0227 34.7385 42.3555 35.1006 42.6069 35.5588C42.8584 36.0022 42.9841 36.5713 42.9841 37.2659C42.9841 37.9901 42.7548 38.67 42.2963 39.3056C41.8378 39.9264 41.1426 40.4289 40.2108 40.8132C39.279 41.1827 38.1105 41.3674 36.7053 41.3674Z" fill="white"/>
<path id="Vector_9" d="M25.1302 41.1457V38.9952L24.7752 38.4188V34.3394C24.7752 33.7482 24.5903 33.2974 24.2206 32.9871C23.8656 32.6767 23.2814 32.5215 22.4679 32.5215C21.9206 32.5215 21.3659 32.6102 20.8039 32.7875C20.2418 32.9501 19.7611 33.1792 19.3618 33.4748L17.7643 30.1714C18.4743 29.728 19.3248 29.3881 20.3158 29.1516C21.3068 28.9151 22.2756 28.7969 23.2222 28.7969C25.3077 28.7969 26.9199 29.2625 28.0588 30.1936C29.2125 31.1248 29.7894 32.6028 29.7894 34.6277V41.1457H25.1302ZM21.6913 41.3674C20.7003 41.3674 19.872 41.1974 19.2065 40.8575C18.5409 40.5176 18.038 40.0668 17.6978 39.5051C17.3576 38.9287 17.1875 38.2931 17.1875 37.5985C17.1875 36.8151 17.3872 36.15 17.7865 35.6031C18.1859 35.0563 18.7923 34.6424 19.6058 34.3616C20.4341 34.0808 21.4769 33.9404 22.7341 33.9404H25.2633V36.3569H23.5328C23.0003 36.3569 22.6084 36.4456 22.3569 36.623C22.1203 36.7856 22.0019 37.0368 22.0019 37.3768C22.0019 37.6576 22.1055 37.8941 22.3125 38.0862C22.5344 38.2636 22.8302 38.3523 23.2 38.3523C23.5402 38.3523 23.8508 38.2636 24.1318 38.0862C24.4276 37.8941 24.6421 37.5985 24.7752 37.1994L25.4186 38.6848C25.2264 39.5864 24.8196 40.2589 24.1984 40.7023C23.5772 41.1457 22.7415 41.3674 21.6913 41.3674Z" fill="white"/>
<path id="Vector_10" d="M9.46518 41.4991C8.22274 41.4991 7.06905 41.307 6.00411 40.9227C4.95395 40.5237 4.03692 39.962 3.253 39.2378C2.48387 38.5135 1.88484 37.6563 1.4559 36.666C1.02697 35.6758 0.8125 34.582 0.8125 33.3848C0.8125 32.1876 1.02697 31.0939 1.4559 30.1036C1.88484 29.1134 2.48387 28.2561 3.253 27.5319C4.03692 26.8076 4.95395 26.2534 6.00411 25.8691C7.06905 25.47 8.22274 25.2705 9.46518 25.2705C10.9886 25.2705 12.3346 25.5366 13.5031 26.0686C14.6864 26.6007 15.6626 27.3693 16.4317 28.3743L13.1259 31.323C12.6674 30.7466 12.1571 30.3032 11.5951 29.9928C11.0478 29.6676 10.4266 29.505 9.73142 29.505C9.18415 29.505 8.68866 29.5937 8.24493 29.7711C7.8012 29.9484 7.41664 30.2071 7.09124 30.547C6.78063 30.887 6.53658 31.3008 6.35909 31.7886C6.1816 32.2615 6.09285 32.7936 6.09285 33.3848C6.09285 33.976 6.1816 34.5155 6.35909 35.0033C6.53658 35.4762 6.78063 35.8827 7.09124 36.2226C7.41664 36.5626 7.8012 36.8212 8.24493 36.9986C8.68866 37.1759 9.18415 37.2646 9.73142 37.2646C10.4266 37.2646 11.0478 37.1094 11.5951 36.799C12.1571 36.4739 12.6674 36.0231 13.1259 35.4467L16.4317 38.3953C15.6626 39.3856 14.6864 40.1541 13.5031 40.701C12.3346 41.2331 10.9886 41.4991 9.46518 41.4991Z" fill="white"/>
</g>
<path id="Star 4" d="M61.1521 7.89062L63.5053 11.0817L66.6986 13.4332L63.5053 15.7847L61.1521 18.9758L58.7988 15.7847L55.6055 13.4332L58.7988 11.0817L61.1521 7.89062Z" fill="#EDAB00"/>
<path id="Star 5" d="M55.604 0.5L57.1728 2.62737L59.3017 4.19505L57.1728 5.76272L55.604 7.89009L54.0352 5.76272L51.9062 4.19505L54.0352 2.62737L55.604 0.5Z" fill="#EDAB00"/>
</g>
</svg>
