<svg width="124" height="56" viewBox="0 0 124 56" fill="none" xmlns="http://www.w3.org/2000/svg">
<g id="Vector">
<path d="M9.74702 49.3934C9.74702 48.203 9.97205 47.1515 10.4221 46.2389C10.8854 45.3262 11.501 44.5591 12.2688 43.9375C13.0498 43.3026 13.9235 42.8264 14.8898 42.509C15.8694 42.1916 16.8821 42.0329 17.9279 42.0329C18.55 42.0329 19.1325 42.1056 19.6752 42.2511C20.218 42.3966 20.7011 42.5818 21.1247 42.8066V42.3503C21.1247 42.2842 21.1578 42.2379 21.224 42.2114C21.2902 42.185 21.363 42.1717 21.4424 42.1717C21.6145 42.1717 21.7006 42.2313 21.7006 42.3503C21.7006 42.8397 21.7138 43.3357 21.7403 43.8383C21.78 44.3409 21.833 44.8236 21.8991 45.2866C21.9124 45.3527 21.8859 45.4056 21.8197 45.4453C21.7535 45.4717 21.6741 45.485 21.5814 45.485C21.502 45.485 21.4292 45.4717 21.363 45.4453C21.2968 45.4056 21.2571 45.3527 21.2439 45.2866L21.085 44.3541C20.5423 43.8515 19.9731 43.4878 19.3774 43.2629C18.7817 43.0381 18.1529 42.9256 17.491 42.9256C16.5511 42.9256 15.6775 43.1505 14.87 43.6002C14.0625 44.0499 13.4138 44.7178 12.924 45.604C12.4475 46.4902 12.2092 47.6012 12.2092 48.9371C12.2092 50.2862 12.4673 51.4104 12.9836 52.3098C13.4999 53.196 14.1816 53.8639 15.0288 54.3136C15.876 54.7501 16.8027 54.9683 17.8087 54.9683C19.106 54.9683 20.3371 54.5715 21.502 53.778L21.6212 52.8455C21.6476 52.7 21.7668 52.6273 21.9786 52.6273C22.058 52.6273 22.1308 52.6471 22.197 52.6868C22.2632 52.7265 22.2896 52.7794 22.2764 52.8455C22.2102 53.1894 22.1639 53.606 22.1374 54.0954C22.1242 54.5715 22.1176 55.0609 22.1176 55.5635C22.1176 55.6693 22.0183 55.7222 21.8197 55.7222C21.7403 55.7222 21.6675 55.709 21.6013 55.6826C21.5351 55.6561 21.502 55.6164 21.502 55.5635V55.0874C20.218 55.6032 18.9472 55.8611 17.6896 55.8611C16.6041 55.8611 15.5782 55.7222 14.6118 55.4445C13.6587 55.1667 12.8115 54.7567 12.0702 54.2144C11.3421 53.6589 10.7729 52.9778 10.3626 52.1709C9.9522 51.3641 9.74702 50.4383 9.74702 49.3934Z" fill="white"/>
<path d="M37.9741 54.3533C37.7226 53.5465 37.4579 52.7397 37.1799 51.9329C36.9019 51.126 36.6239 50.306 36.3459 49.4727H32.7519C32.3151 50.8615 31.8981 52.2701 31.501 53.6986C31.448 53.9102 31.4083 54.0954 31.3818 54.2541C31.3553 54.4128 31.3421 54.5451 31.3421 54.6509C31.3421 54.8493 31.3818 54.9485 31.4612 54.9485H32.8909C32.9703 54.9485 33.0233 54.9882 33.0498 55.0675C33.0895 55.1337 33.1093 55.1998 33.1093 55.2659C33.1093 55.3188 33.0895 55.3916 33.0498 55.4842C33.0233 55.5635 32.9571 55.6032 32.8512 55.6032C32.6394 55.6032 32.3746 55.6032 32.0569 55.6032C31.7392 55.59 31.4215 55.5834 31.1038 55.5834C30.7861 55.5834 30.5148 55.5834 30.2897 55.5834C29.9058 55.5834 29.5352 55.59 29.1778 55.6032C28.8203 55.6297 28.4563 55.6429 28.0857 55.6429C27.9665 55.6429 27.9069 55.5305 27.9069 55.3056C27.9069 55.0808 27.9665 54.9683 28.0857 54.9683H29.0785C29.3697 54.9683 29.5881 54.8228 29.7337 54.5319C30.1176 53.7118 30.4618 52.905 30.7663 52.1114C31.0707 51.3178 31.3752 50.4912 31.6797 49.6315C31.9841 48.7717 32.3084 47.8591 32.6526 46.8936C33.01 45.9281 33.4204 44.8699 33.8837 43.7192C33.9234 43.6134 33.9632 43.5142 34.0029 43.4216C34.0426 43.3158 34.0624 43.2232 34.0624 43.1439C34.0624 43.0248 34.036 42.9256 33.983 42.8463C33.9301 42.7669 33.9036 42.7008 33.9036 42.6479C33.9036 42.5421 33.9698 42.4892 34.1021 42.4892C34.3801 42.4892 34.5919 42.4429 34.7376 42.3503C34.8832 42.2577 34.9891 42.1585 35.0553 42.0527C35.1214 41.9337 35.181 41.8279 35.234 41.7353C35.2869 41.6427 35.3597 41.5964 35.4524 41.5964C35.5053 41.5964 35.5517 41.6625 35.5914 41.7948C35.6311 41.9138 35.6774 42.0461 35.7304 42.1916L39.7215 52.9645C40.0127 53.7317 40.2378 54.2541 40.3966 54.5319C40.5555 54.8096 40.6812 54.9485 40.7739 54.9485H41.4887C41.6211 54.9485 41.6873 55.0477 41.6873 55.2461C41.6873 55.3387 41.6741 55.4246 41.6476 55.504C41.6343 55.5701 41.5946 55.6032 41.5284 55.6032C41.0122 55.6032 40.5489 55.6032 40.1385 55.6032C39.7414 55.59 39.3641 55.5834 39.0067 55.5834C38.6625 55.5834 38.2521 55.59 37.7756 55.6032C37.3123 55.6297 36.882 55.6429 36.4849 55.6429C36.3658 55.6429 36.3062 55.5238 36.3062 55.2858C36.3062 55.0742 36.3658 54.9683 36.4849 54.9683H37.6167C37.9874 54.9683 38.1065 54.7633 37.9741 54.3533ZM34.5588 44.3144C34.2809 45.0419 34.0161 45.7693 33.7646 46.4968C33.5131 47.211 33.2616 47.9385 33.01 48.6792H36.0679C35.8429 47.9781 35.6046 47.2705 35.3531 46.5563C35.1148 45.8289 34.8765 45.0816 34.6383 44.3144H34.5588Z" fill="white"/>
<path d="M56.1144 52.2106C56.1144 52.9381 55.8893 53.5796 55.4393 54.1351C55.0024 54.6774 54.42 55.1006 53.6919 55.4048C52.9771 55.709 52.2027 55.8611 51.3687 55.8611C50.7995 55.8611 50.2634 55.795 49.7603 55.6627C49.2705 55.5305 48.8734 55.3982 48.5689 55.2659L48.7278 55.6627C48.7675 55.7553 48.7344 55.8347 48.6285 55.9008C48.5226 55.9669 48.4101 56 48.2909 56C48.185 56 48.1122 55.9669 48.0725 55.9008C47.9666 55.6098 47.8541 55.2527 47.735 54.8295C47.6291 54.393 47.5364 53.9433 47.457 53.4804C47.3776 53.0042 47.3246 52.5677 47.2981 52.1709C47.2981 52.1048 47.3312 52.0585 47.3974 52.0321C47.4636 51.9924 47.543 51.9725 47.6357 51.9725C47.7019 51.9725 47.7681 51.9858 47.8342 52.0122C47.9004 52.0254 47.9402 52.0585 47.9534 52.1114C48.0328 52.3627 48.1586 52.6603 48.3307 53.0042C48.516 53.3349 48.7543 53.6655 49.0455 53.9962C49.3367 54.3136 49.6875 54.5782 50.0979 54.7898C50.5215 55.0014 50.998 55.1072 51.5275 55.1072C52.3483 55.1072 52.9704 54.889 53.394 54.4525C53.8176 54.0028 54.0294 53.5134 54.0294 52.9844C54.0294 52.3495 53.8838 51.8138 53.5926 51.3774C53.3014 50.9409 52.9175 50.5639 52.4409 50.2465C51.9776 49.9291 51.4878 49.6248 50.9716 49.3339C50.4553 49.0429 49.9589 48.7321 49.4823 48.4014C49.019 48.0707 48.6417 47.6739 48.3505 47.211C48.0593 46.7349 47.9137 46.1595 47.9137 45.485C47.9137 44.8501 48.1056 44.2747 48.4895 43.7589C48.8866 43.2299 49.4294 42.8132 50.1177 42.509C50.8061 42.1916 51.5937 42.0329 52.4806 42.0329C53.0234 42.0329 53.4735 42.0858 53.8309 42.1916C54.2015 42.2842 54.3869 42.3305 54.3869 42.3305C54.3736 42.2908 54.3538 42.2114 54.3273 42.0924C54.3141 41.9733 54.3074 41.9006 54.3074 41.8741C54.2942 41.808 54.3207 41.7617 54.3869 41.7353C54.4531 41.6956 54.5259 41.6757 54.6053 41.6757C54.7641 41.6757 54.8634 41.7286 54.9031 41.8345C55.062 42.39 55.1877 42.9521 55.2804 43.5208C55.3731 44.0896 55.426 44.579 55.4393 44.989C55.426 45.0287 55.3731 45.0617 55.2804 45.0882C55.201 45.1014 55.1149 45.108 55.0223 45.108C54.9031 45.108 54.8237 45.0882 54.784 45.0485C54.6913 44.7178 54.559 44.3806 54.3869 44.0367C54.2148 43.6928 53.9566 43.4018 53.6125 43.1637C53.2683 42.9124 52.7917 42.7868 52.1828 42.7868C51.5739 42.7868 51.1039 42.8992 50.773 43.124C50.4421 43.3357 50.2104 43.6068 50.078 43.9375C49.9589 44.2549 49.8993 44.5723 49.8993 44.8898C49.8993 45.4188 50.0449 45.8685 50.3362 46.2389C50.6406 46.6092 51.0311 46.9399 51.5077 47.2309C51.9842 47.5218 52.4806 47.8128 52.9969 48.1038C53.5264 48.3948 54.0294 48.7188 54.506 49.0759C54.9826 49.4331 55.3664 49.8629 55.6577 50.3655C55.9621 50.8681 56.1144 51.4832 56.1144 52.2106Z" fill="white"/>
<path d="M66.7194 53.2026C66.7194 53.7052 66.7393 54.0822 66.779 54.3335C66.8319 54.5848 66.8915 54.7501 66.9577 54.8295C67.0239 54.9088 67.0834 54.9485 67.1364 54.9485H68.2881C68.394 54.9485 68.4469 55.0741 68.4469 55.3254C68.4469 55.3784 68.4337 55.4379 68.4072 55.504C68.394 55.5701 68.3542 55.6032 68.2881 55.6032C67.8777 55.6032 67.4541 55.6032 67.0173 55.6032C66.5936 55.59 66.1833 55.5834 65.7862 55.5834C65.2302 55.5834 64.7867 55.59 64.4558 55.6032C64.1248 55.6032 63.8535 55.6098 63.6417 55.623C63.4299 55.6363 63.2181 55.6429 63.0063 55.6429C62.9533 55.6429 62.9136 55.6098 62.8871 55.5437C62.8606 55.4776 62.8474 55.4048 62.8474 55.3254C62.8474 55.2329 62.8606 55.1535 62.8871 55.0874C62.9136 55.008 62.9533 54.9683 63.0063 54.9683H63.8601C64.2043 54.9683 64.4227 54.9022 64.5153 54.7699C64.6212 54.6377 64.6742 54.3996 64.6742 54.0557V44.6517C64.6742 44.1359 64.6477 43.7589 64.5948 43.5208C64.5551 43.2695 64.5021 43.1042 64.4359 43.0248C64.383 42.9455 64.3234 42.9058 64.2572 42.9058H63.1055C62.9996 42.9058 62.9467 42.7802 62.9467 42.5289C62.9467 42.4627 62.9533 42.4032 62.9665 42.3503C62.993 42.2842 63.0393 42.2511 63.1055 42.2511C63.5291 42.2511 63.9527 42.2577 64.3764 42.2709C64.7999 42.2709 65.2103 42.2709 65.6074 42.2709C66.1767 42.2709 66.6201 42.2709 66.9378 42.2709C67.2688 42.2577 67.5401 42.2445 67.7519 42.2313C67.9637 42.218 68.1755 42.2114 68.3873 42.2114C68.4535 42.2114 68.4932 42.2445 68.5065 42.3106C68.533 42.3767 68.5462 42.4495 68.5462 42.5289C68.5462 42.6214 68.533 42.7074 68.5065 42.7868C68.48 42.8529 68.4403 42.886 68.3873 42.886H67.5335C67.2026 42.886 66.9842 42.9521 66.8783 43.0844C66.7724 43.2166 66.7194 43.4547 66.7194 43.7986V53.2026Z" fill="white"/>
<path d="M87.068 55.8413C87.068 55.8413 86.9224 55.6693 86.6312 55.3254C86.34 54.9816 85.9428 54.512 85.4398 53.9168C84.95 53.3216 84.3874 52.6471 83.752 51.8932C83.1166 51.1393 82.4547 50.3523 81.7664 49.5323C81.0913 48.7122 80.4228 47.9054 79.7609 47.1118C79.099 46.3182 78.4901 45.5842 77.9341 44.9096H77.8547C77.8811 46.8142 77.901 48.4874 77.9142 49.9291C77.9275 51.3707 77.9473 52.5611 77.9738 53.5002C77.987 53.8441 78.0267 54.1747 78.0929 54.4922C78.1591 54.7964 78.2584 54.9485 78.3908 54.9485H79.4829C79.5491 54.9485 79.5954 54.9882 79.6219 55.0675C79.6484 55.1337 79.6616 55.213 79.6616 55.3056C79.6616 55.504 79.602 55.6032 79.4829 55.6032C78.9931 55.6032 78.5893 55.6032 78.2716 55.6032C77.9539 55.59 77.6561 55.5834 77.3781 55.5834C76.928 55.5834 76.4912 55.59 76.0676 55.6032C75.644 55.6297 75.2932 55.6429 75.0152 55.6429C74.9622 55.6429 74.9225 55.6098 74.8961 55.5437C74.8828 55.4643 74.8762 55.385 74.8762 55.3056C74.8762 55.2262 74.8828 55.1535 74.8961 55.0874C74.9225 55.008 74.9622 54.9683 75.0152 54.9683H75.6705C75.9617 54.9683 76.1735 54.9353 76.3059 54.8691C76.4515 54.7898 76.5309 54.6443 76.5441 54.4327C76.6103 53.7581 76.6633 52.9711 76.703 52.0717C76.7559 51.1723 76.7957 50.2267 76.8221 49.2347C76.8618 48.2427 76.8883 47.2772 76.9016 46.3381C76.928 45.3858 76.9413 44.526 76.9413 43.7589L76.8023 43.6002C76.6434 43.4018 76.4912 43.2563 76.3456 43.1637C76.2132 43.0579 76.0411 42.9852 75.8293 42.9455C75.6307 42.9058 75.3395 42.886 74.9556 42.886C74.9159 42.886 74.8828 42.8595 74.8563 42.8066C74.8431 42.7405 74.8365 42.6743 74.8365 42.6082C74.8365 42.5289 74.8431 42.4495 74.8563 42.3701C74.8828 42.2908 74.9159 42.2511 74.9556 42.2511C75.1277 42.2511 75.366 42.2577 75.6705 42.2709C75.9882 42.2709 76.3257 42.2709 76.6831 42.2709C77.0538 42.2709 77.4046 42.2775 77.7355 42.2908C78.0665 42.2908 78.3378 42.2908 78.5496 42.2908C78.5496 42.2908 78.6754 42.4561 78.9269 42.7868C79.1917 43.1042 79.5358 43.5341 79.9594 44.0763C80.3963 44.6186 80.8795 45.2271 81.409 45.9016C81.9517 46.5629 82.5011 47.2441 83.057 47.9451C83.613 48.6461 84.1425 49.3206 84.6456 49.9687C85.1486 50.6036 85.5854 51.1591 85.9561 51.6353C86.34 52.1114 86.6113 52.4619 86.7702 52.6868H86.8496C86.8364 51.4567 86.8231 50.2796 86.8099 49.1553C86.7967 48.0311 86.7768 47.006 86.7503 46.0802C86.7239 45.1411 86.6841 44.3475 86.6312 43.6994C86.5915 43.1703 86.4459 42.9058 86.1944 42.9058H85.2412C85.1883 42.9058 85.142 42.8794 85.1023 42.8264C85.0758 42.7603 85.0625 42.6942 85.0625 42.628C85.0625 42.5487 85.0758 42.4693 85.1023 42.39C85.142 42.2974 85.1883 42.2511 85.2412 42.2511C85.5325 42.2511 85.8833 42.2577 86.2936 42.2709C86.704 42.2842 87.0747 42.2908 87.4056 42.2908C87.7762 42.2908 88.1734 42.2842 88.597 42.2709C89.0206 42.2445 89.4045 42.2313 89.7486 42.2313C89.8016 42.2313 89.8413 42.2775 89.8678 42.3701C89.9075 42.4627 89.9274 42.5487 89.9274 42.628C89.9274 42.8 89.8678 42.886 89.7486 42.886H88.8154C88.5374 42.886 88.3587 42.9521 88.2793 43.0844C88.2131 43.2166 88.1601 43.4481 88.1204 43.7788C88.0807 44.1491 88.041 44.7443 88.0013 45.5643C87.9616 46.3711 87.9285 47.3301 87.902 48.4411C87.8755 49.5389 87.8491 50.7226 87.8226 51.9924C87.8093 53.2621 87.8027 54.5451 87.8027 55.8413C87.7762 55.9339 87.6703 55.9802 87.485 55.9802C87.2997 55.9802 87.1607 55.9339 87.068 55.8413Z" fill="white"/>
<path d="M103.456 42.0329C104.449 42.0329 105.382 42.2114 106.256 42.5685C107.129 42.9256 107.897 43.4216 108.559 44.0565C109.221 44.6914 109.737 45.4254 110.108 46.2587C110.492 47.092 110.684 47.9848 110.684 48.9371C110.684 49.9026 110.492 50.802 110.108 51.6353C109.737 52.4685 109.221 53.2026 108.559 53.8375C107.897 54.4723 107.129 54.9683 106.256 55.3254C105.382 55.6826 104.449 55.8611 103.456 55.8611C102.463 55.8611 101.53 55.6826 100.656 55.3254C99.7823 54.9683 99.0146 54.4723 98.3527 53.8375C97.6908 53.2026 97.1679 52.4685 96.784 51.6353C96.4134 50.802 96.228 49.9026 96.228 48.9371C96.228 47.9848 96.4134 47.092 96.784 46.2587C97.1679 45.4254 97.6908 44.6914 98.3527 44.0565C99.0146 43.4216 99.7823 42.9256 100.656 42.5685C101.53 42.2114 102.463 42.0329 103.456 42.0329ZM103.456 42.9455C102.516 42.9455 101.689 43.2166 100.974 43.7589C100.272 44.288 99.7228 45.0088 99.3256 45.9214C98.9285 46.8208 98.7299 47.826 98.7299 48.9371C98.7299 50.0481 98.9285 51.0599 99.3256 51.9725C99.7228 52.8852 100.272 53.6126 100.974 54.1549C101.689 54.684 102.516 54.9485 103.456 54.9485C104.396 54.9485 105.216 54.684 105.918 54.1549C106.633 53.6126 107.189 52.8852 107.586 51.9725C107.983 51.0599 108.182 50.0481 108.182 48.9371C108.182 47.826 107.983 46.8208 107.586 45.9214C107.189 45.0088 106.633 44.288 105.918 43.7589C105.216 43.2166 104.396 42.9455 103.456 42.9455Z" fill="white"/>
<path d="M7.744 14.0465C8.90891 14.02 10.0341 13.9804 11.1196 13.9275C12.2051 13.8481 13.1185 13.7687 13.8598 13.6894C14.6011 13.61 15.0114 13.5439 15.0909 13.491L15.488 11.1499C15.5145 10.9647 15.7263 10.8721 16.1234 10.8721C16.2823 10.8721 16.4279 10.8986 16.5602 10.9515C16.6926 11.0044 16.7456 11.097 16.7191 11.2293C16.6397 11.8377 16.5867 12.3932 16.5602 12.8958C16.5338 13.3984 16.5205 13.9539 16.5205 14.5623C16.5205 15.1443 16.5338 15.7527 16.5602 16.3876C16.5867 16.996 16.6397 17.6044 16.7191 18.2128C16.7456 18.3186 16.6794 18.398 16.5205 18.4509C16.3617 18.5038 16.1896 18.5303 16.0043 18.5303C15.6601 18.5303 15.488 18.4509 15.488 18.2922L15.0512 15.9114C14.9717 15.8585 14.5746 15.7924 13.8598 15.713C13.1449 15.6337 12.2448 15.5543 11.1593 15.475C10.0738 15.3956 8.93539 15.3427 7.744 15.3162V22.9347C7.744 23.9399 7.78371 24.6938 7.86314 25.1964C7.96904 25.699 8.08818 26.0297 8.22055 26.1884C8.35293 26.3471 8.47207 26.4265 8.57797 26.4265H10.6033C12.3242 26.4 13.9657 26.2413 15.5277 25.9503C17.1162 25.6593 18.2811 25.2625 19.0224 24.7599L19.3004 22.5776C19.3269 22.4718 19.4063 22.3924 19.5387 22.3395C19.6976 22.2866 19.8696 22.2601 20.055 22.2601C20.4521 22.2601 20.6374 22.3659 20.611 22.5776C20.4786 23.5563 20.3859 24.6012 20.333 25.7122C20.28 26.8233 20.2535 27.8814 20.2535 28.8866C20.2535 29.0718 20.055 29.1643 19.6578 29.1643C19.499 29.1643 19.3534 29.1379 19.221 29.085C19.0886 29.0585 19.0224 28.9924 19.0224 28.8866V28.0136H9.21338C7.51896 28.0136 6.14225 28.0136 5.08324 28.0136C4.05071 28.0401 3.22998 28.0533 2.62105 28.0533C2.03859 28.0533 1.57528 28.0533 1.2311 28.0533C0.913395 28.0798 0.60893 28.093 0.317703 28.093C0.211802 28.093 0.132376 28.0269 0.0794257 27.8946C0.0264752 27.7623 0 27.6168 0 27.4581C0 27.273 0.0264752 27.1142 0.0794257 26.982C0.132376 26.8233 0.211802 26.7439 0.317703 26.7439H2.02535C2.71371 26.7439 3.15055 26.6116 3.33588 26.3471C3.54768 26.0826 3.65358 25.6064 3.65358 24.9186V6.11062C3.65358 5.07896 3.60063 4.32505 3.49473 3.8489C3.4153 3.34629 3.3094 3.01563 3.17703 2.85692C3.07113 2.6982 2.95199 2.61884 2.81961 2.61884H0.516267C0.304465 2.61884 0.198564 2.36754 0.198564 1.86493C0.198564 1.73267 0.211802 1.61363 0.238277 1.50782C0.291227 1.37555 0.383891 1.30942 0.516267 1.30942C1.20462 1.30942 1.95917 1.32265 2.7799 1.3491C3.60063 1.37555 4.51402 1.38878 5.52008 1.38878H17.0368V0.555511C17.0368 0.423247 17.103 0.330661 17.2354 0.277754C17.3677 0.224849 17.5001 0.198397 17.6325 0.198397C17.7649 0.198397 17.884 0.224849 17.9899 0.277754C18.1223 0.330661 18.1885 0.423247 18.1885 0.555511C18.1885 1.53427 18.2149 2.57916 18.2679 3.69018C18.3208 4.77475 18.4268 5.74028 18.5856 6.58678C18.6386 6.69259 18.5988 6.77195 18.4665 6.82485C18.3341 6.87776 18.1885 6.90421 18.0296 6.90421C17.8708 6.90421 17.7119 6.87776 17.5531 6.82485C17.4207 6.77195 17.3413 6.69259 17.3148 6.58678C17.1824 6.03126 17.0103 5.46253 16.7985 4.88056C16.5867 4.2986 16.2558 3.90181 15.8057 3.69018C15.1173 3.42565 14.2437 3.22726 13.1847 3.09499C12.1521 2.96273 10.7754 2.88337 9.05452 2.85692C8.52502 2.88337 8.1676 3.04209 7.98228 3.33307C7.82343 3.5976 7.744 4.0473 7.744 4.68217V14.0465Z" fill="white"/>
<path d="M36.5857 28.4898C36.5328 28.5956 36.4137 28.675 36.2283 28.7279C36.0695 28.8072 35.8842 28.8469 35.6724 28.8469C35.2487 28.8469 34.9708 28.7279 34.8384 28.4898C34.3354 27.273 33.2631 24.6012 31.6216 20.4746C29.9802 16.3215 27.9019 10.7267 25.3867 3.69018C25.2544 3.26694 25.069 2.97595 24.8308 2.81723C24.6189 2.65852 24.4204 2.57916 24.2351 2.57916H22.8054C22.6465 2.57916 22.5671 2.39399 22.5671 2.02365C22.5671 1.86493 22.5804 1.70621 22.6068 1.54749C22.6598 1.38878 22.726 1.30942 22.8054 1.30942C23.1761 1.30942 23.6394 1.32265 24.1953 1.3491C24.7778 1.3491 25.347 1.36232 25.903 1.38878C26.459 1.38878 26.8826 1.38878 27.1738 1.38878C27.4121 1.38878 27.796 1.38878 28.3255 1.38878C28.855 1.36232 29.4242 1.3491 30.0331 1.3491C30.6685 1.3491 31.2642 1.3491 31.8202 1.3491C32.4027 1.32265 32.8527 1.30942 33.1704 1.30942C33.3028 1.30942 33.3955 1.402 33.4484 1.58718C33.5279 1.74589 33.5676 1.90461 33.5676 2.06333C33.5676 2.38076 33.4352 2.53948 33.1704 2.53948H30.8671C30.3905 2.53948 30.1126 2.68497 30.0331 2.97595C29.9537 3.24048 29.9802 3.63728 30.1126 4.16634C30.3244 4.95992 30.6156 5.97836 30.9862 7.22165C31.3834 8.46493 31.8202 9.82726 32.2968 11.3086C32.7998 12.79 33.3028 14.2978 33.8059 15.8321C34.3354 17.3663 34.8384 18.8477 35.3149 20.2762C35.7915 21.7046 36.2019 22.9611 36.546 24.0457H36.7049C37.9492 20.6068 39.0215 17.5251 39.9216 14.8004C40.8483 12.0758 41.5896 9.84049 42.1455 8.09459C42.7015 6.3487 43.0325 5.22445 43.1384 4.72185C43.1913 4.43086 43.231 4.17956 43.2575 3.96794C43.3105 3.75631 43.3369 3.57114 43.3369 3.41243C43.3369 2.85692 43.2178 2.57916 42.9795 2.57916H40.3585C40.1467 2.57916 40.0408 2.40722 40.0408 2.06333C40.0408 1.90461 40.0672 1.74589 40.1202 1.58718C40.1731 1.402 40.2526 1.30942 40.3585 1.30942C41.0468 1.30942 41.8808 1.32265 42.8604 1.3491C43.84 1.37555 44.7004 1.38878 45.4417 1.38878C45.7859 1.38878 46.2492 1.38878 46.8317 1.38878C47.4406 1.36232 48.0363 1.3491 48.6187 1.3491C49.2012 1.32265 49.6248 1.30942 49.8895 1.30942C49.9954 1.30942 50.0749 1.38878 50.1278 1.54749C50.1808 1.70621 50.2072 1.86493 50.2072 2.02365C50.2072 2.36754 50.1013 2.53948 49.8895 2.53948H47.9833C47.6127 2.53948 47.3214 2.67174 47.1096 2.93627C46.8978 3.17435 46.7125 3.47856 46.5537 3.8489C45.7065 5.85932 44.8195 8.04169 43.8929 10.396C42.9663 12.7239 42.0529 15.0385 41.1527 17.3399C40.2526 19.6413 39.4054 21.7708 38.6111 23.7283C37.8168 25.6593 37.1417 27.2465 36.5857 28.4898Z" fill="white"/>
<path d="M59.5956 23.2124C59.5956 24.2176 59.6353 24.9716 59.7147 25.4742C59.8206 25.9768 59.9398 26.3074 60.0722 26.4661C60.2045 26.6249 60.3237 26.7042 60.4296 26.7042H62.7329C62.9447 26.7042 63.0506 26.9555 63.0506 27.4581C63.0506 27.5639 63.0241 27.683 62.9712 27.8152C62.9447 27.9475 62.8653 28.0136 62.7329 28.0136C61.9122 28.0136 61.065 28.0136 60.1913 28.0136C59.3441 27.9872 58.5234 27.974 57.7291 27.974C56.6171 27.974 55.7302 27.9872 55.0683 28.0136C54.4065 28.0136 53.8637 28.0269 53.4401 28.0533C53.0165 28.0798 52.5929 28.093 52.1693 28.093C52.0634 28.093 51.984 28.0269 51.931 27.8946C51.8781 27.7623 51.8516 27.6168 51.8516 27.4581C51.8516 27.273 51.8781 27.1142 51.931 26.982C51.984 26.8233 52.0634 26.7439 52.1693 26.7439H53.877C54.5653 26.7439 55.0022 26.6116 55.1875 26.3471C55.3993 26.0826 55.5052 25.6064 55.5052 24.9186V6.11062C55.5052 5.07896 55.4522 4.32505 55.3463 3.8489C55.2669 3.34629 55.161 3.01563 55.0286 2.85692C54.9227 2.6982 54.8036 2.61884 54.6712 2.61884H52.3679C52.1561 2.61884 52.0502 2.36754 52.0502 1.86493C52.0502 1.73267 52.0634 1.61363 52.0899 1.50782C52.1428 1.37555 52.2355 1.30942 52.3679 1.30942C53.2151 1.30942 54.0623 1.32265 54.9095 1.3491C55.7567 1.3491 56.5774 1.3491 57.3717 1.3491C58.5101 1.3491 59.397 1.3491 60.0324 1.3491C60.6943 1.32265 61.2371 1.29619 61.6607 1.26974C62.0843 1.24329 62.5079 1.23006 62.9315 1.23006C63.0639 1.23006 63.1433 1.29619 63.1698 1.42846C63.2227 1.56072 63.2492 1.70621 63.2492 1.86493C63.2492 2.0501 63.2227 2.22205 63.1698 2.38076C63.1168 2.51303 63.0374 2.57916 62.9315 2.57916H61.2238C60.5619 2.57916 60.1251 2.71142 59.9133 2.97595C59.7015 3.24048 59.5956 3.71663 59.5956 4.40441V23.2124Z" fill="white"/>
<path d="M84.9637 25.5138C84.4607 23.9002 83.9312 22.2866 83.3752 20.673C82.8192 19.0593 82.2633 17.4192 81.7073 15.7527H74.5192C73.6456 18.5303 72.8116 21.3475 72.0173 24.2044C71.9114 24.6277 71.832 24.998 71.7791 25.3154C71.7261 25.6329 71.6996 25.8974 71.6996 26.109C71.6996 26.5058 71.7791 26.7042 71.9379 26.7042H74.7972C74.9561 26.7042 75.062 26.7836 75.1149 26.9423C75.1944 27.0746 75.2341 27.2068 75.2341 27.3391C75.2341 27.4449 75.1944 27.5904 75.1149 27.7756C75.062 27.9343 74.9296 28.0136 74.7178 28.0136C74.2942 28.0136 73.7647 28.0136 73.1293 28.0136C72.4939 27.9872 71.8585 27.974 71.2231 27.974C70.5877 27.974 70.0449 27.974 69.5949 27.974C68.8271 27.974 68.0858 27.9872 67.3709 28.0136C66.6561 28.0665 65.928 28.093 65.1867 28.093C64.9485 28.093 64.8293 27.8681 64.8293 27.4184C64.8293 26.9688 64.9485 26.7439 65.1867 26.7439H67.1724C67.7548 26.7439 68.1917 26.4529 68.4829 25.871C69.2507 24.2309 69.939 22.6172 70.548 21.0301C71.1569 19.4429 71.7658 17.7896 72.3748 16.0701C72.9837 14.3507 73.6323 12.5255 74.3207 10.5944C75.0355 8.66333 75.8562 6.5471 76.7829 4.24569C76.8623 4.03407 76.9417 3.83567 77.0212 3.6505C77.1006 3.43888 77.1403 3.25371 77.1403 3.09499C77.1403 2.85692 77.0873 2.65852 76.9814 2.4998C76.8755 2.34108 76.8226 2.20882 76.8226 2.10301C76.8226 1.89138 76.955 1.78557 77.2197 1.78557C77.7757 1.78557 78.1993 1.69299 78.4905 1.50782C78.7818 1.32265 78.9936 1.12425 79.1259 0.912626C79.2583 0.674549 79.3774 0.462926 79.4834 0.277754C79.5893 0.0925848 79.7349 0 79.9202 0C80.0261 0 80.1188 0.132264 80.1982 0.396793C80.2776 0.63487 80.3703 0.899399 80.4762 1.19038L88.4585 22.7363C89.0409 24.2706 89.491 25.3154 89.8087 25.871C90.1264 26.4265 90.3779 26.7042 90.5632 26.7042H91.9929C92.2576 26.7042 92.39 26.9026 92.39 27.2994C92.39 27.4846 92.3635 27.6565 92.3106 27.8152C92.2841 27.9475 92.2047 28.0136 92.0723 28.0136C91.0398 28.0136 90.1132 28.0136 89.2924 28.0136C88.4982 27.9872 87.7436 27.974 87.0288 27.974C86.3404 27.974 85.5197 27.9872 84.5666 28.0136C83.64 28.0665 82.7795 28.093 81.9853 28.093C81.747 28.093 81.6278 27.8549 81.6278 27.3788C81.6278 26.9555 81.747 26.7439 81.9853 26.7439H84.2489C84.9902 26.7439 85.2285 26.3339 84.9637 25.5138ZM78.1331 5.43608C77.5771 6.89099 77.0476 8.3459 76.5446 9.80081C76.0416 11.2293 75.5385 12.6842 75.0355 14.1655H81.1513C80.7012 12.7635 80.2247 11.3483 79.7216 9.91984C79.2451 8.46493 78.7685 6.97034 78.292 5.43608H78.1331Z" fill="white"/>
<path d="M117.948 28.4898C117.948 28.4898 117.657 28.1459 117.074 27.4581C116.492 26.7704 115.698 25.8313 114.692 24.6409C113.712 23.4505 112.587 22.1014 111.316 20.5936C110.045 19.0858 108.721 17.5118 107.345 15.8717C105.994 14.2317 104.657 12.618 103.334 11.0309C102.01 9.44369 100.792 7.97555 99.6801 6.62646H99.5213C99.5742 10.4357 99.6139 13.782 99.6404 16.6653C99.6669 19.5487 99.7066 21.9295 99.7595 23.8076C99.786 24.4954 99.8654 25.1567 99.9978 25.7916C100.13 26.4 100.329 26.7042 100.594 26.7042H102.778C102.91 26.7042 103.003 26.7836 103.056 26.9423C103.109 27.0746 103.135 27.2333 103.135 27.4184C103.135 27.8152 103.016 28.0136 102.778 28.0136C101.798 28.0136 100.991 28.0136 100.355 28.0136C99.7198 27.9872 99.1241 27.974 98.5682 27.974C97.668 27.974 96.7943 27.9872 95.9471 28.0136C95.0999 28.0665 94.3983 28.093 93.8423 28.093C93.7364 28.093 93.657 28.0269 93.6041 27.8946C93.5776 27.7359 93.5643 27.5772 93.5643 27.4184C93.5643 27.2597 93.5776 27.1142 93.6041 26.982C93.657 26.8233 93.7364 26.7439 93.8423 26.7439H95.1529C95.7353 26.7439 96.1589 26.6778 96.4237 26.5455C96.7149 26.3868 96.8737 26.0958 96.9002 25.6726C97.0326 24.3235 97.1385 22.7495 97.2179 20.9507C97.3238 19.1519 97.4032 17.2605 97.4562 15.2766C97.5356 13.2926 97.5886 11.3615 97.6151 9.48337C97.668 7.57876 97.6945 5.85932 97.6945 4.32505L97.4165 4.00762C97.0988 3.61082 96.7943 3.31984 96.5031 3.13467C96.2383 2.92305 95.8942 2.77756 95.4706 2.6982C95.0734 2.61884 94.491 2.57916 93.7232 2.57916C93.6438 2.57916 93.5776 2.52625 93.5246 2.42044C93.4981 2.28818 93.4849 2.15591 93.4849 2.02365C93.4849 1.86493 93.4981 1.70621 93.5246 1.54749C93.5776 1.38878 93.6438 1.30942 93.7232 1.30942C94.0674 1.30942 94.5439 1.32265 95.1529 1.3491C95.7883 1.3491 96.4634 1.3491 97.1782 1.3491C97.9195 1.3491 98.6211 1.36232 99.283 1.38878C99.9449 1.38878 100.488 1.38878 100.911 1.38878C100.911 1.38878 101.163 1.71944 101.666 2.38076C102.195 3.01563 102.884 3.87535 103.731 4.95992C104.604 6.04449 105.571 7.26133 106.63 8.61042C107.715 9.93307 108.814 11.2954 109.926 12.6974C111.038 14.0994 112.097 15.4485 113.103 16.7447C114.109 18.0144 114.983 19.1255 115.724 20.0778C116.492 21.0301 117.035 21.7311 117.352 22.1808H117.511C117.485 19.7206 117.458 17.3663 117.432 15.1178C117.405 12.8693 117.366 10.8192 117.313 8.96754C117.26 7.08938 117.18 5.50221 117.074 4.20601C116.995 3.1479 116.704 2.61884 116.201 2.61884H114.294C114.189 2.61884 114.096 2.56593 114.016 2.46012C113.963 2.32786 113.937 2.19559 113.937 2.06333C113.937 1.90461 113.963 1.74589 114.016 1.58718C114.096 1.402 114.189 1.30942 114.294 1.30942C114.877 1.30942 115.578 1.32265 116.399 1.3491C117.22 1.37555 117.961 1.38878 118.623 1.38878C119.364 1.38878 120.159 1.37555 121.006 1.3491C121.853 1.29619 122.621 1.26974 123.309 1.26974C123.415 1.26974 123.495 1.36232 123.548 1.54749C123.627 1.73267 123.667 1.90461 123.667 2.06333C123.667 2.40722 123.548 2.57916 123.309 2.57916H121.443C120.887 2.57916 120.529 2.71142 120.37 2.97595C120.238 3.24048 120.132 3.70341 120.053 4.36473C119.973 5.10541 119.894 6.29579 119.815 7.93587C119.735 9.5495 119.669 11.4673 119.616 13.6894C119.563 15.885 119.51 18.2525 119.457 20.792C119.431 23.3315 119.417 25.8974 119.417 28.4898C119.364 28.675 119.153 28.7675 118.782 28.7675C118.411 28.7675 118.133 28.675 117.948 28.4898Z" fill="white"/>
</g>
</svg>
