<svg width="183" height="48" viewBox="0 0 183 48" fill="none" xmlns="http://www.w3.org/2000/svg">
<path d="M54.3743 40.1192C55.6904 40.6066 55.1264 40.4566 55.8408 41.4689C55.6528 42.6686 55.9912 42.2188 55.2768 43.381C54.8631 43.8309 54.2239 44.2808 53.9231 44.8432C53.4342 45.0681 53.3966 45.1056 53.0958 45.593C52.8326 45.668 52.3437 45.9304 52.1181 46.1179C51.6669 46.3053 51.0276 46.5678 50.6516 46.9052C50.2003 46.9427 50.0123 47.0177 49.6363 47.2801C49.3355 47.3176 48.809 47.4676 48.5834 47.6175C47.8689 47.4676 47.0793 47.7675 46.4024 47.88C45.7255 47.9175 44.8983 48.0299 44.2214 47.9925C43.9582 47.9175 43.3941 47.8425 43.0933 47.9175C42.6045 47.6925 42.5669 47.6925 42.0028 47.7675C41.2132 47.4301 40.1979 47.3176 39.333 47.1301C38.8442 47.0927 38.1673 47.0177 37.7537 46.7177L37.1896 46.6428C36.588 46.3428 35.7607 46.1554 35.1214 45.9304C34.8582 45.7804 34.3318 45.668 34.0309 45.7055C33.7677 45.593 33.2789 45.368 33.0533 45.2181L32.4892 45.1431C31.6619 44.8057 30.7595 44.4308 29.8946 44.2433C29.4809 43.9434 29.3681 43.9059 28.8417 43.9434C28.6161 43.8309 28.1272 43.5684 27.864 43.456C27.3376 43.4185 27.2624 43.4185 26.8487 43.1185C26.5479 43.1185 26.0214 43.0061 25.7582 42.8936C24.9686 42.4437 23.9909 42.4062 23.2012 41.9938C22.4867 41.9563 21.6595 41.8063 21.0578 41.4689C20.1929 41.5064 19.2529 41.0565 18.388 41.019C17.8991 40.9065 17.2975 40.6441 16.8087 40.5691C16.5078 40.6066 15.9814 40.6066 15.6806 40.5316C15.4173 40.4192 14.9285 40.2692 14.6277 40.2317C14.3644 40.2692 13.838 40.1942 13.5372 40.1192C13.0483 40.0817 12.3715 40.2317 11.9202 40.0067C11.2434 40.0442 10.3785 40.1192 9.73924 39.8943C8.31032 39.8193 9.02478 40.2317 7.44544 39.5568C6.58057 38.807 6.50536 37.4198 7.40784 36.7075C7.82148 36.2951 8.57354 35.8452 9.13759 36.1826C9.81445 36.1451 10.4913 35.6952 11.1682 35.7702C11.5818 35.6202 11.7698 35.4703 12.033 35.1703C12.9731 34.7204 13.7628 33.7831 14.1764 32.8459C14.5901 31.6836 14.8157 30.4089 14.9661 29.1342C15.0037 29.0967 14.8157 28.6093 14.9285 28.5718C14.8533 28.4968 14.8909 28.0469 14.8533 28.0094C15.0789 27.1471 14.6277 26.1723 14.9661 25.31C15.0037 24.4477 14.8533 23.473 15.0037 22.6106C14.8909 22.3107 14.8909 21.8608 14.9661 21.5234C14.9661 21.2609 14.9285 20.7361 14.8533 20.4736C14.9661 19.9862 15.0037 19.3114 14.8157 18.824C15.0789 18.1866 14.8157 17.3618 14.8533 16.687C15.0789 16.0121 14.8157 15.1873 14.8909 14.5125C15.0789 13.2752 14.7405 11.963 14.9661 10.7258L14.8533 10.2009L14.9285 9.67604C15.0789 8.96371 14.7781 8.17638 14.9285 7.50153C14.7029 6.67672 14.1764 5.88939 13.7628 5.13956C13.3492 4.87712 12.7851 4.61468 12.4467 4.23976C11.9578 4.23976 11.3562 3.93983 10.8673 3.97732C10.6041 3.97732 10.0777 3.93983 9.81445 3.90234C9.55122 4.01481 9.02478 4.12729 8.72395 4.12729C8.0471 4.46471 7.37024 4.57719 6.84379 5.17705C6.39255 5.402 6.27974 5.51448 6.05412 5.92688C5.00123 6.71421 4.6628 8.1014 4.17396 9.22614C4.02355 9.90099 4.06115 10.7633 3.83553 11.4007C3.98594 11.888 4.02355 11.963 3.91074 12.4879C3.98594 12.7504 4.06115 13.2752 4.02355 13.5377C4.02355 13.8376 4.21156 14.325 4.36198 14.55C4.47479 15.0373 4.70041 15.6372 4.92603 16.0496C4.96363 16.3121 5.11404 16.8369 5.22685 17.0619C5.60288 17.3993 5.71569 17.5493 5.7909 17.9992C6.20454 18.749 7.06941 19.3114 7.44544 20.0987C8.46073 20.8485 9.85205 21.9733 9.40081 23.398C8.38552 24.8601 7.40784 24.9726 5.97892 23.9228C5.8285 23.6979 5.45247 23.323 5.18925 23.2105C4.77561 22.9481 4.36198 22.4232 4.17396 21.9733C3.4971 21.4484 3.04586 20.5486 2.48181 19.9112C2.40661 19.4988 2.2938 19.2739 1.95537 18.974C1.88016 18.7115 1.69215 18.2241 1.50413 18.0367C1.46653 17.7367 1.24091 17.2868 1.05289 17.0619C0.902478 16.2371 0.488842 15.4123 0.300826 14.55C0.376032 13.5377 0 12.4504 0 11.4007C0.263223 10.9133 0.150413 10.2759 0.150413 9.75103C0.413636 9.30113 0.564049 8.66377 0.526445 8.17638C0.639255 7.91394 0.789668 7.38906 0.827271 7.12662C1.1281 6.67672 1.42892 6.07685 1.50413 5.58946C1.84256 5.21454 2.06818 4.57719 2.44421 4.23976C2.93305 3.22749 4.02355 2.70261 4.70041 1.87779C5.52768 1.16545 6.73098 1.01549 7.63346 0.41562C8.68635 0.265655 9.81445 -0.0342778 10.8673 0.00321326C11.5442 0.115689 12.2963 0.265655 12.9355 0.378129C13.65 0.790538 14.5901 1.01549 15.2293 1.57786C15.7558 1.65284 16.1694 2.17773 16.4326 2.59013C17.4855 3.33996 17.1471 3.52742 17.7863 4.31475L17.9367 4.83963C18.2376 5.17705 18.3504 5.36451 18.4632 5.81441C18.5384 6.71421 18.8392 7.68899 18.8016 8.58879C18.7264 9.26364 18.7264 10.0885 18.8016 10.7258C18.6888 11.2132 18.6888 11.3257 18.8016 11.8131C18.5384 12.4879 18.6888 13.3127 18.7264 13.9876C18.6888 14.6624 18.6136 15.4872 18.8016 16.1246C18.8768 16.8369 18.5384 17.6243 18.764 18.2991C18.6512 19.7238 18.9144 21.186 18.6888 22.6106L18.8016 23.173C18.6512 23.8479 18.7264 24.6727 18.8392 25.31C18.7264 25.61 18.7264 26.1349 18.8016 26.3973C18.6888 26.6972 18.6512 27.1471 18.7264 27.4846C18.6888 27.7845 18.6888 28.2719 18.8016 28.5718C18.7264 29.2467 18.6888 30.0715 18.576 30.7463C18.6136 31.1962 18.6136 31.3837 18.4256 31.8336C18.4256 32.096 18.3504 32.6584 18.2752 32.9208C18.0872 33.1833 17.8615 33.6707 17.8991 34.0081L17.5983 34.458C17.5231 35.5827 18.1248 36.5575 19.1024 37.0824C20.3058 37.4948 21.6219 37.6448 22.8628 38.0572C25.119 38.6945 27.4128 39.2569 29.6314 40.0442C29.9322 40.0817 30.421 40.2317 30.6842 40.3817C32.3388 41.0565 34.1061 41.5439 35.7983 42.1063C37.1896 42.4437 38.5433 43.231 39.9723 43.3435C40.2355 43.381 40.7243 43.5684 40.9875 43.7184C41.4764 43.6809 42.1156 43.8684 42.6045 44.0183C43.8454 43.9809 45.1615 44.0933 46.44 44.0933L46.9665 43.8684L47.5305 43.9059L48.5458 43.456C49.0346 43.456 49.2227 43.4185 49.6363 43.1935C49.8619 43.0061 50.3131 42.7436 50.614 42.6686C50.9148 42.2937 51.366 41.8438 51.8173 41.6189L51.9677 41.169C52.5693 40.6441 53.547 39.5194 54.3743 40.1192ZM9.06238 2.44017C9.09999 2.40268 9.13759 2.32769 9.09999 2.2902C9.06238 2.17773 8.94957 2.17773 8.91197 2.25271C8.87437 2.2902 8.83676 2.36518 8.83676 2.40268C8.83676 2.40268 8.83676 2.44017 8.83676 2.47766L8.79916 2.59013C8.79916 2.62762 8.79916 2.62762 8.79916 2.66512C8.87437 2.85258 9.09999 2.77759 9.06238 2.59013C9.06238 2.55264 9.06238 2.55264 9.06238 2.44017ZM8.0471 2.62762C8.15991 2.62762 8.15991 2.40268 8.0471 2.40268C7.89668 2.40268 7.89668 2.62762 8.0471 2.62762ZM6.88139 3.07752C6.9942 3.04003 6.9942 2.85258 6.88139 2.85258C6.76858 2.85258 6.76858 3.04003 6.88139 3.07752ZM15.0037 3.78986C15.0789 3.75237 15.0413 3.60241 14.9661 3.56492C14.8157 3.52742 14.6653 3.48993 14.5525 3.45244C14.4773 3.41495 14.402 3.37746 14.3268 3.41495C14.2516 3.45244 14.2516 3.60241 14.3644 3.6399C14.402 3.6399 14.402 3.67739 14.4396 3.67739L14.6653 3.75237C14.7029 3.75237 14.7029 3.78986 14.7405 3.78986C14.8157 3.78986 14.9285 3.82736 15.0037 3.78986ZM2.66983 7.83896C2.74504 7.80147 2.78264 7.6515 2.66983 7.57652C2.70743 7.57652 2.70743 7.53902 2.70743 7.50153C2.66983 7.42655 2.55702 7.35157 2.48181 7.42655C2.44421 7.50153 2.44421 7.57652 2.44421 7.6515C2.44421 7.76397 2.55702 7.87645 2.66983 7.83896ZM1.95537 11.2507C2.06818 11.2507 2.06818 11.0257 1.95537 11.0257C1.80496 11.0257 1.80496 11.2507 1.95537 11.2507ZM2.25619 14.9999C2.369 14.9999 2.369 14.7749 2.25619 14.7749C2.14339 14.7749 2.14339 14.9999 2.25619 14.9999ZM16.4702 15.2998C16.3198 15.2998 16.3198 15.5247 16.4702 15.5247C16.583 15.5247 16.583 15.2998 16.4702 15.2998ZM3.12107 16.2746C3.15867 16.2371 3.15867 16.1996 3.15867 16.1621C3.15867 16.0496 3.04586 15.9746 2.97066 16.0496C2.89545 16.1621 2.82024 16.2371 2.78264 16.3121C2.74504 16.3495 2.70743 16.387 2.70743 16.462C2.70743 16.5745 2.82024 16.6495 2.93305 16.537C2.97066 16.462 3.04586 16.3495 3.12107 16.2746ZM5.00123 19.2739C4.92603 19.3864 4.81322 19.4988 4.92603 19.6113C4.92603 19.6488 5.00123 19.6488 5.07644 19.6488L5.11404 19.6113V19.5738C5.18925 19.4614 5.22685 19.3864 5.22685 19.3114C5.18925 19.1989 5.03884 19.1614 5.00123 19.2739ZM16.583 20.6611C16.583 20.7361 16.5454 20.7736 16.583 20.8485C16.6582 20.961 16.771 20.9235 16.8087 20.811C16.8839 20.5861 16.9215 20.3611 16.9967 20.1737C16.9967 20.0237 17.0343 19.9112 17.0343 19.7988C17.0343 19.6488 16.8463 19.6488 16.8087 19.7988C16.771 20.0237 16.6958 20.2487 16.6206 20.5486V20.6236L16.583 20.6611ZM6.20454 21.4859C6.01652 21.3359 5.90371 21.5984 6.05412 21.7108C6.20454 21.8608 6.35495 21.5984 6.20454 21.4859ZM16.5454 25.1601C16.4326 25.1601 16.4326 25.385 16.5454 25.385C16.6958 25.385 16.6958 25.1601 16.5454 25.1601ZM16.6958 29.1342C16.771 29.2092 16.8087 29.2841 16.9215 29.3216C16.9591 29.3591 16.9591 29.3591 16.9967 29.3591H17.0719C17.3351 29.3591 17.3727 29.0592 17.2975 28.8342C17.2223 28.6843 17.0719 28.4593 16.8839 28.4218C16.7334 28.4218 16.5454 28.4593 16.5078 28.6468C16.4702 28.7218 16.5454 28.8342 16.6206 28.9467C16.6206 29.0217 16.6582 29.0967 16.6958 29.1342ZM17.1095 29.0592C17.0719 29.0592 17.0719 29.0592 17.0719 29.0592L16.8087 28.7968C16.8463 28.7593 16.8463 28.7593 16.8839 28.7218H16.9215C16.9967 28.7968 17.1095 28.9467 17.1095 29.0592ZM16.6582 31.7961C16.8087 31.7961 16.8087 31.5711 16.6582 31.5711C16.5454 31.5711 16.5454 31.7961 16.6582 31.7961ZM16.2446 33.1458C16.3574 33.1458 16.3574 32.9208 16.2446 32.9208C16.1318 32.9208 16.1318 33.1458 16.2446 33.1458ZM14.9661 35.4328C14.8533 35.4328 14.8533 35.6577 14.9661 35.6577C15.1165 35.6577 15.1165 35.4328 14.9661 35.4328ZM14.8909 36.2576C14.9285 36.1076 14.7781 35.9577 14.6653 36.0701C14.6277 36.1451 14.5901 36.1826 14.5525 36.2201C14.5149 36.2201 14.4396 36.2201 14.3644 36.2576C14.214 36.3326 14.1764 36.6325 14.402 36.6325H14.4396L14.4773 36.595H14.5149C14.5901 36.6325 14.6653 36.67 14.7405 36.5575C14.7405 36.52 14.7405 36.4825 14.7405 36.445C14.8157 36.3701 14.8533 36.2951 14.8909 36.2576ZM13.6124 36.2951C13.7252 36.2951 13.7252 36.0701 13.6124 36.0701C13.4996 36.0701 13.4996 36.2951 13.6124 36.2951ZM16.2822 36.745C16.3198 36.6325 16.3198 36.5575 16.2822 36.445C16.2446 36.3326 16.1694 36.2201 16.0566 36.2201C15.9062 36.1826 15.8686 36.3701 15.9438 36.445C15.8686 36.52 15.7934 36.6325 15.831 36.7825C15.831 36.8575 15.9438 36.9699 16.0566 36.9324C16.1318 36.8949 16.207 36.82 16.2822 36.745ZM14.1764 38.0947C14.3268 38.1322 14.4773 37.8322 14.4396 37.6448C14.402 37.5698 14.3644 37.5323 14.3268 37.4948C14.2892 37.4573 14.2516 37.4573 14.214 37.4573C14.1012 37.4948 14.1012 37.6448 14.1764 37.7198C14.1388 37.7198 14.1388 37.7198 14.1388 37.7198C14.026 37.7947 13.9884 38.0947 14.1764 38.0947ZM15.0789 37.8697C15.2293 37.8697 15.2293 37.6448 15.0789 37.6448C14.9661 37.6448 14.9661 37.8697 15.0789 37.8697ZM17.3351 38.732C17.4479 38.732 17.4855 38.5446 17.4103 38.4696L17.1471 38.3571C17.1095 38.3196 16.9967 38.3571 16.9967 38.4321C16.9591 38.5821 17.1095 38.6196 17.2223 38.657C17.2599 38.6945 17.2975 38.732 17.3351 38.732ZM18.7264 38.957C18.8392 39.0695 18.9896 38.882 18.8768 38.7695C18.764 38.657 18.6512 38.8445 18.7264 38.957ZM29.5562 41.8438C29.7066 41.8063 29.7066 41.6189 29.5562 41.6189C29.4433 41.6189 29.4433 41.8063 29.5562 41.8438ZM31.4739 42.6686C31.5867 42.6312 31.5491 42.4062 31.3987 42.4062V42.3687C31.3235 42.2562 31.1731 42.2562 31.0979 42.2937C30.9475 42.3312 30.9475 42.5187 31.0603 42.5937C31.1731 42.6686 31.3235 42.7436 31.4739 42.6686ZM33.3541 43.306C33.4669 43.306 33.4669 43.0811 33.3541 43.0811C33.2413 43.0811 33.2413 43.306 33.3541 43.306ZM52.9454 43.6809C53.0206 43.5684 52.9454 43.4185 52.795 43.4935C52.6445 43.6434 52.4565 43.7559 52.3061 43.8309C52.1933 43.9059 52.1181 43.9434 52.0429 43.9809C52.0429 43.9809 52.0053 43.9809 51.9677 44.0183C51.9301 44.0933 51.9677 44.2433 52.0429 44.2433C52.1181 44.2433 52.1933 44.1683 52.3061 44.1308C52.5317 44.0183 52.795 43.8684 52.9454 43.6809ZM50.2755 45.0681C50.426 45.0681 50.426 44.8807 50.2755 44.8432C50.1627 44.8807 50.1627 45.0681 50.2755 45.0681ZM48.0193 45.743C48.0569 45.7055 48.0946 45.668 48.0946 45.593C48.0946 45.4805 47.9817 45.4055 47.9065 45.4805C47.8689 45.518 47.8313 45.5555 47.7937 45.593C47.7937 45.5555 47.7937 45.5555 47.7561 45.5555C47.7185 45.4805 47.6057 45.4055 47.4929 45.4055C47.3425 45.443 47.3425 45.668 47.4177 45.743C47.3049 45.8179 47.1921 45.8554 47.0417 45.8929C47.0041 45.8929 46.9665 45.8929 46.9289 45.9304C46.8913 45.9679 46.8913 46.0804 46.9665 46.1554C47.0041 46.1929 47.0417 46.1554 47.1169 46.1554C47.1545 46.1554 47.1921 46.1179 47.1921 46.1179H47.3049C47.3425 46.0804 47.3801 46.0804 47.4177 46.0429C47.4553 46.0804 47.4553 46.0804 47.4929 46.1179C47.6057 46.1554 47.7185 46.1554 47.7937 46.0804C47.8689 46.0054 47.9065 45.9304 47.9065 45.8554C47.9441 45.8179 47.9817 45.7804 48.0193 45.743ZM45.2367 45.8179C45.3871 45.8179 45.3495 45.593 45.2367 45.593C45.1239 45.593 45.1239 45.8179 45.2367 45.8179ZM46.1768 45.8179C46.3272 45.8179 46.3272 45.593 46.1768 45.593C46.064 45.593 46.064 45.8179 46.1768 45.8179ZM44.7103 46.1179C44.8607 46.1179 44.8607 45.8929 44.7103 45.8929C44.5975 45.8929 44.5975 46.1179 44.7103 46.1179Z" fill="#CC293D"/>
<path d="M36.2225 21.4859C36.0721 22.0483 36.0721 22.0108 36.2225 22.5732C36.0345 23.1355 36.0345 23.0605 36.1473 23.6604C36.0721 24.0728 36.1097 24.3353 36.2225 24.7477C36.2225 24.8226 36.2225 24.8601 36.2225 24.8976L36.1473 25.1226C36.1473 25.1601 36.1473 25.1976 36.1473 25.2725C35.9593 26.0224 36.0345 26.7347 36.1849 27.4471C36.0345 28.0094 35.9969 27.897 36.1473 28.5343C35.9969 29.0592 35.9593 29.5841 35.9969 30.109C35.2448 32.2085 33.4023 34.383 31.0709 34.458C30.4316 34.7579 30.6948 34.7204 30.018 34.5705C29.6795 34.4955 29.3035 34.533 28.9651 34.5705C28.6266 34.4205 28.2882 34.308 27.9498 34.233C27.1601 33.7831 26.22 33.6332 25.7688 32.7709C24.5279 31.6836 23.9638 30.1465 23.851 28.5343C23.851 28.2719 24.0014 28.2719 24.0014 27.9719C23.851 27.4096 23.8886 26.9222 23.9638 26.3598C23.8886 25.2725 23.7382 24.1853 23.9638 23.1355C23.8134 22.3857 23.8886 21.7108 23.9262 20.961C23.851 20.5486 23.851 20.2862 23.9262 19.8738C23.851 18.7865 23.9262 17.7367 24.0014 16.6495C23.9638 16.2371 23.8886 15.9371 23.851 15.5622C24.0014 15.0748 24.039 14.9999 23.9638 14.475C24.0014 13.9126 24.0014 13.4252 23.9262 12.8628C23.9638 12.263 24.0391 11.7756 23.851 11.2132C24.1895 9.97598 23.663 8.66377 24.0767 7.42655C24.2647 5.96438 26.6713 5.47699 27.2729 6.90167C27.649 7.38906 27.8746 7.95143 27.6114 8.5138C27.649 9.63855 27.6866 10.6883 27.7242 11.7756C27.6114 12.4879 27.5362 13.2377 27.7618 13.9501C27.649 14.5125 27.7618 14.9999 27.649 15.5622C27.5361 16.3121 27.8746 16.9494 27.6866 17.6992C27.7994 18.2616 27.7618 18.2991 27.6114 18.7865C27.6866 19.3864 27.837 19.8363 27.6866 20.4361C27.7618 20.811 27.7994 21.0735 27.7242 21.4859C27.649 21.8983 27.6866 22.1607 27.7618 22.5732C27.7618 23.173 27.6866 23.6229 27.6114 24.1853C27.7618 24.7852 27.7618 24.6727 27.6114 25.2725C27.649 25.685 27.6866 25.9474 27.7618 26.3598C27.7994 26.7722 27.7242 27.0347 27.6114 27.4471C27.649 27.8595 27.7242 28.1219 27.7242 28.5343C27.5362 30.8588 31.1461 31.8711 32.0485 29.5091C32.763 28.6093 32.1614 27.4096 32.3118 26.3598C32.3494 25.61 32.575 24.9351 32.3494 24.1853C32.3494 23.6229 32.387 23.1355 32.2742 22.5732C32.2742 22.3107 32.4622 22.3107 32.4622 22.0483C32.4622 21.7858 32.2742 21.7858 32.2742 21.4859C32.387 20.2112 32.3118 18.974 32.4622 17.6992C32.3494 17.2868 32.3118 17.0619 32.4246 16.6495C32.3494 16.0871 32.3494 15.5997 32.2742 14.9999C32.387 14.6249 32.4622 14.3625 32.4246 13.9501C32.3118 13.3502 32.199 12.9003 32.3494 12.3005C32.4246 11.5506 32.387 10.9133 32.3118 10.1634C32.387 9.56357 32.3118 9.07618 32.4246 8.5138C32.4246 8.25136 32.3118 8.25136 32.3118 7.98892C32.2742 7.08912 33.2894 5.92688 34.2295 6.11434C36.0345 5.92688 36.3353 8.28886 36.0721 9.60106C36.1473 10.6883 36.2977 11.7756 36.0721 12.8628C36.0345 13.2752 36.0721 13.5377 36.1473 13.9501L36.0345 14.9999C36.1097 15.4123 36.1849 15.6747 36.1849 16.0871C36.0345 16.5745 36.0345 16.687 36.1473 17.1744C36.0345 17.5868 36.0345 17.8492 36.1097 18.2616C36.0345 18.674 36.0345 18.9365 36.1097 19.3489C36.1473 19.7613 36.1097 20.0237 36.0721 20.4361C36.1849 20.811 36.2225 21.0735 36.2225 21.4859ZM34.1543 7.72648C34.0039 7.72648 34.0039 7.95143 34.1543 7.95143C34.2671 7.95143 34.2671 7.72648 34.1543 7.72648ZM25.9944 8.47631C26.1072 8.43882 26.1448 8.36384 26.22 8.25136L26.2576 8.21387V8.17638C26.2576 8.1014 26.1448 8.02641 26.0696 8.1014C25.9944 8.21387 25.9944 8.21387 25.8816 8.28886C25.8064 8.32635 25.7312 8.36384 25.6936 8.40133C25.656 8.40133 25.6184 8.40133 25.5808 8.43882C25.468 8.58879 25.6184 8.85123 25.8064 8.92621C25.8816 8.96371 25.9944 8.85123 25.9944 8.73876C26.032 8.66377 25.9568 8.58879 25.8816 8.5513C25.9192 8.5513 25.9568 8.5138 25.9944 8.47631ZM34.2295 9.18865C34.2671 9.07618 34.1167 9.0012 34.0415 9.07618C34.0039 9.03869 33.8911 9.03869 33.8159 9.11367C33.7407 9.22614 33.8159 9.4136 33.9663 9.4136H34.0039C34.0791 9.52608 34.2295 9.4136 34.1919 9.30113C34.2295 9.26364 34.2295 9.22614 34.2295 9.18865ZM34.1543 15.8622C34.2671 15.8622 34.2671 15.6372 34.1543 15.6372C34.0039 15.6372 34.0039 15.8622 34.1543 15.8622ZM25.8064 19.4239C25.9192 19.4239 25.9192 19.2739 25.9192 19.1989C25.8816 19.0115 25.656 19.0489 25.6936 19.2364V19.2739C25.6936 19.3489 25.7312 19.4239 25.8064 19.4239ZM34.5304 22.2732C34.4175 22.3482 34.4175 22.4607 34.4928 22.5732C34.4928 22.6106 34.4928 22.6481 34.5304 22.6856C34.6808 22.7606 34.756 22.5732 34.6808 22.4982C34.6432 22.4982 34.6432 22.4607 34.6432 22.4607C34.756 22.3857 34.6432 22.1982 34.5304 22.2732ZM25.844 22.8731C25.9944 22.8731 25.9944 22.6481 25.844 22.6481C25.7312 22.6481 25.7312 22.8731 25.844 22.8731ZM34.6056 24.8226C34.7184 24.8226 34.7184 24.5977 34.6056 24.5977C34.4552 24.5977 34.4552 24.8226 34.6056 24.8226ZM33.7783 28.4968C33.9287 28.4968 33.9287 28.2719 33.7783 28.2719C33.6655 28.2719 33.6655 28.4968 33.7783 28.4968ZM34.4552 29.3591C34.6432 29.2841 34.756 28.6843 34.756 28.4968C34.756 28.3469 34.568 28.3469 34.568 28.4593C34.5304 28.6093 34.4928 28.7218 34.4928 28.8717C34.4175 28.8717 34.3423 28.9092 34.3047 28.9467C34.2671 28.9842 34.2671 29.0592 34.2671 29.0967C34.2295 29.0967 34.2295 29.0967 34.2295 29.1342C34.2295 29.1342 34.2295 29.1342 34.2671 29.0967C34.2295 29.1717 34.2295 29.2467 34.2671 29.2841C34.3047 29.3591 34.3799 29.3966 34.4552 29.3591ZM25.9568 30.6713C26.1072 30.6713 26.1072 30.4464 25.9568 30.4464C25.844 30.4464 25.844 30.6713 25.9568 30.6713ZM33.5903 31.3837C33.7031 31.3837 33.6655 31.2712 33.6655 31.1962C33.6655 31.0837 33.5527 31.0088 33.4775 31.1212V31.2712C33.4775 31.3462 33.5151 31.4212 33.5903 31.3837Z" fill="#CC293D"/>
<path d="M51.4953 26.5098C51.7209 27.3346 51.5705 28.1969 51.4953 29.0592C51.5329 29.4341 51.4577 29.7715 51.2321 30.0715C51.2321 31.5711 49.8408 32.5459 48.9383 33.5207C48.4494 33.7831 47.9606 33.9706 47.547 34.308C46.7949 34.2705 46.1556 34.6454 45.4412 34.6829C45.0651 34.533 44.7267 34.4955 44.3507 34.5705C43.8618 34.3455 43.3354 34.2705 42.8089 34.1206C42.4329 33.7456 41.9817 33.4457 41.4928 33.2208C40.8536 32.3585 39.9511 31.6836 39.6879 30.5964C39.6503 30.2214 39.5375 29.9215 39.3494 29.5841C39.4247 29.2467 39.4247 28.8717 39.3118 28.5343C39.4247 27.9345 39.2366 27.4846 39.3118 26.9222C39.4247 26.3223 39.3118 25.8724 39.2366 25.2725C39.4247 23.6604 39.3118 22.0858 39.3871 20.4361C39.1614 19.0115 39.4623 17.5493 39.2742 16.1246C39.3871 15.2248 39.2742 14.3625 39.3494 13.4252C39.0862 12.038 39.5375 10.6133 39.8007 9.22614C40.628 8.13889 41.4928 6.7517 42.8842 6.37678C43.3354 6.03936 43.2602 6.03936 43.8618 5.96438C44.3507 5.81441 44.8771 5.66444 45.4412 5.66444C46.9453 5.62695 48.111 6.45177 49.3895 7.08912C50.2168 8.21387 51.4201 9.26364 51.3825 10.7633C51.7585 11.4756 51.3073 12.038 51.5329 12.7878C51.9089 15.1123 49.9536 16.4245 48.0734 14.8874C47.547 14.1001 47.9982 13.1253 47.6598 12.3005C47.923 10.7633 47.547 10.6133 46.4565 9.71354C45.554 9.30113 44.1251 9.52608 43.6738 10.4259C43.185 10.7633 43.185 10.7258 43.1474 11.2882C43.1098 12.038 42.9594 12.7504 43.1474 13.4252C43.1474 13.8376 43.0722 14.1001 42.997 14.5125C42.997 14.7749 43.1098 14.7749 43.1098 15.0748C42.997 15.4872 42.9594 15.6747 43.0346 16.1246C42.8842 17.2119 43.3354 18.2991 42.997 19.3489C42.997 19.6488 43.1098 19.6488 43.1098 19.9112C43.0346 20.3237 43.0346 20.5861 43.0722 20.9985C42.997 21.4109 43.0346 21.6734 43.1098 22.0483C43.1098 22.3482 43.0722 22.3482 43.0722 22.6106C43.1474 23.323 43.0346 23.9978 42.997 24.7477C43.1474 25.31 42.9218 25.7974 42.997 26.3598C42.8842 27.4471 43.373 26.9972 42.997 27.9719C42.9218 29.3591 43.5234 30.4839 44.9147 30.7463C45.4036 31.0837 45.93 30.8213 46.4189 30.5964C47.3213 30.3714 47.6974 29.3591 47.8478 28.5343C47.7726 28.1594 47.735 27.897 47.8102 27.522C47.6974 26.8472 47.6974 26.1723 47.7726 25.4975C47.5093 24.4852 48.487 22.8731 49.6527 23.2105C50.4048 23.2105 51.3073 23.6229 51.4201 24.4102C51.6457 25.1226 51.3825 25.7974 51.4953 26.5098ZM48.7879 8.92621C48.7503 8.96371 48.7503 9.03869 48.7879 9.07618C48.7503 9.11367 48.7127 9.15116 48.7127 9.18865C48.7503 9.26364 48.7879 9.33862 48.8255 9.4136C48.9383 9.60106 49.1639 9.67604 49.2767 9.4511C49.2767 9.37611 49.2767 9.30113 49.2391 9.22614C49.2015 9.07618 49.1263 8.96371 48.9759 8.92621C48.9383 8.88872 48.9007 8.88872 48.8631 8.88872C48.8255 8.88872 48.8255 8.88872 48.7879 8.92621ZM41.8689 9.78852C42.0193 9.78852 42.0193 9.56357 41.8689 9.56357C41.7561 9.56357 41.7561 9.78852 41.8689 9.78852ZM49.6151 12.4129C49.5023 12.3005 49.3895 12.4504 49.4647 12.5629C49.5023 12.6754 49.5399 12.7504 49.5399 12.8253C49.5775 12.8628 49.5775 12.9003 49.5775 12.9753L49.6151 13.0128V13.0503C49.6903 13.1253 49.8031 13.0878 49.8031 13.0128C49.8031 12.9753 49.8031 12.9753 49.8031 12.9378C49.8408 12.9003 49.8408 12.7878 49.8031 12.7504C49.8031 12.7129 49.7655 12.6379 49.7279 12.6004C49.6903 12.5254 49.6903 12.4504 49.6151 12.4129ZM41.2296 12.6754C41.192 12.6754 41.1544 12.6754 41.1544 12.7878C41.1544 12.8253 41.2296 12.9003 41.2672 12.9003C41.3048 12.9003 41.3048 12.8628 41.3048 12.8628C41.38 12.8628 41.4176 12.8253 41.4176 12.7878V12.7504C41.4176 12.7129 41.4176 12.6754 41.38 12.6379C41.3424 12.6004 41.2672 12.6004 41.2296 12.6379V12.6754ZM41.4552 17.3993C41.5304 17.3618 41.6056 17.2493 41.6056 17.1369C41.6056 16.9494 41.4176 16.762 41.3424 16.7245C41.2296 16.7245 41.192 16.8744 41.2296 16.9494C41.0416 17.0244 41.0792 17.2493 41.2296 17.3618C41.2296 17.3618 41.2296 17.3618 41.2672 17.3618L41.38 17.3993C41.38 17.3993 41.4176 17.3993 41.4552 17.3993ZM41.1168 20.5111C41.2672 20.5111 41.2672 20.2862 41.1168 20.2862C41.004 20.2862 41.004 20.5111 41.1168 20.5111ZM49.9536 25.46V25.385C49.916 25.2725 49.7655 25.2725 49.7655 25.385C49.6903 25.3475 49.6151 25.4225 49.6151 25.4975V25.535C49.6151 25.5725 49.6151 25.61 49.6527 25.6475C49.6903 25.7224 49.7279 25.7974 49.8031 25.7974C49.8408 25.7599 49.8784 25.7224 49.8784 25.6475C49.916 25.6475 49.916 25.61 49.916 25.5725C49.9536 25.4975 49.9536 25.4975 49.9536 25.46ZM49.4271 29.5091C49.5399 29.5091 49.5399 29.2841 49.4271 29.2841C49.2767 29.2841 49.2767 29.5091 49.4271 29.5091ZM41.3424 29.5091C41.4928 29.5091 41.4928 29.2841 41.3424 29.2841C41.2296 29.2841 41.2296 29.5091 41.3424 29.5091ZM47.1709 32.5459C47.2837 32.5459 47.2837 32.321 47.1709 32.321C47.0581 32.321 47.0581 32.5459 47.1709 32.5459Z" fill="#CC293D"/>
<path d="M66.5889 29.6591C66.6641 30.4089 67.0025 31.0088 67.1529 31.7211C67.6042 32.246 67.341 32.8458 67.1153 33.4082C67.0025 33.5582 66.7769 33.6332 66.6265 33.7456C66.4761 33.8581 66.4009 34.1206 66.2129 34.1955C65.2728 34.308 63.9191 34.1581 63.7686 33.0333C63.2798 32.171 63.731 32.2835 63.0918 31.4962C62.791 30.6338 62.6029 29.734 62.1141 28.9092C62.0389 28.4968 61.9637 28.2719 61.7005 27.897C61.6253 27.4846 61.55 27.2221 61.3244 26.8472C61.2492 26.2473 60.986 25.8349 60.6852 25.31C60.5348 24.7477 60.3467 24.2978 60.0459 23.7729C59.9331 23.248 59.7827 23.173 59.2939 23.4355C58.4666 23.6229 58.1282 26.2473 58.1658 27.0347C57.9777 27.9719 58.3538 28.7968 58.1282 29.6966C58.1658 30.109 58.1658 30.3714 58.1282 30.7463C58.2786 31.3837 58.2786 31.1962 58.1282 31.8336C58.8802 34.1206 55.1575 35.2453 54.5558 32.8833C54.443 32.5084 54.4806 32.171 54.5182 31.7961C54.2174 31.0837 54.4054 30.4089 54.3302 29.6966C54.7063 28.6093 54.2926 27.5595 54.4054 26.5098C54.443 25.9474 54.2926 25.46 54.443 24.8976C54.3678 24.5227 54.443 24.1853 54.5182 23.7729C54.443 23.0231 54.255 22.3482 54.443 21.5984C54.443 20.8485 54.3678 20.1737 54.4054 19.4239C54.2926 18.824 54.3302 18.899 54.4806 18.3366C54.1046 17.4743 54.5182 17.0244 54.443 16.1621C54.3302 15.5997 54.2926 15.0748 54.4806 14.5125C54.5182 13.9501 54.4806 13.4627 54.3302 12.9003C54.3678 12.3005 54.4806 11.8506 54.4806 11.2507C54.3678 10.5384 54.2926 9.82601 54.4054 9.07618C53.9542 4.72715 58.8802 5.66444 58.1282 8.5513C58.0905 8.92621 58.1282 9.18865 58.2034 9.56357C58.2034 9.75103 58.2034 9.90099 58.2034 10.0885L58.1658 11.1382C58.1658 11.3257 58.1658 11.4756 58.1658 11.6631C58.3162 12.188 58.1658 12.6379 58.1282 13.2003C58.2034 13.6127 58.2034 13.8376 58.1282 14.25C58.1282 14.6999 58.993 14.8499 59.181 14.475C59.5947 13.5002 60.1587 12.5629 60.3843 11.5131C60.798 11.0632 60.7604 11.1757 60.8732 10.5758C61.5124 9.78852 60.9484 9.90099 61.6253 9.15116C61.9261 8.66377 61.8885 8.66377 61.9637 8.13889C62.1141 7.76397 62.2645 7.53902 62.5277 7.2016C63.0918 5.51448 65.8368 5.96438 66.0624 7.61401C66.1 8.21387 65.9496 8.73876 65.6488 9.22614C65.536 9.63855 65.4232 9.8635 65.16 10.1634C64.9343 10.6508 64.8591 11.1382 64.5583 11.5881C63.6182 14.25 61.2868 16.8744 62.6405 19.8363C62.979 20.5111 63.0166 21.186 63.4678 21.7858C63.6934 22.3107 63.6934 22.7981 63.9191 23.323C64.2951 23.8104 64.2575 23.6979 64.3327 24.2978C64.7839 24.8601 64.7463 25.61 65.1224 26.2473C65.348 26.5848 65.4608 26.8097 65.536 27.2221C65.6112 27.6345 65.6864 27.897 65.912 28.2344C66.0248 28.7968 66.3633 29.1342 66.5889 29.6591ZM64.4079 8.02641C64.2951 8.02641 64.2951 8.25136 64.4079 8.25136C64.5207 8.25136 64.5207 8.02641 64.4079 8.02641ZM63.6934 9.03869C63.6182 9.15116 63.6182 9.37611 63.7686 9.4136C63.8438 9.4136 63.9567 9.37611 63.9567 9.30113C63.9567 9.26364 63.9567 9.22614 63.9567 9.22614C63.9943 9.18865 63.9943 9.11367 63.9943 9.07618C63.9567 8.92621 63.8062 8.96371 63.6934 9.03869ZM55.872 10.3509C55.9848 10.3509 55.9848 10.1259 55.872 10.1259C55.7592 10.1259 55.7592 10.3509 55.872 10.3509ZM56.1352 13.4252C55.9848 13.4252 55.9848 13.6502 56.1352 13.6502C56.248 13.6502 56.248 13.4252 56.1352 13.4252ZM56.2856 16.1246C56.1352 16.1246 56.1352 16.3495 56.2856 16.3495C56.3984 16.3495 56.3984 16.1246 56.2856 16.1246ZM58.8426 17.6618C58.6922 17.6618 58.6922 17.8867 58.8426 17.8867C58.9554 17.8867 58.9554 17.6618 58.8426 17.6618ZM58.0529 18.9365C58.2034 18.9365 58.2034 18.7115 58.0529 18.7115C57.9401 18.7115 57.9401 18.9365 58.0529 18.9365ZM57.5641 19.4613C57.5641 19.4239 57.6017 19.3489 57.5641 19.4239C57.6017 19.3489 57.6017 19.3114 57.5641 19.2739C57.5265 19.1239 57.3761 19.1614 57.3761 19.3114V19.3864C57.3385 19.3864 57.3385 19.4239 57.3385 19.4239C57.3009 19.4613 57.3009 19.4613 57.3009 19.4613C57.3009 19.4239 57.3009 19.4239 57.2633 19.4239V19.3864C57.1881 19.3114 57.1505 19.2739 57.1129 19.2739C57.0377 19.2739 57.0001 19.3864 57.0001 19.4239C57.0377 19.4988 57.0753 19.5363 57.1129 19.5738C57.2257 19.7238 57.3761 19.7613 57.4889 19.6113C57.5265 19.5363 57.5641 19.4988 57.5641 19.4613ZM58.993 19.7988C59.1434 19.7238 59.181 19.5363 59.1058 19.4239C59.0682 19.3489 59.0306 19.2364 58.9178 19.2364C58.805 19.2364 58.7674 19.3864 58.8426 19.4988C58.805 19.6113 58.8802 19.8363 58.993 19.7988ZM60.8732 20.2487C60.9108 20.1737 60.9108 20.0987 60.8356 20.0612C60.798 20.0612 60.7604 20.0612 60.7228 20.0612C60.6476 20.0612 60.5348 20.1362 60.5348 20.2112C60.5348 20.3237 60.6476 20.3611 60.6852 20.2862H60.7604C60.798 20.3237 60.8732 20.2862 60.8732 20.2487ZM58.4666 20.7736C58.5794 20.7736 58.5794 20.5486 58.4666 20.5486C58.3162 20.5486 58.3162 20.7736 58.4666 20.7736ZM56.812 22.6856C56.9249 22.6856 56.9249 22.4607 56.812 22.4607C56.6616 22.4607 56.6616 22.6856 56.812 22.6856ZM56.436 24.8601C56.5112 24.8226 56.5112 24.7102 56.5112 24.6352C56.4736 24.5227 56.3608 24.4477 56.248 24.4852C56.1352 24.4477 56.0976 24.5227 56.0976 24.5977C56.0976 24.6727 56.1352 24.7102 56.1352 24.7477C56.2104 24.8601 56.3232 24.9726 56.436 24.8601ZM55.872 26.8847C55.9848 26.8847 55.9848 26.6597 55.872 26.6597C55.7592 26.6597 55.7592 26.8847 55.872 26.8847ZM64.5583 29.5091C64.7087 29.5091 64.7087 29.3216 64.5583 29.2841C64.4455 29.3216 64.4455 29.5091 64.5583 29.5091ZM65.4232 30.9338C65.4232 30.8963 65.4232 30.8588 65.4608 30.8213L65.4984 30.7463V30.7088C65.4608 30.5964 65.3104 30.5589 65.2728 30.6713C65.2728 30.6713 65.2728 30.7088 65.2352 30.7463C65.16 30.7463 65.16 30.8588 65.16 30.8963C65.16 30.9338 65.16 30.9338 65.16 30.9338C65.1976 31.0088 65.3104 31.0837 65.3856 31.0088C65.4232 30.9713 65.4232 30.9338 65.4232 30.9338Z" fill="#CC293D"/>
<path d="M78.9944 6.26431C80.9874 6.52675 80.3105 8.85123 79.7841 10.0885C79.7089 10.5009 79.5961 10.7633 79.4457 11.1382C79.3329 11.888 79.22 12.6004 78.844 13.2752C78.8064 13.6876 78.6936 13.9501 78.5056 14.2875C78.3176 15.0373 78.0167 15.7122 78.0167 16.462C77.6031 17.0619 77.6783 16.762 77.6783 17.5118C77.5655 18.0742 77.2271 18.4866 77.0767 19.0115C76.9639 20.1362 76.7006 21.1485 76.3622 22.1982C76.4374 22.9106 76.2494 23.6229 76.099 24.3353C75.9862 25.7974 76.1366 27.2221 75.9486 28.6468C75.8734 29.1342 75.8734 29.2467 76.0238 29.6966C75.8734 30.5964 76.099 31.4587 76.0238 32.3585C76.0238 32.5459 75.8358 32.6584 75.7982 32.8084C75.7606 32.9958 75.7981 33.1833 75.7229 33.2957C75.1965 34.2705 73.8052 34.4205 72.9027 33.9331C71.9626 32.8833 72.1506 31.4962 72.301 30.2214C72.1506 29.5091 72.0378 28.8342 72.2634 28.1219C71.9626 27.4471 72.4139 27.2221 72.1882 26.5098C72.1506 26.1349 72.1506 25.7974 72.1882 25.4225C71.7746 23.9978 71.8498 22.5732 71.5866 21.1485C71.2482 20.4736 71.2106 19.7613 70.9849 19.0489C70.8721 18.4866 70.8345 17.9617 70.4585 17.5118C70.4585 17.0619 70.3833 16.8369 70.1953 16.462C70.1201 16.0496 70.0825 15.7497 69.9697 15.3748C69.7064 14.9249 69.6688 14.8499 69.5936 14.325C69.556 13.8751 69.4432 13.6502 69.2176 13.2752C69.1424 12.9003 69.1048 12.6004 69.0672 12.188C68.9168 11.7756 68.7663 11.5506 68.5783 11.1757C68.5031 10.9133 68.6535 10.8758 68.5783 10.6133C67.7887 9.0012 67.1118 7.2016 69.1424 6.18933C70.7969 5.62695 71.8122 7.57652 71.8874 8.96371C72.1506 9.82601 72.5643 10.6133 72.7147 11.4756C72.8275 12.038 73.0155 12.4504 73.2035 13.0128C73.1283 13.6127 73.4668 14.0251 74.0684 14.0251C74.294 14.0626 74.8581 13.7251 74.9333 13.5377C75.0085 13.2752 74.8581 13.2377 74.9333 12.9753C75.0085 12.7504 75.1965 12.7878 75.2717 12.5254C75.3093 12.1505 75.3469 11.888 75.4597 11.4756C75.6477 11.1382 75.7606 10.9133 75.7982 10.5009C75.8734 9.60106 76.287 8.81374 76.5502 7.95143C76.663 6.7517 77.7911 5.77692 78.9944 6.26431ZM78.1672 8.06391C78.28 8.06391 78.28 7.83896 78.1672 7.83896C78.0167 7.83896 78.0167 8.06391 78.1672 8.06391ZM69.8944 8.28886C69.932 8.17638 69.7816 8.02641 69.7064 8.13889C69.6688 8.17638 69.6312 8.25136 69.6312 8.28886C69.5936 8.32635 69.5936 8.36384 69.5936 8.40133C69.5184 8.36384 69.4432 8.40133 69.4056 8.43882C69.368 8.5138 69.3304 8.58879 69.368 8.66377C69.4056 8.85123 69.5936 8.88872 69.7064 8.73876C69.7816 8.66377 69.8568 8.5138 69.8568 8.36384C69.8568 8.32635 69.8568 8.32635 69.8944 8.28886ZM78.1672 9.75103C78.28 9.67604 78.2048 9.4511 78.0543 9.48859L78.0167 9.52608H77.9791C77.9039 9.56357 77.8663 9.60106 77.8663 9.60106C77.8287 9.67604 77.8287 9.78852 77.9415 9.82601C77.9791 9.8635 78.0167 9.82601 78.0919 9.78852C78.1296 9.78852 78.1672 9.75103 78.1672 9.75103ZM71.1354 13.3502C71.2106 13.4627 71.361 13.3502 71.3234 13.2377C71.3234 13.1628 71.3234 13.0878 71.2482 13.0503C71.2106 13.0128 71.1354 13.0878 71.0977 13.1253C71.0977 13.2003 71.0977 13.2377 71.0977 13.2752C71.1354 13.2752 71.1354 13.3127 71.1354 13.3502ZM73.3163 17.0619C73.3915 17.2119 73.4668 17.2493 73.542 17.2868C73.6924 17.3993 73.7676 17.1369 73.6548 17.0619C73.5796 17.0244 73.5796 16.9869 73.5044 16.9119C73.4668 16.8369 73.3915 16.8369 73.3539 16.8744C73.3539 16.8369 73.3163 16.8369 73.3163 16.8369C73.1659 16.8369 73.1659 17.0619 73.3163 17.0619ZM74.9333 17.3993C75.0461 17.3993 75.0461 17.1744 74.9333 17.1744C74.7829 17.1744 74.7829 17.3993 74.9333 17.3993ZM73.4668 18.7865C73.6548 18.899 73.8052 18.749 73.918 18.6365L73.9556 18.599L73.9932 18.5241C74.0308 18.4491 74.0684 18.4116 74.0684 18.4116C74.0684 18.2991 73.918 18.1866 73.8428 18.2991C73.73 18.2616 73.6172 18.2241 73.5044 18.2991C73.3539 18.4116 73.2411 18.674 73.4668 18.7865ZM74.5948 19.3864C74.6325 19.3489 74.6325 19.2739 74.6325 19.2364C74.6701 19.0864 74.482 18.974 74.4068 19.1614V19.2739C74.4068 19.3114 74.4068 19.3489 74.4444 19.3864C74.482 19.4239 74.5572 19.4239 74.5948 19.3864ZM73.8804 21.5609C73.9932 21.5609 73.9932 21.3359 73.8804 21.3359C73.7676 21.3359 73.7676 21.5609 73.8804 21.5609ZM74.106 23.173C74.2564 23.173 74.2564 22.9481 74.106 22.9481C73.9932 22.9481 73.9932 23.173 74.106 23.173Z" fill="#CC293D"/>
<path d="M115.225 33.4082C116.503 33.7831 117.03 35.6952 116.052 36.6325C115.526 37.3823 115.037 38.2071 114.398 38.8445C114.059 39.032 113.796 39.2944 113.608 39.6318L113.119 39.8943C112.931 40.1192 112.517 40.4566 112.292 40.6066C111.765 40.7191 111.201 41.0565 110.825 41.3564C110.524 41.4314 110.036 41.5814 109.772 41.7314C109.434 41.7314 109.02 41.9188 108.757 42.1063C108.456 42.0688 107.93 42.1063 107.629 42.2188C107.178 42.4062 106.99 42.3687 106.539 42.2562C106.087 42.4062 105.41 42.3312 104.922 42.4437C104.546 42.2188 104.32 42.1813 103.869 42.2562C103.605 42.1438 103.079 42.0313 102.816 42.0313C102.703 41.9938 102.59 41.9563 102.44 41.9188L101.575 41.7689C101.424 41.7314 101.312 41.6939 101.199 41.6564C101.011 41.5064 100.522 41.244 100.221 41.2065C100.033 41.019 99.5443 40.7566 99.2811 40.7191C98.4914 39.9693 97.4385 39.4069 96.6113 38.6945C95.9344 38.0947 95.4832 37.1949 94.7687 36.6325C94.5431 36.2201 94.3551 35.5452 93.979 35.2078C93.791 34.7579 93.5278 34.1581 93.1518 33.8206C92.9637 33.5957 92.8509 33.0708 92.8133 32.7709C92.5501 32.396 92.3997 31.7211 92.1365 31.3087C91.9109 30.8213 92.0237 30.2589 91.5724 29.809C91.7228 29.0967 91.234 28.3469 91.234 27.672C91.1964 27.3721 91.046 26.8472 90.8956 26.6222C91.0084 25.5725 90.6323 24.4477 90.5947 23.398C90.6323 23.1355 90.6323 22.6106 90.5195 22.3482C90.6699 21.6734 90.7828 20.886 90.5571 20.2112C90.7828 19.3864 90.7828 18.4491 90.8956 17.5868C91.0084 16.9494 91.1964 16.1621 91.0836 15.4872C91.5348 14.6999 91.4596 13.6876 91.7604 12.8253C92.0237 12.3754 92.2117 11.7381 92.3245 11.2882C92.5501 10.8383 92.8885 10.2384 92.9261 9.75103C93.3398 9.37611 93.603 8.77625 93.6782 8.25136C93.979 7.98892 94.1294 7.80147 94.2422 7.35157C94.7311 6.90167 95.2199 6.26431 95.4456 5.66444C95.9344 5.21454 96.4608 4.61468 96.8745 4.0898C97.4385 3.71488 97.9274 3.11502 98.4914 2.7401C98.7546 2.62762 99.2059 2.32769 99.3939 2.14023L99.9579 1.99027C100.259 1.65284 100.447 1.54037 100.898 1.46539C101.124 1.31542 101.612 1.12796 101.913 1.05298C102.741 0.977996 103.117 0.41562 104.019 0.565587C104.734 0.490604 105.448 0.115689 106.162 0.340638C107.253 0.190671 108.381 0.715553 109.434 0.86552C109.735 0.940502 110.224 1.16545 110.487 1.27793C110.825 1.69034 111.427 2.02776 111.916 2.21522C112.066 2.44017 112.442 2.85258 112.668 3.04003C113.081 3.33996 113.157 3.45244 113.382 3.90234C113.796 4.23976 113.871 4.35224 114.059 4.83963C114.962 5.73943 115.45 7.01414 115.676 8.25136C115.714 8.47631 115.864 9.0012 115.977 9.22614C116.09 9.63855 116.052 10.2759 116.015 10.7258C116.278 12.7129 115.827 14.6999 115.3 16.612L114.962 17.0619C114.849 17.4743 114.736 17.6992 114.473 18.0367C114.36 18.5241 114.322 18.599 113.946 18.974C113.646 19.6113 113.044 20.1362 112.48 20.5486C112.217 20.961 112.066 21.036 111.653 21.186C111.427 21.5234 111.239 21.7108 110.863 21.8983C110.449 22.1607 109.81 22.3857 109.359 22.4232C108.569 22.8356 107.629 23.0231 106.839 23.248C106.388 23.098 106.2 23.1355 105.749 23.323C103.455 23.0231 102.966 20.6986 104.997 19.4988C105.824 19.1989 105.749 19.6113 106.576 19.2364C107.065 19.1989 107.704 19.0115 108.193 18.899C108.569 18.5616 109.246 18.4116 109.547 17.9617C111.314 17.2119 112.104 14.2875 112.254 12.5254C112.254 12.263 112.292 11.7381 112.329 11.4756C112.179 11.0632 112.217 10.8758 112.329 10.4259C111.803 9.63855 112.141 8.5138 111.427 7.80147C111.314 7.35157 111.239 7.2016 110.938 6.82668C110.299 6.41428 110.073 5.58946 109.472 5.21454C108.682 4.80214 107.855 4.16478 106.915 4.23976C106.05 3.86485 105.11 4.23976 104.245 4.23976C103.455 4.61468 102.59 5.02709 101.763 5.21454C100.823 5.96438 99.6571 6.60173 98.9427 7.57652C98.2282 8.28886 97.6641 9.30113 97.1001 10.1634C96.8369 10.5758 96.5737 11.1382 96.4608 11.6256C96.1224 12.0005 96.0848 12.188 96.0472 12.6379C95.8968 12.8628 95.7088 13.3502 95.6712 13.6127C95.2951 14.4375 95.1447 15.3748 94.8815 16.1996C94.7311 17.5868 94.3175 19.0864 94.5055 20.5111C94.4303 21.5609 94.3551 22.6856 94.4679 23.7354C94.5431 23.9978 94.6183 24.5227 94.5807 24.7852C94.6935 25.2725 94.8439 25.9099 94.8063 26.3973C95.0319 27.0347 95.2199 27.822 95.2575 28.4968C95.7088 29.2467 95.784 30.2589 96.16 31.0463C96.4232 31.4587 96.536 32.1335 96.9121 32.4709C97.3633 33.8581 98.4538 34.9454 99.3563 36.0326C99.8075 36.2201 100.296 36.67 100.672 36.9699C101.274 37.3074 101.989 37.7198 102.553 38.0947C102.853 38.0572 103.342 38.2071 103.605 38.3571C104.132 38.3196 104.771 38.4321 105.26 38.5446C105.749 38.5071 106.426 38.4321 106.877 38.5446C107.14 38.4321 107.667 38.2446 107.93 38.2446C108.193 38.1322 108.72 37.9822 109.02 38.0197C109.246 37.8322 109.697 37.5698 109.998 37.4948C110.374 37.2324 110.825 36.7075 111.314 36.52C112.254 35.6952 112.668 34.3455 113.721 33.5957C113.946 33.4832 114.435 33.3707 114.698 33.3707C114.736 33.3707 115.262 33.5582 115.225 33.4082ZM108.569 2.40268C108.531 2.44017 108.531 2.44017 108.531 2.47766C108.569 2.59013 108.644 2.59013 108.719 2.59013C108.757 2.62762 108.795 2.66512 108.832 2.66512C108.908 2.66512 108.945 2.59013 108.945 2.55264C108.945 2.51515 108.945 2.51515 108.945 2.51515C109.02 2.47766 109.058 2.44017 109.096 2.40268C109.133 2.32769 109.058 2.17773 108.945 2.25271C108.908 2.2902 108.87 2.32769 108.795 2.36518C108.795 2.32769 108.757 2.32769 108.757 2.32769H108.719L108.682 2.2902C108.607 2.2902 108.569 2.36518 108.569 2.40268ZM113.307 6.93916C113.232 6.93916 113.194 7.05163 113.232 7.08912C113.232 7.12662 113.232 7.16411 113.232 7.2016C113.269 7.31407 113.345 7.42655 113.382 7.50153C113.42 7.53902 113.42 7.61401 113.495 7.61401C113.57 7.68899 113.646 7.50153 113.57 7.42655C113.57 7.42655 113.533 7.35157 113.495 7.27658C113.495 7.23909 113.458 7.16411 113.458 7.16411C113.42 7.12662 113.42 7.08912 113.42 7.08912C113.42 7.01414 113.382 6.93916 113.307 6.93916ZM96.3104 7.53902C96.1976 7.53902 96.1976 7.76397 96.3104 7.76397C96.4232 7.76397 96.4232 7.53902 96.3104 7.53902ZM94.3927 11.0632C94.2799 11.0632 94.2799 11.2882 94.3927 11.2882C94.5431 11.2882 94.5431 11.0632 94.3927 11.0632ZM114.097 12.0755C113.984 11.963 113.834 12.1505 113.909 12.263C113.984 12.3754 113.984 12.4129 114.022 12.5629C114.022 12.6004 114.022 12.6379 114.022 12.6754C114.022 12.7129 114.022 12.7878 114.059 12.8253C114.134 12.9003 114.247 12.8628 114.36 12.8253C114.435 12.7878 114.473 12.7129 114.51 12.6004C114.548 12.4129 114.36 12.3005 114.21 12.3379L114.172 12.3005V12.2255C114.134 12.1505 114.134 12.113 114.097 12.0755ZM113.796 13.4252C113.646 13.4252 113.646 13.6502 113.796 13.6502C113.909 13.6502 113.909 13.4252 113.796 13.4252ZM114.059 14.6624C114.172 14.6624 114.172 14.4375 114.059 14.4375C113.946 14.4375 113.946 14.6624 114.059 14.6624ZM93.2646 15.3748C93.3398 15.3373 93.3774 15.1873 93.2646 15.1123C93.1518 15.0373 93.1518 15.1123 93.0766 15.1498C92.9637 15.2248 92.9261 15.3373 93.0013 15.4123C93.0766 15.5247 93.1894 15.4123 93.2646 15.3748ZM93.9038 29.9215C94.0542 29.809 93.9414 29.5841 93.791 29.5091C93.8286 29.4716 93.8286 29.4341 93.8286 29.3966C93.8662 29.2467 93.7158 29.1717 93.6406 29.2841C93.603 29.3591 93.603 29.3591 93.5278 29.4341C93.4526 29.5091 93.4526 29.6216 93.5278 29.6591C93.5654 29.6966 93.603 29.6966 93.6406 29.6966C93.6406 29.6966 93.6406 29.6966 93.7158 29.734C93.6406 29.8465 93.7534 30.034 93.9038 29.9215ZM94.3175 30.8213C94.3551 30.8213 94.3551 30.7463 94.3551 30.7088C94.3551 30.6338 94.2423 30.5589 94.167 30.6338C94.1294 30.6713 94.1294 30.7463 94.1294 30.7838V30.8213L94.0918 30.9338C94.0918 30.9338 94.0918 30.9338 94.0918 30.9713V31.1212C94.0918 31.1587 94.0918 31.2337 94.1294 31.3087C94.2046 31.4212 94.3551 31.3087 94.3175 31.1962C94.3175 31.0837 94.3175 30.9713 94.3175 30.8213ZM95.6712 32.8833C95.784 32.8458 95.8216 32.6584 95.7088 32.6209C95.5584 32.5834 95.4456 32.6584 95.3703 32.6959C95.3327 32.7334 95.2575 32.7709 95.2199 32.7709L95.2575 32.7334C95.2575 32.6959 95.2951 32.6959 95.2951 32.6959C95.3704 32.5834 95.2199 32.396 95.1447 32.5084C94.9943 32.6209 94.8815 32.8833 95.0695 32.9958C95.1823 33.0708 95.2951 32.9958 95.408 32.9583C95.4456 32.9583 95.5208 32.9208 95.5208 32.9208C95.5208 32.8833 95.5584 32.8833 95.5208 32.9208L95.5584 32.8833H95.6712ZM97.6641 37.0074C97.777 37.0074 97.777 36.7825 97.6641 36.7825C97.5137 36.7825 97.5137 37.0074 97.6641 37.0074ZM114.398 37.0074C114.51 37.0074 114.51 36.7825 114.398 36.7825C114.247 36.7825 114.247 37.0074 114.398 37.0074ZM113.495 37.3448C113.495 37.3074 113.495 37.2699 113.495 37.2324C113.458 37.1574 113.345 37.1574 113.307 37.2324C113.307 37.1949 113.307 37.1949 113.269 37.1949C113.119 37.1574 113.119 37.3823 113.157 37.4948C113.157 37.6073 113.307 37.6448 113.382 37.5323C113.42 37.4948 113.458 37.4198 113.495 37.3448ZM110.299 39.4444C110.412 39.4444 110.412 39.2194 110.299 39.2194C110.148 39.2194 110.148 39.4444 110.299 39.4444Z" fill="#CC293D"/>
<path d="M122.648 7.98892C122.648 8.25136 122.798 8.25136 122.798 8.5138C122.61 9.07618 122.572 9.56357 122.648 10.1634C122.61 10.5758 122.685 10.8383 122.798 11.2507C122.723 11.6631 122.723 11.9255 122.798 12.3379C122.61 12.8253 122.572 12.8253 122.648 13.3877C122.798 13.9126 122.836 13.9876 122.723 14.475C122.61 15.4123 122.648 16.2746 122.648 17.2119C122.873 18.4491 122.648 19.7238 122.685 20.9985C122.911 22.0858 122.723 23.1355 122.61 24.2228C122.685 24.6352 122.76 24.8976 122.798 25.31C122.798 25.5725 122.648 25.5725 122.648 25.8724C122.648 25.9474 122.648 26.0599 122.648 26.1349L122.723 26.6597C122.76 27.1096 122.76 27.5595 122.685 28.0094C122.798 28.6093 122.836 29.0967 122.685 29.6591C122.384 31.0463 123.325 32.9208 121.971 33.9331L120.805 34.2705C119.564 34.2705 118.737 32.9958 118.963 31.8336C119 31.0463 119.075 30.4089 118.85 29.6591C118.925 29.0592 118.85 28.5718 119 28.0094C119 27.747 118.85 27.747 118.85 27.4846C119.038 26.9222 119 26.4348 118.963 25.8724C119.038 25.46 119 25.1976 118.925 24.7852C119.075 24.1853 119.038 24.2603 118.887 23.6979C118.963 23.2855 119 23.0231 118.925 22.6106C119.075 22.0483 119.038 22.0858 118.887 21.5234C119 20.7736 118.925 20.0987 118.963 19.3489C118.699 18.4116 119.151 18.7115 118.925 17.7367C119.075 16.7994 118.775 15.9746 118.963 15.0373C118.887 14.5125 118.887 14.4375 119.038 13.9501C118.925 13.5377 118.85 13.2752 118.85 12.8628C119.038 12.2255 119.038 12.4504 118.85 11.7756C118.963 11.2132 118.85 10.7258 118.963 10.1634C118.85 9.4136 118.925 8.73876 119.038 7.98892C118.812 6.97665 119.865 6.07685 120.805 6.03936C121.67 6.00187 122.309 6.71421 122.648 7.38906C122.723 7.57652 122.648 7.80147 122.648 7.98892ZM120.617 9.75103C120.768 9.75103 120.768 9.52608 120.617 9.52608C120.504 9.52608 120.504 9.75103 120.617 9.75103ZM120.316 15.5247C120.241 15.5622 120.203 15.7497 120.316 15.8247H120.354C120.354 15.8247 120.354 15.8622 120.354 15.8996C120.354 15.9371 120.354 16.0496 120.429 16.0496C120.467 16.0871 120.504 16.0496 120.542 16.0121C120.542 15.9746 120.542 15.9371 120.542 15.8996C120.542 15.8247 120.542 15.7497 120.504 15.6747C120.542 15.6747 120.542 15.6372 120.542 15.6372V15.4872C120.467 15.4123 120.354 15.4123 120.316 15.5247ZM121.219 25.4225C121.256 25.385 121.256 25.31 121.219 25.2725C121.144 25.2351 121.068 25.2725 121.068 25.3475H120.956L120.918 25.31C120.956 25.31 120.993 25.31 121.031 25.2725C121.031 25.1976 121.031 25.1601 120.993 25.1226C120.918 25.0851 120.843 25.1226 120.805 25.1601C120.655 25.2725 120.768 25.4975 120.918 25.535C121.068 25.61 121.181 25.4975 121.219 25.4225Z" fill="#CC293D"/>
<path d="M138.162 12.038C138.237 13.0128 138.086 13.8751 138.199 14.8499C137.936 15.5997 138.086 16.3121 138.086 17.0994C138.011 17.5118 138.049 17.8117 138.162 18.2241C137.635 19.5363 137.41 21.2984 136.056 22.0483C135.379 22.7981 134.965 23.9603 135.379 24.9351C135.68 25.46 135.943 25.8724 135.981 26.4723C136.206 26.8472 136.282 27.1096 136.357 27.522C136.394 27.6345 136.432 27.672 136.47 27.7095L136.582 27.822C136.62 27.8595 136.658 27.897 136.695 28.0094C136.695 28.7968 137.222 29.3591 137.372 30.109C137.748 30.8963 138.199 31.7211 138.011 32.6209C137.898 33.4832 137.184 34.458 136.244 34.1581C135.717 34.2705 135.567 34.233 135.153 33.8956C134.213 33.4832 134.364 32.321 133.875 31.5336C133.724 31.1587 133.649 30.8963 133.536 30.5214C133.311 30.1839 133.236 29.959 133.16 29.5466C132.935 29.1717 132.86 28.9467 132.822 28.5343C131.957 27.672 131.807 23.2105 129.927 24.4477C129.588 25.685 129.701 26.9222 129.588 28.1969C129.551 28.5718 129.626 28.8342 129.701 29.2467C129.626 29.6216 129.588 29.884 129.588 30.2589C129.739 30.7838 129.776 30.7463 129.626 31.3087C129.551 31.9086 129.588 31.8336 129.776 32.3585C129.588 32.8084 129.363 33.2957 129.137 33.7456C128.61 34.1206 127.821 34.3455 127.182 34.1581C125.452 33.3332 126.053 31.6836 125.865 30.1465C125.978 29.5841 125.941 29.0967 125.828 28.5343C125.903 28.1594 125.978 27.8595 125.978 27.4471C125.828 26.9597 125.79 26.9222 125.903 26.3598C125.753 25.6475 125.978 24.9726 125.978 24.2228C125.79 23.473 125.978 22.7981 125.941 22.0483C125.753 20.5861 126.016 19.1989 126.016 17.7367C125.753 16.6495 125.941 15.5622 125.828 14.475C125.941 14.1001 126.016 13.8001 125.978 13.3877C125.79 12.263 125.903 11.2882 125.903 10.1634C125.753 9.60106 125.865 9.11367 125.903 8.5138C125.865 7.72648 126.166 7.05163 126.655 6.45177C127.482 5.92688 128.498 6.11434 129.438 6.03936C130.34 6.33929 131.28 5.81441 132.183 6.15184C133.724 6.07685 134.965 6.86418 136.244 7.61401C136.394 7.95143 136.582 8.25136 136.921 8.43882C137.184 8.92621 137.447 9.4136 137.786 9.8635C137.748 10.6133 138.274 11.2882 138.162 12.038ZM132.86 7.95143C132.784 7.98892 132.784 8.13889 132.86 8.17638C132.935 8.17638 132.972 8.13889 133.01 8.13889C133.048 8.13889 133.085 8.1014 133.123 8.06391C133.16 7.98892 133.085 7.87645 132.972 7.87645L132.935 7.91394H132.897L132.86 7.95143ZM128.272 8.13889C128.159 8.17638 128.159 8.36384 128.272 8.36384C128.385 8.36384 128.385 8.17638 128.272 8.13889ZM128.272 9.07618C128.159 9.11367 128.159 9.30113 128.234 9.30113C128.422 9.37611 128.535 9.4136 128.61 9.48859C128.573 9.52608 128.573 9.52608 128.573 9.52608V9.48859C128.535 9.4511 128.46 9.4511 128.385 9.4511C128.234 9.48859 128.122 9.63855 128.234 9.78852C128.347 9.93849 128.573 9.82601 128.686 9.75103C128.798 9.67604 128.836 9.60106 128.836 9.48859C128.836 9.37611 128.761 9.26364 128.686 9.22614C128.686 9.11367 128.573 8.92621 128.46 9.03869C128.46 9.03869 128.422 9.07618 128.422 9.11367C128.422 9.11367 128.385 9.11367 128.347 9.11367C128.347 9.11367 128.31 9.07618 128.272 9.07618ZM132.183 19.9112C133.461 19.7613 134.702 18.4116 134.251 17.0994C134.364 16.1621 134.364 15.2248 134.439 14.2875C134.138 13.0128 134.627 11.5881 133.724 10.4634C133.236 9.93849 132.446 10.0885 131.882 9.82601C129.024 10.2384 129.776 12.6004 129.701 14.7374C129.588 16.9869 129.024 19.8363 132.183 19.9112ZM128.46 11.0632C128.573 11.0632 128.61 10.8758 128.498 10.8383C128.498 10.8008 128.46 10.8008 128.46 10.8008C128.422 10.7258 128.347 10.7258 128.31 10.8008C128.272 10.8008 128.234 10.8008 128.197 10.8383C128.122 10.9133 128.197 11.1007 128.31 11.0632H128.46ZM136.432 12.5254C136.545 12.5254 136.545 12.3005 136.432 12.3005C136.282 12.3005 136.282 12.5254 136.432 12.5254ZM136.432 18.2241C136.545 18.2241 136.545 18.0367 136.432 17.9992C136.282 18.0367 136.282 18.2241 136.432 18.2241ZM128.009 20.2862C127.896 20.2862 127.896 20.5111 128.009 20.5111C128.122 20.5111 128.122 20.2862 128.009 20.2862ZM130.002 21.7108C130.152 21.7108 130.152 21.4859 130.002 21.4859C129.889 21.4859 129.889 21.7108 130.002 21.7108ZM128.911 21.8233C128.986 21.7483 128.911 21.6359 128.874 21.5984C128.836 21.5609 128.798 21.5234 128.761 21.5234C128.686 21.4859 128.573 21.5234 128.573 21.6359C128.573 21.7108 128.61 21.7858 128.648 21.8233C128.686 21.8608 128.686 21.8983 128.761 21.8983H128.798C128.874 21.8983 128.911 21.8233 128.911 21.8233ZM133.574 22.2732C133.649 22.1982 133.724 22.0108 133.649 21.8983C133.612 21.8608 133.574 21.8608 133.536 21.8608C133.499 21.8233 133.461 21.7858 133.424 21.7858C133.236 21.8233 133.198 22.0483 133.236 22.1982C133.273 22.3482 133.424 22.4232 133.574 22.2732ZM128.009 22.8356C128.046 22.8731 128.122 22.8731 128.159 22.8356C128.234 22.7606 128.197 22.6106 128.122 22.6106C128.046 22.5732 128.009 22.6106 127.971 22.6856C127.971 22.6106 127.934 22.5357 127.858 22.5357C127.746 22.5357 127.746 22.7606 127.858 22.7606C127.934 22.7606 127.934 22.7231 127.971 22.7231C127.971 22.7606 127.971 22.7981 128.009 22.8356ZM132.296 22.7606C132.408 22.7606 132.408 22.5357 132.296 22.5357C132.145 22.5357 132.145 22.7606 132.296 22.7606ZM133.574 24.8601C133.574 24.8226 133.574 24.7477 133.536 24.7102C133.499 24.6727 133.461 24.6352 133.424 24.5977C133.461 24.5227 133.461 24.4852 133.461 24.4102C133.424 24.2603 133.236 24.3353 133.236 24.4477C133.236 24.4852 133.236 24.4852 133.236 24.5602C133.198 24.5977 133.198 24.6727 133.236 24.7102C133.236 24.7477 133.273 24.7852 133.311 24.7852C133.311 24.8226 133.311 24.8226 133.311 24.8226L133.348 24.8601C133.348 24.9351 133.386 24.9726 133.461 24.9726C133.499 24.9726 133.536 24.8976 133.574 24.8601ZM128.159 25.31C128.272 25.31 128.272 25.0851 128.159 25.0851C128.009 25.0851 128.009 25.31 128.159 25.31ZM134.138 26.7722C134.289 26.7722 134.289 26.5473 134.138 26.5473C134.025 26.5473 134.025 26.7722 134.138 26.7722ZM127.482 31.7961C127.558 31.9461 127.708 31.8336 127.67 31.7211C127.633 31.6086 127.52 31.6086 127.482 31.5336C127.445 31.5336 127.445 31.5336 127.445 31.5336C127.407 31.4962 127.332 31.4212 127.294 31.3837C127.294 31.3462 127.257 31.3462 127.257 31.3462C127.144 31.3462 127.106 31.4587 127.182 31.5336C127.257 31.6086 127.332 31.7211 127.445 31.7586L127.482 31.7961Z" fill="#CC293D"/>
<path d="M152.738 26.5098C152.963 27.3346 152.813 28.1969 152.738 29.0592C152.775 29.4341 152.7 29.7715 152.474 30.0715C152.474 31.5711 151.083 32.5459 150.181 33.5207C149.692 33.7831 149.203 33.9706 148.789 34.308C148.037 34.2705 147.398 34.6454 146.684 34.6829C146.307 34.533 145.969 34.4955 145.593 34.5705C145.104 34.3455 144.578 34.2705 144.051 34.1206C143.675 33.7456 143.224 33.4457 142.735 33.2208C142.096 32.3585 141.193 31.6836 140.93 30.5964C140.893 30.2214 140.78 29.9215 140.592 29.5841C140.667 29.2467 140.667 28.8717 140.554 28.5343C140.667 27.9345 140.479 27.4846 140.554 26.9222C140.667 26.3223 140.554 25.8724 140.479 25.2725C140.667 23.6604 140.554 22.0858 140.629 20.4361C140.404 19.0115 140.705 17.5493 140.517 16.1246C140.629 15.2248 140.517 14.3625 140.592 13.4252C140.329 12.038 140.78 10.6133 141.043 9.22614C141.87 8.13889 142.735 6.7517 144.126 6.37678C144.578 6.03936 144.503 6.03936 145.104 5.96438C145.593 5.81441 146.119 5.66444 146.684 5.66444C148.188 5.62695 149.353 6.45177 150.632 7.08912C151.459 8.21387 152.662 9.26364 152.625 10.7633C153.001 11.4756 152.55 12.038 152.775 12.7878C153.151 15.1123 151.196 16.4245 149.316 14.8874C148.789 14.1001 149.241 13.1253 148.902 12.3005C149.165 10.7633 148.789 10.6133 147.699 9.71354C146.796 9.30113 145.367 9.52608 144.916 10.4259C144.427 10.7633 144.427 10.7258 144.39 11.2882C144.352 12.038 144.202 12.7504 144.39 13.4252C144.39 13.8376 144.314 14.1001 144.239 14.5125C144.239 14.7749 144.352 14.7749 144.352 15.0748C144.239 15.4872 144.202 15.6747 144.277 16.1246C144.126 17.2119 144.578 18.2991 144.239 19.3489C144.239 19.6488 144.352 19.6488 144.352 19.9112C144.277 20.3237 144.277 20.5861 144.314 20.9985C144.239 21.4109 144.277 21.6734 144.352 22.0483C144.352 22.3482 144.314 22.3482 144.314 22.6106C144.39 23.323 144.277 23.9978 144.239 24.7477C144.39 25.31 144.164 25.7974 144.239 26.3598C144.126 27.4471 144.615 26.9972 144.239 27.9719C144.164 29.3591 144.766 30.4839 146.157 30.7463C146.646 31.0837 147.172 30.8213 147.661 30.5964C148.564 30.3714 148.94 29.3591 149.09 28.5343C149.015 28.1594 148.977 27.897 149.053 27.522C148.94 26.8472 148.94 26.1723 149.015 25.4975C148.752 24.4852 149.729 22.8731 150.895 23.2105C151.647 23.2105 152.55 23.6229 152.662 24.4102C152.888 25.1226 152.625 25.7974 152.738 26.5098ZM150.03 8.92621C149.993 8.96371 149.993 9.03869 150.03 9.07618C149.993 9.11367 149.955 9.15116 149.955 9.18865C149.993 9.26364 150.03 9.33862 150.068 9.4136C150.181 9.60106 150.406 9.67604 150.519 9.4511C150.519 9.37611 150.519 9.30113 150.481 9.22614C150.444 9.07618 150.369 8.96371 150.218 8.92621C150.181 8.88872 150.143 8.88872 150.105 8.88872C150.068 8.88872 150.068 8.88872 150.03 8.92621ZM143.111 9.78852C143.262 9.78852 143.262 9.56357 143.111 9.56357C142.998 9.56357 142.998 9.78852 143.111 9.78852ZM150.857 12.4129C150.745 12.3005 150.632 12.4504 150.707 12.5629C150.745 12.6754 150.782 12.7504 150.782 12.8253C150.82 12.8628 150.82 12.9003 150.82 12.9753L150.857 13.0128V13.0503C150.933 13.1253 151.045 13.0878 151.045 13.0128C151.045 12.9753 151.045 12.9753 151.045 12.9378C151.083 12.9003 151.083 12.7878 151.045 12.7504C151.045 12.7129 151.008 12.6379 150.97 12.6004C150.933 12.5254 150.933 12.4504 150.857 12.4129ZM142.472 12.6754C142.434 12.6754 142.397 12.6754 142.397 12.7878C142.397 12.8253 142.472 12.9003 142.51 12.9003C142.547 12.9003 142.547 12.8628 142.547 12.8628C142.622 12.8628 142.66 12.8253 142.66 12.7878V12.7504C142.66 12.7129 142.66 12.6754 142.622 12.6379C142.585 12.6004 142.51 12.6004 142.472 12.6379V12.6754ZM142.698 17.3993C142.773 17.3618 142.848 17.2493 142.848 17.1369C142.848 16.9494 142.66 16.762 142.585 16.7245C142.472 16.7245 142.434 16.8744 142.472 16.9494C142.284 17.0244 142.322 17.2493 142.472 17.3618C142.472 17.3618 142.472 17.3618 142.51 17.3618L142.622 17.3993C142.622 17.3993 142.66 17.3993 142.698 17.3993ZM142.359 20.5111C142.51 20.5111 142.51 20.2862 142.359 20.2862C142.246 20.2862 142.246 20.5111 142.359 20.5111ZM151.196 25.46V25.385C151.158 25.2725 151.008 25.2725 151.008 25.385C150.933 25.3475 150.857 25.4225 150.857 25.4975V25.535C150.857 25.5725 150.857 25.61 150.895 25.6475C150.933 25.7224 150.97 25.7974 151.045 25.7974C151.083 25.7599 151.121 25.7224 151.121 25.6475C151.158 25.6475 151.158 25.61 151.158 25.5725C151.196 25.4975 151.196 25.4975 151.196 25.46ZM150.669 29.5091C150.782 29.5091 150.782 29.2841 150.669 29.2841C150.519 29.2841 150.519 29.5091 150.669 29.5091ZM142.585 29.5091C142.735 29.5091 142.735 29.2841 142.585 29.2841C142.472 29.2841 142.472 29.5091 142.585 29.5091ZM148.413 32.5459C148.526 32.5459 148.526 32.321 148.413 32.321C148.3 32.321 148.3 32.5459 148.413 32.5459Z" fill="#CC293D"/>
<path d="M167.944 21.4859C167.794 22.0483 167.794 22.0108 167.944 22.5732C167.756 23.1355 167.756 23.0605 167.869 23.6604C167.794 24.0728 167.831 24.3353 167.944 24.7477C167.944 24.8226 167.944 24.8601 167.944 24.8976L167.869 25.1226C167.869 25.1601 167.869 25.1976 167.869 25.2725C167.681 26.0224 167.756 26.7347 167.906 27.4471C167.756 28.0094 167.718 27.897 167.869 28.5343C167.718 29.0592 167.681 29.5841 167.718 30.109C166.966 32.2085 165.124 34.383 162.792 34.458C162.153 34.7579 162.416 34.7204 161.739 34.5705C161.401 34.4955 161.025 34.533 160.687 34.5705C160.348 34.4205 160.01 34.308 159.671 34.233C158.882 33.7831 157.942 33.6332 157.49 32.7709C156.249 31.6836 155.685 30.1465 155.573 28.5343C155.573 28.2719 155.723 28.2719 155.723 27.9719C155.573 27.4096 155.61 26.9222 155.685 26.3598C155.61 25.2725 155.46 24.1853 155.685 23.1355C155.535 22.3857 155.61 21.7108 155.648 20.961C155.573 20.5486 155.573 20.2862 155.648 19.8738C155.573 18.7865 155.648 17.7367 155.723 16.6495C155.685 16.2371 155.61 15.9371 155.573 15.5622C155.723 15.0748 155.761 14.9999 155.685 14.475C155.723 13.9126 155.723 13.4252 155.648 12.8628C155.685 12.263 155.761 11.7756 155.573 11.2132C155.911 9.97598 155.385 8.66377 155.798 7.42655C155.986 5.96438 158.393 5.47699 158.994 6.90167C159.37 7.38906 159.596 7.95143 159.333 8.5138C159.37 9.63855 159.408 10.6883 159.446 11.7756C159.333 12.4879 159.258 13.2377 159.483 13.9501C159.37 14.5125 159.483 14.9999 159.37 15.5622C159.258 16.3121 159.596 16.9494 159.408 17.6992C159.521 18.2616 159.483 18.2991 159.333 18.7865C159.408 19.3864 159.559 19.8363 159.408 20.4361C159.483 20.811 159.521 21.0735 159.446 21.4859C159.37 21.8983 159.408 22.1607 159.483 22.5732C159.483 23.173 159.408 23.6229 159.333 24.1853C159.483 24.7852 159.483 24.6727 159.333 25.2725C159.37 25.685 159.408 25.9474 159.483 26.3598C159.521 26.7722 159.446 27.0347 159.333 27.4471C159.37 27.8595 159.446 28.1219 159.446 28.5343C159.258 30.8588 162.868 31.8711 163.77 29.5091C164.485 28.6093 163.883 27.4096 164.033 26.3598C164.071 25.61 164.297 24.9351 164.071 24.1853C164.071 23.6229 164.108 23.1355 163.996 22.5732C163.996 22.3107 164.184 22.3107 164.184 22.0483C164.184 21.7858 163.996 21.7858 163.996 21.4859C164.108 20.2112 164.033 18.974 164.184 17.6992C164.071 17.2868 164.033 17.0619 164.146 16.6495C164.071 16.0871 164.071 15.5997 163.996 14.9999C164.108 14.6249 164.184 14.3625 164.146 13.9501C164.033 13.3502 163.92 12.9003 164.071 12.3005C164.146 11.5506 164.108 10.9133 164.033 10.1634C164.108 9.56357 164.033 9.07618 164.146 8.5138C164.146 8.25136 164.033 8.25136 164.033 7.98892C163.996 7.08912 165.011 5.92688 165.951 6.11434C167.756 5.92688 168.057 8.28886 167.794 9.60106C167.869 10.6883 168.019 11.7756 167.794 12.8628C167.756 13.2752 167.794 13.5377 167.869 13.9501L167.756 14.9999C167.831 15.4123 167.906 15.6747 167.906 16.0871C167.756 16.5745 167.756 16.687 167.869 17.1744C167.756 17.5868 167.756 17.8492 167.831 18.2616C167.756 18.674 167.756 18.9365 167.831 19.3489C167.869 19.7613 167.831 20.0237 167.794 20.4361C167.906 20.811 167.944 21.0735 167.944 21.4859ZM165.876 7.72648C165.725 7.72648 165.725 7.95143 165.876 7.95143C165.989 7.95143 165.989 7.72648 165.876 7.72648ZM157.716 8.47631C157.829 8.43882 157.866 8.36384 157.942 8.25136L157.979 8.21387V8.17638C157.979 8.1014 157.866 8.02641 157.791 8.1014C157.716 8.21387 157.716 8.21387 157.603 8.28886C157.528 8.32635 157.453 8.36384 157.415 8.40133C157.378 8.40133 157.34 8.40133 157.302 8.43882C157.189 8.58879 157.34 8.85123 157.528 8.92621C157.603 8.96371 157.716 8.85123 157.716 8.73876C157.754 8.66377 157.678 8.58879 157.603 8.5513C157.641 8.5513 157.678 8.5138 157.716 8.47631ZM165.951 9.18865C165.989 9.07618 165.838 9.0012 165.763 9.07618C165.725 9.03869 165.613 9.03869 165.537 9.11367C165.462 9.22614 165.537 9.4136 165.688 9.4136H165.725C165.801 9.52608 165.951 9.4136 165.913 9.30113C165.951 9.26364 165.951 9.22614 165.951 9.18865ZM165.876 15.8622C165.989 15.8622 165.989 15.6372 165.876 15.6372C165.725 15.6372 165.725 15.8622 165.876 15.8622ZM157.528 19.4239C157.641 19.4239 157.641 19.2739 157.641 19.1989C157.603 19.0115 157.378 19.0489 157.415 19.2364V19.2739C157.415 19.3489 157.453 19.4239 157.528 19.4239ZM166.252 22.2732C166.139 22.3482 166.139 22.4607 166.214 22.5732C166.214 22.6106 166.214 22.6481 166.252 22.6856C166.402 22.7606 166.477 22.5732 166.402 22.4982C166.365 22.4982 166.365 22.4607 166.365 22.4607C166.477 22.3857 166.365 22.1982 166.252 22.2732ZM157.566 22.8731C157.716 22.8731 157.716 22.6481 157.566 22.6481C157.453 22.6481 157.453 22.8731 157.566 22.8731ZM166.327 24.8226C166.44 24.8226 166.44 24.5977 166.327 24.5977C166.177 24.5977 166.177 24.8226 166.327 24.8226ZM165.5 28.4968C165.65 28.4968 165.65 28.2719 165.5 28.2719C165.387 28.2719 165.387 28.4968 165.5 28.4968ZM166.177 29.3591C166.365 29.2841 166.477 28.6843 166.477 28.4968C166.477 28.3469 166.289 28.3469 166.289 28.4593C166.252 28.6093 166.214 28.7218 166.214 28.8717C166.139 28.8717 166.064 28.9092 166.026 28.9467C165.989 28.9842 165.989 29.0592 165.989 29.0967C165.951 29.0967 165.951 29.0967 165.951 29.1342C165.951 29.1342 165.951 29.1342 165.989 29.0967C165.951 29.1717 165.951 29.2467 165.989 29.2841C166.026 29.3591 166.101 29.3966 166.177 29.3591ZM157.678 30.6713C157.829 30.6713 157.829 30.4464 157.678 30.4464C157.566 30.4464 157.566 30.6713 157.678 30.6713ZM165.312 31.3837C165.425 31.3837 165.387 31.2712 165.387 31.1962C165.387 31.0837 165.274 31.0088 165.199 31.1212V31.2712C165.199 31.3462 165.237 31.4212 165.312 31.3837Z" fill="#CC293D"/>
<path d="M182.887 25.3475C182.812 25.7224 182.887 26.0599 183 26.3973C183 26.6597 182.85 26.6597 182.85 26.9222C183.038 27.6345 182.925 28.3469 183 29.0592C182.549 30.8963 181.684 32.9583 179.804 33.7082C178.976 34.4955 176.307 34.8704 175.216 34.4205C174.013 34.1955 172.96 33.3332 172.208 32.396C170.967 31.3087 170.553 29.6216 170.817 28.0094C170.854 27.1471 170.553 26.3598 170.779 25.4975C170.704 25.1226 170.629 24.7852 170.741 24.4102C171.117 23.9603 171.418 23.398 171.982 23.173C172.546 23.1355 173.223 23.1355 173.674 23.5479C174.238 23.8104 174.652 24.3728 174.389 25.0101C174.577 26.1723 174.389 27.3346 174.464 28.5343C174.314 29.3216 174.915 29.809 175.367 30.3714C175.855 30.7088 176.758 31.0837 177.322 30.7463C178.676 30.4464 179.202 29.2841 179.127 28.0094C179.052 27.2596 179.24 26.6222 179.089 25.8724C179.202 24.1478 176.532 21.9358 175.141 21.036C174.314 19.9862 173.11 19.3489 172.433 18.2241C172.057 17.8117 171.945 17.2493 171.531 16.9119C171.117 16.0871 171.117 15.2248 170.741 14.4C170.441 12.8253 170.779 11.2507 171.005 9.71354C171.719 8.21387 172.434 7.53902 173.712 6.48926C174.276 6.41428 174.727 6.11434 175.216 5.88939C175.743 5.92688 176.269 5.8519 176.795 5.77692C180.029 5.96438 181.082 6.97665 182.586 9.71354C182.812 10.8008 182.962 11.8506 182.887 12.9753C182.887 13.5377 183.075 14.1001 182.812 14.6624C182.586 15.2248 182.286 15.8622 181.609 15.8247C181.157 16.0871 180.932 16.1246 180.443 15.8996C179.804 15.5247 178.976 14.9624 179.202 14.1001C178.864 13.0128 179.503 11.8131 178.901 10.8383C178.375 10.2384 178.6 9.8635 177.811 9.78852C176.758 9.11367 175.254 9.78852 174.69 10.8008C174.351 11.2507 174.464 11.8131 174.464 12.3379C174.276 13.7626 174.69 15.1873 175.743 16.1996C176.194 16.762 176.532 17.4743 177.284 17.6992C177.548 18.1117 177.623 18.2241 178.036 18.4866C179.352 19.7613 180.857 20.8485 181.872 22.3857C182.361 23.323 182.737 24.3353 182.887 25.3475ZM174.201 8.85123C174.314 8.85123 174.314 8.62628 174.201 8.62628C174.088 8.62628 174.088 8.85123 174.201 8.85123ZM173.862 10.0885C173.975 10.0885 173.975 9.8635 173.862 9.8635C173.712 9.8635 173.712 10.0885 173.862 10.0885ZM180.669 9.97598C180.518 9.97598 180.518 10.2009 180.669 10.2009C180.781 10.2009 180.781 9.97598 180.669 9.97598ZM172.772 10.7633C172.847 10.8383 173.035 10.8383 173.11 10.7258C173.186 10.6133 173.186 10.4634 173.035 10.4259C172.96 10.3884 172.847 10.4634 172.847 10.5384C172.772 10.5384 172.697 10.6883 172.772 10.7633ZM180.932 13.1628C180.857 13.0503 180.744 13.0878 180.744 13.2003C180.706 13.2752 180.706 13.2752 180.706 13.3127C180.706 13.3502 180.706 13.3502 180.706 13.3877C180.706 13.4627 180.706 13.5377 180.781 13.5377C180.819 13.5377 180.857 13.5377 180.857 13.5002H180.894C180.894 13.5752 180.932 13.6127 181.007 13.5752C181.082 13.5752 181.082 13.4627 181.082 13.3877L181.045 13.3502L180.969 13.3127C180.932 13.2377 180.932 13.2003 180.932 13.1628ZM173.562 16.3495C173.562 16.3121 173.562 16.2746 173.524 16.2371C173.411 16.0121 173.411 15.8996 173.298 15.6372V15.5997L173.261 15.5622C173.223 15.5247 173.148 15.5622 173.148 15.5997C173.11 15.7122 173.148 15.7872 173.186 15.8996C173.223 16.0496 173.298 16.2371 173.374 16.387C173.411 16.462 173.524 16.4245 173.562 16.3495ZM174.878 17.4368C174.991 17.4368 174.991 17.2119 174.878 17.2119C174.765 17.2119 174.765 17.4368 174.878 17.4368ZM177.284 20.886C177.397 20.886 177.397 20.6611 177.284 20.6611C177.172 20.6611 177.172 20.886 177.284 20.886ZM181.684 25.46C181.797 25.46 181.797 25.2351 181.684 25.2351C181.571 25.2351 181.571 25.46 181.684 25.46ZM172.697 25.8349C172.697 25.7599 172.734 25.685 172.697 25.6475C172.659 25.535 172.546 25.5725 172.509 25.6475C172.471 25.7974 172.471 25.9099 172.433 25.9849C172.396 26.0224 172.358 26.0224 172.321 26.0974C172.321 26.0974 172.321 26.1349 172.358 26.1723V26.2098C172.358 26.2473 172.358 26.2848 172.396 26.2848C172.396 26.2848 172.396 26.3223 172.433 26.3598C172.509 26.4348 172.622 26.3973 172.659 26.3223C172.697 26.2473 172.697 26.1349 172.622 26.0974C172.659 25.9849 172.659 25.9099 172.697 25.8349ZM181.157 27.4471C181.233 27.4471 181.27 27.3721 181.233 27.2971C181.233 27.2221 181.195 27.1471 181.12 27.1096C181.12 27.0721 181.12 27.0721 181.12 27.0721C181.12 27.0347 181.12 26.9597 181.082 26.9222C181.082 26.7722 180.857 26.8097 180.894 26.9597C180.894 26.9597 180.932 26.9972 180.932 27.0347V27.1471C180.932 27.1846 180.969 27.1846 180.969 27.2221C181.007 27.2971 181.007 27.2596 181.007 27.2971C181.045 27.3346 181.045 27.3346 181.045 27.3721C181.082 27.4096 181.082 27.4471 181.157 27.4471ZM172.622 27.9345C172.734 27.9345 172.734 27.747 172.622 27.7095C172.471 27.747 172.471 27.9345 172.622 27.9345ZM181.345 28.3843C181.458 28.3843 181.458 28.1969 181.345 28.1594C181.195 28.1969 181.195 28.3843 181.345 28.3843ZM176.457 33.0333C176.607 33.0333 176.607 32.8084 176.457 32.8084C176.344 32.8084 176.344 33.0333 176.457 33.0333Z" fill="#CC293D"/>
</svg>
