<svg width="139" height="34" viewBox="0 0 139 34" fill="none" xmlns="http://www.w3.org/2000/svg">
<path d="M17.1096 3.0458C16.2205 3.52287 15.2772 4.4228 14.2797 5.74559C13.2821 7.0467 12.2738 8.71646 11.2546 10.7549C12.0352 10.9067 12.7509 11.0801 13.4014 11.2753C14.0737 11.4705 14.6808 11.6765 15.223 11.8933L17.1096 3.0458ZM19.6467 0.736328C20.1021 0.736328 20.5575 0.779698 21.0129 0.866439C21.4683 0.931495 21.8695 1.03992 22.2164 1.19172L17.1096 25.1321H12.4256L14.9302 13.3245C14.1712 12.9776 13.4556 12.7174 12.7834 12.5439C12.1111 12.3487 11.3739 12.2186 10.5715 12.1536C9.33545 14.8425 8.31625 17.5748 7.5139 20.3505C6.73323 23.1262 6.3429 25.349 6.3429 27.0187C6.3429 27.409 6.37543 27.7452 6.44048 28.0271C6.52723 28.3307 6.64649 28.6017 6.79829 28.8403C5.15022 28.8403 4.01175 28.5584 3.38288 27.9945C2.75401 27.4307 2.43958 26.5633 2.43958 25.3923C2.43958 23.9394 2.87328 21.9986 3.74069 19.5699C4.62978 17.1411 5.78993 14.669 7.22115 12.1536C6.11521 12.2186 5.2478 12.3921 4.61893 12.674C4.01175 12.9559 3.61057 13.3462 3.41541 13.845C3.50215 13.845 3.58889 13.9643 3.67563 14.2028C3.78406 14.4196 3.83827 14.6365 3.83827 14.8534C3.83827 15.222 3.66479 15.5256 3.31783 15.7641C2.97086 16.0027 2.53716 16.1219 2.01672 16.1219C1.40953 16.1219 0.921618 15.9593 0.552971 15.634C0.184324 15.2871 0 14.8208 0 14.2353C0 13.1077 0.628869 12.1644 1.88661 11.4054C3.16603 10.6247 4.74904 10.2344 6.63565 10.2344C6.8525 10.2344 7.10188 10.2453 7.38379 10.2669C7.66569 10.2669 7.98013 10.2886 8.32709 10.332C10.2354 7.31777 12.1762 4.96493 14.1495 3.27349C16.1229 1.58205 17.9553 0.736328 19.6467 0.736328Z" fill="url(#paint0_linear_8021_56183)"/>
<path d="M25.7609 3.33855C26.8669 2.62294 28.0487 2.06997 29.3064 1.67963C30.5859 1.26762 31.8328 1.06161 33.0471 1.06161C33.1989 1.06161 33.3616 1.07245 33.535 1.09413C33.7302 1.09413 34.0013 1.10498 34.3482 1.12666L29.339 24.4815C29.8377 24.59 30.369 24.7743 30.9328 25.0345C31.5183 25.2731 32.3966 25.7068 33.5676 26.3356C35.3241 27.2898 36.6685 27.9186 37.601 28.2222C38.5335 28.5258 39.4226 28.6776 40.2683 28.6776C40.767 28.6776 41.2333 28.6343 41.667 28.5475C42.1224 28.4608 42.5669 28.3307 43.0006 28.1572C42.8271 29.7185 42.4368 30.9546 41.8296 31.8653C41.2224 32.7978 40.4851 33.264 39.6177 33.264C38.8371 33.264 38.0022 33.0472 37.1131 32.6135C36.2457 32.2015 34.9229 31.2907 33.1447 29.8811C31.1063 28.2331 29.5233 27.1488 28.3957 26.6284C27.268 26.1296 26.1729 25.8802 25.1104 25.8802C24.9152 25.8802 24.7634 25.8802 24.655 25.8802C24.5466 25.8802 24.449 25.8911 24.3622 25.9128L29.2089 3.37107C27.7343 3.97826 26.6066 4.88903 25.826 6.1034C25.0453 7.31777 24.655 8.77067 24.655 10.4621C24.655 10.8741 24.6767 11.2319 24.72 11.5355C24.7851 11.8391 24.8827 12.1319 25.0128 12.4138C25.0562 12.5005 25.0778 12.5656 25.0778 12.6089C25.0995 12.6306 25.1104 12.6523 25.1104 12.674C23.896 12.674 23.0069 12.4246 22.4431 11.9259C21.901 11.4054 21.6299 10.6031 21.6299 9.51881C21.6299 8.43455 21.9877 7.35029 22.7033 6.26604C23.4406 5.18178 24.4598 4.20595 25.7609 3.33855Z" fill="url(#paint1_linear_8021_56183)"/>
<path d="M38.0859 3.33855C39.1918 2.62294 40.3736 2.06997 41.6314 1.67963C42.9108 1.26762 44.1577 1.06161 45.3721 1.06161C45.5239 1.06161 45.6865 1.07245 45.86 1.09413C46.0552 1.09413 46.3262 1.10498 46.6732 1.12666L41.6639 24.4815C42.1627 24.59 42.694 24.7743 43.2578 25.0345C43.8433 25.2731 44.7215 25.7068 45.8925 26.3356C47.649 27.2898 48.9935 27.9186 49.9259 28.2222C50.8584 28.5258 51.7475 28.6776 52.5932 28.6776C53.092 28.6776 53.5582 28.6343 53.9919 28.5475C54.4473 28.4608 54.8918 28.3307 55.3255 28.1572C55.1521 29.7185 54.7617 30.9546 54.1545 31.8653C53.5474 32.7978 52.8101 33.264 51.9427 33.264C51.162 33.264 50.3271 33.0472 49.438 32.6135C48.5706 32.2015 47.2478 31.2907 45.4697 29.8811C43.4313 28.2331 41.8482 27.1488 40.7206 26.6284C39.593 26.1296 38.4979 25.8802 37.4353 25.8802C37.2401 25.8802 37.0883 25.8802 36.9799 25.8802C36.8715 25.8802 36.7739 25.8911 36.6872 25.9128L41.5338 3.37107C40.0592 3.97826 38.9316 4.88903 38.1509 6.1034C37.3703 7.31777 36.9799 8.77067 36.9799 10.4621C36.9799 10.8741 37.0016 11.2319 37.045 11.5355C37.11 11.8391 37.2076 12.1319 37.3377 12.4138C37.3811 12.5005 37.4028 12.5656 37.4028 12.6089C37.4245 12.6306 37.4353 12.6523 37.4353 12.674C36.2209 12.674 35.3319 12.4246 34.768 11.9259C34.2259 11.4054 33.9548 10.6031 33.9548 9.51881C33.9548 8.43455 34.3127 7.35029 35.0283 6.26604C35.7656 5.18178 36.7848 4.20595 38.0859 3.33855Z" fill="url(#paint2_linear_8021_56183)"/>
<path d="M58.0807 6.55879C58.0807 4.88903 58.7964 3.50118 60.2276 2.39524C61.6805 1.2893 63.4695 0.736328 65.5946 0.736328C67.2427 0.736328 68.5221 1.07245 69.4329 1.74469C70.3654 2.41693 70.8316 3.38191 70.8316 4.63965C70.8316 5.61548 70.5822 6.40699 70.0835 7.01417C69.6064 7.62136 68.9667 7.92495 68.1643 7.92495C67.8607 7.92495 67.5788 7.87074 67.3186 7.76231C67.0801 7.65389 66.8632 7.4804 66.6681 7.24187C67.1018 6.98165 67.4487 6.59131 67.7089 6.07087C67.9909 5.55043 68.1318 5.0083 68.1318 4.44449C68.1318 3.75056 67.9258 3.21928 67.5138 2.85063C67.1018 2.4603 66.5054 2.26513 65.7248 2.26513C64.7923 2.26513 64.055 2.52535 63.5129 3.0458C62.9924 3.56624 62.7322 4.29269 62.7322 5.22515C62.7322 5.98413 62.9274 6.71058 63.3177 7.40451C63.708 8.07675 64.5538 8.98752 65.8549 10.1368C67.568 11.6331 68.6956 12.9342 69.2377 14.0402C69.7799 15.1244 70.0509 16.3388 70.0509 17.6833C70.0509 20.1554 69.1944 22.1287 67.4812 23.6033C65.7681 25.0779 63.5779 25.8152 60.9107 25.8152C58.7855 25.8152 57.1049 25.3273 55.8689 24.3514C54.6328 23.3756 54.0148 21.9986 54.0148 20.2204C54.0148 18.6591 54.481 17.3797 55.4135 16.3822C56.3459 15.3846 57.4736 14.8859 58.7964 14.8859C59.6204 14.8859 60.2926 15.081 60.8131 15.4714C61.3335 15.84 61.6154 16.3605 61.6588 17.0327C60.5312 17.0327 59.6095 17.3038 58.8939 17.8459C58.2 18.388 57.853 19.1362 57.853 20.0903C57.853 21.0011 58.135 21.7492 58.6988 22.3347C59.2626 22.9202 60.0216 23.213 60.9757 23.213C62.1033 23.213 63.0141 22.8226 63.708 22.042C64.402 21.2613 64.7489 20.2096 64.7489 18.8868C64.7489 17.8676 64.5212 16.8918 64.0658 15.9593C63.6105 15.0268 62.6671 13.7799 61.2359 12.2186C59.9348 10.8308 59.0783 9.7465 58.6662 8.96584C58.2759 8.16349 58.0807 7.36114 58.0807 6.55879Z" fill="url(#paint3_linear_8021_56183)"/>
<path d="M76.0137 3.33855C77.1196 2.62294 78.3015 2.06997 79.5592 1.67963C80.8386 1.26762 82.0855 1.06161 83.2999 1.06161C83.4517 1.06161 83.6143 1.07245 83.7878 1.09413C83.983 1.09413 84.254 1.10498 84.601 1.12666L79.5917 24.4815C80.0905 24.59 80.6218 24.7743 81.1856 25.0345C81.7711 25.2731 82.6493 25.7068 83.8203 26.3356C85.5768 27.2898 86.9213 27.9186 87.8538 28.2222C88.7862 28.5258 89.6753 28.6776 90.521 28.6776C91.0198 28.6776 91.486 28.6343 91.9197 28.5475C92.3751 28.4608 92.8196 28.3307 93.2533 28.1572C93.0799 29.7185 92.6895 30.9546 92.0824 31.8653C91.4752 32.7978 90.7379 33.264 89.8705 33.264C89.0898 33.264 88.2549 33.0472 87.3658 32.6135C86.4984 32.2015 85.1756 31.2907 83.3975 29.8811C81.359 28.2331 79.776 27.1488 78.6484 26.6284C77.5208 26.1296 76.4257 25.8802 75.3631 25.8802C75.168 25.8802 75.0162 25.8802 74.9077 25.8802C74.7993 25.8802 74.7017 25.8911 74.615 25.9128L79.4616 3.37107C77.987 3.97826 76.8594 4.88903 76.0787 6.1034C75.2981 7.31777 74.9077 8.77067 74.9077 10.4621C74.9077 10.8741 74.9294 11.2319 74.9728 11.5355C75.0378 11.8391 75.1354 12.1319 75.2655 12.4138C75.3089 12.5005 75.3306 12.5656 75.3306 12.6089C75.3523 12.6306 75.3631 12.6523 75.3631 12.674C74.1488 12.674 73.2597 12.4246 72.6958 11.9259C72.1537 11.4054 71.8827 10.6031 71.8827 9.51881C71.8827 8.43455 72.2405 7.35029 72.9561 6.26604C73.6934 5.18178 74.7126 4.20595 76.0137 3.33855Z" fill="url(#paint4_linear_8021_56183)"/>
<path d="M89.5747 9.55133C90.4421 7.59967 91.4504 6.11424 92.5997 5.09504C93.7491 4.05415 94.9959 3.53371 96.3404 3.53371C96.644 3.53371 96.9368 3.5554 97.2187 3.59877C97.5006 3.64214 97.7716 3.70719 98.0319 3.79393C96.644 4.63965 95.3429 6.69974 94.1285 9.97419C92.9359 13.2486 92.3395 16.2304 92.3395 18.9193C92.3395 20.1337 92.5022 21.0661 92.8274 21.7167C93.1527 22.3672 93.6189 22.6925 94.2261 22.6925C95.1152 22.6925 96.026 22.1179 96.9585 20.9686C97.8909 19.8192 98.715 18.2796 99.4306 16.3496C99.951 14.9835 100.341 13.5739 100.602 12.121C100.883 10.6464 101.024 9.24774 101.024 7.92495C101.024 5.75644 100.71 4.27101 100.081 3.46866C99.4522 2.64462 98.3788 2.2326 96.8609 2.2326C94.1936 2.2326 91.96 3.02411 90.1602 4.60712C88.382 6.16845 87.4929 8.16349 87.4929 10.5922C87.4929 10.8958 87.5037 11.1669 87.5254 11.4054C87.5688 11.6223 87.6447 11.85 87.7531 12.0885C87.7748 12.1752 87.7856 12.2403 87.7856 12.2837C87.8073 12.3053 87.8182 12.327 87.8182 12.3487C86.7122 12.3487 85.8882 12.1319 85.3461 11.6982C84.8039 11.2428 84.5329 10.5489 84.5329 9.61639C84.5329 8.40202 84.9557 7.20934 85.8015 6.03834C86.6689 4.84566 87.8615 3.80478 89.3795 2.91568C90.5939 2.22176 91.9058 1.69047 93.3154 1.32183C94.7466 0.931494 96.1886 0.736328 97.6415 0.736328C100.2 0.736328 102.12 1.44109 103.399 2.85063C104.7 4.23848 105.351 6.30941 105.351 9.06342C105.351 10.8633 105.09 12.7174 104.57 14.6257C104.049 16.5339 103.334 18.2362 102.423 19.7325C101.317 21.5541 99.9944 22.9419 98.4547 23.896C96.9151 24.8502 95.2128 25.3273 93.3479 25.3273C91.4396 25.3273 89.9867 24.7743 88.9892 23.6684C88.0133 22.5624 87.5254 20.936 87.5254 18.7892C87.5254 17.4014 87.7097 15.8726 88.0784 14.2028C88.447 12.5114 88.9458 10.9609 89.5747 9.55133Z" fill="url(#paint5_linear_8021_56183)"/>
<path d="M125.259 1.51699C125.909 1.51699 126.571 1.46278 127.243 1.35436C127.915 1.22424 128.512 1.05076 129.032 0.833912C129.01 2.22176 128.653 3.26265 127.959 3.95657C127.286 4.62881 126.289 4.96493 124.966 4.96493C124.337 4.96493 123.632 4.91072 122.852 4.80229C122.093 4.69387 121.117 4.50954 119.924 4.24932L115.435 25.1321H110.751L115.37 3.59877H114.98C112.877 3.59877 111.326 4.14089 110.329 5.22515C109.353 6.28772 108.865 7.93579 108.865 10.1694C108.865 10.5814 108.887 10.9392 108.93 11.2428C108.995 11.5464 109.093 11.8391 109.223 12.121C109.266 12.2078 109.288 12.2728 109.288 12.3162C109.309 12.3379 109.32 12.3596 109.32 12.3812C108.106 12.3812 107.217 12.1319 106.653 11.6331C106.111 11.1127 105.84 10.3103 105.84 9.22606C105.84 6.64553 106.805 4.59628 108.735 3.07832C110.686 1.53868 113.419 0.768857 116.932 0.768857C117.647 0.768857 118.33 0.801385 118.981 0.866439C119.653 0.90981 120.51 1.00739 121.551 1.15919C122.461 1.31099 123.166 1.40857 123.665 1.45194C124.185 1.49531 124.717 1.51699 125.259 1.51699Z" fill="url(#paint6_linear_8021_56183)"/>
<path d="M126.249 6.55879C126.249 4.88903 126.965 3.50118 128.396 2.39524C129.849 1.2893 131.638 0.736328 133.763 0.736328C135.411 0.736328 136.691 1.07245 137.601 1.74469C138.534 2.41693 139 3.38191 139 4.63965C139 5.61548 138.751 6.40699 138.252 7.01417C137.775 7.62136 137.135 7.92495 136.333 7.92495C136.029 7.92495 135.747 7.87074 135.487 7.76231C135.248 7.65389 135.032 7.4804 134.836 7.24187C135.27 6.98165 135.617 6.59131 135.877 6.07087C136.159 5.55043 136.3 5.0083 136.3 4.44449C136.3 3.75056 136.094 3.21928 135.682 2.85063C135.27 2.4603 134.674 2.26513 133.893 2.26513C132.961 2.26513 132.223 2.52535 131.681 3.0458C131.161 3.56624 130.901 4.29269 130.901 5.22515C130.901 5.98413 131.096 6.71058 131.486 7.40451C131.876 8.07675 132.722 8.98752 134.023 10.1368C135.736 11.6331 136.864 12.9342 137.406 14.0402C137.948 15.1244 138.219 16.3388 138.219 17.6833C138.219 20.1554 137.363 22.1287 135.65 23.6033C133.937 25.0779 131.746 25.8152 129.079 25.8152C126.954 25.8152 125.273 25.3273 124.037 24.3514C122.801 23.3756 122.183 21.9986 122.183 20.2204C122.183 18.6591 122.649 17.3797 123.582 16.3822C124.514 15.3846 125.642 14.8859 126.965 14.8859C127.789 14.8859 128.461 15.081 128.981 15.4714C129.502 15.84 129.784 16.3605 129.827 17.0327C128.7 17.0327 127.778 17.3038 127.062 17.8459C126.368 18.388 126.021 19.1362 126.021 20.0903C126.021 21.0011 126.303 21.7492 126.867 22.3347C127.431 22.9202 128.19 23.213 129.144 23.213C130.272 23.213 131.183 22.8226 131.876 22.042C132.57 21.2613 132.917 20.2096 132.917 18.8868C132.917 17.8676 132.69 16.8918 132.234 15.9593C131.779 15.0268 130.836 13.7799 129.404 12.2186C128.103 10.8308 127.247 9.7465 126.835 8.96584C126.444 8.16349 126.249 7.36114 126.249 6.55879Z" fill="url(#paint7_linear_8021_56183)"/>
<defs>
<linearGradient id="paint0_linear_8021_56183" x1="69.7967" y1="-8.17006" x2="69.4095" y2="29.7789" gradientUnits="userSpaceOnUse">
<stop stop-color="white"/>
<stop offset="0.590751" stop-color="#E4A061"/>
<stop offset="1" stop-color="#D33D28"/>
</linearGradient>
<linearGradient id="paint1_linear_8021_56183" x1="69.7967" y1="-8.17006" x2="69.4095" y2="29.7789" gradientUnits="userSpaceOnUse">
<stop stop-color="white"/>
<stop offset="0.590751" stop-color="#E4A061"/>
<stop offset="1" stop-color="#D33D28"/>
</linearGradient>
<linearGradient id="paint2_linear_8021_56183" x1="69.7967" y1="-8.17006" x2="69.4095" y2="29.7789" gradientUnits="userSpaceOnUse">
<stop stop-color="white"/>
<stop offset="0.590751" stop-color="#E4A061"/>
<stop offset="1" stop-color="#D33D28"/>
</linearGradient>
<linearGradient id="paint3_linear_8021_56183" x1="69.7967" y1="-8.17006" x2="69.4095" y2="29.7789" gradientUnits="userSpaceOnUse">
<stop stop-color="white"/>
<stop offset="0.590751" stop-color="#E4A061"/>
<stop offset="1" stop-color="#D33D28"/>
</linearGradient>
<linearGradient id="paint4_linear_8021_56183" x1="69.7967" y1="-8.17006" x2="69.4095" y2="29.7789" gradientUnits="userSpaceOnUse">
<stop stop-color="white"/>
<stop offset="0.590751" stop-color="#E4A061"/>
<stop offset="1" stop-color="#D33D28"/>
</linearGradient>
<linearGradient id="paint5_linear_8021_56183" x1="69.7967" y1="-8.17006" x2="69.4095" y2="29.7789" gradientUnits="userSpaceOnUse">
<stop stop-color="white"/>
<stop offset="0.590751" stop-color="#E4A061"/>
<stop offset="1" stop-color="#D33D28"/>
</linearGradient>
<linearGradient id="paint6_linear_8021_56183" x1="69.7967" y1="-8.17006" x2="69.4095" y2="29.7789" gradientUnits="userSpaceOnUse">
<stop stop-color="white"/>
<stop offset="0.590751" stop-color="#E4A061"/>
<stop offset="1" stop-color="#D33D28"/>
</linearGradient>
<linearGradient id="paint7_linear_8021_56183" x1="69.7967" y1="-8.17006" x2="69.4095" y2="29.7789" gradientUnits="userSpaceOnUse">
<stop stop-color="white"/>
<stop offset="0.590751" stop-color="#E4A061"/>
<stop offset="1" stop-color="#D33D28"/>
</linearGradient>
</defs>
</svg>
