<svg width="150" height="16" viewBox="0 0 150 16" fill="none" xmlns="http://www.w3.org/2000/svg">
<path d="M8.4 15.9206C7.19586 15.9206 6.07876 15.732 5.04871 15.3548C4.01865 14.9631 3.12643 14.4118 2.37202 13.7009C1.63212 12.99 1.05181 12.1558 0.631088 11.1983C0.210363 10.2263 0 9.15999 0 7.99937C0 6.83875 0.210363 5.77968 0.631088 4.82217C1.05181 3.85015 1.63938 3.0087 2.39378 2.29781C3.14819 1.58693 4.04041 1.04289 5.07047 0.66569C6.11503 0.27398 7.25389 0.078125 8.48705 0.078125C9.92332 0.078125 11.2073 0.317503 12.3389 0.79626C13.4705 1.27502 14.4062 1.96414 15.1461 2.86362L12.4041 5.34445C11.8819 4.77864 11.3161 4.35792 10.7067 4.08227C10.1119 3.79212 9.44456 3.64704 8.70466 3.64704C8.05182 3.64704 7.457 3.74859 6.92021 3.9517C6.38342 4.15481 5.92643 4.45222 5.54922 4.84393C5.17202 5.22113 4.87461 5.67813 4.657 6.21491C4.45389 6.73719 4.35233 7.33201 4.35233 7.99937C4.35233 8.63771 4.45389 9.22528 4.657 9.76206C4.87461 10.2989 5.17202 10.7631 5.54922 11.1548C5.92643 11.532 6.37617 11.8294 6.89845 12.047C7.43523 12.2501 8.0228 12.3517 8.66114 12.3517C9.29948 12.3517 9.92332 12.2501 10.5326 12.047C11.142 11.8294 11.7586 11.4667 12.3824 10.959L14.7979 13.9838C13.9275 14.6077 12.9192 15.0864 11.7731 15.4201C10.6269 15.7538 9.50259 15.9206 8.4 15.9206ZM10.9896 13.418V7.67295H14.7979V13.9838L10.9896 13.418Z" fill="url(#paint0_linear_1770_48612)"/>
<path d="M17.5297 15.616V0.382788H24.4934C25.8862 0.382788 27.0831 0.607659 28.0841 1.0574C29.0996 1.50714 29.8831 2.15999 30.4344 3.01595C30.9857 3.8574 31.2613 4.85844 31.2613 6.01906C31.2613 7.16517 30.9857 8.15896 30.4344 9.00041C29.8831 9.82735 29.0996 10.4657 28.0841 10.9154C27.0831 11.3507 25.8862 11.5683 24.4934 11.5683H19.9235L21.8385 9.76206V15.616H17.5297ZM26.9525 15.616L23.166 10.0667H27.7577L31.566 15.616H26.9525ZM21.8385 10.2191L19.9235 8.23875H24.2323C25.1318 8.23875 25.7991 8.04289 26.2344 7.65118C26.6841 7.25947 26.909 6.71543 26.909 6.01906C26.909 5.30818 26.6841 4.75688 26.2344 4.36517C25.7991 3.97346 25.1318 3.77761 24.2323 3.77761H19.9235L21.8385 1.7973V10.2191Z" fill="url(#paint1_linear_1770_48612)"/>
<path d="M31.8104 15.616L38.5348 0.382788H42.7783L49.5244 15.616H45.0415L39.7752 2.49367H41.4726L36.2063 15.616H31.8104ZM35.4882 12.6564L36.598 9.47916H44.0405L45.1503 12.6564H35.4882Z" fill="url(#paint2_linear_1770_48612)"/>
<path d="M53.2234 15.616V3.79937H48.5447V0.382788H62.1892V3.79937H57.5322V15.616H53.2234Z" fill="url(#paint3_linear_1770_48612)"/>
<path d="M71.2638 15.9206C70.0452 15.9206 68.9208 15.7248 67.8908 15.333C66.8607 14.9413 65.9612 14.39 65.1923 13.6792C64.4379 12.9538 63.8504 12.1123 63.4296 11.1548C63.0089 10.1973 62.7985 9.14548 62.7985 7.99937C62.7985 6.85326 63.0089 5.80144 63.4296 4.84393C63.8504 3.88642 64.4379 3.05222 65.1923 2.34134C65.9612 1.61595 66.8607 1.0574 67.8908 0.66569C68.9208 0.27398 70.0452 0.078125 71.2638 0.078125C72.497 0.078125 73.6213 0.27398 74.6369 0.66569C75.6669 1.0574 76.5592 1.61595 77.3136 2.34134C78.068 3.05222 78.6555 3.88642 79.0763 4.84393C79.5115 5.80144 79.7291 6.85326 79.7291 7.99937C79.7291 9.14548 79.5115 10.2046 79.0763 11.1766C78.6555 12.1341 78.068 12.9683 77.3136 13.6792C76.5592 14.39 75.6669 14.9413 74.6369 15.333C73.6213 15.7248 72.497 15.9206 71.2638 15.9206ZM71.2638 12.3517C71.8441 12.3517 72.3809 12.2501 72.8742 12.047C73.382 11.8439 73.8172 11.5538 74.1799 11.1766C74.5571 10.7849 74.8472 10.3206 75.0504 9.78383C75.268 9.24704 75.3768 8.65222 75.3768 7.99937C75.3768 7.33201 75.268 6.73719 75.0504 6.21491C74.8472 5.67813 74.5571 5.22113 74.1799 4.84393C73.8172 4.45222 73.382 4.15481 72.8742 3.9517C72.3809 3.74859 71.8441 3.64704 71.2638 3.64704C70.6835 3.64704 70.1395 3.74859 69.6317 3.9517C69.1384 4.15481 68.7032 4.45222 68.326 4.84393C67.9633 5.22113 67.6731 5.67813 67.4555 6.21491C67.2524 6.73719 67.1509 7.33201 67.1509 7.99937C67.1509 8.65222 67.2524 9.24704 67.4555 9.78383C67.6731 10.3206 67.9633 10.7849 68.326 11.1766C68.7032 11.5538 69.1384 11.8439 69.6317 12.047C70.1395 12.2501 70.6835 12.3517 71.2638 12.3517Z" fill="url(#paint4_linear_1770_48612)"/>
<path d="M89.6024 15.9206C88.3983 15.9206 87.2812 15.732 86.2512 15.3548C85.2211 14.9631 84.3289 14.4118 83.5745 13.7009C82.8346 12.99 82.2543 12.1558 81.8335 11.1983C81.4128 10.2263 81.2024 9.15999 81.2024 7.99937C81.2024 6.83875 81.4128 5.77968 81.8335 4.82217C82.2543 3.85015 82.8418 3.0087 83.5962 2.29781C84.3506 1.58693 85.2429 1.04289 86.2729 0.66569C87.3175 0.27398 88.4563 0.078125 89.6895 0.078125C91.1258 0.078125 92.4097 0.317503 93.5413 0.79626C94.6729 1.27502 95.6087 1.96414 96.3486 2.86362L93.6066 5.34445C93.0843 4.77864 92.5185 4.35792 91.9092 4.08227C91.3144 3.79212 90.647 3.64704 89.9071 3.64704C89.2543 3.64704 88.6594 3.74859 88.1227 3.9517C87.5859 4.15481 87.1289 4.45222 86.7517 4.84393C86.3745 5.22113 86.0771 5.67813 85.8594 6.21491C85.6563 6.73719 85.5548 7.33201 85.5548 7.99937C85.5548 8.63771 85.6563 9.22528 85.8594 9.76206C86.0771 10.2989 86.3745 10.7631 86.7517 11.1548C87.1289 11.532 87.5786 11.8294 88.1009 12.047C88.6377 12.2501 89.2252 12.3517 89.8636 12.3517C90.5019 12.3517 91.1258 12.2501 91.7351 12.047C92.3444 11.8294 92.961 11.4667 93.5848 10.959L96.0004 13.9838C95.1299 14.6077 94.1216 15.0864 92.9755 15.4201C91.8294 15.7538 90.705 15.9206 89.6024 15.9206ZM92.1921 13.418V7.67295H96.0004V13.9838L92.1921 13.418Z" fill="url(#paint5_linear_1770_48612)"/>
<path d="M96.9042 15.616L103.629 0.382788H107.872L114.618 15.616H110.135L104.869 2.49367H106.566L101.3 15.616H96.9042ZM100.582 12.6564L101.692 9.47916H109.134L110.244 12.6564H100.582Z" fill="url(#paint6_linear_1770_48612)"/>
<path d="M115.84 15.616V0.382788H119.387L127.787 10.5237H126.111V0.382788H130.333V15.616H126.786L118.386 5.47502H120.061V15.616H115.84Z" fill="url(#paint7_linear_1770_48612)"/>
<path d="M131.544 15.616L138.269 0.382788H142.512L149.258 15.616H144.775L139.509 2.49367H141.206L135.94 15.616H131.544ZM135.222 12.6564L136.332 9.47916H143.774L144.884 12.6564H135.222Z" fill="url(#paint8_linear_1770_48612)"/>
<defs>
<linearGradient id="paint0_linear_1770_48612" x1="119.338" y1="-10.7443" x2="53.0028" y2="40.1859" gradientUnits="userSpaceOnUse">
<stop stop-color="#FF1E48"/>
<stop offset="1" stop-color="#FDAD00"/>
</linearGradient>
<linearGradient id="paint1_linear_1770_48612" x1="119.338" y1="-10.7443" x2="53.0028" y2="40.1859" gradientUnits="userSpaceOnUse">
<stop stop-color="#FF1E48"/>
<stop offset="1" stop-color="#FDAD00"/>
</linearGradient>
<linearGradient id="paint2_linear_1770_48612" x1="119.338" y1="-10.7443" x2="53.0028" y2="40.1859" gradientUnits="userSpaceOnUse">
<stop stop-color="#FF1E48"/>
<stop offset="1" stop-color="#FDAD00"/>
</linearGradient>
<linearGradient id="paint3_linear_1770_48612" x1="119.338" y1="-10.7443" x2="53.0028" y2="40.1859" gradientUnits="userSpaceOnUse">
<stop stop-color="#FF1E48"/>
<stop offset="1" stop-color="#FDAD00"/>
</linearGradient>
<linearGradient id="paint4_linear_1770_48612" x1="119.338" y1="-10.7443" x2="53.0028" y2="40.1859" gradientUnits="userSpaceOnUse">
<stop stop-color="#FF1E48"/>
<stop offset="1" stop-color="#FDAD00"/>
</linearGradient>
<linearGradient id="paint5_linear_1770_48612" x1="119.338" y1="-10.7443" x2="53.0028" y2="40.1859" gradientUnits="userSpaceOnUse">
<stop stop-color="#FF1E48"/>
<stop offset="1" stop-color="#FDAD00"/>
</linearGradient>
<linearGradient id="paint6_linear_1770_48612" x1="119.338" y1="-10.7443" x2="53.0028" y2="40.1859" gradientUnits="userSpaceOnUse">
<stop stop-color="#FF1E48"/>
<stop offset="1" stop-color="#FDAD00"/>
</linearGradient>
<linearGradient id="paint7_linear_1770_48612" x1="119.338" y1="-10.7443" x2="53.0028" y2="40.1859" gradientUnits="userSpaceOnUse">
<stop stop-color="#FF1E48"/>
<stop offset="1" stop-color="#FDAD00"/>
</linearGradient>
<linearGradient id="paint8_linear_1770_48612" x1="119.338" y1="-10.7443" x2="53.0028" y2="40.1859" gradientUnits="userSpaceOnUse">
<stop stop-color="#FF1E48"/>
<stop offset="1" stop-color="#FDAD00"/>
</linearGradient>
</defs>
</svg>
