<svg width="244" height="29" viewBox="0 0 244 29" fill="none" xmlns="http://www.w3.org/2000/svg">
<path d="M11.735 28.5641C11.3763 28.5641 11.1129 28.4633 10.9448 28.2615C10.7879 28.0598 10.7094 27.6899 10.7094 27.1519V26.9165L10.7263 26.6643C10.7375 26.4738 10.8215 26.1207 10.9784 25.6052C11.1466 25.0896 11.3483 24.5012 11.5837 23.8399C11.8303 23.1786 12.0712 22.5285 12.3066 21.8896C12.5532 21.2396 12.7606 20.696 12.9287 20.2588C12.1665 20.9762 11.3091 21.6935 10.3564 22.4108C9.40369 23.1281 8.42297 23.7278 7.41423 24.2097C6.40549 24.6917 5.44159 24.9327 4.52251 24.9327C3.49136 24.9327 2.63953 24.6861 1.96704 24.1929C1.29455 23.6998 0.795783 23.0721 0.470745 22.3099C0.156915 21.5478 0 20.7688 0 19.973V19.7545L0.0168123 19.5527C0.106478 18.1293 0.392287 16.661 0.874241 15.1479C1.3674 13.6348 2.00627 12.1441 2.79085 10.6758C3.58663 9.19634 4.48328 7.81773 5.48082 6.53999C6.22056 5.58729 7.01074 4.71305 7.85135 3.91727C8.69197 3.11028 9.555 2.41537 10.4404 1.83254C11.3259 1.26092 12.217 0.812595 13.1136 0.487557C14.0215 0.162519 14.9181 0 15.8036 0C16.8235 0 17.8099 0.235373 18.7625 0.706117C19.7152 1.17686 20.6063 1.93902 21.4357 2.99259C21.6262 3.22797 21.7439 3.46894 21.7888 3.71552C21.8448 3.9509 21.8728 4.17506 21.8728 4.38802C21.8728 4.89239 21.7271 5.29028 21.4357 5.58169C21.1555 5.8731 20.8193 6.01881 20.427 6.01881C20.0683 6.01881 19.7321 5.8619 19.4182 5.54807C19.1156 5.22303 18.7738 4.76349 18.3927 4.16946C18.034 3.63146 17.6361 3.24478 17.199 3.00941C16.7731 2.76282 16.308 2.63953 15.8036 2.63953C15.0302 2.63953 14.2008 2.90853 13.3154 3.44653C12.4411 3.97331 11.5557 4.69624 10.659 5.61531C9.77356 6.53439 8.93295 7.57115 8.13716 8.72559C7.33017 9.90246 6.61285 11.1129 5.98519 12.3571C5.35753 13.59 4.86436 14.7836 4.5057 15.9381C4.15825 17.0925 3.98452 18.1405 3.98452 19.082C3.98452 19.4967 4.03496 19.9226 4.13583 20.3597C4.2367 20.7856 4.42164 21.1443 4.69064 21.4357C4.95963 21.7271 5.34071 21.8728 5.83387 21.8728C6.45033 21.8728 7.18446 21.6262 8.03629 21.1331C8.88811 20.6287 9.73994 20.0179 10.5918 19.3005C11.4436 18.5832 12.2113 17.8491 12.895 17.0981C13.59 16.3472 14.0775 15.7251 14.3577 15.232L15.9213 11.2811C16.1118 10.8552 16.3584 10.5525 16.661 10.3732C16.9748 10.1939 17.2943 10.1042 17.6193 10.1042C17.9443 10.1042 18.2414 10.1939 18.5104 10.3732C18.7794 10.5525 18.9139 10.8552 18.9139 11.2811C18.9139 12.3458 18.7121 13.3154 18.3086 14.1896C17.9163 15.0526 17.5184 15.9717 17.1149 16.9468C17.0589 17.0253 16.9356 17.3167 16.7451 17.8211C16.5545 18.3142 16.3304 18.9195 16.0726 19.6368C15.8148 20.3429 15.557 21.0602 15.2992 21.7888C14.75 23.3131 14.3409 24.4843 14.0719 25.3025C13.8141 26.1207 13.6628 26.5747 13.618 26.6643C13.4947 27.0678 13.2481 27.4825 12.8782 27.9085C12.5196 28.3456 12.1385 28.5641 11.735 28.5641Z" fill="white"/>
<path d="M19.4855 24.6805C18.9251 24.6805 18.6449 24.3947 18.6449 23.8231C18.6449 23.6998 18.6617 23.5485 18.6953 23.3691C18.7401 23.1786 18.8242 22.9712 18.9475 22.7471C19.138 22.3884 19.3454 21.9681 19.5695 21.4861C19.7937 20.993 20.0291 20.483 20.2757 19.9562C20.5447 19.3846 20.8529 18.7289 21.2003 17.9892C21.559 17.2382 21.9793 16.3752 22.4613 15.4001C22.3043 15.2656 22.1698 15.1031 22.0578 14.9125C21.9569 14.7108 21.9065 14.4642 21.9065 14.1728C21.9065 13.646 22.1082 13.2593 22.5117 13.0127C22.9264 12.7549 23.4196 12.6261 23.9912 12.6261C24.5516 12.6261 25.0952 12.7269 25.622 12.9287C26.16 13.1192 26.429 13.4106 26.429 13.8029C26.429 13.8477 26.3897 13.9542 26.3113 14.1223C26.244 14.2793 26.2104 14.3857 26.2104 14.4418C26.2104 14.4642 26.216 14.4754 26.2272 14.4754H26.244L26.2777 14.4586C27.1071 13.943 27.9981 13.5059 28.9508 13.1472C29.9035 12.7886 30.6881 12.6092 31.3045 12.6092C31.8089 12.6092 32.1956 12.7325 32.4646 12.9791C32.7448 13.2145 32.8849 13.618 32.8849 14.1896C32.8849 14.3129 32.8793 14.4474 32.8681 14.5931C32.8569 14.7276 32.8345 14.8733 32.8008 15.0302C32.7224 15.4449 32.4085 15.9829 31.8593 16.6442C31.3101 17.3055 30.7273 17.9444 30.1109 18.5608C29.8307 18.841 29.4944 19.1773 29.1021 19.5695C28.7098 19.9506 28.368 20.3037 28.0766 20.6287C27.7852 20.9425 27.6395 21.1555 27.6395 21.2676C27.6395 21.4245 27.6955 21.503 27.8076 21.503C28.6146 21.1555 29.528 20.7296 30.548 20.2252C31.5679 19.7096 32.5543 19.1941 33.507 18.6785C34.4597 18.1629 35.2386 17.7314 35.8439 17.3839C36.0792 17.2494 36.281 17.1822 36.4491 17.1822C36.9199 17.1822 37.1552 17.4288 37.1552 17.9219C37.1552 18.1797 37.0431 18.4767 36.819 18.813C36.606 19.138 36.2418 19.4799 35.7262 19.8385C35.2442 20.1412 34.5829 20.5615 33.7423 21.0995C32.9129 21.6262 32.0891 22.125 31.2709 22.5958C30.4639 23.0553 29.6906 23.4476 28.9508 23.7726C28.2223 24.0977 27.6114 24.2602 27.1183 24.2602C26.3449 24.2602 25.7621 24.0752 25.3698 23.7054C24.9887 23.3355 24.7982 22.8592 24.7982 22.2763C24.7982 22.1754 24.8038 22.1082 24.815 22.0746C24.9383 21.3573 25.1961 20.6623 25.5883 19.9898C25.9806 19.3174 26.3897 18.7009 26.8156 18.1405C27.2416 17.5913 27.617 17.0813 27.9421 16.6106C28.2783 16.1398 28.4464 15.7363 28.4464 15.4001C28.4464 15.232 28.3848 15.1479 28.2615 15.1479C28.0822 15.1479 27.7571 15.2376 27.2864 15.4169C26.8156 15.585 26.3505 15.8092 25.891 16.0894C25.4314 16.3696 25.1176 16.6666 24.9495 16.9804C24.7253 17.3727 24.4395 17.9219 24.0921 18.628C23.7558 19.323 23.4196 20.0347 23.0833 20.7632C22.7583 21.4918 22.4837 22.097 22.2595 22.5789C22.0129 23.1954 21.6038 23.6998 21.0322 24.0921C20.4718 24.4843 19.9562 24.6805 19.4855 24.6805Z" fill="white"/>
<path d="M37.2225 24.6805C36.8414 24.6805 36.3875 24.574 35.8607 24.3611C35.3339 24.1481 34.8688 23.795 34.4653 23.3019C34.073 22.8087 33.8768 22.1474 33.8768 21.318C33.8768 20.6231 34.0337 19.7545 34.3476 18.7121C34.6614 17.6698 35.1546 16.6442 35.8271 15.6355C36.4995 14.6043 37.357 13.7469 38.3993 13.0632C39.4529 12.3795 40.669 12.0376 42.0476 12.0376C42.5408 12.0376 42.9723 12.0993 43.3422 12.2226C43.712 12.3458 44.0259 12.4803 44.2836 12.6261C44.4294 12.7157 44.5639 12.811 44.6871 12.9119C44.8216 13.0015 44.9449 13.1024 45.057 13.2145L45.6454 12.9287C45.8136 12.8502 45.9873 12.783 46.1666 12.7269C46.3572 12.6597 46.5197 12.6261 46.6542 12.6261C47.0801 12.6261 47.4276 12.7437 47.6965 12.9791C47.9655 13.2145 48.1 13.4723 48.1 13.7525C48.1 13.8421 48.0944 13.9038 48.0832 13.9374C48.0048 14.2512 47.8591 14.6828 47.6461 15.232C47.4444 15.7812 47.2258 16.392 46.9904 17.0645C46.7551 17.7146 46.5533 18.3422 46.3852 18.9475C46.2283 19.5527 46.1498 20.0515 46.1498 20.4438C46.1498 20.78 46.2059 21.0602 46.3179 21.2844C46.43 21.4974 46.6206 21.6038 46.8896 21.6038C47.2146 21.6038 47.6517 21.4189 48.2009 21.049C48.7501 20.6679 49.3161 20.2196 49.899 19.704C50.2128 19.4238 50.5378 19.1268 50.8741 18.813C51.2103 18.4879 51.5522 18.1461 51.8996 17.7874C52.079 17.6417 52.2527 17.5689 52.4208 17.5689C52.645 17.5689 52.8299 17.681 52.9756 17.9051C53.1325 18.1181 53.211 18.3591 53.211 18.628C53.211 18.9419 53.1045 19.2053 52.8916 19.4182C52.4432 19.8329 51.9837 20.2757 51.5129 20.7464C51.0422 21.2171 50.3921 21.7944 49.5627 22.4781C48.823 23.0833 48.0608 23.6045 47.2762 24.0416C46.4917 24.4675 45.7855 24.6805 45.1579 24.6805C44.3733 24.6805 43.8017 24.3779 43.443 23.7726C43.0844 23.1562 42.905 22.5005 42.905 21.8056C42.905 21.3012 42.9779 20.8529 43.1236 20.4606C42.6641 21.077 42.1205 21.7159 41.4928 22.3772C40.8651 23.0273 40.187 23.5765 39.4585 24.0248C38.73 24.4619 37.9846 24.6805 37.2225 24.6805ZM38.5675 21.7215C38.9261 21.7215 39.3745 21.4918 39.9124 21.0322C40.4616 20.5727 40.9884 20.0347 41.4928 19.4182C42.0532 18.7457 42.4959 18.1349 42.821 17.5857C43.146 17.0365 43.3085 16.6666 43.3085 16.4761C43.3085 16.0502 43.062 15.7139 42.5688 15.4673C42.0756 15.2095 41.6329 15.0807 41.2406 15.0807C40.5457 15.0807 39.8844 15.3048 39.2568 15.7531C38.6403 16.2015 38.1359 16.7787 37.7437 17.4848C37.3514 18.1797 37.1552 18.9027 37.1552 19.6536C37.1552 20.0907 37.2337 20.5447 37.3906 21.0154C37.5587 21.4861 37.951 21.7215 38.5675 21.7215Z" fill="white"/>
<path d="M50.9245 24.6805C50.5322 24.6805 50.224 24.5572 49.9998 24.3106C49.7757 24.064 49.6636 23.7614 49.6636 23.4028C49.6636 23.1113 49.8317 22.5677 50.168 21.772C50.5042 20.965 50.8965 20.1019 51.3448 19.1829C51.9164 17.9836 52.4208 16.9468 52.8579 16.0726C53.295 15.1871 53.6201 14.5146 53.833 14.0551C54.0572 13.5731 54.3374 13.2145 54.6737 12.9791C55.0099 12.7437 55.3405 12.6261 55.6656 12.6261C55.9346 12.6261 56.1756 12.7269 56.3885 12.9287C56.6015 13.1192 56.708 13.405 56.708 13.7861C56.708 13.9318 56.6911 14.0887 56.6575 14.2568C56.6239 14.425 56.5622 14.6043 56.4726 14.7948C56.82 14.3577 57.3356 13.9318 58.0193 13.5171C58.703 13.0912 59.4428 12.7381 60.2385 12.4579C61.0343 12.1777 61.7685 12.0376 62.4409 12.0376C63.035 12.0376 63.5281 12.1833 63.9204 12.4747C64.3239 12.7549 64.5257 13.2369 64.5257 13.9206C64.5257 14.5034 64.3968 15.1367 64.139 15.8204C63.8812 16.4929 63.573 17.143 63.2143 17.7706C62.8332 18.4319 62.4746 19.0147 62.1383 19.5191C61.8133 20.0123 61.5611 20.4214 61.3818 20.7464C61.2361 20.9257 61.1632 21.1331 61.1632 21.3685C61.1632 21.5926 61.2809 21.7047 61.5163 21.7047C61.5947 21.7047 61.6844 21.6991 61.7853 21.6879C61.8861 21.6655 62.0094 21.6038 62.1551 21.503C62.9958 21.1891 63.8308 20.7912 64.6602 20.3093C65.5008 19.8273 66.2686 19.3286 66.9635 18.813C67.6696 18.2974 68.2356 17.8435 68.6615 17.4512C68.8408 17.3055 69.0146 17.2326 69.1827 17.2326C69.5862 17.2326 69.7879 17.4904 69.7879 18.006C69.7879 18.3535 69.6758 18.7401 69.4517 19.166C69.2387 19.592 68.8969 19.9898 68.4261 20.3597C67.6079 20.9425 66.8402 21.4861 66.1228 21.9905C65.4167 22.4837 64.6658 22.932 63.87 23.3355C63.0742 23.739 62.1271 24.0977 61.0287 24.4115C60.4571 24.5908 59.9695 24.6805 59.566 24.6805C58.4228 24.6805 57.8512 24.0528 57.8512 22.7975C57.8512 22.719 57.8512 22.6462 57.8512 22.5789C57.8624 22.5005 57.8736 22.4164 57.8848 22.3268C57.9184 21.8224 58.0978 21.2396 58.4228 20.5783C58.7478 19.9058 59.1009 19.2445 59.482 18.5944C59.8631 17.9668 60.2049 17.3783 60.5075 16.8291C60.8102 16.2799 60.9615 15.8708 60.9615 15.6018C60.9615 15.1983 60.7709 14.9966 60.3898 14.9966C59.6837 14.9966 59.0056 15.2039 58.3556 15.6186C57.7167 16.0333 57.1114 16.5601 56.5398 17.199C55.9794 17.8267 55.4638 18.4879 54.9931 19.1829C54.5223 19.8666 54.1076 20.4886 53.749 21.049C53.4912 21.4749 53.239 21.9737 52.9924 22.5453C52.7571 23.1169 52.4769 23.6157 52.1518 24.0416C51.838 24.4675 51.4289 24.6805 50.9245 24.6805Z" fill="white"/>
<path d="M69.1323 24.6805C68.3141 24.6805 67.636 24.4507 67.098 23.9912C66.56 23.5204 66.291 22.7415 66.291 21.6543C66.291 20.2757 66.5992 18.9867 67.2157 17.7874C67.8321 16.5882 68.6111 15.5626 69.5526 14.7108C70.4828 13.859 71.4636 13.2033 72.4947 12.7437C73.5371 12.273 74.4674 12.0376 75.2856 12.0376C75.9468 12.0376 76.496 12.1441 76.9332 12.3571C77.1797 12.4916 77.3871 12.6429 77.5552 12.811L77.6897 12.5252L77.9923 11.8191L78.1773 11.3988C78.1997 11.3091 78.3454 10.9504 78.6144 10.3228C78.8834 9.6951 79.2421 8.84888 79.6904 7.7841C80.1051 6.79778 80.4469 5.96277 80.7159 5.27907C80.9849 4.58416 81.125 4.21429 81.1363 4.16946C81.2932 3.60905 81.5566 3.11028 81.9264 2.67316C82.2963 2.23604 82.7951 2.01748 83.4227 2.01748C83.8486 2.01748 84.2017 2.11275 84.4819 2.30329C84.7621 2.48262 84.9022 2.83568 84.9022 3.36246C84.9022 3.76596 84.8125 4.19748 84.6332 4.65701C84.4539 5.11655 84.297 5.52565 84.1625 5.88431C83.6245 6.9603 83.0416 8.15398 82.414 9.46534C81.7975 10.7767 81.1811 12.1217 80.5646 13.5003C79.9482 14.8789 79.3654 16.2071 78.8162 17.4848C78.2669 18.7513 77.7906 19.8722 77.3871 20.8473C77.3759 20.8585 77.3703 20.8865 77.3703 20.9313C77.3703 20.9762 77.3647 21.0042 77.3535 21.0154C77.3535 21.2171 77.4039 21.4301 77.5048 21.6543C77.6057 21.8672 77.7682 21.9737 77.9923 21.9737C78.0596 21.9737 78.1268 21.9625 78.1941 21.9401C79.0235 21.6935 79.8753 21.262 80.7496 20.6455C81.6238 20.0291 82.4308 19.3678 83.1705 18.6617C83.9215 17.9444 84.5211 17.3167 84.9695 16.7787C85.1264 16.5882 85.3001 16.4929 85.4906 16.4929C85.6588 16.4929 85.8045 16.5713 85.9278 16.7283C86.0623 16.8852 86.1295 17.0981 86.1295 17.3671C86.1295 17.5801 86.0679 17.8323 85.9446 18.1237C85.8325 18.4151 85.642 18.7289 85.373 19.0652C84.4987 20.0291 83.5909 20.9425 82.6494 21.8056C81.7079 22.6574 80.7664 23.3523 79.8249 23.8903C78.8834 24.4171 77.9643 24.6805 77.0677 24.6805C76.2495 24.6805 75.605 24.4507 75.1343 23.9912C74.6635 23.5204 74.4281 22.8199 74.4281 21.8896V21.7047C74.4281 21.6262 74.4337 21.5702 74.4449 21.5366C73.9294 22.4669 73.156 23.2234 72.1248 23.8062C71.1049 24.3891 70.1074 24.6805 69.1323 24.6805ZM70.3764 21.7047C71.0601 21.7047 71.7101 21.4974 72.3266 21.0826C72.943 20.6679 73.5091 20.1356 74.0246 19.4855C74.5402 18.8354 74.9885 18.1573 75.3696 17.4512C75.7619 16.7451 76.0813 16.1006 76.3279 15.5178L76.5633 14.9966L76.8827 14.2737C76.2215 14.2849 75.5153 14.4306 74.7644 14.7108C73.4754 15.1479 72.349 15.9213 71.3851 17.0309C70.4324 18.1293 69.9056 19.4631 69.8047 21.0322C69.8047 21.4805 69.9953 21.7047 70.3764 21.7047Z" fill="white"/>
<path d="M96.2169 25.4202C95.4884 25.4202 95.1241 25.1288 95.1241 24.546C95.1241 24.2322 95.197 23.9744 95.3427 23.7726C95.4996 23.5709 95.6845 23.4252 95.8975 23.3355C95.8302 22.876 95.7405 22.2931 95.6285 21.587C95.5164 20.8809 95.3707 19.9002 95.1914 18.6449C95.1129 18.0284 95.0232 17.3391 94.9223 16.5769C94.8215 15.8148 94.7318 15.0638 94.6534 14.3241C94.5749 13.5844 94.5189 12.9511 94.4852 12.4243C94.4292 11.6173 94.3844 10.8552 94.3507 10.1378C94.3171 9.4205 94.3003 8.74241 94.3003 8.10354C94.3003 6.91547 94.3619 5.90673 94.4852 5.07732C94.5749 4.53933 94.7822 4.03496 95.1073 3.56421C95.4323 3.08226 95.8134 2.68997 96.2505 2.38735C96.6876 2.08473 97.1248 1.93342 97.5619 1.93342C98.2344 1.93342 98.5706 2.52185 98.5706 3.69871C98.5706 4.05737 98.5426 4.46647 98.4866 4.92601C98.4305 5.37434 98.3689 5.80025 98.3016 6.20375L98.1335 7.24611L98.0494 7.63279C98.0158 7.83454 97.9934 8.07552 97.9822 8.35572C97.971 8.62472 97.9654 8.93295 97.9654 9.2804C97.9654 10.2443 98.0102 11.3763 98.0999 12.6765C98.2008 13.9654 98.324 15.2544 98.4697 16.5433C98.6267 17.8211 98.7836 18.9251 98.9405 19.8554C99.7139 18.8466 100.498 17.7146 101.294 16.4593C102.09 15.1927 102.824 13.8758 103.497 12.5084C103.788 11.948 104.074 11.3763 104.354 10.7935C104.634 10.2107 104.914 9.62225 105.195 9.02822C105.475 8.43418 105.755 7.84575 106.035 7.26292C106.315 6.6801 106.596 6.10848 106.876 5.54807C107.896 3.65388 108.837 2.70678 109.7 2.70678C110.059 2.70678 110.356 2.76282 110.591 2.87491C110.827 2.98699 110.944 3.20555 110.944 3.53059C110.944 3.65388 110.939 3.73234 110.928 3.76596C110.905 3.99012 110.793 4.34879 110.591 4.84195C110.401 5.33511 110.154 5.91794 109.852 6.59043C109.695 6.93788 109.527 7.29655 109.347 7.66642C109.168 8.03629 108.972 8.42858 108.759 8.84328C108.198 9.95289 107.532 11.2138 106.758 12.6261C105.996 14.0271 105.228 15.3609 104.455 16.6274C102.74 19.4519 101.205 21.6767 99.8484 23.3019C99.938 23.4812 99.9829 23.6493 99.9829 23.8062C99.9829 24.1537 99.7923 24.4451 99.4112 24.6805C99.0302 24.9271 98.5482 25.112 97.9654 25.2353C97.3938 25.3586 96.8109 25.4202 96.2169 25.4202Z" fill="white"/>
<path d="M113.752 10.9112C113.057 10.9112 112.57 10.8047 112.289 10.5918C112.009 10.3676 111.852 10.0762 111.819 9.71752C111.819 9.19073 112.009 8.67516 112.39 8.17079C112.783 7.65521 113.36 7.39742 114.122 7.39742C114.772 7.39742 115.226 7.52632 115.484 7.7841C115.742 8.03069 115.871 8.34451 115.871 8.72559C115.871 9.15151 115.702 9.62225 115.366 10.1378C115.041 10.6534 114.503 10.9112 113.752 10.9112ZM109.633 24.6805C108.725 24.6805 108.008 24.4507 107.481 23.9912C106.966 23.5204 106.708 22.7919 106.708 21.8056C106.708 21.1219 106.831 20.4438 107.078 19.7713C107.335 19.0876 107.616 18.4487 107.918 17.8547C108.232 17.2494 108.479 16.7227 108.658 16.2743C108.714 16.1286 108.809 15.9045 108.944 15.6018C109.09 15.2992 109.241 14.991 109.398 14.6772L109.969 13.5003C110.16 13.1865 110.378 12.9623 110.625 12.8278C110.872 12.6933 111.124 12.6261 111.382 12.6261C111.808 12.6261 112.172 12.7662 112.474 13.0464C112.788 13.3154 112.945 13.6628 112.945 14.0887C112.934 14.1896 112.917 14.2905 112.895 14.3913C112.884 14.4922 112.85 14.5931 112.794 14.694C112.547 15.1423 112.334 15.5626 112.155 15.9549C111.976 16.336 111.791 16.7227 111.6 17.1149C111.443 17.44 111.247 17.8379 111.012 18.3086C110.776 18.7794 110.569 19.2557 110.39 19.7377C110.21 20.2084 110.121 20.6287 110.121 20.9986C110.121 21.3012 110.194 21.503 110.339 21.6038C110.496 21.6935 110.715 21.7383 110.995 21.7383C111.443 21.7383 111.936 21.5982 112.474 21.318C113.024 21.0378 113.545 20.6904 114.038 20.2757C114.554 19.861 115.03 19.4406 115.467 19.0147C115.904 18.5776 116.229 18.2246 116.442 17.9556C116.655 17.7426 116.879 17.6361 117.115 17.6361C117.316 17.6361 117.479 17.7258 117.602 17.9051C117.737 18.0845 117.804 18.3142 117.804 18.5944C117.804 18.8522 117.737 19.1268 117.602 19.4182C117.479 19.7096 117.272 19.9842 116.98 20.242C116.24 20.993 115.467 21.7103 114.66 22.394C113.853 23.0665 113.024 23.6157 112.172 24.0416C111.331 24.4675 110.485 24.6805 109.633 24.6805Z" fill="white"/>
<path d="M117.333 24.6805C116.414 24.6805 115.781 24.4507 115.433 23.9912C115.097 23.5316 114.929 22.9712 114.929 22.3099C114.929 21.7607 115.007 21.2003 115.164 20.6287C115.332 20.0459 115.529 19.5135 115.753 19.0315C116.145 18.1573 116.543 17.2887 116.946 16.4256C117.35 15.5626 117.72 14.7724 118.056 14.0551L123.15 3.21115C123.408 2.65074 123.795 2.28648 124.31 2.11835C124.826 1.95023 125.297 1.96704 125.723 2.16879C126.16 2.35933 126.378 2.71239 126.378 3.22797C126.378 3.42971 126.328 3.64267 126.227 3.86683C126.137 4.091 126.02 4.33197 125.874 4.58976C125.47 5.35192 124.955 6.35506 124.327 7.59917C123.711 8.84328 123.027 10.2443 122.276 11.8022C121.458 13.5171 120.768 14.9574 120.208 16.123C119.659 17.2775 119.143 18.3703 118.661 19.4014C118.538 19.6592 118.415 19.9618 118.291 20.3093C118.179 20.6455 118.123 20.9482 118.123 21.2171C118.123 21.587 118.286 21.772 118.611 21.772C118.97 21.772 119.446 21.6262 120.04 21.3348C120.645 21.0322 121.273 20.6567 121.923 20.2084C122.584 19.7713 123.223 19.3174 123.84 18.8466C124.456 18.3647 125.028 17.8995 125.554 17.4512C125.734 17.3055 125.947 17.2326 126.193 17.2326C126.709 17.2326 126.967 17.5184 126.967 18.0901C126.967 18.3254 126.888 18.5888 126.731 18.8802C126.574 19.1716 126.3 19.4575 125.907 19.7377C125.19 20.399 124.467 21.0266 123.739 21.6206C123.021 22.2035 122.298 22.7247 121.57 23.1842C120.853 23.6325 120.135 23.9912 119.418 24.2602C118.701 24.5404 118.006 24.6805 117.333 24.6805Z" fill="white"/>
<path d="M126.21 24.6805C125.291 24.6805 124.658 24.4507 124.31 23.9912C123.974 23.5316 123.806 22.9712 123.806 22.3099C123.806 21.7607 123.884 21.2003 124.041 20.6287C124.209 20.0459 124.406 19.5135 124.63 19.0315C125.022 18.1573 125.42 17.2887 125.823 16.4256C126.227 15.5626 126.597 14.7724 126.933 14.0551L132.027 3.21115C132.285 2.65074 132.672 2.28648 133.187 2.11835C133.703 1.95023 134.174 1.96704 134.599 2.16879C135.037 2.35933 135.255 2.71239 135.255 3.22797C135.255 3.42971 135.205 3.64267 135.104 3.86683C135.014 4.091 134.896 4.33197 134.751 4.58976C134.347 5.35192 133.832 6.35506 133.204 7.59917C132.588 8.84328 131.904 10.2443 131.153 11.8022C130.335 13.5171 129.645 14.9574 129.085 16.123C128.536 17.2775 128.02 18.3703 127.538 19.4014C127.415 19.6592 127.292 19.9618 127.168 20.3093C127.056 20.6455 127 20.9482 127 21.2171C127 21.587 127.163 21.772 127.488 21.772C127.846 21.772 128.323 21.6262 128.917 21.3348C129.522 21.0322 130.15 20.6567 130.8 20.2084C131.461 19.7713 132.1 19.3174 132.716 18.8466C133.333 18.3647 133.905 17.8995 134.431 17.4512C134.611 17.3055 134.824 17.2326 135.07 17.2326C135.586 17.2326 135.844 17.5184 135.844 18.0901C135.844 18.3254 135.765 18.5888 135.608 18.8802C135.451 19.1716 135.177 19.4575 134.784 19.7377C134.067 20.399 133.344 21.0266 132.616 21.6206C131.898 22.2035 131.175 22.7247 130.447 23.1842C129.729 23.6325 129.012 23.9912 128.295 24.2602C127.577 24.5404 126.883 24.6805 126.21 24.6805Z" fill="white"/>
<path d="M136.213 24.6805C135.832 24.6805 135.378 24.574 134.852 24.3611C134.325 24.1481 133.86 23.795 133.456 23.3019C133.064 22.8087 132.868 22.1474 132.868 21.318C132.868 20.6231 133.025 19.7545 133.339 18.7121C133.652 17.6698 134.145 16.6442 134.818 15.6355C135.49 14.6043 136.348 13.7469 137.39 13.0632C138.444 12.3795 139.66 12.0376 141.039 12.0376C141.532 12.0376 141.963 12.0993 142.333 12.2226C142.703 12.3458 143.017 12.4803 143.275 12.6261C143.42 12.7157 143.555 12.811 143.678 12.9119C143.813 13.0015 143.936 13.1024 144.048 13.2145L144.636 12.9287C144.804 12.8502 144.978 12.783 145.158 12.7269C145.348 12.6597 145.511 12.6261 145.645 12.6261C146.071 12.6261 146.418 12.7437 146.687 12.9791C146.956 13.2145 147.091 13.4723 147.091 13.7525C147.091 13.8421 147.085 13.9038 147.074 13.9374C146.996 14.2512 146.85 14.6828 146.637 15.232C146.435 15.7812 146.217 16.392 145.981 17.0645C145.746 17.7146 145.544 18.3422 145.376 18.9475C145.219 19.5527 145.141 20.0515 145.141 20.4438C145.141 20.78 145.197 21.0602 145.309 21.2844C145.421 21.4974 145.611 21.6038 145.88 21.6038C146.206 21.6038 146.643 21.4189 147.192 21.049C147.741 20.6679 148.307 20.2196 148.89 19.704C149.204 19.4238 149.529 19.1268 149.865 18.813C150.201 18.4879 150.543 18.1461 150.891 17.7874C151.07 17.6417 151.244 17.5689 151.412 17.5689C151.636 17.5689 151.821 17.681 151.967 17.9051C152.123 18.1181 152.202 18.3591 152.202 18.628C152.202 18.9419 152.095 19.2053 151.882 19.4182C151.434 19.8329 150.975 20.2757 150.504 20.7464C150.033 21.2171 149.383 21.7944 148.554 22.4781C147.814 23.0833 147.052 23.6045 146.267 24.0416C145.483 24.4675 144.776 24.6805 144.149 24.6805C143.364 24.6805 142.793 24.3779 142.434 23.7726C142.075 23.1562 141.896 22.5005 141.896 21.8056C141.896 21.3012 141.969 20.8529 142.115 20.4606C141.655 21.077 141.111 21.7159 140.484 22.3772C139.856 23.0273 139.178 23.5765 138.449 24.0248C137.721 24.4619 136.976 24.6805 136.213 24.6805ZM137.558 21.7215C137.917 21.7215 138.365 21.4918 138.903 21.0322C139.453 20.5727 139.979 20.0347 140.484 19.4182C141.044 18.7457 141.487 18.1349 141.812 17.5857C142.137 17.0365 142.299 16.6666 142.299 16.4761C142.299 16.0502 142.053 15.7139 141.56 15.4673C141.067 15.2095 140.624 15.0807 140.232 15.0807C139.537 15.0807 138.875 15.3048 138.248 15.7531C137.631 16.2015 137.127 16.7787 136.735 17.4848C136.342 18.1797 136.146 18.9027 136.146 19.6536C136.146 20.0907 136.225 20.5447 136.382 21.0154C136.55 21.4861 136.942 21.7215 137.558 21.7215Z" fill="white"/>
<path d="M164.744 24.6301C162.659 24.6301 161.163 24.1537 160.255 23.201C159.347 22.2483 158.893 21.0322 158.893 19.5527C158.893 18.331 159.106 17.0533 159.532 15.7195C159.969 14.3745 160.558 13.0408 161.297 11.7182C162.048 10.3844 162.9 9.10667 163.853 7.88498C164.817 6.65207 165.826 5.53686 166.879 4.53933C167.933 3.53059 168.981 2.68997 170.023 2.01748C170.998 1.38982 171.979 0.896657 172.965 0.537994C173.951 0.179331 174.921 0 175.874 0C176.826 0 177.645 0.224164 178.328 0.672493C179.023 1.12082 179.371 1.9054 179.371 3.02622C179.371 3.48575 179.264 4.06298 179.051 4.75789C178.849 5.44159 178.558 6.12529 178.177 6.80899C177.785 7.51511 177.314 8.10354 176.765 8.57428C176.227 9.03382 175.644 9.26359 175.016 9.26359C174.792 9.26359 174.489 9.21315 174.108 9.11228C173.727 9.0114 173.537 8.75922 173.537 8.35572C173.537 8.22122 173.57 8.06431 173.638 7.88498C173.716 7.70565 173.851 7.49829 174.041 7.26292C174.31 6.97151 174.596 6.61285 174.899 6.18693C175.201 5.74981 175.459 5.30149 175.672 4.84195C175.896 4.38241 176.008 3.97892 176.008 3.63146C176.008 2.91414 175.672 2.55547 174.999 2.55547C174.517 2.55547 173.974 2.71239 173.369 3.02622C172.763 3.34005 172.13 3.77156 171.469 4.32077C170.796 4.86997 170.068 5.57609 169.283 6.43912C168.51 7.29094 167.742 8.23804 166.98 9.2804C166.218 10.3116 165.523 11.3763 164.895 12.4747C164.268 13.5731 163.763 14.6547 163.382 15.7195C163.012 16.7731 162.827 17.7426 162.827 18.628C162.827 19.4463 163.046 20.1019 163.483 20.5951C163.92 21.0883 164.643 21.3348 165.652 21.3348C166.324 21.3348 167.053 21.1667 167.837 20.8305C168.633 20.4942 169.44 20.0683 170.258 19.5527C171.088 19.0259 171.889 18.4823 172.663 17.9219C173.447 17.3615 174.164 16.8515 174.814 16.392C175.476 15.9325 176.036 15.6018 176.496 15.4001C176.541 15.3553 176.608 15.3328 176.697 15.3328C176.866 15.3328 176.983 15.4673 177.051 15.7363C177.107 16.0502 177.135 16.364 177.135 16.6778C177.135 16.8684 177.107 17.1037 177.051 17.3839C177.006 17.6529 176.849 17.9668 176.58 18.3254C175.851 19.1997 174.994 20.0179 174.007 20.78C173.021 21.5422 171.984 22.2147 170.897 22.7975C169.81 23.3691 168.734 23.8175 167.669 24.1425C166.616 24.4675 165.641 24.6301 164.744 24.6301Z" fill="white"/>
<path d="M178.311 24.6805C177.93 24.6805 177.476 24.574 176.95 24.3611C176.423 24.1481 175.958 23.795 175.554 23.3019C175.162 22.8087 174.966 22.1474 174.966 21.318C174.966 20.6231 175.123 19.7545 175.437 18.7121C175.75 17.6698 176.244 16.6442 176.916 15.6355C177.589 14.6043 178.446 13.7469 179.488 13.0632C180.542 12.3795 181.758 12.0376 183.137 12.0376C183.63 12.0376 184.061 12.0993 184.431 12.2226C184.801 12.3458 185.115 12.4803 185.373 12.6261C185.518 12.7157 185.653 12.811 185.776 12.9119C185.911 13.0015 186.034 13.1024 186.146 13.2145L186.734 12.9287C186.903 12.8502 187.076 12.783 187.256 12.7269C187.446 12.6597 187.609 12.6261 187.743 12.6261C188.169 12.6261 188.517 12.7437 188.786 12.9791C189.055 13.2145 189.189 13.4723 189.189 13.7525C189.189 13.8421 189.183 13.9038 189.172 13.9374C189.094 14.2512 188.948 14.6828 188.735 15.232C188.533 15.7812 188.315 16.392 188.079 17.0645C187.844 17.7146 187.642 18.3422 187.474 18.9475C187.317 19.5527 187.239 20.0515 187.239 20.4438C187.239 20.78 187.295 21.0602 187.407 21.2844C187.519 21.4974 187.71 21.6038 187.979 21.6038C188.304 21.6038 188.741 21.4189 189.29 21.049C189.839 20.6679 190.405 20.2196 190.988 19.704C191.302 19.4238 191.627 19.1268 191.963 18.813C192.299 18.4879 192.641 18.1461 192.989 17.7874C193.168 17.6417 193.342 17.5689 193.51 17.5689C193.734 17.5689 193.919 17.681 194.065 17.9051C194.222 18.1181 194.3 18.3591 194.3 18.628C194.3 18.9419 194.193 19.2053 193.981 19.4182C193.532 19.8329 193.073 20.2757 192.602 20.7464C192.131 21.2171 191.481 21.7944 190.652 22.4781C189.912 23.0833 189.15 23.6045 188.365 24.0416C187.581 24.4675 186.875 24.6805 186.247 24.6805C185.462 24.6805 184.891 24.3779 184.532 23.7726C184.173 23.1562 183.994 22.5005 183.994 21.8056C183.994 21.3012 184.067 20.8529 184.213 20.4606C183.753 21.077 183.209 21.7159 182.582 22.3772C181.954 23.0273 181.276 23.5765 180.547 24.0248C179.819 24.4619 179.074 24.6805 178.311 24.6805ZM179.656 21.7215C180.015 21.7215 180.463 21.4918 181.001 21.0322C181.551 20.5727 182.077 20.0347 182.582 19.4182C183.142 18.7457 183.585 18.1349 183.91 17.5857C184.235 17.0365 184.398 16.6666 184.398 16.4761C184.398 16.0502 184.151 15.7139 183.658 15.4673C183.165 15.2095 182.722 15.0807 182.33 15.0807C181.635 15.0807 180.973 15.3048 180.346 15.7531C179.729 16.2015 179.225 16.7787 178.833 17.4848C178.44 18.1797 178.244 18.9027 178.244 19.6536C178.244 20.0907 178.323 20.5447 178.48 21.0154C178.648 21.4861 179.04 21.7215 179.656 21.7215Z" fill="white"/>
<path d="M195.124 24.6805C193.947 24.6805 192.877 24.4171 191.913 23.8903C190.949 23.3523 190.332 22.5061 190.063 21.3516C190.041 21.2396 190.03 21.1667 190.03 21.1331C190.03 20.8305 190.136 20.5727 190.349 20.3597C190.562 20.1356 190.797 20.0235 191.055 20.0235C191.178 20.0235 191.313 20.0459 191.459 20.0907C191.616 20.1356 191.733 20.2364 191.812 20.3933C192.103 20.9201 192.602 21.346 193.308 21.6711C194.025 21.9849 194.726 22.1418 195.41 22.1418C196.138 22.1418 196.771 22.0017 197.309 21.7215C197.859 21.4413 198.133 20.9818 198.133 20.3429C198.133 19.5583 197.909 18.8634 197.461 18.2582C197.024 17.6529 196.469 17.1093 195.796 16.6274C195.135 16.1342 194.468 15.6803 193.796 15.2656C193.74 15.232 193.656 15.1367 193.543 14.9798C193.431 14.8117 193.375 14.6435 193.375 14.4754C193.375 14.3409 193.409 14.2344 193.476 14.156C193.835 13.674 194.294 13.2033 194.855 12.7437C195.415 12.2842 196.032 12.0544 196.704 12.0544C197.197 12.0544 197.601 12.1777 197.915 12.4243C198.24 12.6597 198.402 12.8951 198.402 13.1304C198.402 13.4443 198.256 13.7413 197.965 14.0215C197.674 14.2905 197.371 14.5483 197.057 14.7948C198.391 15.4898 199.45 16.3752 200.235 17.4512C201.019 18.516 201.412 19.5583 201.412 20.5783C201.412 21.4413 201.098 22.1811 200.47 22.7975C199.854 23.4028 199.063 23.8679 198.1 24.1929C197.147 24.518 196.155 24.6805 195.124 24.6805Z" fill="white"/>
<path d="M208.506 10.9112C207.811 10.9112 207.324 10.8047 207.044 10.5918C206.764 10.3676 206.607 10.0762 206.573 9.71752C206.573 9.19073 206.764 8.67516 207.145 8.17079C207.537 7.65521 208.114 7.39742 208.876 7.39742C209.526 7.39742 209.98 7.52632 210.238 7.7841C210.496 8.03069 210.625 8.34451 210.625 8.72559C210.625 9.15151 210.457 9.62225 210.12 10.1378C209.795 10.6534 209.257 10.9112 208.506 10.9112ZM204.387 24.6805C203.48 24.6805 202.762 24.4507 202.235 23.9912C201.72 23.5204 201.462 22.7919 201.462 21.8056C201.462 21.1219 201.585 20.4438 201.832 19.7713C202.09 19.0876 202.37 18.4487 202.673 17.8547C202.986 17.2494 203.233 16.7227 203.412 16.2743C203.468 16.1286 203.564 15.9045 203.698 15.6018C203.844 15.2992 203.995 14.991 204.152 14.6772L204.724 13.5003C204.914 13.1865 205.133 12.9623 205.379 12.8278C205.626 12.6933 205.878 12.6261 206.136 12.6261C206.562 12.6261 206.926 12.7662 207.229 13.0464C207.542 13.3154 207.699 13.6628 207.699 14.0887C207.688 14.1896 207.671 14.2905 207.649 14.3913C207.638 14.4922 207.604 14.5931 207.548 14.694C207.302 15.1423 207.089 15.5626 206.909 15.9549C206.73 16.336 206.545 16.7227 206.354 17.1149C206.197 17.44 206.001 17.8379 205.766 18.3086C205.531 18.7794 205.323 19.2557 205.144 19.7377C204.965 20.2084 204.875 20.6287 204.875 20.9986C204.875 21.3012 204.948 21.503 205.093 21.6038C205.25 21.6935 205.469 21.7383 205.749 21.7383C206.197 21.7383 206.691 21.5982 207.229 21.318C207.778 21.0378 208.299 20.6904 208.792 20.2757C209.308 19.861 209.784 19.4406 210.221 19.0147C210.658 18.5776 210.983 18.2246 211.196 17.9556C211.409 17.7426 211.633 17.6361 211.869 17.6361C212.071 17.6361 212.233 17.7258 212.356 17.9051C212.491 18.0845 212.558 18.3142 212.558 18.5944C212.558 18.8522 212.491 19.1268 212.356 19.4182C212.233 19.7096 212.026 19.9842 211.734 20.242C210.995 20.993 210.221 21.7103 209.414 22.394C208.607 23.0665 207.778 23.6157 206.926 24.0416C206.085 24.4675 205.239 24.6805 204.387 24.6805Z" fill="white"/>
<path d="M210.373 24.6805C209.98 24.6805 209.672 24.5572 209.448 24.3106C209.224 24.064 209.112 23.7614 209.112 23.4028C209.112 23.1113 209.28 22.5677 209.616 21.772C209.952 20.965 210.345 20.1019 210.793 19.1829C211.364 17.9836 211.869 16.9468 212.306 16.0726C212.743 15.1871 213.068 14.5146 213.281 14.0551C213.505 13.5731 213.785 13.2145 214.122 12.9791C214.458 12.7437 214.789 12.6261 215.114 12.6261C215.383 12.6261 215.624 12.7269 215.837 12.9287C216.05 13.1192 216.156 13.405 216.156 13.7861C216.156 13.9318 216.139 14.0887 216.106 14.2568C216.072 14.425 216.01 14.6043 215.921 14.7948C216.268 14.3577 216.784 13.9318 217.467 13.5171C218.151 13.0912 218.891 12.7381 219.687 12.4579C220.482 12.1777 221.216 12.0376 221.889 12.0376C222.483 12.0376 222.976 12.1833 223.368 12.4747C223.772 12.7549 223.974 13.2369 223.974 13.9206C223.974 14.5034 223.845 15.1367 223.587 15.8204C223.329 16.4929 223.021 17.143 222.662 17.7706C222.281 18.4319 221.923 19.0147 221.586 19.5191C221.261 20.0123 221.009 20.4214 220.83 20.7464C220.684 20.9257 220.611 21.1331 220.611 21.3685C220.611 21.5926 220.729 21.7047 220.964 21.7047C221.043 21.7047 221.132 21.6991 221.233 21.6879C221.334 21.6655 221.457 21.6038 221.603 21.503C222.444 21.1891 223.279 20.7912 224.108 20.3093C224.949 19.8273 225.717 19.3286 226.412 18.813C227.118 18.2974 227.684 17.8435 228.11 17.4512C228.289 17.3055 228.463 17.2326 228.631 17.2326C229.034 17.2326 229.236 17.4904 229.236 18.006C229.236 18.3535 229.124 18.7401 228.9 19.166C228.687 19.592 228.345 19.9898 227.874 20.3597C227.056 20.9425 226.288 21.4861 225.571 21.9905C224.865 22.4837 224.114 22.932 223.318 23.3355C222.522 23.739 221.575 24.0977 220.477 24.4115C219.905 24.5908 219.418 24.6805 219.014 24.6805C217.871 24.6805 217.299 24.0528 217.299 22.7975C217.299 22.719 217.299 22.6462 217.299 22.5789C217.31 22.5005 217.322 22.4164 217.333 22.3268C217.366 21.8224 217.546 21.2396 217.871 20.5783C218.196 19.9058 218.549 19.2445 218.93 18.5944C219.311 17.9668 219.653 17.3783 219.956 16.8291C220.258 16.2799 220.41 15.8708 220.41 15.6018C220.41 15.1983 220.219 14.9966 219.838 14.9966C219.132 14.9966 218.454 15.2039 217.804 15.6186C217.165 16.0333 216.559 16.5601 215.988 17.199C215.427 17.8267 214.912 18.4879 214.441 19.1829C213.97 19.8666 213.556 20.4886 213.197 21.049C212.939 21.4749 212.687 21.9737 212.44 22.5453C212.205 23.1169 211.925 23.6157 211.6 24.0416C211.286 24.4675 210.877 24.6805 210.373 24.6805Z" fill="white"/>
<path d="M229.051 24.6805C228.603 24.6805 228.093 24.5572 227.521 24.3106C226.961 24.0752 226.473 23.6942 226.058 23.1674C225.644 22.6406 225.436 21.9457 225.436 21.0826C225.436 20.3877 225.599 19.5359 225.924 18.5272C226.26 17.5184 226.77 16.5209 227.454 15.5346C228.149 14.5371 229.04 13.7076 230.127 13.0464C231.214 12.3739 232.475 12.0376 233.91 12.0376C234.481 12.0376 235.087 12.1441 235.726 12.3571C236.376 12.57 236.93 12.9287 237.39 13.433C237.849 13.9262 238.079 14.6099 238.079 15.4841C238.079 16.2015 237.9 17.0365 237.541 17.9892C237.743 18.2358 238.029 18.3591 238.399 18.3591C238.746 18.3591 239.15 18.219 239.609 17.9387C240.069 17.6585 240.523 17.3167 240.971 16.9132C241.43 16.5097 241.845 16.1062 242.215 15.7027C242.596 15.2992 242.893 14.9742 243.106 14.7276C243.185 14.6491 243.28 14.6099 243.392 14.6099C243.639 14.6099 243.818 14.7668 243.93 15.0807C244.042 15.3945 244.02 15.7924 243.863 16.2743C243.706 16.7451 243.342 17.2326 242.77 17.737C242.434 18.0957 242.019 18.5384 241.526 19.0652C241.044 19.5807 240.517 20.0403 239.945 20.4438C239.385 20.8361 238.813 21.0322 238.231 21.0322C237.637 21.0322 237.076 20.8417 236.549 20.4606C235.72 21.7607 234.666 22.7919 233.389 23.5541C232.111 24.305 230.665 24.6805 229.051 24.6805ZM230.514 21.7383C231.22 21.7383 231.881 21.503 232.498 21.0322C233.114 20.5615 233.613 19.9674 233.994 19.2501C234.375 18.5328 234.565 17.7986 234.565 17.0477C234.565 16.7563 234.532 16.4537 234.465 16.1398C234.409 15.8148 234.274 15.5458 234.061 15.3328C233.848 15.1087 233.506 14.9966 233.036 14.9966C232.341 14.9966 231.685 15.2208 231.069 15.6691C230.452 16.1062 229.948 16.6778 229.555 17.3839C229.174 18.0788 228.984 18.8074 228.984 19.5695C228.984 19.8497 229.017 20.1636 229.085 20.511C229.152 20.8473 229.292 21.1387 229.505 21.3853C229.729 21.6206 230.065 21.7383 230.514 21.7383Z" fill="white"/>
</svg>
