<svg width="277" height="20" viewBox="0 0 277 20" fill="none" xmlns="http://www.w3.org/2000/svg">
<path d="M0 9.87547C0 8.489 0.251677 7.19801 0.75503 6.00249C1.25838 4.79867 1.98545 3.75675 2.93623 2.87671C3.89499 1.98838 5.0615 1.29099 6.43573 0.784558C7.81795 0.278124 9.37995 0.0249066 11.1217 0.0249066C12.6477 0.0249066 14.0459 0.1868 15.3163 0.510585C16.5947 0.826069 17.7811 1.31175 18.8757 1.96762L17.126 4.95641C16.7984 4.73225 16.4189 4.533 15.9875 4.35865C15.564 4.18431 15.1086 4.03902 14.6212 3.92279C14.1418 3.79826 13.6425 3.70278 13.1231 3.63636C12.6118 3.56995 12.1044 3.53674 11.6011 3.53674C10.3867 3.53674 9.30404 3.69448 8.35326 4.00996C7.40249 4.31714 6.59952 4.75301 5.94436 5.31756C5.29719 5.87381 4.80183 6.54213 4.45827 7.32254C4.1227 8.09464 3.95492 8.94562 3.95492 9.87547C3.95492 10.8385 4.13069 11.7227 4.48224 12.528C4.83379 13.3333 5.34114 14.0307 6.00428 14.6202C6.67542 15.2013 7.49037 15.6579 8.44914 15.99C9.4159 16.3138 10.5065 16.4757 11.7209 16.4757C12.2722 16.4757 12.8195 16.4342 13.3628 16.3512C13.9061 16.2682 14.4295 16.1561 14.9328 16.0149C15.4442 15.8655 15.9355 15.6912 16.4069 15.4919C16.8783 15.2844 17.3177 15.0602 17.7252 14.8194L19.475 17.8082C18.4523 18.489 17.2698 19.0245 15.9275 19.4147C14.5853 19.7966 13.1591 19.9875 11.649 19.9875C9.7235 19.9875 8.03368 19.7302 6.57954 19.2154C5.12541 18.6924 3.91097 17.9784 2.93623 17.0735C1.96148 16.1602 1.22642 15.0892 0.731061 13.8605C0.243687 12.6235 0 11.2951 0 9.87547Z" fill="white"/>
<path d="M23.6696 0.261519H39.6211V3.72354H27.4687V7.60897H38.2309V10.8593H27.4687V16.2765H39.8728V19.726H23.6696V0.261519Z" fill="white"/>
<path d="M44.0674 0.261519H47.8665L59.5395 6.6127V0.261519H63.3386V19.726H59.5395V10.797L47.8665 4.48319V19.726H44.0674V0.261519Z" fill="white"/>
<path d="M74.2805 3.72354H67.3654V0.261519H84.9948V3.72354H78.0797V19.726H74.2805V3.72354Z" fill="white"/>
<path d="M88.3505 0.261519H92.1496V10.9838C92.1496 11.8638 92.2654 12.6484 92.4971 13.3375C92.7288 14.0183 93.0724 14.5953 93.5278 15.0685C93.9912 15.5417 94.5625 15.9029 95.2416 16.1519C95.9207 16.3927 96.7117 16.5131 97.6145 16.5131C98.5094 16.5131 99.2964 16.3927 99.9755 16.1519C100.663 15.9029 101.234 15.5417 101.689 15.0685C102.153 14.5953 102.5 14.0183 102.732 13.3375C102.964 12.6484 103.08 11.8638 103.08 10.9838V0.261519H106.879V11.457C106.879 12.7356 106.671 13.8979 106.255 14.944C105.84 15.99 105.237 16.8867 104.446 17.6339C103.655 18.3811 102.684 18.9581 101.534 19.3649C100.391 19.7717 99.0847 19.9751 97.6145 19.9751C96.1444 19.9751 94.8341 19.7717 93.6836 19.3649C92.5411 18.9581 91.5743 18.3811 90.7833 17.6339C89.9923 16.8867 89.3891 15.99 88.9737 14.944C88.5582 13.8979 88.3505 12.7356 88.3505 11.457V0.261519Z" fill="white"/>
<path d="M111.517 0.261519H121.044C122.483 0.261519 123.729 0.419261 124.784 0.734745C125.838 1.04193 126.713 1.49024 127.408 2.0797C128.103 2.66916 128.619 3.3873 128.954 4.23412C129.298 5.08095 129.47 6.03985 129.47 7.11083C129.47 7.83313 129.386 8.52221 129.218 9.17808C129.05 9.82565 128.79 10.4234 128.439 10.9714C128.095 11.5193 127.66 12.0091 127.133 12.4408C126.605 12.8643 125.986 13.2171 125.275 13.4994L129.35 19.726H124.7L121.176 14.1968H121.068L115.316 14.1843V19.726H111.517V0.261519ZM121.14 10.7721C121.859 10.7721 122.487 10.6849 123.022 10.5106C123.565 10.3362 124.017 10.0913 124.376 9.77584C124.744 9.46036 125.015 9.07845 125.191 8.63014C125.375 8.17352 125.467 7.66708 125.467 7.11083C125.467 6.02325 125.107 5.18472 124.388 4.59527C123.669 3.99751 122.586 3.69863 121.14 3.69863H115.316V10.7721H121.14Z" fill="white"/>
<path d="M139.716 14.9066L131.531 0.261519H135.833L141.598 11.3325L147.291 0.261519H151.593L143.516 14.8817V19.726H139.716V14.9066Z" fill="white"/>
<path d="M153.331 9.87547C153.331 8.489 153.583 7.19801 154.086 6.00249C154.589 4.79867 155.316 3.75675 156.267 2.87671C157.226 1.98838 158.392 1.29099 159.767 0.784558C161.149 0.278124 162.711 0.0249066 164.453 0.0249066C165.979 0.0249066 167.377 0.1868 168.647 0.510585C169.926 0.826069 171.112 1.31175 172.207 1.96762L170.457 4.95641C170.129 4.73225 169.75 4.533 169.318 4.35865C168.895 4.18431 168.44 4.03902 167.952 3.92279C167.473 3.79826 166.973 3.70278 166.454 3.63636C165.943 3.56995 165.435 3.53674 164.932 3.53674C163.718 3.53674 162.635 3.69448 161.684 4.00996C160.733 4.31714 159.93 4.75301 159.275 5.31756C158.628 5.87381 158.133 6.54213 157.789 7.32254C157.454 8.09464 157.286 8.94562 157.286 9.87547C157.286 10.8385 157.462 11.7227 157.813 12.528C158.165 13.3333 158.672 14.0307 159.335 14.6202C160.006 15.2013 160.821 15.6579 161.78 15.99C162.747 16.3138 163.837 16.4757 165.052 16.4757C165.603 16.4757 166.15 16.4342 166.694 16.3512C167.237 16.2682 167.76 16.1561 168.264 16.0149C168.775 15.8655 169.266 15.6912 169.738 15.4919C170.209 15.2844 170.649 15.0602 171.056 14.8194L172.806 17.8082C171.783 18.489 170.601 19.0245 169.258 19.4147C167.916 19.7966 166.49 19.9875 164.98 19.9875C163.054 19.9875 161.365 19.7302 159.911 19.2154C158.456 18.6924 157.242 17.9784 156.267 17.0735C155.292 16.1602 154.557 15.0892 154.062 13.8605C153.575 12.6235 153.331 11.2951 153.331 9.87547Z" fill="white" fill-opacity="0.54"/>
<path d="M183.388 0.261519H187.415L196.476 19.726H192.485L190.987 16.4508H180.045L178.594 19.726H174.592L183.388 0.261519ZM189.488 13.2005L185.438 4.35865L181.495 13.2005H189.488Z" fill="white" fill-opacity="0.54"/>
<path d="M200.263 13.9352C200.942 14.3337 201.629 14.6949 202.324 15.0187C203.027 15.3342 203.754 15.604 204.505 15.8281C205.256 16.044 206.043 16.21 206.866 16.3263C207.697 16.4425 208.58 16.5006 209.515 16.5006C210.641 16.5006 211.6 16.4259 212.391 16.2765C213.182 16.1187 213.825 15.907 214.321 15.6413C214.824 15.3674 215.187 15.0436 215.411 14.67C215.643 14.2964 215.759 13.8896 215.759 13.4496C215.759 12.7439 215.475 12.1876 214.908 11.7808C214.341 11.3657 213.466 11.1582 212.283 11.1582C211.764 11.1582 211.217 11.1955 210.641 11.2702C210.066 11.3367 209.483 11.4114 208.892 11.4944C208.308 11.5774 207.729 11.6563 207.154 11.731C206.587 11.7974 206.051 11.8306 205.548 11.8306C204.709 11.8306 203.902 11.7186 203.127 11.4944C202.36 11.2702 201.677 10.934 201.078 10.4857C200.486 10.0374 200.015 9.47696 199.663 8.80448C199.312 8.132 199.136 7.34745 199.136 6.45081C199.136 5.91947 199.204 5.39228 199.34 4.86924C199.484 4.3462 199.707 3.84807 200.011 3.37484C200.323 2.89332 200.722 2.44915 201.209 2.04234C201.697 1.62723 202.284 1.27024 202.971 0.971357C203.666 0.672478 204.465 0.440017 205.368 0.273973C206.279 0.0996264 207.314 0.0124533 208.472 0.0124533C209.311 0.0124533 210.154 0.0622665 211.001 0.161893C211.848 0.253217 212.671 0.386052 213.47 0.560399C214.277 0.734745 215.052 0.946451 215.795 1.19552C216.538 1.43628 217.229 1.7061 217.868 2.00498L216.202 5.19303C215.675 4.95226 215.108 4.73225 214.5 4.533C213.893 4.32545 213.258 4.14695 212.595 3.99751C211.932 3.84807 211.245 3.73184 210.533 3.64882C209.83 3.55749 209.111 3.51183 208.376 3.51183C207.33 3.51183 206.467 3.5907 205.788 3.74844C205.116 3.90618 204.581 4.10959 204.182 4.35865C203.782 4.59942 203.502 4.87339 203.343 5.18057C203.191 5.47945 203.115 5.77833 203.115 6.07721C203.115 6.65836 203.367 7.13574 203.87 7.50934C204.373 7.87464 205.14 8.05729 206.171 8.05729C206.587 8.05729 207.062 8.02823 207.597 7.97011C208.141 7.90369 208.708 7.83313 209.299 7.75841C209.898 7.68369 210.505 7.61727 211.121 7.55915C211.744 7.49274 212.347 7.45953 212.93 7.45953C214.033 7.45953 215.008 7.58821 215.855 7.84558C216.709 8.10295 217.425 8.4724 218 8.95392C218.575 9.42715 219.011 10.0042 219.306 10.6849C219.602 11.3574 219.75 12.1129 219.75 12.9514C219.75 14.0722 219.498 15.0726 218.995 15.9527C218.499 16.8244 217.788 17.5633 216.861 18.1694C215.942 18.7671 214.832 19.2237 213.53 19.5392C212.227 19.8464 210.777 20 209.179 20C208.125 20 207.094 19.9294 206.087 19.7883C205.08 19.6555 204.114 19.4645 203.187 19.2154C202.268 18.9581 201.389 18.655 200.55 18.3064C199.719 17.9494 198.948 17.5592 198.237 17.1357L200.263 13.9352Z" fill="white" fill-opacity="0.54"/>
<path d="M223.453 0.261519H227.276V19.726H223.453V0.261519Z" fill="white" fill-opacity="0.54"/>
<path d="M232.106 0.261519H235.905L247.578 6.6127V0.261519H251.377V19.726H247.578V10.797L235.905 4.48319V19.726H232.106V0.261519Z" fill="white" fill-opacity="0.54"/>
<path d="M255.572 9.93773C255.572 8.46824 255.831 7.12329 256.351 5.90286C256.87 4.68244 257.597 3.63636 258.532 2.76463C259.475 1.8846 260.601 1.20382 261.911 0.722291C263.23 0.240764 264.688 0 266.286 0C267.876 0 269.33 0.240764 270.648 0.722291C271.966 1.20382 273.093 1.8846 274.028 2.76463C274.971 3.63636 275.702 4.68244 276.221 5.90286C276.74 7.12329 277 8.46824 277 9.93773C277 11.4155 276.74 12.7729 276.221 14.01C275.702 15.2387 274.971 16.2972 274.028 17.1856C273.093 18.0739 271.966 18.7671 270.648 19.2653C269.33 19.7551 267.876 20 266.286 20C264.688 20 263.23 19.7551 261.911 19.2653C260.601 18.7671 259.475 18.0739 258.532 17.1856C257.597 16.2972 256.87 15.2387 256.351 14.01C255.831 12.7729 255.572 11.4155 255.572 9.93773ZM259.371 9.93773C259.371 10.9423 259.542 11.8472 259.886 12.6526C260.238 13.4579 260.721 14.1469 261.336 14.7198C261.959 15.2844 262.69 15.7202 263.529 16.0274C264.376 16.3346 265.295 16.4882 266.286 16.4882C267.276 16.4882 268.191 16.3346 269.03 16.0274C269.877 15.7202 270.608 15.2844 271.223 14.7198C271.839 14.1469 272.322 13.4579 272.674 12.6526C273.025 11.8472 273.201 10.9423 273.201 9.93773C273.201 8.93317 273.025 8.03238 272.674 7.23537C272.322 6.43836 271.839 5.76588 271.223 5.21793C270.608 4.66169 269.877 4.23827 269.03 3.9477C268.191 3.65712 267.276 3.51183 266.286 3.51183C265.295 3.51183 264.376 3.65712 263.529 3.9477C262.69 4.23827 261.959 4.66169 261.336 5.21793C260.721 5.76588 260.238 6.43836 259.886 7.23537C259.542 8.03238 259.371 8.93317 259.371 9.93773Z" fill="white" fill-opacity="0.54"/>
</svg>
