<svg width="178" height="49" viewBox="0 0 178 49" fill="none" xmlns="http://www.w3.org/2000/svg">
<mask id="path-1-outside-1_2510_39254" maskUnits="userSpaceOnUse" x="13.4512" y="14.1562" width="164" height="35" fill="black">
<rect fill="white" x="13.4512" y="14.1562" width="164" height="35"/>
<path d="M43.0209 23.8845L39.4316 29.0615H41.882C43.1014 29.0615 44.2059 28.8544 45.1952 28.4402C46.3917 27.9341 47.22 27.1978 47.6802 26.2314C47.8872 25.7943 47.9908 25.4261 47.9908 25.127C47.9908 24.2987 46.8979 23.8845 44.7121 23.8845H43.0209ZM36.2909 33.5482L32.1838 39.4154H33.9785C37.6599 39.4154 40.0528 38.288 41.1572 36.0331C41.4103 35.5269 41.5369 35.1013 41.5369 34.7561C41.5369 33.9508 40.3174 33.5482 37.8785 33.5482H36.2909ZM36.8776 23.2978H32.2183L28.2494 19.1908L41.0192 19.1562V19.1908H50.6828C52.5465 19.1908 53.904 19.5819 54.7553 20.3642C55.2155 20.8244 55.4916 21.4226 55.5836 22.1589C55.6527 22.8722 55.4111 23.7925 54.8589 24.9199C54.0076 26.6686 52.6846 28.1181 50.8899 29.2686C49.1872 30.327 47.3235 30.9712 45.2988 31.2013L45.2643 31.2703C47.289 31.6154 48.3014 32.5243 48.3014 33.9968C48.3014 34.8021 47.9218 35.8375 47.1625 37.103C45.828 39.3349 43.8952 41.0605 41.3643 42.28C39.0634 43.3844 36.521 43.9481 33.7369 43.9711L22.4512 44.1091L36.8776 23.2978Z"/>
<path d="M61.4438 36.5767L64.2135 29.2513H64.1617L56.6552 36.5767H61.4438ZM67.475 44.1091H58.7518L60.2014 40.1229H53.0054L48.8639 44.1091H43.5057L60.3308 28.4748H57.4576L54.4808 25.3945H64.1876L64.1617 25.4204H69.8046L64.7571 41.003H70.4517L67.475 44.1091Z"/>
<path d="M74.6374 27.2323L72.6184 25.1615L81.4968 25.1356C81.5831 25.1356 81.7212 25.127 81.911 25.1097C82.1008 25.1097 82.2389 25.1097 82.3251 25.1097C84.9309 25.1097 86.6824 25.3858 87.5798 25.9381L84.5771 29.6655C83.7143 29.0787 82.5063 28.7854 80.9533 28.7854C78.5891 28.7854 77.1051 29.3894 76.5011 30.5973C76.2595 31.0805 76.2336 31.486 76.4234 31.8139C76.7168 32.3316 77.4502 32.9269 78.6236 33.5999C79.7453 34.2384 80.3838 35.0236 80.5391 35.9555C80.6254 36.4904 80.4787 37.1548 80.0991 37.9486C79.288 39.6397 78.08 41.0289 76.4752 42.116C74.9739 43.1169 73.2569 43.7899 71.3241 44.135C70.1507 44.3421 69.0031 44.437 67.8815 44.4198C66.57 44.4025 65.1981 44.2041 63.7658 43.8244C63.3344 43.7209 62.9547 43.6087 62.6269 43.4879L65.6554 39.657C65.897 39.9676 66.4492 40.2264 67.312 40.4335C68.0885 40.6406 68.8737 40.7441 69.6675 40.7441C72.325 40.7441 74.0075 40.0021 74.715 38.518C74.9739 37.9831 75.017 37.5517 74.8445 37.2238C74.5511 36.6889 73.8177 36.0935 72.6443 35.4378C71.5226 34.8338 70.8668 34.1004 70.677 33.2376C70.5562 32.7371 70.677 32.1159 71.0394 31.3739C71.8677 29.6655 73.067 28.2849 74.6374 27.2323Z"/>
<path d="M91.8012 27.2323L89.7822 25.1615L98.6606 25.1356C98.7469 25.1356 98.885 25.127 99.0748 25.1097C99.2646 25.1097 99.4027 25.1097 99.489 25.1097C102.095 25.1097 103.846 25.3858 104.744 25.9381L101.741 29.6655C100.878 29.0787 99.6702 28.7854 98.1171 28.7854C95.7529 28.7854 94.2689 29.3894 93.6649 30.5973C93.4233 31.0805 93.3974 31.486 93.5872 31.8139C93.8806 32.3316 94.614 32.9269 95.7874 33.5999C96.9091 34.2384 97.5476 35.0236 97.7029 35.9555C97.7892 36.4904 97.6425 37.1548 97.2629 37.9486C96.4518 39.6397 95.2439 41.0289 93.639 42.116C92.1377 43.1169 90.4207 43.7899 88.4879 44.135C87.3145 44.3421 86.1669 44.437 85.0453 44.4198C83.7338 44.4025 82.3619 44.2041 80.9296 43.8244C80.4982 43.7209 80.1185 43.6087 79.7907 43.4879L82.8192 39.657C83.0608 39.9676 83.613 40.2264 84.4758 40.4335C85.2523 40.6406 86.0375 40.7441 86.8313 40.7441C89.4888 40.7441 91.1713 40.0021 91.8788 38.518C92.1377 37.9831 92.1808 37.5517 92.0083 37.2238C91.7149 36.6889 90.9815 36.0935 89.8081 35.4378C88.6864 34.8338 88.0306 34.1004 87.8408 33.2376C87.72 32.7371 87.8408 32.1159 88.2032 31.3739C89.0315 29.6655 90.2308 28.2849 91.8012 27.2323Z"/>
<path d="M116.428 23.8845L112.839 29.0615H115.29C116.509 29.0615 117.613 28.8544 118.603 28.4402C119.799 27.9341 120.628 27.1978 121.088 26.2314C121.295 25.7943 121.398 25.4261 121.398 25.127C121.398 24.2987 120.305 23.8845 118.12 23.8845H116.428ZM109.698 33.5482L105.591 39.4154H107.386C111.067 39.4154 113.46 38.288 114.565 36.0331C114.818 35.5269 114.944 35.1013 114.944 34.7561C114.944 33.9508 113.725 33.5482 111.286 33.5482H109.698ZM110.285 23.2978H105.626L101.657 19.1908L114.427 19.1562V19.1908H124.09C125.954 19.1908 127.312 19.5819 128.163 20.3642C128.623 20.8244 128.899 21.4226 128.991 22.1589C129.06 22.8722 128.819 23.7925 128.266 24.9199C127.415 26.6686 126.092 28.1181 124.297 29.2686C122.595 30.327 120.731 30.9712 118.706 31.2013L118.672 31.2703C120.697 31.6154 121.709 32.5243 121.709 33.9968C121.709 34.8021 121.329 35.8375 120.57 37.103C119.235 39.3349 117.303 41.0605 114.772 42.28C112.471 43.3844 109.928 43.9481 107.144 43.9711L95.8587 44.1091L110.285 23.2978Z"/>
<path d="M133.479 28.5006H130.166L127.189 25.4204L136.793 25.3945L136.767 25.4204H148.648L146.215 28.9407H138.087L135.343 32.8234H143.057L140.546 36.3437H132.858L129.907 40.5888H138.346L135.913 44.1091H122.556L133.479 28.5006Z"/>
<path d="M152.589 28.5006H150.182L147.205 25.4204L156.809 25.3945V25.4204H169L166.412 29.096H161.779L151.321 44.1091H146.299L156.783 29.096H152.175L152.589 28.5006Z"/>
</mask>
<path d="M43.0209 23.8845L39.4316 29.0615H41.882C43.1014 29.0615 44.2059 28.8544 45.1952 28.4402C46.3917 27.9341 47.22 27.1978 47.6802 26.2314C47.8872 25.7943 47.9908 25.4261 47.9908 25.127C47.9908 24.2987 46.8979 23.8845 44.7121 23.8845H43.0209ZM36.2909 33.5482L32.1838 39.4154H33.9785C37.6599 39.4154 40.0528 38.288 41.1572 36.0331C41.4103 35.5269 41.5369 35.1013 41.5369 34.7561C41.5369 33.9508 40.3174 33.5482 37.8785 33.5482H36.2909ZM36.8776 23.2978H32.2183L28.2494 19.1908L41.0192 19.1562V19.1908H50.6828C52.5465 19.1908 53.904 19.5819 54.7553 20.3642C55.2155 20.8244 55.4916 21.4226 55.5836 22.1589C55.6527 22.8722 55.4111 23.7925 54.8589 24.9199C54.0076 26.6686 52.6846 28.1181 50.8899 29.2686C49.1872 30.327 47.3235 30.9712 45.2988 31.2013L45.2643 31.2703C47.289 31.6154 48.3014 32.5243 48.3014 33.9968C48.3014 34.8021 47.9218 35.8375 47.1625 37.103C45.828 39.3349 43.8952 41.0605 41.3643 42.28C39.0634 43.3844 36.521 43.9481 33.7369 43.9711L22.4512 44.1091L36.8776 23.2978Z" fill="white"/>
<path d="M61.4438 36.5767L64.2135 29.2513H64.1617L56.6552 36.5767H61.4438ZM67.475 44.1091H58.7518L60.2014 40.1229H53.0054L48.8639 44.1091H43.5057L60.3308 28.4748H57.4576L54.4808 25.3945H64.1876L64.1617 25.4204H69.8046L64.7571 41.003H70.4517L67.475 44.1091Z" fill="white"/>
<path d="M74.6374 27.2323L72.6184 25.1615L81.4968 25.1356C81.5831 25.1356 81.7212 25.127 81.911 25.1097C82.1008 25.1097 82.2389 25.1097 82.3251 25.1097C84.9309 25.1097 86.6824 25.3858 87.5798 25.9381L84.5771 29.6655C83.7143 29.0787 82.5063 28.7854 80.9533 28.7854C78.5891 28.7854 77.1051 29.3894 76.5011 30.5973C76.2595 31.0805 76.2336 31.486 76.4234 31.8139C76.7168 32.3316 77.4502 32.9269 78.6236 33.5999C79.7453 34.2384 80.3838 35.0236 80.5391 35.9555C80.6254 36.4904 80.4787 37.1548 80.0991 37.9486C79.288 39.6397 78.08 41.0289 76.4752 42.116C74.9739 43.1169 73.2569 43.7899 71.3241 44.135C70.1507 44.3421 69.0031 44.437 67.8815 44.4198C66.57 44.4025 65.1981 44.2041 63.7658 43.8244C63.3344 43.7209 62.9547 43.6087 62.6269 43.4879L65.6554 39.657C65.897 39.9676 66.4492 40.2264 67.312 40.4335C68.0885 40.6406 68.8737 40.7441 69.6675 40.7441C72.325 40.7441 74.0075 40.0021 74.715 38.518C74.9739 37.9831 75.017 37.5517 74.8445 37.2238C74.5511 36.6889 73.8177 36.0935 72.6443 35.4378C71.5226 34.8338 70.8668 34.1004 70.677 33.2376C70.5562 32.7371 70.677 32.1159 71.0394 31.3739C71.8677 29.6655 73.067 28.2849 74.6374 27.2323Z" fill="white"/>
<path d="M91.8012 27.2323L89.7822 25.1615L98.6606 25.1356C98.7469 25.1356 98.885 25.127 99.0748 25.1097C99.2646 25.1097 99.4027 25.1097 99.489 25.1097C102.095 25.1097 103.846 25.3858 104.744 25.9381L101.741 29.6655C100.878 29.0787 99.6702 28.7854 98.1171 28.7854C95.7529 28.7854 94.2689 29.3894 93.6649 30.5973C93.4233 31.0805 93.3974 31.486 93.5872 31.8139C93.8806 32.3316 94.614 32.9269 95.7874 33.5999C96.9091 34.2384 97.5476 35.0236 97.7029 35.9555C97.7892 36.4904 97.6425 37.1548 97.2629 37.9486C96.4518 39.6397 95.2439 41.0289 93.639 42.116C92.1377 43.1169 90.4207 43.7899 88.4879 44.135C87.3145 44.3421 86.1669 44.437 85.0453 44.4198C83.7338 44.4025 82.3619 44.2041 80.9296 43.8244C80.4982 43.7209 80.1185 43.6087 79.7907 43.4879L82.8192 39.657C83.0608 39.9676 83.613 40.2264 84.4758 40.4335C85.2523 40.6406 86.0375 40.7441 86.8313 40.7441C89.4888 40.7441 91.1713 40.0021 91.8788 38.518C92.1377 37.9831 92.1808 37.5517 92.0083 37.2238C91.7149 36.6889 90.9815 36.0935 89.8081 35.4378C88.6864 34.8338 88.0306 34.1004 87.8408 33.2376C87.72 32.7371 87.8408 32.1159 88.2032 31.3739C89.0315 29.6655 90.2308 28.2849 91.8012 27.2323Z" fill="white"/>
<path d="M116.428 23.8845L112.839 29.0615H115.29C116.509 29.0615 117.613 28.8544 118.603 28.4402C119.799 27.9341 120.628 27.1978 121.088 26.2314C121.295 25.7943 121.398 25.4261 121.398 25.127C121.398 24.2987 120.305 23.8845 118.12 23.8845H116.428ZM109.698 33.5482L105.591 39.4154H107.386C111.067 39.4154 113.46 38.288 114.565 36.0331C114.818 35.5269 114.944 35.1013 114.944 34.7561C114.944 33.9508 113.725 33.5482 111.286 33.5482H109.698ZM110.285 23.2978H105.626L101.657 19.1908L114.427 19.1562V19.1908H124.09C125.954 19.1908 127.312 19.5819 128.163 20.3642C128.623 20.8244 128.899 21.4226 128.991 22.1589C129.06 22.8722 128.819 23.7925 128.266 24.9199C127.415 26.6686 126.092 28.1181 124.297 29.2686C122.595 30.327 120.731 30.9712 118.706 31.2013L118.672 31.2703C120.697 31.6154 121.709 32.5243 121.709 33.9968C121.709 34.8021 121.329 35.8375 120.57 37.103C119.235 39.3349 117.303 41.0605 114.772 42.28C112.471 43.3844 109.928 43.9481 107.144 43.9711L95.8587 44.1091L110.285 23.2978Z" fill="#66DBFF"/>
<path d="M133.479 28.5006H130.166L127.189 25.4204L136.793 25.3945L136.767 25.4204H148.648L146.215 28.9407H138.087L135.343 32.8234H143.057L140.546 36.3437H132.858L129.907 40.5888H138.346L135.913 44.1091H122.556L133.479 28.5006Z" fill="#66DBFF"/>
<path d="M152.589 28.5006H150.182L147.205 25.4204L156.809 25.3945V25.4204H169L166.412 29.096H161.779L151.321 44.1091H146.299L156.783 29.096H152.175L152.589 28.5006Z" fill="#66DBFF"/>
<path d="M43.0209 23.8845L39.4316 29.0615H41.882C43.1014 29.0615 44.2059 28.8544 45.1952 28.4402C46.3917 27.9341 47.22 27.1978 47.6802 26.2314C47.8872 25.7943 47.9908 25.4261 47.9908 25.127C47.9908 24.2987 46.8979 23.8845 44.7121 23.8845H43.0209ZM36.2909 33.5482L32.1838 39.4154H33.9785C37.6599 39.4154 40.0528 38.288 41.1572 36.0331C41.4103 35.5269 41.5369 35.1013 41.5369 34.7561C41.5369 33.9508 40.3174 33.5482 37.8785 33.5482H36.2909ZM36.8776 23.2978H32.2183L28.2494 19.1908L41.0192 19.1562V19.1908H50.6828C52.5465 19.1908 53.904 19.5819 54.7553 20.3642C55.2155 20.8244 55.4916 21.4226 55.5836 22.1589C55.6527 22.8722 55.4111 23.7925 54.8589 24.9199C54.0076 26.6686 52.6846 28.1181 50.8899 29.2686C49.1872 30.327 47.3235 30.9712 45.2988 31.2013L45.2643 31.2703C47.289 31.6154 48.3014 32.5243 48.3014 33.9968C48.3014 34.8021 47.9218 35.8375 47.1625 37.103C45.828 39.3349 43.8952 41.0605 41.3643 42.28C39.0634 43.3844 36.521 43.9481 33.7369 43.9711L22.4512 44.1091L36.8776 23.2978Z" stroke="#000239" stroke-width="8.62825" mask="url(#path-1-outside-1_2510_39254)"/>
<path d="M61.4438 36.5767L64.2135 29.2513H64.1617L56.6552 36.5767H61.4438ZM67.475 44.1091H58.7518L60.2014 40.1229H53.0054L48.8639 44.1091H43.5057L60.3308 28.4748H57.4576L54.4808 25.3945H64.1876L64.1617 25.4204H69.8046L64.7571 41.003H70.4517L67.475 44.1091Z" stroke="#000239" stroke-width="8.62825" mask="url(#path-1-outside-1_2510_39254)"/>
<path d="M74.6374 27.2323L72.6184 25.1615L81.4968 25.1356C81.5831 25.1356 81.7212 25.127 81.911 25.1097C82.1008 25.1097 82.2389 25.1097 82.3251 25.1097C84.9309 25.1097 86.6824 25.3858 87.5798 25.9381L84.5771 29.6655C83.7143 29.0787 82.5063 28.7854 80.9533 28.7854C78.5891 28.7854 77.1051 29.3894 76.5011 30.5973C76.2595 31.0805 76.2336 31.486 76.4234 31.8139C76.7168 32.3316 77.4502 32.9269 78.6236 33.5999C79.7453 34.2384 80.3838 35.0236 80.5391 35.9555C80.6254 36.4904 80.4787 37.1548 80.0991 37.9486C79.288 39.6397 78.08 41.0289 76.4752 42.116C74.9739 43.1169 73.2569 43.7899 71.3241 44.135C70.1507 44.3421 69.0031 44.437 67.8815 44.4198C66.57 44.4025 65.1981 44.2041 63.7658 43.8244C63.3344 43.7209 62.9547 43.6087 62.6269 43.4879L65.6554 39.657C65.897 39.9676 66.4492 40.2264 67.312 40.4335C68.0885 40.6406 68.8737 40.7441 69.6675 40.7441C72.325 40.7441 74.0075 40.0021 74.715 38.518C74.9739 37.9831 75.017 37.5517 74.8445 37.2238C74.5511 36.6889 73.8177 36.0935 72.6443 35.4378C71.5226 34.8338 70.8668 34.1004 70.677 33.2376C70.5562 32.7371 70.677 32.1159 71.0394 31.3739C71.8677 29.6655 73.067 28.2849 74.6374 27.2323Z" stroke="#000239" stroke-width="8.62825" mask="url(#path-1-outside-1_2510_39254)"/>
<path d="M91.8012 27.2323L89.7822 25.1615L98.6606 25.1356C98.7469 25.1356 98.885 25.127 99.0748 25.1097C99.2646 25.1097 99.4027 25.1097 99.489 25.1097C102.095 25.1097 103.846 25.3858 104.744 25.9381L101.741 29.6655C100.878 29.0787 99.6702 28.7854 98.1171 28.7854C95.7529 28.7854 94.2689 29.3894 93.6649 30.5973C93.4233 31.0805 93.3974 31.486 93.5872 31.8139C93.8806 32.3316 94.614 32.9269 95.7874 33.5999C96.9091 34.2384 97.5476 35.0236 97.7029 35.9555C97.7892 36.4904 97.6425 37.1548 97.2629 37.9486C96.4518 39.6397 95.2439 41.0289 93.639 42.116C92.1377 43.1169 90.4207 43.7899 88.4879 44.135C87.3145 44.3421 86.1669 44.437 85.0453 44.4198C83.7338 44.4025 82.3619 44.2041 80.9296 43.8244C80.4982 43.7209 80.1185 43.6087 79.7907 43.4879L82.8192 39.657C83.0608 39.9676 83.613 40.2264 84.4758 40.4335C85.2523 40.6406 86.0375 40.7441 86.8313 40.7441C89.4888 40.7441 91.1713 40.0021 91.8788 38.518C92.1377 37.9831 92.1808 37.5517 92.0083 37.2238C91.7149 36.6889 90.9815 36.0935 89.8081 35.4378C88.6864 34.8338 88.0306 34.1004 87.8408 33.2376C87.72 32.7371 87.8408 32.1159 88.2032 31.3739C89.0315 29.6655 90.2308 28.2849 91.8012 27.2323Z" stroke="#000239" stroke-width="8.62825" mask="url(#path-1-outside-1_2510_39254)"/>
<path d="M116.428 23.8845L112.839 29.0615H115.29C116.509 29.0615 117.613 28.8544 118.603 28.4402C119.799 27.9341 120.628 27.1978 121.088 26.2314C121.295 25.7943 121.398 25.4261 121.398 25.127C121.398 24.2987 120.305 23.8845 118.12 23.8845H116.428ZM109.698 33.5482L105.591 39.4154H107.386C111.067 39.4154 113.46 38.288 114.565 36.0331C114.818 35.5269 114.944 35.1013 114.944 34.7561C114.944 33.9508 113.725 33.5482 111.286 33.5482H109.698ZM110.285 23.2978H105.626L101.657 19.1908L114.427 19.1562V19.1908H124.09C125.954 19.1908 127.312 19.5819 128.163 20.3642C128.623 20.8244 128.899 21.4226 128.991 22.1589C129.06 22.8722 128.819 23.7925 128.266 24.9199C127.415 26.6686 126.092 28.1181 124.297 29.2686C122.595 30.327 120.731 30.9712 118.706 31.2013L118.672 31.2703C120.697 31.6154 121.709 32.5243 121.709 33.9968C121.709 34.8021 121.329 35.8375 120.57 37.103C119.235 39.3349 117.303 41.0605 114.772 42.28C112.471 43.3844 109.928 43.9481 107.144 43.9711L95.8587 44.1091L110.285 23.2978Z" stroke="#000239" stroke-width="8.62825" mask="url(#path-1-outside-1_2510_39254)"/>
<path d="M133.479 28.5006H130.166L127.189 25.4204L136.793 25.3945L136.767 25.4204H148.648L146.215 28.9407H138.087L135.343 32.8234H143.057L140.546 36.3437H132.858L129.907 40.5888H138.346L135.913 44.1091H122.556L133.479 28.5006Z" stroke="#000239" stroke-width="8.62825" mask="url(#path-1-outside-1_2510_39254)"/>
<path d="M152.589 28.5006H150.182L147.205 25.4204L156.809 25.3945V25.4204H169L166.412 29.096H161.779L151.321 44.1091H146.299L156.783 29.096H152.175L152.589 28.5006Z" stroke="#000239" stroke-width="8.62825" mask="url(#path-1-outside-1_2510_39254)"/>
<path d="M68.1486 1.48278C68.0548 1.44234 67.9707 1.40826 67.8753 1.37202C65.1694 0.347649 59.1724 -0.136037 56.7601 0.19919C53.498 0.637875 47.158 4.29258 44.8695 5.98346C43.083 4.62326 38.7501 5.16754 36.2402 6.89108C38.4637 7.53523 43.7117 9.17258 40.1559 12.6012C44.485 12.4591 44.106 9.07543 45.2127 8.39828C47.6794 6.90197 58.2475 10.0591 60.2241 9.37963C64.3918 8.09546 69.403 3.129 69.2165 2.3511C69.1378 2.03171 68.7427 1.73823 68.1486 1.48278ZM63.3124 1.51723C63.7275 1.67077 64.0515 2.04921 64.1067 2.51695C64.2069 3.20601 63.7289 3.84185 63.044 3.93133C62.3548 4.03132 61.7208 3.54195 61.6312 2.85715C61.5302 2.1702 62.0195 1.53652 62.7002 1.45754C62.9101 1.42272 63.1206 1.44685 63.3124 1.51723Z" fill="#01ACE0"/>
<path d="M36.9157 3.27521C27.5976 5.65412 8.69268 13.6185 2.56247 23.1466L6.70364 25.4933C12.7962 16.6799 28.171 8.65284 36.9157 3.27521ZM31.1994 14.4049C22.4548 18.6504 2.58756 35.077 0 47.9031L7.06202 47.5448C9.69617 34.6113 22.5623 20.8 31.1994 14.4049Z" fill="#000239"/>
</svg>
