<svg width="78" height="38" viewBox="0 0 78 38" fill="none" xmlns="http://www.w3.org/2000/svg">
<path d="M28.406 25.2143V26.1263H16.4144V25.2143H19.1045L16.0496 18.8766H6.83933L4.19479 25.2143H7.79684V26.1263H0V25.2143H3.0549L13.4963 0.136785H14.6362L26.2174 25.2143H28.406ZM7.24969 17.9191H15.5937L11.1253 8.61756L7.24969 17.9191Z" fill="url(#paint0_linear_570_24337)"/>
<path d="M52.7804 10.7606H51.8685C51.8685 8.32879 51.0934 6.07941 49.5431 4.01241C47.9929 1.94541 45.7739 0.91191 42.8862 0.91191C41.2751 0.91191 39.9377 1.85422 38.8738 3.73884C37.8403 5.62345 37.3235 8.84554 37.3235 13.4051C37.3235 17.9646 37.8403 21.1867 38.8738 23.0714C39.9377 24.956 41.5791 25.8983 43.7981 25.8983C46.0475 25.8983 47.9321 25.1991 49.4519 23.8009C51.0022 22.4026 51.9597 20.4268 52.3245 17.8735H53.2364C52.8108 20.8828 51.7469 23.1321 50.0447 24.6216C48.3728 26.0807 46.3666 26.8102 44.0261 26.8102C39.4969 26.8102 36.0164 25.7311 33.5847 23.5729C31.1833 21.3843 29.9826 17.9798 29.9826 13.3595C29.9826 8.70875 31.1529 5.31948 33.4935 3.19169C35.8645 1.0639 38.9954 0 42.8862 0C44.9836 0 47.0202 0.562345 48.996 1.68704C49.6343 2.0822 50.1511 2.27978 50.5462 2.27978C50.9718 2.27978 51.3062 2.0974 51.5493 1.73263C51.7925 1.33747 51.9141 0.957506 51.9141 0.592743H52.7804V10.7606Z" fill="url(#paint1_linear_570_24337)"/>
<path d="M69.8591 25.2143C74.4187 25.2143 76.6985 22.6306 76.6985 17.4631H77.6104V26.1263H56.1805V25.2143H58.4603V1.50465H56.1805V0.592743H77.1544V8.34399H76.2425C76.2425 5.63865 75.6954 3.83003 74.6011 2.91812C73.5372 1.97581 71.8046 1.50465 69.4032 1.50465H65.2996V12.4476H67.1234C69.312 12.4476 70.6951 12.174 71.2726 11.6269C71.8502 11.0797 72.1389 9.98543 72.1389 8.34399H73.0508V17.4631H72.1389C72.1389 15.7609 71.8502 14.6514 71.2726 14.1346C70.6951 13.6179 69.312 13.3595 67.1234 13.3595H65.2996V25.2143H69.8591Z" fill="url(#paint2_linear_570_24337)"/>
<path d="M9.18466 32.8844H8.81727C8.81727 32.109 8.50499 31.3917 7.88043 30.7326C7.25588 30.0735 6.3619 29.7439 5.19851 29.7439C4.54947 29.7439 4.01063 30.0444 3.58202 30.6454C3.16564 31.2463 2.95746 32.2738 2.95746 33.7277C2.95746 35.1816 3.16564 36.2091 3.58202 36.8101C4.01063 37.411 4.67193 37.7115 5.5659 37.7115C6.47212 37.7115 7.23138 37.4886 7.8437 37.0427C8.46825 36.5968 8.85401 35.9668 9.00096 35.1526H9.36835C9.1969 36.1122 8.76828 36.8294 8.0825 37.3044C7.40895 37.7697 6.60071 38.0023 5.65775 38.0023C3.83306 38.0023 2.43087 37.6582 1.45118 36.97C0.483725 36.2721 0 35.1865 0 33.7132C0 32.2302 0.471479 31.1494 1.41444 30.4709C2.36964 29.7924 3.631 29.4531 5.19851 29.4531C6.0435 29.4531 6.864 29.6324 7.66 29.9911C7.91717 30.1171 8.12536 30.1801 8.28456 30.1801C8.45601 30.1801 8.59071 30.1219 8.68868 30.0056C8.78665 29.8796 8.83564 29.7585 8.83564 29.6421H9.18466V32.8844Z" fill="white"/>
<path d="M24.9376 37.4934V37.7842H20.1065V37.4934H21.1903L19.9595 35.4724H16.2489L15.1835 37.4934H16.6347V37.7842H13.4935V37.4934H14.7243L18.9309 29.4967H19.3901L24.0559 37.4934H24.9376ZM16.4143 35.1671H19.7759L17.9757 32.2011L16.4143 35.1671Z" fill="white"/>
<path d="M30.0733 37.7842H29.7059V34.3965H30.0733C30.0733 35.3077 30.4835 36.0831 31.304 36.7228C32.1368 37.3626 33.1471 37.6824 34.335 37.6824C34.8248 37.6824 35.2167 37.571 35.5106 37.348C35.8168 37.1154 35.9698 36.8101 35.9698 36.432C35.9698 36.0055 35.6208 35.6421 34.9228 35.3416C34.5432 35.1865 33.888 34.9442 32.9573 34.6146C32.0266 34.2754 31.3714 33.9894 30.9917 33.7568C30.2325 33.2915 29.8957 32.676 29.9814 31.9103C30.0794 31.1445 30.4468 30.5533 31.0836 30.1365C31.7204 29.71 32.4368 29.4967 33.2328 29.4967C34.0411 29.4967 34.7636 29.584 35.4004 29.7585C36.0494 29.9232 36.4168 30.0056 36.5025 30.0056C36.7475 30.0056 36.8699 29.836 36.8699 29.4967H37.2373V32.1575H36.8699C36.8699 31.4596 36.5454 30.8925 35.8964 30.4563C35.2473 30.0105 34.4146 29.7875 33.3981 29.7875C32.945 29.7875 32.5899 29.8942 32.3327 30.1074C32.0755 30.3109 31.947 30.5387 31.947 30.7907C31.947 31.0428 31.9898 31.2366 32.0755 31.3723C32.1613 31.508 32.3082 31.634 32.5164 31.7503C32.7368 31.857 32.9267 31.9442 33.0859 32.0121C33.2451 32.0799 33.4961 32.172 33.839 32.2883C34.1941 32.4046 34.4391 32.487 34.5738 32.5355C35.2473 32.7778 35.6453 32.9232 35.7678 32.9717C35.8902 33.0104 36.0678 33.0783 36.3005 33.1752C36.5332 33.2721 36.7046 33.3594 36.8148 33.4369C36.9373 33.5145 37.0904 33.6114 37.2741 33.7277C37.4577 33.844 37.5925 33.9652 37.6782 34.0912C37.7639 34.2075 37.8496 34.3432 37.9353 34.4983C38.1068 34.8085 38.168 35.172 38.119 35.5888C38.0211 36.3739 37.6476 36.9748 36.9985 37.3916C36.3617 37.7987 35.4984 38.0023 34.4084 38.0023C33.4287 38.0023 32.4552 37.8036 31.4877 37.4062C31.1571 37.2705 30.9121 37.2026 30.7529 37.2026C30.2998 37.2026 30.0733 37.3965 30.0733 37.7842Z" fill="white"/>
<path d="M47.6641 37.7842H43.0717V37.4934H43.9902V29.9329H43.0717V29.6421H47.6641V29.9329H46.7456V37.4934H47.6641V37.7842Z" fill="white"/>
<path d="M53.7274 37.4934H55.1969V37.7842H52.2578V37.4934H53.36V30.5727C52.9681 30.1462 52.6007 29.9329 52.2578 29.9329V29.6421H55.6929L60.8547 34.4838V29.9329H59.3851V29.6421H62.5079V29.9329H61.222V37.9296H60.8547L53.7274 30.9361V37.4934Z" fill="white"/>
<path d="M74.46 33.6986C74.46 32.4579 74.2457 31.4935 73.8171 30.8053C73.4007 30.1074 72.819 29.7585 72.072 29.7585C71.3372 29.7585 70.7555 30.1074 70.3269 30.8053C69.8983 31.5032 69.684 32.4773 69.684 33.7277C69.684 34.9781 69.886 35.9425 70.2902 36.621C70.7065 37.2996 71.3005 37.6388 72.072 37.6388C73.664 37.6388 74.46 36.3254 74.46 33.6986ZM77.4174 33.7859C77.4174 35.1138 76.9215 36.1364 75.9295 36.8537C74.9376 37.571 73.6456 37.9296 72.0536 37.9296C70.4616 37.9296 69.1758 37.5758 68.1961 36.8682C67.2164 36.1509 66.7265 35.1283 66.7265 33.8004C66.7265 32.4628 67.2164 31.4063 68.1961 30.6308C69.1758 29.8554 70.4739 29.4677 72.0904 29.4677C73.7191 29.4677 75.0111 29.8554 75.9663 30.6308C76.9337 31.3966 77.4174 32.4482 77.4174 33.7859Z" fill="white"/>
<defs>
<linearGradient id="paint0_linear_570_24337" x1="38.8058" y1="26.8102" x2="38.7946" y2="9.33845e-06" gradientUnits="userSpaceOnUse">
<stop stop-color="#9F7936"/>
<stop offset="0.03" stop-color="#C7AE6F"/>
<stop offset="0.395" stop-color="#EEE2A7"/>
<stop offset="0.595" stop-color="#C7A364"/>
<stop offset="0.805" stop-color="#D2B26E"/>
<stop offset="1" stop-color="#EEE2A7"/>
</linearGradient>
<linearGradient id="paint1_linear_570_24337" x1="38.8058" y1="26.8102" x2="38.7946" y2="9.33845e-06" gradientUnits="userSpaceOnUse">
<stop stop-color="#9F7936"/>
<stop offset="0.03" stop-color="#C7AE6F"/>
<stop offset="0.395" stop-color="#EEE2A7"/>
<stop offset="0.595" stop-color="#C7A364"/>
<stop offset="0.805" stop-color="#D2B26E"/>
<stop offset="1" stop-color="#EEE2A7"/>
</linearGradient>
<linearGradient id="paint2_linear_570_24337" x1="38.8058" y1="26.8102" x2="38.7946" y2="9.33845e-06" gradientUnits="userSpaceOnUse">
<stop stop-color="#9F7936"/>
<stop offset="0.03" stop-color="#C7AE6F"/>
<stop offset="0.395" stop-color="#EEE2A7"/>
<stop offset="0.595" stop-color="#C7A364"/>
<stop offset="0.805" stop-color="#D2B26E"/>
<stop offset="1" stop-color="#EEE2A7"/>
</linearGradient>
</defs>
</svg>
