<svg width="192" height="24" viewBox="0 0 192 24" fill="none" xmlns="http://www.w3.org/2000/svg">
<path d="M6.09031 23.195C4.21138 23.195 2.7212 22.6767 1.61976 21.64C0.539921 20.6034 0 19.1888 0 17.3962C0 17.1803 0.0215968 16.8131 0.0647904 16.2948L1.23102 6.83539C1.49018 4.7405 2.32166 3.07755 3.72545 1.84653C5.12925 0.615509 6.86779 0 8.94109 0C10.82 0 12.3102 0.518324 13.4116 1.55497C14.5131 2.57002 15.0638 3.97381 15.0638 5.76635C15.0638 5.96072 15.0422 6.31707 14.999 6.83539L14.9666 6.99737C14.945 7.14855 14.8802 7.27813 14.7722 7.38611C14.6858 7.4725 14.5779 7.5157 14.4483 7.5157L9.45941 7.67767C9.13546 7.67767 8.99508 7.52649 9.03827 7.22414L9.13546 6.41426C9.17865 6.04711 9.12466 5.75555 8.97348 5.53959C8.8223 5.32362 8.60633 5.21563 8.32558 5.21563C8.02322 5.21563 7.76406 5.32362 7.54809 5.53959C7.35372 5.75555 7.23494 6.04711 7.19174 6.41426L5.92833 16.8131C5.88514 17.1587 5.92833 17.4394 6.05791 17.6554C6.20909 17.8714 6.43585 17.9794 6.73821 17.9794C7.04057 17.9794 7.28893 17.8822 7.4833 17.6878C7.69927 17.4718 7.82885 17.1803 7.87204 16.8131L7.96923 15.9385C7.99083 15.7873 8.04482 15.6793 8.13121 15.6145C8.23919 15.5281 8.35797 15.4849 8.48755 15.4849L13.444 15.6469C13.5952 15.6469 13.7032 15.7009 13.768 15.8089C13.8544 15.8953 13.8868 16.014 13.8652 16.1652L13.8328 16.2948C13.5736 18.3897 12.7313 20.0635 11.3059 21.3161C9.90214 22.5687 8.1636 23.195 6.09031 23.195Z" fill="#FEC90F"/>
<path d="M23.8507 22.9358C23.5484 22.9358 23.408 22.7847 23.4296 22.4823L23.3648 20.0203C23.3864 19.9771 23.3756 19.9447 23.3324 19.9231C23.2892 19.8799 23.246 19.8583 23.2028 19.8583H20.3845C20.2765 19.8583 20.2009 19.9123 20.1577 20.0203L19.5422 22.4823C19.4774 22.7847 19.2938 22.9358 18.9915 22.9358H14.0674C13.7434 22.9358 13.6246 22.7631 13.711 22.4175L20.838 0.680299C20.9244 0.39954 21.1187 0.25916 21.4211 0.25916H27.1551C27.4574 0.25916 27.6194 0.39954 27.641 0.680299L29.4227 22.4175V22.4823C29.4227 22.7847 29.2607 22.9358 28.9368 22.9358H23.8507ZM21.4859 15.0314C21.4427 15.1394 21.4751 15.1934 21.5831 15.1934H23.1057C23.1704 15.1934 23.2244 15.1394 23.2676 15.0314L23.138 9.03827C23.138 8.95188 23.1056 8.91949 23.0409 8.94109C22.9977 8.94109 22.9761 8.97348 22.9761 9.03827L21.4859 15.0314Z" fill="#FEC90F"/>
<path d="M36.2687 23.195C34.4114 23.195 32.9428 22.7199 31.863 21.7696C30.7832 20.7977 30.2432 19.5127 30.2432 17.9146C30.2432 17.7634 30.2648 17.4934 30.308 17.1047L30.4376 16.1004C30.4592 15.9493 30.5132 15.8305 30.5996 15.7441C30.7076 15.6577 30.8263 15.6145 30.9559 15.6145H35.88C36.0096 15.6145 36.1068 15.6577 36.1716 15.7441C36.2579 15.8305 36.2903 15.9493 36.2687 16.1004L36.204 16.8131C36.1608 17.1587 36.204 17.4394 36.3335 17.6554C36.4631 17.8714 36.6575 17.9794 36.9167 17.9794C37.1974 17.9794 37.435 17.8606 37.6293 17.623C37.8237 17.3854 37.9209 17.0939 37.9209 16.7483C37.9209 16.4244 37.7589 16.0896 37.435 15.7441C37.1326 15.3985 36.5387 14.8694 35.6532 14.1567C34.7894 13.444 34.0767 12.8177 33.5152 12.2778C32.9536 11.7163 32.4677 11.036 32.0574 10.2369C31.647 9.41621 31.4419 8.48755 31.4419 7.4509C31.4419 7.25653 31.4635 6.92178 31.5066 6.44665C31.7442 4.52453 32.5433 2.96956 33.9039 1.78174C35.2645 0.593912 36.9598 0 38.9899 0C40.8473 0 42.3051 0.496726 43.3633 1.49018C44.4431 2.48363 44.9831 3.82264 44.9831 5.50719C44.9831 5.70156 44.9615 6.01472 44.9183 6.44665L44.8211 7.15935C44.7995 7.31052 44.7347 7.42931 44.6267 7.5157C44.5403 7.60208 44.4323 7.64528 44.3028 7.64528H39.4111C39.2815 7.64528 39.1735 7.60208 39.0871 7.5157C39.0223 7.42931 39.0007 7.31052 39.0223 7.15935L39.1195 6.31707C39.1411 5.99312 39.0763 5.73396 38.9252 5.53959C38.7956 5.32362 38.6012 5.21563 38.342 5.21563C38.0397 5.21563 37.7913 5.34521 37.597 5.60438C37.4026 5.86354 37.3054 6.20909 37.3054 6.64102C37.3054 7.00817 37.4566 7.38611 37.7589 7.77486C38.0613 8.1636 38.6228 8.70352 39.4435 9.39462C40.5449 10.3233 41.3872 11.0792 41.9703 11.6623C42.5534 12.2238 43.007 12.8501 43.3309 13.5412C43.6765 14.2107 43.8492 14.9774 43.8492 15.8413C43.8492 16.014 43.8276 16.3164 43.7844 16.7483C43.5253 18.7136 42.7046 20.2794 41.3224 21.4456C39.9618 22.6119 38.2773 23.195 36.2687 23.195Z" fill="#FEC90F"/>
<path d="M44.731 22.9358C44.6014 22.9358 44.4934 22.8926 44.407 22.8062C44.3422 22.7199 44.3207 22.6011 44.3422 22.4499L46.9987 0.745089C47.0203 0.593912 47.0742 0.475129 47.1606 0.388742C47.2686 0.302354 47.3874 0.25916 47.517 0.25916H52.5058C52.6354 0.25916 52.7326 0.302354 52.7974 0.388742C52.8838 0.475129 52.9162 0.593912 52.8946 0.745089L50.2382 22.4499C50.2166 22.6011 50.1518 22.7199 50.0438 22.8062C49.9574 22.8926 49.8494 22.9358 49.7199 22.9358H44.731Z" fill="#FEC90F"/>
<path d="M63.6627 0.745089C63.6843 0.593912 63.7383 0.475129 63.8247 0.388742C63.9327 0.302354 64.0623 0.25916 64.2134 0.25916H69.1051C69.2563 0.25916 69.3643 0.302354 69.4291 0.388742C69.5155 0.475129 69.5479 0.593912 69.5263 0.745089L66.8374 22.4499C66.8159 22.6011 66.7619 22.7199 66.6755 22.8062C66.5891 22.8926 66.4703 22.9358 66.3191 22.9358H60.7147C60.4556 22.9358 60.3044 22.7955 60.2612 22.5147L59.0302 12.5694C59.0302 12.5046 59.0086 12.4722 58.9654 12.4722C58.9222 12.4722 58.9006 12.5046 58.9006 12.5694L57.7344 22.4499C57.7128 22.6011 57.648 22.7199 57.54 22.8062C57.4536 22.8926 57.3456 22.9358 57.2161 22.9358H52.292C52.1624 22.9358 52.0544 22.8926 51.968 22.8062C51.9032 22.7199 51.8816 22.6011 51.9032 22.4499L54.5597 0.745089C54.5812 0.593912 54.6352 0.475129 54.7216 0.388742C54.8296 0.302354 54.9484 0.25916 55.078 0.25916H60.6176C60.8767 0.25916 61.0279 0.39954 61.0711 0.680299L62.3345 10.6904C62.3345 10.7552 62.3561 10.7768 62.3993 10.7552C62.4425 10.7336 62.4749 10.7012 62.4965 10.658L63.6627 0.745089Z" fill="#FEC90F"/>
<path d="M75.1539 23.195C73.2318 23.195 71.72 22.6767 70.6186 21.64C69.5171 20.5818 68.9664 19.1564 68.9664 17.3638C68.9664 17.1479 68.988 16.7807 69.0312 16.2624L70.1974 6.93258C70.4566 4.81609 71.2881 3.13154 72.6919 1.87892C74.1173 0.626308 75.8882 0 78.0047 0C79.9052 0 81.4062 0.529122 82.5076 1.58737C83.6307 2.62401 84.1922 4.03861 84.1922 5.83114C84.1922 6.04711 84.1706 6.41426 84.1274 6.93258L82.9936 16.2624C82.7344 18.3789 81.8921 20.0635 80.4667 21.3161C79.0413 22.5687 77.2704 23.195 75.1539 23.195ZM75.8018 17.9794C76.1258 17.9794 76.3957 17.8498 76.6117 17.5906C76.8493 17.3315 77.0005 16.9751 77.0652 16.5216L78.2639 6.67342C78.3071 6.21989 78.2531 5.86354 78.1019 5.60438C77.9507 5.34521 77.7131 5.21563 77.3892 5.21563C77.0436 5.21563 76.7521 5.34521 76.5145 5.60438C76.2985 5.86354 76.169 6.21989 76.1258 6.67342L74.9272 16.5216C74.9056 16.608 74.8948 16.7267 74.8948 16.8779C74.8948 17.2235 74.9703 17.4934 75.1215 17.6878C75.2943 17.8822 75.5211 17.9794 75.8018 17.9794Z" fill="#FEC90F"/>
<path d="M101.721 0.745089C101.742 0.593912 101.796 0.475129 101.883 0.388742C101.991 0.302354 102.12 0.25916 102.272 0.25916H107.163C107.314 0.25916 107.422 0.302354 107.487 0.388742C107.574 0.475129 107.606 0.593912 107.584 0.745089L104.896 22.4499C104.874 22.6011 104.82 22.7199 104.734 22.8062C104.647 22.8926 104.528 22.9358 104.377 22.9358H98.7728C98.5137 22.9358 98.3625 22.7955 98.3193 22.5147L97.0883 12.5694C97.0883 12.5046 97.0667 12.4722 97.0235 12.4722C96.9803 12.4722 96.9587 12.5046 96.9587 12.5694L95.7925 22.4499C95.7709 22.6011 95.7061 22.7199 95.5981 22.8062C95.5117 22.8926 95.4037 22.9358 95.2741 22.9358H90.3501C90.2205 22.9358 90.1125 22.8926 90.0261 22.8062C89.9613 22.7199 89.9397 22.6011 89.9613 22.4499L92.6177 0.745089C92.6393 0.593912 92.6933 0.475129 92.7797 0.388742C92.8877 0.302354 93.0065 0.25916 93.1361 0.25916H98.6756C98.9348 0.25916 99.086 0.39954 99.1292 0.680299L100.393 10.6904C100.393 10.7552 100.414 10.7768 100.457 10.7552C100.501 10.7336 100.533 10.7012 100.555 10.658L101.721 0.745089Z" fill="#FEC90F"/>
<path d="M106.927 22.9358C106.798 22.9358 106.69 22.8926 106.603 22.8062C106.539 22.7199 106.517 22.6011 106.539 22.4499L109.195 0.745089C109.217 0.593912 109.271 0.475129 109.357 0.388742C109.465 0.302354 109.584 0.25916 109.713 0.25916H114.702C114.832 0.25916 114.929 0.302354 114.994 0.388742C115.08 0.475129 115.113 0.593912 115.091 0.745089L112.435 22.4499C112.413 22.6011 112.348 22.7199 112.24 22.8062C112.154 22.8926 112.046 22.9358 111.916 22.9358H106.927Z" fill="#FEC90F"/>
<path d="M123.915 22.9358C123.613 22.9358 123.473 22.7847 123.494 22.4823L123.429 20.0203C123.451 19.9771 123.44 19.9447 123.397 19.9231C123.354 19.8799 123.311 19.8583 123.267 19.8583H120.449C120.341 19.8583 120.265 19.9123 120.222 20.0203L119.607 22.4823C119.542 22.7847 119.358 22.9358 119.056 22.9358H114.132C113.808 22.9358 113.689 22.7631 113.776 22.4175L120.903 0.680299C120.989 0.39954 121.183 0.25916 121.486 0.25916H127.22C127.522 0.25916 127.684 0.39954 127.706 0.680299L129.487 22.4175V22.4823C129.487 22.7847 129.325 22.9358 129.001 22.9358H123.915ZM121.55 15.0314C121.507 15.1394 121.54 15.1934 121.648 15.1934H123.17C123.235 15.1934 123.289 15.1394 123.332 15.0314L123.203 9.03827C123.203 8.95188 123.17 8.91949 123.105 8.94109C123.062 8.94109 123.041 8.97348 123.041 9.03827L121.55 15.0314Z" fill="#FEC90F"/>
<path d="M136.557 23.195C134.657 23.195 133.156 22.6983 132.054 21.7048C130.974 20.6898 130.434 19.3184 130.434 17.5906C130.434 17.3962 130.456 17.0615 130.499 16.5864L131.73 6.57623C131.968 4.56773 132.788 2.96956 134.192 1.78174C135.596 0.593912 137.335 0 139.408 0C141.287 0 142.777 0.507525 143.878 1.52258C145.001 2.53763 145.563 3.90902 145.563 5.63677C145.563 5.87434 145.541 6.20909 145.498 6.64102L145.369 7.71007C145.304 8.03402 145.12 8.196 144.818 8.196H139.861C139.71 8.196 139.591 8.1528 139.505 8.06641C139.44 7.98003 139.419 7.86124 139.44 7.71007L139.602 6.57623C139.645 6.16589 139.591 5.84194 139.44 5.60438C139.289 5.34521 139.073 5.21563 138.792 5.21563C138.49 5.21563 138.231 5.34521 138.015 5.60438C137.799 5.84194 137.669 6.16589 137.626 6.57623L136.395 16.6188C136.352 17.0291 136.406 17.3638 136.557 17.623C136.708 17.8606 136.924 17.9794 137.205 17.9794C137.507 17.9794 137.756 17.8606 137.95 17.623C138.166 17.3638 138.296 17.0291 138.339 16.6188L138.566 14.999C138.566 14.891 138.512 14.837 138.404 14.837H138.144C137.993 14.837 137.874 14.7938 137.788 14.7074C137.723 14.6211 137.702 14.5023 137.723 14.3511L138.177 10.6256C138.198 10.4745 138.252 10.3557 138.339 10.2693C138.447 10.1829 138.566 10.1397 138.695 10.1397H144.591C144.742 10.1397 144.85 10.1829 144.915 10.2693C145.001 10.3557 145.034 10.4745 145.012 10.6256L144.267 16.5864C144.03 18.5949 143.198 20.2038 141.773 21.4133C140.369 22.6011 138.63 23.195 136.557 23.195Z" fill="#FEC90F"/>
<path d="M154.381 22.9358C154.078 22.9358 153.938 22.7847 153.96 22.4823L153.895 20.0203C153.916 19.9771 153.906 19.9447 153.862 19.9231C153.819 19.8799 153.776 19.8583 153.733 19.8583H150.914C150.807 19.8583 150.731 19.9123 150.688 20.0203L150.072 22.4823C150.007 22.7847 149.824 22.9358 149.521 22.9358H144.597C144.273 22.9358 144.155 22.7631 144.241 22.4175L151.368 0.680299C151.454 0.39954 151.649 0.25916 151.951 0.25916H157.685C157.987 0.25916 158.149 0.39954 158.171 0.680299L159.953 22.4175V22.4823C159.953 22.7847 159.791 22.9358 159.467 22.9358H154.381ZM152.016 15.0314C151.973 15.1394 152.005 15.1934 152.113 15.1934H153.636C153.7 15.1934 153.754 15.1394 153.798 15.0314L153.668 9.03827C153.668 8.95188 153.636 8.91949 153.571 8.94109C153.528 8.94109 153.506 8.97348 153.506 9.03827L152.016 15.0314Z" fill="#FEC90F"/>
<path d="M169.757 22.9358C169.498 22.9358 169.347 22.7955 169.304 22.5147L168.364 14.3511C168.364 14.2647 168.332 14.2215 168.267 14.2215C168.181 14.2215 168.137 14.2755 168.137 14.3835L167.133 22.4499C167.112 22.6011 167.047 22.7199 166.939 22.8062C166.852 22.8926 166.744 22.9358 166.615 22.9358H161.626C161.496 22.9358 161.388 22.8926 161.302 22.8062C161.237 22.7199 161.216 22.6011 161.237 22.4499L163.894 0.745089C163.915 0.593912 163.969 0.475129 164.056 0.388742C164.164 0.302354 164.282 0.25916 164.412 0.25916H171.506C173.234 0.25916 174.595 0.809879 175.588 1.91132C176.603 3.01276 177.111 4.47054 177.111 6.28468C177.111 6.803 177.089 7.20254 177.046 7.4833C176.895 8.67112 176.56 9.74017 176.042 10.6904C175.523 11.6191 174.854 12.375 174.033 12.9581C173.925 13.0229 173.893 13.0985 173.936 13.1849L175.329 22.3851V22.5147C175.329 22.6443 175.286 22.7523 175.2 22.8386C175.113 22.9034 175.005 22.9358 174.876 22.9358H169.757ZM169.368 5.47479C169.26 5.47479 169.206 5.52879 169.206 5.63677L168.72 9.42701C168.72 9.535 168.774 9.58899 168.882 9.58899H169.304C169.822 9.58899 170.254 9.36222 170.599 8.90869C170.967 8.45516 171.15 7.82885 171.15 7.02977C171.15 6.53304 171.031 6.1551 170.794 5.89593C170.556 5.61517 170.232 5.47479 169.822 5.47479H169.368Z" fill="#FEC90F"/>
<path d="M186.428 22.9358C186.126 22.9358 185.985 22.7847 186.007 22.4823L185.942 20.0203C185.964 19.9771 185.953 19.9447 185.91 19.9231C185.867 19.8799 185.823 19.8583 185.78 19.8583H182.962C182.854 19.8583 182.778 19.9123 182.735 20.0203L182.119 22.4823C182.055 22.7847 181.871 22.9358 181.569 22.9358H176.645C176.321 22.9358 176.202 22.7631 176.288 22.4175L183.415 0.680299C183.502 0.39954 183.696 0.25916 183.998 0.25916H189.732C190.035 0.25916 190.197 0.39954 190.218 0.680299L192 22.4175V22.4823C192 22.7847 191.838 22.9358 191.514 22.9358H186.428ZM184.063 15.0314C184.02 15.1394 184.052 15.1934 184.16 15.1934H185.683C185.748 15.1934 185.802 15.1394 185.845 15.0314L185.715 9.03827C185.715 8.95188 185.683 8.91949 185.618 8.94109C185.575 8.94109 185.553 8.97348 185.553 9.03827L184.063 15.0314Z" fill="#FEC90F"/>
</svg>
