<svg width="132" height="40" viewBox="0 0 132 40" fill="none" xmlns="http://www.w3.org/2000/svg">
<path d="M31.8172 25.4933L25.6092 33.4933L24.8412 39.7227H21.2358L22.0252 33.3867L18.3985 25.4933H22.3878L23.3692 27.776C23.7958 28.7858 24.0518 29.4258 24.1372 29.696C24.1514 29.7387 24.1727 29.8169 24.2012 29.9307C24.2438 30.0302 24.2723 30.1084 24.2865 30.1653C24.4429 29.8667 24.6776 29.4898 24.9905 29.0347L27.4438 25.4933H31.8172Z" fill="#9746A5"/>
<path d="M39.2978 25.216C41.4596 25.216 43.2161 25.8276 44.5672 27.0507C45.9325 28.2596 46.6578 29.8738 46.7432 31.8933V32.1707C46.7432 34.5031 46.0321 36.3947 44.6098 37.8453C43.1876 39.2818 41.3245 40 39.0205 40C36.7023 40 34.825 39.3387 33.3885 38.016C31.9663 36.6933 31.2552 34.9582 31.2552 32.8107C31.2552 30.5778 32.0018 28.7573 33.4952 27.3493C35.0027 25.9271 36.937 25.216 39.2978 25.216ZM43.0525 32.5547C43.0525 32.4409 43.0454 32.3556 43.0312 32.2987C42.9743 31.1751 42.5903 30.2862 41.8792 29.632C41.1823 28.9636 40.2721 28.6293 39.1485 28.6293C37.9254 28.6293 36.9156 29.0133 36.1192 29.7813C35.337 30.5493 34.9458 31.5164 34.9458 32.6827C34.9458 33.8489 35.3085 34.7947 36.0338 35.52C36.7734 36.2311 37.7405 36.5867 38.9352 36.5867C40.1583 36.5867 41.1467 36.2169 41.9005 35.4773C42.6685 34.7236 43.0525 33.7493 43.0525 32.5547Z" fill="#9746A5"/>
<path d="M61.1237 25.216C62.5886 25.216 64.025 25.6142 65.433 26.4107L65.0063 29.9307C63.9681 29.0631 62.809 28.6293 61.529 28.6293C60.2206 28.6293 59.1468 29.0204 58.3077 29.8027C57.4686 30.5707 57.049 31.5591 57.049 32.768C57.049 33.9058 57.4188 34.8302 58.1583 35.5413C58.8979 36.2382 59.8579 36.5867 61.0383 36.5867C62.1477 36.5867 63.2357 36.288 64.3023 35.6907L63.8543 39.3173C62.5743 39.7724 61.4579 40 60.505 40C58.4001 40 56.6792 39.3458 55.3423 38.0373C54.0197 36.7147 53.3583 35.0151 53.3583 32.9387C53.3583 30.7769 54.105 28.9493 55.5983 27.456C57.1059 25.9627 58.9477 25.216 61.1237 25.216Z" fill="#9746A5"/>
<path d="M75.106 37.3333H70.0287L68.9407 39.7227H64.93L71.9913 25.4933H76.0447L79.4794 39.7227H75.7033L75.106 37.3333ZM72.7807 31.3387L71.3513 34.5173H74.4233L73.826 31.808C73.6696 31.0542 73.5629 30.5067 73.506 30.1653C73.4633 29.9236 73.4349 29.7529 73.4207 29.6533C73.2642 30.1653 73.0509 30.7271 72.7807 31.3387Z" fill="#9746A5"/>
<path d="M87.0217 25.216C88.4439 25.216 89.8235 25.6498 91.1604 26.5173L89.5817 29.248C88.6572 28.5511 87.8252 28.2027 87.0857 28.2027C86.5879 28.2027 86.1968 28.3164 85.9124 28.544C85.6279 28.7573 85.4857 29.056 85.4857 29.44C85.4857 29.7813 85.6066 30.0658 85.8484 30.2933C86.0901 30.5209 86.5737 30.8053 87.299 31.1467C88.4795 31.7013 89.2972 32.2702 89.7523 32.8533C90.2217 33.4364 90.4563 34.1973 90.4563 35.136C90.4563 36.5582 89.9444 37.7244 88.9203 38.6347C87.9106 39.5449 86.6092 40 85.0163 40C84.163 40 83.3879 39.8862 82.691 39.6587C81.9941 39.4311 81.1692 39.0258 80.2164 38.4427L81.8377 35.712C82.9755 36.4942 83.9781 36.8853 84.8457 36.8853C85.4146 36.8853 85.8697 36.7573 86.211 36.5013C86.5666 36.2311 86.7444 35.8756 86.7444 35.4347C86.7444 35.1218 86.6306 34.8587 86.403 34.6453C86.1897 34.4178 85.7488 34.1404 85.0804 33.8133C83.8146 33.1733 82.947 32.5689 82.4777 32C82.0226 31.4169 81.795 30.6489 81.795 29.696C81.795 28.4018 82.2857 27.3351 83.267 26.496C84.2626 25.6427 85.5141 25.216 87.0217 25.216Z" fill="#9746A5"/>
<path d="M93.812 25.4933H97.4174L95.668 39.7227H92.0627L93.812 25.4933Z" fill="#9746A5"/>
<path d="M110.827 25.4933H114.433L112.683 39.7227H108.737L104.961 33.344C104.392 32.4053 103.809 31.232 103.211 29.824V30.464C103.211 31.4453 103.162 32.3413 103.062 33.152L102.251 39.7227H98.646L100.395 25.4933H104.278L108.331 32.3627L108.95 33.5147L109.505 34.6027L109.782 35.136C109.81 34.24 109.867 33.4293 109.953 32.704L110.827 25.4933Z" fill="#9746A5"/>
<path d="M123.923 25.216C126.085 25.216 127.841 25.8276 129.192 27.0507C130.558 28.2596 131.283 29.8738 131.368 31.8933V32.1707C131.368 34.5031 130.657 36.3947 129.235 37.8453C127.813 39.2818 125.95 40 123.646 40C121.327 40 119.45 39.3387 118.014 38.016C116.591 36.6933 115.88 34.9582 115.88 32.8107C115.88 30.5778 116.627 28.7573 118.12 27.3493C119.628 25.9271 121.562 25.216 123.923 25.216ZM127.678 32.5547C127.678 32.4409 127.67 32.3556 127.656 32.2987C127.599 31.1751 127.215 30.2862 126.504 29.632C125.807 28.9636 124.897 28.6293 123.774 28.6293C122.55 28.6293 121.541 29.0133 120.744 29.7813C119.962 30.5493 119.571 31.5164 119.571 32.6827C119.571 33.8489 119.934 34.7947 120.659 35.52C121.398 36.2311 122.366 36.5867 123.56 36.5867C124.783 36.5867 125.772 36.2169 126.526 35.4773C127.294 34.7236 127.678 33.7493 127.678 32.5547Z" fill="#9746A5"/>
<path d="M32.77 0.300143L26.3455 8.95815L25.5507 15.6999H21.8196L22.6365 8.84272L18.8833 0.300143H23.0118L24.0273 2.77056C24.4689 3.8634 24.7338 4.55604 24.8221 4.84849C24.8369 4.89466 24.8589 4.97932 24.8884 5.10245C24.9325 5.2102 24.962 5.29485 24.9767 5.35642C25.1386 5.03319 25.3814 4.6253 25.7052 4.13276L28.2441 0.300143H32.77Z" fill="#9746A5"/>
<path d="M40.5116 0C42.7488 0 44.5665 0.661857 45.9647 1.98557C47.3777 3.29389 48.1283 5.04089 48.2166 7.22655V7.5267C48.2166 10.051 47.4807 12.0981 46.0089 13.6681C44.5371 15.2227 42.609 16 40.2246 16C37.8255 16 35.8827 15.2843 34.3962 13.8528C32.9243 12.4214 32.1884 10.5435 32.1884 8.21934C32.1884 5.80279 32.9611 3.83261 34.5065 2.3088C36.0667 0.769601 38.0684 0 40.5116 0ZM44.3972 7.94228C44.3972 7.81915 44.3899 7.72679 44.3752 7.66523C44.3163 6.44926 43.9189 5.48726 43.183 4.77922C42.4618 4.0558 41.5198 3.69408 40.3571 3.69408C39.0913 3.69408 38.0463 4.10967 37.2221 4.94084C36.4126 5.77201 36.0078 6.81866 36.0078 8.08081C36.0078 9.34296 36.3831 10.3665 37.1338 11.1515C37.8991 11.9211 38.9 12.3059 40.1363 12.3059C41.4021 12.3059 42.425 11.9057 43.2051 11.1053C43.9999 10.2896 44.3972 9.23521 44.3972 7.94228Z" fill="#9746A5"/>
<path d="M0 1.63542C0 0.899037 0.596954 0.302083 1.33333 0.302083H20C20.7364 0.302083 21.3333 0.899037 21.3333 1.63542C21.3333 2.3718 20.7364 2.96875 20 2.96875H1.33333C0.596954 2.96875 0 2.3718 0 1.63542Z" fill="#9746A5"/>
<path d="M6.66667 5.69531C6.66667 4.95893 7.26362 4.36198 8 4.36198H21.3333C22.0697 4.36198 22.6667 4.95893 22.6667 5.69531C22.6667 6.43169 22.0697 7.02865 21.3333 7.02865H8C7.26362 7.02865 6.66667 6.43169 6.66667 5.69531Z" fill="#9746A5"/>
<path d="M7.27523 14.3665C7.27523 13.6302 7.87218 13.0332 8.60856 13.0332H21.9419C22.6783 13.0332 23.2752 13.6302 23.2752 14.3665C23.2752 15.1029 22.6783 15.6999 21.9419 15.6999H8.60856C7.87218 15.6999 7.27523 15.1029 7.27523 14.3665Z" fill="#9746A5"/>
<path d="M2.66667 9.75521C2.66667 9.01883 3.26362 8.42188 4 8.42188H22.6667C23.4031 8.42188 24 9.01883 24 9.75521C24 10.4916 23.4031 11.0885 22.6667 11.0885H4C3.26362 11.0885 2.66667 10.4916 2.66667 9.75521Z" fill="#9746A5"/>
</svg>
