<svg width="161" height="18" viewBox="0 0 161 18" fill="none" xmlns="http://www.w3.org/2000/svg">
<path d="M8.79512 17.2254C7.52976 13.2646 6.21378 9.37029 4.84719 5.54258H4.64474C4.64474 5.72565 4.61099 6.33309 4.54351 7.3649C4.47602 8.39672 4.41697 9.25379 4.36636 9.93612C4.1639 12.732 4.06267 14.2381 4.06267 14.4545C4.06267 14.987 4.33261 15.2533 4.8725 15.2533L5.73295 15.2283L5.88479 15.3532L5.60641 16.9258C4.18921 16.8593 3.20222 16.826 2.64546 16.826C2.25742 16.826 1.78502 16.851 1.22826 16.9009C0.68837 16.9508 0.325633 16.9924 0.140047 17.0257L0.29189 15.4031C0.781163 15.3532 1.13546 15.2034 1.35479 14.9537C1.57412 14.6875 1.7344 14.2381 1.83563 13.6057C1.98748 12.3076 2.18993 10.3688 2.44301 7.78928C2.71295 5.20974 2.84792 3.79515 2.84792 3.54552C2.84792 3.09618 2.71295 2.7883 2.44301 2.62188C2.18993 2.45546 1.68379 2.33896 0.924571 2.27239L0.798035 2.12261L1.0258 0.674744C2.40926 0.757955 3.46373 0.79956 4.18921 0.79956C4.56038 0.79956 5.45457 0.766276 6.87177 0.699707C7.54663 3.04626 8.483 6.1001 9.68088 9.86123L10.1111 11.1593H10.3136C10.4148 10.8265 10.5498 10.4104 10.7185 9.91116C10.8872 9.39525 11.0643 8.84606 11.2499 8.26358C12.1104 5.73397 12.9286 3.23764 13.7047 0.774597C14.059 0.774597 14.3458 0.782918 14.5652 0.79956L15.9065 0.824523L16.691 0.79956C17.0453 0.79956 17.5008 0.782918 18.0576 0.749633C18.6143 0.716349 19.0193 0.683065 19.2723 0.649781L19.3736 0.749633L19.2217 2.24743C18.4962 2.314 17.9985 2.43882 17.7286 2.62188C17.4755 2.80494 17.349 3.12115 17.349 3.57048C17.349 4.08639 17.4165 5.40113 17.5514 7.51468C17.6864 9.6116 17.8214 11.4256 17.9563 12.9567C18.0576 13.872 18.1841 14.4878 18.336 14.804C18.5047 15.1035 18.7915 15.2533 19.1964 15.2533C19.382 15.2533 19.5338 15.245 19.6519 15.2283C19.7869 15.2117 19.8713 15.2034 19.905 15.2034L20.0062 15.3282L19.7785 16.9009C19.5254 16.9009 19.2976 16.8926 19.0952 16.8759C18.3528 16.8426 17.7286 16.826 17.2224 16.826C16.7332 16.826 16.0836 16.851 15.2738 16.9009C14.4808 16.9508 13.9325 16.9924 13.6288 17.0257L13.806 15.4031C14.3121 15.3365 14.6748 15.2117 14.8942 15.0286C15.1135 14.8289 15.2232 14.5377 15.2232 14.1549C15.2232 14.0884 15.1557 13.0565 15.0207 11.0595C14.8351 8.44665 14.7255 6.60768 14.6917 5.54258H14.4639C13.0467 9.43686 11.7308 13.2562 10.516 17.0007L8.79512 17.2254Z" fill="white"/>
<path d="M34.7811 12.1079C34.5112 13.406 34.2834 14.9454 34.0978 16.7261L33.8447 17.0007C30.6223 16.8842 27.9988 16.826 25.9742 16.826C24.557 16.826 23.1145 16.9092 21.6467 17.0756L21.8238 15.4031C22.5324 15.3032 23.0132 15.1035 23.2663 14.804C23.5194 14.5044 23.6459 13.9885 23.6459 13.2562L23.6712 3.74523C23.6712 3.19603 23.6206 2.83823 23.5194 2.67181C23.4182 2.48874 23.1988 2.39721 22.8614 2.39721C22.6421 2.39721 22.3806 2.41385 22.0769 2.44714L21.925 2.22247L22.1275 0.72467H22.6336C23.8315 0.774597 25.1897 0.79956 26.7081 0.79956C30.4704 0.79956 33.0349 0.699707 34.4015 0.5L34.604 0.774597C34.469 1.39036 34.3425 2.12261 34.2244 2.97137C34.1231 3.82012 34.0556 4.59398 34.0219 5.29295L31.7696 5.44273L31.8202 4.4442C31.8202 3.94493 31.7442 3.59545 31.5924 3.39574C31.4574 3.17939 31.1706 3.03794 30.732 2.97137C30.3102 2.88816 29.5931 2.84655 28.5808 2.84655C28.1422 2.84655 27.8385 2.86319 27.6698 2.89648C27.5011 2.92976 27.383 3.00465 27.3155 3.12115C27.2649 3.23764 27.2311 3.42903 27.2142 3.6953L27.0371 7.61454L29.416 7.6395C29.7703 7.6395 30.2089 7.62286 30.732 7.58957C31.2718 7.53965 31.8117 7.4814 32.3516 7.41483L32.5541 7.6395L32.1998 9.76138C31.9804 9.76138 31.8117 9.75306 31.6936 9.73642C30.5126 9.70313 29.5763 9.68649 28.8845 9.68649C28.3615 9.68649 27.712 9.73642 26.9359 9.83627L26.8853 13.406C26.8853 13.872 26.919 14.2048 26.9865 14.4046C27.0708 14.6043 27.2142 14.7374 27.4167 14.804C27.636 14.8705 28.0072 14.9038 28.5302 14.9038C29.6437 14.9038 30.4451 14.8456 30.9344 14.7291C31.4406 14.5959 31.8033 14.338 32.0226 13.9552C32.242 13.5724 32.4107 12.94 32.5288 12.058L34.604 11.8833L34.7811 12.1079Z" fill="white"/>
<path d="M43.7642 17.1255C42.212 17.1255 40.8707 16.8093 39.7403 16.1769C38.61 15.5445 37.7411 14.6375 37.1337 13.4559C36.5263 12.2744 36.2226 10.8764 36.2226 9.26211C36.2226 7.46476 36.5854 5.90871 37.3108 4.59398C38.0363 3.27925 39.0739 2.27239 40.4236 1.57342C41.7734 0.857807 43.3677 0.5 45.2067 0.5C45.8647 0.5 46.5649 0.549927 47.3072 0.649781C48.0496 0.732992 48.6822 0.824524 49.2053 0.924376C49.7283 1.02423 50.0657 1.0908 50.2175 1.12408L50.3947 1.4486C50.361 1.54846 50.3019 1.80641 50.2175 2.22247C50.1332 2.62188 50.0404 3.16275 49.9392 3.84508C49.8548 4.51077 49.7873 5.22638 49.7367 5.99192L47.3072 6.16667C47.3241 6.1001 47.341 5.942 47.3578 5.69236C47.3747 5.44273 47.3831 5.14317 47.3831 4.79369C47.3831 4.09471 47.1638 3.60377 46.7251 3.32085C46.3034 3.02129 45.5948 2.87151 44.5993 2.87151C43.064 2.87151 41.9168 3.32917 41.1576 4.24449C40.3983 5.14317 40.0187 6.53279 40.0187 8.41336C40.0187 10.4604 40.3983 12.0497 41.1576 13.1813C41.9336 14.2964 43.005 14.8539 44.3716 14.8539C44.8271 14.8539 45.2405 14.804 45.6116 14.7041C45.9828 14.6043 46.2696 14.5044 46.4721 14.4046C46.6914 14.2881 46.8264 14.2132 46.877 14.1799V11.8084C46.877 11.3257 46.8011 11.0095 46.6492 10.8598C46.4974 10.6933 46.1937 10.6101 45.7382 10.6101H44.4222L44.2957 10.4104L44.5487 8.63803C44.9536 8.63803 45.2995 8.64635 45.5863 8.663C46.5311 8.69628 47.3578 8.71292 48.0664 8.71292C48.5894 8.71292 49.104 8.69628 49.6102 8.663C50.1163 8.62971 50.4453 8.60475 50.5971 8.58811L50.7743 9.53671C50.4875 9.71977 50.2682 9.95276 50.1163 10.2357C49.9813 10.502 49.8885 10.893 49.8379 11.409C49.7873 11.9082 49.762 12.6488 49.762 13.6307C49.762 14.6292 49.8211 15.3532 49.9392 15.8025L49.7114 16.1021C49.7114 16.1187 49.4246 16.2186 48.851 16.4016C48.2942 16.5847 47.5687 16.7511 46.6745 16.9009C45.7972 17.0507 44.8271 17.1255 43.7642 17.1255Z" fill="white"/>
<path d="M60.2014 16.826L60.328 15.3532C60.9016 15.3032 61.315 15.2533 61.568 15.2034C61.838 15.1368 62.0236 15.0536 62.1248 14.9537C62.226 14.8372 62.2766 14.6708 62.2766 14.4545C62.2766 14.2548 62.2345 13.9635 62.1501 13.5808L61.6186 11.6586C60.7413 11.6253 59.9652 11.6087 59.2904 11.6087C58.9867 11.6087 58.354 11.6503 57.3923 11.7335L56.8609 11.7834L56.2282 13.7056C56.127 14.0717 56.0764 14.3297 56.0764 14.4794C56.0764 14.779 56.1607 14.987 56.3294 15.1035C56.515 15.22 56.8271 15.2783 57.2658 15.2783H58.354L58.4806 15.453L58.3034 16.9758C58.0672 16.9591 57.5611 16.9258 56.785 16.8759C56.0089 16.8426 55.2834 16.826 54.6085 16.826C53.8999 16.826 53.2588 16.8343 52.6852 16.851C52.1284 16.8676 51.7573 16.8842 51.5717 16.9009L51.7488 15.2783C52.1369 15.2117 52.4574 15.0536 52.7105 14.804C52.9636 14.5543 53.1998 14.1466 53.4191 13.5808L57.9491 0.924376L61.8211 0.524963L62.0995 0.649781C62.3526 1.59839 62.8756 3.54552 63.6685 6.49119C64.4784 9.42021 65.1701 11.7751 65.7437 13.5558C65.9293 14.1549 66.1655 14.5793 66.4523 14.8289C66.7392 15.0786 67.1694 15.2283 67.743 15.2783L67.8442 15.453L67.6671 16.9009C67.4478 16.8842 67.0344 16.8676 66.427 16.851C65.8197 16.8343 65.2038 16.826 64.5796 16.826C63.6854 16.826 62.8081 16.851 61.9476 16.9009C61.1041 16.9674 60.5642 17.0091 60.328 17.0257L60.2014 16.826ZM59.2904 9.68649C59.476 9.68649 60.1002 9.66153 61.1631 9.6116L59.67 4.04479H59.341L57.4683 9.68649H59.2904Z" fill="white"/>
<path d="M80.291 17.1255C78.7557 17.1255 77.4229 16.8093 76.2925 16.1769C75.1621 15.5445 74.2932 14.6375 73.6859 13.4559C73.0785 12.2744 72.7748 10.8764 72.7748 9.26211C72.7748 7.49804 73.1375 5.95864 73.863 4.64391C74.5885 3.32917 75.6176 2.314 76.9505 1.59839C78.3002 0.866128 79.8608 0.5 81.6323 0.5C82.2566 0.5 82.923 0.549927 83.6316 0.649781C84.3571 0.732992 84.9729 0.824524 85.479 0.924376C85.9852 1.02423 86.3057 1.0908 86.4407 1.12408L86.5926 1.4486C86.5588 1.5651 86.4998 1.83138 86.4154 2.24743C86.331 2.66349 86.2383 3.221 86.137 3.91997C86.0358 4.61894 85.9599 5.35952 85.9093 6.1417L83.5051 6.29148C83.5051 6.22491 83.5135 6.07513 83.5304 5.84214C83.5472 5.59251 83.5557 5.30959 83.5557 4.99339C83.5557 4.26114 83.3279 3.72859 82.8724 3.39574C82.4169 3.04626 81.6998 2.87151 80.7213 2.87151C79.3884 2.87151 78.3677 3.33749 77.6591 4.26946C76.9674 5.20142 76.6215 6.5744 76.6215 8.3884C76.6215 10.4354 76.9927 12.0247 77.735 13.1564C78.4942 14.2881 79.5487 14.8539 80.8984 14.8539C81.8264 14.8539 82.5518 14.5793 83.0748 14.0301C83.5979 13.4643 83.9606 12.5739 84.1631 11.359L86.5926 11.2093C86.5419 11.4922 86.4491 12.1163 86.3142 13.0815C86.1961 14.0467 86.1201 14.9621 86.0864 15.8275L85.8333 16.127C85.8333 16.1437 85.5465 16.2435 84.9729 16.4266C84.4161 16.593 83.7244 16.7511 82.8977 16.9009C82.0879 17.0507 81.219 17.1255 80.291 17.1255Z" fill="white"/>
<path d="M95.8886 16.826L96.0152 15.3532C96.5888 15.3032 97.0021 15.2533 97.2552 15.2034C97.5251 15.1368 97.7107 15.0536 97.812 14.9537C97.9132 14.8372 97.9638 14.6708 97.9638 14.4545C97.9638 14.2548 97.9216 13.9635 97.8373 13.5808L97.3058 11.6586C96.4285 11.6253 95.6524 11.6087 94.9776 11.6087C94.6739 11.6087 94.0412 11.6503 93.0795 11.7335L92.5481 11.7834L91.9154 13.7056C91.8141 14.0717 91.7635 14.3297 91.7635 14.4794C91.7635 14.779 91.8479 14.987 92.0166 15.1035C92.2022 15.22 92.5143 15.2783 92.953 15.2783H94.0412L94.1677 15.453L93.9906 16.9758C93.7544 16.9591 93.2482 16.9258 92.4721 16.8759C91.696 16.8426 90.9706 16.826 90.2957 16.826C89.5871 16.826 88.946 16.8343 88.3724 16.851C87.8156 16.8676 87.4444 16.8842 87.2588 16.9009L87.436 15.2783C87.824 15.2117 88.1446 15.0536 88.3977 14.804C88.6507 14.5543 88.8869 14.1466 89.1063 13.5808L93.6363 0.924376L97.5083 0.524963L97.7867 0.649781C98.0397 1.59839 98.5627 3.54552 99.3557 6.49119C100.166 9.42021 100.857 11.7751 101.431 13.5558C101.616 14.1549 101.853 14.5793 102.14 14.8289C102.426 15.0786 102.857 15.2283 103.43 15.2783L103.531 15.453L103.354 16.9009C103.135 16.8842 102.722 16.8676 102.114 16.851C101.507 16.8343 100.891 16.826 100.267 16.826C99.3726 16.826 98.4953 16.851 97.6348 16.9009C96.7912 16.9674 96.2514 17.0091 96.0152 17.0257L95.8886 16.826ZM94.9776 9.68649C95.1631 9.68649 95.7874 9.66153 96.8503 9.6116L95.3572 4.04479H95.0282L93.1554 9.68649H94.9776Z" fill="white"/>
<path d="M108.897 17.1255C108.12 17.1255 107.403 17.0507 106.745 16.9009C106.087 16.7677 105.539 16.618 105.1 16.4515C104.679 16.2851 104.468 16.1936 104.468 16.1769L104.265 15.8275C104.282 15.711 104.316 15.4613 104.367 15.0786C104.434 14.6791 104.502 14.1549 104.569 13.5059C104.636 12.8402 104.67 12.1995 104.67 11.5837L106.745 11.4339C106.745 12.3659 106.83 13.0815 106.998 13.5808C107.167 14.08 107.446 14.4378 107.834 14.6542C108.239 14.8539 108.812 14.9537 109.555 14.9537C110.364 14.9537 111.014 14.779 111.503 14.4295C111.992 14.08 112.237 13.5974 112.237 12.9816C112.237 12.4325 111.976 11.9665 111.453 11.5837C110.946 11.2009 110.153 10.7516 109.074 10.2357C109.006 10.2024 108.812 10.1109 108.492 9.96109C107.226 9.36197 106.239 8.72956 105.531 8.06388C104.822 7.39819 104.468 6.53279 104.468 5.4677C104.468 4.51909 104.755 3.67034 105.328 2.92144C105.902 2.1559 106.695 1.5651 107.707 1.14905C108.736 0.716349 109.9 0.5 111.199 0.5C111.942 0.5 112.625 0.549927 113.249 0.649781C113.89 0.749634 114.397 0.857807 114.768 0.974302C115.156 1.07416 115.4 1.14073 115.502 1.17401L115.679 1.49853C115.662 1.59838 115.611 1.85634 115.527 2.27239C115.443 2.67181 115.358 3.18771 115.274 3.82012C115.19 4.45252 115.122 5.10157 115.072 5.76725L113.199 5.91703L112.971 5.76725C112.971 5.71733 112.979 5.61747 112.996 5.4677C113.013 5.30127 113.022 5.10157 113.022 4.86858C113.022 4.11968 112.828 3.58713 112.44 3.27092C112.068 2.95472 111.436 2.79662 110.542 2.79662C109.816 2.79662 109.217 2.97137 108.745 3.32085C108.289 3.6537 108.061 4.08639 108.061 4.61894C108.061 5.01836 108.205 5.38448 108.492 5.71733C108.795 6.03353 109.15 6.30813 109.555 6.54112C109.976 6.77411 110.584 7.08199 111.377 7.46476C112.321 7.9141 113.098 8.32183 113.705 8.68796C114.329 9.05409 114.852 9.52007 115.274 10.0859C115.696 10.6517 115.907 11.3257 115.907 12.1079C115.907 13.1065 115.611 13.9885 115.021 14.754C114.447 15.5029 113.629 16.0854 112.566 16.5015C111.52 16.9175 110.297 17.1255 108.897 17.1255Z" fill="white"/>
<path d="M118.085 15.453C118.827 15.3032 119.325 15.0952 119.578 14.8289C119.831 14.546 119.957 14.0551 119.957 13.3561V3.6953C119.957 3.17939 119.898 2.83823 119.78 2.67181C119.662 2.48874 119.417 2.39721 119.046 2.39721L118.161 2.42217L118.034 2.22247L118.236 0.774597L121.729 0.79956C122.286 0.79956 123.467 0.741312 125.272 0.624816L125.145 2.27239C124.504 2.35561 124.074 2.48874 123.855 2.67181C123.652 2.83823 123.534 3.15443 123.5 3.62041C123.281 7.54797 123.171 10.8514 123.171 13.5308C123.171 14.2132 123.239 14.6708 123.374 14.9038C123.509 15.1368 123.77 15.2533 124.158 15.2533C124.344 15.2533 124.715 15.2283 125.272 15.1784L125.373 15.3282L125.145 16.9009L124.234 16.8759L121.425 16.826C120.649 16.826 119.485 16.9009 117.933 17.0507L118.085 15.453Z" fill="white"/>
<path d="M139.551 17.5C137.898 14.9038 136.227 12.3742 134.54 9.91116C132.87 7.44811 132.035 6.23324 132.035 6.26652H131.807L131.782 14.13C131.782 14.5627 131.841 14.8622 131.959 15.0286C132.094 15.1784 132.322 15.2533 132.642 15.2533L133.756 15.2034L133.882 15.3532L133.629 16.9258C133.393 16.9092 132.954 16.8842 132.313 16.851C131.672 16.8343 131.031 16.826 130.39 16.826C129.833 16.826 129.234 16.851 128.593 16.9009C127.952 16.9674 127.539 17.0091 127.353 17.0257L127.53 15.3781C128.053 15.3116 128.433 15.1618 128.669 14.9288C128.905 14.6791 129.032 14.3047 129.049 13.8054L129.352 3.89501C129.352 3.36246 129.217 2.98801 128.947 2.77166C128.677 2.55531 128.129 2.40553 127.302 2.32232L127.125 2.09765L127.302 0.674744C127.488 0.691386 127.884 0.716349 128.492 0.749633C129.099 0.782918 129.664 0.79956 130.187 0.79956C130.626 0.79956 131.09 0.791239 131.579 0.774597C132.085 0.741312 132.414 0.716349 132.566 0.699707C133.95 2.92976 135.434 5.22638 137.02 7.58957C138.623 9.95277 139.425 11.1177 139.425 11.0844H139.678L139.627 3.47063C139.61 3.08786 139.534 2.81327 139.399 2.64684C139.281 2.48042 139.079 2.39721 138.792 2.39721L137.906 2.42217L137.83 2.24743L138.007 0.699707C138.244 0.716349 138.674 0.741312 139.298 0.774597C139.939 0.791239 140.58 0.79956 141.221 0.79956C141.728 0.79956 142.293 0.782918 142.917 0.749633C143.558 0.716349 143.98 0.691386 144.182 0.674744L144.056 2.32232C143.482 2.40553 143.069 2.56363 142.816 2.79662C142.58 3.02961 142.453 3.39574 142.436 3.89501L142.107 17.1755L139.551 17.5Z" fill="white"/>
<path d="M152.598 17.1255C151.113 17.1255 149.823 16.8093 148.726 16.1769C147.646 15.5279 146.811 14.6126 146.221 13.431C145.647 12.2494 145.36 10.8514 145.36 9.23715C145.36 7.50636 145.706 5.9836 146.398 4.66887C147.089 3.35414 148.06 2.33064 149.308 1.59839C150.573 0.866128 152.024 0.5 153.661 0.5C155.179 0.5 156.487 0.816202 157.584 1.4486C158.697 2.06437 159.541 2.96304 160.114 4.14464C160.705 5.30959 161 6.69922 161 8.31351C161 10.0443 160.646 11.5837 159.937 12.9317C159.245 14.2631 158.258 15.2949 156.976 16.0272C155.711 16.7594 154.251 17.1255 152.598 17.1255ZM153.256 15.0037C154.471 15.0037 155.416 14.5377 156.09 13.6057C156.782 12.6571 157.128 11.3257 157.128 9.6116C157.128 7.43147 156.765 5.76725 156.04 4.61894C155.314 3.45399 154.285 2.87151 152.952 2.87151C151.754 2.87151 150.818 3.34582 150.143 4.29442C149.485 5.22638 149.156 6.54944 149.156 8.26358C149.156 10.4437 149.51 12.1163 150.219 13.2812C150.945 14.4295 151.957 15.0037 153.256 15.0037Z" fill="white"/>
<path d="M8.65508 17.2254C7.38971 13.2646 6.07374 9.37029 4.70715 5.54258H4.50469C4.50469 5.72565 4.47095 6.33309 4.40346 7.3649C4.33597 8.39672 4.27692 9.25379 4.22631 9.93612C4.02385 12.732 3.92262 14.2381 3.92262 14.4545C3.92262 14.987 4.19257 15.2533 4.73245 15.2533L5.5929 15.2283L5.74474 15.3532L5.46636 16.9258C4.04916 16.8593 3.06218 16.826 2.50542 16.826C2.11737 16.826 1.64497 16.851 1.08821 16.9009C0.548324 16.9508 0.185586 16.9924 0 17.0257L0.151843 15.4031C0.641117 15.3532 0.995418 15.2034 1.21475 14.9537C1.43408 14.6875 1.59436 14.2381 1.69559 13.6057C1.84743 12.3076 2.04989 10.3688 2.30296 7.78928C2.5729 5.20974 2.70788 3.79515 2.70788 3.54552C2.70788 3.09618 2.5729 2.7883 2.30296 2.62188C2.04989 2.45546 1.54374 2.33896 0.784525 2.27239L0.657988 2.12261L0.885754 0.674744C2.26922 0.757955 3.32368 0.79956 4.04916 0.79956C4.42033 0.79956 5.31452 0.766276 6.73173 0.699707C7.40659 3.04626 8.34295 6.1001 9.54083 9.86123L9.97105 11.1593H10.1735C10.2747 10.8265 10.4097 10.4104 10.5784 9.91116C10.7471 9.39525 10.9243 8.84606 11.1099 8.26358C11.9703 5.73397 12.7886 3.23764 13.5647 0.774597C13.919 0.774597 14.2058 0.782918 14.4251 0.79956L15.7664 0.824523L16.5509 0.79956C16.9052 0.79956 17.3608 0.782918 17.9175 0.749633C18.4743 0.716349 18.8792 0.683065 19.1323 0.649781L19.2335 0.749633L19.0817 2.24743C18.3562 2.314 17.8585 2.43882 17.5885 2.62188C17.3355 2.80494 17.2089 3.12115 17.2089 3.57048C17.2089 4.08639 17.2764 5.40113 17.4114 7.51468C17.5464 9.6116 17.6813 11.4256 17.8163 12.9567C17.9175 13.872 18.0441 14.4878 18.1959 14.804C18.3646 15.1035 18.6514 15.2533 19.0564 15.2533C19.2419 15.2533 19.3938 15.245 19.5119 15.2283C19.6469 15.2117 19.7312 15.2034 19.765 15.2034L19.8662 15.3282L19.6384 16.9009C19.3853 16.9009 19.1576 16.8926 18.9551 16.8759C18.2128 16.8426 17.5885 16.826 17.0824 16.826C16.5931 16.826 15.9436 16.851 15.1337 16.9009C14.3408 16.9508 13.7924 16.9924 13.4888 17.0257L13.6659 15.4031C14.1721 15.3365 14.5348 15.2117 14.7541 15.0286C14.9735 14.8289 15.0831 14.5377 15.0831 14.1549C15.0831 14.0884 15.0156 13.0565 14.8807 11.0595C14.6951 8.44665 14.5854 6.60768 14.5517 5.54258H14.3239C12.9067 9.43686 11.5907 13.2562 10.376 17.0007L8.65508 17.2254Z" fill="url(#paint0_linear_4549_23466)"/>
<defs>
<linearGradient id="paint0_linear_4549_23466" x1="10.1691" y1="3.30426" x2="10.1691" y2="19.6864" gradientUnits="userSpaceOnUse">
<stop stop-color="#FFF7B9"/>
<stop offset="0.49" stop-color="#FFBB00"/>
<stop offset="0.9999" stop-color="#E6E4DF"/>
</linearGradient>
</defs>
</svg>
