<svg width="230" height="21" viewBox="0 0 230 21" fill="none" xmlns="http://www.w3.org/2000/svg">
<g id="casino royat">
<path d="M0 10.5146C0 8.48957 0.457568 6.68846 1.3727 5.11127C2.28784 3.5146 3.55886 2.27816 5.18577 1.40195C6.83302 0.506258 8.6938 0.0584137 10.7681 0.0584137C13.3102 0.0584137 15.4861 0.700973 17.2961 1.98609C19.106 3.27121 20.316 5.02364 20.9261 7.24339H15.1913C14.7642 6.38665 14.1541 5.73435 13.361 5.28651C12.5882 4.83866 11.7036 4.61474 10.7071 4.61474C9.10052 4.61474 7.799 5.15021 6.80252 6.22114C5.80603 7.29207 5.30779 8.72323 5.30779 10.5146C5.30779 12.306 5.80603 13.7371 6.80252 14.8081C7.799 15.879 9.10052 16.4145 10.7071 16.4145C11.7036 16.4145 12.5882 16.1905 13.361 15.7427C14.1541 15.2949 14.7642 14.6426 15.1913 13.7858H20.9261C20.316 16.0056 19.106 17.758 17.2961 19.0431C15.4861 20.3088 13.3102 20.9416 10.7681 20.9416C8.6938 20.9416 6.83302 20.5035 5.18577 19.6273C3.55886 18.7316 2.28784 17.4951 1.3727 15.9179C0.457568 14.3407 0 12.5396 0 10.5146Z" fill="white"/>
<path d="M37.451 17.1739H29.4588L28.1776 20.7955H22.7173L30.4655 0.292072H36.5054L44.2535 20.7955H38.7322L37.451 17.1739ZM36.1088 13.3185L33.4549 5.81224L30.8315 13.3185H36.1088Z" fill="white"/>
<path d="M54.3598 21C52.7939 21 51.3907 20.7566 50.1502 20.2698C48.9097 19.783 47.9132 19.0626 47.1607 18.1085C46.4286 17.1544 46.0422 16.0056 46.0016 14.662H51.5534C51.6348 15.4214 51.9093 16.0056 52.377 16.4145C52.8448 16.8039 53.4549 16.9986 54.2073 16.9986C54.9801 16.9986 55.5902 16.8331 56.0376 16.5021C56.485 16.1516 56.7087 15.6745 56.7087 15.0709C56.7087 14.5647 56.5256 14.146 56.1596 13.815C55.8139 13.484 55.3766 13.2114 54.8479 12.9972C54.3395 12.783 53.6074 12.5396 52.6516 12.267C51.2687 11.8581 50.14 11.4492 49.2656 11.0403C48.3911 10.6314 47.6387 10.0278 47.0082 9.22948C46.3778 8.43115 46.0626 7.38943 46.0626 6.10431C46.0626 4.19611 46.7845 2.70654 48.2284 1.6356C49.6723 0.545202 51.5534 0 53.8717 0C56.2308 0 58.1322 0.545202 59.5761 1.6356C61.02 2.70654 61.7928 4.20584 61.8944 6.13352H56.2511C56.2104 5.47149 55.9562 4.95549 55.4885 4.58554C55.0208 4.19611 54.4208 4.00139 53.6887 4.00139C53.0583 4.00139 52.5499 4.1669 52.1635 4.49791C51.7771 4.80946 51.5839 5.26704 51.5839 5.87065C51.5839 6.53268 51.9093 7.04868 52.5601 7.41864C53.2108 7.78859 54.2276 8.18776 55.6105 8.61613C56.9934 9.06398 58.1119 9.49235 58.966 9.90125C59.8405 10.3102 60.5929 10.904 61.2233 11.6829C61.8538 12.4618 62.169 13.4645 62.169 14.6912C62.169 15.8595 61.8538 16.9207 61.2233 17.8748C60.6133 18.8289 59.7185 19.5883 58.5389 20.153C57.3594 20.7177 55.9664 21 54.3598 21Z" fill="white"/>
<path d="M70.5954 0.292072V20.7955H65.3791V0.292072H70.5954Z" fill="white"/>
<path d="M93.5324 20.7955H88.3162L79.5919 8.14882V20.7955H74.3756V0.292072H79.5919L88.3162 12.9972V0.292072H93.5324V20.7955Z" fill="white"/>
<path d="M107.441 21C105.428 21 103.577 20.5522 101.889 19.6565C100.222 18.7608 98.8896 17.5146 97.8932 15.9179C96.917 14.3018 96.4289 12.491 96.4289 10.4854C96.4289 8.47983 96.917 6.67872 97.8932 5.08206C98.8896 3.4854 100.222 2.23922 101.889 1.34353C103.577 0.447844 105.428 0 107.441 0C109.454 0 111.295 0.447844 112.962 1.34353C114.65 2.23922 115.972 3.4854 116.928 5.08206C117.904 6.67872 118.392 8.47983 118.392 10.4854C118.392 12.491 117.904 14.3018 116.928 15.9179C115.952 17.5146 114.63 18.7608 112.962 19.6565C111.295 20.5522 109.454 21 107.441 21ZM107.441 16.4437C109.149 16.4437 110.512 15.8985 111.529 14.8081C112.566 13.7177 113.084 12.2768 113.084 10.4854C113.084 8.67455 112.566 7.23366 111.529 6.16272C110.512 5.07232 109.149 4.52712 107.441 4.52712C105.712 4.52712 104.33 5.06259 103.292 6.13352C102.276 7.20445 101.767 8.65508 101.767 10.4854C101.767 12.2962 102.276 13.7469 103.292 14.8373C104.33 15.9082 105.712 16.4437 107.441 16.4437Z" fill="white"/>
<path d="M138.679 20.7955L134.226 13.0556H132.975V20.7955H127.759V0.292072H136.513C138.201 0.292072 139.635 0.574408 140.814 1.13908C142.014 1.70375 142.909 2.48261 143.499 3.47566C144.089 4.44923 144.384 5.53964 144.384 6.74687C144.384 8.10987 143.977 9.32684 143.163 10.3978C142.37 11.4687 141.191 12.2281 139.625 12.6759L144.567 20.7955H138.679ZM132.975 9.52156H136.208C137.164 9.52156 137.876 9.29764 138.344 8.84979C138.832 8.40195 139.076 7.76912 139.076 6.95132C139.076 6.17246 138.832 5.55911 138.344 5.11127C137.876 4.66342 137.164 4.4395 136.208 4.4395H132.975V9.52156Z" fill="white"/>
<path d="M157.786 21C155.772 21 153.922 20.5522 152.234 19.6565C150.566 18.7608 149.234 17.5146 148.238 15.9179C147.261 14.3018 146.773 12.491 146.773 10.4854C146.773 8.47983 147.261 6.67872 148.238 5.08206C149.234 3.4854 150.566 2.23922 152.234 1.34353C153.922 0.447844 155.772 0 157.786 0C159.799 0 161.639 0.447844 163.307 1.34353C164.995 2.23922 166.317 3.4854 167.272 5.08206C168.249 6.67872 168.737 8.47983 168.737 10.4854C168.737 12.491 168.249 14.3018 167.272 15.9179C166.296 17.5146 164.974 18.7608 163.307 19.6565C161.639 20.5522 159.799 21 157.786 21ZM157.786 16.4437C159.494 16.4437 160.856 15.8985 161.873 14.8081C162.91 13.7177 163.429 12.2768 163.429 10.4854C163.429 8.67455 162.91 7.23366 161.873 6.16272C160.856 5.07232 159.494 4.52712 157.786 4.52712C156.057 4.52712 154.674 5.06259 153.637 6.13352C152.62 7.20445 152.112 8.65508 152.112 10.4854C152.112 12.2962 152.62 13.7469 153.637 14.8373C154.674 15.9082 156.057 16.4437 157.786 16.4437Z" fill="white"/>
<path d="M190.002 0.292072L182.59 14.0195V20.7955H177.373V14.0195L169.961 0.292072H175.879L180.027 8.879L184.145 0.292072H190.002Z" fill="white"/>
<path d="M205.435 17.1739H197.442L196.161 20.7955H190.701L198.449 0.292072H204.489L212.237 20.7955H206.716L205.435 17.1739ZM204.092 13.3185L201.438 5.81224L198.815 13.3185H204.092Z" fill="white"/>
<path d="M230 0.292072V4.29346H224.326V20.7955H219.11V4.29346H213.436V0.292072H230Z" fill="white"/>
</g>
</svg>
