<svg width="158" height="26" viewBox="0 0 158 26" fill="none" xmlns="http://www.w3.org/2000/svg">
<rect x="106.102" y="0.0273438" width="51.8978" height="25.9489" fill="#CF1638"/>
<path d="M9.37185 23.4255C7.43666 23.4255 5.76871 23.0109 4.368 22.1815C2.96729 21.3337 1.88911 20.1634 1.13347 18.6705C0.377823 17.1592 0 15.4268 0 13.4731C0 11.4827 0.377823 9.74099 1.13347 8.24813C1.88911 6.73684 2.96729 5.5573 4.368 4.7095C5.76871 3.84327 7.43666 3.41016 9.37185 3.41016C11.7678 3.41016 13.7214 4.00914 15.2327 5.20712C16.7624 6.40509 17.7116 8.09147 18.0802 10.2663H13.5463C13.3252 9.28945 12.8552 8.5338 12.1364 7.99932C11.4176 7.44641 10.4869 7.16995 9.3442 7.16995C8.25681 7.16995 7.32608 7.42798 6.552 7.94403C5.79635 8.46008 5.2158 9.18808 4.81033 10.128C4.42329 11.0495 4.22977 12.1646 4.22977 13.4731C4.22977 14.7448 4.42329 15.8507 4.81033 16.7906C5.2158 17.7121 5.79635 18.4309 6.552 18.947C7.32608 19.4446 8.25681 19.6934 9.3442 19.6934C10.4869 19.6934 11.4084 19.4538 12.1088 18.9746C12.8275 18.477 13.3067 17.7674 13.5463 16.8459H18.0802C17.7116 18.8917 16.7624 20.5043 15.2327 21.6839C13.7214 22.845 11.7678 23.4255 9.37185 23.4255Z" fill="#1B1B1B"/>
<path d="M19.7731 23.0938L26.8227 3.7419H31.5777L38.6273 23.0938H34.2317L29.1726 8.414L24.1134 23.0938H19.7731ZM22.8417 18.864L23.9475 15.6571H34.0935L35.1716 18.864H22.8417Z" fill="#1B1B1B"/>
<path d="M47.8245 23.4255C46.4422 23.4255 45.1889 23.1952 44.0647 22.7344C42.9588 22.2552 42.0834 21.5549 41.4383 20.6333C40.7933 19.7118 40.4431 18.5784 40.3878 17.2329H44.8111C44.8295 17.7674 44.9678 18.2374 45.2258 18.6429C45.4838 19.0483 45.834 19.3709 46.2763 19.6105C46.7186 19.8316 47.2347 19.9422 47.8245 19.9422C48.3221 19.9422 48.7552 19.8685 49.1238 19.721C49.5108 19.5552 49.8149 19.3248 50.0361 19.0299C50.2573 18.7166 50.3679 18.3295 50.3679 17.8688C50.3679 17.3896 50.2388 16.9841 49.9808 16.6524C49.7228 16.3022 49.3726 16.0073 48.9303 15.7677C48.488 15.5097 47.9719 15.2793 47.3821 15.0766C46.8108 14.8554 46.1934 14.6435 45.5299 14.4407C44.0002 13.9431 42.8206 13.2704 41.9912 12.4226C41.1803 11.5748 40.7748 10.4413 40.7748 9.02221C40.7748 7.84266 41.0605 6.83821 41.6319 6.00884C42.2216 5.16104 43.0233 4.51598 44.037 4.07365C45.0507 3.63132 46.2026 3.41016 47.4927 3.41016C48.8197 3.41016 49.99 3.64054 51.0037 4.10129C52.0174 4.54362 52.8191 5.1979 53.4089 6.06413C53.9986 6.91193 54.312 7.9256 54.3488 9.10514H49.8979C49.8794 8.69967 49.7596 8.33107 49.5385 7.99932C49.3358 7.66757 49.0501 7.40033 48.6815 7.1976C48.3313 6.99486 47.9166 6.8935 47.4374 6.8935C47.0135 6.87507 46.6265 6.93957 46.2763 7.08702C45.9446 7.21603 45.6681 7.42798 45.4469 7.72286C45.2442 7.99932 45.1428 8.3495 45.1428 8.7734C45.1428 9.17886 45.2442 9.53826 45.4469 9.85157C45.6681 10.1465 45.963 10.4045 46.3316 10.6256C46.7186 10.8284 47.161 11.0219 47.6586 11.2062C48.1746 11.3905 48.7368 11.5748 49.345 11.7591C50.3218 12.0909 51.2156 12.4871 52.0266 12.9479C52.856 13.3902 53.5194 13.98 54.0171 14.7172C54.5331 15.436 54.7911 16.3944 54.7911 17.5923C54.7911 18.6429 54.5147 19.6105 53.9618 20.4951C53.4273 21.3798 52.644 22.0893 51.6119 22.6238C50.5982 23.1583 49.3358 23.4255 47.8245 23.4255Z" fill="#1B1B1B"/>
<path d="M57.9242 23.0938V3.7419H62.071V23.0938H57.9242Z" fill="#1B1B1B"/>
<path d="M65.7805 23.0938V3.7419H69.9273L78.4145 16.4589V3.7419H82.5613V23.0938H78.4145L69.9273 10.4321V23.0938H65.7805Z" fill="#1B1B1B"/>
<path d="M95.2841 23.4255C93.3858 23.4255 91.7178 23.0016 90.2803 22.1539C88.8427 21.3061 87.7092 20.1357 86.8799 18.6429C86.0689 17.1316 85.6635 15.3899 85.6635 13.4179C85.6635 11.4458 86.0689 9.71334 86.8799 8.22048C87.7092 6.70919 88.8427 5.52965 90.2803 4.68185C91.7178 3.83405 93.3858 3.41016 95.2841 3.41016C97.1825 3.41016 98.8596 3.83405 100.316 4.68185C101.772 5.52965 102.896 6.70919 103.688 8.22048C104.499 9.71334 104.905 11.4458 104.905 13.4179C104.905 15.3899 104.499 17.1316 103.688 18.6429C102.896 20.1357 101.772 21.3061 100.316 22.1539C98.8596 23.0016 97.1825 23.4255 95.2841 23.4255ZM95.2841 19.6934C96.4084 19.6934 97.3668 19.4354 98.1593 18.9193C98.9702 18.4033 99.5968 17.6845 100.039 16.763C100.481 15.823 100.703 14.708 100.703 13.4179C100.703 12.1277 100.481 11.0219 100.039 10.1004C99.5968 9.16043 98.9702 8.44165 98.1593 7.94403C97.3668 7.42798 96.4084 7.16995 95.2841 7.16995C94.1967 7.16995 93.2476 7.42798 92.4366 7.94403C91.6257 8.44165 90.9991 9.16043 90.5567 10.1004C90.1144 11.0219 89.8932 12.1277 89.8932 13.4179C89.8932 14.708 90.1144 15.823 90.5567 16.763C90.9991 17.6845 91.6257 18.4033 92.4366 18.9193C93.2476 19.4354 94.1967 19.6934 95.2841 19.6934Z" fill="#1B1B1B"/>
<path d="M107.836 22.8402V3.48828H116.102C117.447 3.48828 118.581 3.70023 119.502 4.12413C120.424 4.5296 121.124 5.11016 121.603 5.8658C122.101 6.60302 122.35 7.47846 122.35 8.49213C122.35 9.46894 122.138 10.2891 121.714 10.9526C121.29 11.6161 120.728 12.1229 120.028 12.4731C119.346 12.8233 118.59 13.0352 117.761 13.1089L118.203 12.7772C119.106 12.8141 119.899 13.0536 120.581 13.496C121.262 13.9383 121.797 14.5189 122.184 15.2376C122.589 15.938 122.792 16.7121 122.792 17.5599C122.792 18.6104 122.543 19.5319 122.046 20.3244C121.548 21.1169 120.82 21.7344 119.862 22.1767C118.903 22.619 117.742 22.8402 116.378 22.8402H107.836ZM111.983 19.4674H115.687C116.609 19.4674 117.318 19.2647 117.816 18.8592C118.332 18.4353 118.59 17.8271 118.59 17.0346C118.59 16.2421 118.323 15.6247 117.788 15.1824C117.272 14.74 116.554 14.5189 115.632 14.5189H111.983V19.4674ZM111.983 11.4502H115.383C116.268 11.4502 116.941 11.2475 117.401 10.842C117.88 10.4365 118.12 9.86519 118.12 9.12798C118.12 8.39076 117.88 7.81942 117.401 7.41395C116.941 6.99005 116.259 6.7781 115.356 6.7781H111.983V11.4502Z" fill="white"/>
<path d="M125.762 22.8402V3.48828H138.728V6.83339H129.909V11.3949H137.899V14.6018H129.909V19.4951H138.728V22.8402H125.762Z" fill="white"/>
<path d="M146.493 22.8402V6.83339H140.881V3.48828H156.252V6.83339H150.64V22.8402H146.493Z" fill="white"/>
</svg>
