<svg width="140" height="22" viewBox="0 0 140 22" fill="none" xmlns="http://www.w3.org/2000/svg">
<path d="M0.703125 20.9583V1.0803H4.40137V17.7224H9.52724V20.9583H0.703125Z" fill="white"/>
<path d="M25.5847 10.9921C25.5847 14.2825 24.9683 16.8114 23.7356 18.579C22.5028 20.3465 20.7398 21.2303 18.4465 21.2303C16.1442 21.2303 14.3766 20.351 13.1439 18.5926C11.9112 16.825 11.2948 14.2825 11.2948 10.9649C11.2948 7.67459 11.9112 5.15471 13.1439 3.40529C14.3766 1.64682 16.1533 0.767578 18.4737 0.767578C20.767 0.767578 22.5255 1.65135 23.7491 3.41889C24.9728 5.17737 25.5847 7.70178 25.5847 10.9921ZM15.0746 10.9921C15.0746 13.2582 15.3601 14.985 15.9312 16.1724C16.5022 17.3598 17.3407 17.9535 18.4465 17.9535C20.6763 17.9535 21.7913 15.6331 21.7913 10.9921C21.7913 6.3512 20.6854 4.03073 18.4737 4.03073C17.3497 4.03073 16.5022 4.62445 15.9312 5.81187C15.3601 6.99023 15.0746 8.71698 15.0746 10.9921Z" fill="white"/>
<path d="M42.1724 10.9921C42.1724 14.2825 41.556 16.8114 40.3233 18.579C39.0905 20.3465 37.3275 21.2303 35.0342 21.2303C32.7319 21.2303 30.9643 20.351 29.7316 18.5926C28.4989 16.825 27.8825 14.2825 27.8825 10.9649C27.8825 7.67459 28.4989 5.15471 29.7316 3.40529C30.9643 1.64682 32.741 0.767578 35.0614 0.767578C37.3547 0.767578 39.1132 1.65135 40.3368 3.41889C41.5605 5.17737 42.1724 7.70178 42.1724 10.9921ZM31.6623 10.9921C31.6623 13.2582 31.9478 14.985 32.5189 16.1724C33.0899 17.3598 33.9284 17.9535 35.0342 17.9535C37.264 17.9535 38.379 15.6331 38.379 10.9921C38.379 6.3512 37.2731 4.03073 35.0614 4.03073C33.9374 4.03073 33.0899 4.62445 32.5189 5.81187C31.9478 6.99023 31.6623 8.71698 31.6623 10.9921Z" fill="white"/>
<path d="M50.8061 20.9583H47.1215V4.32985H43.3145V1.0803H54.6131V4.32985H50.8061V20.9583Z" fill="white"/>
<path d="M67.1671 4.03073C66.1065 4.03073 65.2681 4.65164 64.6517 5.89345C64.0444 7.13526 63.7408 8.86201 63.7408 11.0737C63.7408 15.6784 64.9418 17.9807 67.3438 17.9807C68.3953 17.9807 69.4966 17.6453 70.6478 16.9746V20.2649C69.6779 20.9085 68.4361 21.2303 66.9223 21.2303C64.6834 21.2303 62.9612 20.342 61.7557 18.5654C60.5592 16.7797 59.9609 14.2734 59.9609 11.0465C59.9609 7.81962 60.5773 5.30427 61.8101 3.50047C63.0519 1.69667 64.7741 0.794771 66.9767 0.794771C67.7019 0.794771 68.3953 0.894479 69.057 1.09389C69.7277 1.29331 70.4438 1.64228 71.2052 2.14082L69.9815 5.14564C69.5736 4.86465 69.1386 4.61085 68.6763 4.38424C68.214 4.14857 67.7109 4.03073 67.1671 4.03073Z" fill="url(#paint0_linear_2841_3097)"/>
<path d="M82.871 20.9583L81.7289 15.9412H76.5486L75.4065 20.9583H71.7083L76.6302 0.998718H81.6473L86.5828 20.9583H82.871ZM81.0355 12.6645L79.9749 8.04169C79.9115 7.7607 79.7665 7.05821 79.5399 5.93424C79.3223 4.8012 79.1909 4.04433 79.1456 3.66363C79.0277 4.44316 78.8782 5.30427 78.6969 6.24696C78.5156 7.18058 78.0442 9.31976 77.2828 12.6645H81.0355Z" fill="url(#paint1_linear_2841_3097)"/>
<path d="M97.392 15.479C97.392 17.3372 96.9207 18.7602 95.978 19.7483C95.0444 20.7363 93.6938 21.2303 91.9262 21.2303C90.195 21.2303 88.722 20.8904 87.5074 20.2105V16.5531C88.9939 17.523 90.3581 18.0079 91.5999 18.0079C92.3069 18.0079 92.8372 17.813 93.1907 17.4233C93.5533 17.0335 93.7346 16.5032 93.7346 15.8325C93.7346 15.1708 93.5216 14.568 93.0955 14.0241C92.6695 13.4712 91.967 12.8594 90.9881 12.1886C90.136 11.5994 89.4879 11.0374 89.0438 10.5027C88.6087 9.9588 88.2688 9.35149 88.0241 8.68073C87.7884 8.00997 87.6706 7.23044 87.6706 6.34213C87.6706 4.63804 88.1419 3.28746 89.0846 2.29038C90.0363 1.29331 91.3099 0.794771 92.9052 0.794771C94.428 0.794771 95.8919 1.22079 97.2969 2.07284L96.0732 5.03687C95.6381 4.78307 95.1803 4.55646 94.6999 4.35705C94.2286 4.15763 93.721 4.05793 93.1771 4.05793C92.5789 4.05793 92.1166 4.25734 91.7903 4.65617C91.473 5.04594 91.3144 5.58073 91.3144 6.26055C91.3144 6.93131 91.5048 7.51596 91.8855 8.0145C92.2752 8.51304 92.9505 9.07956 93.9113 9.71406C95.2075 10.5842 96.1094 11.4725 96.617 12.379C97.1337 13.2854 97.392 14.3187 97.392 15.479Z" fill="url(#paint2_linear_2841_3097)"/>
<path d="M100.506 20.9583V1.0803H103.986V20.9583H100.506Z" fill="url(#paint3_linear_2841_3097)"/>
<path d="M122.11 20.9583H117.596L111.451 6.55968H111.274C111.501 7.65646 111.614 8.83482 111.614 10.0948V20.9583H108.188V1.0803H112.729L118.82 15.3294H118.97C118.797 14.3777 118.711 13.2446 118.711 11.9303V1.0803H122.11V20.9583Z" fill="url(#paint4_linear_2841_3097)"/>
<path d="M139.296 10.9921C139.296 14.2825 138.68 16.8114 137.447 18.579C136.214 20.3465 134.451 21.2303 132.158 21.2303C129.856 21.2303 128.088 20.351 126.856 18.5926C125.623 16.825 125.006 14.2825 125.006 10.9649C125.006 7.67459 125.623 5.15471 126.856 3.40529C128.088 1.64682 129.865 0.767578 132.185 0.767578C134.479 0.767578 136.237 1.65135 137.461 3.41889C138.685 5.17737 139.296 7.70178 139.296 10.9921ZM128.786 10.9921C128.786 13.2582 129.072 14.985 129.643 16.1724C130.214 17.3598 131.052 17.9535 132.158 17.9535C134.388 17.9535 135.503 15.6331 135.503 10.9921C135.503 6.3512 134.397 4.03073 132.185 4.03073C131.061 4.03073 130.214 4.62445 129.643 5.81187C129.072 6.99023 128.786 8.71698 128.786 10.9921Z" fill="url(#paint5_linear_2841_3097)"/>
<defs>
<linearGradient id="paint0_linear_2841_3097" x1="99.6287" y1="0.767578" x2="99.6287" y2="21.2303" gradientUnits="userSpaceOnUse">
<stop stop-color="#FADE7B"/>
<stop offset="0.649038" stop-color="#F4BF51"/>
</linearGradient>
<linearGradient id="paint1_linear_2841_3097" x1="99.6287" y1="0.767578" x2="99.6287" y2="21.2303" gradientUnits="userSpaceOnUse">
<stop stop-color="#FADE7B"/>
<stop offset="0.649038" stop-color="#F4BF51"/>
</linearGradient>
<linearGradient id="paint2_linear_2841_3097" x1="99.6287" y1="0.767578" x2="99.6287" y2="21.2303" gradientUnits="userSpaceOnUse">
<stop stop-color="#FADE7B"/>
<stop offset="0.649038" stop-color="#F4BF51"/>
</linearGradient>
<linearGradient id="paint3_linear_2841_3097" x1="99.6287" y1="0.767578" x2="99.6287" y2="21.2303" gradientUnits="userSpaceOnUse">
<stop stop-color="#FADE7B"/>
<stop offset="0.649038" stop-color="#F4BF51"/>
</linearGradient>
<linearGradient id="paint4_linear_2841_3097" x1="99.6287" y1="0.767578" x2="99.6287" y2="21.2303" gradientUnits="userSpaceOnUse">
<stop stop-color="#FADE7B"/>
<stop offset="0.649038" stop-color="#F4BF51"/>
</linearGradient>
<linearGradient id="paint5_linear_2841_3097" x1="99.6287" y1="0.767578" x2="99.6287" y2="21.2303" gradientUnits="userSpaceOnUse">
<stop stop-color="#FADE7B"/>
<stop offset="0.649038" stop-color="#F4BF51"/>
</linearGradient>
</defs>
</svg>
