<svg width="71" height="26" viewBox="0 0 71 26" fill="none" xmlns="http://www.w3.org/2000/svg">
<path d="M8.62071 14.1384V13.4123C9.0924 13.3626 9.37169 13.2695 9.45858 13.133C9.55788 12.9964 9.52064 12.7109 9.34686 12.2765L8.509 10.1167C8.28557 9.54566 8.05593 9.0988 7.82008 8.77607C7.59665 8.45333 7.33598 8.2237 7.03808 8.08715C6.74017 7.95061 6.37399 7.88234 5.93954 7.88234H4.72929V7.15619H5.97678C6.27469 7.15619 6.54156 7.11895 6.77741 7.04448C7.01325 6.97 7.24289 6.84587 7.46632 6.67209C7.70216 6.4859 7.94421 6.24385 8.19247 5.94594L9.10481 4.86602C9.60133 4.28262 9.90544 3.76128 10.0172 3.30201C10.1289 2.83032 10.0544 2.45173 9.79373 2.16623C9.54547 1.86833 9.11102 1.70075 8.49038 1.66351V0.955982C8.96206 0.968395 9.44617 0.980807 9.94268 0.99322C10.4392 1.00563 10.9419 1.01184 11.4508 1.01184C11.7984 1.01184 12.1646 1.00563 12.5494 0.99322C12.9466 0.980807 13.5238 0.968395 14.281 0.955982V1.66351C13.7845 1.78764 13.35 1.9428 12.9776 2.12899C12.6052 2.31519 12.2515 2.55103 11.9163 2.83653C11.5936 3.12202 11.2336 3.48199 10.8364 3.91644L8.36004 6.89552L8.54624 6.22523C9.16688 6.32453 9.69442 6.50452 10.1289 6.76519C10.5757 7.01344 10.9729 7.36721 11.3205 7.82648C11.6681 8.28576 11.9846 8.9002 12.2701 9.66979L13.0707 11.7365C13.2073 12.0717 13.35 12.351 13.499 12.5744C13.6603 12.7854 13.8527 12.9592 14.0762 13.0957C14.2996 13.2199 14.5727 13.3254 14.8954 13.4123V14.1384C14.3741 14.126 13.9334 14.1198 13.5734 14.1198C13.2259 14.1074 12.9156 14.1012 12.6425 14.1012C12.3694 14.0888 12.0901 14.0826 11.8046 14.0826C11.2336 14.0826 10.6688 14.0888 10.1103 14.1012C9.55167 14.1136 9.05516 14.126 8.62071 14.1384ZM0 14.1384V13.4123C0.508926 13.3874 0.887518 13.3378 1.13577 13.2633C1.39644 13.1764 1.56402 13.0275 1.63849 12.8164C1.72538 12.593 1.76883 12.2579 1.76883 11.811V3.28339C1.76883 2.83653 1.72538 2.50759 1.63849 2.29657C1.5516 2.07314 1.38403 1.91798 1.13577 1.83109C0.887518 1.7442 0.508926 1.69455 0 1.68213V0.955982C0.322734 0.968395 0.800628 0.980807 1.43368 0.99322C2.07915 1.00563 2.83633 1.01184 3.70523 1.01184C4.49965 1.01184 5.19477 1.00563 5.79059 0.99322C6.39882 0.980807 6.87671 0.968395 7.22427 0.955982V1.68213C6.74017 1.69455 6.37399 1.7442 6.12573 1.83109C5.88989 1.90556 5.73473 2.05452 5.66025 2.27795C5.58578 2.50138 5.54854 2.83653 5.54854 3.28339V11.811C5.54854 12.2455 5.58578 12.5744 5.66025 12.7978C5.73473 13.0213 5.88989 13.1764 6.12573 13.2633C6.36158 13.3378 6.71534 13.3874 7.18703 13.4123V14.1384C6.85188 14.1136 6.3864 14.1012 5.79059 14.1012C5.19477 14.0888 4.49965 14.0826 3.70523 14.0826C2.83633 14.0826 2.07915 14.0888 1.43368 14.1012C0.800628 14.1012 0.322734 14.1136 0 14.1384Z" fill="url(#paint0_linear_7164_26495)"/>
<path d="M21.1635 10.4332L16.7322 3.07858C16.4218 2.56965 16.1115 2.21588 15.8012 2.01728C15.4909 1.81867 15.0813 1.70696 14.5723 1.68213V0.955982C15.2054 0.968395 15.826 0.980807 16.4343 0.99322C17.0425 1.00563 17.6693 1.01184 18.3148 1.01184C19.1216 1.01184 19.8602 1.00563 20.5305 0.99322C21.2132 0.980807 21.7904 0.968395 22.2621 0.955982V1.68213C21.5545 1.69455 21.1015 1.83109 20.9029 2.09176C20.7167 2.35243 20.7787 2.74343 21.0891 3.26477L23.7516 7.65891L22.951 8.18025L24.8129 4.86602C25.3467 3.88541 25.5142 3.11581 25.3156 2.55724C25.117 1.99866 24.5647 1.70696 23.6585 1.68213V0.955982C24.1302 0.968395 24.5957 0.980807 25.055 0.99322C25.5267 1.00563 26.0542 1.01184 26.6376 1.01184C27.1217 1.01184 27.5437 1.00563 27.9037 0.99322C28.2637 0.980807 28.5864 0.968395 28.8719 0.955982V1.68213C28.425 1.76902 28.0403 1.91177 27.7175 2.11038C27.3948 2.29657 27.0907 2.55724 26.8052 2.89238C26.5321 3.22753 26.2466 3.66819 25.9487 4.21435L22.5041 10.4332H21.1635ZM17.6817 14.1384V13.4123C18.4017 13.4123 18.9354 13.375 19.283 13.3005C19.643 13.2137 19.885 13.0523 20.0091 12.8164C20.1333 12.5682 20.1953 12.1896 20.1953 11.6807V8.34782L22.2807 9.50222L23.975 6.8769V11.6807C23.975 12.1896 24.0371 12.5682 24.1612 12.8164C24.2854 13.0523 24.5274 13.2137 24.8874 13.3005C25.2474 13.375 25.7811 13.4123 26.4886 13.4123V14.1384C26.017 14.126 25.3901 14.1136 24.6081 14.1012C23.8261 14.0888 23.0068 14.0826 22.1504 14.0826C21.2442 14.0826 20.3939 14.0888 19.5995 14.1012C18.8175 14.1136 18.1783 14.126 17.6817 14.1384Z" fill="url(#paint1_linear_7164_26495)"/>
<path d="M40.9077 14.2687L32.138 3.07858H31.9146V10.8614C31.9146 11.5069 31.958 12.0096 32.0449 12.3696C32.1318 12.7171 32.3242 12.9654 32.6221 13.1144C32.9324 13.2633 33.4103 13.3626 34.0558 13.4123V14.1384C33.8075 14.1136 33.46 14.1012 33.0131 14.1012C32.5662 14.0888 32.107 14.0826 31.6353 14.0826C31.176 14.0826 30.7478 14.0888 30.3505 14.1012C29.9657 14.1012 29.6492 14.1136 29.401 14.1384V13.4123C29.9099 13.3626 30.2885 13.2633 30.5367 13.1144C30.785 12.9654 30.9526 12.7233 31.0395 12.3882C31.1263 12.0531 31.1698 11.6 31.1698 11.029V3.28339C31.1698 2.82411 31.1263 2.48897 31.0395 2.27795C30.965 2.06693 30.8036 1.91798 30.5554 1.83109C30.3071 1.7442 29.9223 1.69455 29.401 1.68213V0.955982C29.674 0.968395 30.0402 0.980807 30.4995 0.99322C30.9712 1.00563 31.4677 1.01184 31.989 1.01184C32.5973 1.01184 33.162 1.00563 33.6834 0.99322C34.2047 0.980807 34.6826 0.968395 35.1171 0.955982L40.6842 8.01268H40.9077V4.23297C40.9077 3.5875 40.8642 3.09099 40.7773 2.74343C40.6904 2.38346 40.4918 2.12899 40.1815 1.98004C39.8836 1.81867 39.4119 1.71937 38.7664 1.68213V0.955982C39.0147 0.968395 39.3623 0.980807 39.8091 0.99322C40.256 1.00563 40.7091 1.01184 41.1683 1.01184C41.6276 1.01184 42.0558 1.00563 42.4531 0.99322C42.8627 0.980807 43.1854 0.968395 43.4213 0.955982V1.68213C42.9123 1.71937 42.5337 1.81867 42.2855 1.98004C42.0372 2.12899 41.8697 2.37104 41.7828 2.70619C41.6959 3.02892 41.6524 3.48199 41.6524 4.0654V14.2687H40.9077Z" fill="url(#paint2_linear_7164_26495)"/>
<path d="M51.4003 14.3991C50.0473 14.3991 48.8619 14.126 47.8441 13.5798C46.8386 13.0213 46.0628 12.2392 45.5166 11.2338C44.9705 10.2284 44.6974 9.04294 44.6974 7.67753C44.6974 6.26247 44.9829 5.0336 45.5539 3.99092C46.1373 2.94824 46.9565 2.14141 48.0116 1.57042C49.0667 0.987014 50.3018 0.695312 51.7169 0.695312C52.4244 0.695312 53.0264 0.757377 53.5229 0.881505C54.0319 0.99322 54.4601 1.13597 54.8077 1.30975C55.1552 1.47111 55.4469 1.61386 55.6828 1.73799C55.931 1.84971 56.1482 1.90556 56.3344 1.90556C56.533 1.90556 56.6882 1.81867 56.7999 1.64489C56.9116 1.47111 56.9923 1.18562 57.042 0.788409H57.7867C57.7619 1.27251 57.7433 1.7504 57.7309 2.22209C57.7309 2.68137 57.7247 3.2027 57.7123 3.78611C57.7123 4.36951 57.7123 5.07704 57.7123 5.9087H56.9675C56.8806 5.0398 56.6448 4.28883 56.26 3.65577C55.8876 3.02272 55.4035 2.53241 54.8077 2.18485C54.2118 1.83729 53.5229 1.66351 52.7409 1.66351C51.872 1.66351 51.1273 1.89936 50.5066 2.37104C49.886 2.84273 49.4143 3.53164 49.0915 4.43778C48.7688 5.33151 48.6074 6.43004 48.6074 7.73339C48.6074 9.57049 48.9302 11.0104 49.5756 12.0531C50.2211 13.0833 51.121 13.5985 52.2754 13.5985C52.6478 13.5985 52.9519 13.5488 53.1878 13.4495C53.436 13.3502 53.6222 13.2074 53.7464 13.0213C53.8705 12.8226 53.9326 12.5806 53.9326 12.2951V10.1911C53.9326 9.74427 53.8891 9.40912 53.8022 9.18569C53.7153 8.94985 53.5478 8.78848 53.2995 8.70159C53.0637 8.60229 52.7037 8.54022 52.2196 8.5154V7.80786C52.4802 7.82028 52.8899 7.83269 53.4484 7.8451C54.0194 7.85752 54.727 7.86372 55.571 7.86372C56.3406 7.86372 56.9923 7.85752 57.5261 7.8451C58.0598 7.83269 58.4756 7.82028 58.7736 7.80786V8.5154C58.4756 8.54022 58.246 8.59608 58.0846 8.68297C57.9357 8.76986 57.8364 8.92502 57.7867 9.14845C57.7371 9.35947 57.7123 9.6822 57.7123 10.1167V14.2501H56.9675C56.9178 13.8777 56.8309 13.6171 56.7068 13.4681C56.5827 13.3067 56.4027 13.2261 56.1669 13.2261C55.931 13.2261 55.6766 13.2819 55.4035 13.3936C55.1304 13.5054 54.8139 13.6419 54.4539 13.8033C54.0939 13.9646 53.6657 14.1012 53.1692 14.2129C52.6726 14.337 52.083 14.3991 51.4003 14.3991Z" fill="url(#paint3_linear_7164_26495)"/>
<path d="M65.9542 14.3991C65.197 14.3991 64.5639 14.3246 64.055 14.1756C63.5585 14.0391 63.1489 13.9026 62.8261 13.766C62.5158 13.6171 62.2614 13.5426 62.0628 13.5426C61.9014 13.5426 61.7711 13.6047 61.6718 13.7288C61.5849 13.8405 61.5166 14.0329 61.4669 14.306H60.7222C60.747 13.9584 60.7594 13.5612 60.7594 13.1144C60.7718 12.6675 60.778 12.1027 60.778 11.42C60.7904 10.7373 60.7967 9.86839 60.7967 8.8133H61.5414C61.74 10.3773 62.1869 11.5627 62.882 12.3696C63.5771 13.164 64.5081 13.5612 65.6749 13.5612C66.3824 13.5612 66.9348 13.4061 67.332 13.0957C67.7416 12.773 67.9464 12.3323 67.9464 11.7738C67.9464 11.3766 67.8347 11.0228 67.6113 10.7125C67.3879 10.3897 67.0279 10.0856 66.5314 9.80013C66.0473 9.51463 65.408 9.21672 64.6136 8.9064C63.7323 8.57125 63.0123 8.19887 62.4538 7.78925C61.9076 7.36721 61.498 6.89552 61.2249 6.37418C60.9642 5.84043 60.8339 5.24462 60.8339 4.58674C60.8339 3.79231 61.0201 3.10961 61.3925 2.53862C61.7649 1.95521 62.2924 1.50215 62.9751 1.17941C63.6702 0.856679 64.4771 0.695312 65.3956 0.695312C66.0907 0.695312 66.6617 0.769789 67.1086 0.918743C67.5679 1.0677 67.9464 1.21665 68.2443 1.3656C68.5423 1.50215 68.7905 1.57042 68.9891 1.57042C69.1505 1.57042 69.2746 1.51456 69.3615 1.40284C69.4608 1.27872 69.5353 1.0739 69.5849 0.788409H70.3297C70.3049 1.08632 70.2801 1.41526 70.2552 1.77523C70.2428 2.1352 70.2304 2.60689 70.218 3.19029C70.218 3.76128 70.218 4.52467 70.218 5.48046H69.4732C69.2994 4.264 68.865 3.2958 68.1699 2.57586C67.4872 1.85591 66.6617 1.49594 65.6935 1.49594C65.0977 1.49594 64.6322 1.64489 64.2971 1.9428C63.9619 2.2283 63.7944 2.63171 63.7944 3.15305C63.7944 3.52544 63.8937 3.85438 64.0923 4.13987C64.2909 4.41296 64.6446 4.68604 65.1536 4.95912C65.6625 5.2322 66.3576 5.54252 67.2389 5.89008C68.5547 6.39901 69.5105 7.01344 70.1063 7.73339C70.7021 8.44092 71 9.2912 71 10.2842C71 11.5627 70.5469 12.5682 69.6408 13.3005C68.7347 14.0329 67.5058 14.3991 65.9542 14.3991Z" fill="url(#paint4_linear_7164_26495)"/>
<path d="M3.82707 25.3083C3.13195 25.3083 2.5262 25.1825 2.00983 24.931C1.50008 24.6794 1.10618 24.3219 0.828128 23.8585C0.550081 23.3951 0.411057 22.8489 0.411057 22.22C0.411057 21.5778 0.553391 21.0151 0.838059 20.5318C1.12935 20.0486 1.52987 19.6712 2.03962 19.3998C2.55599 19.1284 3.15181 18.9927 3.82707 18.9927C4.18456 18.9927 4.48909 19.0258 4.74065 19.092C4.99884 19.1515 5.214 19.2277 5.38612 19.3204C5.56487 19.4064 5.71382 19.4825 5.83298 19.5487C5.95215 19.6083 6.05476 19.6381 6.14082 19.6381C6.24012 19.6381 6.31957 19.5885 6.37915 19.4892C6.44535 19.3899 6.48838 19.2409 6.50824 19.0423H6.90545C6.89883 19.1946 6.89221 19.3667 6.88559 19.5587C6.87897 19.7507 6.87235 19.9956 6.86573 20.2935C6.86573 20.5848 6.86573 20.9622 6.86573 21.4256H6.46852C6.3295 20.79 6.07793 20.3034 5.71382 19.9658C5.34971 19.6282 4.90616 19.4594 4.38316 19.4594C3.76749 19.4594 3.2809 19.701 2.92341 20.1843C2.57255 20.6609 2.39711 21.3263 2.39711 22.1803C2.39711 22.743 2.47655 23.2263 2.63544 23.6301C2.79432 24.0273 3.02272 24.3318 3.32063 24.5437C3.62515 24.7555 3.98926 24.8614 4.41295 24.8614C4.95581 24.8614 5.39936 24.6893 5.74361 24.3451C6.08786 24.0008 6.3295 23.4778 6.46852 22.7761H6.86573C6.86573 23.2594 6.86573 23.6566 6.86573 23.9677C6.87235 24.2722 6.87897 24.5271 6.88559 24.7323C6.89221 24.931 6.89883 25.1064 6.90545 25.2587H6.50824C6.48176 25.0468 6.43873 24.8979 6.37915 24.8118C6.32619 24.7191 6.25005 24.6728 6.15075 24.6728C6.04483 24.6728 5.9356 24.7059 5.82305 24.7721C5.71051 24.8316 5.57149 24.9045 5.40598 24.9905C5.24048 25.0766 5.03194 25.1494 4.78037 25.209C4.52881 25.2752 4.21104 25.3083 3.82707 25.3083Z" fill="url(#paint5_linear_7164_26495)"/>
<path d="M13.1733 25.1693V24.782C13.3984 24.7357 13.5904 24.6562 13.7492 24.5437C13.9147 24.4311 14.0703 24.2689 14.216 24.0571C14.3616 23.8452 14.5172 23.5639 14.6827 23.213L16.6389 19.0622H17.1454L19.6776 23.8585C19.8497 24.1829 20.0185 24.4146 20.184 24.5536C20.3562 24.686 20.5746 24.7621 20.8394 24.782V25.1693C20.6011 25.156 20.3032 25.1494 19.9457 25.1494C19.5949 25.1428 19.1844 25.1395 18.7144 25.1395C18.4297 25.1395 18.1682 25.1428 17.9299 25.1494C17.6982 25.1494 17.4929 25.1527 17.3142 25.1593C17.1421 25.1593 17.0031 25.1627 16.8971 25.1693V24.782C17.1619 24.7754 17.3639 24.739 17.5029 24.6728C17.6419 24.5999 17.7147 24.494 17.7213 24.355C17.7346 24.216 17.6816 24.0372 17.5625 23.8188L16.0034 20.8595L16.2715 20.7007L15.2884 22.786C15.0832 23.2097 14.974 23.5705 14.9607 23.8684C14.9475 24.1597 15.0203 24.3815 15.1792 24.5337C15.3381 24.686 15.583 24.7688 15.914 24.782V25.1693C15.6558 25.1627 15.4374 25.1593 15.2586 25.1593C15.0799 25.1527 14.921 25.1494 14.782 25.1494C14.6496 25.1428 14.5106 25.1395 14.3649 25.1395C14.1266 25.1395 13.9114 25.1428 13.7194 25.1494C13.5275 25.1494 13.3454 25.156 13.1733 25.1693ZM14.8813 23.2428L15.06 22.8555H17.8703L18.049 23.2428H14.8813Z" fill="url(#paint6_linear_7164_26495)"/>
<path d="M30.1026 25.3083C29.679 25.3083 29.3248 25.2686 29.0401 25.1891C28.7554 25.1163 28.5204 25.0435 28.3351 24.9707C28.1497 24.8979 27.9908 24.8614 27.8584 24.8614C27.7657 24.8614 27.6929 24.8912 27.6399 24.9508C27.5936 25.0104 27.5572 25.113 27.5307 25.2587H27.1335C27.1467 25.0865 27.1534 24.8979 27.1534 24.6926C27.16 24.4808 27.1633 24.2226 27.1633 23.9181C27.1699 23.6069 27.1732 23.213 27.1732 22.7364H27.5704C27.7624 23.4844 28.0305 24.0306 28.3748 24.3749C28.7257 24.7125 29.1957 24.8813 29.7849 24.8813C30.1424 24.8813 30.4105 24.8151 30.5892 24.6827C30.768 24.5503 30.8573 24.3616 30.8573 24.1167C30.8573 23.8783 30.7349 23.6665 30.4899 23.4811C30.2516 23.2958 29.8345 23.0972 29.2387 22.8853C28.537 22.6338 28.0239 22.3425 27.6995 22.0115C27.3818 21.6738 27.2229 21.2667 27.2229 20.79C27.2229 20.2406 27.4281 19.8036 27.8385 19.4792C28.249 19.1548 28.8117 18.9927 29.5267 18.9927C29.9305 18.9927 30.2582 19.0324 30.5098 19.1118C30.7614 19.1913 30.9699 19.2707 31.1354 19.3501C31.3009 19.423 31.4465 19.4594 31.5723 19.4594C31.6716 19.4594 31.7445 19.4296 31.7908 19.37C31.8438 19.3104 31.8835 19.2012 31.91 19.0423H32.3072C32.2939 19.1946 32.284 19.3601 32.2774 19.5388C32.2708 19.7109 32.2641 19.9294 32.2575 20.1942C32.2575 20.4524 32.2575 20.7933 32.2575 21.217H31.8603C31.7676 20.8397 31.6253 20.5153 31.4333 20.2439C31.2479 19.9724 31.0195 19.7672 30.7481 19.6282C30.4767 19.4825 30.1755 19.4097 29.8445 19.4097C29.5267 19.4097 29.2817 19.4693 29.1096 19.5885C28.9375 19.7076 28.8514 19.8798 28.8514 20.1048C28.8514 20.2703 28.9044 20.4193 29.0103 20.5517C29.1162 20.6841 29.2983 20.8132 29.5565 20.939C29.8147 21.0648 30.1722 21.2104 30.629 21.3759C31.1056 21.5414 31.4896 21.7235 31.7809 21.9221C32.0788 22.1141 32.2939 22.3325 32.4263 22.5775C32.5654 22.8158 32.6349 23.0972 32.6349 23.4216C32.6349 24.0041 32.4098 24.4642 31.9596 24.8019C31.5161 25.1395 30.8971 25.3083 30.1026 25.3083Z" fill="url(#paint7_linear_7164_26495)"/>
<path d="M39.2887 25.1693V24.782C39.5667 24.7688 39.7719 24.7423 39.9043 24.7026C40.0434 24.6628 40.1327 24.5834 40.1725 24.4642C40.2122 24.3451 40.232 24.1663 40.232 23.928V20.373C40.232 20.128 40.2089 19.9493 40.1625 19.8367C40.1228 19.7176 40.0367 19.6381 39.9043 19.5984C39.7719 19.5521 39.5667 19.5256 39.2887 19.519V19.1317C39.4542 19.1383 39.6991 19.1449 40.0235 19.1515C40.3479 19.1582 40.7385 19.1615 41.1953 19.1615C41.6388 19.1615 42.0228 19.1582 42.3472 19.1515C42.6716 19.1449 42.9198 19.1383 43.0919 19.1317V19.519C42.8139 19.5256 42.6087 19.5521 42.4763 19.5984C42.3439 19.6381 42.2545 19.7176 42.2082 19.8367C42.1684 19.9493 42.1486 20.128 42.1486 20.373V23.928C42.1486 24.1663 42.1684 24.3451 42.2082 24.4642C42.2545 24.5834 42.3439 24.6628 42.4763 24.7026C42.6087 24.7423 42.8139 24.7688 43.0919 24.782V25.1693C42.9132 25.1627 42.6616 25.156 42.3372 25.1494C42.0195 25.1428 41.6388 25.1395 41.1953 25.1395C40.7385 25.1395 40.3479 25.1428 40.0235 25.1494C39.7057 25.156 39.4608 25.1627 39.2887 25.1693Z" fill="url(#paint8_linear_7164_26495)"/>
<path d="M55.479 25.2388L51.06 20.1148H50.9409V23.4216C50.9409 23.7658 50.964 24.0339 51.0104 24.2259C51.0567 24.4113 51.1593 24.5437 51.3182 24.6231C51.4837 24.7026 51.7386 24.7555 52.0828 24.782V25.1693C51.9504 25.156 51.7651 25.1494 51.5267 25.1494C51.295 25.1428 51.0534 25.1395 50.8018 25.1395C50.5503 25.1395 50.3186 25.1428 50.1067 25.1494C49.9015 25.1494 49.7327 25.156 49.6003 25.1693V24.782C49.8717 24.7555 50.0736 24.7026 50.206 24.6231C50.345 24.5437 50.4344 24.4146 50.4741 24.2358C50.5205 24.0571 50.5437 23.8155 50.5437 23.5109V20.373C50.5437 20.128 50.5205 19.9493 50.4741 19.8367C50.4344 19.7242 50.3484 19.6447 50.216 19.5984C50.0835 19.5521 49.8783 19.5256 49.6003 19.519V19.1317C49.7525 19.1383 49.9511 19.1449 50.1961 19.1515C50.441 19.1582 50.7058 19.1615 50.9905 19.1615C51.3083 19.1615 51.6062 19.1582 51.8842 19.1515C52.1689 19.1449 52.4271 19.1383 52.6588 19.1317L55.3598 22.2696H55.479V20.8794C55.479 20.5352 55.4558 20.2703 55.4095 20.085C55.3631 19.893 55.2572 19.7573 55.0917 19.6778C54.9328 19.5918 54.6813 19.5388 54.337 19.519V19.1317C54.4694 19.1383 54.6548 19.1449 54.8931 19.1515C55.1314 19.1582 55.3731 19.1615 55.618 19.1615C55.863 19.1615 56.0914 19.1582 56.3032 19.1515C56.5151 19.1449 56.6872 19.1383 56.8196 19.1317V19.519C56.5482 19.5388 56.3462 19.5918 56.2138 19.6778C56.0814 19.7573 55.9921 19.8864 55.9457 20.0651C55.8994 20.2372 55.8762 20.4789 55.8762 20.79V25.2388H55.479Z" fill="url(#paint9_linear_7164_26495)"/>
<path d="M67.0184 25.3083C66.2703 25.3083 65.6149 25.1759 65.0522 24.9111C64.4895 24.6463 64.0526 24.2756 63.7414 23.7989C63.4369 23.3223 63.2846 22.7728 63.2846 22.1505C63.2846 21.5216 63.4369 20.9721 63.7414 20.5021C64.0459 20.032 64.4763 19.6646 65.0323 19.3998C65.5951 19.1284 66.2505 18.9927 66.9985 18.9927C67.7599 18.9927 68.4186 19.1251 68.9747 19.3899C69.5308 19.6547 69.9611 20.0254 70.2656 20.5021C70.5768 20.9721 70.7323 21.5216 70.7323 22.1505C70.7323 22.7728 70.5801 23.3223 70.2755 23.7989C69.971 24.2756 69.5407 24.6463 68.9846 24.9111C68.4285 25.1759 67.7731 25.3083 67.0184 25.3083ZM67.0283 24.9409C67.3593 24.9409 67.6539 24.8283 67.9121 24.6033C68.1703 24.3715 68.3722 24.0472 68.5179 23.6301C68.6701 23.213 68.7463 22.7198 68.7463 22.1505C68.7463 21.5811 68.6668 21.0879 68.5079 20.6709C68.3557 20.2538 68.1471 19.9327 67.8823 19.7076C67.6241 19.4759 67.3296 19.3601 66.9985 19.3601C66.6675 19.3601 66.3696 19.4759 66.1048 19.7076C65.8466 19.9327 65.6414 20.2538 65.4891 20.6709C65.3435 21.0879 65.2707 21.5811 65.2707 22.1505C65.2707 22.7198 65.3468 23.213 65.4991 23.6301C65.6513 24.0472 65.8599 24.3715 66.1247 24.6033C66.3961 24.8283 66.6973 24.9409 67.0283 24.9409Z" fill="url(#paint10_linear_7164_26495)"/>
<defs>
<linearGradient id="paint0_linear_7164_26495" x1="35.5" y1="0.695312" x2="35.5" y2="25.3083" gradientUnits="userSpaceOnUse">
<stop stop-color="#F4E0C0"/>
<stop offset="1" stop-color="#C9A46B"/>
</linearGradient>
<linearGradient id="paint1_linear_7164_26495" x1="35.5" y1="0.695312" x2="35.5" y2="25.3083" gradientUnits="userSpaceOnUse">
<stop stop-color="#F4E0C0"/>
<stop offset="1" stop-color="#C9A46B"/>
</linearGradient>
<linearGradient id="paint2_linear_7164_26495" x1="35.5" y1="0.695312" x2="35.5" y2="25.3083" gradientUnits="userSpaceOnUse">
<stop stop-color="#F4E0C0"/>
<stop offset="1" stop-color="#C9A46B"/>
</linearGradient>
<linearGradient id="paint3_linear_7164_26495" x1="35.5" y1="0.695312" x2="35.5" y2="25.3083" gradientUnits="userSpaceOnUse">
<stop stop-color="#F4E0C0"/>
<stop offset="1" stop-color="#C9A46B"/>
</linearGradient>
<linearGradient id="paint4_linear_7164_26495" x1="35.5" y1="0.695312" x2="35.5" y2="25.3083" gradientUnits="userSpaceOnUse">
<stop stop-color="#F4E0C0"/>
<stop offset="1" stop-color="#C9A46B"/>
</linearGradient>
<linearGradient id="paint5_linear_7164_26495" x1="35.5" y1="0.695312" x2="35.5" y2="25.3083" gradientUnits="userSpaceOnUse">
<stop stop-color="#F4E0C0"/>
<stop offset="1" stop-color="#C9A46B"/>
</linearGradient>
<linearGradient id="paint6_linear_7164_26495" x1="35.5" y1="0.695312" x2="35.5" y2="25.3083" gradientUnits="userSpaceOnUse">
<stop stop-color="#F4E0C0"/>
<stop offset="1" stop-color="#C9A46B"/>
</linearGradient>
<linearGradient id="paint7_linear_7164_26495" x1="35.5" y1="0.695312" x2="35.5" y2="25.3083" gradientUnits="userSpaceOnUse">
<stop stop-color="#F4E0C0"/>
<stop offset="1" stop-color="#C9A46B"/>
</linearGradient>
<linearGradient id="paint8_linear_7164_26495" x1="35.5" y1="0.695312" x2="35.5" y2="25.3083" gradientUnits="userSpaceOnUse">
<stop stop-color="#F4E0C0"/>
<stop offset="1" stop-color="#C9A46B"/>
</linearGradient>
<linearGradient id="paint9_linear_7164_26495" x1="35.5" y1="0.695312" x2="35.5" y2="25.3083" gradientUnits="userSpaceOnUse">
<stop stop-color="#F4E0C0"/>
<stop offset="1" stop-color="#C9A46B"/>
</linearGradient>
<linearGradient id="paint10_linear_7164_26495" x1="35.5" y1="0.695312" x2="35.5" y2="25.3083" gradientUnits="userSpaceOnUse">
<stop stop-color="#F4E0C0"/>
<stop offset="1" stop-color="#C9A46B"/>
</linearGradient>
</defs>
</svg>
