<svg width="168" height="32" viewBox="0 0 168 32" fill="none" xmlns="http://www.w3.org/2000/svg">
<path d="M75.9847 1.70703C79.8386 1.70703 82.7969 2.92834 84.8596 5.37097L80.5036 9.56414C79.8251 8.96705 79.133 8.51924 78.4273 8.22069C77.7217 7.89501 76.9346 7.73217 76.0661 7.73217C74.4649 7.73217 73.1621 8.39711 72.1579 9.72698C71.1809 11.0297 70.4752 12.6038 70.041 14.4494C69.6339 16.2949 69.4303 18.0455 69.4303 19.701C69.4303 23.4735 70.8281 25.3598 73.6235 25.3598C74.5191 25.3598 75.3741 25.1562 76.1883 24.7491C77.0296 24.342 77.966 23.7585 78.9973 22.9986L82.0913 27.7617C80.7885 28.9287 79.2958 29.8786 77.6131 30.6114C75.9576 31.3171 74.1392 31.6699 72.1579 31.6699C69.9053 31.6699 67.9376 31.2221 66.2549 30.3264C64.5722 29.4037 63.2559 28.0602 62.306 26.2961C61.3833 24.532 60.9219 22.3879 60.9219 19.8639C60.9219 16.9599 61.4375 14.1237 62.4689 11.3554C63.5002 8.58709 65.1422 6.29374 67.3948 4.47534C69.6475 2.6298 72.5108 1.70703 75.9847 1.70703Z" fill="url(#paint0_linear_8831_130466)"/>
<path d="M94.1222 7.61004L91.7202 24.8305H100.717L99.0481 30.8557H83.0082L86.265 7.61004H94.1222Z" fill="url(#paint1_linear_8831_130466)"/>
<path d="M114.1 30.8557L113.937 26.7439H108.889L107.586 30.8557H99.322L109.459 7.61004H118.782L122.364 30.8557H114.1ZM110.599 21.248H113.693L113.326 12.536L110.599 21.248Z" fill="url(#paint2_linear_8831_130466)"/>
<path d="M135.661 6.95867C137.452 6.95867 139.108 7.25722 140.628 7.8543C142.148 8.45139 143.491 9.27916 144.658 10.3376L140.709 14.2865C139.922 13.7166 139.081 13.2824 138.185 12.9838C137.317 12.6853 136.502 12.536 135.742 12.536C134.928 12.536 134.304 12.6581 133.87 12.9024C133.463 13.1195 133.259 13.4452 133.259 13.8794C133.259 14.2594 133.476 14.5851 133.911 14.8565C134.345 15.1008 135.295 15.4943 136.76 16.0371C138.904 16.7427 140.492 17.7198 141.523 18.9682C142.555 20.1896 143.07 21.6144 143.07 23.2428C143.07 24.6813 142.69 26.0383 141.93 27.3139C141.198 28.5623 139.99 29.5937 138.307 30.4079C136.625 31.1949 134.453 31.5885 131.794 31.5885C129.622 31.5885 127.682 31.2356 125.972 30.53C124.289 29.8243 122.892 28.9287 121.779 27.8431L125.931 23.5278C126.718 24.2606 127.614 24.8305 128.618 25.2376C129.649 25.6447 130.694 25.8483 131.753 25.8483C132.73 25.8483 133.449 25.7126 133.911 25.4412C134.399 25.1426 134.643 24.7898 134.643 24.3827C134.643 23.8399 134.426 23.3921 133.992 23.0393C133.558 22.6865 132.757 22.3201 131.59 21.9401C129.12 21.1802 127.383 20.2167 126.379 19.0497C125.375 17.8826 124.873 16.5392 124.873 15.0193C124.873 13.5266 125.28 12.1696 126.094 10.9483C126.908 9.72698 128.116 8.7635 129.717 8.05785C131.346 7.32507 133.327 6.95867 135.661 6.95867Z" fill="url(#paint3_linear_8831_130466)"/>
<path d="M168.004 7.61004L164.747 30.8557H156.849L158.111 21.8994H153.552L152.29 30.8557H144.392L147.649 7.61004H155.547L154.407 15.7928H158.966L160.106 7.61004H168.004Z" fill="url(#paint4_linear_8831_130466)"/>
<path d="M18.885 15.8745C20.5677 16.2002 21.9112 16.8108 22.9154 17.7065C23.9196 18.6021 24.4217 19.9862 24.4217 21.8589C24.4217 24.5729 23.3225 26.7577 21.1241 28.4133C18.9529 30.0417 15.3975 30.8559 10.458 30.8559H0.6875L4.63641 2.52148H13.2263C17.0531 2.52148 19.9707 3.02358 21.979 4.02777C24.0146 5.03196 25.0323 6.71466 25.0323 9.07586C25.0323 10.9757 24.4488 12.4684 23.2818 13.554C22.1147 14.6396 20.6492 15.4131 18.885 15.8745ZM12.6971 13.4726C14.2441 13.4726 15.2618 13.1605 15.7503 12.5362C16.266 11.8849 16.5238 11.0842 16.5238 10.1343C16.5238 9.48296 16.266 9.00801 15.7503 8.70947C15.2618 8.41092 14.434 8.26165 13.267 8.26165H12.005L11.2722 13.4726H12.6971ZM11.2722 24.9529C13.0906 24.9529 14.3255 24.6272 14.9768 23.9759C15.6554 23.2974 15.9946 22.3474 15.9946 21.1261C15.9946 19.552 14.8411 18.7649 12.5342 18.7649H10.5394L9.6845 24.9529H11.2722Z" fill="url(#paint5_linear_8831_130466)"/>
<path d="M36.6898 7.61028L33.433 30.8559H25.5352L28.792 7.61028H36.6898Z" fill="url(#paint6_linear_8831_130466)"/>
<path d="M51.7628 6.95892C53.5541 6.95892 55.1689 7.27103 56.6074 7.89526C58.0729 8.51948 59.2264 9.33369 60.0677 10.3379L55.7117 14.2054C55.0604 13.5811 54.4226 13.1333 53.7983 12.8619C53.1741 12.5905 52.4549 12.4548 51.6407 12.4548C49.3066 12.4548 47.6782 13.4454 46.7554 15.4267C45.8598 17.3808 45.412 19.742 45.412 22.5103C45.412 23.8402 45.6291 24.7629 46.0634 25.2786C46.5247 25.7943 47.244 26.0521 48.221 26.0521C49.1438 26.0521 49.9444 25.9028 50.6229 25.6043L51.0707 22.266H48.8317L48.8724 17.0144H59.1721L57.5437 28.7797C56.051 29.7296 54.5176 30.4352 52.9434 30.8966C51.3693 31.358 49.6594 31.5887 47.8139 31.5887C44.34 31.5887 41.7345 30.7745 39.9975 29.1461C38.2877 27.4905 37.4328 25.1022 37.4328 21.9811C37.4328 19.3756 37.9077 16.9465 38.8576 14.6939C39.8347 12.4141 41.3952 10.555 43.5393 9.11657C45.6834 7.67814 48.4246 6.95892 51.7628 6.95892Z" fill="url(#paint7_linear_8831_130466)"/>
<path d="M18.1975 14.4963C19.8802 14.822 21.2237 15.4327 22.2279 16.3283C23.2321 17.2239 23.7342 18.6081 23.7342 20.4807C23.7342 23.1948 22.635 25.3796 20.4366 27.0351C18.2654 28.6635 14.71 29.4777 9.77049 29.4777H0L3.94891 1.14331H12.5388C16.3656 1.14331 19.2832 1.6454 21.2915 2.64959C23.3271 3.65378 24.3448 5.33648 24.3448 7.69768C24.3448 9.5975 23.7613 11.0902 22.5943 12.1758C21.4272 13.2614 19.9617 14.0349 18.1975 14.4963ZM12.0096 12.0944C13.5566 12.0944 14.5743 11.7823 15.0628 11.1581C15.5785 10.5067 15.8363 9.70606 15.8363 8.75615C15.8363 8.10479 15.5785 7.62983 15.0628 7.33129C14.5743 7.03275 13.7465 6.88348 12.5795 6.88348H11.3175L10.5847 12.0944H12.0096ZM10.5847 23.5747C12.4031 23.5747 13.638 23.2491 14.2893 22.5977C14.9679 21.9192 15.3071 20.9693 15.3071 19.748C15.3071 18.1738 14.1536 17.3868 11.8467 17.3868H9.85191L8.997 23.5747H10.5847Z" fill="white"/>
<path d="M36.0023 6.23211L32.7455 29.4777H24.8476L28.1045 6.23211H36.0023Z" fill="white"/>
<path d="M51.0753 5.58074C52.8666 5.58074 54.4814 5.89286 55.9199 6.51708C57.3854 7.14131 58.5389 7.95552 59.3802 8.95971L55.0242 12.8272C54.3729 12.203 53.7351 11.7552 53.1108 11.4837C52.4866 11.2123 51.7674 11.0766 50.9532 11.0766C48.6191 11.0766 46.9907 12.0673 46.0679 14.0485C45.1723 16.0026 44.7245 18.3638 44.7245 21.1321C44.7245 22.462 44.9416 23.3848 45.3759 23.9004C45.8372 24.4161 46.5565 24.6739 47.5335 24.6739C48.4563 24.6739 49.2569 24.5246 49.9354 24.2261L50.3832 20.8879H48.1442L48.1849 15.6362H58.4846L56.8562 27.4015C55.3635 28.3514 53.8301 29.0571 52.2559 29.5185C50.6818 29.9798 48.9719 30.2105 47.1264 30.2105C43.6525 30.2105 41.047 29.3963 39.31 27.7679C37.6002 26.1124 36.7453 23.724 36.7453 20.6029C36.7453 17.9974 37.2202 15.5684 38.1701 13.3157C39.1472 11.0359 40.7077 9.17683 42.8518 7.73839C44.9959 6.29996 47.7371 5.58074 51.0753 5.58074Z" fill="white"/>
<path d="M75.5105 0.329102C79.3644 0.329102 82.3227 1.55041 84.3853 3.99304L80.0293 8.18621C79.3508 7.58912 78.6587 7.14131 77.9531 6.84276C77.2474 6.51708 76.4604 6.35424 75.5919 6.35424C73.9906 6.35424 72.6879 7.01918 71.6837 8.34905C70.7066 9.65178 70.001 11.2259 69.5667 13.0715C69.1596 14.917 68.9561 16.6675 68.9561 18.3231C68.9561 22.0956 70.3538 23.9818 73.1493 23.9818C74.0449 23.9818 74.8998 23.7783 75.714 23.3712C76.5554 22.9641 77.4917 22.3806 78.523 21.6206L81.617 26.3838C80.3143 27.5508 78.8216 28.5007 77.1389 29.2335C75.4833 29.9391 73.6649 30.292 71.6837 30.292C69.431 30.292 67.4634 29.8441 65.7807 28.9485C64.098 28.0257 62.7817 26.6823 61.8318 24.9182C60.909 23.1541 60.4476 21.01 60.4476 18.4859C60.4476 15.5819 60.9633 12.7458 61.9946 9.97746C63.0259 7.20916 64.6679 4.91581 66.9206 3.09741C69.1732 1.25187 72.0365 0.329102 75.5105 0.329102Z" fill="#F72B39"/>
<path d="M93.6479 6.23211L91.246 23.4526H100.243L98.5738 29.4777H82.534L85.7908 6.23211H93.6479Z" fill="#F72B39"/>
<path d="M113.626 29.4777L113.463 25.366H108.415L107.112 29.4777H98.8477L108.985 6.23211H118.307L121.89 29.4777H113.626ZM110.124 19.8701H113.218L112.852 11.1581L110.124 19.8701Z" fill="#F72B39"/>
<path d="M135.187 5.58074C136.978 5.58074 138.634 5.87929 140.153 6.47637C141.673 7.07346 143.017 7.90123 144.184 8.95971L140.235 12.9086C139.448 12.3387 138.606 11.9044 137.711 11.6059C136.842 11.3073 136.028 11.1581 135.268 11.1581C134.454 11.1581 133.83 11.2802 133.396 11.5245C132.988 11.7416 132.785 12.0673 132.785 12.5015C132.785 12.8815 133.002 13.2072 133.436 13.4786C133.87 13.7228 134.82 14.1164 136.286 14.6592C138.43 15.3648 140.018 16.3419 141.049 17.5903C142.08 18.8116 142.596 20.2365 142.596 21.8649C142.596 23.3033 142.216 24.6603 141.456 25.9359C140.723 27.1844 139.516 28.2157 137.833 29.0299C136.15 29.817 133.979 30.2105 131.319 30.2105C129.148 30.2105 127.208 29.8577 125.498 29.1521C123.815 28.4464 122.417 27.5508 121.305 26.4652L125.457 22.1499C126.244 22.8827 127.14 23.4526 128.144 23.8597C129.175 24.2668 130.22 24.4704 131.279 24.4704C132.256 24.4704 132.975 24.3347 133.436 24.0633C133.925 23.7647 134.169 23.4119 134.169 23.0048C134.169 22.462 133.952 22.0142 133.518 21.6614C133.083 21.3085 132.283 20.9421 131.116 20.5622C128.646 19.8022 126.909 18.8388 125.905 17.6717C124.901 16.5047 124.399 15.1613 124.399 13.6414C124.399 12.1487 124.806 10.7917 125.62 9.57036C126.434 8.34905 127.642 7.38557 129.243 6.67992C130.872 5.94714 132.853 5.58074 135.187 5.58074Z" fill="#F72B39"/>
<path d="M167.53 6.23211L164.273 29.4777H156.375L157.637 20.5215H153.077L151.815 29.4777H143.918L147.174 6.23211H155.072L153.932 14.4149H158.492L159.632 6.23211H167.53Z" fill="#F72B39"/>
<defs>
<linearGradient id="paint0_linear_8831_130466" x1="113.973" y1="1.58141" x2="113.973" y2="32.5777" gradientUnits="userSpaceOnUse">
<stop stop-color="#93000A"/>
<stop offset="1" stop-color="#590006"/>
</linearGradient>
<linearGradient id="paint1_linear_8831_130466" x1="113.973" y1="1.58141" x2="113.973" y2="32.5777" gradientUnits="userSpaceOnUse">
<stop stop-color="#93000A"/>
<stop offset="1" stop-color="#590006"/>
</linearGradient>
<linearGradient id="paint2_linear_8831_130466" x1="113.973" y1="1.58141" x2="113.973" y2="32.5777" gradientUnits="userSpaceOnUse">
<stop stop-color="#93000A"/>
<stop offset="1" stop-color="#590006"/>
</linearGradient>
<linearGradient id="paint3_linear_8831_130466" x1="113.973" y1="1.58141" x2="113.973" y2="32.5777" gradientUnits="userSpaceOnUse">
<stop stop-color="#93000A"/>
<stop offset="1" stop-color="#590006"/>
</linearGradient>
<linearGradient id="paint4_linear_8831_130466" x1="113.973" y1="1.58141" x2="113.973" y2="32.5777" gradientUnits="userSpaceOnUse">
<stop stop-color="#93000A"/>
<stop offset="1" stop-color="#590006"/>
</linearGradient>
<linearGradient id="paint5_linear_8831_130466" x1="30.2803" y1="-0.657014" x2="30.2803" y2="33.2667" gradientUnits="userSpaceOnUse">
<stop stop-color="#BEC2C9"/>
<stop offset="1" stop-color="#030736"/>
</linearGradient>
<linearGradient id="paint6_linear_8831_130466" x1="30.2803" y1="-0.657014" x2="30.2803" y2="33.2667" gradientUnits="userSpaceOnUse">
<stop stop-color="#BEC2C9"/>
<stop offset="1" stop-color="#030736"/>
</linearGradient>
<linearGradient id="paint7_linear_8831_130466" x1="30.2803" y1="-0.657014" x2="30.2803" y2="33.2667" gradientUnits="userSpaceOnUse">
<stop stop-color="#BEC2C9"/>
<stop offset="1" stop-color="#030736"/>
</linearGradient>
</defs>
</svg>
