<svg width="246" height="54" viewBox="0 0 246 54" fill="none" xmlns="http://www.w3.org/2000/svg">
<path d="M14.491 31.5605H9.0649V47.133H5.92606V31.5605H0.5V28.8839H14.491V31.5605Z" fill="white"/>
<path d="M16.8512 28.8839H19.9657V36.1836H28.4819V28.8839H31.5964V47.133H28.4819V38.8601H19.9657V47.133H16.8512V28.8839Z" fill="white"/>
<path d="M35.7816 47.133V28.8839H47.6556V31.5605H38.8961V36.4512H47.169V38.9818H38.8961V44.4565H48.0206V47.133H35.7816Z" fill="white"/>
<path d="M71.6471 41.3663V45.0648C71.0631 46.4274 68.6542 47.3764 65.7831 47.3764C60.2353 47.3764 56.5855 43.0696 56.5855 38.0085C56.5855 32.9474 60.2353 28.6406 65.7831 28.6406C68.5082 28.6406 70.8685 29.5896 71.6471 30.9522V34.6263C70.4791 32.6068 68.1919 31.3172 65.7831 31.3172C62.2792 31.3172 59.919 34.383 59.919 38.0085C59.919 41.6096 62.2792 44.6998 65.7831 44.6998C68.4352 44.6998 70.7468 43.3616 71.6471 41.3663Z" fill="white"/>
<path d="M74.2506 47.133V28.8839H80.066C84.3241 28.8839 86.4653 30.7089 86.4653 34.3587C86.4653 36.9135 85.1757 38.4951 82.6209 39.0791L87.171 47.133H83.5941L79.19 39.3468H77.3651V47.133H74.2506ZM77.3651 36.8162H80.1633C82.2802 36.8162 83.3508 35.9889 83.3508 34.3587C83.3508 32.3878 82.2072 31.4145 79.9443 31.4145C79.1657 31.4145 78.2654 31.4145 77.3651 31.4388V36.8162Z" fill="white"/>
<path d="M89.0445 38.0085C89.0445 32.6798 92.7187 28.6406 97.5851 28.6406C102.452 28.6406 106.126 32.6798 106.126 38.0085C106.126 43.6535 102.744 47.3764 97.5851 47.3764C92.4267 47.3764 89.0445 43.6535 89.0445 38.0085ZM92.378 38.0085C92.378 41.999 94.4706 44.6998 97.5851 44.6998C100.7 44.6998 102.792 41.999 102.792 38.0085C102.792 34.1883 100.554 31.3172 97.5851 31.3172C94.6166 31.3172 92.378 34.1883 92.378 38.0085Z" fill="white"/>
<path d="M112.063 47.133L108.34 28.8839H111.673L113.766 40.1497L116.345 28.8839H119.606L122.307 40.2227L124.35 28.8839H127.854L123.961 47.133H120.968L118.048 34.9183L115.056 47.133H112.063Z" fill="white"/>
<path d="M133.451 47.133H130.166V28.8839H133.645L141.067 42.7533V28.8839H144.351V47.133H139.947L133.451 35.0156V47.133Z" fill="white"/>
<path d="M168.83 41.3663V45.0648C168.246 46.4274 165.837 47.3764 162.965 47.3764C157.418 47.3764 153.768 43.0696 153.768 38.0085C153.768 32.9474 157.418 28.6406 162.965 28.6406C165.691 28.6406 168.051 29.5896 168.83 30.9522V34.6263C167.662 32.6068 165.374 31.3172 162.965 31.3172C159.462 31.3172 157.101 34.383 157.101 38.0085C157.101 41.6096 159.462 44.6998 162.965 44.6998C165.618 44.6998 167.929 43.3616 168.83 41.3663Z" fill="white"/>
<path d="M169.511 47.133L176.445 28.8839H179.828L186.665 47.133H183.331L181.604 42.4126L181.92 43.3129H174.426L173.015 47.133H169.511ZM178.173 33.1907L175.351 40.8067H180.996L178.173 33.1907Z" fill="white"/>
<path d="M187.979 45.0648L187.955 40.7094C189.122 43.2399 191.556 44.5295 194.257 44.5295C196.398 44.5295 197.42 43.5805 197.42 42.1206C197.42 40.758 196.106 39.7847 193.551 39.3224C189.731 38.6411 187.809 36.6946 187.809 33.8477C187.809 30.7332 190.12 28.6406 193.624 28.6406C195.96 28.6406 198.15 29.3463 199.391 30.7332V34.2127C197.809 32.4364 195.668 31.5361 193.624 31.5361C192.067 31.5361 191.02 32.3391 191.02 33.5314C191.02 34.7966 192.164 35.7699 194.403 36.1592C198.49 36.9135 200.534 38.9818 200.534 42.0233C200.534 45.2351 198.417 47.3764 194.257 47.3764C191.118 47.3764 188.928 46.4274 187.979 45.0648Z" fill="white"/>
<path d="M206.642 47.133H203.527V28.8839H206.642V47.133Z" fill="white"/>
<path d="M214.063 47.133H210.778V28.8839H214.258L221.679 42.7533V28.8839H224.964V47.133H220.56L214.063 35.0156V47.133Z" fill="white"/>
<path d="M228.419 38.0085C228.419 32.6798 232.093 28.6406 236.959 28.6406C241.826 28.6406 245.5 32.6798 245.5 38.0085C245.5 43.6535 242.118 47.3764 236.959 47.3764C231.801 47.3764 228.419 43.6535 228.419 38.0085ZM231.752 38.0085C231.752 41.999 233.845 44.6998 236.959 44.6998C240.074 44.6998 242.167 41.999 242.167 38.0085C242.167 34.1883 239.928 31.3172 236.959 31.3172C233.991 31.3172 231.752 34.1883 231.752 38.0085Z" fill="white"/>
<path d="M124.763 20.1441L122.958 22.7183L121.154 20.1441L122.958 17.5699" fill="white"/>
<path d="M125.337 12.9936L122.999 16.3441L120.662 12.9936L122.999 9.64302" fill="white"/>
<path d="M125.912 4.20861L122.999 8.41722L120.087 4.20861C120.087 4.20861 121.862 1.64356 122.999 0" fill="white"/>
<path d="M109.643 24.8231L112.586 25.9462L112.631 22.8066L109.688 21.6835" fill="white"/>
<path d="M113.31 22.4932L115.984 24.1549L116.629 21.0815L113.955 19.4199" fill="white"/>
<path d="M117.083 20.8004L119.301 23.0309L120.64 20.1883L118.421 17.9577" fill="white"/>
<path d="M105.703 19.0436L109.518 20.4993L109.576 16.4302L105.762 14.9746" fill="white"/>
<path d="M110.456 16.024L113.922 18.1776L114.758 14.1943L111.292 12.0407" fill="white"/>
<path d="M108.198 9.47465L111.006 11.2195L111.684 7.99222L108.875 6.24734" fill="white"/>
<path d="M115.346 13.8299L118.221 16.7209L119.956 13.0366L117.081 10.1456" fill="white"/>
<path d="M136.358 24.8231L133.415 25.9462L133.37 22.8066L136.313 21.6835" fill="white"/>
<path d="M132.691 22.4932L130.017 24.1549L129.372 21.0815L132.046 19.4199" fill="white"/>
<path d="M128.918 20.8004L126.7 23.0309L125.362 20.1883L127.58 17.9577" fill="white"/>
<path d="M140.298 19.0436L136.483 20.4993L136.425 16.4302L140.24 14.9746" fill="white"/>
<path d="M135.545 16.024L132.079 18.1776L131.243 14.1943L134.709 12.0407" fill="white"/>
<path d="M137.803 9.47465L134.995 11.2195L134.318 7.99222L137.126 6.24734" fill="white"/>
<path d="M130.655 13.8299L127.78 16.7209L126.045 13.0366L128.92 10.1456" fill="white"/>
</svg>
