<svg width="216" height="48" viewBox="0 0 216 48" fill="none" xmlns="http://www.w3.org/2000/svg">
<path d="M16.0806 38.9446C19.0125 38.9446 21.6926 38.3079 24.121 37.0345C26.5493 35.7907 28.7408 34.0879 30.6954 31.926C32.6795 29.7345 34.412 27.2913 35.8927 24.5964C36.8404 22.8788 37.7288 21.1315 38.558 19.3547C39.3872 17.5778 40.1572 15.9046 40.8679 14.335C41.5787 12.7358 42.2154 11.3588 42.7781 10.2038C43.3407 9.04885 43.8146 8.21964 44.1996 7.7162C42.5708 7.12391 40.6902 6.60566 38.558 6.16144C36.4554 5.68761 33.8197 5.36185 30.6509 5.18416C28.4299 5.06571 26.4457 5.31743 24.6984 5.93933C22.9808 6.56124 21.5149 7.40525 20.3007 8.47137C19.1161 9.50787 18.1981 10.648 17.5466 11.8918C16.9247 13.1356 16.6137 14.335 16.6137 15.49C16.6137 16.5857 16.8654 17.489 17.3689 18.1997C17.8723 18.8808 18.5238 19.3843 19.3234 19.7101C20.1526 20.0358 20.9966 20.1987 21.8555 20.1987C22.9216 20.1987 23.8544 19.9766 24.654 19.5324C25.4536 19.0881 26.1199 18.5551 26.653 17.9332C27.2157 17.2817 27.6303 16.6746 27.8968 16.1119C28.193 15.5196 28.341 15.0902 28.341 14.8237V14.7792C28.4891 14.6016 28.6372 14.5127 28.7852 14.5127C29.0814 14.5127 29.2295 14.72 29.2295 15.1346C29.0814 16.408 28.6224 17.5186 27.8524 18.4662C27.112 19.4139 26.2088 20.1395 25.1427 20.6429C24.0765 21.1464 22.9512 21.3981 21.7666 21.3981C20.5524 21.3981 19.3827 21.1019 18.2573 20.5096C17.132 19.9174 16.2139 19.0585 15.5032 17.9332C14.7924 16.8078 14.437 15.4456 14.437 13.8464C14.437 12.5434 14.7184 11.2551 15.2811 9.98171C15.8733 8.67867 16.747 7.49409 17.9019 6.42797C19.0865 5.33224 20.582 4.45861 22.3885 3.80709C24.195 3.15558 26.3272 2.82982 28.7852 2.82982C30.9767 2.82982 32.9609 3.03712 34.7377 3.45172C36.5442 3.86632 38.2619 4.38457 39.8907 5.00648C41.5491 5.59877 43.2223 6.19106 44.9103 6.78334C45.3841 6.19106 45.932 5.64319 46.5539 5.13974C47.2054 4.60668 47.8569 4.34015 48.5085 4.34015C49.1007 4.34015 49.3969 4.51784 49.3969 4.87321C49.3969 5.22859 49.1896 5.40627 48.775 5.40627C48.3308 5.40627 47.8717 5.59877 47.3979 5.98375C46.9241 6.33913 46.5095 6.73892 46.1541 7.18314C48.2567 7.86427 50.2557 8.45656 52.151 8.96001C54.076 9.43384 55.7344 9.67075 57.1263 9.67075C58.4589 9.67075 59.4066 9.5671 59.9692 9.3598C60.5615 9.1525 60.8577 8.81193 60.8577 8.3381C60.8577 8.16042 60.8873 8.01235 60.9465 7.89389C61.0354 7.74582 61.1834 7.67178 61.3907 7.67178C61.5388 7.67178 61.6425 7.80504 61.7017 8.07157C61.7609 8.30849 61.7905 8.50098 61.7905 8.64905C61.7905 9.3598 61.4055 9.93728 60.6356 10.3815C59.8952 10.8257 58.9624 11.0478 57.837 11.0478C56.8597 11.0478 55.6752 10.9146 54.2833 10.648C52.921 10.3815 51.4699 10.0409 49.93 9.62633C48.39 9.18212 46.8945 8.69348 45.4434 8.16042C44.3476 9.93728 43.4148 11.7586 42.6448 13.6243C41.9044 15.4604 41.2085 17.3113 40.557 19.177C39.9351 21.0427 39.2688 22.8788 38.558 24.6853C37.1069 28.2982 35.3448 31.2449 33.2718 33.5252C31.1988 35.7759 28.7408 37.4195 25.8978 38.456C23.0845 39.5221 19.8121 40.0552 16.0806 40.0552C12.675 40.0552 9.77277 39.5517 7.374 38.5448C4.97523 37.5379 3.13913 36.1757 1.86571 34.458C0.621903 32.7108 0 30.771 0 28.6388C0 26.8027 0.296144 25.1295 0.888433 23.6192C1.51034 22.1088 2.35435 20.8502 3.42047 19.8433C4.5162 18.8364 5.76001 18.1701 7.15189 17.8443C7.35919 17.8443 7.46284 17.9184 7.46284 18.0665C7.46284 18.2145 7.3888 18.333 7.24073 18.4218C5.70078 19.3399 4.5162 20.6429 3.687 22.3309C2.88741 23.9893 2.48761 25.7366 2.48761 27.5727C2.48761 30.0011 3.09471 32.0593 4.3089 33.7473C5.55271 35.4353 7.19631 36.7236 9.23971 37.612C11.3127 38.5004 13.593 38.9446 16.0806 38.9446Z" fill="url(#paint0_linear_3115_50860)"/>
<path d="M42.5917 27.1285C42.8286 26.625 43.1396 25.8254 43.5246 24.7297C43.9095 23.6044 44.3093 22.3605 44.7239 20.9983C45.1385 19.636 45.4495 18.3478 45.6568 17.1336C45.7456 16.6598 45.9085 16.3192 46.1454 16.1119C46.3823 15.875 46.6341 15.7565 46.9006 15.7565C47.2856 15.7565 47.641 15.949 47.9667 16.334C48.2925 16.6894 48.4554 17.2076 48.4554 17.8888C48.4554 18.718 48.2036 19.4287 47.7002 20.021C47.2264 20.6133 46.6341 21.176 45.9233 21.709C46.2195 21.7386 46.5304 21.7683 46.8562 21.7979C47.1819 21.7979 47.5373 21.7979 47.9223 21.7979C49.3142 21.7979 50.6912 21.709 52.0535 21.5313C52.1127 21.709 52.1424 21.8423 52.1424 21.9311C52.1424 22.3161 52.0239 22.8048 51.787 23.397C51.5797 23.9893 51.3576 24.5224 51.1207 24.9962C51.0022 25.2628 50.7653 25.7514 50.4099 26.4621C50.0545 27.1433 49.6696 27.9281 49.255 28.8165C48.8403 29.6753 48.485 30.5341 48.1888 31.393C47.9223 32.2222 47.789 32.9329 47.789 33.5252C47.789 34.2952 48.0852 34.6802 48.6775 34.6802C49.2401 34.6802 50.0249 34.0286 51.0318 32.7256C52.0387 31.393 53.0456 29.5717 54.0525 27.2617C54.4079 27.2617 54.5856 27.395 54.5856 27.6615C54.2598 28.4611 53.8452 29.3347 53.3417 30.2824C52.8679 31.2301 52.3349 32.1333 51.7426 32.9921C51.1503 33.8213 50.5136 34.5173 49.8324 35.0799C49.1513 35.613 48.4406 35.8795 47.7002 35.8795C47.1375 35.8795 46.5748 35.6574 46.0122 35.2132C45.4495 34.7394 45.1682 33.9842 45.1682 32.9477C45.1682 32.0297 45.3458 31.1412 45.7012 30.2824C46.0566 29.394 46.4564 28.5648 46.9006 27.7948C47.3448 27.0248 47.7446 26.3437 48.1 25.7514C48.4554 25.1591 48.633 24.6853 48.633 24.3299C48.633 23.7968 48.2925 23.4119 47.6113 23.1749C46.9598 22.938 46.101 22.8048 45.0349 22.7751C44.5018 24.1374 44.102 25.1443 43.8355 25.7958C43.569 26.4473 43.3173 27.0692 43.0803 27.6615C42.6065 27.6615 42.4436 27.4838 42.5917 27.1285Z" fill="url(#paint1_linear_3115_50860)"/>
<path d="M56.7084 35.8351C55.4942 35.8351 54.591 35.4057 53.9987 34.5469C53.436 33.6585 53.1547 32.5923 53.1547 31.3485C53.1547 30.1936 53.3768 28.9942 53.821 27.7504C54.2948 26.3881 54.9464 25.1443 55.7756 24.019C56.6344 22.8936 57.5672 21.9904 58.5741 21.3092C59.6106 20.5985 60.6323 20.2431 61.6392 20.2431C62.8534 20.2431 63.7419 20.6577 64.3045 21.4869C64.8968 22.3161 65.193 23.3674 65.193 24.6409C65.193 25.5293 65.0449 26.4621 64.7487 27.4394C64.4526 28.4167 64.0528 29.3792 63.5494 30.3268C63.9343 30.7118 64.4822 30.9043 65.193 30.9043C66.0222 30.9043 66.7329 30.6378 67.3252 30.1047C67.9175 29.5717 68.495 28.624 69.0576 27.2617C69.413 27.2617 69.5907 27.395 69.5907 27.6615C69.028 29.0238 68.3765 30.0307 67.6361 30.6822C66.9254 31.3041 66.0074 31.6003 64.882 31.5706C64.2009 31.5706 63.6382 31.3781 63.194 30.9932C62.3648 32.3554 61.3727 33.5104 60.2177 34.458C59.0924 35.3761 57.9226 35.8351 56.7084 35.8351ZM57.3303 34.8578C58.0115 34.8578 58.6926 34.5765 59.3737 34.0138C60.0549 33.4215 60.6768 32.7552 61.2394 32.0149C61.8021 31.2745 62.2019 30.6378 62.4388 30.1047C61.965 29.2459 61.6837 28.6092 61.5948 28.1946C61.5356 27.7504 61.506 27.4246 61.506 27.2173C61.506 26.6546 61.654 26.2252 61.9502 25.9291C62.2463 25.6329 62.5425 25.4849 62.8386 25.4849C63.2532 25.4849 63.6086 25.6626 63.9047 26.0179C63.964 25.6922 64.0084 25.396 64.038 25.1295C64.0676 24.8334 64.0824 24.552 64.0824 24.2855C64.0824 23.5155 63.9343 22.8936 63.6382 22.4198C63.3717 21.9163 62.9423 21.6646 62.35 21.6646C61.7281 21.6646 61.0765 21.9311 60.3954 22.4642C59.7143 22.9973 59.0628 23.708 58.4409 24.5964C57.8486 25.4849 57.3303 26.477 56.8861 27.5727C56.5011 28.4907 56.205 29.3644 55.9977 30.1936C55.7904 30.9932 55.6867 31.7335 55.6867 32.4146C55.6867 33.155 55.82 33.7473 56.0865 34.1915C56.353 34.6357 56.7677 34.8578 57.3303 34.8578Z" fill="url(#paint2_linear_3115_50860)"/>
<path d="M62.0786 47.9622C61.7232 47.9622 61.3678 47.903 61.0125 47.7845C60.6275 47.6957 60.2425 47.6809 59.8575 47.7401C60.0352 47.5624 60.3758 47.0442 60.8792 46.1854C61.3826 45.3562 61.9749 44.3048 62.6561 43.0314C63.3372 41.7876 64.0479 40.4254 64.7883 38.9446C65.4991 37.4935 66.195 36.0572 66.8761 34.6357C67.5573 33.1846 68.1347 31.852 68.6086 30.6378C69.112 29.394 69.4378 28.4019 69.5858 27.6615C69.4378 27.6615 69.3045 27.6319 69.1861 27.5727C69.0676 27.5135 69.0232 27.4098 69.0528 27.2617C69.0528 27.2617 69.1416 26.9952 69.3193 26.4621C69.497 25.9291 69.6747 25.2924 69.8524 24.552C70.0301 23.782 70.1189 23.0861 70.1189 22.4642C70.1189 22.0496 70.0745 21.6942 69.9856 21.3981C69.8968 21.1019 69.7339 20.9391 69.497 20.9094L71.7181 20.5541C71.8958 20.5244 72.0586 20.5096 72.2067 20.5096C72.3548 20.48 72.4881 20.4652 72.6065 20.4652C72.873 20.4652 73.0507 20.5689 73.1396 20.7762C73.258 20.9539 73.3173 21.3388 73.3173 21.9311C73.3173 22.6715 73.184 23.6192 72.9175 24.7741C72.6806 25.8995 72.3992 26.8916 72.0735 27.7504C72.3992 27.2173 72.8138 26.5362 73.3173 25.707C73.8503 24.8778 74.4574 24.0338 75.1385 23.1749C75.8197 22.3161 76.5304 21.6054 77.2708 21.0427C78.0112 20.4504 78.7367 20.1543 79.4474 20.1543C79.5955 20.1543 79.788 20.1839 80.0249 20.2431C80.8541 20.4504 81.4316 20.865 81.7574 21.4869C82.1128 22.0792 82.2904 22.79 82.2904 23.6192C82.2904 24.5076 82.1128 25.4849 81.7574 26.551C81.4316 27.6171 80.9874 28.6684 80.4247 29.7049C79.8621 30.7118 79.2402 31.6299 78.559 32.4591C77.7298 33.4956 76.7377 34.3248 75.5828 34.9467C74.4278 35.5686 73.2432 35.8795 72.029 35.8795C70.9333 35.8795 69.9116 35.5982 68.9639 35.0355L64.7439 45.6523C64.3293 46.5407 63.9295 47.1478 63.5445 47.4736C63.1595 47.7994 62.6709 47.9622 62.0786 47.9622ZM70.6075 34.9467C71.4367 34.9467 72.3696 34.5617 73.4061 33.7917C74.4426 33.0217 75.4347 32.0445 76.3824 30.8599C77.3596 29.6457 78.174 28.4315 78.8256 27.2173C79.2698 26.3881 79.5955 25.6329 79.8028 24.9518C80.0101 24.2411 80.1138 23.634 80.1138 23.1305C80.1138 21.9756 79.6992 21.3981 78.87 21.3981C78.485 21.3981 77.9815 21.6054 77.3596 22.02C76.7673 22.4346 76.0714 23.1897 75.2718 24.2855C74.413 25.4701 73.4653 26.9656 72.4288 28.7721C71.4219 30.5489 70.3854 32.4295 69.3193 34.4136C69.6747 34.769 70.1041 34.9467 70.6075 34.9467Z" fill="url(#paint3_linear_3115_50860)"/>
<path d="M87.174 36.0128C86.0783 36.0128 85.0862 35.6574 84.1978 34.9467C83.339 34.2359 82.9096 33.155 82.9096 31.7039C82.9096 30.4897 83.1761 29.2015 83.7092 27.8392C84.2718 26.477 84.9974 25.2035 85.8858 24.019C86.8039 22.8048 87.8108 21.8275 88.9065 21.0871C90.0318 20.3171 91.1572 19.9322 92.2825 19.9322C92.8452 19.9322 93.3931 20.095 93.9261 20.4208C94.4592 20.7466 94.7257 21.3092 94.7257 22.1088C94.7257 22.8492 94.4444 23.6636 93.8817 24.552C93.319 25.4404 92.5194 26.2697 91.4829 27.0396C91.0387 27.3654 90.4761 27.6763 89.7949 27.9725C89.1138 28.2686 88.4327 28.5203 87.7515 28.7276C87.0704 28.9053 86.5077 28.9942 86.0635 28.9942C85.9154 29.3496 85.7674 29.8234 85.6193 30.4157C85.5008 31.008 85.4416 31.6151 85.4416 32.237C85.4416 32.9773 85.5897 33.6436 85.8858 34.2359C86.182 34.8282 86.7298 35.1244 87.5294 35.1244C88.5067 35.1244 89.4099 34.843 90.2391 34.2804C91.098 33.7177 91.8531 33.0069 92.5046 32.1481C93.1858 31.2893 93.7633 30.4157 94.2371 29.5272C94.7109 28.6388 95.0811 27.8836 95.3476 27.2617C95.703 27.2617 95.8807 27.395 95.8807 27.6615C95.4957 28.4907 95.0515 29.394 94.548 30.3713C94.0742 31.3485 93.4967 32.2666 92.8156 33.1254C92.1641 33.9546 91.3645 34.6505 90.4168 35.2132C89.4988 35.7463 88.4179 36.0128 87.174 36.0128ZM86.3745 28.1946C86.7891 28.1946 87.485 28.0465 88.4623 27.7504C89.4396 27.4246 90.328 26.9212 91.1276 26.24C91.8976 25.5589 92.4898 24.8185 92.9044 24.019C93.319 23.1898 93.5263 22.4938 93.5263 21.9311C93.5263 21.2796 93.2894 20.9539 92.8156 20.9539C92.4602 20.9539 91.9716 21.1908 91.3497 21.6646C90.7278 22.1384 89.9578 22.938 89.0398 24.0634C88.4771 24.7741 87.944 25.5441 87.4406 26.3733C86.9371 27.2025 86.5818 27.8096 86.3745 28.1946Z" fill="url(#paint4_linear_3115_50860)"/>
<path d="M95.3414 27.2617C95.5487 26.7879 95.7708 26.2993 96.0077 25.7958C96.2446 25.2628 96.5852 24.5964 97.0294 23.7968C97.5625 22.8492 98.1251 22.1532 98.7174 21.709C99.3097 21.2352 99.8872 20.9242 100.45 20.7762C101.013 20.6281 101.472 20.5541 101.827 20.5541C102.567 20.5541 103.219 20.6577 103.782 20.865C104.344 21.0723 104.848 21.2944 105.292 21.5313C105.766 21.7386 106.225 21.8423 106.669 21.8423C107.232 21.8423 107.646 21.6942 107.913 21.3981C108.179 21.1019 108.416 20.9539 108.623 20.9539C108.831 20.9539 109.008 21.0427 109.157 21.2204C109.305 21.3981 109.379 21.6202 109.379 21.8867C109.379 22.2717 109.216 22.553 108.89 22.7307C108.564 22.9084 108.016 23.2046 107.246 23.6192C106.417 24.0634 105.677 24.7001 105.025 25.5293C104.374 26.3585 103.737 27.2469 103.115 28.1946C102.523 29.1423 101.871 30.0751 101.161 30.9932C100.45 31.8816 99.6207 32.6368 98.673 33.2587C99.7984 33.4363 100.835 33.6288 101.783 33.8361C102.73 34.0434 103.559 34.1471 104.27 34.1471C104.448 34.1471 104.596 34.1471 104.714 34.1471C104.862 34.1175 105.01 34.0879 105.159 34.0583C106.047 33.8213 106.817 33.3475 107.468 32.6368C108.15 31.8964 108.742 31.0524 109.245 30.1047C109.749 29.1571 110.193 28.2094 110.578 27.2617C110.933 27.2617 111.111 27.395 111.111 27.6615C110.578 28.9942 109.941 30.312 109.201 31.6151C108.461 32.9181 107.631 33.999 106.713 34.8578C105.795 35.7167 104.788 36.1461 103.693 36.1461C102.39 36.1461 101.235 36.0276 100.228 35.7907C99.2209 35.5538 98.3769 35.4353 97.6957 35.4353C97.1331 35.4353 96.5852 35.5834 96.0521 35.8795C95.5487 36.2053 95.0008 36.3682 94.4085 36.3682C93.8755 36.3682 93.6089 36.1461 93.6089 35.7019C93.6089 35.4057 93.683 35.154 93.8311 34.9467C93.9199 34.769 94.2308 34.5765 94.7639 34.3692C95.297 34.1323 95.8448 33.9102 96.4075 33.7029C96.9998 33.466 97.3996 33.2883 97.6069 33.1698C98.14 32.9033 98.7174 32.3998 99.3393 31.6595C99.9909 30.8895 100.657 30.0307 101.338 29.083C102.019 28.1057 102.686 27.1581 103.337 26.24C103.989 25.322 104.611 24.552 105.203 23.9301C104.67 23.8117 104.063 23.6784 103.382 23.5303C102.701 23.3822 102.064 23.3082 101.472 23.3082C100.613 23.3082 99.8724 23.397 99.2505 23.5747C98.6286 23.7228 98.0511 24.1078 97.5181 24.7297C97.0146 25.3516 96.4667 26.3289 95.8745 27.6615C95.5191 27.6615 95.3414 27.5283 95.3414 27.2617Z" fill="url(#paint5_linear_3115_50860)"/>
<path d="M132.019 40.5882C129.324 40.5882 126.925 40.0404 124.823 38.9446C122.75 37.8785 121.121 36.2941 119.936 34.1915C118.781 32.0593 118.204 29.4532 118.204 26.3733C118.204 24.5372 118.441 22.7011 118.915 20.865C119.389 19.0289 120.025 17.2669 120.825 15.5788C121.654 13.8908 122.572 12.3361 123.579 10.9146C123.135 9.13769 122.913 7.21275 122.913 5.13974C122.913 3.57018 123.09 2.07465 123.446 0.653153C123.564 0.238551 123.771 0.03125 124.068 0.03125C124.305 0.03125 124.408 0.179322 124.379 0.475466C124.29 1.06776 124.216 1.70447 124.156 2.3856C124.097 3.03712 124.068 3.8219 124.068 4.73995C124.068 6.45759 124.231 8.08638 124.556 9.62633C124.852 9.24134 125.149 8.88597 125.445 8.56021C126.659 7.22756 128.095 5.98375 129.754 4.82879C131.412 3.64421 133.248 2.69655 135.262 1.9858C137.305 1.27506 139.467 0.919685 141.747 0.919685C143.88 0.919685 145.834 1.31948 147.611 2.11907C149.388 2.88904 150.809 4.01439 151.876 5.49512C152.971 6.94623 153.519 8.70828 153.519 10.7813C153.519 12.0843 153.164 13.417 152.453 14.7792C151.772 16.1415 150.78 17.4001 149.477 18.5551C148.203 19.6804 146.649 20.5985 144.813 21.3092C143.006 22.02 140.977 22.3754 138.727 22.3754C135.765 22.3754 133.056 21.7238 130.598 20.4208C128.14 19.1178 126.229 17.1336 124.867 14.4683C123.683 16.5709 122.809 18.7032 122.246 20.865C121.684 23.0269 121.402 25.0851 121.402 27.0396C121.402 29.8826 121.876 32.1925 122.824 33.9694C123.771 35.7463 125.075 37.0493 126.733 37.8785C128.421 38.7373 130.346 39.1667 132.508 39.1667C136.358 39.1667 139.734 38.1895 142.636 36.2349C145.568 34.31 147.981 31.3189 149.877 27.2617C150.232 27.2617 150.41 27.395 150.41 27.6615C148.574 32.0445 146.056 35.2873 142.858 37.3899C139.689 39.5221 136.076 40.5882 132.019 40.5882ZM126.777 11.492C126.392 12.0251 126.022 12.573 125.667 13.1356C126.703 15.564 128.288 17.5186 130.42 18.9993C132.552 20.48 135.232 21.2204 138.46 21.2204C140.504 21.2204 142.325 20.9094 143.924 20.2875C145.553 19.6656 146.915 18.8364 148.011 17.7999C149.136 16.7634 149.995 15.6233 150.587 14.3795C151.18 13.106 151.476 11.8326 151.476 10.5592C151.476 8.98962 151.046 7.61255 150.188 6.42797C149.358 5.24339 148.218 4.32535 146.767 3.67383C145.316 2.9927 143.672 2.65213 141.836 2.65213C140 2.65213 138.149 3.03712 136.284 3.80709C134.447 4.57707 132.7 5.62838 131.042 6.96103C129.413 8.29368 127.992 9.80402 126.777 11.492Z" fill="url(#paint6_linear_3115_50860)"/>
<path d="M159.51 35.9684C158.829 35.9684 158.222 35.7759 157.689 35.3909C157.185 35.0059 156.934 34.2211 156.934 33.0366C156.934 32.5331 156.963 32.0593 157.023 31.6151C157.111 31.1708 157.215 30.697 157.334 30.1936C157.067 30.6378 156.697 31.1856 156.223 31.8372C155.749 32.4887 155.216 33.1254 154.624 33.7473C154.061 34.3692 153.469 34.8875 152.847 35.3021C152.255 35.7167 151.692 35.924 151.159 35.924C150.389 35.924 149.767 35.5834 149.293 34.9023C148.819 34.1915 148.582 33.2735 148.582 32.1481C148.582 30.9339 148.864 29.6309 149.426 28.239C149.989 26.8471 150.759 25.5145 151.736 24.2411C152.714 22.9676 153.839 21.9311 155.112 21.1315C156.386 20.332 157.719 19.9322 159.11 19.9322C159.792 19.9322 160.443 20.0506 161.065 20.2875C161.687 20.4948 162.235 20.8502 162.709 21.3537C162.916 21.561 163.02 21.7979 163.02 22.0644C163.02 22.2421 162.945 22.3902 162.797 22.5086C162.649 22.6271 162.457 22.6567 162.22 22.5975C161.894 21.561 161.198 21.0427 160.132 21.0427C159.629 21.0427 159.051 21.2056 158.4 21.5313C157.6 21.9459 156.741 22.6123 155.823 23.5303C154.935 24.4187 154.091 25.4404 153.291 26.5954C152.521 27.7208 151.884 28.8609 151.381 30.0159C150.878 31.1708 150.626 32.2222 150.626 33.1698C150.626 34.1471 150.996 34.6357 151.736 34.6357C152.388 34.6357 153.054 34.3248 153.735 33.7029C154.446 33.081 155.112 32.311 155.734 31.393C156.386 30.4453 156.978 29.5124 157.511 28.5944C158.044 27.6763 158.459 26.936 158.755 26.3733C159.199 25.5737 159.614 24.9074 159.999 24.3743C160.384 23.8413 160.932 23.5747 161.642 23.5747C161.968 23.5747 162.294 23.6192 162.62 23.708C162.945 23.7968 163.286 23.8117 163.641 23.7524C162.753 24.6409 161.968 25.6922 161.287 26.9064C160.636 28.1206 160.132 29.3199 159.777 30.5045C159.421 31.6595 159.244 32.6368 159.244 33.4363C159.244 34.3248 159.54 34.769 160.132 34.769C160.606 34.769 161.109 34.5025 161.642 33.9694C162.205 33.4363 162.738 32.77 163.242 31.9704C163.775 31.1412 164.263 30.312 164.708 29.4828C165.152 28.624 165.507 27.8836 165.774 27.2617C165.922 27.2617 166.04 27.2765 166.129 27.3062C166.247 27.3358 166.307 27.4542 166.307 27.6615C166.277 27.78 166.218 27.9133 166.129 28.0613C166.07 28.1798 165.966 28.4019 165.818 28.7276C165.581 29.2015 165.255 29.8382 164.841 30.6378C164.426 31.4374 163.938 32.2518 163.375 33.081C162.812 33.8806 162.205 34.5617 161.554 35.1244C160.902 35.687 160.221 35.9684 159.51 35.9684Z" fill="url(#paint7_linear_3115_50860)"/>
<path d="M166.724 36.0128C165.51 36.0128 164.518 35.6426 163.748 34.9023C163.008 34.1323 162.637 33.3327 162.637 32.5035C162.637 31.8224 162.815 31.2005 163.17 30.6378C163.496 30.0455 163.94 29.7493 164.503 29.7493L164.548 29.6605C165.199 28.4759 165.821 27.2765 166.413 26.0623C167.035 24.8185 167.716 23.5007 168.457 22.1088C169.079 20.9539 169.745 20.0062 170.456 19.2658C171.196 18.5255 172.055 18.1553 173.032 18.1553C173.269 18.1553 173.595 18.2145 174.009 18.333C174.424 18.4218 174.631 18.6291 174.631 18.9549C174.631 19.1918 174.498 19.3103 174.231 19.3103C174.024 19.3103 173.787 19.251 173.521 19.1326C173.284 19.0141 173.091 18.9549 172.943 18.9549C172.381 18.9549 171.907 19.2806 171.522 19.9322C171.137 20.5837 170.944 21.2796 170.944 22.02C170.944 22.8196 171.078 23.5451 171.344 24.1966C171.611 24.8185 171.922 25.4256 172.277 26.0179C172.632 26.6102 172.943 27.2173 173.21 27.8392C173.476 28.4315 173.61 29.083 173.61 29.7938C173.61 31.2153 173.328 32.3702 172.766 33.2587C172.233 34.1175 171.522 34.769 170.633 35.2132H170.678C172.247 35.2132 173.536 34.4877 174.542 33.0366C175.579 31.5558 176.601 29.6309 177.608 27.2617C177.963 27.2617 178.141 27.395 178.141 27.6615C177.578 28.9942 176.956 30.2972 176.275 31.5706C175.594 32.8441 174.794 33.8954 173.876 34.7246C172.958 35.5538 171.833 35.9684 170.5 35.9684C169.937 35.9684 169.419 35.9092 168.945 35.7907C168.264 35.9388 167.524 36.0128 166.724 36.0128ZM166.058 31.3041C166.058 32.0149 166.221 32.696 166.547 33.3475C166.872 33.999 167.465 34.4877 168.323 34.8134C169.093 34.3692 169.686 33.6881 170.1 32.77C170.544 31.8224 170.767 30.8451 170.767 29.8382C170.767 29.009 170.678 28.165 170.5 27.3062C170.322 26.4473 170.13 25.6033 169.923 24.7741C169.745 23.9449 169.656 23.2046 169.656 22.553C169.656 22.3457 169.656 22.168 169.656 22.02C169.686 21.8423 169.715 21.6794 169.745 21.5313C169.212 22.3309 168.664 23.2638 168.101 24.3299C167.568 25.396 167.05 26.4177 166.547 27.395C166.043 28.3723 165.584 29.1719 165.169 29.7938C165.762 29.8826 166.058 30.3861 166.058 31.3041ZM164.592 33.5252C164.592 33.999 164.755 34.4136 165.081 34.769C165.406 35.1244 165.895 35.3021 166.547 35.3021C166.843 35.3021 167.124 35.2724 167.391 35.2132C166.769 34.8282 166.265 34.3396 165.88 33.7473C165.525 33.155 165.347 32.4739 165.347 31.7039C165.081 32 164.888 32.311 164.77 32.6368C164.651 32.9329 164.592 33.229 164.592 33.5252Z" fill="url(#paint8_linear_3115_50860)"/>
<path d="M178.878 35.8351C177.782 35.8351 177.012 35.5242 176.568 34.9023C176.124 34.2507 175.902 33.5104 175.902 32.6812C175.902 32.237 175.946 31.7927 176.035 31.3485C176.154 30.8747 176.287 30.4453 176.435 30.0603L179.411 22.4642C179.5 22.2273 179.544 22.02 179.544 21.8423C179.544 21.5461 179.47 21.2944 179.322 21.0871C179.174 20.8502 179.071 20.6873 179.011 20.5985L181.455 20.5096C181.899 20.48 182.21 20.5393 182.387 20.6873C182.595 20.8058 182.698 20.9539 182.698 21.1315C182.698 21.3092 182.595 21.635 182.387 22.1088C182.091 22.8196 181.691 23.708 181.188 24.7741C180.685 25.8402 180.181 26.936 179.678 28.0613C179.204 29.1867 178.789 30.238 178.434 31.2153C178.108 32.1925 177.945 32.9477 177.945 33.4808C177.945 33.8658 178.034 34.1915 178.212 34.458C178.419 34.7246 178.76 34.8578 179.233 34.8578C179.855 34.8578 180.462 34.6209 181.055 34.1471C181.677 33.6437 182.254 33.0069 182.787 32.237C183.32 31.467 183.809 30.6378 184.253 29.7493C184.727 28.8609 185.127 28.0317 185.452 27.2617C185.808 27.2617 185.986 27.395 185.986 27.6615C185.689 28.4019 185.304 29.2459 184.831 30.1936C184.357 31.1412 183.809 32.0445 183.187 32.9033C182.595 33.7325 181.928 34.4284 181.188 34.9911C180.477 35.5538 179.707 35.8351 178.878 35.8351ZM182.832 17.7555C182.447 17.7555 182.106 17.6074 181.81 17.3113C181.543 17.0151 181.41 16.6598 181.41 16.2452C181.41 15.7417 181.617 15.2975 182.032 14.9125C182.447 14.4979 182.906 14.2906 183.409 14.2906C183.824 14.2906 184.179 14.4239 184.475 14.6904C184.771 14.9569 184.919 15.2975 184.919 15.7121C184.919 16.2452 184.712 16.719 184.298 17.1336C183.883 17.5482 183.394 17.7555 182.832 17.7555Z" fill="url(#paint9_linear_3115_50860)"/>
<path d="M181.178 36.1905C182.244 34.0286 183.266 31.8964 184.243 29.7938C185.221 27.6615 186.228 25.6329 187.264 23.708C187.856 22.6419 188.36 21.9015 188.774 21.4869C189.189 21.0427 189.737 20.8206 190.418 20.8206C190.655 20.8206 190.907 20.865 191.173 20.9539C191.44 21.0131 191.706 21.0427 191.973 21.0427C192.15 21.0427 192.284 21.0279 192.373 20.9983C191.958 21.2352 191.41 21.8275 190.729 22.7751C190.077 23.6932 189.411 24.7593 188.73 25.9735C188.049 27.1877 187.442 28.3279 186.909 29.394C187.471 28.7128 188.064 28.0317 188.686 27.3506C189.307 26.6694 189.989 26.0179 190.729 25.396C191.44 24.7741 192.284 24.1374 193.261 23.4859C194.268 22.8048 195.245 22.2421 196.193 21.7979C197.14 21.3537 197.896 21.1315 198.458 21.1315C198.666 21.1315 198.814 21.1464 198.903 21.176C198.903 21.176 198.74 21.4721 198.414 22.0644C198.088 22.6271 197.674 23.3822 197.17 24.3299C196.696 25.248 196.208 26.24 195.704 27.3062C195.201 28.3427 194.742 29.3496 194.327 30.3268C193.942 31.2745 193.69 32.0741 193.572 32.7256C193.483 33.1106 193.439 33.466 193.439 33.7917C193.439 34.2656 193.527 34.5765 193.705 34.7246C193.883 34.8727 194.075 34.9467 194.283 34.9467C194.845 34.9467 195.423 34.695 196.015 34.1915C196.607 33.6881 197.17 33.0514 197.703 32.2814C198.266 31.4818 198.784 30.6378 199.258 29.7493C199.732 28.8609 200.132 28.0317 200.457 27.2617C200.813 27.2617 200.99 27.395 200.99 27.6615C200.665 28.4611 200.25 29.3496 199.747 30.3268C199.273 31.2745 198.725 32.1777 198.103 33.0366C197.511 33.8954 196.844 34.6061 196.104 35.1688C195.364 35.7315 194.564 36.0128 193.705 36.0128C193.113 36.0128 192.491 35.8055 191.839 35.3909C191.218 34.9763 190.907 34.2063 190.907 33.081C190.907 32.7552 190.936 32.4146 190.995 32.0593C191.055 31.6743 191.158 31.2597 191.306 30.8155C191.543 30.2232 191.825 29.5865 192.15 28.9053C192.476 28.2242 193.009 27.2913 193.75 26.1068C193.957 25.781 194.075 25.5293 194.105 25.3516C194.164 25.1739 194.194 25.0258 194.194 24.9074C194.194 24.552 194.031 24.3743 193.705 24.3743C193.439 24.3743 193.039 24.5224 192.506 24.8185C192.002 25.1147 191.366 25.6329 190.596 26.3733C189.855 27.084 188.967 28.0909 187.93 29.394C186.923 30.697 185.754 32.622 184.421 35.1688C184.214 35.5538 183.977 35.7611 183.71 35.7907C183.473 35.8203 183.133 35.8499 182.689 35.8795C182.392 35.9092 182.111 35.924 181.845 35.924C181.578 35.9536 181.356 36.0424 181.178 36.1905Z" fill="url(#paint10_linear_3115_50860)"/>
<path d="M203.118 35.8351C201.904 35.8351 201 35.4057 200.408 34.5469C199.845 33.6585 199.564 32.5923 199.564 31.3485C199.564 30.1936 199.786 28.9942 200.23 27.7504C200.704 26.3881 201.356 25.1443 202.185 24.019C203.044 22.8936 203.977 21.9904 204.983 21.3092C206.02 20.5985 207.042 20.2431 208.049 20.2431C209.263 20.2431 210.151 20.6577 210.714 21.4869C211.306 22.3161 211.602 23.3674 211.602 24.6409C211.602 25.5293 211.454 26.4621 211.158 27.4394C210.862 28.4167 210.462 29.3792 209.959 30.3268C210.344 30.7118 210.892 30.9043 211.602 30.9043C212.431 30.9043 213.142 30.6378 213.734 30.1047C214.327 29.5717 214.904 28.624 215.467 27.2617C215.822 27.2617 216 27.395 216 27.6615C215.437 29.0238 214.786 30.0307 214.045 30.6822C213.335 31.3041 212.417 31.6003 211.291 31.5706C210.61 31.5706 210.047 31.3781 209.603 30.9932C208.774 32.3554 207.782 33.5104 206.627 34.458C205.502 35.3761 204.332 35.8351 203.118 35.8351ZM203.74 34.8578C204.421 34.8578 205.102 34.5765 205.783 34.0138C206.464 33.4215 207.086 32.7552 207.649 32.0149C208.211 31.2745 208.611 30.6378 208.848 30.1047C208.374 29.2459 208.093 28.6092 208.004 28.1946C207.945 27.7504 207.915 27.4246 207.915 27.2173C207.915 26.6546 208.063 26.2252 208.359 25.9291C208.656 25.6329 208.952 25.4849 209.248 25.4849C209.663 25.4849 210.018 25.6626 210.314 26.0179C210.373 25.6922 210.418 25.396 210.447 25.1295C210.477 24.8334 210.492 24.552 210.492 24.2855C210.492 23.5155 210.344 22.8936 210.048 22.4198C209.781 21.9163 209.352 21.6646 208.759 21.6646C208.137 21.6646 207.486 21.9311 206.805 22.4642C206.124 22.9973 205.472 23.708 204.85 24.5964C204.258 25.4849 203.74 26.477 203.295 27.5727C202.91 28.4907 202.614 29.3644 202.407 30.1936C202.2 30.9932 202.096 31.7335 202.096 32.4146C202.096 33.155 202.229 33.7473 202.496 34.1915C202.762 34.6357 203.177 34.8578 203.74 34.8578Z" fill="url(#paint11_linear_3115_50860)"/>
<defs>
<linearGradient id="paint0_linear_3115_50860" x1="108" y1="0.03125" x2="108" y2="47.9622" gradientUnits="userSpaceOnUse">
<stop stop-color="#FAF0CD"/>
<stop offset="0.5" stop-color="#EBD891"/>
<stop offset="1" stop-color="#806F2C"/>
</linearGradient>
<linearGradient id="paint1_linear_3115_50860" x1="108" y1="0.03125" x2="108" y2="47.9622" gradientUnits="userSpaceOnUse">
<stop stop-color="#FAF0CD"/>
<stop offset="0.5" stop-color="#EBD891"/>
<stop offset="1" stop-color="#806F2C"/>
</linearGradient>
<linearGradient id="paint2_linear_3115_50860" x1="108" y1="0.03125" x2="108" y2="47.9622" gradientUnits="userSpaceOnUse">
<stop stop-color="#FAF0CD"/>
<stop offset="0.5" stop-color="#EBD891"/>
<stop offset="1" stop-color="#806F2C"/>
</linearGradient>
<linearGradient id="paint3_linear_3115_50860" x1="108" y1="0.03125" x2="108" y2="47.9622" gradientUnits="userSpaceOnUse">
<stop stop-color="#FAF0CD"/>
<stop offset="0.5" stop-color="#EBD891"/>
<stop offset="1" stop-color="#806F2C"/>
</linearGradient>
<linearGradient id="paint4_linear_3115_50860" x1="108" y1="0.03125" x2="108" y2="47.9622" gradientUnits="userSpaceOnUse">
<stop stop-color="#FAF0CD"/>
<stop offset="0.5" stop-color="#EBD891"/>
<stop offset="1" stop-color="#806F2C"/>
</linearGradient>
<linearGradient id="paint5_linear_3115_50860" x1="108" y1="0.03125" x2="108" y2="47.9622" gradientUnits="userSpaceOnUse">
<stop stop-color="#FAF0CD"/>
<stop offset="0.5" stop-color="#EBD891"/>
<stop offset="1" stop-color="#806F2C"/>
</linearGradient>
<linearGradient id="paint6_linear_3115_50860" x1="108" y1="0.03125" x2="108" y2="47.9622" gradientUnits="userSpaceOnUse">
<stop stop-color="#FAF0CD"/>
<stop offset="0.5" stop-color="#EBD891"/>
<stop offset="1" stop-color="#806F2C"/>
</linearGradient>
<linearGradient id="paint7_linear_3115_50860" x1="108" y1="0.03125" x2="108" y2="47.9622" gradientUnits="userSpaceOnUse">
<stop stop-color="#FAF0CD"/>
<stop offset="0.5" stop-color="#EBD891"/>
<stop offset="1" stop-color="#806F2C"/>
</linearGradient>
<linearGradient id="paint8_linear_3115_50860" x1="108" y1="0.03125" x2="108" y2="47.9622" gradientUnits="userSpaceOnUse">
<stop stop-color="#FAF0CD"/>
<stop offset="0.5" stop-color="#EBD891"/>
<stop offset="1" stop-color="#806F2C"/>
</linearGradient>
<linearGradient id="paint9_linear_3115_50860" x1="108" y1="0.03125" x2="108" y2="47.9622" gradientUnits="userSpaceOnUse">
<stop stop-color="#FAF0CD"/>
<stop offset="0.5" stop-color="#EBD891"/>
<stop offset="1" stop-color="#806F2C"/>
</linearGradient>
<linearGradient id="paint10_linear_3115_50860" x1="108" y1="0.03125" x2="108" y2="47.9622" gradientUnits="userSpaceOnUse">
<stop stop-color="#FAF0CD"/>
<stop offset="0.5" stop-color="#EBD891"/>
<stop offset="1" stop-color="#806F2C"/>
</linearGradient>
<linearGradient id="paint11_linear_3115_50860" x1="108" y1="0.03125" x2="108" y2="47.9622" gradientUnits="userSpaceOnUse">
<stop stop-color="#FAF0CD"/>
<stop offset="0.5" stop-color="#EBD891"/>
<stop offset="1" stop-color="#806F2C"/>
</linearGradient>
</defs>
</svg>
