<svg width="167" height="23" viewBox="0 0 167 23" fill="none" xmlns="http://www.w3.org/2000/svg">
<path d="M69.619 13.1873C68.8127 15.0361 66.9365 16.8455 63.8339 16.8973C59.8323 16.9642 56.6978 14.1043 56.6978 9.66702C56.6978 4.918 59.9682 1.86486 63.7975 1.19608C70.4332 0.0373167 75.7077 5.45599 74.998 12.0977C74.6745 15.1265 73.3917 17.113 71.8155 18.7764C67.3084 22.9701 61.067 22.8999 56.8182 19.0544C54.5776 17.1237 53.2188 14.3167 53.2188 11.3522C53.2188 4.75515 58.4567 -0.339046 65.0878 0.0940595C56.8601 0.565446 52.5481 10.3886 57.4142 15.8225C62.074 21.0261 70.9156 18.4387 71.7816 11.6423C72.3282 7.35196 68.6756 3.73797 64.4384 4.56487C61.8884 5.06267 59.6024 7.11485 59.6024 9.83842C59.6024 12.5814 61.8261 14.8052 64.5691 14.8052C67.3121 14.8052 69.5358 12.5814 69.5358 9.83842C69.5358 9.00137 69.3285 8.21294 68.9627 7.52108C70.1722 8.97412 70.4938 11.1814 69.619 13.1873Z" fill="url(#paint0_linear_2713_108224)"/>
<path fill-rule="evenodd" clip-rule="evenodd" d="M65.2545 10.2524C65.2545 10.2524 65.0868 9.62141 65.702 8.94558C65.702 8.94558 66.0796 9.64576 65.2545 10.2524ZM63.8859 10.2524C63.8859 10.2524 64.0537 9.62141 63.4384 8.94558C63.4384 8.94558 63.0609 9.64576 63.8859 10.2524ZM64.5702 12.1244C65.0106 12.1244 65.2555 12.0894 65.4337 11.5777C65.6119 11.0659 66.3716 10.1499 66.4317 9.5283C66.4785 9.04476 66.4946 8.35935 66.139 7.94302C64.0348 5.47994 68.7381 5.77894 68.7381 9.81193C68.7381 12.1135 66.8721 13.9797 64.5702 13.9797C62.2684 13.9797 60.4023 12.1135 60.4023 9.81193C60.4023 5.77894 65.1057 5.47994 63.0015 7.94302C62.6459 8.35935 62.662 9.04476 62.7088 9.5283C62.7689 10.1499 63.5285 11.0659 63.7067 11.5777C63.8849 12.0894 64.1298 12.1244 64.5702 12.1244Z" fill="url(#paint1_linear_2713_108224)"/>
<path d="M10.4697 1.18066C11.3684 1.18066 12.2449 1.25045 13.0977 1.39258L13.0967 1.39355C13.8231 1.51223 14.445 1.65278 14.9141 1.83398L15.1055 1.91406L15.2168 1.96484L15.3115 2.04199L18.085 4.31543L18.7207 4.83691L18.2871 5.53418L16.0381 9.15723L15.582 9.89258L14.8135 9.49609L10.7588 7.41016C9.90309 7.4526 9.20577 7.75368 8.62012 8.31543L8.51074 8.4248C8.0111 8.95917 7.68457 9.83089 7.68457 11.2119C7.68457 12.2526 7.86511 13.008 8.15723 13.5391L8.2832 13.7412C8.5897 14.1935 8.9744 14.5172 9.44141 14.7344L9.66113 14.8291C10.1865 15.0358 10.7931 15.1474 11.4941 15.1475C12.4105 15.1475 13.1603 15.0759 13.7559 14.9463C14.3913 14.7909 14.9339 14.6158 15.3896 14.4258C15.9001 14.1952 16.3862 13.9736 16.8467 13.7598L18.1777 13.1416V19.3252L17.7393 19.6006C17.1527 19.9693 16.4273 20.299 15.5801 20.5967L15.209 20.7227C14.108 21.0833 12.6796 21.2432 10.9697 21.2432C9.76759 21.2432 8.59648 21.1106 7.45801 20.8438L7.44434 20.8408C6.2542 20.5433 5.17088 20.0205 4.20215 19.2754L4.19531 19.2695C3.32364 18.5859 2.63047 17.6866 2.10254 16.6006L1.88672 16.124C1.32177 14.787 1.06348 13.1354 1.06348 11.2119C1.06348 9.41152 1.32471 7.83645 1.88867 6.52051L2.10352 6.05078C2.6266 4.98082 3.30373 4.08121 4.14551 3.37402L4.49609 3.09277C5.32228 2.46259 6.22056 1.99584 7.18848 1.69922V1.69824C8.27477 1.35425 9.36984 1.1807 10.4697 1.18066ZM25.7822 1.42969V12.6699L25.7793 12.7041L25.6045 15.0918L29.4766 14.876L31.2109 14.6318L31.7549 14.5547L32.0879 14.9932L34.2861 17.8916L34.4316 18.083L34.8555 15.9668V1.42969H48.4199L48.6426 1.56348L49.8916 2.31348L50.6191 2.74902L50.2578 3.5166L48.6084 7.01367L48.3232 7.62012L47.6572 7.5459L45.4609 7.30176H41.2275V8.17578H47.9482V13.9229H44.0322L44.001 13.9209L41.2275 13.7363V15.1221H48.0918L48.3486 15.3301L51.3223 17.7285L52.1016 18.3564L51.4229 19.0928L49.9492 20.6914L49.6709 20.9941H35.1172L34.9043 20.3525L34.4072 18.8643L34.2842 19.0273L33.0596 20.626L32.7783 20.9941H19.6729L19.459 20.3525L18.959 18.8535L18.8809 18.6182L18.9297 18.374L19.4111 15.9629V1.42969H25.7822Z" fill="#FDC69B" stroke="#622E1D" stroke-width="1.87391"/>
<mask id="path-4-outside-1_2713_108224" maskUnits="userSpaceOnUse" x="75.582" y="0.367188" width="92" height="22" fill="black">
<rect fill="white" x="75.582" y="0.367188" width="92" height="22"/>
<path d="M78.0817 20.0569V6.36485L77.582 3.86631L78.0817 2.36719H86.5768C88.459 2.36719 89.9665 2.71698 91.0991 3.41657C92.2318 4.11617 92.7982 5.24884 92.7982 6.81459C92.7982 7.59747 92.6649 8.30539 92.3984 8.93835C92.1319 9.57132 91.7488 10.0627 91.2491 10.4125C92.3817 10.7789 93.2146 11.337 93.7476 12.0865C94.2806 12.8361 94.5471 13.7272 94.5471 14.76C94.5471 16.5756 94.0141 17.9164 92.9481 18.7826C91.8987 19.6321 90.3579 20.0569 88.3258 20.0569H78.0817ZM82.5791 9.23818H86.5268C87.0931 9.23818 87.5012 9.10492 87.7511 8.83841C88.001 8.5719 88.1259 8.2221 88.1259 7.78902C88.1259 7.23934 87.9427 6.86456 87.5762 6.66468C87.2097 6.4648 86.7767 6.36485 86.277 6.36485H82.5791V9.23818ZM82.5791 16.0592H87.5762C88.1758 16.0592 88.6173 15.9842 88.9004 15.8343C89.2003 15.6844 89.3918 15.4929 89.4751 15.2597C89.575 15.0265 89.625 14.7849 89.625 14.5351C89.625 14.102 89.4668 13.7356 89.1503 13.4357C88.8505 13.1192 88.409 12.961 87.8261 12.961H82.5791V16.0592Z"/>
<path d="M97.2844 20.0569L96.7847 18.5577L97.2844 16.0592V2.36719H109.652L110.901 3.11675L109.252 6.61471L107.004 6.36485H101.782V9.11325H108.503V12.986H105.555L101.782 12.7361V16.0592H109.252L112.226 18.4578L110.752 20.0569H97.2844Z"/>
<path d="M117.984 20.0569V6.36485L112.987 6.61471V2.36719H127.604V6.61471L122.482 6.36485V16.0592L122.756 18.5577L122.482 20.0569H117.984Z"/>
<path d="M130.102 20.0569V6.38984L129.602 3.86631L130.102 2.36719H138.097C139.313 2.36719 140.404 2.55874 141.371 2.94185C142.353 3.3083 143.128 3.94127 143.694 4.84074C144.277 5.72356 144.569 6.94785 144.569 8.5136C144.569 9.92944 144.311 11.0788 143.794 11.9616C143.278 12.8277 142.562 13.4774 141.645 13.9105L141.895 14.1853L144.369 17.2835L145.793 18.5577V20.0569H140.171L136.673 14.735H134.6V16.0342L134.849 18.5328L134.6 20.0569H130.102ZM134.6 10.8123H137.048C137.914 10.8123 138.606 10.654 139.122 10.3375C139.638 10.0044 139.896 9.39642 139.896 8.5136C139.896 7.89729 139.772 7.43923 139.522 7.1394C139.272 6.82292 138.922 6.61471 138.472 6.51477C138.039 6.41482 137.531 6.36485 136.948 6.36485H134.35L134.6 10.8123Z"/>
<path d="M146.287 20.0569L147.486 15.8343V12.6612L149.335 11.9116L152.583 2.39217H159.055L163.077 13.5856L165.001 17.1336V20.0569H160.579L159.329 16.0592H152.059L150.984 20.0569H146.287ZM153.708 12.2114H157.955L156.056 6.48978H155.532L153.708 12.2114Z"/>
</mask>
<path d="M78.0817 20.0569V6.36485L77.582 3.86631L78.0817 2.36719H86.5768C88.459 2.36719 89.9665 2.71698 91.0991 3.41657C92.2318 4.11617 92.7982 5.24884 92.7982 6.81459C92.7982 7.59747 92.6649 8.30539 92.3984 8.93835C92.1319 9.57132 91.7488 10.0627 91.2491 10.4125C92.3817 10.7789 93.2146 11.337 93.7476 12.0865C94.2806 12.8361 94.5471 13.7272 94.5471 14.76C94.5471 16.5756 94.0141 17.9164 92.9481 18.7826C91.8987 19.6321 90.3579 20.0569 88.3258 20.0569H78.0817ZM82.5791 9.23818H86.5268C87.0931 9.23818 87.5012 9.10492 87.7511 8.83841C88.001 8.5719 88.1259 8.2221 88.1259 7.78902C88.1259 7.23934 87.9427 6.86456 87.5762 6.66468C87.2097 6.4648 86.7767 6.36485 86.277 6.36485H82.5791V9.23818ZM82.5791 16.0592H87.5762C88.1758 16.0592 88.6173 15.9842 88.9004 15.8343C89.2003 15.6844 89.3918 15.4929 89.4751 15.2597C89.575 15.0265 89.625 14.7849 89.625 14.5351C89.625 14.102 89.4668 13.7356 89.1503 13.4357C88.8505 13.1192 88.409 12.961 87.8261 12.961H82.5791V16.0592Z" fill="#FDC69B"/>
<path d="M97.2844 20.0569L96.7847 18.5577L97.2844 16.0592V2.36719H109.652L110.901 3.11675L109.252 6.61471L107.004 6.36485H101.782V9.11325H108.503V12.986H105.555L101.782 12.7361V16.0592H109.252L112.226 18.4578L110.752 20.0569H97.2844Z" fill="#FDC69B"/>
<path d="M117.984 20.0569V6.36485L112.987 6.61471V2.36719H127.604V6.61471L122.482 6.36485V16.0592L122.756 18.5577L122.482 20.0569H117.984Z" fill="#FDC69B"/>
<path d="M130.102 20.0569V6.38984L129.602 3.86631L130.102 2.36719H138.097C139.313 2.36719 140.404 2.55874 141.371 2.94185C142.353 3.3083 143.128 3.94127 143.694 4.84074C144.277 5.72356 144.569 6.94785 144.569 8.5136C144.569 9.92944 144.311 11.0788 143.794 11.9616C143.278 12.8277 142.562 13.4774 141.645 13.9105L141.895 14.1853L144.369 17.2835L145.793 18.5577V20.0569H140.171L136.673 14.735H134.6V16.0342L134.849 18.5328L134.6 20.0569H130.102ZM134.6 10.8123H137.048C137.914 10.8123 138.606 10.654 139.122 10.3375C139.638 10.0044 139.896 9.39642 139.896 8.5136C139.896 7.89729 139.772 7.43923 139.522 7.1394C139.272 6.82292 138.922 6.61471 138.472 6.51477C138.039 6.41482 137.531 6.36485 136.948 6.36485H134.35L134.6 10.8123Z" fill="#FDC69B"/>
<path d="M146.287 20.0569L147.486 15.8343V12.6612L149.335 11.9116L152.583 2.39217H159.055L163.077 13.5856L165.001 17.1336V20.0569H160.579L159.329 16.0592H152.059L150.984 20.0569H146.287ZM153.708 12.2114H157.955L156.056 6.48978H155.532L153.708 12.2114Z" fill="#FDC69B"/>
<path d="M78.0817 20.0569V6.36485L77.582 3.86631L78.0817 2.36719H86.5768C88.459 2.36719 89.9665 2.71698 91.0991 3.41657C92.2318 4.11617 92.7982 5.24884 92.7982 6.81459C92.7982 7.59747 92.6649 8.30539 92.3984 8.93835C92.1319 9.57132 91.7488 10.0627 91.2491 10.4125C92.3817 10.7789 93.2146 11.337 93.7476 12.0865C94.2806 12.8361 94.5471 13.7272 94.5471 14.76C94.5471 16.5756 94.0141 17.9164 92.9481 18.7826C91.8987 19.6321 90.3579 20.0569 88.3258 20.0569H78.0817ZM82.5791 9.23818H86.5268C87.0931 9.23818 87.5012 9.10492 87.7511 8.83841C88.001 8.5719 88.1259 8.2221 88.1259 7.78902C88.1259 7.23934 87.9427 6.86456 87.5762 6.66468C87.2097 6.4648 86.7767 6.36485 86.277 6.36485H82.5791V9.23818ZM82.5791 16.0592H87.5762C88.1758 16.0592 88.6173 15.9842 88.9004 15.8343C89.2003 15.6844 89.3918 15.4929 89.4751 15.2597C89.575 15.0265 89.625 14.7849 89.625 14.5351C89.625 14.102 89.4668 13.7356 89.1503 13.4357C88.8505 13.1192 88.409 12.961 87.8261 12.961H82.5791V16.0592Z" stroke="#622E1D" stroke-width="3.74781" mask="url(#path-4-outside-1_2713_108224)"/>
<path d="M97.2844 20.0569L96.7847 18.5577L97.2844 16.0592V2.36719H109.652L110.901 3.11675L109.252 6.61471L107.004 6.36485H101.782V9.11325H108.503V12.986H105.555L101.782 12.7361V16.0592H109.252L112.226 18.4578L110.752 20.0569H97.2844Z" stroke="#622E1D" stroke-width="3.74781" mask="url(#path-4-outside-1_2713_108224)"/>
<path d="M117.984 20.0569V6.36485L112.987 6.61471V2.36719H127.604V6.61471L122.482 6.36485V16.0592L122.756 18.5577L122.482 20.0569H117.984Z" stroke="#622E1D" stroke-width="3.74781" mask="url(#path-4-outside-1_2713_108224)"/>
<path d="M130.102 20.0569V6.38984L129.602 3.86631L130.102 2.36719H138.097C139.313 2.36719 140.404 2.55874 141.371 2.94185C142.353 3.3083 143.128 3.94127 143.694 4.84074C144.277 5.72356 144.569 6.94785 144.569 8.5136C144.569 9.92944 144.311 11.0788 143.794 11.9616C143.278 12.8277 142.562 13.4774 141.645 13.9105L141.895 14.1853L144.369 17.2835L145.793 18.5577V20.0569H140.171L136.673 14.735H134.6V16.0342L134.849 18.5328L134.6 20.0569H130.102ZM134.6 10.8123H137.048C137.914 10.8123 138.606 10.654 139.122 10.3375C139.638 10.0044 139.896 9.39642 139.896 8.5136C139.896 7.89729 139.772 7.43923 139.522 7.1394C139.272 6.82292 138.922 6.61471 138.472 6.51477C138.039 6.41482 137.531 6.36485 136.948 6.36485H134.35L134.6 10.8123Z" stroke="#622E1D" stroke-width="3.74781" mask="url(#path-4-outside-1_2713_108224)"/>
<path d="M146.287 20.0569L147.486 15.8343V12.6612L149.335 11.9116L152.583 2.39217H159.055L163.077 13.5856L165.001 17.1336V20.0569H160.579L159.329 16.0592H152.059L150.984 20.0569H146.287ZM153.708 12.2114H157.955L156.056 6.48978H155.532L153.708 12.2114Z" stroke="#622E1D" stroke-width="3.74781" mask="url(#path-4-outside-1_2713_108224)"/>
<defs>
<linearGradient id="paint0_linear_2713_108224" x1="64.1404" y1="0.0683594" x2="64.1404" y2="21.9306" gradientUnits="userSpaceOnUse">
<stop stop-color="#00A7FF"/>
<stop offset="1" stop-color="#00E3FF"/>
</linearGradient>
<linearGradient id="paint1_linear_2713_108224" x1="64.5702" y1="6.37305" x2="64.5702" y2="13.9797" gradientUnits="userSpaceOnUse">
<stop stop-color="#00A7FF"/>
<stop offset="1" stop-color="#00E3FF"/>
</linearGradient>
</defs>
</svg>
