<svg width="152" height="20" viewBox="0 0 152 20" fill="none" xmlns="http://www.w3.org/2000/svg">
<path d="M5.67711 0.743354L7.3043 13.7971H7.44894L13.4153 0.743354H19.0924L9.90781 19.2572H3.03743L0 0.743354H5.67711Z" fill="#FD0E70"/>
<path d="M32.4422 19.2572H25.2102L28.2838 0.743354H35.2265C37.131 0.743354 38.722 1.12605 39.9996 1.89143C41.2773 2.65682 42.1843 3.75065 42.7207 5.17294C43.257 6.59523 43.3625 8.28872 43.0371 10.2534C42.7237 12.1458 42.0879 13.7639 41.1296 15.1079C40.1774 16.4518 38.96 17.4794 37.4775 18.1905C36.001 18.9017 34.3225 19.2572 32.4422 19.2572ZM30.9416 14.9904H32.7677C33.6837 14.9904 34.5003 14.8307 35.2175 14.5112C35.9407 14.1858 36.5434 13.6434 37.0255 12.884C37.5136 12.1187 37.8662 11.073 38.0832 9.74717C38.2881 8.49363 38.282 7.52635 38.0651 6.84534C37.8481 6.1583 37.4353 5.68219 36.8266 5.41702C36.2179 5.14582 35.4314 5.01022 34.4672 5.01022H32.6049L30.9416 14.9904Z" fill="#FD0E70"/>
<path d="M47.5209 19.2572H42.0969L51.2815 0.743354H58.1519L61.1893 19.2572H55.7654L53.9574 5.8419H53.8127L47.5209 19.2572ZM47.7379 11.9529H57.9349L57.2841 15.7136H47.087L47.7379 11.9529Z" fill="#FD0E70"/>
<path d="M68.4236 0.743354L70.0508 13.7971H70.1954L76.1618 0.743354H81.8389L72.6543 19.2572H65.7839L62.7465 0.743354H68.4236Z" fill="white"/>
<path d="M80.5484 19.2572L83.622 0.743354H96.965L96.278 4.79326H87.9612L87.455 7.97534H95.0847L94.3977 12.0252H86.768L86.2617 15.2073H94.5423L93.8553 19.2572H80.5484Z" fill="white"/>
<path d="M110.469 6.85438C110.444 6.53497 110.378 6.25473 110.27 6.01366C110.161 5.76657 110.007 5.55865 109.809 5.3899C109.61 5.21513 109.363 5.08556 109.067 5.00118C108.778 4.91078 108.438 4.86558 108.046 4.86558C107.202 4.86558 106.434 5.06748 105.741 5.47126C105.048 5.87505 104.466 6.45662 103.996 7.21598C103.532 7.97534 103.212 8.89139 103.038 9.96413C102.857 11.0489 102.842 11.977 102.992 12.7484C103.143 13.5199 103.469 14.1105 103.969 14.5203C104.475 14.9301 105.159 15.135 106.021 15.135C106.792 15.135 107.458 15.0235 108.019 14.8005C108.579 14.5775 109.028 14.2611 109.366 13.8513C109.703 13.4415 109.914 12.9594 109.998 12.4049L110.866 12.4953H106.636L107.214 8.91549H115.422L115.007 11.4828C114.729 13.1703 114.133 14.6137 113.217 15.813C112.307 17.0063 111.174 17.9223 109.818 18.5611C108.462 19.1939 106.973 19.5103 105.352 19.5103C103.556 19.5103 102.04 19.1277 100.805 18.3623C99.5693 17.5969 98.6864 16.5061 98.1561 15.0898C97.6317 13.6735 97.5293 11.9891 97.8487 10.0365C98.1018 8.50568 98.5598 7.14968 99.2228 5.96846C99.8917 4.78724 100.708 3.78983 101.673 2.97623C102.637 2.1566 103.701 1.53887 104.864 1.12303C106.027 0.701167 107.232 0.490234 108.48 0.490234C109.571 0.490234 110.562 0.646928 111.454 0.960314C112.346 1.26767 113.108 1.70762 113.741 2.28015C114.374 2.84665 114.847 3.51863 115.16 4.29607C115.48 5.0735 115.609 5.92627 115.549 6.85438H110.469Z" fill="white"/>
<path d="M120.286 19.2572H114.862L124.047 0.743354H130.917L133.954 19.2572H128.53L126.722 5.8419H126.578L120.286 19.2572ZM120.503 11.9529H130.7L130.049 15.7136H119.852L120.503 11.9529Z" fill="white"/>
<path d="M147.094 6.52894C147.148 5.9323 147.004 5.46524 146.66 5.12774C146.317 4.78422 145.738 4.61246 144.924 4.61246C144.406 4.61246 143.972 4.67273 143.623 4.79326C143.279 4.9138 143.011 5.07953 142.818 5.29046C142.631 5.50139 142.514 5.74547 142.465 6.0227C142.411 6.23966 142.414 6.43854 142.475 6.61934C142.541 6.79411 142.664 6.95382 142.845 7.09846C143.032 7.2431 143.276 7.37267 143.577 7.48718C143.885 7.60168 144.249 7.70414 144.671 7.79454L146.118 8.11998C147.106 8.33693 147.935 8.6232 148.604 8.97877C149.279 9.32832 149.809 9.74416 150.195 10.2263C150.58 10.7084 150.834 11.2478 150.954 11.8444C151.081 12.4411 151.084 13.092 150.963 13.7971C150.758 15.0145 150.285 16.045 149.544 16.8888C148.803 17.7325 147.835 18.3743 146.642 18.8143C145.449 19.2542 144.069 19.4742 142.502 19.4742C140.899 19.4742 139.537 19.2361 138.416 18.76C137.301 18.2779 136.493 17.5426 135.993 16.5543C135.499 15.5599 135.378 14.2913 135.631 12.7484H140.404C140.332 13.3149 140.392 13.7911 140.585 14.1768C140.778 14.5625 141.088 14.8548 141.516 15.0536C141.944 15.2525 142.478 15.352 143.116 15.352C143.659 15.352 144.123 15.2857 144.509 15.1531C144.894 15.0205 145.199 14.8367 145.422 14.6016C145.645 14.3666 145.78 14.0984 145.828 13.7971C145.877 13.5199 145.828 13.2728 145.684 13.0558C145.539 12.8388 145.277 12.643 144.897 12.4682C144.518 12.2934 143.996 12.1337 143.333 11.9891L141.562 11.5913C139.989 11.2297 138.801 10.6331 138 9.80141C137.198 8.96973 136.915 7.8307 137.15 6.3843C137.343 5.20308 137.828 4.17252 138.605 3.29263C139.389 2.40671 140.383 1.71967 141.589 1.23151C142.8 0.737327 144.141 0.490234 145.611 0.490234C147.106 0.490234 148.357 0.74034 149.363 1.24055C150.375 1.74076 151.102 2.44287 151.542 3.34687C151.988 4.25086 152.108 5.31155 151.903 6.52894H147.094Z" fill="white"/>
<path d="M20.4173 0.960938L17.3047 11.7192H20.6256L19.0346 19.2579L26.3537 8.39831H22.2861L25.3987 0.960938H20.4173Z" fill="white"/>
</svg>
