<svg width="81" height="48" viewBox="0 0 81 48" fill="none" xmlns="http://www.w3.org/2000/svg">
<path d="M12.3732 47.5467C10.9717 47.5467 9.72452 47.4046 8.63179 47.1205C7.53906 46.8364 6.58292 46.4424 5.76337 45.9387C4.94382 45.4351 4.24305 44.841 3.66105 44.1565C3.09093 43.459 2.62771 42.7035 2.27139 41.8898C1.91506 41.0762 1.65376 40.2173 1.48747 39.3132C1.33306 38.4092 1.25586 37.4922 1.25586 36.5623C1.25586 35.6453 1.33306 34.7413 1.48747 33.8501C1.65376 32.9461 1.91506 32.0872 2.27139 31.2735C2.62771 30.447 3.09093 29.6914 3.66105 29.0069C4.23117 28.3095 4.92601 27.7089 5.74556 27.2052C6.57698 26.6886 7.53906 26.2883 8.63179 26.0041C9.72452 25.7071 10.9717 25.5586 12.3732 25.5586C13.7747 25.5586 15.0219 25.7071 16.1146 26.0041C17.2073 26.2883 18.1635 26.6886 18.983 27.2052C19.8145 27.7089 20.5152 28.3095 21.0854 29.0069C21.6555 29.6914 22.1187 30.447 22.475 31.2735C22.8313 32.0872 23.0867 32.9461 23.2411 33.8501C23.4074 34.7413 23.4905 35.6453 23.4905 36.5623C23.4905 37.4922 23.4074 38.4092 23.2411 39.3132C23.0867 40.2173 22.8313 41.0762 22.475 41.8898C22.1187 42.7035 21.6495 43.459 21.0675 44.1565C20.4974 44.841 19.8026 45.4351 18.983 45.9387C18.1635 46.4424 17.2073 46.8364 16.1146 47.1205C15.0219 47.4046 13.7747 47.5467 12.3732 47.5467ZM8.95248 36.5623C8.95248 37.2597 9.01187 37.9442 9.13064 38.6158C9.24942 39.2745 9.43946 39.8686 9.70076 40.3981C9.97395 40.9147 10.3243 41.3345 10.7519 41.6574C11.1914 41.9673 11.7318 42.1223 12.3732 42.1223C13.0146 42.1223 13.5491 41.9673 13.9767 41.6574C14.4161 41.3345 14.7665 40.9147 15.0278 40.3981C15.301 39.8686 15.497 39.2745 15.6158 38.6158C15.7345 37.9442 15.7939 37.2597 15.7939 36.5623C15.7939 35.8649 15.7345 35.1868 15.6158 34.5282C15.497 33.8566 15.301 33.2625 15.0278 32.7459C14.7665 32.2163 14.4161 31.7901 13.9767 31.4673C13.5491 31.1444 13.0146 30.9829 12.3732 30.9829C11.7318 30.9829 11.1914 31.1444 10.7519 31.4673C10.3243 31.7901 9.97395 32.2163 9.70076 32.7459C9.43946 33.2625 9.24942 33.8566 9.13064 34.5282C9.01187 35.1868 8.95248 35.8649 8.95248 36.5623Z" fill="white"/>
<path d="M41.5662 32.339C40.3784 31.7449 39.2145 31.2864 38.0742 30.9636C36.9459 30.6278 35.9541 30.4599 35.0989 30.4599C34.1962 30.4599 33.5548 30.5567 33.1747 30.7505C32.7947 30.9313 32.6046 31.2542 32.6046 31.7191C32.6046 32.1324 32.8837 32.4617 33.442 32.7071C34.0002 32.9396 34.8198 33.2108 35.9006 33.5208C36.9815 33.8307 37.9495 34.173 38.8047 34.5475C39.6599 34.9221 40.3844 35.387 40.9783 35.9424C41.584 36.4977 42.0413 37.1629 42.3501 37.9378C42.6708 38.7127 42.8312 39.662 42.8312 40.7856C42.8312 41.793 42.653 42.7164 42.2967 43.5559C41.9403 44.3825 41.3999 45.0928 40.6754 45.6869C39.9509 46.281 39.0363 46.7395 37.9317 47.0624C36.8271 47.3853 35.5265 47.5467 34.0299 47.5467C32.6996 47.5467 31.3634 47.4369 30.0213 47.2174C28.6791 47.0107 27.3251 46.6362 25.9592 46.0937V40.1075C27.1825 40.6887 28.4119 41.1537 29.6471 41.5024C30.8824 41.8511 32.0583 42.0254 33.1747 42.0254C35.182 42.0254 36.1857 41.5734 36.1857 40.6693C36.1857 40.5144 36.1382 40.3723 36.0432 40.2431C35.9481 40.114 35.77 39.9913 35.5087 39.8751C35.2593 39.7459 34.9029 39.6168 34.4397 39.4876C33.9884 39.3455 33.4064 39.1776 32.6937 38.9839C31.7079 38.7256 30.7755 38.3963 29.8966 37.9959C29.0295 37.5826 28.2693 37.0854 27.6161 36.5042C26.9747 35.9101 26.464 35.2191 26.0839 34.4313C25.7157 33.6435 25.5316 32.7459 25.5316 31.7385C25.5316 30.8344 25.7038 30.0014 26.0482 29.2394C26.4046 28.4774 26.9331 27.8252 27.6339 27.2827C28.3465 26.7403 29.2255 26.3205 30.2707 26.0235C31.3278 25.7135 32.5512 25.5586 33.9408 25.5586C34.7485 25.5586 35.5206 25.5973 36.257 25.6748C37.0052 25.7523 37.712 25.8491 38.3771 25.9654C39.0422 26.0687 39.6599 26.1849 40.23 26.3141C40.812 26.4303 41.3465 26.5401 41.8334 26.6434L41.5662 32.339Z" fill="white"/>
<path d="M46.1015 17.2282H53.7981V28.9488C54.1307 28.4451 54.5583 27.9866 55.0809 27.5733C55.6035 27.16 56.1796 26.8049 56.8091 26.5078C57.4386 26.1979 58.1037 25.9654 58.8045 25.8104C59.5053 25.6425 60.206 25.5586 60.9068 25.5586C61.7739 25.5586 62.5875 25.7135 63.3476 26.0235C64.1197 26.3205 64.7908 26.8049 65.3609 27.4765C65.931 28.1481 66.3764 29.0134 66.6971 30.0724C67.0297 31.1186 67.196 32.3842 67.196 33.8695V46.9849H59.4993V35.9424C59.4993 34.9737 59.4221 34.1665 59.2677 33.5208C59.1252 32.875 58.9351 32.3584 58.6976 31.971C58.46 31.5706 58.1869 31.2929 57.8781 31.1379C57.5811 30.97 57.2782 30.8861 56.9694 30.8861C56.6131 30.8861 56.2568 30.9636 55.9004 31.1186C55.556 31.2606 55.2353 31.4673 54.9384 31.7385C54.6533 32.0097 54.4098 32.3326 54.2079 32.7071C54.006 33.0817 53.8694 33.4949 53.7981 33.947V46.9849H46.1015V17.2282Z" fill="white"/>
<path d="M71.5887 26.0816H79.2854V46.9849H71.5887V26.0816ZM75.4549 21.7809C74.7778 21.7809 74.1424 21.7034 73.5485 21.5484C72.9546 21.3934 72.438 21.1803 71.9985 20.9091C71.5709 20.6379 71.2265 20.3085 70.9652 19.9211C70.7157 19.5336 70.591 19.1074 70.591 18.6425C70.591 18.1259 70.7157 17.6738 70.9652 17.2864C71.2146 16.886 71.559 16.5567 71.9985 16.2983C72.438 16.04 72.9546 15.8463 73.5485 15.7172C74.1424 15.588 74.7838 15.5234 75.4727 15.5234C76.1616 15.5234 76.803 15.588 77.3968 15.7172C78.0026 15.8463 78.5252 16.04 78.9647 16.2983C79.4041 16.5567 79.7486 16.886 79.998 17.2864C80.2474 17.6738 80.3721 18.1259 80.3721 18.6425C80.3721 19.1074 80.2415 19.5336 79.9802 19.9211C79.7308 20.3085 79.3863 20.6379 78.9468 20.9091C78.5074 21.1803 77.9848 21.3934 77.379 21.5484C76.7851 21.7034 76.1438 21.7809 75.4549 21.7809Z" fill="white"/>
<path d="M0 3.20281C0.302886 3.00691 0.507914 3.15057 0.69617 3.30356C1.11555 3.64312 1.54611 3.97336 1.93567 4.34557C4.49856 6.7847 7.05523 9.23068 9.60568 11.6835C9.84613 11.913 10.0651 12.1649 10.3513 12.4727C10.437 12.232 10.4948 12.0865 10.5376 11.9382C11.5404 8.62338 12.5445 5.30953 13.5497 1.99661C13.6857 1.57081 13.8533 1.15578 14.0511 0.754969C14.2375 0.363165 14.5292 0.351038 14.7492 0.728849C14.9606 1.10083 15.1474 1.48631 15.3083 1.8828C16.6187 5.02843 19.3269 11.5622 19.4089 11.7423C19.5152 11.5883 19.5953 11.4783 19.6718 11.3598C21.5739 8.24495 25.6465 1.61134 25.7873 1.41451C25.914 1.2354 26.0669 1.11972 26.3716 1.24566C26.3749 1.49196 26.3612 1.7382 26.3306 1.98262C26.2095 2.64216 26.0892 3.30356 25.9168 3.95003C25.5319 5.39971 25.4387 6.88763 25.2933 8.36995C25.27 8.61063 25.2467 8.85131 25.2001 9.08919C25.1666 9.27577 25.1069 9.49965 24.8684 9.44928C24.7509 9.42409 24.6298 9.24032 24.5822 9.10225C24.5253 8.90574 24.4956 8.70235 24.4937 8.49776C24.4358 7.34428 24.4942 6.18791 24.668 5.04615C24.6773 4.97619 24.6754 4.90529 24.6848 4.70846C24.5347 4.94447 24.4434 5.0816 24.3632 5.21593C22.9833 7.64139 21.6031 10.0699 20.2226 12.5016C20.1077 12.715 19.9749 12.9182 19.8255 13.1089C19.5385 13.4569 19.08 13.4093 18.8703 13.0072C18.6988 12.6779 18.5506 12.3337 18.4043 11.9904C17.286 9.31122 14.6252 2.88097 14.381 2.26994C14.3074 2.46305 14.2552 2.57406 14.2207 2.69067C13.185 6.22436 12.1456 9.76023 11.1024 13.2983C10.944 13.8337 10.5787 13.942 10.1453 13.5567C9.47801 12.9625 8.83309 12.344 8.18818 11.7292C6.39882 10.0389 4.61226 8.34663 2.82849 6.65255C2.74919 6.57427 2.65636 6.51105 2.55449 6.46597C4.60425 10.9798 5.77067 15.8451 5.99062 20.7985C6.13321 20.764 6.27021 20.7388 6.40907 20.6959C10.272 19.4916 14.2319 19.0503 18.2608 19.2509C19.313 19.3031 20.3623 19.5168 21.4024 19.7108C21.9737 19.8181 22.1219 20.0961 22.1135 20.7957C21.9005 20.7974 21.6876 20.7859 21.476 20.7612C19.2049 20.3601 16.916 20.3881 14.6271 20.5103C11.6103 20.6689 8.63552 21.1493 5.67376 21.723C4.80052 21.8928 4.77815 21.8517 4.73434 20.959C4.62883 18.93 4.34251 16.9144 3.87881 14.9364C2.99345 11.1023 1.88535 7.33727 0.221806 3.756C0.13793 3.57409 0.0726927 3.38472 0 3.20281Z" fill="#5DFFF3"/>
<ellipse cx="75.6634" cy="18.348" rx="5.33721" ry="3.45349" fill="#5DFFF3"/>
</svg>
