<svg width="182" height="48" viewBox="0 0 182 48" fill="none" xmlns="http://www.w3.org/2000/svg">
<path d="M50.7431 0.0448179H62.3073C65.0711 0.0448179 67.5076 0.578829 69.6168 1.64685C71.7502 2.6906 73.3988 4.17127 74.5625 6.08885C75.7504 8.00644 76.3444 10.2396 76.3444 12.7883C76.3444 15.3369 75.7504 17.5701 74.5625 19.4877C73.3988 21.4053 71.7502 22.8981 69.6168 23.9661C67.5076 25.0098 65.0711 25.5317 62.3073 25.5317H50.7431V0.0448179ZM62.0164 20.6892C64.562 20.6892 66.5863 19.9853 68.0894 18.5774C69.6168 17.1453 70.3805 15.2156 70.3805 12.7883C70.3805 10.3609 69.6168 8.44335 68.0894 7.03551C66.5863 5.60339 64.562 4.88733 62.0164 4.88733H56.6343V20.6892H62.0164Z" fill="white"/>
<path d="M97.0062 25.5317L92.0969 18.4318H86.6784V25.5317H80.7872V0.0448179H91.806C94.0606 0.0448179 96.0122 0.421053 97.6608 1.17352C99.3336 1.92599 100.619 2.99402 101.516 4.37759C102.413 5.76116 102.861 7.3996 102.861 9.29292C102.861 11.1862 102.4 12.8247 101.479 14.2082C100.582 15.5675 99.2973 16.6113 97.6244 17.3395L103.334 25.5317H97.0062ZM96.8971 9.29292C96.8971 7.8608 96.4365 6.7685 95.5153 6.01603C94.594 5.23929 93.2485 4.85092 91.4787 4.85092H86.6784V13.7349H91.4787C93.2485 13.7349 94.594 13.3465 95.5153 12.5698C96.4365 11.7931 96.8971 10.7008 96.8971 9.29292Z" fill="white"/>
<path d="M124.293 20.0702H112.474L110.22 25.5317H104.183L115.529 0.0448179H121.348L132.73 25.5317H126.548L124.293 20.0702ZM122.438 15.5918L118.402 5.83398L114.365 15.5918H122.438Z" fill="white"/>
<path d="M144.644 15.519L141.226 19.0872V25.5317H135.371V0.0448179H141.226V11.9508L152.499 0.0448179H159.045L148.499 11.4047L159.663 25.5317H152.79L144.644 15.519Z" fill="white"/>
<path d="M182 20.7984V25.5317H162.29V0.0448179H181.527V4.7781H168.145V10.3124H179.964V14.9H168.145V20.7984H182Z" fill="white"/>
<path d="M55.3252 47.935C54.0281 47.935 52.8523 47.6559 51.7977 47.0976C50.7552 46.5272 49.931 45.7444 49.3249 44.7492C48.7309 43.7418 48.4339 42.6071 48.4339 41.3449C48.4339 40.0826 48.7309 38.9539 49.3249 37.9587C49.931 36.9514 50.7552 36.1686 51.7977 35.6103C52.8523 35.0399 54.0342 34.7547 55.3433 34.7547C56.4464 34.7547 57.4404 34.9489 58.3253 35.3372C59.2223 35.7256 59.9739 36.2839 60.58 37.0121L58.689 38.7598C57.8283 37.7646 56.7616 37.267 55.4888 37.267C54.7009 37.267 53.9978 37.4429 53.3796 37.7949C52.7614 38.1347 52.2765 38.6141 51.925 39.2331C51.5856 39.8521 51.4159 40.556 51.4159 41.3449C51.4159 42.1337 51.5856 42.8377 51.925 43.4566C52.2765 44.0756 52.7614 44.5611 53.3796 44.913C53.9978 45.2528 54.7009 45.4228 55.4888 45.4228C56.7616 45.4228 57.8283 44.9191 58.689 43.9118L60.58 45.6594C59.9739 46.3998 59.2223 46.9641 58.3253 47.3525C57.4283 47.7408 56.4282 47.935 55.3252 47.935Z" fill="#DC3E4C"/>
<path d="M73.2484 44.9858H67.339L66.2116 47.7166H63.1933L68.8663 34.9731H71.7756L77.4668 47.7166H74.3757L73.2484 44.9858ZM72.321 42.7466L70.3028 37.8677L68.2845 42.7466H72.321Z" fill="#DC3E4C"/>
<path d="M85.5149 47.935C84.5088 47.935 83.533 47.8015 82.5875 47.5345C81.6541 47.2554 80.9025 46.8974 80.3328 46.4604L81.3329 44.2394C81.8783 44.6399 82.5269 44.9616 83.2784 45.2043C84.03 45.447 84.7815 45.5684 85.5331 45.5684C86.3695 45.5684 86.9877 45.447 87.3877 45.2043C87.7877 44.9494 87.9877 44.6157 87.9877 44.203C87.9877 43.8996 87.8665 43.6508 87.6241 43.4566C87.3938 43.2503 87.0907 43.0865 86.715 42.9651C86.3513 42.8437 85.8543 42.7102 85.224 42.5646C84.2542 42.334 83.4602 42.1034 82.842 41.8728C82.2238 41.6422 81.6905 41.272 81.242 40.7623C80.8056 40.2526 80.5874 39.5729 80.5874 38.7233C80.5874 37.983 80.7874 37.3155 81.1874 36.7208C81.5874 36.114 82.1874 35.6346 82.9875 35.2826C83.7997 34.9307 84.7876 34.7547 85.9513 34.7547C86.7634 34.7547 87.5574 34.8518 88.3332 35.046C89.109 35.2401 89.7878 35.5193 90.3697 35.8834L89.4605 38.1226C88.2847 37.4551 87.1089 37.1213 85.9331 37.1213C85.1088 37.1213 84.4967 37.2548 84.0966 37.5218C83.7087 37.7888 83.5148 38.1408 83.5148 38.5777C83.5148 39.0146 83.739 39.3423 84.1876 39.5608C84.6482 39.7671 85.3452 39.9734 86.2786 40.1797C87.2483 40.4103 88.0423 40.6409 88.6605 40.8715C89.2787 41.1021 89.806 41.4662 90.2424 41.9638C90.6909 42.4614 90.9152 43.135 90.9152 43.9846C90.9152 44.7128 90.7091 45.3803 90.2969 45.9871C89.8969 46.5818 89.2908 47.0551 88.4787 47.4071C87.6665 47.7591 86.6786 47.935 85.5149 47.935Z" fill="#DC3E4C"/>
<path d="M95.4735 34.9731H98.4191V47.7166H95.4735V34.9731Z" fill="#DC3E4C"/>
<path d="M115.659 34.9731V47.7166H113.24L106.895 39.9795V47.7166H103.985V34.9731H106.422L112.749 42.7102V34.9731H115.659Z" fill="#DC3E4C"/>
<path d="M127.379 47.935C126.058 47.935 124.864 47.6498 123.797 47.0794C122.743 46.509 121.913 45.7262 121.306 44.731C120.712 43.7236 120.416 42.5949 120.416 41.3449C120.416 40.0948 120.712 38.9721 121.306 37.9769C121.913 36.9696 122.743 36.1807 123.797 35.6103C124.864 35.0399 126.058 34.7547 127.379 34.7547C128.701 34.7547 129.889 35.0399 130.943 35.6103C131.998 36.1807 132.828 36.9696 133.434 37.9769C134.04 38.9721 134.343 40.0948 134.343 41.3449C134.343 42.5949 134.04 43.7236 133.434 44.731C132.828 45.7262 131.998 46.509 130.943 47.0794C129.889 47.6498 128.701 47.935 127.379 47.935ZM127.379 45.4228C128.131 45.4228 128.81 45.2528 129.416 44.913C130.022 44.5611 130.495 44.0756 130.834 43.4566C131.186 42.8377 131.362 42.1337 131.362 41.3449C131.362 40.556 131.186 39.8521 130.834 39.2331C130.495 38.6141 130.022 38.1347 129.416 37.7949C128.81 37.4429 128.131 37.267 127.379 37.267C126.628 37.267 125.949 37.4429 125.343 37.7949C124.737 38.1347 124.258 38.6141 123.907 39.2331C123.567 39.8521 123.397 40.556 123.397 41.3449C123.397 42.1337 123.567 42.8377 123.907 43.4566C124.258 44.0756 124.737 44.5611 125.343 44.913C125.949 45.2528 126.628 45.4228 127.379 45.4228Z" fill="#DC3E4C"/>
<path d="M35.2757 16.319C26.2153 9.5754 23.0903 4.17874 20.972 0C18.8508 4.17874 15.7288 9.5754 6.66838 16.319C-8.7828 27.8173 5.76054 43.8633 18.5481 35.0318C17.7152 40.5125 14.8719 44.5082 11.9836 46.2301V48H29.9605V46.2301C27.0722 44.5082 24.2289 40.5125 23.3959 35.0318C36.1835 43.8633 50.7269 27.8173 35.2757 16.319Z" fill="#DC3E4C"/>
</svg>
