<svg width="196" height="28" viewBox="0 0 196 28" fill="none" xmlns="http://www.w3.org/2000/svg">
<path d="M0.271662 0H9.70601C9.76037 0 9.80155 3.68146e-08 9.84272 0.0428236C9.88898 0.0641374 9.92753 0.0992293 9.95307 0.143294L21.4331 19.2047C21.4656 19.2535 21.483 19.3108 21.483 19.3694C21.483 19.428 21.4656 19.4854 21.4331 19.5341L16.7373 27.3082C16.7107 27.351 16.6746 27.387 16.6319 27.4136C16.5889 27.4388 16.54 27.4521 16.4903 27.4521C16.4405 27.4521 16.3916 27.4388 16.3486 27.4136C16.3059 27.387 16.2698 27.351 16.2432 27.3082L0.0377799 0.457883C0.0129852 0.412112 0 0.360879 0 0.308824C0 0.256768 0.0129852 0.205536 0.0377799 0.159765C0.0608223 0.114337 0.0940858 0.0748721 0.134956 0.0444709C0.176695 0.0197637 0.223375 0.00457829 0.271662 0ZM20.0462 0H32.666C32.722 0 32.7632 0.0164706 32.8044 0.0428236C32.8446 0.0734126 32.8773 0.112863 32.8999 0.158118C32.9242 0.201614 32.9382 0.250044 32.9411 0.299765C32.9411 0.370589 32.9411 0.415059 32.8999 0.457883L26.5966 10.9299C26.5708 10.9726 26.5347 11.0082 26.4915 11.0332C26.4483 11.0583 26.3995 11.072 26.3495 11.0732C26.3001 11.0714 26.2517 11.0584 26.2079 11.0353C26.1652 11.0087 26.1291 10.9726 26.1025 10.9299L19.786 0.457883C19.7476 0.389644 19.7368 0.30929 19.7558 0.233325C19.7748 0.157359 19.8221 0.0915492 19.8881 0.0494121C19.9319 0.0217846 19.9816 0.00485631 20.0331 0H20.0462Z" fill="#29FED9"/>
<path d="M69.3042 14.128C69.3042 14.5716 69.2699 15.2029 69.2012 16.0219H47.6162C47.994 18.0353 48.9728 19.6392 50.5526 20.8336C52.1667 21.9939 54.1587 22.574 56.5284 22.574C59.5506 22.574 62.0406 21.5844 63.9981 19.6051L67.4497 23.5466C66.2133 25.014 64.6507 26.1231 62.7618 26.8739C60.8729 27.6246 58.7436 28 56.3738 28C53.3516 28 50.69 27.4028 48.3889 26.2084C46.0879 25.014 44.302 23.3589 43.0313 21.2431C41.7949 19.0932 41.1768 16.6703 41.1768 13.9744C41.1768 11.3126 41.7778 8.92383 42.9798 6.80804C44.2162 4.65813 45.9162 2.98598 48.0798 1.79159C50.2435 0.597197 52.6819 0 55.395 0C58.0739 0 60.4607 0.597197 62.5557 1.79159C64.685 2.95186 66.3335 4.60695 67.5012 6.75685C68.7032 8.87264 69.3042 11.3297 69.3042 14.128ZM55.395 5.11883C53.3344 5.11883 51.5829 5.73309 50.1405 6.96161C48.7324 8.156 47.8738 9.7599 47.5647 11.7733H63.1739C62.8991 9.79403 62.0577 8.19013 60.6496 6.96161C59.2415 5.73309 57.49 5.11883 55.395 5.11883Z" fill="white"/>
<path d="M85.7413 4.29982C87.5959 1.43327 90.8585 0 95.5293 0V6.09141C94.9798 5.98903 94.4818 5.93784 94.0353 5.93784C91.5282 5.93784 89.5706 6.67154 88.1626 8.13894C86.7545 9.57221 86.0504 11.6539 86.0504 14.3839V27.6417H79.611V0.307129H85.7413V4.29982Z" fill="white"/>
<path d="M113.714 28C111.482 28 109.301 27.7099 107.171 27.1298C105.042 26.5497 103.342 25.816 102.071 24.9287L104.544 20.0658C105.78 20.8848 107.257 21.5503 108.974 22.0622C110.726 22.5399 112.443 22.7788 114.126 22.7788C117.972 22.7788 119.896 21.7721 119.896 19.7587C119.896 18.8032 119.398 18.1377 118.402 17.7623C117.44 17.387 115.878 17.0286 113.714 16.6874C111.447 16.3461 109.593 15.9537 108.15 15.5101C106.742 15.0664 105.506 14.2986 104.441 13.2066C103.411 12.0804 102.896 10.5277 102.896 8.54844C102.896 5.9549 103.977 3.89031 106.141 2.35466C108.339 0.784887 111.293 0 115.002 0C116.891 0 118.78 0.221816 120.668 0.665448C122.557 1.07495 124.103 1.63802 125.305 2.35466L122.832 7.21755C120.497 5.85253 117.869 5.17002 114.95 5.17002C113.061 5.17002 111.619 5.46008 110.623 6.04022C109.661 6.58623 109.18 7.31993 109.18 8.24132C109.18 9.26508 109.696 9.99878 110.726 10.4424C111.791 10.8519 113.422 11.2444 115.62 11.6197C117.818 11.961 119.621 12.3534 121.029 12.7971C122.437 13.2407 123.639 13.9915 124.635 15.0494C125.665 16.1073 126.181 17.6088 126.181 19.5539C126.181 22.1133 125.064 24.1609 122.832 25.6965C120.6 27.2322 117.56 28 113.714 28Z" fill="white"/>
<path d="M162.481 0.307129V27.6417H156.351V24.1609C155.32 25.3894 154.032 26.3449 152.487 27.0274C150.941 27.6758 149.276 28 147.49 28C143.815 28 140.913 26.9933 138.784 24.9799C136.689 22.9324 135.641 19.9122 135.641 15.9196V0.307129H142.081V15.0494C142.081 17.5064 142.63 19.3492 143.729 20.5777C144.863 21.7721 146.46 22.3693 148.52 22.3693C150.821 22.3693 152.642 21.6697 153.981 20.2706C155.355 18.8373 156.042 16.7898 156.042 14.128V0.307129H162.481Z" fill="white"/>
<path d="M183.534 28C181.301 28 179.12 27.7099 176.991 27.1298C174.862 26.5497 173.162 25.816 171.891 24.9287L174.364 20.0658C175.6 20.8848 177.077 21.5503 178.794 22.0622C180.546 22.5399 182.263 22.7788 183.946 22.7788C187.792 22.7788 189.715 21.7721 189.715 19.7587C189.715 18.8032 189.217 18.1377 188.221 17.7623C187.26 17.387 185.697 17.0286 183.534 16.6874C181.267 16.3461 179.412 15.9537 177.97 15.5101C176.562 15.0664 175.325 14.2986 174.261 13.2066C173.23 12.0804 172.715 10.5277 172.715 8.54844C172.715 5.9549 173.797 3.89031 175.961 2.35466C178.159 0.784887 181.112 0 184.821 0C186.71 0 188.599 0.221816 190.488 0.665448C192.377 1.07495 193.922 1.63802 195.125 2.35466L192.652 7.21755C190.316 5.85253 187.689 5.17002 184.77 5.17002C182.881 5.17002 181.439 5.46008 180.443 6.04022C179.481 6.58623 179 7.31993 179 8.24132C179 9.26508 179.515 9.99878 180.546 10.4424C181.61 10.8519 183.242 11.2444 185.44 11.6197C187.638 11.961 189.441 12.3534 190.849 12.7971C192.257 13.2407 193.459 13.9915 194.455 15.0494C195.485 16.1073 196 17.6088 196 19.5539C196 22.1133 194.884 24.1609 192.652 25.6965C190.419 27.2322 187.38 28 183.534 28Z" fill="white"/>
</svg>
