<svg width="198" height="38" viewBox="0 0 198 38" fill="none" xmlns="http://www.w3.org/2000/svg">
<path d="M59.5234 30.0677V3.17773H70.893C72.7458 3.17773 74.334 3.49055 75.6574 4.11618C76.9809 4.74181 77.9915 5.64415 78.6893 6.82322C79.3871 7.97823 79.736 9.38589 79.736 11.0462C79.736 12.2253 79.4112 13.3562 78.7615 14.439C78.1118 15.4978 77.041 16.3881 75.5491 17.11V14.3669C76.9688 14.9203 78.0637 15.582 78.8337 16.352C79.6037 17.122 80.1331 17.9642 80.4218 18.8786C80.7106 19.7689 80.8549 20.7074 80.8549 21.6939C80.8549 24.3408 79.9767 26.3982 78.2201 27.866C76.4635 29.3338 74.0212 30.0677 70.893 30.0677H59.5234ZM65.118 25.195H71.5427C72.6737 25.195 73.576 24.8702 74.2498 24.2205C74.9235 23.5708 75.2604 22.7286 75.2604 21.6939C75.2604 20.6352 74.9235 19.7809 74.2498 19.1313C73.576 18.4816 72.6737 18.1567 71.5427 18.1567H65.118V25.195ZM65.118 13.284H71.2901C72.1563 13.284 72.8421 13.0434 73.3474 12.5622C73.8768 12.0568 74.1415 11.3951 74.1415 10.577C74.1415 9.75886 73.8768 9.10917 73.3474 8.62792C72.8421 8.1226 72.1563 7.86995 71.2901 7.86995H65.118V13.284Z" fill="white"/>
<path d="M93.5394 30.5008C91.446 30.5008 89.6292 30.0436 88.0892 29.1293C86.5492 28.1908 85.3581 26.9396 84.5159 25.3755C83.6738 23.8114 83.2527 22.0789 83.2527 20.178C83.2527 18.2048 83.6858 16.4483 84.552 14.9083C85.4424 13.3683 86.6335 12.1531 88.1253 11.2628C89.6172 10.3725 91.3016 9.9273 93.1785 9.9273C94.7426 9.9273 96.1262 10.18 97.3293 10.6853C98.5324 11.1665 99.543 11.8523 100.361 12.7426C101.203 13.6329 101.841 14.6676 102.274 15.8467C102.707 17.0017 102.924 18.265 102.924 19.6366C102.924 20.0216 102.9 20.4066 102.852 20.7916C102.828 21.1525 102.767 21.4653 102.671 21.73H87.9088V17.7597H99.6032L97.0405 19.6366C97.2812 18.6019 97.2691 17.6875 97.0044 16.8934C96.7397 16.0753 96.2705 15.4376 95.5968 14.9804C94.9471 14.4992 94.141 14.2586 93.1785 14.2586C92.24 14.2586 91.4339 14.4872 90.7602 14.9444C90.0864 15.4015 89.5811 16.0753 89.2442 16.9656C88.9074 17.8559 88.775 18.9388 88.8472 20.2141C88.751 21.3209 88.8833 22.2955 89.2442 23.1377C89.6052 23.9799 90.1586 24.6416 90.9046 25.1228C91.6505 25.58 92.5529 25.8086 93.6116 25.8086C94.5741 25.8086 95.3922 25.6161 96.066 25.2311C96.7638 24.8461 97.3052 24.3167 97.6902 23.643L102.021 25.7003C101.636 26.6629 101.023 27.505 100.181 28.2269C99.3626 28.9488 98.388 29.5143 97.2571 29.9233C96.1262 30.3083 94.8869 30.5008 93.5394 30.5008Z" fill="white"/>
<path d="M115.605 30.2843C113.222 30.2843 111.37 29.6466 110.046 28.3713C108.747 27.0719 108.097 25.2672 108.097 22.9572V15.0526H104.776V10.3604H104.957C105.968 10.3604 106.738 10.1078 107.267 9.60245C107.82 9.09714 108.097 8.33917 108.097 7.32854V5.88478H113.511V10.3604H118.131V15.0526H113.511V22.5963C113.511 23.27 113.632 23.8355 113.872 24.2927C114.113 24.7258 114.486 25.0507 114.991 25.2672C115.496 25.4838 116.122 25.5921 116.868 25.5921C117.036 25.5921 117.229 25.58 117.445 25.556C117.662 25.5319 117.891 25.5078 118.131 25.4838V30.0677C117.77 30.1158 117.361 30.164 116.904 30.2121C116.447 30.2602 116.014 30.2843 115.605 30.2843Z" fill="white"/>
<path d="M123.219 30.0677V3.17773H128.813V16.6408L127.261 16.0994L138.017 3.17773H145.019L134.372 16.0272L134.697 12.0568L145.236 30.0677H138.703L132.134 18.6981L128.813 22.7045V30.0677H123.219Z" fill="white"/>
<path d="M147.601 30.0677V10.3604H153.015V30.0677H147.601ZM147.601 8.59182V3.17773H153.015V8.59182H147.601Z" fill="white"/>
<path d="M156.977 30.0677V10.3604H162.03V14.2586L161.741 13.3923C162.199 12.2132 162.933 11.347 163.943 10.7936C164.978 10.216 166.181 9.9273 167.553 9.9273C169.044 9.9273 170.344 10.2401 171.451 10.8657C172.582 11.4914 173.46 12.3697 174.086 13.5006C174.711 14.6075 175.024 15.9069 175.024 17.3987V30.0677H169.61V18.5537C169.61 17.7837 169.453 17.122 169.141 16.5686C168.852 16.0151 168.431 15.582 167.877 15.2692C167.348 14.9564 166.722 14.8 166 14.8C165.303 14.8 164.677 14.9564 164.124 15.2692C163.57 15.582 163.137 16.0151 162.824 16.5686C162.535 17.122 162.391 17.7837 162.391 18.5537V30.0677H156.977Z" fill="white"/>
<path d="M188.257 38.0084C186.741 38.0084 185.334 37.7557 184.034 37.2504C182.735 36.7451 181.616 36.0352 180.677 35.1209C179.763 34.2305 179.101 33.1718 178.692 31.9446L183.709 30.176C183.974 31.0904 184.515 31.8122 185.334 32.3416C186.152 32.871 187.126 33.1357 188.257 33.1357C189.147 33.1357 189.918 32.9673 190.567 32.6304C191.217 32.3176 191.71 31.8483 192.047 31.2227C192.408 30.5971 192.588 29.8632 192.588 29.021V24.5092L193.635 25.8086C192.961 26.9155 192.095 27.7457 191.036 28.2991C189.978 28.8285 188.738 29.0932 187.319 29.0932C185.49 29.0932 183.854 28.6841 182.41 27.866C180.966 27.0238 179.835 25.8808 179.017 24.4371C178.199 22.9692 177.79 21.3089 177.79 19.4561C177.79 17.6033 178.199 15.967 179.017 14.5473C179.835 13.1036 180.954 11.9726 182.374 11.1545C183.794 10.3364 185.406 9.9273 187.21 9.9273C188.63 9.9273 189.869 10.216 190.928 10.7936C191.987 11.347 192.889 12.2012 193.635 13.3562L192.949 14.6556V10.3604H198.003V29.021C198.003 30.7535 197.581 32.2935 196.739 33.641C195.897 35.0126 194.742 36.0834 193.274 36.8534C191.83 37.6234 190.158 38.0084 188.257 38.0084ZM188.077 24.1844C188.991 24.1844 189.785 23.9919 190.459 23.6069C191.133 23.2219 191.65 22.6805 192.011 21.9827C192.396 21.2849 192.588 20.4667 192.588 19.5283C192.588 18.5898 192.396 17.7717 192.011 17.0739C191.626 16.352 191.097 15.7986 190.423 15.4136C189.749 15.0045 188.967 14.8 188.077 14.8C187.162 14.8 186.344 15.0045 185.622 15.4136C184.925 15.7986 184.371 16.352 183.962 17.0739C183.577 17.7717 183.385 18.5898 183.385 19.5283C183.385 20.4427 183.577 21.2488 183.962 21.9466C184.371 22.6444 184.925 23.1978 185.622 23.6069C186.344 23.9919 187.162 24.1844 188.077 24.1844Z" fill="white"/>
<path d="M24.4774 -0.0084667C24.4115 -0.00234177 24.354 0.0244935 24.3109 0.0685346C21.4855 2.907 18.51 5.96422 15.9142 9.38952C14.7043 10.9875 13.6978 12.515 12.8362 14.0588C12.8324 14.0068 12.7928 13.959 12.7312 13.9246C10.796 12.8463 9.2619 12.0786 7.75692 11.4367C6.79239 11.024 5.8859 10.6895 4.98612 10.4141C4.02421 10.1181 3.12821 9.92005 2.24739 9.80892C1.6069 9.73018 0.986529 9.70597 0.40291 9.73601C0.341661 9.74184 0.292373 9.76022 0.247457 9.79376C0.244832 9.79376 0.242498 9.79376 0.239873 9.79405C0.226165 9.79522 0.216538 9.79785 0.206913 9.7996C0.120872 9.82672 0.0637074 9.8763 0.0310411 9.94164C-0.0027919 10.0081 -0.00920301 10.0843 0.0129634 10.1557C1.34032 14.3924 3.01534 18.7216 4.99165 23.0236C5.18532 23.4468 5.38102 23.8677 5.58023 24.2874C5.58548 24.3008 5.59102 24.3148 5.59802 24.3268C5.8016 24.7543 6.00839 25.1828 6.21635 25.6101C6.18077 25.6923 6.18076 25.7722 6.21605 25.8446C6.24318 25.9035 6.30618 25.9715 6.37531 25.9878L6.50218 26.1917C6.53222 26.2544 6.60981 26.2981 6.67339 26.3139C6.70926 26.3209 6.73726 26.3232 6.76234 26.3209C6.80755 26.3165 6.84984 26.3013 6.88805 26.2762C6.94463 26.2398 6.9878 26.1797 7.00618 26.1109C7.82779 26.2827 8.71736 26.404 9.64543 26.4749C10.638 26.5513 11.7119 26.5737 12.929 26.5431C14.4039 26.5067 15.9016 26.3941 17.3497 26.2853L17.4081 26.2809L17.4635 26.2771L17.7595 26.2547C18.344 26.21 18.9285 26.1672 19.5127 26.1298C21.711 25.9878 23.9734 25.9478 26.4047 26.0015C28.4513 26.0485 30.6674 26.1634 33.3787 26.3634C34.3242 26.4334 35.2704 26.5093 36.2154 26.588C36.4379 26.6076 36.6608 26.6283 36.8848 26.6504C37.261 26.6872 37.7294 26.7327 38.178 26.7563C38.719 26.7831 39.1825 26.7776 39.5955 26.7382C39.8104 26.7178 40.0301 26.6854 40.2485 26.6423C40.8006 26.5288 41.2679 26.3314 41.6377 26.0555C41.6409 26.0689 41.6567 26.0817 41.6826 26.0948C41.7293 26.1196 41.7853 26.1304 41.841 26.1252C41.9405 26.1155 42.0239 26.0592 42.0589 25.9773L42.3453 25.3091L42.3657 25.2607C43.6677 22.2256 45.0143 19.0873 46.1871 15.9289C46.1932 15.9172 46.1984 15.9024 46.204 15.8849C46.5164 15.0501 46.8249 14.1795 47.1213 13.2969C47.4835 12.2274 47.8181 11.1453 48.1153 10.0802C48.1488 9.96875 48.0957 9.84422 47.9866 9.77772C47.9732 9.74301 47.9481 9.70772 47.9187 9.67913C47.8755 9.64034 47.7994 9.59805 47.7291 9.60476C43.2763 10.282 39.0049 11.5913 35.0336 13.4961C34.5608 13.7233 34.0772 13.968 33.596 14.2233C33.0689 12.7142 32.3459 11.1392 31.3907 9.40905C30.4197 7.6477 29.2776 5.88052 27.8986 4.00774C26.951 2.7183 25.9133 1.42536 24.8143 0.164495C24.7752 0.117245 24.7416 0.0886628 24.6985 0.0664963C24.6436 0.0119553 24.5605 -0.0163416 24.4774 -0.0084667Z" fill="#FFC300"/>
<path d="M30.8714 13.8675C30.8714 13.8675 30.8711 13.8668 30.8707 13.8661C30.8693 13.8639 30.8682 13.8618 30.8672 13.8594C30.8689 13.8625 30.87 13.865 30.8714 13.8675Z" fill="#FFC300"/>
<path d="M33.2344 15.1929C33.2359 15.1899 33.2381 15.187 33.2396 15.1836C33.2374 15.187 33.2359 15.1899 33.2344 15.1929Z" fill="#FFC300"/>
<path d="M32.5703 15.5749C32.5735 15.5745 32.5767 15.5742 32.5795 15.5755L32.5783 15.5742L32.5703 15.5749Z" fill="#FFC300"/>
<path d="M18.2278 21.713C17.2964 21.8044 16.3823 21.9162 15.5113 22.0455C14.4149 22.2072 13.3474 22.4052 12.3381 22.6348C11.302 22.8725 10.3957 23.127 9.56677 23.4125L9.35048 23.4885L9.25779 23.5215C8.89676 23.6542 8.56301 23.7895 8.25153 23.9297C8.05975 24.0177 7.89106 24.0976 7.72572 24.1831L7.6951 24.1985L7.53504 24.2848L7.49552 24.3055C6.96441 24.6001 6.58223 24.8667 6.256 25.1703C6.20088 25.2228 6.16414 25.2698 6.15273 25.3414C6.14799 25.3624 6.14716 25.3862 6.14967 25.4114C6.14521 25.4363 6.14382 25.4624 6.14243 25.4919C6.12461 26.0185 6.23874 26.5812 6.48258 27.1648C6.72363 27.7416 7.07046 28.2447 7.48549 28.6176C7.51778 28.6463 7.55536 28.6652 7.59823 28.6738C7.63942 28.6927 7.68842 28.701 7.73184 28.6967C7.75522 28.6944 7.7761 28.689 7.79419 28.6795C8.39489 28.3714 9.05209 28.1013 9.86294 27.8302C10.4848 27.6212 11.1665 27.428 11.9473 27.2388C13.5233 26.8624 15.2299 26.5706 17.1631 26.3473C17.5052 26.3075 17.8306 26.2728 18.1557 26.2407C21.1575 25.9463 24.3049 25.8617 27.5116 25.9896C28.8677 26.0446 30.2041 26.1403 31.4815 26.2745L31.5953 26.2862C31.6649 26.2931 31.7351 26.3006 31.8041 26.3089C32.5754 26.394 33.3353 26.4944 34.0705 26.607L34.1061 26.6133L34.3327 26.6483L34.3783 26.6555L34.4131 26.6621C35.9636 26.9143 37.3155 27.2133 38.5503 27.5768C38.616 27.5954 38.6586 27.6086 38.7012 27.6218L38.7769 27.6444C38.8902 27.68 38.991 27.7115 39.0917 27.7445L39.0294 27.723C39.1304 27.7559 39.2301 27.7889 39.3314 27.823C39.3481 27.8284 39.3642 27.8336 39.3809 27.8405C39.3946 27.8445 39.4099 27.85 39.4238 27.8557L39.4795 27.8749L39.5221 27.8895L39.5808 27.9107L39.656 27.9374C39.8079 27.9933 39.9613 28.0492 40.1127 28.1099C40.1336 28.1174 40.1517 28.1251 40.1712 28.1317L40.2252 28.1509L40.2241 28.1541L40.275 28.1744L40.3129 28.1905L40.3647 28.2074L40.3633 28.2108L40.4014 28.2266C40.4017 28.2272 40.434 28.2404 40.4345 28.2404C40.5865 28.3052 40.7179 28.3639 40.8484 28.423L40.9278 28.4622L40.9859 28.4898C41.0269 28.5093 41.0722 28.517 41.1176 28.5127C41.1697 28.5075 41.22 28.4863 41.2601 28.4531C41.3138 28.4468 41.3623 28.4221 41.3974 28.3826C41.7818 27.9465 42.0966 27.3942 42.3315 26.7412C42.5745 26.0664 42.6536 25.4028 42.5609 24.8226C42.5497 24.7589 42.5102 24.7019 42.4493 24.6626L42.4131 24.6337C42.3966 24.6222 42.3858 24.6148 42.3747 24.6087C42.2803 24.5465 42.2004 24.4935 42.1194 24.4436L42.0835 24.4256L42.0852 24.4227L42.0482 24.4052L42.0512 24.4049L41.9916 24.3665L41.9513 24.3467L41.9535 24.3442C41.9204 24.3252 41.8951 24.3095 41.8683 24.2957C41.7367 24.2229 41.6253 24.1621 41.5123 24.1039L41.47 24.0876L41.4725 24.085C41.4408 24.0684 41.4224 24.0592 41.4052 24.0512L41.3364 24.0177C41.3111 24.0051 41.2927 23.9959 41.2732 23.9879C40.8381 23.7809 40.3747 23.5926 39.8438 23.4057C39.4739 23.2764 39.1101 23.1597 38.7377 23.0499L38.6817 23.0344L38.6469 23.0244C37.3762 22.6561 35.98 22.3545 34.3716 22.0997C34.353 22.0974 34.338 22.0945 34.324 22.0931C32.3068 21.7806 30.2548 21.582 28.0198 21.4808C25.9491 21.3862 23.8534 21.3816 21.7897 21.4673C20.5816 21.5169 19.3836 21.5994 18.2278 21.713Z" fill="#FFC300"/>
</svg>
