<svg width="181" height="20" viewBox="0 0 181 20" fill="none" xmlns="http://www.w3.org/2000/svg">
<path d="M0 18.8797L3.69157 0.421892H8.80702L15.7419 11.6548H13.5797L15.821 0.421892H21.8857L18.1941 18.8797H13.0787L6.14382 7.64681H8.30602L6.06471 18.8797H0Z" fill="#FFBA5B"/>
<path d="M21.1925 18.8797L24.8841 0.421892H31.107L27.4154 18.8797H21.1925Z" fill="#FFBA5B"/>
<path d="M36.7659 15.0827L37.6888 8.09508L45.9157 0.421892H53.0615L43.5953 9.01797L39.3764 12.6568L36.7659 15.0827ZM30.4111 18.8797L34.1027 0.421892H40.2201L36.5286 18.8797H30.4111ZM42.8833 18.8797L38.4271 11.7075L43.0415 7.54134L49.8182 18.8797H42.8833Z" fill="#F965B8"/>
<path d="M47.6426 18.8797L59.4029 0.421892H65.5203L69.8975 18.8797H63.7009L60.7213 3.29604H63.1472L54.2083 18.8797H47.6426ZM53.0745 15.6628L55.5531 11.1802H64.0437L64.7293 15.6628H53.0745Z" fill="#F965B8"/>
<path d="M81.1277 19.3016C79.2292 19.3016 77.568 18.9588 76.1441 18.2732C74.7202 17.5701 73.6127 16.6033 72.8217 15.3727C72.0482 14.1246 71.6615 12.6832 71.6615 11.0483C71.6615 9.43107 71.9427 7.94565 72.5053 6.59208C73.0854 5.23851 73.894 4.06951 74.9312 3.08509C75.9683 2.10068 77.1988 1.34478 78.6227 0.817417C80.0466 0.272472 81.6111 0 83.3163 0C85.0917 0 86.6651 0.31642 88.0362 0.94926C89.4074 1.5821 90.4269 2.4962 91.0949 3.69156L86.6123 7.19855C86.2256 6.51298 85.7246 5.98561 85.1093 5.61645C84.4941 5.22972 83.7645 5.03635 82.9207 5.03635C82.1824 5.03635 81.5057 5.17698 80.8904 5.45824C80.2927 5.72193 79.7741 6.10866 79.3347 6.61845C78.8952 7.11066 78.5524 7.69955 78.3063 8.38513C78.0602 9.0707 77.9371 9.8266 77.9371 10.6528C77.9371 11.3735 78.0954 12.0064 78.4118 12.5513C78.7282 13.0963 79.1677 13.5182 79.7302 13.817C80.3103 14.1158 80.9783 14.2653 81.7342 14.2653C82.4549 14.2653 83.1581 14.0983 83.8436 13.7643C84.5468 13.4303 85.2148 12.8853 85.8476 12.1294L89.5128 15.6364C88.3878 17.0076 87.1309 17.9656 85.7422 18.5106C84.371 19.0379 82.8329 19.3016 81.1277 19.3016Z" fill="white"/>
<path d="M87.9934 18.8797L99.7536 0.421892H105.871L110.248 18.8797H104.052L101.072 3.29604H103.498L94.5591 18.8797H87.9934ZM93.4252 15.6628L95.9039 11.1802H104.394L105.08 15.6628H93.4252Z" fill="white"/>
<path d="M118.572 19.3016C117.482 19.3016 116.436 19.2225 115.434 19.0643C114.432 18.9061 113.518 18.6864 112.692 18.4051C111.883 18.1062 111.18 17.781 110.582 17.4295L112.982 12.8414C113.667 13.2281 114.353 13.5533 115.038 13.817C115.742 14.0631 116.436 14.2477 117.121 14.3707C117.825 14.4938 118.519 14.5553 119.205 14.5553C119.75 14.5553 120.198 14.5114 120.549 14.4235C120.919 14.3356 121.191 14.2125 121.367 14.0543C121.56 13.8785 121.657 13.6852 121.657 13.4742C121.657 13.193 121.499 12.9644 121.182 12.7886C120.866 12.6128 120.444 12.4546 119.917 12.314C119.407 12.1734 118.835 12.0327 118.203 11.8921C117.587 11.7339 116.963 11.5405 116.33 11.312C115.698 11.0659 115.118 10.7583 114.59 10.3891C114.08 10.02 113.667 9.55412 113.351 8.9916C113.034 8.42907 112.876 7.7435 112.876 6.93487C112.876 5.52856 113.245 4.30683 113.984 3.26967C114.74 2.23252 115.812 1.43268 117.201 0.870154C118.607 0.290051 120.277 0 122.211 0C123.582 0 124.856 0.140631 126.034 0.421892C127.229 0.685575 128.258 1.07231 129.119 1.5821L126.878 6.11745C126.139 5.6604 125.331 5.31761 124.452 5.08909C123.591 4.86056 122.712 4.7463 121.815 4.7463C121.217 4.7463 120.716 4.80782 120.312 4.93088C119.908 5.03635 119.6 5.18577 119.389 5.37914C119.196 5.5725 119.099 5.77466 119.099 5.98561C119.099 6.26687 119.257 6.50419 119.574 6.69755C119.89 6.87334 120.312 7.03155 120.839 7.17218C121.367 7.29524 121.938 7.43587 122.553 7.59408C123.186 7.73471 123.81 7.91929 124.426 8.14781C125.058 8.35876 125.638 8.64881 126.166 9.01797C126.693 9.36954 127.115 9.82659 127.432 10.3891C127.748 10.9341 127.906 11.6109 127.906 12.4195C127.906 13.7906 127.528 14.9948 126.772 16.0319C126.016 17.0515 124.935 17.8514 123.529 18.4315C122.14 19.0116 120.488 19.3016 118.572 19.3016Z" fill="white"/>
<path d="M128.571 18.8797L132.263 0.421892H138.486L134.794 18.8797H128.571Z" fill="white"/>
<path d="M137.79 18.8797L141.482 0.421892H146.597L153.532 11.6548H151.37L153.611 0.421892H159.676L155.984 18.8797H150.869L143.934 7.64681H146.096L143.855 18.8797H137.79Z" fill="white"/>
<path d="M169.372 19.3016C167.455 19.3016 165.794 18.95 164.388 18.2469C162.999 17.5437 161.918 16.5769 161.145 15.3464C160.389 14.0983 160.011 12.6656 160.011 11.0483C160.011 9.41349 160.292 7.92808 160.855 6.59208C161.435 5.23851 162.243 4.06951 163.28 3.08509C164.318 2.10068 165.548 1.34478 166.972 0.817417C168.396 0.272472 169.952 0 171.639 0C173.555 0 175.208 0.351577 176.596 1.05473C178.003 1.75789 179.084 2.73352 179.84 3.98162C180.613 5.21214 181 6.63603 181 8.25328C181 9.88812 180.71 11.3823 180.13 12.7359C179.567 14.0719 178.767 15.2321 177.73 16.2165C176.693 17.2009 175.463 17.9656 174.039 18.5106C172.615 19.0379 171.059 19.3016 169.372 19.3016ZM169.899 14.2653C170.672 14.2653 171.349 14.1158 171.929 13.817C172.527 13.5182 173.037 13.1051 173.459 12.5777C173.881 12.0503 174.197 11.4526 174.408 10.7846C174.619 10.0991 174.724 9.37833 174.724 8.62244C174.724 7.90171 174.575 7.27766 174.276 6.75029C173.995 6.20535 173.582 5.78345 173.037 5.48461C172.509 5.18577 171.868 5.03635 171.112 5.03635C170.356 5.03635 169.679 5.18577 169.082 5.48461C168.484 5.78345 167.974 6.19656 167.552 6.72392C167.13 7.25129 166.814 7.85776 166.603 8.54334C166.392 9.21133 166.286 9.92328 166.286 10.6792C166.286 11.3823 166.427 12.0064 166.708 12.5513C167.007 13.0963 167.42 13.5182 167.948 13.817C168.493 14.1158 169.143 14.2653 169.899 14.2653Z" fill="white"/>
</svg>
