<svg width="65" height="32" viewBox="0 0 65 32" fill="none" xmlns="http://www.w3.org/2000/svg">
<path d="M23.6945 21.0322V21.7929H13.6919V21.0322H15.9358L13.3876 15.7456H5.70494L3.49903 21.0322H6.50363V21.7929H0V21.0322H2.54821L11.2577 0.114097H12.2086L21.8689 21.0322H23.6945ZM6.04724 14.9469H13.0073L9.28004 7.18823L6.04724 14.9469Z" fill="url(#paint0_linear_570_25191)"/>
<path d="M44.0261 8.97577H43.2654C43.2654 6.94735 42.6189 5.07106 41.3258 3.3469C40.0326 1.62274 38.1817 0.760658 35.7729 0.760658C34.4291 0.760658 33.3135 1.54667 32.426 3.1187C31.564 4.69073 31.1329 7.37839 31.1329 11.1817C31.1329 14.985 31.564 17.6726 32.426 19.2447C33.3135 20.8167 34.6827 21.6027 36.5336 21.6027C38.4099 21.6027 39.9819 21.0195 41.2497 19.8532C42.5428 18.6869 43.3415 17.0388 43.6458 14.9089H44.4064C44.0514 17.4191 43.164 19.2954 41.7441 20.5378C40.3496 21.7548 38.6761 22.3634 36.7238 22.3634C32.9458 22.3634 30.0427 21.4633 28.0142 19.663C26.0112 17.8374 25.0096 14.9977 25.0096 11.1437C25.0096 7.26429 25.9858 4.43718 27.9382 2.66231C29.9159 0.887435 32.5275 0 35.7729 0C37.5225 0 39.2213 0.469073 40.8694 1.40722C41.4018 1.73684 41.8329 1.90165 42.1625 1.90165C42.5175 1.90165 42.7964 1.74952 42.9992 1.44525C43.202 1.11563 43.3035 0.798691 43.3035 0.494429H44.0261V8.97577Z" fill="url(#paint1_linear_570_25191)"/>
<path d="M58.2721 21.0322C62.0754 21.0322 63.977 18.877 63.977 14.5666H64.7377V21.7929H46.8622V21.0322H48.7639V1.25509H46.8622V0.494429H64.3574V6.96003H63.5967C63.5967 4.70341 63.1403 3.19477 62.2275 2.43411C61.3401 1.64809 59.8948 1.25509 57.8918 1.25509H54.4688V10.383H55.9901C57.8157 10.383 58.9694 10.1548 59.4511 9.6984C59.9329 9.242 60.1737 8.32921 60.1737 6.96003H60.9344V14.5666H60.1737C60.1737 13.1467 59.9329 12.2213 59.4511 11.7902C58.9694 11.3592 57.8157 11.1437 55.9901 11.1437H54.4688V21.0322H58.2721Z" fill="url(#paint2_linear_570_25191)"/>
<path d="M7.66126 27.4247H7.35481C7.35481 26.7779 7.09433 26.1795 6.57336 25.6298C6.0524 25.08 5.3067 24.8051 4.33627 24.8051C3.79488 24.8051 3.34542 25.0557 2.98789 25.557C2.64058 26.0583 2.46693 26.9153 2.46693 28.1281C2.46693 29.3409 2.64058 30.1979 2.98789 30.6992C3.34542 31.2005 3.89703 31.4511 4.64272 31.4511C5.39863 31.4511 6.03197 31.2652 6.54272 30.8932C7.06368 30.5213 7.38546 29.9958 7.50804 29.3166H7.81449C7.67148 30.1171 7.31395 30.7154 6.74191 31.1115C6.18008 31.4996 5.50589 31.6937 4.71934 31.6937C3.1973 31.6937 2.02768 31.4067 1.21048 30.8326C0.403493 30.2505 0 29.3449 0 28.116C0 26.8789 0.393278 25.9774 1.17983 25.4114C1.97661 24.8455 3.02875 24.5625 4.33627 24.5625C5.04111 24.5625 5.72551 24.7121 6.38949 25.0112C6.60401 25.1163 6.77766 25.1689 6.91046 25.1689C7.05347 25.1689 7.16583 25.1204 7.24755 25.0234C7.32927 24.9183 7.37013 24.8172 7.37013 24.7202H7.66126V27.4247Z" fill="white"/>
<path d="M20.8014 31.2692V31.5118H16.7716V31.2692H17.6756L16.649 29.5834H13.5538L12.6651 31.2692H13.8756V31.5118H11.2555V31.2692H12.2821L15.7909 24.5989H16.174L20.0659 31.2692H20.8014ZM13.6917 29.3287H16.4958L14.9942 26.8547L13.6917 29.3287Z" fill="white"/>
<path d="M25.0852 31.5118H24.7788V28.686H25.0852C25.0852 29.446 25.4274 30.0928 26.1118 30.6264C26.8065 31.1601 27.6492 31.4269 28.6401 31.4269C29.0487 31.4269 29.3755 31.3339 29.6207 31.1479C29.8761 30.9539 30.0038 30.6992 30.0038 30.3839C30.0038 30.0281 29.7126 29.7249 29.1304 29.4743C28.8137 29.3449 28.2672 29.1428 27.4909 28.8679C26.7145 28.5849 26.168 28.3464 25.8514 28.1523C25.218 27.7643 24.9371 27.2508 25.0086 26.6121C25.0903 25.9734 25.3968 25.4802 25.928 25.1325C26.4592 24.7768 27.0567 24.5989 27.7207 24.5989C28.3949 24.5989 28.9976 24.6717 29.5288 24.8172C30.0702 24.9546 30.3766 25.0234 30.4481 25.0234C30.6524 25.0234 30.7546 24.8819 30.7546 24.5989H31.061V26.8183H30.7546C30.7546 26.2361 30.4839 25.7632 29.9425 25.3993C29.4011 25.0274 28.7065 24.8414 27.8586 24.8414C27.4807 24.8414 27.1844 24.9304 26.9699 25.1083C26.7554 25.278 26.6481 25.468 26.6481 25.6783C26.6481 25.8885 26.6839 26.0502 26.7554 26.1634C26.8269 26.2766 26.9495 26.3817 27.1231 26.4787C27.307 26.5676 27.4653 26.6404 27.5981 26.697C27.7309 26.7536 27.9403 26.8304 28.2264 26.9274C28.5226 27.0245 28.7269 27.0932 28.8393 27.1336C29.4011 27.3357 29.7331 27.457 29.8352 27.4974C29.9374 27.5298 30.0855 27.5864 30.2796 27.6672C30.4737 27.7481 30.6167 27.8208 30.7086 27.8855C30.8108 27.9502 30.9384 28.0311 31.0917 28.1281C31.2449 28.2251 31.3573 28.3262 31.4288 28.4313C31.5003 28.5283 31.5718 28.6415 31.6433 28.7709C31.7863 29.0296 31.8374 29.3328 31.7965 29.6805C31.7148 30.3354 31.4032 30.8366 30.8618 31.1843C30.3306 31.5239 29.6105 31.6937 28.7014 31.6937C27.8842 31.6937 27.0721 31.5279 26.2651 31.1964C25.9893 31.0832 25.785 31.0266 25.6522 31.0266C25.2742 31.0266 25.0852 31.1883 25.0852 31.5118Z" fill="white"/>
<path d="M39.7584 31.5118H35.9277V31.2692H36.6938V24.9627H35.9277V24.7202H39.7584V24.9627H38.9922V31.2692H39.7584V31.5118Z" fill="white"/>
<path d="M44.816 31.2692H46.0418V31.5118H43.5902V31.2692H44.5095V25.4963C44.1826 25.1406 43.8762 24.9627 43.5902 24.9627V24.7202H46.4555L50.7611 28.7587V24.9627H49.5353V24.7202H52.1401V24.9627H51.0676V31.633H50.7611L44.816 25.7995V31.2692Z" fill="white"/>
<path d="M62.1098 28.1038C62.1098 27.0689 61.9311 26.2644 61.5735 25.6904C61.2262 25.1083 60.741 24.8172 60.1179 24.8172C59.505 24.8172 59.0198 25.1083 58.6623 25.6904C58.3047 26.2725 58.126 27.0851 58.126 28.1281C58.126 29.1711 58.2945 29.9756 58.6316 30.5415C58.9789 31.1075 59.4744 31.3905 60.1179 31.3905C61.4459 31.3905 62.1098 30.2949 62.1098 28.1038ZM64.5768 28.1766C64.5768 29.2843 64.163 30.1373 63.3356 30.7356C62.5082 31.3339 61.4305 31.633 60.1026 31.633C58.7746 31.633 57.7021 31.3379 56.8848 30.7477C56.0676 30.1494 55.659 29.2964 55.659 28.1887C55.659 27.073 56.0676 26.1917 56.8848 25.5449C57.7021 24.898 58.7848 24.5746 60.1332 24.5746C61.4918 24.5746 62.5695 24.898 63.3663 25.5449C64.1733 26.1836 64.5768 27.0608 64.5768 28.1766Z" fill="white"/>
<defs>
<linearGradient id="paint0_linear_570_25191" x1="32.3693" y1="22.3634" x2="32.36" y2="7.78955e-06" gradientUnits="userSpaceOnUse">
<stop stop-color="#9F7936"/>
<stop offset="0.03" stop-color="#C7AE6F"/>
<stop offset="0.395" stop-color="#EEE2A7"/>
<stop offset="0.595" stop-color="#C7A364"/>
<stop offset="0.805" stop-color="#D2B26E"/>
<stop offset="1" stop-color="#EEE2A7"/>
</linearGradient>
<linearGradient id="paint1_linear_570_25191" x1="32.3693" y1="22.3634" x2="32.36" y2="7.78955e-06" gradientUnits="userSpaceOnUse">
<stop stop-color="#9F7936"/>
<stop offset="0.03" stop-color="#C7AE6F"/>
<stop offset="0.395" stop-color="#EEE2A7"/>
<stop offset="0.595" stop-color="#C7A364"/>
<stop offset="0.805" stop-color="#D2B26E"/>
<stop offset="1" stop-color="#EEE2A7"/>
</linearGradient>
<linearGradient id="paint2_linear_570_25191" x1="32.3693" y1="22.3634" x2="32.36" y2="7.78955e-06" gradientUnits="userSpaceOnUse">
<stop stop-color="#9F7936"/>
<stop offset="0.03" stop-color="#C7AE6F"/>
<stop offset="0.395" stop-color="#EEE2A7"/>
<stop offset="0.595" stop-color="#C7A364"/>
<stop offset="0.805" stop-color="#D2B26E"/>
<stop offset="1" stop-color="#EEE2A7"/>
</linearGradient>
</defs>
</svg>
