<svg width="233" height="36" viewBox="0 0 233 36" fill="none" xmlns="http://www.w3.org/2000/svg">
<path d="M19.4795 21.1515C19.7006 20.2983 19.9376 19.461 20.1904 18.6395C20.459 17.8022 20.7828 16.8701 21.162 15.8432C21.4938 14.9269 21.8966 13.8763 22.3706 12.6914C22.8445 11.4907 23.3422 10.2742 23.8635 9.04196C24.4007 7.80969 24.922 6.6643 25.4276 5.6058C25.9331 4.54731 26.3913 3.70209 26.802 3.07016C27.3076 2.29603 27.8526 1.71939 28.4372 1.34023C29.0375 0.961066 29.9143 0.771484 31.0676 0.771484H34.172C34.9935 0.771484 35.6808 0.897872 36.2337 1.15065C36.8024 1.38762 37.2053 1.96427 37.4423 2.88057C37.6161 3.55991 37.7819 4.55521 37.9399 5.86648C38.0979 7.17775 38.2322 8.99457 38.3428 11.3169C38.4534 13.6393 38.5403 16.6252 38.6035 20.2746C38.6667 23.9083 38.6983 28.4029 38.6983 33.7586C38.6983 34.043 38.6035 34.28 38.4139 34.4695C38.2243 34.6591 37.9952 34.7539 37.7267 34.7539H32.3236C32.055 34.7539 31.8259 34.6591 31.6364 34.4695C31.4468 34.28 31.352 34.0351 31.352 33.7349C31.352 29.5641 31.352 26.0253 31.352 23.1184C31.352 20.2115 31.3441 17.8022 31.3283 15.8906C31.3125 13.979 31.2888 12.4623 31.2572 11.3406C31.2414 10.2031 31.2098 9.32633 31.1624 8.7102H31.0202C30.1829 10.6376 29.2903 12.7862 28.3424 15.156C27.3945 17.5099 26.4703 19.9429 25.5698 22.4548C24.6693 24.951 23.8635 27.3918 23.1526 29.7774C22.9472 30.4883 22.6865 30.986 22.3706 31.2704C22.0704 31.5389 21.3753 31.6732 20.2852 31.6732H17.56C16.6278 31.6732 16.0038 31.5547 15.6878 31.3178C15.3877 31.0808 15.127 30.5673 14.9058 29.7774C14.3845 27.9764 13.8078 26.0727 13.1759 24.0663C12.544 22.0599 11.8883 20.093 11.209 18.1656C10.5455 16.2224 9.89772 14.4371 9.26578 12.8099C8.64964 11.1669 8.0967 9.80029 7.60694 8.7102H7.46476C7.33837 10.5744 7.22778 12.8415 7.13299 15.5114C7.0382 18.1814 6.95921 21.0804 6.89602 24.2085C6.84862 27.3365 6.81702 30.5278 6.80122 33.7823C6.80122 34.0667 6.70643 34.3037 6.51685 34.4932C6.32727 34.667 6.09819 34.7539 5.82962 34.7539H0.971604C0.70303 34.7539 0.473953 34.6591 0.284372 34.4695C0.0947906 34.28 0 34.0351 0 33.7349C0.0157984 25.3143 0.181682 18.5921 0.497651 13.5682C0.829418 8.54431 1.18488 5.17925 1.56404 3.47302C1.81682 2.35133 2.25918 1.6246 2.89111 1.29283C3.53885 0.945267 4.27348 0.771484 5.09499 0.771484H8.93401C9.80293 0.771484 10.4349 0.929469 10.8298 1.24544C11.2406 1.54561 11.7382 2.13805 12.3228 3.02276C12.6703 3.54411 13.0811 4.32613 13.5551 5.36883C14.0448 6.41152 14.5504 7.57271 15.0717 8.85238C15.5931 10.1163 16.0828 11.3722 16.541 12.6203C17.0149 13.8526 17.402 14.9269 17.7021 15.8432C18.0181 16.7753 18.3104 17.6837 18.579 18.5684C18.8475 19.4373 19.0845 20.2983 19.2899 21.1515H19.4795Z" fill="#FF2682"/>
<path d="M49.4235 34.7536H42.8672L52.1251 11.056H58.6814L67.9235 34.7536H61.3671L59.8347 30.5355H50.956L49.4235 34.7536ZM52.9466 25.085H57.8599L55.3953 18.3233L52.9466 25.085Z" fill="white"/>
<path d="M79.4879 34.7536H73.2318V16.5064H66.6596V11.056H86.0601V16.5064H79.4879V34.7536Z" fill="white"/>
<path d="M108.668 31.8151C107.551 32.8894 106.229 33.7267 104.702 34.3271C103.186 34.9274 101.532 35.2276 99.7415 35.2276C97.9405 35.2276 96.2711 34.9221 94.7334 34.3113C93.2063 33.6899 91.8739 32.8262 90.7364 31.7203C89.6095 30.6039 88.73 29.2979 88.0981 27.8023C87.4767 26.3067 87.166 24.6742 87.166 22.9048C87.166 21.1354 87.4767 19.5029 88.0981 18.0073C88.73 16.5117 89.6095 15.211 90.7364 14.1051C91.8739 12.9887 93.2063 12.125 94.7334 11.5141C96.2711 10.8927 97.9405 10.582 99.7415 10.582C101.521 10.582 103.165 10.8875 104.671 11.4983C106.187 12.0987 107.504 12.936 108.62 14.0103L104.26 18.4023C103.712 17.665 103.038 17.0857 102.238 16.6644C101.448 16.2431 100.584 16.0325 99.6467 16.0325C98.7831 16.0325 97.9826 16.2063 97.2454 16.5538C96.5081 16.9014 95.8604 17.3859 95.3022 18.0073C94.7545 18.6287 94.3279 19.3554 94.0225 20.1875C93.7171 21.0195 93.5644 21.92 93.5644 22.889C93.5644 23.8685 93.7171 24.7743 94.0225 25.6063C94.3279 26.4384 94.7545 27.1704 95.3022 27.8023C95.8604 28.4237 96.5081 28.9082 97.2454 29.2558C97.9826 29.6033 98.7831 29.7771 99.6467 29.7771C100.584 29.7771 101.448 29.5665 102.238 29.1452C103.028 28.7239 103.696 28.1446 104.244 27.4074L108.668 31.8151Z" fill="white"/>
<path d="M117.309 34.7536H111.053V11.056H117.309V20.3771H125.572V11.056H131.828V34.7536H125.572V25.8275H117.309V34.7536Z" fill="white"/>
<path d="M135.004 34.7536V11.056H144.025C146.752 11.056 148.859 11.6089 150.344 12.7148C151.829 13.8207 152.571 15.3848 152.571 17.407C152.571 18.5339 152.319 19.5397 151.813 20.4245C151.308 21.2986 150.623 21.9832 149.759 22.4783C151.044 22.8995 152.04 23.5841 152.745 24.532C153.451 25.48 153.804 26.6438 153.804 28.0235C153.804 29.3927 153.472 30.5828 152.808 31.5939C152.145 32.5945 151.202 33.3739 149.981 33.9321C148.759 34.4798 147.316 34.7536 145.652 34.7536H135.004ZM141.26 20.614H143.598C144.493 20.614 145.183 20.435 145.668 20.0769C146.163 19.7083 146.41 19.1869 146.41 18.5128C146.41 17.8914 146.163 17.4017 145.668 17.0436C145.173 16.6855 144.483 16.5064 143.598 16.5064H141.26V20.614ZM141.26 29.3032H144.025C144.741 29.3032 145.352 29.2242 145.857 29.0662C146.363 28.8977 146.747 28.6607 147.01 28.3553C147.274 28.0393 147.405 27.6601 147.405 27.2178C147.405 26.7754 147.29 26.4068 147.058 26.1119C146.826 25.8065 146.484 25.58 146.031 25.4326C145.589 25.2746 145.046 25.1956 144.404 25.1956H141.26V29.3032Z" fill="white"/>
<path d="M168.117 35.2276C166.306 35.2276 164.631 34.9221 163.093 34.3113C161.566 33.6899 160.234 32.8262 159.096 31.7203C157.969 30.6039 157.095 29.2979 156.474 27.8023C155.852 26.3067 155.542 24.6742 155.542 22.9048C155.542 21.1354 155.852 19.5029 156.474 18.0073C157.095 16.5117 157.969 15.211 159.096 14.1051C160.234 12.9887 161.566 12.125 163.093 11.5141C164.631 10.8927 166.306 10.582 168.117 10.582C169.939 10.582 171.614 10.8927 173.141 11.5141C174.668 12.125 175.99 12.9887 177.106 14.1051C178.233 15.211 179.108 16.5117 179.729 18.0073C180.35 19.5029 180.661 21.1354 180.661 22.9048C180.661 24.6742 180.35 26.3067 179.729 27.8023C179.108 29.2979 178.233 30.6039 177.106 31.7203C175.99 32.8262 174.668 33.6899 173.141 34.3113C171.614 34.9221 169.939 35.2276 168.117 35.2276ZM168.117 29.7771C168.991 29.7771 169.802 29.6033 170.55 29.2558C171.298 28.9082 171.946 28.4237 172.493 27.8023C173.052 27.1704 173.483 26.4384 173.789 25.6063C174.105 24.7743 174.263 23.8738 174.263 22.9048C174.263 21.9358 174.105 21.0353 173.789 20.2033C173.483 19.3712 173.052 18.6445 172.493 18.0231C171.946 17.3912 171.298 16.9014 170.55 16.5538C169.802 16.2063 168.991 16.0325 168.117 16.0325C167.243 16.0325 166.427 16.2063 165.668 16.5538C164.921 16.9014 164.268 17.3912 163.709 18.0231C163.151 18.6445 162.714 19.3712 162.398 20.2033C162.093 21.0353 161.94 21.9358 161.94 22.9048C161.94 23.8738 162.093 24.7743 162.398 25.6063C162.714 26.4384 163.151 27.1704 163.709 27.8023C164.268 28.4237 164.921 28.9082 165.668 29.2558C166.427 29.6033 167.243 29.7771 168.117 29.7771Z" fill="white"/>
<path d="M195.132 35.2276C193.321 35.2276 191.646 34.9221 190.109 34.3113C188.581 33.6899 187.249 32.8262 186.112 31.7203C184.985 30.6039 184.11 29.2979 183.489 27.8023C182.868 26.3067 182.557 24.6742 182.557 22.9048C182.557 21.1354 182.868 19.5029 183.489 18.0073C184.11 16.5117 184.985 15.211 186.112 14.1051C187.249 12.9887 188.581 12.125 190.109 11.5141C191.646 10.8927 193.321 10.582 195.132 10.582C196.955 10.582 198.629 10.8927 200.156 11.5141C201.684 12.125 203.005 12.9887 204.122 14.1051C205.249 15.211 206.123 16.5117 206.744 18.0073C207.366 19.5029 207.676 21.1354 207.676 22.9048C207.676 24.6742 207.366 26.3067 206.744 27.8023C206.123 29.2979 205.249 30.6039 204.122 31.7203C203.005 32.8262 201.684 33.6899 200.156 34.3113C198.629 34.9221 196.955 35.2276 195.132 35.2276ZM195.132 29.7771C196.007 29.7771 196.818 29.6033 197.565 29.2558C198.313 28.9082 198.961 28.4237 199.509 27.8023C200.067 27.1704 200.499 26.4384 200.804 25.6063C201.12 24.7743 201.278 23.8738 201.278 22.9048C201.278 21.9358 201.12 21.0353 200.804 20.2033C200.499 19.3712 200.067 18.6445 199.509 18.0231C198.961 17.3912 198.313 16.9014 197.565 16.5538C196.818 16.2063 196.007 16.0325 195.132 16.0325C194.258 16.0325 193.442 16.2063 192.684 16.5538C191.936 16.9014 191.283 17.3912 190.725 18.0231C190.166 18.6445 189.729 19.3712 189.413 20.2033C189.108 21.0353 188.955 21.9358 188.955 22.9048C188.955 23.8738 189.108 24.7743 189.413 25.6063C189.729 26.4384 190.166 27.1704 190.725 27.8023C191.283 28.4237 191.936 28.9082 192.684 29.2558C193.442 29.6033 194.258 29.7771 195.132 29.7771Z" fill="white"/>
<path d="M216.46 34.7536H210.204V11.056H216.46V20.9616C217.019 20.1401 217.55 19.3818 218.056 18.6866C218.562 17.9915 218.988 17.428 219.336 16.9962L224.059 11.056H231.421L222.685 22.0359L233.001 34.7536H224.928L218.688 27.0598L216.46 29.8719V34.7536Z" fill="white"/>
</svg>
