<svg width="60" height="36" viewBox="0 0 60 36" fill="none" xmlns="http://www.w3.org/2000/svg">
<path d="M9.16476 35.4397C8.12657 35.4397 7.20277 35.3344 6.39334 35.124C5.58391 34.9135 4.87566 34.6217 4.26859 34.2486C3.66151 33.8755 3.14242 33.4354 2.71131 32.9284C2.289 32.4118 1.94587 31.8521 1.68193 31.2494C1.41798 30.6467 1.22443 30.0105 1.10125 29.3408C0.986875 28.6712 0.929688 27.9919 0.929688 27.3031C0.929688 26.6239 0.986875 25.9542 1.10125 25.2941C1.22443 24.6244 1.41798 23.9882 1.68193 23.3855C1.94587 22.7732 2.289 22.2136 2.71131 21.7065C3.13362 21.1899 3.64832 20.745 4.25539 20.3719C4.87126 19.9893 5.58391 19.6927 6.39334 19.4822C7.20277 19.2622 8.12657 19.1522 9.16476 19.1522C10.2029 19.1522 11.1267 19.2622 11.9362 19.4822C12.7456 19.6927 13.4539 19.9893 14.0609 20.3719C14.6768 20.745 15.1959 21.1899 15.6182 21.7065C16.0405 22.2136 16.3836 22.7732 16.6476 23.3855C16.9115 23.9882 17.1007 24.6244 17.2151 25.2941C17.3382 25.9542 17.3998 26.6239 17.3998 27.3031C17.3998 27.9919 17.3382 28.6712 17.2151 29.3408C17.1007 30.0105 16.9115 30.6467 16.6476 31.2494C16.3836 31.8521 16.0361 32.4118 15.605 32.9284C15.1827 33.4354 14.668 33.8755 14.0609 34.2486C13.4539 34.6217 12.7456 34.9135 11.9362 35.124C11.1267 35.3344 10.2029 35.4397 9.16476 35.4397ZM6.63089 27.3031C6.63089 27.8197 6.67488 28.3267 6.76286 28.8242C6.85084 29.3121 6.99161 29.7522 7.18517 30.1444C7.38753 30.5271 7.64708 30.838 7.96381 31.0772C8.28934 31.3068 8.68966 31.4216 9.16476 31.4216C9.63986 31.4216 10.0358 31.3068 10.3525 31.0772C10.678 30.838 10.9376 30.5271 11.1311 30.1444C11.3335 29.7522 11.4787 29.3121 11.5667 28.8242C11.6546 28.3267 11.6986 27.8197 11.6986 27.3031C11.6986 26.7865 11.6546 26.2842 11.5667 25.7963C11.4787 25.2989 11.3335 24.8588 11.1311 24.4761C10.9376 24.0839 10.678 23.7682 10.3525 23.529C10.0358 23.2898 9.63986 23.1702 9.16476 23.1702C8.68966 23.1702 8.28934 23.2898 7.96381 23.529C7.64708 23.7682 7.38753 24.0839 7.18517 24.4761C6.99161 24.8588 6.85084 25.2989 6.76286 25.7963C6.67488 26.2842 6.63089 26.7865 6.63089 27.3031Z" fill="white"/>
<path d="M30.7892 24.1747C29.9094 23.7347 29.0472 23.3951 28.2025 23.1559C27.3667 22.9071 26.6321 22.7828 25.9986 22.7828C25.3299 22.7828 24.8548 22.8545 24.5733 22.998C24.2918 23.132 24.151 23.3711 24.151 23.7155C24.151 24.0217 24.3578 24.2656 24.7713 24.4474C25.1848 24.6196 25.7919 24.8205 26.5925 25.0501C27.3931 25.2797 28.1102 25.5332 28.7436 25.8107C29.3771 26.0881 29.9138 26.4325 30.3537 26.8439C30.8024 27.2553 31.1411 27.748 31.3699 28.322C31.6074 28.896 31.7262 29.5991 31.7262 30.4314C31.7262 31.1777 31.5942 31.8617 31.3303 32.4835C31.0663 33.0958 30.666 33.622 30.1293 34.0621C29.5927 34.5021 28.9152 34.8418 28.097 35.0809C27.2787 35.3201 26.3153 35.4397 25.2068 35.4397C24.2214 35.4397 23.2316 35.3584 22.2374 35.1957C21.2432 35.0427 20.2402 34.7652 19.2284 34.3634V29.9292C20.1346 30.3597 21.0452 30.7041 21.9603 30.9624C22.8753 31.2207 23.7463 31.3499 24.5733 31.3499C26.0602 31.3499 26.8036 31.015 26.8036 30.3453C26.8036 30.2305 26.7684 30.1253 26.6981 30.0296C26.6277 29.934 26.4957 29.8431 26.3021 29.757C26.1174 29.6613 25.8534 29.5657 25.5103 29.47C25.176 29.3647 24.7449 29.2404 24.217 29.0969C23.4867 28.9055 22.7961 28.6616 22.145 28.365C21.5028 28.0589 20.9397 27.6906 20.4558 27.26C19.9807 26.82 19.6024 26.3081 19.3208 25.7246C19.0481 25.141 18.9117 24.4761 18.9117 23.7299C18.9117 23.0602 19.0393 22.4432 19.2944 21.8787C19.5584 21.3143 19.9499 20.8311 20.469 20.4293C20.9969 20.0275 21.6479 19.7166 22.4222 19.4966C23.2052 19.267 24.1114 19.1522 25.1408 19.1522C25.7391 19.1522 26.3109 19.1809 26.8564 19.2383C27.4107 19.2957 27.9342 19.3674 28.4269 19.4535C28.9196 19.5301 29.3771 19.6162 29.7994 19.7118C30.2305 19.7979 30.6264 19.8792 30.9872 19.9558L30.7892 24.1747Z" fill="white"/>
<path d="M34.1487 12.9816H39.8499V21.6635C40.0962 21.2904 40.413 20.9507 40.8001 20.6446C41.1872 20.3385 41.6139 20.0754 42.0802 19.8553C42.5465 19.6257 43.0392 19.4535 43.5583 19.3387C44.0774 19.2144 44.5965 19.1522 45.1156 19.1522C45.7578 19.1522 46.3605 19.267 46.9236 19.4966C47.4955 19.7166 47.9926 20.0754 48.4149 20.5728C48.8372 21.0703 49.1671 21.7113 49.4047 22.4958C49.651 23.2707 49.7742 24.2082 49.7742 25.3084V35.0235H44.073V26.8439C44.073 26.1264 44.0158 25.5285 43.9014 25.0501C43.7959 24.5718 43.6551 24.1891 43.4791 23.9021C43.3032 23.6055 43.1008 23.3998 42.8721 23.285C42.6521 23.1607 42.4277 23.0985 42.199 23.0985C41.935 23.0985 41.6711 23.1559 41.4072 23.2707C41.152 23.3759 40.9145 23.529 40.6945 23.7299C40.4834 23.9308 40.303 24.17 40.1534 24.4474C40.0039 24.7248 39.9027 25.031 39.8499 25.3658V35.0235H34.1487V12.9816Z" fill="white"/>
<path d="M53.0281 19.5396H58.7293V35.0235H53.0281V19.5396ZM55.8919 16.3539C55.3904 16.3539 54.9197 16.2965 54.4798 16.1817C54.0399 16.0669 53.6572 15.909 53.3316 15.7081C53.0149 15.5072 52.7598 15.2633 52.5662 14.9763C52.3814 14.6892 52.2891 14.3735 52.2891 14.0291C52.2891 13.6465 52.3814 13.3116 52.5662 13.0246C52.751 12.728 53.0061 12.4841 53.3316 12.2928C53.6572 12.1014 54.0399 11.9579 54.4798 11.8623C54.9197 11.7666 55.3948 11.7188 55.9051 11.7188C56.4154 11.7188 56.8905 11.7666 57.3304 11.8623C57.7791 11.9579 58.1662 12.1014 58.4918 12.2928C58.8173 12.4841 59.0724 12.728 59.2572 13.0246C59.442 13.3116 59.5343 13.6465 59.5343 14.0291C59.5343 14.3735 59.4376 14.6892 59.244 14.9763C59.0592 15.2633 58.8041 15.5072 58.4786 15.7081C58.153 15.909 57.7659 16.0669 57.3172 16.1817C56.8773 16.2965 56.4022 16.3539 55.8919 16.3539Z" fill="white"/>
<path d="M0 2.59344C0.22436 2.44833 0.376233 2.55475 0.515681 2.66807C0.826334 2.9196 1.14527 3.16422 1.43383 3.43993C3.33226 5.2467 5.22609 7.05853 7.11532 8.87543C7.29343 9.04542 7.45566 9.23199 7.66759 9.46003C7.7311 9.28175 7.77391 9.17395 7.80566 9.06408C8.54847 6.60868 9.29219 4.15398 10.0368 1.69997C10.1376 1.38456 10.2617 1.07712 10.4082 0.780229C10.5463 0.490004 10.7624 0.48102 10.9253 0.76088C11.0819 1.03642 11.2203 1.32196 11.3395 1.61566C12.3101 3.94575 14.3162 8.7856 14.377 8.91897C14.4557 8.80495 14.5151 8.72341 14.5717 8.63565C15.9807 6.32836 18.9974 1.41458 19.1017 1.26877C19.1956 1.1361 19.3088 1.05041 19.5345 1.1437C19.537 1.32615 19.5268 1.50855 19.5042 1.6896C19.4144 2.17815 19.3254 2.66807 19.1976 3.14694C18.9125 4.22078 18.8435 5.32294 18.7358 6.42096C18.7185 6.59924 18.7013 6.77752 18.6668 6.95373C18.6419 7.09193 18.5977 7.25777 18.421 7.22046C18.334 7.2018 18.2443 7.06567 18.2091 6.9634C18.1669 6.81783 18.1449 6.66718 18.1435 6.51563C18.1006 5.6612 18.1439 4.80463 18.2726 3.95888C18.2795 3.90706 18.2781 3.85454 18.285 3.70874C18.1739 3.88356 18.1062 3.98514 18.0468 4.08465C17.0247 5.88128 16.0023 7.68021 14.9797 9.48145C14.8946 9.63952 14.7962 9.79002 14.6856 9.9313C14.473 10.189 14.1333 10.1538 13.978 9.85598C13.851 9.61205 13.7412 9.35707 13.6328 9.10278C12.8044 7.11819 10.8335 2.35504 10.6526 1.90243C10.5981 2.04547 10.5594 2.1277 10.5339 2.21408C9.76669 4.83163 8.99673 7.4508 8.22401 10.0716C8.10665 10.4682 7.83604 10.5484 7.51503 10.263C7.02075 9.82281 6.54303 9.36467 6.06532 8.90929C4.73987 7.65718 3.41649 6.40368 2.09518 5.14881C2.03644 5.09082 1.96767 5.04399 1.89222 5.0106C3.41055 8.35421 4.27457 11.9581 4.4375 15.6273C4.54312 15.6017 4.6446 15.5831 4.74746 15.5513C7.60892 14.6592 10.5422 14.3324 13.5265 14.4809C14.3059 14.5196 15.0832 14.6779 15.8536 14.8216C16.2768 14.9011 16.3866 15.107 16.3804 15.6252C16.2226 15.6265 16.0649 15.6179 15.9082 15.5997C14.2258 15.3025 12.5303 15.3233 10.8349 15.4138C8.60024 15.5313 6.39668 15.8871 4.20279 16.3121C3.55594 16.4379 3.53937 16.4075 3.50692 15.7462C3.42876 14.2432 3.21668 12.7502 2.87319 11.285C2.21737 8.44493 1.39656 5.65601 0.164301 3.00321C0.102171 2.86847 0.0538464 2.72819 0 2.59344Z" fill="#5DFFF3"/>
<ellipse cx="56.0472" cy="13.812" rx="3.95349" ry="2.55814" fill="#5DFFF3"/>
</svg>
