<svg width="219" height="51" viewBox="0 0 219 51" fill="none" xmlns="http://www.w3.org/2000/svg">
<g id="logo">
<g id="Draft Kings">
<path id="Vector" d="M197.537 39.2746L196.934 39.4224L197.207 39.9805C197.878 41.3472 199.156 42.3278 200.942 42.9634C202.724 43.5972 205.05 43.903 207.897 43.903C211.299 43.903 213.935 43.388 215.734 42.2922C217.574 41.1719 218.5 39.4681 218.5 37.2517C218.5 35.5007 217.901 34.0886 216.668 33.0855C215.461 32.0805 213.609 31.4567 211.191 31.1543C211.19 31.1542 211.19 31.1542 211.189 31.1541L207.276 30.6392C207.276 30.6391 207.275 30.6391 207.275 30.6391C206.623 30.5521 206.24 30.4091 206.046 30.2642C205.866 30.1088 205.785 29.9296 205.785 29.6915C205.785 29.5404 205.82 29.4312 205.876 29.3452C205.932 29.2571 206.029 29.1644 206.194 29.0785C206.54 28.8991 207.122 28.7825 208 28.7825C208.996 28.7825 209.584 28.9125 209.87 29.0872L209.879 29.0926L209.888 29.0976C210.165 29.2516 210.33 29.4775 210.395 29.8194L210.48 30.2621L210.929 30.224L217.011 29.7086L217.576 29.6607L217.458 29.1065C217.142 27.6174 216.122 26.5345 214.522 25.8394C212.942 25.1525 210.767 24.8271 208.034 24.8271C204.546 24.8271 201.903 25.3543 200.197 26.4919C198.487 27.6315 197.603 29.2028 197.603 31.1691C197.603 32.8605 198.208 34.2271 199.442 35.2038L199.442 35.2038L199.446 35.2069C200.671 36.1565 202.468 36.746 204.775 37.026L208.861 37.5754L208.862 37.5755C209.529 37.6644 209.89 37.8106 210.051 37.9451L210.059 37.9513L210.066 37.9573C210.228 38.0816 210.318 38.2486 210.318 38.5232C210.318 38.8598 210.19 39.0814 209.898 39.2499C209.564 39.4424 208.999 39.5696 208.137 39.5696C206.327 39.5696 205.183 38.9853 204.546 37.9223L204.356 37.6063L203.998 37.6939L197.537 39.2746Z" fill="url(#paint0_linear_3200_21519)" stroke="black"/>
<path id="Vector_2" d="M176.059 43.3058C175.24 43.4966 174.559 43.7796 174.037 44.1712C173.27 44.7467 172.875 45.5364 172.875 46.4956C172.875 47.8508 173.778 48.835 175.266 49.4945C176.774 50.1857 179.476 50.5008 183.272 50.5008H185.815C189.756 50.5008 192.709 49.9292 194.577 48.701C196.464 47.475 197.449 45.8026 197.449 43.7121C197.449 41.9588 196.762 40.5471 195.393 39.532C194.029 38.4971 191.997 38.023 189.389 38.023L189.387 38.023L180.767 38.0559C180.709 37.7852 180.679 37.4835 180.679 37.1484C180.679 36.9828 180.691 36.8314 180.713 36.6932C181.784 36.8732 183.039 36.9611 184.475 36.9611C187.941 36.9611 190.581 36.4336 192.308 35.299C194.052 34.1686 194.975 32.6475 194.975 30.7566C194.975 29.7035 194.669 28.7668 194.069 27.9586L197.171 27.6458L197.708 27.5917L197.613 27.0607L196.617 21.4593L196.51 20.8604L195.943 21.0809C195.036 21.4337 194.121 22.0761 193.198 22.9757L193.198 22.9757L193.193 22.9803C192.383 23.7903 191.673 24.7385 191.059 25.8214C189.384 25.1484 187.179 24.827 184.475 24.827C180.899 24.827 178.192 25.3418 176.443 26.4497C174.701 27.5299 173.768 28.9934 173.768 30.8253C173.768 31.9734 174.141 33.0202 174.872 33.9517L174.871 33.9517L174.876 33.9569C175.428 34.6431 176.187 35.2051 177.131 35.6542C176.511 36.0323 175.986 36.482 175.563 37.0064L175.563 37.0063L175.557 37.0142C174.933 37.8206 174.628 38.7787 174.628 39.8632C174.628 40.7903 174.842 41.627 175.284 42.3564L175.29 42.3655L175.296 42.3743C175.523 42.7158 175.778 43.0266 176.059 43.3058ZM189.377 46.3206L189.377 46.3206L189.372 46.3233C188.751 46.6334 187.595 46.8204 185.815 46.8204H183.306C181.753 46.8204 180.804 46.6313 180.338 46.3447C179.893 46.0709 179.683 45.6953 179.683 45.1554C179.683 44.9508 179.709 44.7632 179.761 44.5901H188.53C189.231 44.5901 189.676 44.6943 189.929 44.8408C190.141 44.9633 190.229 45.1161 190.229 45.3616C190.229 45.6588 190.052 45.9934 189.377 46.3206ZM184.372 33.4525C183.744 33.4525 183.342 33.2449 183.075 32.8772C182.787 32.4796 182.604 31.8222 182.604 30.8253C182.604 29.8777 182.786 29.2585 183.069 28.8852C183.332 28.538 183.736 28.3356 184.372 28.3356C185.024 28.3356 185.437 28.5386 185.704 28.8817C185.99 29.2486 186.174 29.857 186.174 30.791C186.174 31.799 185.988 32.4646 185.694 32.8678C185.422 33.2415 185.012 33.4525 184.372 33.4525Z" fill="url(#paint1_linear_3200_21519)" stroke="black"/>
<path id="Vector_3" d="M151.773 25.2739H151.273V25.7739V42.9562V43.4562H151.773H159.437H159.937V42.9562V31.2708C160.94 30.6483 161.836 30.3633 162.633 30.3633C163.214 30.3633 163.571 30.5126 163.791 30.7323C164.011 30.952 164.16 31.3092 164.16 31.8908V42.9562V43.4562H164.66H172.358H172.858V42.9562V30.5849C172.858 28.8279 172.317 27.3989 171.184 26.3682C170.057 25.3188 168.5 24.8271 166.585 24.8271C164.891 24.8271 163.368 25.1615 162.028 25.8438L162.255 26.2894L162.028 25.8438C161.192 26.2695 160.447 26.7283 159.796 27.2214C159.844 26.6755 159.868 26.1926 159.868 25.7739V25.2739H159.368H151.773Z" fill="url(#paint2_linear_3200_21519)" stroke="black"/>
<path id="Vector_4" d="M141.234 25.2733H140.734V25.7733V42.9557V43.4557H141.234H148.898H149.398V42.9557V25.7733V25.2733H148.898H141.234ZM141.234 18.4004H140.734V18.9004V23.6083V24.1083H141.234H148.898H149.398V23.6083V18.9004V18.4004H148.898H141.234Z" fill="url(#paint3_linear_3200_21519)" stroke="black"/>
<path id="Vector_5" d="M113.422 18.4004H112.922V18.9004V42.9557V43.4557H113.422H121.944H122.444V42.9557V37.0793C122.444 36.2616 122.42 35.2008 122.372 33.8984L129.344 43.2544L129.494 43.4557H129.745H140.054H141.096L140.445 42.6431L129.917 29.5004L138.986 19.2314L139.72 18.4004H138.611H130.02H129.783L129.633 18.5843L122.368 27.4901C122.419 26.1343 122.444 25.0346 122.444 24.1926V18.9004V18.4004H121.944H113.422Z" fill="url(#paint4_linear_3200_21519)" stroke="black"/>
<path id="Vector_6" d="M90.1873 42.1385L90.1872 42.1385L90.1914 42.1419C91.6113 43.2828 93.8984 43.7986 96.9308 43.7986C98.189 43.7986 99.5815 43.717 101.107 43.5552L101.519 43.5116L101.553 43.099L102 37.6694L102.047 37.0881L101.466 37.1297C100.181 37.2214 99.3161 37.2658 98.8552 37.2658C98.0413 37.2658 97.5239 37.0952 97.2155 36.8397C96.9252 36.599 96.7435 36.2182 96.7435 35.6009V30.4994H101.295H101.795V29.9994V25.7726V25.2726H101.295H96.7435V20.3086V19.6042L96.0786 19.8366C93.7697 20.6436 91.2643 21.1053 88.5594 21.218L88.0802 21.2379V21.7175V25.2726H85.1094H84.6094V25.7726V29.9994V30.4994H85.1094H88.0802V37.0442C88.0802 39.2369 88.7599 40.9661 90.1873 42.1385Z" fill="url(#paint5_linear_3200_21519)" stroke="black"/>
<path id="Vector_7" d="M70.463 25.2736H67.4922H66.9922V25.7736V30.0004V30.5004H67.4922H70.463V42.9559V43.4559H70.963H78.6263H79.1263V42.9559V30.5004H83.4718H83.9718V30.0004V25.7736V25.2736H83.4718H79.1263V25.155C79.1263 24.4928 79.3138 24.1153 79.5891 23.898L79.5891 23.898L79.5916 23.896C79.917 23.6357 80.5103 23.4557 81.4786 23.4557C82.4308 23.4557 83.2134 23.4898 83.8309 23.5559L84.4693 23.6243L84.3792 22.9886L83.7606 18.6243L83.7053 18.2341L83.313 18.1967C81.8633 18.0587 80.6998 17.9883 79.8291 17.9883C76.8279 17.9883 74.4865 18.5324 72.8851 19.6993C71.2542 20.8877 70.463 22.6678 70.463 24.9488V25.2736Z" fill="url(#paint6_linear_3200_21519)" stroke="black"/>
<path id="Vector_8" d="M45.9727 42.4516L45.9726 42.4516L45.9767 42.4548C47.1969 43.4208 48.8928 43.8686 50.995 43.8686C52.8848 43.8686 54.4876 43.5265 55.7746 42.8087C56.4623 42.4252 57.0639 42.0071 57.5743 41.5524C57.5742 41.5736 57.5741 41.5948 57.5741 41.616C57.5741 42.1646 57.6488 42.6694 57.8088 43.1226L57.9265 43.4562H58.2803H66.1154H66.9599L66.5538 42.7158C66.2031 42.0762 66.0312 41.414 66.0312 40.7225V31.5472C66.0312 29.4156 65.2499 27.7237 63.6652 26.5415C62.0893 25.3659 59.5938 24.8271 56.2871 24.8271C53.2318 24.8271 50.8516 25.2527 49.2069 26.1609C47.5821 27.0582 46.4224 28.3091 45.7565 29.912L45.5095 30.5067L46.1469 30.5987L52.8136 31.5609L53.1708 31.6125L53.3322 31.2897C53.598 30.7581 53.9176 30.4042 54.2763 30.1889L54.284 30.1843L54.2916 30.1794C54.6476 29.948 55.1296 29.8134 55.7717 29.8134C56.4034 29.8134 56.784 29.9593 57.0057 30.1629C57.2193 30.359 57.3679 30.685 57.3679 31.2379V32.0406L53.5748 32.2853C53.5748 32.2853 53.5747 32.2853 53.5747 32.2853C50.3232 32.4929 47.9021 33.0945 46.4088 34.1644C44.9289 35.2181 44.1719 36.6625 44.1719 38.4544C44.1719 40.1218 44.7647 41.4749 45.9727 42.4516ZM54.6376 38.6761C53.9658 38.6761 53.5513 38.5389 53.3104 38.3469C53.0665 38.1304 52.9383 37.8502 52.9383 37.4579C52.9383 37.0428 53.0851 36.7489 53.3791 36.5224C53.6988 36.2761 54.2295 36.0833 55.035 35.9962L57.3679 35.7462V37.6721C57.1321 37.9022 56.7997 38.1287 56.3532 38.3437C55.8538 38.5621 55.2846 38.6761 54.6376 38.6761Z" fill="url(#paint7_linear_3200_21519)" stroke="black"/>
<path id="Vector_9" d="M30.0547 25.2737H29.5547V25.7737V42.956V43.456H30.0547H37.718H38.218V42.956V33.282L42.3014 32.3082L42.3023 32.308L45.0171 31.6551L45.4722 31.5457L45.393 31.0844L44.3964 25.2768L44.2993 24.7107L43.752 24.8849C42.6604 25.2322 41.4703 25.9502 40.1849 27.0019L40.1849 27.0018L40.1815 27.0047C39.3802 27.6725 38.6437 28.3833 37.9724 29.1372C38.1125 28.0928 38.1836 27.1657 38.1836 26.3579V25.7737V25.2737H37.6836H30.0547Z" fill="url(#paint8_linear_3200_21519)" stroke="black"/>
<path id="Vector_10" d="M1 18.4004H0.5V18.9004V42.9557V43.4557H1H13.5431C18.2657 43.4557 21.9638 42.3508 24.5607 40.0664C27.1641 37.7765 28.4419 34.5691 28.4419 30.5156C28.4419 28.0537 27.8728 25.896 26.7151 24.063C25.5547 22.2257 23.8444 20.8245 21.6125 19.851C19.3794 18.877 16.684 18.4004 13.5431 18.4004H1ZM16.711 35.5077L16.7106 35.5081C15.821 36.4988 14.5175 37.026 12.7184 37.026H9.95371V24.7613H12.7184C14.5519 24.7613 15.8694 25.2611 16.7557 26.1877C17.6418 27.1141 18.1291 28.5483 18.1291 30.5844C18.1291 32.8839 17.625 34.4922 16.711 35.5077Z" fill="url(#paint9_linear_3200_21519)" stroke="black"/>
</g>
<path id="Vector_11" d="M131.773 3.22242C131.601 3.65112 131.457 4.09488 131.248 4.50385C130.855 5.27171 130.292 5.89201 129.532 6.30801C129.337 6.41457 129.127 6.49215 128.904 6.59179C128.909 6.72848 128.89 6.8687 128.922 6.99568C129.068 7.56233 129.023 8.12154 128.909 8.68226C128.715 9.64484 128.353 10.518 127.661 11.2282C127.068 11.8358 126.368 12.2664 125.571 12.531C125.135 12.6757 124.68 12.7549 124.214 12.7037C123.015 12.5725 122.099 11.9383 121.425 10.9652C120.863 10.1542 120.809 9.27606 121.313 8.40303C121.326 8.3796 121.314 8.34063 121.313 8.28212C121.118 8.27293 120.931 8.25862 120.744 8.25633C120.225 8.2501 119.712 8.2012 119.215 8.03611C117.834 7.57745 116.521 6.99304 115.465 5.93322C115.395 5.86262 115.316 5.80951 115.231 5.87616C115.178 5.91698 115.134 5.99317 115.123 6.06016C115.087 6.28345 115.088 6.51461 115.038 6.73399C114.619 8.58122 113.897 10.2591 112.43 11.5138C112.367 11.5674 112.319 11.6382 112.263 11.7024C112.469 11.8056 112.658 11.8789 112.824 11.9868C113.424 12.3741 113.825 12.9215 113.92 13.6331C114.087 14.8867 113.833 16.0343 112.937 16.9579C112.449 17.461 111.83 17.7361 111.155 17.9124C109.883 18.2451 108.663 18.1438 107.513 17.4581C106.77 17.0148 106.083 16.5003 105.661 15.7022C105.601 15.5876 105.496 15.4962 105.422 15.406C105.16 15.4843 104.939 15.5694 104.71 15.6159C103.873 15.7867 103.053 15.6802 102.264 15.3632C101.837 15.1915 101.436 14.9534 101.027 14.7396C100.935 14.6917 100.855 14.619 100.754 14.7801C100.83 14.852 100.906 14.9289 100.987 14.9996C102.293 16.1344 103.457 17.4016 104.481 18.8013C105.253 19.8575 105.966 20.9528 106.491 22.1556C106.85 22.9786 107.173 23.8206 107.379 24.6986C107.438 24.9531 107.58 25.0849 107.804 25.1079C107.858 25.2955 107.904 25.4586 107.952 25.6209C108.014 25.8289 108.248 26.003 108.08 26.256C108.202 26.5822 108.324 26.9083 108.466 27.2857C108.612 27.173 108.721 27.0976 108.82 27.0111C111.616 24.5787 114.733 22.6623 118.097 21.1409C119.219 20.6338 120.363 20.1867 121.525 19.7797C122.772 19.3426 124.029 18.9448 125.319 18.6506C126.804 18.312 128.294 18.0045 129.809 17.823C131.222 17.6537 132.641 17.5696 134.066 17.5603C134.181 17.5596 134.296 17.5428 134.448 17.5305C134.332 17.2215 134.229 16.97 134.144 16.7121C134.088 16.5404 133.999 16.4155 133.857 16.3958C133.732 16.0626 133.621 15.7671 133.508 15.4639C133.668 15.26 133.679 15.0567 133.523 14.8115C133.365 14.5646 133.249 14.2877 133.136 14.0152C132.709 12.9831 132.361 11.9259 132.161 10.8247C131.707 8.32133 131.633 5.81272 131.994 3.29924C132.007 3.2142 132.004 3.12708 132.008 3.04578C131.81 2.97995 131.813 3.12348 131.773 3.22242ZM109.805 24.5888C109.599 24.7559 109.377 24.9362 109.156 25.1154C108.948 24.7852 108.768 24.4999 108.562 24.1714C108.839 23.9683 109.129 23.757 109.415 23.5481C109.548 23.9032 109.67 24.2286 109.805 24.5888ZM111.521 23.3034C111.296 23.4675 111.059 23.6411 110.804 23.8275C110.696 23.492 110.598 23.1852 110.482 22.8259C110.684 22.6971 110.918 22.5472 111.175 22.3826C111.298 22.7098 111.404 22.9918 111.521 23.3034ZM113.242 22.1996C112.99 22.3538 112.722 22.5181 112.434 22.6943C112.37 22.3604 112.314 22.0655 112.25 21.7312C112.456 21.6067 112.678 21.4721 112.915 21.3289C113.026 21.6252 113.127 21.8946 113.242 22.1996ZM114.145 21.6962C114.075 21.3527 114.019 21.0786 113.954 20.7651C114.232 20.6187 114.509 20.4724 114.773 20.3333C114.928 20.613 115.062 20.8562 115.22 21.1424C114.885 21.3155 114.529 21.4987 114.145 21.6962ZM116.087 20.7179C116.062 20.3957 116.039 20.0949 116.012 19.7416C116.175 19.6578 116.378 19.5533 116.591 19.443C116.732 19.7115 116.867 19.9666 117.023 20.2648C116.702 20.4204 116.395 20.5687 116.087 20.7179ZM118.764 19.4385C118.491 19.5674 118.224 19.6932 117.925 19.8345C117.892 19.512 117.864 19.2277 117.834 18.9245C118.056 18.841 118.281 18.7565 118.524 18.6654C118.602 18.9175 118.677 19.1592 118.764 19.4385ZM120.502 18.7223C120.242 18.82 119.99 18.9145 119.713 19.0185C119.614 18.7563 119.539 18.5558 119.454 18.3282C119.713 18.2308 119.967 18.1354 120.243 18.032C120.323 18.2462 120.405 18.463 120.502 18.7223ZM121.503 18.4148C121.404 18.1505 121.315 17.9123 121.218 17.6553C121.428 17.5768 121.644 17.4957 121.877 17.4081C122.045 17.6398 122.215 17.8756 122.41 18.146C122.101 18.2376 121.816 18.3223 121.503 18.4148ZM123.376 17.8802C123.292 17.5656 123.221 17.2951 123.141 16.9939C123.362 16.9317 123.581 16.8701 123.777 16.8153C123.986 17.0903 124.176 17.3393 124.38 17.606C124.05 17.696 123.721 17.7861 123.376 17.8802ZM125.307 17.3627C125.238 17.0532 125.175 16.7734 125.104 16.457C125.405 16.3838 125.712 16.3093 126.014 16.2359C126.181 16.5356 126.317 16.7799 126.476 17.0628C126.084 17.1635 125.694 17.2635 125.307 17.3627ZM127.481 16.8425C127.372 16.5528 127.27 16.2808 127.159 15.9867C127.431 15.9343 127.679 15.8864 127.928 15.8382C128.091 16.1168 128.245 16.3786 128.42 16.6769C128.11 16.7724 127.787 16.8047 127.481 16.8425ZM129.516 16.5544C129.402 16.2491 129.293 15.9592 129.169 15.6283C129.438 15.5859 129.707 15.5438 129.985 15.4999C130.12 15.8121 130.248 16.1091 130.402 16.4675C130.096 16.4977 129.803 16.5264 129.516 16.5544ZM132.492 16.3513C132.225 16.3656 131.951 16.3804 131.664 16.3961C131.53 16.0401 131.409 15.7166 131.278 15.367C131.605 15.2834 131.962 15.2884 132.312 15.2576C132.373 15.629 132.429 15.9699 132.492 16.3513Z" fill="url(#paint10_linear_3200_21519)"/>
</g>
<defs>
<linearGradient id="paint0_linear_3200_21519" x1="207.828" y1="25.3271" x2="207.828" y2="43.403" gradientUnits="userSpaceOnUse">
<stop stop-color="#828282"/>
<stop offset="0.5" stop-color="#F2F2F2"/>
<stop offset="1" stop-color="#828282"/>
</linearGradient>
<linearGradient id="paint1_linear_3200_21519" x1="185.248" y1="21.5469" x2="185.248" y2="50.0008" gradientUnits="userSpaceOnUse">
<stop stop-color="#828282"/>
<stop offset="0.5" stop-color="#F2F2F2"/>
<stop offset="1" stop-color="#828282"/>
</linearGradient>
<linearGradient id="paint2_linear_3200_21519" x1="162.066" y1="25.3271" x2="162.066" y2="42.9562" gradientUnits="userSpaceOnUse">
<stop stop-color="#828282"/>
<stop offset="0.5" stop-color="#F2F2F2"/>
<stop offset="1" stop-color="#828282"/>
</linearGradient>
<linearGradient id="paint3_linear_3200_21519" x1="145.066" y1="18.9004" x2="145.066" y2="42.9557" gradientUnits="userSpaceOnUse">
<stop stop-color="#828282"/>
<stop offset="0.5" stop-color="#F2F2F2"/>
<stop offset="1" stop-color="#828282"/>
</linearGradient>
<linearGradient id="paint4_linear_3200_21519" x1="126.738" y1="18.9004" x2="126.738" y2="42.9557" gradientUnits="userSpaceOnUse">
<stop stop-color="#828282"/>
<stop offset="0.5" stop-color="#F2F2F2"/>
<stop offset="1" stop-color="#828282"/>
</linearGradient>
<linearGradient id="paint5_linear_3200_21519" x1="93.3053" y1="20.3086" x2="93.3053" y2="43.2986" gradientUnits="userSpaceOnUse">
<stop stop-color="#828282"/>
<stop offset="0.5" stop-color="#F2F2F2"/>
<stop offset="1" stop-color="#828282"/>
</linearGradient>
<linearGradient id="paint6_linear_3200_21519" x1="75.6882" y1="18.4883" x2="75.6882" y2="42.9559" gradientUnits="userSpaceOnUse">
<stop stop-color="#828282"/>
<stop offset="0.5" stop-color="#F2F2F2"/>
<stop offset="1" stop-color="#828282"/>
</linearGradient>
<linearGradient id="paint7_linear_3200_21519" x1="55.3937" y1="25.3271" x2="55.3937" y2="43.3686" gradientUnits="userSpaceOnUse">
<stop stop-color="#828282"/>
<stop offset="0.5" stop-color="#F2F2F2"/>
<stop offset="1" stop-color="#828282"/>
</linearGradient>
<linearGradient id="paint8_linear_3200_21519" x1="37.4775" y1="25.3613" x2="37.4775" y2="42.956" gradientUnits="userSpaceOnUse">
<stop stop-color="#828282"/>
<stop offset="0.5" stop-color="#F2F2F2"/>
<stop offset="1" stop-color="#828282"/>
</linearGradient>
<linearGradient id="paint9_linear_3200_21519" x1="14.4709" y1="18.9004" x2="14.4709" y2="42.9557" gradientUnits="userSpaceOnUse">
<stop stop-color="#828282"/>
<stop offset="0.5" stop-color="#F2F2F2"/>
<stop offset="1" stop-color="#828282"/>
</linearGradient>
<linearGradient id="paint10_linear_3200_21519" x1="115.237" y1="5.86576" x2="121.448" y2="22.413" gradientUnits="userSpaceOnUse">
<stop stop-color="#828282"/>
<stop offset="0.5" stop-color="#F2F2F2"/>
<stop offset="1" stop-color="#828282"/>
</linearGradient>
</defs>
</svg>
