<svg width="183" height="28" viewBox="0 0 183 28" fill="none" xmlns="http://www.w3.org/2000/svg">
<g id="Ruleta Casino">
<path d="M0 27.2058V0.728813H5.29074C7.0435 0.728813 8.49332 0.968522 9.64019 1.44794C10.7871 1.90557 11.631 2.65739 12.172 3.70339C12.7346 4.7276 13.0159 6.07869 13.0159 7.75666C13.0159 8.78087 12.9077 9.71792 12.6913 10.5678C12.4749 11.3959 12.1287 12.1041 11.6526 12.6925C11.1766 13.2591 10.549 13.6731 9.77002 13.9346L13.5028 27.2058H9.96477L6.52417 14.7845H3.66782V27.2058H0ZM3.66782 12.1368H5.06353C6.10221 12.1368 6.94613 12.0061 7.5953 11.7446C8.24447 11.4831 8.72053 11.0363 9.02348 10.4044C9.32642 9.7724 9.47789 8.88983 9.47789 7.75666C9.47789 6.20944 9.19659 5.09806 8.63397 4.42252C8.07136 3.72518 6.95695 3.37651 5.29074 3.37651H3.66782V12.1368Z" fill="white"/>
<path d="M23.552 27.5C21.6477 27.5 20.1871 27.1186 19.1701 26.3559C18.153 25.5932 17.4606 24.5254 17.0927 23.1525C16.7249 21.7579 16.5409 20.1344 16.5409 18.2821V0.728813H20.0464V18.4455C20.0464 19.5787 20.1222 20.6138 20.2737 21.5508C20.4251 22.4879 20.7497 23.2288 21.2474 23.7736C21.7668 24.3184 22.5349 24.5908 23.552 24.5908C24.5906 24.5908 25.3588 24.3184 25.8565 23.7736C26.3542 23.2288 26.6788 22.4879 26.8303 21.5508C26.9818 20.6138 27.0575 19.5787 27.0575 18.4455V0.728813H30.5306V18.2821C30.5306 20.1344 30.3466 21.7579 29.9788 23.1525C29.6109 24.5254 28.9185 25.5932 27.9014 26.3559C26.906 27.1186 25.4562 27.5 23.552 27.5Z" fill="white"/>
<path d="M34.3921 27.2058V0.728813H38.0599V24.5581H44.7788V27.2058H34.3921Z" fill="white"/>
<path d="M47.2931 27.2058V0.728813H57.4851V3.47458H50.9609V12.2349H56.2517V14.8499H50.9609V24.5581H57.55V27.2058H47.2931Z" fill="white"/>
<path d="M63.3999 27.2058V3.47458H58.9531V0.728813H71.3847V3.47458H67.0677V27.2058H63.3999Z" fill="white"/>
<path d="M71.1598 27.2058L76.7426 0.728813H80.2806L85.896 27.2058H82.4229L81.2219 20.5375H75.8663L74.6004 27.2058H71.1598ZM76.3531 17.8898H80.7351L78.5279 5.95884L76.3531 17.8898Z" fill="white"/>
<path d="M102.57 27.5C100.709 27.5 99.2592 27.1077 98.2206 26.3232C97.2035 25.5387 96.4894 24.4818 96.0783 23.1525C95.6888 21.8232 95.494 20.3414 95.494 18.707V9.35835C95.494 7.57143 95.6888 6.01332 96.0783 4.68402C96.4894 3.35472 97.2035 2.33051 98.2206 1.61138C99.2592 0.87046 100.709 0.5 102.57 0.5C104.215 0.5 105.513 0.805085 106.465 1.41525C107.439 2.02542 108.131 2.89709 108.542 4.03027C108.975 5.16344 109.192 6.52542 109.192 8.11622V10.2082H105.718V8.34504C105.718 7.36441 105.664 6.50363 105.556 5.76271C105.47 5 105.21 4.41162 104.777 3.99758C104.344 3.58353 103.62 3.37651 102.602 3.37651C101.564 3.37651 100.806 3.60533 100.33 4.06295C99.8543 4.49879 99.5405 5.13075 99.3891 5.95884C99.2592 6.76513 99.1943 7.71307 99.1943 8.80266V19.2954C99.1943 20.6247 99.3025 21.6816 99.5189 22.4661C99.7353 23.2288 100.092 23.7736 100.59 24.1005C101.088 24.4274 101.759 24.5908 102.602 24.5908C103.598 24.5908 104.312 24.3729 104.745 23.937C105.178 23.4794 105.448 22.8584 105.556 22.0739C105.664 21.2893 105.718 20.3741 105.718 19.3281V17.3668H109.192V19.3281C109.192 20.9407 108.997 22.368 108.607 23.6102C108.218 24.8305 107.547 25.7893 106.595 26.4867C105.643 27.1622 104.301 27.5 102.57 27.5Z" fill="white"/>
<path d="M111.257 27.2058L116.84 0.728813H120.378L125.994 27.2058H122.521L121.32 20.5375H115.964L114.698 27.2058H111.257ZM116.451 17.8898H120.833L118.626 5.95884L116.451 17.8898Z" fill="white"/>
<path d="M134.766 27.5C133.251 27.5 131.985 27.1731 130.968 26.5194C129.973 25.8656 129.215 24.9613 128.696 23.8063C128.177 22.6513 127.874 21.3111 127.787 19.7857L131.033 18.9031C131.098 19.8402 131.239 20.7446 131.455 21.6162C131.693 22.4879 132.072 23.207 132.591 23.7736C133.11 24.3184 133.835 24.5908 134.766 24.5908C135.718 24.5908 136.432 24.3293 136.908 23.8063C137.406 23.2615 137.655 22.4879 137.655 21.4855C137.655 20.2869 137.384 19.3281 136.843 18.609C136.302 17.868 135.621 17.1271 134.798 16.3862L130.384 12.4637C129.518 11.701 128.88 10.8729 128.469 9.97942C128.058 9.06417 127.852 7.94189 127.852 6.61259C127.852 4.67312 128.404 3.16949 129.508 2.1017C130.611 1.0339 132.115 0.5 134.019 0.5C135.058 0.5 135.967 0.641647 136.746 0.92494C137.546 1.18644 138.206 1.60048 138.726 2.16707C139.267 2.73366 139.689 3.45278 139.992 4.32445C140.316 5.17433 140.533 6.17676 140.641 7.33172L137.525 8.1816C137.46 7.30993 137.33 6.51453 137.135 5.7954C136.941 5.05448 136.594 4.4661 136.097 4.03027C135.621 3.57264 134.928 3.34383 134.019 3.34383C133.11 3.34383 132.396 3.59443 131.877 4.09564C131.379 4.57506 131.13 5.29419 131.13 6.25303C131.13 7.05932 131.26 7.72397 131.52 8.24697C131.801 8.76997 132.245 9.30387 132.851 9.84867L137.298 13.7712C138.293 14.6429 139.169 15.6889 139.927 16.9092C140.684 18.1077 141.063 19.5351 141.063 21.1913C141.063 22.4988 140.792 23.632 140.251 24.5908C139.71 25.5278 138.964 26.247 138.012 26.7482C137.081 27.2494 135.999 27.5 134.766 27.5Z" fill="white"/>
<path d="M144.103 27.2058V0.728813H147.706V27.2058H144.103Z" fill="white"/>
<path d="M151.959 27.2058V0.728813H154.459L161.924 18.3148V0.728813H164.975V27.2058H162.638L155.075 9.12954V27.2058H151.959Z" fill="white"/>
<path d="M175.827 27.5C174.052 27.5 172.635 27.1513 171.575 26.454C170.514 25.7567 169.757 24.7651 169.302 23.4794C168.848 22.1719 168.621 20.6465 168.621 18.9031V8.86804C168.621 7.1247 168.848 5.63196 169.302 4.38983C169.779 3.12591 170.536 2.16707 171.575 1.51332C172.635 0.837773 174.052 0.5 175.827 0.5C177.601 0.5 179.008 0.837773 180.046 1.51332C181.085 2.18886 181.831 3.1477 182.286 4.38983C182.762 5.63196 183 7.1247 183 8.86804V18.9358C183 20.6574 182.762 22.161 182.286 23.4467C181.831 24.7324 181.085 25.7349 180.046 26.454C179.008 27.1513 177.601 27.5 175.827 27.5ZM175.827 24.5908C176.8 24.5908 177.536 24.3947 178.034 24.0024C178.532 23.5884 178.867 23.0218 179.04 22.3027C179.213 21.5617 179.3 20.701 179.3 19.7203V8.11622C179.3 7.13559 179.213 6.29661 179.04 5.59927C178.867 4.88015 178.532 4.33535 178.034 3.96489C177.536 3.57264 176.8 3.37651 175.827 3.37651C174.853 3.37651 174.106 3.57264 173.587 3.96489C173.089 4.33535 172.754 4.88015 172.581 5.59927C172.408 6.29661 172.321 7.13559 172.321 8.11622V19.7203C172.321 20.701 172.408 21.5617 172.581 22.3027C172.754 23.0218 173.089 23.5884 173.587 24.0024C174.106 24.3947 174.853 24.5908 175.827 24.5908Z" fill="white"/>
</g>
</svg>
