<svg width="67" height="24" viewBox="0 0 67 24" fill="none" xmlns="http://www.w3.org/2000/svg">
<path d="M0 18.3241L9.99708 7.28411L9.2125 10.7771L3.87229 0.476562H10.2502L13.3379 6.82518L10.7563 6.87617L16.2231 0.476562H22.9553L13.6163 10.8536L13.8187 7.46259L19.6398 18.3241H13.186L9.97177 11.644L12.6798 11.695L7.13715 18.3241H0Z" fill="#FE7801"/>
<path d="M22.0608 23.5253C21.3015 23.5253 20.5507 23.4149 19.8083 23.1939C19.049 22.9729 18.4416 22.684 17.986 22.327L20.4663 18.3241C20.7532 18.545 21.0737 18.7235 21.4281 18.8595C21.7824 18.9955 22.1536 19.0635 22.5417 19.0635C22.9972 19.0635 23.3684 18.953 23.6553 18.732C23.9421 18.528 24.2121 18.2136 24.4652 17.7886L25.351 16.3099L25.7812 15.7489L32.3869 4.37752H37.9802L29.4763 18.6045C28.7171 19.8794 27.9747 20.8737 27.2492 21.5876C26.5236 22.3015 25.739 22.8029 24.8954 23.0919C24.0686 23.3809 23.1238 23.5253 22.0608 23.5253ZM24.0602 18.9615L20.9219 4.37752H26.6164L28.6665 15.239L24.0602 18.9615Z" fill="white"/>
<path d="M43.9508 18.579C42.4322 18.579 41.0993 18.3156 39.9519 17.7886C38.8215 17.2617 37.9356 16.5138 37.2945 15.545C36.6533 14.5761 36.3327 13.4373 36.3327 12.1284C36.3327 10.5986 36.6871 9.23034 37.3957 8.02351C38.1044 6.81668 39.0998 5.86481 40.3822 5.16791C41.6814 4.471 43.1915 4.12255 44.9125 4.12255C46.3973 4.12255 47.6627 4.38602 48.7089 4.91294C49.755 5.43987 50.5564 6.16227 51.1132 7.08014C51.67 7.99801 51.9484 9.06036 51.9484 10.2672C51.9484 10.6921 51.9147 11.1086 51.8472 11.5165C51.7966 11.9245 51.7291 12.3154 51.6447 12.6894H40.8884L41.4198 9.91024H49.0126L46.6335 10.6496C46.7685 10.1057 46.7601 9.64678 46.6082 9.27283C46.4732 8.88189 46.237 8.58443 45.8996 8.38046C45.5621 8.15949 45.1487 8.049 44.6594 8.049C43.9676 8.049 43.4193 8.23598 43.0143 8.60993C42.6094 8.98387 42.3141 9.46831 42.1285 10.0632C41.9598 10.6581 41.8754 11.2786 41.8754 11.9245C41.8754 12.7913 42.1032 13.4118 42.5588 13.7857C43.0312 14.1427 43.7145 14.3211 44.6088 14.3211C45.1318 14.3211 45.6549 14.2446 46.178 14.0917C46.701 13.9217 47.1819 13.6752 47.6206 13.3523L49.9996 16.8453C49.0547 17.4912 48.0677 17.9416 47.0385 18.1966C46.0261 18.4516 44.9969 18.579 43.9508 18.579Z" fill="white"/>
<path d="M57.8818 18.579C56.6501 18.579 55.4774 18.4601 54.3638 18.2221C53.2671 17.9671 52.4151 17.6612 51.8076 17.3042L53.7817 13.3778C54.4735 13.8027 55.2497 14.1257 56.1102 14.3466C56.9876 14.5506 57.8143 14.6526 58.5905 14.6526C59.2316 14.6526 59.6703 14.5931 59.9065 14.4741C60.1596 14.3381 60.2862 14.1766 60.2862 13.9897C60.2862 13.7857 60.1174 13.6412 59.78 13.5562C59.4425 13.4542 59.0038 13.3693 58.4639 13.3013C57.9409 13.2333 57.3841 13.1313 56.7935 12.9953C56.203 12.8593 55.6377 12.6639 55.0978 12.4089C54.5748 12.1369 54.1445 11.763 53.807 11.2871C53.4696 10.8111 53.3009 10.1822 53.3009 9.40032C53.3009 8.19348 53.6468 7.20762 54.3385 6.44273C55.0472 5.66084 55.9921 5.08292 57.1732 4.70897C58.3542 4.31803 59.6619 4.12255 61.0961 4.12255C62.1084 4.12255 63.0786 4.21604 64.0066 4.40301C64.9515 4.57299 65.7867 4.82795 66.5122 5.16791L64.5381 9.09436C63.8126 8.66942 63.087 8.38896 62.3615 8.25298C61.6529 8.117 61.0033 8.049 60.4127 8.049C59.7547 8.049 59.2991 8.12549 59.046 8.27847C58.7929 8.41445 58.6664 8.56743 58.6664 8.73741C58.6664 8.94138 58.8351 9.09436 59.1726 9.19634C59.51 9.29833 59.9403 9.39182 60.4633 9.47681C60.9864 9.5448 61.5432 9.64678 62.1337 9.78276C62.7411 9.90175 63.3064 10.0972 63.8294 10.3692C64.3525 10.6241 64.7827 10.9896 65.1202 11.4655C65.4576 11.9415 65.6264 12.5704 65.6264 13.3523C65.6264 14.5081 65.272 15.477 64.5634 16.2589C63.8716 17.0407 62.9352 17.6272 61.7541 18.0181C60.5899 18.3921 59.2991 18.579 57.8818 18.579Z" fill="white"/>
</svg>
