<svg width="221" height="44" viewBox="0 0 221 44" fill="none" xmlns="http://www.w3.org/2000/svg">
<path d="M45.1805 32.0055H41.2348V16.6409H36.1655V13.3485H50.2497V16.6409H45.1805V32.0055Z" fill="#DEBB4E"/>
<path d="M63.9365 24.8458C63.9365 26.0304 63.771 27.0843 63.44 28.0075C63.1264 28.9308 62.6648 29.7147 62.0551 30.3593C61.4628 30.9864 60.7399 31.4654 59.8863 31.7964C59.0327 32.11 58.0659 32.2668 56.9858 32.2668C55.9929 32.2668 55.0696 32.11 54.216 31.7964C53.3798 31.4654 52.6569 30.9864 52.0472 30.3593C51.4375 29.7147 50.9584 28.9308 50.61 28.0075C50.2791 27.0843 50.1136 26.0304 50.1136 24.8458C50.1136 23.2605 50.3923 21.9279 50.9497 20.8479C51.5072 19.7504 52.3085 18.9142 53.3537 18.3394C54.3989 17.7645 55.6358 17.4771 57.0642 17.4771C58.4056 17.4771 59.5901 17.7645 60.6179 18.3394C61.6457 18.9142 62.4557 19.7504 63.048 20.8479C63.6403 21.9279 63.9365 23.2605 63.9365 24.8458ZM54.0854 24.8458C54.0854 25.7865 54.1812 26.5791 54.3728 27.2236C54.5818 27.8508 54.9041 28.3298 55.3396 28.6608C55.7751 28.9744 56.3413 29.1311 57.0381 29.1311C57.7349 29.1311 58.2923 28.9744 58.7104 28.6608C59.1459 28.3298 59.4595 27.8508 59.6511 27.2236C59.8601 26.5791 59.9647 25.7865 59.9647 24.8458C59.9647 23.9051 59.8601 23.1212 59.6511 22.4941C59.4595 21.8669 59.1459 21.3966 58.7104 21.083C58.2749 20.7695 57.7088 20.6127 57.0119 20.6127C55.9842 20.6127 55.2351 20.9698 54.7647 21.684C54.3118 22.3808 54.0854 23.4347 54.0854 24.8458Z" fill="#DEBB4E"/>
<path d="M73.1641 29.1573C73.5996 29.1573 74.0177 29.1137 74.4184 29.0266C74.819 28.9395 75.2197 28.835 75.6203 28.7131V31.6135C75.2023 31.7877 74.6797 31.9358 74.0525 32.0577C73.4428 32.1971 72.7722 32.2668 72.0405 32.2668C71.1869 32.2668 70.4204 32.1274 69.741 31.8487C69.0791 31.57 68.5478 31.0909 68.1471 30.4115C67.7639 29.7147 67.5722 28.7566 67.5722 27.5372V20.6649H65.717V19.0187L67.8597 17.7122L68.9833 14.7072H71.4656V17.7384H75.4636V20.6649H71.4656V27.5372C71.4656 28.0772 71.6224 28.4866 71.936 28.7653C72.2495 29.0266 72.6589 29.1573 73.1641 29.1573Z" fill="#DEBB4E"/>
<path d="M84.3372 17.4509C86.2535 17.4509 87.7167 17.869 88.7271 18.7052C89.7549 19.5239 90.2688 20.7869 90.2688 22.4941V32.0055H87.5513L86.7935 30.0718H86.689C86.2883 30.577 85.8702 30.9951 85.4347 31.3261C85.0166 31.6571 84.5289 31.8922 83.9714 32.0316C83.4314 32.1884 82.7607 32.2668 81.9594 32.2668C81.1232 32.2668 80.3654 32.11 79.6861 31.7964C79.0241 31.4654 78.5015 30.969 78.1182 30.307C77.735 29.6276 77.5434 28.774 77.5434 27.7462C77.5434 26.2307 78.0747 25.1158 79.1373 24.4016C80.1999 23.6699 81.7939 23.2693 83.9192 23.1996L86.4015 23.1212V22.4941C86.4015 21.745 86.2012 21.1963 85.8005 20.8479C85.4173 20.4995 84.8773 20.3252 84.1805 20.3252C83.4837 20.3252 82.8043 20.4298 82.1423 20.6388C81.4803 20.8304 80.8184 21.0743 80.1564 21.3705L78.876 18.7313C79.6425 18.3306 80.4874 18.0171 81.4107 17.7906C82.3513 17.5642 83.3269 17.4509 84.3372 17.4509ZM84.886 25.4468C83.6317 25.4816 82.7607 25.7081 82.2729 26.1262C81.7852 26.5442 81.5413 27.093 81.5413 27.7724C81.5413 28.3647 81.7155 28.7914 82.0639 29.0527C82.4123 29.2966 82.8652 29.4186 83.4227 29.4186C84.2588 29.4186 84.9644 29.1747 85.5392 28.6869C86.1141 28.1817 86.4015 27.4762 86.4015 26.5704V25.3945L84.886 25.4468Z" fill="#DEBB4E"/>
<path d="M98.1475 32.0055H94.2541V12.1465H98.1475V32.0055Z" fill="#DEBB4E"/>
<path d="M110.447 16.3796C109.698 16.3796 109.027 16.5277 108.435 16.8238C107.86 17.1199 107.372 17.5467 106.971 18.1042C106.571 18.6442 106.266 19.3062 106.057 20.0901C105.865 20.874 105.769 21.7537 105.769 22.7292C105.769 24.0532 105.926 25.1855 106.24 26.1262C106.571 27.0494 107.085 27.7549 107.781 28.2427C108.478 28.7305 109.367 28.9744 110.447 28.9744C111.213 28.9744 111.971 28.8873 112.72 28.7131C113.486 28.5389 114.314 28.295 115.202 27.9814V31.3C114.384 31.6309 113.574 31.8748 112.772 32.0316C111.971 32.1884 111.074 32.2668 110.081 32.2668C108.165 32.2668 106.579 31.8748 105.325 31.0909C104.088 30.2896 103.174 29.1747 102.581 27.7462C101.989 26.3004 101.693 24.6193 101.693 22.7031C101.693 21.2921 101.885 20.003 102.268 18.8358C102.651 17.6513 103.209 16.6322 103.94 15.7786C104.689 14.925 105.604 14.263 106.684 13.7927C107.781 13.3223 109.036 13.0872 110.447 13.0872C111.37 13.0872 112.293 13.2091 113.216 13.453C114.157 13.6795 115.054 13.993 115.908 14.3937L114.627 17.6077C113.931 17.2767 113.225 16.9893 112.511 16.7454C111.814 16.5015 111.126 16.3796 110.447 16.3796Z" fill="#DEBB4E"/>
<path d="M124.706 17.4509C126.623 17.4509 128.086 17.869 129.096 18.7052C130.124 19.5239 130.638 20.7869 130.638 22.4941V32.0055H127.92L127.163 30.0718H127.058C126.657 30.577 126.239 30.9951 125.804 31.3261C125.386 31.6571 124.898 31.8922 124.341 32.0316C123.801 32.1884 123.13 32.2668 122.329 32.2668C121.492 32.2668 120.735 32.11 120.055 31.7964C119.393 31.4654 118.871 30.969 118.487 30.307C118.104 29.6276 117.913 28.774 117.913 27.7462C117.913 26.2307 118.444 25.1158 119.507 24.4016C120.569 23.6699 122.163 23.2693 124.288 23.1996L126.771 23.1212V22.4941C126.771 21.745 126.57 21.1963 126.17 20.8479C125.786 20.4995 125.246 20.3252 124.55 20.3252C123.853 20.3252 123.173 20.4298 122.511 20.6388C121.85 20.8304 121.188 21.0743 120.526 21.3705L119.245 18.7313C120.012 18.3306 120.857 18.0171 121.78 17.7906C122.721 17.5642 123.696 17.4509 124.706 17.4509ZM125.255 25.4468C124.001 25.4816 123.13 25.7081 122.642 26.1262C122.154 26.5442 121.91 27.093 121.91 27.7724C121.91 28.3647 122.085 28.7914 122.433 29.0527C122.781 29.2966 123.234 29.4186 123.792 29.4186C124.628 29.4186 125.334 29.1747 125.908 28.6869C126.483 28.1817 126.771 27.4762 126.771 26.5704V25.3945L125.255 25.4468Z" fill="#DEBB4E"/>
<path d="M144.579 27.7724C144.579 28.7305 144.352 29.5492 143.899 30.2286C143.447 30.8906 142.767 31.3958 141.861 31.7442C140.955 32.0926 139.832 32.2668 138.491 32.2668C137.498 32.2668 136.644 32.1971 135.93 32.0577C135.216 31.9358 134.501 31.7267 133.787 31.4306V28.2166C134.554 28.565 135.381 28.8524 136.269 29.0789C137.158 29.3053 137.942 29.4186 138.621 29.4186C139.388 29.4186 139.928 29.3053 140.241 29.0789C140.572 28.8524 140.738 28.5563 140.738 28.1905C140.738 27.9466 140.668 27.7288 140.529 27.5372C140.407 27.3456 140.128 27.1278 139.693 26.8839C139.257 26.6401 138.578 26.3265 137.654 25.9433C136.766 25.56 136.034 25.1855 135.459 24.8197C134.885 24.4364 134.458 23.9835 134.179 23.4609C133.9 22.9209 133.761 22.2502 133.761 21.4489C133.761 20.1249 134.275 19.132 135.303 18.47C136.33 17.808 137.698 17.4771 139.405 17.4771C140.294 17.4771 141.138 17.5642 141.94 17.7384C142.741 17.9126 143.569 18.2 144.422 18.6007L143.246 21.3966C142.776 21.1875 142.323 21.0046 141.887 20.8479C141.452 20.6911 141.025 20.5691 140.607 20.482C140.206 20.3949 139.788 20.3514 139.353 20.3514C138.778 20.3514 138.342 20.4298 138.046 20.5866C137.768 20.7433 137.628 20.9785 137.628 21.2921C137.628 21.5185 137.698 21.7276 137.837 21.9192C137.994 22.0934 138.281 22.285 138.7 22.4941C139.135 22.7031 139.771 22.9818 140.607 23.3302C141.426 23.6612 142.131 24.0096 142.724 24.3754C143.316 24.7238 143.769 25.1681 144.082 25.7081C144.413 26.2307 144.579 26.9188 144.579 27.7724Z" fill="#DEBB4E"/>
<path d="M151.505 17.7384V32.0055H147.612V17.7384H151.505ZM149.572 12.1465C150.146 12.1465 150.643 12.2858 151.061 12.5646C151.479 12.8259 151.688 13.3223 151.688 14.054C151.688 14.7682 151.479 15.2647 151.061 15.5434C150.643 15.8221 150.146 15.9615 149.572 15.9615C148.979 15.9615 148.474 15.8221 148.056 15.5434C147.655 15.2647 147.455 14.7682 147.455 14.054C147.455 13.3223 147.655 12.8259 148.056 12.5646C148.474 12.2858 148.979 12.1465 149.572 12.1465Z" fill="#DEBB4E"/>
<path d="M163.674 17.4771C165.207 17.4771 166.435 17.8951 167.358 18.7313C168.281 19.5501 168.743 20.874 168.743 22.7031V32.0055H164.85V23.6699C164.85 22.6421 164.667 21.8756 164.301 21.3705C163.935 20.8479 163.351 20.5866 162.55 20.5866C161.366 20.5866 160.556 20.9959 160.12 21.8147C159.685 22.616 159.467 23.7744 159.467 25.29V32.0055H155.573V17.7384H158.552L159.075 19.5675H159.284C159.597 19.0797 159.981 18.6878 160.434 18.3916C160.887 18.078 161.392 17.8516 161.949 17.7122C162.507 17.5554 163.081 17.4771 163.674 17.4771Z" fill="#DEBB4E"/>
<path d="M185.707 24.8458C185.707 26.0304 185.542 27.0843 185.211 28.0075C184.897 28.9308 184.436 29.7147 183.826 30.3593C183.234 30.9864 182.511 31.4654 181.657 31.7964C180.804 32.11 179.837 32.2668 178.757 32.2668C177.764 32.2668 176.841 32.11 175.987 31.7964C175.151 31.4654 174.428 30.9864 173.818 30.3593C173.208 29.7147 172.729 28.9308 172.381 28.0075C172.05 27.0843 171.885 26.0304 171.885 24.8458C171.885 23.2605 172.163 21.9279 172.721 20.8479C173.278 19.7504 174.08 18.9142 175.125 18.3394C176.17 17.7645 177.407 17.4771 178.835 17.4771C180.177 17.4771 181.361 17.7645 182.389 18.3394C183.417 18.9142 184.227 19.7504 184.819 20.8479C185.411 21.9279 185.707 23.2605 185.707 24.8458ZM175.856 24.8458C175.856 25.7865 175.952 26.5791 176.144 27.2236C176.353 27.8508 176.675 28.3298 177.111 28.6608C177.546 28.9744 178.112 29.1311 178.809 29.1311C179.506 29.1311 180.063 28.9744 180.481 28.6608C180.917 28.3298 181.23 27.8508 181.422 27.2236C181.631 26.5791 181.736 25.7865 181.736 24.8458C181.736 23.9051 181.631 23.1212 181.422 22.4941C181.23 21.8669 180.917 21.3966 180.481 21.083C180.046 20.7695 179.48 20.6127 178.783 20.6127C177.755 20.6127 177.006 20.9698 176.536 21.684C176.083 22.3808 175.856 23.4347 175.856 24.8458Z" fill="#DEBB4E"/>
<rect x="34.4526" y="0.359375" width="153.445" height="1.3115" fill="#DEBB4E"/>
<rect x="34.4526" y="42.3281" width="153.445" height="1.3115" fill="#DEBB4E"/>
<path d="M18.1495 17.738L27.73 19.1301L20.7975 25.8878L22.4342 35.4296L13.865 30.9245L5.29584 35.4296L6.93251 25.8878L0 19.1301L9.58057 17.738L13.865 9.05664L18.1495 17.738ZM10.7423 19.3371L3.75911 20.3513L8.81235 25.277L7.6193 32.2312L13.865 28.9481L20.1105 32.2312L18.9177 25.277L23.9706 20.3513L16.9877 19.3371L13.865 13.0094L10.7423 19.3371Z" fill="#DEBB4E"/>
<path d="M211.419 17.738L221 19.1301L214.068 25.8878L215.704 35.4296L207.135 30.9245L198.566 35.4296L200.203 25.8878L193.27 19.1301L202.851 17.738L207.135 9.05664L211.419 17.738ZM204.012 19.3371L197.029 20.3513L202.082 25.277L200.889 32.2312L207.135 28.9481L213.38 32.2312L212.188 25.277L217.241 20.3513L210.258 19.3371L207.135 13.0094L204.012 19.3371Z" fill="#DEBB4E"/>
</svg>
