<svg width="188" height="40" viewBox="0 0 188 40" fill="none" xmlns="http://www.w3.org/2000/svg">
<path d="M0 1.35246H12.6579V28.8975H29.6066V38.6475H0V1.35246Z" fill="white"/>
<path d="M64.3186 29.1639V38.6475H33.1029V1.35246H63.6213V10.8361H45.5463V15.2049H61.4223V24.2623H45.5463V29.1639H64.3186Z" fill="white"/>
<path d="M95.9554 19.4139H103.893V34.5451C101.855 36.0724 99.4953 37.2445 96.8135 38.0615C94.1318 38.8784 91.4321 39.2869 88.7146 39.2869C84.8171 39.2869 81.313 38.4699 78.2021 36.8361C75.0913 35.1667 72.642 32.8757 70.8541 29.9631C69.102 27.015 68.226 23.694 68.226 20C68.226 16.306 69.102 13.0027 70.8541 10.0902C72.642 7.14208 75.1092 4.85109 78.2558 3.21721C81.4024 1.54781 84.9423 0.713115 88.8755 0.713115C92.1652 0.713115 95.1508 1.26366 97.8326 2.36475C100.514 3.46585 102.767 5.06421 104.591 7.15984L99.0126 12.2746C96.3308 9.46858 93.0948 8.06557 89.3046 8.06557C86.9089 8.06557 84.7814 8.56284 82.922 9.55738C81.0627 10.5519 79.6145 11.9549 78.5776 13.7664C77.5406 15.5779 77.0222 17.6557 77.0222 20C77.0222 22.3087 77.5406 24.3689 78.5776 26.1803C79.6145 27.9918 81.0448 29.4126 82.8684 30.4426C84.7277 31.4372 86.8374 31.9344 89.1973 31.9344C91.7003 31.9344 93.953 31.4016 95.9554 30.3361V19.4139Z" fill="url(#paint0_linear_1944_21555)"/>
<path d="M143.717 28.8975V38.6475H109.229V30.9221L126.392 11.1025H109.766V1.35246H142.858V9.07787L125.695 28.8975H143.717Z" fill="white"/>
<path d="M166.814 39.5C162.774 39.5 159.144 38.6653 155.926 36.9959C152.708 35.3265 150.187 33.0178 148.364 30.0697C146.54 27.0861 145.628 23.7295 145.628 20C145.628 16.2705 146.54 12.9317 148.364 9.9836C150.187 7 152.708 4.6735 155.926 3.0041C159.144 1.3347 162.774 0.5 166.814 0.5C170.855 0.5 174.484 1.3347 177.702 3.0041C180.92 4.6735 183.441 7 185.265 9.9836C187.088 12.9317 188 16.2705 188 20C188 23.7295 187.088 27.0861 185.265 30.0697C183.441 33.0178 180.92 35.3265 177.702 36.9959C174.484 38.6653 170.855 39.5 166.814 39.5ZM166.814 29.3238C168.387 29.3238 169.8 28.9508 171.051 28.2049C172.339 27.4235 173.358 26.3402 174.108 24.9549C174.859 23.5342 175.235 21.8825 175.235 20C175.235 18.1175 174.859 16.4836 174.108 15.0984C173.358 13.6776 172.339 12.5943 171.051 11.8484C169.8 11.0669 168.387 10.6762 166.814 10.6762C165.241 10.6762 163.811 11.0669 162.523 11.8484C161.272 12.5943 160.271 13.6776 159.52 15.0984C158.769 16.4836 158.393 18.1175 158.393 20C158.393 21.8825 158.769 23.5342 159.52 24.9549C160.271 26.3402 161.272 27.4235 162.523 28.2049C163.811 28.9508 165.241 29.3238 166.814 29.3238Z" fill="white"/>
<defs>
<linearGradient id="paint0_linear_1944_21555" x1="85.3316" y1="23.9689" x2="88.271" y2="13.3601" gradientUnits="userSpaceOnUse">
<stop stop-color="#657EFF"/>
<stop offset="1" stop-color="#97A7FD"/>
</linearGradient>
</defs>
</svg>
