<svg width="145" height="34" viewBox="0 0 145 34" fill="none" xmlns="http://www.w3.org/2000/svg">
<g id="Vector">
<path d="M112.091 28.3851C112.092 28.4872 112.061 28.5869 112.002 28.6705C111.944 28.754 111.86 28.8173 111.764 28.8515L109.788 29.5687L109.07 31.5407C109.034 31.6359 108.97 31.718 108.887 31.776C108.803 31.834 108.704 31.865 108.602 31.865C108.501 31.865 108.401 31.834 108.318 31.776C108.234 31.718 108.17 31.6359 108.135 31.5407L107.417 29.5684L105.44 28.8515C105.345 28.8162 105.263 28.7525 105.205 28.6692C105.147 28.5858 105.116 28.4867 105.116 28.3851C105.116 28.2836 105.147 28.1845 105.205 28.1011C105.263 28.0178 105.345 27.9541 105.44 27.9188L107.417 27.2019L108.135 25.2296C108.17 25.1344 108.234 25.0523 108.318 24.9943C108.401 24.9363 108.501 24.9052 108.602 24.9052C108.704 24.9052 108.803 24.9363 108.887 24.9943C108.97 25.0523 109.034 25.1344 109.07 25.2296L109.788 27.2019L111.764 27.9188C111.86 27.953 111.944 28.0163 112.002 28.0998C112.061 28.1834 112.092 28.2831 112.091 28.3851Z" fill="white"/>
<path d="M39.6889 28.3851C39.6897 28.4872 39.6586 28.5869 39.6 28.6705C39.5414 28.754 39.4581 28.8173 39.3618 28.8515L37.3856 29.5687L36.6673 31.5407C36.6319 31.6359 36.5681 31.718 36.4846 31.776C36.4011 31.834 36.3018 31.865 36.2 31.865C36.0983 31.865 35.999 31.834 35.9155 31.776C35.8319 31.718 35.7682 31.6359 35.7328 31.5407L35.0145 29.5684L33.0383 28.8515C32.9429 28.8162 32.8606 28.7525 32.8025 28.6692C32.7444 28.5858 32.7133 28.4867 32.7133 28.3851C32.7133 28.2836 32.7444 28.1845 32.8025 28.1011C32.8606 28.0178 32.9429 27.9541 33.0383 27.9188L35.0145 27.2019L35.7328 25.2296C35.7682 25.1344 35.8319 25.0523 35.9155 24.9943C35.999 24.9363 36.0983 24.9052 36.2 24.9052C36.3018 24.9052 36.4011 24.9363 36.4846 24.9943C36.5681 25.0523 36.6319 25.1344 36.6673 25.2296L37.3859 27.2019L39.3618 27.9188C39.4581 27.953 39.5414 28.0163 39.6 28.0998C39.6586 28.1834 39.6897 28.2831 39.6889 28.3851Z" fill="white"/>
<path d="M2.10696 3.42943C2.10696 2.91686 2.06795 2.54054 1.98991 2.30048C1.91187 2.05393 1.79807 1.88523 1.6485 1.7944C1.49893 1.69708 1.25507 1.603 0.916919 1.51216C0.871398 1.49919 0.754345 1.46674 0.565759 1.41484C0.383675 1.35644 0.195089 1.28832 0 1.21046L0.0195089 0.714111H5.56004C6.61352 0.714111 7.5402 0.775749 8.34006 0.899025C9.14643 1.01581 9.84875 1.30778 10.447 1.77493C11.0453 2.24209 11.3444 2.9493 11.3444 3.89658C11.3444 5.4862 10.1706 6.47889 7.82307 6.87467C8.49938 6.90711 9.15293 7.03688 9.78372 7.26397C10.421 7.48457 10.9478 7.8252 11.3639 8.28586C11.7801 8.74004 11.9882 9.30776 11.9882 9.98902C11.9882 10.8 11.7379 11.4618 11.2371 11.9744C10.7364 12.4805 10.1121 12.8438 9.36428 13.0644C8.61644 13.2785 7.84258 13.3856 7.04272 13.3856H0.0195089L0 12.8795L0.35116 12.7822C0.728333 12.6849 1.03397 12.5875 1.26808 12.4902C1.50219 12.3864 1.70053 12.2372 1.8631 12.0425C2.02568 11.8414 2.10696 11.5721 2.10696 11.2348V3.42943ZM4.20417 6.281C4.29521 6.36535 4.41552 6.43672 4.56509 6.49511C4.71465 6.54702 4.85447 6.57297 4.98453 6.57297H6.28187C8.36282 6.57297 9.4033 5.78465 9.4033 4.20802C9.4033 3.37104 9.16594 2.75141 8.69122 2.34914C8.22301 1.94038 7.667 1.68734 7.02321 1.59002C6.37942 1.4927 5.5893 1.44404 4.65288 1.44404H4.20417V6.281ZM4.20417 10.7189C4.20417 11.1731 4.28221 11.5916 4.43828 11.9744C4.60085 12.3507 4.88048 12.5389 5.27716 12.5389H6.85738C7.35811 12.5389 7.81007 12.4448 8.21325 12.2566C8.62294 12.062 8.94809 11.783 9.1887 11.4197C9.42931 11.0498 9.54961 10.6151 9.54961 10.1155C9.54961 9.24612 9.28949 8.60378 8.76926 8.18854C8.24902 7.7668 7.64099 7.50728 6.94517 7.40995C6.25586 7.30614 5.42348 7.25423 4.44803 7.25423C4.33748 7.35156 4.2692 7.46835 4.24319 7.6046C4.21718 7.73436 4.20417 7.90306 4.20417 8.11068V10.7189Z" fill="white"/>
<path d="M17.8214 10.8552C17.8214 11.3483 17.8637 11.7116 17.9482 11.9452C18.0392 12.1788 18.1595 12.3345 18.3091 12.4124C18.4652 12.4902 18.709 12.5584 19.0407 12.6167C19.4244 12.6816 19.7658 12.766 20.0649 12.8698L20.0454 13.3856H13.5587V12.8795C13.7473 12.7952 13.9164 12.7368 14.0659 12.7043C14.222 12.6654 14.4171 12.6265 14.6512 12.5875C14.9438 12.5486 15.1584 12.4935 15.295 12.4221C15.4316 12.3442 15.5356 12.1755 15.6071 11.916C15.6852 11.6565 15.7242 11.2445 15.7242 10.68V3.3613C15.7242 2.82927 15.6787 2.43673 15.5876 2.18369C15.4966 1.93065 15.3763 1.76845 15.2267 1.69708C15.0836 1.62571 14.869 1.57056 14.5829 1.53163C14.3488 1.4927 14.1537 1.45377 13.9976 1.41484C13.8481 1.37591 13.6888 1.30778 13.5197 1.21046L13.5392 0.714111H20.0064L20.0259 1.22019C19.8893 1.2721 19.6942 1.32725 19.4406 1.38564C19.083 1.47648 18.7968 1.56731 18.5822 1.65815C18.3676 1.74898 18.1856 1.89172 18.036 2.08637C17.8929 2.27453 17.8214 2.53406 17.8214 2.86496V10.8552Z" fill="white"/>
<path d="M23.6546 3.32237C23.6546 2.79683 23.6123 2.41402 23.5278 2.17396C23.4432 1.92741 23.3197 1.76196 23.1571 1.67761C22.9945 1.59326 22.7311 1.51541 22.367 1.44404C21.9248 1.34671 21.6061 1.26885 21.411 1.21046L21.4305 0.714111H28.0246V1.22019C27.836 1.29805 27.6669 1.35644 27.5173 1.39537C27.3678 1.42782 27.1694 1.46674 26.9223 1.51216C26.6102 1.56407 26.3793 1.62895 26.2297 1.70681C26.0802 1.77818 25.9631 1.93065 25.8786 2.16423C25.8005 2.3978 25.7615 2.76439 25.7615 3.26398V10.3491C25.7615 11.1342 25.8363 11.6792 25.9859 11.9841C26.1419 12.2826 26.4313 12.4708 26.854 12.5486C27.2767 12.6265 28.0506 12.6654 29.1756 12.6654C29.8909 12.6654 30.4924 12.5746 30.9802 12.3929C31.4744 12.2047 31.8678 11.8317 32.1604 11.2737L32.3068 10.9817C32.4108 10.7676 32.5051 10.5892 32.5896 10.4464C32.6742 10.2972 32.7717 10.161 32.8823 10.0377L33.4675 10.0571L32.853 13.4927C31.9816 13.4213 31.2695 13.3856 30.7168 13.3856H21.4208L21.4013 12.8601C21.4988 12.8276 21.7069 12.766 22.0256 12.6751C22.3962 12.5778 22.6889 12.4837 22.9035 12.3929C23.1181 12.2956 23.2969 12.1431 23.44 11.9355C23.583 11.7214 23.6546 11.4262 23.6546 11.0498V3.32237Z" fill="white"/>
<path d="M36.2963 3.32237C36.2963 2.79683 36.2541 2.41402 36.1695 2.17396C36.085 1.92741 35.9614 1.76196 35.7989 1.67761C35.6363 1.59326 35.3729 1.51541 35.0087 1.44404C34.5665 1.34671 34.2479 1.26885 34.0528 1.21046L34.0723 0.714111H40.6663V1.22019C40.4777 1.29805 40.3087 1.35644 40.1591 1.39537C40.0095 1.42782 39.8112 1.46674 39.5641 1.51216C39.2519 1.56407 39.0211 1.62895 38.8715 1.70681C38.7219 1.77818 38.6049 1.93065 38.5204 2.16423C38.4423 2.3978 38.4033 2.76439 38.4033 3.26398V10.3491C38.4033 11.1342 38.4781 11.6792 38.6277 11.9841C38.7837 12.2826 39.0731 12.4708 39.4958 12.5486C39.9185 12.6265 40.6923 12.6654 41.8174 12.6654C42.5327 12.6654 43.1342 12.5746 43.6219 12.3929C44.1162 12.2047 44.5096 11.8317 44.8022 11.2737L44.9485 10.9817C45.0526 10.7676 45.1469 10.5892 45.2314 10.4464C45.316 10.2972 45.4135 10.161 45.5241 10.0377L46.1093 10.0571L45.4948 13.4927C44.6234 13.4213 43.9113 13.3856 43.3586 13.3856H34.0626L34.0431 12.8601C34.1406 12.8276 34.3487 12.766 34.6673 12.6751C35.038 12.5778 35.3306 12.4837 35.5452 12.3929C35.7598 12.2956 35.9387 12.1431 36.0817 11.9355C36.2248 11.7214 36.2963 11.4262 36.2963 11.0498V3.32237Z" fill="white"/>
<path d="M57.4928 1.28832C57.1221 1.43755 56.823 1.57056 56.5954 1.68734C56.3678 1.80413 56.1434 1.95336 55.9223 2.13503C55.7077 2.3167 55.5126 2.54379 55.337 2.81629L52.1376 7.71165V10.9914C52.1376 11.4391 52.1798 11.77 52.2644 11.9841C52.3489 12.1983 52.4627 12.341 52.6058 12.4124C52.7554 12.4837 52.9732 12.5454 53.2593 12.5973C53.643 12.6622 53.9747 12.7562 54.2543 12.8795L54.2348 13.3856H47.9334L47.9139 12.8795C48.083 12.7822 48.2423 12.7141 48.3919 12.6751C48.5479 12.6362 48.7398 12.6005 48.9674 12.5681C49.2405 12.5292 49.4453 12.4773 49.5819 12.4124C49.7185 12.3475 49.829 12.2015 49.9136 11.9744C49.9981 11.7473 50.0404 11.3937 50.0404 10.9136V7.91603L46.48 2.34914C46.3304 2.11557 46.0508 1.88523 45.6411 1.65815C45.2314 1.43106 44.8705 1.28183 44.5584 1.21046V0.714111H50.6061L50.6256 1.22019C50.2485 1.28507 49.8908 1.40511 49.5526 1.58029C49.221 1.74898 49.0552 1.97931 49.0552 2.27128C49.0552 2.47891 49.2698 2.92984 49.699 3.62408C50.1282 4.31183 50.6874 5.17152 51.3767 6.20314L51.8352 6.89414C51.8742 6.82277 51.9652 6.68652 52.1083 6.48538C53.617 4.25992 54.3713 2.86171 54.3713 2.29075C54.3713 2.03122 54.2445 1.83333 53.9909 1.69708C53.7373 1.55434 53.4089 1.43106 53.0057 1.32725C52.9927 1.32725 52.9114 1.30454 52.7619 1.25912L52.7424 0.996349C52.7424 0.950931 52.7489 0.856852 52.7619 0.714111H57.6586V1.22019L57.4928 1.28832Z" fill="white"/>
<path d="M65.1598 3.42943C65.1598 2.91686 65.1208 2.54054 65.0427 2.30048C64.9647 2.05393 64.8509 1.88523 64.7013 1.7944C64.5518 1.69708 64.3079 1.603 63.9697 1.51216C63.9242 1.49919 63.8072 1.46674 63.6186 1.41484C63.4365 1.35644 63.2479 1.28832 63.0528 1.21046L63.0723 0.714111H68.6129C69.6663 0.714111 70.593 0.775749 71.3929 0.899025C72.1992 1.01581 72.9016 1.30778 73.4998 1.77493C74.0981 2.24209 74.3972 2.9493 74.3972 3.89658C74.3972 5.4862 73.2235 6.47889 70.8759 6.87467C71.5522 6.90711 72.2057 7.03688 72.8365 7.26397C73.4738 7.48457 74.0006 7.8252 74.4168 8.28586C74.8329 8.74004 75.041 9.30776 75.041 9.98902C75.041 10.8 74.7907 11.4618 74.2899 11.9744C73.7892 12.4805 73.1649 12.8438 72.4171 13.0644C71.6693 13.2785 70.8954 13.3856 70.0955 13.3856H63.0723L63.0528 12.8795L63.404 12.7822C63.7812 12.6849 64.0868 12.5875 64.3209 12.4902C64.555 12.3864 64.7533 12.2372 64.9159 12.0425C65.0785 11.8414 65.1598 11.5721 65.1598 11.2348V3.42943ZM67.257 6.281C67.348 6.36535 67.4683 6.43672 67.6179 6.49511C67.7675 6.54702 67.9073 6.57297 68.0373 6.57297H69.3347C71.4156 6.57297 72.4561 5.78465 72.4561 4.20802C72.4561 3.37104 72.2188 2.75141 71.744 2.34914C71.2758 1.94038 70.7198 1.68734 70.076 1.59002C69.4322 1.4927 68.6421 1.44404 67.7057 1.44404H67.257V6.281ZM67.257 10.7189C67.257 11.1731 67.335 11.5916 67.4911 11.9744C67.6537 12.3507 67.9333 12.5389 68.33 12.5389H69.9102C70.4109 12.5389 70.8629 12.4448 71.2661 12.2566C71.6758 12.062 72.0009 11.783 72.2415 11.4197C72.4821 11.0498 72.6024 10.6151 72.6024 10.1155C72.6024 9.24612 72.3423 8.60378 71.8221 8.18854C71.3018 7.7668 70.6938 7.50728 69.998 7.40995C69.3087 7.30614 68.4763 7.25423 67.5008 7.25423C67.3903 7.35156 67.322 7.46835 67.296 7.6046C67.27 7.73436 67.257 7.90306 67.257 8.11068V10.7189Z" fill="white"/>
<path d="M79.5183 8.208L79.333 8.67515C79.0404 9.43428 78.8095 10.0604 78.6404 10.5535C78.4714 11.0401 78.3868 11.4164 78.3868 11.6824C78.3868 11.916 78.4714 12.1074 78.6404 12.2566C78.816 12.4059 79.0144 12.5162 79.2355 12.5875C79.4631 12.6589 79.7394 12.727 80.0646 12.7919L80.2499 12.8309V13.3856H75.6458V12.8795C75.7369 12.8081 75.8279 12.7498 75.9189 12.7043C76.0165 12.6524 76.1368 12.5973 76.2799 12.5389C76.5075 12.4481 76.6895 12.354 76.8261 12.2566C76.9692 12.1593 77.096 12.0069 77.2065 11.7992C77.2716 11.6695 77.3366 11.5235 77.4016 11.3613C77.4732 11.1926 77.5187 11.0823 77.5382 11.0304L77.6552 10.7287L81.3034 1.40511C81.3294 1.33374 81.3489 1.21046 81.3619 1.03528C81.3684 0.905514 81.3782 0.801702 81.3912 0.723844C81.4107 0.639497 81.4432 0.564882 81.4887 0.5C81.8074 0.5 82.0805 0.532441 82.3081 0.597323C82.5422 0.662205 82.7763 0.782237 83.0104 0.957419L87.4877 11.6727C87.5723 11.8738 87.6698 12.0361 87.7804 12.1593C87.8909 12.2761 88.0047 12.367 88.1218 12.4318C88.2453 12.4902 88.4111 12.5616 88.6192 12.6459C88.7948 12.7043 88.9802 12.7822 89.1752 12.8795L89.1557 13.3856H83.4786L83.4591 12.8795C83.7648 12.7887 84.0249 12.6978 84.2395 12.607C84.4606 12.5162 84.6589 12.3897 84.8345 12.2275C85.0101 12.0652 85.0979 11.8674 85.0979 11.6338C85.0979 11.3743 84.7727 10.4108 84.1224 8.74328C84.0834 8.64596 84.0444 8.55188 84.0054 8.46104C83.9729 8.37021 83.9436 8.28586 83.9176 8.208H79.5183ZM81.635 2.56325L79.85 7.35156H83.5567L81.635 2.56325Z" fill="white"/>
<path d="M95.8571 8.11068C95.701 7.8771 95.5677 7.70517 95.4571 7.59487C95.3531 7.48457 95.2263 7.40022 95.0767 7.34183C94.9271 7.28343 94.7223 7.24775 94.4622 7.23477L93.8476 7.19584V10.9428C93.8476 11.4099 93.8867 11.7538 93.9647 11.9744C94.0492 12.195 94.1598 12.341 94.2963 12.4124C94.4394 12.4837 94.6508 12.5421 94.9304 12.5875C95.132 12.62 95.3108 12.6557 95.4669 12.6946C95.6229 12.7335 95.7855 12.7952 95.9546 12.8795L95.9351 13.3856H89.7605L89.741 12.8795C89.9166 12.7822 90.0792 12.7141 90.2287 12.6751C90.3848 12.6297 90.5636 12.5908 90.7652 12.5584C91.0253 12.5194 91.2172 12.4643 91.3407 12.3929C91.4708 12.315 91.5716 12.1496 91.6431 11.8966C91.7147 11.6435 91.7504 11.2412 91.7504 10.6897V3.31264C91.7504 2.85198 91.7114 2.5081 91.6334 2.28102C91.5553 2.04744 91.4415 1.88848 91.292 1.80413C91.1489 1.7133 90.9213 1.61922 90.6092 1.52189C90.2775 1.43106 89.9881 1.33049 89.741 1.22019L89.7605 0.714111H94.2573C95.4734 0.714111 96.5366 0.769261 97.447 0.879561C98.3575 0.98986 99.1703 1.28183 99.8856 1.75547C100.607 2.22911 100.968 2.95903 100.968 3.94524C100.968 4.55514 100.796 5.08393 100.451 5.53161C100.113 5.97281 99.6743 6.31993 99.1346 6.57297C98.6013 6.82601 98.029 6.99795 97.4178 7.08878C97.4958 7.1926 97.8827 7.73112 98.5785 8.70435C99.0923 9.43103 99.528 10.0377 99.8856 10.5243C100.25 11.0109 100.611 11.4683 100.968 11.8966C101.183 12.1236 101.375 12.3021 101.544 12.4318C101.713 12.5616 101.924 12.6654 102.178 12.7433C102.432 12.8211 102.75 12.8601 103.134 12.8601V13.4051C102.49 13.5608 101.918 13.6386 101.417 13.6386C100.728 13.6386 100.094 13.4278 99.515 13.006C98.9427 12.5843 98.4452 12.0847 98.0225 11.5073C97.6064 10.9298 97.1284 10.1934 96.5886 9.29802C96.27 8.75301 96.0261 8.35723 95.8571 8.11068ZM94.3354 6.54377C95.1677 6.54377 95.8863 6.49511 96.4911 6.39779C97.0959 6.30047 97.6129 6.07013 98.0421 5.70679C98.4778 5.34345 98.6956 4.7952 98.6956 4.06203C98.6956 3.25749 98.4615 2.66382 97.9933 2.28102C97.5316 1.89821 96.9886 1.66464 96.3643 1.58029C95.74 1.48945 94.9726 1.44404 94.0622 1.44404H93.8476V6.54377H94.3354Z" fill="white"/>
<path d="M108.928 6.31993L113.376 1.92092C113.402 1.84306 113.415 1.77169 113.415 1.70681C113.415 1.52514 113.337 1.40511 113.181 1.34671C113.025 1.28832 112.788 1.2429 112.469 1.21046C112.215 1.18451 112.027 1.15207 111.903 1.11314C111.786 1.07421 111.728 0.999593 111.728 0.889293C111.728 0.869828 111.744 0.811434 111.776 0.714111H117.278L117.317 0.889293C117.317 0.97364 117.193 1.05799 116.946 1.14233C116.699 1.22668 116.361 1.31427 115.932 1.40511C115.307 1.54136 114.846 1.73276 114.547 1.97931L110.762 5.85278L115.327 12.1204C115.411 12.2112 115.555 12.2988 115.756 12.3832C115.964 12.461 116.241 12.5551 116.585 12.6654C116.949 12.7757 117.226 12.873 117.414 12.9574C117.609 13.0417 117.707 13.1261 117.707 13.2104C117.707 13.2818 117.694 13.3402 117.668 13.3856H110.996C110.957 13.3013 110.937 13.2461 110.937 13.2202C110.937 13.1228 110.996 13.0547 111.113 13.0158C111.237 12.9704 111.428 12.9282 111.689 12.8893C112.001 12.8438 112.235 12.7919 112.391 12.7335C112.553 12.6687 112.635 12.5551 112.635 12.3929C112.635 12.328 112.579 12.2242 112.469 12.0815L108.967 6.96227H108.089V12.1788C108.089 12.3799 108.154 12.5324 108.284 12.6362C108.421 12.7335 108.583 12.7984 108.772 12.8309C108.961 12.8568 109.201 12.8763 109.494 12.8893C109.812 12.9087 110.043 12.9379 110.186 12.9768C110.329 13.0093 110.401 13.0839 110.401 13.2007C110.401 13.2137 110.385 13.2753 110.352 13.3856H103.817C103.791 13.3077 103.778 13.2526 103.778 13.2202C103.778 13.1099 103.849 13.0352 103.992 12.9963C104.135 12.9509 104.353 12.912 104.646 12.8795C104.932 12.8406 105.163 12.8017 105.338 12.7627C105.514 12.7238 105.667 12.6524 105.797 12.5486C105.927 12.4448 105.992 12.3021 105.992 12.1204V2.03771C105.992 1.78467 105.872 1.60624 105.631 1.50243C105.39 1.39862 105.052 1.31427 104.617 1.24939C104.317 1.19748 104.1 1.14882 103.963 1.1034C103.833 1.05799 103.768 0.986616 103.768 0.889293C103.768 0.869828 103.784 0.811434 103.817 0.714111H110.313C110.339 0.798458 110.352 0.853608 110.352 0.879561C110.352 0.98986 110.281 1.06772 110.138 1.11314C109.995 1.15855 109.77 1.20397 109.465 1.24939C109.172 1.29481 108.935 1.34022 108.752 1.38564C108.57 1.43106 108.414 1.50567 108.284 1.60949C108.154 1.7133 108.089 1.85604 108.089 2.03771V6.31993H108.928Z" fill="white"/>
<path d="M129.549 13.4732C129.445 13.4927 129.341 13.5024 129.237 13.5024C129.113 13.5024 128.928 13.4829 128.681 13.444C128.434 13.4051 128.245 13.3856 128.115 13.3856H118.107L118.087 12.9087C118.289 12.7984 118.474 12.7206 118.643 12.6751C118.819 12.6232 119.011 12.5811 119.219 12.5486C119.479 12.5032 119.668 12.4448 119.785 12.3734C119.908 12.3021 120.003 12.1496 120.068 11.916C120.133 11.676 120.165 11.2996 120.165 10.7871V3.4197C120.165 2.91362 120.123 2.54054 120.038 2.30048C119.96 2.06042 119.843 1.89497 119.687 1.80413C119.531 1.70681 119.271 1.603 118.907 1.4927C118.848 1.47323 118.735 1.43755 118.565 1.38564C118.403 1.33374 118.244 1.27534 118.087 1.21046L118.107 0.714111H128.057C128.148 0.714111 128.245 0.707623 128.349 0.694647C128.46 0.68167 128.538 0.671938 128.583 0.66545C128.778 0.633008 128.954 0.616788 129.11 0.616788C129.247 0.616788 129.367 0.629764 129.471 0.655717V3.68247L128.964 3.70194C128.853 3.59164 128.762 3.46836 128.691 3.33211C128.619 3.19585 128.538 3.01743 128.447 2.79683C128.317 2.47242 128.187 2.21938 128.057 2.03771C127.933 1.85604 127.748 1.72303 127.501 1.63868C127.136 1.52189 126.684 1.44728 126.145 1.41484C125.605 1.3824 124.981 1.36618 124.272 1.36618C123.439 1.36618 122.783 1.39537 122.301 1.45377C122.275 1.74574 122.262 2.07988 122.262 2.4562V6.40752H125.072C125.585 6.40752 125.969 6.36859 126.223 6.29073C126.476 6.21288 126.671 6.08636 126.808 5.91117C126.951 5.73599 127.146 5.42456 127.393 4.97687L127.54 4.7141H128.096V8.88927L127.54 8.91846C127.331 8.36048 127.065 7.92577 126.74 7.61433C126.421 7.3029 125.992 7.14718 125.452 7.14718H122.262V10.427C122.262 11.1082 122.34 11.6111 122.496 11.9355C122.659 12.2599 122.89 12.4708 123.189 12.5681C123.495 12.6589 123.927 12.7043 124.486 12.7043H125.442C126.262 12.7043 126.967 12.6135 127.559 12.4318C128.157 12.2437 128.6 11.8641 128.886 11.2931L129.022 10.9914C129.139 10.7384 129.234 10.5502 129.305 10.427C129.377 10.2972 129.468 10.1739 129.578 10.0571H130.193L129.549 13.4732Z" fill="white"/>
<path d="M137.723 8.11068C137.567 7.8771 137.434 7.70517 137.323 7.59487C137.219 7.48457 137.092 7.40022 136.943 7.34183C136.793 7.28343 136.588 7.24775 136.328 7.23477L135.714 7.19584V10.9428C135.714 11.4099 135.753 11.7538 135.831 11.9744C135.915 12.195 136.026 12.341 136.162 12.4124C136.306 12.4837 136.517 12.5421 136.796 12.5875C136.998 12.62 137.177 12.6557 137.333 12.6946C137.489 12.7335 137.652 12.7952 137.821 12.8795L137.801 13.3856H131.627L131.607 12.8795C131.783 12.7822 131.945 12.7141 132.095 12.6751C132.251 12.6297 132.43 12.5908 132.631 12.5584C132.891 12.5194 133.083 12.4643 133.207 12.3929C133.337 12.315 133.438 12.1496 133.509 11.8966C133.581 11.6435 133.617 11.2412 133.617 10.6897V3.31264C133.617 2.85198 133.578 2.5081 133.499 2.28102C133.421 2.04744 133.308 1.88848 133.158 1.80413C133.015 1.7133 132.787 1.61922 132.475 1.52189C132.144 1.43106 131.854 1.33049 131.607 1.22019L131.627 0.714111H136.123C137.34 0.714111 138.403 0.769261 139.313 0.879561C140.224 0.98986 141.036 1.28183 141.752 1.75547C142.474 2.22911 142.835 2.95903 142.835 3.94524C142.835 4.55514 142.662 5.08393 142.318 5.53161C141.979 5.97281 141.54 6.31993 141.001 6.57297C140.467 6.82601 139.895 6.99795 139.284 7.08878C139.362 7.1926 139.749 7.73112 140.445 8.70435C140.958 9.43103 141.394 10.0377 141.752 10.5243C142.116 11.0109 142.477 11.4683 142.835 11.8966C143.049 12.1236 143.241 12.3021 143.41 12.4318C143.579 12.5616 143.79 12.6654 144.044 12.7433C144.298 12.8211 144.616 12.8601 145 12.8601V13.4051C144.356 13.5608 143.784 13.6386 143.283 13.6386C142.594 13.6386 141.96 13.4278 141.381 13.006C140.809 12.5843 140.311 12.0847 139.889 11.5073C139.472 10.9298 138.995 10.1934 138.455 9.29802C138.136 8.75301 137.892 8.35723 137.723 8.11068ZM136.201 6.54377C137.034 6.54377 137.752 6.49511 138.357 6.39779C138.962 6.30047 139.479 6.07013 139.908 5.70679C140.344 5.34345 140.562 4.7952 140.562 4.06203C140.562 3.25749 140.328 2.66382 139.859 2.28102C139.398 1.89821 138.855 1.66464 138.23 1.58029C137.606 1.48945 136.839 1.44404 135.928 1.44404H135.714V6.54377H136.201Z" fill="white"/>
<path d="M50.9492 26.2477C50.884 26.1827 50.8138 26.0927 50.7387 25.9777C50.6635 25.8577 50.5908 25.7352 50.5207 25.6102C50.5057 25.5852 50.4656 25.5177 50.4004 25.4077C50.3353 25.2977 50.2751 25.2027 50.22 25.1227C50.1649 25.0427 50.1123 24.9777 50.0622 24.9277C49.7264 24.5928 49.3531 24.3428 48.9422 24.1778C48.5362 24.0128 48.1078 23.9303 47.6568 23.9303C47.0053 23.9303 46.3965 24.1003 45.8302 24.4403C45.2689 24.7752 44.8179 25.2652 44.4771 25.9102C44.1414 26.5552 43.9735 27.3202 43.9735 28.2052C43.9735 29.1101 44.1364 29.9026 44.4621 30.5826C44.7929 31.2576 45.2589 31.78 45.8602 32.15C46.4666 32.515 47.1707 32.6975 47.9725 32.6975C48.654 32.6975 49.2579 32.5575 49.784 32.2775C50.3152 31.9925 50.7262 31.5751 51.0168 31.0251L51.3851 31.0776L51.3175 32.495C50.7713 32.8 50.1398 33.045 49.4232 33.23C48.7116 33.41 48.0476 33.5 47.4313 33.5C46.4491 33.5 45.5621 33.2975 44.7703 32.8925C43.9785 32.4875 43.3546 31.9075 42.8986 31.1526C42.4426 30.3976 42.2146 29.5151 42.2146 28.5051C42.2146 27.5502 42.4476 26.6802 42.9136 25.8952C43.3797 25.1102 44.0412 24.4903 44.8981 24.0353C45.755 23.5803 46.7447 23.3528 47.8672 23.3528C48.8945 23.3528 49.9369 23.5578 50.9943 23.9678L51.3024 26.2327L50.9492 26.2477Z" fill="white"/>
<path d="M55.0684 29.3151L54.9256 29.6751C54.7001 30.2601 54.5222 30.7426 54.3919 31.1226C54.2616 31.4976 54.1964 31.7875 54.1964 31.9925C54.1964 32.1725 54.2616 32.32 54.3919 32.435C54.5272 32.55 54.68 32.635 54.8504 32.69C55.0258 32.745 55.2388 32.7975 55.4893 32.8475L55.6321 32.8775V33.305H52.0842V32.915C52.1544 32.86 52.2245 32.815 52.2947 32.78C52.3698 32.74 52.4625 32.6975 52.5728 32.6525C52.7482 32.5825 52.8885 32.51 52.9937 32.435C53.104 32.36 53.2017 32.2425 53.2869 32.0825C53.337 31.9825 53.3871 31.87 53.4372 31.7451C53.4923 31.6151 53.5274 31.5301 53.5425 31.4901L53.6327 31.2576L56.444 24.0728C56.464 24.0178 56.479 23.9228 56.4891 23.7878C56.4941 23.6878 56.5016 23.6078 56.5116 23.5478C56.5266 23.4828 56.5517 23.4253 56.5868 23.3753C56.8323 23.3753 57.0428 23.4003 57.2182 23.4503C57.3986 23.5003 57.579 23.5928 57.7594 23.7278L61.2096 31.985C61.2748 32.14 61.35 32.265 61.4351 32.36C61.5203 32.45 61.608 32.52 61.6982 32.57C61.7934 32.615 61.9212 32.67 62.0816 32.735C62.2169 32.78 62.3597 32.84 62.5101 32.915L62.495 33.305H58.1202L58.1052 32.915C58.3407 32.845 58.5412 32.775 58.7065 32.705C58.8769 32.635 59.0298 32.5375 59.1651 32.4125C59.3004 32.2875 59.368 32.135 59.368 31.955C59.368 31.7551 59.1175 31.0126 58.6163 29.7276C58.5863 29.6526 58.5562 29.5801 58.5261 29.5101C58.5011 29.4401 58.4785 29.3751 58.4585 29.3151H55.0684ZM56.6995 24.9652L55.324 28.6551H58.1804L56.6995 24.9652Z" fill="white"/>
<path d="M63.9082 30.2901C63.9583 30.3751 63.9984 30.4626 64.0285 30.5526C64.0635 30.6426 64.1011 30.7601 64.1412 30.9051C64.1613 30.9551 64.1788 31.0126 64.1938 31.0776C64.3692 31.6526 64.7025 32.095 65.1936 32.405C65.6847 32.715 66.2459 32.87 66.8773 32.87C67.2081 32.87 67.5288 32.8125 67.8395 32.6975C68.1552 32.5775 68.4133 32.4 68.6137 32.165C68.8192 31.925 68.9219 31.6351 68.9219 31.2951C68.9219 31.0001 68.8167 30.7251 68.6062 30.4701C68.4007 30.2151 68.1427 29.9876 67.832 29.7876C67.5263 29.5826 67.1028 29.3301 66.5616 29.0301C65.9252 28.6801 65.409 28.3701 65.0132 28.1002C64.6173 27.8302 64.2815 27.5102 64.0059 27.1402C63.7303 26.7652 63.5925 26.3427 63.5925 25.8727C63.5925 25.2927 63.7553 24.8152 64.0811 24.4403C64.4118 24.0603 64.8328 23.7853 65.3439 23.6153C65.8601 23.4403 66.4038 23.3528 66.9751 23.3528C67.4662 23.3528 67.9548 23.4128 68.4408 23.5328C68.9319 23.6528 69.398 23.8253 69.839 24.0503L69.9367 26.1877H69.4706C69.4105 26.0727 69.3404 25.8902 69.2602 25.6402L69.185 25.4227C69.0146 24.9327 68.719 24.5628 68.298 24.3128C67.8821 24.0578 67.401 23.9303 66.8548 23.9303C66.5742 23.9303 66.291 23.9778 66.0054 24.0728C65.7197 24.1678 65.4792 24.3153 65.2838 24.5153C65.0933 24.7103 64.9981 24.9527 64.9981 25.2427C64.9981 25.5127 65.0984 25.7652 65.2988 26.0002C65.4993 26.2352 65.7473 26.4502 66.043 26.6452C66.3386 26.8352 66.747 27.0752 67.2682 27.3652C67.9347 27.7352 68.4734 28.0627 68.8843 28.3476C69.3003 28.6276 69.6536 28.9676 69.9442 29.3676C70.2399 29.7676 70.3877 30.2201 70.3877 30.7251C70.3877 31.3501 70.2148 31.8725 69.869 32.2925C69.5233 32.7075 69.0748 33.0125 68.5235 33.2075C67.9773 33.4025 67.396 33.5 66.7796 33.5C66.2284 33.5 65.6346 33.4325 64.9981 33.2975C64.3667 33.1575 63.8556 32.9675 63.4647 32.7275V30.3051L63.9082 30.2901Z" fill="white"/>
<path d="M75.0406 31.3551C75.0406 31.7351 75.0732 32.015 75.1383 32.195C75.2085 32.375 75.3012 32.495 75.4165 32.555C75.5367 32.615 75.7247 32.6675 75.9802 32.7125C76.2759 32.7625 76.539 32.8275 76.7695 32.9075L76.7545 33.305H71.7558V32.915C71.9011 32.85 72.0314 32.805 72.1466 32.78C72.2669 32.75 72.4173 32.72 72.5977 32.69C72.8232 32.66 72.9885 32.6175 73.0938 32.5625C73.199 32.5025 73.2792 32.3725 73.3343 32.1725C73.3944 31.9725 73.4245 31.6551 73.4245 31.2201V25.5802C73.4245 25.1702 73.3894 24.8677 73.3193 24.6728C73.2491 24.4778 73.1564 24.3528 73.0411 24.2978C72.9309 24.2428 72.7655 24.2003 72.545 24.1703C72.3646 24.1403 72.2143 24.1103 72.094 24.0803C71.9788 24.0503 71.856 23.9978 71.7257 23.9228L71.7407 23.5403H76.7244L76.7394 23.9303C76.6342 23.9703 76.4839 24.0128 76.2884 24.0578C76.0128 24.1278 75.7923 24.1978 75.6269 24.2678C75.4616 24.3378 75.3213 24.4478 75.206 24.5978C75.0957 24.7427 75.0406 24.9427 75.0406 25.1977V31.3551Z" fill="white"/>
<path d="M79.7161 25.1227C79.5858 24.9127 79.4505 24.7452 79.3102 24.6203C79.1699 24.4953 79.0296 24.4003 78.8893 24.3353C78.7489 24.2703 78.561 24.1978 78.3255 24.1178C78.1 24.0428 77.9246 23.9803 77.7993 23.9303V23.5403H80.4227L87.496 30.8376V26.1202C87.496 25.6452 87.4284 25.2127 87.2931 24.8227C87.238 24.6628 87.1628 24.5378 87.0676 24.4478C86.9724 24.3578 86.8696 24.2928 86.7594 24.2528C86.6491 24.2128 86.5013 24.1703 86.3159 24.1253C86.2858 24.1153 86.2081 24.0953 86.0829 24.0653C85.9626 24.0303 85.8523 23.9878 85.7521 23.9378C85.7521 23.8078 85.7596 23.6753 85.7747 23.5403H89.7361V23.9453C89.5957 24.0103 89.4504 24.0728 89.3001 24.1328C88.9343 24.2928 88.6812 24.4253 88.5409 24.5303C88.4006 24.6353 88.3003 24.8002 88.2402 25.0252C88.1851 25.2452 88.155 25.6077 88.15 26.1127C88.15 26.3677 88.145 26.7452 88.135 27.2452C88.13 27.6252 88.1249 28.1002 88.1199 28.6701C88.1149 29.2351 88.1124 29.8976 88.1124 30.6576C88.1124 30.9876 88.1425 31.4776 88.2026 32.1275C88.2527 32.6775 88.2803 33.0925 88.2853 33.3725C88.1901 33.4075 88.0673 33.425 87.917 33.425C87.7566 33.425 87.6138 33.4075 87.4885 33.3725C87.1277 32.9325 86.7168 32.465 86.2558 31.97L80.3175 25.7377V31.0026C80.3175 31.3376 80.36 31.6751 80.4452 32.015C80.4853 32.185 80.558 32.3175 80.6632 32.4125C80.7685 32.5025 80.8812 32.5675 81.0015 32.6075C81.1268 32.6475 81.2946 32.6875 81.5051 32.7275C81.7958 32.7725 82.0112 32.8325 82.1516 32.9075C82.1516 33.0375 82.144 33.17 82.129 33.305H77.8895C77.8795 33.215 77.8745 33.08 77.8745 32.9L78.2203 32.81C78.541 32.73 78.794 32.6525 78.9795 32.5775C79.1699 32.5025 79.3327 32.38 79.468 32.21C79.6084 32.04 79.691 31.8075 79.7161 31.5126V25.1227Z" fill="white"/>
<path d="M96.2907 23.3528C97.2328 23.3528 98.0973 23.5628 98.884 23.9828C99.6708 24.4028 100.295 25.0002 100.756 25.7752C101.222 26.5452 101.455 27.4352 101.455 28.4451C101.455 29.4351 101.214 30.3151 100.733 31.0851C100.257 31.85 99.6132 32.445 98.8014 32.87C97.9895 33.29 97.1026 33.5 96.1404 33.5C95.2534 33.5 94.4241 33.2975 93.6523 32.8925C92.8806 32.4875 92.2592 31.9075 91.7881 31.1526C91.3221 30.3976 91.0891 29.5226 91.0891 28.5276C91.0891 27.4327 91.3346 26.4952 91.8257 25.7152C92.3218 24.9352 92.9658 24.3478 93.7576 23.9528C94.5544 23.5528 95.3987 23.3528 96.2907 23.3528ZM96.5388 32.9225C97.1401 32.9225 97.6814 32.7625 98.1624 32.4425C98.6435 32.1225 99.0193 31.6601 99.29 31.0551C99.5656 30.4501 99.7034 29.7376 99.7034 28.9176C99.7034 27.9877 99.548 27.1452 99.2373 26.3902C98.9266 25.6302 98.4907 25.0302 97.9294 24.5903C97.3732 24.1503 96.7392 23.9303 96.0276 23.9303C95.4413 23.9303 94.9051 24.0828 94.419 24.3878C93.938 24.6877 93.5546 25.1377 93.269 25.7377C92.9833 26.3377 92.8405 27.0602 92.8405 27.9052C92.8405 28.8451 92.9984 29.6976 93.3141 30.4626C93.6298 31.2276 94.0683 31.83 94.6295 32.27C95.1958 32.705 95.8322 32.9225 96.5388 32.9225Z" fill="white"/>
</g>
</svg>
