<svg width="149" height="24" viewBox="0 0 149 24" fill="none" xmlns="http://www.w3.org/2000/svg">
<path fill-rule="evenodd" clip-rule="evenodd" d="M40.1406 22.785C40.762 21.4982 41.6215 20.3843 42.7192 19.4433C43.8169 18.483 45.1114 17.7436 46.6026 17.2251C48.1146 16.7065 49.7508 16.4473 51.5113 16.4473C53.2925 16.4473 54.9287 16.7065 56.4199 17.2251C57.9111 17.7436 59.2056 18.483 60.3033 19.4433C61.401 20.3843 62.2502 21.4982 62.8508 22.785H54.3421C54.0565 22.5883 53.7445 22.425 53.4064 22.2953C52.8264 22.0648 52.1947 21.9496 51.5113 21.9496C50.8278 21.9496 50.1857 22.0648 49.5851 22.2953C49.2586 22.425 48.9517 22.5883 48.6646 22.785H40.1406Z" fill="white"/>
<path fill-rule="evenodd" clip-rule="evenodd" d="M51.2333 15.9189C49.4906 15.9189 47.871 15.659 46.3743 15.1391C44.8982 14.6192 43.6168 13.8875 42.5302 12.944C41.4436 11.9812 40.5928 10.8548 39.9778 9.56466C39.3832 8.27456 39.0859 6.86893 39.0859 5.34776C39.0859 3.80734 39.3832 2.40171 39.9778 1.13086H48.4154C48.1949 1.28394 47.986 1.45723 47.789 1.65075C47.3584 2.07437 47.0201 2.60389 46.7741 3.23931C46.5281 3.85548 46.4051 4.5583 46.4051 5.34776C46.4051 6.13723 46.5281 6.84967 46.7741 7.48509C47.0201 8.10126 47.3584 8.63078 47.789 9.07365C48.24 9.49727 48.7525 9.82461 49.3266 10.0557C49.9211 10.2867 50.5567 10.4023 51.2333 10.4023C51.9098 10.4023 52.5351 10.2867 53.1092 10.0557C53.7037 9.82461 54.2163 9.49727 54.6468 9.07365C55.0978 8.63078 55.4464 8.10126 55.6924 7.48509C55.9384 6.84967 56.0614 6.13723 56.0614 5.34776C56.0614 4.5583 55.9384 3.85548 55.6924 3.23931C55.4464 2.60389 55.0978 2.07437 54.6468 1.65075C54.4587 1.45723 54.2549 1.28394 54.0354 1.13086H62.458C63.073 2.40171 63.3806 3.80734 63.3806 5.34776C63.3806 6.86893 63.073 8.27456 62.458 9.56466C61.8634 10.8548 61.0229 11.9812 59.9363 12.944C58.8497 13.8875 57.5683 14.6192 56.0922 15.1391C54.6161 15.659 52.9964 15.9189 51.2333 15.9189Z" fill="white"/>
<path d="M9.39842 23.2779C7.59063 23.2779 5.84448 23.0725 4.15996 22.6616C2.47543 22.2507 1.08878 21.7166 0 21.0592L2.3419 15.7591C3.36905 16.3549 4.50919 16.8377 5.76231 17.2074C7.03597 17.5567 8.26855 17.7313 9.46005 17.7313C10.1585 17.7313 10.7029 17.6902 11.0932 17.608C11.5041 17.5053 11.8019 17.3718 11.9868 17.2074C12.1717 17.0225 12.2642 16.8068 12.2642 16.5603C12.2642 16.17 12.0485 15.8619 11.6171 15.6359C11.1857 15.4099 10.6105 15.225 9.89145 15.0812C9.19299 14.9169 8.42263 14.7525 7.58036 14.5882C6.7381 14.4033 5.88557 14.1671 5.02276 13.8795C4.1805 13.5919 3.39986 13.2118 2.68086 12.7393C1.9824 12.2668 1.41747 11.6506 0.986064 10.8905C0.554661 10.1098 0.338959 9.14431 0.338959 7.9939C0.338959 6.6586 0.708733 5.44657 1.44828 4.35779C2.20837 3.24847 3.32796 2.36512 4.80706 1.70774C6.3067 1.05037 8.16584 0.72168 10.3845 0.72168C11.843 0.72168 13.281 0.875752 14.6985 1.1839C16.116 1.49204 17.3896 1.96453 18.5195 2.60136L16.3317 7.87064C15.2634 7.33652 14.226 6.93593 13.2194 6.66888C12.2334 6.40182 11.2678 6.26829 10.3229 6.26829C9.62439 6.26829 9.06973 6.32992 8.65887 6.45317C8.24801 6.57643 7.95014 6.74078 7.76525 6.94621C7.60091 7.15164 7.51873 7.37761 7.51873 7.62413C7.51873 7.9939 7.73444 8.29177 8.16584 8.51774C8.59724 8.72317 9.16217 8.89779 9.86064 9.04159C10.5796 9.18539 11.3603 9.33947 12.2025 9.50381C13.0653 9.66815 13.9179 9.89412 14.7601 10.1817C15.6024 10.4693 16.3728 10.8494 17.0712 11.3219C17.7902 11.7944 18.3654 12.4106 18.7968 13.1707C19.2282 13.9308 19.4439 14.8758 19.4439 16.0057C19.4439 17.3204 19.0639 18.5325 18.3038 19.6418C17.5643 20.7306 16.4549 21.6139 14.9758 22.2918C13.4967 22.9492 11.6376 23.2779 9.39842 23.2779Z" fill="white"/>
<path d="M21.6079 22.7849V1.21471H28.8802V17.1458H38.6175V22.7849H21.6079Z" fill="white"/>
<path d="M70.8283 22.7849V6.85376H64.5113V1.21471H84.4175V6.85376H78.1005V22.7849H70.8283Z" fill="white"/>
<path d="M94.3489 23.2779C92.5411 23.2779 90.795 23.0725 89.1104 22.6616C87.4259 22.2507 86.0393 21.7166 84.9505 21.0592L87.2924 15.7591C88.3195 16.3549 89.4597 16.8377 90.7128 17.2074C91.9865 17.5567 93.219 17.7313 94.4105 17.7313C95.109 17.7313 95.6534 17.6902 96.0437 17.608C96.4546 17.5053 96.7524 17.3718 96.9373 17.2074C97.1222 17.0225 97.2146 16.8068 97.2146 16.5603C97.2146 16.17 96.9989 15.8619 96.5675 15.6359C96.1361 15.4099 95.5609 15.225 94.8419 15.0812C94.1435 14.9169 93.3731 14.7525 92.5308 14.5882C91.6886 14.4033 90.8361 14.1671 89.9732 13.8795C89.131 13.5919 88.3503 13.2118 87.6313 12.7393C86.9329 12.2668 86.368 11.6506 85.9365 10.8905C85.5051 10.1098 85.2894 9.14431 85.2894 7.9939C85.2894 6.6586 85.6592 5.44657 86.3988 4.35779C87.1589 3.24847 88.2784 2.36512 89.7575 1.70774C91.2572 1.05037 93.1163 0.72168 95.335 0.72168C96.7935 0.72168 98.2315 0.875752 99.649 1.1839C101.066 1.49204 102.34 1.96453 103.47 2.60136L101.282 7.87064C100.214 7.33652 99.1765 6.93593 98.1699 6.66888C97.1838 6.40182 96.2183 6.26829 95.2733 6.26829C94.5749 6.26829 94.0202 6.32992 93.6094 6.45317C93.1985 6.57643 92.9006 6.74078 92.7157 6.94621C92.5514 7.15164 92.4692 7.37761 92.4692 7.62413C92.4692 7.9939 92.6849 8.29177 93.1163 8.51774C93.5477 8.72317 94.1127 8.89779 94.8111 9.04159C95.5301 9.18539 96.3108 9.33947 97.153 9.50381C98.0158 9.66815 98.8684 9.89412 99.7106 10.1817C100.553 10.4693 101.323 10.8494 102.022 11.3219C102.741 11.7944 103.316 12.4106 103.747 13.1707C104.179 13.9308 104.394 14.8758 104.394 16.0057C104.394 17.3204 104.014 18.5325 103.254 19.6418C102.515 20.7306 101.405 21.6139 99.9263 22.2918C98.4472 22.9492 96.5881 23.2779 94.3489 23.2779Z" fill="white"/>
<path d="M109.633 22.785V1.21484H120.264C122.667 1.21484 124.783 1.65652 126.612 2.53987C128.44 3.40267 129.868 4.63525 130.895 6.23761C131.922 7.83996 132.436 9.75046 132.436 11.9691C132.436 14.2083 131.922 16.1393 130.895 17.7622C129.868 19.3646 128.44 20.6074 126.612 21.4908C124.783 22.3536 122.667 22.785 120.264 22.785H109.633ZM116.905 17.1151H119.956C120.983 17.1151 121.876 16.92 122.637 16.5296C123.417 16.1393 124.023 15.5641 124.455 14.804C124.886 14.0234 125.102 13.0784 125.102 11.9691C125.102 10.8803 124.886 9.95589 124.455 9.1958C124.023 8.43571 123.417 7.8605 122.637 7.47019C121.876 7.07987 120.983 6.88471 119.956 6.88471H116.905V17.1151Z" fill="url(#paint0_linear_8743_31166)"/>
<path d="M140.094 23.278C138.409 23.278 136.889 23.011 135.533 22.4768C134.177 21.9222 133.047 21.121 132.144 20.0733L136.057 15.4511C136.632 16.1496 137.197 16.6837 137.752 17.0535C138.306 17.4027 138.882 17.5773 139.477 17.5773C141.039 17.5773 141.819 16.6837 141.819 14.8965V6.69982H134.485V1.21484H148.999V14.4651C148.999 17.4233 148.239 19.6316 146.719 21.0902C145.199 22.5487 142.99 23.278 140.094 23.278Z" fill="url(#paint1_linear_8743_31166)"/>
<defs>
<linearGradient id="paint0_linear_8743_31166" x1="129.316" y1="1.21484" x2="129.316" y2="23.278" gradientUnits="userSpaceOnUse">
<stop stop-color="#FFB630"/>
<stop offset="1" stop-color="#FF005B"/>
</linearGradient>
<linearGradient id="paint1_linear_8743_31166" x1="129.316" y1="1.21484" x2="129.316" y2="23.278" gradientUnits="userSpaceOnUse">
<stop stop-color="#FFB630"/>
<stop offset="1" stop-color="#FF005B"/>
</linearGradient>
</defs>
</svg>
