<svg width="154" height="40" viewBox="0 0 154 40" fill="none" xmlns="http://www.w3.org/2000/svg">
<path d="M22.8962 0.023132C21.7284 -0.00237234 20.5474 -0.0281668 19.4083 0.0716858C17.7415 0.200092 16.0958 0.369855 14.4698 0.777155C14.2357 0.838252 14.0028 0.903731 13.7712 0.973593C13.5395 1.04354 13.3093 1.11787 13.0804 1.19658C12.8516 1.2752 12.6243 1.35822 12.3986 1.44561C12.1729 1.53291 11.949 1.62451 11.7268 1.72041C11.5045 1.81631 11.2842 1.91639 11.0658 2.02063C10.8474 2.12487 10.631 2.23323 10.4167 2.34573C10.2024 2.45822 9.99025 2.57475 9.78032 2.69533C9.5704 2.81591 9.3628 2.94044 9.15755 3.06893C8.95237 3.19742 8.7497 3.32979 8.54953 3.46602C8.34928 3.60226 8.15169 3.74224 7.95678 3.88596C7.76187 4.02968 7.56976 4.17707 7.38045 4.32811C7.19113 4.47915 7.00475 4.63372 6.82129 4.79182C6.63774 4.95001 6.45729 5.11161 6.27994 5.2766C6.10258 5.4416 5.92841 5.60991 5.75742 5.78155C5.58643 5.95318 5.4187 6.12805 5.25424 6.30615C5.08986 6.48416 4.92892 6.66524 4.77141 6.84938C1.08108 11.1592 -0.358997 16.1879 0.0747184 21.8249C0.46225 26.8629 2.63095 31.7911 6.50195 35.1123C11.2438 39.1807 17.1072 40.3653 23.192 39.8703C26.2312 39.6232 31.424 38.198 33.4492 35.8189C33.9054 35.2829 34.1396 34.7048 34.248 34.0137C34.4197 32.9174 34.3868 31.1449 34.3589 29.6417C34.349 29.1113 34.3398 28.6145 34.3404 28.1928C34.3685 24.362 34.3625 20.5313 34.3224 16.7007L22.5368 16.698C22.0758 17.764 21.6251 18.8346 21.1743 19.9051C20.4966 21.5147 19.8189 23.1243 19.1063 24.7186C20.104 24.7389 21.1019 24.7347 22.0997 24.7306C23.0653 24.7265 24.0309 24.7224 24.9964 24.7406C24.994 25.3903 24.9894 26.0403 24.9848 26.6903C24.9749 28.1023 24.9649 29.5147 24.9777 30.9259C24.8879 30.9609 24.7978 30.9948 24.7073 31.0275C24.6167 31.0604 24.5258 31.092 24.4345 31.1225C24.3432 31.1529 24.2515 31.1823 24.1595 31.2106C24.0673 31.2387 23.9749 31.2658 23.8822 31.2917C23.7895 31.3176 23.6965 31.3423 23.6031 31.3659C23.5098 31.3895 23.4162 31.4119 23.3223 31.4332C23.2284 31.4543 23.1343 31.4744 23.0399 31.4933C22.9455 31.5122 22.8508 31.5299 22.756 31.5465C22.6612 31.563 22.5662 31.5783 22.471 31.5925C22.3758 31.6067 22.2804 31.6196 22.1849 31.6314C22.0893 31.6431 21.9936 31.6537 21.8979 31.6632C21.8021 31.6725 21.7062 31.6807 21.6102 31.6877C21.5142 31.6947 21.4181 31.7006 21.3219 31.7052C21.2258 31.7098 21.1296 31.7131 21.0334 31.7152C20.9372 31.7175 20.841 31.7185 20.7447 31.7183C20.6484 31.718 20.5522 31.7166 20.456 31.7141C20.3598 31.7115 20.2636 31.7076 20.1675 31.7026C20.0714 31.6976 19.9753 31.6914 19.8793 31.684C19.7834 31.6766 19.6875 31.668 19.5918 31.6582C19.496 31.6484 19.4004 31.6374 19.3049 31.6253C19.2095 31.6131 19.1142 31.5997 19.019 31.5851C18.9238 31.5705 18.8289 31.5548 18.7341 31.5378C18.6394 31.5209 18.5449 31.5028 18.4505 31.4834C18.3562 31.4642 18.2622 31.4438 18.1684 31.4221C18.0746 31.4004 17.981 31.3776 17.8878 31.3536C17.7945 31.3296 17.7016 31.3045 17.6089 31.2782C17.5163 31.2519 17.4241 31.2245 17.3322 31.1959C17.2403 31.1673 17.1487 31.1375 17.0576 31.1067C16.9663 31.0758 16.8754 31.0438 16.785 31.0107C16.6947 30.9775 16.6048 30.9432 16.5152 30.9078C16.4256 30.8724 16.3365 30.8359 16.2479 30.7983C16.1592 30.7607 16.0711 30.7219 15.9834 30.6821C13.477 29.5704 11.5913 27.2573 10.6315 24.7207C9.44495 21.5847 9.39393 17.5313 10.7793 14.4486C11.9017 11.9509 13.8187 10.1632 16.3719 9.20052C16.8416 9.02267 17.3204 8.87474 17.8084 8.75671C18.2965 8.63869 18.7899 8.55147 19.2887 8.49505C20.7397 8.32376 22.2357 8.33664 23.7138 8.34937C24.1731 8.35333 24.6306 8.35727 25.0845 8.35567L34.3049 8.34546L34.3119 0.0391369L24.4274 0.045903C23.9227 0.0455516 23.4108 0.03437 22.8962 0.023132Z" fill="#8FC83D"/>
<path d="M46.0719 0.064301C42.7287 0.0962824 39.3912 0.128209 36.1323 0.0792496L36.126 8.3686C37.3333 8.37031 38.5784 8.35873 39.8376 8.34702C42.5978 8.32134 45.4254 8.29503 48.0697 8.40688L48.0602 20.1357C48.0597 20.685 48.0733 21.261 48.0872 21.8494C48.1289 23.617 48.1732 25.4969 47.8463 27.1039C47.5876 28.375 47.0568 29.5581 46.1298 30.4793C45.1334 31.4698 43.7898 31.9176 42.4003 31.895C40.8754 31.8701 39.4997 31.2904 38.4384 30.1889C37.4926 29.2074 36.6398 28.009 36.1323 26.76C36.1323 27.3312 36.1315 27.9032 36.1307 28.4718C36.1291 29.5991 36.1274 30.7132 36.1323 31.7824C36.1464 34.8457 35.7099 36.3513 34.056 37.5C36.1325 38.75 37.9937 39.0654 39.8441 39.5382C43.7008 40.43 48.0538 40.0938 51.4618 37.9693C51.5502 37.9138 51.638 37.8572 51.725 37.7995C51.812 37.7418 51.8984 37.683 51.984 37.6232C52.0696 37.5635 52.1545 37.5027 52.2386 37.4408C52.3228 37.3789 52.4061 37.3159 52.4888 37.252C52.5714 37.1881 52.6532 37.1232 52.7342 37.0573C52.8152 36.9914 52.8954 36.9245 52.9748 36.8566C53.0541 36.7887 53.1327 36.7198 53.2105 36.65C53.2882 36.5802 53.365 36.5094 53.441 36.4377C53.517 36.366 53.592 36.2933 53.6662 36.2198C53.7404 36.1462 53.8138 36.0718 53.8862 35.9965C53.9586 35.9211 54.03 35.8448 54.1006 35.7677C54.1711 35.6906 54.2407 35.6127 54.3094 35.5339C54.378 35.455 54.4456 35.3754 54.5123 35.2949C54.579 35.2144 54.6448 35.1331 54.7095 35.051C54.7741 34.9689 54.8378 34.886 54.9006 34.8024C54.9633 34.7187 55.0249 34.6343 55.0854 34.5491C55.1461 34.464 55.2057 34.3781 55.2642 34.2914C55.3228 34.2048 55.3803 34.1175 55.4367 34.0295C55.4931 33.9414 55.5484 33.8527 55.6026 33.7634C55.6569 33.674 55.71 33.5839 55.762 33.4932C55.8141 33.4025 55.865 33.3112 55.9148 33.2193C55.9647 33.1273 56.0134 33.0347 56.061 32.9415C56.1085 32.8484 56.1549 32.7547 56.2002 32.6604C56.2455 32.5662 56.2896 32.4713 56.3325 32.3759C56.3755 32.2805 56.4173 32.1846 56.458 32.0882C56.4986 31.9918 56.538 31.8949 56.5763 31.7976C56.6145 31.7003 56.6516 31.6024 56.6875 31.5042C56.7234 31.4059 56.758 31.3072 56.7915 31.208C56.825 31.1089 56.8572 31.0094 56.8882 30.9095C56.9193 30.8096 56.9491 30.7093 56.9778 30.6086C57.0064 30.508 57.0337 30.407 57.0599 30.3057C57.086 30.2044 57.1109 30.1027 57.1346 30.0008C57.6953 27.5818 57.6631 24.8241 57.6327 22.2187C57.6246 21.5245 57.6167 20.8411 57.62 20.1779C57.6415 16.1371 57.6397 12.0964 57.6146 8.05574C57.6118 7.4335 57.607 6.81042 57.6021 6.18691C57.5861 4.15073 57.5702 2.11001 57.6283 0.0792428C53.8445 -0.0100513 49.9543 0.0271621 46.0719 0.064301Z" fill="#8FC83D"/>
<path d="M71.2916 36.567C69.8624 36.567 68.6073 36.2893 67.5262 35.7339C66.4451 35.1599 65.6114 34.3638 65.025 33.3455C64.4387 32.3273 64.1455 31.1516 64.1455 29.8186V23.4034C64.1455 22.0704 64.4387 20.8947 65.025 19.8764C65.6114 18.8582 66.4451 18.0713 67.5262 17.5159C68.6073 16.9605 69.8624 16.6827 71.2916 16.6827C72.7026 16.6827 73.9394 16.9512 75.0021 17.4881C76.0832 18.0065 76.9169 18.7563 77.5033 19.7376C78.108 20.7003 78.4103 21.8204 78.4103 23.0979C78.4103 23.2645 78.3004 23.3664 78.0805 23.4034L74.8647 23.5978H74.8097C74.6265 23.5978 74.5349 23.496 74.5349 23.2923C74.5349 22.3111 74.2326 21.5242 73.6279 20.9318C73.0415 20.3393 72.2628 20.0431 71.2916 20.0431C70.3022 20.0431 69.5051 20.3393 68.9004 20.9318C68.3141 21.5242 68.0209 22.3111 68.0209 23.2923V29.9852C68.0209 30.9479 68.3141 31.7255 68.9004 32.318C69.5051 32.9104 70.3022 33.2067 71.2916 33.2067C72.2628 33.2067 73.0415 32.9104 73.6279 32.318C74.2326 31.7255 74.5349 30.9479 74.5349 29.9852C74.5349 29.7815 74.6448 29.6797 74.8647 29.6797L78.0805 29.8186C78.1721 29.8186 78.2454 29.8463 78.3004 29.9019C78.3737 29.9574 78.4103 30.0222 78.4103 30.0963C78.4103 31.3738 78.108 32.5031 77.5033 33.4844C76.9169 34.4656 76.0832 35.2247 75.0021 35.7616C73.9394 36.2986 72.7026 36.567 71.2916 36.567Z" fill="white"/>
<path d="M93.0537 36.3448C92.8704 36.3448 92.7513 36.2523 92.6964 36.0671L91.8718 33.3455C91.8352 33.2715 91.7893 33.2344 91.7344 33.2344H84.973C84.9181 33.2344 84.8722 33.2715 84.8356 33.3455L84.0385 36.0671C83.9836 36.2523 83.8645 36.3448 83.6812 36.3448H80.1906C80.0807 36.3448 79.9982 36.3171 79.9432 36.2615C79.8883 36.1875 79.8791 36.0856 79.9158 35.956L85.8526 17.1826C85.9075 16.9975 86.0266 16.9049 86.2099 16.9049H90.525C90.7083 16.9049 90.8274 16.9975 90.8823 17.1826L96.8191 35.956C96.8375 35.9931 96.8466 36.0394 96.8466 36.0949C96.8466 36.2615 96.7458 36.3448 96.5443 36.3448H93.0537ZM85.8251 30.0407C85.8067 30.1518 85.8434 30.2074 85.935 30.2074H90.7724C90.8823 30.2074 90.919 30.1518 90.8823 30.0407L88.4087 21.7927C88.3903 21.7186 88.3629 21.6908 88.3262 21.7093C88.2896 21.7093 88.2621 21.7371 88.2438 21.7927L85.8251 30.0407Z" fill="white"/>
<path d="M104.651 36.567C103.185 36.567 101.903 36.3356 100.803 35.8727C99.7038 35.3914 98.8517 34.7156 98.2471 33.8454C97.6607 32.9567 97.3675 31.9292 97.3675 30.7628V30.1518C97.3675 30.0593 97.395 29.9852 97.45 29.9297C97.5233 29.8556 97.6057 29.8186 97.6974 29.8186H100.831C100.922 29.8186 100.996 29.8556 101.051 29.9297C101.124 29.9852 101.16 30.0593 101.16 30.1518V30.5684C101.16 31.309 101.499 31.9385 102.177 32.4569C102.855 32.9567 103.772 33.2067 104.926 33.2067C105.897 33.2067 106.621 33.003 107.097 32.5957C107.574 32.1699 107.812 31.6515 107.812 31.0405C107.812 30.5962 107.665 30.2259 107.372 29.9297C107.079 29.6149 106.676 29.3465 106.163 29.1243C105.668 28.8836 104.871 28.5596 103.772 28.1523C102.544 27.7265 101.499 27.2914 100.638 26.847C99.7954 26.4027 99.0808 25.801 98.4944 25.0419C97.9264 24.2643 97.6424 23.3108 97.6424 22.1815C97.6424 21.0706 97.9264 20.0986 98.4944 19.2655C99.0625 18.4323 99.8504 17.7936 100.858 17.3493C101.866 16.9049 103.029 16.6827 104.349 16.6827C105.741 16.6827 106.978 16.9327 108.059 17.4326C109.159 17.9324 110.011 18.636 110.615 19.5432C111.238 20.4319 111.55 21.4687 111.55 22.6536V23.0701C111.55 23.1627 111.513 23.246 111.44 23.3201C111.385 23.3756 111.312 23.4034 111.22 23.4034H108.059C107.968 23.4034 107.885 23.3756 107.812 23.3201C107.757 23.246 107.729 23.1627 107.729 23.0701V22.848C107.729 22.0704 107.409 21.4131 106.767 20.8762C106.144 20.3208 105.283 20.0431 104.184 20.0431C103.323 20.0431 102.645 20.2282 102.15 20.5985C101.674 20.9688 101.435 21.4779 101.435 22.1259C101.435 22.5888 101.573 22.9776 101.848 23.2923C102.141 23.6071 102.562 23.894 103.112 24.1532C103.68 24.3939 104.55 24.7272 105.723 25.153C107.024 25.6344 108.041 26.0602 108.774 26.4305C109.525 26.8008 110.194 27.3562 110.78 28.0968C111.385 28.8188 111.687 29.763 111.687 30.9294C111.687 32.6698 111.055 34.0491 109.791 35.0674C108.527 36.0671 106.813 36.567 104.651 36.567Z" fill="white"/>
<path d="M114.731 36.3448C114.639 36.3448 114.557 36.3171 114.483 36.2615C114.428 36.1875 114.401 36.1042 114.401 36.0116V17.2382C114.401 17.1456 114.428 17.0715 114.483 17.016C114.557 16.9419 114.639 16.9049 114.731 16.9049H117.946C118.038 16.9049 118.111 16.9419 118.166 17.016C118.24 17.0715 118.276 17.1456 118.276 17.2382V36.0116C118.276 36.1042 118.24 36.1875 118.166 36.2615C118.111 36.3171 118.038 36.3448 117.946 36.3448H114.731Z" fill="white"/>
<path d="M132.67 17.2382C132.67 17.1456 132.698 17.0715 132.753 17.016C132.826 16.9419 132.908 16.9049 133 16.9049H136.216C136.307 16.9049 136.381 16.9419 136.436 17.016C136.509 17.0715 136.545 17.1456 136.545 17.2382V36.0116C136.545 36.1042 136.509 36.1875 136.436 36.2615C136.381 36.3171 136.307 36.3448 136.216 36.3448H133.11C132.927 36.3448 132.798 36.2708 132.725 36.1227L125.606 24.2365C125.57 24.181 125.533 24.1625 125.496 24.181C125.46 24.181 125.441 24.218 125.441 24.2921L125.496 36.0116C125.496 36.1042 125.46 36.1875 125.387 36.2615C125.332 36.3171 125.258 36.3448 125.167 36.3448H121.951C121.859 36.3448 121.777 36.3171 121.703 36.2615C121.649 36.1875 121.621 36.1042 121.621 36.0116V17.2382C121.621 17.1456 121.649 17.0715 121.703 17.016C121.777 16.9419 121.859 16.9049 121.951 16.9049H125.057C125.24 16.9049 125.368 16.979 125.441 17.1271L132.533 28.9577C132.569 29.0132 132.606 29.041 132.643 29.041C132.679 29.0225 132.698 28.9762 132.698 28.9021L132.67 17.2382Z" fill="white"/>
<path d="M146.744 36.6503C145.314 36.6503 144.05 36.3541 142.951 35.7616C141.87 35.1692 141.027 34.3453 140.422 33.29C139.817 32.2162 139.515 30.985 139.515 29.5964V23.6533C139.515 22.2833 139.817 21.0706 140.422 20.0153C141.027 18.96 141.87 18.1454 142.951 17.5714C144.05 16.979 145.314 16.6827 146.744 16.6827C148.191 16.6827 149.455 16.979 150.536 17.5714C151.636 18.1454 152.488 18.96 153.093 20.0153C153.697 21.0706 154 22.2833 154 23.6533V29.5964C154 30.985 153.697 32.2162 153.093 33.29C152.488 34.3638 151.636 35.197 150.536 35.7894C149.455 36.3634 148.191 36.6503 146.744 36.6503ZM146.744 33.29C147.751 33.29 148.567 32.966 149.19 32.318C149.813 31.67 150.124 30.8091 150.124 29.7353V23.6256C150.124 22.5517 149.813 21.6908 149.19 21.0428C148.585 20.3763 147.77 20.0431 146.744 20.0431C145.736 20.0431 144.92 20.3763 144.297 21.0428C143.693 21.6908 143.39 22.5517 143.39 23.6256V29.7353C143.39 30.8091 143.693 31.67 144.297 32.318C144.92 32.966 145.736 33.29 146.744 33.29Z" fill="white"/>
</svg>
