<svg width="148" height="30" viewBox="0 0 148 30" fill="none" xmlns="http://www.w3.org/2000/svg">
<path d="M14.7522 29.824H14.5029C11.3447 29.824 8.66435 29.1383 6.4619 27.767C4.2733 26.3956 2.63186 24.4633 1.53756 21.97C0.512519 19.5736 0 17.2049 0 14.8639C0 14.6008 0.0346297 13.7627 0.103889 12.3498C0.187 10.9231 0.872668 8.93534 2.16089 6.3866C3.08897 4.59971 4.46723 3.17297 6.29568 2.10637C8.71975 0.707332 11.4209 0.0078125 14.399 0.0078125C18.3884 0.0078125 21.5535 1.2337 23.8945 3.68548C24.6702 4.55815 25.058 5.39619 25.058 6.1996C25.058 6.83679 24.8226 7.44627 24.3516 8.02805C23.6451 8.83146 22.7656 9.23316 21.7128 9.23316C20.9648 9.23316 20.2168 8.9769 19.4688 8.46438C17.8343 7.25927 16.2067 6.65671 14.586 6.65671C13.561 6.65671 12.4944 6.89912 11.3862 7.38393C10.1534 7.8549 9.29461 8.68601 8.80979 9.87727C8.1726 11.5533 7.84709 13.2364 7.83323 14.9263C7.83323 16.2422 8.10334 17.5651 8.64357 18.8948C9.66861 21.4159 11.3932 22.6764 13.8172 22.6764C15.0916 22.6764 16.6015 22.2955 18.3468 21.5336C18.7624 21.3535 19.1779 21.1873 19.5935 21.035C20.5354 20.7164 21.3804 20.5571 22.1284 20.5571C23.6105 20.5571 24.7048 21.1873 25.4113 22.4478C25.6467 22.9742 25.7645 23.4729 25.7645 23.9438C25.7645 25.3013 24.7949 26.4926 22.8556 27.5176C19.8082 29.0552 17.1071 29.824 14.7522 29.824Z" fill="white"/>
<path d="M51.0511 29.8447C50.8433 29.8447 50.407 29.7963 49.7421 29.6993C49.0772 29.6023 48.4677 29.0483 47.9136 28.0371C47.0133 26.2225 45.912 25.1282 44.61 24.7542C44.0559 24.588 43.4672 24.5048 42.8438 24.5048C41.9989 24.5048 41.0847 24.6572 40.1012 24.962C39.7964 25.0312 39.1939 25.0658 38.2935 25.0658C37.4485 25.0658 36.8737 25.0381 36.5689 24.9827C36.2781 24.9273 36.0149 24.8996 35.7794 24.8996C35.4331 24.8996 35.0729 24.9827 34.6989 25.149C34.3388 25.3152 34.0895 25.7792 33.9509 26.5411L33.66 27.0605C32.6766 28.9167 31.5061 29.8447 30.1486 29.8447C29.7192 29.8447 29.269 29.7478 28.798 29.5539C27.5098 28.9582 26.8657 27.9263 26.8657 26.458C26.8657 25.9039 26.9557 25.2875 27.1358 24.6087C28.1609 21.2843 29.359 18.0152 30.7304 14.8016C30.9382 14.2337 31.9009 11.8789 33.6185 7.73716L35.3015 3.62315C36.2157 1.33759 37.7256 0.132479 39.8311 0.0078125H40.0596C41.1816 0.0078125 42.1374 0.31948 42.927 0.942814C43.7304 1.56615 44.3675 2.40419 44.8385 3.45693C46.9301 7.97264 48.9456 12.5299 50.8849 17.1287C51.7714 19.3866 52.8241 21.5821 54.0431 23.7153C54.5833 24.6434 54.8534 25.516 54.8534 26.3333C54.8534 26.5134 54.8049 26.8874 54.708 27.4553C54.6249 28.0232 54.1608 28.5981 53.3159 29.1799C52.6233 29.6231 51.8683 29.8447 51.0511 29.8447ZM37.3377 17.9806L38.3558 17.9391C39.1592 17.9391 39.8934 17.8837 40.5583 17.7728C41.237 17.662 41.8811 17.385 42.4906 16.9417C42.2828 16.4985 42.0889 16.0483 41.9088 15.5912C41.6734 14.9955 41.4032 14.3999 41.0985 13.8043C40.8076 13.1948 40.4267 12.5922 39.9557 11.9966L37.3377 17.9806Z" fill="white"/>
<path d="M74.4261 29.824C74.1629 29.824 73.7127 29.7547 73.0756 29.6162C72.4522 29.4777 71.7804 28.9305 71.0601 27.9747C70.6861 27.4207 70.3467 26.832 70.042 26.2086C69.4048 24.9897 68.8715 24.1447 68.4421 23.6737C68.1097 23.3136 67.6525 22.8842 67.0708 22.3855C67.0431 22.3717 67.0223 22.3509 67.0084 22.3232C66.5652 22.6972 66.2119 23.0573 65.9488 23.4036C65.6994 23.7361 65.4709 24.0824 65.2631 24.4425C65.0553 24.7888 64.7921 25.1767 64.4735 25.6061L63.9333 26.3541C63.31 27.2544 62.6174 28.0856 61.8555 28.8474C61.1629 29.4984 60.3872 29.824 59.5284 29.824C58.7943 29.824 58.1017 29.5746 57.4506 29.076C56.578 28.3972 56.1416 27.5384 56.1416 26.4995C56.1416 25.9316 56.3079 25.3429 56.6403 24.7334C57.9978 22.337 59.4661 20.0168 61.0452 17.7728C61.6962 16.8725 62.0218 16.0137 62.0218 15.1964C62.0218 14.4622 61.7447 13.6727 61.1906 12.8277C60.1656 11.2486 59.2445 9.60023 58.4272 7.8826C58.067 7.1623 57.7 6.45586 57.326 5.76327C56.8827 4.9183 56.6611 4.10104 56.6611 3.31148C56.6611 2.18948 57.139 1.28218 58.0948 0.589591C58.7042 0.201739 59.3345 0.0078125 59.9855 0.0078125C60.1656 0.0078125 60.505 0.0493681 61.0036 0.132479C61.5023 0.201739 62.0702 0.638073 62.7074 1.44148C63.6494 2.74356 64.5497 4.12874 65.4085 5.59704C65.8102 6.26193 66.2258 6.93375 66.6552 7.61249C67.4725 6.89219 68.1512 6.08878 68.6914 5.20226C68.9962 4.75901 69.3078 4.3296 69.6264 3.91404C69.8758 3.6093 70.1182 3.29763 70.3537 2.97904C70.88 2.24489 71.4618 1.57307 72.099 0.963592C72.8331 0.326406 73.6296 0.0078125 74.4884 0.0078125C75.3334 0.0078125 76.116 0.291776 76.8363 0.859703C77.5705 1.41378 78.0415 2.10637 78.2492 2.93748C78.3185 3.20067 78.3531 3.46385 78.3531 3.72704C78.3531 4.8906 77.3489 6.71904 75.3403 9.21238C75.1326 9.51712 74.7655 9.98116 74.2391 10.6045C73.7127 11.214 73.2279 11.8442 72.7847 12.4953C72.3414 13.1325 72.0228 13.8181 71.8289 14.5523C71.7873 14.7601 71.7665 14.9609 71.7665 15.1548C71.7665 15.6674 71.9051 16.1314 72.1821 16.5469C72.473 16.9625 73.0201 17.6759 73.8236 18.6871C74.5577 19.629 75.2919 20.6055 76.026 21.6167C76.774 22.6141 77.3142 23.4452 77.6467 24.1101C77.993 24.8442 78.1661 25.5368 78.1661 26.1879C78.1661 26.4787 78.0899 26.9151 77.9376 27.4969C77.799 28.0786 77.3004 28.6535 76.4416 29.2214C75.7905 29.6231 75.1187 29.824 74.4261 29.824Z" fill="#FEE22D"/>
<path d="M84.1501 29.9902C83.2082 29.9763 82.3979 29.6716 81.7191 29.076C81.0404 28.4665 80.604 27.6561 80.4101 26.645C80.3547 26.3264 80.327 26.0078 80.327 25.6892C80.327 25.4814 80.3409 25.2736 80.3686 25.0658C80.5763 22.3647 80.6802 19.6636 80.6802 16.9625L80.6595 14.5315V9.73183C80.6595 8.23582 80.6664 6.74675 80.6802 5.2646V4.55815C80.6802 3.824 80.7633 3.11063 80.9296 2.41804C81.359 0.935888 82.384 0.139405 84.0047 0.0285903H84.1709C85.6808 0.0285903 86.7127 0.72811 87.2668 2.12715C87.53 2.81974 87.6754 3.54004 87.7031 4.28804C87.7585 6.43508 87.8347 8.5752 87.9317 10.7084C88.0979 13.6311 88.181 16.5608 88.181 19.4974C88.181 21.1319 88.1533 22.7664 88.0979 24.401C88.0702 25.2598 87.9732 26.1047 87.807 26.9359C87.5854 27.8639 87.1421 28.605 86.4772 29.1591C85.8124 29.6993 85.0367 29.9763 84.1501 29.9902Z" fill="white"/>
<path d="M95.9311 29.824H95.7649C94.9061 29.824 94.165 29.5331 93.5417 28.9513C92.669 28.1202 92.2327 26.7973 92.2327 24.9827V22.1777C92.2327 19.8506 92.2188 17.4889 92.1911 15.0925C92.1634 12.6823 92.1496 10.3344 92.1496 8.04882V5.47238C92.1496 4.47504 92.3366 3.51926 92.7106 2.60504C93.1123 1.77393 93.7495 1.12289 94.6221 0.651925C95.2732 0.277924 95.9727 0.0909237 96.7207 0.0909237C96.9562 0.0909237 97.3856 0.139405 98.0089 0.236368C98.6323 0.31948 99.3733 0.866629 100.232 1.87782C103.501 6.06108 106.576 10.4106 109.457 14.9263L110.476 16.5262L110.974 16.3807V7.17616C110.974 5.68015 111.21 4.21186 111.681 2.77126C112.055 1.77393 112.616 1.03285 113.364 0.548036C113.945 0.187887 114.569 0.0078125 115.234 0.0078125C115.455 0.0078125 115.677 0.0285903 115.899 0.0701459C116.868 0.25022 117.637 0.686554 118.205 1.37915C118.717 2.00248 118.974 2.76433 118.974 3.66471L118.953 3.99715C118.607 8.19427 118.434 12.3983 118.434 16.6093C118.434 19.6705 118.524 22.7318 118.704 25.7931V26.1047C118.704 26.9081 118.489 27.58 118.06 28.1202C117.644 28.6604 116.979 29.069 116.065 29.3461C115.109 29.6508 114.188 29.8032 113.301 29.8032C112.803 29.8032 112.103 29.7132 111.203 29.5331C110.302 29.3392 109.298 28.6189 108.19 27.3722C106.071 24.8234 104.325 22.0461 102.954 19.0403C102.511 18.0845 101.991 17.0872 101.396 16.0483C100.814 14.9955 100.121 14.0813 99.3179 13.3056C99.2902 14.2891 99.2764 15.2587 99.2764 16.2145L99.2971 18.0637L99.3179 20.474L99.2971 23.9231C99.2971 24.7542 99.2625 25.5853 99.1933 26.4164C99.0824 27.4414 98.7292 28.2587 98.1336 28.8682C97.5518 29.4638 96.8177 29.7824 95.9311 29.824Z" fill="white"/>
<path d="M132.375 29.824C130.034 29.8101 127.964 29.2491 126.163 28.141C124.376 27.0328 123.005 25.5437 122.049 23.6737C121.245 22.0946 120.844 20.3562 120.844 18.4585C120.844 18.1122 120.858 17.7521 120.885 17.3781C121.245 12.9039 122.811 8.83838 125.581 5.18149C125.733 4.98756 125.893 4.80056 126.059 4.62049C126.419 4.26034 126.696 3.86556 126.89 3.43615C127.555 1.954 128.497 0.991295 129.716 0.548036C130.755 0.187887 131.877 0.0078125 133.082 0.0078125C136.157 0.0078125 138.844 0.714258 141.144 2.12715C143.263 3.44308 144.898 5.19534 146.047 7.38393C147.058 9.30935 147.564 11.4425 147.564 13.7835C147.564 15.2656 147.377 16.8932 147.003 18.6663C146.2 22.0046 144.468 24.6849 141.809 26.7073C139.149 28.7297 136.005 29.7686 132.375 29.824ZM132.396 22.4478C132.826 22.4478 133.283 22.3994 133.768 22.3024C137.535 21.5544 139.502 18.9918 139.668 14.6146L139.689 14.1367C139.689 12.1975 139.045 10.466 137.757 8.94227C137.037 8.16656 136.095 7.67482 134.931 7.46705C134.654 7.42549 134.391 7.40471 134.142 7.40471C133.366 7.40471 132.749 7.62634 132.292 8.0696C130.879 9.70412 129.841 11.4633 129.176 13.3472C128.732 14.58 128.511 15.8682 128.511 17.2118C128.511 17.9183 128.573 18.6455 128.698 19.3935C128.947 20.6402 129.515 21.5059 130.402 21.9907C130.969 22.2955 131.634 22.4478 132.396 22.4478Z" fill="white"/>
</svg>
