<svg width="122" height="32" viewBox="0 0 122 32" fill="none" xmlns="http://www.w3.org/2000/svg">
<path d="M39.1445 20.27V17.6701L40.091 17.5203V13.8181L39.1445 13.6684V11.0684H44.5421C45.1851 11.0684 45.7921 11.0984 46.3632 11.1583C46.9383 11.2182 47.4455 11.342 47.8848 11.5297C48.3242 11.7174 48.6676 11.999 48.9152 12.3744C49.1668 12.7498 49.2926 13.255 49.2926 13.89C49.2926 14.4212 49.1948 14.8625 48.9991 15.214C48.8034 15.5614 48.5318 15.839 48.1844 16.0467C47.8409 16.2503 47.4415 16.4021 46.9863 16.5019C46.535 16.5978 46.0477 16.6617 45.5245 16.6936C45.0014 16.7216 44.4682 16.7356 43.925 16.7356V17.5203L44.8716 17.6701V20.27H39.1445ZM43.925 15.0882C44.4003 15.0882 44.7737 15.0203 45.0453 14.8845C45.3209 14.7487 45.4586 14.4412 45.4586 13.9619C45.4586 13.6464 45.3947 13.4108 45.2669 13.255C45.1431 13.0953 44.9674 12.9894 44.7398 12.9375C44.5121 12.8856 44.2406 12.8596 43.925 12.8596V15.0882Z" fill="white"/>
<path d="M49.9037 20.27V17.6701L50.8502 17.5203V13.8181L49.9037 13.6684V11.0684H55.5708V13.6684L54.6842 13.8181V17.9696C55.0716 17.9696 55.4051 17.8918 55.6846 17.736C55.9642 17.5763 56.1998 17.3985 56.3915 17.2028H57.392V20.27H49.9037Z" fill="white"/>
<path d="M58.3085 20.27V17.2508L59.0454 17.101L60.8126 11.0684H65.7609L67.5341 17.101L68.2709 17.2508V20.27H64.8623L64.5388 18.7245H62.0347L61.7172 20.27H58.3085ZM62.5499 16.6697H64.0236L63.2867 13.2011L62.5499 16.6697Z" fill="white"/>
<path d="M71.2303 20.27V17.6821L71.9971 17.4904L69.3672 13.8122L68.2769 13.6684V11.0684H73.5127V13.6684L72.9137 13.8122L74.1297 15.6932L75.3458 13.8122L74.7468 13.6684V11.0684H80.0365V13.6684L78.8923 13.8122L76.2624 17.4904L77.0292 17.6821V20.27H71.2303Z" fill="white"/>
<path d="M80.8093 20.27V17.6701L81.7438 17.5203V13.8181L80.8093 13.6684V11.0684H85.5778L88.645 15.7831V13.8301L87.8782 13.6684V11.0684H91.88V13.6684L90.9454 13.8181V20.27H87.1054L84.0442 15.7831V17.5203L84.811 17.6641V20.27H80.8093Z" fill="white"/>
<path d="M98.1102 20.3779C97.0039 20.3779 96.0494 20.2081 95.2467 19.8687C94.4439 19.5252 93.8269 18.998 93.3956 18.2871C92.9643 17.5763 92.7486 16.6677 92.7486 15.5614C92.7486 14.4951 92.9722 13.6205 93.4195 12.9375C93.8708 12.2546 94.4999 11.7494 95.3066 11.4219C96.1133 11.0944 97.0479 10.9307 98.1102 10.9307C99.1765 10.9307 100.113 11.0944 100.92 11.4219C101.727 11.7494 102.356 12.2546 102.807 12.9375C103.258 13.6205 103.484 14.4951 103.484 15.5614C103.484 16.6597 103.264 17.5663 102.825 18.2812C102.386 18.992 101.762 19.5192 100.956 19.8627C100.153 20.2061 99.2045 20.3779 98.1102 20.3779ZM98.1102 17.4844C98.7013 17.4844 99.1046 17.3087 99.3203 16.9572C99.54 16.6058 99.6498 16.1405 99.6498 15.5614C99.6498 14.9783 99.54 14.517 99.3203 14.1776C99.1006 13.8381 98.6973 13.6684 98.1102 13.6684C97.5231 13.6684 97.1217 13.8381 96.9061 14.1776C96.6904 14.517 96.5826 14.9783 96.5826 15.5614C96.5826 16.1405 96.6884 16.6058 96.9001 16.9572C97.1158 17.3087 97.5191 17.4844 98.1102 17.4844Z" fill="white"/>
<path d="M107.629 20.276L105.179 13.8122L104.089 13.6684V11.0684H110.085V13.6684L109.426 13.8122L110.463 17.2208L111.499 13.8122L110.84 13.6684V11.0684H116.657V13.6684L115.998 13.8122L117.035 17.2208L118.071 13.8122L117.412 13.6684V11.0684H122.001V13.6684L120.916 13.8122L118.466 20.276H114.201L113.045 16.7535L111.895 20.276H107.629Z" fill="white"/>
<g clip-path="url(#clip0_8437_95202)">
<path d="M29.9242 11.9927L19.4788 1.54677C17.4152 -0.516891 14.0572 -0.516891 11.9935 1.54677L1.54813 11.9927C-0.516045 14.0569 -0.516045 17.4148 1.54813 19.4785L11.9935 29.9239C14.0577 31.9881 17.4157 31.9881 19.4794 29.9239L29.9248 19.4785C31.9884 17.4148 31.9884 14.0569 29.9248 11.9927H29.9242ZM17.2855 27.73C16.4311 28.5844 15.0408 28.5839 14.1864 27.73L3.74149 17.2846C3.6865 17.2296 3.63566 17.1726 3.58741 17.114C2.89071 16.2544 2.94206 14.986 3.74201 14.186L14.1874 3.74064C15.0413 2.88675 16.4316 2.88623 17.2855 3.74064L27.7309 14.186C28.5853 15.0399 28.5853 16.4302 27.7309 17.2846L17.2855 27.73Z" fill="url(#paint0_linear_8437_95202)"/>
<path style="mix-blend-mode:multiply" d="M3.74133 14.1864L4.3431 13.5847L6.37097 11.5568L10.2041 7.72362L8.01079 5.53027L2.14923 11.3908C0.961254 12.5788 1.47068 15.0149 3.28689 16.8311C3.38494 16.9292 3.48454 17.0236 3.58674 17.1138C2.89003 16.2542 2.94139 14.9859 3.74133 14.1859V14.1864Z" fill="url(#paint1_linear_8437_95202)"/>
<path style="mix-blend-mode:multiply" d="M27.7304 17.2853L27.1286 17.8871L25.1008 19.915L21.2676 23.7482L23.4609 25.9415L29.322 20.0805C30.51 18.8925 30.0005 16.4564 28.1843 14.6402C28.0863 14.5421 27.9867 14.4477 27.8845 14.3574C28.5812 15.217 28.5298 16.4854 27.7299 17.2853H27.7304Z" fill="url(#paint2_linear_8437_95202)"/>
<path style="mix-blend-mode:multiply" d="M17.2853 3.74179L17.8871 4.34356L19.915 6.37143L23.7482 10.2046L25.9415 8.01125L20.0805 2.15021C18.8925 0.962231 16.4564 1.47166 14.6402 3.28787C14.5421 3.38592 14.4477 3.48552 14.3574 3.58772C15.217 2.89101 16.4854 2.94237 17.2853 3.74231V3.74179Z" fill="url(#paint3_linear_8437_95202)"/>
<path style="mix-blend-mode:multiply" d="M14.1874 27.7304L13.5856 27.1286L11.5578 25.1008L7.7246 21.2676L5.53125 23.4609L11.3923 29.322C12.5803 30.51 15.0164 30.0005 16.8326 28.1843C16.9307 28.0863 17.0251 27.9867 17.1153 27.8845C16.2557 28.5812 14.9874 28.5298 14.1874 27.7299V27.7304Z" fill="url(#paint4_linear_8437_95202)"/>
<path d="M16.8437 10.9805C17.766 10.9805 18.5137 10.2328 18.5137 9.31054C18.5137 8.38827 17.766 7.64062 16.8437 7.64062C15.9215 7.64062 15.1738 8.38827 15.1738 9.31054C15.1738 10.2328 15.9215 10.9805 16.8437 10.9805Z" fill="url(#paint5_linear_8437_95202)"/>
<path d="M13.1172 14.708C14.0394 14.708 14.7871 13.9603 14.7871 13.0381C14.7871 12.1158 14.0394 11.3682 13.1172 11.3682C12.1949 11.3682 11.4473 12.1158 11.4473 13.0381C11.4473 13.9603 12.1949 14.708 13.1172 14.708Z" fill="url(#paint6_linear_8437_95202)"/>
<path d="M9.39062 18.4336C10.3129 18.4336 11.0605 17.6859 11.0605 16.7637C11.0605 15.8414 10.3129 15.0938 9.39062 15.0938C8.46835 15.0938 7.7207 15.8414 7.7207 16.7637C7.7207 17.6859 8.46835 18.4336 9.39062 18.4336Z" fill="url(#paint7_linear_8437_95202)"/>
<path d="M22.1562 16.293C23.0785 16.293 23.8262 15.5453 23.8262 14.623C23.8262 13.7008 23.0785 12.9531 22.1562 12.9531C21.234 12.9531 20.4863 13.7008 20.4863 14.623C20.4863 15.5453 21.234 16.293 22.1562 16.293Z" fill="url(#paint8_linear_8437_95202)"/>
<path d="M18.4297 20.0195C19.3519 20.0195 20.0996 19.2719 20.0996 18.3496C20.0996 17.4273 19.3519 16.6797 18.4297 16.6797C17.5074 16.6797 16.7598 17.4273 16.7598 18.3496C16.7598 19.2719 17.5074 20.0195 18.4297 20.0195Z" fill="url(#paint9_linear_8437_95202)"/>
<path d="M14.7031 23.7461C15.6254 23.7461 16.373 22.9984 16.373 22.0762C16.373 21.1539 15.6254 20.4062 14.7031 20.4062C13.7808 20.4062 13.0332 21.1539 13.0332 22.0762C13.0332 22.9984 13.7808 23.7461 14.7031 23.7461Z" fill="url(#paint10_linear_8437_95202)"/>
</g>
<defs>
<linearGradient id="paint0_linear_8437_95202" x1="15.7362" y1="-1.57145" x2="15.7362" y2="23.2156" gradientUnits="userSpaceOnUse">
<stop stop-color="#FF4D4D"/>
<stop offset="1" stop-color="#F70808"/>
</linearGradient>
<linearGradient id="paint1_linear_8437_95202" x1="0.855688" y1="16.2647" x2="8.06232" y2="9.05806" gradientUnits="userSpaceOnUse">
<stop stop-color="#AF0808"/>
<stop offset="1" stop-color="white"/>
</linearGradient>
<linearGradient id="paint2_linear_8437_95202" x1="30.6158" y1="15.2067" x2="23.4092" y2="22.4134" gradientUnits="userSpaceOnUse">
<stop stop-color="#AF0808"/>
<stop offset="1" stop-color="white"/>
</linearGradient>
<linearGradient id="paint3_linear_8437_95202" x1="15.2066" y1="0.856902" x2="22.4132" y2="8.06354" gradientUnits="userSpaceOnUse">
<stop stop-color="#AF0808"/>
<stop offset="1" stop-color="white"/>
</linearGradient>
<linearGradient id="paint4_linear_8437_95202" x1="16.2659" y1="30.6157" x2="9.05927" y2="23.4091" gradientUnits="userSpaceOnUse">
<stop stop-color="#AF0808"/>
<stop offset="1" stop-color="white"/>
</linearGradient>
<linearGradient id="paint5_linear_8437_95202" x1="27.0718" y1="19.5386" x2="15.759" y2="8.22579" gradientUnits="userSpaceOnUse">
<stop stop-color="#FF4D4D"/>
<stop offset="1" stop-color="#F70808"/>
</linearGradient>
<linearGradient id="paint6_linear_8437_95202" x1="23.3452" y1="23.2661" x2="12.0324" y2="11.9533" gradientUnits="userSpaceOnUse">
<stop stop-color="#FF4D4D"/>
<stop offset="1" stop-color="#F70808"/>
</linearGradient>
<linearGradient id="paint7_linear_8437_95202" x1="19.6187" y1="26.9922" x2="8.30587" y2="15.6789" gradientUnits="userSpaceOnUse">
<stop stop-color="#FF4D4D"/>
<stop offset="1" stop-color="#F70808"/>
</linearGradient>
<linearGradient id="paint8_linear_8437_95202" x1="27.0721" y1="19.5384" x2="15.7593" y2="8.22559" gradientUnits="userSpaceOnUse">
<stop stop-color="#FF4D4D"/>
<stop offset="1" stop-color="#F70808"/>
</linearGradient>
<linearGradient id="paint9_linear_8437_95202" x1="23.345" y1="23.2655" x2="12.0322" y2="11.9527" gradientUnits="userSpaceOnUse">
<stop stop-color="#FF4D4D"/>
<stop offset="1" stop-color="#F70808"/>
</linearGradient>
<linearGradient id="paint10_linear_8437_95202" x1="19.6184" y1="26.992" x2="8.30567" y2="15.6787" gradientUnits="userSpaceOnUse">
<stop stop-color="#FF4D4D"/>
<stop offset="1" stop-color="#F70808"/>
</linearGradient>
<clipPath id="clip0_8437_95202">
<rect width="31.4721" height="31.4721" fill="white"/>
</clipPath>
</defs>
</svg>
