<svg width="176" height="43" viewBox="0 0 176 43" fill="none" xmlns="http://www.w3.org/2000/svg">
<path d="M23.7062 10.0832C23.7062 13.5998 22.5751 16.5148 20.313 18.8282C19.2075 19.9589 17.8666 20.8355 16.2903 21.4579C14.6014 22.1322 12.631 22.4486 10.3791 22.4071L4.95926 22.3137C3.4853 22.293 2.26724 22.3241 1.30507 22.4071L1.15153 22.2515V21.8158L1.2283 21.629C1.98575 21.1415 2.39518 20.8355 2.4566 20.711C2.54872 20.5243 2.60502 19.8344 2.62549 18.6414L2.67155 15.1559V7.26674C2.67155 4.79781 2.60502 3.1899 2.47195 2.44299C2.42077 2.14216 2.24676 1.95024 1.94993 1.86726C1.79639 1.82576 1.19759 1.77389 0.153537 1.71165L0 1.55605V0.497935L0.153537 0.357891C1.23854 0.420133 2.27235 0.451253 3.25499 0.451253C5.63994 0.451253 7.78947 0.420133 9.70357 0.357891C10.6555 0.32677 11.6125 0.311209 12.5747 0.311209C15.236 0.311209 17.2781 0.617232 18.7009 1.22928C20.2567 1.90356 21.4748 2.96168 22.3551 4.40361C23.2558 5.88704 23.7062 7.78023 23.7062 10.0832ZM18.9926 10.8301C18.9926 7.95658 18.3068 5.747 16.9352 4.20133C16.2187 3.39218 15.323 2.82163 14.2483 2.48967C13.2247 2.17847 11.7968 2.02286 9.96458 2.02286C9.01265 2.02286 8.10166 2.09029 7.23161 2.22515C7.12926 3.38699 7.07808 6.19825 7.07808 10.6589L7.10878 17.4588C7.11902 18.9734 7.15996 19.9796 7.23161 20.4776C8.13237 20.6228 9.05359 20.6954 9.99529 20.6954C12.0322 20.6954 13.6392 20.3946 14.8164 19.7929C16.0856 19.1394 17.0938 18.0294 17.8411 16.463C18.6087 14.8447 18.9926 12.9671 18.9926 10.8301Z" fill="#2C2C2C"/>
<path d="M43.0365 17.1165C42.8114 18.6311 42.6988 20.3427 42.6988 22.2515L42.5452 22.4071L31.3831 22.3137C29.5201 22.3137 28.2048 22.3448 27.4371 22.4071L27.2836 22.2515V21.8158L27.3604 21.629C28.1178 21.1415 28.5273 20.8355 28.5887 20.711C28.6808 20.5139 28.7371 19.824 28.7576 18.6414L28.8036 15.1559V7.26674C28.8036 4.79781 28.7371 3.1899 28.604 2.44299C28.5528 2.14216 28.3788 1.95024 28.082 1.86726C27.9285 1.82576 27.3297 1.77389 26.2856 1.71165L26.1321 1.55605V0.497935L26.2856 0.357891C27.3194 0.420133 28.9162 0.451253 31.076 0.451253C33.0003 0.451253 36.6596 0.420133 42.0539 0.357891L42.2228 0.482374L42.0232 2.20959C41.9618 2.75939 41.9157 3.2262 41.885 3.61003L41.7775 5.05715L41.624 5.22832H40.7335L40.58 5.07271C40.5697 3.6619 40.4878 2.85794 40.3343 2.66084C40.2217 2.51561 39.669 2.4015 38.6761 2.31851C37.6934 2.23552 36.8285 2.19403 36.0813 2.19403C35.1908 2.19403 34.29 2.23033 33.379 2.30295C33.2664 3.39218 33.2102 4.90155 33.2102 6.83104V10.0521C34.0188 10.1039 34.6739 10.1299 35.1754 10.1299L37.1868 10.1143C38.1285 10.1039 38.6607 10.0261 38.7836 9.8809C38.9473 9.69417 39.0548 8.99395 39.106 7.78023L39.2595 7.62463H40.2115L40.365 7.78023C40.3241 8.94208 40.3036 10.0054 40.3036 10.9701C40.3036 12.0179 40.3241 13.1642 40.365 14.409L40.2115 14.549H39.1828L39.0292 14.3934C39.0292 13.2005 38.9473 12.4951 38.7836 12.2772C38.6198 12.049 38.1234 11.8986 37.2943 11.826C36.6699 11.7741 36.0045 11.7482 35.2983 11.7482C34.551 11.7482 33.855 11.7741 33.2102 11.826V16.5719C33.2102 17.9308 33.2357 19.2483 33.2869 20.5243H35.375C38.3639 20.5243 40.1961 20.405 40.8717 20.1664C40.9843 20.1249 41.0662 20.0678 41.1173 19.9952C41.2197 19.85 41.3169 19.5388 41.4091 19.0616L41.7775 17.1321L41.9311 16.9609H42.8677L43.0365 17.1165Z" fill="#2C2C2C"/>
<path d="M62.1059 17.1165C61.8807 18.6311 61.7681 20.3427 61.7681 22.2515L61.6146 22.4071L50.4524 22.3137C48.5895 22.3137 47.2742 22.3448 46.5065 22.4071L46.353 22.2515V21.8158L46.4297 21.629C47.1872 21.1415 47.5966 20.8355 47.658 20.711C47.7502 20.5139 47.8064 19.824 47.8269 18.6414L47.873 15.1559V7.26674C47.873 4.79781 47.8064 3.1899 47.6734 2.44299C47.6222 2.14216 47.4482 1.95024 47.1514 1.86726C46.9978 1.82576 46.399 1.77389 45.355 1.71165L45.2014 1.55605V0.497935L45.355 0.357891C46.3888 0.420133 47.9856 0.451253 50.1453 0.451253C52.0697 0.451253 55.729 0.420133 61.1233 0.357891L61.2922 0.482374L61.0926 2.20959C61.0311 2.75939 60.9851 3.2262 60.9544 3.61003L60.8469 5.05715L60.6934 5.22832H59.8028L59.6493 5.07271C59.6391 3.6619 59.5572 2.85794 59.4036 2.66084C59.2911 2.51561 58.7383 2.4015 57.7454 2.31851C56.7628 2.23552 55.8979 2.19403 55.1507 2.19403C54.2601 2.19403 53.3594 2.23033 52.4484 2.30295C52.3358 3.39218 52.2795 4.90155 52.2795 6.83104V10.0521C53.0881 10.1039 53.7432 10.1299 54.2448 10.1299L56.2561 10.1143C57.1978 10.1039 57.7301 10.0261 57.8529 9.8809C58.0167 9.69417 58.1242 8.99395 58.1753 7.78023L58.3289 7.62463H59.2808L59.4344 7.78023C59.3934 8.94208 59.3729 10.0054 59.3729 10.9701C59.3729 12.0179 59.3934 13.1642 59.4344 14.409L59.2808 14.549H58.2521L58.0986 14.3934C58.0986 13.2005 58.0167 12.4951 57.8529 12.2772C57.6891 12.049 57.1927 11.8986 56.3636 11.826C55.7392 11.7741 55.0739 11.7482 54.3676 11.7482C53.6204 11.7482 52.9244 11.7741 52.2795 11.826V16.5719C52.2795 17.9308 52.3051 19.2483 52.3563 20.5243H54.4444C57.4332 20.5243 59.2655 20.405 59.941 20.1664C60.0536 20.1249 60.1355 20.0678 60.1867 19.9952C60.289 19.85 60.3863 19.5388 60.4784 19.0616L60.8469 17.1321L61.0004 16.9609H61.937L62.1059 17.1165Z" fill="#2C2C2C"/>
<path d="M85.2901 22.2515L85.1365 22.4071C85.0649 22.4071 84.8704 22.4019 84.5531 22.3915C83.1508 22.3396 82.2756 22.3137 81.9276 22.3137C81.4056 22.3137 80.5765 22.3448 79.4403 22.4071C79.3993 22.1581 79.2049 21.7432 78.8568 21.1622L75.0491 14.7202L73.3448 12.0905C73.1299 11.7689 72.8279 11.4525 72.439 11.1413L72.6079 10.6122C72.8433 10.6226 73.0173 10.6278 73.1299 10.6278C74.133 10.6278 74.9212 10.467 75.4944 10.1454C76.0164 9.85496 76.4975 9.34665 76.9376 8.6205C77.3778 7.89434 77.5978 7.02814 77.5978 6.0219C77.5978 4.26875 76.953 3.08616 75.6633 2.47411C75.0491 2.18365 74.1535 2.03842 72.9763 2.03842C72.4646 2.03842 71.9732 2.07992 71.5024 2.1629C71.4 3.17952 71.3489 4.91192 71.3489 7.3601V15.4982C71.3489 17.9671 71.4154 19.5751 71.5485 20.322C71.5996 20.6228 71.7736 20.8147 72.0705 20.8977C72.224 20.9392 72.8228 20.9911 73.8669 21.0533L74.0204 21.2089V22.2515L73.8822 22.4071C72.8586 22.3448 71.2823 22.3137 69.1533 22.3137C66.9526 22.3137 65.3762 22.3448 64.4243 22.4071L64.2708 22.267V21.2089L64.4243 21.0533C65.4684 20.9911 66.0672 20.9392 66.2207 20.8977C66.5175 20.8147 66.6916 20.6228 66.7427 20.322C66.8758 19.5751 66.9423 17.9671 66.9423 15.4982V7.26674C66.9423 4.79781 66.8758 3.1899 66.7427 2.44299C66.6916 2.14216 66.5175 1.95024 66.2207 1.86726C66.0672 1.82576 65.4684 1.77389 64.4243 1.71165L64.2708 1.55605V0.497935L64.4243 0.357891C65.4274 0.420133 67.0037 0.451253 69.1533 0.451253C70.402 0.451253 71.4154 0.435693 72.1933 0.404572C73.7389 0.34233 74.8956 0.311209 75.6633 0.311209C77.4341 0.311209 78.734 0.472001 79.5631 0.793584C80.6788 1.22928 81.426 1.96581 81.8048 3.00317C81.989 3.51148 82.0811 4.11315 82.0811 4.80818C82.0811 7.62981 80.515 9.63193 77.3829 10.8145C77.8947 11.6859 78.4372 12.5677 79.0104 13.4598L81.3748 17.1476C82.7669 19.3261 83.6933 20.5657 84.1539 20.8666C84.3893 21.0222 84.7169 21.1 85.1365 21.1L85.2901 21.2556V22.2515Z" fill="#2C2C2C"/>
<path d="M102.102 0.482374L101.903 2.25627C101.862 2.65047 101.816 3.16915 101.765 3.81231L101.673 5.05715L101.519 5.22832H100.628L100.475 5.07271C100.454 3.67227 100.373 2.8735 100.229 2.6764C99.9938 2.35482 98.5659 2.19403 95.9456 2.19403C95.5259 2.19403 94.8657 2.22515 93.9649 2.28739C93.8523 3.3455 93.796 5.24388 93.796 7.98252V10.0832L95.531 10.1299C96.053 10.1402 97.0203 10.1195 98.4329 10.0676C98.7092 10.0572 98.8935 9.97944 98.9856 9.83421C99.1391 9.58525 99.2313 8.90059 99.262 7.78023L99.4155 7.62463H100.367L100.521 7.78023C100.48 8.94208 100.46 10.0054 100.46 10.9701C100.46 12.0179 100.48 13.1642 100.521 14.409L100.367 14.549H99.3387L99.1852 14.3934C99.1852 13.3042 99.1391 12.6662 99.047 12.4795C98.873 12.1164 98.3459 11.8986 97.4656 11.826C96.8617 11.7741 96.268 11.7482 95.6845 11.7482C94.9783 11.7482 94.3488 11.7637 93.796 11.7948V15.4982C93.796 17.9568 93.8626 19.5647 93.9956 20.322C94.0468 20.6228 94.2208 20.8147 94.5177 20.8977C94.5893 20.9185 95.3212 20.9703 96.7132 21.0533L96.8668 21.2089V22.2515L96.6979 22.4071L90.5257 22.3137C89.6454 22.3033 88.4273 22.3345 86.8715 22.4071L86.718 22.267V21.2089L86.8715 21.0533C87.9156 20.9911 88.5143 20.9392 88.6679 20.8977C88.9647 20.8147 89.1387 20.6228 89.1899 20.322C89.323 19.5647 89.3895 17.9568 89.3895 15.4982V7.26674C89.3895 4.80818 89.323 3.20027 89.1899 2.44299C89.1387 2.14216 88.9647 1.95024 88.6679 1.86726C88.5143 1.82576 87.9156 1.77389 86.8715 1.71165L86.718 1.55605V0.497935L86.8715 0.357891C87.8541 0.420133 89.4305 0.451253 91.6004 0.451253C93.0028 0.451253 96.4522 0.420133 101.949 0.357891L102.102 0.482374Z" fill="#2C2C2C"/>
<path d="M128.02 10.8145C128.02 14.6424 126.919 17.6456 124.718 19.824C122.579 21.9403 119.657 22.9984 115.951 22.9984C112.451 22.9984 109.703 22.0025 107.707 20.0108C105.711 18.0086 104.713 15.2285 104.713 11.6703C104.713 6.68063 106.591 3.2262 110.347 1.30708C112.057 0.435693 114.16 0 116.658 0C120.23 0 123.009 0.949188 124.995 2.84756C127.011 4.77706 128.02 7.43272 128.02 10.8145ZM123.291 11.6237C123.291 8.61531 122.692 6.22937 121.494 4.46585C120.307 2.69196 118.562 1.80501 116.259 1.80501C113.219 1.80501 111.202 3.1899 110.209 5.95966C109.697 7.38085 109.442 8.9732 109.442 10.7367C109.442 13.9422 110.025 16.4733 111.192 18.3302C112.4 20.2494 114.206 21.2089 116.612 21.2089C119.529 21.2089 121.489 19.7514 122.492 16.8364C123.024 15.2908 123.291 13.5532 123.291 11.6237Z" fill="#2C2C2C"/>
<path d="M154.213 10.8145C154.213 14.6424 153.113 17.6456 150.912 19.824C148.773 21.9403 145.85 22.9984 142.145 22.9984C138.644 22.9984 135.896 22.0025 133.9 20.0108C131.904 18.0086 130.906 15.2285 130.906 11.6703C130.906 6.68063 132.784 3.2262 136.541 1.30708C138.25 0.435693 140.354 0 142.851 0C146.424 0 149.203 0.949188 151.188 2.84756C153.205 4.77706 154.213 7.43272 154.213 10.8145ZM149.484 11.6237C149.484 8.61531 148.885 6.22937 147.688 4.46585C146.5 2.69196 144.755 1.80501 142.452 1.80501C139.412 1.80501 137.396 3.1899 136.403 5.95966C135.891 7.38085 135.635 8.9732 135.635 10.7367C135.635 13.9422 136.218 16.4733 137.385 18.3302C138.593 20.2494 140.4 21.2089 142.805 21.2089C145.722 21.2089 147.683 19.7514 148.686 16.8364C149.218 15.2908 149.484 13.5532 149.484 11.6237Z" fill="#2C2C2C"/>
<path d="M176 0.451253C175.877 1.2189 175.811 2.01249 175.8 2.832L175.77 5.4306L175.616 5.58621H174.649L174.48 5.44616C174.429 4.11834 174.372 3.34031 174.311 3.11209C174.188 2.69715 173.861 2.45337 173.328 2.38075C173.124 2.34963 172.162 2.33407 170.442 2.33407H168.385C168.364 2.69715 168.354 4.13908 168.354 6.65988V15.4982C168.354 17.9671 168.42 19.5751 168.553 20.322C168.605 20.6228 168.779 20.8147 169.075 20.8977C169.229 20.9392 169.828 20.9911 170.872 21.0533L171.025 21.2089V22.2515L170.872 22.4071C169.858 22.3448 168.282 22.3137 166.143 22.3137C163.952 22.3137 162.376 22.3448 161.414 22.4071L161.276 22.267V21.2089L161.429 21.0533C162.473 20.9911 163.072 20.9392 163.226 20.8977C163.523 20.8147 163.697 20.6228 163.748 20.322C163.881 19.5751 163.947 17.9671 163.947 15.4982V6.65988C163.947 4.09759 163.932 2.65565 163.901 2.33407H161.706C159.873 2.33407 158.804 2.39112 158.497 2.50523C158.333 2.56748 158.22 2.64528 158.159 2.73864C158.067 2.90462 157.99 3.23658 157.929 3.73451C157.857 4.28431 157.811 4.84968 157.79 5.4306L157.637 5.58621H156.67L156.501 5.4306L156.47 2.76976C156.46 2.02286 156.398 1.25002 156.286 0.451253L156.424 0.295649C157.028 0.399385 159.229 0.451253 163.026 0.451253H169.244C172.745 0.451253 174.946 0.399385 175.846 0.295649L176 0.451253Z" fill="#2C2C2C"/>
<path d="M53.3042 43C52.4243 43 51.6104 42.8551 50.8624 42.5653C50.1255 42.2643 49.4821 41.8463 48.9321 41.3112C48.3932 40.765 47.9697 40.1296 47.6617 39.4051C47.3537 38.6805 47.1998 37.8835 47.1998 37.014C47.1998 36.1445 47.3537 35.3475 47.6617 34.6229C47.9697 33.8984 48.3987 33.2686 48.9486 32.7335C49.4986 32.1873 50.142 31.7693 50.8789 31.4794C51.6269 31.1785 52.4408 31.028 53.3207 31.028C54.2116 31.028 55.0311 31.184 55.779 31.4962C56.5379 31.7971 57.1814 32.2486 57.7093 32.8505L56.6369 33.9039C56.197 33.4358 55.702 33.0902 55.1521 32.8673C54.6021 32.6332 54.0137 32.5161 53.3867 32.5161C52.7378 32.5161 52.1328 32.6276 51.5719 32.8505C51.0219 33.0735 50.5435 33.3856 50.1365 33.7869C49.7295 34.1882 49.4106 34.6675 49.1796 35.2249C48.9596 35.7711 48.8496 36.3675 48.8496 37.014C48.8496 37.6605 48.9596 38.2625 49.1796 38.8198C49.4106 39.366 49.7295 39.8398 50.1365 40.2411C50.5435 40.6424 51.0219 40.9545 51.5719 41.1774C52.1328 41.4004 52.7378 41.5119 53.3867 41.5119C54.0137 41.5119 54.6021 41.4004 55.1521 41.1774C55.702 40.9434 56.197 40.5866 56.6369 40.1073L57.7093 41.1607C57.1814 41.7627 56.5379 42.2197 55.779 42.5318C55.0311 42.8439 54.2062 43 53.3042 43Z" fill="#2C2C2C"/>
<path d="M61.3399 42.8662L66.57 31.1617H68.2033L73.4499 42.8662H71.7175L67.0484 32.0981H67.7084L63.0393 42.8662H61.3399ZM63.5672 39.9401L64.0127 38.6025H70.5131L70.9916 39.9401H63.5672Z" fill="#2C2C2C"/>
<path d="M81.8381 43C80.9582 43 80.1168 42.8662 79.3138 42.5987C78.5109 42.32 77.8785 41.9633 77.4165 41.5286L78.0269 40.2244C78.4669 40.6145 79.0279 40.9378 79.7098 41.1942C80.3917 41.4506 81.1012 41.5787 81.8381 41.5787C82.5091 41.5787 83.0535 41.5007 83.4715 41.3447C83.8894 41.1886 84.1974 40.9768 84.3954 40.7093C84.5934 40.4306 84.6924 40.1185 84.6924 39.7729C84.6924 39.3716 84.5604 39.0483 84.2964 38.8031C84.0434 38.5579 83.708 38.3628 83.29 38.2179C82.883 38.0618 82.4321 37.9281 81.9371 37.8166C81.4422 37.7051 80.9417 37.5769 80.4357 37.432C79.9408 37.2759 79.4843 37.0809 79.0664 36.8468C78.6594 36.6127 78.3294 36.3006 78.0764 35.9104C77.8235 35.5091 77.697 34.9964 77.697 34.3721C77.697 33.7702 77.851 33.2184 78.1589 32.7168C78.4779 32.204 78.9619 31.7971 79.6108 31.4962C80.2708 31.184 81.1067 31.028 82.1186 31.028C82.7895 31.028 83.455 31.1172 84.1149 31.2955C84.7749 31.4739 85.3468 31.7302 85.8308 32.0647L85.2863 33.4023C84.7914 33.0679 84.2689 32.8282 83.7189 32.6833C83.169 32.5273 82.6356 32.4492 82.1186 32.4492C81.4697 32.4492 80.9362 32.5328 80.5182 32.7001C80.1003 32.8673 79.7923 33.0902 79.5943 33.3689C79.4073 33.6476 79.3138 33.9597 79.3138 34.3052C79.3138 34.7177 79.4403 35.0465 79.6933 35.2918C79.9573 35.537 80.2927 35.7321 80.6997 35.877C81.1177 36.0219 81.5741 36.1557 82.0691 36.2783C82.564 36.3898 83.059 36.5179 83.554 36.6629C84.0599 36.8078 84.5164 36.9973 84.9233 37.2314C85.3413 37.4655 85.6768 37.7776 85.9298 38.1677C86.1827 38.5579 86.3092 39.0595 86.3092 39.6726C86.3092 40.2634 86.1497 40.8152 85.8308 41.3279C85.5118 41.8296 85.0168 42.2364 84.3459 42.5485C83.686 42.8495 82.85 43 81.8381 43Z" fill="#2C2C2C"/>
<path d="M92.0193 42.8662V31.1617H93.6691V42.8662H92.0193Z" fill="#2C2C2C"/>
<path d="M100.426 42.8662V31.1617H101.779L109.418 40.7761H108.709V31.1617H110.359V42.8662H109.006L101.367 33.2518H102.076V42.8662H100.426Z" fill="#2C2C2C"/>
<path d="M122.329 43C121.449 43 120.629 42.8495 119.87 42.5485C119.122 42.2476 118.474 41.8296 117.924 41.2945C117.374 40.7483 116.945 40.1129 116.637 39.3883C116.329 38.6638 116.175 37.8723 116.175 37.014C116.175 36.1557 116.329 35.3642 116.637 34.6397C116.945 33.9151 117.374 33.2853 117.924 32.7502C118.474 32.204 119.122 31.7804 119.87 31.4794C120.618 31.1785 121.438 31.028 122.329 31.028C123.209 31.028 124.017 31.1785 124.754 31.4794C125.502 31.7693 126.151 32.1873 126.701 32.7335C127.262 33.2686 127.691 33.8984 127.988 34.6229C128.296 35.3475 128.45 36.1445 128.45 37.014C128.45 37.8835 128.296 38.6805 127.988 39.4051C127.691 40.1296 127.262 40.765 126.701 41.3112C126.151 41.8463 125.502 42.2643 124.754 42.5653C124.017 42.8551 123.209 43 122.329 43ZM122.329 41.5119C122.967 41.5119 123.555 41.4004 124.094 41.1774C124.644 40.9545 125.117 40.6424 125.513 40.2411C125.92 39.8286 126.233 39.3493 126.453 38.8031C126.684 38.2569 126.8 37.6605 126.8 37.014C126.8 36.3675 126.684 35.7711 126.453 35.2249C126.233 34.6787 125.92 34.2049 125.513 33.8036C125.117 33.3912 124.644 33.0735 124.094 32.8505C123.555 32.6276 122.967 32.5161 122.329 32.5161C121.68 32.5161 121.08 32.6276 120.53 32.8505C119.991 33.0735 119.518 33.3912 119.111 33.8036C118.705 34.2049 118.386 34.6787 118.155 35.2249C117.935 35.7711 117.825 36.3675 117.825 37.014C117.825 37.6605 117.935 38.2569 118.155 38.8031C118.386 39.3493 118.705 39.8286 119.111 40.2411C119.518 40.6424 119.991 40.9545 120.53 41.1774C121.08 41.4004 121.68 41.5119 122.329 41.5119Z" fill="#2C2C2C"/>
</svg>
