<svg width="127" height="26" viewBox="0 0 127 26" fill="none" xmlns="http://www.w3.org/2000/svg">
<path d="M1.61124 3.26971C2.41529 3.32749 2.81735 3.67175 2.75956 4.24592C2.70238 4.8201 2.12821 5.27991 1.49626 5.27991C0.692214 5.22211 0.060851 4.47582 0.00306888 3.49961C-0.0540985 2.2935 0.692213 1.26011 1.84113 0.915257C3.10442 0.570999 4.36772 1.08799 4.99906 2.23632C5.63099 3.38466 5.57382 4.533 5.17179 5.73911C4.71197 7.05957 4.08063 8.32345 3.56364 9.58675C2.93229 11.1371 2.6452 12.7453 3.04664 14.4678C3.90849 18.0855 7.52621 20.2679 11.2589 19.4638C14.5324 18.7169 16.7719 15.6161 16.4264 12.2283C16.3121 10.85 15.7951 9.58674 15.2209 8.32344C14.8183 7.34724 14.2441 6.42821 13.9582 5.33706C13.67 4.01658 13.67 2.75329 14.7039 1.66213C15.4508 0.858065 16.4264 0.628154 17.4604 0.915245C18.4944 1.20234 19.0685 1.94921 19.2401 2.92542C19.4712 3.9588 18.8386 4.99281 17.863 5.2221C17.2317 5.39426 16.5992 4.93501 16.4836 4.30369C16.4264 3.72891 16.7147 3.32746 17.2889 3.26969C17.4032 3.26969 17.5176 3.32748 17.5748 3.21251C17.6319 3.09758 17.5176 2.9826 17.4604 2.86767C17.0578 2.35127 16.1977 2.35127 15.7379 2.86767C15.2209 3.44182 15.1066 4.13096 15.2781 4.82007C15.508 5.79627 16.025 6.60035 16.4836 7.4616C17.1162 8.72489 17.8631 9.9888 18.3217 11.3092C19.4712 14.8704 18.3217 18.4298 15.2209 20.4977C11.7759 22.7944 8.15758 22.9088 4.5976 20.8992C1.32413 19.0611 -1.03031 14.7548 1.43908 9.93101C2.07043 8.7249 2.70237 7.51937 3.33372 6.25611C3.62139 5.68193 3.85072 5.16493 3.96566 4.53299C4.08062 3.72893 3.90848 3.04041 3.21936 2.58059C2.58744 2.2935 1.84113 2.58059 1.61124 3.26971ZM1.84113 13.8365C1.61124 13.8365 1.49626 13.9508 1.49626 14.1807C1.49626 14.4106 1.61124 14.5821 1.84113 14.5821C2.07044 14.5821 2.1854 14.4106 2.1854 14.2379C2.1854 14.008 2.07045 13.8936 1.84113 13.8365ZM16.025 18.3155C16.1978 18.3155 16.3693 18.2011 16.3693 18.0283C16.3693 17.7985 16.2549 17.6841 16.025 17.6841C15.7951 17.6841 15.6807 17.7985 15.6807 17.97C15.6807 18.1427 15.7951 18.3155 16.025 18.3155ZM3.33374 18.3155C3.50648 18.2583 3.62141 18.0855 3.56365 17.9128C3.56365 17.6841 3.3915 17.6841 3.21938 17.6841C2.98948 17.6841 2.87453 17.7985 2.93229 18.0283C2.93229 18.2011 3.04665 18.3155 3.33374 18.3155ZM17.5176 14.525C17.6903 14.4678 17.8631 14.4106 17.8631 14.2379C17.8631 14.008 17.7475 13.8936 17.5176 13.8365C17.2889 13.8365 17.1733 13.9508 17.1733 14.1807C17.1733 14.3534 17.2889 14.525 17.5176 14.525ZM3.67859 11.367C3.96568 13.8936 5.11402 15.6733 7.46847 16.363C9.70797 17.0516 11.7759 16.6501 13.5556 15.042C13.0386 15.9032 12.6372 16.1903 10.1678 17.3958C12.5788 17.6841 15.7951 14.525 15.4508 10.7923C16.3693 13.0324 15.6236 15.9616 13.7272 17.5114C11.6032 19.2922 8.61742 19.4638 6.26296 18.0283C4.13781 16.6501 2.98948 13.8936 3.67859 11.367ZM9.65079 2.98262C8.55963 2.98262 7.4113 2.98262 6.32014 2.98262C5.91809 2.98262 5.86091 2.8105 5.91809 2.52341C5.91809 2.23632 5.91809 2.00641 6.32014 2.06358C8.55963 2.06358 10.7419 2.06358 12.9814 2.06358C13.2113 2.06358 13.4412 2.06359 13.3841 2.40845C13.3257 2.69554 13.4412 2.9826 12.9243 2.9826C11.8331 2.92545 10.7419 2.92545 9.65079 2.98262ZM10.512 9.58677C10.512 7.80649 10.512 5.96903 10.512 4.18874C10.512 4.0738 10.512 3.90165 10.512 3.78671C10.512 3.67175 10.627 3.61458 10.7419 3.61458C10.8569 3.61458 10.9718 3.61458 10.9718 3.78671C10.9718 3.90165 10.9718 4.01662 10.9718 4.13098C10.9718 7.74931 10.9718 11.3671 10.9718 14.9848C10.9718 15.0991 10.9718 15.1563 10.9718 15.2719C10.9718 15.4446 10.8569 15.559 10.6842 15.559C10.4548 15.559 10.512 15.3862 10.512 15.2135C10.512 14.1224 10.512 13.0896 10.4548 11.9984C10.4548 11.1371 10.512 10.3902 10.512 9.58677ZM7.06643 9.12693C7.06643 7.46161 7.06643 5.73912 7.06643 4.0738C7.06643 3.90165 6.95207 3.61457 7.29634 3.61457C7.6412 3.61457 7.52623 3.90165 7.52623 4.0738C7.52623 7.46161 7.52623 10.8501 7.52623 14.2379C7.52623 14.4106 7.6412 14.6977 7.29634 14.6977C6.95207 14.6977 7.06643 14.4106 7.06643 14.2379C7.06643 12.5154 7.06643 10.8501 7.06643 9.12693ZM12.1202 9.18474C12.1202 10.8501 12.1202 12.5726 12.1202 14.2379C12.1202 14.3534 12.1202 14.4678 12.1202 14.525C12.1202 14.6393 12.0046 14.6977 11.8903 14.6977C11.7759 14.6977 11.7188 14.5822 11.7188 14.4678C11.7188 14.2379 11.6604 14.008 11.6604 13.7793C11.6604 10.5052 11.6604 7.23233 11.6604 4.01662C11.6604 3.84389 11.546 3.55681 11.8903 3.55681C12.2357 3.55681 12.1774 3.8439 12.1774 4.01662C12.1202 5.7963 12.1202 7.46161 12.1202 9.18474ZM8.67458 9.52901C8.67458 11.3671 8.67458 13.1467 8.67458 14.9848C8.67458 15.1563 8.78953 15.4446 8.44467 15.4446C8.15757 15.4446 8.21537 15.1563 8.21537 14.9848C8.21537 11.3093 8.21537 7.63435 8.21537 4.01662C8.21537 3.84389 8.15759 3.61458 8.44467 3.61458C8.73177 3.61458 8.67458 3.84389 8.67458 4.07381C8.73177 5.85408 8.73177 7.69154 8.67458 9.52901ZM12.8099 8.61056C12.8099 7.05959 12.8099 5.56699 12.8099 4.01662C12.8099 3.84389 12.6944 3.61458 13.0386 3.61458C13.3841 3.61458 13.3257 3.84389 13.3257 4.07381C13.3257 7.11737 13.3257 10.2181 13.2685 13.2623C13.2685 13.3767 13.2685 13.491 13.2685 13.5482C13.2685 13.6637 13.2114 13.7793 13.0386 13.7793C12.8671 13.7793 12.8671 13.6638 12.8671 13.491C12.8671 13.1468 12.8671 12.8025 12.8671 12.5154C12.8099 11.2521 12.8099 9.93103 12.8099 8.61056ZM9.3637 9.58677C9.3637 7.74931 9.3637 5.91126 9.3637 4.0738C9.3637 3.90165 9.24874 3.61457 9.59361 3.61457C9.93788 3.61457 9.82291 3.90165 9.82291 4.0738C9.82291 7.74931 9.82291 11.367 9.82291 15.042C9.82291 15.1563 9.82291 15.2135 9.82291 15.3291C9.82291 15.5018 9.82291 15.6733 9.59361 15.6733C9.30652 15.6733 9.3637 15.5018 9.3637 15.3291C9.3637 14.8121 9.30653 14.2379 9.30653 13.7209C9.3637 12.3426 9.3637 10.965 9.3637 9.58677ZM6.37731 8.66774C6.37731 10.2181 6.37731 11.8263 6.37731 13.3766C6.37731 13.5482 6.49227 13.7793 6.20518 13.7793C5.97587 13.7793 5.97587 13.5482 5.97587 13.3766C5.97587 10.965 5.97587 8.49562 5.91809 6.08395C5.91809 5.39426 5.91809 4.64794 5.91809 3.95881C5.91809 3.7867 5.86092 3.55679 6.148 3.55679C6.43508 3.55679 6.37731 3.7867 6.37731 3.95881C6.37731 5.56699 6.37731 7.11734 6.37731 8.66774Z" fill="#FF5B00"/>
<path d="M28.2978 20.1303C27.8124 20.1303 27.4693 20.0299 27.2684 19.829C27.0843 19.6281 26.9922 19.3101 26.9922 18.8749V4.33687C26.9922 3.90165 27.0926 3.58361 27.2935 3.38273C27.4944 3.16513 27.8291 3.05632 28.2978 3.05632H30.7334C31.2188 3.05632 31.562 3.16513 31.7629 3.38273C31.9637 3.58361 32.0642 3.90165 32.0642 4.33687V16.4895H38.5422C39.0109 16.4895 39.329 16.59 39.4964 16.7908C39.6638 16.975 39.7475 17.293 39.7475 17.745V18.9C39.7475 19.3352 39.6638 19.6532 39.4964 19.8541C39.329 20.0382 39.0109 20.1303 38.5422 20.1303H28.2978Z" fill="white"/>
<path d="M42.6528 6.79753C42.0837 6.79753 41.6485 6.64688 41.3472 6.34558C41.0459 6.02753 40.8952 5.65927 40.8952 5.24079V4.63818C40.8952 4.20296 41.0459 3.83469 41.3472 3.53339C41.6485 3.21534 42.0837 3.05632 42.6528 3.05632H44.4607C45.0465 3.05632 45.4901 3.21534 45.7914 3.53339C46.0927 3.83469 46.2434 4.20296 46.2434 4.63818V5.24079C46.2434 5.65927 46.0927 6.02753 45.7914 6.34558C45.4901 6.64688 45.0465 6.79753 44.4607 6.79753H42.6528ZM42.3515 20.1303C41.8661 20.1303 41.5229 20.0299 41.3221 19.829C41.1212 19.6281 41.0208 19.3101 41.0208 18.8749V9.35863C41.0208 8.92341 41.1212 8.60537 41.3221 8.4045C41.5229 8.18689 41.8661 8.07808 42.3515 8.07808H44.762C45.2474 8.07808 45.5906 8.18689 45.7914 8.4045C46.009 8.60537 46.1178 8.92341 46.1178 9.35863V18.8749C46.1178 19.3101 46.009 19.6281 45.7914 19.829C45.5906 20.0299 45.2474 20.1303 44.762 20.1303H42.3515Z" fill="white"/>
<path d="M49.7292 20.1303C49.2438 20.1303 48.9006 20.0299 48.6997 19.829C48.4989 19.6281 48.3984 19.3101 48.3984 18.8749V8.85646C48.3984 8.55515 48.4487 8.35428 48.5491 8.25384C48.6663 8.13667 48.9006 8.07808 49.2521 8.07808H51.8383C52.0392 8.07808 52.1899 8.11156 52.2903 8.17852C52.4075 8.22874 52.4744 8.32917 52.4912 8.47982L52.6167 9.20798C53.6211 8.20363 54.8347 7.70145 56.2575 7.70145C56.8099 7.70145 57.2618 7.75167 57.6134 7.8521C57.9649 7.9358 58.2829 8.07808 58.5675 8.27895C58.7349 8.39613 58.8186 8.53004 58.8186 8.6807C58.8186 8.73091 58.8019 8.82298 58.7684 8.95689L57.9649 11.2418C57.8979 11.4761 57.7724 11.5933 57.5883 11.5933C57.5046 11.5933 57.4041 11.5598 57.287 11.4929C56.835 11.2418 56.291 11.1162 55.6549 11.1162C55.0188 11.1162 54.4915 11.292 54.073 11.6435C53.6713 11.9951 53.4704 12.4638 53.4704 13.0496V18.8749C53.4704 19.3101 53.37 19.6281 53.1691 19.829C52.985 20.0299 52.6502 20.1303 52.1648 20.1303H49.7292Z" fill="white"/>
<path d="M64.6674 20.5069C63.0939 20.5069 61.8301 20.0048 60.8759 19.0004C59.9385 17.9793 59.4699 16.5481 59.4699 14.7068C59.4699 13.3007 59.7879 12.0704 60.424 11.0158C61.0768 9.96124 61.9891 9.14939 63.1608 8.58026C64.3493 7.99439 65.7136 7.70145 67.2536 7.70145C68.5258 7.70145 69.6473 7.84373 70.6182 8.1283C71.6058 8.39613 72.5097 8.7895 73.3299 9.30842V19.3519C73.3299 19.67 73.2713 19.8792 73.1542 19.9797C73.037 20.0801 72.8026 20.1303 72.4511 20.1303H69.89C69.7059 20.1303 69.5636 20.1052 69.4632 20.055C69.3627 19.988 69.279 19.8876 69.2121 19.7537L68.8857 19.0004C68.4002 19.5193 67.8143 19.896 67.128 20.1303C66.4585 20.3814 65.6382 20.5069 64.6674 20.5069ZM66.5505 17.0921C67.2034 17.0921 67.7139 16.9331 68.0822 16.6151C68.4504 16.297 68.6346 15.8451 68.6346 15.2592V11.3422C68.3165 11.1916 67.9148 11.1162 67.4293 11.1162C66.5422 11.1162 65.8307 11.4259 65.2951 12.0453C64.7762 12.6646 64.5167 13.5351 64.5167 14.6566C64.5167 16.2803 65.1947 17.0921 66.5505 17.0921Z" fill="white"/>
<path d="M82.4485 20.5069C81.0424 20.5069 79.7117 20.3647 78.4562 20.0801C77.2008 19.7788 76.1881 19.3603 75.4181 18.8247C75.1335 18.6405 74.9912 18.448 74.9912 18.2472C74.9912 18.1132 75.0414 17.971 75.1419 17.8203L76.3722 15.8618C76.5061 15.6609 76.64 15.5605 76.7739 15.5605C76.8576 15.5605 76.9999 15.6191 77.2008 15.7363C77.8201 16.0878 78.5232 16.3724 79.3099 16.59C80.0967 16.8076 80.875 16.9164 81.6451 16.9164C82.4318 16.9164 83.0093 16.7992 83.3776 16.5649C83.7626 16.3305 83.9551 15.9539 83.9551 15.435C83.9551 14.9328 83.7458 14.5394 83.3273 14.2549C82.9256 13.9703 82.164 13.6104 81.0424 13.1752C79.3518 12.5391 78.0294 11.8277 77.0752 11.0409C76.1379 10.2374 75.6692 9.14939 75.6692 7.77678C75.6692 6.1196 76.2634 4.85579 77.4519 3.98535C78.6404 3.11491 80.2222 2.67969 82.1974 2.67969C83.5701 2.67969 84.7418 2.80523 85.7127 3.05632C86.7003 3.29067 87.5373 3.65893 88.2236 4.16111C88.5081 4.37872 88.6504 4.57959 88.6504 4.76372C88.6504 4.88089 88.6002 5.01481 88.4998 5.16546L87.2694 7.12395C87.1188 7.32482 86.9849 7.42525 86.8677 7.42525C86.784 7.42525 86.6417 7.36667 86.4408 7.24949C85.47 6.6134 84.315 6.29536 82.9758 6.29536C82.256 6.29536 81.7036 6.41253 81.3186 6.64688C80.9336 6.88123 80.7411 7.26623 80.7411 7.80189C80.7411 8.17015 80.8416 8.47145 81.0424 8.7058C81.2433 8.94015 81.5111 9.14939 81.8459 9.33352C82.1974 9.50092 82.7331 9.71853 83.4529 9.98635L83.93 10.1621C85.1687 10.6476 86.1395 11.1163 86.8426 11.5682C87.5624 12.0034 88.1064 12.5475 88.4747 13.2003C88.8429 13.8364 89.027 14.6399 89.027 15.6107C89.027 17.1005 88.4663 18.289 87.3448 19.1762C86.24 20.0634 84.6079 20.5069 82.4485 20.5069Z" fill="white"/>
<path d="M92.0017 25.2023C91.5162 25.2023 91.1731 25.1019 90.9722 24.901C90.7881 24.7001 90.696 24.3821 90.696 23.9469V9.5595C91.4493 9.02385 92.395 8.58026 93.5333 8.22874C94.6716 7.87721 95.86 7.70145 97.0987 7.70145C102.154 7.70145 104.682 9.84407 104.682 14.1293C104.682 16.0711 104.146 17.6194 103.075 18.7744C102.003 19.9294 100.488 20.5069 98.5299 20.5069C97.9776 20.5069 97.4419 20.44 96.923 20.3061C96.4208 20.1722 96.0023 19.988 95.6675 19.7537V23.9469C95.6675 24.3821 95.5671 24.7001 95.3662 24.901C95.1654 25.1019 94.8222 25.2023 94.3368 25.2023H92.0017ZM97.4503 17.1173C98.1701 17.1173 98.7057 16.8494 99.0572 16.3138C99.4255 15.7614 99.6096 15.0249 99.6096 14.1042C99.6096 13.0161 99.392 12.2545 98.9568 11.8193C98.5383 11.3673 97.8855 11.1414 96.9983 11.1414C96.4292 11.1414 95.9772 11.2167 95.6424 11.3673V15.3596C95.6424 15.9288 95.8015 16.364 96.1195 16.6653C96.4375 16.9666 96.8811 17.1173 97.4503 17.1173Z" fill="white"/>
<path d="M108.098 6.79753C107.528 6.79753 107.093 6.64688 106.792 6.34558C106.491 6.02753 106.34 5.65927 106.34 5.24079V4.63818C106.34 4.20296 106.491 3.83469 106.792 3.53339C107.093 3.21534 107.528 3.05632 108.098 3.05632H109.905C110.491 3.05632 110.935 3.21534 111.236 3.53339C111.537 3.83469 111.688 4.20296 111.688 4.63818V5.24079C111.688 5.65927 111.537 6.02753 111.236 6.34558C110.935 6.64688 110.491 6.79753 109.905 6.79753H108.098ZM107.796 20.1303C107.311 20.1303 106.968 20.0299 106.767 19.829C106.566 19.6281 106.466 19.3101 106.466 18.8749V9.35863C106.466 8.92341 106.566 8.60537 106.767 8.4045C106.968 8.18689 107.311 8.07808 107.796 8.07808H110.207C110.692 8.07808 111.035 8.18689 111.236 8.4045C111.454 8.60537 111.563 8.92341 111.563 9.35863V18.8749C111.563 19.3101 111.454 19.6281 111.236 19.829C111.035 20.0299 110.692 20.1303 110.207 20.1303H107.796Z" fill="white"/>
<path d="M115.174 20.1303C114.689 20.1303 114.345 20.0299 114.144 19.829C113.944 19.6281 113.843 19.3101 113.843 18.8749V8.85646C113.843 8.55515 113.893 8.35428 113.994 8.25384C114.111 8.13667 114.345 8.07808 114.697 8.07808H117.283C117.484 8.07808 117.635 8.11156 117.735 8.17852C117.852 8.22874 117.919 8.32917 117.936 8.47982L118.061 9.23309C118.53 8.76439 119.141 8.39613 119.894 8.1283C120.664 7.84373 121.518 7.70145 122.456 7.70145C123.811 7.70145 124.908 8.08645 125.745 8.85646C126.582 9.60972 127 10.7312 127 12.221V18.8749C127 19.3101 126.9 19.6281 126.699 19.829C126.515 20.0299 126.18 20.1303 125.695 20.1303H123.259C122.774 20.1303 122.422 20.0299 122.204 19.829C122.004 19.6281 121.903 19.3101 121.903 18.8749V12.5475C121.903 12.0453 121.794 11.6854 121.577 11.4678C121.359 11.2502 121.016 11.1414 120.547 11.1414C120.045 11.1414 119.643 11.2753 119.342 11.5431C119.057 11.8109 118.915 12.1792 118.915 12.6479V18.8749C118.915 19.3101 118.815 19.6281 118.614 19.829C118.43 20.0299 118.095 20.1303 117.61 20.1303H115.174Z" fill="white"/>
</svg>
