<svg width="176" height="34" viewBox="0 0 176 34" fill="none" xmlns="http://www.w3.org/2000/svg">
<path d="M20.1458 32.7244L14.2536 24.2134H7.75035V32.7244H0.679688V2.17219H13.9044C16.6105 2.17219 18.9528 2.6232 20.9315 3.52522C22.9392 4.42724 24.4813 5.70752 25.5579 7.36607C26.6345 9.02462 27.1728 10.9887 27.1728 13.2583C27.1728 15.5279 26.62 17.492 25.5143 19.1505C24.4377 20.78 22.8955 22.0311 20.8878 22.9041L27.7402 32.7244H20.1458ZM20.0149 13.2583C20.0149 11.5415 19.462 10.2322 18.3563 9.33014C17.2506 8.39903 15.6357 7.93347 13.5116 7.93347H7.75035V18.5831H13.5116C15.6357 18.5831 17.2506 18.1175 18.3563 17.1864C19.462 16.2553 20.0149 14.9459 20.0149 13.2583Z" fill="white"/>
<path d="M53.6813 26.9632V32.7244H30.5926V28.1416L42.377 17.0118C43.6282 15.8189 44.472 14.8004 44.9085 13.9566C45.3449 13.0837 45.5632 12.2253 45.5632 11.3815C45.5632 10.1594 45.1413 9.2283 44.2974 8.58816C43.4827 7.91892 42.2752 7.5843 40.6748 7.5843C39.3363 7.5843 38.1288 7.84618 37.0522 8.36993C35.9756 8.86458 35.0736 9.62112 34.3461 10.6395L29.1959 7.32242C30.3889 5.54749 32.0329 4.16536 34.1279 3.17605C36.2229 2.15764 38.6234 1.64844 41.3295 1.64844C43.5991 1.64844 45.5777 2.0267 47.2654 2.78323C48.9821 3.51067 50.306 4.55817 51.2372 5.92575C52.1974 7.26423 52.6775 8.85004 52.6775 10.6832C52.6775 12.3417 52.3283 13.8984 51.63 15.3533C50.9316 16.8082 49.5786 18.4667 47.5709 20.3289L40.5439 26.9632H53.6813Z" fill="white"/>
<path d="M71.744 2.17219C74.45 2.17219 76.7924 2.6232 78.771 3.52522C80.7787 4.42724 82.3209 5.70752 83.3975 7.36607C84.4741 9.02462 85.0124 10.9887 85.0124 13.2583C85.0124 15.4988 84.4741 17.4629 83.3975 19.1505C82.3209 20.8091 80.7787 22.0893 78.771 22.9914C76.7924 23.8643 74.45 24.3007 71.744 24.3007H65.5899V32.7244H58.5192V2.17219H71.744ZM71.3512 18.5395C73.4753 18.5395 75.0902 18.0885 76.1959 17.1864C77.3016 16.2553 77.8544 14.9459 77.8544 13.2583C77.8544 11.5415 77.3016 10.2322 76.1959 9.33014C75.0902 8.39903 73.4753 7.93347 71.3512 7.93347H65.5899V18.5395H71.3512Z" fill="white"/>
<path d="M112.494 16.8373C114.24 17.3901 115.608 18.3212 116.597 19.6306C117.586 20.9109 118.081 22.4967 118.081 24.388C118.081 27.065 117.034 29.1309 114.939 30.5858C112.873 32.0115 109.847 32.7244 105.86 32.7244H90.0603V2.17219H104.987C108.712 2.17219 111.563 2.88507 113.542 4.31085C115.55 5.73662 116.553 7.67159 116.553 10.1158C116.553 11.5997 116.19 12.9237 115.462 14.0876C114.764 15.2515 113.775 16.168 112.494 16.8373ZM97.0873 7.49701V14.6986H104.114C105.86 14.6986 107.184 14.3931 108.086 13.782C108.988 13.171 109.439 12.269 109.439 11.076C109.439 9.88299 108.988 8.99552 108.086 8.41357C107.184 7.80253 105.86 7.49701 104.114 7.49701H97.0873ZM105.336 27.3996C107.199 27.3996 108.595 27.0941 109.526 26.483C110.487 25.872 110.967 24.9263 110.967 23.646C110.967 21.1146 109.09 19.8488 105.336 19.8488H97.0873V27.3996H105.336Z" fill="white"/>
<path d="M147.09 27.0504V32.7244H123.434V2.17219H146.523V7.84618H130.461V14.4804H144.646V19.9798H130.461V27.0504H147.09Z" fill="white"/>
<path d="M159.045 7.93347H149.268V2.17219H175.892V7.93347H166.116V32.7244H159.045V7.93347Z" fill="white"/>
<path d="M112.497 16.8369C114.242 17.3898 115.61 18.3209 116.599 19.6303C117.589 20.9106 118.083 22.4964 118.083 24.3877C118.083 27.0647 117.036 29.1306 114.941 30.5855C112.875 32.0112 109.849 32.7241 105.862 32.7241H90.0625V2.17188H104.989C108.714 2.17188 111.565 2.88476 113.544 4.31053C115.552 5.7363 116.556 7.67128 116.556 10.1155C116.556 11.5994 116.192 12.9234 115.465 14.0872C114.766 15.2511 113.777 16.1677 112.497 16.8369ZM97.0895 7.49669V14.6983H104.117C105.862 14.6983 107.186 14.3928 108.088 13.7817C108.99 13.1707 109.441 12.2687 109.441 11.0757C109.441 9.88268 108.99 8.99521 108.088 8.41326C107.186 7.80222 105.862 7.49669 104.117 7.49669H97.0895ZM105.339 27.3993C107.201 27.3993 108.598 27.0938 109.529 26.4827C110.489 25.8717 110.969 24.926 110.969 23.6457C110.969 21.1143 109.092 19.8485 105.339 19.8485H97.0895V27.3993H105.339Z" fill="#FFA300"/>
<path d="M147.093 27.0501V32.7241H123.436V2.17188H146.525V7.84586H130.463V14.4801H144.648V19.9795H130.463V27.0501H147.093Z" fill="#FFA300"/>
<path d="M159.047 7.93315H149.27V2.17188H175.895V7.93315H166.118V32.7241H159.047V7.93315Z" fill="#FFA300"/>
<rect x="4.77344" y="5.05469" width="16.3673" height="14.6623" fill="white"/>
<path d="M7.30178 22.4773L3.27187 16.6977L11.9491 10.5963L8.69831 5.93408L21.5782 8.17704L19.2298 21.0382L15.979 16.3759L7.30178 22.4773Z" fill="#501AAB"/>
<path d="M12.4462 33.3596L17.8039 29.2945L7.50251 13.7538L1.71183 17.7662L12.4462 33.3596Z" fill="#501AAB"/>
</svg>
