<svg width="95" height="48" viewBox="0 0 95 48" fill="none" xmlns="http://www.w3.org/2000/svg">
<g id="logo">
<g id="CASINO">
<path id="Vector" d="M87.1608 26.8882C85.8144 26.8882 84.5802 26.5507 83.4582 25.8757C82.3611 25.1757 81.476 24.2631 80.8028 23.1381C80.1296 21.9881 79.793 20.7256 79.793 19.3505L79.8304 7.4627C79.8304 6.08766 80.1545 4.83763 80.8028 3.7126C81.476 2.58757 82.3736 1.68754 83.4956 1.01253C84.6176 0.337509 85.8394 0 87.1608 0C88.5073 0 89.729 0.337509 90.8261 1.01253C91.9232 1.68754 92.7958 2.58757 93.4441 3.7126C94.1173 4.83763 94.4539 6.08766 94.4539 7.4627L94.4913 19.3505C94.4913 20.7256 94.1547 21.9881 93.4815 23.1381C92.8332 24.2631 91.9481 25.1757 90.8261 25.8757C89.729 26.5507 88.5073 26.8882 87.1608 26.8882Z" fill="white"/>
<path id="Vector_2" d="M61.9831 26.5138C61.7836 26.5138 61.6839 26.4263 61.6839 26.2513L61.6465 0.713094C61.6465 0.513089 61.7462 0.413086 61.9457 0.413086H65.3117L71.6324 15.1885L71.4454 0.713094C71.4454 0.513089 71.5576 0.413086 71.782 0.413086H75.4846C75.6342 0.413086 75.709 0.513089 75.709 0.713094L75.7464 26.2888C75.7464 26.4388 75.6841 26.5138 75.5594 26.5138H72.2682L65.7979 12.7134L66.0597 26.2138C66.0597 26.4138 65.9475 26.5138 65.7231 26.5138H61.9831Z" fill="white"/>
<path id="Vector_3" d="M52.7339 26.5138C52.6092 26.5138 52.5469 26.4513 52.5469 26.3263L52.5843 0.56309C52.5843 0.463087 52.6341 0.413086 52.7339 0.413086H56.9227C57.0224 0.413086 57.0723 0.463087 57.0723 0.56309L57.1097 26.3263C57.1097 26.4513 57.0598 26.5138 56.9601 26.5138H52.7339Z" fill="white"/>
<path id="Vector_4" d="M41.3676 26.8878C40.0212 26.8878 38.787 26.5503 37.6649 25.8753C36.5679 25.1753 35.6827 24.2627 35.0095 23.1377C34.3612 21.9877 34.0371 20.7252 34.0371 19.3501V17.6251C34.0371 17.5001 34.0994 17.4376 34.2241 17.4376H38.4129C38.5127 17.4376 38.5625 17.5001 38.5625 17.6251V19.3501C38.5625 20.1751 38.8368 20.8877 39.3854 21.4877C39.9339 22.0627 40.5946 22.3502 41.3676 22.3502C42.1405 22.3502 42.8013 22.0502 43.3498 21.4502C43.8983 20.8502 44.1726 20.1501 44.1726 19.3501C44.1726 18.4251 43.5742 17.6251 42.3774 16.9501C41.9784 16.7251 41.3551 16.375 40.5074 15.9C39.6596 15.425 38.8618 14.975 38.1137 14.55C36.7424 13.75 35.7201 12.7499 35.0469 11.5499C34.3986 10.3249 34.0745 8.94985 34.0745 7.42481C34.0745 6.02477 34.4111 4.77473 35.0843 3.67471C35.7575 2.54968 36.6427 1.66215 37.7397 1.01214C38.8618 0.362118 40.071 0.0371094 41.3676 0.0371094C42.6891 0.0371094 43.8983 0.374618 44.9954 1.04964C46.1174 1.69965 47.0026 2.58718 47.6508 3.71221C48.324 4.81224 48.6606 6.04977 48.6606 7.42481V10.4999C48.6606 10.5999 48.6108 10.6499 48.511 10.6499H44.3222C44.2225 10.6499 44.1726 10.5999 44.1726 10.4999L44.1352 7.42481C44.1352 6.54978 43.8609 5.83726 43.3124 5.28725C42.7639 4.73723 42.1156 4.46223 41.3676 4.46223C40.5946 4.46223 39.9339 4.76224 39.3854 5.36225C38.8368 5.93727 38.5625 6.62478 38.5625 7.42481C38.5625 8.24983 38.7371 8.93734 39.0862 9.48736C39.4352 10.0374 40.071 10.5624 40.9936 11.0624C41.1182 11.1374 41.3551 11.2749 41.7042 11.4749C42.0782 11.6499 42.4771 11.8624 42.901 12.1124C43.3249 12.3374 43.6989 12.5374 44.023 12.7124C44.3721 12.8874 44.584 13 44.6588 13.05C45.9055 13.75 46.8904 14.6125 47.6134 15.6375C48.3365 16.6375 48.698 17.8751 48.698 19.3501C48.698 20.7752 48.3614 22.0627 47.6882 23.2127C47.04 24.3378 46.1548 25.2378 45.0328 25.9128C43.9357 26.5628 42.714 26.8878 41.3676 26.8878Z" fill="white"/>
<path id="Vector_5" d="M7.33047 26.8882C5.95912 26.8882 4.71244 26.5507 3.59043 25.8757C2.49336 25.1757 1.62068 24.2506 0.972409 23.1006C0.324136 21.9506 0 20.6631 0 19.238L0.0374003 7.5377C0.0374003 6.16266 0.34907 4.91263 0.972409 3.7876C1.62068 2.63757 2.49336 1.72505 3.59043 1.05003C4.71244 0.350009 5.95912 0 7.33047 0C8.70181 0 9.93602 0.337509 11.0331 1.01253C12.1302 1.68754 13.0029 2.60007 13.6511 3.7501C14.2994 4.87513 14.6235 6.13766 14.6235 7.5377V9.26275C14.6235 9.36275 14.5737 9.41275 14.4739 9.41275H10.2851C10.1854 9.41275 10.1355 9.36275 10.1355 9.26275V7.5377C10.1355 6.71268 9.86122 6.00016 9.31268 5.40014C8.78908 4.80013 8.12834 4.50012 7.33047 4.50012C6.43286 4.50012 5.74719 4.81263 5.27345 5.43764C4.79971 6.03766 4.56284 6.73768 4.56284 7.5377V19.238C4.56284 20.163 4.82464 20.9131 5.34825 21.4881C5.89679 22.0631 6.55753 22.3506 7.33047 22.3506C8.12834 22.3506 8.78908 22.0381 9.31268 21.4131C9.86122 20.7631 10.1355 20.038 10.1355 19.238V17.513C10.1355 17.413 10.1854 17.363 10.2851 17.363H14.5113C14.6111 17.363 14.6609 17.413 14.6609 17.513V19.238C14.6609 20.6631 14.3243 21.9506 13.6511 23.1006C13.0029 24.2506 12.1302 25.1757 11.0331 25.8757C9.93602 26.5507 8.70181 26.8882 7.33047 26.8882Z" fill="white"/>
</g>
<g id="CABOURG">
<path id="Vector_6" d="M79.6816 48.0003C78.9186 48.0003 78.2263 47.8091 77.6046 47.4266C76.9829 47.044 76.4813 46.534 76.0999 45.8965C75.7325 45.2448 75.5488 44.5223 75.5488 43.729V36.9925C75.5488 36.2275 75.7325 35.5262 76.0999 34.8887C76.4813 34.237 76.9829 33.7199 77.6046 33.3374C78.2404 32.9549 78.9327 32.7637 79.6816 32.7637C80.4587 32.7637 81.158 32.9549 81.7797 33.3374C82.4155 33.7058 82.9171 34.2087 83.2845 34.8462C83.6518 35.4837 83.8355 36.1992 83.8355 36.9925V37.9701C83.8355 38.0267 83.8002 38.0551 83.7295 38.0551H81.3559C81.2993 38.0551 81.2711 38.0267 81.2711 37.9701V37.1625C81.2711 36.6242 81.1157 36.1779 80.8048 35.8238C80.5081 35.4696 80.1337 35.2925 79.6816 35.2925C79.2718 35.2925 78.9045 35.4625 78.5795 35.8025C78.2687 36.1425 78.1132 36.5392 78.1132 36.9925V43.729C78.1132 44.1965 78.2687 44.6002 78.5795 44.9402C78.8903 45.2661 79.2577 45.429 79.6816 45.429C80.1337 45.429 80.5081 45.2661 80.8048 44.9402C81.1157 44.6144 81.2711 44.2106 81.2711 43.729V42.6877H79.7875C79.7169 42.6877 79.6816 42.6523 79.6816 42.5814V40.2014C79.6816 40.1305 79.7169 40.0951 79.7875 40.0951H83.7507C83.8072 40.0951 83.8355 40.1305 83.8355 40.2014V43.729C83.8355 44.5223 83.6448 45.2448 83.2633 45.8965C82.8959 46.534 82.4014 47.044 81.7797 47.4266C81.158 47.8091 80.4587 48.0003 79.6816 48.0003Z" fill="white"/>
<path id="Vector_7" d="M64.5203 47.7875C64.4638 47.7875 64.4355 47.752 64.4355 47.6812L64.4779 33.0821C64.4779 33.0254 64.5062 32.9971 64.5627 32.9971H68.8438C69.6068 32.9971 70.3062 33.1883 70.942 33.5708C71.5919 33.9392 72.1076 34.4421 72.4891 35.0796C72.8706 35.703 73.0613 36.4113 73.0613 37.2047C73.0613 37.7289 72.9836 38.2035 72.8282 38.6285C72.6728 39.0393 72.4891 39.3935 72.2772 39.691C72.0652 39.9743 71.8745 40.1868 71.7049 40.3285C72.4679 41.1785 72.8494 42.1773 72.8494 43.3248L72.8706 47.6812C72.8706 47.752 72.8352 47.7875 72.7646 47.7875H70.3697C70.3132 47.7875 70.285 47.7662 70.285 47.7237V43.3248C70.285 42.8148 70.1013 42.3757 69.7339 42.0073C69.3807 41.6248 68.9427 41.4335 68.4199 41.4335H67.0212L67 47.6812C67 47.752 66.9717 47.7875 66.9152 47.7875H64.5203ZM67.0212 38.8835H68.8438C69.2818 38.8835 69.6703 38.7206 70.0094 38.3947C70.3485 38.0689 70.5181 37.6722 70.5181 37.2047C70.5181 36.7513 70.3485 36.3617 70.0094 36.0359C69.6845 35.7101 69.2959 35.5471 68.8438 35.5471H67.0212V38.8835Z" fill="white"/>
<path id="Vector_8" d="M57.3395 48C56.5906 48 55.8983 47.8087 55.2625 47.4262C54.6267 47.0295 54.1181 46.5053 53.7366 45.8537C53.3692 45.202 53.1855 44.4865 53.1855 43.7074L53.2279 33.0821C53.2279 33.0254 53.2562 32.9971 53.3127 32.9971H55.6864C55.7429 32.9971 55.7712 33.0254 55.7712 33.0821V43.7074C55.7712 44.189 55.9195 44.5999 56.2162 44.9399C56.5271 45.2657 56.9015 45.4287 57.3395 45.4287C57.7916 45.4287 58.166 45.2657 58.4627 44.9399C58.7736 44.5999 58.929 44.189 58.929 43.7074V33.0821C58.929 33.0254 58.9572 32.9971 59.0138 32.9971H61.3874C61.444 32.9971 61.4722 33.0254 61.4722 33.0821L61.5146 43.7074C61.5146 44.5007 61.3239 45.2232 60.9424 45.8749C60.575 46.5266 60.0734 47.0437 59.4376 47.4262C58.816 47.8087 58.1166 48 57.3395 48Z" fill="white"/>
<path id="Vector_9" d="M46.304 48.0003C45.5411 48.0003 44.8417 47.8091 44.2059 47.4266C43.5842 47.0299 43.0826 46.5128 42.7011 45.8753C42.3196 45.2236 42.1289 44.5081 42.1289 43.729L42.1501 36.9925C42.1501 36.2133 42.3338 35.505 42.7011 34.8675C43.0826 34.23 43.5913 33.7199 44.2271 33.3374C44.8629 32.9549 45.5552 32.7637 46.304 32.7637C47.067 32.7637 47.7593 32.9549 48.381 33.3374C49.0027 33.7199 49.4972 34.23 49.8645 34.8675C50.246 35.505 50.4368 36.2133 50.4368 36.9925L50.458 43.729C50.458 44.5081 50.2672 45.2236 49.8857 45.8753C49.5184 46.5128 49.0168 47.0299 48.381 47.4266C47.7593 47.8091 47.067 48.0003 46.304 48.0003ZM46.304 45.429C46.7279 45.429 47.0953 45.259 47.4061 44.919C47.7311 44.5648 47.8935 44.1681 47.8935 43.729L47.8724 36.9925C47.8724 36.525 47.724 36.1283 47.4273 35.8025C47.1306 35.4767 46.7562 35.3137 46.304 35.3137C45.866 35.3137 45.4916 35.4767 45.1808 35.8025C44.8699 36.1142 44.7145 36.5109 44.7145 36.9925V43.729C44.7145 44.1965 44.8699 44.6002 45.1808 44.9402C45.4916 45.2661 45.866 45.429 46.304 45.429Z" fill="white"/>
<path id="Vector_10" d="M31.3914 47.7875C31.3349 47.7875 31.3066 47.752 31.3066 47.6812L31.349 33.0821C31.349 33.0254 31.3773 32.9971 31.4338 32.9971H35.503C36.3083 32.9971 37.0289 33.1954 37.6647 33.5921C38.3005 33.9746 38.8021 34.4846 39.1694 35.1221C39.5368 35.7596 39.7205 36.4538 39.7205 37.2047C39.7205 37.8139 39.5792 38.3805 39.2966 38.9047C39.0281 39.4289 38.7032 39.8539 38.3217 40.1798C38.7314 40.5906 39.0493 41.0652 39.2754 41.6035C39.5015 42.1419 39.6145 42.7086 39.6145 43.3036C39.6145 44.1253 39.4167 44.8761 39.0211 45.5562C38.6255 46.2362 38.0886 46.7816 37.4104 47.1924C36.7463 47.5891 36.0045 47.7875 35.1851 47.7875H31.3914ZM33.8922 38.8622H35.503C35.9975 38.8622 36.3931 38.6922 36.6898 38.3522C37.0006 37.998 37.1561 37.6155 37.1561 37.2047C37.1561 36.7513 36.9936 36.3617 36.6686 36.0359C36.3436 35.6959 35.9551 35.5259 35.503 35.5259H33.8922V38.8622ZM33.8711 45.1949H35.1851C35.6937 45.1949 36.1317 45.0107 36.4991 44.6424C36.8664 44.2599 37.0501 43.8136 37.0501 43.3036C37.0501 42.7936 36.8664 42.3544 36.4991 41.9861C36.1317 41.6177 35.6937 41.4335 35.1851 41.4335H33.8922L33.8711 45.1949Z" fill="white"/>
<path id="Vector_11" d="M20.2949 47.6812L22.9229 33.0821C22.937 33.0254 22.9724 32.9971 23.0289 32.9971H26.1019C26.1585 32.9971 26.1938 33.0254 26.2079 33.0821L28.7299 47.6812C28.7441 47.752 28.7158 47.7875 28.6452 47.7875H26.2927C26.2362 47.7875 26.2009 47.752 26.1867 47.6812L25.9536 46.1299H23.0713L22.8381 47.6812C22.824 47.752 22.7887 47.7875 22.7322 47.7875H20.3797C20.3232 47.7875 20.2949 47.752 20.2949 47.6812ZM23.4951 43.8561H25.5297L24.6608 37.8847L24.5336 37.0984L24.4489 37.8847L23.4951 43.8561Z" fill="white"/>
<path id="Vector_12" d="M14.1266 48.0003C13.3495 48.0003 12.643 47.8091 12.0072 47.4266C11.3856 47.0299 10.891 46.5057 10.5237 45.854C10.1563 45.2023 9.97266 44.4727 9.97266 43.6652L9.99385 37.035C9.99385 36.2558 10.1705 35.5475 10.5237 34.91C10.891 34.2583 11.3856 33.7412 12.0072 33.3587C12.643 32.962 13.3495 32.7637 14.1266 32.7637C14.9037 32.7637 15.6031 32.9549 16.2247 33.3374C16.8464 33.7199 17.3409 34.237 17.7083 34.8887C18.0756 35.5262 18.2593 36.2417 18.2593 37.035V38.0126C18.2593 38.0692 18.2311 38.0976 18.1746 38.0976H15.8009C15.7444 38.0976 15.7161 38.0692 15.7161 38.0126V37.035C15.7161 36.5675 15.5607 36.1638 15.2498 35.8238C14.9531 35.4837 14.5787 35.3137 14.1266 35.3137C13.6179 35.3137 13.2294 35.4908 12.9609 35.845C12.6925 36.185 12.5583 36.5817 12.5583 37.035V43.6652C12.5583 44.1894 12.7066 44.6144 13.0033 44.9402C13.3142 45.2661 13.6886 45.429 14.1266 45.429C14.5787 45.429 14.9531 45.2519 15.2498 44.8977C15.5607 44.5294 15.7161 44.1186 15.7161 43.6652V42.6877C15.7161 42.631 15.7444 42.6027 15.8009 42.6027H18.1957C18.2523 42.6027 18.2805 42.631 18.2805 42.6877V43.6652C18.2805 44.4727 18.0898 45.2023 17.7083 45.854C17.3409 46.5057 16.8464 47.0299 16.2247 47.4266C15.6031 47.8091 14.9037 48.0003 14.1266 48.0003Z" fill="white"/>
</g>
<g id="Group 566">
<g id="Group 565">
<path id="p" d="M91.4731 8.5027C91.4731 7.49897 91.1487 6.72393 90.5 6.17759C90.0206 5.77383 89.3193 5.5834 88.7001 5.49146C87.404 5.29904 88.6781 5.58325 89.7379 6.39297C90.3954 6.89535 90.5203 7.46408 90.5203 8.52176V11.7807C90.5203 12.5049 90.2162 13.5633 89.7297 13.9572C89.4319 14.2051 89.1338 14.3705 88.8442 14.4719C89.2582 14.5114 90.0393 14.5219 90.5 14.1249C91.1487 13.5659 91.4731 12.7972 91.4731 11.8188V8.5027Z" fill="#CD2C25"/>
<path id="p_2" d="M87.2158 6.21509C86.5153 6.8574 86.165 7.76112 86.165 8.92626V21.6531C86.165 21.9369 85.8817 22.641 86.1649 22.641C86.4881 22.3578 87.2158 22.055 87.2158 21.6531V8.94866C87.2158 8.33855 87.2985 6.45295 87.8504 5.73535C87.6275 5.87112 87.4144 6.03259 87.2158 6.21509Z" fill="#CD2C25"/>
<path id="p_3" d="M85.706 6.21509C85.0055 6.8574 84.6552 7.76112 84.6552 8.92626V21.6531C84.6552 21.9369 84.3719 22.641 84.6551 22.641C84.9783 22.3578 85.706 22.055 85.706 21.6531V8.94866C85.706 8.33855 85.7888 6.45295 86.3406 5.73535C86.1177 5.87112 85.9047 6.03259 85.706 6.21509Z" fill="#CD2C25"/>
<path id="p_4" d="M84.1963 6.21509C83.4957 6.8574 83.1455 7.76112 83.1455 8.92626V21.6531C83.1455 21.9369 82.8622 22.641 83.1454 22.641C83.4686 22.3578 84.1963 22.055 84.1963 21.6531V8.94866C84.1963 8.33855 84.279 6.45295 84.8309 5.73535C84.6079 5.87112 84.3949 6.03259 84.1963 6.21509Z" fill="#CD2C25"/>
</g>
</g>
<g id="Subtract">
<path d="M25.7626 16.8966H23.728L24.6817 10.9252L24.7665 10.139L24.8937 10.9252L25.7626 16.8966Z" fill="white"/>
<path fill-rule="evenodd" clip-rule="evenodd" d="M21.8447 0.451762L17.207 26.2149C17.207 26.3399 17.2569 26.4024 17.3566 26.4024H21.5081C21.6078 26.4024 21.6701 26.3399 21.6951 26.2149L22.1065 23.4774H27.1929L27.6043 26.2149C27.6293 26.3399 27.6916 26.4024 27.7913 26.4024H31.9428C32.0674 26.4024 32.1173 26.3399 32.0924 26.2149L27.6417 0.451762C27.6168 0.351759 27.5545 0.301758 27.4547 0.301758H22.0317C21.9319 0.301758 21.8696 0.351759 21.8447 0.451762ZM23.1558 6.12261L20.5278 20.7217C20.5278 20.7926 20.556 20.828 20.6126 20.828H22.965C23.0216 20.828 23.0569 20.7926 23.071 20.7217L23.3041 19.1705H26.1865L26.4196 20.7217C26.4337 20.7926 26.469 20.828 26.5256 20.828H28.878C28.9487 20.828 28.9769 20.7926 28.9628 20.7217L26.4408 6.12261C26.4266 6.06594 26.3913 6.03761 26.3348 6.03761H23.2618C23.2052 6.03761 23.1699 6.06594 23.1558 6.12261Z" fill="white"/>
</g>
</g>
</svg>
