<svg width="121" height="16" viewBox="0 0 121 16" fill="none" xmlns="http://www.w3.org/2000/svg">
<path d="M3.99908 3.74499H0L0.590997 0.908203H11.8002L11.2092 3.74499H7.22987L4.84618 14.8951H1.61539L3.99908 3.74499Z" fill="#FFC500"/>
<path d="M10.4351 14.8951L13.4098 0.908203H19.4183C20.1537 0.908203 20.7776 1.09864 21.2898 1.4795C21.8151 1.86037 22.2091 2.35286 22.4717 2.95699C22.7475 3.54799 22.8854 4.17839 22.8854 4.84818C22.8854 5.33412 22.8132 5.81348 22.6687 6.28628C22.5243 6.75908 22.3141 7.21217 22.0384 7.64557C21.7626 8.07897 21.4342 8.47297 21.0534 8.82757C20.6856 9.16903 20.2785 9.45796 19.832 9.69436L21.6247 14.8951H17.9802L16.4436 10.3839H14.6115L13.6659 14.8951H10.4351ZM17.9014 7.56677C18.0852 7.56677 18.2757 7.50767 18.4727 7.38947C18.6697 7.25814 18.847 7.08741 19.0046 6.87728C19.1753 6.65401 19.3066 6.39791 19.3986 6.10898C19.5036 5.82005 19.5562 5.51142 19.5562 5.18308C19.5562 4.89415 19.5102 4.64462 19.4183 4.43449C19.3395 4.21122 19.2278 4.04049 19.0834 3.92229C18.9389 3.80409 18.7813 3.74499 18.6106 3.74499H16.0299L15.2222 7.56677H17.9014Z" fill="#FFC500"/>
<path d="M26.1647 0.908203H29.3955L26.4208 14.8951H23.19L26.1647 0.908203Z" fill="#FFC500"/>
<path d="M46.9825 0.908878H49.5041L53.7002 9.12374L55.4338 0.908878H58.6645L55.6899 14.8958H53.1289L48.9328 6.89765L47.2386 14.8958H44.0078L46.9825 0.908878Z" fill="#FFC500"/>
<path d="M61.3342 0.908878H70.3567L69.7657 3.74566H63.9543L63.3239 6.75975H68.0913L67.5397 9.37984H62.7526L61.5903 14.8958H58.3595L61.3342 0.908878Z" fill="#FFC500"/>
<path d="M74.926 15.014C74.0724 15.014 73.3172 14.8564 72.6606 14.5412C72.0039 14.2129 71.4523 13.7795 71.0058 13.241C70.5592 12.6894 70.2178 12.0656 69.9814 11.3695C69.7581 10.6603 69.6465 9.92487 69.6465 9.16314C69.6465 8.32261 69.7909 7.49521 70.0799 6.68095C70.3688 5.86669 70.7759 5.10496 71.3013 4.39576C71.8266 3.68657 72.4373 3.0693 73.1334 2.54397C73.8426 2.00551 74.6108 1.58524 75.4382 1.28318C76.2656 0.981111 77.1193 0.830078 77.9992 0.830078C78.8398 0.830078 79.5884 0.994244 80.245 1.32258C80.9017 1.63777 81.4533 2.07117 81.8998 2.62277C82.3463 3.17437 82.6812 3.7982 82.9045 4.49426C83.1278 5.19032 83.2394 5.91922 83.2394 6.68095C83.2394 7.52148 83.0949 8.34888 82.806 9.16314C82.5171 9.96427 82.1099 10.7194 81.5846 11.4286C81.0593 12.1247 80.4486 12.742 79.7525 13.2804C79.0565 13.8189 78.2947 14.2457 77.4673 14.5609C76.6531 14.863 75.806 15.014 74.926 15.014ZM75.5564 12.1378C76.2394 12.1378 76.8501 11.9802 77.3885 11.665C77.927 11.3367 78.3867 10.9164 78.7675 10.4042C79.1484 9.8789 79.4373 9.31417 79.6343 8.71004C79.8313 8.09278 79.9298 7.48865 79.9298 6.89765C79.9298 6.33292 79.8379 5.80759 79.654 5.32166C79.4702 4.83573 79.1878 4.4483 78.8069 4.15936C78.4261 3.8573 77.9336 3.70627 77.3294 3.70627C76.6596 3.70627 76.0555 3.86386 75.517 4.17906C74.9786 4.49426 74.5189 4.90796 74.1381 5.42016C73.7572 5.93235 73.4617 6.49709 73.2516 7.11435C73.0546 7.71848 72.9561 8.31604 72.9561 8.90704C72.9561 9.48491 73.048 10.0168 73.2319 10.5027C73.4157 10.9887 73.6981 11.3827 74.079 11.6847C74.4729 11.9868 74.9654 12.1378 75.5564 12.1378Z" fill="#FFC500"/>
<path d="M86.4977 0.908878H93.964C94.4893 0.908878 94.9227 1.04678 95.2642 1.32258C95.6188 1.59837 95.8815 1.95297 96.0522 2.38637C96.2361 2.81977 96.328 3.286 96.328 3.78506C96.328 4.3104 96.2229 4.83573 96.0128 5.36106C95.8027 5.87325 95.494 6.33949 95.0869 6.75975C94.6929 7.16688 94.207 7.48865 93.6291 7.72505C94.207 7.90891 94.6535 8.24381 94.9687 8.72974C95.297 9.20254 95.4612 9.78697 95.4612 10.483C95.4612 11.2316 95.3102 11.8817 95.0081 12.4333C94.7192 12.9849 94.3186 13.4446 93.8064 13.8123C93.2942 14.1669 92.7098 14.4361 92.0531 14.62C91.3965 14.8039 90.7135 14.8958 90.0043 14.8958H83.5231L86.4977 0.908878ZM90.5953 12.1575C90.8055 12.1575 91.009 12.1116 91.206 12.0196C91.4162 11.9277 91.5935 11.8029 91.7379 11.6453C91.8955 11.4746 92.0203 11.271 92.1122 11.0346C92.2173 10.7982 92.2698 10.5487 92.2698 10.286C92.2698 10.0628 92.2304 9.86577 92.1516 9.69504C92.0728 9.51117 91.9678 9.3667 91.8364 9.26164C91.7051 9.15657 91.5475 9.10404 91.3636 9.10404H87.9752L87.3448 12.1575H90.5953ZM91.3833 6.56275C91.5672 6.56275 91.7511 6.52335 91.9349 6.44455C92.1188 6.36575 92.2895 6.25412 92.4471 6.10965C92.6047 5.95205 92.7295 5.76162 92.8214 5.53836C92.9133 5.31509 92.9593 5.04586 92.9593 4.73066C92.9593 4.38919 92.8805 4.12653 92.7229 3.94266C92.5653 3.7588 92.3617 3.66686 92.1122 3.66686H89.1375L88.5268 6.56275H91.3833Z" fill="#FFC500"/>
<path d="M99.522 0.908878H108.722L108.111 3.74566H102.142L101.571 6.46425H106.693L106.141 9.08434H101.019L100.369 12.059H106.515L105.924 14.8958H96.5473L99.522 0.908878Z" fill="#FFC500"/>
<path d="M113.197 3.74566H109.198L109.789 0.908878H120.998L120.407 3.74566H116.428L114.044 14.8958H110.813L113.197 3.74566Z" fill="#FFC500"/>
<path d="M37.0127 10.4196C37.0127 9.33145 37.3344 8.86552 37.4209 8.75977H36.7886H36.1562C36.2428 8.86552 36.5645 9.33145 36.5645 10.4196C36.5645 11.4356 36.403 11.7919 36.233 12.0281L36.7886 12.3846L37.3441 12.0082C37.1741 11.7721 37.0127 11.4356 37.0127 10.4196Z" fill="url(#paint0_radial_3090_24915)"/>
<path d="M39.4701 13.8585L37.673 12.6816H35.9026L34.1055 13.8585C34.1055 13.8585 34.9289 14.7542 36.7878 14.7542C38.6468 14.7542 39.4701 13.8585 39.4701 13.8585Z" fill="url(#paint1_linear_3090_24915)"/>
<path d="M37.4196 12.6328L38.9441 13.9294C38.9441 13.9294 39.2228 14.2202 38.7745 14.414C38.3261 14.6079 37.5143 14.8139 37.5143 14.8139C37.5143 14.8139 38.4739 14.4494 38.1145 13.9172C37.6724 13.2627 37.1992 12.6813 37.1992 12.6813L37.4196 12.6328Z" fill="url(#paint2_linear_3090_24915)"/>
<path d="M37.2558 14.7792L36.2266 14.875L36.6204 12.5254H37.2558V14.7792Z" fill="url(#paint3_linear_3090_24915)"/>
<path d="M36.2678 12.6328L34.1836 14.099L35.9648 15.0684L36.4374 12.6692L36.2678 12.6328Z" fill="url(#paint4_linear_3090_24915)"/>
<path d="M36.7878 14.753C35.1696 14.753 34.3658 14.0849 34.1055 13.8594V14.4941C34.3658 14.7196 35.1696 15.3878 36.7878 15.3878C38.3538 15.3878 39.2043 14.7447 39.4702 14.4941V13.8594C39.2043 14.1099 38.3538 14.753 36.7878 14.753Z" fill="url(#paint5_linear_3090_24915)"/>
<path d="M39.0977 6.60251V6.06799C40.3876 6.06799 41.5569 3.45015 41.9921 2.18705L41.0695 1.77075C40.5351 2.64905 39.6925 2.67639 39.6541 2.67712L39.6436 2.1427L39.6488 2.40996L39.6413 2.1428C39.6696 2.14178 40.339 2.10746 40.7095 1.3117L40.8209 1.07227L42.6477 1.89657L42.5763 2.12288C42.5623 2.16766 42.224 3.23213 41.6469 4.31468C40.8376 5.83273 39.9799 6.60251 39.0977 6.60251Z" fill="url(#paint6_radial_3090_24915)"/>
<path d="M40.6692 1.00586L40.5578 1.2453C40.4054 1.57265 40.1583 1.78335 39.918 1.89846V2.07988L39.929 2.07678C39.929 2.07678 40.4693 1.89546 40.7123 1.30908L40.8226 1.07202L40.6692 1.00586Z" fill="url(#paint7_radial_3090_24915)"/>
<path d="M39.4961 5.98701C40.6225 5.53552 41.6007 3.31875 41.9904 2.18778L41.0677 1.77148C41.0346 1.82587 41.0004 1.87695 40.9652 1.92499L41.7803 2.29277C41.4151 3.35288 40.5328 5.3668 39.4961 5.98701Z" fill="url(#paint8_radial_3090_24915)"/>
<path d="M34.4797 6.60251V6.06799C33.1898 6.06799 32.0205 3.45015 31.5853 2.18705L32.5079 1.77075C33.0423 2.64905 33.8849 2.67639 33.9233 2.67712L33.9338 2.1427L33.9285 2.40996L33.9361 2.1428C33.9078 2.14178 33.2384 2.10746 32.8679 1.3117L32.7565 1.07227L30.9297 1.89653L31.001 2.12283C31.0151 2.16761 31.3534 3.23208 31.9304 4.31463C32.7398 5.83273 33.5974 6.60251 34.4797 6.60251Z" fill="url(#paint9_radial_3090_24915)"/>
<path d="M32.9073 1.00586L33.0187 1.2453C33.1711 1.57265 33.4182 1.78335 33.6585 1.89846V2.07988L33.6475 2.07678C33.6475 2.07678 33.1072 1.89546 32.8642 1.30908L32.7539 1.07202L32.9073 1.00586Z" fill="url(#paint10_radial_3090_24915)"/>
<path d="M34.0802 5.98701C32.9539 5.53552 31.9756 3.31875 31.5859 2.18778L32.5086 1.77148C32.5417 1.82587 32.576 1.87695 32.6111 1.92499L31.796 2.29277C32.1612 3.35288 33.0435 5.3668 34.0802 5.98701Z" fill="url(#paint11_radial_3090_24915)"/>
<path d="M36.1229 8.38603H37.4524C38.3922 7.79975 39.6858 6.83086 39.6858 5.51406L40.1339 0.929492C40.1339 0.929492 38.1051 0.613281 36.7876 0.613281C35.4702 0.613281 33.4414 0.929492 33.4414 0.929492L33.8895 5.51406C33.8895 6.83086 35.1831 7.79975 36.1229 8.38603Z" fill="url(#paint12_radial_3090_24915)"/>
<path d="M34.5307 5.62852C34.5307 6.83026 35.5514 7.75713 36.4689 8.38616H36.6913C36.3059 7.82469 35.4874 6.495 35.4874 5.32608L35.0361 0.722656C34.6742 0.760317 34.3356 0.802145 34.0625 0.838206L34.5307 5.62852Z" fill="url(#paint13_radial_3090_24915)"/>
<path d="M39.0004 5.62852C39.0004 6.83026 37.9798 7.75713 37.0623 8.38616H36.8398C37.2253 7.82469 38.0438 6.495 38.0438 5.32608L38.4951 0.722656C38.8569 0.760317 39.1955 0.802145 39.4686 0.838206L39.0004 5.62852Z" fill="url(#paint14_radial_3090_24915)"/>
<path opacity="0.5" d="M36.0171 15.3337L36.035 14.7019C35.1801 14.5757 34.6175 14.2546 34.314 14.0295L34.3086 14.0273V14.6602C34.611 14.8855 35.1572 15.2067 36.0171 15.3337Z" fill="#BE720D"/>
<path opacity="0.5" d="M37.8438 14.6478V15.2807C38.3565 15.171 38.7468 14.9932 39.0252 14.8256V14.1934L39.0136 14.1978C38.7381 14.3621 38.3552 14.535 37.8551 14.6434L37.8438 14.6478Z" fill="#BE720D"/>
<path opacity="0.5" d="M36.2539 15.3613C36.4218 15.3778 36.6 15.3873 36.7898 15.3873C36.953 15.3873 37.1078 15.38 37.2556 15.3672V14.7325C37.1079 14.7453 36.953 14.7526 36.7898 14.7526C36.6 14.7526 36.4218 14.7431 36.2539 14.7266V15.3613Z" fill="#EA7312"/>
<path d="M37.5951 8.65136C37.5951 8.73487 37.5274 8.80253 37.4439 8.80253H36.1316C36.0481 8.80253 35.9805 8.73487 35.9805 8.65136V8.53784C35.9805 8.45443 36.0481 8.38672 36.1316 8.38672H37.4439C37.5274 8.38672 37.5951 8.45448 37.5951 8.53784V8.65136Z" fill="url(#paint15_linear_3090_24915)"/>
<path d="M36.2328 12.0277L35.9023 12.6835C36.4758 12.8854 37.1024 12.8917 37.6735 12.6813L37.3439 12.0078C36.9224 12.2701 36.6115 12.2526 36.2328 12.0277Z" fill="url(#paint16_radial_3090_24915)"/>
<defs>
<radialGradient id="paint0_radial_3090_24915" cx="0" cy="0" r="1" gradientUnits="userSpaceOnUse" gradientTransform="translate(37.479 10.5053) scale(2.08358)">
<stop stop-color="#FFF69C"/>
<stop offset="0.5091" stop-color="#F6B63E"/>
<stop offset="1" stop-color="#C46400"/>
</radialGradient>
<linearGradient id="paint1_linear_3090_24915" x1="34.1054" y1="13.7179" x2="39.4701" y2="13.7179" gradientUnits="userSpaceOnUse">
<stop stop-color="#C46400"/>
<stop offset="0.3091" stop-color="#F6B63E"/>
<stop offset="0.5515" stop-color="#FFF69C"/>
<stop offset="0.7939" stop-color="#F6B63E"/>
<stop offset="1" stop-color="#C46400"/>
</linearGradient>
<linearGradient id="paint2_linear_3090_24915" x1="38.4911" y1="14.7183" x2="37.0492" y2="12.8038" gradientUnits="userSpaceOnUse">
<stop stop-color="#8D4900"/>
<stop offset="0.0418" stop-color="#985200"/>
<stop offset="0.1652" stop-color="#B56C0F"/>
<stop offset="0.2964" stop-color="#CE851F"/>
<stop offset="0.436" stop-color="#E19B2D"/>
<stop offset="0.5877" stop-color="#EEAB37"/>
<stop offset="0.7603" stop-color="#F5B43D"/>
<stop offset="1" stop-color="#F6B63E"/>
</linearGradient>
<linearGradient id="paint3_linear_3090_24915" x1="36.7412" y1="14.6917" x2="36.7412" y2="12.5793" gradientUnits="userSpaceOnUse">
<stop stop-color="#D76D00"/>
<stop offset="0.1348" stop-color="#DF7E06"/>
<stop offset="0.3533" stop-color="#EA9623"/>
<stop offset="0.5717" stop-color="#F1A833"/>
<stop offset="0.7881" stop-color="#F5B33C"/>
<stop offset="1" stop-color="#F6B63E"/>
</linearGradient>
<linearGradient id="paint4_linear_3090_24915" x1="35.0972" y1="14.5047" x2="35.6627" y2="12.5659" gradientUnits="userSpaceOnUse">
<stop stop-color="#8D4900"/>
<stop offset="0.0418" stop-color="#985200"/>
<stop offset="0.1652" stop-color="#B56C0F"/>
<stop offset="0.2964" stop-color="#CE851F"/>
<stop offset="0.436" stop-color="#E19B2D"/>
<stop offset="0.5877" stop-color="#EEAB37"/>
<stop offset="0.7603" stop-color="#F5B43D"/>
<stop offset="1" stop-color="#F6B63E"/>
</linearGradient>
<linearGradient id="paint5_linear_3090_24915" x1="34.1055" y1="14.6236" x2="39.4702" y2="14.6236" gradientUnits="userSpaceOnUse">
<stop stop-color="#C46400"/>
<stop offset="0.3152" stop-color="#F6B63E"/>
<stop offset="0.6788" stop-color="#FFF597"/>
<stop offset="1" stop-color="#F6B63E"/>
</linearGradient>
<radialGradient id="paint6_radial_3090_24915" cx="0" cy="0" r="1" gradientUnits="userSpaceOnUse" gradientTransform="translate(40.8727 3.83736) scale(2.32344)">
<stop stop-color="#FFF69C"/>
<stop offset="0.5091" stop-color="#F6B63E"/>
<stop offset="1" stop-color="#C46400"/>
</radialGradient>
<radialGradient id="paint7_radial_3090_24915" cx="0" cy="0" r="1" gradientUnits="userSpaceOnUse" gradientTransform="translate(40.1564 1.47652) scale(0.777838)">
<stop stop-color="#FFF69C"/>
<stop offset="0.5091" stop-color="#F6B63E"/>
<stop offset="1" stop-color="#C46400"/>
</radialGradient>
<radialGradient id="paint8_radial_3090_24915" cx="0" cy="0" r="1" gradientUnits="userSpaceOnUse" gradientTransform="translate(40.7432 3.87923) scale(1.73177)">
<stop stop-color="#FFF69C"/>
<stop offset="0.5091" stop-color="#F6B63E"/>
<stop offset="1" stop-color="#C46400"/>
</radialGradient>
<radialGradient id="paint9_radial_3090_24915" cx="0" cy="0" r="1" gradientUnits="userSpaceOnUse" gradientTransform="translate(32.7047 3.83736) rotate(180) scale(2.32344)">
<stop stop-color="#FFF69C"/>
<stop offset="0.5091" stop-color="#F6B63E"/>
<stop offset="1" stop-color="#C46400"/>
</radialGradient>
<radialGradient id="paint10_radial_3090_24915" cx="0" cy="0" r="1" gradientUnits="userSpaceOnUse" gradientTransform="translate(33.42 1.47652) rotate(180) scale(0.777837)">
<stop stop-color="#FFF69C"/>
<stop offset="0.5091" stop-color="#F6B63E"/>
<stop offset="1" stop-color="#C46400"/>
</radialGradient>
<radialGradient id="paint11_radial_3090_24915" cx="0" cy="0" r="1" gradientUnits="userSpaceOnUse" gradientTransform="translate(32.8331 3.87923) rotate(180) scale(1.73177)">
<stop stop-color="#FFF69C"/>
<stop offset="0.5091" stop-color="#F6B63E"/>
<stop offset="1" stop-color="#C46400"/>
</radialGradient>
<radialGradient id="paint12_radial_3090_24915" cx="0" cy="0" r="1" gradientUnits="userSpaceOnUse" gradientTransform="translate(38.5471 2.80699) scale(6.25438 6.25438)">
<stop stop-color="#FFF69C"/>
<stop offset="0.5091" stop-color="#F6B63E"/>
<stop offset="1" stop-color="#C46400"/>
</radialGradient>
<radialGradient id="paint13_radial_3090_24915" cx="0" cy="0" r="1" gradientUnits="userSpaceOnUse" gradientTransform="translate(36.068 2.88557) scale(5.96916)">
<stop stop-color="#FFF69C"/>
<stop offset="0.5091" stop-color="#F6B63E"/>
<stop offset="1" stop-color="#C46400"/>
</radialGradient>
<radialGradient id="paint14_radial_3090_24915" cx="0" cy="0" r="1" gradientUnits="userSpaceOnUse" gradientTransform="translate(37.4631 2.88557) rotate(180) scale(5.96916)">
<stop stop-color="#FFF69C"/>
<stop offset="0.5091" stop-color="#F6B63E"/>
<stop offset="1" stop-color="#C46400"/>
</radialGradient>
<linearGradient id="paint15_linear_3090_24915" x1="35.9804" y1="8.59462" x2="37.5951" y2="8.59462" gradientUnits="userSpaceOnUse">
<stop stop-color="#C46400"/>
<stop offset="0.3636" stop-color="#F6B63E"/>
<stop offset="0.6606" stop-color="#FFF597"/>
<stop offset="1" stop-color="#F6B63E"/>
</linearGradient>
<radialGradient id="paint16_radial_3090_24915" cx="0" cy="0" r="1" gradientUnits="userSpaceOnUse" gradientTransform="translate(37.2109 12.4672) scale(1.21817)">
<stop stop-color="#FFF69C"/>
<stop offset="0.5091" stop-color="#F6B63E"/>
<stop offset="1" stop-color="#C46400"/>
</radialGradient>
</defs>
</svg>
