<svg width="205" height="26" viewBox="0 0 205 26" fill="none" xmlns="http://www.w3.org/2000/svg">
<path d="M6.7753 5.7905H0L1.00128 0.984375H19.9922L18.9909 5.7905H12.2489L8.21047 24.6812H2.73682L6.7753 5.7905Z" fill="#FFC500"/>
<path d="M17.6793 24.6812L22.7191 0.984375H32.8987C34.1447 0.984375 35.2016 1.30701 36.0694 1.95227C36.9594 2.59754 37.627 3.43194 38.072 4.45547C38.5392 5.45674 38.7729 6.52477 38.7729 7.65955C38.7729 8.48282 38.6505 9.29497 38.4057 10.096C38.161 10.897 37.805 11.6647 37.3377 12.3989C36.8704 13.1332 36.3142 13.8007 35.6689 14.4015C35.0459 14.98 34.3561 15.4695 33.5996 15.87L36.6368 24.6812H30.4623L27.859 17.0382H24.755L23.153 24.6812H17.6793ZM30.3288 12.2654C30.6403 12.2654 30.9629 12.1653 31.2967 11.965C31.6304 11.7425 31.9308 11.4533 32.1978 11.0973C32.4871 10.719 32.7096 10.2851 32.8653 9.79561C33.0433 9.30609 33.1323 8.78321 33.1323 8.22694C33.1323 7.73743 33.0545 7.31467 32.8987 6.95866C32.7652 6.5804 32.5761 6.29114 32.3313 6.09088C32.0866 5.89063 31.8196 5.7905 31.5303 5.7905H27.1581L25.7896 12.2654H30.3288Z" fill="#FFC500"/>
<path d="M44.3286 0.984375H49.8023L44.7625 24.6812H39.2889L44.3286 0.984375Z" fill="#FFC500"/>
<path d="M79.6023 0.985066H83.8744L90.9834 14.9028L93.9205 0.985066H99.3942L94.3544 24.6819H90.0155L82.9065 11.1313L80.0361 24.6819H74.5625L79.6023 0.985066Z" fill="#FFC500"/>
<path d="M103.917 0.985066H119.203L118.202 5.79119H108.356L107.288 10.8977H115.365L114.431 15.3367H106.32L104.351 24.6819H98.8773L103.917 0.985066Z" fill="#FFC500"/>
<path d="M126.945 24.8822C125.498 24.8822 124.219 24.6152 123.106 24.0812C121.994 23.5249 121.059 22.7906 120.303 21.8784C119.546 20.9438 118.968 19.8869 118.567 18.7077C118.189 17.5061 118 16.2601 118 14.9696C118 13.5455 118.245 12.1437 118.734 10.7642C119.224 9.38466 119.913 8.09413 120.803 6.8926C121.693 5.69107 122.728 4.64529 123.907 3.75526C125.109 2.84299 126.411 2.13097 127.812 1.61921C129.214 1.10744 130.66 0.851562 132.151 0.851562C133.575 0.851562 134.844 1.1297 135.956 1.68596C137.069 2.21997 138.003 2.95424 138.76 3.88877C139.516 4.82329 140.084 5.8802 140.462 7.05948C140.84 8.23876 141.029 9.47366 141.029 10.7642C141.029 12.1882 140.785 13.59 140.295 14.9696C139.805 16.3268 139.116 17.6063 138.226 18.8078C137.336 19.9871 136.301 21.0328 135.122 21.9451C133.942 22.8574 132.652 23.5805 131.25 24.1145C129.871 24.6263 128.435 24.8822 126.945 24.8822ZM128.013 20.0093C129.17 20.0093 130.204 19.7423 131.117 19.2083C132.029 18.652 132.808 17.94 133.453 17.0722C134.098 16.1822 134.588 15.2254 134.921 14.2019C135.255 13.1561 135.422 12.1326 135.422 11.1313C135.422 10.1746 135.266 9.28453 134.955 8.46126C134.643 7.63799 134.165 6.9816 133.52 6.49209C132.874 5.98032 132.04 5.72444 131.016 5.72444C129.882 5.72444 128.858 5.99145 127.946 6.52546C127.034 7.05948 126.255 7.76037 125.61 8.62814C124.964 9.49592 124.464 10.4527 124.108 11.4985C123.774 12.522 123.607 13.5344 123.607 14.5357C123.607 15.5147 123.763 16.4158 124.074 17.2391C124.386 18.0624 124.864 18.7299 125.509 19.2417C126.177 19.7534 127.011 20.0093 128.013 20.0093Z" fill="#FFC500"/>
<path d="M146.55 0.985066H159.199C160.089 0.985066 160.823 1.2187 161.402 1.68596C162.003 2.15322 162.448 2.75399 162.737 3.48826C163.048 4.22253 163.204 5.01242 163.204 5.85794C163.204 6.74797 163.026 7.63799 162.67 8.52801C162.314 9.39579 161.791 10.1857 161.101 10.8977C160.434 11.5875 159.611 12.1326 158.632 12.5331C159.611 12.8446 160.367 13.412 160.901 14.2353C161.457 15.0363 161.736 16.0265 161.736 17.2057C161.736 18.474 161.48 19.5754 160.968 20.51C160.478 21.4445 159.8 22.2233 158.932 22.8463C158.064 23.447 157.074 23.9032 155.962 24.2147C154.849 24.5262 153.692 24.6819 152.49 24.6819H141.51L146.55 0.985066ZM153.492 20.0427C153.848 20.0427 154.193 19.9648 154.526 19.8091C154.882 19.6533 155.183 19.4419 155.428 19.1749C155.695 18.8857 155.906 18.5408 156.062 18.1403C156.24 17.7398 156.329 17.317 156.329 16.872C156.329 16.4937 156.262 16.16 156.128 15.8707C155.995 15.5592 155.817 15.3144 155.594 15.1364C155.372 14.9584 155.105 14.8694 154.793 14.8694H149.053L147.985 20.0427H153.492ZM154.827 10.5639C155.138 10.5639 155.45 10.4972 155.761 10.3637C156.073 10.2302 156.362 10.0411 156.629 9.7963C156.896 9.52929 157.107 9.20666 157.263 8.8284C157.419 8.45014 157.497 7.994 157.497 7.45999C157.497 6.88147 157.363 6.43646 157.096 6.12495C156.829 5.81344 156.484 5.65769 156.062 5.65769H151.022L149.987 10.5639H154.827Z" fill="#FFC500"/>
<path d="M168.615 0.985066H184.202L183.167 5.79119H173.054L172.087 10.3971H180.764L179.83 14.8361H171.152L170.051 19.8758H180.464L179.463 24.6819H163.576L168.615 0.985066Z" fill="#FFC500"/>
<path d="M191.784 5.79119H185.009L186.01 0.985066H205.001L204 5.79119H197.258L193.219 24.6819H187.746L191.784 5.79119Z" fill="#FFC500"/>
<path d="M62.7088 17.0972C62.7088 15.2537 63.2539 14.4643 63.4004 14.2852H62.3291H61.2578C61.4044 14.4643 61.9494 15.2537 61.9494 17.0972C61.9494 18.8186 61.6759 19.4223 61.3879 19.8224L62.3291 20.4263L63.2703 19.7888C62.9823 19.3887 62.7088 18.8186 62.7088 17.0972Z" fill="url(#paint0_radial_3090_16020)"/>
<path d="M66.8741 22.9236L63.8293 20.9297H60.8299L57.7852 22.9236C57.7852 22.9236 59.1802 24.441 62.3297 24.441C65.4791 24.441 66.8741 22.9236 66.8741 22.9236Z" fill="url(#paint1_linear_3090_16020)"/>
<path d="M63.3967 20.8496L65.9796 23.0462C65.9796 23.0462 66.4518 23.5389 65.6922 23.8674C64.9326 24.1959 63.5572 24.5449 63.5572 24.5449C63.5572 24.5449 65.183 23.9273 64.574 23.0257C63.8251 21.9168 63.0234 20.9317 63.0234 20.9317L63.3967 20.8496Z" fill="url(#paint2_linear_3090_16020)"/>
<path d="M63.1187 24.4844L61.375 24.6467L62.0422 20.666H63.1187V24.4844Z" fill="url(#paint3_linear_3090_16020)"/>
<path d="M61.4451 20.8496L57.9141 23.3336L60.9318 24.976L61.7325 20.9112L61.4451 20.8496Z" fill="url(#paint4_linear_3090_16020)"/>
<path d="M62.3297 24.4398C59.5881 24.4398 58.2262 23.3079 57.7852 22.9258V24.0012C58.2262 24.3832 59.5881 25.5152 62.3297 25.5152C64.9828 25.5152 66.4237 24.4256 66.8741 24.0012V22.9258C66.4237 23.3502 64.9827 24.4398 62.3297 24.4398Z" fill="url(#paint5_linear_3090_16020)"/>
<path d="M66.2422 10.6292V9.7236C68.4276 9.7236 70.4086 5.2884 71.146 3.14845L69.5829 2.44315C68.6775 3.93118 67.25 3.9775 67.1849 3.97873L67.1671 3.07331L67.176 3.5261L67.1632 3.07347C67.2112 3.07175 68.3453 3.01361 68.973 1.66542L69.1618 1.25977L72.2567 2.65632L72.1358 3.03972C72.112 3.1156 71.539 4.91904 70.5612 6.75312C69.1901 9.32501 67.737 10.6292 66.2422 10.6292Z" fill="url(#paint6_radial_3090_16020)"/>
<path d="M68.9056 1.14844L68.7168 1.55409C68.4586 2.10871 68.04 2.46567 67.6328 2.6607V2.96806L67.6515 2.9628C67.6515 2.9628 68.5669 2.65561 68.9785 1.66216L69.1654 1.26053L68.9056 1.14844Z" fill="url(#paint7_radial_3090_16020)"/>
<path d="M66.9219 9.58537C68.8302 8.82045 70.4875 5.06477 71.1478 3.14866L69.5846 2.44336C69.5285 2.53549 69.4704 2.62205 69.4108 2.70342L70.7919 3.32652C70.1731 5.12258 68.6783 8.5346 66.9219 9.58537Z" fill="url(#paint8_radial_3090_16020)"/>
<path d="M58.4169 10.6292V9.7236C56.2315 9.7236 54.2505 5.2884 53.5131 3.14845L55.0762 2.44315C55.9816 3.93118 57.4091 3.9775 57.4742 3.97873L57.4919 3.07331L57.4831 3.5261L57.4959 3.07347C57.4479 3.07175 56.3138 3.01361 55.6861 1.66542L55.4973 1.25977L52.4023 2.65624L52.5232 3.03964C52.547 3.11552 53.1201 4.91896 54.0978 6.75304C55.469 9.32501 56.922 10.6292 58.4169 10.6292Z" fill="url(#paint9_radial_3090_16020)"/>
<path d="M55.7559 1.14844L55.9447 1.55409C56.203 2.10871 56.6215 2.46567 57.0287 2.6607V2.96806L57.0101 2.9628C57.0101 2.9628 56.0946 2.65561 55.683 1.66216L55.4961 1.26053L55.7559 1.14844Z" fill="url(#paint10_radial_3090_16020)"/>
<path d="M57.7415 9.58537C55.8332 8.82045 54.1758 5.06477 53.5156 3.14866L55.0788 2.44336C55.1349 2.53549 55.1929 2.62205 55.2526 2.70342L53.8715 3.32652C54.4903 5.12258 55.985 8.5346 57.7415 9.58537Z" fill="url(#paint11_radial_3090_16020)"/>
<path d="M61.2032 13.6531H63.4556C65.0479 12.6598 67.2395 11.0183 67.2395 8.78735L67.9986 1.0201C67.9986 1.0201 64.5615 0.484375 62.3294 0.484375C60.0973 0.484375 56.6602 1.0201 56.6602 1.0201L57.4193 8.78735C57.4193 11.0183 59.6109 12.6598 61.2032 13.6531Z" fill="url(#paint12_radial_3090_16020)"/>
<path d="M58.5042 8.98152C58.5042 11.0175 60.2334 12.5878 61.7879 13.6535H62.1647C61.5117 12.7023 60.125 10.4495 60.125 8.46911L59.3604 0.669922C58.7473 0.733726 58.1737 0.804593 57.7109 0.865688L58.5042 8.98152Z" fill="url(#paint13_radial_3090_16020)"/>
<path d="M66.0824 8.98152C66.0824 11.0175 64.3532 12.5878 62.7987 13.6535H62.4219C63.0749 12.7023 64.4616 10.4495 64.4616 8.46911L65.2262 0.669922C65.8392 0.733726 66.4129 0.804593 66.8756 0.865688L66.0824 8.98152Z" fill="url(#paint14_radial_3090_16020)"/>
<path opacity="0.5" d="M61.0235 25.4241L61.0537 24.3538C59.6054 24.14 58.6523 23.5959 58.1381 23.2146L58.1289 23.2109V24.2831C58.6413 24.6648 59.5667 25.2091 61.0235 25.4241Z" fill="#BE720D"/>
<path opacity="0.5" d="M64.1172 24.262V25.3344C64.9858 25.1485 65.6472 24.8474 66.1188 24.5634V23.4922L66.0992 23.4997C65.6325 23.7781 64.9837 24.071 64.1364 24.2546L64.1172 24.262Z" fill="#BE720D"/>
<path opacity="0.5" d="M61.4219 25.4718C61.7062 25.4999 62.0082 25.516 62.3298 25.516C62.6062 25.516 62.8686 25.5036 63.119 25.4819V24.4066C62.8687 24.4283 62.6062 24.4407 62.3298 24.4407C62.0082 24.4407 61.7063 24.4246 61.4219 24.3965V25.4718Z" fill="#EA7312"/>
<path d="M63.6964 14.1007C63.6964 14.2422 63.5818 14.3568 63.4403 14.3568H61.2171C61.0755 14.3568 60.9609 14.2422 60.9609 14.1007V13.9084C60.9609 13.7671 61.0755 13.6523 61.2171 13.6523H63.4403C63.5819 13.6523 63.6964 13.7671 63.6964 13.9084V14.1007Z" fill="url(#paint15_linear_3090_16020)"/>
<path d="M61.3879 19.8227L60.8281 20.9338C61.7996 21.2759 62.8613 21.2865 63.8289 20.9301L63.2704 19.7891C62.5563 20.2334 62.0297 20.2038 61.3879 19.8227Z" fill="url(#paint16_radial_3090_16020)"/>
<defs>
<radialGradient id="paint0_radial_3090_16020" cx="0" cy="0" r="1" gradientUnits="userSpaceOnUse" gradientTransform="translate(63.4988 17.2425) scale(3.53003 3.53003)">
<stop stop-color="#FFF69C"/>
<stop offset="0.5091" stop-color="#F6B63E"/>
<stop offset="1" stop-color="#C46400"/>
</radialGradient>
<linearGradient id="paint1_linear_3090_16020" x1="57.7851" y1="22.6854" x2="66.874" y2="22.6854" gradientUnits="userSpaceOnUse">
<stop stop-color="#C46400"/>
<stop offset="0.3091" stop-color="#F6B63E"/>
<stop offset="0.5515" stop-color="#FFF69C"/>
<stop offset="0.7939" stop-color="#F6B63E"/>
<stop offset="1" stop-color="#C46400"/>
</linearGradient>
<linearGradient id="paint2_linear_3090_16020" x1="65.2122" y1="24.3829" x2="62.7693" y2="21.1394" gradientUnits="userSpaceOnUse">
<stop stop-color="#8D4900"/>
<stop offset="0.0418" stop-color="#985200"/>
<stop offset="0.1652" stop-color="#B56C0F"/>
<stop offset="0.2964" stop-color="#CE851F"/>
<stop offset="0.436" stop-color="#E19B2D"/>
<stop offset="0.5877" stop-color="#EEAB37"/>
<stop offset="0.7603" stop-color="#F5B43D"/>
<stop offset="1" stop-color="#F6B63E"/>
</linearGradient>
<linearGradient id="paint3_linear_3090_16020" x1="62.2468" y1="24.3363" x2="62.2468" y2="20.7574" gradientUnits="userSpaceOnUse">
<stop stop-color="#D76D00"/>
<stop offset="0.1348" stop-color="#DF7E06"/>
<stop offset="0.3533" stop-color="#EA9623"/>
<stop offset="0.5717" stop-color="#F1A833"/>
<stop offset="0.7881" stop-color="#F5B33C"/>
<stop offset="1" stop-color="#F6B63E"/>
</linearGradient>
<linearGradient id="paint4_linear_3090_16020" x1="59.462" y1="24.0209" x2="60.42" y2="20.7363" gradientUnits="userSpaceOnUse">
<stop stop-color="#8D4900"/>
<stop offset="0.0418" stop-color="#985200"/>
<stop offset="0.1652" stop-color="#B56C0F"/>
<stop offset="0.2964" stop-color="#CE851F"/>
<stop offset="0.436" stop-color="#E19B2D"/>
<stop offset="0.5877" stop-color="#EEAB37"/>
<stop offset="0.7603" stop-color="#F5B43D"/>
<stop offset="1" stop-color="#F6B63E"/>
</linearGradient>
<linearGradient id="paint5_linear_3090_16020" x1="57.7851" y1="24.2205" x2="66.8741" y2="24.2205" gradientUnits="userSpaceOnUse">
<stop stop-color="#C46400"/>
<stop offset="0.3152" stop-color="#F6B63E"/>
<stop offset="0.6788" stop-color="#FFF597"/>
<stop offset="1" stop-color="#F6B63E"/>
</linearGradient>
<radialGradient id="paint6_radial_3090_16020" cx="0" cy="0" r="1" gradientUnits="userSpaceOnUse" gradientTransform="translate(69.2494 5.94443) scale(3.93641)">
<stop stop-color="#FFF69C"/>
<stop offset="0.5091" stop-color="#F6B63E"/>
<stop offset="1" stop-color="#C46400"/>
</radialGradient>
<radialGradient id="paint7_radial_3090_16020" cx="0" cy="0" r="1" gradientUnits="userSpaceOnUse" gradientTransform="translate(68.0368 1.94584) scale(1.31782)">
<stop stop-color="#FFF69C"/>
<stop offset="0.5091" stop-color="#F6B63E"/>
<stop offset="1" stop-color="#C46400"/>
</radialGradient>
<radialGradient id="paint8_radial_3090_16020" cx="0" cy="0" r="1" gradientUnits="userSpaceOnUse" gradientTransform="translate(69.0348 6.01434) scale(2.93398 2.93398)">
<stop stop-color="#FFF69C"/>
<stop offset="0.5091" stop-color="#F6B63E"/>
<stop offset="1" stop-color="#C46400"/>
</radialGradient>
<radialGradient id="paint9_radial_3090_16020" cx="0" cy="0" r="1" gradientUnits="userSpaceOnUse" gradientTransform="translate(55.4096 5.94443) rotate(180) scale(3.93641)">
<stop stop-color="#FFF69C"/>
<stop offset="0.5091" stop-color="#F6B63E"/>
<stop offset="1" stop-color="#C46400"/>
</radialGradient>
<radialGradient id="paint10_radial_3090_16020" cx="0" cy="0" r="1" gradientUnits="userSpaceOnUse" gradientTransform="translate(56.6247 1.94584) rotate(180) scale(1.31782)">
<stop stop-color="#FFF69C"/>
<stop offset="0.5091" stop-color="#F6B63E"/>
<stop offset="1" stop-color="#C46400"/>
</radialGradient>
<radialGradient id="paint11_radial_3090_16020" cx="0" cy="0" r="1" gradientUnits="userSpaceOnUse" gradientTransform="translate(55.6285 6.01434) rotate(180) scale(2.93398)">
<stop stop-color="#FFF69C"/>
<stop offset="0.5091" stop-color="#F6B63E"/>
<stop offset="1" stop-color="#C46400"/>
</radialGradient>
<radialGradient id="paint12_radial_3090_16020" cx="0" cy="0" r="1" gradientUnits="userSpaceOnUse" gradientTransform="translate(65.3103 4.201) scale(10.5963 10.5963)">
<stop stop-color="#FFF69C"/>
<stop offset="0.5091" stop-color="#F6B63E"/>
<stop offset="1" stop-color="#C46400"/>
</radialGradient>
<radialGradient id="paint13_radial_3090_16020" cx="0" cy="0" r="1" gradientUnits="userSpaceOnUse" gradientTransform="translate(61.1088 4.33436) scale(10.113)">
<stop stop-color="#FFF69C"/>
<stop offset="0.5091" stop-color="#F6B63E"/>
<stop offset="1" stop-color="#C46400"/>
</radialGradient>
<radialGradient id="paint14_radial_3090_16020" cx="0" cy="0" r="1" gradientUnits="userSpaceOnUse" gradientTransform="translate(63.4778 4.33436) rotate(180) scale(10.113)">
<stop stop-color="#FFF69C"/>
<stop offset="0.5091" stop-color="#F6B63E"/>
<stop offset="1" stop-color="#C46400"/>
</radialGradient>
<linearGradient id="paint15_linear_3090_16020" x1="60.9609" y1="14.0046" x2="63.6964" y2="14.0046" gradientUnits="userSpaceOnUse">
<stop stop-color="#C46400"/>
<stop offset="0.3636" stop-color="#F6B63E"/>
<stop offset="0.6606" stop-color="#FFF597"/>
<stop offset="1" stop-color="#F6B63E"/>
</linearGradient>
<radialGradient id="paint16_radial_3090_16020" cx="0" cy="0" r="1" gradientUnits="userSpaceOnUse" gradientTransform="translate(63.0451 20.5674) scale(2.06384 2.06385)">
<stop stop-color="#FFF69C"/>
<stop offset="0.5091" stop-color="#F6B63E"/>
<stop offset="1" stop-color="#C46400"/>
</radialGradient>
</defs>
</svg>
