<svg width="139" height="40" viewBox="0 0 139 40" fill="none" xmlns="http://www.w3.org/2000/svg">
<path d="M37.8351 23.7697V17.1422H43.7556C44.4593 17.1422 45.1019 17.0041 45.6832 16.728C46.2951 16.4211 46.7847 15.9762 47.1519 15.3933C47.519 14.7796 47.7026 14.0279 47.7026 13.1381C47.7026 12.2483 47.519 11.5119 47.1519 10.9289C46.7847 10.3152 46.2951 9.87033 45.6832 9.59419C45.1019 9.28736 44.4593 9.13394 43.7556 9.13394H37.8351V2.50642H45.5455C47.6567 2.50642 49.5537 2.93598 51.2366 3.79511C52.95 4.62355 54.2963 5.83552 55.2754 7.43104C56.2851 8.99587 56.7899 10.8982 56.7899 13.1381C56.7899 15.3472 56.2851 17.2496 55.2754 18.8451C54.2963 20.4406 52.95 21.6679 51.2366 22.5271C49.5537 23.3555 47.6567 23.7697 45.5455 23.7697H37.8351ZM30.4 35.2758V2.50642H39.5791V35.2758H30.4Z" fill="#FF0C8A"/>
<path d="M60.0707 35.2758V2.50642H69.2498V35.2758H60.0707Z" fill="#FF0C8A"/>
<path d="M74.682 35.2758V2.50642H81.1074L83.8611 9.41009V35.2758H74.682ZM97.1708 35.2758L78.2159 11.3891L81.1074 2.50642L100.062 26.3931L97.1708 35.2758ZM97.1708 35.2758L94.876 28.004V2.50642H104.055V35.2758H97.1708Z" fill="#FF0C8A"/>
<path d="M107.948 28.8784L123.001 8.90382H134.2L119.1 28.8784H107.948ZM107.948 35.2758V28.8784L112.95 27.6818H133.787V35.2758H107.948ZM108.682 10.1005V2.50642H134.2V8.90382L129.105 10.1005H108.682Z" fill="#FF0C8A"/>
<path d="M12.9884 35.8281C10.2041 35.8281 7.77164 35.4293 5.69104 34.6315C3.64104 33.8031 1.74403 32.499 0 30.7194L5.73694 24.9664C6.93022 26.1016 8.18469 26.9761 9.50036 27.5898C10.816 28.1727 12.2235 28.4642 13.7227 28.4642C14.9772 28.4642 15.9257 28.2801 16.5683 27.9119C17.2108 27.513 17.5321 26.9761 17.5321 26.3011C17.5321 25.626 17.2567 25.0737 16.706 24.6442C16.1552 24.1839 15.4209 23.7851 14.503 23.4476C13.6157 23.0794 12.6213 22.7112 11.5198 22.343C10.4489 21.9748 9.37798 21.5299 8.30708 21.0083C7.23619 20.4866 6.24179 19.8576 5.32388 19.1213C4.43656 18.3542 3.71753 17.4183 3.16679 16.3138C2.61604 15.1785 2.34067 13.7978 2.34067 12.1716C2.34067 10.0544 2.84552 8.22879 3.85522 6.69464C4.86492 5.1605 6.28768 3.99454 8.1235 3.19679C9.95932 2.36835 12.1164 1.95413 14.5948 1.95413C17.0425 1.95413 19.3067 2.353 21.3873 3.15076C23.4985 3.91784 25.2425 5.02242 26.6194 6.46452L20.8365 12.2176C19.8268 11.2357 18.8171 10.5147 17.8074 10.0544C16.7977 9.5635 15.6963 9.31804 14.503 9.31804C13.5545 9.31804 12.7895 9.47146 12.2082 9.77829C11.6575 10.0851 11.3821 10.5454 11.3821 11.159C11.3821 11.8034 11.6575 12.3403 12.2082 12.7699C12.7589 13.1688 13.478 13.537 14.3653 13.8745C15.2832 14.212 16.2776 14.5648 17.3485 14.933C18.45 15.3012 19.5362 15.7461 20.6071 16.2677C21.678 16.7587 22.6571 17.403 23.5444 18.2008C24.4623 18.9678 25.1966 19.9343 25.7474 21.1003C26.2981 22.2663 26.5735 23.6777 26.5735 25.3346C26.5735 28.679 25.3802 31.2717 22.9936 33.1127C20.6377 34.923 17.3026 35.8281 12.9884 35.8281Z" fill="#FF0C8A"/>
<path d="M21.8625 1.10176L25.9546 0L29.0874 11.748L24.9953 12.8498L21.8625 1.10176Z" fill="#FF0C8A"/>
<path d="M17.3956 14.8959L16.2991 10.7841L27.991 7.63621L29.0874 11.748L17.3956 14.8959Z" fill="#FF0C8A"/>
<path d="M127.445 25.8098L130.441 22.7997L139 31.3999L136.004 34.4099L127.445 25.8098Z" fill="#FF0C8A"/>
<path d="M130.441 40L127.445 36.9899L136.004 28.3898L139 31.3999L130.441 40Z" fill="#FF0C8A"/>
</svg>
