<svg width="99" height="48" viewBox="0 0 99 48" fill="none" xmlns="http://www.w3.org/2000/svg">
<path d="M46.8191 11.7516C46.8191 11.2133 46.7602 10.8601 46.6425 10.692C46.5415 10.5069 46.4322 10.3892 46.3145 10.3388C46.0117 10.2715 45.7847 10.179 45.6333 10.0612C45.4819 9.92669 45.4062 9.71645 45.4062 9.43052C45.4062 8.90913 45.7174 8.64844 46.3397 8.64844H49.7203C50.4267 8.64844 51.2088 8.67367 52.0666 8.72412C52.9244 8.77458 53.6392 8.85027 54.211 8.95118C55.9434 9.28756 57.331 10.179 58.3738 11.6254C59.4165 13.0719 59.9379 15.2163 59.9379 18.0587C59.9379 20.0097 59.6772 21.5655 59.1558 22.726C58.6513 23.8865 57.9701 24.8116 57.1123 25.5012C56.305 26.1235 55.38 26.5692 54.3372 26.8383C53.2944 27.1074 52.0161 27.2419 50.5024 27.2419H46.8191V11.7516ZM51.5873 25.148C53.0001 25.148 54.2026 24.5845 55.195 23.4576C56.1873 22.3308 56.6834 20.5311 56.6834 18.0587C56.6834 15.6368 56.263 13.8119 55.422 12.5841C54.5979 11.3563 53.429 10.7424 51.9152 10.7424H50.9061C50.3006 10.7424 49.9979 11.0452 49.9979 11.6506V24.265C49.9979 24.8536 50.3006 25.148 50.9061 25.148H51.5873Z" fill="white"/>
<path d="M65.0593 27.2419H61.8805V11.7516C61.8805 11.2133 61.8385 10.8686 61.7544 10.7172C61.6871 10.5658 61.561 10.4565 61.376 10.3892C61.1069 10.2883 60.8546 10.1874 60.6191 10.0865C60.4005 9.96874 60.2911 9.77532 60.2911 9.50621C60.2911 8.93436 60.6443 8.64844 61.3507 8.64844H64.025C64.7146 8.64844 65.0593 8.92595 65.0593 9.48098V27.2419Z" fill="white"/>
<path d="M77.4214 27.2419L75.5797 21.4393H70.6601L68.8436 27.2419H65.791L70.6853 12.0291C70.9544 11.1881 71.0553 10.7172 70.9881 10.6163C70.9376 10.4985 70.8283 10.4229 70.6601 10.3892C70.2901 10.2883 70.021 10.179 69.8528 10.0612C69.6846 9.92669 69.6005 9.70804 69.6005 9.4053C69.6005 8.90072 69.9369 8.64844 70.6096 8.64844H74.621L80.7768 27.2419H77.4214ZM74.8733 19.2697L73.082 13.6437L71.3413 19.2697H74.8733Z" fill="white"/>
<path d="M97.571 29.1027C97.0985 29.4712 96.3798 29.8107 95.4149 30.1211C94.4698 30.412 93.4754 30.5963 92.4318 30.6739C89.0057 30.8872 86.2884 29.9077 84.28 27.7352C82.2912 25.5433 81.2969 22.7501 81.2969 19.3556C81.2969 16.2327 82.0845 13.6723 83.6597 11.6744C85.2547 9.65709 87.6274 8.64844 90.7778 8.64844C92.8059 8.64844 94.4993 9.18186 95.858 10.2487C97.2363 11.3155 97.9255 12.5764 97.9255 14.0311H93.9381C93.8988 13.1195 93.5739 12.4309 92.9635 11.9653C92.3531 11.4804 91.5753 11.238 90.6301 11.238C89.2321 11.238 87.9719 11.9362 86.8496 13.3328C85.7469 14.71 85.1956 16.5528 85.1956 18.861C85.1956 22.3331 86.0029 24.7674 87.6175 26.164C89.2518 27.5412 90.955 28.1619 92.7272 28.0262C93.3573 27.968 93.9086 27.8613 94.3812 27.7061C94.8734 27.5509 95.3165 27.3861 95.7103 27.2115C96.2222 26.8817 96.7046 26.7653 97.1575 26.8623C97.6104 26.9593 97.9156 27.1824 98.0731 27.5315C98.1913 27.8031 98.1913 28.0941 98.0731 28.4044C97.9747 28.6954 97.8073 28.9281 97.571 29.1027Z" fill="white"/>
<path d="M0 28.8173L9.93903 11.1621H4.99892C4.21477 11.1621 3.72468 11.3416 3.52865 11.7007C3.35222 12.0398 3.21499 12.5685 3.11697 13.2867C2.99935 13.8852 2.51906 14.1844 1.67611 14.1844C0.833153 14.1844 0.411676 13.8552 0.411676 13.1969L0.588108 8.64844H14.3204V10.5337L4.14616 28.1889H9.88022C10.8212 28.1889 11.3897 27.9595 11.5857 27.5006C11.8014 27.0218 11.9386 26.4632 11.9974 25.8249C12.0366 25.2064 12.4973 24.8972 13.3795 24.8972C14.2616 24.8972 14.7027 25.2264 14.7027 25.8847L14.5851 30.7025H0V28.8173Z" fill="white"/>
<path fill-rule="evenodd" clip-rule="evenodd" d="M27.0803 11.9938L27.0137 11.9519C26.3309 11.5188 25.719 11.1277 25.1986 10.9014C24.6435 10.6583 23.933 10.4823 23.2142 10.8622C22.5079 11.2366 22.2373 11.917 22.104 12.5107C21.9958 12.9843 21.9375 13.578 21.8848 14.2472C21.1403 13.4678 20.4371 12.6494 19.7783 11.7955L19.7741 11.7899C19.1853 11.031 18.6546 10.2282 18.1866 9.3884L18.0395 9.109L17.9979 9.03076L17.9299 8.89386C17.7847 8.59708 17.6546 8.29307 17.54 7.98301C17.4545 7.74684 17.3818 7.50621 17.3221 7.26215C17.1584 6.55945 17.1986 6.04535 17.3554 5.71147C17.4601 5.48729 17.6358 5.30448 17.855 5.19178C18.0354 5.09259 18.2671 5.01017 18.5668 4.95708C19.3134 4.82297 20.3653 4.88863 21.6891 5.21693L21.703 5.21972L21.9389 5.28119C24.7101 6.01881 28.2917 7.77765 31.9913 10.4222C35.4813 12.9186 38.3857 15.7099 40.3243 18.2399L40.3298 18.2482C40.8991 18.9846 41.4152 19.761 41.8743 20.5715L41.8896 20.5994C42.1802 21.1185 42.4262 21.6616 42.6251 22.2227C42.7426 22.5813 42.8203 22.8984 42.8582 23.1741C42.9276 23.6896 42.8721 24.0682 42.75 24.3294C42.6445 24.5557 42.4433 24.7765 42.0783 24.9301C41.904 24.9996 41.7231 25.0511 41.5385 25.0838C40.7919 25.2165 39.7401 25.1509 38.4176 24.8226L38.4079 24.8198C37.5831 24.6104 36.7728 24.3468 35.9822 24.0305C35.8546 23.9786 35.718 23.9527 35.5804 23.9544C35.4427 23.956 35.3068 23.9851 35.1804 24.04C35.054 24.0949 34.9397 24.1745 34.8441 24.2742C34.7485 24.3738 34.6734 24.4916 34.6233 24.6207C34.5732 24.7497 34.5491 24.8875 34.5522 25.026C34.5553 25.1646 34.5858 25.3011 34.6417 25.4277C34.6976 25.5543 34.7779 25.6685 34.878 25.7637C34.978 25.8588 35.0958 25.9331 35.2246 25.9821C36.5345 26.499 37.7876 26.872 38.9311 27.0732C39.3853 27.1533 39.8215 27.2054 40.2396 27.2296C40.4956 27.2443 40.7522 27.2471 41.0084 27.238C41.3202 27.2268 41.6195 27.1961 41.9062 27.1458C42.2439 27.0843 42.5654 26.9912 42.8707 26.8664C43.627 26.5549 44.257 26.0296 44.6344 25.2179C45.1507 24.1143 45.0202 22.8095 44.5956 21.5494C44.436 21.0953 44.2507 20.6507 44.0405 20.218C43.5529 19.2445 42.9818 18.3156 42.3337 17.4422C40.2452 14.5839 37.0341 11.4588 33.1958 8.71504C29.3616 5.97271 25.5538 4.07557 22.4704 3.25552C20.9356 2.8462 19.5049 2.68554 18.3115 2.87554C17.8675 2.94539 17.44 3.06972 17.0515 3.25413C16.3546 3.56862 15.7928 4.12426 15.4682 4.82018C15.0602 5.69889 15.0519 6.70614 15.2961 7.74831C15.3719 8.06776 15.4677 8.38628 15.5833 8.70386C15.7548 9.17337 15.9574 9.63076 16.1897 10.0729C16.3799 10.4444 16.5849 10.8079 16.8045 11.1626C17.1042 11.6492 17.4237 12.1231 17.762 12.5834C18.6793 13.8269 19.6848 15.0021 20.7705 16.0996C20.8741 16.204 20.9897 16.2826 21.1174 16.3357L20.9315 16.4754L20.8732 16.5229C20.2182 17.065 19.6423 17.5428 19.2524 17.9716C18.8485 18.4159 18.4309 19.0348 18.5405 19.8408C18.6515 20.6693 19.2413 21.1359 19.7644 21.4278C20.2584 21.7044 20.9412 21.9587 21.7016 22.2409L21.7766 22.2688L22.2026 22.4267C22.4524 22.5203 22.5828 22.5692 22.673 22.6111L22.6966 22.6223L22.7077 22.6474C22.7493 22.7382 22.7993 22.8682 22.8909 23.1196L23.0491 23.5499L23.0768 23.6239C23.3571 24.3909 23.6097 25.0768 23.8831 25.5742C24.1745 26.1008 24.638 26.6946 25.4595 26.8077C26.2601 26.9181 26.8749 26.4976 27.3162 26.0911C27.7436 25.6971 28.2182 25.1173 28.7566 24.4594L29.1035 24.0333C29.2148 23.8936 29.3305 23.7575 29.4504 23.6253L29.5004 23.575L29.5628 23.5639C29.6683 23.5471 29.8098 23.5359 30.0804 23.5136L30.6175 23.4717C31.4445 23.406 32.1772 23.3487 32.7392 23.2202C33.3304 23.0847 34.0048 22.8123 34.3767 22.1012C34.7541 21.3775 34.5793 20.6623 34.3378 20.1035C34.113 19.581 33.7273 18.9649 33.2957 18.2776L33.2541 18.2105L33.0112 17.8249C32.9137 17.6735 32.822 17.5183 32.7365 17.3597L32.7448 17.3122C32.7656 17.2075 32.8045 17.0664 32.878 16.8023L33.0057 16.3511L33.0279 16.2757C33.2554 15.4654 33.4581 14.7487 33.5344 14.1774C33.6121 13.5864 33.6024 12.8223 33.0168 12.2341C32.4312 11.646 31.6721 11.6334 31.0865 11.713C30.5176 11.7885 29.8057 11.9924 29.0022 12.2229L28.9273 12.2439L28.4777 12.3724C28.2948 12.4267 28.1101 12.4747 27.924 12.5163L27.8907 12.4995C27.7451 12.4177 27.6026 12.3305 27.4633 12.2383L27.0803 11.9938ZM24.3687 12.8223C24.3124 12.7965 24.2545 12.7746 24.1953 12.7566C24.1686 12.8279 24.1477 12.9012 24.1328 12.9759C24.0426 13.3727 23.9941 13.9538 23.9233 14.887L23.8872 15.3522L23.8789 15.4542C23.8497 15.8566 23.8151 16.3246 23.5944 16.7465C23.3765 17.1656 23.0144 17.4617 22.6994 17.7216L22.6189 17.7886L22.2539 18.0904C21.524 18.6953 21.0661 19.0781 20.7885 19.3854C20.7462 19.4324 20.7055 19.4809 20.6664 19.5307L20.7733 19.5936C21.1105 19.7822 21.6378 19.9819 22.4981 20.3018L22.9242 20.4597L23.0213 20.496C23.3863 20.6287 23.8345 20.7936 24.1731 21.1345C24.5117 21.4753 24.6754 21.928 24.8086 22.294L24.8433 22.3918L25.0015 22.8221C25.3193 23.6882 25.5164 24.2177 25.7037 24.5571C25.7277 24.6009 25.749 24.6368 25.7675 24.6647C25.8045 24.6368 25.8526 24.5963 25.9118 24.5432C26.2171 24.2624 26.596 23.8028 27.1968 23.0665L27.4966 22.7005L27.5632 22.6195C27.8213 22.301 28.1183 21.9364 28.5318 21.717C28.9509 21.4963 29.4157 21.4614 29.8154 21.4306L29.9181 21.4236L30.3788 21.3873C31.3058 21.3133 31.883 21.2658 32.2771 21.1764C32.3789 21.1522 32.4515 21.1312 32.495 21.1135C32.4772 21.0534 32.4554 20.9946 32.4298 20.9375C32.2757 20.5812 31.9788 20.1035 31.4931 19.3267L31.2516 18.9412L31.1961 18.8559C30.988 18.5262 30.734 18.1239 30.6688 17.6461C30.605 17.1753 30.7368 16.7171 30.8478 16.3301L30.8756 16.2282L31.0046 15.7769C31.26 14.8689 31.4182 14.3017 31.4709 13.8993L31.4848 13.775L31.3599 13.789C30.9616 13.8421 30.3982 13.9999 29.4962 14.2584L29.0466 14.3869L28.9453 14.4148C28.5623 14.5266 28.1072 14.6593 27.6395 14.5965C27.1635 14.5294 26.7653 14.2751 26.4378 14.0642L26.3517 14.0083L25.9687 13.7666C25.1986 13.2777 24.724 12.9773 24.3687 12.8223ZM40.6879 0.222613C40.7957 0.307252 40.8859 0.412452 40.9533 0.5322C41.0207 0.651948 41.0641 0.783898 41.0808 0.92051C41.0976 1.05712 41.0874 1.19572 41.051 1.32838C41.0145 1.46104 40.9524 1.58517 40.8683 1.69367L40.7142 1.89204C40.8836 2.80642 41.3015 3.6556 41.9215 4.34519C42.0972 4.55201 42.1861 4.81955 42.1694 5.09119C42.1526 5.36283 42.0316 5.61725 41.8318 5.8006C41.632 5.98395 41.3691 6.08184 41.0989 6.07354C40.8287 6.06525 40.5723 5.95143 40.384 5.75617C39.7624 5.06672 39.281 4.2613 38.9671 3.38545C38.6654 3.56692 38.3459 3.71672 38.0138 3.83249C38.4662 4.65812 38.7521 5.57456 38.8534 6.52453C38.8828 6.80093 38.802 7.07778 38.6286 7.29419C38.4553 7.51059 38.2037 7.64882 37.9292 7.67846C37.6546 7.7081 37.3796 7.62673 37.1646 7.45224C36.9497 7.27776 36.8124 7.02445 36.7829 6.74805C36.6881 5.82856 36.3434 4.95318 35.7866 4.21806L35.5673 4.20968C35.2943 4.19641 35.0374 4.07555 34.8522 3.87319C34.6669 3.67084 34.5682 3.40324 34.5773 3.12821C34.5864 2.85319 34.7027 2.59281 34.9009 2.40333C35.0991 2.21385 35.3634 2.11049 35.6367 2.11556L36.2029 2.13512C36.9328 1.98983 37.3089 1.88366 37.6336 1.72999C37.9597 1.57352 38.2858 1.34581 38.87 0.863841L39.228 0.402828C39.3978 0.184004 39.6469 0.0419656 39.9206 0.00791338C40.1943 -0.0261389 40.4703 0.0519762 40.6879 0.222613Z" fill="white"/>
<path d="M23.3591 46.9268C23.0449 47.1723 22.5671 47.3985 21.9256 47.6054C21.2972 47.7992 20.6361 47.922 19.9423 47.9737C17.6644 48.1159 15.8577 47.4632 14.5224 46.0155C13.2002 44.5549 12.5391 42.6937 12.5391 40.4317C12.5391 38.3507 13.0627 36.6446 14.11 35.3132C15.1704 33.969 16.748 33.2969 18.8426 33.2969C20.191 33.2969 21.3169 33.6523 22.2202 34.3632C23.1366 35.0741 23.5948 35.9143 23.5948 36.8837H20.9437C20.9176 36.2762 20.7016 35.8173 20.2957 35.5071C19.8899 35.184 19.3728 35.0224 18.7444 35.0224C17.8149 35.0224 16.9771 35.4877 16.2308 36.4184C15.4977 37.3361 15.1312 38.564 15.1312 40.1021C15.1312 42.4158 15.6679 44.0379 16.7414 44.9686C17.828 45.8863 18.9604 46.2999 20.1386 46.2094C20.5576 46.1706 20.9241 46.0995 21.2383 45.9961C21.5656 45.8927 21.8601 45.7829 22.122 45.6665C22.4624 45.4468 22.7831 45.3692 23.0842 45.4339C23.3853 45.4985 23.5882 45.6471 23.6929 45.8798C23.7715 46.0608 23.7715 46.2546 23.6929 46.4614C23.6275 46.6553 23.5162 46.8104 23.3591 46.9268Z" fill="white"/>
<path d="M35.0063 47.838L33.5728 43.3787H29.7435L28.3297 47.838H25.9536L29.7632 36.1469C29.9726 35.5007 30.0512 35.1388 29.9988 35.0612C29.9595 34.9707 29.8744 34.9126 29.7435 34.8867C29.4555 34.8092 29.2461 34.7251 29.1151 34.6347C28.9842 34.5313 28.9188 34.3632 28.9188 34.1306C28.9188 33.7428 29.1806 33.5489 29.7043 33.5489H32.8266L37.618 47.838H35.0063ZM33.0229 41.7113L31.6287 37.3878L30.2737 41.7113H33.0229Z" fill="white"/>
<path d="M45.9662 43.8247C45.9269 43.2818 45.6978 42.8035 45.2789 42.3899C44.8599 41.9634 44.1857 41.5045 43.2562 41.0134C42.1827 40.4964 41.3645 39.9082 40.8016 39.249C40.2387 38.5769 39.9637 37.7432 39.9768 36.748C40.003 35.7656 40.3958 34.9449 41.1551 34.2857C41.9144 33.6265 42.9355 33.2969 44.2184 33.2969C44.9123 33.2969 45.5407 33.3486 46.1036 33.452C46.6665 33.5554 47.2229 33.704 47.7728 33.8979V35.9337C47.0266 35.5459 46.3654 35.2874 45.7894 35.1581C45.2134 35.0289 44.7159 34.9643 44.297 34.9643C43.8781 34.9643 43.4788 35.1258 43.0991 35.449C42.7195 35.7592 42.5297 36.218 42.5297 36.8255C42.5297 37.3684 42.7588 37.8531 43.217 38.2796C43.6882 38.6933 44.4345 39.1715 45.4556 39.7144C46.4898 40.2572 47.2622 40.8647 47.7728 41.5369C48.2964 42.196 48.5583 42.9716 48.5583 43.8634C48.5583 44.9621 48.159 45.9057 47.3604 46.6941C46.5749 47.4826 45.4098 47.9156 43.865 47.9931C43.289 48.019 42.6802 47.9673 42.0387 47.838C41.3972 47.6958 40.8736 47.4955 40.4678 47.237C40.2059 47.0819 40.0357 46.8945 39.9572 46.6747C39.8786 46.455 39.8786 46.2159 39.9572 45.9574C40.075 45.6988 40.291 45.5308 40.6052 45.4533C40.9194 45.3628 41.2794 45.4403 41.6853 45.6859C41.9602 45.8152 42.3071 45.938 42.726 46.0543C43.145 46.1577 43.505 46.2029 43.8061 46.19C44.5392 46.1254 45.1021 45.8798 45.4949 45.4533C45.8876 45.0267 46.0447 44.4839 45.9662 43.8247Z" fill="white"/>
<path d="M55.2176 47.838H52.7433V35.9337C52.7433 35.5201 52.7106 35.2551 52.6451 35.1388C52.5928 35.0224 52.4946 34.9384 52.3506 34.8867C52.1411 34.8092 51.9447 34.7316 51.7615 34.654C51.5913 34.5636 51.5062 34.4149 51.5062 34.2081C51.5062 33.7687 51.7811 33.5489 52.3309 33.5489H54.4125C54.9492 33.5489 55.2176 33.7622 55.2176 34.1887V47.838Z" fill="white"/>
<path d="M62.8981 33.5489L67.4735 43.2624V33.5489H69.7907V46.9268C69.7907 47.5343 69.3783 47.838 68.5536 47.838H67.1593L62.3679 37.6204V47.838H60.1685V35.9143C60.1685 35.5136 60.1423 35.2551 60.09 35.1388C60.0507 35.0095 59.9787 34.9255 59.8739 34.8867C59.6383 34.8092 59.4419 34.7316 59.2848 34.654C59.1277 34.5765 59.0492 34.4279 59.0492 34.2081C59.0492 33.7687 59.3241 33.5489 59.8739 33.5489H62.8981Z" fill="white"/>
<path d="M73.583 40.6256C73.583 38.4929 74.1198 36.7415 75.1933 35.3714C76.2798 33.9884 77.8181 33.2969 79.808 33.2969C81.7979 33.2969 83.3361 33.9884 84.4227 35.3714C85.5093 36.7415 86.0526 38.4929 86.0526 40.6256C86.0526 42.7583 85.5093 44.5162 84.4227 45.8992C83.3361 47.2693 81.7979 47.9543 79.808 47.9543C77.8181 47.9543 76.2798 47.2693 75.1933 45.8992C74.1198 44.5162 73.583 42.7583 73.583 40.6256ZM76.1358 40.6256C76.1358 42.4352 76.4958 43.8247 77.2159 44.7941C77.9359 45.7505 78.7999 46.2288 79.808 46.2288C80.816 46.2288 81.68 45.7505 82.4001 44.7941C83.1332 43.8247 83.4998 42.4352 83.4998 40.6256C83.4998 38.816 83.1332 37.4266 82.4001 36.4571C81.68 35.4877 80.816 35.003 79.808 35.003C78.7999 35.003 77.9359 35.4877 77.2159 36.4571C76.4958 37.4266 76.1358 38.816 76.1358 40.6256Z" fill="white"/>
</svg>
