<svg width="120" height="31" viewBox="0 0 120 31" fill="none" xmlns="http://www.w3.org/2000/svg">
<path d="M45.3418 24.6953C45.6219 24.6953 45.9137 24.707 46.2171 24.7303C46.5264 24.7537 46.8386 24.8004 47.1537 24.8704C47.1537 24.8704 47.1625 24.9317 47.18 25.0542C47.2033 25.1709 47.2267 25.311 47.25 25.4744C47.2734 25.6319 47.2938 25.7778 47.3113 25.912C47.3346 26.0404 47.3463 26.1163 47.3463 26.1396C47.3522 26.163 47.3346 26.1863 47.2938 26.2097C47.2529 26.233 47.2092 26.2447 47.1625 26.2447C47.1216 26.2447 47.0866 26.2359 47.0575 26.2184C47.0458 26.1542 47.0166 26.055 46.9699 25.9208C46.9291 25.7866 46.8503 25.6465 46.7336 25.5006C46.6227 25.3547 46.4593 25.2322 46.2434 25.133C46.0275 25.0279 45.7415 24.9754 45.3855 24.9754C45.0704 24.9754 44.7845 25.0484 44.5277 25.1943C44.2709 25.3343 44.0492 25.5269 43.8624 25.772C43.6815 26.0113 43.5415 26.2797 43.4423 26.5773C43.3489 26.8691 43.3022 27.1638 43.3022 27.4614C43.3022 27.794 43.346 28.1208 43.4335 28.4418C43.5269 28.7628 43.664 29.0545 43.8449 29.3171C44.0317 29.5739 44.2622 29.7811 44.5365 29.9386C44.8166 30.0904 45.1434 30.1662 45.5168 30.1662C45.7794 30.1662 46.0012 30.1254 46.1821 30.0437C46.3688 29.962 46.5235 29.8657 46.646 29.7548C46.8153 29.6031 46.9378 29.4339 47.0137 29.2471C47.0895 29.0604 47.1421 28.897 47.1712 28.7569C47.2705 28.7453 47.3609 28.7686 47.4426 28.827C47.4426 28.8678 47.4309 28.9495 47.4076 29.072C47.3901 29.1946 47.3667 29.3288 47.3376 29.4747C47.3084 29.6148 47.2763 29.7402 47.2413 29.8511C47.2063 29.962 47.1742 30.032 47.145 30.0612C46.9116 30.1896 46.646 30.2859 46.3484 30.3501C46.0508 30.4142 45.7036 30.4463 45.3068 30.4463C44.8866 30.4463 44.5014 30.3734 44.1513 30.2275C43.8012 30.0758 43.4977 29.8715 43.2409 29.6148C42.99 29.3522 42.7945 29.0545 42.6545 28.7219C42.5202 28.3834 42.4531 28.0246 42.4531 27.6452C42.4531 27.2426 42.5232 26.8662 42.6632 26.516C42.8091 26.1601 43.0104 25.8449 43.2672 25.5707C43.524 25.2964 43.8274 25.0834 44.1776 24.9317C44.5335 24.7741 44.9216 24.6953 45.3418 24.6953Z" fill="#EFEFEF"/>
<path d="M49.4927 29.2034C49.4927 29.2034 49.519 29.1333 49.5715 28.9933C49.6298 28.8474 49.7057 28.6519 49.7991 28.4068C49.8924 28.1617 49.9975 27.8903 50.1142 27.5927C50.2367 27.2893 50.3593 26.98 50.4818 26.6648C50.6044 26.3439 50.7211 26.0375 50.832 25.7457C50.9487 25.4539 51.0508 25.1972 51.1383 24.9754C51.1617 24.9287 51.2113 24.8762 51.2872 24.8179C51.3689 24.7595 51.4301 24.7303 51.471 24.7303C51.4827 24.7303 51.4885 24.7332 51.4885 24.7391C51.4943 24.7391 51.5031 24.742 51.5147 24.7478L53.2567 29.3171C53.3851 29.6556 53.458 29.8424 53.4755 29.8774C53.5047 29.9416 53.5601 29.997 53.6418 30.0437C53.7294 30.0904 53.814 30.1254 53.8957 30.1487C53.9832 30.1662 54.0387 30.175 54.062 30.175C54.0854 30.2042 54.0941 30.2509 54.0883 30.315C54.0824 30.3734 54.0766 30.4084 54.0708 30.4201C53.9015 30.4084 53.7498 30.3997 53.6156 30.3938C53.4814 30.3822 53.3209 30.3763 53.1341 30.3763C52.9357 30.3763 52.7694 30.3822 52.6352 30.3938C52.5068 30.3997 52.3434 30.4084 52.145 30.4201C52.1217 30.3967 52.11 30.3559 52.11 30.2975C52.1158 30.2392 52.1304 30.1983 52.1538 30.175C52.2063 30.175 52.288 30.1662 52.3988 30.1487C52.5097 30.1254 52.5856 30.0962 52.6264 30.0612C52.6498 30.0378 52.6615 29.997 52.6615 29.9386C52.6615 29.8861 52.641 29.7986 52.6002 29.676C52.5652 29.5477 52.5185 29.4047 52.4601 29.2471C52.4018 29.0896 52.3434 28.9378 52.2851 28.7919C52.2267 28.6402 52.1771 28.5177 52.1362 28.4243C52.1012 28.3251 52.0837 28.2755 52.0837 28.2755C52.0837 28.2755 52.0779 28.2696 52.0662 28.258C52.0545 28.2463 52.0429 28.2405 52.0312 28.2405C51.9437 28.2346 51.8357 28.2317 51.7073 28.2317C51.5789 28.2317 51.4593 28.2317 51.3484 28.2317C51.3193 28.2317 51.2901 28.2317 51.2609 28.2317C51.2317 28.2317 51.2055 28.2317 51.1821 28.2317C51.007 28.2317 50.8582 28.2346 50.7357 28.2405C50.6131 28.2405 50.4556 28.2463 50.263 28.258C50.2572 28.258 50.2484 28.2638 50.2367 28.2755C50.2251 28.2813 50.2192 28.2842 50.2192 28.2842C50.2192 28.2842 50.1959 28.3426 50.1492 28.4593C50.1084 28.576 50.0558 28.7161 49.9916 28.8795C49.9333 29.037 49.8808 29.1858 49.8341 29.3259C49.7816 29.4718 49.7465 29.5943 49.729 29.6935C49.7174 29.7928 49.7115 29.8715 49.7115 29.9299C49.7115 29.9941 49.7553 30.0466 49.8428 30.0875C49.9362 30.1225 50.0296 30.1458 50.1229 30.1575C50.2222 30.1692 50.2834 30.175 50.3068 30.175C50.3184 30.1867 50.3272 30.2246 50.333 30.2888C50.3389 30.3471 50.3359 30.3909 50.3243 30.4201C50.2134 30.4142 50.1171 30.4084 50.0354 30.4026C49.9595 30.3967 49.8808 30.3909 49.7991 30.3851C49.7232 30.3792 49.6211 30.3763 49.4927 30.3763C49.3643 30.3763 49.2564 30.3792 49.1688 30.3851C49.0813 30.3909 48.9937 30.3967 48.9062 30.4026C48.8187 30.4084 48.7078 30.4142 48.5736 30.4201C48.5619 30.4084 48.5561 30.3734 48.5561 30.315C48.5561 30.2509 48.5619 30.2042 48.5736 30.175C48.6261 30.175 48.7136 30.1633 48.8362 30.14C48.9646 30.1108 49.0492 30.067 49.09 30.0087C49.1776 29.8978 49.2505 29.7752 49.3089 29.641C49.3731 29.501 49.4343 29.3551 49.4927 29.2034ZM51.1646 25.7632L50.3856 27.8466C50.3856 27.8466 50.3856 27.8524 50.3856 27.8641C50.3914 27.8757 50.3972 27.8816 50.4031 27.8816C50.5139 27.8874 50.6452 27.8932 50.797 27.8991C50.9545 27.8991 51.08 27.8991 51.1734 27.8991C51.3076 27.8991 51.4272 27.8962 51.5323 27.8903C51.6431 27.8845 51.7628 27.8787 51.8911 27.8728C51.9028 27.8728 51.9087 27.867 51.9087 27.8553C51.9145 27.8378 51.9174 27.8291 51.9174 27.8291L51.1646 25.7632Z" fill="#EFEFEF"/>
<path d="M57.1459 24.7041C57.3268 24.7041 57.4756 24.7157 57.5923 24.7391C57.7149 24.7566 57.8374 24.7828 57.96 24.8179C58.0884 24.8529 58.2459 24.8937 58.4327 24.9404C58.4677 25.1622 58.4939 25.3927 58.5114 25.6319C58.5348 25.8654 58.5494 26.0404 58.5552 26.1571C58.561 26.1863 58.5406 26.2097 58.4939 26.2272C58.4472 26.2388 58.4093 26.2447 58.3801 26.2447C58.3393 26.2447 58.3072 26.233 58.2839 26.2097C58.2722 26.1046 58.2372 25.9821 58.1788 25.842C58.1205 25.702 58.0388 25.5677 57.9337 25.4394C57.8345 25.311 57.712 25.2059 57.5661 25.1242C57.426 25.0367 57.2655 24.9929 57.0846 24.9929C56.8512 24.9929 56.6674 25.0425 56.5332 25.1417C56.3989 25.2409 56.3026 25.3635 56.2443 25.5094C56.1859 25.6553 56.1568 25.7982 56.1568 25.9383C56.1568 26.1659 56.2151 26.3556 56.3318 26.5073C56.4544 26.659 56.6061 26.7932 56.787 26.9099C56.9737 27.0267 57.1605 27.1463 57.3472 27.2688C57.4873 27.3564 57.6419 27.4527 57.8112 27.5577C57.9804 27.6627 58.1438 27.7795 58.3014 27.9078C58.4589 28.0362 58.5873 28.185 58.6865 28.3543C58.7857 28.5177 58.8353 28.7044 58.8353 28.9145C58.8353 29.2238 58.7478 29.4981 58.5727 29.7373C58.4035 29.9707 58.1817 30.1546 57.9075 30.2888C57.639 30.4172 57.3531 30.4814 57.0496 30.4814C56.7637 30.4814 56.4865 30.4493 56.218 30.3851C55.9554 30.3209 55.7191 30.2684 55.509 30.2275C55.474 30.0583 55.4419 29.8774 55.4127 29.6848C55.3894 29.4922 55.3689 29.323 55.3514 29.1771C55.3398 29.0312 55.3339 28.9407 55.3339 28.9057C55.3631 28.8766 55.3952 28.8532 55.4302 28.8357C55.4711 28.8124 55.5119 28.8007 55.5528 28.8007C55.6053 28.8007 55.6374 28.827 55.6491 28.8795C55.6666 28.9612 55.7016 29.075 55.7541 29.2209C55.8125 29.3609 55.8942 29.5068 55.9992 29.6585C56.1101 29.8103 56.2501 29.9386 56.4194 30.0437C56.5944 30.1429 56.8103 30.1925 57.0671 30.1925C57.3414 30.1925 57.5807 30.102 57.7849 29.9211C57.9891 29.7344 58.0913 29.4747 58.0913 29.1421C58.0913 28.9028 58.0358 28.7161 57.925 28.5819C57.8199 28.4476 57.6799 28.3309 57.5048 28.2317C57.3356 28.1325 57.1517 28.0275 56.9533 27.9166C56.7374 27.7882 56.5127 27.6482 56.2793 27.4964C56.0517 27.3389 55.8591 27.155 55.7016 26.945C55.544 26.7349 55.4652 26.4869 55.4652 26.2009C55.4652 25.8975 55.544 25.6349 55.7016 25.4131C55.865 25.1855 56.0751 25.0104 56.3318 24.8879C56.5886 24.7653 56.86 24.7041 57.1459 24.7041Z" fill="#EFEFEF"/>
<path d="M61.4809 24.7741C61.6502 24.7741 61.8136 24.7712 61.9711 24.7653C62.1345 24.7537 62.3037 24.7449 62.4788 24.7391C62.5022 24.7624 62.5109 24.8033 62.5051 24.8616C62.5051 24.92 62.4963 24.9608 62.4788 24.9842C62.4438 24.9842 62.3796 24.99 62.2862 25.0017C62.1929 25.0075 62.1053 25.0192 62.0236 25.0367C61.9419 25.0542 61.8953 25.0805 61.8836 25.1155C61.8661 25.1738 61.8544 25.2497 61.8486 25.3431C61.8486 25.4364 61.8486 25.5386 61.8486 25.6494C61.8486 25.6669 61.8486 25.6845 61.8486 25.702C61.8486 25.7195 61.8486 25.737 61.8486 25.7545V29.4047C61.8486 29.4222 61.8486 29.4397 61.8486 29.4572C61.8486 29.4747 61.8486 29.4922 61.8486 29.5097C61.8486 29.6206 61.8486 29.7227 61.8486 29.8161C61.8544 29.9036 61.8661 29.9766 61.8836 30.0349C61.8953 30.0641 61.9419 30.0904 62.0236 30.1137C62.1053 30.1371 62.1929 30.1546 62.2862 30.1662C62.3796 30.1721 62.4438 30.175 62.4788 30.175C62.4963 30.1983 62.5051 30.2392 62.5051 30.2975C62.5109 30.3559 62.5022 30.3967 62.4788 30.4201C62.3037 30.4084 62.1345 30.3997 61.9711 30.3938C61.8136 30.3822 61.6502 30.3763 61.4809 30.3763C61.3175 30.3763 61.1512 30.3822 60.982 30.3938C60.8127 30.3997 60.6406 30.4084 60.4655 30.4201C60.4422 30.3967 60.4305 30.3559 60.4305 30.2975C60.4363 30.2392 60.448 30.1983 60.4655 30.175C60.5005 30.175 60.5647 30.1721 60.6581 30.1662C60.7515 30.1546 60.839 30.1371 60.9207 30.1137C61.0082 30.0904 61.0549 30.0641 61.0608 30.0349C61.0841 29.9649 61.0958 29.8745 61.0958 29.7636C61.1016 29.6527 61.1045 29.5331 61.1045 29.4047V25.7545C61.1045 25.6261 61.1016 25.5065 61.0958 25.3956C61.0958 25.2789 61.0841 25.1855 61.0608 25.1155C61.0549 25.0805 61.0082 25.0542 60.9207 25.0367C60.839 25.0192 60.7515 25.0075 60.6581 25.0017C60.5647 24.99 60.5005 24.9842 60.4655 24.9842C60.448 24.9608 60.4363 24.92 60.4305 24.8616C60.4305 24.8033 60.4422 24.7624 60.4655 24.7391C60.6406 24.7449 60.8127 24.7537 60.982 24.7653C61.1512 24.7712 61.3175 24.7741 61.4809 24.7741Z" fill="#EFEFEF"/>
<path d="M64.9509 24.7478C65.0792 24.7478 65.2047 24.7478 65.3272 24.7478C65.4498 24.7478 65.5403 24.7449 65.5986 24.7391C65.6861 24.8733 65.8262 25.063 66.0188 25.3081C66.2113 25.5532 66.436 25.8333 66.6928 26.1484C66.9496 26.4577 67.2151 26.7786 67.4894 27.1113C67.7636 27.4439 68.0292 27.7736 68.2859 28.1004C68.5427 28.4214 68.7644 28.7132 68.9512 28.9758V25.737C68.9512 25.5852 68.9483 25.4656 68.9424 25.3781C68.9366 25.2905 68.9103 25.2118 68.8637 25.1417C68.8461 25.1126 68.7936 25.0863 68.7061 25.063C68.6186 25.0338 68.5252 25.0134 68.426 25.0017C68.3326 24.9842 68.2626 24.9754 68.2159 24.9754C68.1926 24.9462 68.1809 24.9054 68.1809 24.8529C68.1867 24.7945 68.1926 24.7537 68.1984 24.7303C68.3676 24.7362 68.5252 24.7449 68.6711 24.7566C68.8228 24.7624 68.992 24.7653 69.1788 24.7653C69.313 24.7653 69.421 24.7653 69.5027 24.7653C69.5902 24.7595 69.6777 24.7537 69.7653 24.7478C69.8586 24.742 69.9695 24.7362 70.0979 24.7303C70.1096 24.7537 70.1183 24.7887 70.1242 24.8354C70.13 24.8821 70.1212 24.9287 70.0979 24.9754C70.0629 24.9754 69.9929 24.9813 69.8878 24.9929C69.7886 25.0046 69.6923 25.025 69.5989 25.0542C69.5056 25.0775 69.4472 25.1067 69.4239 25.1417C69.383 25.2059 69.3597 25.2789 69.3538 25.3606C69.348 25.4423 69.3451 25.5648 69.3451 25.7282V29.2034C69.3451 29.3667 69.3451 29.5097 69.3451 29.6323C69.3451 29.7548 69.3451 29.8745 69.3451 29.9912C69.3509 30.102 69.3568 30.2333 69.3626 30.3851C69.3568 30.4084 69.3393 30.423 69.3101 30.4288C69.2809 30.4347 69.2605 30.4376 69.2488 30.4376C69.2255 30.4376 69.1846 30.423 69.1263 30.3938C69.0737 30.3646 69.0154 30.3121 68.9512 30.2363L65.2222 25.5269V29.4134C65.2222 29.5652 65.2251 29.6848 65.231 29.7723C65.2426 29.854 65.2689 29.9299 65.3097 29.9999C65.3272 30.0291 65.3769 30.0583 65.4586 30.0875C65.5461 30.1108 65.6365 30.1312 65.7299 30.1487C65.8291 30.1662 65.9021 30.175 65.9487 30.175C65.9721 30.2042 65.9838 30.245 65.9838 30.2975C65.9838 30.3501 65.9779 30.3909 65.9663 30.4201C65.797 30.4084 65.6395 30.3997 65.4936 30.3938C65.3477 30.3822 65.1814 30.3763 64.9946 30.3763C64.8662 30.3763 64.7554 30.3792 64.662 30.3851C64.5745 30.3909 64.4869 30.3967 64.3994 30.4026C64.3177 30.4084 64.2097 30.4142 64.0755 30.4201C64.0638 30.3967 64.0551 30.3617 64.0492 30.315C64.0434 30.2684 64.0522 30.2217 64.0755 30.175C64.1105 30.175 64.1776 30.1692 64.2768 30.1575C64.376 30.14 64.4723 30.1195 64.5657 30.0962C64.6649 30.067 64.7233 30.0349 64.7408 29.9999C64.7816 29.9357 64.805 29.8657 64.8108 29.7898C64.8225 29.7081 64.8283 29.5856 64.8283 29.4222V25.7107C64.8283 25.5473 64.8225 25.4248 64.8108 25.3431C64.805 25.2614 64.7816 25.1884 64.7408 25.1242C64.7233 25.0892 64.6649 25.06 64.5657 25.0367C64.4723 25.0075 64.376 24.9871 64.2768 24.9754C64.1776 24.9638 64.1105 24.9579 64.0755 24.9579C64.0522 24.9112 64.0434 24.8645 64.0492 24.8179C64.0551 24.7712 64.0638 24.7362 64.0755 24.7128C64.2739 24.7187 64.4344 24.7274 64.5569 24.7391C64.6795 24.7449 64.8108 24.7478 64.9509 24.7478Z" fill="#EFEFEF"/>
<path d="M74.3264 24.6953C74.7058 24.6953 75.0617 24.7653 75.3944 24.9054C75.7328 25.0455 76.0304 25.2468 76.2872 25.5094C76.544 25.7662 76.7453 26.0725 76.8912 26.4285C77.0429 26.7786 77.1188 27.1667 77.1188 27.5927C77.1188 27.9954 77.0429 28.3718 76.8912 28.7219C76.7453 29.0662 76.544 29.3726 76.2872 29.641C76.0304 29.9036 75.7328 30.1108 75.3944 30.2625C75.0617 30.4084 74.7058 30.4814 74.3264 30.4814C73.953 30.4814 73.597 30.4113 73.2585 30.2713C72.9259 30.1312 72.6312 29.9328 72.3744 29.676C72.1235 29.4134 71.9251 29.1071 71.7792 28.7569C71.6333 28.4009 71.5603 28.0129 71.5603 27.5927C71.5603 27.1901 71.6333 26.8137 71.7792 26.4635C71.9251 26.1134 72.1235 25.807 72.3744 25.5444C72.6312 25.276 72.9259 25.0688 73.2585 24.9229C73.597 24.7712 73.953 24.6953 74.3264 24.6953ZM74.2039 24.9842C73.8829 24.9842 73.6087 25.0571 73.3811 25.203C73.1535 25.3431 72.9667 25.5298 72.8208 25.7632C72.6808 25.9967 72.5757 26.2563 72.5057 26.5423C72.4415 26.8282 72.4094 27.1142 72.4094 27.4001C72.4094 27.7328 72.4532 28.0654 72.5407 28.398C72.6341 28.7248 72.7683 29.0254 72.9434 29.2996C73.1185 29.5681 73.3315 29.784 73.5824 29.9474C73.8392 30.1108 74.1339 30.1925 74.4665 30.1925C74.7875 30.1925 75.0617 30.1225 75.2893 29.9824C75.5169 29.8365 75.7036 29.6439 75.8495 29.4047C75.9954 29.1654 76.1005 28.9028 76.1647 28.6169C76.2347 28.3251 76.2697 28.0362 76.2697 27.7503C76.2697 27.4176 76.223 27.0879 76.1297 26.7611C76.0421 26.4343 75.9079 26.1367 75.727 25.8683C75.5519 25.5998 75.336 25.3868 75.0792 25.2293C74.8283 25.0659 74.5365 24.9842 74.2039 24.9842Z" fill="#EFEFEF"/>
<path d="M4.51679 7.29659C4.90195 7.29659 5.29877 7.36078 5.70726 7.48917C6.11576 7.61755 6.48924 7.80429 6.82771 8.04939C7.17785 8.29449 7.45796 8.60378 7.66804 8.97726C7.87813 9.33907 7.98317 9.76507 7.98317 10.2553C7.98317 10.6638 7.86646 11.0606 7.63303 11.4457C7.41127 11.8309 7.11949 12.1694 6.75768 12.4611C6.40754 12.7529 6.0399 12.963 5.65474 13.0914C5.9582 13.5933 6.24998 14.0543 6.53009 14.4744C6.8102 14.8946 7.10198 15.3148 7.40544 15.7349C7.70889 16.1434 8.04736 16.5986 8.42084 17.1005C8.66594 17.4273 8.92854 17.6724 9.20865 17.8358C9.50044 17.9992 9.87975 18.0984 10.3466 18.1334C10.3933 18.1801 10.405 18.2676 10.3816 18.396C10.3583 18.5244 10.3408 18.6002 10.3291 18.6236C9.75721 18.6236 9.27868 18.6061 8.89353 18.5711C8.52005 18.5244 8.24577 18.4719 8.0707 18.4135C7.95399 18.3668 7.79059 18.2968 7.58051 18.2034C7.37043 18.0984 7.16618 17.9175 6.96776 17.6607C6.89774 17.5673 6.76935 17.3864 6.58261 17.118C6.39587 16.8495 6.17412 16.5228 5.91735 16.1376C5.66058 15.7524 5.3863 15.344 5.09452 14.9121C4.80274 14.4686 4.52263 14.0368 4.25419 13.6166C4.16082 13.4765 3.98575 13.4065 3.72898 13.4065H2.83613V16.5928C2.83613 16.6278 2.83613 16.6628 2.83613 16.6978C2.83613 16.7328 2.83613 16.7678 2.83613 16.8029C2.83613 17.0246 2.83613 17.2289 2.83613 17.4156C2.8478 17.5907 2.87114 17.7366 2.90615 17.8533C2.9295 17.9116 3.02287 17.9642 3.18626 18.0108C3.34966 18.0575 3.52473 18.0925 3.71147 18.1159C3.89821 18.1276 4.0266 18.1334 4.09663 18.1334C4.13164 18.1801 4.14915 18.2618 4.14915 18.3785C4.16082 18.4952 4.14331 18.5769 4.09663 18.6236C3.74649 18.6002 3.40802 18.5827 3.08122 18.5711C2.7661 18.5477 2.4393 18.5361 2.10083 18.5361C1.77404 18.5361 1.44141 18.5477 1.10294 18.5711C0.76447 18.5827 0.420167 18.6002 0.0700278 18.6236C0.0233426 18.5769 0 18.4952 0 18.3785C0.0116713 18.2618 0.0350139 18.1801 0.0700278 18.1334C0.140056 18.1334 0.26844 18.1276 0.455181 18.1159C0.641921 18.0925 0.816991 18.0575 0.980389 18.0108C1.15546 17.9642 1.24883 17.9116 1.2605 17.8533C1.30719 17.7132 1.33053 17.5323 1.33053 17.3106C1.3422 17.0888 1.34803 16.8495 1.34803 16.5928L1.33053 9.29238C1.33053 9.03561 1.32469 8.79635 1.31302 8.5746C1.31302 8.34117 1.28968 8.15443 1.24299 8.01437C1.23132 7.94435 1.13795 7.89183 0.962882 7.85681C0.799484 7.8218 0.624414 7.79846 0.437674 7.78678C0.262604 7.76344 0.140056 7.75177 0.0700278 7.75177C0.0350139 7.70509 0.0116713 7.62339 0 7.50667C0 7.38996 0.0233426 7.30826 0.0700278 7.26158C0.420167 7.27325 0.758634 7.29075 1.08543 7.3141C1.4239 7.32577 1.75653 7.3316 2.08333 7.3316C2.42179 7.3316 2.7836 7.32577 3.16876 7.3141C3.56558 7.30243 4.01493 7.29659 4.51679 7.29659ZM6.39004 10.4128C6.39004 9.66586 6.18579 9.05312 5.77729 8.5746C5.38047 8.09607 4.70937 7.85681 3.76399 7.85681C3.65895 7.85681 3.49555 7.86265 3.2738 7.87432C3.06372 7.88599 2.94117 7.93268 2.90615 8.01437C2.85947 8.11942 2.83029 8.30032 2.81862 8.55709C2.81862 8.80219 2.81862 9.05312 2.81862 9.30989L2.83613 12.8813H3.74649C4.19 12.8813 4.61016 12.7821 5.00699 12.5837C5.41548 12.3736 5.74811 12.0877 6.00488 11.7258C6.26165 11.3524 6.39004 10.9147 6.39004 10.4128Z" fill="#EFEFEF"/>
<path d="M13.7683 7.3316C14.1067 7.3316 14.4335 7.32577 14.7486 7.3141C15.0754 7.29075 15.4139 7.27325 15.764 7.26158C15.8107 7.30826 15.8282 7.38996 15.8166 7.50667C15.8166 7.62339 15.7991 7.70509 15.764 7.75177C15.694 7.75177 15.5656 7.76344 15.3789 7.78678C15.1922 7.79846 15.0171 7.8218 14.8537 7.85681C14.6903 7.89183 14.5969 7.94435 14.5736 8.01437C14.5386 8.13109 14.5152 8.28281 14.5035 8.46956C14.5035 8.6563 14.5035 8.86054 14.5035 9.0823C14.5035 9.11731 14.5035 9.15233 14.5035 9.18734C14.5035 9.22235 14.5035 9.25737 14.5035 9.29238V16.5928C14.5035 16.6278 14.5035 16.6628 14.5035 16.6978C14.5035 16.7328 14.5035 16.7678 14.5035 16.8029C14.5035 17.0246 14.5035 17.2289 14.5035 17.4156C14.5152 17.5907 14.5386 17.7366 14.5736 17.8533C14.5969 17.9116 14.6903 17.9642 14.8537 18.0108C15.0171 18.0575 15.1922 18.0925 15.3789 18.1159C15.5656 18.1276 15.694 18.1334 15.764 18.1334C15.7991 18.1801 15.8166 18.2618 15.8166 18.3785C15.8282 18.4952 15.8107 18.5769 15.764 18.6236C15.4139 18.6002 15.0754 18.5827 14.7486 18.5711C14.4335 18.5477 14.1067 18.5361 13.7683 18.5361C13.4415 18.5361 13.1088 18.5477 12.7704 18.5711C12.4319 18.5827 12.0876 18.6002 11.7374 18.6236C11.6908 18.5769 11.6674 18.4952 11.6674 18.3785C11.6791 18.2618 11.7024 18.1801 11.7374 18.1334C11.8075 18.1334 11.9359 18.1276 12.1226 18.1159C12.3093 18.0925 12.4844 18.0575 12.6478 18.0108C12.8229 17.9642 12.9163 17.9116 12.9279 17.8533C12.9746 17.7132 12.998 17.5323 12.998 17.3106C13.0096 17.0888 13.0155 16.8495 13.0155 16.5928V9.29238C13.0155 9.03561 13.0096 8.79635 12.998 8.5746C12.998 8.34117 12.9746 8.15443 12.9279 8.01437C12.9163 7.94435 12.8229 7.89183 12.6478 7.85681C12.4844 7.8218 12.3093 7.79846 12.1226 7.78678C11.9359 7.76344 11.8075 7.75177 11.7374 7.75177C11.7024 7.70509 11.6791 7.62339 11.6674 7.50667C11.6674 7.38996 11.6908 7.30826 11.7374 7.26158C12.0876 7.27325 12.4319 7.29075 12.7704 7.3141C13.1088 7.32577 13.4415 7.3316 13.7683 7.3316Z" fill="#EFEFEF"/>
<path d="M19.4301 7.3316C19.8036 7.3316 20.1654 7.32577 20.5155 7.3141C20.8657 7.29075 21.21 7.27325 21.5485 7.26158C21.5718 7.30826 21.5776 7.40163 21.566 7.54169C21.566 7.67007 21.5485 7.7401 21.5134 7.75177C21.4668 7.75177 21.3559 7.76928 21.1808 7.80429C21.0174 7.82763 20.8598 7.88015 20.7081 7.96185C20.5564 8.03188 20.4805 8.14859 20.4805 8.31199C20.4805 8.49873 20.5856 8.88389 20.7957 9.46745C20.889 9.72422 21.0116 10.0685 21.1633 10.5004C21.3267 10.9205 21.5018 11.3874 21.6885 11.9009C21.8752 12.4145 22.062 12.928 22.2487 13.4415C22.4471 13.9551 22.6222 14.4278 22.7739 14.8596C22.9373 15.2914 23.0657 15.6474 23.1591 15.9275C23.2641 16.196 23.3225 16.3418 23.3342 16.3652C23.3575 16.3185 23.4334 16.1434 23.5618 15.84C23.6901 15.5249 23.8477 15.128 24.0344 14.6495C24.2329 14.171 24.4488 13.6458 24.6822 13.0739C24.9156 12.4903 25.149 11.9009 25.3825 11.3057C25.6276 10.7104 25.8552 10.1502 26.0652 9.62501C26.1469 9.4266 26.217 9.21652 26.2753 8.99476C26.3337 8.77301 26.3629 8.58627 26.3629 8.43454C26.3629 8.2478 26.2812 8.10774 26.1178 8.01437C25.966 7.921 25.7968 7.85681 25.6101 7.8218C25.435 7.78678 25.3124 7.76928 25.2424 7.76928C25.1957 7.74593 25.1724 7.67007 25.1724 7.54169C25.1724 7.40163 25.1957 7.30826 25.2424 7.26158C25.5575 7.27325 25.8552 7.29075 26.1353 7.3141C26.4154 7.32577 26.713 7.3316 27.0281 7.3316C27.2966 7.3316 27.5066 7.3316 27.6584 7.3316C27.8218 7.31993 27.9793 7.30826 28.1311 7.29659C28.2828 7.28492 28.4695 7.27325 28.6913 7.26158C28.7146 7.30826 28.7205 7.40163 28.7088 7.54169C28.6971 7.68174 28.6796 7.75177 28.6563 7.75177C28.5862 7.75177 28.4228 7.78095 28.1661 7.83931C27.921 7.89766 27.7226 8.01437 27.5708 8.18944C27.4658 8.30616 27.3257 8.54542 27.1507 8.90723C26.9873 9.25737 26.8414 9.59584 26.713 9.92263C26.3979 10.7046 26.1061 11.4224 25.8377 12.076C25.5809 12.7296 25.3241 13.3598 25.0673 13.9667C24.8223 14.5736 24.5655 15.2039 24.297 15.8575C24.0286 16.5111 23.7251 17.2347 23.3867 18.0283C23.2933 18.2501 23.1883 18.4018 23.0716 18.4835C22.9665 18.5652 22.8556 18.6061 22.7389 18.6061C22.7039 18.6061 22.6747 18.5711 22.6514 18.501C22.628 18.4193 22.6047 18.361 22.5814 18.326C22.1962 17.3106 21.8344 16.3652 21.4959 15.4898C21.1691 14.6028 20.8307 13.7041 20.4805 12.7938C20.1421 11.8834 19.7569 10.8797 19.3251 9.78258C19.1967 9.44411 19.0683 9.14066 18.9399 8.87222C18.8232 8.60378 18.689 8.35868 18.5373 8.13692C18.4789 8.04355 18.3739 7.96769 18.2221 7.90933C18.0704 7.85098 17.9187 7.81013 17.767 7.78678C17.6269 7.76344 17.5219 7.75177 17.4518 7.75177C17.4402 7.75177 17.4343 7.67591 17.4343 7.52418C17.4343 7.36078 17.4402 7.27325 17.4518 7.26158C17.8486 7.27325 18.1754 7.29075 18.4322 7.3141C18.7007 7.32577 19.0333 7.3316 19.4301 7.3316Z" fill="#EFEFEF"/>
<path d="M32.316 7.3316C33.1214 7.3316 34.0084 7.3141 34.9771 7.27908C35.9458 7.24407 36.8912 7.22656 37.8132 7.22656C37.8716 7.6584 37.9474 8.05522 38.0408 8.41703C38.1342 8.77884 38.2217 9.15233 38.3034 9.53748C38.2451 9.59584 38.1459 9.62501 38.0058 9.62501C37.8541 9.62501 37.7724 9.58416 37.7607 9.50247C37.574 8.81386 37.3114 8.37618 36.9729 8.18944C36.6344 8.0027 36.2376 7.90933 35.7824 7.90933H34.3118C34.2418 7.90933 34.1134 7.91517 33.9267 7.92684C33.7399 7.92684 33.5649 7.93851 33.4015 7.96185C33.2381 7.9852 33.1447 8.02605 33.1214 8.0844C33.0863 8.20112 33.063 8.35284 33.0513 8.53958C33.0513 8.72632 33.0513 8.9189 33.0513 9.11731C33.0513 9.19901 33.0513 9.2632 33.0513 9.30989V12.4962C33.0513 12.5428 33.1272 12.572 33.2789 12.5837C33.4307 12.5954 33.5999 12.6012 33.7866 12.6012H34.6795C35.088 12.6012 35.4031 12.5895 35.6249 12.5662C35.8583 12.5428 36.0275 12.4903 36.1326 12.4086C36.2376 12.3269 36.3193 12.2044 36.3777 12.041C36.436 11.8776 36.5002 11.6558 36.5702 11.3757C36.5819 11.294 36.6636 11.2532 36.8153 11.2532C36.9554 11.2532 37.0546 11.2823 37.1129 11.3407V14.562C37.0663 14.6087 36.9729 14.632 36.8328 14.632C36.6928 14.632 36.6052 14.5912 36.5702 14.5095C36.4885 14.1827 36.4185 13.9492 36.3601 13.8092C36.3135 13.6574 36.2668 13.5582 36.2201 13.5116C36.1851 13.4532 36.1384 13.4065 36.08 13.3715C36.0217 13.3248 35.8875 13.2956 35.6774 13.284C35.4673 13.2606 35.2339 13.249 34.9771 13.249C34.732 13.2373 34.4986 13.2314 34.2768 13.2314C34.1251 13.2314 33.95 13.2373 33.7516 13.249C33.5649 13.249 33.4015 13.2606 33.2614 13.284C33.1214 13.2956 33.0513 13.3307 33.0513 13.389V16.6453C33.0513 16.6686 33.0513 16.7037 33.0513 16.7503C33.0513 16.9137 33.0513 17.1238 33.0513 17.3806C33.063 17.6374 33.0922 17.7833 33.1389 17.8183C33.2556 17.9 33.3956 17.9525 33.559 17.9758C33.7341 17.9875 34.0025 17.9933 34.3644 17.9933H35.1872C35.5957 17.9933 35.9983 17.9525 36.3952 17.8708C36.792 17.7891 37.1071 17.6724 37.3405 17.5206C37.609 17.3572 37.8191 17.1238 37.9708 16.8204C38.1225 16.5052 38.2684 16.1668 38.4085 15.805C38.4318 15.7349 38.5135 15.6999 38.6536 15.6999C38.8636 15.6999 39.0037 15.7349 39.0737 15.805C38.9103 16.2718 38.7294 16.7678 38.531 17.2931C38.3443 17.8183 38.2217 18.2676 38.1634 18.6411C37.2413 18.6411 36.3251 18.6294 35.4148 18.6061C34.5044 18.5827 33.4773 18.5711 32.3335 18.5711C31.9367 18.5711 31.5807 18.5769 31.2656 18.5886C30.9505 18.6119 30.6237 18.6236 30.2852 18.6236C30.2386 18.5769 30.2152 18.4952 30.2152 18.3785C30.2269 18.2618 30.2502 18.1801 30.2852 18.1334C30.3553 18.1334 30.4836 18.1276 30.6704 18.1159C30.8571 18.0925 31.0322 18.0575 31.1956 18.0108C31.3707 17.9642 31.464 17.9116 31.4757 17.8533C31.5224 17.7132 31.5457 17.5323 31.5457 17.3106C31.5574 17.0888 31.5632 16.8495 31.5632 16.5928V9.29238C31.5632 9.03561 31.5574 8.79635 31.5457 8.5746C31.5457 8.34117 31.5224 8.15443 31.4757 8.01437C31.464 7.94435 31.3707 7.89183 31.1956 7.85681C31.0322 7.8218 30.8571 7.79846 30.6704 7.78678C30.4836 7.76344 30.3553 7.75177 30.2852 7.75177C30.2502 7.70509 30.2269 7.62339 30.2152 7.50667C30.2152 7.38996 30.2386 7.30826 30.2852 7.26158C30.6354 7.27325 30.9797 7.29075 31.3181 7.3141C31.6566 7.32577 31.9892 7.3316 32.316 7.3316Z" fill="#EFEFEF"/>
<path d="M45.8181 7.29659C46.2033 7.29659 46.6001 7.36078 47.0086 7.48917C47.4171 7.61755 47.7906 7.80429 48.1291 8.04939C48.4792 8.29449 48.7593 8.60378 48.9694 8.97726C49.1795 9.33907 49.2845 9.76507 49.2845 10.2553C49.2845 10.6638 49.1678 11.0606 48.9344 11.4457C48.7126 11.8309 48.4208 12.1694 48.059 12.4611C47.7089 12.7529 47.3412 12.963 46.9561 13.0914C47.2595 13.5933 47.5513 14.0543 47.8314 14.4744C48.1116 14.8946 48.4033 15.3148 48.7068 15.7349C49.0102 16.1434 49.3487 16.5986 49.7222 17.1005C49.9673 17.4273 50.2299 17.6724 50.51 17.8358C50.8018 17.9992 51.1811 18.0984 51.648 18.1334C51.6946 18.1801 51.7063 18.2676 51.683 18.396C51.6596 18.5244 51.6421 18.6002 51.6304 18.6236C51.0586 18.6236 50.58 18.6061 50.1949 18.5711C49.8214 18.5244 49.5471 18.4719 49.3721 18.4135C49.2553 18.3668 49.0919 18.2968 48.8819 18.2034C48.6718 18.0984 48.4675 17.9175 48.2691 17.6607C48.1991 17.5673 48.0707 17.3864 47.884 17.118C47.6972 16.8495 47.4755 16.5228 47.2187 16.1376C46.9619 15.7524 46.6877 15.344 46.3959 14.9121C46.1041 14.4686 45.824 14.0368 45.5555 13.6166C45.4622 13.4765 45.2871 13.4065 45.0303 13.4065H44.1375V16.5928C44.1375 16.6278 44.1375 16.6628 44.1375 16.6978C44.1375 16.7328 44.1375 16.7678 44.1375 16.8029C44.1375 17.0246 44.1375 17.2289 44.1375 17.4156C44.1491 17.5907 44.1725 17.7366 44.2075 17.8533C44.2308 17.9116 44.3242 17.9642 44.4876 18.0108C44.651 18.0575 44.8261 18.0925 45.0128 18.1159C45.1996 18.1276 45.3279 18.1334 45.398 18.1334C45.433 18.1801 45.4505 18.2618 45.4505 18.3785C45.4622 18.4952 45.4447 18.5769 45.398 18.6236C45.0478 18.6002 44.7094 18.5827 44.3826 18.5711C44.0674 18.5477 43.7407 18.5361 43.4022 18.5361C43.0754 18.5361 42.7428 18.5477 42.4043 18.5711C42.0658 18.5827 41.7215 18.6002 41.3714 18.6236C41.3247 18.5769 41.3013 18.4952 41.3013 18.3785C41.313 18.2618 41.3364 18.1801 41.3714 18.1334C41.4414 18.1334 41.5698 18.1276 41.7565 18.1159C41.9433 18.0925 42.1183 18.0575 42.2817 18.0108C42.4568 17.9642 42.5502 17.9116 42.5619 17.8533C42.6085 17.7132 42.6319 17.5323 42.6319 17.3106C42.6435 17.0888 42.6494 16.8495 42.6494 16.5928L42.6319 9.29238C42.6319 9.03561 42.626 8.79635 42.6144 8.5746C42.6144 8.34117 42.591 8.15443 42.5443 8.01437C42.5327 7.94435 42.4393 7.89183 42.2642 7.85681C42.1008 7.8218 41.9258 7.79846 41.739 7.78678C41.564 7.76344 41.4414 7.75177 41.3714 7.75177C41.3364 7.70509 41.313 7.62339 41.3013 7.50667C41.3013 7.38996 41.3247 7.30826 41.3714 7.26158C41.7215 7.27325 42.06 7.29075 42.3868 7.3141C42.7252 7.32577 43.0579 7.3316 43.3847 7.3316C43.7231 7.3316 44.085 7.32577 44.4701 7.3141C44.8669 7.30243 45.3163 7.29659 45.8181 7.29659ZM47.6914 10.4128C47.6914 9.66586 47.4871 9.05312 47.0786 8.5746C46.6818 8.09607 46.0107 7.85681 45.0653 7.85681C44.9603 7.85681 44.7969 7.86265 44.5751 7.87432C44.3651 7.88599 44.2425 7.93268 44.2075 8.01437C44.1608 8.11942 44.1316 8.30032 44.12 8.55709C44.12 8.80219 44.12 9.05312 44.12 9.30989L44.1375 12.8813H45.0478C45.4913 12.8813 45.9115 12.7821 46.3083 12.5837C46.7168 12.3736 47.0495 12.0877 47.3062 11.7258C47.563 11.3524 47.6914 10.9147 47.6914 10.4128Z" fill="#EFEFEF"/>
<path d="M81.1484 7.1875C81.7086 7.1875 82.2922 7.21084 82.8991 7.25753C83.5177 7.30421 84.1421 7.39758 84.7723 7.53764C84.7723 7.53764 84.7898 7.66019 84.8248 7.90529C84.8715 8.13871 84.9182 8.41882 84.9649 8.74562C85.0116 9.06074 85.0524 9.35253 85.0875 9.62097C85.1341 9.87773 85.1575 10.0295 85.1575 10.0761C85.1691 10.1228 85.1341 10.1695 85.0524 10.2162C84.9707 10.2629 84.8832 10.2862 84.7898 10.2862C84.7081 10.2862 84.6381 10.2687 84.5797 10.2337C84.5564 10.1053 84.498 9.90691 84.4047 9.63847C84.323 9.37003 84.1654 9.08992 83.932 8.79814C83.7102 8.50636 83.3834 8.26126 82.9516 8.06285C82.5198 7.85276 81.9479 7.74772 81.2359 7.74772C80.6057 7.74772 80.0338 7.89361 79.5202 8.1854C79.0067 8.46551 78.5632 8.85066 78.1897 9.34085C77.8279 9.81938 77.5478 10.3563 77.3494 10.9515C77.1626 11.5351 77.0693 12.1245 77.0693 12.7197C77.0693 13.385 77.1568 14.0386 77.3319 14.6805C77.5186 15.3224 77.7929 15.906 78.1547 16.4312C78.5282 16.9447 78.9892 17.359 79.5377 17.6742C80.098 17.9776 80.7516 18.1293 81.4985 18.1293C82.0237 18.1293 82.4672 18.0476 82.8291 17.8842C83.2025 17.7208 83.5118 17.5283 83.7569 17.3065C84.0954 17.0031 84.3405 16.6646 84.4922 16.2911C84.6439 15.9176 84.749 15.5908 84.8073 15.3107C85.0058 15.2874 85.1867 15.3341 85.3501 15.4508C85.3501 15.5325 85.3267 15.6959 85.28 15.941C85.245 16.1861 85.1983 16.4545 85.14 16.7463C85.0816 17.0264 85.0174 17.2773 84.9474 17.4991C84.8774 17.7208 84.8132 17.8609 84.7548 17.9193C84.288 18.176 83.7569 18.3686 83.1617 18.497C82.5664 18.6254 81.872 18.6896 81.0784 18.6896C80.238 18.6896 79.4677 18.5437 78.7674 18.2519C78.0672 17.9484 77.4603 17.5399 76.9467 17.0264C76.4449 16.5012 76.0539 15.906 75.7738 15.2407C75.5053 14.5638 75.3711 13.846 75.3711 13.0873C75.3711 12.282 75.5111 11.5292 75.7913 10.8289C76.083 10.117 76.4857 9.48675 76.9992 8.9382C77.5128 8.38964 78.1197 7.96364 78.82 7.66019C79.5319 7.34506 80.3081 7.1875 81.1484 7.1875Z" fill="#EFEFEF"/>
<path d="M92.3389 7.31005C92.724 7.31005 93.1209 7.37424 93.5294 7.50263C93.9378 7.63101 94.3113 7.81775 94.6498 8.06285C94.9999 8.30794 95.28 8.61723 95.4901 8.99072C95.7002 9.35253 95.8053 9.77853 95.8053 10.2687C95.8053 10.6772 95.6885 11.074 95.4551 11.4592C95.2334 11.8443 94.9416 12.1828 94.5798 12.4746C94.2296 12.7664 93.862 12.9765 93.4768 13.1048C93.7803 13.6067 94.0721 14.0677 94.3522 14.4879C94.6323 14.9081 94.9241 15.3282 95.2275 15.7484C95.531 16.1569 95.8694 16.6121 96.2429 17.1139C96.488 17.4407 96.7506 17.6858 97.0307 17.8492C97.3225 18.0126 97.7018 18.1118 98.1687 18.1468C98.2154 18.1935 98.2271 18.2811 98.2037 18.4095C98.1804 18.5378 98.1629 18.6137 98.1512 18.637C97.5793 18.637 97.1008 18.6195 96.7156 18.5845C96.3421 18.5378 96.0679 18.4853 95.8928 18.427C95.7761 18.3803 95.6127 18.3102 95.4026 18.2169C95.1925 18.1118 94.9883 17.9309 94.7899 17.6742C94.7198 17.5808 94.5914 17.3999 94.4047 17.1314C94.218 16.863 93.9962 16.5362 93.7394 16.1511C93.4827 15.7659 93.2084 15.3574 92.9166 14.9256C92.6248 14.4821 92.3447 14.0502 92.0763 13.6301C91.9829 13.49 91.8078 13.42 91.5511 13.42H90.6582V16.6062C90.6582 16.6413 90.6582 16.6763 90.6582 16.7113C90.6582 16.7463 90.6582 16.7813 90.6582 16.8163C90.6582 17.0381 90.6582 17.2423 90.6582 17.4291C90.6699 17.6041 90.6932 17.75 90.7282 17.8667C90.7516 17.9251 90.845 17.9776 91.0084 18.0243C91.1718 18.071 91.3468 18.106 91.5336 18.1293C91.7203 18.141 91.8487 18.1468 91.9187 18.1468C91.9537 18.1935 91.9712 18.2752 91.9712 18.3919C91.9829 18.5087 91.9654 18.5904 91.9187 18.637C91.5686 18.6137 91.2301 18.5962 90.9033 18.5845C90.5882 18.5612 90.2614 18.5495 89.9229 18.5495C89.5961 18.5495 89.2635 18.5612 88.925 18.5845C88.5866 18.5962 88.2423 18.6137 87.8921 18.637C87.8454 18.5904 87.8221 18.5087 87.8221 18.3919C87.8338 18.2752 87.8571 18.1935 87.8921 18.1468C87.9621 18.1468 88.0905 18.141 88.2773 18.1293C88.464 18.106 88.6391 18.071 88.8025 18.0243C88.9775 17.9776 89.0709 17.9251 89.0826 17.8667C89.1293 17.7267 89.1526 17.5458 89.1526 17.324C89.1643 17.1023 89.1701 16.863 89.1701 16.6062L89.1526 9.30584C89.1526 9.04907 89.1468 8.80981 89.1351 8.58806C89.1351 8.35463 89.1118 8.16789 89.0651 8.02783C89.0534 7.95781 88.96 7.90528 88.785 7.87027C88.6216 7.83526 88.4465 7.81191 88.2598 7.80024C88.0847 7.7769 87.9621 7.76523 87.8921 7.76523C87.8571 7.71854 87.8338 7.63684 87.8221 7.52013C87.8221 7.40342 87.8454 7.32172 87.8921 7.27503C88.2423 7.28671 88.5807 7.30421 88.9075 7.32756C89.246 7.33923 89.5786 7.34506 89.9054 7.34506C90.2439 7.34506 90.6057 7.33923 90.9908 7.32756C91.3877 7.31588 91.837 7.31005 92.3389 7.31005ZM94.2121 10.4263C94.2121 9.67932 94.0079 9.06658 93.5994 8.58806C93.2026 8.10953 92.5315 7.87027 91.5861 7.87027C91.481 7.87027 91.3176 7.87611 91.0959 7.88778C90.8858 7.89945 90.7633 7.94613 90.7282 8.02783C90.6816 8.13287 90.6524 8.31378 90.6407 8.57055C90.6407 8.81565 90.6407 9.06658 90.6407 9.32335L90.6582 12.8948H91.5686C92.0121 12.8948 92.4323 12.7956 92.8291 12.5971C93.2376 12.3871 93.5702 12.1011 93.827 11.7393C94.0837 11.3658 94.2121 10.9282 94.2121 10.4263Z" fill="#EFEFEF"/>
<path d="M101.59 7.34506C102.396 7.34506 103.283 7.32756 104.251 7.29254C105.22 7.25753 106.165 7.24002 107.088 7.24002C107.146 7.67186 107.222 8.06868 107.315 8.43049C107.408 8.7923 107.496 9.16578 107.578 9.55094C107.519 9.60929 107.42 9.63847 107.28 9.63847C107.128 9.63847 107.047 9.59762 107.035 9.51592C106.848 8.82732 106.586 8.38964 106.247 8.2029C105.909 8.01616 105.512 7.92279 105.057 7.92279H103.586C103.516 7.92279 103.388 7.92863 103.201 7.9403C103.014 7.9403 102.839 7.95197 102.676 7.97531C102.512 7.99866 102.419 8.0395 102.396 8.09786C102.361 8.21457 102.337 8.3663 102.326 8.55304C102.326 8.73978 102.326 8.93236 102.326 9.13077C102.326 9.21247 102.326 9.27666 102.326 9.32335V12.5096C102.326 12.5563 102.402 12.5855 102.553 12.5971C102.705 12.6088 102.874 12.6147 103.061 12.6147H103.954C104.362 12.6147 104.677 12.603 104.899 12.5796C105.133 12.5563 105.302 12.5038 105.407 12.4221C105.512 12.3404 105.594 12.2178 105.652 12.0544C105.71 11.891 105.775 11.6693 105.845 11.3892C105.856 11.3075 105.938 11.2666 106.09 11.2666C106.23 11.2666 106.329 11.2958 106.387 11.3542V14.5754C106.341 14.6221 106.247 14.6455 106.107 14.6455C105.967 14.6455 105.88 14.6046 105.845 14.5229C105.763 14.1961 105.693 13.9627 105.634 13.8226C105.588 13.6709 105.541 13.5717 105.494 13.525C105.459 13.4667 105.413 13.42 105.354 13.385C105.296 13.3383 105.162 13.3091 104.952 13.2974C104.742 13.2741 104.508 13.2624 104.251 13.2624C104.006 13.2507 103.773 13.2449 103.551 13.2449C103.399 13.2449 103.224 13.2507 103.026 13.2624C102.839 13.2624 102.676 13.2741 102.536 13.2974C102.396 13.3091 102.326 13.3441 102.326 13.4025V16.6588C102.326 16.6821 102.326 16.7171 102.326 16.7638C102.326 16.9272 102.326 17.1373 102.326 17.3941C102.337 17.6508 102.366 17.7967 102.413 17.8317C102.53 17.9134 102.67 17.9659 102.833 17.9893C103.008 18.001 103.277 18.0068 103.639 18.0068H104.461C104.87 18.0068 105.273 17.9659 105.669 17.8842C106.066 17.8025 106.381 17.6858 106.615 17.5341C106.883 17.3707 107.093 17.1373 107.245 16.8338C107.397 16.5187 107.543 16.1802 107.683 15.8184C107.706 15.7484 107.788 15.7134 107.928 15.7134C108.138 15.7134 108.278 15.7484 108.348 15.8184C108.185 16.2853 108.004 16.7813 107.805 17.3065C107.619 17.8317 107.496 18.2811 107.438 18.6546C106.516 18.6546 105.599 18.6429 104.689 18.6195C103.779 18.5962 102.752 18.5845 101.608 18.5845C101.211 18.5845 100.855 18.5904 100.54 18.602C100.225 18.6254 99.898 18.637 99.5595 18.637C99.5129 18.5904 99.4895 18.5087 99.4895 18.3919C99.5012 18.2752 99.5245 18.1935 99.5595 18.1468C99.6296 18.1468 99.7579 18.141 99.9447 18.1293C100.131 18.106 100.307 18.071 100.47 18.0243C100.645 17.9776 100.738 17.9251 100.75 17.8667C100.797 17.7267 100.82 17.5458 100.82 17.324C100.832 17.1023 100.838 16.863 100.838 16.6062V9.30584C100.838 9.04907 100.832 8.80981 100.82 8.58806C100.82 8.35463 100.797 8.16789 100.75 8.02783C100.738 7.95781 100.645 7.90528 100.47 7.87027C100.307 7.83526 100.131 7.81191 99.9447 7.80024C99.7579 7.7769 99.6296 7.76523 99.5595 7.76523C99.5245 7.71854 99.5012 7.63684 99.4895 7.52013C99.4895 7.40342 99.5129 7.32172 99.5595 7.27503C99.9097 7.28671 100.254 7.30421 100.592 7.32756C100.931 7.33923 101.264 7.34506 101.59 7.34506Z" fill="#EFEFEF"/>
<path d="M112.676 7.34506C113.482 7.34506 114.369 7.32756 115.338 7.29254C116.306 7.25753 117.252 7.24002 118.174 7.24002C118.232 7.67186 118.308 8.06868 118.401 8.43049C118.495 8.7923 118.582 9.16578 118.664 9.55094C118.605 9.60929 118.506 9.63847 118.366 9.63847C118.215 9.63847 118.133 9.59762 118.121 9.51592C117.934 8.82732 117.672 8.38964 117.333 8.2029C116.995 8.01616 116.598 7.92279 116.143 7.92279H114.672C114.602 7.92279 114.474 7.92863 114.287 7.9403C114.1 7.9403 113.925 7.95197 113.762 7.97531C113.599 7.99866 113.505 8.0395 113.482 8.09786C113.447 8.21457 113.423 8.3663 113.412 8.55304C113.412 8.73978 113.412 8.93236 113.412 9.13077C113.412 9.21247 113.412 9.27666 113.412 9.32335V12.5096C113.412 12.5563 113.488 12.5855 113.639 12.5971C113.791 12.6088 113.96 12.6147 114.147 12.6147H115.04C115.448 12.6147 115.764 12.603 115.985 12.5796C116.219 12.5563 116.388 12.5038 116.493 12.4221C116.598 12.3404 116.68 12.2178 116.738 12.0544C116.796 11.891 116.861 11.6693 116.931 11.3892C116.942 11.3075 117.024 11.2666 117.176 11.2666C117.316 11.2666 117.415 11.2958 117.473 11.3542V14.5754C117.427 14.6221 117.333 14.6455 117.193 14.6455C117.053 14.6455 116.966 14.6046 116.931 14.5229C116.849 14.1961 116.779 13.9627 116.721 13.8226C116.674 13.6709 116.627 13.5717 116.581 13.525C116.546 13.4667 116.499 13.42 116.44 13.385C116.382 13.3383 116.248 13.3091 116.038 13.2974C115.828 13.2741 115.594 13.2624 115.338 13.2624C115.092 13.2507 114.859 13.2449 114.637 13.2449C114.486 13.2449 114.31 13.2507 114.112 13.2624C113.925 13.2624 113.762 13.2741 113.622 13.2974C113.482 13.3091 113.412 13.3441 113.412 13.4025V16.6588C113.412 16.6821 113.412 16.7171 113.412 16.7638C113.412 16.9272 113.412 17.1373 113.412 17.3941C113.423 17.6508 113.453 17.7967 113.499 17.8317C113.616 17.9134 113.756 17.9659 113.919 17.9893C114.095 18.001 114.363 18.0068 114.725 18.0068H115.548C115.956 18.0068 116.359 17.9659 116.756 17.8842C117.152 17.8025 117.468 17.6858 117.701 17.5341C117.969 17.3707 118.179 17.1373 118.331 16.8338C118.483 16.5187 118.629 16.1802 118.769 15.8184C118.792 15.7484 118.874 15.7134 119.014 15.7134C119.224 15.7134 119.364 15.7484 119.434 15.8184C119.271 16.2853 119.09 16.7813 118.891 17.3065C118.705 17.8317 118.582 18.2811 118.524 18.6546C117.602 18.6546 116.686 18.6429 115.775 18.6195C114.865 18.5962 113.838 18.5845 112.694 18.5845C112.297 18.5845 111.941 18.5904 111.626 18.602C111.311 18.6254 110.984 18.637 110.646 18.637C110.599 18.5904 110.576 18.5087 110.576 18.3919C110.587 18.2752 110.611 18.1935 110.646 18.1468C110.716 18.1468 110.844 18.141 111.031 18.1293C111.218 18.106 111.393 18.071 111.556 18.0243C111.731 17.9776 111.824 17.9251 111.836 17.8667C111.883 17.7267 111.906 17.5458 111.906 17.324C111.918 17.1023 111.924 16.863 111.924 16.6062V9.30584C111.924 9.04907 111.918 8.80981 111.906 8.58806C111.906 8.35463 111.883 8.16789 111.836 8.02783C111.824 7.95781 111.731 7.90528 111.556 7.87027C111.393 7.83526 111.218 7.81191 111.031 7.80024C110.844 7.7769 110.716 7.76523 110.646 7.76523C110.611 7.71854 110.587 7.63684 110.576 7.52013C110.576 7.40342 110.599 7.32172 110.646 7.27503C110.996 7.28671 111.34 7.30421 111.679 7.32756C112.017 7.33923 112.35 7.34506 112.676 7.34506Z" fill="#EFEFEF"/>
<path d="M62.6786 0.1875L71.2132 18.5698H55.6758L65.5234 2.15703" stroke="#EFEFEF" stroke-width="0.875347"/>
</svg>
