<svg width="192" height="38" viewBox="0 0 192 38" fill="none" xmlns="http://www.w3.org/2000/svg">
<path d="M18.1758 30.1009V1.35791C18.1758 0.934421 18.6338 0.669345 19.001 0.880294L30.8435 7.68344C31.0145 7.78167 31.1199 7.96384 31.1199 8.16105V36.652C31.1199 37.0716 30.6696 37.3371 30.3025 37.134L18.46 30.5828C18.2846 30.4858 18.1758 30.3013 18.1758 30.1009Z" fill="#FF5050"/>
<path d="M9.91406 28.1779V7.36419C9.91406 6.95371 10.3469 6.68745 10.7133 6.87256L22.6935 12.9257C22.879 13.0194 22.9959 13.2095 22.9959 13.4173V34.8616C22.9959 35.282 22.5439 35.5474 22.1767 35.3426L10.1965 28.6589C10.0221 28.5616 9.91406 28.3776 9.91406 28.1779Z" fill="white"/>
<path d="M8.125 29.6857V8.872C8.125 8.46152 8.55785 8.19526 8.92421 8.38038L20.9044 14.4335C21.0899 14.5272 21.2068 14.7174 21.2068 14.9252V36.3694C21.2068 36.7898 20.7548 37.0552 20.3877 36.8504L8.40746 30.1667C8.23307 30.0694 8.125 29.8854 8.125 29.6857Z" fill="#0A5AC9"/>
<path d="M1.37891 30.6482V16.5068C1.37891 16.0832 1.83708 15.8181 2.20429 16.0293L12.1189 21.7302C12.2898 21.8285 12.3952 22.0106 12.3952 22.2077V35.9773C12.3952 36.3939 11.9506 36.6598 11.5836 36.4625L1.66894 31.1334C1.49033 31.0374 1.37891 30.851 1.37891 30.6482Z" fill="white"/>
<path d="M0 31.1951V17.0537C0 16.6301 0.458172 16.365 0.82538 16.5762L10.74 22.2771C10.9109 22.3753 11.0163 22.5575 11.0163 22.7546V36.5242C11.0163 36.9408 10.5717 37.2066 10.2047 37.0094L0.290035 31.6803C0.11142 31.5843 0 31.3979 0 31.1951Z" fill="#39CC59"/>
<path d="M58.5914 37.3123L53.0251 7.84375H58.3458L64.3214 37.3123H58.5914ZM44.8394 37.3123L39.1094 7.84375H45.6579L51.3879 37.3123H44.8394ZM47.0495 37.3123L53.0251 7.84375H58.3458L52.7795 37.3123H47.0495ZM59.9829 37.3123L65.7129 7.84375H72.2615L66.5315 37.3123H59.9829Z" fill="#0A5AC9"/>
<path d="M75.5502 37.3123V7.84375H82.3443V37.3123H75.5502Z" fill="#0A5AC9"/>
<path d="M100.421 37.3123L88.7564 7.84375H94.4864L106.151 37.3123H100.421ZM87.6513 37.3123V7.84375H94.4454V37.3123H87.6513ZM102.017 37.3123V7.84375H108.811V37.3123H102.017Z" fill="#0A5AC9"/>
<path d="M126.481 37.3123L114.816 7.84375H120.546L132.211 37.3123H126.481ZM113.711 37.3123V7.84375H120.505V37.3123H113.711ZM128.077 37.3123V7.84375H134.871V37.3123H128.077Z" fill="#0A5AC9"/>
<path d="M140.181 37.3123V7.84375H146.975V37.3123H140.181Z" fill="#0A5AC9"/>
<path d="M150.645 13.0007V7.84375H170.7V13.0007H150.645ZM157.275 37.3123V7.84375H164.069V37.3123H157.275Z" fill="#0A5AC9"/>
<path d="M176.981 32.7283V27.5713H187.458V32.7283H176.981ZM184.593 7.84375L177.267 37.3123H170.719L178.045 7.84375H184.593ZM184.675 7.84375L192.002 37.3123H185.453L178.127 7.84375H184.675Z" fill="#0A5AC9"/>
</svg>
