<svg width="166" height="26" viewBox="0 0 166 26" fill="none" xmlns="http://www.w3.org/2000/svg">
<path d="M0 9.09375C0 4.34755 3.84611 0.5 8.59052 0.5H104.388C109.132 0.5 112.978 4.34755 112.978 9.09375V16.9062C112.978 21.6524 109.132 25.5 104.388 25.5H8.59052C3.84611 25.5 0 21.6524 0 16.9062V9.09375Z" fill="#FF5250"/>
<path d="M117.885 20.1689C117.247 20.1689 116.765 20.0827 116.437 19.9103C116.127 19.7379 115.92 19.5396 115.817 19.3154C115.713 19.0913 115.662 18.893 115.662 18.7206C115.662 18.5482 115.662 18.462 115.662 18.462L115.351 7.2375C115.351 7.2375 115.343 7.15129 115.326 6.97887C115.308 6.80645 115.343 6.60817 115.429 6.38402C115.515 6.14264 115.696 5.93573 115.972 5.76331C116.248 5.57365 116.679 5.47882 117.265 5.47882C118.04 5.46158 118.626 5.57366 119.023 5.81504C119.419 6.03919 119.677 6.27195 119.798 6.51334C119.936 6.73748 120.005 6.84955 120.005 6.84955L122.978 12.2549C122.978 12.2549 123.047 12.0997 123.185 11.7894C123.34 11.4618 123.521 11.0566 123.728 10.5738C123.952 10.091 124.176 9.59964 124.4 9.09962C124.624 8.59961 124.822 8.16856 124.995 7.80648C125.167 7.42716 125.279 7.18577 125.331 7.08232C125.417 6.9099 125.572 6.67714 125.796 6.38402C126.02 6.07367 126.339 5.78918 126.753 5.53055C127.184 5.27192 127.744 5.13399 128.433 5.11674C128.95 5.0995 129.347 5.15985 129.622 5.29778C129.898 5.41848 130.088 5.56503 130.191 5.73745C130.312 5.90987 130.381 6.06505 130.398 6.20298C130.415 6.34092 130.424 6.40989 130.424 6.40989C130.424 6.40989 130.424 6.63403 130.424 7.08232C130.424 7.51337 130.424 8.09097 130.424 8.81513C130.441 9.53929 130.45 10.3324 130.45 11.1945C130.45 12.0566 130.45 12.9273 130.45 13.8067C130.45 14.6688 130.45 15.4619 130.45 16.186C130.467 16.9102 130.475 17.4964 130.475 17.9447C130.475 18.393 130.475 18.6258 130.475 18.643C130.475 18.6603 130.467 18.7465 130.45 18.9016C130.45 19.0568 130.389 19.2379 130.269 19.4448C130.148 19.6344 129.933 19.8068 129.622 19.962C129.329 20.1 128.89 20.1689 128.304 20.1689C127.718 20.1689 127.27 20.1086 126.959 19.9879C126.666 19.8499 126.46 19.7034 126.339 19.5482C126.218 19.3758 126.149 19.2292 126.132 19.1085C126.115 18.9879 126.106 18.9275 126.106 18.9275C126.106 18.9275 126.106 18.7809 126.106 18.4878C126.106 18.1775 126.106 17.7982 126.106 17.3499C126.124 16.8843 126.132 16.4274 126.132 15.9791C126.149 15.5136 126.158 15.1257 126.158 14.8153C126.158 14.505 126.158 14.3498 126.158 14.3498L126.365 10.6514L125.02 13.5222C125.02 13.5222 124.969 13.617 124.865 13.8067C124.779 13.9963 124.607 14.186 124.348 14.3756C124.09 14.5653 123.702 14.6688 123.185 14.686C122.685 14.7032 122.289 14.6343 121.996 14.4791C121.72 14.3067 121.522 14.1429 121.401 13.9877C121.298 13.8153 121.246 13.7291 121.246 13.7291L119.565 10.6514C119.565 10.6514 119.574 10.8583 119.591 11.2721C119.626 11.6687 119.66 12.1945 119.695 12.8497C119.729 13.4877 119.764 14.1687 119.798 14.8929C119.833 15.5998 119.858 16.2723 119.876 16.9102C119.91 17.5309 119.936 18.0309 119.953 18.4102C119.97 18.8758 119.876 19.2379 119.669 19.4965C119.462 19.7379 119.221 19.9103 118.945 20.0137C118.669 20.1 118.419 20.1517 118.195 20.1689C117.988 20.1689 117.885 20.1689 117.885 20.1689Z" fill="white"/>
<path d="M134.295 6.20298C134.278 6.20298 134.304 6.10815 134.373 5.91849C134.459 5.71159 134.648 5.51331 134.941 5.32365C135.234 5.13399 135.717 5.03053 136.389 5.01329C136.992 4.99605 137.449 5.07364 137.759 5.24606C138.07 5.40124 138.276 5.55641 138.38 5.71159C138.501 5.86677 138.561 5.94436 138.561 5.94436C138.561 5.94436 138.656 6.1685 138.845 6.61679C139.035 7.06508 139.293 7.65992 139.621 8.40133C139.948 9.12549 140.31 9.93585 140.707 10.8324C141.103 11.729 141.499 12.6428 141.896 13.5739C142.31 14.4877 142.689 15.3498 143.033 16.1602C143.395 16.9533 143.697 17.6257 143.938 18.1775C144.18 18.712 144.335 19.0482 144.404 19.1861C144.559 19.5137 144.645 19.7465 144.662 19.8844C144.679 20.0224 144.671 20.1172 144.636 20.1689C144.619 20.2034 144.61 20.2293 144.61 20.2465C144.49 20.4879 144.249 20.6948 143.887 20.8672C143.542 21.0569 143.12 21.1603 142.62 21.1776C141.93 21.1948 141.431 21.1172 141.12 20.9448C140.81 20.7896 140.603 20.6258 140.5 20.4534C140.414 20.2982 140.379 20.2293 140.396 20.2465C140.396 20.2465 140.302 20.0482 140.112 19.6517C139.94 19.2551 139.733 18.7809 139.492 18.2292C139.25 17.6602 139.026 17.143 138.819 16.6774C138.819 16.6774 138.699 16.6774 138.457 16.6774C138.233 16.6774 137.966 16.6774 137.656 16.6774C137.346 16.6774 137.07 16.6774 136.829 16.6774C136.605 16.6774 136.493 16.6774 136.493 16.6774C136.424 16.9188 136.355 17.2206 136.286 17.5826C136.217 17.9275 136.156 18.2378 136.105 18.5137C136.053 18.7896 136.027 18.9275 136.027 18.9275C136.027 18.9275 135.984 19.031 135.898 19.2379C135.829 19.4448 135.631 19.6517 135.303 19.8586C134.976 20.0655 134.433 20.1689 133.675 20.1689C133.106 20.1689 132.675 20.1086 132.382 19.9879C132.106 19.8499 131.917 19.6948 131.813 19.5224C131.727 19.3499 131.684 19.2034 131.684 19.0827C131.684 18.9447 131.684 18.8758 131.684 18.8758C131.718 18.7034 131.787 18.3499 131.891 17.8154C132.011 17.2637 132.149 16.6085 132.304 15.8498C132.477 15.0739 132.649 14.255 132.821 13.3929C133.011 12.5308 133.192 11.6773 133.364 10.8324C133.537 9.98758 133.692 9.22032 133.83 8.53064C133.968 7.82372 134.08 7.26336 134.166 6.84955C134.252 6.41851 134.295 6.20298 134.295 6.20298ZM137.01 10.2893C136.992 10.3583 136.975 10.4962 136.958 10.7031L136.855 11.4273C136.82 11.8238 136.777 12.2463 136.725 12.6946C136.674 13.1428 136.622 13.5653 136.57 13.9618C136.536 14.1687 136.51 14.2981 136.493 14.3498H136.829C137.035 14.3498 137.26 14.3412 137.501 14.3239C137.742 14.3067 137.958 14.2981 138.147 14.2981C138.078 14.1601 138.018 13.9877 137.966 13.7808C137.932 13.5567 137.889 13.3498 137.837 13.1601C137.734 12.7635 137.613 12.3497 137.475 11.9187C137.354 11.4876 137.242 11.0824 137.139 10.7031C137.087 10.4962 137.044 10.3583 137.01 10.2893Z" fill="white"/>
<path d="M146.159 7.88407C145.935 7.91855 145.616 7.94442 145.202 7.96166C144.789 7.96166 144.367 7.93579 143.936 7.88407C143.505 7.83234 143.134 7.73751 142.824 7.59958C142.514 7.4444 142.341 7.22026 142.307 6.92714C142.29 6.63403 142.376 6.40127 142.565 6.22885C142.772 6.05643 143.014 5.92711 143.289 5.8409C143.565 5.73745 143.806 5.67711 144.013 5.65986C144.237 5.62538 144.349 5.60814 144.349 5.60814L151.588 4.9357C151.588 4.9357 151.709 4.9357 151.95 4.9357C152.191 4.91846 152.467 4.92708 152.777 4.96157C153.105 4.99605 153.398 5.08226 153.656 5.2202C153.915 5.34089 154.053 5.53917 154.07 5.81504C154.105 6.09091 154.018 6.32368 153.812 6.51334C153.622 6.68576 153.389 6.83231 153.114 6.95301C152.838 7.05646 152.596 7.13405 152.39 7.18577C152.183 7.22026 152.079 7.2375 152.079 7.2375L150.425 7.49613C150.494 7.92717 150.571 8.53926 150.657 9.33239C150.744 10.1083 150.83 10.9704 150.916 11.9187C151.002 12.867 151.08 13.798 151.149 14.7119C151.218 15.6257 151.269 16.4447 151.304 17.1688C151.355 17.893 151.381 18.4102 151.381 18.7206C151.381 19.1172 151.269 19.4189 151.045 19.6258C150.838 19.8155 150.589 19.9534 150.296 20.0396C150.02 20.1086 149.77 20.1517 149.546 20.1689C149.339 20.1689 149.236 20.1689 149.236 20.1689C149.236 20.1689 149.124 20.1689 148.899 20.1689C148.675 20.1517 148.417 20.0827 148.124 19.962C147.848 19.8413 147.598 19.6172 147.374 19.2896C147.167 18.962 147.064 18.4706 147.064 17.8154C147.064 17.2292 147.029 16.5136 146.96 15.6688C146.909 14.8239 146.84 13.9532 146.754 13.0566C146.667 12.1428 146.573 11.298 146.469 10.5221C146.383 9.74619 146.306 9.11687 146.237 8.63409C146.185 8.13408 146.159 7.88407 146.159 7.88407Z" fill="white"/>
<path d="M155.289 7.05646C155.289 7.05646 155.272 6.98749 155.238 6.84955C155.203 6.69438 155.212 6.51334 155.264 6.30644C155.333 6.09953 155.488 5.90987 155.729 5.73745C155.987 5.56503 156.392 5.45296 156.944 5.40124C157.496 5.34951 158.116 5.30641 158.805 5.27192C159.512 5.23744 160.184 5.20295 160.822 5.16847C161.477 5.13399 162.011 5.10812 162.425 5.09088C162.839 5.07364 163.045 5.06502 163.045 5.06502C163.045 5.06502 163.157 5.07364 163.381 5.09088C163.623 5.09088 163.899 5.12537 164.209 5.19433C164.536 5.24606 164.829 5.35813 165.088 5.53055C165.346 5.68573 165.501 5.91849 165.553 6.22885C165.605 6.5392 165.544 6.78059 165.372 6.95301C165.2 7.12542 164.993 7.25474 164.752 7.34095C164.51 7.40992 164.295 7.45302 164.105 7.47026C163.916 7.48751 163.821 7.49613 163.821 7.49613L159.684 7.72889C159.684 7.72889 159.71 7.84096 159.762 8.06511C159.814 8.28925 159.865 8.54788 159.917 8.84099C159.986 9.11686 160.029 9.35825 160.046 9.56515C160.064 9.75482 160.081 10.0048 160.098 10.3152C160.115 10.6083 160.133 10.8755 160.15 11.1169C160.167 11.3411 160.176 11.4531 160.176 11.4531H162.089C162.089 11.4531 162.184 11.4618 162.373 11.479C162.563 11.479 162.778 11.5135 163.02 11.5825C163.278 11.6342 163.502 11.7204 163.692 11.8411C163.881 11.9618 163.985 12.1428 164.002 12.3842C164.019 12.6946 163.898 12.9273 163.64 13.0825C163.399 13.2377 163.14 13.3411 162.864 13.3929C162.606 13.4273 162.442 13.4532 162.373 13.4704C162.321 13.4704 162.184 13.4791 161.96 13.4963C161.735 13.4963 161.486 13.4963 161.21 13.4963C160.951 13.4963 160.719 13.4963 160.512 13.4963C160.305 13.4963 160.202 13.4963 160.202 13.4963C160.202 13.4963 160.202 13.6256 160.202 13.8842C160.219 14.1256 160.236 14.4101 160.253 14.7377C160.27 15.0653 160.27 15.3498 160.253 15.5912C160.253 15.8153 160.245 16.0912 160.227 16.4188C160.21 16.7292 160.193 17.005 160.176 17.2464C160.158 17.4706 160.15 17.5826 160.15 17.5826L163.64 17.4533C163.64 17.4533 163.752 17.4533 163.976 17.4533C164.2 17.4361 164.467 17.4533 164.778 17.505C165.088 17.5568 165.364 17.6602 165.605 17.8154C165.846 17.9706 165.975 18.2033 165.993 18.5137C166.027 18.8241 165.941 19.0741 165.734 19.2637C165.527 19.4534 165.286 19.5913 165.01 19.6775C164.734 19.7637 164.485 19.8241 164.26 19.8586C164.054 19.8758 163.95 19.8844 163.95 19.8844L158.366 20.1689C158.366 20.1689 158.228 20.1689 157.952 20.1689C157.694 20.1862 157.392 20.1689 157.047 20.1172C156.703 20.0482 156.401 19.9189 156.143 19.7293C155.884 19.5224 155.763 19.212 155.781 18.7982C155.815 18.2464 155.85 17.3844 155.884 16.2119C155.919 15.0222 155.901 13.6342 155.832 12.048C155.763 10.4617 155.582 8.79789 155.289 7.05646Z" fill="white"/>
<path d="M18.3729 12.1572C17.3577 12.1572 16.6158 12.04 16.1472 11.8056C15.7047 11.5452 15.4183 11.2848 15.2882 11.0244C15.184 10.764 15.132 10.5947 15.132 10.5166C15.132 10.4384 15.0799 10.2822 14.9758 10.0478C14.8977 9.81345 14.7545 9.59209 14.5462 9.38376C14.338 9.14938 14.0647 9.0322 13.7262 9.0322C13.3878 9.00616 13.0624 9.24053 12.75 9.73532C12.4377 10.2301 12.1773 10.8291 11.9691 11.5322C11.7608 12.2093 11.6307 12.8603 11.5786 13.4853C11.5526 14.1103 11.6177 14.7483 11.7738 15.3994C11.9561 16.0504 12.2164 16.5973 12.5548 17.04C12.8932 17.4567 13.2967 17.678 13.7653 17.7041C14.4681 17.7301 14.8977 17.6259 15.0539 17.3916C15.2101 17.1312 15.2882 17.0009 15.2882 17.0009C15.2882 17.0009 15.3142 16.9228 15.3662 16.7666C15.4183 16.5843 15.5615 16.389 15.7958 16.1806C16.0561 15.9723 16.4596 15.803 17.0063 15.6728C17.5529 15.5166 18.3339 15.4515 19.3491 15.4775C20.3644 15.5036 21.0542 15.6338 21.4187 15.8681C21.7831 16.1025 21.9653 16.3629 21.9653 16.6494C21.9914 16.9358 21.9393 17.1832 21.8091 17.3916C21.679 17.5999 21.6139 17.7041 21.6139 17.7041C21.6139 17.7041 21.4317 17.8733 21.0672 18.2119C20.7028 18.5504 20.1691 18.9411 19.4663 19.3838C18.7894 19.8265 17.9564 20.2171 16.9672 20.5556C15.978 20.8942 14.8456 21.0634 13.57 21.0634C11.045 21.0634 9.0405 20.3733 7.55668 18.9931C6.0989 17.6129 5.31794 15.6598 5.21381 13.1338C5.16175 11.8838 5.38302 10.764 5.87763 9.77439C6.37223 8.7848 7.03605 7.95147 7.86907 7.27438C8.70209 6.57126 9.62622 6.03741 10.6415 5.67282C11.6567 5.2822 12.6459 5.06084 13.6091 5.00876C14.5983 4.95668 15.5355 5.09991 16.4205 5.43845C17.3056 5.75095 18.0996 6.18063 18.8025 6.72751C19.5313 7.27438 20.1171 7.8473 20.5596 8.44626C21.0021 9.04522 21.2495 9.60511 21.3015 10.1259C21.3536 10.6207 21.2364 11.0114 20.9501 11.2978C20.6898 11.5843 20.3514 11.7926 19.9348 11.9228C19.5444 12.027 19.1929 12.0921 18.8806 12.1181C18.5682 12.1442 18.399 12.1572 18.3729 12.1572Z" fill="white"/>
<path d="M31.5967 4.93063C32.8983 4.90459 34.0047 5.02178 34.9158 5.2822C35.8269 5.51657 36.5818 5.80303 37.1806 6.14157C37.7793 6.48011 38.2479 6.77959 38.5863 7.04001C38.9247 7.30043 39.172 7.43063 39.3282 7.43063C39.6145 7.45668 39.8228 7.5999 39.9529 7.86032C40.0831 8.0947 40.1482 8.21188 40.1482 8.21188C40.1482 8.21188 40.1872 8.4723 40.2653 8.99313C40.3434 9.51397 40.4345 10.178 40.5387 10.9853C40.6688 11.7926 40.786 12.639 40.8901 13.5244C40.9942 14.4098 41.0853 15.2431 41.1634 16.0244C41.2415 16.8056 41.2806 17.4176 41.2806 17.8603C41.2806 18.5895 41.2285 19.1754 41.1244 19.6181C41.0463 20.0608 40.786 20.3994 40.3434 20.6338C39.9009 20.8421 39.172 20.9853 38.1567 21.0634C37.4018 21.1155 36.8552 21.1025 36.5167 21.0244C36.1783 20.9463 35.9701 20.8551 35.892 20.7509C35.8139 20.6468 35.7748 20.5947 35.7748 20.5947C35.5405 20.777 35.1501 20.9072 34.6034 20.9853C34.0828 21.0374 33.5882 21.0634 33.1196 21.0634C32.651 21.0634 32.4167 21.0634 32.4167 21.0634C32.4167 21.0634 32.1174 21.0244 31.5186 20.9463C30.9199 20.8421 30.178 20.6468 29.2929 20.3603C28.4338 20.0478 27.5618 19.5921 26.6767 18.9931C25.8176 18.3681 25.1018 17.5478 24.5291 16.5322C23.9564 15.4905 23.683 14.2015 23.7091 12.665C23.7351 11.1286 24.0214 9.87855 24.5681 8.91501C25.1148 7.92543 25.7786 7.1572 26.5595 6.61032C27.3405 6.06345 28.1084 5.67282 28.8634 5.43845C29.6443 5.20407 30.2951 5.06084 30.8158 5.00876C31.3364 4.95668 31.5967 4.93063 31.5967 4.93063ZM34.5253 8.95407C34.3951 8.77178 34.1088 8.57647 33.6663 8.36813C33.2497 8.13376 32.8462 7.93845 32.4558 7.7822C32.0913 7.62595 31.9091 7.57386 31.9091 7.62595C31.9091 7.65199 31.7659 7.87334 31.4796 8.29001C31.2193 8.68063 30.9459 9.26657 30.6596 10.0478C30.3993 10.803 30.2561 11.7145 30.23 12.7822C30.204 13.8499 30.3472 14.7744 30.6596 15.5556C30.972 16.3369 31.3494 16.9358 31.792 17.3525C32.2605 17.7692 32.6901 17.9775 33.0805 17.9775C33.3669 17.9775 33.6402 17.8473 33.9005 17.5869C34.1609 17.3004 34.3821 16.9879 34.5644 16.6494C34.7466 16.2848 34.8897 15.9723 34.9939 15.7119C35.098 15.4515 35.1501 15.3213 35.1501 15.3213L34.5253 8.95407Z" fill="white"/>
<path d="M51.5547 14.8134C49.6023 14.7614 48.0795 14.5661 46.9861 14.2275C45.8928 13.889 45.1118 13.4853 44.6433 13.0166C44.2007 12.5478 43.9274 12.0921 43.8233 11.6494C43.7191 11.1806 43.6671 10.8161 43.6671 10.5556C43.6671 10.2952 43.7061 9.89157 43.7842 9.3447C43.8623 8.79782 44.1096 8.22491 44.5261 7.62595C44.9426 7.02699 45.6585 6.50616 46.6737 6.06345C47.715 5.62074 49.1858 5.37334 51.0862 5.32126C53.1687 5.26918 54.7697 5.38636 55.889 5.67282C57.0084 5.95928 57.8024 6.29782 58.271 6.68845C58.7656 7.07907 59.0649 7.43063 59.1691 7.74313C59.2732 8.02959 59.3252 8.17282 59.3252 8.17282C59.3252 8.51136 59.2862 8.86293 59.2081 9.22751C59.13 9.56605 58.8957 9.85251 58.5052 10.0869C58.1408 10.2952 57.503 10.3864 56.5919 10.3603C55.863 10.3343 55.3163 10.2692 54.9519 10.165C54.5874 10.0608 54.3141 9.94366 54.1319 9.81345C53.9757 9.6572 53.8065 9.50095 53.6243 9.3447C53.4681 9.18845 53.2208 9.05824 52.8824 8.95407C52.57 8.84991 52.0623 8.7848 51.3595 8.75876C50.5004 8.73272 49.8496 8.79782 49.4071 8.95407C48.9906 9.08428 48.7042 9.25355 48.548 9.46188C48.4179 9.67022 48.3398 9.85251 48.3138 10.0088C48.3138 10.139 48.3138 10.2041 48.3138 10.2041C48.3138 10.2041 48.3398 10.3082 48.3919 10.5166C48.47 10.7249 48.7303 10.9332 49.1728 11.1416C49.6414 11.3499 50.4744 11.4671 51.6719 11.4931C53.9366 11.5713 55.6678 11.7926 56.8652 12.1572C58.0887 12.4957 58.9478 12.8994 59.4424 13.3681C59.963 13.8369 60.2624 14.3056 60.3405 14.7744C60.4446 15.2171 60.4967 15.5687 60.4967 15.8291C60.4967 16.0895 60.4056 16.4931 60.2233 17.04C60.0672 17.5869 59.7157 18.1598 59.1691 18.7588C58.6224 19.3577 57.7763 19.8785 56.6309 20.3213C55.5116 20.764 54.0017 21.0114 52.1014 21.0634C50.0449 21.1155 48.4439 20.9983 47.2985 20.7119C46.1791 20.4254 45.3722 20.0869 44.8776 19.6963C44.409 19.3056 44.1226 18.9671 44.0185 18.6806C43.9144 18.3681 43.8623 18.2119 43.8623 18.2119C43.8623 17.8473 43.9014 17.4957 43.9794 17.1572C44.0836 16.8187 44.3179 16.5452 44.6823 16.3369C45.0728 16.1025 45.7106 15.9983 46.5957 16.0244C47.3506 16.0504 47.8972 16.1155 48.2357 16.2197C48.6001 16.3239 48.8734 16.4541 49.0557 16.6103C49.2379 16.7405 49.4071 16.8838 49.5633 17.04C49.7195 17.1963 49.9668 17.3265 50.3052 17.4306C50.6436 17.5348 51.1512 17.5999 51.8281 17.6259C52.6871 17.652 53.3249 17.5999 53.7414 17.4697C54.1839 17.3134 54.4833 17.1312 54.6395 16.9228C54.7957 16.7145 54.8738 16.5452 54.8738 16.415C54.8738 16.2588 54.8738 16.1806 54.8738 16.1806C54.8738 16.1806 54.8478 16.0765 54.7957 15.8681C54.7436 15.6338 54.4833 15.4124 54.0147 15.2041C53.5722 14.9697 52.7522 14.8395 51.5547 14.8134Z" fill="white"/>
<path d="M64.3316 18.6416L63.3945 9.73532C63.3945 9.73532 63.3294 9.60511 63.1992 9.3447C63.0951 9.05824 63.017 8.86293 62.9649 8.75876C62.9389 8.68063 62.8868 8.52438 62.8087 8.29001C62.7567 8.02959 62.8218 7.75615 63.004 7.4697C63.2122 7.18324 63.6548 6.97491 64.3316 6.8447C65.0345 6.71449 65.7634 6.67543 66.5183 6.72751C67.2732 6.77959 67.937 7.01397 68.5097 7.43063C69.1084 7.82126 69.4729 8.51136 69.6031 9.50095C69.7072 10.2301 69.8113 11.1025 69.9154 12.1181C70.0196 13.1077 70.1107 14.0843 70.1888 15.0478C70.2929 15.9853 70.371 16.7796 70.4231 17.4306C70.5012 18.0556 70.5402 18.3681 70.5402 18.3681C70.5402 18.3681 70.5532 18.5114 70.5792 18.7978C70.6053 19.0582 70.5662 19.3707 70.4621 19.7353C70.358 20.0739 70.0977 20.3864 69.6811 20.6728C69.2907 20.9332 68.6529 21.0634 67.7678 21.0634C66.8827 21.0634 66.2059 20.9463 65.7373 20.7119C65.2687 20.4515 64.9303 20.165 64.7221 19.8525C64.5399 19.54 64.4227 19.2666 64.3707 19.0322C64.3446 18.7718 64.3316 18.6416 64.3316 18.6416Z" fill="white"/>
<path d="M77.0838 21.0634C77.0838 21.0634 76.9146 21.0634 76.5761 21.0634C76.2377 21.0634 75.8472 21.0114 75.4047 20.9072C74.9882 20.803 74.6107 20.5947 74.2723 20.2822C73.9339 19.9697 73.7387 19.514 73.6866 18.915C73.6606 18.4202 73.6085 17.7171 73.5304 16.8056C73.4523 15.8942 73.3612 14.9046 73.2571 13.8369C73.179 12.7431 73.1009 11.7145 73.0228 10.7509C72.9447 9.76136 72.8796 8.95407 72.8275 8.32907C72.7755 7.70407 72.7495 7.39157 72.7495 7.39157C72.7495 7.39157 72.7625 7.28741 72.7885 7.07907C72.8145 6.8447 72.9056 6.58428 73.0618 6.29782C73.2441 6.01136 73.5434 5.75095 73.9599 5.51657C74.4025 5.2822 75.0142 5.15199 75.7952 5.12595C76.5761 5.09991 77.1879 5.17803 77.6304 5.36032C78.073 5.54261 78.3854 5.76397 78.5676 6.02438C78.7758 6.25876 78.893 6.48011 78.919 6.68845C78.9711 6.87074 78.9971 6.96188 78.9971 6.96188C78.9971 6.96188 79.2314 6.8447 79.7 6.61032C80.1946 6.34991 80.8193 6.08949 81.5743 5.82907C82.3552 5.56866 83.1752 5.41241 84.0343 5.36032C84.1644 5.36032 84.4117 5.36032 84.7762 5.36032C85.1667 5.36032 85.5832 5.45147 86.0257 5.63376C86.4943 5.79001 86.9498 6.10251 87.3924 6.57126C87.861 7.04001 88.2514 7.73011 88.5638 8.64157C88.8762 9.52699 89.0584 10.6989 89.1105 12.1572C89.1886 13.9801 89.2406 15.4775 89.2667 16.6494C89.3187 17.8213 89.2797 18.7327 89.1495 19.3838C89.0454 20.0088 88.7851 20.4515 88.3686 20.7119C87.9781 20.9463 87.3533 21.0634 86.4943 21.0634C85.6613 21.0634 85.0495 20.9463 84.659 20.7119C84.2686 20.4775 84.0213 20.2041 83.9171 19.8916C83.813 19.553 83.7609 19.2536 83.7609 18.9931C83.7609 18.8369 83.787 18.4202 83.839 17.7431C83.8911 17.04 83.9301 16.2457 83.9562 15.3603C83.9822 14.4489 83.9692 13.5634 83.9171 12.7041C83.8911 11.8187 83.787 11.1025 83.6047 10.5556C83.4486 9.98272 83.1882 9.70928 82.8238 9.73532C82.3813 9.76136 81.9647 9.93063 81.5743 10.2431C81.2098 10.5296 80.8844 10.8681 80.5981 11.2588C80.3117 11.6233 80.0904 11.9489 79.9343 12.2353C79.7781 12.4957 79.7 12.6259 79.7 12.6259L80.0904 18.5244C80.0904 18.5244 80.0904 18.6546 80.0904 18.915C80.0904 19.1754 80.0123 19.4749 79.8562 19.8134C79.7 20.1259 79.4006 20.4124 78.9581 20.6728C78.5415 20.9332 77.9168 21.0634 77.0838 21.0634Z" fill="white"/>
<path d="M99.3285 5.20407C100.292 5.12595 101.034 5.23011 101.554 5.51657C102.075 5.80303 102.387 5.9723 102.491 6.02438C102.752 6.15459 102.986 6.29782 103.194 6.45407C103.429 6.61032 103.546 6.68845 103.546 6.68845C103.546 6.68845 103.741 6.75355 104.131 6.88376C104.522 7.01397 104.977 7.32647 105.498 7.82126C106.019 8.29001 106.5 9.0322 106.943 10.0478C107.385 11.0634 107.646 12.4437 107.724 14.1884C107.776 15.3603 107.594 16.3499 107.177 17.1572C106.761 17.9384 106.201 18.5895 105.498 19.1103C104.821 19.6051 104.079 19.9957 103.272 20.2822C102.491 20.5426 101.736 20.7249 101.008 20.8291C100.305 20.9332 99.719 20.9983 99.2504 21.0244C98.8079 21.0504 98.5866 21.0634 98.5866 21.0634C98.5866 21.0634 98.3263 21.0634 97.8056 21.0634C97.311 21.0634 96.6863 20.9853 95.9314 20.8291C95.1764 20.6468 94.4215 20.3082 93.6666 19.8134C92.9377 19.2926 92.3259 18.5374 91.8313 17.5478C91.3628 16.5582 91.1545 15.2431 91.2066 13.6025C91.2586 11.9619 91.558 10.6207 92.1047 9.57907C92.6774 8.51136 93.3542 7.67803 94.1352 7.07907C94.9421 6.48011 95.7361 6.05043 96.5171 5.79001C97.3241 5.52959 97.9879 5.37334 98.5085 5.32126C99.0552 5.24313 99.3285 5.20407 99.3285 5.20407ZM99.4847 9.0322C99.4847 9.0322 99.3155 9.24053 98.9771 9.6572C98.6647 10.0739 98.3393 10.6598 98.0009 11.415C97.6885 12.1702 97.5323 13.0556 97.5323 14.0713C97.5323 15.0608 97.6495 15.8421 97.8837 16.415C98.118 16.9879 98.3653 17.4046 98.6256 17.665C98.912 17.8994 99.1333 18.0166 99.2895 18.0166C99.4456 18.0166 99.693 17.9515 100.031 17.8213C100.396 17.665 100.721 17.3265 101.008 16.8056C101.294 16.2848 101.424 15.4645 101.398 14.3447C101.372 13.4072 101.268 12.652 101.086 12.0791C100.929 11.5062 100.708 10.9983 100.422 10.5556C100.162 10.0869 99.8491 9.57907 99.4847 9.0322Z" fill="white"/>
</svg>
