<svg width="151" height="29" viewBox="0 0 151 29" fill="none" xmlns="http://www.w3.org/2000/svg">
<path d="M10.2672 22.5665C9.61605 22.5665 8.99283 22.4735 8.39751 22.2874C7.8208 22.12 7.31851 21.7479 6.89062 21.1712C6.94644 20.7248 7.07666 20.0736 7.2813 19.2179C7.50454 18.3621 7.77429 17.3947 8.09056 16.3157C8.40682 15.2181 8.74168 14.0926 9.09515 12.9392C9.44862 11.7857 9.79278 10.6881 10.1276 9.64632C10.4811 8.58592 10.7881 7.66504 11.0485 6.88369C11.3276 6.08374 11.5322 5.50702 11.6624 5.15356C11.7183 5.00473 11.8113 4.78148 11.9415 4.48383C12.0717 4.18617 12.2392 3.87921 12.4438 3.56295C12.6484 3.24669 12.881 2.98624 13.1414 2.7816C13.4205 2.55836 13.7181 2.44674 14.0344 2.44674C14.3507 2.44674 14.7041 2.57696 15.0948 2.83741C14.5181 4.13966 13.9321 5.59074 13.3368 7.19065C12.7601 8.77195 12.2019 10.4091 11.6624 12.102C11.1415 13.7763 10.6578 15.4134 10.2114 17.0133C9.78348 18.5946 9.43001 20.0457 9.15096 21.3666C9.29979 21.4224 9.50443 21.4596 9.76488 21.4782C10.0439 21.5154 10.3044 21.534 10.5462 21.534C11.7555 21.534 12.9089 21.2363 14.0065 20.641C15.1041 20.0643 16.1087 19.2923 17.0203 18.3249C17.9505 17.3389 18.7597 16.2413 19.448 15.0321C20.1364 13.8042 20.6666 12.5485 21.0386 11.2648C21.4107 9.98118 21.5968 8.75335 21.5968 7.58132C21.5968 6.07443 21.3363 4.8559 20.8154 3.92572C20.3131 2.97694 19.6155 2.28861 18.7225 1.86072C17.8295 1.41424 16.8063 1.191 15.6529 1.191C14.4437 1.191 13.3554 1.41424 12.388 1.86072C11.4206 2.28861 10.6578 2.88392 10.0997 3.64667C9.56024 4.39081 9.29049 5.24657 9.29049 6.21396C9.29049 6.4186 9.30909 6.64184 9.3463 6.88369C9.3835 7.10693 9.44862 7.33017 9.54163 7.55342C8.74168 7.55342 8.16497 7.38598 7.8115 7.05112C7.47664 6.69765 7.30921 6.26977 7.30921 5.76747C7.30921 5.11635 7.54175 4.45592 8.00684 3.78619C8.49053 3.11646 9.15096 2.50255 9.98812 1.94444C10.8439 1.36773 11.8299 0.911941 12.9461 0.577077C14.0623 0.223609 15.2715 0.046875 16.5738 0.046875C18.3969 0.046875 19.8573 0.400343 20.9549 1.10728C22.0525 1.79561 22.8432 2.73509 23.3269 3.92572C23.8292 5.09775 24.0803 6.4093 24.0803 7.86038C24.0803 9.46028 23.8199 10.9951 23.299 12.4648C22.7967 13.9158 22.0897 15.2553 21.1782 16.4831C20.2852 17.711 19.2434 18.7807 18.0528 19.6922C16.8807 20.6038 15.625 21.3108 14.2855 21.8131C12.9647 22.3154 11.6252 22.5665 10.2672 22.5665Z" fill="url(#paint0_linear_4700_24365)"/>
<path d="M28.9849 20.8643C28.2966 20.8643 27.7385 20.6782 27.3106 20.3062C26.8827 19.9527 26.6688 19.469 26.6688 18.8551C26.6688 18.3342 26.799 17.7761 27.0594 17.1808C27.3199 16.5855 27.5803 15.9994 27.8408 15.4227C28.1198 14.846 28.2594 14.3344 28.2594 13.8879C28.2594 13.4601 28.1198 13.1066 27.8408 12.8275C27.5617 12.5299 27.2362 12.288 26.8641 12.102C26.4548 13.1252 25.9897 14.1205 25.4688 15.0879C24.9665 16.0366 24.5573 16.7808 24.241 17.3203L23.8224 16.511C24.0829 16.0273 24.427 15.339 24.8549 14.446C25.2828 13.5531 25.6921 12.5578 26.0828 11.4602C25.8967 11.2741 25.8037 11.023 25.8037 10.7067C25.8037 10.223 25.9525 9.76724 26.2502 9.33936C26.5478 8.91148 26.8362 8.69754 27.1153 8.69754C27.3385 8.69754 27.4966 8.82776 27.5896 9.08821C27.7013 9.33006 27.7571 9.49749 27.7571 9.59051C27.7571 9.68353 27.7106 9.85096 27.6175 10.0928C27.5431 10.3347 27.4873 10.5114 27.4501 10.623C27.4687 10.8276 27.6269 11.0323 27.9245 11.2369C28.2408 11.423 28.5942 11.6462 28.9849 11.9067C29.3756 12.1671 29.7198 12.4927 30.0174 12.8833C30.3151 13.274 30.4639 13.767 30.4639 14.3623C30.4639 14.9018 30.343 15.4506 30.1011 16.0087C29.8593 16.5669 29.6174 17.0877 29.3756 17.5714C29.1337 18.0551 29.0128 18.4737 29.0128 18.8272C29.0128 19.0876 29.0779 19.2644 29.2082 19.3574C29.357 19.4318 29.5244 19.469 29.7105 19.469C30.1569 19.469 30.622 19.3388 31.1057 19.0783C31.5894 18.7993 32.0638 18.4458 32.5289 18.0179C32.994 17.59 33.4033 17.1436 33.7567 16.6785C34.1102 16.1948 34.38 15.7576 34.566 15.3669L35.2357 15.8692C34.8822 16.6692 34.3706 17.4598 33.7009 18.2412C33.0312 19.0039 32.287 19.6364 31.4685 20.1387C30.6499 20.6224 29.8221 20.8643 28.9849 20.8643Z" fill="url(#paint1_linear_4700_24365)"/>
<path d="M37.1969 21.3666C36.0063 21.3666 35.0854 21.041 34.4343 20.3899C33.8018 19.7574 33.4855 18.9574 33.4855 17.99C33.4855 17.1715 33.6902 16.3064 34.0994 15.3948C34.5273 14.4646 35.0947 13.5996 35.8017 12.7996C36.5086 11.9811 37.29 11.3206 38.1457 10.8183C39.0015 10.316 39.8573 10.0649 40.713 10.0649C41.1967 10.0649 41.6525 10.1951 42.0804 10.4556C42.5269 10.6974 42.7501 11.1904 42.7501 11.9346C42.7501 12.6415 42.5455 13.3019 42.1362 13.9158C41.7269 14.5298 41.1781 15.0786 40.4898 15.5623C39.8014 16.0459 39.0387 16.4459 38.2015 16.7622C37.383 17.0598 36.5551 17.2552 35.718 17.3482C35.6994 17.4226 35.6807 17.5063 35.6621 17.5993C35.6621 17.6738 35.6621 17.804 35.6621 17.99C35.6621 18.083 35.6714 18.2505 35.6901 18.4923C35.7273 18.7156 35.811 18.9574 35.9412 19.2179C36.0714 19.4783 36.2854 19.7016 36.583 19.8876C36.8807 20.0736 37.29 20.1666 37.8109 20.1666C38.5922 20.1666 39.3736 19.9527 40.1549 19.5248C40.9549 19.0783 41.699 18.4923 42.3873 17.7668C43.0943 17.0412 43.6803 16.232 44.1454 15.339L44.7035 15.7855C44.2012 16.9017 43.5501 17.8784 42.7501 18.7156C41.9688 19.5527 41.0944 20.2038 40.127 20.6689C39.1782 21.134 38.2015 21.3666 37.1969 21.3666ZM36.0249 16.3157C36.5086 16.2599 37.0481 16.0925 37.6434 15.8134C38.2387 15.5344 38.8061 15.1809 39.3456 14.753C39.9038 14.3251 40.3595 13.86 40.713 13.3577C41.0665 12.8368 41.2432 12.3159 41.2432 11.795C41.2432 11.5904 41.206 11.4509 41.1316 11.3765C41.0572 11.302 40.9363 11.2648 40.7688 11.2648C40.3409 11.2648 39.8945 11.423 39.4294 11.7392C38.9643 12.0369 38.5085 12.4369 38.062 12.9392C37.6155 13.4228 37.2155 13.9623 36.8621 14.5577C36.5086 15.153 36.2296 15.739 36.0249 16.3157Z" fill="url(#paint2_linear_4700_24365)"/>
<path d="M45.0333 21.4503C44.4194 21.4503 43.8892 21.2456 43.4427 20.8364C42.9776 20.4271 42.7451 19.8132 42.7451 18.9946C42.7451 18.3435 42.8939 17.6366 43.1916 16.8738C43.4892 16.1111 43.8985 15.3576 44.4194 14.6135C44.9403 13.8693 45.5356 13.1996 46.2054 12.6043C46.8751 11.9904 47.5913 11.4974 48.3541 11.1253C49.1168 10.7532 49.8796 10.5672 50.6423 10.5672C51.4423 10.5672 52.1213 10.7718 52.6794 11.1811C53.2375 11.5904 53.5166 12.1299 53.5166 12.7996C53.5166 13.3019 53.3398 13.6647 52.9864 13.8879C52.6329 14.1112 52.2143 14.1763 51.7306 14.0833C51.7678 13.9158 51.7957 13.7484 51.8143 13.581C51.8515 13.4135 51.8701 13.2368 51.8701 13.0508C51.8701 12.6787 51.7957 12.3438 51.6469 12.0462C51.4981 11.7485 51.1818 11.5997 50.6981 11.5997C50.1772 11.5997 49.647 11.7764 49.1075 12.1299C48.568 12.4834 48.0471 12.9485 47.5448 13.5252C47.0611 14.0833 46.6239 14.7065 46.2333 15.3948C45.8426 16.0646 45.5356 16.725 45.3124 17.3761C45.0891 18.0272 44.9775 18.6132 44.9775 19.1341C44.9775 19.7295 45.1915 20.0271 45.6193 20.0271C46.0472 20.0271 46.5216 19.8225 47.0425 19.4132C47.5634 18.9853 48.0843 18.4551 48.6052 17.8226C49.1447 17.1901 49.6563 16.5482 50.14 15.8971C50.6237 15.2274 51.0423 14.66 51.3958 14.1949C51.4516 14.1019 51.526 14.0554 51.619 14.0554C51.6934 14.074 51.8329 14.1205 52.0376 14.1949C52.2608 14.2507 52.4655 14.3437 52.6515 14.4739C52.8375 14.6042 52.9305 14.7716 52.9305 14.9762C52.9305 15.1623 52.8468 15.4041 52.6794 15.7018C52.5306 15.9808 52.3445 16.2971 52.1213 16.6506C51.9167 16.9854 51.7306 17.3296 51.5632 17.6831C51.4144 18.0179 51.3399 18.3435 51.3399 18.6598C51.3399 18.9016 51.4051 19.1341 51.5353 19.3574C51.6655 19.562 51.8794 19.6643 52.1771 19.6643C52.6236 19.6643 53.2468 19.3388 54.0468 18.6877C54.8653 18.0179 55.6932 16.8924 56.5303 15.3111L57.0605 15.8413C56.6141 16.8459 56.0746 17.7389 55.442 18.5202C54.8281 19.283 54.177 19.8783 53.4887 20.3062C52.8003 20.7527 52.1027 20.9759 51.3958 20.9759C50.633 20.9759 50.0656 20.7341 49.6935 20.2504C49.3215 19.7667 49.1168 19.2458 49.0796 18.6877C49.0796 18.6505 49.0796 18.6225 49.0796 18.6039C49.0796 18.5853 49.0796 18.5667 49.0796 18.5481C48.3355 19.4411 47.6471 20.148 47.0146 20.6689C46.4007 21.1898 45.7403 21.4503 45.0333 21.4503Z" fill="url(#paint3_linear_4700_24365)"/>
<path d="M70.4645 21.0038C69.739 21.0038 69.1994 20.7899 68.846 20.362C68.4925 19.9341 68.3158 19.4225 68.3158 18.8272C68.3158 18.3993 68.3809 17.9714 68.5111 17.5435C68.6413 17.1157 68.7716 16.6971 68.9018 16.2878C69.032 15.8599 69.0971 15.4785 69.0971 15.1437C69.0971 14.8274 69.032 14.6135 68.9018 14.5019C68.7902 14.3716 68.6413 14.3065 68.4553 14.3065C68.0274 14.3065 67.5251 14.6321 66.9484 15.2832C66.3903 15.9343 65.6927 16.8831 64.8555 18.1296C64.5579 18.576 64.2788 19.0504 64.0183 19.5527C63.7579 20.0364 63.5254 20.4457 63.3207 20.7806C63.1533 20.7806 62.93 20.7527 62.651 20.6968C62.3905 20.641 62.158 20.5573 61.9534 20.4457C61.7487 20.3527 61.6464 20.2225 61.6464 20.055C61.6464 19.8876 61.7394 19.562 61.9254 19.0783C62.1115 18.5946 62.3254 18.0365 62.5673 17.404C62.8091 16.7529 63.0231 16.1204 63.2091 15.5064C63.3951 14.8739 63.4882 14.3437 63.4882 13.9158C63.4882 13.6554 63.4416 13.4508 63.3486 13.3019C63.2556 13.1531 63.1068 13.0787 62.9021 13.0787C62.5115 13.0787 62.0371 13.3112 61.479 13.7763C60.9395 14.2414 60.3628 14.8553 59.7488 15.6181C59.1535 16.3622 58.5861 17.1994 58.0466 18.1296C57.5257 19.0411 57.0978 19.962 56.763 20.8922C56.5583 20.8922 56.3072 20.8457 56.0095 20.7527C55.7119 20.6782 55.4514 20.5759 55.2282 20.4457C55.0049 20.3341 54.8933 20.2318 54.8933 20.1387C54.8933 20.1201 54.9584 19.8597 55.0886 19.3574C55.2189 18.8365 55.377 18.1947 55.563 17.4319C55.7491 16.6692 55.9444 15.8878 56.149 15.0879C56.3537 14.2879 56.5304 13.5903 56.6792 12.995C56.7351 12.7903 56.9397 12.6136 57.2932 12.4648C57.6466 12.2973 57.9536 12.2136 58.214 12.2136C58.4745 12.2136 58.6977 12.2973 58.8838 12.4648C59.0698 12.6322 59.1628 12.8554 59.1628 13.1345C59.1628 13.3205 59.1256 13.5903 59.0512 13.9437C58.9768 14.2972 58.8838 14.6972 58.7721 15.1437C59.1628 14.6228 59.5721 14.1112 60 13.6089C60.4465 13.088 60.9023 12.6229 61.3673 12.2136C61.851 11.8043 62.3254 11.4788 62.7905 11.2369C63.2742 10.9951 63.7486 10.8742 64.2137 10.8742C64.902 10.8742 65.3671 11.1253 65.609 11.6276C65.8508 12.1113 65.9717 12.6415 65.9717 13.2182C65.9717 13.4601 65.9531 13.7019 65.9159 13.9437C65.8787 14.167 65.8229 14.3995 65.7485 14.6414C65.6927 14.8646 65.609 15.1344 65.4973 15.4506C65.8508 14.9297 66.2322 14.4553 66.6415 14.0275C67.0693 13.581 67.5251 13.2275 68.0088 12.9671C68.4925 12.7066 69.0041 12.5764 69.5436 12.5764C70.2692 12.5764 70.7715 12.7996 71.0505 13.2461C71.3296 13.674 71.4691 14.1484 71.4691 14.6693C71.4691 15.153 71.3854 15.6646 71.2179 16.2041C71.0691 16.725 70.911 17.2273 70.7435 17.711C70.5947 18.1761 70.5203 18.576 70.5203 18.9109C70.5203 19.0969 70.5668 19.2737 70.6598 19.4411C70.7528 19.5899 70.9389 19.6643 71.2179 19.6643C71.7202 19.6643 72.2039 19.4318 72.669 18.9667C73.1341 18.5016 73.562 17.9342 73.9527 17.2645C74.3619 16.5762 74.7061 15.925 74.9852 15.3111L75.4595 15.8971C75.1619 16.6599 74.7712 17.4412 74.2875 18.2412C73.8224 19.0225 73.2736 19.6736 72.6411 20.1945C72.0086 20.7341 71.2831 21.0038 70.4645 21.0038Z" fill="url(#paint4_linear_4700_24365)"/>
<path d="M88.3775 22.5665C88.0799 22.5665 87.7171 22.5014 87.2892 22.3712C86.88 22.2595 86.5079 22.0177 86.173 21.6456C85.8568 21.2922 85.6986 20.7713 85.6986 20.0829C85.6986 19.5062 85.8103 18.8086 86.0335 17.99C86.2567 17.1715 86.5358 16.2599 86.8707 15.2553C87.2055 14.2507 87.5404 13.1717 87.8753 12.0183C88.2101 10.8463 88.4892 9.63702 88.7124 8.39058C88.9357 7.12554 89.0473 5.84189 89.0473 4.53964C89.0473 3.88851 89.0008 3.3118 88.9078 2.80951C88.8147 2.30721 88.6473 1.91653 88.4055 1.63748C88.1636 1.35843 87.8101 1.2189 87.345 1.2189C86.8614 1.2189 86.4521 1.35843 86.1172 1.63748C85.7823 1.91653 85.5033 2.2793 85.2801 2.72579C85.0754 3.17228 84.9173 3.63737 84.8057 4.12106C84.7126 4.60475 84.6661 5.06054 84.6661 5.48842C84.6661 5.80468 84.694 6.11164 84.7499 6.4093C84.8243 6.70695 84.9359 7.00461 85.0847 7.30227C84.1731 7.30227 83.5127 7.08833 83.1034 6.66045C82.6942 6.23256 82.4895 5.70236 82.4895 5.06984C82.4895 4.51173 82.6291 3.93502 82.9081 3.33971C83.1872 2.74439 83.5685 2.20489 84.0522 1.7212C84.5545 1.2189 85.1312 0.818923 85.7824 0.521267C86.4521 0.205006 87.159 0.046875 87.9032 0.046875C89.1682 0.046875 90.1263 0.511964 90.7774 1.44214C91.4285 2.35372 91.7541 3.60946 91.7541 5.20937C91.7541 6.23256 91.6332 7.30227 91.3913 8.41848C91.1681 9.5347 90.889 10.6602 90.5542 11.795C90.2193 12.9112 89.8751 13.9996 89.5217 15.06C89.1868 16.1204 88.8985 17.1064 88.6566 18.0179C88.4334 18.9109 88.3217 19.6922 88.3217 20.362C88.3217 20.6596 88.3589 20.8922 88.4334 21.0596C88.5264 21.227 88.7124 21.3108 88.9915 21.3108C89.531 21.3108 90.1356 21.0596 90.8053 20.5573C91.4937 20.055 92.2006 19.376 92.9261 18.5202C93.6517 17.6459 94.3586 16.6599 95.0469 15.5623C95.7353 14.4646 96.3585 13.3205 96.9166 12.1299C97.4747 10.9393 97.9119 9.75794 98.2281 8.58592C98.563 7.41389 98.7304 6.33488 98.7304 5.34889C98.7304 4.3629 98.5537 3.60946 98.2002 3.08856C97.8468 2.56766 97.4003 2.21419 96.8608 2.02816C97.1212 1.47005 97.4375 1.07007 97.8096 0.828225C98.2002 0.567775 98.5444 0.43755 98.8421 0.43755C99.3444 0.43755 99.8188 0.753811 100.265 1.38633C100.712 2.01885 100.935 2.91183 100.935 4.06525C100.935 5.06984 100.74 6.22326 100.349 7.52551C99.9769 8.80916 99.456 10.1486 98.7863 11.5439C98.1165 12.9205 97.3538 14.2693 96.498 15.5902C95.6609 16.8924 94.7679 18.0737 93.8191 19.1341C92.8889 20.1759 91.9587 21.0038 91.0286 21.6177C90.0984 22.2502 89.2147 22.5665 88.3775 22.5665Z" fill="url(#paint5_linear_4700_24365)"/>
<path d="M102.791 21.3666C101.6 21.3666 100.679 21.041 100.028 20.3899C99.3957 19.7574 99.0795 18.9574 99.0795 17.99C99.0795 17.1715 99.2841 16.3064 99.6934 15.3948C100.121 14.4646 100.689 13.5996 101.396 12.7996C102.103 11.9811 102.884 11.3206 103.74 10.8183C104.595 10.316 105.451 10.0649 106.307 10.0649C106.791 10.0649 107.246 10.1951 107.674 10.4556C108.121 10.6974 108.344 11.1904 108.344 11.9346C108.344 12.6415 108.139 13.3019 107.73 13.9158C107.321 14.5298 106.772 15.0786 106.084 15.5623C105.395 16.0459 104.633 16.4459 103.795 16.7622C102.977 17.0598 102.149 17.2552 101.312 17.3482C101.293 17.4226 101.275 17.5063 101.256 17.5993C101.256 17.6738 101.256 17.804 101.256 17.99C101.256 18.083 101.265 18.2505 101.284 18.4923C101.321 18.7156 101.405 18.9574 101.535 19.2179C101.665 19.4783 101.879 19.7016 102.177 19.8876C102.475 20.0736 102.884 20.1666 103.405 20.1666C104.186 20.1666 104.968 19.9527 105.749 19.5248C106.549 19.0783 107.293 18.4923 107.981 17.7668C108.688 17.0412 109.274 16.232 109.739 15.339L110.297 15.7855C109.795 16.9017 109.144 17.8784 108.344 18.7156C107.563 19.5527 106.688 20.2038 105.721 20.6689C104.772 21.134 103.795 21.3666 102.791 21.3666ZM101.619 16.3157C102.103 16.2599 102.642 16.0925 103.237 15.8134C103.833 15.5344 104.4 15.1809 104.94 14.753C105.498 14.3251 105.953 13.86 106.307 13.3577C106.66 12.8368 106.837 12.3159 106.837 11.795C106.837 11.5904 106.8 11.4509 106.726 11.3765C106.651 11.302 106.53 11.2648 106.363 11.2648C105.935 11.2648 105.488 11.423 105.023 11.7392C104.558 12.0369 104.102 12.4369 103.656 12.9392C103.209 13.4228 102.809 13.9623 102.456 14.5577C102.103 15.153 101.824 15.739 101.619 16.3157Z" fill="url(#paint6_linear_4700_24365)"/>
<path d="M110.46 27.9522C109.995 27.9522 109.558 27.8127 109.148 27.5337C108.758 27.2546 108.562 26.7988 108.562 26.1663C108.562 25.571 108.73 25.0315 109.065 24.5478C109.418 24.0827 109.874 23.6455 110.432 23.2362C111.009 22.8456 111.623 22.4828 112.274 22.1479C112.925 21.8131 113.557 21.4968 114.171 21.1991C114.376 20.6968 114.571 20.1573 114.757 19.5806C114.943 19.0039 115.12 18.3807 115.287 17.711C114.636 18.5295 113.948 19.2086 113.222 19.7481C112.516 20.2876 111.79 20.5573 111.046 20.5573C110.302 20.5573 109.706 20.2969 109.26 19.776C108.832 19.2551 108.618 18.5667 108.618 17.711C108.618 16.725 108.86 15.8041 109.344 14.9483C109.846 14.074 110.488 13.3019 111.269 12.6322C112.05 11.9439 112.888 11.4137 113.781 11.0416C114.674 10.6509 115.529 10.4556 116.348 10.4556C116.943 10.4556 117.39 10.5672 117.687 10.7904C117.985 10.9951 118.134 11.2369 118.134 11.516C118.134 11.7392 118.069 11.916 117.938 12.0462C117.808 12.1764 117.725 12.2508 117.687 12.2694C117.501 12.0648 117.306 11.9346 117.101 11.8787C116.915 11.8043 116.692 11.7671 116.432 11.7671C115.706 11.7671 115.008 11.9718 114.339 12.381C113.669 12.7903 113.074 13.3205 112.553 13.9717C112.05 14.6042 111.65 15.2646 111.353 15.9529C111.055 16.6413 110.906 17.2645 110.906 17.8226C110.906 18.1947 110.99 18.483 111.157 18.6877C111.325 18.8737 111.53 18.9667 111.771 18.9667C112.292 18.9667 112.925 18.6318 113.669 17.9621C114.413 17.2738 115.129 16.4459 115.818 15.4785C115.855 15.3297 115.883 15.1995 115.901 15.0879C115.939 14.9576 115.967 14.8367 115.985 14.7251C116.171 13.981 116.394 13.4321 116.655 13.0787C116.915 12.7252 117.278 12.5485 117.743 12.5485C117.836 12.5485 117.948 12.5578 118.078 12.5764C118.227 12.595 118.385 12.6229 118.552 12.6601C118.552 12.995 118.459 13.5438 118.273 14.3065C118.087 15.0693 117.836 15.9622 117.52 16.9854C117.204 17.99 116.85 19.0225 116.46 20.0829C117.036 19.8411 117.622 19.5062 118.218 19.0783C118.813 18.6318 119.362 18.1016 119.864 17.4877C120.366 16.8552 120.748 16.1576 121.008 15.3948L121.51 15.8971C121.213 16.7529 120.748 17.5342 120.115 18.2412C119.501 18.9481 118.831 19.562 118.106 20.0829C117.38 20.5852 116.711 20.9759 116.097 21.255C115.594 22.4828 115.046 23.599 114.45 24.6036C113.874 25.6268 113.25 26.436 112.581 27.0314C111.93 27.6453 111.223 27.9522 110.46 27.9522ZM110.348 26.6686C110.683 26.6686 111.139 26.3523 111.716 25.7198C112.311 25.0873 112.953 24.0176 113.641 22.5107C112.953 22.8456 112.32 23.1897 111.743 23.5432C111.167 23.8967 110.702 24.2687 110.348 24.6594C109.995 25.0501 109.818 25.4594 109.818 25.8872C109.818 26.1291 109.865 26.3151 109.958 26.4453C110.069 26.5942 110.199 26.6686 110.348 26.6686Z" fill="url(#paint7_linear_4700_24365)"/>
<path d="M121.882 21.4503C121.268 21.4503 120.738 21.2456 120.291 20.8364C119.826 20.4271 119.594 19.8132 119.594 18.9946C119.594 18.3435 119.743 17.6366 120.04 16.8738C120.338 16.1111 120.747 15.3576 121.268 14.6135C121.789 13.8693 122.384 13.1996 123.054 12.6043C123.724 11.9904 124.44 11.4974 125.203 11.1253C125.966 10.7532 126.728 10.5672 127.491 10.5672C128.291 10.5672 128.97 10.7718 129.528 11.1811C130.086 11.5904 130.365 12.1299 130.365 12.7996C130.365 13.3019 130.189 13.6647 129.835 13.8879C129.482 14.1112 129.063 14.1763 128.579 14.0833C128.617 13.9158 128.644 13.7484 128.663 13.581C128.7 13.4135 128.719 13.2368 128.719 13.0508C128.719 12.6787 128.644 12.3438 128.496 12.0462C128.347 11.7485 128.031 11.5997 127.547 11.5997C127.026 11.5997 126.496 11.7764 125.956 12.1299C125.417 12.4834 124.896 12.9485 124.394 13.5252C123.91 14.0833 123.473 14.7065 123.082 15.3948C122.691 16.0646 122.384 16.725 122.161 17.3761C121.938 18.0272 121.826 18.6132 121.826 19.1341C121.826 19.7295 122.04 20.0271 122.468 20.0271C122.896 20.0271 123.37 19.8225 123.891 19.4132C124.412 18.9853 124.933 18.4551 125.454 17.8226C125.993 17.1901 126.505 16.5482 126.989 15.8971C127.472 15.2274 127.891 14.66 128.245 14.1949C128.3 14.1019 128.375 14.0554 128.468 14.0554C128.542 14.074 128.682 14.1205 128.886 14.1949C129.11 14.2507 129.314 14.3437 129.5 14.4739C129.686 14.6042 129.779 14.7716 129.779 14.9762C129.779 15.1623 129.696 15.4041 129.528 15.7018C129.379 15.9808 129.193 16.2971 128.97 16.6506C128.765 16.9854 128.579 17.3296 128.412 17.6831C128.263 18.0179 128.189 18.3435 128.189 18.6598C128.189 18.9016 128.254 19.1341 128.384 19.3574C128.514 19.562 128.728 19.6643 129.026 19.6643C129.472 19.6643 130.096 19.3388 130.896 18.6877C131.714 18.0179 132.542 16.8924 133.379 15.3111L133.909 15.8413C133.463 16.8459 132.923 17.7389 132.291 18.5202C131.677 19.283 131.026 19.8783 130.337 20.3062C129.649 20.7527 128.951 20.9759 128.245 20.9759C127.482 20.9759 126.914 20.7341 126.542 20.2504C126.17 19.7667 125.966 19.2458 125.928 18.6877C125.928 18.6505 125.928 18.6225 125.928 18.6039C125.928 18.5853 125.928 18.5667 125.928 18.5481C125.184 19.4411 124.496 20.148 123.863 20.6689C123.249 21.1898 122.589 21.4503 121.882 21.4503Z" fill="url(#paint8_linear_4700_24365)"/>
<path d="M135.984 21.5619C135.053 21.5619 134.3 21.3666 133.723 20.9759C133.165 20.6038 132.765 20.1294 132.523 19.5527C132.282 18.9574 132.161 18.3528 132.161 17.7389C132.161 17.1994 132.235 16.7808 132.384 16.4831C132.533 16.1855 132.719 15.9715 132.942 15.8413C133.165 15.6925 133.37 15.5809 133.556 15.5064C133.761 15.432 133.909 15.3483 134.002 15.2553C134.467 14.7716 134.942 14.2135 135.426 13.581C135.928 12.9299 136.356 12.2136 136.709 11.4323V11.1532C136.709 10.4091 136.83 9.88817 137.072 9.59051C137.332 9.27425 137.63 9.11612 137.965 9.11612C138.188 9.11612 138.346 9.17193 138.439 9.28355C138.551 9.39517 138.616 9.5254 138.635 9.67422C138.635 9.78585 138.607 9.91607 138.551 10.0649C138.514 10.2137 138.495 10.4184 138.495 10.6788C138.495 11.2369 138.625 11.8787 138.886 12.6043C139.165 13.3112 139.435 14.0647 139.695 14.8646C139.974 15.6646 140.114 16.4831 140.114 17.3203C140.114 17.5435 140.104 17.7482 140.086 17.9342C140.067 18.1202 140.039 18.297 140.002 18.4644C140.579 18.3156 141.146 17.9993 141.704 17.5156C142.262 17.0133 142.793 16.2785 143.295 15.3111L143.63 15.5623C143.276 16.6227 142.765 17.4784 142.095 18.1296C141.425 18.7621 140.644 19.1527 139.751 19.3016C139.453 20.0643 138.96 20.6317 138.272 21.0038C137.602 21.3759 136.839 21.5619 135.984 21.5619ZM135.788 20.3341C136.16 20.3341 136.505 20.2411 136.821 20.055C137.137 19.869 137.388 19.5992 137.574 19.2458C136.812 19.0783 136.123 18.7807 135.509 18.3528C134.895 17.9249 134.421 17.4877 134.086 17.0412C133.826 17.0971 133.695 17.3482 133.695 17.7947C133.695 18.4086 133.872 18.9853 134.226 19.5248C134.579 20.0643 135.1 20.3341 135.788 20.3341ZM137.798 18.4086C137.835 18.2784 137.853 18.1296 137.853 17.9621C137.872 17.7761 137.881 17.6366 137.881 17.5435C137.863 16.7064 137.751 15.8785 137.546 15.06C137.342 14.2414 137.137 13.4042 136.932 12.5485C136.598 13.1252 136.207 13.7484 135.76 14.4181C135.314 15.0879 134.895 15.6274 134.505 16.0366C134.802 16.5389 135.24 17.0133 135.816 17.4598C136.393 17.9063 137.053 18.2226 137.798 18.4086Z" fill="url(#paint9_linear_4700_24365)"/>
<g filter="url(#filter0_d_4700_24365)">
<path d="M23.5102 25.381C23.5102 25.8579 23.1236 26.2445 22.6467 26.2445C22.1698 26.2445 21.7831 25.8579 21.7831 25.381C21.7831 24.904 22.1698 24.5174 22.6467 24.5174C23.1236 24.5174 23.5102 24.904 23.5102 25.381Z" fill="#00E6FF"/>
<path d="M30.1046 25.381C30.1046 25.8579 29.718 26.2445 29.2411 26.2445C28.7642 26.2445 28.3775 25.8579 28.3775 25.381C28.3775 24.904 28.7642 24.5174 29.2411 24.5174C29.718 24.5174 30.1046 24.904 30.1046 25.381Z" fill="#00E6FF"/>
<path d="M36.699 25.381C36.699 25.8579 36.3124 26.2445 35.8355 26.2445C35.3585 26.2445 34.9719 25.8579 34.9719 25.381C34.9719 24.904 35.3585 24.5174 35.8355 24.5174C36.3124 24.5174 36.699 24.904 36.699 25.381Z" fill="#00E6FF"/>
<path d="M43.2934 25.381C43.2934 25.8579 42.9068 26.2445 42.4298 26.2445C41.9529 26.2445 41.5663 25.8579 41.5663 25.381C41.5663 24.904 41.9529 24.5174 42.4298 24.5174C42.9068 24.5174 43.2934 24.904 43.2934 25.381Z" fill="#00E6FF"/>
<path d="M23.5102 25.381C23.5102 25.8579 23.1236 26.2445 22.6467 26.2445C22.1698 26.2445 21.7831 25.8579 21.7831 25.381C21.7831 24.904 22.1698 24.5174 22.6467 24.5174C23.1236 24.5174 23.5102 24.904 23.5102 25.381Z" fill="#00E6FF"/>
<path d="M3.72711 25.381C3.72711 25.8579 3.34048 26.2445 2.86356 26.2445C2.38663 26.2445 2 25.8579 2 25.381C2 24.904 2.38663 24.5174 2.86356 24.5174C3.34048 24.5174 3.72711 24.904 3.72711 25.381Z" fill="#00E6FF"/>
<path d="M10.3215 25.381C10.3215 25.8579 9.93486 26.2445 9.45793 26.2445C8.98101 26.2445 8.59438 25.8579 8.59438 25.381C8.59438 24.904 8.98101 24.5174 9.45793 24.5174C9.93486 24.5174 10.3215 24.904 10.3215 25.381Z" fill="#00E6FF"/>
<path d="M16.9159 25.381C16.9159 25.8579 16.5292 26.2445 16.0523 26.2445C15.5754 26.2445 15.1888 25.8579 15.1888 25.381C15.1888 24.904 15.5754 24.5174 16.0523 24.5174C16.5292 24.5174 16.9159 24.904 16.9159 25.381Z" fill="#00E6FF"/>
<path d="M3.72711 25.381C3.72711 25.8579 3.34048 26.2445 2.86356 26.2445C2.38663 26.2445 2 25.8579 2 25.381C2 24.904 2.38663 24.5174 2.86356 24.5174C3.34048 24.5174 3.72711 24.904 3.72711 25.381Z" fill="#00E6FF"/>
<path d="M43.2934 25.381C43.2934 25.8579 42.9068 26.2445 42.4298 26.2445C41.9529 26.2445 41.5663 25.8579 41.5663 25.381C41.5663 24.904 41.9529 24.5174 42.4298 24.5174C42.9068 24.5174 43.2934 24.904 43.2934 25.381Z" fill="#00E6FF"/>
<path d="M49.8878 25.381C49.8878 25.8579 49.5012 26.2445 49.0242 26.2445C48.5473 26.2445 48.1607 25.8579 48.1607 25.381C48.1607 24.904 48.5473 24.5174 49.0242 24.5174C49.5012 24.5174 49.8878 24.904 49.8878 25.381Z" fill="#00E6FF"/>
<path d="M56.4822 25.381C56.4822 25.8579 56.0955 26.2445 55.6186 26.2445C55.1417 26.2445 54.755 25.8579 54.755 25.381C54.755 24.904 55.1417 24.5174 55.6186 24.5174C56.0955 24.5174 56.4822 24.904 56.4822 25.381Z" fill="#00E6FF"/>
<path d="M63.0765 25.381C63.0765 25.8579 62.6899 26.2445 62.213 26.2445C61.736 26.2445 61.3494 25.8579 61.3494 25.381C61.3494 24.904 61.736 24.5174 62.213 24.5174C62.6899 24.5174 63.0765 24.904 63.0765 25.381Z" fill="#00E6FF"/>
<path d="M69.6709 25.381C69.6709 25.8579 69.2843 26.2445 68.8074 26.2445C68.3304 26.2445 67.9438 25.8579 67.9438 25.381C67.9438 24.904 68.3304 24.5174 68.8074 24.5174C69.2843 24.5174 69.6709 24.904 69.6709 25.381Z" fill="#00E6FF"/>
<path d="M49.8878 25.381C49.8878 25.8579 49.5012 26.2445 49.0242 26.2445C48.5473 26.2445 48.1607 25.8579 48.1607 25.381C48.1607 24.904 48.5473 24.5174 49.0242 24.5174C49.5012 24.5174 49.8878 24.904 49.8878 25.381Z" fill="#00E6FF"/>
<path d="M69.6709 25.381C69.6709 25.8579 69.2843 26.2445 68.8074 26.2445C68.3304 26.2445 67.9438 25.8579 67.9438 25.381C67.9438 24.904 68.3304 24.5174 68.8074 24.5174C69.2843 24.5174 69.6709 24.904 69.6709 25.381Z" fill="#00E6FF"/>
<path d="M76.2653 25.381C76.2653 25.8579 75.8787 26.2445 75.4017 26.2445C74.9248 26.2445 74.5382 25.8579 74.5382 25.381C74.5382 24.904 74.9248 24.5174 75.4017 24.5174C75.8787 24.5174 76.2653 24.904 76.2653 25.381Z" fill="#00E6FF"/>
<path d="M82.8597 25.381C82.8597 25.8579 82.473 26.2445 81.9961 26.2445C81.5192 26.2445 81.1326 25.8579 81.1326 25.381C81.1326 24.904 81.5192 24.5174 81.9961 24.5174C82.473 24.5174 82.8597 24.904 82.8597 25.381Z" fill="#00E6FF"/>
<path d="M148.777 25.381C148.777 25.8579 148.39 26.2445 147.913 26.2445C147.436 26.2445 147.05 25.8579 147.05 25.381C147.05 24.904 147.436 24.5174 147.913 24.5174C148.39 24.5174 148.777 24.904 148.777 25.381Z" fill="#00E6FF"/>
<path d="M148.777 18.7867C148.777 19.2637 148.39 19.6503 147.913 19.6503C147.436 19.6503 147.05 19.2637 147.05 18.7867C147.05 18.3098 147.436 17.9232 147.913 17.9232C148.39 17.9232 148.777 18.3098 148.777 18.7867Z" fill="#00E6FF"/>
<path d="M148.777 12.1922C148.777 12.6691 148.39 13.0557 147.913 13.0557C147.436 13.0557 147.05 12.6691 147.05 12.1922C147.05 11.7153 147.436 11.3286 147.913 11.3286C148.39 11.3286 148.777 11.7153 148.777 12.1922Z" fill="#00E6FF"/>
<path d="M3.72711 25.381C3.72711 25.8579 3.34048 26.2445 2.86356 26.2445C2.38663 26.2445 2 25.8579 2 25.381C2 24.904 2.38663 24.5174 2.86356 24.5174C3.34048 24.5174 3.72711 24.904 3.72711 25.381Z" fill="#00E6FF"/>
<path d="M3.72711 18.7867C3.72711 19.2637 3.34048 19.6503 2.86356 19.6503C2.38663 19.6503 2 19.2637 2 18.7867C2 18.3098 2.38663 17.9232 2.86356 17.9232C3.34048 17.9232 3.72711 18.3098 3.72711 18.7867Z" fill="#00E6FF"/>
<path d="M3.72711 12.1923C3.72711 12.6693 3.34048 13.0559 2.86356 13.0559C2.38663 13.0559 2 12.6693 2 12.1923C2 11.7154 2.38663 11.3288 2.86356 11.3288C3.34048 11.3288 3.72711 11.7154 3.72711 12.1923Z" fill="#00E6FF"/>
<path d="M3.72711 5.59808C3.72711 6.07501 3.34048 6.46163 2.86356 6.46163C2.38663 6.46163 2 6.07501 2 5.59808C2 5.12115 2.38663 4.73452 2.86356 4.73452C3.34048 4.73452 3.72711 5.12115 3.72711 5.59808Z" fill="#00E6FF"/>
<path d="M76.2653 25.381C76.2653 25.8579 75.8787 26.2445 75.4017 26.2445C74.9248 26.2445 74.5382 25.8579 74.5382 25.381C74.5382 24.904 74.9248 24.5174 75.4017 24.5174C75.8787 24.5174 76.2653 24.904 76.2653 25.381Z" fill="#00E6FF"/>
<path d="M30.1046 5.59793C30.1046 6.07486 29.718 6.46149 29.2411 6.46149C28.7642 6.46149 28.3775 6.07486 28.3775 5.59793C28.3775 5.121 28.7642 4.73438 29.2411 4.73438C29.718 4.73438 30.1046 5.121 30.1046 5.59793Z" fill="#00E6FF"/>
<path d="M36.699 5.59793C36.699 6.07486 36.3124 6.46149 35.8355 6.46149C35.3585 6.46149 34.9719 6.07486 34.9719 5.59793C34.9719 5.121 35.3585 4.73438 35.8355 4.73438C36.3124 4.73438 36.699 5.121 36.699 5.59793Z" fill="#00E6FF"/>
<path d="M43.2934 5.59793C43.2934 6.07486 42.9068 6.46149 42.4298 6.46149C41.9529 6.46149 41.5663 6.07486 41.5663 5.59793C41.5663 5.121 41.9529 4.73438 42.4298 4.73438C42.9068 4.73438 43.2934 5.121 43.2934 5.59793Z" fill="#00E6FF"/>
<path d="M3.72711 5.59808C3.72711 6.07501 3.34048 6.46163 2.86356 6.46163C2.38663 6.46163 2 6.07501 2 5.59808C2 5.12115 2.38663 4.73452 2.86356 4.73452C3.34048 4.73452 3.72711 5.12115 3.72711 5.59808Z" fill="#00E6FF"/>
<path d="M3.72711 5.59808C3.72711 6.07501 3.34048 6.46163 2.86356 6.46163C2.38663 6.46163 2 6.07501 2 5.59808C2 5.12115 2.38663 4.73452 2.86356 4.73452C3.34048 4.73452 3.72711 5.12115 3.72711 5.59808Z" fill="#00E6FF"/>
<path d="M43.2934 5.59793C43.2934 6.07486 42.9068 6.46149 42.4298 6.46149C41.9529 6.46149 41.5663 6.07486 41.5663 5.59793C41.5663 5.121 41.9529 4.73438 42.4298 4.73438C42.9068 4.73438 43.2934 5.121 43.2934 5.59793Z" fill="#00E6FF"/>
<path d="M49.8878 5.59793C49.8878 6.07486 49.5012 6.46149 49.0242 6.46149C48.5473 6.46149 48.1607 6.07486 48.1607 5.59793C48.1607 5.121 48.5473 4.73438 49.0242 4.73438C49.5012 4.73438 49.8878 5.121 49.8878 5.59793Z" fill="#00E6FF"/>
<path d="M56.4822 5.59793C56.4822 6.07486 56.0955 6.46149 55.6186 6.46149C55.1417 6.46149 54.755 6.07486 54.755 5.59793C54.755 5.121 55.1417 4.73438 55.6186 4.73438C56.0955 4.73438 56.4822 5.121 56.4822 5.59793Z" fill="#00E6FF"/>
<path d="M63.0765 5.59793C63.0765 6.07486 62.6899 6.46149 62.213 6.46149C61.736 6.46149 61.3494 6.07486 61.3494 5.59793C61.3494 5.121 61.736 4.73438 62.213 4.73438C62.6899 4.73438 63.0765 5.121 63.0765 5.59793Z" fill="#00E6FF"/>
<path d="M69.6709 5.59793C69.6709 6.07486 69.2843 6.46149 68.8074 6.46149C68.3304 6.46149 67.9438 6.07486 67.9438 5.59793C67.9438 5.121 68.3304 4.73438 68.8074 4.73438C69.2843 4.73438 69.6709 5.121 69.6709 5.59793Z" fill="#00E6FF"/>
<path d="M49.8878 5.59793C49.8878 6.07486 49.5012 6.46149 49.0242 6.46149C48.5473 6.46149 48.1607 6.07486 48.1607 5.59793C48.1607 5.121 48.5473 4.73438 49.0242 4.73438C49.5012 4.73438 49.8878 5.121 49.8878 5.59793Z" fill="#00E6FF"/>
<path d="M69.6709 5.59793C69.6709 6.07486 69.2843 6.46149 68.8074 6.46149C68.3304 6.46149 67.9438 6.07486 67.9438 5.59793C67.9438 5.121 68.3304 4.73438 68.8074 4.73438C69.2843 4.73438 69.6709 5.121 69.6709 5.59793Z" fill="#00E6FF"/>
<path d="M76.2653 5.59793C76.2653 6.07486 75.8787 6.46149 75.4017 6.46149C74.9248 6.46149 74.5382 6.07486 74.5382 5.59793C74.5382 5.121 74.9248 4.73438 75.4017 4.73438C75.8787 4.73438 76.2653 5.121 76.2653 5.59793Z" fill="#00E6FF"/>
<path d="M148.777 5.59793C148.777 6.07486 148.39 6.46149 147.913 6.46149C147.436 6.46149 147.05 6.07486 147.05 5.59793C147.05 5.121 147.436 4.73438 147.913 4.73438C148.39 4.73438 148.777 5.121 148.777 5.59793Z" fill="#00E6FF"/>
<path d="M3.72711 5.59808C3.72711 6.07501 3.34048 6.46163 2.86356 6.46163C2.38663 6.46163 2 6.07501 2 5.59808C2 5.12115 2.38663 4.73452 2.86356 4.73452C3.34048 4.73452 3.72711 5.12115 3.72711 5.59808Z" fill="#00E6FF"/>
<path d="M76.2653 5.59793C76.2653 6.07486 75.8787 6.46149 75.4017 6.46149C74.9248 6.46149 74.5382 6.07486 74.5382 5.59793C74.5382 5.121 74.9248 4.73438 75.4017 4.73438C75.8787 4.73438 76.2653 5.121 76.2653 5.59793Z" fill="#00E6FF"/>
<path d="M142.091 5.59793C142.091 6.07486 141.705 6.46149 141.228 6.46149C140.751 6.46149 140.364 6.07486 140.364 5.59793C140.364 5.121 140.751 4.73438 141.228 4.73438C141.705 4.73438 142.091 5.121 142.091 5.59793Z" fill="#00E6FF"/>
<path d="M109.261 5.59793C109.261 6.07486 108.874 6.46149 108.398 6.46149C107.921 6.46149 107.534 6.07486 107.534 5.59793C107.534 5.121 107.921 4.73438 108.398 4.73438C108.874 4.73438 109.261 5.121 109.261 5.59793Z" fill="#00E6FF"/>
<path d="M115.855 5.59793C115.855 6.07486 115.469 6.46149 114.992 6.46149C114.515 6.46149 114.128 6.07486 114.128 5.59793C114.128 5.121 114.515 4.73438 114.992 4.73438C115.469 4.73438 115.855 5.121 115.855 5.59793Z" fill="#00E6FF"/>
<path d="M122.45 5.59793C122.45 6.07486 122.063 6.46149 121.586 6.46149C121.109 6.46149 120.723 6.07486 120.723 5.59793C120.723 5.121 121.109 4.73438 121.586 4.73438C122.063 4.73438 122.45 5.121 122.45 5.59793Z" fill="#00E6FF"/>
<path d="M135.639 5.59793C135.639 6.07486 135.252 6.46149 134.775 6.46149C134.298 6.46149 133.912 6.07486 133.912 5.59793C133.912 5.121 134.298 4.73438 134.775 4.73438C135.252 4.73438 135.639 5.121 135.639 5.59793Z" fill="#00E6FF"/>
<path d="M129.044 5.59793C129.044 6.07486 128.658 6.46149 128.181 6.46149C127.704 6.46149 127.317 6.07486 127.317 5.59793C127.317 5.121 127.704 4.73438 128.181 4.73438C128.658 4.73438 129.044 5.121 129.044 5.59793Z" fill="#00E6FF"/>
<path d="M142.233 25.3642C142.233 25.8412 141.846 26.2278 141.369 26.2278C140.893 26.2278 140.506 25.8412 140.506 25.3642C140.506 24.8873 140.893 24.5007 141.369 24.5007C141.846 24.5007 142.233 24.8873 142.233 25.3642Z" fill="#00E6FF"/>
<path d="M89.478 25.3642C89.478 25.8412 89.0913 26.2278 88.6144 26.2278C88.1375 26.2278 87.7509 25.8412 87.7509 25.3642C87.7509 24.8873 88.1375 24.5007 88.6144 24.5007C89.0913 24.5007 89.478 24.8873 89.478 25.3642Z" fill="#00E6FF"/>
<path d="M96.0723 25.3642C96.0723 25.8412 95.6857 26.2278 95.2088 26.2278C94.7319 26.2278 94.3452 25.8412 94.3452 25.3642C94.3452 24.8873 94.7319 24.5007 95.2088 24.5007C95.6857 24.5007 96.0723 24.8873 96.0723 25.3642Z" fill="#00E6FF"/>
<path d="M102.667 25.3642C102.667 25.8412 102.28 26.2278 101.803 26.2278C101.326 26.2278 100.94 25.8412 100.94 25.3642C100.94 24.8873 101.326 24.5007 101.803 24.5007C102.28 24.5007 102.667 24.8873 102.667 25.3642Z" fill="#00E6FF"/>
<path d="M122.45 25.3642C122.45 25.8412 122.063 26.2278 121.586 26.2278C121.109 26.2278 120.723 25.8412 120.723 25.3642C120.723 24.8873 121.109 24.5007 121.586 24.5007C122.063 24.5007 122.45 24.8873 122.45 25.3642Z" fill="#00E6FF"/>
<path d="M135.639 25.3642C135.639 25.8412 135.252 26.2278 134.775 26.2278C134.298 26.2278 133.912 25.8412 133.912 25.3642C133.912 24.8873 134.298 24.5007 134.775 24.5007C135.252 24.5007 135.639 24.8873 135.639 25.3642Z" fill="#00E6FF"/>
<path d="M129.044 25.3642C129.044 25.8412 128.658 26.2278 128.181 26.2278C127.704 26.2278 127.317 25.8412 127.317 25.3642C127.317 24.8873 127.704 24.5007 128.181 24.5007C128.658 24.5007 129.044 24.8873 129.044 25.3642Z" fill="#00E6FF"/>
</g>
<defs>
<filter id="filter0_d_4700_24365" x="0.165289" y="2.89966" width="150.443" height="25.1772" filterUnits="userSpaceOnUse" color-interpolation-filters="sRGB">
<feFlood flood-opacity="0" result="BackgroundImageFix"/>
<feColorMatrix in="SourceAlpha" type="matrix" values="0 0 0 0 0 0 0 0 0 0 0 0 0 0 0 0 0 0 127 0" result="hardAlpha"/>
<feOffset/>
<feGaussianBlur stdDeviation="0.917355"/>
<feComposite in2="hardAlpha" operator="out"/>
<feColorMatrix type="matrix" values="0 0 0 0 0 0 0 0 0 0.898039 0 0 0 0 1 0 0 0 1 0"/>
<feBlend mode="normal" in2="BackgroundImageFix" result="effect1_dropShadow_4700_24365"/>
<feBlend mode="normal" in="SourceGraphic" in2="effect1_dropShadow_4700_24365" result="shape"/>
</filter>
<linearGradient id="paint0_linear_4700_24365" x1="75.2602" y1="39.7989" x2="75.2602" y2="-36.5789" gradientUnits="userSpaceOnUse">
<stop stop-color="#00E5FF"/>
<stop offset="0.35" stop-color="white"/>
</linearGradient>
<linearGradient id="paint1_linear_4700_24365" x1="75.2602" y1="39.7989" x2="75.2602" y2="-36.5789" gradientUnits="userSpaceOnUse">
<stop stop-color="#00E5FF"/>
<stop offset="0.35" stop-color="white"/>
</linearGradient>
<linearGradient id="paint2_linear_4700_24365" x1="75.2602" y1="39.7989" x2="75.2602" y2="-36.5789" gradientUnits="userSpaceOnUse">
<stop stop-color="#00E5FF"/>
<stop offset="0.35" stop-color="white"/>
</linearGradient>
<linearGradient id="paint3_linear_4700_24365" x1="75.2602" y1="39.7989" x2="75.2602" y2="-36.5789" gradientUnits="userSpaceOnUse">
<stop stop-color="#00E5FF"/>
<stop offset="0.35" stop-color="white"/>
</linearGradient>
<linearGradient id="paint4_linear_4700_24365" x1="75.2602" y1="39.7989" x2="75.2602" y2="-36.5789" gradientUnits="userSpaceOnUse">
<stop stop-color="#00E5FF"/>
<stop offset="0.35" stop-color="white"/>
</linearGradient>
<linearGradient id="paint5_linear_4700_24365" x1="75.2602" y1="39.7989" x2="75.2602" y2="-36.5789" gradientUnits="userSpaceOnUse">
<stop stop-color="#00E5FF"/>
<stop offset="0.35" stop-color="white"/>
</linearGradient>
<linearGradient id="paint6_linear_4700_24365" x1="75.2602" y1="39.7989" x2="75.2602" y2="-36.5789" gradientUnits="userSpaceOnUse">
<stop stop-color="#00E5FF"/>
<stop offset="0.35" stop-color="white"/>
</linearGradient>
<linearGradient id="paint7_linear_4700_24365" x1="75.2602" y1="39.7989" x2="75.2602" y2="-36.5789" gradientUnits="userSpaceOnUse">
<stop stop-color="#00E5FF"/>
<stop offset="0.35" stop-color="white"/>
</linearGradient>
<linearGradient id="paint8_linear_4700_24365" x1="75.2602" y1="39.7989" x2="75.2602" y2="-36.5789" gradientUnits="userSpaceOnUse">
<stop stop-color="#00E5FF"/>
<stop offset="0.35" stop-color="white"/>
</linearGradient>
<linearGradient id="paint9_linear_4700_24365" x1="75.2602" y1="39.7989" x2="75.2602" y2="-36.5789" gradientUnits="userSpaceOnUse">
<stop stop-color="#00E5FF"/>
<stop offset="0.35" stop-color="white"/>
</linearGradient>
</defs>
</svg>
