<svg width="174" height="34" viewBox="0 0 174 34" fill="none" xmlns="http://www.w3.org/2000/svg">
<path d="M63.0639 8.60991C63.0639 8.60991 62.856 8.60991 62.4402 8.60991C62.0424 8.60991 61.5181 8.61895 60.8672 8.63704C60.2163 8.63704 59.5202 8.63704 58.7789 8.63704V13.139H55.1719V2.2366C55.1719 1.71227 55.2804 1.32355 55.4973 1.07042C55.7324 0.799218 56.1753 0.663616 56.8262 0.663616C57.0974 0.663616 57.4862 0.663616 57.9924 0.663616C58.5167 0.645535 59.0953 0.636495 59.7281 0.636495C60.379 0.636495 61.048 0.636495 61.735 0.636495C62.4402 0.618415 63.1091 0.618415 63.7419 0.636495C64.3748 0.636495 64.9262 0.645535 65.3963 0.663616C65.8845 0.663616 66.2461 0.672656 66.4811 0.690736C67.4394 0.781138 68.1535 1.0885 68.6236 1.61283C69.0937 2.11908 69.3288 2.91462 69.3288 3.99943C69.3288 4.93961 69.2384 5.65378 69.0576 6.14195C68.8768 6.61204 68.5965 6.96461 68.2168 7.19965C68.1264 7.27197 67.9818 7.33525 67.7829 7.38949C67.6021 7.44373 67.4032 7.47085 67.1862 7.47085V7.55222C67.2947 7.55222 67.4122 7.55222 67.5388 7.55222C67.6654 7.55222 67.7739 7.55222 67.8643 7.55222C68.5513 7.67878 68.9672 7.94998 69.1118 8.36583C69.2564 8.7636 69.3288 9.17944 69.3288 9.61337V12.2712C69.3288 12.5424 69.3559 12.7503 69.4101 12.8949C69.4644 13.0396 69.5005 13.121 69.5186 13.139H66.8608C66.463 13.139 66.1557 13.0758 65.9387 12.9492C65.7217 12.8226 65.6133 12.5424 65.6133 12.1085V9.96594C65.6133 9.40545 65.4867 9.04384 65.2336 8.88112C64.9985 8.70032 64.5736 8.60991 63.9589 8.60991H63.0639ZM58.7789 6.81996C58.9959 6.81996 59.3303 6.829 59.7824 6.84708C60.2524 6.84708 60.7497 6.85612 61.274 6.8742C61.8164 6.8742 62.3136 6.8742 62.7656 6.8742C63.2357 6.8742 63.5702 6.8742 63.7691 6.8742C64.2572 6.8742 64.6912 6.72052 65.0708 6.41316C65.4505 6.08771 65.6404 5.5001 65.6404 4.65033C65.6404 4.05367 65.5319 3.58359 65.3149 3.24006C65.098 2.89654 64.7544 2.69765 64.2844 2.64341C63.977 2.60725 63.5883 2.58917 63.1182 2.58917C62.6481 2.57109 62.1599 2.56205 61.6537 2.56205C61.1474 2.56205 60.6773 2.57109 60.2434 2.58917C59.8276 2.58917 59.5112 2.59821 59.2942 2.61629C59.258 2.61629 59.1586 2.64341 58.9959 2.69765C58.8512 2.75189 58.7789 2.89653 58.7789 3.13158V6.81996Z" fill="#ED1C5F"/>
<path d="M87.0327 7.25389C87.0327 8.21215 86.9785 9.06192 86.87 9.80322C86.7615 10.5445 86.4903 11.1683 86.0564 11.6745C85.6224 12.1808 84.9264 12.5605 83.9681 12.8136C83.0279 13.0667 81.7171 13.1933 80.0356 13.1933C78.6796 13.1933 77.5586 13.1119 76.6727 12.9492C75.8048 12.7865 75.1268 12.5424 74.6387 12.2169C74.1686 11.8915 73.825 11.5028 73.6081 11.0508C73.4092 10.5807 73.2826 10.0473 73.2284 9.45065C73.1922 8.854 73.1741 8.20311 73.1741 7.49798V2.34508C73.1741 1.875 73.1832 1.52243 73.2013 1.28739C73.2374 1.03426 73.3549 0.871539 73.5538 0.799218C73.7527 0.708817 74.0782 0.663616 74.5302 0.663616H76.7812V8.39295C76.7812 9.1704 76.8897 9.75801 77.1066 10.1558C77.3417 10.5535 77.6942 10.8248 78.1643 10.9694C78.6525 11.114 79.2763 11.1864 80.0356 11.1864C81.247 11.1864 82.1058 10.9784 82.6121 10.5626C83.1364 10.1467 83.3986 9.43257 83.3986 8.42007V0.663616H85.6224C86.0925 0.663616 86.427 0.708817 86.6259 0.799218C86.8248 0.871539 86.9423 1.03426 86.9785 1.28739C87.0146 1.52243 87.0327 1.875 87.0327 2.34508V7.25389Z" fill="#ED1C5F"/>
<path d="M99.8613 13.1933C98.3245 13.1933 96.9956 13.1933 95.8746 13.1933C94.7536 13.1933 93.8135 13.1933 93.0541 13.1933C92.3128 13.1933 91.689 13.1752 91.1828 13.139V1.91116C91.1828 1.38683 91.2913 1.05234 91.5082 0.9077C91.7433 0.744977 92.0597 0.663616 92.4574 0.663616C93.1083 0.663616 93.6779 0.663616 94.166 0.663616C94.6542 0.645535 95.0881 0.636495 95.4678 0.636495C95.8475 0.618415 96.2091 0.609375 96.5526 0.609375C96.8962 0.609375 97.2668 0.609375 97.6646 0.609375C98.1347 0.609375 98.6409 0.618415 99.1833 0.636495C99.7438 0.636495 100.259 0.636495 100.729 0.636495C101.217 0.636495 101.579 0.645535 101.814 0.663616C102.826 0.735937 103.577 1.01618 104.065 1.50435C104.553 1.99252 104.797 2.72477 104.797 3.70111C104.797 4.42432 104.68 4.99385 104.445 5.4097C104.21 5.80747 103.911 6.09675 103.55 6.27755C103.188 6.45836 102.836 6.5578 102.492 6.57588C102.908 6.57588 103.288 6.62108 103.631 6.71148C103.975 6.7838 104.264 6.92845 104.499 7.14541C104.734 7.34429 104.924 7.64262 105.068 8.04039C105.213 8.43815 105.285 8.95344 105.285 9.58625C105.285 10.3999 105.159 11.0508 104.906 11.5389C104.671 12.009 104.318 12.3706 103.848 12.6237C103.396 12.8588 102.836 13.0125 102.167 13.0848C101.498 13.1571 100.729 13.1933 99.8613 13.1933ZM98.7494 11.4304C99.1472 11.4304 99.5178 11.4214 99.8613 11.4033C100.223 11.3672 100.53 11.2948 100.783 11.1864C101.055 11.0779 101.263 10.888 101.407 10.6168C101.57 10.3275 101.651 9.93882 101.651 9.45065C101.651 8.72744 101.498 8.23023 101.19 7.95902C100.901 7.68782 100.295 7.55222 99.3732 7.55222H95.4407C95.1333 7.55222 94.9344 7.41661 94.844 7.14541C94.7717 6.85612 94.7356 6.44028 94.7356 5.89787H99.2647C99.6082 5.89787 99.9246 5.85267 100.214 5.76227C100.503 5.67186 100.729 5.49106 100.892 5.21986C101.073 4.93057 101.163 4.50568 101.163 3.94519C101.163 3.3847 101.046 2.95982 100.811 2.67053C100.576 2.38125 100.196 2.22756 99.6715 2.20948C99.4003 2.1914 99.0929 2.18236 98.7494 2.18236C98.4059 2.16428 98.0623 2.15524 97.7188 2.15524C97.303 2.15524 96.9052 2.15524 96.5255 2.15524C96.1458 2.15524 95.8113 2.16428 95.5221 2.18236C95.3051 2.18236 95.1243 2.24564 94.9796 2.37221C94.8531 2.48069 94.7898 2.67053 94.7898 2.94174V11.4033C95.0248 11.4033 95.2328 11.4124 95.4136 11.4304C95.5944 11.4304 95.8023 11.4304 96.0373 11.4304C96.2905 11.4304 96.625 11.4304 97.0408 11.4304C97.4566 11.4304 98.0262 11.4304 98.7494 11.4304Z" fill="#ED1C5F"/>
<path d="M113.203 13.139V8.12175L108.131 1.34163L107.589 0.663616H112.579L115.915 5.6809L119.142 0.663616H122.424L121.746 1.42299L116.81 8.12175V11.7559C116.828 12.1356 116.792 12.4249 116.701 12.6237C116.611 12.8226 116.448 12.9582 116.213 13.0306C115.978 13.1029 115.644 13.139 115.21 13.139H113.203Z" fill="#ED1C5F"/>
<path d="M55.3075 33.4794V22.4142C55.3075 22.0707 55.3256 21.7995 55.3617 21.6006C55.3979 21.3837 55.4973 21.23 55.66 21.1396C55.8228 21.0492 56.1121 21.004 56.5279 21.004H68.4338V22.9295H58.9416V26.0755H67.5931V28.0011H58.9416V33.4794H55.3075Z" fill="white"/>
<path d="M78.6887 33.6692C77.3689 33.6692 76.2298 33.5788 75.2715 33.398C74.3314 33.2172 73.5449 32.8918 72.9121 32.4217C72.2973 31.9516 71.8363 31.3007 71.5289 30.469C71.2396 29.6192 71.095 28.5435 71.095 27.2417C71.095 25.9037 71.2487 24.8189 71.556 23.9872C71.8815 23.1374 72.3606 22.4866 72.9934 22.0345C73.6443 21.5645 74.4489 21.239 75.4071 21.0582C76.3835 20.8774 77.5225 20.787 78.8243 20.787C80.1261 20.787 81.2471 20.8774 82.1873 21.0582C83.1455 21.239 83.932 21.5645 84.5467 22.0345C85.1795 22.5046 85.6406 23.1646 85.9299 24.0143C86.2372 24.846 86.3909 25.9218 86.3909 27.2417C86.3909 28.5615 86.2282 29.6464 85.9028 30.4961C85.5954 31.3278 85.1253 31.9787 84.4925 32.4488C83.8597 32.9189 83.0551 33.2443 82.0788 33.4251C81.1205 33.5879 79.9905 33.6692 78.6887 33.6692ZM78.743 31.7437C79.3938 31.7437 79.9634 31.6894 80.4515 31.581C80.9578 31.4544 81.3736 31.2284 81.6991 30.9029C82.0245 30.5775 82.2686 30.1255 82.4313 29.5469C82.5941 28.9503 82.6754 28.1819 82.6754 27.2417C82.6754 26.2834 82.5941 25.515 82.4313 24.9364C82.2686 24.3398 82.0245 23.8787 81.6991 23.5533C81.3736 23.2278 80.9578 23.0109 80.4515 22.9024C79.9634 22.7758 79.3938 22.7126 78.743 22.7126C78.074 22.7126 77.4864 22.7758 76.9801 22.9024C76.492 23.0109 76.0851 23.2278 75.7597 23.5533C75.4523 23.8787 75.2173 24.3398 75.0546 24.9364C74.8918 25.515 74.8105 26.2834 74.8105 27.2417C74.8105 28.1819 74.8918 28.9503 75.0546 29.5469C75.2173 30.1255 75.4523 30.5775 75.7597 30.9029C76.0851 31.2284 76.492 31.4544 76.9801 31.581C77.4864 31.6894 78.074 31.7437 78.743 31.7437Z" fill="white"/>
<path d="M97.883 28.9503C97.883 28.9503 97.6751 28.9503 97.2592 28.9503C96.8615 28.9503 96.3372 28.9593 95.6863 28.9774C95.0354 28.9774 94.3393 28.9774 93.598 28.9774V33.4794H89.991V22.577C89.991 22.0526 90.0994 21.6639 90.3164 21.4108C90.5514 21.1396 90.9944 21.004 91.6453 21.004C91.9165 21.004 92.3052 21.004 92.8115 21.004C93.3358 20.9859 93.9144 20.9769 94.5472 20.9769C95.1981 20.9769 95.8671 20.9769 96.5541 20.9769C97.2592 20.9588 97.9282 20.9588 98.561 20.9769C99.1938 20.9769 99.7453 20.9859 100.215 21.004C100.704 21.004 101.065 21.013 101.3 21.0311C102.258 21.1215 102.973 21.4289 103.443 21.9532C103.913 22.4594 104.148 23.255 104.148 24.3398C104.148 25.28 104.057 25.9941 103.877 26.4823C103.696 26.9524 103.416 27.305 103.036 27.54C102.946 27.6123 102.801 27.6756 102.602 27.7298C102.421 27.7841 102.222 27.8112 102.005 27.8112V27.8926C102.114 27.8926 102.231 27.8926 102.358 27.8926C102.484 27.8926 102.593 27.8926 102.683 27.8926C103.37 28.0191 103.786 28.2903 103.931 28.7062C104.076 29.104 104.148 29.5198 104.148 29.9537V32.6115C104.148 32.8827 104.175 33.0907 104.229 33.2353C104.283 33.3799 104.32 33.4613 104.338 33.4794H101.68C101.282 33.4794 100.975 33.4161 100.758 33.2895C100.541 33.163 100.432 32.8827 100.432 32.4488V30.3063C100.432 29.7458 100.306 29.3842 100.053 29.2215C99.8176 29.0407 99.3927 28.9503 98.778 28.9503H97.883ZM93.598 27.1603C93.8149 27.1603 94.1494 27.1694 94.6014 27.1874C95.0715 27.1874 95.5687 27.1965 96.0931 27.2146C96.6355 27.2146 97.1327 27.2146 97.5847 27.2146C98.0548 27.2146 98.3893 27.2146 98.5881 27.2146C99.0763 27.2146 99.5102 27.0609 99.8899 26.7535C100.27 26.4281 100.459 25.8405 100.459 24.9907C100.459 24.394 100.351 23.9239 100.134 23.5804C99.9171 23.2369 99.5735 23.038 99.1034 22.9838C98.7961 22.9476 98.4073 22.9295 97.9373 22.9295C97.4672 22.9114 96.979 22.9024 96.4728 22.9024C95.9665 22.9024 95.4964 22.9114 95.0625 22.9295C94.6466 22.9295 94.3302 22.9386 94.1133 22.9566C94.0771 22.9566 93.9777 22.9838 93.8149 23.038C93.6703 23.0922 93.598 23.2369 93.598 23.4719V27.1603Z" fill="white"/>
<path d="M106.99 21.004H121.038V22.9566H115.831V32.2047C115.831 32.711 115.759 33.0545 115.614 33.2353C115.469 33.398 115.135 33.4794 114.611 33.4794H112.197V22.9566H106.99V21.004Z" fill="white"/>
<path d="M137.897 27.5942C137.897 28.5525 137.843 29.4023 137.735 30.1436C137.626 30.8849 137.355 31.5086 136.921 32.0149C136.487 32.5211 135.791 32.9008 134.833 33.1539C133.893 33.4071 132.582 33.5336 130.9 33.5336C129.544 33.5336 128.423 33.4523 127.537 33.2895C126.669 33.1268 125.991 32.8827 125.503 32.5573C125.033 32.2318 124.69 31.8431 124.473 31.3911C124.274 30.921 124.147 30.3877 124.093 29.791C124.057 29.1944 124.039 28.5435 124.039 27.8383V22.6854C124.039 22.2154 124.048 21.8628 124.066 21.6277C124.102 21.3746 124.22 21.2119 124.418 21.1396C124.617 21.0492 124.943 21.004 125.395 21.004H127.646V28.7333C127.646 29.5108 127.754 30.0984 127.971 30.4961C128.206 30.8939 128.559 31.1651 129.029 31.3098C129.517 31.4544 130.141 31.5267 130.9 31.5267C132.112 31.5267 132.97 31.3188 133.477 30.9029C134.001 30.4871 134.263 29.7729 134.263 28.7604V21.004H136.487C136.957 21.004 137.292 21.0492 137.491 21.1396C137.689 21.2119 137.807 21.3746 137.843 21.6277C137.879 21.8628 137.897 22.2154 137.897 22.6854V27.5942Z" fill="white"/>
<path d="M142.183 33.4794V22.3871C142.183 21.8085 142.255 21.4379 142.4 21.2752C142.545 21.0944 142.906 21.004 143.485 21.004H146.848L153.519 29.791L153.655 30.2249V21.004H156.313C156.295 21.0401 156.277 21.1396 156.259 21.3023C156.24 21.465 156.231 21.6458 156.231 21.8447C156.231 22.0436 156.231 22.2154 156.231 22.36V32.259C156.231 32.8195 156.132 33.163 155.933 33.2895C155.734 33.4161 155.346 33.4794 154.767 33.4794H151.675L144.895 24.5296L144.787 24.0686V33.4794H142.183Z" fill="white"/>
<path d="M160.904 33.4794V22.2244C160.904 21.7362 160.976 21.4108 161.121 21.2481C161.283 21.0853 161.618 21.004 162.124 21.004H174.003V22.9295H164.511V26.0755H173.189V28.0011H164.511V31.5538H174.003V33.4794H160.904Z" fill="white"/>
<g clip-path="url(#clip0_8695_52633)">
<path d="M19.5868 33.4791L0 9.03711H10.9878L19.5868 33.4791Z" fill="#ED1C5F"/>
<path d="M10.51 0.332031H16.243L10.9878 9.03728H0L10.51 0.332031Z" fill="#CC2E61"/>
<path d="M19.5859 33.4791L39.1732 9.03711H28.1853L19.5859 33.4791Z" fill="#ED1C5F"/>
<path d="M28.6623 0.332031H22.9297L28.1849 9.03728H39.1727L28.6623 0.332031Z" fill="#F73170"/>
<path d="M19.5833 33.4791L10.9844 9.03711H28.1827L19.5833 33.4791Z" fill="#FC4781"/>
<path d="M16.2396 0.332031H22.9275L28.1827 9.03728H10.9844L16.2396 0.332031Z" fill="#FF8EB2"/>
</g>
<defs>
<clipPath id="clip0_8695_52633">
<rect width="39.174" height="33.1472" fill="white" transform="translate(0 0.332031)"/>
</clipPath>
</defs>
</svg>
