<svg width="162" height="64" viewBox="0 0 162 64" fill="none" xmlns="http://www.w3.org/2000/svg">
<path d="M10.4529 32.2852C8.61036 32.2852 7.01639 31.9196 5.67102 31.1885C4.3549 30.428 3.25813 29.4044 2.38072 28.1175C1.53255 26.8014 0.903737 25.3244 0.494277 23.6866C0.114064 22.0195 -0.0467954 20.2939 0.0116989 18.5098C0.128687 15.3219 0.71363 12.5727 1.76653 10.2621C2.81942 7.95161 4.15017 6.05055 5.75876 4.55894C7.36735 3.06734 9.09294 1.97057 10.9355 1.26864C12.8073 0.537464 14.606 0.171875 16.3316 0.171875C17.794 0.171875 19.1101 0.420475 20.28 0.917675C21.4791 1.38563 22.4296 2.08756 23.1316 3.02347C23.8335 3.93013 24.1845 5.04152 24.1845 6.35764C24.1845 7.38129 23.8774 8.3757 23.2632 9.34085C22.6782 10.2768 21.7716 11.0518 20.5432 11.666C19.3441 12.2509 17.794 12.5434 15.8929 12.5434C16.2146 11.6075 16.4486 10.7886 16.5948 10.0867C16.7411 9.38472 16.8142 8.78516 16.8142 8.28796C16.8142 7.26431 16.5802 6.577 16.1122 6.22603C15.6443 5.84582 15.0594 5.65571 14.3574 5.65571C13.5093 5.65571 12.705 5.96281 11.9445 6.577C11.1841 7.19119 10.4968 8.02473 9.88261 9.07763C9.29767 10.1013 8.82971 11.2419 8.47875 12.4995C8.12778 13.7572 7.92305 15.0294 7.86456 16.3163C7.74757 19.5627 8.21552 22.0195 9.26842 23.6866C10.3213 25.3537 11.6813 26.1872 13.3484 26.1872C14.6353 26.1872 16.0538 25.6608 17.6039 24.6079C19.1832 23.555 20.7333 21.961 22.2541 19.826L22.8245 20.0892C22.4443 22.7214 21.6107 24.9442 20.3238 26.7575C19.037 28.5708 17.5161 29.9455 15.7613 30.8814C14.0357 31.8173 12.2663 32.2852 10.4529 32.2852Z" fill="#E630CE"/>
<path d="M41.1199 32.2414C40.0963 32.2414 39.2042 31.905 38.4438 31.2323C37.6834 30.5597 37.3032 29.4629 37.3032 27.942C37.3032 27.7958 37.3032 27.6496 37.3032 27.5033C37.3032 27.3571 37.3178 27.2109 37.347 27.0646C36.4696 28.8194 35.4752 30.1209 34.3638 30.9691C33.2817 31.788 32.1849 32.1975 31.0735 32.1975C30.0499 32.1975 29.0847 31.8465 28.1781 31.1446C27.2714 30.4134 26.5402 29.3459 25.9845 27.942C25.4288 26.5382 25.151 24.8418 25.151 22.853C25.151 20.8057 25.4288 18.9778 25.9845 17.3692C26.5695 15.7606 27.3299 14.4006 28.2658 13.2892C29.2017 12.1778 30.2254 11.3443 31.3368 10.7886C32.4481 10.2036 33.5303 9.91117 34.5832 9.91117C35.7531 9.91117 36.806 10.2768 37.7419 11.0079C38.6778 11.7099 39.3212 12.8359 39.6722 14.386C39.7599 13.8888 39.8184 13.4355 39.8477 13.026C39.9062 12.6165 39.9354 12.3387 39.9354 12.1924C39.9647 11.4028 40.3595 10.8178 41.1199 10.4376C41.9096 10.0574 42.7724 9.8673 43.7083 9.8673C44.5272 9.8673 45.3023 10.0282 46.0334 10.3499C46.7646 10.6716 47.2618 11.2127 47.525 11.9731L47.6128 12.2363C47.2618 13.026 46.9109 13.9765 46.5599 15.0879C46.2089 16.1993 45.8872 17.3692 45.5947 18.5976C45.3023 19.7967 45.0683 20.9812 44.8928 22.1511C44.7173 23.2917 44.6296 24.3008 44.6296 25.1782C44.6296 26.1433 44.7319 26.816 44.9367 27.1962C45.1414 27.5472 45.39 27.7227 45.6825 27.7227C46.1797 27.7227 46.633 27.3717 47.0425 26.6698L47.3934 26.8453C47.3934 27.8397 47.0717 28.7463 46.4283 29.5653C45.7848 30.3842 44.9805 31.0422 44.0154 31.5394C43.0502 32.0074 42.0851 32.2414 41.1199 32.2414ZM33.969 26.6698C34.7294 26.6698 35.563 25.9971 36.4696 24.6517C37.4055 23.2771 38.2098 21.3176 38.8825 18.7731C38.941 18.5098 38.9995 18.2612 39.058 18.0273C39.1165 17.764 39.1604 17.5154 39.1896 17.2815C38.7217 16.1993 38.2245 15.4389 37.698 15.0002C37.2008 14.5322 36.7036 14.2982 36.2064 14.2982C35.4752 14.2982 34.7879 14.6931 34.1445 15.4828C33.5303 16.2432 33.0185 17.2083 32.609 18.3782C32.2288 19.5481 32.0387 20.718 32.0387 21.8879C32.0387 23.4965 32.2142 24.6956 32.5651 25.4853C32.9453 26.2749 33.4133 26.6698 33.969 26.6698Z" fill="#E630CE"/>
<path d="M57.2863 32.4168C55.473 32.4168 53.9667 32.1682 52.7676 31.671C51.5685 31.1738 50.6764 30.545 50.0915 29.7846C49.5065 28.9949 49.2141 28.2053 49.2141 27.4156C49.2141 26.3042 49.7113 25.3244 50.7057 24.4762C51.7001 23.5988 53.0454 23.1601 54.7418 23.1601C54.7418 24.6517 54.9319 25.8509 55.3121 26.7575C55.6923 27.6349 56.1749 28.2638 56.7598 28.644C57.374 29.0242 57.959 29.2143 58.5147 29.2143C59.1873 29.2143 59.743 29.0242 60.1817 28.644C60.6497 28.2345 60.8837 27.7373 60.8837 27.1524C60.8837 26.3334 60.4596 25.6169 59.6114 25.0027C58.7633 24.3885 57.6665 23.7012 56.3211 22.9408C55.6484 22.5313 54.9173 22.0634 54.1276 21.5369C53.3379 20.9812 52.6652 20.3232 52.1095 19.5627C51.5538 18.7731 51.276 17.8371 51.276 16.755C51.276 15.6144 51.5977 14.6053 52.2411 13.7279C52.9138 12.8505 53.7912 12.1193 54.8734 11.5344C55.9555 10.9202 57.1254 10.4669 58.383 10.1744C59.6407 9.85268 60.8691 9.69182 62.0682 9.69182C64.3202 9.69182 66.0165 10.1451 67.1572 11.0518C68.2978 11.9585 68.8681 12.9236 68.8681 13.9473C68.8681 14.8247 68.4294 15.6144 67.552 16.3163C66.6746 17.0182 65.3292 17.3692 63.5159 17.3692C63.5452 15.8776 63.2381 14.7954 62.5946 14.1228C61.9512 13.4208 61.2639 13.0699 60.5327 13.0699C60.0063 13.0699 59.5676 13.2307 59.2166 13.5524C58.8656 13.8742 58.6901 14.3421 58.6901 14.9563C58.6901 15.6582 58.9095 16.2724 59.3482 16.7989C59.8162 17.2961 60.3865 17.7494 61.0592 18.1589C61.7611 18.5391 62.4776 18.9047 63.2088 19.2556C64.2032 19.7236 65.1391 20.2208 66.0165 20.7472C66.894 21.2737 67.6105 21.8733 68.1662 22.5459C68.7219 23.2186 68.9998 24.0375 68.9998 25.0027C68.9998 26.3188 68.4587 27.5472 67.3765 28.6878C66.3236 29.7992 64.9052 30.7059 63.1211 31.4078C61.337 32.0805 59.3921 32.4168 57.2863 32.4168Z" fill="#E630CE"/>
<path d="M79.6686 8.55118C78.4987 8.55118 77.5335 8.20021 76.7731 7.49828C76.0419 6.7671 75.6763 5.86044 75.6763 4.7783C75.6763 3.60841 76.115 2.59939 76.9925 1.75122C77.8699 0.903052 78.9374 0.478969 80.195 0.478969C81.3649 0.478969 82.3154 0.844558 83.0466 1.57574C83.807 2.30692 84.1872 3.21358 84.1872 4.29572C84.1872 5.46561 83.7485 6.47463 82.8711 7.3228C81.9937 8.14172 80.9262 8.55118 79.6686 8.55118ZM76.5976 32.1975C75.457 32.1975 74.4333 31.8027 73.5267 31.013C72.62 30.1941 72.1667 28.8926 72.1667 27.1085C72.1667 26.0848 72.2983 25.1343 72.5615 24.2569C72.854 23.3502 73.1757 22.4728 73.5267 21.6246C73.9069 20.7765 74.2286 19.9576 74.4918 19.1679C74.7843 18.349 74.9305 17.5447 74.9305 16.755C74.9305 16.0531 74.8135 15.5559 74.5796 15.2634C74.3456 14.9417 74.0677 14.7808 73.746 14.7808C73.2488 14.7808 72.7662 15.1025 72.2983 15.746L71.9912 15.5705C72.1082 14.4006 72.4738 13.4062 73.088 12.5873C73.7314 11.7391 74.5064 11.0811 75.4131 10.6131C76.349 10.1451 77.2703 9.91117 78.177 9.91117C79.2884 9.91117 80.2535 10.2768 81.0724 11.0079C81.8913 11.7099 82.3008 12.8651 82.3008 14.4737C82.3008 15.4389 82.1546 16.4625 81.8621 17.5447C81.5989 18.5976 81.2772 19.6505 80.8969 20.7034C80.546 21.7563 80.2243 22.736 79.9318 23.6427C79.6686 24.5494 79.5369 25.3244 79.5369 25.9679C79.5369 26.5235 79.6393 26.9184 79.844 27.1524C80.078 27.3863 80.3266 27.5033 80.5898 27.5033C80.8531 27.5033 81.1017 27.4302 81.3356 27.284C81.5989 27.1085 81.789 26.9184 81.906 26.7137L82.2131 26.8014C82.2131 27.8835 81.9206 28.8341 81.3356 29.653C80.78 30.4427 80.078 31.0715 79.2299 31.5394C78.3817 31.9781 77.5043 32.1975 76.5976 32.1975Z" fill="#E630CE"/>
<path d="M90.6918 32.1536C89.6096 32.1536 88.6298 31.7295 87.7524 30.8814C86.875 30.004 86.4363 28.7902 86.4363 27.2401C86.4363 26.4797 86.5387 25.6169 86.7434 24.6517C86.9481 23.6866 87.1675 22.7068 87.4015 21.7124C87.6647 20.718 87.8987 19.7821 88.1034 18.9047C88.3081 18.0273 88.4105 17.3107 88.4105 16.755C88.4105 16.1701 88.2935 15.7167 88.0595 15.395C87.8255 15.044 87.5184 14.8686 87.1382 14.8686C86.641 14.8686 86.1 15.161 85.515 15.746L85.2518 15.5705C85.2225 15.1025 85.3249 14.5468 85.5589 13.9034C85.7929 13.26 86.1438 12.6458 86.6118 12.0608C87.109 11.4466 87.7378 10.9348 88.4982 10.5254C89.2587 10.1159 90.1653 9.91117 91.2182 9.91117C92.7683 9.91117 93.9089 10.3645 94.6401 11.2712C95.4006 12.1486 95.7808 13.2307 95.7808 14.5176C95.7808 14.9855 95.7369 15.4389 95.6492 15.8776C96.2633 14.9709 97.0238 14.0643 97.9304 13.1576C98.8371 12.2217 99.8315 11.4466 100.914 10.8325C102.025 10.2183 103.166 9.91117 104.336 9.91117C105.71 9.91117 106.646 10.3499 107.143 11.2273C107.64 12.1047 107.889 13.2015 107.889 14.5176C107.889 15.746 107.757 17.0621 107.494 18.466C107.231 19.8698 106.968 21.2298 106.705 22.5459C106.441 23.8328 106.31 24.915 106.31 25.7924C106.31 26.9623 106.646 27.5472 107.319 27.5472C107.67 27.5472 107.977 27.4448 108.24 27.2401C108.503 27.0061 108.679 26.7868 108.766 26.582L109.074 26.7137C109.074 27.7958 108.766 28.7463 108.152 29.5653C107.567 30.3842 106.822 31.0276 105.915 31.4956C105.008 31.9343 104.087 32.1536 103.151 32.1536C102.01 32.1536 101.001 31.7588 100.124 30.9691C99.2466 30.1794 98.8078 28.8926 98.8078 27.1085C98.8078 26.0556 98.9395 24.915 99.2027 23.6866C99.4952 22.4582 99.773 21.2737 100.036 20.133C100.299 18.9924 100.431 18.0565 100.431 17.3253C100.431 16.8866 100.343 16.5503 100.168 16.3163C100.022 16.0531 99.7438 15.9215 99.3343 15.9215C98.6616 15.9215 97.9158 16.2286 97.0969 16.8427C96.3072 17.4569 95.6199 18.2759 95.035 19.2995C94.4793 20.3232 94.2014 21.4492 94.2014 22.6775C94.2014 23.4672 94.2892 24.2276 94.4646 24.9588C94.6694 25.69 94.7717 26.4797 94.7717 27.3278C94.7717 28.9072 94.3623 30.1063 93.5434 30.9252C92.7244 31.7442 91.7739 32.1536 90.6918 32.1536Z" fill="#E630CE"/>
<path d="M120.957 32.3291C118.763 32.3291 116.95 31.8904 115.517 31.013C114.084 30.1356 113.016 28.9803 112.314 27.5472C111.642 26.0848 111.305 24.5347 111.305 22.8969C111.305 21.3468 111.583 19.7967 112.139 18.2466C112.724 16.6965 113.557 15.2926 114.639 14.035C115.751 12.7481 117.096 11.7245 118.675 10.9641C120.255 10.1744 122.068 9.77956 124.115 9.77956C126.309 9.77956 128.108 10.2329 129.512 11.1396C130.945 12.017 131.998 13.1869 132.67 14.6492C133.372 16.1116 133.723 17.6763 133.723 19.3434C133.723 20.8642 133.445 22.3997 132.89 23.9498C132.334 25.4706 131.5 26.8745 130.389 28.1614C129.307 29.419 127.976 30.428 126.397 31.1885C124.817 31.9489 123.004 32.3291 120.957 32.3291ZM122.141 28.6001C122.931 28.6001 123.589 28.1906 124.115 27.3717C124.642 26.5528 125.037 25.5145 125.3 24.2569C125.563 22.97 125.695 21.6685 125.695 20.3524C125.695 19.1825 125.578 18.0857 125.344 17.0621C125.139 16.0092 124.817 15.161 124.379 14.5176C123.94 13.8449 123.37 13.5086 122.668 13.5086C121.907 13.5086 121.249 13.918 120.694 14.7369C120.167 15.5559 119.772 16.5941 119.509 17.8518C119.246 19.1094 119.114 20.4109 119.114 21.7563C119.114 22.9261 119.217 24.0375 119.421 25.0904C119.655 26.1141 119.992 26.9623 120.43 27.6349C120.869 28.2784 121.439 28.6001 122.141 28.6001Z" fill="#E630CE"/>
<path d="M89.4781 57.3793C88.3375 57.3793 87.4052 57.0502 86.6814 56.3922C85.9794 55.7122 85.6285 54.6702 85.6285 53.2664C85.6285 52.5644 85.7052 51.8296 85.8588 51.0619C86.0343 50.2722 86.2207 49.5045 86.4181 48.7587C86.6375 47.9909 86.8239 47.3 86.9775 46.6858C87.131 46.0716 87.2078 45.578 87.2078 45.2051C87.2078 44.8322 87.131 44.569 86.9775 44.4155C86.8239 44.24 86.6375 44.1522 86.4181 44.1522C86.1988 44.1522 85.9794 44.229 85.7601 44.3826C85.5407 44.5142 85.3543 44.7226 85.2007 45.0077L84.9375 44.909C84.9814 44.0097 85.2336 43.2419 85.6943 42.6058C86.1549 41.9697 86.7252 41.4871 87.4052 41.1581C88.1072 40.829 88.8091 40.6645 89.511 40.6645C90.0813 40.6645 90.6297 40.7852 91.1562 41.0264C91.6826 41.2458 92.0994 41.5968 92.4065 42.0793C92.7355 42.54 92.8891 43.1322 92.8671 43.8561C92.8452 44.3387 92.7575 44.9309 92.6039 45.6329C92.4504 46.3348 92.2639 47.0916 92.0446 47.9032C91.8471 48.6929 91.6717 49.4606 91.5181 50.2064C91.3646 50.9522 91.2878 51.6103 91.2878 52.1806C91.2878 52.6632 91.3536 53.047 91.4852 53.3322C91.6388 53.6173 91.891 53.7599 92.242 53.7599C92.6149 53.7599 93.1084 53.5625 93.7226 53.1677C94.3368 52.7728 94.951 52.2025 95.5652 51.4567C95.4336 50.2283 95.3678 49.1425 95.3678 48.1993C95.3678 45.7864 95.7187 44.0426 96.4207 42.9677C97.1445 41.8929 98.0439 41.3555 99.1187 41.3555C99.9084 41.3555 100.446 41.6187 100.731 42.1452C101.016 42.6716 101.159 43.3735 101.159 44.2509C101.159 45.5451 100.939 46.7625 100.501 47.9032C100.062 49.0438 99.5464 49.9541 98.9542 50.6341C98.9981 51.6212 99.1955 52.389 99.5464 52.9373C99.9193 53.4857 100.358 53.7599 100.863 53.7599C101.367 53.7599 101.883 53.4748 102.409 52.9044C102.957 52.3341 103.429 51.4567 103.824 50.2722C104.219 49.0877 104.449 47.5851 104.515 45.7645C104.537 44.2948 104.438 43.22 104.219 42.54V42.3755C104.526 41.871 105.008 41.4432 105.666 41.0923C106.346 40.7194 107.026 40.5329 107.706 40.5329C108.189 40.5329 108.628 40.6755 109.023 40.9606C109.439 41.2239 109.768 41.7284 110.01 42.4742C110.251 43.198 110.339 44.2509 110.273 45.6329C110.207 47.5632 109.889 49.2632 109.319 50.7328C108.748 52.1806 108.013 53.398 107.114 54.3851C106.237 55.3722 105.283 56.118 104.252 56.6225C103.221 57.127 102.201 57.3793 101.192 57.3793C100.051 57.3793 99.009 57.0722 98.0658 56.458C97.1226 55.8218 96.4097 54.9335 95.9271 53.7928C94.94 54.8238 93.92 55.6793 92.8671 56.3593C91.8362 57.0393 90.7065 57.3793 89.4781 57.3793Z" fill="#00DEA7"/>
<path d="M123.935 57.4122C123.167 57.4122 122.498 57.1599 121.928 56.6554C121.357 56.1509 121.072 55.3283 121.072 54.1877C121.072 54.078 121.072 53.9683 121.072 53.8586C121.072 53.749 121.083 53.6393 121.105 53.5296C120.447 54.8457 119.701 55.8218 118.868 56.458C118.056 57.0722 117.234 57.3793 116.4 57.3793C115.632 57.3793 114.908 57.116 114.228 56.5896C113.548 56.0412 113 55.2406 112.583 54.1877C112.166 53.1348 111.958 51.8625 111.958 50.3709C111.958 48.8354 112.166 47.4645 112.583 46.258C113.022 45.0516 113.592 44.0316 114.294 43.198C114.996 42.3645 115.764 41.7393 116.597 41.3226C117.431 40.8839 118.243 40.6645 119.032 40.6645C119.91 40.6645 120.699 40.9387 121.401 41.4871C122.103 42.0135 122.586 42.8581 122.849 44.0206C122.915 43.6477 122.959 43.3077 122.981 43.0006C123.024 42.6935 123.046 42.4851 123.046 42.3755C123.068 41.7832 123.364 41.3445 123.935 41.0594C124.527 40.7742 125.174 40.6316 125.876 40.6316C126.49 40.6316 127.072 40.7523 127.62 40.9935C128.168 41.2348 128.541 41.6406 128.739 42.211L128.804 42.4084C128.541 43.0006 128.278 43.7135 128.015 44.5471C127.752 45.3806 127.51 46.258 127.291 47.1793C127.072 48.0787 126.896 48.967 126.764 49.8445C126.633 50.6999 126.567 51.4567 126.567 52.1148C126.567 52.8386 126.644 53.3432 126.797 53.6283C126.951 53.8915 127.137 54.0231 127.357 54.0231C127.73 54.0231 128.07 53.7599 128.377 53.2335L128.64 53.3651C128.64 54.1109 128.399 54.7909 127.916 55.4051C127.433 56.0193 126.83 56.5128 126.106 56.8857C125.383 57.2367 124.659 57.4122 123.935 57.4122ZM118.572 53.2335C119.142 53.2335 119.767 52.729 120.447 51.7199C121.149 50.689 121.752 49.2193 122.257 47.3109C122.301 47.1135 122.344 46.9271 122.388 46.7516C122.432 46.5542 122.465 46.3677 122.487 46.1922C122.136 45.3806 121.763 44.8103 121.368 44.4813C120.995 44.1303 120.623 43.9548 120.25 43.9548C119.701 43.9548 119.186 44.2509 118.703 44.8432C118.243 45.4135 117.859 46.1374 117.552 47.0148C117.266 47.8922 117.124 48.7696 117.124 49.647C117.124 50.8535 117.255 51.7528 117.519 52.3451C117.804 52.9373 118.155 53.2335 118.572 53.2335Z" fill="#00DEA7"/>
<path d="M137.341 63.8282C136.244 63.8282 135.356 63.4883 134.676 62.8083C134.018 62.1502 133.689 61.2508 133.689 60.1102C133.689 59.518 133.788 58.8599 133.985 58.136C134.204 57.4341 134.555 56.6883 135.038 55.8986C133.963 55.8328 133.075 55.4709 132.373 54.8128C131.693 54.1548 131.353 53.1567 131.353 51.8186C131.353 51.029 131.452 50.1845 131.649 49.2851C131.868 48.3638 132.077 47.5083 132.274 46.7187C132.472 45.9071 132.57 45.2819 132.57 44.8432C132.57 44.5142 132.504 44.2838 132.373 44.1522C132.241 43.9987 132.088 43.9219 131.912 43.9219C131.737 43.9219 131.539 43.9987 131.32 44.1522C131.123 44.2838 130.969 44.4922 130.859 44.7774L130.3 44.1851C130.432 43.5051 130.717 42.9019 131.155 42.3755C131.594 41.849 132.132 41.4323 132.768 41.1252C133.404 40.8181 134.062 40.6645 134.742 40.6645C135.51 40.6645 136.179 40.9168 136.749 41.4213C137.319 41.9039 137.604 42.7922 137.604 44.0864C137.604 44.898 137.506 45.7755 137.308 46.7187C137.111 47.64 136.913 48.5174 136.716 49.3509C136.519 50.1625 136.42 50.8096 136.42 51.2922C136.42 51.7309 136.508 52.0599 136.683 52.2793C136.881 52.4767 137.1 52.5754 137.341 52.5754C137.648 52.5754 137.999 52.4109 138.394 52.0819C138.789 51.7309 139.162 51.1606 139.513 50.3709C139.864 49.5812 140.094 48.5174 140.204 47.1793C140.248 46.7625 140.281 46.2361 140.303 45.6C140.324 44.9419 140.346 44.3387 140.368 43.7903C140.39 43.22 140.401 42.869 140.401 42.7374C140.401 41.9477 140.686 41.3993 141.257 41.0923C141.849 40.7632 142.496 40.5987 143.198 40.5987C143.812 40.5987 144.393 40.7194 144.942 40.9606C145.49 41.2019 145.863 41.6077 146.061 42.1781L146.126 42.3755C145.929 42.551 145.753 43.1432 145.6 44.1522C145.468 45.1613 145.304 46.5103 145.106 48.1993C144.975 49.2961 144.81 50.5354 144.613 51.9174C144.415 53.2993 144.141 54.6922 143.79 56.096C143.461 57.478 143.012 58.7502 142.441 59.9128C141.893 61.0973 141.202 62.0405 140.368 62.7424C139.535 63.4663 138.526 63.8282 137.341 63.8282ZM136.552 60.0444C137.232 60.0444 137.835 59.4192 138.361 58.1689C138.91 56.9405 139.337 55.1857 139.644 52.9044C138.241 54.7031 137.275 56.118 136.749 57.1489C136.223 58.1799 135.959 58.9257 135.959 59.3863C135.959 59.825 136.157 60.0444 136.552 60.0444Z" fill="#00DEA7"/>
<path d="M153.218 57.5438C151.858 57.5438 150.728 57.3573 149.829 56.9844C148.93 56.6115 148.261 56.1399 147.822 55.5696C147.383 54.9773 147.164 54.3851 147.164 53.7928C147.164 52.9593 147.537 52.2244 148.283 51.5883C149.028 50.9303 150.037 50.6012 151.31 50.6012C151.31 51.7199 151.452 52.6193 151.737 53.2993C152.022 53.9573 152.384 54.4289 152.823 54.7141C153.284 54.9993 153.722 55.1418 154.139 55.1418C154.644 55.1418 155.061 54.9993 155.39 54.7141C155.741 54.407 155.916 54.0341 155.916 53.5954C155.916 52.9812 155.598 52.4438 154.962 51.9832C154.326 51.5225 153.503 51.007 152.494 50.4367C151.99 50.1296 151.441 49.7787 150.849 49.3838C150.257 48.967 149.752 48.4735 149.335 47.9032C148.919 47.3109 148.71 46.609 148.71 45.7974C148.71 44.9419 148.952 44.1851 149.434 43.5271C149.939 42.869 150.597 42.3206 151.408 41.8819C152.22 41.4213 153.097 41.0813 154.041 40.8619C154.984 40.6206 155.905 40.5 156.804 40.5C158.493 40.5 159.766 40.84 160.621 41.52C161.477 42.2 161.904 42.9239 161.904 43.6916C161.904 44.3497 161.575 44.9419 160.917 45.4684C160.259 45.9948 159.25 46.258 157.89 46.258C157.912 45.1393 157.682 44.3277 157.199 43.8232C156.717 43.2968 156.201 43.0335 155.653 43.0335C155.258 43.0335 154.929 43.1542 154.666 43.3955C154.402 43.6368 154.271 43.9877 154.271 44.4484C154.271 44.9748 154.435 45.4355 154.764 45.8303C155.115 46.2032 155.543 46.5432 156.048 46.8503C156.574 47.1354 157.112 47.4096 157.66 47.6729C158.406 48.0238 159.108 48.3967 159.766 48.7916C160.424 49.1864 160.961 49.6361 161.378 50.1406C161.795 50.6451 162.003 51.2593 162.003 51.9832C162.003 52.9702 161.597 53.8915 160.786 54.747C159.996 55.5806 158.932 56.2606 157.594 56.787C156.256 57.2915 154.797 57.5438 153.218 57.5438Z" fill="#00DEA7"/>
</svg>
