<svg width="104" height="40" viewBox="0 0 104 40" fill="none" xmlns="http://www.w3.org/2000/svg">
<path d="M8.26099 11.8891L8.65089 8.65102H16.4732C16.4245 10.3909 16.1564 11.8811 15.6691 13.1215C15.1005 14.6197 14.1338 15.7958 12.7692 16.6496C11.4208 17.5034 9.8612 17.9303 8.09041 17.9303C5.70227 17.9303 3.75278 17.1973 2.24192 15.7313C0.747306 14.2492 0 12.3402 0 10.0043C0 7.45889 0.836659 5.35654 2.50998 3.69722C4.19954 2.02179 6.32774 1.18408 8.89457 1.18408C10.9578 1.18408 12.688 1.76404 14.0851 2.92395C14.605 3.35892 15.003 3.77777 15.2792 4.18052C15.5553 4.56716 15.8559 5.13906 16.1808 5.89623L12.5986 7.27362C11.8026 5.51764 10.5354 4.63965 8.7971 4.63965C7.49743 4.63965 6.40897 5.14712 5.53169 6.16204C4.67067 7.16085 4.24015 8.41743 4.24015 9.93176C4.24015 11.2367 4.63817 12.308 5.43422 13.1457C6.23026 13.9834 7.25375 14.4023 8.50467 14.4023C9.39819 14.4023 10.1617 14.1767 10.7953 13.7256C11.4452 13.2585 11.8594 12.6463 12.0381 11.8891H8.26099Z" fill="white"/>
<path d="M20.0787 0H24.0995L23.076 8.16772C24.262 7.05614 25.5048 6.50035 26.8044 6.50035C28.1366 6.50035 29.2169 6.98365 30.0455 7.95024C30.8902 8.90073 31.3126 10.1412 31.3126 11.6716C31.3126 13.5082 30.7846 15.0144 29.7287 16.1905C28.6889 17.3504 27.3487 17.9303 25.7078 17.9303C24.8793 17.9303 24.197 17.8095 23.6609 17.5679C23.1247 17.3101 22.5561 16.8429 21.955 16.1663L21.9063 17.6162H17.8855L20.0787 0ZM24.66 14.8131C25.4073 14.8131 26.0165 14.5392 26.4876 13.9915C26.975 13.4437 27.2187 12.7429 27.2187 11.8891C27.2187 11.1964 27.0237 10.6487 26.6338 10.2459C26.2439 9.84315 25.7241 9.64178 25.0742 9.64178C24.3269 9.64178 23.7096 9.9237 23.2222 10.4876C22.7348 11.0353 22.4912 11.72 22.4912 12.5416C22.4912 13.2343 22.6861 13.7901 23.076 14.2089C23.4822 14.6117 24.0101 14.8131 24.66 14.8131Z" fill="white"/>
<path d="M44.9393 13.0249H36.8001C36.8001 13.9109 36.987 14.5231 37.3606 14.8614C37.6368 15.1353 38.0511 15.2722 38.6034 15.2722C39.0096 15.2722 39.3507 15.1755 39.6269 14.9822C39.8869 14.805 40.0656 14.5634 40.163 14.2573H44.5494C44.2895 15.0305 43.8914 15.683 43.3553 16.2146C42.2344 17.3584 40.6585 17.9303 38.6278 17.9303C36.8895 17.9303 35.5005 17.4551 34.4608 16.5046C33.4698 15.5541 32.9743 14.2814 32.9743 12.6866C32.9743 10.85 33.5672 9.35986 34.7532 8.21605C35.9391 7.07225 37.4906 6.50035 39.4076 6.50035C41.1459 6.50035 42.5187 6.99976 43.5259 7.99857C44.5007 8.96516 44.988 10.3345 44.988 12.1066C44.988 12.3321 44.9718 12.6382 44.9393 13.0249ZM37.0682 10.7775H40.8697C40.8372 10.2459 40.6504 9.81899 40.3092 9.49679C39.9843 9.20681 39.5619 9.06182 39.0421 9.06182C38.4735 9.06182 38.0105 9.23903 37.6531 9.59345C37.3606 9.88343 37.1657 10.2781 37.0682 10.7775Z" fill="white"/>
<path d="M54.1884 9.88343H52.0439L51.0692 17.6162H47.0727L48.0231 9.88343H46.3173L46.6828 6.81449H48.413L48.8272 3.26226H52.8481L52.4094 6.81449H54.5539L54.1884 9.88343Z" fill="white"/>
<path d="M60.5731 6.45202C61.8403 6.45202 63.1887 6.82255 64.6183 7.5636L63.668 10.2942C62.6607 9.68206 61.7753 9.37597 61.0118 9.37597C60.0858 9.37597 59.6228 9.59345 59.6228 10.0284C59.6228 10.2701 59.834 10.4473 60.2563 10.56L61.5723 10.8984C62.5633 11.1561 63.2943 11.5347 63.7654 12.0341C64.2366 12.5174 64.4721 13.1457 64.4721 13.919C64.4721 15.1433 64.0091 16.118 63.0831 16.8429C62.1734 17.5679 60.9468 17.9303 59.4034 17.9303C58.4937 17.9303 57.6651 17.8095 56.9178 17.5679C56.1705 17.3101 55.3257 16.8832 54.3835 16.2871L55.87 13.6773C56.6498 14.1606 57.2671 14.4909 57.722 14.6681C58.1931 14.8453 58.7049 14.9339 59.2572 14.9339C60.2482 14.9339 60.7437 14.6842 60.7437 14.1848C60.7437 13.9109 60.5406 13.7176 60.1345 13.6048L58.8186 13.3148C57.7951 13.0732 57.0478 12.7027 56.5767 12.2033C56.1218 11.7038 55.8944 11.0272 55.8944 10.1734C55.8944 9.06182 56.3167 8.16772 57.1615 7.49111C58.0226 6.79838 59.1598 6.45202 60.5731 6.45202Z" fill="white"/>
<path d="M9.31942 23.2537C10.9927 23.2537 12.6336 23.7048 14.2419 24.607L13.7545 28.5942C12.5686 27.6115 11.2445 27.1201 9.78242 27.1201C8.28781 27.1201 7.06125 27.5632 6.10275 28.4492C5.14425 29.3191 4.66499 30.4388 4.66499 31.8081C4.66499 33.0969 5.08739 34.144 5.93217 34.9495C6.77695 35.7389 7.87354 36.1336 9.22194 36.1336C10.4891 36.1336 11.7319 35.7953 12.9503 35.1187L12.4386 39.2267C10.9765 39.7422 9.70119 40 8.61272 40C6.20835 40 4.2426 39.2589 2.7155 37.7768C1.20464 36.2786 0.449211 34.3535 0.449211 32.0014C0.449211 29.5527 1.30211 27.4826 3.00792 25.7911C4.72998 24.0995 6.83381 23.2537 9.31942 23.2537Z" fill="white"/>
<path d="M23.8835 28.8842H27.9044L26.5641 39.6859H22.5432L22.8357 38.5018C22.2183 39.0656 21.6335 39.4603 21.0811 39.6859C20.5288 39.8953 19.8789 40 19.1316 40C17.7507 40 16.646 39.5409 15.8175 38.6226C15.0052 37.7043 14.599 36.4639 14.599 34.9012C14.599 33.0808 15.1433 31.5745 16.2317 30.3824C17.3202 29.1741 18.6849 28.57 20.3257 28.57C21.0892 28.57 21.7228 28.6828 22.2264 28.9083C22.7301 29.1178 23.2743 29.5205 23.8591 30.1166L23.8835 28.8842ZM20.8862 36.8827C21.6172 36.8827 22.2183 36.6089 22.6894 36.0611C23.1768 35.4973 23.4205 34.7965 23.4205 33.9588C23.4205 33.2661 23.2256 32.7183 22.8357 32.3156C22.4458 31.9128 21.9259 31.7115 21.2761 31.7115C20.545 31.7115 19.9277 31.9934 19.424 32.5572C18.9367 33.105 18.693 33.7896 18.693 34.6112C18.693 35.304 18.8879 35.8598 19.2778 36.2786C19.684 36.6814 20.2201 36.8827 20.8862 36.8827Z" fill="white"/>
<path d="M34.8926 28.5217C36.1598 28.5217 37.5082 28.8922 38.9378 29.6333L37.9875 32.3639C36.9802 31.7517 36.0948 31.4456 35.3313 31.4456C34.4053 31.4456 33.9423 31.6631 33.9423 32.0981C33.9423 32.3397 34.1535 32.5169 34.5759 32.6297L35.8918 32.968C36.8828 33.2258 37.6138 33.6044 38.0849 34.1038C38.5561 34.5871 38.7916 35.2154 38.7916 35.9886C38.7916 37.213 38.3286 38.1876 37.4026 38.9126C36.4929 39.6375 35.2663 40 33.7229 40C32.8132 40 31.9846 39.8792 31.2373 39.6375C30.49 39.3798 29.6453 38.9529 28.703 38.3568L30.1895 35.747C30.9693 36.2303 31.5866 36.5605 32.0415 36.7377C32.5126 36.915 33.0244 37.0036 33.5767 37.0036C34.5677 37.0036 35.0632 36.7539 35.0632 36.2544C35.0632 35.9806 34.8602 35.7873 34.454 35.6745L33.1381 35.3845C32.1146 35.1429 31.3673 34.7723 30.8962 34.2729C30.4413 33.7735 30.2139 33.0969 30.2139 32.2431C30.2139 31.1315 30.6362 30.2374 31.481 29.5608C32.3421 28.868 33.4793 28.5217 34.8926 28.5217Z" fill="white"/>
<path d="M41.8067 28.8842H45.8275L44.4872 39.6859H40.4664L41.8067 28.8842ZM42.6352 25.936C42.2128 25.5011 42.0016 24.9856 42.0016 24.3895C42.0016 23.7934 42.2128 23.286 42.6352 22.8671C43.0739 22.4321 43.5937 22.2147 44.1948 22.2147C44.7959 22.2147 45.3077 22.4321 45.73 22.8671C46.1687 23.286 46.388 23.7934 46.388 24.3895C46.388 24.9856 46.1687 25.5011 45.73 25.936C45.3077 26.3549 44.7959 26.5643 44.1948 26.5643C43.5937 26.5643 43.0739 26.3549 42.6352 25.936Z" fill="white"/>
<path d="M48.4224 28.8842H52.4432L52.1021 30.2857C52.8494 29.6413 53.5073 29.1983 54.0759 28.9567C54.6446 28.6989 55.3025 28.57 56.0498 28.57C57.1545 28.57 57.9993 28.8519 58.5841 29.4158C59.1852 29.9796 59.4858 30.7932 59.4858 31.8564C59.4858 32.4042 59.4452 32.9922 59.3639 33.6205L58.6085 39.6859H54.5877L55.1969 34.9254C55.2619 34.3615 55.2944 33.9185 55.2944 33.5963C55.2944 32.4525 54.807 31.8806 53.8323 31.8806C53.1824 31.8806 52.6951 32.0981 52.3701 32.5331C52.0615 32.968 51.8421 33.7252 51.7122 34.8046L51.103 39.6859H47.0821L48.4224 28.8842Z" fill="white"/>
<path d="M68.253 28.57C70.17 28.57 71.6971 29.0775 72.8343 30.0924C73.9878 31.0912 74.5645 32.4283 74.5645 34.1038C74.5645 35.8436 73.9634 37.2613 72.7612 38.3568C71.5753 39.4523 70.0319 40 68.1312 40C66.1817 40 64.6058 39.4845 63.4036 38.4534C62.2014 37.4063 61.6003 36.0289 61.6003 34.3213C61.6003 32.6458 62.2177 31.2684 63.4524 30.1891C64.7033 29.1097 66.3035 28.57 68.253 28.57ZM67.9118 36.8827C68.6591 36.8827 69.2684 36.6089 69.7395 36.0611C70.2269 35.5134 70.4706 34.8126 70.4706 33.9588C70.4706 33.2661 70.2756 32.7183 69.8857 32.3156C69.4958 31.9128 68.9678 31.7115 68.3017 31.7115C67.5544 31.7115 66.929 31.9934 66.4253 32.5572C65.938 33.105 65.6943 33.7896 65.6943 34.6112C65.6943 35.304 65.8974 35.8598 66.3035 36.2786C66.7097 36.6814 67.2458 36.8827 67.9118 36.8827Z" fill="white"/>
<path d="M94.0314 14.3785C95.9862 17.2375 95.6061 21.9487 94.0989 25.4668C94.1435 23.4157 93.8528 21.1111 93.1053 18.6542C93.6295 24.463 89.0202 31.0284 86.8788 28.2922C85.8389 26.9631 85.4644 23.0424 87.289 20.174C86.1726 20.8751 85.3088 22.0601 84.7638 23.4732C81.8826 28.9581 83.9575 35.4083 90.6074 35.4083C99.0749 35.4083 104.294 21.7152 94.0314 14.3785ZM89.3656 20.1554C88.7322 20.2362 88.0183 20.9186 87.5286 22.0671C86.7608 23.8676 86.7903 26.1413 87.5637 27.1458C88.1436 27.8993 88.9726 27.7414 89.6845 26.8471C89.9218 26.5492 90.1502 26.1718 90.3421 25.7215C90.3481 25.7072 90.3422 25.6877 90.3483 25.6734C89.7507 26.3306 89.0694 26.4439 88.5933 25.8255C87.9148 24.944 87.9156 22.9324 88.5892 21.3525C88.8116 20.831 89.0812 20.4408 89.3656 20.1554ZM97.1238 24.563C96.4716 34.4755 87.4822 34.825 85.9686 30.3986C88.7761 32.2737 92.057 30.8498 93.0372 27.0954L93.3686 29.903C95.0719 28.3065 96.0567 27.1503 97.1238 24.563ZM82.4596 32.791C79.7096 33.5358 77.9334 34.6393 77.9334 35.8631C77.9334 38.1052 83.7742 39.9272 90.9667 39.9272C98.1591 39.9272 104 38.1052 104 35.8632C104 34.6436 102.239 33.5358 99.5057 32.791C100.451 33.2763 101.015 33.8432 101.015 34.4551C101.015 36.2114 96.5012 37.6553 90.9666 37.6553C85.4321 37.6553 80.951 36.2112 80.951 34.4552C80.951 33.8401 81.5051 33.2779 82.4596 32.791Z" fill="#FFED95"/>
</svg>
