<svg width="86" height="46" viewBox="0 0 86 46" fill="none" xmlns="http://www.w3.org/2000/svg">
<path d="M12.4067 0.671875C13.7707 0.671875 15.0599 0.998733 16.2744 1.65245C17.5076 2.30616 18.4886 3.17467 19.2173 4.25797C19.9647 5.32259 20.3384 6.43391 20.3384 7.59192C20.3384 9.40365 19.8526 11.3461 18.881 13.4193C17.9094 15.4739 16.6762 17.2015 15.1814 18.6024C13.7053 20.0032 12.2479 20.7036 10.8091 20.7036C10.0617 20.7036 9.2209 20.3954 8.28666 19.779C7.3711 19.144 6.58634 18.3969 5.93237 17.5377C5.2784 16.6599 4.95142 15.8848 4.95142 15.2124C4.95142 14.1478 5.26906 12.3174 5.90434 9.72117C6.53963 7.1063 7.1282 5.18251 7.67006 3.94979C8.28666 3.76302 8.86589 3.66963 9.40775 3.66963C9.78145 3.66963 10.0804 3.70698 10.3046 3.78169C10.2673 3.09062 10.4354 2.45558 10.8091 1.87658C11.1828 1.29757 11.7153 0.896007 12.4067 0.671875ZM9.51986 16.8653C11.3136 16.2116 12.8177 14.9602 14.0323 13.1111C15.2468 11.2434 16.1063 9.19819 16.6108 6.97556C16.0876 6.60201 15.4056 6.29383 14.5648 6.05102C13.7426 5.80821 12.8551 5.67747 11.9022 5.65879C11.9396 5.84557 11.9769 6.12573 12.0143 6.49928C10.2953 9.71183 9.46381 13.1672 9.51986 16.8653Z" fill="url(#paint0_radial_8021_39134)"/>
<path d="M33.4072 1.45633C33.7249 1.58708 34.0425 1.88592 34.3601 2.35286C34.6778 2.8198 34.9394 3.33343 35.1449 3.89376C35.3504 4.43541 35.4532 4.87433 35.4532 5.21053C35.4532 5.34127 35.4439 5.43466 35.4252 5.49069C35.1449 6.25647 33.9397 7.84407 31.8097 10.2535C29.6983 12.6629 27.6243 14.8388 25.5876 16.7813C27.8485 16.3517 30.3149 15.9408 32.9868 15.5486C33.4166 15.7354 33.7529 16.0715 33.9958 16.5572C34.2387 17.0241 34.3601 17.5377 34.3601 18.0981C34.3601 18.9946 34.0892 19.723 33.5474 20.2833C30.1841 20.4514 27.6149 20.5355 25.8398 20.5355C23.7658 20.5355 22.6074 20.4421 22.3645 20.2553C21.9534 19.9005 21.5517 19.3121 21.1593 18.4903C20.7669 17.6498 20.5707 16.9681 20.5707 16.4451C20.5707 16.333 20.5894 16.221 20.6268 16.1089C20.7202 15.8101 21.2434 15.1657 22.1963 14.1758C23.1492 13.1672 24.5506 11.7383 26.4004 9.88926C28.7547 7.53589 30.2868 5.96697 30.9969 5.18251L27.7737 5.46268L23.8779 5.82689C23.4856 5.62144 23.1773 5.29458 22.953 4.84632C22.7288 4.39805 22.6167 3.92178 22.6167 3.41748C22.6167 3.00657 22.7008 2.60501 22.869 2.21278C23.0558 1.82055 23.3174 1.48435 23.6537 1.20419C24.289 1.18551 25.4381 1.17617 27.1011 1.17617C30.9128 1.17617 33.0148 1.26956 33.4072 1.45633Z" fill="url(#paint1_radial_8021_39134)"/>
<path d="M50.0011 20.5635C49.4406 20.5635 48.8053 20.4421 48.0953 20.1993C47.4039 19.9378 46.7873 19.639 46.2455 19.3028C45.7223 18.9479 45.4233 18.6397 45.3486 18.3782C45.2925 18.1915 45.2271 17.6778 45.1524 16.8373C45.0964 15.9782 45.059 15.3992 45.0403 15.1003L44.9282 13.4754C43.9005 15.4925 42.9289 17.1829 42.0134 18.5463C41.1165 19.8911 40.4065 20.5635 39.8833 20.5635C39.4535 20.5635 38.9397 20.4141 38.3418 20.1152C37.7625 19.7977 37.2487 19.4242 36.8003 18.9946C36.3705 18.565 36.1556 18.2101 36.1556 17.93C36.1556 17.5938 36.3705 16.3704 36.8003 14.2598C37.2674 11.8691 37.5757 10.2255 37.7252 9.32894L37.9494 8.01217C38.3044 5.92028 38.6314 4.22062 38.9303 2.91319C39.248 1.60575 39.5656 0.952039 39.8833 0.952039C40.2383 0.952039 40.7148 1.1108 41.3127 1.42832C41.9293 1.74584 42.4618 2.11939 42.9102 2.54897C43.3773 2.97856 43.6109 3.35211 43.6109 3.66963C43.6109 4.08053 43.4895 4.71557 43.2466 5.57474C43.0036 6.41523 42.6393 7.59192 42.1535 9.10481C41.3874 11.3835 40.8362 13.1859 40.4999 14.512L40.9483 14.6801L42.0694 12.9711C42.9476 11.6263 43.6296 10.6457 44.1154 10.0293C44.6199 9.41299 45.0777 9.10481 45.4887 9.10481C47.2077 9.10481 48.3382 11.5142 48.88 16.333C49.8703 15.2497 50.5804 13.8302 51.0101 12.0745C51.4399 10.3188 51.6547 8.45109 51.6547 6.47127C50.9821 6.13507 50.3468 5.9016 49.7489 5.77086C49.151 5.62144 48.497 5.55607 47.787 5.57474C47.3385 4.80896 47.1143 4.08054 47.1143 3.38946C47.1143 2.81046 47.2918 2.30616 47.6468 1.87658C48.0019 1.44699 48.5437 1.13881 49.2724 0.952039C51.253 1.26956 52.7945 1.97931 53.8969 3.08128C54.9993 4.16458 55.5505 5.50937 55.5505 7.11564C55.5505 8.38572 55.2983 10.1134 54.7938 12.2987C54.2893 14.484 53.6073 16.4077 52.7478 18.07C51.907 19.7324 50.9914 20.5635 50.0011 20.5635Z" fill="url(#paint2_radial_8021_39134)"/>
<path d="M60.0826 20.5635C59.6529 20.5635 59.139 20.4141 58.5411 20.1152C57.9619 19.7977 57.4481 19.4242 56.9996 18.9946C56.5699 18.565 56.355 18.2101 56.355 17.93C56.3363 17.6311 56.4204 17.0054 56.6073 16.0529C56.8128 15.0816 56.9436 14.4559 56.9996 14.1758C57.0744 13.8022 57.2145 13.1205 57.42 12.1306C57.6256 11.122 57.7937 10.1881 57.9245 9.32894L58.1488 8.01217C58.5038 5.92028 58.8307 4.22062 59.1297 2.91319C59.4473 1.60575 59.765 0.952039 60.0826 0.952039C60.4376 0.952039 60.9141 1.1108 61.512 1.42832C62.1286 1.74584 62.6611 2.11939 63.1096 2.54897C63.5767 2.97856 63.8103 3.35211 63.8103 3.66963C63.8103 3.83773 63.6328 4.58483 63.2777 5.91094C62.6238 8.26432 62.138 10.3188 61.8203 12.0745C61.6335 13.1765 61.4373 14.624 61.2318 16.4171C61.0449 17.9486 60.8767 19.0226 60.7273 19.639C60.5965 20.2553 60.3816 20.5635 60.0826 20.5635Z" fill="url(#paint3_radial_8021_39134)"/>
<path d="M77.4372 0.952039C77.7922 0.952039 78.2687 1.1108 78.8666 1.42832C79.4832 1.74584 80.0157 2.11939 80.4642 2.54897C80.9313 2.97856 81.1649 3.35211 81.1649 3.66963C81.1649 3.83773 80.9874 4.58483 80.6324 5.91094C79.9784 8.26432 79.4926 10.3188 79.1749 12.0745C78.9881 13.1765 78.7919 14.624 78.5863 16.4171C78.3995 17.9486 78.2313 19.0226 78.0818 19.639C77.9511 20.2553 77.7362 20.5635 77.4372 20.5635C76.8954 20.5635 76.2601 20.3394 75.5314 19.8911C74.8213 19.4242 74.2048 18.8545 73.6816 18.1821C73.4013 17.8086 73.0089 17.0801 72.5044 15.9968C71.9999 14.9135 71.5048 13.6995 71.019 12.3547C70.5518 10.9912 70.1968 9.72117 69.9539 8.54448L69.7577 12.0745C69.5709 13.1765 69.3747 14.624 69.1692 16.4171C68.9823 17.9486 68.8142 19.0226 68.6647 19.639C68.5339 20.2553 68.319 20.5635 68.0201 20.5635C67.5903 20.5635 67.0765 20.4141 66.4786 20.1152C65.8993 19.7977 65.3855 19.4242 64.937 18.9946C64.5073 18.565 64.2924 18.2101 64.2924 17.93C64.2737 17.6311 64.3578 17.0054 64.5447 16.0529C64.7502 15.0816 64.881 14.4559 64.937 14.1758C65.0118 13.8022 65.1519 13.1205 65.3575 12.1306C65.563 11.122 65.7312 10.1881 65.862 9.32894L66.0862 8.01217C66.4412 5.92028 66.7682 4.22062 67.0671 2.91319C67.3848 1.60575 67.7024 0.952039 68.0201 0.952039C68.3377 0.952039 68.7674 1.09212 69.3093 1.37228C69.8699 1.63377 70.3743 1.96063 70.8228 2.35286C71.2899 2.74509 71.5889 3.11864 71.7197 3.47351C72.5978 5.82689 73.6722 9.00208 74.9428 12.9991L75.2791 9.32894L75.5033 8.01217C75.8584 5.92028 76.1853 4.22062 76.4843 2.91319C76.8019 1.60575 77.1196 0.952039 77.4372 0.952039Z" fill="url(#paint4_radial_8021_39134)"/>
<path d="M13.0327 42.4711C12.6403 42.8633 12.0144 43.2836 11.1549 43.7318C10.314 44.1801 9.38914 44.563 8.38016 44.8805C7.38986 45.1793 6.46496 45.3288 5.60546 45.3288C4.95149 45.3288 4.17607 45.0299 3.27919 44.4322C2.38232 43.8159 1.6069 43.0874 0.952928 42.247C0.317643 41.4065 0 40.6594 0 40.0056C0.0186849 38.0071 0.355012 35.8592 1.00898 33.5619C1.68164 31.2645 2.68128 29.3127 4.0079 27.7064C5.35321 26.1002 6.96945 25.297 8.85662 25.297C9.84692 25.297 10.7625 25.5772 11.6033 26.1375C12.4628 26.6979 13.1355 27.3889 13.6213 28.2107C14.1071 29.0326 14.35 29.8077 14.35 30.5361C14.3687 31.3019 14.1071 31.8902 13.5652 32.3011C13.0233 32.6934 12.3414 32.8895 11.5192 32.8895C10.9213 32.8895 10.3234 32.7774 9.72547 32.5533C9.74416 32.2171 9.7535 31.7408 9.7535 31.1244C9.7535 30.4334 9.69744 29.9197 9.58534 29.5835C9.47323 29.2473 9.25835 29.0792 8.94071 29.0792C8.30542 29.0792 7.65145 29.733 6.9788 31.0404C6.32483 32.3478 5.76428 33.9541 5.29716 35.8592C4.84872 37.7643 4.60582 39.5107 4.56845 41.0983C5.80165 40.8741 6.93208 40.5099 7.95975 40.0056C9.0061 39.4827 9.92166 38.885 10.7064 38.2126C11.5472 38.418 12.1919 38.8009 12.6403 39.3613C13.1074 39.9029 13.341 40.5099 13.341 41.1823C13.341 41.5932 13.2382 42.0228 13.0327 42.4711Z" fill="url(#paint5_radial_8021_39134)"/>
<path d="M28.774 38.2126C28.7926 38.5114 28.858 39.2679 28.9702 40.4819C29.1009 41.6773 29.1663 42.6765 29.1663 43.4797C29.1663 44.5256 29.0449 45.0859 28.802 45.1607C28.7272 45.1793 28.6058 45.1887 28.4376 45.1887C28.0266 45.1887 27.5127 45.0953 26.8961 44.9085C26.2982 44.7031 25.7564 44.4509 25.2705 44.1521C24.8034 43.8532 24.5325 43.5637 24.4578 43.2836C24.383 43.0034 24.3456 41.8267 24.3456 39.7535C22.3277 39.9963 21.0011 40.1457 20.3658 40.2018C19.8613 41.6773 19.282 43.2929 18.6281 45.0486C18.1236 45.1607 17.6565 45.2167 17.2267 45.2167C16.4793 45.2167 15.844 45.0392 15.3209 44.6844C14.8164 44.3108 14.48 43.7505 14.3119 43.0034L14.8724 41.7427C16.9278 37.1666 18.7028 33.3284 20.1976 30.2279C21.7111 27.1274 22.692 25.5772 23.1405 25.5772C23.4955 25.5772 24.0093 25.7079 24.682 25.9694C25.3733 26.2309 25.9899 26.5484 26.5318 26.922C27.0923 27.2955 27.41 27.6317 27.4847 27.9306C27.6155 28.4536 27.793 29.5462 28.0172 31.2085C28.2414 32.8708 28.4189 34.4771 28.5497 36.0273L28.774 38.2126ZM24.2616 29.9478C23.4394 31.8902 22.6266 33.9728 21.8232 36.1954C22.6827 36.1394 23.5329 36.0553 24.3737 35.9433C24.3737 33.3658 24.3363 31.3673 24.2616 29.9478Z" fill="url(#paint6_radial_8021_39134)"/>
<path d="M39.9409 32.5533C40.0903 31.6194 40.1651 30.8723 40.1651 30.312C40.1651 29.9197 40.1277 29.6116 40.053 29.3874C39.9969 29.1633 39.9222 29.0512 39.8288 29.0512C39.5485 29.0512 39.2215 29.2847 38.8478 29.7516C38.4928 30.2186 38.1845 30.7789 37.9229 31.4326C37.68 32.0677 37.5585 32.6373 37.5585 33.1416C37.5585 33.7767 37.8669 34.421 38.4835 35.0748C39.1187 35.7098 40.0436 36.4943 41.2581 37.4281C42.1737 38.1005 42.8557 38.6609 43.3041 39.1091C43.7526 39.5387 43.9861 39.9309 44.0048 40.2858C44.0235 41.0703 43.6124 41.8454 42.7716 42.6112C41.9308 43.3583 40.8751 43.9746 39.6045 44.4602C38.3527 44.9459 37.1848 45.1887 36.1011 45.1887C35.2603 45.1887 34.3915 44.9832 33.4946 44.5723C32.5977 44.1427 31.8503 43.6478 31.2524 43.0874C30.6545 42.5084 30.3462 42.0041 30.3275 41.5746C30.2901 40.7527 30.5611 40.0897 31.1403 39.5854C31.7195 39.0624 32.4949 38.8009 33.4666 38.8009C33.9524 38.8009 34.4475 38.8663 34.952 38.9971C35.1762 40.2298 35.3724 41.117 35.5406 41.6586C36.643 41.3784 37.8388 40.8928 39.1281 40.2018C34.9613 37.0452 32.878 34.5798 32.878 32.8054C32.878 31.9463 33.1956 30.919 33.8309 29.7236C34.4662 28.5096 35.307 27.473 36.3534 26.6138C37.3997 25.736 38.5021 25.297 39.6606 25.297C40.5201 25.297 41.3516 25.5865 42.155 26.1655C42.9585 26.7446 43.6124 27.4543 44.1169 28.2948C44.6214 29.1353 44.8737 29.9197 44.8737 30.6482C44.8737 31.3579 44.5841 31.9276 44.0048 32.3572C43.4443 32.7681 42.7436 32.9735 41.9028 32.9735C41.2488 32.9735 40.5948 32.8334 39.9409 32.5533Z" fill="url(#paint7_radial_8021_39134)"/>
<path d="M49.1345 45.1887C48.7047 45.1887 48.1909 45.0393 47.593 44.7404C47.0137 44.4229 46.4999 44.0493 46.0515 43.6198C45.6217 43.1902 45.4068 42.8353 45.4068 42.5551C45.3882 42.2563 45.4722 41.6306 45.6591 40.678C45.8646 39.7068 45.9954 39.0811 46.0515 38.8009C46.1262 38.4274 46.2663 37.7456 46.4719 36.7557C46.6774 35.7471 46.8456 34.8133 46.9764 33.9541L47.2006 32.6373C47.5556 30.5454 47.8826 28.8458 48.1815 27.5383C48.4992 26.2309 48.8168 25.5772 49.1345 25.5772C49.4895 25.5772 49.966 25.736 50.5639 26.0535C51.1805 26.371 51.713 26.7446 52.1614 27.1741C52.6285 27.6037 52.8621 27.9773 52.8621 28.2948C52.8621 28.4629 52.6846 29.21 52.3296 30.5361C51.6756 32.8895 51.1898 34.944 50.8722 36.6997C50.6853 37.8017 50.4891 39.2492 50.2836 41.0422C50.0967 42.5738 49.9286 43.6478 49.7791 44.2641C49.6483 44.8805 49.4334 45.1887 49.1345 45.1887Z" fill="url(#paint8_radial_8021_39134)"/>
<path d="M66.4891 25.5772C66.8441 25.5772 67.3205 25.736 67.9185 26.0535C68.5351 26.371 69.0676 26.7446 69.516 27.1741C69.9831 27.6037 70.2167 27.9773 70.2167 28.2948C70.2167 28.4629 70.0392 29.21 69.6842 30.5361C69.0302 32.8895 68.5444 34.944 68.2268 36.6997C68.0399 37.8017 67.8437 39.2492 67.6382 41.0422C67.4513 42.5738 67.2832 43.6478 67.1337 44.2641C67.0029 44.8805 66.788 45.1887 66.4891 45.1887C65.9472 45.1887 65.3119 44.9645 64.5832 44.5163C63.8732 44.0493 63.2566 43.4797 62.7334 42.8073C62.4531 42.4337 62.0607 41.7053 61.5563 40.622C61.0518 39.5387 60.5566 38.3247 60.0708 36.9799C59.6037 35.6164 59.2487 34.3463 59.0058 33.1696L58.8096 36.6997C58.6227 37.8017 58.4265 39.2492 58.221 41.0422C58.0342 42.5738 57.866 43.6478 57.7165 44.2641C57.5857 44.8805 57.3708 45.1887 57.0719 45.1887C56.6421 45.1887 56.1283 45.0393 55.5304 44.7404C54.9512 44.4229 54.4373 44.0493 53.9889 43.6198C53.5591 43.1902 53.3443 42.8353 53.3443 42.5551C53.3256 42.2563 53.4097 41.6306 53.5965 40.678C53.802 39.7068 53.9328 39.0811 53.9889 38.8009C54.0636 38.4274 54.2038 37.7456 54.4093 36.7557C54.6148 35.7471 54.783 34.8133 54.9138 33.9541L55.138 32.6373C55.493 30.5454 55.82 28.8458 56.119 27.5383C56.4366 26.2309 56.7542 25.5772 57.0719 25.5772C57.3895 25.5772 57.8193 25.7173 58.3611 25.9974C58.9217 26.2589 59.4262 26.5858 59.8746 26.978C60.3417 27.3703 60.6407 27.7438 60.7715 28.0987C61.6497 30.4521 62.7241 33.6272 63.9946 37.6242L64.331 33.9541L64.5552 32.6373C64.9102 30.5454 65.2372 28.8458 65.5361 27.5383C65.8538 26.2309 66.1714 25.5772 66.4891 25.5772Z" fill="url(#paint9_radial_8021_39134)"/>
<path d="M78.0683 25.297C79.4323 25.297 80.7215 25.6239 81.936 26.2776C83.1692 26.9313 84.1502 27.7998 84.8789 28.8831C85.6263 29.9478 86 31.0591 86 32.2171C86 34.0288 85.5142 35.9713 84.5426 38.0445C83.571 40.099 82.3378 41.8267 80.843 43.2275C79.3669 44.6283 77.9094 45.3288 76.4707 45.3288C75.7233 45.3288 74.8825 45.0206 73.9483 44.4042C73.0327 43.7692 72.2479 43.0221 71.594 42.1629C70.94 41.2851 70.613 40.5099 70.613 39.8375C70.613 38.7729 70.9307 36.9425 71.5659 34.3463C72.2012 31.7315 72.7898 29.8077 73.3317 28.575C73.9483 28.3882 74.5275 28.2948 75.0694 28.2948C75.4431 28.2948 75.742 28.3321 75.9662 28.4069C75.9289 27.7158 76.097 27.0807 76.4707 26.5017C76.8444 25.9227 77.3769 25.5212 78.0683 25.297ZM75.1815 41.4905C76.9752 40.8368 78.4793 39.5854 79.6939 37.7363C80.9084 35.8686 81.7679 33.8234 82.2724 31.6007C81.7492 31.2272 81.0672 30.919 80.2264 30.6762C79.4042 30.4334 78.5167 30.3026 77.5638 30.284C77.6012 30.4707 77.6385 30.7509 77.6759 31.1244C75.9569 34.337 75.1254 37.7923 75.1815 41.4905Z" fill="url(#paint10_radial_8021_39134)"/>
<defs>
<radialGradient id="paint0_radial_8021_39134" cx="0" cy="0" r="1" gradientUnits="userSpaceOnUse" gradientTransform="translate(43 27.4976) rotate(90) scale(26.8257 43)">
<stop stop-color="#FAE884"/>
<stop offset="1" stop-color="#E1B44D"/>
</radialGradient>
<radialGradient id="paint1_radial_8021_39134" cx="0" cy="0" r="1" gradientUnits="userSpaceOnUse" gradientTransform="translate(43 27.4976) rotate(90) scale(26.8257 43)">
<stop stop-color="#FAE884"/>
<stop offset="1" stop-color="#E1B44D"/>
</radialGradient>
<radialGradient id="paint2_radial_8021_39134" cx="0" cy="0" r="1" gradientUnits="userSpaceOnUse" gradientTransform="translate(43 27.4976) rotate(90) scale(26.8257 43)">
<stop stop-color="#FAE884"/>
<stop offset="1" stop-color="#E1B44D"/>
</radialGradient>
<radialGradient id="paint3_radial_8021_39134" cx="0" cy="0" r="1" gradientUnits="userSpaceOnUse" gradientTransform="translate(43 27.4976) rotate(90) scale(26.8257 43)">
<stop stop-color="#FAE884"/>
<stop offset="1" stop-color="#E1B44D"/>
</radialGradient>
<radialGradient id="paint4_radial_8021_39134" cx="0" cy="0" r="1" gradientUnits="userSpaceOnUse" gradientTransform="translate(43 27.4976) rotate(90) scale(26.8257 43)">
<stop stop-color="#FAE884"/>
<stop offset="1" stop-color="#E1B44D"/>
</radialGradient>
<radialGradient id="paint5_radial_8021_39134" cx="0" cy="0" r="1" gradientUnits="userSpaceOnUse" gradientTransform="translate(43 27.4976) rotate(90) scale(26.8257 43)">
<stop stop-color="#FAE884"/>
<stop offset="1" stop-color="#E1B44D"/>
</radialGradient>
<radialGradient id="paint6_radial_8021_39134" cx="0" cy="0" r="1" gradientUnits="userSpaceOnUse" gradientTransform="translate(43 27.4976) rotate(90) scale(26.8257 43)">
<stop stop-color="#FAE884"/>
<stop offset="1" stop-color="#E1B44D"/>
</radialGradient>
<radialGradient id="paint7_radial_8021_39134" cx="0" cy="0" r="1" gradientUnits="userSpaceOnUse" gradientTransform="translate(43 27.4976) rotate(90) scale(26.8257 43)">
<stop stop-color="#FAE884"/>
<stop offset="1" stop-color="#E1B44D"/>
</radialGradient>
<radialGradient id="paint8_radial_8021_39134" cx="0" cy="0" r="1" gradientUnits="userSpaceOnUse" gradientTransform="translate(43 27.4976) rotate(90) scale(26.8257 43)">
<stop stop-color="#FAE884"/>
<stop offset="1" stop-color="#E1B44D"/>
</radialGradient>
<radialGradient id="paint9_radial_8021_39134" cx="0" cy="0" r="1" gradientUnits="userSpaceOnUse" gradientTransform="translate(43 27.4976) rotate(90) scale(26.8257 43)">
<stop stop-color="#FAE884"/>
<stop offset="1" stop-color="#E1B44D"/>
</radialGradient>
<radialGradient id="paint10_radial_8021_39134" cx="0" cy="0" r="1" gradientUnits="userSpaceOnUse" gradientTransform="translate(43 27.4976) rotate(90) scale(26.8257 43)">
<stop stop-color="#FAE884"/>
<stop offset="1" stop-color="#E1B44D"/>
</radialGradient>
</defs>
</svg>
