<svg width="158" height="32" viewBox="0 0 158 32" fill="none" xmlns="http://www.w3.org/2000/svg">
<path d="M20.3143 17.5576L17.3908 25.5076C19.8668 24.9309 22.1489 23.5736 24.2371 21.4357C25.9176 19.6856 26.7578 17.8708 26.7578 15.9915C26.7578 14.0922 26.3949 13.0133 25.669 12.7548C25.1254 12.5625 24.6481 12.4344 24.2371 12.3703C24.0316 12.3383 23.8427 12.3222 23.6703 12.3222H23.6106C22.2384 12.3819 21.1545 12.5261 20.359 12.7548L22.0296 13.605C21.8804 13.8635 21.5075 14.6441 20.9109 15.9467C20.8015 16.2649 20.6027 16.8019 20.3143 17.5576ZM17.182 30.0718L16.0634 30.4148C14.2934 30.6535 12.6228 30.8126 11.0517 30.8921C11.2804 30.2157 11.8925 28.4208 12.888 25.5076C12.9315 25.3805 12.9757 25.2512 13.0206 25.1198C13.3242 24.2204 13.7218 23.067 14.2135 21.6594C14.5754 20.6236 14.9881 19.4503 15.4518 18.1393C15.9192 16.8765 17.6593 12.5907 18.6139 10.5622C18.2858 10.771 17.8383 11.0196 17.2715 11.308L15.3027 8.89166C17.8582 8.50385 20.0657 8.30995 21.9252 8.30995C22.3528 8.30995 22.835 8.33481 23.372 8.38453C24.8437 8.49391 25.6889 8.56849 25.9076 8.60826C26.6832 8.72759 27.5483 8.99607 28.5029 9.4137C30.5911 10.2788 31.6352 11.7654 31.6352 13.8735C31.6352 14.2712 31.5905 14.654 31.501 15.022C30.6558 22.2809 25.8828 27.2975 17.182 30.0718Z" fill="url(#paint0_linear_5558_32888)"/>
<path d="M49.3997 15.022C48.7732 18.3432 46.6453 20.4214 43.0158 21.2567C45.3426 23.7923 47.2767 26.3429 48.818 28.9084L43.6721 30.7728C42.1905 27.7599 40.2117 24.8116 37.7357 21.9279L36.975 21.3014L36.4679 22.8526C36.1198 23.9663 35.4984 26.2932 34.6034 29.8331L34.4393 29.863C32.8484 30.1712 31.0187 30.6038 28.9504 31.1606C29.6465 28.4758 30.4768 25.7065 31.4413 22.8526C32.0379 21.0528 32.9776 18.7509 34.2604 15.9467C34.5189 15.3899 34.8918 14.6342 35.379 13.6796C34.9614 13.8088 34.5984 13.9132 34.2902 13.9928L33.2014 8.89166C35.7569 8.50385 37.9644 8.30995 39.8239 8.30995C40.2514 8.30995 40.7337 8.33481 41.2707 8.38453C42.7424 8.49391 43.5876 8.56849 43.8063 8.60826C44.5819 8.72759 45.447 8.99607 46.4016 9.4137C48.4898 10.2788 49.5339 11.7654 49.5339 13.8735C49.5339 14.1718 49.4892 14.5546 49.3997 15.022ZM44.8504 14.5297C44.8504 13.7342 44.3184 13.1426 43.2545 12.7548C42.9462 12.6355 42.444 12.5758 41.748 12.5758H41.3602C40.7437 12.6056 39.9084 12.7647 38.8544 13.0531L39.9283 13.605C39.5703 14.2314 39.1974 15.012 38.8096 15.9467C38.7798 16.0163 38.5809 16.5533 38.213 17.5576L39.4957 17.5129C40.8282 17.483 41.9518 17.2891 42.8666 16.9312C44.1892 16.4141 44.8504 15.6136 44.8504 14.5297Z" fill="url(#paint1_linear_5558_32888)"/>
<path d="M61.6155 13.0979C61.0985 13.8138 60.0295 15.544 58.4087 18.2885L57.0663 20.5556L60.0941 20.496L60.7803 21.0329C61.357 19.78 61.6454 17.4781 61.6454 14.127C61.6454 13.6199 61.6354 13.2768 61.6155 13.0979ZM60.0792 23.852L55.5449 24.0757C54.6201 25.5573 53.7699 27.4864 52.9943 29.863L47.3413 31.2501C47.5004 30.6336 48.2363 29.0028 49.5488 26.3578L50.9061 23.5984C52.1889 20.9932 54.2025 17.7863 56.947 13.9779C58.4485 11.8698 59.935 10.0054 61.4067 8.38453C62.2718 8.3547 63.5546 8.29503 65.2549 8.20554L65.3892 10.1147C65.4787 11.5566 65.5234 12.9437 65.5234 14.2762C65.5234 16.8914 65.3295 19.3276 64.9417 21.5848C64.8124 21.9726 64.5141 23.5934 64.0468 26.4473C63.8578 27.6306 63.6689 28.5951 63.48 29.3409L57.827 30.7132C58.2247 29.4304 58.9755 27.1434 60.0792 23.852Z" fill="url(#paint2_linear_5558_32888)"/>
<path d="M79.738 24.8812L79.723 24.8961L79.9766 24.2398C79.907 24.4685 79.8424 24.6922 79.7827 24.911L79.738 24.8812ZM79.738 30.6982C78.6939 31.0164 77.5752 31.1755 76.382 31.1755C73.7568 31.1755 71.7084 30.2209 70.2367 28.3117C68.8844 26.5418 68.2082 24.2448 68.2082 21.4207C68.2082 20.8142 68.243 20.1678 68.3126 19.4817C68.6507 16.4588 69.9036 13.8536 72.0714 11.666C74.2888 9.43856 76.8244 8.32487 79.6783 8.32487C83.9939 8.32487 87.0466 9.87111 88.8365 12.9636L83.1984 15.8274C82.4327 14.1767 81.14 13.3514 79.3203 13.3514C77.4608 13.3514 75.9096 13.9828 74.6667 15.2457C73.4933 16.4489 72.7674 18.0449 72.489 20.0336C72.4194 20.491 72.3846 20.8788 72.3846 21.197C72.3846 22.6886 72.8022 23.9663 73.6375 25.0303C74.5125 26.154 75.6411 26.7158 77.0233 26.7158C78.5149 26.7158 79.8225 26.1192 80.9461 24.9259L82.3034 20.66L87.5537 20.0485C86.9173 21.8782 86.4649 23.494 86.1964 24.8961C85.7788 26.3379 85.4606 27.5113 85.2418 28.4162L84.7048 30.5491C83.4619 30.738 81.7963 30.9468 79.7081 31.1755C79.7081 31.0363 79.7181 30.8772 79.738 30.6982Z" fill="url(#paint3_linear_5558_32888)"/>
<path d="M110.971 12.9487L109.688 13.7989C110.106 15.0021 110.315 16.0312 110.315 16.8864C110.315 17.5029 110.22 18.3631 110.032 19.4668C109.435 22.9471 108.142 25.7164 106.153 27.7748C103.976 30.032 101.197 31.1606 97.8156 31.1606C95.0513 31.1606 92.8935 30.206 91.3423 28.2968C89.9104 26.5268 89.1944 24.2298 89.1944 21.4058C89.1944 20.7993 89.2292 20.1529 89.2988 19.4668C89.6568 16.4439 90.9793 13.8387 93.2664 11.651C95.6131 9.42365 98.2929 8.30995 101.306 8.30995C105.86 8.30995 109.082 9.8562 110.971 12.9487ZM105.02 20.0187C105.099 19.5911 105.139 19.248 105.139 18.9895C105.139 17.836 104.791 16.951 104.095 16.3345L105.02 15.8125C104.214 14.1618 102.847 13.3365 100.918 13.3365C98.9592 13.3365 97.3234 13.9679 96.0109 15.2308C94.7778 16.434 94.0122 18.0299 93.7139 20.0187C93.6442 20.4761 93.6094 20.8639 93.6094 21.1821C93.6094 22.6737 94.047 23.9514 94.922 25.0154C95.8468 26.139 97.04 26.7009 98.5018 26.7009C100.262 26.7009 101.738 26.0098 102.932 24.6276C103.996 23.3946 104.692 21.8583 105.02 20.0187Z" fill="url(#paint4_linear_5558_32888)"/>
<path d="M114.208 8.81708L119.682 7.57909C120.766 11.8947 121.541 15.9368 122.009 19.7055C122.078 19.7055 122.307 19.2431 122.695 18.3183L123.291 16.8715C123.928 15.3501 125.35 12.6007 127.557 8.62318L128.169 8.56351C129.292 8.43425 130.585 8.32487 132.047 8.23537C130.714 10.6517 129.312 13.5304 127.841 16.8715C127.314 18.0747 126.533 20.3767 125.499 23.7774C125.221 24.6922 124.679 26.5219 123.873 29.2663L118.22 30.6386C118.26 30.4298 118.28 30.1066 118.28 29.6691C118.28 27.5312 118.016 24.6972 117.489 21.1672C117.29 19.7751 117.116 19.079 116.967 19.079L114.998 23.7774C114.103 25.9054 113.566 27.909 113.388 29.7884L107.734 31.1755C108.391 28.7493 109.132 26.2832 109.957 23.7774C110.593 21.8782 111.533 19.5762 112.776 16.8715C113.313 15.6782 114.069 14.1817 115.043 12.3819C115.103 12.2029 115.133 12.0587 115.133 11.9494C115.133 11.6212 115.003 11.1041 114.745 10.3981C114.427 9.48331 114.248 8.95629 114.208 8.81708Z" fill="url(#paint5_linear_5558_32888)"/>
<path d="M130.078 26.9693L130.585 25.269C130.704 24.8812 130.958 24.0906 131.346 22.8974C131.942 21.1075 132.882 18.8055 134.165 15.9915C134.483 15.2556 134.985 14.2165 135.671 12.8741C134.588 13.0531 132.942 13.2967 130.734 13.605L132.047 9.13031C133.608 8.99109 135.572 8.82702 137.939 8.63809C140.415 8.44916 142.587 8.33978 144.457 8.30995L143.084 12.6504C141.175 12.6504 139.664 12.6703 138.55 12.71L139.848 13.4111C139.549 13.9878 139.172 14.8479 138.714 15.9915C138.147 17.3935 137.362 19.6955 136.357 22.8974C136 24.0807 135.656 25.3087 135.328 26.5815C135.647 26.5616 136.198 26.5318 136.984 26.492L139.296 26.4025L137.924 30.7579C135.597 30.7579 134.08 30.7778 133.374 30.8176C132.231 30.8971 129.631 31.2004 125.574 31.7274L126.886 27.2378L128.378 27.0887C128.805 27.0588 129.372 27.0191 130.078 26.9693Z" fill="url(#paint6_linear_5558_32888)"/>
<path d="M154.092 13.0979C153.575 13.8138 152.506 15.544 150.885 18.2885L149.543 20.5556L152.571 20.496L153.257 21.0329C153.834 19.78 154.122 17.4781 154.122 14.127C154.122 13.6199 154.112 13.2768 154.092 13.0979ZM152.556 23.852L148.021 24.0757C147.097 25.5573 146.247 27.4864 145.471 29.863L139.818 31.2501C139.977 30.6336 140.713 29.0028 142.025 26.3578L143.383 23.5984C144.665 20.9932 146.679 17.7863 149.424 13.9779C150.925 11.8698 152.412 10.0054 153.883 8.38453C154.748 8.3547 156.031 8.29503 157.732 8.20554L157.866 10.1147C157.955 11.5566 158 12.9437 158 14.2762C158 16.8914 157.806 19.3276 157.418 21.5848C157.289 21.9726 156.991 23.5934 156.523 26.4473C156.334 27.6306 156.145 28.5951 155.957 29.3409L150.304 30.7132C150.701 29.4304 151.452 27.1434 152.556 23.852Z" fill="url(#paint7_linear_5558_32888)"/>
<path d="M24.5741 0.269531C23.7934 1.2474 23.0581 2.26581 22.2102 3.14307C21.3331 4.11832 20.4062 5.04597 19.4334 5.92213C19.1513 6.15756 18.8248 6.33169 18.4744 6.43371C18.124 6.53572 17.7571 6.56344 17.3965 6.51513L18.9465 2.37433C18.8097 2.46394 18.6916 2.58023 18.5991 2.71642C17.8499 3.56881 17.1144 4.44009 16.3379 5.25469C16.1465 5.46784 15.8917 5.6112 15.613 5.66253C15.3342 5.71387 15.0471 5.67032 14.7961 5.53863C13.8467 5.09127 12.8935 4.65593 11.9485 4.17982C11.846 4.10675 11.7213 4.07309 11.5963 4.08481C11.4713 4.09653 11.3543 4.15287 11.2658 4.24384C10.2758 5.10514 9.24181 5.91265 8.16825 6.66298C5.69936 8.28912 3.10306 9.5596 0.0203544 8.8626L0 8.99608C0.554169 11.2366 1.09996 13.4779 1.69603 15.7143C1.89425 16.4019 2.30004 17.0077 2.85616 17.4462C2.81937 16.5495 2.83026 15.6511 2.88877 14.7551C3.00413 13.6737 3.27159 13.5169 4.34223 13.5751C4.38773 13.5718 4.43337 13.5777 4.47655 13.5924C4.51973 13.607 4.5596 13.6302 4.59387 13.6606C4.62815 13.691 4.65617 13.728 4.67632 13.7695C4.69647 13.811 4.70836 13.8562 4.71132 13.9025C4.80203 14.3093 4.92425 14.7125 5.03281 15.1241C5.31368 14.6899 5.5599 14.2798 5.83093 13.8967C5.91633 13.7835 6.0371 13.7033 6.17313 13.6694C6.65038 13.5446 7.13347 13.4628 7.63739 13.3526L7.88295 14.1381C8.30117 13.4664 8.69797 12.7999 9.13557 12.15C9.24816 11.9965 9.41207 11.8902 9.59612 11.8512C9.78018 11.8122 9.97153 11.8434 10.1338 11.9387L10.058 12.4357C9.61249 14.2674 9.67206 16.186 10.2302 17.9801C10.4044 18.7108 10.4849 19.4619 10.4694 20.2146C10.4994 20.5596 10.3022 20.7292 9.99359 20.6821L9.17295 20.6494C9.34923 20.8284 9.5059 21.0263 9.64024 21.2397C9.76209 21.4558 9.91676 21.8493 9.8305 21.9412C9.58269 22.1601 9.28222 22.308 8.9602 22.3695C8.7433 22.4022 8.52209 22.3685 8.32479 22.2726C7.79736 22.026 7.28064 21.7565 6.77606 21.4649C6.50923 21.2927 6.25256 21.1048 6.00734 20.9022L5.81653 21.0706L7.06918 22.5477C7.35245 22.9154 7.71153 23.2154 8.12138 23.4267C8.53122 23.638 8.98195 23.7556 9.44208 23.7711C9.70358 23.8107 9.97046 23.7974 10.2275 23.7321C10.4845 23.6668 10.7266 23.5508 10.94 23.3905C11.1535 23.2303 11.334 23.029 11.4713 22.7982C11.6086 22.5674 11.7001 22.3116 11.7404 22.0454C11.927 21.4308 11.9434 20.7819 12.1199 20.1658C12.2551 19.3975 12.5462 18.6656 12.9746 18.0167C13.403 17.3677 13.9593 16.8161 14.6079 16.3971C13.6273 16.5146 12.6979 16.912 11.9274 17.5434C11.9239 16.7543 11.9895 15.9661 12.1234 15.1882C12.1896 14.3485 12.5774 13.5672 13.2034 13.0128C13.8293 12.4584 14.6431 12.1754 15.4691 12.2248C16.6054 12.1554 17.7437 12.132 18.8814 12.1546C20.5303 12.238 22.1839 12.1413 23.8148 11.8688C24.9058 11.6661 25.9517 11.2598 26.8995 10.6707C24.9284 10.798 22.9512 10.7636 20.9872 10.5677C24.6621 8.68746 27.6075 5.59749 29.3415 1.80339C26.7479 4.51793 24.0019 7.0138 20.3761 8.21346C22.0208 5.70574 23.4263 3.04701 24.5741 0.269531ZM11.6223 6.45419C11.5139 6.75917 11.4179 7.06393 11.2905 7.35762C11.0505 7.9304 10.7811 8.49242 10.5407 9.06726C10.5157 9.16655 10.4551 9.25292 10.3709 9.30931C10.2866 9.36571 10.1848 9.38804 10.0855 9.3719C9.29684 9.3462 8.51215 9.34843 7.65005 9.33044L11.6223 6.45419Z" fill="url(#paint8_linear_5558_32888)"/>
<defs>
<linearGradient id="paint0_linear_5558_32888" x1="79" y1="0.269531" x2="79" y2="31.7274" gradientUnits="userSpaceOnUse">
<stop stop-color="#FEBEC1"/>
<stop offset="1" stop-color="#FB6042"/>
</linearGradient>
<linearGradient id="paint1_linear_5558_32888" x1="79" y1="0.269531" x2="79" y2="31.7274" gradientUnits="userSpaceOnUse">
<stop stop-color="#FEBEC1"/>
<stop offset="1" stop-color="#FB6042"/>
</linearGradient>
<linearGradient id="paint2_linear_5558_32888" x1="79" y1="0.269531" x2="79" y2="31.7274" gradientUnits="userSpaceOnUse">
<stop stop-color="#FEBEC1"/>
<stop offset="1" stop-color="#FB6042"/>
</linearGradient>
<linearGradient id="paint3_linear_5558_32888" x1="79" y1="0.269531" x2="79" y2="31.7274" gradientUnits="userSpaceOnUse">
<stop stop-color="#FEBEC1"/>
<stop offset="1" stop-color="#FB6042"/>
</linearGradient>
<linearGradient id="paint4_linear_5558_32888" x1="79" y1="0.269531" x2="79" y2="31.7274" gradientUnits="userSpaceOnUse">
<stop stop-color="#FEBEC1"/>
<stop offset="1" stop-color="#FB6042"/>
</linearGradient>
<linearGradient id="paint5_linear_5558_32888" x1="79" y1="0.269531" x2="79" y2="31.7274" gradientUnits="userSpaceOnUse">
<stop stop-color="#FEBEC1"/>
<stop offset="1" stop-color="#FB6042"/>
</linearGradient>
<linearGradient id="paint6_linear_5558_32888" x1="79" y1="0.269531" x2="79" y2="31.7274" gradientUnits="userSpaceOnUse">
<stop stop-color="#FEBEC1"/>
<stop offset="1" stop-color="#FB6042"/>
</linearGradient>
<linearGradient id="paint7_linear_5558_32888" x1="79" y1="0.269531" x2="79" y2="31.7274" gradientUnits="userSpaceOnUse">
<stop stop-color="#FEBEC1"/>
<stop offset="1" stop-color="#FB6042"/>
</linearGradient>
<linearGradient id="paint8_linear_5558_32888" x1="79" y1="0.269531" x2="79" y2="31.7274" gradientUnits="userSpaceOnUse">
<stop stop-color="#FEBEC1"/>
<stop offset="1" stop-color="#FB6042"/>
</linearGradient>
</defs>
</svg>
