<svg width="175" height="38" viewBox="0 0 175 38" fill="none" xmlns="http://www.w3.org/2000/svg">
<g id="BetRiot">
<path d="M31.034 13.466C30.6595 15.4029 29.8326 17.0324 28.5532 18.3544C27.3049 19.6456 25.8071 20.4911 24.0595 20.8908C25.6822 21.2597 26.9305 22.0129 27.8042 23.1505C28.7092 24.288 29.1617 25.6408 29.1617 27.2087C29.1617 27.7006 29.1149 28.2233 29.0212 28.7767C28.522 31.6052 27.1801 33.8034 24.9957 35.3714C22.8113 36.9086 19.9404 37.6772 16.383 37.6772H0L5.80425 5.0267H21.8127C24.8085 5.0267 27.1177 5.61084 28.7404 6.77913C30.3631 7.91667 31.1744 9.57686 31.1744 11.7597C31.1744 12.2824 31.1276 12.8511 31.034 13.466ZM17.3659 18.0777C19.644 18.0777 20.9546 17.1246 21.2978 15.2184C21.3603 14.8495 21.3915 14.5882 21.3915 14.4345C21.3915 12.9895 20.3773 12.267 18.3489 12.267H13.7617L12.7319 18.0777H17.3659ZM19.8468 27.4393C19.9092 27.0704 19.9404 26.8244 19.9404 26.7015C19.9404 25.1642 18.895 24.3956 16.8042 24.3956H11.6085L10.5319 30.3908H15.7276C18.1617 30.3908 19.5347 29.407 19.8468 27.4393Z" fill="#00041A"/>
<path d="M48.491 11.483C51.986 11.483 54.7321 12.39 56.7293 14.2039C58.7265 16.0178 59.725 18.4773 59.725 21.5825C59.725 22.3511 59.647 23.2427 59.491 24.2573C59.2101 25.3026 58.9917 26.0097 58.8357 26.3786H41.5165C41.4853 26.6246 41.4697 26.9782 41.4697 27.4393C41.4697 29.6529 42.5151 30.7597 44.6059 30.7597C45.5109 30.7597 46.291 30.5445 46.9463 30.1141C47.6328 29.6837 48.1477 29.1149 48.491 28.4078H58.2272C57.1662 31.2362 55.3406 33.5421 52.7506 35.3252C50.1605 37.1084 47.1648 38 43.7633 38C40.3307 38 37.6158 37.0623 35.6187 35.1869C33.6215 33.3115 32.6229 30.729 32.6229 27.4393C32.6229 26.4555 32.7166 25.4102 32.9038 24.3034C33.3719 21.6901 34.3392 19.415 35.8059 17.4782C37.3038 15.5413 39.1449 14.0655 41.3293 13.051C43.5137 12.0057 45.9009 11.483 48.491 11.483ZM50.457 22.5971C50.5194 22.3511 50.5506 22.0129 50.5506 21.5825C50.5506 20.5987 50.2385 19.8608 49.6144 19.3689C48.9903 18.8463 48.1945 18.585 47.2272 18.585C46.0102 18.585 44.9648 18.9231 44.091 19.5995C43.2173 20.2759 42.5931 21.2751 42.2187 22.5971H50.457Z" fill="#00041A"/>
<path d="M72.8391 27.716C72.8079 27.8697 72.7923 28.085 72.7923 28.3617C72.7923 28.915 72.9483 29.3147 73.2604 29.5607C73.5724 29.8066 74.0873 29.9296 74.805 29.9296H77.3327L75.8816 37.6772H72.137C66.3015 37.6772 63.3838 35.233 63.3838 30.3447C63.3838 29.4838 63.4774 28.5461 63.6646 27.5316L65.1625 19.3689H61.7455L63.1029 11.8058H66.5199L67.6433 5.53398H76.8178L75.6944 11.8058H80.4689L79.1114 19.3689H74.337L72.8391 27.716Z" fill="#00041A"/>
<path d="M100.448 5.0267C103.974 5.0267 106.642 5.81068 108.452 7.37864C110.262 8.91586 111.167 10.9757 111.167 13.5583C111.167 13.9579 111.105 14.6189 110.98 15.5413C110.543 17.8471 109.529 19.8455 107.937 21.5364C106.346 23.1966 104.286 24.3649 101.759 25.0413L107.095 37.6772H96.9374L92.3502 25.6408H91.414L89.3076 37.6772H80.0863L85.8906 5.0267H100.448ZM92.5374 19.5534H97.031C99.5899 19.5534 101.088 18.4159 101.525 16.1408C101.556 15.9563 101.571 15.695 101.571 15.3568C101.571 13.5736 100.495 12.682 98.3416 12.682H93.8012L92.5374 19.5534Z" fill="#FC6622"/>
<path d="M116.331 5.39563C116.331 4.41181 116.596 3.52023 117.127 2.72087C117.689 1.89078 118.453 1.22977 119.42 0.737863C120.388 0.245954 121.464 0 122.65 0C124.086 0 125.209 0.35356 126.02 1.06068C126.832 1.7678 127.237 2.69013 127.237 3.82767C127.237 4.78075 126.957 5.67233 126.395 6.50243C125.864 7.33252 125.115 7.99353 124.148 8.48544C123.212 8.9466 122.151 9.17718 120.965 9.17718C119.498 9.17718 118.359 8.82362 117.548 8.1165C116.737 7.40938 116.331 6.50243 116.331 5.39563ZM125.084 11.8058L120.45 37.6772H111.229L115.863 11.8058H125.084Z" fill="#FC6622"/>
<path d="M142.343 11.483C144.683 11.483 146.743 11.9288 148.522 12.8204C150.332 13.6812 151.736 14.9417 152.735 16.6019C153.733 18.2621 154.232 20.2298 154.232 22.5049C154.232 23.4579 154.139 24.4725 153.952 25.5485C153.483 28.1003 152.5 30.3139 151.003 32.1893C149.505 34.0647 147.648 35.5097 145.432 36.5243C143.217 37.5081 140.83 38 138.271 38C135.868 38 133.762 37.5696 131.952 36.7087C130.142 35.8172 128.722 34.5413 127.692 32.8811C126.693 31.1901 126.194 29.2071 126.194 26.932C126.194 25.979 126.288 24.9798 126.475 23.9345C126.943 21.3827 127.926 19.1691 129.424 17.2937C130.953 15.4183 132.841 13.9887 135.088 13.0049C137.335 11.9903 139.753 11.483 142.343 11.483ZM141.173 19.3228C139.925 19.3228 138.801 19.784 137.803 20.7063C136.804 21.6286 136.133 22.966 135.79 24.7184C135.696 25.2718 135.649 25.7638 135.649 26.1942C135.649 27.4854 135.977 28.4693 136.632 29.1456C137.319 29.822 138.193 30.1602 139.254 30.1602C140.502 30.1602 141.625 29.699 142.624 28.7767C143.622 27.8544 144.293 26.5016 144.637 24.7184C144.73 24.165 144.777 23.6731 144.777 23.2427C144.777 21.9515 144.434 20.983 143.747 20.3374C143.092 19.661 142.234 19.3228 141.173 19.3228Z" fill="#FC6622"/>
<path d="M167.37 27.716C167.339 27.8697 167.323 28.085 167.323 28.3617C167.323 28.915 167.479 29.3147 167.791 29.5607C168.104 29.8066 168.618 29.9296 169.336 29.9296H171.864L170.413 37.6772H166.668C160.833 37.6772 157.915 35.233 157.915 30.3447C157.915 29.4838 158.009 28.5461 158.196 27.5316L159.694 19.3689H156.277L157.634 11.8058H161.051L162.174 5.53398H171.349L170.226 11.8058H175L173.643 19.3689H168.868L167.37 27.716Z" fill="#FC6622"/>
</g>
</svg>
