<svg width="136" height="38" viewBox="0 0 136 38" fill="none" xmlns="http://www.w3.org/2000/svg">
<g clip-path="url(#clip0_8923_20880)">
<path d="M17.223 25.2363H9.06776C9.06776 25.2266 9.06776 25.2121 9.06776 25.1928C9.06776 25.1735 9.06776 25.159 9.06776 25.1493C9.07742 25.13 9.08225 25.1107 9.08225 25.0914C9.08225 25.0721 9.08225 25.0528 9.08225 25.0335C9.09191 25.0045 9.09674 24.9755 9.09674 24.9466C9.09674 24.9176 9.09674 24.8886 9.09674 24.8596C9.10639 24.821 9.11122 24.7824 9.11122 24.7438C9.11122 24.7051 9.11122 24.6617 9.11122 24.6134C9.12088 24.5651 9.12571 24.512 9.12571 24.4541C9.12571 24.3961 9.13054 24.3333 9.1402 24.2658L9.15469 23.8312L9.16918 23.5705L9.18366 22.9621L9.19815 22.6L9.21264 21.7743L9.22713 21.3108L9.27054 17.8053C7.78342 16.7141 4.69322 14.4206 0 10.9249L1.01397 1.30664L13.0802 11.5043L25.1319 1.30664L26.2763 10.9538C21.4961 14.4303 18.4783 16.632 17.223 17.5591V25.2363Z" fill="#FFD02E"/>
<path d="M55.1841 25.2218H46.5075L45.2617 22.9041H34.0357L32.79 25.2218H24.1133L39.656 0.958984L55.1841 25.2218ZM41.8577 16.5451L39.656 12.4603H39.6415L37.4542 16.5451H41.8577Z" fill="#FFD02E"/>
<path d="M73.1542 25.2217H55.5691C55.7817 23.7538 55.9022 22.7447 55.931 22.1942C55.9599 21.6438 55.9843 20.9871 56.0038 20.2242C56.0326 19.4614 56.0521 18.5681 56.0615 17.5445C56.0709 16.5209 56.0759 15.3524 56.0759 14.0391C56.0759 12.6002 56.0665 11.3351 56.0471 10.2439C56.0376 9.14302 56.0182 8.19668 55.9893 7.40483C55.9699 6.60331 55.941 5.92731 55.9022 5.37687C55.8733 4.82643 55.8395 4.37739 55.8006 4.02974C55.7717 3.6821 55.7379 3.41653 55.6996 3.23306C55.6707 3.03992 55.6224 2.85644 55.5547 2.68262H73.0093C74.1295 2.68262 75.1626 2.92404 76.109 3.40688C77.0649 3.88006 77.8665 4.52707 78.5137 5.3479C79.5179 6.61292 80.0203 8.06146 80.0203 9.69346C80.0203 10.3115 79.8948 10.8813 79.6433 11.4027C79.3924 11.9145 79.0832 12.3636 78.7163 12.7498C78.3494 13.1265 77.973 13.421 77.5867 13.6335C77.2098 13.8362 76.8817 13.9425 76.6014 13.9521C76.9877 13.9618 77.4418 14.1646 77.963 14.5605C78.4943 14.9564 78.9678 15.4779 79.383 16.1249C79.8077 16.772 80.0203 17.4672 80.0203 18.2108C80.0203 18.742 79.967 19.2489 79.8609 19.7318C79.484 21.3155 78.6875 22.6143 77.4707 23.6283C76.2639 24.6326 74.8245 25.1637 73.1542 25.2217ZM70.3437 19.7318C70.7595 19.7318 71.1164 19.5869 71.4162 19.2972C71.7154 18.9979 71.8647 18.6357 71.8647 18.2108C71.8647 17.7956 71.7154 17.4382 71.4162 17.1389C71.1164 16.8395 70.7595 16.6899 70.3437 16.6899H63.7097V19.7318H70.3437ZM70.3437 11.1999C70.7595 11.1999 71.1164 11.0551 71.4162 10.7654C71.7154 10.466 71.8647 10.1039 71.8647 9.67897C71.8647 9.26375 71.7154 8.90643 71.4162 8.60707C71.1164 8.3077 70.7595 8.15804 70.3437 8.15804H63.7097V11.1999H70.3437Z" fill="#FFD02E"/>
<path d="M100.412 25.2217H82.8269C83.0395 23.7538 83.16 22.7447 83.1889 22.1942C83.2177 21.6438 83.2422 20.9871 83.2616 20.2242C83.2904 19.4614 83.3099 18.5681 83.3193 17.5445C83.3288 16.5209 83.3337 15.3524 83.3337 14.0391C83.3337 12.6002 83.3243 11.3351 83.3049 10.2439C83.2954 9.14302 83.276 8.19668 83.2471 7.40483C83.2277 6.60331 83.1989 5.92731 83.16 5.37687C83.1311 4.82643 83.0973 4.37739 83.0584 4.02974C83.0295 3.6821 82.9957 3.41653 82.9574 3.23306C82.928 3.03992 82.8802 2.85644 82.8125 2.68262H100.267C101.387 2.68262 102.42 2.92404 103.367 3.40688C104.323 3.88006 105.124 4.52707 105.772 5.3479C106.776 6.61292 107.278 8.06146 107.278 9.69346C107.278 10.3115 107.153 10.8813 106.901 11.4027C106.65 11.9145 106.341 12.3636 105.974 12.7498C105.607 13.1265 105.231 13.421 104.845 13.6335C104.468 13.8362 104.14 13.9425 103.859 13.9521C104.246 13.9618 104.7 14.1646 105.221 14.5605C105.752 14.9564 106.226 15.4779 106.641 16.1249C107.065 16.772 107.278 17.4672 107.278 18.2108C107.278 18.742 107.225 19.2489 107.119 19.7318C106.742 21.3155 105.945 22.6143 104.728 23.6283C103.522 24.6326 102.082 25.1637 100.412 25.2217ZM97.6015 19.7318C98.0173 19.7318 98.3742 19.5869 98.6734 19.2972C98.9732 18.9979 99.1225 18.6357 99.1225 18.2108C99.1225 17.7956 98.9732 17.4382 98.6734 17.1389C98.3742 16.8395 98.0173 16.6899 97.6015 16.6899H90.9675V19.7318H97.6015ZM97.6015 11.1999C98.0173 11.1999 98.3742 11.0551 98.6734 10.7654C98.9732 10.466 99.1225 10.1039 99.1225 9.67897C99.1225 9.26375 98.9732 8.90643 98.6734 8.60707C98.3742 8.3077 98.0173 8.15804 97.6015 8.15804H90.9675V11.1999H97.6015Z" fill="#FFD02E"/>
<path d="M126.539 25.2363H118.384C118.384 25.2266 118.384 25.2121 118.384 25.1928C118.384 25.1735 118.384 25.159 118.384 25.1493C118.393 25.13 118.398 25.1107 118.398 25.0914C118.398 25.0721 118.398 25.0528 118.398 25.0335C118.408 25.0045 118.413 24.9755 118.413 24.9466C118.413 24.9176 118.413 24.8886 118.413 24.8596C118.423 24.821 118.427 24.7824 118.427 24.7438C118.427 24.7051 118.427 24.6617 118.427 24.6134C118.437 24.5651 118.442 24.512 118.442 24.4541C118.442 24.3961 118.447 24.3333 118.457 24.2658L118.471 23.8312L118.486 23.5705L118.5 22.9621L118.514 22.6L118.529 21.7743L118.543 21.3108L118.587 17.8053C117.099 16.7141 114.009 14.4206 109.316 10.9249L110.33 1.30664L122.396 11.5043L134.448 1.30664L135.593 10.9538C130.812 14.4303 127.795 16.632 126.539 17.5591V25.2363Z" fill="#FFD02E"/>
<path d="M49.3371 36.7971C48.7606 36.7971 48.2189 36.7044 47.7119 36.519C47.2049 36.3335 46.7602 36.0772 46.3778 35.7498C45.9954 35.4195 45.6955 35.0371 45.4782 34.6025C45.261 34.168 45.1523 33.703 45.1523 33.2076C45.1523 32.7122 45.261 32.2472 45.4782 31.8127C45.6955 31.3781 45.9954 30.9971 46.3778 30.6698C46.7602 30.3395 47.2049 30.0817 47.7119 29.8963C48.2189 29.7109 48.7606 29.6182 49.3371 29.6182C50.1135 29.6182 50.819 29.7819 51.4534 30.1092C52.0908 30.4337 52.5949 30.8697 52.9657 31.4172L50.8277 32.6036C50.7205 32.2356 50.5206 31.9373 50.228 31.7084C49.9354 31.4766 49.6384 31.3607 49.3371 31.3607C49.0822 31.3607 48.8345 31.4462 48.594 31.6171C48.3536 31.7852 48.1551 32.0112 47.9987 32.295C47.8423 32.579 47.764 32.8933 47.764 33.238C47.764 33.5828 47.8423 33.8971 47.9987 34.181C48.1551 34.4649 48.3536 34.6909 48.594 34.8589C48.8345 35.027 49.0822 35.111 49.3371 35.111C49.6181 35.111 49.9006 35.0096 50.1845 34.8068C50.4684 34.604 50.6698 34.336 50.7886 34.0029L52.8571 35.1544C52.4775 35.6556 51.9807 36.0554 51.3665 36.3538C50.7523 36.6493 50.0759 36.7971 49.3371 36.7971Z" fill="white"/>
<path d="M61.9462 36.5933H59.3433L58.9697 35.898H55.6019L55.228 36.5933H52.625L57.2877 29.3145L61.9462 36.5933ZM57.9483 33.9903L57.2877 32.7649H57.2833L56.6272 33.9903H57.9483Z" fill="white"/>
<path d="M64.5219 31.6569C64.5219 31.7815 64.5885 31.8814 64.7217 31.9567C64.8577 32.032 65.0386 32.0958 65.2651 32.1479C65.4938 32.2001 65.7503 32.2493 66.0339 32.2957C66.3093 32.342 66.5918 32.3956 66.8816 32.4565C67.1741 32.5173 67.4567 32.597 67.7287 32.6954C68.0012 32.7911 68.246 32.9157 68.4631 33.0692C68.6834 33.2198 68.8572 33.4081 68.9849 33.6341C69.1153 33.8572 69.1803 34.1281 69.1803 34.4467C69.1803 34.7683 69.102 35.0551 68.9455 35.3071C68.7923 35.5592 68.5863 35.7794 68.3287 35.9677C68.0706 36.1531 67.7836 36.3067 67.4683 36.4283C67.1525 36.55 66.8305 36.6413 66.5036 36.7021C66.1761 36.763 65.8702 36.7934 65.5865 36.7934C64.871 36.7934 64.1699 36.7093 63.4833 36.5413C62.7994 36.3733 62.2359 36.127 61.793 35.8026L63.1358 34.2773C63.5787 34.5988 64.0017 34.8364 64.4047 34.99C64.8072 35.1435 65.1447 35.2203 65.4172 35.2203C65.5993 35.2203 65.7764 35.2 65.9474 35.1594C66.1211 35.1189 66.2627 35.0652 66.3731 34.9986C66.4858 34.9291 66.5424 34.8523 66.5424 34.7683C66.5424 34.6466 66.4758 34.5496 66.3426 34.4772C66.2121 34.4047 66.0356 34.3453 65.8125 34.299C65.5893 34.2497 65.3401 34.2034 65.0647 34.1599C64.7866 34.1194 64.5002 34.0701 64.2043 34.0122C63.9118 33.9514 63.6281 33.8731 63.3528 33.7775C63.0775 33.679 62.8299 33.553 62.6095 33.3995C62.3897 33.2459 62.2126 33.0547 62.0794 32.8258C61.949 32.5941 61.884 32.3116 61.884 31.9785C61.884 31.6221 61.9911 31.3005 62.2054 31.0137C62.4202 30.7241 62.7039 30.4763 63.0575 30.2706C63.4139 30.0649 63.8091 29.9071 64.2437 29.797C64.6812 29.6869 65.123 29.6318 65.5693 29.6318C66.4586 29.6318 67.193 29.7159 67.7725 29.8839C68.3548 30.0519 68.8544 30.2982 69.2713 30.6226L67.9285 32.1479C67.4855 31.8264 67.0598 31.5888 66.6512 31.4353C66.2454 31.2817 65.9107 31.2049 65.647 31.2049C65.4705 31.2049 65.2951 31.2252 65.1214 31.2658C64.9504 31.3034 64.8072 31.357 64.6912 31.4265C64.5785 31.4961 64.5219 31.5729 64.5219 31.6569Z" fill="white"/>
<path d="M72.4529 29.8311L72.4707 36.5928H69.9893C70.0154 35.5353 70.0382 34.4171 70.0587 33.238C70.056 32.0763 70.0299 30.9406 69.9805 29.8311H72.4529Z" fill="white"/>
<path d="M81.6851 36.9891L75.7233 33.4823V36.5937H73.6545L73.6328 36.5503V36.5459C73.6356 36.543 73.6389 36.5285 73.6417 36.5024C73.6472 36.4764 73.6533 36.4286 73.6589 36.359L73.6761 36.0331L73.6939 35.4508L73.7066 34.5426L73.7111 33.2389C73.7111 32.0106 73.7011 31.0488 73.6806 30.3534C73.6689 30.0232 73.6572 29.7755 73.6461 29.6104L73.6328 29.4365H73.6545L79.6168 32.9695V29.832H81.6851V36.9891Z" fill="white"/>
<path d="M86.5089 36.7891C85.9671 36.7891 85.4586 36.6964 84.9835 36.511C84.5116 36.3256 84.0959 36.0692 83.7367 35.7418C83.3803 35.4144 83.1006 35.0349 82.8979 34.6032C82.6948 34.1716 82.5938 33.7095 82.5938 33.217C82.5938 32.7216 82.6948 32.2581 82.8979 31.8264C83.1006 31.3947 83.3803 31.0153 83.7367 30.6879C84.0959 30.3605 84.5116 30.1041 84.9835 29.9187C85.4586 29.7333 85.9671 29.6406 86.5089 29.6406C87.0479 29.6406 87.5536 29.7333 88.0254 29.9187C88.5006 30.1041 88.918 30.3605 89.2772 30.6879C89.6363 31.0153 89.9172 31.3947 90.1204 31.8264C90.323 32.2581 90.4246 32.7216 90.4246 33.217C90.4246 33.7095 90.323 34.1716 90.1204 34.6032C89.9172 35.0349 89.6363 35.4144 89.2772 35.7418C88.918 36.0692 88.5006 36.3256 88.0254 36.511C87.5536 36.6964 87.0479 36.7891 86.5089 36.7891ZM86.5089 35.1117C86.7465 35.1117 86.9641 35.0277 87.1606 34.8596C87.3576 34.6916 87.5142 34.4671 87.6302 34.1861C87.7462 33.9021 87.8039 33.5878 87.8039 33.2431C87.8039 32.9012 87.7462 32.5898 87.6302 32.3088C87.5142 32.0249 87.3576 31.7989 87.1606 31.6309C86.9641 31.4629 86.7465 31.3788 86.5089 31.3788C86.2685 31.3788 86.0498 31.4629 85.8528 31.6309C85.6585 31.7989 85.5025 32.0249 85.3837 32.3088C85.2677 32.5898 85.2099 32.9012 85.2099 33.2431C85.2099 33.5878 85.2677 33.9021 85.3837 34.1861C85.5025 34.4671 85.6585 34.6916 85.8528 34.8596C86.0498 35.0277 86.2685 35.1117 86.5089 35.1117Z" fill="white"/>
</g>
<defs>
<clipPath id="clip0_8923_20880">
<rect width="136" height="36.0816" fill="white" transform="translate(0 0.958984)"/>
</clipPath>
</defs>
</svg>
