<svg width="107" height="48" viewBox="0 0 107 48" fill="none" xmlns="http://www.w3.org/2000/svg">
<path d="M27.6615 48L55.3229 8.39233e-05H0L27.6615 48Z" fill="url(#paint0_linear_3912_21439)"/>
<path d="M103.544 17.2116C103.544 17.2116 103.35 17.0973 102.962 16.8688C102.574 16.6402 102.061 16.3888 101.422 16.1145C100.783 15.8173 100.087 15.5545 99.3344 15.3259C98.5815 15.0973 97.8401 14.9831 97.11 14.9831C96.5396 14.9831 96.0719 15.0745 95.7069 15.2573C95.3418 15.4402 95.1593 15.7488 95.1593 16.1831C95.1593 16.5945 95.3418 16.9259 95.7069 17.1773C96.0719 17.4288 96.5852 17.6573 97.2469 17.8631C97.9313 18.0688 98.7412 18.3202 99.6766 18.6173C101.182 19.0745 102.483 19.6002 103.578 20.1945C104.673 20.7888 105.517 21.5545 106.11 22.4916C106.704 23.4059 107 24.6288 107 26.1602C107 27.623 106.738 28.8573 106.213 29.863C105.688 30.8459 104.981 31.6345 104.091 32.2287C103.202 32.823 102.209 33.2573 101.114 33.5316C100.019 33.783 98.9009 33.9087 97.7602 33.9087C96.5966 33.9087 95.3761 33.7945 94.0984 33.5659C92.8436 33.3145 91.623 32.983 90.4367 32.5716C89.2503 32.1373 88.1666 31.6345 87.1855 31.063L90.0602 25.2002C90.0602 25.2002 90.2884 25.3373 90.7447 25.6116C91.2009 25.8859 91.8055 26.1945 92.5584 26.5373C93.3113 26.8802 94.1441 27.1887 95.0566 27.463C95.9921 27.7373 96.9275 27.8745 97.8629 27.8745C98.5929 27.8745 99.0949 27.783 99.3686 27.6002C99.6652 27.3945 99.8135 27.1316 99.8135 26.8116C99.8135 26.3316 99.5626 25.9659 99.0606 25.7145C98.5587 25.4402 97.8971 25.1888 97.0758 24.9602C96.2772 24.7088 95.3875 24.423 94.4064 24.103C92.9919 23.623 91.8284 23.0859 90.9158 22.4916C90.0032 21.8745 89.3301 21.1545 88.8967 20.3316C88.4632 19.4859 88.2464 18.4688 88.2464 17.2802C88.2464 15.4745 88.6685 13.9659 89.5127 12.7545C90.3568 11.5431 91.4633 10.6288 92.8322 10.0116C94.2239 9.37164 95.7183 9.05164 97.3153 9.05164C98.5017 9.05164 99.6424 9.20021 100.738 9.49735C101.855 9.77163 102.894 10.1145 103.852 10.5259C104.833 10.9373 105.688 11.3259 106.418 11.6916L103.544 17.2116Z" fill="white"/>
<path d="M86.3987 15.0854H79.4174V33.5997H72.7441V15.0854H65.7285V9.25684H86.3987V15.0854Z" fill="white"/>
<path d="M52.6503 33.8054C50.7111 33.8054 49.0456 33.4854 47.6539 32.8454C46.2622 32.2054 45.1214 31.3254 44.2317 30.2054C43.3647 29.0854 42.7259 27.8054 42.3152 26.3654C41.9046 24.9025 41.6992 23.3711 41.6992 21.7711V9.25684H48.3725V21.7711C48.3725 22.5711 48.4524 23.3368 48.6121 24.0682C48.7718 24.7997 49.0228 25.4511 49.365 26.0225C49.7072 26.594 50.1407 27.0511 50.6654 27.3939C51.213 27.7139 51.8746 27.8739 52.6503 27.8739C53.4488 27.8739 54.1219 27.7139 54.6694 27.3939C55.217 27.0511 55.6505 26.594 55.9699 26.0225C56.3121 25.4282 56.5631 24.7654 56.7228 24.034C56.8825 23.3025 56.9623 22.5482 56.9623 21.7711V9.25684H63.6356V21.7711C63.6356 23.4625 63.4075 25.0397 62.9512 26.5025C62.5177 27.9654 61.8561 29.2454 60.9663 30.3425C60.0765 31.4397 58.9358 32.2968 57.5441 32.9139C56.1752 33.5082 54.5439 33.8054 52.6503 33.8054Z" fill="white"/>
<path d="M27.2481 33.7714C25.6738 33.7714 24.1681 33.4971 22.7307 32.9485C21.3162 32.3771 20.0614 31.5542 18.9663 30.4799C17.8712 29.3828 17.0042 28.0685 16.3654 26.5371C15.7494 24.9828 15.4414 23.2114 15.4414 21.2228C15.4414 19.5085 15.7608 17.92 16.3996 16.4571C17.0384 14.9943 17.9168 13.7143 19.0347 12.6171C20.1755 11.4971 21.4987 10.6285 23.0045 10.0114C24.5103 9.39426 26.1415 9.08569 27.8983 9.08569C30.0885 9.08569 32.0734 9.56569 33.8529 10.5257C35.6325 11.4628 36.9558 12.7543 37.8227 14.4L32.8605 18.2057C32.3814 17.2457 31.6627 16.48 30.7045 15.9085C29.7463 15.3143 28.731 15.0171 27.6587 15.0171C26.8602 15.0171 26.1301 15.1771 25.4685 15.4971C24.8069 15.8171 24.2251 16.2628 23.7232 16.8343C23.2441 17.4057 22.8676 18.0914 22.5938 18.8914C22.3429 19.6685 22.2174 20.5257 22.2174 21.4628C22.2174 22.4228 22.3543 23.2914 22.6281 24.0685C22.9018 24.8457 23.2783 25.52 23.7574 26.0914C24.2593 26.64 24.8525 27.0742 25.537 27.3942C26.2214 27.6914 26.9857 27.8399 27.8298 27.8399C28.9021 27.8399 29.9288 27.5771 30.9098 27.0514C31.8909 26.5028 32.7806 25.7371 33.5792 24.7542V31.2685C31.754 32.9371 29.6436 33.7714 27.2481 33.7714ZM33.2369 25.44H28.7538V20.64H38.7467V33.5999H33.2369V25.44Z" fill="white"/>
<defs>
<linearGradient id="paint0_linear_3912_21439" x1="27.6615" y1="48" x2="27.6615" y2="8.01086e-05" gradientUnits="userSpaceOnUse">
<stop stop-color="#471D63"/>
<stop offset="1" stop-color="#DD272E"/>
</linearGradient>
</defs>
</svg>
