<svg width="123" height="24" viewBox="0 0 123 24" fill="none" xmlns="http://www.w3.org/2000/svg">
<path d="M3.07645 23.5235C2.77261 23.5235 2.60802 23.3969 2.5827 23.1437L0 2.06431C0 1.73514 0.164584 1.57056 0.493752 1.57056H6.19089C6.46942 1.57056 6.60868 1.70982 6.60868 1.98834L6.95051 13.2687C6.97583 13.37 7.01381 13.4206 7.06445 13.4206C7.11509 13.4206 7.15307 13.37 7.17839 13.2687L10.1789 1.98834C10.2548 1.70982 10.4321 1.57056 10.7106 1.57056H16.2178C16.547 1.57056 16.661 1.73514 16.5597 2.06431L8.77359 23.1437C8.67231 23.3969 8.4824 23.5235 8.20388 23.5235H3.07645Z" fill="#F7AA01"/>
<path d="M31.2126 6.54605C31.1873 6.67266 31.124 6.7866 31.0227 6.88788C30.9214 6.96384 30.8075 7.00182 30.6809 7.00182H23.8823C23.7557 7.00182 23.6924 7.06513 23.6924 7.19173L23.3885 9.62251C23.3379 9.74911 23.3885 9.81241 23.5404 9.81241H27.1866C27.3132 9.81241 27.4145 9.86305 27.4905 9.96434C27.5664 10.0403 27.5917 10.1416 27.5664 10.2682L27.0347 14.7879C27.0094 14.9145 26.9461 15.0285 26.8448 15.1297C26.7435 15.2057 26.6296 15.2437 26.503 15.2437H22.8568C22.7302 15.2437 22.6669 15.307 22.6669 15.4336L22.363 17.9403C22.3124 18.0669 22.363 18.1302 22.515 18.1302H29.3515C29.4781 18.1302 29.5794 18.1809 29.6554 18.2822C29.7313 18.3581 29.7567 18.4594 29.7313 18.586L29.1616 23.0678C29.1363 23.1944 29.073 23.3083 28.9717 23.4096C28.8958 23.4855 28.7945 23.5235 28.6679 23.5235H15.9822C15.8556 23.5235 15.7544 23.4855 15.6784 23.4096C15.6024 23.3083 15.5771 23.1944 15.6024 23.0678L18.1851 2.02632C18.2105 1.89972 18.2611 1.79844 18.3371 1.72248C18.4383 1.6212 18.5523 1.57056 18.6789 1.57056H31.3645C31.4911 1.57056 31.5924 1.6212 31.6684 1.72248C31.7443 1.79844 31.7696 1.89972 31.7443 2.02632L31.2126 6.54605Z" fill="#F7AA01"/>
<path d="M38.0242 23.7894C35.9733 23.7894 34.3527 23.283 33.1627 22.2702C31.9726 21.2573 31.3776 19.8647 31.3776 18.0923C31.3776 17.8897 31.4029 17.5352 31.4535 17.0288L32.555 8.02731C32.8082 5.95102 33.6691 4.31784 35.1377 3.12777C36.6316 1.91238 38.518 1.30469 40.7968 1.30469C42.8478 1.30469 44.4683 1.82376 45.6584 2.86191C46.8738 3.90005 47.4815 5.33067 47.4815 7.15375C47.4815 7.33099 47.4562 7.6475 47.4055 8.10327L47.2916 8.90087C47.2663 9.02747 47.203 9.14142 47.1017 9.2427C47.0257 9.31866 46.9244 9.35664 46.7978 9.35664H41.5565C41.4299 9.35664 41.3286 9.31866 41.2526 9.2427C41.1766 9.14142 41.1513 9.02747 41.1766 8.90087L41.2906 8.02731C41.3412 7.59686 41.2526 7.28035 41.0247 7.07779C40.8222 6.8499 40.5183 6.73596 40.1132 6.73596C39.2523 6.73596 38.7712 7.16641 38.6699 8.02731L37.5685 17.0668C37.5178 17.4972 37.5811 17.8264 37.7584 18.0543C37.9609 18.2822 38.2648 18.3961 38.6699 18.3961C39.075 18.3961 39.4169 18.2822 39.6954 18.0543C39.9739 17.8264 40.1385 17.4972 40.1891 17.0668L40.3411 15.7374C40.3411 15.6108 40.2904 15.5475 40.1891 15.5475H39.5435C39.4169 15.5475 39.3156 15.5095 39.2396 15.4336C39.1637 15.3323 39.1383 15.2184 39.1637 15.0918L39.5815 11.6735C39.6068 11.5469 39.6574 11.4456 39.7334 11.3696C39.8347 11.2683 39.9486 11.2177 40.0752 11.2177H46.5699C46.6965 11.2177 46.7978 11.2683 46.8738 11.3696C46.9497 11.4456 46.9751 11.5469 46.9497 11.6735L46.3041 17.0288C46.0509 19.1051 45.1646 20.7509 43.6454 21.9663C42.1262 23.1817 40.2524 23.7894 38.0242 23.7894Z" fill="#F7AA01"/>
<path d="M57.5435 23.5235C57.2649 23.5235 57.1257 23.3843 57.1257 23.1057L57.0497 20.9028C57.075 20.8522 57.0624 20.8142 57.0117 20.7889C56.9611 20.7383 56.9104 20.7129 56.8598 20.7129H53.4035C53.2516 20.7129 53.163 20.7636 53.1377 20.8649L52.492 23.1057C52.416 23.3843 52.2388 23.5235 51.9603 23.5235H46.7569C46.4277 23.5235 46.3138 23.3589 46.4151 23.0298L53.9733 1.95036C54.0745 1.69716 54.2644 1.57056 54.543 1.57056H60.5439C60.8225 1.57056 60.9744 1.69716 60.9997 1.95036L63.3545 23.0298V23.1057C63.3545 23.3843 63.2026 23.5235 62.8988 23.5235H57.5435ZM54.7709 15.6615C54.7455 15.7881 54.8088 15.8514 54.9608 15.8514H56.7079C56.7838 15.8514 56.8471 15.7881 56.8978 15.6615L56.7459 10.0403C56.7205 9.96434 56.6826 9.92636 56.6319 9.92636C56.5813 9.92636 56.5433 9.96434 56.518 10.0403L54.7709 15.6615Z" fill="#F7AA01"/>
<path d="M70.9193 23.7894C68.9443 23.7894 67.3617 23.3083 66.1717 22.3461C65.0069 21.3839 64.4245 20.1306 64.4245 18.586C64.4245 18.2568 64.4372 18.0163 64.4625 17.8644L64.5765 17.0668C64.6018 16.9402 64.6524 16.8389 64.7284 16.7629C64.8297 16.6616 64.9436 16.611 65.0702 16.611H70.2356C70.3622 16.611 70.4635 16.6616 70.5395 16.7629C70.6154 16.8389 70.6407 16.9402 70.6154 17.0668V17.1427C70.5648 17.5479 70.6281 17.8644 70.8053 18.0923C70.9826 18.3201 71.2484 18.4341 71.6029 18.4341C71.9827 18.4341 72.2866 18.3328 72.5145 18.1302C72.7423 17.9023 72.8563 17.6112 72.8563 17.2567C72.8563 16.9275 72.679 16.5983 72.3246 16.2692C71.9701 15.9147 71.3877 15.4336 70.5774 14.8259C69.5899 14.0916 68.7797 13.4206 68.1467 12.8129C67.2858 12.0026 66.6274 11.2557 66.1717 10.572C65.7412 9.86305 65.526 9.09078 65.526 8.2552C65.526 8.00199 65.5386 7.81208 65.564 7.68548C65.7918 5.78644 66.6401 4.25454 68.1087 3.08979C69.5773 1.89972 71.4004 1.30469 73.5779 1.30469C75.5529 1.30469 77.1228 1.8111 78.2876 2.82392C79.4776 3.81143 80.0727 5.1281 80.0727 6.77394C80.0727 7.15375 80.06 7.43228 80.0347 7.60952L79.9967 7.91337C79.9714 8.03997 79.9081 8.15391 79.8068 8.2552C79.7308 8.33116 79.6296 8.36914 79.503 8.36914H74.3755C74.2489 8.36914 74.1476 8.33116 74.0717 8.2552C73.9957 8.15391 73.9704 8.03997 73.9957 7.91337C74.021 7.55888 73.9324 7.28035 73.7299 7.07779C73.5273 6.8499 73.2488 6.73596 72.8943 6.73596C72.4892 6.73596 72.16 6.83724 71.9068 7.03981C71.6789 7.24237 71.5649 7.49558 71.5649 7.79942C71.5649 8.15391 71.7169 8.49574 72.0207 8.82491C72.3499 9.15408 72.7297 9.48324 73.1601 9.81241C73.6159 10.1163 73.9198 10.3188 74.0717 10.4201C75.1098 11.1291 75.9581 11.7494 76.6164 12.2812C77.2747 12.8129 77.8445 13.4586 78.3255 14.2182C78.8066 14.9778 79.0472 15.8387 79.0472 16.8009C79.0472 17.0794 79.0345 17.2947 79.0092 17.4466C78.756 19.3963 77.8824 20.9408 76.3885 22.0802C74.9199 23.2197 73.0968 23.7894 70.9193 23.7894Z" fill="#F7AA01"/>
<path d="M80.3718 23.5235C80.2452 23.5235 80.1439 23.4855 80.0679 23.4096C79.992 23.3083 79.9666 23.1944 79.992 23.0678L82.5747 2.02632C82.6 1.89972 82.6506 1.79844 82.7266 1.72248C82.8279 1.6212 82.9418 1.57056 83.0684 1.57056H88.3098C88.4364 1.57056 88.5377 1.6212 88.6136 1.72248C88.6896 1.79844 88.7149 1.89972 88.6896 2.02632L86.1069 23.0678C86.0816 23.1944 86.0183 23.3083 85.917 23.4096C85.841 23.4855 85.7397 23.5235 85.6131 23.5235H80.3718Z" fill="#F7AA01"/>
<path d="M100.799 2.02632C100.824 1.89972 100.875 1.79844 100.951 1.72248C101.052 1.6212 101.166 1.57056 101.292 1.57056H106.458C106.584 1.57056 106.686 1.6212 106.762 1.72248C106.838 1.79844 106.863 1.89972 106.838 2.02632L104.255 23.0678C104.23 23.1944 104.166 23.3083 104.065 23.4096C103.989 23.4855 103.888 23.5235 103.761 23.5235H98.5198C98.2666 23.5235 98.1147 23.4096 98.064 23.1817L95.5193 14.0283C95.494 13.9523 95.456 13.9144 95.4054 13.9144C95.3547 13.9144 95.3168 13.965 95.2914 14.0663L94.266 23.0678C94.2406 23.1944 94.1773 23.3083 94.076 23.4096C94.0001 23.4855 93.8988 23.5235 93.7722 23.5235H88.5688C88.4422 23.5235 88.3409 23.4855 88.265 23.4096C88.189 23.3083 88.1637 23.1944 88.189 23.0678L90.7717 2.02632C90.797 1.89972 90.8477 1.79844 90.9236 1.72248C91.0249 1.6212 91.1389 1.57056 91.2655 1.57056H96.4688C96.7221 1.57056 96.8866 1.6845 96.9626 1.91238L99.5073 11.1038C99.5326 11.1797 99.5706 11.2177 99.6213 11.2177C99.6719 11.2177 99.7099 11.1671 99.7352 11.0658L100.799 2.02632Z" fill="#F7AA01"/>
<path d="M113.581 23.7894C111.504 23.7894 109.871 23.2577 108.681 22.1942C107.491 21.1307 106.896 19.6495 106.896 17.7504C106.896 17.4972 106.921 17.0921 106.972 16.535L107.922 8.55904C108.2 6.28019 109.086 4.50774 110.58 3.24171C112.099 1.95036 114.024 1.30469 116.353 1.30469C118.43 1.30469 120.05 1.83642 121.215 2.89989C122.405 3.96335 123 5.44461 123 7.34365C123 7.59686 122.975 8.00199 122.924 8.55904L121.937 16.535C121.658 18.8139 120.759 20.599 119.24 21.8903C117.746 23.1564 115.86 23.7894 113.581 23.7894ZM114.226 18.3961C115.163 18.3961 115.682 17.8644 115.784 16.8009L116.847 8.29318C116.948 7.25503 116.556 6.73596 115.67 6.73596C114.758 6.73596 114.226 7.25503 114.074 8.29318L113.049 16.8009C113.024 16.9022 113.011 17.0414 113.011 17.2187C113.011 18.0036 113.416 18.3961 114.226 18.3961Z" fill="#F7AA01"/>
<path d="M3.07645 22.4298C2.77261 22.4298 2.60802 22.3032 2.5827 22.05L0 0.970557C0 0.641389 0.164584 0.476805 0.493752 0.476805H6.19089C6.46942 0.476805 6.60868 0.616068 6.60868 0.894594L6.95051 12.1749C6.97583 12.2762 7.01381 12.3268 7.06445 12.3268C7.11509 12.3268 7.15307 12.2762 7.17839 12.1749L10.1789 0.894594C10.2548 0.616068 10.4321 0.476805 10.7106 0.476805H16.2178C16.547 0.476805 16.661 0.641389 16.5597 0.970557L8.77359 22.05C8.67231 22.3032 8.4824 22.4298 8.20388 22.4298H3.07645Z" fill="white"/>
<path d="M31.2126 5.4523C31.1873 5.57891 31.124 5.69285 31.0227 5.79413C30.9214 5.87009 30.8075 5.90807 30.6809 5.90807H23.8823C23.7557 5.90807 23.6924 5.97138 23.6924 6.09798L23.3885 8.52876C23.3379 8.65536 23.3885 8.71866 23.5404 8.71866H27.1866C27.3132 8.71866 27.4145 8.7693 27.4905 8.87059C27.5664 8.94655 27.5917 9.04783 27.5664 9.17443L27.0347 13.6942C27.0094 13.8208 26.9461 13.9347 26.8448 14.036C26.7435 14.112 26.6296 14.1499 26.503 14.1499H22.8568C22.7302 14.1499 22.6669 14.2132 22.6669 14.3398L22.363 16.8466C22.3124 16.9732 22.363 17.0365 22.515 17.0365H29.3515C29.4781 17.0365 29.5794 17.0871 29.6554 17.1884C29.7313 17.2644 29.7567 17.3657 29.7313 17.4923L29.1616 21.974C29.1363 22.1006 29.073 22.2145 28.9717 22.3158C28.8958 22.3918 28.7945 22.4298 28.6679 22.4298H15.9822C15.8556 22.4298 15.7544 22.3918 15.6784 22.3158C15.6024 22.2145 15.5771 22.1006 15.6024 21.974L18.1851 0.932575C18.2105 0.805972 18.2611 0.70469 18.3371 0.628729C18.4383 0.527446 18.5523 0.476805 18.6789 0.476805H31.3645C31.4911 0.476805 31.5924 0.527446 31.6684 0.628729C31.7443 0.70469 31.7696 0.805972 31.7443 0.932575L31.2126 5.4523Z" fill="white"/>
<path d="M38.0242 22.6956C35.9733 22.6956 34.3527 22.1892 33.1627 21.1764C31.9726 20.1636 31.3776 18.7709 31.3776 16.9985C31.3776 16.7959 31.4029 16.4415 31.4535 15.935L32.555 6.93356C32.8082 4.85727 33.6691 3.22409 35.1377 2.03402C36.6316 0.818633 38.518 0.210938 40.7968 0.210938C42.8478 0.210938 44.4683 0.73001 45.6584 1.76816C46.8738 2.8063 47.4815 4.23692 47.4815 6.06C47.4815 6.23724 47.4562 6.55375 47.4055 7.00952L47.2916 7.80712C47.2663 7.93372 47.203 8.04767 47.1017 8.14895C47.0257 8.22491 46.9244 8.26289 46.7978 8.26289H41.5565C41.4299 8.26289 41.3286 8.22491 41.2526 8.14895C41.1766 8.04767 41.1513 7.93372 41.1766 7.80712L41.2906 6.93356C41.3412 6.50311 41.2526 6.1866 41.0247 5.98404C40.8222 5.75615 40.5183 5.64221 40.1132 5.64221C39.2523 5.64221 38.7712 6.07266 38.6699 6.93356L37.5685 15.973C37.5178 16.4035 37.5811 16.7326 37.7584 16.9605C37.9609 17.1884 38.2648 17.3023 38.6699 17.3023C39.075 17.3023 39.4169 17.1884 39.6954 16.9605C39.9739 16.7326 40.1385 16.4035 40.1891 15.973L40.3411 14.6437C40.3411 14.5171 40.2904 14.4538 40.1891 14.4538H39.5435C39.4169 14.4538 39.3156 14.4158 39.2396 14.3398C39.1637 14.2386 39.1383 14.1246 39.1637 13.998L39.5815 10.5797C39.6068 10.4531 39.6574 10.3518 39.7334 10.2759C39.8347 10.1746 39.9486 10.124 40.0752 10.124H46.5699C46.6965 10.124 46.7978 10.1746 46.8738 10.2759C46.9497 10.3518 46.9751 10.4531 46.9497 10.5797L46.3041 15.935C46.0509 18.0113 45.1646 19.6572 43.6454 20.8726C42.1262 22.0879 40.2524 22.6956 38.0242 22.6956Z" fill="white"/>
<path d="M57.5435 22.4298C57.2649 22.4298 57.1257 22.2905 57.1257 22.012L57.0497 19.8091C57.075 19.7584 57.0624 19.7205 57.0117 19.6951C56.9611 19.6445 56.9104 19.6192 56.8598 19.6192H53.4035C53.2516 19.6192 53.163 19.6698 53.1377 19.7711L52.492 22.012C52.416 22.2905 52.2388 22.4298 51.9603 22.4298H46.7569C46.4277 22.4298 46.3138 22.2652 46.4151 21.936L53.9733 0.856614C54.0745 0.603408 54.2644 0.476805 54.543 0.476805H60.5439C60.8225 0.476805 60.9744 0.603408 60.9997 0.856614L63.3545 21.936V22.012C63.3545 22.2905 63.2026 22.4298 62.8988 22.4298H57.5435ZM54.7709 14.5677C54.7455 14.6943 54.8088 14.7576 54.9608 14.7576H56.7079C56.7838 14.7576 56.8471 14.6943 56.8978 14.5677L56.7459 8.94655C56.7205 8.87059 56.6826 8.83261 56.6319 8.83261C56.5813 8.83261 56.5433 8.87059 56.518 8.94655L54.7709 14.5677Z" fill="white"/>
<path d="M70.9193 22.6956C68.9443 22.6956 67.3617 22.2145 66.1717 21.2524C65.0069 20.2902 64.4245 19.0368 64.4245 17.4923C64.4245 17.1631 64.4372 16.9225 64.4625 16.7706L64.5765 15.973C64.6018 15.8464 64.6524 15.7451 64.7284 15.6692C64.8297 15.5679 64.9436 15.5172 65.0702 15.5172H70.2356C70.3622 15.5172 70.4635 15.5679 70.5395 15.6692C70.6154 15.7451 70.6407 15.8464 70.6154 15.973V16.049C70.5648 16.4541 70.6281 16.7706 70.8053 16.9985C70.9826 17.2264 71.2484 17.3403 71.6029 17.3403C71.9827 17.3403 72.2866 17.239 72.5145 17.0365C72.7423 16.8086 72.8563 16.5174 72.8563 16.1629C72.8563 15.8338 72.679 15.5046 72.3246 15.1754C71.9701 14.8209 71.3877 14.3398 70.5774 13.7321C69.5899 12.9978 68.7797 12.3268 68.1467 11.7192C67.2858 10.9089 66.6274 10.1619 66.1717 9.47828C65.7412 8.7693 65.526 7.99703 65.526 7.16145C65.526 6.90824 65.5386 6.71833 65.564 6.59173C65.7918 4.69269 66.6401 3.16079 68.1087 1.99604C69.5773 0.805972 71.4004 0.210938 73.5779 0.210938C75.5529 0.210938 77.1228 0.71735 78.2876 1.73017C79.4776 2.71768 80.0727 4.03435 80.0727 5.68019C80.0727 6.06 80.06 6.33853 80.0347 6.51577L79.9967 6.81962C79.9714 6.94622 79.9081 7.06016 79.8068 7.16145C79.7308 7.23741 79.6296 7.27539 79.503 7.27539H74.3755C74.2489 7.27539 74.1476 7.23741 74.0717 7.16145C73.9957 7.06016 73.9704 6.94622 73.9957 6.81962C74.021 6.46513 73.9324 6.1866 73.7299 5.98404C73.5273 5.75615 73.2488 5.64221 72.8943 5.64221C72.4892 5.64221 72.16 5.74349 71.9068 5.94606C71.6789 6.14862 71.5649 6.40183 71.5649 6.70567C71.5649 7.06016 71.7169 7.40199 72.0207 7.73116C72.3499 8.06033 72.7297 8.38949 73.1601 8.71866C73.6159 9.02251 73.9198 9.22507 74.0717 9.32636C75.1098 10.0353 75.9581 10.6557 76.6164 11.1874C77.2747 11.7192 77.8445 12.3648 78.3255 13.1244C78.8066 13.8841 79.0472 14.745 79.0472 15.7072C79.0472 15.9857 79.0345 16.2009 79.0092 16.3528C78.756 18.3025 77.8824 19.8471 76.3885 20.9865C74.9199 22.1259 73.0968 22.6956 70.9193 22.6956Z" fill="white"/>
<path d="M80.3718 22.4298C80.2452 22.4298 80.1439 22.3918 80.0679 22.3158C79.992 22.2145 79.9666 22.1006 79.992 21.974L82.5747 0.932575C82.6 0.805972 82.6506 0.70469 82.7266 0.628729C82.8279 0.527446 82.9418 0.476805 83.0684 0.476805H88.3098C88.4364 0.476805 88.5377 0.527446 88.6136 0.628729C88.6896 0.70469 88.7149 0.805972 88.6896 0.932575L86.1069 21.974C86.0816 22.1006 86.0183 22.2145 85.917 22.3158C85.841 22.3918 85.7397 22.4298 85.6131 22.4298H80.3718Z" fill="white"/>
<path d="M100.799 0.932575C100.824 0.805972 100.875 0.70469 100.951 0.628729C101.052 0.527446 101.166 0.476805 101.292 0.476805H106.458C106.584 0.476805 106.686 0.527446 106.762 0.628729C106.838 0.70469 106.863 0.805972 106.838 0.932575L104.255 21.974C104.23 22.1006 104.166 22.2145 104.065 22.3158C103.989 22.3918 103.888 22.4298 103.761 22.4298H98.5198C98.2666 22.4298 98.1147 22.3158 98.064 22.0879L95.5193 12.9345C95.494 12.8586 95.456 12.8206 95.4054 12.8206C95.3547 12.8206 95.3168 12.8712 95.2914 12.9725L94.266 21.974C94.2406 22.1006 94.1773 22.2145 94.076 22.3158C94.0001 22.3918 93.8988 22.4298 93.7722 22.4298H88.5688C88.4422 22.4298 88.3409 22.3918 88.265 22.3158C88.189 22.2145 88.1637 22.1006 88.189 21.974L90.7717 0.932575C90.797 0.805972 90.8477 0.70469 90.9236 0.628729C91.0249 0.527446 91.1389 0.476805 91.2655 0.476805H96.4688C96.7221 0.476805 96.8866 0.590748 96.9626 0.818633L99.5073 10.01C99.5326 10.086 99.5706 10.124 99.6213 10.124C99.6719 10.124 99.7099 10.0733 99.7352 9.97203L100.799 0.932575Z" fill="white"/>
<path d="M113.581 22.6956C111.504 22.6956 109.871 22.1639 108.681 21.1004C107.491 20.037 106.896 18.5557 106.896 16.6567C106.896 16.4035 106.921 15.9983 106.972 15.4413L107.922 7.46529C108.2 5.18644 109.086 3.41399 110.58 2.14796C112.099 0.856613 114.024 0.210938 116.353 0.210938C118.43 0.210938 120.05 0.74267 121.215 1.80614C122.405 2.8696 123 4.35086 123 6.2499C123 6.50311 122.975 6.90824 122.924 7.46529L121.937 15.4413C121.658 17.7201 120.759 19.5052 119.24 20.7966C117.746 22.0626 115.86 22.6956 113.581 22.6956ZM114.226 17.3023C115.163 17.3023 115.682 16.7706 115.784 15.7072L116.847 7.19943C116.948 6.16128 116.556 5.64221 115.67 5.64221C114.758 5.64221 114.226 6.16128 114.074 7.19943L113.049 15.7072C113.024 15.8084 113.011 15.9477 113.011 16.1249C113.011 16.9099 113.416 17.3023 114.226 17.3023Z" fill="white"/>
</svg>
