<svg width="126" height="22" viewBox="0 0 126 22" fill="none" xmlns="http://www.w3.org/2000/svg">
<path d="M8.17901 5.74311C6.9405 5.74311 5.99151 6.1211 5.33204 6.87708C4.67257 7.63305 4.34284 8.70268 4.34284 10.086C4.34284 11.4853 4.70474 12.563 5.42855 13.319C6.16844 14.0749 7.15764 14.4529 8.39616 14.4529C9.05562 14.4529 9.61054 14.3645 10.0609 14.1875C10.5274 14.0106 10.9697 13.8095 11.3879 13.5844C11.6613 13.8095 11.8704 14.083 12.0152 14.4047C12.176 14.7103 12.2565 15.0722 12.2565 15.4904C12.2565 16.1498 11.8865 16.7128 11.1466 17.1793C10.4228 17.6296 9.31298 17.8548 7.81711 17.8548C6.73944 17.8548 5.72611 17.702 4.77712 17.3964C3.82813 17.0908 2.99978 16.6243 2.29205 15.997C1.58433 15.3537 1.02137 14.5494 0.603172 13.5844C0.201057 12.6032 0 11.4371 0 10.086C0 8.83136 0.193015 7.72956 0.579045 6.78057C0.98116 5.81549 1.51999 5.00322 2.19555 4.34375C2.88718 3.68429 3.69141 3.18566 4.60823 2.84789C5.52506 2.51011 6.50622 2.34122 7.55171 2.34122C9.0315 2.34122 10.1735 2.58249 10.9777 3.06503C11.798 3.54757 12.2082 4.16683 12.2082 4.9228C12.2082 5.341 12.1037 5.7029 11.8946 6.00851C11.6855 6.31412 11.4442 6.55539 11.1707 6.73232C10.7525 6.45888 10.3022 6.22565 9.81964 6.03264C9.35319 5.83962 8.80631 5.74311 8.17901 5.74311Z" fill="url(#paint0_linear_8612_111484)"/>
<path d="M17.1416 17.3964C16.9807 17.4447 16.7234 17.4929 16.3695 17.5412C16.0317 17.5894 15.6779 17.6135 15.3079 17.6135C14.9541 17.6135 14.6324 17.5894 14.3429 17.5412C14.0694 17.4929 13.8362 17.3964 13.6432 17.2516C13.4502 17.1069 13.2974 16.9139 13.1848 16.6726C13.0883 16.4152 13.04 16.0855 13.04 15.6834V8.44533C13.04 8.07538 13.1044 7.76173 13.233 7.50438C13.3778 7.23094 13.5788 6.98967 13.8362 6.78057C14.0936 6.57147 14.4072 6.3865 14.7772 6.22565C15.1632 6.04872 15.5733 5.89592 16.0076 5.76724C16.4419 5.63856 16.8923 5.54206 17.3587 5.47772C19.3423 5.05952 19.8087 5.01931 20.2752 5.01931C21.0472 5.01931 21.6585 5.17211 22.1088 5.47772C22.5592 5.76724 22.7844 6.24978 22.7844 6.92533C22.7844 7.15052 22.7522 7.3757 22.6879 7.60088C22.6235 7.80998 22.5431 8.003 22.4466 8.17993C22.1088 8.17993 21.763 8.19601 21.4092 8.22818C21.0553 8.26035 20.7095 8.30861 20.3717 8.37294C20.0339 8.43728 19.7122 8.50966 19.4066 8.59009C19.1171 8.65443 17.3507 9.07262 17.1416 9.16913V17.3964Z" fill="url(#paint1_linear_8612_111484)"/>
<path d="M24.2049 14.4288C24.028 14.0267 23.835 13.5763 23.6259 13.0777C23.4329 12.5791 23.2238 12.0081 22.9986 11.3647C22.7895 10.7213 22.5643 9.98945 22.323 9.16913C22.0978 8.33273 22.5321 10.0538 22.2748 8.97612C22.5 8.75093 22.7975 8.55792 23.1675 8.39707C23.5535 8.22014 23.9717 8.13168 24.4221 8.13168C24.985 8.13168 25.4515 8.25231 25.8214 8.49358C26.1914 8.71876 26.4648 9.15305 26.6417 9.79643L27.8722 13.7532H27.9687C28.1617 13.2064 28.3467 12.6112 28.5236 11.9679C28.7166 11.3245 28.9016 10.665 29.0785 9.98945C29.2555 9.29781 29.4163 8.61421 29.5611 7.93866C29.7219 7.24702 29.8586 6.57147 29.9712 5.912C30.5503 5.6064 31.1856 5.45359 31.8773 5.45359C32.4402 5.45359 32.9067 5.57423 33.2766 5.81549C33.6466 6.05676 33.8315 6.47496 33.8315 7.07009C33.8315 7.50438 33.7752 8.01104 33.6627 8.59009C33.5501 9.15305 33.3973 9.75622 33.2042 10.3996C33.0273 11.043 32.8102 11.7105 32.5528 12.4021C32.3116 13.0777 32.0542 13.7452 31.7808 14.4047C31.5073 15.0641 31.2258 15.6914 30.9363 16.2866C30.6468 16.8656 30.3653 17.3884 30.0919 17.8548C29.6415 18.643 29.2233 19.2863 28.8373 19.785C28.4513 20.2836 28.0813 20.6696 27.7274 20.9431C27.3736 21.2326 27.0197 21.4256 26.6659 21.5221C26.312 21.6347 25.9421 21.691 25.556 21.691C24.8805 21.691 24.3336 21.4899 23.9154 21.0878C23.4972 20.6857 23.2479 20.1629 23.1675 19.5196C23.6822 19.1175 24.1969 18.6671 24.7116 18.1685C25.2263 17.6859 25.6927 17.1873 26.1109 16.6726C25.8375 16.5922 25.5399 16.4072 25.2182 16.1177C24.9126 15.8121 24.5749 15.2491 24.2049 14.4288Z" fill="url(#paint2_linear_8612_111484)"/>
<path d="M44.5869 13.9221C44.5869 15.1446 44.1284 16.1016 43.2116 16.7932C42.2948 17.4849 40.9437 17.8307 39.1583 17.8307C38.4828 17.8307 37.8555 17.7824 37.2764 17.6859C36.6974 17.5894 36.1987 17.4447 35.7805 17.2516C35.3784 17.0425 35.0567 16.7852 34.8155 16.4796C34.5903 16.174 34.4777 15.8121 34.4777 15.3939C34.4777 15.0078 34.5581 14.6861 34.719 14.4288C34.8798 14.1554 35.0728 13.9302 35.298 13.7532C35.7645 14.0106 36.2952 14.2438 36.8904 14.4529C37.5016 14.6459 38.2013 14.7424 38.9894 14.7424C39.488 14.7424 39.866 14.6701 40.1234 14.5253C40.3968 14.3805 40.5335 14.1875 40.5335 13.9463C40.5335 13.7211 40.437 13.5441 40.244 13.4155C40.051 13.2868 39.7293 13.1822 39.2789 13.1018L38.5551 12.9571C37.1558 12.6836 36.1103 12.2574 35.4186 11.6783C34.7431 11.0832 34.4053 10.2388 34.4053 9.145C34.4053 8.54988 34.534 8.01104 34.7913 7.5285C35.0487 7.04597 35.4106 6.64385 35.877 6.32216C36.3435 6.00047 36.8984 5.75116 37.5418 5.57423C38.2013 5.3973 38.9251 5.30883 39.7132 5.30883C40.3084 5.30883 40.8633 5.35708 41.378 5.45359C41.9088 5.53401 42.3672 5.66269 42.7532 5.83962C43.1392 6.01655 43.4449 6.24978 43.67 6.5393C43.8952 6.81274 44.0078 7.14247 44.0078 7.5285C44.0078 7.89845 43.9354 8.22014 43.7907 8.49358C43.662 8.75093 43.4931 8.96807 43.284 9.145C43.1553 9.06458 42.9623 8.98416 42.705 8.90374C42.4476 8.80723 42.1661 8.72681 41.8605 8.66247C41.5549 8.58204 41.2413 8.51771 40.9196 8.46945C40.614 8.4212 40.3325 8.39707 40.0751 8.39707C39.5443 8.39707 39.1342 8.46141 38.8447 8.59009C38.5551 8.70268 38.4104 8.88765 38.4104 9.145C38.4104 9.32194 38.4908 9.4667 38.6516 9.57929C38.8125 9.69188 39.1181 9.79643 39.5685 9.89294L40.3164 10.0618C41.8605 10.4157 42.9543 10.9063 43.5977 11.5336C44.2571 12.1448 44.5869 12.941 44.5869 13.9221Z" fill="url(#paint3_linear_8612_111484)"/>
<path d="M49.7063 13.3913C49.7063 13.8095 49.835 14.1071 50.0923 14.284C50.3657 14.461 50.7437 14.5494 51.2263 14.5494C51.4675 14.5494 51.7169 14.5333 51.9742 14.5012C52.2316 14.4529 52.4567 14.3966 52.6498 14.3323C52.7945 14.5092 52.9152 14.7103 53.0117 14.9355C53.1243 15.1446 53.1805 15.4019 53.1805 15.7075C53.1805 16.3187 52.9473 16.8174 52.4809 17.2034C52.0305 17.5894 51.2263 17.7824 50.0682 17.7824C48.6527 17.7824 47.559 17.4607 46.7869 16.8174C46.0309 16.174 45.653 15.1285 45.653 13.6809V3.35455C45.8299 3.3063 46.0792 3.25805 46.4009 3.20979C46.7387 3.14545 47.0925 3.11328 47.4625 3.11328C48.1702 3.11328 48.7171 3.24196 49.1031 3.49931C49.5052 3.74058 49.7063 4.26333 49.7063 5.06756V6.61168H52.8669C52.9634 6.78861 53.0519 7.0138 53.1323 7.28723C53.2288 7.54459 53.2771 7.83411 53.2771 8.1558C53.2771 8.71876 53.1484 9.12892 52.891 9.38627C52.6498 9.62754 52.32 9.74818 51.9018 9.74818H49.7063V13.3913Z" fill="url(#paint4_linear_8612_111484)"/>
<path d="M59.3182 14.8148C59.5916 14.8148 59.8892 14.7907 60.2109 14.7424C60.5487 14.6781 60.798 14.5977 60.9588 14.5012V12.571L59.2217 12.7158C58.7713 12.748 58.4014 12.8445 58.1119 13.0053C57.8223 13.1662 57.6776 13.4074 57.6776 13.7291C57.6776 14.0508 57.7982 14.3162 58.0395 14.5253C58.2968 14.7183 58.7231 14.8148 59.3182 14.8148ZM59.1252 5.33296C59.9938 5.33296 60.7819 5.42142 61.4896 5.59835C62.2134 5.77528 62.8246 6.04872 63.3233 6.41867C63.838 6.77253 64.232 7.23094 64.5055 7.7939C64.7789 8.34078 64.9156 8.9922 64.9156 9.74818V15.1526C64.9156 15.5708 64.795 15.9166 64.5537 16.1901C64.3286 16.4474 64.0551 16.6726 63.7334 16.8656C62.6879 17.4929 61.2162 17.8066 59.3182 17.8066C58.4657 17.8066 57.6937 17.7261 57.002 17.5653C56.3265 17.4044 55.7394 17.1632 55.2408 16.8415C54.7582 16.5198 54.3802 16.1096 54.1068 15.611C53.8494 15.1124 53.7208 14.5333 53.7208 13.8739C53.7208 12.764 54.0505 11.9116 54.71 11.3164C55.3694 10.7213 56.3908 10.3513 57.7741 10.2066L60.9347 9.86881V9.69992C60.9347 9.23347 60.7256 8.90374 60.3074 8.71072C59.9053 8.50162 59.3182 8.39707 58.5461 8.39707C57.9349 8.39707 57.3398 8.46141 56.7608 8.59009C56.1817 8.71876 55.659 8.87961 55.1925 9.07262C54.9834 8.92786 54.8065 8.71072 54.6617 8.4212C54.517 8.11559 54.4446 7.80194 54.4446 7.48025C54.4446 7.06205 54.5411 6.73232 54.7341 6.49105C54.9432 6.23369 55.2568 6.01655 55.675 5.83962C56.1415 5.66269 56.6884 5.53401 57.3157 5.45359C57.9591 5.37317 58.5622 5.33296 59.1252 5.33296Z" fill="url(#paint5_linear_8612_111484)"/>
<path d="M70.6324 17.3964C70.4555 17.4286 70.1901 17.4688 69.8362 17.517C69.4984 17.5814 69.1526 17.6135 68.7987 17.6135C68.4449 17.6135 68.1232 17.5894 67.8337 17.5412C67.5602 17.4929 67.327 17.3964 67.134 17.2516C66.941 17.1069 66.7882 16.9139 66.6756 16.6726C66.5791 16.4152 66.5308 16.0855 66.5308 15.6834V1.6898C66.7077 1.65763 66.9651 1.61742 67.3029 1.56916C67.6567 1.50483 68.0106 1.47266 68.3645 1.47266C68.7183 1.47266 69.032 1.49678 69.3054 1.54504C69.5949 1.59329 69.8362 1.6898 70.0292 1.83456C70.2222 1.97932 70.367 2.18038 70.4635 2.43773C70.5761 2.679 70.6324 3.00069 70.6324 3.40281V17.3964Z" fill="url(#paint6_linear_8612_111484)"/>
<path d="M80.584 11.6059C79.8763 11.3647 79.2329 11.1234 78.6538 10.8821C78.0748 10.6248 77.5762 10.3192 77.158 9.96532C76.7398 9.61146 76.41 9.19326 76.1688 8.71072C75.9436 8.2121 75.831 7.60893 75.831 6.90121C75.831 5.53401 76.3537 4.44026 77.3992 3.61995C78.4608 2.79963 79.9406 2.38948 81.8386 2.38948C82.5302 2.38948 83.1736 2.43773 83.7687 2.53424C84.3639 2.63075 84.8705 2.78355 85.2887 2.99265C85.723 3.18566 86.0608 3.44302 86.302 3.76471C86.5433 4.07032 86.6639 4.43222 86.6639 4.85042C86.6639 5.26862 86.5674 5.63052 86.3744 5.93613C86.1814 6.22565 85.9482 6.47496 85.6747 6.68406C85.3209 6.45888 84.8464 6.26586 84.2513 6.10502C83.6561 5.92809 83.0047 5.83962 82.297 5.83962C81.5732 5.83962 81.0424 5.94417 80.7046 6.15327C80.3668 6.34629 80.1979 6.5956 80.1979 6.90121C80.1979 7.14247 80.3025 7.34353 80.5116 7.50438C80.7207 7.64914 81.0343 7.78586 81.4525 7.91453L82.7313 8.32469C84.2432 8.80723 85.4013 9.42649 86.2055 10.1825C87.0259 10.9224 87.436 11.9357 87.436 13.2224C87.436 14.5896 86.8972 15.6995 85.8195 16.552C84.7418 17.3884 83.1575 17.8066 81.0665 17.8066C80.3266 17.8066 79.635 17.7422 78.9916 17.6135C78.3643 17.5009 77.8094 17.3321 77.3268 17.1069C76.8604 16.8656 76.4904 16.5761 76.217 16.2383C75.9597 15.8844 75.831 15.4823 75.831 15.032C75.831 14.5655 75.9677 14.1714 76.2411 13.8497C76.5146 13.512 76.8121 13.2546 77.1338 13.0777C77.5842 13.4315 78.1311 13.7372 78.7745 13.9945C79.4339 14.2519 80.1497 14.3805 80.9218 14.3805C81.7099 14.3805 82.2648 14.2599 82.5865 14.0186C82.9082 13.7774 83.069 13.4959 83.069 13.1742C83.069 12.8525 82.9404 12.6112 82.683 12.4504C82.4257 12.2735 82.0638 12.1046 81.5973 11.9437L80.584 11.6059Z" fill="url(#paint7_linear_8612_111484)"/>
<path d="M92.618 17.3964C92.4411 17.4286 92.1757 17.4688 91.8218 17.517C91.484 17.5814 91.1382 17.6135 90.7844 17.6135C90.4305 17.6135 90.1088 17.5894 89.8193 17.5412C89.5459 17.4929 89.3126 17.3964 89.1196 17.2516C88.9266 17.1069 88.7738 16.9139 88.6612 16.6726C88.5647 16.4152 88.5164 16.0855 88.5164 15.6834V1.6898C88.6934 1.65763 88.9507 1.61742 89.2885 1.56916C89.6424 1.50483 89.9962 1.47266 90.3501 1.47266C90.7039 1.47266 91.0176 1.49678 91.291 1.54504C91.5806 1.59329 91.8218 1.6898 92.0148 1.83456C92.2079 1.97932 92.3526 2.18038 92.4491 2.43773C92.5617 2.679 92.618 3.00069 92.618 3.40281V17.3964Z" fill="url(#paint8_linear_8612_111484)"/>
<path d="M106.377 11.5577C106.377 12.5549 106.224 13.4476 105.919 14.2358C105.613 15.0078 105.179 15.6593 104.616 16.1901C104.069 16.7208 103.409 17.123 102.637 17.3964C101.865 17.6698 101.005 17.8066 100.056 17.8066C99.1067 17.8066 98.2462 17.6618 97.4741 17.3723C96.702 17.0828 96.0345 16.6726 95.4716 16.1418C94.9247 15.5949 94.4985 14.9355 94.1929 14.1634C93.8873 13.3913 93.7345 12.5228 93.7345 11.5577C93.7345 10.6087 93.8873 9.74818 94.1929 8.97612C94.4985 8.20406 94.9247 7.55263 95.4716 7.02184C96.0345 6.47496 96.702 6.05676 97.4741 5.76724C98.2462 5.47772 99.1067 5.33296 100.056 5.33296C101.005 5.33296 101.865 5.48576 102.637 5.79137C103.409 6.08089 104.069 6.49909 104.616 7.04597C105.179 7.57676 105.613 8.22818 105.919 9.00024C106.224 9.7723 106.377 10.6248 106.377 11.5577ZM97.9325 11.5577C97.9325 12.5389 98.1175 13.2948 98.4874 13.8256C98.8735 14.3403 99.4043 14.5977 100.08 14.5977C100.755 14.5977 101.27 14.3323 101.624 13.8015C101.994 13.2707 102.179 12.5228 102.179 11.5577C102.179 10.5926 101.994 9.85273 101.624 9.33802C101.254 8.80723 100.731 8.54183 100.056 8.54183C99.3801 8.54183 98.8574 8.80723 98.4874 9.33802C98.1175 9.85273 97.9325 10.5926 97.9325 11.5577Z" fill="url(#paint9_linear_8612_111484)"/>
<path d="M111.514 13.3913C111.514 13.8095 111.643 14.1071 111.9 14.284C112.174 14.461 112.552 14.5494 113.034 14.5494C113.276 14.5494 113.525 14.5333 113.782 14.5012C114.04 14.4529 114.265 14.3966 114.458 14.3323C114.603 14.5092 114.723 14.7103 114.82 14.9355C114.932 15.1446 114.989 15.4019 114.989 15.7075C114.989 16.3187 114.755 16.8174 114.289 17.2034C113.839 17.5894 113.034 17.7824 111.876 17.7824C110.461 17.7824 109.367 17.4607 108.595 16.8174C107.839 16.174 107.461 15.1285 107.461 13.6809V3.35455C107.638 3.3063 107.887 3.25805 108.209 3.20979C108.547 3.14545 108.901 3.11328 109.271 3.11328C109.978 3.11328 110.525 3.24196 110.911 3.49931C111.313 3.74058 111.514 4.26333 111.514 5.06756V6.61168H114.675C114.772 6.78861 114.86 7.0138 114.94 7.28723C115.037 7.54459 115.085 7.83411 115.085 8.1558C115.085 8.71876 114.957 9.12892 114.699 9.38627C114.458 9.62754 114.128 9.74818 113.71 9.74818H111.514V13.3913Z" fill="url(#paint10_linear_8612_111484)"/>
<path d="M126 13.9221C126 15.1446 125.542 16.1016 124.625 16.7932C123.708 17.4849 122.357 17.8307 120.571 17.8307C119.896 17.8307 119.269 17.7824 118.69 17.6859C118.111 17.5894 117.612 17.4447 117.194 17.2516C116.792 17.0425 116.47 16.7852 116.229 16.4796C116.003 16.174 115.891 15.8121 115.891 15.3939C115.891 15.0078 115.971 14.6861 116.132 14.4288C116.293 14.1554 116.486 13.9302 116.711 13.7532C117.178 14.0106 117.708 14.2438 118.304 14.4529C118.915 14.6459 119.614 14.7424 120.403 14.7424C120.901 14.7424 121.279 14.6701 121.537 14.5253C121.81 14.3805 121.947 14.1875 121.947 13.9463C121.947 13.7211 121.85 13.5441 121.657 13.4155C121.464 13.2868 121.142 13.1822 120.692 13.1018L119.968 12.9571C118.569 12.6836 117.523 12.2574 116.832 11.6783C116.156 11.0832 115.818 10.2388 115.818 9.145C115.818 8.54988 115.947 8.01104 116.204 7.5285C116.462 7.04597 116.824 6.64385 117.29 6.32216C117.757 6.00047 118.312 5.75116 118.955 5.57423C119.614 5.3973 120.338 5.30883 121.126 5.30883C121.722 5.30883 122.276 5.35708 122.791 5.45359C123.322 5.53401 123.78 5.66269 124.166 5.83962C124.552 6.01655 124.858 6.24978 125.083 6.5393C125.308 6.81274 125.421 7.14247 125.421 7.5285C125.421 7.89845 125.349 8.22014 125.204 8.49358C125.075 8.75093 124.906 8.96807 124.697 9.145C124.568 9.06458 124.375 8.98416 124.118 8.90374C123.861 8.80723 123.579 8.72681 123.274 8.66247C122.968 8.58204 122.654 8.51771 122.333 8.46945C122.027 8.4212 121.746 8.39707 121.488 8.39707C120.957 8.39707 120.547 8.46141 120.258 8.59009C119.968 8.70268 119.824 8.88765 119.824 9.145C119.824 9.32194 119.904 9.4667 120.065 9.57929C120.226 9.69188 120.531 9.79643 120.982 9.89294L121.73 10.0618C123.274 10.4157 124.367 10.9063 125.011 11.5336C125.67 12.1448 126 12.941 126 13.9221Z" fill="url(#paint11_linear_8612_111484)"/>
<path d="M8.17901 4.57905C6.9405 4.57905 5.99151 4.95704 5.33204 5.71302C4.67257 6.46899 4.34284 7.53862 4.34284 8.92189C4.34284 10.3212 4.70474 11.3989 5.42855 12.1549C6.16844 12.9109 7.15764 13.2889 8.39616 13.2889C9.05562 13.2889 9.61054 13.2004 10.0609 13.0235C10.5274 12.8465 10.9697 12.6455 11.3879 12.4203C11.6613 12.6455 11.8704 12.9189 12.0152 13.2406C12.176 13.5462 12.2565 13.9081 12.2565 14.3263C12.2565 14.9858 11.8865 15.5487 11.1466 16.0152C10.4228 16.4656 9.31298 16.6907 7.81711 16.6907C6.73944 16.6907 5.72611 16.5379 4.77712 16.2323C3.82813 15.9267 2.99978 15.4603 2.29205 14.833C1.58433 14.1896 1.02137 13.3854 0.603172 12.4203C0.201057 11.4391 0 10.273 0 8.92189C0 7.66729 0.193015 6.5655 0.579045 5.61651C0.98116 4.65143 1.51999 3.83916 2.19555 3.17969C2.88718 2.52022 3.69141 2.0216 4.60823 1.68383C5.52506 1.34605 6.50622 1.17716 7.55171 1.17716C9.0315 1.17716 10.1735 1.41843 10.9777 1.90097C11.798 2.38351 12.2082 3.00276 12.2082 3.75874C12.2082 4.17694 12.1037 4.53884 11.8946 4.84445C11.6855 5.15005 11.4442 5.39132 11.1707 5.56825C10.7525 5.29482 10.3022 5.06159 9.81964 4.86857C9.35319 4.67556 8.80631 4.57905 8.17901 4.57905Z" fill="url(#paint12_linear_8612_111484)"/>
<path d="M17.1416 16.2323C16.9807 16.2806 16.7234 16.3288 16.3695 16.3771C16.0317 16.4254 15.6779 16.4495 15.3079 16.4495C14.9541 16.4495 14.6324 16.4254 14.3429 16.3771C14.0694 16.3288 13.8362 16.2323 13.6432 16.0876C13.4502 15.9428 13.2974 15.7498 13.1848 15.5085C13.0883 15.2512 13.04 14.9214 13.04 14.5193V7.28126C13.04 6.91132 13.1044 6.59767 13.233 6.34031C13.3778 6.06688 13.5788 5.82561 13.8362 5.61651C14.0936 5.40741 14.4072 5.22244 14.7772 5.06159C15.1632 4.88466 15.5733 4.73186 16.0076 4.60318C16.4419 4.4745 16.8923 4.37799 17.3587 4.31366C19.3423 3.89546 19.8087 3.85525 20.2752 3.85525C21.0472 3.85525 21.6585 4.00805 22.1088 4.31366C22.5592 4.60318 22.7844 5.08572 22.7844 5.76127C22.7844 5.98645 22.7522 6.21164 22.6879 6.43682C22.6235 6.64592 22.5431 6.83894 22.4466 7.01587C22.1088 7.01587 21.763 7.03195 21.4092 7.06412C21.0553 7.09629 20.7095 7.14454 20.3717 7.20888C20.0339 7.27322 19.7122 7.3456 19.4066 7.42602C19.1171 7.49036 17.3507 7.90856 17.1416 8.00507V16.2323Z" fill="url(#paint13_linear_8612_111484)"/>
<path d="M24.2049 13.2647C24.028 12.8626 23.835 12.4122 23.6259 11.9136C23.4329 11.415 23.2238 10.844 22.9986 10.2006C22.7895 9.55723 22.5643 8.82538 22.323 8.00507C22.0978 7.16867 22.5321 8.88972 22.2748 7.81205C22.5 7.58687 22.7975 7.39385 23.1675 7.23301C23.5535 7.05608 23.9717 6.96761 24.4221 6.96761C24.985 6.96761 25.4515 7.08825 25.8214 7.32952C26.1914 7.5547 26.4648 7.98898 26.6417 8.63237L27.8722 12.5892H27.9687C28.1617 12.0423 28.3467 11.4472 28.5236 10.8038C28.7166 10.1604 28.9016 9.50094 29.0785 8.82538C29.2555 8.13375 29.4163 7.45015 29.5611 6.7746C29.7219 6.08296 29.8586 5.40741 29.9712 4.74794C30.5503 4.44233 31.1856 4.28953 31.8773 4.28953C32.4402 4.28953 32.9067 4.41016 33.2766 4.65143C33.6466 4.8927 33.8315 5.3109 33.8315 5.90603C33.8315 6.34031 33.7752 6.84698 33.6627 7.42602C33.5501 7.98898 33.3973 8.59216 33.2042 9.23554C33.0273 9.87892 32.8102 10.5464 32.5528 11.2381C32.3116 11.9136 32.0542 12.5811 31.7808 13.2406C31.5073 13.9001 31.2258 14.5274 30.9363 15.1225C30.6468 15.7015 30.3653 16.2243 30.0919 16.6907C29.6415 17.4789 29.2233 18.1223 28.8373 18.6209C28.4513 19.1195 28.0813 19.5056 27.7274 19.779C27.3736 20.0685 27.0197 20.2615 26.6659 20.358C26.312 20.4706 25.9421 20.5269 25.556 20.5269C24.8805 20.5269 24.3336 20.3259 23.9154 19.9237C23.4972 19.5216 23.2479 18.9989 23.1675 18.3555C23.6822 17.9534 24.1969 17.503 24.7116 17.0044C25.2263 16.5219 25.6927 16.0232 26.1109 15.5085C25.8375 15.4281 25.5399 15.2431 25.2182 14.9536C24.9126 14.648 24.5749 14.085 24.2049 13.2647Z" fill="url(#paint14_linear_8612_111484)"/>
<path d="M44.5869 12.7581C44.5869 13.9805 44.1284 14.9375 43.2116 15.6292C42.2948 16.3208 40.9437 16.6666 39.1583 16.6666C38.4828 16.6666 37.8555 16.6184 37.2764 16.5219C36.6974 16.4254 36.1987 16.2806 35.7805 16.0876C35.3784 15.8785 35.0567 15.6211 34.8155 15.3155C34.5903 15.0099 34.4777 14.648 34.4777 14.2298C34.4777 13.8438 34.5581 13.5221 34.719 13.2647C34.8798 12.9913 35.0728 12.7661 35.298 12.5892C35.7645 12.8465 36.2952 13.0798 36.8904 13.2889C37.5016 13.4819 38.2013 13.5784 38.9894 13.5784C39.488 13.5784 39.866 13.506 40.1234 13.3612C40.3968 13.2165 40.5335 13.0235 40.5335 12.7822C40.5335 12.557 40.437 12.3801 40.244 12.2514C40.051 12.1227 39.7293 12.0182 39.2789 11.9378L38.5551 11.793C37.1558 11.5196 36.1103 11.0933 35.4186 10.5143C34.7431 9.91914 34.4053 9.07469 34.4053 7.98094C34.4053 7.38581 34.534 6.84698 34.7913 6.36444C35.0487 5.8819 35.4106 5.47979 35.877 5.1581C36.3435 4.83641 36.8984 4.58709 37.5418 4.41016C38.2013 4.23323 38.9251 4.14477 39.7132 4.14477C40.3084 4.14477 40.8633 4.19302 41.378 4.28953C41.9088 4.36995 42.3672 4.49863 42.7532 4.67556C43.1392 4.85249 43.4449 5.08572 43.67 5.37524C43.8952 5.64868 44.0078 5.97841 44.0078 6.36444C44.0078 6.73439 43.9354 7.05608 43.7907 7.32952C43.662 7.58687 43.4931 7.80401 43.284 7.98094C43.1553 7.90052 42.9623 7.8201 42.705 7.73967C42.4476 7.64317 42.1661 7.56274 41.8605 7.49841C41.5549 7.41798 41.2413 7.35364 40.9196 7.30539C40.614 7.25714 40.3325 7.23301 40.0751 7.23301C39.5443 7.23301 39.1342 7.29735 38.8447 7.42602C38.5551 7.53862 38.4104 7.72359 38.4104 7.98094C38.4104 8.15787 38.4908 8.30263 38.6516 8.41523C38.8125 8.52782 39.1181 8.63237 39.5685 8.72888L40.3164 8.89776C41.8605 9.25163 42.9543 9.7422 43.5977 10.3695C44.2571 10.9807 44.5869 11.7769 44.5869 12.7581Z" fill="url(#paint15_linear_8612_111484)"/>
<path d="M49.7063 12.2273C49.7063 12.6455 49.835 12.943 50.0923 13.12C50.3657 13.2969 50.7437 13.3854 51.2263 13.3854C51.4675 13.3854 51.7169 13.3693 51.9742 13.3371C52.2316 13.2889 52.4567 13.2326 52.6498 13.1682C52.7945 13.3452 52.9152 13.5462 53.0117 13.7714C53.1243 13.9805 53.1805 14.2378 53.1805 14.5435C53.1805 15.1547 52.9473 15.6533 52.4809 16.0393C52.0305 16.4254 51.2263 16.6184 50.0682 16.6184C48.6527 16.6184 47.559 16.2967 46.7869 15.6533C46.0309 15.0099 45.653 13.9644 45.653 12.5168V2.19049C45.8299 2.14224 46.0792 2.09398 46.4009 2.04573C46.7387 1.98139 47.0925 1.94922 47.4625 1.94922C48.1702 1.94922 48.7171 2.0779 49.1031 2.33525C49.5052 2.57652 49.7063 3.09927 49.7063 3.9035V5.44762H52.8669C52.9634 5.62455 53.0519 5.84973 53.1323 6.12317C53.2288 6.38053 53.2771 6.67005 53.2771 6.99174C53.2771 7.5547 53.1484 7.96486 52.891 8.22221C52.6498 8.46348 52.32 8.58412 51.9018 8.58412H49.7063V12.2273Z" fill="url(#paint16_linear_8612_111484)"/>
<path d="M59.3182 13.6508C59.5916 13.6508 59.8892 13.6266 60.2109 13.5784C60.5487 13.514 60.798 13.4336 60.9588 13.3371V11.407L59.2217 11.5517C58.7713 11.5839 58.4014 11.6804 58.1119 11.8412C57.8223 12.0021 57.6776 12.2434 57.6776 12.5651C57.6776 12.8867 57.7982 13.1521 58.0395 13.3612C58.2968 13.5543 58.7231 13.6508 59.3182 13.6508ZM59.1252 4.16889C59.9938 4.16889 60.7819 4.25736 61.4896 4.43429C62.2134 4.61122 62.8246 4.88466 63.3233 5.2546C63.838 5.60847 64.232 6.06688 64.5055 6.62984C64.7789 7.17671 64.9156 7.82814 64.9156 8.58412V13.9885C64.9156 14.4067 64.795 14.7526 64.5537 15.026C64.3286 15.2833 64.0551 15.5085 63.7334 15.7015C62.6879 16.3288 61.2162 16.6425 59.3182 16.6425C58.4657 16.6425 57.6937 16.5621 57.002 16.4012C56.3265 16.2404 55.7394 15.9991 55.2408 15.6774C54.7582 15.3557 54.3802 14.9456 54.1068 14.4469C53.8494 13.9483 53.7208 13.3693 53.7208 12.7098C53.7208 11.6 54.0505 10.7475 54.71 10.1524C55.3694 9.55723 56.3908 9.18729 57.7741 9.04253L60.9347 8.70475V8.53586C60.9347 8.06941 60.7256 7.73967 60.3074 7.54666C59.9053 7.33756 59.3182 7.23301 58.5461 7.23301C57.9349 7.23301 57.3398 7.29735 56.7608 7.42602C56.1817 7.5547 55.659 7.71555 55.1925 7.90856C54.9834 7.7638 54.8065 7.54666 54.6617 7.25714C54.517 6.95153 54.4446 6.63788 54.4446 6.31619C54.4446 5.89799 54.5411 5.56825 54.7341 5.32699C54.9432 5.06963 55.2568 4.85249 55.675 4.67556C56.1415 4.49863 56.6884 4.36995 57.3157 4.28953C57.9591 4.20911 58.5622 4.16889 59.1252 4.16889Z" fill="url(#paint17_linear_8612_111484)"/>
<path d="M70.6324 16.2323C70.4555 16.2645 70.1901 16.3047 69.8362 16.353C69.4984 16.4173 69.1526 16.4495 68.7987 16.4495C68.4449 16.4495 68.1232 16.4254 67.8337 16.3771C67.5602 16.3288 67.327 16.2323 67.134 16.0876C66.941 15.9428 66.7882 15.7498 66.6756 15.5085C66.5791 15.2512 66.5308 14.9214 66.5308 14.5193V0.525736C66.7077 0.493566 66.9651 0.453355 67.3029 0.405101C67.6567 0.340763 68.0106 0.308594 68.3645 0.308594C68.7183 0.308594 69.032 0.33272 69.3054 0.380973C69.5949 0.429228 69.8362 0.525735 70.0292 0.670497C70.2222 0.815258 70.367 1.01632 70.4635 1.27367C70.5761 1.51494 70.6324 1.83663 70.6324 2.23874V16.2323Z" fill="url(#paint18_linear_8612_111484)"/>
<path d="M80.584 10.4419C79.8763 10.2006 79.2329 9.95935 78.6538 9.71808C78.0748 9.46072 77.5762 9.15512 77.158 8.80126C76.7398 8.4474 76.41 8.0292 76.1688 7.54666C75.9436 7.04804 75.831 6.44486 75.831 5.73714C75.831 4.36995 76.3537 3.2762 77.3992 2.45589C78.4608 1.63557 79.9406 1.22541 81.8386 1.22541C82.5302 1.22541 83.1736 1.27367 83.7687 1.37018C84.3639 1.46668 84.8705 1.61949 85.2887 1.82859C85.723 2.0216 86.0608 2.27896 86.302 2.60065C86.5433 2.90625 86.6639 3.26816 86.6639 3.68636C86.6639 4.10456 86.5674 4.46646 86.3744 4.77207C86.1814 5.06159 85.9482 5.3109 85.6747 5.52C85.3209 5.29482 84.8464 5.1018 84.2513 4.94096C83.6561 4.76402 83.0047 4.67556 82.297 4.67556C81.5732 4.67556 81.0424 4.78011 80.7046 4.98921C80.3668 5.18222 80.1979 5.43154 80.1979 5.73714C80.1979 5.97841 80.3025 6.17947 80.5116 6.34031C80.7207 6.48508 81.0343 6.62179 81.4525 6.75047L82.7313 7.16063C84.2432 7.64317 85.4013 8.26242 86.2055 9.0184C87.0259 9.75829 87.436 10.7716 87.436 12.0584C87.436 13.4256 86.8972 14.5354 85.8195 15.3879C84.7418 16.2243 83.1575 16.6425 81.0665 16.6425C80.3266 16.6425 79.635 16.5782 78.9916 16.4495C78.3643 16.3369 77.8094 16.168 77.3268 15.9428C76.8604 15.7015 76.4904 15.412 76.217 15.0742C75.9597 14.7204 75.831 14.3183 75.831 13.8679C75.831 13.4014 75.9677 13.0074 76.2411 12.6857C76.5146 12.3479 76.8121 12.0906 77.1338 11.9136C77.5842 12.2675 78.1311 12.5731 78.7745 12.8304C79.4339 13.0878 80.1497 13.2165 80.9218 13.2165C81.7099 13.2165 82.2648 13.0958 82.5865 12.8546C82.9082 12.6133 83.069 12.3318 83.069 12.0101C83.069 11.6884 82.9404 11.4472 82.683 11.2863C82.4257 11.1094 82.0638 10.9405 81.5973 10.7797L80.584 10.4419Z" fill="url(#paint19_linear_8612_111484)"/>
<path d="M92.618 16.2323C92.4411 16.2645 92.1757 16.3047 91.8218 16.353C91.484 16.4173 91.1382 16.4495 90.7844 16.4495C90.4305 16.4495 90.1088 16.4254 89.8193 16.3771C89.5459 16.3288 89.3126 16.2323 89.1196 16.0876C88.9266 15.9428 88.7738 15.7498 88.6612 15.5085C88.5647 15.2512 88.5164 14.9214 88.5164 14.5193V0.525736C88.6934 0.493566 88.9507 0.453355 89.2885 0.405101C89.6424 0.340763 89.9962 0.308594 90.3501 0.308594C90.7039 0.308594 91.0176 0.33272 91.291 0.380973C91.5806 0.429228 91.8218 0.525735 92.0148 0.670497C92.2079 0.815258 92.3526 1.01632 92.4491 1.27367C92.5617 1.51494 92.618 1.83663 92.618 2.23874V16.2323Z" fill="url(#paint20_linear_8612_111484)"/>
<path d="M106.377 10.3936C106.377 11.3909 106.224 12.2836 105.919 13.0717C105.613 13.8438 105.179 14.4952 104.616 15.026C104.069 15.5568 103.409 15.9589 102.637 16.2323C101.865 16.5058 101.005 16.6425 100.056 16.6425C99.1067 16.6425 98.2462 16.4977 97.4741 16.2082C96.702 15.9187 96.0345 15.5085 95.4716 14.9777C94.9247 14.4309 94.4985 13.7714 94.1929 12.9993C93.8873 12.2273 93.7345 11.3587 93.7345 10.3936C93.7345 9.44464 93.8873 8.58411 94.1929 7.81205C94.4985 7.03999 94.9247 6.38857 95.4716 5.85778C96.0345 5.3109 96.702 4.8927 97.4741 4.60318C98.2462 4.31366 99.1067 4.16889 100.056 4.16889C101.005 4.16889 101.865 4.3217 102.637 4.62731C103.409 4.91683 104.069 5.33503 104.616 5.8819C105.179 6.41269 105.613 7.06412 105.919 7.83618C106.224 8.60824 106.377 9.46072 106.377 10.3936ZM97.9325 10.3936C97.9325 11.3748 98.1175 12.1308 98.4874 12.6616C98.8735 13.1763 99.4043 13.4336 100.08 13.4336C100.755 13.4336 101.27 13.1682 101.624 12.6374C101.994 12.1066 102.179 11.3587 102.179 10.3936C102.179 9.42856 101.994 8.68867 101.624 8.17396C101.254 7.64317 100.731 7.37777 100.056 7.37777C99.3801 7.37777 98.8574 7.64317 98.4874 8.17396C98.1175 8.68867 97.9325 9.42856 97.9325 10.3936Z" fill="url(#paint21_linear_8612_111484)"/>
<path d="M111.514 12.2273C111.514 12.6455 111.643 12.943 111.9 13.12C112.174 13.2969 112.552 13.3854 113.034 13.3854C113.276 13.3854 113.525 13.3693 113.782 13.3371C114.04 13.2889 114.265 13.2326 114.458 13.1682C114.603 13.3452 114.723 13.5462 114.82 13.7714C114.932 13.9805 114.989 14.2378 114.989 14.5435C114.989 15.1547 114.755 15.6533 114.289 16.0393C113.839 16.4254 113.034 16.6184 111.876 16.6184C110.461 16.6184 109.367 16.2967 108.595 15.6533C107.839 15.0099 107.461 13.9644 107.461 12.5168V2.19049C107.638 2.14224 107.887 2.09398 108.209 2.04573C108.547 1.98139 108.901 1.94922 109.271 1.94922C109.978 1.94922 110.525 2.0779 110.911 2.33525C111.313 2.57652 111.514 3.09927 111.514 3.9035V5.44762H114.675C114.772 5.62455 114.86 5.84973 114.94 6.12317C115.037 6.38053 115.085 6.67005 115.085 6.99174C115.085 7.5547 114.957 7.96486 114.699 8.22221C114.458 8.46348 114.128 8.58412 113.71 8.58412H111.514V12.2273Z" fill="url(#paint22_linear_8612_111484)"/>
<path d="M126 12.7581C126 13.9805 125.542 14.9375 124.625 15.6292C123.708 16.3208 122.357 16.6666 120.571 16.6666C119.896 16.6666 119.269 16.6184 118.69 16.5219C118.111 16.4254 117.612 16.2806 117.194 16.0876C116.792 15.8785 116.47 15.6211 116.229 15.3155C116.003 15.0099 115.891 14.648 115.891 14.2298C115.891 13.8438 115.971 13.5221 116.132 13.2647C116.293 12.9913 116.486 12.7661 116.711 12.5892C117.178 12.8465 117.708 13.0798 118.304 13.2889C118.915 13.4819 119.614 13.5784 120.403 13.5784C120.901 13.5784 121.279 13.506 121.537 13.3612C121.81 13.2165 121.947 13.0235 121.947 12.7822C121.947 12.557 121.85 12.3801 121.657 12.2514C121.464 12.1227 121.142 12.0182 120.692 11.9378L119.968 11.793C118.569 11.5196 117.523 11.0933 116.832 10.5143C116.156 9.91914 115.818 9.07469 115.818 7.98094C115.818 7.38581 115.947 6.84698 116.204 6.36444C116.462 5.8819 116.824 5.47979 117.29 5.1581C117.757 4.83641 118.312 4.58709 118.955 4.41016C119.614 4.23323 120.338 4.14477 121.126 4.14477C121.722 4.14477 122.276 4.19302 122.791 4.28953C123.322 4.36995 123.78 4.49863 124.166 4.67556C124.552 4.85249 124.858 5.08572 125.083 5.37524C125.308 5.64868 125.421 5.97841 125.421 6.36444C125.421 6.73439 125.349 7.05608 125.204 7.32952C125.075 7.58687 124.906 7.80401 124.697 7.98094C124.568 7.90052 124.375 7.8201 124.118 7.73967C123.861 7.64317 123.579 7.56274 123.274 7.49841C122.968 7.41798 122.654 7.35364 122.333 7.30539C122.027 7.25714 121.746 7.23301 121.488 7.23301C120.957 7.23301 120.547 7.29735 120.258 7.42602C119.968 7.53862 119.824 7.72359 119.824 7.98094C119.824 8.15787 119.904 8.30263 120.065 8.41523C120.226 8.52782 120.531 8.63237 120.982 8.72888L121.73 8.89776C123.274 9.25163 124.367 9.7422 125.011 10.3695C125.67 10.9807 126 11.7769 126 12.7581Z" fill="url(#paint23_linear_8612_111484)"/>
<defs>
<linearGradient id="paint0_linear_8612_111484" x1="63" y1="1.47266" x2="63" y2="21.691" gradientUnits="userSpaceOnUse">
<stop stop-color="#9D1D9D"/>
<stop offset="1" stop-color="#72004C"/>
</linearGradient>
<linearGradient id="paint1_linear_8612_111484" x1="63" y1="1.47266" x2="63" y2="21.691" gradientUnits="userSpaceOnUse">
<stop stop-color="#9D1D9D"/>
<stop offset="1" stop-color="#72004C"/>
</linearGradient>
<linearGradient id="paint2_linear_8612_111484" x1="63" y1="1.47266" x2="63" y2="21.691" gradientUnits="userSpaceOnUse">
<stop stop-color="#9D1D9D"/>
<stop offset="1" stop-color="#72004C"/>
</linearGradient>
<linearGradient id="paint3_linear_8612_111484" x1="63" y1="1.47266" x2="63" y2="21.691" gradientUnits="userSpaceOnUse">
<stop stop-color="#9D1D9D"/>
<stop offset="1" stop-color="#72004C"/>
</linearGradient>
<linearGradient id="paint4_linear_8612_111484" x1="63" y1="1.47266" x2="63" y2="21.691" gradientUnits="userSpaceOnUse">
<stop stop-color="#9D1D9D"/>
<stop offset="1" stop-color="#72004C"/>
</linearGradient>
<linearGradient id="paint5_linear_8612_111484" x1="63" y1="1.47266" x2="63" y2="21.691" gradientUnits="userSpaceOnUse">
<stop stop-color="#9D1D9D"/>
<stop offset="1" stop-color="#72004C"/>
</linearGradient>
<linearGradient id="paint6_linear_8612_111484" x1="63" y1="1.47266" x2="63" y2="21.691" gradientUnits="userSpaceOnUse">
<stop stop-color="#9D1D9D"/>
<stop offset="1" stop-color="#72004C"/>
</linearGradient>
<linearGradient id="paint7_linear_8612_111484" x1="63" y1="1.47266" x2="63" y2="21.691" gradientUnits="userSpaceOnUse">
<stop stop-color="#9D1D9D"/>
<stop offset="1" stop-color="#72004C"/>
</linearGradient>
<linearGradient id="paint8_linear_8612_111484" x1="63" y1="1.47266" x2="63" y2="21.691" gradientUnits="userSpaceOnUse">
<stop stop-color="#9D1D9D"/>
<stop offset="1" stop-color="#72004C"/>
</linearGradient>
<linearGradient id="paint9_linear_8612_111484" x1="63" y1="1.47266" x2="63" y2="21.691" gradientUnits="userSpaceOnUse">
<stop stop-color="#9D1D9D"/>
<stop offset="1" stop-color="#72004C"/>
</linearGradient>
<linearGradient id="paint10_linear_8612_111484" x1="63" y1="1.47266" x2="63" y2="21.691" gradientUnits="userSpaceOnUse">
<stop stop-color="#9D1D9D"/>
<stop offset="1" stop-color="#72004C"/>
</linearGradient>
<linearGradient id="paint11_linear_8612_111484" x1="63" y1="1.47266" x2="63" y2="21.691" gradientUnits="userSpaceOnUse">
<stop stop-color="#9D1D9D"/>
<stop offset="1" stop-color="#72004C"/>
</linearGradient>
<linearGradient id="paint12_linear_8612_111484" x1="63" y1="0.308594" x2="63" y2="20.5269" gradientUnits="userSpaceOnUse">
<stop stop-color="#FFA8FF"/>
<stop offset="1" stop-color="#FF51C5"/>
</linearGradient>
<linearGradient id="paint13_linear_8612_111484" x1="63" y1="0.308594" x2="63" y2="20.5269" gradientUnits="userSpaceOnUse">
<stop stop-color="#FFA8FF"/>
<stop offset="1" stop-color="#FF51C5"/>
</linearGradient>
<linearGradient id="paint14_linear_8612_111484" x1="63" y1="0.308594" x2="63" y2="20.5269" gradientUnits="userSpaceOnUse">
<stop stop-color="#FFA8FF"/>
<stop offset="1" stop-color="#FF51C5"/>
</linearGradient>
<linearGradient id="paint15_linear_8612_111484" x1="63" y1="0.308594" x2="63" y2="20.5269" gradientUnits="userSpaceOnUse">
<stop stop-color="#FFA8FF"/>
<stop offset="1" stop-color="#FF51C5"/>
</linearGradient>
<linearGradient id="paint16_linear_8612_111484" x1="63" y1="0.308594" x2="63" y2="20.5269" gradientUnits="userSpaceOnUse">
<stop stop-color="#FFA8FF"/>
<stop offset="1" stop-color="#FF51C5"/>
</linearGradient>
<linearGradient id="paint17_linear_8612_111484" x1="63" y1="0.308594" x2="63" y2="20.5269" gradientUnits="userSpaceOnUse">
<stop stop-color="#FFA8FF"/>
<stop offset="1" stop-color="#FF51C5"/>
</linearGradient>
<linearGradient id="paint18_linear_8612_111484" x1="63" y1="0.308594" x2="63" y2="20.5269" gradientUnits="userSpaceOnUse">
<stop stop-color="#FFA8FF"/>
<stop offset="1" stop-color="#FF51C5"/>
</linearGradient>
<linearGradient id="paint19_linear_8612_111484" x1="63" y1="0.308594" x2="63" y2="20.5269" gradientUnits="userSpaceOnUse">
<stop stop-color="#FFA8FF"/>
<stop offset="1" stop-color="#FF51C5"/>
</linearGradient>
<linearGradient id="paint20_linear_8612_111484" x1="63" y1="0.308594" x2="63" y2="20.5269" gradientUnits="userSpaceOnUse">
<stop stop-color="#FFA8FF"/>
<stop offset="1" stop-color="#FF51C5"/>
</linearGradient>
<linearGradient id="paint21_linear_8612_111484" x1="63" y1="0.308594" x2="63" y2="20.5269" gradientUnits="userSpaceOnUse">
<stop stop-color="#FFA8FF"/>
<stop offset="1" stop-color="#FF51C5"/>
</linearGradient>
<linearGradient id="paint22_linear_8612_111484" x1="63" y1="0.308594" x2="63" y2="20.5269" gradientUnits="userSpaceOnUse">
<stop stop-color="#FFA8FF"/>
<stop offset="1" stop-color="#FF51C5"/>
</linearGradient>
<linearGradient id="paint23_linear_8612_111484" x1="63" y1="0.308594" x2="63" y2="20.5269" gradientUnits="userSpaceOnUse">
<stop stop-color="#FFA8FF"/>
<stop offset="1" stop-color="#FF51C5"/>
</linearGradient>
</defs>
</svg>
