<svg width="194" height="54" viewBox="0 0 194 54" fill="none" xmlns="http://www.w3.org/2000/svg">
<path opacity="0.7" d="M25.2692 0.822961C25.5789 -0.269555 27.5182 -0.276167 27.8353 0.814284C29.2833 5.79361 31.9684 13.1537 36.0287 17.1866C40.089 21.2196 47.4669 23.8548 52.456 25.2692C53.5486 25.5789 53.5551 27.5182 52.4646 27.8353C47.4853 29.2833 40.1252 31.9684 36.0924 36.0287C32.0594 40.089 29.4241 47.4669 28.0098 52.456C27.7 53.5486 25.7607 53.5551 25.4436 52.4646C23.9956 47.4853 21.3106 40.1252 17.2503 36.0924C13.1899 32.0594 5.81199 29.4241 0.822961 28.0098C-0.269555 27.7 -0.276167 25.7607 0.814284 25.4436C5.79361 23.9956 13.1537 21.3106 17.1866 17.2503C21.2196 13.1899 23.8548 5.81199 25.2692 0.822961Z" fill="url(#paint0_linear_3961_14226)"/>
<path opacity="0.7" d="M136.008 9.27511C136.061 9.08782 136.393 9.08669 136.448 9.27362C136.696 10.1272 137.156 11.389 137.852 12.0803C138.548 12.7717 139.813 13.2234 140.668 13.4659C140.856 13.519 140.857 13.8514 140.67 13.9058C139.816 14.154 138.554 14.6143 137.863 15.3104C137.172 16.0064 136.72 17.2712 136.477 18.1265C136.424 18.3138 136.092 18.3149 136.038 18.128C135.789 17.2744 135.329 16.0126 134.633 15.3213C133.937 14.6299 132.672 14.1782 131.817 13.9357C131.63 13.8826 131.628 13.5502 131.815 13.4958C132.669 13.2476 133.931 12.7873 134.622 12.0912C135.313 11.3952 135.765 10.1304 136.008 9.27511Z" fill="#1FC9FF"/>
<path d="M191.32 24.5147C191.32 24.5147 191.208 24.4485 190.983 24.3162C190.758 24.1838 190.46 24.0382 190.089 23.8794C189.719 23.7073 189.315 23.5551 188.878 23.4228C188.441 23.2904 188.011 23.2242 187.588 23.2242C187.257 23.2242 186.985 23.2772 186.774 23.3831C186.562 23.4889 186.456 23.6676 186.456 23.9191C186.456 24.1573 186.562 24.3493 186.774 24.4949C186.985 24.6404 187.283 24.7728 187.667 24.8919C188.064 25.011 188.534 25.1566 189.077 25.3287C189.95 25.5934 190.705 25.8978 191.34 26.242C191.975 26.5861 192.465 27.0295 192.809 27.5722C193.153 28.1016 193.325 28.8097 193.325 29.6965C193.325 30.5436 193.173 31.2583 192.869 31.8407C192.564 32.4098 192.154 32.8665 191.638 33.2106C191.122 33.5547 190.546 33.8062 189.911 33.965C189.275 34.1106 188.627 34.1834 187.965 34.1834C187.29 34.1834 186.582 34.1172 185.841 33.9849C185.113 33.8393 184.404 33.6474 183.716 33.4091C183.028 33.1576 182.399 32.8665 181.83 32.5356L183.498 29.1406C183.498 29.1406 183.63 29.22 183.895 29.3788C184.16 29.5377 184.51 29.7164 184.947 29.9149C185.384 30.1134 185.867 30.2921 186.396 30.4509C186.939 30.6098 187.482 30.6892 188.024 30.6892C188.448 30.6892 188.739 30.6362 188.898 30.5303C189.07 30.4112 189.156 30.259 189.156 30.0737C189.156 29.7958 189.01 29.584 188.719 29.4384C188.428 29.2796 188.044 29.134 187.568 29.0016C187.105 28.856 186.588 28.6906 186.019 28.5053C185.199 28.2273 184.524 27.9163 183.994 27.5722C183.465 27.2148 183.074 26.7979 182.823 26.3214C182.571 25.8317 182.446 25.2427 182.446 24.5544C182.446 23.5088 182.69 22.6352 183.18 21.9337C183.67 21.2322 184.312 20.7028 185.106 20.3455C185.913 19.9749 186.78 19.7896 187.707 19.7896C188.395 19.7896 189.057 19.8756 189.692 20.0476C190.341 20.2065 190.943 20.405 191.499 20.6433C192.068 20.8815 192.564 21.1065 192.988 21.3183L191.32 24.5147Z" fill="white"/>
<path d="M181.374 23.2839H177.324V34.0049H173.453V23.2839H169.383V19.9088H181.374V23.2839Z" fill="white"/>
<path d="M167.974 19.9088V34.0049H164.102V28.4856H159.377V34.0049H155.506V19.9088H159.377V25.1105H164.102V19.9088H167.974Z" fill="white"/>
<path d="M146.924 34.1037C146.01 34.1037 145.137 33.9448 144.303 33.6272C143.482 33.2963 142.754 32.8198 142.119 32.1977C141.484 31.5624 140.981 30.8014 140.61 29.9146C140.253 29.0145 140.074 27.9888 140.074 26.8373C140.074 25.8446 140.26 24.9247 140.63 24.0776C141.001 23.2305 141.51 22.4893 142.159 21.854C142.821 21.2055 143.588 20.7025 144.462 20.3451C145.335 19.9878 146.282 19.8091 147.301 19.8091C148.572 19.8091 149.723 20.087 150.755 20.6429C151.788 21.1856 152.556 21.9334 153.058 22.8864L150.18 25.0901C149.902 24.5342 149.485 24.0908 148.929 23.7599C148.373 23.4158 147.784 23.2438 147.162 23.2438C146.699 23.2438 146.275 23.3364 145.891 23.5217C145.507 23.707 145.17 23.9651 144.879 24.296C144.601 24.6269 144.382 25.024 144.224 25.4872C144.078 25.9372 144.005 26.4336 144.005 26.9762C144.005 27.5321 144.085 28.0351 144.243 28.4851C144.402 28.9351 144.621 29.3256 144.899 29.6565C145.19 29.9741 145.534 30.2256 145.931 30.4109C146.328 30.583 146.772 30.669 147.261 30.669C147.883 30.669 148.479 30.5168 149.048 30.2124C149.617 29.8947 150.133 29.4513 150.597 28.8822V32.6544C149.538 33.6206 148.313 34.1037 146.924 34.1037ZM150.398 29.2792H147.797V26.4997H153.595V34.0044H150.398V29.2792Z" fill="white"/>
<path d="M134.527 34.0049V19.9088H138.399V34.0049H134.527Z" fill="white"/>
<path d="M122.912 34.0049V19.9088H126.784V30.6298H133.176V34.0049H122.912Z" fill="white"/>
<path d="M107.358 27.076V34.0049H103.486V19.9088H106.504L112.162 27.076V19.9088H116.034V34.0049H112.956L107.358 27.076Z" fill="white"/>
<path d="M90.0879 34.0049V19.9088H96.5602C97.2484 19.9088 97.8837 20.0478 98.4661 20.3257C99.0485 20.6037 99.5514 20.9809 99.975 21.4574C100.399 21.9206 100.723 22.4435 100.948 23.0258C101.186 23.6082 101.305 24.1972 101.305 24.7928C101.305 25.3355 101.226 25.8583 101.067 26.3612C100.908 26.8642 100.676 27.3274 100.372 27.751C100.068 28.1613 99.7037 28.5187 99.2801 28.8231L102.258 34.0049H98.0095L95.5278 29.6768H93.9593V34.0049H90.0879ZM93.9593 26.3017H96.4013C96.5602 26.3017 96.7124 26.2421 96.858 26.123C97.0036 26.0039 97.1227 25.8318 97.2153 25.6068C97.3212 25.3818 97.3742 25.1105 97.3742 24.7928C97.3742 24.4619 97.3146 24.1906 97.1955 23.9788C97.0896 23.7538 96.9506 23.5817 96.7786 23.4626C96.6197 23.3435 96.4609 23.2839 96.3021 23.2839H93.9593V26.3017Z" fill="white"/>
<path d="M88.2901 30.6298V34.0049H78.2441V19.9088H88.1114V23.2839H82.1156V25.2693H87.2378V28.4062H82.1156V30.6298H88.2901Z" fill="white"/>
<path d="M75.8196 19.9088V34.0049H71.9482V28.4856H67.223V34.0049H63.3516V19.9088H67.223V25.1105H71.9482V19.9088H75.8196Z" fill="white"/>
<path d="M61.9427 23.2839H57.8926V34.0049H54.0212V23.2839H49.9512V19.9088H61.9427V23.2839Z" fill="white"/>
<path d="M37.7598 34.0049V19.9088H44.232C44.9203 19.9088 45.5556 20.0478 46.138 20.3257C46.7204 20.6037 47.2233 20.9809 47.6469 21.4574C48.0704 21.9206 48.3947 22.4435 48.6197 23.0258C48.8579 23.6082 48.977 24.1972 48.977 24.7928C48.977 25.3355 48.8976 25.8583 48.7388 26.3612C48.58 26.8642 48.3484 27.3274 48.0439 27.751C47.7395 28.1613 47.3755 28.5187 46.952 28.8231L49.93 34.0049H45.6814L43.1997 29.6768H41.6312V34.0049H37.7598ZM41.6312 26.3017H44.0732C44.232 26.3017 44.3842 26.2421 44.5298 26.123C44.6754 26.0039 44.7946 25.8318 44.8872 25.6068C44.9931 25.3818 45.046 25.1105 45.046 24.7928C45.046 24.4619 44.9865 24.1906 44.8674 23.9788C44.7615 23.7538 44.6225 23.5817 44.4504 23.4626C44.2916 23.3435 44.1328 23.2839 43.9739 23.2839H41.6312V26.3017Z" fill="white"/>
<path d="M28.9321 34.1237C27.86 34.1237 26.8872 33.9252 26.0136 33.5281C25.1401 33.1178 24.3857 32.5751 23.7503 31.9001C23.1283 31.2118 22.6452 30.4442 22.301 29.5971C21.9701 28.7368 21.8047 27.85 21.8047 26.9367C21.8047 25.997 21.9834 25.1035 22.3407 24.2565C22.6981 23.4094 23.1944 22.6549 23.8298 21.9931C24.4783 21.3181 25.2394 20.7887 26.1129 20.4049C26.9997 20.021 27.9659 19.8291 29.0115 19.8291C30.0836 19.8291 31.0565 20.0343 31.93 20.4446C32.8036 20.8416 33.5514 21.3843 34.1735 22.0726C34.7956 22.7608 35.272 23.5351 35.6029 24.3954C35.9471 25.2425 36.1191 26.1161 36.1191 27.0161C36.1191 27.9426 35.9404 28.8294 35.5831 29.6765C35.239 30.5236 34.7426 31.2846 34.0941 31.9597C33.4587 32.6214 32.7043 33.1509 31.8308 33.5479C30.9572 33.9318 29.991 34.1237 28.9321 34.1237ZM25.7357 26.9764C25.7357 27.4529 25.8019 27.9161 25.9342 28.3661C26.0666 28.8029 26.2651 29.2 26.5298 29.5574C26.7946 29.9015 27.1254 30.1794 27.5225 30.3912C27.9328 30.5898 28.4159 30.689 28.9718 30.689C29.5277 30.689 30.0108 30.5831 30.4211 30.3714C30.8315 30.1596 31.1623 29.875 31.4138 29.5177C31.6785 29.1471 31.8705 28.7434 31.9896 28.3066C32.1219 27.8566 32.1881 27.3999 32.1881 26.9367C32.1881 26.4602 32.1219 26.0036 31.9896 25.5668C31.8572 25.13 31.6587 24.7396 31.394 24.3954C31.1293 24.0381 30.7917 23.7601 30.3814 23.5616C29.9711 23.363 29.4946 23.2638 28.952 23.2638C28.3961 23.2638 27.913 23.3697 27.5027 23.5814C27.1056 23.7932 26.7747 24.0778 26.51 24.4351C26.2453 24.7793 26.0467 25.1763 25.9144 25.6264C25.7953 26.0631 25.7357 26.5131 25.7357 26.9764Z" fill="white"/>
<path d="M11.4828 27.076V34.0049H7.61133V19.9088H10.6291L16.2873 27.076V19.9088H20.1588V34.0049H17.0815L11.4828 27.076Z" fill="white"/>
<path d="M127.582 53.9636C126.622 53.9636 125.751 53.7835 124.971 53.4233C124.202 53.0511 123.536 52.5587 122.971 51.9464C122.419 51.322 121.993 50.6255 121.692 49.857C121.392 49.0765 121.242 48.272 121.242 47.4435C121.242 46.5909 121.398 45.7804 121.71 45.0119C122.035 44.2434 122.479 43.559 123.043 42.9586C123.62 42.3462 124.298 41.8659 125.079 41.5177C125.859 41.1695 126.712 40.9954 127.636 40.9954C128.585 40.9954 129.443 41.1815 130.212 41.5537C130.992 41.9139 131.659 42.4063 132.211 43.0307C132.776 43.6551 133.208 44.3575 133.508 45.138C133.808 45.9065 133.958 46.693 133.958 47.4975C133.958 48.3501 133.802 49.1606 133.49 49.9291C133.178 50.6976 132.734 51.388 132.157 52.0004C131.581 52.6008 130.902 53.0811 130.122 53.4413C129.353 53.7895 128.507 53.9636 127.582 53.9636ZM124.25 47.4795C124.25 47.9718 124.322 48.4521 124.466 48.9204C124.61 49.3767 124.82 49.785 125.097 50.1452C125.385 50.5054 125.739 50.7936 126.159 51.0098C126.58 51.2259 127.06 51.334 127.6 51.334C128.165 51.334 128.657 51.2259 129.077 51.0098C129.497 50.7816 129.846 50.4814 130.122 50.1092C130.398 49.7369 130.602 49.3227 130.734 48.8664C130.878 48.3981 130.95 47.9238 130.95 47.4435C130.95 46.9512 130.878 46.4769 130.734 46.0206C130.59 45.5643 130.374 45.156 130.086 44.7958C129.798 44.4236 129.443 44.1354 129.023 43.9312C128.603 43.7271 128.129 43.625 127.6 43.625C127.036 43.625 126.544 43.7331 126.123 43.9492C125.715 44.1654 125.367 44.4596 125.079 44.8318C124.802 45.192 124.592 45.6063 124.448 46.0746C124.316 46.5309 124.25 46.9992 124.25 47.4795Z" fill="white"/>
<path d="M111.268 46.5431V53.8558H108.314V41.0676H110.656L116.582 48.5964V41.0676H119.536V53.8558H117.122L111.268 46.5431Z" fill="white"/>
<path d="M102.912 53.8558V41.0676H105.866V53.8558H102.912Z" fill="white"/>
<path d="M99.5051 44.8138C99.4691 44.7538 99.343 44.6637 99.1269 44.5436C98.9107 44.4116 98.6406 44.2735 98.3164 44.1294C97.9921 43.9853 97.6379 43.8592 97.2537 43.7511C96.8694 43.6431 96.4852 43.589 96.1009 43.589C95.5966 43.589 95.2064 43.6791 94.9302 43.8592C94.654 44.0273 94.5159 44.2915 94.5159 44.6517C94.5159 44.9399 94.618 45.168 94.8221 45.3361C95.0383 45.5043 95.3445 45.6543 95.7407 45.7864C96.137 45.9065 96.6233 46.0506 97.1996 46.2187C98.0162 46.4348 98.7246 46.699 99.325 47.0112C99.9254 47.3114 100.382 47.7017 100.694 48.182C101.018 48.6623 101.18 49.2987 101.18 50.0912C101.18 50.8116 101.048 51.424 100.784 51.9284C100.52 52.4207 100.16 52.8229 99.7032 53.1351C99.259 53.4353 98.7486 53.6575 98.1723 53.8016C97.5959 53.9336 97.0015 53.9997 96.3891 53.9997C95.7647 53.9997 95.1223 53.9396 94.4619 53.8196C93.8135 53.6875 93.1891 53.5074 92.5887 53.2792C91.9883 53.0391 91.436 52.7509 90.9316 52.4147L92.2285 49.839C92.2765 49.8991 92.4326 50.0131 92.6968 50.1812C92.9609 50.3373 93.2851 50.5054 93.6694 50.6856C94.0656 50.8537 94.5039 51.0038 94.9842 51.1358C95.4645 51.2679 95.9508 51.334 96.4432 51.334C96.9715 51.334 97.3617 51.2499 97.6139 51.0818C97.8781 50.9137 98.0102 50.6796 98.0102 50.3794C98.0102 50.0552 97.8721 49.803 97.5959 49.6229C97.3317 49.4428 96.9655 49.2807 96.4972 49.1366C96.0409 48.9925 95.5126 48.8304 94.9122 48.6503C94.1317 48.4101 93.4833 48.1399 92.9669 47.8397C92.4626 47.5396 92.0844 47.1733 91.8322 46.741C91.5921 46.3088 91.472 45.7684 91.472 45.12C91.472 44.2194 91.6821 43.4629 92.1024 42.8506C92.5347 42.2262 93.111 41.7579 93.8315 41.4457C94.5519 41.1215 95.3385 40.9594 96.191 40.9594C96.7914 40.9594 97.3677 41.0314 97.9201 41.1755C98.4845 41.3196 99.0068 41.4997 99.4871 41.7158C99.9794 41.932 100.418 42.1481 100.802 42.3642L99.5051 44.8138Z" fill="white"/>
<path d="M83.1491 41.0676H86.3372L90.732 53.8558H87.7061L86.7154 50.992H82.7349L81.7623 53.8558H78.7363L83.1491 41.0676ZM86.2291 48.9567L84.7342 44.0395L83.2032 48.9567H86.2291Z" fill="white"/>
<path d="M66.9785 47.3534C66.9785 46.5729 67.1226 45.8104 67.4108 45.066C67.699 44.3095 68.1192 43.625 68.6716 43.0126C69.2239 42.4003 69.8964 41.9139 70.6889 41.5537C71.4814 41.1815 72.382 40.9954 73.3906 40.9954C74.5914 40.9954 75.63 41.2535 76.5066 41.7699C77.3952 42.2862 78.0556 42.9586 78.4879 43.7871L76.2184 45.3722C76.0263 44.9159 75.7681 44.5616 75.4439 44.3095C75.1317 44.0573 74.7835 43.8832 74.3993 43.7871C74.027 43.6791 73.6668 43.625 73.3186 43.625C72.7542 43.625 72.2619 43.7391 71.8416 43.9673C71.4214 44.1834 71.0731 44.4776 70.797 44.8498C70.5208 45.2221 70.3166 45.6363 70.1846 46.0926C70.0525 46.5489 69.9864 47.0052 69.9864 47.4615C69.9864 47.9658 70.0645 48.4521 70.2206 48.9204C70.3767 49.3887 70.5988 49.803 70.887 50.1632C71.1872 50.5234 71.5474 50.8116 71.9677 51.0278C72.388 51.2319 72.8503 51.334 73.3546 51.334C73.7148 51.334 74.081 51.2739 74.4533 51.1538C74.8255 51.0338 75.1677 50.8477 75.4799 50.5955C75.8041 50.3313 76.0503 49.9891 76.2184 49.5688L78.632 50.9917C78.3798 51.6161 77.9655 52.1505 77.3892 52.5948C76.8128 53.0391 76.1584 53.3813 75.4259 53.6214C74.7054 53.8496 73.991 53.9636 73.2825 53.9636C72.3579 53.9636 71.5054 53.7775 70.7249 53.4053C69.9564 53.021 69.29 52.5167 68.7256 51.8923C68.1733 51.2559 67.741 50.5475 67.4288 49.767C67.1286 48.9745 66.9785 48.1699 66.9785 47.3534Z" fill="white"/>
<defs>
<linearGradient id="paint0_linear_3961_14226" x1="26.6395" y1="0" x2="26.6395" y2="53.279" gradientUnits="userSpaceOnUse">
<stop stop-color="#49368E"/>
<stop offset="1" stop-color="#3A91A7"/>
</linearGradient>
</defs>
</svg>
