<svg width="107" height="32" viewBox="0 0 107 32" fill="none" xmlns="http://www.w3.org/2000/svg">
<path d="M37.4281 20.6146L30.4303 12.6322L29.8556 11.9408L29.8856 13.8264V20.3213H27.3086V5.46688V0.679447L34.432 13.5122L35.1653 14.4655L35.0606 12.4646V1.9889H37.6376V20.6146H37.4281Z" fill="#00EAFF"/>
<path d="M40.7045 20.3213V5.7183H48.3307V8.00199H43.3234V11.417H47.3041V13.6379H43.3234V17.9538H48.7498V20.3213H40.7045Z" fill="#00EAFF"/>
<path d="M51.0015 20.3213V5.7183H54.9194C55.9111 5.7183 56.812 5.86845 57.6221 6.16875C58.4322 6.46905 59.0782 6.99283 59.5601 7.7401C60.042 8.48037 60.2829 9.51048 60.2829 10.8304C60.2829 11.7872 60.1014 12.6916 59.7382 13.5436C59.3751 14.3886 58.8024 15.0765 58.0202 15.6073C57.245 16.1381 56.2393 16.4034 55.0032 16.4034H53.7042V20.3213H51.0015ZM54.7518 7.83438H53.7042V14.2036H54.8147C55.7365 14.2036 56.4279 13.9277 56.8888 13.376C57.3498 12.8243 57.5802 12.0246 57.5802 10.9771C57.5802 9.90855 57.3707 9.11939 56.9517 8.60957C56.5327 8.09278 55.7994 7.83438 54.7518 7.83438Z" fill="#00EAFF"/>
<path d="M64.5153 20.3213V8.08579H61.1421V5.7183H70.5911V8.08579H67.218V20.3213H64.5153Z" fill="#00EAFF"/>
<path d="M77.6268 20.5937C76.67 20.5937 75.7971 20.4296 75.0079 20.1013C74.2257 19.7661 73.6007 19.2004 73.1328 18.4043C72.6649 17.6012 72.4309 16.5012 72.4309 15.1045V5.7183H75.1546V15.3978C75.1546 16.2219 75.2873 16.8434 75.5526 17.2624C75.825 17.6745 76.1498 17.9538 76.5269 18.1005C76.904 18.2402 77.2567 18.31 77.5849 18.31C77.9271 18.31 78.2798 18.2402 78.643 18.1005C79.0131 17.9608 79.3239 17.685 79.5753 17.2729C79.8267 16.8539 79.9524 16.2289 79.9524 15.3978V5.7183H82.6761V15.1045C82.6761 16.5012 82.4491 17.6012 81.9952 18.4043C81.5412 19.2004 80.9301 19.7661 80.1619 20.1013C79.4007 20.4296 78.5557 20.5937 77.6268 20.5937Z" fill="#00EAFF"/>
<path d="M95.6783 20.6146L88.6806 12.6322L88.0311 11.7942L88.1358 13.8264V20.3213H85.5588V5.46688H85.7893L92.6823 13.5122L93.4156 14.4655L93.3108 12.4646V5.7183H95.8878V20.6146H95.6783Z" fill="#00EAFF"/>
<path d="M98.9547 20.3213V5.7183H106.581V8.00199H101.574V11.417H105.554V13.6379H101.574V17.9538H107V20.3213H98.9547Z" fill="#00EAFF"/>
<path d="M51.8226 23.8425C52.7706 23.8425 53.4799 24.0488 53.9505 24.4614C54.4245 24.874 54.6614 25.4605 54.6614 26.221C54.6614 26.562 54.612 26.8893 54.5131 27.2031C54.4176 27.5168 54.2591 27.7964 54.0374 28.0419C53.8192 28.2875 53.5276 28.4818 53.1627 28.625C52.8013 28.7683 52.3546 28.8399 51.8226 28.8399H51.2548V31.3207H49.2344V23.8425H51.8226ZM51.7766 25.4742H51.2548V27.1928H51.6538C51.8277 27.1928 51.9897 27.1638 52.1397 27.1059C52.2898 27.0445 52.4091 26.9473 52.4978 26.8143C52.5899 26.6779 52.6359 26.4972 52.6359 26.2721C52.6359 26.0368 52.566 25.8459 52.4262 25.6992C52.2864 25.5492 52.0698 25.4742 51.7766 25.4742Z" fill="white"/>
<path d="M58.9959 31.3207V23.8425H61.0164V29.689H63.8962V31.3207H58.9959Z" fill="white"/>
<path d="M72.824 31.3207L72.4557 29.9192H70.0261L69.6475 31.3207H67.4276L69.8675 23.8118H72.5631L75.0337 31.3207H72.824ZM72.0363 28.2619L71.714 27.0343C71.6799 26.9013 71.6305 26.712 71.5657 26.4665C71.5009 26.2176 71.4361 25.9618 71.3713 25.6992C71.3099 25.4333 71.2622 25.215 71.2281 25.0445C71.1974 25.215 71.1531 25.4264 71.0951 25.6788C71.0405 25.9277 70.9826 26.1749 70.9212 26.4205C70.8632 26.666 70.8121 26.8706 70.7677 27.0343L70.4455 28.2619H72.0363Z" fill="white"/>
<path d="M81.6597 26.6148L82.9487 23.8425H85.138L82.6776 28.4V31.3207H80.6418V28.4614L78.1815 23.8425H80.381L81.6597 26.6148Z" fill="white"/>
<path fill-rule="evenodd" clip-rule="evenodd" d="M2.54602 5.80027L0 4.3458V27.7507L7.63856 23.3878V17.5012L10.2423 16.0138L5.09341 13.0729V16.9062L5.0945 22.0183L2.54609 23.5222L2.54602 5.80027ZM5.09334 7.25526V10.1641L15.3351 16.0139L10.1848 18.9557V21.8645L20.4275 16.0139L5.09334 7.25526Z" fill="#00EAFF"/>
</svg>
