<svg width="138" height="16" viewBox="0 0 138 16" fill="none" xmlns="http://www.w3.org/2000/svg">
<path d="M29.336 7.12912H25.7924V4.75547C25.7924 4.06526 25.7531 3.63598 25.6746 3.46764C25.6016 3.29368 25.4361 3.2067 25.178 3.2067C24.8862 3.2067 24.701 3.31051 24.6224 3.51814C24.5439 3.72576 24.5046 4.17468 24.5046 4.86489V11.1946C24.5046 11.8568 24.5439 12.2889 24.6224 12.4909C24.701 12.6929 24.8777 12.7939 25.1527 12.7939C25.4164 12.7939 25.5876 12.6929 25.6662 12.4909C25.7503 12.2889 25.7924 11.8147 25.7924 11.0684V9.35967H29.336V9.88996C29.336 11.2984 29.235 12.2973 29.033 12.8865C28.8366 13.4757 28.3961 13.9919 27.7115 14.4352C27.0325 14.8785 26.1936 15.1002 25.1948 15.1002C24.1567 15.1002 23.3009 14.9122 22.6275 14.5362C21.9542 14.1603 21.5081 13.6412 21.2892 12.9791C21.0704 12.3113 20.9609 11.3097 20.9609 9.97413V5.99279C20.9609 5.01079 20.9946 4.27569 21.0619 3.78749C21.1293 3.29368 21.3285 2.81951 21.6596 2.36498C21.9963 1.91045 22.4592 1.55413 23.0484 1.296C23.6432 1.03226 24.325 0.900391 25.0938 0.900391C26.1375 0.900391 26.9989 1.1024 27.6779 1.50643C28.3568 1.91045 28.803 2.41549 29.0162 3.02152C29.2294 3.62195 29.336 4.55907 29.336 5.83287V7.12912Z" fill="url(#paint0_linear_8403_103750)"/>
<path d="M36.7263 1.18658L38.7549 14.814H35.1271L34.9503 12.3646H33.6793L33.4689 14.814H29.799L31.6003 1.18658H36.7263ZM34.8493 9.94888C34.6697 8.40572 34.4902 6.50063 34.3106 4.2336C33.9515 6.83732 33.727 8.74241 33.6372 9.94888H34.8493Z" fill="url(#paint1_linear_8403_103750)"/>
<path d="M46.8691 5.311H43.5779V4.30094C43.5779 3.82957 43.5359 3.52936 43.4517 3.4003C43.3675 3.27123 43.2272 3.2067 43.0308 3.2067C42.8176 3.2067 42.6549 3.29368 42.5426 3.46764C42.436 3.64159 42.3827 3.90533 42.3827 4.25885C42.3827 4.71338 42.4444 5.05568 42.5679 5.28575C42.6857 5.51582 43.0196 5.79359 43.5695 6.11905C45.1463 7.05617 46.1396 7.82494 46.5492 8.42536C46.9588 9.02579 47.1637 9.99377 47.1637 11.3293C47.1637 12.3001 47.0486 13.0155 46.8186 13.4757C46.5941 13.9358 46.1564 14.323 45.5055 14.6373C44.8546 14.9459 44.097 15.1002 43.2328 15.1002C42.2845 15.1002 41.4736 14.9206 40.8003 14.5615C40.1325 14.2024 39.6948 13.745 39.4872 13.1895C39.2796 12.634 39.1758 11.8456 39.1758 10.8243V9.93204H42.4669V11.5902C42.4669 12.1009 42.5118 12.4291 42.6015 12.575C42.6969 12.7209 42.8625 12.7939 43.0982 12.7939C43.3338 12.7939 43.5078 12.7013 43.62 12.5161C43.7379 12.3309 43.7968 12.056 43.7968 11.6912C43.7968 10.8888 43.6874 10.3641 43.4685 10.1172C43.2441 9.87032 42.6913 9.45787 41.8103 8.87989C40.9293 8.2963 40.3457 7.87263 40.0596 7.6089C39.7734 7.34516 39.5349 6.98041 39.3441 6.51466C39.1589 6.04891 39.0663 5.45409 39.0663 4.73021C39.0663 3.68648 39.1982 2.92332 39.4619 2.44074C39.7313 1.95815 40.1634 1.58218 40.7582 1.31283C41.353 1.03787 42.0713 0.900391 42.913 0.900391C43.8333 0.900391 44.6161 1.04909 45.2614 1.3465C45.9123 1.64391 46.3416 2.01988 46.5492 2.47441C46.7624 2.92332 46.8691 3.68929 46.8691 4.7723V5.311Z" fill="url(#paint2_linear_8403_103750)"/>
<path d="M51.8268 1.18658V14.814H48.2832V1.18658H51.8268Z" fill="url(#paint3_linear_8403_103750)"/>
<path d="M61.1615 1.18658V14.814H58.0555L56.2122 8.61896V14.814H53.2493V1.18658H56.2122L58.1986 7.32271V1.18658H61.1615Z" fill="url(#paint4_linear_8403_103750)"/>
<path d="M70.6897 9.16608C70.6897 10.5353 70.6561 11.5061 70.5887 12.0784C70.527 12.6452 70.325 13.1642 69.9827 13.6356C69.646 14.107 69.1887 14.4689 68.6107 14.7214C68.0327 14.9739 67.3593 15.1002 66.5906 15.1002C65.8611 15.1002 65.2045 14.9824 64.6209 14.7467C64.043 14.5054 63.5772 14.1463 63.2237 13.6693C62.8702 13.1923 62.6597 12.6732 62.5924 12.1121C62.5251 11.551 62.4914 10.5689 62.4914 9.16608V6.83451C62.4914 5.46532 62.5222 4.49734 62.584 3.93058C62.6513 3.35821 62.8533 2.83635 63.19 2.36498C63.5323 1.89362 63.9925 1.53168 64.5704 1.27916C65.1484 1.02665 65.8218 0.900391 66.5906 0.900391C67.3201 0.900391 67.9738 1.02104 68.5518 1.26233C69.1354 1.49801 69.6039 1.85434 69.9574 2.33131C70.311 2.80829 70.5214 3.32735 70.5887 3.8885C70.6561 4.44964 70.6897 5.43165 70.6897 6.83451V9.16608ZM67.1461 4.68813C67.1461 4.05403 67.1096 3.65001 67.0367 3.47605C66.9693 3.29649 66.8262 3.2067 66.6074 3.2067C66.4222 3.2067 66.2791 3.27965 66.1781 3.42555C66.0827 3.56584 66.035 3.9867 66.035 4.68813V11.0515C66.035 11.8427 66.0659 12.3309 66.1276 12.5161C66.195 12.7013 66.3465 12.7939 66.5821 12.7939C66.8234 12.7939 66.9778 12.6873 67.0451 12.474C67.1124 12.2608 67.1461 11.753 67.1461 10.9505V4.68813Z" fill="url(#paint5_linear_8403_103750)"/>
<path d="M75.0667 1.18658H78.6356C79.6007 1.18658 80.3415 1.26233 80.8577 1.41384C81.3796 1.56535 81.7696 1.7842 82.0277 2.07038C82.2914 2.35657 82.4682 2.70448 82.558 3.11411C82.6534 3.51814 82.7011 4.14662 82.7011 4.99957V6.18639C82.7011 7.05617 82.6113 7.69026 82.4317 8.08868C82.2522 8.48709 81.9211 8.79291 81.4385 9.00615C80.9615 9.21939 80.3358 9.326 79.5615 9.326H78.6103V14.814H75.0667V1.18658ZM78.6103 3.51814V6.98602C78.7113 6.99164 78.7983 6.99444 78.8712 6.99444C79.1967 6.99444 79.4212 6.91588 79.5446 6.75876C79.6737 6.59603 79.7382 6.26214 79.7382 5.75711V4.63763C79.7382 4.17187 79.6653 3.86886 79.5194 3.72857C79.3735 3.58828 79.0705 3.51814 78.6103 3.51814Z" fill="url(#paint6_linear_8403_103750)"/>
<path d="M83.7196 1.18658H86.2279C87.9001 1.18658 89.0308 1.25111 89.62 1.38017C90.2148 1.50923 90.6974 1.84031 91.0678 2.3734C91.4437 2.90088 91.6317 3.7454 91.6317 4.90698C91.6317 5.96754 91.4998 6.6802 91.2361 7.04494C90.9724 7.40969 90.4533 7.62854 89.6789 7.70149C90.3804 7.87544 90.8517 8.10832 91.093 8.40011C91.3343 8.69191 91.483 8.96126 91.5391 9.20816C91.6009 9.44946 91.6317 10.12 91.6317 11.2199V14.814H88.3406V10.2856C88.3406 9.55607 88.2817 9.10435 88.1638 8.9304C88.0516 8.75644 87.7514 8.66946 87.2632 8.66946V14.814H83.7196V1.18658ZM87.2632 3.51814V6.54833C87.6616 6.54833 87.9394 6.49502 88.0965 6.3884C88.2592 6.27617 88.3406 5.91985 88.3406 5.31942V4.57029C88.3406 4.13821 88.262 3.85483 88.1049 3.72015C87.9534 3.58548 87.6728 3.51814 87.2632 3.51814Z" fill="url(#paint7_linear_8403_103750)"/>
<path d="M93.0121 1.18658H98.921V3.91375H96.5558V6.49783H98.7695V9.09032H96.5558V12.0868H99.1567V14.814H93.0121V1.18658Z" fill="url(#paint8_linear_8403_103750)"/>
<path d="M107.692 5.311H104.401V4.30094C104.401 3.82957 104.359 3.52936 104.274 3.4003C104.19 3.27123 104.05 3.2067 103.853 3.2067C103.64 3.2067 103.478 3.29368 103.365 3.46764C103.259 3.64159 103.205 3.90533 103.205 4.25885C103.205 4.71338 103.267 5.05568 103.391 5.28575C103.508 5.51582 103.842 5.79359 104.392 6.11905C105.969 7.05617 106.962 7.82494 107.372 8.42536C107.782 9.02579 107.986 9.99377 107.986 11.3293C107.986 12.3001 107.871 13.0155 107.641 13.4757C107.417 13.9358 106.979 14.323 106.328 14.6373C105.677 14.9459 104.92 15.1002 104.056 15.1002C103.107 15.1002 102.296 14.9206 101.623 14.5615C100.955 14.2024 100.517 13.745 100.31 13.1895C100.102 12.634 99.9984 11.8456 99.9984 10.8243V9.93204H103.29V11.5902C103.29 12.1009 103.334 12.4291 103.424 12.575C103.52 12.7209 103.685 12.7939 103.921 12.7939C104.157 12.7939 104.33 12.7013 104.443 12.5161C104.561 12.3309 104.619 12.056 104.619 11.6912C104.619 10.8888 104.51 10.3641 104.291 10.1172C104.067 9.87032 103.514 9.45787 102.633 8.87989C101.752 8.2963 101.168 7.87263 100.882 7.6089C100.596 7.34516 100.358 6.98041 100.167 6.51466C99.9816 6.04891 99.889 5.45409 99.889 4.73021C99.889 3.68648 100.021 2.92332 100.285 2.44074C100.554 1.95815 100.986 1.58218 101.581 1.31283C102.176 1.03787 102.894 0.900391 103.736 0.900391C104.656 0.900391 105.439 1.04909 106.084 1.3465C106.735 1.64391 107.164 2.01988 107.372 2.47441C107.585 2.92332 107.692 3.68929 107.692 4.7723V5.311Z" fill="url(#paint9_linear_8403_103750)"/>
<path d="M116.244 1.18658V3.91375H114.139V14.814H110.596V3.91375H108.5V1.18658H116.244Z" fill="url(#paint10_linear_8403_103750)"/>
<path d="M120.595 1.18658V14.814H117.052V1.18658H120.595Z" fill="url(#paint11_linear_8403_103750)"/>
<path d="M130.149 6.20322H126.605V4.9659C126.605 4.1859 126.572 3.69771 126.504 3.5013C126.437 3.3049 126.277 3.2067 126.024 3.2067C125.806 3.2067 125.657 3.29087 125.578 3.45922C125.5 3.62756 125.46 4.05965 125.46 4.75547V11.2956C125.46 11.9073 125.5 12.3113 125.578 12.5077C125.657 12.6985 125.814 12.7939 126.05 12.7939C126.308 12.7939 126.482 12.6845 126.572 12.4656C126.667 12.2468 126.715 11.8203 126.715 11.1862V9.5701H125.999V7.49947H130.149V14.814H127.918L127.59 13.8376C127.349 14.2585 127.043 14.5755 126.673 14.7888C126.308 14.9964 125.876 15.1002 125.376 15.1002C124.781 15.1002 124.223 14.9571 123.701 14.6709C123.185 14.3791 122.792 14.02 122.523 13.5935C122.253 13.1671 122.085 12.7209 122.018 12.2552C121.95 11.7838 121.917 11.0796 121.917 10.1425V6.0938C121.917 4.79194 121.987 3.84641 122.127 3.25721C122.268 2.668 122.669 2.1293 123.331 1.6411C123.999 1.1473 124.86 0.900391 125.915 0.900391C126.953 0.900391 127.814 1.11363 128.499 1.5401C129.184 1.96657 129.63 2.47441 129.837 3.06361C130.045 3.6472 130.149 4.49734 130.149 5.61402V6.20322Z" fill="url(#paint12_linear_8403_103750)"/>
<path d="M131.529 1.18658H137.438V3.91375H135.073V6.49783H137.287V9.09032H135.073V12.0868H137.674V14.814H131.529V1.18658Z" fill="url(#paint13_linear_8403_103750)"/>
<path d="M3.02909 15.0019C2.90041 15.0019 2.79237 14.9596 2.70497 14.875C2.61756 14.7904 2.57386 14.6855 2.57386 14.5603C2.57386 14.4352 2.61756 14.3306 2.70497 14.2466C2.79237 14.1626 2.90041 14.1205 3.02909 14.1205H13.3591C13.4884 14.1205 13.5965 14.1628 13.6833 14.2475C13.7701 14.3321 13.8138 14.4369 13.8144 14.5621C13.815 14.6872 13.7713 14.7918 13.6833 14.8759C13.5952 14.9599 13.4872 15.0019 13.3591 15.0019H3.02909ZM3.73652 12.4601C3.3784 12.4601 3.06642 12.3514 2.80057 12.134C2.53471 11.9166 2.36415 11.6404 2.28889 11.3055L1.2018 5.72575C1.17145 5.7375 1.13746 5.74396 1.09983 5.74514C1.06159 5.7469 1.0273 5.74778 0.99695 5.74778C0.711067 5.74778 0.473438 5.65377 0.284063 5.46575C0.0946876 5.27773 0 5.04976 0 4.78183C0 4.50391 0.094991 4.26771 0.284973 4.07323C0.474348 3.87933 0.712281 3.78238 0.998771 3.78238C1.28526 3.78238 1.52896 3.87933 1.72987 4.07323C1.93017 4.26771 2.03032 4.50391 2.03032 4.78183C2.03032 4.84293 2.02789 4.89963 2.02304 4.95193C2.01818 5.00422 2.00027 5.05592 1.96932 5.10704L4.48218 6.08622C4.59872 6.13146 4.71556 6.13733 4.8327 6.10384C4.94924 6.06976 5.04818 6.0019 5.12951 5.90025L7.58957 2.67454C7.45786 2.5911 7.35346 2.48064 7.27637 2.34315C7.19929 2.20625 7.16074 2.05848 7.16074 1.89983C7.16074 1.6225 7.2612 1.3866 7.4621 1.19212C7.6624 0.997632 7.9061 0.900391 8.1932 0.900391C8.47969 0.900391 8.72369 0.997338 8.92521 1.19123C9.12672 1.38513 9.22748 1.62015 9.22748 1.89631C9.22748 2.06318 9.18894 2.21359 9.11185 2.34756C9.03477 2.4827 8.93037 2.59169 8.79865 2.67454L11.2587 5.90025C11.34 6.0019 11.439 6.06947 11.5555 6.10296C11.6727 6.13763 11.7895 6.13234 11.906 6.0871L14.4189 5.10704C14.4025 5.06004 14.3883 5.00863 14.3761 4.95281C14.364 4.8964 14.3579 4.83941 14.3579 4.78183C14.3579 4.50391 14.4526 4.26771 14.642 4.07323C14.8313 3.87933 15.0693 3.78238 15.3558 3.78238C15.6423 3.78238 15.886 3.87933 16.0869 4.07323C16.2878 4.26771 16.3882 4.50391 16.3882 4.78183C16.3882 5.04858 16.2875 5.27626 16.086 5.46487C15.8844 5.65348 15.6398 5.74778 15.3521 5.74778C15.3291 5.74778 15.303 5.74425 15.2738 5.7372C15.2447 5.73015 15.2125 5.72633 15.1773 5.72575L14.0993 11.3047C14.0235 11.6407 13.8529 11.9172 13.5877 12.134C13.3224 12.3508 13.0104 12.4595 12.6517 12.4601H3.73652Z" fill="url(#paint14_linear_8403_103750)"/>
<defs>
<linearGradient id="paint0_linear_8403_103750" x1="20.9609" y1="8.0003" x2="137.674" y2="8.0003" gradientUnits="userSpaceOnUse">
<stop stop-color="#FEE559"/>
<stop offset="0.5" stop-color="#FFEEB4"/>
<stop offset="1" stop-color="#FFC130"/>
</linearGradient>
<linearGradient id="paint1_linear_8403_103750" x1="20.9609" y1="8.0003" x2="137.674" y2="8.0003" gradientUnits="userSpaceOnUse">
<stop stop-color="#FEE559"/>
<stop offset="0.5" stop-color="#FFEEB4"/>
<stop offset="1" stop-color="#FFC130"/>
</linearGradient>
<linearGradient id="paint2_linear_8403_103750" x1="20.9609" y1="8.0003" x2="137.674" y2="8.0003" gradientUnits="userSpaceOnUse">
<stop stop-color="#FEE559"/>
<stop offset="0.5" stop-color="#FFEEB4"/>
<stop offset="1" stop-color="#FFC130"/>
</linearGradient>
<linearGradient id="paint3_linear_8403_103750" x1="20.9609" y1="8.0003" x2="137.674" y2="8.0003" gradientUnits="userSpaceOnUse">
<stop stop-color="#FEE559"/>
<stop offset="0.5" stop-color="#FFEEB4"/>
<stop offset="1" stop-color="#FFC130"/>
</linearGradient>
<linearGradient id="paint4_linear_8403_103750" x1="20.9609" y1="8.0003" x2="137.674" y2="8.0003" gradientUnits="userSpaceOnUse">
<stop stop-color="#FEE559"/>
<stop offset="0.5" stop-color="#FFEEB4"/>
<stop offset="1" stop-color="#FFC130"/>
</linearGradient>
<linearGradient id="paint5_linear_8403_103750" x1="20.9609" y1="8.0003" x2="137.674" y2="8.0003" gradientUnits="userSpaceOnUse">
<stop stop-color="#FEE559"/>
<stop offset="0.5" stop-color="#FFEEB4"/>
<stop offset="1" stop-color="#FFC130"/>
</linearGradient>
<linearGradient id="paint6_linear_8403_103750" x1="20.9609" y1="8.0003" x2="137.674" y2="8.0003" gradientUnits="userSpaceOnUse">
<stop stop-color="#FEE559"/>
<stop offset="0.5" stop-color="#FFEEB4"/>
<stop offset="1" stop-color="#FFC130"/>
</linearGradient>
<linearGradient id="paint7_linear_8403_103750" x1="20.9609" y1="8.0003" x2="137.674" y2="8.0003" gradientUnits="userSpaceOnUse">
<stop stop-color="#FEE559"/>
<stop offset="0.5" stop-color="#FFEEB4"/>
<stop offset="1" stop-color="#FFC130"/>
</linearGradient>
<linearGradient id="paint8_linear_8403_103750" x1="20.9609" y1="8.0003" x2="137.674" y2="8.0003" gradientUnits="userSpaceOnUse">
<stop stop-color="#FEE559"/>
<stop offset="0.5" stop-color="#FFEEB4"/>
<stop offset="1" stop-color="#FFC130"/>
</linearGradient>
<linearGradient id="paint9_linear_8403_103750" x1="20.9609" y1="8.0003" x2="137.674" y2="8.0003" gradientUnits="userSpaceOnUse">
<stop stop-color="#FEE559"/>
<stop offset="0.5" stop-color="#FFEEB4"/>
<stop offset="1" stop-color="#FFC130"/>
</linearGradient>
<linearGradient id="paint10_linear_8403_103750" x1="20.9609" y1="8.0003" x2="137.674" y2="8.0003" gradientUnits="userSpaceOnUse">
<stop stop-color="#FEE559"/>
<stop offset="0.5" stop-color="#FFEEB4"/>
<stop offset="1" stop-color="#FFC130"/>
</linearGradient>
<linearGradient id="paint11_linear_8403_103750" x1="20.9609" y1="8.0003" x2="137.674" y2="8.0003" gradientUnits="userSpaceOnUse">
<stop stop-color="#FEE559"/>
<stop offset="0.5" stop-color="#FFEEB4"/>
<stop offset="1" stop-color="#FFC130"/>
</linearGradient>
<linearGradient id="paint12_linear_8403_103750" x1="20.9609" y1="8.0003" x2="137.674" y2="8.0003" gradientUnits="userSpaceOnUse">
<stop stop-color="#FEE559"/>
<stop offset="0.5" stop-color="#FFEEB4"/>
<stop offset="1" stop-color="#FFC130"/>
</linearGradient>
<linearGradient id="paint13_linear_8403_103750" x1="20.9609" y1="8.0003" x2="137.674" y2="8.0003" gradientUnits="userSpaceOnUse">
<stop stop-color="#FEE559"/>
<stop offset="0.5" stop-color="#FFEEB4"/>
<stop offset="1" stop-color="#FFC130"/>
</linearGradient>
<linearGradient id="paint14_linear_8403_103750" x1="0" y1="7.95114" x2="16.3882" y2="7.95114" gradientUnits="userSpaceOnUse">
<stop stop-color="#FFC130"/>
<stop offset="1" stop-color="#FEE559"/>
</linearGradient>
</defs>
</svg>
