<svg width="158" height="48" viewBox="0 0 158 48" fill="none" xmlns="http://www.w3.org/2000/svg">
<g id="Vector">
<path d="M29.4518 19.6134C30.9545 20.2185 32.1065 21.126 32.9079 22.3361C33.7427 23.5126 34.1601 24.958 34.1601 26.6723C34.1601 30.3361 32.7243 33.1092 29.8526 34.9916C26.9808 36.8739 23.1574 37.8151 18.3824 37.8151H0L7.01234 2.52101H23.9421C27.7155 2.52101 30.6206 3.22689 32.6575 4.63866C34.6944 6.01681 35.7129 8 35.7129 10.5882C35.7129 12.7395 35.1452 14.5882 34.0099 16.1345C32.9079 17.6471 31.3886 18.8067 29.4518 19.6134ZM13.8243 8.67227L12.1714 16.9916H20.436C22.5731 16.9916 24.226 16.5714 25.3947 15.7311C26.5968 14.8571 27.1979 13.6134 27.1979 12C27.1979 9.78151 25.4782 8.67227 22.0388 8.67227H13.8243ZM18.8832 31.6639C21.1539 31.6639 22.9237 31.2269 24.1926 30.3529C25.4615 29.479 26.0959 28.2185 26.0959 26.5714C26.0959 24.1513 24.3428 22.9412 20.8367 22.9412H11.0194L9.3164 31.6639H18.8832Z" fill="white"/>
<path d="M67.0504 22.2353C67.0504 23.479 66.9002 24.8571 66.5997 26.3697H45.9633C46.2305 30.0672 48.5512 31.916 52.9256 31.916C54.2947 31.916 55.597 31.6975 56.8325 31.2605C58.1014 30.8235 59.2033 30.2017 60.1383 29.395L63.394 34.5882C61.8914 35.7983 60.1717 36.7059 58.2349 37.3109C56.2982 37.916 54.2613 38.2185 52.1242 38.2185C49.3526 38.2185 46.915 37.7311 44.8113 36.7563C42.741 35.7479 41.1382 34.3193 40.0028 32.4706C38.9009 30.6218 38.3499 28.4874 38.3499 26.0672C38.3499 23.0756 39.0178 20.3866 40.3535 18C41.7225 15.5798 43.6092 13.6975 46.0134 12.3529C48.4176 10.9748 51.1558 10.2857 54.2279 10.2857C56.8325 10.2857 59.0864 10.7731 60.9898 11.7479C62.9265 12.7227 64.4125 14.1176 65.4476 15.9328C66.5162 17.7479 67.0504 19.8487 67.0504 22.2353ZM53.8773 16.1849C52.0407 16.1849 50.488 16.6891 49.2191 17.6975C47.9502 18.6723 47.0486 20.0336 46.5143 21.7815H59.8878C59.8878 20.0336 59.3369 18.6723 58.2349 17.6975C57.1664 16.6891 55.7138 16.1849 53.8773 16.1849Z" fill="white"/>
<path d="M79.8695 28.2353C79.8027 28.5042 79.7693 28.874 79.7693 29.3445C79.7693 31.0924 80.721 31.9664 82.6243 31.9664C83.6595 31.9664 84.7114 31.6471 85.7799 31.0084L86.9319 36.605C85.1955 37.6807 82.9583 38.2185 80.2201 38.2185C77.6823 38.2185 75.6454 37.5462 74.1094 36.2017C72.5733 34.8571 71.8053 33.0084 71.8053 30.6555C71.8053 29.9832 71.8888 29.1933 72.0557 28.2857L74.2095 17.3445H70.0522L71.2543 11.2941H75.4117L76.7139 4.68908H84.5277L83.2254 11.2941H89.9372L88.7351 17.3445H82.0233L79.8695 28.2353Z" fill="white"/>
<path d="M96.3771 10.6891H104.141L98.7813 37.8151H91.0176L96.3771 10.6891Z" fill="white"/>
<path d="M124.316 6.20168C123.114 6.20168 122.163 6.53782 121.461 7.21008C120.794 7.84874 120.326 8.87395 120.059 10.2857L119.859 11.2941H126.721L125.519 17.3445H118.857L114.8 37.8151H106.986L111.043 17.3445H106.836L108.038 11.2941H112.245L112.546 9.73109C113.18 6.70588 114.483 4.33614 116.453 2.62185C118.456 0.87395 121.061 0 124.266 0C125.469 0 126.604 0.134454 127.672 0.403362C128.774 0.67227 129.709 1.04202 130.477 1.51261L127.422 7.15966C126.587 6.52101 125.552 6.20168 124.316 6.20168Z" fill="white"/>
<path d="M158 10.6891L140.068 39.6303C138.132 42.7899 136.245 44.9748 134.408 46.1849C132.605 47.395 130.385 48 127.747 48C126.344 48 124.975 47.7815 123.64 47.3445C122.27 46.9076 121.202 46.3361 120.434 45.6302L124.04 39.9832C125.242 41.0924 126.678 41.6471 128.348 41.6471C129.35 41.6471 130.218 41.395 130.952 40.8908C131.687 40.3866 132.438 39.5294 133.206 38.3193L133.457 37.8655L127.246 10.6891H135.06L139.067 29.1429L150.286 10.6891H158Z" fill="white"/>
<path d="M98.1581 0L96.6694 7.48424H104.964L106.452 0H98.1581Z" fill="#4BDD7B"/>
</g>
</svg>
