<svg width="263" height="36" viewBox="0 0 263 36" fill="none" xmlns="http://www.w3.org/2000/svg">
<path d="M15.1409 10.1789L12.1958 30.0192C11.944 31.6431 11.2266 32.8787 10.0436 33.726C8.88566 34.5733 7.38794 34.9969 5.55039 34.9969C4.97144 34.9969 4.31697 34.9616 3.58699 34.891C2.88218 34.8204 2.20254 34.7145 1.54807 34.5733C0.893601 34.4556 0.377578 34.3026 0 34.1143L1.17049 29.9839H2.64304C3.49889 29.9839 4.12818 29.8427 4.53093 29.5602C4.95885 29.2543 5.21057 28.8306 5.28609 28.2893L8.08016 10.1789H15.1409Z" fill="white"/>
<path d="M41.4141 10.1789L39.1864 24.759C38.8088 27.3009 38.1795 29.3249 37.2985 30.8311C36.4175 32.3139 35.1589 33.3847 33.5227 34.0437C31.9117 34.7027 29.7973 35.0322 27.1794 35.0322C24.6119 35.0322 22.5226 34.6909 20.9116 34.0084C19.3258 33.3024 18.2182 32.1844 17.5889 30.6546C16.9596 29.1013 16.8212 27.0537 17.1736 24.5119L19.3635 10.1789H26.462L24.2343 24.759C24.0329 26.1006 23.97 27.1596 24.0455 27.9363C24.1462 28.6894 24.4483 29.219 24.9517 29.5249C25.4803 29.8309 26.2606 29.9839 27.2927 29.9839C28.3751 29.9839 29.2309 29.8191 29.8602 29.4896C30.4895 29.1601 30.9678 28.5953 31.295 27.7951C31.6222 26.9949 31.9117 25.9005 32.1634 24.5119L34.3156 10.1789H41.4141Z" fill="white"/>
<path d="M51.17 10.073C52.6552 10.073 54.1529 10.0848 55.6632 10.1083C57.1735 10.1083 58.6335 10.1436 60.0431 10.2142C61.4527 10.2613 62.7365 10.3554 63.8944 10.4966L63.1015 15.1919H53.7376C53.0579 15.1919 52.5545 15.3096 52.2273 15.545C51.9252 15.7803 51.7238 16.204 51.6231 16.8159L49.9618 27.9363C49.8863 28.4541 49.9744 28.8542 50.2261 29.1366C50.4778 29.3955 50.9183 29.5249 51.5476 29.5249H60.836L60.7228 34.2908C59.5397 34.432 58.2433 34.5144 56.8337 34.538C55.4493 34.585 54.027 34.6086 52.5671 34.6086C51.1323 34.6321 49.7604 34.6439 48.4515 34.6439C46.3622 34.6439 44.8267 34.0673 43.845 32.914C42.8885 31.7608 42.5361 30.2663 42.7878 28.4305L44.7512 15.1919C45.0029 13.6151 45.67 12.3677 46.7524 11.4498C47.8599 10.5319 49.3325 10.073 51.17 10.073ZM44.789 19.746H60.9871L60.3829 24.2295H44.0338L44.789 19.746Z" fill="white"/>
<path d="M78.6291 9.68467C79.636 9.68467 80.6177 9.71998 81.5742 9.79058C82.5307 9.86119 83.4747 9.9671 84.406 10.1083C85.3374 10.2495 86.231 10.4378 87.0868 10.6732L86.2562 15.4391C85.3751 15.4155 84.5067 15.4038 83.6509 15.4038C82.795 15.3802 81.9392 15.3685 81.0833 15.3685C80.2275 15.3449 79.2961 15.3331 78.2893 15.3331C77.3076 15.3331 76.4769 15.4508 75.7972 15.6862C75.1176 15.898 74.5512 16.2746 74.0982 16.8159C73.6451 17.3572 73.2675 18.0985 72.9654 19.04C72.6634 19.9814 72.4116 21.1699 72.2103 22.6056C71.9334 24.3942 71.8201 25.7828 71.8704 26.7713C71.946 27.7363 72.2103 28.407 72.6634 28.7836C73.1164 29.1601 73.8087 29.3484 74.74 29.3484C75.5707 29.3484 76.2503 29.2425 76.779 29.0307C77.3327 28.8189 77.8236 28.56 78.2515 28.254C78.6794 27.9245 79.0822 27.6303 79.4598 27.3715L80.5925 30.1604C80.2401 30.584 79.787 31.0665 79.2332 31.6078C78.6794 32.1491 78.025 32.6904 77.2698 33.2317C76.5398 33.7495 75.6966 34.1849 74.74 34.538C73.7835 34.8675 72.7137 35.0322 71.5306 35.0322C69.7938 35.0322 68.3464 34.6203 67.1885 33.7966C66.0306 32.9729 65.2251 31.6196 64.772 29.7368C64.3441 27.8304 64.3566 25.2886 64.8097 22.1113C65.1873 19.593 65.7159 17.5219 66.3956 15.898C67.1004 14.2741 68.0066 13.0149 69.1141 12.1206C70.2217 11.2027 71.5558 10.5672 73.1164 10.2142C74.6771 9.86119 76.5147 9.68467 78.6291 9.68467ZM86.8225 20.4874L84.7081 34.538H79.5353L79.1954 30.7605L78.7046 29.5955L80.0639 20.4874H86.8225Z" fill="white"/>
<path d="M105.745 10.1789C106.299 10.1789 106.79 10.3554 107.218 10.7085C107.671 11.0615 107.935 11.4969 108.011 12.0147L111.711 34.538H104.612L102.724 17.6631C102.674 17.216 102.636 16.7806 102.611 16.3569C102.611 15.9333 102.611 15.5097 102.611 15.086H101.554C101.453 15.4391 101.34 15.8392 101.214 16.2863C101.088 16.7335 100.925 17.1689 100.723 17.5925L93.5871 34.538H86.2243L96.7209 11.7675C96.9223 11.2498 97.237 10.8614 97.6649 10.6026C98.118 10.3201 98.634 10.1789 99.213 10.1789H105.745ZM107.331 23.9118L106.727 28.8189H93.134L93.7758 23.9118H107.331Z" fill="white"/>
<path d="M125.23 16.4981C127.696 16.4981 129.597 16.7453 130.931 17.2395C132.29 17.7338 133.196 18.4516 133.65 19.393C134.128 20.3109 134.254 21.4641 134.027 22.8527C133.876 23.9118 133.486 24.7473 132.857 25.3592C132.252 25.9476 131.409 26.3947 130.327 26.7007C129.244 26.9831 127.873 27.1832 126.211 27.3009L116.432 28.0422L116.885 24.8296L124.625 24.0883C125.204 24.0412 125.683 23.9706 126.06 23.8765C126.463 23.7588 126.778 23.5823 127.004 23.3469C127.256 23.088 127.407 22.7115 127.457 22.2172C127.533 21.8171 127.508 21.5112 127.382 21.2993C127.256 21.0875 127.017 20.9463 126.664 20.8757C126.337 20.7816 125.846 20.7463 125.192 20.7698C124.562 20.7698 124.034 20.8404 123.606 20.9816C123.178 21.1228 122.813 21.3582 122.511 21.6877C122.234 21.9936 121.995 22.4526 121.794 23.0645C121.617 23.6529 121.441 24.4295 121.265 25.3945C121.038 26.7125 120.975 27.701 121.076 28.3599C121.202 29.0189 121.517 29.4543 122.02 29.6661C122.549 29.878 123.279 29.9839 124.21 29.9839C124.789 29.9839 125.519 29.9721 126.4 29.9486C127.281 29.9015 128.2 29.8544 129.156 29.8074C130.138 29.7368 130.994 29.6661 131.724 29.5955L132.215 33.5495C131.384 33.879 130.478 34.1614 129.496 34.3967C128.514 34.6086 127.52 34.7498 126.513 34.8204C125.506 34.9145 124.525 34.9616 123.568 34.9616C120.875 34.9616 118.798 34.6086 117.338 33.9025C115.878 33.1729 114.909 32.1138 114.431 30.7252C113.953 29.3131 113.827 27.595 114.053 25.571C114.28 23.7353 114.67 22.229 115.224 21.0522C115.803 19.8519 116.545 18.934 117.451 18.2986C118.383 17.6396 119.49 17.1807 120.774 16.9218C122.083 16.6394 123.568 16.4981 125.23 16.4981Z" fill="white"/>
<path d="M151.702 16.4981C152.735 16.4981 153.641 16.6864 154.421 17.063C155.201 17.4396 155.78 18.0044 156.158 18.7575C156.561 19.4871 156.674 20.405 156.498 21.5112L154.534 34.538H147.662L149.324 23.5587C149.424 22.9233 149.387 22.4879 149.21 22.2525C149.034 21.9936 148.657 21.8877 148.078 21.9348C147.448 21.9348 146.756 22.1113 146.001 22.4643C145.246 22.8174 144.34 23.394 143.282 24.1942L142.263 21.3347C143.622 19.8284 145.133 18.6516 146.794 17.8044C148.48 16.9335 150.117 16.4981 151.702 16.4981ZM143.245 16.9924L143.358 21.6524L143.962 22.1113L142.112 34.538H135.24L137.845 16.9924H143.245Z" fill="white"/>
<path d="M169.273 10.1789L166.555 27.6539C166.504 28.1952 166.58 28.5953 166.781 28.8542C167.008 29.1131 167.436 29.2425 168.065 29.2425H176.862L176.749 34.2555C175.037 34.4438 173.124 34.5497 171.01 34.5733C168.921 34.6203 166.844 34.6439 164.78 34.6439C163.572 34.6439 162.527 34.4203 161.646 33.9731C160.79 33.5024 160.148 32.8552 159.72 32.0314C159.292 31.1842 159.167 30.2075 159.343 29.1013L162.175 10.1789H169.273Z" fill="white"/>
<path d="M189.851 10.1789L186.188 34.538H179.09L182.752 10.1789H189.851ZM192.267 0.964844L194.533 5.44832L185.018 9.04922L183.394 6.4015L192.267 0.964844Z" fill="white"/>
<path d="M217.173 10.1789L213.85 32.3492C213.75 33.1023 213.485 33.6554 213.057 34.0084C212.655 34.3614 212.05 34.538 211.245 34.538H208.451C207.696 34.538 207.155 34.3614 206.827 34.0084C206.5 33.6318 206.185 33.1141 205.883 32.4551L200.975 22.076C200.698 21.5347 200.459 20.9346 200.257 20.2756C200.056 19.6166 199.88 18.9458 199.729 18.2633H199.351C199.376 18.9694 199.364 19.6754 199.314 20.3815C199.288 21.064 199.225 21.7701 199.125 22.4996L197.275 34.538H190.705L194.027 12.3677C194.128 11.6146 194.38 11.0615 194.783 10.7085C195.211 10.3554 195.827 10.1789 196.633 10.1789H199.427C200.157 10.1789 200.685 10.3672 201.013 10.7438C201.34 11.1203 201.655 11.6263 201.957 12.2618L206.752 22.1819C207.029 22.7703 207.293 23.394 207.545 24.053C207.822 24.712 208.061 25.4416 208.262 26.2418H208.677C208.627 25.4886 208.602 24.8061 208.602 24.1942C208.627 23.5587 208.69 22.9115 208.791 22.2525L210.641 10.1789H217.173Z" fill="white"/>
<path d="M227.127 10.073C228.612 10.073 230.11 10.0848 231.62 10.1083C233.131 10.1083 234.591 10.1436 236 10.2142C237.41 10.2613 238.694 10.3554 239.852 10.4966L239.059 15.1919H229.695C229.015 15.1919 228.512 15.3096 228.184 15.545C227.882 15.7803 227.681 16.204 227.58 16.8159L225.919 27.9363C225.843 28.4541 225.931 28.8542 226.183 29.1366C226.435 29.3955 226.875 29.5249 227.505 29.5249H236.793L236.68 34.2908C235.497 34.432 234.2 34.5144 232.791 34.538C231.406 34.585 229.984 34.6086 228.524 34.6086C227.089 34.6321 225.718 34.6439 224.409 34.6439C222.319 34.6439 220.784 34.0673 219.802 32.914C218.846 31.7608 218.493 30.2663 218.745 28.4305L220.708 15.1919C220.96 13.6151 221.627 12.3677 222.71 11.4498C223.817 10.5319 225.29 10.073 227.127 10.073ZM220.746 19.746H236.944L236.34 24.2295H219.991L220.746 19.746Z" fill="white"/>
<path d="M257.034 10.1789C257.588 10.1789 258.079 10.3554 258.507 10.7085C258.96 11.0615 259.224 11.4969 259.3 12.0147L263 34.538H255.902L254.014 17.6631C253.963 17.216 253.926 16.7806 253.9 16.3569C253.9 15.9333 253.9 15.5097 253.9 15.086H252.843C252.742 15.4391 252.629 15.8392 252.503 16.2863C252.377 16.7335 252.214 17.1689 252.012 17.5925L244.876 34.538H237.513L248.01 11.7675C248.212 11.2498 248.526 10.8614 248.954 10.6026C249.407 10.3201 249.923 10.1789 250.502 10.1789H257.034ZM258.62 23.9118L258.016 28.8189H244.423L245.065 23.9118H258.62Z" fill="white"/>
<path d="M194.533 5.44832L192.267 0.964844L183.394 6.4015L185.018 9.04922L194.533 5.44832Z" fill="#F14116"/>
</svg>
