<svg width="66" height="41" viewBox="0 0 66 41" fill="none" xmlns="http://www.w3.org/2000/svg">
<g clip-path="url(#clip0_255_20320)">
<path d="M6.51087 0.320312C8.73479 0.320312 10.3826 0.910172 11.4543 2.08989C12.5529 3.26961 13.1022 4.99895 13.1022 7.27796V10.9378C13.1022 13.2167 12.5529 14.9461 11.4543 16.1258C10.3826 17.3055 8.73479 17.8954 6.51087 17.8954H4.42097V28.4727H0V0.320312H6.51087ZM4.42097 4.34208V13.8736H6.51087C7.2075 13.8736 7.74339 13.686 8.11853 13.3106C8.49362 12.9352 8.68119 12.2381 8.68119 11.2193V6.99644C8.68119 5.97757 8.49362 5.28047 8.11853 4.90514C7.74339 4.52976 7.2075 4.34208 6.51087 4.34208H4.42097Z" fill="white"/>
<path d="M30.864 28.4727H26.4028L25.6392 23.365H20.2135L19.4499 28.4727H15.3906L19.892 0.320312H26.3627L30.864 28.4727ZM20.7762 19.5443H25.0364L22.9063 5.30729L20.7762 19.5443Z" fill="white"/>
<path d="M43.572 28.4727C43.5184 28.285 43.4648 28.1107 43.4112 27.9498C43.3576 27.789 43.304 27.5879 43.2505 27.3466C43.2237 27.1052 43.1969 26.7969 43.1701 26.4215C43.1701 26.0462 43.1701 25.577 43.1701 25.0139V20.59C43.1701 19.2762 42.9423 18.3512 42.4868 17.815C42.0314 17.2788 41.2945 17.0106 40.2763 17.0106H38.7491V28.4727H34.3281V0.320312H40.9998C43.304 0.320312 44.9652 0.856547 45.9834 1.92902C47.0286 3.00149 47.551 4.6236 47.551 6.79535V9.00732C47.551 11.903 46.5863 13.8066 44.6571 14.7182C45.7825 15.174 46.5461 15.9248 46.9479 16.9704C47.3766 17.9893 47.5911 19.236 47.5911 20.7107V25.0542C47.5911 25.7513 47.6177 26.3679 47.6714 26.9042C47.725 27.4136 47.8589 27.9364 48.0735 28.4727H43.572ZM38.7491 4.34208V12.9889H40.4773C41.3079 12.9889 41.951 12.7744 42.4064 12.3454C42.8887 11.9164 43.1299 11.1388 43.1299 10.0128V7.23775C43.1299 6.21888 42.9423 5.48157 42.5672 5.02577C42.2189 4.56998 41.6562 4.34208 40.8792 4.34208H38.7491Z" fill="white"/>
<path d="M51.5469 7.07829C51.5469 4.79928 52.123 3.05654 53.2752 1.85001C54.4274 0.616671 56.0885 0 58.2585 0C60.429 0 62.0901 0.616671 63.2423 1.85001C64.3945 3.05654 64.9706 4.79928 64.9706 7.07829V21.7175C64.9706 23.2994 64.6893 24.6132 64.1263 25.6588C64.2336 25.927 64.3675 26.1012 64.5284 26.1817C64.7159 26.2353 64.9972 26.2621 65.3723 26.2621H65.7744V30.2035H65.1717C64.1799 30.2035 63.3632 30.0291 62.7199 29.6806C62.1037 29.3589 61.6479 28.8897 61.3536 28.273C60.8978 28.4338 60.4155 28.5545 59.9066 28.6349C59.3977 28.7422 58.8481 28.7958 58.2585 28.7958C56.0885 28.7958 54.4274 28.1926 53.2752 26.986C52.123 25.7527 51.5469 23.9965 51.5469 21.7175V7.07829ZM55.9677 21.9991C55.9677 23.0179 56.1687 23.7418 56.5708 24.1708C56.9995 24.573 57.5621 24.7741 58.2585 24.7741C58.9554 24.7741 59.5045 24.573 59.9066 24.1708C60.3353 23.7418 60.5494 23.0179 60.5494 21.9991V6.79677C60.5494 5.77795 60.3353 5.06741 59.9066 4.66526C59.5045 4.23626 58.9554 4.02176 58.2585 4.02176C57.5621 4.02176 56.9995 4.23626 56.5708 4.66526C56.1687 5.06741 55.9677 5.77795 55.9677 6.79677V21.9991Z" fill="white"/>
<path d="M22.8438 38.2624V35.0251C22.8438 34.5393 22.9577 34.1506 23.1857 33.8591C23.4137 33.5676 23.7632 33.4219 24.2342 33.4219C24.7052 33.4219 25.0547 33.5676 25.2826 33.8591C25.5106 34.1506 25.6246 34.5393 25.6246 35.0251V35.5462H25.2196V34.9942C25.2196 34.6291 25.1417 34.3391 24.9857 34.1241C24.8296 33.9092 24.5822 33.8017 24.2432 33.8017C23.9042 33.8017 23.6567 33.9092 23.5007 34.1241C23.3447 34.3391 23.2667 34.6291 23.2667 34.9942V38.2889C23.2667 38.654 23.3447 38.9426 23.5007 39.1545C23.6567 39.3665 23.9042 39.4725 24.2432 39.4725C24.5822 39.4725 24.8296 39.3665 24.9857 39.1545C25.1417 38.9426 25.2196 38.654 25.2196 38.2889V37.5381H25.6246V38.2624C25.6246 38.7482 25.5106 39.1369 25.2826 39.4283C25.0547 39.7169 24.7052 39.8612 24.2342 39.8612C23.7632 39.8612 23.4137 39.7169 23.1857 39.4283C22.9577 39.1369 22.8438 38.7482 22.8438 38.2624Z" fill="white"/>
<path d="M26.543 39.8109L27.9559 33.4688H28.5724L30.0078 39.8109H29.5849L29.2654 38.4108H27.2539L26.93 39.8109H26.543ZM27.3169 38.0487H29.1979L28.2484 33.9502L27.3169 38.0487Z" fill="white"/>
<path d="M30.9219 38.2801V37.9533H31.3269V38.3066C31.3269 38.6687 31.4049 38.9543 31.5609 39.1634C31.7168 39.3695 31.9644 39.4725 32.3033 39.4725C32.6423 39.4725 32.8898 39.3695 33.0458 39.1634C33.2018 38.9543 33.2798 38.6687 33.2798 38.3066C33.2798 38.1005 33.2363 37.912 33.1493 37.7412C33.0653 37.5675 32.9543 37.4174 32.8163 37.2908C32.6783 37.1642 32.5268 37.042 32.3618 36.9242C32.1968 36.8034 32.0318 36.6813 31.8668 36.5576C31.7018 36.431 31.5504 36.2985 31.4124 36.1601C31.2743 36.0188 31.1619 35.8495 31.0749 35.6522C30.9909 35.452 30.9489 35.2326 30.9489 34.9942C30.9489 34.5025 31.0614 34.1182 31.2864 33.8414C31.5143 33.5647 31.8593 33.4248 32.3213 33.4219C32.6363 33.4219 32.8988 33.4925 33.1088 33.6338C33.3188 33.7722 33.4688 33.9578 33.5588 34.1903C33.6487 34.42 33.6938 34.6924 33.6938 35.0074V35.1399H33.2888V34.9765C33.2888 34.6173 33.2123 34.3317 33.0593 34.1197C32.9063 33.9077 32.6633 33.8017 32.3303 33.8017C31.9973 33.8017 31.7543 33.9062 31.6013 34.1153C31.4483 34.3243 31.3718 34.6084 31.3718 34.9677C31.3718 35.1738 31.4139 35.3652 31.4978 35.5418C31.5848 35.7155 31.6973 35.8672 31.8353 35.9967C31.9733 36.1233 32.1248 36.247 32.2898 36.3677C32.4548 36.4855 32.6198 36.6077 32.7848 36.7343C32.9498 36.8579 33.1013 36.989 33.2393 37.1274C33.3773 37.2657 33.4883 37.4336 33.5722 37.6308C33.6592 37.8281 33.7028 38.0445 33.7028 38.2801C33.7028 38.7629 33.5888 39.1472 33.3608 39.4328C33.1328 39.7184 32.7833 39.8612 32.3123 39.8612C31.8413 39.8612 31.4919 39.7184 31.2638 39.4328C31.0359 39.1472 30.9219 38.7629 30.9219 38.2801Z" fill="white"/>
<path d="M34.707 39.8099V33.4766H35.13V39.8099H34.707Z" fill="white"/>
<path d="M36.1914 39.8099V33.4766H36.7449L38.6798 38.825V33.4766H39.0668V39.8099H38.5943L36.5784 34.1655V39.8099H36.1914Z" fill="white"/>
<path d="M40.0859 38.2624V35.0251C40.0859 34.5393 40.2029 34.1506 40.4369 33.8591C40.6739 33.5676 41.0264 33.4219 41.4944 33.4219C41.9713 33.4219 42.3283 33.5676 42.5653 33.8591C42.8053 34.1506 42.9253 34.5393 42.9253 35.0251V38.2624C42.9253 38.7482 42.8053 39.1369 42.5653 39.4283C42.3283 39.7169 41.9713 39.8612 41.4944 39.8612C41.0264 39.8612 40.6739 39.7169 40.4369 39.4283C40.2029 39.1369 40.0859 38.7482 40.0859 38.2624ZM40.5089 38.2889C40.5089 38.6569 40.5884 38.9484 40.7474 39.1634C40.9064 39.3754 41.1554 39.4813 41.4944 39.4813C41.8394 39.4813 42.0929 39.3739 42.2549 39.159C42.4168 38.944 42.4978 38.654 42.4978 38.2889V34.9942C42.4978 34.6291 42.4168 34.3391 42.2549 34.1241C42.0929 33.9092 41.8394 33.8017 41.4944 33.8017C41.1554 33.8017 40.9064 33.9092 40.7474 34.1241C40.5884 34.3361 40.5089 34.6261 40.5089 34.9942V38.2889Z" fill="white"/>
<path d="M0 36.1797H19.1646" stroke="white" stroke-width="0.93295"/>
<path d="M46.6094 36.1797H65.774" stroke="white" stroke-width="0.93295"/>
</g>
<defs>
<clipPath id="clip0_255_20320">
<rect width="65.773" height="40.1168" fill="white"/>
</clipPath>
</defs>
</svg>
