<svg width="180" height="30" viewBox="0 0 180 30" fill="none" xmlns="http://www.w3.org/2000/svg">
<path d="M17.1701 14.5064C18.4374 14.9794 19.4186 15.6684 20.1136 16.5734C20.8086 17.4784 21.156 18.5684 21.156 19.8436C21.156 21.7358 20.3793 23.2064 18.8258 24.2553C17.2723 25.2837 15.0239 25.7979 12.0804 25.7979H0V4.20213H11.4672C14.3289 4.20213 16.4854 4.71631 17.9366 5.74468C19.4084 6.77305 20.1442 8.14078 20.1442 9.84787C20.1442 10.8557 19.8887 11.7606 19.3777 12.5628C18.8871 13.3649 18.1513 14.0128 17.1701 14.5064ZM7.11334 9.29255V12.5011H10.486C12.06 12.5011 12.8469 11.9663 12.8469 10.8968C12.8469 9.82731 12.06 9.29255 10.486 9.29255H7.11334ZM11.4672 20.7074C13.0616 20.7074 13.8587 20.1418 13.8587 19.0106C13.8587 17.8794 13.0616 17.3138 11.4672 17.3138H7.11334V20.7074H11.4672Z" fill="white"/>
<path d="M41.559 20.3064V25.7979H23.7143V4.20213H41.1604V9.69362H30.8276V12.2234H39.9033V17.4681H30.8276V20.3064H41.559Z" fill="white"/>
<path d="M49.005 9.84787H42.7195V4.20213H62.5265V9.84787H56.241V25.7979H49.005V9.84787Z" fill="white"/>
<path d="M69.3658 9.84787H63.0803V4.20213H82.8873V9.84787H76.6018V25.7979H69.3658V9.84787Z" fill="white"/>
<path d="M96.9228 17.9617V25.7979H89.6868V17.8692L81.5923 4.20213H89.2269L93.6114 11.6681L98.0266 4.20213H105.017L96.9228 17.9617Z" fill="white"/>
<path d="M123.485 19.0106C123.485 20.7383 122.861 22.25 121.614 23.5457C120.388 24.8209 118.63 25.6642 116.341 26.0755V29.5H112.018V26.2298C110.485 26.1475 109.013 25.911 107.602 25.5202C106.212 25.1294 105.058 24.6461 104.138 24.0702L106.468 18.7638C107.49 19.3603 108.635 19.8436 109.902 20.2138C111.169 20.5635 112.386 20.7383 113.551 20.7383C114.552 20.7383 115.268 20.6457 115.697 20.4606C116.126 20.255 116.341 19.9567 116.341 19.566C116.341 19.1135 116.055 18.7741 115.482 18.5479C114.93 18.3216 114.011 18.0748 112.723 17.8074C111.067 17.4578 109.687 17.0876 108.584 16.6968C107.48 16.2855 106.519 15.6273 105.701 14.7223C104.884 13.7968 104.475 12.5525 104.475 10.9894C104.475 9.17943 105.119 7.6266 106.407 6.33085C107.715 5.03511 109.585 4.21241 112.018 3.86277V0.5H116.341V3.80106C118.794 4.02731 120.868 4.62376 122.565 5.59043L120.388 10.866C118.283 9.79645 116.29 9.2617 114.409 9.2617C112.549 9.2617 111.619 9.71418 111.619 10.6191C111.619 11.0511 111.895 11.3801 112.447 11.6064C112.999 11.8121 113.908 12.0383 115.176 12.2851C116.811 12.5936 118.191 12.9535 119.315 13.3649C120.439 13.7557 121.41 14.4035 122.228 15.3085C123.066 16.2135 123.485 17.4475 123.485 19.0106Z" fill="white"/>
<path d="M135.971 4.20213C137.953 4.20213 139.681 4.53121 141.152 5.18936C142.624 5.84752 143.759 6.79362 144.556 8.02766C145.353 9.2617 145.752 10.7014 145.752 12.3468C145.752 13.9922 145.353 15.4319 144.556 16.666C143.759 17.9 142.624 18.8461 141.152 19.5043C139.681 20.1624 137.953 20.4915 135.971 20.4915H132.874V25.7979H125.638V4.20213H135.971ZM135.511 14.8766C136.492 14.8766 137.228 14.6606 137.718 14.2287C138.209 13.7762 138.454 13.1489 138.454 12.3468C138.454 11.5447 138.209 10.9277 137.718 10.4957C137.228 10.0433 136.492 9.81702 135.511 9.81702H132.874V14.8766H135.511Z" fill="white"/>
<path d="M148.125 4.20213H155.361V25.7979H148.125V4.20213Z" fill="white"/>
<path d="M180 4.20213V25.7979H174.052L165.896 15.9872V25.7979H158.844V4.20213H164.792L172.948 14.0128V4.20213H180Z" fill="white"/>
</svg>
