<svg width="213" height="36" viewBox="0 0 213 36" fill="none" xmlns="http://www.w3.org/2000/svg">
<path d="M0 35.8633V0.138672H11.687C13.9326 0.138672 15.8889 0.529941 17.5561 1.31248C19.2573 2.09502 20.5842 3.20078 21.5368 4.62976C22.4895 6.02473 22.9658 7.65785 22.9658 9.52914C22.9658 11.3664 22.4385 12.9825 21.3837 14.3775C20.329 15.7384 18.9 16.7591 17.0968 17.4396C19.2743 18.086 20.9925 19.1578 22.2513 20.6548C23.5442 22.1178 24.1907 23.87 24.1907 25.9114C24.1907 27.8848 23.6803 29.62 22.6596 31.117C21.6729 32.614 20.295 33.7878 18.5258 34.6384C16.7906 35.455 14.7321 35.8633 12.3505 35.8633H0ZM6.02215 15.194H11.0746C12.8438 15.194 14.2558 14.7347 15.3105 13.8161C16.3653 12.8975 16.8926 11.6726 16.8926 10.1416C16.8926 8.57648 16.3653 7.35164 15.3105 6.46703C14.2558 5.5484 12.8438 5.08908 11.0746 5.08908H6.02215V15.194ZM6.02215 30.9129H11.636C13.5753 30.9129 15.1234 30.4195 16.2802 29.4328C17.471 28.4121 18.0664 27.0682 18.0664 25.4011C18.0664 23.6999 17.488 22.356 16.3312 21.3693C15.1744 20.3826 13.6094 19.8893 11.636 19.8893H6.02215V30.9129Z" fill="white"/>
<path d="M30.7032 35.8633V0.138672H54.0773V5.34426H36.8274V15.2961H48.0041V20.3996H36.8274V30.6577H54.2815V35.8633H30.7032Z" fill="white"/>
<path d="M69.1127 35.8633V5.34426H58.0381V0.138672H86.3116V5.34426H75.237V35.8633H69.1127Z" fill="white"/>
<path d="M157.594 35.8633V0.138672H163.769L176.681 25.1459L176.579 0.138672H181.784V35.8633H176.12L162.697 10.0395L162.799 35.8633H157.594Z" fill="#0DFF00"/>
<path d="M189.42 35.8633V0.138672H212.794V5.34426H195.544V15.2961H206.721V20.3996H195.544V30.6577H212.998V35.8633H189.42Z" fill="#0DFF00"/>
<path d="M90.4844 35.8633V31.7805L108.296 5.19115L90.5864 5.34426V0.138672H116.002V4.22149L98.2417 30.7598L116.308 30.6577V35.8633H90.4844Z" fill="#0DFF00"/>
<path d="M136.519 35.8633C134.488 35.8633 132.495 35.5243 130.596 34.8583C129.806 34.5803 129.39 33.7144 129.667 32.9245C129.945 32.1345 130.808 31.7185 131.601 31.9964C133.177 32.5497 134.831 32.8303 136.518 32.8303C144.694 32.8303 151.347 26.1779 151.347 18.0015C151.347 15.5805 150.752 13.1792 149.623 11.0567C149.231 10.3171 149.512 9.39858 150.252 9.00587C150.992 8.61354 151.909 8.89339 152.303 9.63306C153.663 12.1921 154.38 15.0856 154.38 18.0012C154.38 27.8509 146.368 35.8633 136.519 35.8633ZM125.697 31.77C125.34 31.77 124.982 31.6449 124.694 31.3895C120.857 27.9973 118.656 23.1182 118.656 18.0019C118.656 15.526 119.154 13.1289 120.134 10.8775C120.469 10.1096 121.363 9.75812 122.13 10.0921C122.898 10.4269 123.249 11.3206 122.915 12.0881C122.102 13.9547 121.69 15.945 121.69 18.0019C121.69 22.2493 123.517 26.301 126.703 29.1171C127.33 29.6718 127.389 30.63 126.834 31.2572C126.534 31.5969 126.117 31.77 125.697 31.77ZM124.961 7.96004C124.573 7.96004 124.185 7.81135 123.888 7.51472C123.296 6.92299 123.296 5.96219 123.888 5.37046C127.262 1.99661 131.747 0.138672 136.519 0.138672C140.765 0.138672 144.882 1.65499 148.108 4.40814C148.745 4.95183 148.82 5.9092 148.277 6.54706C147.732 7.1834 146.775 7.25965 146.139 6.71596C143.46 4.43025 140.044 3.1713 136.518 3.1713C132.557 3.1713 128.833 4.71467 126.033 7.51434C125.738 7.81173 125.349 7.96004 124.961 7.96004Z" fill="#FF6B00"/>
<path d="M136.515 27.078C131.509 27.078 127.438 23.006 127.438 18.0011C127.438 12.9958 131.509 8.92383 136.515 8.92383C141.52 8.92383 145.592 12.9958 145.592 18.0011C145.592 23.006 141.52 27.078 136.515 27.078Z" fill="white"/>
</svg>
