<svg width="132" height="20" viewBox="0 0 132 20" fill="none" xmlns="http://www.w3.org/2000/svg">
<path d="M90.3215 3.46965C90.6286 1.68174 92.179 0.375 93.9931 0.375H127.21C129.52 0.375 131.273 2.45482 130.882 4.73101L128.855 16.5279C128.548 18.3158 126.998 19.6225 125.184 19.6225H91.9667C89.6572 19.6225 87.9041 17.5427 88.2951 15.2665L90.3215 3.46965Z" fill="#FAC900"/>
<path d="M13.6297 6.75358C13.484 7.57481 13.1463 8.27021 12.6164 8.83977C12.0866 9.39608 11.4508 9.76696 10.7091 9.9524C11.3978 10.1246 11.921 10.4557 12.2787 10.9458C12.6496 11.4227 12.835 11.9856 12.835 12.6346C12.835 12.8466 12.8151 13.0717 12.7754 13.3102C12.5635 14.542 11.9873 15.4957 11.0468 16.1712C10.1196 16.8335 8.89443 17.1646 7.37118 17.1646H0L2.48355 3.0978H9.65605C10.9276 3.0978 11.9144 3.34946 12.6164 3.8528C13.3317 4.34288 13.6893 5.06477 13.6893 6.01845C13.6893 6.24363 13.6695 6.48867 13.6297 6.75358ZM8.98052 7.60792C8.99377 7.5417 9.00039 7.4556 9.00039 7.34964C9.00039 7.08472 8.91429 6.89266 8.7421 6.77345C8.58315 6.65424 8.33149 6.59464 7.9871 6.59464H6.27842L5.92079 8.58148H7.62947C8.02684 8.58148 8.33811 8.502 8.56329 8.34306C8.78846 8.18411 8.92754 7.93906 8.98052 7.60792ZM8.38447 12.6545C8.39772 12.5883 8.40434 12.5022 8.40434 12.3962C8.40434 11.8929 8.06658 11.6412 7.39105 11.6412H5.38434L5.04658 13.6281H7.05329C7.45065 13.6281 7.7553 13.5552 7.96723 13.4095C8.19241 13.2506 8.33149 12.9989 8.38447 12.6545Z" fill="white"/>
<path d="M20.3769 3.0978L18.9861 11.0253C18.9464 11.2372 18.9265 11.4558 18.9265 11.6809C18.9265 12.1313 19.0457 12.4889 19.2842 12.7538C19.5226 13.0055 19.9001 13.1313 20.4167 13.1313C21.0524 13.1313 21.5558 12.9459 21.9267 12.575C22.2975 12.1909 22.5426 11.6743 22.6618 11.0253L24.0526 3.0978H28.4435L27.0527 11.0253C26.8143 12.4028 26.3374 13.5618 25.6222 14.5023C24.9202 15.4427 24.0526 16.1447 23.0194 16.6083C21.9995 17.0719 20.8736 17.3037 19.6418 17.3037C18.0656 17.3037 16.8072 16.8931 15.8668 16.0719C14.9264 15.2374 14.4561 14.0519 14.4561 12.5154C14.4561 12.0253 14.5025 11.5286 14.5952 11.0253L15.986 3.0978H20.3769Z" fill="white"/>
<path d="M41.4921 6.75358C41.3464 7.57481 41.0086 8.27021 40.4788 8.83977C39.949 9.39608 39.3132 9.76696 38.5714 9.9524C39.2602 10.1246 39.7834 10.4557 40.141 10.9458C40.5119 11.4227 40.6973 11.9856 40.6973 12.6346C40.6973 12.8466 40.6775 13.0717 40.6377 13.3102C40.4258 14.542 39.8496 15.4957 38.9092 16.1712C37.982 16.8335 36.7568 17.1646 35.2335 17.1646H27.8623L30.3459 3.0978H37.5184C38.79 3.0978 39.7768 3.34946 40.4788 3.8528C41.194 4.34288 41.5517 5.06477 41.5517 6.01845C41.5517 6.24363 41.5318 6.48867 41.4921 6.75358ZM36.8429 7.60792C36.8561 7.5417 36.8627 7.4556 36.8627 7.34964C36.8627 7.08472 36.7766 6.89266 36.6044 6.77345C36.4455 6.65424 36.1938 6.59464 35.8494 6.59464H34.1408L33.7831 8.58148H35.4918C35.8892 8.58148 36.2005 8.502 36.4256 8.34306C36.6508 8.18411 36.7899 7.93906 36.8429 7.60792ZM36.2468 12.6545C36.2601 12.5883 36.2667 12.5022 36.2667 12.3962C36.2667 11.8929 35.9289 11.6412 35.2534 11.6412H33.2467L32.9089 13.6281H34.9156C35.313 13.6281 35.6176 13.5552 35.8296 13.4095C36.0548 13.2506 36.1938 12.9989 36.2468 12.6545Z" fill="#FAC900"/>
<path d="M55.074 6.75358C54.9283 7.57481 54.5905 8.27021 54.0607 8.83977C53.5309 9.39608 52.8951 9.76696 52.1533 9.9524C52.8421 10.1246 53.3653 10.4557 53.7229 10.9458C54.0938 11.4227 54.2793 11.9856 54.2793 12.6346C54.2793 12.8466 54.2594 13.0717 54.2197 13.3102C54.0077 14.542 53.4315 15.4957 52.4911 16.1712C51.5639 16.8335 50.3387 17.1646 48.8154 17.1646H41.4443L43.9278 3.0978H51.1003C52.3719 3.0978 53.3587 3.34946 54.0607 3.8528C54.776 4.34288 55.1336 5.06477 55.1336 6.01845C55.1336 6.24363 55.1137 6.48867 55.074 6.75358ZM50.4248 7.60792C50.438 7.5417 50.4447 7.4556 50.4447 7.34964C50.4447 7.08472 50.3586 6.89266 50.1864 6.77345C50.0274 6.65424 49.7758 6.59464 49.4314 6.59464H47.7227L47.3651 8.58148H49.0737C49.4711 8.58148 49.7824 8.502 50.0075 8.34306C50.2327 8.18411 50.3718 7.93906 50.4248 7.60792ZM49.8287 12.6545C49.842 12.5883 49.8486 12.5022 49.8486 12.3962C49.8486 11.8929 49.5108 11.6412 48.8353 11.6412H46.8286L46.4908 13.6281H48.4976C48.8949 13.6281 49.1996 13.5552 49.4115 13.4095C49.6367 13.2506 49.7758 12.9989 49.8287 12.6545Z" fill="#FAC900"/>
<path d="M60.033 13.8267H64.2849L63.6888 17.1646H55.0262L57.5097 3.0978H61.9205L60.033 13.8267Z" fill="white"/>
<path d="M71.3552 6.59464L71.0572 8.34306H75.4283L74.8322 11.6611H70.4612L70.1035 13.6479H75.0706L74.4547 17.1646H65.0768L67.5604 3.0978H76.9383L76.3223 6.59464H71.3552Z" fill="white"/>
<path d="M82.157 17.3037C80.435 17.3037 79.0575 16.9593 78.0243 16.2706C77.0044 15.5818 76.4945 14.5751 76.4945 13.2506C76.4945 13.1181 76.5077 12.9194 76.5342 12.6545H81.2232C81.1834 13.0651 81.243 13.3698 81.402 13.5684C81.5742 13.7671 81.8523 13.8665 82.2364 13.8665C82.4749 13.8665 82.6735 13.8069 82.8325 13.6877C82.9914 13.5684 83.0709 13.3963 83.0709 13.1711C83.0709 12.8532 82.912 12.5883 82.5941 12.3763C82.2894 12.1644 81.7927 11.9127 81.1039 11.6213C80.3489 11.3034 79.7264 10.9988 79.2363 10.7074C78.7595 10.416 78.3422 10.0186 77.9846 9.51529C77.627 9.01196 77.4482 8.38279 77.4482 7.62779C77.4482 6.63437 77.6932 5.78003 78.1833 5.06477C78.6866 4.33626 79.382 3.78657 80.2695 3.41569C81.1569 3.04481 82.1702 2.85938 83.3093 2.85938C84.3292 2.85938 85.2366 3.01832 86.0313 3.33622C86.8393 3.65411 87.4685 4.11771 87.9188 4.72701C88.3824 5.32306 88.6142 6.0317 88.6142 6.85292C88.6142 6.95889 88.601 7.14433 88.5745 7.40924H83.8259C83.8524 7.25029 83.8657 7.14433 83.8657 7.09135C83.8657 6.83968 83.7928 6.64762 83.6471 6.51516C83.5014 6.36946 83.3027 6.29661 83.051 6.29661C82.8259 6.29661 82.6404 6.36284 82.4947 6.49529C82.349 6.62775 82.2762 6.79994 82.2762 7.01187C82.2762 7.30328 82.4285 7.56157 82.7332 7.78674C83.0378 7.99867 83.5213 8.26358 84.1835 8.58148C84.9386 8.93911 85.5611 9.27687 86.0512 9.59477C86.5545 9.91266 86.985 10.3365 87.3426 10.8663C87.7003 11.3829 87.8791 12.0187 87.8791 12.7737C87.8791 13.6347 87.6473 14.4095 87.1837 15.0983C86.7333 15.7871 86.0777 16.3302 85.2167 16.7275C84.3557 17.1116 83.3358 17.3037 82.157 17.3037Z" fill="white"/>
<path d="M104.278 6.51516C104.132 7.33639 103.795 8.03178 103.265 8.60135C102.735 9.15766 102.099 9.52854 101.358 9.71398C102.046 9.88617 102.569 10.2173 102.927 10.7074C103.298 11.1842 103.483 11.7472 103.483 12.3962C103.483 12.6081 103.464 12.8333 103.424 13.0717C103.212 14.3036 102.636 15.2573 101.695 15.9328C100.768 16.5951 99.5429 16.9262 98.0196 16.9262H90.6484L93.132 2.85938H100.304C101.576 2.85938 102.563 3.11104 103.265 3.61437C103.98 4.10446 104.338 4.82635 104.338 5.78003C104.338 6.00521 104.318 6.25025 104.278 6.51516ZM99.629 7.3695C99.6422 7.30328 99.6488 7.21718 99.6488 7.11122C99.6488 6.8463 99.5627 6.65424 99.3905 6.53503C99.2316 6.41582 98.9799 6.35622 98.6355 6.35622H96.9269L96.5692 8.34306H98.2779C98.6753 8.34306 98.9866 8.26358 99.2117 8.10464C99.4369 7.94569 99.576 7.70064 99.629 7.3695ZM99.0329 12.4161C99.0462 12.3499 99.0528 12.2638 99.0528 12.1578C99.0528 11.6545 98.715 11.4028 98.0395 11.4028H96.0328L95.695 13.3896H97.7017C98.0991 13.3896 98.4037 13.3168 98.6157 13.1711C98.8408 13.0121 98.9799 12.7605 99.0329 12.4161Z" fill="#181C71"/>
<path d="M110.509 6.35622L110.211 8.10464H114.582L113.986 11.4227H109.615L109.257 13.4095H114.224L113.608 16.9262H104.23L106.714 2.85938H116.092L115.476 6.35622H110.509Z" fill="#181C71"/>
<path d="M128.801 2.85938L128.185 6.35622H124.45L122.582 16.9262H118.171L120.039 6.35622H116.343L116.959 2.85938H128.801Z" fill="#181C71"/>
</svg>
