<svg width="145" height="33" viewBox="0 0 145 33" fill="none" xmlns="http://www.w3.org/2000/svg">
<path d="M112.091 27.8851C112.092 27.9872 112.061 28.0869 112.002 28.1705C111.944 28.254 111.86 28.3173 111.764 28.3515L109.788 29.0687L109.07 31.0407C109.034 31.1359 108.97 31.218 108.887 31.276C108.803 31.334 108.704 31.365 108.602 31.365C108.501 31.365 108.401 31.334 108.318 31.276C108.234 31.218 108.17 31.1359 108.135 31.0407L107.417 29.0684L105.44 28.3515C105.345 28.3162 105.263 28.2525 105.205 28.1692C105.147 28.0858 105.116 27.9867 105.116 27.8851C105.116 27.7836 105.147 27.6845 105.205 27.6011C105.263 27.5178 105.345 27.4541 105.44 27.4188L107.417 26.7019L108.135 24.7296C108.17 24.6344 108.234 24.5523 108.318 24.4943C108.401 24.4363 108.501 24.4052 108.602 24.4052C108.704 24.4052 108.803 24.4363 108.887 24.4943C108.97 24.5523 109.034 24.6344 109.07 24.7296L109.788 26.7019L111.764 27.4188C111.86 27.453 111.944 27.5163 112.002 27.5998C112.061 27.6834 112.092 27.7831 112.091 27.8851Z" fill="white"/>
<path d="M39.6889 27.8851C39.6897 27.9872 39.6586 28.0869 39.6 28.1705C39.5414 28.254 39.4581 28.3173 39.3618 28.3515L37.3856 29.0687L36.6673 31.0407C36.6319 31.1359 36.5681 31.218 36.4846 31.276C36.4011 31.334 36.3018 31.365 36.2 31.365C36.0983 31.365 35.999 31.334 35.9155 31.276C35.8319 31.218 35.7682 31.1359 35.7328 31.0407L35.0145 29.0684L33.0383 28.3515C32.9429 28.3162 32.8606 28.2525 32.8025 28.1692C32.7444 28.0858 32.7133 27.9867 32.7133 27.8851C32.7133 27.7836 32.7444 27.6845 32.8025 27.6011C32.8606 27.5178 32.9429 27.4541 33.0383 27.4188L35.0145 26.7019L35.7328 24.7296C35.7682 24.6344 35.8319 24.5523 35.9155 24.4943C35.999 24.4363 36.0983 24.4052 36.2 24.4052C36.3018 24.4052 36.4011 24.4363 36.4846 24.4943C36.5681 24.5523 36.6319 24.6344 36.6673 24.7296L37.3859 26.7019L39.3618 27.4188C39.4581 27.453 39.5414 27.5163 39.6 27.5998C39.6586 27.6834 39.6897 27.7831 39.6889 27.8851Z" fill="white"/>
<path d="M2.10696 2.92943C2.10696 2.41686 2.06795 2.04054 1.98991 1.80048C1.91187 1.55393 1.79807 1.38523 1.6485 1.2944C1.49893 1.19708 1.25507 1.103 0.916919 1.01216C0.871398 0.999186 0.754345 0.966744 0.565759 0.914839C0.383675 0.856445 0.195089 0.788318 0 0.71046L0.0195089 0.214111H5.56004C6.61352 0.214111 7.5402 0.275749 8.34006 0.399025C9.14643 0.515813 9.84875 0.807783 10.447 1.27493C11.0453 1.74209 11.3444 2.4493 11.3444 3.39658C11.3444 4.9862 10.1706 5.97889 7.82307 6.37467C8.49938 6.40711 9.15293 6.53688 9.78372 6.76397C10.421 6.98457 10.9478 7.3252 11.3639 7.78586C11.7801 8.24004 11.9882 8.80776 11.9882 9.48902C11.9882 10.3 11.7379 10.9618 11.2371 11.4744C10.7364 11.9805 10.1121 12.3438 9.36428 12.5644C8.61644 12.7785 7.84258 12.8856 7.04272 12.8856H0.0195089L0 12.3795L0.35116 12.2822C0.728333 12.1849 1.03397 12.0875 1.26808 11.9902C1.50219 11.8864 1.70053 11.7372 1.8631 11.5425C2.02568 11.3414 2.10696 11.0721 2.10696 10.7348V2.92943ZM4.20417 5.781C4.29521 5.86535 4.41552 5.93672 4.56509 5.99511C4.71465 6.04702 4.85447 6.07297 4.98453 6.07297H6.28187C8.36282 6.07297 9.4033 5.28465 9.4033 3.70802C9.4033 2.87104 9.16594 2.25141 8.69122 1.84914C8.22301 1.44038 7.667 1.18734 7.02321 1.09002C6.37942 0.992697 5.5893 0.944036 4.65288 0.944036H4.20417V5.781ZM4.20417 10.2189C4.20417 10.6731 4.28221 11.0916 4.43828 11.4744C4.60085 11.8507 4.88048 12.0389 5.27716 12.0389H6.85738C7.35811 12.0389 7.81007 11.9448 8.21325 11.7566C8.62294 11.562 8.94809 11.283 9.1887 10.9197C9.42931 10.5498 9.54961 10.1151 9.54961 9.61554C9.54961 8.74612 9.2895 8.10378 8.76926 7.68854C8.24902 7.2668 7.64099 7.00728 6.94517 6.90995C6.25586 6.80614 5.42348 6.75423 4.44803 6.75423C4.33748 6.85156 4.2692 6.96835 4.24319 7.1046C4.21718 7.23436 4.20417 7.40306 4.20417 7.61068V10.2189Z" fill="white"/>
<path d="M17.8214 10.3552C17.8214 10.8483 17.8637 11.2116 17.9482 11.4452C18.0392 11.6788 18.1595 11.8345 18.3091 11.9124C18.4652 11.9902 18.709 12.0584 19.0407 12.1167C19.4244 12.1816 19.7658 12.266 20.0649 12.3698L20.0454 12.8856H13.5587V12.3795C13.7473 12.2952 13.9164 12.2368 14.0659 12.2043C14.222 12.1654 14.4171 12.1265 14.6512 12.0875C14.9438 12.0486 15.1584 11.9935 15.295 11.9221C15.4316 11.8442 15.5356 11.6755 15.6071 11.416C15.6852 11.1565 15.7242 10.7445 15.7242 10.18V2.8613C15.7242 2.32927 15.6787 1.93673 15.5876 1.68369C15.4966 1.43065 15.3763 1.26845 15.2267 1.19708C15.0836 1.12571 14.869 1.07056 14.5829 1.03163C14.3488 0.992697 14.1537 0.953768 13.9976 0.914839C13.8481 0.875909 13.6888 0.807783 13.5197 0.71046L13.5392 0.214111H20.0064L20.0259 0.720192C19.8893 0.772098 19.6943 0.827248 19.4406 0.885642C19.083 0.976477 18.7968 1.06731 18.5822 1.15815C18.3676 1.24898 18.1856 1.39172 18.036 1.58637C17.8929 1.77453 17.8214 2.03406 17.8214 2.36496V10.3552Z" fill="white"/>
<path d="M23.6546 2.82237C23.6546 2.29683 23.6123 1.91402 23.5278 1.67396C23.4432 1.42741 23.3197 1.26196 23.1571 1.17761C22.9945 1.09326 22.7311 1.01541 22.367 0.944036C21.9248 0.846712 21.6061 0.768854 21.411 0.71046L21.4305 0.214111H28.0246V0.720192C27.836 0.798051 27.6669 0.856445 27.5173 0.895374C27.3678 0.927815 27.1694 0.966744 26.9223 1.01216C26.6102 1.06407 26.3793 1.12895 26.2297 1.20681C26.0802 1.27818 25.9631 1.43065 25.8786 1.66423C25.8005 1.8978 25.7615 2.26439 25.7615 2.76398V9.84911C25.7615 10.6342 25.8363 11.1792 25.9859 11.4841C26.1419 11.7826 26.4313 11.9708 26.854 12.0486C27.2767 12.1265 28.0506 12.1654 29.1756 12.1654C29.8909 12.1654 30.4924 12.0746 30.9802 11.8929C31.4744 11.7047 31.8678 11.3317 32.1604 10.7737L32.3068 10.4817C32.4108 10.2676 32.5051 10.0892 32.5896 9.94644C32.6742 9.79721 32.7717 9.66096 32.8823 9.53768L33.4675 9.55715L32.853 12.9927C31.9816 12.9213 31.2695 12.8856 30.7168 12.8856H21.4208L21.4013 12.3601C21.4988 12.3276 21.7069 12.266 22.0256 12.1751C22.3962 12.0778 22.6889 11.9837 22.9035 11.8929C23.1181 11.7956 23.2969 11.6431 23.44 11.4355C23.583 11.2214 23.6546 10.9262 23.6546 10.5498V2.82237Z" fill="white"/>
<path d="M36.2963 2.82237C36.2963 2.29683 36.2541 1.91402 36.1695 1.67396C36.085 1.42741 35.9614 1.26196 35.7989 1.17761C35.6363 1.09326 35.3729 1.01541 35.0087 0.944036C34.5665 0.846712 34.2479 0.768854 34.0528 0.71046L34.0723 0.214111H40.6663V0.720192C40.4777 0.798051 40.3087 0.856445 40.1591 0.895374C40.0095 0.927815 39.8112 0.966744 39.5641 1.01216C39.2519 1.06407 39.0211 1.12895 38.8715 1.20681C38.7219 1.27818 38.6049 1.43065 38.5204 1.66423C38.4423 1.8978 38.4033 2.26439 38.4033 2.76398V9.84911C38.4033 10.6342 38.4781 11.1792 38.6277 11.4841C38.7837 11.7826 39.0731 11.9708 39.4958 12.0486C39.9185 12.1265 40.6923 12.1654 41.8174 12.1654C42.5327 12.1654 43.1342 12.0746 43.6219 11.8929C44.1162 11.7047 44.5096 11.3317 44.8022 10.7737L44.9485 10.4817C45.0526 10.2676 45.1469 10.0892 45.2314 9.94644C45.316 9.79721 45.4135 9.66096 45.5241 9.53768L46.1093 9.55715L45.4948 12.9927C44.6234 12.9213 43.9113 12.8856 43.3586 12.8856H34.0626L34.0431 12.3601C34.1406 12.3276 34.3487 12.266 34.6673 12.1751C35.038 12.0778 35.3306 11.9837 35.5452 11.8929C35.7598 11.7956 35.9387 11.6431 36.0817 11.4355C36.2248 11.2214 36.2963 10.9262 36.2963 10.5498V2.82237Z" fill="white"/>
<path d="M57.4928 0.788318C57.1221 0.937547 56.823 1.07056 56.5954 1.18734C56.3678 1.30413 56.1434 1.45336 55.9223 1.63503C55.7077 1.8167 55.5126 2.04379 55.337 2.31629L52.1376 7.21165V10.4914C52.1376 10.9391 52.1798 11.27 52.2644 11.4841C52.3489 11.6983 52.4627 11.841 52.6058 11.9124C52.7554 11.9837 52.9732 12.0454 53.2593 12.0973C53.643 12.1622 53.9747 12.2562 54.2543 12.3795L54.2348 12.8856H47.9334L47.9139 12.3795C48.083 12.2822 48.2423 12.2141 48.3919 12.1751C48.5479 12.1362 48.7398 12.1005 48.9674 12.0681C49.2405 12.0292 49.4453 11.9773 49.5819 11.9124C49.7185 11.8475 49.829 11.7015 49.9136 11.4744C49.9981 11.2473 50.0404 10.8937 50.0404 10.4136V7.41603L46.48 1.84914C46.3304 1.61557 46.0508 1.38523 45.6411 1.15815C45.2314 0.931059 44.8705 0.78183 44.5584 0.71046V0.214111H50.6061L50.6256 0.720192C50.2485 0.785074 49.8908 0.905106 49.5526 1.08029C49.221 1.24898 49.0552 1.47931 49.0552 1.77128C49.0552 1.97891 49.2698 2.42984 49.699 3.12408C50.1282 3.81183 50.6874 4.67152 51.3767 5.70314L51.8352 6.39414C51.8742 6.32277 51.9652 6.18652 52.1083 5.98538C53.617 3.75992 54.3713 2.36171 54.3713 1.79075C54.3713 1.53122 54.2445 1.33333 53.9909 1.19708C53.7373 1.05434 53.4089 0.931059 53.0057 0.827248C52.9927 0.827248 52.9114 0.804539 52.7619 0.759121L52.7424 0.496349C52.7424 0.450931 52.7489 0.356852 52.7619 0.214111H57.6586V0.720192L57.4928 0.788318Z" fill="white"/>
<path d="M65.1598 2.92943C65.1598 2.41686 65.1208 2.04054 65.0427 1.80048C64.9647 1.55393 64.8509 1.38523 64.7013 1.2944C64.5518 1.19708 64.3079 1.103 63.9697 1.01216C63.9242 0.999186 63.8072 0.966744 63.6186 0.914839C63.4365 0.856445 63.2479 0.788318 63.0528 0.71046L63.0723 0.214111H68.6129C69.6663 0.214111 70.593 0.275749 71.3929 0.399025C72.1992 0.515813 72.9016 0.807783 73.4998 1.27493C74.0981 1.74209 74.3972 2.4493 74.3972 3.39658C74.3972 4.9862 73.2235 5.97889 70.8759 6.37467C71.5522 6.40711 72.2057 6.53688 72.8365 6.76397C73.4738 6.98457 74.0006 7.3252 74.4168 7.78586C74.8329 8.24004 75.041 8.80776 75.041 9.48902C75.041 10.3 74.7907 10.9618 74.2899 11.4744C73.7892 11.9805 73.1649 12.3438 72.4171 12.5644C71.6693 12.7785 70.8954 12.8856 70.0955 12.8856H63.0723L63.0528 12.3795L63.404 12.2822C63.7811 12.1849 64.0868 12.0875 64.3209 11.9902C64.555 11.8864 64.7533 11.7372 64.9159 11.5425C65.0785 11.3414 65.1598 11.0721 65.1598 10.7348V2.92943ZM67.257 5.781C67.348 5.86535 67.4683 5.93672 67.6179 5.99511C67.7675 6.04702 67.9073 6.07297 68.0373 6.07297H69.3347C71.4156 6.07297 72.4561 5.28465 72.4561 3.70802C72.4561 2.87104 72.2188 2.25141 71.744 1.84914C71.2758 1.44038 70.7198 1.18734 70.076 1.09002C69.4322 0.992697 68.6421 0.944036 67.7057 0.944036H67.257V5.781ZM67.257 10.2189C67.257 10.6731 67.335 11.0916 67.4911 11.4744C67.6537 11.8507 67.9333 12.0389 68.33 12.0389H69.9102C70.4109 12.0389 70.8629 11.9448 71.2661 11.7566C71.6758 11.562 72.0009 11.283 72.2415 10.9197C72.4821 10.5498 72.6024 10.1151 72.6024 9.61554C72.6024 8.74612 72.3423 8.10378 71.8221 7.68854C71.3018 7.2668 70.6938 7.00728 69.998 6.90995C69.3087 6.80614 68.4763 6.75423 67.5008 6.75423C67.3903 6.85156 67.322 6.96835 67.296 7.1046C67.27 7.23436 67.257 7.40306 67.257 7.61068V10.2189Z" fill="white"/>
<path d="M79.5183 7.708L79.333 8.17515C79.0404 8.93428 78.8095 9.56039 78.6404 10.0535C78.4714 10.5401 78.3868 10.9164 78.3868 11.1824C78.3868 11.416 78.4714 11.6074 78.6404 11.7566C78.816 11.9059 79.0144 12.0162 79.2355 12.0875C79.4631 12.1589 79.7394 12.227 80.0646 12.2919L80.2499 12.3309V12.8856H75.6458V12.3795C75.7369 12.3081 75.8279 12.2498 75.9189 12.2043C76.0165 12.1524 76.1368 12.0973 76.2799 12.0389C76.5075 11.9481 76.6895 11.854 76.8261 11.7566C76.9692 11.6593 77.096 11.5069 77.2065 11.2992C77.2716 11.1695 77.3366 11.0235 77.4016 10.8613C77.4732 10.6926 77.5187 10.5823 77.5382 10.5304L77.6552 10.2287L81.3034 0.905106C81.3294 0.833736 81.3489 0.71046 81.3619 0.535278C81.3684 0.405514 81.3782 0.301702 81.3912 0.223844C81.4107 0.139497 81.4432 0.0648822 81.4887 0C81.8074 0 82.0805 0.0324411 82.3081 0.0973233C82.5422 0.162205 82.7763 0.282237 83.0104 0.457419L87.4877 11.1727C87.5723 11.3738 87.6698 11.5361 87.7804 11.6593C87.8909 11.7761 88.0047 11.867 88.1218 11.9318C88.2453 11.9902 88.4112 12.0616 88.6192 12.1459C88.7948 12.2043 88.9802 12.2822 89.1752 12.3795L89.1557 12.8856H83.4786L83.4591 12.3795C83.7648 12.2887 84.0249 12.1978 84.2395 12.107C84.4606 12.0162 84.6589 11.8897 84.8345 11.7275C85.0101 11.5652 85.0979 11.3674 85.0979 11.1338C85.0979 10.8743 84.7727 9.91075 84.1224 8.24328C84.0834 8.14596 84.0444 8.05188 84.0054 7.96104C83.9729 7.87021 83.9436 7.78586 83.9176 7.708H79.5183ZM81.635 2.06325L79.85 6.85156H83.5567L81.635 2.06325Z" fill="white"/>
<path d="M95.8571 7.61068C95.701 7.3771 95.5677 7.20517 95.4571 7.09487C95.3531 6.98457 95.2263 6.90022 95.0767 6.84183C94.9271 6.78343 94.7223 6.74775 94.4622 6.73477L93.8476 6.69584V10.4428C93.8476 10.9099 93.8867 11.2538 93.9647 11.4744C94.0492 11.695 94.1598 11.841 94.2963 11.9124C94.4394 11.9837 94.6508 12.0421 94.9304 12.0875C95.132 12.12 95.3108 12.1557 95.4669 12.1946C95.6229 12.2335 95.7855 12.2952 95.9546 12.3795L95.9351 12.8856H89.7605L89.741 12.3795C89.9166 12.2822 90.0792 12.2141 90.2287 12.1751C90.3848 12.1297 90.5636 12.0908 90.7652 12.0584C91.0253 12.0194 91.2172 11.9643 91.3407 11.8929C91.4708 11.815 91.5716 11.6496 91.6431 11.3966C91.7147 11.1435 91.7504 10.7412 91.7504 10.1897V2.81264C91.7504 2.35198 91.7114 2.0081 91.6334 1.78102C91.5553 1.54744 91.4415 1.38848 91.292 1.30413C91.1489 1.2133 90.9213 1.11922 90.6092 1.02189C90.2775 0.931059 89.9881 0.830492 89.741 0.720192L89.7605 0.214111H94.2573C95.4734 0.214111 96.5366 0.269261 97.447 0.379561C98.3574 0.48986 99.1703 0.78183 99.8856 1.25547C100.607 1.72911 100.968 2.45903 100.968 3.44524C100.968 4.05514 100.796 4.58393 100.451 5.03161C100.113 5.47281 99.6743 5.81993 99.1346 6.07297C98.6013 6.32601 98.029 6.49795 97.4178 6.58878C97.4958 6.6926 97.8827 7.23112 98.5785 8.20435C99.0923 8.93103 99.528 9.53768 99.8856 10.0243C100.25 10.5109 100.611 10.9683 100.968 11.3966C101.183 11.6236 101.375 11.8021 101.544 11.9318C101.713 12.0616 101.924 12.1654 102.178 12.2433C102.432 12.3211 102.75 12.3601 103.134 12.3601V12.9051C102.49 13.0608 101.918 13.1386 101.417 13.1386C100.728 13.1386 100.094 12.9278 99.515 12.506C98.9427 12.0843 98.4452 11.5847 98.0225 11.0073C97.6063 10.4298 97.1284 9.6934 96.5886 8.79802C96.27 8.25301 96.0261 7.85723 95.8571 7.61068ZM94.3354 6.04377C95.1677 6.04377 95.8863 5.99511 96.4911 5.89779C97.0959 5.80047 97.6129 5.57013 98.0421 5.20679C98.4778 4.84345 98.6956 4.2952 98.6956 3.56203C98.6956 2.75749 98.4615 2.16382 97.9933 1.78102C97.5316 1.39821 96.9886 1.16464 96.3643 1.08029C95.74 0.989453 94.9726 0.944036 94.0622 0.944036H93.8476V6.04377H94.3354Z" fill="white"/>
<path d="M108.928 5.81993L113.376 1.42092C113.402 1.34306 113.415 1.27169 113.415 1.20681C113.415 1.02514 113.337 0.905106 113.181 0.846712C113.025 0.788318 112.788 0.742901 112.469 0.71046C112.215 0.684507 112.027 0.652066 111.903 0.613137C111.786 0.574207 111.728 0.499593 111.728 0.389293C111.728 0.369828 111.744 0.311434 111.776 0.214111H117.278L117.317 0.389293C117.317 0.47364 117.193 0.557987 116.946 0.642334C116.699 0.72668 116.361 0.814271 115.932 0.905106C115.307 1.04136 114.846 1.23276 114.547 1.47931L110.762 5.35278L115.327 11.6204C115.411 11.7112 115.555 11.7988 115.756 11.8832C115.964 11.961 116.241 12.0551 116.585 12.1654C116.949 12.2757 117.226 12.373 117.414 12.4574C117.609 12.5417 117.707 12.6261 117.707 12.7104C117.707 12.7818 117.694 12.8402 117.668 12.8856H110.996C110.957 12.8013 110.937 12.7461 110.937 12.7202C110.937 12.6228 110.996 12.5547 111.113 12.5158C111.237 12.4704 111.428 12.4282 111.689 12.3893C112.001 12.3438 112.235 12.2919 112.391 12.2335C112.553 12.1687 112.635 12.0551 112.635 11.8929C112.635 11.828 112.579 11.7242 112.469 11.5815L108.967 6.46227H108.089V11.6788C108.089 11.8799 108.154 12.0324 108.284 12.1362C108.421 12.2335 108.583 12.2984 108.772 12.3309C108.961 12.3568 109.201 12.3763 109.494 12.3893C109.812 12.4087 110.043 12.4379 110.186 12.4768C110.329 12.5093 110.401 12.5839 110.401 12.7007C110.401 12.7137 110.385 12.7753 110.352 12.8856H103.817C103.791 12.8077 103.778 12.7526 103.778 12.7202C103.778 12.6099 103.849 12.5352 103.992 12.4963C104.135 12.4509 104.353 12.412 104.646 12.3795C104.932 12.3406 105.163 12.3017 105.338 12.2627C105.514 12.2238 105.667 12.1524 105.797 12.0486C105.927 11.9448 105.992 11.8021 105.992 11.6204V1.53771C105.992 1.28467 105.872 1.10624 105.631 1.00243C105.39 0.898618 105.052 0.814271 104.617 0.749389C104.317 0.697483 104.1 0.648822 103.963 0.603404C103.833 0.557987 103.768 0.486616 103.768 0.389293C103.768 0.369828 103.784 0.311434 103.817 0.214111H110.313C110.339 0.298458 110.352 0.353608 110.352 0.379561C110.352 0.48986 110.281 0.567719 110.138 0.613137C109.995 0.658554 109.77 0.703972 109.465 0.749389C109.172 0.794807 108.935 0.840224 108.752 0.885642C108.57 0.931059 108.414 1.00567 108.284 1.10949C108.154 1.2133 108.089 1.35604 108.089 1.53771V5.81993H108.928Z" fill="white"/>
<path d="M129.549 12.9732C129.445 12.9927 129.341 13.0024 129.237 13.0024C129.113 13.0024 128.928 12.9829 128.681 12.944C128.434 12.9051 128.245 12.8856 128.115 12.8856H118.107L118.087 12.4087C118.289 12.2984 118.474 12.2206 118.643 12.1751C118.819 12.1232 119.011 12.0811 119.219 12.0486C119.479 12.0032 119.668 11.9448 119.785 11.8734C119.908 11.8021 120.003 11.6496 120.068 11.416C120.133 11.176 120.165 10.7996 120.165 10.2871V2.9197C120.165 2.41362 120.123 2.04054 120.038 1.80048C119.96 1.56042 119.843 1.39497 119.687 1.30413C119.531 1.20681 119.271 1.103 118.907 0.992697C118.848 0.973233 118.735 0.937547 118.565 0.885642C118.403 0.833736 118.244 0.775342 118.087 0.71046L118.107 0.214111H128.057C128.148 0.214111 128.245 0.207623 128.349 0.194647C128.46 0.18167 128.538 0.171938 128.583 0.16545C128.778 0.133008 128.954 0.116788 129.11 0.116788C129.247 0.116788 129.367 0.129764 129.471 0.155717V3.18247L128.964 3.20194C128.853 3.09164 128.762 2.96836 128.691 2.83211C128.619 2.69585 128.538 2.51743 128.447 2.29683C128.317 1.97242 128.187 1.71938 128.057 1.53771C127.933 1.35604 127.748 1.22303 127.501 1.13868C127.136 1.02189 126.684 0.94728 126.145 0.914839C125.605 0.882398 124.981 0.866177 124.272 0.866177C123.439 0.866177 122.783 0.895374 122.301 0.953768C122.275 1.24574 122.262 1.57988 122.262 1.9562V5.90752H125.072C125.585 5.90752 125.969 5.86859 126.223 5.79073C126.476 5.71288 126.671 5.58636 126.808 5.41117C126.951 5.23599 127.146 4.92456 127.393 4.47687L127.54 4.2141H128.096V8.38927L127.54 8.41846C127.331 7.86048 127.065 7.42577 126.74 7.11433C126.421 6.8029 125.992 6.64718 125.452 6.64718H122.262V9.92697C122.262 10.6082 122.34 11.1111 122.496 11.4355C122.659 11.7599 122.89 11.9708 123.189 12.0681C123.495 12.1589 123.927 12.2043 124.486 12.2043H125.442C126.262 12.2043 126.967 12.1135 127.559 11.9318C128.157 11.7437 128.6 11.3641 128.886 10.7931L129.022 10.4914C129.139 10.2384 129.234 10.0502 129.305 9.92697C129.377 9.79721 129.468 9.67393 129.578 9.55715H130.193L129.549 12.9732Z" fill="white"/>
<path d="M137.723 7.61068C137.567 7.3771 137.434 7.20517 137.323 7.09487C137.219 6.98457 137.092 6.90022 136.943 6.84183C136.793 6.78343 136.588 6.74775 136.328 6.73477L135.714 6.69584V10.4428C135.714 10.9099 135.753 11.2538 135.831 11.4744C135.915 11.695 136.026 11.841 136.162 11.9124C136.306 11.9837 136.517 12.0421 136.796 12.0875C136.998 12.12 137.177 12.1557 137.333 12.1946C137.489 12.2335 137.652 12.2952 137.821 12.3795L137.801 12.8856H131.627L131.607 12.3795C131.783 12.2822 131.945 12.2141 132.095 12.1751C132.251 12.1297 132.43 12.0908 132.631 12.0584C132.891 12.0194 133.083 11.9643 133.207 11.8929C133.337 11.815 133.438 11.6496 133.509 11.3966C133.581 11.1435 133.617 10.7412 133.617 10.1897V2.81264C133.617 2.35198 133.578 2.0081 133.499 1.78102C133.421 1.54744 133.308 1.38848 133.158 1.30413C133.015 1.2133 132.787 1.11922 132.475 1.02189C132.144 0.931059 131.854 0.830492 131.607 0.720192L131.627 0.214111H136.123C137.339 0.214111 138.403 0.269261 139.313 0.379561C140.224 0.48986 141.036 0.78183 141.752 1.25547C142.474 1.72911 142.835 2.45903 142.835 3.44524C142.835 4.05514 142.662 4.58393 142.318 5.03161C141.979 5.47281 141.54 5.81993 141.001 6.07297C140.467 6.32601 139.895 6.49795 139.284 6.58878C139.362 6.6926 139.749 7.23112 140.445 8.20435C140.958 8.93103 141.394 9.53768 141.752 10.0243C142.116 10.5109 142.477 10.9683 142.835 11.3966C143.049 11.6236 143.241 11.8021 143.41 11.9318C143.579 12.0616 143.79 12.1654 144.044 12.2433C144.298 12.3211 144.616 12.3601 145 12.3601V12.9051C144.356 13.0608 143.784 13.1386 143.283 13.1386C142.594 13.1386 141.96 12.9278 141.381 12.506C140.809 12.0843 140.311 11.5847 139.889 11.0073C139.472 10.4298 138.995 9.6934 138.455 8.79802C138.136 8.25301 137.892 7.85723 137.723 7.61068ZM136.201 6.04377C137.034 6.04377 137.752 5.99511 138.357 5.89779C138.962 5.80047 139.479 5.57013 139.908 5.20679C140.344 4.84345 140.562 4.2952 140.562 3.56203C140.562 2.75749 140.328 2.16382 139.859 1.78102C139.398 1.39821 138.855 1.16464 138.23 1.08029C137.606 0.989453 136.839 0.944036 135.928 0.944036H135.714V6.04377H136.201Z" fill="white"/>
<path d="M50.9492 25.7477C50.884 25.6827 50.8138 25.5927 50.7387 25.4777C50.6635 25.3577 50.5908 25.2352 50.5207 25.1102C50.5057 25.0852 50.4656 25.0177 50.4004 24.9077C50.3353 24.7977 50.2751 24.7027 50.22 24.6227C50.1649 24.5427 50.1123 24.4777 50.0622 24.4277C49.7264 24.0928 49.3531 23.8428 48.9422 23.6778C48.5362 23.5128 48.1078 23.4303 47.6568 23.4303C47.0053 23.4303 46.3965 23.6003 45.8302 23.9403C45.2689 24.2752 44.8179 24.7652 44.4771 25.4102C44.1414 26.0552 43.9735 26.8202 43.9735 27.7052C43.9735 28.6101 44.1364 29.4026 44.4621 30.0826C44.7929 30.7576 45.2589 31.2801 45.8602 31.65C46.4666 32.015 47.1707 32.1975 47.9725 32.1975C48.654 32.1975 49.2579 32.0575 49.784 31.7775C50.3152 31.4925 50.7262 31.0751 51.0168 30.5251L51.3851 30.5776L51.3175 31.995C50.7713 32.3 50.1398 32.545 49.4232 32.73C48.7116 32.91 48.0477 33 47.4313 33C46.4491 33 45.5621 32.7975 44.7703 32.3925C43.9785 31.9875 43.3546 31.4075 42.8986 30.6526C42.4426 29.8976 42.2146 29.0151 42.2146 28.0051C42.2146 27.0502 42.4476 26.1802 42.9136 25.3952C43.3797 24.6102 44.0412 23.9903 44.8981 23.5353C45.755 23.0803 46.7447 22.8528 47.8672 22.8528C48.8945 22.8528 49.9369 23.0578 50.9943 23.4678L51.3024 25.7327L50.9492 25.7477Z" fill="white"/>
<path d="M55.0684 28.8151L54.9256 29.1751C54.7001 29.7601 54.5222 30.2426 54.3919 30.6226C54.2616 30.9976 54.1964 31.2875 54.1964 31.4925C54.1964 31.6725 54.2616 31.82 54.3919 31.935C54.5272 32.05 54.68 32.135 54.8504 32.19C55.0258 32.245 55.2388 32.2975 55.4893 32.3475L55.6321 32.3775V32.805H52.0842V32.415C52.1544 32.36 52.2245 32.315 52.2947 32.28C52.3698 32.24 52.4625 32.1975 52.5728 32.1525C52.7482 32.0825 52.8885 32.01 52.9937 31.935C53.104 31.86 53.2017 31.7425 53.2869 31.5825C53.337 31.4825 53.3871 31.37 53.4372 31.2451C53.4923 31.1151 53.5274 31.0301 53.5425 30.9901L53.6327 30.7576L56.444 23.5728C56.464 23.5178 56.479 23.4228 56.4891 23.2878C56.4941 23.1878 56.5016 23.1078 56.5116 23.0478C56.5266 22.9828 56.5517 22.9253 56.5868 22.8753C56.8323 22.8753 57.0428 22.9003 57.2182 22.9503C57.3986 23.0003 57.579 23.0928 57.7594 23.2278L61.2096 31.485C61.2748 31.64 61.35 31.765 61.4351 31.86C61.5203 31.95 61.608 32.02 61.6982 32.07C61.7934 32.115 61.9212 32.17 62.0816 32.235C62.2169 32.28 62.3597 32.34 62.5101 32.415L62.495 32.805H58.1202L58.1052 32.415C58.3407 32.345 58.5412 32.275 58.7065 32.205C58.8769 32.135 59.0298 32.0375 59.1651 31.9125C59.3004 31.7875 59.368 31.635 59.368 31.455C59.368 31.255 59.1175 30.5126 58.6163 29.2276C58.5863 29.1526 58.5562 29.0801 58.5261 29.0101C58.5011 28.9401 58.4785 28.8751 58.4585 28.8151H55.0684ZM56.6995 24.4652L55.324 28.1551H58.1804L56.6995 24.4652Z" fill="white"/>
<path d="M63.9082 29.7901C63.9583 29.8751 63.9984 29.9626 64.0285 30.0526C64.0635 30.1426 64.1011 30.2601 64.1412 30.4051C64.1612 30.4551 64.1788 30.5126 64.1938 30.5776C64.3692 31.1526 64.7025 31.595 65.1936 31.905C65.6847 32.215 66.2459 32.37 66.8773 32.37C67.2081 32.37 67.5288 32.3125 67.8395 32.1975C68.1552 32.0775 68.4133 31.9 68.6137 31.665C68.8192 31.425 68.9219 31.1351 68.9219 30.7951C68.9219 30.5001 68.8167 30.2251 68.6062 29.9701C68.4007 29.7151 68.1427 29.4876 67.832 29.2876C67.5263 29.0826 67.1028 28.8301 66.5616 28.5301C65.9252 28.1801 65.409 27.8701 65.0132 27.6002C64.6173 27.3302 64.2815 27.0102 64.0059 26.6402C63.7303 26.2652 63.5925 25.8427 63.5925 25.3727C63.5925 24.7927 63.7553 24.3152 64.0811 23.9403C64.4118 23.5603 64.8328 23.2853 65.3439 23.1153C65.8601 22.9403 66.4038 22.8528 66.9751 22.8528C67.4662 22.8528 67.9548 22.9128 68.4408 23.0328C68.9319 23.1528 69.398 23.3253 69.839 23.5503L69.9367 25.6877H69.4706C69.4105 25.5727 69.3404 25.3902 69.2602 25.1402L69.185 24.9227C69.0146 24.4327 68.719 24.0628 68.298 23.8128C67.8821 23.5578 67.401 23.4303 66.8548 23.4303C66.5742 23.4303 66.291 23.4778 66.0054 23.5728C65.7197 23.6678 65.4792 23.8153 65.2838 24.0153C65.0933 24.2102 64.9981 24.4527 64.9981 24.7427C64.9981 25.0127 65.0984 25.2652 65.2988 25.5002C65.4992 25.7352 65.7473 25.9502 66.043 26.1452C66.3386 26.3352 66.747 26.5752 67.2682 26.8652C67.9347 27.2352 68.4734 27.5627 68.8843 27.8476C69.3003 28.1276 69.6536 28.4676 69.9442 28.8676C70.2399 29.2676 70.3877 29.7201 70.3877 30.2251C70.3877 30.8501 70.2148 31.3725 69.869 31.7925C69.5233 32.2075 69.0748 32.5125 68.5235 32.7075C67.9773 32.9025 67.396 33 66.7796 33C66.2284 33 65.6346 32.9325 64.9981 32.7975C64.3667 32.6575 63.8556 32.4675 63.4647 32.2275V29.8051L63.9082 29.7901Z" fill="white"/>
<path d="M75.0406 30.8551C75.0406 31.2351 75.0732 31.515 75.1383 31.695C75.2085 31.875 75.3012 31.995 75.4165 32.055C75.5367 32.115 75.7247 32.1675 75.9802 32.2125C76.2759 32.2625 76.539 32.3275 76.7695 32.4075L76.7545 32.805H71.7558V32.415C71.9011 32.35 72.0314 32.305 72.1466 32.28C72.2669 32.25 72.4173 32.22 72.5977 32.19C72.8232 32.16 72.9885 32.1175 73.0938 32.0625C73.199 32.0025 73.2792 31.8725 73.3343 31.6725C73.3944 31.4725 73.4245 31.1551 73.4245 30.7201V25.0802C73.4245 24.6702 73.3894 24.3677 73.3193 24.1728C73.2491 23.9778 73.1564 23.8528 73.0411 23.7978C72.9309 23.7428 72.7655 23.7003 72.545 23.6703C72.3646 23.6403 72.2143 23.6103 72.094 23.5803C71.9788 23.5503 71.856 23.4978 71.7257 23.4228L71.7407 23.0403H76.7244L76.7394 23.4303C76.6342 23.4703 76.4839 23.5128 76.2884 23.5578C76.0128 23.6278 75.7923 23.6978 75.6269 23.7678C75.4616 23.8378 75.3213 23.9478 75.206 24.0978C75.0958 24.2428 75.0406 24.4427 75.0406 24.6977V30.8551Z" fill="white"/>
<path d="M79.7161 24.6227C79.5858 24.4127 79.4505 24.2452 79.3102 24.1203C79.1699 23.9953 79.0296 23.9003 78.8893 23.8353C78.7489 23.7703 78.561 23.6978 78.3255 23.6178C78.1 23.5428 77.9246 23.4803 77.7993 23.4303V23.0403H80.4227L87.496 30.3376V25.6202C87.496 25.1452 87.4284 24.7127 87.2931 24.3227C87.238 24.1628 87.1628 24.0378 87.0676 23.9478C86.9724 23.8578 86.8696 23.7928 86.7594 23.7528C86.6491 23.7128 86.5013 23.6703 86.3159 23.6253C86.2858 23.6153 86.2082 23.5953 86.0829 23.5653C85.9626 23.5303 85.8524 23.4878 85.7521 23.4378C85.7521 23.3078 85.7596 23.1753 85.7747 23.0403H89.7361V23.4453C89.5957 23.5103 89.4504 23.5728 89.3001 23.6328C88.9343 23.7928 88.6812 23.9253 88.5409 24.0303C88.4006 24.1353 88.3003 24.3002 88.2402 24.5252C88.1851 24.7452 88.155 25.1077 88.15 25.6127C88.15 25.8677 88.145 26.2452 88.135 26.7452C88.13 27.1252 88.1249 27.6002 88.1199 28.1701C88.1149 28.7351 88.1124 29.3976 88.1124 30.1576C88.1124 30.4876 88.1425 30.9776 88.2026 31.6275C88.2527 32.1775 88.2803 32.5925 88.2853 32.8725C88.1901 32.9075 88.0673 32.925 87.917 32.925C87.7566 32.925 87.6138 32.9075 87.4885 32.8725C87.1277 32.4325 86.7168 31.965 86.2558 31.47L80.3175 25.2377V30.5026C80.3175 30.8376 80.36 31.1751 80.4452 31.515C80.4853 31.685 80.558 31.8175 80.6632 31.9125C80.7685 32.0025 80.8812 32.0675 81.0015 32.1075C81.1268 32.1475 81.2946 32.1875 81.5051 32.2275C81.7958 32.2725 82.0112 32.3325 82.1516 32.4075C82.1516 32.5375 82.144 32.67 82.129 32.805H77.8895C77.8795 32.715 77.8745 32.58 77.8745 32.4L78.2203 32.31C78.541 32.23 78.794 32.1525 78.9795 32.0775C79.1699 32.0025 79.3327 31.88 79.468 31.71C79.6084 31.54 79.691 31.3075 79.7161 31.0126V24.6227Z" fill="white"/>
<path d="M96.2907 22.8528C97.2328 22.8528 98.0973 23.0628 98.884 23.4828C99.6708 23.9028 100.295 24.5002 100.756 25.2752C101.222 26.0452 101.455 26.9352 101.455 27.9451C101.455 28.9351 101.214 29.8151 100.733 30.5851C100.257 31.35 99.6132 31.945 98.8014 32.37C97.9895 32.79 97.1026 33 96.1404 33C95.2534 33 94.4241 32.7975 93.6523 32.3925C92.8806 31.9875 92.2592 31.4075 91.7881 30.6526C91.3221 29.8976 91.0891 29.0226 91.0891 28.0276C91.0891 26.9327 91.3346 25.9952 91.8257 25.2152C92.3218 24.4352 92.9658 23.8478 93.7576 23.4528C94.5543 23.0528 95.3987 22.8528 96.2907 22.8528ZM96.5388 32.4225C97.1401 32.4225 97.6814 32.2625 98.1624 31.9425C98.6435 31.6225 99.0193 31.1601 99.29 30.5551C99.5656 29.9501 99.7034 29.2376 99.7034 28.4176C99.7034 27.4877 99.548 26.6452 99.2373 25.8902C98.9266 25.1302 98.4907 24.5302 97.9294 24.0903C97.3732 23.6503 96.7392 23.4303 96.0276 23.4303C95.4413 23.4303 94.9051 23.5828 94.419 23.8878C93.938 24.1877 93.5546 24.6377 93.269 25.2377C92.9833 25.8377 92.8405 26.5602 92.8405 27.4052C92.8405 28.3451 92.9984 29.1976 93.3141 29.9626C93.6298 30.7276 94.0683 31.33 94.6295 31.77C95.1958 32.205 95.8322 32.4225 96.5388 32.4225Z" fill="white"/>
</svg>
