<svg width="198" height="32" viewBox="0 0 198 32" fill="none" xmlns="http://www.w3.org/2000/svg">
<path d="M9.39293 7.89757C10.7518 7.89757 11.9822 8.21893 13.084 8.86165C14.2042 9.48601 15.0856 10.3858 15.7283 11.5611C16.3894 12.718 16.72 14.0677 16.72 15.6102C16.72 17.1528 16.3894 18.5117 15.7283 19.6869C15.0856 20.8438 14.2042 21.7437 13.084 22.3864C11.9822 23.0107 10.7518 23.3229 9.39293 23.3229C7.6484 23.3229 6.26195 22.7996 5.2336 21.7528V28.4188H0V8.14548H4.98569V9.63292C5.95896 8.47602 7.42804 7.89757 9.39293 7.89757ZM8.29112 19.1636C9.2093 19.1636 9.9622 18.8514 10.5498 18.227C11.1375 17.5843 11.4313 16.7121 11.4313 15.6102C11.4313 14.5084 11.1375 13.6453 10.5498 13.021C9.9622 12.3783 9.2093 12.0569 8.29112 12.0569C7.37294 12.0569 6.62004 12.3783 6.03241 13.021C5.44478 13.6453 5.15096 14.5084 5.15096 15.6102C5.15096 16.7121 5.44478 17.5843 6.03241 18.227C6.62004 18.8514 7.37294 19.1636 8.29112 19.1636Z" fill="white"/>
<path d="M25.1927 7.89757C27.6718 7.89757 29.5632 8.46684 30.867 9.60537C32.1708 10.7255 32.8227 12.4517 32.8227 14.7839V23.075H27.9472V21.1468C27.1943 22.5976 25.7253 23.3229 23.54 23.3229C22.3831 23.3229 21.3823 23.1209 20.5376 22.7169C19.6928 22.3129 19.0501 21.7712 18.6094 21.0917C18.187 20.3939 17.9759 19.6043 17.9759 18.7229C17.9759 17.3089 18.5176 16.2162 19.601 15.445C20.6845 14.6553 22.3556 14.2605 24.6143 14.2605H27.5891C27.4973 12.6813 26.4414 11.8916 24.4214 11.8916C23.7053 11.8916 22.9799 12.011 22.2454 12.2497C21.5108 12.4701 20.8865 12.7823 20.3723 13.1863L18.6094 9.63292C19.4358 9.08202 20.4366 8.65965 21.6118 8.36584C22.8055 8.05366 23.9991 7.89757 25.1927 7.89757ZM24.9999 20.0175C25.6059 20.0175 26.1384 19.8706 26.5975 19.5768C27.0566 19.2829 27.3872 18.8514 27.5891 18.2821V16.9875H25.3304C23.8063 16.9875 23.0442 17.4925 23.0442 18.5025C23.0442 18.9616 23.2186 19.3289 23.5675 19.6043C23.9165 19.8798 24.3939 20.0175 24.9999 20.0175Z" fill="white"/>
<path d="M41.1119 9.93592C41.6445 9.25647 42.3331 8.75147 43.1778 8.42093C44.0409 8.07202 45.0234 7.89757 46.1252 7.89757V12.6078C45.6477 12.5527 45.2529 12.5252 44.9407 12.5252C43.8205 12.5252 42.9391 12.8282 42.2964 13.4342C41.672 14.0402 41.3598 14.9675 41.3598 16.2162V23.075H36.1262V8.14548H41.1119V9.93592Z" fill="white"/>
<path d="M59.0441 22.469C58.6034 22.7445 58.0617 22.9556 57.4189 23.1025C56.7946 23.2495 56.1243 23.3229 55.4081 23.3229C53.4616 23.3229 51.965 22.8455 50.9183 21.8906C49.8715 20.9357 49.3482 19.5125 49.3482 17.621V12.6078H47.1721V8.69638H49.3482V4.8125H54.5818V8.69638H57.9974V12.6078H54.5818V17.566C54.5818 18.0985 54.7195 18.5209 54.995 18.833C55.2888 19.1269 55.6744 19.2738 56.1519 19.2738C56.7579 19.2738 57.2904 19.1177 57.7495 18.8055L59.0441 22.469Z" fill="white"/>
<path d="M76.5216 8.14548L70.076 23.681C69.3231 25.5174 68.4049 26.8028 67.3214 27.5373C66.238 28.2902 64.9158 28.6667 63.3549 28.6667C62.5653 28.6667 61.7665 28.5381 60.9585 28.2811C60.1689 28.0423 59.5261 27.721 59.0303 27.317L60.8483 23.6535C61.1421 23.9289 61.491 24.1401 61.895 24.287C62.3174 24.4523 62.7398 24.5349 63.1621 24.5349C63.6579 24.5349 64.0619 24.4339 64.3741 24.2319C64.7047 24.0299 64.9801 23.7085 65.2005 23.2678L58.81 8.14548H64.1813L67.8448 17.263L71.5359 8.14548H76.5216Z" fill="white"/>
<path d="M112.723 23.3318C111.07 23.3318 109.592 23.0012 108.288 22.3402C106.984 21.6791 105.965 20.7609 105.231 19.5856C104.514 18.4104 104.156 17.079 104.156 15.5916C104.156 14.1041 104.514 12.782 105.231 11.6251C105.965 10.4498 106.984 9.5408 108.288 8.89808C109.592 8.23699 111.07 7.90645 112.723 7.90645C114.412 7.90645 115.872 8.27372 117.103 9.00826C118.333 9.72443 119.205 10.7252 119.719 12.0107L115.67 14.0766C114.991 12.736 113.999 12.0658 112.695 12.0658C111.759 12.0658 110.978 12.378 110.354 13.0023C109.748 13.6267 109.445 14.4898 109.445 15.5916C109.445 16.7117 109.748 17.5932 110.354 18.2359C110.978 18.8603 111.759 19.1725 112.695 19.1725C113.999 19.1725 114.991 18.5022 115.67 17.1617L119.719 19.2275C119.205 20.513 118.333 21.523 117.103 22.2575C115.872 22.9737 114.412 23.3318 112.723 23.3318Z" fill="#FF008A"/>
<path d="M128.053 7.90645C130.532 7.90645 132.423 8.47572 133.727 9.61425C135.031 10.7344 135.683 12.4606 135.683 14.7928V23.0839H130.807V21.1557C130.054 22.6064 128.585 23.3318 126.4 23.3318C125.243 23.3318 124.242 23.1298 123.398 22.7258C122.553 22.3218 121.91 21.7801 121.47 21.1006C121.047 20.4028 120.836 19.6132 120.836 18.7317C120.836 17.3177 121.378 16.2251 122.461 15.4538C123.545 14.6642 125.216 14.2694 127.474 14.2694H130.449C130.357 12.6901 129.302 11.9005 127.282 11.9005C126.565 11.9005 125.84 12.0199 125.105 12.2586C124.371 12.479 123.747 12.7911 123.232 13.1951L121.47 9.6418C122.296 9.09089 123.297 8.66853 124.472 8.37472C125.666 8.06254 126.859 7.90645 128.053 7.90645ZM127.86 20.0264C128.466 20.0264 128.999 19.8795 129.458 19.5856C129.917 19.2918 130.247 18.8603 130.449 18.291V16.9964H128.191C126.666 16.9964 125.904 17.5014 125.904 18.5114C125.904 18.9705 126.079 19.3377 126.428 19.6132C126.777 19.8886 127.254 20.0264 127.86 20.0264Z" fill="#FF008A"/>
<path d="M144.413 23.3318C143.164 23.3318 141.934 23.1941 140.722 22.9186C139.51 22.6248 138.536 22.2483 137.802 21.7893L139.372 18.2084C140.051 18.6307 140.859 18.9705 141.796 19.2275C142.733 19.4663 143.66 19.5856 144.578 19.5856C145.423 19.5856 146.02 19.503 146.368 19.3377C146.736 19.1541 146.919 18.897 146.919 18.5665C146.919 18.2359 146.699 18.0064 146.258 17.8778C145.836 17.7309 145.156 17.5932 144.22 17.4647C143.026 17.3177 142.007 17.1249 141.162 16.8862C140.336 16.6475 139.62 16.2068 139.014 15.564C138.408 14.9213 138.105 14.0215 138.105 12.8646C138.105 11.9097 138.39 11.065 138.959 10.3304C139.528 9.57753 140.354 8.9899 141.438 8.56753C142.54 8.12681 143.853 7.90645 145.377 7.90645C146.46 7.90645 147.535 8.01663 148.6 8.23699C149.665 8.45735 150.555 8.76953 151.272 9.17353L149.701 12.7269C148.379 11.9923 146.947 11.6251 145.404 11.6251C144.578 11.6251 143.972 11.7261 143.586 11.9281C143.201 12.1117 143.008 12.3596 143.008 12.6718C143.008 13.0207 143.219 13.2686 143.642 13.4155C144.064 13.544 144.762 13.6818 145.735 13.8287C146.965 14.0123 147.984 14.2235 148.792 14.4622C149.6 14.7009 150.298 15.1417 150.886 15.7844C151.492 16.4088 151.795 17.2902 151.795 18.4287C151.795 19.3653 151.51 20.21 150.941 20.9629C150.372 21.6974 149.527 22.2759 148.407 22.6982C147.305 23.1206 145.974 23.3318 144.413 23.3318Z" fill="#FF008A"/>
<path d="M154.05 8.15436H159.284V23.0839H154.05V8.15436ZM156.667 6.50164C155.712 6.50164 154.941 6.23537 154.353 5.70283C153.766 5.17029 153.472 4.5092 153.472 3.71957C153.472 2.92994 153.766 2.26885 154.353 1.73631C154.941 1.20377 155.712 0.9375 156.667 0.9375C157.622 0.9375 158.393 1.19459 158.981 1.70877C159.568 2.20458 159.862 2.8473 159.862 3.63693C159.862 4.46329 159.568 5.15192 158.981 5.70283C158.393 6.23537 157.622 6.50164 156.667 6.50164Z" fill="#FF008A"/>
<path d="M172.408 7.90645C174.263 7.90645 175.751 8.45735 176.871 9.55916C178.009 10.661 178.579 12.3229 178.579 14.5449V23.0839H173.345V15.3988C173.345 13.3604 172.528 12.3412 170.893 12.3412C169.994 12.3412 169.268 12.6351 168.717 13.2227C168.185 13.8103 167.919 14.6918 167.919 15.867V23.0839H162.685V8.15436H167.671V9.77953C168.258 9.17353 168.956 8.71444 169.764 8.40226C170.572 8.07172 171.454 7.90645 172.408 7.90645Z" fill="#FF008A"/>
<path d="M189.572 23.3318C187.974 23.3318 186.533 23.0012 185.247 22.3402C183.962 21.6791 182.952 20.7609 182.217 19.5856C181.501 18.4104 181.143 17.079 181.143 15.5916C181.143 14.1225 181.501 12.8003 182.217 11.6251C182.952 10.4498 183.953 9.5408 185.22 8.89808C186.505 8.23699 187.956 7.90645 189.572 7.90645C191.188 7.90645 192.639 8.23699 193.924 8.89808C195.21 9.5408 196.21 10.4498 196.927 11.6251C197.643 12.782 198.001 14.1041 198.001 15.5916C198.001 17.079 197.643 18.4104 196.927 19.5856C196.21 20.7609 195.21 21.6791 193.924 22.3402C192.639 23.0012 191.188 23.3318 189.572 23.3318ZM189.572 19.1725C190.49 19.1725 191.243 18.8603 191.831 18.2359C192.418 17.5932 192.712 16.7117 192.712 15.5916C192.712 14.4898 192.418 13.6267 191.831 13.0023C191.243 12.378 190.49 12.0658 189.572 12.0658C188.654 12.0658 187.901 12.378 187.313 13.0023C186.726 13.6267 186.432 14.4898 186.432 15.5916C186.432 16.7117 186.726 17.5932 187.313 18.2359C187.901 18.8603 188.654 19.1725 189.572 19.1725Z" fill="#FF008A"/>
<path d="M79.1953 16.7559C83.589 19.4451 87.935 24.8344 90.3856 31.0666V2.44531C87.935 8.67748 83.5884 14.0667 79.1953 16.7559Z" fill="#FF0089"/>
<path d="M90.3828 31.0666C92.8334 24.8344 97.18 19.4451 101.573 16.7559C97.1794 14.0667 92.8334 8.67748 90.3828 2.44531V31.0666Z" fill="white"/>
</svg>
