<svg width="178" height="28" viewBox="0 0 178 28" fill="none" xmlns="http://www.w3.org/2000/svg">
<path d="M12.9789 27.824C10.3933 27.824 8.15338 27.44 6.25904 26.6721C4.36468 25.9041 2.87992 24.7393 1.80475 23.1778C0.729581 21.6162 0.140796 19.645 0.0383989 17.2643C0.0127996 16.2147 0 15.0756 0 13.8468C0 12.618 0.0127996 11.4533 0.0383989 10.3525C0.140796 8.07415 0.729581 6.1926 1.80475 4.70784C2.90552 3.19748 4.41588 2.07111 6.33583 1.32873C8.25578 0.560748 10.4701 0.176758 12.9789 0.176758C15.0012 0.176758 16.8188 0.407152 18.4315 0.86794C20.0443 1.30313 21.4266 1.91751 22.5786 2.71109C23.7306 3.50467 24.6138 4.42625 25.2281 5.47582C25.8425 6.49979 26.1625 7.58776 26.1881 8.73973C26.1881 8.97013 26.0985 9.17492 25.9193 9.35412C25.7657 9.50771 25.5737 9.58451 25.3433 9.58451H16.8572C16.5756 9.58451 16.3452 9.54611 16.166 9.46931C16.0124 9.39252 15.8716 9.29012 15.7436 9.16212C15.6412 9.03412 15.4876 8.85493 15.2828 8.62454C15.1036 8.36854 14.8348 8.15095 14.4764 7.97175C14.118 7.76696 13.6188 7.66456 12.9789 7.66456C12.0317 7.66456 11.3149 7.90775 10.8285 8.39414C10.3421 8.85493 10.0733 9.57171 10.0221 10.5445C9.94534 12.6692 9.94534 14.8452 10.0221 17.0723C10.0733 18.2243 10.3677 19.0563 10.9053 19.5682C11.4429 20.0802 12.1853 20.3362 13.1325 20.3362C13.7724 20.3362 14.3356 20.2466 14.822 20.0674C15.3084 19.8882 15.6924 19.5938 15.974 19.1843C16.2556 18.7747 16.3964 18.2499 16.3964 17.6099V17.5715H14.5916C14.31 17.5715 14.0668 17.4691 13.862 17.2643C13.6572 17.0595 13.5548 16.8163 13.5548 16.5347V12.2724C13.5548 11.9908 13.6572 11.7477 13.862 11.5429C14.0668 11.3381 14.31 11.2357 14.5916 11.2357H25.1513C25.4329 11.2357 25.6761 11.3381 25.8809 11.5429C26.0857 11.7477 26.1881 11.9908 26.1881 12.2724V17.2643C26.1881 19.5682 25.6249 21.501 24.4986 23.0626C23.3722 24.6241 21.8106 25.8145 19.8139 26.6337C17.8427 27.4272 15.5644 27.824 12.9789 27.824Z" fill="white"/>
<path d="M39.5867 27.824C36.2331 27.824 33.558 27.0049 31.5613 25.3665C29.5901 23.7025 28.6045 21.0786 28.6045 17.4947C28.6045 17.4435 28.6045 17.3923 28.6045 17.3411C28.6045 17.2899 28.6045 17.2515 28.6045 17.2259C28.6557 15.0244 29.1293 13.1684 30.0253 11.6581C30.9469 10.1477 32.2141 9.00852 33.8268 8.24055C35.4652 7.47257 37.3723 7.08857 39.5483 7.08857C42.057 7.08857 44.1177 7.57496 45.7305 8.54774C47.3433 9.49491 48.5336 10.7621 49.3016 12.3492C50.0952 13.9108 50.492 15.6387 50.492 17.5331V18.6851C50.492 18.9667 50.3896 19.2099 50.1848 19.4146C49.98 19.6194 49.7368 19.7218 49.4552 19.7218H38.0123C38.0123 19.7474 38.0123 19.773 38.0123 19.7986C38.0123 19.8242 38.0123 19.8626 38.0123 19.9138C38.0123 20.4258 38.0507 20.861 38.1275 21.2194C38.2299 21.5522 38.3963 21.8082 38.6267 21.9874C38.8571 22.1666 39.1515 22.2562 39.5099 22.2562C39.6635 22.2562 39.7915 22.2306 39.8938 22.1794C40.0218 22.1282 40.137 22.0514 40.2394 21.949C40.3674 21.821 40.4954 21.693 40.6234 21.565C40.8538 21.3346 41.0458 21.1938 41.1994 21.1426C41.353 21.0658 41.5834 21.0274 41.8906 21.0274H49.148C49.404 21.0274 49.6088 21.1042 49.7624 21.2578C49.9416 21.4114 50.0184 21.6162 49.9928 21.8722C49.9672 22.3586 49.7368 22.9474 49.3016 23.6385C48.892 24.3041 48.2648 24.9569 47.42 25.5969C46.5753 26.2369 45.5001 26.7745 44.1945 27.2096C42.889 27.6192 41.353 27.824 39.5867 27.824ZM38.0123 14.922H41.0842V14.8836C41.0842 14.3204 41.0202 13.8596 40.8922 13.5012C40.7898 13.1428 40.6234 12.8868 40.393 12.7332C40.1626 12.554 39.881 12.4644 39.5483 12.4644C39.2155 12.4644 38.9339 12.554 38.7035 12.7332C38.4731 12.8868 38.2939 13.1428 38.1659 13.5012C38.0635 13.8596 38.0123 14.3204 38.0123 14.8836V14.922Z" fill="white"/>
<path d="M65.5462 27.44C63.703 27.44 62.0519 27.1968 60.5927 26.7105C59.1591 26.1985 58.02 25.3409 57.1752 24.1377C56.356 22.9346 55.9464 21.2834 55.9464 19.1843V14.1924H52.9129C52.6313 14.1924 52.3881 14.09 52.1833 13.8852C51.9785 13.6804 51.8761 13.4372 51.8761 13.1556V8.50934C51.8761 8.22775 51.9785 7.98455 52.1833 7.77976C52.3881 7.57496 52.6313 7.47256 52.9129 7.47256H55.9464V1.21353C55.9464 0.931939 56.0488 0.688745 56.2536 0.48395C56.4584 0.279155 56.7016 0.176758 56.9832 0.176758H63.703C63.9846 0.176758 64.2278 0.279155 64.4326 0.48395C64.6374 0.688745 64.7398 0.931939 64.7398 1.21353V7.47256H69.5781C69.8597 7.47256 70.1029 7.57496 70.3076 7.77976C70.5124 7.98455 70.6148 8.22775 70.6148 8.50934V13.1556C70.6148 13.4372 70.5124 13.6804 70.3076 13.8852C70.1029 14.09 69.8597 14.1924 69.5781 14.1924H64.7398V18.4163C64.7398 19.0051 64.8678 19.4786 65.1238 19.837C65.4054 20.1698 65.8278 20.3362 66.3909 20.3362H69.8853C70.1668 20.3362 70.41 20.4386 70.6148 20.6434C70.8196 20.8482 70.922 21.0914 70.922 21.373V26.4033C70.922 26.6849 70.8196 26.9281 70.6148 27.1328C70.41 27.3376 70.1668 27.44 69.8853 27.44H65.5462Z" fill="white"/>
<path d="M85.2151 27.824C82.3736 27.824 80.0313 27.44 78.1881 26.6721C76.345 25.9041 74.9626 24.8929 74.041 23.6385C73.1195 22.3842 72.6331 21.053 72.5819 19.645C72.5819 19.4146 72.6587 19.2227 72.8123 19.0691C72.9915 18.8899 73.1963 18.8003 73.4267 18.8003H80.7225C81.1321 18.8003 81.4392 18.8643 81.644 18.9923C81.8744 19.0947 82.1176 19.2483 82.3736 19.453C82.6296 19.6322 82.8856 19.7986 83.1416 19.9522C83.4232 20.0802 83.7304 20.1826 84.0632 20.2594C84.4216 20.3106 84.8056 20.3362 85.2151 20.3362C86.0855 20.3362 86.7767 20.2466 87.2887 20.0674C87.8263 19.8626 88.0951 19.5938 88.0951 19.2611C88.0951 18.9539 87.9415 18.6979 87.6343 18.4931C87.3527 18.2883 86.8535 18.1091 86.1367 17.9555C85.4199 17.7763 84.4216 17.6099 83.1416 17.4563C81.1193 17.1747 79.3657 16.7011 77.8809 16.0355C76.3962 15.37 75.2442 14.4612 74.425 13.3092C73.6315 12.1316 73.2347 10.6981 73.2347 9.00852C73.2347 7.26777 73.721 5.73181 74.6938 4.40065C75.6922 3.06948 77.0618 2.03271 78.8025 1.29033C80.5689 0.547948 82.6168 0.176758 84.9464 0.176758C86.8663 0.176758 88.5687 0.432751 90.0534 0.944737C91.5382 1.43113 92.7925 2.08391 93.8165 2.90308C94.8405 3.69666 95.6213 4.55424 96.1589 5.47582C96.6964 6.39739 96.978 7.28057 97.0036 8.12535C97.0036 8.35574 96.914 8.56054 96.7348 8.73973C96.5812 8.89333 96.4021 8.97013 96.1973 8.97013H88.5175C88.1591 8.97013 87.8647 8.91893 87.6343 8.81653C87.4295 8.71413 87.2119 8.56054 86.9815 8.35574C86.8535 8.22775 86.6103 8.08695 86.2519 7.93335C85.9191 7.75416 85.4839 7.66456 84.9464 7.66456C84.3064 7.66456 83.8328 7.76696 83.5256 7.97175C83.244 8.15095 83.1032 8.40694 83.1032 8.73973C83.1032 8.97013 83.2184 9.18772 83.4488 9.39251C83.6792 9.59731 84.1016 9.7765 84.716 9.9301C85.3303 10.0837 86.2135 10.2373 87.3655 10.3909C89.9254 10.6981 91.9734 11.1973 93.5093 11.8884C95.0709 12.554 96.1973 13.45 96.8884 14.5764C97.6052 15.7027 97.9636 17.0979 97.9636 18.7619C97.9636 20.6306 97.4004 22.2434 96.2741 23.6001C95.1733 24.9569 93.6629 26.0065 91.743 26.7489C89.823 27.4656 87.6471 27.824 85.2151 27.824Z" fill="#FEE63B"/>
<path d="M101.43 27.44C101.148 27.44 100.905 27.3376 100.7 27.1328C100.495 26.9281 100.393 26.6849 100.393 26.4033V1.21353C100.393 0.931939 100.495 0.688745 100.7 0.48395C100.905 0.279155 101.148 0.176758 101.43 0.176758H108.303C108.585 0.176758 108.828 0.279155 109.033 0.48395C109.238 0.688745 109.34 0.931939 109.34 1.21353V26.4033C109.34 26.6849 109.238 26.9281 109.033 27.1328C108.828 27.3376 108.585 27.44 108.303 27.44H101.43Z" fill="#FEE63B"/>
<path d="M123.403 27.824C121.048 27.824 119.064 27.504 117.451 26.8641C115.839 26.2241 114.597 25.2641 113.727 23.9841C112.882 22.7042 112.396 21.1298 112.268 19.2611C112.242 18.6723 112.229 18.0707 112.229 17.4563C112.229 16.8163 112.242 16.2147 112.268 15.6516C112.396 13.7572 112.92 12.1828 113.842 10.9285C114.763 9.64851 116.031 8.68853 117.643 8.04855C119.256 7.40857 121.176 7.08857 123.403 7.08857C125.63 7.08857 127.55 7.40857 129.163 8.04855C130.776 8.68853 132.043 9.64851 132.965 10.9285C133.886 12.1828 134.411 13.7572 134.539 15.6516C134.59 16.2147 134.616 16.8163 134.616 17.4563C134.616 18.0707 134.59 18.6723 134.539 19.2611C134.411 21.1298 133.912 22.7042 133.041 23.9841C132.197 25.2641 130.968 26.2241 129.355 26.8641C127.742 27.504 125.758 27.824 123.403 27.824ZM123.403 21.6802C124.146 21.6802 124.606 21.4754 124.786 21.0658C124.965 20.6306 125.08 19.965 125.131 19.0691C125.157 18.6851 125.17 18.1475 125.17 17.4563C125.17 16.7651 125.157 16.2275 125.131 15.8435C125.08 14.9988 124.965 14.3588 124.786 13.9236C124.606 13.4628 124.146 13.2324 123.403 13.2324C122.686 13.2324 122.226 13.4628 122.021 13.9236C121.842 14.3588 121.726 14.9988 121.675 15.8435C121.65 16.2275 121.637 16.7651 121.637 17.4563C121.637 18.1475 121.65 18.6851 121.675 19.0691C121.726 19.965 121.842 20.6306 122.021 21.0658C122.226 21.4754 122.686 21.6802 123.403 21.6802Z" fill="#FEE63B"/>
<path d="M149.806 27.44C147.963 27.44 146.312 27.1968 144.853 26.7105C143.419 26.1985 142.28 25.3409 141.435 24.1377C140.616 22.9346 140.207 21.2834 140.207 19.1843V14.1924H137.173C136.892 14.1924 136.648 14.09 136.444 13.8852C136.239 13.6804 136.136 13.4372 136.136 13.1556V8.50934C136.136 8.22775 136.239 7.98455 136.444 7.77976C136.648 7.57496 136.892 7.47256 137.173 7.47256H140.207V1.21353C140.207 0.931939 140.309 0.688745 140.514 0.48395C140.719 0.279155 140.962 0.176758 141.243 0.176758H147.963C148.245 0.176758 148.488 0.279155 148.693 0.48395C148.898 0.688745 149 0.931939 149 1.21353V7.47256H153.838C154.12 7.47256 154.363 7.57496 154.568 7.77976C154.773 7.98455 154.875 8.22775 154.875 8.50934V13.1556C154.875 13.4372 154.773 13.6804 154.568 13.8852C154.363 14.09 154.12 14.1924 153.838 14.1924H149V18.4163C149 19.0051 149.128 19.4786 149.384 19.837C149.666 20.1698 150.088 20.3362 150.651 20.3362H154.146C154.427 20.3362 154.67 20.4386 154.875 20.6434C155.08 20.8482 155.182 21.0914 155.182 21.373V26.4033C155.182 26.6849 155.08 26.9281 154.875 27.1328C154.67 27.3376 154.427 27.44 154.146 27.44H149.806Z" fill="#FEE63B"/>
<path d="M167.248 27.824C165.405 27.824 163.831 27.6448 162.525 27.2864C161.245 26.9025 160.196 26.4289 159.376 25.8657C158.583 25.2769 157.994 24.6753 157.61 24.0609C157.226 23.4209 157.021 22.845 156.996 22.333C156.97 22.0514 157.047 21.8082 157.226 21.6034C157.431 21.3986 157.661 21.2962 157.917 21.2962H164.599C164.624 21.2962 164.65 21.2962 164.676 21.2962C164.701 21.2962 164.727 21.2962 164.752 21.2962C165.085 21.3218 165.38 21.437 165.636 21.6418C165.917 21.821 166.199 22.0002 166.48 22.1794C166.788 22.3586 167.133 22.4482 167.517 22.4482C167.722 22.4482 167.914 22.397 168.093 22.2946C168.298 22.1922 168.4 22.0514 168.4 21.8722C168.4 21.6418 168.323 21.437 168.17 21.2578C168.042 21.0786 167.696 20.8994 167.133 20.7202C166.596 20.5154 165.687 20.2978 164.407 20.0674C163.229 19.837 162.103 19.4786 161.028 18.9923C159.952 18.5059 159.069 17.8275 158.378 16.9571C157.713 16.0867 157.38 14.986 157.38 13.6548C157.38 12.554 157.751 11.5045 158.493 10.5061C159.236 9.50771 160.324 8.68853 161.757 8.04855C163.216 7.40857 164.996 7.08857 167.095 7.08857C168.682 7.08857 170.09 7.26777 171.319 7.62616C172.547 7.98455 173.584 8.44534 174.429 9.00852C175.299 9.57171 175.965 10.1733 176.426 10.8133C176.886 11.4533 177.13 12.042 177.155 12.5796C177.181 12.8612 177.104 13.1044 176.925 13.3092C176.746 13.514 176.541 13.6164 176.31 13.6164H170.243C170.192 13.6164 170.128 13.6164 170.051 13.6164C169.975 13.6164 169.911 13.6164 169.859 13.6164C169.501 13.6164 169.181 13.5268 168.899 13.3476C168.618 13.1428 168.336 12.9508 168.055 12.7716C167.773 12.5668 167.44 12.4644 167.056 12.4644C166.877 12.4644 166.698 12.5284 166.519 12.6564C166.365 12.7588 166.288 12.8996 166.288 13.0788C166.288 13.2836 166.365 13.4884 166.519 13.6932C166.672 13.8724 167.044 14.0516 167.632 14.2308C168.221 14.3844 169.181 14.5636 170.512 14.7684C172.355 15.0244 173.827 15.498 174.928 16.1891C176.029 16.8803 176.81 17.6739 177.27 18.5699C177.757 19.4658 178 20.349 178 21.2194C178 22.5762 177.578 23.7537 176.733 24.7521C175.914 25.7505 174.698 26.5185 173.085 27.056C171.498 27.568 169.552 27.824 167.248 27.824Z" fill="#FEE63B"/>
</svg>
