<svg width="97" height="34" viewBox="0 0 97 34" fill="none" xmlns="http://www.w3.org/2000/svg">
<path d="M29.874 14.5861H28.3203V0.484375H30.1194L34.4989 10.5609L38.5241 0.484375H40.3049V14.5861H38.6785V6.18139L38.724 3.66453H38.6785L37.7699 6.19048L35.2712 12.469H33.4267L30.71 6.16322L29.874 3.87351H29.8286L29.874 6.16322V14.5861Z" fill="white"/>
<path d="M43.6305 14.5861H41.9314L47.7101 0.484375H49.5637L54.8973 14.5861H52.9165L51.4536 10.7063H45.2296L43.6305 14.5861ZM45.7839 9.29794H50.9085L48.437 2.74683L45.7839 9.29794Z" fill="white"/>
<path d="M56.5237 14.5861V0.484375H58.3591V13.0323H65.7552V14.5861H56.5237Z" fill="white"/>
<path d="M69.2261 14.5861H67.3907V0.484375H69.2261V14.5861Z" fill="white"/>
<path d="M73.5875 14.5861H71.8975V0.484375H73.7147L80.1568 10.5064L80.7474 11.624L80.711 10.5155V0.484375H82.4011V14.5861H80.602L74.1418 4.51862L73.5512 3.38286L73.5875 4.51862V14.5861Z" fill="white"/>
<path d="M85.7357 14.5861H84.0366L89.8154 0.484375H91.6689L97.0025 14.5861H95.0217L93.5588 10.7063H87.3348L85.7357 14.5861ZM87.8891 9.29794H93.0137L90.5422 2.74683L87.8891 9.29794Z" fill="white"/>
<path d="M36.7053 30.0135H38.4044V30.1044C38.4044 30.6617 38.2106 31.228 37.8229 31.8035C37.4413 32.3789 36.9203 32.7999 36.2601 33.0665C35.5998 33.339 34.8245 33.4753 33.934 33.4753C32.141 33.4753 30.6751 32.8514 29.5363 31.6036C28.3975 30.3558 27.8281 28.487 27.8281 25.9974C27.8281 23.5199 28.3945 21.6543 29.5272 20.4004C30.66 19.1465 32.1319 18.5195 33.9431 18.5195C34.8275 18.5195 35.5998 18.6558 36.2601 18.9284C36.9203 19.1949 37.4413 19.622 37.8229 20.2096C38.2106 20.7911 38.4044 21.3514 38.4044 21.8905V21.9814H36.7053V21.8905C36.7053 21.5452 36.5963 21.2151 36.3782 20.9001C36.1662 20.5791 35.8573 20.3398 35.4514 20.1823C35.0516 20.0187 34.57 19.937 34.0067 19.937C32.565 19.937 31.4898 20.5064 30.7811 21.6452C30.0785 22.784 29.7271 24.2347 29.7271 25.9974C29.7271 27.7783 30.0815 29.2351 30.7902 30.3679C31.4989 31.5006 32.5681 32.067 33.9976 32.067C34.9789 32.067 35.6755 31.8641 36.0874 31.4582C36.4993 31.0524 36.7053 30.6011 36.7053 30.1044V30.0135Z" fill="white"/>
<path d="M41.0848 33.0483H39.3857L45.1645 18.9466H47.0181L52.3516 33.0483H50.3709L48.908 29.1685H42.684L41.0848 33.0483ZM43.2382 27.7601H48.3628L45.8914 21.209L43.2382 27.7601Z" fill="white"/>
<path d="M53.6328 29.8772H55.4682V29.9681C55.4682 30.7495 55.7438 31.2947 56.295 31.6036C56.8463 31.9065 57.5792 32.0579 58.4939 32.0579C59.2935 32.0579 59.9628 31.8247 60.5019 31.3583C61.0471 30.8918 61.3197 30.277 61.3197 29.5138C61.3197 28.8959 61.0865 28.3901 60.62 27.9964C60.1536 27.6087 59.4449 27.221 58.4939 26.8334L57.7579 26.5335C56.7584 26.1216 56.0103 25.7158 55.5136 25.316C55.023 24.9101 54.6565 24.4619 54.4142 23.9712C54.1719 23.4806 54.0507 22.9324 54.0507 22.3266C54.0507 21.2605 54.4263 20.361 55.1774 19.628C55.9346 18.8951 57.1158 18.5286 58.721 18.5286C60.193 18.5286 61.2288 18.8012 61.8285 19.3464C62.4282 19.8915 62.728 20.5276 62.728 21.2545V21.3453H60.8926V21.2545C60.8926 21.0243 60.7987 20.7971 60.6109 20.573C60.4292 20.3489 60.1536 20.1884 59.7841 20.0914C59.4146 19.9885 59.0088 19.937 58.5666 19.937C57.664 19.937 56.9947 20.1641 56.5585 20.6184C56.1284 21.0667 55.9134 21.5785 55.9134 22.154C55.9134 22.5417 56.0164 22.9081 56.2223 23.2534C56.4283 23.5926 56.71 23.8743 57.0673 24.0984C57.4308 24.3226 58.0396 24.6224 58.8937 24.998L59.7568 25.3705C61.1379 25.9702 62.0617 26.6001 62.5281 27.2604C62.9885 27.9207 63.2187 28.6324 63.2187 29.3956C63.2187 30.1044 63.0309 30.7919 62.6553 31.4582C62.2798 32.1185 61.7588 32.6212 61.0925 32.9665C60.4262 33.3057 59.5388 33.4753 58.4303 33.4753C57.3763 33.4753 56.4949 33.3481 55.7862 33.0937C55.0835 32.8454 54.5475 32.4335 54.178 31.858C53.8145 31.2825 53.6328 30.6526 53.6328 29.9681V29.8772Z" fill="white"/>
<path d="M67.0985 33.0483H65.2631V18.9466H67.0985V33.0483Z" fill="white"/>
<path d="M71.4598 33.0483H69.7698V18.9466H71.587L78.0291 28.9686L78.6197 30.0862L78.5833 28.9777V18.9466H80.2734V33.0483H78.4743L72.0141 22.9808L71.4235 21.8451L71.4598 22.9808V33.0483Z" fill="white"/>
<path d="M88.46 33.4753C86.6973 33.4753 85.2586 32.8272 84.1441 31.5309C83.0295 30.2346 82.4722 28.3901 82.4722 25.9974C82.4722 23.6047 83.0295 21.7633 84.1441 20.4731C85.2586 19.1768 86.6973 18.5286 88.46 18.5286C90.2227 18.5286 91.6613 19.1768 92.7759 20.4731C93.8965 21.7633 94.4568 23.6047 94.4568 25.9974C94.4568 28.3901 93.8965 30.2346 92.7759 31.5309C91.6613 32.8272 90.2227 33.4753 88.46 33.4753ZM88.46 32.0579C89.7442 32.0579 90.7467 31.5067 91.4675 30.4042C92.1883 29.2957 92.5488 27.8268 92.5488 25.9974C92.5488 24.1741 92.1883 22.7082 91.4675 21.5997C90.7467 20.4912 89.7442 19.937 88.46 19.937C87.1819 19.937 86.1794 20.4912 85.4525 21.5997C84.7316 22.7082 84.3712 24.1741 84.3712 25.9974C84.3712 27.8268 84.7316 29.2957 85.4525 30.4042C86.1794 31.5067 87.1819 32.0579 88.46 32.0579Z" fill="white"/>
<path d="M10.4747 18.1297C10.5241 18.8643 10.276 19.45 9.84103 19.9598C8.83463 21.1393 7.22162 20.8942 6.52521 19.4625C5.91143 18.2005 6.42141 16.7284 7.68244 16.1223C8.87468 15.5492 10.4004 16.4727 10.4738 17.813C10.4805 17.9344 10.4747 18.0565 10.4747 18.1297ZM8.09442 17.4144C8.08873 17.1646 7.95702 17.0439 7.71078 17.0567C7.40307 17.0726 7.0864 17.4106 7.10333 17.7081C7.11709 17.9504 7.26761 18.0738 7.49896 18.0819C7.76312 18.0911 8.10094 17.7018 8.09442 17.4144Z" fill="#B53481"/>
<path d="M8.59375 22.8941C8.6176 21.891 9.0978 21.2606 9.86902 20.8376C10.8011 20.3265 12.3083 20.961 12.6088 22.2086C12.9284 23.5357 12.3015 24.879 11.0545 25.4498C10.5101 25.699 10.0173 25.5326 9.585 25.1703C8.85196 24.5561 8.63348 23.7198 8.59375 22.8941ZM10.3321 22.2336C10.3203 21.9971 10.211 21.8447 9.96174 21.8435C9.69905 21.8422 9.40666 22.1797 9.42098 22.4589C9.4323 22.68 9.54894 22.8126 9.77574 22.8198C10.0564 22.8286 10.3412 22.5231 10.3321 22.2336Z" fill="#B53481"/>
<path d="M15.4934 18.3667C15.5062 19.3673 14.809 20.3801 13.955 20.695C13.22 20.966 12.3775 20.499 12.0091 19.9786C11.6325 19.4466 11.4619 18.8764 11.4775 18.2386C11.5053 17.1132 12.3809 16.0918 13.3563 16.0918C14.5509 16.0918 15.3633 17.0161 15.4921 18.1234C15.5015 18.2034 15.4934 18.2856 15.4934 18.3667ZM12.5391 17.688C12.5742 17.9284 12.7324 18.0869 13.0197 18.0816C13.2924 18.0766 13.5555 17.797 13.5201 17.5476C13.4811 17.2725 13.3042 17.1124 13.0284 17.1024C12.7671 17.0931 12.5269 17.3752 12.5391 17.688Z" fill="#B53481"/>
<path d="M7.66336 22.8735C7.63714 23.8237 7.41539 24.6142 6.68854 25.1725C6.14867 25.5871 5.58193 25.5613 5.05362 25.1328C4.04397 24.3138 3.7554 22.5977 4.48543 21.5166C4.87242 20.9434 5.41775 20.5731 6.15901 20.6807C6.8363 20.779 7.4311 21.4288 7.59187 22.2241C7.63974 22.4614 7.64594 22.7071 7.66336 22.8735ZM5.69891 22.2171C5.69557 22.0375 5.62321 21.8808 5.37322 21.8846C5.11541 21.8886 4.82243 22.2162 4.83253 22.5C4.83993 22.7076 4.91109 22.8749 5.16344 22.8704C5.43004 22.8656 5.69378 22.5606 5.69891 22.2171Z" fill="#B53481"/>
<path d="M10.8828 28.1136C10.8873 26.9556 11.5107 26.0417 12.3811 25.7881C13.4868 25.4658 14.4943 26.1864 14.5388 27.3313C14.5859 28.5417 13.6532 29.8852 12.5995 30.1509C12.167 30.2599 11.8294 30.1325 11.5446 29.8163C11.0759 29.2959 10.9085 28.6649 10.8828 28.1136ZM11.6562 27.5957C11.8207 27.4233 11.92 27.2867 11.9722 27.0375C11.7287 27.1927 11.6102 27.3195 11.6562 27.5957Z" fill="#8E3682"/>
<path d="M10.0109 27.6397C10.011 28.7245 9.69723 29.442 9.00098 29.9742C8.58175 30.2947 8.09072 30.2934 7.66904 29.9717C6.8213 29.3249 6.47387 28.4332 6.40842 27.399C6.36096 26.6498 7.10248 25.8002 7.69355 25.6574C8.3797 25.4917 9.2858 25.9091 9.66636 26.5778C9.89201 26.9746 10.0207 27.3969 10.0109 27.6397ZM7.11851 27.2992C7.14489 27.3979 7.10899 27.6036 7.26878 27.5542C7.49508 27.4842 7.49801 27.2207 7.55393 27.0195C7.58161 26.9199 7.57568 26.8074 7.43574 26.835C7.19585 26.8825 7.14505 27.0831 7.11851 27.2992Z" fill="#B53481"/>
<path d="M13.7422 23.083C13.7642 22.6563 13.853 22.2094 14.0877 21.7988C14.4504 21.1643 15.0633 20.7951 15.6314 20.8738C16.3376 20.9716 16.9294 21.501 17.1185 22.204C17.4143 23.3036 16.8722 24.762 15.927 25.4094C15.4402 25.7428 15.0014 25.7005 14.5779 25.2649C13.9991 24.6696 13.7654 23.9362 13.7422 23.083ZM15.3327 22.34C15.3021 22.072 15.1654 21.917 14.9111 21.9334C14.6153 21.9525 14.4379 22.1379 14.4493 22.4344C14.4589 22.6861 14.5985 22.8807 14.8818 22.855C15.1877 22.8271 15.2912 22.5941 15.3327 22.34Z" fill="#8E3682"/>
<path d="M5.20111 18.0568C5.20648 18.7655 5.04652 19.3717 4.74403 19.949C4.55859 20.3029 4.26309 20.5352 3.94081 20.7287C3.45873 21.018 2.83787 20.7308 2.48067 20.0841C1.82675 18.9004 2.09547 17.375 3.11465 16.4863C3.80275 15.8861 4.64219 16.0766 4.99808 16.9205C5.15821 17.3005 5.21763 17.7024 5.20111 18.0568ZM2.79692 17.8359C2.81068 17.9828 2.79204 18.172 2.98619 18.1356C3.29675 18.0774 3.38865 17.807 3.43261 17.5327C3.45597 17.3867 3.39833 17.2293 3.23113 17.2475C2.88427 17.2852 2.88622 17.6056 2.79692 17.8359Z" fill="#B53481"/>
<path d="M10.2301 11.4207C10.2295 11.5572 10.2311 11.7876 10.1146 11.8085C9.96886 11.8346 9.848 11.7059 9.73403 11.6081C9.48917 11.3978 9.48322 11.1149 9.48256 10.8263C9.4776 8.83512 9.47321 6.8439 9.46295 4.85277C9.4601 4.29816 9.47255 3.74112 9.36143 3.19319C9.21702 2.48091 8.96271 1.81664 8.50262 1.24185C8.35788 1.06105 8.27275 0.856326 8.45607 0.654933C8.64672 0.445563 8.88279 0.444825 9.12448 0.566931C9.3253 0.668442 9.45685 0.840207 9.57285 1.02556C10.1011 1.86931 10.275 2.80033 10.2681 3.78133C10.2597 4.95965 10.2662 6.13813 10.2662 7.31653C10.2552 7.31645 10.2359 10.0527 10.2301 11.4207Z" fill="#71EF00"/>
<path d="M11.3926 16.1781C10.3998 16.1785 9.50672 15.4041 9.50004 14.5369C9.49321 13.6468 10.2973 12.9301 11.2967 12.9356C12.2488 12.9408 13.0619 13.7296 13.1069 14.6186C13.145 15.3722 12.1471 16.2614 11.3926 16.1781ZM10.8686 13.7617C10.5944 13.7808 10.3896 13.9093 10.3502 14.1815C10.3207 14.3859 10.5055 14.4681 10.6719 14.4486C10.9341 14.418 11.1919 14.308 11.2187 14.0076C11.237 13.8037 11.0291 13.7827 10.8686 13.7617Z" fill="#B53481"/>
<path d="M3.20896 23.9308C3.19512 24.3109 3.18617 24.7163 2.97615 25.0851C2.7531 25.4742 2.39329 25.5719 2.01965 25.3382C1.00454 24.7025 0.434711 22.8456 0.914994 21.741C1.06152 21.4048 1.26259 21.1077 1.65658 21.067C2.06523 21.0255 2.34282 21.2786 2.55447 21.5928C3.0258 22.2905 3.16907 23.0833 3.20896 23.9308Z" fill="#B53481"/>
<path d="M5.10157 14.7116C5.09872 13.6133 6.09185 12.7564 7.16068 12.9517C7.71675 13.0533 8.15412 13.341 8.29992 13.9182C8.47705 14.6191 8.1341 15.1539 7.65731 15.6121C7.49491 15.7682 7.28473 15.8861 7.07828 15.9828C6.04893 16.4649 5.10458 15.8532 5.10157 14.7116ZM6.70481 13.9925C6.68495 13.8274 6.59053 13.758 6.43481 13.7491C6.15592 13.7331 5.83021 14.0002 5.84201 14.2423C5.85024 14.4108 5.95599 14.4911 6.11 14.4662C6.39109 14.4209 6.6068 14.2777 6.70481 13.9925Z" fill="#B53481"/>
<path d="M16.4636 18.3111C16.4535 17.883 16.4637 17.4912 16.6543 17.1296C16.848 16.7622 17.0985 16.6623 17.497 16.7931C18.0264 16.9667 18.3479 17.366 18.5666 17.8426C18.9671 18.7152 19.0196 19.5966 18.4909 20.4434C18.1488 20.9914 17.7239 21.03 17.2478 20.5975C16.891 20.2733 16.7101 19.8571 16.5945 19.405C16.5002 19.0359 16.4576 18.6593 16.4636 18.3111ZM17.517 18.16C17.4599 17.9561 17.4832 17.6628 17.2057 17.6213C17.0366 17.596 17.0094 17.8148 17.02 17.9645C17.0354 18.1829 17.0691 18.4293 17.3283 18.469C17.5005 18.4954 17.5029 18.3046 17.517 18.16Z" fill="#8E3682"/>
<path d="M10.2279 30.5254C9.86189 30.5616 9.4622 30.621 9.12698 30.8843C8.73746 31.1903 8.64922 31.5466 8.86494 31.9951C9.15498 32.5979 9.62143 33.0347 10.1751 33.3981C10.4504 33.5788 10.7066 33.5334 10.9177 33.3555C11.3398 33 11.7466 32.6188 11.9903 32.1075C12.2005 31.6664 12.1005 31.2835 11.7067 31.0045C11.2772 30.7002 10.8015 30.5251 10.2279 30.5254Z" fill="#8E3682"/>
<path d="M5.57926 28.8342C5.59416 29.7319 5.2249 29.969 4.56627 29.5583C3.69801 29.0168 3.11247 28.2615 3.07177 27.1897C3.04694 26.5365 3.34098 26.0797 3.8071 25.982C4.2921 25.8804 4.90442 26.2404 5.13121 26.7832C5.42158 27.4782 5.51666 28.217 5.57926 28.8342ZM4.12058 27.6584C4.07345 27.44 4.03039 27.1932 3.74995 27.1576C3.59007 27.1372 3.56801 27.2936 3.58592 27.4195C3.61897 27.6524 3.68402 27.8923 3.95241 27.935C4.10854 27.9598 4.1091 27.7884 4.12058 27.6584Z" fill="#B53481"/>
<path d="M17.6349 26.9758C17.6249 28.2043 16.6208 29.5608 15.5028 29.8979C15.3253 29.9513 15.1141 30.027 14.9634 29.8769C14.8149 29.7292 14.9299 29.5382 14.99 29.3796C15.2972 28.5686 15.6118 27.7605 15.9296 26.9536C16.0299 26.6991 16.1816 26.4746 16.385 26.2882C16.609 26.083 16.8671 25.9698 17.1655 26.0803C17.4635 26.1907 17.5912 26.4416 17.6229 26.7458C17.6328 26.8399 17.633 26.9351 17.6349 26.9758Z" fill="#8E3682"/>
<path d="M16.9976 15.4503C16.9894 16.1255 16.4942 16.529 15.8579 16.316C15.018 16.0348 14.4117 15.4689 14.1514 14.6055C13.9354 13.8888 14.4471 13.33 15.1913 13.427C16.0994 13.5453 17.0085 14.5636 16.9976 15.4503ZM14.9371 14.181C14.8214 14.195 14.6991 14.2326 14.7064 14.3855C14.7143 14.5521 14.8505 14.5937 14.991 14.6002C15.116 14.6061 15.2561 14.5884 15.2556 14.4304C15.2549 14.2479 15.1057 14.2009 14.9371 14.181Z" fill="#B53481"/>
<path d="M18.0683 24.5168C18.0998 23.6717 18.2302 22.8456 18.6126 22.079C18.7534 21.7967 18.9226 21.4727 19.2813 21.5179C19.6756 21.5677 19.8002 21.9328 19.8389 22.2786C19.9581 23.3437 19.7292 24.3285 19.0815 25.1961C18.9189 25.4138 18.713 25.6664 18.4233 25.5958C18.1194 25.5217 18.1072 25.1896 18.0713 24.9227C18.0534 24.7897 18.0683 24.6522 18.0683 24.5168Z" fill="#8E3682"/>
<path d="M3.59769 13.4633C4.2372 13.4654 4.43093 13.7472 4.18925 14.2531C3.75789 15.1559 3.06563 15.8353 2.24792 16.3874C1.8952 16.6255 1.64041 16.4928 1.54818 16.0674C1.38855 15.331 1.83065 14.3548 2.55229 13.857C2.8924 13.6224 3.25685 13.4532 3.59769 13.4633ZM2.2091 15.2906C2.42621 15.2799 2.80538 14.7016 2.73382 14.4931C2.68685 14.3561 2.5873 14.3794 2.50598 14.4334C2.27235 14.5884 2.11068 14.8025 2.04743 15.0794C2.01893 15.2042 2.05647 15.2958 2.2091 15.2906Z" fill="#B53481"/>
<path d="M0.0087221 19.4958C0.0385973 18.939 0.146942 18.3927 0.479477 17.9323C0.626085 17.7294 0.80786 17.572 1.07177 17.5512C1.38225 17.5266 1.55556 17.6947 1.49052 17.9811C1.35612 18.5727 1.21854 19.1641 1.05525 19.7481C0.953899 20.1105 0.819823 20.5802 0.37023 20.5174C-0.0451739 20.4593 -0.00723305 19.7941 0.0087221 19.4958ZM0.680711 18.6702C0.676885 18.5626 0.667358 18.4361 0.571871 18.4767C0.331242 18.5788 0.33181 18.8331 0.285328 19.0478C0.268152 19.1272 0.303721 19.2458 0.39701 19.2104C0.651234 19.1137 0.61103 18.8462 0.680711 18.6702Z" fill="#B53481"/>
<path d="M19.2019 16.1363C19.19 16.4414 19.0826 16.6337 18.7609 16.3084C18.4029 15.9465 18.0998 15.4984 17.8235 15.0736C17.6977 14.8801 16.917 13.4738 17.7647 13.8946C18.3532 14.1866 18.8293 14.6985 19.0782 15.3066C19.1376 15.4518 19.2131 15.8453 19.2019 16.1363Z" fill="#8E3682"/>
<path d="M20.6323 19.6934C20.6312 19.7273 20.6292 19.7611 20.6263 19.7948C20.607 20.0172 20.484 20.6236 20.14 20.3371C19.9994 20.22 20.0078 19.8652 19.9795 19.6992C19.9261 19.3867 19.8591 19.0732 19.8519 18.7546C19.8373 18.1069 20.2443 18.3894 20.4334 18.773C20.5734 19.0571 20.6425 19.3767 20.6323 19.6934Z" fill="#8E3682"/>
<path d="M13.9052 32.0416C13.8822 32.0578 13.8585 32.0734 13.8344 32.0882C13.6755 32.1856 13.1994 32.3952 13.1799 31.9769C13.1719 31.8059 13.4119 31.6328 13.5044 31.5263C13.6788 31.3256 13.8455 31.1135 14.052 30.9464C14.4717 30.6066 14.5322 31.0728 14.3933 31.4174C14.2905 31.6725 14.121 31.8893 13.9052 32.0416Z" fill="#8E3682"/>
<path d="M8.09339 17.4132C8.09982 17.7007 7.762 18.09 7.49784 18.0808C7.26658 18.0728 7.11605 17.9493 7.10221 17.707C7.08528 17.4095 7.40195 17.0715 7.70966 17.0556C7.95607 17.0428 8.08769 17.1635 8.09339 17.4132Z" fill="#E7AEBF"/>
<path d="M10.3338 22.2336C10.3426 22.5232 10.0578 22.8288 9.77713 22.82C9.55034 22.813 9.4337 22.6803 9.42238 22.4592C9.40805 22.18 9.70044 21.8425 9.96313 21.8438C10.2124 21.8449 10.3217 21.9973 10.3338 22.2336Z" fill="#E7AEBF"/>
<path d="M12.5395 17.6874C12.5274 17.3745 12.7676 17.0925 13.0289 17.1018C13.3048 17.1116 13.4817 17.2718 13.5207 17.547C13.556 17.7964 13.2929 18.076 13.0203 18.081C12.7329 18.0863 12.5747 17.9279 12.5395 17.6874Z" fill="#DC859F"/>
<path d="M5.69477 22.2174C5.68964 22.5609 5.42589 22.8658 5.15929 22.8706C4.90694 22.8752 4.83571 22.7079 4.82838 22.5002C4.81828 22.2165 5.11135 21.8888 5.36907 21.8848C5.61906 21.8809 5.69143 22.0377 5.69477 22.2174Z" fill="#E7AEBF"/>
<path d="M11.6595 27.5948C11.3919 27.5125 11.7379 26.8723 11.9755 27.0366C12.1849 27.1813 11.8872 27.6648 11.6595 27.5948Z" fill="#B53481"/>
<path d="M7.11719 27.3004C7.14373 27.0843 7.19444 26.8837 7.4345 26.8363C7.57435 26.8086 7.58036 26.9211 7.55269 27.0208C7.49676 27.222 7.49376 27.4855 7.26753 27.5554C7.10766 27.6048 7.14364 27.3991 7.11719 27.3004Z" fill="#DC859F"/>
<path d="M15.3291 22.3415C15.2877 22.5956 15.1842 22.8285 14.8783 22.8563C14.595 22.8821 14.4554 22.6874 14.4458 22.4358C14.4345 22.1393 14.6117 21.954 14.9076 21.9348C15.1619 21.9184 15.2985 22.0735 15.3291 22.3415Z" fill="#B53481"/>
<path d="M2.79116 17.8358C2.80687 17.6537 2.87852 17.2852 3.22546 17.2475C3.39266 17.2293 3.45029 17.3868 3.42693 17.5328C3.38297 17.807 3.29099 18.0774 2.98051 18.1356C2.78636 18.1719 2.78359 17.9242 2.79116 17.8358Z" fill="#E7AEBF"/>
<path d="M10.8653 13.7617C11.0258 13.7828 11.2336 13.8038 11.2154 14.0076C11.1885 14.308 10.9308 14.4181 10.6686 14.4487C10.5021 14.4681 10.3173 14.3859 10.3469 14.1816C10.3863 13.9094 10.591 13.7808 10.8653 13.7617Z" fill="#DC859F"/>
<path d="M1.73589 22.6444C1.76918 22.8511 1.73654 23.0803 1.53294 23.0784C1.24738 23.0757 1.25202 22.7937 1.22467 22.5908C1.20293 22.4298 1.23346 22.2214 1.44544 22.2308C1.71863 22.2427 1.71277 22.5006 1.73589 22.6444Z" fill="#E7AEBF"/>
<path d="M6.70686 13.9922C6.60885 14.2773 6.39314 14.4205 6.11205 14.4659C5.95804 14.4907 5.85228 14.4104 5.84406 14.2419C5.83226 13.9999 6.15788 13.7328 6.43685 13.7487C6.59258 13.7577 6.687 13.8271 6.70686 13.9922Z" fill="#E7AEBF"/>
<path d="M17.5225 18.1599C17.5084 18.3044 17.506 18.4952 17.3338 18.4688C17.0746 18.4291 17.0409 18.1827 17.0254 17.9643C17.0149 17.8147 17.042 17.5959 17.2112 17.6211C17.4887 17.6627 17.4653 17.956 17.5225 18.1599Z" fill="#B53481"/>
<path d="M4.11808 27.6569C4.1066 27.7869 4.10603 27.9583 3.94982 27.9335C3.68143 27.8909 3.61639 27.651 3.58334 27.418C3.56543 27.2921 3.58749 27.1357 3.74737 27.1561C4.02781 27.1918 4.07087 27.4386 4.11808 27.6569Z" fill="#DC859F"/>
<path d="M14.942 14.1816C15.1107 14.2015 15.2599 14.2486 15.2605 14.4311C15.261 14.589 15.1209 14.6066 14.9959 14.6009C14.8553 14.5943 14.7191 14.5527 14.7112 14.3861C14.704 14.2332 14.8262 14.1956 14.942 14.1816Z" fill="#DC859F"/>
<path d="M2.20911 15.2905C2.05689 15.2954 2.01935 15.2039 2.04785 15.079C2.1111 14.8021 2.27277 14.588 2.5064 14.433C2.58772 14.3791 2.68719 14.3558 2.73424 14.4927C2.80572 14.7013 2.42662 15.2796 2.20911 15.2905Z" fill="#E7AEBF"/>
<path d="M0.680807 18.6701C0.611125 18.846 0.65133 19.1136 0.397106 19.2102C0.303817 19.2457 0.268248 19.127 0.285424 19.0476C0.331905 18.833 0.331337 18.5786 0.571967 18.4765C0.667454 18.436 0.677062 18.5625 0.680807 18.6701Z" fill="#E7AEBF"/>
<path d="M6.8902 31.9494C6.58274 31.7174 6.31151 31.4446 6.17605 31.0763C6.11638 30.9141 6.09636 30.7491 6.18623 30.5898C6.29197 30.4024 6.4551 30.368 6.59406 30.5157C6.88109 30.821 7.16698 31.1281 7.43854 31.447C7.60705 31.6449 7.8244 31.9029 7.61495 32.1363C7.42153 32.352 7.05496 32.0737 6.8902 31.9494ZM6.67652 31.2458C6.61343 31.2064 6.53724 31.1631 6.52357 31.2334C6.48921 31.4107 6.63518 31.5086 6.74027 31.618C6.7791 31.6584 6.86082 31.6838 6.87645 31.6166C6.91927 31.4338 6.75043 31.3536 6.67652 31.2458Z" fill="#B53481"/>
<path d="M6.68143 31.2451C6.75534 31.3528 6.92418 31.433 6.88144 31.616C6.86581 31.6832 6.78409 31.6578 6.74526 31.6173C6.64017 31.5079 6.4942 31.4101 6.52856 31.2328C6.54215 31.1623 6.61834 31.2057 6.68143 31.2451Z" fill="#DC859F"/>
<path d="M8.14478 6.03512C7.77545 5.42149 7.16387 4.98077 6.49041 4.73176C6.16667 4.61201 5.82818 4.53135 5.48555 4.48959C4.06294 4.31628 2.55095 4.71996 1.14062 4.89514C1.59868 5.35638 1.77892 5.79042 1.92431 6.17042C2.63211 8.02081 3.50314 10.4879 5.62045 10.9902C6.40258 11.1757 7.23338 11.0899 7.7787 10.4409C8.11108 10.0455 8.28919 9.54208 8.39575 9.03657C8.575 8.18589 8.66038 7.24527 8.33102 6.41153C8.27901 6.27966 8.21642 6.15413 8.14478 6.03512Z" fill="#71EF00"/>
<path d="M11.1741 6.85496C11.3925 6.36678 12.0516 5.55177 12.7492 5.24455C13.0845 5.0968 13.4395 4.98373 13.8026 4.90639C15.3105 4.58542 16.9706 4.79105 18.4994 4.79561C18.0533 5.27613 17.9024 5.70008 17.7837 6.0699C17.2054 7.87063 16.5122 10.2633 14.2916 10.9682C13.4713 11.2286 12.5724 11.2421 11.9246 10.6997C11.5299 10.3692 11.2898 9.92096 11.1264 9.46273C10.8514 8.69168 10.8847 7.50204 11.1741 6.85496Z" fill="#71EF00"/>
</svg>
