<svg width="191" height="48" viewBox="0 0 191 48" fill="none" xmlns="http://www.w3.org/2000/svg">
<path d="M33.3443 32.3335L36.2502 21.8471L27.2799 15.6563L24.374 26.1428L33.3443 32.3335ZM5.04359 42.5041L2.95894 41.4934C1.6534 40.9459 0.769004 40.0093 0.305749 38.6835C-0.157507 37.3578 -0.0943356 36.0413 0.495262 34.7341L5.04359 24.8793V42.5041ZM15.151 48C13.7612 48 12.5719 47.4946 11.5831 46.4839C10.5942 45.4732 10.099 44.2729 10.0973 42.8831V27.7852L16.8566 46.3576C16.9829 46.6524 17.0882 46.937 17.1725 47.2116C17.2567 47.4862 17.4041 47.749 17.6147 48H15.151ZM28.1642 47.6841C26.8587 48.1474 25.5532 48.0842 24.2476 47.4946C22.9421 46.905 22.0577 45.9575 21.5944 44.6519L10.4131 13.7612C9.94988 12.4557 10.0131 11.1602 10.6027 9.87492C11.1923 8.5896 12.1398 7.71615 13.4454 7.25458L32.4599 0.305749C33.7654 -0.157507 35.0609 -0.0943356 36.3462 0.495262C37.6315 1.08486 38.5049 2.03243 38.9665 3.33797L50.211 34.2287C50.6743 35.5342 50.6111 36.8297 50.0215 38.115C49.4319 39.4003 48.4843 40.2737 47.1788 40.7353L28.1642 47.6841Z" fill="#FEC330"/>
<path d="M71.8428 41.1013H75.882C75.8009 42.438 75.4362 43.6246 74.7878 44.6612C74.1483 45.6977 73.2523 46.507 72.0995 47.0889C70.9557 47.6709 69.5779 47.9619 67.9658 47.9619C66.705 47.9619 65.5747 47.7436 64.5751 47.3072C63.5754 46.8616 62.7199 46.2251 62.0084 45.3977C61.306 44.5702 60.7701 43.57 60.4009 42.397C60.0316 41.2241 59.847 39.9102 59.847 38.4553V37.0777C59.847 35.6229 60.0361 34.309 60.4144 33.136C60.8016 31.9539 61.351 30.9492 62.0624 30.1217C62.7829 29.2943 63.643 28.6578 64.6426 28.2122C65.6423 27.7667 66.759 27.5439 67.9928 27.5439C69.6319 27.5439 71.0143 27.844 72.14 28.4441C73.2748 29.0442 74.1528 29.8717 74.7742 30.9264C75.4047 31.9812 75.7829 33.1815 75.909 34.5272H71.8563C71.8113 33.727 71.6537 33.0496 71.3835 32.4949C71.1134 31.9312 70.7036 31.5084 70.1542 31.2265C69.6139 30.9355 68.8934 30.79 67.9928 30.79C67.3174 30.79 66.7275 30.9173 66.2232 31.1719C65.7188 31.4265 65.2956 31.813 64.9533 32.3313C64.6111 32.8496 64.3544 33.5043 64.1833 34.2953C64.0212 35.0773 63.9402 35.9957 63.9402 37.0505V38.4553C63.9402 39.4828 64.0167 40.3875 64.1698 41.1695C64.3229 41.9424 64.5571 42.5971 64.8723 43.1336C65.1965 43.6609 65.6108 44.061 66.1151 44.3338C66.6284 44.5975 67.2453 44.7294 67.9658 44.7294C68.8124 44.7294 69.5103 44.593 70.0597 44.3202C70.609 44.0474 71.0278 43.6428 71.316 43.1063C71.6132 42.5698 71.7888 41.9015 71.8428 41.1013Z" fill="white"/>
<path d="M86.5404 31.2265L81.1909 47.6891H76.8816L84.1899 27.8303H86.9322L86.5404 31.2265ZM90.9848 47.6891L85.6218 31.2265L85.1895 27.8303H87.9589L95.3076 47.6891H90.9848ZM90.7417 40.2966V43.5018H80.3534V40.2966H90.7417Z" fill="white"/>
<path d="M107.371 42.4925C107.371 42.1379 107.317 41.8196 107.209 41.5378C107.11 41.2468 106.921 40.9831 106.642 40.7467C106.362 40.5012 105.971 40.2602 105.466 40.0238C104.962 39.7874 104.309 39.5419 103.507 39.2873C102.616 38.9963 101.769 38.669 100.968 38.3053C100.175 37.9416 99.4729 37.5187 98.8605 37.0368C98.2571 36.5458 97.7798 35.9775 97.4285 35.3319C97.0863 34.6863 96.9152 33.9362 96.9152 33.0814C96.9152 32.254 97.0953 31.5038 97.4556 30.831C97.8158 30.149 98.3201 29.5671 98.9685 29.0851C99.617 28.5941 100.382 28.2168 101.265 27.9531C102.157 27.6894 103.134 27.5575 104.196 27.5575C105.646 27.5575 106.912 27.8212 107.992 28.3486C109.073 28.876 109.911 29.5989 110.505 30.5173C111.108 31.4356 111.41 32.4859 111.41 33.6679H107.385C107.385 33.086 107.263 32.5768 107.02 32.1403C106.786 31.6948 106.425 31.3447 105.939 31.0901C105.462 30.8355 104.858 30.7082 104.129 30.7082C103.426 30.7082 102.841 30.8173 102.373 31.0356C101.904 31.2447 101.553 31.5311 101.319 31.8948C101.085 32.2494 100.968 32.6495 100.968 33.0951C100.968 33.4315 101.049 33.7361 101.211 34.0089C101.382 34.2817 101.634 34.5363 101.967 34.7727C102.301 35.0091 102.71 35.2319 103.197 35.441C103.683 35.6502 104.246 35.8548 104.885 36.0548C105.957 36.3821 106.898 36.7504 107.709 37.1596C108.528 37.5687 109.213 38.0279 109.762 38.5371C110.311 39.0463 110.726 39.6237 111.005 40.2693C111.284 40.9149 111.424 41.6469 111.424 42.4652C111.424 43.3291 111.257 44.1019 110.924 44.7839C110.591 45.4659 110.109 46.0433 109.478 46.5161C108.848 46.9889 108.096 47.3481 107.222 47.5936C106.349 47.8391 105.372 47.9619 104.291 47.9619C103.318 47.9619 102.359 47.8346 101.414 47.58C100.468 47.3163 99.608 46.9207 98.8335 46.3933C98.068 45.866 97.4556 45.1931 96.9963 44.3747C96.537 43.5564 96.3073 42.588 96.3073 41.4696H100.373C100.373 42.0879 100.468 42.6107 100.657 43.0381C100.846 43.4654 101.112 43.811 101.454 44.0747C101.805 44.3384 102.22 44.5293 102.697 44.6475C103.183 44.7657 103.715 44.8248 104.291 44.8248C104.993 44.8248 105.57 44.7248 106.02 44.5248C106.479 44.3247 106.817 44.0474 107.033 43.6928C107.258 43.3382 107.371 42.9381 107.371 42.4925Z" fill="white"/>
<path d="M118.489 27.8303V47.6891H114.45V27.8303H118.489Z" fill="white"/>
<path d="M138.293 27.8303V47.6891H134.24L126.337 34.3772V47.6891H122.285V27.8303H126.337L134.254 41.1559V27.8303H138.293Z" fill="white"/>
<path d="M157.975 37.296V38.2371C157.975 39.7465 157.772 41.1013 157.367 42.3016C156.962 43.5018 156.39 44.5248 155.652 45.3704C154.913 46.2069 154.03 46.848 153.004 47.2935C151.986 47.7391 150.856 47.9619 149.613 47.9619C148.379 47.9619 147.249 47.7391 146.222 47.2935C145.205 46.848 144.322 46.2069 143.575 45.3704C142.827 44.5248 142.246 43.5018 141.832 42.3016C141.427 41.1013 141.224 39.7465 141.224 38.2371V37.296C141.224 35.7775 141.427 34.4226 141.832 33.2315C142.237 32.0312 142.809 31.0083 143.548 30.1626C144.295 29.317 145.178 28.6714 146.195 28.2259C147.222 27.7803 148.352 27.5575 149.586 27.5575C150.829 27.5575 151.959 27.7803 152.977 28.2259C154.003 28.6714 154.886 29.317 155.625 30.1626C156.372 31.0083 156.948 32.0312 157.354 33.2315C157.768 34.4226 157.975 35.7775 157.975 37.296ZM153.882 38.2371V37.2687C153.882 36.2139 153.787 35.2864 153.598 34.4863C153.409 33.6861 153.13 33.0132 152.761 32.4677C152.391 31.9221 151.941 31.5129 151.41 31.2401C150.878 30.9583 150.271 30.8173 149.586 30.8173C148.902 30.8173 148.294 30.9583 147.762 31.2401C147.24 31.5129 146.794 31.9221 146.425 32.4677C146.065 33.0132 145.79 33.6861 145.601 34.4863C145.412 35.2864 145.317 36.2139 145.317 37.2687V38.2371C145.317 39.2827 145.412 40.2102 145.601 41.0195C145.79 41.8196 146.069 42.4971 146.439 43.0517C146.808 43.5973 147.258 44.011 147.789 44.2929C148.321 44.5748 148.929 44.7157 149.613 44.7157C150.298 44.7157 150.905 44.5748 151.437 44.2929C151.968 44.011 152.414 43.5973 152.774 43.0517C153.134 42.4971 153.409 41.8196 153.598 41.0195C153.787 40.2102 153.882 39.2827 153.882 38.2371Z" fill="white"/>
<path d="M70.6361 15.0618C70.6361 14.7069 70.582 14.3884 70.4736 14.1064C70.3743 13.8152 70.1846 13.5513 69.9047 13.3148C69.6247 13.0691 69.2319 12.828 68.7262 12.5914C68.2205 12.3548 67.5658 12.1092 66.7621 11.8544C65.8681 11.5632 65.0192 11.2357 64.2155 10.8717C63.4208 10.5078 62.7164 10.0847 62.1024 9.60242C61.4973 9.11108 61.0187 8.5424 60.6665 7.89638C60.3234 7.25035 60.1518 6.49969 60.1518 5.6444C60.1518 4.8164 60.3324 4.06574 60.6936 3.39242C61.0549 2.71 61.5606 2.12767 62.2107 1.64543C62.8609 1.15408 63.6285 0.77648 64.5135 0.512612C65.4075 0.248743 66.3873 0.116809 67.4529 0.116809C68.9068 0.116809 70.1756 0.380678 71.2592 0.908414C72.3429 1.43615 73.1827 2.15951 73.7787 3.0785C74.3838 3.99749 74.6863 5.04842 74.6863 6.23128H70.6497C70.6497 5.64895 70.5278 5.13941 70.284 4.70266C70.0492 4.25681 69.6879 3.9065 69.2003 3.65174C68.7217 3.39697 68.1166 3.26958 67.3852 3.26958C66.6808 3.26958 66.0938 3.37877 65.6242 3.59714C65.1547 3.80642 64.8025 4.09303 64.5677 4.45699C64.3329 4.81185 64.2155 5.2122 64.2155 5.65804C64.2155 5.9947 64.2968 6.29952 64.4593 6.57248C64.6309 6.84545 64.8838 7.10022 65.2179 7.33679C65.552 7.57336 65.9629 7.79629 66.4505 8.00556C66.9382 8.21484 67.5026 8.41956 68.1437 8.61974C69.2184 8.9473 70.162 9.31581 70.9748 9.72526C71.7965 10.1347 72.4829 10.5942 73.0337 11.1037C73.5846 11.6133 74 12.1911 74.2799 12.8371C74.5599 13.4831 74.6998 14.2156 74.6998 15.0345C74.6998 15.8989 74.5328 16.6723 74.1986 17.3547C73.8645 18.0371 73.3814 18.6149 72.7493 19.088C72.1171 19.5612 71.3631 19.9206 70.4871 20.1663C69.6112 20.4119 68.6314 20.5348 67.5477 20.5348C66.5724 20.5348 65.6107 20.4074 64.6625 20.1526C63.7143 19.8887 62.8519 19.4929 62.0753 18.9652C61.3077 18.4375 60.6936 17.7641 60.2331 16.9452C59.7725 16.1263 59.5423 15.1573 59.5423 14.0381H63.6195C63.6195 14.6569 63.7143 15.18 63.904 15.6077C64.0936 16.0353 64.36 16.3811 64.7031 16.645C65.0553 16.9088 65.4707 17.0999 65.9493 17.2182C66.437 17.3365 66.9698 17.3956 67.5477 17.3956C68.2521 17.3956 68.8301 17.2955 69.2816 17.0954C69.7421 16.8952 70.0808 16.6177 70.2975 16.2628C70.5233 15.908 70.6361 15.5076 70.6361 15.0618Z" fill="#FEC330"/>
<path d="M90.1419 17.0681V20.2618H80.2129V17.0681H90.1419ZM81.5268 0.389776V20.2618H77.4631V0.389776H81.5268Z" fill="#FEC330"/>
<path d="M107.778 9.86174V10.8035C107.778 12.3139 107.575 13.6696 107.169 14.8707C106.762 16.0717 106.189 17.0954 105.448 17.9416C104.708 18.7787 103.823 19.4201 102.793 19.866C101.773 20.3118 100.64 20.5348 99.3935 20.5348C98.1564 20.5348 97.0231 20.3118 95.9936 19.866C94.9731 19.4201 94.0882 18.7787 93.3386 17.9416C92.5891 17.0954 92.0066 16.0717 91.5912 14.8707C91.1849 13.6696 90.9817 12.3139 90.9817 10.8035V9.86174C90.9817 8.34222 91.1849 6.98649 91.5912 5.79453C91.9976 4.59347 92.5711 3.56984 93.3115 2.72365C94.0611 1.87745 94.9461 1.23143 95.9665 0.785579C96.996 0.339732 98.1293 0.116809 99.3664 0.116809C100.613 0.116809 101.746 0.339732 102.766 0.785579C103.796 1.23143 104.681 1.87745 105.421 2.72365C106.171 3.56984 106.749 4.59347 107.155 5.79453C107.571 6.98649 107.778 8.34222 107.778 9.86174ZM103.674 10.8035V9.83444C103.674 8.77897 103.579 7.85088 103.39 7.05018C103.2 6.24947 102.92 5.57615 102.55 5.03022C102.179 4.48428 101.728 4.07483 101.195 3.80187C100.662 3.5198 100.053 3.37877 99.3664 3.37877C98.6801 3.37877 98.0706 3.5198 97.5378 3.80187C97.014 4.07483 96.567 4.48428 96.1968 5.03022C95.8355 5.57615 95.5601 6.24947 95.3705 7.05018C95.1808 7.85088 95.086 8.77897 95.086 9.83444V10.8035C95.086 11.8499 95.1808 12.7779 95.3705 13.5877C95.5601 14.3884 95.8401 15.0663 96.2103 15.6213C96.5806 16.1673 97.0321 16.5813 97.5649 16.8633C98.0977 17.1454 98.7072 17.2864 99.3935 17.2864C100.08 17.2864 100.689 17.1454 101.222 16.8633C101.755 16.5813 102.202 16.1673 102.563 15.6213C102.924 15.0663 103.2 14.3884 103.39 13.5877C103.579 12.7779 103.674 11.8499 103.674 10.8035Z" fill="#FEC330"/>
<path d="M118.601 0.389776V20.2618H114.551V0.389776H118.601ZM124.67 0.389776V3.59714H108.577V0.389776H124.67Z" fill="#FEC330"/>
<path d="M145.842 17.0681V20.2618H135.913V17.0681H145.842ZM137.227 0.389776V20.2618H133.163V0.389776H137.227Z" fill="#FEC330"/>
<path d="M156.461 3.78822L151.097 20.2618H146.776L154.104 0.389776H156.854L156.461 3.78822ZM160.918 20.2618L155.54 3.78822L155.107 0.389776H157.884L165.252 20.2618H160.918ZM160.674 12.8644V16.0717H150.257V12.8644H160.674Z" fill="#FEC330"/>
<path d="M171.402 0.389776V20.2618H167.352V0.389776H171.402Z" fill="#FEC330"/>
<path d="M175.208 0.389776H182.564C184.072 0.389776 185.368 0.617249 186.451 1.07219C187.544 1.52714 188.384 2.20046 188.971 3.09215C189.558 3.98384 189.851 5.08026 189.851 6.38141C189.851 7.44598 189.671 8.36042 189.31 9.12473C188.957 9.87994 188.456 10.5123 187.806 11.0218C187.165 11.5223 186.411 11.9226 185.544 12.2229L184.257 12.9053H177.863L177.836 9.71161H182.591C183.304 9.71161 183.896 9.58422 184.365 9.32945C184.835 9.07468 185.187 8.71983 185.422 8.26488C185.666 7.80994 185.788 7.2822 185.788 6.68167C185.788 6.04475 185.67 5.49426 185.435 5.03022C185.201 4.56617 184.844 4.21132 184.365 3.96565C183.887 3.71998 183.286 3.59714 182.564 3.59714H179.272V20.2618H175.208V0.389776ZM186.235 20.2618L181.738 11.404L186.031 11.3767L190.583 20.0707V20.2618H186.235Z" fill="#FEC330"/>
</svg>
