<svg width="115" height="36" viewBox="0 0 115 36" fill="none" xmlns="http://www.w3.org/2000/svg">
<path d="M14.3448 34.9645L0 7.19967H12.3094L23.9888 29.6822H16.671L28.6896 1.04102H39.9328L25.588 34.9645H14.3448Z" fill="white"/>
<path d="M58.3833 35.7399C55.6371 35.7399 53.0848 35.3038 50.7263 34.4315C48.4001 33.5591 46.3808 32.3314 44.6685 30.7483C42.9562 29.1329 41.6154 27.2429 40.6461 25.0783C39.7092 22.9136 39.2407 20.5551 39.2407 18.0028C39.2407 15.4181 39.7092 13.0596 40.6461 10.9273C41.6154 8.76266 42.9562 6.88879 44.6685 5.30569C46.3808 3.69028 48.4001 2.44642 50.7263 1.5741C53.0848 0.701785 55.6371 0.265625 58.3833 0.265625C61.1618 0.265625 63.7141 0.701785 66.0403 1.5741C68.3665 2.44642 70.3858 3.69028 72.0981 5.30569C73.8104 6.88879 75.1351 8.76266 76.072 10.9273C77.0412 13.0596 77.5259 15.4181 77.5259 18.0028C77.5259 20.5551 77.0412 22.9136 76.072 25.0783C75.1351 27.2429 73.8104 29.1329 72.0981 30.7483C70.3858 32.3314 68.3665 33.5591 66.0403 34.4315C63.7141 35.3038 61.1618 35.7399 58.3833 35.7399ZM58.3833 26.4837C59.4495 26.4837 60.4349 26.2898 61.3395 25.9021C62.2764 25.5144 63.0841 24.9652 63.7626 24.2544C64.4734 23.5113 65.0226 22.6228 65.4103 21.589C65.798 20.5228 65.9919 19.3274 65.9919 18.0028C65.9919 16.6781 65.798 15.4989 65.4103 14.465C65.0226 13.3989 64.4734 12.5104 63.7626 11.7996C63.0841 11.0565 62.2764 10.4911 61.3395 10.1034C60.4349 9.71575 59.4495 9.5219 58.3833 9.5219C57.3171 9.5219 56.3156 9.71575 55.3786 10.1034C54.474 10.4911 53.6663 11.0565 52.9555 11.7996C52.2771 12.5104 51.744 13.3989 51.3563 14.465C50.9686 15.4989 50.7747 16.6781 50.7747 18.0028C50.7747 19.3274 50.9686 20.5228 51.3563 21.589C51.744 22.6228 52.2771 23.5113 52.9555 24.2544C53.6663 24.9652 54.474 25.5144 55.3786 25.9021C56.3156 26.2898 57.3171 26.4837 58.3833 26.4837Z" fill="white"/>
<path d="M77.2964 34.9645L92.4166 13.835L92.3682 21.8313L77.7326 1.04102H90.5751L99.1044 13.6412L93.6282 13.6896L101.964 1.04102H114.273L99.6375 21.3951V13.4473L115 34.9645H101.915L93.3859 21.7828L98.6682 21.7344L90.3327 34.9645H77.2964Z" fill="white"/>
<ellipse cx="59.0224" cy="18.0506" rx="11.3583" ry="11.8631" fill="white"/>
<path d="M58.2653 1.64844C54.8706 1.64844 51.5522 2.61066 48.7296 4.41343C45.9071 6.21619 43.7072 8.77853 42.4081 11.7764C41.109 14.7743 40.7691 18.0731 41.4314 21.2556C42.0936 24.4382 43.7283 27.3615 46.1287 29.656C48.5291 31.9505 51.5874 33.5131 54.9168 34.1461C58.2462 34.7792 61.6973 34.4543 64.8335 33.2125C67.9698 31.9707 70.6504 29.8679 72.5363 27.1698C74.4223 24.4718 75.4289 21.2998 75.4289 18.0549C75.4241 13.705 73.6143 9.53467 70.3965 6.45885C67.1787 3.38304 62.8159 1.65303 58.2653 1.64844ZM58.2653 25.6271C56.6985 25.6271 55.1669 25.183 53.8642 24.351C52.5615 23.5189 51.5461 22.3363 50.9466 20.9527C50.347 19.569 50.1901 18.0465 50.4958 16.5776C50.8014 15.1088 51.5559 13.7595 52.6638 12.7005C53.7716 11.6415 55.1832 10.9204 56.7198 10.6282C58.2565 10.336 59.8493 10.486 61.2968 11.0591C62.7443 11.6322 63.9815 12.6028 64.8519 13.848C65.7224 15.0932 66.187 16.5573 66.187 18.0549C66.1848 20.0625 65.3495 21.9873 63.8643 23.407C62.3792 24.8266 60.3656 25.625 58.2653 25.6271ZM64.7363 10.0836C63.2441 8.96869 61.4645 8.2601 59.5855 8.03276V4.23088C62.5155 4.48317 65.2952 5.58386 67.5535 7.38597L64.7363 10.0836ZM56.945 8.04065C55.0661 8.26798 53.2864 8.97658 51.7942 10.0915L48.9771 7.3907C51.2354 5.58859 54.015 4.4879 56.945 4.23561V8.04065ZM49.926 11.8693C48.7597 13.2957 48.0184 14.9968 47.7806 16.7929H43.8032C44.0671 13.9922 45.2186 11.3351 47.1039 9.17648L49.926 11.8693ZM47.7888 19.3169C48.0266 21.113 48.7679 22.8141 49.9343 24.2405L47.1089 26.9333C45.2236 24.7747 44.0721 22.1176 43.8082 19.3169H47.7888ZM51.7942 26.0262C53.2873 27.1383 55.0669 27.8441 56.945 28.0692V31.8789C54.015 31.6266 51.2354 30.5259 48.9771 28.7238L51.7942 26.0262ZM59.5855 28.0692C61.4636 27.8441 63.2432 27.1383 64.7363 26.0262L67.5535 28.7191C65.2952 30.5212 62.5155 31.6219 59.5855 31.8742V28.0692ZM66.6045 24.2405C67.7679 22.8133 68.5063 21.1122 68.7417 19.3169H72.7273C72.4634 22.1176 71.3119 24.7747 69.4266 26.9333L66.6045 24.2405ZM68.7417 16.7929C68.5063 14.9976 67.7679 13.2965 66.6045 11.8693L69.4217 9.17648C71.3069 11.3351 72.4584 13.9922 72.7224 16.7929H68.7417Z" fill="#FF7E00"/>
</svg>
