<svg width="141" height="29" viewBox="0 0 141 29" fill="none" xmlns="http://www.w3.org/2000/svg">
<path d="M6.96875 18.4934V7.21939H12.4302C13.4965 7.21939 14.4197 7.39493 15.1999 7.74603C15.9801 8.08412 16.5783 8.56524 16.9944 9.18941C17.4235 9.81357 17.6381 10.5678 17.6381 11.452C17.6381 12.3232 17.4235 13.0774 16.9944 13.7146C16.5783 14.3518 15.9801 14.8394 15.1999 15.1775C14.4197 15.5156 13.4965 15.6846 12.4302 15.6846H9.0558L10.7332 14.1047V18.4934H6.96875ZM10.7332 14.5143L9.36788 12.8759H12.1571C12.7293 12.8759 13.1584 12.7524 13.4445 12.5053C13.7305 12.2452 13.8736 11.8941 13.8736 11.452C13.8736 11.0229 13.7305 10.6848 13.4445 10.4377C13.1584 10.1777 12.7293 10.0476 12.1571 10.0476H9.36788L10.7332 8.4092V14.5143Z" fill="white"/>
<path d="M19.5404 18.4934V7.21939H23.3049V15.6456H28.5323V18.4934H19.5404Z" fill="white"/>
<path d="M28.5526 18.4934L33.5654 7.21939H37.2714L42.2842 18.4934H38.6172L34.7942 8.95535H36.0426L32.161 18.4934H28.5526ZM31.5369 16.5038L32.4926 13.8902H37.7395L38.6953 16.5038H31.5369Z" fill="white"/>
<path d="M42.6496 18.4934V16.2113L49.1058 8.79931L49.5544 10.0671H42.8057V7.21939H52.8703V9.50149L46.4336 16.8939L45.985 15.6651H53.1434V18.4934H42.6496Z" fill="white"/>
<path d="M53.2578 18.4934L58.2707 7.21939H61.9766L66.9895 18.4934H63.3225L59.4995 8.95535H60.7478L56.8663 18.4934H53.2578ZM56.2421 16.5038L57.1979 13.8902H62.4448L63.4005 16.5038H56.2421Z" fill="white"/>
<path d="M73.6749 18.4934V7.21939H79.1363C80.2026 7.21939 81.1258 7.39493 81.906 7.74603C82.6862 8.08412 83.2844 8.56524 83.7005 9.18941C84.1296 9.81357 84.3442 10.5678 84.3442 11.452C84.3442 12.3232 84.1296 13.0709 83.7005 13.6951C83.2844 14.3193 82.6862 14.8004 81.906 15.1385C81.1258 15.4766 80.2026 15.6456 79.1363 15.6456H75.7619L77.4393 14.1047V18.4934H73.6749ZM80.5602 18.4934L77.7319 14.3973H81.7305L84.5977 18.4934H80.5602ZM77.4393 14.5143L76.074 12.8759H78.8632C79.4354 12.8759 79.8645 12.7524 80.1506 12.5053C80.4366 12.2452 80.5797 11.8941 80.5797 11.452C80.5797 11.0229 80.4366 10.6848 80.1506 10.4377C79.8645 10.1777 79.4354 10.0476 78.8632 10.0476H76.074L77.4393 8.4092V14.5143Z" fill="white"/>
<path d="M92.1724 18.7469C90.9371 18.7469 89.8318 18.4934 88.8566 17.9862C87.8813 17.4791 87.1141 16.7834 86.555 15.8992C85.9958 15.0019 85.7162 13.9877 85.7162 12.8564C85.7162 11.7121 85.9958 10.6978 86.555 9.81357C87.1141 8.92934 87.8813 8.23366 88.8566 7.72652C89.8318 7.21939 90.9371 6.96582 92.1724 6.96582C93.4078 6.96582 94.5131 7.21939 95.4883 7.72652C96.4636 8.23366 97.2308 8.92934 97.7899 9.81357C98.3491 10.6978 98.6286 11.7121 98.6286 12.8564C98.6286 13.9877 98.3491 15.0019 97.7899 15.8992C97.2308 16.7834 96.4636 17.4791 95.4883 17.9862C94.5131 18.4934 93.4078 18.7469 92.1724 18.7469ZM92.1724 15.7431C92.6926 15.7431 93.1477 15.6196 93.5378 15.3725C93.9409 15.1255 94.253 14.7874 94.4741 14.3583C94.7081 13.9162 94.8251 13.4155 94.8251 12.8564C94.8251 12.2842 94.7081 11.7836 94.4741 11.3545C94.253 10.9254 93.9409 10.5873 93.5378 10.3402C93.1477 10.0931 92.6926 9.96961 92.1724 9.96961C91.6653 9.96961 91.2102 10.0931 90.8071 10.3402C90.404 10.5743 90.0854 10.9124 89.8513 11.3545C89.6173 11.7966 89.5002 12.2972 89.5002 12.8564C89.5002 13.4155 89.6173 13.9162 89.8513 14.3583C90.0854 14.7874 90.404 15.1255 90.8071 15.3725C91.2102 15.6196 91.6653 15.7431 92.1724 15.7431Z" fill="white"/>
<path d="M102.753 18.4934V13.6171L103.435 15.8407L98.2274 7.21939H102.206L105.795 13.188H103.689L107.278 7.21939H111.042L105.834 15.8407L106.517 13.6171V18.4934H102.753Z" fill="white"/>
<path d="M109.564 18.4934L114.577 7.21939H118.283L123.295 18.4934H119.628L115.805 8.95535H117.054L113.172 18.4934H109.564ZM112.548 16.5038L113.504 13.8902H118.751L119.706 16.5038H112.548Z" fill="white"/>
<path d="M124.304 18.4934V7.21939H128.069V15.6456H133.296V18.4934H124.304Z" fill="white"/>
<path d="M47.9997 28.1783C47.2393 28.1783 46.5558 28.0284 45.9491 27.7286C45.3425 27.4287 44.8652 27.0174 44.5174 26.4946C44.1777 25.9641 44.0078 25.3645 44.0078 24.6956C44.0078 24.0114 44.1777 23.4078 44.5174 22.8851C44.8652 22.3623 45.3425 21.9548 45.9491 21.6626C46.5558 21.3628 47.2393 21.2129 47.9997 21.2129C48.6791 21.2129 49.2818 21.3128 49.8075 21.5127C50.3333 21.7126 50.7823 22.0471 51.1543 22.516L49.6498 23.773C49.4314 23.5039 49.1887 23.3079 48.9218 23.1849C48.663 23.0542 48.3839 22.9888 48.0846 22.9888C47.753 22.9888 47.4537 23.058 47.1867 23.1964C46.9279 23.3348 46.7257 23.5309 46.5801 23.7846C46.4345 24.0383 46.3617 24.342 46.3617 24.6956C46.3617 25.0416 46.4345 25.3453 46.5801 25.6066C46.7257 25.8604 46.9279 26.0564 47.1867 26.1948C47.4537 26.3332 47.753 26.4024 48.0846 26.4024C48.3839 26.4024 48.663 26.337 48.9218 26.2063C49.1887 26.0756 49.4314 25.8796 49.6498 25.6182L51.1543 26.8637C50.7823 27.3326 50.3333 27.6709 49.8075 27.8785C49.2818 28.0784 48.6791 28.1783 47.9997 28.1783Z" fill="#CF032E"/>
<path d="M52.8776 28.0284L55.9958 21.3628H58.3012L61.4194 28.0284H59.1384L56.7602 22.3892H57.5368L55.1222 28.0284H52.8776ZM54.734 26.8521L55.3285 25.3068H58.5924L59.1869 26.8521H54.734Z" fill="#CF032E"/>
<path d="M69.7154 25.9295C69.7154 26.3524 69.586 26.733 69.3271 27.0712C69.0764 27.4095 68.7043 27.6786 68.2109 27.8785C67.7175 28.0784 67.1067 28.1783 66.3787 28.1783C65.7963 28.1783 65.2261 28.1168 64.6679 27.9938C64.1179 27.8631 63.6649 27.694 63.309 27.4864L64.0855 25.8834C64.4172 26.0833 64.7933 26.2409 65.2139 26.3562C65.6427 26.4639 66.0714 26.5177 66.5001 26.5177C66.8479 26.5177 67.0865 26.4754 67.2159 26.3908C67.3454 26.3063 67.4101 26.214 67.4101 26.1141C67.4101 25.9834 67.3373 25.8834 67.1917 25.8142C67.0542 25.7373 66.8641 25.6758 66.6214 25.6297C66.3868 25.5836 66.128 25.5336 65.8449 25.4798C65.5699 25.426 65.2908 25.3568 65.0077 25.2722C64.7246 25.18 64.4657 25.0608 64.2311 24.9147C63.9966 24.7686 63.8065 24.5764 63.6609 24.3381C63.5153 24.0998 63.4425 23.7999 63.4425 23.4386C63.4425 23.0158 63.5759 22.639 63.8429 22.3084C64.1098 21.9702 64.49 21.7049 64.9834 21.5127C65.4849 21.3128 66.0835 21.2129 66.7791 21.2129C67.2321 21.2129 67.6932 21.259 68.1623 21.3513C68.6315 21.4435 69.0481 21.5896 69.4121 21.7895L68.6962 23.3925C68.3727 23.2003 68.041 23.0657 67.7013 22.9888C67.3615 22.912 67.0259 22.8735 66.6942 22.8735C66.3626 22.8735 66.1199 22.9158 65.9662 23.0004C65.8206 23.0849 65.7478 23.1926 65.7478 23.3233C65.7478 23.4463 65.8166 23.5424 65.9541 23.6116C66.0997 23.6808 66.2898 23.7423 66.5243 23.7961C66.7589 23.8422 67.0178 23.8922 67.3009 23.946C67.5921 23.9921 67.8752 24.0575 68.1502 24.1421C68.4333 24.2266 68.6922 24.342 68.9267 24.488C69.1613 24.6341 69.3514 24.8225 69.497 25.0531C69.6426 25.2837 69.7154 25.5759 69.7154 25.9295Z" fill="#CF032E"/>
<path d="M72.5003 28.0284V21.3628H74.842V28.0284H72.5003Z" fill="#CF032E"/>
<path d="M78.2423 28.0284V21.3628H80.1715L83.8236 25.4798H82.95V21.3628H85.2432V28.0284H83.314L79.6376 23.9114H80.5355V28.0284H78.2423Z" fill="#CF032E"/>
<path d="M92.2324 28.1783C91.464 28.1783 90.7764 28.0284 90.1697 27.7286C89.5631 27.4287 89.0858 27.0174 88.738 26.4946C88.3902 25.9641 88.2163 25.3645 88.2163 24.6956C88.2163 24.0191 88.3902 23.4194 88.738 22.8966C89.0858 22.3738 89.5631 21.9625 90.1697 21.6626C90.7764 21.3628 91.464 21.2129 92.2324 21.2129C93.0009 21.2129 93.6884 21.3628 94.2951 21.6626C94.9017 21.9625 95.379 22.3738 95.7268 22.8966C96.0746 23.4194 96.2485 24.0191 96.2485 24.6956C96.2485 25.3645 96.0746 25.9641 95.7268 26.4946C95.379 27.0174 94.9017 27.4287 94.2951 27.7286C93.6884 28.0284 93.0009 28.1783 92.2324 28.1783ZM92.2324 26.4024C92.556 26.4024 92.8391 26.3293 93.0817 26.1833C93.3325 26.0372 93.5266 25.8373 93.6641 25.5836C93.8097 25.3222 93.8825 25.0262 93.8825 24.6956C93.8825 24.3573 93.8097 24.0613 93.6641 23.8076C93.5266 23.5539 93.3325 23.354 93.0817 23.208C92.8391 23.0619 92.556 22.9888 92.2324 22.9888C91.9169 22.9888 91.6338 23.0619 91.3831 23.208C91.1323 23.3463 90.9341 23.5462 90.7885 23.8076C90.6429 24.069 90.5701 24.365 90.5701 24.6956C90.5701 25.0262 90.6429 25.3222 90.7885 25.5836C90.9341 25.8373 91.1323 26.0372 91.3831 26.1833C91.6338 26.3293 91.9169 26.4024 92.2324 26.4024Z" fill="#CF032E"/>
<circle cx="103.215" cy="24.6959" r="0.949831" fill="#FFD03B"/>
<circle cx="109.231" cy="24.6959" r="0.949831" fill="#FFD03B"/>
<circle cx="115.247" cy="24.6959" r="0.949831" fill="#FFD03B"/>
<circle cx="121.262" cy="24.6959" r="0.949831" fill="#FFD03B"/>
<circle cx="127.278" cy="24.6959" r="0.949831" fill="#FFD03B"/>
<circle cx="133.294" cy="24.6959" r="0.949831" fill="#FFD03B"/>
<circle cx="97.1998" cy="0.949831" r="0.949831" fill="#FFD03B"/>
<circle cx="103.215" cy="0.949831" r="0.949831" fill="#FFD03B"/>
<circle cx="109.231" cy="0.949831" r="0.949831" fill="#FFD03B"/>
<circle cx="115.247" cy="0.949831" r="0.949831" fill="#FFD03B"/>
<circle cx="121.262" cy="0.949831" r="0.949831" fill="#FFD03B"/>
<circle cx="127.278" cy="0.949831" r="0.949831" fill="#FFD03B"/>
<circle cx="139.309" cy="24.6959" r="0.949831" fill="#FFD03B"/>
<circle cx="6.96546" cy="24.6959" r="0.949831" fill="#FFD03B"/>
<circle cx="12.9811" cy="24.6959" r="0.949831" fill="#FFD03B"/>
<circle cx="18.9967" cy="24.6959" r="0.949831" fill="#FFD03B"/>
<circle cx="25.0123" cy="24.6959" r="0.949831" fill="#FFD03B"/>
<circle cx="31.028" cy="24.6959" r="0.949831" fill="#FFD03B"/>
<circle cx="37.0436" cy="24.6959" r="0.949831" fill="#FFD03B"/>
<circle cx="139.309" cy="18.6803" r="0.949831" fill="#FFD03B"/>
<circle cx="139.309" cy="12.8229" r="0.949831" fill="#FFD03B"/>
<circle cx="0.949831" cy="24.6959" r="0.949831" fill="#FFD03B"/>
<circle cx="0.949831" cy="18.6803" r="0.949831" fill="#FFD03B"/>
<circle cx="0.949831" cy="12.8229" r="0.949831" fill="#FFD03B"/>
<circle cx="139.309" cy="6.96546" r="0.949831" fill="#FFD03B"/>
<circle cx="139.309" cy="0.949831" r="0.949831" fill="#FFD03B"/>
<circle cx="133.294" cy="0.949831" r="0.949831" fill="#FFD03B"/>
<circle cx="0.949831" cy="0.949831" r="0.949831" fill="#FFD03B"/>
<circle cx="0.949831" cy="6.96546" r="0.949831" fill="#FFD03B"/>
<circle cx="6.96546" cy="0.949831" r="0.949831" fill="#FFD03B"/>
<circle cx="12.9811" cy="0.949831" r="0.949831" fill="#FFD03B"/>
<circle cx="18.9967" cy="0.949831" r="0.949831" fill="#FFD03B"/>
<circle cx="25.0123" cy="0.949831" r="0.949831" fill="#FFD03B"/>
<circle cx="31.028" cy="0.949831" r="0.949831" fill="#FFD03B"/>
<circle cx="43.0592" cy="0.949831" r="0.949831" fill="#FFD03B"/>
<circle cx="37.0436" cy="0.949831" r="0.949831" fill="#FFD03B"/>
<circle cx="49.0748" cy="0.949831" r="0.949831" fill="#FFD03B"/>
<circle cx="55.0905" cy="0.949831" r="0.949831" fill="#FFD03B"/>
<circle cx="61.1061" cy="0.949831" r="0.949831" fill="#FFD03B"/>
<circle cx="67.1217" cy="0.949831" r="0.949831" fill="#FFD03B"/>
<circle cx="73.1373" cy="0.949831" r="0.949831" fill="#FFD03B"/>
<circle cx="79.153" cy="0.949831" r="0.949831" fill="#FFD03B"/>
<circle cx="91.1842" cy="0.949831" r="0.949831" fill="#FFD03B"/>
<circle cx="85.1686" cy="0.949831" r="0.949831" fill="#FFD03B"/>
</svg>
