<svg width="130" height="42" viewBox="0 0 130 42" fill="none" xmlns="http://www.w3.org/2000/svg">
<g id="Group 577">
<g id="Group 572">
<g id="Group 570">
<path id="Vector" d="M103.908 41.5685L104.115 41.5861L104.17 41.3865L105.526 36.519L105.598 36.2578L105.332 36.2064L103.652 35.8819L103.473 35.8473L103.386 36.0074L101.78 38.9412C101.601 38.976 101.422 38.9983 101.243 39.0083C101.022 39.0205 100.533 39.027 99.7681 39.027H97.8975C96.9249 39.027 96.1512 38.9966 95.5727 38.9373C95.5335 38.3356 95.5133 37.1799 95.5133 35.4593V33.142C95.7888 33.1229 96.0745 33.1133 96.3704 33.1133H98.1075C98.4839 33.1133 98.8204 33.1258 99.1175 33.1506L99.1175 33.1508L99.1278 33.1512C99.3135 33.159 99.4667 33.1666 99.5883 33.1742L99.8644 35.0378L99.896 35.2512H100.112H101.753H102.003V35.0012V28.8547V28.6047H101.753H100.112H99.896L99.8644 28.8181L99.5883 30.6817C99.4679 30.6892 99.3164 30.6968 99.133 30.7044H99.1329H99.1311H99.1293H99.1275H99.1257H99.1239H99.1221H99.1203H99.1185H99.1167H99.1149H99.1131H99.1113H99.1095H99.1077H99.1059H99.1041H99.1023H99.1005H99.0986H99.0968H99.095H99.0932H99.0914H99.0896H99.0878H99.086H99.0842H99.0823H99.0805H99.0787H99.0769H99.0751H99.0732H99.0714H99.0696H99.0678H99.0659H99.0641H99.0623H99.0605H99.0586H99.0568H99.055H99.0532H99.0513H99.0495H99.0477H99.0458H99.044H99.0422H99.0403H99.0385H99.0366H99.0348H99.033H99.0311H99.0293H99.0274H99.0256H99.0238H99.0219H99.0201H99.0182H99.0164H99.0145H99.0127H99.0108H99.009H99.0071H99.0053H99.0034H99.0016H98.9997H98.9978H98.996H98.9941H98.9923H98.9904H98.9885H98.9867H98.9848H98.983H98.9811H98.9792H98.9774H98.9755H98.9736H98.9718H98.9699H98.968H98.9662H98.9643H98.9624H98.9605H98.9587H98.9568H98.9549H98.953H98.9512H98.9493H98.9474H98.9455H98.9436H98.9417H98.9399H98.938H98.9361H98.9342H98.9323H98.9304H98.9285H98.9267H98.9248H98.9229H98.921H98.9191H98.9172H98.9153H98.9134H98.9115H98.9096H98.9077H98.9058H98.9039H98.902H98.9001H98.8982H98.8963H98.8944H98.8925H98.8906H98.8887H98.8868H98.8849H98.883H98.881H98.8791H98.8772H98.8753H98.8734H98.8715H98.8696H98.8676H98.8657H98.8638H98.8619H98.86H98.858H98.8561H98.8542H98.8523H98.8504H98.8484H98.8465H98.8446H98.8426H98.8407H98.8388H98.8369H98.8349H98.833H98.8311H98.8291H98.8272H98.8253H98.8233H98.8214H98.8194H98.8175H98.8156H98.8136H98.8117H98.8097H98.8078H98.8058H98.8039H98.802H98.8H98.7981H98.7961H98.7942H98.7922H98.7903H98.7883H98.7864H98.7844H98.7824H98.7805H98.7785H98.7766H98.7746H98.7727H98.7707H98.7687H98.7668H98.7648H98.7628H98.7609H98.7589H98.7569H98.755H98.753H98.751H98.7491H98.7471H98.7451H98.7432H98.7412H98.7392H98.7372H98.7353H98.7333H98.7313H98.7293H98.7273H98.7254H98.7234H98.7214H98.7194H98.7174H98.7155H98.7135H98.7115H98.7095H98.7075H98.7055H98.7035H98.7015H98.6995H98.6975H98.6956H98.6936H98.6916H98.6896H98.6876H98.6856H98.6836H98.6816H98.6796H98.6776H98.6756H98.6736H98.6716H98.6696H98.6676H98.6655H98.6635H98.6615H98.6595H98.6575H98.6555H98.6535H98.6515H98.6495H98.6474H98.6454H98.6434H98.6414H98.6394H98.6374H98.6353H98.6333H98.6313H98.6293H98.6273H98.6252H98.6232H98.6212H98.6192H98.6171H98.6151H98.6131H98.611H98.609H98.607H98.6049H98.6029H98.6009H98.5988H98.5968H98.5948H98.5927H98.5907H98.5886H98.5866H98.5846H98.5825H98.5805H98.5784H98.5764H98.5743H98.5723H98.5702H98.5682H98.5661H98.5641H98.562H98.56H98.5579H98.5559H98.5538H98.5518H98.5497H98.5477H98.5456H98.5435H98.5415H98.5394H98.5374H98.5353H98.5332H98.5312H98.5291H98.527H98.525H98.5229H98.5208H98.5188H98.5167H98.5146H98.5126H98.5105H98.5084H98.5063H98.5043H98.5022H98.5001H98.498H98.4959H98.4939H98.4918H98.4897H98.4876H98.4855H98.4835H98.4814H98.4793H98.4772H98.4751H98.473H98.4709H98.4688H98.4667H98.4647H98.4626H98.4605H98.4584H98.4563H98.4542H98.4521H98.45H98.4479H98.4458H98.4437H98.4416H98.4395H98.4374H98.4353H98.4332H98.4311H98.429H98.4268H98.4247H98.4226H98.4205H98.4184H98.4163H98.4142H98.4121H98.4099H98.4078H98.4057H98.4036H98.4015H98.3994H98.3972H98.3951H98.393H98.3909H98.3887H98.3866H98.3845H98.3824H98.3802H98.3781H98.376H98.3739H98.3717H98.3696H98.3675H98.3653H98.3632H98.3611H98.3589H98.3568H98.3546H98.3525H98.3504H98.3482H98.3461H98.3439H98.3418H98.3397H98.3375H98.3354H98.3332H98.3311H98.3289H98.3268H98.3246H98.3225H98.3203H98.3182H98.316H98.3139H98.3117H98.3096H98.3074H98.3052H98.3031H98.3009H98.2988H98.2966H98.2944H98.2923H98.2901H98.2879H98.2858H98.2836H98.2814H98.2793H98.2771H98.2749H98.2728H98.2706H98.2684H98.2662H98.2641H98.2619H98.2597H98.2575H98.2554H98.2532H98.251H98.2488H98.2466H98.2445H98.2423H98.2401H98.2379H98.2357H98.2335H98.2314H98.2292H98.227H98.2248H98.2226H98.2204H98.2182H98.216H98.2138H98.2116H98.2094H98.2072H98.205H98.2028H98.2006H98.1984H98.1962H98.194H98.1918H98.1896H98.1874H98.1852H98.183H98.1808H98.1786H98.1764H98.1742H98.172H98.1697H98.1675H98.1653H98.1631H98.1609H98.1587H98.1565H98.1542H98.152H98.1498H98.1476H98.1454H98.1431H98.1409H98.1387H98.1365H98.1342H98.132H98.1298H98.1276H98.1253H98.1231H98.1209H98.1186H98.1164H98.1142H98.1119H98.1097H98.1075H96.3704C96.0749 30.7044 95.7892 30.6997 95.5133 30.6902V28.7211C95.5133 26.9504 95.5334 25.7874 95.5721 25.2184C95.7518 25.1969 95.9634 25.1814 96.2079 25.1723C96.5479 25.1597 96.9202 25.1534 97.3248 25.1534H99.8254C100.045 25.1534 100.258 25.1656 100.464 25.1899L100.472 25.1907L100.479 25.1912C100.645 25.201 100.826 25.223 101.021 25.2577L102.096 27.8065L102.17 27.9827L102.359 27.9572L104.058 27.7281L104.316 27.6934L104.271 27.4372L103.488 22.9705L103.448 22.7404L103.216 22.7651C102.627 22.8278 101.902 22.872 101.042 22.8973C100.178 22.91 99.4543 22.9164 98.871 22.9164H89.365H89.1307L89.1155 23.1502L89.0201 24.62L89.0065 24.8291L89.21 24.879L91.0083 25.3198C91.0185 25.3866 91.0288 25.4759 91.0392 25.5894C91.0609 25.8286 91.0814 26.163 91.1004 26.5942C91.1384 27.4546 91.1574 28.5323 91.1574 29.8282V34.524C91.1574 35.7816 91.1384 36.8403 91.1004 37.7007C91.0814 38.1319 91.0609 38.4697 91.0391 38.7157C91.0282 38.8388 91.0172 38.9364 91.0062 39.01C91.0061 39.0108 91.006 39.0116 91.0059 39.0125L89.2123 39.4345L89.0063 39.4829L89.0201 39.694L89.1155 41.1638L89.1307 41.3976H89.365H99.9018C100.496 41.3976 101.16 41.4103 101.895 41.4356C102.643 41.4736 103.314 41.518 103.908 41.5685Z" fill="black" stroke="white" stroke-width="0.5"/>
<path id="Vector_2" d="M87.122 22.7544L87.152 22.9809L87.8583 28.3257L87.8926 28.5853L87.6316 28.6075L85.8373 28.7602L85.6447 28.7766L85.5804 28.5944L84.3905 25.2262C84.0066 25.1777 83.6228 25.1534 83.2392 25.1534H82.1893C82.0037 25.1534 81.7853 25.1596 81.5337 25.1722L81.5212 25.1728V25.1725C81.3811 25.1725 81.2568 25.1769 81.1477 25.1854C81.1394 25.3794 81.1308 25.6856 81.1222 26.1085C81.1222 26.7327 81.1158 27.477 81.1031 28.3412V28.3444V28.3495V28.3545V28.3596V28.3647V28.3698V28.3748V28.3799V28.385V28.39V28.3951V28.4002V28.4053V28.4103V28.4154V28.4205V28.4255V28.4306V28.4357V28.4408V28.4458V28.4509V28.456V28.4611V28.4661V28.4712V28.4763V28.4814V28.4864V28.4915V28.4966V28.5017V28.5067V28.5118V28.5169V28.522V28.527V28.5321V28.5372V28.5423V28.5473V28.5524V28.5575V28.5626V28.5676V28.5727V28.5778V28.5829V28.588V28.593V28.5981V28.6032V28.6083V28.6133V28.6184V28.6235V28.6286V28.6337V28.6387V28.6438V28.6489V28.654V28.6591V28.6641V28.6692V28.6743V28.6794V28.6845V28.6895V28.6946V28.6997V28.7048V28.7099V28.7149V28.72V28.7251V28.7302V28.7353V28.7403V28.7454V28.7505V28.7556V28.7607V28.7658V28.7708V28.7759V28.781V28.7861V28.7912V28.7963V28.8013V28.8064V28.8115V28.8166V28.8217V28.8268V28.8318V28.8369V28.842V28.8471V28.8522V28.8573V28.8624V28.8674V28.8725V28.8776V28.8827V28.8878V28.8929V28.898V28.903V28.9081V28.9132V28.9183V28.9234V28.9285V28.9336V28.9386V28.9437V28.9488V28.9539V28.959V28.9641V28.9692V28.9743V28.9794V28.9844V28.9895V28.9946V28.9997V29.0048V29.0099V29.015V29.0201V29.0252V29.0302V29.0353V29.0404V29.0455V29.0506V29.0557V29.0608V29.0659V29.071V29.0761V29.0812V29.0862V29.0913V29.0964V29.1015V29.1066V29.1117V29.1168V29.1219V29.127V29.1321V29.1372V29.1423V29.1474V29.1525V29.1575V29.1626V29.1677V29.1728V29.1779V29.183V29.1881V29.1932V29.1983V29.2034V29.2085V29.2136V29.2187V29.2238V29.2289V29.234V29.2391V29.2442V29.2493V29.2544V29.2595V29.2645V29.2696V29.2747V29.2798V29.2849V29.29V29.2951V29.3002V29.3053V29.3104V29.3155V29.3206V29.3257V29.3308V29.3359V29.341V29.3461V29.3512V29.3563V29.3614V29.3665V29.3716V29.3767V29.3818V29.3869V29.392V29.3971V29.4022V29.4073V29.4124V29.4175V29.4226V29.4277V29.4328V29.4379V29.443V29.4481V29.4532V29.4583V29.4634V29.4685V29.4736V29.4787V29.4838V29.489V29.4941V29.4992V29.5043V29.5094V29.5145V29.5196V29.5247V29.5298V29.5349V29.54V29.5451V29.5502V29.5553V29.5604V29.5655V29.5706V29.5757V29.5808V29.5859V29.591V29.5962V29.6013V29.6064V29.6115V29.6166V29.6217V29.6268V29.6319V29.637V29.6421V29.6472V29.6523V29.6574V29.6625V29.6677V29.6728V29.6779V29.683V29.6881V29.6932V29.6983V29.7034V29.7085V29.7136V29.7187V29.7239V29.729V29.7341V29.7392V29.7443V29.7494V29.7545V29.7596V29.7647V29.7699V29.775V29.7801V29.7852V29.7903V29.7954V29.8005V29.8056V29.8107V29.8159V29.821V29.8261V29.8312V29.8363V29.8414V29.8465V29.8517V29.8568V29.8619V29.867V29.8721V29.8772V29.8823V29.8874V29.8926V29.8977V29.9028V29.9079V29.913V29.9181V29.9233V29.9284V29.9335V29.9386V29.9437V29.9488V29.954V29.9591V29.9642V29.9693V29.9744V29.9795V29.9847V29.9898V29.9949V30V30.0051V30.0102V30.0154V30.0205V30.0256V30.0307V30.0358V30.041V30.0461V30.0512V30.0563V30.0614V30.0666V30.0717V30.0768V30.0819V30.087V30.0922V30.0973V30.1024V30.1075V30.1126V30.1178V30.1229V30.128V30.1331V30.1382V30.1434V30.1485V30.1536V30.1587V30.1639V30.169V30.1741V30.1792V30.1843V30.1895V30.1946V30.1997V30.2048V30.21V30.2151V30.2202V30.2253V30.2305V30.2356V30.2407V30.2458V30.251V30.2561V30.2612V30.2663V30.2715V30.2766V30.2817V30.2868V30.292V30.2971V30.3022V30.3073V30.3125V30.3176V30.3227V30.3278V30.333V30.3381V30.3432V30.3484V30.3535V30.3586V30.3637V30.3689V30.374V30.3791V30.3843V30.3894V30.3945V30.3996V30.4048V30.4099V30.415V30.4202V30.4253V30.4304V30.4355V30.4407V30.4458V30.4509V30.4561V30.4612V30.4663V30.4715V30.4766V30.4817V30.4869V30.492V30.4971V30.5023V30.5074V30.5125V30.5177V30.5228V30.5279V30.533V30.5382V30.5433V30.5484V30.5536V30.5587V30.5638V30.569V30.5741V30.5793V30.5844V30.5895V30.5947V30.5998V30.6049V30.6101V30.6152V30.6203V30.6255V30.6306V30.6357V30.6409V30.646V30.6511V30.6563V30.6614V30.6666V30.6717V30.6768V30.682V30.6871V30.6922V30.6974V30.7025V30.7077V30.7128V30.7179V30.7231V30.7282V30.7333V30.7385V30.7436V30.7488V30.7539V30.759V30.7642V30.7693V30.7745V30.7796V30.7847V30.7899V30.795V30.8002V30.8053V30.8104V30.8156V30.8207V30.8259V30.831V30.8361V30.8413V30.8464V30.8516V30.8567V30.8619V30.867V30.8721V30.8773V30.8824V30.8876V30.8927V30.8979V30.903V30.9081V30.9133V30.9184V30.9236V30.9287V30.9339V30.939V30.9442V30.9493V30.9544V34.0086C81.1031 35.1904 81.1158 36.2442 81.1412 37.1704M87.122 22.7544L80.8913 37.1773M87.122 22.7544L86.8937 22.7639C86.5873 22.7767 86.1793 22.7958 85.67 22.8212L85.6697 22.8213C85.1746 22.8467 84.6668 22.872 84.1463 22.8974C83.6271 22.9101 83.1912 22.9164 82.8383 22.9164H74.8594C74.5064 22.9164 74.0642 22.9101 73.5322 22.8974C73.0117 22.872 72.4975 22.8466 71.9897 22.8213M87.122 22.7544L71.9897 22.8213M81.1412 37.1704L80.8913 37.1773M81.1412 37.1704C81.1412 37.1704 81.1412 37.1703 81.1412 37.1703L80.8913 37.1773M81.1412 37.1704C81.163 37.9536 81.1801 38.5647 81.1925 39.0037M80.8913 37.1773C80.9167 38.0935 80.9358 38.7743 80.9486 39.2197M81.1925 39.0037L80.9859 38.9725L80.9486 39.2197M81.1925 39.0037L83.6392 39.3734L83.8656 39.4076L83.8514 39.6362L83.7559 41.1632L83.7413 41.3976H83.5064H74.2867H74.0518L74.0372 41.1632L73.9418 39.6362L73.9275 39.4076L74.1539 39.3734L76.5954 39.0045M81.1925 39.0037C81.1946 39.0783 81.1966 39.1479 81.1985 39.2126L80.9486 39.2197M80.9486 39.2197L76.5954 39.0045M87.6104 28.3584L87.361 28.3796L87.3626 28.3912L87.6104 28.3584ZM87.6104 28.3584L87.5892 28.1093L87.5776 28.1103L87.6104 28.3584ZM71.9897 22.8213C71.4932 22.7958 71.098 22.7767 70.8044 22.7639L70.5731 22.7538L70.5453 22.9837L69.8963 28.3667L69.8659 28.6187L70.1184 28.6452L71.9318 28.8361L72.1332 28.8573L72.1957 28.6646L73.3117 25.2253C73.6885 25.1776 74.0961 25.1534 74.5349 25.1534H75.6038C75.7893 25.1534 76.0012 25.1596 76.2397 25.1722L76.2397 25.1725H76.2528C76.3964 25.1725 76.5199 25.1767 76.6243 25.1846C76.6297 25.3772 76.6327 25.6825 76.6327 26.106H76.6327L76.6328 26.1111C76.6455 26.7324 76.6518 27.4751 76.6518 28.3393L76.6518 28.343C76.6646 29.2071 76.6709 30.0776 76.6709 30.9544V34.0086C76.6709 35.1903 76.6582 36.2442 76.6328 37.1703C76.6328 37.1703 76.6328 37.1704 76.6328 37.1704L76.8827 37.1773M71.9897 22.8213L83.5064 41.1476H74.2867L74.1913 39.6206L76.8446 39.2197M76.8827 37.1773C76.8573 38.0935 76.8446 38.7743 76.8446 39.2197M76.8827 37.1773C76.9082 36.2483 76.9209 35.1921 76.9209 34.0086V30.9544C76.9209 30.0764 76.9145 29.2047 76.9018 28.3393L76.8827 37.1773ZM76.8446 39.2197L76.8072 38.9725L76.5954 39.0045M76.8446 39.2197H76.5946C76.5946 39.1531 76.5948 39.0814 76.5954 39.0045M70.1445 28.3966L70.3932 28.4228L70.3927 28.4265L70.1445 28.3966ZM70.1445 28.3966L70.1745 28.1484L70.1707 28.148L70.1445 28.3966ZM76.2528 24.9225C76.5073 24.9225 76.7109 24.9352 76.8636 24.9607C76.8764 25.1007 76.8827 25.4824 76.8827 26.106L76.2528 24.9225ZM76.2528 24.9225C76.011 24.9098 75.7947 24.9034 75.6038 24.9034H74.5349C74.0258 24.9034 73.555 24.9352 73.1223 24.9989L76.2528 24.9225Z" fill="black" stroke="white" stroke-width="0.5"/>
<path id="Vector_3" d="M50.8621 41.1569L50.8715 41.3971H51.112H56.8957H57.1331L57.1454 41.1601L57.2218 39.6903L57.2326 39.4818L57.0293 39.434L55.3517 39.0392L56.3665 36.1004C56.6564 36.0885 56.962 36.0789 57.2833 36.0714L57.2833 36.0715L57.2889 36.0712C57.8438 36.046 58.5206 36.0333 59.32 36.0333C60.1065 36.0333 60.7834 36.046 61.3513 36.0712L61.3513 36.0713L61.3569 36.0714C61.6344 36.0776 61.8971 36.0823 62.1451 36.0854L63.3671 39.0431L61.706 39.434L61.5001 39.4824L61.5138 39.6935L61.6092 41.1633L61.6244 41.3971H61.8587H69.7231H69.9574L69.9726 41.1633L70.0681 39.6935L70.0811 39.493L69.888 39.4372L68.4185 39.0122L61.4975 22.5156L61.3886 22.256L61.1437 22.3948L58.7195 23.7692L58.6443 23.8118L58.6115 23.8916L52.3958 39.014L50.9829 39.4379L50.7973 39.4935L50.8049 39.6871L50.8621 41.1569ZM61.2617 33.7079C60.7249 33.7286 60.0779 33.739 59.32 33.739C58.4581 33.739 57.757 33.7263 57.2156 33.7012C57.2086 33.7007 57.2015 33.7002 57.1945 33.6997L59.0992 28.5338L61.2617 33.7079Z" fill="black" stroke="white" stroke-width="0.5"/>
<path id="Vector_4" d="M25.4963 22.916H25.2589L25.2466 23.153L25.1703 24.6229L25.1596 24.8284L25.3593 24.8784L27.0796 25.3084C27.0816 25.5952 27.0878 26.0028 27.0979 26.5304C27.1105 27.187 27.1043 28.0165 27.0789 29.0198H27.0789L27.0788 29.022L26.9834 34.8249L26.9834 34.826C26.9706 35.8683 26.9516 36.8149 26.9262 37.6657L26.9262 37.6657L26.9261 37.6694C26.9163 38.3198 26.9026 38.7644 26.8864 39.0138L24.9472 39.4331L24.7393 39.4781L24.7503 39.6904L24.8267 41.1602L24.839 41.3973H25.0764H31.6809H31.9183L31.9306 41.1602L32.007 39.6904L32.018 39.4781L31.8101 39.4331L29.8672 39.013C29.8531 38.8203 29.8404 38.4846 29.8312 37.993C29.8185 37.3083 29.8121 36.1651 29.8121 34.5618L29.8121 34.5609L29.7914 28.8561L35.6541 41.33L35.7216 41.4736H35.8804H37.6556H37.8207L37.8855 41.3218L43.4757 28.2345L43.533 34.5068L43.783 34.5045L43.533 34.5068C43.5457 35.8931 43.5457 36.9787 43.533 37.7646H43.533V37.7686C43.533 38.3677 43.5252 38.7803 43.5114 39.0174L41.7405 39.4341L41.5346 39.4826L41.5483 39.6937L41.6438 41.1635L41.6589 41.3973H41.8932H49.9104H50.1477L50.16 41.1602L50.2364 39.6904L50.2472 39.4815L50.0434 39.434L48.2496 39.016C48.2264 38.7684 48.195 38.3185 48.1556 37.6583C48.1049 36.8084 48.0541 35.7162 48.0032 34.3813C48.0032 34.381 48.0032 34.3808 48.0032 34.3805L47.8315 28.9823C47.8188 28.0286 47.8061 27.2144 47.7933 26.5399C47.7831 25.9972 47.7812 25.5823 47.7873 25.2929L49.5291 24.879L49.7345 24.8303L49.7208 24.6196L49.6254 23.1498L49.6102 22.916H49.3759H43.1912H43.026L42.9612 23.0681L37.7127 35.3944L31.9648 23.0604L31.8975 22.916H31.7382H25.4963Z" fill="black" stroke="white" stroke-width="0.5"/>
</g>
</g>
<g id="Group 569">
<path id="Vector_5" d="M105.2 2.62584L107.023 3.01917L103.774 8.44217L100.472 3.01107L102.074 2.62448L102.279 2.57505L102.265 2.36484L102.169 0.926746L102.153 0.693359H101.92H94.104H93.8669L93.8543 0.930058L93.7777 2.36815L93.7672 2.56426L93.9553 2.62085L95.4156 3.0603L100.539 11.4173V13.0084C100.539 13.8639 100.52 14.6501 100.482 15.3671L100.482 15.3671L100.482 15.3715C100.469 15.7312 100.455 16.0138 100.439 16.2207C100.433 16.3111 100.426 16.3825 100.42 16.4373L98.4436 16.8157L98.2269 16.8572L98.2412 17.0774L98.3369 18.5529L98.3521 18.7867H98.5864H106.881H107.118L107.131 18.5497L107.207 17.0742L107.218 16.8567L107.005 16.8157L105.017 16.4351C105.008 16.3773 104.998 16.3037 104.989 16.2132C104.967 16.0083 104.947 15.7275 104.928 15.3693C104.902 14.6512 104.89 13.8643 104.89 13.0084V11.0227L110.029 3.06166L111.511 2.62109L111.703 2.56417L111.689 2.36484L111.594 0.926746L111.578 0.693359H111.344H105.348H105.115L105.099 0.926746L105.003 2.36484L104.989 2.5803L105.2 2.62584Z" fill="black" stroke="white" stroke-width="0.5"/>
<path id="Vector_6" d="M85.1562 18.7867L85.1406 18.5533L85.0449 17.1152L85.03 16.8925L85.2497 16.8526L86.5201 16.6222C86.4568 16.5331 86.3908 16.4439 86.3221 16.3546L86.3168 16.3476L86.312 16.3404C86.1773 16.1374 85.9722 15.8583 85.6944 15.5011L81.8078 10.9612H81.4641V12.0559C81.4641 13.3245 81.4769 14.3738 81.5023 15.2045C81.515 15.6137 81.5309 15.9344 81.5495 16.1682C81.5589 16.2852 81.5688 16.3778 81.5789 16.4476C81.579 16.4482 81.579 16.4488 81.5791 16.4494L83.062 16.8576L83.2586 16.9117L83.2451 17.1152L83.1493 18.5533L83.1337 18.7867H82.8998H75.3525H75.1186L75.103 18.5533L75.0072 17.1152L74.9931 16.903L75.2003 16.855L76.9717 16.4446C76.979 16.3783 76.9869 16.2884 76.9947 16.1715C77.0103 15.9361 77.0246 15.6142 77.0373 15.2046L85.1562 18.7867ZM85.1562 18.7867H85.3901H94.1826H94.4326V18.5367V17.0612V16.8473L94.2212 16.8143L92.7489 16.5839C92.5892 16.4257 92.368 16.1979 92.0843 15.8992C91.7695 15.5677 91.2748 15.0113 90.5982 14.2272L90.5979 14.2268L85.4799 8.31642M85.1562 18.7867L85.4799 8.31642M85.4799 8.31642L91.5343 2.97259L93.4534 2.68472L93.6776 2.65109L93.666 2.42468L93.5894 0.930556L93.5772 0.693359H93.3397H86.5394H86.3055L86.29 0.926746L86.1942 2.36484L86.1794 2.58755L86.399 2.62743L87.8837 2.89708M85.4799 8.31642L87.8837 2.89708M87.8837 2.89708L81.9328 8.85689L81.4641 8.95481V7.46148C81.4641 6.23107 81.4833 5.19544 81.5213 4.3538L81.5214 4.35363C81.5404 3.926 81.5625 3.59218 81.5873 3.35013C81.5998 3.22894 81.6126 3.13396 81.6254 3.06332C81.6257 3.06114 81.6261 3.05899 81.6265 3.05687L83.4182 2.62448L83.6203 2.57572L83.6092 2.36815L83.5326 0.930058L83.52 0.693359H83.283H75.2758H75.0388L75.0262 0.930058L74.9496 2.36815L74.9385 2.57572L75.1406 2.62448L76.9263 3.05544C76.9364 3.12102 76.9466 3.20853 76.9568 3.31952C76.9787 3.55653 76.9992 3.88818 77.0183 4.31628L77.0183 4.31644C77.0564 5.15803 77.0755 6.20609 77.0755 7.46148V12.0559C77.0755 13.3245 77.0628 14.3738 77.0373 15.2045L87.8837 2.89708Z" fill="black" stroke="white" stroke-width="0.5"/>
<path id="Vector_7" d="M69.8613 18.6098C70.9484 18.3196 71.8417 17.963 72.5332 17.5351L72.6227 17.4797L72.6457 17.377L73.5268 13.4363L73.5874 13.1653L73.3116 13.1334L71.3769 12.9093L71.1903 12.8876L71.1176 13.0608L69.9765 15.7785C69.6077 16.0377 69.1823 16.2359 68.6976 16.3712C68.183 16.5024 67.6492 16.5682 67.0955 16.5682C66.0315 16.5682 65.0703 16.2889 64.2055 15.731C63.3424 15.1618 62.6493 14.3403 62.1298 13.2551C61.6134 12.1761 61.3498 10.864 61.3498 9.31022C61.3498 7.3327 61.8188 5.76701 62.7334 4.58967C63.647 3.4297 64.9911 2.83665 66.8082 2.83665C67.2741 2.83665 67.7474 2.89043 68.2283 2.99864L68.2283 2.99874L68.2354 3.00012C68.6883 3.08845 69.0895 3.21649 69.4408 3.38237L70.4797 6.38504L70.5425 6.56654L70.7341 6.55263L72.5347 6.4219L72.7778 6.40425L72.7664 6.16086L72.5556 1.65981L72.5484 1.50528L72.4069 1.4428C71.7082 1.13435 70.8782 0.893058 69.92 0.716225C68.9604 0.526659 68.0124 0.431641 67.0764 0.431641C64.9637 0.431641 63.0805 0.823488 61.4326 1.61401C59.7971 2.39224 58.5092 3.5055 57.576 4.95346C56.6397 6.39357 56.1758 8.07945 56.1758 10.0013C56.1758 11.9321 56.6126 13.5821 57.5 14.938C58.3832 16.2874 59.6022 17.3138 61.1496 18.017L61.1512 18.0177C62.6957 18.7068 64.4683 19.0479 66.4634 19.0479C67.6461 19.0479 68.779 18.9022 69.8613 18.6098ZM69.8613 18.6098C69.8612 18.6098 69.8611 18.6099 69.861 18.6099L69.7965 18.3684M69.8613 18.6098C69.8614 18.6098 69.8616 18.6097 69.8617 18.6097L69.7965 18.3684M69.7965 18.3684C70.8692 18.082 71.7376 17.7334 72.4017 17.3225L61.253 17.7894C62.76 18.4617 64.4967 18.7979 66.4634 18.7979C67.6255 18.7979 68.7366 18.6547 69.7965 18.3684Z" fill="black" stroke="white" stroke-width="0.5"/>
<path id="Vector_8" d="M34.7407 0.693359H34.5037L34.491 0.930058L34.4144 2.36815L34.4035 2.5738L34.6032 2.62394L36.3737 3.06831C36.3796 3.13021 36.3859 3.20876 36.3925 3.30455C36.4083 3.53211 36.4257 3.85055 36.4448 4.26076L36.4449 4.26093C36.4829 5.06463 36.502 6.13101 36.502 7.46148V11.2902C36.502 13.7412 37.1938 15.669 38.6089 17.0356L38.6106 17.0373C40.0373 18.3893 42.0482 19.0482 44.6059 19.0482C46.8437 19.0482 48.6555 18.3699 50.0134 16.9941C51.3872 15.6025 52.0585 13.6581 52.0585 11.1968V7.98443C52.0585 6.56707 52.0712 5.38717 52.0967 4.44422C52.1158 3.96656 52.1348 3.59993 52.1536 3.34289C52.1619 3.22894 52.1701 3.13869 52.178 3.07091L53.9759 2.62408L54.1762 2.57429L54.1653 2.36815L54.0886 0.930058L54.076 0.693359H53.839H47.1345H46.9006L46.885 0.926746L46.7892 2.36484L46.775 2.57852L46.984 2.62539L48.9927 3.07602C48.9927 3.07627 48.9928 3.07652 48.9928 3.07677C49.0038 3.15541 49.0149 3.26276 49.0259 3.40053C49.0479 3.67562 49.0685 4.06075 49.0876 4.55755C49.1257 5.54965 49.1449 6.69184 49.1449 7.98443V10.7486C49.1449 12.5668 48.7843 13.8538 48.1111 14.6598L48.1097 14.6615C47.453 15.4618 46.4787 15.8774 45.1423 15.8774C43.7526 15.8774 42.7242 15.4601 42.0167 14.6556C41.3071 13.8366 40.9356 12.5692 40.9481 10.8064V10.8046V7.46148H40.9481L40.9481 7.45897C40.9354 6.19109 40.9482 5.18835 40.9861 4.44868C41.0176 3.83414 41.0447 3.3739 41.0673 3.06623L42.8464 2.62408L43.0495 2.57361L43.0356 2.36484L42.9398 0.926746L42.9242 0.693359H42.6903H34.7407Z" fill="black" stroke="white" stroke-width="0.5"/>
<path id="Vector_9" d="M31.9816 18.9725L32.189 18.9903L32.244 18.7895L33.6807 13.5414L33.7494 13.2902L33.4957 13.2317L31.7143 12.8209L31.5281 12.7779L31.4378 12.9462L29.7693 16.0552C29.5699 16.0932 29.3243 16.1278 29.0309 16.1585C28.6942 16.1827 28.3186 16.1949 27.9035 16.1949H26.486C25.6518 16.1949 24.9522 16.1597 24.3851 16.0906C24.3514 15.8327 24.3234 15.4227 24.3031 14.8508C24.2904 14.131 24.2841 13.1995 24.2841 12.0559V7.46148C24.2841 6.19446 24.3032 5.1471 24.3412 4.31839C24.3666 3.89694 24.3903 3.57086 24.4123 3.3388C24.4214 3.24239 24.43 3.16387 24.4381 3.1024L26.8355 2.68376L27.0563 2.6452L27.042 2.42149L26.9462 0.927366L26.9312 0.693359H26.6967H18.0766H17.8396L17.827 0.930058L17.7504 2.36815L17.7393 2.57477L17.9403 2.62421L19.7533 3.07043C19.7611 3.14217 19.7688 3.23646 19.7762 3.35443C19.7919 3.60236 19.8062 3.94614 19.8189 4.38707L19.8189 4.38717C19.8444 5.25562 19.8571 6.28028 19.8571 7.46148V12.0559C19.8571 13.1997 19.8444 14.2119 19.8189 15.093C19.8062 15.5339 19.7919 15.881 19.7762 16.1353C19.768 16.2681 19.7597 16.3699 19.7519 16.4442L17.9446 16.8548L17.7391 16.9015L17.7504 17.1119L17.827 18.55L17.8396 18.7867H18.0766H27.4821C27.9636 18.7867 28.6499 18.7991 29.5423 18.8239C30.4455 18.8611 31.2585 18.9107 31.9816 18.9725Z" fill="black" stroke="white" stroke-width="0.5"/>
</g>
<g id="Group 581">
<g id="Group 574">
<path id="Vector_10" d="M15.3133 20.6239C15.3567 20.6481 15.3999 20.6713 15.4428 20.6935C15.4007 20.7166 15.3583 20.7407 15.3157 20.7657C14.9817 20.9621 14.5951 21.2394 14.1802 21.5708C13.3494 22.2341 12.3859 23.1291 11.4718 24.067C10.5576 25.0049 9.68731 25.9913 9.04455 26.8391C8.7235 27.2625 8.45552 27.6562 8.26701 27.9951C8.24287 28.0385 8.2196 28.0817 8.19741 28.1246C8.17434 28.0825 8.1502 28.0401 8.12519 27.9975C7.92888 27.6635 7.65149 27.2769 7.32018 26.862C6.65684 26.0312 5.76185 25.0677 4.82396 24.1535C3.88607 23.2394 2.89963 22.3691 2.05186 21.7263C1.62842 21.4053 1.23474 21.1373 0.895868 20.9488C0.852474 20.9247 0.809245 20.9014 0.766305 20.8792C0.808471 20.8561 0.850885 20.832 0.89343 20.807C1.22741 20.6107 1.61403 20.3333 2.02897 20.002C2.85974 19.3386 3.82326 18.4436 4.73739 17.5058C5.65154 16.5679 6.52183 15.5814 7.1646 14.7337C7.48565 14.3102 7.75363 13.9165 7.94214 13.5777C7.96628 13.5343 7.98954 13.491 8.01174 13.4481C8.03481 13.4903 8.05895 13.5327 8.08396 13.5752C8.28027 13.9092 8.55766 14.2958 8.88897 14.7108C9.5523 15.5415 10.4473 16.505 11.3852 17.4192C12.3231 18.3333 13.3095 19.2036 14.1573 19.8464C14.5807 20.1674 14.9744 20.4354 15.3133 20.6239Z" fill="#B50F00" stroke="white" stroke-width="0.5"/>
</g>
<g id="Group 573">
<path id="Vector_11" d="M121.367 16.0507L121.578 16.418L121.797 16.0557C122.899 14.2371 124.82 13.6937 126.469 14.0599C128.124 14.4276 129.45 15.6934 129.424 17.4607L129.424 17.4619C129.404 19.4855 127.967 21.0269 126.178 22.6012C125.891 22.8541 125.594 23.1084 125.294 23.365C124.676 23.8944 124.046 24.434 123.463 24.9937C122.692 25.7328 121.984 26.5235 121.459 27.4086C120.953 26.5193 120.265 25.7196 119.515 24.9698C118.943 24.399 118.325 23.8474 117.719 23.3062C117.425 23.044 117.134 22.7843 116.853 22.5261C115.1 20.9182 113.695 19.3497 113.715 17.3259C113.734 15.5576 115.091 14.3147 116.753 13.9759C118.408 13.6385 120.312 14.2153 121.367 16.0507Z" fill="#B50F00" stroke="white" stroke-width="0.5"/>
</g>
</g>
</g>
</svg>
