<svg width="143" height="28" viewBox="0 0 143 28" fill="none" xmlns="http://www.w3.org/2000/svg">
<path d="M0 27.3289V26.5171C3.88215 26.467 6.90494 26.334 9.06835 26.1181C11.2368 25.9028 15.3338 25.7951 21.3593 25.7951C27.6747 25.7951 32.1315 25.9255 34.7295 26.1862C37.3276 26.4469 41.1623 26.5773 46.2336 26.5773C51.3648 26.5773 55.2295 26.4469 57.8276 26.1862C60.4257 25.9255 64.8824 25.7951 71.1978 25.7951C77.4532 25.7951 81.91 25.9255 84.568 26.1862C87.2261 26.4469 91.0907 26.5773 96.162 26.5773C101.293 26.5773 105.143 26.4469 107.711 26.1862C110.284 25.9255 114.726 25.7951 121.036 25.7951C127.062 25.7951 131.159 25.9031 133.327 26.1189C135.491 26.3343 138.513 26.4673 142.396 26.5178V27.3297C137.869 27.2692 134.277 27.1287 131.619 26.9081C128.96 26.6876 125.433 26.5773 121.036 26.5773C116.06 26.5773 112.248 26.7076 109.6 26.9684C106.952 27.2291 102.472 27.3594 96.162 27.3594C89.9066 27.3594 85.4499 27.2291 82.7918 26.9684C80.1338 26.7076 76.2691 26.5775 71.1978 26.5781C66.0666 26.5781 62.2019 26.7084 59.6038 26.9691C57.0057 27.2299 52.549 27.3602 46.2336 27.3602C39.9182 27.3602 35.454 27.2299 32.8409 26.9691C30.2278 26.7084 26.4006 26.5781 21.3593 26.5781C16.8027 26.5781 13.2978 26.6883 10.8446 26.9089C8.39135 27.13 4.7765 27.2705 0 27.3305M0 24.3818V23.5699C3.88215 23.5198 6.90494 23.3869 9.06835 23.171C11.2368 22.9556 15.3338 22.848 21.3593 22.848C27.6148 22.848 32.0565 22.9783 34.6846 23.239C37.3126 23.4997 41.1623 23.6301 46.2336 23.6301C51.3648 23.6301 55.2295 23.4997 57.8276 23.239C60.4257 22.9783 64.8824 22.8477 71.1978 22.8472C77.4532 22.8472 81.9 22.9775 84.538 23.2382C87.1761 23.499 91.0233 23.6293 96.0796 23.6293C101.206 23.6293 105.068 23.499 107.666 23.2382C110.264 22.9775 114.721 22.8472 121.036 22.8472C127.002 22.8472 131.099 22.9551 133.327 23.171C135.551 23.3863 138.573 23.519 142.396 23.5691V24.381C137.814 24.321 134.209 24.1807 131.581 23.9602C128.953 23.7396 125.438 23.6293 121.036 23.6293C116.06 23.6293 112.248 23.7597 109.6 24.0204C106.952 24.2811 102.472 24.4115 96.162 24.4115C89.9066 24.4115 85.4499 24.2811 82.7918 24.0204C80.1388 23.7597 76.2741 23.6293 71.1978 23.6293C66.0666 23.6293 62.2169 23.7597 59.6488 24.0204C57.0757 24.2811 52.6339 24.4115 46.3235 24.4115C40.0132 24.4115 35.5165 24.2811 32.8334 24.0204C30.1504 23.7597 26.3257 23.6293 21.3593 23.6293C16.8626 23.6293 13.3577 23.7396 10.8446 23.9602C8.33139 24.1807 4.71654 24.3213 0 24.3818ZM0 21.433V20.6212C3.88215 20.5711 6.90494 20.4381 9.06835 20.2222C11.2368 20.0069 15.3338 19.8992 21.3593 19.8992C27.6148 19.8992 32.0565 20.0296 34.6846 20.2903C37.3126 20.551 41.1623 20.6814 46.2336 20.6814C51.3648 20.6814 55.2295 20.551 57.8276 20.2903C60.4257 20.0296 64.8824 19.899 71.1978 19.8984C77.4532 19.8984 81.9 20.0288 84.538 20.2895C87.1761 20.5502 91.0233 20.6806 96.0796 20.6806C101.206 20.6806 105.068 20.5502 107.666 20.2895C110.264 20.0288 114.721 19.8984 121.036 19.8984C127.002 19.8984 131.099 20.0061 133.327 20.2215C135.551 20.4373 138.573 20.5703 142.396 20.6204V21.4322C137.814 21.3723 134.209 21.232 131.581 21.0114C128.953 20.7909 125.438 20.6806 121.036 20.6806C116.06 20.6806 112.248 20.811 109.6 21.0717C106.952 21.3324 102.472 21.4628 96.162 21.4628C89.9066 21.4628 85.4499 21.3324 82.7918 21.0717C80.1388 20.811 76.2741 20.6806 71.1978 20.6806C66.0666 20.6806 62.2169 20.811 59.6488 21.0717C57.0757 21.3324 52.6339 21.4628 46.3235 21.4628C40.0132 21.4628 35.5165 21.3324 32.8334 21.0717C30.1504 20.811 26.3257 20.6806 21.3593 20.6806C16.8626 20.6806 13.3102 20.7909 10.7022 21.0114C8.09407 21.232 4.52668 21.3725 0 21.433Z" fill="white"/>
<path d="M1.01562 17.4121V0.418622H4.00319L7.29225 11.0807V11.2451H7.31965V0.418622H10.3072V17.4121H7.23743L4.0306 7.79159L4.00319 7.59973H3.97578V17.4121H1.01562Z" fill="white"/>
<path d="M12.3378 0.418622H20.7249V2.74837H15.3254V6.91451H20.1493L19.7656 9.24426H15.3254V15.0823H20.7249V17.4121H12.3378V0.418622Z" fill="white"/>
<path d="M24.9262 17.4121L21.5275 0.418622H24.515L26.4063 11.3822L26.4337 11.9577H26.4611V11.3822L28.1878 1.18607H30.4354L32.0799 11.3822L32.1073 11.9577H32.1347L32.1621 11.3822L33.8889 0.418622H36.9861L33.6422 17.4121H30.8191L29.3938 8.09309L29.3664 7.54492H29.339L29.3116 8.09309L27.7493 17.4121H24.9262Z" fill="white"/>
<path d="M42.5571 17.4121V0.418622H47.8744C48.6236 0.418622 49.2357 0.509985 49.7108 0.69271C50.2042 0.857163 50.5696 1.1678 50.8072 1.62461C51.063 2.06315 51.1909 2.71183 51.1909 3.57064V4.58476C51.1909 5.16948 51.1087 5.70852 50.9442 6.20188C50.7798 6.67697 50.5514 7.06069 50.259 7.35305C49.9666 7.64541 49.6286 7.80073 49.2449 7.819V7.90123C49.7565 7.93777 50.1676 8.10223 50.4783 8.39459C50.7889 8.66868 51.0082 9.02499 51.1361 9.46353C51.2823 9.8838 51.3554 10.3406 51.3554 10.834V13.6023C51.3554 14.4976 51.264 15.2285 51.0813 15.795C50.9168 16.3431 50.597 16.7543 50.122 17.0284C49.6469 17.2842 48.9251 17.4121 47.9567 17.4121H42.5571ZM45.5447 15.1098H46.9973C47.308 15.1098 47.5547 15.0641 47.7374 14.9727C47.9384 14.8631 48.0846 14.6895 48.1759 14.4519C48.2856 14.1961 48.3404 13.8489 48.3404 13.4104V10.8066C48.3404 10.2218 48.1851 9.82898 47.8744 9.62799C47.5821 9.42699 47.2166 9.32649 46.7781 9.32649H45.5447V15.1098ZM45.5447 7.02415H46.9151C47.1709 7.02415 47.3902 6.96933 47.5729 6.85969C47.7739 6.73179 47.9384 6.52165 48.0663 6.22929C48.1942 5.93693 48.2582 5.54407 48.2582 5.05071V4.31067C48.2582 3.90868 48.2307 3.57977 48.1759 3.32396C48.1211 3.06814 48.0023 2.87628 47.8196 2.74837C47.6369 2.62046 47.3445 2.55651 46.9425 2.55651H45.5447V7.02415Z" fill="white"/>
<path d="M53.1566 0.418622H59.4058C60.1916 0.418622 60.7671 0.519121 61.1326 0.720118C61.5163 0.902844 61.763 1.1952 61.8726 1.5972C62.0005 1.98092 62.0645 2.46515 62.0645 3.04987V6.58561C62.0645 7.24342 62.0097 7.86468 61.9 8.44941C61.7904 9.01586 61.5072 9.48181 61.0504 9.84726C60.5936 10.1944 59.8444 10.368 58.8028 10.368H56.1442V17.4121H53.1566V0.418622ZM60.1733 17.9603L57.1309 10.2036L59.1318 10.1213L59.9814 10.3406L60.1185 10.4777L62.9416 16.8913L60.1733 17.9603ZM57.8161 8.03827C58.2729 8.03827 58.6018 7.9195 58.8028 7.68196C59.0038 7.42614 59.1043 6.99674 59.1043 6.39374V4.44772C59.1043 3.71682 59.0221 3.25087 58.8577 3.04987C58.7115 2.84887 58.41 2.74837 57.9532 2.74837H56.1442V8.03827H57.8161Z" fill="white"/>
<path d="M68.3518 17.5491C67.5296 17.5491 66.7895 17.4669 66.1317 17.3025C65.4739 17.138 64.9531 16.8731 64.5694 16.5076C64.204 16.1239 64.0212 15.6122 64.0212 14.9727V0.418622H67.0088V14.0408C67.0088 14.2418 67.0453 14.4337 67.1184 14.6164C67.1915 14.7991 67.3286 14.9453 67.5296 15.0549C67.7306 15.1646 68.0046 15.2194 68.3518 15.2194C68.7355 15.2194 69.0279 15.1646 69.2289 15.0549C69.4299 14.9453 69.5669 14.7991 69.64 14.6164C69.7131 14.4154 69.7497 14.2235 69.7497 14.0408V0.418622H72.7372V14.9727C72.7372 15.6122 72.5454 16.1239 72.1616 16.5076C71.7962 16.8731 71.2754 17.138 70.5993 17.3025C69.9415 17.4669 69.1924 17.5491 68.3518 17.5491Z" fill="white"/>
<path d="M74.6501 17.4121V0.418622H77.6376L80.9267 11.0807V11.2451H80.9541V0.418622H83.9417V17.4121H80.8719L77.665 7.79159L77.6376 7.59973H77.6102V17.4121H74.6501Z" fill="white"/>
<path d="M90.248 17.604C89.4441 17.604 88.6857 17.5491 87.9731 17.4395C87.2788 17.3299 86.7214 17.1197 86.3012 16.8091C85.8992 16.4802 85.6982 16.0142 85.6982 15.4112V11.574L88.6583 11.2451V14.1778C88.6583 14.5068 88.7497 14.7717 88.9324 14.9727C89.1334 15.1554 89.5172 15.2468 90.0836 15.2468C90.4491 15.2468 90.7323 15.2011 90.9333 15.1098C91.1343 15.0001 91.2713 14.8539 91.3444 14.6712C91.4175 14.4885 91.454 14.2601 91.454 13.986V12.1496C91.454 11.6562 91.3353 11.2177 91.0977 10.834C90.8784 10.4503 90.4673 10.167 89.8643 9.9843L87.9731 9.40871C87.1691 9.1529 86.5844 8.82399 86.219 8.422C85.8718 8.02 85.6982 7.3896 85.6982 6.53079V2.96764C85.6982 2.16365 85.8992 1.56979 86.3012 1.18607C86.7032 0.802345 87.2514 0.555665 87.9457 0.44603C88.6401 0.318122 89.3984 0.254168 90.2206 0.254168C91.0064 0.254168 91.7099 0.318122 92.3311 0.44603C92.9707 0.573938 93.4732 0.802344 93.8386 1.13125C94.2223 1.44188 94.4142 1.88043 94.4142 2.44687V6.28411L91.454 6.69524V3.92695C91.454 3.3605 91.3535 2.99505 91.1525 2.8306C90.9698 2.64787 90.6226 2.55651 90.111 2.55651C89.5811 2.55651 89.2065 2.66614 88.9872 2.88542C88.768 3.08641 88.6583 3.49755 88.6583 4.11881V5.70852C88.6583 6.12879 88.7497 6.52165 88.9324 6.8871C89.1334 7.23428 89.4532 7.48096 89.8917 7.62714L92.0022 8.28495C92.861 8.55904 93.4732 8.90622 93.8386 9.32649C94.2223 9.72849 94.4142 10.3589 94.4142 11.2177V14.8083C94.4142 15.594 94.2315 16.1878 93.866 16.5898C93.5006 16.9918 92.9981 17.2659 92.3585 17.4121C91.7373 17.54 91.0338 17.604 90.248 17.604Z" fill="white"/>
<path d="M98.8283 17.4121L95.4296 0.418622H98.4172L100.308 11.3822L100.336 11.9577H100.363V11.3822L102.09 1.18607H104.337L105.982 11.3822L106.009 11.9577H106.037L106.064 11.3822L107.791 0.418622H110.888L107.544 17.4121H104.721L103.296 8.09309L103.269 7.54492H103.241L103.214 8.09309L101.651 17.4121H98.8283Z" fill="white"/>
<path d="M126.108 17.6039C124.591 17.6039 123.476 17.3298 122.764 16.7816C122.069 16.2152 121.722 15.4386 121.722 14.4519V3.65279C121.722 2.42853 122.06 1.55145 122.736 1.02155C123.412 0.491644 124.509 0.226692 126.025 0.226692C127.487 0.226692 128.583 0.491644 129.314 1.02155C130.064 1.55145 130.429 2.43767 130.411 3.6802V7.29817L127.478 7.65448V4.39283C127.478 3.82638 127.387 3.39698 127.204 3.10462C127.039 2.79399 126.656 2.63867 126.053 2.63867C125.468 2.63867 125.093 2.80312 124.929 3.13203C124.783 3.46093 124.71 3.87207 124.71 4.36542V13.7667C124.71 14.1504 124.801 14.4793 124.984 14.7534C125.166 15.0275 125.523 15.1645 126.053 15.1645C126.619 15.1645 126.994 15.0275 127.176 14.7534C127.377 14.4793 127.478 14.1412 127.478 13.7392V10.6969L130.411 10.368V14.4519C130.411 15.4386 130.036 16.2152 129.287 16.7816C128.556 17.3298 127.496 17.6039 126.108 17.6039Z" fill="white"/>
<path d="M139.428 17.8506L134.275 8.28489L139.181 0.171875L141.428 1.56972L137.317 8.09303L142.086 16.4801L139.428 17.8506ZM132.164 0.418554H135.152V17.412H132.164V0.418554Z" fill="white"/>
<path d="M112.613 7.26329V5.64922H113.438V2.4211H112.613V1.61406L115.911 0L119.208 1.61406V2.4211H118.384V5.64922H119.208V7.26329H118.17L112.976 10.2009L113.438 7.26329H112.613ZM116.735 5.64922V2.4211H115.087V5.64922H116.735ZM111.789 17.7547L111.822 17.561L119.332 13.316L119.761 16.0438L116.735 17.7547H111.789ZM112.655 12.2427L118.64 8.87735L119.068 11.597L112.144 15.5112L112.655 12.2427Z" fill="white"/>
</svg>
