<svg width="207" height="28" viewBox="0 0 207 28" fill="none" xmlns="http://www.w3.org/2000/svg">
<path d="M35.6598 27.4852C34.4042 27.4852 33.2868 27.3848 32.3074 27.1839C31.3532 27.0081 30.5371 26.7695 29.8591 26.4682C29.1811 26.1669 28.6286 25.8781 28.2017 25.6019C27.8753 25.3759 27.6116 25.1875 27.4107 25.0368C27.2098 24.8611 27.1094 24.6225 27.1094 24.3212C27.1094 24.0198 27.1847 23.6808 27.3354 23.3042C27.5112 22.9024 27.712 22.5132 27.938 22.1365C28.1892 21.7598 28.4403 21.4459 28.6914 21.1948C28.9676 20.9437 29.2062 20.8181 29.4071 20.8181C29.5828 20.8181 29.8465 20.906 30.1981 21.0818C30.5747 21.2576 31.0142 21.4585 31.5164 21.6845C32.0438 21.9105 32.6088 22.1114 33.2114 22.2872C33.8392 22.4629 34.4921 22.5508 35.1701 22.5508C35.9737 22.5508 36.6642 22.4629 37.2418 22.2872C37.8194 22.1114 38.2588 21.8226 38.5601 21.4208C38.8866 20.9939 39.0498 20.4289 39.0498 19.7258C39.0498 18.9976 38.8238 18.4326 38.3718 18.0308C37.9198 17.6039 37.292 17.2147 36.4885 16.8631C35.6849 16.5115 34.7432 16.0721 33.6634 15.5448C33.0859 15.2685 32.5334 14.9546 32.0061 14.6031C31.4787 14.2264 31.0142 13.787 30.6124 13.2847C30.2106 12.7574 29.8842 12.1547 29.6331 11.4767C29.4071 10.7736 29.2941 9.95749 29.2941 9.02837C29.2941 7.14502 29.721 5.57556 30.5747 4.31999C31.4536 3.06443 32.6339 2.12275 34.1154 1.49497C35.597 0.842072 37.2544 0.515625 39.0875 0.515625C39.8911 0.515625 40.6695 0.578403 41.4228 0.70396C42.1762 0.829516 42.8542 1.0053 43.4569 1.2313C44.0595 1.43219 44.5366 1.67075 44.8882 1.94697C45.1393 2.12275 45.3402 2.29853 45.4909 2.47431C45.6415 2.62498 45.7169 2.80076 45.7169 3.00165C45.7169 3.20254 45.6415 3.49132 45.4909 3.86799C45.3402 4.24466 45.1393 4.63388 44.8882 5.03567C44.6622 5.41234 44.4111 5.73878 44.1349 6.01501C43.8838 6.26612 43.6452 6.39168 43.4192 6.39168C43.1179 6.39168 42.7537 6.31634 42.3269 6.16568C41.9 5.9899 41.3852 5.82667 40.7825 5.676C40.2049 5.50023 39.5018 5.41234 38.6732 5.41234C37.97 5.41234 37.3548 5.50023 36.8275 5.676C36.3001 5.85178 35.8858 6.14057 35.5845 6.54235C35.3082 6.91902 35.1701 7.42124 35.1701 8.04903C35.1701 8.62659 35.3459 9.11626 35.6975 9.51804C36.049 9.89471 36.5136 10.2337 37.0911 10.535C37.6938 10.8113 38.3341 11.1126 39.0122 11.4391C39.6902 11.7655 40.3807 12.1045 41.0838 12.4561C41.8121 12.8076 42.465 13.2471 43.0425 13.7744C43.6452 14.2766 44.1349 14.917 44.5115 15.6954C44.8882 16.4739 45.0765 17.4532 45.0765 18.6335C45.0765 20.4666 44.6622 22.0486 43.8335 23.3795C43.03 24.6853 41.9125 25.7023 40.4812 26.4305C39.0749 27.1336 37.4678 27.4852 35.6598 27.4852Z" fill="white"/>
<path d="M49.5966 27.2592C48.115 27.2592 47.4119 26.8323 47.4872 25.9785L50.0109 1.98464C50.0611 1.55774 50.2746 1.24385 50.6513 1.04296C51.0279 0.842072 51.6055 0.741626 52.3839 0.741626H53.514C53.9911 0.741626 54.3803 0.779293 54.6816 0.854626C55.0081 0.90485 55.2843 1.01785 55.5103 1.19363C55.7614 1.36941 55.9874 1.64563 56.1883 2.0223L63.7594 15.0174C63.9101 15.2685 64.0482 15.5197 64.1737 15.7708C64.2993 15.9968 64.4248 16.2353 64.5504 16.4864C64.6759 16.7124 64.7889 16.9636 64.8894 17.2398L65.0401 17.2021C65.0652 16.7752 65.0903 16.386 65.1154 16.0344C65.1656 15.6578 65.2158 15.1932 65.2661 14.6408L66.5844 1.98464C66.6346 1.55774 66.8481 1.24385 67.2247 1.04296C67.6014 0.842072 68.179 0.741626 68.9574 0.741626H70.0498C71.5565 0.741626 72.2721 1.16852 72.1968 2.0223L69.6731 26.0162C69.648 26.418 69.4345 26.7319 69.0328 26.9579C68.6561 27.1588 68.066 27.2592 67.2624 27.2592H66.1701C65.7432 27.2592 65.3791 27.2341 65.0777 27.1839C64.7764 27.1336 64.5253 27.0458 64.3244 26.9202C64.1235 26.7695 63.9352 26.5435 63.7594 26.2422L55.9246 12.7951C55.6986 12.4184 55.4978 12.0543 55.322 11.7027C55.1462 11.3512 54.9704 10.9745 54.7946 10.5727L54.644 10.6104C54.6189 11.0373 54.5937 11.4391 54.5686 11.8157C54.5435 12.1673 54.5059 12.6193 54.4556 13.1717L53.0996 26.0162C53.0745 26.418 52.8611 26.7319 52.4593 26.9579C52.0826 27.1588 51.4925 27.2592 50.6889 27.2592H49.5966Z" fill="white"/>
<path d="M74.2591 27.2592C73.5308 27.2592 72.9909 27.1964 72.6394 27.0709C72.2627 26.9453 72.0744 26.757 72.0744 26.5059C72.0744 26.3803 72.0995 26.2673 72.1497 26.1669C72.1748 26.0413 72.225 25.9032 72.3004 25.7525L83.0731 1.53263C83.1736 1.33174 83.3243 1.18108 83.5252 1.08063C83.726 0.955073 83.9772 0.867183 84.2785 0.816959C84.6049 0.766737 84.9439 0.741626 85.2955 0.741626H87.2542C87.6309 0.741626 87.9573 0.766737 88.2335 0.816959C88.5349 0.867183 88.7734 0.955073 88.9492 1.08063C89.1501 1.18108 89.2757 1.33174 89.3259 1.53263L95.0513 25.7525C95.0764 25.8027 95.1015 25.9157 95.1266 26.0915C95.1517 26.2422 95.1643 26.3426 95.1643 26.3929C95.1643 26.644 94.9885 26.8574 94.6369 27.0332C94.2854 27.1839 93.7831 27.2592 93.1302 27.2592H91.4729C90.9204 27.2592 90.4559 27.209 90.0792 27.1085C89.7277 26.983 89.5142 26.7695 89.4389 26.4682L85.8982 10.196C85.7977 9.79427 85.7224 9.39248 85.6722 8.9907C85.6471 8.58892 85.6219 8.18714 85.5968 7.78536H85.4462C85.3457 8.18714 85.2202 8.60148 85.0695 9.02837C84.9439 9.43015 84.7933 9.81938 84.6175 10.196L77.5738 26.4682C77.4482 26.7444 77.2222 26.9453 76.8958 27.0709C76.5944 27.1964 76.2178 27.2592 75.7657 27.2592H74.2591ZM77.8374 21.6468V17.0891H90.9832V21.6468H77.8374Z" fill="white"/>
<path d="M99.0169 27.1839C98.5147 27.1839 98.1506 27.096 97.9246 26.9202C97.7237 26.7444 97.6358 26.4305 97.6609 25.9785L100.109 2.32364C100.159 1.7963 100.31 1.41963 100.561 1.19363C100.837 0.942516 101.239 0.816959 101.767 0.816959H109.225C112.163 0.816959 114.272 1.35685 115.553 2.43664C116.833 3.49132 117.474 4.885 117.474 6.61768C117.474 7.7728 117.26 8.78981 116.833 9.66871C116.432 10.5476 115.879 11.2758 115.176 11.8534C114.473 12.431 113.669 12.883 112.765 13.2094V13.3601C114.146 13.6363 115.239 14.3018 116.042 15.3564C116.846 16.386 117.248 17.5662 117.248 18.8971C117.248 19.9518 117.11 20.9186 116.833 21.7975C116.557 22.6513 116.143 23.4172 115.59 24.0952C115.038 24.7732 114.347 25.3382 113.519 25.7902C112.715 26.2422 111.761 26.5938 110.656 26.8449C109.576 27.0709 108.358 27.1839 107.002 27.1839H99.0169ZM103.801 22.2495H107.492C108.145 22.2495 108.71 22.1742 109.187 22.0235C109.664 21.8728 110.053 21.6594 110.355 21.3832C110.681 21.0818 110.92 20.7303 111.07 20.3285C111.221 19.9016 111.296 19.4119 111.296 18.8595C111.296 17.9806 110.97 17.3277 110.317 16.9008C109.689 16.4739 108.76 16.2604 107.53 16.2604H104.441L103.801 22.2495ZM104.968 11.3637H107.567C108.17 11.3637 108.71 11.3009 109.187 11.1754C109.664 11.0247 110.066 10.8238 110.392 10.5727C110.719 10.2965 110.957 9.97005 111.108 9.59338C111.284 9.19159 111.372 8.72703 111.372 8.1997C111.372 7.34591 111.108 6.71813 110.581 6.31634C110.078 5.91456 109.3 5.71367 108.245 5.71367H105.571L104.968 11.3637Z" fill="white"/>
<path d="M121.345 27.1839C120.843 27.1839 120.479 27.096 120.253 26.9202C120.052 26.7444 119.964 26.4305 119.989 25.9785L122.437 2.32364C122.487 1.7963 122.638 1.41963 122.889 1.19363C123.165 0.942516 123.567 0.816959 124.095 0.816959H131.553C134.491 0.816959 136.6 1.35685 137.881 2.43664C139.161 3.49132 139.802 4.885 139.802 6.61768C139.802 7.7728 139.588 8.78981 139.161 9.66871C138.76 10.5476 138.207 11.2758 137.504 11.8534C136.801 12.431 135.997 12.883 135.093 13.2094V13.3601C136.474 13.6363 137.567 14.3018 138.37 15.3564C139.174 16.386 139.576 17.5662 139.576 18.8971C139.576 19.9518 139.438 20.9186 139.161 21.7975C138.885 22.6513 138.471 23.4172 137.918 24.0952C137.366 24.7732 136.675 25.3382 135.847 25.7902C135.043 26.2422 134.089 26.5938 132.984 26.8449C131.904 27.0709 130.686 27.1839 129.33 27.1839H121.345ZM126.129 22.2495H129.82C130.473 22.2495 131.038 22.1742 131.515 22.0235C131.992 21.8728 132.381 21.6594 132.683 21.3832C133.009 21.0818 133.248 20.7303 133.398 20.3285C133.549 19.9016 133.624 19.4119 133.624 18.8595C133.624 17.9806 133.298 17.3277 132.645 16.9008C132.017 16.4739 131.088 16.2604 129.858 16.2604H126.769L126.129 22.2495ZM127.296 11.3637H129.895C130.498 11.3637 131.038 11.3009 131.515 11.1754C131.992 11.0247 132.394 10.8238 132.72 10.5727C133.047 10.2965 133.285 9.97005 133.436 9.59338C133.612 9.19159 133.7 8.72703 133.7 8.1997C133.7 7.34591 133.436 6.71813 132.909 6.31634C132.406 5.91456 131.628 5.71367 130.573 5.71367H127.899L127.296 11.3637Z" fill="white"/>
<path d="M142.016 27.2592C141.287 27.2592 140.747 27.1964 140.396 27.0709C140.019 26.9453 139.831 26.757 139.831 26.5059C139.831 26.3803 139.856 26.2673 139.906 26.1669C139.931 26.0413 139.982 25.9032 140.057 25.7525L150.83 1.53263C150.93 1.33174 151.081 1.18108 151.282 1.08063C151.483 0.955073 151.734 0.867183 152.035 0.816959C152.361 0.766737 152.7 0.741626 153.052 0.741626H155.011C155.387 0.741626 155.714 0.766737 155.99 0.816959C156.291 0.867183 156.53 0.955073 156.706 1.08063C156.907 1.18108 157.032 1.33174 157.082 1.53263L162.808 25.7525C162.833 25.8027 162.858 25.9157 162.883 26.0915C162.908 26.2422 162.921 26.3426 162.921 26.3929C162.921 26.644 162.745 26.8574 162.393 27.0332C162.042 27.1839 161.54 27.2592 160.887 27.2592H159.229C158.677 27.2592 158.212 27.209 157.836 27.1085C157.484 26.983 157.271 26.7695 157.195 26.4682L153.655 10.196C153.554 9.79427 153.479 9.39248 153.429 8.9907C153.404 8.58892 153.378 8.18714 153.353 7.78536H153.203C153.102 8.18714 152.977 8.60148 152.826 9.02837C152.7 9.43015 152.55 9.81938 152.374 10.196L145.33 26.4682C145.205 26.7444 144.979 26.9453 144.652 27.0709C144.351 27.1964 143.974 27.2592 143.522 27.2592H142.016ZM145.594 21.6468V17.0891H158.74V21.6468H145.594Z" fill="white"/>
<path d="M167.527 27.2592C166.748 27.2592 166.196 27.1588 165.869 26.9579C165.543 26.7319 165.392 26.418 165.417 26.0162L167.903 2.32364C167.954 1.7963 168.104 1.41963 168.355 1.19363C168.607 0.942516 168.971 0.816959 169.448 0.816959H177.207C179.995 0.816959 182.091 1.40708 183.498 2.58731C184.929 3.74243 185.645 5.47511 185.645 7.78536C185.645 8.86514 185.444 9.8696 185.042 10.7987C184.665 11.7027 184.113 12.4937 183.385 13.1717C182.681 13.8246 181.828 14.3143 180.823 14.6408L180.786 14.7914C181.187 14.9421 181.589 15.2685 181.991 15.7708C182.393 16.273 182.681 16.8506 182.857 17.5034L185.08 25.1122C185.155 25.3884 185.218 25.6395 185.268 25.8655C185.318 26.0664 185.343 26.2171 185.343 26.3175C185.343 26.6942 185.193 26.9453 184.891 27.0709C184.59 27.1964 183.975 27.2592 183.046 27.2592H181.501C180.949 27.2592 180.484 27.1964 180.108 27.0709C179.731 26.9202 179.467 26.6063 179.317 26.1292L177.245 19.2738C177.094 18.7465 176.893 18.3196 176.642 17.9931C176.391 17.6667 176.027 17.4281 175.55 17.2774C175.098 17.1017 174.457 17.0138 173.629 17.0138H172.197L171.256 26.0162C171.231 26.418 171.017 26.7319 170.615 26.9579C170.239 27.1588 169.649 27.2592 168.845 27.2592H167.527ZM172.687 12.4561H176.002C177.282 12.4561 178.212 12.1422 178.789 11.5144C179.367 10.8615 179.656 9.80682 179.656 8.35036C179.656 7.44636 179.417 6.79346 178.94 6.39168C178.463 5.96479 177.709 5.75134 176.68 5.75134H173.365L172.687 12.4561Z" fill="white"/>
<path d="M189.876 27.1839C189.299 27.1839 188.897 27.0709 188.671 26.8449C188.47 26.5938 188.395 26.2045 188.445 25.6772L190.894 2.32364C190.944 1.7963 191.069 1.41963 191.27 1.19363C191.471 0.942516 191.86 0.816959 192.438 0.816959H205.998C206.4 0.816959 206.676 0.967628 206.827 1.26896C206.977 1.5703 207.015 2.04742 206.94 2.70031L206.789 3.94332C206.714 4.59622 206.576 5.06078 206.375 5.337C206.174 5.61323 205.872 5.75134 205.471 5.75134H196.393L195.828 11.2131H204.19C204.592 11.2131 204.868 11.3637 205.019 11.6651C205.169 11.9664 205.207 12.4435 205.132 13.0964L204.981 14.3394C204.906 14.9923 204.768 15.4569 204.567 15.7331C204.366 16.0093 204.064 16.1474 203.663 16.1474H195.301L194.66 22.2495H203.738C204.14 22.2495 204.416 22.4002 204.567 22.7015C204.717 23.0028 204.755 23.4799 204.68 24.1328L204.529 25.3759C204.454 26.0287 204.316 26.4933 204.115 26.7695C203.914 27.0458 203.612 27.1839 203.211 27.1839H189.876Z" fill="white"/>
<rect x="13.9297" y="17.9844" width="13.1817" height="3.48197" rx="1.74098" fill="white"/>
<rect x="8.20703" y="5.29688" width="19.6483" height="3.97939" rx="1.9897" fill="white"/>
<rect y="11.2656" width="25.1199" height="4.72553" rx="2.36276" fill="white"/>
</svg>
