<svg width="135" height="48" viewBox="0 0 135 48" fill="none" xmlns="http://www.w3.org/2000/svg">
<path d="M0 35.8719C0 33.9853 0.220744 32.1391 0.662232 30.3334C1.13131 28.5007 1.77975 26.7758 2.60754 25.1588C3.43533 23.5147 4.41488 22.0189 5.5462 20.6714C6.7051 19.2968 7.96058 18.111 9.31264 17.1138C10.6923 16.1166 12.1547 15.3485 13.6999 14.8094C15.2451 14.2435 16.8317 13.9605 18.4597 13.9605C20.3636 13.9605 21.8399 14.3513 22.8884 15.1329C23.9645 15.9144 24.5026 17.006 24.5026 18.4074C24.5026 18.9465 24.4198 19.499 24.2543 20.065C24.1163 20.6309 23.8956 21.1969 23.592 21.7629C23.3161 22.3019 22.985 22.8275 22.5987 23.3395C22.2124 23.8516 21.7847 24.2963 21.3156 24.6736C20.5982 24.5658 19.9773 24.2559 19.4531 23.7438C18.9288 23.2048 18.5977 22.5849 18.4597 21.8842C19.4255 21.1026 20.1843 20.294 20.7362 19.4585C21.3156 18.5961 21.6053 17.8145 21.6053 17.1138C21.6053 15.9279 20.8465 15.335 19.3289 15.335C18.6943 15.335 18.032 15.4697 17.3422 15.7393C16.68 15.9818 16.0039 16.3322 15.3141 16.7904C14.6243 17.2485 13.9483 17.801 13.286 18.4479C12.6514 19.0947 12.0581 19.8089 11.5063 20.5905C7.67086 25.9808 5.75314 31.4923 5.75314 37.1251C5.75314 39.1195 6.07046 40.7231 6.7051 41.936C7.33974 43.1488 8.18133 43.863 9.22986 44.0786C10.4164 43.8091 11.9202 43.0679 13.7413 41.8551C15.5625 40.6423 17.5492 39.0656 19.7014 37.1251C19.9773 37.3947 20.1429 37.6776 20.1981 37.9741C19.3979 38.9983 18.5701 39.982 17.7147 40.9253C16.8593 41.8686 16.004 42.731 15.1486 43.5126C14.3208 44.2942 13.493 44.9815 12.6652 45.5744C11.865 46.1673 11.12 46.6255 10.4302 46.9489C7.00863 46.895 4.41488 45.9382 2.64893 44.0786C0.882977 42.2189 0 39.4834 0 35.8719Z" fill="white"/>
<path d="M37.3961 27.4631C37.672 27.4631 37.9893 27.517 38.348 27.6248C38.7343 27.7057 39.0793 27.8269 39.3828 27.9886C39.6863 28.1234 39.9346 28.2716 40.1278 28.4333C40.3485 28.595 40.4589 28.7433 40.4589 28.878C39.907 30.01 39.3966 31.1554 38.9275 32.3143C38.4584 33.4463 38.0583 34.5378 37.7272 35.5889C37.3961 36.64 37.1339 37.6237 36.9408 38.5401C36.7752 39.4564 36.6925 40.2515 36.6925 40.9253C36.6925 41.6799 36.7752 42.3133 36.9408 42.8253C37.1064 43.3105 37.3823 43.6608 37.7686 43.8764C37.4375 44.0921 37.0098 44.2672 36.4855 44.402C35.9612 44.5368 35.4922 44.6041 35.0783 44.6041C33.5882 44.6041 32.8432 43.6069 32.8432 41.6125C32.8432 40.0763 33.3675 37.9741 34.416 35.3059C33.8642 36.5457 33.2295 37.7181 32.5121 38.8231C31.7947 39.9011 31.0635 40.8579 30.3185 41.6934C29.5735 42.5289 28.8147 43.2161 28.042 43.7552C27.297 44.2672 26.6072 44.5772 25.9726 44.685C24.9516 44.6311 24.1238 44.1594 23.4892 43.27C22.8546 42.3537 22.5372 41.1948 22.5372 39.7933C22.5372 38.284 22.8684 36.6939 23.5306 35.0229C24.1928 33.352 25.0344 31.8023 26.0554 30.3738C27.1039 28.9454 28.2352 27.7596 29.4493 26.8163C30.6634 25.846 31.8361 25.3339 32.9674 25.28C33.2433 25.3609 33.5469 25.5226 33.878 25.7652C34.2367 26.0077 34.5678 26.2907 34.8713 26.6141C35.2024 26.9375 35.4784 27.2744 35.6991 27.6248C35.9199 27.9482 36.044 28.2312 36.0716 28.4738C34.9679 28.6355 33.8228 29.161 32.6363 30.0504C31.4774 30.9398 30.415 32.0179 29.4493 33.2846C28.5111 34.5243 27.7385 35.8584 27.1315 37.2868C26.5244 38.7153 26.2209 40.0494 26.2209 41.2891C26.2209 41.8012 26.4141 42.1246 26.8004 42.2594C27.6006 42.0977 28.5249 41.4374 29.5735 40.2784C30.622 39.0926 31.8913 37.2734 33.3813 34.8208C33.6572 34.3357 33.9607 33.7966 34.2919 33.2037C34.6506 32.6108 35.0093 31.9909 35.368 31.3441C35.7267 30.6972 36.0716 30.0504 36.4027 29.4036C36.7614 28.7298 37.0926 28.083 37.3961 27.4631Z" fill="white"/>
<path d="M56.8378 27.7057C56.8102 28.2177 56.7137 28.7568 56.5481 29.3227C56.4101 29.8618 56.2308 30.3604 56.01 30.8185C55.7893 31.2498 55.5548 31.6136 55.3064 31.9101C55.0581 32.2065 54.8235 32.3548 54.6028 32.3548C54.2993 32.3278 54.1199 32.1257 54.0647 31.7483C54.0647 31.6675 54.0923 31.5462 54.1475 31.3845C54.2303 31.1958 54.3131 30.9937 54.3959 30.7781C54.4786 30.5625 54.5476 30.3469 54.6028 30.1313C54.6856 29.9157 54.727 29.727 54.727 29.5653C54.727 29.188 54.6304 28.878 54.4372 28.6355C54.2717 28.366 54.0371 28.2312 53.7336 28.2312C52.6299 28.2312 51.7883 28.905 51.2089 30.2526C50.6294 31.6001 50.3397 33.581 50.3397 36.1953C50.3397 36.4648 50.3535 36.6265 50.3811 36.6804C50.9605 36.6535 51.471 36.64 51.9125 36.64C52.3816 36.6131 52.8368 36.5996 53.2783 36.5996C53.3059 36.6535 53.3197 36.7613 53.3197 36.923C53.3197 37.1656 53.2645 37.3408 53.1542 37.4486C52.5195 37.5833 52.0091 37.7046 51.6228 37.8124C51.264 37.8933 50.9881 37.9741 50.795 38.055C50.6018 38.1358 50.4776 38.2301 50.4225 38.338C50.3949 38.4188 50.3811 38.5401 50.3811 38.7018C50.3811 38.9174 50.3811 39.133 50.3811 39.3486C50.4087 39.5642 50.4225 39.8337 50.4225 40.1572C50.4225 42.4211 49.7878 44.2403 48.5185 45.6148C47.2769 46.9893 45.5385 47.7844 43.3035 48C42.9172 47.973 42.5171 47.8652 42.1032 47.6766C41.6893 47.4879 41.2892 47.2454 40.9029 46.9489C40.5442 46.6524 40.2268 46.3155 39.9509 45.9382C39.675 45.5879 39.4818 45.224 39.3715 44.8467C39.3715 43.8225 39.5922 42.8523 40.0337 41.936C40.4752 40.9927 41.0684 40.1706 41.8134 39.4699C42.586 38.7422 43.4828 38.1628 44.5038 37.7315C45.5523 37.2734 46.6836 37.0039 47.8977 36.923C47.8977 36.2492 47.8287 35.5889 47.6908 34.9421C47.5528 34.2952 47.401 33.6754 47.2355 33.0824C47.0975 32.4626 46.9595 31.8696 46.8216 31.3037C46.6836 30.7107 46.6146 30.1313 46.6146 29.5653C46.6146 28.8376 46.7664 28.1234 47.0699 27.4227C47.3734 26.695 47.7735 26.0347 48.2702 25.4417C48.7669 24.8219 49.3463 24.2963 50.0086 23.8651C50.6708 23.4339 51.3606 23.1374 52.078 22.9757C52.3816 23.0565 52.7817 23.2991 53.2783 23.7034C53.8026 24.0807 54.3131 24.5119 54.8097 24.997C55.3064 25.4822 55.7479 25.9808 56.1342 26.4928C56.5205 26.978 56.7551 27.3822 56.8378 27.7057ZM43.1793 46.1404C43.8415 45.8708 44.4624 45.4801 45.0418 44.968C45.6489 44.4559 46.1731 43.8764 46.6146 43.2296C47.0561 42.5828 47.401 41.8955 47.6494 41.1678C47.9253 40.4402 48.0633 39.7259 48.0633 39.0252C47.5114 39.1061 46.9044 39.3621 46.2421 39.7933C45.5799 40.1976 44.959 40.6962 44.3796 41.2891C43.8001 41.8551 43.3173 42.448 42.931 43.0679C42.5447 43.6878 42.3515 44.2268 42.3515 44.685C42.3515 45.2779 42.6274 45.763 43.1793 46.1404Z" fill="white"/>
<path d="M90.5716 31.3845C90.1301 31.4115 89.592 31.6945 88.9574 32.2335C88.3228 32.7456 87.6329 33.4193 86.8879 34.2548C86.1705 35.0634 85.4117 35.9662 84.6115 36.9634C83.8389 37.9606 83.0801 38.9578 82.3351 39.955C81.6177 40.9253 80.9416 41.8416 80.307 42.7041C79.6723 43.5665 79.1343 44.2538 78.6928 44.7658C78.0857 44.5233 77.5615 44.1729 77.12 43.7147C76.6785 43.2296 76.3612 42.6367 76.168 41.936C76.306 41.1005 76.4992 40.238 76.7475 39.3486C76.9958 38.4323 77.3131 37.489 77.6994 36.5187C78.1133 35.5485 78.61 34.5378 79.1895 33.4867C79.7965 32.4087 80.5277 31.2767 81.3831 30.0908C80.9692 30.1178 80.4036 30.4143 79.6861 30.9802C78.9687 31.5193 78.1961 32.2335 77.3683 33.1229C76.5405 33.9853 75.6852 34.969 74.8022 36.074C73.9192 37.1521 73.0914 38.2167 72.3188 39.2678C71.2979 40.6692 70.4425 41.8955 69.7527 42.9466C69.0904 43.9977 68.6076 44.6176 68.304 44.8063C67.5866 44.2942 67.0899 43.7417 66.814 43.1488C66.5381 42.5558 66.3311 41.8955 66.1932 41.1678C66.2207 40.521 66.3173 39.7125 66.4829 38.7422C66.676 37.772 66.9382 36.7748 67.2693 35.7506C67.9039 33.7832 68.7179 31.8292 69.7113 29.8887C70.7322 27.9482 71.7118 26.1694 72.6499 24.5523C73.4225 24.7141 74.1124 24.9701 74.7194 25.3205C75.354 25.6708 76.0163 26.1829 76.7061 26.8567C76.4302 27.6922 76.0025 28.5816 75.423 29.5249C74.8436 30.4412 74.2365 31.4115 73.6019 32.4356C72.9672 33.4598 72.3878 34.5109 71.8635 35.5889C71.3393 36.667 70.9943 37.7585 70.8288 38.8635C71.6014 37.7854 72.512 36.5457 73.5605 35.1442C74.6366 33.7427 75.7265 32.4221 76.8303 31.1824C77.9616 29.9426 79.0791 28.8915 80.1828 28.0291C81.2865 27.1666 82.2799 26.7354 83.1629 26.7354C83.494 26.7354 83.8527 26.7893 84.239 26.8971C84.6253 27.0049 84.984 27.1397 85.3151 27.3014C85.6462 27.4631 85.9222 27.6248 86.1429 27.7865C86.3637 27.9213 86.4878 28.0291 86.5154 28.1099C86.3774 28.6489 86.0463 29.3901 85.5221 30.3334C85.0254 31.2498 84.4873 32.22 83.9079 33.2441C83.3284 34.2683 82.7904 35.2655 82.2937 36.2357C81.797 37.179 81.5073 37.9337 81.4245 38.4997C82.7766 36.6939 84.0458 35.0634 85.2323 33.608C86.4188 32.1257 87.5364 30.859 88.5849 29.8079C89.6334 28.7568 90.5992 27.9482 91.4822 27.3822C92.3927 26.8163 93.2481 26.5333 94.0483 26.5333C94.6002 26.5333 95.1106 26.6815 95.5797 26.978C96.0764 27.2475 96.4213 27.6517 96.6145 28.1908C96.3661 28.9993 95.9522 29.9696 95.3728 31.1015C94.8209 32.2335 94.2553 33.4328 93.6758 34.6995C93.0964 35.9393 92.5721 37.1656 92.103 38.3784C91.6615 39.5912 91.4408 40.6827 91.4408 41.653C91.4408 42.2189 91.5235 42.5963 91.6891 42.7849C91.8547 42.9466 92.0892 43.0275 92.3927 43.0275C92.7238 43.0275 93.0274 42.9736 93.3033 42.8658C93.6068 42.731 93.8276 42.6636 93.9655 42.6636C94.1311 42.7714 94.2277 42.9062 94.2553 43.0679C94.2829 43.2296 94.2966 43.3778 94.2966 43.5126C93.7448 43.9438 93.1791 44.2942 92.5997 44.5637C92.0202 44.8602 91.3718 45.0084 90.6544 45.0084C89.9921 45.0084 89.4403 44.9006 88.9988 44.685C88.5849 44.4694 88.24 44.1729 87.9641 43.7956C87.6881 43.4183 87.495 42.9871 87.3846 42.5019C87.2742 42.0168 87.219 41.4913 87.219 40.9253C87.219 40.0089 87.3432 39.1061 87.5915 38.2167C87.8399 37.3003 88.1296 36.4379 88.4607 35.6293C88.8194 34.7938 89.1919 34.0257 89.5782 33.325C89.9645 32.5973 90.2957 31.9505 90.5716 31.3845Z" fill="white"/>
<path d="M101.943 44.0786C103.212 43.2431 104.454 42.1785 105.668 40.8849C106.882 39.5642 107.986 38.1493 108.979 36.64C109.973 35.1038 110.814 33.5137 111.504 31.8696C112.194 30.2256 112.663 28.6489 112.911 27.1397C112.911 26.8163 112.732 26.6006 112.373 26.4928C111.987 26.4928 111.449 26.8297 110.759 27.5035C110.097 28.1503 109.352 28.9858 108.524 30.01C107.724 31.0341 106.896 32.1796 106.041 33.4463C105.213 34.713 104.454 35.9797 103.764 37.2464C103.074 38.4862 102.481 39.6586 101.984 40.7636C101.515 41.8416 101.253 42.7175 101.198 43.3913C100.922 43.3913 100.688 43.1218 100.494 42.5828C100.439 42.448 100.343 42.3133 100.205 42.1785C100.067 42.0168 99.846 41.8281 99.5424 41.6125C99.4045 41.5047 99.2665 41.3834 99.1285 41.2487C98.9906 41.087 98.894 40.9522 98.8388 40.8444C98.7284 40.6288 98.6733 40.2784 98.6733 39.7933C98.6733 38.2032 98.8802 36.4109 99.2941 34.4165C99.708 32.4221 100.246 30.3873 100.908 28.3121C101.598 26.2368 102.398 24.202 103.309 22.2076C104.219 20.1862 105.158 18.3401 106.123 16.6691C107.117 14.9981 108.11 13.5832 109.103 12.4242C110.097 11.2653 111.035 10.4972 111.918 10.1199C112.194 10.2008 112.525 10.3355 112.911 10.5242C113.298 10.7128 113.684 10.9284 114.07 11.171C114.456 11.4136 114.815 11.6561 115.146 11.8987C115.505 12.1413 115.767 12.3569 115.933 12.5455C112.897 14.9442 110.262 18.0301 108.027 21.8033C105.82 25.5495 104.013 29.983 102.605 35.1038C103.378 33.7023 104.247 32.3548 105.213 31.0611C106.179 29.7405 107.131 28.5816 108.069 27.5844C109.034 26.5872 109.945 25.7921 110.8 25.1992C111.683 24.6062 112.415 24.3098 112.994 24.3098C113.436 24.4176 113.863 24.6062 114.277 24.8758C114.691 25.1453 115.064 25.4822 115.395 25.8864C115.726 26.2638 116.002 26.6815 116.222 27.1397C116.443 27.5709 116.581 28.0291 116.636 28.5142C116.609 29.6461 116.402 30.859 116.015 32.1526C115.657 33.4193 115.16 34.6726 114.525 35.9123C113.918 37.1521 113.215 38.338 112.415 39.4699C111.642 40.6019 110.814 41.5991 109.931 42.4615C109.076 43.297 108.207 43.9708 107.324 44.4829C106.468 44.9949 105.654 45.251 104.882 45.251C104.551 45.251 104.206 45.2105 103.847 45.1297C103.516 45.0758 103.199 44.9815 102.895 44.8467C102.619 44.7389 102.385 44.6176 102.191 44.4829C102.026 44.3481 101.943 44.2133 101.943 44.0786Z" fill="white"/>
<path d="M131.937 27.4631C132.213 27.4631 132.53 27.517 132.889 27.6248C133.275 27.7057 133.62 27.8269 133.924 27.9886C134.227 28.1234 134.476 28.2716 134.669 28.4333C134.89 28.595 135 28.7433 135 28.878C134.448 30.01 133.938 31.1554 133.469 32.3143C133 33.4463 132.599 34.5378 132.268 35.5889C131.937 36.64 131.675 37.6237 131.482 38.5401C131.316 39.4564 131.234 40.2515 131.234 40.9253C131.234 41.6799 131.316 42.3133 131.482 42.8253C131.647 43.3105 131.923 43.6608 132.31 43.8764C131.979 44.0921 131.551 44.2672 131.027 44.402C130.502 44.5368 130.033 44.6041 129.619 44.6041C128.129 44.6041 127.384 43.6069 127.384 41.6125C127.384 40.0763 127.909 37.9741 128.957 35.3059C128.405 36.5457 127.771 37.7181 127.053 38.8231C126.336 39.9011 125.605 40.8579 124.86 41.6934C124.115 42.5289 123.356 43.2161 122.583 43.7552C121.838 44.2672 121.148 44.5772 120.514 44.685C119.493 44.6311 118.665 44.1594 118.03 43.27C117.396 42.3537 117.078 41.1948 117.078 39.7933C117.078 38.284 117.409 36.6939 118.072 35.0229C118.734 33.352 119.576 31.8023 120.596 30.3738C121.645 28.9454 122.776 27.7596 123.99 26.8163C125.204 25.846 126.377 25.3339 127.509 25.28C127.784 25.3609 128.088 25.5226 128.419 25.7652C128.778 26.0077 129.109 26.2907 129.412 26.6141C129.744 26.9375 130.019 27.2744 130.24 27.6248C130.461 27.9482 130.585 28.2312 130.613 28.4738C129.509 28.6355 128.364 29.161 127.177 30.0504C126.018 30.9398 124.956 32.0179 123.99 33.2846C123.052 34.5243 122.28 35.8584 121.673 37.2868C121.066 38.7153 120.762 40.0494 120.762 41.2891C120.762 41.8012 120.955 42.1246 121.341 42.2594C122.142 42.0977 123.066 41.4374 124.115 40.2784C125.163 39.0926 126.432 37.2734 127.922 34.8208C128.198 34.3357 128.502 33.7966 128.833 33.2037C129.192 32.6108 129.55 31.9909 129.909 31.3441C130.268 30.6972 130.613 30.0504 130.944 29.4036C131.303 28.7298 131.634 28.083 131.937 27.4631Z" fill="white"/>
<path fill-rule="evenodd" clip-rule="evenodd" d="M56.9497 40.1976C56.9221 40.548 56.9083 40.8444 56.9083 41.087C56.9083 41.6799 57.0463 42.192 57.3222 42.6232C57.5981 43.0544 57.9017 43.4183 58.2328 43.7147C58.5915 43.9843 58.9364 44.1864 59.2675 44.3211C59.5986 44.4559 59.8194 44.5233 59.9298 44.5233C60.0677 44.5233 60.1367 44.4155 60.1367 44.1999C60.1643 44.0112 60.1781 43.6743 60.1781 43.1892C60.2057 42.5963 60.3437 41.909 60.592 41.1274C60.8403 40.3189 61.1163 39.5373 61.4198 38.7826C61.7785 37.8933 62.0958 37.0443 62.3717 36.2357C62.6753 35.4272 62.9926 34.6456 63.3237 33.891C63.6824 33.1363 64.0687 32.4087 64.4826 31.7079C64.9241 31.0072 65.4622 30.3065 66.0968 29.6057C65.5449 28.8241 64.8827 28.2177 64.1101 27.7865C63.3375 27.3283 62.7167 27.0453 62.2476 26.9375C61.6129 27.234 61.0611 27.6922 60.592 28.3121C60.1505 28.9319 59.7642 29.5788 59.4331 30.2526C59.1296 30.8994 58.8812 31.5193 58.6881 32.1122C58.4949 32.7051 58.3708 33.1363 58.3156 33.4059C58.0396 34.6187 57.8051 35.6563 57.6119 36.5187C57.4464 37.3812 57.3084 38.1223 57.1981 38.7422C57.0877 39.3351 57.0049 39.8203 56.9497 40.1976Z" fill="white"/>
<path d="M61.7995 0.00394799C61.2418 0.0285305 60.6496 0.169551 60.0645 0.286411L63.4324 3.74102L62.2659 3.75092C60.6827 3.76076 58.1865 4.07486 56.685 4.92493L58.3964 7.63986L56.207 8.75044V11.7286L58.7152 13.1141L56.207 15.2237V16.9222C57.7277 16.8573 59.4745 16.9557 61.0108 16.4534L62.73 15.8923L61.5537 17.2392C60.5426 18.3972 59.9486 20.1413 58.8194 21.8563C60.5391 21.7303 62.2336 21.4536 64.0362 20.4977L64.8999 20.0406L64.3746 24.1004C65.7938 23.4587 67.1826 22.5779 68.2106 21.5182C69.433 20.258 70.1353 18.8604 70.0084 17.6908L70.0045 17.6513C69.0081 16.9834 68.2659 16.0104 67.8899 14.7993C67.4365 13.3384 67.5737 11.5183 68.2479 9.47508C66.8249 9.26241 65.74 8.70459 65.1595 7.89011C64.495 6.95755 64.3931 5.82349 64.7425 4.88872C65.0919 3.95395 65.9438 3.19557 67.0834 3.13057C68.1914 3.06766 69.4806 3.6587 70.8544 5.03095C71.467 5.2473 72.0255 5.45385 72.5326 5.65946C72.6638 4.53325 72.4539 3.65743 71.9717 2.87484C71.5185 2.13921 70.7205 1.48359 69.7567 0.843913L69.9868 3.10151L69.1017 2.52327C67.1071 1.22113 64.2294 -0.0990672 61.7995 0.0118439L61.7996 0L61.7995 0.00394799ZM67.2096 4.10966C67.1861 4.11008 67.163 4.10966 67.1401 4.10966C66.4104 4.15098 65.925 4.58894 65.6883 5.22219C65.4516 5.85544 65.5135 6.66203 65.9853 7.32408C66.4571 7.98607 67.3395 8.5431 68.8711 8.62869L69.5499 8.66501L69.3158 9.28758C68.5162 11.4174 68.4404 13.1791 68.8535 14.51C69.2663 15.8401 70.1491 16.7627 71.4029 17.2767H71.4049L77.2571 19.302C77.5616 18.6756 77.8862 18.0485 78.2265 17.4222C77.9492 17.5409 77.6497 17.602 77.347 17.6017C76.1333 17.6017 75.1493 16.6404 75.1493 15.455C75.1493 14.2697 76.1333 13.3084 77.347 13.3084C78.4604 13.3084 79.3786 14.1176 79.5228 15.1665C80.0976 14.2158 80.7023 13.2715 81.3271 12.3407L75.7641 9.58362L75.5084 9.28189C75.2966 8.56831 74.8878 8.05434 74.0861 7.52774C73.2844 7.00124 72.0903 6.49759 70.4331 5.91576L70.321 5.87539L70.2385 5.7908C68.9837 4.49945 67.9373 4.09171 67.2096 4.10508V4.10966ZM73.625 8.84351C74.0708 8.84351 74.4149 9.17972 74.4149 9.61504C74.4149 10.0506 74.0707 10.3882 73.625 10.3882C73.1793 10.3882 72.8335 10.0506 72.8335 9.6151C72.8335 9.17977 73.1793 8.84351 73.625 8.84351Z" fill="white"/>
</svg>
