<svg width="154" height="18" viewBox="0 0 154 18" fill="none" xmlns="http://www.w3.org/2000/svg">
<path d="M7.32 17.7828C5.912 17.7828 4.552 17.6228 3.24 17.3028C1.928 16.9828 0.848 16.5668 0 16.0548L1.824 11.9268C2.624 12.3908 3.512 12.7668 4.488 13.0548C5.48 13.3268 6.44 13.4628 7.368 13.4628C7.912 13.4628 8.336 13.4308 8.64 13.3668C8.96 13.2868 9.192 13.1828 9.336 13.0548C9.48 12.9108 9.552 12.7428 9.552 12.5508C9.552 12.2468 9.384 12.0068 9.048 11.8308C8.712 11.6548 8.264 11.5108 7.704 11.3988C7.16 11.2708 6.56 11.1428 5.904 11.0148C5.248 10.8708 4.584 10.6868 3.912 10.4628C3.256 10.2388 2.648 9.94284 2.088 9.57484C1.544 9.20684 1.104 8.72684 0.768 8.13484C0.432 7.52684 0.264 6.77484 0.264 5.87884C0.264 4.83884 0.552 3.89484 1.128 3.04684C1.72 2.18284 2.592 1.49484 3.744 0.982844C4.912 0.470844 6.36 0.214844 8.088 0.214844C9.224 0.214844 10.344 0.334844 11.448 0.574843C12.552 0.814843 13.544 1.18284 14.424 1.67884L12.72 5.78284C11.888 5.36684 11.08 5.05484 10.296 4.84684C9.528 4.63884 8.776 4.53484 8.04 4.53484C7.496 4.53484 7.064 4.58284 6.744 4.67884C6.424 4.77484 6.192 4.90284 6.048 5.06284C5.92 5.22284 5.856 5.39884 5.856 5.59084C5.856 5.87884 6.024 6.11084 6.36 6.28684C6.696 6.44684 7.136 6.58284 7.68 6.69484C8.24 6.80684 8.848 6.92684 9.504 7.05484C10.176 7.18284 10.84 7.35884 11.496 7.58284C12.152 7.80684 12.752 8.10284 13.296 8.47084C13.856 8.83884 14.304 9.31884 14.64 9.91084C14.976 10.5028 15.144 11.2388 15.144 12.1188C15.144 13.1428 14.848 14.0868 14.256 14.9508C13.68 15.7988 12.816 16.4868 11.664 17.0148C10.512 17.5268 9.064 17.7828 7.32 17.7828Z" fill="url(#paint0_linear_5558_21053)"/>
<path d="M22.0134 6.83884H29.5014V10.9188H22.0134V6.83884ZM22.3974 13.1268H30.7974V17.3988H16.8294V0.598843H30.4854V4.87084H22.3974V13.1268Z" fill="url(#paint1_linear_5558_21053)"/>
<path d="M38.0235 17.3988L30.9195 0.598843H37.0155L42.7995 14.7828H39.1755L45.1275 0.598843H50.6955L43.5915 17.3988H38.0235Z" fill="url(#paint2_linear_5558_21053)"/>
<path d="M56.4431 6.83884H63.9311V10.9188H56.4431V6.83884ZM56.8271 13.1268H65.2271V17.3988H51.2591V0.598843H64.9151V4.87084H56.8271V13.1268Z" fill="url(#paint3_linear_5558_21053)"/>
<path d="M67.4076 17.3988V0.598843H72.0636L80.6076 10.8228H78.4476V0.598843H83.9676V17.3988H79.3116L70.7676 7.17484H72.9276V17.3988H67.4076Z" fill="url(#paint4_linear_5558_21053)"/>
<path d="M86.6966 17.3988V0.598843H94.7846C96.3526 0.598843 97.7046 0.854843 98.8406 1.36684C99.9926 1.87884 100.881 2.61484 101.505 3.57484C102.129 4.51884 102.441 5.63884 102.441 6.93484C102.441 8.23084 102.129 9.35084 101.505 10.2948C100.881 11.2388 99.9926 11.9748 98.8406 12.5028C97.7046 13.0148 96.3526 13.2708 94.7846 13.2708H89.8406L92.3606 10.8468V17.3988H86.6966ZM92.3606 11.4708L89.8406 8.90284H94.4246C95.2086 8.90284 95.7846 8.72684 96.1526 8.37484C96.5366 8.02284 96.7286 7.54284 96.7286 6.93484C96.7286 6.32684 96.5366 5.84684 96.1526 5.49484C95.7846 5.14284 95.2086 4.96684 94.4246 4.96684H89.8406L92.3606 2.39884V11.4708Z" fill="white"/>
<path d="M104.298 17.3988V0.598843H109.962V13.0068H117.546V17.3988H104.298Z" fill="white"/>
<path d="M117.521 17.3988L124.865 0.598843H130.433L137.777 17.3988H131.921L126.497 3.28684H128.705L123.281 17.3988H117.521ZM121.889 14.4708L123.329 10.3908H131.057L132.497 14.4708H121.889Z" fill="white"/>
<path d="M141.923 17.3988V10.0308L143.219 13.4148L135.587 0.598843H141.563L146.723 9.35884H143.243L148.451 0.598843H153.923L146.339 13.4148L147.587 10.0308V17.3988H141.923Z" fill="white"/>
<path d="M45.0047 17.2148L51.175 2.25484L52.6474 4.65913H44.8878L48.9805 2.06056V7.13627H41.9805V0.214844H56.4805V3.73627L51.0347 17.2148H45.0047Z" fill="#242229"/>
<defs>
<linearGradient id="paint0_linear_5558_21053" x1="76.9614" y1="0.214844" x2="76.9614" y2="17.7828" gradientUnits="userSpaceOnUse">
<stop stop-color="#FAE8D6"/>
<stop offset="1" stop-color="#F3BA7B"/>
</linearGradient>
<linearGradient id="paint1_linear_5558_21053" x1="76.9614" y1="0.214844" x2="76.9614" y2="17.7828" gradientUnits="userSpaceOnUse">
<stop stop-color="#FAE8D6"/>
<stop offset="1" stop-color="#F3BA7B"/>
</linearGradient>
<linearGradient id="paint2_linear_5558_21053" x1="76.9614" y1="0.214844" x2="76.9614" y2="17.7828" gradientUnits="userSpaceOnUse">
<stop stop-color="#FAE8D6"/>
<stop offset="1" stop-color="#F3BA7B"/>
</linearGradient>
<linearGradient id="paint3_linear_5558_21053" x1="76.9614" y1="0.214844" x2="76.9614" y2="17.7828" gradientUnits="userSpaceOnUse">
<stop stop-color="#FAE8D6"/>
<stop offset="1" stop-color="#F3BA7B"/>
</linearGradient>
<linearGradient id="paint4_linear_5558_21053" x1="76.9614" y1="0.214844" x2="76.9614" y2="17.7828" gradientUnits="userSpaceOnUse">
<stop stop-color="#FAE8D6"/>
<stop offset="1" stop-color="#F3BA7B"/>
</linearGradient>
</defs>
</svg>
