<svg width="219" height="30" viewBox="0 0 219 30" fill="none" xmlns="http://www.w3.org/2000/svg">
<path d="M46.6413 0.850525V29.3303H33.4419L31.9898 22.8721V22.8651L28.9688 9.43437L34.3387 13.3661C33.9876 13.9901 33.7837 14.7339 33.7837 15.5293C33.7837 17.7439 35.3557 19.5402 37.2935 19.5402C39.2343 19.5402 40.8063 17.7439 40.8063 15.5293C40.8063 14.2059 40.2452 13.0301 39.3815 12.3035L46.6413 0.850525Z" fill="url(#paint0_linear_639_15294)"/>
<path d="M64.3218 9.43431L61.742 20.9111L61.3011 22.8651L60.8602 24.8225L59.8462 29.3303H46.6406V0.850464L53.8824 12.2792C53.0034 13.0094 52.4334 14.1922 52.4334 15.5288C52.4334 17.7435 54.0054 19.5398 55.9462 19.5398C57.8843 19.5398 59.4559 17.7435 59.4559 15.5288C59.4559 14.7437 59.2579 14.0104 58.916 13.3934L64.3218 9.43431Z" fill="url(#paint1_linear_639_15294)"/>
<path d="M25.8831 24.0941C25.8831 25.018 25.7192 25.7034 25.3914 26.1505C25.0635 26.5975 24.542 27.0296 23.8268 27.4469C23.4095 27.6853 22.888 27.9237 22.2622 28.1621C21.6363 28.3707 20.9509 28.5495 20.2058 28.6985C19.4608 28.8774 18.671 29.0115 17.8365 29.1009C17.0319 29.1903 16.2272 29.235 15.4226 29.235C13.2768 29.235 11.2652 28.9519 9.38765 28.3856C7.51012 27.7896 5.87101 26.9104 4.47031 25.7481C3.09942 24.5561 2.01164 23.0809 1.20698 21.3225C0.402328 19.5642 0 17.5228 0 15.1982C0 12.7544 0.43213 10.6236 1.29639 8.80565C2.19045 6.98772 3.35273 5.48271 4.78323 4.29063C6.24354 3.06875 7.89755 2.15978 9.74528 1.56374C11.6228 0.967698 13.545 0.669678 15.512 0.669678C18.3432 0.669678 20.5783 1.13161 22.2175 2.05548C23.8864 2.94954 24.7208 4.12672 24.7208 5.58702C24.7208 6.36188 24.5271 7.03242 24.1397 7.59866C23.7523 8.1649 23.3052 8.61193 22.7986 8.93976C22.0535 8.49273 21.1148 8.0606 19.9823 7.64337C18.8796 7.19634 17.6279 6.97282 16.2272 6.97282C13.7239 6.97282 11.7271 7.68807 10.237 9.11857C8.77671 10.5491 8.04656 12.5309 8.04656 15.0641C8.04656 16.435 8.24028 17.6271 8.6277 18.6403C9.04493 19.6238 9.59627 20.4434 10.2817 21.099C10.9672 21.7249 11.7569 22.2017 12.651 22.5295C13.545 22.8275 14.4987 22.9765 15.512 22.9765C16.1676 22.9765 16.7488 22.9169 17.2554 22.7977C17.762 22.6785 18.1495 22.5444 18.4177 22.3954V18.1933H13.6345C13.4556 17.8655 13.2768 17.4334 13.098 16.8969C12.949 16.3605 12.8745 15.7942 12.8745 15.1982C12.8745 14.1253 13.1129 13.3505 13.5897 12.8736C14.0964 12.3968 14.7371 12.1584 15.512 12.1584H23.0668C23.9609 12.1584 24.6463 12.4117 25.1232 12.9183C25.6298 13.3952 25.8831 14.0806 25.8831 14.9747V24.0941Z" fill="url(#paint2_linear_639_15294)"/>
<path d="M88.8798 28.8178C86.1479 28.8178 83.8134 28.2715 81.8763 27.1787C79.9392 26.086 78.4615 24.5338 77.4432 22.5222C76.4498 20.5105 75.9531 18.1512 75.9531 15.4442C75.9531 12.6875 76.4747 10.2909 77.5177 8.2544C78.5608 6.21792 80.0385 4.64089 81.9508 3.52331C83.8879 2.3809 86.1728 1.80969 88.8053 1.80969C90.8417 1.80969 92.6795 2.1698 94.3187 2.89002C95.9578 3.61023 97.2864 4.67814 98.3047 6.09374C99.3478 7.48451 99.981 9.2478 100.205 11.3836H94.4304C94.1324 10.1667 93.5239 9.22296 92.605 8.55242C91.711 7.85703 90.4941 7.50934 88.9543 7.50934C87.2903 7.50934 85.9617 7.89429 84.9683 8.66417C83.9748 9.40923 83.2546 10.3654 82.8076 11.5326C82.3854 12.6999 82.1743 13.9168 82.1743 15.1834C82.1743 16.4996 82.3978 17.7662 82.8449 18.9832C83.3167 20.2001 84.0494 21.1935 85.0428 21.9634C86.061 22.7332 87.4021 23.1182 89.066 23.1182C90.0594 23.1182 90.9287 22.9692 91.6737 22.6712C92.4436 22.3731 93.0769 21.9385 93.5736 21.3673C94.0703 20.7961 94.418 20.1131 94.6167 19.3184H100.54C100.341 21.3797 99.683 23.1182 98.5655 24.5338C97.4727 25.9494 96.0695 27.0173 94.3559 27.7375C92.6671 28.4577 90.8417 28.8178 88.8798 28.8178Z" fill="url(#paint3_linear_639_15294)"/>
<path d="M100.298 28.5198L110.728 2.14497H117.136L127.455 28.5198H120.936L119.483 24.422H108.27L106.78 28.5198H100.298ZM110.17 18.9459H117.583L113.932 8.73868L110.17 18.9459Z" fill="url(#paint4_linear_639_15294)"/>
<path d="M139.124 28.8178C137.236 28.8178 135.486 28.5198 133.871 27.9238C132.257 27.3029 130.916 26.3468 129.848 25.0553C128.805 23.7391 128.159 22.0627 127.911 20.0262H134.02C134.219 20.7961 134.579 21.417 135.101 21.8889C135.647 22.3607 136.305 22.7084 137.075 22.9319C137.845 23.1306 138.664 23.23 139.534 23.23C140.13 23.23 140.726 23.1679 141.322 23.0437C141.918 22.8947 142.415 22.6463 142.812 22.2986C143.209 21.9509 143.408 21.4667 143.408 20.8458C143.408 20.3739 143.296 20.0014 143.073 19.7282C142.849 19.4302 142.526 19.1943 142.104 19.0204C141.707 18.8217 141.21 18.6479 140.614 18.4989C140.241 18.3995 139.857 18.3126 139.459 18.2381C139.062 18.1636 138.677 18.0767 138.304 17.9773C137.932 17.878 137.559 17.7662 137.187 17.6421C136.069 17.3689 135.001 17.0584 133.983 16.7107C132.965 16.3382 132.058 15.8663 131.264 15.2951C130.494 14.7239 129.885 13.9789 129.438 13.06C128.991 12.1411 128.768 10.9987 128.768 9.63274C128.768 8.31648 128.991 7.19891 129.438 6.28001C129.91 5.33627 130.531 4.5788 131.301 4.0076C132.096 3.41155 132.952 2.96452 133.871 2.6665C134.815 2.34365 135.746 2.12013 136.665 1.99596C137.609 1.87178 138.478 1.80969 139.273 1.80969C141.036 1.80969 142.601 2.13255 143.967 2.77826C145.358 3.42397 146.475 4.38012 147.319 5.64671C148.189 6.88847 148.71 8.42824 148.884 10.266H143.035C142.936 9.62033 142.675 9.08637 142.253 8.66417C141.856 8.24198 141.334 7.91912 140.689 7.69561C140.068 7.47209 139.347 7.36033 138.528 7.36033C138.031 7.36033 137.547 7.41 137.075 7.50934C136.628 7.58385 136.231 7.70802 135.883 7.88187C135.56 8.05571 135.287 8.29165 135.063 8.58967C134.865 8.86285 134.765 9.21055 134.765 9.63274C134.765 10.0798 134.914 10.4647 135.212 10.7876C135.51 11.0856 135.933 11.3464 136.479 11.5699C137.05 11.7934 137.746 12.0169 138.565 12.2404C139.136 12.4391 139.72 12.6005 140.316 12.7247C140.937 12.8241 141.533 12.9606 142.104 13.1345C143.147 13.3828 144.103 13.6809 144.973 14.0286C145.867 14.3514 146.649 14.7736 147.319 15.2951C147.99 15.7918 148.512 16.4624 148.884 17.3068C149.281 18.1263 149.48 19.1694 149.48 20.436C149.48 21.9758 149.195 23.2796 148.623 24.3475C148.052 25.3906 147.27 26.2474 146.276 26.918C145.283 27.5885 144.165 28.0728 142.924 28.3708C141.707 28.6688 140.44 28.8178 139.124 28.8178Z" fill="url(#paint5_linear_639_15294)"/>
<path d="M153.694 28.5198V2.14497H159.729V28.5198H153.694Z" fill="url(#paint6_linear_639_15294)"/>
<path d="M165.008 28.5198V2.14497H170.856L182.516 18.6106V2.14497H188.589V28.5198H182.889L171.043 12.2404V28.5198H165.008Z" fill="url(#paint7_linear_639_15294)"/>
<path d="M205.628 28.8178C202.921 28.8178 200.574 28.2591 198.587 27.1415C196.625 25.9991 195.11 24.422 194.042 22.4104C192.974 20.3739 192.44 18.027 192.44 15.3696C192.44 12.6378 192.987 10.266 194.079 8.2544C195.197 6.21792 196.749 4.64089 198.736 3.52331C200.723 2.3809 203.07 1.80969 205.777 1.80969C208.434 1.80969 210.744 2.36848 212.706 3.48606C214.692 4.60364 216.232 6.16825 217.325 8.17989C218.443 10.1667 219.001 12.5136 219.001 15.2206C219.001 17.878 218.455 20.2373 217.362 22.2986C216.269 24.3351 214.717 25.937 212.706 27.1042C210.719 28.2466 208.36 28.8178 205.628 28.8178ZM205.739 23.1182C207.428 23.1182 208.794 22.7332 209.837 21.9634C210.88 21.1935 211.638 20.2125 212.11 19.0204C212.581 17.8283 212.817 16.6114 212.817 15.3696C212.817 14.4507 212.681 13.5319 212.408 12.613C212.159 11.6941 211.749 10.8497 211.178 10.0798C210.632 9.30989 209.912 8.68901 209.018 8.21714C208.124 7.74528 207.018 7.50934 205.702 7.50934C204.038 7.50934 202.685 7.89429 201.642 8.66417C200.599 9.40923 199.829 10.3778 199.332 11.5699C198.86 12.762 198.624 14.0161 198.624 15.3324C198.624 16.6487 198.873 17.9028 199.369 19.0949C199.866 20.287 200.636 21.2556 201.679 22.0006C202.747 22.7457 204.1 23.1182 205.739 23.1182Z" fill="url(#paint8_linear_639_15294)"/>
<defs>
<linearGradient id="paint0_linear_639_15294" x1="51.1352" y1="-18.7377" x2="51.1352" y2="51.8305" gradientUnits="userSpaceOnUse">
<stop offset="0.425" stop-color="#FFDD5E"/>
<stop offset="0.98" stop-color="#D79000"/>
</linearGradient>
<linearGradient id="paint1_linear_639_15294" x1="68.8179" y1="-18.7377" x2="68.8179" y2="51.8304" gradientUnits="userSpaceOnUse">
<stop offset="0.425" stop-color="#FFDD5E"/>
<stop offset="0.98" stop-color="#D79000"/>
</linearGradient>
<linearGradient id="paint2_linear_639_15294" x1="32.4648" y1="-18.9773" x2="32.4648" y2="51.8027" gradientUnits="userSpaceOnUse">
<stop offset="0.425" stop-color="#FFDD5E"/>
<stop offset="0.98" stop-color="#D79000"/>
</linearGradient>
<linearGradient id="paint3_linear_639_15294" x1="147.484" y1="-7.80155" x2="147.484" y2="39.6955" gradientUnits="userSpaceOnUse">
<stop offset="0.425" stop-color="#FFDD5E"/>
<stop offset="0.98" stop-color="#D79000"/>
</linearGradient>
<linearGradient id="paint4_linear_639_15294" x1="147.484" y1="-7.80155" x2="147.484" y2="39.6955" gradientUnits="userSpaceOnUse">
<stop offset="0.425" stop-color="#FFDD5E"/>
<stop offset="0.98" stop-color="#D79000"/>
</linearGradient>
<linearGradient id="paint5_linear_639_15294" x1="147.484" y1="-7.80155" x2="147.484" y2="39.6955" gradientUnits="userSpaceOnUse">
<stop offset="0.425" stop-color="#FFDD5E"/>
<stop offset="0.98" stop-color="#D79000"/>
</linearGradient>
<linearGradient id="paint6_linear_639_15294" x1="147.484" y1="-7.80155" x2="147.484" y2="39.6955" gradientUnits="userSpaceOnUse">
<stop offset="0.425" stop-color="#FFDD5E"/>
<stop offset="0.98" stop-color="#D79000"/>
</linearGradient>
<linearGradient id="paint7_linear_639_15294" x1="147.484" y1="-7.80155" x2="147.484" y2="39.6955" gradientUnits="userSpaceOnUse">
<stop offset="0.425" stop-color="#FFDD5E"/>
<stop offset="0.98" stop-color="#D79000"/>
</linearGradient>
<linearGradient id="paint8_linear_639_15294" x1="147.484" y1="-7.80155" x2="147.484" y2="39.6955" gradientUnits="userSpaceOnUse">
<stop offset="0.425" stop-color="#FFDD5E"/>
<stop offset="0.98" stop-color="#D79000"/>
</linearGradient>
</defs>
</svg>
