<svg width="99" height="48" viewBox="0 0 99 48" fill="none" xmlns="http://www.w3.org/2000/svg">
<path d="M-1.90735e-06 48V-1.90735e-06L48 48H-1.90735e-06Z" fill="#E8002F"/>
<circle cx="24.0009" cy="24.0009" r="19.5556" fill="#FFE200"/>
<path d="M39.7153 23.9533C39.7153 26.1929 39.335 28.2706 38.5743 30.1862C37.8278 32.1019 36.7643 33.757 35.3839 35.1515C34.0176 36.546 32.3695 37.6447 30.4398 38.4476C28.51 39.2364 26.369 39.6308 24.0166 39.6308C21.6643 39.6308 19.5233 39.2364 17.5935 38.4476C15.6638 37.6447 14.0087 36.546 12.6283 35.1515C11.2479 33.757 10.1773 32.1019 9.4167 30.1862C8.67015 28.2706 8.29688 26.1929 8.29688 23.9533C8.29688 21.7136 8.67015 19.643 9.4167 17.7414C10.1773 15.8257 11.2479 14.1707 12.6283 12.7762C14.0087 11.3817 15.6638 10.29 17.5935 9.50121C19.5233 8.69832 21.6643 8.29688 24.0166 8.29688C26.369 8.29688 28.51 8.69832 30.4398 9.50121C32.3695 10.29 34.0176 11.3887 35.3839 12.7973C36.7643 14.1918 37.8278 15.8469 38.5743 17.7625C39.335 19.6641 39.7153 21.7277 39.7153 23.9533ZM33.2288 23.9533C33.2288 22.3475 33.0175 20.9107 32.5949 19.643C32.1723 18.3612 31.5596 17.2766 30.7567 16.3892C29.9679 15.4877 29.003 14.8045 27.8621 14.3397C26.7352 13.8608 25.4534 13.6213 24.0166 13.6213C22.5799 13.6213 21.291 13.8608 20.1501 14.3397C19.0091 14.8045 18.0372 15.4877 17.2343 16.3892C16.4455 17.2766 15.8398 18.3612 15.4173 19.643C14.9947 20.9107 14.7834 22.3475 14.7834 23.9533C14.7834 25.5731 14.9947 27.024 15.4173 28.3058C15.8398 29.5735 16.4455 30.6511 17.2343 31.5385C18.0372 32.4259 19.0091 33.109 20.1501 33.588C21.291 34.0528 22.5799 34.2852 24.0166 34.2852C25.4534 34.2852 26.7352 34.0528 27.8621 33.588C29.003 33.109 29.9679 32.4259 30.7567 31.5385C31.5596 30.6511 32.1723 29.5735 32.5949 28.3058C33.0175 27.024 33.2288 25.5731 33.2288 23.9533Z" fill="#053D70"/>
<path d="M66.1918 34.1373V39.2927H48V8.63494H54.3386V34.1373H66.1918Z" fill="#FFE200"/>
<path d="M88.2713 23.6786H98.7934V36.3347C97.2299 37.4756 95.5607 38.3137 93.7859 38.849C92.0252 39.3702 90.1588 39.6308 88.1868 39.6308C85.6655 39.6308 83.3836 39.2434 81.3411 38.4687C79.2987 37.6799 77.552 36.5882 76.1012 35.1937C74.6504 33.7992 73.5305 32.1442 72.7417 30.2285C71.9529 28.3128 71.5585 26.2211 71.5585 23.9533C71.5585 21.6573 71.9318 19.5514 72.6783 17.6358C73.439 15.7201 74.5165 14.0721 75.911 12.6916C77.3055 11.3112 78.9888 10.2337 80.9608 9.45896C82.9469 8.68424 85.1654 8.29688 87.6163 8.29688C88.8841 8.29688 90.0673 8.40252 91.166 8.61381C92.2647 8.81101 93.2788 9.09272 94.2085 9.45896C95.1382 9.8111 95.9904 10.2337 96.7651 10.7267C97.5398 11.2197 98.2441 11.762 98.878 12.3536L97.0398 15.1848C96.758 15.6356 96.3918 15.9103 95.9411 16.0089C95.4903 16.1075 94.9973 15.9948 94.4621 15.6708C93.955 15.3609 93.4549 15.0862 92.9619 14.8468C92.483 14.5932 91.9689 14.3749 91.4195 14.1918C90.8702 14.0087 90.2715 13.8678 89.6236 13.7692C88.9756 13.6706 88.2291 13.6213 87.3839 13.6213C85.9613 13.6213 84.6724 13.8678 83.5174 14.3608C82.3623 14.8538 81.3763 15.5511 80.5594 16.4526C79.7565 17.3541 79.1367 18.4387 78.7 19.7064C78.2634 20.9741 78.045 22.3897 78.045 23.9533C78.045 25.6436 78.2845 27.1578 78.7634 28.4959C79.2423 29.82 79.9184 30.9398 80.7918 31.8554C81.6651 32.771 82.7074 33.4682 83.9188 33.9471C85.1443 34.4261 86.5036 34.6655 87.9967 34.6655C89.0108 34.6655 89.9123 34.5669 90.7011 34.3697C91.504 34.1584 92.2858 33.8767 93.0464 33.5246V28.3692H89.5813C89.1728 28.3692 88.8489 28.2635 88.6094 28.0522C88.384 27.8269 88.2713 27.5451 88.2713 27.2071V23.6786Z" fill="#FFE200"/>
</svg>
