<svg width="150" height="48" viewBox="0 0 150 48" fill="none" xmlns="http://www.w3.org/2000/svg">
<path d="M12.8979 47.2188H28.3754C34.5327 47.2187 40.4379 44.7728 44.7918 40.4189C49.1457 36.065 51.5917 30.1598 51.5917 24.0025C51.5917 17.8452 49.1457 11.94 44.7918 7.58614C40.4379 3.23225 34.5327 0.786255 28.3754 0.786255H12.8979L12.8979 11.1046H28.3754C31.7962 11.1046 35.0768 12.4635 37.4956 14.8823C39.9144 17.3011 41.2733 20.5818 41.2733 24.0025C41.2733 27.4232 39.9144 30.7039 37.4956 33.1227C35.0768 35.5415 31.7962 36.9004 28.3754 36.9004H12.8979M7.73875 11.1046L7.73875 0.786255H0L0 11.1046M7.73875 47.2188L7.73875 36.9004H0L0 47.2188" fill="url(#paint0_linear_988_29321)"/>
<path d="M56.8281 11.1406H68.6955C71.5317 11.1406 74.032 11.688 76.1965 12.7826C78.3859 13.8524 80.0777 15.3701 81.2719 17.3355C82.4909 19.301 83.1005 21.5899 83.1005 24.2022C83.1005 26.8145 82.4909 29.1033 81.2719 31.0688C80.0777 33.0342 78.3859 34.5643 76.1965 35.659C74.032 36.7288 71.5317 37.2637 68.6955 37.2637H56.8281V11.1406ZM68.3969 32.3003C71.0092 32.3003 73.0866 31.5788 74.6291 30.1358C76.1965 28.668 76.9802 26.6901 76.9802 24.2022C76.9802 21.7142 76.1965 19.7488 74.6291 18.3058C73.0866 16.8379 71.0092 16.104 68.3969 16.104H62.8737V32.3003H68.3969Z" fill="#24F7B5"/>
<path d="M104.304 37.2637L99.2659 29.9866H93.7054V37.2637H87.6598V11.1406H98.9673C101.281 11.1406 103.284 11.5263 104.976 12.2975C106.692 13.0688 108.011 14.1634 108.931 15.5815C109.852 16.9997 110.312 18.679 110.312 20.6196C110.312 22.5601 109.839 24.2395 108.894 25.6576C107.974 27.0508 106.655 28.1206 104.938 28.867L110.797 37.2637H104.304ZM104.192 20.6196C104.192 19.1517 103.719 18.0321 102.774 17.2609C101.828 16.4648 100.448 16.0667 98.6315 16.0667H93.7054V25.1724H98.6315C100.448 25.1724 101.828 24.7744 102.774 23.9782C103.719 23.1821 104.192 22.0626 104.192 20.6196Z" fill="#24F7B5"/>
<path d="M115.102 11.1406H121.148V37.2637H115.102V11.1406Z" fill="#24F7B5"/>
<path d="M138.655 11.1406C140.969 11.1406 142.971 11.5263 144.663 12.2975C146.38 13.0688 147.698 14.1634 148.619 15.5815C149.539 16.9997 150 18.679 150 20.6196C150 22.5353 149.539 24.2146 148.619 25.6576C147.698 27.0757 146.38 28.1704 144.663 28.9416C142.971 29.688 140.969 30.0612 138.655 30.0612H133.393V37.2637H127.347V11.1406H138.655ZM138.319 25.1351C140.135 25.1351 141.516 24.7495 142.461 23.9782C143.407 23.1821 143.879 22.0626 143.879 20.6196C143.879 19.1517 143.407 18.0321 142.461 17.2609C141.516 16.4648 140.135 16.0667 138.319 16.0667H133.393V25.1351H138.319Z" fill="#24F7B5"/>
<defs>
<linearGradient id="paint0_linear_988_29321" x1="25.7958" y1="47.2187" x2="25.7958" y2="0.78625" gradientUnits="userSpaceOnUse">
<stop stop-color="#00E1FF"/>
<stop offset="1" stop-color="#00FFA7"/>
</linearGradient>
</defs>
</svg>
