<svg width="114" height="24" viewBox="0 0 114 24" fill="none" xmlns="http://www.w3.org/2000/svg">
<path d="M0.0896425 20.4054C0.00781046 17.514 -0.0740215 14.6226 0.11692 11.7312C0.307861 8.67611 0.662466 5.64833 1.20801 2.64782C1.39895 1.63856 1.75356 0.465636 2.95376 0.465636C3.36292 0.465636 3.79936 0.602023 4.01758 0.956629C4.45402 1.55673 4.2358 2.53871 4.20852 3.24792C4.18124 4.20263 4.18124 5.15734 4.18124 6.11204C4.18124 7.25769 4.20852 8.37606 4.26307 9.52171C6.2816 6.54848 8.84567 3.98441 11.2733 1.33851C11.7643 0.792963 12.3917 0.356527 12.91 0.356527C13.0737 0.356527 13.21 0.383804 13.3464 0.492913C13.7556 0.847519 13.5919 1.63856 13.2373 2.10228C11.3552 4.36629 7.31814 9.27621 6.30887 11.813C5.95427 12.7404 6.0361 15.4682 7.97279 17.4594C9.33666 18.8778 10.646 19.8325 12.3917 20.6781C13.3464 21.1691 13.4828 22.4239 12.6918 22.9967C12.3099 23.2968 11.8735 23.4059 11.4097 23.4059C9.33666 23.4059 5.95427 20.6781 4.67223 19.287C4.69951 20.078 4.72679 20.1326 4.75407 20.9236C4.8359 22.3693 3.85391 23.515 2.59916 23.5423C0.798853 23.5968 0.144197 22.3421 0.0896425 20.4054Z" fill="#1BE6E4"/>
<path d="M15.5525 14.5407C14.7614 14.4862 14.2977 13.7224 15.3343 13.2587C15.7434 13.0678 16.1799 12.9314 16.6709 12.8495C16.7527 12.3858 16.8618 11.9221 16.9436 11.4584C17.5164 8.83978 18.7439 4.06624 19.6714 1.88406C20.3533 0.22014 20.8988 -0.0253557 21.3353 0.00192128C21.9081 0.0564752 22.3991 0.492913 23.1356 1.99317C23.6266 3.00243 24.063 4.09352 24.6086 5.78472C25.1814 7.55774 25.7269 9.38532 26.2179 11.1583C26.2725 11.4311 26.3543 11.7312 26.4089 12.0039C26.9271 12.0039 27.7727 12.2767 27.7454 12.9041C27.7454 13.3951 27.2545 13.6679 26.7907 13.7497C27.3363 16.4774 27.5818 18.2232 27.7182 20.9782C27.7727 21.9875 27.1999 23.4331 25.5087 23.515C23.6811 23.5695 23.1356 22.0147 23.0265 19.5052C22.9992 18.2777 22.8083 16.5593 22.6173 13.8588C21.3353 13.9679 20.0532 14.077 18.7712 14.2407C18.6075 15.2499 18.4439 16.2319 18.3075 17.2139C18.0893 18.6323 17.8438 20.3781 17.6528 21.1146C17.3255 22.6421 16.589 23.2149 16.0435 23.2149C15.7434 23.2149 15.4706 23.024 15.3888 22.7239C15.2524 22.2057 15.3615 20.6509 15.4706 19.8053C15.7434 18.0322 16.0162 16.2865 16.3435 14.5407C16.1799 14.5407 15.6889 14.5407 15.5525 14.5407ZM19.2895 11.513C19.2076 11.8676 19.1531 12.2222 19.0713 12.604C20.2169 12.4404 21.3626 12.3313 22.5082 12.2494C22.4809 11.9494 22.4536 11.6493 22.4264 11.3493C22.3173 9.60354 21.9627 7.91235 21.7444 6.19388C21.6899 5.75744 21.4444 4.7209 21.2262 3.65708C20.4897 6.24843 19.835 8.86705 19.2895 11.513Z" fill="#1BE6E4"/>
<path d="M30.0048 18.4414C29.9502 17.2412 29.8684 14.2134 30.3867 10.3946C30.6322 8.70339 30.8231 7.0122 31.1777 5.34828C31.505 3.8753 31.6414 2.10228 32.3779 0.792963C32.5688 0.465636 33.0598 0.274694 33.5236 0.274694C33.9873 0.274694 34.451 0.492913 34.5328 0.983906C34.6146 1.72039 34.451 2.56599 34.3691 3.30248C34.2328 4.52996 34.1509 5.75744 34.0691 6.98492C35.2147 4.03897 37.1787 0.711133 40.7793 0.711133C41.434 0.711133 42.0886 0.847519 42.7433 1.12029C46.153 2.53871 45.8802 6.38482 45.2528 9.46716C44.4072 13.5588 41.4885 16.7502 37.206 16.7502C36.7696 16.7502 36.3331 16.6956 35.924 16.6411C36.8241 18.4141 38.1061 19.587 40.1519 19.587C40.9157 19.587 41.7068 19.4507 42.3069 19.287C42.9615 19.1233 43.4798 19.0142 43.8889 19.0142C44.5709 19.0142 44.9255 19.287 45.1437 19.9417C45.6074 21.1964 44.4072 22.3148 43.5343 22.5876C42.9342 22.7785 42.2796 22.8603 41.6249 22.8603C40.8612 22.8603 40.0701 22.7512 39.3336 22.5603C37.4242 22.042 35.2147 19.9689 34.2873 18.2505C34.3964 19.4779 34.4237 20.1326 34.5055 20.5963C34.751 22.4239 34.2055 23.4604 33.0053 23.815C31.2868 24.2787 30.223 22.8058 30.0048 18.4414ZM39.8792 2.45688C37.2605 3.22065 35.2147 10.0127 34.7238 12.304C34.942 12.5222 35.1875 12.7132 35.4602 12.9041C35.7057 13.0678 36.6604 13.5588 37.3424 13.4769C38.0516 13.3678 38.7062 12.9587 39.0608 12.5222C40.9703 10.34 41.734 6.71214 41.4613 4.31174C41.3521 3.41159 41.2158 2.075 39.8792 2.45688Z" fill="#1BE6E4"/>
<path d="M48.1841 14.5407C47.393 14.4862 46.9293 13.7224 47.9658 13.2587C48.375 13.0678 48.8114 12.9314 49.3024 12.8495C49.3843 12.3858 49.4934 11.9221 49.5752 11.4584C50.148 8.83978 51.3755 4.06624 52.3029 1.88406C52.9849 0.22014 53.5304 -0.0253557 53.9668 0.00192128C54.5397 0.0564752 55.0307 0.492913 55.7672 1.99317C56.2581 3.00243 56.6946 4.09352 57.2401 5.78472C57.8129 7.55774 58.3585 9.38532 58.8495 11.1583C58.904 11.4311 58.9859 11.7312 59.0404 12.0039C59.5587 12.0039 60.4043 12.2767 60.377 12.9041C60.377 13.3951 59.886 13.6679 59.4223 13.7497C59.9679 16.4774 60.2134 18.2232 60.3497 20.9782C60.4043 21.9875 59.8315 23.4331 58.1403 23.515C56.3127 23.5695 55.7672 22.0147 55.658 19.5052C55.6308 18.2777 55.4398 16.5593 55.2489 13.8588C53.9668 13.9679 52.6848 14.077 51.4028 14.2407C51.2391 15.2499 51.0755 16.2319 50.9391 17.2139C50.7208 18.6323 50.4753 20.3781 50.2844 21.1146C49.9571 22.6421 49.2206 23.2149 48.675 23.2149C48.375 23.2149 48.1022 23.024 48.0204 22.7239C47.884 22.2057 47.9931 20.6509 48.1022 19.8053C48.375 18.0322 48.6478 16.2865 48.9751 14.5407C48.8114 14.5407 48.3204 14.5407 48.1841 14.5407ZM51.921 11.513C51.8392 11.8676 51.7847 12.2222 51.7028 12.604C52.8485 12.4404 53.9941 12.3313 55.1398 12.2494C55.1125 11.9494 55.0852 11.6493 55.0579 11.3493C54.9488 9.60354 54.5942 7.91235 54.376 6.19388C54.3215 5.75744 54.076 4.7209 53.8577 3.65708C53.1212 6.24843 52.4666 8.86705 51.921 11.513Z" fill="#1BE6E4"/>
<path d="M62.1556 20.3781C62.0737 16.9684 62.3738 7.93962 62.5647 6.24843C62.8921 3.65708 64.2287 0.765686 67.2292 0.765686C69.1659 0.765686 70.3388 2.10228 71.1026 3.79347C71.6754 5.13006 72.1936 6.49393 72.7119 7.85779C73.0938 6.90309 73.503 5.9211 73.9121 4.99367C74.5395 3.57525 75.1669 1.63856 76.6671 0.92935C77.1308 0.711133 77.6218 0.602023 78.1401 0.602023C81.9862 0.602023 82.9136 5.53922 83.1046 8.48517C83.3773 12.9587 83.1046 16.6956 83.1046 21.1964C83.1046 22.5876 82.1226 23.5423 80.786 23.5423C79.3949 23.5423 78.4402 22.6148 78.4402 21.1964C78.4402 19.0961 78.4947 17.7595 78.4947 15.6591C78.522 13.6406 78.522 11.6221 78.4674 9.57626C78.4402 7.93962 78.3038 3.16609 77.7309 3.11154C76.8581 3.00243 76.1761 5.48467 75.6033 6.79398C75.0305 8.13057 74.5395 9.52171 73.9667 10.8856C73.8303 11.2129 73.3938 11.8948 72.9301 11.8948C72.2482 11.8948 71.9754 11.0765 71.839 10.7765C71.048 8.75795 70.4479 6.95764 69.575 5.13006C69.1113 4.14808 69.0022 3.57525 68.2384 3.57525C67.7747 3.57525 67.4474 4.36629 67.4201 4.99367C67.2837 7.9669 67.1746 17.5685 67.1746 20.3781C67.2019 21.3874 66.5472 23.2422 64.6924 23.2422C62.5102 23.2422 62.1829 21.3874 62.1556 20.3781Z" fill="#1BE6E4"/>
<path d="M84.8518 19.8871C84.7427 18.3323 84.7973 14.8135 85.07 11.322C85.2064 9.35805 85.8884 2.34777 86.8158 0.902073C86.9522 0.683854 87.3613 0.192862 87.825 0.165585C88.4524 0.111031 88.807 0.52019 88.9707 0.983906C89.1344 1.4749 89.1616 2.02044 89.1344 2.56599C90.1163 1.14757 91.5893 0.247417 93.3351 0.247417C94.9444 0.247417 96.5265 1.03846 97.4267 2.53871C99.3906 5.78472 98.1632 10.3673 95.2718 12.6313C98.1359 13.286 100.618 15.4954 99.6907 19.2052C98.9269 22.2602 95.8173 23.6241 92.8986 23.6241C91.9166 23.6241 90.9347 23.4877 90.0891 23.1331C89.7617 23.024 89.489 22.8603 89.2162 22.7239C88.6979 23.1331 87.825 23.324 87.3068 23.324C86.3793 23.324 85.0973 22.9149 84.8518 19.8871ZM90.2527 5.34828C89.3799 7.55774 89.1344 10.3946 88.998 12.795C89.0798 15.3863 89.2707 17.9777 89.489 20.5418C90.1709 20.9236 90.6346 21.1419 91.4529 21.1419C93.2805 21.1419 95.4354 19.9417 95.7627 17.9504C95.9537 16.9411 95.79 15.8228 95.299 14.9499C94.6171 13.8043 92.9532 13.9679 91.9166 14.0497C91.071 14.1043 89.789 13.8588 89.4344 12.9859C89.0525 12.0585 90.1436 11.3493 90.9619 11.2402C91.4529 11.1856 91.5075 11.1856 91.9439 10.8583C92.2712 10.6401 92.5713 10.2855 92.8441 9.93087C93.4169 9.08527 93.7715 7.99418 93.9079 6.98492C94.0716 5.9211 94.1534 4.74818 93.8533 3.73892C93.5806 2.81149 93.1987 2.45688 92.7622 2.45688C91.8075 2.45688 90.6346 4.39357 90.2527 5.34828Z" fill="#1BE6E4"/>
<path d="M101.806 14.5407C101.015 14.4862 100.552 13.7224 101.588 13.2587C101.997 13.0678 102.434 12.9314 102.925 12.8495C103.007 12.3858 103.116 11.9221 103.198 11.4584C103.77 8.83978 104.998 4.06624 105.925 1.88406C106.607 0.22014 107.153 -0.0253557 107.589 0.00192128C108.162 0.0564752 108.653 0.492913 109.389 1.99317C109.88 3.00243 110.317 4.09352 110.862 5.78472C111.435 7.55774 111.981 9.38532 112.472 11.1583C112.526 11.4311 112.608 11.7312 112.663 12.0039C113.181 12.0039 114.027 12.2767 113.999 12.9041C113.999 13.3951 113.508 13.6679 113.045 13.7497C113.59 16.4774 113.836 18.2232 113.972 20.9782C114.027 21.9875 113.454 23.4331 111.763 23.515C109.935 23.5695 109.389 22.0147 109.28 19.5052C109.253 18.2777 109.062 16.5593 108.871 13.8588C107.589 13.9679 106.307 14.077 105.025 14.2407C104.861 15.2499 104.698 16.2319 104.561 17.2139C104.343 18.6323 104.098 20.3781 103.907 21.1146C103.579 22.6421 102.843 23.2149 102.297 23.2149C101.997 23.2149 101.725 23.024 101.643 22.7239C101.506 22.2057 101.615 20.6509 101.725 19.8053C101.997 18.0322 102.27 16.2865 102.597 14.5407C102.434 14.5407 101.943 14.5407 101.806 14.5407ZM105.543 11.513C105.462 11.8676 105.407 12.2222 105.325 12.604C106.471 12.4404 107.616 12.3313 108.762 12.2494C108.735 11.9494 108.708 11.6493 108.68 11.3493C108.571 9.60354 108.217 7.91235 107.998 6.19388C107.944 5.75744 107.698 4.7209 107.48 3.65708C106.744 6.24843 106.089 8.86705 105.543 11.513Z" fill="#1BE6E4"/>
</svg>
