<svg width="93" height="48" viewBox="0 0 93 48" fill="none" xmlns="http://www.w3.org/2000/svg">
<g id="Vector">
<path d="M23.6557 0.490952C19.4855 0.458054 14.9058 2.66225 13.8067 8.60625C15.4877 5.12114 21.2527 -1.657 28.7743 3.44544L27.3411 3.92724C21.4144 0.850713 18.1816 8.97768 23.451 11.4291C28.5049 13.7851 27.9661 16.2684 22.2764 13.5941C32.1794 20.906 14.5394 33.9805 14.5394 33.9805C18.1385 33.1845 21.9855 31.3698 26.4143 27.1143L25.4661 29.8629C33.4078 25.9681 32.9014 16.7778 32.9014 16.7778L33.6449 20.3966C38.1169 8.28788 21.4252 9.08381 24.7657 4.94179C30.4337 8.19236 38.1384 7.49195 38.1384 7.49195L30.1643 2.91907C28.8389 1.4535 26.3281 0.512177 23.6557 0.490952ZM17.8799 14.4643C10.8756 14.39 -0.872132 22.4873 0.051354 41.4728C0.051354 41.4728 3.53732 38.3103 6.54377 31.7943L5.29378 37.8115C27.2872 23.315 25.1105 14.5386 17.8799 14.4643ZM18.9683 34.3413C18.3756 34.6172 17.7722 34.8613 17.1579 35.0948L16.9532 41.0695H16.9748C17.4597 43.0647 18.0523 45.1129 18.2786 47.2247H19.9273C19.2161 45.1129 18.6342 43.1814 18.1816 40.9634C18.1816 40.9634 18.839 35.4131 18.9683 34.3413ZM14.0437 36.1454C13.4618 36.3258 12.9015 36.4744 12.3627 36.6123C12.8261 40.1569 13.2032 43.9455 13.2032 47.2247H14.7226C14.1515 43.2982 14.0976 40.0614 14.0437 36.1454Z" fill="#88AAE0"/>
<path d="M23.6557 0.490952C19.4855 0.458054 14.9058 2.66225 13.8067 8.60625C15.4877 5.12114 21.2527 -1.657 28.7743 3.44544L27.3411 3.92724C21.4144 0.850713 18.1816 8.97768 23.451 11.4291C28.5049 13.7851 27.9661 16.2684 22.2764 13.5941C32.1794 20.906 14.5394 33.9805 14.5394 33.9805C18.1385 33.1845 21.9855 31.3698 26.4143 27.1143L25.4661 29.8629C33.4078 25.9681 32.9014 16.7778 32.9014 16.7778L33.6449 20.3966C38.1169 8.28788 21.4252 9.08381 24.7657 4.94179C30.4337 8.19236 38.1384 7.49195 38.1384 7.49195L30.1643 2.91907C28.8389 1.4535 26.3281 0.512177 23.6557 0.490952ZM17.8799 14.4643C10.8756 14.39 -0.872132 22.4873 0.051354 41.4728C0.051354 41.4728 3.53732 38.3103 6.54377 31.7943L5.29378 37.8115C27.2872 23.315 25.1105 14.5386 17.8799 14.4643ZM18.9683 34.3413C18.3756 34.6172 17.7722 34.8613 17.1579 35.0948L16.9532 41.0695H16.9748C17.4597 43.0647 18.0523 45.1129 18.2786 47.2247H19.9273C19.2161 45.1129 18.6342 43.1814 18.1816 40.9634C18.1816 40.9634 18.839 35.4131 18.9683 34.3413ZM14.0437 36.1454C13.4618 36.3258 12.9015 36.4744 12.3627 36.6123C12.8261 40.1569 13.2032 43.9455 13.2032 47.2247H14.7226C14.1515 43.2982 14.0976 40.0614 14.0437 36.1454Z" fill="#88AAE0"/>
<path d="M49.0001 5.32912H51.2793V9.64099C50.6941 10.0762 50.0165 10.4102 49.2465 10.6431C48.4765 10.8759 47.7014 10.9923 46.9212 10.9923C45.8021 10.9923 44.796 10.7594 43.9028 10.2938C43.0096 9.81812 42.3064 9.16527 41.793 8.33528C41.29 7.49518 41.0384 6.54879 41.0384 5.49613C41.0384 4.44346 41.29 3.50214 41.793 2.67215C42.3064 1.83204 43.0147 1.17919 43.9182 0.713585C44.8216 0.237862 45.838 0 46.9673 0C47.9119 0 48.7691 0.156887 49.5391 0.470662C50.3091 0.784437 50.9559 1.23992 51.4795 1.8371L49.8779 3.29464C49.1079 2.49502 48.1788 2.09521 47.0905 2.09521C46.4027 2.09521 45.7918 2.23691 45.258 2.52032C44.7241 2.80373 44.3083 3.20354 44.0106 3.71975C43.7129 4.23596 43.564 4.82809 43.564 5.49613C43.564 6.15404 43.7129 6.7411 44.0106 7.25731C44.3083 7.77353 44.719 8.1784 45.2426 8.47193C45.7764 8.75534 46.3822 8.89704 47.0597 8.89704C47.7784 8.89704 48.4252 8.74522 49.0001 8.44156V5.32912Z" fill="white"/>
<path d="M59.695 10.8101L57.616 7.84944H55.3215V10.8101H52.8267V0.182191H57.4928C58.4476 0.182191 59.2741 0.339079 59.9722 0.652854C60.6806 0.96663 61.2247 1.41199 61.6046 1.98893C61.9844 2.56587 62.1743 3.24909 62.1743 4.03859C62.1743 4.82809 61.9793 5.51131 61.5892 6.08825C61.2093 6.65507 60.6652 7.0903 59.9568 7.39396L62.3745 10.8101H59.695ZM59.6488 4.03859C59.6488 3.4414 59.4537 2.98592 59.0636 2.67215C58.6735 2.34825 58.1037 2.1863 57.3542 2.1863H55.3215V5.89087H57.3542C58.1037 5.89087 58.6735 5.72893 59.0636 5.40503C59.4537 5.08113 59.6488 4.62565 59.6488 4.03859Z" fill="white"/>
<path d="M71.7276 8.83631V10.8101H63.3809V0.182191H71.5274V2.15594H65.8603V4.4637H70.8652V6.37672H65.8603V8.83631H71.7276Z" fill="white"/>
<path d="M80.0419 8.53266H75.037L74.0822 10.8101H71.5258L76.3306 0.182191H78.7945L83.6146 10.8101H80.9967L80.0419 8.53266ZM79.2565 6.66519L77.5471 2.59624L75.8378 6.66519H79.2565Z" fill="white"/>
<path d="M85.6546 2.1863H82.2051V0.182191H91.5989V2.1863H88.1494V10.8101H85.6546V2.1863Z" fill="white"/>
<path d="M54.6981 23.7874C55.3141 23.9798 55.7966 24.3037 56.1457 24.7591C56.4947 25.2045 56.6692 25.7561 56.6692 26.414C56.6692 27.3452 56.2997 28.0639 55.5605 28.57C54.8315 29.066 53.7638 29.3139 52.3573 29.3139H46.7826V18.6861H52.0493C53.3634 18.6861 54.3695 18.934 55.0677 19.43C55.7761 19.926 56.1303 20.5991 56.1303 21.4493C56.1303 21.9655 56.0019 22.4261 55.7453 22.8309C55.4989 23.2358 55.1498 23.5546 54.6981 23.7874ZM49.262 20.5384V23.0435H51.7413C52.3573 23.0435 52.8244 22.9372 53.1427 22.7247C53.461 22.5121 53.6201 22.1983 53.6201 21.7833C53.6201 21.3683 53.461 21.0596 53.1427 20.8572C52.8244 20.6446 52.3573 20.5384 51.7413 20.5384H49.262ZM52.1725 27.4616C52.8296 27.4616 53.3224 27.3554 53.6509 27.1428C53.9897 26.9303 54.1591 26.6013 54.1591 26.1559C54.1591 25.2753 53.4969 24.835 52.1725 24.835H49.262V27.4616H52.1725Z" fill="white"/>
<path d="M57.788 18.6861H60.2828V27.3098H65.6881V29.3139H57.788V18.6861Z" fill="white"/>
<path d="M70.966 29.4961C69.426 29.4961 68.2248 29.0761 67.3624 28.236C66.5103 27.3959 66.0843 26.1964 66.0843 24.6377V18.6861H68.579V24.5466C68.579 26.4495 69.3798 27.4009 70.9814 27.4009C71.7616 27.4009 72.3571 27.1732 72.7677 26.7177C73.1784 26.2521 73.3837 25.5284 73.3837 24.5466V18.6861H75.8477V24.6377C75.8477 26.1964 75.4165 27.3959 74.5541 28.236C73.702 29.0761 72.506 29.4961 70.966 29.4961Z" fill="white"/>
<path d="M85.8897 27.3402V29.3139H77.543V18.6861H85.6895V20.6598H80.0224V22.9676H85.0273V24.8806H80.0224V27.3402H85.8897Z" fill="white"/>
<path d="M48.9934 37.1899V47.8178H46.4987V43.4604H41.6016V47.8178H39.1068V37.1899H41.6016V41.3804H46.4987V37.1899H48.9934Z" fill="white"/>
<path d="M59.1206 45.8441V47.8178H50.7739V37.1899H58.9204V39.1637H53.2533V41.4715H58.2582V43.3845H53.2533V45.8441H59.1206Z" fill="white"/>
<path d="M67.2039 47.8178L65.1249 44.8572H62.8303V47.8178H60.3356V37.1899H65.0017C65.9565 37.1899 66.7829 37.3468 67.4811 37.6606C68.1895 37.9744 68.7336 38.4197 69.1134 38.9967C69.4933 39.5736 69.6832 40.2568 69.6832 41.0463C69.6832 41.8358 69.4882 42.5191 69.098 43.096C68.7182 43.6628 68.174 44.0981 67.4657 44.4017L69.8834 47.8178H67.2039ZM67.1577 41.0463C67.1577 40.4492 66.9626 39.9937 66.5725 39.6799C66.1824 39.356 65.6126 39.1941 64.8631 39.1941H62.8303V42.8986H64.8631C65.6126 42.8986 66.1824 42.7367 66.5725 42.4128C66.9626 42.0889 67.1577 41.6334 67.1577 41.0463Z" fill="white"/>
<path d="M76.1103 48C74.9913 48 73.98 47.7621 73.0766 47.2864C72.1834 46.8107 71.4801 46.1578 70.9668 45.3279C70.4638 44.4877 70.2122 43.5464 70.2122 42.5039C70.2122 41.4613 70.4638 40.5251 70.9668 39.6951C71.4801 38.855 72.1834 38.1971 73.0766 37.7213C73.98 37.2456 74.9913 37.0078 76.1103 37.0078C77.2294 37.0078 78.2355 37.2456 79.1287 37.7213C80.0219 38.1971 80.7251 38.855 81.2384 39.6951C81.7518 40.5251 82.0084 41.4613 82.0084 42.5039C82.0084 43.5464 81.7518 44.4877 81.2384 45.3279C80.7251 46.1578 80.0219 46.8107 79.1287 47.2864C78.2355 47.7621 77.2294 48 76.1103 48ZM76.1103 45.9048C76.7468 45.9048 77.3218 45.7631 77.8351 45.4797C78.3484 45.1861 78.7488 44.7813 79.0363 44.2651C79.334 43.7489 79.4829 43.1618 79.4829 42.5039C79.4829 41.846 79.334 41.2589 79.0363 40.7427C78.7488 40.2265 78.3484 39.8267 77.8351 39.5433C77.3218 39.2497 76.7468 39.103 76.1103 39.103C75.4738 39.103 74.8989 39.2497 74.3856 39.5433C73.8722 39.8267 73.4667 40.2265 73.169 40.7427C72.8815 41.2589 72.7378 41.846 72.7378 42.5039C72.7378 43.1618 72.8815 43.7489 73.169 44.2651C73.4667 44.7813 73.8722 45.1861 74.3856 45.4797C74.8989 45.7631 75.4738 45.9048 76.1103 45.9048Z" fill="white"/>
<path d="M93 37.1899V47.8178H90.9518L85.5773 41.3652V47.8178H83.1134V37.1899H85.1769L90.536 43.6426V37.1899H93Z" fill="white"/>
<path d="M49.0001 5.32912H51.2793V9.64099C50.6941 10.0762 50.0165 10.4102 49.2465 10.6431C48.4765 10.8759 47.7014 10.9923 46.9212 10.9923C45.8021 10.9923 44.796 10.7594 43.9028 10.2938C43.0096 9.81812 42.3064 9.16527 41.793 8.33528C41.29 7.49518 41.0384 6.54879 41.0384 5.49613C41.0384 4.44346 41.29 3.50214 41.793 2.67215C42.3064 1.83204 43.0147 1.17919 43.9182 0.713585C44.8216 0.237862 45.838 0 46.9673 0C47.9119 0 48.7691 0.156887 49.5391 0.470662C50.3091 0.784437 50.9559 1.23992 51.4795 1.8371L49.8779 3.29464C49.1079 2.49502 48.1788 2.09521 47.0905 2.09521C46.4027 2.09521 45.7918 2.23691 45.258 2.52032C44.7241 2.80373 44.3083 3.20354 44.0106 3.71975C43.7129 4.23596 43.564 4.82809 43.564 5.49613C43.564 6.15404 43.7129 6.7411 44.0106 7.25731C44.3083 7.77353 44.719 8.1784 45.2426 8.47193C45.7764 8.75534 46.3822 8.89704 47.0597 8.89704C47.7784 8.89704 48.4252 8.74522 49.0001 8.44156V5.32912Z" fill="white"/>
<path d="M59.695 10.8101L57.616 7.84944H55.3215V10.8101H52.8267V0.182191H57.4928C58.4476 0.182191 59.2741 0.339079 59.9722 0.652854C60.6806 0.96663 61.2247 1.41199 61.6046 1.98893C61.9844 2.56587 62.1743 3.24909 62.1743 4.03859C62.1743 4.82809 61.9793 5.51131 61.5892 6.08825C61.2093 6.65507 60.6652 7.0903 59.9568 7.39396L62.3745 10.8101H59.695ZM59.6488 4.03859C59.6488 3.4414 59.4537 2.98592 59.0636 2.67215C58.6735 2.34825 58.1037 2.1863 57.3542 2.1863H55.3215V5.89087H57.3542C58.1037 5.89087 58.6735 5.72893 59.0636 5.40503C59.4537 5.08113 59.6488 4.62565 59.6488 4.03859Z" fill="white"/>
<path d="M71.7276 8.83631V10.8101H63.3809V0.182191H71.5274V2.15594H65.8603V4.4637H70.8652V6.37672H65.8603V8.83631H71.7276Z" fill="white"/>
<path d="M80.0419 8.53266H75.037L74.0822 10.8101H71.5258L76.3306 0.182191H78.7945L83.6146 10.8101H80.9967L80.0419 8.53266ZM79.2565 6.66519L77.5471 2.59624L75.8378 6.66519H79.2565Z" fill="white"/>
<path d="M85.6546 2.1863H82.2051V0.182191H91.5989V2.1863H88.1494V10.8101H85.6546V2.1863Z" fill="white"/>
<path d="M54.6981 23.7874C55.3141 23.9798 55.7966 24.3037 56.1457 24.7591C56.4947 25.2045 56.6692 25.7561 56.6692 26.414C56.6692 27.3452 56.2997 28.0639 55.5605 28.57C54.8315 29.066 53.7638 29.3139 52.3573 29.3139H46.7826V18.6861H52.0493C53.3634 18.6861 54.3695 18.934 55.0677 19.43C55.7761 19.926 56.1303 20.5991 56.1303 21.4493C56.1303 21.9655 56.0019 22.4261 55.7453 22.8309C55.4989 23.2358 55.1498 23.5546 54.6981 23.7874ZM49.262 20.5384V23.0435H51.7413C52.3573 23.0435 52.8244 22.9372 53.1427 22.7247C53.461 22.5121 53.6201 22.1983 53.6201 21.7833C53.6201 21.3683 53.461 21.0596 53.1427 20.8572C52.8244 20.6446 52.3573 20.5384 51.7413 20.5384H49.262ZM52.1725 27.4616C52.8296 27.4616 53.3224 27.3554 53.6509 27.1428C53.9897 26.9303 54.1591 26.6013 54.1591 26.1559C54.1591 25.2753 53.4969 24.835 52.1725 24.835H49.262V27.4616H52.1725Z" fill="white"/>
<path d="M57.788 18.6861H60.2828V27.3098H65.6881V29.3139H57.788V18.6861Z" fill="white"/>
<path d="M70.966 29.4961C69.426 29.4961 68.2248 29.0761 67.3624 28.236C66.5103 27.3959 66.0843 26.1964 66.0843 24.6377V18.6861H68.579V24.5466C68.579 26.4495 69.3798 27.4009 70.9814 27.4009C71.7616 27.4009 72.3571 27.1732 72.7677 26.7177C73.1784 26.2521 73.3837 25.5284 73.3837 24.5466V18.6861H75.8477V24.6377C75.8477 26.1964 75.4165 27.3959 74.5541 28.236C73.702 29.0761 72.506 29.4961 70.966 29.4961Z" fill="white"/>
<path d="M85.8897 27.3402V29.3139H77.543V18.6861H85.6895V20.6598H80.0224V22.9676H85.0273V24.8806H80.0224V27.3402H85.8897Z" fill="white"/>
<path d="M48.9934 37.1899V47.8178H46.4987V43.4604H41.6016V47.8178H39.1068V37.1899H41.6016V41.3804H46.4987V37.1899H48.9934Z" fill="white"/>
<path d="M59.1206 45.8441V47.8178H50.7739V37.1899H58.9204V39.1637H53.2533V41.4715H58.2582V43.3845H53.2533V45.8441H59.1206Z" fill="white"/>
<path d="M67.2039 47.8178L65.1249 44.8572H62.8303V47.8178H60.3356V37.1899H65.0017C65.9565 37.1899 66.7829 37.3468 67.4811 37.6606C68.1895 37.9744 68.7336 38.4197 69.1134 38.9967C69.4933 39.5736 69.6832 40.2568 69.6832 41.0463C69.6832 41.8358 69.4882 42.5191 69.098 43.096C68.7182 43.6628 68.174 44.0981 67.4657 44.4017L69.8834 47.8178H67.2039ZM67.1577 41.0463C67.1577 40.4492 66.9626 39.9937 66.5725 39.6799C66.1824 39.356 65.6126 39.1941 64.8631 39.1941H62.8303V42.8986H64.8631C65.6126 42.8986 66.1824 42.7367 66.5725 42.4128C66.9626 42.0889 67.1577 41.6334 67.1577 41.0463Z" fill="white"/>
<path d="M76.1103 48C74.9913 48 73.98 47.7621 73.0766 47.2864C72.1834 46.8107 71.4801 46.1578 70.9668 45.3279C70.4638 44.4877 70.2122 43.5464 70.2122 42.5039C70.2122 41.4613 70.4638 40.5251 70.9668 39.6951C71.4801 38.855 72.1834 38.1971 73.0766 37.7213C73.98 37.2456 74.9913 37.0078 76.1103 37.0078C77.2294 37.0078 78.2355 37.2456 79.1287 37.7213C80.0219 38.1971 80.7251 38.855 81.2384 39.6951C81.7518 40.5251 82.0084 41.4613 82.0084 42.5039C82.0084 43.5464 81.7518 44.4877 81.2384 45.3279C80.7251 46.1578 80.0219 46.8107 79.1287 47.2864C78.2355 47.7621 77.2294 48 76.1103 48ZM76.1103 45.9048C76.7468 45.9048 77.3218 45.7631 77.8351 45.4797C78.3484 45.1861 78.7488 44.7813 79.0363 44.2651C79.334 43.7489 79.4829 43.1618 79.4829 42.5039C79.4829 41.846 79.334 41.2589 79.0363 40.7427C78.7488 40.2265 78.3484 39.8267 77.8351 39.5433C77.3218 39.2497 76.7468 39.103 76.1103 39.103C75.4738 39.103 74.8989 39.2497 74.3856 39.5433C73.8722 39.8267 73.4667 40.2265 73.169 40.7427C72.8815 41.2589 72.7378 41.846 72.7378 42.5039C72.7378 43.1618 72.8815 43.7489 73.169 44.2651C73.4667 44.7813 73.8722 45.1861 74.3856 45.4797C74.8989 45.7631 75.4738 45.9048 76.1103 45.9048Z" fill="white"/>
<path d="M93 37.1899V47.8178H90.9518L85.5773 41.3652V47.8178H83.1134V37.1899H85.1769L90.536 43.6426V37.1899H93Z" fill="white"/>
</g>
</svg>
