<svg width="133" height="25" viewBox="0 0 133 25" fill="none" xmlns="http://www.w3.org/2000/svg">
<path d="M0 18.574L3.08357 0H8.12611L5.73181 14.5109H13.2412L12.5519 18.574H0Z" fill="url(#paint0_linear_1194_46115)"/>
<path d="M24.7116 12.4794L26.0176 4.64349H31.0239L28.7021 18.574H23.9498L24.3851 15.9257H24.24C23.8107 16.8145 23.1698 17.5098 22.3173 18.0117C21.4709 18.5075 20.5277 18.7554 19.4877 18.7554C18.5143 18.7554 17.701 18.5316 17.0481 18.0842C16.3951 17.6368 15.9325 17.0201 15.6604 16.2341C15.3884 15.4481 15.334 14.5472 15.4972 13.5314L16.9846 4.64349H21.9908L20.6849 12.4794C20.5821 13.1687 20.6697 13.7098 20.9479 14.1028C21.232 14.4958 21.6885 14.6923 22.3173 14.6923C22.7345 14.6923 23.1094 14.6046 23.4419 14.4293C23.7805 14.2479 24.0586 13.994 24.2763 13.6675C24.5 13.3349 24.6451 12.9389 24.7116 12.4794Z" fill="url(#paint1_linear_1194_46115)"/>
<path d="M37.9234 18.8279C36.4118 18.8279 35.1663 18.5286 34.1868 17.93C33.2073 17.3254 32.5211 16.485 32.1281 15.4088C31.7351 14.3265 31.6595 13.0719 31.9013 11.645C32.1311 10.2181 32.6208 8.96654 33.3706 7.89031C34.1263 6.80804 35.0937 5.96761 36.2728 5.36904C37.4578 4.76442 38.8061 4.46211 40.3177 4.46211C41.6841 4.46211 42.8238 4.71 43.7368 5.20579C44.6558 5.69553 45.3118 6.39085 45.7048 7.29173C46.1039 8.18657 46.2067 9.23862 46.0132 10.4479H41.3697C41.4241 9.72231 41.3062 9.16606 41.016 8.7791C40.7318 8.39215 40.3177 8.19867 39.7735 8.19867C39.3261 8.19867 38.9149 8.32564 38.5401 8.57958C38.1713 8.82747 37.8538 9.20536 37.5878 9.71324C37.3278 10.2151 37.1374 10.8469 37.0164 11.6087C36.8955 12.3706 36.8804 13.0054 36.9711 13.5133C37.0678 14.0151 37.2553 14.393 37.5334 14.647C37.8176 14.8948 38.1773 15.0188 38.6126 15.0188C38.9875 15.0188 39.3321 14.9341 39.6465 14.7649C39.967 14.5895 40.2421 14.3356 40.4718 14.003C40.7076 13.6644 40.886 13.2533 41.0069 12.7696H45.6504C45.4207 14.003 44.9581 15.0732 44.2628 15.9801C43.5675 16.8871 42.6817 17.5884 41.6055 18.0842C40.5293 18.58 39.3019 18.8279 37.9234 18.8279Z" fill="url(#paint2_linear_1194_46115)"/>
<path d="M51.779 15.2727L52.7948 9.32326H53.4478L57.6197 4.64349H63.2426L56.3862 11.9352H54.9714L51.779 15.2727ZM46.7365 18.574L49.8201 0H54.8263L51.7427 18.574H46.7365ZM55.3342 18.574L53.0487 13.0598L56.9304 9.50465L61.066 18.574H55.3342Z" fill="url(#paint3_linear_1194_46115)"/>
<path d="M64.7935 23.7979C64.2131 23.7979 63.6719 23.7526 63.1701 23.6619C62.6683 23.5772 62.2299 23.4593 61.855 23.3082L63.5419 19.753C63.9289 19.8981 64.2856 19.9918 64.6121 20.0341C64.9447 20.0765 65.2379 20.0523 65.4918 19.9616C65.7458 19.8709 65.9544 19.6986 66.1176 19.4446L66.2809 19.1907L63.7959 4.64349H68.8384L69.4733 14.2933H69.6184L73.5182 4.64349H78.9598L71.3778 19.7348C70.9909 20.5027 70.5072 21.192 69.9267 21.8026C69.3523 22.4194 68.6449 22.9061 67.8045 23.2628C66.9641 23.6195 65.9604 23.7979 64.7935 23.7979Z" fill="url(#paint4_linear_1194_46115)"/>
<path d="M83.4786 24.0881C82.0759 24.0881 80.9089 23.8886 79.9778 23.4895C79.0527 23.0965 78.3695 22.5524 77.9281 21.8571C77.4928 21.1678 77.3114 20.3757 77.384 19.4809H82.2089C82.221 19.7832 82.3086 20.0251 82.4719 20.2064C82.6351 20.3878 82.8619 20.5178 83.1521 20.5964C83.4423 20.675 83.7809 20.7143 84.1678 20.7143C84.8208 20.7143 85.3861 20.5541 85.8638 20.2337C86.3415 19.9193 86.6347 19.3539 86.7435 18.5377L87.1426 16.1797H86.9975C86.7435 16.6513 86.4019 17.0533 85.9726 17.3859C85.5434 17.7124 85.0506 17.9633 84.4943 18.1386C83.9381 18.3079 83.3456 18.3926 82.7167 18.3926C81.7252 18.3926 80.8515 18.1628 80.0957 17.7033C79.346 17.2438 78.8018 16.5152 78.4632 15.5176C78.1307 14.52 78.0974 13.217 78.3635 11.6087C78.6416 9.92788 79.1313 8.56144 79.8327 7.5094C80.5341 6.45736 81.3412 5.68646 82.2542 5.19672C83.1672 4.70698 84.0832 4.46211 85.0022 4.46211C85.6915 4.46211 86.2749 4.58303 86.7526 4.82488C87.2302 5.06068 87.6112 5.37811 87.8953 5.77716C88.1795 6.17016 88.376 6.60247 88.4848 7.07407H88.5937L88.9927 4.64349H93.999L91.6772 18.5377C91.4958 19.7227 91.0333 20.7264 90.2896 21.5487C89.552 22.377 88.5967 23.0058 87.4237 23.4351C86.2568 23.8705 84.9418 24.0881 83.4786 24.0881ZM85.1473 14.8374C85.6068 14.8374 86.024 14.7104 86.3989 14.4565C86.7738 14.1965 87.0912 13.8277 87.3512 13.35C87.6112 12.8663 87.7956 12.2859 87.9044 11.6087C88.0132 10.9195 88.0193 10.33 87.9225 9.84021C87.8258 9.34442 87.6353 8.96654 87.3512 8.70655C87.067 8.44051 86.6952 8.3075 86.2356 8.3075C85.7761 8.3075 85.362 8.44051 84.9931 8.70655C84.6243 8.96654 84.313 9.34442 84.059 9.84021C83.8051 10.33 83.6237 10.9195 83.5148 11.6087C83.406 12.298 83.3969 12.8845 83.4876 13.3682C83.5783 13.8458 83.7627 14.2116 84.0409 14.4656C84.319 14.7135 84.6878 14.8374 85.1473 14.8374Z" fill="url(#paint5_linear_1194_46115)"/>
<path d="M100.862 18.8279C99.3748 18.8279 98.1414 18.5437 97.1619 17.9754C96.1824 17.401 95.4932 16.5787 95.0941 15.5085C94.6951 14.4323 94.6225 13.1445 94.8764 11.645C95.1183 10.206 95.6171 8.9484 96.3729 7.87217C97.1347 6.79594 98.093 5.95854 99.2479 5.35997C100.409 4.76139 101.709 4.46211 103.148 4.46211C104.2 4.46211 105.122 4.62535 105.914 4.95185C106.712 5.27835 107.362 5.75297 107.864 6.37573C108.366 6.99849 108.704 7.75125 108.879 8.63399C109.061 9.51069 109.061 10.5023 108.879 11.6087L108.698 12.7696H96.255L96.6903 10.0125H104.526C104.587 9.61348 104.547 9.2628 104.408 8.96049C104.275 8.65213 104.061 8.41331 103.764 8.24401C103.474 8.06867 103.123 7.981 102.712 7.981C102.301 7.981 101.914 8.06867 101.551 8.24401C101.195 8.41935 100.889 8.66422 100.635 8.97863C100.388 9.29303 100.221 9.66185 100.137 10.0851L99.5925 12.9873C99.5199 13.4347 99.5471 13.8337 99.6741 14.1844C99.8011 14.5351 100.022 14.8102 100.336 15.0097C100.651 15.2093 101.056 15.309 101.551 15.309C101.89 15.309 102.211 15.2637 102.513 15.173C102.821 15.0762 103.093 14.9372 103.329 14.7558C103.571 14.5684 103.764 14.3416 103.909 14.0756H108.48C108.154 15.043 107.637 15.8834 106.93 16.5969C106.228 17.3043 105.364 17.8545 104.336 18.2475C103.314 18.6344 102.156 18.8279 100.862 18.8279Z" fill="url(#paint6_linear_1194_46115)"/>
<path d="M109.798 18.574L112.119 4.64349H116.872L116.436 7.29173H116.582C117.011 6.42108 117.619 5.73181 118.405 5.22393C119.191 4.71605 120.07 4.46211 121.044 4.46211C122.017 4.46211 122.815 4.72209 123.438 5.24207C124.061 5.756 124.375 6.43922 124.381 7.29173H124.526C124.901 6.43922 125.515 5.756 126.367 5.24207C127.22 4.72209 128.166 4.46211 129.206 4.46211C130.53 4.46211 131.537 4.89139 132.226 5.74995C132.921 6.60851 133.148 7.75125 132.906 9.17815L131.346 18.574H126.34L127.719 10.4479C127.803 9.83719 127.719 9.35954 127.465 9.0149C127.211 8.66422 126.824 8.48888 126.304 8.48888C125.79 8.48888 125.355 8.66422 124.998 9.0149C124.647 9.35954 124.43 9.83719 124.345 10.4479L122.966 18.574H118.178L119.556 10.4479C119.641 9.83719 119.556 9.35954 119.302 9.0149C119.048 8.66422 118.661 8.48888 118.142 8.48888C117.803 8.48888 117.495 8.56748 117.216 8.72469C116.944 8.88189 116.718 9.10862 116.536 9.40489C116.361 9.6951 116.243 10.0428 116.183 10.4479L114.804 18.574H109.798Z" fill="url(#paint7_linear_1194_46115)"/>
<defs>
<linearGradient id="paint0_linear_1194_46115" x1="-0.223334" y1="9.27487" x2="133.858" y2="9.27487" gradientUnits="userSpaceOnUse">
<stop stop-color="#FF8A00"/>
<stop offset="1" stop-color="#EEFF00"/>
</linearGradient>
<linearGradient id="paint1_linear_1194_46115" x1="-0.223334" y1="9.27487" x2="133.858" y2="9.27487" gradientUnits="userSpaceOnUse">
<stop stop-color="#FF8A00"/>
<stop offset="1" stop-color="#EEFF00"/>
</linearGradient>
<linearGradient id="paint2_linear_1194_46115" x1="-0.223334" y1="9.27487" x2="133.858" y2="9.27487" gradientUnits="userSpaceOnUse">
<stop stop-color="#FF8A00"/>
<stop offset="1" stop-color="#EEFF00"/>
</linearGradient>
<linearGradient id="paint3_linear_1194_46115" x1="-0.223334" y1="9.27487" x2="133.858" y2="9.27487" gradientUnits="userSpaceOnUse">
<stop stop-color="#FF8A00"/>
<stop offset="1" stop-color="#EEFF00"/>
</linearGradient>
<linearGradient id="paint4_linear_1194_46115" x1="-0.223334" y1="9.27487" x2="133.858" y2="9.27487" gradientUnits="userSpaceOnUse">
<stop stop-color="#FF8A00"/>
<stop offset="1" stop-color="#EEFF00"/>
</linearGradient>
<linearGradient id="paint5_linear_1194_46115" x1="-0.223334" y1="9.27487" x2="133.858" y2="9.27487" gradientUnits="userSpaceOnUse">
<stop stop-color="#FF8A00"/>
<stop offset="1" stop-color="#EEFF00"/>
</linearGradient>
<linearGradient id="paint6_linear_1194_46115" x1="-0.223334" y1="9.27487" x2="133.858" y2="9.27487" gradientUnits="userSpaceOnUse">
<stop stop-color="#FF8A00"/>
<stop offset="1" stop-color="#EEFF00"/>
</linearGradient>
<linearGradient id="paint7_linear_1194_46115" x1="-0.223334" y1="9.27487" x2="133.858" y2="9.27487" gradientUnits="userSpaceOnUse">
<stop stop-color="#FF8A00"/>
<stop offset="1" stop-color="#EEFF00"/>
</linearGradient>
</defs>
</svg>
