<svg width="210" height="25" viewBox="0 0 210 25" fill="none" xmlns="http://www.w3.org/2000/svg">
<path d="M10.0748 24.5231C9.76689 24.5231 9.54076 24.4365 9.39643 24.2633C9.26171 24.0901 9.19435 23.7725 9.19435 23.3106V23.1086L9.20879 22.8921C9.21841 22.7285 9.29058 22.4254 9.42529 21.9827C9.56963 21.5401 9.74284 21.0349 9.94491 20.4672C10.1566 19.8994 10.3635 19.3413 10.5656 18.7929C10.7773 18.2347 10.9553 17.768 11.0996 17.3928C10.4453 18.0086 9.70916 18.6245 8.89124 19.2403C8.07332 19.8561 7.23135 20.3709 6.36532 20.7847C5.49929 21.1985 4.67175 21.4054 3.8827 21.4054C2.99743 21.4054 2.26611 21.1937 1.68876 20.7703C1.11141 20.3469 0.683201 19.808 0.404147 19.1537C0.134716 18.4994 0 17.8306 0 17.1474V16.9598L0.0144338 16.7865C0.0914143 15.5645 0.336789 14.3039 0.750559 13.0049C1.17395 11.7058 1.72244 10.426 2.39602 9.16548C3.07922 7.89531 3.84902 6.71173 4.70543 5.61476C5.34052 4.79684 6.01891 4.04628 6.7406 3.36308C7.46229 2.67026 8.20323 2.07366 8.96341 1.57329C9.72359 1.08254 10.4886 0.697635 11.2584 0.418581C12.0378 0.139527 12.8076 0 13.5678 0C14.4435 0 15.2902 0.202074 16.1082 0.606221C16.9261 1.01037 17.6911 1.6647 18.4031 2.56922C18.5667 2.7713 18.6678 2.97818 18.7062 3.18988C18.7544 3.39195 18.7784 3.5844 18.7784 3.76723C18.7784 4.20025 18.6533 4.54185 18.4031 4.79203C18.1626 5.04222 17.8739 5.16731 17.5371 5.16731C17.2292 5.16731 16.9405 5.0326 16.6711 4.76316C16.4113 4.48411 16.1178 4.08959 15.7906 3.57959C15.4827 3.11771 15.1411 2.78573 14.7658 2.58366C14.4002 2.37196 14.0008 2.26611 13.5678 2.26611C12.9038 2.26611 12.1918 2.49705 11.4316 2.95894C10.681 3.4112 9.92085 4.03185 9.15105 4.8209C8.39087 5.60995 7.66918 6.50004 6.98597 7.49116C6.29315 8.50153 5.67731 9.54076 5.13844 10.6089C4.59958 11.6673 4.17619 12.6922 3.86827 13.6833C3.56997 14.6744 3.42082 15.5741 3.42082 16.3824C3.42082 16.7384 3.46412 17.1041 3.55072 17.4794C3.63733 17.845 3.7961 18.153 4.02704 18.4031C4.25798 18.6533 4.58515 18.7784 5.00854 18.7784C5.53778 18.7784 6.16806 18.5667 6.89937 18.1433C7.63069 17.7103 8.362 17.1859 9.09331 16.57C9.82463 15.9542 10.4838 15.3239 11.0707 14.6792C11.6673 14.0345 12.0859 13.5004 12.3265 13.0771L13.6688 9.6851C13.8324 9.31944 14.0441 9.05964 14.3039 8.90567C14.5734 8.75171 14.8476 8.67473 15.1267 8.67473C15.4057 8.67473 15.6607 8.75171 15.8917 8.90567C16.1226 9.05964 16.2381 9.31944 16.2381 9.6851C16.2381 10.5992 16.0649 11.4316 15.7184 12.1822C15.3817 12.9231 15.0401 13.7121 14.6936 14.5493C14.6455 14.6167 14.5397 14.8668 14.3761 15.2999C14.2125 15.7233 14.0201 16.2429 13.7987 16.8587C13.5774 17.4649 13.3561 18.0808 13.1348 18.7062C12.6633 20.0149 12.3121 21.0205 12.0811 21.7229C11.8598 22.4254 11.7299 22.8151 11.6914 22.8921C11.5856 23.2385 11.3739 23.5945 11.0563 23.9602C10.7484 24.3354 10.4212 24.5231 10.0748 24.5231Z" fill="white"/>
<path d="M16.7288 21.1889C16.2477 21.1889 16.0071 20.9435 16.0071 20.4527C16.0071 20.3469 16.0216 20.217 16.0504 20.063C16.0889 19.8994 16.1611 19.7214 16.2669 19.529C16.4305 19.2211 16.6085 18.8602 16.801 18.4464C16.9934 18.023 17.1955 17.5852 17.4072 17.133C17.6381 16.6422 17.9028 16.0793 18.2011 15.4442C18.509 14.7995 18.8698 14.0586 19.2836 13.2214C19.1489 13.1059 19.0334 12.9664 18.9372 12.8028C18.8506 12.6296 18.8073 12.4179 18.8073 12.1677C18.8073 11.7155 18.9805 11.3835 19.3269 11.1718C19.6829 10.9505 20.1063 10.8398 20.5971 10.8398C21.0782 10.8398 21.5449 10.9264 21.9972 11.0996C22.459 11.2632 22.69 11.5134 22.69 11.8502C22.69 11.8887 22.6563 11.9801 22.5889 12.1244C22.5312 12.2591 22.5023 12.3505 22.5023 12.3987C22.5023 12.4179 22.5072 12.4275 22.5168 12.4275H22.5312L22.5601 12.4131C23.2722 11.9705 24.0371 11.5952 24.8551 11.2873C25.673 10.9793 26.3466 10.8254 26.8758 10.8254C27.3088 10.8254 27.6408 10.9312 27.8717 11.1429C28.1123 11.345 28.2326 11.6914 28.2326 12.1822C28.2326 12.288 28.2278 12.4035 28.2181 12.5286C28.2085 12.644 28.1893 12.7691 28.1604 12.9038C28.093 13.2599 27.8236 13.7218 27.3521 14.2895C26.8806 14.8572 26.3802 15.4057 25.851 15.935C25.6104 16.1755 25.3218 16.4642 24.985 16.801C24.6482 17.1281 24.3547 17.4313 24.1045 17.7103C23.8543 17.9797 23.7292 18.1626 23.7292 18.2588C23.7292 18.3935 23.7773 18.4609 23.8736 18.4609C24.5664 18.1626 25.3506 17.7969 26.2263 17.3639C27.1019 16.9213 27.9487 16.4786 28.7666 16.036C29.5845 15.5934 30.2533 15.2229 30.7729 14.9246C30.975 14.8091 31.1482 14.7514 31.2925 14.7514C31.6967 14.7514 31.8988 14.9631 31.8988 15.3865C31.8988 15.6078 31.8025 15.8628 31.6101 16.1515C31.4273 16.4305 31.1145 16.724 30.6719 17.0319C30.2581 17.2917 29.6904 17.6526 28.9687 18.1145C28.2566 18.5667 27.5494 18.9949 26.8469 19.3991C26.1541 19.7936 25.4901 20.1304 24.8551 20.4094C24.2296 20.6885 23.7052 20.828 23.2818 20.828C22.6178 20.828 22.1174 20.6692 21.7807 20.3517C21.4535 20.0342 21.2899 19.6252 21.2899 19.1248C21.2899 19.0382 21.2947 18.9805 21.3043 18.9516C21.4102 18.3358 21.6315 17.7392 21.9683 17.1618C22.3051 16.5845 22.6563 16.0552 23.022 15.5741C23.3876 15.1026 23.71 14.6648 23.989 14.2606C24.2777 13.8565 24.422 13.5101 24.422 13.2214C24.422 13.0771 24.3691 13.0049 24.2633 13.0049C24.1093 13.0049 23.8303 13.0819 23.4261 13.2358C23.022 13.3802 22.6226 13.5726 22.2281 13.8132C21.8336 14.0537 21.5641 14.3087 21.4198 14.5782C21.2274 14.915 20.982 15.3865 20.6837 15.9927C20.395 16.5893 20.1063 17.2003 19.8177 17.8258C19.5386 18.4513 19.3028 18.9709 19.1104 19.3846C18.8987 19.9139 18.5475 20.3469 18.0567 20.6837C17.5756 21.0205 17.133 21.1889 16.7288 21.1889Z" fill="white"/>
<path d="M31.9565 21.1889C31.6293 21.1889 31.2396 21.0975 30.7874 20.9146C30.3351 20.7318 29.9358 20.4287 29.5894 20.0053C29.2526 19.5819 29.0842 19.0142 29.0842 18.3021C29.0842 17.7055 29.2189 16.9598 29.4883 16.0649C29.7578 15.17 30.1811 14.2895 30.7585 13.4235C31.3359 12.5382 32.072 11.8021 32.9669 11.2151C33.8714 10.6281 34.9154 10.3346 36.099 10.3346C36.5224 10.3346 36.8929 10.3875 37.2104 10.4934C37.528 10.5992 37.7974 10.7147 38.0187 10.8398C38.1438 10.9168 38.2593 10.9986 38.3651 11.0852C38.4806 11.1622 38.5864 11.2488 38.6827 11.345L39.1879 11.0996C39.3322 11.0323 39.4813 10.9745 39.6353 10.9264C39.7989 10.8687 39.9384 10.8398 40.0539 10.8398C40.4195 10.8398 40.7178 10.9408 40.9488 11.1429C41.1797 11.345 41.2952 11.5663 41.2952 11.8069C41.2952 11.8839 41.2904 11.9368 41.2808 11.9656C41.2134 12.2351 41.0883 12.6055 40.9055 13.0771C40.7323 13.5486 40.5446 14.073 40.3426 14.6503C40.1405 15.2084 39.9673 15.7473 39.8229 16.2669C39.6882 16.7865 39.6209 17.2148 39.6209 17.5515C39.6209 17.8402 39.669 18.0808 39.7652 18.2732C39.8614 18.4561 40.025 18.5475 40.256 18.5475C40.535 18.5475 40.9103 18.3887 41.3818 18.0712C41.8533 17.744 42.3392 17.3591 42.8396 16.9165C43.109 16.6759 43.3881 16.4209 43.6768 16.1515C43.9655 15.8724 44.2589 15.5789 44.5572 15.271C44.7112 15.1459 44.8604 15.0834 45.0047 15.0834C45.1971 15.0834 45.3559 15.1796 45.481 15.372C45.6157 15.5549 45.6831 15.7617 45.6831 15.9927C45.6831 16.2621 45.5917 16.4882 45.4088 16.6711C45.0239 17.0271 44.6294 17.4072 44.2253 17.8113C43.8211 18.2155 43.263 18.7111 42.5509 19.298C41.9158 19.8177 41.2615 20.2651 40.5879 20.6404C39.9144 21.006 39.3081 21.1889 38.7693 21.1889C38.0957 21.1889 37.6049 20.9291 37.297 20.4094C36.9891 19.8802 36.8351 19.3173 36.8351 18.7207C36.8351 18.2877 36.8977 17.9028 37.0228 17.566C36.6283 18.0952 36.1616 18.6437 35.6227 19.2114C35.0838 19.7695 34.5017 20.241 33.8762 20.6259C33.2507 21.0012 32.6108 21.1889 31.9565 21.1889ZM33.1112 18.6485C33.4191 18.6485 33.804 18.4513 34.2659 18.0567C34.7374 17.6622 35.1897 17.2003 35.6227 16.6711C36.1038 16.0937 36.4839 15.5693 36.763 15.0978C37.042 14.6263 37.1816 14.3087 37.1816 14.1452C37.1816 13.7795 36.9699 13.4908 36.5465 13.2791C36.1231 13.0578 35.743 12.9471 35.4062 12.9471C34.8096 12.9471 34.2419 13.1396 33.703 13.5245C33.1738 13.9094 32.7407 14.405 32.404 15.0112C32.0672 15.6078 31.8988 16.2284 31.8988 16.8731C31.8988 17.2484 31.9661 17.6381 32.1008 18.0423C32.2452 18.4464 32.582 18.6485 33.1112 18.6485Z" fill="white"/>
<path d="M43.7201 21.1889C43.3833 21.1889 43.1187 21.083 42.9262 20.8713C42.7338 20.6596 42.6375 20.3998 42.6375 20.0919C42.6375 19.8417 42.7819 19.375 43.0706 18.6918C43.3592 17.999 43.696 17.2581 44.0809 16.469C44.5717 15.4394 45.0047 14.5493 45.38 13.7987C45.7552 13.0386 46.0343 12.4612 46.2171 12.0667C46.4096 11.6529 46.6501 11.345 46.9388 11.1429C47.2275 10.9408 47.5114 10.8398 47.7904 10.8398C48.0214 10.8398 48.2282 10.9264 48.4111 11.0996C48.5939 11.2632 48.6853 11.5086 48.6853 11.8357C48.6853 11.9608 48.6709 12.0956 48.642 12.2399C48.6131 12.3842 48.5602 12.5382 48.4832 12.7018C48.7815 12.3265 49.2242 11.9608 49.8112 11.6048C50.3981 11.2391 51.0332 10.936 51.7164 10.6955C52.3996 10.4549 53.0299 10.3346 53.6073 10.3346C54.1172 10.3346 54.5406 10.4597 54.8774 10.7099C55.2238 10.9505 55.397 11.3642 55.397 11.9512C55.397 12.4516 55.2864 12.9953 55.0651 13.5822C54.8438 14.1596 54.5791 14.7177 54.2712 15.2566C53.944 15.8243 53.6361 16.3247 53.3474 16.7577C53.0684 17.1811 52.8519 17.5323 52.6979 17.8113C52.5728 17.9653 52.5103 18.1433 52.5103 18.3454C52.5103 18.5379 52.6113 18.6341 52.8134 18.6341C52.8807 18.6341 52.9577 18.6293 53.0443 18.6196C53.1309 18.6004 53.2368 18.5475 53.3619 18.4609C54.0836 18.1914 54.8004 17.8498 55.5125 17.4361C56.2342 17.0223 56.8934 16.5941 57.49 16.1515C58.0962 15.7088 58.5821 15.3191 58.9478 14.9823C59.1017 14.8572 59.2509 14.7947 59.3952 14.7947C59.7416 14.7947 59.9148 15.016 59.9148 15.4586C59.9148 15.7569 59.8186 16.0889 59.6262 16.4546C59.4433 16.8202 59.1498 17.1618 58.7457 17.4794C58.0433 17.9797 57.3841 18.4464 56.7683 18.8795C56.162 19.3028 55.5173 19.6877 54.8341 20.0342C54.1509 20.3806 53.3378 20.6885 52.3948 20.9579C51.9041 21.1119 51.4855 21.1889 51.1391 21.1889C50.1576 21.1889 49.6668 20.65 49.6668 19.5723C49.6668 19.5049 49.6668 19.4424 49.6668 19.3846C49.6764 19.3173 49.6861 19.2451 49.6957 19.1681C49.7246 18.7351 49.8785 18.2347 50.1576 17.667C50.4366 17.0897 50.7397 16.5219 51.0669 15.9638C51.3941 15.425 51.6875 14.9198 51.9474 14.4483C52.2072 13.9768 52.3371 13.6255 52.3371 13.3946C52.3371 13.0482 52.1735 12.875 51.8463 12.875C51.2401 12.875 50.6579 13.053 50.0998 13.409C49.5513 13.7651 49.0317 14.2173 48.541 14.7658C48.0598 15.3047 47.6172 15.8724 47.2131 16.469C46.8089 17.056 46.4529 17.59 46.145 18.0712C45.9236 18.4368 45.7071 18.865 45.4954 19.3558C45.2934 19.8465 45.0528 20.2747 44.7737 20.6404C44.5043 21.006 44.1531 21.1889 43.7201 21.1889Z" fill="white"/>
<path d="M59.3519 21.1889C58.6495 21.1889 58.0673 20.9916 57.6054 20.5971C57.1435 20.1929 56.9126 19.5242 56.9126 18.5908C56.9126 17.4072 57.1772 16.3006 57.7065 15.271C58.2357 14.2414 58.9045 13.3609 59.7128 12.6296C60.5114 11.8983 61.3534 11.3354 62.2387 10.9408C63.1336 10.5367 63.9323 10.3346 64.6347 10.3346C65.2024 10.3346 65.6739 10.426 66.0492 10.6089C66.2609 10.7243 66.4389 10.8542 66.5833 10.9986L66.6987 10.7532L66.9585 10.147L67.1173 9.78614C67.1366 9.70916 67.2617 9.40124 67.4926 8.86237C67.7235 8.32351 68.0315 7.59701 68.4164 6.68286C68.7724 5.83608 69.0659 5.1192 69.2968 4.53222C69.5278 3.93563 69.6481 3.61808 69.6577 3.57959C69.7924 3.09846 70.0185 2.67026 70.3361 2.29498C70.6536 1.9197 71.0818 1.73206 71.6207 1.73206C71.9863 1.73206 72.2894 1.81385 72.53 1.97744C72.7706 2.1314 72.8909 2.43451 72.8909 2.88677C72.8909 3.23318 72.8139 3.60365 72.6599 3.99817C72.506 4.3927 72.3712 4.74392 72.2558 5.05184C71.7939 5.97561 71.2935 7.00041 70.7546 8.12625C70.2254 9.25209 69.6962 10.4068 69.1669 11.5904C68.6377 12.7739 68.1373 13.9142 67.6658 15.0112C67.1943 16.0985 66.7853 17.0608 66.4389 17.898C66.4293 17.9076 66.4245 17.9316 66.4245 17.9701C66.4245 18.0086 66.4197 18.0327 66.4101 18.0423C66.4101 18.2155 66.4534 18.3983 66.54 18.5908C66.6266 18.7736 66.7661 18.865 66.9585 18.865C67.0163 18.865 67.074 18.8554 67.1318 18.8362C67.8438 18.6245 68.5751 18.254 69.3257 17.7247C70.0763 17.1955 70.7691 16.6278 71.4042 16.0216C72.0489 15.4057 72.5637 14.8668 72.9486 14.405C73.0833 14.2414 73.2325 14.1596 73.396 14.1596C73.5404 14.1596 73.6655 14.2269 73.7713 14.3617C73.8868 14.4964 73.9445 14.6792 73.9445 14.9101C73.9445 15.093 73.8916 15.3095 73.7858 15.5597C73.6895 15.8099 73.5259 16.0793 73.295 16.368C72.5444 17.1955 71.765 17.9797 70.9567 18.7207C70.1484 19.452 69.3401 20.0486 68.5318 20.5105C67.7235 20.9627 66.9345 21.1889 66.1647 21.1889C65.4622 21.1889 64.9089 20.9916 64.5048 20.5971C64.1006 20.1929 63.8986 19.5915 63.8986 18.7929V18.6341C63.8986 18.5667 63.9034 18.5186 63.913 18.4897C63.4704 19.2884 62.8064 19.9379 61.9211 20.4383C61.0455 20.9387 60.1891 21.1889 59.3519 21.1889ZM60.42 18.6341C61.007 18.6341 61.5651 18.4561 62.0943 18.1C62.6236 17.744 63.1095 17.2869 63.5522 16.7288C63.9948 16.1707 64.3797 15.5885 64.7069 14.9823C65.0437 14.3761 65.3179 13.8228 65.5296 13.3224L65.7317 12.875L66.0059 12.2543C65.4382 12.2639 64.832 12.389 64.1873 12.6296C63.0807 13.0049 62.1136 13.6688 61.2861 14.6215C60.4681 15.5645 60.0159 16.7096 59.9293 18.0567C59.9293 18.4416 60.0929 18.6341 60.42 18.6341Z" fill="white"/>
<path d="M82.6048 21.824C81.9794 21.824 81.6666 21.5738 81.6666 21.0734C81.6666 20.804 81.7292 20.5826 81.8543 20.4094C81.989 20.2362 82.1478 20.1111 82.3306 20.0342C82.2729 19.6396 82.1959 19.1393 82.0996 18.533C82.0034 17.9268 81.8783 17.0848 81.7244 16.0071C81.657 15.4779 81.58 14.8861 81.4934 14.2318C81.4068 13.5774 81.3298 12.9327 81.2625 12.2976C81.1951 11.6625 81.147 11.1189 81.1181 10.6666C81.07 9.97378 81.0315 9.31944 81.0027 8.7036C80.9738 8.08776 80.9594 7.50559 80.9594 6.95711C80.9594 5.93712 81.0123 5.07109 81.1181 4.35902C81.1951 3.89714 81.3731 3.46412 81.6522 3.05997C81.9312 2.6462 82.2584 2.30941 82.6337 2.0496C83.009 1.7898 83.3843 1.65989 83.7595 1.65989C84.3369 1.65989 84.6256 2.16507 84.6256 3.17544C84.6256 3.48336 84.6015 3.83459 84.5534 4.22911C84.5053 4.61402 84.4524 4.97967 84.3946 5.32608L84.2503 6.22098L84.1781 6.55296C84.1492 6.72617 84.13 6.93305 84.1204 7.17361C84.1107 7.40456 84.1059 7.66918 84.1059 7.96748C84.1059 8.79502 84.1444 9.76689 84.2214 10.8831C84.308 11.9897 84.4139 13.0963 84.539 14.2029C84.6737 15.2999 84.8084 16.2477 84.9431 17.0464C85.6071 16.1803 86.2806 15.2084 86.9638 14.1307C87.647 13.0434 88.2773 11.9127 88.8547 10.7388C89.1049 10.2576 89.3502 9.76689 89.5908 9.26652C89.8314 8.76615 90.0719 8.26096 90.3125 7.75097C90.5531 7.24097 90.7936 6.73579 91.0342 6.23542C91.2747 5.73504 91.5153 5.24429 91.7559 4.76316C92.6315 3.13695 93.4398 2.32385 94.1808 2.32385C94.4887 2.32385 94.7437 2.37196 94.9457 2.46819C95.1478 2.56441 95.2489 2.75205 95.2489 3.0311C95.2489 3.13695 95.244 3.20431 95.2344 3.23318C95.2152 3.42563 95.119 3.73355 94.9457 4.15694C94.7822 4.58034 94.5705 5.08071 94.3107 5.65806C94.1759 5.95636 94.0316 6.26428 93.8776 6.58183C93.7237 6.89937 93.5553 7.23616 93.3725 7.5922C92.8913 8.54483 92.3188 9.62737 91.6548 10.8398C91.0005 12.0426 90.3414 13.1877 89.6774 14.2751C88.2051 16.6999 86.8869 18.61 85.7225 20.0053C85.7995 20.1593 85.838 20.3036 85.838 20.4383C85.838 20.7366 85.6744 20.9868 85.3473 21.1889C85.0201 21.4006 84.6063 21.5593 84.1059 21.6652C83.6152 21.771 83.1148 21.824 82.6048 21.824Z" fill="white"/>
<path d="M97.6593 9.36756C97.0627 9.36756 96.6441 9.27614 96.4036 9.09331C96.163 8.90086 96.0283 8.65068 95.9994 8.34276C95.9994 7.8905 96.163 7.44786 96.4902 7.01484C96.827 6.57221 97.3225 6.35089 97.9769 6.35089C98.535 6.35089 98.9247 6.46155 99.146 6.68286C99.3673 6.89456 99.478 7.16399 99.478 7.49116C99.478 7.85682 99.3336 8.26096 99.045 8.7036C98.7659 9.14624 98.304 9.36756 97.6593 9.36756ZM94.123 21.1889C93.3436 21.1889 92.7278 20.9916 92.2755 20.5971C91.8329 20.1929 91.6115 19.5675 91.6115 18.7207C91.6115 18.1337 91.7174 17.5515 91.9291 16.9742C92.1504 16.3872 92.391 15.8387 92.6508 15.3287C92.9202 14.8091 93.1319 14.3569 93.2859 13.9719C93.334 13.8469 93.4158 13.6544 93.5312 13.3946C93.6563 13.1348 93.7862 12.8702 93.921 12.6007L94.4117 11.5904C94.5753 11.3209 94.7629 11.1285 94.9746 11.013C95.1863 10.8975 95.4028 10.8398 95.6241 10.8398C95.9898 10.8398 96.3025 10.9601 96.5623 11.2007C96.8318 11.4316 96.9665 11.7299 96.9665 12.0956C96.9569 12.1822 96.9424 12.2688 96.9232 12.3554C96.9136 12.442 96.8847 12.5286 96.8366 12.6152C96.6249 13.0001 96.4421 13.3609 96.2881 13.6977C96.1341 14.0249 95.9754 14.3569 95.8118 14.6936C95.6771 14.9727 95.5087 15.3143 95.3066 15.7184C95.1045 16.1226 94.9265 16.5315 94.7725 16.9453C94.6186 17.3495 94.5416 17.7103 94.5416 18.0279C94.5416 18.2877 94.6041 18.4609 94.7292 18.5475C94.864 18.6245 95.0516 18.6629 95.2922 18.6629C95.6771 18.6629 96.1005 18.5427 96.5623 18.3021C97.0338 18.0615 97.4813 17.7632 97.9047 17.4072C98.3473 17.0512 98.7563 16.6903 99.1316 16.3247C99.5068 15.9494 99.7859 15.6463 99.9687 15.4153C100.152 15.2325 100.344 15.1411 100.546 15.1411C100.719 15.1411 100.859 15.2181 100.965 15.372C101.08 15.526 101.138 15.7233 101.138 15.9638C101.138 16.1851 101.08 16.4209 100.965 16.6711C100.859 16.9213 100.681 17.157 100.431 17.3783C99.7955 18.023 99.1316 18.6389 98.4387 19.2259C97.7459 19.8032 97.0338 20.2747 96.3025 20.6404C95.5808 21.006 94.8543 21.1889 94.123 21.1889Z" fill="white"/>
<path d="M100.734 21.1889C99.9447 21.1889 99.401 20.9916 99.1027 20.5971C98.814 20.2026 98.6697 19.7214 98.6697 19.1537C98.6697 18.6822 98.737 18.2011 98.8717 17.7103C99.0161 17.2099 99.1845 16.7529 99.3769 16.3391C99.7137 15.5885 100.055 14.8428 100.402 14.1019C100.748 13.3609 101.066 12.6825 101.354 12.0667L105.728 2.75686C105.949 2.27573 106.281 1.963 106.724 1.81866C107.166 1.67432 107.571 1.68876 107.936 1.86196C108.311 2.02555 108.499 2.32866 108.499 2.7713C108.499 2.9445 108.456 3.12733 108.369 3.31978C108.292 3.51223 108.191 3.71912 108.066 3.94044C107.72 4.59477 107.277 5.45599 106.738 6.52409C106.209 7.5922 105.622 8.79502 104.977 10.1326C104.275 11.6048 103.683 12.8413 103.202 13.842C102.73 14.8332 102.288 15.7714 101.874 16.6566C101.768 16.878 101.662 17.1378 101.556 17.4361C101.46 17.7247 101.412 17.9846 101.412 18.2155C101.412 18.533 101.552 18.6918 101.831 18.6918C102.139 18.6918 102.548 18.5667 103.058 18.3165C103.577 18.0567 104.116 17.7344 104.674 17.3495C105.242 16.9742 105.79 16.5845 106.32 16.1803C106.849 15.7666 107.34 15.3672 107.792 14.9823C107.946 14.8572 108.129 14.7947 108.34 14.7947C108.783 14.7947 109.004 15.0401 109.004 15.5308C109.004 15.7329 108.937 15.959 108.802 16.2092C108.668 16.4594 108.432 16.7048 108.095 16.9453C107.479 17.5131 106.858 18.0519 106.233 18.5619C105.617 19.0623 104.997 19.5097 104.371 19.9043C103.755 20.2892 103.139 20.5971 102.524 20.828C101.908 21.0686 101.311 21.1889 100.734 21.1889Z" fill="white"/>
<path d="M108.355 21.1889C107.566 21.1889 107.022 20.9916 106.724 20.5971C106.435 20.2026 106.291 19.7214 106.291 19.1537C106.291 18.6822 106.358 18.2011 106.493 17.7103C106.637 17.2099 106.806 16.7529 106.998 16.3391C107.335 15.5885 107.676 14.8428 108.023 14.1019C108.369 13.3609 108.687 12.6825 108.975 12.0667L113.349 2.75686C113.57 2.27573 113.902 1.963 114.345 1.81866C114.787 1.67432 115.192 1.68876 115.557 1.86196C115.933 2.02555 116.12 2.32866 116.12 2.7713C116.12 2.9445 116.077 3.12733 115.99 3.31978C115.913 3.51223 115.812 3.71912 115.687 3.94044C115.341 4.59477 114.898 5.45599 114.359 6.52409C113.83 7.5922 113.243 8.79502 112.598 10.1326C111.896 11.6048 111.304 12.8413 110.823 13.842C110.351 14.8332 109.909 15.7714 109.495 16.6566C109.389 16.878 109.283 17.1378 109.178 17.4361C109.081 17.7247 109.033 17.9846 109.033 18.2155C109.033 18.533 109.173 18.6918 109.452 18.6918C109.76 18.6918 110.169 18.5667 110.679 18.3165C111.198 18.0567 111.737 17.7344 112.295 17.3495C112.863 16.9742 113.411 16.5845 113.941 16.1803C114.47 15.7666 114.961 15.3672 115.413 14.9823C115.567 14.8572 115.75 14.7947 115.961 14.7947C116.404 14.7947 116.625 15.0401 116.625 15.5308C116.625 15.7329 116.558 15.959 116.423 16.2092C116.289 16.4594 116.053 16.7048 115.716 16.9453C115.1 17.5131 114.48 18.0519 113.854 18.5619C113.238 19.0623 112.618 19.5097 111.992 19.9043C111.376 20.2892 110.76 20.5971 110.145 20.828C109.529 21.0686 108.932 21.1889 108.355 21.1889Z" fill="white"/>
<path d="M116.943 21.1889C116.616 21.1889 116.226 21.0975 115.774 20.9146C115.322 20.7318 114.922 20.4287 114.576 20.0053C114.239 19.5819 114.071 19.0142 114.071 18.3021C114.071 17.7055 114.205 16.9598 114.475 16.0649C114.744 15.17 115.168 14.2895 115.745 13.4235C116.322 12.5382 117.058 11.8021 117.953 11.2151C118.858 10.6281 119.902 10.3346 121.085 10.3346C121.509 10.3346 121.879 10.3875 122.197 10.4934C122.514 10.5992 122.784 10.7147 123.005 10.8398C123.13 10.9168 123.246 10.9986 123.352 11.0852C123.467 11.1622 123.573 11.2488 123.669 11.345L124.174 11.0996C124.319 11.0323 124.468 10.9745 124.622 10.9264C124.785 10.8687 124.925 10.8398 125.04 10.8398C125.406 10.8398 125.704 10.9408 125.935 11.1429C126.166 11.345 126.282 11.5663 126.282 11.8069C126.282 11.8839 126.277 11.9368 126.267 11.9656C126.2 12.2351 126.075 12.6055 125.892 13.0771C125.719 13.5486 125.531 14.073 125.329 14.6503C125.127 15.2084 124.954 15.7473 124.809 16.2669C124.675 16.7865 124.607 17.2148 124.607 17.5515C124.607 17.8402 124.655 18.0808 124.752 18.2732C124.848 18.4561 125.011 18.5475 125.242 18.5475C125.521 18.5475 125.897 18.3887 126.368 18.0712C126.84 17.744 127.326 17.3591 127.826 16.9165C128.095 16.6759 128.375 16.4209 128.663 16.1515C128.952 15.8724 129.245 15.5789 129.544 15.271C129.698 15.1459 129.847 15.0834 129.991 15.0834C130.184 15.0834 130.342 15.1796 130.467 15.372C130.602 15.5549 130.669 15.7617 130.669 15.9927C130.669 16.2621 130.578 16.4882 130.395 16.6711C130.01 17.0271 129.616 17.4072 129.212 17.8113C128.808 18.2155 128.249 18.7111 127.537 19.298C126.902 19.8177 126.248 20.2651 125.574 20.6404C124.901 21.006 124.295 21.1889 123.756 21.1889C123.082 21.1889 122.591 20.9291 122.283 20.4094C121.976 19.8802 121.822 19.3173 121.822 18.7207C121.822 18.2877 121.884 17.9028 122.009 17.566C121.615 18.0952 121.148 18.6437 120.609 19.2114C120.07 19.7695 119.488 20.241 118.863 20.6259C118.237 21.0012 117.597 21.1889 116.943 21.1889ZM118.098 18.6485C118.406 18.6485 118.79 18.4513 119.252 18.0567C119.724 17.6622 120.176 17.2003 120.609 16.6711C121.09 16.0937 121.47 15.5693 121.749 15.0978C122.028 14.6263 122.168 14.3087 122.168 14.1452C122.168 13.7795 121.956 13.4908 121.533 13.2791C121.109 13.0578 120.729 12.9471 120.393 12.9471C119.796 12.9471 119.228 13.1396 118.689 13.5245C118.16 13.9094 117.727 14.405 117.39 15.0112C117.054 15.6078 116.885 16.2284 116.885 16.8731C116.885 17.2484 116.953 17.6381 117.087 18.0423C117.232 18.4464 117.568 18.6485 118.098 18.6485Z" fill="white"/>
<path d="M141.437 21.1456C139.647 21.1456 138.363 20.7366 137.583 19.9187C136.804 19.1008 136.414 18.0567 136.414 16.7865C136.414 15.7377 136.597 14.6407 136.963 13.4956C137.338 12.3409 137.843 11.1958 138.478 10.0604C139.123 8.9153 139.854 7.81833 140.672 6.76947C141.5 5.71099 142.366 4.75354 143.27 3.89714C144.175 3.03111 145.074 2.30941 145.969 1.73206C146.807 1.1932 147.648 0.769804 148.495 0.461883C149.342 0.153961 150.174 0 150.992 0C151.81 0 152.513 0.192451 153.1 0.577353C153.696 0.962256 153.995 1.63583 153.995 2.59809C153.995 2.99261 153.903 3.48818 153.72 4.08477C153.547 4.67175 153.297 5.25873 152.97 5.8457C152.633 6.45192 152.229 6.95711 151.757 7.36125C151.295 7.75578 150.795 7.95304 150.256 7.95304C150.064 7.95304 149.804 7.90974 149.477 7.82314C149.15 7.73653 148.986 7.52003 148.986 7.17361C148.986 7.05814 149.015 6.92343 149.073 6.76947C149.14 6.61551 149.255 6.43749 149.419 6.23542C149.65 5.98523 149.895 5.67731 150.155 5.31165C150.415 4.93637 150.636 4.55147 150.819 4.15694C151.012 3.76242 151.108 3.41601 151.108 3.11771C151.108 2.50186 150.819 2.19394 150.242 2.19394C149.828 2.19394 149.361 2.32866 148.842 2.59809C148.322 2.86752 147.778 3.23799 147.211 3.7095C146.633 4.181 146.008 4.78722 145.334 5.52816C144.67 6.25947 144.011 7.07258 143.357 7.96748C142.702 8.85275 142.106 9.76689 141.567 10.7099C141.028 11.6529 140.595 12.5815 140.268 13.4956C139.95 14.4002 139.792 15.2325 139.792 15.9927C139.792 16.6951 139.979 17.2581 140.355 17.6814C140.73 18.1048 141.351 18.3165 142.217 18.3165C142.794 18.3165 143.419 18.1722 144.093 17.8835C144.776 17.5948 145.469 17.2292 146.171 16.7865C146.883 16.3343 147.572 15.8676 148.235 15.3865C148.909 14.9053 149.525 14.4675 150.083 14.073C150.651 13.6785 151.132 13.3946 151.526 13.2214C151.565 13.1829 151.623 13.1637 151.7 13.1637C151.844 13.1637 151.945 13.2791 152.003 13.5101C152.051 13.7795 152.075 14.0489 152.075 14.3184C152.075 14.4819 152.051 14.684 152.003 14.9246C151.964 15.1555 151.829 15.425 151.599 15.7329C150.973 16.4834 150.237 17.1859 149.39 17.8402C148.543 18.4946 147.653 19.0719 146.72 19.5723C145.786 20.063 144.863 20.4479 143.949 20.727C143.044 21.006 142.207 21.1456 141.437 21.1456Z" fill="white"/>
<path d="M153.085 21.1889C152.758 21.1889 152.368 21.0975 151.916 20.9146C151.464 20.7318 151.064 20.4287 150.718 20.0053C150.381 19.5819 150.213 19.0142 150.213 18.3021C150.213 17.7055 150.348 16.9598 150.617 16.0649C150.886 15.17 151.31 14.2895 151.887 13.4235C152.465 12.5382 153.201 11.8021 154.096 11.2151C155 10.6281 156.044 10.3346 157.228 10.3346C157.651 10.3346 158.022 10.3875 158.339 10.4934C158.657 10.5992 158.926 10.7147 159.147 10.8398C159.273 10.9168 159.388 10.9986 159.494 11.0852C159.609 11.1622 159.715 11.2488 159.811 11.345L160.317 11.0996C160.461 11.0323 160.61 10.9745 160.764 10.9264C160.928 10.8687 161.067 10.8398 161.183 10.8398C161.548 10.8398 161.847 10.9408 162.078 11.1429C162.308 11.345 162.424 11.5663 162.424 11.8069C162.424 11.8839 162.419 11.9368 162.41 11.9656C162.342 12.2351 162.217 12.6055 162.034 13.0771C161.861 13.5486 161.673 14.073 161.471 14.6503C161.269 15.2084 161.096 15.7473 160.952 16.2669C160.817 16.7865 160.75 17.2148 160.75 17.5515C160.75 17.8402 160.798 18.0808 160.894 18.2732C160.99 18.4561 161.154 18.5475 161.385 18.5475C161.664 18.5475 162.039 18.3887 162.511 18.0712C162.982 17.744 163.468 17.3591 163.968 16.9165C164.238 16.6759 164.517 16.4209 164.805 16.1515C165.094 15.8724 165.388 15.5789 165.686 15.271C165.84 15.1459 165.989 15.0834 166.133 15.0834C166.326 15.0834 166.485 15.1796 166.61 15.372C166.744 15.5549 166.812 15.7617 166.812 15.9927C166.812 16.2621 166.72 16.4882 166.538 16.6711C166.153 17.0271 165.758 17.4072 165.354 17.8113C164.95 18.2155 164.392 18.7111 163.68 19.298C163.045 19.8177 162.39 20.2651 161.717 20.6404C161.043 21.006 160.437 21.1889 159.898 21.1889C159.224 21.1889 158.734 20.9291 158.426 20.4094C158.118 19.8802 157.964 19.3173 157.964 18.7207C157.964 18.2877 158.026 17.9028 158.152 17.566C157.757 18.0952 157.29 18.6437 156.751 19.2114C156.213 19.7695 155.63 20.241 155.005 20.6259C154.379 21.0012 153.74 21.1889 153.085 21.1889ZM154.24 18.6485C154.548 18.6485 154.933 18.4513 155.395 18.0567C155.866 17.6622 156.318 17.2003 156.751 16.6711C157.233 16.0937 157.613 15.5693 157.892 15.0978C158.171 14.6263 158.31 14.3087 158.31 14.1452C158.31 13.7795 158.099 13.4908 157.675 13.2791C157.252 13.0578 156.872 12.9471 156.535 12.9471C155.938 12.9471 155.371 13.1396 154.832 13.5245C154.302 13.9094 153.869 14.405 153.533 15.0112C153.196 15.6078 153.027 16.2284 153.027 16.8731C153.027 17.2484 153.095 17.6381 153.23 18.0423C153.374 18.4464 153.711 18.6485 154.24 18.6485Z" fill="white"/>
<path d="M167.519 21.1889C166.509 21.1889 165.59 20.9627 164.762 20.5105C163.935 20.0486 163.405 19.3221 163.174 18.331C163.155 18.2347 163.146 18.1722 163.146 18.1433C163.146 17.8835 163.237 17.6622 163.42 17.4794C163.603 17.2869 163.805 17.1907 164.026 17.1907C164.132 17.1907 164.247 17.2099 164.372 17.2484C164.507 17.2869 164.608 17.3735 164.676 17.5082C164.926 17.9605 165.354 18.3262 165.96 18.6052C166.576 18.8746 167.177 19.0094 167.764 19.0094C168.39 19.0094 168.934 18.8891 169.395 18.6485C169.867 18.4079 170.103 18.0134 170.103 17.4649C170.103 16.7914 169.91 16.1948 169.525 15.6751C169.15 15.1555 168.674 14.6888 168.096 14.2751C167.529 13.8517 166.956 13.462 166.379 13.1059C166.331 13.0771 166.259 12.9953 166.162 12.8605C166.066 12.7162 166.018 12.5719 166.018 12.4275C166.018 12.3121 166.047 12.2206 166.105 12.1533C166.412 11.7395 166.807 11.3354 167.288 10.9408C167.769 10.5463 168.298 10.3491 168.876 10.3491C169.299 10.3491 169.646 10.4549 169.915 10.6666C170.194 10.8687 170.334 11.0707 170.334 11.2728C170.334 11.5423 170.209 11.7973 169.958 12.0378C169.708 12.2688 169.448 12.4901 169.179 12.7018C170.324 13.2984 171.233 14.0586 171.907 14.9823C172.581 15.8965 172.917 16.7914 172.917 17.667C172.917 18.4079 172.648 19.043 172.109 19.5723C171.58 20.0919 170.901 20.4912 170.074 20.7703C169.256 21.0493 168.404 21.1889 167.519 21.1889Z" fill="white"/>
<path d="M179.008 9.36756C178.412 9.36756 177.993 9.27614 177.753 9.09331C177.512 8.90086 177.377 8.65068 177.349 8.34276C177.349 7.8905 177.512 7.44786 177.839 7.01484C178.176 6.57221 178.672 6.35089 179.326 6.35089C179.884 6.35089 180.274 6.46155 180.495 6.68286C180.716 6.89456 180.827 7.16399 180.827 7.49116C180.827 7.85682 180.683 8.26096 180.394 8.7036C180.115 9.14624 179.653 9.36756 179.008 9.36756ZM175.472 21.1889C174.693 21.1889 174.077 20.9916 173.625 20.5971C173.182 20.1929 172.961 19.5675 172.961 18.7207C172.961 18.1337 173.066 17.5515 173.278 16.9742C173.499 16.3872 173.74 15.8387 174 15.3287C174.269 14.8091 174.481 14.3569 174.635 13.9719C174.683 13.8469 174.765 13.6544 174.88 13.3946C175.005 13.1348 175.135 12.8702 175.27 12.6007L175.761 11.5904C175.924 11.3209 176.112 11.1285 176.324 11.013C176.535 10.8975 176.752 10.8398 176.973 10.8398C177.339 10.8398 177.652 10.9601 177.911 11.2007C178.181 11.4316 178.316 11.7299 178.316 12.0956C178.306 12.1822 178.292 12.2688 178.272 12.3554C178.263 12.442 178.234 12.5286 178.186 12.6152C177.974 13.0001 177.791 13.3609 177.637 13.6977C177.483 14.0249 177.324 14.3569 177.161 14.6936C177.026 14.9727 176.858 15.3143 176.656 15.7184C176.454 16.1226 176.276 16.5315 176.122 16.9453C175.968 17.3495 175.891 17.7103 175.891 18.0279C175.891 18.2877 175.953 18.4609 176.078 18.5475C176.213 18.6245 176.401 18.6629 176.641 18.6629C177.026 18.6629 177.45 18.5427 177.911 18.3021C178.383 18.0615 178.83 17.7632 179.254 17.4072C179.696 17.0512 180.105 16.6903 180.481 16.3247C180.856 15.9494 181.135 15.6463 181.318 15.4153C181.501 15.2325 181.693 15.1411 181.895 15.1411C182.068 15.1411 182.208 15.2181 182.314 15.372C182.429 15.526 182.487 15.7233 182.487 15.9638C182.487 16.1851 182.429 16.4209 182.314 16.6711C182.208 16.9213 182.03 17.157 181.78 17.3783C181.145 18.023 180.481 18.6389 179.788 19.2259C179.095 19.8032 178.383 20.2747 177.652 20.6404C176.93 21.006 176.203 21.1889 175.472 21.1889Z" fill="white"/>
<path d="M180.611 21.1889C180.274 21.1889 180.009 21.083 179.817 20.8713C179.624 20.6596 179.528 20.3998 179.528 20.0919C179.528 19.8417 179.672 19.375 179.961 18.6918C180.25 17.999 180.587 17.2581 180.971 16.469C181.462 15.4394 181.895 14.5493 182.27 13.7987C182.646 13.0386 182.925 12.4612 183.108 12.0667C183.3 11.6529 183.541 11.345 183.829 11.1429C184.118 10.9408 184.402 10.8398 184.681 10.8398C184.912 10.8398 185.119 10.9264 185.302 11.0996C185.484 11.2632 185.576 11.5086 185.576 11.8357C185.576 11.9608 185.561 12.0956 185.532 12.2399C185.504 12.3842 185.451 12.5382 185.374 12.7018C185.672 12.3265 186.115 11.9608 186.702 11.6048C187.289 11.2391 187.924 10.936 188.607 10.6955C189.29 10.4549 189.92 10.3346 190.498 10.3346C191.008 10.3346 191.431 10.4597 191.768 10.7099C192.114 10.9505 192.288 11.3642 192.288 11.9512C192.288 12.4516 192.177 12.9953 191.956 13.5822C191.734 14.1596 191.47 14.7177 191.162 15.2566C190.835 15.8243 190.527 16.3247 190.238 16.7577C189.959 17.1811 189.742 17.5323 189.588 17.8113C189.463 17.9653 189.401 18.1433 189.401 18.3454C189.401 18.5379 189.502 18.6341 189.704 18.6341C189.771 18.6341 189.848 18.6293 189.935 18.6196C190.021 18.6004 190.127 18.5475 190.252 18.4609C190.974 18.1914 191.691 17.8498 192.403 17.4361C193.125 17.0223 193.784 16.5941 194.38 16.1515C194.987 15.7088 195.473 15.3191 195.838 14.9823C195.992 14.8572 196.141 14.7947 196.286 14.7947C196.632 14.7947 196.805 15.016 196.805 15.4586C196.805 15.7569 196.709 16.0889 196.517 16.4546C196.334 16.8202 196.04 17.1618 195.636 17.4794C194.934 17.9797 194.275 18.4464 193.659 18.8795C193.053 19.3028 192.408 19.6877 191.725 20.0342C191.041 20.3806 190.228 20.6885 189.285 20.9579C188.795 21.1119 188.376 21.1889 188.03 21.1889C187.048 21.1889 186.557 20.65 186.557 19.5723C186.557 19.5049 186.557 19.4424 186.557 19.3846C186.567 19.3173 186.577 19.2451 186.586 19.1681C186.615 18.7351 186.769 18.2347 187.048 17.667C187.327 17.0897 187.63 16.5219 187.957 15.9638C188.285 15.425 188.578 14.9198 188.838 14.4483C189.098 13.9768 189.228 13.6255 189.228 13.3946C189.228 13.0482 189.064 12.875 188.737 12.875C188.131 12.875 187.548 13.053 186.99 13.409C186.442 13.7651 185.922 14.2173 185.431 14.7658C184.95 15.3047 184.508 15.8724 184.104 16.469C183.699 17.056 183.343 17.59 183.035 18.0712C182.814 18.4368 182.598 18.865 182.386 19.3558C182.184 19.8465 181.943 20.2747 181.664 20.6404C181.395 21.006 181.044 21.1889 180.611 21.1889Z" fill="white"/>
<path d="M196.647 21.1889C196.262 21.1889 195.824 21.083 195.333 20.8713C194.852 20.6692 194.433 20.3421 194.077 19.8898C193.721 19.4376 193.543 18.841 193.543 18.1C193.543 17.5034 193.683 16.7721 193.962 15.9061C194.251 15.0401 194.688 14.1836 195.275 13.3369C195.872 12.4805 196.637 11.7684 197.57 11.2007C198.504 10.6233 199.586 10.3346 200.818 10.3346C201.309 10.3346 201.828 10.426 202.377 10.6089C202.935 10.7917 203.411 11.0996 203.806 11.5326C204.2 11.956 204.398 12.543 204.398 13.2936C204.398 13.9094 204.244 14.6263 203.936 15.4442C204.109 15.6559 204.354 15.7617 204.672 15.7617C204.97 15.7617 205.316 15.6415 205.711 15.4009C206.105 15.1603 206.495 14.8668 206.88 14.5204C207.275 14.174 207.631 13.8276 207.948 13.4812C208.275 13.1348 208.53 12.8557 208.713 12.644C208.781 12.5767 208.862 12.543 208.959 12.543C209.17 12.543 209.324 12.6777 209.42 12.9471C209.517 13.2166 209.497 13.5582 209.363 13.9719C209.228 14.3761 208.915 14.7947 208.425 15.2277C208.136 15.5356 207.78 15.9157 207.356 16.368C206.943 16.8106 206.49 17.2051 206 17.5515C205.519 17.8883 205.028 18.0567 204.527 18.0567C204.017 18.0567 203.536 17.8931 203.084 17.566C202.372 18.6822 201.467 19.5675 200.37 20.2218C199.273 20.8665 198.032 21.1889 196.647 21.1889ZM197.902 18.6629C198.508 18.6629 199.076 18.4609 199.605 18.0567C200.135 17.6526 200.563 17.1426 200.89 16.5267C201.217 15.9109 201.381 15.2806 201.381 14.6359C201.381 14.3857 201.352 14.1259 201.294 13.8565C201.246 13.5774 201.131 13.3465 200.948 13.1637C200.765 12.9712 200.471 12.875 200.067 12.875C199.471 12.875 198.908 13.0674 198.379 13.4523C197.849 13.8276 197.416 14.3184 197.08 14.9246C196.752 15.5212 196.589 16.1466 196.589 16.801C196.589 17.0415 196.618 17.311 196.675 17.6093C196.733 17.898 196.853 18.1481 197.036 18.3598C197.229 18.5619 197.517 18.6629 197.902 18.6629Z" fill="white"/>
</svg>
