<svg width="142" height="28" viewBox="0 0 142 28" fill="none" xmlns="http://www.w3.org/2000/svg">
<path d="M30.079 1.20642V27.4707H23.0572V12.6169L18.5673 19.875H11.5117L7.0218 12.6169V27.4707H0V1.20642H7.0218L15.0564 14.1697L23.0572 1.20642H30.079Z" fill="#33FFF5"/>
<path d="M32.9226 3.46825C32.9226 1.67904 34.4417 0.53125 36.8386 0.53125C39.2355 0.53125 40.7546 1.67904 40.7546 3.46825C40.7546 5.25746 39.2355 6.40526 36.8386 6.40526C34.4417 6.40526 32.9226 5.25746 32.9226 3.46825ZM40.0119 7.28298V27.4707H33.6653V7.28298H40.0119Z" fill="white"/>
<path d="M65.1603 27.4707H52.7709C46.593 27.4707 42.8458 23.6222 42.8458 17.3431C42.8458 10.6251 46.593 6.54029 52.7709 6.54029C55.404 6.54029 57.3958 7.28298 58.8137 8.80212V1.8816H65.1603V19.4023H58.8137V17.3431C58.8137 14.0685 57.1257 12.2455 54.0874 12.2455C51.0492 12.2455 49.3612 14.0685 49.3612 17.3431C49.3612 20.1788 51.0492 21.7654 54.0874 21.7654H65.1603V27.4707Z" fill="white"/>
<path d="M84.1406 27.4707V17.3431C84.1406 14.0685 82.4526 12.2455 79.4143 12.2455C76.3761 12.2455 74.6881 14.0685 74.6881 17.3431V27.4707H68.3415V7.28298H74.6881V8.80212C76.106 7.28298 78.0978 6.54029 80.7309 6.54029C86.9088 6.54029 90.4872 10.6251 90.4872 17.3431V27.4707H84.1406Z" fill="white"/>
<path d="M93.0222 3.46825C93.0222 1.67904 94.5414 0.53125 96.9383 0.53125C99.3351 0.53125 100.854 1.67904 100.854 3.46825C100.854 5.25746 99.3351 6.40526 96.9383 6.40526C94.5414 6.40526 93.0222 5.25746 93.0222 3.46825ZM100.112 7.28298V27.4707H93.7649V7.28298H100.112Z" fill="white"/>
<path d="M109.731 7.28298H117.799V12.9882H109.731V17.3431C109.731 20.1788 111.419 21.7654 114.457 21.7654H119.487V27.4707H114.457C107.233 27.4707 103.384 23.8922 103.384 17.3431V1.13891H109.731V7.28298Z" fill="white"/>
<path d="M132.581 27.4707C125.357 27.4707 121.34 23.8922 121.34 17.3431C121.34 10.7939 125.357 7.21547 132.581 7.21547H142V12.9207H132.581C130.488 12.9207 129.037 13.6971 128.328 15.0812H140.11V19.4361H128.26C128.935 20.9552 130.387 21.7654 132.581 21.7654H142V27.4707H132.581Z" fill="white"/>
</svg>
