<svg width="105" height="48" viewBox="0 0 105 48" fill="none" xmlns="http://www.w3.org/2000/svg">
<path d="M21.0135 0C23.0742 0 24.6778 0.601209 25.8244 1.80363C26.9711 2.98958 27.5444 4.71085 27.5444 6.96744V17.5916H23.5062V7.09098C23.5062 5.87209 23.1822 4.95792 22.5341 4.34847C21.9026 3.72256 21.0634 3.4096 20.0164 3.4096C18.8698 3.4096 17.9558 3.73903 17.2745 4.39789C16.5931 5.04028 16.2524 6.02033 16.2524 7.33805V17.5916H12.2143V7.09098C12.2143 5.87209 11.9151 4.95792 11.3169 4.34847C10.7186 3.72256 9.90435 3.4096 8.87403 3.4096C7.74401 3.4096 6.83832 3.73903 6.15698 4.39789C5.47565 5.04028 5.13497 6.02033 5.13497 7.33805V17.5916H1.09679V0.296486H5.01034V2.42131C5.54212 1.64715 6.24838 1.05418 7.12914 0.642387C8.0099 0.214129 9.0236 0 10.1702 0C11.3667 0 12.4137 0.222365 13.3111 0.667094C14.2084 1.09535 14.8981 1.72127 15.38 2.54485C15.9782 1.72127 16.7593 1.09535 17.7231 0.667094C18.7036 0.222365 19.8004 0 21.0135 0Z" fill="url(#paint0_linear_4203_35117)"/>
<path d="M45.7836 16.1091C44.9527 16.6692 43.9058 17.1056 42.6428 17.4186C41.3965 17.7316 40.067 17.888 38.6545 17.888C36.893 17.888 35.3973 17.6739 34.1676 17.2457C32.9379 16.8009 32.0073 16.1915 31.3758 15.4173C30.7443 14.6267 30.4285 13.729 30.4285 12.7242C30.4285 11.8018 30.6861 10.9865 31.2013 10.2782C31.7164 9.56994 32.4227 9.04285 33.3201 8.69695C32.6387 8.33458 32.107 7.84043 31.7248 7.21452C31.3592 6.5886 31.1764 5.88856 31.1764 5.1144C31.1764 4.17552 31.4672 3.31901 32.0488 2.54485C32.6304 1.77069 33.5112 1.153 34.6911 0.691803C35.871 0.230601 37.3167 0 39.0284 0C40.1584 0 41.2635 0.1153 42.3437 0.345901C43.4239 0.56003 44.3628 0.856517 45.1604 1.23536L44.0387 4.29906C42.5099 3.59079 40.8896 3.23665 39.1779 3.23665C37.8817 3.23665 36.9013 3.43431 36.2365 3.82962C35.5884 4.20847 35.2644 4.72732 35.2644 5.38618C35.2644 5.99562 35.4804 6.46506 35.9125 6.79449C36.3612 7.10745 37.0342 7.26393 37.9316 7.26393H42.6927V10.4265H37.6823C36.6686 10.4265 35.8876 10.5994 35.3392 10.9453C34.7908 11.2912 34.5166 11.7936 34.5166 12.4525C34.5166 13.1443 34.8656 13.6878 35.5635 14.0831C36.2781 14.462 37.3666 14.6514 38.829 14.6514C39.8593 14.6514 40.8896 14.5196 41.9199 14.2561C42.9502 13.9761 43.8227 13.589 44.5373 13.0948L45.7836 16.1091Z" fill="url(#paint1_linear_4203_35117)"/>
<path d="M68.0682 0C70.1289 0 71.7325 0.601209 72.8791 1.80363C74.0258 2.98958 74.5991 4.71085 74.5991 6.96744V17.5916H70.5609V7.09098C70.5609 5.87209 70.2369 4.95792 69.5888 4.34847C68.9573 3.72256 68.1181 3.4096 67.0711 3.4096C65.9245 3.4096 65.0105 3.73903 64.3292 4.39789C63.6478 5.04028 63.3071 6.02033 63.3071 7.33805V17.5916H59.269V7.09098C59.269 5.87209 58.9698 4.95792 58.3716 4.34847C57.7733 3.72256 56.9591 3.4096 55.9287 3.4096C54.7987 3.4096 53.893 3.73903 53.2117 4.39789C52.5303 5.04028 52.1897 6.02033 52.1897 7.33805V17.5916H48.1515V0.296486H52.065V2.42131C52.5968 1.64715 53.3031 1.05418 54.1838 0.642387C55.0646 0.214129 56.0783 0 57.2249 0C58.4214 0 59.4684 0.222365 60.3657 0.667094C61.2631 1.09535 61.9528 1.72127 62.4347 2.54485C63.033 1.72127 63.814 1.09535 64.7778 0.667094C65.7583 0.222365 66.8551 0 68.0682 0Z" fill="url(#paint2_linear_4203_35117)"/>
<path d="M87.0303 17.888C85.2189 17.888 83.5821 17.501 82.1197 16.7268C80.6739 15.9526 79.5356 14.8902 78.7047 13.5396C77.8904 12.1724 77.4832 10.6406 77.4832 8.94402C77.4832 7.24746 77.8904 5.72385 78.7047 4.37318C79.5356 3.00605 80.6739 1.9354 82.1197 1.16124C83.5821 0.38708 85.2189 0 87.0303 0C88.8417 0 90.4702 0.38708 91.916 1.16124C93.3618 1.9354 94.5001 3.00605 95.331 4.37318C96.1619 5.72385 96.5774 7.24746 96.5774 8.94402C96.5774 10.6406 96.1619 12.1724 95.331 13.5396C94.5001 14.8902 93.3618 15.9526 91.916 16.7268C90.4702 17.501 88.8417 17.888 87.0303 17.888ZM87.0303 14.4784C88.0606 14.4784 88.9912 14.2478 89.8221 13.7866C90.653 13.309 91.3011 12.6501 91.7664 11.8101C92.2484 10.97 92.4893 10.0147 92.4893 8.94402C92.4893 7.87337 92.2484 6.91803 91.7664 6.07798C91.3011 5.23794 90.653 4.58731 89.8221 4.12611C88.9912 3.64844 88.0606 3.4096 87.0303 3.4096C86 3.4096 85.0694 3.64844 84.2385 4.12611C83.4076 4.58731 82.7512 5.23794 82.2692 6.07798C81.8039 6.91803 81.5713 7.87337 81.5713 8.94402C81.5713 10.0147 81.8039 10.97 82.2692 11.8101C82.7512 12.6501 83.4076 13.309 84.2385 13.7866C85.0694 14.2478 86 14.4784 87.0303 14.4784Z" fill="url(#paint3_linear_4203_35117)"/>
<path d="M9.44736 48C7.66923 48 6.05728 47.6212 4.61151 46.8635C3.18236 46.0893 2.05233 45.0269 1.22143 43.6762C0.407142 42.3091 0 40.769 0 39.056C0 37.3429 0.407142 35.8111 1.22143 34.4604C2.05233 33.0933 3.18236 32.0309 4.61151 31.2732C6.05728 30.499 7.67754 30.112 9.47228 30.112C10.9845 30.112 12.3472 30.3755 13.5603 30.9026C14.7901 31.4297 15.8204 32.1874 16.6513 33.1757L14.0589 35.5476C12.879 34.1969 11.4166 33.5216 9.6717 33.5216C8.59153 33.5216 7.62768 33.7604 6.78016 34.2381C5.93264 34.6993 5.26792 35.3499 4.786 36.1899C4.32069 37.03 4.08804 37.9853 4.08804 39.056C4.08804 40.1266 4.32069 41.082 4.786 41.922C5.26792 42.7621 5.93264 43.4209 6.78016 43.8986C7.62768 44.3598 8.59153 44.5904 9.6717 44.5904C11.4166 44.5904 12.879 43.9068 14.0589 42.5397L16.6513 44.9116C15.8204 45.9164 14.7901 46.6823 13.5603 47.2094C12.3306 47.7365 10.9596 48 9.44736 48Z" fill="url(#paint4_linear_4203_35117)"/>
<path d="M27.2303 30.112C28.8422 30.112 30.2465 30.4249 31.443 31.0508C32.6395 31.6767 33.5701 32.5992 34.2348 33.818C34.8995 35.0369 35.2319 36.5111 35.2319 38.2406V47.7035H31.1937V43.5527H23.217V47.7035H19.2287V38.2406C19.2287 36.5111 19.5611 35.0369 20.2258 33.818C20.8905 32.5992 21.8211 31.6767 23.0176 31.0508C24.2141 30.4249 25.6183 30.112 27.2303 30.112ZM31.1937 40.3408V37.87C31.1937 36.437 30.8364 35.3581 30.1218 34.6334C29.4072 33.8922 28.4351 33.5216 27.2054 33.5216C25.959 33.5216 24.9785 33.8922 24.264 34.6334C23.566 35.3581 23.217 36.437 23.217 37.87V40.3408H31.1937Z" fill="url(#paint5_linear_4203_35117)"/>
<path d="M44.9509 48C43.5716 48 42.2338 47.8188 40.9376 47.4564C39.6581 47.0776 38.6277 46.5917 37.8467 45.9987L39.2177 42.9844C39.9655 43.528 40.8545 43.9645 41.8849 44.2939C42.9152 44.6233 43.9455 44.7881 44.9758 44.7881C46.1225 44.7881 46.97 44.6233 47.5184 44.2939C48.0668 43.948 48.341 43.495 48.341 42.935C48.341 42.5232 48.1748 42.1856 47.8424 41.922C47.5267 41.642 47.1112 41.4196 46.5961 41.2549C46.0975 41.0902 45.4162 40.909 44.5521 40.7114C43.2226 40.3984 42.1341 40.0854 41.2866 39.7725C40.4391 39.4595 39.7079 38.9571 39.093 38.2653C38.4948 37.5735 38.1957 36.6511 38.1957 35.4981C38.1957 34.4934 38.4699 33.5874 39.0183 32.7803C39.5667 31.9568 40.3892 31.3061 41.486 30.8285C42.5994 30.3508 43.9538 30.112 45.5491 30.112C46.6626 30.112 47.751 30.2437 48.8146 30.5073C49.8781 30.7708 50.8088 31.1497 51.6064 31.6438L50.3601 34.6828C48.7481 33.7769 47.1362 33.3239 45.5242 33.3239C44.3942 33.3239 43.555 33.5051 43.0066 33.8675C42.4748 34.2298 42.2089 34.7075 42.2089 35.3005C42.2089 35.8935 42.5163 36.3382 43.1312 36.6347C43.7627 36.9147 44.7182 37.1947 45.9978 37.4747C47.3273 37.7877 48.4158 38.1006 49.2633 38.4136C50.1108 38.7265 50.8337 39.2207 51.4319 39.896C52.0468 40.5714 52.3542 41.4855 52.3542 42.6385C52.3542 43.6268 52.0717 44.5327 51.5067 45.3563C50.9583 46.1634 50.1274 46.8058 49.014 47.2835C47.9006 47.7612 46.5462 48 44.9509 48Z" fill="url(#paint6_linear_4203_35117)"/>
<path d="M61.096 33.6204V44.4916H64.1122V47.7035H54.0168V44.4916H57.0579V33.6204H54.0168V30.4084H64.1122V33.6204H61.096Z" fill="url(#paint7_linear_4203_35117)"/>
<path d="M76.4112 30.112C78.4884 30.112 80.1087 30.7626 81.272 32.0638C82.4352 33.3486 83.0169 35.1852 83.0169 37.5735V47.7035H78.9787V37.6971C78.9787 36.3135 78.6463 35.2758 77.9816 34.584C77.3335 33.8757 76.4278 33.5216 75.2645 33.5216C74.0348 33.5216 73.046 33.9004 72.2982 34.6581C71.567 35.3993 71.2014 36.5029 71.2014 37.9689V47.7035H67.1632V30.4084H71.0768V32.5086C71.675 31.7179 72.4229 31.125 73.3202 30.7296C74.2176 30.3178 75.2479 30.112 76.4112 30.112Z" fill="url(#paint8_linear_4203_35117)"/>
<path d="M95.4529 48C93.6416 48 92.0047 47.6129 90.5423 46.8388C89.0965 46.0646 87.9582 45.0022 87.1273 43.6515C86.313 42.2844 85.9059 40.7525 85.9059 39.056C85.9059 37.3594 86.313 35.8358 87.1273 34.4851C87.9582 33.118 89.0965 32.0474 90.5423 31.2732C92.0047 30.499 93.6416 30.112 95.4529 30.112C97.2643 30.112 98.8929 30.499 100.339 31.2732C101.784 32.0474 102.923 33.118 103.754 34.4851C104.585 35.8358 105 37.3594 105 39.056C105 40.7525 104.585 42.2844 103.754 43.6515C102.923 45.0022 101.784 46.0646 100.339 46.8388C98.8929 47.6129 97.2643 48 95.4529 48ZM95.4529 44.5904C96.4833 44.5904 97.4139 44.3598 98.2448 43.8986C99.0757 43.4209 99.7238 42.7621 100.189 41.922C100.671 41.082 100.912 40.1266 100.912 39.056C100.912 37.9853 100.671 37.03 100.189 36.1899C99.7238 35.3499 99.0757 34.6993 98.2448 34.2381C97.4139 33.7604 96.4833 33.5216 95.4529 33.5216C94.4226 33.5216 93.492 33.7604 92.6611 34.2381C91.8302 34.6993 91.1738 35.3499 90.6919 36.1899C90.2266 37.03 89.9939 37.9853 89.9939 39.056C89.9939 40.1266 90.2266 41.082 90.6919 41.922C91.1738 42.7621 91.8302 43.4209 92.6611 43.8986C93.492 44.3598 94.4226 44.5904 95.4529 44.5904Z" fill="url(#paint9_linear_4203_35117)"/>
<defs>
<linearGradient id="paint0_linear_4203_35117" x1="-0.972156" y1="23.7685" x2="106.526" y2="23.7685" gradientUnits="userSpaceOnUse">
<stop stop-color="#FF3CD3"/>
<stop offset="1" stop-color="#B03DFF"/>
</linearGradient>
<linearGradient id="paint1_linear_4203_35117" x1="-0.972156" y1="23.7685" x2="106.526" y2="23.7685" gradientUnits="userSpaceOnUse">
<stop stop-color="#FF3CD3"/>
<stop offset="1" stop-color="#B03DFF"/>
</linearGradient>
<linearGradient id="paint2_linear_4203_35117" x1="-0.972156" y1="23.7685" x2="106.526" y2="23.7685" gradientUnits="userSpaceOnUse">
<stop stop-color="#FF3CD3"/>
<stop offset="1" stop-color="#B03DFF"/>
</linearGradient>
<linearGradient id="paint3_linear_4203_35117" x1="-0.972156" y1="23.7685" x2="106.526" y2="23.7685" gradientUnits="userSpaceOnUse">
<stop stop-color="#FF3CD3"/>
<stop offset="1" stop-color="#B03DFF"/>
</linearGradient>
<linearGradient id="paint4_linear_4203_35117" x1="-0.972156" y1="23.7685" x2="106.526" y2="23.7685" gradientUnits="userSpaceOnUse">
<stop stop-color="#FF3CD3"/>
<stop offset="1" stop-color="#B03DFF"/>
</linearGradient>
<linearGradient id="paint5_linear_4203_35117" x1="-0.972156" y1="23.7685" x2="106.526" y2="23.7685" gradientUnits="userSpaceOnUse">
<stop stop-color="#FF3CD3"/>
<stop offset="1" stop-color="#B03DFF"/>
</linearGradient>
<linearGradient id="paint6_linear_4203_35117" x1="-0.972156" y1="23.7685" x2="106.526" y2="23.7685" gradientUnits="userSpaceOnUse">
<stop stop-color="#FF3CD3"/>
<stop offset="1" stop-color="#B03DFF"/>
</linearGradient>
<linearGradient id="paint7_linear_4203_35117" x1="-0.972156" y1="23.7685" x2="106.526" y2="23.7685" gradientUnits="userSpaceOnUse">
<stop stop-color="#FF3CD3"/>
<stop offset="1" stop-color="#B03DFF"/>
</linearGradient>
<linearGradient id="paint8_linear_4203_35117" x1="-0.972156" y1="23.7685" x2="106.526" y2="23.7685" gradientUnits="userSpaceOnUse">
<stop stop-color="#FF3CD3"/>
<stop offset="1" stop-color="#B03DFF"/>
</linearGradient>
<linearGradient id="paint9_linear_4203_35117" x1="-0.972156" y1="23.7685" x2="106.526" y2="23.7685" gradientUnits="userSpaceOnUse">
<stop stop-color="#FF3CD3"/>
<stop offset="1" stop-color="#B03DFF"/>
</linearGradient>
</defs>
</svg>
