<svg width="267" height="36" viewBox="0 0 267 36" fill="none" xmlns="http://www.w3.org/2000/svg">
<path d="M111.256 21.5026C109.965 24.4624 106.961 27.359 101.994 27.4421C95.5878 27.5492 90.5697 22.9706 90.5697 15.8668C90.5697 8.26396 95.8054 3.37607 101.936 2.30541C112.559 0.450303 121.003 9.12525 119.867 19.7581C119.349 24.607 117.296 27.7874 114.772 30.4503C107.557 37.1641 97.5645 37.0518 90.7625 30.8954C87.1755 27.8045 85 23.3107 85 18.5647C85 8.00325 93.3857 -0.152229 104.002 0.541144C90.8295 1.2958 83.9263 17.022 91.7166 25.7213C99.1767 34.052 113.331 29.9098 114.718 19.0291C115.593 12.1606 109.745 6.3748 102.962 7.69862C98.8795 8.49556 95.2197 11.781 95.2197 16.1412C95.2197 20.5325 98.7798 24.0926 103.171 24.0926C107.563 24.0926 111.123 20.5325 111.123 16.1412C111.123 14.8012 110.791 13.5389 110.205 12.4313C112.141 14.7575 112.656 18.2913 111.256 21.5026Z" fill="url(#paint0_linear_2713_27924)"/>
<path fill-rule="evenodd" clip-rule="evenodd" d="M104.268 16.8043C104.268 16.8043 103.999 15.7942 104.984 14.7122C104.984 14.7122 105.589 15.8331 104.268 16.8043ZM102.077 16.8043C102.077 16.8043 102.346 15.7942 101.36 14.7122C101.36 14.7122 100.756 15.8331 102.077 16.8043ZM103.173 19.8012C103.878 19.8012 104.27 19.7453 104.555 18.926C104.84 18.1067 106.056 16.6402 106.153 15.6451C106.228 14.871 106.253 13.7737 105.684 13.1072C102.315 9.16394 109.845 9.64263 109.845 16.0992C109.845 19.7839 106.858 22.7715 103.173 22.7715C99.4874 22.7715 96.5 19.7839 96.5 16.0992C96.5 9.64263 104.03 9.16394 100.661 13.1072C100.092 13.7737 100.118 14.871 100.192 15.6451C100.289 16.6402 101.505 18.1067 101.79 18.926C102.075 19.7453 102.467 19.8012 103.173 19.8012Z" fill="url(#paint1_linear_2713_27924)"/>
<path d="M16.5596 2.2793C17.9963 2.2793 19.3972 2.3932 20.7607 2.62012L20.7617 2.61914C21.9257 2.80918 22.9223 3.03497 23.6738 3.3252L23.9805 3.4541L24.1592 3.53516L24.3105 3.65918L28.751 7.29883L29.7676 8.13281L29.0742 9.25L25.4746 15.0508L24.7441 16.2266L23.5137 15.5928L17.0146 12.249C15.6481 12.3184 14.5345 12.8044 13.5986 13.7021L13.5928 13.707L13.4229 13.877C12.623 14.7324 12.0997 16.1282 12.0996 18.3389C12.0996 20.0168 12.3937 21.2319 12.8672 22.083C13.3863 22.9686 14.0634 23.5847 14.9121 23.9795L15.2656 24.1299C16.1067 24.4608 17.0778 24.6396 18.2002 24.6396C19.6672 24.6396 20.8669 24.5248 21.8203 24.3174C22.8459 24.0665 23.7208 23.7846 24.4541 23.4775C25.2649 23.1113 26.0366 22.7588 26.7686 22.4189L28.9004 21.4287V31.3281L28.1982 31.7695C27.259 32.3599 26.0968 32.8867 24.7402 33.3633L24.1465 33.5645C22.3839 34.1418 20.0977 34.3994 17.3604 34.3994C15.4358 34.3994 13.56 34.187 11.7373 33.7598L11.7266 33.7568L11.7158 33.7549C9.81048 33.2785 8.07627 32.441 6.52539 31.248L6.51465 31.2393C5.0194 30.0665 3.8526 28.4972 2.9873 26.5889L2.81836 26.2031C1.91391 24.0626 1.5 21.4182 1.5 18.3389C1.50004 15.4567 1.91844 12.9348 2.82129 10.8281L2.98926 10.4492C3.84904 8.57155 4.99105 7.0044 6.43555 5.79102L6.71387 5.56152C8.11801 4.43693 9.65566 3.61295 11.3223 3.10449V3.10547C13.0565 2.55785 14.8037 2.27934 16.5596 2.2793ZM41.0732 2.67969V20.6738L41.0693 20.7285L40.79 24.5508L46.9902 24.2041L49.7646 23.8135L50.6367 23.6914L51.1689 24.3926L54.6885 29.0332L54.9219 29.3398L55.5996 25.9512V2.67969H77.3154L77.6719 2.89258L79.6719 4.09277L80.8359 4.79102L80.2568 6.01855L77.6172 11.6191L77.1602 12.5889L76.0947 12.4697L72.5732 12.0791H65.7998V13.4795H76.5596V22.6797H70.29L70.2412 22.6758L65.7998 22.3818V24.5996H76.79L77.2021 24.9316L81.9619 28.7715L83.209 29.7783L82.123 30.9561L79.7627 33.5156L79.3174 33.999H56.0186L54.8828 30.5918L54.6846 30.8516L52.7246 33.4111L52.2744 33.999H31.292L30.9502 32.9736L30.1504 30.5732L30.0244 30.1953L30.1025 29.8047L30.873 25.9512V2.67969H41.0732Z" fill="#FDC69B" stroke="#622E1D" stroke-width="3"/>
<mask id="path-4-outside-1_2713_27924" maskUnits="userSpaceOnUse" x="120" y="1.17969" width="147" height="35" fill="black">
<rect fill="white" x="120" y="1.17969" width="147" height="35"/>
<path d="M124.8 32.4997V10.5797L124 6.57969L124.8 4.17969H138.4C141.413 4.17969 143.827 4.73969 145.64 5.85969C147.453 6.97969 148.36 8.79302 148.36 11.2997C148.36 12.553 148.147 13.6864 147.72 14.6997C147.293 15.713 146.68 16.4997 145.88 17.0597C147.693 17.6464 149.027 18.5397 149.88 19.7397C150.733 20.9397 151.16 22.3664 151.16 24.0197C151.16 26.9264 150.307 29.073 148.6 30.4597C146.92 31.8197 144.453 32.4997 141.2 32.4997H124.8ZM132 15.1797H138.32C139.227 15.1797 139.88 14.9664 140.28 14.5397C140.68 14.113 140.88 13.553 140.88 12.8597C140.88 11.9797 140.587 11.3797 140 11.0597C139.413 10.7397 138.72 10.5797 137.92 10.5797H132V15.1797ZM132 26.0997H140C140.96 26.0997 141.667 25.9797 142.12 25.7397C142.6 25.4997 142.907 25.193 143.04 24.8197C143.2 24.4464 143.28 24.0597 143.28 23.6597C143.28 22.9664 143.027 22.3797 142.52 21.8997C142.04 21.393 141.333 21.1397 140.4 21.1397H132V26.0997Z"/>
<path d="M155.542 32.4997L154.742 30.0997L155.542 26.0997V4.17969H175.342L177.342 5.37969L174.702 10.9797L171.102 10.5797H162.742V14.9797H173.502V21.1797H168.782L162.742 20.7797V26.0997H174.702L179.462 29.9397L177.102 32.4997H155.542Z"/>
<path d="M188.681 32.4997V10.5797L180.681 10.9797V4.17969H204.081V10.9797L195.881 10.5797V26.0997L196.321 30.0997L195.881 32.4997H188.681Z"/>
<path d="M208.081 32.4997V10.6197L207.281 6.57969L208.081 4.17969H220.881C222.828 4.17969 224.575 4.48635 226.121 5.09969C227.695 5.68635 228.935 6.69969 229.841 8.13969C230.775 9.55302 231.241 11.513 231.241 14.0197C231.241 16.2864 230.828 18.1264 230.001 19.5397C229.175 20.9264 228.028 21.9664 226.561 22.6597L226.961 23.0997L230.921 28.0597L233.201 30.0997V32.4997H224.201L218.601 23.9797H215.281V26.0597L215.681 30.0597L215.281 32.4997H208.081ZM215.281 17.6997H219.201C220.588 17.6997 221.695 17.4464 222.521 16.9397C223.348 16.4064 223.761 15.433 223.761 14.0197C223.761 13.033 223.561 12.2997 223.161 11.8197C222.761 11.313 222.201 10.9797 221.481 10.8197C220.788 10.6597 219.975 10.5797 219.041 10.5797H214.881L215.281 17.6997Z"/>
<path d="M233.992 32.4997L235.912 25.7397V20.6597L238.872 19.4597L244.072 4.21969H254.432L260.872 22.1397L263.952 27.8197V32.4997H256.872L254.872 26.0997H243.232L241.512 32.4997H233.992ZM245.872 19.9397H252.672L249.632 10.7797H248.792L245.872 19.9397Z"/>
</mask>
<path d="M124.8 32.4997V10.5797L124 6.57969L124.8 4.17969H138.4C141.413 4.17969 143.827 4.73969 145.64 5.85969C147.453 6.97969 148.36 8.79302 148.36 11.2997C148.36 12.553 148.147 13.6864 147.72 14.6997C147.293 15.713 146.68 16.4997 145.88 17.0597C147.693 17.6464 149.027 18.5397 149.88 19.7397C150.733 20.9397 151.16 22.3664 151.16 24.0197C151.16 26.9264 150.307 29.073 148.6 30.4597C146.92 31.8197 144.453 32.4997 141.2 32.4997H124.8ZM132 15.1797H138.32C139.227 15.1797 139.88 14.9664 140.28 14.5397C140.68 14.113 140.88 13.553 140.88 12.8597C140.88 11.9797 140.587 11.3797 140 11.0597C139.413 10.7397 138.72 10.5797 137.92 10.5797H132V15.1797ZM132 26.0997H140C140.96 26.0997 141.667 25.9797 142.12 25.7397C142.6 25.4997 142.907 25.193 143.04 24.8197C143.2 24.4464 143.28 24.0597 143.28 23.6597C143.28 22.9664 143.027 22.3797 142.52 21.8997C142.04 21.393 141.333 21.1397 140.4 21.1397H132V26.0997Z" fill="#FDC69B"/>
<path d="M155.542 32.4997L154.742 30.0997L155.542 26.0997V4.17969H175.342L177.342 5.37969L174.702 10.9797L171.102 10.5797H162.742V14.9797H173.502V21.1797H168.782L162.742 20.7797V26.0997H174.702L179.462 29.9397L177.102 32.4997H155.542Z" fill="#FDC69B"/>
<path d="M188.681 32.4997V10.5797L180.681 10.9797V4.17969H204.081V10.9797L195.881 10.5797V26.0997L196.321 30.0997L195.881 32.4997H188.681Z" fill="#FDC69B"/>
<path d="M208.081 32.4997V10.6197L207.281 6.57969L208.081 4.17969H220.881C222.828 4.17969 224.575 4.48635 226.121 5.09969C227.695 5.68635 228.935 6.69969 229.841 8.13969C230.775 9.55302 231.241 11.513 231.241 14.0197C231.241 16.2864 230.828 18.1264 230.001 19.5397C229.175 20.9264 228.028 21.9664 226.561 22.6597L226.961 23.0997L230.921 28.0597L233.201 30.0997V32.4997H224.201L218.601 23.9797H215.281V26.0597L215.681 30.0597L215.281 32.4997H208.081ZM215.281 17.6997H219.201C220.588 17.6997 221.695 17.4464 222.521 16.9397C223.348 16.4064 223.761 15.433 223.761 14.0197C223.761 13.033 223.561 12.2997 223.161 11.8197C222.761 11.313 222.201 10.9797 221.481 10.8197C220.788 10.6597 219.975 10.5797 219.041 10.5797H214.881L215.281 17.6997Z" fill="#FDC69B"/>
<path d="M233.992 32.4997L235.912 25.7397V20.6597L238.872 19.4597L244.072 4.21969H254.432L260.872 22.1397L263.952 27.8197V32.4997H256.872L254.872 26.0997H243.232L241.512 32.4997H233.992ZM245.872 19.9397H252.672L249.632 10.7797H248.792L245.872 19.9397Z" fill="#FDC69B"/>
<path d="M124.8 32.4997V10.5797L124 6.57969L124.8 4.17969H138.4C141.413 4.17969 143.827 4.73969 145.64 5.85969C147.453 6.97969 148.36 8.79302 148.36 11.2997C148.36 12.553 148.147 13.6864 147.72 14.6997C147.293 15.713 146.68 16.4997 145.88 17.0597C147.693 17.6464 149.027 18.5397 149.88 19.7397C150.733 20.9397 151.16 22.3664 151.16 24.0197C151.16 26.9264 150.307 29.073 148.6 30.4597C146.92 31.8197 144.453 32.4997 141.2 32.4997H124.8ZM132 15.1797H138.32C139.227 15.1797 139.88 14.9664 140.28 14.5397C140.68 14.113 140.88 13.553 140.88 12.8597C140.88 11.9797 140.587 11.3797 140 11.0597C139.413 10.7397 138.72 10.5797 137.92 10.5797H132V15.1797ZM132 26.0997H140C140.96 26.0997 141.667 25.9797 142.12 25.7397C142.6 25.4997 142.907 25.193 143.04 24.8197C143.2 24.4464 143.28 24.0597 143.28 23.6597C143.28 22.9664 143.027 22.3797 142.52 21.8997C142.04 21.393 141.333 21.1397 140.4 21.1397H132V26.0997Z" stroke="#622E1D" stroke-width="6" mask="url(#path-4-outside-1_2713_27924)"/>
<path d="M155.542 32.4997L154.742 30.0997L155.542 26.0997V4.17969H175.342L177.342 5.37969L174.702 10.9797L171.102 10.5797H162.742V14.9797H173.502V21.1797H168.782L162.742 20.7797V26.0997H174.702L179.462 29.9397L177.102 32.4997H155.542Z" stroke="#622E1D" stroke-width="6" mask="url(#path-4-outside-1_2713_27924)"/>
<path d="M188.681 32.4997V10.5797L180.681 10.9797V4.17969H204.081V10.9797L195.881 10.5797V26.0997L196.321 30.0997L195.881 32.4997H188.681Z" stroke="#622E1D" stroke-width="6" mask="url(#path-4-outside-1_2713_27924)"/>
<path d="M208.081 32.4997V10.6197L207.281 6.57969L208.081 4.17969H220.881C222.828 4.17969 224.575 4.48635 226.121 5.09969C227.695 5.68635 228.935 6.69969 229.841 8.13969C230.775 9.55302 231.241 11.513 231.241 14.0197C231.241 16.2864 230.828 18.1264 230.001 19.5397C229.175 20.9264 228.028 21.9664 226.561 22.6597L226.961 23.0997L230.921 28.0597L233.201 30.0997V32.4997H224.201L218.601 23.9797H215.281V26.0597L215.681 30.0597L215.281 32.4997H208.081ZM215.281 17.6997H219.201C220.588 17.6997 221.695 17.4464 222.521 16.9397C223.348 16.4064 223.761 15.433 223.761 14.0197C223.761 13.033 223.561 12.2997 223.161 11.8197C222.761 11.313 222.201 10.9797 221.481 10.8197C220.788 10.6597 219.975 10.5797 219.041 10.5797H214.881L215.281 17.6997Z" stroke="#622E1D" stroke-width="6" mask="url(#path-4-outside-1_2713_27924)"/>
<path d="M233.992 32.4997L235.912 25.7397V20.6597L238.872 19.4597L244.072 4.21969H254.432L260.872 22.1397L263.952 27.8197V32.4997H256.872L254.872 26.0997H243.232L241.512 32.4997H233.992ZM245.872 19.9397H252.672L249.632 10.7797H248.792L245.872 19.9397Z" stroke="#622E1D" stroke-width="6" mask="url(#path-4-outside-1_2713_27924)"/>
<defs>
<linearGradient id="paint0_linear_2713_27924" x1="102.485" y1="0.5" x2="102.485" y2="35.5" gradientUnits="userSpaceOnUse">
<stop stop-color="#00A7FF"/>
<stop offset="1" stop-color="#00E3FF"/>
</linearGradient>
<linearGradient id="paint1_linear_2713_27924" x1="103.173" y1="10.5938" x2="103.173" y2="22.7715" gradientUnits="userSpaceOnUse">
<stop stop-color="#00A7FF"/>
<stop offset="1" stop-color="#00E3FF"/>
</linearGradient>
</defs>
</svg>
