<svg width="278" height="30" viewBox="0 0 278 30" fill="none" xmlns="http://www.w3.org/2000/svg">
<path d="M15.624 29.7327C13.3843 29.7327 11.3065 29.3819 9.39059 28.6803C7.47469 27.9517 5.81515 26.9263 4.41196 25.604C3.03575 24.2818 1.95637 22.7302 1.17382 20.9492C0.391275 19.1413 0 17.1579 0 14.9991C0 12.8404 0.391275 10.8705 1.17382 9.08954C1.95637 7.28158 3.04924 5.71649 4.45244 4.39425C5.85563 3.07201 7.51517 2.06009 9.43107 1.3585C11.3739 0.629915 13.4922 0.265625 15.7859 0.265625C18.4574 0.265625 20.8455 0.710868 22.9503 1.60136C25.0551 2.49184 26.7956 3.77361 28.1718 5.44664L23.0717 10.061C22.1003 9.00859 21.0479 8.22604 19.9145 7.71334C18.8082 7.17365 17.5669 6.9038 16.1907 6.9038C14.9764 6.9038 13.87 7.09269 12.8716 7.47048C11.8732 7.84826 11.0232 8.40144 10.3216 9.13002C9.61996 9.83162 9.06678 10.6816 8.66201 11.6801C8.28423 12.6515 8.09534 13.7579 8.09534 14.9991C8.09534 16.1865 8.28423 17.2793 8.66201 18.2778C9.06678 19.2762 9.61996 20.1397 10.3216 20.8683C11.0232 21.5699 11.8597 22.123 12.8311 22.5278C13.8295 22.9056 14.9224 23.0945 16.1097 23.0945C17.297 23.0945 18.4574 22.9056 19.5907 22.5278C20.7241 22.123 21.8709 21.4484 23.0312 20.504L27.5241 26.1302C25.9051 27.2906 24.0297 28.181 21.8979 28.8017C19.7661 29.4223 17.6748 29.7327 15.624 29.7327ZM20.4407 25.0778V14.392H27.5241V26.1302L20.4407 25.0778Z" fill="url(#paint0_linear_1770_27448)"/>
<path d="M32.6052 29.166V0.832299H45.5578C48.1483 0.832299 50.3745 1.25056 52.2364 2.08708C54.1253 2.92359 55.5825 4.1379 56.6079 5.72998C57.6333 7.29508 58.146 9.157 58.146 11.3158C58.146 13.4475 57.6333 15.296 56.6079 16.8611C55.5825 18.3992 54.1253 19.5865 52.2364 20.423C50.3745 21.2325 48.1483 21.6373 45.5578 21.6373H37.0577L40.6196 18.2778V29.166H32.6052ZM50.1316 29.166L43.0887 18.8444H51.6293L58.7127 29.166H50.1316ZM40.6196 19.1278L37.0577 15.4444H45.0721C46.7451 15.4444 47.9864 15.0801 48.7959 14.3515C49.6324 13.6229 50.0507 12.611 50.0507 11.3158C50.0507 9.99352 49.6324 8.96811 48.7959 8.23953C47.9864 7.51095 46.7451 7.14666 45.0721 7.14666H37.0577L40.6196 3.46328V19.1278Z" fill="url(#paint1_linear_1770_27448)"/>
<path d="M59.1674 29.166L71.6747 0.832299H79.5677L92.1154 29.166H83.7773L73.9819 4.75854H77.1391L67.3437 29.166H59.1674ZM66.008 23.6611L68.0723 17.7516H81.9153L83.9796 23.6611H66.008Z" fill="url(#paint2_linear_1770_27448)"/>
<path d="M98.9955 29.166V7.18714H90.293V0.832299H115.672V7.18714H107.01V29.166H98.9955Z" fill="url(#paint3_linear_1770_27448)"/>
<path d="M132.551 29.7327C130.284 29.7327 128.193 29.3684 126.277 28.6398C124.361 27.9112 122.688 26.8858 121.258 25.5636C119.855 24.2143 118.762 22.6492 117.979 20.8683C117.197 19.0873 116.805 17.1309 116.805 14.9991C116.805 12.8674 117.197 10.911 117.979 9.13002C118.762 7.34904 119.855 5.79744 121.258 4.4752C122.688 3.12598 124.361 2.08708 126.277 1.3585C128.193 0.629915 130.284 0.265625 132.551 0.265625C134.844 0.265625 136.936 0.629915 138.825 1.3585C140.74 2.08708 142.4 3.12598 143.803 4.4752C145.206 5.79744 146.299 7.34904 147.082 9.13002C147.891 10.911 148.296 12.8674 148.296 14.9991C148.296 17.1309 147.891 19.1008 147.082 20.9087C146.299 22.6897 145.206 24.2413 143.803 25.5636C142.4 26.8858 140.74 27.9112 138.825 28.6398C136.936 29.3684 134.844 29.7327 132.551 29.7327ZM132.551 23.0945C133.63 23.0945 134.629 22.9056 135.546 22.5278C136.49 22.15 137.3 21.6103 137.975 20.9087C138.676 20.1802 139.216 19.3167 139.594 18.3182C139.998 17.3198 140.201 16.2134 140.201 14.9991C140.201 13.7579 139.998 12.6515 139.594 11.6801C139.216 10.6816 138.676 9.83162 137.975 9.13002C137.3 8.40144 136.49 7.84826 135.546 7.47048C134.629 7.09269 133.63 6.9038 132.551 6.9038C131.471 6.9038 130.459 7.09269 129.515 7.47048C128.597 7.84826 127.788 8.40144 127.086 9.13002C126.412 9.83162 125.872 10.6816 125.467 11.6801C125.09 12.6515 124.901 13.7579 124.901 14.9991C124.901 16.2134 125.09 17.3198 125.467 18.3182C125.872 19.3167 126.412 20.1802 127.086 20.9087C127.788 21.6103 128.597 22.15 129.515 22.5278C130.459 22.9056 131.471 23.0945 132.551 23.0945Z" fill="url(#paint4_linear_1770_27448)"/>
<path d="M166.661 29.7327C164.421 29.7327 162.343 29.3819 160.427 28.6803C158.511 27.9517 156.852 26.9263 155.448 25.604C154.072 24.2818 152.993 22.7302 152.21 20.9492C151.428 19.1413 151.037 17.1579 151.037 14.9991C151.037 12.8404 151.428 10.8705 152.21 9.08954C152.993 7.28158 154.086 5.71649 155.489 4.39425C156.892 3.07201 158.552 2.06009 160.468 1.3585C162.41 0.629915 164.529 0.265625 166.822 0.265625C169.494 0.265625 171.882 0.710868 173.987 1.60136C176.092 2.49184 177.832 3.77361 179.208 5.44664L174.108 10.061C173.137 9.00859 172.084 8.22604 170.951 7.71334C169.845 7.17365 168.603 6.9038 167.227 6.9038C166.013 6.9038 164.907 7.09269 163.908 7.47048C162.91 7.84826 162.06 8.40144 161.358 9.13002C160.656 9.83162 160.103 10.6816 159.699 11.6801C159.321 12.6515 159.132 13.7579 159.132 14.9991C159.132 16.1865 159.321 17.2793 159.699 18.2778C160.103 19.2762 160.656 20.1397 161.358 20.8683C162.06 21.5699 162.896 22.123 163.868 22.5278C164.866 22.9056 165.959 23.0945 167.146 23.0945C168.334 23.0945 169.494 22.9056 170.627 22.5278C171.761 22.123 172.907 21.4484 174.068 20.504L178.561 26.1302C176.942 27.2906 175.066 28.181 172.934 28.8017C170.803 29.4223 168.711 29.7327 166.661 29.7327ZM171.477 25.0778V14.392H178.561V26.1302L171.477 25.0778Z" fill="url(#paint5_linear_1770_27448)"/>
<path d="M180.242 29.166L192.749 0.832299H200.642L213.19 29.166H204.852L195.056 4.75854H198.213L188.418 29.166H180.242ZM187.082 23.6611L189.147 17.7516H202.99L205.054 23.6611H187.082Z" fill="url(#paint6_linear_1770_27448)"/>
<path d="M215.462 29.166V0.832299H222.06L237.684 19.6944H234.567V0.832299H242.419V29.166H235.822L220.198 10.3038H223.314V29.166H215.462Z" fill="url(#paint7_linear_1770_27448)"/>
<path d="M244.672 29.166L257.18 0.832299H265.073L277.62 29.166H269.282L259.487 4.75854H262.644L252.849 29.166H244.672ZM251.513 23.6611L253.577 17.7516H267.42L269.485 23.6611H251.513Z" fill="url(#paint8_linear_1770_27448)"/>
<defs>
<linearGradient id="paint0_linear_1770_27448" x1="221.968" y1="-19.5619" x2="100.85" y2="75.7449" gradientUnits="userSpaceOnUse">
<stop stop-color="#FF1E48"/>
<stop offset="1" stop-color="#FDAD00"/>
</linearGradient>
<linearGradient id="paint1_linear_1770_27448" x1="221.968" y1="-19.5619" x2="100.85" y2="75.7449" gradientUnits="userSpaceOnUse">
<stop stop-color="#FF1E48"/>
<stop offset="1" stop-color="#FDAD00"/>
</linearGradient>
<linearGradient id="paint2_linear_1770_27448" x1="221.968" y1="-19.5619" x2="100.85" y2="75.7449" gradientUnits="userSpaceOnUse">
<stop stop-color="#FF1E48"/>
<stop offset="1" stop-color="#FDAD00"/>
</linearGradient>
<linearGradient id="paint3_linear_1770_27448" x1="221.968" y1="-19.5619" x2="100.85" y2="75.7449" gradientUnits="userSpaceOnUse">
<stop stop-color="#FF1E48"/>
<stop offset="1" stop-color="#FDAD00"/>
</linearGradient>
<linearGradient id="paint4_linear_1770_27448" x1="221.968" y1="-19.5619" x2="100.85" y2="75.7449" gradientUnits="userSpaceOnUse">
<stop stop-color="#FF1E48"/>
<stop offset="1" stop-color="#FDAD00"/>
</linearGradient>
<linearGradient id="paint5_linear_1770_27448" x1="221.968" y1="-19.5619" x2="100.85" y2="75.7449" gradientUnits="userSpaceOnUse">
<stop stop-color="#FF1E48"/>
<stop offset="1" stop-color="#FDAD00"/>
</linearGradient>
<linearGradient id="paint6_linear_1770_27448" x1="221.968" y1="-19.5619" x2="100.85" y2="75.7449" gradientUnits="userSpaceOnUse">
<stop stop-color="#FF1E48"/>
<stop offset="1" stop-color="#FDAD00"/>
</linearGradient>
<linearGradient id="paint7_linear_1770_27448" x1="221.968" y1="-19.5619" x2="100.85" y2="75.7449" gradientUnits="userSpaceOnUse">
<stop stop-color="#FF1E48"/>
<stop offset="1" stop-color="#FDAD00"/>
</linearGradient>
<linearGradient id="paint8_linear_1770_27448" x1="221.968" y1="-19.5619" x2="100.85" y2="75.7449" gradientUnits="userSpaceOnUse">
<stop stop-color="#FF1E48"/>
<stop offset="1" stop-color="#FDAD00"/>
</linearGradient>
</defs>
</svg>
