<svg width="201" height="20" viewBox="0 0 201 20" fill="none" xmlns="http://www.w3.org/2000/svg">
<path d="M6.98797 5.28335L4.78663 0.483921H12.5809L21.8982 19.5152H13.5408L12.133 16.4692H4.63305L3.23801 19.5152H0L6.98797 5.28335ZM10.7891 13.5384L8.383 8.31659L5.98968 13.5384H10.7891Z" fill="white"/>
<path d="M24.5091 0.483921H31.9066V8.45737H37.3715V0.483921H44.7819L44.7691 19.5025H37.3715V11.3882H31.9066V19.5025H24.5091V0.483921Z" fill="white"/>
<path d="M52.9857 3.40197H47.5591V0.471123H65.8097V3.40197H60.3832V19.5025H52.9857V3.40197Z" fill="white"/>
<path d="M68.587 0.483921H75.9973L75.9845 19.5025H68.587V0.483921Z" fill="white"/>
<path d="M87.7207 10.006C87.7207 9.10156 87.8359 8.23126 88.0663 7.3951C88.3052 6.5504 88.6507 5.76542 89.103 5.04018C89.5552 4.31493 90.1098 3.65368 90.7668 3.05641C91.4237 2.45915 92.1703 1.94721 93.0065 1.5206C93.8512 1.09398 94.7812 0.765488 95.7966 0.535115C96.8119 0.29621 97.904 0.176758 99.073 0.176758C99.8238 0.176758 100.541 0.223686 101.223 0.317541C101.914 0.411396 102.563 0.543647 103.168 0.714294C103.774 0.876408 104.333 1.06838 104.845 1.29022C105.366 1.50353 105.835 1.72964 106.253 1.96854L105.152 4.11869C104.674 3.88831 104.128 3.69634 103.514 3.54276C102.908 3.38064 102.277 3.29959 101.62 3.29959C100.741 3.29959 99.9262 3.45743 99.1754 3.77313C98.4245 4.08882 97.7761 4.53677 97.23 5.11697C96.6839 5.69717 96.253 6.40108 95.9373 7.22872C95.6302 8.04782 95.4766 8.96931 95.4766 9.99319C95.4766 11.0085 95.6302 11.93 95.9373 12.7577C96.2445 13.5768 96.6669 14.2807 97.2044 14.8694C97.7505 15.4496 98.3946 15.9018 99.137 16.226C99.8878 16.5417 100.698 16.6996 101.569 16.6996V10.262H109.03L107.699 12.6809V17.8514L107.712 17.877C107.294 18.1245 106.778 18.3634 106.163 18.5938C105.549 18.8241 104.862 19.0332 104.103 19.2209C103.352 19.4001 102.55 19.5451 101.697 19.656C100.843 19.767 99.9689 19.8224 99.073 19.8224C97.3238 19.8224 95.7454 19.5664 94.3375 19.0545C92.9382 18.534 91.748 17.8301 90.7668 16.9428C89.7855 16.0469 89.0304 15.0059 88.5014 13.8199C87.981 12.6254 87.7207 11.3541 87.7207 10.006Z" fill="white"/>
<path d="M117.157 5.28335L114.956 0.483921H122.75L132.067 19.5152H123.71L122.302 16.4692H114.802L113.407 19.5152H110.169L117.157 5.28335ZM120.958 13.5384L118.552 8.31659L116.159 13.5384H120.958Z" fill="white"/>
<path d="M134.678 0.483921H139.913L147.106 10.4411L153.94 0.483921H159.034V19.5025H151.649V9.78841L144.559 19.7456L137.494 9.78841V19.5025H134.678V0.483921Z" fill="white"/>
<path d="M163.91 0.483921H179.985V3.41477H171.32L171.308 8.54696H177.937V11.4778H171.308V16.5716H179.985V19.5025H163.91V0.483921Z" fill="white"/>
<path d="M184.055 15.279C184.959 15.7397 185.906 16.0853 186.896 16.3156C187.886 16.546 188.807 16.6612 189.661 16.6612C190.642 16.6612 191.358 16.5204 191.811 16.2388C192.271 15.9573 192.502 15.5733 192.502 15.087C192.502 14.9334 192.472 14.7755 192.412 14.6134C192.361 14.4513 192.254 14.2935 192.092 14.1399C191.939 13.9778 191.721 13.8199 191.44 13.6663C191.167 13.5042 190.808 13.3464 190.364 13.1928L188.074 12.4121C186.435 11.849 185.202 11.0896 184.375 10.134C183.547 9.16982 183.133 8.02649 183.133 6.70398C183.133 5.85075 183.312 5.03164 183.671 4.24667C184.029 3.45317 184.571 2.75778 185.296 2.16052C186.022 1.55473 186.934 1.07265 188.035 0.714294C189.144 0.355936 190.441 0.176758 191.926 0.176758C192.66 0.176758 193.364 0.219419 194.038 0.304743C194.712 0.390066 195.343 0.500986 195.932 0.637503C196.529 0.77402 197.075 0.931868 197.57 1.11105C198.065 1.28169 198.5 1.45234 198.875 1.62299L197.493 4.11869C197.22 3.94804 196.93 3.79873 196.623 3.67074C196.324 3.54276 196.021 3.4361 195.714 3.35078C195.416 3.26546 195.121 3.20146 194.831 3.1588C194.541 3.11614 194.277 3.09481 194.038 3.09481C193.628 3.09481 193.27 3.15027 192.963 3.26119C192.655 3.36358 192.395 3.50436 192.182 3.68354C191.977 3.85419 191.819 4.05043 191.708 4.27227C191.606 4.48558 191.555 4.69888 191.555 4.91219C191.555 5.0999 191.597 5.28335 191.683 5.46253C191.777 5.63317 191.93 5.80382 192.143 5.97447C192.365 6.13658 192.651 6.30296 193.001 6.47361C193.359 6.63572 193.803 6.80637 194.332 6.98555L195.868 7.49748C197.532 8.05208 198.803 8.81573 199.682 9.78841C200.561 10.7611 201 11.9386 201 13.3208C201 14.2593 200.787 15.1254 200.36 15.9189C199.942 16.7124 199.315 17.3992 198.479 17.9794C197.643 18.5511 196.602 18.999 195.356 19.3233C194.119 19.639 192.681 19.7968 191.043 19.7968C190.258 19.7968 189.498 19.7542 188.765 19.6688C188.039 19.592 187.327 19.4726 186.627 19.3105C185.936 19.1484 185.254 18.9436 184.58 18.6961C183.906 18.4487 183.231 18.1586 182.557 17.8259L184.055 15.279Z" fill="white"/>
</svg>
