<svg width="143" height="48" viewBox="0 0 143 48" fill="none" xmlns="http://www.w3.org/2000/svg">
<path d="M46.2578 22.9924C46.2941 24.2178 46.5818 25.4226 47.1033 26.5321C47.6248 27.6416 48.3687 28.632 49.2891 29.4419C49.491 29.6365 49.761 29.7445 50.0415 29.7428C50.1404 29.7666 50.2435 29.7666 50.3425 29.7428C50.5373 29.6871 50.7119 29.5763 50.8454 29.4237C50.9789 29.2712 51.0655 29.0834 51.0949 28.8829C51.647 26.1247 52.5577 23.4505 53.8037 20.9286L54.7281 19.1657C54.8137 19.015 54.8582 18.8445 54.8571 18.6713V10.072C54.8309 9.51025 54.596 8.97851 54.1984 8.58088C53.8007 8.18324 53.269 7.94834 52.7073 7.92217C51.8452 7.86048 50.98 7.98512 50.1705 8.28764C49.0912 8.64072 48.1421 9.30828 47.4449 10.2046C46.7478 11.101 46.3344 12.1852 46.2578 13.3182V22.9924ZM70.9807 46.5727C80.5689 46.5727 88.3513 44.4476 88.3513 34.8379C88.2419 30.818 87.3663 26.856 85.7715 23.1644C85.7057 23.0212 85.6104 22.8936 85.4918 22.7899C85.3733 22.6861 85.2341 22.6086 85.0835 22.5624C84.9265 22.5192 84.7617 22.5122 84.6015 22.542C84.4414 22.5718 84.2901 22.6376 84.1591 22.7344C81.8713 24.3239 79.1405 25.1514 76.3553 25.0992H65.6062C62.8209 25.1514 60.0901 24.3239 57.8023 22.7344C57.57 22.5751 57.2843 22.5133 57.0069 22.5624C56.8524 22.6059 56.709 22.6822 56.5866 22.7861C56.4642 22.89 56.3656 23.019 56.2975 23.1644C54.7027 26.856 53.8271 30.818 53.7177 34.8379C53.6102 44.4261 61.3065 46.5727 70.9807 46.5727ZM70.9807 27.249C71.6586 27.2413 72.3214 27.4489 72.8738 27.8419C73.4262 28.2348 73.8397 28.7929 74.0548 29.4357C74.2699 30.0786 74.2754 30.7731 74.0707 31.4194C73.866 32.0656 73.4616 32.6303 72.9156 33.032C72.8333 33.0884 72.7358 33.1186 72.6361 33.1186C72.5363 33.1186 72.4389 33.0884 72.3566 33.032C72.2645 32.9929 72.1864 32.9268 72.1326 32.8423C72.0789 32.7579 72.052 32.6591 72.0556 32.5591V31.5057C72.0556 31.2206 71.9424 30.9472 71.7408 30.7456C71.5392 30.544 71.2658 30.4308 70.9807 30.4308C70.6956 30.4308 70.4222 30.544 70.2206 30.7456C70.0191 30.9472 69.9058 31.2206 69.9058 31.5057V32.5591C69.9094 32.6591 69.8826 32.7579 69.8288 32.8423C69.7751 32.9268 69.697 32.9929 69.6048 33.032C69.5225 33.0884 69.4251 33.1186 69.3254 33.1186C69.2256 33.1186 69.1282 33.0884 69.0459 33.032C68.4999 32.6303 68.0954 32.0656 67.8907 31.4194C67.686 30.7731 67.6916 30.0786 67.9067 29.4357C68.1218 28.7929 68.5353 28.2348 69.0877 27.8419C69.6401 27.4489 70.3029 27.2413 70.9807 27.249ZM82.2673 0.569792C82.1039 0.475449 81.9185 0.425781 81.7298 0.425781C81.5411 0.425781 81.3558 0.475449 81.1924 0.569792L74.2055 4.54696C74.1582 4.56833 74.1069 4.57938 74.055 4.57938C74.0031 4.57938 73.9518 4.56833 73.9045 4.54696H68.2075C68.1635 4.56651 68.1159 4.57662 68.0677 4.57662C68.0196 4.57662 67.972 4.56651 67.928 4.54696L60.7906 0.677283C60.6296 0.57614 60.4433 0.522485 60.2531 0.522485C60.063 0.522485 59.8767 0.57614 59.7157 0.677283C59.5509 0.764799 59.4123 0.894513 59.3141 1.05316C59.2159 1.2118 59.1616 1.39369 59.1567 1.58021V7.83618C59.1741 7.92129 59.1741 8.00904 59.1567 8.09416C57.7864 9.69452 57.025 11.7273 57.0069 13.8342C57.0134 14.9351 57.2448 16.0231 57.6868 17.0314C58.1288 18.0397 58.7721 18.9471 59.5773 19.698C60.3825 20.4488 61.3326 21.0273 62.3693 21.3978C63.406 21.7684 64.5075 21.9233 65.6062 21.853H76.3553C77.454 21.9233 78.5555 21.7684 79.5922 21.3978C80.6289 21.0273 81.5789 20.4488 82.3841 19.698C83.1893 18.9471 83.8326 18.0397 84.2746 17.0314C84.7166 16.0231 84.948 14.9351 84.9545 13.8342C84.9517 11.7051 84.1894 9.64692 82.8047 8.02966C82.7874 7.94455 82.7874 7.8568 82.8047 7.77168V1.49421C82.8081 1.30573 82.7598 1.11993 82.6651 0.956957C82.5703 0.793989 82.4328 0.660089 82.2673 0.569792ZM67.756 13.1247C67.5835 13.2166 67.3924 13.268 67.197 13.2752C67.0095 13.2741 66.8254 13.2239 66.6633 13.1296C66.5011 13.0353 66.3664 12.9002 66.2726 12.7378C65.9816 12.251 65.5689 11.8484 65.0751 11.5694C64.5814 11.2905 64.0235 11.1449 63.4564 11.1469C63.1713 11.1469 62.8979 11.0336 62.6963 10.8321C62.4947 10.6305 62.3815 10.3571 62.3815 10.072C62.3815 9.78691 62.4947 9.5135 62.6963 9.31191C62.8979 9.11033 63.1713 8.99708 63.4564 8.99708C64.393 9.00909 65.3106 9.26278 66.1204 9.73358C66.9302 10.2044 67.6046 10.8763 68.0785 11.6844C68.2137 11.9215 68.2556 12.2005 68.1959 12.4669C68.1363 12.7333 67.9794 12.9679 67.756 13.1247ZM78.5051 11.1469C77.9453 11.1523 77.3962 11.3014 76.9106 11.58C76.425 11.8586 76.0191 12.2572 75.7318 12.7378C75.638 12.9002 75.5034 13.0353 75.3412 13.1296C75.179 13.2239 74.995 13.2741 74.8074 13.2752C74.5975 13.2748 74.3909 13.2231 74.2055 13.1247C73.982 12.9679 73.8252 12.7333 73.7655 12.4669C73.7059 12.2005 73.7478 11.9215 73.883 11.6844C74.3568 10.8763 75.0313 10.2044 75.841 9.73358C76.6508 9.26278 77.5685 9.00909 78.5051 8.99708C78.7902 8.99708 79.0636 9.11033 79.2652 9.31191C79.4668 9.5135 79.58 9.78691 79.58 10.072C79.58 10.3571 79.4668 10.6305 79.2652 10.8321C79.0636 11.0336 78.7902 11.1469 78.5051 11.1469Z" fill="white"/>
<mask id="mask0_5184_8783" style="mask-type:alpha" maskUnits="userSpaceOnUse" x="46" y="0" width="43" height="47">
<path d="M46.2578 22.9924C46.2941 24.2178 46.5818 25.4226 47.1033 26.5321C47.6248 27.6416 48.3687 28.632 49.2891 29.4419C49.491 29.6365 49.761 29.7445 50.0415 29.7428C50.1404 29.7666 50.2435 29.7666 50.3425 29.7428C50.5373 29.6871 50.7119 29.5763 50.8454 29.4237C50.9789 29.2712 51.0655 29.0834 51.0949 28.8829C51.647 26.1247 52.5577 23.4505 53.8037 20.9286L54.7281 19.1657C54.8137 19.015 54.8582 18.8445 54.8571 18.6713V10.072C54.8309 9.51025 54.596 8.97851 54.1984 8.58088C53.8007 8.18324 53.269 7.94834 52.7073 7.92217C51.8452 7.86048 50.98 7.98512 50.1705 8.28764C49.0912 8.64072 48.1421 9.30828 47.4449 10.2046C46.7478 11.101 46.3344 12.1852 46.2578 13.3182V22.9924ZM70.9807 46.5727C80.5689 46.5727 88.3513 44.4476 88.3513 34.8379C88.2419 30.818 87.3663 26.856 85.7715 23.1644C85.7057 23.0212 85.6104 22.8936 85.4918 22.7899C85.3733 22.6861 85.2341 22.6086 85.0835 22.5624C84.9265 22.5192 84.7617 22.5122 84.6015 22.542C84.4414 22.5718 84.2901 22.6376 84.1591 22.7344C81.8713 24.3239 79.1405 25.1514 76.3553 25.0992H65.6062C62.8209 25.1514 60.0901 24.3239 57.8023 22.7344C57.57 22.5751 57.2843 22.5133 57.0069 22.5624C56.8524 22.6059 56.709 22.6822 56.5866 22.7861C56.4642 22.89 56.3656 23.019 56.2975 23.1644C54.7027 26.856 53.8271 30.818 53.7177 34.8379C53.6102 44.4261 61.3065 46.5727 70.9807 46.5727ZM70.9807 27.249C71.6586 27.2413 72.3214 27.4489 72.8738 27.8419C73.4262 28.2348 73.8397 28.7929 74.0548 29.4357C74.2699 30.0786 74.2754 30.7731 74.0707 31.4194C73.866 32.0656 73.4616 32.6303 72.9156 33.032C72.8333 33.0884 72.7358 33.1186 72.6361 33.1186C72.5363 33.1186 72.4389 33.0884 72.3566 33.032C72.2645 32.9929 72.1864 32.9268 72.1326 32.8423C72.0789 32.7579 72.052 32.6591 72.0556 32.5591V31.5057C72.0556 31.2206 71.9424 30.9472 71.7408 30.7456C71.5392 30.544 71.2658 30.4308 70.9807 30.4308C70.6956 30.4308 70.4222 30.544 70.2206 30.7456C70.0191 30.9472 69.9058 31.2206 69.9058 31.5057V32.5591C69.9094 32.6591 69.8826 32.7579 69.8288 32.8423C69.7751 32.9268 69.697 32.9929 69.6048 33.032C69.5225 33.0884 69.4251 33.1186 69.3254 33.1186C69.2256 33.1186 69.1282 33.0884 69.0459 33.032C68.4999 32.6303 68.0954 32.0656 67.8907 31.4194C67.686 30.7731 67.6916 30.0786 67.9067 29.4357C68.1218 28.7929 68.5353 28.2348 69.0877 27.8419C69.6401 27.4489 70.3029 27.2413 70.9807 27.249ZM82.2673 0.569792C82.1039 0.475449 81.9185 0.425781 81.7298 0.425781C81.5411 0.425781 81.3558 0.475449 81.1924 0.569792L74.2055 4.54696C74.1582 4.56833 74.1069 4.57938 74.055 4.57938C74.0031 4.57938 73.9518 4.56833 73.9045 4.54696H68.2075C68.1635 4.56651 68.1159 4.57662 68.0677 4.57662C68.0196 4.57662 67.972 4.56651 67.928 4.54696L60.7906 0.677283C60.6296 0.57614 60.4433 0.522485 60.2531 0.522485C60.063 0.522485 59.8767 0.57614 59.7157 0.677283C59.5509 0.764799 59.4123 0.894513 59.3141 1.05316C59.2159 1.2118 59.1616 1.39369 59.1567 1.58021V7.83618C59.1741 7.92129 59.1741 8.00904 59.1567 8.09416C57.7864 9.69452 57.025 11.7273 57.0069 13.8342C57.0134 14.9351 57.2448 16.0231 57.6868 17.0314C58.1288 18.0397 58.7721 18.9471 59.5773 19.698C60.3825 20.4488 61.3326 21.0273 62.3693 21.3978C63.406 21.7684 64.5075 21.9233 65.6062 21.853H76.3553C77.454 21.9233 78.5555 21.7684 79.5922 21.3978C80.6289 21.0273 81.5789 20.4488 82.3841 19.698C83.1893 18.9471 83.8326 18.0397 84.2746 17.0314C84.7166 16.0231 84.948 14.9351 84.9545 13.8342C84.9517 11.7051 84.1894 9.64692 82.8047 8.02966C82.7874 7.94455 82.7874 7.8568 82.8047 7.77168V1.49421C82.8081 1.30573 82.7598 1.11993 82.6651 0.956957C82.5703 0.793989 82.4328 0.660089 82.2673 0.569792ZM67.756 13.1247C67.5835 13.2166 67.3924 13.268 67.197 13.2752C67.0095 13.2741 66.8254 13.2239 66.6633 13.1296C66.5011 13.0353 66.3664 12.9002 66.2726 12.7378C65.9816 12.251 65.5689 11.8484 65.0751 11.5694C64.5814 11.2905 64.0235 11.1449 63.4564 11.1469C63.1713 11.1469 62.8979 11.0336 62.6963 10.8321C62.4947 10.6305 62.3815 10.3571 62.3815 10.072C62.3815 9.78691 62.4947 9.5135 62.6963 9.31191C62.8979 9.11033 63.1713 8.99708 63.4564 8.99708C64.393 9.00909 65.3106 9.26278 66.1204 9.73358C66.9302 10.2044 67.6046 10.8763 68.0785 11.6844C68.2137 11.9215 68.2556 12.2005 68.1959 12.4669C68.1363 12.7333 67.9794 12.9679 67.756 13.1247ZM78.5051 11.1469C77.9453 11.1523 77.3962 11.3014 76.9106 11.58C76.425 11.8586 76.0191 12.2572 75.7318 12.7378C75.638 12.9002 75.5034 13.0353 75.3412 13.1296C75.179 13.2239 74.995 13.2741 74.8074 13.2752C74.5975 13.2748 74.3909 13.2231 74.2055 13.1247C73.982 12.9679 73.8252 12.7333 73.7655 12.4669C73.7059 12.2005 73.7478 11.9215 73.883 11.6844C74.3568 10.8763 75.0313 10.2044 75.841 9.73358C76.6508 9.26278 77.5685 9.00909 78.5051 8.99708C78.7902 8.99708 79.0636 9.11033 79.2652 9.31191C79.4668 9.5135 79.58 9.78691 79.58 10.072C79.58 10.3571 79.4668 10.6305 79.2652 10.8321C79.0636 11.0336 78.7902 11.1469 78.5051 11.1469Z" fill="white"/>
</mask>
<g mask="url(#mask0_5184_8783)">
<circle cx="80.5062" cy="5.76402" r="11.3421" fill="#FFAC00"/>
<circle cx="42.2562" cy="32.2289" r="11.3421" fill="#FFAC00"/>
</g>
<rect y="26.8906" width="143" height="20.6827" rx="4.4479" fill="url(#paint0_linear_5184_8783)"/>
<path d="M8.22656 43.2847V31.1545H11.727V40.0962H16.3192V43.2847H8.22656Z" fill="white"/>
<path d="M23.3027 43.5446C22.1301 43.5446 21.1424 43.3165 20.3395 42.8601C19.5423 42.4038 18.9387 41.7684 18.5286 40.954C18.1185 40.1395 17.9134 39.1951 17.9134 38.1207V31.1545H21.4139V38.3113C21.4139 38.9756 21.5756 39.4694 21.8991 39.7929C22.2283 40.1106 22.6962 40.2695 23.3027 40.2695C23.9034 40.2695 24.3655 40.1106 24.689 39.7929C25.0125 39.4694 25.1742 38.9756 25.1742 38.3113V31.1545H28.692V38.1207C28.692 39.1893 28.4869 40.1308 28.0768 40.9453C27.6667 41.7598 27.0602 42.398 26.2573 42.8601C25.4602 43.3165 24.4753 43.5446 23.3027 43.5446Z" fill="white"/>
<path d="M36.9592 43.5446C35.7 43.5446 34.5852 43.2905 33.6148 42.7822C32.6501 42.2738 31.8934 41.5518 31.3447 40.616C30.8017 39.6745 30.5302 38.5597 30.5302 37.2716C30.5302 36.33 30.6891 35.4694 31.0068 34.6896C31.3245 33.9098 31.7721 33.2368 32.3498 32.6707C32.9332 32.1047 33.6205 31.6686 34.4119 31.3624C35.2032 31.0505 36.0697 30.8945 37.0112 30.8945C38.0856 30.8945 38.9694 31.0303 39.6625 31.3018C40.3557 31.5732 40.9969 31.9574 41.5861 32.4541L39.8705 35.3307C39.5586 34.9899 39.1773 34.7358 38.7268 34.5683C38.282 34.395 37.7852 34.3083 37.2365 34.3083C36.7455 34.3083 36.3123 34.3776 35.9368 34.5163C35.5614 34.6491 35.2437 34.8426 34.9837 35.0968C34.7296 35.3509 34.5361 35.6571 34.4032 36.0152C34.2704 36.3734 34.2039 36.7748 34.2039 37.2196C34.2039 37.8261 34.3252 38.346 34.5679 38.7792C34.8105 39.2124 35.1599 39.5474 35.6162 39.7843C36.0726 40.0153 36.6242 40.1308 37.2712 40.1308C37.7679 40.1308 38.2705 40.0529 38.7788 39.8969C39.2929 39.7409 39.7839 39.4954 40.2517 39.1604L41.846 42.089C41.303 42.5049 40.6301 42.8515 39.8272 43.1287C39.0243 43.406 38.0683 43.5446 36.9592 43.5446Z" fill="white"/>
<path d="M43.3921 43.2847V31.1545H46.8925V35.6427L50.4103 31.1545H54.7945L50.2716 36.7864L55.3143 43.2847H50.8261L47.9669 39.4204L46.8925 40.5814V43.2847H43.3921Z" fill="white"/>
<path d="M56.5241 43.2847V31.1545H60.0246V43.2847H56.5241Z" fill="white"/>
<path d="M72.1755 43.5446C70.9163 43.5446 69.8014 43.2905 68.831 42.7822C67.8664 42.2738 67.1097 41.5518 66.5609 40.616C66.018 39.6745 65.7465 38.5597 65.7465 37.2716C65.7465 36.33 65.9053 35.4694 66.223 34.6896C66.5407 33.9098 66.9884 33.2368 67.566 32.6707C68.1494 32.1047 68.8368 31.6686 69.6281 31.3624C70.4195 31.0505 71.2859 30.8945 72.2275 30.8945C73.3019 30.8945 74.1856 31.0303 74.8788 31.3018C75.572 31.5732 76.2131 31.9574 76.8023 32.4541L75.0868 35.3307C74.7748 34.9899 74.3936 34.7358 73.943 34.5683C73.4983 34.395 73.0015 34.3083 72.4528 34.3083C71.9618 34.3083 71.5285 34.3776 71.1531 34.5163C70.7776 34.6491 70.4599 34.8426 70.2 35.0968C69.9458 35.3509 69.7523 35.6571 69.6195 36.0152C69.4866 36.3734 69.4202 36.7748 69.4202 37.2196C69.4202 37.8261 69.5415 38.346 69.7841 38.7792C70.0267 39.2124 70.3762 39.5474 70.8325 39.7843C71.2888 40.0153 71.8405 40.1308 72.4874 40.1308C72.9842 40.1308 73.4867 40.0529 73.995 39.8969C74.5091 39.7409 75.0001 39.4954 75.468 39.1604L77.0622 42.089C76.5193 42.5049 75.8463 42.8515 75.0434 43.1287C74.2405 43.406 73.2845 43.5446 72.1755 43.5446Z" fill="white"/>
<path d="M77.2567 43.2847L81.6755 31.1545H85.8345L90.236 43.2847H86.285L85.6092 41.1186H81.7795L81.1037 43.2847H77.2567ZM82.5246 38.2247H84.8467L83.703 34.7589L82.5246 38.2247Z" fill="white"/>
<path d="M95.9735 43.5446C95.0031 43.5446 94.0587 43.3973 93.1402 43.1027C92.2276 42.8082 91.4535 42.3836 90.8181 41.8291L92.4384 39.2471C92.6752 39.5243 92.9929 39.7669 93.3915 39.9749C93.7901 40.1828 94.2175 40.3446 94.6738 40.4601C95.1302 40.5756 95.5634 40.6334 95.9735 40.6334C96.4356 40.6334 96.8168 40.5669 97.1172 40.4341C97.4176 40.3012 97.5677 40.1135 97.5677 39.8709C97.5677 39.6341 97.4522 39.4406 97.2212 39.2904C96.9901 39.1344 96.5627 38.9756 95.9388 38.8138L95.0377 38.5712C93.7207 38.2131 92.7792 37.7163 92.2131 37.0809C91.647 36.4398 91.364 35.6831 91.364 34.8109C91.364 34.2621 91.4824 33.7509 91.7192 33.2773C91.9619 32.8036 92.2969 32.3906 92.7243 32.0382C93.1575 31.6801 93.6659 31.4028 94.2493 31.2065C94.8327 31.0101 95.4652 30.9119 96.1468 30.9119C97.1288 30.9119 98.0414 31.0563 98.8848 31.3451C99.7339 31.6281 100.41 32.0209 100.912 32.5234L99.2313 35.0361C99.0292 34.7993 98.7692 34.5914 98.4515 34.4123C98.1338 34.2275 97.7844 34.083 97.4031 33.9791C97.0219 33.8751 96.6378 33.8231 96.2508 33.8231C95.9446 33.8231 95.6789 33.8607 95.4536 33.9358C95.2284 34.0051 95.0522 34.1033 94.9251 34.2303C94.8038 34.3516 94.7431 34.4932 94.7431 34.6549C94.7431 34.7993 94.7951 34.9177 94.8991 35.0101C95.0031 35.1026 95.1735 35.1921 95.4103 35.2787C95.6529 35.3654 95.9793 35.4694 96.3894 35.5907L97.2732 35.8506C98.5902 36.2376 99.5375 36.7142 100.115 37.2802C100.693 37.8463 100.982 38.577 100.982 39.4723C100.982 40.2752 100.774 40.9828 100.358 41.5951C99.9418 42.2074 99.3584 42.6868 98.6075 43.0334C97.8566 43.3742 96.9786 43.5446 95.9735 43.5446Z" fill="white"/>
<path d="M102.723 43.2847V31.1545H106.224V43.2847H102.723Z" fill="white"/>
<path d="M108.883 43.2847V31.1545H112.384L116.629 37.6701V31.1545H120.008V43.2847H116.508L112.262 36.6651V43.2847H108.883Z" fill="white"/>
<path d="M128.446 43.5446C127.499 43.5446 126.627 43.3858 125.829 43.0681C125.032 42.7446 124.339 42.2969 123.75 41.7251C123.167 41.1532 122.713 40.4832 122.39 39.7149C122.072 38.9467 121.913 38.1149 121.913 37.2196C121.913 36.3185 122.072 35.4838 122.39 34.7156C122.713 33.9473 123.167 33.2773 123.75 32.7054C124.339 32.1335 125.032 31.6888 125.829 31.3711C126.627 31.0534 127.499 30.8945 128.446 30.8945C129.393 30.8945 130.263 31.0563 131.054 31.3797C131.851 31.7032 132.542 32.1538 133.125 32.7314C133.714 33.309 134.17 33.982 134.494 34.7502C134.817 35.5127 134.979 36.3358 134.979 37.2196C134.979 38.1149 134.817 38.9467 134.494 39.7149C134.17 40.4832 133.714 41.1532 133.125 41.7251C132.542 42.2969 131.851 42.7446 131.054 43.0681C130.263 43.3858 129.393 43.5446 128.446 43.5446ZM128.446 40.2695C128.868 40.2695 129.252 40.2002 129.598 40.0615C129.951 39.9171 130.254 39.7121 130.508 39.4463C130.762 39.1806 130.959 38.86 131.097 38.4846C131.236 38.1091 131.305 37.6875 131.305 37.2196C131.305 36.5957 131.184 36.0557 130.941 35.5993C130.699 35.143 130.361 34.7906 129.928 34.5423C129.5 34.2939 129.006 34.1697 128.446 34.1697C128.024 34.1697 127.637 34.2419 127.285 34.3863C126.938 34.5249 126.638 34.7271 126.384 34.9928C126.13 35.2585 125.933 35.5791 125.795 35.9546C125.656 36.33 125.587 36.7517 125.587 37.2196C125.587 37.8434 125.708 38.3835 125.951 38.8398C126.193 39.2962 126.528 39.6485 126.956 39.8969C127.389 40.1453 127.886 40.2695 128.446 40.2695Z" fill="white"/>
<path d="M88.9034 21.7888C89.1036 21.7687 89.3124 21.7752 89.5047 21.8073C91.4825 22.1407 93.2092 22.6818 94.4839 23.4396C95.7585 24.1974 96.5287 25.1025 96.7049 26.0496C96.881 26.9967 96.4558 27.9469 95.4788 28.7895C94.5018 29.6321 93.0131 30.3325 91.1859 30.8092C91.0123 30.8654 90.8039 30.8955 90.5901 30.8955C90.3763 30.8955 90.1678 30.8654 89.9942 30.8092C89.8243 30.7477 89.7006 30.6642 89.6397 30.57C89.5788 30.4758 89.5837 30.3754 89.6537 30.2825C90.2483 29.4635 90.543 28.6064 90.5262 27.7447C90.4402 25.9234 89.633 24.1236 88.1427 22.4298C88.0683 22.3437 88.0508 22.2499 88.0922 22.1595C88.1337 22.0691 88.2323 21.986 88.3762 21.9202C88.5201 21.8545 88.7032 21.8088 88.9034 21.7888Z" fill="white"/>
<defs>
<linearGradient id="paint0_linear_5184_8783" x1="71.5" y1="26.8906" x2="71.5" y2="47.5734" gradientUnits="userSpaceOnUse">
<stop stop-color="#DE3434"/>
<stop offset="0.5" stop-color="#E36262"/>
<stop offset="0.985577" stop-color="#DE3434"/>
</linearGradient>
</defs>
</svg>
