<svg width="112" height="42" viewBox="0 0 112 42" fill="none" xmlns="http://www.w3.org/2000/svg">
<g id="logo">
<g id="Seefeld">
<path id="Vector" d="M108.174 23.3059L112 24.7238L105.733 25.9341L105.802 22.5625C105.525 23.0351 105.208 23.4904 104.85 23.9284C104.492 24.3549 104.088 24.7353 103.638 25.0696C103.199 25.4038 102.709 25.669 102.166 25.8649C101.624 26.0724 101.035 26.1761 100.4 26.1761C99.4999 26.1531 98.6458 25.9514 97.8378 25.571C97.0414 25.1906 96.3373 24.6488 95.7256 23.9457C95.1254 23.231 94.6464 22.3607 94.2886 21.3348C93.9423 20.2974 93.7692 19.1159 93.7692 17.7903C93.7692 16.1766 93.9596 14.7645 94.3405 13.5542C94.7214 12.3439 95.2408 11.3353 95.8987 10.5284C96.5566 9.7215 97.3242 9.11634 98.2014 8.7129C99.0901 8.30946 100.037 8.10774 101.041 8.10774C102.056 8.10774 102.997 8.32675 103.863 8.76477C104.74 9.19127 105.456 9.76761 106.01 10.4938L106.079 6.41329L101.854 4.82257L110.407 3.30103L108.174 23.3059ZM100.937 23.9803C100.972 23.9803 101.087 23.9687 101.283 23.9457C101.479 23.9226 101.722 23.865 102.01 23.7728C102.299 23.669 102.616 23.5192 102.963 23.3232C103.32 23.1273 103.672 22.8564 104.019 22.5106C104.376 22.1533 104.717 21.7095 105.04 21.1792C105.363 20.649 105.64 20.0035 105.871 19.2427L105.975 13.6061C105.802 13.1911 105.583 12.7934 105.317 12.413C105.063 12.0326 104.775 11.6984 104.451 11.4102C104.14 11.1105 103.788 10.8742 103.395 10.7013C103.014 10.5169 102.611 10.4246 102.183 10.4246C101.387 10.4246 100.706 10.6206 100.14 11.0125C99.5864 11.4044 99.1248 11.9462 98.7554 12.6378C98.3976 13.3294 98.1321 14.1478 97.959 15.093C97.7974 16.0382 97.7166 17.0641 97.7166 18.1707C97.7166 18.9891 97.7859 19.7557 97.9244 20.4703C98.0629 21.1735 98.2649 21.7844 98.5303 22.3031C98.7958 22.8218 99.1305 23.231 99.5345 23.5307C99.9385 23.8304 100.406 23.9803 100.937 23.9803Z" fill="white"/>
<path id="Vector_2" d="M89.3715 23.3061L92.8342 24.6894L84.1602 25.5366L87.2766 23.0986L86.7399 4.42508L82.7405 2.69605L91.501 1.5376L89.3715 23.3061Z" fill="white"/>
<path id="Vector_3" d="M72.3698 19.1217C72.5199 19.7672 72.7218 20.4012 72.9758 21.0237C73.2297 21.6346 73.5413 22.1821 73.9107 22.6662C74.28 23.1504 74.7071 23.5423 75.1919 23.842C75.6767 24.1417 76.2249 24.2915 76.8366 24.2915C77.6446 24.2915 78.3487 24.1244 78.9489 23.7901C79.5491 23.4558 80.0396 23.0351 80.4205 22.5279C80.8014 22.0092 81.0669 21.4444 81.2169 20.8335C81.367 20.211 81.3958 19.6174 81.3035 19.0526C81.6267 19.1794 81.8921 19.3465 82.0999 19.554C82.3192 19.7615 82.4866 19.992 82.602 20.2456C82.729 20.4877 82.8155 20.7413 82.8617 21.0064C82.9079 21.26 82.9309 21.5078 82.9309 21.7499C82.9309 22.3031 82.7694 22.8391 82.4462 23.3579C82.123 23.865 81.6671 24.3204 81.0784 24.7238C80.5013 25.1157 79.8145 25.4327 79.0181 25.6748C78.2217 25.9168 77.3503 26.0379 76.4038 26.0379C75.1342 26.0379 73.9973 25.79 72.9931 25.2944C72.0005 24.7987 71.1579 24.1302 70.4653 23.2887C69.7728 22.4357 69.2419 21.4386 68.8725 20.2975C68.5032 19.1563 68.3185 17.9402 68.3185 16.6492C68.3185 15.3351 68.5032 14.1248 68.8725 13.0182C69.2419 11.9001 69.7843 10.9492 70.5 10.1653C71.2271 9.3815 72.1159 8.78787 73.1662 8.38443C74.2166 7.98099 75.4285 7.81961 76.802 7.9003C77.7485 7.96946 78.6199 8.24034 79.4163 8.71294C80.2127 9.18555 80.9053 9.79647 81.4939 10.5457C82.0941 11.2834 82.5731 12.1307 82.9309 13.0874C83.3003 14.0441 83.5254 15.0412 83.6062 16.0786L72.3698 19.1217ZM72.0408 16.338C72.0408 16.4994 72.0408 16.6607 72.0408 16.8221C72.0408 16.972 72.0524 17.1276 72.0755 17.289L79.676 14.5225C79.4221 13.6926 79.1335 12.9837 78.8104 12.3958C78.4987 11.7964 78.1698 11.3065 77.8235 10.9261C77.4772 10.5457 77.1252 10.2691 76.7674 10.0962C76.4211 9.91174 76.0864 9.81953 75.7632 9.81953C75.2784 9.81953 74.8514 9.91174 74.482 10.0962C74.1127 10.2806 73.7895 10.5342 73.5125 10.8569C73.247 11.1682 73.0162 11.537 72.82 11.9635C72.6353 12.39 72.4852 12.8453 72.3698 13.3295C72.2544 13.8136 72.1678 14.315 72.1101 14.8337C72.0639 15.3409 72.0408 15.8423 72.0408 16.338Z" fill="white"/>
<path id="Vector_4" d="M61.7567 11.5831V12.0845C61.7567 13.0874 61.7451 14.0556 61.722 14.9893C61.6989 15.9115 61.6701 16.8221 61.6355 17.7212C61.6124 18.6203 61.5893 19.5078 61.5662 20.3839C61.5431 21.2599 61.5258 22.1417 61.5143 23.0293L65.5136 25.2598H56.1991L59.3155 23.1331C59.0615 20.8046 58.8596 18.6952 58.7095 16.8048C58.571 14.9029 58.4671 13.3064 58.3979 12.0154L55.8701 12.292L58.2594 8.50543C58.3402 7.4219 58.5075 6.42482 58.7614 5.5142C59.0154 4.59205 59.3732 3.79669 59.8349 3.12813C60.3081 2.45957 60.8968 1.94086 61.6008 1.572C62.3049 1.19161 63.1533 1.00142 64.1459 1.00142C64.4922 1.00142 64.85 1.036 65.2193 1.10516C65.5887 1.1628 65.9465 1.25501 66.2927 1.38181C66.6506 1.5086 66.9853 1.66998 67.2969 1.86594C67.6086 2.06189 67.8683 2.29243 68.076 2.55755L70.8808 0.5L68.1453 7.41614C68.1222 6.713 68.0299 6.1136 67.8683 5.61794C67.7182 5.11076 67.5278 4.69003 67.2969 4.35575C67.0776 4.02147 66.8352 3.76211 66.5698 3.57768C66.3043 3.38172 66.0561 3.23764 65.8253 3.14542C65.5944 3.04168 65.3982 2.97828 65.2366 2.95523C65.075 2.92065 64.9827 2.90336 64.9596 2.90336C64.4056 2.93794 63.9439 3.1166 63.5746 3.43936C63.2052 3.76211 62.8993 4.2059 62.6569 4.77071C62.4261 5.33553 62.2472 6.00985 62.1202 6.79368C61.9933 7.56598 61.8952 8.41897 61.8259 9.35265H68.1453L66.8641 10.9434L61.7567 11.5831Z" fill="white"/>
<path id="Vector_5" d="M43.5949 19.1217C43.7449 19.7672 43.9469 20.4012 44.2009 21.0237C44.4548 21.6346 44.7664 22.1821 45.1358 22.6662C45.5051 23.1504 45.9322 23.5423 46.417 23.842C46.9017 24.1417 47.45 24.2915 48.0617 24.2915C48.8697 24.2915 49.5738 24.1244 50.174 23.7901C50.7742 23.4558 51.2647 23.0351 51.6456 22.5279C52.0265 22.0092 52.292 21.4444 52.442 20.8335C52.5921 20.211 52.6209 19.6174 52.5286 19.0526C52.8518 19.1794 53.1172 19.3465 53.325 19.554C53.5443 19.7615 53.7117 19.992 53.8271 20.2456C53.9541 20.4877 54.0406 20.7413 54.0868 21.0064C54.133 21.26 54.156 21.5078 54.156 21.7499C54.156 22.3031 53.9944 22.8391 53.6713 23.3579C53.3481 23.865 52.8922 24.3204 52.3035 24.7238C51.7264 25.1157 51.0396 25.4327 50.2432 25.6748C49.4468 25.9168 48.5754 26.0379 47.6289 26.0379C46.3593 26.0379 45.2224 25.79 44.2182 25.2944C43.2255 24.7987 42.383 24.1302 41.6904 23.2887C40.9979 22.4357 40.467 21.4386 40.0976 20.2975C39.7283 19.1563 39.5436 17.9402 39.5436 16.6492C39.5436 15.3351 39.7283 14.1248 40.0976 13.0182C40.467 11.9001 41.0094 10.9492 41.7251 10.1653C42.4522 9.3815 43.341 8.78787 44.3913 8.38443C45.4417 7.98099 46.6536 7.81961 48.0271 7.9003C48.9736 7.96946 49.845 8.24034 50.6414 8.71294C51.4378 9.18555 52.1304 9.79647 52.719 10.5457C53.3192 11.2834 53.7982 12.1307 54.156 13.0874C54.5254 14.0441 54.7505 15.0412 54.8313 16.0786L43.5949 19.1217ZM43.2659 16.338C43.2659 16.4994 43.2659 16.6607 43.2659 16.8221C43.2659 16.972 43.2775 17.1276 43.3006 17.289L50.9011 14.5225C50.6472 13.6926 50.3586 12.9837 50.0355 12.3958C49.7238 11.7964 49.3949 11.3065 49.0486 10.9261C48.7023 10.5457 48.3503 10.2691 47.9925 10.0962C47.6462 9.91174 47.3115 9.81953 46.9883 9.81953C46.5035 9.81953 46.0765 9.91174 45.7071 10.0962C45.3378 10.2806 45.0146 10.5342 44.7376 10.8569C44.4721 11.1682 44.2413 11.537 44.045 11.9635C43.8604 12.39 43.7103 12.8453 43.5949 13.3295C43.4795 13.8136 43.3929 14.315 43.3352 14.8337C43.289 15.3409 43.2659 15.8423 43.2659 16.338Z" fill="white"/>
<path id="Vector_6" d="M26.5586 19.1217C26.7087 19.7672 26.9107 20.4012 27.1646 21.0237C27.4185 21.6346 27.7302 22.1821 28.0995 22.6662C28.4689 23.1504 28.8959 23.5423 29.3807 23.842C29.8655 24.1417 30.4138 24.2915 31.0255 24.2915C31.8334 24.2915 32.5375 24.1244 33.1377 23.7901C33.7379 23.4558 34.2285 23.0351 34.6094 22.5279C34.9902 22.0092 35.2557 21.4444 35.4058 20.8335C35.5558 20.211 35.5847 19.6174 35.4923 19.0526C35.8155 19.1794 36.081 19.3465 36.2887 19.554C36.508 19.7615 36.6754 19.992 36.7908 20.2456C36.9178 20.4877 37.0044 20.7413 37.0505 21.0064C37.0967 21.26 37.1198 21.5078 37.1198 21.7499C37.1198 22.3031 36.9582 22.8391 36.635 23.3579C36.3118 23.865 35.8559 24.3204 35.2673 24.7238C34.6901 25.1157 34.0034 25.4327 33.207 25.6748C32.4106 25.9168 31.5391 26.0379 30.5927 26.0379C29.323 26.0379 28.1861 25.79 27.1819 25.2944C26.1893 24.7987 25.3467 24.1302 24.6542 23.2887C23.9616 22.4357 23.4307 21.4386 23.0614 20.2975C22.692 19.1563 22.5073 17.9402 22.5073 16.6492C22.5073 15.3351 22.692 14.1248 23.0614 13.0182C23.4307 11.9001 23.9732 10.9492 24.6888 10.1653C25.416 9.3815 26.3047 8.78787 27.3551 8.38443C28.4054 7.98099 29.6173 7.81961 30.9909 7.9003C31.9373 7.96946 32.8088 8.24034 33.6052 8.71294C34.4016 9.18555 35.0941 9.79647 35.6828 10.5457C36.283 11.2834 36.762 12.1307 37.1198 13.0874C37.4891 14.0441 37.7142 15.0412 37.795 16.0786L26.5586 19.1217ZM26.2297 16.338C26.2297 16.4994 26.2297 16.6607 26.2297 16.8221C26.2297 16.972 26.2412 17.1276 26.2643 17.289L33.8649 14.5225C33.6109 13.6926 33.3224 12.9837 32.9992 12.3958C32.6876 11.7964 32.3586 11.3065 32.0123 10.9261C31.6661 10.5457 31.314 10.2691 30.9562 10.0962C30.61 9.91174 30.2752 9.81953 29.9521 9.81953C29.4673 9.81953 29.0402 9.91174 28.6709 10.0962C28.3015 10.2806 27.9783 10.5342 27.7013 10.8569C27.4359 11.1682 27.205 11.537 27.0088 11.9635C26.8241 12.39 26.6741 12.8453 26.5586 13.3295C26.4432 13.8136 26.3567 14.315 26.2989 14.8337C26.2528 15.3409 26.2297 15.8423 26.2297 16.338Z" fill="white"/>
<path id="Vector_7" d="M10.4919 2.05609C11.2768 2.05609 12.027 2.13101 12.7426 2.28086C13.4698 2.41919 14.145 2.60938 14.7683 2.85144C15.3916 3.08198 15.9571 3.3471 16.465 3.6468C16.9728 3.9465 17.4057 4.2462 17.7635 4.5459L22.265 1.45093L17.0883 11.3756L16.6901 6.17119C16.3553 5.94065 15.9918 5.73893 15.5993 5.56603C15.2184 5.3816 14.8318 5.23175 14.4393 5.11648C14.0584 4.98968 13.6891 4.8917 13.3313 4.82254C12.9735 4.74186 12.6561 4.67846 12.379 4.63235C12.102 4.58624 11.877 4.55742 11.7038 4.5459C11.5422 4.52284 11.4557 4.51132 11.4441 4.51132C10.6592 4.51132 10.0013 4.59777 9.4704 4.77067C8.93945 4.94358 8.50662 5.16835 8.1719 5.445C7.84871 5.72164 7.6121 6.03863 7.46205 6.39596C7.32354 6.74177 7.25429 7.09334 7.25429 7.45067C7.25429 8.17687 7.40434 8.79356 7.70444 9.30074C8.00453 9.7964 8.46045 10.2402 9.07219 10.6321C9.68393 11.024 10.463 11.3929 11.4095 11.7387C12.356 12.073 13.4698 12.4361 14.751 12.828C15.5243 13.07 16.2515 13.3986 16.9324 13.8135C17.625 14.217 18.2252 14.6953 18.733 15.2486C19.2409 15.7904 19.6391 16.4013 19.9277 17.0814C20.2278 17.75 20.3778 18.4704 20.3778 19.2427C20.3778 20.1418 20.2508 20.9429 19.9969 21.646C19.743 22.3377 19.4025 22.9486 18.9754 23.4788C18.5599 23.9975 18.0751 24.4413 17.5211 24.8102C16.9671 25.1675 16.39 25.4557 15.7898 25.6747C15.2011 25.9052 14.6009 26.0666 13.9892 26.1588C13.389 26.2626 12.8234 26.3144 12.2925 26.3144C10.7343 26.3144 9.32035 26.0493 8.0507 25.5191C6.78106 24.9888 5.59798 24.2626 4.50147 23.3405L0 26.4182L5.02087 17.5309C5.15938 18.3609 5.40176 19.162 5.74803 19.9343C6.10584 20.6951 6.54444 21.3752 7.06384 21.9746C7.58324 22.574 8.18344 23.0523 8.86443 23.4097C9.54542 23.767 10.2899 23.9457 11.0979 23.9457C11.7442 23.9457 12.3329 23.8477 12.8638 23.6517C13.4063 23.4558 13.868 23.1964 14.2489 22.8737C14.6298 22.5394 14.9241 22.159 15.1319 21.7325C15.3512 21.2945 15.4608 20.8392 15.4608 20.3666C15.4608 19.7095 15.2761 19.1447 14.9068 18.6721C14.5374 18.188 14.0527 17.7615 13.4525 17.3926C12.8523 17.0122 12.1655 16.6664 11.3922 16.3552C10.6304 16.0324 9.84552 15.7039 9.03756 15.3696C8.22961 15.0354 7.43896 14.6665 6.66564 14.2631C5.90385 13.8596 5.22286 13.387 4.62266 12.8453C4.02247 12.292 3.53769 11.6465 3.16834 10.9087C2.79899 10.171 2.61431 9.30074 2.61431 8.2979C2.61431 7.5256 2.76436 6.77059 3.06446 6.03287C3.3761 5.28362 3.84933 4.61506 4.48416 4.02719C5.13052 3.43932 5.95002 2.96671 6.94265 2.60938C7.93528 2.24052 9.11836 2.05609 10.4919 2.05609Z" fill="white"/>
</g>
<g id="tirols hochplateau">
<path id="Vector_8" d="M106.732 34.269H107.674V39.0945C107.674 39.6301 107.555 40.0759 107.316 40.4319C107.077 40.7879 106.76 41.0557 106.364 41.2353C105.972 41.4117 105.545 41.4999 105.084 41.4999C104.6 41.4999 104.162 41.4117 103.769 41.2353C103.38 41.0557 103.071 40.7879 102.842 40.4319C102.616 40.0759 102.504 39.6301 102.504 39.0945V34.269H103.441V39.0945C103.441 39.4668 103.509 39.7738 103.647 40.0155C103.784 40.2572 103.975 40.4368 104.221 40.5544C104.469 40.6719 104.757 40.7307 105.084 40.7307C105.414 40.7307 105.702 40.6719 105.947 40.5544C106.196 40.4368 106.389 40.2572 106.526 40.0155C106.663 39.7738 106.732 39.4668 106.732 39.0945V34.269Z" fill="white"/>
<path id="Vector_9" d="M98.8245 34.901L96.46 41.4019H95.4937L98.2162 34.269H98.8392L98.8245 34.901ZM100.806 41.4019L98.4369 34.901L98.4222 34.269H99.0452L101.778 41.4019H100.806ZM100.684 38.7614V39.5354H96.671V38.7614H100.684Z" fill="white"/>
<path id="Vector_10" d="M95.0081 40.6328V41.4019H91.226V40.6328H95.0081ZM91.4173 34.269V41.4019H90.4706V34.269H91.4173ZM94.5078 37.3358V38.1049H91.226V37.3358H94.5078ZM94.9591 34.269V35.0431H91.226V34.269H94.9591Z" fill="white"/>
<path id="Vector_11" d="M87.1152 34.269V41.4019H86.1832V34.269H87.1152ZM89.411 34.269V35.0431H83.8923V34.269H89.411Z" fill="white"/>
<path id="Vector_12" d="M81.2042 34.901L78.8398 41.4019H77.8734L80.5959 34.269H81.2189L81.2042 34.901ZM83.186 41.4019L80.8167 34.901L80.802 34.269H81.425L84.1573 41.4019H83.186ZM83.0634 38.7614V39.5354H79.0507V38.7614H83.0634Z" fill="white"/>
<path id="Vector_13" d="M77.378 40.6328V41.4019H73.8069V40.6328H77.378ZM73.9933 34.269V41.4019H73.0465V34.269H73.9933Z" fill="white"/>
<path id="Vector_14" d="M69.3428 38.6046H67.4346V37.8355H69.3428C69.7124 37.8355 70.0116 37.7767 70.2405 37.6591C70.4695 37.5415 70.6362 37.3782 70.7409 37.1692C70.8488 36.9602 70.9028 36.7218 70.9028 36.454C70.9028 36.209 70.8488 35.9788 70.7409 35.7632C70.6362 35.5477 70.4695 35.3746 70.2405 35.2439C70.0116 35.11 69.7124 35.0431 69.3428 35.0431H67.6554V41.4019H66.7086V34.269H69.3428C69.8824 34.269 70.3386 34.3621 70.7115 34.5483C71.0843 34.7344 71.3672 34.9925 71.5601 35.3223C71.7531 35.6489 71.8495 36.0229 71.8495 36.4442C71.8495 36.9014 71.7531 37.2917 71.5601 37.615C71.3672 37.9383 71.0843 38.1849 70.7115 38.3547C70.3386 38.5213 69.8824 38.6046 69.3428 38.6046Z" fill="white"/>
<path id="Vector_15" d="M64.2019 37.3358V38.1049H60.3365V37.3358H64.2019ZM60.4836 34.269V41.4019H59.5369V34.269H60.4836ZM65.0261 34.269V41.4019H64.0842V34.269H65.0261Z" fill="white"/>
<path id="Vector_16" d="M57.3048 39.1338H58.2467C58.1976 39.5845 58.0684 39.9878 57.8591 40.3438C57.6498 40.6998 57.3539 40.9823 56.9712 41.1913C56.5886 41.3971 56.1112 41.4999 55.5389 41.4999C55.1203 41.4999 54.7393 41.4216 54.3959 41.2648C54.0558 41.108 53.7631 40.8859 53.5178 40.5985C53.2725 40.3079 53.0829 39.96 52.9488 39.5551C52.818 39.1468 52.7526 38.6929 52.7526 38.1932V37.4828C52.7526 36.9831 52.818 36.5308 52.9488 36.1258C53.0829 35.7176 53.2742 35.3681 53.5227 35.0774C53.7745 34.7868 54.077 34.5631 54.4302 34.4063C54.7834 34.2495 55.1808 34.1711 55.6222 34.1711C56.1618 34.1711 56.6181 34.2724 56.9909 34.4749C57.3637 34.6774 57.6531 34.9582 57.8591 35.3175C58.0684 35.6735 58.1976 36.0866 58.2467 36.5569H57.3048C57.259 36.2238 57.174 35.938 57.0497 35.6996C56.9255 35.4579 56.7489 35.2718 56.5199 35.1411C56.291 35.0105 55.9918 34.9452 55.6222 34.9452C55.305 34.9452 55.0254 35.0056 54.7834 35.1264C54.5447 35.2473 54.3436 35.4187 54.18 35.6408C54.0198 35.8629 53.8988 36.1291 53.817 36.4393C53.7353 36.7496 53.6944 37.0942 53.6944 37.473V38.1932C53.6944 38.5426 53.7304 38.8708 53.8023 39.1778C53.8775 39.4848 53.9904 39.7543 54.1408 39.9862C54.2912 40.2181 54.4826 40.4009 54.7147 40.5349C54.9469 40.6655 55.2216 40.7308 55.5389 40.7308C55.9411 40.7308 56.2616 40.6671 56.5003 40.5398C56.7391 40.4124 56.9189 40.2295 57.0399 39.9911C57.1642 39.7527 57.2525 39.4669 57.3048 39.1338Z" fill="white"/>
<path id="Vector_17" d="M51.5753 37.6102V38.0609C51.5753 38.5965 51.5083 39.0766 51.3742 39.5012C51.2401 39.9258 51.0472 40.2866 50.7954 40.5838C50.5436 40.881 50.2411 41.108 49.8879 41.2648C49.5379 41.4216 49.1455 41.4999 48.7106 41.4999C48.2887 41.4999 47.9012 41.4216 47.548 41.2648C47.198 41.108 46.8939 40.881 46.6355 40.5838C46.3805 40.2866 46.1826 39.9258 46.042 39.5012C45.9014 39.0766 45.8311 38.5965 45.8311 38.0609V37.6102C45.8311 37.0746 45.8997 36.5961 46.0371 36.1748C46.1777 35.7502 46.3756 35.3893 46.6306 35.0921C46.8857 34.7917 47.1882 34.5631 47.5381 34.4063C47.8913 34.2495 48.2789 34.1711 48.7007 34.1711C49.1357 34.1711 49.5281 34.2495 49.878 34.4063C50.2312 34.5631 50.5337 34.7917 50.7856 35.0921C51.0406 35.3893 51.2352 35.7502 51.3693 36.1748C51.5067 36.5961 51.5753 37.0746 51.5753 37.6102ZM50.6384 38.0609V37.6004C50.6384 37.1758 50.5942 36.8002 50.5059 36.4736C50.4209 36.147 50.295 35.8727 50.1282 35.6506C49.9614 35.4285 49.757 35.2603 49.515 35.146C49.2763 35.0317 49.0049 34.9746 48.7007 34.9746C48.4064 34.9746 48.1399 35.0317 47.9012 35.146C47.6657 35.2603 47.4629 35.4285 47.2929 35.6506C47.1261 35.8727 46.9969 36.147 46.9053 36.4736C46.8138 36.8002 46.768 37.1758 46.768 37.6004V38.0609C46.768 38.4887 46.8138 38.8676 46.9053 39.1974C46.9969 39.524 47.1277 39.8 47.2978 40.0254C47.4711 40.2474 47.6755 40.4156 47.911 40.53C48.1497 40.6443 48.4162 40.7014 48.7106 40.7014C49.018 40.7014 49.291 40.6443 49.5298 40.53C49.7685 40.4156 49.9696 40.2474 50.1331 40.0254C50.2999 39.8 50.4258 39.524 50.5109 39.1974C50.5959 38.8676 50.6384 38.4887 50.6384 38.0609Z" fill="white"/>
<path id="Vector_18" d="M43.5695 37.3358V38.1049H39.704V37.3358H43.5695ZM39.8512 34.269V41.4019H38.9044V34.269H39.8512ZM44.3936 34.269V41.4019H43.4518V34.269H44.3936Z" fill="white"/>
<path id="Vector_19" d="M34.2542 39.5992C34.2542 39.4326 34.228 39.2856 34.1757 39.1583C34.1266 39.0276 34.0383 38.91 33.9108 38.8055C33.7865 38.701 33.6132 38.6014 33.3908 38.5067C33.1717 38.412 32.8937 38.3156 32.5569 38.2177C32.2037 38.1131 31.8848 37.9972 31.6003 37.8698C31.3158 37.7392 31.0722 37.5906 30.8694 37.424C30.6667 37.2575 30.5113 37.0664 30.4034 36.8509C30.2955 36.6353 30.2415 36.3887 30.2415 36.1111C30.2415 35.8335 30.2987 35.5771 30.4132 35.342C30.5277 35.1068 30.6912 34.9027 30.9038 34.7296C31.1196 34.5533 31.3763 34.4161 31.6739 34.3181C31.9715 34.2201 32.3034 34.1711 32.6697 34.1711C33.206 34.1711 33.6606 34.274 34.0334 34.4798C34.4095 34.6823 34.6957 34.9484 34.8919 35.2783C35.0881 35.6049 35.1862 35.9544 35.1862 36.3267H34.2444C34.2444 36.0589 34.1871 35.8221 34.0727 35.6163C33.9582 35.4073 33.7849 35.244 33.5527 35.1264C33.3205 35.0056 33.0262 34.9452 32.6697 34.9452C32.3329 34.9452 32.0549 34.9958 31.8358 35.097C31.6167 35.1983 31.4532 35.3355 31.3452 35.5086C31.2406 35.6816 31.1883 35.8792 31.1883 36.1013C31.1883 36.2516 31.2193 36.3887 31.2815 36.5128C31.3469 36.6337 31.4466 36.7463 31.5807 36.8509C31.7181 36.9554 31.8914 37.0517 32.1007 37.1399C32.3133 37.2281 32.5667 37.313 32.861 37.3946C33.2665 37.5089 33.6165 37.6363 33.9108 37.7768C34.2051 37.9172 34.4471 38.0756 34.6368 38.252C34.8297 38.425 34.972 38.6226 35.0636 38.8447C35.1584 39.0635 35.2058 39.3118 35.2058 39.5894C35.2058 39.88 35.147 40.1429 35.0292 40.3781C34.9115 40.6132 34.7431 40.8141 34.524 40.9807C34.3049 41.1472 34.0416 41.2762 33.7342 41.3677C33.4301 41.4558 33.0899 41.4999 32.7139 41.4999C32.3836 41.4999 32.0582 41.4542 31.7377 41.3628C31.4205 41.2713 31.131 41.1342 30.8694 40.9513C30.6111 40.7684 30.4034 40.543 30.2464 40.2752C30.0927 40.0041 30.0159 39.6906 30.0159 39.3346H30.9577C30.9577 39.5796 31.0051 39.7902 31.1 39.9666C31.1948 40.1397 31.324 40.2834 31.4875 40.3977C31.6543 40.512 31.8423 40.5969 32.0516 40.6524C32.2642 40.7047 32.4849 40.7308 32.7139 40.7308C33.0442 40.7308 33.3238 40.6851 33.5527 40.5936C33.7816 40.5022 33.9549 40.3716 34.0727 40.2017C34.1937 40.0319 34.2542 39.831 34.2542 39.5992Z" fill="white"/>
<path id="Vector_20" d="M29.3634 40.6328V41.4019H25.7922V40.6328H29.3634ZM25.9786 34.269V41.4019H25.0319V34.269H25.9786Z" fill="white"/>
<path id="Vector_21" d="M23.6143 37.6102V38.0609C23.6143 38.5965 23.5472 39.0766 23.4131 39.5012C23.2791 39.9258 23.0861 40.2866 22.8343 40.5838C22.5825 40.881 22.28 41.108 21.9268 41.2648C21.5769 41.4216 21.1844 41.4999 20.7495 41.4999C20.3276 41.4999 19.9401 41.4216 19.5869 41.2648C19.237 41.108 18.9328 40.881 18.6745 40.5838C18.4194 40.2866 18.2216 39.9258 18.0809 39.5012C17.9403 39.0766 17.87 38.5965 17.87 38.0609V37.6102C17.87 37.0746 17.9387 36.5961 18.076 36.1748C18.2166 35.7502 18.4145 35.3893 18.6696 35.0921C18.9247 34.7917 19.2272 34.5631 19.5771 34.4063C19.9303 34.2495 20.3178 34.1711 20.7397 34.1711C21.1746 34.1711 21.5671 34.2495 21.917 34.4063C22.2702 34.5631 22.5727 34.7917 22.8245 35.0921C23.0796 35.3893 23.2742 35.7502 23.4082 36.1748C23.5456 36.5961 23.6143 37.0746 23.6143 37.6102ZM22.6773 38.0609V37.6004C22.6773 37.1758 22.6332 36.8002 22.5449 36.4736C22.4599 36.147 22.334 35.8727 22.1672 35.6506C22.0004 35.4285 21.796 35.2603 21.554 35.146C21.3153 35.0317 21.0438 34.9746 20.7397 34.9746C20.4454 34.9746 20.1788 35.0317 19.9401 35.146C19.7046 35.2603 19.5019 35.4285 19.3318 35.6506C19.165 35.8727 19.0359 36.147 18.9443 36.4736C18.8527 36.8002 18.8069 37.1758 18.8069 37.6004V38.0609C18.8069 38.4887 18.8527 38.8676 18.9443 39.1974C19.0359 39.524 19.1667 39.8 19.3367 40.0254C19.51 40.2474 19.7144 40.4156 19.9499 40.53C20.1886 40.6443 20.4552 40.7014 20.7495 40.7014C21.0569 40.7014 21.33 40.6443 21.5687 40.53C21.8074 40.4156 22.0086 40.2474 22.1721 40.0254C22.3389 39.8 22.4648 39.524 22.5498 39.1974C22.6348 38.8676 22.6773 38.4887 22.6773 38.0609Z" fill="white"/>
<path id="Vector_22" d="M11.9246 34.269H14.289C14.8253 34.269 15.2783 34.3507 15.6478 34.514C16.0206 34.6773 16.3035 34.919 16.4964 35.239C16.6927 35.5558 16.7908 35.9461 16.7908 36.4099C16.7908 36.7365 16.7237 37.0353 16.5896 37.3064C16.4588 37.5742 16.2692 37.8028 16.0206 37.9922C15.7753 38.1784 15.481 38.3172 15.1376 38.4086L14.8727 38.5115H12.6506L12.6408 37.7424H14.3184C14.6585 37.7424 14.9414 37.6836 15.1671 37.566C15.3927 37.4452 15.5628 37.2835 15.6772 37.081C15.7917 36.8785 15.8489 36.6548 15.8489 36.4099C15.8489 36.1355 15.795 35.8955 15.687 35.6897C15.5791 35.484 15.4091 35.3256 15.1769 35.2145C14.948 35.1002 14.652 35.0431 14.289 35.0431H12.8713V41.4019H11.9246V34.269ZM16.0991 41.4019L14.3626 38.1686L15.3486 38.1637L17.1096 41.3431V41.4019H16.0991Z" fill="white"/>
<path id="Vector_23" d="M10.2029 34.269V41.4019H9.2561V34.269H10.2029Z" fill="white"/>
<path id="Vector_24" d="M5.83189 34.2693V41.4021H4.89985V34.2693H5.83189ZM8.12764 34.2693V35.0433H2.60901V34.2693H8.12764Z" fill="white"/>
</g>
</g>
</svg>
