<svg width="97" height="48" viewBox="0 0 97 48" fill="none" xmlns="http://www.w3.org/2000/svg">
<path d="M14.462 14.1297V18.2713H3.74075V14.1297H14.462ZM18.1359 21.4776H12.2576L9.05127 6.41446L5.74472 21.4776H0L5.51092 0.0351562H12.625L18.1359 21.4776Z" fill="url(#paint0_linear_1405_13790)"/>
<path d="M28.4553 9.15322V4.94488C28.4553 4.69995 28.3885 4.52182 28.2549 4.41049C28.1213 4.27689 27.9098 4.21009 27.6204 4.21009H21.408V0.0351562H29.3905C31.1718 0.0351562 32.4299 0.413684 33.1647 1.17074C33.9217 1.9278 34.3003 2.92978 34.3003 4.1767V9.72101C34.3003 10.9679 33.9217 11.9699 33.1647 12.727C32.4299 13.484 31.1718 13.8626 29.3905 13.8626H21.408V9.88801H27.6204C27.9098 9.88801 28.1213 9.83235 28.2549 9.72101C28.3885 9.58742 28.4553 9.39815 28.4553 9.15322ZM19.4709 0.0351562H25.3158V21.4776H19.4709V0.0351562ZM24.6478 11.5246H30.3591L35.369 21.4776H29.0899L24.6478 11.5246Z" fill="url(#paint1_linear_1405_13790)"/>
<path d="M42.3052 4.61089V16.9019C42.3052 17.1468 42.372 17.3361 42.5056 17.4697C42.6392 17.581 42.8507 17.6367 43.1402 17.6367H43.9084V21.4776H41.37C39.5887 21.4776 38.3195 21.0991 37.5624 20.3421C36.8277 19.585 36.4603 18.583 36.4603 17.3361V4.1767C36.4603 2.92978 36.8277 1.9278 37.5624 1.17074C38.3195 0.413684 39.5887 0.0351562 41.37 0.0351562H44.042V3.8761H43.1402C42.8507 3.8761 42.6392 3.9429 42.5056 4.0765C42.372 4.18783 42.3052 4.36596 42.3052 4.61089ZM51.0224 9.62082V13.3282H43.5076V9.62082H51.0224ZM45.1775 7.38305V4.61089C45.1775 4.36596 45.1107 4.18783 44.9771 4.0765C44.8435 3.9429 44.632 3.8761 44.3425 3.8761H43.4408V0.0351562H46.1127C47.894 0.0351562 49.1521 0.413684 49.8869 1.17074C50.6439 1.9278 51.0224 2.92978 51.0224 4.1767V7.38305H45.1775ZM45.1775 16.9019V12.1926H51.0224V17.3361C51.0224 18.583 50.6439 19.585 49.8869 20.3421C49.1521 21.0991 47.894 21.4776 46.1127 21.4776H43.5744V17.6367H44.3425C44.632 17.6367 44.8435 17.581 44.9771 17.4697C45.1107 17.3361 45.1775 17.1468 45.1775 16.9019Z" fill="url(#paint2_linear_1405_13790)"/>
<path d="M63.3795 15.4991H58.3362L52.0237 0.0351562H58.0022L60.8077 9.08642L63.4129 0.0351562H69.358L63.3795 15.4991ZM57.9354 12.393H63.7803V21.4776H57.9354V12.393Z" fill="url(#paint3_linear_1405_13790)"/>
<path d="M70.6791 0.0351562H76.524V21.4776H70.6791V0.0351562ZM72.6163 21.4776V17.3027H83.1705V21.4776H72.6163Z" fill="url(#paint4_linear_1405_13790)"/>
<path d="M84.5086 0.0351562H90.3535V21.4776H84.5086V0.0351562ZM86.4458 21.4776V17.3027H97V21.4776H86.4458Z" fill="url(#paint5_linear_1405_13790)"/>
<path d="M7.0139 31.0974V43.3884C7.0139 43.6334 7.0807 43.8226 7.21429 43.9562C7.34789 44.0676 7.55942 44.1232 7.84889 44.1232H8.71727V47.9642H6.07871C4.2974 47.9642 3.02822 47.5856 2.27117 46.8286C1.53638 46.0715 1.16898 45.0695 1.16898 43.8226V30.6632C1.16898 29.4163 1.53638 28.4143 2.27117 27.6573C3.02822 26.9002 4.2974 26.5217 6.07871 26.5217H8.71727V30.3626H7.84889C7.55942 30.3626 7.34789 30.4294 7.21429 30.563C7.0807 30.6744 7.0139 30.8525 7.0139 31.0974ZM9.85286 34.5376V31.0974C9.85286 30.8525 9.78606 30.6744 9.65246 30.563C9.51886 30.4294 9.30733 30.3626 9.01787 30.3626H8.14948V26.5217H10.788C12.5694 26.5217 13.8274 26.9002 14.5622 27.6573C15.3192 28.4143 15.6978 29.4163 15.6978 30.6632V34.5376H9.85286ZM9.85286 43.3884V40.0819H15.6978V43.8226C15.6978 45.0695 15.3192 46.0715 14.5622 46.8286C13.8274 47.5856 12.5694 47.9642 10.788 47.9642H8.14948V44.1232H9.01787C9.30733 44.1232 9.51886 44.0676 9.65246 43.9562C9.78606 43.8226 9.85286 43.6334 9.85286 43.3884Z" fill="#FF0015"/>
<path d="M30.9987 40.6163V44.7578H20.2774V40.6163H30.9987ZM34.6726 47.9642H28.7943L25.5879 32.901L22.2814 47.9642H16.5367L22.0476 26.5217H29.1617L34.6726 47.9642Z" fill="#FF0015"/>
<path d="M44.2238 43.0544V40.0151C44.2238 39.7702 44.157 39.592 44.0234 39.4807C43.8898 39.3471 43.6783 39.2803 43.3888 39.2803H40.1825C38.4457 39.2803 37.2545 38.8906 36.6087 38.1113C35.9853 37.332 35.6735 36.3189 35.6735 35.072V30.6632C35.6735 29.4163 36.0409 28.4143 36.7757 27.6573C37.5105 26.9002 38.7686 26.5217 40.5499 26.5217H45.1256C46.9069 26.5217 48.165 26.9002 48.8998 27.6573C49.6345 28.4143 50.0019 29.4163 50.0019 30.6632V33.235H44.157V31.4314C44.157 31.1865 44.0902 31.0083 43.9566 30.897C43.823 30.7634 43.6115 30.6966 43.322 30.6966H42.3535C42.064 30.6966 41.8525 30.7634 41.7189 30.897C41.5853 31.0083 41.5185 31.1865 41.5185 31.4314V34.6044C41.5185 34.8493 41.5853 35.0386 41.7189 35.1722C41.8525 35.2835 42.064 35.3392 42.3535 35.3392H45.493C47.2298 35.3392 48.421 35.7065 49.0668 36.4413C49.7347 37.1761 50.0687 38.167 50.0687 39.4139V43.8226C50.0687 45.0695 49.7013 46.0715 48.9666 46.8286C48.2318 47.5856 46.9737 47.9642 45.1924 47.9642H40.6501C38.8688 47.9642 37.5996 47.5856 36.8425 46.8286C36.1077 46.0715 35.7403 45.0695 35.7403 43.8226V41.2509H41.5853V43.0544C41.5853 43.2994 41.6521 43.4886 41.7857 43.6222C41.9193 43.7336 42.1308 43.7892 42.4202 43.7892H43.3888C43.6783 43.7892 43.8898 43.7336 44.0234 43.6222C44.157 43.4886 44.2238 43.2994 44.2238 43.0544Z" fill="#FF0015"/>
<path d="M52.4137 26.5217H58.2587V47.9642H52.4137V26.5217Z" fill="#FF0015"/>
<path d="M70.7128 26.5217H76.0567V47.9642H71.0468L66.2706 36.7085V47.9642H60.9267V26.5217H65.9366L70.7128 37.9777V26.5217Z" fill="#FF0015"/>
<path d="M87.5529 35.4728V31.4314C87.5529 31.1865 87.4861 31.0083 87.3525 30.897C87.2189 30.7634 87.0074 30.6966 86.7179 30.6966H85.6157V26.5217H88.4881C90.2694 26.5217 91.5274 26.9002 92.2622 27.6573C93.0193 28.4143 93.3978 29.4163 93.3978 30.6632V35.4728H87.5529ZM87.5529 43.0544V35.0386H93.3978V43.8226C93.3978 45.0695 93.0193 46.0715 92.2622 46.8286C91.5274 47.5856 90.2694 47.9642 88.4881 47.9642H85.6157V43.7892H86.7179C87.0074 43.7892 87.2189 43.7336 87.3525 43.6222C87.4861 43.4886 87.5529 43.2994 87.5529 43.0544ZM84.4801 31.4314V35.4728H78.6352V30.6632C78.6352 29.4163 79.0026 28.4143 79.7374 27.6573C80.4945 26.9002 81.7637 26.5217 83.545 26.5217H86.4173V30.6966H85.3151C85.0257 30.6966 84.8141 30.7634 84.6805 30.897C84.5469 31.0083 84.4801 31.1865 84.4801 31.4314ZM84.4801 35.0386V43.0544C84.4801 43.2994 84.5469 43.4886 84.6805 43.6222C84.8141 43.7336 85.0257 43.7892 85.3151 43.7892H86.4173V47.9642H83.545C81.7637 47.9642 80.4945 47.5856 79.7374 46.8286C79.0026 46.0715 78.6352 45.0695 78.6352 43.8226V35.0386H84.4801Z" fill="#FF0015"/>
<defs>
<linearGradient id="paint0_linear_1405_13790" x1="30.9524" y1="10.6586" x2="64.1539" y2="54.1601" gradientUnits="userSpaceOnUse">
<stop offset="0.371134" stop-color="white"/>
<stop offset="0.373711" stop-color="#FF0015"/>
</linearGradient>
<linearGradient id="paint1_linear_1405_13790" x1="30.9524" y1="10.6586" x2="64.1539" y2="54.1601" gradientUnits="userSpaceOnUse">
<stop offset="0.371134" stop-color="white"/>
<stop offset="0.373711" stop-color="#FF0015"/>
</linearGradient>
<linearGradient id="paint2_linear_1405_13790" x1="30.9524" y1="10.6586" x2="64.1539" y2="54.1601" gradientUnits="userSpaceOnUse">
<stop offset="0.371134" stop-color="white"/>
<stop offset="0.373711" stop-color="#FF0015"/>
</linearGradient>
<linearGradient id="paint3_linear_1405_13790" x1="30.9524" y1="10.6586" x2="64.1539" y2="54.1601" gradientUnits="userSpaceOnUse">
<stop offset="0.371134" stop-color="white"/>
<stop offset="0.373711" stop-color="#FF0015"/>
</linearGradient>
<linearGradient id="paint4_linear_1405_13790" x1="30.9524" y1="10.6586" x2="64.1539" y2="54.1601" gradientUnits="userSpaceOnUse">
<stop offset="0.371134" stop-color="white"/>
<stop offset="0.373711" stop-color="#FF0015"/>
</linearGradient>
<linearGradient id="paint5_linear_1405_13790" x1="30.9524" y1="10.6586" x2="64.1539" y2="54.1601" gradientUnits="userSpaceOnUse">
<stop offset="0.371134" stop-color="white"/>
<stop offset="0.373711" stop-color="#FF0015"/>
</linearGradient>
</defs>
</svg>
