<svg width="171" height="31" viewBox="0 0 171 31" fill="none" xmlns="http://www.w3.org/2000/svg">
<path d="M0 23.8808L3.96459 0H10.4479L7.36947 18.6569H17.0244L16.1382 23.8808H0Z" fill="url(#paint0_linear_1194_42754)"/>
<path d="M31.7721 16.0449L33.4512 5.9702H39.8878L36.9027 23.8808H30.7926L31.3523 20.4759H31.1658C30.6138 21.6187 29.7898 22.5126 28.6937 23.1579C27.6054 23.7953 26.3927 24.114 25.0556 24.114C23.8041 24.114 22.7585 23.8264 21.9189 23.2512C21.0794 22.6759 20.4847 21.883 20.1349 20.8724C19.785 19.8618 19.7151 18.7035 19.925 17.3975L21.8373 5.9702H28.2739L26.5948 16.0449C26.4627 16.9311 26.5754 17.6269 26.933 18.1322C27.2983 18.6375 27.8852 18.8901 28.6937 18.8901C29.2301 18.8901 29.7121 18.7774 30.1396 18.5519C30.5749 18.3187 30.9325 17.9922 31.2124 17.5725C31.5 17.1449 31.6866 16.6357 31.7721 16.0449Z" fill="url(#paint1_linear_1194_42754)"/>
<path d="M48.7586 24.2073C46.8152 24.2073 45.2138 23.8225 43.9545 23.0529C42.6951 22.2755 41.8128 21.195 41.3075 19.8113C40.8022 18.4198 40.7051 16.8067 41.016 14.9722C41.3114 13.1376 41.9411 11.5284 42.905 10.1447C43.8767 8.75319 45.1205 7.67265 46.6364 6.90305C48.16 6.12568 49.8936 5.73699 51.837 5.73699C53.5939 5.73699 55.0592 6.05572 56.233 6.69316C57.4146 7.32283 58.2581 8.2168 58.7634 9.37509C59.2764 10.5256 59.4086 11.8782 59.1598 13.433H53.1896C53.2596 12.5001 53.108 11.7849 52.7349 11.2874C52.3695 10.7899 51.837 10.5411 51.1374 10.5411C50.5621 10.5411 50.0335 10.7044 49.5515 11.0309C49.0773 11.3496 48.6692 11.8355 48.3272 12.4885C47.9929 13.1337 47.748 13.946 47.5926 14.9255C47.4371 15.905 47.4177 16.7212 47.5343 17.3742C47.6586 18.0194 47.8996 18.5053 48.2572 18.8318C48.6226 19.1505 49.0851 19.3099 49.6448 19.3099C50.1268 19.3099 50.5699 19.201 50.9741 18.9834C51.3861 18.7579 51.7398 18.4315 52.0352 18.0039C52.3384 17.5686 52.5677 17.04 52.7232 16.4181H58.6934C58.398 18.0039 57.8033 19.3798 56.9093 20.5459C56.0154 21.712 54.8765 22.6137 53.4928 23.2512C52.1091 23.8886 50.531 24.2073 48.7586 24.2073Z" fill="url(#paint2_linear_1194_42754)"/>
<path d="M66.573 19.6364L67.879 11.9871H68.7186L74.0824 5.9702H81.312L72.4966 15.3453H70.6775L66.573 19.6364ZM60.0898 23.8808L64.0544 0H70.491L66.5264 23.8808H60.0898ZM71.144 23.8808L68.2055 16.7912L73.1962 12.2203L78.5134 23.8808H71.144Z" fill="url(#paint3_linear_1194_42754)"/>
<path d="M83.3059 30.5973C82.5596 30.5973 81.8639 30.539 81.2187 30.4224C80.5735 30.3136 80.0099 30.162 79.5279 29.9676L81.6968 25.3967C82.1943 25.5833 82.6529 25.7038 83.0727 25.7582C83.5003 25.8126 83.8773 25.7815 84.2038 25.6649C84.5303 25.5483 84.7985 25.3267 85.0084 25.0002L85.2182 24.6737L82.0233 5.9702H88.5065L89.3228 18.377H89.5093L94.5234 5.9702H101.52L91.7715 25.3734C91.274 26.3606 90.6521 27.2468 89.9058 28.032C89.1673 28.8249 88.2578 29.4507 87.1772 29.9093C86.0967 30.368 84.8063 30.5973 83.3059 30.5973Z" fill="url(#paint4_linear_1194_42754)"/>
<path d="M107.33 30.9704C105.526 30.9704 104.026 30.7139 102.829 30.2008C101.639 29.6955 100.761 28.9959 100.193 28.1019C99.6336 27.2157 99.4004 26.1974 99.4937 25.0469H105.697C105.713 25.4356 105.825 25.7465 106.035 25.9797C106.245 26.2129 106.537 26.3801 106.91 26.4811C107.283 26.5822 107.718 26.6327 108.216 26.6327C109.055 26.6327 109.782 26.4267 110.396 26.0147C111.01 25.6105 111.387 24.8836 111.527 23.8342L112.04 20.8024H111.854C111.527 21.4088 111.088 21.9257 110.536 22.3533C109.984 22.7731 109.351 23.0957 108.636 23.3211C107.92 23.5388 107.159 23.6476 106.35 23.6476C105.075 23.6476 103.952 23.3522 102.98 22.7614C102.016 22.1706 101.317 21.2339 100.881 19.9512C100.454 18.6686 100.411 16.9933 100.753 14.9255C101.111 12.7644 101.74 11.0076 102.642 9.65494C103.544 8.30232 104.582 7.31117 105.755 6.6815C106.929 6.05183 108.107 5.73699 109.289 5.73699C110.175 5.73699 110.925 5.89247 111.539 6.20341C112.153 6.50659 112.643 6.91471 113.008 7.42777C113.374 7.93306 113.626 8.48888 113.766 9.09523H113.906L114.419 5.9702H120.856L117.871 23.8342C117.638 25.3578 117.043 26.6483 116.087 27.7055C115.138 28.7705 113.91 29.5789 112.402 30.1309C110.902 30.6906 109.211 30.9704 107.33 30.9704ZM109.475 19.0767C110.066 19.0767 110.602 18.9134 111.084 18.5869C111.566 18.2527 111.974 17.7785 112.309 17.1643C112.643 16.5424 112.88 15.7962 113.02 14.9255C113.16 14.0393 113.168 13.2814 113.043 12.6517C112.919 12.0143 112.674 11.5284 112.309 11.1941C111.943 10.8521 111.465 10.6811 110.874 10.6811C110.284 10.6811 109.751 10.8521 109.277 11.1941C108.803 11.5284 108.402 12.0143 108.076 12.6517C107.749 13.2814 107.516 14.0393 107.376 14.9255C107.236 15.8117 107.225 16.5658 107.341 17.1877C107.458 17.8018 107.695 18.2721 108.053 18.5986C108.41 18.9173 108.884 19.0767 109.475 19.0767Z" fill="url(#paint5_linear_1194_42754)"/>
<path d="M129.68 24.2073C127.768 24.2073 126.182 23.8419 124.922 23.1112C123.663 22.3727 122.777 21.3155 122.264 19.9396C121.751 18.5558 121.657 16.9 121.984 14.9722C122.295 13.122 122.936 11.5051 123.908 10.1214C124.887 8.73764 126.12 7.66099 127.604 6.89139C129.097 6.12179 130.768 5.73699 132.618 5.73699C133.971 5.73699 135.157 5.94688 136.175 6.36666C137.201 6.78644 138.037 7.39668 138.682 8.19737C139.327 8.99806 139.762 9.96589 139.988 11.1008C140.221 12.228 140.221 13.5029 139.988 14.9255L139.755 16.4181H123.756L124.316 12.8733H134.391C134.469 12.3602 134.418 11.9093 134.239 11.5206C134.068 11.1242 133.792 10.8171 133.411 10.5994C133.038 10.374 132.587 10.2613 132.059 10.2613C131.53 10.2613 131.033 10.374 130.566 10.5994C130.108 10.8249 129.715 11.1397 129.388 11.544C129.07 11.9482 128.856 12.4224 128.747 12.9665L128.047 16.6979C127.954 17.2732 127.989 17.7862 128.152 18.2371C128.316 18.688 128.599 19.0417 129.004 19.2982C129.408 19.5548 129.929 19.683 130.566 19.683C131.001 19.683 131.413 19.6247 131.802 19.5081C132.199 19.3837 132.548 19.2049 132.852 18.9717C133.163 18.7307 133.411 18.4392 133.598 18.0972H139.475C139.055 19.341 138.39 20.4215 137.481 21.3388C136.579 22.2483 135.467 22.9557 134.146 23.461C132.832 23.9586 131.344 24.2073 129.68 24.2073Z" fill="url(#paint6_linear_1194_42754)"/>
<path d="M141.169 23.8808L144.154 5.9702H150.264L149.704 9.37509H149.891C150.443 8.25567 151.224 7.36947 152.234 6.71648C153.245 6.06349 154.376 5.73699 155.628 5.73699C156.879 5.73699 157.905 6.07126 158.706 6.7398C159.507 7.40057 159.911 8.27899 159.919 9.37509H160.105C160.587 8.27899 161.376 7.40057 162.472 6.7398C163.568 6.07126 164.785 5.73699 166.122 5.73699C167.825 5.73699 169.119 6.28893 170.005 7.39279C170.899 8.49666 171.191 9.96589 170.88 11.8005L168.874 23.8808H162.437L164.21 13.433C164.319 12.6478 164.21 12.0337 163.883 11.5906C163.557 11.1397 163.059 10.9143 162.391 10.9143C161.73 10.9143 161.17 11.1397 160.712 11.5906C160.261 12.0337 159.981 12.6478 159.872 13.433L158.1 23.8808H151.943L153.715 13.433C153.824 12.6478 153.715 12.0337 153.389 11.5906C153.062 11.1397 152.565 10.9143 151.896 10.9143C151.461 10.9143 151.064 11.0153 150.707 11.2175C150.357 11.4196 150.066 11.7111 149.832 12.092C149.607 12.4651 149.455 12.9121 149.378 13.433L147.605 23.8808H141.169Z" fill="url(#paint7_linear_1194_42754)"/>
<defs>
<linearGradient id="paint0_linear_1194_42754" x1="-0.287144" y1="11.9248" x2="172.103" y2="11.9248" gradientUnits="userSpaceOnUse">
<stop stop-color="#FF8A00"/>
<stop offset="1" stop-color="#EEFF00"/>
</linearGradient>
<linearGradient id="paint1_linear_1194_42754" x1="-0.287144" y1="11.9248" x2="172.103" y2="11.9248" gradientUnits="userSpaceOnUse">
<stop stop-color="#FF8A00"/>
<stop offset="1" stop-color="#EEFF00"/>
</linearGradient>
<linearGradient id="paint2_linear_1194_42754" x1="-0.287144" y1="11.9248" x2="172.103" y2="11.9248" gradientUnits="userSpaceOnUse">
<stop stop-color="#FF8A00"/>
<stop offset="1" stop-color="#EEFF00"/>
</linearGradient>
<linearGradient id="paint3_linear_1194_42754" x1="-0.287144" y1="11.9248" x2="172.103" y2="11.9248" gradientUnits="userSpaceOnUse">
<stop stop-color="#FF8A00"/>
<stop offset="1" stop-color="#EEFF00"/>
</linearGradient>
<linearGradient id="paint4_linear_1194_42754" x1="-0.287144" y1="11.9248" x2="172.103" y2="11.9248" gradientUnits="userSpaceOnUse">
<stop stop-color="#FF8A00"/>
<stop offset="1" stop-color="#EEFF00"/>
</linearGradient>
<linearGradient id="paint5_linear_1194_42754" x1="-0.287144" y1="11.9248" x2="172.103" y2="11.9248" gradientUnits="userSpaceOnUse">
<stop stop-color="#FF8A00"/>
<stop offset="1" stop-color="#EEFF00"/>
</linearGradient>
<linearGradient id="paint6_linear_1194_42754" x1="-0.287144" y1="11.9248" x2="172.103" y2="11.9248" gradientUnits="userSpaceOnUse">
<stop stop-color="#FF8A00"/>
<stop offset="1" stop-color="#EEFF00"/>
</linearGradient>
<linearGradient id="paint7_linear_1194_42754" x1="-0.287144" y1="11.9248" x2="172.103" y2="11.9248" gradientUnits="userSpaceOnUse">
<stop stop-color="#FF8A00"/>
<stop offset="1" stop-color="#EEFF00"/>
</linearGradient>
</defs>
</svg>
