<svg width="167" height="32" viewBox="0 0 167 32" fill="none" xmlns="http://www.w3.org/2000/svg">
<path d="M150.113 22.1909V21.8523C150.113 20.5731 150.297 19.396 150.663 18.321C151.03 17.2353 151.569 16.2947 152.281 15.4993C152.993 14.7038 153.871 14.0857 154.918 13.645C155.964 13.1935 157.171 12.9678 158.541 12.9678C159.921 12.9678 161.134 13.1935 162.181 13.645C163.237 14.0857 164.122 14.7038 164.833 15.4993C165.545 16.2947 166.084 17.2353 166.451 18.321C166.818 19.396 167.001 20.5731 167.001 21.8523V22.1909C167.001 23.4593 166.818 24.6364 166.451 25.7221C166.084 26.797 165.545 27.7376 164.833 28.5438C164.122 29.3393 163.243 29.9574 162.197 30.3981C161.151 30.8389 159.943 31.0592 158.573 31.0592C157.204 31.0592 155.991 30.8389 154.934 30.3981C153.877 29.9574 152.993 29.3393 152.281 28.5438C151.569 27.7376 151.03 26.797 150.663 25.7221C150.297 24.6364 150.113 23.4593 150.113 22.1909ZM155.565 21.8523V22.1909C155.565 22.8466 155.613 23.4593 155.71 24.029C155.807 24.5988 155.969 25.0986 156.195 25.5286C156.422 25.9478 156.729 26.2757 157.117 26.5122C157.506 26.7487 157.991 26.8669 158.573 26.8669C159.145 26.8669 159.619 26.7487 159.997 26.5122C160.385 26.2757 160.692 25.9478 160.919 25.5286C161.145 25.0986 161.307 24.5988 161.404 24.029C161.501 23.4593 161.55 22.8466 161.55 22.1909V21.8523C161.55 21.218 161.501 20.6214 161.404 20.0625C161.307 19.4927 161.145 18.9929 160.919 18.5629C160.692 18.1222 160.385 17.7782 159.997 17.5309C159.609 17.2837 159.123 17.1601 158.541 17.1601C157.969 17.1601 157.489 17.2837 157.101 17.5309C156.724 17.7782 156.422 18.1222 156.195 18.5629C155.969 18.9929 155.807 19.4927 155.71 20.0625C155.613 20.6214 155.565 21.218 155.565 21.8523Z" fill="url(#paint0_linear_1172_44023)"/>
<path d="M137.447 17.015V30.7367H131.996V13.2903H137.108L137.447 17.015ZM136.8 21.4169L135.522 21.4491C135.522 20.1162 135.684 18.9284 136.008 17.8857C136.331 16.8322 136.79 15.94 137.383 15.209C137.976 14.4781 138.682 13.9245 139.502 13.5482C140.332 13.1613 141.254 12.9678 142.268 12.9678C143.077 12.9678 143.815 13.086 144.484 13.3225C145.163 13.559 145.746 13.9406 146.231 14.4673C146.727 14.9941 147.104 15.6928 147.363 16.5635C147.633 17.4234 147.768 18.4877 147.768 19.7561V30.7367H142.284V19.74C142.284 19.0413 142.187 18.5092 141.993 18.1437C141.799 17.7674 141.518 17.5094 141.152 17.3697C140.785 17.23 140.337 17.1601 139.809 17.1601C139.248 17.1601 138.774 17.2676 138.386 17.4826C137.997 17.6976 137.685 17.9985 137.447 18.3855C137.221 18.7618 137.054 19.2079 136.946 19.7238C136.849 20.2398 136.8 20.8042 136.8 21.4169Z" fill="url(#paint1_linear_1172_44023)"/>
<path d="M128.729 13.291V30.7375H123.262V13.291H128.729Z" fill="url(#paint2_linear_1172_44023)"/>
<path d="M115.157 25.8349C115.157 25.534 115.055 25.276 114.85 25.061C114.656 24.8352 114.311 24.631 113.815 24.4483C113.319 24.2548 112.623 24.0613 111.728 23.8678C110.876 23.685 110.073 23.4432 109.318 23.1422C108.574 22.8412 107.921 22.4757 107.361 22.0457C106.8 21.6158 106.358 21.1052 106.034 20.5139C105.721 19.9227 105.565 19.2455 105.565 18.4823C105.565 17.7406 105.721 17.0418 106.034 16.3861C106.358 15.7197 106.827 15.1338 107.441 14.6286C108.067 14.1126 108.827 13.7095 109.722 13.4193C110.617 13.1183 111.636 12.9678 112.78 12.9678C114.354 12.9678 115.713 13.2096 116.856 13.6934C117.999 14.1663 118.878 14.8328 119.493 15.6928C120.118 16.542 120.431 17.5256 120.431 18.6435H114.979C114.979 18.2028 114.904 17.8266 114.753 17.5148C114.613 17.2031 114.381 16.9666 114.057 16.8054C113.734 16.6334 113.303 16.5474 112.763 16.5474C112.386 16.5474 112.041 16.6172 111.728 16.757C111.426 16.8967 111.183 17.0902 111 17.3375C110.817 17.5847 110.725 17.8749 110.725 18.2082C110.725 18.4447 110.779 18.6596 110.887 18.8531C111.006 19.0359 111.183 19.2079 111.421 19.3691C111.658 19.5196 111.96 19.6593 112.327 19.7883C112.693 19.9066 113.135 20.0141 113.653 20.1108C114.828 20.3258 115.928 20.6322 116.953 21.0299C117.977 21.4276 118.808 21.992 119.444 22.723C120.091 23.4539 120.415 24.4375 120.415 25.6737C120.415 26.4477 120.237 27.1625 119.881 27.8182C119.525 28.4632 119.013 29.0329 118.344 29.5274C117.675 30.0111 116.872 30.3874 115.934 30.6561C114.996 30.9248 113.939 31.0592 112.763 31.0592C111.092 31.0592 109.679 30.7636 108.525 30.1724C107.371 29.5704 106.498 28.8179 105.905 27.915C105.322 27.0013 105.031 26.0768 105.031 25.1416H110.11C110.132 25.6791 110.261 26.1198 110.499 26.4638C110.747 26.8078 111.076 27.0604 111.485 27.2216C111.895 27.3829 112.37 27.4635 112.909 27.4635C113.405 27.4635 113.815 27.3936 114.138 27.2539C114.473 27.1141 114.726 26.926 114.899 26.6895C115.071 26.4423 115.157 26.1574 115.157 25.8349Z" fill="url(#paint3_linear_1172_44023)"/>
<path d="M97.4772 26.3509V19.1595C97.4772 18.665 97.4071 18.2404 97.2669 17.8857C97.1267 17.5309 96.9057 17.2568 96.6037 17.0633C96.3018 16.8591 95.8974 16.757 95.3905 16.757C94.9807 16.757 94.6303 16.8269 94.3391 16.9666C94.0479 17.1063 93.8269 17.316 93.6759 17.5954C93.5249 17.8749 93.4494 18.2297 93.4494 18.6596H87.9981C87.9981 17.8534 88.1761 17.1063 88.532 16.4184C88.8986 15.7197 89.4162 15.1123 90.0848 14.5963C90.7642 14.0803 91.573 13.6826 92.5112 13.4031C93.4602 13.1129 94.517 12.9678 95.6817 12.9678C97.0728 12.9678 98.313 13.1989 99.4022 13.6611C100.502 14.1233 101.37 14.8167 102.006 15.7411C102.643 16.6549 102.961 17.8051 102.961 19.1917V26.3348C102.961 27.4742 103.026 28.3396 103.155 28.9308C103.284 29.5113 103.468 30.0219 103.705 30.4626V30.7367H98.2375C97.9787 30.1993 97.7846 29.5435 97.6552 28.7696C97.5365 27.9849 97.4772 27.1786 97.4772 26.3509ZM98.1404 20.0786L98.1728 22.981H95.7626C95.2557 22.981 94.8244 23.0508 94.4685 23.1906C94.1234 23.3303 93.843 23.5238 93.6274 23.771C93.4225 24.0075 93.2715 24.2763 93.1744 24.5773C93.0882 24.8782 93.045 25.1954 93.045 25.5286C93.045 25.8511 93.1205 26.1413 93.2715 26.3993C93.4332 26.6465 93.6489 26.84 93.9185 26.9798C94.1881 27.1195 94.4901 27.1894 94.8244 27.1894C95.4283 27.1894 95.9405 27.0765 96.3611 26.8508C96.7924 26.6143 97.1214 26.3294 97.3478 25.9962C97.5743 25.663 97.6875 25.3512 97.6875 25.061L98.8845 27.2861C98.6688 27.7161 98.4208 28.1515 98.1404 28.5922C97.8708 29.0329 97.5311 29.4414 97.1214 29.8176C96.7223 30.1831 96.2317 30.4841 95.6493 30.7206C95.067 30.9463 94.3607 31.0592 93.5303 31.0592C92.4519 31.0592 91.4598 30.8389 90.5539 30.3981C89.6589 29.9574 88.9417 29.3447 88.4025 28.56C87.8633 27.7645 87.5938 26.8508 87.5938 25.8188C87.5938 24.9159 87.7555 24.1096 88.079 23.4002C88.4133 22.6907 88.9148 22.0887 89.5834 21.5943C90.252 21.0998 91.1039 20.7236 92.1392 20.4656C93.1744 20.2076 94.393 20.0786 95.7949 20.0786H98.1404Z" fill="url(#paint4_linear_1172_44023)"/>
<path d="M80.2951 22.7882H85.9567C85.8812 24.4221 85.4391 25.8625 84.6303 27.1095C83.8215 28.3564 82.7 29.3292 81.2657 30.028C79.8422 30.7159 78.1599 31.0599 76.2188 31.0599C74.6444 31.0599 73.2371 30.7966 71.9969 30.2698C70.7675 29.7431 69.7215 28.9853 68.8588 27.9963C68.0068 27.0074 67.3544 25.8088 66.9015 24.4006C66.4594 22.9924 66.2383 21.4069 66.2383 19.6439V18.3701C66.2383 16.6072 66.4701 15.0216 66.9338 13.6135C67.4083 12.1945 68.0769 10.9906 68.9397 10.0016C69.8132 9.00191 70.8592 8.23869 72.0778 7.71196C73.2964 7.18524 74.6497 6.92188 76.1379 6.92188C78.1869 6.92188 79.9177 7.28736 81.3304 8.01833C82.7431 8.74929 83.8377 9.75437 84.6141 11.0336C85.3905 12.302 85.8489 13.7478 85.9891 15.371H80.3275C80.3059 14.4895 80.1549 13.7532 79.8746 13.162C79.5942 12.56 79.152 12.1085 78.5481 11.8075C77.9442 11.5065 77.1408 11.3561 76.1379 11.3561C75.437 11.3561 74.8277 11.485 74.3101 11.743C73.7924 12.001 73.3611 12.4095 73.016 12.9685C72.6709 13.5275 72.4121 14.253 72.2395 15.1453C72.0778 16.0267 71.9969 17.0909 71.9969 18.3379V19.6439C71.9969 20.8909 72.0724 21.9551 72.2234 22.8365C72.3743 23.718 72.617 24.4382 72.9513 24.9972C73.2856 25.5562 73.7169 25.97 74.2454 26.2388C74.7845 26.4967 75.4424 26.6257 76.2188 26.6257C77.0815 26.6257 77.8094 26.4914 78.4026 26.2226C78.9957 25.9431 79.454 25.5239 79.7775 24.9649C80.101 24.3952 80.2736 23.6696 80.2951 22.7882Z" fill="url(#paint5_linear_1172_44023)"/>
<path d="M64.4764 13.2906V17.0636H53.9297V13.2906H64.4764ZM56.1458 8.95312H61.5971V25.0452C61.5971 25.5074 61.651 25.8675 61.7588 26.1255C61.8667 26.3727 62.05 26.5501 62.3088 26.6576C62.5784 26.7543 62.9343 26.8027 63.3764 26.8027C63.6891 26.8027 63.948 26.7973 64.1529 26.7866C64.3578 26.7651 64.5519 26.7382 64.7352 26.706V30.5919C64.2715 30.7424 63.7862 30.8553 63.2794 30.9305C62.7725 31.0165 62.2333 31.0595 61.6618 31.0595C60.4971 31.0595 59.4996 30.8768 58.6692 30.5113C57.8496 30.1458 57.2242 29.5707 56.7928 28.786C56.3615 28.0013 56.1458 26.9801 56.1458 25.7224V8.95312Z" fill="url(#paint6_linear_1172_44023)"/>
<path d="M47.4425 25.8349C47.4425 25.534 47.3401 25.276 47.1352 25.061C46.9411 24.8352 46.596 24.631 46.0999 24.4483C45.6039 24.2548 44.9083 24.0613 44.0132 23.8678C43.1613 23.685 42.3579 23.4432 41.603 23.1422C40.8589 22.8412 40.2065 22.4757 39.6457 22.0457C39.085 21.6158 38.6428 21.1052 38.3193 20.5139C38.0066 19.9227 37.8502 19.2455 37.8502 18.4823C37.8502 17.7406 38.0066 17.0418 38.3193 16.3861C38.6428 15.7197 39.1119 15.1338 39.7266 14.6286C40.3521 14.1126 41.1124 13.7095 42.0074 13.4193C42.9025 13.1183 43.9216 12.9678 45.0647 12.9678C46.6391 12.9678 47.9979 13.2096 49.141 13.6934C50.2841 14.1663 51.163 14.8328 51.7777 15.6928C52.4031 16.542 52.7159 17.5256 52.7159 18.6435H47.2646C47.2646 18.2028 47.1891 17.8266 47.0381 17.5148C46.8979 17.2031 46.6661 16.9666 46.3426 16.8054C46.019 16.6334 45.5877 16.5474 45.0485 16.5474C44.671 16.5474 44.326 16.6172 44.0132 16.757C43.7113 16.8967 43.4686 17.0902 43.2853 17.3375C43.102 17.5847 43.0103 17.8749 43.0103 18.2082C43.0103 18.4447 43.0642 18.6596 43.1721 18.8531C43.2907 19.0359 43.4686 19.2079 43.7059 19.3691C43.9431 19.5196 44.2451 19.6593 44.6117 19.7883C44.9784 19.9066 45.4205 20.0141 45.9382 20.1108C47.1136 20.3258 48.2136 20.6322 49.238 21.0299C50.2625 21.4276 51.0929 21.992 51.7291 22.723C52.3762 23.4539 52.6997 24.4375 52.6997 25.6737C52.6997 26.4477 52.5218 27.1625 52.1659 27.8182C51.81 28.4632 51.2978 29.0329 50.6292 29.5274C49.9606 30.0111 49.1572 30.3874 48.219 30.6561C47.2808 30.9248 46.2239 31.0592 45.0485 31.0592C43.377 31.0592 41.9643 30.7636 40.8104 30.1724C39.6565 29.5704 38.783 28.8179 38.1899 27.915C37.6076 27.0013 37.3164 26.0768 37.3164 25.1416H42.3956C42.4172 25.6791 42.5466 26.1198 42.7839 26.4638C43.0319 26.8078 43.3608 27.0604 43.7706 27.2216C44.1804 27.3829 44.6549 27.4635 45.1941 27.4635C45.6901 27.4635 46.0999 27.3936 46.4234 27.2539C46.7577 27.1141 47.0112 26.926 47.1837 26.6895C47.3562 26.4423 47.4425 26.1574 47.4425 25.8349Z" fill="url(#paint7_linear_1172_44023)"/>
<path d="M29.7968 26.4968V13.291H35.2642V30.7375H30.1527L29.7968 26.4968ZM30.3144 22.9495L31.7379 22.9172C31.7379 24.0889 31.5977 25.1746 31.3173 26.1743C31.0369 27.1633 30.6218 28.0232 30.0718 28.7542C29.5326 29.4852 28.864 30.0549 28.066 30.4634C27.2787 30.8611 26.3675 31.06 25.3322 31.06C24.4695 31.06 23.6769 30.9417 22.9544 30.7052C22.2426 30.458 21.628 30.0764 21.1103 29.5604C20.5927 29.0337 20.1883 28.3618 19.8971 27.5449C19.6168 26.7172 19.4766 25.7282 19.4766 24.578V13.291H24.9278V24.6103C24.9278 24.9972 24.9764 25.3305 25.0734 25.61C25.1705 25.8895 25.3107 26.1259 25.494 26.3194C25.6773 26.5022 25.9038 26.6419 26.1734 26.7387C26.4538 26.8247 26.7719 26.8677 27.1278 26.8677C27.9473 26.8677 28.589 26.6957 29.0527 26.3517C29.5164 26.0077 29.8399 25.5401 30.0232 24.9489C30.2174 24.3576 30.3144 23.6912 30.3144 22.9495Z" fill="url(#paint8_linear_1172_44023)"/>
<path d="M10.5629 23.3679V7.25977H16.2244V23.3679C16.2244 24.9373 15.8632 26.2972 15.1406 27.4474C14.4289 28.5976 13.4583 29.4898 12.229 30.124C11.0104 30.7475 9.64084 31.0592 8.1203 31.0592C6.54585 31.0592 5.14394 30.7958 3.91457 30.2691C2.69598 29.7424 1.73621 28.9308 1.03526 27.8343C0.345086 26.7379 0 25.3405 0 23.642H5.69392C5.69392 24.4375 5.78558 25.061 5.96891 25.5124C6.15223 25.9532 6.42183 26.2649 6.7777 26.4477C7.14436 26.6196 7.59189 26.7056 8.1203 26.7056C8.63793 26.7056 9.07468 26.5767 9.43055 26.3187C9.7972 26.0499 10.0776 25.6683 10.2717 25.1738C10.4658 24.6686 10.5629 24.0666 10.5629 23.3679Z" fill="url(#paint9_linear_1172_44023)"/>
<path d="M72.2259 13.8496L73.4428 18.0109L77.6041 19.2278L73.4428 20.4448L72.2259 24.6061L71.0089 20.4448L66.8477 19.2278L71.0089 18.0109L72.2259 13.8496Z" fill="white"/>
<path d="M126.007 0.941406L127.224 5.10268L131.385 6.31963L127.224 7.53659L126.007 11.6979L124.79 7.53659L120.629 6.31963L124.79 5.10268L126.007 0.941406Z" fill="white"/>
<defs>
<linearGradient id="paint0_linear_1172_44023" x1="150.113" y1="22.0135" x2="167.001" y2="22.0135" gradientUnits="userSpaceOnUse">
<stop stop-color="#FF9019"/>
<stop offset="1" stop-color="#E3AC00"/>
</linearGradient>
<linearGradient id="paint1_linear_1172_44023" x1="131.996" y1="21.8523" x2="147.768" y2="21.8523" gradientUnits="userSpaceOnUse">
<stop stop-color="#FF9019"/>
<stop offset="1" stop-color="#E3AC00"/>
</linearGradient>
<linearGradient id="paint2_linear_1172_44023" x1="123.262" y1="22.0142" x2="128.729" y2="22.0142" gradientUnits="userSpaceOnUse">
<stop stop-color="#FF9019"/>
<stop offset="1" stop-color="#E3AC00"/>
</linearGradient>
<linearGradient id="paint3_linear_1172_44023" x1="105.031" y1="22.0135" x2="120.431" y2="22.0135" gradientUnits="userSpaceOnUse">
<stop stop-color="#FF9019"/>
<stop offset="1" stop-color="#E3AC00"/>
</linearGradient>
<linearGradient id="paint4_linear_1172_44023" x1="87.5938" y1="22.0135" x2="103.705" y2="22.0135" gradientUnits="userSpaceOnUse">
<stop stop-color="#FF9019"/>
<stop offset="1" stop-color="#E3AC00"/>
</linearGradient>
<linearGradient id="paint5_linear_1172_44023" x1="66.2383" y1="18.9909" x2="85.9891" y2="18.9909" gradientUnits="userSpaceOnUse">
<stop stop-color="#FF9019"/>
<stop offset="1" stop-color="#E3AC00"/>
</linearGradient>
<linearGradient id="paint6_linear_1172_44023" x1="53.9297" y1="20.0063" x2="64.7352" y2="20.0063" gradientUnits="userSpaceOnUse">
<stop stop-color="#FF9019"/>
<stop offset="1" stop-color="#E3AC00"/>
</linearGradient>
<linearGradient id="paint7_linear_1172_44023" x1="37.3164" y1="22.0135" x2="52.7159" y2="22.0135" gradientUnits="userSpaceOnUse">
<stop stop-color="#FF9019"/>
<stop offset="1" stop-color="#E3AC00"/>
</linearGradient>
<linearGradient id="paint8_linear_1172_44023" x1="19.4766" y1="22.1755" x2="35.2642" y2="22.1755" gradientUnits="userSpaceOnUse">
<stop stop-color="#FF9019"/>
<stop offset="1" stop-color="#E3AC00"/>
</linearGradient>
<linearGradient id="paint9_linear_1172_44023" x1="0" y1="19.1595" x2="16.2244" y2="19.1595" gradientUnits="userSpaceOnUse">
<stop stop-color="#FF9019"/>
<stop offset="1" stop-color="#E3AC00"/>
</linearGradient>
</defs>
</svg>
