<svg width="153" height="48" viewBox="0 0 153 48" fill="none" xmlns="http://www.w3.org/2000/svg">
<path d="M15.5319 28.1307L6.95664 14.1518L5.02806 15.9857V27.6809L0.688776 28.1307L0 0L5.02806 0.692021V12.0066L15.1531 0L20.6288 1.17644L9.71174 11.5222L21.2487 27.2657L15.5319 28.1307Z" fill="white"/>
<path d="M40.9841 28.1307L39.1588 22.5945H27.3807L24.97 28.1307L21.3884 27.6809L31.3067 0L36.6448 1.31484L35.9215 2.94109L46.2532 27.6463L40.9841 28.1307ZM34.0963 7.16242L28.7238 19.4804L37.8157 18.477L34.0963 7.16242Z" fill="#00FFCE"/>
<path d="M65.145 28.1307V15.8819H54.5034V27.6809L50.0264 28.1307L49.3376 0L54.5034 0.692021V12.4218L65.145 11.5568V0L70.3453 0.692021L69.6565 27.6809L65.145 28.1307Z" fill="white"/>
<path d="M92.868 0L97.9649 0.692021L97.2761 18.6154C97.2073 20.4377 96.7596 22.087 95.933 23.5633C95.1065 25.0166 93.9241 26.17 92.3858 27.0234C90.8476 27.8769 88.9764 28.3037 86.7723 28.3037C84.7978 28.3037 83.0874 27.9 81.6409 27.0927C80.1945 26.2853 79.0695 25.155 78.2659 23.7017C77.4624 22.2485 77.0261 20.553 76.9573 18.6154L76.2685 0L81.5032 0.692021V17.8196C81.5032 19.7803 82.0312 21.3604 83.0874 22.5599C84.1435 23.7363 85.4866 24.3246 87.1167 24.3246C88.7468 24.3246 90.1129 23.7825 91.2149 22.6983C92.317 21.6141 92.868 19.9879 92.868 17.8196V0Z" fill="#FDFF00"/>
<path d="M120.763 28.1307L108.331 9.23849L108.744 27.6809L104.852 28.1307L103.854 3.56391L102.648 1.79926L108.193 0L120.178 20.4146L119.971 0L124.758 0.692021L123.828 27.6809L120.763 28.1307Z" fill="white"/>
<path d="M147.731 28.1307L145.906 22.5945H134.128L131.717 28.1307L128.135 27.6809L138.054 0L143.392 1.31484L142.668 2.94109L153 27.6463L147.731 28.1307ZM140.843 7.16242L135.471 19.4804L144.562 18.477L140.843 7.16242Z" fill="#DD00FF"/>
<path d="M44.0328 44.5872H46.0675C46.017 45.2574 45.8208 45.8487 45.4789 46.3612C45.1426 46.8737 44.6718 47.2763 44.0664 47.5692C43.461 47.8564 42.7295 48 41.8719 48C41.2049 48 40.6051 47.8902 40.0726 47.6705C39.5457 47.4509 39.0945 47.1384 38.719 46.7329C38.349 46.3218 38.0631 45.8262 37.8614 45.2461C37.6652 44.6604 37.5671 44.0043 37.5671 43.2778V42.6189C37.5671 41.8924 37.668 41.2392 37.8698 40.6591C38.0715 40.0734 38.363 39.575 38.7442 39.1639C39.1253 38.7471 39.5794 38.4318 40.1063 38.2178C40.6388 37.9981 41.2357 37.8883 41.8971 37.8883C42.766 37.8883 43.4975 38.0375 44.0916 38.336C44.6858 38.6289 45.1482 39.0372 45.4789 39.5609C45.8096 40.0847 46.0086 40.6844 46.0759 41.3602H44.0496C44.0159 40.9942 43.9235 40.6732 43.7721 40.3972C43.6208 40.1156 43.3938 39.896 43.0911 39.7383C42.7884 39.5806 42.3904 39.5018 41.8971 39.5018C41.516 39.5018 41.1825 39.5694 40.8966 39.7045C40.6107 39.8341 40.3697 40.0312 40.1735 40.2959C39.9829 40.5605 39.8372 40.8872 39.7363 41.2758C39.641 41.6587 39.5934 42.1036 39.5934 42.6105V43.2778C39.5934 43.7734 39.6354 44.2155 39.7195 44.6041C39.8092 44.987 39.9465 45.3109 40.1315 45.5756C40.3165 45.8402 40.5519 46.043 40.8378 46.1838C41.1292 46.3189 41.4739 46.3865 41.8719 46.3865C42.3484 46.3865 42.7379 46.3218 43.0406 46.1922C43.3433 46.0571 43.5759 45.8543 43.7385 45.584C43.901 45.3137 43.9991 44.9814 44.0328 44.5872Z" fill="white"/>
<path d="M56.1274 40.0424L53.1846 47.8648H51.1331L55.0764 38.0235H56.4385L56.1274 40.0424ZM58.8431 47.8648L55.8835 40.0255L55.5724 38.0235H56.9597L60.8946 47.8648H58.8431ZM58.717 44.2155V45.7445H53.1173V44.2155H58.717Z" fill="white"/>
<path d="M71.9551 45.2883C71.9551 45.1025 71.9215 44.9364 71.8542 44.7899C71.7925 44.6435 71.6832 44.5112 71.5263 44.3929C71.3749 44.269 71.1647 44.1536 70.8957 44.0466C70.6322 43.9396 70.2987 43.8382 69.8951 43.7424C69.3122 43.6017 68.7965 43.444 68.3481 43.2694C67.9053 43.0892 67.5325 42.8808 67.2298 42.6443C66.9272 42.4077 66.6973 42.129 66.5404 41.808C66.3891 41.487 66.3134 41.1124 66.3134 40.6844C66.3134 40.2733 66.4031 39.8988 66.5824 39.5609C66.7618 39.2174 67.0168 38.9217 67.3475 38.6739C67.6783 38.4205 68.0706 38.2262 68.5247 38.091C68.9787 37.9559 69.4776 37.8883 70.0213 37.8883C70.8116 37.8883 71.4983 38.0178 72.0812 38.2769C72.6642 38.5359 73.1154 38.8936 73.4349 39.3497C73.76 39.8003 73.9225 40.324 73.9225 40.921H71.8962C71.8962 40.6394 71.8234 40.386 71.6776 40.1607C71.5375 39.9354 71.3301 39.7552 71.0554 39.62C70.7808 39.4849 70.4361 39.4173 70.0213 39.4173C69.6233 39.4173 69.2954 39.4764 69.0375 39.5947C68.7797 39.7073 68.5863 39.8566 68.4574 40.0424C68.3341 40.2226 68.2724 40.4198 68.2724 40.6338C68.2724 40.8027 68.3089 40.9548 68.3817 41.0899C68.4602 41.2251 68.5835 41.349 68.7517 41.4616C68.9198 41.5742 69.1384 41.6812 69.4075 41.7826C69.6765 41.884 70.0044 41.9825 70.3912 42.0783C70.9686 42.2134 71.4786 42.3739 71.9215 42.5598C72.3643 42.7456 72.7342 42.9653 73.0313 43.2187C73.3284 43.4665 73.5498 43.7593 73.6955 44.0972C73.8469 44.4295 73.9225 44.8097 73.9225 45.2377C73.9225 45.6713 73.8329 46.0599 73.6535 46.4034C73.4741 46.7413 73.2163 47.0285 72.88 47.2651C72.5492 47.5016 72.1513 47.6846 71.686 47.8142C71.2208 47.9381 70.7023 48 70.1306 48C69.6261 48 69.1244 47.9381 68.6256 47.8142C68.1323 47.6903 67.6867 47.4988 67.2887 47.2397C66.8907 46.9807 66.5712 46.6512 66.3302 46.2514C66.0948 45.8459 65.9771 45.37 65.9771 44.8237H68.0118C68.0118 45.1166 68.0622 45.37 68.1631 45.584C68.2696 45.7924 68.4182 45.9641 68.6087 46.0993C68.8049 46.2288 69.0375 46.3246 69.3066 46.3865C69.5756 46.4485 69.8727 46.4794 70.1978 46.4794C70.607 46.4794 70.9405 46.4259 71.1984 46.3189C71.4618 46.2063 71.6524 46.0599 71.7701 45.8797C71.8934 45.6995 71.9551 45.5023 71.9551 45.2883Z" fill="white"/>
<path d="M82.1663 38.0235V47.8648H80.1316V38.0235H82.1663Z" fill="white"/>
<path d="M97.2457 38.0235V47.8648H95.211L90.7885 41.0815V47.8648H88.7622V38.0235H90.7885L95.211 44.8068V38.0235H97.2457Z" fill="white"/>
<path d="M112.241 42.7118V43.1849C112.241 43.9339 112.135 44.6041 111.922 45.1954C111.709 45.7867 111.406 46.2936 111.014 46.716C110.627 47.1327 110.162 47.4509 109.618 47.6705C109.074 47.8902 108.474 48 107.819 48C107.163 48 106.563 47.8902 106.019 47.6705C105.476 47.4509 105.005 47.1327 104.607 46.716C104.209 46.2936 103.9 45.7867 103.682 45.1954C103.469 44.6041 103.362 43.9339 103.362 43.1849V42.7118C103.362 41.9628 103.469 41.2927 103.682 40.7013C103.9 40.11 104.206 39.6032 104.598 39.1808C104.991 38.7584 105.459 38.4374 106.002 38.2178C106.546 37.9981 107.146 37.8883 107.802 37.8883C108.463 37.8883 109.063 37.9981 109.601 38.2178C110.145 38.4374 110.613 38.7584 111.005 39.1808C111.403 39.6032 111.709 40.11 111.922 40.7013C112.135 41.2927 112.241 41.9628 112.241 42.7118ZM110.215 43.1849V42.695C110.215 42.1825 110.162 41.7291 110.055 41.3349C109.949 40.9407 109.789 40.6084 109.576 40.3381C109.368 40.0678 109.116 39.8622 108.819 39.7214C108.522 39.5806 108.183 39.5102 107.802 39.5102C107.426 39.5102 107.087 39.5806 106.784 39.7214C106.487 39.8622 106.235 40.0678 106.028 40.3381C105.826 40.6084 105.669 40.9407 105.557 41.3349C105.45 41.7291 105.397 42.1825 105.397 42.695V43.1849C105.397 43.6918 105.45 44.1451 105.557 44.545C105.669 44.9392 105.829 45.2743 106.036 45.5502C106.249 45.8205 106.504 46.0289 106.801 46.1753C107.104 46.3161 107.443 46.3865 107.819 46.3865C108.2 46.3865 108.536 46.3161 108.827 46.1753C109.125 46.0289 109.377 45.8205 109.584 45.5502C109.792 45.2743 109.949 44.9392 110.055 44.545C110.162 44.1451 110.215 43.6918 110.215 43.1849Z" fill="white"/>
</svg>
