<svg width="123" height="24" viewBox="0 0 123 24" fill="none" xmlns="http://www.w3.org/2000/svg">
<path d="M55.3378 1.59082C58.1447 1.59082 60.2993 2.48033 61.8016 4.25935L58.629 7.31334C58.1348 6.87847 57.6308 6.55231 57.1168 6.33487C56.6029 6.09767 56.0297 5.97907 55.3971 5.97907C54.2309 5.97907 53.2821 6.46336 52.5507 7.43194C51.8391 8.38075 51.3251 9.52723 51.0089 10.8714C50.7124 12.2155 50.5641 13.4905 50.5641 14.6963C50.5641 17.4439 51.5821 18.8177 53.6181 18.8177C54.2704 18.8177 54.8931 18.6694 55.4861 18.3729C56.0988 18.0764 56.7808 17.6514 57.5319 17.098L59.7854 20.567C58.8366 21.417 57.7494 22.1089 56.5238 22.6426C55.318 23.1565 53.9937 23.4135 52.5507 23.4135C50.91 23.4135 49.4769 23.0873 48.2514 22.435C47.0258 21.7629 46.0671 20.7845 45.3753 19.4996C44.7032 18.2148 44.3672 16.6532 44.3672 14.8149C44.3672 12.6998 44.7428 10.6342 45.4939 8.61795C46.245 6.60173 47.4409 4.93143 49.0816 3.60704C50.7222 2.26289 52.8077 1.59082 55.3378 1.59082Z" fill="url(#paint0_linear_8831_120478)"/>
<path d="M68.5477 5.89012L66.7984 18.4322H73.3511L72.1354 22.8205H60.4532L62.8252 5.89012H68.5477Z" fill="url(#paint1_linear_8831_120478)"/>
<path d="M83.0979 22.8205L82.9793 19.8258H79.3027L78.3539 22.8205H72.3349L79.7178 5.89012H86.5077L89.117 22.8205H83.0979ZM80.548 15.823H82.8014L82.5346 9.47781L80.548 15.823Z" fill="url(#paint2_linear_8831_120478)"/>
<path d="M98.8015 5.41571C100.106 5.41571 101.312 5.63315 102.419 6.06802C103.526 6.50289 104.504 7.10578 105.354 7.87669L102.478 10.7528C101.905 10.3377 101.292 10.0214 100.64 9.80397C100.007 9.58653 99.4143 9.47781 98.8608 9.47781C98.2678 9.47781 97.8132 9.56676 97.4969 9.74467C97.2004 9.9028 97.0521 10.14 97.0521 10.4563C97.0521 10.733 97.2103 10.9702 97.5266 11.1679C97.8428 11.3458 98.5347 11.6324 99.6021 12.0277C101.164 12.5417 102.32 13.2533 103.071 14.1626C103.822 15.0521 104.198 16.0898 104.198 17.2759C104.198 18.3235 103.921 19.3118 103.368 20.2409C102.834 21.1502 101.954 21.9013 100.729 22.4943C99.5032 23.0676 97.9219 23.3542 95.9847 23.3542C94.4034 23.3542 92.99 23.0972 91.7447 22.5833C90.5192 22.0693 89.5012 21.417 88.6907 20.6263L91.7151 17.4834C92.2883 18.0171 92.9406 18.4322 93.672 18.7287C94.4231 19.0252 95.1842 19.1735 95.9551 19.1735C96.6667 19.1735 97.1905 19.0746 97.5266 18.877C97.8824 18.6595 98.0603 18.4026 98.0603 18.1061C98.0603 17.7107 97.9021 17.3846 97.5858 17.1276C97.2696 16.8706 96.6865 16.6038 95.8365 16.327C94.0377 15.7736 92.7726 15.0718 92.0412 14.2219C91.3099 13.3719 90.9442 12.3934 90.9442 11.2865C90.9442 10.1993 91.2407 9.21096 91.8337 8.32145C92.4267 7.43194 93.3063 6.73021 94.4726 6.21627C95.6586 5.68257 97.1016 5.41571 98.8015 5.41571Z" fill="url(#paint3_linear_8831_120478)"/>
<path d="M122.358 5.89012L119.986 22.8205H114.233L115.153 16.2974H111.832L110.913 22.8205H105.16L107.532 5.89012H113.285L112.454 11.8498H115.775L116.605 5.89012H122.358Z" fill="url(#paint4_linear_8831_120478)"/>
<path d="M13.7537 11.9089C14.9793 12.1461 15.9577 12.5909 16.6891 13.2432C17.4205 13.8955 17.7862 14.9036 17.7862 16.2675C17.7862 18.2442 16.9856 19.8354 15.3845 21.0412C13.8031 22.2272 11.2137 22.8202 7.61608 22.8202H0.5L3.37608 2.18359H9.63231C12.4194 2.18359 14.5444 2.54928 16.0071 3.28066C17.4896 4.01203 18.2309 5.23758 18.2309 6.9573C18.2309 8.34098 17.8059 9.42816 16.9559 10.2188C16.106 11.0095 15.0386 11.5729 13.7537 11.9089ZM9.24685 10.1595C10.3736 10.1595 11.1148 9.93222 11.4706 9.47758C11.8462 9.00317 12.034 8.42005 12.034 7.72821C12.034 7.2538 11.8462 6.90788 11.4706 6.69045C11.1148 6.47301 10.5119 6.36429 9.66196 6.36429H8.7428L8.20909 10.1595H9.24685ZM8.20909 18.5209C9.53347 18.5209 10.4329 18.2837 10.9073 17.8093C11.4014 17.3152 11.6485 16.6233 11.6485 15.7338C11.6485 14.5873 10.8084 14.0141 9.12825 14.0141H7.67538L7.05273 18.5209H8.20909Z" fill="url(#paint5_linear_8831_120478)"/>
<path d="M26.7213 5.88989L24.3493 22.8202H18.5971L20.9692 5.88989H26.7213Z" fill="url(#paint6_linear_8831_120478)"/>
<path d="M37.6994 5.41548C39.004 5.41548 40.1801 5.6428 41.2278 6.09744C42.2952 6.55208 43.1353 7.14509 43.748 7.87646L40.5755 10.6932C40.101 10.2386 39.6365 9.91245 39.1819 9.71478C38.7272 9.51711 38.2034 9.41828 37.6104 9.41828C35.9105 9.41828 34.7244 10.1398 34.0524 11.5828C33.4001 13.006 33.0739 14.7257 33.0739 16.7419C33.0739 17.7105 33.232 18.3826 33.5483 18.7581C33.8844 19.1337 34.4082 19.3215 35.1198 19.3215C35.7919 19.3215 36.375 19.2128 36.8692 18.9953L37.1953 16.564H35.5645L35.5942 12.7391H43.0957L41.9097 21.3081C40.8225 21.9999 39.7057 22.5138 38.5592 22.8499C37.4128 23.1859 36.1674 23.3539 34.8233 23.3539C32.2931 23.3539 30.3955 22.7609 29.1304 21.5749C27.8851 20.3691 27.2624 18.6297 27.2624 16.3565C27.2624 14.4588 27.6084 12.6897 28.3002 11.049C29.0118 9.38863 30.1484 8.0346 31.71 6.98695C33.2716 5.9393 35.268 5.41548 37.6994 5.41548Z" fill="url(#paint7_linear_8831_120478)"/>
<path d="M13.2537 10.9052C14.4793 11.1424 15.4577 11.5872 16.1891 12.2395C16.9205 12.8918 17.2861 13.8999 17.2861 15.2638C17.2861 17.2405 16.4856 18.8318 14.8845 20.0375C13.3031 21.2236 10.7137 21.8166 7.11608 21.8166H0L2.87608 1.17992H9.13231C11.9194 1.17992 14.0444 1.54561 15.5071 2.27698C16.9896 3.00836 17.7309 4.23391 17.7309 5.95363C17.7309 7.33731 17.3059 8.42449 16.4559 9.21517C15.606 10.0058 14.5386 10.5692 13.2537 10.9052ZM8.74685 9.15586C9.87356 9.15586 10.6148 8.92854 10.9706 8.47391C11.3462 7.9995 11.534 7.41638 11.534 6.72454C11.534 6.25013 11.3462 5.90421 10.9706 5.68677C10.6148 5.46934 10.0119 5.36062 9.16196 5.36062H8.24279L7.70909 9.15586H8.74685ZM7.70909 17.5173C9.03347 17.5173 9.93287 17.2801 10.4073 16.8057C10.9014 16.3115 11.1485 15.6196 11.1485 14.7301C11.1485 13.5836 10.3084 13.0104 8.62825 13.0104H7.17538L6.55273 17.5173H7.70909Z" fill="white"/>
<path d="M26.2213 4.88621L23.8493 21.8166H18.0971L20.4692 4.88621H26.2213Z" fill="white"/>
<path d="M37.1994 4.41181C38.504 4.41181 39.6801 4.63913 40.7278 5.09377C41.7952 5.54841 42.6353 6.14141 43.248 6.87279L40.0754 9.68957C39.601 9.23493 39.1365 8.90878 38.6819 8.71111C38.2272 8.51344 37.7034 8.41461 37.1104 8.41461C35.4105 8.41461 34.2244 9.1361 33.5524 10.5791C32.9001 12.0023 32.5739 13.722 32.5739 15.7382C32.5739 16.7068 32.732 17.3789 33.0483 17.7545C33.3843 18.13 33.9082 18.3178 34.6198 18.3178C35.2919 18.3178 35.875 18.2091 36.3692 17.9917L36.6953 15.5603H35.0645L35.0942 11.7354H42.5957L41.4097 20.3044C40.3225 20.9962 39.2057 21.5102 38.0592 21.8462C36.9127 22.1822 35.6674 22.3503 34.3233 22.3503C31.7931 22.3503 29.8955 21.7573 28.6304 20.5712C27.3851 19.3655 26.7624 17.626 26.7624 15.3528C26.7624 13.4552 27.1084 11.686 27.8002 10.0454C28.5118 8.38495 29.6484 7.03092 31.21 5.98328C32.7716 4.93563 34.768 4.41181 37.1994 4.41181Z" fill="white"/>
<path d="M54.9961 0.586914C57.803 0.586914 59.9575 1.47642 61.4598 3.25544L58.2872 6.30943C57.7931 5.87456 57.289 5.5484 56.7751 5.33097C56.2611 5.09377 55.6879 4.97516 55.0554 4.97516C53.8891 4.97516 52.9403 5.45945 52.2089 6.42803C51.4973 7.37684 50.9834 8.52332 50.6671 9.86747C50.3706 11.2116 50.2224 12.4866 50.2224 13.6924C50.2224 16.44 51.2403 17.8138 53.2763 17.8138C53.9286 17.8138 54.5513 17.6655 55.1443 17.369C55.7571 17.0725 56.439 16.6475 57.1902 16.094L59.4436 19.5631C58.4948 20.4131 57.4076 21.105 56.1821 21.6387C54.9763 22.1526 53.6519 22.4096 52.2089 22.4096C50.5683 22.4096 49.1352 22.0834 47.9096 21.4311C46.6841 20.759 45.7254 19.7806 45.0335 18.4957C44.3615 17.2109 44.0254 15.6493 44.0254 13.811C44.0254 11.6959 44.401 9.63027 45.1521 7.61405C45.9033 5.59782 47.0992 3.92752 48.7398 2.60314C50.3805 1.25899 52.4659 0.586914 54.9961 0.586914Z" fill="#F72B39"/>
<path d="M68.206 4.88621L66.4566 17.4283H73.0093L71.7937 21.8166H60.1114L62.4835 4.88621H68.206Z" fill="#F72B39"/>
<path d="M82.7562 21.8166L82.6376 18.8219H78.9609L78.0121 21.8166H71.9931L79.376 4.88621H86.166L88.7752 21.8166H82.7562ZM80.2063 14.8191H82.4597L82.1928 8.47391L80.2063 14.8191Z" fill="#F72B39"/>
<path d="M98.4597 4.41181C99.7644 4.41181 100.97 4.62924 102.077 5.06412C103.184 5.49899 104.162 6.10188 105.012 6.87279L102.136 9.74887C101.563 9.33377 100.95 9.0175 100.298 8.80006C99.6655 8.58262 99.0725 8.47391 98.5191 8.47391C97.926 8.47391 97.4714 8.56286 97.1551 8.74076C96.8586 8.89889 96.7104 9.1361 96.7104 9.45237C96.7104 9.7291 96.8685 9.96631 97.1848 10.164C97.5011 10.3419 98.1929 10.6285 99.2603 11.0238C100.822 11.5378 101.978 12.2494 102.729 13.1587C103.481 14.0482 103.856 15.0859 103.856 16.2719C103.856 17.3196 103.579 18.3079 103.026 19.237C102.492 20.1463 101.613 20.8974 100.387 21.4904C99.1615 22.0636 97.5801 22.3503 95.643 22.3503C94.0616 22.3503 92.6483 22.0933 91.403 21.5794C90.1774 21.0654 89.1594 20.4131 88.349 19.6224L91.3733 16.4795C91.9466 17.0132 92.5989 17.4283 93.3302 17.7248C94.0814 18.0213 94.8424 18.1696 95.6133 18.1696C96.3249 18.1696 96.8487 18.0707 97.1848 17.8731C97.5406 17.6556 97.7185 17.3987 97.7185 17.1022C97.7185 16.7068 97.5604 16.3807 97.2441 16.1237C96.9278 15.8667 96.3447 15.5999 95.4947 15.3231C93.6959 14.7697 92.4308 14.0679 91.6995 13.218C90.9681 12.368 90.6024 11.3895 90.6024 10.2826C90.6024 9.1954 90.8989 8.20705 91.4919 7.31754C92.0849 6.42803 92.9646 5.72631 94.1308 5.21237C95.3168 4.67866 96.7598 4.41181 98.4597 4.41181Z" fill="#F72B39"/>
<path d="M122.016 4.88621L119.644 21.8166H113.892L114.811 15.2935H111.49L110.571 21.8166H104.819L107.191 4.88621H112.943L112.113 10.8459H115.433L116.264 4.88621H122.016Z" fill="#F72B39"/>
<defs>
<linearGradient id="paint0_linear_8831_120478" x1="83.0053" y1="1.49933" x2="83.0053" y2="24.0747" gradientUnits="userSpaceOnUse">
<stop stop-color="#93000A"/>
<stop offset="1" stop-color="#590006"/>
</linearGradient>
<linearGradient id="paint1_linear_8831_120478" x1="83.0053" y1="1.49933" x2="83.0053" y2="24.0747" gradientUnits="userSpaceOnUse">
<stop stop-color="#93000A"/>
<stop offset="1" stop-color="#590006"/>
</linearGradient>
<linearGradient id="paint2_linear_8831_120478" x1="83.0053" y1="1.49933" x2="83.0053" y2="24.0747" gradientUnits="userSpaceOnUse">
<stop stop-color="#93000A"/>
<stop offset="1" stop-color="#590006"/>
</linearGradient>
<linearGradient id="paint3_linear_8831_120478" x1="83.0053" y1="1.49933" x2="83.0053" y2="24.0747" gradientUnits="userSpaceOnUse">
<stop stop-color="#93000A"/>
<stop offset="1" stop-color="#590006"/>
</linearGradient>
<linearGradient id="paint4_linear_8831_120478" x1="83.0053" y1="1.49933" x2="83.0053" y2="24.0747" gradientUnits="userSpaceOnUse">
<stop stop-color="#93000A"/>
<stop offset="1" stop-color="#590006"/>
</linearGradient>
<linearGradient id="paint5_linear_8831_120478" x1="22.0531" y1="-0.131382" x2="22.0531" y2="24.5761" gradientUnits="userSpaceOnUse">
<stop stop-color="#BEC2C9"/>
<stop offset="1" stop-color="#030736"/>
</linearGradient>
<linearGradient id="paint6_linear_8831_120478" x1="22.0531" y1="-0.131382" x2="22.0531" y2="24.5761" gradientUnits="userSpaceOnUse">
<stop stop-color="#BEC2C9"/>
<stop offset="1" stop-color="#030736"/>
</linearGradient>
<linearGradient id="paint7_linear_8831_120478" x1="22.0531" y1="-0.131382" x2="22.0531" y2="24.5761" gradientUnits="userSpaceOnUse">
<stop stop-color="#BEC2C9"/>
<stop offset="1" stop-color="#030736"/>
</linearGradient>
</defs>
</svg>
