<svg width="195" height="108" viewBox="0 0 195 108" fill="none" xmlns="http://www.w3.org/2000/svg">
<path d="M40.5343 0L0 23.9448L97.5 108L195 23.9448L154.466 0H40.5343Z" fill="#CC2929"/>
<path d="M84.6643 55.6096C84.5297 55.6345 84.4222 55.6196 84.3062 55.547C84.2684 55.4677 84.2457 55.4328 84.2482 55.3429C84.2593 54.9892 84.518 54.6489 84.7677 54.4221C84.8504 54.4147 84.9281 54.4266 85.0103 54.4371C85.1248 54.5119 85.1994 54.5854 85.2372 54.7215C85.2907 54.9143 85.2246 55.1436 85.1207 55.3085C85.0037 55.4932 84.8716 55.5594 84.6643 55.6096ZM84.5791 54.9213C84.5747 54.9246 84.5705 54.9281 84.5665 54.9319C84.5628 54.9356 84.5591 54.9396 84.5554 54.9437C84.5517 54.9478 84.5483 54.952 84.5453 54.9565C84.5423 54.9609 84.5394 54.9655 84.5367 54.9702C84.534 54.9749 84.5315 54.9798 84.5291 54.9847C84.5268 54.9897 84.5248 54.9948 84.5231 54.9999C84.5214 55.0051 84.5199 55.0103 84.5186 55.0156C84.5175 55.0209 84.5165 55.0263 84.5155 55.0317C84.5149 55.037 84.5145 55.0425 84.5145 55.0479C84.5142 55.0534 84.5142 55.0588 84.5145 55.0642C84.5149 55.0696 84.5155 55.0751 84.5165 55.0804C84.5175 55.0858 84.5187 55.0911 84.5201 55.0964C84.5214 55.1017 84.5229 55.1068 84.5246 55.1119C84.5266 55.117 84.5288 55.122 84.5312 55.1269C84.5335 55.1318 84.5362 55.1366 84.5392 55.1412C84.5419 55.1458 84.5449 55.1503 84.5483 55.1547C84.5517 55.159 84.5552 55.1632 84.5589 55.1672C84.5626 55.1712 84.5665 55.175 84.5705 55.1786C84.5745 55.1822 84.5787 55.1856 84.5831 55.1888C84.5875 55.192 84.592 55.195 84.5967 55.1977C84.6014 55.2005 84.6063 55.2031 84.6114 55.2054C84.6161 55.2076 84.6211 55.2097 84.6265 55.2115C84.6315 55.2133 84.6367 55.2148 84.6421 55.2161C84.6472 55.2174 84.6524 55.2185 84.6578 55.2192C84.6631 55.22 84.6687 55.2205 84.6744 55.2207C84.6798 55.221 84.6852 55.221 84.6905 55.2207C84.6959 55.2204 84.7013 55.2198 84.7067 55.219C84.7121 55.2182 84.7174 55.2171 84.7228 55.2158C84.7279 55.2145 84.7331 55.2129 84.7384 55.2111C84.7435 55.2092 84.7485 55.2071 84.7536 55.2048C84.7583 55.2025 84.763 55.1999 84.7677 55.1971C84.7724 55.1943 84.7769 55.1913 84.7813 55.1881C84.7874 55.1837 84.7929 55.1789 84.798 55.1738C84.8033 55.1687 84.8084 55.1632 84.8131 55.1574C84.8175 55.1517 84.8217 55.1456 84.8257 55.1393C84.8294 55.133 84.8326 55.1264 84.8353 55.1196C84.8383 55.1129 84.8408 55.1059 84.8428 55.0988C84.8449 55.0918 84.8464 55.0846 84.8474 55.0773C84.8484 55.07 84.8489 55.0626 84.8489 55.0553C84.8492 55.0479 84.8489 55.0406 84.8479 55.0332C84.8469 55.0259 84.8455 55.0187 84.8438 55.0115C84.8418 55.0044 84.8395 54.9974 84.8368 54.9906C84.8341 54.9838 84.8309 54.9772 84.8272 54.9707C84.8235 54.9643 84.8195 54.9582 84.8151 54.9523C84.8107 54.9465 84.8059 54.9409 84.8005 54.9356C84.7954 54.9304 84.7901 54.9256 84.7843 54.9211C84.7783 54.9165 84.7721 54.9124 84.7657 54.9087C84.7593 54.905 84.7527 54.9018 84.746 54.8989C84.7393 54.8961 84.7324 54.8937 84.7253 54.8918C84.7179 54.8899 84.7107 54.8885 84.7036 54.8875C84.6963 54.8866 84.6889 54.8861 84.6815 54.8861C84.6741 54.8861 84.6668 54.8866 84.6598 54.8876C84.6524 54.8886 84.6451 54.89 84.6381 54.8919C84.631 54.8939 84.624 54.8963 84.6169 54.8991C84.6102 54.9019 84.6036 54.9052 84.5972 54.9089C84.5908 54.9126 84.5848 54.9168 84.5791 54.9213Z" fill="white"/>
<path fill-rule="evenodd" clip-rule="evenodd" d="M79.9071 52.4498C80.1632 54.4162 80.3785 56.8923 80.0221 58.8363C80.6552 58.5259 81.3031 58.2481 81.9509 57.9704L81.9519 57.9699C82.2221 57.8541 82.4923 57.7382 82.7613 57.62C82.9535 57.5414 83.4888 57.3377 84.1052 57.1033L84.1055 57.1031L84.1058 57.103L84.1064 57.1028C85.223 56.678 86.6051 56.1522 86.6944 56.0851C86.8109 55.7617 86.8108 55.0695 86.8107 54.5002C86.8106 54.2661 86.8106 54.0528 86.8187 53.8946C86.8494 53.358 86.8933 52.8224 86.9504 52.288C87.1426 50.4651 87.5219 48.5955 88.0464 46.8409C88.1972 46.3479 88.3612 45.8596 88.5381 45.3757C88.7154 44.8918 88.9056 44.4133 89.1086 43.9399C89.312 43.4666 89.5279 42.9993 89.7564 42.5379C89.9848 42.0765 90.2255 41.6218 90.4784 41.1738C90.8606 40.484 91.3058 39.7498 91.7712 38.9822C94.0757 35.1814 96.8765 30.5621 94.985 26.4649C93.998 24.3267 91.8705 23.1549 89.7593 22.3851C89.1412 22.1597 88.5195 22.0075 87.8891 21.8532C87.7347 21.8154 87.5798 21.7775 87.4244 21.7383C87.2558 21.6959 87.092 21.6541 86.9318 21.6132C85.42 21.2271 84.2354 20.9245 82.5415 21.0167C81.922 21.0595 81.3447 21.1794 80.7546 21.3019C80.5535 21.3437 80.3508 21.3858 80.1445 21.4253C79.9068 21.4707 79.6681 21.5093 79.4293 21.5479C79.0456 21.6099 78.6619 21.6719 78.2833 21.7623C76.2707 22.2429 74.0281 23.2181 72.6402 24.8199C71.3602 26.2971 70.9418 28.3128 71.069 30.2323C71.2775 33.3797 72.9013 36.2278 74.577 38.8081C74.7383 39.0565 74.9008 39.3034 75.0632 39.5501C75.7318 40.5658 76.3973 41.5769 76.959 42.6636C78.5469 45.7367 79.4603 49.0192 79.9071 52.4498ZM78.781 25.6899C78.7799 25.6277 78.7803 25.5655 78.7822 25.5033C78.9568 25.4173 79.1024 25.4028 79.288 25.4683C79.6488 25.5954 79.9226 26.0093 80.0776 26.3475C80.1073 26.4124 80.1316 26.4791 80.1541 26.5468C80.1306 26.5242 80.1058 26.4993 80.0799 26.4733C80.0741 26.4674 80.0683 26.4615 80.0624 26.4556C80.153 26.6825 80.1917 26.9044 80.179 27.0876C80.2179 27.0431 80.2614 26.9967 80.3191 26.9546C80.4086 27.063 80.4696 27.1985 80.5286 27.3296C80.5422 27.36 80.5559 27.3903 80.5697 27.4199C80.6175 27.5009 80.6367 27.5441 80.6344 27.6392C80.5907 27.6712 80.5543 27.6943 80.5008 27.7068C80.1306 27.7933 79.6914 27.6619 79.384 27.4501C78.9859 27.1757 78.8705 26.8368 78.785 26.3819C78.7892 26.3839 78.7934 26.386 78.7976 26.3881C78.7442 26.167 78.7436 25.9635 78.7955 25.8123C78.7872 25.7763 78.7822 25.7357 78.781 25.6899ZM80.1638 26.6027C80.165 26.6016 80.1664 26.6006 80.1678 26.5997C80.1698 26.5983 80.1719 26.5972 80.1741 26.5962C80.1753 26.5958 80.1765 26.5953 80.1777 26.595L80.181 26.5941C80.1834 26.5937 80.1857 26.5934 80.1881 26.5934C80.1906 26.5934 80.1929 26.5936 80.1953 26.594L80.1982 26.5947C80.1996 26.5951 80.2009 26.5955 80.2022 26.596C80.2036 26.5966 80.2049 26.5972 80.2062 26.5979L80.2086 26.5993C80.2106 26.6006 80.2125 26.6021 80.2142 26.6038C80.2151 26.6046 80.2159 26.6054 80.2167 26.6063C80.2175 26.6072 80.2183 26.6082 80.219 26.6092L80.2201 26.6108L80.2208 26.6121L80.2218 26.6138L80.2226 26.6155L80.2232 26.6167C80.2234 26.6173 80.2236 26.6179 80.2239 26.6186L80.2244 26.6201C80.2246 26.6209 80.2248 26.6216 80.225 26.6223C80.2256 26.6247 80.2259 26.6271 80.226 26.6295C80.2262 26.632 80.2261 26.6344 80.2257 26.6368C80.2254 26.6392 80.2248 26.6415 80.224 26.6438L80.2233 26.6458L80.2227 26.6473C80.2222 26.6483 80.2217 26.6494 80.2211 26.6505C80.2199 26.6526 80.2185 26.6545 80.217 26.6564C80.2154 26.6582 80.2136 26.6599 80.2118 26.6614C80.2107 26.6622 80.2097 26.663 80.2086 26.6637C80.2068 26.6648 80.205 26.6658 80.2031 26.6666C80.2 26.6679 80.1967 26.6688 80.1933 26.6692C80.1927 26.6693 80.192 26.6694 80.1913 26.6695C80.1906 26.6695 80.19 26.6696 80.1894 26.6696L80.1887 26.6696C80.1869 26.6696 80.1851 26.6695 80.1832 26.6692C80.1799 26.6688 80.1766 26.6679 80.1735 26.6665C80.1725 26.666 80.1715 26.6655 80.1705 26.665C80.1692 26.6643 80.168 26.6635 80.1668 26.6627C80.1661 26.6622 80.1655 26.6617 80.1649 26.6612C80.1622 26.6591 80.1599 26.6566 80.1579 26.6538C80.1567 26.652 80.1556 26.6502 80.1547 26.6483C80.1541 26.6472 80.1536 26.646 80.1532 26.6447C80.152 26.6415 80.1512 26.6382 80.151 26.6348C80.1507 26.6314 80.1508 26.628 80.1514 26.6246C80.152 26.6212 80.1531 26.618 80.1546 26.6149C80.1555 26.613 80.1565 26.6113 80.1576 26.6096C80.1584 26.6085 80.1593 26.6074 80.1602 26.6064C80.1613 26.6051 80.1625 26.6038 80.1638 26.6027ZM76.5345 24.0185C77.202 22.971 78.1753 22.1697 79.3935 21.9059L79.4805 21.9157C79.4449 22.011 79.338 22.0921 79.2435 22.1638C79.2129 22.187 79.1837 22.2092 79.1585 22.2306C78.4944 22.7953 78.1338 23.3916 77.9839 24.2611C77.8711 23.8722 77.8164 23.5494 77.8341 23.1466C77.7052 23.3407 77.5751 23.5402 77.4929 23.76C77.3193 24.2239 77.5119 24.6445 77.7021 25.06C77.7158 25.0901 77.7298 25.1206 77.7434 25.1506C77.6503 25.0945 77.5091 24.9781 77.3594 24.8547C77.1213 24.6585 76.8618 24.4445 76.7401 24.4272L76.7218 24.6242C76.8183 25.0239 76.9613 25.3298 77.1949 25.6651C76.7717 25.4923 76.3699 25.3062 75.9965 25.038C76.1327 24.6868 76.3327 24.3352 76.5345 24.0185ZM88.4594 23.6313C88.14 23.0097 87.7354 22.4297 87.1223 22.0719C87.1728 22.0602 87.2243 22.0539 87.2758 22.0604C88.2484 22.1838 89.6123 23.2098 90.2031 23.9777C90.3739 24.2003 90.6191 24.5453 90.5844 24.8364C90.5903 24.8763 90.5948 24.9086 90.5854 24.9485C90.5487 25.1051 90.4413 25.2504 90.313 25.3423C90.0164 25.5553 89.6459 25.6865 89.2819 25.6224L89.2706 25.5768C89.3161 25.5207 89.3458 25.4684 89.377 25.4029L89.3879 25.3792C89.4414 25.3505 89.48 25.3164 89.5187 25.269C89.7143 25.0305 89.7905 24.5969 89.7668 24.2951L89.7158 24.2518C89.5349 24.3483 89.4081 24.4921 89.279 24.6385C89.125 24.8131 88.9679 24.9913 88.7119 25.0971L88.7143 25.0939C88.716 25.0916 88.7177 25.0893 88.7193 25.087C88.7217 25.0836 88.7241 25.0803 88.7263 25.0768C88.7301 25.0709 88.7336 25.0649 88.7372 25.0589C88.7406 25.0532 88.744 25.0475 88.7476 25.0418C88.8041 24.9505 88.8348 24.8723 88.8541 24.7666C88.9576 24.1957 88.7971 23.6387 88.4713 23.1726C88.5114 23.2946 88.5401 23.4835 88.5064 23.6075L88.4643 23.6024L88.4594 23.6313ZM89.894 26.2813C90.3383 26.0709 90.6265 25.853 90.7954 25.3789C90.8276 25.4132 90.8493 25.4371 90.8696 25.4801C90.9756 25.7046 90.9895 26.0822 90.9093 26.3144C90.7447 26.3802 90.5435 26.4018 90.3541 26.4221C90.2894 26.429 90.2259 26.4358 90.1659 26.4442L90.2249 26.4542C90.4814 26.4976 90.772 26.5467 90.9875 26.6895L90.9938 26.6997C91.0028 26.714 91.0088 26.7237 91.0177 26.7435C91.1737 27.0831 90.9464 28.0114 90.8236 28.3691C90.5661 29.1169 90.0545 29.6699 89.3562 30.0096C88.7828 30.2886 87.3733 30.7263 86.7622 30.5096C86.7544 30.4633 86.8903 30.3595 87.0443 30.2417C87.2136 30.1123 87.4049 29.9661 87.4516 29.8609L87.457 29.8469L87.4605 29.8378C87.8734 29.622 88.1856 28.7305 88.4142 28.0777L88.4143 28.0774C88.4848 27.8761 88.5474 27.6974 88.6025 27.5683C88.7084 27.5673 88.7378 27.5907 88.8164 27.6532L88.8199 27.656C88.8351 27.668 88.8496 27.6808 88.8635 27.6943C88.8773 27.7079 88.8906 27.7221 88.9031 27.737C88.9156 27.7519 88.9274 27.7674 88.9383 27.7836C88.9492 27.7997 88.9592 27.8164 88.9685 27.8335C88.9777 27.8507 88.986 27.8684 88.9932 27.8864C89.0005 27.9044 89.0069 27.9228 89.0125 27.9416C89.0182 27.9603 89.0226 27.9792 89.0259 27.9984C89.0295 28.0176 89.0322 28.0369 89.0338 28.0564C89.0556 28.3289 88.9046 28.5718 88.7313 28.7631C88.7464 28.7544 88.7615 28.7457 88.7763 28.7368C89.1804 28.4976 89.5023 28.0001 89.6133 27.5439C89.7068 27.1612 89.6358 27.0411 89.4701 26.7612L89.4456 26.7197C89.4382 26.7072 89.4307 26.6945 89.4231 26.6814L89.4329 26.6768C89.4516 26.668 89.4575 26.6652 89.4875 26.6608C89.7549 26.6218 89.8698 26.7136 90.0102 26.8259C90.0674 26.8716 90.1288 26.9207 90.2065 26.9658C90.2818 27.0092 90.2848 27.0103 90.3685 26.9875C90.3705 26.9461 90.3714 26.9179 90.361 26.8774C90.2823 26.578 90.1115 26.4384 89.8549 26.2996L89.894 26.2813ZM86.9296 25.6741C86.9673 25.6414 87.0057 25.6097 87.045 25.579L87.0801 25.5734C87.2119 25.5519 87.3548 25.5286 87.4739 25.6001C87.5962 25.6731 87.6596 25.7982 87.6883 25.9341C87.7725 26.3336 87.5759 26.8977 87.357 27.2266C87.0995 27.6138 86.8217 27.8183 86.37 27.9074C86.218 27.9564 86.0981 27.9674 85.9555 27.9001C85.9109 27.8099 85.909 27.7278 85.9194 27.63C85.9243 27.58 85.9306 27.5301 85.9382 27.4804C85.9454 27.4307 85.954 27.3813 85.9639 27.332C85.9742 27.2828 85.9854 27.2339 85.9976 27.1852C86.0101 27.1366 86.0238 27.0882 86.0387 27.0403C86.0536 26.9923 86.0696 26.9448 86.0867 26.8976C86.1039 26.8505 86.1224 26.8038 86.1422 26.7577C86.1617 26.7115 86.1823 26.6658 86.2041 26.6207C86.2259 26.5756 86.2488 26.531 86.2729 26.4871C86.297 26.4431 86.3223 26.3999 86.3487 26.3572C86.3751 26.3146 86.4025 26.2726 86.4309 26.2314C86.4593 26.1902 86.4887 26.1497 86.5191 26.11C86.5494 26.0703 86.5808 26.0313 86.6132 25.9932C86.6455 25.9551 86.6789 25.9179 86.7132 25.8815C86.7475 25.8451 86.7827 25.8096 86.8187 25.775C86.8547 25.7404 86.8917 25.7068 86.9296 25.6741ZM75.9799 28.6479C75.4276 27.6358 75.5097 26.6573 75.8201 25.582C75.9046 25.6513 75.9785 25.7351 76.0525 25.819C76.1213 25.897 76.1903 25.9752 76.2681 26.0422C76.4045 26.1597 76.5927 26.2343 76.7748 26.3064C76.8656 26.3424 76.9549 26.3777 77.0354 26.4175L76.996 26.4859C76.9062 26.5136 76.8232 26.5489 76.7376 26.5874C76.7222 26.6221 76.7095 26.6559 76.699 26.6925C76.6241 26.9516 76.7337 27.3654 76.8596 27.5934L76.8598 27.5927C76.8661 27.5737 76.8723 27.5546 76.8797 27.5359C76.9436 27.3751 77.0629 27.2755 77.2179 27.2109C77.3025 27.1756 77.4153 27.1483 77.4991 27.1857L77.4839 27.2168C77.3989 27.3901 77.3187 27.5536 77.3339 27.7547C77.3731 28.271 77.7919 28.7559 78.1606 29.0845L78.1352 29.0343C77.9802 28.7285 77.8199 28.4123 77.9227 28.0574L77.9244 28.0517C77.9522 27.9556 77.9548 27.9466 78.0444 27.8974C78.2417 27.9809 78.5968 28.684 78.8415 29.1684C78.9202 29.3241 78.9875 29.4573 79.0344 29.54C79.3098 30.0482 79.6712 30.3133 80.1399 30.619C79.5106 30.6633 78.9161 30.6888 78.3032 30.5112C78.2421 30.4937 78.1816 30.4747 78.1215 30.4542C78.0614 30.4338 78.0019 30.4118 77.9428 30.3883C77.8838 30.3649 77.8254 30.3399 77.7676 30.3136C77.7098 30.2872 77.6527 30.2594 77.5962 30.2301C77.5398 30.2009 77.4841 30.1703 77.4291 30.1383C77.3742 30.1063 77.3201 30.0729 77.2667 30.0382C77.2134 30.0035 77.1609 29.9675 77.1094 29.9302C77.0578 29.8928 77.0072 29.8543 76.9575 29.8144C76.9078 29.7745 76.8591 29.7335 76.8114 29.6912C76.7637 29.6489 76.7171 29.6055 76.6715 29.5609C76.626 29.5163 76.5815 29.4705 76.5382 29.4237C76.4948 29.3769 76.4526 29.329 76.4116 29.2801C76.3706 29.2312 76.3309 29.1812 76.2923 29.1303C76.2537 29.0794 76.2164 29.0276 76.1804 28.9748C76.1443 28.922 76.1096 28.8684 76.0761 28.8139C76.0427 28.7594 76.0106 28.7041 75.9799 28.6479ZM74.1435 32.0475C73.8882 30.3453 74.2375 28.829 75.2461 27.4416C75.2901 27.4744 75.4074 27.8259 75.5191 28.1608C75.6038 28.4148 75.6854 28.6592 75.7293 28.7478C76.0006 29.2945 76.3786 29.676 76.8467 30.0528C76.7579 30.127 76.6685 30.2024 76.5866 30.2844C75.0663 31.8082 77.0112 35.8719 78.0826 38.1103C78.2437 38.4469 78.385 38.7423 78.4919 38.9815C78.962 40.0341 79.3926 41.123 79.7245 42.2289C80.4164 44.5348 80.7221 47.0718 80.7378 49.478L80.7382 49.5174L80.7386 49.5592C80.7429 50.0127 80.7528 51.0382 80.4815 51.3159C80.1777 46.8859 79.316 43.5387 77.3422 39.544C77.0566 38.966 76.7483 38.3919 76.4389 37.8158L76.4384 37.8149L76.4381 37.8143C75.452 35.9782 74.4545 34.1208 74.1435 32.0475ZM90.3353 29.7074C90.8493 29.289 91.2148 28.5414 91.2822 27.8837L91.2858 27.8845C91.3233 27.8927 91.3466 27.8978 91.3792 27.9211C91.8606 28.2668 92.1137 29.3302 92.2063 29.8893C92.3831 30.9566 92.3588 32.2182 92.0527 33.2605C91.7417 34.3191 91.2303 35.3547 90.7286 36.3706L90.7284 36.3709L90.7281 36.3717L90.7279 36.3721C90.5324 36.7678 90.3385 37.1606 90.1585 37.5505C89.1195 39.8014 88.1499 42.0943 87.3961 44.4603C87.0009 45.6996 86.6954 46.9999 86.4715 48.2827C86.444 48.4405 86.4176 48.6888 86.3881 48.9658C86.3225 49.5815 86.2418 50.3386 86.1011 50.5571L86.0963 50.5644L86.0913 50.5715L86.0823 50.5841C86.0996 50.6286 86.1108 50.6765 86.122 50.7237L86.1292 50.7542L86.1328 50.7686L86.1041 50.7597C85.8485 49.8463 85.9288 48.5029 86.0026 47.5332C86.023 47.2583 86.0484 46.9839 86.0788 46.71C86.1095 46.4361 86.1453 46.1629 86.1863 45.8904C86.2272 45.6179 86.2731 45.3462 86.324 45.0754C86.3751 44.8047 86.4313 44.535 86.4923 44.2663C86.5534 43.9977 86.6196 43.7304 86.6909 43.4643C86.7619 43.1982 86.838 42.9336 86.9192 42.6704C87.0001 42.4072 87.0859 42.1457 87.1767 41.8859C87.2679 41.626 87.3636 41.368 87.464 41.1118C87.8502 40.1202 88.2747 39.1456 88.7372 38.1879C88.8898 37.8728 89.0511 37.555 89.2139 37.2341C90.0777 35.5317 90.9855 33.7425 90.8805 31.8132C90.8459 31.1773 90.6508 30.2635 90.1644 29.8211C90.2252 29.7891 90.2821 29.7512 90.3353 29.7074ZM84.7249 30.6026C85.4286 30.3884 87.2253 29.4676 87.559 28.8347L87.6546 28.8555C87.6915 28.9818 87.6293 29.1216 87.5752 29.2432L87.5655 29.265C87.2639 29.9497 86.2725 30.3812 85.6138 30.6328C85.5626 30.6526 85.5113 30.6718 85.4598 30.6903C85.4083 30.7088 85.3566 30.7267 85.3048 30.7439C85.2529 30.7611 85.2008 30.7776 85.1483 30.7935C85.0961 30.8093 85.0436 30.8245 84.9908 30.8391C84.938 30.8536 84.885 30.8674 84.8318 30.8806C84.779 30.8938 84.7259 30.9063 84.6724 30.9182C84.6189 30.93 84.5654 30.9411 84.5119 30.9516C84.4581 30.9621 84.4043 30.9718 84.3505 30.9809C84.2967 30.99 84.2427 30.9984 84.1885 31.0062C84.1344 31.0139 84.0801 31.0209 84.0256 31.0272C83.9715 31.0336 83.9172 31.0392 83.8627 31.0442C83.8082 31.0491 83.7537 31.0534 83.6993 31.057C83.6448 31.0605 83.5901 31.0634 83.5353 31.0656C83.4809 31.0678 83.4262 31.0692 83.3714 31.07C83.3169 31.0708 83.2623 31.0709 83.2075 31.0703C83.153 31.0697 83.0984 31.0684 83.0437 31.0664C82.9891 31.0644 82.9345 31.0617 82.88 31.0583C82.8254 31.0549 82.7709 31.0509 82.7165 31.0461C82.662 31.0413 82.6077 31.0359 82.5533 31.0297C82.499 31.0236 82.4448 31.0167 82.3907 31.0092C82.3365 31.0016 82.2825 30.9934 82.2285 30.9845C82.1746 30.9756 82.1208 30.966 82.0671 30.9557C82.0134 30.9454 81.9598 30.9345 81.9064 30.9228C81.853 30.9112 81.7997 30.8988 81.7466 30.8858C81.6935 30.8728 81.6405 30.8591 81.5877 30.8448C81.5349 30.8305 81.4823 30.8154 81.4299 30.7997C81.3775 30.784 81.3253 30.7677 81.2733 30.7506C81.2213 30.7336 81.1696 30.716 81.118 30.6976C81.0664 30.6793 81.0151 30.6603 80.964 30.6406C80.9129 30.621 80.8621 30.6007 80.8115 30.5798C80.7609 30.5588 80.7106 30.5372 80.6605 30.515C80.6105 30.4928 80.5608 30.4699 80.5113 30.4465C79.9362 30.1795 79.5411 29.8635 79.3164 29.2534C79.3138 29.2309 79.3099 29.2085 79.3061 29.1865C79.2922 29.106 79.2791 29.0298 79.3282 28.9612C79.4578 29.049 79.5781 29.1524 79.6984 29.2557C79.7815 29.3271 79.8646 29.3985 79.9506 29.4646C80.3374 29.762 80.7643 30.0389 81.1924 30.2723C81.2259 30.2902 81.2597 30.3077 81.2936 30.3248C81.3276 30.3418 81.3618 30.3585 81.3962 30.3747C81.4305 30.3909 81.4651 30.4066 81.4999 30.422C81.5346 30.4374 81.5695 30.4523 81.6046 30.4667C81.6398 30.4812 81.6751 30.4953 81.7105 30.5089C81.746 30.5225 81.7816 30.5357 81.8174 30.5484C81.8532 30.5611 81.8891 30.5733 81.9252 30.5852C81.9613 30.597 81.9975 30.6084 82.0339 30.6193C82.0702 30.6303 82.1067 30.6407 82.1433 30.6507C82.1799 30.6608 82.2166 30.6703 82.2534 30.6794C82.2903 30.6885 82.3272 30.6972 82.3643 30.7053C82.4014 30.7135 82.4385 30.7213 82.4757 30.7285C82.513 30.7358 82.5503 30.7426 82.5877 30.7489C82.6251 30.7553 82.6626 30.7611 82.7001 30.7665C82.7377 30.7719 82.7753 30.7769 82.8129 30.7813C82.8506 30.7858 82.8883 30.7898 82.9261 30.7933C82.9639 30.7969 83.0017 30.7999 83.0395 30.8025C83.0773 30.8051 83.1152 30.8072 83.1531 30.8089C83.191 30.8105 83.229 30.8117 83.2669 30.8124C83.3049 30.8131 83.3429 30.8133 83.3808 30.8131C83.4185 30.8129 83.4563 30.8122 83.4942 30.811C83.5322 30.8098 83.5702 30.8082 83.6081 30.806C83.6458 30.8039 83.6836 30.8013 83.7215 30.7983C83.7592 30.7952 83.797 30.7917 83.8349 30.7877C83.8726 30.7837 83.9102 30.7792 83.9479 30.7743C83.9855 30.7693 84.023 30.7639 84.0603 30.758C84.0979 30.7522 84.1354 30.7458 84.1727 30.7391C84.21 30.7323 84.2471 30.725 84.2841 30.7173C84.3214 30.7095 84.3586 30.7013 84.3955 30.6927C84.4325 30.6841 84.4693 30.675 84.506 30.6654C84.5426 30.6558 84.5793 30.6458 84.6159 30.6353C84.6522 30.6249 84.6886 30.6139 84.7249 30.6026ZM81.2837 34.2407C80.8024 33.4801 80.5001 31.6267 80.4657 30.7021C80.8563 30.8784 81.2482 31.0141 81.6569 31.1407L81.6564 31.1565C81.6207 32.1526 81.5858 33.128 81.3762 34.1072L81.3361 34.2397L81.2837 34.2407ZM84.789 31.1575C85.1396 31.0896 85.5318 31.0136 85.8446 30.8389L85.8523 30.8406C85.9264 30.857 85.9355 30.859 85.9892 30.9182C86.0485 31.4759 85.8667 32.1898 85.7285 32.7324L85.7242 32.7492L85.7129 32.7941C85.6284 33.1285 85.4515 33.8293 85.1834 33.9896L85.073 33.902L85.0758 33.893L85.0759 33.8928C85.0816 33.8747 85.0828 33.8709 85.0889 33.8436C85.1399 33.6098 84.8794 31.3393 84.7635 31.1625L84.789 31.1575ZM87.2495 30.9124L87.2797 30.8896L87.3828 30.9234C87.4055 31.0836 87.3917 31.2892 87.2966 31.4247C87.1347 31.6561 86.8308 31.693 86.5695 31.7247L86.5689 31.7248L86.5399 31.7283C86.5306 31.7295 86.5213 31.7306 86.5121 31.7317C86.5081 31.7035 86.5026 31.6719 86.4968 31.6385C86.4772 31.5256 86.454 31.3921 86.47 31.2981C86.4956 31.1476 86.6913 31.0976 86.8917 31.0465C87.0253 31.0124 87.161 30.9778 87.2495 30.9124ZM79.073 30.949L79.0712 30.9364C79.2222 31.0034 79.3821 31.0392 79.5402 31.0746C79.7207 31.1149 79.8987 31.1548 80.0579 31.2399C80.1267 31.3716 80.1104 31.4745 80.09 31.6039C80.0849 31.6358 80.0796 31.6692 80.0753 31.7051C79.8552 31.7254 79.5159 31.6583 79.3369 31.5179C79.1323 31.3573 79.1083 31.1919 79.073 30.949ZM82.0717 31.3791V31.3785C82.072 31.3532 82.0724 31.3276 82.0722 31.3027C82.0893 31.3039 82.1066 31.3049 82.1242 31.3057L82.1402 31.3065L82.1407 31.3065C82.2667 31.3126 82.4 31.3191 82.4986 31.401C82.5607 31.5161 82.5231 31.6532 82.4887 31.7785C82.4821 31.8025 82.4757 31.8261 82.47 31.8489L82.4475 31.8502C82.3211 31.8573 82.2747 31.8599 82.1514 31.7905C82.0682 31.669 82.07 31.5226 82.0717 31.3791ZM83.9346 31.5832C83.9346 31.4657 83.9346 31.4192 84.0142 31.306C84.0248 31.3059 84.0355 31.3057 84.0463 31.3055C84.1132 31.3042 84.1843 31.3028 84.247 31.3233C84.3305 31.3508 84.3455 31.3795 84.378 31.4422L84.3846 31.4548L84.3888 31.4628C84.391 31.4669 84.3932 31.4711 84.3955 31.4754C84.3832 31.6437 84.3312 31.7491 84.2504 31.8947C84.2093 31.888 84.1682 31.8804 84.1296 31.8655C84.0297 31.8268 83.9875 31.7366 83.9449 31.6455L83.9345 31.6233L83.9346 31.6011L83.9346 31.5832ZM82.9787 31.4241C82.9792 31.4061 82.9797 31.388 82.98 31.3697C83.0013 31.37 83.022 31.37 83.0424 31.37H83.0428C83.1689 31.3699 83.2796 31.3698 83.3882 31.449C83.4259 31.5791 83.3864 31.7139 83.3484 31.8437C83.3404 31.8709 83.3325 31.8979 83.3254 31.9246C83.2001 31.9189 83.1426 31.9006 83.0467 31.8179C82.9712 31.6925 82.9748 31.563 82.9787 31.4241ZM79.3248 32.4098L79.2233 31.7436C79.3245 31.794 79.4442 31.8263 79.5638 31.8585C79.7331 31.9042 79.9021 31.9498 80.0179 32.0466C80.0993 32.1618 80.0872 32.351 80.0772 32.5078C80.0751 32.541 80.073 32.5728 80.072 32.6022C79.8007 32.6061 79.57 32.5177 79.3248 32.4098ZM86.5824 31.9192C86.7821 31.9062 87.0013 31.892 87.1648 31.7913L87.3015 31.7947C87.3238 31.8357 87.3456 31.8808 87.352 31.9277C87.3738 32.0942 87.309 32.2714 87.2089 32.4006C87.0564 32.5985 86.8882 32.6181 86.6641 32.6442L86.6196 32.6494L86.5686 32.6465C86.5048 32.5583 86.4969 32.3812 86.4895 32.2167C86.4855 32.1258 86.4816 32.0388 86.4686 31.9726L86.4591 31.928C86.4989 31.9246 86.5402 31.9219 86.5824 31.9192ZM86.8885 32.7912C86.9555 32.7785 87.0241 32.7654 87.094 32.7431L87.197 32.7635L87.2812 32.8962C87.2713 33.0594 87.2436 33.1863 87.1252 33.3045C86.9577 33.4723 86.7964 33.4682 86.5849 33.4628L86.5661 33.4623L86.5489 33.4619L86.524 33.4614L86.5219 33.4583L86.5204 33.4561L86.5177 33.4524C86.5153 33.4491 86.5129 33.4457 86.5107 33.4423C86.5097 33.4406 86.5087 33.4389 86.5077 33.4371L86.507 33.4357L86.5062 33.4339C86.4408 33.2816 86.4468 33.085 86.5057 32.9396C86.6238 32.8417 86.7526 32.8172 86.8885 32.7912ZM79.4 32.8338C79.3956 32.7973 79.3915 32.7627 79.3868 32.7312C79.4674 32.7566 79.5572 32.7669 79.6473 32.7771C79.792 32.7936 79.9374 32.8102 80.047 32.8899C80.1334 33.0111 80.1366 33.1934 80.1394 33.3531C80.14 33.388 80.1405 33.4221 80.142 33.454C79.992 33.46 79.7388 33.4675 79.6102 33.3838C79.454 33.2822 79.4238 33.0309 79.4 32.8338ZM86.8747 33.6469L86.8806 33.6446C86.9004 33.6416 86.9178 33.6383 86.9336 33.6353C87.0024 33.6222 87.0406 33.615 87.1163 33.6633C87.1346 33.7147 87.154 33.7703 87.1559 33.8255C87.1609 33.9629 87.0653 34.1128 86.9816 34.2142C86.8781 34.3392 86.7241 34.3508 86.573 34.3623L86.5728 34.3623C86.5627 34.363 86.5525 34.3638 86.5424 34.3646C86.5325 34.3654 86.5225 34.3662 86.5126 34.3671L86.4339 34.3451L86.4312 34.3398L86.4261 34.3299L86.4208 34.3193L86.4166 34.3104C86.3809 34.2288 86.421 33.8545 86.4606 33.7714C86.4847 33.7218 86.6025 33.7027 86.7089 33.6856C86.7664 33.6763 86.8206 33.6675 86.8548 33.6547L86.8667 33.6501L86.8747 33.6469ZM79.5593 33.7758C79.554 33.7371 79.5489 33.6997 79.5432 33.6646C79.7591 33.7043 79.9471 33.6889 80.1642 33.6632L80.2809 34.4142L80.2755 34.4157L80.2711 34.4169L80.269 34.4174C80.2677 34.4177 80.2664 34.418 80.2651 34.4182C80.1301 34.442 79.9177 34.4561 79.8012 34.3749C79.6246 34.2519 79.5892 33.9936 79.5593 33.7758ZM86.2973 34.552L86.2962 34.5451C86.4767 34.5454 86.6563 34.5311 86.8362 34.5168L86.9113 34.5109L86.9129 34.5127L86.9179 34.5184C86.9231 34.5242 86.9279 34.5293 86.9322 34.534C86.9606 34.5647 86.9713 34.5762 86.9692 34.6314C86.9603 34.8427 86.8652 35.0915 86.7196 35.2322C86.6855 35.2779 86.6558 35.296 86.6028 35.3172C86.4765 35.3682 86.3636 35.3533 86.2447 35.3001C86.2513 35.2505 86.2591 35.1995 86.2671 35.1479C86.2964 34.9579 86.3273 34.758 86.3012 34.5749C86.3004 34.5699 86.2996 34.565 86.2987 34.56L86.2973 34.552ZM79.7572 34.6859C79.7529 34.665 79.7487 34.6444 79.7445 34.6242C79.949 34.6588 80.1241 34.6473 80.3293 34.6214L80.4654 35.3489C80.3529 35.3638 80.1206 35.3097 80.0272 35.2465C79.8463 35.124 79.799 34.8915 79.7572 34.6859ZM80.2158 35.9134C80.1414 35.7796 80.0558 35.6255 80.0214 35.5239C80.1523 35.5598 80.296 35.5649 80.4349 35.5698C80.4694 35.571 80.5036 35.5723 80.5372 35.5739C80.5588 35.6481 80.5948 35.7289 80.6318 35.8116C80.6953 35.9539 80.7615 36.102 80.7609 36.2324C80.7607 36.261 80.7411 36.2769 80.7204 36.2936L80.7118 36.3007C80.7082 36.3037 80.7047 36.3067 80.7013 36.3099L80.4599 36.2542L80.4611 36.287L80.4624 36.3234C80.4678 36.4645 80.4733 36.6058 80.4452 36.7449L80.4022 36.7278C80.3432 36.618 80.3488 36.5079 80.3543 36.3986C80.3583 36.3193 80.3623 36.2404 80.3417 36.1623C80.3306 36.1202 80.277 36.0237 80.2159 35.9136L80.2158 35.9134ZM85.9332 36.3132C86.0565 36.1353 86.1368 35.7583 86.1046 35.5468C86.2645 35.5269 86.4913 35.5033 86.6305 35.5963L86.6354 35.6043C86.6985 35.7086 86.7003 35.7116 86.6775 35.8375L86.6752 35.8408C86.572 35.9832 86.4995 36.0832 86.3324 36.1493C86.2392 36.2322 86.1153 36.2709 85.9954 36.3084C85.9687 36.3167 85.9423 36.325 85.9164 36.3337L85.922 36.3273L85.9246 36.3243L85.9268 36.3217C85.9278 36.3205 85.9287 36.3193 85.9297 36.3181C85.9309 36.3165 85.9321 36.3149 85.9332 36.3132ZM86.2309 36.971C86.1481 36.7729 86.058 36.5804 85.9634 36.388L85.97 36.3892L85.978 36.3906C85.9959 36.3938 86.0117 36.3965 86.0293 36.4048C86.1808 36.4766 86.2729 36.6986 86.3334 36.8447L86.2819 36.9641L86.2309 36.971ZM84.5803 36.6548C84.5812 36.6455 84.5817 36.6361 84.5822 36.6268C84.5925 36.6315 84.6031 36.6356 84.6137 36.6397L84.6232 36.6434C84.6712 36.6623 84.718 36.6807 84.7427 36.7278C84.8878 37.0046 85.0824 37.4553 84.9566 37.7715C84.9119 37.8843 84.8325 37.9208 84.7382 37.9643L84.738 37.9644C84.7294 37.9683 84.7208 37.9723 84.7121 37.9764C84.7042 37.9801 84.6963 37.9839 84.6882 37.9878C84.6122 38.0028 84.5522 37.9747 84.4867 37.9441L84.4672 37.935L84.4535 37.9288C84.2636 37.6624 84.3636 37.3789 84.4641 37.0941C84.5159 36.9473 84.5678 36.8002 84.5803 36.6548ZM80.6321 37.7617C80.5396 37.4157 80.7117 36.9506 80.8847 36.6568C81.084 36.8515 81.1306 37.1725 81.1773 37.4951C81.2176 37.7728 81.258 38.0517 81.3962 38.2519C81.4644 38.3508 81.5049 38.3618 81.6194 38.3838C81.9685 38.4509 82.3069 38.4114 82.6473 38.3717C82.8613 38.3467 83.0761 38.3217 83.2947 38.323C83.4927 38.3241 83.6872 38.3449 83.8811 38.3655H83.8816C84.1947 38.3988 84.5067 38.4319 84.8289 38.3828C85.2487 38.3188 85.3716 37.9074 85.4919 37.5046C85.5809 37.2067 85.6685 36.9136 85.8738 36.7693C85.928 36.8491 85.9261 36.9268 85.924 37.0159L85.9236 37.0334L85.9233 37.0497C85.9803 37.1071 86.0238 37.1727 86.0491 37.2506C86.1244 37.483 86.0897 37.7293 85.9798 37.942C85.8337 38.2242 85.5905 38.4006 85.2924 38.4912C84.8582 38.6234 84.394 38.5956 83.9357 38.5682C83.7271 38.5557 83.5197 38.5433 83.3169 38.5461C83.1507 38.5484 82.9828 38.5576 82.8144 38.5669C82.4767 38.5854 82.137 38.6041 81.805 38.567C81.5721 38.541 81.3408 38.4737 81.1355 38.358C80.9025 38.2267 80.7033 38.0282 80.6321 37.7617ZM81.676 36.6971L81.6871 36.6516C81.69 36.6528 81.693 36.6539 81.696 36.655L81.6982 36.6558C81.7035 36.6577 81.7089 36.6598 81.7138 36.6628C81.901 36.7765 82.0556 37.2969 82.0838 37.5006C82.1111 37.6977 82.0516 37.7744 81.9484 37.9075L81.9254 37.9371L81.9191 37.9453L81.7681 37.999C81.7547 37.9939 81.7425 37.9897 81.7312 37.9858C81.6797 37.9681 81.6468 37.9568 81.6138 37.8969C81.4527 37.605 81.5935 37.0326 81.676 36.6971ZM80.7475 39.1455C80.3312 38.6895 80.2495 38.1084 80.2784 37.5132C80.3131 37.8107 80.4145 38.1045 80.6043 38.3373C80.8891 38.6865 81.3119 38.8247 81.745 38.8659C82.0298 38.8931 82.3201 38.878 82.6095 38.8629C82.7806 38.854 82.9514 38.8451 83.1206 38.8449C83.2991 38.8448 83.5011 38.8564 83.715 38.8686C84.491 38.913 85.4229 38.9663 85.952 38.5024C86.0823 38.3879 86.2413 38.2065 86.2536 38.0255C86.2744 38.1402 86.2908 38.2534 86.2913 38.3703C86.2928 38.6008 86.2645 38.7859 86.1011 38.955C86.0942 39.0613 86.0456 39.1335 85.9699 39.2072C85.3271 39.8366 83.9726 39.9698 83.1229 39.9461C82.3392 39.9242 81.3036 39.7545 80.7475 39.1455ZM80.8111 40.1142C80.5931 39.8983 80.5646 39.7268 80.5608 39.4257C81.8502 40.342 83.6507 40.4613 85.131 39.9792C85.206 39.9548 85.3104 39.9061 85.424 39.853C85.6568 39.7444 85.9282 39.6178 86.064 39.6457L86.1051 39.7395C86.0749 39.895 86.0476 39.9826 85.9436 40.1064C85.9208 40.2098 85.909 40.2466 85.8367 40.3243C85.4182 40.7747 84.4545 40.8771 83.8716 40.8915C82.9856 40.9135 81.4771 40.7739 80.8111 40.1142ZM81.1379 41.391C80.8268 41.1347 80.7321 40.8713 80.6882 40.476C80.853 40.575 81.0205 40.6667 81.1957 40.7455C82.4045 41.2891 84.0741 41.3732 85.3484 41.007C85.4795 40.9692 85.6082 40.9118 85.7362 40.8546C85.8117 40.8209 85.887 40.7873 85.9624 40.7579L86.0308 40.8252C86.0357 40.8554 86.0392 40.8857 86.0377 40.9164C86.0293 41.082 85.958 41.2539 85.8327 41.3604C85.8253 41.4237 85.797 41.4754 85.7589 41.5252C85.5083 41.8496 84.9056 41.9408 84.5203 41.9851C83.5383 42.0978 81.9407 42.0522 81.1379 41.391ZM81.2023 42.5555C81.0828 42.2577 80.9685 41.9579 80.8593 41.656C81.0007 41.7191 81.1243 41.7807 81.2421 41.8393C81.5262 41.9808 81.7763 42.1053 82.1599 42.1934C82.9246 42.3688 83.7577 42.4095 84.5362 42.3155C84.6495 42.3018 84.9167 42.2297 85.1808 42.1585C85.4927 42.0744 85.8003 41.9915 85.8446 42.0073C85.85 42.0552 85.853 42.0901 85.8456 42.1381C85.8218 42.2933 85.7619 42.4337 85.6351 42.5272C85.6242 42.5693 85.6163 42.592 85.592 42.6278C85.4296 42.8702 85.0379 42.9859 84.7699 43.0383C83.7007 43.2475 82.1269 43.1922 81.2023 42.5555ZM81.1019 42.9443L81.101 42.9313C82.0986 43.449 83.4274 43.6058 84.5297 43.4276C84.8087 43.3826 85.0978 43.2888 85.3791 43.1975C85.4898 43.1616 85.5993 43.1261 85.7064 43.0941L85.7683 43.1294L85.7698 43.1395C85.7732 43.161 85.7771 43.1865 85.7762 43.2076C85.7688 43.3855 85.6678 43.5938 85.54 43.7138C85.5356 43.7617 85.5266 43.7914 85.4969 43.8304C85.2468 44.1614 84.4144 44.2655 84.0187 44.2924C83.2714 44.3433 82.0009 44.3474 81.4117 43.8121C81.1409 43.5661 81.1234 43.2875 81.1019 42.9443ZM81.185 44.2228C81.1816 44.1813 81.1782 44.1406 81.1741 44.1017C82.1943 44.7101 83.7646 44.8551 84.9002 44.5075C84.9897 44.4801 85.0891 44.4299 85.1911 44.3784C85.3654 44.2903 85.5471 44.1985 85.699 44.2109L85.7 44.2131C85.7177 44.252 85.7287 44.2762 85.7312 44.3202C85.7391 44.4876 85.6816 44.6451 85.5727 44.7675L85.5559 44.9088C85.3211 45.2239 84.974 45.2926 84.605 45.3461C83.7265 45.4736 82.1628 45.4739 81.422 44.8922C81.2276 44.7396 81.205 44.4656 81.185 44.2228ZM81.2024 45.2668C81.2034 45.2458 81.2043 45.2246 81.2052 45.2032C81.312 45.2407 81.4155 45.2891 81.5194 45.3376C81.6319 45.3902 81.745 45.4431 81.8635 45.4828C82.7465 45.7786 83.7825 45.8262 84.6961 45.6689C84.7911 45.6525 84.9703 45.5939 85.1451 45.5368C85.342 45.4724 85.5337 45.4097 85.593 45.4114C85.6415 45.4127 85.6623 45.4392 85.6881 45.472C85.6953 45.481 85.7028 45.4906 85.7114 45.5002C85.7208 45.5568 85.7292 45.6161 85.7227 45.6735C85.7054 45.8258 85.6485 45.9409 85.5331 46.0396C85.5268 46.0712 85.5103 46.1045 85.4947 46.1359L85.4941 46.1371C85.4888 46.1476 85.4837 46.1581 85.4791 46.168C84.9398 46.5392 84.087 46.5725 83.4531 46.5619C82.8111 46.5512 81.8461 46.4985 81.3806 45.996C81.1787 45.778 81.1898 45.5373 81.2024 45.2668ZM81.5183 47.0441C81.3527 46.8681 81.3154 46.6819 81.3247 46.4465C82.4482 46.9213 83.7305 47.0076 84.92 46.7484C85.033 46.7238 85.143 46.6858 85.2534 46.6478L85.2543 46.6475C85.3481 46.6151 85.4422 46.5826 85.5385 46.5583L85.6292 46.6203C85.636 46.6637 85.6405 46.6918 85.6311 46.7354C85.5989 46.8873 85.5058 47.0083 85.3835 47.0949C85.3811 47.1025 85.3791 47.1098 85.3771 47.1167C85.3694 47.144 85.363 47.1666 85.3409 47.1895C84.9784 47.5605 84.0459 47.5863 83.5537 47.583C82.9336 47.5789 81.9706 47.5248 81.5183 47.0441ZM81.9332 48.3256C81.5606 48.1235 81.4455 47.9143 81.3231 47.5139C82.2774 47.8726 83.3689 48.079 84.3866 47.9233C84.4868 47.908 84.6014 47.8792 84.7203 47.8493C84.9509 47.7914 85.1976 47.7295 85.3855 47.7541L85.4152 47.8569L85.4142 47.8607C85.3792 47.9975 85.3577 48.0814 85.2409 48.1741L85.2389 48.1852C85.2355 48.2039 85.2345 48.2097 85.2201 48.2347C85.1478 48.3621 84.9705 48.4328 84.8388 48.4741C84.0429 48.7244 82.678 48.7294 81.9332 48.3256ZM81.8668 49.3396C81.5656 49.1333 81.5052 48.921 81.4368 48.5713C82.5788 49.1462 84.0316 49.1976 85.2429 48.8252L85.2746 48.9499C85.2255 49.0957 85.18 49.1715 85.0676 49.2773C85.0667 49.2833 85.0661 49.289 85.0655 49.2947C85.0633 49.3156 85.0612 49.3346 85.0487 49.3537C84.9299 49.5361 84.5803 49.6106 84.3832 49.6512C83.6334 49.8053 82.5171 49.785 81.8668 49.3396ZM82.0941 50.4924C81.7645 50.3103 81.6812 50.0893 81.577 49.7368C82.3995 50.066 83.3155 50.2655 84.2069 50.1607C84.3045 50.1492 84.4082 50.1086 84.5125 50.0676C84.6511 50.0133 84.7908 49.9585 84.9185 49.9713C85.0087 49.9802 85.0182 49.9916 85.0734 50.0579L85.077 50.0622C85.0166 50.1957 84.9527 50.2751 84.8507 50.3765L84.8493 50.3806L84.8474 50.3865C84.8453 50.3933 84.8432 50.4001 84.8403 50.4065C84.7907 50.5121 84.608 50.5703 84.5065 50.6014C83.8231 50.811 82.7281 50.8429 82.0941 50.4924ZM82.2707 51.5613C81.9691 51.4174 81.8535 51.2309 81.7401 50.9218C82.769 51.2068 83.8087 51.3976 84.8447 51.0274L84.8784 51.1026C84.8358 51.2383 84.8001 51.3014 84.6942 51.3977L84.6689 51.4599C84.5709 51.5586 84.4614 51.6107 84.3326 51.6574C83.7433 51.8714 82.8327 51.8295 82.2707 51.5613ZM82.457 52.548C82.2032 52.4242 82.1203 52.2467 82.0296 51.988C82.8933 52.3651 83.8344 52.2814 84.7308 52.1139L84.762 52.1383C84.7135 52.2708 84.6481 52.3256 84.5421 52.4087L84.5134 52.474C84.4248 52.5392 84.3361 52.5941 84.2321 52.6315C83.7097 52.8189 82.9536 52.7901 82.457 52.548ZM82.73 53.5445C82.4535 53.4448 82.3271 53.3078 82.2058 53.0427C82.6612 53.1542 83.1249 53.2369 83.5953 53.2228C83.6495 53.2212 83.7524 53.2068 83.8678 53.1906C84.0898 53.1595 84.358 53.122 84.4144 53.1565L84.3376 53.3907C84.2871 53.4249 84.2366 53.4573 84.1821 53.4849C83.7933 53.6833 83.1299 53.6886 82.73 53.5445ZM83.0336 54.5069C82.7471 54.4326 82.6144 54.2905 82.4643 54.0411C82.7463 54.1084 83.0218 54.161 83.3125 54.1664C83.3921 54.1679 83.5187 54.1503 83.6512 54.1319C83.8541 54.1037 84.0709 54.0736 84.1539 54.1072L84.0855 54.2675C84.0585 54.2856 84.0312 54.3031 84.0038 54.3201C83.7245 54.4915 83.3566 54.5907 83.0336 54.5069Z" fill="white"/>
<path d="M78.8805 50.2304C77.5216 50.3337 76.0383 50.736 74.7393 51.13L75.4304 52.1755L75.627 52.4784C76.7854 52.1202 77.9602 51.8296 79.1514 51.6067C79.1433 51.5561 79.1333 51.4712 79.121 51.3675C79.0753 50.9807 78.9988 50.3327 78.8805 50.2304Z" fill="white"/>
<path d="M70.2745 52.8788C71.6124 52.2032 73.0532 51.6768 74.4729 51.2067C74.6299 51.2799 75.037 51.8941 75.2925 52.2798C75.3692 52.3955 75.4322 52.4907 75.4708 52.5444C74.2441 52.9358 73.1045 53.3964 71.9444 53.9607L71.6245 53.7557C71.5286 53.6964 71.4318 53.6377 71.3348 53.5789L71.3345 53.5787L71.3335 53.5782C70.9717 53.3588 70.607 53.1377 70.2745 52.8788Z" fill="white"/>
<path d="M79.0102 52.3223C76.9616 52.6286 74.7806 53.2649 72.952 54.2688L73.8022 54.7828L74.5601 55.2318C76.1536 54.4872 77.6534 53.8739 79.3953 53.5873C79.3858 53.504 79.3783 53.4102 79.3705 53.3111L79.3704 53.3106C79.3442 52.979 79.3133 52.5887 79.184 52.3399L79.1774 52.3377C79.1134 52.3166 79.0803 52.3057 79.0102 52.3223Z" fill="white"/>
<path d="M94.7809 53.5715C93.0127 53.7439 90.7261 54.3862 89.1526 54.8281L89.1519 54.8283C88.0824 55.1287 87.3422 55.3366 87.3189 55.2412C92.8346 52.6167 98.1643 52.5369 99.5901 52.6206L99.5953 52.6284C99.6065 52.645 99.6201 52.6649 99.6277 52.6825C99.6985 52.8425 99.7391 53.2199 99.6569 53.3848C99.6318 53.4348 99.5813 53.4467 99.5292 53.4588C99.5222 53.4605 99.5151 53.4621 99.5081 53.4639C99.5005 53.4658 99.493 53.4678 99.4856 53.47C99.2031 53.4677 98.9292 53.4637 98.6592 53.4598C97.4294 53.4419 96.2807 53.4253 94.7809 53.5715Z" fill="white"/>
<path d="M70.0064 53.0018C68.3287 53.8432 66.9377 54.7963 65.854 56.3748C66.5046 56.1399 67.0911 56.121 67.7763 56.1503C68.1718 56.1906 68.5577 56.2605 68.931 56.4035C69.6264 55.4281 70.7573 54.7035 71.7624 54.0845C71.6646 54.0189 71.5646 53.9507 71.4629 53.8814L71.4619 53.8807C70.9966 53.5634 70.4962 53.2222 70.0064 53.0018Z" fill="white"/>
<path d="M105.401 54.0384L105.406 54.0315L105.415 54.0183C105.418 54.0153 105.42 54.0123 105.422 54.0093L105.424 54.0062C105.551 53.8164 105.551 53.4507 105.518 53.2321C105.95 53.1811 107.245 53.4554 107.909 53.596L107.911 53.5964L107.915 53.5972L107.915 53.5973C107.995 53.6143 108.066 53.6294 108.125 53.6416C108.234 53.818 108.241 54.1102 108.241 54.3122L108.241 54.3254C108.241 54.4914 108.241 54.579 108.121 54.7008C107.33 54.4117 106.455 54.2425 105.622 54.0814C105.548 54.067 105.474 54.0527 105.401 54.0384Z" fill="white"/>
<path d="M108.447 53.8986C108.466 54.1868 108.491 54.5697 108.358 54.7699C108.941 54.8936 109.503 55.1018 110.065 55.3097L110.066 55.31C110.536 55.4843 111.006 55.6584 111.487 55.7821L111.494 55.7703C111.512 55.7416 111.521 55.7262 111.523 55.6871C111.662 55.4897 111.746 54.7092 111.694 54.4568C111.686 54.4162 111.666 54.378 111.645 54.3428C110.915 54.1044 109.212 53.7778 108.438 53.7331C108.44 53.7823 108.443 53.8382 108.447 53.8981L108.447 53.8983L108.447 53.8986Z" fill="white"/>
<path d="M73.0682 59.4113C72.8562 59.1742 72.6897 58.912 72.6197 58.5963C72.5066 58.087 72.6992 57.6142 72.9652 57.1904C74.1623 55.2838 77.2638 54.3004 79.3722 53.8218C79.5482 54.1138 79.5534 55.249 79.5564 55.8918C79.5569 56.0048 79.5573 56.1025 79.5586 56.1778C78.3904 56.3622 77.2138 56.769 76.1509 57.2874C75.0964 57.8018 73.9226 58.5598 73.5199 59.7302C73.3952 59.6535 73.2767 59.5656 73.1586 59.4781L73.1581 59.4778C73.1282 59.4555 73.0982 59.4333 73.0682 59.4113Z" fill="white"/>
<path d="M98.1068 54.2142C97.7062 54.2371 97.3051 54.26 96.9045 54.2723C97.3621 54.6378 98.1064 56.2822 98.1648 56.8885C98.1708 56.9481 98.1633 56.9846 98.143 57.0398C99.293 56.9631 100.468 56.8941 101.62 56.9798C101.726 56.9869 101.846 56.9908 101.974 56.995C102.389 57.0085 102.878 57.0244 103.192 57.1626C103.418 56.5461 103.067 55.4922 102.805 54.9177L102.791 54.8861C102.709 54.7052 102.63 54.5327 102.485 54.3926C101.236 54.172 99.9194 54.1569 98.6546 54.1839C98.4722 54.1933 98.2895 54.2038 98.1068 54.2142Z" fill="white"/>
<path d="M91.8703 55.0512C92.2064 54.9758 92.5426 54.9003 92.8807 54.8367C94.048 54.6172 95.2365 54.4614 96.4171 54.3343L96.4389 54.3314L96.4624 54.3282C96.5348 54.318 96.6126 54.3071 96.6816 54.3199C96.795 54.3408 96.8647 54.4589 96.9239 54.5592L96.9335 54.5753L96.946 54.5963C97.1912 54.9986 98.0885 56.6548 97.9895 57.0841C96.4607 57.2541 95.0181 57.5606 93.5483 58.0105C93.4886 58.0288 93.4252 58.051 93.3598 58.0741C93.0972 58.1664 92.8006 58.2707 92.5687 58.1764C92.5327 58.0325 92.2176 57.6513 91.9151 57.2853C91.6899 57.0129 91.4715 56.7487 91.3807 56.5974C91.2561 56.3898 91.1733 56.1632 91.091 55.9376C91.0077 55.7095 90.9247 55.4824 90.7993 55.2769C91.1576 55.2111 91.514 55.1311 91.8703 55.0512Z" fill="white"/>
<path d="M72.7327 54.4003C71.7386 55.0037 70.8601 55.631 70.0765 56.5079C70.7338 56.5978 71.3363 56.7306 71.965 56.9448C72.0233 56.971 72.0821 56.9966 72.141 57.0222C72.2658 57.0766 72.3912 57.1312 72.5124 57.1916C73.0519 56.3934 73.5793 55.8637 74.3957 55.3593C74.3505 55.3309 74.2845 55.2884 74.2044 55.2367L74.2027 55.2357L74.1979 55.2325C73.7699 54.9566 72.9522 54.4293 72.7327 54.4003Z" fill="white"/>
<path d="M103.409 57.1723C103.428 57.1369 103.441 57.1062 103.452 57.0679C103.683 56.2705 103.145 55.1232 102.793 54.4345C103.909 54.5052 107.807 55.2663 108.765 55.7688C108.95 55.9513 109.05 56.4127 109.117 56.7236L109.117 56.7243L109.118 56.7257C109.128 56.7745 109.138 56.8196 109.147 56.8592C109.152 56.8799 109.157 56.9018 109.162 56.9249L109.169 56.9528L109.169 56.9544C109.272 57.395 109.461 58.2015 109.251 58.5438C109.011 58.4222 108.712 58.3415 108.432 58.2659C108.347 58.243 108.264 58.2205 108.185 58.1976C106.631 57.7466 105.016 57.3708 103.409 57.1723Z" fill="white"/>
<path d="M111.841 55.0896C112.461 55.1548 113.085 55.299 113.699 55.4411L113.7 55.4412C113.856 55.4772 114.011 55.5131 114.165 55.5475C116.351 56.035 118.367 56.5271 120.234 57.8531L120.263 57.8736C120.652 58.1498 121.045 58.4289 121.346 58.8048C121.404 58.8765 121.46 58.9512 121.517 59.0263C121.646 59.1976 121.776 59.371 121.927 59.5156C122.023 59.6069 122.175 59.7316 122.352 59.877C122.953 60.3713 123.845 61.1047 123.812 61.5801C123.935 61.4603 123.97 61.3936 123.976 61.2185C124.003 60.4374 123.272 59.4701 122.762 58.9398C120.557 56.6485 117.275 55.7449 114.319 54.9641C114.123 54.9122 113.918 54.8489 113.709 54.7843C113.155 54.6132 112.57 54.4325 112.03 54.4281C111.995 54.4278 111.964 54.4306 111.931 54.4345C111.988 54.6307 111.981 54.8418 111.882 55.0236L111.878 55.0307C111.868 55.0485 111.864 55.0555 111.86 55.0621C111.859 55.0645 111.857 55.0667 111.855 55.0694L111.841 55.0896Z" fill="white"/>
<path d="M111.745 55.9454C111.86 55.7275 111.909 55.4778 111.85 55.2359C112.265 55.1525 115.201 55.7982 115.627 55.9926C115.541 56.1715 115.143 56.3797 114.939 56.4862L114.901 56.506C114.807 56.6958 114.427 56.9885 114.245 57.1082C114.041 56.9029 112.139 56.0521 111.745 55.9454Z" fill="white"/>
<path d="M87.2042 56.4486C86.5628 56.7093 85.8809 56.9865 85.3607 57.0956L85.3627 57.1036L85.3636 57.107C85.3648 57.1115 85.3659 57.1161 85.3667 57.1207C85.4059 57.3194 85.377 57.5363 85.3455 57.7733C85.3022 58.0993 85.2537 58.4634 85.3701 58.8711C85.448 59.144 85.747 59.6797 85.9886 60.1124C86.1665 60.4312 86.3133 60.6941 86.3175 60.7549C86.346 60.7462 86.3752 60.7377 86.4046 60.7291C86.5521 60.6863 86.7066 60.6414 86.8251 60.546C87.3263 60.3836 92.3439 58.3426 92.3568 58.3292C92.3156 58.1469 92.0103 57.7754 91.7061 57.4052C91.4655 57.1124 91.2256 56.8204 91.1177 56.6237C90.9314 56.2832 90.8088 55.8184 90.7067 55.4316L90.6923 55.3772L90.5874 55.336C90.1764 55.4863 89.7536 55.6037 89.3306 55.7212L89.3301 55.7213C88.9475 55.8275 88.5645 55.9339 88.1905 56.0646C87.8961 56.1673 87.5562 56.3055 87.2042 56.4486Z" fill="white"/>
<path d="M109.507 58.6428C109.766 58.0856 109.33 56.5951 109.14 55.9434L109.123 55.8873C109.812 55.9674 113.998 57.8591 114.43 58.3277L114.434 58.3352L114.443 58.3552C114.537 58.569 114.796 60.595 114.723 60.7968C114.612 60.7999 113.578 60.3499 112.449 59.8588C111.23 59.3283 109.901 58.7497 109.507 58.6428Z" fill="white"/>
<path fill-rule="evenodd" clip-rule="evenodd" d="M120.01 60.056C119.979 60.025 119.951 59.9963 119.926 59.9703C120.15 60.0516 120.541 60.497 120.64 60.7201C120.65 60.7423 120.651 60.7505 120.652 60.7682L120.653 60.7772C121.055 60.5574 121.375 60.2095 121.507 59.757C121.553 59.5993 121.599 59.3741 121.536 59.2166C120.611 57.8112 117.583 56.379 115.96 56.048L115.924 56.0408C115.83 56.1427 115.708 56.214 115.587 56.2847C115.446 56.3667 115.308 56.4477 115.215 56.5745C115.218 56.583 115.221 56.5923 115.224 56.6021C115.233 56.6299 115.243 56.661 115.257 56.683C115.46 56.7382 115.642 56.817 115.832 56.9058L115.847 56.9392C115.706 56.9128 115.573 56.8563 115.442 56.8002C115.3 56.7396 115.159 56.6794 115.008 56.6578C114.887 56.8544 114.591 57.0876 114.386 57.1918C115.625 57.6598 118.433 59.5189 118.948 60.7202C118.958 60.7409 118.962 60.7546 118.968 60.775L118.971 60.784C119.463 60.8653 120.031 60.9255 120.514 60.7599C120.485 60.5315 120.204 60.2504 120.01 60.056ZM119.926 59.9703C119.7 59.6691 119.41 59.3934 119.128 59.1259C119.037 59.0393 118.947 58.9534 118.86 58.8679C119.174 58.9404 119.714 59.5426 119.889 59.8167C119.928 59.877 119.927 59.891 119.926 59.9549L119.926 59.9703ZM118.193 58.2813L118.194 58.2802L118.196 58.2779C118.197 58.277 118.198 58.2761 118.199 58.2753L118.2 58.274C118.201 58.2732 118.202 58.2725 118.203 58.2718L118.206 58.2706C118.207 58.27 118.208 58.2695 118.209 58.269L118.211 58.2681C118.213 58.2675 118.215 58.267 118.217 58.2668L118.218 58.2667C118.219 58.2666 118.22 58.2665 118.221 58.2665L118.223 58.2665C118.224 58.2665 118.225 58.2666 118.226 58.2666L118.227 58.2668L118.229 58.2673C118.23 58.2675 118.231 58.2676 118.231 58.2678L118.233 58.2682L118.233 58.2685L118.234 58.2688L118.235 58.2692C118.237 58.27 118.239 58.271 118.241 58.2721C118.242 58.2728 118.243 58.2735 118.244 58.2742C118.244 58.2748 118.245 58.2754 118.246 58.276L118.247 58.2777L118.249 58.2794L118.25 58.2807C118.251 58.2824 118.252 58.2842 118.253 58.2861C118.254 58.288 118.255 58.2899 118.256 58.292C118.256 58.294 118.257 58.2961 118.257 58.2982C118.257 58.2993 118.257 58.3004 118.257 58.3015C118.257 58.3025 118.257 58.3035 118.257 58.3045C118.257 58.3066 118.256 58.3087 118.256 58.3107L118.255 58.3127L118.255 58.3144C118.254 58.3152 118.254 58.316 118.254 58.3167C118.253 58.3186 118.252 58.3205 118.251 58.3222C118.249 58.325 118.246 58.3274 118.244 58.3295C118.241 58.3317 118.238 58.3334 118.235 58.3346C118.232 58.3359 118.229 58.3367 118.225 58.3371C118.224 58.3372 118.222 58.3373 118.221 58.3372L118.219 58.3371C118.218 58.337 118.217 58.3368 118.216 58.3366C118.213 58.3362 118.212 58.3357 118.21 58.335C118.209 58.3347 118.208 58.3344 118.208 58.3341L118.206 58.3334C118.203 58.3319 118.2 58.3299 118.198 58.3276C118.195 58.3252 118.193 58.3226 118.192 58.3196C118.19 58.3167 118.188 58.3136 118.188 58.3102C118.188 58.3094 118.187 58.3086 118.187 58.3078L118.187 58.3071L118.187 58.3059L118.187 58.3046C118.187 58.3032 118.187 58.3017 118.187 58.3002L118.187 58.2964L118.188 58.2953L118.188 58.2932L118.188 58.2919L118.189 58.2903C118.189 58.2896 118.189 58.289 118.189 58.2884L118.19 58.2869C118.19 58.286 118.191 58.2851 118.191 58.2842C118.192 58.2832 118.193 58.2822 118.193 58.2813ZM118.294 58.3658L118.295 58.3636L118.297 58.3619C118.298 58.3604 118.299 58.359 118.301 58.3577C118.302 58.3565 118.303 58.3554 118.305 58.3544C118.306 58.3531 118.308 58.352 118.31 58.3511C118.311 58.3504 118.313 58.3498 118.314 58.3493L118.317 58.3484L118.318 58.3481C118.32 58.3475 118.322 58.3471 118.324 58.3469L118.327 58.3467C118.329 58.3467 118.33 58.3468 118.331 58.3469L118.333 58.3471L118.335 58.3474C118.336 58.3476 118.337 58.3478 118.339 58.3481C118.34 58.3484 118.341 58.3487 118.342 58.349C118.342 58.3493 118.343 58.3495 118.344 58.3498C118.344 58.3501 118.345 58.3504 118.346 58.3507C118.349 58.3523 118.352 58.3543 118.355 58.3567C118.357 58.3591 118.36 58.3618 118.362 58.3649C118.364 58.3679 118.366 58.3712 118.367 58.3747C118.367 58.3761 118.367 58.3775 118.368 58.379C118.368 58.3811 118.368 58.3832 118.369 58.3854L118.368 58.3874C118.368 58.3891 118.368 58.3908 118.368 58.3924L118.368 58.3963L118.367 58.3996L118.366 58.4009L118.365 58.4032L118.364 58.4064C118.363 58.4073 118.363 58.4081 118.362 58.409L118.361 58.41L118.361 58.4106L118.36 58.4119C118.359 58.4131 118.358 58.4142 118.357 58.4152C118.356 58.416 118.356 58.4167 118.355 58.4175C118.354 58.4185 118.353 58.4194 118.351 58.4203C118.35 58.4211 118.349 58.4218 118.348 58.4225L118.347 58.4231L118.345 58.4242L118.343 58.4248C118.342 58.4256 118.339 58.4262 118.337 58.4267C118.335 58.4273 118.333 58.4277 118.33 58.4278C118.327 58.428 118.325 58.4278 118.322 58.4275C118.321 58.4273 118.319 58.427 118.318 58.4266L118.315 58.4256L118.314 58.4252L118.313 58.4249L118.312 58.4244L118.311 58.424C118.31 58.4235 118.309 58.423 118.308 58.4224L118.306 58.4212L118.304 58.4199L118.302 58.4179C118.3 58.4162 118.298 58.4143 118.296 58.4123L118.295 58.4098L118.292 58.4057L118.289 58.3985C118.289 58.396 118.288 58.3935 118.288 58.3909C118.288 58.3903 118.288 58.3897 118.288 58.389C118.288 58.3871 118.288 58.3851 118.288 58.3832L118.288 58.382L118.289 58.38C118.289 58.3785 118.289 58.377 118.29 58.3756C118.29 58.3731 118.291 58.3707 118.293 58.3684L118.293 58.3669L118.294 58.3658ZM118.496 58.5191L118.357 58.4152L118.37 58.4216C118.421 58.4475 118.461 58.4683 118.496 58.5191ZM118.496 58.5191C118.497 58.5172 118.499 58.5155 118.502 58.514C118.504 58.5125 118.506 58.5112 118.508 58.5101C118.509 58.5095 118.511 58.509 118.512 58.5086C118.513 58.5082 118.514 58.5079 118.516 58.5076L118.518 58.5071L118.52 58.5067L118.523 58.5065C118.524 58.5064 118.525 58.5064 118.526 58.5064L118.528 58.5065L118.53 58.5068C118.533 58.5072 118.536 58.5078 118.538 58.5086C118.541 58.5095 118.543 58.5106 118.545 58.5118C118.547 58.5131 118.549 58.5146 118.551 58.5163L118.554 58.5187L118.555 58.5204L118.557 58.5219C118.557 58.5228 118.558 58.5237 118.559 58.5246L118.559 58.5251L118.559 58.526L118.56 58.5272L118.561 58.5284C118.562 58.5307 118.563 58.5331 118.564 58.5356C118.564 58.5368 118.564 58.5381 118.565 58.5393L118.565 58.5402L118.565 58.5419L118.565 58.5432C118.565 58.5447 118.565 58.5463 118.565 58.5478L118.565 58.5494L118.565 58.551L118.565 58.5526L118.564 58.5552L118.564 58.5586L118.563 58.5609L118.562 58.5634L118.561 58.5658C118.56 58.5681 118.558 58.5703 118.557 58.5723C118.554 58.5752 118.552 58.5777 118.549 58.5799C118.546 58.5821 118.543 58.5838 118.539 58.5851C118.536 58.5864 118.533 58.5872 118.529 58.5875L118.527 58.5877L118.524 58.5877L118.523 58.5876L118.52 58.5873L118.518 58.587C118.517 58.5868 118.515 58.5865 118.514 58.5861L118.513 58.5857L118.512 58.5853L118.511 58.585C118.51 58.5846 118.509 58.5842 118.508 58.5837C118.504 58.5822 118.501 58.5802 118.499 58.5778C118.497 58.5764 118.496 58.575 118.495 58.5735C118.494 58.5723 118.493 58.571 118.492 58.5696C118.491 58.5686 118.49 58.5676 118.49 58.5666L118.489 58.5652L118.488 58.5637L118.488 58.5621L118.487 58.5598L118.486 58.5572L118.486 58.5542C118.485 58.5525 118.485 58.5508 118.485 58.5491C118.485 58.5481 118.485 58.5471 118.485 58.5461L118.485 58.545L118.485 58.5444C118.485 58.5423 118.485 58.5403 118.486 58.5382C118.487 58.5346 118.488 58.5312 118.489 58.528C118.491 58.5247 118.493 58.5218 118.496 58.5191ZM118.614 58.6527L118.605 58.645L118.594 58.6361L118.584 58.628L118.579 58.6237L118.567 58.6143L118.587 58.6206L118.612 58.6282C118.705 58.6566 118.73 58.6643 118.793 58.7658C118.729 58.7472 118.669 58.6983 118.614 58.6527ZM118.793 58.7658C118.794 58.7646 118.795 58.7635 118.796 58.7625L118.799 58.7606C118.801 58.759 118.804 58.7577 118.806 58.7566C118.807 58.7562 118.808 58.7558 118.809 58.7554L118.811 58.755L118.814 58.7542L118.816 58.7537C118.818 58.7534 118.82 58.7533 118.822 58.7532L118.825 58.7533L118.828 58.7537L118.83 58.7539C118.832 58.7544 118.835 58.7551 118.838 58.756L118.841 58.7577L118.844 58.7597C118.847 58.7611 118.849 58.7628 118.851 58.7647L118.852 58.7661L118.854 58.7679L118.856 58.7707C118.858 58.7729 118.859 58.7753 118.86 58.7777C118.861 58.7786 118.861 58.7795 118.861 58.7804C118.862 58.782 118.862 58.7837 118.863 58.7854L118.863 58.7867L118.863 58.7883L118.864 58.7902L118.864 58.7934L118.864 58.7947L118.864 58.7961C118.864 58.7971 118.864 58.7981 118.864 58.7991L118.864 58.8003L118.863 58.8014C118.863 58.8026 118.863 58.8037 118.863 58.8049L118.862 58.807L118.861 58.8093L118.861 58.8109C118.86 58.8129 118.859 58.8148 118.858 58.8166L118.856 58.8193L118.853 58.8231C118.853 58.8239 118.852 58.8247 118.851 58.8255C118.849 58.8273 118.847 58.8289 118.845 58.8303C118.842 58.8324 118.839 58.834 118.835 58.8351C118.831 58.8362 118.828 58.8369 118.824 58.837C118.821 58.8371 118.819 58.837 118.816 58.8365L118.813 58.836C118.812 58.8358 118.812 58.8356 118.811 58.8354C118.81 58.8351 118.808 58.8346 118.807 58.8341C118.806 58.8335 118.804 58.8329 118.803 58.8321C118.801 58.8313 118.8 58.8304 118.798 58.8294C118.797 58.8283 118.795 58.8271 118.794 58.8257L118.792 58.8241L118.791 58.8226L118.789 58.8199L118.787 58.8171C118.786 58.8157 118.785 58.8143 118.785 58.8129L118.784 58.8103C118.783 58.8092 118.783 58.8081 118.783 58.8069C118.782 58.8033 118.781 58.7997 118.781 58.7959C118.781 58.7941 118.781 58.7922 118.781 58.7904L118.782 58.7878L118.782 58.7849C118.783 58.7832 118.783 58.7816 118.784 58.78C118.785 58.7781 118.785 58.7763 118.787 58.7746C118.787 58.7728 118.788 58.7711 118.79 58.7696C118.79 58.7689 118.791 58.7682 118.791 58.7675L118.792 58.7667L118.793 58.7658ZM115.926 56.9717C115.926 56.9708 115.927 56.9699 115.927 56.969C115.928 56.9674 115.929 56.9658 115.93 56.9643L115.933 56.9599L115.935 56.9559L115.939 56.9522C115.941 56.951 115.942 56.9499 115.943 56.9489C115.944 56.9482 115.945 56.9475 115.946 56.9469C115.947 56.9465 115.947 56.9462 115.948 56.9459L115.95 56.9446L115.952 56.9435C115.953 56.9429 115.954 56.9423 115.956 56.9418L115.957 56.9414L115.958 56.9409C115.959 56.9405 115.961 56.9402 115.962 56.9399L115.967 56.9388C115.969 56.9386 115.97 56.9384 115.972 56.9383L115.975 56.9383L115.978 56.9383C115.979 56.9384 115.981 56.9386 115.983 56.9388L115.985 56.9393L115.987 56.9398C115.988 56.94 115.989 56.9403 115.99 56.9405L115.992 56.9413L115.996 56.9425L115.997 56.9433L116 56.9447C116.001 56.9454 116.003 56.9462 116.004 56.9471L116.006 56.9486C116.009 56.9507 116.011 56.953 116.014 56.9555C116.015 56.9568 116.016 56.9582 116.017 56.9596L116.018 56.9612L116.02 56.9638C116.022 56.9668 116.023 56.9699 116.025 56.9732C116.025 56.9747 116.025 56.9762 116.026 56.9777L116.026 56.9799L116.027 56.9823L116.027 56.9833C116.027 56.9848 116.028 56.9864 116.028 56.9879L116.028 56.9896L116.028 56.9913L116.028 56.9937L116.027 56.9977C116.027 56.9998 116.027 57.0019 116.027 57.0039L116.026 57.0073L116.025 57.01L116.023 57.0138C116.021 57.0181 116.019 57.0221 116.016 57.0257L116.014 57.0272C116.013 57.0285 116.012 57.0297 116.011 57.0309C116.01 57.0315 116.01 57.0321 116.009 57.0327C116.008 57.0336 116.007 57.0345 116.006 57.0353C116.002 57.0381 115.998 57.0403 115.993 57.0419C115.992 57.0426 115.99 57.0432 115.988 57.0437C115.985 57.0444 115.983 57.0449 115.98 57.0452C115.978 57.0454 115.975 57.0455 115.972 57.0454C115.97 57.0453 115.968 57.045 115.966 57.0447C115.964 57.0443 115.961 57.0436 115.959 57.0428C115.957 57.0422 115.955 57.0414 115.953 57.0405C115.951 57.0396 115.949 57.0386 115.947 57.0374C115.945 57.0361 115.943 57.0347 115.941 57.033L115.939 57.0314L115.938 57.0301C115.937 57.0294 115.936 57.0287 115.936 57.0279C115.935 57.0274 115.935 57.0269 115.934 57.0263L115.933 57.0245L115.932 57.0226L115.93 57.0209L115.93 57.0202C115.929 57.0194 115.929 57.0187 115.929 57.0179C115.927 57.0154 115.926 57.0128 115.925 57.0101C115.923 57.0057 115.922 57.0011 115.922 56.9964C115.922 56.9955 115.922 56.9946 115.922 56.9936C115.922 56.9921 115.922 56.9906 115.922 56.9891L115.922 56.9857L115.923 56.9823C115.923 56.9799 115.924 56.9775 115.925 56.9751C115.925 56.974 115.925 56.9728 115.926 56.9717ZM116.123 57.0699L116.125 57.0651L116.126 57.0627L116.128 57.0605C116.128 57.059 116.129 57.0575 116.13 57.0561C116.131 57.0547 116.132 57.0533 116.134 57.052C116.135 57.0507 116.136 57.0494 116.137 57.0482C116.138 57.047 116.14 57.0459 116.141 57.0448L116.145 57.0418L116.149 57.0393L116.151 57.0386L116.154 57.0372L116.156 57.0367L116.157 57.0363C116.158 57.036 116.158 57.0358 116.159 57.0356L116.162 57.0349L116.164 57.0344L116.166 57.0341L116.169 57.0338L116.171 57.0337C116.172 57.0337 116.174 57.0337 116.175 57.0337L116.177 57.0339L116.18 57.0341L116.183 57.0347L116.185 57.0351C116.186 57.0354 116.188 57.0359 116.19 57.0365C116.191 57.037 116.193 57.0377 116.194 57.0384L116.197 57.0395L116.199 57.0407L116.2 57.0416C116.201 57.0422 116.202 57.0429 116.203 57.0435L116.206 57.0459L116.207 57.0468L116.211 57.0504L116.214 57.0543L116.217 57.0586L116.219 57.061L116.22 57.0631C116.221 57.0647 116.221 57.0663 116.222 57.0679L116.224 57.0729L116.225 57.0779L116.225 57.0788L116.225 57.0795L116.225 57.0808L116.225 57.0831V57.0883C116.225 57.0893 116.225 57.0903 116.225 57.0913L116.225 57.0935L116.225 57.0963L116.224 57.0986C116.224 57.1003 116.223 57.1019 116.223 57.1036L116.221 57.1084C116.22 57.11 116.219 57.1116 116.218 57.1131C116.218 57.1146 116.217 57.116 116.216 57.1174L116.215 57.119L116.213 57.1205L116.212 57.1215L116.212 57.1224C116.211 57.1229 116.211 57.1234 116.21 57.1239C116.21 57.1243 116.209 57.1248 116.209 57.1253C116.208 57.1265 116.206 57.1276 116.205 57.1287L116.201 57.1317L116.196 57.1342L116.193 57.1357L116.192 57.1363C116.19 57.1369 116.188 57.1375 116.187 57.1379C116.185 57.1384 116.183 57.1387 116.182 57.139L116.18 57.1393L116.177 57.1396C116.175 57.1398 116.173 57.1398 116.171 57.1397L116.17 57.1396L116.166 57.1393C116.165 57.1391 116.163 57.1388 116.161 57.1384L116.159 57.1377L116.156 57.137C116.155 57.1364 116.153 57.1358 116.151 57.1351L116.149 57.1339L116.147 57.1327L116.145 57.1317C116.144 57.1311 116.143 57.1305 116.142 57.1299L116.142 57.1294L116.139 57.1267L116.135 57.1231L116.132 57.1191L116.129 57.1149C116.128 57.1134 116.127 57.1119 116.126 57.1104C116.125 57.1088 116.124 57.1072 116.124 57.1056L116.122 57.1007L116.121 57.0956C116.121 57.0939 116.121 57.0922 116.121 57.0904V57.0852L116.121 57.0832C116.121 57.0822 116.121 57.0811 116.121 57.0801C116.121 57.0784 116.121 57.0767 116.122 57.075L116.122 57.0734C116.123 57.0723 116.123 57.0711 116.123 57.0699ZM116.262 57.1465C116.262 57.1442 116.262 57.1419 116.262 57.1396L116.262 57.1364L116.262 57.1326L116.264 57.126L116.265 57.1238C116.266 57.1224 116.267 57.1211 116.268 57.1198C116.269 57.1179 116.271 57.1161 116.272 57.1144C116.273 57.1134 116.274 57.1125 116.275 57.1117C116.276 57.1111 116.277 57.1105 116.277 57.11L116.278 57.1094L116.279 57.1088C116.28 57.1085 116.28 57.1082 116.281 57.108C116.282 57.1075 116.283 57.1071 116.284 57.1068C116.286 57.1059 116.288 57.1052 116.29 57.1048L116.292 57.1044L116.295 57.1042L116.297 57.1041L116.298 57.1041L116.3 57.1043L116.302 57.1045L116.304 57.1048C116.305 57.1049 116.306 57.1051 116.306 57.1053L116.308 57.1057C116.309 57.106 116.309 57.1064 116.31 57.1068C116.313 57.1076 116.315 57.1087 116.316 57.11C116.318 57.1113 116.32 57.1128 116.322 57.1144C116.323 57.1161 116.325 57.1179 116.326 57.1198L116.327 57.121L116.328 57.1223C116.328 57.1235 116.329 57.1247 116.33 57.126L116.332 57.1326L116.332 57.1356L116.332 57.1381L116.332 57.1396L116.332 57.1417L116.332 57.1437L116.332 57.1465L116.33 57.1531C116.329 57.1552 116.328 57.1573 116.326 57.1592L116.325 57.1609L116.324 57.1619L116.323 57.1636L116.322 57.1646C116.32 57.1662 116.318 57.1677 116.316 57.1689C116.315 57.1699 116.314 57.1707 116.312 57.1715L116.31 57.1722C116.309 57.1726 116.308 57.173 116.307 57.1733C116.306 57.1736 116.305 57.1739 116.304 57.1741L116.303 57.1743L116.3 57.1746C116.299 57.1747 116.298 57.1748 116.297 57.1748L116.295 57.1747C116.293 57.1747 116.292 57.1745 116.29 57.1741L116.288 57.1737L116.286 57.173L116.284 57.1722C116.283 57.1718 116.281 57.1713 116.281 57.1708L116.279 57.1699L116.278 57.1689L116.275 57.1673L116.274 57.1666L116.273 57.1653L116.272 57.1646C116.271 57.1629 116.269 57.1612 116.268 57.1592C116.266 57.1573 116.265 57.1553 116.264 57.1531L116.262 57.1465ZM116.361 57.1925L116.361 57.1909L116.361 57.1893C116.361 57.1861 116.361 57.183 116.362 57.1799C116.363 57.1767 116.364 57.1738 116.365 57.171C116.367 57.1683 116.368 57.1657 116.371 57.1634C116.371 57.1628 116.372 57.1621 116.373 57.1615C116.373 57.161 116.374 57.1605 116.375 57.1601C116.376 57.1592 116.377 57.1584 116.378 57.1576C116.381 57.156 116.384 57.1548 116.387 57.154C116.389 57.1534 116.391 57.1531 116.393 57.1529C116.394 57.1528 116.395 57.1527 116.396 57.1527L116.398 57.1528C116.401 57.1529 116.403 57.1533 116.405 57.154C116.406 57.1542 116.407 57.1545 116.408 57.1549C116.409 57.1552 116.41 57.1555 116.411 57.1559L116.412 57.1563L116.414 57.1576C116.416 57.1587 116.417 57.1599 116.419 57.1613L116.421 57.1635C116.424 57.1657 116.425 57.1683 116.427 57.171C116.428 57.1738 116.43 57.1768 116.43 57.1799C116.431 57.183 116.431 57.1861 116.431 57.1893C116.431 57.1915 116.431 57.1938 116.43 57.196L116.43 57.1978C116.43 57.1984 116.43 57.1989 116.429 57.1995C116.429 57.2 116.429 57.2005 116.429 57.201L116.428 57.2025C116.427 57.2047 116.426 57.2066 116.425 57.2085C116.423 57.2104 116.422 57.2121 116.42 57.2137L116.419 57.2152C116.418 57.2162 116.417 57.2171 116.415 57.218L116.412 57.2198L116.409 57.2211L116.406 57.2224L116.403 57.2231L116.4 57.2235L116.398 57.2237L116.396 57.2237L116.394 57.2237L116.392 57.2235L116.389 57.2231C116.387 57.2227 116.385 57.222 116.383 57.2211C116.381 57.2203 116.379 57.2192 116.377 57.218L116.375 57.2167L116.374 57.216L116.373 57.2149L116.372 57.2137L116.37 57.2117C116.369 57.2107 116.368 57.2096 116.367 57.2085L116.366 57.206C116.365 57.2049 116.364 57.2037 116.364 57.2025C116.363 57.2004 116.362 57.1983 116.362 57.196L116.361 57.1943L116.361 57.1925Z" fill="white"/>
<path d="M65.7537 56.6023C66.1115 56.5065 66.4595 56.429 66.8267 56.3808C67.5158 56.3093 68.1313 56.409 68.7996 56.5772C68.4949 56.9949 68.2031 57.5274 68.1524 58.0504C68.0949 58.6423 68.3586 59.0369 68.7096 59.4717C68.5202 59.5018 68.3323 59.5393 68.1458 59.584C67.9592 59.6286 67.7747 59.6804 67.5921 59.7393C67.4094 59.7982 67.2293 59.864 67.0516 59.9368C66.8739 60.0096 66.6992 60.0891 66.5276 60.1753C66.0158 60.4652 65.628 60.8078 65.2048 61.2177C65.073 60.9498 64.9602 60.6788 64.8923 60.3867C64.5765 59.0267 65.0483 57.7452 65.7537 56.6023Z" fill="white"/>
<path d="M69.964 59.5413C70.9605 60.2939 72.3519 60.3968 73.5457 60.2657C73.5994 60.2562 73.6536 60.2472 73.7079 60.2383C73.8721 60.2111 74.0378 60.1837 74.1968 60.14C73.4907 59.9352 72.7168 59.709 72.3339 59.0082C72.3223 58.9869 72.3113 58.9653 72.3007 58.9435C72.2902 58.9217 72.2802 58.8996 72.2707 58.8772C72.2612 58.8549 72.2523 58.8323 72.244 58.8095C72.2356 58.7867 72.2278 58.7637 72.2205 58.7406C72.2132 58.7174 72.2065 58.6941 72.2004 58.6706C72.1943 58.6471 72.1887 58.6234 72.1837 58.5996C72.1788 58.5759 72.1744 58.552 72.1705 58.528C72.1667 58.504 72.1634 58.4799 72.1608 58.4557C72.1581 58.4316 72.1561 58.4074 72.1546 58.3831C72.1531 58.3589 72.1522 58.3346 72.1519 58.3102C72.1516 58.286 72.1518 58.2617 72.1527 58.2374C72.1536 58.2131 72.155 58.1888 72.1571 58.1646C72.1591 58.1404 72.1617 58.1162 72.1649 58.0921C72.1681 58.0681 72.1719 58.0441 72.1763 58.0201C72.1807 57.9962 72.1856 57.9725 72.1911 57.9488C72.1966 57.9251 72.2027 57.9016 72.2094 57.8783C72.2558 57.7184 72.3241 57.5605 72.3907 57.4065L72.4182 57.3428C71.6264 57.0301 70.7821 56.7174 69.9217 56.7033C69.5404 57.1896 69.1368 57.7401 69.221 58.399C69.282 58.8757 69.5937 59.2616 69.964 59.5413Z" fill="white"/>
<path d="M79.4729 59.3724C80.4161 59.0671 81.3437 58.7007 82.2675 58.3359C82.431 58.2713 82.5942 58.2068 82.7575 58.1427C82.9738 58.0578 83.1918 57.9743 83.4099 57.8908C83.9915 57.668 84.5756 57.4444 85.1399 57.1883C85.1416 57.1898 85.1433 57.1912 85.1451 57.1926C85.1463 57.1936 85.1475 57.1945 85.1487 57.1954L85.1504 57.1967L85.1526 57.1982C85.1542 57.1994 85.1558 57.2005 85.1574 57.2017L85.1627 57.2053C85.1785 57.2161 85.1942 57.2269 85.2028 57.2435C85.22 57.2774 85.2045 57.5834 85.1873 57.9225C85.1684 58.2945 85.1475 58.7065 85.1656 58.8427C85.2369 59.3772 85.5301 59.9099 85.8238 60.3496C85.8531 60.3933 85.8864 60.4372 85.9201 60.4817C85.9993 60.5861 86.081 60.6939 86.1199 60.8113L86.1213 60.8154L86.1231 60.8212L86.1264 60.8328C85.6638 61.241 80.4439 62.8511 79.5334 63.1021L79.0495 63.2133C78.8375 62.8093 78.6703 62.3756 78.6141 61.9195C78.4922 60.9295 78.8887 60.1258 79.4729 59.3724Z" fill="white"/>
<path d="M114.889 59.4044C114.984 60.0456 115.089 60.7615 115.06 61.0747C115.412 61.1558 116.165 61.4675 116.979 61.8046L116.98 61.8049C118.205 62.312 119.569 62.8766 119.914 62.8006C119.967 62.4501 119.423 61.6983 119.201 61.3909L119.185 61.3694C118.93 61.0156 118.639 60.7061 118.293 60.4416C117.889 60.1328 115.146 58.584 114.767 58.4922C114.788 58.7203 114.837 59.0508 114.889 59.404L114.889 59.4044Z" fill="white"/>
<path d="M72.2349 60.9067C74.4708 60.8729 76.5453 60.2597 78.669 59.6321L78.8579 59.5763L78.8832 59.5813C78.908 59.6377 78.7609 59.9456 78.6319 60.2156C78.55 60.387 78.4753 60.5432 78.4566 60.6101C78.2031 61.5157 78.3469 62.4588 78.7877 63.2768C76.1416 63.8464 73.5989 64.0104 70.8974 63.916L70.2303 63.8637C70.5501 62.5131 71.1162 61.7015 72.2349 60.9067Z" fill="white"/>
<path d="M68.7819 59.629C67.4099 59.9718 66.314 60.351 65.3066 61.3965C66.2207 62.515 67.3513 63.2005 68.7426 63.5639C69.1948 63.669 69.6491 63.7642 70.1053 63.8495C70.3292 62.6067 70.7997 61.6709 71.8497 60.9429C71.8789 60.9225 71.9084 60.9027 71.9384 60.8836L71.8294 60.8712C71.2072 60.8005 70.5277 60.7234 69.9726 60.4258C69.8706 60.3711 69.6853 60.2332 69.4892 60.0872C69.1998 59.8717 68.8865 59.6386 68.7819 59.629Z" fill="white"/>
<path fill-rule="evenodd" clip-rule="evenodd" d="M119.083 60.9592L119.134 60.9624C119.606 60.9928 120.09 61.024 120.556 60.9214C120.908 60.8438 121.298 60.6814 121.496 60.3587C121.599 60.1896 121.696 59.9439 121.651 59.7445L121.664 59.7436L121.671 59.7429C121.679 59.7422 121.688 59.7416 121.696 59.7413C121.912 59.7344 122.273 60.0747 122.51 60.2978L122.511 60.2988C122.537 60.3229 122.561 60.3457 122.583 60.3665C122.604 60.386 122.623 60.4037 122.641 60.4192C122.681 60.4546 122.732 60.498 122.79 60.5476L122.791 60.5481C123.146 60.8511 123.769 61.3827 123.79 61.7024C123.79 61.7044 123.791 61.7064 123.791 61.7084L123.791 61.7144L123.792 61.7223C123.793 61.729 123.794 61.7357 123.794 61.7425C123.803 61.9294 123.53 62.2718 123.407 62.3963C122.835 62.9751 122.026 63.0679 121.262 63.0695C120.987 63.0673 120.715 63.0265 120.444 62.9858L120.369 62.9746L120.302 62.9647C120.314 62.9299 120.317 62.9042 120.309 62.8676C120.217 62.4207 119.47 61.2303 119.083 60.9592ZM121.676 61.1717C121.675 61.1726 121.675 61.1734 121.675 61.1744L121.674 61.1759L121.673 61.1776L121.672 61.18L121.671 61.1861V61.1922L121.672 61.1982L121.674 61.2039L121.677 61.2092C121.679 61.2109 121.68 61.2125 121.681 61.2139L121.682 61.2151L121.684 61.2162L121.686 61.2178L121.688 61.2191C121.689 61.2197 121.69 61.2203 121.691 61.2208C121.692 61.2213 121.693 61.2217 121.694 61.2221L121.697 61.2229C121.697 61.223 121.698 61.2232 121.699 61.2233C121.7 61.2236 121.701 61.2238 121.702 61.2239L121.705 61.224L121.708 61.2239L121.711 61.2234L121.714 61.2228C121.716 61.2222 121.718 61.2215 121.72 61.2207L121.723 61.2194L121.725 61.2176L121.727 61.216L121.729 61.2143L121.73 61.213L121.733 61.2107L121.733 61.2097L121.734 61.2089L121.735 61.2076L121.735 61.2067L121.736 61.2053L121.737 61.2041L121.737 61.2027L121.738 61.202C121.738 61.2004 121.739 61.1987 121.739 61.1971L121.739 61.1959L121.739 61.1947C121.739 61.1939 121.74 61.193 121.74 61.1922C121.74 61.1888 121.74 61.1855 121.739 61.1822C121.739 61.1808 121.738 61.1794 121.738 61.178C121.737 61.1762 121.737 61.1744 121.736 61.1727C121.735 61.1711 121.734 61.1696 121.733 61.1682C121.732 61.1675 121.732 61.1668 121.731 61.1661L121.73 61.1647C121.729 61.1643 121.729 61.1639 121.728 61.1635L121.728 61.1627L121.727 61.1619C121.725 61.1607 121.724 61.1596 121.722 61.1587C121.719 61.1571 121.716 61.156 121.712 61.1553C121.709 61.1546 121.706 61.1544 121.702 61.1547C121.702 61.1548 121.701 61.1549 121.7 61.155C121.699 61.1552 121.697 61.1556 121.696 61.156C121.695 61.1563 121.694 61.1566 121.693 61.157L121.691 61.1582L121.689 61.1593L121.687 61.1606L121.685 61.162C121.683 61.1632 121.682 61.1645 121.68 61.1659C121.679 61.1669 121.679 61.168 121.678 61.1691C121.677 61.1699 121.676 61.1708 121.676 61.1717ZM121.871 61.4224L121.869 61.424C121.868 61.4254 121.867 61.4268 121.865 61.4285C121.864 61.4308 121.862 61.4333 121.861 61.4359C121.86 61.4373 121.86 61.4387 121.86 61.4402C121.859 61.4415 121.859 61.4429 121.859 61.4442L121.859 61.4458C121.859 61.4466 121.859 61.4475 121.859 61.4483C121.859 61.4494 121.859 61.4505 121.859 61.4516L121.859 61.4529C121.859 61.4546 121.859 61.4563 121.86 61.458L121.86 61.459L121.861 61.4601L121.861 61.4612L121.862 61.4641L121.863 61.4656L121.865 61.4686C121.866 61.4692 121.866 61.4698 121.867 61.4704L121.868 61.4713C121.868 61.4717 121.868 61.472 121.869 61.4724L121.87 61.4734C121.87 61.4739 121.871 61.4743 121.871 61.4746L121.873 61.4758L121.874 61.4767L121.876 61.4776L121.879 61.4789C121.881 61.48 121.884 61.4807 121.887 61.481C121.89 61.4813 121.893 61.4812 121.896 61.4808C121.897 61.4805 121.899 61.4801 121.901 61.4795L121.902 61.4788L121.904 61.4783C121.906 61.4771 121.909 61.4756 121.911 61.4738C121.912 61.473 121.913 61.4721 121.914 61.4711L121.915 61.4693C121.917 61.4677 121.918 61.466 121.919 61.4641C121.919 61.4636 121.919 61.463 121.92 61.4624C121.92 61.4618 121.92 61.4612 121.921 61.4606L121.921 61.4583L121.922 61.457L121.922 61.4551C121.922 61.4541 121.922 61.4531 121.922 61.4521L121.923 61.4503L121.923 61.4485C121.923 61.4476 121.923 61.4467 121.923 61.4458C121.923 61.4437 121.922 61.4416 121.921 61.4396C121.921 61.4385 121.921 61.4375 121.921 61.4364C121.92 61.4355 121.92 61.4346 121.919 61.4337L121.918 61.4319L121.917 61.4305L121.916 61.4284C121.915 61.4275 121.914 61.4266 121.914 61.4258L121.911 61.4239C121.91 61.4225 121.908 61.4213 121.906 61.4202C121.905 61.4196 121.904 61.419 121.903 61.4185L121.901 61.4177C121.899 61.417 121.897 61.4165 121.895 61.4162L121.892 61.416C121.891 61.4159 121.89 61.4159 121.889 61.416L121.886 61.4163L121.885 61.4165L121.883 61.417L121.88 61.4177L121.878 61.4184L121.877 61.4191C121.875 61.42 121.873 61.4211 121.871 61.4224Z" fill="white"/>
<path d="M102.313 60.6928C102.337 60.6494 102.358 60.6044 102.372 60.556C102.5 60.0852 102.408 58.1187 102.169 57.6654C102.84 57.5489 103.973 57.6881 104.634 57.8577C104.724 57.9735 104.759 58.0785 104.783 58.2223C104.873 58.7408 104.94 60.209 104.639 60.6412L104.645 60.7331C104.579 60.7778 103.727 60.7434 103.062 60.7165C102.717 60.7026 102.422 60.6907 102.313 60.6928Z" fill="white"/>
<path d="M120.051 63.8288C120.253 63.847 120.454 63.8736 120.655 63.9003C121.004 63.9467 121.353 63.993 121.707 63.9946C122.601 63.9987 123.471 63.7795 124.122 63.1219C124.672 62.5643 124.942 61.7872 124.941 61.0066C124.941 60.1225 124.347 58.4349 123.729 57.8159C123.982 57.8382 124.467 58.4139 124.711 58.703L124.712 58.7042L124.746 58.7441C124.765 58.7667 124.782 58.7868 124.797 58.8038C125.704 59.8516 126.082 60.9318 125.985 62.3294C125.899 63.5604 125.306 64.8236 124.378 65.6333C123.5 66.4006 122.373 66.7495 121.231 66.8242C119.545 66.9345 116.591 66.3109 115.071 65.4678C114.852 65.3461 114.651 65.1899 114.45 65.0336C114.151 64.8007 113.851 64.5676 113.49 64.4482C113.128 64.3283 112.747 64.2363 112.37 64.1454C112.231 64.1117 112.092 64.0782 111.955 64.0435C108.876 63.2631 105.628 62.8312 102.451 62.9201C101.993 62.9344 101.536 62.9555 101.079 62.9835C100.622 63.0115 100.166 63.0463 99.7099 63.088C99.254 63.1297 98.7987 63.1783 98.3441 63.2336C97.8895 63.289 97.4358 63.3512 96.9832 63.4201C96.5306 63.4891 96.0789 63.5649 95.6283 63.6475C95.1779 63.73 94.7288 63.8193 94.2808 63.9153C93.8331 64.0114 93.3867 64.1141 92.9417 64.2236C92.4969 64.333 92.0539 64.4491 91.6125 64.5718C90.9242 64.7684 90.2524 65.0435 89.5807 65.3186C89.0413 65.5394 88.5018 65.7603 87.9537 65.9406C83.6047 67.3715 78.8923 68.2783 74.307 67.9226C70.7955 67.65 66.6492 66.5947 64.2735 63.7771C63.2819 62.601 62.9009 61.3259 63.0216 59.7937C63.0523 59.9679 63.0931 60.1397 63.144 60.3089C63.1949 60.4783 63.2556 60.6439 63.3261 60.8059C64.2372 62.8595 66.2895 64.0014 68.2734 64.7662C71.7677 65.9488 75.4252 65.6238 78.9416 64.7557C80.3743 64.402 81.7868 63.9723 83.1475 63.3944C83.4898 64.4661 83.5041 65.6928 83.3986 66.8035C84.6778 66.4979 85.9283 66.1577 87.1827 65.7593C87.2915 65.7247 87.4032 65.6911 87.5161 65.6572C87.8801 65.5477 88.2561 65.4346 88.5876 65.2728C88.8486 64.9492 88.8511 64.0759 88.8372 63.6665C88.8174 63.0779 88.6084 61.5801 88.1741 61.1682C88.7303 60.9714 91.0261 60.0802 91.3619 59.7607C91.4619 59.8359 91.5179 59.9433 91.5738 60.0533C92.0319 60.9498 92.383 62.8816 92.0874 63.8469C92.5016 63.7524 93.2421 63.3856 93.9003 63.0596L93.901 63.0592C94.2491 62.8868 94.5741 62.7258 94.8156 62.6226C97.5314 61.4615 100.558 60.7111 103.519 60.8176C106.411 60.9216 109.385 61.7471 111.964 63.0625L111.997 63.0792L112.035 63.0982L112.103 63.1325L112.103 63.1328C112.538 63.3524 113.094 63.6329 113.404 63.9702C113.78 63.7907 114.162 63.0562 114.358 62.6778L114.371 62.6535L114.386 62.6254L114.411 62.5778C114.555 62.3058 114.834 61.7784 114.764 61.5481C115.182 61.6701 116.685 62.371 116.973 62.6478C116.992 62.7441 116.985 62.8284 116.956 62.9223C116.726 63.6704 116.086 64.8768 115.391 65.264C116.022 65.5284 116.628 65.7233 117.241 65.9202C117.607 66.0381 117.976 66.1567 118.354 66.2913C118.674 66.151 118.941 65.8135 119.151 65.5402C119.404 65.2119 120.104 64.2571 120.051 63.8288Z" fill="white"/>
<path d="M95.3157 58.4787C96.1062 58.3679 96.932 58.1821 97.7259 58.0034L97.7317 58.0021L97.7398 58.0003C97.8658 57.9719 97.9912 57.9437 98.1153 57.9161C98.1314 57.9145 98.146 57.9129 98.1597 57.9114C98.2382 57.9025 98.2831 57.8975 98.3678 57.9385C98.4238 58.0282 98.4654 58.1204 98.4966 58.2217C98.6843 58.8277 98.9463 60.6655 98.66 61.2264C98.4303 61.3323 98.1497 61.3987 97.8782 61.463C97.737 61.4964 97.5982 61.5292 97.4705 61.5667C97.278 61.6231 97.0869 61.6862 96.8958 61.7493C96.5916 61.8496 96.287 61.9501 95.9769 62.024C96.0383 61.084 95.9278 59.234 95.3157 58.4787Z" fill="white"/>
<path d="M108.124 61.4974C108.15 61.471 108.173 61.4445 108.196 61.415C108.6 60.8921 108.765 59.3657 108.672 58.7176C109.02 58.7538 110.767 59.4559 111.05 59.6878C111.15 59.8433 111.126 60.0741 111.107 60.2608C111.105 60.2783 111.104 60.2954 111.102 60.312C111.055 60.7984 110.882 61.7267 110.491 62.0488C110.488 62.1026 110.477 62.1231 110.453 62.1659L110.448 62.1752C110.264 62.2001 109.695 62.0034 109.147 61.814C108.737 61.6723 108.339 61.5346 108.124 61.4974Z" fill="white"/>
<path d="M99.853 53.4699L99.8553 53.4661C99.8604 53.4575 99.8656 53.4488 99.8699 53.4399C99.9813 53.2237 99.8971 52.8947 99.8189 52.681C100.433 52.556 101.88 52.7315 102.543 52.8133L102.545 52.8151C102.571 52.8475 102.594 52.8769 102.611 52.9159C102.688 53.0911 102.746 53.4567 102.673 53.6331C102.465 53.6521 102.22 53.6245 101.987 53.5982L101.987 53.5982C101.881 53.5863 101.777 53.5746 101.681 53.5677C101.071 53.5205 100.461 53.4899 99.8496 53.4758L99.853 53.4699Z" fill="white"/>
<path d="M102.887 53.569C102.878 53.604 102.864 53.6299 102.846 53.6609C102.989 53.6753 103.272 53.7236 103.596 53.7788C104.233 53.8874 105.027 54.0228 105.218 53.9796L105.216 53.8837C105.324 53.7118 105.378 53.4485 105.334 53.2461C105.326 53.2113 105.323 53.205 105.313 53.184L105.307 53.1711C105.203 53.1544 105.074 53.1317 104.928 53.1061C104.238 52.9853 103.186 52.8007 102.754 52.8813C102.855 53.0705 102.939 53.3538 102.887 53.569Z" fill="white"/>
<path d="M112.973 35.3067C112.973 35.7711 112.866 36.2567 112.652 36.7633C112.073 38.1144 111.013 39.075 109.471 39.645C110.392 39.8139 111.206 40.0989 111.913 40.5C113.433 41.4289 114.194 42.7378 114.194 44.4267C114.194 45.5033 113.862 46.4956 113.198 47.4033C111.913 49.1344 109.888 50 107.125 50H98V49.1767H100.57V31.8233H98V31H107.029C108.443 31 109.653 31.2428 110.66 31.7283C112.202 32.5094 112.973 33.7022 112.973 35.3067ZM106.258 31.8233H103.334V39.265H106.193C107.05 39.265 107.8 39.0644 108.443 38.6633C109.535 37.9667 110.081 36.9322 110.081 35.56C110.081 35.2644 110.06 34.9794 110.017 34.705C109.717 32.7839 108.464 31.8233 106.258 31.8233ZM106.804 40.12H103.334V49.1767H106.964C107.95 49.1767 108.796 48.8811 109.503 48.29C110.574 47.3822 111.109 46.1156 111.109 44.49C111.109 43.7933 110.981 43.1494 110.724 42.5583C110.06 40.9328 108.753 40.12 106.804 40.12Z" fill="white"/>
<path d="M124.797 50H116.925V49.1767H119.495V31.8233H116.925V31H126.436C128.107 31 129.51 31.38 130.645 32.14C132.037 33.09 132.733 34.3567 132.733 35.94C132.733 36.5944 132.594 37.2383 132.316 37.8717C131.566 39.4761 130.174 40.5211 128.139 41.0067L133.312 49.1767H134.533C134.683 49.1767 134.811 49.1872 134.918 49.2083C135.175 49.2717 135.304 49.5356 135.304 50H130.452L125.311 41.2917H122.259V49.1767H124.797V50ZM125.472 31.8233H122.259V40.3733H125.568C126.532 40.3733 127.378 40.0883 128.107 39.5183C129.178 38.6739 129.713 37.4917 129.713 35.9717C129.713 35.2961 129.574 34.6522 129.295 34.04C128.589 32.5622 127.314 31.8233 125.472 31.8233Z" fill="white"/>
<path d="M155 50H148.06V49.1767H150.148L147.738 43.0333H141.023L138.613 49.1767H140.188C140.295 49.1767 140.402 49.1872 140.509 49.2083C140.852 49.2717 141.023 49.5356 141.023 50H135.304V49.1767H137.328L144.525 31H145.714L153.072 49.1767H154.165C154.272 49.1767 154.379 49.1872 154.486 49.2083C154.829 49.2717 155 49.5356 155 50ZM147.385 42.115L144.365 34.4517L141.377 42.115H147.385Z" fill="white"/>
<path d="M65.4764 47.2903C62.4619 49.0645 59.2999 49.9677 55.9905 50C51.4688 50 47.799 48.5161 44.9811 45.5484C42.327 42.6774 41 39.129 41 34.9032C41 31.4194 41.9502 28.3387 43.8507 25.6613C46.603 21.8871 50.5677 20 55.7448 20C57.3176 20 58.8576 20.1774 60.3648 20.5323C62.6585 21.1129 64.2804 21.871 65.2306 22.8065C65.2306 21.9355 65.2798 21.3065 65.3781 20.9194C65.5419 20.4677 65.9842 20.2419 66.7051 20.2419L66.8526 29.1452H65.673C65.4436 28.4355 65.1651 27.7419 64.8374 27.0645C63.0025 23.2581 60.0372 21.3548 55.9414 21.3548C54.1393 21.3548 52.5009 21.8065 51.0265 22.7097C47.6515 24.871 45.9641 28.9677 45.9641 35C45.9641 37.8065 46.3409 40.2419 47.0945 42.3065C48.6345 46.5323 51.5343 48.6452 55.794 48.6452C60.8072 48.6129 64.1493 45.9355 65.8204 40.6129H67V49.7581C66.6068 49.7581 66.2955 49.7097 66.0662 49.6129C65.673 49.4194 65.4764 48.6452 65.4764 47.2903Z" fill="white"/>
<path d="M106.431 24.0968C105.392 24.6882 104.303 24.9892 103.163 25C101.606 25 100.342 24.5054 99.3713 23.5161C98.4571 22.5591 98 21.3763 98 19.9677C98 18.8065 98.3273 17.7796 98.9819 16.8871C99.9299 15.629 101.296 15 103.079 15C103.62 15 104.151 15.0591 104.67 15.1774C105.46 15.371 106.019 15.6237 106.346 15.9355C106.346 15.6452 106.363 15.4355 106.397 15.3065C106.453 15.1559 106.606 15.0806 106.854 15.0806L106.905 18.0484H106.498C106.419 17.8118 106.323 17.5806 106.211 17.3548C105.579 16.086 104.557 15.4516 103.146 15.4516C102.526 15.4516 101.961 15.6022 101.454 15.9032C100.291 16.6237 99.7098 17.9892 99.7098 20C99.7098 20.9355 99.8396 21.7473 100.099 22.4355C100.63 23.8441 101.628 24.5484 103.096 24.5484C104.822 24.5376 105.974 23.6452 106.549 21.871H106.955V24.9194C106.82 24.9194 106.713 24.9032 106.634 24.871C106.498 24.8065 106.431 24.5484 106.431 24.0968Z" fill="#202021"/>
<path d="M118.095 24.8387H114.438V24.4194H115.538L114.269 21.2903H110.731L109.461 24.4194H110.29C110.347 24.4194 110.403 24.4247 110.46 24.4355C110.64 24.4677 110.731 24.6022 110.731 24.8387H107.717V24.4194H108.784L112.576 15.1613H113.202L117.079 24.4194H117.655C117.711 24.4194 117.767 24.4247 117.824 24.4355C118.004 24.4677 118.095 24.6022 118.095 24.8387ZM114.083 20.8226L112.491 16.9194L110.917 20.8226H114.083Z" fill="#202021"/>
<path d="M126.322 22.3065C126.322 22.9624 126.08 23.5269 125.594 24C124.883 24.6667 123.879 25 122.581 25C121.475 25 120.487 24.7258 119.618 24.1774C119.618 24.4032 119.607 24.5591 119.584 24.6452C119.539 24.7957 119.381 24.871 119.11 24.871V21.5323H119.618C119.81 23.5215 120.77 24.5269 122.496 24.5484C122.936 24.5484 123.337 24.4731 123.698 24.3226C124.466 23.9892 124.849 23.4462 124.849 22.6935C124.849 22.4032 124.776 22.1344 124.629 21.8871C124.358 21.4462 123.715 21.0108 122.699 20.5806C121.605 20.129 120.961 19.8548 120.77 19.7581C119.709 19.1882 119.178 18.4516 119.178 17.5484C119.178 16.9462 119.404 16.4194 119.855 15.9677C120.533 15.3226 121.481 15 122.699 15C123.704 15 124.607 15.2097 125.408 15.629C125.408 15.5 125.419 15.3978 125.442 15.3226C125.487 15.1613 125.645 15.0806 125.916 15.0806V17.9032H125.408C125.419 17.3011 125.261 16.7903 124.934 16.371C124.437 15.7581 123.715 15.4516 122.767 15.4516C122.383 15.4516 122.034 15.5108 121.718 15.629C120.984 15.9086 120.617 16.4086 120.617 17.129C120.617 17.3978 120.685 17.6505 120.82 17.8871C121.08 18.3172 121.712 18.7366 122.716 19.1452C123.822 19.6075 124.483 19.8925 124.697 20C125.781 20.5806 126.322 21.3495 126.322 22.3065Z" fill="#202021"/>
<path d="M131.993 24.8387H127.846V24.4194H129.2V15.5806H127.846V15.1613H131.993V15.5806H130.656V24.4194H131.553C131.61 24.4194 131.666 24.4247 131.723 24.4355C131.903 24.4677 131.993 24.6022 131.993 24.8387Z" fill="#202021"/>
<path d="M140.356 15.5806V15.1613H143.827V15.5806H142.473V24.7581L141.694 24.9194L135.041 16.9516V24.4194H136.04C136.096 24.4194 136.152 24.4247 136.209 24.4355C136.389 24.4677 136.48 24.6022 136.48 24.8387H133.009V24.4194H134.364V15.5806H133.009V15.1613H135.362L141.795 22.8065V15.5806H140.356Z" fill="#202021"/>
<path d="M150.006 15C151.157 15 152.173 15.3172 153.053 15.9516C154.351 16.8763 155 18.2258 155 20C155 21.5161 154.464 22.7527 153.392 23.7097C152.432 24.5699 151.287 25 149.955 25C148.77 25 147.721 24.6559 146.806 23.9677C145.554 23.0215 144.927 21.6774 144.927 19.9355C144.927 18.4301 145.458 17.2097 146.519 16.2742C147.489 15.4247 148.652 15 150.006 15ZM150.006 24.5484C150.457 24.5484 150.875 24.4677 151.259 24.3065C152.624 23.7366 153.307 22.2796 153.307 19.9355C153.296 16.9677 152.178 15.4731 149.955 15.4516C149.639 15.4516 149.34 15.4839 149.058 15.5484C147.433 15.957 146.62 17.4409 146.62 20C146.62 20.7742 146.699 21.457 146.857 22.0484C147.32 23.7151 148.369 24.5484 150.006 24.5484Z" fill="#202021"/>
</svg>
