<svg width="131" height="32" viewBox="0 0 131 32" fill="none" xmlns="http://www.w3.org/2000/svg">
<mask id="path-1-outside-1_1234_15373" maskUnits="userSpaceOnUse" x="0" y="0" width="131" height="32" fill="black">
<rect fill="white" width="131" height="32"/>
<path d="M15.4774 17.9293C14.4398 17.2258 13.3912 16.874 12.3316 16.874C11.7576 16.874 11.2167 16.9729 10.709 17.1708C10.2233 17.3687 9.79283 17.6545 9.41753 18.0283C9.04224 18.3801 8.74422 18.8088 8.52346 19.3145C8.32477 19.7982 8.22543 20.3479 8.22543 20.9635C8.22543 21.5571 8.32477 22.1068 8.52346 22.6125C8.74422 23.0962 9.0312 23.5249 9.38442 23.8987C9.75971 24.2505 10.2012 24.5253 10.709 24.7232C11.2167 24.9211 11.7576 25.02 12.3316 25.02C13.4574 25.02 14.5061 24.6353 15.4774 23.8657V28.9446C13.9983 29.5822 12.5965 29.9011 11.2719 29.9011C10.0357 29.9011 8.8546 29.6922 7.72872 29.2744C6.62492 28.8567 5.64254 28.2631 4.78157 27.4935C3.94269 26.702 3.26937 25.7676 2.76162 24.6902C2.25387 23.5909 2 22.3706 2 21.0294C2 19.6883 2.24284 18.468 2.72851 17.3687C3.21418 16.2473 3.87646 15.2909 4.71535 14.4994C5.55423 13.6859 6.54765 13.0593 7.69561 12.6196C8.86563 12.1578 10.1129 11.927 11.4375 11.927C12.8945 11.927 14.2411 12.2348 15.4774 12.8504V17.9293Z"/>
<path d="M18.081 2H24.0746V14.5984C24.8914 13.609 25.7193 12.9494 26.5582 12.6196C27.3971 12.2678 28.3794 12.0919 29.5053 12.0919C31.6467 12.0919 33.2582 12.6855 34.34 13.8728C35.4438 15.0381 35.9957 16.6211 35.9957 18.6219V29.3734H30.002V20.8316C30.002 19.9741 29.9358 19.2815 29.8033 18.7538C29.6709 18.2261 29.4501 17.8194 29.1411 17.5336C28.6112 17.0718 27.971 16.841 27.2204 16.841C26.2049 16.841 25.4212 17.1488 24.8693 17.7644C24.3395 18.3581 24.0746 19.2155 24.0746 20.3369V29.3734H18.081V2Z"/>
<path d="M43.9782 20.8645C43.9782 21.4142 44.0775 21.9309 44.2762 22.4146C44.4749 22.8763 44.7398 23.2831 45.0709 23.6349C45.4242 23.9867 45.8326 24.2615 46.2962 24.4594C46.7818 24.6572 47.3006 24.7562 47.8525 24.7562C48.3824 24.7562 48.8791 24.6572 49.3427 24.4594C49.8283 24.2615 50.2367 23.9867 50.5679 23.6349C50.9211 23.2831 51.197 22.8763 51.3957 22.4146C51.6165 21.9529 51.7269 21.4582 51.7269 20.9305C51.7269 20.4028 51.6165 19.9081 51.3957 19.4464C51.197 18.9627 50.9211 18.545 50.5679 18.1932C50.2367 17.8414 49.8283 17.5665 49.3427 17.3687C48.8791 17.1708 48.3824 17.0718 47.8525 17.0718C47.3006 17.0718 46.7818 17.1708 46.2962 17.3687C45.8326 17.5665 45.4242 17.8414 45.0709 18.1932C44.7398 18.545 44.4749 18.9517 44.2762 19.4134C44.0775 19.8532 43.9782 20.3369 43.9782 20.8645ZM51.5282 12.4547H57.5549V29.3734H51.5282V27.4935C50.2478 29.0985 48.5148 29.9011 46.3293 29.9011C45.093 29.9011 43.9561 29.6812 42.9185 29.2415C41.881 28.7797 40.9759 28.1421 40.2032 27.3286C39.4305 26.5151 38.8234 25.5587 38.3819 24.4594C37.9625 23.36 37.7528 22.1618 37.7528 20.8645C37.7528 19.6553 37.9625 18.512 38.3819 17.4346C38.8014 16.3353 39.3864 15.3789 40.137 14.5654C40.8876 13.7519 41.7816 13.1143 42.8192 12.6525C43.8568 12.1688 45.0047 11.927 46.2631 11.927C48.3824 11.927 50.1374 12.6635 51.5282 14.1366V12.4547Z"/>
<path d="M59.9779 12.4547H65.9716V14.5984C66.7884 13.609 67.6162 12.9494 68.4551 12.6196C69.294 12.2678 70.2764 12.0919 71.4023 12.0919C72.5944 12.0919 73.6099 12.2898 74.4487 12.6855C75.3097 13.0593 76.0382 13.598 76.6343 14.3015C77.1199 14.8732 77.4511 15.5108 77.6277 16.2144C77.8043 16.9179 77.8926 17.7205 77.8926 18.6219V29.3734H71.899V20.8316C71.899 19.9961 71.8327 19.3255 71.7003 18.8198C71.5899 18.2921 71.3802 17.8744 71.0711 17.5665C70.8062 17.3027 70.5082 17.1158 70.177 17.0059C69.8459 16.896 69.4927 16.841 69.1174 16.841C68.1019 16.841 67.3182 17.1488 66.7663 17.7644C66.2365 18.3581 65.9716 19.2155 65.9716 20.3369V29.3734H59.9779V12.4547Z"/>
<path d="M93.1271 17.9293C92.0895 17.2258 91.0409 16.874 89.9813 16.874C89.4073 16.874 88.8664 16.9729 88.3587 17.1708C87.873 17.3687 87.4425 17.6545 87.0673 18.0283C86.692 18.3801 86.3939 18.8088 86.1732 19.3145C85.9745 19.7982 85.8751 20.3479 85.8751 20.9635C85.8751 21.5571 85.9745 22.1068 86.1732 22.6125C86.3939 23.0962 86.6809 23.5249 87.0341 23.8987C87.4094 24.2505 87.8509 24.5253 88.3587 24.7232C88.8664 24.9211 89.4073 25.02 89.9813 25.02C91.1072 25.02 92.1558 24.6353 93.1271 23.8657V28.9446C91.648 29.5822 90.2462 29.9011 88.9216 29.9011C87.6854 29.9011 86.5043 29.6922 85.3784 29.2744C84.2746 28.8567 83.2923 28.2631 82.4313 27.4935C81.5924 26.702 80.9191 25.7676 80.4113 24.6902C79.9036 23.5909 79.6497 22.3706 79.6497 21.0294C79.6497 19.6883 79.8925 18.468 80.3782 17.3687C80.8639 16.2473 81.5262 15.2909 82.3651 14.4994C83.2039 13.6859 84.1974 13.0593 85.3453 12.6196C86.5154 12.1578 87.7626 11.927 89.0872 11.927C90.5442 11.927 91.8909 12.2348 93.1271 12.8504V17.9293Z"/>
<path d="M107.308 18.457C107.109 17.6215 106.701 16.9509 106.082 16.4452C105.464 15.9395 104.714 15.6867 103.831 15.6867C102.903 15.6867 102.142 15.9285 101.546 16.4122C100.972 16.896 100.608 17.5775 100.453 18.457H107.308ZM100.287 21.9199C100.287 24.4923 101.502 25.7786 103.93 25.7786C105.233 25.7786 106.215 25.2509 106.877 24.1955H112.672C111.502 28.0652 108.577 30 103.897 30C102.462 30 101.148 29.7911 99.9564 29.3734C98.7643 28.9336 97.7377 28.318 96.8767 27.5265C96.0379 26.735 95.3866 25.7896 94.923 24.6902C94.4594 23.5909 94.2276 22.3596 94.2276 20.9965C94.2276 19.5893 94.4484 18.3251 94.8899 17.2038C95.3314 16.0605 95.9606 15.093 96.7774 14.3015C97.5942 13.51 98.5766 12.9054 99.7245 12.4876C100.895 12.0479 102.208 11.828 103.665 11.828C105.1 11.828 106.392 12.0479 107.539 12.4876C108.687 12.9054 109.659 13.521 110.453 14.3345C111.248 15.148 111.855 16.1484 112.275 17.3357C112.694 18.501 112.904 19.8202 112.904 21.2933V21.9199H100.287Z"/>
<path d="M125.933 16.808C124.829 16.2364 123.747 15.9505 122.688 15.9505C122.136 15.9505 121.683 16.0605 121.33 16.2803C120.999 16.5002 120.833 16.797 120.833 17.1708C120.833 17.3687 120.856 17.5336 120.9 17.6655C120.966 17.7754 121.087 17.8854 121.264 17.9953C121.463 18.1052 121.739 18.2042 122.092 18.2921C122.467 18.3801 122.953 18.49 123.549 18.6219C125.204 18.9517 126.441 19.5453 127.258 20.4028C128.074 21.2383 128.483 22.3157 128.483 23.6349C128.483 24.6243 128.284 25.5147 127.887 26.3062C127.489 27.0978 126.937 27.7684 126.231 28.318C125.525 28.8457 124.675 29.2525 123.681 29.5383C122.688 29.8461 121.595 30 120.403 30C118.107 30 115.844 29.3514 113.615 28.0542L115.8 23.8327C117.478 24.976 119.067 25.5477 120.569 25.5477C121.12 25.5477 121.573 25.4268 121.926 25.1849C122.279 24.9431 122.456 24.6353 122.456 24.2615C122.456 24.0416 122.423 23.8657 122.357 23.7338C122.313 23.5799 122.202 23.448 122.026 23.338C121.849 23.2061 121.584 23.0962 121.231 23.0082C120.9 22.8983 120.458 22.7884 119.906 22.6784C118.052 22.3047 116.749 21.755 115.999 21.0294C115.27 20.2819 114.906 19.2595 114.906 17.9623C114.906 17.0169 115.083 16.1704 115.436 15.4228C115.789 14.6533 116.297 14.0047 116.959 13.477C117.621 12.9494 118.416 12.5426 119.343 12.2568C120.293 11.9709 121.341 11.828 122.489 11.828C124.366 11.828 126.187 12.1908 127.953 12.9164L125.933 16.808Z"/>
</mask>
<path d="M15.4774 17.9293C14.4398 17.2258 13.3912 16.874 12.3316 16.874C11.7576 16.874 11.2167 16.9729 10.709 17.1708C10.2233 17.3687 9.79283 17.6545 9.41753 18.0283C9.04224 18.3801 8.74422 18.8088 8.52346 19.3145C8.32477 19.7982 8.22543 20.3479 8.22543 20.9635C8.22543 21.5571 8.32477 22.1068 8.52346 22.6125C8.74422 23.0962 9.0312 23.5249 9.38442 23.8987C9.75971 24.2505 10.2012 24.5253 10.709 24.7232C11.2167 24.9211 11.7576 25.02 12.3316 25.02C13.4574 25.02 14.5061 24.6353 15.4774 23.8657V28.9446C13.9983 29.5822 12.5965 29.9011 11.2719 29.9011C10.0357 29.9011 8.8546 29.6922 7.72872 29.2744C6.62492 28.8567 5.64254 28.2631 4.78157 27.4935C3.94269 26.702 3.26937 25.7676 2.76162 24.6902C2.25387 23.5909 2 22.3706 2 21.0294C2 19.6883 2.24284 18.468 2.72851 17.3687C3.21418 16.2473 3.87646 15.2909 4.71535 14.4994C5.55423 13.6859 6.54765 13.0593 7.69561 12.6196C8.86563 12.1578 10.1129 11.927 11.4375 11.927C12.8945 11.927 14.2411 12.2348 15.4774 12.8504V17.9293Z" fill="#FFBA37"/>
<path d="M18.081 2H24.0746V14.5984C24.8914 13.609 25.7193 12.9494 26.5582 12.6196C27.3971 12.2678 28.3794 12.0919 29.5053 12.0919C31.6467 12.0919 33.2582 12.6855 34.34 13.8728C35.4438 15.0381 35.9957 16.6211 35.9957 18.6219V29.3734H30.002V20.8316C30.002 19.9741 29.9358 19.2815 29.8033 18.7538C29.6709 18.2261 29.4501 17.8194 29.1411 17.5336C28.6112 17.0718 27.971 16.841 27.2204 16.841C26.2049 16.841 25.4212 17.1488 24.8693 17.7644C24.3395 18.3581 24.0746 19.2155 24.0746 20.3369V29.3734H18.081V2Z" fill="#006FBB"/>
<path d="M43.9782 20.8645C43.9782 21.4142 44.0775 21.9309 44.2762 22.4146C44.4749 22.8763 44.7398 23.2831 45.0709 23.6349C45.4242 23.9867 45.8326 24.2615 46.2962 24.4594C46.7818 24.6572 47.3006 24.7562 47.8525 24.7562C48.3824 24.7562 48.8791 24.6572 49.3427 24.4594C49.8283 24.2615 50.2367 23.9867 50.5679 23.6349C50.9211 23.2831 51.197 22.8763 51.3957 22.4146C51.6165 21.9529 51.7269 21.4582 51.7269 20.9305C51.7269 20.4028 51.6165 19.9081 51.3957 19.4464C51.197 18.9627 50.9211 18.545 50.5679 18.1932C50.2367 17.8414 49.8283 17.5665 49.3427 17.3687C48.8791 17.1708 48.3824 17.0718 47.8525 17.0718C47.3006 17.0718 46.7818 17.1708 46.2962 17.3687C45.8326 17.5665 45.4242 17.8414 45.0709 18.1932C44.7398 18.545 44.4749 18.9517 44.2762 19.4134C44.0775 19.8532 43.9782 20.3369 43.9782 20.8645ZM51.5282 12.4547H57.5549V29.3734H51.5282V27.4935C50.2478 29.0985 48.5148 29.9011 46.3293 29.9011C45.093 29.9011 43.9561 29.6812 42.9185 29.2415C41.881 28.7797 40.9759 28.1421 40.2032 27.3286C39.4305 26.5151 38.8234 25.5587 38.3819 24.4594C37.9625 23.36 37.7528 22.1618 37.7528 20.8645C37.7528 19.6553 37.9625 18.512 38.3819 17.4346C38.8014 16.3353 39.3864 15.3789 40.137 14.5654C40.8876 13.7519 41.7816 13.1143 42.8192 12.6525C43.8568 12.1688 45.0047 11.927 46.2631 11.927C48.3824 11.927 50.1374 12.6635 51.5282 14.1366V12.4547Z" fill="#F2502A"/>
<path d="M59.9779 12.4547H65.9716V14.5984C66.7884 13.609 67.6162 12.9494 68.4551 12.6196C69.294 12.2678 70.2764 12.0919 71.4023 12.0919C72.5944 12.0919 73.6099 12.2898 74.4487 12.6855C75.3097 13.0593 76.0382 13.598 76.6343 14.3015C77.1199 14.8732 77.4511 15.5108 77.6277 16.2144C77.8043 16.9179 77.8926 17.7205 77.8926 18.6219V29.3734H71.899V20.8316C71.899 19.9961 71.8327 19.3255 71.7003 18.8198C71.5899 18.2921 71.3802 17.8744 71.0711 17.5665C70.8062 17.3027 70.5082 17.1158 70.177 17.0059C69.8459 16.896 69.4927 16.841 69.1174 16.841C68.1019 16.841 67.3182 17.1488 66.7663 17.7644C66.2365 18.3581 65.9716 19.2155 65.9716 20.3369V29.3734H59.9779V12.4547Z" fill="#373C40"/>
<path d="M93.1271 17.9293C92.0895 17.2258 91.0409 16.874 89.9813 16.874C89.4073 16.874 88.8664 16.9729 88.3587 17.1708C87.873 17.3687 87.4425 17.6545 87.0673 18.0283C86.692 18.3801 86.3939 18.8088 86.1732 19.3145C85.9745 19.7982 85.8751 20.3479 85.8751 20.9635C85.8751 21.5571 85.9745 22.1068 86.1732 22.6125C86.3939 23.0962 86.6809 23.5249 87.0341 23.8987C87.4094 24.2505 87.8509 24.5253 88.3587 24.7232C88.8664 24.9211 89.4073 25.02 89.9813 25.02C91.1072 25.02 92.1558 24.6353 93.1271 23.8657V28.9446C91.648 29.5822 90.2462 29.9011 88.9216 29.9011C87.6854 29.9011 86.5043 29.6922 85.3784 29.2744C84.2746 28.8567 83.2923 28.2631 82.4313 27.4935C81.5924 26.702 80.9191 25.7676 80.4113 24.6902C79.9036 23.5909 79.6497 22.3706 79.6497 21.0294C79.6497 19.6883 79.8925 18.468 80.3782 17.3687C80.8639 16.2473 81.5262 15.2909 82.3651 14.4994C83.2039 13.6859 84.1974 13.0593 85.3453 12.6196C86.5154 12.1578 87.7626 11.927 89.0872 11.927C90.5442 11.927 91.8909 12.2348 93.1271 12.8504V17.9293Z" fill="#373C40"/>
<path d="M107.308 18.457C107.109 17.6215 106.701 16.9509 106.082 16.4452C105.464 15.9395 104.714 15.6867 103.831 15.6867C102.903 15.6867 102.142 15.9285 101.546 16.4122C100.972 16.896 100.608 17.5775 100.453 18.457H107.308ZM100.287 21.9199C100.287 24.4923 101.502 25.7786 103.93 25.7786C105.233 25.7786 106.215 25.2509 106.877 24.1955H112.672C111.502 28.0652 108.577 30 103.897 30C102.462 30 101.148 29.7911 99.9564 29.3734C98.7643 28.9336 97.7377 28.318 96.8767 27.5265C96.0379 26.735 95.3866 25.7896 94.923 24.6902C94.4594 23.5909 94.2276 22.3596 94.2276 20.9965C94.2276 19.5893 94.4484 18.3251 94.8899 17.2038C95.3314 16.0605 95.9606 15.093 96.7774 14.3015C97.5942 13.51 98.5766 12.9054 99.7245 12.4876C100.895 12.0479 102.208 11.828 103.665 11.828C105.1 11.828 106.392 12.0479 107.539 12.4876C108.687 12.9054 109.659 13.521 110.453 14.3345C111.248 15.148 111.855 16.1484 112.275 17.3357C112.694 18.501 112.904 19.8202 112.904 21.2933V21.9199H100.287Z" fill="#373C40"/>
<path d="M125.933 16.808C124.829 16.2364 123.747 15.9505 122.688 15.9505C122.136 15.9505 121.683 16.0605 121.33 16.2803C120.999 16.5002 120.833 16.797 120.833 17.1708C120.833 17.3687 120.856 17.5336 120.9 17.6655C120.966 17.7754 121.087 17.8854 121.264 17.9953C121.463 18.1052 121.739 18.2042 122.092 18.2921C122.467 18.3801 122.953 18.49 123.549 18.6219C125.204 18.9517 126.441 19.5453 127.258 20.4028C128.074 21.2383 128.483 22.3157 128.483 23.6349C128.483 24.6243 128.284 25.5147 127.887 26.3062C127.489 27.0978 126.937 27.7684 126.231 28.318C125.525 28.8457 124.675 29.2525 123.681 29.5383C122.688 29.8461 121.595 30 120.403 30C118.107 30 115.844 29.3514 113.615 28.0542L115.8 23.8327C117.478 24.976 119.067 25.5477 120.569 25.5477C121.12 25.5477 121.573 25.4268 121.926 25.1849C122.279 24.9431 122.456 24.6353 122.456 24.2615C122.456 24.0416 122.423 23.8657 122.357 23.7338C122.313 23.5799 122.202 23.448 122.026 23.338C121.849 23.2061 121.584 23.0962 121.231 23.0082C120.9 22.8983 120.458 22.7884 119.906 22.6784C118.052 22.3047 116.749 21.755 115.999 21.0294C115.27 20.2819 114.906 19.2595 114.906 17.9623C114.906 17.0169 115.083 16.1704 115.436 15.4228C115.789 14.6533 116.297 14.0047 116.959 13.477C117.621 12.9494 118.416 12.5426 119.343 12.2568C120.293 11.9709 121.341 11.828 122.489 11.828C124.366 11.828 126.187 12.1908 127.953 12.9164L125.933 16.808Z" fill="#373C40"/>
<path d="M15.4774 17.9293C14.4398 17.2258 13.3912 16.874 12.3316 16.874C11.7576 16.874 11.2167 16.9729 10.709 17.1708C10.2233 17.3687 9.79283 17.6545 9.41753 18.0283C9.04224 18.3801 8.74422 18.8088 8.52346 19.3145C8.32477 19.7982 8.22543 20.3479 8.22543 20.9635C8.22543 21.5571 8.32477 22.1068 8.52346 22.6125C8.74422 23.0962 9.0312 23.5249 9.38442 23.8987C9.75971 24.2505 10.2012 24.5253 10.709 24.7232C11.2167 24.9211 11.7576 25.02 12.3316 25.02C13.4574 25.02 14.5061 24.6353 15.4774 23.8657V28.9446C13.9983 29.5822 12.5965 29.9011 11.2719 29.9011C10.0357 29.9011 8.8546 29.6922 7.72872 29.2744C6.62492 28.8567 5.64254 28.2631 4.78157 27.4935C3.94269 26.702 3.26937 25.7676 2.76162 24.6902C2.25387 23.5909 2 22.3706 2 21.0294C2 19.6883 2.24284 18.468 2.72851 17.3687C3.21418 16.2473 3.87646 15.2909 4.71535 14.4994C5.55423 13.6859 6.54765 13.0593 7.69561 12.6196C8.86563 12.1578 10.1129 11.927 11.4375 11.927C12.8945 11.927 14.2411 12.2348 15.4774 12.8504V17.9293Z" stroke="white" stroke-width="4" mask="url(#path-1-outside-1_1234_15373)"/>
<path d="M18.081 2H24.0746V14.5984C24.8914 13.609 25.7193 12.9494 26.5582 12.6196C27.3971 12.2678 28.3794 12.0919 29.5053 12.0919C31.6467 12.0919 33.2582 12.6855 34.34 13.8728C35.4438 15.0381 35.9957 16.6211 35.9957 18.6219V29.3734H30.002V20.8316C30.002 19.9741 29.9358 19.2815 29.8033 18.7538C29.6709 18.2261 29.4501 17.8194 29.1411 17.5336C28.6112 17.0718 27.971 16.841 27.2204 16.841C26.2049 16.841 25.4212 17.1488 24.8693 17.7644C24.3395 18.3581 24.0746 19.2155 24.0746 20.3369V29.3734H18.081V2Z" stroke="white" stroke-width="4" mask="url(#path-1-outside-1_1234_15373)"/>
<path d="M43.9782 20.8645C43.9782 21.4142 44.0775 21.9309 44.2762 22.4146C44.4749 22.8763 44.7398 23.2831 45.0709 23.6349C45.4242 23.9867 45.8326 24.2615 46.2962 24.4594C46.7818 24.6572 47.3006 24.7562 47.8525 24.7562C48.3824 24.7562 48.8791 24.6572 49.3427 24.4594C49.8283 24.2615 50.2367 23.9867 50.5679 23.6349C50.9211 23.2831 51.197 22.8763 51.3957 22.4146C51.6165 21.9529 51.7269 21.4582 51.7269 20.9305C51.7269 20.4028 51.6165 19.9081 51.3957 19.4464C51.197 18.9627 50.9211 18.545 50.5679 18.1932C50.2367 17.8414 49.8283 17.5665 49.3427 17.3687C48.8791 17.1708 48.3824 17.0718 47.8525 17.0718C47.3006 17.0718 46.7818 17.1708 46.2962 17.3687C45.8326 17.5665 45.4242 17.8414 45.0709 18.1932C44.7398 18.545 44.4749 18.9517 44.2762 19.4134C44.0775 19.8532 43.9782 20.3369 43.9782 20.8645ZM51.5282 12.4547H57.5549V29.3734H51.5282V27.4935C50.2478 29.0985 48.5148 29.9011 46.3293 29.9011C45.093 29.9011 43.9561 29.6812 42.9185 29.2415C41.881 28.7797 40.9759 28.1421 40.2032 27.3286C39.4305 26.5151 38.8234 25.5587 38.3819 24.4594C37.9625 23.36 37.7528 22.1618 37.7528 20.8645C37.7528 19.6553 37.9625 18.512 38.3819 17.4346C38.8014 16.3353 39.3864 15.3789 40.137 14.5654C40.8876 13.7519 41.7816 13.1143 42.8192 12.6525C43.8568 12.1688 45.0047 11.927 46.2631 11.927C48.3824 11.927 50.1374 12.6635 51.5282 14.1366V12.4547Z" stroke="white" stroke-width="4" mask="url(#path-1-outside-1_1234_15373)"/>
<path d="M59.9779 12.4547H65.9716V14.5984C66.7884 13.609 67.6162 12.9494 68.4551 12.6196C69.294 12.2678 70.2764 12.0919 71.4023 12.0919C72.5944 12.0919 73.6099 12.2898 74.4487 12.6855C75.3097 13.0593 76.0382 13.598 76.6343 14.3015C77.1199 14.8732 77.4511 15.5108 77.6277 16.2144C77.8043 16.9179 77.8926 17.7205 77.8926 18.6219V29.3734H71.899V20.8316C71.899 19.9961 71.8327 19.3255 71.7003 18.8198C71.5899 18.2921 71.3802 17.8744 71.0711 17.5665C70.8062 17.3027 70.5082 17.1158 70.177 17.0059C69.8459 16.896 69.4927 16.841 69.1174 16.841C68.1019 16.841 67.3182 17.1488 66.7663 17.7644C66.2365 18.3581 65.9716 19.2155 65.9716 20.3369V29.3734H59.9779V12.4547Z" stroke="white" stroke-width="4" mask="url(#path-1-outside-1_1234_15373)"/>
<path d="M93.1271 17.9293C92.0895 17.2258 91.0409 16.874 89.9813 16.874C89.4073 16.874 88.8664 16.9729 88.3587 17.1708C87.873 17.3687 87.4425 17.6545 87.0673 18.0283C86.692 18.3801 86.3939 18.8088 86.1732 19.3145C85.9745 19.7982 85.8751 20.3479 85.8751 20.9635C85.8751 21.5571 85.9745 22.1068 86.1732 22.6125C86.3939 23.0962 86.6809 23.5249 87.0341 23.8987C87.4094 24.2505 87.8509 24.5253 88.3587 24.7232C88.8664 24.9211 89.4073 25.02 89.9813 25.02C91.1072 25.02 92.1558 24.6353 93.1271 23.8657V28.9446C91.648 29.5822 90.2462 29.9011 88.9216 29.9011C87.6854 29.9011 86.5043 29.6922 85.3784 29.2744C84.2746 28.8567 83.2923 28.2631 82.4313 27.4935C81.5924 26.702 80.9191 25.7676 80.4113 24.6902C79.9036 23.5909 79.6497 22.3706 79.6497 21.0294C79.6497 19.6883 79.8925 18.468 80.3782 17.3687C80.8639 16.2473 81.5262 15.2909 82.3651 14.4994C83.2039 13.6859 84.1974 13.0593 85.3453 12.6196C86.5154 12.1578 87.7626 11.927 89.0872 11.927C90.5442 11.927 91.8909 12.2348 93.1271 12.8504V17.9293Z" stroke="white" stroke-width="4" mask="url(#path-1-outside-1_1234_15373)"/>
<path d="M107.308 18.457C107.109 17.6215 106.701 16.9509 106.082 16.4452C105.464 15.9395 104.714 15.6867 103.831 15.6867C102.903 15.6867 102.142 15.9285 101.546 16.4122C100.972 16.896 100.608 17.5775 100.453 18.457H107.308ZM100.287 21.9199C100.287 24.4923 101.502 25.7786 103.93 25.7786C105.233 25.7786 106.215 25.2509 106.877 24.1955H112.672C111.502 28.0652 108.577 30 103.897 30C102.462 30 101.148 29.7911 99.9564 29.3734C98.7643 28.9336 97.7377 28.318 96.8767 27.5265C96.0379 26.735 95.3866 25.7896 94.923 24.6902C94.4594 23.5909 94.2276 22.3596 94.2276 20.9965C94.2276 19.5893 94.4484 18.3251 94.8899 17.2038C95.3314 16.0605 95.9606 15.093 96.7774 14.3015C97.5942 13.51 98.5766 12.9054 99.7245 12.4876C100.895 12.0479 102.208 11.828 103.665 11.828C105.1 11.828 106.392 12.0479 107.539 12.4876C108.687 12.9054 109.659 13.521 110.453 14.3345C111.248 15.148 111.855 16.1484 112.275 17.3357C112.694 18.501 112.904 19.8202 112.904 21.2933V21.9199H100.287Z" stroke="white" stroke-width="4" mask="url(#path-1-outside-1_1234_15373)"/>
<path d="M125.933 16.808C124.829 16.2364 123.747 15.9505 122.688 15.9505C122.136 15.9505 121.683 16.0605 121.33 16.2803C120.999 16.5002 120.833 16.797 120.833 17.1708C120.833 17.3687 120.856 17.5336 120.9 17.6655C120.966 17.7754 121.087 17.8854 121.264 17.9953C121.463 18.1052 121.739 18.2042 122.092 18.2921C122.467 18.3801 122.953 18.49 123.549 18.6219C125.204 18.9517 126.441 19.5453 127.258 20.4028C128.074 21.2383 128.483 22.3157 128.483 23.6349C128.483 24.6243 128.284 25.5147 127.887 26.3062C127.489 27.0978 126.937 27.7684 126.231 28.318C125.525 28.8457 124.675 29.2525 123.681 29.5383C122.688 29.8461 121.595 30 120.403 30C118.107 30 115.844 29.3514 113.615 28.0542L115.8 23.8327C117.478 24.976 119.067 25.5477 120.569 25.5477C121.12 25.5477 121.573 25.4268 121.926 25.1849C122.279 24.9431 122.456 24.6353 122.456 24.2615C122.456 24.0416 122.423 23.8657 122.357 23.7338C122.313 23.5799 122.202 23.448 122.026 23.338C121.849 23.2061 121.584 23.0962 121.231 23.0082C120.9 22.8983 120.458 22.7884 119.906 22.6784C118.052 22.3047 116.749 21.755 115.999 21.0294C115.27 20.2819 114.906 19.2595 114.906 17.9623C114.906 17.0169 115.083 16.1704 115.436 15.4228C115.789 14.6533 116.297 14.0047 116.959 13.477C117.621 12.9494 118.416 12.5426 119.343 12.2568C120.293 11.9709 121.341 11.828 122.489 11.828C124.366 11.828 126.187 12.1908 127.953 12.9164L125.933 16.808Z" stroke="white" stroke-width="4" mask="url(#path-1-outside-1_1234_15373)"/>
</svg>
