<svg width="169" height="28" viewBox="0 0 169 28" fill="none" xmlns="http://www.w3.org/2000/svg">
<path d="M1.4244 26.9685C0.474801 26.9685 0 26.4937 0 25.5441V8.04425C1.01743 7.63728 2.39096 7.28118 4.12059 6.97595C5.85023 6.63681 7.81726 6.46723 10.0217 6.46723C12.1922 6.46723 13.9218 6.60289 15.2106 6.87421C16.5332 7.14552 17.5337 7.58641 18.212 8.19687C18.8903 8.77341 19.3312 9.53648 19.5347 10.4861C19.7721 11.4357 19.8908 12.6057 19.8908 13.9962V25.0353C19.8908 25.5101 19.8399 25.9002 19.7382 26.2054C19.6703 26.5106 19.4838 26.7141 19.1786 26.8158C18.9073 26.9176 18.4833 26.9685 17.9068 26.9685H15.1088V12.9788C15.1088 11.6561 14.7019 10.7065 13.8879 10.13C13.074 9.55344 11.7852 9.26517 10.0217 9.26517C9.47906 9.26517 8.8686 9.31604 8.19032 9.41778C7.51203 9.48561 6.86766 9.60431 6.2572 9.77388C5.64674 9.94345 5.15498 10.1639 4.78192 10.4352V26.9685H1.4244Z" fill="white"/>
<path d="M34.446 27.2737C32.3433 27.2737 30.6306 27.1719 29.308 26.9685C27.9853 26.7989 26.9679 26.4767 26.2557 26.0019C25.5435 25.5271 25.0517 24.8827 24.7804 24.0688C24.543 23.2548 24.4243 22.2374 24.4243 21.0165C24.4243 19.2869 24.6108 17.9812 24.9839 17.0994C25.3909 16.1837 26.0691 15.5563 27.0187 15.2171C28.0023 14.878 29.308 14.7084 30.9359 14.7084C31.7837 14.7084 32.7164 14.7254 33.7338 14.7593C34.7851 14.7932 35.7856 14.8441 36.7352 14.9119C37.7187 14.9458 38.5666 14.9967 39.2788 15.0645C40.0249 15.1323 40.5167 15.2171 40.7541 15.3189C40.7541 13.8945 40.6354 12.7753 40.398 11.9614C40.1606 11.1474 39.7705 10.537 39.2279 10.13C38.7192 9.72301 38.0748 9.4517 37.2948 9.31604C36.5148 9.18038 35.5991 9.11255 34.5477 9.11255C33.3946 9.11255 32.2416 9.14647 31.0885 9.2143C29.9693 9.28213 28.901 9.40083 27.8836 9.5704C26.9 9.73997 26.0861 9.96041 25.4417 10.2317V9.26517C25.4417 8.48514 25.6452 7.92555 26.0522 7.58641C26.4931 7.24726 27.0187 7.02682 27.6292 6.92508C28.3075 6.75551 29.308 6.61985 30.6306 6.51811C31.9533 6.41636 33.3607 6.38245 34.853 6.41636C36.7522 6.41636 38.3631 6.51811 39.6858 6.72159C41.0423 6.89116 42.1276 7.26422 42.9415 7.84076C43.7894 8.41731 44.3998 9.28212 44.7729 10.4352C45.1799 11.5883 45.3834 13.1314 45.3834 15.0645V25.4423C45.0781 26.0867 44.0437 26.5615 42.2802 26.8667C40.5167 27.138 37.9053 27.2737 34.446 27.2737ZM34.446 25.1371C35.8026 25.1371 36.9048 25.1032 37.7526 25.0353C38.6344 24.9336 39.3127 24.8149 39.7875 24.6792C40.2623 24.5097 40.5845 24.3062 40.7541 24.0688V17.0485C40.4488 16.9468 39.9062 16.862 39.1262 16.7942C38.3461 16.6924 37.5322 16.6076 36.6843 16.5398C35.8365 16.472 35.1243 16.4381 34.5477 16.4381C33.2929 16.4381 32.2755 16.5228 31.4954 16.6924C30.7154 16.862 30.1558 17.252 29.8167 17.8625C29.4775 18.4729 29.308 19.4225 29.308 20.7113C29.308 21.7626 29.4267 22.6105 29.6641 23.2548C29.9015 23.8992 30.3763 24.374 31.0885 24.6792C31.8346 24.9845 32.9538 25.1371 34.446 25.1371Z" fill="white"/>
<path d="M55.2028 27.1719C53.4053 27.1719 52.1844 26.748 51.54 25.9002C50.8956 25.0184 50.5735 23.7127 50.5735 21.983L50.6243 6.67072H55.3554V21.7287C55.3554 23.0174 55.508 23.8992 55.8132 24.374C56.1524 24.8488 56.712 25.0862 57.492 25.0862C57.7972 25.0862 58.1364 25.0523 58.5094 24.9845C58.8825 24.9166 59.1199 24.8658 59.2216 24.8319V26.765C59.086 26.7989 58.8655 26.8498 58.5603 26.9176C58.2551 26.9854 57.8311 27.0363 57.2885 27.0702C56.7459 27.138 56.0506 27.1719 55.2028 27.1719ZM53.0662 3.87279C52.2861 3.87279 51.6926 3.77104 51.2857 3.56756C50.9126 3.33016 50.7261 2.90623 50.7261 2.29577C50.7261 1.68531 50.9126 1.27834 51.2857 1.07485C51.6587 0.837451 52.2522 0.71875 53.0662 0.71875C53.8462 0.71875 54.4058 0.837451 54.7449 1.07485C55.118 1.27834 55.3045 1.68531 55.3045 2.29577C55.3045 2.90623 55.118 3.33016 54.7449 3.56756C54.4058 3.77104 53.8462 3.87279 53.0662 3.87279Z" fill="white"/>
<path d="M67.2796 26.9685H64.0238C63.5151 26.9685 63.1251 26.8328 62.8538 26.5615C62.5824 26.2902 62.4468 25.7815 62.4468 25.0353V7.68815C63.2607 7.45075 64.3969 7.19639 65.8552 6.92508C67.3135 6.65376 69.0601 6.51811 71.0949 6.51811C73.0959 6.51811 74.6729 6.65376 75.826 6.92508C76.9791 7.16248 77.827 7.53554 78.3696 8.04425C78.9461 8.51905 79.3022 9.11255 79.4379 9.82475C79.6075 10.503 79.6922 11.3 79.6922 12.2157H75.1138L75.0629 11.5035C75.0629 10.6896 74.8425 10.113 74.4016 9.77388C73.9946 9.40082 73.5029 9.16342 72.9263 9.06168C72.3498 8.95994 71.7732 8.90907 71.1967 8.90907C70.3149 8.90907 69.5179 8.99385 68.8057 9.16342C68.1274 9.333 67.6187 9.55344 67.2796 9.82475V26.9685Z" fill="white"/>
<path d="M92.67 27.2737C90.5673 27.2737 88.8547 27.1719 87.532 26.9685C86.2094 26.7989 85.1919 26.4767 84.4797 26.0019C83.7675 25.5271 83.2758 24.8827 83.0044 24.0688C82.7671 23.2548 82.6483 22.2374 82.6483 21.0165C82.6483 19.2869 82.8349 17.9812 83.2079 17.0994C83.6149 16.1837 84.2932 15.5563 85.2428 15.2171C86.2263 14.878 87.532 14.7084 89.1599 14.7084C90.0078 14.7084 90.9404 14.7254 91.9578 14.7593C93.0092 14.7932 94.0097 14.8441 94.9593 14.9119C95.9428 14.9458 96.7906 14.9967 97.5028 15.0645C98.249 15.1323 98.7407 15.2171 98.9781 15.3189C98.9781 13.8945 98.8594 12.7753 98.622 11.9614C98.3846 11.1474 97.9946 10.537 97.452 10.13C96.9432 9.72301 96.2989 9.4517 95.5188 9.31604C94.7388 9.18038 93.8231 9.11255 92.7718 9.11255C91.6187 9.11255 90.4656 9.14647 89.3125 9.2143C88.1933 9.28213 87.125 9.40083 86.1076 9.5704C85.1241 9.73997 84.3102 9.96041 83.6658 10.2317V9.26517C83.6658 8.48514 83.8693 7.92555 84.2762 7.58641C84.7171 7.24726 85.2428 7.02682 85.8532 6.92508C86.5315 6.75551 87.532 6.61985 88.8547 6.51811C90.1773 6.41636 91.5848 6.38245 93.077 6.41636C94.9762 6.41636 96.5872 6.51811 97.9098 6.72159C99.2664 6.89116 100.352 7.26422 101.166 7.84076C102.013 8.41731 102.624 9.28212 102.997 10.4352C103.404 11.5883 103.607 13.1314 103.607 15.0645V25.4423C103.302 26.0867 102.268 26.5615 100.504 26.8667C98.7407 27.138 96.1293 27.2737 92.67 27.2737ZM92.67 25.1371C94.0266 25.1371 95.1288 25.1032 95.9767 25.0353C96.8585 24.9336 97.5368 24.8149 98.0116 24.6792C98.4864 24.5097 98.8085 24.3062 98.9781 24.0688V17.0485C98.6729 16.9468 98.1302 16.862 97.3502 16.7942C96.5702 16.6924 95.7562 16.6076 94.9084 16.5398C94.0605 16.472 93.3483 16.4381 92.7718 16.4381C91.517 16.4381 90.4995 16.5228 89.7195 16.6924C88.9395 16.862 88.3799 17.252 88.0407 17.8625C87.7016 18.4729 87.532 19.4225 87.532 20.7113C87.532 21.7626 87.6507 22.6105 87.8881 23.2548C88.1255 23.8992 88.6003 24.374 89.3125 24.6792C90.0586 24.9845 91.1778 25.1371 92.67 25.1371Z" fill="white"/>
<path d="M118.616 27.1211C116.581 27.1211 114.902 27.0193 113.579 26.8158C112.291 26.5784 111.29 26.1206 110.578 25.4423C109.9 24.764 109.425 23.7636 109.154 22.4409C108.916 21.1182 108.798 19.3547 108.798 17.1503L108.747 1.27834H113.427V6.82333C113.562 6.82333 113.885 6.82333 114.393 6.82333C114.902 6.78942 115.496 6.77246 116.174 6.77246C116.886 6.73855 117.581 6.70463 118.26 6.67072C118.938 6.63681 119.531 6.61985 120.04 6.61985C122.482 6.61985 124.381 6.94204 125.738 7.58641C127.094 8.23078 128.044 9.29908 128.587 10.7913C129.163 12.2835 129.468 14.3014 129.502 16.845C129.502 19.2869 129.248 21.203 128.739 22.5935C128.264 23.984 127.569 25.0014 126.653 25.6458C125.738 26.2902 124.602 26.6971 123.245 26.8667C121.888 27.0363 120.345 27.1211 118.616 27.1211ZM118.667 24.4758C120.261 24.4758 121.481 24.3062 122.329 23.967C123.211 23.594 123.822 22.8479 124.161 21.7287C124.534 20.6095 124.72 18.9138 124.72 16.6415C124.686 14.7762 124.483 13.3179 124.11 12.2666C123.737 11.2152 123.126 10.4691 122.278 10.0282C121.465 9.55344 120.362 9.31604 118.972 9.31604C118.599 9.31604 118.124 9.333 117.547 9.36691C116.971 9.36691 116.394 9.38387 115.818 9.41778C115.241 9.41778 114.733 9.43474 114.292 9.46865C113.885 9.46865 113.613 9.46865 113.478 9.46865V17.7098C113.478 19.2021 113.529 20.3891 113.63 21.2708C113.766 22.1526 114.003 22.8309 114.342 23.3057C114.682 23.7466 115.19 24.0518 115.869 24.2214C116.581 24.391 117.513 24.4758 118.667 24.4758Z" fill="#45FAF5"/>
<path d="M144.456 27.2737C142.387 27.2737 140.641 27.138 139.216 26.8667C137.826 26.5954 136.707 26.0867 135.859 25.3406C135.045 24.5945 134.468 23.5601 134.129 22.2374C133.79 20.9147 133.62 19.2021 133.62 17.0994C133.62 14.5897 133.943 12.5549 134.587 10.9948C135.231 9.43474 136.367 8.29861 137.995 7.58641C139.657 6.84029 141.963 6.46723 144.914 6.46723C147.22 6.46723 149.051 6.75551 150.408 7.33205C151.799 7.87468 152.799 8.7395 153.409 9.9265C154.02 11.1135 154.325 12.6227 154.325 14.4541V17.7098H140.03C140.03 17.1672 140.149 16.7263 140.386 16.3872C140.624 16.048 141.065 15.8785 141.709 15.8785H150.052L150.001 14.5558C149.967 12.6566 149.56 11.2661 148.78 10.3843C148.034 9.50257 146.677 9.06168 144.71 9.06168C143.083 9.06168 141.811 9.31604 140.895 9.82475C139.979 10.3335 139.335 11.1644 138.962 12.3175C138.589 13.4366 138.402 14.9967 138.402 16.9976C138.402 19.0664 138.606 20.6434 139.013 21.7287C139.454 22.78 140.166 23.4922 141.149 23.8653C142.167 24.2384 143.574 24.4249 145.372 24.4249C146.016 24.4249 146.762 24.4079 147.61 24.374C148.492 24.3401 149.374 24.2892 150.255 24.2214C151.171 24.1536 151.985 24.0688 152.697 23.967C153.409 23.8653 153.884 23.7636 154.122 23.6618V24.374C154.122 24.7471 154.037 25.1201 153.867 25.4932C153.698 25.8662 153.342 26.1715 152.799 26.4089C152.087 26.748 151.035 26.9685 149.645 27.0702C148.288 27.2059 146.559 27.2737 144.456 27.2737Z" fill="#45FAF5"/>
<path d="M164.778 27.1211C163.421 27.1211 162.353 26.9685 161.573 26.6632C160.827 26.358 160.284 25.8154 159.945 25.0353C159.606 24.2553 159.436 23.204 159.436 21.8813V9.26517H157.401V6.67072H159.436V3.3132C159.436 2.70274 159.487 2.26185 159.589 1.99054C159.69 1.68531 159.86 1.49878 160.097 1.43095C160.369 1.32921 160.759 1.27834 161.268 1.27834H164.218C164.218 1.34617 164.218 1.49878 164.218 1.73618C164.218 1.93967 164.218 2.2449 164.218 2.65187V6.67072H169V9.26517H164.218V21.4235C164.218 22.7461 164.354 23.6957 164.625 24.2723C164.896 24.8149 165.541 25.0862 166.558 25.0862C166.897 25.0862 167.27 25.0523 167.677 24.9845C168.118 24.9166 168.423 24.8488 168.593 24.781V26.765C168.39 26.7989 167.949 26.8667 167.27 26.9685C166.592 27.0702 165.761 27.1211 164.778 27.1211Z" fill="#45FAF5"/>
<path d="M51.2862 3.56756C51.6931 3.77104 52.2866 3.87279 53.0667 3.87279C53.8467 3.87279 54.4063 3.77104 54.7454 3.56756C55.1185 3.33016 55.305 2.90623 55.305 2.29577C55.305 1.68531 55.1185 1.27834 54.7454 1.07485C54.4063 0.837451 53.8467 0.71875 53.0667 0.71875C52.2527 0.71875 51.6592 0.837451 51.2862 1.07485C50.9131 1.27834 50.7266 1.68531 50.7266 2.29577C50.7266 2.90623 50.9131 3.33016 51.2862 3.56756Z" fill="#45FAF5"/>
</svg>
