<svg width="209" height="48" viewBox="0 0 209 48" fill="none" xmlns="http://www.w3.org/2000/svg">
<path d="M8.8092 36.9988C8.98476 38.2991 9.7964 38.9816 9.7964 38.9816L12.6062 41.2729C13.1625 41.7268 13.966 41.7598 14.2538 41.7555L17.4464 41.6392L8.55078 33.3815L8.8092 36.9988Z" fill="#8CACFF"/>
<path d="M33.3071 16.1413C33.0799 14.8494 32.2418 14.1992 32.2418 14.1992L29.3435 12.0215C28.7695 11.59 27.9652 11.5889 27.6778 11.6045L24.4922 11.8475L33.7089 19.7456L33.3071 16.1413Z" fill="#8CACFF"/>
<path d="M20.3615 42.7819C21.1539 43.6511 21.9973 43.6378 21.9973 43.6378L24.878 43.5365C25.4486 43.5164 25.9431 43.0169 26.1115 42.8253L27.9455 40.652L18.293 40.2123L20.3615 42.7819Z" fill="#8CACFF"/>
<path d="M31.5712 40.0942C32.7053 39.7816 33.0754 39.0238 33.0754 39.0238L34.2904 36.41C34.5316 35.8924 34.3096 35.2249 34.2154 34.9881L33.1094 32.3688L28.3438 40.7741L31.5712 40.0942Z" fill="#8CACFF"/>
<path d="M37.3599 26.8737C38.0558 25.9251 37.8757 25.1008 37.8757 25.1008L37.2068 22.2971C37.0748 21.7416 36.4871 21.3557 36.2659 21.2284L33.7734 19.8605L35.2504 29.4093L37.3599 26.8737Z" fill="#8CACFF"/>
<path d="M12.5451 12.5152C11.3619 12.4965 10.7812 13.125 10.7812 13.125L8.83824 15.3102C8.45342 15.7428 8.46844 16.4512 8.48909 16.7071L8.77742 19.5548L15.8507 12.7708L12.5451 12.5152Z" fill="#8CACFF"/>
<path d="M13.3772 13.3138C12.1939 13.2951 11.6133 13.9237 11.6133 13.9237L9.67035 16.1089C9.28539 16.5414 9.30056 17.2499 9.32106 17.5058L9.60926 20.3534L16.6827 13.5694L13.3772 13.3138Z" fill="#FEFEFE"/>
<path d="M36.3421 34.2786C37.3771 33.7057 37.5681 32.8716 37.5681 32.8716L38.1651 30.009C38.2839 29.4425 37.9182 28.8355 37.7727 28.6239L36.1052 26.2977L33.3477 35.7026L36.3421 34.2786Z" fill="#8CACFF"/>
<path d="M35.2519 34.2786C36.2871 33.7057 36.4781 32.8716 36.4781 32.8716L37.0751 30.009C37.194 29.4425 36.8277 28.8355 36.6827 28.6239L35.0152 26.2977L32.2578 35.7026L35.2519 34.2786Z" fill="#FEFEFE"/>
<path d="M29.0128 40.5067C36.5519 36.3681 39.3086 26.9015 35.1701 19.3624C31.0316 11.8232 21.565 9.06649 14.0258 13.205C6.48668 17.3435 3.72994 26.8102 7.86847 34.3493C12.007 41.8884 21.4736 44.6452 29.0128 40.5067Z" fill="#FEFEFE"/>
<path d="M24.5324 10.9517C23.742 10.3253 22.8663 10.3141 22.8663 10.3141H19.8737C19.2807 10.3141 18.7495 10.6506 18.5675 10.7801L16.5859 12.2525H26.1735L24.5324 10.9517Z" fill="#FEFEFE"/>
<path d="M23.2233 10.6346C23.2233 10.7904 22.3976 10.9168 21.3792 10.9168C20.3608 10.9168 19.5352 10.7905 19.5352 10.6346C19.5352 10.4786 20.3608 10.4323 21.3792 10.4323C22.3976 10.4323 23.2233 10.4786 23.2233 10.6346Z" fill="#8CACFF"/>
<path d="M37.4923 23.1558C37.6552 21.7211 37.0066 20.6484 37.0066 20.6484L34.7422 17.0115C34.2933 16.2909 33.4819 15.9002 33.1874 15.777L29.8984 14.4828L36.8045 27.0456L37.4923 23.1558Z" fill="#FEFEFE"/>
<path d="M36.8873 21.3248C36.6981 21.4427 35.9196 20.5353 35.149 19.2974C34.3786 18.0596 33.9073 16.9607 34.0965 16.8426C34.2862 16.7247 34.9671 17.693 35.7381 18.9305C36.5086 20.1684 37.077 21.2067 36.8873 21.3248Z" fill="#8CACFF"/>
<path d="M24.9369 43.159C26.3675 43.3524 27.4538 42.727 27.4538 42.727L31.138 40.5406C31.8683 40.1076 32.2762 39.3047 32.4057 39.0126L33.7701 35.7518L21.0625 42.3878L24.9369 43.159Z" fill="#FEFEFE"/>
<path d="M26.779 42.5925C26.6655 42.4013 27.5898 41.6419 28.8437 40.8981C30.0972 40.1543 31.2061 39.7066 31.32 39.8986C31.4339 40.0906 30.4514 40.7511 29.1979 41.4949C27.9437 42.2388 26.8931 42.7846 26.779 42.5925Z" fill="#8CACFF"/>
<path d="M6.74182 19.0871C5.68693 19.867 5.47949 20.9073 5.47949 20.9073L4.82472 24.4732C4.69495 25.1794 5.05295 25.8994 5.19522 26.1499L6.83494 28.8915L9.78755 17.1183L6.74182 19.0871Z" fill="#FEFEFE"/>
<path d="M6.01067 20.5641C6.22991 20.6044 6.22752 21.6207 6.00449 22.834C5.7816 24.0476 5.42318 24.9986 5.20366 24.9582C4.98414 24.9179 5.09931 23.922 5.32234 22.7087C5.54537 21.4952 5.79101 20.5236 6.01067 20.5641Z" fill="#8CACFF"/>
<path d="M33.7274 29.4096C33.7274 30.9234 32.6734 32.1506 31.3734 32.1506C30.0736 32.1506 29.0195 30.9235 29.0195 29.4096C29.0195 27.896 30.0736 26.6688 31.3734 26.6688C32.6734 26.669 33.7274 27.896 33.7274 29.4096Z" fill="#8CACFF"/>
<path d="M33.9837 28.996C33.9837 30.4829 32.9488 31.6882 31.6715 31.6882C30.3946 31.6882 29.3594 30.4829 29.3594 28.996C29.3594 27.5089 30.3946 26.3035 31.6715 26.3035C32.9488 26.3035 33.9837 27.5089 33.9837 28.996Z" fill="#FEFEFE"/>
<path d="M33.3941 29.1827C33.3941 30.3128 32.6072 31.2291 31.6366 31.2291C30.666 31.2291 29.8789 30.3128 29.8789 29.1827C29.8789 28.053 30.666 27.1367 31.6366 27.1367C32.6072 27.1367 33.3941 28.053 33.3941 29.1827Z" fill="#8CACFF"/>
<path d="M13.934 16.7627C15.5016 15.9266 17.3291 16.293 18.0159 17.5806C18.7028 18.8688 17.9891 20.5904 16.4213 21.4265C14.8537 22.2624 13.0263 21.8963 12.3395 20.6082C11.6525 19.3205 12.3664 17.5988 13.934 16.7627Z" fill="#8CACFF"/>
<path d="M13.37 16.7347C14.9097 15.9134 16.7051 16.273 17.3801 17.5383C18.0548 18.8036 17.3535 20.495 15.8135 21.3161C14.2738 22.1374 12.4785 21.7777 11.8036 20.5126C11.1288 19.2471 11.8302 17.5557 13.37 16.7347Z" fill="#FEFEFE"/>
<path d="M13.8738 17.2173C15.0441 16.5931 16.4085 16.8664 16.9215 17.8281C17.4341 18.7896 16.9014 20.0751 15.7309 20.6989C14.5605 21.3232 13.1961 21.0499 12.6833 20.0881C12.1706 19.1265 12.7037 17.8411 13.8738 17.2173Z" fill="#8CACFF"/>
<path d="M14.7279 29.9152C16.0054 31.15 16.2185 33.0016 15.204 34.0512C14.1894 35.1006 12.3319 34.9502 11.0542 33.7158C9.77672 32.4807 9.56395 30.6291 10.5784 29.5798C11.5928 28.5304 13.4507 28.6807 14.7279 29.9152Z" fill="#8CACFF"/>
<path d="M14.5808 29.3687C15.8357 30.5816 16.0452 32.4006 15.0486 33.4315C14.0519 34.4624 12.2267 34.3152 10.9721 33.1022C9.71738 31.8894 9.50784 30.0702 10.5044 29.0392C11.5009 28.008 13.326 28.1558 14.5808 29.3687Z" fill="#FEFEFE"/>
<path d="M14.2756 29.9975C15.2293 30.9194 15.3887 32.3015 14.6311 33.0851C13.8737 33.8689 12.4867 33.7566 11.5331 32.8348C10.5793 31.9131 10.4202 30.5305 11.1776 29.7472C11.9351 28.9637 13.3223 29.0755 14.2756 29.9975Z" fill="#8CACFF"/>
<path d="M27.9295 36.4801C28.1062 38.0462 26.7757 39.4814 24.9581 39.6864C23.1404 39.891 21.524 38.7876 21.3477 37.2214C21.1713 35.6555 22.5019 34.22 24.3192 34.0154C26.1371 33.8108 27.7535 34.914 27.9295 36.4801Z" fill="#8CACFF"/>
<path d="M27.8599 36.2302C28.0221 37.673 26.7966 38.9955 25.1219 39.184C23.4473 39.3725 21.9582 38.3559 21.7957 36.9131C21.6333 35.4706 22.859 34.1477 24.5337 33.9594C26.2082 33.7705 27.6974 34.7873 27.8599 36.2302Z" fill="#FEFEFE"/>
<path d="M27.4375 36.2981C27.5694 37.4673 26.5759 38.5388 25.2189 38.6914C23.8619 38.8442 22.6553 38.0205 22.5234 36.8516C22.3918 35.6824 23.3851 34.6109 24.7423 34.4577C26.0993 34.305 27.3059 35.1289 27.4375 36.2981Z" fill="#8CACFF"/>
<path d="M28.9873 19.3303C27.9834 20.7373 25.7816 20.8871 24.0694 19.6655C22.3574 18.4435 21.7832 16.3128 22.7873 14.9058C23.7913 13.4986 25.9931 13.3489 27.7051 14.5707C29.4173 15.7927 29.9915 17.9234 28.9873 19.3303Z" fill="#8CACFF"/>
<path d="M29.1294 19.2084C28.2366 20.4593 26.2176 20.5492 24.6198 19.4089C23.0222 18.2685 22.4509 16.3301 23.3433 15.0792C24.2361 13.8287 26.2547 13.739 27.8526 14.879C29.4504 16.0192 30.0222 17.9577 29.1294 19.2084Z" fill="#FEFEFE"/>
<path d="M28.4547 18.3952C27.8025 19.3089 26.3397 19.3824 25.1868 18.5597C24.0339 17.7371 23.6278 16.3297 24.2799 15.4161C24.9318 14.5026 26.3952 14.4292 27.5479 15.2515C28.7006 16.0745 29.1067 17.4816 28.4547 18.3952Z" fill="#8CACFF"/>
<path d="M25.1248 26.3927C25.3014 27.959 23.9709 29.3942 22.1534 29.5991C20.3357 29.8038 18.7193 28.7004 18.5431 27.1342C18.3665 25.5682 19.6973 24.1328 21.5146 23.9282C23.3324 23.7238 24.9488 24.827 25.1248 26.3927Z" fill="#8CACFF"/>
<path d="M25.2228 26.048C25.1154 27.6074 23.592 28.7724 21.8204 28.6504C20.0483 28.528 18.6992 27.1651 18.8068 25.6056C18.9144 24.0464 20.4378 22.8814 22.2094 23.0034C23.9814 23.1257 25.3303 24.4889 25.2228 26.048Z" fill="#FEFEFE"/>
<path d="M24.4614 26.1229C24.3986 27.0344 23.3713 27.7065 22.1673 27.6236C20.963 27.5402 20.0379 26.734 20.1007 25.8224C20.1635 24.9112 21.1907 24.2391 22.3946 24.3221C23.5989 24.4053 24.524 25.2116 24.4614 26.1229Z" fill="#8CACFF"/>
<path d="M11.4773 23.626C12.3923 23.8331 12.9388 24.8623 12.6982 25.9241C12.4574 26.9862 11.5206 27.6789 10.6056 27.4718C9.69055 27.2644 9.14422 26.2352 9.38494 25.1733C9.62581 24.1114 10.5624 23.4184 11.4773 23.626Z" fill="#8CACFF"/>
<path d="M11.5181 23.4637C12.3257 23.8087 12.656 24.8486 12.2554 25.786C11.8545 26.7234 10.8751 27.2035 10.0675 26.8583C9.25998 26.5133 8.92993 25.4736 9.33048 24.5363C9.73118 23.5986 10.7105 23.1186 11.5181 23.4637Z" fill="#FEFEFE"/>
<path d="M33.1068 23.8042C32.3426 24.3483 31.2112 24.0705 30.5794 23.1838C29.9477 22.2967 30.0554 21.1365 30.8199 20.5922C31.5841 20.0481 32.7153 20.3259 33.3467 21.2131C33.9785 22.1001 33.8708 23.2603 33.1068 23.8042Z" fill="#8CACFF"/>
<path d="M33.1992 23.9421C32.4039 24.3143 31.4084 23.8681 30.9764 22.9447C30.5443 22.0211 30.839 20.971 31.6344 20.5985C32.4294 20.2263 33.4248 20.6728 33.8571 21.5961C34.2891 22.5196 33.9946 23.57 33.1992 23.9421Z" fill="#FEFEFE"/>
<path opacity="0.1" d="M34.3828 35.6319C34.5197 35.4311 34.6517 35.2277 34.7792 35.0209L36.3406 34.2785C37.3755 33.7056 37.5665 32.8715 37.5665 32.8715L38.1636 30.0089C38.2824 29.4423 37.9167 28.8353 37.7712 28.6238L37.0708 27.6466C37.0782 27.4975 37.0831 27.3478 37.0862 27.1977L37.3563 26.8731C38.0522 25.9245 37.8722 25.1003 37.8722 25.1003L37.4566 23.3577L37.4924 23.1555C37.6553 21.7208 37.0067 20.6481 37.0067 20.6481L35.1801 17.7147C35.1823 17.7202 36.2503 20.5522 35.0427 19.1313C35.0427 19.1313 35.6843 24.1176 34.6749 25.8757C33.6654 27.6339 30.1668 23.8045 28.7639 27.1358C27.3604 30.467 28.5273 33.0262 23.6724 33.0262C18.8177 33.0262 22.0542 38.5958 18.2908 38.9347C14.5326 39.2727 8.23536 34.9237 6.375 30.4872C6.83033 32.3917 7.63284 34.161 8.71597 35.7224L8.80726 36.9985C8.98282 38.2987 9.79446 38.9813 9.79446 38.9813L12.6042 41.2726C13.1605 41.7265 13.964 41.7595 14.2518 41.7551L16.6977 41.6662C17.7585 42.0109 18.8689 42.2454 20.016 42.3554L20.359 42.7815C21.1514 43.6508 21.9948 43.6374 21.9948 43.6374L24.8755 43.5361C25.1953 43.5251 25.4912 43.3631 25.7192 43.1892C26.7447 43.1338 27.4533 42.7268 27.4533 42.7268L31.1375 40.5404C31.3705 40.4021 31.5706 40.2262 31.7391 40.041C32.7405 39.7043 33.0745 39.0236 33.0745 39.0236L34.2895 36.4097C34.4045 36.1635 34.4139 35.8836 34.3828 35.6319Z" fill="#294561"/>
<path opacity="0.1" d="M23.8517 24.8696C23.8247 24.9318 22.4503 28.027 20.1406 26.2203C20.3243 26.9578 21.1445 27.5529 22.1694 27.6238C23.3733 27.7067 24.4007 27.0348 24.4634 26.1231C24.4963 25.6469 24.2577 25.2004 23.8517 24.8696Z" fill="#294561"/>
<path opacity="0.1" d="M13.7992 29.6266C13.8253 29.7565 14.6058 33.7856 11.2617 32.5295C11.3444 32.6354 11.434 32.7383 11.5343 32.8354C12.4878 33.7571 13.8749 33.8695 14.6323 33.0857C15.3899 32.3021 15.2305 30.9198 14.2768 29.9981C14.1271 29.8533 13.966 29.7311 13.7992 29.6266Z" fill="#294561"/>
<path opacity="0.1" d="M16.9207 17.8274C16.7818 17.567 16.5791 17.3592 16.3361 17.204C16.3142 17.2828 15.2151 21.1637 12.7773 20.2418C13.3484 21.0764 14.6252 21.2879 15.7301 20.6984C16.9007 20.0744 17.4334 18.7889 16.9207 17.8274Z" fill="#294561"/>
<path opacity="0.1" d="M27.5484 15.2517C27.5165 15.2291 27.4835 15.2096 27.4511 15.1884C27.4689 15.3181 27.9896 19.3225 25.1875 18.5599C26.3404 19.3827 27.8032 19.3091 28.4554 18.3955C29.1072 17.4819 28.7012 16.0747 27.5484 15.2517Z" fill="#294561"/>
<path opacity="0.2" d="M49.4098 13.0586C49.4087 12.9746 49.4069 12.8932 49.404 12.8137C49.4032 12.7929 49.4026 12.7723 49.4018 12.7518C49.3944 12.5673 49.3826 12.3946 49.367 12.2343C49.365 12.2154 49.3632 12.197 49.3609 12.1784C49.3609 12.177 49.3606 12.1756 49.3606 12.1744C49.3601 12.1678 49.3592 12.1609 49.3587 12.1543C49.3543 12.1154 49.3498 12.0772 49.3452 12.04C49.3435 12.0279 49.3418 12.0161 49.3403 12.0043C49.34 12.0013 49.3394 11.9983 49.3392 11.9953C49.3369 11.9792 49.3348 11.9627 49.3326 11.947C49.3268 11.9061 49.3205 11.8672 49.3142 11.8285C49.3114 11.8131 49.3092 11.7971 49.3064 11.7821C49.3039 11.7689 49.3018 11.7556 49.2993 11.7426C49.2976 11.7334 49.2958 11.7251 49.2941 11.7161C49.2935 11.7133 49.293 11.7109 49.2924 11.7081C49.2883 11.687 49.2838 11.6658 49.2797 11.6453C49.2751 11.6242 49.2708 11.603 49.266 11.5828C49.2635 11.5724 49.2611 11.5623 49.2585 11.5518C49.2557 11.5397 49.2525 11.5279 49.2495 11.5161C49.2473 11.5071 49.2452 11.498 49.243 11.489C49.2383 11.4723 49.234 11.4558 49.2292 11.4396C49.2226 11.4157 49.2154 11.3921 49.2084 11.3696C49.2067 11.3647 49.2055 11.3595 49.2038 11.3546C49.2005 11.3445 49.1972 11.3351 49.1937 11.3252C49.1856 11.3011 49.1772 11.278 49.1684 11.2559C49.1649 11.247 49.1615 11.238 49.1583 11.2294C49.1563 11.2251 49.1545 11.2205 49.1525 11.216C49.1503 11.211 49.1484 11.207 49.1462 11.2022C49.1379 11.1832 49.1298 11.1646 49.1209 11.1476C49.1177 11.1404 49.1137 11.1344 49.1105 11.1275C49.1039 11.1151 49.0973 11.1025 49.0907 11.091C49.0893 11.0887 49.0882 11.0872 49.0869 11.0852C49.0844 11.0809 49.0817 11.0766 49.0792 11.0726C49.0751 11.0662 49.0709 11.0596 49.0668 11.0536C49.0528 11.0325 49.0383 11.0127 49.0234 10.9957C49.0087 10.9788 48.9911 10.9618 48.9722 10.9448C48.9667 10.9401 48.9609 10.9352 48.9549 10.9302C48.9511 10.9272 48.9477 10.9238 48.9437 10.9209C48.9417 10.9192 48.9404 10.9177 48.9382 10.9163C48.9278 10.9077 48.9163 10.8998 48.9048 10.8915C48.8987 10.8872 48.893 10.8827 48.8866 10.8783C48.871 10.8677 48.8541 10.857 48.8365 10.846C48.8319 10.8432 48.8276 10.8406 48.823 10.8377C48.8189 10.8352 48.8144 10.8328 48.8104 10.83C48.8029 10.8259 48.7951 10.8215 48.7873 10.8174C48.766 10.8053 48.7434 10.7932 48.7199 10.7814C48.7111 10.7771 48.7029 10.7726 48.6941 10.7682C48.6889 10.7657 48.6834 10.7633 48.6782 10.7608C48.656 10.7504 48.633 10.74 48.6091 10.7295C48.5976 10.7245 48.5869 10.7193 48.5751 10.7144C48.5639 10.7098 48.5518 10.7052 48.54 10.7004C48.5282 10.6958 48.5167 10.6908 48.5043 10.6861C48.4945 10.682 48.484 10.6781 48.4739 10.674C48.456 10.6674 48.4371 10.6605 48.4183 10.6536C48.3972 10.6459 48.3749 10.6383 48.3527 10.6306C48.3414 10.6268 48.3313 10.6229 48.3198 10.6191C48.3086 10.6156 48.297 10.6119 48.2858 10.6081C48.2639 10.6012 48.2409 10.5941 48.2181 10.5873C48.1882 10.5781 48.1586 10.5689 48.1274 10.5599C48.1095 10.5547 48.0909 10.5498 48.0727 10.5449C48.0581 10.5408 48.0437 10.5369 48.0288 10.5328C47.9959 10.524 47.9621 10.5153 47.9278 10.5064C47.919 10.5042 47.91 10.5021 47.9014 10.4998C47.8803 10.4946 47.8594 10.4894 47.8381 10.4845C47.7624 10.4661 47.6844 10.4486 47.6024 10.4316C47.5966 10.4302 47.5903 10.429 47.5846 10.4281C47.5563 10.4223 47.5267 10.4168 47.4979 10.4111C47.4954 10.4105 47.493 10.4099 47.4905 10.4094C47.4427 10.4001 47.3941 10.3907 47.3445 10.382C47.3177 10.3771 47.2899 10.3724 47.2628 10.3677C47.1937 10.3556 47.1232 10.3441 47.0507 10.3331C47.0263 10.3293 47.0021 10.3254 46.9773 10.3216C46.882 10.3076 46.7847 10.2942 46.6843 10.2816C46.6627 10.2789 46.6402 10.2767 46.6181 10.2738C46.5358 10.2637 46.4519 10.2543 46.366 10.2453C46.334 10.2421 46.3019 10.2387 46.2694 10.2355C46.1776 10.2265 46.084 10.218 45.9888 10.2099C45.9704 10.2085 45.9526 10.2067 45.9344 10.2053C45.8214 10.1963 45.7059 10.1886 45.5882 10.1812C45.5572 10.1792 45.5257 10.1776 45.4944 10.176C45.4017 10.1708 45.3076 10.1661 45.2121 10.1619C45.1784 10.1605 45.1451 10.1591 45.1111 10.1578C44.9863 10.1532 44.8596 10.149 44.7301 10.1463C44.7246 10.1463 44.7189 10.1463 44.7131 10.146C44.5894 10.1435 44.4633 10.1425 44.3356 10.142C44.2999 10.142 44.2643 10.142 44.2283 10.142C44.1192 10.1422 44.0086 10.1431 43.897 10.1448C43.8682 10.1451 43.84 10.1453 43.8109 10.1459C43.6718 10.1484 43.5306 10.1519 43.3879 10.1569C43.3637 10.1577 43.3393 10.1588 43.3154 10.1598C43.1945 10.1642 43.0721 10.1696 42.9487 10.176C42.9113 10.1779 42.8738 10.1797 42.8362 10.182C42.7012 10.1894 42.5651 10.1979 42.4275 10.2078C42.4149 10.2087 42.4025 10.2092 42.3899 10.2104C42.2379 10.2213 42.0845 10.234 41.9299 10.2477C41.8962 10.2507 41.8625 10.254 41.8286 10.2573C41.7025 10.2688 41.5754 10.2817 41.4473 10.2953C41.4119 10.2991 41.3768 10.3028 41.3411 10.3066C41.1812 10.3244 41.0205 10.3434 40.8583 10.3642C40.8572 10.3644 40.8563 10.3644 40.8553 10.3647C40.6973 10.3851 40.5379 10.4076 40.3781 10.4309C40.3399 10.4363 40.3015 10.4424 40.2635 10.4481C40.1253 10.4686 39.9864 10.4907 39.8468 10.514C39.8194 10.5186 39.7921 10.5229 39.7648 10.5275C39.5979 10.5557 39.4301 10.5856 39.2617 10.6175C39.237 10.6222 39.2125 10.6274 39.1879 10.6321C39.0443 10.6595 38.8996 10.6883 38.7548 10.7185C38.7151 10.7268 38.6757 10.7349 38.6363 10.7435C38.4736 10.7781 38.311 10.8137 38.1472 10.8518C38.1415 10.8532 38.136 10.8543 38.1305 10.8556C37.9582 10.8956 37.7857 10.9379 37.6126 10.9817C37.5763 10.991 37.5401 11.0007 37.504 11.0099C37.3627 11.0464 37.2211 11.0842 37.0791 11.1233C37.0423 11.1334 37.0057 11.1436 36.9689 11.154C36.7947 11.2029 36.6203 11.2533 36.4452 11.3066C36.444 11.3068 36.4432 11.3071 36.4422 11.3074V11.3077C34.5736 11.8758 32.6815 12.6856 30.9064 13.8055L30.9061 13.8052C30.9047 13.8064 30.9031 13.8075 30.9017 13.8082C30.6977 13.9371 30.4951 14.0696 30.2947 14.2068C30.2918 14.209 30.2887 14.2111 30.2854 14.2131C30.0895 14.3472 29.8951 14.4853 29.7029 14.6273C29.6957 14.6325 29.6885 14.6374 29.6815 14.6429C29.4996 14.7776 29.3194 14.9166 29.1411 15.059C29.1077 15.0856 29.0744 15.1128 29.0412 15.1396C28.8651 15.282 28.6901 15.4268 28.5181 15.5768C28.346 15.7266 28.1771 15.8778 28.0095 16.0298C28.0087 16.0306 28.0078 16.0312 28.007 16.032C26.5352 17.366 25.2357 18.7757 24.1271 20.21L22.3263 20.5416L22.3266 20.5414L14.9439 21.9012L21.1026 28.971C20.9065 29.4406 20.7453 29.9034 20.6244 30.3544L21.3963 31.2404C19.9768 33.1879 14.9023 38.8965 7.19922 33.7033C7.47843 34.2598 7.78769 34.7984 8.12841 35.3148C8.13094 35.3185 8.13333 35.3221 8.13572 35.3258C8.19822 35.4204 8.2617 35.5142 8.32631 35.6075C8.32911 35.6116 8.33192 35.6159 8.33487 35.62L8.42743 36.9125C8.60509 38.2296 9.42727 38.9211 9.42727 38.9211L12.2733 41.2418C12.837 41.7016 13.6508 41.7351 13.9424 41.7307L14.7678 41.7006L17.3676 40.5625L21.355 38.6455C21.355 38.6455 23.5885 36.1617 24.6399 34.9638L25.9539 36.4722C26.4173 36.4144 26.8981 36.318 27.3903 36.1884L31.5999 41.0203L33.6427 43.3656L36.6428 34.3019C38.3422 33.3139 40.0417 32.1017 41.6744 30.6794C41.8387 30.5361 41.999 30.3896 42.157 30.2419C42.1806 30.2205 42.2045 30.199 42.2278 30.1771C42.2428 30.1628 42.2571 30.1481 42.2724 30.1336C42.4266 29.9871 42.5786 29.8395 42.7266 29.6889C42.737 29.6783 42.7471 29.667 42.758 29.6563C42.7585 29.6558 42.7591 29.6552 42.7596 29.6544C42.7651 29.6489 42.7706 29.6431 42.7761 29.6374C42.913 29.4975 43.0471 29.3554 43.179 29.2123C43.2072 29.1812 43.236 29.1506 43.264 29.1196C43.266 29.1173 43.2681 29.1152 43.27 29.113C43.2714 29.1116 43.2726 29.1102 43.2738 29.1089C43.4162 28.952 43.5561 28.7937 43.6924 28.6335C43.7013 28.6228 43.7102 28.6118 43.7195 28.6012C43.8555 28.4404 43.9883 28.278 44.1186 28.1145C44.1348 28.094 44.1512 28.0739 44.1675 28.0534C44.3054 27.879 44.4404 27.7029 44.5718 27.5254C44.577 27.5182 44.5819 27.511 44.5871 27.504C44.7192 27.3252 44.8477 27.1449 44.9734 26.9633C44.978 26.9567 44.9826 26.9498 44.9874 26.9435C45.1163 26.7564 45.2418 26.5682 45.3641 26.3789C45.3655 26.3769 45.3666 26.3751 45.3679 26.3734C45.3676 26.3734 45.3676 26.3734 45.3676 26.3734C45.9909 25.4081 46.5291 24.4135 46.9899 23.4155C46.9905 23.4143 46.9907 23.4132 46.9913 23.4122C47.0681 23.2462 47.1421 23.0801 47.2146 22.9138C47.2294 22.8798 47.244 22.8455 47.2589 22.8114C47.3178 22.6742 47.3757 22.5374 47.4319 22.4004C47.4451 22.3681 47.4587 22.3357 47.4719 22.3034C47.6066 21.9721 47.733 21.6415 47.8521 21.3125C47.8639 21.2797 47.8757 21.2467 47.8872 21.2138C47.9399 21.0662 47.9914 20.9189 48.0411 20.772C48.0466 20.7558 48.0524 20.7394 48.0579 20.7228C48.114 20.5558 48.1681 20.389 48.2205 20.223C48.2257 20.206 48.2306 20.1893 48.2361 20.1723C48.2822 20.0255 48.3263 19.8793 48.3694 19.7339C48.3777 19.7054 48.3858 19.6769 48.3941 19.6484C48.4888 19.3241 48.576 19.0035 48.656 18.6872C48.6618 18.6639 48.6675 18.6405 48.6733 18.6172C48.7081 18.4771 48.7418 18.338 48.7743 18.1997C48.7792 18.1792 48.7841 18.1582 48.7887 18.1377C48.8609 17.8255 48.9262 17.5189 48.9847 17.218C48.9896 17.1935 48.9942 17.1691 48.999 17.1448C49.0258 17.0046 49.0517 16.8653 49.0755 16.7278C49.0769 16.7204 49.0783 16.7131 49.0796 16.7059C49.1057 16.5562 49.13 16.4083 49.1529 16.2621C49.1552 16.2489 49.1567 16.236 49.159 16.2226C49.1788 16.094 49.1973 15.9667 49.2146 15.841C49.2178 15.8183 49.2209 15.7952 49.2241 15.7728C49.2615 15.4968 49.2927 15.2294 49.3185 14.9704C49.3205 14.95 49.3223 14.9301 49.3245 14.9097C49.3352 14.7969 49.3452 14.6858 49.3539 14.5767C49.3553 14.5592 49.3569 14.541 49.3583 14.5235C49.3678 14.3978 49.3764 14.2745 49.3835 14.1537C49.3835 14.1517 49.3835 14.1499 49.3835 14.1479C49.3904 14.0338 49.3953 13.9227 49.3994 13.8135C49.4003 13.7908 49.4011 13.7686 49.4018 13.7461C49.4053 13.6446 49.4078 13.545 49.4092 13.4479C49.4095 13.4387 49.4098 13.4293 49.4098 13.4203C49.4112 13.313 49.4112 13.2088 49.4104 13.1072C49.4106 13.0906 49.4101 13.0748 49.4098 13.0586Z" fill="#294561"/>
<g opacity="0.7">
<path d="M34.327 0.00941012C34.327 0.00941012 34.2477 0.0154493 34.0942 0.026966C34.0173 0.0330052 33.9221 0.0401683 33.8089 0.048876C33.6964 0.0632015 33.5662 0.0799146 33.4186 0.0987345C32.83 0.180755 31.9733 0.354909 30.9268 0.710239C29.8824 1.07119 28.6492 1.60671 27.3111 2.36274C25.97 3.11244 24.5252 4.07829 23.0324 5.2367C20.0516 7.5618 16.8936 10.6859 13.9971 14.4104C13.6301 14.8718 13.2816 15.3541 12.9207 15.8305C12.7465 16.0734 12.5718 16.3174 12.3962 16.5623L12.1335 16.9299L11.8779 17.3043C11.1869 18.2984 10.5335 19.3339 9.9012 20.3889C9.26695 21.4434 8.67974 22.5331 8.12539 23.6387C7.57203 24.7448 7.06109 25.873 6.61559 27.0169C6.16813 28.1597 5.77783 29.3162 5.47011 30.4711C5.16267 31.6251 4.93739 32.7797 4.83122 33.8939C4.79498 34.1742 4.79358 34.4461 4.77476 34.7196C4.76324 34.8571 4.76984 34.9889 4.76816 35.1225L4.76759 35.5208C4.79638 36.0371 4.82798 36.5479 4.93163 36.9986C4.9659 37.2357 5.04329 37.4367 5.09427 37.6517L5.20368 37.9416C5.22236 37.9885 5.23556 38.0406 5.25775 38.0834L5.3225 38.2112L5.38401 38.3393L5.41337 38.4035L5.44988 38.459C5.49848 38.5324 5.54398 38.6063 5.58738 38.6809C5.6944 38.8055 5.77993 38.9448 5.89538 39.0392C5.99215 39.1552 6.11981 39.2276 6.22613 39.3203C6.28975 39.3543 6.35043 39.3903 6.40857 39.4292C6.4354 39.4511 6.46897 39.4651 6.50324 39.478C6.53638 39.4918 6.5691 39.5063 6.60113 39.5216C6.63329 39.5366 6.66475 39.5526 6.69579 39.5693L6.80365 39.6022C6.8771 39.6223 6.9389 39.656 7.01713 39.6721C7.0962 39.6872 7.17316 39.7047 7.24915 39.7245C7.2851 39.7369 7.32864 39.7407 7.37148 39.7449L7.49844 39.7608C7.65785 39.795 7.85363 39.7844 8.02975 39.8014C8.12357 39.8016 8.22315 39.7939 8.31865 39.7924C8.41472 39.7901 8.50839 39.7915 8.61246 39.7759C8.71344 39.7658 8.81415 39.7553 8.91443 39.7452C9.01288 39.7403 9.12229 39.7115 9.22467 39.6969C9.32888 39.6793 9.43253 39.6618 9.53604 39.6445C9.6425 39.6195 9.74896 39.5946 9.85458 39.5699C10.7033 39.3702 11.5673 39.0542 12.3982 38.6809C13.2302 38.3045 14.0338 37.8805 14.7948 37.4215C16.3174 36.5042 17.6727 35.5007 18.8461 34.5464C20.0204 33.5888 21.012 32.6705 21.8258 31.8774C23.4574 30.2935 24.3783 29.2039 24.5697 29.0238C24.9346 28.6408 25.36 28.3506 25.8154 28.1424C26.2669 27.9304 26.7602 27.8118 27.2544 27.7746C28.2392 27.6989 29.2692 27.9778 30.0812 28.6622C30.8925 29.3464 31.3227 30.3191 31.3377 31.3656C31.3446 31.8873 31.2387 32.4178 31.0352 32.9352C30.8274 33.4492 30.5091 33.9397 30.093 34.3756C29.8737 34.5831 28.7329 35.7329 26.7076 37.386C25.6963 38.213 24.4657 39.1663 22.9962 40.1601C21.5247 41.1515 19.8228 42.1925 17.8425 43.1506C16.8522 43.6292 15.7833 44.0775 14.6319 44.473C13.4781 44.865 12.2354 45.2024 10.8654 45.39C10.6936 45.4119 10.5214 45.434 10.3488 45.4562C10.1724 45.4729 9.99193 45.4836 9.81314 45.4965C9.63183 45.5055 9.45852 45.5267 9.26976 45.5241C9.0838 45.5244 8.89729 45.525 8.71036 45.5253C8.52595 45.5291 8.33129 45.514 8.13789 45.5C7.94366 45.485 7.75223 45.4741 7.55574 45.4517C7.15491 45.3883 6.76292 45.3452 6.35127 45.2312L6.04566 45.1538C5.94412 45.1282 5.84299 45.1022 5.73949 45.0638C5.53373 44.9933 5.32854 44.9201 5.12447 44.8442C4.92068 44.7677 4.71745 44.661 4.51549 44.5666C4.41451 44.517 4.31381 44.4687 4.21409 44.4166L3.92056 44.2378L3.62955 44.0545C3.5325 43.9941 3.437 43.9308 3.34697 43.857C3.16397 43.7152 2.98322 43.5701 2.80527 43.4225C2.47058 43.1034 2.13239 42.7795 1.85978 42.4086C1.56246 42.0515 1.33718 41.6595 1.10952 41.2703C1.01162 41.0725 0.915839 40.8731 0.822583 40.6731L0.753764 40.5228L0.697585 40.3723L0.587334 40.07L0.480314 39.7667C0.445203 39.6654 0.423573 39.5658 0.395343 39.465C0.342957 39.2641 0.289165 39.0623 0.241975 38.8612C0.174982 38.4657 0.0897308 38.0619 0.0644504 37.6751C-0.0262782 36.8879 -0.00492971 36.1354 0.030182 35.3896L0.0814448 34.8405C0.100686 34.6581 0.113327 34.4727 0.143101 34.2954C0.198999 33.9391 0.241554 33.5756 0.317536 33.2286C0.587194 31.823 0.98817 30.4819 1.46555 29.1875C1.94391 27.8933 2.50106 26.6463 3.10948 25.438C3.71621 24.2289 4.38235 23.0633 5.08472 21.9351C5.78864 20.808 6.52051 19.7118 7.29269 18.6634C8.06318 17.6139 8.84968 16.5944 9.66764 15.6246L9.97073 15.2594L10.2804 14.902C10.4867 14.6648 10.6925 14.4282 10.8974 14.1926C11.319 13.7318 11.7269 13.2667 12.1521 12.8243C15.5143 9.25011 19.0625 6.34876 22.3402 4.25484C23.9821 3.21188 25.552 2.36456 26.9939 1.7282C28.4323 1.08579 29.7416 0.658976 30.8354 0.393111C31.9324 0.132722 32.8131 0.0391849 33.4112 0.0132022C33.5606 0.00828661 33.6929 0.00393251 33.8069 0C33.9207 0.00196626 34.0168 0.00379242 34.0942 0.00519689C34.2475 0.00772493 34.327 0.00941012 34.327 0.00941012Z" fill="url(#paint0_linear_4095_12922)"/>
<path d="M8.64703 44.2617C8.53791 44.2617 8.40378 44.2522 8.26137 44.2416L8.07022 44.2276C7.95477 44.219 7.83918 44.2112 7.72205 44.1985C7.64003 44.1856 7.55857 44.1735 7.47711 44.1615C7.18526 44.1183 6.93316 44.0811 6.68653 44.0127L6.35354 43.9282C6.28739 43.9115 6.21941 43.8942 6.17741 43.8785L6.14806 43.8681C5.952 43.8008 5.75664 43.7308 5.56212 43.6591C5.47209 43.6251 5.35425 43.5683 5.2294 43.5077C5.17266 43.4803 5.00258 43.3985 5.00258 43.3985C4.94584 43.3709 4.88896 43.3431 4.8325 43.3143L4.58376 43.1629L4.30119 42.9848C4.24711 42.9514 4.187 42.9126 4.14698 42.8797L4.11987 42.8584C3.96074 42.7347 3.80035 42.6066 3.64291 42.4765C3.3637 42.2102 3.07832 41.9351 2.87621 41.66L2.85346 41.6289L2.82902 41.5996C2.61203 41.339 2.42636 41.0213 2.2296 40.6847L2.22103 40.6704C2.13409 40.494 2.04898 40.3167 1.96626 40.1388L1.91963 40.0375L1.8796 39.9299L1.77286 39.6367L1.67006 39.3451C1.66022 39.3169 1.6525 39.2821 1.64337 39.2472C1.63354 39.2096 1.62385 39.1721 1.61317 39.1344L1.5959 39.0683C1.55587 38.9152 1.51556 38.7618 1.47905 38.6087C1.465 38.5276 1.45054 38.4461 1.43593 38.3647C1.38579 38.084 1.33832 37.8193 1.32343 37.5916L1.32118 37.5606L1.31767 37.5298C1.23706 36.8282 1.25869 36.1317 1.28916 35.4772L1.3372 34.964C1.34239 34.9128 1.34731 34.8612 1.35222 34.8095C1.3629 34.6962 1.37301 34.5893 1.38705 34.5059L1.38958 34.4908C1.40658 34.3833 1.42217 34.2753 1.4379 34.1671C1.47273 33.9277 1.50559 33.7014 1.55011 33.4983L1.55671 33.466C1.79323 32.2333 2.15066 30.9766 2.64925 29.6242C3.08618 28.4422 3.60555 27.2583 4.23616 26.0058C4.795 24.8926 5.42251 23.78 6.15579 22.6024C6.8951 21.4185 7.59944 20.3745 8.30827 19.4119C9.14351 18.2743 9.90305 17.3024 10.6314 16.4389L10.9327 16.0763L11.8384 15.0333C11.9703 14.8891 12.1009 14.7444 12.2312 14.6002C12.2888 14.5363 12.3458 14.4732 12.4024 14.4109C12.3536 14.4765 12.3048 14.5415 12.2565 14.6065C12.1422 14.7599 12.0274 14.9138 11.9114 15.0671L11.3672 15.8252L11.0874 16.2169L10.8318 16.5916C10.197 17.5048 9.5355 18.5371 8.81543 19.7385C8.20757 20.749 7.61152 21.8397 6.99369 23.0714C6.39356 24.2718 5.86955 25.4441 5.43585 26.5576C4.9523 27.7922 4.55202 29.0001 4.24697 30.1447C3.90793 31.4173 3.68111 32.6311 3.57297 33.7538C3.54446 33.9817 3.53463 34.1941 3.5255 34.3823C3.52171 34.4629 3.51777 34.5432 3.5123 34.624C3.5005 34.7719 3.50134 34.9021 3.50218 35.0073C3.50247 35.0407 3.50134 35.5545 3.50134 35.5545L3.50359 35.5904C3.53645 36.183 3.57353 36.7172 3.68715 37.2335C3.72198 37.4464 3.77353 37.6252 3.81552 37.7708C3.83195 37.8281 3.84895 37.8847 3.86271 37.9429L3.88139 38.0214L4.0224 38.3955C4.04459 38.4603 4.07759 38.5559 4.13349 38.6638L4.18672 38.7691L4.2377 38.8759L4.30301 39.018L4.3922 39.1535C4.42759 39.2068 4.46017 39.2594 4.49093 39.313L4.54992 39.4151L4.62674 39.5045C4.64809 39.5292 4.66761 39.5555 4.68741 39.5811C4.7634 39.6795 4.86269 39.8084 5.00201 39.9377C5.13207 40.0756 5.25819 40.1705 5.34681 40.2372C5.36325 40.2496 5.38024 40.2617 5.39597 40.2749L5.50482 40.3698L5.62967 40.4354C5.65046 40.4466 5.66914 40.4573 5.68669 40.4683C5.81534 40.5593 5.93683 40.6142 6.02826 40.6499C6.03809 40.6542 6.04806 40.6587 6.05761 40.6633C6.07053 40.6694 6.08402 40.6763 6.09736 40.6834L6.20649 40.7419L6.44356 40.8146C6.50423 40.8379 6.61715 40.8808 6.76181 40.9104L6.77614 40.9132C6.8201 40.9218 6.86336 40.9313 6.90591 40.942C7.04341 40.9817 7.15942 40.9944 7.22964 41.0013L7.29734 41.0097C7.47922 41.0426 7.64326 41.0483 7.77767 41.0534C7.82163 41.0548 7.86545 41.0556 7.90744 41.0597L7.96502 41.0652C7.96502 41.0652 8.02345 41.0654 8.02401 41.0654C8.10491 41.0654 8.17569 41.0626 8.24648 41.0597C8.27667 41.0583 8.30715 41.0567 8.33707 41.0565L8.3903 41.0553C8.48468 41.0536 8.61108 41.0515 8.76304 41.0309L9.01739 41.0051C9.14688 40.9958 9.25713 40.9749 9.33972 40.9595C9.3598 40.9558 9.37974 40.9515 9.39926 40.9486L9.78381 40.8844L10.1418 40.8004C11.0089 40.5964 11.9415 40.2712 12.9151 39.8337C13.783 39.4409 14.6336 38.994 15.4459 38.5038C16.8363 37.6661 18.2094 36.6924 19.6422 35.5271C20.6631 34.6945 21.6648 33.7976 22.706 32.7829C23.9136 31.6107 24.7356 30.7083 25.1776 30.2232C25.2849 30.1055 25.4064 29.972 25.441 29.9377L25.4665 29.9138L25.4835 29.8954C25.721 29.6461 26.0091 29.4428 26.3394 29.2916C26.6436 29.149 26.9884 29.062 27.3484 29.0349C27.4215 29.0292 27.4946 29.0263 27.5668 29.0263C28.2013 29.0263 28.8045 29.24 29.265 29.6284C29.7756 30.0588 30.0625 30.6824 30.0726 31.3837C30.077 31.7314 30.0049 32.0981 29.8576 32.4722C29.7139 32.8271 29.49 33.1707 29.1959 33.4827C29.1698 33.5077 29.1364 33.54 29.0958 33.5796C28.7389 33.9264 27.653 34.9816 25.907 36.4064C24.6797 37.41 23.4958 38.295 22.2869 39.1128C20.5769 40.2646 18.9422 41.2138 17.291 42.0126C16.2952 42.4938 15.2621 42.9195 14.2197 43.2775C12.9527 43.7081 11.8307 43.982 10.6926 44.1374L10.2088 44.1994C10.0977 44.2095 9.98465 44.2172 9.87173 44.2249L9.73507 44.2345C9.66892 44.238 9.60362 44.2428 9.53845 44.2477C9.44716 44.2543 9.36809 44.2603 9.30095 44.2603L8.64703 44.2617Z" fill="url(#paint1_linear_4095_12922)"/>
<path d="M8.64803 42.9975C8.58385 42.9975 8.46236 42.9887 8.35534 42.9808L8.1354 42.9646C8.05282 42.9589 7.97023 42.9531 7.88681 42.9447C7.81223 42.9332 7.73779 42.9222 7.66378 42.9113C7.40044 42.8724 7.19609 42.8419 7.02601 42.7947L6.66591 42.7031C6.6395 42.6965 6.61436 42.6905 6.59273 42.6844L6.57082 42.6767C6.3742 42.609 6.1881 42.5426 6.003 42.4741C5.96845 42.4606 5.84752 42.4019 5.78221 42.3707L5.53699 42.2524C5.50792 42.2378 5.47857 42.2236 5.4495 42.209L5.25062 42.0881L4.97633 41.9155C4.95821 41.904 4.94234 41.8944 4.9283 41.885L4.8967 41.8597C4.75878 41.753 4.62016 41.6422 4.48336 41.53C4.27761 41.3336 4.03295 41.0974 3.89629 40.9115L3.85079 40.8495L3.80191 40.7911C3.65627 40.6158 3.50094 40.3525 3.33661 40.0716C3.26063 39.9171 3.18634 39.7616 3.11358 39.6056L3.08915 39.5526L3.06527 39.4882L2.96218 39.205L2.87637 38.9615C2.87637 38.9615 2.86232 38.9066 2.85938 38.8948C2.89182 38.984 2.94112 39.108 3.01246 39.2456L3.05389 39.3276L3.09504 39.4134L3.19603 39.6334L3.33816 39.849C3.35979 39.8818 3.37959 39.9137 3.39827 39.946L3.51596 40.1495L3.66273 40.3204L3.68801 40.3533C3.77298 40.4633 3.91301 40.6449 4.11314 40.8356C4.3057 41.0345 4.48701 41.1711 4.58687 41.2463L4.59642 41.2534L4.78659 41.4194L5.01622 41.5404C5.17281 41.6451 5.3391 41.7332 5.52126 41.8078L5.71985 41.9142L6.03558 42.011C6.13024 42.0464 6.29864 42.1054 6.50987 42.1486C6.50987 42.1486 6.56886 42.1602 6.58417 42.164C6.78711 42.2204 6.95831 42.2435 7.08865 42.2569L7.11168 42.2599C7.36603 42.303 7.58513 42.3106 7.73274 42.3161L7.79945 42.3183L7.90338 42.3284L8.02543 42.329C8.12613 42.329 8.21391 42.3258 8.30169 42.3221L8.35576 42.3196L8.4177 42.3184C8.5205 42.3165 8.69592 42.3135 8.91011 42.2861L9.13032 42.264C9.32091 42.2489 9.47737 42.2196 9.57203 42.2017L9.5945 42.1974L9.58495 42.1988L10.034 42.1239L10.4317 42.0307C11.3775 41.8082 12.3876 41.4568 13.4346 40.9863C14.35 40.5721 15.2458 40.1014 16.1006 39.5856C17.5413 38.7177 18.9612 37.7107 20.4412 36.5073C21.4923 35.65 22.5218 34.7281 23.5897 33.688C24.8247 32.489 25.663 31.5686 26.1134 31.0741C26.2004 30.9786 26.2865 30.8841 26.3299 30.8379L26.3658 30.8045L26.4056 30.7614C26.5307 30.6313 26.6856 30.5236 26.8666 30.441C27.0402 30.3595 27.2367 30.3107 27.4452 30.2951C27.4871 30.2918 27.5277 30.2902 27.568 30.2902C27.905 30.2902 28.2184 30.3983 28.4516 30.5946C28.7415 30.8393 28.8065 31.1685 28.8099 31.4017C28.8124 31.5835 28.7696 31.7882 28.6826 32.0089C28.6047 32.2009 28.4697 32.4073 28.295 32.5969L28.2158 32.6737C27.8693 33.0101 26.8133 34.0362 25.1092 35.427C23.9119 36.4063 22.7576 37.269 21.58 38.0656C19.9211 39.1831 18.3379 40.1023 16.7417 40.8745C15.7909 41.3341 14.8044 41.7402 13.8103 42.0818C12.6242 42.485 11.5783 42.7403 10.5227 42.885L10.0734 42.9423C9.97904 42.9509 9.88326 42.9571 9.78761 42.9637L9.65868 42.9726C9.58734 42.9764 9.51711 42.9815 9.44689 42.9867C9.38847 42.991 9.34184 42.9957 9.30153 42.996L8.64803 42.9975Z" fill="white"/>
</g>
<path d="M12.5451 12.5153C11.3619 12.4966 10.7812 13.1251 10.7812 13.1251L8.83824 15.3103C8.45342 15.7429 8.46844 16.4513 8.48909 16.7072L8.77742 19.5549L15.8507 12.7709L12.5451 12.5153Z" fill="#8CACFF"/>
<path d="M9.60926 20.3541L11.5835 18.4609C11.7675 18.0006 11.9808 17.5558 12.2619 17.1522C13.1091 15.9348 14.0611 15.1656 15.2489 14.3018C14.6496 14.7375 15.2125 14.2989 15.3837 14.1251C15.393 14.1095 15.4032 14.0926 15.4149 14.0736C15.5287 13.8871 15.627 13.6917 15.7242 13.4961L13.3772 13.3146C12.1939 13.2959 11.6133 13.9246 11.6133 13.9246L9.67035 16.1098C9.28539 16.5422 9.30056 17.2508 9.32106 17.5067L9.60926 20.3541Z" fill="#FEFEFE"/>
<path d="M7.05327 28.8899C6.53614 29.5134 7.02041 28.9168 7.10678 28.7802C7.27167 28.52 7.43374 28.2569 7.57124 27.9808C7.60944 27.9039 7.73303 27.5966 7.75508 27.5523C7.90185 27.1286 8.0298 26.6987 8.14876 26.2664C8.49313 25.0156 8.82978 23.698 9.49044 22.5701C9.77597 22.0822 10.0975 21.6215 10.4241 21.1609C10.5549 20.9766 10.6963 20.7947 10.8035 20.5951C10.8526 20.5036 10.9703 20.2081 10.9833 20.1856C11.3391 19.1514 11.6383 18.0518 12.2647 17.1519C13.1119 15.9346 14.064 15.1653 15.2517 14.3016C14.6524 14.7372 15.2153 14.2986 15.3865 14.1249C15.3958 14.1093 15.4061 14.0923 15.4177 14.0734C15.678 13.6467 15.8579 13.1738 16.1267 12.7539C16.2774 12.5185 16.4375 12.2939 16.6045 12.0769C10.4139 14.1356 5.94922 19.9741 5.94922 26.8561C5.94922 27.9082 6.05427 28.936 6.25315 29.9295C6.49837 29.5672 6.7742 29.2263 7.05327 28.8899Z" fill="#FEFEFE"/>
<path d="M6.74182 19.0872C5.68693 19.8671 5.47949 20.9074 5.47949 20.9074L4.82472 24.4733C4.69495 25.1795 5.05295 25.8996 5.19522 26.15L6.83494 28.8916L9.78755 17.1184L6.74182 19.0872Z" fill="#FEFEFE"/>
<path d="M6.01067 20.5651C6.22991 20.6054 6.22752 21.6216 6.00449 22.835C5.7816 24.0486 5.42318 24.9995 5.20366 24.9592C4.98414 24.9189 5.09931 23.923 5.32234 22.7097C5.54537 21.4962 5.79101 20.5246 6.01067 20.5651Z" fill="#8CACFF"/>
<path d="M40.4466 27.7881L29.5195 35.3826L36.6681 42.5312L40.4466 27.7881Z" fill="#F1F2F2"/>
<path d="M36.668 42.5311L38.5316 35.2596L34.4688 40.332L36.668 42.5311Z" fill="url(#paint2_linear_4095_12922)"/>
<path opacity="0.2" d="M39.038 28.7667L29.5195 35.3825L31.8505 37.7133C34.1589 36.7398 36.7186 36.1601 38.3793 35.8544L39.9707 29.6448L39.038 28.7667Z" fill="#212A3C"/>
<path d="M31.2822 18.624L23.6875 29.5512L16.5391 22.4025L31.2822 18.624Z" fill="#F1F2F2"/>
<path d="M16.5391 22.4023L23.8106 20.5386L18.7382 24.6014L16.5391 22.4023Z" fill="url(#paint3_linear_4095_12922)"/>
<path opacity="0.2" d="M30.3022 20.0318L23.6863 29.5506L21.3555 27.2195C22.329 24.9111 22.9088 22.3513 23.2144 20.6907L29.4241 19.0991L30.3022 20.0318Z" fill="#212A3C"/>
<path d="M28.5223 36.1827C31.1101 35.6768 34.146 33.9729 36.8032 31.316C41.464 26.6551 41.4062 19.0406 40.667 18.3013C39.9274 17.5617 32.3132 17.504 27.6522 22.1647C24.9949 24.822 23.2912 27.858 22.7852 30.4456L28.5223 36.1827Z" fill="#F1F2F2"/>
<path d="M30.9928 36.8555C34.9976 36.0723 39.6965 33.4353 43.8091 29.3226C51.0223 22.1094 50.9331 10.3246 49.7886 9.18041C48.644 8.03591 36.8595 7.94658 29.6461 15.1599C25.5336 19.2724 22.8964 23.971 22.1133 27.9763L30.9928 36.8555Z" fill="#F1F2F2"/>
<path d="M37.2578 10.3562L48.6124 21.7107C50.8633 15.7999 50.5758 9.96869 49.7881 9.18065C49 8.39232 43.1685 8.10496 37.2578 10.3562Z" fill="url(#paint4_linear_4095_12922)"/>
<path d="M45.1172 8.64771L50.3216 13.8521C50.4757 11.3883 50.2012 9.59292 49.7889 9.18057C49.3764 8.76808 47.581 8.4935 45.1172 8.64771Z" fill="url(#paint5_linear_4095_12922)"/>
<path d="M25.5023 20.2074C23.747 22.8618 22.5884 25.5469 22.1133 27.9766L30.9928 36.8558C33.4223 36.3807 36.1073 35.222 38.7617 33.467L25.5023 20.2074Z" fill="url(#paint6_linear_4095_12922)"/>
<path d="M29.6463 15.1603C29.4844 15.3224 29.3254 15.4855 29.168 15.6492L43.3202 29.8014C43.484 29.6439 43.6472 29.4851 43.8093 29.323C44.5227 28.6095 45.164 27.8506 45.7407 27.0621L31.9072 13.2286C31.1189 13.8055 30.3599 14.4466 29.6463 15.1603Z" fill="url(#paint7_linear_4095_12922)"/>
<path d="M42.1296 26.0309C39.5915 28.5688 35.4766 28.5688 32.9387 26.0309C30.4006 23.4927 30.4007 19.3781 32.9387 16.8399C35.4766 14.302 39.5915 14.3018 42.1296 16.8399C44.6676 19.3778 44.6676 23.493 42.1296 26.0309Z" fill="url(#paint8_linear_4095_12922)"/>
<path d="M37.5333 26.699C40.4405 26.699 42.7971 24.3423 42.7971 21.4352C42.7971 18.5281 40.4405 16.1714 37.5333 16.1714C34.6262 16.1714 32.2695 18.5281 32.2695 21.4352C32.2695 24.3423 34.6262 26.699 37.5333 26.699Z" fill="#F1F2F2"/>
<path d="M40.377 24.2775C38.8072 25.8471 36.2626 25.8471 34.693 24.2775C33.1232 22.7075 33.1232 20.1631 34.693 18.5934C36.2626 17.0237 38.8073 17.0235 40.377 18.5932C41.9466 20.1628 41.9465 22.7078 40.377 24.2775Z" fill="#27AAE1"/>
<path opacity="0.4" d="M40.3768 18.5932C40.1643 18.3806 39.9335 18.1981 39.6902 18.0432H35.3796C35.1362 18.1983 34.9053 18.3808 34.6928 18.5935C33.9827 19.3034 33.5952 20.2127 33.5273 21.1416H41.5421C41.4744 20.2131 41.0866 19.3034 40.3768 18.5932Z" fill="white"/>
<path opacity="0.4" d="M41.5506 21.5959H33.5195C33.5513 22.3949 33.8204 23.1855 34.326 23.8549H40.7437C41.2497 23.1857 41.5187 22.3951 41.5506 21.5959Z" fill="white"/>
<path d="M41.4872 12.1952C41.3017 12.0097 41.001 12.0097 40.8155 12.1951C40.6299 12.3807 40.6299 12.6816 40.8153 12.8671C41.001 13.0526 41.3018 13.0525 41.4875 12.8671C41.673 12.6816 41.673 12.3807 41.4872 12.1952ZM44.1151 14.823C43.9296 14.6376 43.6289 14.6376 43.4434 14.823C43.2578 15.0083 43.2577 15.3093 43.4432 15.4947C43.6288 15.6804 43.9297 15.6802 44.1153 15.4947C44.3008 15.3093 44.3008 15.0083 44.1151 14.823ZM46.743 17.4507C46.5575 17.2652 46.2567 17.2652 46.0711 17.4507C45.8856 17.6362 45.8856 17.9372 46.071 18.1226C46.2567 18.3083 46.5575 18.308 46.743 18.1226C46.9284 17.9371 46.9284 17.6362 46.743 17.4507ZM25.9868 22.4402C25.8012 22.2546 25.5005 22.2546 25.3149 22.4402C25.1295 22.6256 25.1293 22.9266 25.3149 23.112C25.5005 23.2974 25.8013 23.2974 25.9868 23.112C26.1722 22.9266 26.1722 22.6256 25.9868 22.4402ZM28.6146 25.0678C28.4291 24.8825 28.1282 24.8825 27.9427 25.0678C27.7573 25.2532 27.7573 25.5542 27.9427 25.7396C28.1282 25.9253 28.4291 25.9253 28.6146 25.7396C28.8 25.5542 28.8001 25.2535 28.6146 25.0678ZM31.2423 27.6957C31.0568 27.5101 30.756 27.5101 30.5704 27.6957C30.3851 27.8811 30.3851 28.1821 30.5704 28.3675C30.756 28.5532 31.057 28.5532 31.2425 28.3675C31.4279 28.1821 31.4279 27.8811 31.2423 27.6957ZM33.8702 30.3236C33.6847 30.138 33.3837 30.138 33.1982 30.3234C33.0128 30.5088 33.0128 30.81 33.1982 30.9954C33.3839 31.1808 33.6847 31.1808 33.8702 30.9954C34.0556 30.81 34.0558 30.509 33.8702 30.3236ZM36.4981 32.9513C36.3126 32.7659 36.0116 32.7659 35.8261 32.9513C35.6407 33.1367 35.6407 33.4379 35.8261 33.6233C36.0118 33.8087 36.3126 33.8087 36.4981 33.6233C36.6835 33.4379 36.6835 33.1369 36.4981 32.9513Z" fill="#F1F2F2"/>
<path opacity="0.2" d="M43.8089 29.3225C45.1929 27.9385 46.3074 26.386 47.1979 24.7727C43.5547 27.3661 30.9523 35.2058 22.5143 26.3755C22.3498 26.9189 22.2152 27.4536 22.1133 27.976L30.9927 36.8552C34.9974 36.0721 39.6964 33.4352 43.8089 29.3225Z" fill="#212A3C"/>
<path opacity="0.7" d="M43.4457 13.7938C40.6419 14.4112 38.1757 14.0327 37.9366 12.9482C37.6979 11.8638 39.7769 10.4839 42.5804 9.86651C45.3838 9.24868 47.8502 9.62747 48.0894 10.712C48.3283 11.7962 46.249 13.176 43.4457 13.7938Z" fill="white"/>
<path opacity="0.7" d="M35.0126 14.7997C33.9136 15.1605 32.8758 15.0076 32.695 14.4576C32.5141 13.9076 33.2589 13.1687 34.3579 12.8076C35.4571 12.4464 36.4948 12.5995 36.6756 13.1495C36.8565 13.6993 36.1117 14.4382 35.0126 14.7997Z" fill="white"/>
<path d="M76.1583 22.3512C77.8797 22.9603 78.7404 24.3639 78.7404 26.5619V31.1699C78.7404 34.6657 77.0984 36.4135 73.8146 36.4135H63.6055V10.712H73.4968C76.7806 10.712 78.4226 12.4599 78.4226 15.9556V18.2993C78.4226 20.4179 77.6678 21.7686 76.1583 22.3512ZM72.1064 14.4858H69.1668V21.3581H72.1064C72.3183 21.3581 72.4904 21.2786 72.6228 21.1197C72.7817 20.9608 72.8612 20.7755 72.8612 20.5636V15.2803C72.8612 15.0684 72.7817 14.883 72.6228 14.7241C72.4904 14.5652 72.3183 14.4858 72.1064 14.4858ZM73.179 31.8055V26.0455C73.179 25.8337 73.0995 25.6483 72.9406 25.4894C72.8082 25.3305 72.6361 25.251 72.4242 25.251H69.1668V32.6H72.4242C72.6361 32.6 72.8082 32.5206 72.9406 32.3617C73.0995 32.2028 73.179 32.0174 73.179 31.8055Z" fill="white"/>
<path d="M87.7404 14.605C87.1842 15.1611 86.5089 15.4392 85.7144 15.4392C84.92 15.4392 84.2314 15.1611 83.6488 14.605C83.0662 14.0224 82.7748 13.3338 82.7748 12.5393C82.7748 11.7184 83.0662 11.0298 83.6488 10.4737C84.2314 9.89104 84.92 9.59973 85.7144 9.59973C86.5089 9.59973 87.1842 9.89104 87.7404 10.4737C88.323 11.0298 88.6143 11.7184 88.6143 12.5393C88.6143 13.3603 88.323 14.0488 87.7404 14.605ZM83.0529 36.4135V17.0281H88.376V36.4135H83.0529Z" fill="white"/>
<path d="M99.1846 33.3548H100.774V36.8108H97.0395C93.7557 36.8108 92.1137 35.0629 92.1137 31.5672V12.8174H97.4368V17.0281H100.774V20.8814H97.4368V31.448C97.4368 32.1895 97.5824 32.6927 97.8737 32.9575C98.1651 33.2224 98.602 33.3548 99.1846 33.3548Z" fill="white"/>
<path d="M109.318 16.6309C110.668 16.6309 111.754 16.9487 112.575 17.5843V10.712H117.898V36.4135H113.409V34.9835C112.588 36.2017 111.224 36.8108 109.318 36.8108H108.484C105.2 36.8108 103.558 35.0629 103.558 31.5672V21.8745C103.558 18.3788 105.2 16.6309 108.484 16.6309H109.318ZM112.575 32.2028V21.2389C112.575 21.027 112.496 20.8417 112.337 20.6828C112.204 20.5239 112.032 20.4444 111.82 20.4444H109.636C109.424 20.4444 109.238 20.5239 109.079 20.6828C108.947 20.8417 108.881 21.027 108.881 21.2389V32.2028C108.881 32.4146 108.947 32.6 109.079 32.7589C109.238 32.9178 109.424 32.9972 109.636 32.9972H111.82C112.032 32.9972 112.204 32.9178 112.337 32.7589C112.496 32.6 112.575 32.4146 112.575 32.2028Z" fill="white"/>
<path d="M129.782 16.6309H130.814V21.795H128.193C127.292 21.795 126.842 22.2585 126.842 23.1854V36.4135H121.519V17.0281H126.365V18.8952C127.133 17.3857 128.272 16.6309 129.782 16.6309Z" fill="white"/>
<path d="M142.61 16.6309C145.894 16.6309 147.536 18.3788 147.536 21.8745V28.1509H138.519V32.2028C138.519 32.4146 138.585 32.6 138.717 32.7589C138.876 32.9178 139.062 32.9972 139.273 32.9972H141.458C141.67 32.9972 141.842 32.9178 141.975 32.7589C142.134 32.6 142.213 32.4146 142.213 32.2028V30.0577H147.536V31.5672C147.536 35.0629 145.894 36.8108 142.61 36.8108H138.121C134.838 36.8108 133.196 35.0629 133.196 31.5672V21.8745C133.196 18.3788 134.838 16.6309 138.121 16.6309H142.61ZM138.519 24.6552H142.213V21.08C142.213 20.8681 142.134 20.6828 141.975 20.5239C141.842 20.365 141.67 20.2855 141.458 20.2855H139.273C139.062 20.2855 138.876 20.365 138.717 20.5239C138.585 20.6828 138.519 20.8681 138.519 21.08V24.6552Z" fill="white"/>
<path d="M160.31 17.0281H164.799V36.4135H160.31V34.9835C159.489 36.2017 158.125 36.8108 156.219 36.8108H155.384C152.101 36.8108 150.459 35.0629 150.459 31.5672V21.8745C150.459 18.3788 152.101 16.6309 155.384 16.6309H156.219C158.125 16.6309 159.489 17.24 160.31 18.4582V17.0281ZM159.476 32.2028V21.2389C159.476 21.027 159.397 20.8417 159.238 20.6828C159.105 20.5239 158.933 20.4444 158.721 20.4444H156.536C156.325 20.4444 156.139 20.5239 155.98 20.6828C155.848 20.8417 155.782 21.027 155.782 21.2389V32.2028C155.782 32.4146 155.848 32.6 155.98 32.7589C156.139 32.9178 156.325 32.9972 156.536 32.9972H158.721C158.933 32.9972 159.105 32.9178 159.238 32.7589C159.397 32.6 159.476 32.4146 159.476 32.2028Z" fill="white"/>
<path d="M185.898 16.6309C189.182 16.6309 190.824 18.3788 190.824 21.8745V36.4135H185.501V21.2389C185.501 21.027 185.422 20.8417 185.263 20.6828C185.13 20.5239 184.958 20.4444 184.746 20.4444H183.038C182.826 20.4444 182.641 20.5239 182.482 20.6828C182.35 20.8417 182.284 21.027 182.284 21.2389V36.4135H176.96V21.2389C176.96 21.027 176.881 20.8417 176.722 20.6828C176.59 20.5239 176.418 20.4444 176.206 20.4444H174.498C174.286 20.4444 174.1 20.5239 173.941 20.6828C173.809 20.8417 173.743 21.027 173.743 21.2389V36.4135H168.42V17.0281H173.266V18.0212C174.087 17.0944 175.332 16.6309 177 16.6309H177.358C179.317 16.6309 180.681 17.24 181.449 18.4582C182.27 17.24 183.634 16.6309 185.541 16.6309H185.898Z" fill="white"/>
<path d="M203.819 24.2579C207.103 24.2579 208.745 26.0058 208.745 29.5015V31.5672C208.745 35.0629 207.103 36.8108 203.819 36.8108H199.41C196.126 36.8108 194.484 35.0629 194.484 31.5672V30.3357H199.41V32.0836C199.41 32.2955 199.476 32.4808 199.609 32.6397C199.767 32.7986 199.953 32.8781 200.165 32.8781H203.422C203.634 32.8781 203.806 32.7986 203.938 32.6397C204.097 32.4808 204.177 32.2955 204.177 32.0836V29.7001C204.177 29.4883 204.097 29.3029 203.938 29.144C203.806 28.9851 203.634 28.9057 203.422 28.9057H199.33C196.047 28.9057 194.405 27.1578 194.405 23.6621V21.8745C194.405 18.3788 196.047 16.6309 199.33 16.6309H203.501C206.785 16.6309 208.427 18.3788 208.427 21.8745V22.5895H203.501V21.3581C203.501 21.1462 203.422 20.9608 203.263 20.8019C203.131 20.643 202.959 20.5636 202.747 20.5636H199.728C199.516 20.5636 199.33 20.643 199.172 20.8019C199.039 20.9608 198.973 21.1462 198.973 21.3581V23.4635C198.973 23.6753 199.039 23.8607 199.172 24.0196C199.33 24.1785 199.516 24.2579 199.728 24.2579H203.819Z" fill="white"/>
<defs>
<linearGradient id="paint0_linear_4095_12922" x1="0" y1="22.7629" x2="34.327" y2="22.7629" gradientUnits="userSpaceOnUse">
<stop stop-color="#2CF2D4"/>
<stop offset="1" stop-color="#823CFC"/>
</linearGradient>
<linearGradient id="paint1_linear_4095_12922" x1="1.26172" y1="29.3363" x2="30.0728" y2="29.3363" gradientUnits="userSpaceOnUse">
<stop stop-color="#2CF2D4"/>
<stop offset="1" stop-color="#823CFC"/>
</linearGradient>
<linearGradient id="paint2_linear_4095_12922" x1="34.4688" y1="38.8954" x2="38.5316" y2="38.8954" gradientUnits="userSpaceOnUse">
<stop stop-color="#2CF2D4"/>
<stop offset="1" stop-color="#823CFC"/>
</linearGradient>
<linearGradient id="paint3_linear_4095_12922" x1="16.5391" y1="22.57" x2="23.8106" y2="22.57" gradientUnits="userSpaceOnUse">
<stop stop-color="#2CF2D4"/>
<stop offset="1" stop-color="#823CFC"/>
</linearGradient>
<linearGradient id="paint4_linear_4095_12922" x1="37.2578" y1="15.1571" x2="50.3649" y2="15.1571" gradientUnits="userSpaceOnUse">
<stop stop-color="#2CF2D4"/>
<stop offset="1" stop-color="#823CFC"/>
</linearGradient>
<linearGradient id="paint5_linear_4095_12922" x1="45.1172" y1="11.2282" x2="50.365" y2="11.2282" gradientUnits="userSpaceOnUse">
<stop stop-color="#2CF2D4"/>
<stop offset="1" stop-color="#823CFC"/>
</linearGradient>
<linearGradient id="paint6_linear_4095_12922" x1="22.1133" y1="28.5316" x2="38.7617" y2="28.5316" gradientUnits="userSpaceOnUse">
<stop stop-color="#2CF2D4"/>
<stop offset="1" stop-color="#823CFC"/>
</linearGradient>
<linearGradient id="paint7_linear_4095_12922" x1="29.168" y1="21.515" x2="45.7407" y2="21.515" gradientUnits="userSpaceOnUse">
<stop stop-color="#2CF2D4"/>
<stop offset="1" stop-color="#823CFC"/>
</linearGradient>
<linearGradient id="paint8_linear_4095_12922" x1="31.0352" y1="21.4353" x2="44.0331" y2="21.4353" gradientUnits="userSpaceOnUse">
<stop stop-color="#2CF2D4"/>
<stop offset="1" stop-color="#823CFC"/>
</linearGradient>
</defs>
</svg>
