<svg width="158" height="48" viewBox="0 0 158 48" fill="none" xmlns="http://www.w3.org/2000/svg">
<path d="M43.1693 33.7048L37.8068 33.6906L38.39 30.3633L43.3115 30.3776C44.0133 30.3776 44.6581 30.2543 45.246 30.0079C45.8339 29.7519 46.3176 29.3822 46.6969 28.8988C47.0762 28.4153 47.318 27.8087 47.4223 27.0788C47.5171 26.4626 47.4839 25.9081 47.3227 25.4152C47.1615 24.9222 46.877 24.5241 46.4693 24.2208C46.0615 23.9174 45.5352 23.7515 44.8904 23.7231L41.0073 23.7089L37.9918 41.0702H33.8241L37.4086 20.3674L45.0184 20.3817C46.3365 20.4101 47.5124 20.6945 48.546 21.2348C49.5796 21.7656 50.3762 22.524 50.9356 23.5098C51.5046 24.4862 51.7322 25.6664 51.6184 27.0503C51.4951 28.5575 51.0257 29.8041 50.2102 30.7899C49.3947 31.7758 48.3658 32.5104 47.1236 32.9938C45.8908 33.4678 44.5727 33.7048 43.1693 33.7048Z" fill="white"/>
<path d="M70.4368 30.1643L70.323 31.1596C70.1334 32.4867 69.7778 33.7664 69.2562 34.9987C68.7347 36.231 68.0519 37.3306 67.2079 38.2975C66.364 39.2549 65.3588 40.0133 64.1924 40.5725C63.0356 41.1223 61.7222 41.383 60.2524 41.3546C58.8489 41.3261 57.6589 41.0228 56.6821 40.4446C55.7149 39.8568 54.9468 39.0795 54.3779 38.1127C53.8184 37.1458 53.4438 36.0699 53.2542 34.885C53.0645 33.6906 53.0455 32.4677 53.1973 31.2165L53.3111 30.2354C53.5007 28.9083 53.8563 27.6333 54.3779 26.4105C54.9089 25.1877 55.5964 24.0975 56.4403 23.1401C57.2938 22.1732 58.299 21.4149 59.4558 20.8651C60.6222 20.3153 61.9308 20.0546 63.3817 20.0831C64.7851 20.102 65.9705 20.4054 66.9377 20.9931C67.9144 21.5713 68.6825 22.3439 69.242 23.3108C69.8109 24.2682 70.1903 25.3441 70.3799 26.5385C70.5696 27.7234 70.5885 28.932 70.4368 30.1643ZM66.0985 31.2165L66.2407 30.1927C66.3166 29.5481 66.3545 28.8514 66.3545 28.1025C66.364 27.3442 66.2786 26.619 66.0985 25.927C65.9183 25.2256 65.5959 24.6521 65.1312 24.2065C64.6761 23.7515 64.017 23.5051 63.1541 23.4672C62.2248 23.4387 61.4282 23.6236 60.7645 24.0217C60.1101 24.4198 59.5602 24.9601 59.1145 25.6427C58.6783 26.3157 58.3321 27.0551 58.0761 27.8608C57.8296 28.6571 57.6494 29.4391 57.5356 30.2069L57.4076 31.2307C57.3222 31.8658 57.2748 32.5673 57.2653 33.3351C57.2653 34.0934 57.3554 34.8233 57.5356 35.5248C57.7158 36.2168 58.0382 36.7903 58.5028 37.2453C58.9675 37.7003 59.6313 37.9468 60.4942 37.9847C61.414 38.0131 62.2011 37.8235 62.8554 37.4159C63.5192 37.0083 64.0739 36.468 64.5196 35.795C64.9653 35.1125 65.3161 34.3731 65.5722 33.5768C65.8282 32.7711 66.0036 31.9843 66.0985 31.2165Z" fill="white"/>
<path d="M75.1307 20.3674L82.4277 20.3817C83.6889 20.4006 84.8315 20.6329 85.8557 21.0784C86.8893 21.5239 87.6906 22.1922 88.2595 23.0833C88.838 23.9743 89.0798 25.1071 88.985 26.4816C88.8901 27.6096 88.6151 28.5623 88.16 29.3396C87.7143 30.1169 87.1121 30.7757 86.3535 31.316C85.6044 31.8563 84.7414 32.3208 83.7647 32.7095L82.3139 33.4062H75.5717L76.1406 30.079L80.7777 30.1074C81.4699 30.0979 82.1005 29.9652 82.6695 29.7093C83.2384 29.4533 83.7078 29.0836 84.0777 28.6002C84.457 28.1073 84.694 27.5101 84.7889 26.8086C84.8742 26.1925 84.8315 25.6569 84.6608 25.2019C84.4996 24.7469 84.2199 24.3914 83.8216 24.1355C83.4234 23.8795 82.916 23.7421 82.2997 23.7231L78.7294 23.7089L75.7139 41.0702H71.5463L75.1307 20.3674ZM82.8828 41.0702L79.8958 31.8421L84.0919 31.8137L87.3207 40.8427V41.0702H82.8828Z" fill="white"/>
<path d="M101.417 20.3674L97.8323 41.0702H93.6647L97.2633 20.3674H101.417ZM107.59 20.3674L107.007 23.7089H90.6065L91.1897 20.3674H107.59Z" fill="white"/>
<path d="M114.361 20.3674L110.776 41.0702H106.609L110.207 20.3674H114.361Z" fill="white"/>
<path d="M129.31 20.3674H133.464L131.131 34.0318C130.913 35.5675 130.405 36.8898 129.609 37.9989C128.822 39.0985 127.807 39.9422 126.565 40.5299C125.332 41.1081 123.943 41.3878 122.397 41.3688C120.956 41.3404 119.699 41.0275 118.628 40.4303C117.566 39.8237 116.769 38.98 116.238 37.8994C115.707 36.8093 115.532 35.5248 115.712 34.046L118.045 20.3674H122.198L119.88 34.0603C119.794 34.7712 119.818 35.4253 119.951 36.0225C120.093 36.6102 120.377 37.0889 120.804 37.4586C121.24 37.8188 121.857 38.0084 122.653 38.0273C123.497 38.0558 124.218 37.9041 124.815 37.5723C125.413 37.2406 125.892 36.7713 126.252 36.1647C126.612 35.5485 126.854 34.8423 126.977 34.046L129.31 20.3674Z" fill="white"/>
<path d="M138.812 20.3674H142.197L144.715 35.5248L152.495 20.3674H156.165L145.326 41.0702H142.482L138.812 20.3674ZM136.835 20.3674H140.362L138.413 35.3684L137.404 41.0702H133.25L136.835 20.3674ZM154.458 20.3674H158L154.416 41.0702H150.234L151.3 35.0129L154.458 20.3674Z" fill="white"/>
<path d="M3.37075 48C2.90436 48 2.41676 47.9152 1.90797 47.7457C1.39918 47.5762 0.953985 47.2795 0.572391 46.8556C0.190797 46.4742 0 46.1139 0 45.7748C0 45.5629 0.0847987 45.351 0.254396 45.1391C0.381594 44.9272 0.529992 44.7152 0.699589 44.5033C1.08118 44.0371 1.80197 43.4013 2.86196 42.596C3.92194 41.8331 5.13032 40.9642 6.4871 39.9894L4.70633 41.6424C4.53673 41.8119 4.36713 42.045 4.19753 42.3417C4.07034 42.6808 4.09154 42.7656 4.26113 42.596C4.64273 42.1298 5.53311 41.3457 6.93229 40.2437C8.33147 39.0993 9.81545 37.9338 11.3842 36.747L6.4871 39.9894C7.92868 38.8874 9.41265 37.7854 10.939 36.6834C12.4654 35.5815 13.8434 34.5854 15.073 33.6954C16.3449 32.8053 17.2777 32.1907 17.8713 31.8517C17.9137 31.8093 17.9773 31.7881 18.0621 31.7881C18.2317 31.7881 18.3165 31.8517 18.3165 31.9788C18.3165 32.1483 18.1469 32.2967 17.8077 32.4238C17.2989 32.6358 16.4297 33.1656 15.2002 34.0132C14.013 34.8185 12.741 35.7298 11.3842 36.747C13.0378 35.645 14.6066 34.649 16.0906 33.7589C17.6169 32.8265 18.7829 32.1272 19.5885 31.6609C19.0797 31.3219 18.2529 30.9404 17.1081 30.5166C15.9634 30.0927 14.649 29.5841 13.165 28.9907C11.7234 28.355 10.2394 27.6132 8.71307 26.7656C7.22909 25.9179 5.91471 24.9219 4.76993 23.7775C4.21873 23.2689 3.81594 22.7391 3.56154 22.1881C3.34955 21.5947 3.24355 21.0225 3.24355 20.4715C3.24355 19.1576 3.77354 17.8013 4.83353 16.4026C5.93591 15.004 7.37749 13.6265 9.15826 12.2702C10.9814 10.9139 12.953 9.64238 15.073 8.45563C16.0905 7.90464 17.1293 7.37483 18.1893 6.86622C19.2917 6.31523 20.3729 5.80662 21.4329 5.3404C20.2457 5.76424 19.0797 6.20927 17.9349 6.6755C16.7901 7.14172 15.6878 7.62914 14.6278 8.13775C14.5854 8.18013 14.543 8.20132 14.5006 8.20132C14.4582 8.20132 14.437 8.20132 14.437 8.20132L15.5818 7.50199C17.8289 6.4 20.0973 5.44636 22.3869 4.64106C24.7188 3.79338 26.9236 3.05165 29.0011 2.41589C27.7716 2.79735 26.5208 3.24238 25.2488 3.75099C23.9768 4.21722 22.7048 4.74702 21.4329 5.3404C23.9344 4.45033 26.436 3.68742 28.9375 3.05165C31.4815 2.37351 33.8347 1.8649 35.997 1.52583C38.1594 1.14437 39.9402 0.93245 41.3394 0.890066C42.1449 0.847683 42.5477 0.741722 42.5477 0.572186C42.5477 0.445032 42.3357 0.381456 41.9118 0.381456C40.4702 0.423839 38.7318 0.572184 36.6966 0.826491C34.6615 1.08079 32.4567 1.50464 30.0823 2.09801C32.3295 1.46225 34.4495 0.953643 36.4422 0.572186C38.4774 0.190729 40.237 0 41.721 0C42.4841 0 43.1837 0.0635766 43.8197 0.19073C44.3709 0.275497 44.8585 0.635761 45.2825 1.27152C45.7065 1.8649 46.0881 2.56424 46.4273 3.36953C46.7665 4.13245 46.9997 4.85298 47.1269 5.53113L47.1905 5.3404C47.3601 5.04371 47.4661 4.78941 47.5085 4.57749C47.5509 4.32318 47.6357 4.09007 47.7629 3.87814C47.8477 3.75099 48.0385 3.92053 48.3353 4.38676C48.6744 4.85298 48.9712 5.38278 49.2256 5.97616C49.5224 6.56953 49.6284 7.07815 49.5436 7.50199C49.4164 8.2649 49.0136 9.11258 48.3353 10.045C47.6569 10.9351 46.8513 11.804 45.9185 12.6517C45.0281 13.4993 44.1165 14.1987 43.1837 14.7497C42.2933 15.3007 41.509 15.5762 40.8306 15.5762C40.661 15.5762 40.449 15.5338 40.1946 15.449C40.7034 15.0252 41.1698 14.5801 41.5938 14.1139C42.0177 13.6477 42.4205 13.1815 42.8021 12.7152C41.191 14.1563 39.3678 15.5338 37.3326 16.8477C35.3399 18.1192 33.4319 19.1576 31.6087 19.9629C29.7855 20.7682 28.344 21.1709 27.284 21.1709C26.7328 21.1709 26.4572 21.0649 26.4572 20.853C26.4572 20.6411 26.6904 20.3868 27.1568 20.0901C27.6232 19.751 27.9624 19.5179 28.1744 19.3907C29.1919 18.9245 30.4427 18.1616 31.9267 17.102C33.4531 16.0424 35.0007 14.8768 36.5694 13.6053C38.1382 12.2914 39.5162 11.0411 40.7034 9.8543C41.9329 8.62516 42.7597 7.62914 43.1837 6.86622C43.2261 6.44238 42.9081 6.14569 42.2297 5.97616C41.5514 5.80662 40.661 5.72185 39.5586 5.72185C38.1594 5.72185 36.4634 5.8702 34.4707 6.16689C32.5203 6.46357 30.4639 6.88741 28.3016 7.43841C26.1392 7.9894 24.0616 8.64636 22.0689 9.40927C20.0761 10.1722 18.3377 11.0411 16.8537 12.0159C15.8362 12.5669 14.8186 13.2662 13.801 14.1139C12.7834 14.9192 11.9354 15.7881 11.257 16.7205C10.5786 17.653 10.2394 18.5642 10.2394 19.4543C10.2394 20.1748 10.5574 20.853 11.1934 21.4887C12.8894 23.0146 14.7126 24.2861 16.6629 25.3033C18.6557 26.3205 20.4789 27.2318 22.1325 28.0371C23.8284 28.8 25.058 29.6053 25.8212 30.453C26.0332 30.6649 26.1816 30.9828 26.2664 31.4066C26.3936 31.8305 26.4572 32.2755 26.4572 32.7417C26.4572 33.547 26.33 34.3099 26.0756 35.0305C25.8212 35.751 25.4608 36.1536 24.9944 36.2384C21.4329 36.9589 18.3801 37.8278 15.8362 38.845C13.3346 39.8623 11.2994 40.8583 9.73065 41.8331C8.16187 42.8079 6.99589 43.6132 6.2327 44.249C5.51191 44.8848 5.10912 45.1815 5.02432 45.1391C5.36352 45.6053 5.53311 46.0503 5.53311 46.4742C5.53311 46.9404 5.32112 47.3007 4.89712 47.555C4.47313 47.8517 3.96434 48 3.37075 48ZM29.0011 2.41589L29.2555 2.35232H29.3827L29.5735 2.28874L29.7007 2.22517C29.8279 2.18278 29.8915 2.16159 29.8915 2.16159C29.8915 2.16159 29.9551 2.1404 30.0823 2.09801C30.0823 2.09801 30.0611 2.09801 30.0187 2.09801C30.0187 2.09801 29.9127 2.1404 29.7007 2.22517C29.6583 2.22517 29.6159 2.24636 29.5735 2.28874C29.4887 2.28874 29.4251 2.30993 29.3827 2.35232C29.3403 2.35232 29.2979 2.37351 29.2555 2.41589C29.2131 2.41589 29.2131 2.3947 29.2555 2.35232C29.1707 2.3947 29.0859 2.41589 29.0011 2.41589Z" fill="white"/>
</svg>
