<svg width="106" height="48" viewBox="0 0 106 48" fill="none" xmlns="http://www.w3.org/2000/svg">
<path d="M26.9146 47.3468L26.3524 47.3667C25.5333 47.3704 24.7735 47.2243 24.073 46.9285C23.3725 46.6326 22.7912 46.2107 22.3291 45.6628C21.8662 45.1054 21.6023 44.4535 21.5375 43.7072C21.4851 43.1044 21.5792 42.4118 21.8197 41.6293C22.0594 40.8373 22.4019 40.0074 22.8471 39.1397C23.2923 38.272 23.8101 37.4076 24.4005 36.5466C24.9996 35.6752 25.6311 34.8443 26.2952 34.054C26.9592 33.2637 27.6211 32.5603 28.2809 31.9439C28.9495 31.317 29.5854 30.8135 30.1886 30.4334C30.7918 30.0532 31.3183 29.8436 31.768 29.8046C32.2751 29.7605 32.7229 29.8662 33.1114 30.1217C33.5095 30.3763 33.8277 30.7102 34.066 31.1233C34.3043 31.5364 34.4422 31.9582 34.4796 32.3888C34.5394 33.0777 34.4287 33.8007 34.1474 34.5577C33.8652 35.3052 33.534 36.0426 33.1537 36.7697C32.5542 37.9689 31.9434 39.039 31.3214 39.9799C30.7081 40.9104 30.2236 41.4923 29.8679 41.7256C29.7851 41.7714 29.6863 41.7993 29.5715 41.8092C29.2175 41.84 28.829 41.6954 28.406 41.3754C27.9925 41.0547 27.77 40.7125 27.7384 40.3489C27.7201 40.1384 27.8125 39.981 28.0155 39.8766C28.3783 39.6137 29.0502 38.6926 30.0313 37.1131C31.0115 35.5242 31.7101 34.1332 32.1271 32.9401C32.2594 32.4659 32.3231 32.2001 32.3181 32.1427C32.0577 32.2521 31.5992 32.5233 30.9427 32.9562C29.9975 33.6167 28.9787 34.5391 27.8861 35.7233C26.8024 36.8971 25.8263 38.2014 24.958 39.636C24.3206 40.7325 23.8955 41.6659 23.6829 42.4363C23.4798 43.2059 23.3999 43.8394 23.4431 44.337C23.4838 44.8058 23.6217 45.1168 23.8567 45.2699C24.0909 45.4134 24.4501 45.4979 24.9343 45.5233C25.235 45.5454 25.5433 45.5427 25.859 45.5153C26.5766 45.453 27.3007 45.2985 28.0312 45.0519C28.7608 44.7958 29.3992 44.5427 29.9463 44.2927C30.5021 44.0324 30.8862 43.8496 31.0988 43.7444C31.497 43.5556 31.7453 43.4183 31.8439 43.3326C31.9425 43.2469 32.0636 43.1979 32.2071 43.1854C32.5133 43.1588 32.8627 43.2972 33.2553 43.6005C33.648 43.9038 33.8581 44.2133 33.8855 44.529C33.8921 44.6056 33.8796 44.6838 33.848 44.7636C33.8409 44.7932 33.8104 44.8296 33.7563 44.8728C33.7118 44.9153 33.6485 44.9641 33.5666 45.0194C33.4846 45.0748 33.3887 45.1361 33.2789 45.2035C33.1691 45.2709 33.0449 45.3395 32.9063 45.4094C32.7678 45.4792 32.6149 45.5504 32.4477 45.6227C32.2909 45.7038 32.1244 45.7858 31.9485 45.8685C31.7725 45.9513 31.5865 46.0301 31.3906 46.105C31.1955 46.1894 30.9904 46.2699 30.7753 46.3464C30.5707 46.4316 30.3604 46.5077 30.1445 46.5747C29.9389 46.6504 29.7235 46.7221 29.498 46.7899C29.2821 46.8568 29.061 46.9194 28.8347 46.9776C28.6188 47.0446 28.4016 47.0972 28.1832 47.1354C27.9656 47.1833 27.7476 47.2263 27.5292 47.2645C27.3204 47.302 27.1155 47.3294 26.9146 47.3468Z" fill="white"/>
<path d="M34.5985 45.8697C34.1871 45.9055 33.7902 45.776 33.408 45.4815C33.0265 45.1965 32.818 44.8483 32.7822 44.4369C32.7548 44.1211 32.8037 43.7409 32.929 43.2962C33.0534 42.842 33.2371 42.3488 33.4801 41.8168C33.7136 41.2856 33.994 40.7407 34.3214 40.1821C34.6576 39.613 35.0185 39.0515 35.4042 38.4974C35.7899 37.9433 36.1881 37.4219 36.5987 36.9332C37.0181 36.434 37.4377 35.9927 37.8574 35.6092C38.2764 35.2162 38.6781 34.9017 39.0625 34.6659C39.4564 34.4292 39.8161 34.2968 40.1414 34.2685C40.6293 34.2261 41.0686 34.4001 41.4592 34.7903C41.8489 35.171 42.0633 35.5862 42.1024 36.0359C42.1339 36.3994 42.09 36.7262 41.9706 37.0161C41.8608 37.3052 41.8104 37.5024 41.8195 37.6077C41.8453 37.6825 41.8751 37.7474 41.9088 37.8023C41.9512 37.8469 41.9782 37.9361 41.9898 38.07C42.0073 38.271 41.9586 38.4873 41.8438 38.719C41.7289 38.9507 41.5746 39.2822 41.3807 39.7136C41.1868 40.1449 40.9774 40.7319 40.7527 41.4744C40.6 42.0468 40.5261 42.3617 40.5311 42.4191L40.5455 42.4178C40.6603 42.4079 41.249 41.9711 42.3115 41.1077C43.374 40.2442 44.1268 39.5329 44.5699 38.9739C44.6627 38.8212 44.7856 38.7382 44.9387 38.7249C45.1875 38.7033 45.4283 38.8125 45.6613 39.0526C45.9029 39.2822 46.0346 39.5215 46.0562 39.7702C46.0628 39.8468 46.0547 39.9198 46.0318 39.9892C45.9915 40.0795 45.8446 40.2754 45.5912 40.577C45.3379 40.8786 45.0117 41.2298 44.6127 41.6308C44.2137 42.0318 43.7856 42.4305 43.3284 42.8268C42.8704 43.2137 42.4173 43.547 41.9693 43.827C41.5212 44.1069 41.1202 44.2622 40.7662 44.2929C40.4504 44.3204 40.1403 44.2461 39.8358 44.0701C39.2947 43.7218 38.9696 43.3645 38.8606 42.998C38.7509 42.6219 38.7026 42.3995 38.716 42.3309C38.3561 42.7381 37.9342 43.2086 37.4504 43.7422C36.9761 44.2751 36.4824 44.7517 35.9695 45.1723C35.4669 45.6015 35.0099 45.834 34.5985 45.8697ZM34.7248 43.6608C34.7439 43.6592 34.7757 43.6371 34.8203 43.5947C34.8648 43.5523 34.9451 43.4778 35.0611 43.3713C35.8895 42.586 36.7242 41.7086 37.5655 40.739C38.4059 39.7598 38.8236 39.2416 38.8186 39.1842C38.7342 38.989 38.6874 38.8389 38.6783 38.7336C38.6683 38.6188 38.6987 38.5246 38.7694 38.451C38.8401 38.3773 38.951 38.2665 39.102 38.1184C39.253 37.9703 39.4353 37.7376 39.6487 37.4202C39.992 36.8217 40.1852 36.4385 40.2285 36.2709C40.1902 36.2742 39.8479 36.5498 39.2013 37.0976C38.5636 37.635 37.808 38.4814 36.9348 39.637C36.1846 40.6565 35.5942 41.6284 35.1636 42.5527C34.8661 43.234 34.7194 43.5986 34.7235 43.6465L34.7248 43.6608Z" fill="white"/>
<path d="M45.241 47.9965C44.8296 48.0322 44.4463 47.892 44.0911 47.5758C43.7263 47.2605 43.5277 46.9162 43.4953 46.5431C43.4878 46.457 43.4942 46.3648 43.5146 46.2666C43.7061 45.5848 44.1737 44.8646 44.9176 44.1059C45.671 43.3464 46.4045 42.6898 47.118 42.1362C47.841 41.5818 48.2527 41.2713 48.353 41.2047C48.0759 41.1228 47.6955 41.016 47.2117 40.8845C46.7375 40.7522 46.3394 40.6084 46.0174 40.4532C45.594 40.2393 45.2465 39.9562 44.9749 39.6039C44.7024 39.2419 44.5504 38.8791 44.5188 38.5156C44.4823 38.0946 44.6088 37.6643 44.8984 37.2246C45.3935 36.4875 46.133 35.734 47.1169 34.9641C48.0999 34.1846 48.8737 33.7704 49.4382 33.7214C49.754 33.694 50.0691 33.8256 50.3835 34.1165C50.7067 34.3969 50.8866 34.7476 50.9232 35.1686C50.9489 35.4652 50.8538 35.7578 50.6379 36.0465C50.6055 36.1168 50.5175 36.1582 50.374 36.1706C50.2017 36.1856 50.0432 36.1367 49.8985 36.0239C49.7633 35.9104 49.6589 35.8182 49.5853 35.7475C48.7894 36.2408 48.0747 36.78 47.4411 37.3652C46.8075 37.9505 46.3945 38.4683 46.2023 38.9188C46.1699 38.9891 46.1545 39.0339 46.1561 39.053C46.256 39.0925 46.5525 39.1776 47.0459 39.3083C48.0247 39.5896 48.662 39.8235 48.9577 40.0099C49.263 40.1954 49.4625 40.3275 49.5561 40.4062L50.3523 39.9177C50.4622 39.8503 50.7447 39.6619 51.1998 39.3524C51.6541 39.0334 52.1188 38.7231 52.5939 38.4216C53.0777 38.1096 53.3818 37.9483 53.5062 37.9375C53.7287 37.9471 53.9186 38.08 54.0758 38.3363C54.2322 38.583 54.32 38.8163 54.3391 39.0364C54.3615 39.2947 54.2251 39.4994 53.9297 39.6504C53.309 40.0513 52.5953 40.5471 51.7886 41.1377C50.9811 41.7188 50.5774 42.0093 50.5774 42.0093L50.583 42.2402C50.5971 42.4028 50.5748 42.6458 50.5161 42.969C50.4566 43.2826 50.2658 43.6944 49.9438 44.2044C49.6621 44.6241 49.2471 45.1181 48.6988 45.6863C48.1513 46.264 47.5601 46.7829 46.9253 47.2429C46.3 47.7021 45.7386 47.9533 45.241 47.9965Z" fill="white"/>
<path d="M57.8793 32.916C57.6114 32.9392 57.3131 32.835 56.9845 32.6033C56.6647 32.3611 56.4931 32.1061 56.4698 31.8382C56.4632 31.7617 56.4757 31.6834 56.5073 31.6036C56.5705 31.4438 56.6883 31.2456 56.8605 31.009C57.0415 30.7619 57.2508 30.5075 57.4883 30.2459C57.7251 29.9747 57.9678 29.7174 58.2166 29.4741C58.4654 29.2308 58.6892 29.033 58.8881 28.8807C59.0957 28.7181 59.2521 28.6322 59.3574 28.6231C59.5679 28.6048 59.8326 28.712 60.1517 28.9445C60.4707 29.1771 60.6431 29.4417 60.6689 29.7383C60.6838 29.9105 60.6041 30.0476 60.4298 30.1495C60.1228 30.3882 59.719 30.7896 59.2185 31.3536C58.7268 31.9073 58.4029 32.3403 58.2469 32.6527C58.1645 32.8141 58.042 32.9018 57.8793 32.916ZM54.4474 44.0157L54.1436 44.0132C53.6664 43.9582 53.2255 43.7652 52.8208 43.434C52.416 43.1028 52.1887 42.6502 52.1389 42.0761C52.0807 41.4064 52.2726 40.5076 52.7145 39.3799C53.1468 38.2531 53.6403 37.1643 54.1949 36.1135C54.7591 35.0619 55.2297 34.2643 55.6067 33.7207C55.7319 33.4977 55.895 33.3775 56.0959 33.3601C56.3734 33.336 56.6681 33.455 56.98 33.7171C57.2912 33.9696 57.4576 34.2203 57.4792 34.469C57.4908 34.603 57.4477 34.7176 57.35 34.8128C57.2085 34.9601 56.8813 35.4657 56.3683 36.3296C55.8648 37.1928 55.3582 38.1863 54.8485 39.3103C54.3476 40.4238 54.0309 41.4394 53.8985 42.3571C53.9018 42.3954 53.9274 42.4124 53.9753 42.4083C54.2431 42.385 54.9225 41.8826 56.0134 40.9009C57.1129 39.9089 58.0935 38.879 58.9552 37.8113C59.1099 37.5954 59.2591 37.4812 59.4026 37.4687C59.7703 37.485 60.0551 37.6001 60.2568 37.8139C60.4585 38.0277 60.5685 38.2399 60.5868 38.4504C60.5926 38.5174 60.5785 38.5764 60.5444 38.6276C60.4349 38.8106 60.0788 39.2609 59.476 39.9784C58.8723 40.6864 58.2855 41.3109 57.7155 41.8521C57.4222 42.1378 57.1014 42.4404 56.7532 42.7599C56.4137 43.0689 56.0474 43.3466 55.6543 43.5928C55.2707 43.8382 54.8684 43.9792 54.4474 44.0157Z" fill="white"/>
<path d="M58.6904 43.7195C58.5373 43.7328 58.3505 43.6912 58.1301 43.5947C57.9096 43.4981 57.7145 43.3608 57.5448 43.1828C57.3655 43.0055 57.2663 42.8069 57.2472 42.5868C57.2348 42.4433 57.2577 42.263 57.3159 42.0458C57.3638 41.82 57.4501 41.5377 57.575 41.1991C57.6998 40.8605 57.871 40.4456 58.0886 39.9543C58.2958 39.4543 58.5526 38.8584 58.8588 38.1667C59.4205 36.8647 59.7615 36.0735 59.8818 35.7931C60.0116 35.5119 60.1578 35.3643 60.3205 35.3502C60.5884 35.3269 60.8862 35.4263 61.214 35.6485C61.5505 35.8603 61.7321 36.1193 61.7587 36.4254C61.767 36.5211 61.6623 36.8146 61.4447 37.3058C61.2263 37.7875 61.117 38.0284 61.117 38.0284C61.3355 37.7684 61.9352 37.0704 62.9162 35.9345C63.9068 34.7977 64.9459 33.7193 66.0334 32.6994C66.372 32.3808 66.6818 32.1177 66.9626 31.9102C67.253 31.7018 67.5369 31.5856 67.8144 31.5615C68.0153 31.544 68.2364 31.5923 68.4777 31.7063C68.7189 31.8203 68.9313 31.9899 69.1147 32.2149C69.3069 32.4296 69.4158 32.6852 69.4416 32.9818C69.4624 33.221 69.4386 33.5027 69.3704 33.8267C69.3021 34.1508 69.1958 34.536 69.0514 34.9823C68.907 35.4286 68.7305 35.9501 68.5221 36.5466C68.1825 37.5208 67.942 38.3033 67.8005 38.8939C67.6677 39.4742 67.5938 39.9 67.5788 40.1712C67.5638 40.4425 67.5584 40.602 67.5626 40.6498L67.5782 40.6629C67.6356 40.6579 67.8673 40.5511 68.2733 40.3423C68.8878 39.9804 69.543 39.4222 70.2391 38.6677C70.9447 37.9123 71.5404 37.2243 72.0264 36.6037C72.1566 36.4382 72.2743 36.3508 72.3796 36.3417L72.4657 36.3342C72.7145 36.3126 72.9541 36.4075 73.1845 36.6188C73.4245 36.8294 73.5545 37.0494 73.5744 37.2791C73.5885 37.4417 73.4051 37.7709 73.024 38.2668C72.642 38.753 72.3768 39.0845 72.2283 39.2613C71.5231 40.1323 70.8428 40.8469 70.1876 41.4051C69.5411 41.9529 68.9499 42.2501 68.4141 42.2966C67.9836 42.334 67.5505 42.2318 67.115 41.9901C66.7003 41.7658 66.3971 41.4933 66.2053 41.1726C66.0128 40.8423 65.8999 40.4857 65.8666 40.103C65.8118 39.4715 65.9127 38.6916 66.1695 37.7631C66.4254 36.8251 66.6845 35.9784 66.9466 35.2229C67.2184 34.4667 67.3509 34.0503 67.3442 33.9738C67.306 33.9771 66.9844 34.2701 66.3795 34.8529C65.7841 35.4348 64.9972 36.3081 64.0187 37.4727C62.8583 38.8749 61.9467 40.0338 61.284 40.9493C60.6212 41.8648 60.1072 42.5505 59.7419 43.0064C59.3758 43.4527 59.0253 43.6904 58.6904 43.7195Z" fill="white"/>
<path d="M74.0511 42.718C73.6492 42.7529 73.2509 42.6622 72.8562 42.4459C72.4614 42.2295 72.1426 41.9439 71.8997 41.589C71.6535 41.1959 71.5071 40.7314 71.4605 40.1956C71.3907 39.3919 71.4965 38.5006 71.7778 37.5219C72.0679 36.5327 72.4243 35.5859 72.847 34.6816C73.2793 33.7764 73.6958 33.0221 74.0965 32.4185C74.3099 32.1011 74.5036 31.8337 74.6775 31.6161C74.8514 31.3986 75.0047 31.2214 75.1374 31.0845C75.2797 30.9469 75.4062 30.8491 75.5168 30.7913C75.6371 30.7327 75.7498 30.6988 75.8551 30.6896C76.0177 30.6755 76.1745 30.7053 76.3255 30.7789C76.4765 30.8525 76.6479 30.9389 76.8397 31.0379C77.0123 31.1386 77.1974 31.2719 77.395 31.4379C77.5917 31.5944 77.8546 31.7354 78.1837 31.8611C78.5119 31.9772 78.9678 32.0099 79.5514 31.9592C80.6039 31.8678 81.6632 31.5782 82.7295 31.0903C82.8035 31.055 82.8836 31.0336 82.9697 31.0261C83.1707 31.0086 83.3348 31.0667 83.462 31.2002C83.5885 31.3242 83.6844 31.4846 83.7496 31.6814C83.8141 31.8686 83.8538 32.0483 83.8688 32.2205C83.8771 32.3162 83.8558 32.4048 83.8051 32.4863C83.6836 32.6415 83.315 32.8373 82.6993 33.074C82.0828 33.301 81.4301 33.4445 80.7412 33.5043C80.1002 33.56 79.6028 33.5502 79.2493 33.4748C78.9052 33.3987 78.7237 33.3614 78.7045 33.3631C78.7686 33.6564 78.8126 33.9417 78.8367 34.2192C78.8941 34.8794 78.854 35.5288 78.7167 36.1673C78.5881 36.7954 78.389 37.4441 78.1193 38.1134C77.8822 38.7124 77.5622 39.3572 77.1594 40.0477C76.7559 40.7286 76.2874 41.3284 75.754 41.8471C75.2215 42.3754 74.6539 42.6657 74.0511 42.718ZM73.2981 41.2073C73.3268 41.2048 73.4008 41.1694 73.5202 41.1012C74.4059 40.5327 75.2339 39.5209 76.004 38.0658C76.3652 37.3403 76.6265 36.6862 76.788 36.1034C76.9582 35.5103 77.0585 35.0003 77.0889 34.5735C77.128 34.1362 77.1368 33.7933 77.1152 33.5445C77.0919 33.2766 77.0651 33.1343 77.0348 33.1177L76.8076 33.1663C76.6737 33.178 76.5472 33.1648 76.4282 33.127C76.318 33.0787 76.2329 33.0427 76.173 33.019C76.0174 33.2253 75.7112 33.6954 75.2544 34.4291C74.7967 35.1533 74.3511 36.0162 73.9175 37.0179C73.4927 38.0092 73.2426 39.0142 73.1672 40.0329C73.1671 40.2546 73.1767 40.4755 73.1958 40.6956C73.2174 40.9444 73.2463 41.1106 73.2825 41.1942L73.2981 41.2073Z" fill="white"/>
<path d="M15.9286 24.5817C15.9286 26.3898 14.7519 27.2939 12.3985 27.2939H3.53013C1.17671 27.2939 0 26.3898 0 24.5817V20.4919H7.1033V21.8696H8.82531V19.1143H3.53013C1.17671 19.1143 0 18.1959 0 16.3591V8.22261C0 6.38579 1.17671 5.46739 3.53013 5.46739H12.3985C14.7519 5.46739 15.9286 6.38579 15.9286 8.22261V12.2693H8.82531V10.9348H7.1033V13.6469H12.3985C14.7519 13.6469 15.9286 14.551 15.9286 16.3591V24.5817Z" fill="url(#paint0_linear_1524_39452)"/>
<path d="M26.5667 27.2939V10.9348H24.8447V27.2939H17.7414V5.46739H24.8447V6.845C26.0214 5.92659 27.7865 5.46739 30.1399 5.46739C30.9435 5.46739 31.7184 5.71134 32.4646 6.19924C33.2682 6.74455 33.67 7.419 33.67 8.22261V27.2939H26.5667Z" fill="url(#paint1_linear_1524_39452)"/>
<path d="M44.3082 19.1143H42.5862V21.8696H44.3082V19.1143ZM39.013 27.2939C36.6596 27.2939 35.4829 26.3898 35.4829 24.5817V16.3591C35.4829 14.551 36.6596 13.6469 39.013 13.6469H44.3082V10.9348H42.5862V12.2693H35.4829V8.22261C35.4829 6.38579 36.6596 5.46739 39.013 5.46739H47.8814C50.2348 5.46739 51.4115 6.38579 51.4115 8.22261V27.2939H39.013Z" fill="url(#paint2_linear_1524_39452)"/>
<path d="M70.3153 24.5817C70.3153 26.3898 69.1386 27.2939 66.7851 27.2939H57.9168C55.5634 27.2939 54.3867 26.3898 54.3867 24.5817V12.2693H52.6216V6.845H54.3867V5.46739H61.49V6.845H70.3153V12.2693H61.49V21.8696H63.255V13.6469H70.3153V24.5817Z" fill="url(#paint3_linear_1524_39452)"/>
<path d="M88.0715 24.5817C88.0715 26.3898 86.8948 27.2939 84.5414 27.2939H75.673C73.3196 27.2939 72.1429 26.3898 72.1429 24.5817V8.22261C72.1429 6.38579 73.3196 5.46739 75.673 5.46739H84.5414C86.8948 5.46739 88.0715 6.38579 88.0715 8.22261V14.6802H80.9682V10.9348H79.2462V21.8696H80.9682V16.7035H88.0715V24.5817Z" fill="url(#paint4_linear_1524_39452)"/>
<path d="M98.7096 27.2939V10.9348H96.9876V27.2939H89.8843V0H96.9876V5.46739H102.283C104.636 5.46739 105.813 6.38579 105.813 8.22261V27.2939H98.7096Z" fill="url(#paint5_linear_1524_39452)"/>
<defs>
<linearGradient id="paint0_linear_1524_39452" x1="52.9088" y1="-3.19996" x2="52.9088" y2="38.0566" gradientUnits="userSpaceOnUse">
<stop stop-color="#FED757"/>
<stop offset="1" stop-color="#FFC300"/>
</linearGradient>
<linearGradient id="paint1_linear_1524_39452" x1="52.9088" y1="-3.19996" x2="52.9088" y2="38.0566" gradientUnits="userSpaceOnUse">
<stop stop-color="#FED757"/>
<stop offset="1" stop-color="#FFC300"/>
</linearGradient>
<linearGradient id="paint2_linear_1524_39452" x1="52.9088" y1="-3.19996" x2="52.9088" y2="38.0566" gradientUnits="userSpaceOnUse">
<stop stop-color="#FED757"/>
<stop offset="1" stop-color="#FFC300"/>
</linearGradient>
<linearGradient id="paint3_linear_1524_39452" x1="52.9088" y1="-3.19996" x2="52.9088" y2="38.0566" gradientUnits="userSpaceOnUse">
<stop stop-color="#FED757"/>
<stop offset="1" stop-color="#FFC300"/>
</linearGradient>
<linearGradient id="paint4_linear_1524_39452" x1="52.9088" y1="-3.19996" x2="52.9088" y2="38.0566" gradientUnits="userSpaceOnUse">
<stop stop-color="#FED757"/>
<stop offset="1" stop-color="#FFC300"/>
</linearGradient>
<linearGradient id="paint5_linear_1524_39452" x1="52.9088" y1="-3.19996" x2="52.9088" y2="38.0566" gradientUnits="userSpaceOnUse">
<stop stop-color="#FED757"/>
<stop offset="1" stop-color="#FFC300"/>
</linearGradient>
</defs>
</svg>
