<svg width="193" height="38" viewBox="0 0 193 38" fill="none" xmlns="http://www.w3.org/2000/svg">
<path d="M4.16181 21.4113H7.14683C9.4143 21.4113 11.1651 20.8085 11.1651 19.029C11.1651 17.4217 9.61521 16.9051 7.43385 16.9051H4.16181V21.4113ZM4.16181 29.4479H8.29491C10.5624 29.4479 12.0262 28.7877 12.0262 27.0082C12.0262 25.4009 10.1893 24.5685 8.00789 24.5685H4.16181V29.4479ZM0 32.8921V13.4608H7.46255C13.0595 13.4608 15.4991 15.8144 15.4991 18.742C15.4991 20.8085 14.5233 22.0714 12.7437 22.789C15.0112 23.5927 16.3602 25.0565 16.3602 27.2952C16.3602 30.6534 13.6909 32.8921 8.32362 32.8921H0Z" fill="white"/>
<path d="M67.3076 32.8921V13.4608H72.187L77.2673 22.5881L82.3762 13.4608H87.2556V32.8921H83.0938V19.4308L78.6737 27.4387H75.8322L71.4694 19.6318V32.8921H67.3076Z" fill="white"/>
<path d="M92.3026 32.8921V13.4608H106.367V16.9051H96.4644V20.8947H104.645V24.3389H96.4644V29.4479H106.367V32.8921H92.3026Z" fill="white"/>
<path d="M114.714 23.1334H117.699C120.254 23.1334 122.005 22.3298 122.005 20.1484C122.005 17.7948 120.254 16.9051 117.699 16.9051H114.714V23.1334ZM110.553 32.8921V13.4608H117.728C123.382 13.4608 126.339 15.9292 126.339 20.1484C126.339 22.9038 124.99 24.8843 122.349 25.8601L126.339 32.8921H121.632L118.044 26.5777H114.714V32.8921H110.553Z" fill="white"/>
<path d="M135.863 25.487H141.116L138.475 17.5365L135.863 25.487ZM129.09 32.8921L136.236 13.4608H140.8L148.033 32.8921H143.584L142.264 28.9313H134.715L133.395 32.8921H129.09Z" fill="white"/>
<path d="M151.645 32.8921V13.4608H156.524L165.135 27.1804V13.4608H169.297V32.8921H164.417L155.807 19.1725V32.8921H151.645Z" fill="white"/>
<path d="M173.483 23.0186C173.483 16.4745 177.357 13.0303 183.241 13.0303C189.412 13.0303 191.823 16.5032 191.823 19.9762H187.604C187.604 18.0244 186.312 16.4745 183.27 16.4745C180.515 16.4745 177.96 18.2541 177.96 23.0186C177.96 27.7832 180.515 29.8784 183.557 29.8784C186.312 29.8784 188.293 28.4433 188.924 25.8601H182.954V22.4159H193V24.425C193 29.5914 189.699 33.3227 183.528 33.3227C177.357 33.3227 173.483 29.5627 173.483 23.0186Z" fill="white"/>
<path d="M163.74 7.35313C163.166 7.35313 162.685 7.11693 162.296 6.64453C161.907 6.17213 161.713 5.48453 161.713 4.58173C161.713 3.57395 161.954 2.71576 162.435 2.00716C162.673 1.66599 162.977 1.39567 163.346 1.19621C163.72 0.991507 164.151 0.889154 164.637 0.889154C165.128 0.889154 165.5 1.03087 165.752 1.31431C166.01 1.5925 166.139 1.92318 166.139 2.30635C166.139 2.68427 166.042 2.99395 165.847 3.2354C165.653 3.47159 165.4 3.58969 165.089 3.58969C164.982 3.58969 164.858 3.5687 164.717 3.52671C164.819 3.39024 164.909 3.19603 164.987 2.94408C165.065 2.69214 165.103 2.45332 165.103 2.22761C165.103 2.00191 165.055 1.8182 164.958 1.67648C164.86 1.53476 164.707 1.4639 164.498 1.4639C164.177 1.4639 163.888 1.624 163.631 1.94418C163.373 2.26436 163.181 2.65802 163.055 3.12517C162.928 3.59232 162.865 4.07521 162.865 4.57386C162.865 5.24571 162.986 5.75485 163.23 6.10128C163.473 6.4477 163.784 6.62091 164.163 6.62091C164.401 6.62091 164.649 6.53431 164.907 6.36109C165.164 6.18788 165.41 5.94118 165.643 5.621C165.823 5.663 165.913 5.7601 165.913 5.91232C165.728 6.27449 165.502 6.56842 165.235 6.79413C164.967 7.01983 164.715 7.16942 164.476 7.2429C164.238 7.31639 163.993 7.35313 163.74 7.35313Z" fill="#FD4558"/>
<path d="M166.5 6.8886C166.5 6.78888 166.641 6.41621 166.923 5.7706C167.205 5.12499 167.523 4.39277 167.878 3.57395C168.238 2.74988 168.481 2.15151 168.607 1.77884L168.738 1.39305C168.7 1.31956 168.605 1.18572 168.454 0.991507C168.629 0.928521 168.78 0.897027 168.906 0.897027C169.037 0.897027 169.144 0.907525 169.227 0.928521C169.314 0.949516 169.39 0.986258 169.453 1.03875C169.521 1.08599 169.579 1.13585 169.628 1.18834C169.681 1.24083 169.73 1.31956 169.774 1.42454C169.818 1.52427 169.854 1.61612 169.883 1.7001C169.912 1.77884 169.944 1.89169 169.978 2.03866C170.017 2.18562 170.046 2.31422 170.065 2.42445C170.09 2.52942 170.119 2.67902 170.153 2.87322C170.192 3.06218 170.231 3.24589 170.27 3.42436C170.309 3.60282 170.377 3.94399 170.474 4.44788C170.571 4.94653 170.646 5.32182 170.7 5.57376C170.758 5.82046 170.838 6.09865 170.94 6.40833C171.047 6.71802 171.159 6.96209 171.276 7.14055C170.994 7.28752 170.765 7.361 170.59 7.361C170.415 7.361 170.287 7.31376 170.204 7.21928C170.121 7.11955 170.051 6.97259 169.993 6.77838C169.934 6.57892 169.82 6.04879 169.65 5.18797C169.538 5.29295 169.356 5.35069 169.103 5.36119L167.856 5.40843C167.56 6.19051 167.341 6.88598 167.2 7.49485C166.733 7.31639 166.5 7.11431 166.5 6.8886ZM169.074 2.44019C169.006 2.60816 168.855 2.9677 168.622 3.51883C168.393 4.06472 168.216 4.50037 168.089 4.8258H169.584C169.356 3.69205 169.186 2.89684 169.074 2.44019Z" fill="#FD4558"/>
<path d="M174.043 1.42454C173.824 1.42454 173.642 1.49802 173.496 1.64499C173.351 1.78671 173.278 1.98879 173.278 2.25123C173.278 2.51368 173.338 2.74988 173.46 2.95983C173.586 3.16454 173.739 3.34037 173.919 3.48734C174.104 3.62906 174.303 3.7839 174.517 3.95187C174.736 4.11983 174.935 4.27992 175.115 4.43214C175.3 4.57911 175.453 4.76282 175.574 4.98327C175.701 5.20372 175.764 5.43729 175.764 5.68399C175.764 6.17213 175.579 6.58679 175.21 6.92797C174.84 7.2639 174.354 7.43186 173.752 7.43186C173.154 7.43186 172.68 7.29277 172.33 7.01458C171.98 6.73639 171.805 6.42146 171.805 6.06978C171.805 5.71811 171.902 5.44517 172.096 5.25096C172.291 5.0515 172.541 4.95177 172.847 4.95177C172.935 4.95177 173.018 4.96227 173.095 4.98327C172.945 5.22472 172.869 5.48716 172.869 5.7706C172.869 6.04879 172.949 6.29023 173.11 6.49494C173.27 6.6944 173.482 6.79413 173.744 6.79413C174.012 6.79413 174.235 6.72064 174.415 6.57367C174.595 6.42146 174.685 6.22987 174.685 5.99892C174.685 5.76272 174.624 5.55539 174.503 5.37693C174.381 5.19847 174.23 5.04625 174.05 4.92028C173.871 4.78906 173.674 4.64209 173.46 4.47938C173.246 4.31141 173.049 4.14345 172.869 3.97549C172.689 3.80752 172.539 3.59494 172.417 3.33775C172.296 3.07531 172.235 2.78924 172.235 2.47956C172.235 1.98092 172.403 1.58463 172.738 1.29069C173.073 0.991507 173.526 0.841915 174.094 0.841915C174.663 0.841915 175.093 0.981009 175.385 1.2592C175.681 1.53214 175.83 1.82608 175.83 2.14101C175.83 2.45069 175.737 2.71313 175.553 2.92834C175.368 3.13829 175.117 3.24327 174.802 3.24327C174.695 3.24327 174.59 3.23277 174.488 3.21178C174.726 2.93884 174.845 2.65277 174.845 2.35359C174.845 2.04915 174.767 1.8182 174.612 1.66074C174.456 1.50327 174.267 1.42454 174.043 1.42454Z" fill="#FD4558"/>
<path d="M178.359 1.30644C178.398 1.39042 178.42 1.46915 178.425 1.54264C178.434 1.61612 178.439 1.74997 178.439 1.94418C178.439 2.13838 178.359 2.82861 178.199 4.01485C178.038 5.2011 177.958 6.03304 177.958 6.51069C177.958 6.98308 177.992 7.30589 178.06 7.4791C177.647 7.36363 177.365 7.21141 177.214 7.02245C177.064 6.82824 176.988 6.56055 176.988 6.21937C176.988 6.01992 177.039 5.5134 177.141 4.69983C177.321 3.35087 177.411 2.30635 177.411 1.56626C177.411 1.40879 177.401 1.19359 177.382 0.920648C177.751 0.941643 178.021 1.00463 178.191 1.10961C178.264 1.1516 178.32 1.21721 178.359 1.30644Z" fill="#FD4558"/>
<path d="M180.822 4.05422C180.759 4.55286 180.71 5.00426 180.676 5.40843C180.642 5.81259 180.625 6.15639 180.625 6.43983C180.625 6.72326 180.635 7.00146 180.654 7.2744C180.314 7.2744 180.083 7.23241 179.961 7.14842C179.845 7.05919 179.786 6.93584 179.786 6.77838C179.786 6.73114 179.867 6.02779 180.027 4.66834C180.187 3.30363 180.27 2.34834 180.275 1.80246L180.209 1.7001C180.088 1.5059 179.927 1.34318 179.728 1.21196C179.679 1.18047 179.65 1.15947 179.641 1.14897C179.874 0.996756 180.097 0.920648 180.311 0.920648C180.739 0.920648 181.053 1.07286 181.252 1.3773C181.451 1.67648 181.823 2.4192 182.368 3.60544C182.426 3.73666 182.513 3.93612 182.63 4.20381C182.752 4.46625 182.849 4.67883 182.922 4.84155C183.092 5.23521 183.274 5.60526 183.469 5.95168C183.483 5.74698 183.549 5.11974 183.665 4.06997C183.787 3.01494 183.848 2.18037 183.848 1.56626C183.848 1.40354 183.838 1.19096 183.819 0.928521C184.159 0.928521 184.387 0.970512 184.504 1.05449C184.621 1.13848 184.679 1.25657 184.679 1.40879C184.679 1.46653 184.599 2.19875 184.438 3.60544C184.278 5.01214 184.198 5.9858 184.198 6.52643C184.198 6.72064 184.203 6.86236 184.212 6.95159C184.251 6.98833 184.314 7.03295 184.402 7.08544C184.101 7.29539 183.821 7.40037 183.563 7.40037C183.306 7.40037 183.082 7.24553 182.893 6.93584C182.805 6.79937 182.511 6.21675 182.01 5.18797C181.514 4.15395 181.162 3.43485 180.953 3.03069C180.934 3.20915 180.89 3.55033 180.822 4.05422Z" fill="#FD4558"/>
<path d="M189.829 3.69205C189.829 2.95721 189.734 2.42445 189.545 2.09377C189.36 1.76309 189.105 1.59775 188.779 1.59775C188.458 1.59775 188.152 1.75259 187.86 2.06228C187.573 2.36671 187.347 2.7525 187.182 3.21965C187.022 3.6868 186.941 4.1592 186.941 4.63684C186.941 5.29295 187.041 5.83096 187.24 6.25087C187.445 6.67078 187.751 6.88073 188.159 6.88073C188.499 6.88073 188.798 6.72064 189.056 6.40046C189.318 6.07503 189.513 5.67349 189.639 5.19585C189.766 4.7182 189.829 4.21693 189.829 3.69205ZM189.96 6.57367C189.741 6.83087 189.467 7.0382 189.136 7.19566C188.811 7.35313 188.453 7.43186 188.064 7.43186C187.675 7.43186 187.333 7.33738 187.036 7.14842C186.745 6.95946 186.511 6.70752 186.336 6.39259C185.986 5.76272 185.811 5.02788 185.811 4.18806C185.811 3.34825 186.003 2.60028 186.387 1.94418C186.776 1.28807 187.294 0.873408 187.94 0.700195C187.979 0.710693 188.016 0.731688 188.05 0.763182C188.089 0.794675 188.111 0.828793 188.115 0.865535C187.488 1.35893 187.109 2.03078 186.978 2.8811C187.182 2.26173 187.488 1.77884 187.897 1.43241C188.31 1.08074 188.752 0.904901 189.224 0.904901C189.695 0.904901 190.096 1.12535 190.427 1.56626C190.762 2.00191 190.93 2.6344 190.93 3.46372C190.93 4.2773 190.789 5.00951 190.507 5.66037C190.361 6.0068 190.179 6.31123 189.96 6.57367Z" fill="#FD4558"/>
<path d="M38.152 21.225C38.152 18.0662 37.7121 15.7761 36.8321 14.3547C35.9747 12.9332 34.7902 12.2225 33.2785 12.2225C31.7893 12.2225 30.3679 12.8881 29.0141 14.2193C27.6829 15.5279 26.6337 17.1863 25.8666 19.1944C25.122 21.2025 24.7498 23.2331 24.7498 25.2863C24.7498 28.1067 25.2123 30.4194 26.1374 32.2244C27.085 34.0294 28.5065 34.9319 30.4017 34.9319C31.9811 34.9319 33.3687 34.2438 34.5646 32.8674C35.7829 31.4685 36.6855 29.7425 37.2721 27.6893C37.8587 25.6361 38.152 23.4813 38.152 21.225ZM38.7612 33.612C37.7459 34.7176 36.4711 35.6088 34.9368 36.2857C33.4251 36.9626 31.7668 37.301 29.9618 37.301C28.1567 37.301 26.5661 36.8949 25.1897 36.0826C23.836 35.2704 22.7529 34.1873 21.9407 32.8336C20.3162 30.1261 19.5039 26.9673 19.5039 23.3572C19.5039 19.7472 20.3951 16.532 22.1776 13.7116C23.9826 10.8913 26.3856 9.10883 29.3864 8.36426C29.5669 8.40938 29.7361 8.49963 29.8941 8.63501C30.0746 8.77039 30.1761 8.91705 30.1987 9.07499C27.2881 11.1959 25.5282 14.0839 24.919 17.7391C25.8666 15.0767 27.2881 13.0009 29.1833 11.5118C31.1012 10.0001 33.1544 9.24421 35.343 9.24421C37.5316 9.24421 39.393 10.1918 40.9273 12.0871C42.4841 13.9598 43.2625 16.6786 43.2625 20.2436C43.2625 23.7408 42.6082 26.8883 41.2995 29.6861C40.6227 31.1752 39.7766 32.4839 38.7612 33.612Z" fill="#FFCF3C"/>
<path d="M59.1949 21.225C59.1949 18.0662 58.7549 15.7761 57.875 14.3547C57.0176 12.9332 55.833 12.2225 54.3213 12.2225C52.8322 12.2225 51.4107 12.8881 50.057 14.2193C48.7258 15.5279 47.6766 17.1863 46.9095 19.1944C46.1649 21.2025 45.7926 23.2331 45.7926 25.2863C45.7926 28.1067 46.2552 30.4194 47.1802 32.2244C48.1279 34.0294 49.5493 34.9319 51.4446 34.9319C53.024 34.9319 54.4116 34.2438 55.6074 32.8674C56.8258 31.4685 57.7283 29.7425 58.315 27.6893C58.9016 25.6361 59.1949 23.4813 59.1949 21.225ZM59.8041 33.612C58.7888 34.7176 57.514 35.6088 55.9797 36.2857C54.468 36.9626 52.8096 37.301 51.0046 37.301C49.1996 37.301 47.6089 36.8949 46.2326 36.0826C44.8788 35.2704 43.7958 34.1873 42.9836 32.8336C41.359 30.1261 40.5468 26.9673 40.5468 23.3572C40.5468 19.7472 41.438 16.532 43.2205 13.7116C45.0255 10.8913 47.4284 9.10883 50.4293 8.36426C50.6098 8.40938 50.779 8.49963 50.9369 8.63501C51.1174 8.77039 51.219 8.91705 51.2415 9.07499C48.3309 11.1959 46.571 14.0839 45.9618 17.7391C46.9095 15.0767 48.3309 13.0009 50.2262 11.5118C52.144 10.0001 54.1973 9.24421 56.3858 9.24421C58.5744 9.24421 60.4359 10.1918 61.9701 12.0871C63.527 13.9598 64.3054 16.6786 64.3054 20.2436C64.3054 23.7408 63.6511 26.8883 62.3424 29.6861C61.6655 31.1752 60.8194 32.4839 59.8041 33.612Z" fill="#FFCF3C"/>
</svg>
