<svg width="70" height="22" viewBox="0 0 70 22" fill="none" xmlns="http://www.w3.org/2000/svg">
<path d="M8.73162 21.3242L0 4.42385H7.49268L14.6019 18.1088H10.1476L17.4632 0.675104H24.3069L15.5753 21.3242H8.73162Z" fill="white"/>
<path d="M35.5377 21.7962C33.8661 21.7962 32.3125 21.5307 30.8769 20.9997C29.4609 20.4687 28.2318 19.7214 27.1895 18.7578C26.1472 17.7745 25.3311 16.6241 24.7411 15.3065C24.1708 13.9889 23.8857 12.5533 23.8857 10.9997C23.8857 9.42639 24.1708 7.99079 24.7411 6.69284C25.3311 5.37523 26.1472 4.23462 27.1895 3.27099C28.2318 2.2877 29.4609 1.53057 30.8769 0.999591C32.3125 0.468614 33.8661 0.203125 35.5377 0.203125C37.2289 0.203125 38.7825 0.468614 40.1985 0.999591C41.6144 1.53057 42.8435 2.2877 43.8858 3.27099C44.9281 4.23462 45.7344 5.37523 46.3047 6.69284C46.8947 7.99079 47.1897 9.42639 47.1897 10.9997C47.1897 12.5533 46.8947 13.9889 46.3047 15.3065C45.7344 16.6241 44.9281 17.7745 43.8858 18.7578C42.8435 19.7214 41.6144 20.4687 40.1985 20.9997C38.7825 21.5307 37.2289 21.7962 35.5377 21.7962ZM35.5377 16.1619C36.1866 16.1619 36.7864 16.0439 37.3371 15.8079C37.9074 15.572 38.399 15.2376 38.812 14.805C39.2447 14.3527 39.579 13.8119 39.815 13.1826C40.051 12.5336 40.169 11.806 40.169 10.9997C40.169 10.1934 40.051 9.47556 39.815 8.84625C39.579 8.19728 39.2447 7.65647 38.812 7.22382C38.399 6.77151 37.9074 6.42735 37.3371 6.19136C36.7864 5.95537 36.1866 5.83738 35.5377 5.83738C34.8887 5.83738 34.279 5.95537 33.7087 6.19136C33.1581 6.42735 32.6665 6.77151 32.2338 7.22382C31.8208 7.65647 31.4963 8.19728 31.2603 8.84625C31.0244 9.47556 30.9064 10.1934 30.9064 10.9997C30.9064 11.806 31.0244 12.5336 31.2603 13.1826C31.4963 13.8119 31.8208 14.3527 32.2338 14.805C32.6665 15.2376 33.1581 15.572 33.7087 15.8079C34.279 16.0439 34.8887 16.1619 35.5377 16.1619Z" fill="white"/>
<path d="M47.05 21.3242L56.2536 8.46277L56.2241 13.3301L47.3155 0.675104H55.1326L60.3244 8.34477L56.9911 8.37427L62.0648 0.675104H69.5575L60.6489 13.0646V8.22678L70 21.3242H62.0354L56.8436 13.3006L60.0589 13.2711L54.9852 21.3242H47.05Z" fill="white"/>
<ellipse cx="35.9255" cy="11.0335" rx="6.91376" ry="7.22104" fill="white"/>
<path d="M35.467 1.04688C33.4007 1.04688 31.3808 1.63258 29.6627 2.72991C27.9446 3.82725 26.6055 5.38693 25.8148 7.21173C25.0241 9.03654 24.8172 11.0445 25.2203 12.9817C25.6234 14.9189 26.6184 16.6983 28.0795 18.095C29.5406 19.4916 31.4022 20.4427 33.4288 20.8281C35.4554 21.2134 37.556 21.0156 39.4651 20.2598C41.3741 19.5039 43.0058 18.2239 44.1537 16.5816C45.3017 14.9394 45.9145 13.0086 45.9145 11.0334C45.9115 8.38568 44.8099 5.84719 42.8512 3.97495C40.8926 2.10272 38.2369 1.04967 35.467 1.04688ZM35.467 15.6426C34.5133 15.6426 33.581 15.3723 32.7881 14.8658C31.9951 14.3593 31.3771 13.6395 31.0121 12.7973C30.6472 11.9551 30.5517 11.0283 30.7377 10.1342C30.9238 9.24012 31.383 8.41885 32.0574 7.77424C32.7318 7.12964 33.5909 6.69065 34.5263 6.51281C35.4616 6.33496 36.4312 6.42624 37.3123 6.7751C38.1933 7.12395 38.9464 7.71472 39.4763 8.4727C40.0061 9.23067 40.2889 10.1218 40.2889 11.0334C40.2876 12.2555 39.7791 13.4271 38.8751 14.2912C37.9711 15.1553 36.7454 15.6413 35.467 15.6426ZM39.4059 6.1813C38.4976 5.50268 37.4143 5.07136 36.2706 4.93298V2.6188C38.0541 2.77237 39.7461 3.44235 41.1207 4.53928L39.4059 6.1813ZM34.6633 4.93779C33.5197 5.07616 32.4364 5.50748 31.5281 6.1861L29.8133 4.54217C31.1879 3.44523 32.8799 2.77525 34.6633 2.62168V4.93779ZM30.3909 7.2683C29.681 8.1365 29.2298 9.17199 29.085 10.2652H26.664C26.8247 8.56047 27.5256 6.94313 28.6731 5.62916L30.3909 7.2683ZM29.09 11.8016C29.2348 12.8948 29.686 13.9303 30.396 14.7985L28.6761 16.4377C27.5286 15.1237 26.8277 13.5064 26.667 11.8016H29.09ZM31.5281 15.8855C32.4369 16.5624 33.5202 16.9921 34.6633 17.1291V19.448C32.8799 19.2945 31.1879 18.6245 29.8133 17.5276L31.5281 15.8855ZM36.2706 17.1291C37.4138 16.9921 38.4971 16.5624 39.4059 15.8855L41.1207 17.5247C39.7461 18.6216 38.0541 19.2916 36.2706 19.4452V17.1291ZM40.5431 14.7985C41.2512 13.9298 41.7007 12.8944 41.844 11.8016H44.27C44.1093 13.5064 43.4084 15.1237 42.2609 16.4377L40.5431 14.7985ZM41.844 10.2652C41.7007 9.17247 41.2512 8.13702 40.5431 7.2683L42.2578 5.62916C43.4054 6.94313 44.1063 8.56047 44.267 10.2652H41.844Z" fill="#FF7E00"/>
</svg>
