<svg width="178" height="28" viewBox="0 0 178 28" fill="none" xmlns="http://www.w3.org/2000/svg">
<path d="M0 27.6719V0.328125H5.50781V27.6719H0ZM7.61719 16.5V11.6172H8.125C9.79167 11.6172 10.8594 10.9401 11.3281 9.58594C11.4323 9.2474 11.4844 8.89583 11.4844 8.53125C11.4844 7.15104 10.8333 6.22656 9.53125 5.75781C9.11458 5.60156 8.64583 5.52344 8.125 5.52344H7.61719V0.328125H8.47656C11.888 0.380208 14.2839 1.59115 15.6641 3.96094C16.3151 5.08073 16.6406 6.34375 16.6406 7.75C16.6146 10.4323 15.7292 12.4896 13.9844 13.9219C15.2865 14.7552 16.1198 16.2656 16.4844 18.4531C16.5104 18.7135 16.5365 18.9609 16.5625 19.1953L17.2266 27.6719H12.1484L11.5625 20.7188C11.3542 18.6354 10.7552 17.3464 9.76562 16.8516C9.29688 16.6432 8.72396 16.526 8.04688 16.5H7.61719Z" fill="#FFED00"/>
<path d="M19.5703 20.0547V7.20312C19.5703 5.82292 20.1562 4.41667 21.3281 2.98438C22.8906 1.10938 24.8698 0.158854 27.2656 0.132812V5.64062C26.1979 5.66667 25.4948 6.26562 25.1562 7.4375C25.1042 7.61979 25.0781 7.75 25.0781 7.82812V20.0547C25.0781 21.1224 25.6641 21.8516 26.8359 22.2422C27.0182 22.2943 27.1484 22.3203 27.2266 22.3203V27.8672C25.7422 27.8672 24.2578 27.3333 22.7734 26.2656C20.6641 24.7031 19.5964 22.6328 19.5703 20.0547ZM29.375 27.8672V22.3203C29.7917 22.3203 30.2604 22.099 30.7812 21.6562C31.276 21.2135 31.5365 20.6797 31.5625 20.0547V7.82812C31.5625 7.35938 31.3411 6.86458 30.8984 6.34375C30.4818 5.90104 29.974 5.66667 29.375 5.64062V0.132812C32.0052 0.132812 34.1146 1.26562 35.7031 3.53125C36.6146 4.83333 37.0703 6.05729 37.0703 7.20312V20.0547C37.0703 22.9453 35.7812 25.1589 33.2031 26.6953C31.849 27.4766 30.5729 27.8672 29.375 27.8672Z" fill="#FFED00"/>
<path d="M39.8047 20.1328V0.328125H45.3125V20.1328C45.3385 21.2005 45.9375 21.9036 47.1094 22.2422C47.2917 22.2943 47.4219 22.3203 47.5 22.3203V27.8672C45.9896 27.8672 44.4792 27.3333 42.9688 26.2656C40.8854 24.7292 39.8307 22.6849 39.8047 20.1328ZM49.6094 27.8672V22.3203C50.0781 22.3203 50.5729 22.099 51.0938 21.6562C51.5365 21.2396 51.7708 20.7318 51.7969 20.1328V0.328125H57.2656V20.1328C57.2656 23.0755 55.9635 25.276 53.3594 26.7344C52.0573 27.4896 50.8073 27.8672 49.6094 27.8672Z" fill="#FFED00"/>
<path d="M60.1953 27.6719V0.328125H65.7031V22.2031H74.8828V27.6719H60.1953Z" fill="#FFED00"/>
<path d="M77.1094 27.6719V0.328125H91.3281V5.79688H82.6172V11.3438H87.6562V16.8516H82.6172V22.1641H91.3281V27.6719H77.1094Z" fill="#FFED00"/>
<path d="M93.3984 5.71875V0.328125H110.312V5.71875H104.609V27.6719H99.1016V5.71875H93.3984Z" fill="#FFED00"/>
<path d="M111.484 5.71875V0.328125H128.398V5.71875H122.695V27.6719H117.188V5.71875H111.484Z" fill="#FFED00"/>
<path d="M130.625 27.6719V0.328125H136.133V27.6719H130.625Z" fill="#FFED00"/>
<path d="M139.414 27.6719V8.45312H139.727L144.922 16.8125V27.6719H139.414ZM139.414 3.92188V0.328125H143.906L156.797 21.1094V27.6719H154.18L139.414 3.92188ZM151.289 8.21875V0.328125H156.797V16.5781H156.484L151.289 8.21875Z" fill="#FFED00"/>
<path d="M159.922 20.0547V7.20312C159.922 5.82292 160.508 4.41667 161.68 2.98438C163.242 1.10938 165.221 0.158854 167.617 0.132812V5.64062C166.549 5.66667 165.846 6.26562 165.508 7.4375C165.456 7.61979 165.43 7.75 165.43 7.82812V20.0547C165.43 21.1224 166.016 21.8516 167.188 22.2422C167.37 22.2943 167.5 22.3203 167.578 22.3203V27.8672C166.094 27.8672 164.609 27.3333 163.125 26.2656C161.016 24.7031 159.948 22.6328 159.922 20.0547ZM169.727 27.8672V22.3203C170.143 22.3203 170.612 22.099 171.133 21.6562C171.628 21.2135 171.888 20.6797 171.914 20.0547V7.82812C171.914 7.35938 171.693 6.86458 171.25 6.34375C170.833 5.90104 170.326 5.66667 169.727 5.64062V0.132812C172.357 0.132812 174.466 1.26562 176.055 3.53125C176.966 4.83333 177.422 6.05729 177.422 7.20312V20.0547C177.422 22.9453 176.133 25.1589 173.555 26.6953C172.201 27.4766 170.924 27.8672 169.727 27.8672Z" fill="#FFED00"/>
</svg>
