<svg width="221" height="28" viewBox="0 0 221 28" fill="none" xmlns="http://www.w3.org/2000/svg">
<path d="M5.59373 4.75751V12.6935C5.59373 12.8886 5.70345 12.9861 5.92288 12.9861H7.75145C12.0913 12.9861 14.2612 11.4379 14.2612 8.34151C14.2612 5.58647 12.2497 4.20894 8.22688 4.20894C7.49545 4.20894 6.72745 4.26989 5.92288 4.3918C5.70345 4.44056 5.59373 4.56247 5.59373 4.75751ZM2.63145 27.2855C2.07068 27.2855 1.58307 27.0783 1.16859 26.6638C0.754113 26.2493 0.546875 25.7617 0.546875 25.2009V2.8558C0.546875 2.27066 0.741923 1.74647 1.13202 1.28323C1.52211 0.819989 2.00973 0.563989 2.59488 0.515226C4.66726 0.32018 6.66649 0.222656 8.59259 0.222656C12.1766 0.222656 14.8585 0.893132 16.6383 2.23408C18.4181 3.55065 19.308 5.4158 19.308 7.82951C19.308 9.56056 18.8326 11.0844 17.8817 12.4009C16.9553 13.7175 15.6996 14.644 14.1149 15.1804C14.0905 15.1804 14.0783 15.1926 14.0783 15.2169C14.0783 15.2657 14.0905 15.2901 14.1149 15.2901C15.2852 16.0215 16.2848 17.46 17.1137 19.6055L19.308 25.3472C19.4787 25.8105 19.4177 26.2493 19.1252 26.6638C18.857 27.0783 18.4791 27.2855 17.9914 27.2855H16.8577C16.2238 27.2855 15.6509 27.1148 15.1389 26.7735C14.6269 26.4078 14.2612 25.9324 14.0417 25.3472L11.9937 19.7152C11.5549 18.5449 11.0551 17.7769 10.4943 17.4112C9.93354 17.0455 8.9705 16.8627 7.60516 16.8627H5.92288C5.70345 16.8627 5.59373 16.9724 5.59373 17.1918V25.2009C5.59373 25.7617 5.38649 26.2493 4.97202 26.6638C4.58192 27.0783 4.10649 27.2855 3.54573 27.2855H2.63145Z" fill="white"/>
<path d="M40.8494 13.9369C40.8494 7.59789 38.5333 4.42837 33.9009 4.42837C29.2685 4.42837 26.9523 7.59789 26.9523 13.9369C26.9523 20.276 29.2685 23.4455 33.9009 23.4455C38.5333 23.4455 40.8494 20.276 40.8494 13.9369ZM42.7877 24.0307C40.6178 26.4444 37.6555 27.6512 33.9009 27.6512C30.1462 27.6512 27.1717 26.4444 24.9774 24.0307C22.8075 21.6169 21.7226 18.2524 21.7226 13.9369C21.7226 9.62151 22.8075 6.25694 24.9774 3.84323C27.1717 1.42951 30.1462 0.222656 33.9009 0.222656C37.6555 0.222656 40.6178 1.42951 42.7877 3.84323C44.982 6.25694 46.0792 9.62151 46.0792 13.9369C46.0792 18.2524 44.982 21.6169 42.7877 24.0307Z" fill="white"/>
<path d="M61.4809 27.6512C57.6287 27.6512 54.5689 26.4688 52.3014 24.1038C50.0584 21.7145 48.9369 18.3255 48.9369 13.9369C48.9369 9.59713 50.0218 6.23256 52.1917 3.84323C54.386 1.42951 57.4458 0.222656 61.3712 0.222656C63.1754 0.222656 64.687 0.332371 65.906 0.551799C66.4912 0.649322 66.9788 0.941893 67.3689 1.42951C67.759 1.91713 67.954 2.4657 67.954 3.07523V3.3678C67.954 3.8798 67.7346 4.28208 67.2957 4.57466C66.8813 4.86723 66.4302 4.95256 65.9426 4.83066C64.7479 4.5137 63.407 4.35523 61.9197 4.35523C59.506 4.35523 57.6043 5.18418 56.2146 6.84208C54.8493 8.49999 54.1666 10.8649 54.1666 13.9369C54.1666 16.9846 54.8736 19.3495 56.2877 21.0318C57.7262 22.6897 59.6401 23.5187 62.0294 23.5187C63.6386 23.5187 65.0161 23.3724 66.162 23.0798C66.6496 22.9579 67.1007 23.0432 67.5152 23.3358C67.954 23.6284 68.1734 24.0307 68.1734 24.5427V24.7987C68.1734 25.4082 67.9784 25.9568 67.5883 26.4444C67.2226 26.9076 66.735 27.188 66.1255 27.2855C64.7357 27.5293 63.1875 27.6512 61.4809 27.6512Z" fill="white"/>
<path d="M75.8092 27.2855C75.2484 27.2855 74.7608 27.0783 74.3463 26.6638C73.9562 26.2493 73.7612 25.7617 73.7612 25.2009V2.67294C73.7612 2.11218 73.9562 1.62456 74.3463 1.21008C74.7608 0.795608 75.2484 0.58837 75.8092 0.58837H76.7966C77.3574 0.58837 77.845 0.795608 78.2594 1.21008C78.6739 1.62456 78.8812 2.11218 78.8812 2.67294V12.1449C78.8812 12.1693 78.8934 12.1815 78.9177 12.1815C78.9421 12.1815 78.9543 12.1693 78.9543 12.1449L86.3052 2.27066C87.1097 1.14913 88.2069 0.58837 89.5966 0.58837H91.4252C91.8396 0.58837 92.1444 0.783417 92.3394 1.17351C92.5345 1.56361 92.4979 1.91713 92.2297 2.23408L83.8183 13.1324C83.6964 13.303 83.6964 13.4737 83.8183 13.6444L92.632 25.6032C92.9002 25.9446 92.9368 26.3103 92.7417 26.7004C92.5467 27.0905 92.2297 27.2855 91.7909 27.2855H89.9623C88.5726 27.2855 87.4876 26.7248 86.7075 25.6032L78.9543 14.6318C78.9543 14.6074 78.9421 14.5952 78.9177 14.5952C78.8934 14.5952 78.8812 14.6074 78.8812 14.6318V25.2009C78.8812 25.7617 78.6739 26.2493 78.2594 26.6638C77.845 27.0783 77.3574 27.2855 76.7966 27.2855H75.8092Z" fill="white"/>
<path d="M98.8814 27.2855C98.3207 27.2855 97.8331 27.0783 97.4186 26.6638C97.0041 26.2493 96.7969 25.7617 96.7969 25.2009V2.67294C96.7969 2.11218 97.0041 1.62456 97.4186 1.21008C97.8331 0.795608 98.3207 0.58837 98.8814 0.58837H111.316C111.877 0.58837 112.364 0.795608 112.779 1.21008C113.193 1.62456 113.4 2.11218 113.4 2.67294C113.4 3.2337 113.193 3.72132 112.779 4.1358C112.364 4.52589 111.877 4.72094 111.316 4.72094H102.246C102.027 4.72094 101.917 4.83066 101.917 5.05008V10.9381C101.917 11.1575 102.027 11.2672 102.246 11.2672H110.694C111.255 11.2672 111.718 11.4623 112.084 11.8524C112.474 12.2425 112.669 12.7057 112.669 13.2421C112.669 13.7785 112.474 14.2417 112.084 14.6318C111.718 14.9975 111.255 15.1804 110.694 15.1804H102.246C102.027 15.1804 101.917 15.2901 101.917 15.5095V22.8238C101.917 23.0432 102.027 23.1529 102.246 23.1529H111.316C111.877 23.1529 112.364 23.3602 112.779 23.7747C113.193 24.1648 113.4 24.6402 113.4 25.2009C113.4 25.7617 113.193 26.2493 112.779 26.6638C112.364 27.0783 111.877 27.2855 111.316 27.2855H98.8814Z" fill="white"/>
<path d="M119.967 4.83066C119.406 4.83066 118.919 4.63561 118.504 4.24551C118.09 3.83104 117.883 3.34342 117.883 2.78266V2.67294C117.883 2.11218 118.09 1.62456 118.504 1.21008C118.919 0.795608 119.406 0.58837 119.967 0.58837H135.547C136.107 0.58837 136.595 0.795608 137.009 1.21008C137.424 1.62456 137.631 2.11218 137.631 2.67294V2.78266C137.631 3.34342 137.424 3.83104 137.009 4.24551C136.595 4.63561 136.107 4.83066 135.547 4.83066H130.646C130.451 4.83066 130.353 4.94037 130.353 5.1598V25.2009C130.353 25.7617 130.146 26.2493 129.732 26.6638C129.317 27.0783 128.83 27.2855 128.269 27.2855H127.245C126.684 27.2855 126.196 27.0783 125.782 26.6638C125.368 26.2493 125.16 25.7617 125.16 25.2009V5.1598C125.16 4.94037 125.063 4.83066 124.868 4.83066H119.967Z" fill="white"/>
<path d="M150.376 16.2266C147.45 15.2514 145.329 14.0689 144.013 12.6792C142.72 11.2894 142.074 9.60716 142.074 7.6323C142.074 5.41364 142.818 3.65821 144.305 2.36602C145.792 1.07383 147.877 0.427734 150.559 0.427734C152.826 0.427734 154.801 0.683734 156.483 1.19573C157.069 1.3664 157.532 1.71992 157.873 2.2563C158.239 2.7683 158.422 3.34126 158.422 3.97516V4.30431C158.422 4.76754 158.214 5.13326 157.8 5.40145C157.385 5.64526 156.959 5.68183 156.52 5.51116C154.691 4.80411 152.826 4.45059 150.925 4.45059C149.705 4.45059 148.779 4.73097 148.145 5.29173C147.511 5.85249 147.194 6.63269 147.194 7.6323C147.194 9.38773 148.34 10.6434 150.632 11.3992C153.923 12.4475 156.203 13.6422 157.471 14.9832C158.763 16.3241 159.409 18.0552 159.409 20.1763C159.409 25.2963 156.252 27.8563 149.937 27.8563C147.962 27.8563 146.17 27.5515 144.561 26.942C143.976 26.7226 143.513 26.3447 143.171 25.8083C142.854 25.2719 142.696 24.6746 142.696 24.0163V23.5774C142.696 23.1142 142.891 22.7851 143.281 22.59C143.671 22.3706 144.073 22.3584 144.488 22.5534C146.097 23.358 147.792 23.7603 149.571 23.7603C152.668 23.7603 154.216 22.59 154.216 20.2494C154.216 19.2986 153.923 18.5184 153.338 17.9089C152.753 17.275 151.766 16.7142 150.376 16.2266Z" fill="#4AB8E9"/>
<path d="M169.321 4.96259V13.7763C169.321 13.947 169.419 14.0567 169.614 14.1054C170.54 14.2274 171.442 14.2883 172.32 14.2883C174.295 14.2883 175.794 13.8616 176.818 13.0083C177.867 12.1306 178.391 10.8872 178.391 9.27802C178.391 6.03535 176.367 4.41402 172.32 4.41402C171.442 4.41402 170.54 4.47497 169.614 4.59688C169.419 4.64564 169.321 4.76754 169.321 4.96259ZM166.322 27.4906C165.761 27.4906 165.274 27.2834 164.859 26.8689C164.469 26.4544 164.274 25.9668 164.274 25.406V3.06088C164.274 2.47573 164.469 1.95154 164.859 1.48831C165.249 1.02507 165.737 0.769067 166.322 0.720304C168.395 0.525258 170.394 0.427734 172.32 0.427734C175.977 0.427734 178.72 1.15916 180.549 2.62202C182.377 4.0605 183.291 6.15726 183.291 8.9123C183.291 11.9599 182.401 14.2639 180.622 15.8243C178.866 17.3847 176.257 18.1649 172.795 18.1649C171.991 18.1649 170.93 18.1161 169.614 18.0186C169.419 18.0186 169.321 18.1161 169.321 18.3112V25.406C169.321 25.9668 169.114 26.4544 168.699 26.8689C168.285 27.2834 167.797 27.4906 167.237 27.4906H166.322Z" fill="#4AB8E9"/>
<path d="M190.055 27.4906C189.494 27.4906 189.006 27.2834 188.592 26.8689C188.177 26.4544 187.97 25.9668 187.97 25.406V10.3752C187.97 9.8144 188.177 9.32678 188.592 8.91231C189.006 8.49783 189.494 8.29059 190.055 8.29059H191.517C192.078 8.29059 192.566 8.49783 192.98 8.91231C193.395 9.32678 193.602 9.8144 193.602 10.3752V25.406C193.602 25.9668 193.395 26.4544 192.98 26.8689C192.566 27.2834 192.078 27.4906 191.517 27.4906H190.055Z" fill="#4AB8E9"/>
<path d="M202.144 27.4906C201.583 27.4906 201.095 27.2834 200.681 26.8689C200.291 26.4544 200.096 25.9668 200.096 25.406V2.87802C200.096 2.31726 200.291 1.82964 200.681 1.41516C201.095 1.00069 201.583 0.793448 202.144 0.793448H202.948C204.338 0.793448 205.362 1.40297 206.02 2.62202L215.053 18.9329C215.053 18.9573 215.066 18.9694 215.09 18.9694C215.114 18.9694 215.127 18.9573 215.127 18.9329V2.87802C215.127 2.31726 215.334 1.82964 215.748 1.41516C216.163 1.00069 216.65 0.793448 217.211 0.793448H218.016C218.576 0.793448 219.052 1.00069 219.442 1.41516C219.856 1.82964 220.064 2.31726 220.064 2.87802V25.406C220.064 25.9668 219.856 26.4544 219.442 26.8689C219.052 27.2834 218.576 27.4906 218.016 27.4906H217.211C215.821 27.4906 214.797 26.8811 214.139 25.662L205.106 9.35116C205.106 9.32678 205.094 9.31459 205.069 9.31459C205.045 9.31459 205.033 9.32678 205.033 9.35116V25.406C205.033 25.9668 204.826 26.4544 204.411 26.8689C203.997 27.2834 203.509 27.4906 202.948 27.4906H202.144Z" fill="#4AB8E9"/>
<ellipse cx="9.5" cy="8.5" rx="7" ry="5.5" fill="white"/>
<path d="M15.7819 5.24176C15.7842 5.22041 15.7803 5.19885 15.7707 5.17962C15.7612 5.16038 15.7464 5.14427 15.728 5.13317C14.5047 4.38513 11.0699 4.5623 8.87877 5.69227C8.4887 5.89154 8.11674 6.12443 7.76711 6.38829C7.26937 6.17944 6.74509 6.05373 6.24779 6.10464C4.84301 6.25349 4.03277 7.55349 3.73859 8.13008C3.72229 8.16157 3.71352 8.19642 3.71296 8.23188C3.71241 8.26734 3.72009 8.30244 3.73541 8.33443C3.75072 8.36642 3.77324 8.39442 3.80121 8.41622C3.82918 8.43803 3.86182 8.45305 3.89657 8.46011L5.94413 8.87347C5.89793 9.02304 5.85937 9.17487 5.8286 9.32836C5.80569 9.43446 5.82067 9.54523 5.87093 9.64143L6.39289 10.6501C6.44228 10.7467 6.52384 10.8231 6.6235 10.866C6.76563 10.9295 6.91087 10.9858 7.05868 11.0347L6.21094 12.9408C6.1966 12.9732 6.18996 13.0085 6.19155 13.0439C6.19314 13.0793 6.20292 13.1139 6.2201 13.1449C6.23729 13.1759 6.26143 13.2025 6.29062 13.2226C6.31981 13.2427 6.35326 13.2558 6.38835 13.2608C7.0268 13.3573 8.5583 13.4511 9.4905 12.3915C9.82017 12.0157 10.0219 11.5185 10.1407 10.9947C10.5592 10.8629 10.9654 10.6949 11.3547 10.4926C13.5502 9.36683 15.6566 6.73651 15.7819 5.24176ZM10.3238 7.9842C10.2202 7.78358 10.1784 7.55674 10.2038 7.33237C10.2291 7.10801 10.3204 6.8962 10.4661 6.72373C10.6119 6.55127 10.8055 6.4259 11.0225 6.36348C11.2395 6.30107 11.4701 6.30441 11.6852 6.37309C11.9003 6.44177 12.0902 6.57269 12.2309 6.74931C12.3715 6.92592 12.4567 7.14029 12.4755 7.36529C12.4943 7.5903 12.446 7.81583 12.3366 8.01337C12.2273 8.21091 12.0618 8.37157 11.8611 8.47504C11.7279 8.54386 11.5825 8.58575 11.4332 8.59833C11.2838 8.6109 11.1335 8.59391 10.9907 8.54833C10.8479 8.50274 10.7155 8.42945 10.6011 8.33265C10.4866 8.23585 10.3924 8.11745 10.3238 7.9842Z" fill="#0C0C0C"/>
<path d="M8.16333 10.1883C7.99948 10.273 7.78487 10.2579 7.53196 10.2229C6.96418 10.1427 6.63725 9.52556 6.90779 9.01208C7.01061 8.81749 7.21217 8.56307 7.30183 8.5168C7.32133 8.50698 7.33725 8.49126 7.34731 8.47187C7.35738 8.45249 7.36108 8.43043 7.35789 8.40882C7.3547 8.38721 7.34478 8.36716 7.32955 8.35151C7.31432 8.33586 7.29454 8.3254 7.27303 8.32163C6.96014 8.26233 6.63641 8.30941 6.35337 8.45537C5.65058 8.81836 -0.00137327 12.501 -0.00137327 12.501C-0.00137327 12.501 6.96387 11.3618 7.66665 10.9988C7.95023 10.8531 8.1765 10.6162 8.30903 10.3262C8.34765 10.2342 8.25035 10.141 8.16333 10.1883Z" fill="#0C0C0C"/>
<ellipse cx="11.5" cy="7.5" rx="2" ry="1.5" fill="#0C0C0C"/>
<path d="M189.54 1.36321C190.079 0.454403 190.348 0 190.75 0C191.152 0 191.421 0.454403 191.96 1.36321L192.099 1.59841C192.252 1.85681 192.329 1.98601 192.448 2.07121C192.567 2.15641 192.716 2.18801 193.013 2.25121L193.283 2.30882C194.329 2.53162 194.851 2.64282 194.976 3.01922C195.1 3.39522 194.744 3.78762 194.031 4.57203L193.846 4.77483C193.644 4.99763 193.543 5.10923 193.497 5.24683C193.452 5.38483 193.467 5.53364 193.498 5.83084L193.526 6.10164C193.633 7.14845 193.687 7.67165 193.362 7.90405C193.036 8.13645 192.546 7.92445 191.568 7.50045L191.314 7.39085C191.036 7.27005 190.897 7.21005 190.75 7.21005C190.603 7.21005 190.464 7.27005 190.186 7.39085L189.932 7.50045C188.954 7.92445 188.464 8.13645 188.139 7.90445C187.813 7.67165 187.867 7.14845 187.974 6.10164L188.002 5.83124C188.033 5.53364 188.048 5.38483 188.002 5.24723C187.957 5.10923 187.856 4.99763 187.654 4.77523L187.469 4.57203C186.756 3.78802 186.4 3.39562 186.524 3.01922C186.648 2.64282 187.172 2.53122 188.217 2.30882L188.487 2.25121C188.784 2.18801 188.933 2.15641 189.052 2.07121C189.172 1.98601 189.248 1.85681 189.401 1.59841L189.54 1.36321Z" fill="white"/>
</svg>
