<svg width="178" height="43" viewBox="0 0 178 43" fill="none" xmlns="http://www.w3.org/2000/svg">
<path d="M11.7108 27.3142L12.3681 42.0722L0 41.5942L1.43398 0.546593L21.6889 0.666094L22.7047 12.5562L11.0536 12.3769L11.1133 18.1128L18.0442 17.9933V27.7922L11.7108 27.3142Z" fill="white"/>
<path d="M37.2974 13.3926L47.873 13.5719L46.0208 42.4905L37.1779 41.893V40.7577C31.9599 40.6781 28.0961 39.7619 25.5866 38.0093C22.639 35.9778 21.0855 32.592 20.9262 27.8519C20.8864 23.5102 23.2763 20.0049 28.0961 17.3361C30.725 15.8623 33.7922 14.7868 37.2974 14.1096V13.3926ZM37.2377 31.0186V24.5657C33.5332 25.3624 31.6412 26.5175 31.5615 28.0312C31.6412 29.027 31.9798 29.7639 32.5773 30.2419C33.5332 31.0385 35.0867 31.2975 37.2377 31.0186Z" fill="white"/>
<path d="M53.9954 13.2732L54.3539 4.84853H61.9421L62.0018 13.2732L66.961 13.0939L65.4075 19.7858L62.3006 19.9053L62.7786 33.8866H66.961L67.0207 41.8332H66.483C64.4914 41.9527 62.5196 42.0523 60.5678 42.132C59.2932 42.1718 58.1978 42.1917 57.2816 42.1917C55.29 42.1917 54.1548 42.0722 53.8759 41.8332C53.3581 41.5146 53.0992 40.1204 53.0992 37.6508C53.0992 35.7786 53.1988 33.2692 53.3979 30.1224C53.5971 26.9756 53.8759 23.6097 54.2344 20.0248L49.2753 20.2638L50.9482 13.1537L53.9954 13.2732Z" fill="white"/>
<path d="M81.0291 27.3142L81.6863 42.0722L69.3183 41.5942L70.7523 0.546593L91.0072 0.666094L92.0229 12.5562L80.3719 12.3769L80.4316 18.1128L87.3625 17.9933V27.7922L81.0291 27.3142Z" fill="white"/>
<path d="M117.023 22.6538L117.202 23.1915L107.941 24.9242L107.821 24.4462C107.821 24.3267 107.802 24.1674 107.762 23.9682C107.722 23.7691 107.622 23.4504 107.463 23.0123C107.304 22.5343 107.124 22.116 106.925 21.7575C106.726 21.399 106.427 21.1003 106.029 20.8613C105.67 20.5825 105.272 20.463 104.834 20.5028H104.774C104.615 20.5028 104.456 20.6024 104.296 20.8015C103.699 21.5584 103.38 23.3707 103.34 26.2387C103.34 29.1067 103.48 31.8352 103.758 34.4243C104.037 36.9736 104.336 39.3238 104.655 41.4747L104.714 42.0722L93.7206 42.0125L93.5414 13.8109L100.592 12.9744L100.472 15.0059C101.627 13.6117 103.121 12.8947 104.953 12.8549H105.013C108.399 12.8549 111.426 14.508 114.095 17.8141C115.37 19.4074 116.346 21.0206 117.023 22.6538Z" fill="white"/>
<path d="M144.198 13.5121C144.637 16.2606 144.816 19.3875 144.736 22.8928C144.577 29.7838 143.103 34.8426 140.315 38.069C138.164 40.5387 135.296 41.7735 131.711 41.7735C131.591 41.7735 131.492 41.7735 131.412 41.7735C127.708 41.6938 124.76 40.3594 122.569 37.7703C119.861 34.5438 118.387 29.6245 118.148 23.0123C117.988 19.746 118.108 16.7784 118.506 14.1096L118.566 13.6914L128.903 13.3926L128.843 13.9901C128.763 14.4283 128.684 15.0258 128.604 15.7826C128.524 16.5394 128.425 17.8937 128.305 19.8456C128.225 21.7974 128.186 23.5898 128.186 25.223C128.225 26.8561 128.405 28.5092 128.723 30.1821C129.042 31.8153 129.52 32.9704 130.157 33.6476C130.556 34.0858 131.034 34.2849 131.591 34.2451C132.109 34.2451 132.567 34.0061 132.966 33.5281C133.563 32.8111 134.001 31.636 134.28 30.0029C134.599 28.3299 134.758 26.6769 134.758 25.0437C134.798 23.3707 134.758 21.5584 134.639 19.6066C134.559 17.6548 134.479 16.2805 134.4 15.4839C134.32 14.6872 134.26 14.0897 134.22 13.6914L134.101 13.0939H144.079L144.198 13.5121Z" fill="white"/>
<path d="M148.884 12.7952L157.906 13.2732L158.504 41.415L147.032 41.9527L148.884 12.7952ZM154.919 0.0686034C156.512 0.427098 157.707 1.24367 158.504 2.51831C159.34 3.79296 159.659 5.10744 159.46 6.46176C159.26 7.45757 158.763 8.29406 157.966 8.97122C157.209 9.64837 156.134 9.98695 154.739 9.98695C154.461 9.98695 154.182 9.98695 153.903 9.98695C152.19 9.74795 150.955 9.13055 150.198 8.13473C149.442 7.13891 149.123 6.06343 149.242 4.90828C149.402 3.55397 149.999 2.3789 151.035 1.38308C152.071 0.387264 153.345 -0.0708129 154.859 0.0088515L154.919 0.0686034Z" fill="white"/>
<path d="M164.975 13.2732L165.333 4.84853H172.921L172.981 13.2732L177.94 13.0939L176.387 19.7858L173.28 19.9053L173.758 33.8866H177.94L178 41.8332H177.462C175.471 41.9527 173.499 42.0523 171.547 42.132C170.272 42.1718 169.177 42.1917 168.261 42.1917C166.269 42.1917 165.134 42.0722 164.855 41.8332C164.337 41.5146 164.078 40.1204 164.078 37.6508C164.078 35.7786 164.178 33.2692 164.377 30.1224C164.576 26.9756 164.855 23.6097 165.214 20.0248L160.255 20.2638L161.927 13.1537L164.975 13.2732Z" fill="white"/>
</svg>
