<svg width="276" height="34" viewBox="0 0 276 34" fill="none" xmlns="http://www.w3.org/2000/svg">
<path d="M7.66131 28.1583H0V0.668164H13.663C14.9495 0.668164 16.191 0.820887 17.3875 1.12633C18.584 1.41905 19.6389 1.88995 20.5524 2.53902C21.4787 3.17537 22.212 4.00262 22.7523 5.02077C23.3056 6.03893 23.5822 7.27344 23.5822 8.72431C23.5822 9.85701 23.3377 10.9261 22.8488 11.9315C22.3728 12.9242 21.7295 13.8151 20.919 14.6042C20.1214 15.3805 19.2015 16.0296 18.1594 16.5514C17.1173 17.0605 16.0366 17.3977 14.9174 17.5632C15.4191 18.4031 15.9401 19.1986 16.4805 19.9495C17.0337 20.7004 17.5869 21.4067 18.1401 22.0685C18.7062 22.7176 19.2658 23.3221 19.819 23.8821C20.3723 24.4293 20.8997 24.9321 21.4015 25.3902C22.5851 26.4593 23.7558 27.382 24.9137 28.1583H15.3612C14.5893 27.4329 13.856 26.5611 13.1612 25.543C12.5694 24.6775 11.9712 23.6085 11.3665 22.3358C10.7747 21.0503 10.318 19.5677 9.99636 17.8877H7.66131V28.1583ZM15.8051 8.72431C15.8051 6.87891 15.3483 5.52349 14.4349 4.65806C13.5343 3.79263 12.177 3.35991 10.363 3.35991H7.66131V15.2914H10.363C11.3279 15.2914 12.1513 15.1132 12.8332 14.7569C13.5279 14.3878 14.094 13.9042 14.5314 13.306C14.9688 12.6951 15.2904 11.9951 15.4963 11.2061C15.7021 10.417 15.8051 9.58974 15.8051 8.72431Z" fill="url(#paint0_linear_2740_15551)"/>
<path d="M57.2572 14.3751C57.2572 16.5896 56.8712 18.5877 56.0993 20.3695C55.3274 22.1385 54.2595 23.6403 52.8958 24.8748C51.5321 26.1093 49.9175 27.0575 48.052 27.7193C46.1865 28.3811 44.1667 28.712 41.9925 28.712C39.8182 28.712 37.7983 28.3811 35.9329 27.7193C34.0674 27.0575 32.4528 26.1093 31.0891 24.8748C29.7254 23.6403 28.6575 22.1385 27.8856 20.3695C27.1137 18.5877 26.7277 16.5896 26.7277 14.3751C26.7277 12.1224 27.1073 10.1115 27.8663 8.3425C28.6382 6.56073 29.6996 5.05896 31.0505 3.83717C32.4142 2.60266 34.0288 1.66086 35.8943 1.01179C37.7598 0.349991 39.7925 0.0190904 41.9925 0.0190904C44.1924 0.0190904 46.2251 0.349991 48.0906 1.01179C49.9561 1.66086 51.5643 2.60266 52.9151 3.83717C54.2788 5.05896 55.3402 6.56073 56.0993 8.3425C56.8712 10.1115 57.2572 12.1224 57.2572 14.3751ZM49.4608 14.3751C49.4608 13.5351 49.4222 12.676 49.345 11.7979C49.2678 10.9197 49.1263 10.067 48.9204 9.23975C48.7146 8.4125 48.4315 7.63616 48.0713 6.91072C47.724 6.18529 47.2737 5.55531 46.7205 5.02077C46.1672 4.47352 45.4982 4.04716 44.7135 3.74172C43.9415 3.42354 43.0345 3.26446 41.9925 3.26446C40.9375 3.26446 40.0176 3.42354 39.2328 3.74172C38.448 4.04716 37.779 4.46715 37.2258 5.00168C36.6726 5.53622 36.2223 6.1662 35.875 6.89163C35.5276 7.61707 35.251 8.39341 35.0452 9.22066C34.8522 10.0352 34.7171 10.8879 34.6399 11.7788C34.5627 12.6569 34.5241 13.5224 34.5241 14.3751C34.5241 15.215 34.5627 16.0741 34.6399 16.9523C34.7171 17.8304 34.8586 18.6831 35.0645 19.5104C35.2703 20.3249 35.5469 21.0949 35.8943 21.8203C36.2545 22.5458 36.7112 23.1821 37.2644 23.7294C37.8176 24.2639 38.4802 24.6902 39.2521 25.0084C40.0369 25.3266 40.9504 25.4857 41.9925 25.4857C43.0088 25.4857 43.8965 25.3266 44.6556 25.0084C45.4146 24.6775 46.0708 24.2384 46.624 23.6912C47.1772 23.1312 47.6339 22.4885 47.9941 21.7631C48.3672 21.0249 48.6567 20.2485 48.8625 19.434C49.0812 18.6068 49.2356 17.7604 49.3257 16.895C49.4157 16.0296 49.4608 15.1896 49.4608 14.3751Z" fill="url(#paint1_linear_2740_15551)"/>
<path d="M83.3481 0.668164L74.3552 16.6086V28.1583H66.6939V17.0286L57.6045 0.668164H65.4202L71.4605 14.4896L77.9446 0.668164H83.3481Z" fill="url(#paint2_linear_2740_15551)"/>
<path d="M111.33 15.0051V15.3678C111.304 16.4368 111.189 17.5441 110.983 18.6895C110.79 19.8349 110.513 20.9803 110.153 22.1258C109.793 23.2712 109.362 24.4039 108.86 25.5239C108.358 26.6438 107.792 27.7129 107.162 28.7311C106.544 29.7619 105.875 30.7228 105.155 31.6137C104.434 32.5173 103.675 33.3127 102.878 34L100.002 32.3582C100.453 31.6073 100.858 30.7864 101.218 29.8956C101.591 29.0174 101.926 28.0947 102.221 27.1275C102.517 26.1602 102.768 25.1675 102.974 24.1494C103.193 23.1312 103.373 22.1194 103.514 21.114C103.656 20.1086 103.759 19.1222 103.823 18.155C103.9 17.175 103.939 16.2459 103.939 15.3678C103.939 14.6805 103.933 13.9042 103.92 13.0387C103.92 12.1606 103.868 11.2697 103.765 10.3661C103.675 9.46247 103.521 8.58432 103.302 7.73161C103.083 6.86618 102.755 6.0962 102.318 5.42167C101.893 4.74715 101.34 4.20625 100.658 3.79899C99.9894 3.39173 99.1531 3.1881 98.1496 3.1881C97.2619 3.1881 96.4964 3.34082 95.8532 3.64627C95.2228 3.93899 94.6824 4.33988 94.2321 4.84896C93.7947 5.34531 93.4409 5.92439 93.1707 6.58619C92.9134 7.24799 92.7076 7.94797 92.5532 8.68613C92.4117 9.41157 92.3152 10.1497 92.2637 10.9006C92.2251 11.6388 92.2058 12.3388 92.2058 13.0006V18.3268H100.523V21.4767H92.2058V28.1583H84.5445V14.1842C84.5445 12.186 84.8662 10.3279 85.5094 8.60977C86.1527 6.89163 87.0597 5.40258 88.2304 4.14262C89.4141 2.86992 90.8292 1.87722 92.476 1.16451C94.1356 0.439079 95.9818 0.0763616 98.0145 0.0763616C99.3911 0.0763616 100.678 0.273629 101.874 0.668164C103.083 1.04997 104.183 1.5845 105.174 2.27176C106.165 2.94629 107.046 3.75445 107.818 4.69624C108.603 5.6253 109.252 6.64346 109.767 7.7507C110.294 8.85795 110.693 10.0288 110.963 11.2633C111.234 12.4978 111.356 13.7451 111.33 15.0051Z" fill="url(#paint3_linear_2740_15551)"/>
<path d="M136.282 28.1583H116.328V0.668164H123.99V24.6648H136.282V28.1583Z" fill="url(#paint4_linear_2740_15551)"/>
<path d="M173.875 19.7586C173.875 20.9422 173.721 21.9858 173.412 22.8894C173.116 23.793 172.691 24.5757 172.138 25.2375C171.598 25.8993 170.955 26.4529 170.208 26.8984C169.462 27.3438 168.645 27.7002 167.758 27.9674C166.883 28.2347 165.95 28.4256 164.959 28.5401C163.982 28.6547 162.984 28.712 161.968 28.712C160.63 28.712 159.395 28.6101 158.263 28.4065C157.131 28.2156 156.063 27.9102 155.059 27.4902C154.069 27.0575 153.11 26.5038 152.184 25.8293C151.271 25.1548 150.357 24.3339 149.444 23.3666L153.38 19.4149C153.741 20.2931 154.236 21.1076 154.866 21.8585C155.497 22.5967 156.185 23.233 156.931 23.7675C157.69 24.3021 158.475 24.7221 159.286 25.0275C160.096 25.333 160.862 25.4857 161.582 25.4857C162.431 25.4857 163.229 25.4284 163.975 25.3139C164.721 25.1866 165.371 24.983 165.924 24.703C166.477 24.423 166.908 24.0539 167.217 23.5957C167.539 23.1248 167.7 22.5394 167.7 21.8394C167.7 21.3049 167.577 20.8467 167.333 20.4649C167.089 20.0831 166.767 19.7586 166.368 19.4913C165.982 19.2113 165.538 18.9759 165.036 18.785C164.535 18.594 164.02 18.435 163.493 18.3077C162.978 18.1677 162.47 18.0468 161.968 17.945C161.466 17.8304 161.023 17.7159 160.637 17.6013C159.877 17.385 159.086 17.1559 158.263 16.9141C157.439 16.6596 156.629 16.3732 155.831 16.055C155.034 15.7369 154.275 15.3741 153.554 14.9669C152.847 14.5469 152.223 14.0569 151.682 13.4969C151.142 12.9242 150.711 12.2688 150.389 11.5306C150.068 10.7797 149.907 9.92064 149.907 8.9534C149.907 7.79525 150.048 6.77073 150.331 5.87984C150.627 4.97623 151.039 4.19352 151.566 3.53172C152.094 2.86992 152.718 2.3163 153.438 1.87086C154.159 1.41269 154.95 1.04997 155.812 0.782706C156.674 0.502714 157.587 0.305446 158.552 0.190904C159.53 0.0636347 160.527 0 161.544 0C162.933 0 164.194 0.127269 165.326 0.381808C166.471 0.636347 167.526 0.999064 168.491 1.46996C169.456 1.94086 170.337 2.50721 171.135 3.16901C171.945 3.81808 172.704 4.54352 173.412 5.34531L169.475 9.29702C169.166 8.38069 168.735 7.55343 168.182 6.81527C167.642 6.07711 167.037 5.44713 166.368 4.92532C165.699 4.39079 164.998 3.98353 164.265 3.70354C163.531 3.41082 162.824 3.26446 162.142 3.26446C161.254 3.26446 160.437 3.32809 159.691 3.45536C158.945 3.5699 158.301 3.76717 157.761 4.04716C157.234 4.31443 156.822 4.68351 156.526 5.15441C156.23 5.61258 156.082 6.18529 156.082 6.87254C156.082 7.4198 156.192 7.88433 156.41 8.26614C156.629 8.64795 156.918 8.97249 157.279 9.23975C157.652 9.50702 158.07 9.72974 158.533 9.90792C158.996 10.0734 159.472 10.2197 159.961 10.347C160.463 10.4743 160.952 10.5888 161.428 10.6906C161.917 10.7797 162.36 10.8815 162.759 10.9961C163.531 11.2124 164.342 11.4415 165.191 11.6833C166.04 11.9251 166.876 12.2115 167.7 12.5424C168.523 12.8606 169.308 13.2296 170.054 13.6496C170.8 14.0696 171.456 14.5723 172.022 15.1578C172.588 15.7305 173.039 16.3987 173.373 17.1623C173.708 17.9132 173.875 18.7786 173.875 19.7586Z" fill="url(#paint5_linear_2740_15551)"/>
<path d="M186.322 28.1583H178.661V0.668164H193.675C194.974 0.668164 196.216 0.839978 197.399 1.1836C198.596 1.52723 199.651 2.04904 200.564 2.74902C201.478 3.43627 202.204 4.30807 202.745 5.3644C203.298 6.40801 203.575 7.63616 203.575 9.04885C203.575 9.93973 203.446 10.7797 203.189 11.5688C202.931 12.3451 202.571 13.0578 202.108 13.7069C201.658 14.356 201.124 14.9414 200.506 15.4632C199.889 15.985 199.213 16.4241 198.48 16.7805C197.747 17.1368 196.968 17.4104 196.145 17.6013C195.334 17.7923 194.511 17.8877 193.675 17.8877H186.322V28.1583ZM195.817 9.04885C195.817 7.27981 195.36 5.89257 194.447 4.88714C193.546 3.86899 192.182 3.35991 190.355 3.35991H186.322V15.2914H190.355C191.333 15.2914 192.163 15.1387 192.845 14.8332C193.54 14.5151 194.106 14.076 194.543 13.516C194.981 12.956 195.302 12.3006 195.508 11.5497C195.714 10.7861 195.817 9.95246 195.817 9.04885Z" fill="url(#paint6_linear_2740_15551)"/>
<path d="M215.231 28.1583H207.569V0.668164H215.231V28.1583Z" fill="url(#paint7_linear_2740_15551)"/>
<path d="M225.092 28.1583H221.541V0.668164H226.52L243.406 19.5486V0.668164H246.937V28.1583H241.958L225.092 9.29702V28.1583Z" fill="url(#paint8_linear_2740_15551)"/>
<path d="M276 19.7586C276 20.9422 275.846 21.9858 275.537 22.8894C275.241 23.793 274.816 24.5757 274.263 25.2375C273.723 25.8993 273.08 26.4529 272.333 26.8984C271.587 27.3438 270.77 27.7002 269.883 27.9674C269.008 28.2347 268.075 28.4256 267.084 28.5401C266.107 28.6547 265.109 28.712 264.093 28.712C262.755 28.712 261.52 28.6101 260.388 28.4065C259.256 28.2156 258.188 27.9102 257.184 27.4902C256.194 27.0575 255.235 26.5038 254.309 25.8293C253.396 25.1548 252.482 24.3339 251.569 23.3666L255.506 19.4149C255.866 20.2931 256.361 21.1076 256.991 21.8585C257.622 22.5967 258.31 23.233 259.056 23.7675C259.815 24.3021 260.6 24.7221 261.411 25.0275C262.221 25.333 262.987 25.4857 263.707 25.4857C264.556 25.4857 265.354 25.4284 266.1 25.3139C266.846 25.1866 267.496 24.983 268.049 24.703C268.602 24.423 269.033 24.0539 269.342 23.5957C269.664 23.1248 269.825 22.5394 269.825 21.8394C269.825 21.3049 269.702 20.8467 269.458 20.4649C269.214 20.0831 268.892 19.7586 268.493 19.4913C268.107 19.2113 267.663 18.9759 267.161 18.785C266.66 18.594 266.145 18.435 265.618 18.3077C265.103 18.1677 264.595 18.0468 264.093 17.945C263.591 17.8304 263.148 17.7159 262.762 17.6013C262.003 17.385 261.211 17.1559 260.388 16.9141C259.565 16.6596 258.754 16.3732 257.956 16.055C257.159 15.7369 256.4 15.3741 255.679 14.9669C254.972 14.5469 254.348 14.0569 253.807 13.4969C253.267 12.9242 252.836 12.2688 252.514 11.5306C252.193 10.7797 252.032 9.92064 252.032 8.9534C252.032 7.79525 252.173 6.77073 252.456 5.87984C252.752 4.97623 253.164 4.19352 253.691 3.53172C254.219 2.86992 254.843 2.3163 255.563 1.87086C256.284 1.41269 257.075 1.04997 257.937 0.782706C258.799 0.502714 259.712 0.305446 260.677 0.190904C261.655 0.0636347 262.652 0 263.669 0C265.058 0 266.319 0.127269 267.451 0.381808C268.596 0.636347 269.651 0.999064 270.616 1.46996C271.581 1.94086 272.462 2.50721 273.26 3.16901C274.07 3.81808 274.829 4.54352 275.537 5.34531L271.6 9.29702C271.291 8.38069 270.86 7.55343 270.307 6.81527C269.767 6.07711 269.162 5.44713 268.493 4.92532C267.824 4.39079 267.123 3.98353 266.39 3.70354C265.656 3.41082 264.949 3.26446 264.267 3.26446C263.379 3.26446 262.562 3.32809 261.816 3.45536C261.07 3.5699 260.427 3.76717 259.886 4.04716C259.359 4.31443 258.947 4.68351 258.651 5.15441C258.355 5.61258 258.207 6.18529 258.207 6.87254C258.207 7.4198 258.317 7.88433 258.535 8.26614C258.754 8.64795 259.043 8.97249 259.404 9.23975C259.777 9.50702 260.195 9.72974 260.658 9.90792C261.121 10.0734 261.597 10.2197 262.086 10.347C262.588 10.4743 263.077 10.5888 263.553 10.6906C264.042 10.7797 264.486 10.8815 264.884 10.9961C265.656 11.2124 266.467 11.4415 267.316 11.6833C268.165 11.9251 269.001 12.2115 269.825 12.5424C270.648 12.8606 271.433 13.2296 272.179 13.6496C272.925 14.0696 273.581 14.5723 274.147 15.1578C274.713 15.7305 275.164 16.3987 275.498 17.1623C275.833 17.9132 276 18.7786 276 19.7586Z" fill="url(#paint9_linear_2740_15551)"/>
<defs>
<linearGradient id="paint0_linear_2740_15551" x1="52.1343" y1="34" x2="223.726" y2="-0.688829" gradientUnits="userSpaceOnUse">
<stop stop-color="#FBC82C"/>
<stop offset="0.15" stop-color="#FEFB6C"/>
<stop offset="0.3" stop-color="#DA961E"/>
<stop offset="0.455" stop-color="#E98B1F"/>
<stop offset="0.66" stop-color="#FCB525"/>
<stop offset="0.795" stop-color="#FCFB4D"/>
<stop offset="1" stop-color="#FCB726"/>
</linearGradient>
<linearGradient id="paint1_linear_2740_15551" x1="52.1343" y1="34" x2="223.726" y2="-0.688829" gradientUnits="userSpaceOnUse">
<stop stop-color="#FBC82C"/>
<stop offset="0.15" stop-color="#FEFB6C"/>
<stop offset="0.3" stop-color="#DA961E"/>
<stop offset="0.455" stop-color="#E98B1F"/>
<stop offset="0.66" stop-color="#FCB525"/>
<stop offset="0.795" stop-color="#FCFB4D"/>
<stop offset="1" stop-color="#FCB726"/>
</linearGradient>
<linearGradient id="paint2_linear_2740_15551" x1="52.1343" y1="34" x2="223.726" y2="-0.688829" gradientUnits="userSpaceOnUse">
<stop stop-color="#FBC82C"/>
<stop offset="0.15" stop-color="#FEFB6C"/>
<stop offset="0.3" stop-color="#DA961E"/>
<stop offset="0.455" stop-color="#E98B1F"/>
<stop offset="0.66" stop-color="#FCB525"/>
<stop offset="0.795" stop-color="#FCFB4D"/>
<stop offset="1" stop-color="#FCB726"/>
</linearGradient>
<linearGradient id="paint3_linear_2740_15551" x1="52.1343" y1="34" x2="223.726" y2="-0.688829" gradientUnits="userSpaceOnUse">
<stop stop-color="#FBC82C"/>
<stop offset="0.15" stop-color="#FEFB6C"/>
<stop offset="0.3" stop-color="#DA961E"/>
<stop offset="0.455" stop-color="#E98B1F"/>
<stop offset="0.66" stop-color="#FCB525"/>
<stop offset="0.795" stop-color="#FCFB4D"/>
<stop offset="1" stop-color="#FCB726"/>
</linearGradient>
<linearGradient id="paint4_linear_2740_15551" x1="52.1343" y1="34" x2="223.726" y2="-0.688829" gradientUnits="userSpaceOnUse">
<stop stop-color="#FBC82C"/>
<stop offset="0.15" stop-color="#FEFB6C"/>
<stop offset="0.3" stop-color="#DA961E"/>
<stop offset="0.455" stop-color="#E98B1F"/>
<stop offset="0.66" stop-color="#FCB525"/>
<stop offset="0.795" stop-color="#FCFB4D"/>
<stop offset="1" stop-color="#FCB726"/>
</linearGradient>
<linearGradient id="paint5_linear_2740_15551" x1="52.1343" y1="34" x2="223.726" y2="-0.688829" gradientUnits="userSpaceOnUse">
<stop stop-color="#FBC82C"/>
<stop offset="0.15" stop-color="#FEFB6C"/>
<stop offset="0.3" stop-color="#DA961E"/>
<stop offset="0.455" stop-color="#E98B1F"/>
<stop offset="0.66" stop-color="#FCB525"/>
<stop offset="0.795" stop-color="#FCFB4D"/>
<stop offset="1" stop-color="#FCB726"/>
</linearGradient>
<linearGradient id="paint6_linear_2740_15551" x1="52.1343" y1="34" x2="223.726" y2="-0.688829" gradientUnits="userSpaceOnUse">
<stop stop-color="#FBC82C"/>
<stop offset="0.15" stop-color="#FEFB6C"/>
<stop offset="0.3" stop-color="#DA961E"/>
<stop offset="0.455" stop-color="#E98B1F"/>
<stop offset="0.66" stop-color="#FCB525"/>
<stop offset="0.795" stop-color="#FCFB4D"/>
<stop offset="1" stop-color="#FCB726"/>
</linearGradient>
<linearGradient id="paint7_linear_2740_15551" x1="52.1343" y1="34" x2="223.726" y2="-0.688829" gradientUnits="userSpaceOnUse">
<stop stop-color="#FBC82C"/>
<stop offset="0.15" stop-color="#FEFB6C"/>
<stop offset="0.3" stop-color="#DA961E"/>
<stop offset="0.455" stop-color="#E98B1F"/>
<stop offset="0.66" stop-color="#FCB525"/>
<stop offset="0.795" stop-color="#FCFB4D"/>
<stop offset="1" stop-color="#FCB726"/>
</linearGradient>
<linearGradient id="paint8_linear_2740_15551" x1="52.1343" y1="34" x2="223.726" y2="-0.688829" gradientUnits="userSpaceOnUse">
<stop stop-color="#FBC82C"/>
<stop offset="0.15" stop-color="#FEFB6C"/>
<stop offset="0.3" stop-color="#DA961E"/>
<stop offset="0.455" stop-color="#E98B1F"/>
<stop offset="0.66" stop-color="#FCB525"/>
<stop offset="0.795" stop-color="#FCFB4D"/>
<stop offset="1" stop-color="#FCB726"/>
</linearGradient>
<linearGradient id="paint9_linear_2740_15551" x1="52.1343" y1="34" x2="223.726" y2="-0.688829" gradientUnits="userSpaceOnUse">
<stop stop-color="#FBC82C"/>
<stop offset="0.15" stop-color="#FEFB6C"/>
<stop offset="0.3" stop-color="#DA961E"/>
<stop offset="0.455" stop-color="#E98B1F"/>
<stop offset="0.66" stop-color="#FCB525"/>
<stop offset="0.795" stop-color="#FCFB4D"/>
<stop offset="1" stop-color="#FCB726"/>
</linearGradient>
</defs>
</svg>
