<svg width="128" height="48" viewBox="0 0 128 48" fill="none" xmlns="http://www.w3.org/2000/svg">
<path d="M14.4772 34.9838C15.4638 35.339 15.9803 35.8727 16.0267 36.5849C16.0555 37.027 15.8621 37.4711 15.4465 37.9174C15.0309 38.3637 14.5458 38.6911 13.9912 38.8998C12.6478 39.135 11.694 39.2833 11.1298 39.3446C7.85094 39.8289 5.54301 40.2377 4.20599 40.5712C3.99419 40.7329 3.53158 40.837 2.81817 40.8833C2.12936 40.928 1.49354 40.6487 0.910721 40.0453C0.352499 39.4404 0.0509806 38.794 0.00616618 38.1064C-0.0114395 37.8362 0.00865566 37.576 0.0664517 37.3256L3.57494 18.3786C3.77512 17.2804 4.01161 16.5499 4.2844 16.1869C4.5802 15.7977 5.13401 15.5768 5.94582 15.524C6.61003 15.4809 7.18064 15.5178 7.65765 15.6348C8.15926 15.7502 8.43197 15.9545 8.47578 16.2476C8.52059 16.9352 7.36921 23.7183 5.02162 36.5968C7.16245 36.0878 9.89849 35.6142 13.2297 35.1758L14.4772 34.9838Z" fill="url(#paint0_linear_1466_47175)"/>
<path d="M31.8198 38.4447C31.7486 38.8686 31.5456 39.1654 31.2108 39.3351C30.8776 39.5294 30.4281 39.6449 29.8622 39.6817C28.1648 39.7919 27.2913 39.4664 27.2417 38.7051L27.3719 37.2908C26.7167 37.8513 25.9385 38.4198 25.0373 38.9962C24.136 39.5727 23.3779 39.8809 22.7629 39.9208C19.1221 40.1573 17.224 39.0844 17.0688 36.7022C16.8047 32.65 17.7359 28.1749 19.8624 23.2768C20.1208 22.6928 20.4019 22.2676 20.7057 22.0012C21.0341 21.7333 21.6042 21.5729 22.4161 21.5202C23.2771 21.4643 23.9247 21.5455 24.3589 21.7639C24.8161 21.9562 25.0551 22.212 25.0759 22.5312C25.0807 22.6049 24.9598 22.8347 24.7132 23.2207C24.4634 23.5575 24.2505 23.892 24.0745 24.224C22.0134 28.23 21.102 32.0626 21.3405 35.7219C21.3613 36.0411 21.5027 36.3156 21.7647 36.5452C22.0268 36.7748 22.2562 36.8832 22.453 36.8704C22.9942 36.8353 23.8876 36.5183 25.1332 35.9195C26.4034 35.319 27.3653 34.7263 28.0189 34.1413L28.5625 31.1094C29.216 27.4909 29.6271 25.2692 29.7956 24.4443C30.0022 23.4444 30.2946 22.6239 30.6728 21.9827C31.074 21.3155 31.742 20.9515 32.6768 20.8907C33.9806 20.806 34.6582 21.1566 34.7094 21.9425C34.7174 22.0653 34.6909 22.2274 34.6299 22.4286C34.5919 22.6037 34.5646 22.7535 34.548 22.8779L33.4609 28.9416C32.589 33.7581 32.0419 36.9258 31.8198 38.4447Z" fill="url(#paint1_linear_1466_47175)"/>
<path d="M52.6926 32.8346C52.4486 33.6397 51.9225 34.4754 51.1143 35.3418C50.3045 36.1836 49.2522 36.9055 47.9574 37.5075C46.6626 38.1096 45.228 38.4617 43.6536 38.5639C41.2427 38.7205 39.4272 38.3452 38.207 37.4379C36.9851 36.5061 36.3222 35.2421 36.2181 33.6457C36.0677 31.3372 36.5189 29.1622 37.5716 27.1208C38.6228 25.0548 40.1071 23.38 42.0245 22.0963C43.9419 20.8126 46.0322 20.0973 48.2955 19.9503C49.6977 19.8592 50.8811 20.2016 51.8458 20.9775C52.8334 21.7272 53.3728 22.802 53.4641 24.2019C53.4993 24.7422 53.3075 25.2109 52.8887 25.608C52.4683 25.9806 51.8891 26.1909 51.1511 26.2388C50.5606 26.2772 50.1459 26.1684 49.9069 25.9127C49.6925 25.6553 49.5709 25.3056 49.5421 24.8635L49.5238 24.0139C49.5046 23.7192 49.3295 23.4962 48.9985 23.3451C48.6659 23.1694 48.315 23.0935 47.946 23.1175C47.1834 23.167 46.1798 23.6885 44.9352 24.6818C43.7152 25.6736 42.662 26.9505 41.7756 28.5125C40.9123 30.0483 40.5358 31.6635 40.6462 33.3581C40.691 34.0458 40.996 34.5562 41.5613 34.8894C42.1265 35.2227 42.938 35.3549 43.9958 35.2862C44.66 35.2431 45.4138 35.0585 46.2572 34.7324C47.1006 34.4063 47.6194 34.0274 47.8136 33.5955C48.5508 32.0185 49.2638 31.2076 49.9526 31.1629C50.9612 31.0974 51.6506 31.2499 52.0206 31.6205C52.4136 31.9649 52.6376 32.3696 52.6926 32.8346Z" fill="url(#paint2_linear_1466_47175)"/>
<path d="M72.4981 20.006C72.0745 20.3295 71.1813 21.0288 69.8185 22.1038C68.4541 23.1543 67.1159 24.2277 65.8039 25.3241C64.5149 26.3943 63.8284 27.0432 63.7444 27.2706C64.0988 28.1601 65.247 29.479 67.1891 31.2272C69.1296 32.9509 70.8198 34.2469 72.2599 35.1152C72.2657 35.5834 72.0033 36.106 71.4727 36.6831C70.9421 37.2601 70.4677 37.5622 70.0495 37.5894C69.6559 37.615 69.3452 37.5858 69.1174 37.502C68.5633 37.3406 67.6861 36.7687 66.4857 35.7862C65.3098 34.8021 64.1375 33.682 62.9686 32.4262C61.7998 31.1703 60.9604 30.041 60.4503 29.0383C59.9226 31.9335 59.534 33.9317 59.2846 35.0331C59.0599 36.1329 58.8718 36.848 58.7204 37.1784C58.569 37.5089 58.358 37.6829 58.0874 37.7005L57.1673 37.7972C55.5436 37.9027 54.6525 37.307 54.4939 36.0102C54.9075 34.7748 55.187 33.7578 55.3326 32.9591C57.1807 23.7878 58.4725 16.8846 59.208 12.2496C59.1872 11.9303 59.2413 11.4335 59.3703 10.7593C59.5222 10.0588 59.7282 9.42888 59.9882 8.86941C60.2728 8.30834 60.5996 8.01583 60.9686 7.99186C61.5836 7.95191 62.2246 8.11992 62.8914 8.49588C63.5828 8.87024 63.96 9.35133 64.023 9.93915C63.2293 14.0601 62.3138 18.9658 61.2765 24.6563C61.8451 23.9041 62.7009 23.01 63.8439 21.9739C65.0115 20.9362 66.1986 20.0083 67.4052 19.19C68.6102 18.3472 69.5777 17.8404 70.3077 17.6697C70.5045 17.6569 70.8652 17.6951 71.3898 17.7844C71.939 17.872 72.2946 18.0216 72.4566 18.233C72.5368 18.3265 72.5905 18.5819 72.6178 18.9994C72.653 19.5397 72.6131 19.8753 72.4981 20.006Z" fill="url(#paint3_linear_1466_47175)"/>
<path d="M86.5709 47.0227C86.3393 47.2597 86.1061 47.4722 85.8713 47.6601C85.6381 47.8725 85.4354 47.9843 85.2632 47.9955C84.6482 48.0354 84.1393 47.8095 83.7367 47.3178C83.3587 46.8244 83.1294 46.1487 83.0488 45.2908L85.601 32.14C85.0398 33.3849 84.2757 34.3594 83.3087 35.0635C82.3401 35.7429 81.3146 36.1178 80.2321 36.1881C79.2235 36.2537 78.2687 36.0074 77.3677 35.4493C76.4897 34.8651 75.7726 34.0978 75.2166 33.1474C74.6606 32.197 74.3505 31.2306 74.2865 30.2483C74.2049 28.9958 74.2993 27.4112 74.5696 25.4946C74.8384 23.5535 75.3676 21.8174 76.1572 20.2863C76.9451 18.7307 78.0525 17.9065 79.4794 17.8139C80.0698 17.7755 80.5543 17.818 80.9329 17.9414C81.3361 18.0632 81.5457 18.2469 81.5617 18.4925C81.5665 18.5662 81.5475 18.6537 81.5047 18.7552C80.5376 20.5937 79.8367 22.5383 79.4021 24.5888C78.9921 26.6378 78.8376 28.4359 78.9384 29.9831C78.9688 30.4498 79.0027 30.7805 79.0401 30.9754C79.1245 31.5125 79.3264 31.9556 79.6456 32.3048C79.9632 32.6295 80.4172 32.7726 81.0076 32.7343C82.459 32.64 83.7489 31.0148 84.8773 27.8587C86.0302 24.7009 86.8968 21.6974 87.4769 18.8482C87.5909 18.3229 87.6915 17.971 87.7787 17.7927C87.8889 17.5883 88.09 17.4519 88.382 17.3836C88.6724 17.2908 89.1866 17.2204 89.9246 17.1724C91.2531 17.0862 91.9429 17.436 91.9941 18.2218C92.0053 18.3938 91.9515 18.7055 91.8327 19.1572C91.6737 20.1294 91.4077 21.9224 91.0345 24.5362C90.2802 29.6411 89.7353 33.0306 89.3997 34.7048C88.6161 38.6031 88.0951 41.4116 87.8365 43.1301L87.2336 46.3877L86.5709 47.0227Z" fill="url(#paint4_linear_1466_47175)"/>
<path d="M116.263 8.08496C112.116 8.57871 108.063 9.15601 104.106 9.81686C100.149 10.4777 96.7882 11.3242 94.0239 12.3562C93.3653 11.9055 92.7996 11.157 92.3269 10.1108C91.899 9.06171 91.6603 8.15738 91.6108 7.3978C91.5292 6.14673 92.3126 5.06384 93.961 4.14912C97.8646 3.35713 102.463 2.54243 107.757 1.70501C113.096 0.864689 116.884 0.371853 119.122 0.226504L122.21 0.0259238C123.732 -0.0729132 125.048 0.110869 126.157 0.577272C127.308 0.996089 127.919 1.76401 127.992 2.88103C128.065 3.99805 127.627 5.21553 126.68 6.53345C126.608 6.80735 126.075 7.60472 125.083 8.92555C121.898 13.1707 118.204 18.5483 113.999 25.0583C112.527 27.3077 111.268 29.3637 110.221 31.2266C109.218 33.0865 107.978 35.433 106.499 38.2661C104.865 41.4682 103.574 43.7283 102.627 45.0462C101.72 46.3165 100.686 46.9895 99.522 47.0651C98.1793 47.1523 97.1548 46.9496 96.4485 46.457C95.7422 45.9645 95.36 45.2714 95.3017 44.3778C95.2144 43.0373 96.3527 40.159 98.7167 35.7428C101.078 31.282 103.929 26.4079 107.27 21.1205C110.656 15.8303 113.653 11.4851 116.263 8.08496Z" fill="url(#paint5_linear_1466_47175)"/>
<defs>
<linearGradient id="paint0_linear_1466_47175" x1="2.16519e-06" y1="24" x2="128" y2="24" gradientUnits="userSpaceOnUse">
<stop stop-color="#4B99FF"/>
<stop offset="1" stop-color="#F14DFF"/>
</linearGradient>
<linearGradient id="paint1_linear_1466_47175" x1="2.16519e-06" y1="24" x2="128" y2="24" gradientUnits="userSpaceOnUse">
<stop stop-color="#4B99FF"/>
<stop offset="1" stop-color="#F14DFF"/>
</linearGradient>
<linearGradient id="paint2_linear_1466_47175" x1="2.16519e-06" y1="24" x2="128" y2="24" gradientUnits="userSpaceOnUse">
<stop stop-color="#4B99FF"/>
<stop offset="1" stop-color="#F14DFF"/>
</linearGradient>
<linearGradient id="paint3_linear_1466_47175" x1="2.16519e-06" y1="24" x2="128" y2="24" gradientUnits="userSpaceOnUse">
<stop stop-color="#4B99FF"/>
<stop offset="1" stop-color="#F14DFF"/>
</linearGradient>
<linearGradient id="paint4_linear_1466_47175" x1="2.16519e-06" y1="24" x2="128" y2="24" gradientUnits="userSpaceOnUse">
<stop stop-color="#4B99FF"/>
<stop offset="1" stop-color="#F14DFF"/>
</linearGradient>
<linearGradient id="paint5_linear_1466_47175" x1="2.16519e-06" y1="24" x2="128" y2="24" gradientUnits="userSpaceOnUse">
<stop stop-color="#4B99FF"/>
<stop offset="1" stop-color="#F14DFF"/>
</linearGradient>
</defs>
</svg>
