<svg width="171" height="32" viewBox="0 0 171 32" fill="none" xmlns="http://www.w3.org/2000/svg">
<path d="M4.27702 31.499C3.8546 31.499 3.62579 31.323 3.59059 30.9709L0 1.66543C0 1.20781 0.228812 0.978996 0.686435 0.978996H8.60685C8.99407 0.978996 9.18768 1.17261 9.18768 1.55982L9.6629 17.2422C9.6981 17.383 9.7509 17.4534 9.82131 17.4534C9.89171 17.4534 9.94451 17.383 9.97972 17.2422L14.1511 1.55982C14.2567 1.17261 14.5032 0.978996 14.8904 0.978996H22.5468C23.0044 0.978996 23.1628 1.20781 23.022 1.66543L12.1974 30.9709C12.0566 31.323 11.7926 31.499 11.4054 31.499H4.27702Z" fill="white"/>
<path d="M43.3931 7.89615C43.3579 8.07216 43.2699 8.23057 43.1291 8.37138C42.9883 8.47698 42.8299 8.52979 42.6539 8.52979H33.2022C33.0262 8.52979 32.9382 8.61779 32.9382 8.7938L32.5158 12.1732C32.4454 12.3492 32.5158 12.4372 32.727 12.4372H37.796C37.972 12.4372 38.1128 12.5076 38.2185 12.6484C38.3241 12.754 38.3593 12.8948 38.3241 13.0708L37.5848 19.3543C37.5496 19.5304 37.4616 19.6888 37.3208 19.8296C37.18 19.9352 37.0216 19.988 36.8456 19.988H31.7765C31.6005 19.988 31.5125 20.076 31.5125 20.252L31.0901 23.737C31.0197 23.913 31.0901 24.001 31.3013 24.001H40.8058C40.9818 24.001 41.1226 24.0714 41.2282 24.2122C41.3338 24.3178 41.369 24.4586 41.3338 24.6346L40.5418 30.8653C40.5066 31.0414 40.4186 31.1998 40.2778 31.3406C40.1722 31.4462 40.0313 31.499 39.8553 31.499H22.2192C22.0432 31.499 21.9024 31.4462 21.7968 31.3406C21.6912 31.1998 21.656 31.0414 21.6912 30.8653L25.2818 1.61263C25.317 1.43662 25.3874 1.29581 25.493 1.19021C25.6338 1.0494 25.7922 0.978996 25.9682 0.978996H43.6043C43.7803 0.978996 43.9211 1.0494 44.0268 1.19021C44.1324 1.29581 44.1676 1.43662 44.1324 1.61263L43.3931 7.89615Z" fill="white"/>
<path d="M52.863 31.8686C50.0116 31.8686 47.7587 31.1646 46.1042 29.7565C44.4497 28.3484 43.6225 26.4123 43.6225 23.9482C43.6225 23.6666 43.6577 23.1737 43.7281 22.4697L45.2594 9.95546C45.6114 7.06891 46.8082 4.79839 48.85 3.14391C50.9269 1.45422 53.5494 0.609375 56.7176 0.609375C59.5689 0.609375 61.8218 1.33101 63.4763 2.77429C65.166 4.21756 66.0108 6.20647 66.0108 8.741C66.0108 8.98741 65.9756 9.42743 65.9052 10.0611L65.7468 11.1699C65.7116 11.3459 65.6236 11.5043 65.4828 11.6451C65.3772 11.7508 65.2364 11.8036 65.0604 11.8036H57.7736C57.5976 11.8036 57.4568 11.7508 57.3512 11.6451C57.2456 11.5043 57.2104 11.3459 57.2456 11.1699L57.404 9.95546C57.4744 9.35703 57.3512 8.91701 57.0344 8.63539C56.7528 8.31857 56.3303 8.16017 55.7671 8.16017C54.5702 8.16017 53.9014 8.7586 53.7606 9.95546L52.2293 22.5225C52.1589 23.1209 52.2469 23.5786 52.4933 23.8954C52.775 24.2122 53.1974 24.3706 53.7606 24.3706C54.3238 24.3706 54.7991 24.2122 55.1863 23.8954C55.5735 23.5786 55.8023 23.1209 55.8727 22.5225L56.0839 20.6744C56.0839 20.4984 56.0135 20.4104 55.8727 20.4104H54.9751C54.7991 20.4104 54.6583 20.3576 54.5526 20.252C54.447 20.1112 54.4118 19.9528 54.447 19.7768L55.0279 15.0245C55.0631 14.8485 55.1335 14.7077 55.2391 14.6021C55.3799 14.4613 55.5383 14.3909 55.7143 14.3909H64.7436C64.9196 14.3909 65.0604 14.4613 65.166 14.6021C65.2716 14.7077 65.3068 14.8485 65.2716 15.0245L64.374 22.4697C64.0219 25.3563 62.7899 27.6444 60.6778 29.3341C58.5657 31.0238 55.9607 31.8686 52.863 31.8686Z" fill="white"/>
<path d="M79.9994 31.499C79.6122 31.499 79.4186 31.3054 79.4186 30.9181L79.313 27.8556C79.3482 27.7852 79.3306 27.7324 79.2602 27.6972C79.1898 27.6268 79.1194 27.5916 79.049 27.5916H74.2439C74.0327 27.5916 73.9095 27.662 73.8743 27.8028L72.9767 30.9181C72.8711 31.3054 72.6247 31.499 72.2374 31.499H65.0035C64.5458 31.499 64.3874 31.2702 64.5282 30.8125L75.036 1.50702C75.1768 1.155 75.4408 0.978996 75.828 0.978996H84.1709C84.5581 0.978996 84.7693 1.155 84.8045 1.50702L88.0783 30.8125V30.9181C88.0783 31.3054 87.8671 31.499 87.4446 31.499H79.9994ZM76.1448 20.5688C76.1096 20.7448 76.1976 20.8328 76.4089 20.8328H78.8378C78.9434 20.8328 79.0314 20.7448 79.1018 20.5688L78.8906 12.754C78.8554 12.6484 78.8026 12.5956 78.7322 12.5956C78.6618 12.5956 78.609 12.6484 78.5738 12.754L76.1448 20.5688Z" fill="white"/>
<path d="M98.5951 31.8686C95.8493 31.8686 93.6492 31.1998 91.9947 29.8621C90.3755 28.5244 89.5658 26.7819 89.5658 24.6346C89.5658 24.177 89.5834 23.8426 89.6186 23.6314L89.777 22.5225C89.8122 22.3465 89.8826 22.2057 89.9882 22.1001C90.129 21.9593 90.2874 21.8889 90.4635 21.8889H97.6446C97.8206 21.8889 97.9614 21.9593 98.0671 22.1001C98.1727 22.2057 98.2079 22.3465 98.1727 22.5225V22.6281C98.1022 23.1913 98.1903 23.6314 98.4367 23.9482C98.6831 24.265 99.0527 24.4234 99.5455 24.4234C100.074 24.4234 100.496 24.2826 100.813 24.001C101.13 23.6842 101.288 23.2794 101.288 22.7865C101.288 22.3289 101.042 21.8713 100.549 21.4137C100.056 20.9208 99.2463 20.252 98.1199 19.4071C96.747 18.3863 95.6205 17.4534 94.7405 16.6086C93.5436 15.4821 92.6284 14.4437 91.9947 13.4932C91.3963 12.5076 91.0971 11.4339 91.0971 10.2723C91.0971 9.92026 91.1147 9.65624 91.1499 9.48024C91.4667 6.8401 92.646 4.71039 94.6877 3.0911C96.7294 1.43662 99.2639 0.609375 102.291 0.609375C105.037 0.609375 107.22 1.31341 108.839 2.72149C110.493 4.09436 111.321 5.92485 111.321 8.21297C111.321 8.741 111.303 9.12822 111.268 9.37463L111.215 9.79705C111.18 9.97306 111.092 10.1315 110.951 10.2723C110.845 10.3779 110.705 10.4307 110.528 10.4307H103.4C103.224 10.4307 103.083 10.3779 102.978 10.2723C102.872 10.1315 102.837 9.97306 102.872 9.79705C102.907 9.30423 102.784 8.91701 102.502 8.63539C102.221 8.31857 101.834 8.16017 101.341 8.16017C100.778 8.16017 100.32 8.30097 99.9679 8.58259C99.6511 8.8642 99.4927 9.21622 99.4927 9.63864C99.4927 10.1315 99.7039 10.6067 100.126 11.0643C100.584 11.5219 101.112 11.9796 101.71 12.4372C102.344 12.8596 102.766 13.1412 102.978 13.282C104.421 14.2677 105.6 15.1301 106.515 15.8694C107.431 16.6086 108.223 17.5063 108.892 18.5623C109.56 19.6184 109.895 20.8152 109.895 22.1529C109.895 22.5401 109.877 22.8393 109.842 23.0505C109.49 25.7611 108.276 27.9084 106.199 29.4925C104.157 31.0766 101.622 31.8686 98.5951 31.8686Z" fill="white"/>
<path d="M111.736 31.499C111.56 31.499 111.42 31.4462 111.314 31.3406C111.208 31.1998 111.173 31.0414 111.208 30.8653L114.799 1.61263C114.834 1.43662 114.905 1.29581 115.01 1.19021C115.151 1.0494 115.309 0.978996 115.485 0.978996H122.772C122.948 0.978996 123.089 1.0494 123.195 1.19021C123.3 1.29581 123.335 1.43662 123.3 1.61263L119.71 30.8653C119.674 31.0414 119.586 31.1998 119.446 31.3406C119.34 31.4462 119.199 31.499 119.023 31.499H111.736Z" fill="white"/>
<path d="M140.135 1.61263C140.17 1.43662 140.24 1.29581 140.346 1.19021C140.487 1.0494 140.645 0.978996 140.821 0.978996H148.002C148.178 0.978996 148.319 1.0494 148.425 1.19021C148.53 1.29581 148.566 1.43662 148.53 1.61263L144.94 30.8653C144.905 31.0414 144.817 31.1998 144.676 31.3406C144.57 31.4462 144.429 31.499 144.253 31.499H136.967C136.615 31.499 136.403 31.3406 136.333 31.0238L132.795 18.2983C132.76 18.1927 132.707 18.1399 132.637 18.1399C132.566 18.1399 132.514 18.2103 132.478 18.3511L131.053 30.8653C131.017 31.0414 130.929 31.1998 130.789 31.3406C130.683 31.4462 130.542 31.499 130.366 31.499H123.132C122.956 31.499 122.815 31.4462 122.71 31.3406C122.604 31.1998 122.569 31.0414 122.604 30.8653L126.195 1.61263C126.23 1.43662 126.3 1.29581 126.406 1.19021C126.547 1.0494 126.705 0.978996 126.881 0.978996H134.115C134.467 0.978996 134.696 1.1374 134.802 1.45422L138.339 14.2325C138.375 14.3381 138.427 14.3909 138.498 14.3909C138.568 14.3909 138.621 14.3205 138.656 14.1797L140.135 1.61263Z" fill="white"/>
<path d="M157.905 31.8686C155.018 31.8686 152.748 31.1294 151.093 29.6509C149.439 28.1724 148.612 26.1131 148.612 23.473C148.612 23.1209 148.647 22.5577 148.717 21.7833L150.037 10.6947C150.425 7.52653 151.657 5.06241 153.734 3.30231C155.846 1.50702 158.521 0.609375 161.76 0.609375C164.646 0.609375 166.899 1.34861 168.518 2.82709C170.173 4.30557 171 6.36487 171 9.00501C171 9.35703 170.965 9.92026 170.894 10.6947L169.522 21.7833C169.134 24.9514 167.885 27.4332 165.773 29.2285C163.696 30.9885 161.073 31.8686 157.905 31.8686ZM158.803 24.3706C160.105 24.3706 160.827 23.6314 160.967 22.1529L162.446 10.3251C162.587 8.8818 162.041 8.16017 160.809 8.16017C159.542 8.16017 158.803 8.8818 158.591 10.3251L157.166 22.1529C157.13 22.2937 157.113 22.4873 157.113 22.7337C157.113 23.825 157.676 24.3706 158.803 24.3706Z" fill="white"/>
</svg>
