<svg width="245" height="54" viewBox="0 0 245 54" fill="none" xmlns="http://www.w3.org/2000/svg">
<path d="M13.991 31.5605H8.5649V47.133H5.42606V31.5605H0V28.8839H13.991V31.5605Z" fill="#1B1B1B"/>
<path d="M16.3512 28.8839H19.4657V36.1836H27.9819V28.8839H31.0964V47.133H27.9819V38.8601H19.4657V47.133H16.3512V28.8839Z" fill="#1B1B1B"/>
<path d="M35.2816 47.133V28.8839H47.1556V31.5605H38.3961V36.4512H46.669V38.9818H38.3961V44.4565H47.5206V47.133H35.2816Z" fill="#1B1B1B"/>
<path d="M71.1471 41.3663V45.0648C70.5631 46.4274 68.1542 47.3764 65.2831 47.3764C59.7353 47.3764 56.0855 43.0696 56.0855 38.0085C56.0855 32.9474 59.7353 28.6406 65.2831 28.6406C68.0082 28.6406 70.3685 29.5896 71.1471 30.9522V34.6263C69.9791 32.6068 67.6919 31.3172 65.2831 31.3172C61.7792 31.3172 59.419 34.383 59.419 38.0085C59.419 41.6096 61.7792 44.6998 65.2831 44.6998C67.9352 44.6998 70.2468 43.3616 71.1471 41.3663Z" fill="#1B1B1B"/>
<path d="M73.7506 47.133V28.8839H79.566C83.8241 28.8839 85.9653 30.7089 85.9653 34.3587C85.9653 36.9135 84.6757 38.4951 82.1209 39.0791L86.671 47.133H83.0941L78.69 39.3468H76.8651V47.133H73.7506ZM76.8651 36.8162H79.6633C81.7802 36.8162 82.8508 35.9889 82.8508 34.3587C82.8508 32.3878 81.7072 31.4145 79.4443 31.4145C78.6657 31.4145 77.7654 31.4145 76.8651 31.4388V36.8162Z" fill="#1B1B1B"/>
<path d="M88.5445 38.0085C88.5445 32.6798 92.2187 28.6406 97.0851 28.6406C101.952 28.6406 105.626 32.6798 105.626 38.0085C105.626 43.6535 102.244 47.3764 97.0851 47.3764C91.9267 47.3764 88.5445 43.6535 88.5445 38.0085ZM91.878 38.0085C91.878 41.999 93.9706 44.6998 97.0851 44.6998C100.2 44.6998 102.292 41.999 102.292 38.0085C102.292 34.1883 100.054 31.3172 97.0851 31.3172C94.1166 31.3172 91.878 34.1883 91.878 38.0085Z" fill="#1B1B1B"/>
<path d="M111.563 47.133L107.84 28.8839H111.173L113.266 40.1497L115.845 28.8839H119.106L121.807 40.2227L123.85 28.8839H127.354L123.461 47.133H120.468L117.548 34.9183L114.556 47.133H111.563Z" fill="#1B1B1B"/>
<path d="M132.951 47.133H129.666V28.8839H133.145L140.567 42.7533V28.8839H143.851V47.133H139.447L132.951 35.0156V47.133Z" fill="#1B1B1B"/>
<path d="M168.33 41.3663V45.0648C167.746 46.4274 165.337 47.3764 162.465 47.3764C156.918 47.3764 153.268 43.0696 153.268 38.0085C153.268 32.9474 156.918 28.6406 162.465 28.6406C165.191 28.6406 167.551 29.5896 168.33 30.9522V34.6263C167.162 32.6068 164.874 31.3172 162.465 31.3172C158.962 31.3172 156.601 34.383 156.601 38.0085C156.601 41.6096 158.962 44.6998 162.465 44.6998C165.118 44.6998 167.429 43.3616 168.33 41.3663Z" fill="#1B1B1B"/>
<path d="M169.011 47.133L175.945 28.8839H179.328L186.165 47.133H182.831L181.104 42.4126L181.42 43.3129H173.926L172.515 47.133H169.011ZM177.673 33.1907L174.851 40.8067H180.496L177.673 33.1907Z" fill="#1B1B1B"/>
<path d="M187.479 45.0648L187.455 40.7094C188.622 43.2399 191.056 44.5295 193.757 44.5295C195.898 44.5295 196.92 43.5805 196.92 42.1206C196.92 40.758 195.606 39.7847 193.051 39.3224C189.231 38.6411 187.309 36.6946 187.309 33.8477C187.309 30.7332 189.62 28.6406 193.124 28.6406C195.46 28.6406 197.65 29.3463 198.891 30.7332V34.2127C197.309 32.4364 195.168 31.5361 193.124 31.5361C191.567 31.5361 190.52 32.3391 190.52 33.5314C190.52 34.7966 191.664 35.7699 193.903 36.1592C197.99 36.9135 200.034 38.9818 200.034 42.0233C200.034 45.2351 197.917 47.3764 193.757 47.3764C190.618 47.3764 188.428 46.4274 187.479 45.0648Z" fill="#1B1B1B"/>
<path d="M206.142 47.133H203.027V28.8839H206.142V47.133Z" fill="#1B1B1B"/>
<path d="M213.563 47.133H210.278V28.8839H213.758L221.179 42.7533V28.8839H224.464V47.133H220.06L213.563 35.0156V47.133Z" fill="#1B1B1B"/>
<path d="M227.919 38.0085C227.919 32.6798 231.593 28.6406 236.459 28.6406C241.326 28.6406 245 32.6798 245 38.0085C245 43.6535 241.618 47.3764 236.459 47.3764C231.301 47.3764 227.919 43.6535 227.919 38.0085ZM231.252 38.0085C231.252 41.999 233.345 44.6998 236.459 44.6998C239.574 44.6998 241.667 41.999 241.667 38.0085C241.667 34.1883 239.428 31.3172 236.459 31.3172C233.491 31.3172 231.252 34.1883 231.252 38.0085Z" fill="#1B1B1B"/>
<path d="M124.263 20.1441L122.458 22.7183L120.654 20.1441L122.458 17.5699" fill="#1B1B1B"/>
<path d="M124.837 12.9936L122.499 16.3441L120.162 12.9936L122.499 9.64302" fill="#1B1B1B"/>
<path d="M125.412 4.20861L122.499 8.41722L119.587 4.20861C119.587 4.20861 121.362 1.64356 122.499 0" fill="#1B1B1B"/>
<path d="M109.143 24.8231L112.086 25.9462L112.131 22.8066L109.188 21.6835" fill="#1B1B1B"/>
<path d="M112.81 22.4932L115.484 24.1549L116.129 21.0815L113.455 19.4199" fill="#1B1B1B"/>
<path d="M116.583 20.8004L118.801 23.0309L120.14 20.1883L117.921 17.9577" fill="#1B1B1B"/>
<path d="M105.203 19.0436L109.018 20.4993L109.076 16.4302L105.262 14.9746" fill="#1B1B1B"/>
<path d="M109.956 16.024L113.422 18.1776L114.258 14.1943L110.792 12.0407" fill="#1B1B1B"/>
<path d="M107.698 9.47465L110.506 11.2195L111.184 7.99222L108.375 6.24734" fill="#1B1B1B"/>
<path d="M114.846 13.8299L117.721 16.7209L119.456 13.0366L116.581 10.1456" fill="#1B1B1B"/>
<path d="M135.858 24.8231L132.915 25.9462L132.87 22.8066L135.813 21.6835" fill="#1B1B1B"/>
<path d="M132.191 22.4932L129.517 24.1549L128.872 21.0815L131.546 19.4199" fill="#1B1B1B"/>
<path d="M128.418 20.8004L126.2 23.0309L124.862 20.1883L127.08 17.9577" fill="#1B1B1B"/>
<path d="M139.798 19.0436L135.983 20.4993L135.925 16.4302L139.74 14.9746" fill="#1B1B1B"/>
<path d="M135.045 16.024L131.579 18.1776L130.743 14.1943L134.209 12.0407" fill="#1B1B1B"/>
<path d="M137.303 9.47465L134.495 11.2195L133.818 7.99222L136.626 6.24734" fill="#1B1B1B"/>
<path d="M130.155 13.8299L127.28 16.7209L125.545 13.0366L128.42 10.1456" fill="#1B1B1B"/>
</svg>
