<svg width="137" height="32" viewBox="0 0 137 32" fill="none" xmlns="http://www.w3.org/2000/svg">
<path d="M2.58666 27.9942L11.1687 1.74671H14.2366L16.1415 4.31331L7.13837 30.9418H3.62934L2.58666 27.9942ZM6.51677 1.74671L6.17589 28.7963L4.47151 30.9418H0.220568L0 1.74671H6.51677ZM13.7554 28.0544L21.6156 1.74671H28.3329L18.9488 30.9418H14.9384L13.7554 28.0544ZM16.8233 1.74671L17.3847 28.676L15.7405 30.9418H12.0711L11.2289 3.73181L13.4747 1.74671H16.8233Z" fill="url(#paint0_linear_8220_93610)"/>
<path d="M36.3937 9.246L32.644 30.9418H26.2074L29.9771 9.246H36.3937ZM30.6388 3.75187C30.6388 2.74929 30.9797 1.93385 31.6615 1.30557C32.3432 0.677287 33.1653 0.356462 34.1278 0.343094C35.0769 0.329726 35.8857 0.623817 36.5541 1.22536C37.2358 1.81354 37.5767 2.59556 37.5767 3.5714C37.5767 4.56061 37.2358 5.36936 36.5541 5.99764C35.8723 6.62593 35.0502 6.94675 34.0877 6.96012C33.1386 6.97349 32.3299 6.68608 31.6615 6.0979C30.9931 5.49636 30.6522 4.71434 30.6388 3.75187Z" fill="url(#paint1_linear_8220_93610)"/>
<path d="M45.5171 14.2389L42.6096 30.9418H36.1731L39.9428 9.246H45.9382L45.5171 14.2389ZM43.9531 19.4322L42.8102 19.4924C42.8904 18.3561 43.0708 17.1597 43.3516 15.9031C43.6323 14.6332 44.06 13.4568 44.6349 12.3741C45.2097 11.2913 45.9716 10.4224 46.9207 9.76735C47.8832 9.09896 49.0796 8.77813 50.51 8.80487C51.6462 8.85834 52.5419 9.15911 53.1969 9.70719C53.8653 10.2419 54.3398 10.9303 54.6206 11.7725C54.9146 12.6147 55.0751 13.5237 55.1018 14.4995C55.1419 15.462 55.1218 16.3911 55.0416 17.2867L52.7558 30.9418H46.2991L48.585 17.2265C48.6251 16.772 48.6452 16.2975 48.6452 15.8029C48.6585 15.3083 48.565 14.8872 48.3645 14.5396C48.1639 14.1921 47.7562 14.0116 47.1413 13.9982C46.4596 13.9849 45.9182 14.1653 45.5171 14.5396C45.1161 14.9139 44.8153 15.3952 44.6148 15.9833C44.4143 16.5582 44.2672 17.1597 44.1737 17.788C44.0935 18.4029 44.0199 18.951 43.9531 19.4322Z" fill="url(#paint2_linear_8220_93610)"/>
<path d="M61.3779 1.74671L70.722 1.76676C72.4464 1.80686 73.9303 2.18116 75.1734 2.88965C76.43 3.58477 77.3724 4.57398 78.0007 5.85728C78.629 7.12722 78.883 8.63777 78.7627 10.3889C78.6557 11.8728 78.375 13.1694 77.9205 14.279C77.466 15.3885 76.8043 16.3576 75.9354 17.1864C75.0799 18.0019 73.9971 18.7237 72.687 19.352L70.2809 20.6353H62.3404L63.2427 15.2013L68.2957 15.2615C69.1245 15.2347 69.7929 15.0275 70.3009 14.6399C70.8089 14.2389 71.1965 13.7242 71.4639 13.0959C71.7313 12.4543 71.905 11.7658 71.9852 11.0306C72.0655 10.536 72.1256 10.0013 72.1657 9.42647C72.2058 8.83829 72.1122 8.337 71.885 7.9226C71.6577 7.49483 71.1965 7.25421 70.5014 7.20074L67.1528 7.18069L63.0021 30.9418H56.345L61.3779 1.74671ZM69.0176 30.9418L66.2505 18.0286L73.0279 17.9885L76.176 30.601V30.9418H69.0176Z" fill="url(#paint3_linear_8220_93610)"/>
<path d="M110.404 0.142578L105.07 30.9418H98.6338L103.988 0.142578H110.404Z" fill="url(#paint4_linear_8220_93610)"/>
<path d="M120.831 0.142578L115.497 30.9418H109.061L114.414 0.142578H120.831Z" fill="url(#paint5_linear_8220_93610)"/>
<path d="M128.972 25.4878L130.476 15.863C130.503 15.5155 130.536 15.1746 130.576 14.8404C130.629 14.4928 130.589 14.1987 130.456 13.9581C130.335 13.7041 130.035 13.5838 129.553 13.5972C129.086 13.5838 128.751 13.6975 128.551 13.9381C128.364 14.1653 128.243 14.4594 128.19 14.8203C128.15 15.1813 128.096 15.5422 128.029 15.9031L121.593 15.9432C121.646 14.7936 121.914 13.771 122.395 12.8753C122.89 11.9797 123.538 11.2311 124.34 10.6296C125.142 10.028 126.044 9.57351 127.047 9.26606C128.063 8.9586 129.119 8.81824 130.215 8.84497C131.645 8.85834 132.895 9.15243 133.965 9.72724C135.034 10.2887 135.836 11.1041 136.371 12.1735C136.906 13.243 137.099 14.5129 136.952 15.9833L135.428 25.4878C135.308 26.3166 135.221 27.1654 135.168 28.0344C135.128 28.9033 135.215 29.7454 135.428 30.5609L135.408 30.9418L129.172 30.9619C128.892 30.093 128.751 29.1907 128.751 28.2549C128.765 27.3192 128.838 26.3968 128.972 25.4878ZM131.057 17.6877L130.456 21.297L129.092 21.277C128.598 21.2903 128.17 21.404 127.809 21.6178C127.448 21.8184 127.147 22.0857 126.907 22.4199C126.679 22.7407 126.499 23.1083 126.365 23.5227C126.231 23.9371 126.138 24.3716 126.084 24.8261C126.031 25.1202 125.991 25.4076 125.964 25.6883C125.951 25.9557 125.998 26.1829 126.105 26.3701C126.211 26.5438 126.459 26.6307 126.846 26.6307C127.247 26.6307 127.615 26.5372 127.949 26.35C128.283 26.1629 128.564 25.9223 128.791 25.6282C129.019 25.3341 129.159 24.9999 129.213 24.6256L129.593 27.3526C129.339 27.8606 129.086 28.3552 128.832 28.8364C128.578 29.3177 128.29 29.7521 127.969 30.1398C127.648 30.5274 127.254 30.8282 126.786 31.0421C126.332 31.2693 125.757 31.383 125.062 31.383C123.872 31.383 122.849 31.0956 121.994 30.5208C121.152 29.9459 120.517 29.1907 120.089 28.2549C119.675 27.3192 119.487 26.2698 119.528 25.1068C119.568 23.7834 119.862 22.6472 120.41 21.698C120.971 20.7489 121.707 19.9803 122.616 19.3921C123.525 18.8039 124.534 18.3695 125.643 18.0888C126.753 17.808 127.909 17.6677 129.112 17.6677L131.057 17.6877Z" fill="url(#paint6_linear_8220_93610)"/>
<path d="M89.3147 9.84138C83.4537 9.24506 78.2198 13.5123 77.6235 19.3733C77.504 20.5472 77.58 21.6965 77.8247 22.788C79.7944 21.8582 81.5319 21.2427 83.0407 20.8891C81.3619 20.9805 79.8603 21.6703 77.9451 20.5574C79.5339 19.4225 82.3072 17.9266 84.6848 17.8969C86.015 17.0229 88.0397 16.1853 89.0039 16.5955C90.5396 15.4968 92.4332 14.0915 94.4045 13.1407C94.8216 13.9375 95.027 14.8823 94.713 15.8746C90.9034 16.4305 91.1614 22.4678 95.0184 19.0549C95.2503 19.6886 95.3279 20.3316 95.2439 21.0128C93.5746 22.4228 91.8522 23.6109 90.119 24.5964C90.0278 25.7074 89.6112 27.0157 88.8421 28.427C88.5185 29.0208 88.3321 30.0752 89.6455 31.029C94.433 30.3948 98.3378 26.5467 98.8479 21.5327C99.4443 15.6717 95.1757 10.4377 89.3147 9.84138ZM88.6948 17.4542C87.86 17.4729 87.1366 17.7181 86.4867 18.1153C87.0454 18.1704 87.6569 18.3689 88.191 18.5761C88.5094 18.2958 88.7511 17.7683 88.6948 17.4542Z" fill="url(#paint7_linear_8220_93610)"/>
<defs>
<linearGradient id="paint0_linear_8220_93610" x1="68.5" y1="0.142578" x2="68.5" y2="31.383" gradientUnits="userSpaceOnUse">
<stop stop-color="#FF5600"/>
<stop offset="1" stop-color="#FBD333"/>
</linearGradient>
<linearGradient id="paint1_linear_8220_93610" x1="68.5" y1="0.142578" x2="68.5" y2="31.383" gradientUnits="userSpaceOnUse">
<stop stop-color="#FF5600"/>
<stop offset="1" stop-color="#FBD333"/>
</linearGradient>
<linearGradient id="paint2_linear_8220_93610" x1="68.5" y1="0.142578" x2="68.5" y2="31.383" gradientUnits="userSpaceOnUse">
<stop stop-color="#FF5600"/>
<stop offset="1" stop-color="#FBD333"/>
</linearGradient>
<linearGradient id="paint3_linear_8220_93610" x1="68.5" y1="0.142578" x2="68.5" y2="31.383" gradientUnits="userSpaceOnUse">
<stop stop-color="#033FBC"/>
<stop offset="1" stop-color="#2894FF"/>
</linearGradient>
<linearGradient id="paint4_linear_8220_93610" x1="68.5" y1="0.142578" x2="68.5" y2="31.383" gradientUnits="userSpaceOnUse">
<stop stop-color="#033FBC"/>
<stop offset="1" stop-color="#2894FF"/>
</linearGradient>
<linearGradient id="paint5_linear_8220_93610" x1="68.5" y1="0.142578" x2="68.5" y2="31.383" gradientUnits="userSpaceOnUse">
<stop stop-color="#033FBC"/>
<stop offset="1" stop-color="#2894FF"/>
</linearGradient>
<linearGradient id="paint6_linear_8220_93610" x1="68.5" y1="0.142578" x2="68.5" y2="31.383" gradientUnits="userSpaceOnUse">
<stop stop-color="#033FBC"/>
<stop offset="1" stop-color="#2894FF"/>
</linearGradient>
<linearGradient id="paint7_linear_8220_93610" x1="89.3154" y1="9.84145" x2="87.1851" y2="30.7787" gradientUnits="userSpaceOnUse">
<stop stop-color="#033FBC"/>
<stop offset="1" stop-color="#2894FF"/>
</linearGradient>
</defs>
</svg>
