<svg width="204" height="24" viewBox="0 0 204 24" fill="none" xmlns="http://www.w3.org/2000/svg">
<path d="M0 22.9143L4.36569 1.08585H14.0638C16.995 1.08585 19.2506 1.71992 20.8306 2.98805C22.4314 4.25618 23.2317 6.03364 23.2317 8.32043C23.2317 10.1499 22.7744 11.761 21.8597 13.1539C20.9657 14.5467 19.6872 15.6278 18.0241 16.397C16.3818 17.1662 14.438 17.5508 12.1928 17.5508H5.14528L9.07441 14.3389L7.35931 22.9143H0ZM8.88731 15.212L6.29907 11.8754H12.567C13.5856 11.8754 14.3756 11.6259 14.9369 11.1269C15.4982 10.6072 15.7789 9.89 15.7789 8.97528C15.7789 8.1853 15.5294 7.624 15.0305 7.29137C14.5523 6.93796 13.8871 6.76125 13.0347 6.76125H7.32813L11.2573 3.33107L8.88731 15.212Z" fill="#F7FF00"/>
<path d="M19.4037 22.9143L33.3116 1.08585H40.5461L45.7226 22.9143H38.3945L34.8707 4.48486H37.7396L27.1684 22.9143H19.4037ZM25.8275 19.1099L28.7588 13.8087H38.7999L39.6106 19.1099H25.8275Z" fill="#F7FF00"/>
<path d="M46.8971 22.9143L51.2628 1.08585H61.0544C63.9441 1.08585 66.1789 1.71992 67.7589 2.98805C69.3389 4.23539 70.1288 5.99206 70.1288 8.25806C70.1288 10.0875 69.6715 11.6883 68.7568 13.0603C67.8628 14.4324 66.5843 15.503 64.9212 16.2722C63.2789 17.0414 61.3351 17.426 59.0899 17.426H52.0424L55.9715 14.3389L54.2564 22.9143H46.8971ZM60.2437 22.9143L55.7532 14.9625H63.3308L67.8836 22.9143H60.2437ZM55.7844 15.212L53.1962 11.8754H59.4641C60.4827 11.8754 61.2727 11.6259 61.834 11.1269C62.3953 10.6072 62.676 9.89 62.676 8.97528C62.676 8.1853 62.4265 7.624 61.9276 7.29137C61.4494 6.93796 60.7842 6.76125 59.9318 6.76125H54.2252L58.1544 3.33107L55.7844 15.212Z" fill="#F7FF00"/>
<path d="M70.1325 22.9143L74.4982 1.08585H81.8575L77.4918 22.9143H70.1325Z" fill="#F7FF00"/>
<path d="M81.0346 22.9143L85.4002 1.08585H91.3875L97.2188 15.3367H94.0381L105.264 1.08585H111.532L107.229 22.9143H100.524L102.801 11.1893L103.861 11.1269L96.3145 20.9498H93.0714L88.8304 11.0958L90.0778 11.1893L87.739 22.9143H81.0346Z" fill="#F7FF00"/>
<path d="M108.417 22.9143L122.325 1.08585H129.559L134.736 22.9143H127.408L123.884 4.48486H126.753L116.182 22.9143H108.417ZM114.841 19.1099L117.772 13.8087H127.813L128.624 19.1099H114.841Z" fill="#F7FF00"/>
<path d="M139.554 22.9143L142.766 6.79244H136.373L137.527 1.08585H157.671L156.518 6.79244H150.125L146.913 22.9143H139.554Z" fill="#F7FF00"/>
<path d="M167.324 23.4133C165.079 23.4133 163.114 23.0079 161.43 22.1971C159.746 21.3655 158.436 20.2221 157.501 18.7669C156.586 17.2909 156.129 15.5862 156.129 13.6528C156.129 11.7402 156.462 9.98355 157.127 8.3828C157.813 6.78204 158.769 5.39957 159.996 4.23539C161.222 3.0712 162.677 2.17727 164.361 1.5536C166.045 0.909143 167.895 0.586914 169.912 0.586914C172.012 0.586914 173.872 0.961117 175.494 1.70952C177.115 2.45793 178.321 3.53895 179.111 4.95261L173.81 9.10002C173.353 8.28925 172.76 7.66558 172.032 7.22901C171.305 6.77165 170.442 6.54297 169.444 6.54297C168.571 6.54297 167.771 6.70928 167.043 7.04191C166.336 7.35374 165.723 7.8111 165.203 8.41398C164.684 8.99607 164.278 9.69251 163.987 10.5033C163.696 11.314 163.551 12.208 163.551 13.1851C163.551 14.0374 163.738 14.7858 164.112 15.4303C164.486 16.0747 165.006 16.5737 165.671 16.9271C166.357 17.2805 167.147 17.4572 168.041 17.4572C168.893 17.4572 169.725 17.2597 170.536 16.8647C171.367 16.4697 172.157 15.8253 172.906 14.9313L177.24 19.0788C175.91 20.7003 174.423 21.8333 172.781 22.4778C171.159 23.1014 169.34 23.4133 167.324 23.4133Z" fill="#F7FF00"/>
<path d="M196.641 1.08585H204L199.634 22.9143H192.275L196.641 1.08585ZM185.477 22.9143H178.118L182.483 1.08585H189.843L185.477 22.9143ZM194.364 14.869H186.6L187.816 8.81937H195.58L194.364 14.869Z" fill="#F7FF00"/>
</svg>
