<svg width="179" height="32" viewBox="0 0 179 32" fill="none" xmlns="http://www.w3.org/2000/svg">
<path d="M10.432 8.04005V13.3444H23.3393V21.2126H10.432V31.1141H0V0.171875H25.1516V8.04005H10.432Z" fill="#537FFC"/>
<path d="M41.7082 23.3344H38.8792V31.1141H28.4472V0.171875H43.3437C46.2022 0.171875 48.6923 0.643376 50.814 1.58638C52.9358 2.52938 54.5713 3.88495 55.7206 5.65308C56.8699 7.42121 57.4445 9.48403 57.4445 11.8415C57.4445 14.0517 56.9436 15.9819 55.9416 17.6322C54.9397 19.2824 53.4957 20.5938 51.6097 21.5662L58.1076 31.1141H46.9684L41.7082 23.3344ZM46.9242 11.8415C46.9242 10.6922 46.5705 9.80818 45.8633 9.18934C45.156 8.54102 44.0952 8.21687 42.6806 8.21687H38.8792V15.4662H42.6806C44.0952 15.4662 45.156 15.1568 45.8633 14.5379C46.5705 13.8896 46.9242 12.9908 46.9242 11.8415Z" fill="white"/>
<path d="M76.1919 31.8214C71.4474 31.8214 67.7491 30.5395 65.0969 27.9757C62.4447 25.4119 61.1186 21.8167 61.1186 17.1901V0.171875H71.5505V16.8807C71.5505 19.1498 71.9484 20.8001 72.744 21.8315C73.5692 22.8629 74.7479 23.3786 76.2803 23.3786C77.8127 23.3786 78.9767 22.8629 79.7723 21.8315C80.5975 20.8001 81.01 19.1498 81.01 16.8807V0.171875H91.2652V17.1901C91.2652 21.8167 89.9391 25.4119 87.2869 27.9757C84.6347 30.5395 80.9364 31.8214 76.1919 31.8214Z" fill="white"/>
<path d="M123.674 31.1141L123.586 17.0133L116.867 28.3293H112.27L105.551 17.4995V31.1141H96.0471V0.171875H104.623L114.701 16.6597L124.514 0.171875H133.089L133.178 31.1141H123.674Z" fill="white"/>
<path d="M165.539 23.025V31.1141H137.116V24.7047L151.261 8.26107H137.558V0.171875H164.832V6.58135L150.687 23.025H165.539Z" fill="white"/>
<path d="M168.568 0.171875H179V31.1141H168.568V0.171875Z" fill="white"/>
<circle cx="173.821" cy="5.00855" r="2.99293" fill="#0B0932"/>
</svg>
