<svg width="164" height="20" viewBox="0 0 164 20" fill="none" xmlns="http://www.w3.org/2000/svg">
<path d="M5.96402 4.01019C15.5065 4.01019 23.8561 6.4063 19.0849 0.416016C20.639 1.19659 26.8197 2.26565 28.5852 2.93824C28.6395 2.90063 28.6894 2.86408 28.735 2.82854L29.082 2.00851C28.7073 1.56247 27.3154 1.59305 29.2578 1.59305L29.082 2.00851C29.2351 2.19075 29.2184 2.45256 28.735 2.82854L27.8286 4.97087C27.8229 4.97101 27.8173 4.97112 27.8118 4.97119C29.42 6.33159 27.5836 7.95305 27.5836 10.0005C27.5836 12.1364 29.5822 13.8084 27.5836 15.2045L27.8286 18.492C25.0361 18.492 28.4968 17.701 26.4834 16.306C24.7436 17.1753 20.6482 18.7998 19.0849 19.5849C23.8561 13.5946 15.5065 15.9908 5.96402 15.9908C10.0429 14.6252 13.1383 13.5811 15.3574 12.6961C11.7997 11.5457 6.97791 10.5396 0 10.0005C6.97791 9.46134 11.7996 8.45522 15.3574 7.30484C13.1383 6.41988 10.0428 5.37573 5.96402 4.01019Z" fill="#85D68E"/>
<path d="M24.4453 18.5755L27.9428 1.08803H36.7864C38.7683 1.08803 40.2756 1.44611 41.3082 2.16226C42.3408 2.86176 42.8571 3.86936 42.8571 5.18508C42.8571 6.26764 42.5573 7.18365 41.9577 7.93311C41.3582 8.68257 40.5504 9.25716 39.5345 9.65687C38.5185 10.0399 37.3777 10.2315 36.1119 10.2315L36.8114 9.03232C38.4269 9.03232 39.7093 9.38207 40.6587 10.0816C41.608 10.7811 42.0826 11.7637 42.0826 13.0294C42.0826 14.2952 41.7246 15.3361 41.0084 16.1522C40.3089 16.9683 39.3513 17.5762 38.1355 17.9759C36.9363 18.3756 35.579 18.5755 34.0634 18.5755H24.4453ZM30.0413 15.003H34.3382C35.2042 15.003 35.8871 14.8282 36.3867 14.4784C36.903 14.1287 37.1612 13.6124 37.1612 12.9295C37.1612 12.4132 36.9696 12.0385 36.5866 11.8053C36.2035 11.5722 35.7122 11.4556 35.1126 11.4556H30.3411L31.0156 8.03304H34.9877C35.5706 8.03304 36.062 7.95809 36.4617 7.8082C36.878 7.65831 37.1862 7.43347 37.386 7.13368C37.5859 6.8339 37.6858 6.4675 37.6858 6.03447C37.6858 5.55149 37.5026 5.20174 37.1362 4.98523C36.7698 4.76872 36.2618 4.66046 35.6123 4.66046H32.1148L30.0413 15.003Z" fill="white"/>
<path d="M50.3156 7.85816H58.4347L57.7103 11.5555H49.5911L50.3156 7.85816ZM49.2913 14.7532H58.4597L57.6603 18.5755H43.6454L47.1429 1.08803H60.833L60.0586 4.91028H51.2399L49.2913 14.7532Z" fill="white"/>
<path d="M64.1275 18.5755L66.8506 5.01021H61.4794L62.2789 1.08803H77.9426L77.1432 5.01021H71.797L69.074 18.5755H64.1275Z" fill="white"/>
<path d="M76.2879 18.5755L79.7854 1.08803H88.6291C90.611 1.08803 92.1182 1.44611 93.1508 2.16226C94.1834 2.86176 94.6997 3.86936 94.6997 5.18508C94.6997 6.26764 94.3999 7.18365 93.8003 7.93311C93.2008 8.68257 92.393 9.25716 91.3771 9.65687C90.3611 10.0399 89.2203 10.2315 87.9545 10.2315L88.654 9.03232C90.2695 9.03232 91.5519 9.38207 92.5013 10.0816C93.4506 10.7811 93.9252 11.7637 93.9252 13.0294C93.9252 14.2952 93.5672 15.3361 92.851 16.1522C92.1515 16.9683 91.1939 17.5762 89.9781 17.9759C88.7789 18.3756 87.4216 18.5755 85.906 18.5755H76.2879ZM81.8839 15.003H86.1808C87.0469 15.003 87.7297 14.8282 88.2293 14.4784C88.7456 14.1287 89.0038 13.6124 89.0038 12.9295C89.0038 12.4132 88.8122 12.0385 88.4292 11.8053C88.0461 11.5722 87.5548 11.4556 86.9553 11.4556H82.1837L82.8582 8.03304H86.8303C87.4133 8.03304 87.9046 7.95809 88.3043 7.8082C88.7206 7.65831 89.0288 7.43347 89.2286 7.13368C89.4285 6.8339 89.5284 6.4675 89.5284 6.03447C89.5284 5.55149 89.3452 5.20174 88.9788 4.98523C88.6124 4.76872 88.1044 4.66046 87.4549 4.66046H83.9574L81.8839 15.003Z" fill="#85D68E"/>
<path d="M95.488 18.5755L98.9855 1.08803H103.932L101.234 14.6533H109.578L108.778 18.5755H95.488Z" fill="#85D68E"/>
<path d="M108.808 18.5755L120.025 1.08803H124.897L129.118 18.5755H124.197L121.074 3.43634H123.023L114.029 18.5755H108.808ZM113.705 15.1779L115.703 11.5305H124.247L124.797 15.1779H113.705Z" fill="#85D68E"/>
<path d="M137.066 18.9252C136.067 18.9252 135.109 18.8419 134.193 18.6754C133.277 18.5255 132.444 18.309 131.695 18.0259C130.945 17.7261 130.304 17.4013 129.771 17.0516L131.72 13.3542C132.32 13.7206 132.936 14.0371 133.569 14.3035C134.218 14.5533 134.876 14.7449 135.542 14.8781C136.208 15.0114 136.875 15.078 137.541 15.078C138.174 15.078 138.715 15.0197 139.165 14.9031C139.614 14.7699 139.956 14.5867 140.189 14.3535C140.422 14.1203 140.539 13.8455 140.539 13.5291C140.539 13.1793 140.38 12.9045 140.064 12.7047C139.764 12.4882 139.364 12.305 138.865 12.1551C138.365 12.0052 137.807 11.8553 137.191 11.7054C136.591 11.5388 135.984 11.3473 135.367 11.1308C134.768 10.8976 134.218 10.6145 133.719 10.2814C133.219 9.93167 132.811 9.49032 132.494 8.95737C132.195 8.42442 132.045 7.76656 132.045 6.98379C132.045 5.71803 132.386 4.61882 133.069 3.68616C133.752 2.7535 134.718 2.02902 135.967 1.51272C137.233 0.996429 138.723 0.738281 140.439 0.738281C141.688 0.738281 142.854 0.871519 143.936 1.13799C145.019 1.38781 145.951 1.75422 146.734 2.2372L144.935 5.90956C144.253 5.47654 143.495 5.15177 142.662 4.93526C141.846 4.7021 141.005 4.58552 140.139 4.58552C139.473 4.58552 138.898 4.66046 138.415 4.81035C137.949 4.96025 137.591 5.16843 137.341 5.4349C137.108 5.68472 136.991 5.96785 136.991 6.28429C136.991 6.61739 137.141 6.89219 137.441 7.1087C137.741 7.32521 138.14 7.50841 138.64 7.65831C139.156 7.8082 139.714 7.96642 140.314 8.13296C140.93 8.28286 141.538 8.46606 142.137 8.68257C142.737 8.88243 143.295 9.15723 143.811 9.50698C144.328 9.84007 144.736 10.2648 145.035 10.7811C145.335 11.2974 145.485 11.9386 145.485 12.7047C145.485 13.9538 145.144 15.0447 144.461 15.9773C143.778 16.91 142.804 17.6345 141.538 18.1508C140.272 18.6671 138.782 18.9252 137.066 18.9252Z" fill="#85D68E"/>
<path d="M150.174 18.5755L152.897 5.01021H147.526L148.325 1.08803H163.989L163.19 5.01021H157.844L155.12 18.5755H150.174Z" fill="#85D68E"/>
</svg>
