<svg width="151" height="22" viewBox="0 0 151 22" fill="none" xmlns="http://www.w3.org/2000/svg">
<path d="M6.93448 21.157C5.76869 21.157 4.56269 20.8655 3.31649 20.2826C2.07029 19.6997 0.964798 18.745 0 17.4184L2.83409 14.7049C3.37679 15.3883 4.06019 15.9411 4.88429 16.3631C5.70839 16.7852 6.55258 16.9963 7.41688 16.9963C7.83898 16.9963 8.21083 16.936 8.53243 16.8154C8.87413 16.6948 9.13543 16.5239 9.31633 16.3028C9.49723 16.0818 9.58768 15.8104 9.58768 15.4888C9.58768 14.9662 9.39673 14.5542 9.01483 14.2527C8.63293 13.9512 8.08018 13.5793 7.35658 13.1371L5.78879 12.1723C4.86419 11.5894 4.13054 10.9161 3.58784 10.1523C3.04514 9.36837 2.77379 8.37342 2.77379 7.16742C2.77379 6.00163 3.09539 4.94638 3.73859 4.00168C4.38179 3.03688 5.23604 2.27309 6.30133 1.71029C7.38673 1.12739 8.56258 0.835938 9.82888 0.835938C10.9746 0.835938 12.0801 1.10729 13.1454 1.64999C14.2107 2.19268 15.1152 2.94643 15.8589 3.91123L13.1454 6.68502C12.6429 6.16243 12.1102 5.75038 11.5474 5.44888C11.0047 5.14738 10.4118 4.99663 9.76858 4.99663C9.30628 4.99663 8.92438 5.06698 8.62288 5.20768C8.32138 5.34838 8.09023 5.54938 7.92943 5.81068C7.78873 6.05188 7.71838 6.32323 7.71838 6.62472C7.71838 7.06692 7.91938 7.42872 8.32138 7.71012C8.72338 7.99152 9.32638 8.39352 10.1304 8.91612L11.8791 10.0015C12.8439 10.6045 13.5373 11.2477 13.9594 11.9311C14.3815 12.5944 14.5926 13.4989 14.5926 14.6446C14.5926 15.8305 14.281 16.9159 13.6579 17.9008C13.0348 18.8857 12.1504 19.6796 11.0047 20.2826C9.85903 20.8655 8.50228 21.157 6.93448 21.157Z" fill="white"/>
<path d="M18.1528 20.7952L18.8764 1.19774H23.821L23.0371 10.0618C22.9366 11.0869 22.8261 12.1321 22.7055 13.1974C22.605 14.2426 22.4743 15.2878 22.3135 16.333H22.4341C22.8361 15.2878 23.2482 14.2326 23.6703 13.1673C24.1125 12.102 24.5245 11.0668 24.9064 10.0618L28.6149 1.19774H32.6248V10.0618C32.6047 11.0467 32.5645 12.0718 32.5042 13.1371C32.4439 14.2024 32.3836 15.2677 32.3233 16.333H32.4439C32.7856 15.2677 33.1374 14.2125 33.4992 13.1673C33.861 12.102 34.1926 11.0668 34.4941 10.0618L37.4488 1.19774H42.0316L34.675 20.7952H28.7053L28.9465 12.4135C28.9867 11.71 29.037 10.9362 29.0973 10.092C29.1576 9.22767 29.2279 8.37342 29.3083 7.52922H29.1877C28.9264 8.33322 28.635 9.17742 28.3134 10.0618C28.0119 10.9261 27.7204 11.71 27.439 12.4135L24.1225 20.7952H18.1528Z" fill="white"/>
<path d="M41.0552 20.7952L44.9747 1.19774H49.7987L45.8792 20.7952H41.0552Z" fill="white"/>
<path d="M56.8997 21.157C55.7339 21.157 54.5279 20.8655 53.2817 20.2826C52.0356 19.6997 50.9301 18.745 49.9653 17.4184L52.7993 14.7049C53.342 15.3883 54.0254 15.9411 54.8495 16.3631C55.6736 16.7852 56.5178 16.9963 57.3821 16.9963C57.8042 16.9963 58.1761 16.936 58.4977 16.8154C58.8394 16.6948 59.1007 16.5239 59.2816 16.3028C59.4625 16.0818 59.5529 15.8104 59.5529 15.4888C59.5529 14.9662 59.362 14.5542 58.9801 14.2527C58.5982 13.9512 58.0454 13.5793 57.3218 13.1371L55.754 12.1723C54.8294 11.5894 54.0958 10.9161 53.5531 10.1523C53.0104 9.36837 52.739 8.37342 52.739 7.16742C52.739 6.00163 53.0606 4.94638 53.7038 4.00168C54.347 3.03688 55.2013 2.27309 56.2666 1.71029C57.352 1.12739 58.5278 0.835938 59.7941 0.835938C60.9398 0.835938 62.0453 1.10729 63.1106 1.64999C64.1759 2.19268 65.0804 2.94643 65.8241 3.91123L63.1106 6.68502C62.6081 6.16243 62.0755 5.75038 61.5127 5.44888C60.97 5.14738 60.377 4.99663 59.7338 4.99663C59.2715 4.99663 58.8896 5.06698 58.5881 5.20768C58.2866 5.34838 58.0555 5.54938 57.8947 5.81068C57.754 6.05188 57.6836 6.32323 57.6836 6.62472C57.6836 7.06692 57.8846 7.42872 58.2866 7.71012C58.6886 7.99152 59.2916 8.39352 60.0956 8.91612L61.8443 10.0015C62.8091 10.6045 63.5026 11.2477 63.9247 11.9311C64.3468 12.5944 64.5578 13.4989 64.5578 14.6446C64.5578 15.8305 64.2463 16.9159 63.6232 17.9008C63.0001 18.8857 62.1157 19.6796 60.97 20.2826C59.8243 20.8655 58.4675 21.157 56.8997 21.157Z" fill="white"/>
<path d="M72.8286 21.157C71.6628 21.157 70.4568 20.8655 69.2106 20.2826C67.9644 19.6997 66.8589 18.745 65.8941 17.4184L68.7282 14.7049C69.2709 15.3883 69.9543 15.9411 70.7784 16.3631C71.6025 16.7852 72.4467 16.9963 73.311 16.9963C73.7331 16.9963 74.1049 16.936 74.4265 16.8154C74.7682 16.6948 75.0295 16.5239 75.2104 16.3028C75.3913 16.0818 75.4818 15.8104 75.4818 15.4888C75.4818 14.9662 75.2908 14.5542 74.9089 14.2527C74.527 13.9512 73.9743 13.5793 73.2507 13.1371L71.6829 12.1723C70.7583 11.5894 70.0246 10.9161 69.4819 10.1523C68.9392 9.36837 68.6679 8.37342 68.6679 7.16742C68.6679 6.00163 68.9895 4.94638 69.6327 4.00168C70.2759 3.03688 71.1301 2.27309 72.1954 1.71029C73.2808 1.12739 74.4566 0.835938 75.7229 0.835938C76.8686 0.835938 77.9741 1.10729 79.0394 1.64999C80.1047 2.19268 81.0092 2.94643 81.7529 3.91123L79.0394 6.68502C78.5369 6.16243 78.0043 5.75038 77.4415 5.44888C76.8988 5.14738 76.3058 4.99663 75.6626 4.99663C75.2003 4.99663 74.8185 5.06698 74.517 5.20768C74.2155 5.34838 73.9843 5.54938 73.8235 5.81068C73.6828 6.05188 73.6125 6.32323 73.6125 6.62472C73.6125 7.06692 73.8135 7.42872 74.2155 7.71012C74.6175 7.99152 75.2205 8.39352 76.0244 8.91612L77.7731 10.0015C78.7379 10.6045 79.4314 11.2477 79.8535 11.9311C80.2756 12.5944 80.4866 13.4989 80.4866 14.6446C80.4866 15.8305 80.1751 16.9159 79.552 17.9008C78.9289 18.8857 78.0445 19.6796 76.8988 20.2826C75.7531 20.8655 74.3963 21.157 72.8286 21.157Z" fill="white"/>
<path d="M93.5743 20.7952H89.1724L90.0468 16.3933H81.9967L82.66 13.0165L91.5241 1.68014H97.3732L95.1722 12.715H97.2526L96.529 16.3933H94.4486L93.5743 20.7952ZM87.3634 12.715H90.7703L91.2829 10.1221C91.4437 9.39852 91.6145 8.66487 91.7954 7.92117C91.9964 7.17747 92.1673 6.44382 92.308 5.72023H92.1874C91.8256 6.32323 91.4538 6.92622 91.0719 7.52922C90.6899 8.13222 90.2779 8.73522 89.8357 9.33822L87.3634 12.715Z" fill="#EC2C24"/>
<path d="M99.7108 20.7952L100.434 1.19774H105.379L104.595 10.0618C104.495 11.0869 104.384 12.1321 104.263 13.1974C104.163 14.2426 104.032 15.2878 103.871 16.333H103.992C104.394 15.2878 104.806 14.2326 105.228 13.1673C105.67 12.102 106.082 11.0668 106.464 10.0618L110.173 1.19774H114.183V10.0618C114.163 11.0467 114.122 12.0718 114.062 13.1371C114.002 14.2024 113.942 15.2677 113.881 16.333H114.002C114.344 15.2677 114.695 14.2125 115.057 13.1673C115.419 12.102 115.751 11.0668 116.052 10.0618L119.007 1.19774H123.589L116.233 20.7952H110.263L110.504 12.4135C110.545 11.71 110.595 10.9362 110.655 10.092C110.715 9.22767 110.786 8.37342 110.866 7.52922H110.746C110.484 8.33322 110.193 9.17742 109.871 10.0618C109.57 10.9261 109.278 11.71 108.997 12.4135L105.68 20.7952H99.7108Z" fill="#EC2C24"/>
<path d="M122.613 20.7952L126.533 1.19774H131.357L127.437 20.7952H122.613Z" fill="#EC2C24"/>
<path d="M132.006 20.7952L135.925 1.19774H140.689L143.282 10.6045C143.402 11.0467 143.513 11.499 143.613 11.9613C143.714 12.4035 143.804 12.8658 143.885 13.3482C143.985 13.8306 144.086 14.3431 144.186 14.8858H144.307C144.367 13.7602 144.457 12.5442 144.578 11.2377C144.719 9.93117 144.91 8.69502 145.151 7.52922L146.417 1.19774H151L147.081 20.7952H142.317L139.724 11.3884C139.543 10.7251 139.382 10.0518 139.242 9.36837C139.121 8.66487 138.98 7.91112 138.819 7.10712H138.699C138.639 8.21262 138.538 9.41862 138.397 10.7251C138.277 12.0316 138.096 13.2778 137.855 14.4637L136.588 20.7952H132.006Z" fill="#EC2C24"/>
</svg>
