<svg width="112" height="41" viewBox="0 0 112 41" fill="none" xmlns="http://www.w3.org/2000/svg">
<path d="M5.63086 1.36523C7.06447 1.36538 8.38486 2.11804 9.11816 3.33398L9.25684 3.58301L18.5264 21.7051C19.0441 22.7176 19.0855 23.9034 18.6494 24.9453L18.5566 25.1523L14.4756 33.4863C14.1264 34.1992 13.4019 34.6514 12.6084 34.6514H6.73926L12.1123 23.6758L12.2422 23.4102L12.1074 23.1465L0.966797 1.36523H5.63086Z" fill="#FF4F00" stroke="#091C2D" stroke-width="1.18283"/>
<path d="M9.78131 3.31445C14.398 12.3404 14.7584 16.9242 11.5797 23.4166L5.78906 35.244H12.6071C13.6264 35.244 14.5568 34.6634 15.0053 33.7479L19.0858 25.4133C19.7011 24.1565 19.6883 22.6831 19.0511 21.4371L9.78131 3.31445Z" fill="#A553FF"/>
<path d="M18.5244 21.7061C19.0423 22.7187 19.0848 23.9052 18.6484 24.9473L18.5547 25.1533L14.4736 33.4883C14.1244 34.2007 13.4005 34.6522 12.6074 34.6523H6.7373L12.1113 23.6768C13.7317 20.3671 14.4753 17.4882 14.1934 14.2637C14.1536 13.8091 14.0912 13.3491 14.0107 12.8809L18.5244 21.7061Z" fill="#FFB800" stroke="#091C2D" stroke-width="1.18283"/>
<mask id="path-4-inside-1_1859_45331" fill="white">
<path d="M30.753 0.351563L20.8136 20.6533L17.4913 14.1582C16.8542 12.9122 16.8409 11.4385 17.4562 10.1816L21.5372 1.84766C21.9854 0.932215 22.9155 0.35151 23.9347 0.351563H30.753Z"/>
</mask>
<path d="M30.753 0.351563L20.8136 20.6533L17.4913 14.1582C16.8542 12.9122 16.8409 11.4385 17.4562 10.1816L21.5372 1.84766C21.9854 0.932215 22.9155 0.35151 23.9347 0.351563H30.753Z" fill="#FFB800"/>
<path d="M30.753 0.351563L31.8154 0.871671L32.6491 -0.831269H30.753V0.351563ZM20.8136 20.6533L19.7605 21.192L20.8367 23.296L21.8759 21.1734L20.8136 20.6533ZM17.4913 14.1582L16.4382 14.6967L16.4382 14.6968L17.4913 14.1582ZM17.4562 10.1816L16.3938 9.66144L16.3938 9.66157L17.4562 10.1816ZM21.5372 1.84766L22.5995 2.36785L22.5996 2.36777L21.5372 1.84766ZM23.9347 0.351563L23.9346 1.53439H23.9347V0.351563ZM30.753 0.351563L29.6907 -0.168546L19.7512 20.1332L20.8136 20.6533L21.8759 21.1734L31.8154 0.871671L30.753 0.351563ZM20.8136 20.6533L21.8666 20.1147L18.5444 13.6196L17.4913 14.1582L16.4382 14.6968L19.7605 21.192L20.8136 20.6533ZM17.4913 14.1582L18.5444 13.6197C18.0768 12.7052 18.0672 11.6236 18.5185 10.7017L17.4562 10.1816L16.3938 9.66157C15.6146 11.2533 15.6315 13.1193 16.4382 14.6967L17.4913 14.1582ZM17.4562 10.1816L18.5185 10.7018L22.5995 2.36785L21.5372 1.84766L20.4749 1.32746L16.3938 9.66144L17.4562 10.1816ZM21.5372 1.84766L22.5996 2.36777C22.8494 1.85754 23.3675 1.53436 23.9346 1.53439L23.9347 0.351563L23.9347 -0.831269C22.4635 -0.831344 21.1214 0.00689107 20.4749 1.32755L21.5372 1.84766ZM23.9347 0.351563V1.53439H30.753V0.351563V-0.831269H23.9347V0.351563Z" fill="#091C2D" mask="url(#path-4-inside-1_1859_45331)"/>
<path d="M29.3672 15.0303C31.3121 15.0303 32.9206 15.4678 34.1162 16.4199H34.1152C35.3284 17.3779 35.9404 18.6728 35.9404 20.2461C35.9404 21.2415 35.749 22.1644 35.3564 23.0039L35.3555 23.0068C34.9572 23.8477 34.3461 24.5605 33.5439 25.1494L33.5449 25.1504C32.7458 25.7443 31.7484 26.1859 30.5742 26.4922L30.5693 26.4941C29.3879 26.7921 28.0067 26.9355 26.4346 26.9355H26.2197C26.2741 27.3295 26.4122 27.5685 26.5811 27.7168L26.6807 27.793C26.9329 27.965 27.3366 28.0879 27.9668 28.0879C28.7396 28.0879 29.4652 27.9713 30.1465 27.7412L30.6914 27.543C31.2485 27.3264 31.8397 27.0553 32.4648 26.7285L33.3721 26.2539V31.6572L33.0312 31.8291C32.2271 32.2356 31.3993 32.5732 30.5479 32.8408L30.1807 32.9512C29.1619 33.2452 27.9077 33.3848 26.4346 33.3848C25.0584 33.3848 23.8397 33.1407 22.7998 32.6279L22.5947 32.5225C21.5148 31.9393 20.6825 31.1009 20.1094 30.0195L20.1055 30.0137C19.5455 28.926 19.2783 27.6565 19.2783 26.2275C19.2784 24.8168 19.476 23.4485 19.873 22.125L19.875 22.1211L20.0381 21.627C20.4423 20.4896 21.0057 19.454 21.7285 18.5234L21.7305 18.5205L22.0586 18.127C22.8468 17.2338 23.7979 16.5138 24.9062 15.9688L25.1504 15.8545C26.3819 15.299 27.7924 15.0303 29.3672 15.0303ZM43.5928 15.0303C44.7224 15.0303 45.774 15.1672 46.7422 15.4482L46.7412 15.4492C47.7023 15.7184 48.6249 16.1254 49.5068 16.6689L49.9814 16.9619L49.7402 17.4658L47.9746 21.1416L47.667 21.7832L47.0732 21.3906C46.6961 21.1415 46.2745 20.9122 45.8066 20.7041L45.3232 20.5029L45.3135 20.499C44.6762 20.2388 44.1246 20.1221 43.6514 20.1221C43.4176 20.1221 43.2966 20.1764 43.2305 20.2275C43.2091 20.2477 43.1631 20.3066 43.1631 20.4941C43.1631 20.523 43.1693 20.5556 43.21 20.6074C43.2832 20.6868 43.4251 20.8003 43.6709 20.9404C43.956 21.0925 44.3226 21.2839 44.7725 21.5137L45.0645 21.6631C45.7295 22.0182 46.2996 22.4215 46.7656 22.877L46.9629 23.0752C47.4083 23.5445 47.7535 24.0639 47.9893 24.6338H47.9883C48.2659 25.2812 48.4004 25.9854 48.4004 26.7383C48.4004 28.191 48.0786 29.4486 47.3906 30.4697L47.3887 30.4727C46.7088 31.4706 45.7532 32.2051 44.5518 32.6836C43.3631 33.1569 41.983 33.3848 40.4268 33.3848C39.2997 33.3847 38.2795 33.3041 37.3701 33.1406H37.3691C36.4719 32.9775 35.6697 32.735 34.9697 32.4062L34.6133 32.2393V26.2646L35.5293 26.7627C36.3907 27.2308 37.1736 27.5487 37.8799 27.7275L38.1504 27.791C38.7812 27.9303 39.4183 28 40.0625 28C40.2613 28 40.5039 27.9823 40.7939 27.9463C41.0294 27.9083 41.2175 27.8383 41.3682 27.7441L41.4092 27.7061C41.4132 27.6982 41.4267 27.669 41.4268 27.5996C41.4268 27.4794 41.3986 27.3932 41.3564 27.3242L41.3467 27.3076L41.3369 27.29C41.3106 27.2401 41.2028 27.1055 40.9043 26.8975L40.8936 26.8896C40.6048 26.6797 40.1364 26.3934 39.4717 26.0273L39.4688 26.0254C38.7481 25.6239 38.1375 25.1767 37.6494 24.6777C37.1578 24.1752 36.7845 23.6096 36.5381 22.9824L36.5332 22.9697C36.2995 22.3353 36.1885 21.6332 36.1885 20.873C36.1885 19.7322 36.4569 18.7057 37.0127 17.8164C37.5766 16.9044 38.4276 16.2166 39.5225 15.7383L39.5244 15.7373L39.7363 15.6504C40.8095 15.2287 42.1021 15.0303 43.5928 15.0303ZM28.7402 20.0928C28.5137 20.0928 28.2869 20.1658 28.0508 20.3525L27.9492 20.4395C27.6458 20.7189 27.3845 21.0794 27.1709 21.5322L27.1689 21.5361C27.0688 21.7444 26.9866 21.9509 26.9209 22.1553C27.54 22.128 27.9996 22.0302 28.3242 21.8838L28.4746 21.8115C28.8062 21.64 29.0055 21.4532 29.1191 21.2725L29.2236 21.084C29.31 20.901 29.3447 20.7348 29.3447 20.582C29.3447 20.4546 29.3179 20.3604 29.2695 20.2832L29.2148 20.2109C29.1848 20.1778 29.0776 20.0929 28.7402 20.0928Z" fill="#FFB800" stroke="#091C2D" stroke-width="1.24055"/>
<path d="M82.6924 15.0312C83.3845 15.0313 84.0167 15.1369 84.5742 15.3682H84.5752C85.1251 15.5926 85.6087 15.9105 86.0195 16.3213H86.0186C86.1635 16.4593 86.301 16.6059 86.4307 16.7617L86.8242 15.7236L86.9766 15.3223H98.5156L98.5586 15.8965L99.1074 23.2373L102.359 15.6973L102.521 15.3223H110.024L109.548 16.2314L99.7725 34.8477C99.1586 36.0343 98.4644 37.0327 97.6855 37.833L97.6865 37.834C96.9961 38.552 96.2121 39.1133 95.3369 39.5127L94.9561 39.6738C93.9256 40.0775 92.7469 40.2715 91.4326 40.2715C90.8511 40.2715 90.3526 40.2415 89.9473 40.1758V40.1748C89.5821 40.125 89.2703 40.0686 89.0225 40.001L88.5654 39.877V34.1592L89.3135 34.3174C89.4805 34.3525 89.6947 34.389 89.959 34.4268L90.3418 34.4658C90.4779 34.4746 90.6228 34.4785 90.7764 34.4785C91.5578 34.4785 92.116 34.3115 92.5059 34.0371L92.5166 34.0303L92.6777 33.9121C93.0534 33.618 93.4149 33.1865 93.752 32.5908L93.9834 32.1777L92.0117 18.5352L89.0332 32.6016L88.9287 33.0928H83.2451L83.2998 32.4229L83.3105 32.2793C82.909 32.6136 82.4518 32.8747 81.9424 33.0635L81.9434 33.0645C81.3858 33.2852 80.7447 33.3848 80.0371 33.3848C79.0889 33.3848 78.2021 33.1602 77.3877 32.709L77.3848 32.707C76.5372 32.231 75.8885 31.4631 75.4189 30.46L75.418 30.458C74.9373 29.4203 74.7188 28.0742 74.7188 26.4619C74.7188 25.6081 74.8162 24.683 75.0068 23.6895L75.0078 23.6836L75.6162 23.8066L75.0088 23.6836C75.211 22.6829 75.508 21.6891 75.9004 20.7031L75.9023 20.7002L76.0596 20.3262C76.4386 19.4622 76.8971 18.6617 77.4355 17.9258L77.6768 17.6113C78.2522 16.8959 78.9168 16.3064 79.6719 15.8496C80.5733 15.3004 81.5859 15.0312 82.6924 15.0312ZM58.6025 10.5225C60.5413 10.5225 62.1584 10.8112 63.4131 11.4326L63.6436 11.5498C64.7723 12.1506 65.629 12.9635 66.1787 13.9971H66.1797C66.759 15.0592 67.043 16.2427 67.043 17.5332C67.043 18.8806 66.8001 20.0991 66.2998 21.1758L66.3008 21.1768C65.8131 22.2369 65.1106 23.136 64.1992 23.8672L64.1982 23.8682C63.3013 24.5857 62.2398 25.1212 61.0254 25.4814L61.0244 25.4805C59.8209 25.8402 58.5012 26.0176 57.0703 26.0176H56.3213L54.9648 32.5986L54.8623 33.0928H47.8877L48.0459 32.3447L52.5537 11.0146L52.6572 10.5225H58.6025ZM77.1387 9.15137L76.9805 9.89941L72.1807 32.6016L72.0771 33.0928H65.1621L65.3203 32.3447L70.1211 9.64355L70.2246 9.15137H77.1387ZM84.0049 20.8086C83.8613 20.8087 83.6927 20.8599 83.4883 21.0234L83.4863 21.0244C83.2758 21.1914 83.0585 21.4411 82.8428 21.7949L82.8389 21.8008C82.6233 22.1457 82.4275 22.5568 82.2549 23.0381C82.0913 23.5116 81.9588 24.0155 81.8574 24.5498C81.7674 25.0755 81.7227 25.6057 81.7227 26.1406C81.7227 26.7577 81.8183 27.1474 81.9443 27.374C82.046 27.5432 82.1589 27.6074 82.3564 27.6074C82.5717 27.6074 82.8105 27.5172 83.083 27.2227C83.3821 26.8896 83.6518 26.4465 83.8828 25.8779L83.8857 25.8711L84.0557 25.4316C84.2128 24.984 84.3331 24.5113 84.415 24.0127L84.416 24.0039L84.418 23.9951C84.4725 23.7132 84.5128 23.4316 84.54 23.1504L84.5713 22.7158C84.5781 22.5723 84.5811 22.4298 84.5811 22.2891C84.581 21.7154 84.4876 21.3229 84.3496 21.0664L84.3447 21.0576L84.3408 21.0498C84.2815 20.9312 84.2246 20.8785 84.1865 20.8535C84.1515 20.8305 84.0989 20.8086 84.0049 20.8086ZM57.6025 20.1084H57.7559C58.2669 20.1084 58.673 19.9977 58.998 19.8027L59.0029 19.7998L59.1299 19.7197C59.4168 19.525 59.6401 19.2751 59.8057 18.9639L59.873 18.8262C60.02 18.5006 60.0977 18.1309 60.0977 17.708C60.0976 17.3663 59.9921 17.0642 59.7666 16.7822L59.7617 16.7764L59.7559 16.7695C59.6138 16.5817 59.3367 16.417 58.748 16.417H58.3896L57.6025 20.1084Z" fill="#FF4F00" stroke="#091C2D" stroke-width="1.24055"/>
</svg>
