<svg width="76" height="40" viewBox="0 0 76 40" fill="none" xmlns="http://www.w3.org/2000/svg">
<path d="M19.3316 0.787927C15.9236 0.761042 12.1811 2.56232 11.2829 7.41978C12.6566 4.57174 17.3678 -0.967386 23.5144 3.20235L22.3432 3.59608C17.4999 1.08192 14.8581 7.72332 19.1643 9.72666C23.2943 11.652 22.854 13.6813 18.2044 11.4959C26.2971 17.4712 11.8817 28.1557 11.8817 28.1557C14.8229 27.5053 17.9666 26.0223 21.5859 22.5446L20.811 24.7908C27.301 21.608 26.8871 14.0976 26.8871 14.0976L27.4948 17.0549C31.1493 7.15961 17.5087 7.81004 20.2386 4.42517C24.8706 7.08155 31.1669 6.50917 31.1669 6.50917L24.6504 2.77219C23.5673 1.57452 21.5155 0.805272 19.3316 0.787927ZM14.6115 12.207C8.88762 12.1463 -0.71271 18.7634 0.0419667 34.2785C0.0419667 34.2785 2.89072 31.6941 5.3476 26.3692L4.3261 31.2865C22.2992 19.4399 20.5204 12.2677 14.6115 12.207ZM15.501 28.4506C15.0166 28.6761 14.5235 28.8755 14.0215 29.0663L13.8542 33.9489H13.8718C14.2681 35.5794 14.7524 37.2532 14.9374 38.979H16.2847C15.7035 37.2532 15.228 35.6748 14.8581 33.8622C14.8581 33.8622 15.3953 29.3265 15.501 28.4506ZM11.4766 29.9249C11.0011 30.0723 10.5432 30.1937 10.1029 30.3065C10.4815 33.2031 10.7897 36.2992 10.7897 38.979H12.0314C11.5647 35.7702 11.5206 33.125 11.4766 29.9249Z" fill="#88AAE0"/>
<path d="M19.3316 0.787927C15.9236 0.761042 12.1811 2.56232 11.2829 7.41978C12.6566 4.57174 17.3678 -0.967386 23.5144 3.20235L22.3432 3.59608C17.4999 1.08192 14.8581 7.72332 19.1643 9.72666C23.2943 11.652 22.854 13.6813 18.2044 11.4959C26.2971 17.4712 11.8817 28.1557 11.8817 28.1557C14.8229 27.5053 17.9666 26.0223 21.5859 22.5446L20.811 24.7908C27.301 21.608 26.8871 14.0976 26.8871 14.0976L27.4948 17.0549C31.1493 7.15961 17.5087 7.81004 20.2386 4.42517C24.8706 7.08155 31.1669 6.50917 31.1669 6.50917L24.6504 2.77219C23.5673 1.57452 21.5155 0.805272 19.3316 0.787927ZM14.6115 12.207C8.88762 12.1463 -0.71271 18.7634 0.0419667 34.2785C0.0419667 34.2785 2.89072 31.6941 5.3476 26.3692L4.3261 31.2865C22.2992 19.4399 20.5204 12.2677 14.6115 12.207ZM15.501 28.4506C15.0166 28.6761 14.5235 28.8755 14.0215 29.0663L13.8542 33.9489H13.8718C14.2681 35.5794 14.7524 37.2532 14.9374 38.979H16.2847C15.7035 37.2532 15.228 35.6748 14.8581 33.8622C14.8581 33.8622 15.3953 29.3265 15.501 28.4506ZM11.4766 29.9249C11.0011 30.0723 10.5432 30.1937 10.1029 30.3065C10.4815 33.2031 10.7897 36.2992 10.7897 38.979H12.0314C11.5647 35.7702 11.5206 33.125 11.4766 29.9249Z" fill="#88AAE0"/>
<path d="M40.0431 4.74169H41.9056V8.26538C41.4274 8.62106 40.8737 8.89402 40.2445 9.08426C39.6152 9.27451 38.9818 9.36963 38.3442 9.36963C37.4297 9.36963 36.6075 9.17939 35.8776 8.7989C35.1476 8.41013 34.5729 7.87662 34.1534 7.19835C33.7423 6.51181 33.5368 5.73842 33.5368 4.87818C33.5368 4.01793 33.7423 3.24868 34.1534 2.57041C34.5729 1.88387 35.1518 1.35036 35.8901 0.969864C36.6284 0.5811 37.459 0.386719 38.3819 0.386719C39.1538 0.386719 39.8543 0.514928 40.4836 0.771346C41.1128 1.02776 41.6414 1.39998 42.0692 1.88801L40.7604 3.07911C40.1312 2.42566 39.3719 2.09893 38.4826 2.09893C37.9205 2.09893 37.4213 2.21473 36.985 2.44634C36.5487 2.67794 36.209 3.00467 35.9656 3.42652C35.7223 3.84837 35.6007 4.33225 35.6007 4.87818C35.6007 5.41583 35.7223 5.89558 35.9656 6.31743C36.209 6.73928 36.5445 7.07014 36.9724 7.31001C37.4087 7.54162 37.9037 7.65742 38.4574 7.65742C39.0447 7.65742 39.5733 7.53335 40.0431 7.2852V4.74169Z" fill="white"/>
<path d="M48.783 9.22075L47.0841 6.80131H45.2089V9.22075H43.1702V0.535606H46.9834C47.7636 0.535606 48.439 0.663816 49.0095 0.920234C49.5884 1.17665 50.0331 1.5406 50.3435 2.01208C50.6539 2.48356 50.8091 3.04189 50.8091 3.68707C50.8091 4.33225 50.6497 4.89058 50.3309 5.36206C50.0205 5.82527 49.5758 6.18095 48.9969 6.42909L50.9727 9.22075H48.783ZM48.7453 3.68707C48.7453 3.19905 48.5858 2.82683 48.267 2.57041C47.9482 2.30572 47.4826 2.17338 46.8701 2.17338H45.2089V5.20077H46.8701C47.4826 5.20077 47.9482 5.06842 48.267 4.80373C48.5858 4.53904 48.7453 4.16682 48.7453 3.68707Z" fill="white"/>
<path d="M58.6161 7.60779V9.22075H51.7952V0.535606H58.4525V2.14856H53.8213V4.03448H57.9114V5.5978H53.8213V7.60779H58.6161Z" fill="white"/>
<path d="M65.4106 7.35964H61.3205L60.5403 9.22075H58.4512L62.3777 0.535606H64.3912L68.3302 9.22075H66.1908L65.4106 7.35964ZM64.7688 5.83354L63.3719 2.50837L61.9749 5.83354H64.7688Z" fill="white"/>
<path d="M69.9973 2.17338H67.1784V0.535606H74.855V2.17338H72.0361V9.22075H69.9973V2.17338Z" fill="white"/>
<path d="M44.6995 19.8259C45.2029 19.9831 45.5972 20.2478 45.8825 20.62C46.1677 20.9839 46.3103 21.4347 46.3103 21.9724C46.3103 22.7334 46.0083 23.3207 45.4042 23.7342C44.8086 24.1395 43.936 24.3422 42.7866 24.3422H38.2309V15.6571H42.5349C43.6088 15.6571 44.431 15.8597 45.0015 16.265C45.5804 16.6703 45.8699 17.2204 45.8699 17.9152C45.8699 18.337 45.765 18.7134 45.5553 19.0443C45.3539 19.3751 45.0687 19.6357 44.6995 19.8259ZM40.2571 17.1707V19.218H42.2832C42.7866 19.218 43.1684 19.1311 43.4284 18.9574C43.6885 18.7837 43.8186 18.5273 43.8186 18.1882C43.8186 17.849 43.6885 17.5967 43.4284 17.4313C43.1684 17.2576 42.7866 17.1707 42.2832 17.1707H40.2571ZM42.6356 22.8285C43.1726 22.8285 43.5753 22.7416 43.8437 22.5679C44.1206 22.3942 44.259 22.1254 44.259 21.7615C44.259 21.0418 43.7179 20.682 42.6356 20.682H40.2571V22.8285H42.6356Z" fill="white"/>
<path d="M47.2246 15.6571H49.2633V22.7044H53.6806V24.3422H47.2246V15.6571Z" fill="white"/>
<path d="M57.9937 24.4911C56.7352 24.4911 55.7536 24.1478 55.0489 23.4613C54.3525 22.7747 54.0043 21.7946 54.0043 20.5207V15.6571H56.0431V20.4463C56.0431 22.0013 56.6975 22.7789 58.0063 22.7789C58.6439 22.7789 59.1305 22.5928 59.4661 22.2205C59.8017 21.84 59.9695 21.2486 59.9695 20.4463V15.6571H61.9831V20.5207C61.9831 21.7946 61.6307 22.7747 60.9259 23.4613C60.2296 24.1478 59.2522 24.4911 57.9937 24.4911Z" fill="white"/>
<path d="M70.1894 22.7292V24.3422H63.3685V15.6571H70.0258V17.27H65.3946V19.1559H69.4846V20.7192H65.3946V22.7292H70.1894Z" fill="white"/>
<path d="M40.0376 30.7785V39.4636H37.9989V35.9027H33.997V39.4636H31.9582V30.7785H33.997V34.2029H37.9989V30.7785H40.0376Z" fill="white"/>
<path d="M48.3136 37.8507V39.4636H41.4927V30.7785H48.15V32.3915H43.5188V34.2774H47.6088V35.8407H43.5188V37.8507H48.3136Z" fill="white"/>
<path d="M54.9193 39.4636L53.2204 37.0442H51.3452V39.4636H49.3065V30.7785H53.1197C53.8999 30.7785 54.5753 30.9067 55.1458 31.1631C55.7247 31.4195 56.1694 31.7835 56.4798 32.255C56.7902 32.7265 56.9454 33.2848 56.9454 33.93C56.9454 34.5751 56.786 35.1335 56.4672 35.605C56.1568 36.0682 55.7121 36.4238 55.1332 36.672L57.109 39.4636H54.9193ZM54.8815 33.93C54.8815 33.4419 54.7221 33.0697 54.4033 32.8133C54.0845 32.5486 53.6189 32.4163 53.0064 32.4163H51.3452V35.4437H53.0064C53.6189 35.4437 54.0845 35.3113 54.4033 35.0466C54.7221 34.7819 54.8815 34.4097 54.8815 33.93Z" fill="white"/>
<path d="M62.1977 39.6125C61.2832 39.6125 60.4568 39.4181 59.7185 39.0294C58.9886 38.6406 58.4139 38.1071 57.9944 37.4288C57.5833 36.7423 57.3777 35.973 57.3777 35.1211C57.3777 34.2691 57.5833 33.504 57.9944 32.8257C58.4139 32.1392 58.9886 31.6015 59.7185 31.2128C60.4568 30.824 61.2832 30.6296 62.1977 30.6296C63.1122 30.6296 63.9344 30.824 64.6643 31.2128C65.3942 31.6015 65.9689 32.1392 66.3884 32.8257C66.8079 33.504 67.0176 34.2691 67.0176 35.1211C67.0176 35.973 66.8079 36.7423 66.3884 37.4288C65.9689 38.1071 65.3942 38.6406 64.6643 39.0294C63.9344 39.4181 63.1122 39.6125 62.1977 39.6125ZM62.1977 37.9003C62.7179 37.9003 63.1877 37.7845 63.6072 37.5529C64.0267 37.313 64.3539 36.9822 64.5888 36.5603C64.8321 36.1385 64.9537 35.6587 64.9537 35.1211C64.9537 34.5834 64.8321 34.1037 64.5888 33.6818C64.3539 33.26 64.0267 32.9332 63.6072 32.7016C63.1877 32.4618 62.7179 32.3418 62.1977 32.3418C61.6775 32.3418 61.2077 32.4618 60.7882 32.7016C60.3687 32.9332 60.0373 33.26 59.794 33.6818C59.5591 34.1037 59.4416 34.5834 59.4416 35.1211C59.4416 35.6587 59.5591 36.1385 59.794 36.5603C60.0373 36.9822 60.3687 37.313 60.7882 37.5529C61.2077 37.7845 61.6775 37.9003 62.1977 37.9003Z" fill="white"/>
<path d="M76 30.7785V39.4636H74.3262L69.9342 34.1905V39.4636H67.9206V30.7785H69.607L73.9864 36.0516V30.7785H76Z" fill="white"/>
<path d="M40.0431 4.74169H41.9056V8.26538C41.4274 8.62106 40.8737 8.89402 40.2445 9.08426C39.6152 9.27451 38.9818 9.36963 38.3442 9.36963C37.4297 9.36963 36.6075 9.17939 35.8776 8.7989C35.1476 8.41013 34.5729 7.87662 34.1534 7.19835C33.7423 6.51181 33.5368 5.73842 33.5368 4.87818C33.5368 4.01793 33.7423 3.24868 34.1534 2.57041C34.5729 1.88387 35.1518 1.35036 35.8901 0.969864C36.6284 0.5811 37.459 0.386719 38.3819 0.386719C39.1538 0.386719 39.8543 0.514928 40.4836 0.771346C41.1128 1.02776 41.6414 1.39998 42.0692 1.88801L40.7604 3.07911C40.1312 2.42566 39.3719 2.09893 38.4826 2.09893C37.9205 2.09893 37.4213 2.21473 36.985 2.44634C36.5487 2.67794 36.209 3.00467 35.9656 3.42652C35.7223 3.84837 35.6007 4.33225 35.6007 4.87818C35.6007 5.41583 35.7223 5.89558 35.9656 6.31743C36.209 6.73928 36.5445 7.07014 36.9724 7.31001C37.4087 7.54162 37.9037 7.65742 38.4574 7.65742C39.0447 7.65742 39.5733 7.53335 40.0431 7.2852V4.74169Z" fill="white"/>
<path d="M48.783 9.22075L47.0841 6.80131H45.2089V9.22075H43.1702V0.535606H46.9834C47.7636 0.535606 48.439 0.663816 49.0095 0.920234C49.5884 1.17665 50.0331 1.5406 50.3435 2.01208C50.6539 2.48356 50.8091 3.04189 50.8091 3.68707C50.8091 4.33225 50.6497 4.89058 50.3309 5.36206C50.0205 5.82527 49.5758 6.18095 48.9969 6.42909L50.9727 9.22075H48.783ZM48.7453 3.68707C48.7453 3.19905 48.5858 2.82683 48.267 2.57041C47.9482 2.30572 47.4826 2.17338 46.8701 2.17338H45.2089V5.20077H46.8701C47.4826 5.20077 47.9482 5.06842 48.267 4.80373C48.5858 4.53904 48.7453 4.16682 48.7453 3.68707Z" fill="white"/>
<path d="M58.6161 7.60779V9.22075H51.7952V0.535606H58.4525V2.14856H53.8213V4.03448H57.9114V5.5978H53.8213V7.60779H58.6161Z" fill="white"/>
<path d="M65.4106 7.35964H61.3205L60.5403 9.22075H58.4512L62.3777 0.535606H64.3912L68.3302 9.22075H66.1908L65.4106 7.35964ZM64.7688 5.83354L63.3719 2.50837L61.9749 5.83354H64.7688Z" fill="white"/>
<path d="M69.9973 2.17338H67.1784V0.535606H74.855V2.17338H72.0361V9.22075H69.9973V2.17338Z" fill="white"/>
<path d="M44.6995 19.8259C45.2029 19.9831 45.5972 20.2478 45.8825 20.62C46.1677 20.9839 46.3103 21.4347 46.3103 21.9724C46.3103 22.7334 46.0083 23.3207 45.4042 23.7342C44.8086 24.1395 43.936 24.3422 42.7866 24.3422H38.2309V15.6571H42.5349C43.6088 15.6571 44.431 15.8597 45.0015 16.265C45.5804 16.6703 45.8699 17.2204 45.8699 17.9152C45.8699 18.337 45.765 18.7134 45.5553 19.0443C45.3539 19.3751 45.0687 19.6357 44.6995 19.8259ZM40.2571 17.1707V19.218H42.2832C42.7866 19.218 43.1684 19.1311 43.4284 18.9574C43.6885 18.7837 43.8186 18.5273 43.8186 18.1882C43.8186 17.849 43.6885 17.5967 43.4284 17.4313C43.1684 17.2576 42.7866 17.1707 42.2832 17.1707H40.2571ZM42.6356 22.8285C43.1726 22.8285 43.5753 22.7416 43.8437 22.5679C44.1206 22.3942 44.259 22.1254 44.259 21.7615C44.259 21.0418 43.7179 20.682 42.6356 20.682H40.2571V22.8285H42.6356Z" fill="white"/>
<path d="M47.2246 15.6571H49.2633V22.7044H53.6806V24.3422H47.2246V15.6571Z" fill="white"/>
<path d="M57.9937 24.4911C56.7352 24.4911 55.7536 24.1478 55.0489 23.4613C54.3525 22.7747 54.0043 21.7946 54.0043 20.5207V15.6571H56.0431V20.4463C56.0431 22.0013 56.6975 22.7789 58.0063 22.7789C58.6439 22.7789 59.1305 22.5928 59.4661 22.2205C59.8017 21.84 59.9695 21.2486 59.9695 20.4463V15.6571H61.9831V20.5207C61.9831 21.7946 61.6307 22.7747 60.9259 23.4613C60.2296 24.1478 59.2522 24.4911 57.9937 24.4911Z" fill="white"/>
<path d="M70.1894 22.7292V24.3422H63.3685V15.6571H70.0258V17.27H65.3946V19.1559H69.4846V20.7192H65.3946V22.7292H70.1894Z" fill="white"/>
<path d="M40.0376 30.7785V39.4636H37.9989V35.9027H33.997V39.4636H31.9582V30.7785H33.997V34.2029H37.9989V30.7785H40.0376Z" fill="white"/>
<path d="M48.3136 37.8507V39.4636H41.4927V30.7785H48.15V32.3915H43.5188V34.2774H47.6088V35.8407H43.5188V37.8507H48.3136Z" fill="white"/>
<path d="M54.9193 39.4636L53.2204 37.0442H51.3452V39.4636H49.3065V30.7785H53.1197C53.8999 30.7785 54.5753 30.9067 55.1458 31.1631C55.7247 31.4195 56.1694 31.7835 56.4798 32.255C56.7902 32.7265 56.9454 33.2848 56.9454 33.93C56.9454 34.5751 56.786 35.1335 56.4672 35.605C56.1568 36.0682 55.7121 36.4238 55.1332 36.672L57.109 39.4636H54.9193ZM54.8815 33.93C54.8815 33.4419 54.7221 33.0697 54.4033 32.8133C54.0845 32.5486 53.6189 32.4163 53.0064 32.4163H51.3452V35.4437H53.0064C53.6189 35.4437 54.0845 35.3113 54.4033 35.0466C54.7221 34.7819 54.8815 34.4097 54.8815 33.93Z" fill="white"/>
<path d="M62.1977 39.6125C61.2832 39.6125 60.4568 39.4181 59.7185 39.0294C58.9886 38.6406 58.4139 38.1071 57.9944 37.4288C57.5833 36.7423 57.3777 35.973 57.3777 35.1211C57.3777 34.2691 57.5833 33.504 57.9944 32.8257C58.4139 32.1392 58.9886 31.6015 59.7185 31.2128C60.4568 30.824 61.2832 30.6296 62.1977 30.6296C63.1122 30.6296 63.9344 30.824 64.6643 31.2128C65.3942 31.6015 65.9689 32.1392 66.3884 32.8257C66.8079 33.504 67.0176 34.2691 67.0176 35.1211C67.0176 35.973 66.8079 36.7423 66.3884 37.4288C65.9689 38.1071 65.3942 38.6406 64.6643 39.0294C63.9344 39.4181 63.1122 39.6125 62.1977 39.6125ZM62.1977 37.9003C62.7179 37.9003 63.1877 37.7845 63.6072 37.5529C64.0267 37.313 64.3539 36.9822 64.5888 36.5603C64.8321 36.1385 64.9537 35.6587 64.9537 35.1211C64.9537 34.5834 64.8321 34.1037 64.5888 33.6818C64.3539 33.26 64.0267 32.9332 63.6072 32.7016C63.1877 32.4618 62.7179 32.3418 62.1977 32.3418C61.6775 32.3418 61.2077 32.4618 60.7882 32.7016C60.3687 32.9332 60.0373 33.26 59.794 33.6818C59.5591 34.1037 59.4416 34.5834 59.4416 35.1211C59.4416 35.6587 59.5591 36.1385 59.794 36.5603C60.0373 36.9822 60.3687 37.313 60.7882 37.5529C61.2077 37.7845 61.6775 37.9003 62.1977 37.9003Z" fill="white"/>
<path d="M76 30.7785V39.4636H74.3262L69.9342 34.1905V39.4636H67.9206V30.7785H69.607L73.9864 36.0516V30.7785H76Z" fill="white"/>
</svg>
