<svg width="130" height="46" viewBox="0 0 130 46" fill="none" xmlns="http://www.w3.org/2000/svg">
<path d="M14.1862 23.4441L9.40113 7.27482C9.27205 6.87219 9.12453 6.57022 8.95858 6.36891C8.79262 6.16759 8.51602 6.00288 8.12879 5.87477L7.79688 5.76496V5.18847H14.933V5.76496L14.3522 5.95713C13.9281 6.08524 13.6515 6.26825 13.5224 6.50617C13.4118 6.74408 13.4118 7.07351 13.5224 7.49444L16.5373 18.7498L19.8288 9.0043L19.3309 7.41208C19.2018 7.02776 19.0728 6.73493 18.9437 6.53362C18.8146 6.314 18.6025 6.14014 18.3075 6.01203L17.699 5.76496V5.18847H24.4756V5.76496L23.7011 6.01203C23.3323 6.14014 23.1203 6.32315 23.065 6.56107C23.0096 6.79899 23.0465 7.11926 23.1756 7.52189L26.6607 18.9145L29.8692 7.6866C29.9983 7.26567 30.0352 6.89965 29.9799 6.58852C29.9245 6.2774 29.6848 6.05779 29.2607 5.92968L28.7075 5.76496V5.18847H32.8011V5.76496L32.1096 5.98458C31.7408 6.11269 31.4735 6.30485 31.3075 6.56107C31.16 6.79899 31.0309 7.11926 30.9203 7.52189L26.3841 23.4441H24.4756L20.382 10.6514L16.0947 23.4441H14.1862Z" fill="white"/>
<path d="M33.7111 23.3342V22.7578L34.2643 22.593C34.6331 22.4649 34.8728 22.3002 34.9834 22.0989C35.1125 21.8793 35.177 21.5773 35.177 21.193V7.32973C35.177 6.9454 35.1125 6.65258 34.9834 6.45126C34.8728 6.23165 34.6331 6.05779 34.2643 5.92968L33.7111 5.76496V5.18847H40.626V5.76496L40.0728 5.92968C39.7224 6.05779 39.4827 6.23165 39.3536 6.45126C39.2246 6.65258 39.16 6.9454 39.16 7.32973V21.193C39.16 21.5773 39.2246 21.8793 39.3536 22.0989C39.4827 22.3002 39.7224 22.4649 40.0728 22.593L40.626 22.7578V23.3342H33.7111Z" fill="white"/>
<path d="M42.2274 23.3342V22.7578L43.0296 22.5381C43.3799 22.4466 43.6196 22.2728 43.7487 22.0165C43.8962 21.7603 43.97 21.4492 43.97 21.0832V7.79641C43.804 7.44869 43.6565 7.19247 43.5274 7.02776C43.4168 6.84474 43.2969 6.68918 43.1679 6.56107C43.0388 6.43296 42.8636 6.28655 42.6423 6.12184L42.1444 5.76496V5.18847H46.8742L56.0572 17.6517V7.46699C56.0572 7.10096 55.9927 6.78069 55.8636 6.50617C55.753 6.23165 55.5132 6.04863 55.1444 5.95713L54.3147 5.76496V5.18847H58.4359V5.76496L57.7444 5.95713C57.3941 6.06694 57.1728 6.2591 57.0806 6.53362C57.0069 6.78984 56.97 7.10096 56.97 7.46699V23.4441H55.421L44.8827 9.0592V21.0557C44.8827 21.4401 44.9381 21.7603 45.0487 22.0165C45.1593 22.2728 45.3898 22.4466 45.7402 22.5381L46.487 22.7578V23.3342H42.2274Z" fill="white"/>
<path d="M60.379 23.3342V22.7578L61.1811 22.5381C61.5315 22.4466 61.7712 22.2728 61.9003 22.0165C62.0478 21.7603 62.1216 21.4492 62.1216 21.0832V7.79641C61.9556 7.44869 61.8081 7.19247 61.679 7.02776C61.5684 6.84474 61.4485 6.68918 61.3195 6.56107C61.1904 6.43296 61.0152 6.28655 60.7939 6.12184L60.296 5.76496V5.18847H65.0258L74.2088 17.6517V7.46699C74.2088 7.10096 74.1443 6.78069 74.0152 6.50617C73.9045 6.23165 73.6648 6.04863 73.296 5.95713L72.4663 5.76496V5.18847H76.5875V5.76496L75.896 5.95713C75.5457 6.06694 75.3244 6.2591 75.2322 6.53362C75.1585 6.78984 75.1216 7.10096 75.1216 7.46699V23.4441H73.5726L63.0343 9.0592V21.0557C63.0343 21.4401 63.0897 21.7603 63.2003 22.0165C63.3109 22.2728 63.5414 22.4466 63.8918 22.5381L64.6386 22.7578V23.3342H60.379Z" fill="white"/>
<path d="M77.9286 23.3342V22.7578L78.4818 22.593C78.8506 22.4649 79.0903 22.3002 79.2009 22.0989C79.33 21.8793 79.3945 21.5773 79.3945 21.193V7.32973C79.3945 6.9454 79.33 6.65258 79.2009 6.45126C79.0903 6.23165 78.8506 6.05779 78.4818 5.92968L77.9286 5.76496V5.18847H84.8435V5.76496L84.2903 5.92968C83.9399 6.05779 83.7002 6.23165 83.5711 6.45126C83.4421 6.65258 83.3775 6.9454 83.3775 7.32973V21.193C83.3775 21.5773 83.4421 21.8793 83.5711 22.0989C83.7002 22.3002 83.9399 22.4649 84.2903 22.593L84.8435 22.7578V23.3342H77.9286Z" fill="white"/>
<path d="M86.4449 23.3342V22.7578L87.2471 22.5381C87.5974 22.4466 87.8371 22.2728 87.9662 22.0165C88.1137 21.7603 88.1875 21.4492 88.1875 21.0832V7.79641C88.0215 7.44869 87.874 7.19247 87.7449 7.02776C87.6343 6.84474 87.5144 6.68918 87.3854 6.56107C87.2563 6.43296 87.0811 6.28655 86.8598 6.12184L86.3619 5.76496V5.18847H91.0917L100.275 17.6517V7.46699C100.275 7.10096 100.21 6.78069 100.081 6.50617C99.9705 6.23165 99.7307 6.04863 99.362 5.95713L98.5322 5.76496V5.18847H102.653V5.76496L101.962 5.95713C101.612 6.06694 101.39 6.2591 101.298 6.53362C101.224 6.78984 101.187 7.10096 101.187 7.46699V23.4441H99.6385L89.1002 9.0592V21.0557C89.1002 21.4401 89.1556 21.7603 89.2662 22.0165C89.3768 22.2728 89.6073 22.4466 89.9577 22.5381L90.7045 22.7578V23.3342H86.4449Z" fill="white"/>
<path d="M113.156 23.8009C111.275 23.8009 109.625 23.4074 108.205 22.6205C106.785 21.8335 105.67 20.7263 104.858 19.2988C104.066 17.853 103.669 16.1601 103.669 14.2202C103.669 12.3168 104.056 10.6514 104.831 9.22392C105.624 7.79641 106.767 6.68918 108.261 5.90222C109.754 5.09696 111.543 4.69434 113.627 4.69434C114.622 4.69434 115.544 4.80414 116.392 5.02376C117.259 5.24338 118.07 5.56365 118.827 5.98458L118.937 9.91022H118.19L116.807 7.13756C116.586 6.69833 116.374 6.37806 116.171 6.17674C115.968 5.97543 115.701 5.82902 115.369 5.73751C115.129 5.646 114.899 5.5911 114.678 5.5728C114.456 5.5362 114.17 5.5179 113.82 5.5179C112.658 5.5179 111.635 5.81987 110.75 6.42381C109.865 7.00945 109.173 7.94282 108.675 9.22392C108.196 10.505 107.956 12.1704 107.956 14.2202C107.956 17.3131 108.463 19.555 109.478 20.9459C110.51 22.3185 111.884 23.0048 113.599 23.0048C114.005 23.0048 114.355 22.9499 114.65 22.8401C115 22.7852 115.24 22.6479 115.369 22.4283C115.498 22.1904 115.563 21.8976 115.563 21.5499C115.563 20.7995 115.553 19.9851 115.535 19.1066C115.535 18.2099 115.535 17.3955 115.535 16.6634C115.535 15.9497 115.157 15.5104 114.401 15.3457L113.156 15.0712V14.4947H120.79V15.0712L120.458 15.1535C120.108 15.2634 119.841 15.4281 119.656 15.6477C119.472 15.849 119.38 16.1327 119.38 16.4987C119.38 17.2307 119.37 17.9811 119.352 18.7498C119.352 19.5001 119.352 20.2596 119.352 21.0283V22.2087C118.393 22.7211 117.416 23.1146 116.42 23.3891C115.443 23.6637 114.355 23.8009 113.156 23.8009Z" fill="white"/>
<rect x="0.592289" y="0.592289" width="128.815" height="26.7629" rx="6.51517" stroke="#D89F33" stroke-width="1.18458"/>
<path d="M38.0078 45.6766V45.2591L38.4284 45.1399C38.6955 45.0604 38.8691 44.9411 38.9492 44.7821C39.0293 44.623 39.0694 44.411 39.0694 44.1459V34.0872C39.0694 33.8089 39.0226 33.5968 38.9292 33.4511C38.849 33.292 38.6755 33.1727 38.4084 33.0932L38.0078 32.9541V32.5366H42.8749V32.9541L42.4543 33.0932C42.2006 33.1595 42.0337 33.2721 41.9536 33.4312C41.8735 33.5902 41.8334 33.8089 41.8334 34.0872V44.1658C41.8334 44.4309 41.8801 44.6429 41.9736 44.8019C42.0671 44.9477 42.2407 45.0604 42.4944 45.1399L42.8749 45.2591V45.6766H38.0078ZM45.2985 45.6766V45.2591L45.5388 45.1995C45.7925 45.1332 45.926 45.0073 45.9394 44.8218C45.9528 44.6363 45.866 44.4242 45.679 44.1857L41.8534 38.9178L46.7406 33.9878C46.9409 33.789 47.0477 33.6101 47.061 33.4511C47.0877 33.2788 46.9676 33.1462 46.7005 33.0535L46.36 32.9541V32.5366H49.5246V32.9541L49.0039 33.0932C48.6968 33.186 48.4497 33.2986 48.2628 33.4312C48.0759 33.5504 47.8622 33.736 47.6219 33.9878L44.0566 37.5859L48.6433 44.0863C48.857 44.3778 49.0573 44.6098 49.2442 44.7821C49.4445 44.9543 49.7116 45.0869 50.0454 45.1796L50.3258 45.2591V45.6766H45.2985Z" fill="white"/>
<path d="M53.8363 44.8373L56.8366 38.8816L53.8363 32.926L50.8359 38.8816L53.8363 44.8373Z" fill="#FFA700" stroke="#FFA700" stroke-width="0.858303" stroke-miterlimit="10"/>
<path d="M58.6053 45.6712V45.265L59.1706 45.1102C59.4174 45.0457 59.5864 44.9232 59.6773 44.7427C59.7813 44.5621 59.8332 44.3429 59.8332 44.085V34.7225C59.7163 34.4775 59.6123 34.2969 59.5214 34.1809C59.4434 34.0519 59.359 33.9423 59.268 33.852C59.1771 33.7617 59.0536 33.6586 58.8977 33.5425L58.5469 33.291V32.8848H61.8797L68.3505 41.667V34.4904C68.3505 34.2324 68.305 34.0068 68.214 33.8133C68.1361 33.6199 67.9672 33.4909 67.7073 33.4264L67.1226 33.291V32.8848H70.0266V33.291L69.5394 33.4264C69.2925 33.5038 69.1366 33.6392 69.0716 33.8327C69.0196 34.0132 68.9937 34.2324 68.9937 34.4904V45.7486H67.9022L60.4764 35.6123V44.0656C60.4764 44.3365 60.5154 44.5621 60.5934 44.7427C60.6713 44.9232 60.8337 45.0457 61.0806 45.1102L61.6068 45.265V45.6712H58.6053Z" fill="white"/>
<path d="M77.4274 46C76.1021 46 74.9392 45.7228 73.9387 45.1682C72.9382 44.6137 72.1521 43.8335 71.5804 42.8276C71.0217 41.8088 70.7423 40.616 70.7423 39.249C70.7423 37.9078 71.0152 36.7343 71.5609 35.7284C72.1196 34.7225 72.9252 33.9423 73.9777 33.3878C75.0301 32.8203 76.2905 32.5366 77.7588 32.5366C78.4604 32.5366 79.1101 32.614 79.7078 32.7687C80.3185 32.9235 80.8902 33.1492 81.4229 33.4458L81.5009 36.212H80.9747L80.0002 34.2582C79.8442 33.9487 79.6948 33.7231 79.5519 33.5812C79.409 33.4393 79.2206 33.3362 78.9867 33.2717C78.8178 33.2072 78.6553 33.1685 78.4994 33.1556C78.3435 33.1298 78.1421 33.1169 77.8952 33.1169C77.0766 33.1169 76.3555 33.3297 75.7318 33.7553C75.1081 34.168 74.6209 34.8257 74.27 35.7284C73.9322 36.6311 73.7633 37.8046 73.7633 39.249C73.7633 41.4284 74.1206 43.0082 74.8352 43.9883C75.5629 44.9555 76.5309 45.4391 77.7393 45.4391C78.0251 45.4391 78.272 45.4004 78.4799 45.323C78.7268 45.2843 78.8957 45.1876 78.9867 45.0328C79.0776 44.8652 79.1231 44.6589 79.1231 44.4138C79.1231 43.8851 79.1166 43.3112 79.1036 42.6922C79.1036 42.0603 79.1036 41.4864 79.1036 40.9706C79.1036 40.4677 78.8372 40.1582 78.3045 40.0421L77.4274 39.8486V39.4424H82.8068V39.8486L82.5729 39.9067C82.326 39.9841 82.1376 40.1001 82.0077 40.2549C81.8777 40.3967 81.8128 40.5966 81.8128 40.8545C81.8128 41.3704 81.8063 41.8991 81.7933 42.4407C81.7933 42.9695 81.7933 43.5047 81.7933 44.0463V44.8781C81.1176 45.2392 80.4289 45.5164 79.7273 45.7099C79.0386 45.9033 78.272 46 77.4274 46Z" fill="white"/>
<path d="M87.7041 46C86.9895 46 86.2619 45.9098 85.5212 45.7292C84.7936 45.5616 84.1829 45.3359 83.6891 45.0522L83.8061 42.3634H84.3713L84.9755 43.6981C85.1574 44.0721 85.3458 44.3816 85.5407 44.6266C85.7356 44.8716 85.9955 45.0586 86.3203 45.1876C86.5412 45.2779 86.7491 45.3423 86.944 45.381C87.1519 45.4068 87.3793 45.4197 87.6262 45.4197C88.4188 45.4197 89.0425 45.2198 89.4972 44.8201C89.965 44.4074 90.1989 43.8658 90.1989 43.1952C90.1989 42.589 90.0365 42.1119 89.7116 41.7637C89.3998 41.4155 88.893 41.0802 88.1914 40.7578L87.3923 40.4096C86.3008 39.9325 85.4368 39.3779 84.8001 38.746C84.1764 38.1141 83.8646 37.2759 83.8646 36.2313C83.8646 35.4576 84.0595 34.7999 84.4493 34.2582C84.8521 33.7037 85.4043 33.2781 86.1059 32.9815C86.8076 32.6849 87.6262 32.5366 88.5617 32.5366C89.2504 32.5366 89.8935 32.6269 90.4912 32.8074C91.1019 32.988 91.6347 33.233 92.0894 33.5425L91.953 35.9412H91.3878L90.6667 34.4904C90.4588 34.0648 90.2574 33.7617 90.0625 33.5812C89.8806 33.3878 89.6532 33.2652 89.3803 33.2137C89.2244 33.1879 89.0879 33.1685 88.971 33.1556C88.8671 33.1427 88.7241 33.1363 88.5422 33.1363C87.9055 33.1363 87.3533 33.3233 86.8855 33.6973C86.4308 34.0583 86.2034 34.5613 86.2034 35.2061C86.2034 35.8251 86.3788 36.328 86.7296 36.7149C87.0805 37.1018 87.5872 37.4435 88.2499 37.7402L89.1269 38.1077C90.3873 38.6493 91.2903 39.2296 91.8361 39.8486C92.3818 40.4548 92.6547 41.235 92.6547 42.1893C92.6547 43.3241 92.2194 44.2462 91.3488 44.9555C90.4912 45.6518 89.2764 46 87.7041 46Z" fill="white"/>
</svg>
