<svg width="162" height="48" viewBox="0 0 162 48" fill="none" xmlns="http://www.w3.org/2000/svg">
<g id="Group 542">
<g id="logo">
<path id="Rectangle 309" d="M0 24L23.9516 0L47.9032 24L23.9516 48L0 24Z" fill="#0D121A"/>
<g id="Union">
<path fill-rule="evenodd" clip-rule="evenodd" d="M23.9517 6.05965L21.3709 8.6456L23.9517 11.2316L26.5324 8.6456L23.9517 6.05965ZM26.0762 8.6456L23.9517 6.51679L21.8272 8.6456L23.9517 10.7744L26.0762 8.6456Z" fill="#B3A26B"/>
<path fill-rule="evenodd" clip-rule="evenodd" d="M23.9517 36.7683L26.5324 39.3542L23.9517 41.9402L21.3709 39.3542L23.9517 36.7683ZM23.9517 37.2254L26.0762 39.3542L23.9517 41.483L21.8272 39.3542L23.9517 37.2254Z" fill="#B3A26B"/>
<path fill-rule="evenodd" clip-rule="evenodd" d="M41.8558 23.9999L39.2751 21.4139L36.6943 23.9999L39.2751 26.5858L41.8558 23.9999ZM39.2751 26.1287L41.3996 23.9999L39.2751 21.8711L37.1506 23.9999L39.2751 26.1287Z" fill="#B3A26B"/>
<path fill-rule="evenodd" clip-rule="evenodd" d="M11.2091 23.9999L8.62836 26.5858L6.04763 23.9999L8.62836 21.4139L11.2091 23.9999ZM10.7529 23.9999L8.62836 26.1287L6.50385 23.9999L8.62836 21.8711L10.7529 23.9999Z" fill="#B3A26B"/>
<path fill-rule="evenodd" clip-rule="evenodd" d="M23.9516 4.28186L43.63 24L23.9516 43.7181L4.27323 24L23.9516 4.28186ZM23.9516 4.73901L43.1738 24L23.9516 43.261L4.72945 24L23.9516 4.73901Z" fill="#B3A26B"/>
<path fill-rule="evenodd" clip-rule="evenodd" d="M23.9516 0L47.9032 24L23.9516 48L0 24L23.9516 0ZM23.9516 1.82857L46.0783 24L23.9516 46.1714L1.82488 24L23.9516 1.82857Z" fill="#B3A26B"/>
</g>
<g id="MC">
<path d="M13.5 28.6341V28.2858C14.1072 28.2858 14.4615 28.1752 14.5627 27.954V19.6097C14.4615 19.3885 14.1072 19.2779 13.5 19.2779V18.9296H15.9627L19.5555 26.6435L23.1484 18.9296H25.6448V19.2779C25.0376 19.2779 24.6833 19.3885 24.5821 19.6097V27.954C24.6833 28.1752 25.0376 28.2858 25.6448 28.2858V28.6341H21.9676V28.2858C22.5749 28.2858 22.9291 28.1752 23.0303 27.954V20.5055L19.2519 28.6341H18.9989L15.1362 20.406V27.954C15.2374 28.1752 15.5916 28.2858 16.1988 28.2858V28.6341H13.5Z" fill="white"/>
<path d="M32.0693 19.3277C31.1022 19.3277 30.2982 19.7203 29.6572 20.5055C29.0162 21.2907 28.6958 22.3082 28.6958 23.5579C28.6958 25.0177 29.0331 26.1624 29.7078 26.9918C30.3825 27.8213 31.1922 28.236 32.1368 28.236C32.699 28.236 33.2557 28.048 33.8067 27.672C34.3577 27.2849 34.7119 26.8757 34.8694 26.4444L35.2742 26.6435C35.0156 27.2517 34.6051 27.766 34.0428 28.1862C33.4918 28.5954 32.744 28.8 31.7994 28.8C30.3038 28.8 29.1175 28.3245 28.2403 27.3734C27.3744 26.4112 26.9415 25.261 26.9415 23.9229C26.9415 22.3746 27.4419 21.1304 28.4427 20.1903C29.4548 19.2392 30.658 18.7637 32.0524 18.7637C32.3786 18.7637 32.7553 18.8466 33.1826 19.0125C33.6099 19.1784 33.8573 19.2613 33.9248 19.2613C34.0597 19.2613 34.1272 19.1507 34.1272 18.9296H34.5151L34.6838 21.0364H34.3127C34.234 20.5387 34.0091 20.1295 33.638 19.8088C33.2782 19.4881 32.7553 19.3277 32.0693 19.3277Z" fill="white"/>
</g>
</g>
<g id="Group 541">
<g id="Le Casino">
<path d="M54.8711 24.5988V24.0232C55.8765 24.0232 56.463 23.8405 56.6306 23.475V9.68882C56.463 9.32338 55.8765 9.14066 54.8711 9.14066V8.56509H60.9596V9.14066C59.9542 9.14066 59.3677 9.32338 59.2001 9.68882V23.6669H65.5679C66.0334 23.4659 66.4523 22.8903 66.8247 21.9402H67.3833L66.713 24.5988H54.8711Z" fill="white"/>
<path d="M67.0235 24.5988V24.0232C68.0289 24.0232 68.6154 23.8405 68.783 23.475V9.68882C68.6154 9.32338 68.0289 9.14066 67.0235 9.14066V8.56509H78.2789V11.2237H77.6923C77.6923 10.237 77.5062 9.66141 77.1338 9.49697H71.3525V15.8008H75.2625C75.6349 15.6364 75.8211 15.0608 75.8211 14.0741H76.4076V18.4594H75.8211C75.8211 17.4727 75.6349 16.8971 75.2625 16.7327H71.3525V23.6669H77.7203C78.1858 23.4659 78.6047 22.8903 78.9771 21.9402H79.5357L78.8654 24.5988H67.0235Z" fill="white"/>
<path d="M93.0273 9.22289C91.4261 9.22289 90.0948 9.87154 89.0335 11.1689C87.9722 12.4662 87.4415 14.1472 87.4415 16.2119C87.4415 18.6238 88.0001 20.515 89.1173 21.8854C90.2344 23.2558 91.575 23.941 93.139 23.941C94.07 23.941 94.9917 23.6303 95.904 23.0091C96.8164 22.3696 97.4029 21.6935 97.6635 20.9809L98.3338 21.3098C97.9056 22.3148 97.226 23.1644 96.295 23.8587C95.3827 24.5348 94.1445 24.8728 92.5805 24.8728C90.1041 24.8728 88.1398 24.0871 86.6874 22.5157C85.2538 20.9261 84.5369 19.0258 84.5369 16.8149C84.5369 14.2568 85.3655 12.2012 87.0226 10.6481C88.6983 9.07671 90.6906 8.29102 92.9994 8.29102C93.5394 8.29102 94.1631 8.42806 94.8706 8.70213C95.5782 8.97622 95.9878 9.11326 96.0995 9.11326C96.3229 9.11326 96.4347 8.93054 96.4347 8.56509H97.077L97.3563 12.0459H96.7419C96.6115 11.2237 96.2392 10.5476 95.6247 10.0177C95.0289 9.48783 94.1631 9.22289 93.0273 9.22289Z" fill="white"/>
<path d="M106.755 24.5988V24.0232C107.612 24.0232 108.152 23.9136 108.375 23.6943L106.811 19.5009H101.449L99.9963 23.5298C100.182 23.8587 100.76 24.0232 101.728 24.0232V24.5988H97.1475V24.0232C98.1902 24.0232 98.7767 23.8313 98.907 23.4476L104.325 8.56509H105.666L111.084 23.4476C111.214 23.8313 111.81 24.0232 112.872 24.0232V24.5988H106.755ZM104.102 12.2104L101.784 18.5964H106.476L104.102 12.2104Z" fill="white"/>
<path d="M117.896 24.8728C116.984 24.8728 116.053 24.7358 115.103 24.4617C114.153 24.1876 113.66 24.0506 113.623 24.0506C113.511 24.0506 113.381 24.1054 113.232 24.215C113.083 24.3247 113.008 24.4526 113.008 24.5988H112.366V20.789H112.98C113.185 21.8854 113.734 22.6893 114.628 23.2009C115.541 23.6943 116.574 23.941 117.728 23.941C118.715 23.941 119.525 23.7217 120.158 23.2832C120.791 22.8446 121.108 22.1869 121.108 21.3098C121.108 20.9078 121.015 20.5424 120.828 20.2135C120.661 19.8846 120.391 19.5831 120.019 19.309C119.665 19.0167 119.32 18.7791 118.985 18.5964C118.65 18.3954 118.212 18.1579 117.672 17.8838C117.151 17.5915 116.751 17.3631 116.472 17.1986C115.82 16.7966 115.336 16.4951 115.019 16.2941C114.703 16.0749 114.293 15.7551 113.79 15.3349C113.306 14.9146 112.952 14.4761 112.729 14.0193C112.506 13.5625 112.394 13.0691 112.394 12.5392C112.394 11.4612 112.897 10.4837 113.902 9.6066C114.907 8.72954 116.034 8.29102 117.281 8.29102C117.821 8.29102 118.492 8.42806 119.292 8.70213C120.093 8.97622 120.549 9.11326 120.661 9.11326C120.884 9.11326 120.996 8.93054 120.996 8.56509H121.638L121.918 12.0459H121.303C121.192 11.2419 120.782 10.575 120.074 10.0451C119.367 9.49697 118.445 9.22289 117.309 9.22289C116.453 9.22289 115.764 9.49697 115.243 10.0451C114.74 10.575 114.489 11.114 114.489 11.6622C114.489 12.0094 114.572 12.3383 114.74 12.6489C114.907 12.9412 115.168 13.2153 115.522 13.4711C115.876 13.7269 116.211 13.9553 116.527 14.1563C116.844 14.339 117.263 14.5674 117.784 14.8415C118.324 15.1156 118.734 15.3349 119.013 15.4993C119.776 15.9561 120.326 16.2941 120.661 16.5134C120.996 16.7327 121.424 17.0707 121.946 17.5275C122.486 17.9843 122.858 18.4594 123.063 18.9527C123.286 19.4278 123.398 19.9577 123.398 20.5424C123.398 21.8945 122.839 22.9543 121.722 23.7217C120.605 24.4891 119.33 24.8728 117.896 24.8728Z" fill="white"/>
<path d="M123.776 24.5988V24.0232C124.781 24.0232 125.368 23.8405 125.536 23.475V9.68882C125.368 9.32338 124.781 9.14066 123.776 9.14066V8.56509H129.865V9.14066C128.859 9.14066 128.273 9.32338 128.105 9.68882V23.475C128.273 23.8405 128.859 24.0232 129.865 24.0232V24.5988H123.776Z" fill="white"/>
<path d="M130.528 24.5988V24.0232C131.534 24.0232 132.12 23.8405 132.288 23.475V9.68882C132.12 9.32338 131.534 9.14066 130.528 9.14066V8.56509H134.271L143.515 19.775V9.68882C143.347 9.32338 142.761 9.14066 141.756 9.14066V8.56509H146.224V9.14066C145.219 9.14066 144.632 9.32338 144.465 9.68882V24.5988H144.213L133.237 10.977V23.475C133.405 23.8405 133.991 24.0232 134.997 24.0232V24.5988H130.528Z" fill="white"/>
<path d="M149.32 16.3764C149.32 17.5823 149.488 18.7426 149.823 19.8572C150.177 20.9535 150.745 21.9128 151.527 22.735C152.327 23.539 153.277 23.941 154.376 23.941C155.474 23.941 156.396 23.5573 157.14 22.7898C157.904 22.0224 158.435 21.1271 158.732 20.1038C159.049 19.0623 159.207 17.966 159.207 16.8149C159.207 15.6272 159.03 14.4761 158.677 13.3615C158.323 12.2286 157.746 11.2602 156.945 10.4562C156.163 9.63401 155.232 9.22289 154.152 9.22289C153.314 9.22289 152.569 9.44215 151.918 9.88068C151.285 10.3192 150.782 10.9039 150.41 11.6348C150.056 12.3474 149.786 13.1057 149.6 13.9096C149.413 14.7136 149.32 15.5359 149.32 16.3764ZM146.527 16.5956C146.527 14.3116 147.254 12.3565 148.706 10.7303C150.158 9.10412 152.011 8.29102 154.264 8.29102C156.517 8.29102 158.369 9.10412 159.822 10.7303C161.274 12.3565 162 14.3116 162 16.5956C162 18.8796 161.265 20.8347 159.794 22.4609C158.341 24.0689 156.498 24.8728 154.264 24.8728C151.992 24.8728 150.13 24.0689 148.678 22.4609C147.244 20.853 146.527 18.8979 146.527 16.5956Z" fill="white"/>
</g>
<g id="Monte Carlo">
<path d="M71.8882 35.0308L71.3871 39.3539H70.1133L71.1156 31.8951L74.1121 36.7154L77.1191 31.8951L78.1214 39.3539H76.8477L76.3361 35.0308L74.1121 38.6942L71.8882 35.0308Z" fill="#B3A26B"/>
<path d="M80.6251 35.8021C80.6251 36.2892 80.7295 36.7255 80.9384 37.1112C81.1541 37.49 81.45 37.7877 81.8258 38.0042C82.2017 38.2207 82.6298 38.3289 83.1101 38.3289C83.5973 38.3289 84.0254 38.2207 84.3943 38.0042C84.7702 37.7877 85.0625 37.49 85.2713 37.1112C85.4871 36.7255 85.595 36.2892 85.595 35.8021C85.595 35.315 85.4906 34.882 85.2818 34.5031C85.073 34.1175 84.7806 33.8164 84.4047 33.5999C84.0358 33.3835 83.6043 33.2752 83.1101 33.2752C82.6298 33.2752 82.2017 33.3835 81.8258 33.5999C81.45 33.8164 81.1541 34.1175 80.9384 34.5031C80.7295 34.882 80.6251 35.315 80.6251 35.8021ZM79.32 35.8021C79.32 35.2676 79.414 34.7771 79.6019 34.3306C79.7899 33.8841 80.0544 33.4985 80.3954 33.1737C80.7435 32.8422 81.1472 32.5851 81.6066 32.4025C82.0729 32.2198 82.5741 32.1285 83.1101 32.1285C83.66 32.1285 84.1646 32.2198 84.624 32.4025C85.0834 32.5851 85.4836 32.8422 85.8247 33.1737C86.1727 33.4985 86.4407 33.8841 86.6286 34.3306C86.8166 34.7771 86.9105 35.2676 86.9105 35.8021C86.9105 36.3298 86.8166 36.8202 86.6286 37.2735C86.4407 37.7268 86.1762 38.1192 85.8351 38.4507C85.4941 38.7822 85.0904 39.0427 84.624 39.2321C84.1646 39.4147 83.66 39.5061 83.1101 39.5061C82.5671 39.5061 82.0625 39.4147 81.5961 39.2321C81.1298 39.0427 80.7261 38.7822 80.385 38.4507C80.0509 38.1192 79.7899 37.7268 79.6019 37.2735C79.414 36.8202 79.32 36.3298 79.32 35.8021Z" fill="#B3A26B"/>
<path d="M93.8617 32.2503H95.0728V39.709L89.7375 34.5843V39.3539H88.5264V31.8951L93.8617 37.0198V32.2503Z" fill="#B3A26B"/>
<path d="M96.3803 33.3564V32.2503H101.475V33.3564H99.5439V39.3539H98.3014V33.3564H96.3803Z" fill="#B3A26B"/>
<path d="M103.552 39.3539V38.2985H107.238V39.3539H103.552ZM103.552 33.3057V32.2503H107.238V33.3057H103.552ZM103.552 36.0659V35.0308H107.029V36.0659H103.552ZM102.79 32.2503H104.001V39.3539H102.79V32.2503Z" fill="#B3A26B"/>
<path d="M113.629 35.8021C113.629 36.3027 113.743 36.7424 113.973 37.1213C114.21 37.5002 114.516 37.7944 114.892 38.0042C115.275 38.2071 115.689 38.3086 116.134 38.3086C116.482 38.3086 116.796 38.2646 117.074 38.1767C117.353 38.0887 117.603 37.9703 117.826 37.8215C118.056 37.6659 118.254 37.4934 118.421 37.304V38.7247C118.115 38.9682 117.784 39.1543 117.429 39.2828C117.074 39.4114 116.629 39.4756 116.093 39.4756C115.557 39.4756 115.056 39.3877 114.589 39.2118C114.13 39.0359 113.73 38.7822 113.388 38.4507C113.047 38.1192 112.779 37.7302 112.585 37.2837C112.397 36.8304 112.303 36.3365 112.303 35.8021C112.303 35.2676 112.397 34.7771 112.585 34.3306C112.779 33.8773 113.047 33.4849 113.388 33.1534C113.73 32.8219 114.13 32.5682 114.589 32.3923C115.056 32.2164 115.557 32.1285 116.093 32.1285C116.629 32.1285 117.074 32.1928 117.429 32.3213C117.784 32.4498 118.115 32.6359 118.421 32.8794V34.3002C118.254 34.1107 118.056 33.9416 117.826 33.7928C117.603 33.6372 117.353 33.5154 117.074 33.4274C116.796 33.3395 116.482 33.2955 116.134 33.2955C115.689 33.2955 115.275 33.4004 114.892 33.6101C114.516 33.8131 114.21 34.104 113.973 34.4828C113.743 34.8549 113.629 35.2947 113.629 35.8021Z" fill="#B3A26B"/>
<path d="M121.081 37.5272L121.311 36.5124H124.704L124.944 37.5272H121.081ZM122.992 34.2596L121.843 36.8676L121.822 37.1314L120.809 39.3539H119.421L122.992 31.8545L126.562 39.3539H125.174L124.182 37.1923L124.15 36.898L122.992 34.2596Z" fill="#B3A26B"/>
<path d="M129.334 35.9644H130.67L133.145 39.3539H131.662L129.334 35.9644ZM127.83 32.2503H129.062V39.3539H127.83V32.2503ZM128.561 33.2854V32.2503H130.085C130.614 32.2503 131.074 32.3416 131.464 32.5243C131.86 32.7069 132.167 32.964 132.382 33.2955C132.598 33.6202 132.706 34.0059 132.706 34.4524C132.706 34.8989 132.598 35.2879 132.382 35.6194C132.167 35.9509 131.86 36.208 131.464 36.3906C131.074 36.5733 130.614 36.6646 130.085 36.6646H128.561V35.6803H130.033C130.312 35.6803 130.555 35.6329 130.764 35.5382C130.98 35.4435 131.147 35.3082 131.265 35.1323C131.384 34.9496 131.443 34.7331 131.443 34.4828C131.443 34.2257 131.384 34.0092 131.265 33.8334C131.147 33.6575 130.98 33.5221 130.764 33.4274C130.555 33.3327 130.312 33.2854 130.033 33.2854H128.561Z" fill="#B3A26B"/>
<path d="M134.457 32.2503H135.689V38.2782H138.592V39.3539H134.457V32.2503Z" fill="#B3A26B"/>
<path d="M140.473 35.8021C140.473 36.2892 140.577 36.7255 140.786 37.1112C141.002 37.49 141.298 37.7877 141.674 38.0042C142.05 38.2207 142.478 38.3289 142.958 38.3289C143.445 38.3289 143.873 38.2207 144.242 38.0042C144.618 37.7877 144.91 37.49 145.119 37.1112C145.335 36.7255 145.443 36.2892 145.443 35.8021C145.443 35.315 145.338 34.882 145.13 34.5031C144.921 34.1175 144.629 33.8164 144.253 33.5999C143.884 33.3835 143.452 33.2752 142.958 33.2752C142.478 33.2752 142.05 33.3835 141.674 33.5999C141.298 33.8164 141.002 34.1175 140.786 34.5031C140.577 34.882 140.473 35.315 140.473 35.8021ZM139.168 35.8021C139.168 35.2676 139.262 34.7771 139.45 34.3306C139.638 33.8841 139.902 33.4985 140.243 33.1737C140.591 32.8422 140.995 32.5851 141.454 32.4025C141.921 32.2198 142.422 32.1285 142.958 32.1285C143.508 32.1285 144.012 32.2198 144.472 32.4025C144.931 32.5851 145.332 32.8422 145.673 33.1737C146.021 33.4985 146.289 33.8841 146.477 34.3306C146.664 34.7771 146.758 35.2676 146.758 35.8021C146.758 36.3298 146.664 36.8202 146.477 37.2735C146.289 37.7268 146.024 38.1192 145.683 38.4507C145.342 38.7822 144.938 39.0427 144.472 39.2321C144.012 39.4147 143.508 39.5061 142.958 39.5061C142.415 39.5061 141.91 39.4147 141.444 39.2321C140.978 39.0427 140.574 38.7822 140.233 38.4507C139.899 38.1192 139.638 37.7268 139.45 37.2735C139.262 36.8202 139.168 36.3298 139.168 35.8021Z" fill="#B3A26B"/>
</g>
</g>
</g>
</svg>
