<svg width="246" height="47" viewBox="0 0 246 47" fill="none" xmlns="http://www.w3.org/2000/svg">
<path d="M16.5211 37.0101C15.4564 37.0101 14.4374 36.858 13.464 36.5538C12.521 36.2801 11.6996 35.6717 11 34.7287C11.0913 33.9986 11.3042 32.9339 11.6388 31.5346C12.0038 30.1354 12.4449 28.5536 12.962 26.7892C13.4792 24.9945 14.0267 23.1541 14.6047 21.2681C15.1827 19.3821 15.7454 17.5874 16.293 15.8839C16.8709 14.15 17.3729 12.6442 17.7987 11.3666C18.255 10.0586 18.5896 9.11558 18.8026 8.53761C18.8938 8.29426 19.0459 7.92923 19.2589 7.44252C19.4718 6.95581 19.7456 6.45389 20.0802 5.93676C20.4148 5.41963 20.795 4.99376 21.2209 4.65914C21.6772 4.29411 22.1639 4.1116 22.681 4.1116C23.1982 4.1116 23.7761 4.32453 24.4149 4.7504C23.4719 6.87976 22.5137 9.25247 21.5403 11.8685C20.5973 14.4542 19.6847 17.1311 18.8026 19.8992C17.9508 22.637 17.1599 25.3139 16.4299 27.93C15.7302 30.5156 15.1522 32.8883 14.696 35.0481C14.9393 35.1393 15.2739 35.2002 15.6998 35.2306C16.1561 35.2914 16.582 35.3219 16.9774 35.3219C18.9547 35.3219 20.8407 34.8351 22.6354 33.8617C24.4301 32.9187 26.0728 31.6563 27.5633 30.0745C29.0843 28.4623 30.4076 26.6676 31.5331 24.6903C32.6586 22.6826 33.5255 20.6293 34.1339 18.5304C34.7423 16.4314 35.0465 14.4238 35.0465 12.5073C35.0465 10.0434 34.6206 8.0509 33.7689 6.52994C32.9476 4.97855 31.8068 3.85303 30.3467 3.15339C28.8866 2.42332 27.2135 2.05829 25.3275 2.05829C23.3503 2.05829 21.5707 2.42332 19.9889 3.15339C18.4071 3.85303 17.1599 4.82645 16.2473 6.07365C15.3652 7.29042 14.9241 8.68971 14.9241 10.2715C14.9241 10.6061 14.9545 10.9712 15.0154 11.3666C15.0762 11.7316 15.1827 12.0967 15.3348 12.4617C14.0267 12.4617 13.0837 12.1879 12.5058 11.6404C11.9582 11.0624 11.6844 10.3628 11.6844 9.54145C11.6844 8.47678 12.0647 7.39689 12.8252 6.30179C13.6161 5.20669 14.696 4.20286 16.0648 3.29028C17.4641 2.34727 19.0763 1.602 20.9015 1.05445C22.7267 0.476484 24.7039 0.1875 26.8333 0.1875C29.8144 0.1875 32.2023 0.765468 33.997 1.9214C35.7918 3.04692 37.0846 4.5831 37.8755 6.52994C38.6968 8.44636 39.1075 10.5909 39.1075 12.9636C39.1075 15.5797 38.6816 18.0893 37.8299 20.4924C37.0086 22.8651 35.8526 25.0553 34.3621 27.063C32.9019 29.0707 31.1985 30.8198 29.2516 32.3103C27.3352 33.8009 25.2819 34.9568 23.0917 35.7781C20.9319 36.5995 18.7417 37.0101 16.5211 37.0101Z" fill="url(#paint0_linear_4700_26221)"/>
<path d="M47.1271 34.2268C46.0016 34.2268 45.089 33.9226 44.3894 33.3142C43.6898 32.7362 43.3399 31.9453 43.3399 30.9415C43.3399 30.0897 43.5529 29.1771 43.9787 28.2037C44.4046 27.2303 44.8305 26.2721 45.2564 25.3291C45.7126 24.3861 45.9408 23.5496 45.9408 22.8195C45.9408 22.1199 45.7126 21.5419 45.2564 21.0856C44.8001 20.5989 44.2677 20.2034 43.6593 19.8992C42.9901 21.5723 42.2296 23.1997 41.3779 24.7816C40.5566 26.3329 39.8873 27.5497 39.3702 28.4319L38.6858 27.1086C39.1116 26.3177 39.6744 25.1922 40.374 23.7321C41.0737 22.272 41.7429 20.6445 42.3817 18.8498C42.0775 18.5456 41.9254 18.1349 41.9254 17.6178C41.9254 16.8269 42.1688 16.0816 42.6555 15.382C43.1422 14.6823 43.6137 14.3325 44.07 14.3325C44.435 14.3325 44.6936 14.5454 44.8457 14.9713C45.0282 15.3668 45.1195 15.6405 45.1195 15.7926C45.1195 15.9447 45.0434 16.2185 44.8913 16.614C44.7696 17.0094 44.6784 17.2984 44.6175 17.4809C44.648 17.8155 44.9065 18.1501 45.3932 18.4847C45.9104 18.7889 46.4883 19.154 47.1271 19.5798C47.766 20.0057 48.3287 20.538 48.8154 21.1769C49.3021 21.8157 49.5455 22.6218 49.5455 23.5952C49.5455 24.4774 49.3478 25.3747 48.9523 26.2873C48.5569 27.1999 48.1614 28.0516 47.766 28.8425C47.3705 29.6334 47.1728 30.3179 47.1728 30.8958C47.1728 31.3217 47.2792 31.6107 47.4922 31.7628C47.7355 31.8845 48.0093 31.9453 48.3135 31.9453C49.0436 31.9453 49.8041 31.7324 50.595 31.3065C51.3859 30.8502 52.1615 30.2722 52.922 29.5726C53.6825 28.873 54.3517 28.1429 54.9297 27.3824C55.5077 26.5915 55.9488 25.8766 56.253 25.2378L57.348 26.0592C56.7701 27.3672 55.9336 28.66 54.8385 29.9376C53.7434 31.1848 52.5266 32.2191 51.1881 33.0404C49.8497 33.8313 48.496 34.2268 47.1271 34.2268Z" fill="url(#paint1_linear_4700_26221)"/>
<path d="M60.5549 35.0481C58.6081 35.0481 57.1023 34.5157 56.0376 33.4511C55.0034 32.4168 54.4863 31.1088 54.4863 29.527C54.4863 28.1885 54.8209 26.774 55.4901 25.2835C56.1897 23.7625 57.1175 22.348 58.2735 21.04C59.4294 19.7015 60.707 18.6216 62.1063 17.8003C63.5056 16.979 64.9049 16.5683 66.3042 16.5683C67.0951 16.5683 67.8404 16.7813 68.54 17.2071C69.2701 17.6026 69.6351 18.4087 69.6351 19.6255C69.6351 20.7814 69.3005 21.8613 68.6313 22.8651C67.962 23.869 67.0647 24.7663 65.9391 25.5572C64.8136 26.3481 63.5664 27.0022 62.1976 27.5193C60.8591 28.006 59.5054 28.3254 58.1366 28.4775C58.1062 28.5992 58.0757 28.7361 58.0453 28.8882C58.0453 29.0098 58.0453 29.2228 58.0453 29.527C58.0453 29.6791 58.0605 29.9528 58.091 30.3483C58.1518 30.7133 58.2887 31.1088 58.5016 31.5346C58.7145 31.9605 59.0644 32.3256 59.5511 32.6297C60.0378 32.9339 60.707 33.086 61.5588 33.086C62.8364 33.086 64.114 32.7362 65.3916 32.0366C66.6996 31.3065 67.9164 30.3483 69.0419 29.1619C70.1979 27.9756 71.1561 26.6523 71.9165 25.1922L72.8291 25.9223C72.0078 27.7474 70.9431 29.3445 69.6351 30.7133C68.3575 32.0822 66.9278 33.1469 65.346 33.9074C63.7946 34.6678 62.1976 35.0481 60.5549 35.0481ZM58.6385 26.7892C59.4294 26.698 60.3116 26.4242 61.285 25.9679C62.2584 25.5116 63.1862 24.9336 64.0684 24.234C64.9809 23.5344 65.7262 22.7739 66.3042 21.9526C66.8821 21.1008 67.1711 20.2491 67.1711 19.3973C67.1711 19.0627 67.1103 18.8346 66.9886 18.7129C66.8669 18.5912 66.6692 18.5304 66.3954 18.5304C65.6958 18.5304 64.9657 18.7889 64.2052 19.3061C63.4448 19.7928 62.6995 20.4468 61.9694 21.2681C61.2393 22.059 60.5853 22.9412 60.0074 23.9146C59.4294 24.888 58.9731 25.8462 58.6385 26.7892Z" fill="url(#paint2_linear_4700_26221)"/>
<path d="M73.3685 35.185C72.3646 35.185 71.4977 34.8504 70.7676 34.1811C70.0071 33.5119 69.6269 32.5081 69.6269 31.1696C69.6269 30.1049 69.8703 28.949 70.357 27.7018C70.8437 26.4546 71.5129 25.2226 72.3646 24.0059C73.2164 22.7891 74.1898 21.694 75.2849 20.7206C76.38 19.7167 77.5511 18.9106 78.7983 18.3022C80.0455 17.6938 81.2927 17.3896 82.5399 17.3896C83.8479 17.3896 84.9583 17.7243 85.8708 18.3935C86.7834 19.0627 87.2397 19.9449 87.2397 21.04C87.2397 21.8613 86.9507 22.4545 86.3728 22.8195C85.7948 23.1845 85.1104 23.291 84.3194 23.1389C84.3803 22.8651 84.4259 22.5914 84.4563 22.3176C84.5172 22.0438 84.5476 21.7548 84.5476 21.4506C84.5476 20.8422 84.4259 20.2947 84.1826 19.808C83.9392 19.3213 83.4221 19.0779 82.6312 19.0779C81.7794 19.0779 80.9125 19.3669 80.0303 19.9449C79.1482 20.5228 78.2964 21.2833 77.4751 22.2263C76.6842 23.1389 75.9693 24.158 75.3305 25.2835C74.6917 26.3786 74.1898 27.4585 73.8248 28.5231C73.4597 29.5878 73.2772 30.546 73.2772 31.3978C73.2772 32.3712 73.627 32.8579 74.3267 32.8579C75.0263 32.8579 75.802 32.5233 76.6538 31.8541C77.5055 31.1544 78.3572 30.2875 79.209 29.2532C80.0912 28.2189 80.9277 27.1695 81.7186 26.1048C82.5095 25.0097 83.1939 24.0819 83.7719 23.3214C83.8632 23.1693 83.9848 23.0933 84.1369 23.0933C84.2586 23.1237 84.4867 23.1997 84.8214 23.3214C85.1864 23.4127 85.521 23.5648 85.8252 23.7777C86.1294 23.9906 86.2815 24.2644 86.2815 24.599C86.2815 24.9032 86.1446 25.2987 85.8708 25.7854C85.6275 26.2417 85.3233 26.7588 84.9582 27.3368C84.6236 27.8843 84.3194 28.4471 84.0457 29.0251C83.8023 29.5726 83.6806 30.1049 83.6806 30.6221C83.6806 31.0175 83.7871 31.3978 84 31.7628C84.213 32.0974 84.5628 32.2647 85.0495 32.2647C85.7796 32.2647 86.7986 31.7324 88.1067 30.6677C89.4451 29.5726 90.7988 27.7322 92.1676 25.1466L93.0346 26.0135C92.3045 27.6562 91.4224 29.1163 90.3881 30.3939C89.3843 31.6411 88.3196 32.6145 87.1941 33.3142C86.0686 34.0442 84.9278 34.4093 83.7719 34.4093C82.5247 34.4093 81.5969 34.0138 80.9885 33.2229C80.3801 32.432 80.0455 31.5803 79.9847 30.6677C79.9847 30.6069 79.9847 30.5612 79.9847 30.5308C79.9847 30.5004 79.9847 30.47 79.9847 30.4396C78.7679 31.8997 77.6424 33.0556 76.6081 33.9074C75.6043 34.7591 74.5244 35.185 73.3685 35.185Z" fill="url(#paint3_linear_4700_26221)"/>
<path d="M114.952 34.4549C113.766 34.4549 112.883 34.1051 112.305 33.4054C111.727 32.7058 111.438 31.8693 111.438 30.8958C111.438 30.1962 111.545 29.4966 111.758 28.7969C111.971 28.0973 112.184 27.4128 112.397 26.7436C112.61 26.044 112.716 25.4204 112.716 24.8728C112.716 24.3557 112.61 24.0059 112.397 23.8233C112.214 23.6104 111.971 23.5039 111.667 23.5039C110.967 23.5039 110.146 24.0363 109.203 25.101C108.29 26.1656 107.149 27.717 105.78 29.7551C105.294 30.4852 104.837 31.2609 104.412 32.0822C103.986 32.8731 103.605 33.5423 103.271 34.0899C102.997 34.0899 102.632 34.0442 102.176 33.953C101.75 33.8617 101.37 33.7248 101.035 33.5423C100.7 33.3902 100.533 33.1773 100.533 32.9035C100.533 32.6297 100.685 32.0974 100.989 31.3065C101.294 30.5156 101.643 29.603 102.039 28.5688C102.434 27.5041 102.784 26.4698 103.088 25.466C103.393 24.4317 103.545 23.5648 103.545 22.8651C103.545 22.4393 103.469 22.1046 103.316 21.8613C103.164 21.6179 102.921 21.4963 102.586 21.4963C101.948 21.4963 101.172 21.8765 100.259 22.637C99.3771 23.3975 98.4342 24.4013 97.4303 25.6485C96.4569 26.8653 95.5291 28.2341 94.6469 29.7551C93.7952 31.2457 93.0956 32.7514 92.548 34.2724C92.2134 34.2724 91.8027 34.1963 91.316 34.0442C90.8293 33.9226 90.4034 33.7553 90.0384 33.5423C89.6734 33.3598 89.4909 33.1925 89.4909 33.0404C89.4909 33.01 89.5973 32.5841 89.8103 31.7628C90.0232 30.9111 90.2818 29.8616 90.586 28.6144C90.8901 27.3672 91.2095 26.0896 91.5442 24.7816C91.8788 23.4735 92.1678 22.3328 92.4111 21.3594C92.5024 21.0248 92.837 20.7358 93.4149 20.4924C93.9929 20.2186 94.4948 20.0818 94.9207 20.0818C95.3466 20.0818 95.7116 20.2186 96.0158 20.4924C96.32 20.7662 96.4721 21.1312 96.4721 21.5875C96.4721 21.8917 96.4113 22.3328 96.2896 22.9108C96.1679 23.4887 96.0158 24.1427 95.8333 24.8728C96.4721 24.0211 97.1413 23.1845 97.841 22.3632C98.571 21.5115 99.3163 20.751 100.077 20.0818C100.868 19.4125 101.643 18.8802 102.404 18.4847C103.195 18.0893 103.97 17.8916 104.731 17.8916C105.856 17.8916 106.617 18.3022 107.012 19.1236C107.408 19.9145 107.606 20.7814 107.606 21.7244C107.606 22.1199 107.575 22.5153 107.514 22.9108C107.453 23.2758 107.362 23.656 107.241 24.0515C107.149 24.4165 107.012 24.8576 106.83 25.3747C107.408 24.523 108.031 23.7473 108.701 23.0476C109.4 22.3176 110.146 21.7396 110.937 21.3137C111.727 20.8879 112.564 20.6749 113.446 20.6749C114.632 20.6749 115.454 21.04 115.91 21.77C116.366 22.4697 116.594 23.2454 116.594 24.0971C116.594 24.888 116.458 25.7246 116.184 26.6067C115.94 27.4585 115.682 28.2798 115.408 29.0707C115.165 29.8312 115.043 30.4852 115.043 31.0327C115.043 31.3369 115.119 31.6259 115.271 31.8997C115.423 32.143 115.728 32.2647 116.184 32.2647C117.005 32.2647 117.796 31.8845 118.557 31.124C119.317 30.3635 120.017 29.4357 120.655 28.3406C121.325 27.2151 121.887 26.1504 122.344 25.1466L123.119 26.1048C122.633 27.352 121.994 28.6296 121.203 29.9376C120.443 31.2152 119.545 32.2799 118.511 33.1317C117.477 34.0138 116.29 34.4549 114.952 34.4549Z" fill="url(#paint4_linear_4700_26221)"/>
<path d="M144.242 37.0101C143.755 37.0101 143.162 36.9037 142.463 36.6907C141.793 36.5082 141.185 36.1128 140.637 35.5044C140.12 34.9264 139.862 34.0747 139.862 32.9492C139.862 32.0061 140.044 30.8654 140.409 29.527C140.774 28.1885 141.231 26.698 141.778 25.0553C142.326 23.4127 142.873 21.6484 143.421 19.7624C143.968 17.8459 144.425 15.8687 144.79 13.8306C145.155 11.7621 145.337 9.66313 145.337 7.53378C145.337 6.4691 145.261 5.5261 145.109 4.70477C144.957 3.88345 144.683 3.24465 144.288 2.78835C143.892 2.33206 143.314 2.10392 142.554 2.10392C141.763 2.10392 141.094 2.33206 140.546 2.78835C139.999 3.24465 139.542 3.83782 139.177 4.56789C138.843 5.29795 138.584 6.05844 138.402 6.84934C138.25 7.64024 138.173 8.38552 138.173 9.08516C138.173 9.60229 138.219 10.1042 138.31 10.5909C138.432 11.0776 138.615 11.5643 138.858 12.0511C137.367 12.0511 136.287 11.7012 135.618 11.0016C134.949 10.3019 134.614 9.43498 134.614 8.40073C134.614 7.48815 134.843 6.54514 135.299 5.57172C135.755 4.59831 136.379 3.71615 137.17 2.92524C137.991 2.10392 138.934 1.4499 139.999 0.963194C141.094 0.446065 142.25 0.1875 143.466 0.1875C145.535 0.1875 147.102 0.947984 148.166 2.46895C149.231 3.9595 149.763 6.01281 149.763 8.62887C149.763 10.3019 149.566 12.0511 149.17 13.8762C148.805 15.7014 148.349 17.5417 147.801 19.3973C147.254 21.2225 146.691 23.002 146.113 24.7359C145.565 26.4698 145.094 28.0821 144.698 29.5726C144.333 31.0327 144.151 32.3103 144.151 33.4054C144.151 33.8921 144.212 34.2724 144.333 34.5462C144.485 34.8199 144.79 34.9568 145.246 34.9568C146.128 34.9568 147.117 34.5462 148.212 33.7248C149.337 32.9035 150.493 31.7932 151.68 30.3939C152.866 28.9642 154.022 27.352 155.147 25.5572C156.273 23.7625 157.292 21.8917 158.205 19.9449C159.117 17.998 159.832 16.0664 160.349 14.15C160.897 12.2336 161.171 10.4692 161.171 8.85702C161.171 7.24479 160.882 6.01281 160.304 5.16107C159.726 4.30932 158.996 3.73135 158.113 3.42716C158.539 2.51458 159.056 1.86056 159.665 1.46511C160.304 1.03924 160.866 0.826306 161.353 0.826306C162.174 0.826306 162.95 1.34344 163.68 2.37769C164.41 3.41195 164.775 4.87208 164.775 6.75808C164.775 8.40073 164.456 10.2867 163.817 12.4161C163.209 14.515 162.357 16.7052 161.262 18.9867C160.167 21.2377 158.919 23.4431 157.52 25.6029C156.151 27.7322 154.691 29.6639 153.14 31.3978C151.619 33.1012 150.098 34.4549 148.577 35.4587C147.056 36.493 145.611 37.0101 144.242 37.0101Z" fill="url(#paint5_linear_4700_26221)"/>
<path d="M167.81 35.0481C165.863 35.0481 164.357 34.5157 163.293 33.4511C162.258 32.4168 161.741 31.1088 161.741 29.527C161.741 28.1885 162.076 26.774 162.745 25.2835C163.445 23.7625 164.372 22.348 165.528 21.04C166.684 19.7015 167.962 18.6216 169.361 17.8003C170.761 16.979 172.16 16.5683 173.559 16.5683C174.35 16.5683 175.095 16.7813 175.795 17.2071C176.525 17.6026 176.89 18.4087 176.89 19.6255C176.89 20.7814 176.555 21.8613 175.886 22.8651C175.217 23.869 174.32 24.7663 173.194 25.5572C172.069 26.3481 170.821 27.0022 169.453 27.5193C168.114 28.006 166.76 28.3254 165.392 28.4775C165.361 28.5992 165.331 28.7361 165.3 28.8882C165.3 29.0098 165.3 29.2228 165.3 29.527C165.3 29.6791 165.315 29.9528 165.346 30.3483C165.407 30.7133 165.544 31.1088 165.757 31.5346C165.97 31.9605 166.319 32.3256 166.806 32.6297C167.293 32.9339 167.962 33.086 168.814 33.086C170.091 33.086 171.369 32.7362 172.647 32.0366C173.955 31.3065 175.171 30.3483 176.297 29.1619C177.453 27.9756 178.411 26.6523 179.172 25.1922L180.084 25.9223C179.263 27.7474 178.198 29.3445 176.89 30.7133C175.612 32.0822 174.183 33.1469 172.601 33.9074C171.05 34.6678 169.453 35.0481 167.81 35.0481ZM165.893 26.7892C166.684 26.698 167.567 26.4242 168.54 25.9679C169.513 25.5116 170.441 24.9336 171.323 24.234C172.236 23.5344 172.981 22.7739 173.559 21.9526C174.137 21.1008 174.426 20.2491 174.426 19.3973C174.426 19.0627 174.365 18.8346 174.244 18.7129C174.122 18.5912 173.924 18.5304 173.65 18.5304C172.951 18.5304 172.221 18.7889 171.46 19.3061C170.7 19.7928 169.954 20.4468 169.224 21.2681C168.494 22.059 167.84 22.9412 167.262 23.9146C166.684 24.888 166.228 25.8462 165.893 26.7892Z" fill="url(#paint6_linear_4700_26221)"/>
<path d="M180.35 45.8165C179.589 45.8165 178.874 45.5884 178.205 45.1321C177.566 44.6758 177.247 43.9305 177.247 42.8963C177.247 41.9229 177.521 41.0407 178.068 40.2498C178.646 39.4893 179.391 38.7745 180.304 38.1052C181.247 37.4664 182.251 36.8732 183.316 36.3257C184.38 35.7781 185.414 35.261 186.418 34.7743C186.753 33.953 187.072 33.0708 187.377 32.1278C187.681 31.1848 187.97 30.1658 188.243 29.0707C187.179 30.4091 186.053 31.5194 184.867 32.4016C183.711 33.2838 182.525 33.7248 181.308 33.7248C180.091 33.7248 179.118 33.299 178.388 32.4472C177.688 31.5955 177.338 30.47 177.338 29.0707C177.338 27.4585 177.734 25.9527 178.525 24.5534C179.346 23.1237 180.395 21.8613 181.673 20.7662C182.951 19.6407 184.319 18.7737 185.78 18.1653C187.24 17.5265 188.639 17.2071 189.977 17.2071C190.951 17.2071 191.681 17.3896 192.168 17.7547C192.654 18.0893 192.898 18.4847 192.898 18.941C192.898 19.3061 192.791 19.595 192.578 19.808C192.365 20.0209 192.228 20.1426 192.168 20.173C191.863 19.8384 191.544 19.6255 191.209 19.5342C190.905 19.4125 190.54 19.3517 190.114 19.3517C188.928 19.3517 187.787 19.6863 186.692 20.3555C185.597 21.0248 184.624 21.8917 183.772 22.9564C182.951 23.9906 182.297 25.0705 181.81 26.1961C181.323 27.3216 181.08 28.3406 181.08 29.2532C181.08 29.8616 181.217 30.3331 181.49 30.6677C181.764 30.9719 182.099 31.124 182.494 31.124C183.346 31.124 184.38 30.5764 185.597 29.4813C186.814 28.3558 187.985 27.0022 189.11 25.4204C189.171 25.177 189.217 24.9641 189.247 24.7816C189.308 24.5686 189.354 24.3709 189.384 24.1884C189.688 22.9716 190.053 22.0742 190.479 21.4963C190.905 20.9183 191.498 20.6293 192.259 20.6293C192.411 20.6293 192.593 20.6445 192.806 20.6749C193.05 20.7054 193.308 20.751 193.582 20.8118C193.582 21.3594 193.43 22.2567 193.126 23.5039C192.822 24.7511 192.411 26.2113 191.894 27.8843C191.377 29.527 190.799 31.2152 190.16 32.9492C191.103 32.5537 192.061 32.0061 193.035 31.3065C194.008 30.5764 194.905 29.7095 195.727 28.7056C196.548 27.6714 197.172 26.5307 197.597 25.2835L198.419 26.1048C197.932 27.5041 197.172 28.7817 196.137 29.9376C195.133 31.0936 194.038 32.0974 192.852 32.9492C191.666 33.7705 190.571 34.4093 189.567 34.8656C188.745 36.8732 187.848 38.6984 186.875 40.3411C185.932 42.0141 184.913 43.3374 183.817 44.3108C182.753 45.3146 181.597 45.8165 180.35 45.8165ZM180.167 43.7176C180.715 43.7176 181.46 43.2005 182.403 42.1662C183.376 41.132 184.426 39.3828 185.551 36.9189C184.426 37.4664 183.392 38.0292 182.449 38.6071C181.506 39.1851 180.745 39.7935 180.167 40.4323C179.589 41.0711 179.3 41.7403 179.3 42.44C179.3 42.8354 179.376 43.1396 179.528 43.3526C179.711 43.5959 179.924 43.7176 180.167 43.7176Z" fill="url(#paint7_linear_4700_26221)"/>
<path d="M199.027 35.185C198.023 35.185 197.156 34.8504 196.426 34.1811C195.665 33.5119 195.285 32.5081 195.285 31.1696C195.285 30.1049 195.528 28.949 196.015 27.7018C196.502 26.4546 197.171 25.2226 198.023 24.0059C198.874 22.7891 199.848 21.694 200.943 20.7206C202.038 19.7167 203.209 18.9106 204.456 18.3022C205.704 17.6938 206.951 17.3896 208.198 17.3896C209.506 17.3896 210.616 17.7243 211.529 18.3935C212.441 19.0627 212.898 19.9449 212.898 21.04C212.898 21.8613 212.609 22.4545 212.031 22.8195C211.453 23.1845 210.768 23.291 209.978 23.1389C210.038 22.8651 210.084 22.5914 210.114 22.3176C210.175 22.0438 210.206 21.7548 210.206 21.4506C210.206 20.8422 210.084 20.2947 209.841 19.808C209.597 19.3213 209.08 19.0779 208.289 19.0779C207.438 19.0779 206.571 19.3669 205.688 19.9449C204.806 20.5228 203.954 21.2833 203.133 22.2263C202.342 23.1389 201.627 24.158 200.989 25.2835C200.35 26.3786 199.848 27.4585 199.483 28.5231C199.118 29.5878 198.935 30.546 198.935 31.3978C198.935 32.3712 199.285 32.8579 199.985 32.8579C200.684 32.8579 201.46 32.5233 202.312 31.8541C203.164 31.1544 204.015 30.2875 204.867 29.2532C205.749 28.2189 206.586 27.1695 207.377 26.1048C208.168 25.0097 208.852 24.0819 209.43 23.3214C209.521 23.1693 209.643 23.0933 209.795 23.0933C209.917 23.1237 210.145 23.1997 210.479 23.3214C210.844 23.4127 211.179 23.5648 211.483 23.7777C211.787 23.9906 211.94 24.2644 211.94 24.599C211.94 24.9032 211.803 25.2987 211.529 25.7854C211.286 26.2417 210.981 26.7588 210.616 27.3368C210.282 27.8843 209.978 28.4471 209.704 29.0251C209.46 29.5726 209.339 30.1049 209.339 30.6221C209.339 31.0175 209.445 31.3978 209.658 31.7628C209.871 32.0974 210.221 32.2647 210.708 32.2647C211.438 32.2647 212.457 31.7324 213.765 30.6677C215.103 29.5726 216.457 27.7322 217.826 25.1466L218.693 26.0135C217.963 27.6562 217.08 29.1163 216.046 30.3939C215.042 31.6411 213.978 32.6145 212.852 33.3142C211.727 34.0442 210.586 34.4093 209.43 34.4093C208.183 34.4093 207.255 34.0138 206.647 33.2229C206.038 32.432 205.704 31.5803 205.643 30.6677C205.643 30.6069 205.643 30.5612 205.643 30.5308C205.643 30.5004 205.643 30.47 205.643 30.4396C204.426 31.8997 203.3 33.0556 202.266 33.9074C201.262 34.7591 200.182 35.185 199.027 35.185Z" fill="url(#paint8_linear_4700_26221)"/>
<path d="M222.085 35.3675C220.564 35.3675 219.332 35.0481 218.389 34.4093C217.476 33.8009 216.822 33.0252 216.427 32.0822C216.031 31.1088 215.833 30.1201 215.833 29.1163C215.833 28.2341 215.955 27.5497 216.198 27.063C216.442 26.5763 216.746 26.2265 217.111 26.0135C217.476 25.7702 217.811 25.5877 218.115 25.466C218.449 25.3443 218.693 25.2074 218.845 25.0553C219.605 24.2644 220.381 23.3518 221.172 22.3176C221.993 21.2529 222.693 20.0818 223.271 18.8041V18.3479C223.271 17.1311 223.469 16.2793 223.864 15.7926C224.29 15.2755 224.777 15.0169 225.324 15.0169C225.689 15.0169 225.948 15.1082 226.1 15.2907C226.282 15.4732 226.389 15.6862 226.419 15.9295C226.419 16.112 226.374 16.325 226.282 16.5683C226.222 16.8117 226.191 17.1463 226.191 17.5722C226.191 18.4847 226.404 19.5342 226.83 20.7206C227.286 21.8765 227.727 23.1085 228.153 24.4165C228.61 25.7246 228.838 27.063 228.838 28.4319C228.838 28.7969 228.822 29.1315 228.792 29.4357C228.762 29.7399 228.716 30.0289 228.655 30.3027C229.598 30.0593 230.526 29.5422 231.439 28.7513C232.351 27.93 233.218 26.7284 234.039 25.1466L234.587 25.5572C234.009 27.2911 233.172 28.6904 232.077 29.7551C230.982 30.7894 229.705 31.4282 228.244 31.6715C227.758 32.9187 226.952 33.8465 225.826 34.4549C224.731 35.0633 223.484 35.3675 222.085 35.3675ZM221.765 33.3598C222.374 33.3598 222.936 33.2077 223.453 32.9035C223.971 32.5993 224.381 32.1582 224.685 31.5803C223.438 31.3065 222.313 30.8198 221.309 30.1201C220.305 29.4205 219.529 28.7056 218.982 27.9756C218.556 28.0668 218.343 28.4775 218.343 29.2076C218.343 30.2114 218.632 31.1544 219.21 32.0366C219.788 32.9187 220.64 33.3598 221.765 33.3598ZM225.05 30.2114C225.111 29.9985 225.142 29.7551 225.142 29.4813C225.172 29.1771 225.187 28.949 225.187 28.7969C225.157 27.428 224.974 26.0744 224.64 24.7359C224.305 23.3975 223.971 22.0286 223.636 20.6293C223.088 21.5723 222.45 22.5914 221.72 23.6865C220.989 24.7816 220.305 25.6637 219.666 26.3329C220.153 27.1543 220.868 27.93 221.811 28.66C222.754 29.3901 223.834 29.9072 225.05 30.2114Z" fill="url(#paint9_linear_4700_26221)"/>
<g filter="url(#filter0_d_4700_26221)">
<path d="M38.1722 41.6115C38.1722 42.3914 37.54 43.0236 36.7601 43.0236C35.9803 43.0236 35.3481 42.3914 35.3481 41.6115C35.3481 40.8317 35.9803 40.1995 36.7601 40.1995C37.54 40.1995 38.1722 40.8317 38.1722 41.6115Z" fill="#00E6FF"/>
<path d="M48.9549 41.6115C48.9549 42.3914 48.3227 43.0236 47.5429 43.0236C46.763 43.0236 46.1308 42.3914 46.1308 41.6115C46.1308 40.8317 46.763 40.1995 47.5429 40.1995C48.3227 40.1995 48.9549 40.8317 48.9549 41.6115Z" fill="#00E6FF"/>
<path d="M59.7376 41.6115C59.7376 42.3914 59.1054 43.0236 58.3256 43.0236C57.5457 43.0236 56.9135 42.3914 56.9135 41.6115C56.9135 40.8317 57.5457 40.1995 58.3256 40.1995C59.1054 40.1995 59.7376 40.8317 59.7376 41.6115Z" fill="#00E6FF"/>
<path d="M70.5203 41.6115C70.5203 42.3914 69.8881 43.0236 69.1082 43.0236C68.3284 43.0236 67.6962 42.3914 67.6962 41.6115C67.6962 40.8317 68.3284 40.1995 69.1082 40.1995C69.8881 40.1995 70.5203 40.8317 70.5203 41.6115Z" fill="#00E6FF"/>
<path d="M38.1722 41.6115C38.1722 42.3914 37.54 43.0236 36.7601 43.0236C35.9803 43.0236 35.3481 42.3914 35.3481 41.6115C35.3481 40.8317 35.9803 40.1995 36.7601 40.1995C37.54 40.1995 38.1722 40.8317 38.1722 41.6115Z" fill="#00E6FF"/>
<path d="M5.82406 41.6115C5.82406 42.3914 5.19187 43.0236 4.41203 43.0236C3.63219 43.0236 3 42.3914 3 41.6115C3 40.8317 3.63219 40.1995 4.41203 40.1995C5.19187 40.1995 5.82406 40.8317 5.82406 41.6115Z" fill="#00E6FF"/>
<path d="M16.6068 41.6115C16.6068 42.3914 15.9746 43.0236 15.1947 43.0236C14.4149 43.0236 13.7827 42.3914 13.7827 41.6115C13.7827 40.8317 14.4149 40.1995 15.1947 40.1995C15.9746 40.1995 16.6068 40.8317 16.6068 41.6115Z" fill="#00E6FF"/>
<path d="M27.3895 41.6115C27.3895 42.3914 26.7573 43.0236 25.9774 43.0236C25.1976 43.0236 24.5654 42.3914 24.5654 41.6115C24.5654 40.8317 25.1976 40.1995 25.9774 40.1995C26.7573 40.1995 27.3895 40.8317 27.3895 41.6115Z" fill="#00E6FF"/>
<path d="M5.82406 41.6115C5.82406 42.3914 5.19187 43.0236 4.41203 43.0236C3.63219 43.0236 3 42.3914 3 41.6115C3 40.8317 3.63219 40.1995 4.41203 40.1995C5.19187 40.1995 5.82406 40.8317 5.82406 41.6115Z" fill="#00E6FF"/>
<path d="M70.5203 41.6115C70.5203 42.3914 69.8881 43.0236 69.1082 43.0236C68.3284 43.0236 67.6962 42.3914 67.6962 41.6115C67.6962 40.8317 68.3284 40.1995 69.1082 40.1995C69.8881 40.1995 70.5203 40.8317 70.5203 41.6115Z" fill="#00E6FF"/>
<path d="M81.303 41.6115C81.303 42.3914 80.6708 43.0236 79.891 43.0236C79.1111 43.0236 78.4789 42.3914 78.4789 41.6115C78.4789 40.8317 79.1111 40.1995 79.891 40.1995C80.6708 40.1995 81.303 40.8317 81.303 41.6115Z" fill="#00E6FF"/>
<path d="M92.0857 41.6115C92.0857 42.3914 91.4535 43.0236 90.6737 43.0236C89.8938 43.0236 89.2616 42.3914 89.2616 41.6115C89.2616 40.8317 89.8938 40.1995 90.6737 40.1995C91.4535 40.1995 92.0857 40.8317 92.0857 41.6115Z" fill="#00E6FF"/>
<path d="M102.868 41.6115C102.868 42.3914 102.236 43.0236 101.456 43.0236C100.677 43.0236 100.044 42.3914 100.044 41.6115C100.044 40.8317 100.677 40.1995 101.456 40.1995C102.236 40.1995 102.868 40.8317 102.868 41.6115Z" fill="#00E6FF"/>
<path d="M113.651 41.6115C113.651 42.3914 113.019 43.0236 112.239 43.0236C111.459 43.0236 110.827 42.3914 110.827 41.6115C110.827 40.8317 111.459 40.1995 112.239 40.1995C113.019 40.1995 113.651 40.8317 113.651 41.6115Z" fill="#00E6FF"/>
<path d="M81.303 41.6115C81.303 42.3914 80.6708 43.0236 79.891 43.0236C79.1111 43.0236 78.4789 42.3914 78.4789 41.6115C78.4789 40.8317 79.1111 40.1995 79.891 40.1995C80.6708 40.1995 81.303 40.8317 81.303 41.6115Z" fill="#00E6FF"/>
<path d="M113.651 41.6115C113.651 42.3914 113.019 43.0236 112.239 43.0236C111.459 43.0236 110.827 42.3914 110.827 41.6115C110.827 40.8317 111.459 40.1995 112.239 40.1995C113.019 40.1995 113.651 40.8317 113.651 41.6115Z" fill="#00E6FF"/>
<path d="M124.434 41.6115C124.434 42.3914 123.802 43.0236 123.022 43.0236C122.242 43.0236 121.61 42.3914 121.61 41.6115C121.61 40.8317 122.242 40.1995 123.022 40.1995C123.802 40.1995 124.434 40.8317 124.434 41.6115Z" fill="#00E6FF"/>
<path d="M135.216 41.6115C135.216 42.3914 134.584 43.0236 133.804 43.0236C133.025 43.0236 132.392 42.3914 132.392 41.6115C132.392 40.8317 133.025 40.1995 133.804 40.1995C134.584 40.1995 135.216 40.8317 135.216 41.6115Z" fill="#00E6FF"/>
<path d="M243 41.6115C243 42.3914 242.368 43.0236 241.588 43.0236C240.808 43.0236 240.176 42.3914 240.176 41.6115C240.176 40.8317 240.808 40.1995 241.588 40.1995C242.368 40.1995 243 40.8317 243 41.6115Z" fill="#00E6FF"/>
<path d="M243 30.8291C243 31.6089 242.368 32.2411 241.588 32.2411C240.808 32.2411 240.176 31.6089 240.176 30.8291C240.176 30.0492 240.808 29.417 241.588 29.417C242.368 29.417 243 30.0492 243 30.8291Z" fill="#00E6FF"/>
<path d="M243 20.0461C243 20.8259 242.368 21.4581 241.588 21.4581C240.808 21.4581 240.176 20.8259 240.176 20.0461C240.176 19.2662 240.808 18.6341 241.588 18.6341C242.368 18.6341 243 19.2662 243 20.0461Z" fill="#00E6FF"/>
<path d="M5.82406 41.6115C5.82406 42.3914 5.19187 43.0236 4.41203 43.0236C3.63219 43.0236 3 42.3914 3 41.6115C3 40.8317 3.63219 40.1995 4.41203 40.1995C5.19187 40.1995 5.82406 40.8317 5.82406 41.6115Z" fill="#00E6FF"/>
<path d="M5.82406 30.8291C5.82406 31.6089 5.19187 32.2411 4.41203 32.2411C3.63219 32.2411 3 31.6089 3 30.8291C3 30.0492 3.63219 29.417 4.41203 29.417C5.19187 29.417 5.82406 30.0492 5.82406 30.8291Z" fill="#00E6FF"/>
<path d="M5.82406 20.0463C5.82406 20.8262 5.19187 21.4584 4.41203 21.4584C3.63219 21.4584 3 20.8262 3 20.0463C3 19.2665 3.63219 18.6343 4.41203 18.6343C5.19187 18.6343 5.82406 19.2665 5.82406 20.0463Z" fill="#00E6FF"/>
<path d="M5.82406 9.26384C5.82406 10.0437 5.19187 10.6759 4.41203 10.6759C3.63219 10.6759 3 10.0437 3 9.26384C3 8.48399 3.63219 7.85181 4.41203 7.85181C5.19187 7.85181 5.82406 8.48399 5.82406 9.26384Z" fill="#00E6FF"/>
<path d="M124.434 41.6115C124.434 42.3914 123.802 43.0236 123.022 43.0236C122.242 43.0236 121.61 42.3914 121.61 41.6115C121.61 40.8317 122.242 40.1995 123.022 40.1995C123.802 40.1995 124.434 40.8317 124.434 41.6115Z" fill="#00E6FF"/>
<path d="M48.9549 9.26359C48.9549 10.0434 48.3227 10.6756 47.5429 10.6756C46.763 10.6756 46.1308 10.0434 46.1308 9.26359C46.1308 8.48375 46.763 7.85156 47.5429 7.85156C48.3227 7.85156 48.9549 8.48375 48.9549 9.26359Z" fill="#00E6FF"/>
<path d="M59.7376 9.26359C59.7376 10.0434 59.1054 10.6756 58.3256 10.6756C57.5457 10.6756 56.9135 10.0434 56.9135 9.26359C56.9135 8.48375 57.5457 7.85156 58.3256 7.85156C59.1054 7.85156 59.7376 8.48375 59.7376 9.26359Z" fill="#00E6FF"/>
<path d="M70.5203 9.26359C70.5203 10.0434 69.8881 10.6756 69.1082 10.6756C68.3284 10.6756 67.6962 10.0434 67.6962 9.26359C67.6962 8.48375 68.3284 7.85156 69.1082 7.85156C69.8881 7.85156 70.5203 8.48375 70.5203 9.26359Z" fill="#00E6FF"/>
<path d="M5.82406 9.26384C5.82406 10.0437 5.19187 10.6759 4.41203 10.6759C3.63219 10.6759 3 10.0437 3 9.26384C3 8.48399 3.63219 7.85181 4.41203 7.85181C5.19187 7.85181 5.82406 8.48399 5.82406 9.26384Z" fill="#00E6FF"/>
<path d="M5.82406 9.26384C5.82406 10.0437 5.19187 10.6759 4.41203 10.6759C3.63219 10.6759 3 10.0437 3 9.26384C3 8.48399 3.63219 7.85181 4.41203 7.85181C5.19187 7.85181 5.82406 8.48399 5.82406 9.26384Z" fill="#00E6FF"/>
<path d="M70.5203 9.26359C70.5203 10.0434 69.8881 10.6756 69.1082 10.6756C68.3284 10.6756 67.6962 10.0434 67.6962 9.26359C67.6962 8.48375 68.3284 7.85156 69.1082 7.85156C69.8881 7.85156 70.5203 8.48375 70.5203 9.26359Z" fill="#00E6FF"/>
<path d="M81.303 9.26359C81.303 10.0434 80.6708 10.6756 79.891 10.6756C79.1111 10.6756 78.4789 10.0434 78.4789 9.26359C78.4789 8.48375 79.1111 7.85156 79.891 7.85156C80.6708 7.85156 81.303 8.48375 81.303 9.26359Z" fill="#00E6FF"/>
<path d="M92.0857 9.26359C92.0857 10.0434 91.4535 10.6756 90.6737 10.6756C89.8938 10.6756 89.2616 10.0434 89.2616 9.26359C89.2616 8.48375 89.8938 7.85156 90.6737 7.85156C91.4535 7.85156 92.0857 8.48375 92.0857 9.26359Z" fill="#00E6FF"/>
<path d="M102.868 9.26359C102.868 10.0434 102.236 10.6756 101.456 10.6756C100.677 10.6756 100.044 10.0434 100.044 9.26359C100.044 8.48375 100.677 7.85156 101.456 7.85156C102.236 7.85156 102.868 8.48375 102.868 9.26359Z" fill="#00E6FF"/>
<path d="M113.651 9.26359C113.651 10.0434 113.019 10.6756 112.239 10.6756C111.459 10.6756 110.827 10.0434 110.827 9.26359C110.827 8.48375 111.459 7.85156 112.239 7.85156C113.019 7.85156 113.651 8.48375 113.651 9.26359Z" fill="#00E6FF"/>
<path d="M81.303 9.26359C81.303 10.0434 80.6708 10.6756 79.891 10.6756C79.1111 10.6756 78.4789 10.0434 78.4789 9.26359C78.4789 8.48375 79.1111 7.85156 79.891 7.85156C80.6708 7.85156 81.303 8.48375 81.303 9.26359Z" fill="#00E6FF"/>
<path d="M113.651 9.26359C113.651 10.0434 113.019 10.6756 112.239 10.6756C111.459 10.6756 110.827 10.0434 110.827 9.26359C110.827 8.48375 111.459 7.85156 112.239 7.85156C113.019 7.85156 113.651 8.48375 113.651 9.26359Z" fill="#00E6FF"/>
<path d="M124.434 9.26359C124.434 10.0434 123.802 10.6756 123.022 10.6756C122.242 10.6756 121.61 10.0434 121.61 9.26359C121.61 8.48375 122.242 7.85156 123.022 7.85156C123.802 7.85156 124.434 8.48375 124.434 9.26359Z" fill="#00E6FF"/>
<path d="M243 9.26359C243 10.0434 242.368 10.6756 241.588 10.6756C240.808 10.6756 240.176 10.0434 240.176 9.26359C240.176 8.48375 240.808 7.85156 241.588 7.85156C242.368 7.85156 243 8.48375 243 9.26359Z" fill="#00E6FF"/>
<path d="M5.82406 9.26384C5.82406 10.0437 5.19187 10.6759 4.41203 10.6759C3.63219 10.6759 3 10.0437 3 9.26384C3 8.48399 3.63219 7.85181 4.41203 7.85181C5.19187 7.85181 5.82406 8.48399 5.82406 9.26384Z" fill="#00E6FF"/>
<path d="M124.434 9.26359C124.434 10.0434 123.802 10.6756 123.022 10.6756C122.242 10.6756 121.61 10.0434 121.61 9.26359C121.61 8.48375 122.242 7.85156 123.022 7.85156C123.802 7.85156 124.434 8.48375 124.434 9.26359Z" fill="#00E6FF"/>
<path d="M232.068 9.26359C232.068 10.0434 231.436 10.6756 230.656 10.6756C229.876 10.6756 229.244 10.0434 229.244 9.26359C229.244 8.48375 229.876 7.85156 230.656 7.85156C231.436 7.85156 232.068 8.48375 232.068 9.26359Z" fill="#00E6FF"/>
<path d="M178.386 9.26359C178.386 10.0434 177.754 10.6756 176.974 10.6756C176.195 10.6756 175.562 10.0434 175.562 9.26359C175.562 8.48375 176.195 7.85156 176.974 7.85156C177.754 7.85156 178.386 8.48375 178.386 9.26359Z" fill="#00E6FF"/>
<path d="M189.169 9.26359C189.169 10.0434 188.537 10.6756 187.757 10.6756C186.977 10.6756 186.345 10.0434 186.345 9.26359C186.345 8.48375 186.977 7.85156 187.757 7.85156C188.537 7.85156 189.169 8.48375 189.169 9.26359Z" fill="#00E6FF"/>
<path d="M199.952 9.26359C199.952 10.0434 199.32 10.6756 198.54 10.6756C197.76 10.6756 197.128 10.0434 197.128 9.26359C197.128 8.48375 197.76 7.85156 198.54 7.85156C199.32 7.85156 199.952 8.48375 199.952 9.26359Z" fill="#00E6FF"/>
<path d="M221.517 9.26359C221.517 10.0434 220.885 10.6756 220.105 10.6756C219.325 10.6756 218.693 10.0434 218.693 9.26359C218.693 8.48375 219.325 7.85156 220.105 7.85156C220.885 7.85156 221.517 8.48375 221.517 9.26359Z" fill="#00E6FF"/>
<path d="M210.734 9.26359C210.734 10.0434 210.102 10.6756 209.322 10.6756C208.543 10.6756 207.91 10.0434 207.91 9.26359C207.91 8.48375 208.543 7.85156 209.322 7.85156C210.102 7.85156 210.734 8.48375 210.734 9.26359Z" fill="#00E6FF"/>
<path d="M232.3 41.5842C232.3 42.364 231.668 42.9962 230.888 42.9962C230.108 42.9962 229.476 42.364 229.476 41.5842C229.476 40.8043 230.108 40.1721 230.888 40.1721C231.668 40.1721 232.3 40.8043 232.3 41.5842Z" fill="#00E6FF"/>
<path d="M146.038 41.5842C146.038 42.364 145.406 42.9962 144.626 42.9962C143.846 42.9962 143.214 42.364 143.214 41.5842C143.214 40.8043 143.846 40.1721 144.626 40.1721C145.406 40.1721 146.038 40.8043 146.038 41.5842Z" fill="#00E6FF"/>
<path d="M156.821 41.5842C156.821 42.364 156.189 42.9962 155.409 42.9962C154.629 42.9962 153.997 42.364 153.997 41.5842C153.997 40.8043 154.629 40.1721 155.409 40.1721C156.189 40.1721 156.821 40.8043 156.821 41.5842Z" fill="#00E6FF"/>
<path d="M167.604 41.5842C167.604 42.364 166.972 42.9962 166.192 42.9962C165.412 42.9962 164.78 42.364 164.78 41.5842C164.78 40.8043 165.412 40.1721 166.192 40.1721C166.972 40.1721 167.604 40.8043 167.604 41.5842Z" fill="#00E6FF"/>
<path d="M199.952 41.5842C199.952 42.364 199.32 42.9962 198.54 42.9962C197.76 42.9962 197.128 42.364 197.128 41.5842C197.128 40.8043 197.76 40.1721 198.54 40.1721C199.32 40.1721 199.952 40.8043 199.952 41.5842Z" fill="#00E6FF"/>
<path d="M221.517 41.5842C221.517 42.364 220.885 42.9962 220.105 42.9962C219.325 42.9962 218.693 42.364 218.693 41.5842C218.693 40.8043 219.325 40.1721 220.105 40.1721C220.885 40.1721 221.517 40.8043 221.517 41.5842Z" fill="#00E6FF"/>
<path d="M210.734 41.5842C210.734 42.364 210.102 42.9962 209.322 42.9962C208.543 42.9962 207.91 42.364 207.91 41.5842C207.91 40.8043 208.543 40.1721 209.322 40.1721C210.102 40.1721 210.734 40.8043 210.734 41.5842Z" fill="#00E6FF"/>
</g>
<defs>
<filter id="filter0_d_4700_26221" x="0" y="4.85156" width="246" height="41.1719" filterUnits="userSpaceOnUse" color-interpolation-filters="sRGB">
<feFlood flood-opacity="0" result="BackgroundImageFix"/>
<feColorMatrix in="SourceAlpha" type="matrix" values="0 0 0 0 0 0 0 0 0 0 0 0 0 0 0 0 0 0 127 0" result="hardAlpha"/>
<feOffset/>
<feGaussianBlur stdDeviation="1.5"/>
<feComposite in2="hardAlpha" operator="out"/>
<feColorMatrix type="matrix" values="0 0 0 0 0 0 0 0 0 0.898039 0 0 0 0 1 0 0 0 1 0"/>
<feBlend mode="normal" in2="BackgroundImageFix" result="effect1_dropShadow_4700_26221"/>
<feBlend mode="normal" in="SourceGraphic" in2="effect1_dropShadow_4700_26221" result="shape"/>
</filter>
<linearGradient id="paint0_linear_4700_26221" x1="122.793" y1="65.1875" x2="122.793" y2="-59.7006" gradientUnits="userSpaceOnUse">
<stop stop-color="#00E5FF"/>
<stop offset="0.35" stop-color="white"/>
</linearGradient>
<linearGradient id="paint1_linear_4700_26221" x1="122.793" y1="65.1875" x2="122.793" y2="-59.7006" gradientUnits="userSpaceOnUse">
<stop stop-color="#00E5FF"/>
<stop offset="0.35" stop-color="white"/>
</linearGradient>
<linearGradient id="paint2_linear_4700_26221" x1="122.793" y1="65.1875" x2="122.793" y2="-59.7006" gradientUnits="userSpaceOnUse">
<stop stop-color="#00E5FF"/>
<stop offset="0.35" stop-color="white"/>
</linearGradient>
<linearGradient id="paint3_linear_4700_26221" x1="122.793" y1="65.1875" x2="122.793" y2="-59.7006" gradientUnits="userSpaceOnUse">
<stop stop-color="#00E5FF"/>
<stop offset="0.35" stop-color="white"/>
</linearGradient>
<linearGradient id="paint4_linear_4700_26221" x1="122.793" y1="65.1875" x2="122.793" y2="-59.7006" gradientUnits="userSpaceOnUse">
<stop stop-color="#00E5FF"/>
<stop offset="0.35" stop-color="white"/>
</linearGradient>
<linearGradient id="paint5_linear_4700_26221" x1="122.793" y1="65.1875" x2="122.793" y2="-59.7006" gradientUnits="userSpaceOnUse">
<stop stop-color="#00E5FF"/>
<stop offset="0.35" stop-color="white"/>
</linearGradient>
<linearGradient id="paint6_linear_4700_26221" x1="122.793" y1="65.1875" x2="122.793" y2="-59.7006" gradientUnits="userSpaceOnUse">
<stop stop-color="#00E5FF"/>
<stop offset="0.35" stop-color="white"/>
</linearGradient>
<linearGradient id="paint7_linear_4700_26221" x1="122.793" y1="65.1875" x2="122.793" y2="-59.7006" gradientUnits="userSpaceOnUse">
<stop stop-color="#00E5FF"/>
<stop offset="0.35" stop-color="white"/>
</linearGradient>
<linearGradient id="paint8_linear_4700_26221" x1="122.793" y1="65.1875" x2="122.793" y2="-59.7006" gradientUnits="userSpaceOnUse">
<stop stop-color="#00E5FF"/>
<stop offset="0.35" stop-color="white"/>
</linearGradient>
<linearGradient id="paint9_linear_4700_26221" x1="122.793" y1="65.1875" x2="122.793" y2="-59.7006" gradientUnits="userSpaceOnUse">
<stop stop-color="#00E5FF"/>
<stop offset="0.35" stop-color="white"/>
</linearGradient>
</defs>
</svg>
