<svg width="136" height="58" viewBox="0 0 136 58" fill="none" xmlns="http://www.w3.org/2000/svg">
<path d="M6.02635 35.223C4.8921 35.223 3.86386 34.9792 2.94162 34.4916C2.02998 33.9934 1.30915 33.3096 0.779132 32.4404C0.259711 31.5606 0 30.5694 0 29.467C0 28.3645 0.259711 27.3787 0.779132 26.5095C1.30915 25.6296 2.02998 24.9459 2.94162 24.4583C3.86386 23.96 4.8974 23.7109 6.04225 23.7109C7.00689 23.7109 7.87612 23.8805 8.64995 24.2198C9.43439 24.559 10.0916 25.0466 10.6216 25.6826L8.96797 27.2091C8.21534 26.3398 7.2825 25.9052 6.16945 25.9052C5.48042 25.9052 4.8656 26.0589 4.32498 26.3663C3.78436 26.6632 3.36034 27.0819 3.05293 27.6225C2.75611 28.1631 2.60771 28.7779 2.60771 29.467C2.60771 30.156 2.75611 30.7708 3.05293 31.3114C3.36034 31.8521 3.78436 32.2761 4.32498 32.5835C4.8656 32.8803 5.48042 33.0287 6.16945 33.0287C7.2825 33.0287 8.21534 32.5888 8.96797 31.709L10.6216 33.2354C10.0916 33.8821 9.43439 34.375 8.64995 34.7142C7.86552 35.0534 6.99099 35.223 6.02635 35.223Z" fill="white"/>
<path d="M19.4528 35.0322L17.3062 31.9316H14.937V35.0322H12.3611V23.9017H17.179C18.1649 23.9017 19.0182 24.0661 19.739 24.3947C20.4705 24.7233 21.0323 25.1897 21.4245 25.7939C21.8167 26.3981 22.0128 27.1137 22.0128 27.9405C22.0128 28.7673 21.8114 29.4829 21.4086 30.0871C21.0164 30.6807 20.4546 31.1365 19.7231 31.4546L22.2195 35.0322H19.4528ZM19.4051 27.9405C19.4051 27.3151 19.2037 26.8381 18.8009 26.5095C18.3981 26.1702 17.8098 26.0006 17.0359 26.0006H14.937V29.8804H17.0359C17.8098 29.8804 18.3981 29.7108 18.8009 29.3716C19.2037 29.0324 19.4051 28.5553 19.4051 27.9405Z" fill="white"/>
<path d="M29.444 35.223C28.2886 35.223 27.2444 34.9739 26.3116 34.4757C25.3894 33.9775 24.6632 33.2937 24.1332 32.4245C23.6138 31.5447 23.3541 30.5588 23.3541 29.467C23.3541 28.3751 23.6138 27.3946 24.1332 26.5254C24.6632 25.6455 25.3894 24.9565 26.3116 24.4583C27.2444 23.96 28.2886 23.7109 29.444 23.7109C30.5995 23.7109 31.6383 23.96 32.5606 24.4583C33.4828 24.9565 34.2089 25.6455 34.7389 26.5254C35.269 27.3946 35.534 28.3751 35.534 29.467C35.534 30.5588 35.269 31.5447 34.7389 32.4245C34.2089 33.2937 33.4828 33.9775 32.5606 34.4757C31.6383 34.9739 30.5995 35.223 29.444 35.223ZM29.444 33.0287C30.1013 33.0287 30.6949 32.8803 31.2249 32.5835C31.7549 32.2761 32.1683 31.8521 32.4652 31.3114C32.7726 30.7708 32.9263 30.156 32.9263 29.467C32.9263 28.7779 32.7726 28.1631 32.4652 27.6225C32.1683 27.0819 31.7549 26.6632 31.2249 26.3663C30.6949 26.0589 30.1013 25.9052 29.444 25.9052C28.7868 25.9052 28.1932 26.0589 27.6632 26.3663C27.1331 26.6632 26.7144 27.0819 26.407 27.6225C26.1102 28.1631 25.9618 28.7779 25.9618 29.467C25.9618 30.156 26.1102 30.7708 26.407 31.3114C26.7144 31.8521 27.1331 32.2761 27.6632 32.5835C28.1932 32.8803 28.7868 33.0287 29.444 33.0287Z" fill="white"/>
<path d="M53.9201 23.9017L50.2789 35.0322H47.5121L45.0634 27.4953L42.5352 35.0322H39.7844L36.1273 23.9017H38.7986L41.3109 31.7249L43.9345 23.9017H46.3196L48.8637 31.7885L51.4555 23.9017H53.9201Z" fill="white"/>
<path d="M65.5663 23.9017V35.0322H63.4515L57.9022 28.2744V35.0322H55.3581V23.9017H57.4888L63.0222 30.6595V23.9017H65.5663Z" fill="white"/>
<path d="M78.0296 35.223C76.8953 35.223 75.8671 34.9792 74.9449 34.4916C74.0332 33.9934 73.3124 33.3096 72.7824 32.4404C72.2629 31.5606 72.0032 30.5694 72.0032 29.467C72.0032 28.3645 72.2629 27.3787 72.7824 26.5095C73.3124 25.6296 74.0332 24.9459 74.9449 24.4583C75.8671 23.96 76.9006 23.7109 78.0455 23.7109C79.0101 23.7109 79.8794 23.8805 80.6532 24.2198C81.4376 24.559 82.0949 25.0466 82.6249 25.6826L80.9712 27.2091C80.2186 26.3398 79.2857 25.9052 78.1727 25.9052C77.4837 25.9052 76.8688 26.0589 76.3282 26.3663C75.7876 26.6632 75.3636 27.0819 75.0562 27.6225C74.7594 28.1631 74.6109 28.7779 74.6109 29.467C74.6109 30.156 74.7594 30.7708 75.0562 31.3114C75.3636 31.8521 75.7876 32.2761 76.3282 32.5835C76.8688 32.8803 77.4837 33.0287 78.1727 33.0287C79.2857 33.0287 80.2186 32.5888 80.9712 31.709L82.6249 33.2354C82.0949 33.8821 81.4376 34.375 80.6532 34.7142C79.8688 35.0534 78.9942 35.223 78.0296 35.223Z" fill="white"/>
<path d="M91.4772 32.6471H86.3095L85.3236 35.0322H82.6841L87.6451 23.9017H90.1892L95.1661 35.0322H92.463L91.4772 32.6471ZM90.6663 30.6913L88.9013 26.4299L87.1363 30.6913H90.6663Z" fill="white"/>
<path d="M99.9781 35.223C99.0982 35.223 98.2449 35.1064 97.4181 34.8732C96.6018 34.6294 95.9446 34.3167 95.4464 33.9351L96.3209 31.9952C96.798 32.345 97.3651 32.6259 98.0223 32.8379C98.6795 33.0499 99.3368 33.1559 99.994 33.1559C100.725 33.1559 101.266 33.0499 101.616 32.8379C101.966 32.6153 102.141 32.3238 102.141 31.9634C102.141 31.6984 102.035 31.4811 101.823 31.3114C101.621 31.1312 101.356 30.9881 101.028 30.8821C100.71 30.7761 100.275 30.6595 99.7237 30.5323C98.8756 30.3309 98.1813 30.1295 97.6407 29.9281C97.1001 29.7267 96.6336 29.4034 96.2414 28.9582C95.8598 28.5129 95.669 27.9193 95.669 27.1773C95.669 26.5307 95.8439 25.9476 96.1937 25.4282C96.5435 24.8982 97.0683 24.4795 97.7679 24.1721C98.4781 23.8646 99.342 23.7109 100.36 23.7109C101.07 23.7109 101.764 23.7957 102.443 23.9653C103.121 24.135 103.715 24.3788 104.224 24.6968L103.429 26.6526C102.4 26.0695 101.372 25.778 100.344 25.778C99.623 25.778 99.0876 25.8946 98.7378 26.1278C98.3986 26.361 98.229 26.6685 98.229 27.0501C98.229 27.4317 98.4251 27.7179 98.8173 27.9087C99.2201 28.0889 99.8297 28.2691 100.646 28.4493C101.494 28.6507 102.188 28.8521 102.729 29.0536C103.27 29.255 103.731 29.573 104.112 30.0076C104.504 30.4422 104.701 31.0305 104.701 31.7726C104.701 32.4086 104.52 32.9916 104.16 33.5216C103.81 34.0411 103.28 34.4545 102.57 34.7619C101.86 35.0693 100.996 35.223 99.9781 35.223Z" fill="white"/>
<path d="M106.461 23.9017H109.037V35.0322H106.461V23.9017Z" fill="white"/>
<path d="M121.886 23.9017V35.0322H119.772L114.222 28.2744V35.0322H111.678V23.9017H113.809L119.342 30.6595V23.9017H121.886Z" fill="white"/>
<path d="M129.91 35.223C128.755 35.223 127.71 34.9739 126.778 34.4757C125.855 33.9775 125.129 33.2937 124.599 32.4245C124.08 31.5447 123.82 30.5588 123.82 29.467C123.82 28.3751 124.08 27.3946 124.599 26.5254C125.129 25.6455 125.855 24.9565 126.778 24.4583C127.71 23.96 128.755 23.7109 129.91 23.7109C131.066 23.7109 132.104 23.96 133.027 24.4583C133.949 24.9565 134.675 25.6455 135.205 26.5254C135.735 27.3946 136 28.3751 136 29.467C136 30.5588 135.735 31.5447 135.205 32.4245C134.675 33.2937 133.949 33.9775 133.027 34.4757C132.104 34.9739 131.066 35.223 129.91 35.223ZM129.91 33.0287C130.567 33.0287 131.161 32.8803 131.691 32.5835C132.221 32.2761 132.634 31.8521 132.931 31.3114C133.239 30.7708 133.392 30.156 133.392 29.467C133.392 28.7779 133.239 28.1631 132.931 27.6225C132.634 27.0819 132.221 26.6632 131.691 26.3663C131.161 26.0589 130.567 25.9052 129.91 25.9052C129.253 25.9052 128.659 26.0589 128.129 26.3663C127.599 26.6632 127.18 27.0819 126.873 27.6225C126.576 28.1631 126.428 28.7779 126.428 29.467C126.428 30.156 126.576 30.7708 126.873 31.3114C127.18 31.8521 127.599 32.2761 128.129 32.5835C128.659 32.8803 129.253 33.0287 129.91 33.0287Z" fill="white"/>
<path d="M43.355 48.5974C42.4523 48.5974 41.6365 48.4028 40.9078 48.0136C40.1873 47.6244 39.62 47.0902 39.2059 46.4111C38.8001 45.7237 38.5972 44.9535 38.5972 44.1005C38.5972 43.2475 38.8001 42.4815 39.2059 41.8024C39.62 41.115 40.1873 40.5767 40.9078 40.1875C41.6365 39.7983 42.4523 39.6036 43.355 39.6036C44.2577 39.6036 45.0693 39.7983 45.7898 40.1875C46.5103 40.5767 47.0775 41.115 47.4916 41.8024C47.9057 42.4815 48.1127 43.2475 48.1127 44.1005C48.1127 44.9535 47.9057 45.7237 47.4916 46.4111C47.0775 47.0902 46.5103 47.6244 45.7898 48.0136C45.0693 48.4028 44.2577 48.5974 43.355 48.5974ZM43.355 46.8832C43.8684 46.8832 44.3322 46.7672 44.7463 46.5353C45.1604 46.2952 45.4833 45.9639 45.7152 45.5415C45.9554 45.1192 46.0755 44.6388 46.0755 44.1005C46.0755 43.5622 45.9554 43.0819 45.7152 42.6595C45.4833 42.2372 45.1604 41.9101 44.7463 41.6782C44.3322 41.438 43.8684 41.3179 43.355 41.3179C42.8415 41.3179 42.3777 41.438 41.9637 41.6782C41.5496 41.9101 41.2225 42.2372 40.9823 42.6595C40.7504 43.0819 40.6345 43.5622 40.6345 44.1005C40.6345 44.6388 40.7504 45.1192 40.9823 45.5415C41.2225 45.9639 41.5496 46.2952 41.9637 46.5353C42.3777 46.7672 42.8415 46.8832 43.355 46.8832Z" fill="white"/>
<path d="M59.4637 39.7527V48.4484H57.8115L53.4761 43.1689V48.4484H51.4885V39.7527H53.1531L57.4761 45.0322V39.7527H59.4637Z" fill="white"/>
<path d="M63.3844 39.7527H65.3968V46.8086H69.7571V48.4484H63.3844V39.7527Z" fill="white"/>
<path d="M72.7449 39.7527H74.7573V48.4484H72.7449V39.7527Z" fill="white"/>
<path d="M86.6595 39.7527V48.4484H85.0073L80.6719 43.1689V48.4484H78.6843V39.7527H80.3489L84.6719 45.0322V39.7527H86.6595Z" fill="white"/>
<path d="M97.3131 46.8335V48.4484H90.5802V39.7527H97.1516V41.3676H92.5802V43.2558H96.6175V44.821H92.5802V46.8335H97.3131Z" fill="white"/>
<path d="M57.0143 5.89062C56.8183 5.89062 56.6267 5.94874 56.4638 6.05761C56.3009 6.16649 56.1739 6.32123 56.0989 6.50228C56.0239 6.68334 56.0042 6.88256 56.0425 7.07476C56.0807 7.26697 56.1751 7.44352 56.3136 7.58209C56.4522 7.72066 56.6288 7.81503 56.821 7.85326C57.0132 7.89149 57.2124 7.87187 57.3935 7.79687C57.5745 7.72188 57.7293 7.59488 57.8381 7.43194C57.947 7.269 58.0051 7.07743 58.0051 6.88146C58.0051 6.61867 57.9007 6.36665 57.7149 6.18083C57.5291 5.99502 57.2771 5.89062 57.0143 5.89062Z" fill="white"/>
<path d="M79.1166 7.86596C79.6599 7.86596 80.1003 7.42551 80.1003 6.8822C80.1003 6.33888 79.6599 5.89844 79.1166 5.89844C78.5733 5.89844 78.1328 6.33888 78.1328 6.8822C78.1328 7.42551 78.5733 7.86596 79.1166 7.86596Z" fill="white"/>
<path d="M68.0702 1.96749C68.2651 1.96889 68.456 1.91239 68.6187 1.80515C68.7814 1.69791 68.9086 1.54476 68.9841 1.36513C69.0597 1.1855 69.0802 0.987482 69.043 0.796187C69.0058 0.604893 68.9127 0.428943 68.7754 0.290653C68.6381 0.152363 68.4628 0.0579633 68.2718 0.0194275C68.0808 -0.0191082 67.8826 -4.41831e-05 67.7025 0.0742017C67.5223 0.148448 67.3682 0.27453 67.2598 0.436458C67.1514 0.598386 67.0935 0.788864 67.0935 0.983734C67.0935 1.24342 67.1962 1.49258 67.3792 1.67687C67.5621 1.86115 67.8105 1.96562 68.0702 1.96749ZM77.561 8.83965C76.6767 9.04286 75.8157 9.33696 74.9919 9.71725C73.9868 10.1997 73.0375 10.7906 72.1609 11.4795C71.5399 10.7165 71.0036 9.88832 70.5615 9.00951C69.856 7.50201 69.2599 5.94568 68.778 4.35258C68.7325 4.20213 68.6383 4.07108 68.5102 3.9801C68.382 3.88911 68.2272 3.84337 68.0702 3.85008C67.9132 3.84337 67.7584 3.88911 67.6303 3.9801C67.5021 4.07108 67.4079 4.20213 67.3625 4.35258C66.8819 5.94616 66.2858 7.50259 65.579 9.00951C65.1388 9.88728 64.6024 10.7133 63.9795 11.4724C63.0989 10.7913 62.1502 10.2031 61.1485 9.71725C60.3444 9.3428 59.5051 9.04883 58.6431 8.83965C58.5151 8.8089 58.381 8.81446 58.256 8.85572C58.131 8.89698 58.0199 8.9723 57.9354 9.07321C57.8493 9.17746 57.7949 9.30419 57.7786 9.43839C57.7623 9.57259 57.7848 9.70866 57.8434 9.83049C59.1852 12.8835 60.1364 16.0937 60.6743 19.385C60.703 19.5512 60.79 19.7016 60.9198 19.8093C61.0495 19.917 61.2135 19.9749 61.3821 19.9724H74.8291C74.9977 19.9749 75.1617 19.917 75.2914 19.8093C75.4212 19.7016 75.5082 19.5512 75.5369 19.385C76.0748 16.0937 77.026 12.8835 78.3678 9.83049C78.4264 9.70866 78.4489 9.57259 78.4326 9.43839C78.4163 9.30419 78.3619 9.17746 78.2758 9.07321C78.1907 8.97104 78.0784 8.89494 77.952 8.85363C77.8256 8.81233 77.6901 8.80748 77.561 8.83965ZM63.0169 17.651C62.8613 17.6524 62.7087 17.6075 62.5786 17.5221C62.4485 17.4366 62.3467 17.3144 62.2861 17.171C62.2256 17.0276 62.209 16.8694 62.2385 16.7166C62.268 16.5637 62.3423 16.4231 62.4519 16.3125C62.5614 16.2019 62.7014 16.1264 62.854 16.0955C63.0066 16.0646 63.1649 16.0797 63.3088 16.139C63.4528 16.1982 63.5759 16.2989 63.6626 16.4282C63.7492 16.5576 63.7955 16.7098 63.7955 16.8654C63.7955 17.0726 63.7137 17.2713 63.5679 17.4184C63.4221 17.5656 63.2241 17.6492 63.0169 17.651ZM68.0773 17.651C67.8827 17.6325 67.702 17.5421 67.5705 17.3975C67.439 17.2529 67.3662 17.0644 67.3662 16.869C67.3662 16.6735 67.439 16.4851 67.5705 16.3405C67.702 16.1958 67.8827 16.1054 68.0773 16.0869C68.2719 16.1054 68.4525 16.1958 68.584 16.3405C68.7155 16.4851 68.7884 16.6735 68.7884 16.869C68.7884 17.0644 68.7155 17.2529 68.584 17.3975C68.4525 17.5421 68.2719 17.6325 68.0773 17.651ZM73.1447 17.651C72.989 17.6524 72.8365 17.6075 72.7063 17.5221C72.5762 17.4366 72.4744 17.3144 72.4139 17.171C72.3533 17.0276 72.3368 16.8694 72.3663 16.7166C72.3958 16.5637 72.47 16.4231 72.5796 16.3125C72.6892 16.2019 72.8292 16.1264 72.9817 16.0955C73.1343 16.0646 73.2926 16.0797 73.4366 16.139C73.5806 16.1982 73.7037 16.2989 73.7903 16.4282C73.877 16.5576 73.9232 16.7098 73.9232 16.8654C73.9232 17.0726 73.8414 17.2713 73.6956 17.4184C73.5498 17.5656 73.3518 17.6492 73.1447 17.651Z" fill="white"/>
<path fill-rule="evenodd" clip-rule="evenodd" d="M7.375 43.9719C7.375 43.7742 7.44044 43.5846 7.55692 43.4449C7.6734 43.3051 7.83139 43.2266 7.99612 43.2266H30.3564C30.5211 43.2266 30.6791 43.3051 30.7956 43.4449C30.9121 43.5846 30.9775 43.7742 30.9775 43.9719C30.9775 44.1696 30.9121 44.3592 30.7956 44.4989C30.6791 44.6387 30.5211 44.7172 30.3564 44.7172H7.99612C7.83139 44.7172 7.6734 44.6387 7.55692 44.4989C7.44044 44.3592 7.375 44.1696 7.375 43.9719Z" fill="white"/>
<path fill-rule="evenodd" clip-rule="evenodd" d="M105.016 43.9719C105.016 43.7742 105.081 43.5846 105.198 43.4449C105.314 43.3051 105.472 43.2266 105.637 43.2266H127.997C128.162 43.2266 128.32 43.3051 128.436 43.4449C128.553 43.5846 128.618 43.7742 128.618 43.9719C128.618 44.1696 128.553 44.3592 128.436 44.4989C128.32 44.6387 128.162 44.7172 127.997 44.7172H105.637C105.472 44.7172 105.314 44.6387 105.198 44.4989C105.081 44.3592 105.016 44.1696 105.016 43.9719Z" fill="white"/>
</svg>
