<svg width="68" height="36" viewBox="0 0 68 36" fill="none" xmlns="http://www.w3.org/2000/svg">
<path d="M12.2115 24.5424H12.8785L12.6063 27.9866H12.0617C11.8711 27.1516 11.499 26.4937 10.9454 26.0126C10.4009 25.5316 9.73836 25.2911 8.95785 25.2911C8.42239 25.2911 7.94591 25.4 7.52843 25.6179C7.11095 25.8266 6.757 26.1306 6.46658 26.53C6.18523 26.9202 5.96742 27.4012 5.81313 27.973C5.66792 28.5357 5.59531 29.171 5.59531 29.8789C5.59531 31.2856 5.8812 32.3702 6.45297 33.1325C7.03381 33.8858 7.88692 34.2624 9.01231 34.2624C9.91987 34.2624 10.6686 34.0174 11.2585 33.5273C11.8575 33.0372 12.2841 32.3066 12.5382 31.3355H13.1372V35.0248H12.4974L12.3068 33.9493C11.3085 34.7571 10.0969 35.1609 8.67197 35.1609C7.84608 35.1609 7.09734 35.0384 6.42574 34.7934C5.75414 34.5483 5.18237 34.2034 4.71044 33.7587C4.2385 33.305 3.87094 32.7559 3.60774 32.1115C3.35362 31.4671 3.22656 30.7501 3.22656 29.9606C3.22656 29.1347 3.3627 28.3814 3.63497 27.7007C3.90724 27.02 4.28842 26.4347 4.7785 25.9446C5.27767 25.4545 5.86758 25.0779 6.54826 24.8147C7.23801 24.5424 8.00037 24.4062 8.83533 24.4062C9.38895 24.4062 9.90626 24.4834 10.3873 24.6377C10.8683 24.792 11.3901 25.0415 11.9528 25.3864L12.2115 24.5424Z" fill="url(#paint0_linear_1679_68960)"/>
<path d="M20.6143 31.8528H16.7617C16.3351 32.8149 16.1219 33.4819 16.1219 33.854C16.1219 34.1263 16.2217 34.2987 16.4214 34.3713C16.6301 34.4439 16.9387 34.4803 17.3471 34.4803V35.0248H13.617V34.4803C13.8348 34.453 14.0208 34.4167 14.1751 34.3713C14.3385 34.326 14.4792 34.2624 14.5971 34.1808C14.7242 34.0991 14.8331 33.9947 14.9239 33.8676C15.0146 33.7315 15.1008 33.5681 15.1825 33.3776L18.7629 24.4062H19.7703L23.0239 32.3565C23.2145 32.8194 23.3733 33.1824 23.5004 33.4456C23.6365 33.7088 23.7772 33.913 23.9224 34.0582C24.0767 34.1944 24.2491 34.2897 24.4397 34.3441C24.6394 34.3986 24.8935 34.4394 25.2021 34.4666V35.0248H20.0562V34.4666C20.4918 34.4485 20.8049 34.4031 20.9955 34.3305C21.1861 34.2579 21.2814 34.1127 21.2814 33.8949C21.2814 33.7678 21.2496 33.6044 21.1861 33.4048C21.1226 33.2051 21.0363 32.9601 20.9274 32.6697L20.6143 31.8528ZM17.0748 31.036H20.3148L18.7493 26.9111H18.6948L17.0748 31.036Z" fill="url(#paint1_linear_1679_68960)"/>
<path d="M25.5369 31.5533H26.0678C26.1949 32.4155 26.5397 33.0962 27.1024 33.5954C27.6651 34.0855 28.3594 34.3305 29.1853 34.3305C29.5211 34.3305 29.8297 34.2897 30.111 34.208C30.3924 34.1263 30.6329 34.0129 30.8325 33.8676C31.0322 33.7134 31.1865 33.5364 31.2954 33.3367C31.4043 33.128 31.4588 32.8965 31.4588 32.6424C31.4588 32.4246 31.4225 32.2386 31.3499 32.0843C31.2863 31.9209 31.1593 31.7666 30.9687 31.6214C30.7781 31.4671 30.5149 31.3128 30.1791 31.1586C29.8524 31.0043 29.4258 30.8273 28.8994 30.6276C27.8376 30.2192 27.0525 29.7473 26.5443 29.2118C26.036 28.6673 25.7819 28.0274 25.7819 27.2923C25.7819 26.8658 25.8636 26.4755 26.027 26.1216C26.1903 25.7676 26.4172 25.4636 26.7076 25.2094C27.0071 24.9553 27.3611 24.7602 27.7695 24.6241C28.187 24.4789 28.6453 24.4062 29.1445 24.4062C29.6073 24.4062 30.043 24.4789 30.4514 24.6241C30.8598 24.7693 31.2636 24.9871 31.663 25.2775L31.908 24.5968H32.2347L32.3845 27.5374H31.8535C31.6357 26.7932 31.2954 26.2259 30.8325 25.8357C30.3697 25.4363 29.8342 25.2367 29.2261 25.2367C28.6635 25.2367 28.2051 25.3773 27.8512 25.6587C27.5063 25.931 27.3339 26.2849 27.3339 26.7205C27.3339 26.9111 27.3656 27.0836 27.4292 27.2379C27.4927 27.3831 27.6107 27.5237 27.7831 27.6599C27.9555 27.796 28.1915 27.9367 28.491 28.0819C28.7905 28.218 29.1762 28.3723 29.6482 28.5448C30.2835 28.7898 30.8235 29.0394 31.2682 29.2935C31.722 29.5385 32.0895 29.8063 32.3709 30.0967C32.6613 30.378 32.8746 30.6775 33.0107 30.9952C33.1468 31.3128 33.2149 31.6623 33.2149 32.0434C33.2149 32.5063 33.1151 32.9283 32.9154 33.3095C32.7157 33.6907 32.4344 34.0174 32.0714 34.2897C31.7174 34.5619 31.2909 34.7752 30.7917 34.9295C30.3016 35.0838 29.7571 35.1609 29.1581 35.1609C28.6135 35.1609 28.1234 35.0883 27.6878 34.9431C27.2522 34.7888 26.8029 34.5438 26.3401 34.208L26.0678 35.0248H25.7411L25.5369 31.5533Z" fill="url(#paint2_linear_1679_68960)"/>
<path d="M39.1788 35.0248H34.3188V34.4803C34.6273 34.4712 34.8724 34.4439 35.0539 34.3986C35.2445 34.3441 35.3897 34.2488 35.4895 34.1127C35.5894 33.9766 35.6574 33.786 35.6937 33.5409C35.73 33.2868 35.7482 32.9465 35.7482 32.5199V27.0473C35.7482 26.6661 35.73 26.353 35.6937 26.1079C35.6665 25.8538 35.6075 25.6542 35.5168 25.5089C35.426 25.3637 35.2944 25.2639 35.122 25.2094C34.9586 25.1459 34.7362 25.1051 34.4549 25.0869V24.5424H39.0427V25.0869C38.7613 25.1051 38.5344 25.1459 38.362 25.2094C38.1986 25.2639 38.0716 25.3637 37.9808 25.5089C37.89 25.6542 37.8265 25.8538 37.7902 26.1079C37.763 26.353 37.7494 26.6661 37.7494 27.0473V32.5199C37.7494 32.9465 37.763 33.2868 37.7902 33.5409C37.8265 33.786 37.8946 33.9766 37.9944 34.1127C38.1033 34.2488 38.2485 34.3441 38.43 34.3986C38.6206 34.4439 38.8702 34.4712 39.1788 34.4803V35.0248Z" fill="url(#paint3_linear_1679_68960)"/>
<path d="M48.786 35.1609L42.7552 26.5708H42.7008V32.4246C42.7008 32.8784 42.7144 33.2369 42.7416 33.5001C42.7779 33.7633 42.846 33.9675 42.9458 34.1127C43.0547 34.2579 43.1999 34.3532 43.3814 34.3986C43.572 34.4439 43.8171 34.4712 44.1166 34.4803V35.0248H40.0733V34.4803C40.4091 34.4712 40.6769 34.4439 40.8765 34.3986C41.0853 34.3441 41.2441 34.2488 41.353 34.1127C41.471 33.9766 41.5481 33.786 41.5844 33.5409C41.6208 33.2868 41.6389 32.9465 41.6389 32.5199V27.0473C41.6389 26.6661 41.6208 26.353 41.5844 26.1079C41.5481 25.8538 41.4801 25.6542 41.3802 25.5089C41.2804 25.3637 41.1352 25.2639 40.9446 25.2094C40.7631 25.1459 40.5181 25.1051 40.2095 25.0869V24.5424H44.0077L49.4939 32.411H49.5484V27.1426C49.5484 26.6979 49.5302 26.3439 49.4939 26.0807C49.4667 25.8084 49.3986 25.5997 49.2897 25.4545C49.1899 25.3093 49.0447 25.214 48.8541 25.1686C48.6726 25.1232 48.432 25.096 48.1325 25.0869V24.5424H52.1758V25.0869C51.84 25.096 51.5677 25.1278 51.359 25.1822C51.1593 25.2276 51.0005 25.3184 50.8825 25.4545C50.7736 25.5906 50.701 25.7858 50.6647 26.0399C50.6284 26.294 50.6102 26.6298 50.6102 27.0473V35.1609H48.786Z" fill="url(#paint4_linear_1679_68960)"/>
<path d="M58.707 24.4062C59.5238 24.4062 60.2861 24.5469 60.994 24.8283C61.7019 25.1096 62.3145 25.4953 62.8319 25.9854C63.3582 26.4755 63.7712 27.0518 64.0707 27.7143C64.3702 28.3769 64.5199 29.0938 64.5199 29.8653C64.5199 30.6004 64.3656 31.2902 64.0571 31.9345C63.7576 32.5789 63.3446 33.1416 62.8182 33.6226C62.3009 34.0945 61.6883 34.4712 60.9804 34.7525C60.2725 35.0248 59.5147 35.1609 58.707 35.1609C57.8992 35.1609 57.1414 35.0248 56.4335 34.7525C55.7256 34.4712 55.1084 34.0945 54.5821 33.6226C54.0557 33.1416 53.6427 32.5789 53.3432 31.9345C53.0437 31.2902 52.894 30.6004 52.894 29.8653C52.894 29.0938 53.0437 28.3769 53.3432 27.7143C53.6427 27.0518 54.0511 26.4755 54.5684 25.9854C55.0948 25.4953 55.712 25.1096 56.4199 24.8283C57.1278 24.5469 57.8901 24.4062 58.707 24.4062ZM58.707 34.276C59.2333 34.276 59.7098 34.1762 60.1364 33.9766C60.5629 33.7678 60.926 33.4774 61.2255 33.1053C61.525 32.7241 61.7518 32.2658 61.9061 31.7303C62.0695 31.1858 62.1512 30.5777 62.1512 29.9061C62.1512 29.1982 62.0695 28.5629 61.9061 28.0002C61.7518 27.4285 61.525 26.9429 61.2255 26.5436C60.926 26.1352 60.5629 25.8266 60.1364 25.6179C59.7098 25.4 59.2333 25.2911 58.707 25.2911C58.1715 25.2911 57.6905 25.4 57.2639 25.6179C56.8464 25.8266 56.4879 26.1352 56.1885 26.5436C55.889 26.9429 55.6575 27.4285 55.4942 28.0002C55.3399 28.5629 55.2627 29.1982 55.2627 29.9061C55.2627 30.5777 55.3399 31.1858 55.4942 31.7303C55.6575 32.2658 55.889 32.7241 56.1885 33.1053C56.4879 33.4774 56.8464 33.7678 57.2639 33.9766C57.6905 34.1762 58.1715 34.276 58.707 34.276Z" fill="url(#paint5_linear_1679_68960)"/>
<path d="M6.43239 9.87386C7.52147 9.87386 8.39784 9.83983 9.0615 9.77176C9.72515 9.70369 10.2357 9.56756 10.593 9.36335C10.9674 9.14213 11.2312 8.82732 11.3843 8.41892C11.5375 8.01051 11.6566 7.45746 11.7417 6.75977H12.6861V14.2387H11.7417C11.6396 13.558 11.5034 13.0135 11.3333 12.6051C11.1631 12.1967 10.8908 11.8904 10.5164 11.6862C10.1421 11.4649 9.63156 11.3288 8.98492 11.2778C8.3553 11.2097 7.50445 11.1757 6.43239 11.1757V16.4339C6.43239 16.9784 6.50045 17.4379 6.63659 17.8122C6.78974 18.1866 7.03649 18.4929 7.37682 18.7312C7.71716 18.9524 8.16811 19.114 8.72967 19.2161C9.29122 19.3012 9.98041 19.3438 10.7972 19.3438C11.7672 19.3438 12.584 19.2757 13.2477 19.1396C13.9283 19.0034 14.4899 18.7652 14.9323 18.4249C15.3748 18.0845 15.7321 17.6336 16.0044 17.072C16.2767 16.4934 16.5064 15.7702 16.6936 14.9024H17.7146L17.3062 20.7477H0V19.7266C0.561558 19.7096 1.02101 19.6586 1.37837 19.5735C1.73572 19.4884 2.00799 19.3438 2.19518 19.1396C2.38237 18.9354 2.50999 18.6461 2.57806 18.2717C2.64613 17.8973 2.68016 17.4123 2.68016 16.8168V5.02405C2.68016 4.42846 2.64613 3.95198 2.57806 3.59463C2.52701 3.22026 2.4164 2.93097 2.24623 2.72677C2.07606 2.50555 1.82932 2.3609 1.506 2.29283C1.19969 2.20775 0.791286 2.14819 0.280779 2.11416V1.09314H16.4128L16.5915 6.09611H15.4939C15.3918 5.3814 15.2301 4.79432 15.0089 4.33486C14.7877 3.85839 14.4814 3.48402 14.09 3.21175C13.6986 2.92246 13.1881 2.72677 12.5585 2.62466C11.9459 2.50555 11.1886 2.44599 10.2867 2.44599H7.40235C6.95991 2.44599 6.68764 2.50555 6.58554 2.62466C6.48344 2.72677 6.43239 2.98202 6.43239 3.39043V9.87386Z" fill="url(#paint6_linear_1679_68960)"/>
<path d="M36.4673 6.55557C36.4673 8.39339 35.7526 9.79729 34.3232 10.7672C32.8938 11.7202 30.8177 12.1967 28.095 12.1967H25.9254V16.6891C25.9254 17.3358 25.9679 17.8633 26.053 18.2717C26.1381 18.6631 26.3168 18.9694 26.589 19.1906C26.8613 19.4118 27.2357 19.5565 27.7121 19.6245C28.1886 19.6926 28.8268 19.7266 29.6265 19.7266V20.7477H19.493V19.7266C20.0545 19.7096 20.514 19.6586 20.8714 19.5735C21.2287 19.4884 21.501 19.3438 21.6882 19.1396C21.8753 18.9354 22.003 18.6461 22.071 18.2717C22.1391 17.8973 22.1731 17.4123 22.1731 16.8168V5.02405C22.1731 4.42846 22.1391 3.95198 22.071 3.59463C22.02 3.22026 21.9094 2.93097 21.7392 2.72677C21.569 2.50555 21.3223 2.3609 20.999 2.29283C20.6927 2.20775 20.2843 2.14819 19.7738 2.11416V1.09314H28.6055C31.1921 1.09314 33.149 1.5526 34.4764 2.47151C35.8037 3.39042 36.4673 4.75178 36.4673 6.55557ZM25.9254 10.6651H27.5845C29.2352 10.6651 30.4434 10.3333 31.2091 9.66966C31.9749 9.006 32.3578 7.95946 32.3578 6.53004C32.3578 5.25377 32.0344 4.26679 31.3878 3.5691C30.7411 2.87141 29.7286 2.52256 28.3503 2.52256H26.3848C26.0785 2.52256 25.9254 2.66721 25.9254 2.95649V10.6651Z" fill="url(#paint7_linear_1679_68960)"/>
<path d="M46.9275 20.7477H37.815V19.7266C38.3936 19.7096 38.853 19.6586 39.1934 19.5735C39.5507 19.4714 39.823 19.2927 40.0102 19.0375C40.1974 18.7822 40.325 18.4249 40.3931 17.9654C40.4611 17.4889 40.4952 16.8508 40.4952 16.051V5.78981C40.4952 5.0751 40.4611 4.48801 40.3931 4.02856C40.342 3.55209 40.2314 3.17771 40.0612 2.90544C39.8911 2.63317 39.6443 2.44599 39.321 2.34389C39.0147 2.22477 38.5978 2.14819 38.0702 2.11416V1.09314H46.6723V2.11416C46.1448 2.14819 45.7193 2.22477 45.396 2.34389C45.0897 2.44599 44.8515 2.63317 44.6813 2.90544C44.5111 3.17771 44.392 3.55209 44.324 4.02856C44.2729 4.48801 44.2474 5.0751 44.2474 5.78981V16.051C44.2474 16.8508 44.2729 17.4889 44.324 17.9654C44.392 18.4249 44.5196 18.7822 44.7068 19.0375C44.911 19.2927 45.1833 19.4714 45.5236 19.5735C45.881 19.6586 46.349 19.7096 46.9275 19.7266V20.7477Z" fill="url(#paint8_linear_1679_68960)"/>
<path d="M65.6362 1.09314H66.887L66.3764 7.55106H65.3554C64.9981 5.9855 64.3004 4.75178 63.2624 3.84988C62.2414 2.94798 60.9991 2.49704 59.5357 2.49704C58.5317 2.49704 57.6383 2.70124 56.8555 3.10965C56.0727 3.50103 55.4091 4.0711 54.8645 4.81984C54.337 5.55157 53.9286 6.45347 53.6393 7.52553C53.367 8.58058 53.2309 9.77176 53.2309 11.0991C53.2309 13.7367 53.7669 15.7702 54.839 17.1996C55.9281 18.612 57.5277 19.3182 59.6378 19.3182C61.3395 19.3182 62.7433 18.8588 63.8494 17.9399C64.9726 17.021 65.7724 15.6511 66.2488 13.8303H67.3719V20.7477H66.1722L65.8149 18.7312C63.943 20.2457 61.6713 21.0029 58.9996 21.0029C57.4511 21.0029 56.0472 20.7732 54.788 20.3137C53.5287 19.8543 52.4566 19.2076 51.5718 18.3738C50.6869 17.523 49.9977 16.4934 49.5042 15.2852C49.0277 14.077 48.7895 12.7327 48.7895 11.2522C48.7895 9.70369 49.0447 8.29129 49.5553 7.01502C50.0658 5.73876 50.7805 4.64117 51.6994 3.72225C52.6353 2.80334 53.7414 2.09714 55.0177 1.60365C56.311 1.09314 57.7404 0.837891 59.3059 0.837891C60.344 0.837891 61.3139 0.982534 62.2158 1.27182C63.1177 1.56111 64.0962 2.02907 65.1512 2.67572L65.6362 1.09314Z" fill="url(#paint9_linear_1679_68960)"/>
<defs>
<linearGradient id="paint0_linear_1679_68960" x1="2.37413" y1="29.9198" x2="65.3364" y2="29.9198" gradientUnits="userSpaceOnUse">
<stop stop-color="#FAF3DC"/>
<stop offset="0.0371" stop-color="#F0E6C5"/>
<stop offset="0.0852" stop-color="#E6D9AD"/>
<stop offset="0.1301" stop-color="#E0D19F"/>
<stop offset="0.1684" stop-color="#DECE9A"/>
<stop offset="0.352" stop-color="#FAF3DC"/>
<stop offset="0.3973" stop-color="#F6EED5"/>
<stop offset="0.4622" stop-color="#EAE0C2"/>
<stop offset="0.539" stop-color="#D6C9A3"/>
<stop offset="0.6241" stop-color="#BCA978"/>
<stop offset="0.6786" stop-color="#A89259"/>
<stop offset="0.6939" stop-color="#836B31"/>
<stop offset="1" stop-color="#FAF3DE"/>
</linearGradient>
<linearGradient id="paint1_linear_1679_68960" x1="2.37413" y1="29.9198" x2="65.3364" y2="29.9198" gradientUnits="userSpaceOnUse">
<stop stop-color="#FAF3DC"/>
<stop offset="0.0371" stop-color="#F0E6C5"/>
<stop offset="0.0852" stop-color="#E6D9AD"/>
<stop offset="0.1301" stop-color="#E0D19F"/>
<stop offset="0.1684" stop-color="#DECE9A"/>
<stop offset="0.352" stop-color="#FAF3DC"/>
<stop offset="0.3973" stop-color="#F6EED5"/>
<stop offset="0.4622" stop-color="#EAE0C2"/>
<stop offset="0.539" stop-color="#D6C9A3"/>
<stop offset="0.6241" stop-color="#BCA978"/>
<stop offset="0.6786" stop-color="#A89259"/>
<stop offset="0.6939" stop-color="#836B31"/>
<stop offset="1" stop-color="#FAF3DE"/>
</linearGradient>
<linearGradient id="paint2_linear_1679_68960" x1="2.37413" y1="29.9198" x2="65.3364" y2="29.9198" gradientUnits="userSpaceOnUse">
<stop stop-color="#FAF3DC"/>
<stop offset="0.0371" stop-color="#F0E6C5"/>
<stop offset="0.0852" stop-color="#E6D9AD"/>
<stop offset="0.1301" stop-color="#E0D19F"/>
<stop offset="0.1684" stop-color="#DECE9A"/>
<stop offset="0.352" stop-color="#FAF3DC"/>
<stop offset="0.3973" stop-color="#F6EED5"/>
<stop offset="0.4622" stop-color="#EAE0C2"/>
<stop offset="0.539" stop-color="#D6C9A3"/>
<stop offset="0.6241" stop-color="#BCA978"/>
<stop offset="0.6786" stop-color="#A89259"/>
<stop offset="0.6939" stop-color="#836B31"/>
<stop offset="1" stop-color="#FAF3DE"/>
</linearGradient>
<linearGradient id="paint3_linear_1679_68960" x1="2.37413" y1="29.9198" x2="65.3364" y2="29.9198" gradientUnits="userSpaceOnUse">
<stop stop-color="#FAF3DC"/>
<stop offset="0.0371" stop-color="#F0E6C5"/>
<stop offset="0.0852" stop-color="#E6D9AD"/>
<stop offset="0.1301" stop-color="#E0D19F"/>
<stop offset="0.1684" stop-color="#DECE9A"/>
<stop offset="0.352" stop-color="#FAF3DC"/>
<stop offset="0.3973" stop-color="#F6EED5"/>
<stop offset="0.4622" stop-color="#EAE0C2"/>
<stop offset="0.539" stop-color="#D6C9A3"/>
<stop offset="0.6241" stop-color="#BCA978"/>
<stop offset="0.6786" stop-color="#A89259"/>
<stop offset="0.6939" stop-color="#836B31"/>
<stop offset="1" stop-color="#FAF3DE"/>
</linearGradient>
<linearGradient id="paint4_linear_1679_68960" x1="2.37413" y1="29.9198" x2="65.3364" y2="29.9198" gradientUnits="userSpaceOnUse">
<stop stop-color="#FAF3DC"/>
<stop offset="0.0371" stop-color="#F0E6C5"/>
<stop offset="0.0852" stop-color="#E6D9AD"/>
<stop offset="0.1301" stop-color="#E0D19F"/>
<stop offset="0.1684" stop-color="#DECE9A"/>
<stop offset="0.352" stop-color="#FAF3DC"/>
<stop offset="0.3973" stop-color="#F6EED5"/>
<stop offset="0.4622" stop-color="#EAE0C2"/>
<stop offset="0.539" stop-color="#D6C9A3"/>
<stop offset="0.6241" stop-color="#BCA978"/>
<stop offset="0.6786" stop-color="#A89259"/>
<stop offset="0.6939" stop-color="#836B31"/>
<stop offset="1" stop-color="#FAF3DE"/>
</linearGradient>
<linearGradient id="paint5_linear_1679_68960" x1="2.37413" y1="29.9198" x2="65.3364" y2="29.9198" gradientUnits="userSpaceOnUse">
<stop stop-color="#FAF3DC"/>
<stop offset="0.0371" stop-color="#F0E6C5"/>
<stop offset="0.0852" stop-color="#E6D9AD"/>
<stop offset="0.1301" stop-color="#E0D19F"/>
<stop offset="0.1684" stop-color="#DECE9A"/>
<stop offset="0.352" stop-color="#FAF3DC"/>
<stop offset="0.3973" stop-color="#F6EED5"/>
<stop offset="0.4622" stop-color="#EAE0C2"/>
<stop offset="0.539" stop-color="#D6C9A3"/>
<stop offset="0.6241" stop-color="#BCA978"/>
<stop offset="0.6786" stop-color="#A89259"/>
<stop offset="0.6939" stop-color="#836B31"/>
<stop offset="1" stop-color="#FAF3DE"/>
</linearGradient>
<linearGradient id="paint6_linear_1679_68960" x1="-1.02978" y1="11.8139" x2="68.7392" y2="11.8139" gradientUnits="userSpaceOnUse">
<stop offset="0.0051" stop-color="#C0973C"/>
<stop offset="0.0154" stop-color="#C29B42"/>
<stop offset="0.0653" stop-color="#CBA95D"/>
<stop offset="0.1163" stop-color="#D1B470"/>
<stop offset="0.1687" stop-color="#D5BA7B"/>
<stop offset="0.2245" stop-color="#D6BC7F"/>
<stop offset="0.2991" stop-color="#D4B878"/>
<stop offset="0.4109" stop-color="#CDAD63"/>
<stop offset="0.5455" stop-color="#C29A42"/>
<stop offset="0.5663" stop-color="#C0973C"/>
<stop offset="0.5781" stop-color="#C8A453"/>
<stop offset="0.6" stop-color="#D4B977"/>
<stop offset="0.6248" stop-color="#DFCC97"/>
<stop offset="0.6521" stop-color="#E9DCB3"/>
<stop offset="0.683" stop-color="#F0E9C9"/>
<stop offset="0.7191" stop-color="#F6F3DA"/>
<stop offset="0.7637" stop-color="#FAFAE5"/>
<stop offset="0.8263" stop-color="#FCFEEC"/>
<stop offset="1" stop-color="#FDFFEE"/>
</linearGradient>
<linearGradient id="paint7_linear_1679_68960" x1="-1.02978" y1="11.8139" x2="68.7392" y2="11.8139" gradientUnits="userSpaceOnUse">
<stop offset="0.0051" stop-color="#C0973C"/>
<stop offset="0.0154" stop-color="#C29B42"/>
<stop offset="0.0653" stop-color="#CBA95D"/>
<stop offset="0.1163" stop-color="#D1B470"/>
<stop offset="0.1687" stop-color="#D5BA7B"/>
<stop offset="0.2245" stop-color="#D6BC7F"/>
<stop offset="0.2991" stop-color="#D4B878"/>
<stop offset="0.4109" stop-color="#CDAD63"/>
<stop offset="0.5455" stop-color="#C29A42"/>
<stop offset="0.5663" stop-color="#C0973C"/>
<stop offset="0.5781" stop-color="#C8A453"/>
<stop offset="0.6" stop-color="#D4B977"/>
<stop offset="0.6248" stop-color="#DFCC97"/>
<stop offset="0.6521" stop-color="#E9DCB3"/>
<stop offset="0.683" stop-color="#F0E9C9"/>
<stop offset="0.7191" stop-color="#F6F3DA"/>
<stop offset="0.7637" stop-color="#FAFAE5"/>
<stop offset="0.8263" stop-color="#FCFEEC"/>
<stop offset="1" stop-color="#FDFFEE"/>
</linearGradient>
<linearGradient id="paint8_linear_1679_68960" x1="-1.02978" y1="11.8139" x2="68.7392" y2="11.8139" gradientUnits="userSpaceOnUse">
<stop offset="0.0051" stop-color="#C0973C"/>
<stop offset="0.0154" stop-color="#C29B42"/>
<stop offset="0.0653" stop-color="#CBA95D"/>
<stop offset="0.1163" stop-color="#D1B470"/>
<stop offset="0.1687" stop-color="#D5BA7B"/>
<stop offset="0.2245" stop-color="#D6BC7F"/>
<stop offset="0.2991" stop-color="#D4B878"/>
<stop offset="0.4109" stop-color="#CDAD63"/>
<stop offset="0.5455" stop-color="#C29A42"/>
<stop offset="0.5663" stop-color="#C0973C"/>
<stop offset="0.5781" stop-color="#C8A453"/>
<stop offset="0.6" stop-color="#D4B977"/>
<stop offset="0.6248" stop-color="#DFCC97"/>
<stop offset="0.6521" stop-color="#E9DCB3"/>
<stop offset="0.683" stop-color="#F0E9C9"/>
<stop offset="0.7191" stop-color="#F6F3DA"/>
<stop offset="0.7637" stop-color="#FAFAE5"/>
<stop offset="0.8263" stop-color="#FCFEEC"/>
<stop offset="1" stop-color="#FDFFEE"/>
</linearGradient>
<linearGradient id="paint9_linear_1679_68960" x1="-1.02978" y1="11.8139" x2="68.7392" y2="11.8139" gradientUnits="userSpaceOnUse">
<stop offset="0.0051" stop-color="#C0973C"/>
<stop offset="0.0154" stop-color="#C29B42"/>
<stop offset="0.0653" stop-color="#CBA95D"/>
<stop offset="0.1163" stop-color="#D1B470"/>
<stop offset="0.1687" stop-color="#D5BA7B"/>
<stop offset="0.2245" stop-color="#D6BC7F"/>
<stop offset="0.2991" stop-color="#D4B878"/>
<stop offset="0.4109" stop-color="#CDAD63"/>
<stop offset="0.5455" stop-color="#C29A42"/>
<stop offset="0.5663" stop-color="#C0973C"/>
<stop offset="0.5781" stop-color="#C8A453"/>
<stop offset="0.6" stop-color="#D4B977"/>
<stop offset="0.6248" stop-color="#DFCC97"/>
<stop offset="0.6521" stop-color="#E9DCB3"/>
<stop offset="0.683" stop-color="#F0E9C9"/>
<stop offset="0.7191" stop-color="#F6F3DA"/>
<stop offset="0.7637" stop-color="#FAFAE5"/>
<stop offset="0.8263" stop-color="#FCFEEC"/>
<stop offset="1" stop-color="#FDFFEE"/>
</linearGradient>
</defs>
</svg>
