<svg width="190" height="18" viewBox="0 0 190 18" fill="none" xmlns="http://www.w3.org/2000/svg">
<path d="M26.6891 17.4506V3.69334H22.0215V0.548828H35.1154V3.69334H30.4478V17.4506H26.6891Z" fill="#CC2121"/>
<path d="M37.7686 17.4506V0.548828H43.8366C45.0321 0.548828 46.1213 0.708511 47.1039 1.02788C48.0866 1.34724 48.8727 1.8877 49.4623 2.64927C50.0519 3.41083 50.3467 4.459 50.3467 5.79378C50.3467 7.07943 50.0519 8.1317 49.4623 8.95058C48.8727 9.76128 48.0866 10.3632 47.1039 10.7562C46.1213 11.1411 45.0321 11.3335 43.8366 11.3335H41.5273V17.4506H37.7686ZM41.5273 8.36099H43.5295C45.6176 8.36099 46.6617 7.50525 46.6617 5.79378C46.6617 4.94214 46.3956 4.35255 45.8633 4.02499C45.331 3.69744 44.5531 3.53366 43.5295 3.53366H41.5273V8.36099ZM46.9442 17.4506L43.1364 10.3263L45.7528 7.94335L51.1205 17.4506H46.9442Z" fill="#CC2121"/>
<path d="M66.6097 17.4506H62.6422L61.5736 13.3848H56.3655L55.2969 17.4506H51.4768L56.7831 0.548828H61.2665L66.6097 17.4506ZM57.557 8.85232L57.1393 10.4614H60.7998L60.3821 8.85232C60.161 8.00068 59.9317 7.0999 59.6943 6.15C59.465 5.20009 59.2357 4.28294 59.0064 3.39855H58.9081C58.7034 4.29113 58.4823 5.21237 58.2448 6.16228C58.0074 7.104 57.7781 8.00068 57.557 8.85232Z" fill="#CC2121"/>
<path d="M68.4277 17.4506V0.548828H73.1936C74.9214 0.548828 76.4159 0.847721 77.677 1.44551C78.9462 2.0351 79.9248 2.94816 80.6127 4.18467C81.3087 5.413 81.6567 6.99345 81.6567 8.92602C81.6567 10.8586 81.3128 12.4554 80.6249 13.7165C79.9371 14.9776 78.9749 15.9152 77.7384 16.5294C76.5019 17.1435 75.0565 17.4506 73.4024 17.4506H68.4277ZM72.1863 14.4535H72.9602C73.9347 14.4535 74.7822 14.2774 75.5028 13.9253C76.2316 13.565 76.7967 12.9795 77.1979 12.1688C77.6074 11.3581 77.8121 10.2772 77.8121 8.92602C77.8121 7.57486 77.6074 6.51031 77.1979 5.73237C76.7967 4.94624 76.2316 4.3894 75.5028 4.06184C74.7822 3.7261 73.9347 3.55823 72.9602 3.55823H72.1863V14.4535Z" fill="#CC2121"/>
<path d="M97.8584 17.4506H93.8909L92.8222 13.3848H87.6141L86.5455 17.4506H82.7254L88.0318 0.548828H92.5151L97.8584 17.4506ZM88.8056 8.85232L88.388 10.4614H92.0484L91.6308 8.85232C91.4097 8.00068 91.1804 7.0999 90.9429 6.15C90.7136 5.20009 90.4843 4.28294 90.255 3.39855H90.1568C89.952 4.29113 89.7309 5.21237 89.4935 6.16228C89.256 7.104 89.0267 8.00068 88.8056 8.85232Z" fill="#CC2121"/>
<path d="M113.254 17.7581C111.829 17.7581 110.523 17.4306 109.336 16.7755C108.149 16.1204 107.195 15.1541 106.474 13.8766C105.761 12.591 105.405 11.0023 105.405 9.1107C105.405 7.71041 105.618 6.46161 106.044 5.36431C106.47 4.267 107.051 3.33757 107.788 2.57601C108.525 1.81445 109.373 1.23713 110.331 0.844067C111.289 0.442814 112.3 0.242188 113.365 0.242188C114.454 0.242188 115.428 0.455097 116.288 0.880917C117.156 1.30674 117.873 1.81854 118.438 2.41633L116.448 4.70101C116.03 4.31614 115.58 4.01724 115.097 3.80433C114.614 3.59142 114.069 3.48497 113.463 3.48497C112.677 3.48497 111.965 3.70607 111.326 4.14827C110.695 4.59046 110.192 5.221 109.815 6.03989C109.446 6.85877 109.262 7.83734 109.262 8.97559C109.262 10.728 109.639 12.0914 110.392 13.0659C111.146 14.0404 112.145 14.5276 113.389 14.5276C114.094 14.5276 114.72 14.4007 115.269 14.1468C115.817 13.8848 116.305 13.5204 116.73 13.0536L118.708 15.2769C117.979 16.1204 117.156 16.7468 116.239 17.1562C115.322 17.5575 114.327 17.7581 113.254 17.7581Z" fill="white"/>
<path d="M134.259 17.451H130.291L129.223 13.3853H124.014L122.946 17.451H119.126L124.432 0.549269H128.915L134.259 17.451ZM125.206 8.85276L124.788 10.4619H128.449L128.031 8.85276C127.81 8.00112 127.581 7.10034 127.343 6.15044C127.114 5.20053 126.885 4.28338 126.655 3.39899H126.557C126.352 4.29157 126.131 5.21282 125.894 6.16272C125.656 7.10444 125.427 8.00112 125.206 8.85276Z" fill="white"/>
<path d="M141.236 17.7581C140.097 17.7581 138.984 17.5575 137.895 17.1562C136.814 16.7468 135.843 16.1285 134.983 15.3015L136.986 12.8448C137.583 13.3853 138.267 13.8029 139.037 14.0977C139.815 14.3843 140.572 14.5276 141.309 14.5276C142.128 14.5276 142.738 14.3761 143.139 14.0731C143.549 13.7702 143.754 13.3607 143.754 12.8448C143.754 12.2962 143.528 11.8949 143.078 11.6411C142.628 11.3872 142.03 11.1047 141.285 10.7935L139.086 9.85998C138.505 9.61432 137.952 9.29086 137.428 8.88961C136.904 8.48016 136.478 7.97655 136.15 7.37876C135.823 6.77279 135.659 6.06036 135.659 5.24148C135.659 4.31614 135.917 3.47678 136.433 2.72341C136.949 1.96184 137.661 1.35996 138.57 0.917767C139.479 0.467381 140.515 0.242188 141.678 0.242188C142.693 0.242188 143.672 0.426436 144.613 0.794934C145.555 1.16343 146.374 1.67933 147.07 2.34263L145.105 4.79928C143.95 3.92307 142.808 3.48497 141.678 3.48497C141.006 3.48497 140.47 3.62009 140.069 3.89032C139.676 4.16055 139.479 4.54133 139.479 5.03266C139.479 5.56494 139.725 5.96619 140.216 6.23642C140.707 6.50665 141.326 6.78917 142.071 7.08397L144.22 7.94379C145.26 8.36961 146.079 8.94283 146.677 9.66345C147.283 10.3841 147.586 11.3504 147.586 12.5623C147.586 13.4958 147.336 14.3557 146.837 15.1418C146.337 15.9279 145.612 16.5626 144.663 17.0457C143.721 17.5206 142.579 17.7581 141.236 17.7581Z" fill="white"/>
<path d="M150.473 17.451V0.549269H154.231V17.451H150.473Z" fill="white"/>
<path d="M158.26 17.451V0.549269H162.129L166.613 9.06157C166.899 9.6266 167.182 10.2285 167.46 10.8672C167.747 11.4978 168.017 12.1283 168.271 12.7588H168.369C168.296 11.8663 168.197 10.8754 168.074 9.78628C167.96 8.68898 167.903 7.64081 167.903 6.64177V0.549269H171.489V17.451H167.645L163.137 8.95102C162.85 8.3778 162.567 7.77592 162.289 7.14538C162.019 6.51484 161.749 5.88021 161.478 5.24148H161.368C161.458 6.175 161.556 7.17404 161.663 8.23859C161.777 9.30314 161.835 10.3349 161.835 11.334V17.451H158.26Z" fill="white"/>
<path d="M182.348 17.7581C180.833 17.7581 179.498 17.406 178.343 16.7018C177.189 15.9975 176.288 14.9862 175.641 13.6678C175.002 12.3494 174.683 10.7689 174.683 8.92646C174.683 7.08397 175.002 5.5158 175.641 4.22197C176.288 2.92813 177.189 1.94137 178.343 1.2617C179.498 0.582025 180.833 0.242188 182.348 0.242188C183.863 0.242188 185.193 0.586119 186.34 1.27398C187.494 1.95366 188.391 2.94041 189.03 4.23425C189.677 5.52809 190 7.09215 190 8.92646C190 10.7689 189.677 12.3494 189.03 13.6678C188.391 14.9862 187.494 15.9975 186.34 16.7018C185.193 17.406 183.863 17.7581 182.348 17.7581ZM182.348 14.5276C183.519 14.5276 184.448 14.024 185.136 13.0168C185.824 12.0014 186.168 10.6379 186.168 8.92646C186.168 7.21499 185.824 5.88021 185.136 4.92211C184.448 3.96402 183.519 3.48497 182.348 3.48497C181.185 3.48497 180.259 3.96402 179.572 4.92211C178.884 5.88021 178.54 7.21499 178.54 8.92646C178.54 10.6379 178.884 12.0014 179.572 13.0168C180.259 14.024 181.185 14.5276 182.348 14.5276Z" fill="white"/>
<path d="M7.27164 15.3289V5.99961H4.24512V3.86719H12.7353V5.99961H9.70879V15.3289H7.27164Z" fill="#CC2121"/>
<circle cx="8.49019" cy="8.9609" r="8.06568" stroke="white" stroke-width="0.849019"/>
</svg>
