<svg width="189" height="48" viewBox="0 0 189 48" fill="none" xmlns="http://www.w3.org/2000/svg">
<g id="Group 581">
<g id="logo">
<g id="casinoS">
<path id="Vector" d="M75.9907 24.6535V25.1436C75.9907 27.0226 75.4682 28.5338 74.4234 29.6775C73.396 30.8049 71.9245 31.3685 70.009 31.3685C68.0935 31.3685 66.6133 30.8049 65.5685 29.6775C64.5411 28.5338 64.0273 27.0226 64.0273 25.1436V24.6535C64.0273 22.7746 64.5411 21.2715 65.5685 20.1441C66.6133 19.0168 68.0935 18.4531 70.009 18.4531C71.9245 18.4531 73.396 19.0168 74.4234 20.1441C75.4682 21.2715 75.9907 22.7746 75.9907 24.6535ZM72.7778 24.1634C72.7778 22.4152 72.5427 21.1734 72.0725 20.4382C71.6024 19.6867 70.9145 19.3109 70.009 19.3109C69.1209 19.3109 68.433 19.6867 67.9455 20.4382C67.4753 21.1734 67.2402 22.4152 67.2402 24.1634V25.6338C67.2402 27.3657 67.4753 28.6155 67.9455 29.3834C68.433 30.135 69.1209 30.5108 70.009 30.5108C70.9145 30.5108 71.6024 30.135 72.0725 29.3834C72.5427 28.6155 72.7778 27.3657 72.7778 25.6338V24.1634Z" fill="#0E0E0E"/>
<path id="Vector_2" d="M62.3773 30.4373V31.1235H55.3508V30.4373L56.7875 30.2657C57.0661 30.233 57.2315 30.1677 57.2838 30.0696C57.336 29.9553 57.3621 29.6203 57.3621 29.0648V22.889C57.3621 21.7616 57.1793 20.9447 56.8136 20.4382C56.4653 19.9154 55.9429 19.654 55.2464 19.654C54.9503 19.654 54.602 19.7275 54.2015 19.8746C53.8184 20.0053 53.4266 20.2503 53.0261 20.6098C52.643 20.9692 52.3034 21.5002 52.0074 22.2028V29.0648C52.0074 29.6203 52.0335 29.9553 52.0857 30.0696C52.138 30.1677 52.3034 30.233 52.582 30.2657L54.0187 30.4373V31.1235H46.9922V30.4373L48.4288 30.2657C48.7075 30.233 48.8729 30.1677 48.9251 30.0696C48.9774 29.9553 49.0035 29.6203 49.0035 29.0648V20.7568C49.0035 20.2013 48.9774 19.8746 48.9251 19.7765C48.8729 19.6622 48.7075 19.5886 48.4288 19.556L46.9922 19.3844V18.6982H51.8507V20.8549C52.3557 20.0216 53 19.4171 53.7836 19.0413C54.5846 18.6492 55.3857 18.4531 56.1867 18.4531C57.4753 18.4531 58.494 18.8371 59.2428 19.605C59.9916 20.3729 60.366 21.4594 60.366 22.8645V29.0648C60.366 29.6203 60.3921 29.9553 60.4444 30.0696C60.4966 30.1677 60.6621 30.233 60.9407 30.2657L62.3773 30.4373Z" fill="#0E0E0E"/>
<path id="Vector_3" d="M42.4572 16.5901C41.9174 16.5901 41.482 16.4349 41.1512 16.1245C40.8203 15.7977 40.6549 15.3811 40.6549 14.8746C40.6549 14.3681 40.8203 13.9597 41.1512 13.6492C41.482 13.3388 41.9174 13.1836 42.4572 13.1836C42.9796 13.1836 43.415 13.3388 43.7633 13.6492C44.1115 13.9597 44.2857 14.3681 44.2857 14.8746C44.2857 15.3811 44.1115 15.7977 43.7633 16.1245C43.415 16.4349 42.9796 16.5901 42.4572 16.5901ZM38.957 19.384V18.6978H43.9722V29.0644C43.9722 29.6199 43.9983 29.9548 44.0506 30.0692C44.1028 30.1672 44.2683 30.2326 44.5469 30.2653L45.9835 30.4368V31.123H38.957V30.4368L40.3937 30.2653C40.6723 30.2326 40.8377 30.1672 40.89 30.0692C40.9422 29.9548 40.9683 29.6199 40.9683 29.0644V20.7564C40.9683 20.2009 40.9422 19.8741 40.89 19.7761C40.8377 19.6617 40.6723 19.5882 40.3937 19.5555L38.957 19.384Z" fill="#0E0E0E"/>
<path id="Vector_4" d="M32.3657 26.4916L30.5634 26.0994C29.3967 25.838 28.526 25.3724 27.9513 24.7025C27.3941 24.0163 27.1155 23.2076 27.1155 22.2763C27.1155 21.5901 27.2722 20.9611 27.5856 20.3892C27.9165 19.801 28.4302 19.3354 29.1268 18.9923C29.8233 18.6328 30.7288 18.4531 31.8433 18.4531C33.0449 18.4531 34.02 18.6328 34.7688 18.9923C35.5176 19.3517 36.0488 19.8255 36.3622 20.4137C36.6757 21.0019 36.7714 21.6309 36.6495 22.3008L33.7763 22.7909C34.02 21.6799 33.9504 20.8222 33.5673 20.2177C33.2016 19.6131 32.5834 19.3109 31.7127 19.3109C31.1032 19.3109 30.5982 19.4824 30.1977 19.8255C29.7972 20.1523 29.5969 20.6261 29.5969 21.247C29.5969 21.8188 29.7711 22.3253 30.1193 22.7664C30.4676 23.1912 30.9813 23.4771 31.6605 23.6242L33.4628 24.0163C34.7514 24.2941 35.6831 24.7352 36.2577 25.3397C36.8324 25.9279 37.1197 26.6631 37.1197 27.5454C37.1197 28.64 36.6844 29.555 35.8137 30.2902C34.9604 31.0091 33.6805 31.3685 31.9739 31.3685C31.3818 31.3685 30.7288 31.2868 30.0149 31.1235C29.3183 30.9437 28.674 30.6251 28.0819 30.1677C27.5073 29.7102 27.0893 29.0567 26.8281 28.2071L28.526 27.5699C28.6479 28.6482 29.0397 29.4079 29.7014 29.8491C30.3806 30.2902 31.1381 30.5108 31.9739 30.5108C32.7575 30.5108 33.3931 30.3474 33.8807 30.0206C34.3857 29.6775 34.6382 29.1874 34.6382 28.5502C34.6382 28.109 34.4728 27.7088 34.1419 27.3493C33.8285 26.9735 33.2364 26.6876 32.3657 26.4916Z" fill="#0E0E0E"/>
<path id="Vector_5" d="M25.6766 30.5108C25.398 30.7558 25.0584 30.9601 24.6579 31.1235C24.2748 31.2868 23.8046 31.3685 23.2474 31.3685C22.5334 31.3685 21.9326 31.2215 21.4451 30.9274C20.9749 30.6333 20.6614 30.2167 20.5047 29.6775C19.9301 30.2657 19.2944 30.6987 18.5979 30.9764C17.9188 31.2378 17.2222 31.3685 16.5082 31.3685C15.3067 31.3685 14.4099 31.0581 13.8178 30.4373C13.2257 29.8001 12.9297 29.0077 12.9297 28.06C12.9297 27.0961 13.3041 26.32 14.0529 25.7318C14.8017 25.1273 16.1251 24.8251 18.0232 24.8251H20.4002V22.84C20.4002 21.4839 20.2087 20.5608 19.8256 20.0706C19.4599 19.5641 18.9462 19.3109 18.2844 19.3109C17.8491 19.3109 17.4486 19.4171 17.0829 19.6295C16.7172 19.8255 16.456 20.2013 16.2993 20.7568C16.16 21.296 16.1861 22.0802 16.3776 23.1095L13.5043 22.7174C13.365 21.9659 13.4521 21.2715 13.7656 20.6343C14.0964 19.9808 14.645 19.4579 15.4112 19.0658C16.1774 18.6574 17.1525 18.4531 18.3367 18.4531C19.6776 18.4531 20.7137 18.6574 21.4451 19.0658C22.1764 19.4743 22.6814 20.0134 22.9601 20.6833C23.2561 21.3532 23.4041 22.0721 23.4041 22.84V28.5012C23.4041 29.3344 23.4825 29.8572 23.6392 30.0696C23.7959 30.282 23.9701 30.3882 24.1616 30.3882C24.4751 30.3882 24.8233 30.2167 25.2065 29.8736L25.6766 30.5108ZM17.6575 30.0696C18.1103 30.0696 18.5544 29.9634 18.9897 29.751C19.4425 29.5223 19.9126 29.1057 20.4002 28.5012V25.6828H18.4412C17.5879 25.6828 16.9697 25.8707 16.5866 26.2465C16.2035 26.6223 16.0119 27.2104 16.0119 28.011C16.0119 28.6645 16.1513 29.171 16.4299 29.5305C16.7085 29.8899 17.1177 30.0696 17.6575 30.0696Z" fill="#0E0E0E"/>
<path id="Vector_6" d="M5.69433 19.3109C4.85846 19.3109 4.23157 19.6867 3.81363 20.4382C3.41311 21.1734 3.21286 22.4152 3.21286 24.1634V25.6338C3.21286 27.3657 3.44794 28.6155 3.91812 29.3834C4.38829 30.135 5.1545 30.5108 6.21674 30.5108C7.00037 30.5108 7.63597 30.3065 8.12356 29.8981C8.62856 29.4733 8.91589 28.7626 8.98555 27.7659L10.6573 28.2071C10.3438 29.3508 9.76917 30.1677 8.9333 30.6578C8.11485 31.1316 7.14839 31.3685 6.0339 31.3685C4.03131 31.3685 2.52501 30.8049 1.515 29.6775C0.505002 28.5338 0 27.0226 0 25.1436V24.6535C0 22.7746 0.487588 21.2715 1.46276 20.1441C2.43794 19.0168 3.84846 18.4531 5.69433 18.4531C6.9133 18.4531 7.90589 18.6819 8.6721 19.1393C9.45572 19.5805 10.0043 20.1686 10.3177 20.9039C10.6486 21.6228 10.7356 22.3988 10.5789 23.2321L7.70563 23.6242C7.89718 22.2518 7.81882 21.1898 7.47054 20.4382C7.12226 19.6867 6.53019 19.3109 5.69433 19.3109Z" fill="#0E0E0E"/>
</g>
<g id="Austria">
<path id="Vector_7" d="M188.442 30.5108C188.164 30.7558 187.824 30.9601 187.424 31.1235C187.04 31.2868 186.57 31.3685 186.013 31.3685C185.299 31.3685 184.698 31.2215 184.211 30.9274C183.741 30.6333 183.427 30.2167 183.27 29.6775C182.696 30.2657 182.06 30.6987 181.364 30.9764C180.684 31.2378 179.988 31.3685 179.274 31.3685C178.072 31.3685 177.175 31.0581 176.583 30.4373C175.991 29.8001 175.695 29.0077 175.695 28.06C175.695 27.0961 176.07 26.32 176.819 25.7318C177.567 25.1273 178.891 24.8251 180.789 24.8251H183.166V22.84C183.166 21.4839 182.974 20.5608 182.591 20.0706C182.226 19.5641 181.712 19.3109 181.05 19.3109C180.615 19.3109 180.214 19.4171 179.849 19.6295C179.483 19.8255 179.222 20.2013 179.065 20.7568C178.926 21.296 178.952 22.0802 179.143 23.1095L176.27 22.7174C176.131 21.9659 176.218 21.2715 176.531 20.6343C176.862 19.9808 177.411 19.4579 178.177 19.0658C178.943 18.6574 179.918 18.4531 181.102 18.4531C182.443 18.4531 183.479 18.6574 184.211 19.0658C184.942 19.4743 185.447 20.0134 185.726 20.6833C186.022 21.3532 186.17 22.0721 186.17 22.84V28.5012C186.17 29.3344 186.248 29.8572 186.405 30.0696C186.562 30.282 186.736 30.3882 186.927 30.3882C187.241 30.3882 187.589 30.2167 187.972 29.8736L188.442 30.5108ZM180.423 30.0696C180.876 30.0696 181.32 29.9634 181.755 29.751C182.208 29.5223 182.678 29.1057 183.166 28.5012V25.6828H181.207C180.354 25.6828 179.735 25.8707 179.352 26.2465C178.969 26.6223 178.778 27.2104 178.778 28.011C178.778 28.6645 178.917 29.171 179.195 29.5305C179.474 29.8899 179.883 30.0696 180.423 30.0696Z" fill="#0E0E0E"/>
<path id="Vector_8" d="M170.586 16.5901C170.046 16.5901 169.611 16.4349 169.28 16.1245C168.949 15.7977 168.784 15.3811 168.784 14.8746C168.784 14.3681 168.949 13.9597 169.28 13.6492C169.611 13.3388 170.046 13.1836 170.586 13.1836C171.109 13.1836 171.544 13.3388 171.892 13.6492C172.24 13.9597 172.415 14.3681 172.415 14.8746C172.415 15.3811 172.24 15.7977 171.892 16.1245C171.544 16.4349 171.109 16.5901 170.586 16.5901ZM167.086 19.384V18.6978H172.101V29.0644C172.101 29.6199 172.127 29.9548 172.179 30.0692C172.232 30.1672 172.397 30.2326 172.676 30.2653L174.112 30.4368V31.123H167.086V30.4368L168.523 30.2653C168.801 30.2326 168.967 30.1672 169.019 30.0692C169.071 29.9548 169.097 29.6199 169.097 29.0644V20.7564C169.097 20.2009 169.071 19.8741 169.019 19.7761C168.967 19.6617 168.801 19.5882 168.523 19.5555L167.086 19.384Z" fill="#0E0E0E"/>
<path id="Vector_9" d="M155.023 19.3844V18.6982H159.882V20.7078C160.944 19.2047 162.207 18.4531 163.669 18.4531C164.209 18.4531 164.732 18.6165 165.237 18.9433C165.742 19.2537 166.16 19.8419 166.49 20.7078L164.166 21.8842C163.922 21.2143 163.635 20.765 163.304 20.5363C162.99 20.2912 162.651 20.1686 162.285 20.1686C161.902 20.1686 161.528 20.283 161.162 20.5117C160.796 20.7405 160.422 21.1653 160.039 21.7861V29.0648C160.039 29.6203 160.065 29.9553 160.117 30.0696C160.169 30.1677 160.335 30.233 160.613 30.2657L162.572 30.4373V31.1235H155.023V30.4373L156.46 30.2657C156.739 30.233 156.904 30.1677 156.956 30.0696C157.009 29.9553 157.035 29.6203 157.035 29.0648V20.7568C157.035 20.2013 157.009 19.8746 156.956 19.7765C156.904 19.6622 156.739 19.5886 156.46 19.556L155.023 19.3844Z" fill="#0E0E0E"/>
<path id="Vector_10" d="M154.015 28.574C153.788 29.5707 153.353 30.2896 152.709 30.7307C152.082 31.1555 151.316 31.3679 150.41 31.3679C149.487 31.3679 148.73 31.18 148.138 30.8042C147.546 30.4121 147.11 29.8974 146.832 29.2602C146.553 28.6231 146.414 27.945 146.414 27.2261V20.7562C146.414 20.2007 146.388 19.8739 146.335 19.7759C146.283 19.6615 146.118 19.588 145.839 19.5553L144.402 19.3838V18.6975H146.414V15.8547L149.418 15.291V18.6975H153.597V19.5553H149.418V27.7163C149.418 28.7619 149.557 29.489 149.835 29.8974C150.114 30.2896 150.471 30.4856 150.906 30.4856C151.359 30.4856 151.707 30.3222 151.951 29.9955C152.212 29.6687 152.378 29.0724 152.448 28.2064L154.015 28.574Z" fill="#0E0E0E"/>
<path id="Vector_11" d="M138.12 26.4916L136.317 26.0994C135.151 25.838 134.28 25.3724 133.705 24.7025C133.148 24.0163 132.869 23.2076 132.869 22.2763C132.869 21.5901 133.026 20.9611 133.34 20.3892C133.67 19.801 134.184 19.3354 134.881 18.9923C135.577 18.6328 136.483 18.4531 137.597 18.4531C138.799 18.4531 139.774 18.6328 140.523 18.9923C141.272 19.3517 141.803 19.8255 142.116 20.4137C142.43 21.0019 142.525 21.6309 142.403 22.3008L139.53 22.7909C139.774 21.6799 139.704 20.8222 139.321 20.2177C138.956 19.6131 138.337 19.3109 137.467 19.3109C136.857 19.3109 136.352 19.4824 135.952 19.8255C135.551 20.1523 135.351 20.6261 135.351 21.247C135.351 21.8188 135.525 22.3253 135.873 22.7664C136.222 23.1912 136.735 23.4771 137.414 23.6242L139.217 24.0163C140.505 24.2941 141.437 24.7352 142.012 25.3397C142.586 25.9279 142.874 26.6631 142.874 27.5454C142.874 28.64 142.438 29.555 141.568 30.2902C140.714 31.0091 139.434 31.3685 137.728 31.3685C137.136 31.3685 136.483 31.2868 135.769 31.1235C135.072 30.9437 134.428 30.6251 133.836 30.1677C133.261 29.7102 132.843 29.0567 132.582 28.2071L134.28 27.5699C134.402 28.6482 134.794 29.4079 135.455 29.8491C136.134 30.2902 136.892 30.5108 137.728 30.5108C138.511 30.5108 139.147 30.3474 139.635 30.0206C140.14 29.6775 140.392 29.1874 140.392 28.5502C140.392 28.109 140.227 27.7088 139.896 27.3493C139.582 26.9735 138.99 26.6876 138.12 26.4916Z" fill="#0E0E0E"/>
<path id="Vector_12" d="M131.136 30.4363V31.1225H126.277V28.9659C125.79 29.7991 125.163 30.4118 124.396 30.8039C123.63 31.1797 122.855 31.3676 122.072 31.3676C120.835 31.3676 119.851 30.9837 119.12 30.2158C118.389 29.4315 118.023 28.345 118.023 26.9563V20.7559C118.023 20.2004 117.997 19.8736 117.945 19.7756C117.892 19.6612 117.727 19.5877 117.448 19.555L116.012 19.3835V18.6973H121.027V26.9318C121.027 28.0591 121.192 28.8842 121.523 29.407C121.871 29.9135 122.368 30.1667 123.012 30.1667C123.291 30.1667 123.613 30.1014 123.979 29.9707C124.362 29.8236 124.745 29.5704 125.128 29.2109C125.511 28.8352 125.842 28.3042 126.12 27.618V20.7559C126.12 20.2004 126.094 19.8655 126.042 19.7511C125.99 19.6367 125.824 19.5714 125.546 19.555L123.587 19.3835V18.6973H129.124V29.0639C129.124 29.6194 129.15 29.9543 129.203 30.0687C129.255 30.1667 129.42 30.2321 129.699 30.2648L131.136 30.4363Z" fill="#0E0E0E"/>
</g>
<g id="AS">
<path id="A" d="M93.7177 29.8571L93.2633 31.0404L85.2417 31.12L84.7539 29.8571L87.3083 29.5414C87.6489 29.4813 87.8966 29.4212 88.0515 29.361C88.2063 29.2708 88.3456 29.0754 88.4695 28.7747C88.5933 28.474 88.7636 27.993 88.9803 27.3315L97.8512 0.451172H101.845L110.763 27.3315C110.979 27.993 111.15 28.474 111.274 28.7747C111.397 29.0754 111.537 29.2708 111.692 29.361C111.877 29.4212 112.125 29.4813 112.435 29.5414L114.989 29.8571V31.12H102.171V29.8571L104.725 29.5414C105.22 29.4813 105.484 29.361 105.515 29.1806C105.576 28.9702 105.437 28.3538 105.097 27.3315L103.332 21.7389H92.603L90.7917 27.3315C90.482 28.3538 90.3427 28.9702 90.3737 29.1806C90.4046 29.361 90.6678 29.4813 91.1632 29.5414L93.7177 29.8571ZM93.1603 20.1604H102.821L98.037 5.18679L93.1603 20.1604Z" fill="white"/>
<path id="S" d="M88.9513 29.9923C90.8091 29.9923 92.3417 29.5714 93.5493 28.7295C94.7878 27.8575 95.4071 26.5045 95.4071 24.6704C95.4071 23.3173 94.9891 22.1898 94.1531 21.2878C93.348 20.3857 91.8928 19.6341 89.7873 19.0327L85.468 17.7699C83.3006 17.1385 81.6286 16.056 80.452 14.5226C79.3064 12.9591 78.7335 11.0197 78.7335 8.70453C78.7335 7.17109 79.0896 5.74289 79.8018 4.41992C80.5449 3.09695 81.6595 2.02955 83.1458 1.21773C84.6629 0.405911 86.5672 0 88.8584 0C91.3664 0 93.3945 0.451013 94.9426 1.35304C96.4908 2.22499 97.0054 3.00387 97.0054 3.00387L94.3315 11.0142C94.827 8.21791 93.5957 5.33698 92.6668 3.8336C91.7689 2.33023 90.2982 1.57854 88.2546 1.57854C86.6755 1.57854 85.406 2.02956 84.4462 2.93158C83.5173 3.8336 83.0529 5.1265 83.0529 6.81028C83.0529 8.19338 83.4554 9.41112 84.2604 10.4635C85.0964 11.5158 86.4588 12.3277 88.3475 12.8989L92.6668 14.1618C95.02 14.8233 96.7849 15.8305 97.9615 17.1836C99.1381 18.5065 99.7264 20.3557 99.7264 22.731C99.7264 24.4148 99.3239 25.9332 98.5188 27.2862C97.7448 28.6092 96.5527 29.6616 94.9426 30.4433C93.3635 31.195 91.3819 31.5708 88.9977 31.5708C87.2638 31.5708 85.6228 31.3303 84.0746 30.8492C82.5265 30.3381 81.2261 29.5112 80.1733 28.3687C79.1515 27.2261 78.5013 25.6776 78.2227 23.7232L81.3344 22.6408C81.4892 24.5651 81.9227 26.0685 82.6349 27.1509C83.378 28.2033 84.2914 28.9399 85.3751 29.3609C86.4897 29.7818 87.6818 29.9923 88.9513 29.9923Z" fill="#B80000"/>
</g>
<path id="Union" d="M0 35.5552H188.385V34.5566H0V35.5552Z" fill="white"/>
</g>
<g id="Union_2">
<path d="M51.6963 46.88C51.4119 46.953 51.0563 46.9896 50.6297 46.9896C50.1201 46.9896 49.6223 46.9165 49.1364 46.7704C48.6623 46.6243 48.2416 46.4173 47.8742 46.1494C47.5068 45.8734 47.2164 45.5446 47.0031 45.1631H45.332V47.8785H46.7542L46.9295 46.8108C47.0315 46.9013 47.139 46.9853 47.252 47.0626C47.7497 47.3954 48.3068 47.6349 48.923 47.781C49.5512 47.9272 50.2089 48.0002 50.8963 48.0002C51.8563 48.0002 52.6741 47.8825 53.3496 47.6471C54.037 47.4117 54.5644 47.0789 54.9318 46.6486C55.311 46.2184 55.5006 45.7151 55.5006 45.1387C55.5006 44.6923 55.394 44.3188 55.1807 44.0185C54.9673 43.71 54.671 43.4543 54.2918 43.2514C53.9244 43.0403 53.5037 42.8698 53.0296 42.7399C52.5674 42.6101 52.0756 42.4964 51.5541 42.399C51.1393 42.3259 50.7423 42.2529 50.363 42.1798C49.9956 42.1068 49.6756 42.0256 49.403 41.9363C49.1304 41.847 48.9112 41.7333 48.7453 41.5953C48.5912 41.4573 48.5142 41.2869 48.5142 41.0839C48.5142 40.881 48.5794 40.7065 48.7097 40.5603C48.8519 40.4142 49.0534 40.3046 49.3141 40.2316C49.5867 40.1504 49.9126 40.1098 50.2919 40.1098C50.7304 40.1098 51.1274 40.1666 51.483 40.2803C51.8504 40.3858 52.1704 40.5441 52.443 40.7552C52.7155 40.9662 52.9229 41.2219 53.0652 41.5223H54.6296V39.2331H53.2963L53.1284 40.0607C53.0622 40.0003 52.9937 39.9436 52.9229 39.8906C52.5555 39.6065 52.123 39.4076 51.6252 39.294C51.1274 39.1722 50.5526 39.1113 49.9008 39.1113C49.1423 39.1113 48.4371 39.2128 47.7853 39.4157C47.1453 39.6106 46.6298 39.8987 46.2387 40.2803C45.8594 40.6537 45.6698 41.1123 45.6698 41.6562C45.6698 42.1027 45.7705 42.4802 45.972 42.7887C46.1853 43.0971 46.4698 43.3569 46.8253 43.5679C47.1809 43.7709 47.5779 43.9414 48.0164 44.0794C48.4549 44.2092 48.9053 44.3229 49.3675 44.4203C49.8415 44.5096 50.2741 44.5989 50.6652 44.6882C51.0563 44.7775 51.3941 44.8749 51.6785 44.9804C51.9748 45.0778 52.2 45.2037 52.3541 45.3579C52.5081 45.504 52.5852 45.6867 52.5852 45.9058C52.5852 46.1494 52.5081 46.3523 52.3541 46.5147C52.2118 46.677 51.9926 46.7988 51.6963 46.88Z" fill="#660000"/>
<path fill-rule="evenodd" clip-rule="evenodd" d="M59.2136 45.0778L58.3835 46.8313C58.3835 46.8719 58.4368 46.9124 58.5435 46.953C58.662 46.9855 58.8042 47.0099 58.9701 47.0261C59.1361 47.0423 59.3079 47.0504 59.4857 47.0504H59.7168V47.8785H55.948V47.0504H56.0369C56.2976 47.0504 56.4991 47.018 56.6413 46.953C56.7835 46.88 56.902 46.7379 56.9969 46.5269L60.499 39.2331H63.8767L67.4855 46.7095C67.5447 46.8475 67.6514 46.9409 67.8055 46.9896C67.9714 47.0302 68.1729 47.0504 68.4099 47.0504H68.481V47.8785H62.65V47.0504H62.9345C63.1123 47.0504 63.2841 47.0464 63.45 47.0383C63.6278 47.0302 63.77 47.018 63.8767 47.0017C63.9952 46.9774 64.0544 46.953 64.0544 46.9287L63.1852 45.0778H59.2136ZM61.2074 40.8664L59.6575 44.1402H62.7449L61.2074 40.8664Z" fill="#660000"/>
<path d="M70.1455 40.1463C69.9559 40.0895 69.707 40.0611 69.3989 40.0611H69.2033V39.2331H75.2654V40.0611H75.0165C74.6847 40.0611 74.4121 40.0895 74.1988 40.1463C73.9973 40.2032 73.8965 40.3209 73.8965 40.4995V46.9165H75.6209C76.095 46.9165 76.4802 46.9043 76.7765 46.88C77.0728 46.8475 77.292 46.7947 77.4342 46.7217C77.5883 46.6486 77.6713 46.539 77.6831 46.3929L77.8431 44.9683H79.4431V47.8785H69.2033V47.0504H69.3989C69.707 47.0504 69.9559 47.022 70.1455 46.9652C70.347 46.9084 70.4477 46.7907 70.4477 46.6121V40.4995C70.4477 40.3209 70.347 40.2032 70.1455 40.1463Z" fill="#660000"/>
<path d="M83.6141 40.2194C83.8392 40.2032 84.094 40.195 84.3785 40.195H87.0655L80.5564 46.673V47.8785H90.7961V45.0657H89.2317L89.0361 46.3929C89.0243 46.539 88.9473 46.6486 88.805 46.7217C88.6628 46.7947 88.4436 46.8475 88.1473 46.88C87.851 46.9043 87.4658 46.9165 86.9917 46.9165H84.0091L90.5828 40.3899V39.2331H80.8941V41.7902H82.4408L82.5652 40.7186C82.5771 40.605 82.6185 40.5157 82.6896 40.4507C82.7726 40.3858 82.8911 40.333 83.0452 40.2925C83.2111 40.2519 83.4007 40.2275 83.6141 40.2194Z" fill="#660000"/>
<path fill-rule="evenodd" clip-rule="evenodd" d="M98.3651 39.2331C99.1117 39.2331 99.7695 39.2818 100.338 39.3792C100.919 39.4766 101.399 39.6187 101.778 39.8054C102.169 39.984 102.466 40.2072 102.667 40.4751C102.869 40.7349 102.969 41.023 102.969 41.3396C102.969 41.7861 102.803 42.1595 102.472 42.4599C102.14 42.7602 101.672 42.9875 101.067 43.1418C100.808 43.2056 100.531 43.2578 100.233 43.2983C100.656 43.3474 101.047 43.4211 101.405 43.5192C102.057 43.6897 102.566 43.9373 102.934 44.262C103.301 44.5786 103.485 44.9723 103.485 45.4431C103.485 45.8247 103.378 46.1656 103.165 46.466C102.952 46.7663 102.632 47.022 102.205 47.2331C101.778 47.4442 101.257 47.6065 100.641 47.7202C100.036 47.8257 99.331 47.8785 98.5251 47.8785H91.8763V47.0504H92.0719C92.38 47.0504 92.6289 47.022 92.8185 46.9652C93.02 46.9084 93.1208 46.7907 93.1208 46.6121V40.4995C93.1208 40.3209 93.02 40.2032 92.8185 40.1463C92.6289 40.0895 92.38 40.0611 92.0719 40.0611H91.8763V39.2331H98.3651ZM98.9873 46.7704C98.6554 46.884 98.2406 46.9409 97.7428 46.9409H96.5695V43.8115H97.6717C98.2169 43.8115 98.6613 43.8764 99.005 44.0063C99.3487 44.1281 99.5976 44.3067 99.7517 44.5421C99.9176 44.7694 100.001 45.0413 100.001 45.3579C100.001 45.7151 99.9117 46.0114 99.7339 46.2468C99.568 46.4822 99.3191 46.6567 98.9873 46.7704ZM98.685 40.329C98.4006 40.2235 98.051 40.1707 97.6362 40.1707H96.5695V42.9104H97.5651C98.0391 42.9104 98.4243 42.8577 98.7206 42.7521C99.0169 42.6385 99.2302 42.4721 99.3606 42.2529C99.491 42.0337 99.5561 41.7699 99.5561 41.4614C99.5561 41.1854 99.4791 40.954 99.325 40.7673C99.1828 40.5725 98.9695 40.4264 98.685 40.329Z" fill="#660000"/>
<path d="M109.298 45.6136C109.191 45.3133 109.138 44.948 109.138 44.5177V40.1829C109.138 40.1585 109.167 40.1423 109.227 40.1342C109.298 40.1179 109.387 40.1057 109.493 40.0976C109.6 40.0814 109.713 40.0733 109.831 40.0733C109.962 40.0652 110.086 40.0611 110.204 40.0611H110.364V39.2331H104.445V40.0611H104.64C104.948 40.0611 105.197 40.0895 105.387 40.1463C105.588 40.2032 105.689 40.3209 105.689 40.4995V44.5177C105.689 45.1265 105.813 45.6542 106.062 46.1007C106.311 46.539 106.667 46.9003 107.129 47.1844C107.603 47.4604 108.16 47.6674 108.8 47.8054C109.44 47.9353 110.151 48.0002 110.933 48.0002C111.621 48.0002 112.261 47.9353 112.853 47.8054C113.446 47.6755 113.961 47.4726 114.4 47.1966C114.85 46.9124 115.2 46.5512 115.449 46.1129C115.698 45.6664 115.822 45.1347 115.822 44.5177V40.5482C115.822 40.4183 115.869 40.3209 115.964 40.2559C116.059 40.1829 116.184 40.1342 116.338 40.1098C116.504 40.0773 116.687 40.0611 116.889 40.0611H117.067V39.2331H113.067V40.0611H113.227C113.345 40.0611 113.47 40.0692 113.6 40.0855C113.73 40.0936 113.849 40.1098 113.955 40.1342C114.062 40.1504 114.145 40.1747 114.204 40.2072C114.275 40.2397 114.311 40.2762 114.311 40.3168V44.5177C114.311 44.9398 114.246 45.3011 114.115 45.6014C113.997 45.8937 113.825 46.1331 113.6 46.3199C113.375 46.4984 113.102 46.6324 112.782 46.7217C112.462 46.8029 112.107 46.8434 111.716 46.8434C111.301 46.8434 110.933 46.8029 110.613 46.7217C110.293 46.6405 110.021 46.5106 109.796 46.332C109.582 46.1534 109.416 45.914 109.298 45.6136Z" fill="#660000"/>
<path fill-rule="evenodd" clip-rule="evenodd" d="M122.907 46.9896C122.848 46.9733 122.818 46.953 122.818 46.9287V44.3472H124.227L126.498 47.8785H130.445V47.0504H130.303C130.16 47.0504 130.036 47.0423 129.929 47.0261C129.823 47.0017 129.728 46.9652 129.645 46.9165C129.562 46.8678 129.485 46.7988 129.414 46.7095L127.383 43.9504C127.426 43.9369 127.469 43.9231 127.512 43.9089C128.163 43.6897 128.655 43.3934 128.987 43.02C129.319 42.6466 129.485 42.2164 129.485 41.7293C129.485 41.2179 129.295 40.7755 128.916 40.402C128.537 40.0286 127.98 39.7405 127.245 39.5375C126.522 39.3346 125.639 39.2331 124.596 39.2331H118.143V40.0611H118.339C118.647 40.0611 118.896 40.0895 119.085 40.1463C119.287 40.2032 119.387 40.3209 119.387 40.4995V46.6121C119.387 46.7907 119.287 46.9084 119.085 46.9652C118.896 47.022 118.647 47.0504 118.339 47.0504H118.143V47.8785H123.956V47.0504H123.423C123.316 47.0423 123.215 47.0342 123.121 47.0261C123.038 47.0099 122.967 46.9977 122.907 46.9896ZM125.076 40.3655C124.792 40.2437 124.436 40.1829 124.01 40.1829H122.818V43.4218H123.921C124.395 43.4218 124.78 43.3528 125.076 43.2148C125.372 43.0768 125.592 42.882 125.734 42.6304C125.876 42.3787 125.947 42.0784 125.947 41.7293C125.947 41.4046 125.876 41.1286 125.734 40.9013C125.592 40.6659 125.372 40.4873 125.076 40.3655Z" fill="#660000"/>
<path d="M142.221 47.0992C142.565 46.9368 142.831 46.7744 143.021 46.6121V44.7734C143.021 44.5948 143.104 44.4771 143.27 44.4203C143.436 44.3635 143.643 44.3351 143.892 44.3351H143.999V43.5071H138.648V44.3351H138.826C139.145 44.3351 139.4 44.3635 139.59 44.4203C139.791 44.4771 139.892 44.5948 139.892 44.7734V46.466C139.797 46.5309 139.667 46.604 139.501 46.6851C139.335 46.7582 139.122 46.8232 138.861 46.88C138.612 46.9368 138.316 46.9652 137.972 46.9652C137.498 46.9652 137.066 46.8922 136.674 46.746C136.283 46.5999 135.946 46.3848 135.661 46.1007C135.389 45.8166 135.181 45.4634 135.039 45.0413C134.897 44.6111 134.826 44.1159 134.826 43.5558C134.826 43.0362 134.897 42.5695 135.039 42.1555C135.181 41.7333 135.389 41.3762 135.661 41.0839C135.946 40.7836 136.283 40.5522 136.674 40.3899C137.077 40.2275 137.528 40.1463 138.026 40.1463C138.583 40.1463 139.057 40.2235 139.448 40.3777C139.839 40.5238 140.165 40.7349 140.425 41.0109C140.698 41.2788 140.917 41.5994 141.083 41.9728H142.79V39.2331H141.332L141.165 40.2597L141.137 40.2316C140.793 39.8825 140.337 39.6106 139.768 39.4157C139.199 39.2128 138.488 39.1113 137.634 39.1113C136.734 39.1113 135.892 39.2209 135.11 39.4401C134.34 39.6512 133.664 39.9556 133.083 40.3533C132.503 40.7511 132.052 41.2219 131.732 41.7658C131.412 42.3097 131.252 42.9064 131.252 43.5558C131.252 44.2295 131.406 44.8384 131.715 45.3823C132.023 45.9261 132.467 46.3929 133.048 46.7826C133.629 47.1722 134.316 47.4726 135.11 47.6836C135.916 47.8947 136.811 48.0002 137.794 48.0002C138.399 48.0002 138.974 47.9596 139.519 47.8785C140.076 47.7973 140.58 47.6877 141.03 47.5497C141.492 47.4117 141.889 47.2615 142.221 47.0992Z" fill="#660000"/>
</g>
</g>
</svg>
