<svg width="118" height="18" viewBox="0 0 118 18" fill="none" xmlns="http://www.w3.org/2000/svg">
<path d="M14.8852 10.4861C14.8852 11.7757 14.5705 12.9271 13.941 13.9404C13.3269 14.9537 12.4979 15.7443 11.4539 16.3124C10.4253 16.8804 9.31992 17.1645 8.13777 17.1645C6.52575 17.1645 5.14402 16.8113 3.99258 16.1051C2.84113 15.3836 1.96604 14.424 1.36728 13.2265C0.783886 12.029 0.492188 10.7087 0.492188 9.26555C0.492188 7.73029 0.829944 6.32553 1.50546 5.05127C2.18097 3.777 3.12515 2.77141 4.33801 2.03448C5.55086 1.29756 6.93259 0.9291 8.4832 0.9291C9.34295 0.9291 10.195 1.0903 11.0394 1.41271C11.8992 1.73511 12.5977 2.19569 13.135 2.79444C13.6724 3.39319 13.9257 4.08405 13.895 4.86704L12.1678 4.89006C12.1678 4.41413 11.9759 4.01497 11.5921 3.69256C11.2083 3.35481 10.7247 3.10149 10.1413 2.93261C9.57324 2.76373 9.00519 2.67929 8.43715 2.67929C7.31641 2.67929 6.28779 2.98634 5.35128 3.60045C4.43012 4.21455 3.70088 5.02824 3.16354 6.04151C2.64155 7.05478 2.38055 8.13713 2.38055 9.28858C2.38055 10.394 2.58781 11.4149 3.00233 12.3514C3.43221 13.2726 4.07701 14.0172 4.93676 14.5852C5.81186 15.1379 6.89421 15.4143 8.18383 15.4143C8.99751 15.4143 9.7805 15.207 10.5328 14.7925C11.285 14.378 11.8915 13.8099 12.3521 13.0883C12.828 12.3668 13.0659 11.5838 13.0659 10.7394V10.3018H7.63114V8.55165H14.8852V10.4861Z" fill="#83FF2B"/>
<path d="M21.1996 0.675781H21.9596L28.7531 16.9342H26.7496L24.5849 11.8448H18.5743L16.4557 16.9342H14.4522L21.1996 0.675781ZM21.8905 5.21247L21.7063 4.61372L21.5681 4.08405L21.4069 4.59069L21.2227 5.21247L19.2882 10.1406H23.848L21.8905 5.21247Z" fill="#83FF2B"/>
<path d="M30.887 0.90607L37.3121 8.96617L43.7372 0.90607H44.5432V16.9342H42.6548V6.50208C42.6548 6.2718 42.6778 5.87263 42.7239 5.30458C41.987 6.25644 41.0965 7.3388 40.0525 8.55165C39.0239 9.74916 38.1028 10.7778 37.2891 11.6375L36.3679 10.6012C34.5103 8.48257 33.3742 7.18527 32.9596 6.70934C32.8215 6.54047 32.6833 6.36391 32.5451 6.17968C32.4223 5.99545 32.2995 5.82657 32.1767 5.67305L31.9003 5.28156C31.9464 5.71143 31.9694 6.11827 31.9694 6.50208V16.9342H30.081V0.90607H30.887Z" fill="#83FF2B"/>
<path d="M55.9014 8.68983C57.3753 9.58028 58.1122 10.8545 58.1122 12.5126C58.1122 13.4798 57.8359 14.3626 57.2832 15.1609C56.7305 15.9439 55.9475 16.4966 54.9342 16.819C54.2741 17.034 53.3759 17.1414 52.2398 17.1414C50.6585 17.1414 49.5224 17.103 48.8316 17.0263L47.4268 16.8651V0.860013H52.6313C53.399 0.860013 54.0438 0.959804 54.5658 1.15939C55.4562 1.49714 56.1548 2.01913 56.6614 2.72535C57.168 3.43157 57.4213 4.24526 57.4213 5.16641C57.4213 6.57885 56.7996 7.59979 55.556 8.22925C55.4639 8.27531 55.3027 8.33672 55.0724 8.41348C55.1645 8.41348 55.295 8.44419 55.4639 8.5056C55.6481 8.56701 55.794 8.62842 55.9014 8.68983ZM49.3152 2.65626V7.67656H52.6083C53.4834 7.67656 54.1896 7.45395 54.727 7.00872C55.2643 6.5635 55.533 5.91869 55.533 5.0743C55.533 4.33737 55.3104 3.76933 54.8651 3.37016C54.4199 2.95564 53.7751 2.71767 52.9307 2.65626H49.3152ZM52.4701 15.3912C53.6676 15.3912 54.5965 15.1456 55.2566 14.6543C55.9168 14.163 56.2469 13.4491 56.2469 12.5126C56.2469 11.6068 55.9398 10.8699 55.3257 10.3018C54.727 9.7338 53.8749 9.44978 52.7695 9.44978H49.3152V15.2761L50.9733 15.3452L52.4701 15.3912Z" fill="#83FF2B"/>
<path d="M59.9829 1.11333H61.8713V15.184H69.632V16.9342H59.9829V1.11333Z" fill="#83FF2B"/>
<path d="M77.0885 17.4178C75.5686 17.4024 74.2022 17.0493 72.9894 16.3584C71.7919 15.6522 70.8477 14.7004 70.1568 13.5029C69.4813 12.29 69.1436 10.9236 69.1436 9.40372V8.73588C69.1436 7.27739 69.489 5.94172 70.1799 4.72886C70.8861 3.50066 71.838 2.53344 73.0354 1.82722C74.2483 1.10565 75.5686 0.744868 76.9964 0.744868C78.4396 0.744868 79.7599 1.10565 80.9574 1.82722C82.1549 2.53344 83.1067 3.50066 83.813 4.72886C84.5192 5.94172 84.8723 7.27739 84.8723 8.73588V9.40372C84.8723 10.9236 84.5268 12.2977 83.836 13.5259C83.1605 14.7541 82.2316 15.7136 81.0495 16.4045C79.8673 17.0954 78.547 17.4331 77.0885 17.4178ZM77.0194 15.6676C78.1402 15.6676 79.1535 15.3989 80.0593 14.8616C80.9651 14.3089 81.679 13.5566 82.2009 12.6047C82.7229 11.6529 82.9839 10.5859 82.9839 9.40372V8.73588C82.9839 7.61515 82.7153 6.57885 82.1779 5.62699C81.6406 4.65978 80.9113 3.89982 79.9902 3.34713C79.0844 2.77908 78.0788 2.49506 76.9734 2.49506C75.8834 2.49506 74.8854 2.77908 73.9796 3.34713C73.0738 3.89982 72.3523 4.65978 71.8149 5.62699C71.2929 6.57885 71.0319 7.61515 71.0319 8.73588V9.40372C71.0319 10.5859 71.2929 11.6529 71.8149 12.6047C72.3369 13.5566 73.0508 14.3089 73.9566 14.8616C74.8778 15.3989 75.8987 15.6676 77.0194 15.6676Z" fill="#83FF2B"/>
<path d="M98.5266 16.6808C98.2503 16.9879 97.805 17.1414 97.1909 17.1414C96.3926 17.1414 95.7478 16.819 95.2565 16.1742L92.5852 12.5126C92.2935 12.1288 92.0325 11.8218 91.8022 11.5915C91.5872 11.3612 91.2879 11.1693 90.904 11.0157C90.5356 10.8469 90.075 10.7547 89.5223 10.7394V8.96617H91.7331C92.6389 8.96617 93.3528 8.70518 93.8748 8.18319C94.3968 7.64585 94.6577 6.9166 94.6577 5.99545C94.6577 5.07429 94.4044 4.32202 93.8978 3.73862C93.4065 3.15522 92.7694 2.86352 91.9864 2.86352H88.6702V16.9342H86.7819V1.11333H92.0785C92.9076 1.11333 93.6598 1.32827 94.3354 1.75814C95.0262 2.18801 95.5636 2.76373 95.9474 3.4853C96.3465 4.19152 96.5461 4.95147 96.5461 5.76516C96.5461 6.74773 96.2851 7.6305 95.7631 8.41348C95.2411 9.19646 94.604 9.69542 93.8517 9.91036C93.4833 10.0178 92.8692 10.0716 92.0094 10.0716C92.4547 10.1944 92.7771 10.3249 92.9766 10.4631C93.1916 10.5859 93.4219 10.8008 93.6675 11.1079L94.5196 12.2593C95.7171 13.8713 96.3926 14.7771 96.5461 14.9767C96.6843 15.1456 96.7994 15.2684 96.8915 15.3452C96.999 15.4066 97.1065 15.4373 97.214 15.4373C97.3982 15.4373 97.5594 15.3682 97.6976 15.23L98.5266 16.6808Z" fill="#83FF2B"/>
<path d="M99.7653 1.11333H101.654V16.9342H99.7653V1.11333Z" fill="#83FF2B"/>
<path d="M109.722 0.675781H110.482L117.276 16.9342H115.272L113.107 11.8448H107.097L104.978 16.9342H102.975L109.722 0.675781ZM110.413 5.21247L110.229 4.61372L110.091 4.08405L109.929 4.59069L109.745 5.21247L107.811 10.1406H112.371L110.413 5.21247Z" fill="#83FF2B"/>
</svg>
