<svg width="158" height="48" viewBox="0 0 158 48" fill="none" xmlns="http://www.w3.org/2000/svg">
<path d="M38.1806 30.592L30.731 40.192L29.8094 47.6672H25.483L26.4302 40.064L22.0782 30.592H26.8654L28.043 33.3312C28.555 34.5429 28.8622 35.3109 28.9646 35.6352C28.9817 35.6864 29.0073 35.7803 29.0414 35.9168C29.0926 36.0363 29.1267 36.1301 29.1438 36.1984C29.3315 35.84 29.6131 35.3877 29.9886 34.8416L32.9326 30.592H38.1806Z" fill="#9746A5"/>
<path d="M47.1574 30.2592C49.7515 30.2592 51.8593 30.9931 53.4806 32.4608C55.119 33.9115 55.9894 35.8485 56.0918 38.272V38.6048C56.0918 41.4037 55.2385 43.6736 53.5318 45.4144C51.8251 47.1381 49.5894 48 46.8246 48C44.0427 48 41.7899 47.2064 40.0662 45.6192C38.3595 44.032 37.5062 41.9499 37.5062 39.3728C37.5062 36.6933 38.4022 34.5088 40.1942 32.8192C42.0033 31.1125 44.3243 30.2592 47.1574 30.2592ZM51.663 39.0656C51.663 38.9291 51.6545 38.8267 51.6374 38.7584C51.5691 37.4101 51.1083 36.3435 50.255 35.5584C49.4187 34.7563 48.3265 34.3552 46.9782 34.3552C45.5105 34.3552 44.2987 34.816 43.343 35.7376C42.4043 36.6592 41.935 37.8197 41.935 39.2192C41.935 40.6187 42.3702 41.7536 43.2406 42.624C44.1281 43.4773 45.2886 43.904 46.7222 43.904C48.1899 43.904 49.3761 43.4603 50.2806 42.5728C51.2022 41.6683 51.663 40.4992 51.663 39.0656Z" fill="#9746A5"/>
<path d="M73.3484 30.2592C75.1063 30.2592 76.83 30.7371 78.5196 31.6928L78.0076 35.9168C76.7617 34.8757 75.3708 34.3552 73.8348 34.3552C72.2647 34.3552 70.9762 34.8245 69.9692 35.7632C68.9623 36.6848 68.4588 37.8709 68.4588 39.3216C68.4588 40.6869 68.9025 41.7963 69.79 42.6496C70.6775 43.4859 71.8295 43.904 73.246 43.904C74.5772 43.904 75.8828 43.5456 77.1628 42.8288L76.6252 47.1808C75.0892 47.7269 73.7495 48 72.606 48C70.0801 48 68.0151 47.2149 66.4108 45.6448C64.8236 44.0576 64.03 42.0181 64.03 39.5264C64.03 36.9323 64.926 34.7392 66.718 32.9472C68.5271 31.1552 70.7372 30.2592 73.3484 30.2592Z" fill="#9746A5"/>
<path d="M90.1272 44.8H84.0344L82.7288 47.6672H77.916L86.3896 30.592H91.2536L95.3752 47.6672H90.844L90.1272 44.8ZM87.3368 37.6064L85.6216 41.4208H89.308L88.5912 38.1696C88.4035 37.2651 88.2755 36.608 88.2072 36.1984C88.156 35.9083 88.1219 35.7035 88.1048 35.584C87.9171 36.1984 87.6611 36.8725 87.3368 37.6064Z" fill="#9746A5"/>
<path d="M104.426 30.2592C106.133 30.2592 107.788 30.7797 109.392 31.8208L107.498 35.0976C106.389 34.2613 105.39 33.8432 104.503 33.8432C103.905 33.8432 103.436 33.9797 103.095 34.2528C102.753 34.5088 102.583 34.8672 102.583 35.328C102.583 35.7376 102.728 36.0789 103.018 36.352C103.308 36.6251 103.888 36.9664 104.759 37.376C106.175 38.0416 107.157 38.7243 107.703 39.424C108.266 40.1237 108.548 41.0368 108.548 42.1632C108.548 43.8699 107.933 45.2693 106.704 46.3616C105.493 47.4539 103.931 48 102.02 48C100.996 48 100.065 47.8635 99.2292 47.5904C98.393 47.3173 97.4031 46.8309 96.2596 46.1312L98.2052 42.8544C99.5706 43.7931 100.774 44.2624 101.815 44.2624C102.497 44.2624 103.044 44.1088 103.453 43.8016C103.88 43.4773 104.093 43.0507 104.093 42.5216C104.093 42.1461 103.957 41.8304 103.684 41.5744C103.428 41.3013 102.899 40.9685 102.096 40.576C100.577 39.808 99.5364 39.0827 98.9732 38.4C98.4271 37.7003 98.154 36.7787 98.154 35.6352C98.154 34.0821 98.7428 32.8021 99.9204 31.7952C101.115 30.7712 102.617 30.2592 104.426 30.2592Z" fill="#9746A5"/>
<path d="M112.574 30.592H116.901L114.802 47.6672H110.475L112.574 30.592Z" fill="#9746A5"/>
<path d="M132.993 30.592H137.319L135.22 47.6672H130.484L125.953 40.0128C125.27 38.8864 124.57 37.4784 123.854 35.7888V36.5568C123.854 37.7344 123.794 38.8096 123.674 39.7824L122.702 47.6672H118.375L120.474 30.592H125.134L129.998 38.8352L130.74 40.2176L131.406 41.5232L131.738 42.1632C131.773 41.088 131.841 40.1152 131.943 39.2448L132.993 30.592Z" fill="#9746A5"/>
<path d="M148.707 30.2592C151.302 30.2592 153.409 30.9931 155.031 32.4608C156.669 33.9115 157.539 35.8485 157.642 38.272V38.6048C157.642 41.4037 156.788 43.6736 155.082 45.4144C153.375 47.1381 151.139 48 148.375 48C145.593 48 143.34 47.2064 141.616 45.6192C139.91 44.032 139.056 41.9499 139.056 39.3728C139.056 36.6933 139.952 34.5088 141.744 32.8192C143.553 31.1125 145.874 30.2592 148.707 30.2592ZM153.213 39.0656C153.213 38.9291 153.204 38.8267 153.187 38.7584C153.119 37.4101 152.658 36.3435 151.805 35.5584C150.969 34.7563 149.876 34.3552 148.528 34.3552C147.061 34.3552 145.849 34.816 144.893 35.7376C143.954 36.6592 143.485 37.8197 143.485 39.2192C143.485 40.6187 143.92 41.7536 144.791 42.624C145.678 43.4773 146.839 43.904 148.272 43.904C149.74 43.904 150.926 43.4603 151.831 42.5728C152.752 41.6683 153.213 40.4992 153.213 39.0656Z" fill="#9746A5"/>
<path d="M39.324 0.360172L31.6146 10.7498L30.6608 18.8398H26.1835L27.1638 10.6113L22.66 0.360172H27.6141L28.8328 3.32468C29.3627 4.63608 29.6806 5.46724 29.7866 5.81818C29.8042 5.87359 29.8307 5.97518 29.866 6.12294C29.919 6.25224 29.9544 6.35383 29.972 6.42771C30.1663 6.03983 30.4577 5.55036 30.8463 4.95931L33.893 0.360172H39.324Z" fill="#9746A5"/>
<path d="M48.6139 0C51.2986 0 53.4798 0.794228 55.1577 2.38268C56.8532 3.95267 57.754 6.04906 57.86 8.67186V9.03204C57.86 12.0612 56.9769 14.5178 55.2107 16.4017C53.4445 18.2672 51.1308 19.2 48.2695 19.2C45.3906 19.2 43.0593 18.3411 41.2754 16.6234C39.5092 14.9056 38.6261 12.6522 38.6261 9.86321C38.6261 6.96335 39.5534 4.59913 41.4079 2.77056C43.28 0.923521 45.6821 0 48.6139 0ZM53.2767 9.53074C53.2767 9.38297 53.2679 9.27215 53.2502 9.19827C53.1796 7.73911 52.7027 6.58471 51.8196 5.73507C50.9542 4.86696 49.8238 4.4329 48.4285 4.4329C46.9096 4.4329 45.6556 4.9316 44.6665 5.92901C43.6951 6.92641 43.2094 8.1824 43.2094 9.69697C43.2094 11.2115 43.6598 12.4398 44.5605 13.3818C45.4789 14.3053 46.68 14.7671 48.1636 14.7671C49.6825 14.7671 50.91 14.2869 51.8461 13.3264C52.7998 12.3475 53.2767 11.0823 53.2767 9.53074Z" fill="#9746A5"/>
<path d="M0 1.9625C0 1.07884 0.716345 0.3625 1.6 0.3625H24C24.8837 0.3625 25.6 1.07884 25.6 1.9625C25.6 2.84616 24.8837 3.5625 24 3.5625H1.6C0.716345 3.5625 0 2.84616 0 1.9625Z" fill="#9746A5"/>
<path d="M8 6.83438C8 5.95072 8.71635 5.23438 9.6 5.23438H25.6C26.4837 5.23438 27.2 5.95072 27.2 6.83438C27.2 7.71803 26.4837 8.43438 25.6 8.43438H9.6C8.71635 8.43438 8 7.71803 8 6.83438Z" fill="#9746A5"/>
<path d="M8.73028 17.2398C8.73028 16.3562 9.44662 15.6398 10.3303 15.6398H26.3303C27.2139 15.6398 27.9303 16.3562 27.9303 17.2398C27.9303 18.1235 27.2139 18.8398 26.3303 18.8398H10.3303C9.44662 18.8398 8.73028 18.1235 8.73028 17.2398Z" fill="#9746A5"/>
<path d="M3.2 11.7063C3.2 10.8226 3.91635 10.1063 4.8 10.1063H27.2C28.0837 10.1063 28.8 10.8226 28.8 11.7063C28.8 12.5899 28.0837 13.3063 27.2 13.3063H4.8C3.91635 13.3063 3.2 12.5899 3.2 11.7063Z" fill="#9746A5"/>
</svg>
