<svg width="108" height="18" viewBox="0 0 108 18" fill="none" xmlns="http://www.w3.org/2000/svg">
<path fill-rule="evenodd" clip-rule="evenodd" d="M29.0938 16.8174C29.5441 15.8847 30.1671 15.0774 30.9628 14.3952C31.7584 13.6992 32.6967 13.1633 33.7776 12.7874C34.8735 12.4116 36.0595 12.2236 37.3356 12.2236C38.6266 12.2236 39.8126 12.4116 40.8935 12.7874C41.9744 13.1633 42.9127 13.6992 43.7083 14.3952C44.504 15.0774 45.1195 15.8847 45.5548 16.8174H39.3874C39.1804 16.6748 38.9543 16.5565 38.7092 16.4625C38.2888 16.2954 37.831 16.2119 37.3356 16.2119C36.8401 16.2119 36.3748 16.2954 35.9394 16.4625C35.7027 16.5565 35.4803 16.6748 35.2722 16.8174H29.0938Z" fill="white"/>
<path fill-rule="evenodd" clip-rule="evenodd" d="M37.1329 11.8409C35.8698 11.8409 34.6958 11.6525 33.611 11.2757C32.541 10.8988 31.6123 10.3685 30.8247 9.68459C30.0371 8.98674 29.4204 8.17027 28.9746 7.23516C28.5436 6.30005 28.3281 5.28121 28.3281 4.17862C28.3281 3.06207 28.5436 2.04322 28.9746 1.12207H35.0905C34.9306 1.23302 34.7792 1.35864 34.6364 1.4989C34.3243 1.80595 34.0791 2.18977 33.9008 2.65034C33.7224 3.09696 33.6333 3.60639 33.6333 4.17862C33.6333 4.75085 33.7224 5.26725 33.9008 5.72782C34.0791 6.17444 34.3243 6.55826 34.6364 6.87926C34.9633 7.18631 35.3348 7.42358 35.7509 7.59106C36.1818 7.75854 36.6425 7.84228 37.1329 7.84228C37.6233 7.84228 38.0765 7.75854 38.4926 7.59106C38.9236 7.42358 39.2951 7.18631 39.6071 6.87926C39.9341 6.55826 40.1867 6.17444 40.365 5.72782C40.5433 5.26725 40.6325 4.75085 40.6325 4.17862C40.6325 3.60639 40.5433 3.09696 40.365 2.65034C40.1867 2.18977 39.9341 1.80595 39.6071 1.4989C39.4708 1.35864 39.3231 1.23302 39.164 1.12207H45.2689C45.7148 2.04322 45.9377 3.06207 45.9377 4.17862C45.9377 5.28121 45.7148 6.30005 45.2689 7.23516C44.838 8.17027 44.2287 8.98674 43.4411 9.68459C42.6535 10.3685 41.7247 10.8988 40.6548 11.2757C39.5849 11.6525 38.4109 11.8409 37.1329 11.8409Z" fill="white"/>
<path d="M6.81228 17.1747C5.50194 17.1747 4.23627 17.0258 3.01527 16.728C1.79427 16.4301 0.789182 16.043 0 15.5665L1.69749 11.7248C2.442 12.1567 3.2684 12.5066 4.17671 12.7746C5.0999 13.0277 5.99331 13.1543 6.85695 13.1543C7.36321 13.1543 7.75781 13.1245 8.04072 13.065C8.33852 12.9905 8.55443 12.8937 8.68844 12.7746C8.82246 12.6406 8.88946 12.4842 8.88946 12.3056C8.88946 12.0226 8.73312 11.7993 8.42042 11.6355C8.10773 11.4717 7.6908 11.3377 7.16964 11.2335C6.66337 11.1143 6.10499 10.9952 5.49449 10.8761C4.88399 10.7421 4.26605 10.5708 3.64066 10.3624C3.03016 10.1539 2.46433 9.87845 1.94317 9.53597C1.43691 9.1935 1.02743 8.74679 0.714731 8.19585C0.402036 7.63003 0.245689 6.93019 0.245689 6.09633C0.245689 5.12847 0.513713 4.24995 1.04976 3.46076C1.6007 2.65669 2.41222 2.01641 3.48431 1.53993C4.5713 1.06344 5.91886 0.825195 7.52701 0.825195C8.58421 0.825195 9.62653 0.936872 10.654 1.16022C11.6814 1.38358 12.6046 1.72605 13.4235 2.18765L11.8377 6.00699C11.0634 5.61985 10.3115 5.32949 9.58186 5.13591C8.86713 4.94234 8.16729 4.84556 7.48234 4.84556C6.97607 4.84556 6.57403 4.89023 6.27623 4.97957C5.97842 5.06891 5.76252 5.18803 5.6285 5.33693C5.50938 5.48584 5.44982 5.64963 5.44982 5.82831C5.44982 6.09633 5.60617 6.31224 5.91886 6.47603C6.23156 6.62494 6.64104 6.7515 7.14731 6.85573C7.66846 6.95997 8.23429 7.07164 8.84479 7.19076C9.47018 7.30989 10.0881 7.47368 10.6986 7.68214C11.3091 7.89061 11.8675 8.16607 12.3738 8.50855C12.8949 8.85102 13.3119 9.29773 13.6246 9.84867C13.9372 10.3996 14.0936 11.0846 14.0936 11.9035C14.0936 12.8565 13.8181 13.735 13.2672 14.5391C12.7311 15.3283 11.9271 15.9686 10.855 16.4599C9.78288 16.9364 8.43531 17.1747 6.81228 17.1747Z" fill="white"/>
<path d="M15.6621 16.8173V1.18256H20.9333V12.7299H27.9912V16.8173H15.6621Z" fill="white"/>
<path d="M51.3386 16.8173V5.26993H46.7599V1.18256H61.1885V5.26993H56.6098V16.8173H51.3386Z" fill="white"/>
<path d="M68.3871 17.1747C67.0768 17.1747 65.8111 17.0258 64.5901 16.728C63.3691 16.4301 62.364 16.043 61.5748 15.5665L63.2723 11.7248C64.0168 12.1567 64.8432 12.5066 65.7515 12.7746C66.6747 13.0277 67.5682 13.1543 68.4318 13.1543C68.9381 13.1543 69.3326 13.1245 69.6156 13.065C69.9134 12.9905 70.1293 12.8937 70.2633 12.7746C70.3973 12.6406 70.4643 12.4842 70.4643 12.3056C70.4643 12.0226 70.308 11.7993 69.9953 11.6355C69.6826 11.4717 69.2656 11.3377 68.7445 11.2335C68.2382 11.1143 67.6798 10.9952 67.0693 10.8761C66.4588 10.7421 65.8409 10.5708 65.2155 10.3624C64.605 10.1539 64.0392 9.87845 63.518 9.53597C63.0118 9.1935 62.6023 8.74679 62.2896 8.19585C61.9769 7.63003 61.8205 6.93019 61.8205 6.09633C61.8205 5.12847 62.0886 4.24995 62.6246 3.46076C63.1755 2.65669 63.9871 2.01641 65.0592 1.53993C66.1461 1.06344 67.4937 0.825195 69.1019 0.825195C70.1591 0.825195 71.2014 0.936872 72.2288 1.16022C73.2562 1.38358 74.1794 1.72605 74.9984 2.18765L73.4126 6.00699C72.6383 5.61985 71.8863 5.32949 71.1567 5.13591C70.442 4.94234 69.7421 4.84556 69.0572 4.84556C68.5509 4.84556 68.1489 4.89023 67.8511 4.97957C67.5533 5.06891 67.3374 5.18803 67.2033 5.33693C67.0842 5.48584 67.0247 5.64963 67.0247 5.82831C67.0247 6.09633 67.181 6.31224 67.4937 6.47603C67.8064 6.62494 68.2159 6.7515 68.7222 6.85573C69.2433 6.95997 69.8091 7.07164 70.4196 7.19076C71.045 7.30989 71.663 7.47368 72.2735 7.68214C72.884 7.89061 73.4424 8.16607 73.9486 8.50855C74.4698 8.85102 74.8867 9.29773 75.1994 9.84867C75.5121 10.3996 75.6684 11.0846 75.6684 11.9035C75.6684 12.8565 75.393 13.735 74.842 14.5391C74.306 15.3283 73.5019 15.9686 72.4298 16.4599C71.3577 16.9364 70.0102 17.1747 68.3871 17.1747Z" fill="white"/>
<path d="M79.4688 16.8174V1.18262H87.1744C88.9166 1.18262 90.4503 1.50276 91.7755 2.14304C93.1007 2.76843 94.1356 3.66184 94.8801 4.82328C95.6246 5.98471 95.9969 7.3695 95.9969 8.97765C95.9969 10.6007 95.6246 12.0004 94.8801 13.1767C94.1356 14.3381 93.1007 15.239 91.7755 15.8793C90.4503 16.5047 88.9166 16.8174 87.1744 16.8174H79.4688ZM84.7399 12.7076H86.9511C87.6956 12.7076 88.3433 12.5662 88.8943 12.2833C89.4601 12.0004 89.8994 11.5834 90.212 11.0325C90.5247 10.4667 90.6811 9.78172 90.6811 8.97765C90.6811 8.18847 90.5247 7.51841 90.212 6.96747C89.8994 6.41653 89.4601 5.9996 88.8943 5.71669C88.3433 5.43378 87.6956 5.29232 86.9511 5.29232H84.7399V12.7076Z" fill="url(#paint0_linear_8743_72117)"/>
<path d="M101.548 17.1747C100.327 17.1747 99.2249 16.9811 98.2421 16.594C97.2594 16.192 96.4404 15.6112 95.7852 14.8518L98.6218 11.5015C99.0387 12.0078 99.4482 12.395 99.8503 12.663C100.252 12.9161 100.669 13.0427 101.101 13.0427C102.233 13.0427 102.799 12.395 102.799 11.0995V5.15831H97.4827V1.18262H108.003V10.7868C108.003 12.931 107.452 14.5317 106.35 15.5889C105.248 16.6461 103.647 17.1747 101.548 17.1747Z" fill="url(#paint1_linear_8743_72117)"/>
<defs>
<linearGradient id="paint0_linear_8743_72117" x1="93.7357" y1="1.18262" x2="93.7357" y2="17.1747" gradientUnits="userSpaceOnUse">
<stop stop-color="#FFB630"/>
<stop offset="1" stop-color="#FF005B"/>
</linearGradient>
<linearGradient id="paint1_linear_8743_72117" x1="93.7357" y1="1.18262" x2="93.7357" y2="17.1747" gradientUnits="userSpaceOnUse">
<stop stop-color="#FFB630"/>
<stop offset="1" stop-color="#FF005B"/>
</linearGradient>
</defs>
</svg>
