<svg width="91" height="18" viewBox="0 0 91 18" fill="none" xmlns="http://www.w3.org/2000/svg">
<path d="M19.276 0.799868V17.6312H14.7761V8.11218L11.8987 12.7635H7.37722L4.49989 8.11218V17.6312H0V0.799868H4.49989L9.6488 9.10735L14.7761 0.799868H19.276Z" fill="#33FFF5"/>
<path d="M21.0983 2.24935C21.0983 1.10275 22.0718 0.367188 23.6078 0.367188C25.1439 0.367188 26.1174 1.10275 26.1174 2.24935C26.1174 3.39596 25.1439 4.13152 23.6078 4.13152C22.0718 4.13152 21.0983 3.39596 21.0983 2.24935ZM25.6414 4.694V17.6312H21.5742V4.694H25.6414Z" fill="white"/>
<path d="M41.7576 17.6312H33.8179C29.8589 17.6312 27.4575 15.1649 27.4575 11.141C27.4575 6.83577 29.8589 4.21805 33.8179 4.21805C35.5054 4.21805 36.7818 4.694 37.6904 5.66753V1.23255H41.7576V12.4606H37.6904V11.141C37.6904 9.04245 36.6087 7.87421 34.6617 7.87421C32.7146 7.87421 31.6329 9.04245 31.6329 11.141C31.6329 12.9582 32.7146 13.975 34.6617 13.975H41.7576V17.6312Z" fill="white"/>
<path d="M53.9211 17.6312V11.141C53.9211 9.04245 52.8394 7.87421 50.8923 7.87421C48.9452 7.87421 47.8635 9.04245 47.8635 11.141V17.6312H43.7963V4.694H47.8635V5.66753C48.7722 4.694 50.0486 4.21805 51.736 4.21805C55.6951 4.21805 57.9883 6.83577 57.9883 11.141V17.6312H53.9211Z" fill="white"/>
<path d="M59.6129 2.24935C59.6129 1.10275 60.5864 0.367188 62.1224 0.367188C63.6584 0.367188 64.632 1.10275 64.632 2.24935C64.632 3.39596 63.6584 4.13152 62.1224 4.13152C60.5864 4.13152 59.6129 3.39596 59.6129 2.24935ZM64.156 4.694V17.6312H60.0888V4.694H64.156Z" fill="white"/>
<path d="M70.3205 4.694H75.4911V8.35016H70.3205V11.141C70.3205 12.9582 71.4022 13.975 73.3493 13.975H76.5728V17.6312H73.3493C68.7196 17.6312 66.2533 15.338 66.2533 11.141V0.756601H70.3205V4.694Z" fill="white"/>
<path d="M84.9641 17.6312C80.3344 17.6312 77.76 15.338 77.76 11.141C77.76 6.94395 80.3344 4.65073 84.9641 4.65073H91V8.30689H84.9641C83.6228 8.30689 82.6925 8.80447 82.2382 9.69147H89.7885V12.4823H82.1949C82.6276 13.4558 83.5579 13.975 84.9641 13.975H91V17.6312H84.9641Z" fill="white"/>
</svg>
