<svg width="152" height="24" viewBox="0 0 152 24" fill="none" xmlns="http://www.w3.org/2000/svg">
<path d="M12.7076 14.0568C12.8519 13.5003 13.0065 12.954 13.1714 12.4181C13.3466 11.8719 13.5579 11.2638 13.8053 10.5939C14.0217 9.99615 14.2845 9.31078 14.5937 8.53781C14.9029 7.75453 15.2275 6.96095 15.5676 6.15706C15.918 5.35317 16.2582 4.60596 16.588 3.91544C16.9178 3.22492 17.2166 2.67353 17.4846 2.26128C17.8144 1.75627 18.17 1.3801 18.5513 1.13274C18.9429 0.885394 19.5149 0.761719 20.2673 0.761719H22.2925C22.8284 0.761719 23.2767 0.844169 23.6375 1.00907C24.0085 1.16366 24.2713 1.53984 24.4259 2.13761C24.5393 2.58078 24.6475 3.23007 24.7505 4.08549C24.8536 4.94092 24.9412 6.12614 25.0133 7.64116C25.0855 9.15618 25.1422 11.1041 25.1834 13.4848C25.2246 15.8553 25.2452 18.7874 25.2452 22.2812C25.2452 22.4667 25.1834 22.6213 25.0597 22.745C24.936 22.8687 24.7866 22.9305 24.6114 22.9305H21.0866C20.9114 22.9305 20.762 22.8687 20.6383 22.745C20.5147 22.6213 20.4528 22.4616 20.4528 22.2658C20.4528 19.5449 20.4528 17.2363 20.4528 15.34C20.4528 13.4436 20.4477 11.8719 20.4374 10.6248C20.427 9.37777 20.4116 8.38837 20.391 7.65662C20.3807 6.91457 20.3601 6.34257 20.3291 5.94063H20.2364C19.6901 7.19799 19.1078 8.59965 18.4895 10.1456C17.8711 11.6812 17.2682 13.2684 16.6807 14.9071C16.0933 16.5355 15.5676 18.1278 15.1039 19.6841C14.9699 20.1478 14.7998 20.4725 14.5937 20.658C14.3979 20.8332 13.9444 20.9208 13.2333 20.9208H11.4554C10.8474 20.9208 10.4403 20.8435 10.2341 20.6889C10.0383 20.5343 9.86826 20.1994 9.72398 19.6841C9.38387 18.5091 9.00769 17.2672 8.59544 15.9583C8.18319 14.6494 7.75548 13.3663 7.31231 12.1089C6.87944 10.8413 6.45688 9.67665 6.04463 8.6151C5.64269 7.54325 5.28197 6.65176 4.96247 5.94063H4.86972C4.78727 7.15677 4.71512 8.63572 4.65329 10.3775C4.59145 12.1192 4.53992 14.0104 4.49869 16.0511C4.46777 18.0917 4.44716 20.1736 4.43685 22.2967C4.43685 22.4822 4.37502 22.6368 4.25134 22.7605C4.12767 22.8738 3.97822 22.9305 3.80302 22.9305H0.633836C0.458629 22.9305 0.309188 22.8687 0.185513 22.745C0.0618377 22.6213 0 22.4616 0 22.2658C0.0103063 16.7725 0.118522 12.3872 0.324648 9.10981C0.54108 5.83241 0.772971 3.63717 1.02032 2.52409C1.18522 1.79235 1.4738 1.31826 1.88605 1.10183C2.30861 0.875088 2.78785 0.761719 3.32378 0.761719H5.8282C6.39505 0.761719 6.8073 0.864782 7.06495 1.07091C7.33292 1.26673 7.65757 1.65321 8.0389 2.23036C8.26564 2.57047 8.5336 3.08063 8.84279 3.76085C9.16228 4.44106 9.49208 5.19857 9.83219 6.03338C10.1723 6.85788 10.4918 7.67723 10.7907 8.49143C11.0999 9.29532 11.3524 9.99615 11.5482 10.5939C11.7543 11.202 11.945 11.7946 12.1202 12.3717C12.2954 12.9386 12.45 13.5003 12.584 14.0568H12.7076Z" fill="#FF2682"/>
<path d="M32.238 22.9307H27.9609L34.0004 7.4713H38.2775L44.3067 22.9307H40.0296L39.0299 20.1789H33.2378L32.238 22.9307ZM34.5363 16.6233H37.7416L36.1338 12.2122L34.5363 16.6233Z" fill="white"/>
<path d="M51.8509 22.9307H47.7696V11.027H43.4822V7.4713H56.1383V11.027H51.8509V22.9307Z" fill="white"/>
<path d="M70.8866 21.0137C70.1583 21.7146 69.296 22.2608 68.2997 22.6524C67.3103 23.0441 66.2316 23.2399 65.0635 23.2399C63.8886 23.2399 62.7996 23.0407 61.7965 22.6421C60.8002 22.2368 59.931 21.6734 59.189 20.9519C58.4538 20.2236 57.8801 19.3716 57.4678 18.396C57.0624 17.4203 56.8597 16.3553 56.8597 15.201C56.8597 14.0467 57.0624 12.9817 57.4678 12.0061C57.8801 11.0304 58.4538 10.1818 59.189 9.46041C59.931 8.7321 60.8002 8.16869 61.7965 7.77018C62.7996 7.3648 63.8886 7.16211 65.0635 7.16211C66.2247 7.16211 67.2966 7.36136 68.2791 7.75987C69.2685 8.15151 70.1274 8.69775 70.8557 9.39857L68.0111 12.2637C67.6539 11.7828 67.2141 11.4049 66.6919 11.13C66.1766 10.8552 65.6132 10.7178 65.0017 10.7178C64.4383 10.7178 63.9161 10.8311 63.4352 11.0579C62.9542 11.2846 62.5316 11.6007 62.1675 12.0061C61.8102 12.4114 61.5319 12.8855 61.3327 13.4283C61.1334 13.9711 61.0338 14.5586 61.0338 15.1907C61.0338 15.8297 61.1334 16.4206 61.3327 16.9634C61.5319 17.5062 61.8102 17.9837 62.1675 18.396C62.5316 18.8013 62.9542 19.1174 63.4352 19.3441C63.9161 19.5709 64.4383 19.6842 65.0017 19.6842C65.6132 19.6842 66.1766 19.5468 66.6919 19.272C67.2073 18.9972 67.6436 18.6193 68.0008 18.1383L70.8866 21.0137Z" fill="white"/>
<path d="M76.5241 22.9307H72.4428V7.4713H76.5241V13.552H81.9143V7.4713H85.9956V22.9307H81.9143V17.1077H76.5241V22.9307Z" fill="white"/>
<path d="M88.0672 22.9307V7.4713H93.952C95.7316 7.4713 97.1058 7.83202 98.0746 8.55346C99.0434 9.2749 99.5277 10.2952 99.5277 11.6144C99.5277 12.3496 99.3628 13.0058 99.033 13.5829C98.7032 14.1532 98.2566 14.5998 97.6932 14.9227C98.5315 15.1976 99.1808 15.6442 99.6411 16.2626C100.101 16.8809 100.332 17.6402 100.332 18.5402C100.332 19.4335 100.115 20.2099 99.6823 20.8695C99.2495 21.5222 98.6345 22.0306 97.8375 22.3948C97.0405 22.7521 96.0992 22.9307 95.0136 22.9307H88.0672ZM92.1484 13.7066H93.6738C94.2578 13.7066 94.7078 13.5898 95.0239 13.3562C95.3468 13.1157 95.5083 12.7756 95.5083 12.3359C95.5083 11.9305 95.3468 11.611 95.0239 11.3774C94.701 11.1438 94.2509 11.027 93.6738 11.027H92.1484V13.7066ZM92.1484 19.3751H93.952C94.4193 19.3751 94.8178 19.3235 95.1476 19.2205C95.4774 19.1105 95.7282 18.9559 95.8999 18.7567C96.0717 18.5505 96.1576 18.3032 96.1576 18.0146C96.1576 17.726 96.082 17.4856 95.9309 17.2932C95.7797 17.0939 95.5564 16.9462 95.2609 16.85C94.9724 16.7469 94.6185 16.6954 94.1994 16.6954H92.1484V19.3751Z" fill="white"/>
<path d="M109.669 23.2399C108.487 23.2399 107.395 23.0407 106.392 22.6421C105.395 22.2368 104.526 21.6734 103.784 20.9519C103.049 20.2236 102.479 19.3716 102.073 18.396C101.668 17.4203 101.465 16.3553 101.465 15.201C101.465 14.0467 101.668 12.9817 102.073 12.0061C102.479 11.0304 103.049 10.1818 103.784 9.46041C104.526 8.7321 105.395 8.16869 106.392 7.77018C107.395 7.3648 108.487 7.16211 109.669 7.16211C110.858 7.16211 111.95 7.3648 112.947 7.77018C113.943 8.16869 114.805 8.7321 115.533 9.46041C116.269 10.1818 116.839 11.0304 117.244 12.0061C117.65 12.9817 117.852 14.0467 117.852 15.201C117.852 16.3553 117.65 17.4203 117.244 18.396C116.839 19.3716 116.269 20.2236 115.533 20.9519C114.805 21.6734 113.943 22.2368 112.947 22.6421C111.95 23.0407 110.858 23.2399 109.669 23.2399ZM109.669 19.6842C110.239 19.6842 110.768 19.5709 111.256 19.3441C111.744 19.1174 112.167 18.8013 112.524 18.396C112.888 17.9837 113.17 17.5062 113.369 16.9634C113.575 16.4206 113.678 15.8331 113.678 15.201C113.678 14.5689 113.575 13.9814 113.369 13.4386C113.17 12.8958 112.888 12.4217 112.524 12.0164C112.167 11.6041 111.744 11.2846 111.256 11.0579C110.768 10.8311 110.239 10.7178 109.669 10.7178C109.099 10.7178 108.566 10.8311 108.072 11.0579C107.584 11.2846 107.158 11.6041 106.794 12.0164C106.43 12.4217 106.144 12.8958 105.938 13.4386C105.739 13.9814 105.639 14.5689 105.639 15.201C105.639 15.8331 105.739 16.4206 105.938 16.9634C106.144 17.5062 106.43 17.9837 106.794 18.396C107.158 18.8013 107.584 19.1174 108.072 19.3441C108.566 19.5709 109.099 19.6842 109.669 19.6842Z" fill="white"/>
<path d="M127.293 23.2399C126.111 23.2399 125.019 23.0407 124.015 22.6421C123.019 22.2368 122.15 21.6734 121.408 20.9519C120.673 20.2236 120.103 19.3716 119.697 18.396C119.292 17.4203 119.089 16.3553 119.089 15.201C119.089 14.0467 119.292 12.9817 119.697 12.0061C120.103 11.0304 120.673 10.1818 121.408 9.46041C122.15 8.7321 123.019 8.16869 124.015 7.77018C125.019 7.3648 126.111 7.16211 127.293 7.16211C128.482 7.16211 129.574 7.3648 130.57 7.77018C131.567 8.16869 132.429 8.7321 133.157 9.46041C133.892 10.1818 134.463 11.0304 134.868 12.0061C135.273 12.9817 135.476 14.0467 135.476 15.201C135.476 16.3553 135.273 17.4203 134.868 18.396C134.463 19.3716 133.892 20.2236 133.157 20.9519C132.429 21.6734 131.567 22.2368 130.57 22.6421C129.574 23.0407 128.482 23.2399 127.293 23.2399ZM127.293 19.6842C127.863 19.6842 128.392 19.5709 128.88 19.3441C129.368 19.1174 129.79 18.8013 130.148 18.396C130.512 17.9837 130.794 17.5062 130.993 16.9634C131.199 16.4206 131.302 15.8331 131.302 15.201C131.302 14.5689 131.199 13.9814 130.993 13.4386C130.794 12.8958 130.512 12.4217 130.148 12.0164C129.79 11.6041 129.368 11.2846 128.88 11.0579C128.392 10.8311 127.863 10.7178 127.293 10.7178C126.723 10.7178 126.19 10.8311 125.695 11.0579C125.208 11.2846 124.782 11.6041 124.417 12.0164C124.053 12.4217 123.768 12.8958 123.562 13.4386C123.363 13.9814 123.263 14.5689 123.263 15.201C123.263 15.8331 123.363 16.4206 123.562 16.9634C123.768 17.5062 124.053 17.9837 124.417 18.396C124.782 18.8013 125.208 19.1174 125.695 19.3441C126.19 19.5709 126.723 19.6842 127.293 19.6842Z" fill="white"/>
<path d="M141.206 22.9307H137.125V7.4713H141.206V13.9333C141.57 13.3974 141.917 12.9027 142.247 12.4492C142.577 11.9958 142.855 11.6282 143.082 11.3465L146.164 7.4713H150.966L145.267 14.6342L151.997 22.9307H146.731L142.66 17.9116L141.206 19.7461V22.9307Z" fill="white"/>
</svg>
