<svg width="177" height="40" viewBox="0 0 177 40" fill="none" xmlns="http://www.w3.org/2000/svg">
<path d="M1.10828 34.9761C0.747066 34.9761 0.451523 34.8611 0.221657 34.6313C0.0246285 34.3685 -0.0410476 34.0402 0.0246285 33.6461L6.82211 1.82604C6.88778 1.46482 7.06839 1.15286 7.36393 0.890151C7.69231 0.627446 8.03711 0.496094 8.39833 0.496094H18.0527C18.4139 0.496094 18.6931 0.627446 18.8901 0.890151C19.12 1.15286 19.2021 1.46482 19.1364 1.82604L16.9198 12.17H24.8995L27.116 1.82604C27.1817 1.46482 27.3623 1.15286 27.6579 0.890151C27.9862 0.627446 28.331 0.496094 28.6923 0.496094H38.3466C38.7079 0.496094 38.987 0.627446 39.184 0.890151C39.4139 1.15286 39.496 1.46482 39.4303 1.82604L32.6328 33.6461C32.5671 34.0073 32.3701 34.3193 32.0417 34.582C31.7462 34.8447 31.4178 34.9761 31.0566 34.9761H21.4022C21.041 34.9761 20.7454 34.8447 20.5156 34.582C20.3185 34.3193 20.2529 34.0073 20.3185 33.6461L22.5844 23.0066H14.6047L12.3389 33.6461C12.2732 34.0073 12.0762 34.3193 11.7478 34.582C11.4523 34.8447 11.1239 34.9761 10.7627 34.9761H1.10828Z" fill="white"/>
<path d="M47.7293 34.9761C47.3681 34.9761 47.0726 34.8447 46.8427 34.582C46.6457 34.3193 46.58 34.0073 46.6457 33.6461L48.7145 23.9425L42.3111 2.02306C42.1797 1.62901 42.2454 1.28421 42.5081 0.988664C42.8036 0.660284 43.1649 0.496094 43.5917 0.496094H52.3595C53.0163 0.496094 53.476 0.660284 53.7387 0.988664C54.0014 1.31705 54.1492 1.56333 54.182 1.72752L56.9897 11.6282L64.0334 1.72752C64.132 1.56333 64.3782 1.31705 64.7723 0.988664C65.1664 0.660284 65.6918 0.496094 66.3485 0.496094H76.1014C76.5612 0.496094 76.8403 0.676704 76.9388 1.03792C77.0702 1.39914 77.0209 1.72752 76.791 2.02306L61.0288 23.9425L58.96 33.6461C58.8943 34.0073 58.6973 34.3193 58.3689 34.582C58.0733 34.8447 57.745 34.9761 57.3837 34.9761H47.7293Z" fill="white"/>
<path d="M74.0319 34.9761C73.6706 34.9761 73.3751 34.8447 73.1452 34.582C72.9482 34.3193 72.8825 34.0073 72.9482 33.6461L79.7457 1.82604C79.8114 1.46482 79.992 1.15286 80.2875 0.890151C80.6159 0.627446 80.9607 0.496094 81.3219 0.496094H95.2617C97.3633 0.496094 99.3007 0.742379 101.074 1.23495C102.88 1.72752 104.407 2.4828 105.655 3.50078C106.936 4.48592 107.839 5.73376 108.364 7.24432C108.889 8.75487 108.939 10.5281 108.512 12.5641C107.658 16.636 105.901 19.6078 103.241 21.4796C100.581 23.3185 96.9036 24.238 92.2077 24.238H87.7746L77.6777 33.6461C77.612 34.0073 77.415 34.3193 77.0866 34.582C76.791 34.8447 76.4626 34.9761 76.1014 34.9761H74.0319ZM89.4493 15.1254H92.8973C93.4227 15.1254 93.9646 14.9284 94.5228 14.5344C95.1139 14.1075 95.5244 13.4179 95.7542 12.4656C95.8527 12.0387 95.8692 11.6118 95.8035 11.1849C95.7706 10.758 95.6229 10.3968 95.3602 10.1012C95.0975 9.80569 94.6706 9.65791 94.0795 9.65791H90.6315L89.4493 15.1254Z" fill="#F4EF01"/>
<path d="M108.762 34.9761C108.401 34.9761 108.105 34.8447 107.875 34.582C107.678 34.3193 107.613 34.0073 107.678 33.6461L114.476 1.82604C114.541 1.46482 114.722 1.15286 115.018 0.890151C115.346 0.627446 115.691 0.496094 116.052 0.496094H141.321C141.682 0.496094 141.961 0.627446 142.158 0.890151C142.388 1.15286 142.47 1.46482 142.405 1.82604L140.927 8.77129C140.861 9.1325 140.664 9.44446 140.336 9.70717C140.007 9.96988 139.663 10.1012 139.301 10.1012H124.524L123.835 13.2044H137.528C137.889 13.2044 138.168 13.3358 138.365 13.5985C138.595 13.8612 138.677 14.1731 138.612 14.5344L137.233 20.9378C137.167 21.299 136.97 21.611 136.641 21.8737C136.313 22.1364 135.968 22.2677 135.607 22.2677H121.914L121.273 25.3709H136.444C136.806 25.3709 137.085 25.5023 137.282 25.765C137.479 26.0277 137.545 26.3396 137.479 26.7009L136.001 33.6461C135.935 34.0073 135.738 34.3193 135.41 34.582C135.114 34.8447 134.786 34.9761 134.425 34.9761H108.762Z" fill="white"/>
<path d="M142.258 34.9761C141.896 34.9761 141.617 34.8447 141.42 34.582C141.223 34.3193 141.157 34.0073 141.223 33.6461L147.971 1.82604C148.037 1.46482 148.234 1.15286 148.562 0.890151C148.891 0.627446 149.236 0.496094 149.597 0.496094H164.177C168.906 0.496094 172.37 1.56333 174.57 3.6978C176.77 5.83228 177.476 8.75487 176.688 12.4656C176.229 14.6657 175.325 16.5867 173.979 18.2286C172.633 19.8377 171.089 21.1348 169.349 22.12L172.994 33.3506C173.027 33.4491 173.043 33.5312 173.043 33.5969C173.076 33.6625 173.076 33.761 173.043 33.8924C172.978 34.1879 172.813 34.4506 172.551 34.6805C172.288 34.8775 172.009 34.9761 171.713 34.9761H161.616C160.959 34.9761 160.499 34.8119 160.236 34.4835C160.007 34.1551 159.859 33.876 159.793 33.6461L157.576 24.238H155.557L153.537 33.6461C153.472 34.0073 153.275 34.3193 152.946 34.582C152.618 34.8447 152.273 34.9761 151.912 34.9761H142.258ZM157.527 14.8792H161.123C161.878 14.8792 162.502 14.6329 162.995 14.1403C163.487 13.6149 163.799 13.0238 163.931 12.3671C164.062 11.7103 164.013 11.1028 163.783 10.5445C163.553 9.95346 163.028 9.65791 162.207 9.65791H158.611L157.527 14.8792Z" fill="white"/>
<path fill-rule="evenodd" clip-rule="evenodd" d="M90.929 38.6987L90.9131 38.7016L90.8099 38.7525L90.7808 38.7583L90.7605 38.7525L90.6573 38.7016C90.6418 38.6968 90.6302 38.6992 90.6224 38.7089L90.6166 38.7234L90.5919 39.3454L90.5992 39.3745L90.6137 39.3934L90.7648 39.5009L90.7866 39.5067L90.8041 39.5009L90.9552 39.3934L90.9726 39.3701L90.9785 39.3454L90.9537 38.7249C90.9499 38.7094 90.9416 38.7007 90.929 38.6987ZM91.3141 38.5345L91.2953 38.5374L91.0264 38.6726L91.0119 38.6871L91.0075 38.7031L91.0337 39.328L91.0409 39.3454L91.0526 39.3556L91.3447 39.4907C91.3631 39.4956 91.3771 39.4917 91.3868 39.4791L91.3926 39.4587L91.3432 38.5665C91.3384 38.549 91.3287 38.5384 91.3141 38.5345ZM90.2751 38.5374C90.2687 38.5335 90.261 38.5323 90.2537 38.5339C90.2464 38.5355 90.24 38.5399 90.2359 38.5461L90.2271 38.5665L90.1777 39.4587C90.1787 39.4762 90.1869 39.4878 90.2024 39.4936L90.2242 39.4907L90.5163 39.3556L90.5309 39.3439L90.5367 39.328L90.5614 38.7031L90.557 38.6856L90.5425 38.6711L90.2751 38.5374Z" fill="#242043"/>
<path fill-rule="evenodd" clip-rule="evenodd" d="M87.5651 5.94228C87.7717 5.476 88.232 5.17578 88.742 5.17578H98.4417C99.398 5.17578 100.021 6.18501 99.5931 7.04349L96.19 15.8265H100.472C101.619 15.8265 102.193 17.2165 101.382 18.0289L78.4203 36.2967C77.4589 36.0533 75.8575 35.062 76.2884 34.977L87.2583 22.2141H82.6708C82.4562 22.214 82.2451 22.1603 82.0565 22.0578C81.868 21.9553 81.708 21.8072 81.5911 21.627C81.4742 21.4467 81.404 21.2401 81.3871 21.0258C81.3701 20.8116 81.4068 20.5964 81.4939 20.4L87.5651 5.94228Z" fill="#242043"/>
</svg>
