<svg width="116" height="20" viewBox="0 0 116 20" fill="none" xmlns="http://www.w3.org/2000/svg">
<path d="M0.970472 18.8375C0.323491 18.8375 0 18.5141 0 17.8671V5.94413C0.693194 5.66685 1.62901 5.42423 2.80744 5.21627C3.98587 4.98521 5.32604 4.86967 6.82797 4.86967C8.30678 4.86967 9.48521 4.9621 10.3633 5.14695C11.2644 5.3318 11.9461 5.63219 12.4082 6.04811C12.8703 6.44092 13.1707 6.96081 13.3093 7.60779C13.4711 8.25477 13.552 9.05195 13.552 9.99931V17.5205C13.552 17.844 13.5173 18.1097 13.448 18.3176C13.4018 18.5256 13.2747 18.6642 13.0667 18.7336C12.8819 18.8029 12.593 18.8375 12.2002 18.8375H10.2939V9.30612C10.2939 8.40497 10.0167 7.75799 9.46211 7.36517C8.90755 6.97236 8.0295 6.77596 6.82797 6.77596C6.45826 6.77596 6.04235 6.81062 5.58022 6.87994C5.11809 6.92615 4.67906 7.00702 4.26315 7.12256C3.84723 7.23809 3.51219 7.38828 3.25801 7.57313V18.8375H0.970472Z" fill="white"/>
<path d="M23.4687 19.0455C22.0361 19.0455 20.8692 18.9762 19.9681 18.8375C19.0669 18.722 18.3737 18.5025 17.8885 18.179C17.4032 17.8555 17.0682 17.4165 16.8833 16.8619C16.7216 16.3074 16.6407 15.6142 16.6407 14.7824C16.6407 13.6039 16.7678 12.7143 17.022 12.1136C17.2993 11.4897 17.7614 11.0622 18.4084 10.8311C19.0785 10.6001 19.9681 10.4846 21.0772 10.4846C21.6548 10.4846 22.2903 10.4961 22.9835 10.5192C23.6998 10.5423 24.3814 10.577 25.0284 10.6232C25.6985 10.6463 26.2761 10.681 26.7614 10.7272C27.2697 10.7734 27.6048 10.8311 27.7665 10.9005C27.7665 9.92999 27.6856 9.16748 27.5239 8.61293C27.3621 8.05837 27.0964 7.64245 26.7267 7.36517C26.3801 7.0879 25.9411 6.90305 25.4096 6.81062C24.8782 6.71819 24.2543 6.67198 23.538 6.67198C22.7524 6.67198 21.9668 6.69509 21.1812 6.7413C20.4186 6.78751 19.6908 6.86839 18.9976 6.98392C18.3275 7.09945 17.7729 7.24964 17.3339 7.43449V6.77596C17.3339 6.24451 17.4726 5.86325 17.7498 5.63219C18.0502 5.40112 18.4084 5.25093 18.8243 5.18161C19.2864 5.06608 19.9681 4.97365 20.8692 4.90433C21.7704 4.83501 22.7293 4.81191 23.746 4.83502C25.0399 4.83502 26.1375 4.90433 27.0386 5.04297C27.9629 5.15851 28.7023 5.41268 29.2569 5.80549C29.8345 6.1983 30.2505 6.78751 30.5046 7.57313C30.7819 8.35875 30.9205 9.4101 30.9205 10.7272V17.7978C30.7126 18.2368 30.0078 18.5603 28.8063 18.7682C27.6048 18.9531 25.8256 19.0455 23.4687 19.0455ZM23.4687 17.5898C24.393 17.5898 25.1439 17.5667 25.7216 17.5205C26.3223 17.4512 26.7845 17.3703 27.108 17.2779C27.4315 17.1623 27.651 17.0237 27.7665 16.8619V12.0789C27.5585 12.0096 27.1888 11.9518 26.6574 11.9056C26.1259 11.8363 25.5714 11.7785 24.9937 11.7323C24.4161 11.6861 23.9308 11.663 23.538 11.663C22.6831 11.663 21.9899 11.7207 21.4584 11.8363C20.927 11.9518 20.5457 12.2175 20.3147 12.6335C20.0836 13.0494 19.9681 13.6964 19.9681 14.5744C19.9681 15.2907 20.0489 15.8684 20.2107 16.3074C20.3724 16.7464 20.6959 17.0699 21.1812 17.2779C21.6895 17.4858 22.452 17.5898 23.4687 17.5898Z" fill="white"/>
<path d="M37.6107 18.9762C36.386 18.9762 35.5542 18.6874 35.1152 18.1097C34.6762 17.5089 34.4566 16.6193 34.4566 15.4409L34.4913 5.00831H37.7147V15.2676C37.7147 16.1456 37.8186 16.7464 38.0266 17.0699C38.2577 17.3934 38.6389 17.5551 39.1704 17.5551C39.3783 17.5551 39.6094 17.532 39.8636 17.4858C40.1177 17.4396 40.2795 17.4049 40.3488 17.3818V18.6989C40.2564 18.722 40.1062 18.7567 39.8982 18.8029C39.6903 18.8491 39.4014 18.8838 39.0317 18.9069C38.662 18.9531 38.1883 18.9762 37.6107 18.9762ZM36.155 3.10203C35.6235 3.10203 35.2192 3.03271 34.9419 2.89407C34.6877 2.73233 34.5606 2.44349 34.5606 2.02758C34.5606 1.61166 34.6877 1.33438 34.9419 1.19574C35.196 1.034 35.6004 0.953125 36.155 0.953125C36.6864 0.953125 37.0677 1.034 37.2987 1.19574C37.5529 1.33438 37.68 1.61166 37.68 2.02758C37.68 2.44349 37.5529 2.73233 37.2987 2.89407C37.0677 3.03271 36.6864 3.10203 36.155 3.10203Z" fill="white"/>
<path d="M45.8388 18.8375H43.6206C43.274 18.8375 43.0083 18.7451 42.8234 18.5603C42.6386 18.3754 42.5462 18.0288 42.5462 17.5205V5.70151C43.1007 5.53976 43.8748 5.36646 44.8684 5.18161C45.8619 4.99676 47.0519 4.90433 48.4383 4.90433C49.8016 4.90433 50.8761 4.99676 51.6617 5.18161C52.4473 5.34336 53.025 5.59753 53.3947 5.94413C53.7875 6.26762 54.0301 6.67198 54.1225 7.15722C54.238 7.61935 54.2958 8.16235 54.2958 8.78622H51.1764L51.1418 8.30099C51.1418 7.74643 50.9916 7.35362 50.6912 7.12256C50.4139 6.86839 50.0789 6.70664 49.6861 6.63732C49.2933 6.568 48.9004 6.53334 48.5076 6.53334C47.9069 6.53334 47.3639 6.59111 46.8786 6.70664C46.4165 6.82217 46.0699 6.97236 45.8388 7.15722V18.8375Z" fill="white"/>
<path d="M63.1378 19.0455C61.7052 19.0455 60.5384 18.9762 59.6372 18.8375C58.736 18.722 58.0429 18.5025 57.5576 18.179C57.0724 17.8555 56.7373 17.4165 56.5525 16.8619C56.3907 16.3074 56.3099 15.6142 56.3099 14.7824C56.3099 13.6039 56.437 12.7143 56.6911 12.1136C56.9684 11.4897 57.4305 11.0622 58.0775 10.8311C58.7476 10.6001 59.6372 10.4846 60.7463 10.4846C61.324 10.4846 61.9594 10.4961 62.6526 10.5192C63.3689 10.5423 64.0505 10.577 64.6975 10.6232C65.3676 10.6463 65.9453 10.681 66.4305 10.7272C66.9389 10.7734 67.2739 10.8311 67.4356 10.9005C67.4356 9.92999 67.3548 9.16748 67.193 8.61293C67.0313 8.05837 66.7655 7.64245 66.3959 7.36517C66.0492 7.0879 65.6102 6.90305 65.0788 6.81062C64.5473 6.71819 63.9235 6.67198 63.2072 6.67198C62.4215 6.67198 61.6359 6.69509 60.8503 6.7413C60.0878 6.78751 59.3599 6.86839 58.6667 6.98392C57.9966 7.09945 57.4421 7.24964 57.0031 7.43449V6.77596C57.0031 6.24451 57.1417 5.86325 57.419 5.63219C57.7194 5.40112 58.0775 5.25093 58.4934 5.18161C58.9556 5.06608 59.6372 4.97365 60.5384 4.90433C61.4395 4.83501 62.3984 4.81191 63.4151 4.83502C64.7091 4.83502 65.8066 4.90433 66.7078 5.04297C67.632 5.15851 68.3715 5.41268 68.926 5.80549C69.5037 6.1983 69.9196 6.78751 70.1738 7.57313C70.451 8.35875 70.5897 9.4101 70.5897 10.7272V17.7978C70.3817 18.2368 69.677 18.5603 68.4754 18.7682C67.2739 18.9531 65.4947 19.0455 63.1378 19.0455ZM63.1378 17.5898C64.0621 17.5898 64.8131 17.5667 65.3907 17.5205C65.9915 17.4512 66.4536 17.3703 66.7771 17.2779C67.1006 17.1623 67.3201 17.0237 67.4356 16.8619V12.0789C67.2277 12.0096 66.858 11.9518 66.3265 11.9056C65.7951 11.8363 65.2405 11.7785 64.6629 11.7323C64.0852 11.6861 63.6 11.663 63.2072 11.663C62.3522 11.663 61.659 11.7207 61.1276 11.8363C60.5961 11.9518 60.2149 12.2175 59.9838 12.6335C59.7527 13.0494 59.6372 13.6964 59.6372 14.5744C59.6372 15.2907 59.7181 15.8684 59.8798 16.3074C60.0416 16.7464 60.3651 17.0699 60.8503 17.2779C61.3586 17.4858 62.1211 17.5898 63.1378 17.5898Z" fill="white"/>
<path d="M80.8151 18.9415C79.4287 18.9415 78.2849 18.8722 77.3838 18.7336C76.5057 18.5718 75.8241 18.2599 75.3389 17.7978C74.8767 17.3356 74.5532 16.654 74.3684 15.7528C74.2066 14.8517 74.1258 13.6501 74.1258 12.1482L74.0911 1.33438H77.2798V5.11229C77.3722 5.11229 77.5918 5.11229 77.9383 5.11229C78.2849 5.08919 78.6893 5.07763 79.1514 5.07763C79.6367 5.05453 80.1104 5.03142 80.5725 5.00831C81.0346 4.98521 81.439 4.97365 81.7856 4.97365C83.4492 4.97365 84.7432 5.19317 85.6675 5.63219C86.5917 6.07121 87.2387 6.79907 87.6084 7.81575C88.0012 8.83244 88.2092 10.2073 88.2323 11.9403C88.2323 13.6039 88.059 14.9094 87.7124 15.8568C87.3889 16.8042 86.9152 17.4974 86.2913 17.9364C85.6675 18.3754 84.8934 18.6527 83.9691 18.7682C83.0449 18.8838 81.9935 18.9415 80.8151 18.9415ZM80.8498 17.1392C81.9358 17.1392 82.7676 17.0237 83.3453 16.7926C83.946 16.5384 84.362 16.0301 84.593 15.2676C84.8472 14.5051 84.9743 13.3498 84.9743 11.8016C84.9512 10.5308 84.8125 9.53718 84.5584 8.82088C84.3042 8.10458 83.8883 7.59624 83.3106 7.29586C82.7561 6.97236 82.0051 6.81062 81.0577 6.81062C80.8036 6.81062 80.4801 6.82217 80.0872 6.84528C79.6944 6.84528 79.3016 6.85683 78.9088 6.87994C78.516 6.87994 78.1694 6.89149 77.869 6.9146C77.5918 6.9146 77.4069 6.9146 77.3145 6.9146V12.5295C77.3145 13.5462 77.3491 14.3549 77.4184 14.9557C77.5109 15.5564 77.6726 16.0186 77.9037 16.342C78.1348 16.6424 78.4814 16.8504 78.9435 16.9659C79.4287 17.0815 80.0641 17.1392 80.8498 17.1392Z" fill="#45FAF5"/>
<path d="M98.4206 19.0455C97.0111 19.0455 95.8211 18.9531 94.8507 18.7682C93.9033 18.5834 93.1408 18.2368 92.5631 17.7284C92.0086 17.2201 91.6158 16.5153 91.3847 15.6142C91.1536 14.713 91.0381 13.5462 91.0381 12.1136C91.0381 10.4037 91.2576 9.01729 91.6966 7.95439C92.1357 6.89149 92.9097 6.11742 94.0188 5.63219C95.1511 5.12385 96.7223 4.86967 98.7326 4.86967C100.304 4.86967 101.552 5.06608 102.476 5.45889C103.423 5.82859 104.105 6.41781 104.521 7.22654C104.937 8.03526 105.145 9.0635 105.145 10.3113V12.5295H95.4052C95.4052 12.1598 95.4861 11.8594 95.6478 11.6283C95.8096 11.3973 96.11 11.2817 96.549 11.2817H102.233L102.199 10.3806C102.175 9.08661 101.898 8.13924 101.367 7.53847C100.858 6.9377 99.9341 6.63732 98.5939 6.63732C97.4848 6.63732 96.6183 6.81062 95.9944 7.15722C95.3706 7.50381 94.9315 8.06992 94.6774 8.85554C94.4232 9.61806 94.2961 10.681 94.2961 12.0442C94.2961 13.4537 94.4348 14.5282 94.712 15.2676C95.0124 15.9839 95.4977 16.4691 96.1677 16.7233C96.8609 16.9775 97.8198 17.1046 99.0445 17.1046C99.4835 17.1046 99.9919 17.093 100.57 17.0699C101.17 17.0468 101.771 17.0121 102.372 16.9659C102.996 16.9197 103.55 16.8619 104.035 16.7926C104.521 16.7233 104.844 16.654 105.006 16.5847V17.0699C105.006 17.3241 104.948 17.5782 104.833 17.8324C104.717 18.0866 104.475 18.2945 104.105 18.4563C103.62 18.6874 102.903 18.8375 101.956 18.9069C101.032 18.9993 99.8532 19.0455 98.4206 19.0455Z" fill="#45FAF5"/>
<path d="M112.266 18.9415C111.342 18.9415 110.614 18.8375 110.083 18.6296C109.574 18.4216 109.204 18.0519 108.973 17.5205C108.742 16.989 108.627 16.2727 108.627 15.3716V6.77596H107.24V5.00831H108.627V2.72077C108.627 2.30485 108.661 2.00447 108.731 1.81962C108.8 1.61166 108.916 1.48457 109.077 1.43836C109.262 1.36904 109.528 1.33438 109.875 1.33438H111.885C111.885 1.3806 111.885 1.48457 111.885 1.64632C111.885 1.78496 111.885 1.99292 111.885 2.2702V5.00831H115.143V6.77596H111.885V15.0596C111.885 15.9608 111.977 16.6078 112.162 17.0006C112.347 17.3703 112.786 17.5551 113.479 17.5551C113.71 17.5551 113.964 17.532 114.242 17.4858C114.542 17.4396 114.75 17.3934 114.866 17.3472V18.6989C114.727 18.722 114.427 18.7682 113.964 18.8375C113.502 18.9069 112.936 18.9415 112.266 18.9415Z" fill="#45FAF5"/>
</svg>
