<svg width="171" height="32" viewBox="0 0 171 32" fill="none" xmlns="http://www.w3.org/2000/svg">
<path d="M0 30.7669V0.898438H12.6931C15.885 0.898438 18.2009 1.17009 19.6407 1.7134C21.094 2.24313 22.2553 3.19392 23.1246 4.56578C23.9939 5.93764 24.4286 7.50644 24.4286 9.2722C24.4286 11.5134 23.7698 13.3674 22.4523 14.8343C21.1348 16.2877 19.1653 17.2045 16.5438 17.5848C17.8477 18.3455 18.9208 19.1808 19.7629 20.0909C20.6186 21.0009 21.7664 22.6173 23.2061 24.9399L26.8531 30.7669H19.6407L15.2806 24.2676C13.7322 21.9449 12.6727 20.4848 12.1022 19.8871C11.5318 19.2759 10.9273 18.8616 10.2889 18.6443C9.65054 18.4134 8.63863 18.2979 7.25319 18.2979H6.03074V30.7669H0ZM6.03074 13.5304H10.4927C13.3858 13.5304 15.1923 13.4081 15.9122 13.1637C16.6321 12.9192 17.1958 12.4981 17.6032 11.9005C18.0107 11.3028 18.2145 10.5558 18.2145 9.65931C18.2145 8.65419 17.9428 7.84601 17.3995 7.23479C16.8698 6.60998 16.1159 6.21608 15.138 6.05309C14.649 5.98518 13.1821 5.95122 10.7372 5.95122H6.03074V13.5304Z" fill="white"/>
<path d="M57.0679 30.7669H50.5074L47.8996 23.9823H35.9603L33.4951 30.7669H27.0976L38.7312 0.898438H45.1083L57.0679 30.7669ZM45.964 18.9499L41.8484 7.86639L37.8144 18.9499H45.964Z" fill="white"/>
<path d="M60.3074 0.898438H72.2466C74.61 0.898438 76.369 1.00031 77.5235 1.20405C78.6917 1.39421 79.7307 1.80169 80.6408 2.4265C81.5644 3.0513 82.3318 3.88664 82.943 4.93251C83.5543 5.9648 83.8599 7.12613 83.8599 8.41649C83.8599 9.81551 83.4796 11.0991 82.7189 12.2672C81.9719 13.4353 80.9532 14.3114 79.6628 14.8955C81.4829 15.4252 82.8819 16.3284 83.8599 17.6052C84.8378 18.882 85.3268 20.3829 85.3268 22.1079C85.3268 23.4662 85.0076 24.7905 84.3692 26.0809C83.7444 27.3576 82.8819 28.3831 81.7817 29.1573C80.6951 29.918 79.3504 30.3866 77.7477 30.5632C76.7425 30.6718 74.318 30.7397 70.4741 30.7669H60.3074V0.898438ZM66.3381 5.86972V12.7766H70.2907C72.6405 12.7766 74.1007 12.7426 74.6712 12.6747C75.7034 12.5524 76.5116 12.1993 77.0957 11.6152C77.6933 11.0176 77.9921 10.2366 77.9921 9.2722C77.9921 8.34857 77.7341 7.60152 77.2179 7.03105C76.7154 6.44699 75.9615 6.09384 74.9564 5.97159C74.3587 5.90368 72.6405 5.86972 69.8017 5.86972H66.3381ZM66.3381 17.7478V25.7345H71.9206C74.0939 25.7345 75.4725 25.6734 76.0566 25.5511C76.9531 25.3881 77.6797 24.9942 78.2366 24.3694C78.8071 23.731 79.0923 22.8821 79.0923 21.8227C79.0923 20.9262 78.875 20.1656 78.4404 19.5408C78.0057 18.916 77.3741 18.4609 76.5456 18.1757C75.7306 17.8905 73.9513 17.7478 71.2076 17.7478H66.3381Z" fill="white"/>
<path d="M99.144 31.1007C97.1226 31.1007 95.2959 30.6649 93.6639 29.7933C92.0505 28.9217 90.7802 27.7255 89.8529 26.2048C88.9442 24.6656 88.4899 22.9409 88.4899 21.0308C88.4899 19.1207 88.9442 17.4052 89.8529 15.8846C90.7802 14.3453 92.0505 13.1399 93.6639 12.2683C95.2959 11.3967 97.1226 10.9609 99.144 10.9609C101.165 10.9609 102.983 11.3967 104.596 12.2683C106.21 13.1399 107.48 14.3453 108.407 15.8846C109.334 17.4052 109.798 19.1207 109.798 21.0308C109.798 22.9409 109.334 24.6656 108.407 26.2048C107.48 27.7255 106.21 28.9217 104.596 29.7933C102.983 30.6649 101.165 31.1007 99.144 31.1007ZM99.144 27.2619C100.294 27.2619 101.332 27.0023 102.26 26.483C103.187 25.9452 103.91 25.2034 104.429 24.2576C104.967 23.3118 105.236 22.2362 105.236 21.0308C105.236 19.8254 104.967 18.7498 104.429 17.804C103.91 16.8582 103.187 16.1256 102.26 15.6064C101.332 15.0686 100.294 14.7997 99.144 14.7997C97.9942 14.7997 96.9557 15.0686 96.0284 15.6064C95.1012 16.1256 94.3686 16.8582 93.8308 17.804C93.3116 18.7498 93.0519 19.8254 93.0519 21.0308C93.0519 22.2362 93.3116 23.3118 93.8308 24.2576C94.3686 25.2034 95.1012 25.9452 96.0284 26.483C96.9557 27.0023 97.9942 27.2619 99.144 27.2619Z" fill="#ECFC2F"/>
<path d="M113.973 30.7669V0.898438H119.841L132.065 20.8447V0.898438H137.668V30.7669H131.617L119.576 11.2892V30.7669H113.973Z" fill="white"/>
<path d="M171 30.7669H164.44L161.832 23.9823H149.892L147.427 30.7669H141.03L152.663 0.898438H159.04L171 30.7669ZM159.896 18.9499L155.781 7.86639L151.746 18.9499H159.896Z" fill="white"/>
<path d="M89.625 3.87695H109.097" stroke="white" stroke-width="6.02712"/>
</svg>
