<svg width="92" height="45" viewBox="0 0 92 45" fill="none" xmlns="http://www.w3.org/2000/svg">
<g id="Vector">
<path d="M15.0496 5.26678C15.0496 4.96146 14.7757 4.6834 14.2279 4.4326C13.6908 4.1818 12.8636 4.0564 11.7465 4.0564C10.973 4.0564 10.3607 4.11092 9.90956 4.21996C9.45839 4.32901 9.11464 4.47621 8.87832 4.66159C8.65273 4.83606 8.50772 5.03779 8.44326 5.26678C8.37881 5.48486 8.34659 5.7084 8.34659 5.93739C8.34659 6.40628 8.56143 6.82064 8.99111 7.18048C9.43153 7.52942 10.0062 7.862 10.7152 8.17822C11.4349 8.49445 12.2513 8.81067 13.1644 9.1269C14.0775 9.44312 15.012 9.79751 15.9681 10.1901C16.9241 10.5717 17.8587 11.0133 18.7718 11.5149C19.6848 12.0165 20.4959 12.6054 21.2048 13.2814C21.9246 13.9575 22.4993 14.7481 22.9289 15.6531C23.3694 16.5582 23.5896 17.605 23.5896 18.7936C23.5896 20.3202 23.2995 21.6014 22.7195 22.6373C22.1394 23.6732 21.3284 24.5074 20.2864 25.1399C19.2552 25.7723 18.0252 26.2248 16.5965 26.4974C15.1785 26.7701 13.6263 26.9064 11.9398 26.9064C10.9515 26.9064 9.96864 26.83 8.99111 26.6774C8.01358 26.5247 7.08439 26.3066 6.20354 26.0231C5.32269 25.7287 4.50093 25.3743 3.73824 24.9599C2.98629 24.5347 2.33103 24.0603 1.77244 23.5369C1.2246 23.0026 0.789542 22.4192 0.46728 21.7868C0.15576 21.1434 0 20.4565 0 19.7259C0 19.1698 0.0859365 18.6845 0.25781 18.2702C0.429683 17.8558 0.655266 17.5178 0.93456 17.2561C1.2246 16.9834 1.55223 16.7817 1.91746 16.6509C2.28269 16.52 2.66403 16.4546 3.06149 16.4546C3.54488 16.4546 4.02828 16.5473 4.51167 16.7326C4.99506 16.918 5.43011 17.1906 5.81683 17.5505C6.20354 17.9103 6.51506 18.3519 6.75139 18.8753C6.99846 19.3987 7.12199 19.9985 7.12199 20.6746C7.12199 20.8381 7.19719 21.0126 7.34757 21.198C7.50871 21.3833 7.73429 21.5578 8.02432 21.7214C8.3251 21.874 8.6957 22.0049 9.13613 22.1139C9.57655 22.223 10.0814 22.2775 10.6508 22.2775C11.4457 22.2775 12.0795 22.2284 12.5521 22.1303C13.0248 22.0212 13.3846 21.8795 13.6317 21.705C13.8895 21.5305 14.056 21.3343 14.1312 21.1162C14.2064 20.8981 14.244 20.68 14.244 20.4619C14.244 20.1893 14.0453 19.9494 13.6478 19.7422C13.2503 19.5351 12.7293 19.3279 12.0848 19.1207C11.4403 18.9026 10.6991 18.6736 9.86122 18.4337C9.03408 18.1938 8.19083 17.9103 7.33146 17.5832C6.4721 17.2451 5.62347 16.8471 4.78559 16.3892C3.95845 15.9312 3.22262 15.3805 2.5781 14.7372C1.93357 14.0829 1.41258 13.3251 1.01513 12.4636C0.617669 11.5913 0.418941 10.5772 0.418941 9.42131C0.418941 8.27636 0.553216 7.25136 0.821768 6.3463C1.10106 5.44125 1.48778 4.63978 1.98191 3.9419C2.48679 3.24403 3.08834 2.64974 3.78658 2.15905C4.48481 1.65745 5.25824 1.24854 6.10686 0.932318C6.96623 0.605189 7.88468 0.370746 8.86221 0.22899C9.85048 0.0763301 10.8763 0 11.9398 0C13.8412 0 15.4578 0.196277 16.7899 0.588832C18.1326 0.970483 19.2229 1.46663 20.0608 2.07727C20.8987 2.68791 21.5056 3.36943 21.8816 4.12183C22.2683 4.86332 22.4617 5.58845 22.4617 6.29723C22.4617 6.94059 22.3274 7.49671 22.0588 7.96559C21.7903 8.43447 21.4412 8.82158 21.0115 9.1269C20.5818 9.43222 20.093 9.65576 19.5452 9.79751C18.9973 9.93927 18.4441 10.0101 17.8855 10.0101C17.3484 10.0101 16.8221 9.95017 16.3065 9.83023C15.8016 9.71028 15.3504 9.53036 14.953 9.29046C14.5662 9.05057 14.2494 8.7616 14.0023 8.42357C13.766 8.07463 13.6478 7.67663 13.6478 7.22955C13.6478 6.90242 13.7176 6.65707 13.8573 6.49351C14.0077 6.32995 14.1688 6.19364 14.3407 6.0846C14.5233 5.97556 14.6844 5.86651 14.8241 5.75747C14.9744 5.64843 15.0496 5.48486 15.0496 5.26678Z" fill="#12173A"/>
<path d="M49.0534 7.29498C49.365 7.0987 49.5637 6.90242 49.6496 6.70614C49.7356 6.49896 49.7785 6.32995 49.7785 6.19909C49.7785 6.01372 49.6872 5.85016 49.5046 5.7084C49.3327 5.55574 49.134 5.40308 48.9084 5.25042C48.6936 5.08686 48.4948 4.91239 48.3122 4.72701C48.1404 4.54164 48.0544 4.3181 48.0544 4.0564C48.0544 3.35852 48.2209 2.77514 48.5539 2.30626C48.8977 1.83737 49.3435 1.46663 49.8913 1.19402C50.4499 0.921413 51.0783 0.730588 51.7765 0.621545C52.4855 0.501598 53.2052 0.441624 53.9357 0.441624C54.7951 0.441624 55.6061 0.50705 56.3688 0.637901C57.1422 0.768753 57.819 0.970483 58.399 1.24309C58.9791 1.5157 59.441 1.87009 59.7848 2.30626C60.1285 2.74243 60.3004 3.26039 60.3004 3.86012C60.3004 4.24177 60.1983 4.54709 59.9942 4.77608C59.8009 5.00507 59.5323 5.20135 59.1886 5.36492C58.8556 5.51758 58.4689 5.65388 58.0284 5.77383C57.588 5.88287 57.1315 6.01372 56.6588 6.16638C56.1862 6.31904 55.7081 6.51532 55.2248 6.75521C54.7521 6.9842 54.3117 7.28952 53.9035 7.67117L50.5036 10.8607L57.2389 19.5623C57.5719 19.9985 57.8995 20.3365 58.2218 20.5764C58.5548 20.8163 58.8663 21.0071 59.1563 21.1489C59.4464 21.2906 59.7149 21.4051 59.962 21.4924C60.2091 21.5687 60.4239 21.6614 60.6065 21.7704C60.7891 21.8795 60.9288 22.0321 61.0255 22.2284C61.1329 22.4138 61.1866 22.6864 61.1866 23.0462C61.1866 24.2566 60.526 25.1344 59.2047 25.6796C57.8942 26.2248 55.9928 26.4974 53.5006 26.4974C52.2546 26.4974 51.1374 26.4211 50.1491 26.2685C49.1609 26.1158 48.3176 25.8814 47.6194 25.5651C46.9319 25.238 46.4055 24.8291 46.0403 24.3384C45.6751 23.8368 45.4924 23.2371 45.4924 22.5392C45.4924 22.2666 45.5837 22.0594 45.7664 21.9176C45.9597 21.7759 46.1692 21.6559 46.3948 21.5578C46.6204 21.4488 46.8245 21.3397 47.0071 21.2307C47.2004 21.1216 47.2971 20.9581 47.2971 20.74C47.2971 20.5982 47.2488 20.4456 47.1521 20.282C47.0662 20.1075 46.9265 19.8894 46.7331 19.6277L43.9617 15.9475C43.8543 15.8058 43.7254 15.6967 43.575 15.6204C43.4246 15.5332 43.2635 15.4677 43.0916 15.4241C42.9305 15.3805 42.7532 15.3587 42.5599 15.3587C42.3772 15.3478 42.1946 15.3423 42.012 15.3423H41.6897V19.5623C41.6897 20.053 41.7542 20.4347 41.8831 20.7073C42.012 20.9799 42.1731 21.1871 42.3665 21.3288C42.5599 21.4706 42.7693 21.5687 42.9949 21.6232C43.2205 21.6777 43.43 21.7377 43.6233 21.8031C43.8167 21.8686 43.9778 21.9613 44.1067 22.0812C44.2356 22.1902 44.3001 22.3756 44.3001 22.6373C44.3001 24.0004 43.6072 24.9872 42.2215 25.5978C40.8358 26.1976 38.8324 26.4974 36.2113 26.4974C34.9437 26.4974 33.8158 26.4266 32.8275 26.2848C31.85 26.1322 31.0229 25.9032 30.3461 25.5978C29.6801 25.2816 29.1699 24.8782 28.8154 24.3875C28.4716 23.8968 28.2998 23.3134 28.2998 22.6373C28.2998 22.3756 28.3642 22.1902 28.4931 22.0812C28.622 21.9613 28.7778 21.874 28.9604 21.8195C29.1538 21.7541 29.3579 21.6941 29.5727 21.6396C29.7983 21.5851 30.0024 21.4924 30.185 21.3615C30.3784 21.2198 30.5395 21.018 30.6684 20.7563C30.7973 20.4946 30.8617 20.1184 30.8617 19.6277V7.29498C30.8617 6.81519 30.7973 6.44444 30.6684 6.18274C30.5395 5.91013 30.3784 5.7084 30.185 5.57755C30.0024 5.43579 29.7983 5.33765 29.5727 5.28313C29.3579 5.22861 29.1538 5.17409 28.9604 5.11957C28.7778 5.05414 28.622 4.96691 28.4931 4.85787C28.3642 4.73792 28.2998 4.54709 28.2998 4.28539C28.2998 3.60932 28.4716 3.0314 28.8154 2.55161C29.1699 2.06091 29.6801 1.66291 30.3461 1.35759C31.0229 1.04136 31.85 0.81237 32.8275 0.670614C33.8158 0.517954 34.9437 0.441624 36.2113 0.441624C37.5218 0.441624 38.682 0.517954 39.6917 0.670614C40.7015 0.81237 41.5447 1.04136 42.2215 1.35759C42.909 1.66291 43.4246 2.06091 43.7683 2.55161C44.1228 3.0314 44.3001 3.60932 44.3001 4.28539C44.3001 4.54709 44.2356 4.73792 44.1067 4.85787C43.9778 4.96691 43.8167 5.05414 43.6233 5.11957C43.43 5.17409 43.2205 5.22861 42.9949 5.28313C42.7693 5.33765 42.5599 5.43579 42.3665 5.57755C42.1731 5.7084 42.012 5.91013 41.8831 6.18274C41.7542 6.44444 41.6897 6.81519 41.6897 7.29498V12.3982C41.9905 12.3982 42.3074 12.3818 42.6404 12.3491C42.9734 12.3164 43.2742 12.1965 43.5428 11.9893L49.0534 7.29498Z" fill="#12173A"/>
<path d="M77.8205 26.4974C76.5422 26.4974 75.4089 26.4266 74.4206 26.2848C73.4323 26.1322 72.5998 25.9032 71.9231 25.5978C71.2463 25.2816 70.7307 24.8782 70.3762 24.3875C70.0325 23.8968 69.8606 23.3134 69.8606 22.6373C69.8606 22.3756 69.9251 22.1902 70.054 22.0812C70.1829 21.9613 70.344 21.874 70.5374 21.8195C70.7307 21.7541 70.9402 21.6941 71.1658 21.6396C71.3913 21.5851 71.6008 21.4924 71.7942 21.3615C71.9875 21.2198 72.1487 21.018 72.2776 20.7563C72.4065 20.4946 72.4709 20.1184 72.4709 19.6277V13.7394L67.9431 7.37676C67.6531 6.9624 67.3523 6.63527 67.0408 6.39537C66.7293 6.15548 66.4285 5.96465 66.1385 5.8229C65.8592 5.68114 65.5906 5.5721 65.3328 5.49577C65.0858 5.40853 64.8655 5.3213 64.6722 5.23406C64.4788 5.14683 64.3284 5.03233 64.221 4.89058C64.1136 4.74882 64.0599 4.54709 64.0599 4.28539C64.0599 2.93326 64.7474 1.95732 66.1224 1.35759C67.5081 0.746944 69.5115 0.441624 72.1326 0.441624C73.4001 0.441624 74.528 0.517954 75.5163 0.670614C76.5046 0.81237 77.3317 1.04136 77.9977 1.35759C78.6745 1.66291 79.1847 2.06091 79.5285 2.55161C79.8829 3.0314 80.0602 3.60932 80.0602 4.28539C80.0602 4.59071 79.9635 4.81425 79.7702 4.956C79.5768 5.09776 79.362 5.21771 79.1256 5.31585C78.9001 5.41398 78.6906 5.51758 78.4972 5.62662C78.3039 5.72476 78.2072 5.88832 78.2072 6.11731C78.2072 6.24816 78.2502 6.41173 78.3361 6.60801C78.422 6.79338 78.567 7.02237 78.7711 7.29498L80.4791 10.0756C80.7369 10.3809 80.9786 10.5336 81.2042 10.5336C81.3654 10.5336 81.5157 10.4736 81.6554 10.3536C81.795 10.2337 81.9239 10.0865 82.0421 9.91201L83.879 7.29498C84.0616 7.03327 84.1852 6.80973 84.2496 6.62436C84.3141 6.42808 84.3463 6.25907 84.3463 6.11731C84.3463 5.94284 84.2979 5.80654 84.2013 5.7084C84.1046 5.61026 83.981 5.52848 83.8307 5.46305C83.691 5.39763 83.5353 5.33765 83.3634 5.28313C83.2022 5.22861 83.0465 5.16319 82.8961 5.08686C82.7565 5.01053 82.6383 4.91239 82.5416 4.79244C82.4449 4.66159 82.3966 4.49257 82.3966 4.28539C82.3966 3.76198 82.4986 3.27129 82.7027 2.81331C82.9068 2.34442 83.2076 1.93551 83.6051 1.58658C84.0133 1.23764 84.5128 0.959578 85.1036 0.752397C85.7052 0.545215 86.398 0.441624 87.1822 0.441624C87.9771 0.441624 88.6753 0.545215 89.2769 0.752397C89.8784 0.959578 90.378 1.23764 90.7754 1.58658C91.1836 1.93551 91.4898 2.34442 91.6939 2.81331C91.898 3.27129 92 3.76198 92 4.28539C92 4.54709 91.9356 4.74882 91.8066 4.89058C91.6777 5.02143 91.5005 5.13047 91.2749 5.21771C91.0493 5.29404 90.7915 5.37037 90.5015 5.4467C90.2114 5.52303 89.9053 5.63207 89.583 5.77383C89.2715 5.91558 88.9493 6.11186 88.6162 6.36266C88.2832 6.61346 87.9717 6.95149 87.6817 7.37676L83.2989 13.7394V19.5623C83.2989 20.053 83.3634 20.4347 83.4923 20.7073C83.6212 20.9799 83.7823 21.1871 83.9757 21.3288C84.169 21.4706 84.3731 21.5687 84.588 21.6232C84.8136 21.6777 85.023 21.7377 85.2164 21.8031C85.4097 21.8686 85.5709 21.9613 85.6998 22.0812C85.8287 22.1902 85.8931 22.3756 85.8931 22.6373C85.8931 23.3134 85.7159 23.8968 85.3614 24.3875C85.0177 24.8782 84.502 25.2816 83.8145 25.5978C83.1378 25.9032 82.2945 26.1322 81.2848 26.2848C80.2858 26.4266 79.131 26.4974 77.8205 26.4974Z" fill="#12173A"/>
<path d="M29.3536 32.2941C30.0423 32.2941 30.6563 32.4047 31.1958 32.6261C31.7353 32.8475 32.2461 33.1796 32.7281 33.6223L31.4196 35.1778C31.1097 34.9098 30.7998 34.7117 30.4899 34.5836C30.1915 34.4438 29.8701 34.3738 29.5258 34.3738C28.0336 34.3738 27.2875 35.7895 27.2875 38.6208C27.2875 41.4288 28.0393 42.8328 29.543 42.8328C29.9332 42.8328 30.2776 42.7571 30.576 42.6056C30.8859 42.4425 31.2303 42.2095 31.609 41.9065L32.8487 43.4445C32.424 43.8989 31.9132 44.2718 31.3163 44.5631C30.731 44.8544 30.0824 45 29.3708 45C28.3722 45 27.4999 44.7611 26.7538 44.2834C26.0192 43.8057 25.4453 43.0892 25.0321 42.1337C24.6189 41.1783 24.4122 40.0073 24.4122 38.6208C24.4122 37.2692 24.6246 36.1216 25.0493 35.1778C25.474 34.2224 26.0536 33.5058 26.7882 33.0281C27.5343 32.5387 28.3894 32.2941 29.3536 32.2941Z" fill="#12173A"/>
<path d="M40.0698 32.5912V44.7029H37.3151V32.5912H40.0698Z" fill="#12173A"/>
<path d="M52.889 32.5912L52.5963 34.7234H50.0309V44.7029H47.2761V34.7234H44.5558V32.5912H52.889Z" fill="#12173A"/>
<path d="M65.8059 32.5912L62.3624 40.1588V44.7029H59.6077V40.1763L56.1643 32.5912H59.1084L61.0195 37.9742L62.965 32.5912H65.8059Z" fill="#12173A"/>
</g>
</svg>
