<svg width="247" height="32" viewBox="0 0 247 32" fill="none" xmlns="http://www.w3.org/2000/svg">
<g filter="url(#filter0_d_3529_1041)">
<path d="M11.4227 0.816088C13.1257 0.982236 14.621 1.77836 15.9087 3.20447C17.0302 4.43673 17.8194 5.93899 18.2763 7.71124C18.5117 8.61121 18.6294 9.44195 18.6294 10.2035C18.6294 10.8819 18.5394 11.505 18.3594 12.0726C17.944 13.3464 17.1548 13.9833 15.9918 13.9833H15.9087C15.2856 13.9695 14.3995 13.748 13.2503 13.3187C11.9627 12.8341 11.0627 12.5572 10.5504 12.488C10.2735 12.4465 10.0035 12.4257 9.74044 12.4257C8.86816 12.4257 8.15511 12.6818 7.60128 13.1941C6.97822 13.7756 6.66669 14.5164 6.66669 15.4164V15.541C6.69439 16.4963 7.04745 17.2717 7.72589 17.867C8.3351 18.3932 9.08277 18.6562 9.96889 18.6562C10.2181 18.6562 10.4812 18.6355 10.7581 18.5939C11.2842 18.5109 12.0942 18.227 13.188 17.7424C14.1572 17.3132 14.9464 17.0986 15.5556 17.0986H15.6387C16.8017 17.0986 17.6048 17.6594 18.0478 18.7809C18.2694 19.3347 18.3801 19.9577 18.3801 20.65C18.3801 21.2592 18.2901 21.9238 18.1101 22.6438C17.6948 24.2084 16.9402 25.5445 15.8464 26.6521C14.6003 27.9121 13.1257 28.6321 11.4227 28.8121C11.0627 28.8536 10.7027 28.8744 10.3427 28.8744C7.31052 28.8744 4.83907 27.5313 2.92836 24.8453C1.00381 22.1592 0.0276914 18.8085 0 14.7933V14.5233C0 10.605 0.92766 7.34433 2.78298 4.74134C4.66599 2.08297 7.15129 0.753782 10.2389 0.753782C10.6266 0.753782 11.0212 0.774551 11.4227 0.816088ZM10.6543 20.1516C10.9589 20.2623 11.3119 20.3177 11.7134 20.3177C12.115 20.3177 12.5719 20.2554 13.0842 20.1308C14.2472 19.8401 14.9256 19.2724 15.1195 18.4278C13.8318 19.1478 12.3434 19.7224 10.6543 20.1516ZM1.32919 12.2388C2.81067 7.98815 4.45139 5.17748 6.25132 3.80675C6.59747 3.57138 7.09591 3.31523 7.74666 3.03832C8.46663 2.74756 8.91662 2.5468 9.09661 2.43603C8.972 2.32527 8.78508 2.26988 8.53586 2.26988C8.25895 2.26988 7.90588 2.33911 7.47667 2.47757C6.81207 2.67141 6.25825 2.92063 5.81519 3.22524C4.43062 4.18059 3.32989 5.50977 2.51299 7.21279C1.72379 8.84658 1.32919 10.5219 1.32919 12.2388Z" fill="url(#paint0_linear_3529_1041)"/>
<path d="M41.3294 26.2368C41.3432 26.3614 41.3501 26.4791 41.3501 26.5898C41.3501 27.3236 41.0801 27.9536 40.5401 28.4798C39.9309 29.089 39.1833 29.4005 38.2971 29.4143C37.3141 29.4143 36.4349 29.0474 35.6595 28.3136C34.7734 27.4552 34.1573 26.2021 33.8111 24.5545C33.4927 23.0592 32.8004 22.2977 31.7343 22.27H31.6512C30.6266 22.27 29.7682 22.9553 29.0759 24.3261C28.1621 26.1398 27.7052 27.0537 27.7052 27.0675L27.726 27.0467C27.2275 27.8913 26.556 28.5351 25.7114 28.9782C25.0745 29.3105 24.4445 29.4766 23.8215 29.4766C23.6553 29.4766 23.4823 29.4628 23.3023 29.4351C22.4715 29.3243 21.8485 28.9436 21.4331 28.2928C21.1008 27.7806 20.9347 27.1506 20.9347 26.4029C20.9347 26.0706 20.9624 25.7245 21.0177 25.3645C21.2116 24.1737 21.4954 22.8169 21.8693 21.2938C22.3677 19.3001 22.7761 17.7494 23.0946 16.6417C23.593 14.9941 24.0499 13.5818 24.4653 12.4049C26.7222 5.96668 28.9029 2.25604 31.0074 1.273C31.3812 1.10685 31.7481 1.02377 32.1081 1.02377C33.4789 1.02377 34.7942 2.22835 36.0541 4.6375C38.4633 9.30349 40.2217 16.5032 41.3294 26.2368ZM33.2296 17.2232C33.2158 17.154 33.1258 16.6417 32.9596 15.6863C32.7935 14.8002 32.6412 14.0941 32.5027 13.568C32.2258 12.5295 31.9558 12.0103 31.6928 12.0103C31.4989 12.0103 31.3189 12.218 31.1528 12.6334C30.9728 13.0072 30.6543 14.2879 30.1974 16.4756C30.1559 16.7109 30.1351 16.8702 30.1351 16.9532V17.0155C30.149 17.0709 30.2043 17.0986 30.3013 17.0986C30.3567 17.0986 30.419 17.0917 30.4882 17.0778C30.7789 17.0086 31.0628 16.974 31.3397 16.974C31.6581 16.974 31.9697 17.0155 32.2743 17.0986C32.3989 17.1401 32.6204 17.1955 32.9389 17.2648L33.1466 17.3271H33.1673C33.2089 17.3271 33.2296 17.3063 33.2296 17.2648V17.2232ZM32.3781 18.5732C32.6273 18.6009 32.8627 18.6147 33.0843 18.6147C33.7765 18.6147 34.2127 18.4555 34.3927 18.137C34.4619 18.0124 34.4965 17.8532 34.4965 17.6594C34.4965 17.2717 34.3581 16.7248 34.0811 16.0186C34.095 16.1156 34.1019 16.2194 34.1019 16.3302C34.1019 16.6763 34.0396 17.0086 33.915 17.3271C33.6658 18.0055 33.1535 18.4209 32.3781 18.5732ZM22.6585 25.0322C22.6446 25.0322 22.6377 25.0253 22.6377 25.0114C22.6377 24.7345 23.1846 22.6853 24.2784 18.8639C24.9291 16.5517 25.573 14.5372 26.2099 12.8203C27.8714 8.34814 29.5398 5.2744 31.2151 3.59907C31.5751 3.25293 31.7551 2.96909 31.7551 2.74756C31.7551 2.70602 31.7481 2.66449 31.7343 2.62295C31.6651 2.6091 31.5958 2.60218 31.5266 2.60218C30.7651 2.60218 29.8374 3.56446 28.7436 5.48901C27.7467 7.26125 26.7083 9.66348 25.6284 12.6957C23.5792 18.4555 22.5546 22.2907 22.5546 24.2014C22.5546 24.5476 22.5892 24.8245 22.6585 25.0322Z" fill="url(#paint1_linear_3529_1041)"/>
<path d="M52.4197 27.8982C52.3228 28.4936 52.0251 28.9574 51.5267 29.2897C51.0975 29.5666 50.3844 29.7051 49.3875 29.7051H49.3045C47.7399 29.6774 46.7292 29.5043 46.2723 29.1859C45.7877 28.8397 45.4969 28.3759 45.4 27.7944C45.2061 26.4652 45.1092 24.0699 45.1092 20.6085C45.1092 19.5147 45.1161 18.317 45.13 17.0155C45.1992 11.6434 45.2338 8.05046 45.2338 6.23667V4.78288C45.2338 3.67522 45.4208 2.86525 45.7946 2.35296C46.0577 1.79913 46.5076 1.34915 47.1445 1.003C48.0168 0.6984 48.7991 0.615326 49.4914 0.753782C50.1837 0.892239 50.7929 1.21069 51.319 1.70913C51.8451 2.20758 52.4682 3.05217 53.1882 4.24289C55.085 7.35817 56.7396 11.2211 58.1519 15.8317C58.6365 17.3963 58.9757 18.1786 59.1695 18.1786H59.1903C59.3426 18.0955 59.6195 17.0986 60.021 15.1879C60.2287 14.2187 60.3672 11.8234 60.4364 8.002C60.5056 4.72057 60.7341 2.80294 61.1218 2.24912C61.8279 1.25223 62.8317 0.753782 64.1332 0.753782C64.2855 0.753782 64.4378 0.760705 64.5901 0.774551C66.1685 0.926853 67.0339 1.77144 67.1862 3.30831C67.3246 4.7898 67.3938 6.4582 67.3938 8.31352C67.3938 10.6534 67.2831 13.2772 67.0615 16.1848C66.5493 22.9276 65.5039 27.0052 63.9255 28.4174C63.1501 29.0959 62.2017 29.4628 61.0802 29.5182H60.831C59.7787 29.5182 58.8857 29.1997 58.1519 28.5628C56.1719 26.846 54.725 24.9422 53.8112 22.8515C53.6174 22.4084 53.4305 21.9307 53.2505 21.4185C53.0566 20.92 52.9528 20.6569 52.939 20.6293C52.9113 20.5462 52.8836 20.5046 52.8559 20.5046C52.842 20.5046 52.8282 20.5323 52.8143 20.5877C52.8005 20.6708 52.7867 20.9546 52.7728 21.4392C52.6897 24.8314 52.572 26.9844 52.4197 27.8982ZM62.0979 4.53365C62.1533 4.47827 62.1948 4.41596 62.2225 4.34674C62.5271 3.73753 62.7002 3.40523 62.7417 3.34985C62.8386 3.22524 63.0186 3.07293 63.2817 2.89294C63.5586 2.71295 63.7455 2.56064 63.8424 2.43603C63.704 2.33911 63.5932 2.28373 63.5101 2.26988C63.3994 2.24219 63.2955 2.22835 63.1986 2.22835C62.7832 2.22835 62.4302 2.47065 62.1394 2.95525C61.9456 3.25985 61.8487 3.55061 61.8487 3.82752C61.8487 4.07675 61.9317 4.31212 62.0979 4.53365ZM59.2734 18.9678C59.5226 19.1062 59.751 19.1755 59.9587 19.1755C60.5679 19.1755 60.9833 18.5939 61.2048 17.4309C61.4817 16.5863 61.6202 15.7694 61.6202 14.9802C61.6202 14.6895 61.5994 14.4056 61.5579 14.1287C61.4887 14.2949 61.3917 14.6756 61.2671 15.271C61.1287 15.9217 61.0041 16.4271 60.8933 16.7871C60.4918 18.0886 59.9518 18.8155 59.2734 18.9678ZM46.1061 6.79742C46.3 5.02517 46.7499 3.84829 47.4561 3.26677C47.5945 3.15601 47.6776 3.04524 47.7053 2.93448C47.553 2.89294 47.4145 2.87217 47.2899 2.87217C46.8607 2.87217 46.5353 3.10063 46.3138 3.55753C46.0784 4.04213 45.9607 4.63057 45.9607 5.32286C45.9607 5.77976 46.0092 6.27129 46.1061 6.79742Z" fill="url(#paint2_linear_3529_1041)"/>
<path d="M71.9837 24.243C71.9837 23.9938 71.9906 23.7376 72.0045 23.4745C72.2398 11.9411 72.6067 5.19132 73.1052 3.22524C73.6036 1.273 75.1267 0.296875 77.6743 0.296875C79.668 0.296875 81.648 0.781474 83.6141 1.75067C84.3894 2.13835 85.1509 2.60218 85.8986 3.14216C88.3631 4.92826 90.2392 7.15049 91.5269 9.80886C92.5514 11.9688 93.1053 14.1079 93.1883 16.2263V16.6002C93.1883 18.317 92.6691 20.027 91.6307 21.73C90.6061 23.4053 89.1939 24.9006 87.3939 26.216C85.6494 27.4898 83.8079 28.4036 81.8695 28.9574C80.6234 29.3174 79.4604 29.4974 78.3804 29.4974C77.6881 29.4974 77.0304 29.4282 76.4074 29.2897C75.0228 28.9713 73.9429 28.3967 73.1675 27.5659C72.3783 26.7075 71.9837 25.6622 71.9837 24.4299V24.243ZM78.505 19.1339C78.4912 19.217 78.4773 19.2862 78.4635 19.3416C78.865 19.4247 79.2734 19.4662 79.6888 19.4662C80.2703 19.4662 80.8726 19.3831 81.4957 19.217C82.5064 18.9401 83.3302 18.5109 83.9671 17.9293C84.521 17.4171 84.7979 16.8978 84.7979 16.3717C84.7979 16.2748 84.7909 16.1779 84.7771 16.0809C84.6248 15.361 83.9602 14.7379 82.7833 14.2118C81.5926 13.6718 80.6788 13.4018 80.0419 13.4018C79.3219 13.4018 78.955 13.741 78.9411 14.4195C78.8996 16.4271 78.7542 17.9986 78.505 19.1339ZM73.9567 6.65204C74.0536 6.49974 74.1852 6.05668 74.3513 5.32286C74.5313 4.5475 74.7044 4.00059 74.8705 3.68214C75.2028 3.05909 75.5766 2.65064 75.992 2.4568C76.6428 2.13835 77.0027 1.95143 77.072 1.89605C76.892 1.77144 76.6774 1.70913 76.4282 1.70913C76.2205 1.70913 75.992 1.75067 75.7428 1.83375C75.1336 2.04143 74.7044 2.42911 74.4551 2.99678C74.1228 3.7583 73.9567 4.97671 73.9567 6.65204ZM80.748 20.8785C82.0633 20.8785 83.261 20.5254 84.341 19.8193C85.5455 19.0301 86.1478 18.0401 86.1478 16.8494C86.0094 16.8909 85.6494 17.2994 85.0679 18.0747C84.431 18.9193 83.531 19.6047 82.368 20.1308C81.3018 20.6016 80.7618 20.8508 80.748 20.8785Z" fill="url(#paint3_linear_3529_1041)"/>
<path d="M107.56 10.8888C107.712 10.5288 108.072 9.55271 108.64 7.96046C109.152 6.50666 109.609 5.35055 110.011 4.49212C111.091 2.17989 112.358 1.003 113.811 0.961468H113.915C114.843 0.961468 115.681 1.12762 116.428 1.45991C117.37 1.88913 117.924 2.50526 118.09 3.30831C118.131 3.50215 118.152 3.71676 118.152 3.95213C118.332 5.76592 116.511 9.15119 112.69 14.1079C110.918 16.4063 110.412 18.9678 111.174 21.7923C111.423 24.1876 111.402 25.946 111.112 27.0675C110.89 28.1475 110.565 28.819 110.135 29.082C109.595 29.4836 108.543 29.6913 106.979 29.7051H106.896C105.4 29.7051 104.369 29.5389 103.801 29.2067C103.192 28.8467 102.77 28.3759 102.534 27.7944C102.354 27.379 102.223 26.7075 102.14 25.7798C102.057 24.8383 102.077 23.7376 102.202 22.4777C102.326 21.2177 102.493 20.0962 102.7 19.1132C102.908 18.1163 102.763 17.1194 102.264 16.1225C101.96 15.5133 101.212 14.4749 100.021 13.0072C97.792 10.2658 96.629 8.81889 96.5321 8.66659C95.0091 6.58974 94.2475 5.04594 94.2475 4.03521V3.93137C94.3168 2.90679 94.8429 2.13835 95.826 1.62606C96.4075 1.32146 97.0305 1.16915 97.6951 1.16915C98.1382 1.16915 98.602 1.23838 99.0866 1.37684C101.039 1.91682 102.638 3.16985 103.884 5.13594C104.715 6.46513 105.511 8.38968 106.273 10.9096C106.522 11.7126 106.716 12.1142 106.854 12.1142C106.979 12.1003 107.214 11.6919 107.56 10.8888ZM95.7636 4.03521C95.9436 3.97983 96.2482 3.77906 96.6775 3.43292C97.1067 3.07293 97.349 2.80987 97.4044 2.64372C96.2136 2.64372 95.6183 2.92755 95.6183 3.49523C95.6183 3.64753 95.6667 3.82752 95.7636 4.03521ZM107.041 12.9034C107.207 13.028 107.373 13.0903 107.539 13.0903C108.093 13.0903 108.682 12.4118 109.305 11.055C109.554 10.5011 109.824 9.80193 110.115 8.95735L110.592 7.54509C111.52 5.16363 112.268 3.8206 112.835 3.516C113.5 2.86525 113.86 2.53988 113.915 2.53988V2.56064C113.749 2.43603 113.576 2.37373 113.396 2.37373C112.621 2.37373 111.832 3.246 111.029 4.99056C110.655 5.80746 110.232 6.86665 109.762 8.16814C109.277 9.49733 109.007 10.2173 108.952 10.3281C108.786 10.6881 108.405 11.1865 107.809 11.8234C107.297 12.3495 107.041 12.7026 107.041 12.8826V12.9034Z" fill="url(#paint4_linear_3529_1041)"/>
<path d="M150.302 12.218C149.928 12.5226 148.426 12.7026 145.795 12.758C143.261 12.8134 141.897 12.9864 141.704 13.2772C141.648 13.3603 141.621 13.4503 141.621 13.5472C141.621 13.8656 141.87 14.281 142.368 14.7933C142.562 14.9871 143.247 15.6171 144.424 16.6832C145.504 17.6663 146.37 18.497 147.02 19.1755C148.862 21.1415 149.783 22.7546 149.783 24.0145C149.783 24.1945 149.769 24.3607 149.741 24.513C149.45 25.8975 148.744 27.026 147.623 27.8982C146.57 28.7428 145.324 29.2136 143.884 29.3105C142.777 29.3797 141.773 29.4143 140.873 29.4143C136.442 29.4143 133.715 29.1374 132.69 28.5836C132.081 28.2513 131.776 27.559 131.776 26.5067C131.776 25.5514 132.005 24.6653 132.462 23.8484C132.725 23.3776 133.839 23.1422 135.805 23.1422H139.523C140.326 23.1422 140.907 23.1076 141.267 23.0384C141.904 22.9138 142.237 22.6369 142.264 22.2077V22.1661C142.264 21.6538 141.627 20.9685 140.354 20.11C139.952 19.847 139.44 19.5285 138.817 19.1547C138.18 18.7809 137.82 18.5662 137.737 18.5109C134.594 16.4479 132.725 14.2187 132.129 11.8234C131.991 11.2834 131.922 10.7434 131.922 10.2035C131.922 8.07122 132.995 5.96668 135.141 3.88983C136.456 2.61603 138.706 1.68144 141.891 1.08608C143.109 0.864548 144.189 0.753782 145.13 0.753782C146.764 0.753782 147.99 1.08608 148.806 1.75067C150.191 2.85833 150.987 4.77595 151.195 7.50355C151.236 8.002 151.257 8.46583 151.257 8.89504C151.257 10.6119 150.939 11.7196 150.302 12.218ZM133.272 25.946C133.438 25.5306 133.576 25.2606 133.687 25.136C133.895 24.8868 134.227 24.7553 134.684 24.7414C134.435 24.5753 134.206 24.4922 133.998 24.4922C133.818 24.4922 133.645 24.5545 133.479 24.6791C133.258 24.8453 133.147 25.0737 133.147 25.3645C133.147 25.5306 133.189 25.7245 133.272 25.946ZM140.499 24.3053C140.693 24.4437 140.928 24.513 141.205 24.513C141.537 24.513 141.925 24.4091 142.368 24.2014C143.074 23.8968 143.427 23.4192 143.427 22.7684C143.427 22.5607 143.393 22.3392 143.324 22.1038C143.24 22.6023 142.991 23.073 142.576 23.5161C142.064 24.0561 141.454 24.3261 140.748 24.3261C140.665 24.3261 140.582 24.3191 140.499 24.3053ZM133.521 9.5804C133.701 9.37272 133.922 8.97119 134.185 8.37583C134.49 7.6697 134.767 7.12972 135.016 6.75588C135.985 5.32978 137.647 4.20828 140.001 3.39138C140.098 3.36369 140.693 3.21139 141.787 2.93448C142.631 2.6991 143.116 2.52603 143.24 2.41526C143.102 2.40142 142.957 2.3945 142.804 2.3945C142.126 2.3945 141.171 2.56064 139.938 2.89294C138.443 3.29446 137.308 3.73753 136.532 4.22213C135.632 4.7898 134.815 5.68284 134.082 6.90126C133.583 7.73201 133.334 8.40352 133.334 8.91581C133.334 9.19272 133.396 9.41426 133.521 9.5804Z" fill="url(#paint5_linear_3529_1041)"/>
<path d="M161.87 22.7892C161.676 23.0522 161.579 23.4815 161.579 24.0768C161.579 24.4091 161.607 24.7899 161.662 25.2191C161.801 26.3129 161.87 27.0606 161.87 27.4621C161.87 27.5867 161.863 27.6767 161.849 27.7321C161.683 28.7013 160.818 29.2205 159.253 29.2897C159.142 29.3036 159.038 29.3105 158.941 29.3105C157.543 29.2967 156.705 28.8536 156.428 27.9813C155.847 26.2091 155.48 21.8754 155.328 14.9802C155.314 14.3295 155.307 13.7064 155.307 13.1111C155.307 7.98815 155.833 4.57519 156.885 2.87217C157.592 1.70913 158.782 0.947622 160.458 0.587634C161.164 0.435332 161.932 0.359181 162.763 0.359181C163.649 0.359181 164.604 0.449177 165.629 0.629171C169.755 1.3353 172.683 2.68525 174.414 4.67903C176.117 6.63127 176.969 8.68736 176.969 10.8473C176.969 12.3703 176.539 13.9487 175.681 15.5825C174.199 18.3932 172.185 20.3316 169.637 21.3977C168.571 21.8408 167.007 22.1107 164.944 22.2077C163.171 22.2769 162.147 22.4707 161.87 22.7892ZM161.662 16.3925C162.105 16.4894 162.548 16.5379 162.991 16.5379C163.49 16.5379 163.995 16.4756 164.507 16.3509C165.518 16.1156 166.349 15.6794 167 15.0425C167.595 14.4749 167.941 13.9764 168.038 13.5472C168.066 13.4503 168.08 13.3603 168.08 13.2772C168.08 12.848 167.844 12.4257 167.374 12.0103C166.667 11.3734 165.788 11.055 164.736 11.055C164.501 11.055 164.251 11.0688 163.988 11.0965C162.604 11.2627 161.662 11.8442 161.164 12.8411C160.859 13.4087 160.707 14.1149 160.707 14.9594V15.0633C160.748 15.8248 160.776 16.2125 160.79 16.2263C160.818 16.254 160.901 16.2679 161.039 16.2679C161.247 16.2817 161.454 16.3232 161.662 16.3925ZM156.927 7.73201C157.038 7.55201 157.142 7.24741 157.238 6.81819C157.377 6.25052 157.46 5.9113 157.488 5.80053C157.765 5.02517 158.055 4.42981 158.36 4.01444C158.72 3.50215 159.177 3.07986 159.731 2.74756C159.897 2.65064 160.222 2.51911 160.707 2.35296C161.122 2.22835 161.406 2.08989 161.558 1.93759C161.364 1.89605 161.164 1.87528 160.956 1.87528C160.555 1.87528 160.111 1.95143 159.627 2.10374C158.824 2.38065 158.256 2.7891 157.924 3.32908C157.259 4.42289 156.927 5.89053 156.927 7.73201ZM163.947 17.9293C165.345 17.9293 166.557 17.5486 167.581 16.7871C168.758 15.901 169.347 14.8556 169.347 13.651C169.277 13.6787 168.938 14.1149 168.329 14.9594C167.706 15.8317 166.82 16.5586 165.67 17.1401C165.587 17.1817 165.283 17.2994 164.757 17.4932C164.383 17.6455 164.113 17.7909 163.947 17.9293Z" fill="url(#paint6_linear_3529_1041)"/>
<path d="M184.217 10.8057C183.912 10.7088 183.518 10.6258 183.033 10.5565C182.424 10.4734 182.05 10.4111 181.911 10.3696C181.095 10.1896 180.582 9.74655 180.375 9.04042C180.112 8.16814 179.98 7.46201 179.98 6.92203V6.69358C179.994 5.69669 180.167 4.76903 180.499 3.9106C181.025 2.47065 182.867 1.61221 186.024 1.3353C186.73 1.27992 187.948 1.25223 189.679 1.25223C191.617 1.25223 193.168 1.54299 194.331 2.1245C195.522 2.70602 196.235 3.93137 196.47 5.80053C196.512 6.13283 196.533 6.50666 196.533 6.92203C196.533 7.6697 196.173 8.51429 195.453 9.45579C194.996 10.0512 194.469 10.4388 193.874 10.6188C193.653 10.6881 193.154 10.7573 192.379 10.8265C191.839 10.8681 191.437 11.0134 191.174 11.2627C190.814 11.6088 190.565 12.308 190.427 13.3603C190.357 13.8449 190.323 14.9179 190.323 16.5794C190.323 16.8009 190.33 16.9948 190.343 17.1609C190.399 19.93 190.586 21.4392 190.904 21.6884C191.057 21.7992 191.666 21.8892 192.732 21.9584C193.327 22.0415 193.756 22.1038 194.02 22.1454C194.781 22.45 195.162 23.1284 195.162 24.1807V24.243C195.3 26.9152 195.058 28.5005 194.435 28.999C193.784 29.4005 191.257 29.6289 186.854 29.6843C186.55 29.6982 186.266 29.7051 186.003 29.7051C184.023 29.7051 182.631 29.5389 181.828 29.2067C181.33 28.9021 181.011 28.3205 180.873 27.4621C180.831 25.5237 180.811 24.4368 180.811 24.2014C180.811 23.7168 180.901 23.2876 181.081 22.9138C181.288 22.4846 182.064 22.263 183.407 22.2492C184.404 22.2215 185.013 22.09 185.234 21.8546C185.47 21.3423 185.587 20.0408 185.587 17.9501C185.587 17.2301 185.574 16.8563 185.546 16.8286C185.421 13.1318 184.978 11.1242 184.217 10.8057ZM181.6 5.69669C181.669 5.89053 181.856 5.62746 182.161 4.90749C182.382 4.47827 182.687 4.1529 183.074 3.93137C183.351 3.76522 183.822 3.57138 184.487 3.34985C185.11 3.14216 185.477 2.99678 185.587 2.91371C184.189 2.91371 183.151 3.0937 182.472 3.45369C182.057 3.67522 181.745 4.04213 181.538 4.55442C181.441 4.80364 181.392 5.0321 181.392 5.23978C181.392 5.48901 181.461 5.64131 181.6 5.69669ZM182.119 23.7238C182.105 23.793 182.098 23.8553 182.098 23.9107C182.098 24.2153 182.521 24.3676 183.365 24.3676H183.469C183.926 24.3399 184.355 24.2291 184.757 24.0353C185.546 23.6476 186.107 23.1146 186.439 22.4361C186.633 22.0346 186.73 21.6054 186.73 21.1485C186.73 20.7469 186.654 20.3246 186.501 19.8816C186.501 19.8954 186.494 20.0616 186.481 20.38C186.467 20.7262 186.425 21.0377 186.356 21.3146C186.134 22.2284 185.574 22.8653 184.674 23.2253C184.508 23.2945 184.106 23.3292 183.469 23.3292C182.597 23.3292 182.147 23.4607 182.119 23.7238Z" fill="url(#paint7_linear_3529_1041)"/>
<path d="M207.934 27.8982C207.837 28.4936 207.54 28.9574 207.041 29.2897C206.612 29.5666 205.899 29.7051 204.902 29.7051H204.819C203.255 29.6774 202.244 29.5043 201.787 29.1859C201.302 28.8397 201.012 28.3759 200.915 27.7944C200.721 26.4652 200.624 24.0699 200.624 20.6085C200.624 19.5147 200.631 18.317 200.645 17.0155C200.714 11.6434 200.749 8.05046 200.749 6.23667V4.78288C200.749 3.67522 200.935 2.86525 201.309 2.35296C201.572 1.79913 202.022 1.34915 202.659 1.003C203.531 0.6984 204.314 0.615326 205.006 0.753782C205.698 0.892239 206.308 1.21069 206.834 1.70913C207.36 2.20758 207.983 3.05217 208.703 4.24289C210.6 7.35817 212.254 11.2211 213.667 15.8317C214.151 17.3963 214.49 18.1786 214.684 18.1786H214.705C214.857 18.0955 215.134 17.0986 215.536 15.1879C215.743 14.2187 215.882 11.8234 215.951 8.002C216.02 4.72057 216.249 2.80294 216.636 2.24912C217.343 1.25223 218.346 0.753782 219.648 0.753782C219.8 0.753782 219.952 0.760705 220.105 0.774551C221.683 0.926853 222.549 1.77144 222.701 3.30831C222.839 4.7898 222.909 6.4582 222.909 8.31352C222.909 10.6534 222.798 13.2772 222.576 16.1848C222.064 22.9276 221.019 27.0052 219.44 28.4174C218.665 29.0959 217.716 29.4628 216.595 29.5182H216.346C215.293 29.5182 214.4 29.1997 213.667 28.5628C211.687 26.846 210.24 24.9422 209.326 22.8515C209.132 22.4084 208.945 21.9307 208.765 21.4185C208.571 20.92 208.467 20.6569 208.454 20.6293C208.426 20.5462 208.398 20.5046 208.371 20.5046C208.357 20.5046 208.343 20.5323 208.329 20.5877C208.315 20.6708 208.301 20.9546 208.287 21.4392C208.204 24.8314 208.087 26.9844 207.934 27.8982ZM217.613 4.53365C217.668 4.47827 217.709 4.41596 217.737 4.34674C218.042 3.73753 218.215 3.40523 218.256 3.34985C218.353 3.22524 218.533 3.07293 218.796 2.89294C219.073 2.71295 219.26 2.56064 219.357 2.43603C219.219 2.33911 219.108 2.28373 219.025 2.26988C218.914 2.24219 218.81 2.22835 218.713 2.22835C218.298 2.22835 217.945 2.47065 217.654 2.95525C217.46 3.25985 217.363 3.55061 217.363 3.82752C217.363 4.07675 217.446 4.31212 217.613 4.53365ZM214.788 18.9678C215.037 19.1062 215.266 19.1755 215.473 19.1755C216.083 19.1755 216.498 18.5939 216.719 17.4309C216.996 16.5863 217.135 15.7694 217.135 14.9802C217.135 14.6895 217.114 14.4056 217.073 14.1287C217.003 14.2949 216.906 14.6756 216.782 15.271C216.643 15.9217 216.519 16.4271 216.408 16.7871C216.006 18.0886 215.466 18.8155 214.788 18.9678ZM201.621 6.79742C201.815 5.02517 202.265 3.84829 202.971 3.26677C203.109 3.15601 203.192 3.04524 203.22 2.93448C203.068 2.89294 202.929 2.87217 202.805 2.87217C202.375 2.87217 202.05 3.10063 201.828 3.55753C201.593 4.04213 201.475 4.63057 201.475 5.32286C201.475 5.77976 201.524 6.27129 201.621 6.79742Z" fill="url(#paint8_linear_3529_1041)"/>
<path d="M244.445 1.91682C246.121 2.53988 246.958 3.44677 246.958 4.6375V4.78288C246.958 5.75207 246.834 6.63127 246.585 7.42048C246.169 8.9435 244.923 11.1934 242.846 14.1702C239.579 18.4901 237.737 20.92 237.322 21.46C236.768 22.18 236.491 22.6923 236.491 22.9969V23.0799C236.574 23.3707 237.1 23.5507 238.07 23.6199C238.36 23.6338 238.928 23.6476 239.773 23.6615C240.617 23.6753 241.282 23.6961 241.766 23.7238C243.954 23.8207 245.38 24.0838 246.045 24.513C246.682 24.9283 247 25.4337 247 26.0291V26.0706C247 26.6521 246.682 27.1298 246.045 27.5036C244.452 28.4728 241.046 28.999 235.827 29.082H234.726C230.641 29.082 227.858 28.6528 226.377 27.7944C225.602 27.3513 225.214 26.8252 225.214 26.216V26.0706C225.255 25.6829 225.574 24.963 226.169 23.9107C226.751 22.8723 228.551 20.5323 231.569 16.8909C234.241 13.6787 235.764 11.4288 236.138 10.1412C236.193 9.94731 236.221 9.77424 236.221 9.62194C236.221 9.24811 236.034 9.01273 235.66 8.91581C235.647 8.91581 234.317 8.81889 231.673 8.62505C229.596 8.47275 228.336 8.2166 227.893 7.85662C227.145 7.24741 226.771 6.57589 226.771 5.84207C226.771 5.70361 226.785 5.55823 226.813 5.40593C227.118 3.82752 228.661 2.67833 231.444 1.95836C232.635 1.65375 234.435 1.36992 236.844 1.10685C237.73 1.02377 238.603 0.982236 239.461 0.982236C241.344 0.982236 243.006 1.29376 244.445 1.91682ZM234.954 2.83063C233.75 2.83063 232.358 3.0314 230.78 3.43292C230.226 3.57138 229.638 3.8206 229.014 4.18059C228.419 4.54058 228.121 4.85903 228.121 5.13594C228.121 5.26055 228.177 5.37824 228.288 5.48901C228.343 5.54439 228.405 5.57208 228.474 5.57208C228.599 5.57208 228.751 5.48901 228.931 5.32286C228.987 5.25363 229.104 5.12902 229.284 4.94902C229.423 4.79672 229.527 4.69288 229.596 4.6375C229.928 4.38827 230.461 4.12521 231.195 3.84829C231.652 3.68214 232.393 3.48138 233.417 3.246C234.317 3.05217 234.83 2.91371 234.954 2.83063ZM226.751 25.676H226.792C227.028 25.676 227.291 25.4683 227.581 25.0529C227.665 24.9283 227.775 24.7414 227.914 24.4922C228.052 24.243 228.142 24.0768 228.184 23.9938C228.682 23.2599 229.139 22.63 229.554 22.1038C229.859 21.73 230.357 21.1346 231.05 20.3177C231.687 19.5424 232.171 18.9401 232.504 18.5109C232.684 18.2893 233.189 17.687 234.02 16.704C234.712 15.8871 235.252 15.2087 235.64 14.6687C236.844 12.9934 237.453 11.5257 237.467 10.2658C237.412 10.3073 237.024 10.9165 236.304 12.0934C235.529 13.3672 235.079 14.101 234.954 14.2949C234.636 14.7379 233.957 15.5825 232.919 16.8286C231.465 18.587 230.524 19.7293 230.094 20.2554C227.851 23.0384 226.73 24.8037 226.73 25.5514C226.73 25.5929 226.737 25.6345 226.751 25.676Z" fill="url(#paint9_linear_3529_1041)"/>
</g>
<defs>
<filter id="filter0_d_3529_1041" x="0" y="0.296875" width="247" height="31.0677" filterUnits="userSpaceOnUse" color-interpolation-filters="sRGB">
<feFlood flood-opacity="0" result="BackgroundImageFix"/>
<feColorMatrix in="SourceAlpha" type="matrix" values="0 0 0 0 0 0 0 0 0 0 0 0 0 0 0 0 0 0 127 0" result="hardAlpha"/>
<feOffset dy="1.66148"/>
<feComposite in2="hardAlpha" operator="out"/>
<feColorMatrix type="matrix" values="0 0 0 0 0.768627 0 0 0 0 0.180392 0 0 0 0 0.0666667 0 0 0 1 0"/>
<feBlend mode="normal" in2="BackgroundImageFix" result="effect1_dropShadow_3529_1041"/>
<feBlend mode="normal" in="SourceGraphic" in2="effect1_dropShadow_3529_1041" result="shape"/>
</filter>
<linearGradient id="paint0_linear_3529_1041" x1="123.5" y1="0.296875" x2="123.5" y2="29.7051" gradientUnits="userSpaceOnUse">
<stop stop-color="#FFFB84"/>
<stop offset="1" stop-color="#FFC400"/>
</linearGradient>
<linearGradient id="paint1_linear_3529_1041" x1="123.5" y1="0.296875" x2="123.5" y2="29.7051" gradientUnits="userSpaceOnUse">
<stop stop-color="#FFFB84"/>
<stop offset="1" stop-color="#FFC400"/>
</linearGradient>
<linearGradient id="paint2_linear_3529_1041" x1="123.5" y1="0.296875" x2="123.5" y2="29.7051" gradientUnits="userSpaceOnUse">
<stop stop-color="#FFFB84"/>
<stop offset="1" stop-color="#FFC400"/>
</linearGradient>
<linearGradient id="paint3_linear_3529_1041" x1="123.5" y1="0.296875" x2="123.5" y2="29.7051" gradientUnits="userSpaceOnUse">
<stop stop-color="#FFFB84"/>
<stop offset="1" stop-color="#FFC400"/>
</linearGradient>
<linearGradient id="paint4_linear_3529_1041" x1="123.5" y1="0.296875" x2="123.5" y2="29.7051" gradientUnits="userSpaceOnUse">
<stop stop-color="#FFFB84"/>
<stop offset="1" stop-color="#FFC400"/>
</linearGradient>
<linearGradient id="paint5_linear_3529_1041" x1="123.5" y1="0.296875" x2="123.5" y2="29.7051" gradientUnits="userSpaceOnUse">
<stop stop-color="#FFFB84"/>
<stop offset="1" stop-color="#FFC400"/>
</linearGradient>
<linearGradient id="paint6_linear_3529_1041" x1="123.5" y1="0.296875" x2="123.5" y2="29.7051" gradientUnits="userSpaceOnUse">
<stop stop-color="#FFFB84"/>
<stop offset="1" stop-color="#FFC400"/>
</linearGradient>
<linearGradient id="paint7_linear_3529_1041" x1="123.5" y1="0.296875" x2="123.5" y2="29.7051" gradientUnits="userSpaceOnUse">
<stop stop-color="#FFFB84"/>
<stop offset="1" stop-color="#FFC400"/>
</linearGradient>
<linearGradient id="paint8_linear_3529_1041" x1="123.5" y1="0.296875" x2="123.5" y2="29.7051" gradientUnits="userSpaceOnUse">
<stop stop-color="#FFFB84"/>
<stop offset="1" stop-color="#FFC400"/>
</linearGradient>
<linearGradient id="paint9_linear_3529_1041" x1="123.5" y1="0.296875" x2="123.5" y2="29.7051" gradientUnits="userSpaceOnUse">
<stop stop-color="#FFFB84"/>
<stop offset="1" stop-color="#FFC400"/>
</linearGradient>
</defs>
</svg>
