<svg width="157" height="54" viewBox="0 0 157 54" fill="none" xmlns="http://www.w3.org/2000/svg">
<g clip-path="url(#clip0_9124_144253)">
<mask id="mask0_9124_144253" style="mask-type:luminance" maskUnits="userSpaceOnUse" x="0" y="0" width="58" height="54">
<path d="M57.593 0.175781H0V53.824H57.593V0.175781Z" fill="white"/>
</mask>
<g mask="url(#mask0_9124_144253)">
<path d="M34.6494 23.1894L36.8561 23.1184L34.3438 22.793C34.4466 22.9231 34.5465 23.0563 34.6494 23.1924V23.1894Z" fill="url(#paint0_linear_9124_144253)"/>
<path d="M33.1136 22.63L33.0078 22.6152L34.427 24.5591C34.7092 24.5029 34.9883 24.4585 35.2587 24.4289L33.1136 22.6271V22.63Z" fill="url(#paint1_linear_9124_144253)"/>
<path d="M33.7085 22.0471L34.2551 21.8311L33.5234 21.8459C33.5851 21.911 33.6497 21.9791 33.7114 22.0471H33.7085Z" fill="url(#paint2_linear_9124_144253)"/>
<path d="M23.7954 19.9463C25.8581 20.9907 28.6967 23.0382 30.1717 26.778C31.5557 25.485 33.0426 24.843 34.4118 24.5619L31.7879 21.9878L32.8486 23.9465L29.8192 21.186L30.5802 23.0234L27.9709 20.4995H27.9121L28.776 22.2926L24.862 19.4966L26.9218 21.541L23.3047 19.3486L23.7924 19.9463H23.7954Z" fill="url(#paint3_linear_9124_144253)"/>
<path d="M21.3695 16.8159C21.584 13.7979 23.015 8.47509 30.1583 6.2294L27.2375 8.49284L29.691 7.40699L26.5822 9.45148L28.7126 8.83611L25.3775 11.2119L27.3256 10.8657L24.1786 12.9635L26.2208 12.4783L22.6565 15.7122L25.0866 14.1352L22.1717 17.2093L22.8563 16.8602C25.0631 14.1441 29.8645 10.1941 37.9745 12.7416L33.7343 12.9576L36.7639 13.5493L32.4885 13.434L34.9068 14.2566L30.2024 14.3068L32.274 15.2625L27.928 15.1737L30.1789 16.0613L24.6987 16.7744L28.025 16.8839L23.2648 17.8721L25.6478 18.2035L24.9455 18.3455C26.3648 18.2922 28.0779 18.4728 29.8263 19.2272C34.1869 19.0793 36.9284 21.4493 38.3447 23.189L38.8972 23.4701L36.5523 20.9995L38.5063 22.2659L35.6384 19.6652L37.281 20.0557L34.751 18.3692L36.3172 18.6473L33.6344 16.7389L35.3475 17.233L32.8469 15.5909L34.8186 16.4638L32.4679 14.6441C38.2095 16.4489 39.3614 20.7303 39.5319 23.1565C40.3693 20.4966 42.8052 15.9785 49.7516 15.5317L46.631 16.9224L49.0729 16.4874L45.8318 17.6384L47.8829 17.5555L44.3655 18.955L46.1932 19.0734L42.9052 20.2658L44.8475 20.2805L40.9364 22.4049L43.4634 21.5232L42.8611 21.9108C45.2382 20.6652 48.6909 19.9906 53.0721 22.1801L49.6782 21.8102L52.0083 22.6653L48.6292 22.0292L50.4451 22.9908L46.7045 22.4286L48.2296 23.4523L44.7916 22.828L46.4665 23.8193L42.0266 23.6861L44.6535 24.198L43.9395 24.2305C46.6164 24.3489 49.9397 25.5057 52.643 29.6095L49.8898 27.5799L51.4824 29.4942L48.8731 27.2396L49.9661 28.9882L47.0072 26.6153L47.8182 28.2692L45.153 25.9969L46.111 27.6982L42.3322 25.343L44.3537 27.1094L40.8864 25.2956L42.2058 26.7188L39.667 25.3785C41.2567 27.1182 44.0453 32.947 33.8783 48.6166C38.5709 48.9983 42.6554 50.6936 45.8406 52.5488C52.9722 47.2703 57.6001 38.7669 57.6001 29.1716C57.5943 13.1588 44.7005 0.175781 28.7978 0.175781C21.49 0.175781 14.8198 2.91856 9.74219 7.43362C17.5525 8.37158 20.3734 13.647 21.3666 16.8159H21.3695Z" fill="url(#paint4_linear_9124_144253)"/>
<path d="M34.75 23.3223C34.9939 23.6625 35.2348 24.0264 35.467 24.4111C35.8842 24.3756 36.2839 24.3697 36.66 24.3815L36.0958 24.2661L38.0117 23.9998L34.75 23.3223Z" fill="url(#paint5_linear_9124_144253)"/>
<path d="M29.2277 28.6631L29.1719 29.1868L29.2953 29.0182L29.2277 28.6631Z" fill="url(#paint6_linear_9124_144253)"/>
<path d="M29.5482 46.8265C30.1653 47.6726 31.0703 48.2408 32.0724 48.4538C34.4613 45.3619 43.7585 32.5238 39.345 25.3696L38.1314 28.1093L38.293 26.1684L36.6857 29.7545L37.1852 27.1064L35.666 31.3107L35.3692 29.3757L34.6758 32.8227L34.2938 31.0178L33.4299 34.7251L33.2125 32.6688L32.5513 36.0655L32.6218 33.5683L31.708 36.8791C31.1467 30.0237 35.0695 26.9259 37.5731 25.6595L37.9668 25.1802L35.0578 26.9436L36.7121 25.3015L33.5651 27.5501L34.3026 26.0205L32.1164 28.1389L32.7276 26.6596L30.7207 28.4881C31.1027 30.0385 31.2613 31.8256 31.0939 33.8908L29.9597 29.7722L30.0478 32.8759L29.3132 29.0976L29.1633 29.2455L28.9576 31.2072L28.4816 29.1657L28.0085 29.5621C28.1408 29.3283 28.2788 29.1094 28.417 28.8934L27.8821 26.5945L27.4091 28.8372L26.5452 24.547L26.1779 26.9525L24.2885 21.7214L24.9085 25.0145L22.9104 20.5527L23.1102 22.967L21.5999 19.5615C16.6457 27.5916 25.5726 41.3706 29.5482 46.8147V46.8265Z" fill="url(#paint7_linear_9124_144253)"/>
<path d="M19.4506 18.455L19.8502 18.3337L18.3516 18.2656C18.7424 18.3189 19.1097 18.384 19.4506 18.455Z" fill="url(#paint8_linear_9124_144253)"/>
<path d="M30.5547 27.8876C30.587 27.9971 30.6194 28.1095 30.6487 28.2219L31.1424 27.3076L30.5547 27.8846V27.8876Z" fill="url(#paint9_linear_9124_144253)"/>
<path d="M26.5104 48.7383H26.5309C27.4008 48.6495 27.8738 47.6732 27.4066 46.9275C15.9409 28.6098 19.2761 21.6923 21.2007 19.5856L18.0448 21.2514L19.6874 19.482L15.3738 21.7366L17.8862 19.5383L13.1876 22.4675L14.3776 20.349L11.0602 23.1775L12.0681 21.1212L8.38625 24.0711L9.7467 21.8965L6.50272 24.7013L8.48321 22.3195L5.05995 24.8433C8.42443 19.7395 12.5588 18.3015 15.888 18.1536L14.9977 18.1121L18.2652 17.476L12.741 17.6418L14.8244 16.4079L10.546 17.1831L12.4413 15.9108L7.78681 16.6091L10.0464 15.4138L5.84451 16.2067L8.74182 15.1445L4.52222 15.6031C9.97005 12.8811 14.266 13.7184 17.222 15.2688L16.4728 14.7865L19.6169 15.8842L14.7538 13.242L17.1692 13.2243L13.0818 11.739L15.3562 11.594L10.9808 9.85132L13.5314 9.95483L9.49992 8.52281L12.5382 9.06426L9.45874 7.69141C3.64952 12.9935 0 20.6537 0 29.172C0 39.5839 5.45076 48.7117 13.6342 53.8244C16.9194 51.9811 22.5347 49.1318 26.5104 48.7383Z" fill="url(#paint10_linear_9124_144253)"/>
<path d="M40.498 23.5652C40.7037 23.3788 40.9329 23.1835 41.1856 22.9883L40.1719 23.6422L40.498 23.5652Z" fill="url(#paint11_linear_9124_144253)"/>
<path d="M41.9469 24.3164L40.7422 24.3727L41.0624 24.4703C41.3357 24.4111 41.6295 24.3578 41.944 24.3164H41.9469Z" fill="url(#paint12_linear_9124_144253)"/>
<path d="M20.5682 17.423L19.3047 16.6094C19.6191 16.852 19.9041 17.0946 20.1597 17.3283L20.5653 17.423H20.5682Z" fill="url(#paint13_linear_9124_144253)"/>
</g>
<path d="M70.8277 28.6371C69.973 28.5977 69.046 28.5779 68.0467 28.5779C67.0605 28.5779 66.1532 28.5977 65.3248 28.6371L65.2656 28.0651C65.9362 27.9336 66.3899 27.8153 66.6266 27.7101C66.8632 27.6049 66.9948 27.4405 67.021 27.217C67.1262 26.4412 67.1788 25.0342 67.1788 22.9961C67.1788 19.6958 67.1394 17.6379 67.0605 16.8227L67.021 16.4282C66.9948 16.1915 66.8764 16.0272 66.666 15.9351C66.4556 15.8299 66.0348 15.7116 65.4037 15.5801L65.4629 15.0081C66.2913 15.0475 67.1723 15.0673 68.1058 15.0673H71.518C72.7935 15.0673 73.76 15.3697 74.4174 15.9745C75.088 16.5794 75.4233 17.3289 75.4233 18.223C75.4233 19.8272 74.5357 21.0698 72.7606 21.9508L76.232 27.7298C76.5344 27.8876 77.0801 27.9994 77.869 28.0651L77.8098 28.6371L74.4766 28.7554L70.9855 22.2269C70.5384 22.2532 69.8612 22.2664 68.9539 22.2664C68.9539 24.6989 69.0066 26.2505 69.1117 26.9211L69.1709 27.217C69.1972 27.4537 69.3221 27.6246 69.5457 27.7298C69.7823 27.8219 70.2294 27.9336 70.8869 28.0651L70.8277 28.6371ZM73.6284 18.223C73.6284 16.6714 72.5371 15.8956 70.3543 15.8956C69.881 15.8956 69.5719 15.9219 69.4273 15.9745C69.2958 16.0272 69.2038 16.1455 69.1512 16.3296C69.0197 17.1185 68.9539 18.841 68.9539 21.4971C70.4003 21.4971 71.4326 21.4314 72.0505 21.2999C73.1024 20.6556 73.6284 19.63 73.6284 18.223ZM81.3396 17.1777C81.1424 17.3749 80.8994 17.4735 80.6098 17.4735C80.3211 17.4735 80.0773 17.3749 79.88 17.1777C79.6828 16.9673 79.5842 16.7175 79.5842 16.4282C79.5842 16.1258 79.6828 15.8759 79.88 15.6787C80.0773 15.4814 80.3211 15.3828 80.6098 15.3828C80.8994 15.3828 81.1424 15.4814 81.3396 15.6787C81.5368 15.8759 81.6354 16.1258 81.6354 16.4282C81.6354 16.7175 81.5368 16.9673 81.3396 17.1777ZM81.4185 19.7023L81.379 24.0612C81.379 25.7575 81.4319 26.862 81.5368 27.3748L81.5763 27.6312C81.5897 27.7233 81.7538 27.8153 82.0694 27.9073C82.3984 27.9862 82.7005 28.0388 82.9767 28.0651L82.9175 28.6371C82.2863 28.5977 81.5171 28.5779 80.6098 28.5779C79.7025 28.5779 78.9333 28.5977 78.3023 28.6371L78.3615 28.0651C78.6376 28.0388 78.9333 27.9862 79.2489 27.9073C79.5645 27.8153 79.7293 27.7233 79.742 27.6312C79.8477 27.171 79.8998 26.2505 79.8998 24.8699C79.8998 22.6346 79.8477 21.267 79.742 20.7674L78.4798 20.3926L78.4404 19.8798C79.282 19.8798 80.1499 19.7615 81.0437 19.5248L81.4185 19.7023ZM91.6038 27.4537C90.5126 28.3215 89.3221 28.7554 88.0338 28.7554C86.7454 28.7554 85.7522 28.3478 85.0555 27.5326C84.3589 26.7174 84.0102 25.6588 84.0102 24.3571C84.0102 23.0421 84.411 21.9048 85.2133 20.9449C86.0283 19.985 87.1596 19.5051 88.6058 19.5051C89.1975 19.5051 89.7237 19.6037 90.1837 19.8009C90.657 19.985 90.9923 20.1757 91.1896 20.3729C91.3868 20.5701 91.4854 20.7279 91.4854 20.8463C91.4854 21.3723 91.3276 21.8522 91.0121 22.2861H90.5387C90.3809 21.8522 90.1111 21.4577 89.73 21.1027C89.3616 20.7477 88.8819 20.5701 88.2902 20.5701C87.4752 20.5701 86.8441 20.9383 86.3967 21.6747C85.9628 22.3979 85.7458 23.292 85.7458 24.3571C85.7458 25.409 86.0022 26.2111 86.5151 26.7634C87.0279 27.3156 87.7442 27.5917 88.6649 27.5917C89.5856 27.5917 90.4858 27.3288 91.3671 26.8028L91.6038 27.4537ZM96.739 28.6371C96.1078 28.5977 95.3844 28.5779 94.5694 28.5779C93.7544 28.5779 93.031 28.5977 92.3998 28.6371L92.459 28.0651C92.7091 28.0388 92.9718 27.9862 93.2479 27.9073C93.5375 27.8153 93.6881 27.7233 93.7016 27.6312C93.7939 26.7765 93.8396 25.1328 93.8396 22.7003C93.8396 18.7424 93.8002 16.4282 93.7213 15.7576L93.6818 15.4223L92.4195 15.0475L92.3801 14.5347C93.2219 14.5347 94.0897 14.4164 94.9836 14.1797L95.3583 14.3572C95.3323 15.8956 95.3189 17.9929 95.3189 20.649C96.7784 19.8864 98.0936 19.5051 99.2636 19.5051C99.9208 19.5051 100.421 19.6366 100.763 19.8995C101.104 20.1625 101.275 20.6556 101.275 21.3788V24.0612C101.275 25.7575 101.328 26.862 101.433 27.3748L101.473 27.6312C101.486 27.7233 101.63 27.8153 101.907 27.9073C102.196 27.9862 102.472 28.0388 102.735 28.0651L102.676 28.6371C102.045 28.5977 101.321 28.5779 100.506 28.5779C99.6912 28.5779 98.9678 28.5977 98.3366 28.6371L98.3958 28.0651C98.6459 28.0388 98.9086 27.9862 99.1847 27.9073C99.4743 27.8153 99.625 27.7233 99.6384 27.6312C99.7433 27.171 99.7962 25.981 99.7962 24.0612V22.148C99.7962 21.6352 99.6447 21.2802 99.3425 21.083C99.0404 20.8857 98.6782 20.7871 98.2577 20.7871C97.8372 20.7871 97.4948 20.8068 97.2321 20.8463C96.982 20.8725 96.7524 20.912 96.5418 20.9646C96.0155 21.1092 95.6739 21.2145 95.5161 21.2802L95.3189 21.3394C95.3189 25.2446 95.3915 27.3419 95.5359 27.6312C95.5493 27.7233 95.6936 27.8153 95.9698 27.9073C96.2593 27.9862 96.5355 28.0388 96.7982 28.0651L96.739 28.6371ZM111.386 15.0673H114.384C115.831 15.0673 116.935 15.4157 117.697 16.1126C118.46 16.8095 118.841 17.697 118.841 18.7753C118.841 19.8404 118.368 20.82 117.421 21.7141C116.474 22.6082 115.212 23.0553 113.634 23.0553C113.2 23.0553 112.734 23.0159 112.234 22.937L112.392 27.217C112.418 27.4537 112.543 27.6246 112.766 27.7298C112.99 27.8219 113.424 27.9336 114.068 28.0651L114.009 28.6371C113.181 28.5977 112.28 28.5779 111.307 28.5779C110.334 28.5779 109.433 28.5977 108.605 28.6371L108.546 28.0651C109.216 27.9336 109.67 27.8153 109.906 27.7101C110.143 27.6049 110.275 27.4405 110.301 27.217C110.407 26.4412 110.459 25.0342 110.459 22.9961C110.459 19.6958 110.419 17.6379 110.34 16.8227L110.301 16.4282C110.275 16.1915 110.157 16.0272 109.946 15.9351C109.736 15.8299 109.315 15.7116 108.684 15.5801L108.743 15.0081C109.571 15.0475 110.452 15.0673 111.386 15.0673ZM113.319 22.2269C114.45 22.2269 115.338 21.9573 115.981 21.4183C116.626 20.8792 116.948 20.0639 116.948 18.9725C116.948 17.868 116.672 17.0791 116.119 16.6057C115.567 16.1323 114.739 15.8956 113.634 15.8956C113.148 15.8956 112.839 15.9285 112.707 15.9943C112.576 16.06 112.484 16.2507 112.431 16.5662C112.3 17.25 112.234 19.1171 112.234 22.1678C112.616 22.2072 112.977 22.2269 113.319 22.2269ZM123.691 24.436C122.612 24.4622 121.791 24.6661 121.225 25.0474C120.66 25.4287 120.377 25.8429 120.377 26.29C120.377 26.7371 120.489 27.0658 120.713 27.2762C120.949 27.4734 121.324 27.572 121.837 27.572C122.35 27.572 122.967 27.3551 123.691 26.9211V24.436ZM125.131 28.7554C124.342 28.7554 123.882 28.3281 123.75 27.4734C122.593 28.3281 121.594 28.7554 120.752 28.7554C120.186 28.7554 119.707 28.5845 119.312 28.2426C118.918 27.8876 118.721 27.3419 118.721 26.6056C118.721 25.8692 119.109 25.2052 119.884 24.6135C120.673 24.0218 121.942 23.6667 123.691 23.5484V21.7141C123.691 21.3459 123.553 21.0632 123.277 20.866C123.014 20.6688 122.639 20.5701 122.152 20.5701C121.666 20.5701 121.278 20.7082 120.989 20.9843C120.699 21.2473 120.555 21.5892 120.555 22.01C120.555 22.1678 120.575 22.3453 120.614 22.5425L120.18 22.7397C119.917 22.5951 119.667 22.3979 119.431 22.148C119.207 21.8982 119.095 21.7207 119.095 21.6155C119.095 21.4971 119.181 21.3328 119.352 21.1224C119.536 20.8989 119.779 20.6622 120.082 20.4124C120.384 20.1625 120.785 19.9522 121.285 19.7812C121.797 19.5971 122.369 19.5051 123.001 19.5051C123.632 19.5051 124.145 19.6629 124.539 19.9784C124.934 20.2808 125.131 20.8397 125.131 21.6549C125.131 22.4571 125.17 24.1598 125.249 26.7634C125.263 27.3945 125.499 27.7101 125.959 27.7101C126.156 27.7101 126.36 27.6575 126.571 27.5523L126.768 28.0651C126.268 28.5253 125.722 28.7554 125.131 28.7554ZM130.417 14.3572C130.391 16.0008 130.378 18.4071 130.378 21.576C130.378 24.745 130.45 26.7634 130.595 27.6312C130.608 27.7233 130.779 27.8153 131.108 27.9073C131.436 27.9994 131.726 28.0519 131.976 28.0651L131.916 28.6371C131.285 28.5977 130.522 28.5779 129.629 28.5779C128.734 28.5779 127.972 28.5977 127.341 28.6371L127.4 28.0651C127.676 28.0388 127.965 27.9862 128.268 27.9073C128.583 27.8153 128.747 27.7233 128.761 27.6312C128.852 26.7765 128.899 25.1328 128.899 22.7003C128.899 18.7424 128.859 16.4282 128.78 15.7576L128.741 15.4223L127.479 15.0475L127.439 14.5347C128.28 14.5347 129.148 14.4164 130.043 14.1797L130.417 14.3572ZM141.392 24.0612C141.392 25.7575 141.439 26.862 141.531 27.3748L141.59 27.6312C141.603 27.7233 141.748 27.8153 142.024 27.9073C142.313 27.9862 142.589 28.0388 142.852 28.0651L142.793 28.6371C142.162 28.5977 141.439 28.5779 140.623 28.5779C139.808 28.5779 139.085 28.5977 138.454 28.6371L138.513 28.0651C138.763 28.0388 139.026 27.9862 139.302 27.9073C139.591 27.8153 139.743 27.7233 139.755 27.6312C139.861 27.171 139.913 25.981 139.913 24.0612V22.148C139.913 21.6352 139.763 21.2802 139.46 21.083C139.157 20.8857 138.796 20.7871 138.375 20.7871C137.954 20.7871 137.625 20.8068 137.389 20.8463C137.152 20.8725 136.942 20.912 136.757 20.9646C136.508 21.0303 136.166 21.1553 135.732 21.3394V24.0612C135.732 25.6917 135.785 26.7963 135.89 27.3748L135.949 27.6312C135.962 27.7233 136.107 27.8153 136.383 27.9073C136.672 27.9862 136.948 28.0388 137.211 28.0651L137.152 28.6371C136.521 28.5977 135.798 28.5779 134.982 28.5779C134.167 28.5779 133.444 28.5977 132.813 28.6371L132.872 28.0651C133.122 28.0388 133.385 27.9862 133.661 27.9073C133.95 27.8153 134.102 27.7233 134.114 27.6312C134.207 27.171 134.253 26.2505 134.253 24.8699C134.253 22.6346 134.2 21.267 134.095 20.7674L132.832 20.3926L132.793 19.8798C133.635 19.8798 134.503 19.7615 135.397 19.5248L135.771 19.7023C135.759 20.0311 135.752 20.3466 135.752 20.649C137.211 19.8864 138.454 19.5051 139.479 19.5051C140.505 19.5051 141.116 19.893 141.314 20.6688C142.694 19.893 143.944 19.5051 145.061 19.5051C145.719 19.5051 146.218 19.6366 146.56 19.8995C146.902 20.1625 147.073 20.6556 147.073 21.3788V24.0612C147.073 25.7575 147.119 26.862 147.211 27.3748L147.27 27.6312C147.284 27.7233 147.428 27.8153 147.704 27.9073C147.994 27.9862 148.27 28.0388 148.532 28.0651L148.473 28.6371C147.842 28.5977 147.119 28.5779 146.304 28.5779C145.489 28.5779 144.765 28.5977 144.134 28.6371L144.193 28.0651C144.443 28.0388 144.706 27.9862 144.982 27.9073C145.272 27.8153 145.423 27.7233 145.436 27.6312C145.542 27.171 145.594 25.981 145.594 24.0612V22.148C145.594 21.6352 145.443 21.2802 145.14 21.083C144.838 20.8857 144.299 20.7871 143.523 20.7871C142.761 20.7871 142.05 20.9712 141.392 21.3394V24.0612ZM154.98 19.8601L155.256 19.9982C155.256 20.8528 155.295 21.5037 155.374 21.9508L154.861 22.1283C154.691 21.4577 154.447 20.9909 154.132 20.7279C153.829 20.465 153.441 20.3335 152.968 20.3335C152.495 20.3335 152.12 20.4583 151.844 20.7082C151.568 20.9581 151.429 21.2539 151.429 21.5958C151.429 22.1875 151.772 22.674 152.455 23.0553L154.467 24.1598C155.335 24.6464 155.769 25.3498 155.769 26.2703C155.769 26.9409 155.5 27.526 154.96 28.0257C154.435 28.5122 153.678 28.7554 152.692 28.7554C151.706 28.7554 150.693 28.5911 149.654 28.2623C149.812 27.3419 149.891 26.5858 149.891 25.9941L150.404 25.8166C150.522 26.29 150.608 26.6121 150.66 26.7831C150.726 26.954 150.831 27.1644 150.976 27.4142C151.134 27.6641 151.331 27.8284 151.568 27.9073C151.804 27.9862 152.153 28.0257 152.613 28.0257C153.074 28.0257 153.455 27.8941 153.757 27.6312C154.06 27.3682 154.21 27.0527 154.21 26.6845C154.21 26.1322 153.902 25.6851 153.283 25.3433L151.153 24.1598C150.285 23.6996 149.852 22.9961 149.852 22.0494C149.852 21.3788 150.108 20.7871 150.621 20.2743C151.134 19.7615 151.851 19.5051 152.771 19.5051C153.691 19.5051 154.427 19.6234 154.98 19.8601Z" fill="white"/>
<path d="M70.6705 43.5475C69.8847 44.1723 69.0279 44.4847 68.1001 44.4847C67.1723 44.4847 66.4575 44.1912 65.9558 43.6043C65.454 43.0173 65.2031 42.2552 65.2031 41.3179C65.2031 40.3712 65.4919 39.5522 66.0694 38.8611C66.6564 38.17 67.4706 37.8245 68.512 37.8245C68.938 37.8245 69.3167 37.8955 69.648 38.0375C69.9889 38.17 70.2303 38.3073 70.3723 38.4493C70.5143 38.5913 70.5853 38.7049 70.5853 38.7901C70.5853 39.1688 70.4717 39.5144 70.2445 39.8268H69.9037C69.79 39.5144 69.596 39.2304 69.3214 38.9747C69.0563 38.7191 68.7108 38.5913 68.2847 38.5913C67.6978 38.5913 67.2433 38.8564 66.9214 39.3866C66.609 39.9073 66.4528 40.551 66.4528 41.3179C66.4528 42.0753 66.6374 42.6528 67.0066 43.0504C67.3759 43.4481 67.8918 43.6469 68.5546 43.6469C69.2173 43.6469 69.8658 43.4575 70.5001 43.0788L70.6705 43.5475ZM75.1206 41.3747C74.3442 41.3936 73.7525 41.5404 73.3454 41.8149C72.9383 42.0895 72.7348 42.3877 72.7348 42.7096C72.7348 43.0315 72.8153 43.2682 72.9762 43.4197C73.1466 43.5617 73.4164 43.6327 73.7857 43.6327C74.1549 43.6327 74.5998 43.4765 75.1206 43.164V41.3747ZM76.1572 44.4847C75.5892 44.4847 75.2578 44.177 75.1632 43.5617C74.33 44.177 73.6105 44.4847 73.0046 44.4847C72.5975 44.4847 72.252 44.3617 71.9679 44.1155C71.6839 43.8599 71.5419 43.467 71.5419 42.9368C71.5419 42.4066 71.8212 41.9285 72.3798 41.5025C72.9478 41.0765 73.8614 40.8209 75.1206 40.7357V39.415C75.1206 39.1499 75.0211 38.9463 74.8223 38.8043C74.633 38.6623 74.3632 38.5913 74.0129 38.5913C73.6626 38.5913 73.3833 38.6907 73.175 38.8895C72.9667 39.0789 72.8626 39.325 72.8626 39.628C72.8626 39.7416 72.8768 39.8694 72.9052 40.0114L72.5928 40.1534C72.4034 40.0493 72.2235 39.9073 72.0531 39.7274C71.8922 39.5475 71.8117 39.4197 71.8117 39.344C71.8117 39.2588 71.8733 39.1404 71.9963 38.9889C72.1289 38.828 72.304 38.6576 72.5218 38.4777C72.7395 38.2978 73.0283 38.1463 73.388 38.0233C73.7573 37.8907 74.1691 37.8245 74.6235 37.8245C75.078 37.8245 75.4472 37.9381 75.7312 38.1653C76.0152 38.383 76.1572 38.7854 76.1572 39.3724C76.1572 39.9499 76.1856 41.1759 76.2424 43.0504C76.2519 43.5049 76.4223 43.7321 76.7537 43.7321C76.8957 43.7321 77.0424 43.6942 77.1939 43.6185L77.3359 43.9877C76.9761 44.319 76.5833 44.4847 76.1572 44.4847ZM81.8806 38.0801L82.0794 38.1795C82.0794 38.7949 82.1078 39.2635 82.1646 39.5854L81.7954 39.7132C81.6723 39.2304 81.4972 38.8943 81.27 38.7049C81.0522 38.5156 80.7729 38.4209 80.4321 38.4209C80.0913 38.4209 79.8215 38.5108 79.6227 38.6907C79.4239 38.8706 79.3244 39.0836 79.3244 39.3298C79.3244 39.7558 79.5706 40.1061 80.0629 40.3806L81.5114 41.1759C82.1362 41.5262 82.4487 42.0327 82.4487 42.6954C82.4487 43.1782 82.2546 43.5995 81.8664 43.9593C81.4877 44.3096 80.9434 44.4847 80.2333 44.4847C79.5233 44.4847 78.7943 44.3664 78.0464 44.1297C78.16 43.467 78.2168 42.9226 78.2168 42.4966L78.586 42.3688C78.6712 42.7096 78.7327 42.9416 78.7706 43.0646C78.8179 43.1877 78.8937 43.3392 78.9978 43.5191C79.1114 43.6989 79.2534 43.8173 79.4238 43.8741C79.5943 43.9309 79.8451 43.9593 80.1765 43.9593C80.5079 43.9593 80.7824 43.8646 81.0002 43.6753C81.2179 43.4859 81.3268 43.2587 81.3268 42.9936C81.3268 42.596 81.1043 42.2741 80.6593 42.028L79.1256 41.1759C78.5008 40.8445 78.1884 40.338 78.1884 39.6564C78.1884 39.1736 78.373 38.7475 78.7422 38.3783C79.1114 38.0091 79.6274 37.8245 80.2901 37.8245C80.9528 37.8245 81.483 37.9097 81.8806 38.0801ZM85.4001 36.1487C85.2581 36.2907 85.083 36.3618 84.8747 36.3618C84.6664 36.3618 84.4912 36.2907 84.3492 36.1487C84.2072 35.9973 84.1362 35.8174 84.1362 35.6091C84.1362 35.3913 84.2072 35.2115 84.3492 35.0695C84.4912 34.9275 84.6664 34.8564 84.8747 34.8564C85.083 34.8564 85.2581 34.9275 85.4001 35.0695C85.5421 35.2115 85.6131 35.3913 85.6131 35.6091C85.6131 35.8174 85.5421 35.9973 85.4001 36.1487ZM85.4569 37.9665L85.4285 41.1049C85.4285 42.3262 85.4664 43.1214 85.5421 43.4907L85.5705 43.6753C85.58 43.7415 85.6983 43.8078 85.9255 43.8741C86.1622 43.9309 86.38 43.9688 86.5788 43.9877L86.5362 44.3995C86.0818 44.3711 85.5279 44.3569 84.8747 44.3569C84.2214 44.3569 83.6676 44.3711 83.2132 44.3995L83.2558 43.9877C83.4546 43.9688 83.6676 43.9309 83.8948 43.8741C84.122 43.8078 84.2404 43.7415 84.2498 43.6753C84.3256 43.3439 84.3634 42.6812 84.3634 41.6871C84.3634 40.0777 84.3256 39.0931 84.2498 38.7333L83.341 38.4635L83.3126 38.0943C83.9185 38.0943 84.5433 38.0091 85.1871 37.8387L85.4569 37.9665ZM89.2683 39.1451L89.2541 41.1049C89.2541 42.3262 89.292 43.1214 89.3677 43.4907L89.3961 43.6753C89.4056 43.7415 89.5097 43.8078 89.7085 43.8741C89.9168 43.9309 90.1156 43.9688 90.305 43.9877L90.2624 44.3995C89.8079 44.3711 89.2872 44.3569 88.7003 44.3569C88.1133 44.3569 87.5926 44.3711 87.1381 44.3995L87.1808 43.9877C87.3606 43.9688 87.55 43.9309 87.7488 43.8741C87.9571 43.8078 88.066 43.7415 88.0754 43.6753C88.1512 43.3439 88.189 42.6812 88.189 41.6871C88.189 40.0777 88.1512 39.0931 88.0754 38.7333L87.1666 38.4635L87.1381 38.0943C87.7441 38.0943 88.3689 38.0091 89.0127 37.8387L89.2825 37.9665V38.6481C90.3334 38.099 91.247 37.8245 92.0233 37.8245C92.4967 37.8245 92.8564 37.9191 93.1026 38.1085C93.3487 38.2978 93.4718 38.6528 93.4718 39.1736V41.1049C93.4718 42.3262 93.5049 43.1214 93.5712 43.4907L93.6138 43.6753C93.6233 43.7415 93.7274 43.8078 93.9262 43.8741C94.1345 43.9309 94.3333 43.9688 94.5227 43.9877L94.4801 44.3995C94.0256 44.3711 93.5049 44.3569 92.918 44.3569C92.331 44.3569 91.8103 44.3711 91.3558 44.3995L91.3985 43.9877C91.5783 43.9688 91.7677 43.9309 91.9665 43.8741C92.1748 43.8078 92.2837 43.7415 92.2931 43.6753C92.3689 43.3439 92.4067 42.4871 92.4067 41.1049V39.7274C92.4067 39.3582 92.2978 39.1025 92.0801 38.9605C91.8624 38.8185 91.4931 38.7475 90.9724 38.7475C90.4517 38.7475 89.8837 38.8801 89.2683 39.1451ZM98.5494 38.5203C98.1613 38.5203 97.8252 38.6197 97.5412 38.8185C97.2572 39.0079 97.0489 39.2493 96.9163 39.5428C96.6607 40.0824 96.5329 40.5984 96.5329 41.0907C96.5329 41.867 96.6891 42.5155 97.0015 43.0362C97.314 43.5475 97.8063 43.8031 98.4784 43.8031C98.8382 43.8031 99.1554 43.7226 99.4299 43.5617C99.7045 43.3913 99.9127 43.1735 100.055 42.9084C100.329 42.4161 100.476 41.9238 100.495 41.4315C100.495 39.4907 99.8465 38.5203 98.5494 38.5203ZM98.6205 37.8245C99.6997 37.8245 100.486 38.099 100.978 38.6481C101.47 39.1972 101.716 39.9641 101.716 40.9487C101.716 41.9238 101.432 42.7569 100.864 43.4481C100.306 44.1392 99.4867 44.4847 98.4074 44.4847C97.3282 44.4847 96.5424 44.2149 96.0501 43.6753C95.5578 43.1262 95.3116 42.364 95.3116 41.3889C95.3116 40.4138 95.5909 39.5759 96.1495 38.8753C96.7175 38.1747 97.5412 37.8245 98.6205 37.8245Z" fill="#FF522C"/>
</g>
<defs>
<linearGradient id="paint0_linear_9124_144253" x1="35.5999" y1="22.8162" x2="35.5999" y2="23.2752" gradientUnits="userSpaceOnUse">
<stop stop-color="#F15431"/>
<stop offset="1" stop-color="#F17531"/>
</linearGradient>
<linearGradient id="paint1_linear_9124_144253" x1="34.1332" y1="22.7284" x2="34.1332" y2="24.962" gradientUnits="userSpaceOnUse">
<stop stop-color="#F15431"/>
<stop offset="1" stop-color="#F17531"/>
</linearGradient>
<linearGradient id="paint2_linear_9124_144253" x1="33.8893" y1="21.8437" x2="33.8893" y2="22.0919" gradientUnits="userSpaceOnUse">
<stop stop-color="#F15431"/>
<stop offset="1" stop-color="#F17531"/>
</linearGradient>
<linearGradient id="paint3_linear_9124_144253" x1="28.8583" y1="19.7809" x2="28.8583" y2="28.318" gradientUnits="userSpaceOnUse">
<stop stop-color="#F15431"/>
<stop offset="1" stop-color="#F17531"/>
</linearGradient>
<linearGradient id="paint4_linear_9124_144253" x1="33.6712" y1="3.22294" x2="33.6712" y2="63.4043" gradientUnits="userSpaceOnUse">
<stop stop-color="#F15431"/>
<stop offset="1" stop-color="#F17531"/>
</linearGradient>
<linearGradient id="paint5_linear_9124_144253" x1="36.3808" y1="23.3856" x2="36.3808" y2="24.6367" gradientUnits="userSpaceOnUse">
<stop stop-color="#F15431"/>
<stop offset="1" stop-color="#F17531"/>
</linearGradient>
<linearGradient id="paint6_linear_9124_144253" x1="29.2336" y1="28.6935" x2="29.2336" y2="29.2953" gradientUnits="userSpaceOnUse">
<stop stop-color="#F15431"/>
<stop offset="1" stop-color="#F17531"/>
</linearGradient>
<linearGradient id="paint7_linear_9124_144253" x1="30.329" y1="21.2425" x2="30.329" y2="54.4423" gradientUnits="userSpaceOnUse">
<stop stop-color="#F15431"/>
<stop offset="1" stop-color="#F17531"/>
</linearGradient>
<linearGradient id="paint8_linear_9124_144253" x1="19.1008" y1="18.2767" x2="19.1008" y2="18.4943" gradientUnits="userSpaceOnUse">
<stop stop-color="#F15431"/>
<stop offset="1" stop-color="#F17531"/>
</linearGradient>
<linearGradient id="paint9_linear_9124_144253" x1="30.8486" y1="27.3609" x2="30.8486" y2="28.4114" gradientUnits="userSpaceOnUse">
<stop stop-color="#F15431"/>
<stop offset="1" stop-color="#F17531"/>
</linearGradient>
<linearGradient id="paint10_linear_9124_144253" x1="13.795" y1="10.3755" x2="13.795" y2="63.3865" gradientUnits="userSpaceOnUse">
<stop stop-color="#F15431"/>
<stop offset="1" stop-color="#F17531"/>
</linearGradient>
<linearGradient id="paint11_linear_9124_144253" x1="40.6787" y1="23.0263" x2="40.6787" y2="23.7777" gradientUnits="userSpaceOnUse">
<stop stop-color="#F15431"/>
<stop offset="1" stop-color="#F17531"/>
</linearGradient>
<linearGradient id="paint12_linear_9124_144253" x1="41.3445" y1="24.3254" x2="41.3445" y2="24.5022" gradientUnits="userSpaceOnUse">
<stop stop-color="#F15431"/>
<stop offset="1" stop-color="#F17531"/>
</linearGradient>
<linearGradient id="paint13_linear_9124_144253" x1="19.9365" y1="16.6567" x2="19.9365" y2="17.5917" gradientUnits="userSpaceOnUse">
<stop stop-color="#F15431"/>
<stop offset="1" stop-color="#F17531"/>
</linearGradient>
<clipPath id="clip0_9124_144253">
<rect width="157" height="53.6482" fill="white" transform="translate(0 0.175781)"/>
</clipPath>
</defs>
</svg>
