<svg width="155" height="30" viewBox="0 0 155 30" fill="none" xmlns="http://www.w3.org/2000/svg">
<path d="M49.9082 14.3245C49.9082 15.3736 49.7093 16.2662 49.3116 17.0021C48.917 17.738 48.3784 18.3001 47.6957 18.6885C47.0161 19.0737 46.252 19.2663 45.4033 19.2663C44.5484 19.2663 43.7811 19.0721 43.1015 18.6838C42.422 18.2955 41.8849 17.7333 41.4903 16.9974C41.0957 16.2615 40.8984 15.3705 40.8984 14.3245C40.8984 13.2754 41.0957 12.3829 41.4903 11.647C41.8849 10.9111 42.422 10.3505 43.1015 9.9653C43.7811 9.57697 44.5484 9.38281 45.4033 9.38281C46.252 9.38281 47.0161 9.57697 47.6957 9.9653C48.3784 10.3505 48.917 10.9111 49.3116 11.647C49.7093 12.3829 49.9082 13.2754 49.9082 14.3245ZM47.846 14.3245C47.846 13.645 47.7442 13.0719 47.5406 12.6053C47.3402 12.1387 47.0568 11.7848 46.6904 11.5436C46.324 11.3025 45.895 11.1819 45.4033 11.1819C44.9116 11.1819 44.4826 11.3025 44.1162 11.5436C43.7498 11.7848 43.4648 12.1387 43.2613 12.6053C43.0608 13.0719 42.9606 13.645 42.9606 14.3245C42.9606 15.0041 43.0608 15.5772 43.2613 16.0438C43.4648 16.5104 43.7498 16.8643 44.1162 17.1054C44.4826 17.3466 44.9116 17.4671 45.4033 17.4671C45.895 17.4671 46.324 17.3466 46.6904 17.1054C47.0568 16.8643 47.3402 16.5104 47.5406 16.0438C47.7442 15.5772 47.846 15.0041 47.846 14.3245Z" fill="white"/>
<path d="M51.4149 19.1347V9.51434H53.4489V17.4577H57.5732V19.1347H51.4149Z" fill="white"/>
<path d="M57.1293 9.51434H59.4076L61.6013 13.6575H61.6952L63.889 9.51434H66.1672L62.6582 15.7338V19.1347H60.6383V15.7338L57.1293 9.51434Z" fill="white"/>
<path d="M67.2782 9.51434H69.7866L72.436 15.978H72.5487L75.1981 9.51434H77.7065V19.1347H75.7336V12.873H75.6537L73.1641 19.0878H71.8206L69.331 12.8495H69.2511V19.1347H67.2782V9.51434Z" fill="white"/>
<path d="M79.3823 19.1347V9.51434H83.1779C83.9076 9.51434 84.5292 9.6537 85.0428 9.93242C85.5564 10.208 85.9478 10.5916 86.2171 11.0833C86.4896 11.5718 86.6258 12.1355 86.6258 12.7744C86.6258 13.4132 86.488 13.9769 86.2124 14.4655C85.9369 14.954 85.5376 15.3345 85.0146 15.6069C84.4947 15.8794 83.8653 16.0156 83.1262 16.0156H80.707V14.3856H82.7974C83.1888 14.3856 83.5114 14.3183 83.7651 14.1836C84.0219 14.0458 84.2129 13.8564 84.3382 13.6152C84.4666 13.371 84.5308 13.0907 84.5308 12.7744C84.5308 12.4549 84.4666 12.1762 84.3382 11.9382C84.2129 11.6971 84.0219 11.5108 83.7651 11.3792C83.5083 11.2446 83.1826 11.1772 82.788 11.1772H81.4163V19.1347H79.3823Z" fill="white"/>
<path d="M89.981 9.51434V19.1347H87.947V9.51434H89.981Z" fill="white"/>
<path d="M93.3126 19.1347H91.133L94.4541 9.51434H97.0753L100.392 19.1347H98.2121L95.8023 11.7128H95.7271L93.3126 19.1347ZM93.1764 15.3533H98.3248V16.941H93.1764V15.3533Z" fill="white"/>
<path d="M113.1 12.8824H111.042C111.004 12.6162 110.928 12.3798 110.812 12.1731C110.696 11.9633 110.547 11.7848 110.366 11.6376C110.184 11.4904 109.974 11.3777 109.736 11.2994C109.501 11.2211 109.246 11.1819 108.97 11.1819C108.473 11.1819 108.039 11.3056 107.669 11.553C107.3 11.7973 107.013 12.1543 106.81 12.6241C106.606 13.0907 106.504 13.6575 106.504 14.3245C106.504 15.0104 106.606 15.5866 106.81 16.0532C107.016 16.5198 107.304 16.8721 107.674 17.1101C108.043 17.3481 108.471 17.4671 108.956 17.4671C109.229 17.4671 109.481 17.4311 109.713 17.3591C109.948 17.2871 110.156 17.1822 110.337 17.0444C110.519 16.9034 110.669 16.7328 110.788 16.5323C110.91 16.3319 110.995 16.1033 111.042 15.8465L113.1 15.8559C113.046 16.2975 112.913 16.7234 112.7 17.1336C112.49 17.5407 112.207 17.9056 111.85 18.2281C111.496 18.5475 111.073 18.8012 110.582 18.9891C110.093 19.1739 109.54 19.2663 108.923 19.2663C108.065 19.2663 107.298 19.0721 106.622 18.6838C105.948 18.2955 105.416 17.7333 105.025 16.9974C104.636 16.2615 104.442 15.3705 104.442 14.3245C104.442 13.2754 104.639 12.3829 105.034 11.647C105.429 10.9111 105.964 10.3505 106.641 9.9653C107.317 9.57697 108.078 9.38281 108.923 9.38281C109.481 9.38281 109.998 9.4611 110.474 9.61769C110.953 9.77427 111.377 10.0029 111.747 10.3035C112.116 10.601 112.417 10.9659 112.649 11.398C112.883 11.8302 113.034 12.325 113.1 12.8824Z" fill="white"/>
<path d="M116.035 19.1347H113.856L117.177 9.51434H119.798L123.114 19.1347H120.935L118.525 11.7128H118.45L116.035 19.1347ZM115.899 15.3533H121.048V16.941H115.899V15.3533Z" fill="white"/>
<path d="M129.272 12.2811C129.234 11.9022 129.073 11.6078 128.788 11.398C128.503 11.1882 128.116 11.0833 127.628 11.0833C127.296 11.0833 127.015 11.1303 126.787 11.2242C126.558 11.315 126.383 11.4419 126.261 11.6047C126.142 11.7676 126.082 11.9523 126.082 12.159C126.076 12.3312 126.112 12.4816 126.19 12.61C126.272 12.7384 126.383 12.8495 126.524 12.9435C126.665 13.0343 126.827 13.1142 127.012 13.1831C127.197 13.2488 127.394 13.3052 127.604 13.3522L128.468 13.5589C128.888 13.6528 129.273 13.7781 129.624 13.9346C129.975 14.0912 130.278 14.2838 130.535 14.5124C130.792 14.741 130.991 15.0104 131.132 15.3204C131.276 15.6304 131.35 15.9859 131.353 16.3867C131.35 16.9755 131.199 17.4859 130.902 17.9181C130.607 18.3471 130.181 18.6806 129.624 18.9186C129.07 19.1535 128.401 19.271 127.618 19.271C126.842 19.271 126.165 19.152 125.589 18.914C125.016 18.6759 124.568 18.3236 124.245 17.857C123.926 17.3873 123.758 16.8064 123.743 16.1143H125.711C125.733 16.4368 125.825 16.7061 125.988 16.9222C126.154 17.1352 126.375 17.2965 126.65 17.4061C126.929 17.5125 127.244 17.5658 127.595 17.5658C127.939 17.5658 128.238 17.5157 128.492 17.4155C128.749 17.3152 128.948 17.1759 129.088 16.9974C129.229 16.8189 129.3 16.6138 129.3 16.382C129.3 16.1659 129.236 15.9843 129.107 15.8371C128.982 15.6899 128.797 15.5647 128.553 15.4613C128.312 15.358 128.016 15.264 127.665 15.1795L126.618 14.9164C125.807 14.7191 125.166 14.4107 124.696 13.991C124.227 13.5714 123.993 13.0061 123.996 12.2952C123.993 11.7128 124.148 11.2039 124.461 10.7686C124.778 10.3333 125.212 9.99348 125.763 9.74921C126.314 9.50495 126.94 9.38281 127.642 9.38281C128.356 9.38281 128.979 9.50495 129.511 9.74921C130.047 9.99348 130.463 10.3333 130.761 10.7686C131.058 11.2039 131.212 11.7081 131.221 12.2811H129.272Z" fill="white"/>
<path d="M134.755 9.51434V19.1347H132.721V9.51434H134.755Z" fill="white"/>
<path d="M144.475 9.51434V19.1347H142.718L138.533 13.0797H138.462V19.1347H136.428V9.51434H138.213L142.366 15.5647H142.45V9.51434H144.475Z" fill="white"/>
<path d="M154.996 14.3245C154.996 15.3736 154.797 16.2662 154.4 17.0021C154.005 17.738 153.466 18.3001 152.784 18.6885C152.104 19.0737 151.34 19.2663 150.491 19.2663C149.636 19.2663 148.869 19.0721 148.19 18.6838C147.51 18.2955 146.973 17.7333 146.578 16.9974C146.184 16.2615 145.986 15.3705 145.986 14.3245C145.986 13.2754 146.184 12.3829 146.578 11.647C146.973 10.9111 147.51 10.3505 148.19 9.9653C148.869 9.57697 149.636 9.38281 150.491 9.38281C151.34 9.38281 152.104 9.57697 152.784 9.9653C153.466 10.3505 154.005 10.9111 154.4 11.647C154.797 12.3829 154.996 13.2754 154.996 14.3245ZM152.934 14.3245C152.934 13.645 152.832 13.0719 152.629 12.6053C152.428 12.1387 152.145 11.7848 151.778 11.5436C151.412 11.3025 150.983 11.1819 150.491 11.1819C150 11.1819 149.571 11.3025 149.204 11.5436C148.838 11.7848 148.553 12.1387 148.349 12.6053C148.149 13.0719 148.049 13.645 148.049 14.3245C148.049 15.0041 148.149 15.5772 148.349 16.0438C148.553 16.5104 148.838 16.8643 149.204 17.1054C149.571 17.3466 150 17.4671 150.491 17.4671C150.983 17.4671 151.412 17.3466 151.778 17.1054C152.145 16.8643 152.428 16.5104 152.629 16.0438C152.832 15.5772 152.934 15.0041 152.934 14.3245Z" fill="white"/>
<g clip-path="url(#clip0_8072_80253)">
<path d="M21.9549 24.4739C22.5475 24.4554 23.1476 24.3095 23.7384 24.2531C23.6696 24.2531 23.6017 24.2605 23.5329 24.2623C22.7714 24.2864 22.0145 24.1857 21.2567 24.2097C21.1824 24.2097 21.1181 24.2152 21.0631 24.2189C21.5842 23.4992 22.5769 23.3246 23.7008 23.3597C25.0045 23.4013 26.6514 23.7459 27.2964 23.7662C27.4927 23.7727 27.6973 23.732 27.5863 23.7662C26.689 24.0434 24.5724 25.1899 22.3172 25.1188C21.6443 25.1025 20.9804 24.9599 20.3594 24.6984C20.5493 24.5728 20.8713 24.5072 20.9695 24.3631C21.2929 24.4363 21.6234 24.4734 21.9549 24.4739Z" fill="url(#paint0_linear_8072_80253)"/>
<path d="M21.1473 23.1611C21.2619 22.5762 21.4941 22.0007 21.6436 21.4195C21.629 21.486 21.6143 21.5535 21.6014 21.6209C21.4546 22.3721 21.4179 23.1315 21.2766 23.8789C21.262 23.9519 21.2482 24.0157 21.2363 24.0693C21.9849 23.6295 22.3079 22.6659 22.4593 21.5498C22.6354 20.2563 22.5886 18.5933 22.6758 17.9466C22.7024 17.7526 22.774 17.5549 22.7235 17.6602C22.318 18.5185 20.9179 20.4928 20.6133 22.7315C20.5173 23.3903 20.5394 24.0612 20.6784 24.7123C20.8252 24.5377 20.9381 24.2263 21.0876 24.1441C21.0734 23.8152 21.0933 23.4857 21.1473 23.1611Z" fill="url(#paint1_linear_8072_80253)"/>
<path d="M24.4439 22.6129C25.0265 22.4983 25.5926 22.2563 26.1688 22.1038C26.1018 22.1195 26.0348 22.1334 25.9678 22.1473C25.2201 22.2951 24.4568 22.3191 23.7127 22.466C23.6402 22.4799 23.5769 22.4937 23.5237 22.5067C23.9219 21.7112 24.8733 21.3767 25.988 21.2289C27.2817 21.0571 28.9625 21.1291 29.602 21.0441C29.7965 21.0183 29.9919 20.9443 29.8882 20.997C29.0478 21.4202 27.1431 22.8928 24.9063 23.1903C24.2397 23.2845 23.5615 23.2532 22.9062 23.098C23.0732 22.9427 23.3806 22.8263 23.4567 22.6674C23.7868 22.6857 24.1178 22.6674 24.4439 22.6129Z" fill="url(#paint2_linear_8072_80253)"/>
<path d="M23.2065 21.5825C23.2533 20.9884 23.4184 20.3907 23.5001 19.7957C23.4927 19.864 23.4863 19.9324 23.4808 20.0008C23.4212 20.7639 23.4762 21.5224 23.4156 22.2819C23.4101 22.3558 23.4037 22.4205 23.3973 22.475C24.0909 21.9511 24.3019 20.957 24.3258 19.8308C24.3524 18.5244 24.1157 16.8743 24.1294 16.2276C24.1294 16.0317 24.1817 15.8266 24.1441 15.9375C23.8386 16.8364 22.6762 18.9605 22.6275 21.2194C22.6075 21.8851 22.706 22.5491 22.9184 23.1799C23.0441 22.9896 23.1211 22.6662 23.2597 22.5674C23.2076 22.2419 23.1898 21.9117 23.2065 21.5825Z" fill="url(#paint3_linear_8072_80253)"/>
<path d="M26.6948 20.0071C27.2214 19.7299 27.6966 19.3391 28.2068 19.0287C28.1471 19.062 28.0866 19.0952 28.0233 19.1266C27.3471 19.4814 26.6223 19.7216 25.9498 20.0736C25.8837 20.1087 25.8277 20.1392 25.78 20.166C25.9387 19.2892 26.7571 18.6989 27.7856 18.2397C28.9783 17.7066 30.6105 17.2973 31.2005 17.0386C31.3794 16.9582 31.5464 16.8326 31.461 16.9121C30.7738 17.5588 29.36 19.5119 27.2975 20.433C26.684 20.7124 26.024 20.8741 25.3516 20.9098C25.469 20.7139 25.7305 20.5143 25.7571 20.3406C26.081 20.2651 26.3956 20.1532 26.6948 20.0071Z" fill="url(#paint4_linear_8072_80253)"/>
<path d="M25.3077 19.3261C25.2068 18.7394 25.216 18.1176 25.1508 17.5217C25.1609 17.5891 25.1719 17.6575 25.1829 17.725C25.3132 18.4798 25.5499 19.2032 25.6839 19.9506C25.6967 20.0236 25.7059 20.0874 25.7132 20.1428C26.2554 19.461 26.2151 18.4456 25.9591 17.3489C25.6628 16.0767 25.026 14.5384 24.8792 13.9093C24.8352 13.7189 24.8315 13.5083 24.8223 13.6256C24.749 14.5726 24.1452 16.9212 24.6572 19.121C24.803 19.7706 25.0627 20.3888 25.4242 20.9466C25.4985 20.7304 25.493 20.3987 25.6077 20.2685C25.4749 19.9659 25.3743 19.65 25.3077 19.3261Z" fill="url(#paint5_linear_8072_80253)"/>
<path d="M28.3095 17.2656C28.782 16.9044 29.1857 16.4341 29.638 16.0461C29.5839 16.0895 29.5306 16.132 29.4756 16.1736C28.8682 16.6355 28.1911 16.9949 27.5883 17.4559C27.5287 17.5012 27.4783 17.5409 27.436 17.576C27.4471 16.6854 28.1563 15.9648 29.0939 15.3393C30.1811 14.614 31.7225 13.935 32.261 13.5765C32.4244 13.4675 32.5675 13.315 32.4968 13.4074C31.9262 14.1595 30.8564 16.3242 28.9756 17.5797C28.4182 17.9577 27.796 18.228 27.1406 18.3771C27.2232 18.1646 27.448 17.9234 27.4452 17.7479C27.7502 17.6199 28.04 17.4581 28.3095 17.2656Z" fill="url(#paint6_linear_8072_80253)"/>
<path d="M26.8251 16.8297C26.6278 16.268 26.5361 15.6536 26.3709 15.0743C26.392 15.1399 26.4141 15.2055 26.437 15.2702C26.6902 15.9918 27.0471 16.6616 27.2994 17.3795C27.3242 17.4497 27.3444 17.5116 27.36 17.5642C27.782 16.8011 27.5728 15.8088 27.1389 14.7685C26.6361 13.5675 25.7526 12.1548 25.5039 11.5589C25.4287 11.3741 25.3892 11.1718 25.4003 11.2882C25.4847 12.2352 25.2791 14.6521 26.1498 16.7392C26.4011 17.3553 26.7597 17.9213 27.2086 18.4105C27.2462 18.1851 27.1857 17.8562 27.2728 17.7111C27.0931 17.4341 26.943 17.1387 26.8251 16.8297Z" fill="url(#paint7_linear_8072_80253)"/>
<path d="M29.0309 14.1493C29.3346 13.74 29.5566 13.2586 29.8365 12.8281C29.8025 12.8771 29.7676 12.9251 29.7328 12.9722C29.3419 13.4988 28.8713 13.9552 28.4823 14.4791C28.4437 14.5308 28.4116 14.5715 28.385 14.614C28.1841 13.8749 28.5979 13.1163 29.2217 12.3772C29.9456 11.5198 31.0567 10.5932 31.4118 10.1682C31.5209 10.0398 31.6026 9.87993 31.5668 9.97324C31.2741 10.7281 30.9053 12.7662 29.653 14.249C29.2832 14.6945 28.8339 15.0661 28.3281 15.3448C28.3456 15.1498 28.474 14.8985 28.4309 14.7544C28.6525 14.5757 28.8538 14.3727 29.0309 14.1493Z" fill="url(#paint8_linear_8072_80253)"/>
<path d="M27.7085 14.1458C27.414 13.73 27.1939 13.2468 26.9214 12.8117C26.9544 12.8606 26.9874 12.9041 27.0214 12.9567C27.4003 13.4898 27.8471 13.9555 28.2288 14.4867C28.2664 14.5384 28.2967 14.5791 28.3205 14.6234C28.4875 13.8954 28.0801 13.1267 27.4783 12.3765C26.7801 11.5053 25.7213 10.5564 25.3763 10.1259C25.2708 9.99564 25.1928 9.83489 25.2268 9.9282C25.5195 10.6867 25.9204 12.7248 27.1287 14.2308C27.4802 14.6781 27.9088 15.058 28.3939 15.3524C28.3719 15.1575 28.2453 14.9043 28.282 14.762C28.0698 14.5775 27.8776 14.3709 27.7085 14.1458Z" fill="url(#paint9_linear_8072_80253)"/>
<path d="M28.9242 11.2882C29.1224 10.8383 29.2279 10.3403 29.3986 9.87651C29.3775 9.92917 29.3555 9.98091 29.3325 10.0327C29.0775 10.611 28.7334 11.1413 28.4802 11.7151C28.4554 11.7714 28.4352 11.8213 28.4178 11.8629C28.0737 11.2162 28.2995 10.4133 28.727 9.58549C29.2234 8.62556 30.0656 7.5178 30.3115 7.04292C30.3858 6.89879 30.428 6.73157 30.4142 6.82673C30.3005 7.59726 30.3876 9.58734 29.5289 11.2476C29.2762 11.7444 28.934 12.1896 28.5197 12.5604C28.4949 12.3757 28.5618 12.1096 28.4903 11.9848C28.6604 11.7698 28.806 11.5361 28.9242 11.2882Z" fill="url(#paint10_linear_8072_80253)"/>
<path d="M27.6808 11.5709C27.3138 11.2457 27.0065 10.8392 26.6587 10.4899L26.7835 10.6045C27.2523 11.023 27.7744 11.3621 28.2414 11.7788C28.2863 11.8194 28.3258 11.8554 28.3579 11.8869C28.3579 11.1681 27.8157 10.5352 27.0918 9.96146C26.2514 9.29533 25.0577 8.63382 24.6421 8.30491C24.5164 8.20513 24.4063 8.07116 24.4586 8.15154C24.8944 8.79827 25.7036 10.6239 27.1551 11.7751C27.5803 12.1178 28.0628 12.3815 28.5799 12.5539C28.5184 12.3765 28.345 12.1659 28.3496 12.0245C28.1114 11.8975 27.8872 11.7455 27.6808 11.5709Z" fill="url(#paint11_linear_8072_80253)"/>
<path d="M28.2326 8.57532C28.3188 8.13184 28.3124 7.66343 28.3711 7.21349L28.3436 7.36778C28.2326 7.9369 28.0316 8.482 27.9215 9.04928C27.9105 9.10471 27.9022 9.15368 27.8958 9.19433C27.4564 8.68618 27.4949 7.92027 27.7123 7.09154C27.9619 6.12976 28.4913 4.96657 28.6142 4.48799C28.6518 4.34387 28.6564 4.18496 28.6628 4.27365C28.7179 4.9869 29.1996 6.75154 28.7674 8.41456C28.6428 8.91243 28.4269 9.38245 28.1307 9.8004C28.0702 9.6378 28.0766 9.38742 27.9876 9.29041C28.0953 9.06194 28.1775 8.8221 28.2326 8.57532Z" fill="url(#paint12_linear_8072_80253)"/>
<path d="M27.0921 9.17754C26.7178 8.92994 26.3838 8.60103 26.0223 8.32941C26.0645 8.3599 26.1076 8.38853 26.1508 8.41717C26.6315 8.73592 27.1499 8.97151 27.6288 9.29211C27.6756 9.3226 27.7151 9.35031 27.749 9.37434C27.6573 8.72114 27.0792 8.21762 26.3462 7.7917C25.4957 7.29741 24.3277 6.85486 23.9039 6.61003C23.7754 6.53612 23.658 6.42525 23.7204 6.49454C24.202 7.02578 25.1755 8.57794 26.6453 9.43162C27.0765 9.68751 27.5498 9.86367 28.0426 9.95177C27.9628 9.7984 27.7784 9.63025 27.7674 9.50091C27.5317 9.41703 27.3054 9.30865 27.0921 9.17754Z" fill="url(#paint13_linear_8072_80253)"/>
<path d="M27.0897 6.23233C27.0769 5.82397 26.9769 5.41191 26.9384 5.0017C26.9384 5.04974 26.9439 5.09408 26.9457 5.14397C26.9613 5.66967 26.8934 6.19167 26.9099 6.7146C26.9099 6.76541 26.9099 6.80699 26.9163 6.84764C26.4264 6.48825 26.3071 5.80364 26.331 5.02849C26.3594 4.12861 26.5934 2.99592 26.6062 2.54783C26.6062 2.41201 26.5824 2.27065 26.6062 2.34826C26.7971 2.96635 27.5751 4.42611 27.5237 5.98195C27.5125 6.4462 27.4154 6.90426 27.2375 7.33269C27.1521 7.20242 27.1081 6.97976 27.009 6.91232C27.0608 6.68935 27.0879 6.4613 27.0897 6.23233Z" fill="url(#paint14_linear_8072_80253)"/>
<path d="M26.3881 6.96194C26.0046 6.82983 25.6385 6.61641 25.2605 6.46027L25.3926 6.50831C25.8853 6.67923 26.3936 6.77162 26.8835 6.94162C26.9321 6.95825 26.9753 6.97396 27.0083 6.98689C26.7817 6.43255 26.1633 6.12305 25.4256 5.91517C24.5696 5.67311 23.443 5.54561 23.0191 5.4292C22.8907 5.39317 22.7641 5.32572 22.831 5.37007C23.3705 5.72762 24.5742 6.86956 26.0504 7.28716C26.4855 7.41477 26.9399 7.46235 27.3918 7.42759C27.2872 7.31118 27.0881 7.20493 27.0468 7.09499C26.8231 7.07449 26.6023 7.02988 26.3881 6.96194Z" fill="url(#paint15_linear_8072_80253)"/>
<path d="M25.6851 4.3611C25.6126 4.05068 25.4722 3.75133 25.3796 3.44552C25.3887 3.48063 25.3979 3.51666 25.4062 3.55177C25.4979 3.95089 25.5291 4.36018 25.6227 4.75745C25.6319 4.79626 25.641 4.82952 25.6484 4.85816C25.2181 4.66044 25.0217 4.15692 24.919 3.5647C24.8006 2.8727 24.8034 1.96821 24.7447 1.62452C24.7272 1.52104 24.6832 1.41757 24.7135 1.47208C24.9557 1.91462 25.7768 2.90689 25.9814 4.10241C26.0452 4.4589 26.0423 4.82422 25.9732 5.17968C25.8878 5.09283 25.819 4.93022 25.7337 4.89419C25.7371 4.71523 25.7208 4.53645 25.6851 4.3611Z" fill="url(#paint16_linear_8072_80253)"/>
<path d="M25.1527 4.99882C24.838 4.97479 24.5196 4.88795 24.204 4.84545L24.3132 4.85469C24.7178 4.88518 25.1196 4.85469 25.5224 4.88425C25.5619 4.88425 25.5967 4.88979 25.6252 4.89349C25.3499 4.52393 24.8178 4.41122 24.2205 4.40106C23.5278 4.38997 22.6544 4.52116 22.3113 4.51562C22.2076 4.51562 22.0984 4.48882 22.1571 4.50915C22.6351 4.67083 23.7645 5.29169 24.9627 5.31109C25.3157 5.31994 25.6675 5.26518 26.0013 5.14941C25.9004 5.08197 25.7261 5.04131 25.6756 4.96463C25.503 4.99434 25.3277 5.0058 25.1527 4.99882Z" fill="url(#paint17_linear_8072_80253)"/>
<path d="M24.3815 3.13339C24.2897 2.89964 24.154 2.68068 24.0494 2.45155C24.0613 2.47834 24.0714 2.50514 24.0815 2.53285C24.1961 2.83312 24.2604 3.1491 24.3732 3.44844C24.3852 3.47708 24.3952 3.50295 24.4035 3.5242C24.0484 3.41518 23.8438 3.04284 23.7035 2.59013C23.5411 2.06351 23.4502 1.35951 23.3695 1.09897C23.3447 1.02044 23.3007 0.943753 23.3301 0.983481C23.5631 1.30315 24.3035 1.99053 24.5861 2.89964C24.6715 3.17079 24.7064 3.45553 24.6888 3.73946C24.6136 3.68033 24.5439 3.56115 24.4732 3.54175C24.4581 3.40257 24.4273 3.26557 24.3815 3.13339Z" fill="url(#paint18_linear_8072_80253)"/>
<path d="M24.036 3.68552C23.7882 3.69938 23.5323 3.66427 23.2818 3.66427H23.3681C23.6864 3.64579 23.9956 3.57927 24.3121 3.56079H24.3938C24.1378 3.30026 23.7158 3.26885 23.2497 3.32336C22.7093 3.38618 22.0423 3.57928 21.7744 3.61069C21.6937 3.61993 21.6065 3.61069 21.6542 3.62085C22.0432 3.69661 22.9854 4.0634 23.9204 3.95438C24.196 3.92468 24.4642 3.84552 24.7121 3.72063C24.6268 3.67906 24.4892 3.66519 24.4369 3.61253C24.3061 3.65071 24.1717 3.67518 24.036 3.68552Z" fill="url(#paint19_linear_8072_80253)"/>
<path d="M15.7444 25.6766C15.5169 26.0074 15.3554 26.3917 15.1471 26.7382C15.1728 26.6994 15.1985 26.6606 15.2251 26.6227C15.5178 26.1968 15.8756 25.8245 16.1664 25.4022C16.1949 25.3607 16.2196 25.3237 16.2389 25.2923C16.4178 25.866 16.1132 26.4767 15.6435 27.0754C15.0976 27.7711 14.2517 28.5305 13.9819 28.8742C13.8994 28.9786 13.8397 29.1071 13.8654 29.0322C14.0746 28.4308 14.3085 26.8149 15.2517 25.6138C15.5299 25.2538 15.8722 24.949 16.2609 24.7148C16.2527 24.8682 16.1582 25.0705 16.1967 25.1814C16.0284 25.3293 15.8767 25.4954 15.7444 25.6766Z" fill="url(#paint20_linear_8072_80253)"/>
<path d="M16.7853 25.6425C17.0293 25.9604 17.2156 26.3355 17.4422 26.6699C17.4147 26.632 17.3871 26.5951 17.3587 26.5581C17.0458 26.1498 16.6779 25.7959 16.3669 25.3894L16.2889 25.2841C16.1779 25.8615 16.5192 26.4546 17.0137 27.0284C17.5871 27.6936 18.4459 28.4142 18.7294 28.7385C18.8156 28.8383 18.8835 28.963 18.8523 28.89C18.6009 28.3015 18.2294 26.7096 17.2376 25.564C16.9482 25.2223 16.6005 24.9354 16.2109 24.7168C16.2339 24.8702 16.3403 25.066 16.3155 25.1787C16.4879 25.3162 16.6454 25.4717 16.7853 25.6425Z" fill="url(#paint21_linear_8072_80253)"/>
<path d="M23.3937 2.45058C23.3323 2.28705 23.2368 2.13553 23.1653 1.97569L23.1873 2.03205C23.2653 2.24085 23.3093 2.46074 23.3864 2.66862L23.4075 2.7222C23.1616 2.6446 23.0203 2.3859 22.924 2.06993C22.813 1.70037 22.7524 1.2144 22.6974 1.03332C22.6809 0.977883 22.6506 0.925222 22.6708 0.952938C22.8313 1.1756 23.3433 1.65603 23.5359 2.2889C23.5947 2.47722 23.618 2.67493 23.6047 2.87188C23.5525 2.83122 23.5048 2.74807 23.4552 2.73421C23.4454 2.63764 23.4247 2.5425 23.3937 2.45058Z" fill="url(#paint22_linear_8072_80253)"/>
<path d="M23.1489 2.83408C22.9764 2.84239 22.7984 2.81745 22.6241 2.81652H22.6837C22.9057 2.80544 23.1204 2.76017 23.3406 2.74908H23.3975C23.2204 2.5643 22.9268 2.54305 22.603 2.57908C22.2277 2.62158 21.7635 2.75278 21.5773 2.7731C21.5213 2.77957 21.4607 2.7731 21.4937 2.78049C21.7635 2.835 22.4167 3.09277 23.0663 3.02071C23.2577 3.00093 23.4441 2.94713 23.6168 2.86179C23.5581 2.83223 23.4617 2.82206 23.4287 2.78511C23.3373 2.81098 23.2436 2.82739 23.1489 2.83408Z" fill="url(#paint23_linear_8072_80253)"/>
<path d="M18.6599 25.069C19.5232 25.0773 20.4031 25.2593 21.2728 25.3194C21.1728 25.3194 21.0728 25.3129 20.9737 25.312C19.8645 25.3009 18.7718 25.4579 17.6708 25.4469C17.5635 25.4469 17.4699 25.4469 17.3901 25.4395C18.2158 26.4022 19.6746 26.611 21.3031 26.5315C23.194 26.4391 25.5519 25.9264 26.4868 25.8848C26.7712 25.8709 27.0722 25.9208 26.9079 25.8765C25.5776 25.5208 22.3922 24.0287 19.1232 24.1876C18.1594 24.226 17.2102 24.4375 16.3203 24.8121C16.6084 24.9775 17.0818 25.057 17.2378 25.251C17.7041 25.1397 18.1808 25.0787 18.6599 25.069Z" fill="url(#paint24_linear_8072_80253)"/>
<path d="M10.5612 24.4739C9.96855 24.4554 9.36853 24.3095 8.77768 24.2531C8.84649 24.2531 8.91438 24.2605 8.98319 24.2623C9.74469 24.2864 10.5016 24.1857 11.2594 24.2097C11.3337 24.2097 11.398 24.2152 11.453 24.2189C10.9319 23.4992 9.93919 23.3246 8.81529 23.3597C7.51156 23.4013 5.8647 23.7459 5.21971 23.7662C5.02337 23.7727 4.81876 23.732 4.92978 23.7662C5.82707 24.0434 7.94369 25.1899 10.1988 25.1188C10.8717 25.1025 11.5357 24.9599 12.1567 24.6984C11.9668 24.5728 11.6448 24.5072 11.5466 24.3631C11.2232 24.4363 10.8927 24.4734 10.5612 24.4739Z" fill="url(#paint25_linear_8072_80253)"/>
<path d="M11.375 23.1611C11.2604 22.5762 11.0282 22.0007 10.8787 21.4195C10.8934 21.486 10.908 21.5535 10.9209 21.6209C11.0677 22.3721 11.0998 23.1315 11.2457 23.8789C11.2604 23.9519 11.2741 24.0157 11.286 24.0693C10.5374 23.6295 10.2145 22.6659 10.0631 21.5498C9.88691 20.2563 9.9337 18.5933 9.84654 17.9466C9.81993 17.7526 9.74836 17.5549 9.79883 17.6602C10.2043 18.5185 11.6044 20.4928 11.909 22.7315C12.005 23.3903 11.983 24.0612 11.8439 24.7123C11.6971 24.5377 11.5842 24.2263 11.4347 24.1441C11.449 23.8152 11.429 23.4857 11.375 23.1611Z" fill="url(#paint26_linear_8072_80253)"/>
<path d="M8.0746 22.6129C7.492 22.4983 6.92594 22.2563 6.34977 22.1038C6.41674 22.1195 6.48371 22.1334 6.55069 22.1473C7.29843 22.2951 8.06177 22.3191 8.80584 22.466C8.87832 22.4799 8.94161 22.4937 8.99483 22.5067C8.59664 21.7112 7.64524 21.3767 6.53051 21.2289C5.23687 21.0571 3.55604 21.1291 2.91657 21.0441C2.72206 21.0183 2.52665 20.9443 2.63033 20.997C3.47073 21.4202 5.37541 22.8928 7.61221 23.1903C8.27884 23.2845 8.95702 23.2532 9.61228 23.098C9.4453 22.9427 9.13795 22.8263 9.0618 22.6674C8.73174 22.6857 8.40069 22.6674 8.0746 22.6129Z" fill="url(#paint27_linear_8072_80253)"/>
<path d="M9.3089 21.5825C9.26211 20.9884 9.09697 20.3907 9.01531 19.7957C9.02265 19.864 9.02907 19.9324 9.03458 20.0008C9.09421 20.7639 9.03457 21.5224 9.09971 22.2819C9.10522 22.3558 9.11166 22.4205 9.11808 22.475C8.42447 21.9511 8.21344 20.957 8.18959 19.8308C8.16298 18.5244 8.3997 16.8743 8.38594 16.2276C8.38594 16.0317 8.33363 15.8266 8.37125 15.9375C8.67585 16.8364 9.83921 18.9605 9.88783 21.2194C9.90787 21.8851 9.80937 22.5491 9.597 23.1799C9.47131 22.9896 9.39424 22.6662 9.2557 22.5674C9.30774 22.2419 9.32556 21.9117 9.3089 21.5825Z" fill="url(#paint28_linear_8072_80253)"/>
<path d="M5.8283 20.0071C5.30167 19.7299 4.82642 19.3391 4.31631 19.0287C4.37594 19.062 4.4365 19.0952 4.4998 19.1266C5.17598 19.4814 5.90079 19.7216 6.5733 20.0736C6.63936 20.1087 6.69531 20.1392 6.74302 20.166C6.5843 19.2892 5.76592 18.6989 4.73744 18.2397C3.54472 17.7066 1.91254 17.2973 1.3226 17.0386C1.1437 16.9582 0.976709 16.8326 1.06203 16.9121C1.74922 17.5588 3.16306 19.5119 5.22554 20.433C5.8391 20.7124 6.49904 20.8741 7.1715 20.9098C7.05406 20.7139 6.79256 20.5143 6.76596 20.3406C6.44201 20.2651 6.12749 20.1532 5.8283 20.0071Z" fill="url(#paint29_linear_8072_80253)"/>
<path d="M7.21568 19.3261C7.3166 18.7394 7.30742 18.1176 7.37256 17.5217C7.36247 17.5891 7.35145 17.6575 7.34044 17.725C7.21016 18.4798 6.96887 19.2032 6.8395 19.9506C6.82666 20.0236 6.81748 20.0874 6.81014 20.1428C6.26791 19.461 6.30829 18.4456 6.56426 17.3489C6.86061 16.0767 7.49733 14.5384 7.64413 13.9093C7.68817 13.7189 7.69185 13.5083 7.70102 13.6256C7.77442 14.5726 8.3781 16.9212 7.86615 19.121C7.72037 19.7706 7.46064 20.3888 7.09916 20.9466C7.02484 20.7304 7.03035 20.3987 6.91566 20.2685C7.04849 19.9659 7.14906 19.65 7.21568 19.3261Z" fill="url(#paint30_linear_8072_80253)"/>
<path d="M4.20584 17.2656C3.73334 16.9044 3.32965 16.4341 2.87734 16.0461C2.93147 16.0895 2.98469 16.132 3.03973 16.1736C3.6471 16.6355 4.3242 16.9949 4.92698 17.4559C4.98662 17.5012 5.03707 17.5409 5.07928 17.576C5.06827 16.6854 4.35905 15.9648 3.42139 15.3393C2.33419 14.614 0.792832 13.935 0.254275 13.5765C0.0909646 13.4675 -0.0521451 13.315 0.0185004 13.4074C0.589169 14.1595 1.65893 16.3242 3.53975 17.5797C4.09708 17.9577 4.71929 18.228 5.3747 18.3771C5.29213 18.1646 5.06734 17.9234 5.07009 17.7479C4.76514 17.6199 4.47528 17.4581 4.20584 17.2656Z" fill="url(#paint31_linear_8072_80253)"/>
<path d="M5.68997 16.8297C5.88722 16.268 5.97897 15.6536 6.1487 15.0743C6.1276 15.1399 6.10558 15.2055 6.08265 15.2702C5.82943 15.9918 5.47254 16.6616 5.22023 17.3795C5.19546 17.4497 5.17526 17.5116 5.15966 17.5642C4.73763 16.8011 4.94682 15.8088 5.38079 14.7685C5.88357 13.5675 6.76708 12.1548 7.01571 11.5589C7.09094 11.3741 7.13041 11.1718 7.1194 11.2882C7.03499 12.2352 7.24051 14.6521 6.36983 16.7392C6.1163 17.3548 5.75556 17.9199 5.30463 18.4078C5.26702 18.1823 5.32757 17.8534 5.24041 17.7084C5.42063 17.4323 5.57132 17.1378 5.68997 16.8297Z" fill="url(#paint32_linear_8072_80253)"/>
<path d="M3.48973 14.1493C3.18604 13.74 2.96401 13.2586 2.68418 12.8281C2.71813 12.8771 2.753 12.9251 2.78787 12.9722C3.17871 13.4988 3.64936 13.9552 4.03837 14.4791C4.07691 14.5308 4.10902 14.5715 4.13563 14.614C4.33656 13.8749 3.92279 13.1163 3.29891 12.3772C2.57502 11.5198 1.46395 10.5932 1.10889 10.1682C0.999707 10.0398 0.918058 9.87993 0.953839 9.97324C1.24651 10.7281 1.61532 12.7662 2.86768 14.249C3.2374 14.6945 3.68679 15.0661 4.19252 15.3448C4.17509 15.1498 4.04663 14.8985 4.08976 14.7544C3.8681 14.5757 3.66685 14.3727 3.48973 14.1493Z" fill="url(#paint33_linear_8072_80253)"/>
<path d="M4.81035 14.1458C5.10486 13.73 5.32506 13.2468 5.59755 12.8117C5.56452 12.8606 5.53148 12.9041 5.49754 12.9567C5.11862 13.4898 4.66723 13.9555 4.29015 14.4867C4.25253 14.5384 4.22226 14.5791 4.1984 14.6234C4.03142 13.8954 4.43877 13.1267 5.04064 12.3765C5.73883 11.5053 6.79761 10.5564 7.14258 10.1259C7.24809 9.99564 7.32607 9.83489 7.29212 9.9282C6.99945 10.6867 6.59851 12.7248 5.3902 14.2308C5.03869 14.6781 4.61013 15.058 4.125 15.3524C4.14702 15.1575 4.27363 14.9043 4.23693 14.762C4.44905 14.5775 4.64126 14.3709 4.81035 14.1458Z" fill="url(#paint34_linear_8072_80253)"/>
<path d="M3.59412 11.2882C3.39595 10.8383 3.29042 10.3403 3.11977 9.87651C3.14088 9.92917 3.16289 9.98091 3.18583 10.0327C3.44089 10.611 3.78494 11.1413 4.03817 11.7151C4.06294 11.7714 4.08314 11.8213 4.10057 11.8629C4.44462 11.2162 4.21891 10.4133 3.79137 9.58549C3.29502 8.62556 2.45278 7.5178 2.20689 7.04292C2.13258 6.89879 2.09039 6.73157 2.10415 6.82673C2.21791 7.59726 2.13075 9.58734 2.9895 11.2476C3.24214 11.7444 3.58437 12.1896 3.99872 12.5604C4.02349 12.3757 3.95652 12.1096 4.02809 11.9848C3.85793 11.7698 3.71236 11.5361 3.59412 11.2882Z" fill="url(#paint35_linear_8072_80253)"/>
<path d="M4.83661 11.5709C5.2036 11.2457 5.51096 10.8392 5.85868 10.4899L5.7339 10.6045C5.26507 11.023 4.74304 11.3621 4.27604 11.7788C4.23109 11.8194 4.19163 11.8554 4.15952 11.8869C4.15952 11.1681 4.70175 10.5352 5.42564 9.96146C6.26604 9.29533 7.45967 8.63382 7.87529 8.30491C8.00098 8.20513 8.11108 8.07116 8.05878 8.15154C7.62298 8.79827 6.81376 10.6239 5.36232 11.7751C4.93705 12.1178 4.4546 12.3815 3.9375 12.5539C3.99897 12.3765 4.17237 12.1659 4.16779 12.0245C4.40603 11.8975 4.63021 11.7455 4.83661 11.5709Z" fill="url(#paint36_linear_8072_80253)"/>
<path d="M4.29141 8.57532C4.20517 8.13184 4.21159 7.66343 4.15287 7.21349L4.1804 7.36778C4.29141 7.9369 4.49235 8.482 4.60245 9.04928C4.61346 9.10471 4.62172 9.15368 4.62814 9.19433C5.06761 8.68618 5.02907 7.92027 4.81163 7.09154C4.56208 6.12976 4.03269 4.96657 3.90975 4.48799C3.87213 4.34387 3.86754 4.18496 3.86112 4.27365C3.80607 4.9869 3.32441 6.75154 3.75654 8.41456C3.88117 8.91243 4.09711 9.38245 4.39326 9.8004C4.45381 9.6378 4.4474 9.38742 4.53639 9.29041C4.42863 9.06194 4.34646 8.8221 4.29141 8.57532Z" fill="url(#paint37_linear_8072_80253)"/>
<path d="M5.42524 9.17754C5.79957 8.92994 6.13352 8.60103 6.495 8.32941C6.4528 8.3599 6.40969 8.38853 6.36657 8.41717C5.88581 8.73592 5.36743 8.97151 4.88851 9.29211C4.84172 9.3226 4.80226 9.35031 4.76831 9.37434C4.86006 8.72114 5.43807 8.21762 6.17113 7.7917C7.02163 7.29741 8.18958 6.85486 8.61346 6.61003C8.7419 6.53612 8.85934 6.42525 8.79695 6.49454C8.31528 7.02578 7.34183 8.57794 5.87204 9.43162C5.44123 9.68666 4.96865 9.86218 4.47656 9.94992C4.55638 9.79655 4.74079 9.6284 4.7518 9.49906C4.98673 9.41565 5.21242 9.3079 5.42524 9.17754Z" fill="url(#paint38_linear_8072_80253)"/>
<path d="M5.42858 6.23233C5.44143 5.82397 5.54142 5.41191 5.57996 5.0017C5.57996 5.04974 5.57444 5.09408 5.57261 5.14397C5.55701 5.66967 5.62492 6.19167 5.6084 6.7146C5.6084 6.76541 5.6084 6.80699 5.60197 6.84764C6.0919 6.48825 6.21119 5.80364 6.18733 5.02849C6.15889 4.12861 5.92494 2.99592 5.91209 2.54783C5.91209 2.41201 5.93595 2.27065 5.91209 2.34826C5.72126 2.96635 4.94324 4.42611 4.99462 5.98195C5.00587 6.4462 5.10293 6.90426 5.28086 7.33269C5.36618 7.20242 5.41022 6.97976 5.50931 6.91232C5.45753 6.68935 5.43046 6.4613 5.42858 6.23233Z" fill="url(#paint39_linear_8072_80253)"/>
<path d="M6.12871 6.96194C6.51221 6.82983 6.87829 6.61641 7.25629 6.46027L7.12418 6.50831C6.63149 6.67923 6.12321 6.77162 5.63328 6.94162C5.58466 6.95825 5.54153 6.97396 5.5085 6.98689C5.73511 6.43255 6.35349 6.12305 7.09114 5.91517C7.94714 5.67311 9.0738 5.54561 9.49767 5.4292C9.62612 5.39317 9.75273 5.32572 9.68576 5.37007C9.14628 5.72762 7.94255 6.86956 6.46633 7.28716C6.03124 7.41477 5.57686 7.46235 5.125 7.42759C5.22959 7.31118 5.42868 7.20493 5.46997 7.09499C5.69365 7.07449 5.91448 7.02988 6.12871 6.96194Z" fill="url(#paint40_linear_8072_80253)"/>
<path d="M6.83432 4.3611C6.9068 4.05068 7.04718 3.75133 7.13984 3.44552C7.13067 3.48063 7.12149 3.51666 7.11323 3.55177C7.02149 3.95089 6.9903 4.36018 6.89672 4.75745C6.88755 4.79626 6.87837 4.82952 6.87103 4.85816C7.30133 4.66044 7.49766 4.15692 7.60042 3.5647C7.71877 2.8727 7.71601 1.96821 7.77473 1.62452C7.79216 1.52104 7.83529 1.41757 7.80593 1.47208C7.56372 1.91462 6.74257 2.90689 6.53798 4.10241C6.47426 4.4589 6.47707 4.82422 6.54624 5.17968C6.63157 5.09283 6.70036 4.93022 6.78569 4.89419C6.78232 4.71523 6.79863 4.53645 6.83432 4.3611Z" fill="url(#paint41_linear_8072_80253)"/>
<path d="M7.36429 4.99882C7.67898 4.97479 7.99735 4.88795 8.31296 4.84545L8.20379 4.85469C7.79918 4.88518 7.39731 4.85469 6.99454 4.88425C6.95509 4.88425 6.92024 4.88979 6.8918 4.89349C7.16704 4.52393 7.69918 4.41122 8.29645 4.40106C8.98915 4.38997 9.86256 4.52116 10.2057 4.51562C10.3094 4.51562 10.4186 4.48882 10.3599 4.50915C9.88185 4.67083 8.75243 5.29169 7.55421 5.31109C7.20122 5.31994 6.84949 5.26518 6.51562 5.14941C6.61655 5.08197 6.79087 5.04131 6.84133 4.96463C7.01399 4.99434 7.18926 5.0058 7.36429 4.99882Z" fill="url(#paint42_linear_8072_80253)"/>
<path d="M8.13228 3.13339C8.22403 2.89964 8.3598 2.68068 8.46439 2.45155C8.45247 2.47834 8.44239 2.50514 8.43229 2.53285C8.31761 2.83312 8.24878 3.1491 8.14052 3.44844C8.12859 3.47708 8.11852 3.50295 8.11026 3.5242C8.46532 3.41518 8.66991 3.04284 8.81028 2.59013C8.97267 2.06351 9.06352 1.35951 9.14425 1.09897C9.16903 1.02044 9.21306 0.943753 9.1837 0.983481C8.95066 1.30315 8.21027 1.99053 7.92768 2.89964C7.84178 3.17069 7.80692 3.45552 7.82492 3.73946C7.90015 3.68033 7.96989 3.56115 8.04053 3.54175C8.05565 3.40257 8.08643 3.26557 8.13228 3.13339Z" fill="url(#paint43_linear_8072_80253)"/>
<path d="M8.48085 3.68552C8.72857 3.69938 8.98457 3.66427 9.23504 3.66427H9.14878C8.83041 3.64579 8.52122 3.57927 8.20469 3.56079H8.12305C8.37902 3.30026 8.80106 3.26885 9.26713 3.32336C9.80753 3.38618 10.4745 3.57928 10.7424 3.61069C10.8232 3.61993 10.9103 3.61069 10.8626 3.62085C10.4736 3.69661 9.53136 4.0634 8.59646 3.95438C8.32079 3.92468 8.05264 3.84552 7.80469 3.72063C7.89001 3.67906 8.02763 3.66519 8.07993 3.61253C8.21072 3.65071 8.34507 3.67518 8.48085 3.68552Z" fill="url(#paint44_linear_8072_80253)"/>
<path d="M9.12868 2.45058C9.19015 2.28705 9.28557 2.13553 9.35713 1.97569L9.33512 2.03205C9.25713 2.24085 9.2131 2.46074 9.13603 2.66862L9.11493 2.7222C9.36081 2.6446 9.50211 2.3859 9.59844 2.06993C9.70946 1.70037 9.77001 1.2144 9.82505 1.03332C9.84157 0.977883 9.87185 0.925222 9.85166 0.952938C9.69111 1.1756 9.17916 1.65603 8.98649 2.2889C8.92774 2.47722 8.9044 2.67493 8.91768 2.87188C8.96998 2.83122 9.01768 2.74807 9.06722 2.73421C9.07708 2.63764 9.09769 2.5425 9.12868 2.45058Z" fill="url(#paint45_linear_8072_80253)"/>
<path d="M9.36728 2.83408C9.53884 2.84239 9.71683 2.81745 9.89115 2.81652H9.83152C9.60949 2.80544 9.39479 2.76017 9.1746 2.74908H9.11773C9.2948 2.5643 9.58838 2.54305 9.91225 2.57908C10.2875 2.62158 10.7517 2.75278 10.938 2.7731C10.9939 2.77957 11.0545 2.7731 11.0215 2.78049C10.7517 2.835 10.0985 3.09277 9.44892 3.02071C9.25754 3.00093 9.07116 2.94713 8.89844 2.86179C8.95716 2.83223 9.05349 2.82206 9.08193 2.78511C9.17509 2.81138 9.27073 2.82779 9.36728 2.83408Z" fill="url(#paint46_linear_8072_80253)"/>
<path d="M13.8572 25.069C12.9938 25.0773 12.114 25.2593 11.2442 25.3194C11.3442 25.3194 11.4442 25.3129 11.5433 25.312C12.6525 25.3009 13.7452 25.4579 14.8462 25.4469C14.9535 25.4469 15.0471 25.4469 15.127 25.4395C14.3012 26.4022 12.8424 26.611 11.2139 26.5315C9.323 26.4391 6.9651 25.9264 6.03019 25.8848C5.74577 25.8709 5.44486 25.9208 5.60909 25.8765C6.93942 25.5208 10.1249 24.0287 13.3938 24.1876C14.3576 24.226 15.3068 24.4375 16.1967 24.8121C15.9086 24.9775 15.4352 25.057 15.2792 25.251C14.813 25.1397 14.3363 25.0787 13.8572 25.069Z" fill="url(#paint47_linear_8072_80253)"/>
</g>
<defs>
<linearGradient id="paint0_linear_8072_80253" x1="20.3594" y1="24.2392" x2="27.6175" y2="24.2392" gradientUnits="userSpaceOnUse">
<stop offset="0.05" stop-color="#FFCB3D"/>
<stop offset="0.1" stop-color="#FEC93A"/>
<stop offset="0.13" stop-color="#F9C431"/>
<stop offset="0.16" stop-color="#F2BA22"/>
<stop offset="0.19" stop-color="#E7AD0D"/>
<stop offset="0.2" stop-color="#E1A500"/>
<stop offset="0.38" stop-color="#F9DD90"/>
<stop offset="0.67" stop-color="#CD9600"/>
<stop offset="1" stop-color="#E7A900"/>
</linearGradient>
<linearGradient id="paint1_linear_8072_80253" x1="20.5564" y1="21.1719" x2="22.7409" y2="21.1719" gradientUnits="userSpaceOnUse">
<stop offset="0.05" stop-color="#FFCB3D"/>
<stop offset="0.1" stop-color="#FEC93A"/>
<stop offset="0.13" stop-color="#F9C431"/>
<stop offset="0.16" stop-color="#F2BA22"/>
<stop offset="0.19" stop-color="#E7AD0D"/>
<stop offset="0.2" stop-color="#E1A500"/>
<stop offset="0.38" stop-color="#F9DD90"/>
<stop offset="0.67" stop-color="#CD9600"/>
<stop offset="1" stop-color="#E7A900"/>
</linearGradient>
<linearGradient id="paint2_linear_8072_80253" x1="22.9063" y1="22.1103" x2="29.9167" y2="22.1103" gradientUnits="userSpaceOnUse">
<stop offset="0.05" stop-color="#FFCB3D"/>
<stop offset="0.1" stop-color="#FEC93A"/>
<stop offset="0.13" stop-color="#F9C431"/>
<stop offset="0.16" stop-color="#F2BA22"/>
<stop offset="0.19" stop-color="#E7AD0D"/>
<stop offset="0.2" stop-color="#E1A500"/>
<stop offset="0.38" stop-color="#F9DD90"/>
<stop offset="0.67" stop-color="#CD9600"/>
<stop offset="1" stop-color="#E7A900"/>
</linearGradient>
<linearGradient id="paint3_linear_8072_80253" x1="22.6257" y1="19.5444" x2="24.3276" y2="19.5444" gradientUnits="userSpaceOnUse">
<stop offset="0.05" stop-color="#FFCB3D"/>
<stop offset="0.1" stop-color="#FEC93A"/>
<stop offset="0.13" stop-color="#F9C431"/>
<stop offset="0.16" stop-color="#F2BA22"/>
<stop offset="0.19" stop-color="#E7AD0D"/>
<stop offset="0.2" stop-color="#E1A500"/>
<stop offset="0.38" stop-color="#F9DD90"/>
<stop offset="0.67" stop-color="#CD9600"/>
<stop offset="1" stop-color="#E7A900"/>
</linearGradient>
<linearGradient id="paint4_linear_8072_80253" x1="25.3543" y1="18.8947" x2="31.4867" y2="18.8947" gradientUnits="userSpaceOnUse">
<stop offset="0.05" stop-color="#FFCB3D"/>
<stop offset="0.1" stop-color="#FEC93A"/>
<stop offset="0.13" stop-color="#F9C431"/>
<stop offset="0.16" stop-color="#F2BA22"/>
<stop offset="0.19" stop-color="#E7AD0D"/>
<stop offset="0.2" stop-color="#E1A500"/>
<stop offset="0.38" stop-color="#F9DD90"/>
<stop offset="0.67" stop-color="#CD9600"/>
<stop offset="1" stop-color="#E7A900"/>
</linearGradient>
<linearGradient id="paint5_linear_8072_80253" x1="24.4489" y1="17.2695" x2="26.1362" y2="17.2695" gradientUnits="userSpaceOnUse">
<stop offset="0.05" stop-color="#FFCB3D"/>
<stop offset="0.1" stop-color="#FEC93A"/>
<stop offset="0.13" stop-color="#F9C431"/>
<stop offset="0.16" stop-color="#F2BA22"/>
<stop offset="0.19" stop-color="#E7AD0D"/>
<stop offset="0.2" stop-color="#E1A500"/>
<stop offset="0.38" stop-color="#F9DD90"/>
<stop offset="0.67" stop-color="#CD9600"/>
<stop offset="1" stop-color="#E7A900"/>
</linearGradient>
<linearGradient id="paint6_linear_8072_80253" x1="27.137" y1="15.8779" x2="32.5152" y2="15.8779" gradientUnits="userSpaceOnUse">
<stop offset="0.05" stop-color="#FFCB3D"/>
<stop offset="0.1" stop-color="#FEC93A"/>
<stop offset="0.13" stop-color="#F9C431"/>
<stop offset="0.16" stop-color="#F2BA22"/>
<stop offset="0.19" stop-color="#E7AD0D"/>
<stop offset="0.2" stop-color="#E1A500"/>
<stop offset="0.38" stop-color="#F9DD90"/>
<stop offset="0.67" stop-color="#CD9600"/>
<stop offset="1" stop-color="#E7A900"/>
</linearGradient>
<linearGradient id="paint7_linear_8072_80253" x1="25.3984" y1="14.8323" x2="27.5903" y2="14.8323" gradientUnits="userSpaceOnUse">
<stop offset="0.05" stop-color="#FFCB3D"/>
<stop offset="0.1" stop-color="#FEC93A"/>
<stop offset="0.13" stop-color="#F9C431"/>
<stop offset="0.16" stop-color="#F2BA22"/>
<stop offset="0.19" stop-color="#E7AD0D"/>
<stop offset="0.2" stop-color="#E1A500"/>
<stop offset="0.38" stop-color="#F9DD90"/>
<stop offset="0.67" stop-color="#CD9600"/>
<stop offset="1" stop-color="#E7A900"/>
</linearGradient>
<linearGradient id="paint8_linear_8072_80253" x1="28.3281" y1="12.6452" x2="31.5751" y2="12.6452" gradientUnits="userSpaceOnUse">
<stop offset="0.05" stop-color="#FFCB3D"/>
<stop offset="0.1" stop-color="#FEC93A"/>
<stop offset="0.13" stop-color="#F9C431"/>
<stop offset="0.16" stop-color="#F2BA22"/>
<stop offset="0.19" stop-color="#E7AD0D"/>
<stop offset="0.2" stop-color="#E1A500"/>
<stop offset="0.38" stop-color="#F9DD90"/>
<stop offset="0.67" stop-color="#CD9600"/>
<stop offset="1" stop-color="#E7A900"/>
</linearGradient>
<linearGradient id="paint9_linear_8072_80253" x1="25.2204" y1="12.626" x2="28.3967" y2="12.626" gradientUnits="userSpaceOnUse">
<stop offset="0.05" stop-color="#FFCB3D"/>
<stop offset="0.1" stop-color="#FEC93A"/>
<stop offset="0.13" stop-color="#F9C431"/>
<stop offset="0.16" stop-color="#F2BA22"/>
<stop offset="0.19" stop-color="#E7AD0D"/>
<stop offset="0.2" stop-color="#E1A500"/>
<stop offset="0.38" stop-color="#F9DD90"/>
<stop offset="0.67" stop-color="#CD9600"/>
<stop offset="1" stop-color="#E7A900"/>
</linearGradient>
<linearGradient id="paint10_linear_8072_80253" x1="28.2499" y1="9.67973" x2="30.417" y2="9.67973" gradientUnits="userSpaceOnUse">
<stop offset="0.05" stop-color="#FFCB3D"/>
<stop offset="0.1" stop-color="#FEC93A"/>
<stop offset="0.13" stop-color="#F9C431"/>
<stop offset="0.16" stop-color="#F2BA22"/>
<stop offset="0.19" stop-color="#E7AD0D"/>
<stop offset="0.2" stop-color="#E1A500"/>
<stop offset="0.38" stop-color="#F9DD90"/>
<stop offset="0.67" stop-color="#CD9600"/>
<stop offset="1" stop-color="#E7A900"/>
</linearGradient>
<linearGradient id="paint11_linear_8072_80253" x1="24.4458" y1="10.3403" x2="28.5818" y2="10.3403" gradientUnits="userSpaceOnUse">
<stop offset="0.05" stop-color="#FFCB3D"/>
<stop offset="0.1" stop-color="#FEC93A"/>
<stop offset="0.13" stop-color="#F9C431"/>
<stop offset="0.16" stop-color="#F2BA22"/>
<stop offset="0.19" stop-color="#E7AD0D"/>
<stop offset="0.2" stop-color="#E1A500"/>
<stop offset="0.38" stop-color="#F9DD90"/>
<stop offset="0.67" stop-color="#CD9600"/>
<stop offset="1" stop-color="#E7A900"/>
</linearGradient>
<linearGradient id="paint12_linear_8072_80253" x1="27.5545" y1="7.02317" x2="28.9436" y2="7.02317" gradientUnits="userSpaceOnUse">
<stop offset="0.05" stop-color="#FFCB3D"/>
<stop offset="0.1" stop-color="#FEC93A"/>
<stop offset="0.13" stop-color="#F9C431"/>
<stop offset="0.16" stop-color="#F2BA22"/>
<stop offset="0.19" stop-color="#E7AD0D"/>
<stop offset="0.2" stop-color="#E1A500"/>
<stop offset="0.38" stop-color="#F9DD90"/>
<stop offset="0.67" stop-color="#CD9600"/>
<stop offset="1" stop-color="#E7A900"/>
</linearGradient>
<linearGradient id="paint13_linear_8072_80253" x1="23.702" y1="8.21299" x2="28.0398" y2="8.21299" gradientUnits="userSpaceOnUse">
<stop offset="0.05" stop-color="#FFCB3D"/>
<stop offset="0.1" stop-color="#FEC93A"/>
<stop offset="0.13" stop-color="#F9C431"/>
<stop offset="0.16" stop-color="#F2BA22"/>
<stop offset="0.19" stop-color="#E7AD0D"/>
<stop offset="0.2" stop-color="#E1A500"/>
<stop offset="0.38" stop-color="#F9DD90"/>
<stop offset="0.67" stop-color="#CD9600"/>
<stop offset="1" stop-color="#E7A900"/>
</linearGradient>
<linearGradient id="paint14_linear_8072_80253" x1="26.3282" y1="4.82985" x2="27.5301" y2="4.82985" gradientUnits="userSpaceOnUse">
<stop offset="0.05" stop-color="#FFCB3D"/>
<stop offset="0.1" stop-color="#FEC93A"/>
<stop offset="0.13" stop-color="#F9C431"/>
<stop offset="0.16" stop-color="#F2BA22"/>
<stop offset="0.19" stop-color="#E7AD0D"/>
<stop offset="0.2" stop-color="#E1A500"/>
<stop offset="0.38" stop-color="#F9DD90"/>
<stop offset="0.67" stop-color="#CD9600"/>
<stop offset="1" stop-color="#E7A900"/>
</linearGradient>
<linearGradient id="paint15_linear_8072_80253" x1="22.8127" y1="6.39745" x2="27.3918" y2="6.39745" gradientUnits="userSpaceOnUse">
<stop offset="0.05" stop-color="#FFCB3D"/>
<stop offset="0.1" stop-color="#FEC93A"/>
<stop offset="0.13" stop-color="#F9C431"/>
<stop offset="0.16" stop-color="#F2BA22"/>
<stop offset="0.19" stop-color="#E7AD0D"/>
<stop offset="0.2" stop-color="#E1A500"/>
<stop offset="0.38" stop-color="#F9DD90"/>
<stop offset="0.67" stop-color="#CD9600"/>
<stop offset="1" stop-color="#E7A900"/>
</linearGradient>
<linearGradient id="paint16_linear_8072_80253" x1="24.7034" y1="3.31618" x2="26.0273" y2="3.31618" gradientUnits="userSpaceOnUse">
<stop offset="0.05" stop-color="#FFCB3D"/>
<stop offset="0.1" stop-color="#FEC93A"/>
<stop offset="0.13" stop-color="#F9C431"/>
<stop offset="0.16" stop-color="#F2BA22"/>
<stop offset="0.19" stop-color="#E7AD0D"/>
<stop offset="0.2" stop-color="#E1A500"/>
<stop offset="0.38" stop-color="#F9DD90"/>
<stop offset="0.67" stop-color="#CD9600"/>
<stop offset="1" stop-color="#E7A900"/>
</linearGradient>
<linearGradient id="paint17_linear_8072_80253" x1="22.1406" y1="4.85561" x2="26.0013" y2="4.85561" gradientUnits="userSpaceOnUse">
<stop offset="0.05" stop-color="#FFCB3D"/>
<stop offset="0.1" stop-color="#FEC93A"/>
<stop offset="0.13" stop-color="#F9C431"/>
<stop offset="0.16" stop-color="#F2BA22"/>
<stop offset="0.19" stop-color="#E7AD0D"/>
<stop offset="0.2" stop-color="#E1A500"/>
<stop offset="0.38" stop-color="#F9DD90"/>
<stop offset="0.67" stop-color="#CD9600"/>
<stop offset="1" stop-color="#E7A900"/>
</linearGradient>
<linearGradient id="paint18_linear_8072_80253" x1="23.32" y1="2.35639" x2="24.6934" y2="2.35639" gradientUnits="userSpaceOnUse">
<stop offset="0.05" stop-color="#FFCB3D"/>
<stop offset="0.1" stop-color="#FEC93A"/>
<stop offset="0.13" stop-color="#F9C431"/>
<stop offset="0.16" stop-color="#F2BA22"/>
<stop offset="0.19" stop-color="#E7AD0D"/>
<stop offset="0.2" stop-color="#E1A500"/>
<stop offset="0.38" stop-color="#F9DD90"/>
<stop offset="0.67" stop-color="#CD9600"/>
<stop offset="1" stop-color="#E7A900"/>
</linearGradient>
<linearGradient id="paint19_linear_8072_80253" x1="21.6404" y1="3.63101" x2="24.7121" y2="3.63101" gradientUnits="userSpaceOnUse">
<stop offset="0.05" stop-color="#FFCB3D"/>
<stop offset="0.1" stop-color="#FEC93A"/>
<stop offset="0.13" stop-color="#F9C431"/>
<stop offset="0.16" stop-color="#F2BA22"/>
<stop offset="0.19" stop-color="#E7AD0D"/>
<stop offset="0.2" stop-color="#E1A500"/>
<stop offset="0.38" stop-color="#F9DD90"/>
<stop offset="0.67" stop-color="#CD9600"/>
<stop offset="1" stop-color="#E7A900"/>
</linearGradient>
<linearGradient id="paint20_linear_8072_80253" x1="13.859" y1="26.8851" x2="16.2912" y2="26.8851" gradientUnits="userSpaceOnUse">
<stop offset="0.05" stop-color="#FFCB3D"/>
<stop offset="0.1" stop-color="#FEC93A"/>
<stop offset="0.13" stop-color="#F9C431"/>
<stop offset="0.16" stop-color="#F2BA22"/>
<stop offset="0.19" stop-color="#E7AD0D"/>
<stop offset="0.2" stop-color="#E1A500"/>
<stop offset="0.38" stop-color="#F9DD90"/>
<stop offset="0.67" stop-color="#CD9600"/>
<stop offset="1" stop-color="#E7A900"/>
</linearGradient>
<linearGradient id="paint21_linear_8072_80253" x1="16.2109" y1="26.8122" x2="18.8606" y2="26.8122" gradientUnits="userSpaceOnUse">
<stop offset="0.05" stop-color="#FFCB3D"/>
<stop offset="0.1" stop-color="#FEC93A"/>
<stop offset="0.13" stop-color="#F9C431"/>
<stop offset="0.16" stop-color="#F2BA22"/>
<stop offset="0.19" stop-color="#E7AD0D"/>
<stop offset="0.2" stop-color="#E1A500"/>
<stop offset="0.38" stop-color="#F9DD90"/>
<stop offset="0.67" stop-color="#CD9600"/>
<stop offset="1" stop-color="#E7A900"/>
</linearGradient>
<linearGradient id="paint22_linear_8072_80253" x1="22.6643" y1="1.90917" x2="23.6084" y2="1.90917" gradientUnits="userSpaceOnUse">
<stop offset="0.05" stop-color="#FFCB3D"/>
<stop offset="0.1" stop-color="#FEC93A"/>
<stop offset="0.13" stop-color="#F9C431"/>
<stop offset="0.16" stop-color="#F2BA22"/>
<stop offset="0.19" stop-color="#E7AD0D"/>
<stop offset="0.2" stop-color="#E1A500"/>
<stop offset="0.38" stop-color="#F9DD90"/>
<stop offset="0.67" stop-color="#CD9600"/>
<stop offset="1" stop-color="#E7A900"/>
</linearGradient>
<linearGradient id="paint23_linear_8072_80253" x1="21.4846" y1="2.79158" x2="23.6177" y2="2.79158" gradientUnits="userSpaceOnUse">
<stop offset="0.05" stop-color="#FFCB3D"/>
<stop offset="0.1" stop-color="#FEC93A"/>
<stop offset="0.13" stop-color="#F9C431"/>
<stop offset="0.16" stop-color="#F2BA22"/>
<stop offset="0.19" stop-color="#E7AD0D"/>
<stop offset="0.2" stop-color="#E1A500"/>
<stop offset="0.38" stop-color="#F9DD90"/>
<stop offset="0.67" stop-color="#CD9600"/>
<stop offset="1" stop-color="#E7A900"/>
</linearGradient>
<linearGradient id="paint24_linear_8072_80253" x1="16.3212" y1="25.36" x2="26.9547" y2="25.36" gradientUnits="userSpaceOnUse">
<stop offset="0.05" stop-color="#FFCB3D"/>
<stop offset="0.1" stop-color="#FEC93A"/>
<stop offset="0.13" stop-color="#F9C431"/>
<stop offset="0.16" stop-color="#F2BA22"/>
<stop offset="0.19" stop-color="#E7AD0D"/>
<stop offset="0.2" stop-color="#E1A500"/>
<stop offset="0.38" stop-color="#F9DD90"/>
<stop offset="0.67" stop-color="#CD9600"/>
<stop offset="1" stop-color="#E7A900"/>
</linearGradient>
<linearGradient id="paint25_linear_8072_80253" x1="4.89859" y1="24.2392" x2="12.1567" y2="24.2392" gradientUnits="userSpaceOnUse">
<stop offset="0.05" stop-color="#FFCB3D"/>
<stop offset="0.1" stop-color="#FEC93A"/>
<stop offset="0.13" stop-color="#F9C431"/>
<stop offset="0.16" stop-color="#F2BA22"/>
<stop offset="0.19" stop-color="#E7AD0D"/>
<stop offset="0.2" stop-color="#E1A500"/>
<stop offset="0.38" stop-color="#F9DD90"/>
<stop offset="0.67" stop-color="#CD9600"/>
<stop offset="1" stop-color="#E7A900"/>
</linearGradient>
<linearGradient id="paint26_linear_8072_80253" x1="9.78139" y1="21.1719" x2="11.9659" y2="21.1719" gradientUnits="userSpaceOnUse">
<stop offset="0.05" stop-color="#FFCB3D"/>
<stop offset="0.1" stop-color="#FEC93A"/>
<stop offset="0.13" stop-color="#F9C431"/>
<stop offset="0.16" stop-color="#F2BA22"/>
<stop offset="0.19" stop-color="#E7AD0D"/>
<stop offset="0.2" stop-color="#E1A500"/>
<stop offset="0.38" stop-color="#F9DD90"/>
<stop offset="0.67" stop-color="#CD9600"/>
<stop offset="1" stop-color="#E7A900"/>
</linearGradient>
<linearGradient id="paint27_linear_8072_80253" x1="2.60188" y1="22.1103" x2="9.61228" y2="22.1103" gradientUnits="userSpaceOnUse">
<stop offset="0.05" stop-color="#FFCB3D"/>
<stop offset="0.1" stop-color="#FEC93A"/>
<stop offset="0.13" stop-color="#F9C431"/>
<stop offset="0.16" stop-color="#F2BA22"/>
<stop offset="0.19" stop-color="#E7AD0D"/>
<stop offset="0.2" stop-color="#E1A500"/>
<stop offset="0.38" stop-color="#F9DD90"/>
<stop offset="0.67" stop-color="#CD9600"/>
<stop offset="1" stop-color="#E7A900"/>
</linearGradient>
<linearGradient id="paint28_linear_8072_80253" x1="8.18775" y1="19.5444" x2="9.88967" y2="19.5444" gradientUnits="userSpaceOnUse">
<stop offset="0.05" stop-color="#FFCB3D"/>
<stop offset="0.1" stop-color="#FEC93A"/>
<stop offset="0.13" stop-color="#F9C431"/>
<stop offset="0.16" stop-color="#F2BA22"/>
<stop offset="0.19" stop-color="#E7AD0D"/>
<stop offset="0.2" stop-color="#E1A500"/>
<stop offset="0.38" stop-color="#F9DD90"/>
<stop offset="0.67" stop-color="#CD9600"/>
<stop offset="1" stop-color="#E7A900"/>
</linearGradient>
<linearGradient id="paint29_linear_8072_80253" x1="1.03635" y1="18.8947" x2="7.16874" y2="18.8947" gradientUnits="userSpaceOnUse">
<stop offset="0.05" stop-color="#FFCB3D"/>
<stop offset="0.1" stop-color="#FEC93A"/>
<stop offset="0.13" stop-color="#F9C431"/>
<stop offset="0.16" stop-color="#F2BA22"/>
<stop offset="0.19" stop-color="#E7AD0D"/>
<stop offset="0.2" stop-color="#E1A500"/>
<stop offset="0.38" stop-color="#F9DD90"/>
<stop offset="0.67" stop-color="#CD9600"/>
<stop offset="1" stop-color="#E7A900"/>
</linearGradient>
<linearGradient id="paint30_linear_8072_80253" x1="6.3826" y1="17.2695" x2="8.06983" y2="17.2695" gradientUnits="userSpaceOnUse">
<stop offset="0.05" stop-color="#FFCB3D"/>
<stop offset="0.1" stop-color="#FEC93A"/>
<stop offset="0.13" stop-color="#F9C431"/>
<stop offset="0.16" stop-color="#F2BA22"/>
<stop offset="0.19" stop-color="#E7AD0D"/>
<stop offset="0.2" stop-color="#E1A500"/>
<stop offset="0.38" stop-color="#F9DD90"/>
<stop offset="0.67" stop-color="#CD9600"/>
<stop offset="1" stop-color="#E7A900"/>
</linearGradient>
<linearGradient id="paint31_linear_8072_80253" x1="0.00106698" y1="15.8779" x2="5.37929" y2="15.8779" gradientUnits="userSpaceOnUse">
<stop offset="0.05" stop-color="#FFCB3D"/>
<stop offset="0.1" stop-color="#FEC93A"/>
<stop offset="0.13" stop-color="#F9C431"/>
<stop offset="0.16" stop-color="#F2BA22"/>
<stop offset="0.19" stop-color="#E7AD0D"/>
<stop offset="0.2" stop-color="#E1A500"/>
<stop offset="0.38" stop-color="#F9DD90"/>
<stop offset="0.67" stop-color="#CD9600"/>
<stop offset="1" stop-color="#E7A900"/>
</linearGradient>
<linearGradient id="paint32_linear_8072_80253" x1="4.9248" y1="14.8323" x2="7.11664" y2="14.8323" gradientUnits="userSpaceOnUse">
<stop offset="0.05" stop-color="#FFCB3D"/>
<stop offset="0.1" stop-color="#FEC93A"/>
<stop offset="0.13" stop-color="#F9C431"/>
<stop offset="0.16" stop-color="#F2BA22"/>
<stop offset="0.19" stop-color="#E7AD0D"/>
<stop offset="0.2" stop-color="#E1A500"/>
<stop offset="0.38" stop-color="#F9DD90"/>
<stop offset="0.67" stop-color="#CD9600"/>
<stop offset="1" stop-color="#E7A900"/>
</linearGradient>
<linearGradient id="paint33_linear_8072_80253" x1="0.945581" y1="12.6452" x2="4.19252" y2="12.6452" gradientUnits="userSpaceOnUse">
<stop offset="0.05" stop-color="#FFCB3D"/>
<stop offset="0.1" stop-color="#FEC93A"/>
<stop offset="0.13" stop-color="#F9C431"/>
<stop offset="0.16" stop-color="#F2BA22"/>
<stop offset="0.19" stop-color="#E7AD0D"/>
<stop offset="0.2" stop-color="#E1A500"/>
<stop offset="0.38" stop-color="#F9DD90"/>
<stop offset="0.67" stop-color="#CD9600"/>
<stop offset="1" stop-color="#E7A900"/>
</linearGradient>
<linearGradient id="paint34_linear_8072_80253" x1="4.12225" y1="12.626" x2="7.29854" y2="12.626" gradientUnits="userSpaceOnUse">
<stop offset="0.05" stop-color="#FFCB3D"/>
<stop offset="0.1" stop-color="#FEC93A"/>
<stop offset="0.13" stop-color="#F9C431"/>
<stop offset="0.16" stop-color="#F2BA22"/>
<stop offset="0.19" stop-color="#E7AD0D"/>
<stop offset="0.2" stop-color="#E1A500"/>
<stop offset="0.38" stop-color="#F9DD90"/>
<stop offset="0.67" stop-color="#CD9600"/>
<stop offset="1" stop-color="#E7A900"/>
</linearGradient>
<linearGradient id="paint35_linear_8072_80253" x1="2.10139" y1="9.67973" x2="4.26846" y2="9.67973" gradientUnits="userSpaceOnUse">
<stop offset="0.05" stop-color="#FFCB3D"/>
<stop offset="0.1" stop-color="#FEC93A"/>
<stop offset="0.13" stop-color="#F9C431"/>
<stop offset="0.16" stop-color="#F2BA22"/>
<stop offset="0.19" stop-color="#E7AD0D"/>
<stop offset="0.2" stop-color="#E1A500"/>
<stop offset="0.38" stop-color="#F9DD90"/>
<stop offset="0.67" stop-color="#CD9600"/>
<stop offset="1" stop-color="#E7A900"/>
</linearGradient>
<linearGradient id="paint36_linear_8072_80253" x1="3.93567" y1="10.3403" x2="8.07163" y2="10.3403" gradientUnits="userSpaceOnUse">
<stop offset="0.05" stop-color="#FFCB3D"/>
<stop offset="0.1" stop-color="#FEC93A"/>
<stop offset="0.13" stop-color="#F9C431"/>
<stop offset="0.16" stop-color="#F2BA22"/>
<stop offset="0.19" stop-color="#E7AD0D"/>
<stop offset="0.2" stop-color="#E1A500"/>
<stop offset="0.38" stop-color="#F9DD90"/>
<stop offset="0.67" stop-color="#CD9600"/>
<stop offset="1" stop-color="#E7A900"/>
</linearGradient>
<linearGradient id="paint37_linear_8072_80253" x1="3.58038" y1="7.02317" x2="4.96944" y2="7.02317" gradientUnits="userSpaceOnUse">
<stop offset="0.05" stop-color="#FFCB3D"/>
<stop offset="0.1" stop-color="#FEC93A"/>
<stop offset="0.13" stop-color="#F9C431"/>
<stop offset="0.16" stop-color="#F2BA22"/>
<stop offset="0.19" stop-color="#E7AD0D"/>
<stop offset="0.2" stop-color="#E1A500"/>
<stop offset="0.38" stop-color="#F9DD90"/>
<stop offset="0.67" stop-color="#CD9600"/>
<stop offset="1" stop-color="#E7A900"/>
</linearGradient>
<linearGradient id="paint38_linear_8072_80253" x1="4.47748" y1="8.21299" x2="8.8153" y2="8.21299" gradientUnits="userSpaceOnUse">
<stop offset="0.05" stop-color="#FFCB3D"/>
<stop offset="0.1" stop-color="#FEC93A"/>
<stop offset="0.13" stop-color="#F9C431"/>
<stop offset="0.16" stop-color="#F2BA22"/>
<stop offset="0.19" stop-color="#E7AD0D"/>
<stop offset="0.2" stop-color="#E1A500"/>
<stop offset="0.38" stop-color="#F9DD90"/>
<stop offset="0.67" stop-color="#CD9600"/>
<stop offset="1" stop-color="#E7A900"/>
</linearGradient>
<linearGradient id="paint39_linear_8072_80253" x1="4.9882" y1="4.82985" x2="6.19009" y2="4.82985" gradientUnits="userSpaceOnUse">
<stop offset="0.05" stop-color="#FFCB3D"/>
<stop offset="0.1" stop-color="#FEC93A"/>
<stop offset="0.13" stop-color="#F9C431"/>
<stop offset="0.16" stop-color="#F2BA22"/>
<stop offset="0.19" stop-color="#E7AD0D"/>
<stop offset="0.2" stop-color="#E1A500"/>
<stop offset="0.38" stop-color="#F9DD90"/>
<stop offset="0.67" stop-color="#CD9600"/>
<stop offset="1" stop-color="#E7A900"/>
</linearGradient>
<linearGradient id="paint40_linear_8072_80253" x1="5.12592" y1="6.39745" x2="9.70502" y2="6.39745" gradientUnits="userSpaceOnUse">
<stop offset="0.05" stop-color="#FFCB3D"/>
<stop offset="0.1" stop-color="#FEC93A"/>
<stop offset="0.13" stop-color="#F9C431"/>
<stop offset="0.16" stop-color="#F2BA22"/>
<stop offset="0.19" stop-color="#E7AD0D"/>
<stop offset="0.2" stop-color="#E1A500"/>
<stop offset="0.38" stop-color="#F9DD90"/>
<stop offset="0.67" stop-color="#CD9600"/>
<stop offset="1" stop-color="#E7A900"/>
</linearGradient>
<linearGradient id="paint41_linear_8072_80253" x1="6.49211" y1="3.31618" x2="7.81602" y2="3.31618" gradientUnits="userSpaceOnUse">
<stop offset="0.05" stop-color="#FFCB3D"/>
<stop offset="0.1" stop-color="#FEC93A"/>
<stop offset="0.13" stop-color="#F9C431"/>
<stop offset="0.16" stop-color="#F2BA22"/>
<stop offset="0.19" stop-color="#E7AD0D"/>
<stop offset="0.2" stop-color="#E1A500"/>
<stop offset="0.38" stop-color="#F9DD90"/>
<stop offset="0.67" stop-color="#CD9600"/>
<stop offset="1" stop-color="#E7A900"/>
</linearGradient>
<linearGradient id="paint42_linear_8072_80253" x1="6.51562" y1="4.85561" x2="10.3764" y2="4.85561" gradientUnits="userSpaceOnUse">
<stop offset="0.05" stop-color="#FFCB3D"/>
<stop offset="0.1" stop-color="#FEC93A"/>
<stop offset="0.13" stop-color="#F9C431"/>
<stop offset="0.16" stop-color="#F2BA22"/>
<stop offset="0.19" stop-color="#E7AD0D"/>
<stop offset="0.2" stop-color="#E1A500"/>
<stop offset="0.38" stop-color="#F9DD90"/>
<stop offset="0.67" stop-color="#CD9600"/>
<stop offset="1" stop-color="#E7A900"/>
</linearGradient>
<linearGradient id="paint43_linear_8072_80253" x1="7.82033" y1="2.35639" x2="9.19379" y2="2.35639" gradientUnits="userSpaceOnUse">
<stop offset="0.05" stop-color="#FFCB3D"/>
<stop offset="0.1" stop-color="#FEC93A"/>
<stop offset="0.13" stop-color="#F9C431"/>
<stop offset="0.16" stop-color="#F2BA22"/>
<stop offset="0.19" stop-color="#E7AD0D"/>
<stop offset="0.2" stop-color="#E1A500"/>
<stop offset="0.38" stop-color="#F9DD90"/>
<stop offset="0.67" stop-color="#CD9600"/>
<stop offset="1" stop-color="#E7A900"/>
</linearGradient>
<linearGradient id="paint44_linear_8072_80253" x1="7.80469" y1="3.63101" x2="10.8764" y2="3.63101" gradientUnits="userSpaceOnUse">
<stop offset="0.05" stop-color="#FFCB3D"/>
<stop offset="0.1" stop-color="#FEC93A"/>
<stop offset="0.13" stop-color="#F9C431"/>
<stop offset="0.16" stop-color="#F2BA22"/>
<stop offset="0.19" stop-color="#E7AD0D"/>
<stop offset="0.2" stop-color="#E1A500"/>
<stop offset="0.38" stop-color="#F9DD90"/>
<stop offset="0.67" stop-color="#CD9600"/>
<stop offset="1" stop-color="#E7A900"/>
</linearGradient>
<linearGradient id="paint45_linear_8072_80253" x1="8.91401" y1="1.90917" x2="9.85809" y2="1.90917" gradientUnits="userSpaceOnUse">
<stop offset="0.05" stop-color="#FFCB3D"/>
<stop offset="0.1" stop-color="#FEC93A"/>
<stop offset="0.13" stop-color="#F9C431"/>
<stop offset="0.16" stop-color="#F2BA22"/>
<stop offset="0.19" stop-color="#E7AD0D"/>
<stop offset="0.2" stop-color="#E1A500"/>
<stop offset="0.38" stop-color="#F9DD90"/>
<stop offset="0.67" stop-color="#CD9600"/>
<stop offset="1" stop-color="#E7A900"/>
</linearGradient>
<linearGradient id="paint46_linear_8072_80253" x1="8.89752" y1="2.79158" x2="11.0307" y2="2.79158" gradientUnits="userSpaceOnUse">
<stop offset="0.05" stop-color="#FFCB3D"/>
<stop offset="0.1" stop-color="#FEC93A"/>
<stop offset="0.13" stop-color="#F9C431"/>
<stop offset="0.16" stop-color="#F2BA22"/>
<stop offset="0.19" stop-color="#E7AD0D"/>
<stop offset="0.2" stop-color="#E1A500"/>
<stop offset="0.38" stop-color="#F9DD90"/>
<stop offset="0.67" stop-color="#CD9600"/>
<stop offset="1" stop-color="#E7A900"/>
</linearGradient>
<linearGradient id="paint47_linear_8072_80253" x1="5.56229" y1="25.36" x2="16.1958" y2="25.36" gradientUnits="userSpaceOnUse">
<stop offset="0.05" stop-color="#FFCB3D"/>
<stop offset="0.1" stop-color="#FEC93A"/>
<stop offset="0.13" stop-color="#F9C431"/>
<stop offset="0.16" stop-color="#F2BA22"/>
<stop offset="0.19" stop-color="#E7AD0D"/>
<stop offset="0.2" stop-color="#E1A500"/>
<stop offset="0.38" stop-color="#F9DD90"/>
<stop offset="0.67" stop-color="#CD9600"/>
<stop offset="1" stop-color="#E7A900"/>
</linearGradient>
<clipPath id="clip0_8072_80253">
<rect width="32.5189" height="28.1096" fill="white" transform="translate(0 0.945312)"/>
</clipPath>
</defs>
</svg>
