<svg width="86" height="60" viewBox="0 0 86 60" fill="none" xmlns="http://www.w3.org/2000/svg">
<path d="M2.77543 23.4229C3.15266 23.4229 3.50388 23.5334 3.82908 23.7546C4.16729 23.9757 4.40794 24.2489 4.55103 24.5741L11.1852 39.6569L16.8632 24.7107C17.0063 24.3594 17.2404 24.0668 17.5656 23.8326C17.9038 23.5985 18.2745 23.4814 18.6778 23.4814C19.2111 23.4814 19.6664 23.6765 20.0436 24.0668C20.4339 24.444 20.629 24.8993 20.629 25.4326C20.629 25.7058 20.577 25.9594 20.4729 26.1936L13.2925 44.9252C13.2664 45.0943 13.2209 45.2439 13.1559 45.374C13.0908 45.5041 13.0258 45.6211 12.9608 45.7252L11.8681 48.4569C11.5949 49.1333 11.2697 49.8488 10.8925 50.6032C10.5152 51.3707 9.99491 52.0927 9.3315 52.7691C8.6941 53.4325 7.91362 53.9918 6.99005 54.4471C6.07948 54.9024 5.12339 55.13 4.12177 55.13C3.57543 55.13 3.11364 54.9284 2.73641 54.5252C2.35917 54.1349 2.17055 53.6731 2.17055 53.1398C2.17055 52.6195 2.34616 52.1642 2.69738 51.774C3.06161 51.3967 3.49738 51.2016 4.00469 51.1886C5.1494 51.1105 6.03395 50.6618 6.65834 49.8423C7.28273 49.0358 7.81606 48.0797 8.25833 46.974L9.19491 44.5935L0.999828 26.2131C0.882755 25.9399 0.824219 25.6602 0.824219 25.3741C0.824219 24.8407 1.01284 24.3855 1.39007 24.0082C1.78031 23.618 2.2421 23.4229 2.77543 23.4229Z" fill="white"/>
<path d="M32.3168 23.4424C33.2794 23.4424 34.2159 23.6375 35.1265 24.0277C36.0501 24.405 36.8696 24.8863 37.585 25.4716C38.3135 26.044 38.8533 26.6358 39.2045 27.2472L39.4192 25.3741C39.4192 24.8407 39.5753 24.3855 39.8875 24.0082C40.1997 23.618 40.6224 23.4229 41.1558 23.4229C41.6891 23.4229 42.1444 23.618 42.5216 24.0082C42.9118 24.3855 43.107 24.8407 43.107 25.3741V25.4131L43.0679 43.4813C43.0679 44.0146 42.8728 44.4764 42.4826 44.8667C42.1053 45.2439 41.6501 45.4325 41.1167 45.4325C40.5834 45.4325 40.1606 45.2439 39.8484 44.8667C39.5362 44.4764 39.3801 44.0146 39.3801 43.4813L39.1655 41.9203C38.4891 43.0781 37.5005 43.9431 36.1997 44.5154C34.8989 45.0748 33.5916 45.3545 32.2777 45.3545C30.8078 45.3545 29.429 45.0683 28.1412 44.4959C26.8534 43.9106 25.7217 43.1106 24.7461 42.0959C23.7705 41.0813 23.003 39.9171 22.4436 38.6033C21.8973 37.2895 21.6241 35.9041 21.6241 34.4472C21.6241 33.0033 21.8908 31.6244 22.4241 30.3106C22.9705 28.9838 23.7249 27.8066 24.6875 26.7789C25.6631 25.7383 26.7948 24.9253 28.0826 24.3399C29.3834 23.7416 30.7948 23.4424 32.3168 23.4424ZM39.0484 34.4082C39.0484 33.1334 38.7493 31.9627 38.1509 30.896C37.5655 29.8293 36.7655 28.9708 35.7509 28.3204C34.7363 27.67 33.5785 27.3448 32.2777 27.3448C31.003 27.3448 29.8517 27.67 28.8241 28.3204C27.7965 28.9708 26.9835 29.8358 26.3851 30.9155C25.7867 31.9822 25.4875 33.1399 25.4875 34.3887C25.4875 35.6504 25.7932 36.8212 26.4046 37.9008C27.016 38.9675 27.8355 39.826 28.8631 40.4764C29.9038 41.1268 31.0485 41.452 32.2973 41.452C33.546 41.452 34.6777 41.1268 35.6924 40.4764C36.72 39.826 37.533 38.9675 38.1314 37.9008C38.7428 36.8212 39.0484 35.6569 39.0484 34.4082Z" fill="white"/>
<path d="M46.9118 18.4082C46.9118 17.8749 47.1004 17.4196 47.4777 17.0424C47.8679 16.6522 48.3297 16.457 48.863 16.457C49.3964 16.457 49.8517 16.6522 50.2289 17.0424C50.6191 17.4196 50.8142 17.8749 50.8142 18.4082V32.3594L58.7167 24.1448C59.0809 23.7285 59.5557 23.5204 60.141 23.5204C60.6744 23.5204 61.1297 23.7155 61.5069 24.1058C61.8971 24.483 62.0922 24.9383 62.0922 25.4716C62.0922 26.018 61.9036 26.4798 61.5264 26.857L55.2045 33.4326L61.8581 42.174C62.1313 42.5122 62.2679 42.9155 62.2679 43.3837C62.2679 43.9171 62.0727 44.3789 61.6825 44.7691C61.3053 45.1463 60.85 45.335 60.3166 45.335C60.0435 45.335 59.7573 45.2504 59.4581 45.0813C59.1589 44.9252 58.9248 44.7431 58.7557 44.535L52.4728 36.2618L50.8142 37.9789V43.3252C50.8142 43.8585 50.6191 44.3203 50.2289 44.7106C49.8517 45.0878 49.3964 45.2764 48.863 45.2764C48.3297 45.2764 47.8679 45.0878 47.4777 44.7106C47.1004 44.3203 46.9118 43.8585 46.9118 43.3252V18.4082Z" fill="white"/>
<path d="M74.9117 23.5399C76.4076 23.5399 77.7995 23.8261 79.0873 24.3985C80.3881 24.9708 81.5263 25.7643 82.5019 26.7789C83.4775 27.7936 84.2385 28.9578 84.7848 30.2716C85.3442 31.5854 85.6239 32.9838 85.6239 34.4667C85.6239 35.9236 85.3442 37.309 84.7848 38.6228C84.2255 39.9236 83.4515 41.0748 82.4629 42.0764C81.4873 43.065 80.3491 43.8455 79.0483 44.4179C77.7605 44.9902 76.3816 45.2764 74.9117 45.2764C73.4548 45.2764 72.0759 44.9967 70.7751 44.4374C69.4873 43.8781 68.3491 43.1041 67.3605 42.1155C66.3849 41.1268 65.6174 39.9821 65.0581 38.6813C64.4987 37.3675 64.2191 35.9626 64.2191 34.4667C64.2191 32.9838 64.4987 31.5854 65.0581 30.2716C65.6174 28.9578 66.3849 27.8001 67.3605 26.7985C68.3491 25.7838 69.4873 24.9903 70.7751 24.418C72.0629 23.8326 73.4418 23.5399 74.9117 23.5399ZM68.1605 34.5057C68.1605 35.7675 68.4662 36.9187 69.0776 37.9594C69.702 38.987 70.528 39.8065 71.5556 40.4179C72.5833 41.0293 73.7085 41.335 74.9312 41.335C76.18 41.335 77.3117 41.0228 78.3263 40.3984C79.354 39.761 80.167 38.922 80.7653 37.8813C81.3767 36.8407 81.6824 35.7025 81.6824 34.4667C81.6824 33.2049 81.3832 32.0472 80.7849 30.9936C80.1865 29.9269 79.3735 29.0749 78.3458 28.4375C77.3312 27.8001 76.1865 27.4814 74.9117 27.4814C73.6239 27.4814 72.4727 27.8066 71.4581 28.457C70.4434 29.0944 69.6369 29.9464 69.0386 31.0131C68.4532 32.0667 68.1605 33.2309 68.1605 34.5057Z" fill="white"/>
<path d="M36.9141 55.457C36.9141 54.8241 37.0643 54.2414 37.3648 53.7087C37.6653 53.1714 38.0705 52.7389 38.5804 52.4111C39.0903 52.0833 39.6594 51.9194 40.2877 51.9194C40.7521 51.9194 41.1755 52.0059 41.5579 52.1789C41.9404 52.3519 42.2705 52.5796 42.5482 52.8618C42.8259 53.1441 43.0399 53.4537 43.1901 53.7906C43.2266 53.8635 43.2448 53.9363 43.2448 54.0092C43.2448 54.1503 43.1947 54.2709 43.0945 54.3711C42.9944 54.4667 42.8737 54.5145 42.7326 54.5145C42.6415 54.5145 42.5505 54.4872 42.4594 54.4326C42.3683 54.3734 42.3046 54.3005 42.2682 54.214C42.1134 53.8726 41.863 53.5744 41.517 53.3194C41.171 53.0644 40.7612 52.937 40.2877 52.937C39.8461 52.937 39.4477 53.0553 39.0926 53.2921C38.7375 53.5243 38.4552 53.8339 38.2458 54.2209C38.0363 54.6033 37.9316 55.0176 37.9316 55.4638C37.9316 55.91 38.0341 56.3265 38.2389 56.7135C38.4484 57.096 38.7306 57.4056 39.0858 57.6423C39.4454 57.8745 39.8461 57.9906 40.2877 57.9906C40.7612 57.9906 41.171 57.8654 41.517 57.615C41.8675 57.36 42.1202 57.0618 42.275 56.7204C42.3114 56.6339 42.3752 56.561 42.4662 56.5018C42.5573 56.4426 42.6483 56.413 42.7394 56.413C42.8805 56.413 43.0012 56.4631 43.1014 56.5633C43.2015 56.6635 43.2516 56.7841 43.2516 56.9252C43.2516 57.0026 43.2357 57.0732 43.2038 57.1369C43.0535 57.4693 42.8373 57.7789 42.555 58.0657C42.2773 58.348 41.9449 58.5756 41.5579 58.7486C41.1755 58.9217 40.7521 59.0082 40.2877 59.0082C39.6549 59.0082 39.0835 58.8443 38.5736 58.5165C38.0637 58.1887 37.6584 57.7561 37.358 57.2189C37.062 56.6771 36.9141 56.0898 36.9141 55.457Z" fill="#FBB715"/>
<path d="M49.3556 51.8921C49.8427 51.8921 50.2798 52.0332 50.6668 52.3155C51.0583 52.5978 51.3998 52.896 51.6912 53.2101L51.7526 52.3497C51.7526 52.2176 51.7891 52.1061 51.8619 52.015C51.9347 51.9194 52.0372 51.8716 52.1692 51.8716C52.3012 51.8716 52.4128 51.9194 52.5038 52.015C52.5995 52.1061 52.6473 52.2176 52.6473 52.3497V58.5233C52.6473 58.6553 52.5995 58.7691 52.5038 58.8647C52.4128 58.9558 52.3012 59.0013 52.1692 59.0013C52.0372 59.0013 51.9234 58.9558 51.8278 58.8647C51.7367 58.7691 51.6912 58.6553 51.6912 58.5233V57.7448C51.3907 58.0726 51.0333 58.3685 50.619 58.6326C50.2092 58.8966 49.7767 59.0286 49.3214 59.0286C48.8525 59.0286 48.4177 58.933 48.017 58.7418C47.6164 58.546 47.2658 58.282 46.9653 57.9496C46.6648 57.6173 46.4304 57.2394 46.2619 56.816C46.098 56.388 46.0161 55.9396 46.0161 55.4706C46.0161 55.0062 46.098 54.56 46.2619 54.1321C46.4304 53.6996 46.6648 53.3171 46.9653 52.9848C47.2704 52.6479 47.6255 52.3815 48.0307 52.1858C48.4359 51.99 48.8775 51.8921 49.3556 51.8921ZM51.7253 55.4296C51.7253 54.988 51.6183 54.5783 51.4043 54.2004C51.1949 53.8179 50.9104 53.5083 50.5507 53.2716C50.1956 53.0349 49.7995 52.9165 49.3624 52.9165C48.9208 52.9165 48.5247 53.0371 48.1741 53.2784C47.8235 53.5197 47.5458 53.8361 47.3409 54.2277C47.1406 54.6147 47.0405 55.029 47.0405 55.4706C47.0405 55.9077 47.1406 56.3197 47.3409 56.7067C47.5413 57.0937 47.8122 57.4078 48.1536 57.6491C48.4996 57.8859 48.8889 58.0043 49.3214 58.0043C49.7585 58.0043 50.1591 57.8836 50.5234 57.6423C50.8876 57.3965 51.179 57.0778 51.3975 56.6862C51.616 56.2901 51.7253 55.8713 51.7253 55.4296Z" fill="#FBB715"/>
<path d="M58.9288 51.8579C59.5389 51.8579 60.0943 51.99 60.5951 52.254C61.1005 52.5181 61.4738 52.8778 61.7151 53.3331C61.7561 53.4059 61.7766 53.4856 61.7766 53.5721C61.7766 53.7087 61.7265 53.8248 61.6263 53.9204C61.5307 54.016 61.4146 54.0638 61.2781 54.0638C61.1961 54.0638 61.1119 54.0388 61.0254 53.9887C60.9389 53.934 60.8774 53.8703 60.841 53.7975C60.6771 53.4879 60.4267 53.2534 60.0898 53.094C59.7574 52.9301 59.3681 52.8482 58.922 52.8482C58.6397 52.8482 58.3324 52.8869 58 52.9643C57.6677 53.0371 57.3808 53.1601 57.1395 53.3331C56.9028 53.5015 56.7844 53.7292 56.7844 54.016C56.7844 54.2391 56.88 54.4121 57.0712 54.535C57.2625 54.6579 57.4992 54.749 57.7815 54.8082C58.0683 54.8628 58.3574 54.9015 58.6488 54.9243C58.9447 54.947 59.1974 54.9698 59.4068 54.9926C59.8211 55.0335 60.2286 55.1087 60.6293 55.2179C61.0299 55.3272 61.3623 55.507 61.6263 55.7574C61.8904 56.0078 62.0224 56.3698 62.0224 56.8433C62.0224 57.3532 61.8722 57.7721 61.5717 58.0999C61.2712 58.4231 60.8865 58.6621 60.4176 58.8169C59.9486 58.9672 59.4615 59.0423 58.9561 59.0423C58.2459 59.0423 57.6016 58.9057 57.0234 58.6326C56.4452 58.3548 56.0195 57.9496 55.7464 57.4169C55.7099 57.3532 55.6917 57.2758 55.6917 57.1848C55.6917 57.0482 55.7395 56.9321 55.8352 56.8365C55.9308 56.7409 56.0469 56.693 56.1834 56.693C56.2699 56.693 56.3564 56.7204 56.443 56.775C56.5295 56.8251 56.5909 56.8888 56.6273 56.9662C56.8231 57.3395 57.1236 57.615 57.5288 57.7926C57.934 57.9656 58.4098 58.0521 58.9561 58.0521C59.2703 58.0521 59.5867 58.0156 59.9054 57.9428C60.2286 57.8654 60.4972 57.7379 60.7112 57.5604C60.9298 57.3828 61.039 57.1438 61.039 56.8433C61.039 56.6065 60.9411 56.4267 60.7454 56.3038C60.5496 56.1763 60.3037 56.0852 60.0078 56.0306C59.7119 55.976 59.4114 55.9396 59.1064 55.9213C58.8059 55.9031 58.5464 55.8804 58.3278 55.8531C57.9408 55.8075 57.5516 55.7301 57.16 55.6209C56.773 55.507 56.4498 55.3249 56.1903 55.0745C55.9308 54.8241 55.801 54.4713 55.801 54.016C55.801 53.6335 55.8943 53.308 56.081 53.0394C56.2722 52.7662 56.5204 52.5431 56.8254 52.3701C57.135 52.1926 57.4742 52.0628 57.8429 51.9809C58.2117 51.8989 58.5737 51.8579 58.9288 51.8579Z" fill="#FBB715"/>
<path d="M65.6679 50.854C65.4721 50.854 65.2991 50.7835 65.1489 50.6423C65.0032 50.5012 64.9303 50.3305 64.9303 50.1301C64.9303 49.9298 65.0032 49.7591 65.1489 49.618C65.2991 49.4768 65.4721 49.4062 65.6679 49.4062C65.8682 49.4062 66.0412 49.4768 66.1869 49.618C66.3326 49.7591 66.4054 49.9298 66.4054 50.1301C66.4054 50.3305 66.3326 50.5012 66.1869 50.6423C66.0412 50.7835 65.8682 50.854 65.6679 50.854ZM65.1694 52.336C65.1694 52.2176 65.224 52.1152 65.3333 52.0287C65.4425 51.9376 65.545 51.8921 65.6406 51.8921C65.7999 51.8921 65.932 51.9399 66.0367 52.0355C66.1414 52.1311 66.1937 52.2563 66.1937 52.4111L66.2074 58.5369C66.2074 58.6781 66.1573 58.7987 66.0572 58.8989C65.957 58.9991 65.8363 59.0491 65.6952 59.0491C65.5541 59.0491 65.4334 58.9968 65.3333 58.8921C65.2331 58.7919 65.183 58.6713 65.183 58.5301L65.1694 52.336Z" fill="#FBB715"/>
<path d="M69.9553 51.8784C70.0964 51.8784 70.2102 51.9285 70.2967 52.0287C70.3878 52.1288 70.4333 52.2495 70.4333 52.3906L70.4675 53.2033C70.6314 53.003 70.8203 52.8027 71.0343 52.6023C71.2528 52.402 71.501 52.2358 71.7787 52.1038C72.061 51.9672 72.3751 51.8989 72.7211 51.8989C73.3267 51.8989 73.8115 52.0537 74.1758 52.3633C74.5445 52.6729 74.8109 53.0804 74.9748 53.5857C75.1432 54.0866 75.2275 54.6283 75.2275 55.2111L75.2206 58.5233C75.2206 58.6644 75.1705 58.7851 75.0704 58.8852C74.9702 58.9854 74.8496 59.0355 74.7084 59.0355C74.5673 59.0355 74.4466 58.9854 74.3465 58.8852C74.2463 58.7805 74.1962 58.6576 74.1962 58.5165L74.2031 55.2111C74.2031 54.8059 74.1621 54.4303 74.0801 54.0843C73.9982 53.7383 73.8502 53.4583 73.6362 53.2443C73.4223 53.0303 73.1172 52.9233 72.7211 52.9233C71.979 52.9233 71.419 53.1214 71.0411 53.5175C70.6632 53.9135 70.4743 54.4713 70.4743 55.1906V58.5369C70.4743 58.6781 70.4242 58.7987 70.3241 58.8989C70.2239 58.9991 70.1033 59.0491 69.9621 59.0491C69.821 59.0491 69.7003 58.9968 69.6002 58.8921C69.5 58.7919 69.4499 58.6713 69.4499 58.5301L69.4431 52.3975C69.4431 52.2518 69.4909 52.1288 69.5865 52.0287C69.6867 51.9285 69.8096 51.8784 69.9553 51.8784Z" fill="#FBB715"/>
<path d="M81.5431 51.8853C82.0212 51.8853 82.4674 51.9809 82.8817 52.1721C83.296 52.3633 83.6579 52.6274 83.9675 52.9643C84.2817 53.2966 84.5252 53.6768 84.6982 54.1048C84.8758 54.5327 84.9646 54.9857 84.9646 55.4638C84.9646 56.0966 84.8143 56.6839 84.5139 57.2257C84.2134 57.7675 83.8059 58.2069 83.2914 58.5438C82.7815 58.8761 82.2079 59.0446 81.5705 59.0491C80.924 59.0491 80.3412 58.883 79.8222 58.5506C79.3032 58.2182 78.8911 57.7812 78.5861 57.2394C78.2856 56.693 78.1353 56.1012 78.1353 55.4638C78.1353 54.9903 78.2219 54.5396 78.3949 54.1116C78.5724 53.6791 78.816 53.2966 79.1256 52.9643C79.4352 52.6274 79.7949 52.3633 80.2046 52.1721C80.6189 51.9809 81.0651 51.8853 81.5431 51.8853ZM81.5431 52.9096C81.097 52.9096 80.694 53.028 80.3344 53.2648C79.9747 53.5015 79.6879 53.8134 79.4739 54.2004C79.2645 54.5828 79.1597 54.9994 79.1597 55.4501C79.1597 55.9054 79.2645 56.3288 79.4739 56.7204C79.6833 57.1119 79.9701 57.4283 80.3344 57.6696C80.6986 57.9064 81.1083 58.0247 81.5636 58.0247C82.0144 58.0202 82.4173 57.8995 82.7724 57.6628C83.1321 57.4215 83.4166 57.1074 83.6261 56.7204C83.8355 56.3334 83.9402 55.9145 83.9402 55.4638C83.9402 55.0131 83.8332 54.5942 83.6192 54.2072C83.4098 53.8157 83.123 53.5015 82.7587 53.2648C82.3991 53.028 81.9939 52.9096 81.5431 52.9096Z" fill="#FBB715"/>
<path d="M1.0626 7.54348C1.64951 7.54348 2.12551 7.06779 2.12551 6.48088C2.12551 5.89397 1.64982 5.41797 1.0626 5.41797C0.476008 5.41797 0 5.89366 0 6.48088C0 7.06779 0.476008 7.54348 1.0626 7.54348Z" fill="#FBB715"/>
<path d="M19.9161 7.54348C20.503 7.54348 20.9787 7.06779 20.9787 6.48088C20.9787 5.89397 20.5027 5.41797 19.9161 5.41797C19.3292 5.41797 18.8535 5.89366 18.8535 6.48088C18.8535 7.06779 19.3292 7.54348 19.9161 7.54348Z" fill="#FBB715"/>
<path d="M10.4083 3.07442C10.9952 3.07442 11.4712 2.59873 11.4712 2.01182C11.4712 1.42523 10.9955 0.949219 10.4083 0.949219C9.82171 0.949219 9.3457 1.42492 9.3457 2.01182C9.3457 2.59904 9.82171 3.07442 10.4083 3.07442Z" fill="#FBB715"/>
<path d="M3.89708 20.0599H10.4904H17.0838L19.2071 8.9386L14.2502 11.6641L10.4904 3.89258L6.73037 11.6641L1.77344 8.9386L3.89708 20.0599ZM4.08773 17.9272H16.8934V18.4802H4.08773V17.9272Z" fill="#FBB715"/>
</svg>
