<svg width="144" height="26" viewBox="0 0 144 26" fill="none" xmlns="http://www.w3.org/2000/svg">
<path d="M4.21781 26C2.81187 26 1.75742 25.5888 1.05445 24.7664C0.351484 23.944 0 22.9477 0 21.7774C0 21.0499 0.127812 20.1326 0.383437 19.0255C0.639062 17.9185 0.990547 16.764 1.43789 15.562C1.91719 14.3285 2.46039 13.174 3.0675 12.0985C3.67461 11.0231 4.32965 10.1533 5.03262 9.48905C5.73558 8.79319 6.43855 8.44526 7.14152 8.44526C7.52496 8.44526 7.86047 8.57178 8.14804 8.82482C8.43562 9.04623 8.57941 9.37835 8.57941 9.82117C8.57941 10.2324 8.32379 10.8491 7.81254 11.6715C7.33324 12.4939 6.75808 13.4428 6.08707 14.5182C5.44801 15.5937 4.87285 16.7165 4.3616 17.8869C3.8823 19.0255 3.64266 20.1168 3.64266 21.1606C3.64266 22.1728 3.8184 22.8528 4.16988 23.2007C4.55332 23.517 5.09652 23.6752 5.79949 23.6752C6.8859 23.6752 8.06816 23.1375 9.34629 22.062C10.6244 20.9866 11.9505 19.1046 13.3244 16.4161L14.0434 17.1752C12.925 19.9586 11.5031 22.1253 9.77765 23.6752C8.05219 25.2251 6.1989 26 4.21781 26ZM9.87351 4.60219C9.2664 4.60219 8.70722 4.45985 8.19597 4.17518C7.71668 3.85888 7.47703 3.38443 7.47703 2.75182C7.47703 1.9927 7.89242 1.34428 8.7232 0.806567C9.55398 0.268856 10.4167 0 11.3114 0C11.8866 0 12.3659 0.12652 12.7493 0.37956C13.1647 0.632602 13.3724 1.09124 13.3724 1.75547C13.3724 2.41971 13.0049 3.06813 12.27 3.70073C11.5351 4.3017 10.7362 4.60219 9.87351 4.60219Z" fill="#F90016"/>
<path d="M43.0263 0.959447V24.5766H38.4932L26.5981 10.2376V24.5766H21.1448V0.959447H25.712L37.573 15.2985V0.959447H43.0263Z" fill="white"/>
<path d="M66.2581 15.5684C66.2581 15.6358 66.224 16.1082 66.1558 16.9854H52.2839C52.5338 18.11 53.1246 18.9985 54.0562 19.6508C54.9878 20.3031 56.1467 20.6292 57.5327 20.6292C58.4871 20.6292 59.3278 20.4942 60.0549 20.2243C60.8047 19.9319 61.4978 19.4821 62.134 18.8748L64.9629 21.9113C63.236 23.8681 60.7138 24.8466 57.3964 24.8466C55.3287 24.8466 53.4995 24.4529 51.909 23.6657C50.3184 22.856 49.0914 21.7426 48.228 20.3255C47.3645 18.9085 46.9328 17.3003 46.9328 15.5009C46.9328 13.724 47.3532 12.127 48.1939 10.71C49.0573 9.27045 50.2275 8.15707 51.7045 7.36983C53.2042 6.5601 54.8742 6.15523 56.7147 6.15523C58.5098 6.15523 60.1344 6.53761 61.5886 7.30235C63.0429 8.0671 64.179 9.16924 64.997 10.6088C65.8377 12.0258 66.2581 13.679 66.2581 15.5684ZM56.7488 10.1364C55.5445 10.1364 54.5334 10.4738 53.7154 11.1486C52.8974 11.8234 52.3975 12.7456 52.2157 13.9152H61.2478C61.066 12.768 60.5662 11.8571 59.7481 11.1823C58.9301 10.4851 57.9304 10.1364 56.7488 10.1364Z" fill="white"/>
<path d="M81.6248 23.6994C81.1022 24.0818 80.4547 24.3742 79.6821 24.5766C78.9323 24.7566 78.137 24.8466 77.2963 24.8466C75.1149 24.8466 73.4221 24.2955 72.2178 23.1934C71.0363 22.0912 70.4455 20.4717 70.4455 18.335V10.8787H67.6166V6.83001H70.4455V2.41022H75.7625V6.83001H80.3297V10.8787H75.7625V18.2675C75.7625 19.0322 75.9557 19.6283 76.3419 20.0556C76.7509 20.4605 77.319 20.6629 78.0461 20.6629C78.8868 20.6629 79.6026 20.438 80.1933 19.9882L81.6248 23.6994Z" fill="white"/>
<path d="M102.503 12.2957C103.867 12.7231 104.935 13.4428 105.707 14.455C106.48 15.4447 106.866 16.6705 106.866 18.1325C106.866 20.2018 106.048 21.7988 104.412 22.9234C102.799 24.0256 100.436 24.5766 97.3226 24.5766H84.9844V0.959447H96.6409C99.5494 0.959447 101.776 1.51052 103.321 2.61265C104.889 3.71479 105.673 5.21054 105.673 7.09992C105.673 8.24704 105.389 9.27045 104.821 10.1702C104.276 11.0699 103.503 11.7784 102.503 12.2957ZM90.4719 5.07559V10.6425H95.9593C97.3226 10.6425 98.3565 10.4063 99.0609 9.93398C99.7653 9.46164 100.117 8.76437 100.117 7.84217C100.117 6.91998 99.7653 6.23396 99.0609 5.7841C98.3565 5.31176 97.3226 5.07559 95.9593 5.07559H90.4719ZM96.9136 20.4605C98.3678 20.4605 99.4585 20.2243 100.186 19.752C100.935 19.2796 101.31 18.5486 101.31 17.559C101.31 15.6021 99.8448 14.6237 96.9136 14.6237H90.4719V20.4605H96.9136Z" fill="#F90016"/>
<path d="M128.633 15.5684C128.633 15.6358 128.599 16.1082 128.531 16.9854H114.659C114.909 18.11 115.5 18.9985 116.431 19.6508C117.363 20.3031 118.522 20.6292 119.908 20.6292C120.862 20.6292 121.703 20.4942 122.43 20.2243C123.18 19.9319 123.873 19.4821 124.509 18.8748L127.338 21.9113C125.611 23.8681 123.089 24.8466 119.772 24.8466C117.704 24.8466 115.875 24.4529 114.284 23.6657C112.694 22.856 111.467 21.7426 110.603 20.3255C109.74 18.9085 109.308 17.3003 109.308 15.5009C109.308 13.724 109.728 12.127 110.569 10.71C111.432 9.27045 112.603 8.15707 114.08 7.36983C115.579 6.5601 117.249 6.15523 119.09 6.15523C120.885 6.15523 122.51 6.53761 123.964 7.30235C125.418 8.0671 126.554 9.16924 127.372 10.6088C128.213 12.0258 128.633 13.679 128.633 15.5684ZM119.124 10.1364C117.92 10.1364 116.909 10.4738 116.091 11.1486C115.273 11.8234 114.773 12.7456 114.591 13.9152H123.623C123.441 12.768 122.941 11.8571 122.123 11.1823C121.305 10.4851 120.306 10.1364 119.124 10.1364Z" fill="#F90016"/>
<path d="M144 23.6994C143.477 24.0818 142.83 24.3742 142.057 24.5766C141.307 24.7566 140.512 24.8466 139.671 24.8466C137.49 24.8466 135.797 24.2955 134.593 23.1934C133.411 22.0912 132.821 20.4717 132.821 18.335V10.8787H129.992V6.83001H132.821V2.41022H138.138V6.83001H142.705V10.8787H138.138V18.2675C138.138 19.0322 138.331 19.6283 138.717 20.0556C139.126 20.4605 139.694 20.6629 140.421 20.6629C141.262 20.6629 141.978 20.438 142.568 19.9882L144 23.6994Z" fill="#F90016"/>
</svg>
