<svg width="166" height="48" viewBox="0 0 166 48" fill="none" xmlns="http://www.w3.org/2000/svg">
<path d="M58.0665 31.159L47.2103 18.775L46.3186 17.7023L46.3652 20.6277V30.7039H42.3672V7.65869V0.231453L53.4185 20.1402L54.5561 21.6191L54.3936 18.515V2.26294H58.3916V31.159H58.0665Z" fill="#00EAFF"/>
<path d="M63.1496 30.7039V8.04874H74.981V11.5917H67.2126V16.8898H73.3883V20.3352H67.2126V27.031H75.6311V30.7039H63.1496Z" fill="#00EAFF"/>
<path d="M79.1245 30.7039V8.04874H85.2027C86.7412 8.04874 88.1389 8.28168 89.3957 8.74757C90.6525 9.21346 91.6547 10.0261 92.4023 11.1854C93.1499 12.3338 93.5237 13.9319 93.5237 15.9797C93.5237 17.464 93.242 18.8671 92.6786 20.1889C92.1152 21.4999 91.2267 22.5671 90.0132 23.3905C88.8106 24.214 87.2504 24.6257 85.3327 24.6257H83.3175V30.7039H79.1245ZM84.9426 11.3316H83.3175V21.2128H85.0402C86.4703 21.2128 87.5429 20.7848 88.258 19.9289C88.9731 19.073 89.3307 17.8324 89.3307 16.2072C89.3307 14.5495 89.0056 13.3252 88.3555 12.5343C87.7055 11.7325 86.5678 11.3316 84.9426 11.3316Z" fill="#00EAFF"/>
<path d="M100.09 30.7039V11.7217H94.8566V8.04874H109.516V11.7217H104.283V30.7039H100.09Z" fill="#00EAFF"/>
<path d="M120.431 31.1265C118.947 31.1265 117.592 30.8718 116.368 30.3626C115.155 29.8426 114.185 28.965 113.459 27.7298C112.733 26.4838 112.37 24.7774 112.37 22.6105V8.04874H116.596V23.0655C116.596 24.344 116.801 25.3083 117.213 25.9584C117.636 26.5976 118.139 27.031 118.725 27.2585C119.31 27.4752 119.857 27.5835 120.366 27.5835C120.897 27.5835 121.444 27.4752 122.007 27.2585C122.582 27.0418 123.064 26.6138 123.454 25.9746C123.844 25.3245 124.039 24.3548 124.039 23.0655V8.04874H128.264V22.6105C128.264 24.7774 127.912 26.4838 127.208 27.7298C126.504 28.965 125.556 29.8426 124.364 30.3626C123.183 30.8718 121.872 31.1265 120.431 31.1265Z" fill="#00EAFF"/>
<path d="M148.436 31.159L137.58 18.775L136.572 17.4748L136.735 20.6277V30.7039H132.737V7.65869H133.094L143.788 20.1402L144.926 21.6191L144.763 18.515V8.04874H148.761V31.159H148.436Z" fill="#00EAFF"/>
<path d="M153.519 30.7039V8.04874H165.351V11.5917H157.582V16.8898H163.758V20.3352H157.582V27.031H166.001V30.7039H153.519Z" fill="#00EAFF"/>
<path d="M80.3982 36.1665C81.8689 36.1665 82.9693 36.4865 83.6993 37.1267C84.4347 37.7668 84.8024 38.6767 84.8024 39.8565C84.8024 40.3855 84.7257 40.8934 84.5723 41.3801C84.4241 41.8668 84.1781 42.3006 83.8343 42.6815C83.4957 43.0624 83.0433 43.364 82.4773 43.5862C81.9165 43.8084 81.2235 43.9195 80.3982 43.9195H79.5173V47.7682H76.3828V36.1665H80.3982ZM80.3268 38.6979H79.5173V41.3642H80.1363C80.4061 41.3642 80.6574 41.3193 80.8902 41.2293C81.123 41.1341 81.3081 40.9833 81.4457 40.777C81.5885 40.5654 81.6599 40.285 81.6599 39.9358C81.6599 39.5708 81.5515 39.2746 81.3346 39.0471C81.1177 38.8143 80.7817 38.6979 80.3268 38.6979Z" fill="white"/>
<path d="M91.5269 47.7682V36.1665H94.6615V45.2368H99.1291V47.7682H91.5269Z" fill="white"/>
<path d="M112.98 47.7682L112.408 45.5939H108.639L108.052 47.7682H104.608L108.393 36.1189H112.575L116.408 47.7682H112.98ZM111.758 43.0228L111.258 41.1182C111.205 40.9119 111.128 40.6183 111.028 40.2374C110.927 39.8512 110.827 39.4544 110.726 39.0471C110.631 38.6344 110.557 38.2958 110.504 38.0313C110.456 38.2958 110.388 38.6238 110.298 39.0153C110.213 39.4015 110.123 39.7851 110.028 40.166C109.938 40.5469 109.858 40.8643 109.79 41.1182L109.29 43.0228H111.758Z" fill="white"/>
<path d="M126.688 40.4675L128.687 36.1665H132.084L128.267 43.237V47.7682H125.108V43.3322L121.291 36.1665H124.704L126.688 40.4675Z" fill="white"/>
<path fill-rule="evenodd" clip-rule="evenodd" d="M3.9499 8.17609L0 5.91962V42.23L11.8505 35.4614V26.3289L15.8899 24.0214L7.90193 19.4589V25.4058L7.90361 33.3368L3.95001 35.6699L3.9499 8.17609ZM7.90181 10.4334V14.9462L23.7909 24.0215L15.8007 28.5854V33.0981L31.6912 24.0215L7.90181 10.4334Z" fill="#00EAFF"/>
</svg>
