<svg width="205" height="72" viewBox="0 0 205 72" fill="none" xmlns="http://www.w3.org/2000/svg">
<path d="M50.9473 63.5997V45.5908H55.4308L55.6176 46.9359C56.1905 46.4377 56.9004 46.0142 57.7473 45.6655C58.6191 45.3168 59.4909 45.1424 60.3627 45.1424C61.2345 45.1424 62.1187 45.2794 63.0154 45.5534C63.9122 45.8025 64.7341 46.2509 65.4814 46.8985C66.3532 46.4003 67.2997 45.9893 68.321 45.6655C69.3422 45.3168 70.4506 45.1424 71.6462 45.1424C73.066 45.1424 74.2492 45.3168 75.1957 45.6655C76.1422 46.0142 76.9019 46.5124 77.4748 47.16C78.0726 47.8077 78.4961 48.6047 78.7452 49.5513C78.9943 50.4978 79.1188 51.5813 79.1188 52.8018V63.5997H74.2616V53.026C74.2616 51.8304 74.025 50.8714 73.5518 50.1491C73.0785 49.4018 72.2067 49.0282 70.9364 49.0282C70.5627 49.0282 70.1891 49.0904 69.8155 49.215C69.4418 49.3146 69.0807 49.4392 68.732 49.5886C68.4081 49.7381 68.1092 49.9 67.8352 50.0743C67.5613 50.2238 67.3495 50.3608 67.2001 50.4853C67.2499 50.7842 67.2997 51.1205 67.3495 51.4941C67.3993 51.8677 67.4243 52.2787 67.4243 52.7271V63.5997H62.5671V53.026C62.5671 52.478 62.5173 51.9674 62.4176 51.4941C62.318 50.9959 62.1561 50.5725 61.9319 50.2238C61.7077 49.8502 61.3964 49.5637 60.9979 49.3644C60.6242 49.1403 60.151 49.0282 59.5781 49.0282C58.8557 49.0282 58.1583 49.215 57.4858 49.5886C56.8132 49.9622 56.2652 50.3608 55.8418 50.7842V63.5997H50.9473Z" fill="#111111"/>
<path d="M81.969 66.626C82.4422 66.8502 82.903 67.0121 83.3514 67.1118C83.8247 67.2114 84.2232 67.2612 84.547 67.2612C84.8459 67.2612 85.1448 67.174 85.4437 66.9997C85.7426 66.8253 86.0166 66.4766 86.2657 65.9535L87.6481 62.8524L80.1756 45.5908H85.369L90.0767 57.8832L94.5602 45.5908H99.4921L90.1514 67.859C89.8774 68.4817 89.5536 69.0048 89.18 69.4283C88.8064 69.8517 88.3954 70.188 87.947 70.4371C87.4987 70.6861 87.013 70.8605 86.4899 70.9601C85.9917 71.0598 85.4935 71.1096 84.9954 71.1096C84.3477 71.1096 83.6254 71.0224 82.8283 70.848C82.0562 70.6986 81.2591 70.4495 80.4371 70.1008L81.969 66.626Z" fill="#111111"/>
<path d="M118.775 59.201C118.003 60.8201 116.957 62.0157 115.637 62.7878C114.342 63.56 112.822 63.9461 111.078 63.9461C109.933 63.9461 108.824 63.7468 107.753 63.3483C106.707 62.9497 105.773 62.3644 104.951 61.5922C104.154 60.7952 103.506 59.8237 103.008 58.6779C102.535 57.5072 102.298 56.1497 102.298 54.6054C102.298 53.0112 102.535 51.6164 103.008 50.4208C103.481 49.2251 104.104 48.2288 104.876 47.4317C105.673 46.6347 106.583 46.0493 107.604 45.6757C108.625 45.2771 109.684 45.0779 110.78 45.0779C111.876 45.0779 112.847 45.2398 113.694 45.5636C114.566 45.8625 115.313 46.261 115.936 46.7592C116.583 47.2574 117.106 47.8178 117.505 48.4405C117.928 49.0632 118.252 49.686 118.476 50.3087L114.628 52.2142C114.205 51.0186 113.669 50.1841 113.021 49.7109C112.399 49.2127 111.689 48.9636 110.892 48.9636C110.394 48.9636 109.92 49.0757 109.472 49.2999C109.024 49.5241 108.613 49.8603 108.239 50.3087C107.89 50.757 107.604 51.3299 107.38 52.0274C107.18 52.7248 107.081 53.5592 107.081 54.5307C107.081 56.2494 107.454 57.582 108.202 58.5285C108.974 59.475 109.97 59.9483 111.191 59.9483C112.137 59.9483 112.909 59.7116 113.507 59.2384C114.105 58.7651 114.64 58.0926 115.114 57.2208L118.775 59.201Z" fill="#D30100"/>
<path d="M131.296 63.5351L131.072 62.19C130.549 62.738 129.876 63.1739 129.054 63.4977C128.257 63.7966 127.373 63.9461 126.402 63.9461C125.605 63.9461 124.82 63.8091 124.048 63.5351C123.301 63.286 122.641 62.9248 122.068 62.4516C121.495 61.9534 121.034 61.3556 120.685 60.6582C120.336 59.9358 120.162 59.1263 120.162 58.2296C120.162 57.3329 120.349 56.5483 120.723 55.8757C121.096 55.1783 121.594 54.5929 122.217 54.1197C122.84 53.6464 123.55 53.2603 124.347 52.9614C125.169 52.6625 126.028 52.4383 126.925 52.2889C127.548 52.1644 128.232 52.0772 128.98 52.0274C129.727 51.9526 130.35 51.8904 130.848 51.8405V51.2427C130.848 50.5204 130.599 49.935 130.101 49.4867C129.602 49.0383 129.017 48.8142 128.345 48.8142C127.921 48.8142 127.386 48.9262 126.738 49.1504C126.09 49.3746 125.468 49.798 124.87 50.4208L121.545 48.1043C122.018 47.5065 122.553 47.0083 123.151 46.6098C123.774 46.2112 124.397 45.8999 125.019 45.6757C125.667 45.4515 126.302 45.3021 126.925 45.2273C127.548 45.1277 128.12 45.0779 128.643 45.0779C129.69 45.0779 130.649 45.2149 131.52 45.4889C132.392 45.738 133.139 46.1489 133.762 46.7218C134.41 47.2698 134.908 47.9797 135.257 48.8515C135.605 49.6984 135.78 50.7321 135.78 51.9526V63.5351H131.296ZM130.885 55.1285C130.387 55.1534 129.852 55.2032 129.279 55.2779C128.731 55.3277 128.208 55.4025 127.709 55.5021C126.663 55.7014 125.928 56.0501 125.505 56.5483C125.106 57.0215 124.907 57.5446 124.907 58.1175C124.907 58.7153 125.131 59.201 125.58 59.5746C126.028 59.9234 126.688 60.0977 127.56 60.0977C128.183 60.0977 128.78 59.9732 129.353 59.7241C129.951 59.475 130.462 59.1637 130.885 58.79V55.1285Z" fill="#D30100"/>
<path d="M142.267 57.4823C142.69 58.2794 143.276 58.9519 144.023 59.4999C144.795 60.023 145.754 60.2845 146.9 60.2845C147.896 60.2845 148.668 60.1351 149.216 59.8362C149.789 59.5124 150.076 59.0765 150.076 58.5285C150.076 58.0054 149.777 57.5446 149.179 57.1461C148.581 56.7475 147.473 56.3988 145.854 56.0999C144.907 55.9255 144.035 55.7014 143.238 55.4274C142.466 55.1285 141.806 54.7548 141.258 54.3065C140.71 53.8581 140.287 53.3226 139.988 52.6999C139.689 52.0772 139.539 51.3299 139.539 50.4581C139.539 48.864 140.2 47.5687 141.52 46.5724C142.865 45.576 144.671 45.0779 146.937 45.0779C148.98 45.0779 150.599 45.4141 151.794 46.0867C152.99 46.7343 153.912 47.5314 154.559 48.4779L151.122 50.8317C150.674 50.2339 150.101 49.7358 149.403 49.3372C148.706 48.9387 147.884 48.7394 146.937 48.7394C145.891 48.7394 145.169 48.9013 144.77 49.2251C144.372 49.5241 144.172 49.9226 144.172 50.4208C144.172 50.9937 144.422 51.4046 144.92 51.6537C145.418 51.9028 146.34 52.1644 147.685 52.4383C148.781 52.6625 149.752 52.9241 150.599 53.223C151.471 53.5219 152.205 53.908 152.803 54.3812C153.401 54.8296 153.849 55.3776 154.148 56.0252C154.472 56.6728 154.634 57.4325 154.634 58.3043C154.634 59.2757 154.435 60.1226 154.036 60.845C153.638 61.5424 153.09 62.1278 152.392 62.601C151.695 63.0494 150.873 63.3856 149.926 63.6098C148.98 63.834 147.971 63.9461 146.9 63.9461C144.758 63.9461 143.014 63.5476 141.669 62.7505C140.349 61.9285 139.34 60.9072 138.643 59.6867L142.267 57.4823Z" fill="#D30100"/>
<path d="M160.026 43.4713C159.054 43.4713 158.32 43.1973 157.821 42.6493C157.348 42.1013 157.111 41.4911 157.111 40.8185C157.111 40.1709 157.348 39.5731 157.821 39.0251C158.32 38.4771 159.054 38.2031 160.026 38.2031C160.997 38.2031 161.72 38.4771 162.193 39.0251C162.691 39.5731 162.94 40.1709 162.94 40.8185C162.94 41.4911 162.691 42.1013 162.193 42.6493C161.72 43.1973 160.997 43.4713 160.026 43.4713ZM157.597 63.5351V45.5262H162.454V63.5351H157.597Z" fill="#D30100"/>
<path d="M166.778 63.5351V45.5262H171.224L171.448 46.946C172.196 46.3482 173.055 45.8874 174.026 45.5636C174.998 45.2398 175.969 45.0779 176.941 45.0779C177.937 45.0779 178.846 45.2273 179.668 45.5262C180.515 45.8002 181.237 46.2486 181.835 46.8713C182.433 47.494 182.894 48.3035 183.218 49.2999C183.566 50.2962 183.741 51.4918 183.741 52.8867V63.5351H178.846V53.2603C178.846 51.8904 178.547 50.8317 177.949 50.0845C177.352 49.3372 176.517 48.9636 175.446 48.9636C174.699 48.9636 174.001 49.1504 173.354 49.5241C172.706 49.8977 172.146 50.3087 171.673 50.757V63.5351H166.778Z" fill="#D30100"/>
<path d="M191.924 63.1241C190.803 62.5761 189.856 61.8538 189.084 60.9571C188.337 60.0604 187.776 59.0516 187.403 57.9307C187.029 56.7849 186.842 55.6266 186.842 54.4559C186.842 53.2852 187.029 52.1394 187.403 51.0186C187.776 49.8977 188.337 48.9013 189.084 48.0295C189.856 47.1328 190.803 46.4229 191.924 45.8999C193.069 45.3519 194.402 45.0779 195.921 45.0779C197.441 45.0779 198.761 45.3519 199.882 45.8999C201.028 46.4229 201.974 47.1328 202.721 48.0295C203.494 48.9013 204.066 49.8977 204.44 51.0186C204.814 52.1394 205.001 53.2852 205.001 54.4559C205.001 55.6266 204.814 56.7849 204.44 57.9307C204.066 59.0516 203.494 60.0604 202.721 60.9571C201.974 61.8538 201.028 62.5761 199.882 63.1241C198.761 63.6721 197.441 63.9461 195.921 63.9461C194.402 63.9461 193.069 63.6721 191.924 63.1241ZM192.708 58.3417C193.057 58.8398 193.493 59.2384 194.016 59.5373C194.564 59.8113 195.199 59.9483 195.921 59.9483C196.619 59.9483 197.229 59.8113 197.752 59.5373C198.3 59.2384 198.748 58.8398 199.097 58.3417C199.471 57.8435 199.745 57.2706 199.919 56.623C200.118 55.9505 200.218 55.2281 200.218 54.4559C200.218 53.7087 200.118 52.9988 199.919 52.3263C199.745 51.6537 199.471 51.0808 199.097 50.6076C198.748 50.1094 198.3 49.7233 197.752 49.4493C197.229 49.1504 196.619 49.001 195.921 49.001C195.224 49.001 194.601 49.1504 194.053 49.4493C193.53 49.7233 193.082 50.1094 192.708 50.6076C192.359 51.0808 192.085 51.6537 191.886 52.3263C191.712 52.9988 191.625 53.7087 191.625 54.4559C191.625 55.2281 191.712 55.9505 191.886 56.623C192.085 57.2706 192.359 57.8435 192.708 58.3417Z" fill="#D30100"/>
<path d="M37.3011 44.803C37.2452 46.1864 38.0524 47.2237 39.4221 47.4949C39.3927 48.6768 38.9263 49.6753 38.1323 50.5305C36.6866 52.0876 34.8059 52.6011 32.7702 52.7085C31.0086 52.8017 29.2347 52.7781 27.4869 52.9826C25.6341 53.1989 23.9245 53.9022 22.3375 55.1831C24.8225 55.2665 27.1823 55.2169 29.5103 54.7378C31.6206 60.7385 29.3927 67.9545 25.3693 71.3992C24.9657 70.2678 24.6268 69.107 24.1467 68.008C22.1212 63.3706 18.6565 60.0937 14.2579 57.7348C11.2522 56.1228 8.0277 55.189 4.6556 54.7515C3.9597 54.6613 3.25449 54.6397 2.38596 54.574C2.95141 53.6393 3.3869 52.7315 3.99403 51.9591C4.96113 50.7282 6.05035 49.5939 7.06796 48.4012C7.21116 48.2334 7.34012 47.9485 7.30383 47.7489C6.2205 41.7119 7.66919 36.3183 11.3856 31.4897C11.3968 31.475 11.3998 31.4539 11.4488 31.3239C11.2232 31.1273 10.9535 30.9046 10.697 30.6677C5.62612 25.9843 2.34672 20.2734 0.881851 13.5252C0.228127 10.5136 -0.0460058 7.47206 0.2914 4.39912C0.380656 3.58552 0.563558 2.77289 0.795525 1.98724C1.15206 0.779837 1.85532 0.413015 3.08627 0.684215C5.2848 1.16826 7.17534 2.28297 8.88738 3.67771C14.0314 7.86881 17.4378 13.1677 18.9247 19.6682C19.6064 22.6484 19.6231 25.6572 19.3887 28.6815C19.3602 29.0513 19.3445 29.4221 19.321 29.8296C20.3925 29.8296 21.4474 29.7923 22.4994 29.836C26.6223 30.0086 30.2401 31.5103 33.4273 34.0889C36.1785 36.3149 38.2859 39.0862 40.1215 42.0822C40.4182 42.5667 40.7252 43.0478 40.9812 43.5539C41.3279 44.239 41.2043 44.8996 40.682 45.4503C40.2377 45.9182 39.7826 45.9819 39.0185 45.6391C38.4492 45.3846 37.896 45.0948 37.3011 44.803ZM5.23576 8.68828C10.6995 14.3428 15.1358 20.6054 17.0616 28.5016C17.5893 26.0995 17.2132 21.8545 15.355 18.2431C13.1084 13.8769 9.80741 10.6279 5.23576 8.68828ZM20.601 35.8735C20.5828 35.9583 20.5642 36.0437 20.546 36.1285C21.1287 36.511 21.7 36.9132 22.2993 37.2673C22.5827 37.435 22.7573 37.5698 22.8108 37.9499C22.9172 38.7037 23.3042 39.3466 23.9285 39.8174C25.4291 40.9503 27.0803 40.5104 28.7325 40.3456C28.7046 40.1136 28.6938 39.9572 28.6668 39.8037C28.2387 37.3702 26.9592 35.9009 24.7455 35.6881C23.3821 35.5572 21.9834 35.7994 20.601 35.8735Z" fill="#D30100"/>
<path d="M22.1891 27.387C21.2569 22.8718 21.9695 18.7253 24.7388 15.0252C26.2773 12.9693 27.8765 10.9591 29.4194 8.90625C30.0996 8.00143 30.7082 7.04315 31.4296 5.99219C31.4977 6.63954 31.588 7.20106 31.611 7.76504C31.8106 12.576 30.6425 17.0923 28.5538 21.3814C27.5175 23.5089 26.3415 25.5681 25.2381 27.6411C24.2023 27.5553 23.1965 27.4714 22.1891 27.387Z" fill="#D30100"/>
<path d="M21.8691 70.2262C18.7761 67.5132 15.452 65.2176 11.7675 63.4575C8.07567 61.6939 4.2161 60.5209 0 60.1962C0.334954 59.3095 0.630668 58.4655 0.986219 57.647C1.04409 57.5141 1.36533 57.4356 1.5664 57.4332C5.21902 57.3905 8.67545 58.236 11.973 59.7754C15.2318 61.2967 18.0443 63.3898 20.0727 66.3936C20.7563 67.4053 21.2066 68.5754 21.7494 69.6799C21.8299 69.8422 21.8314 70.0428 21.8691 70.2262Z" fill="#D30100"/>
<path d="M29.6425 1.47461C29.8132 2.43877 29.567 3.31023 29.207 4.16307C28.3792 6.12277 27.0605 7.75731 25.7246 9.37666C23.9135 11.5713 22.2049 13.8365 20.8464 16.3641C20.2716 15.0606 19.7013 13.788 19.1579 12.5036C19.103 12.3741 19.1628 12.148 19.2467 12.0151C21.8081 7.96035 24.8355 4.34549 28.9682 1.78306C29.1178 1.69038 29.2752 1.60947 29.4321 1.52954C29.4787 1.50551 29.5366 1.50158 29.6425 1.47461Z" fill="#D30100"/>
</svg>
