<svg width="162" height="19" viewBox="0 0 162 19" fill="none" xmlns="http://www.w3.org/2000/svg">
<path d="M10.7496 9.1093C10.1331 8.45431 9.58731 7.99838 9.11212 7.74152C8.64977 7.47182 8.23237 7.33696 7.85992 7.33696C7.42326 7.33696 7.05724 7.47182 6.76185 7.74152C6.4793 7.99838 6.24813 8.30661 6.06832 8.66622C5.88852 9.01298 5.76009 9.36616 5.68303 9.72576C5.60597 10.0725 5.56745 10.3422 5.56745 10.5349C5.56745 10.5991 5.57387 10.6376 5.58671 10.6505C5.57387 10.6761 5.56745 10.7339 5.56745 10.8238C5.56745 11.0036 5.58671 11.2348 5.62524 11.5174C5.67661 11.7999 5.76651 12.076 5.89494 12.3457C6.03622 12.6026 6.22244 12.8274 6.45361 13.02C6.69763 13.2126 7.01228 13.309 7.39757 13.309C7.80855 13.309 8.30943 13.1613 8.90021 12.8659C9.49099 12.5576 10.2102 12.0118 11.0578 11.2284L14.8337 15.2162C14.6282 15.6014 14.275 15.9996 13.7741 16.4106C13.2733 16.8087 12.6825 17.1747 12.0018 17.5086C11.3211 17.8297 10.5698 18.093 9.74785 18.2985C8.92589 18.504 8.09752 18.6067 7.26272 18.6067C6.49214 18.6067 5.74083 18.504 5.00877 18.2985C4.28957 18.093 3.62173 17.7462 3.00526 17.2582C1.90077 16.4106 1.12376 15.473 0.674258 14.4456C0.224753 13.4181 0 12.365 0 11.2862C0 10.4 0.12843 9.52028 0.38529 8.64695C0.654994 7.77363 1.00175 6.9581 1.42557 6.20036C1.84939 5.42978 2.33101 4.74268 2.87041 4.13905C3.42266 3.52259 3.98133 3.02813 4.54643 2.65569C4.82897 2.47588 5.15005 2.31535 5.50965 2.17407C5.81788 2.05849 6.17749 1.94932 6.58847 1.84658C7.01228 1.74383 7.48106 1.69246 7.99478 1.69246C8.43144 1.69246 8.89379 1.74383 9.38182 1.84658C9.8827 1.94932 10.39 2.12912 10.9037 2.38598C11.4303 2.63 11.9568 2.96392 12.4834 3.38774C13.0228 3.79871 13.5622 4.32528 14.1016 4.96743L10.7496 9.1093Z" fill="url(#paint0_linear_9831_116518)"/>
<path d="M14.423 2.8098L20.0482 2.2704L19.3547 9.32121L22.2251 9.1093L22.437 2.40525L27.9466 2.13554L26.3862 17.0078L21.8976 17.5279L22.148 13.2897L20.1445 13.5787L19.9519 17.9902L15.1357 18.1058L14.423 2.8098Z" fill="url(#paint1_linear_9831_116518)"/>
<path d="M34.7014 2.13554L33.9116 17.7013L29.0376 18.2985V2.8098L34.7014 2.13554Z" fill="url(#paint2_linear_9831_116518)"/>
<path d="M45.7042 9.1093C45.0877 8.45431 44.5419 7.99838 44.0667 7.74152C43.6043 7.47182 43.1869 7.33696 42.8145 7.33696C42.3778 7.33696 42.0118 7.47182 41.7164 7.74152C41.4339 7.99838 41.2027 8.30661 41.0229 8.66622C40.8431 9.01298 40.7147 9.36616 40.6376 9.72576C40.5605 10.0725 40.522 10.3422 40.522 10.5349C40.522 10.5991 40.5284 10.6376 40.5413 10.6505C40.5284 10.6761 40.522 10.7339 40.522 10.8238C40.522 11.0036 40.5413 11.2348 40.5798 11.5174C40.6312 11.7999 40.7211 12.076 40.8495 12.3457C40.9908 12.6026 41.177 12.8274 41.4082 13.02C41.6522 13.2126 41.9669 13.309 42.3521 13.309C42.7631 13.309 43.264 13.1613 43.8548 12.8659C44.4456 12.5576 45.1648 12.0118 46.0124 11.2284L49.7882 15.2162C49.5828 15.6014 49.2296 15.9996 48.7287 16.4106C48.2278 16.8087 47.637 17.1747 46.9564 17.5086C46.2757 17.8297 45.5244 18.093 44.7024 18.2985C43.8805 18.504 43.0521 18.6067 42.2173 18.6067C41.4467 18.6067 40.6954 18.504 39.9633 18.2985C39.2441 18.093 38.5763 17.7462 37.9598 17.2582C36.8553 16.4106 36.0783 15.473 35.6288 14.4456C35.1793 13.4181 34.9546 12.365 34.9546 11.2862C34.9546 10.4 35.083 9.52028 35.3399 8.64695C35.6096 7.77363 35.9563 6.9581 36.3801 6.20036C36.804 5.42978 37.2856 4.74268 37.825 4.13905C38.3772 3.52259 38.9359 3.02813 39.501 2.65569C39.7835 2.47588 40.1046 2.31535 40.4642 2.17407C40.7724 2.05849 41.1321 1.94932 41.543 1.84658C41.9669 1.74383 42.4356 1.69246 42.9493 1.69246C43.386 1.69246 43.8484 1.74383 44.3364 1.84658C44.8373 1.94932 45.3446 2.12912 45.8583 2.38598C46.3848 2.63 46.9114 2.96392 47.438 3.38774C47.9774 3.79871 48.5168 4.32528 49.0562 4.96743L45.7042 9.1093Z" fill="url(#paint3_linear_9831_116518)"/>
<path d="M62.1692 5.75727L56.8136 10.766L61.5527 14.7345L58.8557 18.7801L55.0798 15.2547V17.7013L49.705 18.2985V2.8098L55.311 2.13554V5.60316L58.4126 1.32643L62.1692 5.75727Z" fill="url(#paint4_linear_9831_116518)"/>
<path d="M62.1055 2.69421L72.9322 1.8851L72.335 6.85535L67.4032 7.08653L67.384 8.03049L70.9672 7.78005L70.5241 11.2091L67.2491 11.4788L67.2299 12.5576L72.7588 12.0375V17.4508L62.2596 18.048L62.1055 2.69421Z" fill="url(#paint5_linear_9831_116518)"/>
<path d="M74.171 2.2704L81.5493 8.37725L81.7034 2.00069L87.4442 2.38598L86.5773 17.0655L79.199 13.3668L79.4687 17.9324L74.171 18.2985V2.2704Z" fill="url(#paint6_linear_9831_116518)"/>
<path d="M107.12 15.1969L104.153 18.5682L99.4139 15.1391V18.4333L94.7519 17.9324L94.4437 2.88686C95.6766 2.74559 96.7298 2.63 97.6031 2.5401C98.4893 2.43735 99.2213 2.35388 99.7992 2.28966C100.48 2.22545 101.045 2.17407 101.495 2.13554C101.841 2.09701 102.156 2.07775 102.438 2.07775C103.222 2.07775 103.903 2.18692 104.481 2.40525C105.071 2.62358 105.553 2.91897 105.925 3.29141C106.311 3.66386 106.593 4.10052 106.773 4.6014C106.966 5.08944 107.062 5.616 107.062 6.18109C107.062 6.73334 106.972 7.30486 106.792 7.89564C106.625 8.47357 106.375 9.04508 106.041 9.61018C105.707 10.1624 105.29 10.6954 104.789 11.2091C104.301 11.71 103.742 12.1595 103.113 12.5576L107.12 15.1969ZM98.9901 10.2844C99.4525 10.1817 99.8506 10.034 100.185 9.84135C100.518 9.64871 100.801 9.44322 101.032 9.22489C101.263 9.00656 101.437 8.80107 101.552 8.60842C101.681 8.40293 101.758 8.2424 101.783 8.12681V8.04975C101.783 8.02407 101.783 7.99838 101.783 7.97269C101.796 7.93416 101.803 7.89563 101.803 7.85711C101.803 7.7672 101.79 7.66446 101.764 7.54887C101.751 7.42044 101.706 7.30486 101.629 7.20211C101.565 7.09937 101.462 7.01589 101.321 6.95167C101.193 6.87462 101.013 6.83609 100.782 6.83609C100.589 6.83609 100.358 6.86177 100.088 6.91315C99.8313 6.96452 99.5231 7.06084 99.1635 7.20211L98.9901 10.2844Z" fill="url(#paint7_linear_9831_116518)"/>
<path d="M119.342 16.372C119.008 16.7059 118.617 17.0142 118.167 17.2967C117.73 17.5664 117.255 17.7976 116.741 17.9902C116.228 18.1957 115.688 18.3498 115.123 18.4526C114.558 18.5682 113.993 18.626 113.428 18.626C112.812 18.626 112.201 18.5553 111.598 18.4141C111.007 18.2856 110.442 18.0737 109.903 17.7783C109.376 17.4701 108.888 17.0848 108.438 16.6225C108.002 16.1473 107.629 15.5758 107.321 14.9079C106.782 13.675 106.512 12.4485 106.512 11.2284C106.512 10.4193 106.621 9.62302 106.84 8.8396C107.058 8.05617 107.366 7.31128 107.764 6.60491C108.175 5.89855 108.657 5.24997 109.209 4.6592C109.774 4.06842 110.397 3.56112 111.078 3.1373C111.758 2.70064 112.484 2.3603 113.255 2.11628C114.038 1.87226 114.847 1.75025 115.682 1.75025C116.722 1.75025 117.653 1.94932 118.475 2.34745C119.31 2.73274 120.016 3.25931 120.594 3.92714C121.172 4.59498 121.615 5.3784 121.924 6.27742C122.232 7.16358 122.386 8.10754 122.386 9.1093C122.386 10.3037 122.148 11.5302 121.673 12.7888C121.211 14.0474 120.434 15.2418 119.342 16.372ZM114.931 7.06726C114.52 7.06726 114.096 7.17001 113.659 7.37549C113.222 7.56814 112.818 7.85711 112.445 8.2424C112.086 8.61484 111.784 9.07719 111.54 9.62944C111.309 10.1688 111.193 10.7789 111.193 11.4596C111.193 12.41 111.399 13.0971 111.81 13.5209C112.221 13.9319 112.715 14.1373 113.293 14.1373C113.82 14.1373 114.346 13.9896 114.873 13.6943C115.399 13.3989 115.817 13.0072 116.125 12.5191C116.497 11.9412 116.754 11.421 116.896 10.9587C117.037 10.4835 117.107 10.0468 117.107 9.64871C117.107 9.48175 117.075 9.25699 117.011 8.97445C116.96 8.67906 116.851 8.39009 116.684 8.10754C116.53 7.825 116.311 7.58098 116.029 7.37549C115.746 7.17001 115.38 7.06726 114.931 7.06726Z" fill="url(#paint8_linear_9831_116518)"/>
<path d="M125.013 1.92363L128.442 7.29843L132.141 1.92363L136.861 5.17934L130.927 12.7696V18.3177L125.745 17.605V11.9412L120.89 5.17934L125.013 1.92363Z" fill="url(#paint9_linear_9831_116518)"/>
<path d="M142.758 1.13379L152.486 15.9289L146.437 18.2214L144.8 15.5436L140.773 15.6592L139.984 18.5296L134.185 16.661L142.758 1.13379ZM141.756 12.6154L144.068 12.2109L143.124 9.57165L141.756 12.6154Z" fill="url(#paint10_linear_9831_116518)"/>
<path d="M151.751 2.88686L157.569 2.07775L157.049 12.9237L161.769 11.9412L162 17.3738L151.751 18.3755V2.88686Z" fill="url(#paint11_linear_9831_116518)"/>
<path d="M10.7496 7.97551C10.1331 7.32052 9.58731 6.86459 9.11212 6.60773C8.64977 6.33803 8.23237 6.20318 7.85992 6.20318C7.42326 6.20318 7.05724 6.33803 6.76185 6.60773C6.4793 6.86459 6.24813 7.17282 6.06832 7.53243C5.88852 7.87919 5.76009 8.23237 5.68303 8.59198C5.60597 8.93874 5.56745 9.20844 5.56745 9.40108C5.56745 9.4653 5.57387 9.50383 5.58671 9.51667C5.57387 9.54236 5.56745 9.60015 5.56745 9.69005C5.56745 9.86985 5.58671 10.101 5.62524 10.3836C5.67661 10.6661 5.76651 10.9422 5.89494 11.212C6.03622 11.4688 6.22244 11.6936 6.45361 11.8862C6.69763 12.0789 7.01228 12.1752 7.39757 12.1752C7.80855 12.1752 8.30943 12.0275 8.90021 11.7321C9.49099 11.4239 10.2102 10.878 11.0578 10.0946L14.8337 14.0824C14.6282 14.4677 14.275 14.8658 13.7741 15.2768C13.2733 15.6749 12.6825 16.0409 12.0018 16.3748C11.3211 16.6959 10.5698 16.9592 9.74785 17.1647C8.92589 17.3702 8.09752 17.4729 7.26272 17.4729C6.49214 17.4729 5.74083 17.3702 5.00877 17.1647C4.28957 16.9592 3.62173 16.6124 3.00526 16.1244C1.90077 15.2768 1.12376 14.3392 0.674258 13.3118C0.224753 12.2843 0 11.2312 0 10.1524C0 9.26623 0.12843 8.38649 0.38529 7.51316C0.654994 6.63984 1.00175 5.82431 1.42557 5.06657C1.84939 4.29599 2.33101 3.60889 2.87041 3.00527C3.42266 2.3888 3.98133 1.89434 4.54643 1.5219C4.82897 1.34209 5.15005 1.18156 5.50965 1.04028C5.81788 0.924696 6.17749 0.815531 6.58847 0.712787C7.01228 0.610043 7.48106 0.558671 7.99478 0.558671C8.43144 0.558671 8.89379 0.610043 9.38182 0.712787C9.8827 0.815531 10.39 0.995333 10.9037 1.25219C11.4303 1.49621 11.9568 1.83013 12.4834 2.25395C13.0228 2.66492 13.5622 3.19149 14.1016 3.83364L10.7496 7.97551Z" fill="url(#paint12_linear_9831_116518)"/>
<path d="M14.423 1.67601L20.0482 1.13661L19.3547 8.18742L22.2251 7.97551L22.437 1.27146L27.9466 1.00175L26.3862 15.874L21.8976 16.3941L22.148 12.1559L20.1445 12.4449L19.9519 16.8565L15.1357 16.972L14.423 1.67601Z" fill="url(#paint13_linear_9831_116518)"/>
<path d="M34.7014 1.00175L33.9116 16.5675L29.0376 17.1647V1.67601L34.7014 1.00175Z" fill="url(#paint14_linear_9831_116518)"/>
<path d="M45.7042 7.97551C45.0877 7.32052 44.5419 6.86459 44.0667 6.60773C43.6043 6.33803 43.1869 6.20318 42.8145 6.20318C42.3778 6.20318 42.0118 6.33803 41.7164 6.60773C41.4339 6.86459 41.2027 7.17282 41.0229 7.53243C40.8431 7.87919 40.7147 8.23237 40.6376 8.59198C40.5605 8.93874 40.522 9.20844 40.522 9.40108C40.522 9.4653 40.5284 9.50383 40.5413 9.51667C40.5284 9.54236 40.522 9.60015 40.522 9.69005C40.522 9.86985 40.5413 10.101 40.5798 10.3836C40.6312 10.6661 40.7211 10.9422 40.8495 11.212C40.9908 11.4688 41.177 11.6936 41.4082 11.8862C41.6522 12.0789 41.9669 12.1752 42.3521 12.1752C42.7631 12.1752 43.264 12.0275 43.8548 11.7321C44.4456 11.4239 45.1648 10.878 46.0124 10.0946L49.7882 14.0824C49.5828 14.4677 49.2296 14.8658 48.7287 15.2768C48.2278 15.6749 47.637 16.0409 46.9564 16.3748C46.2757 16.6959 45.5244 16.9592 44.7024 17.1647C43.8805 17.3702 43.0521 17.4729 42.2173 17.4729C41.4467 17.4729 40.6954 17.3702 39.9633 17.1647C39.2441 16.9592 38.5763 16.6124 37.9598 16.1244C36.8553 15.2768 36.0783 14.3392 35.6288 13.3118C35.1793 12.2843 34.9546 11.2312 34.9546 10.1524C34.9546 9.26623 35.083 8.38649 35.3399 7.51316C35.6096 6.63984 35.9563 5.82431 36.3801 5.06657C36.804 4.29599 37.2856 3.60889 37.825 3.00527C38.3772 2.3888 38.9359 1.89434 39.501 1.5219C39.7835 1.34209 40.1046 1.18156 40.4642 1.04028C40.7724 0.924696 41.1321 0.815531 41.543 0.712787C41.9669 0.610043 42.4356 0.558671 42.9493 0.558671C43.386 0.558671 43.8484 0.610043 44.3364 0.712787C44.8373 0.815531 45.3446 0.995333 45.8583 1.25219C46.3848 1.49621 46.9114 1.83013 47.438 2.25395C47.9774 2.66492 48.5168 3.19149 49.0562 3.83364L45.7042 7.97551Z" fill="url(#paint15_linear_9831_116518)"/>
<path d="M62.1692 4.62348L56.8136 9.63226L61.5527 13.6007L58.8557 17.6463L55.0798 14.1209V16.5675L49.705 17.1647V1.67601L55.311 1.00175V4.46937L58.4126 0.192645L62.1692 4.62348Z" fill="url(#paint16_linear_9831_116518)"/>
<path d="M62.1055 1.56043L72.9322 0.751316L72.335 5.72156L67.4032 5.95274L67.384 6.8967L70.9672 6.64626L70.5241 10.0753L67.2491 10.345L67.2299 11.4239L72.7588 10.9037V16.317L62.2596 16.9142L62.1055 1.56043Z" fill="url(#paint17_linear_9831_116518)"/>
<path d="M74.171 1.13661L81.5493 7.24346L81.7034 0.866902L87.4442 1.25219L86.5773 15.9318L79.199 12.233L79.4687 16.7987L74.171 17.1647V1.13661Z" fill="url(#paint18_linear_9831_116518)"/>
<path d="M107.12 14.0631L104.153 17.4344L99.4139 14.0053V17.2995L94.7519 16.7987L94.4437 1.75307C95.6766 1.6118 96.7298 1.49621 97.6031 1.40631C98.4893 1.30357 99.2213 1.22009 99.7992 1.15587C100.48 1.09166 101.045 1.04028 101.495 1.00175C101.841 0.963225 102.156 0.943961 102.438 0.943961C103.222 0.943961 103.903 1.05313 104.481 1.27146C105.071 1.48979 105.553 1.78518 105.925 2.15763C106.311 2.53007 106.593 2.96674 106.773 3.46761C106.966 3.95565 107.062 4.48221 107.062 5.0473C107.062 5.59955 106.972 6.17107 106.792 6.76185C106.625 7.33978 106.375 7.9113 106.041 8.47639C105.707 9.02864 105.29 9.56162 104.789 10.0753C104.301 10.5762 103.742 11.0257 103.113 11.4239L107.12 14.0631ZM98.9901 9.15065C99.4525 9.0479 99.8506 8.90021 100.185 8.70756C100.518 8.51492 100.801 8.30943 101.032 8.0911C101.263 7.87277 101.437 7.66728 101.552 7.47463C101.681 7.26914 101.758 7.10861 101.783 6.99302V6.91596C101.783 6.89028 101.783 6.86459 101.783 6.8389C101.796 6.80037 101.803 6.76185 101.803 6.72332C101.803 6.63342 101.79 6.53067 101.764 6.41508C101.751 6.28665 101.706 6.17107 101.629 6.06832C101.565 5.96558 101.462 5.8821 101.321 5.81788C101.193 5.74083 101.013 5.7023 100.782 5.7023C100.589 5.7023 100.358 5.72798 100.088 5.77936C99.8313 5.83073 99.5231 5.92705 99.1635 6.06832L98.9901 9.15065Z" fill="url(#paint19_linear_9831_116518)"/>
<path d="M119.342 15.2382C119.008 15.5722 118.617 15.8804 118.167 16.1629C117.73 16.4326 117.255 16.6638 116.741 16.8565C116.228 17.0619 115.688 17.2161 115.123 17.3188C114.558 17.4344 113.993 17.4922 113.428 17.4922C112.812 17.4922 112.201 17.4215 111.598 17.2803C111.007 17.1518 110.442 16.9399 109.903 16.6445C109.376 16.3363 108.888 15.951 108.438 15.4887C108.002 15.0135 107.629 14.442 107.321 13.7741C106.782 12.5412 106.512 11.3147 106.512 10.0946C106.512 9.2855 106.621 8.48923 106.84 7.70581C107.058 6.92238 107.366 6.17749 107.764 5.47112C108.175 4.76476 108.657 4.11618 109.209 3.52541C109.774 2.93463 110.397 2.42733 111.078 2.00351C111.758 1.56685 112.484 1.22651 113.255 0.98249C114.038 0.738473 114.847 0.616465 115.682 0.616465C116.722 0.616465 117.653 0.815531 118.475 1.21366C119.31 1.59895 120.016 2.12552 120.594 2.79335C121.172 3.46119 121.615 4.24462 121.924 5.14363C122.232 6.02979 122.386 6.97376 122.386 7.97551C122.386 9.16991 122.148 10.3964 121.673 11.655C121.211 12.9136 120.434 14.108 119.342 15.2382ZM114.931 5.93347C114.52 5.93347 114.096 6.03622 113.659 6.2417C113.222 6.43435 112.818 6.72332 112.445 7.10861C112.086 7.48105 111.784 7.9434 111.54 8.49565C111.309 9.03506 111.193 9.6451 111.193 10.3258C111.193 11.2762 111.399 11.9633 111.81 12.3871C112.221 12.7981 112.715 13.0035 113.293 13.0035C113.82 13.0035 114.346 12.8559 114.873 12.5605C115.399 12.2651 115.817 11.8734 116.125 11.3853C116.497 10.8074 116.754 10.2873 116.896 9.8249C117.037 9.34971 117.107 8.91305 117.107 8.51492C117.107 8.34796 117.075 8.12321 117.011 7.84066C116.96 7.54527 116.851 7.2563 116.684 6.97376C116.53 6.69121 116.311 6.44719 116.029 6.2417C115.746 6.03622 115.38 5.93347 114.931 5.93347Z" fill="url(#paint20_linear_9831_116518)"/>
<path d="M125.013 0.789845L128.442 6.16465L132.141 0.789845L136.861 4.04555L130.927 11.6358V17.184L125.745 16.4712V10.8074L120.89 4.04555L125.013 0.789845Z" fill="url(#paint21_linear_9831_116518)"/>
<path d="M142.758 0L152.486 14.7951L146.437 17.0876L144.8 14.4099L140.773 14.5254L139.984 17.3959L134.185 15.5272L142.758 0ZM141.756 11.4817L144.068 11.0771L143.124 8.43786L141.756 11.4817Z" fill="url(#paint22_linear_9831_116518)"/>
<path d="M151.751 1.75307L157.569 0.943961L157.049 11.7899L161.769 10.8074L162 16.24L151.751 17.2417V1.75307Z" fill="url(#paint23_linear_9831_116518)"/>
<defs>
<linearGradient id="paint0_linear_9831_116518" x1="80.9399" y1="3.50322" x2="80.9399" y2="21.3917" gradientUnits="userSpaceOnUse">
<stop stop-color="#A6000F"/>
<stop offset="1" stop-color="#1A0000"/>
</linearGradient>
<linearGradient id="paint1_linear_9831_116518" x1="80.9399" y1="3.50322" x2="80.9399" y2="21.3917" gradientUnits="userSpaceOnUse">
<stop stop-color="#A6000F"/>
<stop offset="1" stop-color="#1A0000"/>
</linearGradient>
<linearGradient id="paint2_linear_9831_116518" x1="80.9399" y1="3.50322" x2="80.9399" y2="21.3917" gradientUnits="userSpaceOnUse">
<stop stop-color="#A6000F"/>
<stop offset="1" stop-color="#1A0000"/>
</linearGradient>
<linearGradient id="paint3_linear_9831_116518" x1="80.9399" y1="3.50322" x2="80.9399" y2="21.3917" gradientUnits="userSpaceOnUse">
<stop stop-color="#A6000F"/>
<stop offset="1" stop-color="#1A0000"/>
</linearGradient>
<linearGradient id="paint4_linear_9831_116518" x1="80.9399" y1="3.50322" x2="80.9399" y2="21.3917" gradientUnits="userSpaceOnUse">
<stop stop-color="#A6000F"/>
<stop offset="1" stop-color="#1A0000"/>
</linearGradient>
<linearGradient id="paint5_linear_9831_116518" x1="80.9399" y1="3.50322" x2="80.9399" y2="21.3917" gradientUnits="userSpaceOnUse">
<stop stop-color="#A6000F"/>
<stop offset="1" stop-color="#1A0000"/>
</linearGradient>
<linearGradient id="paint6_linear_9831_116518" x1="80.9399" y1="3.50322" x2="80.9399" y2="21.3917" gradientUnits="userSpaceOnUse">
<stop stop-color="#A6000F"/>
<stop offset="1" stop-color="#1A0000"/>
</linearGradient>
<linearGradient id="paint7_linear_9831_116518" x1="80.9399" y1="3.50322" x2="80.9399" y2="21.3917" gradientUnits="userSpaceOnUse">
<stop stop-color="#A6000F"/>
<stop offset="1" stop-color="#1A0000"/>
</linearGradient>
<linearGradient id="paint8_linear_9831_116518" x1="80.9399" y1="3.50322" x2="80.9399" y2="21.3917" gradientUnits="userSpaceOnUse">
<stop stop-color="#A6000F"/>
<stop offset="1" stop-color="#1A0000"/>
</linearGradient>
<linearGradient id="paint9_linear_9831_116518" x1="80.9399" y1="3.50322" x2="80.9399" y2="21.3917" gradientUnits="userSpaceOnUse">
<stop stop-color="#A6000F"/>
<stop offset="1" stop-color="#1A0000"/>
</linearGradient>
<linearGradient id="paint10_linear_9831_116518" x1="80.9399" y1="3.50322" x2="80.9399" y2="21.3917" gradientUnits="userSpaceOnUse">
<stop stop-color="#A6000F"/>
<stop offset="1" stop-color="#1A0000"/>
</linearGradient>
<linearGradient id="paint11_linear_9831_116518" x1="80.9399" y1="3.50322" x2="80.9399" y2="21.3917" gradientUnits="userSpaceOnUse">
<stop stop-color="#A6000F"/>
<stop offset="1" stop-color="#1A0000"/>
</linearGradient>
<linearGradient id="paint12_linear_9831_116518" x1="81" y1="0" x2="81" y2="17.6463" gradientUnits="userSpaceOnUse">
<stop stop-color="#FFCF1E"/>
<stop offset="1" stop-color="#E97E00"/>
</linearGradient>
<linearGradient id="paint13_linear_9831_116518" x1="81" y1="0" x2="81" y2="17.6463" gradientUnits="userSpaceOnUse">
<stop stop-color="#FFCF1E"/>
<stop offset="1" stop-color="#E97E00"/>
</linearGradient>
<linearGradient id="paint14_linear_9831_116518" x1="81" y1="0" x2="81" y2="17.6463" gradientUnits="userSpaceOnUse">
<stop stop-color="#FFCF1E"/>
<stop offset="1" stop-color="#E97E00"/>
</linearGradient>
<linearGradient id="paint15_linear_9831_116518" x1="81" y1="0" x2="81" y2="17.6463" gradientUnits="userSpaceOnUse">
<stop stop-color="#FFCF1E"/>
<stop offset="1" stop-color="#E97E00"/>
</linearGradient>
<linearGradient id="paint16_linear_9831_116518" x1="81" y1="0" x2="81" y2="17.6463" gradientUnits="userSpaceOnUse">
<stop stop-color="#FFCF1E"/>
<stop offset="1" stop-color="#E97E00"/>
</linearGradient>
<linearGradient id="paint17_linear_9831_116518" x1="81" y1="0" x2="81" y2="17.6463" gradientUnits="userSpaceOnUse">
<stop stop-color="#FFCF1E"/>
<stop offset="1" stop-color="#E97E00"/>
</linearGradient>
<linearGradient id="paint18_linear_9831_116518" x1="81" y1="0" x2="81" y2="17.6463" gradientUnits="userSpaceOnUse">
<stop stop-color="#FFCF1E"/>
<stop offset="1" stop-color="#E97E00"/>
</linearGradient>
<linearGradient id="paint19_linear_9831_116518" x1="81" y1="0" x2="81" y2="17.6463" gradientUnits="userSpaceOnUse">
<stop stop-color="#FFCF1E"/>
<stop offset="1" stop-color="#E97E00"/>
</linearGradient>
<linearGradient id="paint20_linear_9831_116518" x1="81" y1="0" x2="81" y2="17.6463" gradientUnits="userSpaceOnUse">
<stop stop-color="#FFCF1E"/>
<stop offset="1" stop-color="#E97E00"/>
</linearGradient>
<linearGradient id="paint21_linear_9831_116518" x1="81" y1="0" x2="81" y2="17.6463" gradientUnits="userSpaceOnUse">
<stop stop-color="#FFCF1E"/>
<stop offset="1" stop-color="#E97E00"/>
</linearGradient>
<linearGradient id="paint22_linear_9831_116518" x1="81" y1="0" x2="81" y2="17.6463" gradientUnits="userSpaceOnUse">
<stop stop-color="#FFCF1E"/>
<stop offset="1" stop-color="#E97E00"/>
</linearGradient>
<linearGradient id="paint23_linear_9831_116518" x1="81" y1="0" x2="81" y2="17.6463" gradientUnits="userSpaceOnUse">
<stop stop-color="#FFCF1E"/>
<stop offset="1" stop-color="#E97E00"/>
</linearGradient>
</defs>
</svg>
