<svg width="127" height="34" viewBox="0 0 127 34" fill="none" xmlns="http://www.w3.org/2000/svg">
<path d="M0 33.3866L6.55545 0.609375H17.0442C19.2629 0.609375 21.2296 0.878317 22.9441 1.4162C24.6586 1.92047 26.0033 2.72729 26.9782 3.83667C27.9531 4.94606 28.4406 6.39162 28.4406 8.17336C28.4406 9.92148 27.8354 11.5519 26.6252 13.0647C25.415 14.5439 23.6669 15.6365 21.3808 16.3425L21.28 16.5442C24.9779 17.4518 26.8269 19.4353 26.8269 22.4945C26.8269 25.1167 26.1546 27.2346 24.8099 28.8482C23.4651 30.4283 21.7002 31.5881 19.5151 32.3277C17.3299 33.0336 14.9599 33.3866 12.4049 33.3866H0ZM12.0015 13.7203H14.7245C16.708 13.7203 18.1031 13.3505 18.91 12.6109C19.7504 11.8377 20.1706 10.8292 20.1706 9.5853C20.1706 7.70271 18.6914 6.76141 15.7331 6.76141H13.4135L12.0015 13.7203ZM9.27848 27.2346H13.01C15.0271 27.2346 16.5399 26.8312 17.5484 26.0243C18.557 25.2175 19.0612 24.1418 19.0612 22.7971C19.0612 20.3766 17.5821 19.1663 14.6237 19.1663H10.8921L9.27848 27.2346Z" fill="white"/>
<path d="M30.8764 33.3866L37.4319 0.609375H57.4008L56.0897 7.36653H44.0882L42.9788 13.1152H53.1649L51.8538 19.8723H41.6677L40.2557 26.6295H52.6607L51.3496 33.3866H30.8764Z" fill="white"/>
<path d="M63.7612 33.3866L68.9047 7.36653H60.6348L61.9458 0.609375H86.554L85.2429 7.36653H76.9729L71.8294 33.3866H63.7612Z" fill="white"/>
<path d="M90.9935 33.3866L96.137 7.36653H87.867L89.1781 0.609375H113.786L112.475 7.36653H104.205L99.0617 33.3866H90.9935Z" fill="white"/>
<path d="M112.376 33.3866L118.932 0.609375H127L120.445 33.3866H112.376Z" fill="white"/>
</svg>
