<svg width="122" height="32" viewBox="0 0 122 32" fill="none" xmlns="http://www.w3.org/2000/svg">
<path d="M39.1445 20.5337V17.9338L40.091 17.784V14.0818L39.1445 13.932V11.3321H44.5421C45.1851 11.3321 45.7921 11.3621 46.3632 11.422C46.9383 11.4819 47.4455 11.6057 47.8848 11.7934C48.3242 11.9811 48.6676 12.2627 48.9152 12.6381C49.1668 13.0135 49.2926 13.5187 49.2926 14.1537C49.2926 14.6849 49.1948 15.1262 48.9991 15.4776C48.8034 15.8251 48.5318 16.1027 48.1844 16.3103C47.8409 16.514 47.4415 16.6658 46.9863 16.7656C46.535 16.8615 46.0477 16.9254 45.5245 16.9573C45.0014 16.9853 44.4682 16.9992 43.925 16.9992V17.784L44.8716 17.9338V20.5337H39.1445ZM43.925 15.3518C44.4003 15.3518 44.7737 15.2839 45.0453 15.1481C45.3209 15.0124 45.4586 14.7048 45.4586 14.2256C45.4586 13.9101 45.3947 13.6745 45.2669 13.5187C45.1431 13.3589 44.9674 13.2531 44.7398 13.2012C44.5121 13.1493 44.2406 13.1233 43.925 13.1233V15.3518Z" fill="#111111"/>
<path d="M49.9037 20.5337V17.9338L50.8502 17.784V14.0818L49.9037 13.932V11.3321H55.5708V13.932L54.6842 14.0818V18.2333C55.0716 18.2333 55.4051 18.1554 55.6846 17.9997C55.9642 17.8399 56.1998 17.6622 56.3915 17.4665H57.392V20.5337H49.9037Z" fill="#111111"/>
<path d="M58.3085 20.5337V17.5144L59.0454 17.3647L60.8126 11.3321H65.7609L67.5341 17.3647L68.2709 17.5144V20.5337H64.8623L64.5388 18.9881H62.0347L61.7172 20.5337H58.3085ZM62.5499 16.9333H64.0236L63.2867 13.4648L62.5499 16.9333Z" fill="#111111"/>
<path d="M71.2303 20.5337V17.9458L71.9971 17.7541L69.3672 14.0758L68.2769 13.932V11.3321H73.5127V13.932L72.9137 14.0758L74.1297 15.9569L75.3458 14.0758L74.7468 13.932V11.3321H80.0365V13.932L78.8923 14.0758L76.2624 17.7541L77.0292 17.9458V20.5337H71.2303Z" fill="#111111"/>
<path d="M80.8093 20.5337V17.9338L81.7438 17.784V14.0818L80.8093 13.932V11.3321H85.5778L88.645 16.0467V14.0938L87.8782 13.932V11.3321H91.88V13.932L90.9454 14.0818V20.5337H87.1054L84.0442 16.0467V17.784L84.811 17.9278V20.5337H80.8093Z" fill="#111111"/>
<path d="M98.1102 20.6415C97.0039 20.6415 96.0494 20.4718 95.2467 20.1323C94.4439 19.7889 93.8269 19.2617 93.3956 18.5508C92.9643 17.8399 92.7486 16.9314 92.7486 15.8251C92.7486 14.7588 92.9722 13.8841 93.4195 13.2012C93.8708 12.5183 94.4999 12.0131 95.3066 11.6856C96.1133 11.3581 97.0479 11.1943 98.1102 11.1943C99.1765 11.1943 100.113 11.3581 100.92 11.6856C101.727 12.0131 102.356 12.5183 102.807 13.2012C103.258 13.8841 103.484 14.7588 103.484 15.8251C103.484 16.9234 103.264 17.8299 102.825 18.5448C102.386 19.2557 101.762 19.7829 100.956 20.1263C100.153 20.4698 99.2045 20.6415 98.1102 20.6415ZM98.1102 17.7481C98.7013 17.7481 99.1046 17.5723 99.3203 17.2209C99.54 16.8694 99.6498 16.4042 99.6498 15.8251C99.6498 15.242 99.54 14.7807 99.3203 14.4413C99.1006 14.1018 98.6973 13.932 98.1102 13.932C97.5231 13.932 97.1217 14.1018 96.9061 14.4413C96.6904 14.7807 96.5826 15.242 96.5826 15.8251C96.5826 16.4042 96.6884 16.8694 96.9001 17.2209C97.1158 17.5723 97.5191 17.7481 98.1102 17.7481Z" fill="#111111"/>
<path d="M107.629 20.5397L105.179 14.0758L104.089 13.932V11.3321H110.085V13.932L109.426 14.0758L110.463 17.4845L111.499 14.0758L110.84 13.932V11.3321H116.657V13.932L115.998 14.0758L117.035 17.4845L118.071 14.0758L117.412 13.932V11.3321H122.001V13.932L120.916 14.0758L118.466 20.5397H114.201L113.045 17.0172L111.895 20.5397H107.629Z" fill="#111111"/>
<g clip-path="url(#clip0_8437_93363)">
<path d="M29.9242 12.2564L19.4788 1.81044C17.4152 -0.25322 14.0572 -0.25322 11.9935 1.81044L1.54813 12.2564C-0.516045 14.3205 -0.516045 17.6785 1.54813 19.7422L11.9935 30.1876C14.0577 32.2518 17.4157 32.2518 19.4794 30.1876L29.9248 19.7422C31.9884 17.6785 31.9884 14.3205 29.9248 12.2564H29.9242ZM17.2855 27.9937C16.4311 28.8481 15.0408 28.8476 14.1864 27.9937L3.74149 17.5483C3.6865 17.4933 3.63566 17.4363 3.58741 17.3776C2.89071 16.518 2.94206 15.2496 3.74201 14.4497L14.1874 4.00431C15.0413 3.15042 16.4316 3.1499 17.2855 4.00431L27.7309 14.4497C28.5853 15.3036 28.5853 16.6939 27.7309 17.5483L17.2855 27.9937Z" fill="url(#paint0_linear_8437_93363)"/>
<path style="mix-blend-mode:multiply" d="M3.74133 14.4501L4.3431 13.8483L6.37097 11.8205L10.2041 7.9873L8.01079 5.79395L2.14923 11.6545C0.961254 12.8424 1.47068 15.2786 3.28689 17.0948C3.38494 17.1928 3.48454 17.2873 3.58674 17.3775C2.89003 16.5179 2.94139 15.2495 3.74133 14.4496V14.4501Z" fill="url(#paint1_linear_8437_93363)"/>
<path style="mix-blend-mode:multiply" d="M27.7304 17.549L27.1286 18.1508L25.1008 20.1787L21.2676 24.0118L23.4609 26.2052L29.322 20.3441C30.51 19.1562 30.0005 16.72 28.1843 14.9038C28.0863 14.8058 27.9867 14.7114 27.8845 14.6211C28.5812 15.4807 28.5298 16.7491 27.7299 17.549H27.7304Z" fill="url(#paint2_linear_8437_93363)"/>
<path style="mix-blend-mode:multiply" d="M17.2853 4.00546L17.8871 4.60723L19.915 6.6351L23.7482 10.4683L25.9415 8.27492L20.0805 2.41388C18.8925 1.2259 16.4564 1.73533 14.6402 3.55154C14.5421 3.64959 14.4477 3.74919 14.3574 3.85139C15.217 3.15468 16.4854 3.20604 17.2853 4.00598V4.00546Z" fill="url(#paint3_linear_8437_93363)"/>
<path style="mix-blend-mode:multiply" d="M14.1874 27.9941L13.5856 27.3923L11.5578 25.3644L7.7246 21.5312L5.53125 23.7246L11.3923 29.5856C12.5803 30.7736 15.0164 30.2642 16.8326 28.448C16.9307 28.3499 17.0251 28.2503 17.1153 28.1481C16.2557 28.8448 14.9874 28.7935 14.1874 27.9935V27.9941Z" fill="url(#paint4_linear_8437_93363)"/>
<path d="M16.8437 11.2441C17.766 11.2441 18.5137 10.4965 18.5137 9.57421C18.5137 8.65194 17.766 7.9043 16.8437 7.9043C15.9215 7.9043 15.1738 8.65194 15.1738 9.57421C15.1738 10.4965 15.9215 11.2441 16.8437 11.2441Z" fill="url(#paint5_linear_8437_93363)"/>
<path d="M13.1172 14.9707C14.0394 14.9707 14.7871 14.223 14.7871 13.3008C14.7871 12.3785 14.0394 11.6309 13.1172 11.6309C12.1949 11.6309 11.4473 12.3785 11.4473 13.3008C11.4473 14.223 12.1949 14.9707 13.1172 14.9707Z" fill="url(#paint6_linear_8437_93363)"/>
<path d="M9.39062 18.6973C10.3129 18.6973 11.0605 17.9496 11.0605 17.0273C11.0605 16.1051 10.3129 15.3574 9.39062 15.3574C8.46835 15.3574 7.7207 16.1051 7.7207 17.0273C7.7207 17.9496 8.46835 18.6973 9.39062 18.6973Z" fill="url(#paint7_linear_8437_93363)"/>
<path d="M22.1562 16.5566C23.0785 16.5566 23.8262 15.809 23.8262 14.8867C23.8262 13.9644 23.0785 13.2168 22.1562 13.2168C21.234 13.2168 20.4863 13.9644 20.4863 14.8867C20.4863 15.809 21.234 16.5566 22.1562 16.5566Z" fill="url(#paint8_linear_8437_93363)"/>
<path d="M18.4297 20.2832C19.3519 20.2832 20.0996 19.5355 20.0996 18.6133C20.0996 17.691 19.3519 16.9434 18.4297 16.9434C17.5074 16.9434 16.7598 17.691 16.7598 18.6133C16.7598 19.5355 17.5074 20.2832 18.4297 20.2832Z" fill="url(#paint9_linear_8437_93363)"/>
<path d="M14.7031 24.0098C15.6254 24.0098 16.373 23.2621 16.373 22.3398C16.373 21.4176 15.6254 20.6699 14.7031 20.6699C13.7808 20.6699 13.0332 21.4176 13.0332 22.3398C13.0332 23.2621 13.7808 24.0098 14.7031 24.0098Z" fill="url(#paint10_linear_8437_93363)"/>
</g>
<defs>
<linearGradient id="paint0_linear_8437_93363" x1="15.7362" y1="-1.30778" x2="15.7362" y2="23.4793" gradientUnits="userSpaceOnUse">
<stop stop-color="#FF4D4D"/>
<stop offset="1" stop-color="#F70808"/>
</linearGradient>
<linearGradient id="paint1_linear_8437_93363" x1="0.855688" y1="16.5284" x2="8.06232" y2="9.32173" gradientUnits="userSpaceOnUse">
<stop stop-color="#AF0808"/>
<stop offset="1" stop-color="white"/>
</linearGradient>
<linearGradient id="paint2_linear_8437_93363" x1="30.6158" y1="15.4704" x2="23.4092" y2="22.677" gradientUnits="userSpaceOnUse">
<stop stop-color="#AF0808"/>
<stop offset="1" stop-color="white"/>
</linearGradient>
<linearGradient id="paint3_linear_8437_93363" x1="15.2066" y1="1.12057" x2="22.4132" y2="8.32721" gradientUnits="userSpaceOnUse">
<stop stop-color="#AF0808"/>
<stop offset="1" stop-color="white"/>
</linearGradient>
<linearGradient id="paint4_linear_8437_93363" x1="16.2659" y1="30.8794" x2="9.05927" y2="23.6727" gradientUnits="userSpaceOnUse">
<stop stop-color="#AF0808"/>
<stop offset="1" stop-color="white"/>
</linearGradient>
<linearGradient id="paint5_linear_8437_93363" x1="27.0718" y1="19.8022" x2="15.759" y2="8.48946" gradientUnits="userSpaceOnUse">
<stop stop-color="#FF4D4D"/>
<stop offset="1" stop-color="#F70808"/>
</linearGradient>
<linearGradient id="paint6_linear_8437_93363" x1="23.3452" y1="23.5288" x2="12.0324" y2="12.216" gradientUnits="userSpaceOnUse">
<stop stop-color="#FF4D4D"/>
<stop offset="1" stop-color="#F70808"/>
</linearGradient>
<linearGradient id="paint7_linear_8437_93363" x1="19.6187" y1="27.2559" x2="8.30587" y2="15.9426" gradientUnits="userSpaceOnUse">
<stop stop-color="#FF4D4D"/>
<stop offset="1" stop-color="#F70808"/>
</linearGradient>
<linearGradient id="paint8_linear_8437_93363" x1="27.0721" y1="19.802" x2="15.7593" y2="8.48927" gradientUnits="userSpaceOnUse">
<stop stop-color="#FF4D4D"/>
<stop offset="1" stop-color="#F70808"/>
</linearGradient>
<linearGradient id="paint9_linear_8437_93363" x1="23.345" y1="23.5291" x2="12.0322" y2="12.2163" gradientUnits="userSpaceOnUse">
<stop stop-color="#FF4D4D"/>
<stop offset="1" stop-color="#F70808"/>
</linearGradient>
<linearGradient id="paint10_linear_8437_93363" x1="19.6184" y1="27.2557" x2="8.30567" y2="15.9424" gradientUnits="userSpaceOnUse">
<stop stop-color="#FF4D4D"/>
<stop offset="1" stop-color="#F70808"/>
</linearGradient>
<clipPath id="clip0_8437_93363">
<rect width="31.4721" height="31.4721" fill="white" transform="translate(0 0.263672)"/>
</clipPath>
</defs>
</svg>
