<svg width="167" height="35" viewBox="0 0 167 35" fill="none" xmlns="http://www.w3.org/2000/svg">
<path d="M0.131318 29.8921C0.0114416 25.6564 -0.108435 21.4208 0.171277 17.1851C0.45099 12.7097 0.970455 8.27431 1.76963 3.87883C2.04935 2.40035 2.56881 0.682117 4.327 0.682117C4.92639 0.682117 5.56573 0.881911 5.8854 1.40138C6.52474 2.28047 6.20507 3.71899 6.16511 4.75792C6.12515 6.15648 6.12515 7.55505 6.12515 8.95361C6.12515 10.6319 6.16511 12.2702 6.24503 13.9485C9.20199 9.59295 12.9581 5.83681 16.5145 1.9608C17.2337 1.16162 18.1528 0.522281 18.912 0.522281C19.1518 0.522281 19.3515 0.562239 19.5513 0.722075C20.1507 1.24154 19.911 2.40035 19.3915 3.07965C16.6343 6.39624 10.7204 13.5888 9.24195 17.305C8.72248 18.6636 8.84236 22.6595 11.6794 25.5765C13.6774 27.6544 15.5954 29.0529 18.1528 30.2917C19.5513 31.0109 19.7511 32.849 18.5923 33.6882C18.0329 34.1277 17.3936 34.2876 16.7143 34.2876C13.6774 34.2876 8.72248 30.2917 6.84441 28.2538C6.88437 29.4126 6.92433 29.4925 6.96429 30.6513C7.08417 32.7691 5.64565 34.4474 3.80754 34.4873C1.17025 34.5673 0.211236 32.7292 0.131318 29.8921Z" fill="#1BE6E4"/>
<path d="M22.783 21.3009C21.6242 21.221 20.9449 20.1021 22.4633 19.4228C23.0627 19.1431 23.7021 18.9433 24.4213 18.8235C24.5412 18.1442 24.701 17.4649 24.8209 16.7856C25.6601 12.9495 27.4582 5.95669 28.8168 2.75998C29.8158 0.322486 30.615 -0.0371439 31.2543 0.00281451C32.0934 0.0827313 32.8127 0.722075 33.8916 2.91981C34.6109 4.39829 35.2502 5.99665 36.0494 8.4741C36.8885 11.0714 37.6877 13.7487 38.4069 16.346C38.4869 16.7456 38.6067 17.1851 38.6867 17.5847C39.4459 17.5847 40.6846 17.9843 40.6446 18.9034C40.6446 19.6226 39.9254 20.0222 39.2461 20.1421C40.0453 24.138 40.4049 26.6954 40.6047 30.7312C40.6846 32.2097 39.8455 34.3275 37.368 34.4474C34.6908 34.5273 33.8916 32.2496 33.7318 28.5734C33.6918 26.7753 33.4121 24.2579 33.1324 20.3019C31.2543 20.4618 29.3762 20.6216 27.4982 20.8614C27.2584 22.3398 27.0187 23.7784 26.8189 25.2169C26.4992 27.2947 26.1396 29.8521 25.8599 30.931C25.3803 33.1687 24.3015 34.0078 23.5023 34.0078C23.0627 34.0078 22.6631 33.7281 22.5433 33.2886C22.3435 32.5294 22.5033 30.2517 22.6631 29.013C23.0627 26.4156 23.4623 23.8583 23.9418 21.3009C23.7021 21.3009 22.9828 21.3009 22.783 21.3009ZM28.2574 16.8655C28.1375 17.3849 28.0576 17.9044 27.9377 18.4638C29.616 18.2241 31.2943 18.0642 32.9725 17.9444C32.9326 17.5048 32.8926 17.0653 32.8527 16.6257C32.6928 14.0683 32.1734 11.5909 31.8537 9.07348C31.7738 8.43414 31.4141 6.9157 31.0945 5.35731C30.0156 9.1534 29.0566 12.9895 28.2574 16.8655Z" fill="#1BE6E4"/>
<path d="M43.9544 27.015C43.8744 25.2568 43.7546 20.8214 44.5138 15.2272C44.8734 12.7497 45.1531 10.2723 45.6726 7.83476C46.1521 5.67698 46.3519 3.07965 47.4308 1.16162C47.7105 0.682117 48.4298 0.402403 49.1091 0.402403C49.7884 0.402403 50.4677 0.722075 50.5875 1.44134C50.7074 2.52023 50.4677 3.75895 50.3478 4.83784C50.148 6.63599 50.0281 8.43414 49.9082 10.2323C51.5865 5.91673 54.4636 1.04175 59.7381 1.04175C60.6971 1.04175 61.6562 1.24154 62.6152 1.64113C67.61 3.71899 67.2104 9.3532 66.2914 13.8686C65.0527 19.8624 60.7771 24.5376 54.5035 24.5376C53.8642 24.5376 53.2248 24.4577 52.6254 24.3777C53.9441 26.9751 55.8222 28.6933 58.8191 28.6933C59.9379 28.6933 61.0967 28.4935 61.9758 28.2538C62.9348 28.014 63.6941 27.8542 64.2934 27.8542C65.2924 27.8542 65.8119 28.2538 66.1316 29.2128C66.8109 31.0509 65.0527 32.6892 63.774 33.0888C62.8949 33.3685 61.9359 33.4884 60.9769 33.4884C59.858 33.4884 58.6992 33.3285 57.6203 33.0488C54.8232 32.2896 51.5865 29.2527 50.2279 26.7353C50.3877 28.5335 50.4277 29.4925 50.5476 30.1718C50.9072 32.849 50.108 34.3675 48.3498 34.8869C45.8324 35.5662 44.274 33.4085 43.9544 27.015ZM58.4195 3.59911C54.5834 4.71797 51.5865 14.6677 50.8673 18.0243C51.1869 18.344 51.5466 18.6237 51.9461 18.9034C52.3058 19.1431 53.7043 19.8624 54.7033 19.7425C55.7422 19.5827 56.7013 18.9833 57.2207 18.344C60.0178 15.1472 61.1367 9.8327 60.7371 6.31632C60.5773 4.99768 60.3775 3.03969 58.4195 3.59911Z" fill="#1BE6E4"/>
<path d="M70.5854 21.3009C69.4266 21.221 68.7473 20.1021 70.2657 19.4228C70.8651 19.1431 71.5045 18.9433 72.2237 18.8235C72.3436 18.1442 72.5034 17.4649 72.6233 16.7856C73.4624 12.9495 75.2606 5.95669 76.6192 2.75998C77.6182 0.322486 78.4174 -0.0371439 79.0567 0.00281451C79.8958 0.0827313 80.6151 0.722075 81.694 2.91981C82.4132 4.39829 83.0526 5.99665 83.8518 8.4741C84.6909 11.0714 85.4901 13.7487 86.2093 16.346C86.2893 16.7456 86.4091 17.1851 86.4891 17.5847C87.2483 17.5847 88.487 17.9843 88.447 18.9034C88.447 19.6226 87.7278 20.0222 87.0485 20.1421C87.8477 24.138 88.2073 26.6954 88.4071 30.7312C88.487 32.2097 87.6479 34.3275 85.1704 34.4474C82.4932 34.5273 81.694 32.2496 81.5341 28.5734C81.4942 26.7753 81.2145 24.2579 80.9348 20.3019C79.0567 20.4618 77.1786 20.6216 75.3006 20.8614C75.0608 22.3398 74.8211 23.7784 74.6213 25.2169C74.3016 27.2947 73.942 29.8521 73.6622 30.931C73.1827 33.1687 72.1039 34.0078 71.3047 34.0078C70.8651 34.0078 70.4655 33.7281 70.3457 33.2886C70.1459 32.5294 70.3057 30.2517 70.4655 29.013C70.8651 26.4156 71.2647 23.8583 71.7442 21.3009C71.5045 21.3009 70.7852 21.3009 70.5854 21.3009ZM76.0598 16.8655C75.9399 17.3849 75.86 17.9044 75.7401 18.4638C77.4184 18.2241 79.0967 18.0642 80.7749 17.9444C80.735 17.5048 80.695 17.0653 80.6551 16.6257C80.4952 14.0683 79.9758 11.5909 79.6561 9.07348C79.5762 8.43414 79.2165 6.9157 78.8969 5.35731C77.818 9.1534 76.859 12.9895 76.0598 16.8655Z" fill="#1BE6E4"/>
<path d="M91.0525 29.8521C90.9326 24.8573 91.3722 11.6309 91.6519 9.1534C92.1314 5.35731 94.0894 1.12166 98.4848 1.12166C101.322 1.12166 103.04 3.07965 104.159 5.5571C104.998 7.51509 105.757 9.51303 106.517 11.511C107.076 10.1124 107.675 8.6739 108.275 7.31529C109.194 5.23743 110.113 2.40035 112.311 1.36142C112.99 1.04175 113.709 0.881911 114.468 0.881911C120.103 0.881911 121.461 8.11447 121.741 12.43C122.141 18.9833 121.741 24.4577 121.741 31.0509C121.741 33.0888 120.302 34.4873 118.344 34.4873C116.307 34.4873 114.908 33.1287 114.908 31.0509C114.908 27.974 114.988 26.0161 114.988 22.9392C115.028 19.9823 115.028 17.0253 114.948 14.0284C114.908 11.6309 114.708 4.63805 113.869 4.55813C112.59 4.39829 111.591 8.03455 110.752 9.95258C109.913 11.9106 109.194 13.9485 108.355 15.9464C108.155 16.4259 107.516 17.4249 106.836 17.4249C105.837 17.4249 105.438 16.2261 105.238 15.7866C104.079 12.8296 103.2 10.1923 101.921 7.51509C101.242 6.07657 101.082 5.23743 99.9633 5.23743C99.284 5.23743 98.8045 6.39624 98.7645 7.31529C98.5648 11.6708 98.4049 25.7363 98.4049 29.8521C98.4449 31.3306 97.4859 34.0478 94.7687 34.0478C91.5719 34.0478 91.0924 31.3306 91.0525 29.8521Z" fill="#1BE6E4"/>
<path d="M124.3 29.1329C124.141 26.8552 124.221 21.7005 124.62 16.5858C124.82 13.7087 125.819 3.43928 127.178 1.32146C127.377 1.00179 127.977 0.282526 128.656 0.242567C129.575 0.16265 130.095 0.762033 130.334 1.44134C130.574 2.1606 130.614 2.95977 130.574 3.75895C132.013 1.68109 134.17 0.362445 136.728 0.362445C139.085 0.362445 141.403 1.52125 142.722 3.71899C145.599 8.4741 143.8 15.1872 139.565 18.5038C143.76 19.4628 147.397 22.6995 146.038 28.1339C144.919 32.6093 140.364 34.6072 136.088 34.6072C134.65 34.6072 133.211 34.4074 131.973 33.888C131.493 33.7281 131.093 33.4884 130.694 33.2886C129.935 33.888 128.656 34.1677 127.897 34.1677C126.538 34.1677 124.66 33.5683 124.3 29.1329ZM132.212 7.83476C130.934 11.0714 130.574 15.2272 130.374 18.7435C130.494 22.5396 130.774 26.3357 131.093 30.0919C132.092 30.6513 132.772 30.971 133.971 30.971C136.648 30.971 139.805 29.2128 140.284 26.2958C140.564 24.8173 140.324 23.179 139.605 21.9003C138.606 20.222 136.168 20.4618 134.65 20.5816C133.411 20.6616 131.533 20.3019 131.014 19.0233C130.454 17.6646 132.053 16.6257 133.251 16.4659C133.971 16.386 134.05 16.386 134.69 15.9065C135.169 15.5868 135.609 15.0673 136.008 14.5479C136.848 13.3091 137.367 11.7108 137.567 10.2323C137.807 8.6739 137.926 6.95566 137.487 5.47718C137.087 4.11858 136.528 3.59911 135.889 3.59911C134.49 3.59911 132.772 6.4362 132.212 7.83476Z" fill="#1BE6E4"/>
<path d="M149.137 21.3009C147.979 21.221 147.299 20.1021 148.818 19.4228C149.417 19.1431 150.056 18.9433 150.776 18.8235C150.896 18.1442 151.055 17.4649 151.175 16.7856C152.014 12.9495 153.813 5.95669 155.171 2.75998C156.17 0.322486 156.969 -0.0371439 157.609 0.00281451C158.448 0.0827313 159.167 0.722075 160.246 2.91981C160.965 4.39829 161.605 5.99665 162.404 8.4741C163.243 11.0714 164.042 13.7487 164.761 16.346C164.841 16.7456 164.961 17.1851 165.041 17.5847C165.8 17.5847 167.039 17.9843 166.999 18.9034C166.999 19.6226 166.28 20.0222 165.6 20.1421C166.4 24.138 166.759 26.6954 166.959 30.7312C167.039 32.2097 166.2 34.3275 163.722 34.4474C161.045 34.5273 160.246 32.2496 160.086 28.5734C160.046 26.7753 159.766 24.2579 159.487 20.3019C157.609 20.4618 155.731 20.6216 153.853 20.8614C153.613 22.3398 153.373 23.7784 153.173 25.2169C152.854 27.2947 152.494 29.8521 152.214 30.931C151.735 33.1687 150.656 34.0078 149.857 34.0078C149.417 34.0078 149.018 33.7281 148.898 33.2886C148.698 32.5294 148.858 30.2517 149.018 29.013C149.417 26.4156 149.817 23.8583 150.296 21.3009C150.056 21.3009 149.337 21.3009 149.137 21.3009ZM154.612 16.8655C154.492 17.3849 154.412 17.9044 154.292 18.4638C155.97 18.2241 157.649 18.0642 159.327 17.9444C159.287 17.5048 159.247 17.0653 159.207 16.6257C159.047 14.0683 158.528 11.5909 158.208 9.07348C158.128 8.43414 157.769 6.9157 157.449 5.35731C156.37 9.1534 155.411 12.9895 154.612 16.8655Z" fill="#1BE6E4"/>
</svg>
