<svg width="138" height="22" viewBox="0 0 138 22" fill="none" xmlns="http://www.w3.org/2000/svg">
<path d="M10.0199 21.6724C8.02386 21.6724 6.29458 21.3759 4.8321 20.783C3.36963 20.1901 2.22336 19.2909 1.39331 18.0854C0.563251 16.8798 0.108698 15.358 0.0296448 13.5201C0.00988159 12.7098 0 11.8303 0 10.8817C0 9.93305 0.00988159 9.03382 0.0296448 8.184C0.108698 6.42508 0.563251 4.97248 1.39331 3.82621C2.24312 2.66018 3.40915 1.7906 4.89139 1.21747C6.37363 0.624573 8.08315 0.328125 10.0199 0.328125C11.5812 0.328125 12.9844 0.505994 14.2295 0.861732C15.4746 1.19771 16.5418 1.67202 17.4312 2.28468C18.3205 2.89734 19.0023 3.60882 19.4766 4.41911C19.951 5.20964 20.198 6.04957 20.2178 6.93892C20.2178 7.11679 20.1486 7.27489 20.0102 7.41324C19.8917 7.53182 19.7434 7.5911 19.5656 7.5911H13.0141C12.7967 7.5911 12.6188 7.56146 12.4805 7.50217C12.3619 7.44288 12.2532 7.36383 12.1544 7.26501C12.0753 7.1662 11.9567 7.02785 11.7986 6.84998C11.6603 6.65235 11.4528 6.48437 11.1761 6.34602C10.8994 6.18792 10.514 6.10886 10.0199 6.10886C9.28871 6.10886 8.73534 6.29661 8.35984 6.67212C7.98434 7.02785 7.77682 7.58122 7.7373 8.33222C7.67801 9.97257 7.67801 11.6524 7.7373 13.3718C7.77682 14.2612 8.0041 14.9035 8.41913 15.2988C8.83415 15.694 9.40729 15.8917 10.1385 15.8917C10.6326 15.8917 11.0674 15.8225 11.4429 15.6841C11.8184 15.5458 12.1148 15.3185 12.3322 15.0023C12.5496 14.6861 12.6583 14.281 12.6583 13.7869V13.7572H11.265C11.0476 13.7572 10.8599 13.6782 10.7018 13.5201C10.5437 13.362 10.4646 13.1742 10.4646 12.9568V9.66624C10.4646 9.44885 10.5437 9.2611 10.7018 9.10299C10.8599 8.94488 11.0476 8.86583 11.265 8.86583H19.4174C19.6347 8.86583 19.8225 8.94488 19.9806 9.10299C20.1387 9.2611 20.2178 9.44885 20.2178 9.66624V13.5201C20.2178 15.2988 19.783 16.7909 18.9134 17.9964C18.0438 19.202 16.8383 20.121 15.2967 20.7534C13.775 21.3661 12.016 21.6724 10.0199 21.6724Z" fill="white"/>
<path d="M30.5617 21.6724C27.9727 21.6724 25.9075 21.04 24.366 19.7751C22.8442 18.4905 22.0833 16.4648 22.0833 13.6979C22.0833 13.6584 22.0833 13.6189 22.0833 13.5794C22.0833 13.5398 22.0833 13.5102 22.0833 13.4904C22.1228 11.7908 22.4884 10.358 23.1802 9.19192C23.8916 8.02589 24.8699 7.14643 26.115 6.55354C27.3798 5.96064 28.8522 5.66419 30.5321 5.66419C32.4689 5.66419 34.0598 6.03969 35.3049 6.79069C36.55 7.52193 37.469 8.50021 38.0619 9.72553C38.6745 10.9311 38.9808 12.2651 38.9808 13.7276V14.6169C38.9808 14.8343 38.9018 15.0221 38.7437 15.1802C38.5856 15.3383 38.3978 15.4173 38.1804 15.4173H29.3463C29.3463 15.4371 29.3463 15.4569 29.3463 15.4766C29.3463 15.4964 29.3463 15.526 29.3463 15.5656C29.3463 15.9608 29.3759 16.2968 29.4352 16.5735C29.5143 16.8304 29.6427 17.028 29.8206 17.1664C29.9985 17.3047 30.2257 17.3739 30.5024 17.3739C30.621 17.3739 30.7198 17.3541 30.7989 17.3146C30.8977 17.2751 30.9866 17.2158 31.0657 17.1367C31.1645 17.0379 31.2633 16.9391 31.3621 16.8403C31.54 16.6624 31.6882 16.5537 31.8068 16.5142C31.9254 16.4549 32.1032 16.4253 32.3404 16.4253H37.9433C38.1409 16.4253 38.299 16.4845 38.4176 16.6031C38.5559 16.7217 38.6152 16.8798 38.5955 17.0774C38.5757 17.4529 38.3978 17.9075 38.0619 18.4411C37.7456 18.955 37.2614 19.4589 36.6093 19.953C35.9571 20.4471 35.127 20.8621 34.1191 21.1981C33.1112 21.5143 31.9254 21.6724 30.5617 21.6724ZM29.3463 11.7117H31.7179V11.6821C31.7179 11.2473 31.6685 10.8916 31.5696 10.6149C31.4906 10.3382 31.3621 10.1406 31.1843 10.022C31.0064 9.88364 30.789 9.81447 30.5321 9.81447C30.2752 9.81447 30.0578 9.88364 29.8799 10.022C29.702 10.1406 29.5637 10.3382 29.4649 10.6149C29.3858 10.8916 29.3463 11.2473 29.3463 11.6821V11.7117Z" fill="white"/>
<path d="M50.603 21.3759C49.18 21.3759 47.9053 21.1882 46.7788 20.8127C45.6721 20.4174 44.7926 19.7554 44.1404 18.8265C43.508 17.8976 43.1918 16.6229 43.1918 15.0023V11.1485H40.8499C40.6325 11.1485 40.4447 11.0694 40.2866 10.9113C40.1285 10.7532 40.0494 10.5655 40.0494 10.3481V6.76105C40.0494 6.54365 40.1285 6.3559 40.2866 6.1978C40.4447 6.03969 40.6325 5.96064 40.8499 5.96064H43.1918V1.12854C43.1918 0.91114 43.2709 0.72339 43.429 0.565284C43.5871 0.407178 43.7748 0.328125 43.9922 0.328125H49.18C49.3974 0.328125 49.5852 0.407178 49.7433 0.565284C49.9014 0.72339 49.9805 0.91114 49.9805 1.12854V5.96064H53.7157C53.9331 5.96064 54.1208 6.03969 54.279 6.1978C54.4371 6.3559 54.5161 6.54365 54.5161 6.76105V10.3481C54.5161 10.5655 54.4371 10.7532 54.279 10.9113C54.1208 11.0694 53.9331 11.1485 53.7157 11.1485H49.9805V14.4094C49.9805 14.864 50.0793 15.2296 50.2769 15.5063C50.4943 15.7632 50.8204 15.8917 51.2552 15.8917H53.9529C54.1703 15.8917 54.358 15.9707 54.5161 16.1288C54.6742 16.2869 54.7533 16.4747 54.7533 16.6921V20.5755C54.7533 20.7929 54.6742 20.9807 54.5161 21.1388C54.358 21.2969 54.1703 21.3759 53.9529 21.3759H50.603Z" fill="white"/>
<path d="M65.7879 21.6724C63.5941 21.6724 61.7858 21.3759 60.3629 20.783C58.9399 20.1901 57.8727 19.4095 57.1612 18.4411C56.4497 17.4727 56.0742 16.445 56.0347 15.358C56.0347 15.1802 56.094 15.032 56.2126 14.9134C56.3509 14.775 56.509 14.7059 56.6869 14.7059H62.3194C62.6356 14.7059 62.8728 14.7553 63.0309 14.8541C63.2088 14.9331 63.3965 15.0517 63.5941 15.2098C63.7918 15.3482 63.9894 15.4766 64.187 15.5952C64.4044 15.694 64.6416 15.7731 64.8985 15.8324C65.1752 15.8719 65.4716 15.8917 65.7879 15.8917C66.4598 15.8917 66.9934 15.8225 67.3887 15.6841C67.8037 15.526 68.0112 15.3185 68.0112 15.0616C68.0112 14.8244 67.8926 14.6268 67.6555 14.4687C67.4381 14.3106 67.0527 14.1723 66.4993 14.0537C65.946 13.9153 65.1752 13.7869 64.187 13.6683C62.6257 13.4509 61.272 13.0853 60.1257 12.5714C58.9794 12.0576 58.0901 11.356 57.4577 10.4667C56.845 9.55754 56.5387 8.4508 56.5387 7.14643C56.5387 5.80253 56.9142 4.61674 57.6652 3.58905C58.4359 2.56137 59.4933 1.76096 60.8372 1.18782C62.2008 0.614691 63.7819 0.328125 65.5803 0.328125C67.0626 0.328125 68.3768 0.525757 69.5231 0.921021C70.6694 1.29652 71.6378 1.80048 72.4283 2.43291C73.2188 3.04557 73.8216 3.70763 74.2366 4.41911C74.6517 5.13059 74.8691 5.81242 74.8888 6.4646C74.8888 6.64247 74.8196 6.80058 74.6813 6.93892C74.5627 7.0575 74.4244 7.11679 74.2663 7.11679H68.3373C68.0606 7.11679 67.8334 7.07726 67.6555 6.99821C67.4974 6.91916 67.3294 6.80058 67.1515 6.64247C67.0527 6.54365 66.865 6.43496 66.5883 6.31638C66.3314 6.17803 65.9954 6.10886 65.5803 6.10886C65.0863 6.10886 64.7206 6.18792 64.4835 6.34602C64.2661 6.48437 64.1574 6.682 64.1574 6.93892C64.1574 7.11679 64.2463 7.28477 64.4242 7.44288C64.6021 7.60099 64.9282 7.73933 65.4025 7.85791C65.8768 7.97649 66.5586 8.09507 67.448 8.21364C69.4243 8.4508 71.0053 8.83619 72.1911 9.36979C73.3967 9.88364 74.2663 10.5753 74.7999 11.4449C75.3532 12.3145 75.6299 13.3916 75.6299 14.6762C75.6299 16.1189 75.1951 17.364 74.3256 18.4115C73.4757 19.4589 72.3097 20.2692 70.8275 20.8423C69.3452 21.3957 67.6654 21.6724 65.7879 21.6724Z" fill="#FEE63B"/>
<path d="M78.3058 21.3759C78.0885 21.3759 77.9007 21.2969 77.7426 21.1388C77.5845 20.9807 77.5054 20.7929 77.5054 20.5755V1.12854C77.5054 0.91114 77.5845 0.72339 77.7426 0.565284C77.9007 0.407178 78.0885 0.328125 78.3058 0.328125H83.6123C83.8297 0.328125 84.0174 0.407178 84.1755 0.565284C84.3336 0.72339 84.4127 0.91114 84.4127 1.12854V20.5755C84.4127 20.7929 84.3336 20.9807 84.1755 21.1388C84.0174 21.2969 83.8297 21.3759 83.6123 21.3759H78.3058Z" fill="#FEE63B"/>
<path d="M95.2699 21.6724C93.4516 21.6724 91.92 21.4254 90.6749 20.9313C89.4298 20.4372 88.4713 19.6961 87.7994 18.7079C87.1472 17.7197 86.7717 16.5043 86.6729 15.0616C86.6531 14.607 86.6432 14.1426 86.6432 13.6683C86.6432 13.1742 86.6531 12.7098 86.6729 12.275C86.7717 10.8125 87.1768 9.59707 87.8883 8.62867C88.5998 7.64051 89.5781 6.89939 90.8231 6.40531C92.0682 5.91123 93.5505 5.66419 95.2699 5.66419C96.9893 5.66419 98.4715 5.91123 99.7166 6.40531C100.962 6.89939 101.94 7.64051 102.651 8.62867C103.363 9.59707 103.768 10.8125 103.867 12.275C103.906 12.7098 103.926 13.1742 103.926 13.6683C103.926 14.1426 103.906 14.607 103.867 15.0616C103.768 16.5043 103.383 17.7197 102.711 18.7079C102.059 19.6961 101.11 20.4372 99.8648 20.9313C98.6197 21.4254 97.0881 21.6724 95.2699 21.6724ZM95.2699 16.9292C95.843 16.9292 96.1987 16.7711 96.3371 16.4549C96.4754 16.1189 96.5644 15.6051 96.6039 14.9134C96.6236 14.6169 96.6335 14.2019 96.6335 13.6683C96.6335 13.1347 96.6236 12.7197 96.6039 12.4232C96.5644 11.771 96.4754 11.2769 96.3371 10.941C96.1987 10.5852 95.843 10.4074 95.2699 10.4074C94.7165 10.4074 94.3608 10.5852 94.2026 10.941C94.0643 11.2769 93.9754 11.771 93.9358 12.4232C93.9161 12.7197 93.9062 13.1347 93.9062 13.6683C93.9062 14.2019 93.9161 14.6169 93.9358 14.9134C93.9754 15.6051 94.0643 16.1189 94.2026 16.4549C94.3608 16.7711 94.7165 16.9292 95.2699 16.9292Z" fill="#FEE63B"/>
<path d="M115.654 21.3759C114.231 21.3759 112.956 21.1882 111.83 20.8127C110.723 20.4174 109.843 19.7554 109.191 18.8265C108.559 17.8976 108.242 16.6229 108.242 15.0023V11.1485H105.901C105.683 11.1485 105.495 11.0694 105.337 10.9113C105.179 10.7532 105.1 10.5655 105.1 10.3481V6.76105C105.1 6.54365 105.179 6.3559 105.337 6.1978C105.495 6.03969 105.683 5.96064 105.901 5.96064H108.242V1.12854C108.242 0.91114 108.322 0.72339 108.48 0.565284C108.638 0.407178 108.825 0.328125 109.043 0.328125H114.231C114.448 0.328125 114.636 0.407178 114.794 0.565284C114.952 0.72339 115.031 0.91114 115.031 1.12854V5.96064H118.766C118.984 5.96064 119.172 6.03969 119.33 6.1978C119.488 6.3559 119.567 6.54365 119.567 6.76105V10.3481C119.567 10.5655 119.488 10.7532 119.33 10.9113C119.172 11.0694 118.984 11.1485 118.766 11.1485H115.031V14.4094C115.031 14.864 115.13 15.2296 115.328 15.5063C115.545 15.7632 115.871 15.8917 116.306 15.8917H119.004C119.221 15.8917 119.409 15.9707 119.567 16.1288C119.725 16.2869 119.804 16.4747 119.804 16.6921V20.5755C119.804 20.7929 119.725 20.9807 119.567 21.1388C119.409 21.2969 119.221 21.3759 119.004 21.3759H115.654Z" fill="#FEE63B"/>
<path d="M129.119 21.6724C127.696 21.6724 126.481 21.534 125.473 21.2574C124.485 20.9609 123.674 20.5953 123.042 20.1605C122.429 19.706 121.975 19.2415 121.678 18.7672C121.382 18.2731 121.224 17.8284 121.204 17.4332C121.184 17.2158 121.243 17.028 121.382 16.8699C121.54 16.7118 121.718 16.6328 121.915 16.6328H127.074C127.093 16.6328 127.113 16.6328 127.133 16.6328C127.153 16.6328 127.172 16.6328 127.192 16.6328C127.449 16.6525 127.676 16.7415 127.874 16.8996C128.091 17.0379 128.309 17.1763 128.526 17.3146C128.763 17.4529 129.03 17.5221 129.327 17.5221C129.485 17.5221 129.633 17.4826 129.771 17.4035C129.929 17.3245 130.008 17.2158 130.008 17.0774C130.008 16.8996 129.949 16.7415 129.831 16.6031C129.732 16.4648 129.465 16.3264 129.03 16.1881C128.615 16.03 127.914 15.862 126.925 15.6841C126.016 15.5063 125.147 15.2296 124.317 14.8541C123.487 14.4786 122.805 13.9549 122.271 13.2829C121.757 12.611 121.5 11.7611 121.5 10.7335C121.5 9.88364 121.787 9.07335 122.36 8.30258C122.933 7.53182 123.773 6.89939 124.88 6.40531C126.006 5.91123 127.38 5.66419 129.001 5.66419C130.226 5.66419 131.313 5.80253 132.262 6.07922C133.21 6.3559 134.011 6.71164 134.663 7.14643C135.335 7.58122 135.849 8.04566 136.204 8.53974C136.56 9.03382 136.748 9.48837 136.768 9.9034C136.787 10.1208 136.728 10.3085 136.59 10.4667C136.451 10.6248 136.293 10.7038 136.115 10.7038H131.431C131.392 10.7038 131.342 10.7038 131.283 10.7038C131.224 10.7038 131.175 10.7038 131.135 10.7038C130.858 10.7038 130.611 10.6346 130.394 10.4963C130.176 10.3382 129.959 10.19 129.742 10.0516C129.524 9.89352 129.267 9.81447 128.971 9.81447C128.833 9.81447 128.694 9.86387 128.556 9.96269C128.437 10.0417 128.378 10.1504 128.378 10.2888C128.378 10.4469 128.437 10.605 128.556 10.7631C128.674 10.9014 128.961 11.0398 129.416 11.1781C129.87 11.2967 130.611 11.435 131.639 11.5932C133.062 11.7908 134.198 12.1564 135.048 12.69C135.898 13.2236 136.501 13.8363 136.856 14.528C137.232 15.2197 137.42 15.9015 137.42 16.5735C137.42 17.6209 137.094 18.53 136.441 19.3008C135.809 20.0716 134.87 20.6645 133.625 21.0795C132.4 21.4748 130.898 21.6724 129.119 21.6724Z" fill="#FEE63B"/>
</svg>
