<svg width="115" height="18" viewBox="0 0 115 18" fill="none" xmlns="http://www.w3.org/2000/svg">
<path d="M0 17.8618V0.138315H3.57001V17.8618H0ZM4.93725 10.6205V7.45558H5.2664C6.34669 7.45558 7.03875 7.01671 7.34258 6.13898C7.4101 5.91954 7.44386 5.69167 7.44386 5.45536C7.44386 4.56074 7.02187 3.96152 6.1779 3.65769C5.90782 3.55641 5.60399 3.50577 5.2664 3.50577H4.93725V0.138315H5.49428C7.70549 0.172074 9.2584 0.95697 10.153 2.493C10.575 3.21882 10.786 4.03748 10.786 4.94897C10.7691 6.68756 10.1952 8.02104 9.06429 8.94941C9.90826 9.48956 10.4484 10.4686 10.6847 11.8864C10.7016 12.0552 10.7185 12.2156 10.7354 12.3675L11.1658 17.8618H7.87428L7.4945 13.355C7.35946 12.0046 6.97123 11.1691 6.32981 10.8484C6.02598 10.7133 5.65463 10.6374 5.21576 10.6205H4.93725Z" fill="#FFED00"/>
<path d="M12.6849 12.9245V4.5945C12.6849 3.69989 13.0647 2.7884 13.8243 1.86002C14.8371 0.6447 16.1199 0.0285982 17.6728 0.0117188V3.58173C16.9808 3.59861 16.525 3.98684 16.3056 4.74642C16.2718 4.86457 16.255 4.94897 16.255 4.99961V12.9245C16.255 13.6166 16.6347 14.0892 17.3943 14.3424C17.5125 14.3762 17.5969 14.393 17.6475 14.393V17.9884C16.6854 17.9884 15.7232 17.6424 14.7611 16.9503C13.3939 15.9375 12.7018 14.5956 12.6849 12.9245ZM19.0401 17.9884V14.393C19.3101 14.393 19.614 14.2496 19.9516 13.9626C20.2723 13.6757 20.4411 13.3296 20.4579 12.9245V4.99961C20.4579 4.69578 20.3145 4.37507 20.0275 4.03748C19.7575 3.75053 19.4283 3.59861 19.0401 3.58173V0.0117188C20.7449 0.0117188 22.1121 0.745977 23.1418 2.21449C23.7326 3.05847 24.028 3.8518 24.028 4.5945V12.9245C24.028 14.7982 23.1924 16.2329 21.5214 17.2288C20.6436 17.7352 19.8165 17.9884 19.0401 17.9884Z" fill="#FFED00"/>
<path d="M25.8003 12.9752V0.138315H29.3703V12.9752C29.3872 13.6672 29.7754 14.123 30.535 14.3424C30.6532 14.3762 30.7376 14.393 30.7882 14.393V17.9884C29.8092 17.9884 28.8302 17.6424 27.8512 16.9503C26.5008 15.9544 25.8172 14.6294 25.8003 12.9752ZM32.1554 17.9884V14.393C32.4593 14.393 32.78 14.2496 33.1176 13.9626C33.4045 13.6925 33.5564 13.3634 33.5733 12.9752V0.138315H37.118V12.9752C37.118 14.8826 36.274 16.3089 34.5861 17.2541C33.7421 17.7436 32.9319 17.9884 32.1554 17.9884Z" fill="#FFED00"/>
<path d="M39.017 17.8618V0.138315H42.587V14.3171H48.537V17.8618H39.017Z" fill="#FFED00"/>
<path d="M49.9802 17.8618V0.138315H59.1964V3.68301H53.5502V7.27834H56.8164V10.8484H53.5502V14.2918H59.1964V17.8618H49.9802Z" fill="#FFED00"/>
<path d="M60.5383 3.63237V0.138315H71.5015V3.63237H67.8049V17.8618H64.2349V3.63237H60.5383Z" fill="#FFED00"/>
<path d="M72.2611 3.63237V0.138315H83.2243V3.63237H79.5277V17.8618H75.9577V3.63237H72.2611Z" fill="#FFED00"/>
<path d="M84.6675 17.8618V0.138315H88.2376V17.8618H84.6675Z" fill="#FFED00"/>
<path d="M90.3644 17.8618V5.40472H90.5669L93.9344 10.823V17.8618H90.3644ZM90.3644 2.46769V0.138315H93.2761L101.631 13.6082V17.8618H99.9351L90.3644 2.46769ZM98.0614 5.2528V0.138315H101.631V10.6711H101.429L98.0614 5.2528Z" fill="#FFED00"/>
<path d="M103.657 12.9245V4.5945C103.657 3.69989 104.037 2.7884 104.796 1.86002C105.809 0.6447 107.092 0.0285982 108.645 0.0117188V3.58173C107.953 3.59861 107.497 3.98684 107.278 4.74642C107.244 4.86457 107.227 4.94897 107.227 4.99961V12.9245C107.227 13.6166 107.607 14.0892 108.366 14.3424C108.485 14.3762 108.569 14.393 108.62 14.393V17.9884C107.657 17.9884 106.695 17.6424 105.733 16.9503C104.366 15.9375 103.674 14.5956 103.657 12.9245ZM110.012 17.9884V14.393C110.282 14.393 110.586 14.2496 110.924 13.9626C111.244 13.6757 111.413 13.3296 111.43 12.9245V4.99961C111.43 4.69578 111.287 4.37507 111 4.03748C110.729 3.75053 110.4 3.59861 110.012 3.58173V0.0117188C111.717 0.0117188 113.084 0.745977 114.114 2.21449C114.705 3.05847 115 3.8518 115 4.5945V12.9245C115 14.7982 114.164 16.2329 112.493 17.2288C111.616 17.7352 110.789 17.9884 110.012 17.9884Z" fill="#FFED00"/>
</svg>
