<svg width="141" height="40" viewBox="0 0 141 40" fill="none" xmlns="http://www.w3.org/2000/svg">
<path d="M38.6365 10.3363C37.8708 10.3363 37.1578 10.2119 36.4975 9.96306C35.8466 9.70465 35.2772 9.34575 34.7891 8.88636C34.3106 8.41739 33.9373 7.86708 33.6693 7.23542C33.4013 6.60375 33.2674 5.91467 33.2674 5.16816C33.2674 4.42164 33.4013 3.73256 33.6693 3.10089C33.9373 2.46923 34.3153 1.9237 34.8034 1.46431C35.2915 0.995349 35.861 0.636449 36.5118 0.387612C37.1626 0.129204 37.8756 0 38.6508 0C39.4739 0 40.2252 0.14356 40.9047 0.43068C41.5843 0.708229 42.1585 1.12455 42.6275 1.67965L41.4216 2.81377C41.0579 2.42138 40.6511 2.12947 40.2013 1.93806C39.7515 1.73707 39.2634 1.63658 38.737 1.63658C38.2106 1.63658 37.7273 1.72272 37.287 1.89499C36.8564 2.06726 36.4783 2.31131 36.1529 2.62715C35.8371 2.94298 35.5882 3.31623 35.4064 3.74691C35.2341 4.17759 35.148 4.65134 35.148 5.16816C35.148 5.68497 35.2341 6.15872 35.4064 6.5894C35.5882 7.02008 35.8371 7.39333 36.1529 7.70917C36.4783 8.025 36.8564 8.26905 37.287 8.44132C37.7273 8.61359 38.2106 8.69973 38.737 8.69973C39.2634 8.69973 39.7515 8.60402 40.2013 8.41261C40.6511 8.21163 41.0579 7.91015 41.4216 7.50818L42.6275 8.65666C42.1585 9.20219 41.5843 9.61851 40.9047 9.90563C40.2252 10.1928 39.4691 10.3363 38.6365 10.3363Z" fill="white"/>
<path d="M46.2296 10.1928L50.7517 0.14356H52.5893L57.1258 10.1928H55.1734L51.2829 1.13412H52.0294L48.1533 10.1928H46.2296ZM48.3112 7.86708L48.8137 6.40277H54.2402L54.7427 7.86708H48.3112Z" fill="white"/>
<path d="M64.9645 10.3363C64.1797 10.3363 63.4284 10.2262 62.7106 10.0061C61.9928 9.77643 61.4233 9.48452 61.0022 9.13041L61.6482 7.68045C62.0502 7.99629 62.5479 8.25948 63.1413 8.47003C63.7346 8.68059 64.3424 8.78587 64.9645 8.78587C65.4909 8.78587 65.9168 8.72844 66.2422 8.61359C66.5676 8.49875 66.8068 8.34561 66.96 8.1542C67.1131 7.95322 67.1897 7.72831 67.1897 7.47947C67.1897 7.17321 67.0796 6.92916 66.8595 6.74731C66.6393 6.5559 66.3522 6.40756 65.9981 6.30228C65.6536 6.18743 65.266 6.08215 64.8353 5.98645C64.4142 5.89074 63.9883 5.78068 63.5576 5.65626C63.1365 5.52227 62.7489 5.35478 62.3948 5.1538C62.0502 4.94325 61.7679 4.6657 61.5478 4.32115C61.3276 3.97661 61.2176 3.53636 61.2176 3.0004C61.2176 2.45487 61.3611 1.9572 61.6482 1.50738C61.9449 1.04799 62.39 0.684302 62.9834 0.416323C63.5863 0.138774 64.3472 0 65.266 0C65.8689 0 66.4671 0.0765654 67.0605 0.229696C67.6538 0.382827 68.1706 0.602952 68.6109 0.890072L68.0223 2.34003C67.5725 2.07205 67.1083 1.87585 66.6298 1.75143C66.1512 1.61744 65.6918 1.55045 65.2516 1.55045C64.7348 1.55045 64.3137 1.61266 63.9883 1.73707C63.6724 1.86149 63.438 2.02419 63.2848 2.22518C63.1413 2.42616 63.0695 2.65586 63.0695 2.91427C63.0695 3.22053 63.1748 3.46936 63.3853 3.66078C63.6054 3.84262 63.8878 3.98618 64.2323 4.09146C64.5864 4.19673 64.9788 4.30201 65.4095 4.40729C65.8402 4.503 66.2661 4.61306 66.6872 4.73748C67.1179 4.8619 67.5055 5.0246 67.85 5.22558C68.2041 5.42656 68.4865 5.69933 68.697 6.04387C68.9172 6.38841 69.0272 6.82388 69.0272 7.35027C69.0272 7.88622 68.8789 8.3839 68.5822 8.84329C68.2951 9.29311 67.85 9.6568 67.2471 9.93434C66.6441 10.2023 65.8833 10.3363 64.9645 10.3363Z" fill="white"/>
<path d="M74.3232 10.1928V0.14356H76.1895V10.1928H74.3232Z" fill="white"/>
<path d="M82.3531 10.1928V0.14356H83.8891L90.1914 7.88144H89.4306V0.14356H91.2825V10.1928H89.7464L83.4441 2.45487H84.205V10.1928H82.3531Z" fill="white"/>
<path d="M102.129 10.3363C101.345 10.3363 100.622 10.2071 99.9617 9.9487C99.3013 9.69029 98.7271 9.33139 98.239 8.872C97.7509 8.40304 97.3728 7.85751 97.1049 7.23542C96.8369 6.60375 96.7029 5.91467 96.7029 5.16816C96.7029 4.42164 96.8369 3.73734 97.1049 3.11525C97.3728 2.48359 97.7509 1.93806 98.239 1.47867C98.7271 1.0097 99.3013 0.64602 99.9617 0.387612C100.622 0.129204 101.34 0 102.115 0C102.9 0 103.618 0.129204 104.268 0.387612C104.929 0.64602 105.503 1.0097 105.991 1.47867C106.479 1.93806 106.857 2.48359 107.125 3.11525C107.393 3.73734 107.527 4.42164 107.527 5.16816C107.527 5.91467 107.393 6.60375 107.125 7.23542C106.857 7.86708 106.479 8.41261 105.991 8.872C105.503 9.33139 104.929 9.69029 104.268 9.9487C103.618 10.2071 102.905 10.3363 102.129 10.3363ZM102.115 8.69973C102.622 8.69973 103.091 8.61359 103.522 8.44132C103.953 8.26905 104.326 8.025 104.642 7.70917C104.958 7.38376 105.202 7.01051 105.374 6.5894C105.556 6.15872 105.647 5.68497 105.647 5.16816C105.647 4.65134 105.556 4.18238 105.374 3.76127C105.202 3.33059 104.958 2.95733 104.642 2.6415C104.326 2.3161 103.953 2.06726 103.522 1.89499C103.091 1.72272 102.622 1.63658 102.115 1.63658C101.608 1.63658 101.139 1.72272 100.708 1.89499C100.287 2.06726 99.9138 2.3161 99.5884 2.6415C99.2726 2.95733 99.0238 3.33059 98.8419 3.76127C98.6696 4.18238 98.5835 4.65134 98.5835 5.16816C98.5835 5.6754 98.6696 6.14436 98.8419 6.57504C99.0238 7.00572 99.2726 7.38376 99.5884 7.70917C99.9043 8.025 100.278 8.26905 100.708 8.44132C101.139 8.61359 101.608 8.69973 102.115 8.69973Z" fill="white"/>
<path d="M0 17.7899H4.7503L9.13735 30.6995L8.49466 30.4201L12.3228 20.8916L14.195 26.4522L8.27112 39.1663L0 17.7899ZM10.311 17.7899H14.3347L19.3924 30.2804L18.6659 30.1686L22.4382 17.7899H26.7973L18.8615 39.1104L10.311 17.7899Z" fill="white"/>
<path d="M30.3583 17.6502H34.41V38.2162H30.3583V17.6502Z" fill="white"/>
<path d="M58.1325 39.0545L42.5403 24.9712L43.7419 25.6419L43.8257 38.2162H39.7181V16.8398H39.8858L55.1426 30.8672L54.2484 30.476L54.1646 17.6502H58.2443V39.0545H58.1325Z" fill="white"/>
<path d="M63.5406 38.2162V17.6502H69.688C71.7558 17.6502 73.5162 17.9575 74.9692 18.5723C76.4223 19.187 77.5866 20.0067 78.4621 21.0313C79.3563 22.0558 80.0083 23.2015 80.4181 24.4683C80.8279 25.735 81.0329 27.0111 81.0329 28.2964C81.0329 29.824 80.7534 31.2025 80.1946 32.432C79.6543 33.6429 78.9092 34.6861 77.9591 35.5616C77.0091 36.4185 75.91 37.0798 74.6619 37.5456C73.4137 37.9927 72.0911 38.2162 70.694 38.2162H63.5406ZM67.5923 34.3042H69.9954C71.02 34.3042 71.9514 34.1738 72.7897 33.913C73.628 33.6335 74.3452 33.233 74.9413 32.7114C75.556 32.1898 76.0218 31.5378 76.3384 30.7554C76.6738 29.9544 76.8414 29.0416 76.8414 28.017C76.8414 26.6758 76.6179 25.586 76.1708 24.7477C75.7423 23.8908 75.2021 23.2295 74.5501 22.7637C73.9167 22.298 73.2647 21.9813 72.5941 21.8137C71.9235 21.6274 71.3553 21.5342 70.8896 21.5342H67.5923V34.3042Z" fill="white"/>
<path d="M96.0797 22.624C95.2973 22.1956 94.4963 21.8416 93.6766 21.5622C92.8756 21.2828 92.1211 21.143 91.4132 21.143C90.5377 21.143 89.8484 21.32 89.3455 21.674C88.8425 22.0279 88.591 22.5588 88.591 23.2667C88.591 23.7511 88.7773 24.1888 89.1499 24.58C89.5411 24.9526 90.0347 25.2879 90.6308 25.586C91.2456 25.884 91.879 26.1541 92.531 26.3963C93.1271 26.6199 93.7139 26.89 94.2914 27.2067C94.8875 27.5047 95.4184 27.8866 95.8841 28.3523C96.3498 28.7994 96.7224 29.3676 97.0018 30.0569C97.2813 30.7275 97.421 31.5565 97.421 32.5438C97.421 33.587 97.1509 34.5557 96.6106 35.4498C96.0704 36.344 95.2787 37.0705 94.2355 37.6294C93.1923 38.1696 91.9069 38.4397 90.3793 38.4397C89.5969 38.4397 88.7959 38.3652 87.9763 38.2162C87.1752 38.0485 86.3835 37.8064 85.6011 37.4897C84.8187 37.1544 84.0642 36.7352 83.3377 36.2322L85.1261 33.0747C85.6104 33.4286 86.132 33.7453 86.6909 34.0247C87.2684 34.2856 87.8459 34.4905 88.4233 34.6395C89.0008 34.7885 89.5317 34.863 90.0161 34.863C90.5004 34.863 90.9848 34.7978 91.4691 34.6674C91.9721 34.5184 92.3819 34.2762 92.6986 33.9409C93.0339 33.6056 93.2016 33.1399 93.2016 32.5438C93.2016 32.1339 93.0619 31.7614 92.7824 31.4261C92.5216 31.0907 92.1584 30.7834 91.6927 30.5039C91.2456 30.2245 90.7519 29.9823 90.2117 29.7774C89.5783 29.5352 88.9263 29.2558 88.2557 28.9391C87.5851 28.6224 86.9517 28.2406 86.3556 27.7935C85.7781 27.3278 85.303 26.7596 84.9305 26.0889C84.5765 25.3997 84.3996 24.5614 84.3996 23.5741C84.3996 22.3818 84.6604 21.348 85.182 20.4724C85.7222 19.5969 86.4766 18.9076 87.4453 18.4046C88.414 17.883 89.5317 17.5943 90.7985 17.5384C92.4564 17.5384 93.7977 17.734 94.8223 18.1252C95.8655 18.5164 96.7969 18.9821 97.6166 19.5223L96.0797 22.624Z" fill="white"/>
<path d="M100.132 27.9611C100.132 26.5454 100.402 25.2041 100.942 23.9373C101.482 22.6706 102.227 21.5529 103.177 20.5842C104.146 19.5969 105.264 18.8238 106.531 18.2649C107.797 17.7061 109.157 17.4266 110.61 17.4266C112.045 17.4266 113.395 17.7061 114.662 18.2649C115.929 18.8238 117.046 19.5969 118.015 20.5842C119.002 21.5529 119.766 22.6706 120.306 23.9373C120.865 25.2041 121.145 26.5454 121.145 27.9611C121.145 29.4142 120.865 30.7741 120.306 32.0408C119.766 33.3075 119.002 34.4253 118.015 35.394C117.046 36.344 115.929 37.0892 114.662 37.6294C113.395 38.1696 112.045 38.4397 110.61 38.4397C109.157 38.4397 107.797 38.1696 106.531 37.6294C105.264 37.0892 104.146 36.344 103.177 35.394C102.227 34.4253 101.482 33.3075 100.942 32.0408C100.402 30.7741 100.132 29.4142 100.132 27.9611ZM104.323 27.9611C104.323 28.8739 104.481 29.7308 104.798 30.5319C105.133 31.3143 105.59 32.0129 106.167 32.6276C106.763 33.2237 107.443 33.6894 108.207 34.0247C108.99 34.3601 109.837 34.5277 110.75 34.5277C111.626 34.5277 112.436 34.3601 113.181 34.0247C113.945 33.6894 114.606 33.2237 115.165 32.6276C115.724 32.0129 116.162 31.3143 116.478 30.5319C116.795 29.7308 116.953 28.8739 116.953 27.9611C116.953 27.0297 116.786 26.1635 116.45 25.3624C116.134 24.5614 115.687 23.8628 115.109 23.2667C114.55 22.652 113.889 22.1769 113.125 21.8416C112.361 21.5063 111.532 21.3386 110.638 21.3386C109.744 21.3386 108.915 21.5063 108.151 21.8416C107.388 22.1769 106.717 22.652 106.139 23.2667C105.562 23.8628 105.115 24.5614 104.798 25.3624C104.481 26.1635 104.323 27.0297 104.323 27.9611Z" fill="white"/>
<path d="M131.416 17.6502C132.701 17.6502 133.847 17.8178 134.853 18.1531C135.858 18.4698 136.697 18.9355 137.367 19.5503C138.057 20.1464 138.578 20.8729 138.932 21.7298C139.286 22.5681 139.463 23.5182 139.463 24.58C139.463 25.4183 139.333 26.2566 139.072 27.0949C138.83 27.9332 138.42 28.697 137.842 29.3862C137.284 30.0755 136.538 30.6343 135.607 31.0628C134.676 31.4726 133.521 31.6775 132.142 31.6775H129.236V38.2162H125.184V17.6502H131.416ZM132.114 27.7655C132.729 27.7655 133.241 27.6631 133.651 27.4582C134.061 27.2532 134.378 26.9924 134.601 26.6758C134.843 26.3591 135.011 26.0331 135.104 25.6977C135.216 25.3438 135.272 25.0178 135.272 24.7197C135.272 24.4962 135.234 24.2168 135.16 23.8815C135.104 23.5275 134.974 23.1736 134.769 22.8196C134.564 22.4657 134.247 22.1676 133.819 21.9254C133.409 21.6833 132.85 21.5622 132.142 21.5622H129.236V27.7655H132.114ZM135.914 30.2804L141 38.2162H136.278L131.08 30.3922L135.914 30.2804Z" fill="white"/>
</svg>
