<svg width="58" height="58" viewBox="0 0 58 58" fill="none" xmlns="http://www.w3.org/2000/svg">
<path d="M31.2338 51.5196C29.8037 51.7383 28.2784 52.1757 27.1107 53.0601C25.9981 53.9026 25.1423 55.0703 23.7882 55.5591C21.953 56.2247 19.7678 55.4012 17.8945 55.0836C19.1973 55.9033 20.4943 56.8447 21.9131 57.4476C24.6536 58.6134 27.1602 57.8527 29.2864 55.9375C31.173 54.2392 32.742 52.6322 35.4559 52.6341C36.5323 52.6341 37.6163 52.7539 38.6908 52.8224C36.2052 51.9133 33.9572 51.1031 31.2357 51.5177L31.2338 51.5196Z" fill="#FF1300"/>
<path d="M42.1935 47.3869C41.0638 48.2903 39.9627 49.4333 39.394 50.7817C38.852 52.0692 38.6941 53.5051 37.768 54.6081C36.5109 56.101 34.2078 56.4814 32.4258 57.1432C33.9643 57.2022 35.5562 57.3695 37.0871 57.1832C40.0444 56.8237 41.834 54.9086 42.7184 52.189C43.5038 49.7756 44.0592 47.5999 46.4098 46.2439C47.3417 45.7057 48.3401 45.2683 49.3044 44.7891C46.697 45.2455 44.3463 45.6658 42.1954 47.3869H42.1935Z" fill="#FF1300"/>
<path d="M49.6202 38.3258C49.0934 39.6723 48.7111 41.2128 48.8937 42.6657C49.0667 44.0522 49.6487 45.3758 49.3977 46.7927C49.0553 48.7154 47.2524 50.195 46.0391 51.6594C47.4008 50.9405 48.8633 50.2901 50.0956 49.362C52.4767 47.5705 53.0701 45.0202 52.4748 42.2207C51.948 39.737 51.3413 37.5746 52.6992 35.2278C53.2374 34.2959 53.884 33.4172 54.4793 32.5215C52.4501 34.2198 50.6243 35.7603 49.6221 38.3258H49.6202Z" fill="#FF1300"/>
<path d="M51.5196 26.7695C51.7383 28.1997 52.1757 29.7249 53.0601 30.8926C53.9026 32.0052 55.0703 32.861 55.5591 34.2151C56.2247 36.0503 55.4012 38.2355 55.0836 40.1088C55.9033 38.8061 56.8447 37.509 57.4476 36.0903C58.6134 33.3498 57.8527 30.8432 55.9375 28.717C54.2392 26.8304 52.6322 25.2614 52.6341 22.5475C52.6341 21.4711 52.7539 20.387 52.8224 19.3125C51.9133 21.7982 51.1031 24.0461 51.5177 26.7676L51.5196 26.7695Z" fill="#FF1300"/>
<path d="M47.3869 15.8072C48.2903 16.9368 49.4333 18.038 50.7817 18.6066C52.0673 19.1486 53.5051 19.3065 54.6081 20.2327C56.101 21.4898 56.4814 23.7929 57.1432 25.5749C57.2022 24.0363 57.3695 22.4445 57.1832 20.9135C56.8237 17.9562 54.9086 16.1666 52.189 15.2823C49.7756 14.4968 47.5999 13.9415 46.2439 11.5908C45.7057 10.659 45.2683 9.66051 44.7891 8.69629C45.2455 11.3037 45.6658 13.6543 47.3869 15.8053V15.8072Z" fill="#FF1300"/>
<path d="M38.3278 8.38257C39.6742 8.90937 41.2147 9.29163 42.6677 9.10906C44.0541 8.93599 45.3778 8.35404 46.7946 8.60508C48.7174 8.9474 50.197 10.7503 51.6614 11.9637C50.9425 10.602 50.2921 9.13949 49.364 7.90711C47.5725 5.52604 45.0221 4.93268 42.2227 5.52795C39.7408 6.05475 37.5766 6.66143 35.2297 5.30353C34.2978 4.76532 33.4192 4.1187 32.5234 3.52344C34.2218 5.55267 35.7622 7.37841 38.3278 8.38066V8.38257Z" fill="#FF1300"/>
<path d="M26.7695 6.48066C28.1997 6.26195 29.7249 5.82453 30.8926 4.94019C32.0052 4.09769 32.861 2.92997 34.2151 2.44121C36.0503 1.77558 38.2355 2.59906 40.1088 2.91666C38.8061 2.09698 37.509 1.15559 36.0903 0.552711C33.3498 -0.613099 30.8432 0.147625 28.717 2.06275C26.8304 3.76107 25.2614 5.3681 22.5475 5.36619C21.4711 5.36619 20.387 5.24638 19.3125 5.17792C21.7982 6.08698 24.0461 6.89715 26.7676 6.48256L26.7695 6.48066Z" fill="#FF1300"/>
<path d="M15.8062 10.6152C16.9359 9.71186 18.037 8.56887 18.6056 7.22049C19.1477 5.93486 19.3055 4.4971 20.2317 3.39405C21.4888 1.90112 23.7919 1.52076 25.5739 0.858932C24.0353 0.799975 22.4435 0.632616 20.9125 0.818994C17.9552 1.17844 16.1656 3.09356 15.2813 5.81315C14.4958 8.22655 13.9405 10.4022 11.5899 11.7582C10.658 12.2964 9.65953 12.7338 8.69531 13.2131C11.3027 12.7567 13.6533 12.3364 15.8043 10.6152H15.8062Z" fill="#FF1300"/>
<path d="M8.38257 19.6734C8.90937 18.327 9.29163 16.7865 9.10906 15.3335C8.93599 13.9471 8.35404 12.6234 8.60508 11.2066C8.9474 9.28385 10.7503 7.80424 11.9637 6.33984C10.602 7.05873 9.13949 7.70915 7.90711 8.63723C5.52604 10.4287 4.93268 12.9791 5.52795 15.7785C6.05475 18.2623 6.66143 20.4247 5.30353 22.7715C4.76532 23.7034 4.1187 24.582 3.52344 25.4778C5.55267 23.7795 7.37841 22.239 8.38066 19.6734H8.38257Z" fill="#FF1300"/>
<path d="M6.48066 31.2329C6.26195 29.8027 5.82453 28.2774 4.94019 27.1097C4.09769 25.9972 2.92997 25.1414 2.44121 23.7873C1.77558 21.952 2.59906 19.7668 2.91666 17.8936C2.09698 19.1963 1.15559 20.4933 0.552711 21.9121C-0.613099 24.6526 0.147625 27.1592 2.06275 29.2854C3.76107 31.172 5.3681 32.741 5.36619 35.4549C5.36619 36.5313 5.24638 37.6153 5.17792 38.6899C6.08698 36.2042 6.89715 33.9563 6.48256 31.2348L6.48066 31.2329Z" fill="#FF1300"/>
<path d="M10.6162 42.1935C9.71284 41.0638 8.56985 39.9627 7.22147 39.394C5.93584 38.852 4.49807 38.6941 3.39502 37.768C1.9021 36.5109 1.52174 34.2078 0.859908 32.4258C0.800952 33.9643 0.633593 35.5562 0.81997 37.0871C1.17941 40.0444 3.09454 41.834 5.81413 42.7184C8.22752 43.5038 10.4032 44.0592 11.7592 46.4098C12.2974 47.3417 12.7348 48.3401 13.2141 49.3044C12.7576 46.697 12.3373 44.3463 10.6162 42.1954V42.1935Z" fill="#FF1300"/>
<path d="M19.6734 49.6202C18.327 49.0934 16.7865 48.7111 15.3335 48.8937C13.9471 49.0667 12.6234 49.6487 11.2066 49.3977C9.28385 49.0553 7.80424 47.2524 6.33984 46.0391C7.05873 47.4008 7.70915 48.8633 8.63723 50.0956C10.4287 52.4767 12.9791 53.0701 15.7785 52.4748C18.2604 51.948 20.4247 51.3413 22.7715 52.6992C23.7034 53.2374 24.582 53.884 25.4778 54.4793C23.7795 52.4501 22.239 50.6243 19.6734 49.6221V49.6202Z" fill="#FF1300"/>
<path d="M31.7702 16.8468C31.6428 15.892 30.5074 16.048 30.1765 15.0762C29.8456 16.048 28.7102 15.892 28.5828 16.8468C27.5349 15.8331 26.0781 16.0594 26.0781 16.0594C27.5539 17.7615 27.476 18.585 27.476 18.585H32.8752C32.8752 18.585 32.7972 17.7615 34.273 16.0594C34.273 16.0594 32.8162 15.8331 31.7683 16.8468H31.7702Z" fill="white"/>
<path d="M30.0312 14.8482C30.0312 14.9281 30.0959 14.9946 30.1777 14.9946C30.2595 14.9946 30.3241 14.93 30.3241 14.8482C30.3241 14.7664 30.1777 14.6143 30.1777 14.6143C30.1777 14.6143 30.0312 14.7664 30.0312 14.8482Z" fill="white"/>
<path d="M25.7984 15.7412C25.7984 15.7412 25.7851 15.9523 25.8365 16.0131C25.8878 16.074 25.9791 16.0835 26.0419 16.0302C26.1027 15.9789 26.1122 15.8876 26.059 15.8248C26.0076 15.764 25.7984 15.7393 25.7984 15.7393V15.7412Z" fill="white"/>
<path d="M34.3075 15.8239C34.2561 15.8848 34.2637 15.978 34.3246 16.0293C34.3854 16.0807 34.4786 16.0731 34.53 16.0122C34.5813 15.9513 34.568 15.7402 34.568 15.7402C34.568 15.7402 34.3588 15.7631 34.3075 15.8258V15.8239Z" fill="white"/>
<path d="M20.1467 39.2947V40.4776H24.209V19.7422H20.0117V20.9251C22.4613 21.0944 22.7827 21.296 22.7827 24.0346V36.2195C22.7827 38.8896 22.4613 39.0931 20.1467 39.2947Z" fill="white"/>
<path d="M36.8276 37.081C34.8839 34.698 32.1643 31.1664 30.0838 28.1919C31.6394 26.4689 33.3282 24.626 34.8497 23.1731C36.7249 21.45 37.7899 21.0944 39.937 20.9251V19.7422H31.9437V20.9251L32.6037 20.9936C33.9558 21.1286 33.9558 21.5508 33.1951 22.515C32.0464 24.0365 30.4907 25.8774 28.5984 27.804C27.6513 28.7168 26.9248 29.1562 26.2668 29.3425V24.0365C26.2668 21.3321 26.554 21.0963 28.8685 20.927V19.7441H24.8633V40.4795H29.0378V39.2966C26.554 39.0931 26.2668 38.8915 26.2668 36.2214V30.4418C26.7575 30.341 27.2462 30.4418 27.9404 31.3718C30.4242 34.7684 33.0278 38.4028 34.7166 40.4814H40.3611V39.8976C40.3611 39.8976 38.0466 38.553 36.8295 37.0848L36.8276 37.081Z" fill="white"/>
</svg>
