<svg width="90" height="33" viewBox="0 0 90 33" fill="none" xmlns="http://www.w3.org/2000/svg">
<path d="M9.82184 16.3089L6.50908 5.06075C6.41971 4.78066 6.31759 4.57059 6.20269 4.43054C6.0878 4.2905 5.89631 4.17592 5.62822 4.0868L5.39844 4.01041V3.60937H10.3389V4.01041L9.93674 4.14409C9.64312 4.23321 9.45163 4.36052 9.36227 4.52603C9.28567 4.69154 9.28567 4.9207 9.36227 5.21352L11.4495 13.0433L13.7282 6.26386L13.3835 5.15623C13.2942 4.88887 13.2048 4.68517 13.1155 4.54513C13.0261 4.39235 12.8793 4.2714 12.675 4.18228L12.2538 4.01041V3.60937H16.9452V4.01041L16.4091 4.18228C16.1538 4.2714 16.0069 4.39872 15.9686 4.56422C15.9304 4.72973 15.9559 4.95253 16.0452 5.23262L18.458 13.1579L20.6793 5.3472C20.7687 5.05438 20.7942 4.79975 20.7559 4.58332C20.7176 4.36689 20.5516 4.21411 20.258 4.12499L19.875 4.01041V3.60937H22.7091V4.01041L22.2304 4.16319C21.975 4.25231 21.7899 4.38599 21.675 4.56422C21.5729 4.72973 21.4835 4.95253 21.4069 5.23262L18.2665 16.3089H16.9452L14.1112 7.40968L11.1431 16.3089H9.82184Z" fill="white"/>
<path d="M23.339 16.2325V15.8315L23.722 15.7169C23.9773 15.6278 24.1433 15.5132 24.2199 15.3731C24.3093 15.2204 24.3539 15.0103 24.3539 14.7429V5.09894C24.3539 4.83158 24.3093 4.62788 24.2199 4.48784C24.1433 4.33506 23.9773 4.21411 23.722 4.12499L23.339 4.01041V3.60937H28.1263V4.01041L27.7433 4.12499C27.5007 4.21411 27.3348 4.33506 27.2454 4.48784C27.1561 4.62788 27.1114 4.83158 27.1114 5.09894V14.7429C27.1114 15.0103 27.1561 15.2204 27.2454 15.3731C27.3348 15.5132 27.5007 15.6278 27.7433 15.7169L28.1263 15.8315V16.2325H23.339Z" fill="white"/>
<path d="M29.235 16.2325V15.8315L29.7903 15.6787C30.0328 15.615 30.1988 15.4941 30.2882 15.3159C30.3903 15.1376 30.4414 14.9212 30.4414 14.6666V5.42359C30.3265 5.18169 30.2243 5.00346 30.135 4.88887C30.0584 4.76156 29.9754 4.65334 29.886 4.56422C29.7967 4.4751 29.6754 4.37325 29.5222 4.25867L29.1775 4.01041V3.60937H32.452L38.8094 12.2794V5.19443C38.8094 4.9398 38.7648 4.717 38.6754 4.52603C38.5988 4.33506 38.4328 4.20775 38.1775 4.14409L37.6031 4.01041V3.60937H40.4563V4.01041L39.9775 4.14409C39.735 4.22048 39.5818 4.35416 39.518 4.54513C39.4669 4.72337 39.4414 4.9398 39.4414 5.19443V16.3089H38.369L31.0733 6.30205V14.6475C31.0733 14.9148 31.1116 15.1376 31.1882 15.3159C31.2648 15.4941 31.4243 15.615 31.6669 15.6787L32.1839 15.8315V16.2325H29.235Z" fill="white"/>
<path d="M41.8015 16.2325V15.8315L42.3568 15.6787C42.5993 15.615 42.7653 15.4941 42.8547 15.3159C42.9568 15.1376 43.0078 14.9212 43.0078 14.6666V5.42359C42.893 5.18169 42.7908 5.00346 42.7015 4.88887C42.6249 4.76156 42.5419 4.65334 42.4525 4.56422C42.3632 4.4751 42.2419 4.37325 42.0887 4.25867L41.744 4.01041V3.60937H45.0185L51.3759 12.2794V5.19443C51.3759 4.9398 51.3312 4.717 51.2419 4.52603C51.1653 4.33506 50.9993 4.20775 50.744 4.14409L50.1695 4.01041V3.60937H53.0227V4.01041L52.544 4.14409C52.3015 4.22048 52.1483 4.35416 52.0844 4.54513C52.0334 4.72337 52.0078 4.9398 52.0078 5.19443V16.3089H50.9355L43.6398 6.30205V14.6475C43.6398 14.9148 43.6781 15.1376 43.7547 15.3159C43.8312 15.4941 43.9908 15.615 44.2334 15.6787L44.7504 15.8315V16.2325H41.8015Z" fill="white"/>
<path d="M53.9512 16.2325V15.8315L54.3341 15.7169C54.5895 15.6278 54.7554 15.5132 54.832 15.3731C54.9214 15.2204 54.9661 15.0103 54.9661 14.7429V5.09894C54.9661 4.83158 54.9214 4.62788 54.832 4.48784C54.7554 4.33506 54.5895 4.21411 54.3341 4.12499L53.9512 4.01041V3.60937H58.7384V4.01041L58.3554 4.12499C58.1129 4.21411 57.9469 4.33506 57.8575 4.48784C57.7682 4.62788 57.7235 4.83158 57.7235 5.09894V14.7429C57.7235 15.0103 57.7682 15.2204 57.8575 15.3731C57.9469 15.5132 58.1129 15.6278 58.3554 15.7169L58.7384 15.8315V16.2325H53.9512Z" fill="white"/>
<path d="M59.8471 16.2325V15.8315L60.4024 15.6787C60.645 15.615 60.8109 15.4941 60.9003 15.3159C61.0024 15.1376 61.0535 14.9212 61.0535 14.6666V5.42359C60.9386 5.18169 60.8365 5.00346 60.7471 4.88887C60.6705 4.76156 60.5875 4.65334 60.4982 4.56422C60.4088 4.4751 60.2875 4.37325 60.1343 4.25867L59.7896 4.01041V3.60937H63.0641L69.4216 12.2794V5.19443C69.4216 4.9398 69.3769 4.717 69.2875 4.52603C69.2109 4.33506 69.045 4.20775 68.7896 4.14409L68.2152 4.01041V3.60937H71.0684V4.01041L70.5896 4.14409C70.3471 4.22048 70.1939 4.35416 70.1301 4.54513C70.079 4.72337 70.0535 4.9398 70.0535 5.19443V16.3089H68.9811L61.6854 6.30205V14.6475C61.6854 14.9148 61.7237 15.1376 61.8003 15.3159C61.8769 15.4941 62.0365 15.615 62.279 15.6787L62.796 15.8315V16.2325H59.8471Z" fill="white"/>
<path d="M78.3396 16.5572C77.0375 16.5572 75.8949 16.2834 74.9119 15.736C73.9289 15.1885 73.1566 14.4183 72.5949 13.4253C72.046 12.4195 71.7715 11.2418 71.7715 9.8923C71.7715 8.56824 72.0396 7.40968 72.5758 6.41664C73.1247 5.42359 73.9162 4.65334 74.9502 4.10589C75.9843 3.54571 77.2226 3.26562 78.6651 3.26562C79.3545 3.26562 79.9928 3.34201 80.58 3.49479C81.18 3.64757 81.7417 3.87036 82.2651 4.16319L82.3417 6.89406H81.8247L80.8672 4.96526C80.714 4.65971 80.5672 4.43691 80.4268 4.29687C80.2864 4.15682 80.1013 4.05497 79.8715 3.99131C79.7055 3.92766 79.546 3.88946 79.3928 3.87673C79.2396 3.85127 79.0417 3.83854 78.7992 3.83854C77.9949 3.83854 77.2864 4.0486 76.6736 4.46874C76.0609 4.87614 75.5821 5.52544 75.2374 6.41664C74.9055 7.30783 74.7396 8.46639 74.7396 9.8923C74.7396 12.0439 75.0906 13.6035 75.7928 14.5711C76.5077 15.5259 77.4587 16.0034 78.646 16.0034C78.9268 16.0034 79.1694 15.9652 79.3736 15.8888C79.6162 15.8506 79.7821 15.7551 79.8715 15.6023C79.9609 15.4368 80.0055 15.2331 80.0055 14.9912C80.0055 14.4692 79.9992 13.9027 79.9864 13.2916C79.9864 12.6677 79.9864 12.1012 79.9864 11.5919C79.9864 11.0954 79.7247 10.7899 79.2013 10.6753L78.3396 10.4843V10.0833H83.6247V10.4843L83.3949 10.5416C83.1523 10.618 82.9672 10.7326 82.8396 10.8853C82.7119 11.0254 82.6481 11.2227 82.6481 11.4774C82.6481 11.9866 82.6417 12.5086 82.6289 13.0433C82.6289 13.5653 82.6289 14.0936 82.6289 14.6284V15.4495C81.9651 15.806 81.2885 16.0797 80.5992 16.2707C79.9226 16.4617 79.1694 16.5572 78.3396 16.5572Z" fill="white"/>
<rect x="0.592289" y="0.592289" width="88.8154" height="18.2572" rx="6.51517" stroke="#D89F33" stroke-width="1.18458"/>
<path d="M26.3125 31.7751V31.4847L26.6037 31.4018C26.7886 31.3464 26.9088 31.2635 26.9642 31.1528C27.0197 31.0422 27.0474 30.8947 27.0474 30.7103V23.7129C27.0474 23.5193 27.0151 23.3718 26.9504 23.2704C26.8949 23.1598 26.7747 23.0768 26.5898 23.0215L26.3125 22.9247V22.6343H29.682V22.9247L29.3908 23.0215C29.2152 23.0676 29.0996 23.1459 29.0442 23.2566C28.9887 23.3672 28.961 23.5193 28.961 23.7129V30.7241C28.961 30.9085 28.9933 31.056 29.058 31.1667C29.1228 31.2681 29.2429 31.3464 29.4186 31.4018L29.682 31.4847V31.7751H26.3125ZM31.3599 31.7751V31.4847L31.5263 31.4432C31.7019 31.3971 31.7944 31.3096 31.8036 31.1805C31.8128 31.0514 31.7528 30.9039 31.6233 30.738L28.9749 27.0733L32.3583 23.6438C32.4969 23.5055 32.5709 23.381 32.5801 23.2704C32.5986 23.1506 32.5154 23.0584 32.3305 22.9938L32.0948 22.9247V22.6343H34.2857V22.9247L33.9252 23.0215C33.7125 23.086 33.5415 23.1644 33.4121 23.2566C33.2827 23.3395 33.1348 23.4686 32.9684 23.6438L30.5002 26.1468L33.6756 30.6688C33.8235 30.8717 33.9621 31.033 34.0916 31.1528C34.2302 31.2727 34.4151 31.3649 34.6462 31.4294L34.8403 31.4847V31.7751H31.3599Z" fill="white"/>
<path d="M37.2725 31.1911L39.3496 27.0481L37.2725 22.905L35.1953 27.0481L37.2725 31.1911Z" fill="#FFA700" stroke="#FFA700" stroke-width="0.858303" stroke-miterlimit="10"/>
<path d="M40.5717 31.7714V31.4888L40.963 31.3811C41.1339 31.3363 41.2509 31.251 41.3139 31.1254C41.3858 30.9999 41.4218 30.8473 41.4218 30.6679V24.1549C41.3408 23.9844 41.2689 23.8588 41.2059 23.7781C41.1519 23.6884 41.0935 23.6121 41.0305 23.5493C40.9675 23.4865 40.8821 23.4148 40.7741 23.334L40.5312 23.1591V22.8765H42.8386L47.3184 28.9858V23.9934C47.3184 23.814 47.2869 23.657 47.2239 23.5224C47.1699 23.3879 47.053 23.2981 46.8731 23.2533L46.4683 23.1591V22.8765H48.4788V23.1591L48.1414 23.2533C47.9705 23.3071 47.8626 23.4013 47.8176 23.5359C47.7816 23.6615 47.7636 23.814 47.7636 23.9934V31.8252H47.008L41.8671 24.7739V30.6545C41.8671 30.8429 41.8941 30.9999 41.948 31.1254C42.002 31.251 42.1145 31.3363 42.2854 31.3811L42.6497 31.4888V31.7714H40.5717Z" fill="white"/>
<path d="M53.6024 32.0001C52.6849 32.0001 51.8798 31.8073 51.1871 31.4215C50.4945 31.0357 49.9502 30.493 49.5544 29.7932C49.1676 29.0845 48.9742 28.2547 48.9742 27.3037C48.9742 26.3708 49.1631 25.5544 49.5409 24.8546C49.9278 24.1549 50.4855 23.6121 51.2141 23.2264C51.9427 22.8316 52.8153 22.6343 53.8318 22.6343C54.3176 22.6343 54.7673 22.6881 55.1811 22.7958C55.6039 22.9034 55.9997 23.0604 56.3685 23.2667L56.4225 25.191H56.0582L55.3835 23.8319C55.2756 23.6166 55.1721 23.4596 55.0732 23.3609C54.9742 23.2623 54.8438 23.1905 54.6819 23.1456C54.5649 23.1008 54.4525 23.0739 54.3445 23.0649C54.2366 23.0469 54.0972 23.038 53.9263 23.038C53.3595 23.038 52.8603 23.186 52.4285 23.482C51.9967 23.7691 51.6594 24.2267 51.4165 24.8546C51.1826 25.4826 51.0657 26.299 51.0657 27.3037C51.0657 28.8199 51.3131 29.9188 51.8078 30.6006C52.3116 31.2735 52.9817 31.6099 53.8183 31.6099C54.0162 31.6099 54.1871 31.583 54.3311 31.5291C54.502 31.5022 54.6189 31.4349 54.6819 31.3273C54.7448 31.2107 54.7763 31.0671 54.7763 30.8967C54.7763 30.5289 54.7718 30.1297 54.7628 29.699C54.7628 29.2595 54.7628 28.8602 54.7628 28.5014C54.7628 28.1515 54.5784 27.9362 54.2096 27.8555L53.6024 27.7209V27.4383H57.3266V27.7209L57.1646 27.7613C56.9937 27.8151 56.8633 27.8958 56.7733 28.0035C56.6834 28.1022 56.6384 28.2412 56.6384 28.4207C56.6384 28.7795 56.6339 29.1473 56.6249 29.5241C56.6249 29.8919 56.6249 30.2642 56.6249 30.641V31.2196C56.1571 31.4708 55.6804 31.6637 55.1946 31.7983C54.7179 31.9328 54.1871 32.0001 53.6024 32.0001Z" fill="white"/>
<path d="M60.7171 32.0001C60.2223 32.0001 59.7186 31.9373 59.2058 31.8117C58.7021 31.6951 58.2793 31.5381 57.9374 31.3408L58.0184 29.4703H58.4097L58.828 30.3988C58.9539 30.6589 59.0844 30.8743 59.2193 31.0447C59.3542 31.2152 59.5341 31.3452 59.759 31.4349C59.912 31.4977 60.0559 31.5426 60.1908 31.5695C60.3347 31.5875 60.4922 31.5964 60.6631 31.5964C61.2118 31.5964 61.6436 31.4574 61.9584 31.1793C62.2823 30.8922 62.4442 30.5154 62.4442 30.0489C62.4442 29.6273 62.3317 29.2953 62.1069 29.0531C61.891 28.8109 61.5401 28.5776 61.0544 28.3534L60.5012 28.1111C59.7455 27.7792 59.1473 27.3935 58.7066 26.9539C58.2748 26.5143 58.0589 25.9312 58.0589 25.2045C58.0589 24.6662 58.1938 24.2087 58.4637 23.8319C58.7425 23.4462 59.1248 23.1501 59.6106 22.9438C60.0964 22.7374 60.6631 22.6343 61.3108 22.6343C61.7875 22.6343 62.2328 22.6971 62.6466 22.8227C63.0694 22.9483 63.4382 23.1187 63.753 23.334L63.6586 25.0027H63.2673L62.768 23.9934C62.6241 23.6974 62.4847 23.4865 62.3497 23.3609C62.2238 23.2264 62.0664 23.1411 61.8775 23.1053C61.7695 23.0873 61.6751 23.0739 61.5941 23.0649C61.5222 23.0559 61.4232 23.0514 61.2973 23.0514C60.8565 23.0514 60.4742 23.1815 60.1503 23.4417C59.8355 23.6929 59.6781 24.0427 59.6781 24.4913C59.6781 24.9219 59.7995 25.2718 60.0424 25.5409C60.2853 25.8101 60.6361 26.0478 61.0949 26.2541L61.7021 26.5098C62.5746 26.8866 63.1998 27.2903 63.5776 27.7209C63.9554 28.1425 64.1443 28.6853 64.1443 29.3492C64.1443 30.1386 63.843 30.7801 63.2403 31.2735C62.6466 31.7579 61.8055 32.0001 60.7171 32.0001Z" fill="white"/>
</svg>
