<svg width="129" height="41" viewBox="0 0 129 41" fill="none" xmlns="http://www.w3.org/2000/svg">
<g filter="url(#filter0_f_7656_56125)">
<ellipse cx="64.2849" cy="22.1728" rx="49.5349" ry="4.37588" fill="url(#paint0_linear_7656_56125)"/>
</g>
<path d="M32.6129 10.6751L31.1032 34.7643L23.6205 35.0925L23.6861 22.3915L20.3057 32.631H17.4177L14.825 23.4745L14.7921 34.1079L7.21094 34.3376L7.53913 11.6597L15.9736 11.3315L19.3212 22.1946L23.7846 10.6751H32.6129Z" fill="#73340E"/>
<path d="M54.2243 33.189L46.0851 34.2392L45.1006 30.5306H41.3592L40.5387 34.2392L32.1698 33.4187L38.7008 11.5612L47.8245 11.1017L54.2243 33.189ZM44.5098 25.5093L43.2627 19.7988L42.0484 25.5093H44.5098Z" fill="#73340E"/>
<path d="M73.9813 31.2526C73.4672 31.8981 72.8327 32.4615 72.0778 32.9428C71.323 33.4242 70.5135 33.8235 69.6492 34.1407C68.785 34.458 67.8989 34.6932 66.9909 34.8463C66.0829 35.0104 65.2187 35.0925 64.3982 35.0925C62.8119 35.0925 61.3515 34.808 60.0168 34.2392C58.6822 33.6703 57.5281 32.8881 56.5544 31.8926C55.5917 30.8862 54.8369 29.7047 54.2899 28.3482C53.7429 26.9916 53.4694 25.5312 53.4694 23.9668C53.4694 22.7744 53.6062 21.6093 53.8797 20.4716C54.1532 19.3229 54.5415 18.2453 55.0447 17.2389C55.5589 16.2215 56.1825 15.2916 56.9154 14.4493C57.6484 13.596 58.4798 12.863 59.4097 12.2504C60.3396 11.6378 61.3569 11.1619 62.4619 10.8228C63.5668 10.4836 64.7482 10.3141 66.0063 10.3141C66.4767 10.3141 66.9799 10.3359 67.516 10.3797C68.052 10.4125 68.5826 10.4782 69.1077 10.5766C69.6438 10.6641 70.1634 10.7899 70.6666 10.954C71.1698 11.1181 71.6293 11.3205 72.045 11.5612L71.5856 17.8296C70.9729 17.5999 70.3384 17.4467 69.682 17.3702C69.0366 17.2827 68.4021 17.2389 67.7785 17.2389C66.9034 17.2389 66.0829 17.3756 65.3171 17.6491C64.5623 17.9117 63.9004 18.2946 63.3316 18.7978C62.7736 19.301 62.3306 19.9136 62.0024 20.6357C61.6742 21.3577 61.5101 22.1727 61.5101 23.0807C61.5101 23.6496 61.5867 24.202 61.7398 24.7381C61.893 25.2632 62.1227 25.7336 62.429 26.1493C62.7463 26.554 63.1346 26.8822 63.5941 27.1338C64.0645 27.3855 64.606 27.5113 65.2187 27.5113C65.6344 27.5113 66.061 27.4566 66.4986 27.3472C66.9471 27.2378 67.33 27.0518 67.6473 26.7892L67.7129 25.5093L63.7746 25.4437L63.9715 20.5208C65.6015 20.4661 67.2316 20.4223 68.8616 20.3895C70.4916 20.3458 72.1325 20.2911 73.7844 20.2254L73.9813 31.2526Z" fill="#73340E"/>
<path d="M84.106 11.4956L82.301 33.8453L75.3762 34.2064V11.955L84.106 11.4956Z" fill="#73340E"/>
<path d="M104.881 16.3528C104.881 17.1623 104.842 18.0539 104.766 19.0275C104.689 20.0012 104.563 21.0076 104.388 22.0469C104.213 23.0862 103.983 24.1418 103.699 25.2139C103.426 26.2751 103.081 27.2979 102.665 28.2825C102.25 29.2671 101.763 30.1915 101.205 31.0557C100.658 31.909 100.023 32.6584 99.3013 33.3038C98.5902 33.9383 97.7916 34.4361 96.9055 34.7971C96.0194 35.169 95.0348 35.355 93.9518 35.355C92.6828 35.355 91.5778 35.1472 90.637 34.7315C89.7072 34.3267 88.9086 33.7797 88.2412 33.0905C87.5739 32.3904 87.0269 31.5808 86.6003 30.6619C86.1736 29.732 85.84 28.7529 85.5993 27.7246C85.3586 26.6853 85.1891 25.6296 85.0906 24.5575C85.0031 23.4745 84.9593 22.4352 84.9593 21.4397C84.9593 19.9082 85.0359 18.3821 85.1891 16.8615C85.3422 15.3299 85.561 13.8038 85.8454 12.2832L93.5251 12.5786C93.2297 14.2961 92.9727 16.0246 92.7539 17.764C92.546 19.4925 92.4421 21.2319 92.4421 22.9822C92.4421 23.1682 92.4475 23.4472 92.4585 23.8191C92.4804 24.1801 92.5132 24.5904 92.5569 25.0498C92.6007 25.4984 92.6609 25.9633 92.7374 26.4446C92.825 26.9151 92.9398 27.3472 93.0821 27.741C93.2243 28.1348 93.3938 28.4575 93.5907 28.7092C93.7986 28.9608 94.0393 29.0866 94.3128 29.0866C94.63 29.0866 94.9145 28.9389 95.1661 28.6435C95.4177 28.3372 95.6365 27.9324 95.8224 27.4292C96.0194 26.926 96.1889 26.3462 96.3311 25.6898C96.4734 25.0334 96.5937 24.3497 96.6921 23.6386C96.7906 22.9275 96.8672 22.2165 96.9219 21.5054C96.9875 20.7943 97.0368 20.1324 97.0696 19.5198C97.1133 18.9072 97.1407 18.3657 97.1516 17.8953C97.1626 17.4249 97.168 17.0748 97.168 16.8451C97.168 15.9918 97.1516 15.1439 97.1188 14.3016C97.0969 13.4483 97.0586 12.6005 97.0039 11.7581H104.684C104.815 13.2678 104.881 14.7993 104.881 16.3528Z" fill="#73340E"/>
<path d="M122.997 25.8703C122.997 27.369 122.734 28.6818 122.209 29.8086C121.695 30.9244 120.984 31.8543 120.076 32.5982C119.179 33.3421 118.123 33.9 116.909 34.272C115.705 34.6439 114.409 34.8299 113.02 34.8299C112.484 34.8299 111.893 34.7588 111.247 34.6166C110.613 34.4744 109.967 34.2993 109.311 34.0915C108.655 33.8727 108.02 33.643 107.408 33.4023C106.806 33.1507 106.27 32.9155 105.799 32.6967L106.521 25.9359C107.451 26.4939 108.48 26.9205 109.606 27.2159C110.744 27.5003 111.86 27.6425 112.954 27.6425C113.162 27.6425 113.413 27.6371 113.709 27.6261C114.004 27.6043 114.283 27.555 114.546 27.4784C114.819 27.3909 115.049 27.2651 115.235 27.101C115.421 26.9369 115.514 26.7017 115.514 26.3954C115.514 26.1876 115.448 26.0125 115.317 25.8703C115.186 25.7172 115.016 25.5968 114.808 25.5093C114.6 25.4108 114.365 25.3397 114.103 25.296C113.84 25.2413 113.583 25.203 113.331 25.1811C113.08 25.1592 112.845 25.1483 112.626 25.1483C112.407 25.1483 112.232 25.1483 112.101 25.1483C111.16 25.1483 110.301 24.9842 109.524 24.656C108.759 24.3278 108.097 23.8738 107.539 23.294C106.992 22.7033 106.565 22.0086 106.259 21.21C105.953 20.4005 105.799 19.5253 105.799 18.5845C105.799 17.2936 106.057 16.1395 106.571 15.1221C107.096 14.0937 107.79 13.224 108.655 12.5129C109.53 11.7909 110.531 11.2385 111.658 10.8556C112.784 10.4727 113.95 10.2812 115.153 10.2812C115.689 10.2812 116.241 10.3031 116.81 10.3469C117.379 10.3797 117.943 10.4453 118.5 10.5438C119.069 10.6423 119.622 10.7681 120.158 10.9212C120.694 11.0744 121.203 11.2658 121.684 11.4956L121.06 18.1578C120.316 17.9062 119.534 17.6984 118.714 17.5343C117.904 17.3592 117.111 17.2717 116.334 17.2717C116.192 17.2717 116.006 17.2772 115.776 17.2881C115.558 17.2881 115.322 17.3045 115.071 17.3374C114.83 17.3592 114.584 17.3975 114.332 17.4522C114.081 17.5069 113.857 17.5835 113.66 17.682C113.463 17.7695 113.304 17.8898 113.184 18.043C113.063 18.1961 113.009 18.3766 113.02 18.5845C113.031 18.8251 113.118 19.0221 113.282 19.1752C113.457 19.3174 113.676 19.4323 113.939 19.5198C114.212 19.5964 114.507 19.6511 114.825 19.6839C115.153 19.7167 115.476 19.7386 115.793 19.7496C116.11 19.7496 116.405 19.7496 116.679 19.7496C116.952 19.7386 117.177 19.7441 117.352 19.766C118.227 19.8207 119.015 20.0066 119.715 20.3239C120.415 20.6411 121.006 21.0623 121.487 21.5874C121.979 22.1125 122.351 22.7416 122.603 23.4745C122.865 24.1965 122.997 24.9951 122.997 25.8703Z" fill="#73340E"/>
<path d="M31.402 10.4915L29.8923 34.5807L22.4095 34.9089L22.4752 22.2079L19.0948 32.4474H16.2067L13.614 23.2909L13.5812 33.9243L6 34.154L6.32819 11.4761L14.7627 11.1479L18.1102 22.011L22.5736 10.4915H31.402Z" fill="url(#paint1_linear_7656_56125)"/>
<path d="M53.0133 33.0054L44.8742 34.0556L43.8896 30.347H40.1483L39.3278 34.0556L30.9589 33.2351L37.4899 11.3776L46.6136 10.9181L53.0133 33.0054ZM43.2989 25.3257L42.0518 19.6152L40.8374 25.3257H43.2989Z" fill="url(#paint2_linear_7656_56125)"/>
<path d="M72.7704 31.069C72.2562 31.7145 71.6217 32.2779 70.8669 32.7592C70.1121 33.2406 69.3025 33.6399 68.4383 33.9571C67.5741 34.2744 66.6879 34.5096 65.7799 34.6627C64.872 34.8268 64.0077 34.9089 63.1872 34.9089C61.601 34.9089 60.1405 34.6244 58.8059 34.0556C57.4713 33.4867 56.3171 32.7045 55.3435 31.709C54.3808 30.7026 53.6259 29.5211 53.079 28.1646C52.532 26.808 52.2585 25.3476 52.2585 23.7832C52.2585 22.5908 52.3952 21.4257 52.6687 20.288C52.9422 19.1393 53.3306 18.0618 53.8338 17.0553C54.348 16.0379 54.9715 15.108 55.7045 14.2657C56.4375 13.4124 57.2689 12.6794 58.1987 12.0668C59.1286 11.4542 60.146 10.9783 61.2509 10.6392C62.3558 10.3 63.5373 10.1305 64.7954 10.1305C65.2658 10.1305 65.769 10.1524 66.3051 10.1961C66.8411 10.2289 67.3717 10.2946 67.8968 10.393C68.4328 10.4805 68.9525 10.6064 69.4557 10.7704C69.9589 10.9345 70.4184 11.1369 70.8341 11.3776L70.3746 17.646C69.762 17.4163 69.1275 17.2632 68.4711 17.1866C67.8257 17.0991 67.1912 17.0553 66.5676 17.0553C65.6924 17.0553 64.872 17.192 64.1062 17.4655C63.3513 17.7281 62.6895 18.111 62.1206 18.6142C61.5627 19.1174 61.1196 19.7301 60.7914 20.4521C60.4633 21.1741 60.2992 21.9891 60.2992 22.8971C60.2992 23.466 60.3757 24.0184 60.5289 24.5545C60.6821 25.0796 60.9118 25.55 61.2181 25.9657C61.5353 26.3704 61.9237 26.6986 62.3832 26.9503C62.8536 27.2019 63.3951 27.3277 64.0077 27.3277C64.4234 27.3277 64.8501 27.273 65.2877 27.1636C65.7362 27.0542 66.1191 26.8682 66.4363 26.6056L66.502 25.3257L62.5637 25.2601L62.7606 20.3372C64.3906 20.2825 66.0206 20.2388 67.6506 20.2059C69.2807 20.1622 70.9216 20.1075 72.5735 20.0418L72.7704 31.069Z" fill="url(#paint3_linear_7656_56125)"/>
<path d="M82.8951 11.312L81.09 33.6618L74.1652 34.0228V11.7714L82.8951 11.312Z" fill="url(#paint4_linear_7656_56125)"/>
<path d="M103.67 16.1692C103.67 16.9787 103.631 17.8703 103.555 18.8439C103.478 19.8176 103.352 20.824 103.177 21.8633C103.002 22.9026 102.773 23.9582 102.488 25.0303C102.215 26.0915 101.87 27.1143 101.454 28.0989C101.039 29.0835 100.552 30.0079 99.9938 30.8721C99.4469 31.7254 98.8123 32.4748 98.0903 33.1202C97.3792 33.7547 96.5807 34.2525 95.6945 34.6135C94.8084 34.9855 93.8238 35.1714 92.7408 35.1714C91.4718 35.1714 90.3669 34.9636 89.4261 34.5479C88.4962 34.1431 87.6976 33.5961 87.0303 32.9069C86.363 32.2068 85.816 31.3972 85.3893 30.4783C84.9627 29.5484 84.629 28.5693 84.3884 27.541C84.1477 26.5017 83.9781 25.446 83.8797 24.374C83.7922 23.2909 83.7484 22.2517 83.7484 21.2561C83.7484 19.7246 83.825 18.1985 83.9781 16.6779C84.1313 15.1463 84.3501 13.6202 84.6345 12.0996L92.3142 12.395C92.0188 14.1125 91.7617 15.841 91.5429 17.5804C91.3351 19.3089 91.2311 21.0483 91.2311 22.7986C91.2311 22.9846 91.2366 23.2636 91.2476 23.6355C91.2694 23.9965 91.3022 24.4068 91.346 24.8662C91.3898 25.3148 91.4499 25.7797 91.5265 26.261C91.614 26.7315 91.7289 27.1636 91.8711 27.5574C92.0133 27.9512 92.1829 28.274 92.3798 28.5256C92.5877 28.7772 92.8283 28.903 93.1018 28.903C93.4191 28.903 93.7035 28.7553 93.9551 28.4599C94.2067 28.1536 94.4255 27.7488 94.6115 27.2456C94.8084 26.7424 94.978 26.1626 95.1202 25.5062C95.2624 24.8498 95.3828 24.1661 95.4812 23.455C95.5797 22.7439 95.6562 22.0329 95.7109 21.3218C95.7766 20.6107 95.8258 19.9488 95.8586 19.3362C95.9024 18.7236 95.9297 18.1821 95.9407 17.7117C95.9516 17.2413 95.9571 16.8912 95.9571 16.6615C95.9571 15.8082 95.9407 14.9603 95.9079 14.118C95.886 13.2647 95.8477 12.4169 95.793 11.5745H103.473C103.604 13.0842 103.67 14.6157 103.67 16.1692Z" fill="url(#paint5_linear_7656_56125)"/>
<path d="M121.786 25.6867C121.786 27.1855 121.523 28.4982 120.998 29.625C120.484 30.7409 119.773 31.6707 118.865 32.4146C117.968 33.1585 116.912 33.7164 115.698 34.0884C114.494 34.4603 113.198 34.6463 111.809 34.6463C111.273 34.6463 110.682 34.5752 110.036 34.433C109.402 34.2908 108.757 34.1157 108.1 33.9079C107.444 33.6891 106.809 33.4594 106.197 33.2187C105.595 32.9671 105.059 32.7319 104.589 32.5131L105.311 25.7524C106.24 26.3103 107.269 26.7369 108.396 27.0323C109.533 27.3167 110.649 27.4589 111.743 27.4589C111.951 27.4589 112.203 27.4535 112.498 27.4425C112.793 27.4207 113.072 27.3714 113.335 27.2949C113.608 27.2073 113.838 27.0815 114.024 26.9174C114.21 26.7533 114.303 26.5181 114.303 26.2118C114.303 26.004 114.237 25.8289 114.106 25.6867C113.975 25.5336 113.805 25.4132 113.597 25.3257C113.389 25.2272 113.154 25.1561 112.892 25.1124C112.629 25.0577 112.372 25.0194 112.12 24.9975C111.869 24.9756 111.634 24.9647 111.415 24.9647C111.196 24.9647 111.021 24.9647 110.89 24.9647C109.949 24.9647 109.09 24.8006 108.313 24.4724C107.548 24.1442 106.886 23.6902 106.328 23.1104C105.781 22.5197 105.354 21.825 105.048 21.0264C104.742 20.2169 104.589 19.3417 104.589 18.4009C104.589 17.11 104.846 15.9559 105.36 14.9385C105.885 13.9101 106.58 13.0404 107.444 12.3294C108.319 11.6073 109.32 11.0549 110.447 10.672C111.574 10.2891 112.739 10.0977 113.942 10.0977C114.478 10.0977 115.03 10.1195 115.599 10.1633C116.168 10.1961 116.732 10.2618 117.289 10.3602C117.858 10.4587 118.411 10.5845 118.947 10.7376C119.483 10.8908 119.992 11.0822 120.473 11.312L119.849 17.9742C119.105 17.7226 118.323 17.5148 117.503 17.3507C116.693 17.1756 115.9 17.0881 115.123 17.0881C114.981 17.0881 114.795 17.0936 114.566 17.1045C114.347 17.1045 114.112 17.1209 113.86 17.1538C113.619 17.1756 113.373 17.2139 113.121 17.2686C112.87 17.3233 112.646 17.3999 112.449 17.4984C112.252 17.5859 112.093 17.7062 111.973 17.8594C111.852 18.0125 111.798 18.193 111.809 18.4009C111.82 18.6416 111.907 18.8385 112.071 18.9916C112.246 19.1338 112.465 19.2487 112.728 19.3362C113.001 19.4128 113.297 19.4675 113.614 19.5003C113.942 19.5331 114.265 19.555 114.582 19.566C114.899 19.566 115.195 19.566 115.468 19.566C115.742 19.555 115.966 19.5605 116.141 19.5824C117.016 19.6371 117.804 19.823 118.504 20.1403C119.204 20.4575 119.795 20.8787 120.276 21.4038C120.768 21.9289 121.14 22.558 121.392 23.2909C121.654 24.0129 121.786 24.8115 121.786 25.6867Z" fill="url(#paint6_linear_7656_56125)"/>
<path d="M79.0772 1.11847C79.1099 0.958068 79.319 0.954262 79.3529 1.11348C79.518 1.86167 79.8247 2.98043 80.2848 3.58854C80.744 4.19485 81.5776 4.58476 82.1341 4.79019C82.2526 4.83443 82.2557 5.11587 82.1378 5.16325C81.5848 5.38661 80.7579 5.8015 80.3087 6.42255C79.8594 7.04359 79.5721 8.17319 79.4203 8.92608C79.3875 9.08648 79.1787 9.08881 79.1448 8.9296C78.9797 8.18141 78.6728 7.06412 78.2137 6.45634C77.7547 5.84856 76.9198 5.45978 76.3633 5.25436C76.2448 5.21011 76.2431 4.92754 76.3607 4.88164C76.9137 4.65827 77.7395 4.24305 78.189 3.62053C78.6382 2.99948 78.9256 1.86989 79.0772 1.11847Z" fill="#73340E"/>
<path d="M78.7334 0.766903C78.7661 0.606505 78.9752 0.602699 79.0092 0.761916C79.1742 1.51011 79.4809 2.62886 79.941 3.23698C80.4003 3.84329 81.2339 4.2332 81.7903 4.43862C81.9089 4.48287 81.912 4.76431 81.794 4.81169C81.241 5.03505 80.4141 5.44994 79.9649 6.07098C79.5157 6.69203 79.2283 7.82162 79.0765 8.57452C79.0438 8.73492 78.8349 8.73725 78.801 8.57804C78.6359 7.82984 78.329 6.71256 77.87 6.10478C77.411 5.49699 76.5761 5.10822 76.0196 4.9028C75.901 4.85855 75.8993 4.57598 76.017 4.53007C76.57 4.30671 77.3958 3.89149 77.8453 3.26897C78.2945 2.64792 78.5818 1.51833 78.7334 0.766903Z" fill="url(#paint7_linear_7656_56125)"/>
<defs>
<filter id="filter0_f_7656_56125" x="0.292105" y="3.33898" width="127.986" height="37.6658" filterUnits="userSpaceOnUse" color-interpolation-filters="sRGB">
<feFlood flood-opacity="0" result="BackgroundImageFix"/>
<feBlend mode="normal" in="SourceGraphic" in2="BackgroundImageFix" result="shape"/>
<feGaussianBlur stdDeviation="7.22895" result="effect1_foregroundBlur_7656_56125"/>
</filter>
<linearGradient id="paint0_linear_7656_56125" x1="64.2849" y1="17.7969" x2="64.2849" y2="26.5486" gradientUnits="userSpaceOnUse">
<stop stop-color="#FF2B87"/>
<stop offset="1" stop-color="#FF0000"/>
</linearGradient>
<linearGradient id="paint1_linear_7656_56125" x1="63.5975" y1="10.6118" x2="63.5975" y2="34.9417" gradientUnits="userSpaceOnUse">
<stop stop-color="#BB7D1E"/>
<stop offset="0.5" stop-color="#FAD340"/>
<stop offset="1" stop-color="#C08424"/>
</linearGradient>
<linearGradient id="paint2_linear_7656_56125" x1="63.5975" y1="10.6118" x2="63.5975" y2="34.9417" gradientUnits="userSpaceOnUse">
<stop stop-color="#BB7D1E"/>
<stop offset="0.5" stop-color="#FAD340"/>
<stop offset="1" stop-color="#C08424"/>
</linearGradient>
<linearGradient id="paint3_linear_7656_56125" x1="63.5975" y1="10.6118" x2="63.5975" y2="34.9417" gradientUnits="userSpaceOnUse">
<stop stop-color="#BB7D1E"/>
<stop offset="0.5" stop-color="#FAD340"/>
<stop offset="1" stop-color="#C08424"/>
</linearGradient>
<linearGradient id="paint4_linear_7656_56125" x1="63.5975" y1="10.6118" x2="63.5975" y2="34.9417" gradientUnits="userSpaceOnUse">
<stop stop-color="#BB7D1E"/>
<stop offset="0.5" stop-color="#FAD340"/>
<stop offset="1" stop-color="#C08424"/>
</linearGradient>
<linearGradient id="paint5_linear_7656_56125" x1="63.5975" y1="10.6118" x2="63.5975" y2="34.9417" gradientUnits="userSpaceOnUse">
<stop stop-color="#BB7D1E"/>
<stop offset="0.5" stop-color="#FAD340"/>
<stop offset="1" stop-color="#C08424"/>
</linearGradient>
<linearGradient id="paint6_linear_7656_56125" x1="63.5975" y1="10.6118" x2="63.5975" y2="34.9417" gradientUnits="userSpaceOnUse">
<stop stop-color="#BB7D1E"/>
<stop offset="0.5" stop-color="#FAD340"/>
<stop offset="1" stop-color="#C08424"/>
</linearGradient>
<linearGradient id="paint7_linear_7656_56125" x1="78.8901" y1="0.809638" x2="78.8901" y2="8.62237" gradientUnits="userSpaceOnUse">
<stop stop-color="#BB7D1E"/>
<stop offset="0.5" stop-color="#FAD340"/>
<stop offset="1" stop-color="#C08424"/>
</linearGradient>
</defs>
</svg>
