<svg width="241" height="30" viewBox="0 0 241 30" fill="none" xmlns="http://www.w3.org/2000/svg">
<path d="M8.76481 6.1961C22.7885 6.1961 35.0592 9.71746 28.0474 0.914062C30.3314 2.0612 39.4145 3.63231 42.0092 4.62076C42.089 4.56549 42.1623 4.51176 42.2294 4.45954L42.7393 3.25441C42.1887 2.59891 40.1431 2.64385 42.9977 2.64385L42.7393 3.25441C42.9643 3.52223 42.9397 3.907 42.2294 4.45954L40.8972 7.60793C40.8888 7.60814 40.8806 7.6083 40.8726 7.60841C43.2361 9.60767 40.5372 11.9906 40.5372 14.9995C40.5372 18.1384 43.4744 20.5957 40.5372 22.6474L40.8972 27.4787C36.7934 27.4787 41.8793 26.3164 38.9203 24.2662C36.3635 25.5438 30.3449 27.9311 28.0474 29.0849C35.0592 20.2815 22.7885 23.8029 8.76481 23.8029C14.7591 21.7961 19.3083 20.2616 22.5694 18.961C17.341 17.2704 10.2548 15.7918 0 14.9995C10.2548 14.2072 17.3409 12.7286 22.5694 11.038C19.3083 9.73742 14.759 8.20293 8.76481 6.1961Z" fill="#85D68E"/>
<path d="M35.9238 27.6024L41.0638 1.90267H54.0605C56.9732 1.90267 59.1882 2.4289 60.7057 3.48137C62.2232 4.50936 62.982 5.99015 62.982 7.92375C62.982 9.51469 62.5414 10.8609 61.6603 11.9623C60.7792 13.0637 59.5921 13.9081 58.099 14.4955C56.606 15.0585 54.9294 15.34 53.0692 15.34L54.0972 13.5777C56.4714 13.5777 58.356 14.0917 59.7512 15.1197C61.1463 16.1477 61.8439 17.5918 61.8439 19.4519C61.8439 21.3121 61.3176 22.8418 60.2652 24.0412C59.2372 25.2405 57.8298 26.1339 56.0431 26.7213C54.2808 27.3087 52.286 27.6024 50.0587 27.6024H35.9238ZM44.1477 22.3523H50.4625C51.7353 22.3523 52.7388 22.0953 53.4731 21.5813C54.2318 21.0673 54.6112 20.3086 54.6112 19.3051C54.6112 18.5463 54.3297 17.9956 53.7668 17.6529C53.2039 17.3103 52.4818 17.139 51.6007 17.139H44.5883L45.5796 12.1091H51.4171C52.2738 12.1091 52.9958 11.999 53.5832 11.7787C54.1951 11.5584 54.6479 11.228 54.9416 10.7874C55.2354 10.3469 55.3822 9.8084 55.3822 9.17203C55.3822 8.46222 55.113 7.94823 54.5745 7.63004C54.036 7.31185 53.2895 7.15276 52.335 7.15276H47.195L44.1477 22.3523Z" fill="white"/>
<path d="M73.9431 11.8521H85.8751L84.8104 17.2858H72.8784L73.9431 11.8521ZM72.4378 21.9852H85.9119L84.737 27.6024H64.1405L69.2804 1.90267H89.3997L88.2615 7.5199H75.3015L72.4378 21.9852Z" fill="white"/>
<path d="M94.2413 27.6024L98.2431 7.66675H90.3497L91.5245 1.90267H114.544L113.369 7.66675H105.513L101.511 27.6024H94.2413Z" fill="white"/>
<path d="M112.112 27.6024L117.252 1.90267H130.249C133.162 1.90267 135.377 2.4289 136.894 3.48137C138.412 4.50936 139.171 5.99015 139.171 7.92375C139.171 9.51469 138.73 10.8609 137.849 11.9623C136.968 13.0637 135.781 13.9081 134.288 14.4955C132.795 15.0585 131.118 15.34 129.258 15.34L130.286 13.5777C132.66 13.5777 134.545 14.0917 135.94 15.1197C137.335 16.1477 138.032 17.5918 138.032 19.4519C138.032 21.3121 137.506 22.8418 136.454 24.0412C135.426 25.2405 134.018 26.1339 132.232 26.7213C130.469 27.3087 128.475 27.6024 126.247 27.6024H112.112ZM120.336 22.3523H126.651C127.924 22.3523 128.927 22.0953 129.662 21.5813C130.42 21.0673 130.8 20.3086 130.8 19.3051C130.8 18.5463 130.518 17.9956 129.955 17.6529C129.392 17.3103 128.67 17.139 127.789 17.139H120.777L121.768 12.1091H127.606C128.462 12.1091 129.184 11.999 129.772 11.7787C130.384 11.5584 130.837 11.228 131.13 10.7874C131.424 10.3469 131.571 9.8084 131.571 9.17203C131.571 8.46222 131.302 7.94823 130.763 7.63004C130.225 7.31185 129.478 7.15276 128.524 7.15276H123.384L120.336 22.3523Z" fill="#85D68E"/>
<path d="M140.329 27.6024L145.469 1.90267H152.738L148.773 21.8383H161.036L159.861 27.6024H140.329Z" fill="#85D68E"/>
<path d="M159.904 27.6024L176.389 1.90267H183.548L189.753 27.6024H182.52L177.931 5.35378H180.795L167.578 27.6024H159.904ZM167.1 22.6093L170.038 17.2491H182.594L183.401 22.6093H167.1Z" fill="#85D68E"/>
<path d="M201.433 28.1164C199.964 28.1164 198.557 27.994 197.211 27.7493C195.865 27.529 194.641 27.2108 193.539 26.7947C192.438 26.3541 191.496 25.8769 190.712 25.3629L193.576 19.9292C194.457 20.4677 195.363 20.9327 196.293 21.3243C197.247 21.6915 198.214 21.973 199.193 22.1688C200.172 22.3646 201.151 22.4625 202.13 22.4625C203.06 22.4625 203.856 22.3768 204.517 22.2055C205.178 22.0097 205.679 21.7404 206.022 21.3978C206.365 21.0551 206.536 20.6512 206.536 20.1862C206.536 19.6722 206.304 19.2684 205.838 18.9746C205.398 18.6565 204.811 18.3872 204.076 18.1669C203.342 17.9467 202.522 17.7264 201.616 17.5061C200.735 17.2613 199.842 16.9799 198.936 16.6617C198.055 16.319 197.247 15.9029 196.513 15.4134C195.779 14.8994 195.179 14.2508 194.714 13.4676C194.274 12.6843 194.053 11.7175 194.053 10.5672C194.053 8.70698 194.555 7.09157 195.559 5.72092C196.562 4.35026 197.982 3.28556 199.817 2.5268C201.678 1.76805 203.868 1.38867 206.389 1.38867C208.225 1.38867 209.938 1.58448 211.529 1.9761C213.12 2.34324 214.491 2.88171 215.641 3.59151L212.998 8.98846C211.994 8.35208 210.881 7.8748 209.657 7.55661C208.457 7.21395 207.221 7.04262 205.949 7.04262C204.97 7.04262 204.125 7.15276 203.415 7.37304C202.73 7.59333 202.204 7.89928 201.837 8.29089C201.494 8.65803 201.323 9.07412 201.323 9.53917C201.323 10.0287 201.543 10.4325 201.984 10.7507C202.424 11.0689 203.012 11.3381 203.746 11.5584C204.505 11.7787 205.324 12.0112 206.206 12.256C207.111 12.4763 208.005 12.7455 208.886 13.0637C209.767 13.3574 210.587 13.7613 211.346 14.2753C212.104 14.7648 212.704 15.3889 213.145 16.1477C213.585 16.9064 213.805 17.8488 213.805 18.9746C213.805 20.8103 213.304 22.4135 212.3 23.7842C211.297 25.1548 209.865 26.2195 208.005 26.9783C206.144 27.737 203.954 28.1164 201.433 28.1164Z" fill="#85D68E"/>
<path d="M220.696 27.6024L224.698 7.66675H216.805L217.98 1.90267H240.999L239.824 7.66675H231.968L227.966 27.6024H220.696Z" fill="#85D68E"/>
</svg>
