<svg width="90" height="26" viewBox="0 0 90 26" fill="none" xmlns="http://www.w3.org/2000/svg">
<path d="M8.29208 20.3666C6.30269 20.3666 4.75342 19.8912 3.64429 18.9405C2.53516 17.9722 1.98059 16.4934 1.98059 14.504V2.40918H7.94878V14.4512C7.94878 14.8913 8.06321 15.2346 8.29208 15.4811C8.53856 15.7276 8.83784 15.8508 9.18995 15.8508C9.7005 15.8508 10.1494 15.7188 10.5368 15.4547L11.9628 19.6007C11.505 19.8648 10.9505 20.0585 10.2991 20.1817C9.66529 20.3049 8.99629 20.3666 8.29208 20.3666ZM0 10.8069V6.44959H10.9065V10.8069H0Z" fill="white"/>
<path d="M13.467 20.1025V5.65735H19.1447V10.0147L18.2204 8.77349C18.6606 7.64675 19.3648 6.8017 20.3331 6.23833C21.3013 5.67496 22.4633 5.39327 23.8189 5.39327V10.6749C23.5548 10.6396 23.3171 10.6132 23.1059 10.5956C22.9122 10.578 22.7098 10.5692 22.4985 10.5692C21.6006 10.5692 20.8612 10.8069 20.2802 11.2822C19.7169 11.74 19.4352 12.541 19.4352 13.6854V20.1025H13.467Z" fill="white"/>
<path d="M29.0662 25.4897C28.274 25.4897 27.4641 25.3665 26.6367 25.12C25.8269 24.8911 25.1755 24.583 24.6825 24.1957L26.6631 20.1025C26.9624 20.3313 27.2969 20.5162 27.6666 20.657C28.0539 20.7979 28.4236 20.8683 28.7757 20.8683C29.3039 20.8683 29.7088 20.7539 29.9905 20.525C30.2722 20.3137 30.5011 19.988 30.6771 19.5479L31.2845 18.0163L31.707 17.4353L36.3284 5.65735H41.9797L36.0379 20.393C35.5098 21.7134 34.8936 22.7433 34.1894 23.4827C33.5028 24.2221 32.7281 24.7415 31.8655 25.0408C31.0204 25.34 30.0873 25.4897 29.0662 25.4897ZM30.4658 20.7627L24.1808 5.65735H30.3074L34.6383 16.9071L30.4658 20.7627Z" fill="white"/>
<path d="M52.5311 20.3666C51.2107 20.3666 50.1456 20.1025 49.3357 19.5743C48.5259 19.0462 47.9361 18.2275 47.5664 17.1184C47.2143 16.0093 47.0383 14.592 47.0383 12.8667C47.0383 11.159 47.2319 9.75938 47.6192 8.66786C48.0065 7.55872 48.6051 6.74008 49.415 6.21192C50.2424 5.66616 51.2811 5.39327 52.5311 5.39327C53.7987 5.39327 54.9606 5.69256 56.0169 6.29114C57.0733 6.88972 57.9183 7.75238 58.5521 8.87912C59.1859 9.98825 59.5028 11.3174 59.5028 12.8667C59.5028 14.416 59.1859 15.754 58.5521 16.8807C57.9183 17.9898 57.0733 18.8525 56.0169 19.4687C54.9606 20.0673 53.7987 20.3666 52.5311 20.3666ZM42.8922 20.1025V0.507812H48.8604V7.58513L48.5963 12.8667L48.5699 18.1483V20.1025H42.8922ZM51.1051 15.7188C51.5452 15.7188 51.9413 15.6131 52.2934 15.4019C52.6455 15.1906 52.9272 14.8737 53.1385 14.4512C53.3497 14.0111 53.4554 13.4829 53.4554 12.8667C53.4554 12.2329 53.3497 11.7136 53.1385 11.3086C52.9272 10.8861 52.6455 10.5692 52.2934 10.358C51.9413 10.1467 51.5452 10.0411 51.1051 10.0411C50.6649 10.0411 50.2688 10.1467 49.9167 10.358C49.5646 10.5692 49.2829 10.8861 49.0717 11.3086C48.8604 11.7136 48.7548 12.2329 48.7548 12.8667C48.7548 13.4829 48.8604 14.0111 49.0717 14.4512C49.2829 14.8737 49.5646 15.1906 49.9167 15.4019C50.2688 15.6131 50.6649 15.7188 51.1051 15.7188Z" fill="#FFD301"/>
<path d="M69.3581 20.3666C67.5976 20.3666 66.0571 20.0409 64.7367 19.3895C63.4339 18.7381 62.4216 17.849 61.6998 16.7223C60.978 15.5779 60.6171 14.2927 60.6171 12.8667C60.6171 11.4055 60.9692 10.1115 61.6734 8.98475C62.3952 7.85801 63.3723 6.97775 64.6047 6.34396C65.8546 5.71017 67.2543 5.39327 68.8035 5.39327C70.2296 5.39327 71.5411 5.67496 72.7383 6.23833C73.9531 6.8017 74.9214 7.63795 75.6432 8.74708C76.3826 9.85621 76.7523 11.2294 76.7523 12.8667C76.7523 13.078 76.7435 13.3156 76.7259 13.5797C76.7083 13.8262 76.6907 14.0551 76.6731 14.2663H65.5554V11.3879H73.5041L71.2595 12.1537C71.2595 11.5903 71.1538 11.115 70.9426 10.7277C70.7489 10.3228 70.476 10.0147 70.1239 9.8034C69.7718 9.57453 69.3493 9.46009 68.8563 9.46009C68.3634 9.46009 67.9321 9.57453 67.5623 9.8034C67.2102 10.0147 66.9374 10.3228 66.7437 10.7277C66.55 11.115 66.4532 11.5903 66.4532 12.1537V13.0516C66.4532 13.6678 66.5765 14.1959 66.8229 14.636C67.0694 15.0762 67.4215 15.4107 67.8792 15.6395C68.337 15.8508 68.8915 15.9564 69.5429 15.9564C70.2119 15.9564 70.7577 15.8684 71.1802 15.6924C71.6204 15.5163 72.0781 15.2522 72.5534 14.9001L75.6696 18.0427C74.9654 18.7997 74.0939 19.3807 73.0552 19.7856C72.0341 20.1729 70.8017 20.3666 69.3581 20.3666Z" fill="#FFD301"/>
<path d="M85.6074 20.3666C83.618 20.3666 82.0687 19.8912 80.9596 18.9405C79.8505 17.9722 79.2959 16.4934 79.2959 14.504V2.40918H85.2641V14.4512C85.2641 14.8913 85.3785 15.2346 85.6074 15.4811C85.8539 15.7276 86.1532 15.8508 86.5053 15.8508C87.0158 15.8508 87.4648 15.7188 87.8521 15.4547L89.2781 19.6007C88.8204 19.8648 88.2658 20.0585 87.6144 20.1817C86.9806 20.3049 86.3116 20.3666 85.6074 20.3666ZM77.3153 10.8069V6.44959H85.2641V10.8069H77.3153Z" fill="#FFD301"/>
<circle cx="87.7751" cy="8.4782" r="2.2282" fill="white"/>
</svg>
