<svg width="143" height="50" viewBox="0 0 143 50" fill="none" xmlns="http://www.w3.org/2000/svg">
<path d="M37.6379 50C35.6279 50 33.8075 49.5741 32.1767 48.7222C30.5649 47.8519 29.2944 46.6574 28.3653 45.1389C27.4551 43.6204 27 41.9074 27 40C27 38.0926 27.4646 36.3796 28.3937 34.8611C29.3229 33.3426 30.5934 32.1574 32.2052 31.3056C33.8359 30.4352 35.6563 30 37.6663 30C39.2971 30 40.7857 30.2778 42.132 30.8333C43.4783 31.3889 44.6161 32.1944 45.5452 33.25L43.156 35.4444C41.7148 33.9259 39.9418 33.1667 37.837 33.1667C36.4717 33.1667 35.2486 33.463 34.1678 34.0556C33.0869 34.6296 32.2431 35.4352 31.6363 36.4722C31.0295 37.5093 30.7261 38.6852 30.7261 40C30.7261 41.3148 31.0295 42.4907 31.6363 43.5278C32.2431 44.5648 33.0869 45.3796 34.1678 45.9722C35.2486 46.5463 36.4717 46.8333 37.837 46.8333C39.9418 46.8333 41.7148 46.0648 43.156 44.5278L45.5452 46.75C44.6161 47.8056 43.4688 48.6111 42.1035 49.1667C40.7572 49.7222 39.2687 50 37.6379 50Z" fill="url(#paint0_linear_2422_38317)"/>
<path d="M62.1154 49.7222L58.0479 44.0278C57.8773 44.0463 57.6213 44.0556 57.28 44.0556H52.7859V49.7222H49.0882V30.2778H57.28C59.0055 30.2778 60.5036 30.5556 61.774 31.1111C63.0635 31.6667 64.0495 32.463 64.7322 33.5C65.4148 34.537 65.7561 35.7685 65.7561 37.1944C65.7561 38.6574 65.3864 39.9167 64.6469 40.9722C63.9263 42.0278 62.8833 42.8148 61.5181 43.3333L66.0975 49.7222H62.1154ZM62.03 37.1944C62.03 35.9537 61.6129 35 60.7785 34.3333C59.9442 33.6667 58.7211 33.3333 57.1093 33.3333H52.7859V41.0833H57.1093C58.7211 41.0833 59.9442 40.75 60.7785 40.0833C61.6129 39.3981 62.03 38.4352 62.03 37.1944Z" fill="url(#paint1_linear_2422_38317)"/>
<path d="M79.1942 50C77.1652 50 75.3353 49.5741 73.7046 48.7222C72.0738 47.8519 70.7938 46.6574 69.8647 45.1389C68.9355 43.6019 68.471 41.8889 68.471 40C68.471 38.1111 68.9355 36.4074 69.8647 34.8889C70.7938 33.3519 72.0738 32.1574 73.7046 31.3056C75.3353 30.4352 77.1652 30 79.1942 30C81.2232 30 83.053 30.4352 84.6838 31.3056C86.3146 32.1574 87.5945 33.3426 88.5237 34.8611C89.4528 36.3796 89.9174 38.0926 89.9174 40C89.9174 41.9074 89.4528 43.6204 88.5237 45.1389C87.5945 46.6574 86.3146 47.8519 84.6838 48.7222C83.053 49.5741 81.2232 50 79.1942 50ZM79.1942 46.8333C80.5215 46.8333 81.7162 46.5463 82.7781 45.9722C83.84 45.3796 84.6743 44.5648 85.2811 43.5278C85.8879 42.4722 86.1913 41.2963 86.1913 40C86.1913 38.7037 85.8879 37.537 85.2811 36.5C84.6743 35.4444 83.84 34.6296 82.7781 34.0556C81.7162 33.463 80.5215 33.1667 79.1942 33.1667C77.8668 33.1667 76.6722 33.463 75.6103 34.0556C74.5484 34.6296 73.7141 35.4444 73.1073 36.5C72.5005 37.537 72.1971 38.7037 72.1971 40C72.1971 41.2963 72.5005 42.4722 73.1073 43.5278C73.7141 44.5648 74.5484 45.3796 75.6103 45.9722C76.6722 46.5463 77.8668 46.8333 79.1942 46.8333Z" fill="url(#paint2_linear_2422_38317)"/>
<path d="M122.296 30.2778L115.697 49.7222H111.772L106.851 35.3333L101.845 49.7222H97.8912L91.2923 30.2778H95.1321L100.081 45.0556L105.23 30.2778H108.643L113.677 45.1389L118.769 30.2778H122.296Z" fill="url(#paint3_linear_2422_38317)"/>
<path d="M143 30.2778V49.7222H139.957L128.977 36.5556V49.7222H125.308V30.2778H128.352L139.331 43.4444V30.2778H143Z" fill="url(#paint4_linear_2422_38317)"/>
<path d="M61.2084 15.3333H63.8195V21.1458C63.0553 21.7431 62.1637 22.2014 61.1448 22.5208C60.1258 22.8403 59.0786 23 58.003 23C56.4887 23 55.123 22.6806 53.906 22.0417C52.6889 21.3889 51.7336 20.4931 51.0402 19.3542C50.3467 18.2153 50 16.9306 50 15.5C50 14.0694 50.3467 12.7847 51.0402 11.6458C51.7336 10.5069 52.6889 9.61806 53.906 8.97917C55.1372 8.32639 56.517 8 58.0455 8C59.2908 8 60.423 8.20139 61.4419 8.60417C62.4609 9.00694 63.3171 9.59722 64.0106 10.375L62.2698 12.0417C61.1377 10.9306 59.772 10.375 58.1728 10.375C57.1256 10.375 56.1915 10.5903 55.3707 11.0208C54.564 11.4514 53.9272 12.0556 53.4602 12.8333C53.0073 13.6111 52.7809 14.5 52.7809 15.5C52.7809 16.4722 53.0073 17.3472 53.4602 18.125C53.9272 18.9028 54.564 19.5139 55.3707 19.9583C56.1915 20.4028 57.1185 20.625 58.1516 20.625C59.3121 20.625 60.331 20.375 61.2084 19.875V15.3333Z" fill="url(#paint5_linear_2422_38317)"/>
<path d="M74.4009 23C72.8866 23 71.5209 22.6806 70.3039 22.0417C69.0868 21.3889 68.1315 20.4931 67.4381 19.3542C66.7446 18.2014 66.3979 16.9167 66.3979 15.5C66.3979 14.0833 66.7446 12.8056 67.4381 11.6667C68.1315 10.5139 69.0868 9.61806 70.3039 8.97917C71.5209 8.32639 72.8866 8 74.4009 8C75.9151 8 77.2808 8.32639 78.4979 8.97917C79.715 9.61806 80.6702 10.5069 81.3637 11.6458C82.0571 12.7847 82.4039 14.0694 82.4039 15.5C82.4039 16.9306 82.0571 18.2153 81.3637 19.3542C80.6702 20.4931 79.715 21.3889 78.4979 22.0417C77.2808 22.6806 75.9151 23 74.4009 23ZM74.4009 20.625C75.3915 20.625 76.2831 20.4097 77.0756 19.9792C77.8681 19.5347 78.4908 18.9236 78.9437 18.1458C79.3966 17.3542 79.623 16.4722 79.623 15.5C79.623 14.5278 79.3966 13.6528 78.9437 12.875C78.4908 12.0833 77.8681 11.4722 77.0756 11.0417C76.2831 10.5972 75.3915 10.375 74.4009 10.375C73.4102 10.375 72.5187 10.5972 71.7261 11.0417C70.9336 11.4722 70.3109 12.0833 69.8581 12.875C69.4052 13.6528 69.1788 14.5278 69.1788 15.5C69.1788 16.4722 69.4052 17.3542 69.8581 18.1458C70.3109 18.9236 70.9336 19.5347 71.7261 19.9792C72.5187 20.4097 73.4102 20.625 74.4009 20.625Z" fill="url(#paint6_linear_2422_38317)"/>
<path d="M85.329 8.20833H88.0887V20.5H95.8582V22.7917H85.329V8.20833Z" fill="url(#paint7_linear_2422_38317)"/>
<path d="M98.0369 8.20833H104.533C106.118 8.20833 107.526 8.51389 108.757 9.125C109.988 9.72222 110.944 10.5764 111.623 11.6875C112.302 12.7847 112.642 14.0556 112.642 15.5C112.642 16.9444 112.302 18.2222 111.623 19.3333C110.944 20.4306 109.988 21.2847 108.757 21.8958C107.526 22.4931 106.118 22.7917 104.533 22.7917H98.0369V8.20833ZM104.405 20.5C105.495 20.5 106.45 20.2986 107.271 19.8958C108.106 19.4792 108.743 18.8958 109.182 18.1458C109.634 17.3819 109.861 16.5 109.861 15.5C109.861 14.5 109.634 13.625 109.182 12.875C108.743 12.1111 108.106 11.5278 107.271 11.125C106.45 10.7083 105.495 10.5 104.405 10.5H100.797V20.5H104.405Z" fill="url(#paint8_linear_2422_38317)"/>
<path d="M126.72 20.5208V22.7917H115.575V8.20833H126.423V10.4792H118.335V14.2708H125.51V16.5H118.335V20.5208H126.72Z" fill="url(#paint9_linear_2422_38317)"/>
<path d="M143 8.20833V22.7917H140.729L132.535 12.9167V22.7917H129.796V8.20833H132.068L140.262 18.0833V8.20833H143Z" fill="url(#paint10_linear_2422_38317)"/>
<path d="M8.91494 30.823C10.7781 31.8713 12.9496 32.234 15.0524 31.8481C17.1552 31.4623 19.0564 30.3522 20.426 28.7106C21.7956 27.0691 22.5471 24.9997 22.55 22.8619C22.5529 20.724 21.807 18.6526 20.4418 17.0074" stroke="url(#paint11_linear_2422_38317)" stroke-width="2.47415" stroke-linecap="round" stroke-linejoin="round"/>
<path d="M20.4229 17.0234C21.7835 18.6663 23.6756 19.7821 25.7717 20.1778C27.8679 20.5735 30.0365 20.2243 31.9025 19.1905C33.7685 18.1567 35.2145 16.5034 35.9907 14.5164C36.7668 12.5294 36.8242 10.3337 36.1529 8.30881" stroke="url(#paint12_linear_2422_38317)" stroke-width="2.47415" stroke-linecap="round" stroke-linejoin="round"/>
<path d="M34.5394 5.36337L45.2884 24.8222L42.4709 25.6343" stroke="url(#paint13_linear_2422_38317)" stroke-width="2.47415" stroke-linecap="round" stroke-linejoin="round"/>
<path d="M30.3305 25.0963C30.6443 25.4757 30.8386 25.9397 30.8888 26.4295C30.9389 26.9193 30.8427 27.413 30.6123 27.8481C30.3819 28.2832 30.0276 28.6403 29.5943 28.874C29.1609 29.1078 28.668 29.2079 28.1778 29.1615C27.6876 29.1151 27.2222 28.9245 26.8404 28.6136C26.4586 28.3027 26.1775 27.8856 26.0328 27.415C25.888 26.9443 25.8861 26.4414 26.0272 25.9696C26.1683 25.4979 26.4461 25.0786 26.8255 24.7648" stroke="url(#paint14_linear_2422_38317)" stroke-width="2.47415" stroke-linecap="round" stroke-linejoin="round"/>
<path d="M20.81 13.5885C21.1238 13.9679 21.3181 14.4319 21.3683 14.9217C21.4184 15.4115 21.3222 15.9052 21.0918 16.3403C20.8614 16.7754 20.5071 17.1325 20.0738 17.3662C19.6404 17.6 19.1475 17.7001 18.6573 17.6537C18.1671 17.6073 17.7017 17.4166 17.3199 17.1058C16.9381 16.7949 16.657 16.3778 16.5123 15.9071C16.3675 15.4365 16.3656 14.9336 16.5067 14.4618C16.6478 13.9901 16.9256 13.5708 17.305 13.257" stroke="url(#paint15_linear_2422_38317)" stroke-width="2.47415" stroke-linecap="round" stroke-linejoin="round"/>
<path d="M34.9086 1.92446C35.2225 2.30385 35.4167 2.76779 35.4669 3.2576C35.5171 3.74741 35.4208 4.2411 35.1904 4.67623C34.96 5.11136 34.6057 5.46839 34.1724 5.70217C33.7391 5.93596 33.2461 6.03599 32.7559 5.98963C32.2658 5.94326 31.8003 5.75258 31.4185 5.4417C31.0367 5.13082 30.7557 4.7137 30.6109 4.24308C30.4661 3.77247 30.4642 3.2695 30.6053 2.79778C30.7464 2.32605 31.0242 1.90677 31.4036 1.59294" stroke="url(#paint16_linear_2422_38317)" stroke-width="2.47415" stroke-linecap="round" stroke-linejoin="round"/>
<path d="M6.37429 28.7101C6.13645 28.9805 5.84278 29.1961 5.51354 29.3419C5.18431 29.4878 4.82734 29.5605 4.46727 29.5551C4.1072 29.5496 3.7526 29.4661 3.42794 29.3103C3.10327 29.1545 2.81628 28.9301 2.58675 28.6526C2.35722 28.3752 2.19063 28.0512 2.09846 27.7031C2.00629 27.3549 1.99074 26.991 2.05289 26.6363C2.11503 26.2816 2.25339 25.9446 2.45842 25.6485C2.66345 25.3525 2.93027 25.1044 3.24046 24.9215" stroke="url(#paint17_linear_2422_38317)" stroke-width="2.47415" stroke-linecap="round" stroke-linejoin="round"/>
<path d="M20.1695 40.1715L6.35059 28.6797" stroke="url(#paint18_linear_2422_38317)" stroke-width="2.47415" stroke-linecap="round" stroke-linejoin="round"/>
<defs>
<linearGradient id="paint0_linear_2422_38317" x1="85" y1="30" x2="85" y2="50" gradientUnits="userSpaceOnUse">
<stop stop-color="#FFFF34"/>
<stop offset="1" stop-color="#D9A617"/>
</linearGradient>
<linearGradient id="paint1_linear_2422_38317" x1="85" y1="30" x2="85" y2="50" gradientUnits="userSpaceOnUse">
<stop stop-color="#FFFF34"/>
<stop offset="1" stop-color="#D9A617"/>
</linearGradient>
<linearGradient id="paint2_linear_2422_38317" x1="85" y1="30" x2="85" y2="50" gradientUnits="userSpaceOnUse">
<stop stop-color="#FFFF34"/>
<stop offset="1" stop-color="#D9A617"/>
</linearGradient>
<linearGradient id="paint3_linear_2422_38317" x1="85" y1="30" x2="85" y2="50" gradientUnits="userSpaceOnUse">
<stop stop-color="#FFFF34"/>
<stop offset="1" stop-color="#D9A617"/>
</linearGradient>
<linearGradient id="paint4_linear_2422_38317" x1="85" y1="30" x2="85" y2="50" gradientUnits="userSpaceOnUse">
<stop stop-color="#FFFF34"/>
<stop offset="1" stop-color="#D9A617"/>
</linearGradient>
<linearGradient id="paint5_linear_2422_38317" x1="96.5" y1="8" x2="96.5" y2="23" gradientUnits="userSpaceOnUse">
<stop stop-color="#FFFF34"/>
<stop offset="1" stop-color="#D9A617"/>
</linearGradient>
<linearGradient id="paint6_linear_2422_38317" x1="96.5" y1="8" x2="96.5" y2="23" gradientUnits="userSpaceOnUse">
<stop stop-color="#FFFF34"/>
<stop offset="1" stop-color="#D9A617"/>
</linearGradient>
<linearGradient id="paint7_linear_2422_38317" x1="96.5" y1="8" x2="96.5" y2="23" gradientUnits="userSpaceOnUse">
<stop stop-color="#FFFF34"/>
<stop offset="1" stop-color="#D9A617"/>
</linearGradient>
<linearGradient id="paint8_linear_2422_38317" x1="96.5" y1="8" x2="96.5" y2="23" gradientUnits="userSpaceOnUse">
<stop stop-color="#FFFF34"/>
<stop offset="1" stop-color="#D9A617"/>
</linearGradient>
<linearGradient id="paint9_linear_2422_38317" x1="96.5" y1="8" x2="96.5" y2="23" gradientUnits="userSpaceOnUse">
<stop stop-color="#FFFF34"/>
<stop offset="1" stop-color="#D9A617"/>
</linearGradient>
<linearGradient id="paint10_linear_2422_38317" x1="96.5" y1="8" x2="96.5" y2="23" gradientUnits="userSpaceOnUse">
<stop stop-color="#FFFF34"/>
<stop offset="1" stop-color="#D9A617"/>
</linearGradient>
<linearGradient id="paint11_linear_2422_38317" x1="13.6271" y1="22.6443" x2="19.4674" y2="29.7048" gradientUnits="userSpaceOnUse">
<stop stop-color="#FFFF34"/>
<stop offset="1" stop-color="#D9A617"/>
</linearGradient>
<linearGradient id="paint12_linear_2422_38317" x1="27.2327" y1="11.3905" x2="33.0604" y2="18.4357" gradientUnits="userSpaceOnUse">
<stop stop-color="#FFFF34"/>
<stop offset="1" stop-color="#D9A617"/>
</linearGradient>
<linearGradient id="paint13_linear_2422_38317" x1="31.9162" y1="7.53325" x2="45.8399" y2="24.366" gradientUnits="userSpaceOnUse">
<stop stop-color="#FFFF34"/>
<stop offset="1" stop-color="#D9A617"/>
</linearGradient>
<linearGradient id="paint14_linear_2422_38317" x1="26.8255" y1="24.7648" x2="29.999" y2="28.6013" gradientUnits="userSpaceOnUse">
<stop stop-color="#FFFF34"/>
<stop offset="1" stop-color="#D9A617"/>
</linearGradient>
<linearGradient id="paint15_linear_2422_38317" x1="17.305" y1="13.257" x2="20.4785" y2="17.0935" gradientUnits="userSpaceOnUse">
<stop stop-color="#FFFF34"/>
<stop offset="1" stop-color="#D9A617"/>
</linearGradient>
<linearGradient id="paint16_linear_2422_38317" x1="31.4036" y1="1.59294" x2="34.5771" y2="5.42947" gradientUnits="userSpaceOnUse">
<stop stop-color="#FFFF34"/>
<stop offset="1" stop-color="#D9A617"/>
</linearGradient>
<linearGradient id="paint17_linear_2422_38317" x1="2.11031" y1="25.8159" x2="5.28381" y2="29.6525" gradientUnits="userSpaceOnUse">
<stop stop-color="#FFFF34"/>
<stop offset="1" stop-color="#D9A617"/>
</linearGradient>
<linearGradient id="paint18_linear_2422_38317" x1="7.63103" y1="27.6205" x2="18.889" y2="41.2306" gradientUnits="userSpaceOnUse">
<stop stop-color="#FFFF34"/>
<stop offset="1" stop-color="#D9A617"/>
</linearGradient>
</defs>
</svg>
