<svg width="249" height="36" viewBox="0 0 249 36" fill="none" xmlns="http://www.w3.org/2000/svg">
<path d="M0.630809 35.1419C0.21027 35.1419 0 34.9326 0 34.5139V1.48895C0 1.07025 0.21027 0.860899 0.630809 0.860899H8.09538C11.3195 0.860899 13.7201 1.57618 15.2971 3.00674C16.8741 4.43729 17.6627 6.58313 17.6627 9.44425C17.6627 11.2586 17.3297 12.7764 16.6639 13.9976C15.998 15.2188 14.9291 16.1958 13.4573 16.9285V17.1379C15.2095 17.6612 16.5237 18.6207 17.3998 20.0164C18.2759 21.3772 18.714 23.1218 18.714 25.2502C18.714 28.5998 17.8729 31.0945 16.1908 32.7344C14.5437 34.3394 11.9679 35.1419 8.46336 35.1419H0.630809ZM6.51836 29.6988H8.46336C9.72497 29.6988 10.6712 29.2976 11.302 28.4951C11.9679 27.6577 12.3008 26.419 12.3008 24.7791C12.3008 23.2439 11.9679 22.075 11.302 21.2725C10.6712 20.47 9.72497 20.0688 8.46336 20.0688H6.51836V29.6988ZM6.51836 15.149H8.09538C9.14673 15.149 9.93524 14.7652 10.4609 13.9976C11.0216 13.1951 11.302 12.0262 11.302 10.491C11.302 9.02555 11.0392 7.96135 10.5135 7.29841C9.98781 6.63547 9.14673 6.304 7.99025 6.304H6.51836V15.149Z" fill="white"/>
<path d="M22.4459 35.1419C22.0954 35.1419 21.9202 34.9326 21.9202 34.5139V1.48895C21.9202 1.07025 22.0954 0.860899 22.4459 0.860899H37.4802C37.8306 0.860899 38.0058 1.07025 38.0058 1.48895V6.04231C38.0058 6.46101 37.8306 6.67036 37.4802 6.67036H28.4386V15.0444H36.6391C36.9895 15.0444 37.1648 15.2537 37.1648 15.6724V19.9641C37.1648 20.3479 36.9895 20.5398 36.6391 20.5398H28.4386V29.3325H37.4802C37.8306 29.3325 38.0058 29.5418 38.0058 29.9605V34.5139C38.0058 34.9326 37.8306 35.1419 37.4802 35.1419H22.4459Z" fill="white"/>
<path d="M50.9485 35.456C47.6192 35.456 45.0785 34.5139 43.3262 32.6297C41.609 30.7107 40.7504 27.7275 40.7504 23.68V12.3228C40.7504 8.41494 41.609 5.48404 43.3262 3.53011C45.0785 1.54129 47.6192 0.546875 50.9485 0.546875C53.2965 0.546875 55.2415 1.0528 56.7835 2.06466C58.3255 3.07652 59.4469 4.48963 60.1478 6.304C60.8838 8.11836 61.1115 10.2468 60.8312 12.6892C60.7611 13.1079 60.6034 13.3172 60.3581 13.3172H54.8385C54.453 13.3172 54.2953 13.0904 54.3654 12.6368C54.5056 10.6131 54.3128 9.07788 53.7872 8.03113C53.2615 6.94949 52.2977 6.40867 50.8959 6.40867C49.5993 6.40867 48.6531 6.87971 48.0573 7.82178C47.4966 8.72897 47.2162 10.2991 47.2162 12.5322V23.3137C47.2162 25.6165 47.5141 27.239 48.1099 28.1811C48.7407 29.1231 49.6869 29.5942 50.9485 29.5942C52.4204 29.5942 53.3841 29.0359 53.8397 27.9194C54.2953 26.7679 54.4881 25.2502 54.418 23.366C54.3829 22.9124 54.5406 22.6856 54.8911 22.6856H60.3055C60.6209 22.6856 60.8137 22.895 60.8838 23.3137C61.1992 27.0471 60.5158 30.0129 58.8336 32.211C57.1865 34.3743 54.5581 35.456 50.9485 35.456Z" fill="white"/>
<path d="M65.1569 35.1419C64.8065 35.1419 64.6312 34.9326 64.6312 34.5139V1.48895C64.6312 1.07025 64.8065 0.860899 65.1569 0.860899H72.9369C76.4764 0.860899 79.0522 1.68085 80.6643 3.32076C82.3114 4.92578 83.135 7.49031 83.135 11.0144C83.135 13.5266 82.7845 15.5503 82.0836 17.0855C81.4178 18.5859 80.4015 19.6675 79.0347 20.3304L78.9821 20.4351L84.4492 34.4092C84.5893 34.8977 84.4492 35.1419 84.0286 35.1419H78.0885C77.7731 35.1419 77.5628 35.0024 77.4577 34.7232L72.9369 21.6389H71.1496V34.5139C71.1496 34.9326 70.9744 35.1419 70.6239 35.1419H65.1569ZM71.1496 16.1958H72.9895C74.2861 16.1958 75.2148 15.7945 75.7755 14.992C76.3363 14.1895 76.6166 12.9683 76.6166 11.3284C76.6166 9.68849 76.3187 8.50217 75.723 7.76945C75.1272 7.03672 74.1985 6.67036 72.9369 6.67036H71.1496V16.1958Z" fill="white"/>
<path d="M87.6931 35.1419C87.3427 35.1419 87.1675 34.9326 87.1675 34.5139V1.48895C87.1675 1.07025 87.3427 0.860899 87.6931 0.860899H93.1601C93.5106 0.860899 93.6858 1.07025 93.6858 1.48895V34.5139C93.6858 34.9326 93.5106 35.1419 93.1601 35.1419H87.6931Z" fill="white"/>
<path d="M107.571 35.456C104.242 35.456 101.701 34.5139 99.9492 32.6297C98.2319 30.7107 97.3733 27.7275 97.3733 23.68V12.3228C97.3733 8.41494 98.2319 5.48404 99.9492 3.53011C101.701 1.54129 104.242 0.546875 107.571 0.546875C109.919 0.546875 111.864 1.0528 113.406 2.06466C114.948 3.07652 116.07 4.48963 116.771 6.304C117.507 8.11836 117.734 10.2468 117.454 12.6892C117.384 13.1079 117.226 13.3172 116.981 13.3172H111.461C111.076 13.3172 110.918 13.0904 110.988 12.6368C111.128 10.6131 110.936 9.07788 110.41 8.03113C109.884 6.94949 108.921 6.40867 107.519 6.40867C106.222 6.40867 105.276 6.87971 104.68 7.82178C104.12 8.72897 103.839 10.2991 103.839 12.5322V23.3137C103.839 25.6165 104.137 27.239 104.733 28.1811C105.364 29.1231 106.31 29.5942 107.571 29.5942C109.043 29.5942 110.007 29.0359 110.463 27.9194C110.918 26.7679 111.111 25.2502 111.041 23.366C111.006 22.9124 111.164 22.6856 111.514 22.6856H116.928C117.244 22.6856 117.437 22.895 117.507 23.3137C117.822 27.0471 117.139 30.0129 115.457 32.211C113.809 34.3743 111.181 35.456 107.571 35.456Z" fill="white"/>
<path d="M137.654 35.456C134.325 35.456 131.784 34.5139 130.032 32.6297C128.314 30.7107 127.456 27.7275 127.456 23.68V12.3228C127.456 8.41494 128.314 5.48404 130.032 3.53011C131.784 1.54129 134.325 0.546875 137.654 0.546875C140.002 0.546875 141.947 1.0528 143.489 2.06466C145.031 3.07652 146.152 4.48963 146.853 6.304C147.589 8.11836 147.817 10.2468 147.537 12.6892C147.467 13.1079 147.309 13.3172 147.064 13.3172H141.544C141.158 13.3172 141.001 13.0904 141.071 12.6368C141.211 10.6131 141.018 9.07788 140.493 8.03113C139.967 6.94949 139.003 6.40867 137.601 6.40867C136.305 6.40867 135.359 6.87971 134.763 7.82178C134.202 8.72897 133.922 10.2991 133.922 12.5322V23.3137C133.922 25.6165 134.22 27.239 134.815 28.1811C135.446 29.1231 136.392 29.5942 137.654 29.5942C139.126 29.5942 140.09 29.0359 140.545 27.9194C141.001 26.7679 141.193 25.2502 141.123 23.366C141.088 22.9124 141.246 22.6856 141.597 22.6856H147.011C147.326 22.6856 147.519 22.895 147.589 23.3137C147.905 27.0471 147.221 30.0129 145.539 32.211C143.892 34.3743 141.264 35.456 137.654 35.456Z" fill="white"/>
<path d="M149.4 35.1419C149.05 35.1419 148.91 34.9151 148.98 34.4616L156.076 1.33194C156.146 1.01791 156.339 0.860899 156.655 0.860899H163.699C164.049 0.860899 164.259 1.01791 164.329 1.33194L171.374 34.4616C171.479 34.9151 171.356 35.1419 171.006 35.1419H164.96C164.645 35.1419 164.452 34.9849 164.382 34.6709L161.228 14.3116C161.053 13.1253 160.878 11.939 160.702 10.7527C160.527 9.53147 160.369 8.32771 160.229 7.1414H160.124C159.949 8.32771 159.791 9.53147 159.651 10.7527C159.511 11.939 159.336 13.1428 159.125 14.364L155.866 34.6709C155.831 34.9849 155.638 35.1419 155.288 35.1419H149.4ZM155.971 28.024L156.865 22.738H163.331L164.329 28.024H155.971Z" fill="white"/>
<path d="M181.4 35.456C179.157 35.456 177.352 35.0547 175.985 34.2522C174.654 33.4148 173.708 32.2285 173.147 30.6933C172.621 29.1231 172.446 27.2913 172.621 25.1978C172.656 24.7442 172.831 24.5174 173.147 24.5174H178.509C178.824 24.5174 178.964 24.7268 178.929 25.1455C178.789 26.6109 178.929 27.7624 179.35 28.5998C179.805 29.4023 180.524 29.8035 181.505 29.8035C182.416 29.8035 183.082 29.5418 183.503 29.0185C183.923 28.4951 184.133 27.6402 184.133 26.4539C184.133 25.4421 183.958 24.5698 183.608 23.837C183.292 23.0694 182.749 22.4065 181.978 21.8482L177.51 18.394C175.863 17.1379 174.636 15.7945 173.83 14.364C173.024 12.9334 172.639 11.1539 172.674 9.02555C172.709 6.304 173.445 4.2105 174.882 2.74505C176.318 1.2796 178.456 0.546875 181.295 0.546875C184.484 0.546875 186.832 1.41917 188.339 3.16375C189.846 4.87344 190.459 7.31585 190.179 10.491C190.144 10.9795 189.951 11.2237 189.6 11.2237H184.186C183.836 11.2237 183.678 10.9795 183.713 10.491C183.853 9.26979 183.73 8.25793 183.345 7.45542C182.994 6.61802 182.381 6.19932 181.505 6.19932C180.769 6.19932 180.191 6.44356 179.77 6.93205C179.385 7.38564 179.175 8.11836 179.14 9.13022C179.14 10.1421 179.35 10.9969 179.77 11.6948C180.191 12.3577 180.752 12.9683 181.452 13.5266L185.868 16.8762C187.06 17.7485 188.006 18.6382 188.707 19.5454C189.408 20.4177 189.898 21.4121 190.179 22.5286C190.494 23.6103 190.652 24.9187 190.652 26.4539C190.617 29.3499 189.863 31.583 188.391 33.1531C186.919 34.6884 184.589 35.456 181.4 35.456Z" fill="white"/>
<path d="M194.368 35.1419C194.018 35.1419 193.842 34.9326 193.842 34.5139V1.48895C193.842 1.07025 194.018 0.860899 194.368 0.860899H199.835C200.186 0.860899 200.361 1.07025 200.361 1.48895V34.5139C200.361 34.9326 200.186 35.1419 199.835 35.1419H194.368Z" fill="white"/>
<path d="M204.994 35.1419C204.644 35.1419 204.469 34.9326 204.469 34.5139V1.48895C204.469 1.07025 204.644 0.860899 204.994 0.860899H211.881C212.196 0.860899 212.389 1.00047 212.459 1.2796L216.77 17.1902C217.015 18.0625 217.26 19.0394 217.506 20.1211C217.786 21.1678 218.049 22.232 218.294 23.3137C218.539 24.3953 218.732 25.3374 218.872 26.1399H218.977C218.942 25.4421 218.89 24.6047 218.82 23.6277C218.75 22.6507 218.68 21.6389 218.609 20.5921C218.574 19.5454 218.539 18.5335 218.504 17.5566C218.504 16.5796 218.504 15.7422 218.504 15.0444V1.43661C218.504 1.0528 218.68 0.860899 219.03 0.860899H224.024C224.409 0.860899 224.602 1.0528 224.602 1.43661V34.5139C224.602 34.9326 224.427 35.1419 224.076 35.1419H217.243C216.962 35.1419 216.77 35.0024 216.664 34.7232L212.249 19.0743C211.828 17.5391 211.443 15.9864 211.092 14.4163C210.777 12.8113 210.497 11.3633 210.251 10.0723H210.146C210.216 11.0842 210.286 12.2879 210.356 13.6836C210.426 15.0792 210.479 16.4924 210.514 17.9229C210.584 19.3186 210.619 20.5223 210.619 21.5342V34.5139C210.619 34.9326 210.426 35.1419 210.041 35.1419H204.994Z" fill="white"/>
<path d="M238.477 35.456C235.147 35.456 232.607 34.4964 230.854 32.5774C229.137 30.6584 228.279 27.8321 228.279 24.0987V12.0088C228.279 8.20559 229.137 5.34448 230.854 3.42544C232.607 1.5064 235.147 0.546875 238.477 0.546875C241.806 0.546875 244.347 1.5064 246.099 3.42544C247.851 5.34448 248.727 8.20559 248.727 12.0088V24.0987C248.727 27.8321 247.851 30.6584 246.099 32.5774C244.347 34.4964 241.806 35.456 238.477 35.456ZM238.477 29.5942C239.773 29.5942 240.72 29.158 241.315 28.2857C241.911 27.3786 242.209 25.8957 242.209 23.837V12.2181C242.209 10.1246 241.911 8.64174 241.315 7.76945C240.72 6.86226 239.773 6.40867 238.477 6.40867C237.215 6.40867 236.269 6.86226 235.638 7.76945C235.042 8.64174 234.744 10.1246 234.744 12.2181V23.837C234.744 25.8957 235.042 27.3786 235.638 28.2857C236.269 29.158 237.215 29.5942 238.477 29.5942Z" fill="white"/>
</svg>
