<svg width="209" height="48" viewBox="0 0 209 48" fill="none" xmlns="http://www.w3.org/2000/svg">
<path d="M118.147 29.4055C118.147 35.9531 111.949 38.9525 107.663 38.9545C102.884 38.9545 99.2727 36.9828 97.1229 35.3729C97.4064 40.6994 98.7906 44.5048 105.002 47.5H84.7108C90.9226 44.5048 92.3068 40.6994 92.5903 35.3729C90.4405 36.9818 86.8284 38.9566 82.0502 38.9545C77.7702 38.9545 71.5664 35.9531 71.5664 29.4055C71.5664 17.4383 80.8221 20.6948 94.856 0.5C108.891 20.6948 118.147 17.4393 118.147 29.4055Z" fill="#E71421"/>
<path d="M104.398 39.1049L104.362 21.9979L95.9194 36.1554H93.7905L85.3483 22.2191V39.1049H80.7969V13.2969H84.7243L94.9283 30.4039L104.949 13.2969H108.876L108.913 39.1049H104.398Z" fill="#2B2F35"/>
<path d="M38.2332 13.718L30.0955 38.2714H25.255L19.1868 20.1018L13.0133 38.2714H8.13771L0 13.718H4.73531L10.8386 32.3786L17.1874 13.718H21.3966L27.6051 32.4838L33.8838 13.718H38.2332Z" fill="white"/>
<path d="M41.948 13.718H46.508V38.2714H41.948V13.718Z" fill="white"/>
<path d="M74.9667 13.718V38.2714H71.2135L57.674 21.6452V38.2714H53.1492V13.718H56.9023L70.4418 30.3441V13.718H74.9667Z" fill="white"/>
<path d="M130.971 32.589H118.695L116.274 38.2714H111.574L122.623 13.718H127.113L138.197 38.2714H133.427L130.971 32.589ZM129.463 29.0112L124.833 18.2779L120.238 29.0112H129.463Z" fill="white"/>
<path d="M145.067 17.5764H136.93V13.718H157.765V17.5764H149.627V38.2714H145.067V17.5764Z" fill="white"/>
<path d="M172.209 38.6222C169.731 38.6222 167.486 38.0843 165.475 37.0087C163.487 35.9096 161.92 34.4013 160.774 32.4838C159.652 30.5663 159.091 28.4033 159.091 25.9947C159.091 23.5861 159.664 21.4231 160.809 19.5055C161.955 17.588 163.522 16.0915 165.51 15.0158C167.521 13.9167 169.766 13.3672 172.244 13.3672C174.255 13.3672 176.091 13.718 177.751 14.4195C179.412 15.121 180.815 16.1382 181.961 17.4711L179.014 20.2422C177.237 18.3246 175.05 17.3659 172.455 17.3659C170.771 17.3659 169.263 17.74 167.93 18.4883C166.597 19.2132 165.556 20.2305 164.808 21.54C164.06 22.8495 163.686 24.3344 163.686 25.9947C163.686 27.655 164.06 29.1399 164.808 30.4494C165.556 31.7589 166.597 32.7878 167.93 33.5361C169.263 34.261 170.771 34.6235 172.455 34.6235C175.05 34.6235 177.237 33.653 179.014 31.7121L181.961 34.5182C180.815 35.8511 179.4 36.8683 177.716 37.5699C176.056 38.2714 174.22 38.6222 172.209 38.6222Z" fill="white"/>
<path d="M208.147 13.718V38.2714H203.587V27.7485H190.89V38.2714H186.33V13.718H190.89V23.855H203.587V13.718H208.147Z" fill="white"/>
<path d="M100.099 9.52344L97.1269 12.5094L94.7489 9.52344L92.3709 12.5094L89.3984 9.52344V17.2868H94.7489H100.099V9.52344Z" fill="#2B2F35"/>
</svg>
