<svg width="189" height="26" viewBox="0 0 189 26" fill="none" xmlns="http://www.w3.org/2000/svg">
<path d="M0 25.1678L5.18889 0.88206H12.3425C13.9098 0.88206 15.2756 1.06478 16.4399 1.43023C17.6042 1.78461 18.5054 2.36047 19.1435 3.15781C19.7928 3.94408 20.1175 4.98505 20.1175 6.28073C20.1175 7.37708 19.9048 8.35161 19.4793 9.20432C19.0651 10.046 18.4606 10.7492 17.6657 11.314C16.8709 11.8677 15.9025 12.2663 14.7606 12.51V12.6429C15.8801 12.9308 16.7701 13.4679 17.4307 14.2542C18.1024 15.0293 18.4382 16.026 18.4382 17.2442C18.4382 19.0825 18.0128 20.5886 17.162 21.7625C16.3112 22.9253 15.1525 23.7835 13.6859 24.3372C12.2306 24.8909 10.5905 25.1678 8.7657 25.1678H0ZM6.02852 20.9153H9.05118C9.8908 20.9153 10.6241 20.7769 11.251 20.5C11.8779 20.2231 12.3649 19.8134 12.712 19.2708C13.0702 18.7281 13.2493 18.0637 13.2493 17.2774C13.2493 16.4247 12.9918 15.7658 12.4769 15.3007C11.9731 14.8245 11.2062 14.5864 10.1763 14.5864H7.40551L6.02852 20.9153ZM8.26193 10.5H10.764C11.5813 10.5 12.2921 10.3948 12.8967 10.1844C13.5124 9.9629 13.9882 9.62514 14.324 9.1711C14.6599 8.70598 14.8278 8.10797 14.8278 7.37708C14.8278 6.62403 14.5927 6.05925 14.1225 5.68272C13.6523 5.29513 12.9359 5.10133 11.9731 5.10133H9.42061L8.26193 10.5Z" fill="white"/>
<path d="M21.3265 25.1678L26.5154 0.88206H40.2517L39.3449 5.10133H30.7471L29.622 10.4336H37.6321L36.7085 14.6528H28.6984L27.355 20.9153H35.9528L35.046 25.1678H21.3265Z" fill="white"/>
<path d="M43.543 25.1678L47.8084 5.16777H41.8974L42.821 0.88206H59.7814L58.8578 5.16777H52.9301L48.6648 25.1678H43.543Z" fill="white"/>
<path d="M68.4968 25.5C65.642 25.5 63.4142 24.6971 61.8133 23.0914C60.2124 21.4745 59.412 19.1268 59.412 16.0482C59.412 14.3981 59.6079 12.8034 59.9997 11.2641C60.3916 9.72481 60.9737 8.30731 61.7462 7.01163C62.5186 5.70487 63.4814 4.56423 64.6345 3.5897C65.7988 2.61517 67.1422 1.85659 68.6647 1.31395C70.1872 0.771318 71.8944 0.5 73.7864 0.5C75.0514 0.5 76.2381 0.63289 77.3464 0.898671C78.4547 1.16445 79.563 1.57973 80.6713 2.14452L78.7402 6.31395C77.923 5.87099 77.0945 5.51661 76.2549 5.25083C75.4265 4.98505 74.5253 4.85216 73.5513 4.85216C72.04 4.85216 70.7246 5.17331 69.6051 5.81562C68.4968 6.44684 67.5732 7.28848 66.8343 8.34053C66.0954 9.38151 65.5413 10.5388 65.1718 11.8123C64.8136 13.0858 64.6345 14.3649 64.6345 15.6495C64.6345 16.8455 64.8024 17.8588 65.1383 18.6894C65.4741 19.5089 66.0059 20.129 66.7335 20.5498C67.4724 20.9707 68.424 21.1811 69.5883 21.1811C70.1592 21.1811 70.6574 21.1423 71.0828 21.0648C71.5082 20.9873 71.9616 20.8931 72.443 20.7824L73.5513 15.8156H69.0677L70.0081 11.5299H79.4623L76.7419 24.1877C75.6224 24.5642 74.4357 24.8798 73.1819 25.1346C71.928 25.3782 70.3663 25.5 68.4968 25.5Z" fill="#95F496"/>
<path d="M81.9812 25.1678L87.1701 0.88206H93.1986C95.6615 0.88206 97.6038 1.40808 99.0256 2.46013C100.459 3.50111 101.175 5.19546 101.175 7.54319C101.175 8.8278 100.94 9.95183 100.47 10.9153C99.9995 11.8787 99.3558 12.6872 98.5386 13.3405C97.7326 13.9939 96.809 14.4978 95.7678 14.8522L100.151 25.1678H94.5756L91.0995 15.8488H89.1012L87.1029 25.1678H81.9812ZM89.9912 11.6628H91.301C92.0287 11.6628 92.678 11.5853 93.249 11.4302C93.8311 11.2641 94.3237 11.026 94.7267 10.7159C95.1297 10.3948 95.432 9.99612 95.6335 9.51993C95.8462 9.03267 95.9526 8.46789 95.9526 7.82558C95.9526 6.9175 95.6839 6.23643 95.1465 5.78239C94.6091 5.32835 93.7751 5.10133 92.6444 5.10133H91.4018L89.9912 11.6628Z" fill="#95F496"/>
<path d="M113.232 25.5C111.239 25.5 109.566 25.1179 108.211 24.3538C106.868 23.5897 105.849 22.5155 105.155 21.1312C104.461 19.7359 104.114 18.108 104.114 16.2475C104.114 14.9851 104.226 13.7226 104.45 12.4601C104.685 11.1977 105.032 9.97951 105.491 8.80565C105.961 7.63178 106.549 6.54098 107.254 5.53322C107.97 4.52547 108.81 3.64507 109.773 2.89203C110.736 2.13898 111.827 1.55205 113.047 1.13123C114.268 0.71041 115.622 0.5 117.111 0.5C120.089 0.5 122.328 1.33056 123.828 2.99169C125.34 4.64175 126.095 6.83998 126.095 9.58638C126.095 10.9042 125.983 12.211 125.759 13.5066C125.547 14.8023 125.211 16.0426 124.752 17.2276C124.304 18.4125 123.727 19.5089 123.022 20.5166C122.328 21.5133 121.505 22.3882 120.554 23.1412C119.602 23.8832 118.516 24.4646 117.296 24.8854C116.087 25.2951 114.732 25.5 113.232 25.5ZM113.602 21.1811C114.273 21.1811 114.917 21.0592 115.533 20.8156C116.148 20.572 116.725 20.2231 117.262 19.7691C117.8 19.304 118.287 18.7392 118.723 18.0748C119.171 17.3992 119.552 16.6406 119.865 15.799C120.179 14.9463 120.419 14.0105 120.587 12.9917C120.766 11.9729 120.856 10.8821 120.856 9.71927C120.856 8.22425 120.503 7.02824 119.798 6.13123C119.104 5.23422 118.068 4.78571 116.691 4.78571C115.986 4.78571 115.309 4.92414 114.659 5.201C114.021 5.47785 113.428 5.87099 112.879 6.3804C112.342 6.88981 111.855 7.49336 111.418 8.19103C110.982 8.88871 110.607 9.6639 110.293 10.5166C109.98 11.3693 109.739 12.2774 109.571 13.2409C109.415 14.2043 109.336 15.2065 109.336 16.2475C109.336 17.3217 109.504 18.2298 109.84 18.9718C110.176 19.7027 110.663 20.2564 111.301 20.6329C111.939 20.9983 112.706 21.1811 113.602 21.1811Z" fill="#95F496"/>
<path d="M137.313 25.5C135.622 25.5 134.195 25.2176 133.03 24.6528C131.877 24.088 131.004 23.2962 130.411 22.2774C129.829 21.2475 129.538 20.046 129.538 18.6728C129.538 18.3184 129.554 17.9197 129.588 17.4767C129.633 17.0227 129.7 16.6019 129.79 16.2143L133.081 0.88206H138.203L134.945 16.1478C134.866 16.5354 134.799 16.9064 134.743 17.2608C134.687 17.6152 134.659 17.9363 134.659 18.2243C134.659 19.1766 134.922 19.9075 135.449 20.4169C135.975 20.9264 136.77 21.1811 137.833 21.1811C138.829 21.1811 139.652 20.9928 140.302 20.6163C140.962 20.2398 141.494 19.675 141.897 18.9219C142.3 18.1689 142.619 17.2331 142.854 16.1146L146.112 0.88206H151.25L147.875 16.5963C147.506 18.3128 146.901 19.8466 146.061 21.1977C145.233 22.5377 144.108 23.5897 142.686 24.3538C141.264 25.1179 139.473 25.5 137.313 25.5Z" fill="#95F496"/>
<path d="M157.615 25.5C156.383 25.5 155.253 25.3671 154.223 25.1013C153.204 24.8355 152.342 24.4701 151.637 24.005V19.4535C152.655 20.0183 153.652 20.4612 154.626 20.7824C155.611 21.0925 156.618 21.2475 157.648 21.2475C158.219 21.2475 158.745 21.1977 159.227 21.098C159.719 20.9873 160.145 20.8212 160.503 20.5997C160.861 20.3782 161.141 20.1013 161.343 19.7691C161.544 19.4369 161.645 19.0493 161.645 18.6063C161.645 17.9751 161.516 17.4491 161.259 17.0282C161.012 16.5963 160.665 16.1977 160.218 15.8322C159.781 15.4668 159.272 15.0736 158.689 14.6528C158.007 14.1656 157.34 13.6118 156.691 12.9917C156.053 12.3715 155.527 11.6517 155.113 10.8322C154.698 10.0017 154.491 9.03267 154.491 7.92525C154.491 6.83998 154.687 5.84884 155.079 4.95183C155.482 4.05482 156.053 3.27409 156.792 2.60963C157.531 1.94518 158.415 1.43577 159.445 1.0814C160.486 0.715947 161.645 0.533223 162.921 0.533223C164.186 0.533223 165.356 0.67165 166.431 0.948505C167.517 1.21429 168.569 1.62403 169.588 2.17774L167.757 6.04817C166.884 5.63843 166.05 5.33389 165.255 5.13455C164.472 4.92414 163.694 4.81894 162.921 4.81894C162.462 4.81894 162.037 4.88538 161.645 5.01827C161.264 5.14009 160.928 5.32281 160.637 5.56645C160.358 5.799 160.139 6.0814 159.982 6.41362C159.826 6.74585 159.747 7.12237 159.747 7.54319C159.747 8.11905 159.865 8.61185 160.1 9.0216C160.346 9.43134 160.693 9.8134 161.141 10.1678C161.6 10.5111 162.149 10.8931 162.787 11.314C163.694 11.9009 164.444 12.5321 165.037 13.2076C165.642 13.8721 166.089 14.5975 166.38 15.3837C166.683 16.17 166.834 17.0393 166.834 17.9917C166.834 19.2652 166.593 20.3726 166.112 21.314C165.63 22.2553 164.964 23.036 164.113 23.6561C163.274 24.2763 162.294 24.7414 161.175 25.0515C160.066 25.3505 158.88 25.5 157.615 25.5Z" fill="#95F496"/>
<path d="M170.075 25.1678L175.264 0.88206H189L188.093 5.10133H179.495L178.37 10.4336H186.38L185.457 14.6528H177.447L176.103 20.9153H184.701L183.794 25.1678H170.075Z" fill="#95F496"/>
</svg>
