<svg width="158" height="38" viewBox="0 0 158 38" fill="none" xmlns="http://www.w3.org/2000/svg">
<path d="M7.93359 12.8477V1.02344H11.4375V12.8477C11.4375 13.9883 11.1875 14.9688 10.6875 15.7891C10.1875 16.6016 9.50391 17.2266 8.63672 17.6641C7.77734 18.1016 6.80859 18.3203 5.73047 18.3203C4.61328 18.3203 3.625 18.1328 2.76562 17.7578C1.90625 17.3828 1.23047 16.8086 0.738281 16.0352C0.246094 15.2539 0 14.2656 0 13.0703H3.52734C3.52734 13.6953 3.61328 14.1914 3.78516 14.5586C3.96484 14.9258 4.21875 15.1875 4.54688 15.3438C4.875 15.5 5.26953 15.5781 5.73047 15.5781C6.17578 15.5781 6.5625 15.4727 6.89062 15.2617C7.21875 15.0508 7.47266 14.7422 7.65234 14.3359C7.83984 13.9297 7.93359 13.4336 7.93359 12.8477Z" fill="#FCA700"/>
<path d="M21.1172 3.94141L16.4766 18.0859H12.7383L19.0781 1.02344H21.457L21.1172 3.94141ZM24.9727 18.0859L20.3203 3.94141L19.9453 1.02344H22.3477L28.7227 18.0859H24.9727ZM24.7617 11.7344V14.4883H15.75V11.7344H24.7617Z" fill="#FCA700"/>
<path d="M39.9844 12.4258H43.4883C43.418 13.5742 43.1016 14.5938 42.5391 15.4844C41.9844 16.375 41.207 17.0703 40.207 17.5703C39.2148 18.0703 38.0195 18.3203 36.6211 18.3203C35.5273 18.3203 34.5469 18.1328 33.6797 17.7578C32.8125 17.375 32.0703 16.8281 31.4531 16.1172C30.8438 15.4062 30.3789 14.5469 30.0586 13.5391C29.7383 12.5312 29.5781 11.4023 29.5781 10.1523V8.96875C29.5781 7.71875 29.7422 6.58984 30.0703 5.58203C30.4062 4.56641 30.8828 3.70312 31.5 2.99219C32.125 2.28125 32.8711 1.73438 33.7383 1.35156C34.6055 0.96875 35.5742 0.777344 36.6445 0.777344C38.0664 0.777344 39.2656 1.03516 40.2422 1.55078C41.2266 2.06641 41.9883 2.77734 42.5273 3.68359C43.0742 4.58984 43.4023 5.62109 43.5117 6.77734H39.9961C39.957 6.08984 39.8203 5.50781 39.5859 5.03125C39.3516 4.54688 38.9961 4.18359 38.5195 3.94141C38.0508 3.69141 37.4258 3.56641 36.6445 3.56641C36.0586 3.56641 35.5469 3.67578 35.1094 3.89453C34.6719 4.11328 34.3047 4.44531 34.0078 4.89062C33.7109 5.33594 33.4883 5.89844 33.3398 6.57812C33.1992 7.25 33.1289 8.03906 33.1289 8.94531V10.1523C33.1289 11.0352 33.1953 11.8125 33.3281 12.4844C33.4609 13.1484 33.6641 13.7109 33.9375 14.1719C34.2188 14.625 34.5781 14.9688 35.0156 15.2031C35.4609 15.4297 35.9961 15.543 36.6211 15.543C37.3555 15.543 37.9609 15.4258 38.4375 15.1914C38.9141 14.957 39.2773 14.6094 39.5273 14.1484C39.7852 13.6875 39.9375 13.1133 39.9844 12.4258Z" fill="#FCA700"/>
<path d="M49.3125 1.02344V18.0859H45.7969V1.02344H49.3125ZM59.5312 1.02344L52.7695 9.44922L48.8672 13.6445L48.2344 10.3164L50.8711 6.70703L55.2188 1.02344H59.5312ZM55.5352 18.0859L50.5078 10.1992L53.1094 8.01953L59.6953 18.0859H55.5352Z" fill="#FCA700"/>
<path d="M67.6992 12.0039H63.3516V9.26172H67.6992C68.3711 9.26172 68.918 9.15234 69.3398 8.93359C69.7617 8.70703 70.0703 8.39453 70.2656 7.99609C70.4609 7.59766 70.5586 7.14844 70.5586 6.64844C70.5586 6.14062 70.4609 5.66797 70.2656 5.23047C70.0703 4.79297 69.7617 4.44141 69.3398 4.17578C68.918 3.91016 68.3711 3.77734 67.6992 3.77734H64.5703V18.0859H61.0547V1.02344H67.6992C69.0352 1.02344 70.1797 1.26562 71.1328 1.75C72.0938 2.22656 72.8281 2.88672 73.3359 3.73047C73.8438 4.57422 74.0977 5.53906 74.0977 6.625C74.0977 7.72656 73.8438 8.67969 73.3359 9.48438C72.8281 10.2891 72.0938 10.9102 71.1328 11.3477C70.1797 11.7852 69.0352 12.0039 67.6992 12.0039Z" fill="#FCA700"/>
<path d="M90.5391 9.15625V9.96484C90.5391 11.2617 90.3633 12.4258 90.0117 13.457C89.6602 14.4883 89.1641 15.3672 88.5234 16.0938C87.8828 16.8125 87.1172 17.3633 86.2266 17.7461C85.3438 18.1289 84.3633 18.3203 83.2852 18.3203C82.2148 18.3203 81.2344 18.1289 80.3438 17.7461C79.4609 17.3633 78.6953 16.8125 78.0469 16.0938C77.3984 15.3672 76.8945 14.4883 76.5352 13.457C76.1836 12.4258 76.0078 11.2617 76.0078 9.96484V9.15625C76.0078 7.85156 76.1836 6.6875 76.5352 5.66406C76.8867 4.63281 77.3828 3.75391 78.0234 3.02734C78.6719 2.30078 79.4375 1.74609 80.3203 1.36328C81.2109 0.980469 82.1914 0.789062 83.2617 0.789062C84.3398 0.789062 85.3203 0.980469 86.2031 1.36328C87.0938 1.74609 87.8594 2.30078 88.5 3.02734C89.1484 3.75391 89.6484 4.63281 90 5.66406C90.3594 6.6875 90.5391 7.85156 90.5391 9.15625ZM86.9883 9.96484V9.13281C86.9883 8.22656 86.9062 7.42969 86.7422 6.74219C86.5781 6.05469 86.3359 5.47656 86.0156 5.00781C85.6953 4.53906 85.3047 4.1875 84.8438 3.95312C84.3828 3.71094 83.8555 3.58984 83.2617 3.58984C82.668 3.58984 82.1406 3.71094 81.6797 3.95312C81.2266 4.1875 80.8398 4.53906 80.5195 5.00781C80.207 5.47656 79.9688 6.05469 79.8047 6.74219C79.6406 7.42969 79.5586 8.22656 79.5586 9.13281V9.96484C79.5586 10.8633 79.6406 11.6602 79.8047 12.3555C79.9688 13.043 80.2109 13.625 80.5312 14.1016C80.8516 14.5703 81.2422 14.9258 81.7031 15.168C82.1641 15.4102 82.6914 15.5312 83.2852 15.5312C83.8789 15.5312 84.4062 15.4102 84.8672 15.168C85.3281 14.9258 85.7148 14.5703 86.0273 14.1016C86.3398 13.625 86.5781 13.043 86.7422 12.3555C86.9062 11.6602 86.9883 10.8633 86.9883 9.96484Z" fill="#FCA700"/>
<path d="M99.9023 1.02344V18.0859H96.3984V1.02344H99.9023ZM105.152 1.02344V3.77734H91.2305V1.02344H105.152Z" fill="#FCA700"/>
<path d="M116.719 12.4258H120.223C120.152 13.5742 119.836 14.5938 119.273 15.4844C118.719 16.375 117.941 17.0703 116.941 17.5703C115.949 18.0703 114.754 18.3203 113.355 18.3203C112.262 18.3203 111.281 18.1328 110.414 17.7578C109.547 17.375 108.805 16.8281 108.188 16.1172C107.578 15.4062 107.113 14.5469 106.793 13.5391C106.473 12.5312 106.312 11.4023 106.312 10.1523V8.96875C106.312 7.71875 106.477 6.58984 106.805 5.58203C107.141 4.56641 107.617 3.70312 108.234 2.99219C108.859 2.28125 109.605 1.73438 110.473 1.35156C111.34 0.96875 112.309 0.777344 113.379 0.777344C114.801 0.777344 116 1.03516 116.977 1.55078C117.961 2.06641 118.723 2.77734 119.262 3.68359C119.809 4.58984 120.137 5.62109 120.246 6.77734H116.73C116.691 6.08984 116.555 5.50781 116.32 5.03125C116.086 4.54688 115.73 4.18359 115.254 3.94141C114.785 3.69141 114.16 3.56641 113.379 3.56641C112.793 3.56641 112.281 3.67578 111.844 3.89453C111.406 4.11328 111.039 4.44531 110.742 4.89062C110.445 5.33594 110.223 5.89844 110.074 6.57812C109.934 7.25 109.863 8.03906 109.863 8.94531V10.1523C109.863 11.0352 109.93 11.8125 110.062 12.4844C110.195 13.1484 110.398 13.7109 110.672 14.1719C110.953 14.625 111.312 14.9688 111.75 15.2031C112.195 15.4297 112.73 15.543 113.355 15.543C114.09 15.543 114.695 15.4258 115.172 15.1914C115.648 14.957 116.012 14.6094 116.262 14.1484C116.52 13.6875 116.672 13.1133 116.719 12.4258Z" fill="#FCA700"/>
<path d="M126.27 1.02344V18.0859H122.766V1.02344H126.27Z" fill="#FCA700"/>
<path d="M136.84 1.02344V18.0859H133.336V1.02344H136.84ZM142.09 1.02344V3.77734H128.168V1.02344H142.09Z" fill="#FCA700"/>
<path d="M146.625 1.02344L150.188 8.80469L153.75 1.02344H157.582L151.969 11.875V18.0859H148.406V11.875L142.781 1.02344H146.625Z" fill="#FCA700"/>
<path d="M61.9688 33.9824H62.8096C62.7412 34.6523 62.5566 35.2311 62.2559 35.7188C61.9551 36.2018 61.5449 36.5732 61.0254 36.833C60.5059 37.0928 59.8792 37.2227 59.1455 37.2227C58.5804 37.2227 58.0677 37.1156 57.6074 36.9014C57.1517 36.6872 56.7598 36.3841 56.4316 35.9922C56.1035 35.5957 55.8506 35.1217 55.6729 34.5703C55.4951 34.0189 55.4062 33.4059 55.4062 32.7314V31.4873C55.4062 30.8128 55.4951 30.2021 55.6729 29.6553C55.8506 29.1038 56.1058 28.6299 56.4385 28.2334C56.7712 27.8369 57.1699 27.5316 57.6348 27.3174C58.0996 27.1032 58.6237 26.9961 59.207 26.9961C59.9134 26.9961 60.5241 27.126 61.0391 27.3857C61.554 27.641 61.9596 28.0101 62.2559 28.4932C62.5566 28.9762 62.7412 29.5596 62.8096 30.2432H61.9688C61.9049 29.7054 61.7637 29.2497 61.5449 28.876C61.3262 28.5023 61.0231 28.2174 60.6357 28.0215C60.2529 27.821 59.7767 27.7207 59.207 27.7207C58.7422 27.7207 58.3275 27.8096 57.9629 27.9873C57.5983 28.165 57.2884 28.4202 57.0332 28.7529C56.778 29.0811 56.582 29.4753 56.4453 29.9355C56.3132 30.3958 56.2471 30.9085 56.2471 31.4736V32.7314C56.2471 33.2783 56.3109 33.7819 56.4385 34.2422C56.5661 34.7025 56.7529 35.1012 56.999 35.4385C57.2497 35.7757 57.555 36.0378 57.915 36.2246C58.2751 36.4115 58.6852 36.5049 59.1455 36.5049C59.7334 36.5049 60.2233 36.4115 60.6152 36.2246C61.0117 36.0332 61.3193 35.7507 61.5381 35.377C61.7568 35.0033 61.9004 34.5384 61.9688 33.9824Z" fill="white"/>
<path d="M68.1279 27.7275L64.6826 37.0859H63.8076L67.5674 27.1328H68.1758L68.1279 27.7275ZM71.2588 37.0859L67.8066 27.7275L67.7588 27.1328H68.3672L72.1338 37.0859H71.2588ZM70.6436 33.5723V34.2969H65.3594V33.5723H70.6436Z" fill="white"/>
<path d="M79.2432 34.6387C79.2432 34.3652 79.1976 34.1214 79.1064 33.9072C79.0153 33.693 78.8649 33.5016 78.6553 33.333C78.4502 33.1598 78.1722 33.0003 77.8213 32.8545C77.4749 32.7041 77.042 32.556 76.5225 32.4102C76.0257 32.2689 75.5768 32.1139 75.1758 31.9453C74.7747 31.7767 74.4307 31.583 74.1436 31.3643C73.861 31.1455 73.6445 30.8903 73.4941 30.5986C73.3438 30.3024 73.2686 29.9583 73.2686 29.5664C73.2686 29.1836 73.3506 28.835 73.5146 28.5205C73.6787 28.2061 73.9089 27.9349 74.2051 27.707C74.5059 27.4792 74.859 27.3037 75.2646 27.1807C75.6748 27.0576 76.1237 26.9961 76.6113 26.9961C77.3086 26.9961 77.9102 27.1283 78.416 27.3926C78.9264 27.6569 79.3206 28.0146 79.5986 28.4658C79.8812 28.9124 80.0225 29.4137 80.0225 29.9697H79.1816C79.1816 29.5368 79.0791 29.1517 78.874 28.8145C78.6735 28.4727 78.3818 28.2061 77.999 28.0146C77.6208 27.8187 77.1582 27.7207 76.6113 27.7207C76.0645 27.7207 75.6042 27.805 75.2305 27.9736C74.8613 28.1377 74.5811 28.3587 74.3896 28.6367C74.2028 28.9102 74.1094 29.2155 74.1094 29.5527C74.1094 29.7897 74.1549 30.0085 74.2461 30.209C74.3372 30.4049 74.4854 30.5895 74.6904 30.7627C74.9001 30.9313 75.1758 31.0908 75.5176 31.2412C75.8594 31.387 76.2809 31.526 76.7822 31.6582C77.3109 31.804 77.7803 31.9658 78.1904 32.1436C78.6006 32.3213 78.9469 32.5264 79.2295 32.7588C79.512 32.9867 79.7262 33.2533 79.8721 33.5586C80.0179 33.8639 80.0908 34.2194 80.0908 34.625C80.0908 35.0306 80.0042 35.3952 79.8311 35.7188C79.6624 36.0378 79.4232 36.3089 79.1133 36.5322C78.8079 36.7555 78.4456 36.9264 78.0264 37.0449C77.6117 37.1634 77.1582 37.2227 76.666 37.2227C76.224 37.2227 75.7842 37.1657 75.3467 37.0518C74.9092 36.9378 74.5081 36.7624 74.1436 36.5254C73.7835 36.2839 73.4941 35.974 73.2754 35.5957C73.0612 35.2174 72.9541 34.7663 72.9541 34.2422H73.7881C73.7881 34.6615 73.8724 35.0146 74.041 35.3018C74.2096 35.5889 74.4329 35.8213 74.7109 35.999C74.9935 36.1768 75.3034 36.3066 75.6406 36.3887C75.9824 36.4661 76.3242 36.5049 76.666 36.5049C77.1901 36.5049 77.6436 36.4274 78.0264 36.2725C78.4137 36.1175 78.7122 35.901 78.9219 35.623C79.1361 35.3405 79.2432 35.0124 79.2432 34.6387Z" fill="white"/>
<path d="M82.9346 27.1328V37.0859H82.0938V27.1328H82.9346Z" fill="white"/>
<path d="M93.0518 27.1328V37.0859H92.2041L86.4824 28.582V37.0859H85.6416V27.1328H86.4824L92.2178 35.6367V27.1328H93.0518Z" fill="white"/>
<path d="M102.943 31.5762V32.6426C102.943 33.3398 102.852 33.971 102.67 34.5361C102.492 35.0967 102.232 35.5775 101.891 35.9785C101.553 36.3796 101.148 36.6872 100.674 36.9014C100.2 37.1156 99.6667 37.2227 99.0742 37.2227C98.4954 37.2227 97.9668 37.1156 97.4883 36.9014C97.0143 36.6872 96.6064 36.3796 96.2646 35.9785C95.9229 35.5775 95.6585 35.0967 95.4717 34.5361C95.2848 33.971 95.1914 33.3398 95.1914 32.6426V31.5762C95.1914 30.8789 95.2826 30.25 95.4648 29.6895C95.6517 29.1243 95.916 28.6413 96.2578 28.2402C96.5996 27.8392 97.0075 27.5316 97.4814 27.3174C97.9554 27.1032 98.4818 26.9961 99.0605 26.9961C99.653 26.9961 100.186 27.1032 100.66 27.3174C101.134 27.5316 101.542 27.8392 101.884 28.2402C102.226 28.6413 102.488 29.1243 102.67 29.6895C102.852 30.25 102.943 30.8789 102.943 31.5762ZM102.109 32.6426V31.5625C102.109 30.9746 102.041 30.446 101.904 29.9766C101.772 29.5072 101.574 29.1061 101.31 28.7734C101.05 28.4408 100.731 28.1855 100.353 28.0078C99.9743 27.8301 99.5436 27.7412 99.0605 27.7412C98.5911 27.7412 98.1696 27.8301 97.7959 28.0078C97.4222 28.1855 97.1032 28.4408 96.8389 28.7734C96.5791 29.1061 96.3786 29.5072 96.2373 29.9766C96.1006 30.446 96.0322 30.9746 96.0322 31.5625V32.6426C96.0322 33.235 96.1006 33.7682 96.2373 34.2422C96.3786 34.7116 96.5814 35.1149 96.8457 35.4521C97.11 35.7848 97.429 36.04 97.8027 36.2178C98.181 36.3955 98.6048 36.4844 99.0742 36.4844C99.5618 36.4844 99.9925 36.3955 100.366 36.2178C100.74 36.04 101.057 35.7848 101.316 35.4521C101.576 35.1149 101.772 34.7116 101.904 34.2422C102.041 33.7682 102.109 33.235 102.109 32.6426Z" fill="white"/>
</svg>
