<svg width="186" height="48" viewBox="0 0 186 48" fill="none" xmlns="http://www.w3.org/2000/svg">
<path d="M27.5648 0.0277584C26.1589 -0.0028468 24.737 -0.0338001 23.3657 0.0860228C21.359 0.24011 19.3778 0.443825 17.4202 0.932584C17.1383 1.0059 16.858 1.08448 16.5791 1.16831C16.3002 1.25225 16.0231 1.34144 15.7476 1.43589C15.4721 1.53024 15.1985 1.62986 14.9267 1.73473C14.655 1.83949 14.3854 1.94941 14.1179 2.06449C13.8503 2.17957 13.5851 2.29966 13.3222 2.42475C13.0592 2.54984 12.7987 2.67988 12.5407 2.81487C12.2826 2.94986 12.0273 3.0897 11.7745 3.23439C11.5218 3.37909 11.2719 3.52853 11.0248 3.68272C10.7778 3.83691 10.5338 3.99574 10.2928 4.15922C10.0517 4.3227 9.81383 4.49068 9.57918 4.66315C9.34453 4.83561 9.11324 5.01247 8.88533 5.19372C8.65741 5.37497 8.43303 5.56046 8.21216 5.75018C7.99119 5.94001 7.77394 6.13392 7.56043 6.33191C7.34691 6.52991 7.13722 6.73189 6.93136 6.93785C6.72551 7.14381 6.52358 7.35365 6.32558 7.56737C6.12769 7.78098 5.93393 7.99828 5.74431 8.21925C1.30152 13.391 -0.432197 19.4255 0.0899535 26.1899C0.556504 32.2354 3.16741 38.1492 7.8277 42.1347C13.5364 47.0167 20.5953 48.4383 27.9209 47.8443C31.5798 47.5478 37.8314 45.8375 40.2695 42.9826C40.8187 42.3394 41.1007 41.6457 41.2312 40.8163C41.438 39.5008 41.3983 37.3738 41.3647 35.57C41.3528 34.9336 41.3417 34.3374 41.3424 33.8313C41.3762 29.2344 41.369 24.6375 41.3208 20.0408L27.1321 20.0375C26.5771 21.3168 26.0344 22.6015 25.4918 23.8861C24.6759 25.8176 23.86 27.7491 23.0021 29.6623C24.2032 29.6867 25.4046 29.6817 26.6059 29.6766C27.7684 29.6718 28.9308 29.6669 30.0931 29.6887C30.0903 30.4683 30.0848 31.2483 30.0793 32.0284C30.0673 33.7228 30.0553 35.4176 30.0706 37.1111C29.9626 37.153 29.8541 37.1937 29.7451 37.233C29.6361 37.2724 29.5266 37.3104 29.4168 37.3469C29.3068 37.3835 29.1964 37.4187 29.0856 37.4526C28.9747 37.4864 28.8635 37.5189 28.7518 37.55C28.6402 37.5811 28.5282 37.6107 28.4158 37.639C28.3035 37.6673 28.1908 37.6942 28.0778 37.7197C27.9647 37.7452 27.8514 37.7692 27.7377 37.7919C27.6241 37.8145 27.5102 37.8358 27.396 37.8558C27.2818 37.8756 27.1675 37.8939 27.0529 37.9109C26.9382 37.9279 26.8234 37.9435 26.7084 37.9576C26.5934 37.9717 26.4782 37.9844 26.3629 37.9958C26.2476 38.007 26.1322 38.0168 26.0166 38.0252C25.901 38.0336 25.7853 38.0406 25.6695 38.0461C25.5538 38.0517 25.438 38.0557 25.3221 38.0582C25.2063 38.0609 25.0905 38.0621 24.9746 38.0619C24.8587 38.0616 24.7428 38.0599 24.627 38.0569C24.5111 38.0537 24.3953 38.0491 24.2796 38.0431C24.164 38.0371 24.0483 38.0296 23.9327 38.0207C23.8172 38.0118 23.7018 38.0015 23.5866 37.9898C23.4713 37.978 23.3561 37.9649 23.2412 37.9503C23.1263 37.9357 23.0116 37.9196 22.897 37.902C22.7824 37.8846 22.6681 37.8657 22.5541 37.8453C22.44 37.825 22.3262 37.8033 22.2126 37.7801C22.0991 37.757 21.9858 37.7325 21.8729 37.7064C21.76 37.6805 21.6474 37.6531 21.5352 37.6243C21.4229 37.5955 21.3109 37.5653 21.1994 37.5338C21.0879 37.5022 20.9769 37.4693 20.8663 37.435C20.7556 37.4007 20.6454 37.365 20.5356 37.3279C20.4257 37.2909 20.3164 37.2525 20.2075 37.2128C20.0988 37.1729 19.9905 37.1318 19.8826 37.0893C19.7748 37.0468 19.6675 37.003 19.5608 36.9579C19.4541 36.9128 19.348 36.8663 19.2424 36.8185C16.225 35.4844 13.9547 32.7087 12.7992 29.6648C11.3708 25.9016 11.3094 21.0376 12.9772 17.3383C14.3285 14.3411 16.6364 12.1958 19.7102 11.0406C20.2756 10.8272 20.852 10.6497 21.4396 10.508C22.0272 10.3664 22.6212 10.2617 23.2217 10.194C24.9685 9.98849 26.7696 10.004 28.5491 10.0192C29.102 10.024 29.6528 10.0287 30.1993 10.0268L41.2997 10.0145L41.3081 0.0469642L29.4082 0.0550835C28.8006 0.0546619 28.1842 0.0412439 27.5648 0.0277584Z" fill="#8FC83D"/>
<path d="M55.466 0.0771611C51.4411 0.115539 47.4231 0.15385 43.4998 0.0950994L43.4921 10.0423C44.9456 10.0444 46.4446 10.0305 47.9605 10.0164C51.2836 9.98559 54.6877 9.95402 57.8711 10.0882L57.8598 24.1629C57.8592 24.822 57.8755 25.5132 57.8922 26.2193C57.9424 28.3403 57.9957 30.5962 57.6022 32.5246C57.2908 34.05 56.6518 35.4697 55.5358 36.5751C54.3362 37.7637 52.7185 38.301 51.0458 38.2739C49.2099 38.2441 47.5537 37.5484 46.276 36.2267C45.1373 35.0488 44.1108 33.6107 43.4998 32.112C43.4998 32.7975 43.4988 33.4838 43.4978 34.1661C43.4958 35.5188 43.4939 36.8557 43.4998 38.1388C43.5167 41.8148 42.9912 43.6215 41 45C43.5 46.5 45.7407 46.8785 47.9683 47.4458C52.6115 48.516 57.852 48.1125 61.9549 45.563C62.0614 45.4965 62.167 45.4286 62.2718 45.3593C62.3766 45.2901 62.4805 45.2196 62.5836 45.1478C62.6867 45.0761 62.7888 45.0032 62.8901 44.9289C62.9914 44.8546 63.0918 44.7791 63.1913 44.7024C63.2907 44.6257 63.3892 44.5478 63.4867 44.4687C63.5842 44.3896 63.6808 44.3094 63.7764 44.2279C63.8719 44.1464 63.9666 44.0637 64.0602 43.9799C64.1537 43.8962 64.2462 43.8113 64.3377 43.7252C64.4291 43.6391 64.5195 43.552 64.6088 43.4637C64.6982 43.3754 64.7865 43.2861 64.8737 43.1957C64.9608 43.1052 65.0468 43.0137 65.1318 42.9212C65.2166 42.8287 65.3004 42.7352 65.3831 42.6406C65.4657 42.5459 65.5471 42.4504 65.6274 42.3539C65.7078 42.2573 65.7869 42.1597 65.8648 42.0612C65.9426 41.9626 66.0193 41.8632 66.0949 41.7628C66.1703 41.6624 66.2445 41.5611 66.3174 41.4589C66.3904 41.3568 66.4622 41.2537 66.5326 41.1497C66.6032 41.0457 66.6724 40.941 66.7403 40.8354C66.8082 40.7297 66.8748 40.6232 66.9401 40.516C67.0054 40.4087 67.0694 40.3006 67.132 40.1918C67.1947 40.0829 67.256 39.9733 67.3159 39.8631C67.376 39.7527 67.4346 39.6416 67.4919 39.5298C67.5491 39.418 67.605 39.3056 67.6595 39.1925C67.714 39.0793 67.7671 38.9655 67.8188 38.8511C67.8706 38.7366 67.9209 38.6215 67.9698 38.5058C68.0187 38.3901 68.0662 38.2739 68.1123 38.1571C68.1583 38.0403 68.2029 37.9229 68.2461 37.8049C68.2893 37.687 68.3311 37.5685 68.3714 37.4496C68.4116 37.3306 68.4504 37.2112 68.4878 37.0913C68.5252 36.9714 68.5611 36.8511 68.5957 36.7303C68.6301 36.6095 68.663 36.4884 68.6944 36.3668C68.7259 36.2452 68.7559 36.1232 68.7844 36.0009C69.4595 33.0981 69.4207 29.7888 69.3841 26.6624C69.3744 25.8294 69.3648 25.0093 69.3688 24.2134C69.3947 19.3645 69.3925 14.5157 69.3623 9.66687C69.359 8.92019 69.3531 8.17249 69.3472 7.42428C69.328 4.98087 69.3088 2.53201 69.3788 0.0950912C64.8234 -0.0120615 60.14 0.0325944 55.466 0.0771611Z" fill="#8FC83D"/>
<path d="M85.9907 43.8999C84.2728 43.8999 82.7642 43.5661 81.4648 42.8985C80.1654 42.2086 79.1633 41.2517 78.4585 40.0278C77.7537 38.8039 77.4014 37.3908 77.4014 35.7886V28.0779C77.4014 26.4757 77.7537 25.0626 78.4585 23.8387C79.1633 22.6147 80.1654 21.669 81.4648 21.0014C82.7642 20.3338 84.2728 20 85.9907 20C87.6865 20 89.1731 20.3227 90.4505 20.968C91.7499 21.5911 92.752 22.4923 93.4567 23.6718C94.1835 24.8289 94.5469 26.1752 94.5469 27.7107C94.5469 27.911 94.4148 28.0334 94.1505 28.0779L90.2853 28.3115H90.2192C89.999 28.3115 89.8889 28.1892 89.8889 27.9444C89.8889 26.765 89.5255 25.8192 88.7987 25.1071C88.0939 24.395 87.1579 24.0389 85.9907 24.0389C84.8014 24.0389 83.8433 24.395 83.1165 25.1071C82.4118 25.8192 82.0594 26.765 82.0594 27.9444V35.9889C82.0594 37.146 82.4118 38.0807 83.1165 38.7928C83.8433 39.5049 84.8014 39.8609 85.9907 39.8609C87.1579 39.8609 88.0939 39.5049 88.7987 38.7928C89.5255 38.0807 89.8889 37.146 89.8889 35.9889C89.8889 35.7441 90.021 35.6217 90.2853 35.6217L94.1505 35.7886C94.2606 35.7886 94.3487 35.822 94.4148 35.8887C94.5029 35.9555 94.5469 36.0334 94.5469 36.1224C94.5469 37.6579 94.1835 39.0153 93.4567 40.1947C92.752 41.3741 91.7499 42.2865 90.4505 42.9319C89.1731 43.5772 87.6865 43.8999 85.9907 43.8999Z" fill="white"/>
<path d="M112.147 43.6328C111.927 43.6328 111.784 43.5216 111.718 43.299L110.727 40.0278C110.683 39.9388 110.628 39.8943 110.562 39.8943H102.435C102.369 39.8943 102.314 39.9388 102.27 40.0278L101.312 43.299C101.246 43.5216 101.103 43.6328 100.882 43.6328H96.6868C96.5546 43.6328 96.4555 43.5994 96.3894 43.5327C96.3234 43.4437 96.3123 43.3213 96.3564 43.1655L103.492 20.6008C103.558 20.3783 103.701 20.267 103.922 20.267H109.108C109.328 20.267 109.472 20.3783 109.538 20.6008L116.673 43.1655C116.695 43.21 116.706 43.2656 116.706 43.3324C116.706 43.5327 116.585 43.6328 116.343 43.6328H112.147ZM103.459 36.0556C103.437 36.1892 103.481 36.2559 103.591 36.2559H109.406C109.538 36.2559 109.582 36.1892 109.538 36.0556L106.564 26.1419C106.542 26.0529 106.509 26.0195 106.465 26.0417C106.421 26.0417 106.388 26.0751 106.366 26.1419L103.459 36.0556Z" fill="white"/>
<path d="M126.087 43.8999C124.325 43.8999 122.783 43.6217 121.462 43.0654C120.141 42.4868 119.116 41.6746 118.39 40.6287C117.685 39.5605 117.333 38.3255 117.333 36.9235V36.1892C117.333 36.0779 117.366 35.9889 117.432 35.9221C117.52 35.8331 117.619 35.7886 117.729 35.7886H121.495C121.605 35.7886 121.693 35.8331 121.759 35.9221C121.847 35.9889 121.891 36.0779 121.891 36.1892V36.6898C121.891 37.58 122.299 38.3366 123.114 38.9597C123.929 39.5605 125.03 39.8609 126.417 39.8609C127.585 39.8609 128.455 39.6161 129.027 39.1266C129.6 38.6147 129.886 37.9917 129.886 37.2573C129.886 36.7232 129.71 36.2782 129.358 35.9221C129.005 35.5438 128.521 35.2211 127.904 34.9541C127.309 34.6648 126.351 34.2754 125.03 33.7858C123.554 33.274 122.299 32.751 121.264 32.217C120.251 31.6829 119.392 30.9597 118.687 30.0473C118.004 29.1127 117.663 27.9666 117.663 26.6092C117.663 25.274 118.004 24.1057 118.687 23.1043C119.37 22.1029 120.317 21.3352 121.528 20.8011C122.739 20.267 124.138 20 125.724 20C127.397 20 128.884 20.3004 130.183 20.9013C131.505 21.5021 132.529 22.3477 133.256 23.4381C134.005 24.5063 134.379 25.7524 134.379 27.1766V27.6773C134.379 27.7886 134.335 27.8887 134.247 27.9777C134.181 28.0445 134.093 28.0779 133.983 28.0779H130.183C130.073 28.0779 129.974 28.0445 129.886 27.9777C129.82 27.8887 129.787 27.7886 129.787 27.6773V27.4103C129.787 26.4757 129.402 25.6857 128.631 25.0403C127.882 24.3727 126.847 24.0389 125.525 24.0389C124.49 24.0389 123.675 24.2615 123.081 24.7065C122.508 25.1516 122.222 25.7636 122.222 26.5424C122.222 27.0987 122.387 27.5661 122.717 27.9444C123.07 28.3227 123.576 28.6676 124.237 28.9791C124.92 29.2684 125.966 29.669 127.375 30.1808C128.939 30.7594 130.161 31.2712 131.042 31.7163C131.945 32.1613 132.749 32.8289 133.454 33.7191C134.181 34.5869 134.544 35.7218 134.544 37.1238C134.544 39.2156 133.784 40.8734 132.265 42.0974C130.745 43.299 128.686 43.8999 126.087 43.8999Z" fill="white"/>
<path d="M138.202 43.6328C138.092 43.6328 137.993 43.5994 137.905 43.5327C137.839 43.4437 137.806 43.3435 137.806 43.2323V20.6676C137.806 20.5563 137.839 20.4673 137.905 20.4006C137.993 20.3115 138.092 20.267 138.202 20.267H142.067C142.177 20.267 142.265 20.3115 142.332 20.4006C142.42 20.4673 142.464 20.5563 142.464 20.6676V43.2323C142.464 43.3435 142.42 43.4437 142.332 43.5327C142.265 43.5994 142.177 43.6328 142.067 43.6328H138.202Z" fill="white"/>
<path d="M159.764 20.6676C159.764 20.5563 159.797 20.4673 159.863 20.4006C159.952 20.3115 160.051 20.267 160.161 20.267H164.026C164.136 20.267 164.224 20.3115 164.29 20.4006C164.378 20.4673 164.422 20.5563 164.422 20.6676V43.2323C164.422 43.3435 164.378 43.4437 164.29 43.5327C164.224 43.5994 164.136 43.6328 164.026 43.6328H160.293C160.073 43.6328 159.919 43.5438 159.83 43.3658L151.274 29.0793C151.23 29.0125 151.186 28.9903 151.142 29.0125C151.098 29.0125 151.076 29.057 151.076 29.146L151.142 43.2323C151.142 43.3435 151.098 43.4437 151.01 43.5327C150.944 43.5994 150.856 43.6328 150.746 43.6328H146.88C146.77 43.6328 146.671 43.5994 146.583 43.5327C146.517 43.4437 146.484 43.3435 146.484 43.2323V20.6676C146.484 20.5563 146.517 20.4673 146.583 20.4006C146.671 20.3115 146.77 20.267 146.88 20.267H150.613C150.834 20.267 150.988 20.356 151.076 20.5341L159.599 34.7538C159.643 34.8206 159.687 34.854 159.731 34.854C159.775 34.8317 159.797 34.7761 159.797 34.6871L159.764 20.6676Z" fill="white"/>
<path d="M176.68 44C174.962 44 173.442 43.644 172.121 42.9319C170.822 42.2197 169.809 41.2295 169.082 39.9611C168.355 38.6704 167.992 37.1905 167.992 35.5216V28.3783C167.992 26.7316 168.355 25.274 169.082 24.0056C169.809 22.7371 170.822 21.758 172.121 21.0681C173.442 20.356 174.962 20 176.68 20C178.42 20 179.939 20.356 181.239 21.0681C182.56 21.758 183.584 22.7371 184.311 24.0056C185.038 25.274 185.401 26.7316 185.401 28.3783V35.5216C185.401 37.1905 185.038 38.6704 184.311 39.9611C183.584 41.2517 182.56 42.2531 181.239 42.9652C179.939 43.6551 178.42 44 176.68 44ZM176.68 39.9611C177.891 39.9611 178.871 39.5716 179.62 38.7928C180.369 38.0139 180.743 36.9791 180.743 35.6885V28.3449C180.743 27.0542 180.369 26.0195 179.62 25.2406C178.893 24.4395 177.913 24.0389 176.68 24.0389C175.469 24.0389 174.489 24.4395 173.74 25.2406C173.013 26.0195 172.65 27.0542 172.65 28.3449V35.6885C172.65 36.9791 173.013 38.0139 173.74 38.7928C174.489 39.5716 175.469 39.9611 176.68 39.9611Z" fill="white"/>
</svg>
