<svg width="200" height="30" viewBox="0 0 200 30" fill="none" xmlns="http://www.w3.org/2000/svg">
<path d="M0 29.3066V0.751953H5.3125V24.6582H12.6758V29.3066H0Z" fill="#28323D"/>
<path d="M35.7422 14.9902C35.7422 19.7168 34.8568 23.3496 33.0859 25.8887C31.3151 28.4277 28.7826 29.6973 25.4883 29.6973C22.181 29.6973 19.6419 28.4342 17.8711 25.9082C16.1003 23.3691 15.2148 19.7168 15.2148 14.9512C15.2148 10.2246 16.1003 6.60482 17.8711 4.0918C19.6419 1.56576 22.194 0.302734 25.5273 0.302734C28.8216 0.302734 31.3477 1.57227 33.1055 4.11133C34.8633 6.63737 35.7422 10.2637 35.7422 14.9902ZM20.6445 14.9902C20.6445 18.2454 21.0547 20.7259 21.875 22.4316C22.6953 24.1374 23.8997 24.9902 25.4883 24.9902C28.6914 24.9902 30.293 21.6569 30.293 14.9902C30.293 8.32357 28.7044 4.99023 25.5273 4.99023C23.9128 4.99023 22.6953 5.8431 21.875 7.54883C21.0547 9.24154 20.6445 11.722 20.6445 14.9902Z" fill="#28323D"/>
<path d="M59.5703 14.9902C59.5703 19.7168 58.6849 23.3496 56.9141 25.8887C55.1432 28.4277 52.6107 29.6973 49.3164 29.6973C46.0091 29.6973 43.4701 28.4342 41.6992 25.9082C39.9284 23.3691 39.043 19.7168 39.043 14.9512C39.043 10.2246 39.9284 6.60482 41.6992 4.0918C43.4701 1.56576 46.0221 0.302734 49.3555 0.302734C52.6497 0.302734 55.1758 1.57227 56.9336 4.11133C58.6914 6.63737 59.5703 10.2637 59.5703 14.9902ZM44.4727 14.9902C44.4727 18.2454 44.8828 20.7259 45.7031 22.4316C46.5234 24.1374 47.7279 24.9902 49.3164 24.9902C52.5195 24.9902 54.1211 21.6569 54.1211 14.9902C54.1211 8.32357 52.5326 4.99023 49.3555 4.99023C47.7409 4.99023 46.5234 5.8431 45.7031 7.54883C44.8828 9.24154 44.4727 11.722 44.4727 14.9902Z" fill="#28323D"/>
<path d="M71.9727 29.3066H66.6797V5.41992H61.2109V0.751953H77.4414V5.41992H71.9727V29.3066Z" fill="#28323D"/>
<path d="M95.4766 4.99023C93.9531 4.99023 92.7487 5.88216 91.8633 7.66602C90.9909 9.44987 90.5547 11.9303 90.5547 15.1074C90.5547 21.722 92.2799 25.0293 95.7305 25.0293C97.2409 25.0293 98.8229 24.5475 100.477 23.584V28.3105C99.0833 29.235 97.2995 29.6973 95.125 29.6973C91.9089 29.6973 89.4349 28.4212 87.7031 25.8691C85.9844 23.304 85.125 19.7038 85.125 15.0684C85.125 10.4329 86.0104 6.81966 87.7812 4.22852C89.5651 1.63737 92.0391 0.341797 95.2031 0.341797C96.2448 0.341797 97.2409 0.485026 98.1914 0.771484C99.1549 1.05794 100.184 1.55924 101.277 2.27539L99.5195 6.5918C98.9336 6.18815 98.3086 5.82357 97.6445 5.49805C96.9805 5.15951 96.2578 4.99023 95.4766 4.99023Z" fill="url(#paint0_linear_2653_134160)"/>
<path d="M118.035 29.3066L116.395 22.0996H108.953L107.312 29.3066H102L109.07 0.634766H116.277L123.367 29.3066H118.035ZM115.398 17.3926L113.875 10.752C113.784 10.3483 113.576 9.33919 113.25 7.72461C112.938 6.09701 112.749 5.00977 112.684 4.46289C112.514 5.58268 112.299 6.81966 112.039 8.17383C111.779 9.51497 111.102 12.5879 110.008 17.3926H115.398Z" fill="url(#paint1_linear_2653_134160)"/>
<path d="M138.895 21.4355C138.895 24.1048 138.217 26.1491 136.863 27.5684C135.522 28.9876 133.582 29.6973 131.043 29.6973C128.556 29.6973 126.44 29.209 124.695 28.2324V22.9785C126.831 24.3717 128.79 25.0684 130.574 25.0684C131.59 25.0684 132.352 24.7884 132.859 24.2285C133.38 23.6686 133.641 22.9069 133.641 21.9434C133.641 20.9928 133.335 20.127 132.723 19.3457C132.111 18.5514 131.102 17.6725 129.695 16.709C128.471 15.8626 127.54 15.0553 126.902 14.2871C126.277 13.5059 125.789 12.6335 125.438 11.6699C125.099 10.7064 124.93 9.58659 124.93 8.31055C124.93 5.86263 125.607 3.92253 126.961 2.49023C128.328 1.05794 130.158 0.341797 132.449 0.341797C134.637 0.341797 136.74 0.953776 138.758 2.17773L137 6.43555C136.375 6.07096 135.717 5.74544 135.027 5.45898C134.35 5.17253 133.621 5.0293 132.84 5.0293C131.98 5.0293 131.316 5.31576 130.848 5.88867C130.392 6.44857 130.164 7.2168 130.164 8.19336C130.164 9.1569 130.438 9.99675 130.984 10.7129C131.544 11.429 132.514 12.2428 133.895 13.1543C135.757 14.4043 137.052 15.6803 137.781 16.9824C138.523 18.2845 138.895 19.7689 138.895 21.4355Z" fill="url(#paint2_linear_2653_134160)"/>
<path d="M143.367 29.3066V0.751953H148.367V29.3066H143.367Z" fill="url(#paint3_linear_2653_134160)"/>
<path d="M174.402 29.3066H167.918L159.09 8.62305H158.836C159.161 10.1986 159.324 11.8913 159.324 13.7012V29.3066H154.402V0.751953H160.926L169.676 21.2207H169.891C169.643 19.8535 169.52 18.2259 169.52 16.3379V0.751953H174.402V29.3066Z" fill="url(#paint4_linear_2653_134160)"/>
<path d="M199.09 14.9902C199.09 19.7168 198.204 23.3496 196.434 25.8887C194.663 28.4277 192.13 29.6973 188.836 29.6973C185.529 29.6973 182.99 28.4342 181.219 25.9082C179.448 23.3691 178.562 19.7168 178.562 14.9512C178.562 10.2246 179.448 6.60482 181.219 4.0918C182.99 1.56576 185.542 0.302734 188.875 0.302734C192.169 0.302734 194.695 1.57227 196.453 4.11133C198.211 6.63737 199.09 10.2637 199.09 14.9902ZM183.992 14.9902C183.992 18.2454 184.402 20.7259 185.223 22.4316C186.043 24.1374 187.247 24.9902 188.836 24.9902C192.039 24.9902 193.641 21.6569 193.641 14.9902C193.641 8.32357 192.052 4.99023 188.875 4.99023C187.26 4.99023 186.043 5.8431 185.223 7.54883C184.402 9.24154 183.992 11.722 183.992 14.9902Z" fill="url(#paint5_linear_2653_134160)"/>
<defs>
<linearGradient id="paint0_linear_2653_134160" x1="142.107" y1="0.302734" x2="142.107" y2="29.6973" gradientUnits="userSpaceOnUse">
<stop stop-color="#FADE7B"/>
<stop offset="0.649038" stop-color="#F4BF51"/>
</linearGradient>
<linearGradient id="paint1_linear_2653_134160" x1="142.107" y1="0.302734" x2="142.107" y2="29.6973" gradientUnits="userSpaceOnUse">
<stop stop-color="#FADE7B"/>
<stop offset="0.649038" stop-color="#F4BF51"/>
</linearGradient>
<linearGradient id="paint2_linear_2653_134160" x1="142.107" y1="0.302734" x2="142.107" y2="29.6973" gradientUnits="userSpaceOnUse">
<stop stop-color="#FADE7B"/>
<stop offset="0.649038" stop-color="#F4BF51"/>
</linearGradient>
<linearGradient id="paint3_linear_2653_134160" x1="142.107" y1="0.302734" x2="142.107" y2="29.6973" gradientUnits="userSpaceOnUse">
<stop stop-color="#FADE7B"/>
<stop offset="0.649038" stop-color="#F4BF51"/>
</linearGradient>
<linearGradient id="paint4_linear_2653_134160" x1="142.107" y1="0.302734" x2="142.107" y2="29.6973" gradientUnits="userSpaceOnUse">
<stop stop-color="#FADE7B"/>
<stop offset="0.649038" stop-color="#F4BF51"/>
</linearGradient>
<linearGradient id="paint5_linear_2653_134160" x1="142.107" y1="0.302734" x2="142.107" y2="29.6973" gradientUnits="userSpaceOnUse">
<stop stop-color="#FADE7B"/>
<stop offset="0.649038" stop-color="#F4BF51"/>
</linearGradient>
</defs>
</svg>
