<svg width="203" height="32" viewBox="0 0 203 32" fill="none" xmlns="http://www.w3.org/2000/svg">
<path d="M0 26.1404V1.29284H17.471V6.72825H6.74574V10.9989H16.4033V16.4344H6.74574V26.1404H0Z" fill="white"/>
<path d="M47.1443 26.1404V1.29284H57.8696C59.7137 1.29284 61.3274 1.62851 62.7105 2.29985C64.0936 2.97118 65.1694 3.93775 65.9378 5.19954C66.7062 6.46134 67.0904 7.97387 67.0904 9.73714C67.0904 11.5166 66.694 13.017 65.9014 14.2383C65.1168 15.4597 64.0127 16.3818 62.5892 17.0046C61.1737 17.6274 59.5196 17.9388 57.6269 17.9388H51.2209V12.6975H56.2681C57.0607 12.6975 57.7361 12.6004 58.2942 12.4063C58.8604 12.2041 59.2931 11.8846 59.5924 11.4478C59.8998 11.0111 60.0534 10.4408 60.0534 9.73714C60.0534 9.02536 59.8998 8.44704 59.5924 8.00218C59.2931 7.54923 58.8604 7.2176 58.2942 7.0073C57.7361 6.78892 57.0607 6.67972 56.2681 6.67972H53.8901V26.1404H47.1443ZM61.7035 14.7358L67.9154 26.1404H60.5873L54.521 14.7358H61.7035Z" fill="white"/>
<path d="M69.2864 6.72825V1.29284H90.8824V6.72825H83.4088V26.1404H76.7601V6.72825H69.2864Z" fill="white"/>
<path d="M108.126 1.29284H114.872V17.2108C114.872 19.1035 114.419 20.7414 113.513 22.1245C112.615 23.4996 111.361 24.5632 109.752 25.3154C108.142 26.0596 106.274 26.4316 104.146 26.4316C102.003 26.4316 100.126 26.0596 98.5169 25.3154C96.9073 24.5632 95.6536 23.4996 94.7558 22.1245C93.8661 20.7414 93.4212 19.1035 93.4212 17.2108V1.29284H100.167V16.6285C100.167 17.3969 100.337 18.0844 100.676 18.691C101.016 19.2896 101.485 19.7587 102.084 20.0984C102.691 20.4381 103.378 20.608 104.146 20.608C104.923 20.608 105.61 20.4381 106.209 20.0984C106.808 19.7587 107.277 19.2896 107.616 18.691C107.956 18.0844 108.126 17.3969 108.126 16.6285V1.29284Z" fill="white"/>
<path d="M139.577 1.29284V26.1404H133.947L124.969 13.0857H124.823V26.1404H118.078V1.29284H123.804L132.637 14.299H132.831V1.29284H139.577Z" fill="white"/>
<path d="M149.513 1.29284V26.1404H142.768V1.29284H149.513Z" fill="white"/>
<path d="M175.908 10.6107H169.065C169.017 10.0445 168.887 9.53089 168.677 9.06985C168.475 8.60881 168.192 8.21248 167.828 7.88085C167.472 7.54114 167.039 7.28231 166.529 7.10436C166.02 6.91833 165.441 6.82531 164.794 6.82531C163.662 6.82531 162.704 7.10032 161.919 7.65033C161.142 8.20034 160.552 8.98896 160.148 10.0162C159.751 11.0434 159.553 12.2769 159.553 13.7166C159.553 15.2373 159.755 16.5112 160.16 17.5384C160.572 18.5576 161.167 19.326 161.943 19.8436C162.72 20.3532 163.654 20.608 164.746 20.608C165.369 20.608 165.927 20.5311 166.42 20.3775C166.914 20.2157 167.342 19.9852 167.706 19.6859C168.07 19.3866 168.365 19.0267 168.592 18.6061C168.826 18.1774 168.984 17.6961 169.065 17.1623L175.908 17.2108C175.827 18.2623 175.532 19.334 175.022 20.426C174.513 21.5098 173.789 22.5128 172.85 23.4349C171.92 24.3489 170.768 25.0849 169.393 25.643C168.018 26.2011 166.42 26.4802 164.6 26.4802C162.319 26.4802 160.273 25.9908 158.461 25.0121C156.657 24.0334 155.23 22.5937 154.178 20.6929C153.135 18.7921 152.613 16.4667 152.613 13.7166C152.613 10.9504 153.147 8.62094 154.215 6.72825C155.282 4.82748 156.722 3.39178 158.534 2.42117C160.346 1.44247 162.368 0.953125 164.6 0.953125C166.169 0.953125 167.613 1.16747 168.932 1.59615C170.25 2.02484 171.407 2.65169 172.402 3.47671C173.396 4.29364 174.197 5.30065 174.804 6.49773C175.41 7.69482 175.778 9.0658 175.908 10.6107Z" fill="white"/>
<path d="M184.655 26.1404H177.376L185.578 1.29284H194.798L203 26.1404H195.72L190.285 8.13564H190.091L184.655 26.1404ZM183.297 16.3373H196.982V21.3845H183.297V16.3373Z" fill="white"/>
<path d="M44.8392 14.6259C44.725 17.5544 43.874 19.3476 42.2971 19.9542C41.8374 20.1261 41.3468 20.2011 40.8564 20.1747C40.4894 20.1572 40.1251 20.1028 39.7692 20.0122C39.6377 19.9808 39.5234 19.9003 39.4498 19.7873C37.7244 17.1345 35.7384 14.6588 33.5213 12.3968C33.3283 12.2003 33.0649 12.0882 32.7889 12.0851C32.5128 12.082 32.2469 12.1881 32.0495 12.3802C31.8521 12.5723 31.7394 12.8346 31.7363 13.1093C31.7331 13.3841 31.8398 13.6489 32.0327 13.8453C33.8917 15.7198 40.0491 22.383 41.6073 29.8019C41.6638 30.0708 41.6106 30.351 41.4596 30.5809C41.3085 30.8109 41.0719 30.9716 40.8018 31.0279C40.7202 31.045 40.6369 31.0522 40.5536 31.0495C40.3219 31.0402 40.1 30.9542 39.923 30.8051C39.7461 30.656 39.6242 30.4523 39.5767 30.2264C39.1242 28.0744 38.2261 25.9648 37.1545 24.03C37.1053 24.3498 37.0099 24.6609 36.8712 24.9535C36.1389 26.4727 34.277 27.1785 31.3352 27.0649C28.3933 26.9514 26.592 26.1043 25.9814 24.5333C25.3364 22.8781 26.0862 20.5431 28.2048 17.5934C28.2983 17.4675 28.3917 17.3415 28.4799 17.2153L28.0799 17.459C25.7759 18.8502 23.8634 19.519 22.3736 19.4615C21.8827 19.4501 21.3994 19.3375 20.9544 19.1307C19.4348 18.4046 18.7259 16.5512 18.84 13.6227C18.9542 10.6943 19.8052 8.90101 21.3821 8.29311C23.0462 7.651 25.3918 8.39729 28.3548 10.5062L28.7347 10.78L28.4898 10.3818C26.6046 7.27767 26.0388 4.89192 26.8134 3.29013C27.5403 1.77593 29.4022 1.07016 32.344 1.18367C35.2858 1.29718 37.0872 2.1443 37.6978 3.714C38.3428 5.37056 37.593 7.70555 35.4744 10.6552C35.3825 10.7838 35.2908 10.9099 35.1992 11.0334L35.5993 10.7896C38.7176 8.91276 41.1143 8.34946 42.7233 9.12046C44.2444 9.84401 44.9533 11.6974 44.8392 14.6259Z" fill="#49ED36"/>
</svg>
