<svg width="116" height="66" viewBox="0 0 116 66" fill="none" xmlns="http://www.w3.org/2000/svg">
<path d="M59.8791 28.6869H48.7591L46.9191 34.0069H41.0391L51.0791 6.04688H57.5991L67.6391 34.0069H61.7191L59.8791 28.6869ZM58.3591 24.2069L54.3191 12.5269L50.2791 24.2069H58.3591Z" fill="#FFE330"/>
<path d="M76.9919 29.5669H86.1919V34.0069H71.3919V6.08688H76.9919V29.5669Z" fill="#FFE330"/>
<path d="M106.871 28.6869H95.7513L93.9113 34.0069H88.0312L98.0713 6.04688H104.591L114.631 34.0069H108.711L106.871 28.6869ZM105.351 24.2069L101.311 12.5269L97.2713 24.2069H105.351Z" fill="#FFE330"/>
<path d="M52.23 58.1359C51.97 57.9159 51.79 57.6459 51.69 57.3259C51.59 57.0059 51.54 56.6559 51.54 56.2759C51.54 56.0359 51.55 55.7959 51.57 55.5559C51.61 55.2959 51.65 55.0359 51.69 54.7759C51.85 53.9759 52.12 53.0259 52.5 51.9259C52.9 50.8259 53.35 49.6759 53.85 48.4759C54.37 47.2759 54.89 46.1159 55.41 44.9959C55.95 43.8559 56.43 42.8559 56.85 41.9959C57.29 41.1159 57.62 40.4659 57.84 40.0459C57.92 39.8859 57.99 39.7359 58.05 39.5959C58.13 39.4559 58.21 39.3259 58.29 39.2059L57.21 39.3559C56.31 39.4759 55.38 39.6659 54.42 39.9259C53.48 40.1859 52.63 40.5259 51.87 40.9459C51.13 41.3459 50.59 41.8359 50.25 42.4159C50.23 42.4759 50.19 42.5059 50.13 42.5059C50.09 42.5059 50.06 42.4659 50.04 42.3859C50 42.3059 49.99 42.2159 50.01 42.1159C50.21 41.5959 50.46 41.0959 50.76 40.6159C51.06 40.1359 51.35 39.7559 51.63 39.4759C52.07 39.0159 52.67 38.6859 53.43 38.4859C54.19 38.2859 54.97 38.1559 55.77 38.0959C56.59 38.0359 57.29 38.0059 57.87 38.0059H63.78C65.16 38.0059 66.26 38.2159 67.08 38.6359C67.92 39.0559 68.52 39.6159 68.88 40.3159C69.24 40.9959 69.38 41.7259 69.3 42.5059C69.22 43.3459 68.98 44.0759 68.58 44.6959C68.18 45.3159 67.68 45.8459 67.08 46.2859C66.5 46.7059 65.89 47.0459 65.25 47.3059C64.63 47.5459 64.05 47.7259 63.51 47.8459C65.19 48.1659 66.39 48.7159 67.11 49.4959C67.83 50.2759 68.19 51.2059 68.19 52.2859C68.19 53.1459 67.98 53.9559 67.56 54.7159C67.16 55.4559 66.61 56.1259 65.91 56.7259C65.31 57.2459 64.52 57.7159 63.54 58.1359C62.56 58.5359 61.5 58.8559 60.36 59.0959C59.22 59.3359 58.09 59.4559 56.97 59.4559C56.03 59.4559 55.14 59.3459 54.3 59.1259C53.46 58.9259 52.77 58.5959 52.23 58.1359ZM55.89 58.1359C56.17 58.1759 56.45 58.2059 56.73 58.2259C57.01 58.2459 57.29 58.2559 57.57 58.2559C58.55 58.2559 59.51 58.1159 60.45 57.8359C61.39 57.5359 62.21 57.0659 62.91 56.4259C63.63 55.7859 64.14 54.9459 64.44 53.9059C64.62 53.3259 64.71 52.7359 64.71 52.1359C64.71 51.1959 64.47 50.3559 63.99 49.6159C63.53 48.8559 62.8 48.4159 61.8 48.2959C61.58 48.3559 61.25 48.4259 60.81 48.5059C60.37 48.5859 59.91 48.6559 59.43 48.7159C58.95 48.7759 58.54 48.8059 58.2 48.8059C57.88 48.8059 57.72 48.7359 57.72 48.5959C57.72 48.4759 57.81 48.3359 57.99 48.1759C58.17 47.9959 58.37 47.8459 58.59 47.7259C58.81 47.5859 58.99 47.5059 59.13 47.4859C59.49 47.4259 59.91 47.3959 60.39 47.3959C60.65 47.3959 60.91 47.4059 61.17 47.4259C61.45 47.4459 61.74 47.4759 62.04 47.5159C62.68 47.3159 63.21 47.0459 63.63 46.7059C64.05 46.3659 64.41 46.0459 64.71 45.7459C65.19 45.2459 65.56 44.6759 65.82 44.0359C66.08 43.3759 66.21 42.7359 66.21 42.1159C66.21 41.2959 66.01 40.6659 65.61 40.2259C65.23 39.7659 64.72 39.4359 64.08 39.2359C63.44 39.0359 62.75 38.9259 62.01 38.9059C61.65 39.3859 61.27 39.9559 60.87 40.6159C60.49 41.2559 60.13 41.9159 59.79 42.5959C59.45 43.2759 59.15 43.9059 58.89 44.4859C58.33 45.6859 57.74 46.9959 57.12 48.4159C56.52 49.8359 56.02 51.2159 55.62 52.5559C55.42 53.1759 55.22 53.8459 55.02 54.5659C54.84 55.2659 54.75 55.8959 54.75 56.4559C54.75 56.8959 54.83 57.2659 54.99 57.5659C55.15 57.8659 55.45 58.0559 55.89 58.1359Z" fill="#FFE330"/>
<path d="M75.4329 44.5459C74.9129 44.3659 74.6529 44.0259 74.6529 43.5259C74.6529 43.0659 74.8329 42.5959 75.1929 42.1159C75.5729 41.6159 75.9829 41.2959 76.4229 41.1559C76.5229 41.1159 76.6029 41.0959 76.6629 41.0959C76.7429 41.0959 76.8229 41.0959 76.9029 41.0959C77.2429 41.0959 77.5229 41.1959 77.7429 41.3959C77.9629 41.5959 78.0729 41.8259 78.0729 42.0859C78.0729 42.4459 77.8829 42.7459 77.5029 42.9859C77.2029 42.9459 76.9129 43.0159 76.6329 43.1959C76.3529 43.3759 76.1029 43.5959 75.8829 43.8559C75.6829 44.1159 75.5329 44.3459 75.4329 44.5459ZM70.2729 59.1259C70.0129 59.1259 69.7629 59.0659 69.5229 58.9459C69.2829 58.8459 69.0829 58.6359 68.9229 58.3159C68.7029 57.8359 68.5929 57.2659 68.5929 56.6059C68.5929 55.8859 68.7029 55.0859 68.9229 54.2059C69.1429 53.3059 69.4329 52.3859 69.7929 51.4459C69.9329 51.1059 70.1129 50.6859 70.3329 50.1859C70.5529 49.6859 70.8129 49.1859 71.1129 48.6859C71.4129 48.1859 71.7529 47.7759 72.1329 47.4559C72.5329 47.1159 72.9629 46.9459 73.4229 46.9459C73.6429 46.9459 73.9529 46.9559 74.3529 46.9759C74.7529 46.9959 75.0429 46.9959 75.2229 46.9759C75.1029 47.0559 74.9629 47.2159 74.8029 47.4559C74.6429 47.6959 74.4929 47.9459 74.3529 48.2059C74.2129 48.4459 74.1029 48.6359 74.0229 48.7759C73.5029 49.8159 73.0129 50.8459 72.5529 51.8659C72.0929 52.8859 71.7429 53.8659 71.5029 54.8059C71.4629 54.9659 71.4329 55.1259 71.4129 55.2859C71.3929 55.4459 71.3829 55.5959 71.3829 55.7359C71.3829 56.3159 71.5729 56.6059 71.9529 56.6059C72.1129 56.6059 72.2829 56.5659 72.4629 56.4859C72.6629 56.3859 72.8929 56.2359 73.1529 56.0359C73.6129 55.6759 74.0129 55.2659 74.3529 54.8059C74.7529 54.2859 75.1329 53.7359 75.4929 53.1559C75.8529 52.5559 76.1629 52.0059 76.4229 51.5059C76.5229 51.3459 76.5929 51.2659 76.6329 51.2659C76.7529 51.2659 76.8129 51.4359 76.8129 51.7759C76.8129 51.9359 76.7829 52.1259 76.7229 52.3459C76.6829 52.5459 76.6129 52.7359 76.5129 52.9159C76.2329 53.3959 75.9029 53.9259 75.5229 54.5059C75.1429 55.0859 74.7529 55.6459 74.3529 56.1859C74.0729 56.5659 73.7029 56.9859 73.2429 57.4459C72.7829 57.9059 72.2929 58.3059 71.7729 58.6459C71.2529 58.9659 70.7529 59.1259 70.2729 59.1259Z" fill="#FFE330"/>
<path d="M83.3468 59.1259C82.6668 59.1259 82.1968 58.9259 81.9368 58.5259C81.6968 58.1059 81.5768 57.6259 81.5768 57.0859C81.5768 56.4259 81.7068 55.6359 81.9668 54.7159C82.2268 53.7759 82.5268 52.8359 82.8668 51.8959C83.2268 50.9359 83.5468 50.0859 83.8268 49.3459C83.9068 49.1659 83.9468 48.9759 83.9468 48.7759C83.9468 48.5559 83.8768 48.3959 83.7368 48.2959C83.5968 48.1959 83.4168 48.1459 83.1968 48.1459C82.8768 48.1459 82.5168 48.2459 82.1168 48.4459C81.4968 48.7659 80.9068 49.2759 80.3468 49.9759C79.7868 50.6759 79.3368 51.4059 78.9968 52.1659C78.6168 53.0259 78.2768 53.8859 77.9768 54.7459C77.6768 55.6059 77.4368 56.3059 77.2568 56.8459C77.1368 57.1859 77.0268 57.5359 76.9268 57.8959C76.8268 58.2559 76.7268 58.6059 76.6268 58.9459H73.7168C73.7168 58.9459 73.7868 58.6959 73.9268 58.1959C74.0468 57.6959 74.2068 57.1959 74.4068 56.6959C74.7468 55.8159 75.0868 54.9359 75.4268 54.0559C75.7868 53.1759 76.0968 52.3959 76.3568 51.7159C76.4368 51.5159 76.5568 51.1459 76.7168 50.6059C76.8968 50.0459 77.0568 49.4659 77.1968 48.8659C77.3568 48.2659 77.4368 47.7759 77.4368 47.3959C77.4368 47.1759 77.4068 47.0259 77.3468 46.9459C77.5268 46.9459 77.7268 46.9459 77.9468 46.9459C78.1868 46.9259 78.4068 46.9159 78.6068 46.9159C78.8868 46.9159 79.1468 46.9259 79.3868 46.9459C79.6468 46.9659 79.8168 47.0159 79.8968 47.0959C80.1368 47.2759 80.2568 47.5359 80.2568 47.8759C80.2568 48.1159 80.2068 48.3559 80.1068 48.5959C80.0268 48.8359 79.9668 49.0359 79.9268 49.1959C80.2068 48.9359 80.4968 48.6859 80.7968 48.4459C81.0968 48.2059 81.5568 47.8959 82.1768 47.5159C82.5368 47.2959 82.9868 47.1159 83.5268 46.9759C84.0668 46.8359 84.5568 46.7659 84.9968 46.7659C86.1368 46.7659 86.7068 47.2959 86.7068 48.3559C86.7068 48.5359 86.6868 48.7359 86.6468 48.9559C86.6268 49.1759 86.5668 49.4159 86.4668 49.6759C86.3668 49.9959 86.2068 50.4359 85.9868 50.9959C85.7668 51.5559 85.5368 52.1559 85.2968 52.7959C85.0768 53.4159 84.8868 54.0059 84.7268 54.5659C84.5668 55.1259 84.4868 55.5759 84.4868 55.9159C84.4868 56.3959 84.6668 56.6359 85.0268 56.6359C85.3468 56.6359 85.7468 56.4359 86.2268 56.0359C86.6868 55.6559 87.0868 55.2459 87.4268 54.8059C87.8468 54.2859 88.2268 53.7359 88.5668 53.1559C88.9268 52.5559 89.2368 52.0059 89.4968 51.5059C89.5968 51.3459 89.6668 51.2659 89.7068 51.2659C89.8268 51.2659 89.8868 51.4359 89.8868 51.7759C89.8868 51.9359 89.8568 52.1259 89.7968 52.3459C89.7568 52.5459 89.6868 52.7359 89.5868 52.9159C89.3068 53.3959 88.9768 53.9259 88.5968 54.5059C88.2168 55.0859 87.8268 55.6459 87.4268 56.1859C87.1468 56.5659 86.7768 56.9859 86.3168 57.4459C85.8568 57.9059 85.3668 58.3059 84.8468 58.6459C84.3268 58.9659 83.8268 59.1259 83.3468 59.1259Z" fill="#FFE330"/>
<path d="M88.9432 65.9959C88.2832 65.9959 87.6732 65.8559 87.1132 65.5759C86.5532 65.3159 86.2732 64.8259 86.2732 64.1059C86.2732 63.7059 86.3932 63.2959 86.6332 62.8759C86.8732 62.4759 87.2132 62.2159 87.6532 62.0959C87.6932 62.0759 87.7432 62.0659 87.8032 62.0659C87.8632 62.0659 87.9132 62.0659 87.9532 62.0659C88.4932 62.0659 88.8532 62.2759 89.0332 62.6959C88.9932 62.7159 88.9332 62.7759 88.8532 62.8759C88.7732 62.9959 88.7132 63.0859 88.6732 63.1459C88.4932 63.5059 88.4032 63.8259 88.4032 64.1059C88.4032 64.4259 88.5032 64.6759 88.7032 64.8559C88.9232 65.0359 89.2032 65.1259 89.5432 65.1259C89.8232 65.1259 90.1232 65.0559 90.4432 64.9159C90.7832 64.7959 91.1332 64.5959 91.4932 64.3159C92.1332 63.7959 92.6532 63.1659 93.0532 62.4259C93.4732 61.7059 93.8332 60.9959 94.1332 60.2959C94.6532 59.0559 95.1432 57.7459 95.6032 56.3659C96.0832 54.9859 96.5532 53.6559 97.0132 52.3759C96.6332 53.0759 96.2232 53.7759 95.7832 54.4759C95.3632 55.1759 94.9332 55.7859 94.4932 56.3059C93.8532 57.0859 93.1732 57.7359 92.4532 58.2559C91.7532 58.7759 91.0532 59.0359 90.3532 59.0359C89.7932 59.0359 89.3132 58.8359 88.9132 58.4359C88.5132 58.0159 88.3132 57.2959 88.3132 56.2759C88.3132 55.2359 88.4932 54.1659 88.8532 53.0659C89.2132 51.9659 89.7132 50.9459 90.3532 50.0059C91.0132 49.0459 91.7832 48.2759 92.6632 47.6959C93.5632 47.1159 94.5432 46.8259 95.6032 46.8259C95.9432 46.8259 96.3132 46.8759 96.7132 46.9759C97.1132 47.0759 97.4732 47.2559 97.7932 47.5159C98.1332 47.7759 98.3632 48.1459 98.4832 48.6259C98.7632 48.0259 99.1032 47.5959 99.5032 47.3359C99.9032 47.0759 100.593 46.9459 101.573 46.9459H102.773C102.393 47.1859 102.013 47.6359 101.633 48.2959C101.253 48.9359 100.893 49.6959 100.553 50.5759C100.293 51.2159 99.9932 51.9659 99.6532 52.8259C99.3332 53.6859 99.0332 54.5059 98.7532 55.2859C98.4932 56.0059 98.1932 56.8059 97.8532 57.6859C97.5332 58.5659 97.1632 59.4359 96.7432 60.2959C96.3432 61.1559 95.8832 61.9159 95.3632 62.5759C94.5632 63.5959 93.5832 64.4159 92.4232 65.0359C91.2832 65.6759 90.1232 65.9959 88.9432 65.9959ZM91.6732 56.5159C91.7332 56.5359 91.8232 56.5459 91.9432 56.5459C92.3232 56.5459 92.7332 56.3859 93.1732 56.0659C93.6132 55.7459 94.0532 55.3359 94.4932 54.8359C94.9332 54.3159 95.3232 53.7959 95.6632 53.2759C96.5032 51.9759 97.1332 50.9759 97.5532 50.2759C97.9932 49.5759 98.2532 49.1359 98.3332 48.9559C98.3532 48.9559 98.3632 48.9359 98.3632 48.8959C98.2632 48.5559 98.0832 48.3159 97.8232 48.1759C97.5832 48.0159 97.3032 47.9359 96.9832 47.9359C96.5432 47.9359 96.0732 48.0559 95.5732 48.2959C95.0732 48.5359 94.6532 48.8259 94.3132 49.1659C93.7932 49.6859 93.2932 50.3559 92.8132 51.1759C92.3532 51.9959 91.9732 52.8059 91.6732 53.6059C91.3732 54.4059 91.2232 55.0759 91.2232 55.6159C91.2232 56.1159 91.3732 56.4159 91.6732 56.5159Z" fill="#FFE330"/>
<path d="M104.568 59.1859C103.648 59.1859 102.848 58.8959 102.168 58.3159C101.508 57.7359 101.178 56.8059 101.178 55.5259C101.178 54.5859 101.348 53.6059 101.688 52.5859C102.028 51.5659 102.508 50.6159 103.128 49.7359C103.768 48.8559 104.538 48.1359 105.438 47.5759C106.338 47.0159 107.348 46.7359 108.468 46.7359C109.388 46.7359 110.098 46.9159 110.598 47.2759C111.118 47.6159 111.488 48.0759 111.708 48.6559C111.928 49.2359 112.038 49.8559 112.038 50.5159C112.038 51.0159 111.978 51.5259 111.858 52.0459C111.758 52.5459 111.608 53.0459 111.408 53.5459C111.748 53.9459 112.178 54.1459 112.698 54.1459C113.258 54.1459 113.778 53.9359 114.258 53.5159C114.538 53.2759 114.788 52.9759 115.008 52.6159C115.248 52.2359 115.458 51.8859 115.638 51.5659C115.698 51.4459 115.768 51.3859 115.848 51.3859C115.948 51.3859 115.998 51.5259 115.998 51.8059C115.998 51.9859 115.968 52.1959 115.908 52.4359C115.868 52.6759 115.768 52.9159 115.608 53.1559C115.308 53.6759 114.998 54.0759 114.678 54.3559C114.358 54.6159 113.998 54.8259 113.598 54.9859C113.298 55.1059 112.978 55.1659 112.638 55.1659C112.018 55.1659 111.458 54.9759 110.958 54.5959C110.798 54.9359 110.598 55.2859 110.358 55.6459C109.778 56.6259 109.028 57.4659 108.108 58.1659C107.188 58.8459 106.008 59.1859 104.568 59.1859ZM105.708 58.0459C106.168 58.0459 106.608 57.8959 107.028 57.5959C107.468 57.2759 107.868 56.8859 108.228 56.4259C108.588 55.9659 108.898 55.4859 109.158 54.9859C109.438 54.4859 109.668 54.0459 109.848 53.6659C109.168 53.0859 108.828 52.3559 108.828 51.4759C108.828 50.8959 108.988 50.4459 109.308 50.1259C109.628 49.8059 110.068 49.6659 110.628 49.7059C110.608 49.2459 110.488 48.8659 110.268 48.5659C110.048 48.2659 109.688 48.1159 109.188 48.1159C108.728 48.1159 108.288 48.2559 107.868 48.5359C107.468 48.8159 107.088 49.1759 106.728 49.6159C106.388 50.0359 106.078 50.4759 105.798 50.9359C105.538 51.3759 105.318 51.7759 105.138 52.1359C104.878 52.6559 104.638 53.2859 104.418 54.0259C104.198 54.7659 104.088 55.4559 104.088 56.0959C104.088 56.6559 104.198 57.1259 104.418 57.5059C104.658 57.8659 105.088 58.0459 105.708 58.0459Z" fill="#FFE330"/>
<circle cx="20" cy="20.0059" r="20" fill="#FFE330"/>
<path d="M26.1984 14.4866C25.5584 13.3132 24.6784 12.4199 23.5584 11.8066C22.4384 11.1932 21.1318 10.8866 19.6384 10.8866C17.9851 10.8866 16.5184 11.2599 15.2384 12.0066C13.9584 12.7532 12.9584 13.8199 12.2384 15.2066C11.5184 16.5932 11.1584 18.1932 11.1584 20.0066C11.1584 21.8732 11.5184 23.4999 12.2384 24.8866C12.9851 26.2732 14.0118 27.3399 15.3184 28.0866C16.6251 28.8332 18.1451 29.2066 19.8784 29.2066C22.0118 29.2066 23.7584 28.6466 25.1184 27.5266C26.4784 26.3799 27.3718 24.7932 27.7984 22.7666H18.1984V18.4866H33.3184V23.3666C32.9451 25.3132 32.1451 27.1132 30.9184 28.7666C29.6918 30.4199 28.1051 31.7532 26.1584 32.7666C24.2384 33.7532 22.0784 34.2466 19.6784 34.2466C16.9851 34.2466 14.5451 33.6466 12.3584 32.4466C10.1984 31.2199 8.49177 29.5266 7.23844 27.3666C6.01177 25.2066 5.39844 22.7532 5.39844 20.0066C5.39844 17.2599 6.01177 14.8066 7.23844 12.6466C8.49177 10.4599 10.1984 8.76656 12.3584 7.56656C14.5451 6.3399 16.9718 5.72656 19.6384 5.72656C22.7851 5.72656 25.5184 6.4999 27.8384 8.04656C30.1584 9.56656 31.7584 11.7132 32.6384 14.4866H26.1984Z" fill="#092BA6"/>
</svg>
