<svg width="139" height="20" viewBox="0 0 139 20" fill="none" xmlns="http://www.w3.org/2000/svg">
<path d="M0 18.9152L3.80176 1.12172H9.04303C10.1914 1.12172 11.192 1.2556 12.0451 1.52335C12.8981 1.78299 13.5584 2.20491 14.0259 2.7891C14.5017 3.36518 14.7395 4.12787 14.7395 5.07718C14.7395 5.88045 14.5837 6.59446 14.272 7.21922C13.9685 7.83587 13.5256 8.35109 12.9432 8.76489C12.3609 9.17058 11.6514 9.46268 10.8147 9.64118V9.73854C11.635 9.9495 12.287 10.343 12.771 10.9191C13.2631 11.4871 13.5092 12.2173 13.5092 13.1098C13.5092 14.4567 13.1975 15.5602 12.5741 16.4202C11.9507 17.2722 11.1018 17.901 10.0273 18.3067C8.96101 18.7124 7.75937 18.9152 6.4224 18.9152H0ZM4.41694 15.7995H6.63156C7.24673 15.7995 7.78398 15.6981 8.24331 15.4953C8.70263 15.2924 9.05943 14.9922 9.31371 14.5946C9.57618 14.1971 9.70742 13.7102 9.70742 13.1342C9.70742 12.5094 9.51876 12.0266 9.14146 11.6858C8.77235 11.337 8.2105 11.1625 7.45589 11.1625H5.42582L4.41694 15.7995ZM6.05329 8.16853H7.88651C8.48527 8.16853 9.00612 8.09145 9.44904 7.93729C9.90017 7.77501 10.2488 7.52754 10.4948 7.19488C10.7409 6.8541 10.8639 6.41596 10.8639 5.88045C10.8639 5.32871 10.6917 4.91491 10.3472 4.63904C10.0027 4.35506 9.47775 4.21307 8.77235 4.21307H6.90223L6.05329 8.16853Z" fill="white"/>
<path d="M15.6254 18.9152L19.4271 1.12172H29.4914L28.827 4.21307H22.5276L21.7033 8.11985H27.572L26.8953 11.2112H21.0266L20.0423 15.7995H26.3417L25.6773 18.9152H15.6254Z" fill="white"/>
<path d="M31.9028 18.9152L35.0279 4.26175H30.6971L31.3738 1.12172H43.8003L43.1236 4.26175H38.7804L35.6554 18.9152H31.9028Z" fill="white"/>
<path d="M50.1857 19.1586C48.0942 19.1586 46.4619 18.5704 45.289 17.3939C44.116 16.2093 43.5296 14.4892 43.5296 12.2335C43.5296 11.0246 43.6731 9.85619 43.9602 8.72838C44.2473 7.60057 44.6738 6.562 45.2398 5.61269C45.8057 4.65527 46.5111 3.81955 47.3559 3.10554C48.209 2.39153 49.1933 1.83573 50.3088 1.43816C51.4243 1.04058 52.6751 0.841797 54.0613 0.841797C54.9882 0.841797 55.8576 0.939162 56.6697 1.13389C57.4817 1.32862 58.2937 1.63289 59.1057 2.04669L57.6908 5.10153C57.0921 4.77697 56.4851 4.51733 55.8699 4.3226C55.263 4.12787 54.6027 4.03051 53.8891 4.03051C52.7818 4.03051 51.818 4.26581 50.9978 4.73641C50.1857 5.19889 49.5091 5.81554 48.9677 6.58634C48.4263 7.34904 48.0203 8.19693 47.7497 9.13001C47.4872 10.0631 47.3559 11.0002 47.3559 11.9414C47.3559 12.8177 47.479 13.5601 47.7251 14.1687C47.9711 14.7691 48.3607 15.2235 48.8939 15.5318C49.4352 15.8401 50.1324 15.9943 50.9855 15.9943C51.4038 15.9943 51.7688 15.9659 52.0805 15.9091C52.3922 15.8523 52.7243 15.7833 53.077 15.7022L53.8891 12.0631H50.6041L51.293 8.92311H58.2199L56.2267 18.1971C55.4065 18.473 54.5371 18.7043 53.6184 18.8909C52.6997 19.0694 51.5555 19.1586 50.1857 19.1586Z" fill="#95F496"/>
<path d="M60.0654 18.9152L63.8672 1.12172H68.2841C70.0886 1.12172 71.5117 1.50713 72.5534 2.27793C73.6033 3.04063 74.1282 4.28203 74.1282 6.00215C74.1282 6.94335 73.956 7.7669 73.6115 8.4728C73.267 9.17869 72.7954 9.771 72.1966 10.2497C71.606 10.7284 70.9293 11.0976 70.1665 11.3572L73.3777 18.9152H69.293L66.7462 12.0875H65.2821L63.818 18.9152H60.0654ZM65.9342 9.02047H66.8938C67.427 9.02047 67.9027 8.96368 68.321 8.85009C68.7475 8.72838 69.1084 8.55393 69.4037 8.32675C69.699 8.09145 69.9205 7.79935 70.0681 7.45046C70.2239 7.09346 70.3019 6.67965 70.3019 6.20905C70.3019 5.54373 70.105 5.04473 69.7113 4.71206C69.3176 4.3794 68.7065 4.21307 67.8781 4.21307H66.9676L65.9342 9.02047Z" fill="#95F496"/>
<path d="M82.9621 19.1586C81.5021 19.1586 80.2759 18.8787 79.2834 18.3189C78.2991 17.759 77.5527 16.972 77.0442 15.9577C76.5356 14.9354 76.2813 13.7427 76.2813 12.3796C76.2813 11.4546 76.3634 10.5296 76.5274 9.60467C76.6997 8.6797 76.9539 7.78718 77.2902 6.92712C77.6347 6.06706 78.0653 5.26786 78.5821 4.5295C79.107 3.79115 79.7222 3.14611 80.4276 2.59437C81.133 2.04263 81.9327 1.6126 82.8268 1.30428C83.7208 0.995958 84.7133 0.841797 85.8042 0.841797C87.986 0.841797 89.6265 1.45033 90.7256 2.66739C91.8329 3.87635 92.3866 5.48693 92.3866 7.49914C92.3866 8.46468 92.3045 9.42211 92.1405 10.3714C91.9846 11.3207 91.7386 12.2295 91.4023 13.0976C91.0742 13.9658 90.6518 14.7691 90.135 15.5074C89.6265 16.2377 89.0236 16.8787 88.3264 17.4304C87.6292 17.974 86.8336 18.4 85.9395 18.7083C85.0537 19.0085 84.0612 19.1586 82.9621 19.1586ZM83.2328 15.9943C83.7249 15.9943 84.1966 15.905 84.6477 15.7265C85.0988 15.548 85.5212 15.2924 85.9149 14.9598C86.3086 14.619 86.6655 14.2052 86.9853 13.7183C87.3134 13.2234 87.5923 12.6676 87.822 12.051C88.0516 11.4262 88.228 10.7406 88.351 9.99413C88.4823 9.24766 88.5479 8.44845 88.5479 7.59651C88.5479 6.50115 88.2895 5.62486 87.7728 4.96765C87.2642 4.31043 86.5055 3.98183 85.4966 3.98183C84.9799 3.98183 84.4836 4.08325 84.0079 4.28609C83.5404 4.48894 83.1057 4.77697 82.7037 5.15021C82.31 5.52344 81.9532 5.96564 81.6333 6.47681C81.3134 6.98798 81.0387 7.55594 80.809 8.1807C80.5793 8.80546 80.403 9.47079 80.28 10.1767C80.1651 10.8826 80.1077 11.6169 80.1077 12.3796C80.1077 13.1666 80.2307 13.8319 80.4768 14.3756C80.7229 14.9111 81.0797 15.3168 81.5472 15.5926C82.0147 15.8604 82.5766 15.9943 83.2328 15.9943Z" fill="#95F496"/>
<path d="M100.605 19.1586C99.3667 19.1586 98.3209 18.9517 97.4679 18.5379C96.623 18.1241 95.9833 17.544 95.5485 16.7975C95.122 16.0429 94.9088 15.1626 94.9088 14.1565C94.9088 13.8968 94.9211 13.6048 94.9457 13.2802C94.9785 12.9475 95.0277 12.6392 95.0933 12.3552L97.5048 1.12172H101.257L98.8705 12.3066C98.813 12.5905 98.7638 12.8623 98.7228 13.122C98.6818 13.3816 98.6613 13.6169 98.6613 13.8279C98.6613 14.5257 98.8541 15.0612 99.2396 15.4344C99.6251 15.8076 100.207 15.9943 100.987 15.9943C101.717 15.9943 102.32 15.8563 102.795 15.5805C103.279 15.3046 103.669 14.8908 103.964 14.3391C104.259 13.7873 104.493 13.1017 104.665 12.2822L107.052 1.12172H110.817L108.344 12.6352C108.073 13.8928 107.631 15.0165 107.015 16.0064C106.408 16.9882 105.584 17.759 104.542 18.3189C103.501 18.8787 102.188 19.1586 100.605 19.1586Z" fill="#95F496"/>
<path d="M115.48 19.1586C114.578 19.1586 113.749 19.0613 112.995 18.8665C112.248 18.6718 111.617 18.404 111.1 18.0633V14.7285C111.846 15.1423 112.576 15.4669 113.29 15.7022C114.012 15.9293 114.75 16.0429 115.505 16.0429C115.923 16.0429 116.309 16.0064 116.661 15.9334C117.022 15.8523 117.334 15.7306 117.596 15.5683C117.859 15.406 118.064 15.2032 118.211 14.9598C118.359 14.7163 118.433 14.4324 118.433 14.1078C118.433 13.6453 118.339 13.2599 118.15 12.9516C117.969 12.6352 117.715 12.3431 117.387 12.0753C117.067 11.8076 116.694 11.5195 116.268 11.2112C115.767 10.8542 115.279 10.4485 114.803 9.99413C114.336 9.53976 113.95 9.01236 113.647 8.41194C113.343 7.80341 113.192 7.09346 113.192 6.28208C113.192 5.48693 113.335 4.76075 113.622 4.10353C113.918 3.44632 114.336 2.8743 114.877 2.38747C115.419 1.90064 116.067 1.52741 116.821 1.26777C117.584 1.00002 118.433 0.866138 119.368 0.866138C120.295 0.866138 121.152 0.96756 121.939 1.1704C122.735 1.36513 123.506 1.66534 124.252 2.07103L122.911 4.9068C122.272 4.60659 121.661 4.38346 121.078 4.23741C120.504 4.08325 119.934 4.00617 119.368 4.00617C119.032 4.00617 118.72 4.05485 118.433 4.15221C118.154 4.24147 117.908 4.37534 117.695 4.55385C117.49 4.72423 117.33 4.93114 117.215 5.17455C117.1 5.41796 117.043 5.69383 117.043 6.00215C117.043 6.42407 117.129 6.78513 117.301 7.08534C117.481 7.38555 117.736 7.66548 118.064 7.92512C118.4 8.17664 118.802 8.45657 119.27 8.76489C119.934 9.19492 120.484 9.65741 120.918 10.1523C121.361 10.6392 121.689 11.1706 121.903 11.7467C122.124 12.3228 122.235 12.9597 122.235 13.6575C122.235 14.5906 122.058 15.402 121.706 16.0916C121.353 16.7813 120.865 17.3533 120.242 17.8077C119.626 18.2621 118.909 18.6028 118.088 18.83C117.276 19.0491 116.407 19.1586 115.48 19.1586Z" fill="#95F496"/>
<path d="M124.609 18.9152L128.411 1.12172H138.475L137.811 4.21307H131.512L130.687 8.11985H136.556L135.879 11.2112H130.01L129.026 15.7995H135.326L134.661 18.9152H124.609Z" fill="#95F496"/>
</svg>
