<svg width="75" height="46" viewBox="0 0 75 46" fill="none" xmlns="http://www.w3.org/2000/svg">
<path d="M11.5568 4.45595C11.4309 4.68446 11.2966 4.85585 11.1539 4.9701C11.0196 5.08436 10.8434 5.14149 10.6252 5.14149C10.4321 5.14149 10.2223 5.07484 9.99573 4.94154C9.77752 4.79872 9.52573 4.64162 9.24038 4.47023C8.96342 4.29885 8.6445 4.14651 8.28361 4.01321C7.92272 3.8704 7.51148 3.79899 7.04988 3.79899C6.25257 3.79899 5.65669 3.99417 5.26223 4.38454C4.87617 4.76539 4.68314 5.2843 4.68314 5.94127C4.68314 6.36021 4.80063 6.70773 5.03563 6.98385C5.27063 7.25997 5.57696 7.498 5.95463 7.69795C6.3407 7.89789 6.77712 8.08356 7.2639 8.25494C7.75907 8.4168 8.26263 8.60247 8.77458 8.81193C9.28654 9.01188 9.78591 9.24991 10.2727 9.52603C10.7679 9.80215 11.2043 10.1544 11.5819 10.5829C11.968 11.0113 12.2785 11.535 12.5135 12.1539C12.7485 12.7633 12.866 13.5012 12.866 14.3676C12.866 15.3292 12.7192 16.229 12.4254 17.0669C12.1317 17.9047 11.7036 18.6379 11.1413 19.2663C10.5874 19.8852 9.89921 20.3755 9.07672 20.7373C8.26263 21.0896 7.33523 21.2658 6.29454 21.2658C5.72383 21.2658 5.14054 21.1991 4.54466 21.0658C3.95717 20.9325 3.38646 20.7468 2.83254 20.5088C2.27862 20.2613 1.75827 19.9709 1.2715 19.6376C0.784719 19.3044 0.360887 18.933 0 18.5236L1.25891 16.2671C1.35962 16.1052 1.48971 15.9719 1.64917 15.8672C1.81702 15.7529 1.99747 15.6958 2.1905 15.6958C2.44228 15.6958 2.69406 15.7863 2.94584 15.9672C3.20602 16.1481 3.49557 16.348 3.81449 16.567C4.14181 16.786 4.51528 16.9859 4.93492 17.1668C5.35455 17.3478 5.84972 17.4382 6.42043 17.4382C7.19256 17.4382 7.79264 17.2478 8.22067 16.8669C8.64869 16.4766 8.86271 15.8624 8.86271 15.0246C8.86271 14.539 8.74521 14.1438 8.51021 13.8392C8.27522 13.5345 7.96469 13.2822 7.57862 13.0822C7.20095 12.8823 6.76873 12.7061 6.28195 12.5538C5.79517 12.4015 5.2958 12.2348 4.78385 12.0539C4.27189 11.8635 3.77253 11.635 3.28575 11.3684C2.79897 11.0923 2.36255 10.7352 1.97648 10.2973C1.59881 9.84975 1.29248 9.29752 1.05748 8.64055C0.822486 7.97406 0.704988 7.15523 0.704988 6.18406C0.704988 5.40332 0.843468 4.64162 1.12043 3.89896C1.39739 3.1563 1.80443 2.49457 2.34157 1.91377C2.8787 1.33298 3.53753 0.871195 4.31805 0.52843C5.09858 0.176143 5.9924 0 6.99953 0C7.56184 0 8.10736 0.0523672 8.6361 0.157101C9.17324 0.252314 9.681 0.399893 10.1594 0.599839C10.6378 0.790265 11.0826 1.02354 11.4938 1.29965C11.9135 1.56625 12.2869 1.87093 12.6143 2.21369L11.5568 4.45595Z" fill="#FFFE31"/>
<path d="M26.4172 17.1811V21.0372H15.364V0.228511H19.6191V17.1811H26.4172Z" fill="#FFFE31"/>
<path d="M46.1521 10.6257C46.1521 12.1301 45.9213 13.5297 45.4597 14.8246C45.0065 16.1195 44.3645 17.2478 43.5336 18.2094C42.7027 19.1616 41.6998 19.909 40.5248 20.4517C39.3582 20.9944 38.0616 21.2658 36.6348 21.2658C35.208 21.2658 33.9072 20.9944 32.7322 20.4517C31.5572 19.909 30.5501 19.1616 29.7108 18.2094C28.8799 17.2478 28.2337 16.1195 27.7721 14.8246C27.3189 13.5297 27.0923 12.1301 27.0923 10.6257C27.0923 9.12138 27.3189 7.72175 27.7721 6.42686C28.2337 5.13196 28.8799 4.00845 29.7108 3.05633C30.5501 2.1042 31.5572 1.35678 32.7322 0.814069C33.9072 0.271356 35.208 0 36.6348 0C38.0616 0 39.3582 0.276117 40.5248 0.82835C41.6998 1.37106 42.7027 2.11848 43.5336 3.07061C44.3645 4.02274 45.0065 5.14624 45.4597 6.44114C45.9213 7.73603 46.1521 9.1309 46.1521 10.6257ZM41.7963 10.6257C41.7963 9.59744 41.6788 8.67387 41.4438 7.85505C41.2088 7.0267 40.8689 6.32688 40.4241 5.75561C39.9877 5.18433 39.4506 4.74635 38.8127 4.44167C38.1749 4.13699 37.4489 3.98465 36.6348 3.98465C35.8123 3.98465 35.0779 4.13699 34.4317 4.44167C33.7939 4.74635 33.2525 5.18433 32.8077 5.75561C32.3713 6.32688 32.0356 7.0267 31.8006 7.85505C31.5656 8.67387 31.4481 9.59744 31.4481 10.6257C31.4481 11.6636 31.5656 12.5966 31.8006 13.425C32.0356 14.2438 32.3713 14.9389 32.8077 15.5101C33.2525 16.0814 33.7939 16.5194 34.4317 16.8241C35.0779 17.1192 35.8123 17.2668 36.6348 17.2668C37.4489 17.2668 38.1749 17.1192 38.8127 16.8241C39.4506 16.5194 39.9877 16.0814 40.4241 15.5101C40.8689 14.9389 41.2088 14.2438 41.4438 13.425C41.6788 12.5966 41.7963 11.6636 41.7963 10.6257Z" fill="#FFFE31"/>
<path d="M61.3944 4.05606H56.2328V21.0372H51.9777V4.05606H46.8162V0.228511H61.3944V4.05606Z" fill="#FFFE31"/>
<path d="M73.6907 4.45595C73.5648 4.68446 73.4306 4.85585 73.2879 4.9701C73.1536 5.08436 72.9774 5.14149 72.7591 5.14149C72.5661 5.14149 72.3563 5.07484 72.1297 4.94154C71.9115 4.79872 71.6597 4.64162 71.3743 4.47023C71.0974 4.29885 70.7785 4.14651 70.4176 4.01321C70.0567 3.8704 69.6454 3.79899 69.1838 3.79899C68.3865 3.79899 67.7907 3.99417 67.3962 4.38454C67.0101 4.76539 66.8171 5.2843 66.8171 5.94127C66.8171 6.36021 66.9346 6.70773 67.1696 6.98385C67.4046 7.25997 67.7109 7.498 68.0886 7.69795C68.4747 7.89789 68.9111 8.08356 69.3979 8.25494C69.893 8.4168 70.3966 8.60247 70.9085 8.81193C71.4205 9.01188 71.9199 9.24991 72.4066 9.52603C72.9018 9.80215 73.3382 10.1544 73.7159 10.5829C74.102 11.0113 74.4125 11.535 74.6475 12.1539C74.8825 12.7633 75 13.5012 75 14.3676C75 15.3292 74.8531 16.229 74.5594 17.0669C74.2656 17.9047 73.8376 18.6379 73.2753 19.2663C72.7214 19.8852 72.0332 20.3755 71.2107 20.7373C70.3966 21.0896 69.4692 21.2658 68.4285 21.2658C67.8578 21.2658 67.2745 21.1991 66.6786 21.0658C66.0911 20.9325 65.5204 20.7468 64.9665 20.5088C64.4126 20.2613 63.8922 19.9709 63.4055 19.6376C62.9187 19.3044 62.4949 18.933 62.134 18.5236L63.3929 16.2671C63.4936 16.1052 63.6237 15.9719 63.7831 15.8672C63.951 15.7529 64.1314 15.6958 64.3245 15.6958C64.5762 15.6958 64.828 15.7863 65.0798 15.9672C65.34 16.1481 65.6295 16.348 65.9485 16.567C66.2758 16.786 66.6492 16.9859 67.0689 17.1668C67.4885 17.3478 67.9837 17.4382 68.5544 17.4382C69.3265 17.4382 69.9266 17.2478 70.3546 16.8669C70.7827 16.4766 70.9967 15.8624 70.9967 15.0246C70.9967 14.539 70.8792 14.1438 70.6442 13.8392C70.4092 13.5345 70.0987 13.2822 69.7126 13.0822C69.3349 12.8823 68.9027 12.7061 68.4159 12.5538C67.9291 12.4015 67.4298 12.2348 66.9178 12.0539C66.4059 11.8635 65.9065 11.635 65.4197 11.3684C64.9329 11.0923 64.4965 10.7352 64.1105 10.2973C63.7328 9.84975 63.4264 9.29752 63.1914 8.64055C62.9565 7.97406 62.839 7.15523 62.839 6.18406C62.839 5.40332 62.9774 4.64162 63.2544 3.89896C63.5314 3.1563 63.9384 2.49457 64.4755 1.91377C65.0127 1.33298 65.6715 0.871195 66.452 0.52843C67.2325 0.176143 68.1264 0 69.1335 0C69.6958 0 70.2413 0.0523672 70.7701 0.157101C71.3072 0.252314 71.815 0.399893 72.2934 0.599839C72.7717 0.790265 73.2165 1.02354 73.6278 1.29965C74.0474 1.56625 74.4209 1.87093 74.7482 2.21369L73.6907 4.45595Z" fill="#FFFE31"/>
<path d="M12.1798 38.4958V44.3957C10.872 45.4652 9.35142 46 7.61791 46C6.55348 46 5.58941 45.8137 4.72569 45.4411C3.86806 45.0615 3.13513 44.5371 2.52688 43.8678C1.91863 43.1915 1.45028 42.3876 1.12183 41.4561C0.793372 40.5245 0.629145 39.4998 0.629145 38.382C0.629145 37.2572 0.787289 36.2291 1.10358 35.2975C1.41987 34.3591 1.87301 33.5552 2.46301 32.8858C3.05301 32.2096 3.76466 31.6886 4.59796 31.3229C5.43126 30.9503 6.36796 30.764 7.40807 30.764C7.93724 30.764 8.42688 30.8123 8.87699 30.9089C9.33317 30.9986 9.7559 31.1262 10.1452 31.2918C10.5345 31.4575 10.8933 31.6576 11.2218 31.8922C11.5502 32.1268 11.8513 32.389 12.125 32.6788L11.5137 33.7863C11.4164 33.9588 11.2917 34.0658 11.1397 34.1072C10.9876 34.1486 10.8234 34.1072 10.647 33.983C10.4706 33.8657 10.282 33.7415 10.0813 33.6104C9.88668 33.4793 9.66163 33.3585 9.40616 33.2481C9.1507 33.1308 8.8557 33.0376 8.52116 32.9686C8.18662 32.8927 7.79126 32.8548 7.33508 32.8548C6.64168 32.8548 6.01518 32.9859 5.45559 33.2481C4.90209 33.5034 4.42765 33.8726 4.03229 34.3556C3.63693 34.8317 3.33281 35.4114 3.11992 36.0945C2.90703 36.7776 2.80059 37.5401 2.80059 38.382C2.80059 39.2721 2.91312 40.0691 3.13817 40.773C3.36322 41.4699 3.68255 42.0633 4.09616 42.5533C4.50977 43.0363 5.00853 43.4055 5.59245 43.6608C6.18245 43.9161 6.83936 44.0437 7.56317 44.0437C8.10451 44.0437 8.58503 43.9782 9.00472 43.8471C9.43049 43.716 9.84714 43.5331 10.2547 43.2985V40.3382H8.4208C8.2809 40.3382 8.17142 40.2968 8.09235 40.214C8.01327 40.1243 7.97374 40.0105 7.97374 39.8725V38.4958H12.1798Z" fill="#FFFE31"/>
<path d="M21.5083 40.2451L19.7018 34.8007C19.5559 34.3798 19.4068 33.845 19.2548 33.1963C19.1879 33.5207 19.1149 33.8208 19.0358 34.0968C18.9567 34.366 18.8838 34.604 18.8168 34.811L17.0104 40.2451H21.5083ZM25.5502 45.8344H23.8988C23.7102 45.8344 23.5581 45.7826 23.4426 45.6791C23.327 45.5687 23.2388 45.4342 23.178 45.2755L22.0831 41.984H16.4264L15.3316 45.2755C15.2829 45.4135 15.1978 45.5411 15.0761 45.6584C14.9545 45.7757 14.8024 45.8344 14.6199 45.8344H12.9685L18.1782 30.9296H20.3405L25.5502 45.8344Z" fill="#FFFE31"/>
<path d="M30.8971 38.0715C31.3837 38.0715 31.8094 38.0059 32.1744 37.8748C32.5393 37.7368 32.8435 37.547 33.0868 37.3055C33.3301 37.064 33.5125 36.7776 33.6342 36.4464C33.7558 36.1083 33.8167 35.7357 33.8167 35.3286C33.8167 34.5143 33.5795 33.8933 33.105 33.4655C32.6306 33.0376 31.9129 32.8237 30.9518 32.8237H29.2183V38.0715H30.8971ZM37.083 45.8344H35.1761C34.799 45.8344 34.5253 45.6688 34.355 45.3376L31.2894 40.3175C31.186 40.145 31.0735 40.0208 30.9518 39.9449C30.8302 39.869 30.6477 39.8311 30.4044 39.8311H29.2183V45.8344H27.0834V30.9296H30.9518C31.8155 30.9296 32.5576 31.0296 33.178 31.2297C33.8045 31.4299 34.3185 31.7162 34.7199 32.0888C35.1214 32.4546 35.4164 32.8962 35.6049 33.4137C35.7996 33.9312 35.8969 34.5074 35.8969 35.1423C35.8969 35.6598 35.8269 36.1428 35.687 36.5913C35.5532 37.0399 35.3555 37.447 35.094 37.8127C34.8385 38.1784 34.5222 38.4958 34.1451 38.765C33.768 39.0341 33.3392 39.2445 32.8587 39.3963C33.1202 39.5757 33.3453 39.8276 33.5338 40.1519L37.083 45.8344Z" fill="#FFFE31"/>
<path d="M50.1986 38.382C50.1986 39.486 50.0404 40.4969 49.7242 41.4147C49.4079 42.3255 48.9608 43.1087 48.383 43.7643C47.8112 44.4198 47.1209 44.9304 46.3119 45.2962C45.509 45.655 44.6149 45.8344 43.6295 45.8344H38.6662V30.9296H43.6295C44.6149 30.9296 45.509 31.1124 46.3119 31.4782C47.1209 31.837 47.8112 32.3442 48.383 32.9997C48.9608 33.6552 49.4079 34.4419 49.7242 35.3596C50.0404 36.2705 50.1986 37.2779 50.1986 38.382ZM48.018 38.382C48.018 37.5263 47.9146 36.7569 47.7078 36.0738C47.5071 35.3907 47.2151 34.8145 46.8319 34.3453C46.4548 33.876 45.9956 33.5172 45.4543 33.2688C44.9129 33.0135 44.3047 32.8858 43.6295 32.8858H40.8103V43.8781H43.6295C44.3047 43.8781 44.9129 43.7539 45.4543 43.5055C45.9956 43.2571 46.4548 42.8983 46.8319 42.4291C47.2151 41.9529 47.5071 41.3767 47.7078 40.7005C47.9146 40.0174 48.018 39.2445 48.018 38.382Z" fill="#FFFE31"/>
<path d="M60.75 43.8781L60.7409 45.8344H52.5478V30.9296H60.7409V32.8858H54.6919V37.378H59.5274V39.2721H54.6919V43.8781H60.75Z" fill="#FFFE31"/>
<path d="M73.9369 30.9296V45.8344H72.8512C72.687 45.8344 72.5471 45.8033 72.4315 45.7412C72.316 45.6722 72.2065 45.5618 72.1031 45.41L64.8862 34.8938C64.9045 35.094 64.9166 35.2941 64.9227 35.4942C64.9349 35.6874 64.9409 35.8668 64.9409 36.0324V45.8344H63.0615V30.9296H64.1746C64.2658 30.9296 64.3418 30.9365 64.4026 30.9503C64.4696 30.9572 64.5304 30.9744 64.5851 31.002C64.6399 31.0296 64.6916 31.071 64.7402 31.1262C64.7889 31.1814 64.8406 31.2504 64.8953 31.3332L72.1213 41.8598C72.1031 41.6459 72.0879 41.4354 72.0757 41.2284C72.0696 41.0214 72.0666 40.8282 72.0666 40.6488V30.9296H73.9369Z" fill="#FFFE31"/>
</svg>
