<svg width="125" height="36" viewBox="0 0 125 36" fill="none" xmlns="http://www.w3.org/2000/svg">
<path d="M11.5168 28.23C8.75373 28.23 6.60198 27.5698 5.06152 26.2494C3.52105 24.9046 2.75082 22.8506 2.75082 20.0876V3.28923H11.04V20.0142C11.04 20.6255 11.1989 21.1023 11.5168 21.4447C11.8591 21.787 12.2748 21.9581 12.7638 21.9581C13.4729 21.9581 14.0964 21.7748 14.6344 21.408L16.615 27.1664C15.9792 27.5332 15.209 27.8021 14.3043 27.9733C13.424 28.1444 12.4949 28.23 11.5168 28.23ZM0 14.9527V8.90091H15.1479V14.9527H0Z" fill="white"/>
<path d="M18.7042 27.8633V7.80058H26.5899V13.8524L25.3061 12.1285C25.9174 10.5636 26.8955 9.38994 28.2404 8.60749C29.5852 7.82503 31.199 7.4338 33.0818 7.4338V14.7693C32.715 14.7204 32.3849 14.6838 32.0915 14.6593C31.8225 14.6348 31.5413 14.6226 31.2479 14.6226C30.0009 14.6226 28.9739 14.9527 28.167 15.6129C27.3845 16.2487 26.9933 17.3612 26.9933 18.9506V27.8633H18.7042Z" fill="white"/>
<path d="M40.3698 35.3455C39.2694 35.3455 38.1447 35.1743 36.9954 34.832C35.8706 34.5141 34.9659 34.0862 34.2813 33.5483L37.0321 27.8633C37.4478 28.1811 37.9124 28.4379 38.4259 28.6335C38.9638 28.8291 39.4773 28.9269 39.9663 28.9269C40.6999 28.9269 41.2623 28.768 41.6535 28.4501C42.0447 28.1567 42.3626 27.7043 42.6071 27.093L43.4507 24.9657L44.0375 24.1588L50.4561 7.80058H58.3051L50.0527 28.2667C49.3191 30.1006 48.4633 31.531 47.4852 32.558C46.5316 33.585 45.4557 34.3063 44.2576 34.722C43.0839 35.1376 41.788 35.3455 40.3698 35.3455ZM42.3137 28.7802L33.5844 7.80058H42.0936L48.1088 23.4253L42.3137 28.7802Z" fill="white"/>
<path d="M72.9599 28.23C71.126 28.23 69.6467 27.8633 68.5219 27.1297C67.3971 26.3961 66.5779 25.2591 66.0645 23.7187C65.5754 22.1782 65.3309 20.2099 65.3309 17.8136C65.3309 15.4418 65.5999 13.4978 66.1378 11.9818C66.6758 10.4414 67.5071 9.30436 68.6319 8.57081C69.7811 7.8128 71.2238 7.4338 72.9599 7.4338C74.7204 7.4338 76.3342 7.84948 77.8013 8.68084C79.2684 9.5122 80.4421 10.7103 81.3224 12.2753C82.2026 13.8157 82.6428 15.6618 82.6428 17.8136C82.6428 19.9653 82.2026 21.8237 81.3224 23.3886C80.4421 24.929 79.2684 26.1272 77.8013 26.983C76.3342 27.8143 74.7204 28.23 72.9599 28.23ZM59.5725 27.8633V0.648438H67.8617V10.478L67.4949 17.8136L67.4582 25.1491V27.8633H59.5725ZM70.9793 21.7748C71.5906 21.7748 72.1407 21.6281 72.6298 21.3346C73.1188 21.0412 73.51 20.6011 73.8034 20.0142C74.0969 19.4029 74.2436 18.6694 74.2436 17.8136C74.2436 16.9333 74.0969 16.212 73.8034 15.6496C73.51 15.0628 73.1188 14.6226 72.6298 14.3292C72.1407 14.0358 71.5906 13.8891 70.9793 13.8891C70.368 13.8891 69.8178 14.0358 69.3288 14.3292C68.8397 14.6226 68.4485 15.0628 68.1551 15.6496C67.8617 16.212 67.715 16.9333 67.715 17.8136C67.715 18.6694 67.8617 19.4029 68.1551 20.0142C68.4485 20.6011 68.8397 21.0412 69.3288 21.3346C69.8178 21.6281 70.368 21.7748 70.9793 21.7748Z" fill="#FFD301"/>
<path d="M96.3307 28.23C93.8855 28.23 91.746 27.7777 89.9121 26.873C88.1027 25.9682 86.6967 24.7334 85.6942 23.1685C84.6916 21.5791 84.1904 19.7942 84.1904 17.8136C84.1904 15.7841 84.6794 13.9869 85.6575 12.422C86.66 10.857 88.0171 9.63446 89.7287 8.7542C91.4648 7.87393 93.4087 7.4338 95.5605 7.4338C97.5411 7.4338 99.3627 7.82503 101.025 8.60749C102.713 9.38994 104.057 10.5514 105.06 12.0919C106.087 13.6323 106.6 15.5396 106.6 17.8136C106.6 18.107 106.588 18.4371 106.564 18.8039C106.539 19.1462 106.515 19.4641 106.49 19.7575H91.0491V15.7596H102.089L98.9715 16.8233C98.9715 16.0408 98.8248 15.3806 98.5313 14.8427C98.2624 14.2803 97.8834 13.8524 97.3943 13.559C96.9053 13.2411 96.3185 13.0822 95.6338 13.0822C94.9492 13.0822 94.3501 13.2411 93.8366 13.559C93.3476 13.8524 92.9686 14.2803 92.6996 14.8427C92.4306 15.3806 92.2961 16.0408 92.2961 16.8233V18.0703C92.2961 18.9261 92.4673 19.6597 92.8096 20.271C93.152 20.8823 93.641 21.3469 94.2767 21.6647C94.9125 21.9582 95.6827 22.1049 96.5874 22.1049C97.5166 22.1049 98.2746 21.9826 98.8614 21.7381C99.4727 21.4936 100.108 21.1268 100.769 20.6378L105.097 25.0024C104.119 26.0538 102.908 26.8607 101.466 27.4231C100.047 27.9611 98.3357 28.23 96.3307 28.23Z" fill="#FFD301"/>
<path d="M118.899 28.23C116.136 28.23 113.984 27.5698 112.444 26.2494C110.903 24.9046 110.133 22.8506 110.133 20.0876V3.28923H118.422V20.0142C118.422 20.6255 118.581 21.1023 118.899 21.4447C119.242 21.787 119.657 21.9581 120.146 21.9581C120.855 21.9581 121.479 21.7748 122.017 21.408L123.997 27.1664C123.362 27.5332 122.591 27.8021 121.687 27.9733C120.806 28.1444 119.877 28.23 118.899 28.23ZM107.382 14.9527V8.90091H118.422V14.9527H107.382Z" fill="#FFD301"/>
<circle cx="121.907" cy="11.7197" r="3.09473" fill="white"/>
</svg>
