<svg width="101" height="28" viewBox="0 0 101 28" fill="none" xmlns="http://www.w3.org/2000/svg">
<g clip-path="url(#clip0_8923_108652)">
<path d="M12.7516 18.6165H6.71363C6.71363 18.6094 6.71363 18.5987 6.71363 18.5844C6.71363 18.5701 6.71363 18.5593 6.71363 18.5522C6.72078 18.5379 6.72436 18.5236 6.72436 18.5093C6.72436 18.495 6.72436 18.4807 6.72436 18.4664C6.73151 18.445 6.73508 18.4235 6.73508 18.402C6.73508 18.3806 6.73508 18.3591 6.73508 18.3377C6.74223 18.3091 6.74581 18.2805 6.74581 18.2519C6.74581 18.2233 6.74581 18.1911 6.74581 18.1554C6.75296 18.1196 6.75654 18.0803 6.75654 18.0374C6.75654 17.9945 6.76011 17.948 6.76726 17.898L6.77799 17.5762L6.78872 17.3832L6.79944 16.9328L6.81017 16.6647L6.8209 16.0534L6.83162 15.7102L6.86376 13.1148C5.76272 12.3069 3.47479 10.6088 0 8.02059L0.750725 0.899414L9.68438 8.44958L18.6073 0.899414L19.4545 8.04204C15.9154 10.6159 13.6811 12.2461 12.7516 12.9325V18.6165Z" fill="#FFD02E"/>
<path d="M40.8559 18.6064H34.4319L33.5095 16.8904H25.198L24.2757 18.6064H17.8516L29.3591 0.642578L40.8559 18.6064ZM30.9893 12.1823L29.3591 9.15794H29.3484L27.729 12.1823H30.9893Z" fill="#FFD02E"/>
<path d="M54.1632 18.6065H41.1435C41.3009 17.5197 41.3901 16.7726 41.4115 16.3651C41.4328 15.9575 41.4509 15.4713 41.4653 14.9065C41.4867 14.3417 41.5011 13.6803 41.508 12.9224C41.515 12.1646 41.5187 11.2994 41.5187 10.3271C41.5187 9.26177 41.5117 8.32512 41.4974 7.5172C41.4904 6.70213 41.476 6.00147 41.4546 5.4152C41.4402 4.82177 41.4189 4.32127 41.3901 3.91373C41.3687 3.50619 41.3437 3.17373 41.3149 2.91634C41.2935 2.65894 41.2684 2.46233 41.2401 2.32648C41.2187 2.18349 41.183 2.04764 41.1328 1.91895H54.0559C54.8853 1.91895 55.6502 2.09769 56.3509 2.45517C57.0586 2.80551 57.6521 3.28455 58.1313 3.89228C58.8748 4.82888 59.2467 5.90135 59.2467 7.10966C59.2467 7.56726 59.1539 7.9891 58.9677 8.37518C58.7819 8.75411 58.553 9.0866 58.2813 9.37257C58.0097 9.65142 57.731 9.86949 57.445 10.0268C57.1659 10.1769 56.923 10.2556 56.7155 10.2627C57.0015 10.2699 57.3377 10.42 57.7236 10.7132C58.1169 11.0063 58.4675 11.3924 58.7749 11.8714C59.0893 12.3505 59.2467 12.8652 59.2467 13.4158C59.2467 13.809 59.2073 14.1844 59.1288 14.5419C58.8497 15.7144 58.26 16.6761 57.3591 17.4268C56.4656 18.1704 55.3999 18.5636 54.1632 18.6065ZM52.0824 14.5419C52.3902 14.5419 52.6545 14.4346 52.8764 14.2201C53.0979 13.9985 53.2085 13.7304 53.2085 13.4158C53.2085 13.1083 53.0979 12.8438 52.8764 12.6221C52.6545 12.4005 52.3902 12.2897 52.0824 12.2897H47.1707V14.5419H52.0824ZM52.0824 8.22505C52.3902 8.22505 52.6545 8.11778 52.8764 7.90328C53.0979 7.68168 53.2085 7.41355 53.2085 7.09894C53.2085 6.79152 53.0979 6.52696 52.8764 6.30532C52.6545 6.08367 52.3902 5.97287 52.0824 5.97287H47.1707V8.22505H52.0824Z" fill="#FFD02E"/>
<path d="M74.3429 18.6065H61.3232C61.4806 17.5197 61.5698 16.7726 61.5912 16.3651C61.6125 15.9575 61.6306 15.4713 61.645 14.9065C61.6664 14.3417 61.6808 13.6803 61.6877 12.9224C61.6947 12.1646 61.6984 11.2994 61.6984 10.3271C61.6984 9.26177 61.6914 8.32512 61.6771 7.5172C61.6701 6.70213 61.6557 6.00147 61.6343 5.4152C61.6199 4.82177 61.5986 4.32127 61.5698 3.91373C61.5484 3.50619 61.5233 3.17373 61.4946 2.91634C61.4732 2.65894 61.4481 2.46233 61.4198 2.32648C61.398 2.18349 61.3626 2.04764 61.3125 1.91895H74.2356C75.065 1.91895 75.8299 2.09769 76.5306 2.45517C77.2383 2.80551 77.8318 3.28455 78.311 3.89228C79.0545 4.82888 79.4264 5.90135 79.4264 7.10966C79.4264 7.56726 79.3335 7.9891 79.1474 8.37518C78.9616 8.75411 78.7327 9.0866 78.461 9.37257C78.1894 9.65142 77.9107 9.86949 77.6247 10.0268C77.3456 10.1769 77.1027 10.2556 76.8952 10.2627C77.1812 10.2699 77.5174 10.42 77.9033 10.7132C78.2966 11.0063 78.6472 11.3924 78.9546 11.8714C79.269 12.3505 79.4264 12.8652 79.4264 13.4158C79.4264 13.809 79.387 14.1844 79.3085 14.5419C79.0294 15.7144 78.4396 16.6761 77.5388 17.4268C76.6453 18.1704 75.5796 18.5636 74.3429 18.6065ZM72.2621 14.5419C72.5699 14.5419 72.8342 14.4346 73.0557 14.2201C73.2776 13.9985 73.3882 13.7304 73.3882 13.4158C73.3882 13.1083 73.2776 12.8438 73.0557 12.6221C72.8342 12.4005 72.5699 12.2897 72.2621 12.2897H67.3503V14.5419H72.2621ZM72.2621 8.22505C72.5699 8.22505 72.8342 8.11778 73.0557 7.90328C73.2776 7.68168 73.3882 7.41355 73.3882 7.09894C73.3882 6.79152 73.2776 6.52696 73.0557 6.30532C72.8342 6.08367 72.5699 5.97287 72.2621 5.97287H67.3503V8.22505H72.2621Z" fill="#FFD02E"/>
<path d="M93.6888 18.6165H87.651C87.651 18.6094 87.651 18.5987 87.651 18.5844C87.651 18.5701 87.651 18.5593 87.651 18.5522C87.658 18.5379 87.6617 18.5236 87.6617 18.5093C87.6617 18.495 87.6617 18.4807 87.6617 18.4664C87.6691 18.445 87.6724 18.4235 87.6724 18.402C87.6724 18.3806 87.6724 18.3591 87.6724 18.3377C87.6798 18.3091 87.6831 18.2805 87.6831 18.2519C87.6831 18.2233 87.6831 18.1911 87.6831 18.1554C87.6905 18.1196 87.6938 18.0803 87.6938 18.0374C87.6938 17.9945 87.6974 17.948 87.7048 17.898L87.7155 17.5762L87.7262 17.3832L87.7369 16.9328L87.7476 16.6647L87.7583 16.0534L87.769 15.7102L87.801 13.1148C86.7 12.3069 84.412 10.6088 80.9375 8.02059L81.688 0.899414L90.6216 8.44958L99.5446 0.899414L100.392 8.04204C96.8526 10.6159 94.6185 12.2461 93.6888 12.9325V18.6165Z" fill="#FFD02E"/>
<path d="M36.5281 27.1775C36.1012 27.1775 35.7001 27.1088 35.3247 26.9716C34.9494 26.8342 34.6201 26.6444 34.337 26.402C34.0539 26.1576 33.8318 25.8744 33.671 25.5527C33.5101 25.2309 33.4297 24.8866 33.4297 24.5199C33.4297 24.1531 33.5101 23.8088 33.671 23.4871C33.8318 23.1653 34.0539 22.8833 34.337 22.6409C34.6201 22.3964 34.9494 22.2055 35.3247 22.0682C35.7001 21.9309 36.1012 21.8623 36.5281 21.8623C37.1029 21.8623 37.6252 21.9835 38.0949 22.2259C38.5668 22.4661 38.94 22.7889 39.2146 23.1943L37.6316 24.0726C37.5522 23.8002 37.4042 23.5793 37.1876 23.4099C36.971 23.2383 36.7511 23.1525 36.5281 23.1525C36.3393 23.1525 36.1559 23.2158 35.9779 23.3423C35.7998 23.4667 35.6529 23.634 35.5371 23.8442C35.4213 24.0544 35.3634 24.2871 35.3634 24.5424C35.3634 24.7977 35.4213 25.0304 35.5371 25.2406C35.6529 25.4508 35.7998 25.6181 35.9779 25.7425C36.1559 25.8669 36.3393 25.9291 36.5281 25.9291C36.7361 25.9291 36.9452 25.854 37.1554 25.7039C37.3656 25.5537 37.5147 25.3553 37.6027 25.1087L39.1341 25.9613C38.8531 26.3323 38.4853 26.6283 38.0305 26.8493C37.5758 27.0681 37.075 27.1775 36.5281 27.1775Z" fill="white"/>
<path d="M45.8661 27.0259H43.939L43.6624 26.5111H41.1689L40.8921 27.0259H38.9648L42.4171 21.6367L45.8661 27.0259ZM42.9061 25.0986L42.4171 24.1913H42.4138L41.928 25.0986H42.9061Z" fill="white"/>
<path d="M47.7704 23.3704C47.7704 23.4626 47.8197 23.5366 47.9184 23.5924C48.0191 23.6482 48.1531 23.6954 48.3207 23.734C48.4901 23.7726 48.6799 23.809 48.89 23.8433C49.0938 23.8777 49.303 23.9174 49.5175 23.9624C49.7341 24.0075 49.9433 24.0664 50.1447 24.1393C50.3465 24.2102 50.5277 24.3024 50.6884 24.4161C50.8516 24.5276 50.9802 24.667 51.0748 24.8343C51.1714 24.9995 51.2194 25.2 51.2194 25.436C51.2194 25.6741 51.1615 25.8864 51.0456 26.073C50.9322 26.2596 50.7797 26.4226 50.589 26.562C50.3979 26.6994 50.1854 26.813 49.952 26.9031C49.7181 26.9932 49.4797 27.0608 49.2377 27.1058C48.9952 27.1509 48.7687 27.1734 48.5587 27.1734C48.0289 27.1734 47.5099 27.1112 47.0015 26.9868C46.4951 26.8624 46.078 26.68 45.75 26.4398L46.7442 25.3105C47.0722 25.5486 47.3853 25.7244 47.6837 25.8382C47.9817 25.9518 48.2316 26.0087 48.4333 26.0087C48.5682 26.0087 48.6993 25.9936 48.8258 25.9636C48.9545 25.9336 49.0593 25.8939 49.1411 25.8446C49.2245 25.7931 49.2664 25.7363 49.2664 25.6741C49.2664 25.584 49.2171 25.5121 49.1185 25.4585C49.0219 25.4049 48.8912 25.3609 48.726 25.3266C48.5608 25.2901 48.3762 25.2558 48.1724 25.2236C47.9665 25.1936 47.7544 25.1571 47.5353 25.1143C47.3187 25.0692 47.1087 25.0113 46.9049 24.9405C46.701 24.8676 46.5177 24.7743 46.3546 24.6606C46.1918 24.5469 46.0607 24.4053 45.9621 24.2359C45.8655 24.0643 45.8174 23.8551 45.8174 23.6085C45.8174 23.3447 45.8967 23.1066 46.0554 22.8942C46.2144 22.6798 46.4244 22.4963 46.6862 22.3441C46.9501 22.1917 47.2427 22.0749 47.5645 21.9934C47.8884 21.9119 48.2155 21.8711 48.546 21.8711C49.2044 21.8711 49.7481 21.9333 50.1772 22.0577C50.6083 22.1821 50.9782 22.3644 51.2868 22.6047L50.2927 23.734C49.9647 23.4959 49.6495 23.32 49.347 23.2063C49.0465 23.0926 48.7987 23.0358 48.6035 23.0358C48.4728 23.0358 48.3429 23.0508 48.2143 23.0808C48.0877 23.1087 47.9817 23.1484 47.8958 23.1999C47.8123 23.2514 47.7704 23.3082 47.7704 23.3704Z" fill="white"/>
<path d="M53.643 22.0195L53.6562 27.0258H51.8191C51.8384 26.2429 51.8552 25.415 51.8704 24.542C51.8684 23.6819 51.8491 22.8411 51.8125 22.0195H53.643Z" fill="white"/>
<path d="M60.4774 27.3184L56.0634 24.722V27.0256H54.5317L54.5156 26.9935V26.9902C54.5177 26.9881 54.5201 26.9774 54.5222 26.958C54.5263 26.9388 54.5308 26.9034 54.5349 26.8519L54.5477 26.6106L54.5608 26.1795L54.5703 25.507L54.5736 24.5418C54.5736 23.6324 54.5662 22.9202 54.551 22.4054C54.5423 22.1609 54.5337 21.9775 54.5255 21.8553L54.5156 21.7266H54.5317L58.9461 24.3423V22.0194H60.4774V27.3184Z" fill="white"/>
<path d="M64.0471 27.1705C63.646 27.1705 63.2695 27.1019 62.9177 26.9646C62.5684 26.8273 62.2606 26.6375 61.9947 26.3952C61.7308 26.1527 61.5237 25.8718 61.3737 25.5522C61.2232 25.2326 61.1484 24.8905 61.1484 24.5258C61.1484 24.159 61.2232 23.8159 61.3737 23.4963C61.5237 23.1767 61.7308 22.8957 61.9947 22.6533C62.2606 22.4109 62.5684 22.2211 62.9177 22.0838C63.2695 21.9466 63.646 21.8779 64.0471 21.8779C64.4462 21.8779 64.8206 21.9466 65.17 22.0838C65.5218 22.2211 65.8308 22.4109 66.0967 22.6533C66.3627 22.8957 66.5706 23.1767 66.721 23.4963C66.871 23.8159 66.9463 24.159 66.9463 24.5258C66.9463 24.8905 66.871 25.2326 66.721 25.5522C66.5706 25.8718 66.3627 26.1527 66.0967 26.3952C65.8308 26.6375 65.5218 26.8273 65.17 26.9646C64.8206 27.1019 64.4462 27.1705 64.0471 27.1705ZM64.0471 25.9286C64.223 25.9286 64.3842 25.8664 64.5296 25.742C64.6755 25.6176 64.7914 25.4514 64.8773 25.2433C64.9632 25.0331 65.006 24.8004 65.006 24.5451C65.006 24.292 64.9632 24.0615 64.8773 23.8534C64.7914 23.6432 64.6755 23.4759 64.5296 23.3515C64.3842 23.2271 64.223 23.1649 64.0471 23.1649C63.8692 23.1649 63.7073 23.2271 63.5614 23.3515C63.4175 23.4759 63.302 23.6432 63.2141 23.8534C63.1282 24.0615 63.0854 24.292 63.0854 24.5451C63.0854 24.8004 63.1282 25.0331 63.2141 25.2433C63.302 25.4514 63.4175 25.6176 63.5614 25.742C63.7073 25.8664 63.8692 25.9286 64.0471 25.9286Z" fill="white"/>
</g>
<defs>
<clipPath id="clip0_8923_108652">
<rect width="100.692" height="26.7143" fill="white" transform="translate(0 0.642578)"/>
</clipPath>
</defs>
</svg>
