<svg width="194" height="36" viewBox="0 0 194 36" fill="none" xmlns="http://www.w3.org/2000/svg">
<g id="Group 570">
<g id="Group 569">
<g id="Sg">
<path id="Vector" d="M72.5435 26.625C69.7244 26.625 67.7769 25.8917 66.701 24.425C65.6334 22.9583 65.0996 20.8292 65.0996 18.0375C65.0996 15.1958 65.6501 13.0625 66.751 11.6375C67.8603 10.2125 69.9163 9.5 72.9189 9.5C75.7296 9.5 77.6688 10.1417 78.7364 11.425C79.8123 12.7083 80.3836 14.1875 80.4504 15.8625H76.1842C76.1091 14.5125 75.8172 13.5958 75.3084 13.1125C74.808 12.6208 74.0115 12.375 72.9189 12.375C71.7929 12.375 70.9213 12.6958 70.3041 13.3375C69.6952 13.9792 69.3908 15.5917 69.3908 18.175C69.3908 20.4083 69.6952 21.8958 70.3041 22.6375C70.9213 23.3708 71.8054 23.7375 72.9564 23.7375C74.024 23.7375 74.7955 23.5292 75.2709 23.1125C75.7463 22.6958 76.0174 21.95 76.0841 20.875L76.0966 20.2875H73.2066V17.775H80.4504V26.525H78.0483L77.5729 24.425C76.8306 25.875 75.1541 26.6083 72.5435 26.625Z" fill="white"/>
<path id="Vector_2" d="M54.5476 26.625C51.5534 26.625 49.5308 26.0875 48.4799 25.0125C47.4373 23.9292 46.916 22.4 46.916 20.425H51.1697C51.1697 21.8667 51.4741 22.7833 52.083 23.175C52.7002 23.5583 53.5092 23.75 54.5101 23.75C55.5193 23.75 56.3283 23.6 56.9372 23.3C57.546 22.9917 57.8505 22.5208 57.8505 21.8875C57.8505 21.1375 57.4334 20.625 56.5994 20.35C55.7653 20.075 54.6143 19.7917 53.1464 19.5C50.8194 19.0083 49.2013 18.4458 48.2922 17.8125C47.3831 17.1792 46.9285 16.1375 46.9285 14.6875C46.9285 13.2625 47.4623 12.0417 48.5299 11.025C49.5975 10.0083 51.5784 9.5 54.4725 9.5C57.3834 9.5 59.3684 10.0542 60.4277 11.1625C61.4869 12.2708 62.0166 13.7542 62.0166 15.6125H57.7629C57.7629 14.2125 57.4459 13.325 56.8121 12.95C56.1865 12.5667 55.39 12.375 54.4225 12.375C53.3966 12.375 52.5751 12.5333 51.9579 12.85C51.349 13.1667 51.0446 13.6167 51.0446 14.2C51.0446 14.9833 51.4699 15.5125 52.3207 15.7875C53.1714 16.0625 54.3224 16.3458 55.7737 16.6375C58.1841 17.1375 59.8313 17.6792 60.7154 18.2625C61.5995 18.8458 62.0416 19.8583 62.0416 21.3C62.0416 22.775 61.5203 24.0333 60.4777 25.075C59.4435 26.1083 57.4668 26.625 54.5476 26.625Z" fill="white"/>
</g>
<g id="casino">
<path id="Vector_3" d="M185.93 26.6625C182.952 26.6625 180.863 25.9417 179.662 24.5C178.469 23.05 177.873 20.9125 177.873 18.0875C177.873 15.2542 178.469 13.1167 179.662 11.675C180.855 10.225 182.944 9.5 185.93 9.5C188.924 9.5 191.018 10.225 192.21 11.675C193.403 13.125 193.999 15.2625 193.999 18.0875C193.999 20.9125 193.403 23.05 192.21 24.5C191.018 25.9417 188.924 26.6625 185.93 26.6625ZM185.93 23.775C187.081 23.775 188.007 23.45 188.707 22.8C189.408 22.1417 189.758 20.5708 189.758 18.0875C189.758 15.5625 189.408 13.9833 188.707 13.35C188.007 12.7083 187.081 12.3875 185.93 12.3875C184.787 12.3875 183.866 12.7083 183.165 13.35C182.473 13.9833 182.127 15.5625 182.127 18.0875C182.127 20.5708 182.473 22.1417 183.165 22.8C183.866 23.45 184.787 23.775 185.93 23.775Z" fill="white"/>
<path id="Vector_4" d="M157.264 26.5254V9.65039H164.032L170.137 23.2879H170.175L170.212 9.65039H174.454V26.5254H167.76L161.555 12.6629H161.505V26.5254H157.264Z" fill="white"/>
<path id="Vector_5" d="M148.893 26.5254V9.65039H153.134V26.5254H148.893Z" fill="white"/>
<path id="Vector_6" d="M137.427 26.625C134.432 26.625 132.41 26.0875 131.359 25.0125C130.316 23.9292 129.795 22.4 129.795 20.425H134.049C134.049 21.8667 134.353 22.7833 134.962 23.175C135.579 23.5583 136.388 23.75 137.389 23.75C138.398 23.75 139.207 23.6 139.816 23.3C140.425 22.9917 140.729 22.5208 140.729 21.8875C140.729 21.1375 140.312 20.625 139.478 20.35C138.644 20.075 137.493 19.7917 136.025 19.5C133.698 19.0083 132.08 18.4458 131.171 17.8125C130.262 17.1792 129.807 16.1375 129.807 14.6875C129.807 13.2625 130.341 12.0417 131.409 11.025C132.476 10.0083 134.457 9.5 137.351 9.5C140.262 9.5 142.247 10.0542 143.307 11.1625C144.366 12.2708 144.895 13.7542 144.895 15.6125H140.642C140.642 14.2125 140.325 13.325 139.691 12.95C139.065 12.5667 138.269 12.375 137.301 12.375C136.276 12.375 135.454 12.5333 134.837 12.85C134.228 13.1667 133.923 13.6167 133.923 14.2C133.923 14.9833 134.349 15.5125 135.2 15.7875C136.05 16.0625 137.201 16.3458 138.653 16.6375C141.063 17.1375 142.71 17.6792 143.594 18.2625C144.478 18.8458 144.92 19.8583 144.92 21.3C144.92 22.775 144.399 24.0333 143.357 25.075C142.322 26.1083 140.346 26.625 137.427 26.625Z" fill="white"/>
<path id="Vector_7" d="M111.035 26.525L116.415 9.625H122.432L127.825 26.525H123.446L122.307 22.4125H116.565L115.414 26.525H111.035ZM117.266 19.6125H121.619L119.455 12.1125H119.417L117.266 19.6125Z" fill="white"/>
<path id="Vector_8" d="M101.827 26.625C98.8166 26.625 96.7523 25.8958 95.6346 24.4375C94.5253 22.9708 93.9707 20.8417 93.9707 18.05C93.9707 15.2417 94.5253 13.1167 95.6346 11.675C96.7523 10.225 98.8124 9.5 101.815 9.5C104.843 9.5 106.861 10.1875 107.87 11.5625C108.879 12.9375 109.384 14.5667 109.384 16.45H105.068C105.068 14.8333 104.784 13.7542 104.217 13.2125C103.658 12.6625 102.849 12.3875 101.79 12.3875C100.714 12.3875 99.8591 12.7042 99.2252 13.3375C98.5914 13.9625 98.2744 15.5333 98.2744 18.05C98.2744 20.575 98.5914 22.1542 99.2252 22.7875C99.8591 23.4208 100.714 23.7375 101.79 23.7375C102.841 23.7375 103.65 23.4583 104.217 22.9C104.784 22.3333 105.068 21.2583 105.068 19.675H109.384C109.384 21.5083 108.875 23.125 107.858 24.525C106.848 25.925 104.838 26.625 101.827 26.625Z" fill="white"/>
</g>
</g>
<g id="Group 568">
<rect id="Rectangle 315" y="0.5" width="35.0303" height="35" rx="7" fill="white"/>
<g id="Group 567">
<g id="Vector 214">
<path d="M7.68319 19L16.0147 19C16.9759 19 17.3836 17.7762 16.6143 17.1998L15.4136 16.3C15.1616 16.1112 15.0133 15.8146 15.0133 15.4997L15.0133 15C15.0133 14.4477 15.461 14 16.0133 14L23.1067 14C23.3717 14 23.626 13.8948 23.8135 13.7074L27.3165 10.2074C27.9469 9.57757 27.5008 8.5 26.6097 8.5L14.4264 8.5C14.1613 8.5 13.9071 8.60524 13.7196 8.79259L6.47235 16.0336C6.18917 16.3165 6.10201 16.741 6.25078 17.1126L6.75483 18.3717C6.90676 18.7512 7.2744 19 7.68319 19Z" fill="#181438"/>
<path d="M7.68319 19L16.0147 19C16.9759 19 17.3836 17.7762 16.6143 17.1998L15.4136 16.3C15.1616 16.1112 15.0133 15.8146 15.0133 15.4997L15.0133 15C15.0133 14.4477 15.461 14 16.0133 14L23.1067 14C23.3717 14 23.626 13.8948 23.8135 13.7074L27.3165 10.2074C27.9469 9.57757 27.5008 8.5 26.6097 8.5L14.4264 8.5C14.1613 8.5 13.9071 8.60524 13.7196 8.79259L6.47235 16.0336C6.18917 16.3165 6.10201 16.741 6.25078 17.1126L6.75483 18.3717C6.90676 18.7512 7.2744 19 7.68319 19Z" fill="#181438"/>
</g>
<g id="Vector 215">
<path d="M27.3481 17.5L19.0166 17.5C18.0554 17.5 17.6477 18.7238 18.4169 19.3002L19.6176 20.2C19.8696 20.3888 20.018 20.6854 20.018 21.0003V21.5C20.018 22.0523 19.5702 22.5 19.018 22.5H11.9246C11.6595 22.5 11.4053 22.6052 11.2178 22.7926L7.71475 26.2926C7.08436 26.9224 7.53043 28 8.42155 28H20.6049C20.8699 28 21.1242 27.8948 21.3117 27.7074L28.5589 20.4664C28.8421 20.1835 28.9292 19.759 28.7805 19.3874L28.2764 18.1283C28.1245 17.7488 27.7569 17.5 27.3481 17.5Z" fill="#181438"/>
<path d="M27.3481 17.5L19.0166 17.5C18.0554 17.5 17.6477 18.7238 18.4169 19.3002L19.6176 20.2C19.8696 20.3888 20.018 20.6854 20.018 21.0003V21.5C20.018 22.0523 19.5702 22.5 19.018 22.5H11.9246C11.6595 22.5 11.4053 22.6052 11.2178 22.7926L7.71475 26.2926C7.08436 26.9224 7.53043 28 8.42155 28H20.6049C20.8699 28 21.1242 27.8948 21.3117 27.7074L28.5589 20.4664C28.8421 20.1835 28.9292 19.759 28.7805 19.3874L28.2764 18.1283C28.1245 17.7488 27.7569 17.5 27.3481 17.5Z" fill="#181438"/>
</g>
</g>
</g>
</g>
</svg>
