<svg width="118" height="28" viewBox="0 0 118 28" fill="none" xmlns="http://www.w3.org/2000/svg">
<path d="M12.6752 7.49401C12.7345 6.84158 12.5764 6.33084 12.2007 5.96179C11.8251 5.58615 11.1924 5.39833 10.3027 5.39833C9.73597 5.39833 9.26148 5.46423 8.87924 5.59603C8.5036 5.72784 8.21034 5.90907 7.99945 6.13973C7.79515 6.37038 7.66664 6.63729 7.61392 6.94044C7.55461 7.17768 7.55791 7.39516 7.62381 7.59287C7.6963 7.78398 7.8314 7.95862 8.02911 8.11679C8.2334 8.27495 8.50031 8.41664 8.82982 8.54186C9.16592 8.66707 9.56462 8.7791 10.0259 8.87796L11.6076 9.23383C12.6884 9.47108 13.5945 9.78411 14.3261 10.1729C15.0642 10.5552 15.6441 11.0099 16.0659 11.5371C16.4876 12.0643 16.7644 12.6541 16.8962 13.3066C17.0346 13.959 17.0379 14.6707 16.9061 15.4418C16.682 16.773 16.1647 17.9 15.3541 18.8226C14.5435 19.7452 13.4858 20.4471 12.1809 20.9282C10.8761 21.4092 9.36692 21.6498 7.65346 21.6498C5.90047 21.6498 4.41108 21.3895 3.1853 20.8688C1.96611 20.3416 1.08303 19.5376 0.536039 18.4568C-0.00435803 17.3694 -0.136162 15.9822 0.140627 14.2951H5.36007C5.28099 14.9146 5.34689 15.4352 5.55778 15.857C5.76866 16.2788 6.10806 16.5984 6.57596 16.8159C7.04387 17.0333 7.6271 17.1421 8.32567 17.1421C8.91878 17.1421 9.42623 17.0696 9.848 16.9246C10.2698 16.7796 10.6026 16.5786 10.8464 16.3216C11.0903 16.0646 11.2385 15.7713 11.2913 15.4418C11.344 15.1387 11.2913 14.8685 11.1331 14.6312C10.9749 14.394 10.6883 14.1798 10.2731 13.9887C9.85789 13.7975 9.28784 13.6229 8.56291 13.4647L6.62539 13.0298C4.90535 12.6344 3.60708 11.9819 2.73058 11.0725C1.85408 10.163 1.54434 8.9175 1.80136 7.33585C2.01225 6.04417 2.54276 4.91724 3.39289 3.95507C4.24962 2.98631 5.33701 2.23503 6.65505 1.70122C7.97968 1.16082 9.446 0.890625 11.054 0.890625C12.6884 0.890625 14.0559 1.16412 15.1564 1.71111C16.2636 2.25809 17.0577 3.02585 17.5388 4.01438C18.0265 5.00291 18.1583 6.16279 17.9342 7.49401H12.6752Z" fill="#EE2222"/>
<path d="M29.0403 14.7696L30.4638 6.22869H35.9205L33.3899 21.4125H28.21L28.6845 18.526H28.5263C28.0584 19.4948 27.3598 20.2527 26.4306 20.7996C25.508 21.34 24.4799 21.6102 23.3464 21.6102C22.2854 21.6102 21.399 21.3664 20.6872 20.8787C19.9755 20.391 19.4714 19.7188 19.1748 18.8621C18.8782 18.0054 18.8189 17.0235 18.9969 15.9163L20.6181 6.22869H26.0747L24.6513 14.7696C24.5392 15.5209 24.6348 16.1107 24.9379 16.5391C25.2477 16.9674 25.7452 17.1816 26.4306 17.1816C26.8853 17.1816 27.2939 17.0861 27.6564 16.8949C28.0254 16.6972 28.3286 16.4204 28.5658 16.0646C28.8097 15.7021 28.9678 15.2705 29.0403 14.7696Z" fill="#EE2222"/>
<path d="M35.2557 27.1065L38.7551 6.22869H44.1723L43.7373 8.87796H43.8559C44.1327 8.36392 44.4952 7.89272 44.9433 7.46436C45.3981 7.0294 45.9319 6.68342 46.5448 6.4264C47.1642 6.16279 47.8496 6.03099 48.6009 6.03099C49.6026 6.03099 50.5088 6.29789 51.3194 6.8317C52.13 7.3655 52.7264 8.20576 53.1086 9.35245C53.4908 10.4991 53.5304 11.9885 53.2272 13.8206C52.9373 15.5736 52.4199 17.0267 51.6752 18.18C50.9371 19.3333 50.0672 20.1933 49.0655 20.7601C48.0704 21.3269 47.0324 21.6102 45.9516 21.6102C45.2399 21.6102 44.6237 21.4949 44.1031 21.2643C43.5825 21.027 43.164 20.7074 42.8476 20.3054C42.5313 19.8968 42.3138 19.4355 42.1952 18.9214H42.0766L40.7322 27.1065H35.2557ZM42.8279 13.8206C42.7093 14.5587 42.6994 15.198 42.7982 15.7384C42.9037 16.2722 43.1113 16.6874 43.421 16.9839C43.7373 17.2739 44.1459 17.4189 44.6468 17.4189C45.1476 17.4189 45.5958 17.2772 45.9912 16.9938C46.3866 16.7038 46.7227 16.2919 46.9995 15.7581C47.2763 15.2177 47.4806 14.5719 47.6124 13.8206C47.731 13.0693 47.7409 12.4268 47.642 11.893C47.5432 11.3526 47.3422 10.9407 47.039 10.6573C46.7359 10.3673 46.3339 10.2224 45.833 10.2224C45.3322 10.2224 44.8741 10.3673 44.459 10.6573C44.0504 10.9407 43.7044 11.3526 43.421 11.893C43.1442 12.4268 42.9465 13.0693 42.8279 13.8206Z" fill="#EE2222"/>
<path d="M58.4343 21.6498C57.4721 21.6498 56.6451 21.4916 55.9531 21.1753C55.2677 20.8524 54.7669 20.3647 54.4505 19.7123C54.1408 19.0532 54.0716 18.2229 54.2429 17.2212C54.3813 16.3908 54.6417 15.6823 55.0239 15.0958C55.4061 14.5093 55.8806 14.0282 56.4474 13.6526C57.0141 13.2769 57.6501 12.9902 58.3552 12.7925C59.067 12.5882 59.8183 12.4564 60.6091 12.3971C61.4658 12.3312 62.1611 12.2488 62.6949 12.15C63.2287 12.0511 63.6274 11.916 63.891 11.7447C64.1546 11.5734 64.3128 11.3427 64.3655 11.0527V11.0132C64.4248 10.6178 64.3194 10.3146 64.0492 10.1037C63.7856 9.89285 63.4165 9.78741 62.942 9.78741C62.428 9.78741 61.9831 9.89944 61.6075 10.1235C61.2384 10.3476 60.9847 10.6969 60.8463 11.1713H55.8246C56.0355 10.2487 56.4671 9.39858 57.1196 8.62094C57.7786 7.8367 58.6518 7.21063 59.7392 6.74273C60.8332 6.26824 62.138 6.03099 63.6538 6.03099C64.7346 6.03099 65.6835 6.1595 66.5007 6.41652C67.3179 6.66694 67.9934 7.01952 68.5272 7.47424C69.0676 7.92238 69.4465 8.44959 69.664 9.05589C69.8881 9.6556 69.9408 10.308 69.8222 11.0132L68.0824 21.4125H62.9816L63.3374 19.2773H63.2188C62.8234 19.8441 62.3786 20.3021 61.8843 20.6514C61.3966 21.0006 60.8628 21.2544 60.2829 21.4125C59.7095 21.5707 59.0933 21.6498 58.4343 21.6498ZM60.8068 18.2097C61.2154 18.2097 61.6174 18.124 62.0128 17.9527C62.4082 17.7813 62.7476 17.5342 63.031 17.2113C63.3144 16.8884 63.4956 16.4962 63.5747 16.0349L63.7724 14.7696C63.6274 14.8289 63.4659 14.8849 63.288 14.9377C63.1167 14.9838 62.9354 15.0299 62.7443 15.076C62.5598 15.1222 62.3621 15.165 62.1512 15.2046C61.9469 15.2441 61.736 15.2836 61.5185 15.3232C61.0836 15.3891 60.7178 15.4978 60.4213 15.6494C60.1247 15.7944 59.894 15.9756 59.7293 16.1931C59.5645 16.404 59.4624 16.6412 59.4228 16.9048C59.3635 17.32 59.4591 17.6429 59.7095 17.8736C59.9665 18.0977 60.3323 18.2097 60.8068 18.2097Z" fill="#EE2222"/>
<path d="M70.6105 21.4125L73.9715 1.16741H82.7497C84.2918 1.16741 85.5538 1.37501 86.5358 1.79019C87.5243 2.20537 88.2229 2.7919 88.6315 3.54977C89.0467 4.30765 89.1686 5.20062 88.9972 6.22869C88.8654 6.9668 88.582 7.64229 88.1471 8.25518C87.7187 8.86148 87.175 9.37552 86.516 9.79729C85.8636 10.2125 85.1354 10.4991 84.3314 10.6573L84.2918 10.855C85.1617 10.8814 85.9196 11.0989 86.5654 11.5074C87.2113 11.9095 87.6858 12.4696 87.9889 13.188C88.2921 13.8997 88.3646 14.7301 88.2064 15.6791C88.0219 16.7862 87.5704 17.7714 86.8521 18.6348C86.1338 19.4981 85.2013 20.1769 84.0546 20.6711C82.9079 21.1654 81.603 21.4125 80.14 21.4125H70.6105ZM76.8581 17.0235H79.4282C80.3377 17.0235 81.0527 16.8488 81.5734 16.4995C82.1006 16.1503 82.4136 15.6395 82.5125 14.9673C82.5915 14.4928 82.552 14.0908 82.3938 13.7613C82.2357 13.4318 81.9688 13.1814 81.5931 13.01C81.2175 12.8387 80.7463 12.753 80.1795 12.753H77.5303L76.8581 17.0235ZM78.1234 9.35245H80.3772C80.8517 9.35245 81.2867 9.27666 81.6821 9.12509C82.0775 8.97352 82.4037 8.75274 82.6607 8.46277C82.9178 8.1728 83.0792 7.82352 83.1451 7.41493C83.244 6.78227 83.0924 6.30119 82.6904 5.97168C82.295 5.64217 81.7612 5.47741 81.089 5.47741H78.756L78.1234 9.35245Z" fill="#161616"/>
<path d="M96.52 21.6893C94.8988 21.6893 93.5544 21.3796 92.4867 20.7601C91.4191 20.134 90.6678 19.2378 90.2329 18.0713C89.7979 16.8982 89.7189 15.4945 89.9957 13.8602C90.2593 12.2917 90.8029 10.9209 91.6267 9.74786C92.4571 8.57481 93.5016 7.66206 94.7604 7.00963C96.0257 6.3572 97.4426 6.03099 99.011 6.03099C100.158 6.03099 101.163 6.20892 102.026 6.56479C102.896 6.92067 103.604 7.438 104.151 8.11679C104.698 8.79558 105.067 9.61606 105.259 10.5782C105.456 11.5338 105.456 12.6146 105.259 13.8206L105.061 15.0859H91.4982L91.9727 12.0808H100.514C100.58 11.6458 100.537 11.2636 100.385 10.9341C100.24 10.598 100.006 10.3377 99.6833 10.1532C99.3669 9.96205 98.9847 9.86649 98.5366 9.86649C98.0884 9.86649 97.6666 9.96205 97.2712 10.1532C96.8824 10.3443 96.5496 10.6112 96.2728 10.9539C96.0026 11.2966 95.8214 11.6986 95.7291 12.1599L95.136 15.3232C95.0569 15.8109 95.0866 16.2458 95.225 16.628C95.3634 17.0103 95.6039 17.3101 95.9466 17.5276C96.2893 17.7451 96.7308 17.8538 97.2712 17.8538C97.6403 17.8538 97.9896 17.8044 98.3191 17.7055C98.6552 17.6001 98.9517 17.4485 99.2088 17.2508C99.4724 17.0465 99.6833 16.7994 99.8414 16.5094H104.824C104.468 17.5639 103.904 18.4799 103.133 19.2575C102.369 20.0286 101.426 20.6283 100.306 21.0567C99.1923 21.4784 97.9303 21.6893 96.52 21.6893Z" fill="#161616"/>
<path d="M117.805 6.22869L117.133 10.1828H107.129L107.802 6.22869H117.805ZM110.332 2.5909H115.789L113.476 16.5292C113.443 16.7401 113.449 16.918 113.496 17.063C113.542 17.2014 113.634 17.3068 113.772 17.3793C113.917 17.4452 114.108 17.4782 114.346 17.4782C114.504 17.4782 114.698 17.4584 114.929 17.4189C115.16 17.3727 115.334 17.3398 115.453 17.32L115.611 21.1555C115.334 21.2346 114.962 21.3236 114.494 21.4224C114.033 21.5279 113.495 21.5971 112.883 21.63C111.604 21.6893 110.563 21.5542 109.759 21.2247C108.961 20.8952 108.408 20.3812 108.098 19.6826C107.795 18.9774 107.742 18.0977 107.94 17.0432L110.332 2.5909Z" fill="#161616"/>
</svg>
