<svg width="154" height="16" viewBox="0 0 154 16" fill="none" xmlns="http://www.w3.org/2000/svg">
<path d="M5.33035 4.4021L3.6512 0.741137H9.59659L16.7037 15.2581H10.3288L9.2549 12.9346H3.53404L2.46993 15.2581H0L5.33035 4.4021ZM8.22983 10.6989L6.39447 6.71582L4.56888 10.6989H8.22983Z" fill="white"/>
<path d="M18.6953 0.741137H24.338V6.82321H28.5067V0.741137H34.1592L34.1494 15.2483H28.5067V9.05883H24.338V15.2483H18.6953V0.741137Z" fill="white"/>
<path d="M40.417 2.967H36.2777V0.731375H50.1991V2.967H46.0597V15.2483H40.417V2.967Z" fill="white"/>
<path d="M52.3175 0.741137H57.97L57.9603 15.2483H52.3175V0.741137Z" fill="white"/>
<path d="M66.9125 8.00448C66.9125 7.31459 67.0004 6.65074 67.1761 6.01292C67.3584 5.36859 67.622 4.76982 67.9669 4.21661C68.3118 3.6634 68.7349 3.159 69.236 2.70341C69.7372 2.24782 70.3067 1.85732 70.9445 1.5319C71.5888 1.20649 72.2982 0.955913 73.0727 0.780187C73.8472 0.597953 74.6803 0.506836 75.5719 0.506836C76.1447 0.506836 76.6914 0.542632 77.212 0.614224C77.7392 0.685816 78.2339 0.786696 78.696 0.916863C79.158 1.04052 79.5843 1.18696 79.9748 1.35618C80.3719 1.51889 80.7298 1.69136 81.0487 1.87359L80.2091 3.5137C79.8447 3.33798 79.4281 3.19154 78.9595 3.07439C78.4974 2.95073 78.0158 2.8889 77.5147 2.8889C76.8443 2.8889 76.2228 3.0093 75.65 3.25011C75.0773 3.49092 74.5827 3.83261 74.1661 4.27518C73.7496 4.71775 73.4209 5.25469 73.1801 5.886C72.9458 6.51081 72.8287 7.21371 72.8287 7.99472C72.8287 8.76921 72.9458 9.47212 73.1801 10.1034C73.4144 10.7282 73.7366 11.2652 74.1466 11.7142C74.5631 12.1568 75.0545 12.5018 75.6207 12.7491C76.1935 12.9899 76.8118 13.1103 77.4756 13.1103V8.19973H83.1672L82.1519 10.0449V13.9889L82.1617 14.0084C81.8428 14.1972 81.449 14.3794 80.9804 14.5552C80.5118 14.7309 79.9879 14.8903 79.4086 15.0335C78.8359 15.1702 78.2241 15.2808 77.5733 15.3654C76.9224 15.4501 76.2553 15.4924 75.5719 15.4924C74.2377 15.4924 73.0337 15.2971 71.9598 14.9066C70.8924 14.5096 69.9845 13.9727 69.236 13.2958C68.4876 12.6124 67.9116 11.8184 67.5081 10.9137C67.1111 10.0025 66.9125 9.0328 66.9125 8.00448Z" fill="white"/>
<path d="M89.3664 4.4021L87.6873 0.741137H93.6327L100.74 15.2581H94.3649L93.291 12.9346H87.5701L86.506 15.2581H84.0361L89.3664 4.4021ZM92.2659 10.6989L90.4305 6.71582L88.6049 10.6989H92.2659Z" fill="white"/>
<path d="M102.731 0.741137H106.724L112.211 8.33641L117.424 0.741137H121.31V15.2483H115.677V7.83851L110.268 15.4338L104.879 7.83851V15.2483H102.731V0.741137Z" fill="white"/>
<path d="M125.029 0.741137H137.291V2.97676H130.682L130.672 6.89155H135.729V9.12717H130.672V13.0127H137.291V15.2483H125.029V0.741137Z" fill="white"/>
<path d="M140.395 12.0267C141.085 12.3781 141.808 12.6417 142.563 12.8174C143.318 12.9931 144.02 13.081 144.671 13.081C145.42 13.081 145.966 12.9736 146.311 12.7588C146.663 12.5441 146.839 12.2512 146.839 11.8802C146.839 11.7631 146.816 11.6427 146.77 11.519C146.731 11.3953 146.65 11.2749 146.526 11.1578C146.409 11.0341 146.243 10.9137 146.028 10.7966C145.82 10.6729 145.547 10.5525 145.208 10.4354L143.461 9.83984C142.211 9.41029 141.271 8.83104 140.639 8.1021C140.008 7.36666 139.692 6.49454 139.692 5.48574C139.692 4.8349 139.829 4.2101 140.102 3.61133C140.376 3.00605 140.789 2.47562 141.342 2.02003C141.895 1.55794 142.592 1.19021 143.431 0.916863C144.278 0.643512 145.267 0.506836 146.399 0.506836C146.959 0.506836 147.496 0.539378 148.01 0.604461C148.524 0.669545 149.006 0.754154 149.455 0.858288C149.911 0.962422 150.327 1.08283 150.705 1.2195C151.082 1.34967 151.414 1.47984 151.7 1.61L150.646 3.5137C150.438 3.38354 150.216 3.26964 149.982 3.17201C149.754 3.07439 149.523 2.99303 149.289 2.92795C149.061 2.86287 148.837 2.81405 148.615 2.78151C148.394 2.74897 148.192 2.7327 148.01 2.7327C147.698 2.7327 147.424 2.775 147.19 2.85961C146.956 2.93771 146.757 3.0451 146.595 3.18178C146.438 3.31194 146.318 3.46164 146.233 3.63085C146.155 3.79356 146.116 3.95627 146.116 4.11898C146.116 4.26217 146.149 4.4021 146.214 4.53877C146.285 4.66894 146.403 4.79911 146.565 4.92927C146.734 5.05293 146.952 5.17985 147.219 5.31001C147.493 5.43367 147.831 5.56384 148.235 5.70052L149.406 6.09102C150.675 6.51406 151.645 7.09656 152.315 7.83851C152.986 8.58047 153.321 9.47862 153.321 10.533C153.321 11.2489 153.158 11.9095 152.833 12.5148C152.514 13.1201 152.036 13.644 151.398 14.0866C150.76 14.5226 149.966 14.8643 149.016 15.1116C148.072 15.3524 146.975 15.4728 145.726 15.4728C145.127 15.4728 144.548 15.4403 143.988 15.3752C143.435 15.3166 142.891 15.2255 142.358 15.1019C141.83 14.9782 141.31 14.822 140.796 14.6333C140.281 14.4445 139.767 14.2232 139.253 13.9694L140.395 12.0267Z" fill="white"/>
</svg>
