<svg width="185" height="44" viewBox="0 0 185 44" fill="none" xmlns="http://www.w3.org/2000/svg">
<mask id="path-1-outside-1_1234_11457" maskUnits="userSpaceOnUse" x="0" y="0" width="185" height="44" fill="black">
<rect fill="white" width="185" height="44"/>
<path d="M21.2534 24.7562C19.7712 23.7511 18.2732 23.2485 16.7594 23.2485C15.9394 23.2485 15.1668 23.3899 14.4414 23.6726C13.7476 23.9552 13.1326 24.3636 12.5965 24.8975C12.0603 25.4001 11.6346 26.0126 11.3192 26.735C11.0354 27.426 10.8935 28.2112 10.8935 29.0907C10.8935 29.9387 11.0354 30.724 11.3192 31.4464C11.6346 32.1374 12.0446 32.7499 12.5492 33.2839C13.0853 33.7864 13.716 34.179 14.4414 34.4617C15.1668 34.7444 15.9394 34.8857 16.7594 34.8857C18.3678 34.8857 19.8658 34.3361 21.2534 33.2367V40.4923C19.1404 41.4032 17.1378 41.8587 15.2456 41.8587C13.4795 41.8587 11.7923 41.5603 10.1839 40.9635C8.60703 40.3667 7.20363 39.5187 5.97368 38.4193C4.77527 37.2886 3.81339 35.9537 3.08803 34.4146C2.36268 32.8441 2 31.1009 2 29.1849C2 27.2689 2.34691 25.5257 3.04073 23.9552C3.73454 22.3534 4.68066 20.987 5.87907 19.8563C7.07748 18.6941 8.49665 17.799 10.1366 17.1708C11.808 16.5112 13.5899 16.1814 15.4821 16.1814C17.5636 16.1814 19.4873 16.6211 21.2534 17.5006V24.7562Z"/>
<path d="M24.9728 2H33.5352V19.9976C34.702 18.5842 35.8847 17.6419 37.0831 17.1708C38.2815 16.6682 39.6849 16.417 41.2933 16.417C44.3524 16.417 46.6546 17.265 48.1999 18.9611C49.7768 20.6258 50.5652 22.8873 50.5652 25.7456V41.1048H42.0029V28.9022C42.0029 27.6773 41.9083 26.6879 41.719 25.934C41.5298 25.1802 41.2145 24.5991 40.7729 24.1908C40.016 23.5312 39.1015 23.2014 38.0292 23.2014C36.5785 23.2014 35.4589 23.6411 34.6705 24.5206C33.9136 25.3687 33.5352 26.5936 33.5352 28.1955V41.1048H24.9728V2Z"/>
<path d="M61.9688 28.9494C61.9688 29.7346 62.1108 30.4727 62.3946 31.1637C62.6784 31.8233 63.0569 32.4044 63.5299 32.9069C64.0345 33.4095 64.618 33.8021 65.2802 34.0848C65.9741 34.3675 66.7152 34.5088 67.5036 34.5088C68.2605 34.5088 68.9701 34.3675 69.6324 34.0848C70.3262 33.8021 70.9096 33.4095 71.3827 32.9069C71.8873 32.4044 72.2815 31.8233 72.5653 31.1637C72.8807 30.5041 73.0384 29.7974 73.0384 29.0436C73.0384 28.2898 72.8807 27.583 72.5653 26.9234C72.2815 26.2324 71.8873 25.6356 71.3827 25.1331C70.9096 24.6305 70.3262 24.2379 69.6324 23.9552C68.9701 23.6726 68.2605 23.5312 67.5036 23.5312C66.7152 23.5312 65.9741 23.6726 65.2802 23.9552C64.618 24.2379 64.0345 24.6305 63.5299 25.1331C63.0569 25.6356 62.6784 26.2167 62.3946 26.8763C62.1108 27.5045 61.9688 28.1955 61.9688 28.9494ZM72.7545 16.9352H81.3642V41.1048H72.7545V38.4193C70.9254 40.7122 68.4497 41.8587 65.3275 41.8587C63.5615 41.8587 61.9373 41.5446 60.4551 40.9164C58.9728 40.2568 57.6798 39.3459 56.576 38.1837C55.4722 37.0216 54.6049 35.6553 53.9742 34.0848C53.375 32.5143 53.0754 30.8025 53.0754 28.9494C53.0754 27.2218 53.375 25.5885 53.9742 24.0495C54.5734 22.479 55.4091 21.1127 56.4814 19.9505C57.5536 18.7884 58.8309 17.8775 60.3131 17.2179C61.7954 16.5269 63.4353 16.1814 65.2329 16.1814C68.2605 16.1814 70.7677 17.2336 72.7545 19.338V16.9352Z"/>
<path d="M84.8256 16.9352H93.388V19.9976C94.5548 18.5842 95.7375 17.6419 96.9359 17.1708C98.1343 16.6682 99.5377 16.417 101.146 16.417C102.849 16.417 104.3 16.6996 105.498 17.265C106.728 17.799 107.769 18.5685 108.62 19.5736C109.314 20.3903 109.787 21.3011 110.04 22.3062C110.292 23.3113 110.418 24.4578 110.418 25.7456V41.1048H101.856V28.9022C101.856 27.7087 101.761 26.7507 101.572 26.0283C101.414 25.2744 101.115 24.6777 100.673 24.2379C100.295 23.861 99.8688 23.594 99.3958 23.437C98.9227 23.2799 98.4181 23.2014 97.882 23.2014C96.4313 23.2014 95.3117 23.6411 94.5233 24.5206C93.7664 25.3687 93.388 26.5936 93.388 28.1955V41.1048H84.8256V16.9352Z"/>
<path d="M132.182 24.7562C130.699 23.7511 129.201 23.2485 127.688 23.2485C126.868 23.2485 126.095 23.3899 125.37 23.6726C124.676 23.9552 124.061 24.3636 123.525 24.8975C122.989 25.4001 122.563 26.0126 122.247 26.735C121.964 27.426 121.822 28.2112 121.822 29.0907C121.822 29.9387 121.964 30.724 122.247 31.4464C122.563 32.1374 122.973 32.7499 123.477 33.2839C124.013 33.7864 124.644 34.179 125.37 34.4617C126.095 34.7444 126.868 34.8857 127.688 34.8857C129.296 34.8857 130.794 34.3361 132.182 33.2367V40.4923C130.069 41.4032 128.066 41.8587 126.174 41.8587C124.408 41.8587 122.72 41.5603 121.112 40.9635C119.535 40.3667 118.132 39.5187 116.902 38.4193C115.703 37.2886 114.742 35.9537 114.016 34.4146C113.291 32.8441 112.928 31.1009 112.928 29.1849C112.928 27.2689 113.275 25.5257 113.969 23.9552C114.663 22.3534 115.609 20.987 116.807 19.8563C118.006 18.6941 119.425 17.799 121.065 17.1708C122.736 16.5112 124.518 16.1814 126.41 16.1814C128.492 16.1814 130.415 16.6211 132.182 17.5006V24.7562Z"/>
<path d="M152.44 25.51C152.156 24.3165 151.572 23.3585 150.689 22.636C149.806 21.9136 148.734 21.5524 147.472 21.5524C146.148 21.5524 145.06 21.8979 144.208 22.5889C143.388 23.2799 142.868 24.2536 142.647 25.51H152.44ZM142.411 30.457C142.411 34.1319 144.145 35.9694 147.614 35.9694C149.475 35.9694 150.878 35.2155 151.825 33.7079H160.103C158.432 39.236 154.253 42 147.567 42C145.517 42 143.641 41.7016 141.938 41.1048C140.235 40.4766 138.768 39.5972 137.538 38.4664C136.34 37.3357 135.409 35.9851 134.747 34.4146C134.085 32.8441 133.754 31.0852 133.754 29.1378C133.754 27.1276 134.069 25.3216 134.7 23.7197C135.331 22.0864 136.229 20.7044 137.396 19.5736C138.563 18.4429 139.967 17.5791 141.607 16.9823C143.278 16.3541 145.154 16.04 147.236 16.04C149.286 16.04 151.131 16.3541 152.771 16.9823C154.411 17.5791 155.798 18.4586 156.934 19.6207C158.069 20.7829 158.936 22.212 159.535 23.9081C160.135 25.5728 160.434 27.4574 160.434 29.5618V30.457H142.411Z"/>
<path d="M179.047 23.1543C177.47 22.3377 175.925 21.9293 174.411 21.9293C173.623 21.9293 172.976 22.0864 172.472 22.4005C171.999 22.7146 171.762 23.1386 171.762 23.6726C171.762 23.9552 171.794 24.1908 171.857 24.3793C171.951 24.5363 172.125 24.6934 172.377 24.8504C172.661 25.0075 173.055 25.1488 173.56 25.2744C174.096 25.4001 174.79 25.5571 175.641 25.7456C178.006 26.2167 179.772 27.0648 180.939 28.2898C182.106 29.4833 182.69 31.0224 182.69 32.9069C182.69 34.3204 182.406 35.5925 181.838 36.7232C181.27 37.8539 180.482 38.8119 179.473 39.5972C178.464 40.351 177.249 40.9321 175.83 41.3404C174.411 41.7801 172.85 42 171.147 42C167.867 42 164.635 41.0734 161.449 39.2203L164.572 33.1896C166.968 34.8229 169.239 35.6396 171.384 35.6396C172.172 35.6396 172.819 35.4668 173.323 35.1213C173.828 34.7758 174.08 34.3361 174.08 33.8021C174.08 33.488 174.033 33.2367 173.938 33.0483C173.875 32.8284 173.717 32.64 173.465 32.4829C173.213 32.2945 172.834 32.1374 172.33 32.0118C171.857 31.8547 171.226 31.6977 170.437 31.5406C167.788 31.0067 165.928 30.2214 164.855 29.1849C163.815 28.117 163.294 26.6565 163.294 24.8033C163.294 23.4527 163.547 22.2434 164.051 21.1755C164.556 20.0762 165.281 19.1496 166.227 18.3958C167.173 17.6419 168.309 17.0609 169.633 16.6525C170.989 16.2442 172.487 16.04 174.127 16.04C176.808 16.04 179.41 16.5583 181.933 17.5948L179.047 23.1543Z"/>
</mask>
<path d="M21.2534 24.7562C19.7712 23.7511 18.2732 23.2485 16.7594 23.2485C15.9394 23.2485 15.1668 23.3899 14.4414 23.6726C13.7476 23.9552 13.1326 24.3636 12.5965 24.8975C12.0603 25.4001 11.6346 26.0126 11.3192 26.735C11.0354 27.426 10.8935 28.2112 10.8935 29.0907C10.8935 29.9387 11.0354 30.724 11.3192 31.4464C11.6346 32.1374 12.0446 32.7499 12.5492 33.2839C13.0853 33.7864 13.716 34.179 14.4414 34.4617C15.1668 34.7444 15.9394 34.8857 16.7594 34.8857C18.3678 34.8857 19.8658 34.3361 21.2534 33.2367V40.4923C19.1404 41.4032 17.1378 41.8587 15.2456 41.8587C13.4795 41.8587 11.7923 41.5603 10.1839 40.9635C8.60703 40.3667 7.20363 39.5187 5.97368 38.4193C4.77527 37.2886 3.81339 35.9537 3.08803 34.4146C2.36268 32.8441 2 31.1009 2 29.1849C2 27.2689 2.34691 25.5257 3.04073 23.9552C3.73454 22.3534 4.68066 20.987 5.87907 19.8563C7.07748 18.6941 8.49665 17.799 10.1366 17.1708C11.808 16.5112 13.5899 16.1814 15.4821 16.1814C17.5636 16.1814 19.4873 16.6211 21.2534 17.5006V24.7562Z" fill="#FFBA37"/>
<path d="M24.9728 2H33.5352V19.9976C34.702 18.5842 35.8847 17.6419 37.0831 17.1708C38.2815 16.6682 39.6849 16.417 41.2933 16.417C44.3524 16.417 46.6546 17.265 48.1999 18.9611C49.7768 20.6258 50.5652 22.8873 50.5652 25.7456V41.1048H42.0029V28.9022C42.0029 27.6773 41.9083 26.6879 41.719 25.934C41.5298 25.1802 41.2145 24.5991 40.7729 24.1908C40.016 23.5312 39.1015 23.2014 38.0292 23.2014C36.5785 23.2014 35.4589 23.6411 34.6705 24.5206C33.9136 25.3687 33.5352 26.5936 33.5352 28.1955V41.1048H24.9728V2Z" fill="#006FBB"/>
<path d="M61.9688 28.9494C61.9688 29.7346 62.1108 30.4727 62.3946 31.1637C62.6784 31.8233 63.0569 32.4044 63.5299 32.9069C64.0345 33.4095 64.618 33.8021 65.2802 34.0848C65.9741 34.3675 66.7152 34.5088 67.5036 34.5088C68.2605 34.5088 68.9701 34.3675 69.6324 34.0848C70.3262 33.8021 70.9096 33.4095 71.3827 32.9069C71.8873 32.4044 72.2815 31.8233 72.5653 31.1637C72.8807 30.5041 73.0384 29.7974 73.0384 29.0436C73.0384 28.2898 72.8807 27.583 72.5653 26.9234C72.2815 26.2324 71.8873 25.6356 71.3827 25.1331C70.9096 24.6305 70.3262 24.2379 69.6324 23.9552C68.9701 23.6726 68.2605 23.5312 67.5036 23.5312C66.7152 23.5312 65.9741 23.6726 65.2802 23.9552C64.618 24.2379 64.0345 24.6305 63.5299 25.1331C63.0569 25.6356 62.6784 26.2167 62.3946 26.8763C62.1108 27.5045 61.9688 28.1955 61.9688 28.9494ZM72.7545 16.9352H81.3642V41.1048H72.7545V38.4193C70.9254 40.7122 68.4497 41.8587 65.3275 41.8587C63.5615 41.8587 61.9373 41.5446 60.4551 40.9164C58.9728 40.2568 57.6798 39.3459 56.576 38.1837C55.4722 37.0216 54.6049 35.6553 53.9742 34.0848C53.375 32.5143 53.0754 30.8025 53.0754 28.9494C53.0754 27.2218 53.375 25.5885 53.9742 24.0495C54.5734 22.479 55.4091 21.1127 56.4814 19.9505C57.5536 18.7884 58.8309 17.8775 60.3131 17.2179C61.7954 16.5269 63.4353 16.1814 65.2329 16.1814C68.2605 16.1814 70.7677 17.2336 72.7545 19.338V16.9352Z" fill="#F2502A"/>
<path d="M84.8256 16.9352H93.388V19.9976C94.5548 18.5842 95.7375 17.6419 96.9359 17.1708C98.1343 16.6682 99.5377 16.417 101.146 16.417C102.849 16.417 104.3 16.6996 105.498 17.265C106.728 17.799 107.769 18.5685 108.62 19.5736C109.314 20.3903 109.787 21.3011 110.04 22.3062C110.292 23.3113 110.418 24.4578 110.418 25.7456V41.1048H101.856V28.9022C101.856 27.7087 101.761 26.7507 101.572 26.0283C101.414 25.2744 101.115 24.6777 100.673 24.2379C100.295 23.861 99.8688 23.594 99.3958 23.437C98.9227 23.2799 98.4181 23.2014 97.882 23.2014C96.4313 23.2014 95.3117 23.6411 94.5233 24.5206C93.7664 25.3687 93.388 26.5936 93.388 28.1955V41.1048H84.8256V16.9352Z" fill="#373C40"/>
<path d="M132.182 24.7562C130.699 23.7511 129.201 23.2485 127.688 23.2485C126.868 23.2485 126.095 23.3899 125.37 23.6726C124.676 23.9552 124.061 24.3636 123.525 24.8975C122.989 25.4001 122.563 26.0126 122.247 26.735C121.964 27.426 121.822 28.2112 121.822 29.0907C121.822 29.9387 121.964 30.724 122.247 31.4464C122.563 32.1374 122.973 32.7499 123.477 33.2839C124.013 33.7864 124.644 34.179 125.37 34.4617C126.095 34.7444 126.868 34.8857 127.688 34.8857C129.296 34.8857 130.794 34.3361 132.182 33.2367V40.4923C130.069 41.4032 128.066 41.8587 126.174 41.8587C124.408 41.8587 122.72 41.5603 121.112 40.9635C119.535 40.3667 118.132 39.5187 116.902 38.4193C115.703 37.2886 114.742 35.9537 114.016 34.4146C113.291 32.8441 112.928 31.1009 112.928 29.1849C112.928 27.2689 113.275 25.5257 113.969 23.9552C114.663 22.3534 115.609 20.987 116.807 19.8563C118.006 18.6941 119.425 17.799 121.065 17.1708C122.736 16.5112 124.518 16.1814 126.41 16.1814C128.492 16.1814 130.415 16.6211 132.182 17.5006V24.7562Z" fill="#373C40"/>
<path d="M152.44 25.51C152.156 24.3165 151.572 23.3585 150.689 22.636C149.806 21.9136 148.734 21.5524 147.472 21.5524C146.148 21.5524 145.06 21.8979 144.208 22.5889C143.388 23.2799 142.868 24.2536 142.647 25.51H152.44ZM142.411 30.457C142.411 34.1319 144.145 35.9694 147.614 35.9694C149.475 35.9694 150.878 35.2155 151.825 33.7079H160.103C158.432 39.236 154.253 42 147.567 42C145.517 42 143.641 41.7016 141.938 41.1048C140.235 40.4766 138.768 39.5972 137.538 38.4664C136.34 37.3357 135.409 35.9851 134.747 34.4146C134.085 32.8441 133.754 31.0852 133.754 29.1378C133.754 27.1276 134.069 25.3216 134.7 23.7197C135.331 22.0864 136.229 20.7044 137.396 19.5736C138.563 18.4429 139.967 17.5791 141.607 16.9823C143.278 16.3541 145.154 16.04 147.236 16.04C149.286 16.04 151.131 16.3541 152.771 16.9823C154.411 17.5791 155.798 18.4586 156.934 19.6207C158.069 20.7829 158.936 22.212 159.535 23.9081C160.135 25.5728 160.434 27.4574 160.434 29.5618V30.457H142.411Z" fill="#373C40"/>
<path d="M179.047 23.1543C177.47 22.3377 175.925 21.9293 174.411 21.9293C173.623 21.9293 172.976 22.0864 172.472 22.4005C171.999 22.7146 171.762 23.1386 171.762 23.6726C171.762 23.9552 171.794 24.1908 171.857 24.3793C171.951 24.5363 172.125 24.6934 172.377 24.8504C172.661 25.0075 173.055 25.1488 173.56 25.2744C174.096 25.4001 174.79 25.5571 175.641 25.7456C178.006 26.2167 179.772 27.0648 180.939 28.2898C182.106 29.4833 182.69 31.0224 182.69 32.9069C182.69 34.3204 182.406 35.5925 181.838 36.7232C181.27 37.8539 180.482 38.8119 179.473 39.5972C178.464 40.351 177.249 40.9321 175.83 41.3404C174.411 41.7801 172.85 42 171.147 42C167.867 42 164.635 41.0734 161.449 39.2203L164.572 33.1896C166.968 34.8229 169.239 35.6396 171.384 35.6396C172.172 35.6396 172.819 35.4668 173.323 35.1213C173.828 34.7758 174.08 34.3361 174.08 33.8021C174.08 33.488 174.033 33.2367 173.938 33.0483C173.875 32.8284 173.717 32.64 173.465 32.4829C173.213 32.2945 172.834 32.1374 172.33 32.0118C171.857 31.8547 171.226 31.6977 170.437 31.5406C167.788 31.0067 165.928 30.2214 164.855 29.1849C163.815 28.117 163.294 26.6565 163.294 24.8033C163.294 23.4527 163.547 22.2434 164.051 21.1755C164.556 20.0762 165.281 19.1496 166.227 18.3958C167.173 17.6419 168.309 17.0609 169.633 16.6525C170.989 16.2442 172.487 16.04 174.127 16.04C176.808 16.04 179.41 16.5583 181.933 17.5948L179.047 23.1543Z" fill="#373C40"/>
<path d="M21.2534 24.7562C19.7712 23.7511 18.2732 23.2485 16.7594 23.2485C15.9394 23.2485 15.1668 23.3899 14.4414 23.6726C13.7476 23.9552 13.1326 24.3636 12.5965 24.8975C12.0603 25.4001 11.6346 26.0126 11.3192 26.735C11.0354 27.426 10.8935 28.2112 10.8935 29.0907C10.8935 29.9387 11.0354 30.724 11.3192 31.4464C11.6346 32.1374 12.0446 32.7499 12.5492 33.2839C13.0853 33.7864 13.716 34.179 14.4414 34.4617C15.1668 34.7444 15.9394 34.8857 16.7594 34.8857C18.3678 34.8857 19.8658 34.3361 21.2534 33.2367V40.4923C19.1404 41.4032 17.1378 41.8587 15.2456 41.8587C13.4795 41.8587 11.7923 41.5603 10.1839 40.9635C8.60703 40.3667 7.20363 39.5187 5.97368 38.4193C4.77527 37.2886 3.81339 35.9537 3.08803 34.4146C2.36268 32.8441 2 31.1009 2 29.1849C2 27.2689 2.34691 25.5257 3.04073 23.9552C3.73454 22.3534 4.68066 20.987 5.87907 19.8563C7.07748 18.6941 8.49665 17.799 10.1366 17.1708C11.808 16.5112 13.5899 16.1814 15.4821 16.1814C17.5636 16.1814 19.4873 16.6211 21.2534 17.5006V24.7562Z" stroke="white" stroke-width="4" mask="url(#path-1-outside-1_1234_11457)"/>
<path d="M24.9728 2H33.5352V19.9976C34.702 18.5842 35.8847 17.6419 37.0831 17.1708C38.2815 16.6682 39.6849 16.417 41.2933 16.417C44.3524 16.417 46.6546 17.265 48.1999 18.9611C49.7768 20.6258 50.5652 22.8873 50.5652 25.7456V41.1048H42.0029V28.9022C42.0029 27.6773 41.9083 26.6879 41.719 25.934C41.5298 25.1802 41.2145 24.5991 40.7729 24.1908C40.016 23.5312 39.1015 23.2014 38.0292 23.2014C36.5785 23.2014 35.4589 23.6411 34.6705 24.5206C33.9136 25.3687 33.5352 26.5936 33.5352 28.1955V41.1048H24.9728V2Z" stroke="white" stroke-width="4" mask="url(#path-1-outside-1_1234_11457)"/>
<path d="M61.9688 28.9494C61.9688 29.7346 62.1108 30.4727 62.3946 31.1637C62.6784 31.8233 63.0569 32.4044 63.5299 32.9069C64.0345 33.4095 64.618 33.8021 65.2802 34.0848C65.9741 34.3675 66.7152 34.5088 67.5036 34.5088C68.2605 34.5088 68.9701 34.3675 69.6324 34.0848C70.3262 33.8021 70.9096 33.4095 71.3827 32.9069C71.8873 32.4044 72.2815 31.8233 72.5653 31.1637C72.8807 30.5041 73.0384 29.7974 73.0384 29.0436C73.0384 28.2898 72.8807 27.583 72.5653 26.9234C72.2815 26.2324 71.8873 25.6356 71.3827 25.1331C70.9096 24.6305 70.3262 24.2379 69.6324 23.9552C68.9701 23.6726 68.2605 23.5312 67.5036 23.5312C66.7152 23.5312 65.9741 23.6726 65.2802 23.9552C64.618 24.2379 64.0345 24.6305 63.5299 25.1331C63.0569 25.6356 62.6784 26.2167 62.3946 26.8763C62.1108 27.5045 61.9688 28.1955 61.9688 28.9494ZM72.7545 16.9352H81.3642V41.1048H72.7545V38.4193C70.9254 40.7122 68.4497 41.8587 65.3275 41.8587C63.5615 41.8587 61.9373 41.5446 60.4551 40.9164C58.9728 40.2568 57.6798 39.3459 56.576 38.1837C55.4722 37.0216 54.6049 35.6553 53.9742 34.0848C53.375 32.5143 53.0754 30.8025 53.0754 28.9494C53.0754 27.2218 53.375 25.5885 53.9742 24.0495C54.5734 22.479 55.4091 21.1127 56.4814 19.9505C57.5536 18.7884 58.8309 17.8775 60.3131 17.2179C61.7954 16.5269 63.4353 16.1814 65.2329 16.1814C68.2605 16.1814 70.7677 17.2336 72.7545 19.338V16.9352Z" stroke="white" stroke-width="4" mask="url(#path-1-outside-1_1234_11457)"/>
<path d="M84.8256 16.9352H93.388V19.9976C94.5548 18.5842 95.7375 17.6419 96.9359 17.1708C98.1343 16.6682 99.5377 16.417 101.146 16.417C102.849 16.417 104.3 16.6996 105.498 17.265C106.728 17.799 107.769 18.5685 108.62 19.5736C109.314 20.3903 109.787 21.3011 110.04 22.3062C110.292 23.3113 110.418 24.4578 110.418 25.7456V41.1048H101.856V28.9022C101.856 27.7087 101.761 26.7507 101.572 26.0283C101.414 25.2744 101.115 24.6777 100.673 24.2379C100.295 23.861 99.8688 23.594 99.3958 23.437C98.9227 23.2799 98.4181 23.2014 97.882 23.2014C96.4313 23.2014 95.3117 23.6411 94.5233 24.5206C93.7664 25.3687 93.388 26.5936 93.388 28.1955V41.1048H84.8256V16.9352Z" stroke="white" stroke-width="4" mask="url(#path-1-outside-1_1234_11457)"/>
<path d="M132.182 24.7562C130.699 23.7511 129.201 23.2485 127.688 23.2485C126.868 23.2485 126.095 23.3899 125.37 23.6726C124.676 23.9552 124.061 24.3636 123.525 24.8975C122.989 25.4001 122.563 26.0126 122.247 26.735C121.964 27.426 121.822 28.2112 121.822 29.0907C121.822 29.9387 121.964 30.724 122.247 31.4464C122.563 32.1374 122.973 32.7499 123.477 33.2839C124.013 33.7864 124.644 34.179 125.37 34.4617C126.095 34.7444 126.868 34.8857 127.688 34.8857C129.296 34.8857 130.794 34.3361 132.182 33.2367V40.4923C130.069 41.4032 128.066 41.8587 126.174 41.8587C124.408 41.8587 122.72 41.5603 121.112 40.9635C119.535 40.3667 118.132 39.5187 116.902 38.4193C115.703 37.2886 114.742 35.9537 114.016 34.4146C113.291 32.8441 112.928 31.1009 112.928 29.1849C112.928 27.2689 113.275 25.5257 113.969 23.9552C114.663 22.3534 115.609 20.987 116.807 19.8563C118.006 18.6941 119.425 17.799 121.065 17.1708C122.736 16.5112 124.518 16.1814 126.41 16.1814C128.492 16.1814 130.415 16.6211 132.182 17.5006V24.7562Z" stroke="white" stroke-width="4" mask="url(#path-1-outside-1_1234_11457)"/>
<path d="M152.44 25.51C152.156 24.3165 151.572 23.3585 150.689 22.636C149.806 21.9136 148.734 21.5524 147.472 21.5524C146.148 21.5524 145.06 21.8979 144.208 22.5889C143.388 23.2799 142.868 24.2536 142.647 25.51H152.44ZM142.411 30.457C142.411 34.1319 144.145 35.9694 147.614 35.9694C149.475 35.9694 150.878 35.2155 151.825 33.7079H160.103C158.432 39.236 154.253 42 147.567 42C145.517 42 143.641 41.7016 141.938 41.1048C140.235 40.4766 138.768 39.5972 137.538 38.4664C136.34 37.3357 135.409 35.9851 134.747 34.4146C134.085 32.8441 133.754 31.0852 133.754 29.1378C133.754 27.1276 134.069 25.3216 134.7 23.7197C135.331 22.0864 136.229 20.7044 137.396 19.5736C138.563 18.4429 139.967 17.5791 141.607 16.9823C143.278 16.3541 145.154 16.04 147.236 16.04C149.286 16.04 151.131 16.3541 152.771 16.9823C154.411 17.5791 155.798 18.4586 156.934 19.6207C158.069 20.7829 158.936 22.212 159.535 23.9081C160.135 25.5728 160.434 27.4574 160.434 29.5618V30.457H142.411Z" stroke="white" stroke-width="4" mask="url(#path-1-outside-1_1234_11457)"/>
<path d="M179.047 23.1543C177.47 22.3377 175.925 21.9293 174.411 21.9293C173.623 21.9293 172.976 22.0864 172.472 22.4005C171.999 22.7146 171.762 23.1386 171.762 23.6726C171.762 23.9552 171.794 24.1908 171.857 24.3793C171.951 24.5363 172.125 24.6934 172.377 24.8504C172.661 25.0075 173.055 25.1488 173.56 25.2744C174.096 25.4001 174.79 25.5571 175.641 25.7456C178.006 26.2167 179.772 27.0648 180.939 28.2898C182.106 29.4833 182.69 31.0224 182.69 32.9069C182.69 34.3204 182.406 35.5925 181.838 36.7232C181.27 37.8539 180.482 38.8119 179.473 39.5972C178.464 40.351 177.249 40.9321 175.83 41.3404C174.411 41.7801 172.85 42 171.147 42C167.867 42 164.635 41.0734 161.449 39.2203L164.572 33.1896C166.968 34.8229 169.239 35.6396 171.384 35.6396C172.172 35.6396 172.819 35.4668 173.323 35.1213C173.828 34.7758 174.08 34.3361 174.08 33.8021C174.08 33.488 174.033 33.2367 173.938 33.0483C173.875 32.8284 173.717 32.64 173.465 32.4829C173.213 32.2945 172.834 32.1374 172.33 32.0118C171.857 31.8547 171.226 31.6977 170.437 31.5406C167.788 31.0067 165.928 30.2214 164.855 29.1849C163.815 28.117 163.294 26.6565 163.294 24.8033C163.294 23.4527 163.547 22.2434 164.051 21.1755C164.556 20.0762 165.281 19.1496 166.227 18.3958C167.173 17.6419 168.309 17.0609 169.633 16.6525C170.989 16.2442 172.487 16.04 174.127 16.04C176.808 16.04 179.41 16.5583 181.933 17.5948L179.047 23.1543Z" stroke="white" stroke-width="4" mask="url(#path-1-outside-1_1234_11457)"/>
</svg>
