<svg width="123" height="48" viewBox="0 0 123 48" fill="none" xmlns="http://www.w3.org/2000/svg">
<path d="M25.3755 26.7269C25.3755 26.7269 25.0654 26.7759 24.4453 26.8738C23.8361 26.9717 23.0582 27.0805 22.1117 27.2002C21.1653 27.3307 20.1753 27.4449 19.1417 27.5429C18.1082 27.6408 17.1672 27.6897 16.3186 27.6897C13.9905 27.6897 11.831 27.3688 9.84013 26.7269C7.86014 26.0851 6.13036 25.1603 4.65081 23.9528C3.18213 22.7452 2.03983 21.2928 1.2239 19.5957C0.407966 17.8986 0 15.9947 0 13.8842C0 11.7736 0.440603 9.88067 1.32181 8.20529C2.20301 6.51903 3.43779 5.08843 5.02614 3.91349C6.61448 2.72767 8.48025 1.82471 10.6234 1.2046C12.7775 0.573611 15.1219 0.258118 17.6568 0.258118C19.0928 0.258118 20.284 0.339711 21.2305 0.502897C22.177 0.655204 22.8842 0.812951 23.352 0.976137C23.8306 1.13932 24.0809 1.22092 24.1026 1.22092V9.10281C22.5034 8.61325 21.0238 8.36847 19.6639 8.36847C17.9233 8.36847 16.4764 8.69485 15.3232 9.34759C14.1809 9.98946 13.3269 10.8054 12.7612 11.7954C12.1955 12.7745 11.9126 13.7699 11.9126 14.7817C11.9126 15.9566 12.2335 16.9194 12.8754 17.6701C13.5281 18.4207 14.4202 18.7961 15.5516 18.7961C15.8019 18.7961 16.0521 18.7798 16.3023 18.7471C16.5525 18.7036 16.7701 18.6438 16.9551 18.5676C16.9768 18.1651 16.9877 17.6483 16.9877 17.0173C16.9877 16.3755 16.9877 15.5867 16.9877 14.6511C19.0765 14.6511 20.692 14.6511 21.8343 14.6511C22.9875 14.6403 23.8143 14.6348 24.3148 14.6348C24.8152 14.6348 25.1144 14.6348 25.2123 14.6348C25.3211 14.6239 25.3755 14.6185 25.3755 14.6185V26.7269Z" fill="#FF48AE"/>
<path d="M90.5455 26.7269C90.5455 26.7269 90.2355 26.7759 89.6154 26.8738C89.0061 26.9717 88.2283 27.0805 87.2818 27.2002C86.3353 27.3307 85.3453 27.4449 84.3118 27.5429C83.2783 27.6408 82.3372 27.6897 81.4887 27.6897C79.1606 27.6897 77.0011 27.3688 75.0102 26.7269C73.0302 26.0851 71.3004 25.1603 69.8209 23.9528C68.3522 22.7452 67.2099 21.2928 66.394 19.5957C65.578 17.8986 65.1701 15.9947 65.1701 13.8842C65.1701 11.7736 65.6107 9.88067 66.4919 8.20529C67.3731 6.51903 68.6078 5.08843 70.1962 3.91349C71.7845 2.72767 73.6503 1.82471 75.7935 1.2046C77.9475 0.573611 80.292 0.258118 82.8268 0.258118C84.2628 0.258118 85.4541 0.339711 86.4006 0.502897C87.3471 0.655204 88.0542 0.812951 88.522 0.976137C89.0007 1.13932 89.2509 1.22092 89.2727 1.22092V9.10281C87.6734 8.61325 86.1939 8.36847 84.834 8.36847C83.0934 8.36847 81.6464 8.69485 80.4932 9.34759C79.3509 9.98946 78.4969 10.8054 77.9312 11.7954C77.3655 12.7745 77.0827 13.7699 77.0827 14.7817C77.0827 15.9566 77.4036 16.9194 78.0455 17.6701C78.6982 18.4207 79.5903 18.7961 80.7217 18.7961C80.9719 18.7961 81.2221 18.7798 81.4724 18.7471C81.7226 18.7036 81.9402 18.6438 82.1251 18.5676C82.1469 18.1651 82.1577 17.6483 82.1577 17.0173C82.1577 16.3755 82.1577 15.5867 82.1577 14.6511C84.2465 14.6511 85.8621 14.6511 87.0044 14.6511C88.1576 14.6403 88.9844 14.6348 89.4848 14.6348C89.9853 14.6348 90.2844 14.6348 90.3823 14.6348C90.4911 14.6239 90.5455 14.6185 90.5455 14.6185V26.7269Z" fill="#FF48AE"/>
<path d="M43.0616 27.6897C41.223 27.6897 39.4389 27.3688 37.7091 26.7269C35.9902 26.0742 34.4399 25.144 33.0583 23.9364C31.6875 22.7289 30.5996 21.2819 29.7945 19.5957C28.9895 17.8986 28.587 16.0056 28.587 13.9168C28.587 11.8715 28.9623 10.0112 29.713 8.33584C30.4745 6.66046 31.5243 5.21898 32.8624 4.0114C34.2006 2.80382 35.74 1.8791 37.4806 1.23724C39.2322 0.58449 41.0925 0.258118 43.0616 0.258118C45.1286 0.258118 47.0542 0.573611 48.8384 1.2046C50.6334 1.82471 52.2 2.73311 53.5381 3.92981C54.8871 5.11563 55.937 6.56255 56.6876 8.27056C57.4492 9.9677 57.8299 11.8933 57.8299 14.0474C57.8299 16.1361 57.4329 18.0237 56.6387 19.7099C55.8445 21.3853 54.7566 22.8159 53.375 24.0017C51.9933 25.1875 50.4158 26.1014 48.6426 26.7432C46.8801 27.3742 45.0198 27.6897 43.0616 27.6897ZM41.9193 19.204C42.4959 19.204 43.1105 18.9266 43.7633 18.3718C44.416 17.8061 45.0307 17.0881 45.6073 16.2177C46.1839 15.3474 46.6517 14.4281 47.0107 13.4599C47.3806 12.4916 47.5655 11.5996 47.5655 10.7836C47.5655 10.0221 47.3643 9.39111 46.9617 8.89067C46.5592 8.39023 45.8793 8.14001 44.9219 8.14001C44.3344 8.14001 43.7035 8.41743 43.0289 8.97226C42.3653 9.51622 41.7398 10.2234 41.1523 11.0937C40.5757 11.9531 40.1025 12.867 39.7326 13.8352C39.3627 14.7926 39.1778 15.6792 39.1778 16.4951C39.1778 17.2784 39.3845 17.9257 39.7979 18.4371C40.2221 18.9484 40.9293 19.204 41.9193 19.204Z" fill="white"/>
<path d="M108.232 27.6897C106.393 27.6897 104.609 27.3688 102.879 26.7269C101.16 26.0742 99.61 25.144 98.2283 23.9364C96.8576 22.7289 95.7697 21.2819 94.9646 19.5957C94.1596 17.8986 93.757 16.0056 93.757 13.9168C93.757 11.8715 94.1324 10.0112 94.883 8.33584C95.6445 6.66046 96.6944 5.21898 98.0325 4.0114C99.3706 2.80382 100.91 1.8791 102.651 1.23724C104.402 0.58449 106.263 0.258118 108.232 0.258118C110.299 0.258118 112.224 0.573611 114.008 1.2046C115.803 1.82471 117.37 2.73311 118.708 3.92981C120.057 5.11563 121.107 6.56255 121.858 8.27056C122.619 9.9677 123 11.8933 123 14.0474C123 16.1361 122.603 18.0237 121.809 19.7099C121.015 21.3853 119.927 22.8159 118.545 24.0017C117.163 25.1875 115.586 26.1014 113.813 26.7432C112.05 27.3742 110.19 27.6897 108.232 27.6897ZM107.089 19.204C107.666 19.204 108.281 18.9266 108.933 18.3718C109.586 17.8061 110.201 17.0881 110.777 16.2177C111.354 15.3474 111.822 14.4281 112.181 13.4599C112.551 12.4916 112.736 11.5996 112.736 10.7836C112.736 10.0221 112.534 9.39111 112.132 8.89067C111.729 8.39023 111.049 8.14001 110.092 8.14001C109.505 8.14001 108.874 8.41743 108.199 8.97226C107.535 9.51622 106.91 10.2234 106.322 11.0937C105.746 11.9531 105.273 12.867 104.903 13.8352C104.533 14.7926 104.348 15.6792 104.348 16.4951C104.348 17.2784 104.555 17.9257 104.968 18.4371C105.392 18.9484 106.099 19.204 107.089 19.204Z" fill="white"/>
<path d="M38.8354 43.5509H39.5592C39.4698 44.4624 39.2256 45.2309 38.8264 45.8564C38.4273 46.4759 37.8911 46.9466 37.218 47.2683C36.5507 47.584 35.7644 47.7419 34.8589 47.7419C34.138 47.7419 33.4827 47.6049 32.893 47.3308C32.3091 47.0508 31.8057 46.6576 31.3828 46.1513C30.9658 45.6389 30.6441 45.0283 30.4177 44.3194C30.1913 43.6105 30.0781 42.8271 30.0781 41.9692V40.1463C30.0781 39.2825 30.1913 38.4991 30.4177 37.7961C30.6441 37.0872 30.9658 36.4796 31.3828 35.9732C31.8057 35.4609 32.3121 35.0677 32.9019 34.7936C33.4976 34.5137 34.1619 34.3737 34.8946 34.3737C35.7823 34.3737 36.5597 34.5315 37.2269 34.8473C37.8941 35.163 38.4273 35.6336 38.8264 36.2591C39.2256 36.8787 39.4698 37.6442 39.5592 38.5557H38.8354C38.746 37.7991 38.5405 37.1617 38.2188 36.6434C37.9031 36.1192 37.4682 35.72 36.9141 35.446C36.3601 35.1719 35.6869 35.0349 34.8946 35.0349C34.2691 35.0349 33.7061 35.157 33.2057 35.4013C32.7053 35.6396 32.2764 35.9851 31.9189 36.4379C31.5615 36.8847 31.2845 37.4208 31.0879 38.0463C30.8973 38.6659 30.8019 39.3599 30.8019 40.1284V41.9692C30.8019 42.7258 30.8973 43.4198 31.0879 44.0513C31.2785 44.6768 31.5496 45.216 31.9011 45.6687C32.2525 46.1155 32.6785 46.464 33.1789 46.7142C33.6793 46.9585 34.2393 47.0806 34.8589 47.0806C35.6512 47.0806 36.3273 46.9555 36.8873 46.7053C37.4473 46.4491 37.8882 46.0589 38.2099 45.5347C38.5375 45.0104 38.746 44.3492 38.8354 43.5509Z" fill="white"/>
<path d="M46.3863 35.1064L41.7574 47.5632H40.9889L45.8769 34.5524H46.4756L46.3863 35.1064ZM50.7649 47.5632L46.145 35.1064L46.0556 34.5524H46.6454L51.5423 47.5632H50.7649ZM49.6211 43.1041V43.7743H42.9459V43.1041H49.6211Z" fill="white"/>
<path d="M61.1932 44.4088C61.1932 44.0215 61.1277 43.676 60.9966 43.3722C60.8655 43.0624 60.6481 42.7884 60.3443 42.5501C60.0464 42.3058 59.6532 42.0794 59.1647 41.8709C58.6762 41.6624 58.0745 41.4599 57.3597 41.2633C56.7043 41.0846 56.1116 40.891 55.5814 40.6825C55.0572 40.468 54.6074 40.2237 54.2321 39.9497C53.8627 39.6757 53.5797 39.351 53.3831 38.9757C53.1866 38.5944 53.0883 38.1446 53.0883 37.6264C53.0883 37.1259 53.1955 36.6762 53.41 36.277C53.6244 35.8779 53.9253 35.5383 54.3125 35.2583C54.7057 34.9724 55.1644 34.7549 55.6886 34.606C56.2188 34.4511 56.7967 34.3737 57.4222 34.3737C58.2979 34.3737 59.0634 34.5405 59.7188 34.8741C60.3741 35.2017 60.8864 35.6575 61.2557 36.2413C61.6251 36.8191 61.8098 37.4834 61.8098 38.234H61.086C61.086 37.6204 60.934 37.0723 60.6302 36.5898C60.3324 36.1072 59.9094 35.7289 59.3613 35.4549C58.8192 35.1749 58.1728 35.0349 57.4222 35.0349C56.6478 35.0349 55.9895 35.1541 55.4474 35.3924C54.9112 35.6307 54.5031 35.9464 54.2231 36.3396C53.9491 36.7268 53.8121 37.1498 53.8121 37.6085C53.8121 37.9361 53.8716 38.2429 53.9908 38.5289C54.1159 38.8148 54.3184 39.077 54.5984 39.3153C54.8844 39.5535 55.2686 39.7799 55.7512 39.9944C56.2397 40.2029 56.8473 40.4054 57.5741 40.602C58.2413 40.7748 58.84 40.9714 59.3702 41.1918C59.9064 41.4063 60.3651 41.6595 60.7464 41.9514C61.1277 42.2433 61.4196 42.5888 61.6221 42.9879C61.8247 43.3871 61.9259 43.8547 61.9259 44.3909C61.9259 44.9211 61.8127 45.3947 61.5864 45.8117C61.36 46.2228 61.0443 46.5742 60.6392 46.8661C60.24 47.1521 59.7694 47.3695 59.2273 47.5185C58.6911 47.6674 58.1133 47.7419 57.4937 47.7419C56.9277 47.7419 56.3588 47.6734 55.7869 47.5363C55.221 47.3993 54.7027 47.1789 54.2321 46.8751C53.7614 46.5713 53.3831 46.1721 53.0972 45.6777C52.8112 45.1832 52.6683 44.5815 52.6683 43.8726H53.3921C53.3921 44.4802 53.5172 44.9926 53.7674 45.4096C54.0176 45.8206 54.3453 46.1483 54.7503 46.3925C55.1554 46.6368 55.5963 46.8125 56.0729 46.9198C56.5554 47.027 57.029 47.0806 57.4937 47.0806C58.2205 47.0806 58.8609 46.9704 59.4149 46.75C59.9749 46.5236 60.4098 46.2108 60.7196 45.8117C61.0353 45.4066 61.1932 44.939 61.1932 44.4088Z" fill="white"/>
<path d="M65.4378 34.5524V47.5632H64.714V34.5524H65.4378Z" fill="white"/>
<path d="M78.7077 34.5524V47.5632H77.9839L69.9415 35.7945V47.5632H69.2088V34.5524H69.9415L77.9839 46.3032V34.5524H78.7077Z" fill="white"/>
<path d="M91.5487 40.191V41.9246C91.5487 42.7943 91.4325 43.5866 91.2002 44.3015C90.9738 45.0164 90.6432 45.63 90.2083 46.1423C89.7734 46.6547 89.2521 47.0508 88.6445 47.3308C88.0369 47.6049 87.3518 47.7419 86.5892 47.7419C85.8446 47.7419 85.1654 47.6049 84.5518 47.3308C83.9382 47.0508 83.411 46.6547 82.9702 46.1423C82.5353 45.63 82.1987 45.0164 81.9604 44.3015C81.7281 43.5866 81.6119 42.7943 81.6119 41.9246V40.191C81.6119 39.3153 81.7281 38.5229 81.9604 37.814C82.1987 37.0991 82.5353 36.4855 82.9702 35.9732C83.405 35.4609 83.9263 35.0677 84.534 34.7936C85.1476 34.5137 85.8267 34.3737 86.5714 34.3737C87.3339 34.3737 88.019 34.5137 88.6266 34.7936C89.2343 35.0677 89.7555 35.4609 90.1904 35.9732C90.6313 36.4855 90.9679 37.0991 91.2002 37.814C91.4325 38.5229 91.5487 39.3153 91.5487 40.191ZM90.8338 41.9246V40.1731C90.8338 39.4106 90.7385 38.7165 90.5479 38.091C90.3572 37.4595 90.0772 36.9174 89.7079 36.4647C89.3445 36.0119 88.9007 35.6634 88.3764 35.4192C87.8522 35.169 87.2505 35.0439 86.5714 35.0439C85.9101 35.0439 85.3173 35.169 84.7931 35.4192C84.2688 35.6634 83.825 36.0119 83.4616 36.4647C83.0982 36.9174 82.8212 37.4595 82.6306 38.091C82.44 38.7165 82.3446 39.4106 82.3446 40.1731V41.9246C82.3446 42.693 82.44 43.393 82.6306 44.0245C82.8272 44.656 83.1072 45.1981 83.4706 45.6509C83.834 46.1036 84.2778 46.4551 84.802 46.7053C85.3322 46.9496 85.928 47.0717 86.5892 47.0717C87.2684 47.0717 87.87 46.9496 88.3943 46.7053C88.9185 46.4551 89.3624 46.1036 89.7257 45.6509C90.0891 45.1981 90.3632 44.656 90.5479 44.0245C90.7385 43.393 90.8338 42.693 90.8338 41.9246Z" fill="white"/>
</svg>
