<svg width="203" height="40" viewBox="0 0 203 40" fill="none" xmlns="http://www.w3.org/2000/svg">
<path d="M2.56682 4.49798C3.84771 4.59003 4.48823 5.13845 4.39616 6.05315C4.30507 6.96786 3.39038 7.70036 2.38364 7.70036C1.10274 7.60829 0.0969397 6.41939 0.00488893 4.86422C-0.0861825 2.94281 1.10274 1.29655 2.93304 0.747184C4.94555 0.198758 6.95807 1.02236 7.96383 2.85172C8.97053 4.6811 8.87946 6.51048 8.239 8.43189C7.50648 10.5355 6.50071 12.5489 5.67711 14.5615C4.67133 17.0313 4.21398 19.5932 4.85349 22.3372C6.22648 28.1005 11.9898 31.5772 17.9362 30.2962C23.1511 29.1063 26.7187 24.1666 26.1684 18.7695C25.9862 16.5739 25.1626 14.5614 24.2479 12.5489C23.6065 10.9938 22.6918 9.52969 22.2364 7.79142C21.7771 5.6878 21.7771 3.6753 23.4244 1.93701C24.6142 0.656073 26.1684 0.28981 27.8156 0.747165C29.4628 1.20452 30.3775 2.39435 30.6507 3.94951C31.0189 5.59575 30.0112 7.24299 28.457 7.60827C27.4512 7.88253 26.4436 7.15092 26.2595 6.14518C26.1684 5.22953 26.6276 4.58999 27.5423 4.49796C27.7245 4.49796 27.9067 4.59001 27.9978 4.40687C28.0888 4.22376 27.9067 4.0406 27.8156 3.8575C27.1742 3.03484 25.804 3.03484 25.0715 3.8575C24.2479 4.77217 24.0658 5.87 24.339 6.96782C24.7053 8.52296 25.5289 9.80392 26.2595 11.1759C27.2672 13.1884 28.457 15.2019 29.1877 17.3055C31.0189 22.9787 29.1877 28.649 24.2479 31.9434C18.7598 35.6021 12.9956 35.7843 7.32427 32.5829C2.10942 29.6547 -1.64135 22.7946 2.29255 15.1099C3.29833 13.1885 4.30505 11.268 5.31083 9.25551C5.76911 8.3408 6.13445 7.5172 6.31755 6.51048C6.50069 5.22955 6.22646 4.13269 5.12865 3.40016C4.12197 2.94281 2.93304 3.40016 2.56682 4.49798ZM2.93304 21.3315C2.56682 21.3315 2.38364 21.5137 2.38364 21.8799C2.38364 22.2462 2.56682 22.5194 2.93304 22.5194C3.29835 22.5194 3.48149 22.2462 3.48149 21.971C3.48149 21.6048 3.29837 21.4226 2.93304 21.3315ZM25.5289 28.4669C25.8041 28.4669 26.0774 28.2847 26.0774 28.0095C26.0774 27.6432 25.8952 27.4611 25.5289 27.4611C25.1626 27.4611 24.9805 27.6432 24.9805 27.9165C24.9805 28.1916 25.1626 28.4669 25.5289 28.4669ZM5.31087 28.4669C5.58606 28.3758 5.76915 28.1005 5.67713 27.8254C5.67713 27.4611 5.40288 27.4611 5.12869 27.4611C4.76244 27.4611 4.57932 27.6432 4.67133 28.0095C4.67133 28.2847 4.85351 28.4669 5.31087 28.4669ZM27.9067 22.4284C28.1819 22.3373 28.457 22.2462 28.457 21.971C28.457 21.6048 28.273 21.4226 27.9067 21.3315C27.5423 21.3315 27.3582 21.5137 27.3582 21.8799C27.3582 22.1551 27.5424 22.4284 27.9067 22.4284ZM5.86024 17.3976C6.31759 21.4226 8.14697 24.2577 11.8978 25.3565C15.4654 26.4534 18.7598 25.8138 21.595 23.252C20.7714 24.624 20.1319 25.0813 16.198 27.0018C20.0389 27.4611 25.1627 22.4283 24.6142 16.4819C26.0774 20.0505 24.8894 24.717 21.8683 27.1859C18.4847 30.0229 13.7281 30.2962 9.97731 28.0095C6.5918 25.8138 4.76244 21.4226 5.86024 17.3976ZM15.3743 4.04062C13.6361 4.04062 11.8067 4.04062 10.0684 4.04062C9.42791 4.04062 9.33681 3.76643 9.42791 3.30907C9.42791 2.85172 9.42791 2.48546 10.0684 2.57655C13.6361 2.57655 17.1126 2.57655 20.6803 2.57655C21.0465 2.57655 21.4128 2.57655 21.3217 3.12593C21.2287 3.58329 21.4128 4.0406 20.5892 4.0406C18.8509 3.94955 17.1126 3.94955 15.3743 4.04062ZM16.7464 14.5615C16.7464 11.7254 16.7464 8.79818 16.7464 5.96205C16.7464 5.77895 16.7464 5.5047 16.7464 5.3216C16.7464 5.13845 16.9295 5.04738 17.1126 5.04738C17.2958 5.04738 17.4789 5.04738 17.4789 5.3216C17.4789 5.5047 17.4789 5.68786 17.4789 5.87004C17.4789 11.6343 17.4789 17.3976 17.4789 23.1609C17.4789 23.3431 17.4789 23.4341 17.4789 23.6182C17.4789 23.8934 17.2957 24.0756 17.0206 24.0756C16.6553 24.0756 16.7464 23.8004 16.7464 23.5252C16.7464 21.787 16.7463 20.1416 16.6553 18.4034C16.6553 17.0313 16.7464 15.8414 16.7464 14.5615ZM11.2573 13.8289C11.2573 11.176 11.2573 8.43191 11.2573 5.77895C11.2573 5.5047 11.0751 5.04736 11.6236 5.04736C12.1729 5.04736 11.9898 5.5047 11.9898 5.77895C11.9898 11.176 11.9898 16.574 11.9898 21.971C11.9898 22.2462 12.1729 22.7035 11.6236 22.7035C11.0751 22.7035 11.2573 22.2461 11.2573 21.971C11.2573 19.2269 11.2573 16.574 11.2573 13.8289ZM19.3083 13.921C19.3083 16.574 19.3083 19.318 19.3083 21.971C19.3083 22.1551 19.3083 22.3373 19.3083 22.4284C19.3083 22.6105 19.1242 22.7035 18.942 22.7035C18.7598 22.7035 18.6687 22.5195 18.6687 22.3373C18.6687 21.971 18.5758 21.6048 18.5758 21.2404C18.5758 16.0246 18.5758 10.8107 18.5758 5.68786C18.5758 5.41269 18.3936 4.95535 18.942 4.95535C19.4923 4.95535 19.3994 5.41271 19.3994 5.68786C19.3083 8.523 19.3083 11.176 19.3083 13.921ZM13.8192 14.4695C13.8192 17.3976 13.8192 20.2328 13.8192 23.1609C13.8192 23.4341 14.0023 23.8934 13.4529 23.8934C12.9956 23.8934 13.0876 23.4341 13.0876 23.1609C13.0876 17.3055 13.0876 11.4511 13.0876 5.68786C13.0876 5.41269 12.9956 5.04738 13.4529 5.04738C13.9103 5.04738 13.8192 5.41269 13.8192 5.77897C13.9103 8.61505 13.9103 11.5422 13.8192 14.4695ZM20.407 13.0063C20.407 10.5355 20.407 8.1577 20.407 5.68786C20.407 5.41269 20.2229 5.04738 20.7714 5.04738C21.3217 5.04738 21.2288 5.41269 21.2288 5.77897C21.2288 10.6276 21.2288 15.5673 21.1377 20.4168C21.1377 20.599 21.1377 20.7812 21.1377 20.8723C21.1377 21.0564 21.0466 21.2405 20.7714 21.2405C20.4981 21.2405 20.4981 21.0564 20.4981 20.7812C20.4981 20.2328 20.4981 19.6843 20.4981 19.227C20.407 17.2144 20.407 15.1099 20.407 13.0063ZM14.917 14.5615C14.917 11.6343 14.917 8.70615 14.917 5.77895C14.917 5.5047 14.7338 5.04736 15.2833 5.04736C15.8317 5.04736 15.6485 5.5047 15.6485 5.77895C15.6485 11.6343 15.6485 17.3976 15.6485 23.252C15.6485 23.4341 15.6485 23.5252 15.6485 23.7093C15.6485 23.9845 15.6485 24.2578 15.2833 24.2578C14.8259 24.2578 14.917 23.9845 14.917 23.7093C14.917 22.8857 14.8259 21.971 14.8259 21.1474C14.917 18.9518 14.917 16.7571 14.917 14.5615ZM10.1595 13.0974C10.1595 15.5673 10.1595 18.1291 10.1595 20.599C10.1595 20.8723 10.3426 21.2404 9.88526 21.2404C9.51996 21.2404 9.51995 20.8723 9.51995 20.599C9.51995 16.7571 9.51996 12.8232 9.42791 8.98126C9.42791 7.88253 9.42791 6.6936 9.42791 5.59577C9.42791 5.32158 9.33684 4.95531 9.79417 4.95531C10.2515 4.95531 10.1595 5.32158 10.1595 5.59577C10.1595 8.1577 10.1595 10.6275 10.1595 13.0974Z" fill="#FF5B00"/>
<path d="M45.08 31.3586C44.3067 31.3586 43.76 31.1986 43.44 30.8786C43.1467 30.5586 43 30.0519 43 29.3586V6.1986C43 5.50526 43.16 4.99859 43.48 4.67859C43.8 4.33193 44.3333 4.1586 45.08 4.1586H48.96C49.7333 4.1586 50.28 4.33193 50.6 4.67859C50.92 4.99859 51.08 5.50526 51.08 6.1986V25.5586H61.4C62.1467 25.5586 62.6533 25.7186 62.92 26.0386C63.1867 26.3319 63.32 26.8386 63.32 27.5586V29.3986C63.32 30.0919 63.1867 30.5986 62.92 30.9186C62.6533 31.2119 62.1467 31.3586 61.4 31.3586H45.08Z" fill="white"/>
<path d="M67.9484 10.1186C67.0418 10.1186 66.3484 9.87859 65.8684 9.39859C65.3884 8.89193 65.1484 8.30526 65.1484 7.63859V6.67859C65.1484 5.98526 65.3884 5.3986 65.8684 4.9186C66.3484 4.41193 67.0418 4.1586 67.9484 4.1586H70.8284C71.7618 4.1586 72.4684 4.41193 72.9484 4.9186C73.4284 5.3986 73.6684 5.98526 73.6684 6.67859V7.63859C73.6684 8.30526 73.4284 8.89193 72.9484 9.39859C72.4684 9.87859 71.7618 10.1186 70.8284 10.1186H67.9484ZM67.4684 31.3586C66.6951 31.3586 66.1484 31.1986 65.8284 30.8786C65.5084 30.5586 65.3484 30.0519 65.3484 29.3586V14.1986C65.3484 13.5053 65.5084 12.9986 65.8284 12.6786C66.1484 12.3319 66.6951 12.1586 67.4684 12.1586H71.3084C72.0818 12.1586 72.6284 12.3319 72.9484 12.6786C73.2951 12.9986 73.4684 13.5053 73.4684 14.1986V29.3586C73.4684 30.0519 73.2951 30.5586 72.9484 30.8786C72.6284 31.1986 72.0818 31.3586 71.3084 31.3586H67.4684Z" fill="white"/>
<path d="M79.2216 31.3586C78.4482 31.3586 77.9016 31.1986 77.5816 30.8786C77.2616 30.5586 77.1016 30.0519 77.1016 29.3586V13.3986C77.1016 12.9186 77.1816 12.5986 77.3416 12.4386C77.5282 12.2519 77.9016 12.1586 78.4616 12.1586H82.5816C82.9016 12.1586 83.1416 12.2119 83.3016 12.3186C83.4882 12.3986 83.5949 12.5586 83.6216 12.7986L83.8216 13.9586C85.4216 12.3586 87.3549 11.5586 89.6216 11.5586C90.5016 11.5586 91.2216 11.6386 91.7816 11.7986C92.3416 11.9319 92.8482 12.1586 93.3016 12.4786C93.5682 12.6653 93.7016 12.8786 93.7016 13.1186C93.7016 13.1986 93.6749 13.3453 93.6216 13.5586L92.3416 17.1986C92.2349 17.5719 92.0349 17.7586 91.7416 17.7586C91.6082 17.7586 91.4482 17.7053 91.2616 17.5986C90.5416 17.1986 89.6749 16.9986 88.6616 16.9986C87.6482 16.9986 86.8082 17.2786 86.1416 17.8386C85.5016 18.3986 85.1816 19.1453 85.1816 20.0786V29.3586C85.1816 30.0519 85.0216 30.5586 84.7016 30.8786C84.4082 31.1986 83.8749 31.3586 83.1016 31.3586H79.2216Z" fill="white"/>
<path d="M103.019 31.9586C100.512 31.9586 98.4991 31.1586 96.9791 29.5586C95.4857 27.9319 94.7391 25.6519 94.7391 22.7186C94.7391 20.4786 95.2457 18.5186 96.2591 16.8386C97.2991 15.1586 98.7524 13.8653 100.619 12.9586C102.512 12.0253 104.686 11.5586 107.139 11.5586C109.166 11.5586 110.952 11.7853 112.499 12.2386C114.072 12.6653 115.512 13.2919 116.819 14.1186V30.1186C116.819 30.6253 116.726 30.9586 116.539 31.1186C116.352 31.2786 115.979 31.3586 115.419 31.3586H111.339C111.046 31.3586 110.819 31.3186 110.659 31.2386C110.499 31.1319 110.366 30.9719 110.259 30.7586L109.739 29.5586C108.966 30.3853 108.032 30.9853 106.939 31.3586C105.872 31.7586 104.566 31.9586 103.019 31.9586ZM106.019 26.5186C107.059 26.5186 107.872 26.2653 108.459 25.7586C109.046 25.2519 109.339 24.5319 109.339 23.5986V17.3586C108.832 17.1186 108.192 16.9986 107.419 16.9986C106.006 16.9986 104.872 17.4919 104.019 18.4786C103.192 19.4653 102.779 20.8519 102.779 22.6386C102.779 25.2253 103.859 26.5186 106.019 26.5186Z" fill="white"/>
<path d="M131.346 31.9586C129.106 31.9586 126.986 31.7319 124.986 31.2786C122.986 30.7986 121.372 30.1319 120.146 29.2786C119.692 28.9853 119.466 28.6786 119.466 28.3586C119.466 28.1453 119.546 27.9186 119.706 27.6786L121.666 24.5586C121.879 24.2386 122.092 24.0786 122.306 24.0786C122.439 24.0786 122.666 24.1719 122.986 24.3586C123.972 24.9186 125.092 25.3719 126.346 25.7186C127.599 26.0653 128.839 26.2386 130.066 26.2386C131.319 26.2386 132.239 26.0519 132.826 25.6786C133.439 25.3053 133.746 24.7053 133.746 23.8786C133.746 23.0786 133.412 22.4519 132.746 21.9986C132.106 21.5453 130.892 20.9719 129.106 20.2786C126.412 19.2653 124.306 18.1319 122.786 16.8786C121.292 15.5986 120.546 13.8653 120.546 11.6786C120.546 9.0386 121.492 7.02526 123.386 5.6386C125.279 4.25193 127.799 3.55859 130.946 3.55859C133.132 3.55859 134.999 3.75859 136.546 4.1586C138.119 4.53193 139.452 5.1186 140.546 5.91859C140.999 6.26526 141.226 6.58526 141.226 6.87859C141.226 7.06526 141.146 7.2786 140.986 7.5186L139.026 10.6386C138.786 10.9586 138.572 11.1186 138.386 11.1186C138.252 11.1186 138.026 11.0253 137.706 10.8386C136.159 9.82526 134.319 9.3186 132.186 9.3186C131.039 9.3186 130.159 9.50526 129.546 9.8786C128.932 10.2519 128.626 10.8653 128.626 11.7186C128.626 12.3053 128.786 12.7853 129.106 13.1586C129.426 13.5319 129.852 13.8653 130.386 14.1586C130.946 14.4253 131.799 14.7719 132.946 15.1986L133.706 15.4786C135.679 16.2519 137.226 16.9986 138.346 17.7186C139.492 18.4119 140.359 19.2786 140.946 20.3186C141.532 21.3319 141.826 22.6119 141.826 24.1586C141.826 26.5319 140.932 28.4253 139.146 29.8386C137.386 31.2519 134.786 31.9586 131.346 31.9586Z" fill="white"/>
<path d="M146.564 39.4386C145.791 39.4386 145.244 39.2786 144.924 38.9586C144.631 38.6386 144.484 38.1319 144.484 37.4386V14.5186C145.684 13.6653 147.191 12.9586 149.004 12.3986C150.818 11.8386 152.711 11.5586 154.684 11.5586C162.738 11.5586 166.764 14.9719 166.764 21.7986C166.764 24.8919 165.911 27.3586 164.204 29.1986C162.498 31.0386 160.084 31.9586 156.964 31.9586C156.084 31.9586 155.231 31.8519 154.404 31.6386C153.604 31.4253 152.938 31.1319 152.404 30.7586V37.4386C152.404 38.1319 152.244 38.6386 151.924 38.9586C151.604 39.2786 151.058 39.4386 150.284 39.4386H146.564ZM155.244 26.5586C156.391 26.5586 157.244 26.1319 157.804 25.2786C158.391 24.3986 158.684 23.2253 158.684 21.7586C158.684 20.0253 158.338 18.8119 157.644 18.1186C156.978 17.3986 155.938 17.0386 154.524 17.0386C153.618 17.0386 152.898 17.1586 152.364 17.3986V23.7586C152.364 24.6653 152.618 25.3586 153.124 25.8386C153.631 26.3186 154.338 26.5586 155.244 26.5586Z" fill="white"/>
<path d="M172.206 10.1186C171.3 10.1186 170.606 9.87859 170.126 9.39859C169.646 8.89193 169.406 8.30526 169.406 7.63859V6.67859C169.406 5.98526 169.646 5.3986 170.126 4.9186C170.606 4.41193 171.3 4.1586 172.206 4.1586H175.086C176.02 4.1586 176.726 4.41193 177.206 4.9186C177.686 5.3986 177.926 5.98526 177.926 6.67859V7.63859C177.926 8.30526 177.686 8.89193 177.206 9.39859C176.726 9.87859 176.02 10.1186 175.086 10.1186H172.206ZM171.726 31.3586C170.953 31.3586 170.406 31.1986 170.086 30.8786C169.766 30.5586 169.606 30.0519 169.606 29.3586V14.1986C169.606 13.5053 169.766 12.9986 170.086 12.6786C170.406 12.3319 170.953 12.1586 171.726 12.1586H175.566C176.34 12.1586 176.886 12.3319 177.206 12.6786C177.553 12.9986 177.726 13.5053 177.726 14.1986V29.3586C177.726 30.0519 177.553 30.5586 177.206 30.8786C176.886 31.1986 176.34 31.3586 175.566 31.3586H171.726Z" fill="white"/>
<path d="M183.479 31.3586C182.706 31.3586 182.159 31.1986 181.839 30.8786C181.519 30.5586 181.359 30.0519 181.359 29.3586V13.3986C181.359 12.9186 181.439 12.5986 181.599 12.4386C181.786 12.2519 182.159 12.1586 182.719 12.1586H186.839C187.159 12.1586 187.399 12.2119 187.559 12.3186C187.746 12.3986 187.853 12.5586 187.879 12.7986L188.079 13.9986C188.826 13.2519 189.799 12.6653 190.999 12.2386C192.226 11.7853 193.586 11.5586 195.079 11.5586C197.239 11.5586 198.986 12.1719 200.319 13.3986C201.653 14.5986 202.319 16.3853 202.319 18.7586V29.3586C202.319 30.0519 202.159 30.5586 201.839 30.8786C201.546 31.1986 201.013 31.3586 200.239 31.3586H196.359C195.586 31.3586 195.026 31.1986 194.679 30.8786C194.359 30.5586 194.199 30.0519 194.199 29.3586V19.2786C194.199 18.4786 194.026 17.9053 193.679 17.5586C193.333 17.2119 192.786 17.0386 192.039 17.0386C191.239 17.0386 190.599 17.2519 190.119 17.6786C189.666 18.1053 189.439 18.6919 189.439 19.4386V29.3586C189.439 30.0519 189.279 30.5586 188.959 30.8786C188.666 31.1986 188.133 31.3586 187.359 31.3586H183.479Z" fill="white"/>
</svg>
