<svg width="192" height="38" viewBox="0 0 192 38" fill="none" xmlns="http://www.w3.org/2000/svg">
<path d="M18.1758 29.6946V0.951659C18.1758 0.528171 18.6338 0.263095 19.001 0.474044L30.8435 7.27719C31.0145 7.37542 31.1199 7.55759 31.1199 7.7548V36.2458C31.1199 36.6653 30.6696 36.9309 30.3025 36.7278L18.46 30.1766C18.2846 30.0796 18.1758 29.895 18.1758 29.6946Z" fill="#FF5050"/>
<path d="M9.91406 27.7677V6.95403C9.91406 6.54355 10.3469 6.2773 10.7133 6.46241L22.6935 12.5156C22.879 12.6093 22.9959 12.7994 22.9959 13.0072V34.4514C22.9959 34.8718 22.5439 35.1373 22.1767 34.9324L10.1965 28.2487C10.0221 28.1515 9.91406 27.9674 9.91406 27.7677Z" fill="#1A3271"/>
<path d="M8.125 29.2834V8.46966C8.125 8.05918 8.55785 7.79292 8.92421 7.97803L20.9044 14.0312C21.0899 14.1249 21.2068 14.315 21.2068 14.5228V35.9671C21.2068 36.3875 20.7548 36.6529 20.3877 36.4481L8.40746 29.7644C8.23307 29.6671 8.125 29.483 8.125 29.2834Z" fill="#0A5AC9"/>
<path d="M1.37891 30.242V16.1005C1.37891 15.6769 1.83708 15.4119 2.20429 15.623L12.1189 21.324C12.2898 21.4222 12.3952 21.6043 12.3952 21.8015V35.5711C12.3952 35.9877 11.9506 36.2535 11.5836 36.0563L1.66894 30.7271C1.49033 30.6311 1.37891 30.4447 1.37891 30.242Z" fill="#1A3271"/>
<path d="M0 30.7927V16.6513C0 16.2277 0.458172 15.9627 0.82538 16.1738L10.74 21.8747C10.9109 21.973 11.0163 22.1551 11.0163 22.3522V36.1219C11.0163 36.5385 10.5717 36.8043 10.2047 36.607L0.290035 31.2779C0.11142 31.1819 0 30.9955 0 30.7927Z" fill="#39CC59"/>
<path d="M58.5914 36.9061L53.0251 7.4375H58.3458L64.3214 36.9061H58.5914ZM44.8394 36.9061L39.1094 7.4375H45.6579L51.3879 36.9061H44.8394ZM47.0495 36.9061L53.0251 7.4375H58.3458L52.7795 36.9061H47.0495ZM59.9829 36.9061L65.7129 7.4375H72.2615L66.5315 36.9061H59.9829Z" fill="white"/>
<path d="M75.5502 36.9061V7.4375H82.3443V36.9061H75.5502Z" fill="white"/>
<path d="M100.421 36.9061L88.7564 7.4375H94.4864L106.151 36.9061H100.421ZM87.6513 36.9061V7.4375H94.4454V36.9061H87.6513ZM102.017 36.9061V7.4375H108.811V36.9061H102.017Z" fill="white"/>
<path d="M126.481 36.9061L114.816 7.4375H120.546L132.211 36.9061H126.481ZM113.711 36.9061V7.4375H120.505V36.9061H113.711ZM128.077 36.9061V7.4375H134.871V36.9061H128.077Z" fill="white"/>
<path d="M140.181 36.9061V7.4375H146.975V36.9061H140.181Z" fill="white"/>
<path d="M150.645 12.5945V7.4375H170.7V12.5945H150.645ZM157.275 36.9061V7.4375H164.069V36.9061H157.275Z" fill="white"/>
<path d="M176.981 32.3221V27.1651H187.458V32.3221H176.981ZM184.593 7.4375L177.267 36.9061H170.719L178.045 7.4375H184.593ZM184.675 7.4375L192.002 36.9061H185.453L178.127 7.4375H184.675Z" fill="white"/>
</svg>
