<svg width="132" height="48" viewBox="0 0 132 48" fill="none" xmlns="http://www.w3.org/2000/svg">
<path d="M6.9211 24.6645C6.79123 25.5086 6.80205 26.2987 6.95357 27.0346C7.12673 27.7489 7.42975 28.3766 7.86265 28.9177C8.31719 29.4372 8.87995 29.8592 9.55094 30.1839C10.2219 30.4869 10.9795 30.6384 11.8236 30.6384C13.3171 30.6601 14.6375 30.3679 15.7846 29.7618C16.9318 29.1558 17.9599 28.4956 18.869 27.7813L17.895 34.3722C16.8777 35.0215 15.8063 35.5626 14.6807 35.9955C13.5552 36.4068 12.2457 36.6124 10.7522 36.6124C8.97735 36.6124 7.37564 36.3094 5.94709 35.7033C4.51853 35.0973 3.32807 34.2531 2.3757 33.1709C1.44497 32.0886 0.773987 30.8224 0.362736 29.3722C-0.0268693 27.922 -0.102626 26.3528 0.135466 24.6645C0.395204 22.9329 0.936323 21.342 1.75882 19.8918C2.60297 18.42 3.66356 17.1538 4.9406 16.0932C6.21765 15.0326 7.65702 14.2101 9.25874 13.6257C10.8821 13.0196 12.6245 12.7166 14.4859 12.7166C15.9145 12.7166 17.1483 12.9222 18.1872 13.3335C19.2262 13.7231 20.2002 14.2642 21.1092 14.9568L20.1028 21.5801C19.4318 20.736 18.6201 20.0433 17.6677 19.5022C16.737 18.9395 15.5898 18.6581 14.2262 18.6581C13.3388 18.6581 12.4946 18.8096 11.6938 19.1126C10.8929 19.394 10.157 19.8052 9.48601 20.3464C8.83666 20.8658 8.28472 21.4935 7.83018 22.2295C7.39729 22.9437 7.09426 23.7554 6.9211 24.6645Z" fill="url(#paint0_linear_7235_49190)"/>
<path d="M25.6853 32.3592L26.6918 27.7164H38.0878L37.4709 32.3592H25.6853ZM33.1852 22.6191L29.1918 29.4372L29.3217 30.8657L25.9126 36.028H18.7374L35.0034 11.6776L42.8929 36.028H36.0099L34.4515 31.0281L34.9385 29.4372L33.1852 22.6191Z" fill="url(#paint1_linear_7235_49190)"/>
<path d="M67.5985 26.9047L68.5725 21.3204H85.8126L84.8386 26.9047H67.5985ZM83.2477 13.2685H89.4814L85.5529 35.9955H79.3516L83.2477 13.2685ZM68.4427 13.2685H74.6439L70.7478 35.9955H64.5466L68.4427 13.2685Z" fill="url(#paint2_linear_7235_49190)"/>
<path d="M94.1625 35.9955L95.0391 30.8982H106.273L105.364 35.9955H94.1625ZM97.1819 18.3659L98.0585 13.2685H109.292L108.383 18.3659H97.1819ZM95.7534 26.645L96.63 21.71H107.214L106.338 26.645H95.7534ZM93.9027 13.2685H99.8442L95.9482 35.9955H90.0067L93.9027 13.2685Z" fill="url(#paint3_linear_7235_49190)"/>
<path d="M113.37 13.2685H119.831L115.935 35.9955H109.474L113.37 13.2685ZM117.981 35.9955H113.598L114.604 30.4761H118.338C119.463 30.4761 120.524 30.2813 121.52 29.8917C122.515 29.4805 123.359 28.8419 124.052 27.9761C124.745 27.1104 125.188 25.9956 125.383 24.632C125.535 23.6364 125.524 22.7706 125.351 22.0347C125.199 21.2987 124.907 20.6927 124.474 20.2165C124.041 19.7187 123.5 19.3507 122.851 19.1126C122.201 18.8745 121.465 18.7555 120.643 18.7555H116.552L117.526 13.2685H121.487C123.284 13.2685 124.875 13.5499 126.26 14.1127C127.645 14.6538 128.792 15.433 129.701 16.4503C130.632 17.446 131.281 18.6364 131.649 20.0217C132.039 21.407 132.104 22.9437 131.844 24.632C131.584 26.3636 131.054 27.9329 130.253 29.3398C129.474 30.725 128.478 31.9155 127.266 32.9112C126.054 33.8852 124.658 34.6427 123.078 35.1839C121.52 35.725 119.82 35.9955 117.981 35.9955Z" fill="url(#paint4_linear_7235_49190)"/>
<path d="M47.8985 47.6362C47.5412 47.7193 47.2096 47.7102 46.9035 47.6088C46.601 47.5222 46.4151 47.3301 46.3458 47.0324C46.3077 46.8686 46.316 46.702 46.3707 46.5323L47.5118 41.7242C45.291 41.9584 43.5793 41.7839 42.3766 41.2006C41.2324 40.6665 40.5304 39.8413 40.2707 38.7248C40.0249 37.6679 40.1757 36.4952 40.7233 35.2067C41.2823 33.8998 42.1484 32.6313 43.3215 31.4012C44.5096 30.1677 45.9334 29.1382 47.5929 28.3128L47.7269 28.2816C48.0246 28.2124 48.2716 28.2961 48.4679 28.5329C48.6608 28.7548 48.7936 29.022 48.8663 29.3346C48.9702 29.7812 48.9806 30.1632 48.8975 30.4807C48.8293 30.7947 48.6128 31.1118 48.248 31.4321C47.9997 31.6467 47.6788 31.8861 47.2852 32.1503C46.3928 32.7659 45.7204 33.4166 45.268 34.1024C44.8304 34.7848 44.6723 35.3864 44.7935 35.9074C44.9043 36.3838 45.2617 36.74 45.8659 36.976C46.4585 37.2305 47.3808 37.2827 48.6326 37.1327L51.287 26.1825C50.3688 25.8782 49.579 25.552 48.9174 25.2038C48.2673 24.8372 47.7248 24.4613 47.2899 24.076C46.4753 23.3397 45.9381 22.4134 45.6784 21.2969C45.4048 20.1209 45.5069 18.8733 45.9845 17.5539C46.4771 16.2311 47.2286 14.9422 48.239 13.6872C49.2494 12.4322 50.4067 11.2686 51.7107 10.1964C53.0147 9.12417 54.3826 8.22538 55.8144 7.50002L57.0972 2.18822C57.1948 1.6634 57.3888 1.24952 57.6792 0.946584C57.9845 0.640189 58.3084 0.447169 58.6507 0.367523C59.0378 0.27749 59.386 0.290622 59.6955 0.406921C60.0165 0.504871 60.215 0.717589 60.2912 1.04508L60.312 1.13439L60.3156 1.25123L60.3125 1.44025L59.7342 3.8108L59.1112 6.19174L59.3122 6.14499C60.5923 5.84719 61.7098 5.86183 62.6646 6.18891C63.6343 6.51253 64.2611 7.28466 64.5451 8.5053C65.1546 11.1252 64.007 13.8479 61.1023 16.6733C60.5259 17.231 59.9996 17.5653 59.5232 17.6761C59.0915 17.7765 58.7254 17.7205 58.4249 17.5079C58.121 17.2805 57.9222 16.9658 57.8287 16.5639C57.7214 16.1025 57.7651 15.5823 57.96 15.0035C58.1698 14.4212 58.5921 13.8757 59.2269 13.3671C59.6514 13.033 60.0292 12.5999 60.3605 12.0678C60.7066 11.5323 60.8364 11.0784 60.7498 10.7063C60.6875 10.4383 60.5435 10.2914 60.3178 10.2654C60.0886 10.2246 59.8251 10.2388 59.5274 10.308C59.2744 10.3669 59.0173 10.4424 58.7563 10.5345C58.5102 10.6231 58.2509 10.7227 57.9784 10.8331L55.0899 22.4969L58.496 23.6817C59.806 24.0516 60.8207 24.5688 61.5401 25.2331C62.256 25.8825 62.7127 26.6314 62.9101 27.4799C62.969 27.733 63.0055 27.9912 63.0197 28.2547C63.0883 29.494 62.8392 30.7837 62.2722 32.1239C61.7166 33.4456 60.8895 34.7129 59.7908 35.9257C58.6921 37.1384 57.3566 38.2101 55.7842 39.1408C54.2268 40.068 52.4805 40.7567 50.5454 41.2068L50.4337 41.2328L49.2958 45.8519C49.2016 46.3916 49.0151 46.8037 48.7361 47.0883C48.4754 47.3843 48.1962 47.567 47.8985 47.6362ZM52.4078 21.5909L54.5778 12.7069C53.2689 13.6234 52.1458 14.63 51.2084 15.7268C50.2675 16.8087 49.8248 17.806 49.8803 18.7189C49.8782 18.8449 49.8841 18.9377 49.8979 18.9973L49.9603 19.2652C50.0711 19.7416 50.3233 20.185 50.7169 20.5956C51.1071 20.9912 51.6707 21.323 52.4078 21.5909ZM51.635 36.4813C52.8131 36.0817 53.8786 35.5357 54.8316 34.8433C55.7846 34.1509 56.5296 33.3735 57.0664 32.5111C57.6182 31.6452 57.8664 30.7558 57.8109 29.843C57.8189 29.8097 57.8142 29.7559 57.7969 29.6815L57.7657 29.5475C57.6237 28.9372 57.242 28.4768 56.6206 28.1663C56.0106 27.8374 55.125 27.4707 53.9639 27.0661L52.7969 31.7625L51.635 36.4813Z" fill="url(#paint5_linear_7235_49190)"/>
<defs>
<linearGradient id="paint0_linear_7235_49190" x1="66" y1="0.308594" x2="66" y2="47.6924" gradientUnits="userSpaceOnUse">
<stop stop-color="#FFE4BA"/>
<stop offset="1" stop-color="#DCB373"/>
</linearGradient>
<linearGradient id="paint1_linear_7235_49190" x1="66" y1="0.308594" x2="66" y2="47.6924" gradientUnits="userSpaceOnUse">
<stop stop-color="#FFE4BA"/>
<stop offset="1" stop-color="#DCB373"/>
</linearGradient>
<linearGradient id="paint2_linear_7235_49190" x1="66" y1="0.308594" x2="66" y2="47.6924" gradientUnits="userSpaceOnUse">
<stop stop-color="#FFE4BA"/>
<stop offset="1" stop-color="#DCB373"/>
</linearGradient>
<linearGradient id="paint3_linear_7235_49190" x1="66" y1="0.308594" x2="66" y2="47.6924" gradientUnits="userSpaceOnUse">
<stop stop-color="#FFE4BA"/>
<stop offset="1" stop-color="#DCB373"/>
</linearGradient>
<linearGradient id="paint4_linear_7235_49190" x1="66" y1="0.308594" x2="66" y2="47.6924" gradientUnits="userSpaceOnUse">
<stop stop-color="#FFE4BA"/>
<stop offset="1" stop-color="#DCB373"/>
</linearGradient>
<linearGradient id="paint5_linear_7235_49190" x1="66" y1="0.308594" x2="66" y2="47.6924" gradientUnits="userSpaceOnUse">
<stop stop-color="#FFE4BA"/>
<stop offset="1" stop-color="#DCB373"/>
</linearGradient>
</defs>
</svg>
