<svg width="168" height="58" viewBox="0 0 168 58" fill="none" xmlns="http://www.w3.org/2000/svg">
<path d="M51.7379 24.82H49.0469V0.396484H52.1628L59.7479 17.8486L66.7193 0.396484H69.8038V24.82H66.9869V10.2635L67.0655 5.90438H66.9869L65.4132 10.2792L61.0856 21.1534H57.891L53.1857 10.232L51.7379 6.26632H51.6592L51.7379 10.232V24.82Z" fill="white"/>
<path d="M75.5634 24.82H72.6206L82.6293 0.396484H85.8396L95.0771 24.82H91.6465L89.1129 18.1004H78.3331L75.5634 24.82ZM79.2931 15.6612H88.1686L83.8882 4.31496L79.2931 15.6612Z" fill="white"/>
<path d="M97.894 24.82V0.396484H101.073V22.1291H113.883V24.82H97.894Z" fill="white"/>
<path d="M119.894 24.82H116.715V0.396484H119.894V24.82Z" fill="white"/>
<path d="M127.448 24.82H124.521V0.396484H127.668L138.826 17.7542L139.848 19.6898L139.785 17.7699V0.396484H142.713V24.82H139.597L128.408 7.38364L127.385 5.41653L127.448 7.38364V24.82Z" fill="white"/>
<path d="M148.488 24.82H145.545L155.554 0.396484H158.764L168.002 24.82H164.571L162.037 18.1004H151.258L148.488 24.82ZM152.218 15.6612H161.093L156.813 4.31496L152.218 15.6612Z" fill="white"/>
<path d="M63.5702 51.5419H66.513V51.6992C66.513 52.6644 66.1773 53.6453 65.5058 54.642C64.8449 55.6387 63.9426 56.3678 62.7991 56.8294C61.6556 57.3015 60.3127 57.5376 58.7705 57.5376C55.6651 57.5376 53.1262 56.457 51.1538 54.2958C49.1815 52.1346 48.1953 48.8981 48.1953 44.5862C48.1953 40.2953 49.1762 37.064 51.1381 34.8923C53.1 32.7206 55.6493 31.6348 58.7862 31.6348C60.3179 31.6348 61.6556 31.8708 62.7991 32.3429C63.9426 32.8045 64.8449 33.5442 65.5058 34.5618C66.1773 35.569 66.513 36.5394 66.513 37.4731V37.6305H63.5702V37.4731C63.5702 36.8751 63.3814 36.3034 63.0037 35.7578C62.6365 35.2018 62.1014 34.7874 61.3985 34.5146C60.7061 34.2313 59.872 34.0897 58.8964 34.0897C56.3994 34.0897 54.5373 35.0759 53.3098 37.0482C52.0928 39.0206 51.4843 41.5332 51.4843 44.5862C51.4843 47.6706 52.098 50.1937 53.3255 52.1556C54.553 54.1175 56.4047 55.0984 58.8806 55.0984C60.5802 55.0984 61.7867 54.7469 62.5001 54.044C63.2135 53.3411 63.5702 52.5595 63.5702 51.6992V51.5419Z" fill="white"/>
<path d="M71.1554 56.798H68.2126L78.2212 32.3744H81.4315L90.669 56.798H87.2384L84.7048 50.0783H73.925L71.1554 56.798ZM74.885 47.6391H83.7606L79.4801 36.2929L74.885 47.6391Z" fill="white"/>
<path d="M92.8879 51.3058H96.0668V51.4632C96.0668 52.8165 96.5441 53.7608 97.4988 54.2958C98.4535 54.8204 99.7229 55.0826 101.307 55.0826C102.692 55.0826 103.851 54.6787 104.785 53.8709C105.729 53.0631 106.201 51.9982 106.201 50.6763C106.201 49.6062 105.797 48.7302 104.99 48.0483C104.182 47.3768 102.954 46.7054 101.307 46.034L100.032 45.5147C98.3014 44.8012 97.0057 44.0983 96.1454 43.4059C95.2957 42.703 94.6609 41.9267 94.2413 41.0769C93.8216 40.2271 93.6118 39.2776 93.6118 38.2285C93.6118 36.382 94.2623 34.8241 95.5632 33.5547C96.8746 32.2852 98.9204 31.6505 101.701 31.6505C104.25 31.6505 106.044 32.1226 107.083 33.0668C108.121 34.011 108.64 35.1126 108.64 36.3716V36.5289H105.462V36.3716C105.462 35.9729 105.299 35.5795 104.974 35.1913C104.659 34.8031 104.182 34.5251 103.542 34.3572C102.902 34.1789 102.199 34.0897 101.433 34.0897C99.8698 34.0897 98.7105 34.4831 97.9552 35.27C97.2103 36.0463 96.8379 36.9328 96.8379 37.9295C96.8379 38.6009 97.0162 39.2357 97.3729 39.8337C97.7296 40.4212 98.2175 40.909 98.8364 41.2972C99.4659 41.6854 100.52 42.2047 102 42.8551L103.495 43.5003C105.887 44.539 107.486 45.6301 108.294 46.7736C109.092 47.9171 109.49 49.1499 109.49 50.4718C109.49 51.6992 109.165 52.89 108.515 54.044C107.864 55.1876 106.962 56.0583 105.808 56.6563C104.654 57.2438 103.117 57.5376 101.197 57.5376C99.3715 57.5376 97.845 57.3173 96.6175 56.8766C95.4006 56.4465 94.4721 55.7331 93.8321 54.7364C93.2027 53.7398 92.8879 52.6487 92.8879 51.4632V51.3058Z" fill="white"/>
<path d="M116.21 56.798H113.031V32.3744H116.21V56.798Z" fill="white"/>
<path d="M123.764 56.798H120.837V32.3744H123.984L135.141 49.7321L136.164 51.6678L136.101 49.7479V32.3744H139.028V56.798H135.912L124.724 39.3616L123.701 37.3944L123.764 39.3616V56.798Z" fill="white"/>
<path d="M153.207 57.5376C150.154 57.5376 147.663 56.415 145.732 54.1699C143.802 51.9248 142.837 48.7302 142.837 44.5862C142.837 40.4421 143.802 37.2528 145.732 35.0182C147.663 32.7731 150.154 31.6505 153.207 31.6505C156.26 31.6505 158.752 32.7731 160.682 35.0182C162.623 37.2528 163.594 40.4421 163.594 44.5862C163.594 48.7302 162.623 51.9248 160.682 54.1699C158.752 56.415 156.26 57.5376 153.207 57.5376ZM153.207 55.0826C155.431 55.0826 157.168 54.1279 158.416 52.2185C159.665 50.2986 160.289 47.7545 160.289 44.5862C160.289 41.4283 159.665 38.8894 158.416 36.9696C157.168 35.0497 155.431 34.0897 153.207 34.0897C150.994 34.0897 149.257 35.0497 147.998 36.9696C146.75 38.8894 146.126 41.4283 146.126 44.5862C146.126 47.7545 146.75 50.2986 147.998 52.2185C149.257 54.1279 150.994 55.0826 153.207 55.0826Z" fill="white"/>
<path d="M18.1415 30.9562C18.227 32.2285 17.7973 33.2429 17.044 34.1258C15.301 36.1687 12.5073 35.7442 11.3012 33.2645C10.2381 31.0789 11.1214 28.5291 13.3054 27.4795C15.3703 26.4869 18.0129 28.0863 18.1399 30.4077C18.1515 30.6179 18.1415 30.8293 18.1415 30.9562ZM14.019 29.7172C14.0091 29.2847 13.781 29.0756 13.3545 29.0977C12.8216 29.1254 12.2731 29.7107 12.3024 30.2259C12.3263 30.6456 12.587 30.8594 12.9876 30.8733C13.4452 30.8894 14.0302 30.2151 14.019 29.7172Z" fill="#B53481"/>
<path d="M14.8906 39.209C14.9319 37.4716 15.7636 36.3798 17.0993 35.6472C18.7137 34.7619 21.3241 35.8609 21.8444 38.0217C22.3981 40.3201 21.3124 42.6467 19.1526 43.6353C18.2096 44.067 17.3562 43.7787 16.6074 43.1513C15.3378 42.0875 14.9594 40.639 14.8906 39.209ZM17.9014 38.065C17.881 37.6554 17.6916 37.3915 17.2599 37.3894C16.805 37.3871 16.2985 37.9717 16.3234 38.4552C16.343 38.8382 16.545 39.0679 16.9378 39.0803C17.4239 39.0955 17.9171 38.5663 17.9014 38.065Z" fill="#B53481"/>
<path d="M26.8319 31.3678C26.8542 33.1008 25.6467 34.855 24.1675 35.4003C22.8946 35.8697 21.4355 35.0608 20.7974 34.1595C20.1451 33.2381 19.8496 32.2505 19.8767 31.1459C19.9248 29.1967 21.4413 27.4277 23.1306 27.4277C25.1996 27.4277 26.6066 29.0285 26.8298 30.9464C26.846 31.085 26.8319 31.2272 26.8319 31.3678ZM21.7152 30.1924C21.7761 30.6087 22.05 30.8832 22.5477 30.874C23.02 30.8653 23.4756 30.381 23.4144 29.9492C23.3468 29.4726 23.0405 29.1953 22.5627 29.1781C22.1102 29.162 21.6942 29.6505 21.7152 30.1924Z" fill="#B53481"/>
<path d="M13.2642 39.1737C13.2188 40.8195 12.8347 42.1886 11.5758 43.1555C10.6408 43.8737 9.65922 43.829 8.74421 43.0868C6.99554 41.6684 6.49574 38.6961 7.76012 36.8236C8.43037 35.8309 9.37487 35.1896 10.6587 35.3759C11.8317 35.5463 12.8619 36.6716 13.1403 38.0491C13.2232 38.4601 13.234 38.8856 13.2642 39.1737ZM9.86182 38.037C9.85604 37.7258 9.73071 37.4544 9.29773 37.461C8.85122 37.4679 8.3438 38.0354 8.36128 38.5269C8.37411 38.8865 8.49734 39.1763 8.9344 39.1684C9.39614 39.1601 9.85294 38.6319 9.86182 38.037Z" fill="#B53481"/>
<path d="M18.8516 48.2472C18.8593 46.2416 19.939 44.6589 21.4465 44.2196C23.3615 43.6614 25.1065 44.9094 25.1836 46.8924C25.2651 48.9886 23.6497 51.3157 21.8249 51.7757C21.0758 51.9645 20.491 51.7438 19.9978 51.1962C19.186 50.2949 18.8961 49.2021 18.8516 48.2472ZM20.1911 47.3502C20.4759 47.0517 20.6479 46.815 20.7384 46.3835C20.3166 46.6523 20.1114 46.872 20.1911 47.3502Z" fill="#8E3682"/>
<path d="M17.329 47.4298C17.3291 49.3086 16.7858 50.5512 15.5799 51.473C14.8538 52.0281 14.0034 52.0258 13.273 51.4686C11.8048 50.3485 11.203 48.804 11.0897 47.0128C11.0075 45.7152 12.2918 44.2438 13.3155 43.9965C14.5039 43.7095 16.0732 44.4324 16.7323 45.5906C17.1231 46.2778 17.3461 47.0092 17.329 47.4298ZM12.3196 46.84C12.3652 47.0109 12.303 47.3672 12.5798 47.2816C12.9718 47.1605 12.9768 46.7041 13.0737 46.3556C13.1216 46.183 13.1113 45.9883 12.869 46.0361C12.4535 46.1183 12.3655 46.4657 12.3196 46.84Z" fill="#B53481"/>
<path d="M23.7969 39.5378C23.8349 38.7988 23.9887 38.0247 24.3952 37.3136C25.0235 36.2147 26.085 35.5752 27.0689 35.7115C28.292 35.881 29.317 36.7978 29.6445 38.0154C30.1569 39.9199 29.2179 42.4458 27.5809 43.5671C26.7378 44.1444 25.9777 44.0713 25.2443 43.3169C24.2418 42.2857 23.8371 41.0155 23.7969 39.5378ZM26.5515 38.251C26.4985 37.7869 26.2618 37.5183 25.8213 37.5468C25.309 37.5799 25.0019 37.9009 25.0216 38.4146C25.0383 38.8503 25.2799 39.1875 25.7707 39.1429C26.3004 39.0945 26.4797 38.691 26.5515 38.251Z" fill="#8E3682"/>
<path d="M9.00738 30.8313C9.01668 32.0588 8.73964 33.1087 8.21573 34.1086C7.89456 34.7215 7.38276 35.1238 6.82459 35.459C5.98966 35.96 4.91434 35.4626 4.29569 34.3426C3.16313 32.2925 3.62854 29.6505 5.39371 28.1112C6.58549 27.0719 8.03935 27.4018 8.65575 28.8634C8.93308 29.5215 9.036 30.2176 9.00738 30.8313ZM4.84343 30.4487C4.86725 30.7032 4.83498 31.0308 5.17123 30.9678C5.7091 30.867 5.86828 30.3988 5.94441 29.9236C5.98488 29.6708 5.88505 29.3982 5.59546 29.4296C4.99471 29.4951 4.99809 30.05 4.84343 30.4487Z" fill="#B53481"/>
<path d="M17.7145 19.3377C17.7135 19.5741 17.7163 19.9731 17.5144 20.0094C17.262 20.0546 17.0527 19.8317 16.8553 19.6623C16.4312 19.2981 16.4209 18.8081 16.4198 18.3082C16.4112 14.8596 16.4036 11.4109 16.3858 7.96236C16.3809 7.00181 16.4024 6.03703 16.21 5.08804C15.9599 3.85439 15.5194 2.70392 14.7226 1.7084C14.4719 1.39527 14.3244 1.04069 14.6419 0.691884C14.9721 0.329263 15.381 0.327986 15.7996 0.539468C16.1474 0.715281 16.3753 1.01277 16.5762 1.3338C17.491 2.79514 17.7923 4.40763 17.7803 6.10667C17.7658 8.14748 17.7769 10.1886 17.7769 12.2295C17.758 12.2294 17.7245 16.9684 17.7145 19.3377Z" fill="#71EF00"/>
<path d="M19.731 27.5789C18.0115 27.5796 16.4648 26.2384 16.4532 24.7364C16.4414 23.1947 17.834 21.9535 19.565 21.9629C21.214 21.972 22.6221 23.3381 22.7001 24.8779C22.7661 26.1831 21.0379 27.7232 19.731 27.5789ZM18.8235 23.3937C18.3485 23.4268 17.9939 23.6494 17.9257 24.1209C17.8745 24.4748 18.1945 24.6172 18.4829 24.5835C18.9368 24.5305 19.3834 24.3399 19.4299 23.8196C19.4615 23.4666 19.1015 23.4302 18.8235 23.3937Z" fill="#B53481"/>
<path d="M5.56141 41.0029C5.53744 41.6613 5.52193 42.3634 5.15819 43.0021C4.77188 43.676 4.14871 43.8452 3.50157 43.4405C1.74345 42.3394 0.756527 39.1235 1.58836 37.2103C1.84214 36.628 2.19037 36.1134 2.87276 36.0429C3.58052 35.971 4.06129 36.4095 4.42786 36.9537C5.24418 38.1619 5.49232 39.5352 5.56141 41.0029Z" fill="#B53481"/>
<path d="M8.84376 25.0378C8.83883 23.1356 10.5589 21.6514 12.4101 21.9897C13.3732 22.1656 14.1307 22.664 14.3832 23.6636C14.69 24.8775 14.096 25.8038 13.2702 26.5974C12.9889 26.8677 12.6249 27.0719 12.2674 27.2394C10.4846 28.0744 8.84898 27.0149 8.84376 25.0378ZM11.6205 23.7923C11.5861 23.5064 11.4226 23.3862 11.1529 23.3707C10.6698 23.343 10.1057 23.8056 10.1262 24.2249C10.1404 24.5167 10.3236 24.6559 10.5903 24.6127C11.0772 24.5342 11.4508 24.2862 11.6205 23.7923Z" fill="#B53481"/>
<path d="M28.5202 31.2728C28.5027 30.5315 28.5203 29.8528 28.8505 29.2265C29.1859 28.5903 29.6199 28.4173 30.31 28.6437C31.2269 28.9444 31.7838 29.636 32.1626 30.4615C32.8561 31.9727 32.9471 33.4993 32.0315 34.9659C31.4389 35.915 30.703 35.982 29.8785 35.2328C29.2605 34.6714 28.9471 33.9505 28.7469 33.1674C28.5836 32.5282 28.5099 31.876 28.5202 31.2728ZM30.3447 31.0112C30.2457 30.6581 30.2862 30.15 29.8056 30.0783C29.5126 30.0344 29.4655 30.4134 29.4838 30.6727C29.5106 31.0508 29.569 31.4776 30.0179 31.5464C30.3161 31.5921 30.3203 31.2617 30.3447 31.0112Z" fill="#8E3682"/>
<path d="M17.7159 52.4277C17.082 52.4905 16.3898 52.5932 15.8092 53.0493C15.1345 53.5793 14.9817 54.1964 15.3553 54.9731C15.8577 56.0173 16.6655 56.7738 17.6244 57.4032C18.1012 57.7162 18.545 57.6375 18.9106 57.3294C19.6417 56.7136 20.3463 56.0534 20.7683 55.1678C21.1323 54.4039 20.9592 53.7408 20.2772 53.2575C19.5332 52.7304 18.7093 52.4272 17.7159 52.4277Z" fill="#8E3682"/>
<path d="M9.66571 49.497C9.69151 51.0517 9.05198 51.4624 7.91124 50.751C6.40746 49.8131 5.39333 48.505 5.32284 46.6487C5.27984 45.5175 5.7891 44.7263 6.5964 44.5571C7.4364 44.381 8.49691 45.0046 8.88971 45.9447C9.39261 47.1484 9.55729 48.4281 9.66571 49.497ZM7.13933 47.4604C7.0577 47.0823 6.98312 46.6549 6.49742 46.5931C6.22052 46.5579 6.18231 46.8287 6.21333 47.0467C6.27057 47.4502 6.38323 47.8657 6.84806 47.9395C7.11848 47.9825 7.11945 47.6856 7.13933 47.4604Z" fill="#B53481"/>
<path d="M30.5421 46.2781C30.5247 48.4058 28.7856 50.7552 26.8493 51.339C26.5419 51.4316 26.1761 51.5626 25.9151 51.3028C25.6579 51.0469 25.8571 50.7161 25.9612 50.4414C26.4933 49.0368 27.0381 47.6371 27.5885 46.2396C27.7622 45.7989 28.025 45.41 28.3773 45.0872C28.7652 44.7317 29.2122 44.5358 29.729 44.7271C30.2451 44.9183 30.4663 45.353 30.5213 45.8797C30.5384 46.0428 30.5387 46.2076 30.5421 46.2781Z" fill="#8E3682"/>
<path d="M29.4456 26.3183C29.4313 27.4877 28.5736 28.1864 27.4716 27.8176C26.0169 27.3306 24.9668 26.3505 24.516 24.8551C24.1419 23.6137 25.0281 22.646 26.317 22.8139C27.8899 23.0189 29.4643 24.7825 29.4456 26.3183ZM25.8769 24.1199C25.6764 24.1441 25.4646 24.2093 25.4772 24.474C25.4909 24.7625 25.7269 24.8347 25.9702 24.8459C26.1866 24.8561 26.4293 24.8254 26.4284 24.5519C26.4273 24.2358 26.1689 24.1543 25.8769 24.1199Z" fill="#B53481"/>
<path d="M31.2912 42.0196C31.3459 40.556 31.5717 39.1253 32.234 37.7974C32.4778 37.3086 32.7709 36.7473 33.3922 36.8257C34.075 36.9119 34.2909 37.5442 34.3579 38.1433C34.5643 39.988 34.1679 41.6935 33.0461 43.1962C32.7645 43.5733 32.4078 44.0108 31.9062 43.8884C31.3797 43.7601 31.3586 43.185 31.2966 42.7227C31.2656 42.4923 31.2912 42.2542 31.2912 42.0196Z" fill="#8E3682"/>
<path d="M6.23104 22.8757C7.33865 22.8794 7.67419 23.3675 7.2556 24.2436C6.5085 25.8072 5.30954 26.984 3.89331 27.9402C3.28241 28.3526 2.84113 28.1226 2.68139 27.386C2.40491 26.1106 3.17061 24.4197 4.42047 23.5576C5.00952 23.1512 5.64073 22.8583 6.23104 22.8757ZM3.82607 26.0405C4.20209 26.022 4.8588 25.0204 4.73487 24.6592C4.65352 24.4219 4.4811 24.4624 4.34025 24.5559C3.93562 24.8243 3.65561 25.1951 3.54606 25.6746C3.49671 25.8909 3.56172 26.0495 3.82607 26.0405Z" fill="#B53481"/>
<path d="M0.0151063 33.3251C0.066849 32.3609 0.254498 31.4146 0.830435 30.6173C1.08435 30.2658 1.39918 29.9933 1.85626 29.9572C2.39399 29.9147 2.69416 30.2058 2.58151 30.7018C2.34874 31.7264 2.11047 32.7508 1.82764 33.7622C1.65211 34.3899 1.4199 35.2033 0.641223 35.0946C-0.0782394 34.9939 -0.0125273 33.8419 0.0151063 33.3251ZM1.17896 31.8954C1.17234 31.709 1.15584 31.4899 0.990458 31.5601C0.573697 31.7369 0.574681 32.1775 0.494177 32.5493C0.464428 32.6868 0.526033 32.8922 0.687605 32.8308C1.12791 32.6635 1.05828 32.2002 1.17896 31.8954Z" fill="#B53481"/>
<path d="M33.2657 27.5044C33.2451 28.0328 33.0591 28.3658 32.5019 27.8024C31.8818 27.1756 31.3569 26.3994 30.8784 25.6638C30.6605 25.3286 29.3083 22.8929 30.7765 23.6217C31.7957 24.1275 32.6204 25.0141 33.0514 26.0673C33.1543 26.3188 33.2851 27.0003 33.2657 27.5044Z" fill="#8E3682"/>
<path d="M35.735 33.6646C35.7332 33.7233 35.7296 33.782 35.7246 33.8403C35.6913 34.2255 35.4781 35.2757 34.8824 34.7796C34.6388 34.5767 34.6535 33.9621 34.6044 33.6747C34.5119 33.1334 34.3959 32.5905 34.3835 32.0388C34.3581 30.9169 35.063 31.4062 35.3905 32.0706C35.633 32.5625 35.7527 33.1162 35.735 33.6646Z" fill="#8E3682"/>
<path d="M24.0847 55.0528C24.0448 55.081 24.0039 55.1079 23.962 55.1336C23.6868 55.3023 22.8623 55.6653 22.8285 54.9409C22.8146 54.6446 23.2303 54.3449 23.3906 54.1604C23.6926 53.8127 23.9813 53.4454 24.3389 53.156C25.0658 52.5675 25.1706 53.3749 24.93 53.9717C24.752 54.4136 24.4584 54.789 24.0847 55.0528Z" fill="#8E3682"/>
<path d="M14.0147 29.7167C14.0258 30.2145 13.4407 30.8888 12.9832 30.8729C12.5827 30.859 12.322 30.6452 12.298 30.2255C12.2687 29.7102 12.8171 29.1248 13.3501 29.0973C13.7768 29.075 14.0048 29.2841 14.0147 29.7167Z" fill="#E7AEBF"/>
<path d="M17.8997 38.0639C17.9149 38.5655 17.4217 39.0947 16.9356 39.0796C16.5428 39.0673 16.3408 38.8375 16.3212 38.4546C16.2964 37.971 16.8028 37.3864 17.2577 37.3887C17.6895 37.3907 17.8788 37.6546 17.8997 38.0639Z" fill="#E7AEBF"/>
<path d="M21.7117 30.1904C21.6907 29.6485 22.1067 29.1601 22.5593 29.1762C23.0371 29.1932 23.3435 29.4707 23.411 29.9472C23.4722 30.3792 23.0165 30.8635 22.5444 30.8721C22.0467 30.8813 21.7726 30.6069 21.7117 30.1904Z" fill="#DC859F"/>
<path d="M9.86817 38.037C9.85929 38.632 9.40249 39.1601 8.94075 39.1684C8.50369 39.1763 8.38032 38.8866 8.36763 38.5269C8.35014 38.0354 8.85771 37.468 9.30408 37.4611C9.73706 37.4543 9.86239 37.7258 9.86817 38.037Z" fill="#E7AEBF"/>
<path d="M20.1914 47.3511C19.728 47.2086 20.3272 46.0999 20.7387 46.3844C21.1015 46.6351 20.5857 47.4724 20.1914 47.3511Z" fill="#B53481"/>
<path d="M12.3203 46.8406C12.3663 46.4663 12.4541 46.1189 12.8699 46.0367C13.1121 45.9887 13.1225 46.1836 13.0746 46.3562C12.9777 46.7047 12.9725 47.1611 12.5807 47.2822C12.3038 47.3677 12.3661 47.0115 12.3203 46.8406Z" fill="#DC859F"/>
<path d="M26.5542 38.2514C26.4824 38.6915 26.3031 39.0949 25.7734 39.1431C25.2826 39.1876 25.041 38.8505 25.0243 38.4147C25.0047 37.9013 25.3117 37.5802 25.824 37.547C26.2645 37.5186 26.5012 37.7872 26.5542 38.2514Z" fill="#B53481"/>
<path d="M4.83958 30.4492C4.86679 30.1338 4.99087 29.4955 5.59176 29.4302C5.88135 29.3987 5.98116 29.6715 5.9407 29.9242C5.86457 30.3992 5.70525 30.8676 5.16752 30.9684C4.83126 31.0311 4.82646 30.6021 4.83958 30.4492Z" fill="#E7AEBF"/>
<path d="M18.8173 23.3926C19.0954 23.4291 19.4553 23.4655 19.4237 23.8185C19.3772 24.3387 18.9308 24.5294 18.4767 24.5824C18.1884 24.6161 17.8683 24.4737 17.9195 24.1198C17.9877 23.6483 18.3423 23.4257 18.8173 23.3926Z" fill="#DC859F"/>
<path d="M3.01285 38.7755C3.07051 39.1335 3.01397 39.5305 2.66136 39.5271C2.16677 39.5225 2.17481 39.0341 2.12744 38.6827C2.0898 38.4039 2.14267 38.0429 2.5098 38.0591C2.98296 38.0798 2.97281 38.5264 3.01285 38.7755Z" fill="#E7AEBF"/>
<path d="M11.6199 23.792C11.4501 24.2858 11.0765 24.5339 10.5897 24.6124C10.3229 24.6554 10.1398 24.5162 10.1255 24.2245C10.1051 23.8054 10.6691 23.3427 11.1522 23.3703C11.4219 23.3858 11.5855 23.5061 11.6199 23.792Z" fill="#E7AEBF"/>
<path d="M30.3409 31.0107C30.3165 31.2611 30.3123 31.5915 30.0141 31.5458C29.5652 31.477 29.5068 31.0502 29.48 30.6721C29.4617 30.413 29.5088 30.034 29.8018 30.0777C30.2824 30.1496 30.2419 30.6577 30.3409 31.0107Z" fill="#B53481"/>
<path d="M7.13831 47.4603C7.11843 47.6855 7.11744 47.9824 6.84688 47.9394C6.38204 47.8655 6.2694 47.45 6.21216 47.0465C6.18114 46.8286 6.21935 46.5577 6.49625 46.593C6.98196 46.6547 7.05653 47.0822 7.13831 47.4603Z" fill="#DC859F"/>
<path d="M25.8768 24.1211C26.1689 24.1555 26.4274 24.2371 26.4284 24.5531C26.4292 24.8266 26.1866 24.8572 25.9701 24.8472C25.7267 24.8357 25.4908 24.7637 25.4771 24.4753C25.4645 24.2105 25.6762 24.1452 25.8768 24.1211Z" fill="#DC859F"/>
<path d="M3.82577 26.041C3.56212 26.0495 3.49712 25.8909 3.54646 25.6746C3.65601 25.1951 3.93602 24.8243 4.34066 24.5559C4.4815 24.4624 4.65378 24.4221 4.73527 24.6592C4.85906 25.0206 4.20249 26.022 3.82577 26.041Z" fill="#E7AEBF"/>
<path d="M1.17639 31.8956C1.05571 32.2002 1.12534 32.6637 0.685032 32.831C0.52346 32.8925 0.461855 32.687 0.491604 32.5495C0.572108 32.1777 0.571124 31.7371 0.987885 31.5603C1.15326 31.4901 1.16991 31.7092 1.17639 31.8956Z" fill="#E7AEBF"/>
<path d="M11.9347 54.8922C11.4022 54.4905 10.9324 54.0179 10.6978 53.38C10.5944 53.0991 10.5598 52.8134 10.7154 52.5375C10.8986 52.2129 11.1811 52.1533 11.4218 52.4092C11.9189 52.9379 12.414 53.4697 12.8844 54.0221C13.1762 54.3648 13.5527 54.8118 13.1899 55.216C12.8549 55.5895 12.22 55.1074 11.9347 54.8922ZM11.5646 53.6736C11.4553 53.6053 11.3234 53.5303 11.2997 53.6521C11.2402 53.9592 11.493 54.1287 11.675 54.3182C11.7423 54.3883 11.8838 54.4322 11.9109 54.3159C11.985 53.9993 11.6926 53.8604 11.5646 53.6736Z" fill="#B53481"/>
<path d="M11.5705 53.6741C11.6985 53.8607 11.9909 53.9996 11.9169 54.3165C11.8898 54.4328 11.7483 54.3889 11.6811 54.3188C11.4991 54.1293 11.2462 53.9598 11.3057 53.6527C11.3293 53.5308 11.4612 53.606 11.5705 53.6741Z" fill="#DC859F"/>
<path d="M14.1075 10.0099C13.4678 8.94709 12.4086 8.18378 11.2422 7.7525C10.6815 7.5451 10.0952 7.40539 9.5018 7.33306C7.03789 7.0329 4.41918 7.73207 1.97656 8.03547C2.7699 8.83431 3.08206 9.58606 3.33387 10.2442C4.55976 13.449 6.06833 17.7219 9.73543 18.5918C11.09 18.9131 12.529 18.7645 13.4734 17.6406C14.0491 16.9556 14.3576 16.0838 14.5421 15.2082C14.8526 13.7349 15.0005 12.1058 14.43 10.6618C14.3399 10.4334 14.2315 10.216 14.1075 10.0099Z" fill="#71EF00"/>
<path d="M19.3473 11.4324C19.7255 10.5869 20.8671 9.17531 22.0752 8.64323C22.6561 8.38733 23.2708 8.19149 23.8997 8.05755C26.5114 7.50164 29.3866 7.85778 32.0343 7.86567C31.2619 8.69793 31.0005 9.43218 30.7948 10.0727C29.7932 13.1915 28.5927 17.3354 24.7467 18.5564C23.3259 19.0074 21.7691 19.0308 20.6472 18.0914C19.9635 17.519 19.5477 16.7426 19.2646 15.9489C18.7884 14.6135 18.846 12.5531 19.3473 11.4324Z" fill="#71EF00"/>
</svg>
