<svg width="148" height="26" viewBox="0 0 148 26" fill="none" xmlns="http://www.w3.org/2000/svg">
<path d="M1.19369 22.7842C1.55012 22.1675 2.05969 21.6733 2.65859 21.2917C3.63142 20.6718 4.82749 20.3094 6.0716 20.0158C8.55997 19.4287 11.2658 19.0825 12.6763 18.0269C14.0002 17.0361 14.6204 15.9276 14.7622 14.8723C14.8233 14.4183 14.7942 13.9702 14.6868 13.5418C11.321 13.5115 7.50316 14.9673 5.40404 17.4576C6.96238 14.5506 10.0403 12.4293 13.8252 11.955L14.1172 12.2991C14.0393 12.1874 13.9559 12.0795 13.8673 11.9757C12.4744 10.3391 9.66991 9.5316 6.4878 11.2571C5.0258 12.0499 3.15542 13.7651 1.99754 16.0051C0.995952 17.943 0.509485 20.2585 1.19369 22.7842ZM5.67897 7.20286C6.25725 7.05993 6.84681 7.06078 7.41797 7.17333C8.41627 7.37017 9.37946 7.8643 10.3254 8.43038C12.2171 9.56256 14.0838 10.969 15.5883 11.1488C17.0134 11.3189 18.0788 10.9949 18.8257 10.4225C19.1454 10.1778 19.4163 9.87784 19.6244 9.53828C17.5953 7.51075 14.3692 6.14894 11.5222 6.4568C14.3118 5.56163 17.5178 6.0671 20.1149 8.02706C20.2783 6.19109 19.1041 4.0512 16.1225 3.23827C14.741 2.86168 12.5177 2.81777 10.3961 3.53286C8.59512 4.13992 6.86609 5.27189 5.67897 7.20286ZM15.2539 25.312C17.5375 25.0548 19.3064 23.9818 20.6176 22.6266C22.1619 21.0303 23.0448 19.027 23.2695 17.6377C23.7546 14.6392 22.2585 12.7036 20.4887 12.0866C21.2264 15.2184 20.3631 18.2894 18.3742 20.4069C19.8425 17.9936 19.9207 14.5489 18.8839 11.8955C18.4827 11.9398 18.092 12.0566 17.7323 12.2401C16.8913 12.6689 16.1482 13.4871 15.7139 14.8297C15.2556 16.2469 15.7841 18.4965 16.0477 20.6552C16.1796 21.7345 16.2382 22.7989 16.0058 23.7716C15.8728 24.3284 15.6269 24.855 15.2539 25.312Z" fill="#001512"/>
<path d="M0.318692 22.0245C0.675125 21.4077 1.18469 20.9136 1.78359 20.5319C2.75642 19.9121 3.95249 19.5496 5.1966 19.256C7.68497 18.669 10.3908 18.3227 11.8013 17.2672C13.1252 16.2764 13.7454 15.1678 13.8872 14.1125C13.9483 13.6585 13.9192 13.2104 13.8118 12.7821C10.446 12.7517 6.62816 14.2076 4.52904 16.6978C6.08738 13.7908 9.16528 11.6695 12.9502 11.1952L13.2422 11.5393C13.1643 11.4277 13.0809 11.3197 12.9923 11.216C11.5994 9.57928 8.79491 8.77184 5.6128 10.4974C4.1508 11.2902 2.28042 13.0053 1.12254 15.2454C0.120952 17.1833 -0.365515 19.4988 0.318692 22.0245ZM4.80397 6.44309C5.38225 6.30017 5.97181 6.30101 6.54297 6.41356C7.54127 6.6104 8.50446 7.10454 9.45036 7.67061C11.3421 8.80279 13.2088 10.2093 14.7133 10.389C16.1384 10.5591 17.2038 10.2351 17.9507 9.66274C18.2704 9.41799 18.5413 9.11808 18.7494 8.77852C16.7203 6.75098 13.4942 5.38918 10.6472 5.69703C13.4368 4.80187 16.6428 5.30733 19.2399 7.2673C19.4033 5.43132 18.2291 3.29143 15.2475 2.4785C13.866 2.10191 11.6427 2.058 9.52112 2.77309C7.72012 3.38015 5.99109 4.51212 4.80397 6.44309ZM14.3789 24.5522C16.6625 24.2951 18.4314 23.2221 19.7426 21.8668C21.2869 20.2705 22.1698 18.2672 22.3945 16.8779C22.8796 13.8795 21.3835 11.9439 19.6137 11.3268C20.3514 14.4586 19.4881 17.5297 17.4992 19.6471C18.9675 17.2339 19.0457 13.7891 18.0089 11.1358C17.6077 11.18 17.217 11.2969 16.8573 11.4803C16.0163 11.9092 15.2732 12.7274 14.8389 14.07C14.3806 15.4872 14.9091 17.7367 15.1727 19.8954C15.3046 20.9747 15.3632 22.0391 15.1308 23.0118C14.9978 23.5686 14.7519 24.0953 14.3789 24.5522Z" fill="#A0CE2A"/>
<path d="M19.9656 25.357V1.96841H26.5354V25.357H19.9656ZM12.9688 7.55276V1.96841H33.5652V7.55276H12.9688Z" fill="#001512"/>
<path d="M45.8566 25.7512C43.7981 25.7512 42.0023 25.3351 40.4694 24.5029C38.9364 23.6488 37.7429 22.4772 36.8888 20.9881C36.0347 19.4989 35.6077 17.7907 35.6077 15.8636V1.96841H42.1775V16.4549C42.1775 17.1995 42.3418 17.8345 42.6703 18.3601C42.9988 18.8857 43.4367 19.2909 43.9842 19.5755C44.5536 19.8383 45.1777 19.9697 45.8566 19.9697C46.5574 19.9697 47.1706 19.8383 47.6962 19.5755C48.2437 19.2909 48.6707 18.8967 48.9773 18.393C49.2839 17.8674 49.4372 17.2323 49.4372 16.4877V1.96841H56.0399V15.8964C56.0399 17.8236 55.6128 19.5317 54.7587 21.0209C53.9266 22.4882 52.744 23.6488 51.211 24.5029C49.7 25.3351 47.9152 25.7512 45.8566 25.7512Z" fill="#001512"/>
<path d="M71.0476 25.7512C69.2518 25.7512 67.5765 25.4555 66.0216 24.8643C64.4887 24.2511 63.1419 23.397 61.9812 22.302C60.8205 21.2071 59.9117 19.9259 59.2547 18.4587C58.6196 16.9695 58.3021 15.3599 58.3021 13.6299C58.3021 11.8779 58.6196 10.2683 59.2547 8.80103C59.9117 7.33377 60.8096 6.0636 61.9483 4.99053C63.109 3.91746 64.4558 3.08528 65.9888 2.49399C67.5217 1.88081 69.1861 1.57422 70.9819 1.57422C72.7995 1.57422 74.4639 1.85891 75.9749 2.4283C77.486 2.99768 78.7999 3.78606 79.9168 4.79343L75.5479 9.19522C75.0223 8.62583 74.3763 8.1769 73.6098 7.8484C72.8652 7.51991 71.9892 7.35567 70.9819 7.35567C70.1059 7.35567 69.2956 7.49801 68.551 7.78271C67.8283 8.0674 67.2042 8.48349 66.6786 9.03097C66.153 9.57846 65.7369 10.2464 65.4304 11.0348C65.1457 11.8012 65.0033 12.6663 65.0033 13.6299C65.0033 14.6153 65.1457 15.5023 65.4304 16.2906C65.7369 17.0571 66.153 17.7141 66.6786 18.2616C67.2042 18.8091 67.8283 19.2361 68.551 19.5427C69.2956 19.8274 70.1059 19.9697 70.9819 19.9697C71.9673 19.9697 72.8433 19.8164 73.6098 19.5098C74.3982 19.2033 75.077 18.7543 75.6464 18.163L80.0482 22.5648C78.8875 23.5722 77.5845 24.3606 76.1392 24.93C74.6938 25.4774 72.9966 25.7512 71.0476 25.7512Z" fill="#001512"/>
<path d="M80.0066 25.357L88.9088 1.96841H95.61L104.414 25.357H97.5809L91.0439 5.48327H93.4091L86.7079 25.357H80.0066ZM85.7881 21.4151V16.2906H98.862V21.4151H85.7881Z" fill="#001512"/>
<path d="M106.288 25.357V1.96841H110.887L112.858 6.89578V25.357H106.288ZM122.384 25.357L108.818 8.30829L110.887 1.96841L124.454 19.0171L122.384 25.357ZM122.384 25.357L120.742 20.1668V1.96841H127.312V25.357H122.384Z" fill="#001512"/>
<path d="M20.6297 24.0347V0.646143H27.1995V24.0347H20.6297ZM13.6328 6.23049V0.646143H34.2292V6.23049H13.6328Z" fill="url(#paint0_linear_8271_28040)"/>
<path d="M46.5207 24.4289C44.4621 24.4289 42.6664 24.0128 41.1334 23.1806C39.6005 22.3266 38.407 21.155 37.5529 19.6658C36.6988 18.1766 36.2718 16.4685 36.2718 14.5413V0.646143H42.8416V15.1326C42.8416 15.8772 43.0058 16.5123 43.3343 17.0379C43.6628 17.5634 44.1008 17.9686 44.6483 18.2533C45.2177 18.5161 45.8418 18.6475 46.5207 18.6475C47.2215 18.6475 47.8347 18.5161 48.3602 18.2533C48.9077 17.9686 49.3348 17.5744 49.6414 17.0707C49.948 16.5451 50.1012 15.91 50.1012 15.1655V0.646143H56.7039V14.5742C56.7039 16.5013 56.2769 18.2095 55.4228 19.6986C54.5906 21.1659 53.4081 22.3266 51.8751 23.1806C50.364 24.0128 48.5792 24.4289 46.5207 24.4289Z" fill="url(#paint1_linear_8271_28040)"/>
<path d="M71.7116 24.4289C69.9159 24.4289 68.2406 24.1333 66.6857 23.542C65.1527 22.9288 63.8059 22.0747 62.6453 20.9798C61.4846 19.8848 60.5758 18.6037 59.9188 17.1364C59.2837 15.6472 58.9661 14.0376 58.9661 12.3076C58.9661 10.5556 59.2837 8.94602 59.9188 7.47876C60.5758 6.0115 61.4736 4.74133 62.6124 3.66826C63.7731 2.59519 65.1199 1.76301 66.6528 1.17173C68.1858 0.558545 69.8502 0.251953 71.6459 0.251953C73.4636 0.251953 75.1279 0.536646 76.639 1.10603C78.15 1.67542 79.464 2.46379 80.5809 3.47117L76.2119 7.87295C75.6864 7.30357 75.0403 6.85463 74.2738 6.52614C73.5293 6.19765 72.6533 6.0334 71.6459 6.0334C70.7699 6.0334 69.9597 6.17575 69.2151 6.46044C68.4924 6.74513 67.8683 7.16122 67.3427 7.70871C66.8171 8.25619 66.401 8.92412 66.0944 9.7125C65.8097 10.479 65.6674 11.344 65.6674 12.3076C65.6674 13.2931 65.8097 14.18 66.0944 14.9684C66.401 15.7348 66.8171 16.3918 67.3427 16.9393C67.8683 17.4868 68.4924 17.9138 69.2151 18.2204C69.9597 18.5051 70.7699 18.6475 71.6459 18.6475C72.6314 18.6475 73.5074 18.4942 74.2738 18.1876C75.0622 17.881 75.7411 17.4321 76.3105 16.8408L80.7123 21.2425C79.5516 22.2499 78.2486 23.0383 76.8032 23.6077C75.3579 24.1552 73.6607 24.4289 71.7116 24.4289Z" fill="url(#paint2_linear_8271_28040)"/>
<path d="M80.6707 24.0347L89.5728 0.646143H96.274L105.078 24.0347H98.245L91.708 4.161H94.0731L87.3719 24.0347H80.6707ZM86.4521 20.0928V14.9684H99.5261V20.0928H86.4521Z" fill="url(#paint3_linear_8271_28040)"/>
<path d="M106.952 24.0347V0.646143H111.551L113.522 5.57351V24.0347H106.952ZM123.048 24.0347L109.482 6.98602L111.551 0.646143L125.118 17.6948L123.048 24.0347ZM123.048 24.0347L121.406 18.8446V0.646143H127.976V24.0347H123.048Z" fill="url(#paint4_linear_8271_28040)"/>
<path d="M147.02 22.7842C146.663 22.1675 146.154 21.6733 145.555 21.2917C144.582 20.6718 143.386 20.3094 142.142 20.0158C139.654 19.4287 136.948 19.0825 135.537 18.0269C134.213 17.0361 133.593 15.9276 133.451 14.8723C133.39 14.4183 133.419 13.9702 133.527 13.5418C136.893 13.5115 140.71 14.9673 142.81 17.4576C141.251 14.5506 138.173 12.4293 134.388 11.955L134.096 12.2991C134.174 12.1874 134.258 12.0795 134.346 11.9757C135.739 10.3391 138.544 9.5316 141.726 11.2571C143.188 12.0499 145.058 13.7651 146.216 16.0051C147.218 17.943 147.704 20.2585 147.02 22.7842ZM142.535 7.20286C141.956 7.05993 141.367 7.06078 140.796 7.17333C139.797 7.37017 138.834 7.8643 137.888 8.43038C135.996 9.56256 134.13 10.969 132.625 11.1488C131.2 11.3189 130.135 10.9949 129.388 10.4225C129.068 10.1778 128.797 9.87784 128.589 9.53828C130.618 7.51075 133.844 6.14894 136.691 6.4568C133.902 5.56163 130.696 6.0671 128.099 8.02706C127.935 6.19109 129.11 4.0512 132.091 3.23827C133.473 2.86168 135.696 2.81777 137.817 3.53286C139.618 4.13992 141.347 5.27189 142.535 7.20286ZM132.96 25.312C130.676 25.0548 128.907 23.9818 127.596 22.6266C126.052 21.0303 125.169 19.027 124.944 17.6377C124.459 14.6392 125.955 12.7036 127.725 12.0866C126.987 15.2184 127.851 18.2894 129.839 20.4069C128.371 17.9936 128.293 14.5489 129.33 11.8955C129.731 11.9398 130.122 12.0566 130.481 12.2401C131.322 12.6689 132.065 13.4871 132.5 14.8297C132.958 16.2469 132.429 18.4965 132.166 20.6552C132.034 21.7345 131.975 22.7989 132.208 23.7716C132.341 24.3284 132.587 24.855 132.96 25.312Z" fill="#001512"/>
<path d="M147.684 22.0245C147.328 21.4077 146.818 20.9136 146.219 20.5319C145.246 19.9121 144.05 19.5496 142.806 19.256C140.318 18.669 137.612 18.3227 136.201 17.2672C134.877 16.2764 134.257 15.1678 134.115 14.1125C134.054 13.6585 134.083 13.2104 134.191 12.7821C137.557 12.7517 141.374 14.2076 143.474 16.6978C141.915 13.7908 138.837 11.6695 135.052 11.1952L134.76 11.5393C134.838 11.4277 134.922 11.3197 135.01 11.216C136.403 9.57929 139.208 8.77184 142.39 10.4974C143.852 11.2902 145.722 13.0053 146.88 15.2454C147.882 17.1833 148.368 19.4988 147.684 22.0245ZM143.199 6.44309C142.62 6.30017 142.031 6.30102 141.46 6.41357C140.461 6.6104 139.498 7.10454 138.552 7.67061C136.661 8.80279 134.794 10.2093 133.289 10.389C131.864 10.5592 130.799 10.2351 130.052 9.66274C129.732 9.41799 129.461 9.11808 129.253 8.77852C131.282 6.75098 134.508 5.38918 137.355 5.69704C134.566 4.80187 131.36 5.30733 128.763 7.2673C128.599 5.43132 129.774 3.29143 132.755 2.4785C134.137 2.10191 136.36 2.058 138.482 2.77309C140.283 3.38015 142.012 4.51212 143.199 6.44309ZM133.624 24.5522C131.34 24.2951 129.571 23.2221 128.26 21.8668C126.716 20.2705 125.833 18.2672 125.608 16.8779C125.123 13.8795 126.619 11.9439 128.389 11.3268C127.651 14.4586 128.515 17.5297 130.503 19.6471C129.035 17.2339 128.957 13.7891 129.994 11.1358C130.395 11.18 130.786 11.2969 131.145 11.4803C131.986 11.9092 132.729 12.7274 133.164 14.07C133.622 15.4872 133.094 17.7367 132.83 19.8954C132.698 20.9747 132.639 22.0391 132.872 23.0118C133.005 23.5686 133.251 24.0953 133.624 24.5522Z" fill="#A0CE2A"/>
<path d="M1.19369 22.7842C1.55012 22.1675 2.05969 21.6733 2.65859 21.2917C3.63142 20.6718 4.82749 20.3094 6.0716 20.0158C8.55997 19.4287 11.2658 19.0825 12.6763 18.0269C14.0002 17.0361 14.6204 15.9276 14.7622 14.8723C14.8233 14.4183 14.7942 13.9702 14.6868 13.5418C11.321 13.5115 7.50316 14.9673 5.40404 17.4576C6.96238 14.5506 10.0403 12.4293 13.8252 11.955L14.1172 12.2991C14.0393 12.1874 13.9559 12.0795 13.8673 11.9757C12.4744 10.3391 9.66991 9.53161 6.4878 11.2571C5.0258 12.0499 3.15542 13.7651 1.99754 16.0051C0.995952 17.9431 0.509485 20.2585 1.19369 22.7842ZM5.67897 7.20286C6.25724 7.05994 6.84681 7.06078 7.41797 7.17333C8.41627 7.37017 9.37946 7.8643 10.3254 8.43038C12.2171 9.56256 14.0838 10.969 15.5883 11.1488C17.0134 11.3189 18.0788 10.9949 18.8257 10.4225C19.1454 10.1778 19.4163 9.87785 19.6244 9.53828C17.5953 7.51075 14.3692 6.14894 11.5222 6.4568C14.3118 5.56164 17.5178 6.0671 20.1149 8.02707C20.2783 6.19109 19.1041 4.0512 16.1225 3.23827C14.741 2.86168 12.5177 2.81777 10.3961 3.53286C8.59512 4.13992 6.86609 5.27189 5.67897 7.20286Z" fill="#001512"/>
<path d="M0.318692 22.0245C0.675125 21.4077 1.18469 20.9136 1.78359 20.5319C2.75642 19.9121 3.95249 19.5496 5.1966 19.256C7.68497 18.669 10.3908 18.3227 11.8013 17.2672C13.1252 16.2764 13.7454 15.1678 13.8872 14.1125C13.9483 13.6585 13.9192 13.2104 13.8118 12.7821C10.446 12.7517 6.62816 14.2076 4.52904 16.6978C6.08738 13.7908 9.16528 11.6695 12.9502 11.1952L13.2422 11.5393C13.1643 11.4277 13.0809 11.3197 12.9923 11.216C11.5994 9.57929 8.79491 8.77184 5.6128 10.4974C4.1508 11.2902 2.28042 13.0053 1.12254 15.2454C0.120952 17.1833 -0.365515 19.4988 0.318692 22.0245ZM4.80397 6.44309C5.38224 6.30017 5.97181 6.30102 6.54297 6.41357C7.54127 6.6104 8.50446 7.10454 9.45036 7.67061C11.3421 8.80279 13.2088 10.2093 14.7133 10.389C16.1384 10.5592 17.2038 10.2351 17.9507 9.66274C18.2704 9.41799 18.5413 9.11808 18.7494 8.77852C16.7203 6.75098 13.4942 5.38918 10.6472 5.69704C13.4368 4.80187 16.6428 5.30733 19.2399 7.2673C19.4033 5.43132 18.2291 3.29143 15.2475 2.4785C13.866 2.10191 11.6427 2.058 9.52112 2.77309C7.72012 3.38015 5.99109 4.51212 4.80397 6.44309Z" fill="#A0CE2A"/>
<defs>
<linearGradient id="paint0_linear_8271_28040" x1="71.5074" y1="-16.9572" x2="71.5074" y2="40.5636" gradientUnits="userSpaceOnUse">
<stop offset="0.495192" stop-color="#FEC728"/>
<stop offset="0.495292" stop-color="#FD9822"/>
</linearGradient>
<linearGradient id="paint1_linear_8271_28040" x1="71.5074" y1="-16.9572" x2="71.5074" y2="40.5636" gradientUnits="userSpaceOnUse">
<stop offset="0.495192" stop-color="#FEC728"/>
<stop offset="0.495292" stop-color="#FD9822"/>
</linearGradient>
<linearGradient id="paint2_linear_8271_28040" x1="71.5074" y1="-16.9572" x2="71.5074" y2="40.5636" gradientUnits="userSpaceOnUse">
<stop offset="0.495192" stop-color="#FEC728"/>
<stop offset="0.495292" stop-color="#FD9822"/>
</linearGradient>
<linearGradient id="paint3_linear_8271_28040" x1="71.5074" y1="-16.9572" x2="71.5074" y2="40.5636" gradientUnits="userSpaceOnUse">
<stop offset="0.495192" stop-color="#FEC728"/>
<stop offset="0.495292" stop-color="#FD9822"/>
</linearGradient>
<linearGradient id="paint4_linear_8271_28040" x1="71.5074" y1="-16.9572" x2="71.5074" y2="40.5636" gradientUnits="userSpaceOnUse">
<stop offset="0.495192" stop-color="#FEC728"/>
<stop offset="0.495292" stop-color="#FD9822"/>
</linearGradient>
</defs>
</svg>
