<svg width="139" height="66" viewBox="0 0 139 66" fill="none" xmlns="http://www.w3.org/2000/svg">
<g clip-path="url(#clip0_561_21467)">
<path d="M10.9399 58.4014C4.86545 58.4014 0.353841 53.7128 0.353841 47.7858V47.7268C0.353841 41.8588 4.77699 37.0523 11.1168 37.0523C14.213 37.0523 16.3067 37.878 18.0169 39.1459C18.4888 39.4998 18.9016 40.1485 18.9016 40.9447C18.9016 42.1832 17.899 43.1563 16.6605 43.1563C16.0413 43.1563 15.6284 42.9204 15.3041 42.7139C14.0361 41.7703 12.7092 41.2396 11.0873 41.2396C7.60781 41.2396 5.10135 44.1294 5.10135 47.6679V47.7268C5.10135 51.2654 7.54883 54.2141 11.0873 54.2141C13.004 54.2141 14.272 53.6244 15.5695 52.5923C15.9233 52.2974 16.3951 52.091 16.9259 52.091C18.0759 52.091 19.049 53.0346 19.049 54.1846C19.049 54.8923 18.6952 55.4526 18.2823 55.8065C16.4246 57.4283 14.2425 58.4014 10.9399 58.4014Z" fill="url(#paint0_linear_561_21467)"/>
<path d="M21.6227 56.1013C21.6227 55.777 21.7407 55.4526 21.8881 55.1283L29.0831 38.8805C29.5844 37.76 30.4985 37.0818 31.737 37.0818H32.0024C33.2409 37.0818 34.1255 37.76 34.6268 38.8805L41.8218 55.1283C41.9692 55.4526 42.0577 55.7475 42.0577 56.0424C42.0577 57.2514 41.1141 58.2245 39.9051 58.2245C38.8435 58.2245 38.1358 57.6052 37.723 56.6616L36.3371 53.418H27.2549L25.81 56.809C25.4266 57.6937 24.66 58.2245 23.7164 58.2245C22.5369 58.2245 21.6227 57.2808 21.6227 56.1013ZM28.9357 49.4076H34.6563L31.796 42.596L28.9357 49.4076Z" fill="url(#paint1_linear_561_21467)"/>
<path d="M52.8131 58.3424C50.1002 58.3424 47.3579 57.5168 45.0578 55.8654C44.5565 55.5116 44.2027 54.8629 44.2027 54.1552C44.2027 52.9757 45.1463 52.0615 46.3258 52.0615C46.9155 52.0615 47.3284 52.2679 47.6233 52.4744C49.1861 53.6244 50.8964 54.3321 52.9015 54.3321C54.7593 54.3321 55.8798 53.5949 55.8798 52.3859V52.3269C55.8798 51.1769 55.1721 50.5872 51.722 49.7025C47.5643 48.641 44.8809 47.4909 44.8809 43.3922V43.3332C44.8809 39.5882 47.8886 37.1113 52.1054 37.1113C54.6118 37.1113 56.7939 37.76 58.6516 38.9395C59.1529 39.2344 59.6542 39.8536 59.6542 40.7383C59.6542 41.9178 58.7106 42.8319 57.5311 42.8319C57.0888 42.8319 56.7349 42.7139 56.3811 42.5075C54.8772 41.6229 53.4618 41.1216 52.0464 41.1216C50.3066 41.1216 49.3925 41.9178 49.3925 42.9204V42.9793C49.3925 44.3358 50.2771 44.7781 53.8451 45.6922C58.0324 46.7832 60.3914 48.2871 60.3914 51.8846V51.9436C60.3914 56.0424 57.2657 58.3424 52.8131 58.3424Z" fill="url(#paint2_linear_561_21467)"/>
<path d="M64.5388 55.9539V39.4998C64.5388 38.2318 65.5414 37.2292 66.8093 37.2292C68.0773 37.2292 69.0799 38.2318 69.0799 39.4998V55.9539C69.0799 57.2219 68.0773 58.2245 66.8093 58.2245C65.5414 58.2245 64.5388 57.2219 64.5388 55.9539Z" fill="url(#paint3_linear_561_21467)"/>
<path d="M74.2384 55.9834V39.5588C74.2384 38.2908 75.241 37.2882 76.5089 37.2882H76.9808C78.0718 37.2882 78.7205 37.819 79.3398 38.6152L88.0976 50.1153V39.4703C88.0976 38.2318 89.1002 37.2292 90.3387 37.2292C91.5771 37.2292 92.5797 38.2318 92.5797 39.4703V55.8949C92.5797 57.1629 91.5771 58.1655 90.3092 58.1655H90.1617C89.0707 58.1655 88.422 57.6347 87.8027 56.8385L78.7205 44.9255V55.9834C78.7205 57.2219 77.7179 58.2245 76.4795 58.2245C75.241 58.2245 74.2384 57.2219 74.2384 55.9834Z" fill="url(#paint4_linear_561_21467)"/>
<path d="M107.561 58.4014C101.191 58.4014 96.6207 53.6539 96.6207 47.7858V47.7268C96.6207 41.8588 101.25 37.0523 107.62 37.0523C113.989 37.0523 118.56 41.7998 118.56 47.6679V47.7268C118.56 53.5949 113.93 58.4014 107.561 58.4014ZM107.62 54.2141C111.276 54.2141 113.812 51.3243 113.812 47.7858V47.7268C113.812 44.1883 111.217 41.2396 107.561 41.2396C103.904 41.2396 101.368 44.1294 101.368 47.6679V47.7268C101.368 51.2654 103.963 54.2141 107.62 54.2141Z" fill="url(#paint5_linear_561_21467)"/>
<path d="M8.6104 30.7686C5.89753 30.7686 3.15518 29.943 0.855142 28.2917C0.353852 27.9378 0 27.2891 0 26.5814C0 25.4019 0.943605 24.4877 2.12311 24.4877C2.71286 24.4877 3.12569 24.6942 3.42057 24.9006C4.98341 26.0506 6.6937 26.7583 8.69886 26.7583C10.5566 26.7583 11.6771 26.0211 11.6771 24.8121V24.7531C11.6771 23.6031 10.9694 23.0134 7.51935 22.1287C3.36159 21.0672 0.678216 19.9172 0.678216 15.8184V15.7594C0.678216 12.0145 3.68596 9.5375 7.90269 9.5375C10.4091 9.5375 12.5912 10.1862 14.449 11.3657C14.9502 11.6606 15.4515 12.2799 15.4515 13.1645C15.4515 14.344 14.5079 15.2581 13.3284 15.2581C12.8861 15.2581 12.5323 15.1402 12.1784 14.9337C10.6745 14.0491 9.25913 13.5478 7.84372 13.5478C6.10395 13.5478 5.18983 14.344 5.18983 15.3466V15.4055C5.18983 16.762 6.07446 17.2043 9.64247 18.1184C13.8297 19.2095 16.1887 20.7133 16.1887 24.3108V24.3698C16.1887 28.4686 13.063 30.7686 8.6104 30.7686Z" fill="#6254FF"/>
<path d="M20.1297 28.3801V12.1029C20.1297 10.835 21.1323 9.83238 22.4003 9.83238H28.5632C33.4876 9.83238 36.4659 12.7517 36.4659 16.9684V17.0274C36.4659 21.8044 32.7504 24.2813 28.1209 24.2813H24.6708V28.3801C24.6708 29.6481 23.6682 30.6507 22.4003 30.6507C21.1323 30.6507 20.1297 29.6481 20.1297 28.3801ZM24.6708 20.2415H28.2683C30.5388 20.2415 31.8658 18.8851 31.8658 17.1158V17.0569C31.8658 15.0222 30.4504 13.9312 28.1798 13.9312H24.6708V20.2415Z" fill="#6254FF"/>
<path d="M40.033 28.3801V11.926C40.033 10.658 41.0355 9.65545 42.3035 9.65545C43.5715 9.65545 44.5741 10.658 44.5741 11.926V28.3801C44.5741 29.6481 43.5715 30.6507 42.3035 30.6507C41.0355 30.6507 40.033 29.6481 40.033 28.3801Z" fill="#6254FF"/>
<path d="M49.7326 28.4096V11.985C49.7326 10.717 50.7351 9.71443 52.0031 9.71443H52.4749C53.5659 9.71443 54.2147 10.2452 54.8339 11.0414L63.5918 22.5416V11.8965C63.5918 10.658 64.5943 9.65545 65.8328 9.65545C67.0713 9.65545 68.0739 10.658 68.0739 11.8965V28.3211C68.0739 29.5891 67.0713 30.5917 65.8033 30.5917H65.6559C64.5648 30.5917 63.9161 30.0609 63.2969 29.2647L54.2147 17.3517V28.4096C54.2147 29.6481 53.2121 30.6507 51.9736 30.6507C50.7351 30.6507 49.7326 29.6481 49.7326 28.4096Z" fill="#6254FF"/>
<path d="M73.029 28.3801V12.1029C73.029 10.835 74.0315 9.83238 75.2995 9.83238H82.465C85.0894 9.83238 87.1241 10.5696 88.4805 11.926C89.6305 13.076 90.2497 14.6978 90.2497 16.644V16.703C90.2497 19.9466 88.6279 21.9518 86.1215 22.9839L89.2767 26.8173C89.719 27.3775 90.0138 27.8493 90.0138 28.557C90.0138 29.825 88.9523 30.6507 87.8612 30.6507C86.8292 30.6507 86.151 30.1494 85.6202 29.4712L81.197 23.8685H77.5701V28.3801C77.5701 29.6481 76.5675 30.6507 75.2995 30.6507C74.0315 30.6507 73.029 29.6481 73.029 28.3801ZM77.5701 19.8582H82.1701C84.3817 19.8582 85.6497 18.6787 85.6497 16.9389V16.8799C85.6497 14.9337 84.2932 13.9312 82.0817 13.9312H77.5701V19.8582Z" fill="#6254FF"/>
<path d="M94.5448 28.3801V11.926C94.5448 10.658 95.5474 9.65545 96.8154 9.65545C98.0833 9.65545 99.0859 10.658 99.0859 11.926V28.3801C99.0859 29.6481 98.0833 30.6507 96.8154 30.6507C95.5474 30.6507 94.5448 29.6481 94.5448 28.3801Z" fill="#6254FF"/>
<path d="M111.587 30.7686C108.874 30.7686 106.132 29.943 103.832 28.2917C103.33 27.9378 102.976 27.2891 102.976 26.5814C102.976 25.4019 103.92 24.4877 105.1 24.4877C105.689 24.4877 106.102 24.6942 106.397 24.9006C107.96 26.0506 109.67 26.7583 111.675 26.7583C113.533 26.7583 114.654 26.0211 114.654 24.8121V24.7531C114.654 23.6031 113.946 23.0134 110.496 22.1287C106.338 21.0672 103.655 19.9172 103.655 15.8184V15.7594C103.655 12.0145 106.662 9.5375 110.879 9.5375C113.386 9.5375 115.568 10.1862 117.425 11.3657C117.927 11.6606 118.428 12.2799 118.428 13.1645C118.428 14.344 117.484 15.2581 116.305 15.2581C115.863 15.2581 115.509 15.1402 115.155 14.9337C113.651 14.0491 112.236 13.5478 110.82 13.5478C109.08 13.5478 108.166 14.344 108.166 15.3466V15.4055C108.166 16.762 109.051 17.2043 112.619 18.1184C116.806 19.2095 119.165 20.7133 119.165 24.3108V24.3698C119.165 28.4686 116.039 30.7686 111.587 30.7686Z" fill="#6254FF"/>
<path d="M125.377 30.4737C124.109 30.4737 123.106 29.4712 123.106 28.2032V12.1029C123.106 10.835 124.109 9.83238 125.377 9.83238H136.818C137.938 9.83238 138.853 10.7465 138.853 11.867C138.853 12.9876 137.938 13.8722 136.818 13.8722H127.618V18.0594H135.491C136.611 18.0594 137.526 18.9736 137.526 20.0941C137.526 21.2146 136.611 22.0992 135.491 22.0992H127.618V26.4339H136.965C138.086 26.4339 139 27.348 139 28.4686C139 29.5891 138.086 30.4737 136.965 30.4737H125.377Z" fill="#6254FF"/>
<path d="M37.8911 4.70701L40.9867 5.56803C41.0237 5.57869 41.0573 5.59855 41.0845 5.62574C41.1117 5.65294 41.1316 5.68658 41.1422 5.72353L42.0033 8.81916C42.0167 8.86609 42.045 8.90738 42.084 8.93678C42.1229 8.96618 42.1704 8.98208 42.2192 8.98208C42.268 8.98208 42.3155 8.96618 42.3545 8.93678C42.3935 8.90738 42.4218 8.86609 42.4352 8.81916L43.2962 5.72353C43.3069 5.68658 43.3267 5.65294 43.3539 5.62574C43.3811 5.59855 43.4148 5.57869 43.4517 5.56803L46.5474 4.70701C46.5943 4.69361 46.6356 4.66527 46.665 4.6263C46.6944 4.58734 46.7103 4.53985 46.7103 4.49104C46.7103 4.44223 46.6944 4.39474 46.665 4.35577C46.6356 4.3168 46.5943 4.28847 46.5474 4.27506L43.4517 3.41405C43.4148 3.40339 43.3811 3.38353 43.3539 3.35634C43.3267 3.32914 43.3069 3.2955 43.2962 3.25855L42.4352 0.162918C42.4218 0.115983 42.3935 0.074693 42.3545 0.0452971C42.3155 0.0159013 42.268 0 42.2192 0C42.1704 0 42.1229 0.0159013 42.084 0.0452971C42.045 0.074693 42.0167 0.115983 42.0033 0.162918L41.1422 3.25855C41.1316 3.2955 41.1117 3.32914 41.0845 3.35634C41.0573 3.38353 41.0237 3.40339 40.9867 3.41405L37.8911 4.27506C37.8442 4.28847 37.8029 4.3168 37.7735 4.35577C37.7441 4.39474 37.7282 4.44223 37.7282 4.49104C37.7282 4.53985 37.7441 4.58734 37.7735 4.6263C37.8029 4.66527 37.8442 4.69361 37.8911 4.70701Z" fill="#6254FF"/>
<path d="M92.5072 4.70701L95.6029 5.56803C95.6398 5.57869 95.6735 5.59855 95.7007 5.62574C95.7279 5.65294 95.7477 5.68658 95.7584 5.72353L96.6194 8.81916C96.6328 8.86609 96.6611 8.90738 96.7001 8.93678C96.7391 8.96618 96.7866 8.98208 96.8354 8.98208C96.8842 8.98208 96.9317 8.96618 96.9706 8.93678C97.0096 8.90738 97.0379 8.86609 97.0513 8.81916L97.9124 5.72353C97.923 5.68658 97.9429 5.65294 97.9701 5.62574C97.9973 5.59855 98.0309 5.57869 98.0679 5.56803L101.163 4.70701C101.21 4.69361 101.252 4.66527 101.281 4.6263C101.311 4.58734 101.326 4.53985 101.326 4.49104C101.326 4.44223 101.311 4.39474 101.281 4.35577C101.252 4.3168 101.21 4.28847 101.163 4.27506L98.0679 3.41405C98.0309 3.40339 97.9973 3.38353 97.9701 3.35634C97.9429 3.32914 97.923 3.2955 97.9124 3.25855L97.0513 0.162918C97.0379 0.115983 97.0096 0.074693 96.9706 0.0452971C96.9317 0.0159013 96.8842 0 96.8354 0C96.7866 0 96.7391 0.0159013 96.7001 0.0452971C96.6611 0.074693 96.6328 0.115983 96.6194 0.162918L95.7584 3.25855C95.7477 3.2955 95.7279 3.32914 95.7007 3.35634C95.6735 3.38353 95.6398 3.40339 95.6029 3.41405L92.5072 4.27506C92.4603 4.28847 92.419 4.3168 92.3896 4.35577C92.3602 4.39474 92.3443 4.44223 92.3443 4.49104C92.3443 4.53985 92.3602 4.58734 92.3896 4.6263C92.419 4.66527 92.4603 4.69361 92.5072 4.70701Z" fill="#6254FF"/>
</g>
<defs>
<linearGradient id="paint0_linear_561_21467" x1="69.5" y1="0" x2="69.5" y2="58.4014" gradientUnits="userSpaceOnUse">
<stop stop-color="#F89921"/>
<stop offset="1" stop-color="#FCC014"/>
</linearGradient>
<linearGradient id="paint1_linear_561_21467" x1="69.5" y1="0" x2="69.5" y2="58.4014" gradientUnits="userSpaceOnUse">
<stop stop-color="#F89921"/>
<stop offset="1" stop-color="#FCC014"/>
</linearGradient>
<linearGradient id="paint2_linear_561_21467" x1="69.5" y1="0" x2="69.5" y2="58.4014" gradientUnits="userSpaceOnUse">
<stop stop-color="#F89921"/>
<stop offset="1" stop-color="#FCC014"/>
</linearGradient>
<linearGradient id="paint3_linear_561_21467" x1="69.5" y1="0" x2="69.5" y2="58.4014" gradientUnits="userSpaceOnUse">
<stop stop-color="#F89921"/>
<stop offset="1" stop-color="#FCC014"/>
</linearGradient>
<linearGradient id="paint4_linear_561_21467" x1="69.5" y1="0" x2="69.5" y2="58.4014" gradientUnits="userSpaceOnUse">
<stop stop-color="#F89921"/>
<stop offset="1" stop-color="#FCC014"/>
</linearGradient>
<linearGradient id="paint5_linear_561_21467" x1="69.5" y1="0" x2="69.5" y2="58.4014" gradientUnits="userSpaceOnUse">
<stop stop-color="#F89921"/>
<stop offset="1" stop-color="#FCC014"/>
</linearGradient>
<clipPath id="clip0_561_21467">
<rect width="139" height="66" fill="white"/>
</clipPath>
</defs>
</svg>
