<svg width="111" height="16" viewBox="0 0 111 16" fill="none" xmlns="http://www.w3.org/2000/svg">
<path d="M10.1032 5.51695C10.0841 5.26486 10.0318 5.04369 9.9462 4.85343C9.86058 4.65841 9.7393 4.49432 9.58233 4.36114C9.42537 4.2232 9.23035 4.12093 8.99729 4.05434C8.76898 3.983 8.50024 3.94732 8.19107 3.94732C7.52517 3.94732 6.91872 4.10667 6.37173 4.42535C5.82473 4.74403 5.36574 5.20303 4.99473 5.80234C4.62849 6.40165 4.37639 7.12463 4.23846 7.97128C4.09576 8.82744 4.08387 9.55994 4.20278 10.1688C4.3217 10.7776 4.57854 11.2437 4.97333 11.5672C5.37287 11.8906 5.91273 12.0523 6.5929 12.0523C7.20173 12.0523 7.72732 11.9643 8.16967 11.7883C8.61201 11.6123 8.96637 11.3626 9.23273 11.0392C9.49909 10.7158 9.66557 10.3352 9.73216 9.89765L10.4171 9.96899H7.07806L7.53468 7.14366H14.013L13.6848 9.16991C13.466 10.5017 12.9951 11.6409 12.2721 12.5874C11.5539 13.5292 10.6597 14.2522 9.58947 14.7564C8.51926 15.2558 7.34442 15.5055 6.06494 15.5055C4.64751 15.5055 3.45126 15.2035 2.47619 14.5994C1.50112 13.9953 0.804299 13.1344 0.385731 12.0166C-0.0280801 10.8989 -0.10894 9.56945 0.143152 8.02836C0.342923 6.82022 0.704414 5.75002 1.22762 4.81776C1.75559 3.88549 2.40009 3.0983 3.16112 2.45618C3.92215 1.8093 4.76167 1.32176 5.67966 0.993568C6.59766 0.660616 7.54895 0.494141 8.53353 0.494141C9.39445 0.494141 10.1769 0.617809 10.8808 0.865144C11.5848 1.10772 12.1865 1.45494 12.6859 1.90681C13.1853 2.35391 13.5587 2.88426 13.8061 3.49784C14.0582 4.11142 14.1604 4.78446 14.1129 5.51695H10.1032Z" fill="white"/>
<path d="M29.8323 8.25667C29.566 9.84532 29.038 11.1771 28.2484 12.2521C27.4589 13.327 26.5004 14.138 25.3732 14.685C24.2459 15.232 23.0401 15.5055 21.7559 15.5055C20.386 15.5055 19.1969 15.2082 18.1885 14.6137C17.1802 14.0191 16.4453 13.1487 15.9839 12.0024C15.5225 10.8561 15.4298 9.4553 15.7057 7.80005C15.9625 6.2114 16.4857 4.87483 17.2753 3.79036C18.0649 2.70589 19.028 1.8854 20.1648 1.3289C21.3016 0.772393 22.5169 0.494141 23.8107 0.494141C25.171 0.494141 26.353 0.793797 27.3566 1.39311C28.365 1.99242 29.0975 2.86999 29.5541 4.02581C30.0155 5.18162 30.1082 6.59191 29.8323 8.25667ZM25.8369 7.80005C25.9701 6.96291 25.9796 6.25896 25.8655 5.68819C25.7513 5.11266 25.5111 4.67982 25.1448 4.38967C24.7786 4.09477 24.2863 3.94732 23.668 3.94732C22.964 3.94732 22.3409 4.11856 21.7987 4.46102C21.2564 4.80349 20.807 5.29578 20.4502 5.9379C20.0935 6.58002 19.8438 7.35294 19.7011 8.25667C19.5489 9.10332 19.5346 9.80727 19.6583 10.3685C19.7867 10.9298 20.0388 11.3507 20.4146 11.6314C20.7951 11.912 21.2897 12.0523 21.8986 12.0523C22.593 12.0523 23.2066 11.8858 23.7393 11.5529C24.2768 11.2199 24.7215 10.7372 25.0735 10.1046C25.4302 9.47194 25.6847 8.70378 25.8369 7.80005Z" fill="white"/>
<path d="M45.8229 8.25667C45.5566 9.84532 45.0286 11.1771 44.239 12.2521C43.4495 13.327 42.491 14.138 41.3638 14.685C40.2365 15.232 39.0307 15.5055 37.7465 15.5055C36.3766 15.5055 35.1875 15.2082 34.1791 14.6137C33.1708 14.0191 32.4359 13.1487 31.9745 12.0024C31.5131 10.8561 31.4204 9.4553 31.6963 7.80005C31.9531 6.2114 32.4763 4.87483 33.2659 3.79036C34.0555 2.70589 35.0186 1.8854 36.1554 1.3289C37.2922 0.772393 38.5075 0.494141 39.8013 0.494141C41.1616 0.494141 42.3436 0.793797 43.3472 1.39311C44.3556 1.99242 45.0881 2.86999 45.5447 4.02581C46.0061 5.18162 46.0988 6.59191 45.8229 8.25667ZM41.8275 7.80005C41.9607 6.96291 41.9702 6.25896 41.856 5.68819C41.7419 5.11266 41.5017 4.67982 41.1354 4.38967C40.7692 4.09477 40.2769 3.94732 39.6586 3.94732C38.9546 3.94732 38.3315 4.11856 37.7893 4.46102C37.247 4.80349 36.7976 5.29578 36.4408 5.9379C36.0841 6.58002 35.8344 7.35294 35.6917 8.25667C35.5395 9.10332 35.5252 9.80727 35.6489 10.3685C35.7773 10.9298 36.0294 11.3507 36.4052 11.6314C36.7857 11.912 37.2803 12.0523 37.8892 12.0523C38.5836 12.0523 39.1972 11.8858 39.7299 11.5529C40.2674 11.2199 40.7121 10.7372 41.0641 10.1046C41.4208 9.47194 41.6753 8.70378 41.8275 7.80005Z" fill="white"/>
<path d="M52.196 15.3057H46.4882L48.914 0.693912H54.3935C55.8965 0.693912 57.1522 0.995946 58.1606 1.60002C59.1689 2.20409 59.8848 3.06738 60.3081 4.1899C60.7314 5.31243 60.8147 6.64899 60.5578 8.19959C60.3105 9.69312 59.8087 10.9702 59.0524 12.0309C58.3009 13.0916 57.3401 13.9026 56.17 14.4638C55.0047 15.0251 53.68 15.3057 52.196 15.3057ZM51.0116 11.9382H52.4528C53.1758 11.9382 53.8203 11.8121 54.3863 11.56C54.9571 11.3032 55.4327 10.8751 55.8133 10.2758C56.1985 9.67171 56.4768 8.84647 56.648 7.80005C56.8097 6.81071 56.805 6.0473 56.6338 5.50982C56.4625 4.96758 56.1367 4.59182 55.6563 4.38254C55.1759 4.1685 54.5552 4.06148 53.7941 4.06148H52.3244L51.0116 11.9382Z" fill="white"/>
<path d="M63.6489 0.693912H68.5861L70.6124 8.97014H70.7836L75.5496 0.693912H80.4868L78.061 15.3057H74.1797L75.5781 6.85827H75.464L70.8407 15.1916H68.5005L66.6455 6.8012H66.5313L65.1044 15.3057H61.2231L63.6489 0.693912Z" fill="white"/>
<path d="M83.7366 15.3057H79.4558L86.7046 0.693912H92.127L94.5242 15.3057H90.2434L88.8165 4.71787H88.7023L83.7366 15.3057ZM83.9078 9.54091H91.9557L91.4421 12.5089H83.3941L83.9078 9.54091Z" fill="white"/>
<path d="M111 0.693912L108.574 15.3057H105.264L101.268 7.62882H101.183L99.8984 15.3057H95.9316L98.3573 0.693912H101.725L105.663 8.34229H105.777L107.033 0.693912H111Z" fill="white"/>
</svg>
