<svg width="232" height="39" viewBox="0 0 232 39" fill="none" xmlns="http://www.w3.org/2000/svg">
<path d="M18.1778 1.69283C21.9396 1.69283 24.8551 2.51238 26.9241 4.15146C28.9931 5.79056 30.0276 8.08797 30.0276 11.0437C30.0276 13.4083 29.4364 15.4907 28.2542 17.2911C27.0987 19.0914 25.4328 20.4886 23.2563 21.4828C21.1066 22.477 18.6077 22.9741 15.7594 22.9741H10.8825L9.5121 29.9067H0L5.64277 1.69283H18.1778ZM16.2431 15.6385C17.5598 15.6385 18.5808 15.3161 19.3063 14.6712C20.0318 13.9994 20.3946 13.0724 20.3946 11.8901C20.3946 9.98233 19.2123 9.02843 16.8477 9.02843H13.6636L12.3335 15.6385H16.2431Z" fill="#EFE856"/>
<path d="M38.8208 30.3097C36.3756 30.3097 34.4812 29.732 33.1377 28.5766C31.7942 27.3943 31.1225 25.7418 31.1225 23.619C31.1225 22.9204 31.2031 22.168 31.3643 21.3619L35.6367 0H44.7457L40.5539 20.9589C40.5002 21.335 40.4733 21.5903 40.4733 21.7247C40.4733 22.8532 41.0645 23.4175 42.2468 23.4175C42.8648 23.4175 43.3888 23.31 43.8187 23.095L42.8514 29.7455C41.5078 30.1216 40.1643 30.3097 38.8208 30.3097Z" fill="#EFE856"/>
<path d="M104.104 7.85957L100.598 25.4731C99.7379 29.8529 98.0317 33.0505 95.479 35.0658C92.9532 37.1079 89.6347 38.129 85.5235 38.129C81.0093 38.129 77.3684 37.2154 74.6007 35.3882L78.4701 29.1812C79.3568 29.8529 80.445 30.3769 81.7348 30.7531C83.0515 31.1561 84.3681 31.3577 85.6848 31.3577C87.3776 31.3577 88.6405 30.9949 89.4735 30.2694C90.3064 29.5708 90.8573 28.5094 91.126 27.0853L91.2066 26.6822C90.3199 27.354 89.366 27.8645 88.3449 28.2138C87.3507 28.5363 86.3565 28.6975 85.3623 28.6975C82.9977 28.6975 81.1034 28.0526 79.6792 26.7628C78.2551 25.4731 77.543 23.619 77.543 21.2007C77.543 20.2871 77.6371 19.3601 77.8252 18.4196L79.9211 7.85957H89.0301L87.1357 17.3314C87.0283 17.9762 86.9745 18.433 86.9745 18.7017C86.9745 20.2602 87.7135 21.0395 89.1913 21.0395C91.2872 21.0395 92.6173 19.6422 93.1816 16.8477L94.9953 7.85957H104.104Z" fill="#EFE856"/>
<path d="M121.201 8.74629C117.412 8.74629 115.518 10.3585 115.518 13.583V13.7039H125.514V20.8782H115.518V29.9067H106.006V13.7845C106.006 9.70019 107.255 6.55636 109.754 4.35299C112.253 2.14963 115.8 1.04794 120.395 1.04794C122.034 1.04794 123.579 1.20917 125.03 1.53161C126.481 1.82718 127.73 2.24367 128.778 2.78108L126.037 9.95546C125.285 9.5524 124.479 9.25683 123.619 9.06874C122.786 8.85377 121.98 8.74629 121.201 8.74629Z" fill="white"/>
<path d="M139.035 10.2376C140.647 8.38354 143.025 7.45652 146.169 7.45652V15.5176C145.443 15.4101 144.772 15.3564 144.154 15.3564C141.037 15.3564 139.478 16.9417 139.478 20.1124V29.9067H130.369V7.85957H139.035V10.2376Z" fill="white"/>
<path d="M172.737 7.85957V29.9067H164.071V28.0929C162.755 29.5708 160.739 30.3097 158.026 30.3097C156.091 30.3097 154.304 29.8529 152.665 28.9393C151.053 27.9989 149.763 26.6554 148.796 24.9088C147.855 23.1622 147.385 21.1469 147.385 18.863C147.385 16.579 147.855 14.5772 148.796 12.8575C149.763 11.1109 151.053 9.7808 152.665 8.86721C154.304 7.92675 156.091 7.45652 158.026 7.45652C160.471 7.45652 162.338 8.08797 163.628 9.35087V7.85957H172.737ZM160.202 23.216C161.25 23.216 162.11 22.8398 162.782 22.0874C163.453 21.3082 163.789 20.2334 163.789 18.863C163.789 17.4926 163.453 16.4312 162.782 15.6788C162.11 14.9265 161.25 14.5503 160.202 14.5503C159.154 14.5503 158.294 14.9265 157.622 15.6788C156.951 16.4312 156.615 17.4926 156.615 18.863C156.615 20.2334 156.951 21.3082 157.622 22.0874C158.294 22.8398 159.154 23.216 160.202 23.216Z" fill="white"/>
<path d="M192.092 7.45652C194.805 7.45652 196.982 8.27606 198.621 9.91515C200.287 11.5542 201.12 14.0263 201.12 17.3314V29.9067H192.011V18.9033C192.011 16.3775 191.111 15.1146 189.31 15.1146C188.289 15.1146 187.456 15.4773 186.812 16.2028C186.194 16.9014 185.885 18.0166 185.885 19.5482V29.9067H176.775V7.85957H185.441V10.0361C186.301 9.17622 187.295 8.53133 188.424 8.10141C189.552 7.67148 190.775 7.45652 192.092 7.45652Z" fill="white"/>
<path d="M215.636 23.1354L214.185 24.7073V29.9067H205.076V0H214.185V14.2681L220.513 7.85957H231.275L222.165 17.412L232 29.9067H220.997L215.636 23.1354Z" fill="white"/>
<path d="M51.9489 7.75098H69.8571C70.5356 7.75098 71.1863 8.02051 71.6661 8.50029C72.1459 8.98007 72.4154 9.63078 72.4154 10.3093V28.2175C72.4154 28.896 72.1459 29.5467 71.6661 30.0265C71.1863 30.5063 70.5356 30.7758 69.8571 30.7758H51.9489C51.2704 30.7758 50.6197 30.5063 50.1399 30.0265C49.6602 29.5467 49.3906 28.896 49.3906 28.2175V10.3093C49.3906 9.63078 49.6602 8.98007 50.1399 8.50029C50.6197 8.02051 51.2704 7.75098 51.9489 7.75098ZM60.903 16.7051C60.2245 16.7051 59.5738 16.9746 59.094 17.4544C58.6143 17.9342 58.3447 18.5849 58.3447 19.2634C58.3447 19.9419 58.6143 20.5926 59.094 21.0724C59.5738 21.5522 60.2245 21.8217 60.903 21.8217C61.5815 21.8217 62.2323 21.5522 62.712 21.0724C63.1918 20.5926 63.4613 19.9419 63.4613 19.2634C63.4613 18.5849 63.1918 17.9342 62.712 17.4544C62.2323 16.9746 61.5815 16.7051 60.903 16.7051ZM54.5073 10.3093C53.8287 10.3093 53.178 10.5788 52.6983 11.0586C52.2185 11.5384 51.9489 12.1891 51.9489 12.8676C51.9489 13.5461 52.2185 14.1968 52.6983 14.6766C53.178 15.1564 53.8287 15.4259 54.5073 15.4259C55.1858 15.4259 55.8365 15.1564 56.3162 14.6766C56.796 14.1968 57.0656 13.5461 57.0656 12.8676C57.0656 12.1891 56.796 11.5384 56.3162 11.0586C55.8365 10.5788 55.1858 10.3093 54.5073 10.3093ZM67.2988 23.1009C66.6203 23.1009 65.9696 23.3704 65.4898 23.8502C65.01 24.3299 64.7405 24.9807 64.7405 25.6592C64.7405 26.3377 65.01 26.9884 65.4898 27.4682C65.9696 27.9479 66.6203 28.2175 67.2988 28.2175C67.9773 28.2175 68.628 27.9479 69.1078 27.4682C69.5876 26.9884 69.8571 26.3377 69.8571 25.6592C69.8571 24.9807 69.5876 24.3299 69.1078 23.8502C68.628 23.3704 67.9773 23.1009 67.2988 23.1009Z" fill="#FF6767"/>
</svg>
