<svg width="139" height="42" viewBox="0 0 139 42" fill="none" xmlns="http://www.w3.org/2000/svg">
<path d="M9.48692 0.726554C10.7707 0.726554 11.979 0.953107 13.1118 1.40621C14.2445 1.85932 15.2546 2.5201 16.1419 3.38855C17.0293 4.23813 17.7184 5.26706 18.2092 6.47534C18.719 7.68363 18.9738 9.03351 18.9738 10.525C18.9738 12.2241 18.6434 13.7439 17.9827 15.0844C17.3408 16.4248 16.4534 17.5387 15.3207 18.426C14.2068 19.2945 12.9607 19.8797 11.5825 20.1818C12.5831 21.409 13.8009 22.5606 15.2357 23.6368C16.6894 24.7318 18.398 25.6191 20.3615 26.2988C22.3438 26.9784 24.6377 27.3182 27.243 27.3182C28.4513 27.3182 29.7257 27.205 31.0661 26.9784C32.4254 26.7707 33.832 26.3648 35.2857 25.7607C36.7583 25.1566 38.2592 24.2692 39.7884 23.0987L40.2699 23.5801C38.1365 25.5247 35.8615 26.8651 33.4449 27.6014C31.0472 28.3566 28.6118 28.7248 26.1386 28.7059C23.3067 28.6681 20.7957 28.2622 18.6057 27.4882C16.4157 26.7141 14.49 25.6946 12.8286 24.4297C11.1861 23.1837 9.76067 21.8338 8.55239 20.3801C6.98539 20.229 5.55056 19.7382 4.24787 18.9075C2.96407 18.0768 1.93514 16.9534 1.16109 15.5375C0.387029 14.1215 0 12.479 0 10.6099C0 9.11847 0.245433 7.76859 0.736298 6.5603C1.24604 5.35202 1.93514 4.31365 2.8036 3.44519C3.69093 2.57674 4.70098 1.90652 5.83375 1.43453C6.98539 0.962547 8.20312 0.726554 9.48692 0.726554ZM9.88339 19.2756C11.0162 19.2756 12.0545 18.9641 12.9985 18.3411C13.9613 17.7181 14.7354 16.8024 15.3207 15.5941C15.9059 14.367 16.1986 12.8566 16.1986 11.063C16.1986 9.09959 15.8587 7.43819 15.1791 6.07888C14.4994 4.70068 13.6215 3.65287 12.5454 2.93545C11.4693 2.21803 10.3176 1.85932 9.09045 1.85932C7.95768 1.85932 6.90988 2.17083 5.94702 2.79385C4.98417 3.41687 4.21012 4.34197 3.62485 5.56913C3.03959 6.77741 2.74696 8.27833 2.74696 10.0719C2.74696 12.0353 3.08679 13.7062 3.76645 15.0844C4.44611 16.4437 5.33344 17.4821 6.42845 18.1995C7.52346 18.9169 8.6751 19.2756 9.88339 19.2756Z" fill="url(#paint0_linear_356_10922)"/>
<path d="M28.6727 20.4084C27.0491 20.4084 25.8219 19.9647 24.9912 19.0774C24.1794 18.1712 23.7735 16.944 23.7735 15.3959V3.98326C23.7735 3.32248 23.7074 2.85049 23.5753 2.5673C23.4431 2.26523 23.1977 2.06699 22.839 1.9726C22.4991 1.8782 21.9988 1.82156 21.338 1.80268V1.15134H28.163V1.80268C27.6532 1.82156 27.2568 1.8782 26.9736 1.9726C26.6904 2.06699 26.4827 2.26523 26.3505 2.5673C26.2373 2.85049 26.1806 3.32248 26.1806 3.98326V14.7445C26.1806 15.8395 26.4072 16.7552 26.8603 17.4915C27.3323 18.2089 28.1724 18.5676 29.3807 18.5676C30.268 18.5676 31.1082 18.3694 31.9011 17.9729C32.694 17.5765 33.3926 17.029 33.9967 16.3304C34.6197 15.613 35.1012 14.7917 35.441 13.8666C35.7997 12.9416 35.9791 11.9409 35.9791 10.8648V3.98326C35.9791 3.32248 35.913 2.85049 35.7808 2.5673C35.6487 2.26523 35.3843 2.06699 34.9879 1.9726C34.6103 1.8782 34.0533 1.82156 33.3171 1.80268V1.15134H40.2269V1.80268C39.7172 1.82156 39.3207 1.8782 39.0375 1.9726C38.7543 2.06699 38.5467 2.26523 38.4145 2.5673C38.3012 2.85049 38.2446 3.32248 38.2446 3.98326V17.18C38.2446 17.8219 38.3012 18.2939 38.4145 18.5959C38.5467 18.8791 38.7638 19.0679 39.0658 19.1623C39.3868 19.2567 39.821 19.3134 40.3685 19.3322V19.9836H36.3472C36.2339 19.6815 36.149 19.3228 36.0923 18.9075C36.0357 18.4732 36.0074 17.888 36.0074 17.1517V14.7445H35.9507C35.2144 16.5192 34.2421 17.9068 33.0339 18.9075C31.8445 19.9081 30.3907 20.4084 28.6727 20.4084Z" fill="url(#paint1_linear_356_10922)"/>
<path d="M57.4567 17.1517C57.6833 17.8124 57.9004 18.2939 58.108 18.5959C58.3157 18.8791 58.5611 19.0679 58.8443 19.1623C59.1464 19.2378 59.5429 19.2945 60.0337 19.3322V19.9836H53.2655V19.3322C53.9074 19.2945 54.3794 19.2284 54.6814 19.134C55.0024 19.0396 55.1817 18.8414 55.2195 18.5393C55.2572 18.2372 55.1629 17.7747 54.9363 17.1517L53.3221 12.2808C53.2277 12.3752 53.0861 12.4412 52.8973 12.479C52.7085 12.4979 52.5103 12.5073 52.3026 12.5073H48.5928C48.1775 12.5073 47.8659 12.5545 47.6583 12.6489C47.4506 12.7433 47.2712 12.9982 47.1202 13.4135L45.7892 17.1517C45.5438 17.8691 45.5438 18.4072 45.7892 18.7659C46.0535 19.1057 46.7898 19.2945 47.9981 19.3322V19.9836H42.136V19.3322C42.7402 19.2945 43.2122 19.1057 43.552 18.7659C43.9107 18.4072 44.2222 17.8691 44.4865 17.1517L49.499 3.38855C49.6878 2.89769 49.8672 2.41626 50.0371 1.94428C50.207 1.47229 50.358 0.990865 50.4902 0.5H51.8778C52.01 0.990865 52.1516 1.47229 52.3026 1.94428C52.4725 2.41626 52.6519 2.89769 52.8407 3.38855L57.4567 17.1517ZM52.3593 11.4878C52.6047 11.4878 52.7746 11.4595 52.869 11.4029C52.9634 11.3274 52.9634 11.1763 52.869 10.9498L50.5468 4.06821H50.4902L47.7715 11.5728C47.8659 11.535 47.9792 11.5162 48.1114 11.5162C48.2435 11.4973 48.3946 11.4878 48.5645 11.4878H52.3593Z" fill="url(#paint2_linear_356_10922)"/>
<path d="M60.0826 1.15134H75.3467V5.56913H74.6953C74.6576 4.90835 74.5537 4.32309 74.3838 3.81334C74.2139 3.3036 73.893 2.90713 73.421 2.62394C72.949 2.32187 72.2316 2.17083 71.2687 2.17083H68.9182V17.1517C68.9182 17.7936 68.9843 18.2656 69.1165 18.5676C69.2675 18.8697 69.5318 19.0679 69.9094 19.1623C70.3059 19.2567 70.8722 19.3134 71.6085 19.3322V19.9836H64.5287V19.3322C65.0385 19.3134 65.435 19.2567 65.7182 19.1623C66.0202 19.0679 66.2279 18.8697 66.3412 18.5676C66.4545 18.2656 66.5111 17.7936 66.5111 17.1517V2.17083H64.1323C63.1883 2.17083 62.4803 2.32187 62.0083 2.62394C61.5364 2.90713 61.2154 3.3036 61.0455 3.81334C60.8756 4.32309 60.7717 4.90835 60.734 5.56913H60.0826V1.15134Z" fill="url(#paint3_linear_356_10922)"/>
<path d="M94.4648 20.1535C93.6907 20.1535 93.0488 20.0497 92.5391 19.842C92.0293 19.6343 91.5951 19.3606 91.2364 19.0207C90.8777 18.6809 90.5378 18.3128 90.2169 17.9163L84.3831 10.7515C84.1377 10.4495 83.9489 10.2607 83.8167 10.1852C83.7035 10.0908 83.543 10.0341 83.3353 10.0152V9.16566C85.1478 9.3167 86.5637 9.06183 87.5832 8.40105C88.6027 7.74027 89.1124 6.73022 89.1124 5.3709C89.1124 4.4458 88.9048 3.74726 88.4894 3.27528C88.0741 2.78441 87.536 2.45402 86.8752 2.28411C86.2144 2.11419 85.5159 2.02924 84.7796 2.02924C84.0999 2.02924 83.5902 2.14251 83.2504 2.36906C82.9294 2.57674 82.7689 3.1148 82.7689 3.98326V17.1517C82.7689 17.7936 82.835 18.2656 82.9672 18.5676C83.1182 18.8697 83.3825 19.0679 83.7601 19.1623C84.1377 19.2567 84.6946 19.3134 85.4309 19.3322V19.9836H78.3795V19.3322C78.8892 19.3134 79.2857 19.2567 79.5689 19.1623C79.8709 19.0679 80.0786 18.8697 80.1919 18.5676C80.3052 18.2656 80.3618 17.7936 80.3618 17.1517V3.98326C80.3618 3.32248 80.2863 2.85049 80.1353 2.5673C80.0031 2.26523 79.7482 2.06699 79.3706 1.9726C78.993 1.8782 78.4267 1.82156 77.6715 1.80268V1.15134H80.3618C81.6645 1.15134 82.6934 1.13246 83.4486 1.0947C84.2038 1.03806 84.9023 1.00975 85.5442 1.00975C87.6965 1.00975 89.2729 1.40621 90.2735 2.19915C91.293 2.97321 91.8027 3.96438 91.8027 5.17266C91.8027 6.41871 91.3213 7.44764 90.3585 8.25945C89.4145 9.07127 88.2062 9.59045 86.7336 9.81701V9.87364L92.5957 17.0667C93.1243 17.6897 93.5491 18.1712 93.87 18.511C94.2099 18.8319 94.5308 19.0491 94.8329 19.1623C95.135 19.2756 95.4937 19.3322 95.909 19.3322V19.9836C95.6636 20.0591 95.4182 20.1063 95.1727 20.1252C94.9273 20.1441 94.6913 20.1535 94.4648 20.1535Z" fill="url(#paint4_linear_356_10922)"/>
<path d="M106.06 0.726554C107.343 0.726554 108.552 0.953107 109.685 1.40621C110.817 1.85932 111.827 2.5201 112.715 3.38855C113.602 4.23813 114.291 5.26706 114.782 6.47534C115.292 7.68363 115.547 9.03351 115.547 10.525C115.547 12.0165 115.292 13.3663 114.782 14.5746C114.291 15.7829 113.602 16.8213 112.715 17.6897C111.846 18.5582 110.836 19.2284 109.685 19.7004C108.533 20.1724 107.315 20.4084 106.031 20.4084C104.766 20.4084 103.558 20.1818 102.407 19.7287C101.274 19.2756 100.264 18.6243 99.3764 17.7747C98.5079 16.9062 97.8188 15.8679 97.3091 14.6596C96.8182 13.4513 96.5728 12.1014 96.5728 10.6099C96.5728 9.11847 96.8182 7.76859 97.3091 6.5603C97.8188 5.35202 98.5079 4.31365 99.3764 3.44519C100.264 2.57674 101.274 1.90652 102.407 1.43453C103.558 0.962547 104.776 0.726554 106.06 0.726554ZM106.456 19.2756C107.589 19.2756 108.627 18.9641 109.571 18.3411C110.534 17.7181 111.308 16.8024 111.893 15.5941C112.479 14.367 112.771 12.8566 112.771 11.063C112.771 9.09959 112.431 7.43819 111.752 6.07888C111.072 4.70068 110.194 3.65287 109.118 2.93545C108.042 2.21803 106.89 1.85932 105.663 1.85932C104.53 1.85932 103.483 2.17083 102.52 2.79385C101.557 3.41687 100.783 4.34197 100.198 5.56913C99.6124 6.77741 99.3197 8.27833 99.3197 10.0719C99.3197 12.0353 99.6596 13.7062 100.339 15.0844C101.019 16.4437 101.906 17.4821 103.001 18.1995C104.096 18.9169 105.248 19.2756 106.456 19.2756Z" fill="url(#paint5_linear_356_10922)"/>
<path d="M44.0094 41.4982C42.6312 41.4982 41.3474 41.2717 40.158 40.8186C38.9686 40.3466 37.9207 39.6858 37.0145 38.8362C36.1272 37.9678 35.4381 36.9388 34.9472 35.7494C34.4564 34.56 34.2109 33.2479 34.2109 31.8131C34.2109 30.2649 34.4941 28.8773 35.0605 27.6501C35.6269 26.4041 36.401 25.3469 37.3827 24.4784C38.3644 23.6099 39.4972 22.9492 40.781 22.4961C42.0648 22.043 43.4241 21.8164 44.8589 21.8164C45.5575 21.8164 46.2655 21.8636 46.9829 21.958C47.7192 22.0524 48.3988 22.1845 49.0219 22.3545C49.6638 22.5055 50.1924 22.6754 50.6077 22.8642V27.3386H49.9564C49.8809 26.2247 49.5694 25.3563 49.0219 24.7333C48.4744 24.0914 47.7947 23.6383 46.9829 23.374C46.1899 23.0908 45.3592 22.9492 44.4908 22.9492C43.1504 22.9492 41.9043 23.2512 40.7527 23.8554C39.601 24.4595 38.6759 25.3846 37.9774 26.6307C37.2977 27.8578 36.9579 29.4343 36.9579 31.36C36.9579 33.1913 37.2788 34.7866 37.9207 36.1459C38.5626 37.4863 39.4122 38.5247 40.4695 39.261C41.5456 39.9973 42.735 40.3654 44.0377 40.3654C45.2271 40.3654 46.2749 40.0917 47.1811 39.5442C48.1062 38.9778 48.8614 38.2698 49.4466 37.4203C50.0319 36.5707 50.4189 35.7117 50.6077 34.8432H51.2591L51.0892 38.1566C50.3717 39.0439 49.4466 39.8274 48.3139 40.507C47.1811 41.1678 45.7463 41.4982 44.0094 41.4982Z" fill="url(#paint6_linear_356_10922)"/>
<path d="M67.5521 38.2415C67.7787 38.9023 67.9958 39.3837 68.2034 39.6858C68.4111 39.969 68.6566 40.1578 68.9397 40.2522C69.2418 40.3277 69.6383 40.3843 70.1292 40.4221V41.0734H63.3609V40.4221C64.0028 40.3843 64.4748 40.3183 64.7768 40.2239C65.0978 40.1295 65.2771 39.9312 65.3149 39.6292C65.3527 39.3271 65.2583 38.8645 65.0317 38.2415L63.4175 33.3706C63.3231 33.465 63.1815 33.5311 62.9927 33.5689C62.8039 33.5877 62.6057 33.5972 62.398 33.5972H58.6882C58.2729 33.5972 57.9614 33.6444 57.7537 33.7388C57.546 33.8332 57.3666 34.088 57.2156 34.5034L55.8846 38.2415C55.6392 38.9589 55.6392 39.497 55.8846 39.8557C56.1489 40.1955 56.8852 40.3843 58.0935 40.4221V41.0734H52.2314V40.4221C52.8356 40.3843 53.3076 40.1955 53.6474 39.8557C54.0061 39.497 54.3176 38.9589 54.5819 38.2415L59.5944 24.4784C59.7832 23.9875 59.9626 23.5061 60.1325 23.0341C60.3024 22.5621 60.4534 22.0807 60.5856 21.5898H61.9732C62.1054 22.0807 62.247 22.5621 62.398 23.0341C62.5679 23.5061 62.7473 23.9875 62.9361 24.4784L67.5521 38.2415ZM62.4547 32.5777C62.7001 32.5777 62.87 32.5494 62.9644 32.4927C63.0588 32.4172 63.0588 32.2662 62.9644 32.0396L60.6422 25.1581H60.5856L57.867 32.6626C57.9614 32.6249 58.0746 32.606 58.2068 32.606C58.3389 32.5871 58.49 32.5777 58.6599 32.5777H62.4547Z" fill="url(#paint7_linear_356_10922)"/>
<path d="M76.962 41.4982C76.4334 41.4982 75.8481 41.4321 75.2062 41.3C74.5643 41.1867 73.9508 40.9979 73.3655 40.7336C72.7991 40.4693 72.3271 40.1106 71.9495 39.6575C71.5908 39.1855 71.4115 38.6097 71.4115 37.93C71.4115 37.5524 71.4587 37.1559 71.5531 36.7406C71.6475 36.3252 71.7702 35.9854 71.9212 35.7211H72.5726C72.6481 37.1559 73.1201 38.2887 73.9885 39.1194C74.857 39.9501 75.9614 40.3654 77.3019 40.3654C78.227 40.3654 78.9633 40.1955 79.5108 39.8557C80.0771 39.5159 80.483 39.0816 80.7285 38.553C80.9928 38.0055 81.125 37.4297 81.125 36.8256C81.125 35.9571 80.9078 35.2491 80.4736 34.7016C80.0394 34.1352 79.473 33.6632 78.7745 33.2857C78.0948 32.8892 77.3679 32.521 76.5939 32.1812C75.8387 31.8225 75.1118 31.426 74.4133 30.9918C73.7337 30.5576 73.1767 30.0195 72.7425 29.3776C72.3082 28.7357 72.0911 27.9239 72.0911 26.9422C72.0911 25.9227 72.346 25.0353 72.8558 24.2802C73.3655 23.5061 74.0829 22.902 75.008 22.4677C75.9331 22.0335 77.0187 21.8164 78.2647 21.8164C79.3597 21.8164 80.2565 21.9014 80.955 22.0713C81.6725 22.2412 82.2483 22.4111 82.6825 22.581V26.6873H82.0312C81.9179 25.479 81.5592 24.5539 80.955 23.912C80.3509 23.2701 79.388 22.9492 78.0665 22.9492C77.1414 22.9492 76.3862 23.1002 75.8009 23.4023C75.2346 23.6855 74.8192 24.0631 74.5549 24.535C74.3095 24.9881 74.1868 25.4696 74.1868 25.9793C74.1868 26.7345 74.4039 27.3575 74.8381 27.8484C75.2723 28.3392 75.8293 28.764 76.5089 29.1227C77.2075 29.4815 77.9438 29.8402 78.7178 30.1989C79.5108 30.5576 80.2471 30.9729 80.9267 31.4449C81.6253 31.9169 82.1916 32.5022 82.6259 33.2007C83.0601 33.8992 83.2772 34.7866 83.2772 35.8627C83.2772 37.0332 83.0035 38.0433 82.456 38.8929C81.9273 39.7235 81.1816 40.3654 80.2187 40.8186C79.2748 41.2717 78.1892 41.4982 76.962 41.4982Z" fill="url(#paint8_linear_356_10922)"/>
<path d="M87.2087 41.0734V40.4221C87.7185 40.4032 88.1149 40.3466 88.3981 40.2522C88.7002 40.1578 88.9079 39.9595 89.0211 39.6575C89.1344 39.3554 89.191 38.8834 89.191 38.2415V25.0731C89.191 24.4123 89.1155 23.9403 88.9645 23.6571C88.8323 23.3551 88.5775 23.1568 88.1999 23.0624C87.8223 22.968 87.2559 22.9114 86.5007 22.8925V22.2412H93.5805V22.8925C93.0708 22.9114 92.6743 22.968 92.3911 23.0624C92.1079 23.1568 91.9002 23.3551 91.7681 23.6571C91.6548 23.9403 91.5982 24.4123 91.5982 25.0731V38.2415C91.5982 38.8834 91.6643 39.3554 91.7964 39.6575C91.9474 39.9595 92.2118 40.1578 92.5893 40.2522C92.9858 40.3466 93.5522 40.4032 94.2885 40.4221V41.0734H87.2087Z" fill="url(#paint9_linear_356_10922)"/>
<path d="M113.602 41.3C113.319 40.8658 113.007 40.4315 112.668 39.9973C112.328 39.5442 111.865 38.9967 111.28 38.3548L100.943 26.659H100.887V38.2415C100.887 38.9401 101.057 39.4687 101.397 39.8274C101.755 40.1861 102.492 40.3843 103.605 40.4221V41.0734H97.6302V40.4221C98.4042 40.3843 98.9234 40.1861 99.1877 39.8274C99.4709 39.4687 99.6125 38.9401 99.6125 38.2415V25.0731C99.6125 24.3368 99.3954 23.7987 98.9612 23.4589C98.5458 23.1191 97.8661 22.9303 96.9222 22.8925V22.2412H100.774C101.057 22.7132 101.359 23.1757 101.68 23.6288C102.02 24.0819 102.388 24.5256 102.784 24.9598L113.234 36.6556H113.291V25.0731C113.291 24.3746 113.111 23.8459 112.753 23.4872C112.413 23.1285 111.686 22.9303 110.572 22.8925V22.2412H116.547V22.8925C115.792 22.9303 115.273 23.1285 114.99 23.4872C114.707 23.8459 114.565 24.3746 114.565 25.0731V38.2415C114.565 38.7701 114.565 39.2799 114.565 39.7707C114.584 40.2427 114.603 40.7525 114.622 41.3H113.602Z" fill="url(#paint10_linear_356_10922)"/>
<path d="M128.683 21.8164C129.967 21.8164 131.175 22.043 132.308 22.4961C133.441 22.9492 134.451 23.6099 135.338 24.4784C136.225 25.328 136.914 26.3569 137.405 27.5652C137.915 28.7735 138.17 30.1234 138.17 31.6148C138.17 33.1063 137.915 34.4562 137.405 35.6645C136.914 36.8728 136.225 37.9111 135.338 38.7796C134.47 39.648 133.46 40.3183 132.308 40.7902C131.156 41.2622 129.938 41.4982 128.655 41.4982C127.39 41.4982 126.181 41.2717 125.03 40.8186C123.897 40.3654 122.887 39.7141 122 38.8645C121.131 37.9961 120.442 36.9577 119.932 35.7494C119.442 34.5411 119.196 33.1913 119.196 31.6998C119.196 30.2083 119.442 28.8584 119.932 27.6501C120.442 26.4419 121.131 25.4035 122 24.535C122.887 23.6666 123.897 22.9964 125.03 22.5244C126.181 22.0524 127.399 21.8164 128.683 21.8164ZM129.079 40.3654C130.212 40.3654 131.251 40.0539 132.195 39.4309C133.157 38.8079 133.931 37.8922 134.517 36.684C135.102 35.4568 135.395 33.9464 135.395 32.1529C135.395 30.1894 135.055 28.528 134.375 27.1687C133.695 25.7905 132.818 24.7427 131.741 24.0253C130.665 23.3079 129.514 22.9492 128.287 22.9492C127.154 22.9492 126.106 23.2607 125.143 23.8837C124.18 24.5067 123.406 25.4318 122.821 26.659C122.236 27.8673 121.943 29.3682 121.943 31.1617C121.943 33.1252 122.283 34.796 122.963 36.1742C123.642 37.5335 124.53 38.5719 125.625 39.2893C126.72 40.0067 127.871 40.3654 129.079 40.3654Z" fill="url(#paint11_linear_356_10922)"/>
<defs>
<linearGradient id="paint0_linear_356_10922" x1="57.7733" y1="0.5" x2="57.7733" y2="28.7066" gradientUnits="userSpaceOnUse">
<stop stop-color="white"/>
<stop offset="0.245" stop-color="#E8E8E8"/>
<stop offset="0.56" stop-color="#949494"/>
<stop offset="0.71" stop-color="white"/>
</linearGradient>
<linearGradient id="paint1_linear_356_10922" x1="57.7733" y1="0.5" x2="57.7733" y2="28.7066" gradientUnits="userSpaceOnUse">
<stop stop-color="white"/>
<stop offset="0.245" stop-color="#E8E8E8"/>
<stop offset="0.56" stop-color="#949494"/>
<stop offset="0.71" stop-color="white"/>
</linearGradient>
<linearGradient id="paint2_linear_356_10922" x1="57.7733" y1="0.5" x2="57.7733" y2="28.7066" gradientUnits="userSpaceOnUse">
<stop stop-color="white"/>
<stop offset="0.245" stop-color="#E8E8E8"/>
<stop offset="0.56" stop-color="#949494"/>
<stop offset="0.71" stop-color="white"/>
</linearGradient>
<linearGradient id="paint3_linear_356_10922" x1="57.7733" y1="0.5" x2="57.7733" y2="28.7066" gradientUnits="userSpaceOnUse">
<stop stop-color="white"/>
<stop offset="0.245" stop-color="#E8E8E8"/>
<stop offset="0.56" stop-color="#949494"/>
<stop offset="0.71" stop-color="white"/>
</linearGradient>
<linearGradient id="paint4_linear_356_10922" x1="57.7733" y1="0.5" x2="57.7733" y2="28.7066" gradientUnits="userSpaceOnUse">
<stop stop-color="white"/>
<stop offset="0.245" stop-color="#E8E8E8"/>
<stop offset="0.56" stop-color="#949494"/>
<stop offset="0.71" stop-color="white"/>
</linearGradient>
<linearGradient id="paint5_linear_356_10922" x1="57.7733" y1="0.5" x2="57.7733" y2="28.7066" gradientUnits="userSpaceOnUse">
<stop stop-color="white"/>
<stop offset="0.245" stop-color="#E8E8E8"/>
<stop offset="0.56" stop-color="#949494"/>
<stop offset="0.71" stop-color="white"/>
</linearGradient>
<linearGradient id="paint6_linear_356_10922" x1="86.1904" y1="21.5898" x2="86.1904" y2="41.4982" gradientUnits="userSpaceOnUse">
<stop stop-color="white"/>
<stop offset="0.245" stop-color="#E8E8E8"/>
<stop offset="0.56" stop-color="#949494"/>
<stop offset="0.71" stop-color="white"/>
</linearGradient>
<linearGradient id="paint7_linear_356_10922" x1="86.1904" y1="21.5898" x2="86.1904" y2="41.4982" gradientUnits="userSpaceOnUse">
<stop stop-color="white"/>
<stop offset="0.245" stop-color="#E8E8E8"/>
<stop offset="0.56" stop-color="#949494"/>
<stop offset="0.71" stop-color="white"/>
</linearGradient>
<linearGradient id="paint8_linear_356_10922" x1="86.1904" y1="21.5898" x2="86.1904" y2="41.4982" gradientUnits="userSpaceOnUse">
<stop stop-color="white"/>
<stop offset="0.245" stop-color="#E8E8E8"/>
<stop offset="0.56" stop-color="#949494"/>
<stop offset="0.71" stop-color="white"/>
</linearGradient>
<linearGradient id="paint9_linear_356_10922" x1="86.1904" y1="21.5898" x2="86.1904" y2="41.4982" gradientUnits="userSpaceOnUse">
<stop stop-color="white"/>
<stop offset="0.245" stop-color="#E8E8E8"/>
<stop offset="0.56" stop-color="#949494"/>
<stop offset="0.71" stop-color="white"/>
</linearGradient>
<linearGradient id="paint10_linear_356_10922" x1="86.1904" y1="21.5898" x2="86.1904" y2="41.4982" gradientUnits="userSpaceOnUse">
<stop stop-color="white"/>
<stop offset="0.245" stop-color="#E8E8E8"/>
<stop offset="0.56" stop-color="#949494"/>
<stop offset="0.71" stop-color="white"/>
</linearGradient>
<linearGradient id="paint11_linear_356_10922" x1="86.1904" y1="21.5898" x2="86.1904" y2="41.4982" gradientUnits="userSpaceOnUse">
<stop stop-color="white"/>
<stop offset="0.245" stop-color="#E8E8E8"/>
<stop offset="0.56" stop-color="#949494"/>
<stop offset="0.71" stop-color="white"/>
</linearGradient>
</defs>
</svg>
