<svg width="114" height="40" viewBox="0 0 114 40" fill="none" xmlns="http://www.w3.org/2000/svg">
<path d="M13.8417 21.8269V20.6609C14.5991 20.5812 15.0475 20.4317 15.187 20.2125C15.3465 19.9933 15.2867 19.5349 15.0076 18.8373L13.6623 15.3694C13.3036 14.4526 12.9349 13.7351 12.5562 13.2169C12.1974 12.6987 11.7789 12.33 11.3006 12.1108C10.8222 11.8915 10.2343 11.7819 9.53673 11.7819H7.59351V10.616H9.59652C10.0749 10.616 10.5034 10.5562 10.882 10.4366C11.2607 10.317 11.6294 10.1177 11.9882 9.83871C12.3669 9.53975 12.7555 9.1511 13.1541 8.67277L14.619 6.93882C15.4162 6.00209 15.9045 5.16501 16.0839 4.42758C16.2633 3.67023 16.1437 3.06235 15.7251 2.60395C15.3265 2.12562 14.629 1.85655 13.6324 1.79676V0.660727C14.3898 0.680657 15.1671 0.700588 15.9643 0.720518C16.7615 0.740449 17.5687 0.750414 18.3859 0.750414C18.9439 0.750414 19.5319 0.740449 20.1497 0.720518C20.7875 0.700588 21.7142 0.680657 22.93 0.660727V1.79676C22.1328 1.99607 21.4352 2.2452 20.8373 2.54416C20.2394 2.84311 19.6714 3.22179 19.1332 3.68019C18.6151 4.13859 18.0371 4.71658 17.3993 5.41414L13.4232 10.1975L13.7221 9.12121C14.7186 9.28065 15.5657 9.56964 16.2633 9.98818C16.9808 10.3868 17.6185 10.9548 18.1766 11.6922C18.7346 12.4297 19.2429 13.4162 19.7013 14.6519L20.9868 17.9703C21.206 18.5085 21.4352 18.9569 21.6744 19.3156C21.9335 19.6545 22.2424 19.9335 22.6011 20.1527C22.9599 20.352 23.3984 20.5214 23.9166 20.6609V21.8269C23.0795 21.8069 22.3719 21.797 21.794 21.797C21.2359 21.7771 20.7376 21.7671 20.2992 21.7671C19.8607 21.7472 19.4123 21.7372 18.9539 21.7372C18.0371 21.7372 17.1302 21.7472 16.2334 21.7671C15.3365 21.787 14.5393 21.8069 13.8417 21.8269ZM0 21.8269V20.6609C0.817149 20.6211 1.42503 20.5414 1.82364 20.4218C2.24218 20.2823 2.51124 20.0431 2.63082 19.7043C2.77033 19.3455 2.84009 18.8074 2.84009 18.0899V4.39769C2.84009 3.68019 2.77033 3.15203 2.63082 2.81322C2.49131 2.45447 2.22225 2.20534 1.82364 2.06583C1.42503 1.92631 0.817149 1.84659 0 1.82666V0.660727C0.518192 0.680657 1.28551 0.700588 2.30197 0.720518C3.33835 0.740449 4.55411 0.750414 5.94924 0.750414C7.22479 0.750414 8.3409 0.740449 9.29756 0.720518C10.2742 0.700588 11.0415 0.680657 11.5995 0.660727V1.82666C10.8222 1.84659 10.2343 1.92631 9.83568 2.06583C9.45701 2.18541 9.20788 2.42457 9.08829 2.78332C8.96871 3.14207 8.90892 3.68019 8.90892 4.39769V18.0899C8.90892 18.7875 8.96871 19.3156 9.08829 19.6744C9.20788 20.0331 9.45701 20.2823 9.83568 20.4218C10.2144 20.5414 10.7824 20.6211 11.5397 20.6609V21.8269C11.0016 21.787 10.2542 21.7671 9.29756 21.7671C8.3409 21.7472 7.22479 21.7372 5.94924 21.7372C4.55411 21.7372 3.33835 21.7472 2.30197 21.7671C1.28551 21.7671 0.518192 21.787 0 21.8269Z" fill="url(#paint0_linear_7164_14282)"/>
<path d="M33.9809 15.8776L26.8657 4.06884C26.3675 3.25169 25.8692 2.68367 25.3709 2.36478C24.8727 2.0459 24.215 1.86652 23.3978 1.82666V0.660727C24.4143 0.680657 25.4108 0.700588 26.3874 0.720518C27.364 0.740449 28.3705 0.750414 29.4069 0.750414C30.7023 0.750414 31.8882 0.740449 32.9644 0.720518C34.0606 0.700588 34.9874 0.680657 35.7447 0.660727V1.82666C34.6087 1.84659 33.8812 2.06583 33.5624 2.48436C33.2634 2.9029 33.3631 3.53071 33.8613 4.36779L38.1364 11.4232L36.8509 12.2603L39.8405 6.93882C40.6975 5.36432 40.9665 4.12863 40.6476 3.23176C40.3288 2.33489 39.4418 1.86652 37.9869 1.82666V0.660727C38.7443 0.680657 39.4917 0.700588 40.2291 0.720518C40.9865 0.740449 41.8335 0.750414 42.7702 0.750414C43.5475 0.750414 44.2252 0.740449 44.8031 0.720518C45.3811 0.700588 45.8993 0.680657 46.3577 0.660727V1.82666C45.6402 1.96617 45.0224 2.19537 44.5042 2.51426C43.986 2.81322 43.4977 3.23176 43.0393 3.76988C42.6008 4.308 42.1424 5.01553 41.6641 5.89247L36.1334 15.8776H33.9809ZM28.3904 21.8269V20.6609C29.5464 20.6609 30.4034 20.6012 30.9614 20.4816C31.5394 20.3421 31.9281 20.083 32.1274 19.7043C32.3267 19.3057 32.4263 18.6978 32.4263 17.8806V12.5293L35.7746 14.3829L38.4952 10.1676V17.8806C38.4952 18.6978 38.5948 19.3057 38.7941 19.7043C38.9934 20.083 39.3821 20.3421 39.96 20.4816C40.538 20.6012 41.395 20.6609 42.5311 20.6609V21.8269C41.7737 21.8069 40.7672 21.787 39.5116 21.7671C38.256 21.7472 36.9406 21.7372 35.5654 21.7372C34.1104 21.7372 32.7452 21.7472 31.4697 21.7671C30.214 21.787 29.1876 21.8069 28.3904 21.8269Z" fill="url(#paint1_linear_7164_14282)"/>
<path d="M65.6827 22.0361L51.6018 4.06884H51.2431V16.5652C51.2431 17.6016 51.3129 18.4088 51.4524 18.9868C51.5919 19.5448 51.9008 19.9435 52.3791 20.1826C52.8774 20.4218 53.6447 20.5812 54.6811 20.6609V21.8269C54.2825 21.787 53.7244 21.7671 53.0069 21.7671C52.2894 21.7472 51.552 21.7372 50.7947 21.7372C50.0572 21.7372 49.3696 21.7472 48.7319 21.7671C48.114 21.7671 47.6058 21.787 47.2072 21.8269V20.6609C48.0243 20.5812 48.6322 20.4218 49.0308 20.1826C49.4294 19.9435 49.6985 19.5548 49.838 19.0167C49.9775 18.4786 50.0473 17.7511 50.0473 16.8343V4.39769C50.0473 3.66026 49.9775 3.12214 49.838 2.78332C49.7184 2.4445 49.4593 2.20534 49.0607 2.06583C48.6621 1.92631 48.0443 1.84659 47.2072 1.82666V0.660727C47.6456 0.680657 48.2336 0.700588 48.971 0.720518C49.7284 0.740449 50.5256 0.750414 51.3627 0.750414C52.3393 0.750414 53.2461 0.740449 54.0832 0.720518C54.9203 0.700588 55.6876 0.680657 56.3852 0.660727L65.324 11.9912H65.6827V5.92237C65.6827 4.88598 65.613 4.08877 65.4734 3.53071C65.3339 2.95273 65.0151 2.54416 64.5168 2.30499C64.0385 2.0459 63.2811 1.88645 62.2447 1.82666V0.660727C62.6433 0.680657 63.2014 0.700588 63.9189 0.720518C64.6364 0.740449 65.3638 0.750414 66.1013 0.750414C66.8387 0.750414 67.5263 0.740449 68.1641 0.720518C68.8218 0.700588 69.34 0.680657 69.7186 0.660727V1.82666C68.9015 1.88645 68.2936 2.0459 67.895 2.30499C67.4964 2.54416 67.2273 2.9328 67.0878 3.47092C66.9483 3.98911 66.8785 4.71658 66.8785 5.65331V22.0361H65.6827Z" fill="url(#paint2_linear_7164_14282)"/>
<path d="M82.5301 22.2454C80.3577 22.2454 78.4543 21.8069 76.82 20.93C75.2057 20.0331 73.96 18.7775 73.0831 17.1632C72.2061 15.5488 71.7677 13.6454 71.7677 11.4531C71.7677 9.181 72.2261 7.20788 73.1429 5.53373C74.0796 3.85957 75.395 2.56409 77.0891 1.64728C78.7832 0.710553 80.7663 0.242188 83.0383 0.242188C84.1744 0.242188 85.141 0.34184 85.9382 0.541144C86.7554 0.720518 87.443 0.949718 88.001 1.22874C88.5591 1.48784 89.0274 1.71704 89.4061 1.91635C89.8047 2.09572 90.1535 2.18541 90.4525 2.18541C90.7714 2.18541 91.0205 2.04589 91.1999 1.76687C91.3792 1.48784 91.5088 1.02944 91.5885 0.391666H92.7843C92.7445 1.16895 92.7146 1.93628 92.6946 2.69363C92.6946 3.43106 92.6847 4.26814 92.6648 5.20487C92.6648 6.1416 92.6648 7.27764 92.6648 8.61298H91.4689C91.3294 7.21785 90.9507 6.01206 90.3329 4.9956C89.735 3.97915 88.9577 3.1919 88.001 2.63384C87.0444 2.07579 85.9382 1.79676 84.6826 1.79676C83.2875 1.79676 82.0916 2.17544 81.0951 2.9328C80.0986 3.69016 79.3412 4.7963 78.823 6.25122C78.3049 7.68622 78.0458 9.45006 78.0458 11.5428C78.0458 14.4925 78.5639 16.8044 79.6003 18.4786C80.6367 20.1328 82.0817 20.9599 83.9352 20.9599C84.5331 20.9599 85.0214 20.8802 85.4001 20.7207C85.7987 20.5613 86.0977 20.3321 86.297 20.0331C86.4963 19.7143 86.5959 19.3256 86.5959 18.8672V15.489C86.5959 14.7715 86.5262 14.2334 86.3867 13.8746C86.2471 13.4959 85.9781 13.2368 85.5795 13.0973C85.2008 12.9379 84.6228 12.8382 83.8455 12.7984V11.6623C84.2641 11.6823 84.9218 11.7022 85.8186 11.7221C86.7354 11.7421 87.8715 11.752 89.2268 11.752C90.4624 11.752 91.5088 11.7421 92.3658 11.7221C93.2228 11.7022 93.8905 11.6823 94.3688 11.6623V12.7984C93.8905 12.8382 93.5218 12.9279 93.2627 13.0674C93.0235 13.207 92.8641 13.4561 92.7843 13.8148C92.7046 14.1537 92.6648 14.6718 92.6648 15.3694V22.0063H91.4689C91.3892 21.4083 91.2497 20.9898 91.0504 20.7506C90.8511 20.4915 90.5621 20.362 90.1834 20.362C89.8047 20.362 89.3962 20.4517 88.9577 20.6311C88.5192 20.8104 88.011 21.0297 87.433 21.2888C86.855 21.5479 86.1674 21.7671 85.3702 21.9465C84.573 22.1458 83.6263 22.2454 82.5301 22.2454Z" fill="url(#paint3_linear_7164_14282)"/>
<path d="M105.898 22.2454C104.683 22.2454 103.666 22.1258 102.849 21.8867C102.052 21.6674 101.394 21.4482 100.876 21.229C100.378 20.9898 99.969 20.8702 99.6501 20.8702C99.391 20.8702 99.1817 20.9699 99.0223 21.1692C98.8827 21.3485 98.7731 21.6575 98.6934 22.0959H97.4976C97.5374 21.5379 97.5574 20.9001 97.5574 20.1826C97.5773 19.4651 97.5873 18.5583 97.5873 17.4621C97.6072 16.3659 97.6172 14.9708 97.6172 13.2767H98.813C99.1319 15.7879 99.8494 17.6913 100.965 18.9868C102.082 20.2623 103.576 20.9001 105.45 20.9001C106.586 20.9001 107.473 20.651 108.111 20.1527C108.768 19.6345 109.097 18.927 109.097 18.0301C109.097 17.3924 108.918 16.8243 108.559 16.3261C108.2 15.8079 107.622 15.3196 106.825 14.8612C106.048 14.4028 105.021 13.9245 103.746 13.4262C102.331 12.8881 101.175 12.2902 100.278 11.6324C99.4009 10.9548 98.7432 10.1975 98.3048 9.36037C97.8862 8.50336 97.677 7.5467 97.677 6.49039C97.677 5.21484 97.9759 4.11866 98.5738 3.20186C99.1717 2.26513 100.019 1.53767 101.115 1.01947C102.231 0.501283 103.527 0.242188 105.001 0.242188C106.118 0.242188 107.034 0.36177 107.752 0.600936C108.489 0.840101 109.097 1.07927 109.575 1.31843C110.054 1.53767 110.452 1.64728 110.771 1.64728C111.03 1.64728 111.23 1.5576 111.369 1.37822C111.529 1.17892 111.648 0.850066 111.728 0.391666H112.924C112.884 0.869997 112.844 1.39815 112.804 1.97614C112.784 2.55412 112.764 3.31148 112.744 4.24821C112.744 5.16501 112.744 6.39074 112.744 7.92538H111.549C111.27 5.9722 110.572 4.41762 109.456 3.26165C108.36 2.10568 107.034 1.5277 105.48 1.5277C104.523 1.5277 103.776 1.76687 103.238 2.2452C102.699 2.7036 102.43 3.35134 102.43 4.18842C102.43 4.78633 102.59 5.31449 102.909 5.77289C103.228 6.21136 103.796 6.64983 104.613 7.0883C105.43 7.52677 106.546 8.02503 107.961 8.58309C110.074 9.40024 111.608 10.3868 112.565 11.5428C113.522 12.6788 114 14.044 114 15.6385C114 17.6913 113.273 19.3057 111.818 20.4816C110.363 21.6575 108.39 22.2454 105.898 22.2454Z" fill="url(#paint4_linear_7164_14282)"/>
<path d="M6.14487 39.7616C5.02877 39.7616 4.05616 39.5597 3.22705 39.1558C2.40857 38.7518 1.77611 38.1778 1.32967 37.4338C0.883229 36.6897 0.660007 35.8127 0.660007 34.8029C0.660007 33.7719 0.888543 32.8684 1.34562 32.0924C1.81332 31.3164 2.45641 30.7106 3.27488 30.2747C4.10399 29.8389 5.06065 29.621 6.14487 29.621C6.71887 29.621 7.20783 29.6742 7.61175 29.7805C8.02631 29.8761 8.37177 29.9984 8.64814 30.1472C8.93514 30.2854 9.1743 30.4076 9.36563 30.5139C9.55697 30.6096 9.72173 30.6574 9.85991 30.6574C10.0194 30.6574 10.1469 30.5777 10.2426 30.4182C10.3489 30.2588 10.418 30.0196 10.4499 29.7007H11.0876C11.077 29.9452 11.0664 30.2216 11.0557 30.5299C11.0451 30.8381 11.0345 31.2314 11.0238 31.7097C11.0238 32.1774 11.0238 32.7833 11.0238 33.5274H10.3861C10.1629 32.507 9.75893 31.7257 9.1743 31.1836C8.58967 30.6415 7.87749 30.3704 7.03776 30.3704C6.04921 30.3704 5.26793 30.7584 4.69393 31.5343C4.13057 32.2997 3.84888 33.3679 3.84888 34.7392C3.84888 35.6427 3.97644 36.4186 4.23155 37.067C4.48666 37.7048 4.85338 38.1938 5.33171 38.5339C5.82067 38.8741 6.4053 39.0441 7.08559 39.0441C7.95721 39.0441 8.6694 38.7678 9.22214 38.215C9.77487 37.6623 10.1629 36.8226 10.3861 35.6958H11.0238C11.0238 36.4718 11.0238 37.1096 11.0238 37.6091C11.0345 38.0981 11.0451 38.5073 11.0557 38.8369C11.0664 39.1558 11.077 39.4374 11.0876 39.6819H10.4499C10.4073 39.3418 10.3382 39.1026 10.2426 38.9644C10.1575 38.8156 10.0353 38.7412 9.87585 38.7412C9.70578 38.7412 9.53039 38.7943 9.34969 38.9006C9.16899 38.9963 8.94577 39.1132 8.68003 39.2514C8.41429 39.3896 8.07946 39.5065 7.67553 39.6022C7.27161 39.7085 6.76139 39.7616 6.14487 39.7616Z" fill="url(#paint5_linear_7164_14282)"/>
<path d="M21.1515 39.5384V38.9166C21.5129 38.8422 21.8211 38.7146 22.0762 38.5339C22.342 38.3532 22.5918 38.0928 22.8256 37.7527C23.0595 37.4125 23.3093 36.9607 23.575 36.3974L26.7161 29.7326H27.5292L31.595 37.4338C31.8714 37.9546 32.1425 38.3266 32.4082 38.5499C32.6846 38.7625 33.0353 38.8847 33.4605 38.9166V39.5384C33.0779 39.5172 32.5995 39.5065 32.0255 39.5065C31.4622 39.4959 30.8031 39.4906 30.0484 39.4906C29.5914 39.4906 29.1715 39.4959 28.7888 39.5065C28.4168 39.5065 28.0873 39.5118 27.8003 39.5225C27.5239 39.5225 27.3007 39.5278 27.1306 39.5384V38.9166C27.5558 38.906 27.88 38.8475 28.1032 38.7412C28.3264 38.6243 28.4434 38.4542 28.454 38.231C28.4752 38.0078 28.3902 37.7208 28.1989 37.37L25.6956 32.6186L26.1261 32.3635L24.5476 35.7118C24.2181 36.3921 24.0427 36.9714 24.0215 37.4497C24.0002 37.9174 24.1171 38.2735 24.3722 38.518C24.6273 38.7625 25.0206 38.8953 25.5521 38.9166V39.5384C25.1376 39.5278 24.7868 39.5225 24.4998 39.5225C24.2128 39.5118 23.9577 39.5065 23.7345 39.5065C23.5219 39.4959 23.2986 39.4906 23.0648 39.4906C22.6821 39.4906 22.3367 39.4959 22.0284 39.5065C21.7201 39.5065 21.4278 39.5172 21.1515 39.5384ZM23.8939 36.4452L24.1809 35.8234H28.6932L28.9802 36.4452H23.8939Z" fill="url(#paint6_linear_7164_14282)"/>
<path d="M48.3338 39.7616C47.6535 39.7616 47.0849 39.6979 46.6278 39.5703C46.1707 39.4534 45.7934 39.3365 45.4957 39.2195C45.1981 39.1026 44.943 39.0441 44.7304 39.0441C44.5816 39.0441 44.4647 39.092 44.3796 39.1876C44.3052 39.2833 44.2468 39.4481 44.2042 39.6819H43.5665C43.5877 39.4055 43.5984 39.1026 43.5984 38.7731C43.609 38.4329 43.6143 38.0184 43.6143 37.5294C43.6249 37.0298 43.6302 36.3974 43.6302 35.632H44.268C44.5763 36.8332 45.0068 37.7101 45.5595 38.2629C46.1229 38.805 46.8776 39.076 47.8236 39.076C48.3976 39.076 48.8281 38.9697 49.1151 38.7571C49.4021 38.5446 49.5456 38.2416 49.5456 37.8483C49.5456 37.4656 49.349 37.1255 48.9557 36.8279C48.573 36.5302 47.9033 36.2114 46.9467 35.8712C45.8199 35.4673 44.9961 34.9996 44.4753 34.4681C43.9651 33.926 43.71 33.2723 43.71 32.507C43.71 31.6247 44.0395 30.9231 44.6985 30.4023C45.3576 29.8814 46.2611 29.621 47.4091 29.621C48.0575 29.621 48.5836 29.6848 48.9876 29.8124C49.3915 29.9399 49.7263 30.0675 49.992 30.195C50.2578 30.3119 50.4916 30.3704 50.6936 30.3704C50.853 30.3704 50.97 30.3226 51.0444 30.2269C51.1294 30.1312 51.1932 29.9559 51.2357 29.7007H51.8735C51.8522 29.9452 51.8363 30.211 51.8256 30.498C51.815 30.7743 51.8044 31.1251 51.7938 31.5503C51.7938 31.9648 51.7938 32.5123 51.7938 33.1926H51.156C51.0072 32.5867 50.7786 32.0658 50.4704 31.63C50.1727 31.1942 49.806 30.8647 49.3702 30.6415C48.9344 30.4076 48.4508 30.2907 47.9193 30.2907C47.4091 30.2907 47.0158 30.3863 46.7394 30.5777C46.463 30.769 46.3248 31.0454 46.3248 31.4068C46.3248 31.6725 46.4099 31.9117 46.58 32.1243C46.75 32.3369 47.0423 32.5442 47.4569 32.7461C47.8714 32.9481 48.4454 33.1819 49.1789 33.4477C49.9442 33.7134 50.5607 34.0057 51.0284 34.3246C51.5068 34.6329 51.8522 34.9836 52.0648 35.3769C52.288 35.7596 52.3996 36.2114 52.3996 36.7322C52.3996 37.6676 52.0382 38.4064 51.3154 38.9485C50.6032 39.4906 49.6094 39.7616 48.3338 39.7616Z" fill="url(#paint7_linear_7164_14282)"/>
<path d="M63.0832 39.5384V38.9166C63.5296 38.8953 63.8592 38.8528 64.0717 38.789C64.295 38.7253 64.4385 38.5977 64.5022 38.4064C64.566 38.215 64.5979 37.928 64.5979 37.5454V31.8373C64.5979 31.444 64.5607 31.157 64.4863 30.9763C64.4225 30.785 64.2843 30.6574 64.0717 30.5936C63.8592 30.5192 63.5296 30.4767 63.0832 30.4661V29.8442C63.3489 29.8549 63.7422 29.8655 64.2631 29.8761C64.7839 29.8868 65.4111 29.8921 66.1445 29.8921C66.8567 29.8921 67.4732 29.8868 67.9941 29.8761C68.5149 29.8655 68.9135 29.8549 69.1899 29.8442V30.4661C68.7434 30.4767 68.4139 30.5192 68.2013 30.5936C67.9887 30.6574 67.8453 30.785 67.7708 30.9763C67.7071 31.157 67.6752 31.444 67.6752 31.8373V37.5454C67.6752 37.928 67.7071 38.215 67.7708 38.4064C67.8453 38.5977 67.9887 38.7253 68.2013 38.789C68.4139 38.8528 68.7434 38.8953 69.1899 38.9166V39.5384C68.9029 39.5278 68.499 39.5172 67.9781 39.5065C67.4679 39.4959 66.8567 39.4906 66.1445 39.4906C65.4111 39.4906 64.7839 39.4959 64.2631 39.5065C63.7529 39.5172 63.3596 39.5278 63.0832 39.5384Z" fill="url(#paint8_linear_7164_14282)"/>
<path d="M89.0789 39.65L81.9837 31.4227H81.7924V36.7322C81.7924 37.285 81.8296 37.7154 81.904 38.0237C81.9784 38.3213 82.1432 38.5339 82.3983 38.6615C82.664 38.789 83.0732 38.8741 83.626 38.9166V39.5384C83.4134 39.5172 83.1158 39.5065 82.7331 39.5065C82.3611 39.4959 81.9731 39.4906 81.5692 39.4906C81.1652 39.4906 80.7932 39.4959 80.453 39.5065C80.1235 39.5065 79.8525 39.5172 79.6399 39.5384V38.9166C80.0757 38.8741 80.3999 38.789 80.6125 38.6615C80.8357 38.5339 80.9792 38.3266 81.043 38.0396C81.1174 37.7526 81.1546 37.3647 81.1546 36.8757V31.8373C81.1546 31.444 81.1174 31.157 81.043 30.9763C80.9792 30.7956 80.841 30.668 80.6284 30.5936C80.4158 30.5192 80.0863 30.4767 79.6399 30.4661V29.8442C79.8844 29.8549 80.2032 29.8655 80.5965 29.8761C80.9898 29.8868 81.415 29.8921 81.8721 29.8921C82.3823 29.8921 82.8606 29.8868 83.3071 29.8761C83.7642 29.8655 84.1787 29.8549 84.5508 29.8442L88.8876 34.8827H89.0789V32.6504C89.0789 32.0977 89.0417 31.6725 88.9673 31.3749C88.8929 31.0666 88.7229 30.8487 88.4571 30.7212C88.202 30.583 87.7981 30.498 87.2453 30.4661V29.8442C87.4579 29.8549 87.7556 29.8655 88.1382 29.8761C88.5209 29.8868 88.9089 29.8921 89.3022 29.8921C89.6955 29.8921 90.0622 29.8868 90.4023 29.8761C90.7425 29.8655 91.0189 29.8549 91.2314 29.8442V30.4661C90.7956 30.498 90.4714 30.583 90.2588 30.7212C90.0462 30.8487 89.9027 31.056 89.8283 31.343C89.7539 31.6194 89.7167 32.0074 89.7167 32.507V39.65H89.0789Z" fill="url(#paint9_linear_7164_14282)"/>
<path d="M107.607 39.7616C106.406 39.7616 105.354 39.549 104.45 39.1239C103.547 38.6987 102.845 38.1034 102.345 37.3381C101.856 36.5728 101.612 35.6905 101.612 34.6913C101.612 33.6815 101.856 32.7993 102.345 32.0446C102.834 31.2899 103.525 30.6999 104.418 30.2747C105.322 29.8389 106.374 29.621 107.575 29.621C108.798 29.621 109.855 29.8336 110.748 30.2588C111.641 30.684 112.332 31.2792 112.821 32.0446C113.32 32.7993 113.57 33.6815 113.57 34.6913C113.57 35.6905 113.326 36.5728 112.837 37.3381C112.348 38.1034 111.657 38.6987 110.764 39.1239C109.871 39.549 108.819 39.7616 107.607 39.7616ZM107.623 39.1717C108.154 39.1717 108.627 38.991 109.042 38.6296C109.457 38.2576 109.781 37.7367 110.015 37.067C110.259 36.3974 110.381 35.6055 110.381 34.6913C110.381 33.7772 110.254 32.9853 109.999 32.3156C109.754 31.646 109.419 31.1304 108.994 30.769C108.58 30.397 108.107 30.211 107.575 30.211C107.044 30.211 106.565 30.397 106.14 30.769C105.726 31.1304 105.396 31.646 105.152 32.3156C104.918 32.9853 104.801 33.7772 104.801 34.6913C104.801 35.6055 104.923 36.3974 105.168 37.067C105.412 37.7367 105.747 38.2576 106.172 38.6296C106.608 38.991 107.091 39.1717 107.623 39.1717Z" fill="url(#paint10_linear_7164_14282)"/>
<defs>
<linearGradient id="paint0_linear_7164_14282" x1="57" y1="0.242187" x2="57" y2="39.7616" gradientUnits="userSpaceOnUse">
<stop stop-color="#F4E0C0"/>
<stop offset="1" stop-color="#C9A46B"/>
</linearGradient>
<linearGradient id="paint1_linear_7164_14282" x1="57" y1="0.242187" x2="57" y2="39.7616" gradientUnits="userSpaceOnUse">
<stop stop-color="#F4E0C0"/>
<stop offset="1" stop-color="#C9A46B"/>
</linearGradient>
<linearGradient id="paint2_linear_7164_14282" x1="57" y1="0.242187" x2="57" y2="39.7616" gradientUnits="userSpaceOnUse">
<stop stop-color="#F4E0C0"/>
<stop offset="1" stop-color="#C9A46B"/>
</linearGradient>
<linearGradient id="paint3_linear_7164_14282" x1="57" y1="0.242187" x2="57" y2="39.7616" gradientUnits="userSpaceOnUse">
<stop stop-color="#F4E0C0"/>
<stop offset="1" stop-color="#C9A46B"/>
</linearGradient>
<linearGradient id="paint4_linear_7164_14282" x1="57" y1="0.242187" x2="57" y2="39.7616" gradientUnits="userSpaceOnUse">
<stop stop-color="#F4E0C0"/>
<stop offset="1" stop-color="#C9A46B"/>
</linearGradient>
<linearGradient id="paint5_linear_7164_14282" x1="57" y1="0.242187" x2="57" y2="39.7616" gradientUnits="userSpaceOnUse">
<stop stop-color="#F4E0C0"/>
<stop offset="1" stop-color="#C9A46B"/>
</linearGradient>
<linearGradient id="paint6_linear_7164_14282" x1="57" y1="0.242187" x2="57" y2="39.7616" gradientUnits="userSpaceOnUse">
<stop stop-color="#F4E0C0"/>
<stop offset="1" stop-color="#C9A46B"/>
</linearGradient>
<linearGradient id="paint7_linear_7164_14282" x1="57" y1="0.242187" x2="57" y2="39.7616" gradientUnits="userSpaceOnUse">
<stop stop-color="#F4E0C0"/>
<stop offset="1" stop-color="#C9A46B"/>
</linearGradient>
<linearGradient id="paint8_linear_7164_14282" x1="57" y1="0.242187" x2="57" y2="39.7616" gradientUnits="userSpaceOnUse">
<stop stop-color="#F4E0C0"/>
<stop offset="1" stop-color="#C9A46B"/>
</linearGradient>
<linearGradient id="paint9_linear_7164_14282" x1="57" y1="0.242187" x2="57" y2="39.7616" gradientUnits="userSpaceOnUse">
<stop stop-color="#F4E0C0"/>
<stop offset="1" stop-color="#C9A46B"/>
</linearGradient>
<linearGradient id="paint10_linear_7164_14282" x1="57" y1="0.242187" x2="57" y2="39.7616" gradientUnits="userSpaceOnUse">
<stop stop-color="#F4E0C0"/>
<stop offset="1" stop-color="#C9A46B"/>
</linearGradient>
</defs>
</svg>
