<svg width="199" height="42" viewBox="0 0 199 42" fill="none" xmlns="http://www.w3.org/2000/svg">
<rect y="0.351562" width="198.7" height="41.2996" fill="white"/>
<path d="M3.61163 3.38507H195.381V38.5814H3.61163V3.38507Z" fill="white" stroke="#141C29" stroke-width="3.75451"/>
<path d="M13.5703 30.5658V11.6237H18.5141V26.455H26.9507V30.5658H13.5703Z" fill="#141C29"/>
<path d="M36.883 30.8614C34.1245 30.8614 32.0109 30.1628 30.5421 28.7657C29.0912 27.3685 28.3657 25.2817 28.3657 22.5053V11.6237H33.3095V22.5591C33.3095 23.9383 33.614 24.9772 34.223 25.6758C34.832 26.3744 35.7187 26.7237 36.883 26.7237C38.0294 26.7237 38.9071 26.3744 39.5161 25.6758C40.1251 24.9772 40.4296 23.9383 40.4296 22.5591V11.6237H45.2928V22.5053C45.2928 25.2817 44.5763 27.3685 43.1433 28.7657C41.7282 30.1628 39.6415 30.8614 36.883 30.8614Z" fill="#141C29"/>
<path d="M58.164 30.8614C56.0682 30.8614 54.2681 30.4584 52.7634 29.6523C51.2588 28.8463 50.1035 27.7088 49.2974 26.24C48.5093 24.7712 48.1152 23.0517 48.1152 21.0813C48.1152 19.111 48.5093 17.4004 49.2974 15.9495C50.1035 14.4807 51.2588 13.3432 52.7634 12.5372C54.2681 11.7312 56.0682 11.3281 58.164 11.3281C59.4178 11.3281 60.6269 11.5162 61.7912 11.8924C62.9555 12.2685 63.8959 12.779 64.6124 13.4239L63.1346 17.3198C62.3465 16.7466 61.5583 16.3256 60.7702 16.0569C59.9821 15.7704 59.176 15.6271 58.352 15.6271C56.6862 15.6271 55.4323 16.1017 54.5905 17.0511C53.7486 17.9825 53.3277 19.3259 53.3277 21.0813C53.3277 22.8546 53.7486 24.216 54.5905 25.1653C55.4323 26.0967 56.6862 26.5625 58.352 26.5625C59.176 26.5625 59.9821 26.4281 60.7702 26.1594C61.5583 25.8728 62.3465 25.443 63.1346 24.8698L64.6124 28.7657C63.8959 29.3926 62.9555 29.9031 61.7912 30.2972C60.6269 30.6733 59.4178 30.8614 58.164 30.8614Z" fill="#141C29"/>
<path d="M67.0446 30.5658V11.6237H71.9883V19.7379H72.0421L79.404 11.6237H85.2613L75.9111 21.6187V19.6036L85.5568 30.5658H79.6727L72.0421 22.0217H71.9883V30.5658H67.0446Z" fill="#141C29"/>
<path d="M90.3178 30.5658V20.8932L91.3388 23.6069L83.0365 11.6237H88.7057L93.3539 18.502H92.3866L97.0349 11.6237H102.543L94.2674 23.6069L95.2616 20.8932V30.5658H90.3178Z" fill="#141C29"/>
<path d="M116.237 30.5658L109.439 11.6237H114.49L119.058 25.3265H117.795L122.712 11.6237H126.205L130.826 25.3265H129.751L134.427 11.6237H139.182L132.331 30.5658H128.381L124.002 18.2333H124.673L120.186 30.5658H116.237Z" fill="#141C29"/>
<path d="M141.169 30.5658V25.945V23.7789V11.6237H146.112V23.7789V25.945V30.5658H141.169Z" fill="#141C29"/>
<path d="M149.539 30.5658V11.6237H153.166L162.624 23.4189H161.871V11.6237H166.439V30.5658H162.839L153.381 18.7438H154.133V30.5658H149.539Z" fill="#141C29"/>
<path d="M176.939 30.8614C175.954 30.8614 174.987 30.7808 174.038 30.6196C173.088 30.4584 172.211 30.2255 171.404 29.921C170.598 29.6165 169.9 29.2583 169.309 28.8463L170.679 25.0041C171.234 25.3623 171.852 25.6758 172.533 25.9445C173.214 26.2132 173.93 26.4281 174.682 26.5893C175.435 26.7326 176.187 26.8043 176.939 26.8043C178.122 26.8043 178.946 26.652 179.411 26.3475C179.895 26.0251 180.137 25.631 180.137 25.1653C180.137 24.8787 180.065 24.6369 179.922 24.4399C179.778 24.2428 179.537 24.0727 179.196 23.9294C178.874 23.7682 178.435 23.6338 177.88 23.5263L174.736 22.8546C173.017 22.4964 171.736 21.8695 170.894 20.9739C170.052 20.0782 169.631 18.9229 169.631 17.5078C169.631 16.254 169.963 15.1703 170.625 14.2568C171.306 13.3253 172.246 12.6088 173.446 12.1073C174.665 11.5879 176.062 11.3281 177.638 11.3281C178.516 11.3281 179.358 11.4087 180.164 11.5699C180.988 11.7311 181.749 11.973 182.447 12.2954C183.146 12.5999 183.737 12.9581 184.221 13.3701L182.85 16.9705C182.17 16.4689 181.373 16.0838 180.459 15.8151C179.563 15.5285 178.605 15.3852 177.584 15.3852C176.921 15.3852 176.357 15.4658 175.891 15.6271C175.426 15.7704 175.068 15.9853 174.817 16.2719C174.584 16.5585 174.467 16.8899 174.467 17.266C174.467 17.6422 174.62 17.9646 174.924 18.2333C175.247 18.4841 175.829 18.699 176.671 18.8781L179.787 19.5498C181.525 19.926 182.824 20.544 183.683 21.4037C184.543 22.2635 184.973 23.383 184.973 24.7623C184.973 25.9803 184.642 27.055 183.979 27.9865C183.316 28.9 182.385 29.6075 181.185 30.1091C179.984 30.6106 178.569 30.8614 176.939 30.8614Z" fill="#141C29"/>
<path d="M146.116 25.9478H141.172V24.3594H146.116V25.9478Z" fill="white"/>
</svg>
