<svg width="101" height="18" viewBox="0 0 101 18" fill="none" xmlns="http://www.w3.org/2000/svg">
<path d="M0 17.4424L3.5764 0.554688H16.1012L15.3741 4.01237H7.12313L6.47017 7.09906H13.5785L12.8365 10.5716H5.72818L4.27388 17.4424H0Z" fill="white"/>
<path d="M15.8193 17.4424L19.3957 0.554688H32.8703L32.1431 4.01237H22.9424L22.334 6.86162H30.8966L30.1694 10.3193H21.6068L20.8203 13.9847H30.3475L29.6203 17.4424H15.8193Z" fill="white"/>
<path d="M31.1934 17.4424L31.9205 13.9996L42.5162 4.01237H35.0369L35.764 0.554688H49.0754L48.4373 3.56718L37.3519 13.9847H46.5823L45.8551 17.4424H31.1934Z" fill="white"/>
<path d="M55.9314 3.96785L55.2933 6.9655H57.1334C57.7567 6.9655 58.2761 6.96055 58.6916 6.95066C59.1071 6.94077 59.4089 6.92593 59.5968 6.90614C59.8442 6.87646 60.0816 6.81216 60.3091 6.71322C60.5367 6.61429 60.7345 6.49063 60.9027 6.34223C61.0808 6.18394 61.2193 6.00586 61.3182 5.80799C61.4271 5.61013 61.4815 5.39248 61.4815 5.15504C61.4815 4.84835 61.3875 4.59607 61.1995 4.39821C61.0215 4.19045 60.7444 4.06678 60.3685 4.02721C60.1805 4.00743 59.8442 3.99259 59.3594 3.98269C58.8845 3.9728 58.2612 3.96785 57.4896 3.96785H55.9314ZM54.5661 10.3935L53.8093 13.9847H56.5843C57.7616 13.9847 58.5234 13.9551 58.8697 13.8957C59.0873 13.8561 59.3 13.7819 59.5078 13.6731C59.7254 13.5544 59.9184 13.406 60.0865 13.2279C60.2646 13.0498 60.4031 12.852 60.5021 12.6343C60.6109 12.4068 60.6653 12.1594 60.6653 11.8923C60.6653 11.2592 60.3734 10.8288 59.7897 10.6013C59.5919 10.5221 59.2555 10.4677 58.7806 10.438C58.3058 10.4083 57.6874 10.3935 56.9257 10.3935H54.5661ZM52.3847 0.554688H60.0569C60.8087 0.554688 61.5309 0.6091 62.2235 0.717926C62.916 0.826751 63.5294 1.02956 64.0636 1.32636C64.5979 1.61326 65.0233 2.01394 65.3398 2.52839C65.6564 3.03294 65.8147 3.6859 65.8147 4.48725C65.8147 5.02148 65.7207 5.50625 65.5328 5.94155C65.3547 6.37685 65.1172 6.76269 64.8204 7.09906C64.5237 7.42554 64.1774 7.70255 63.7817 7.93009C63.3958 8.15764 62.9951 8.33571 62.5796 8.46433C63.3315 8.82048 63.9251 9.28546 64.3604 9.85927C64.7957 10.4331 65.0134 11.2048 65.0134 12.1743C65.0134 12.7976 64.8798 13.401 64.6127 13.9847C64.3456 14.5684 63.9746 15.0977 63.4997 15.5726C63.0248 16.0376 62.456 16.4284 61.7931 16.745C61.1303 17.0516 60.4031 17.2446 59.6117 17.3237C59.3149 17.3534 58.8202 17.3781 58.1277 17.3979C57.445 17.4177 56.5547 17.4325 55.4565 17.4424H48.7934L52.3847 0.554688Z" fill="#FFDC26"/>
<path d="M67.551 17.4424L71.1274 0.554688H84.602L83.8748 4.01237H74.6741L74.0657 6.86162H82.6283L81.9011 10.3193H73.3385L72.552 13.9847H82.0792L81.352 17.4424H67.551Z" fill="#FFDC26"/>
<path d="M88.1042 17.4424L90.9534 4.01237H85.893L86.6202 0.554688H101L100.273 4.01237H95.2273L92.378 17.4424H88.1042Z" fill="#FFDC26"/>
</svg>
