<svg width="153" height="57" viewBox="0 0 153 57" fill="none" xmlns="http://www.w3.org/2000/svg">
<path d="M7.75391 2.33789C9.85955 2.33802 11.7878 3.51806 12.7471 5.39258V5.3916L25.5117 30.3486C26.2246 31.7429 26.2832 33.3758 25.6826 34.8105L25.5537 35.0947L19.9346 46.5723C19.4537 47.5539 18.4559 48.1757 17.3633 48.1758H9.28027L16.6797 33.0615L16.8594 32.6953L16.6738 32.332L1.33105 2.33789H7.75391Z" fill="#FF4F00" stroke="#091C2D" stroke-width="1.62885"/>
<path d="M13.4703 5.02148C19.8279 17.4509 20.3241 23.7631 15.9468 32.7037L7.97266 48.9909H17.3616C18.7653 48.9909 20.0465 48.1915 20.6641 46.9307L26.2833 35.4533C27.1306 33.7226 27.1129 31.6936 26.2355 29.9778L13.4703 5.02148Z" fill="#A553FF"/>
<path d="M25.5107 30.3486C26.2712 31.8359 26.286 33.5945 25.5518 35.0947L19.9326 46.5723C19.4518 47.554 18.454 48.1768 17.3613 48.1768H9.27832L16.6787 33.0615C18.91 28.5039 19.9342 24.5399 19.5459 20.0996C19.4912 19.4738 19.4046 18.8408 19.2939 18.1963L25.5107 30.3486Z" fill="#FFB800" stroke="#091C2D" stroke-width="1.62885"/>
<mask id="path-4-inside-1_1859_55377" fill="white">
<path d="M42.3516 0.941406L28.6641 28.8984L24.0889 19.9541C23.2115 18.2383 23.1938 16.2092 24.041 14.4785L29.6602 3.00098C30.2775 1.74029 31.5593 0.94113 32.9629 0.941406H42.3516Z"/>
</mask>
<path d="M42.3516 0.941406L28.6641 28.8984L24.0889 19.9541C23.2115 18.2383 23.1938 16.2092 24.041 14.4785L29.6602 3.00098C30.2775 1.74029 31.5593 0.94113 32.9629 0.941406H42.3516Z" fill="#FFB800"/>
<path d="M42.3516 0.941406L43.8145 1.65764L44.9626 -0.687443H42.3516V0.941406ZM28.6641 28.8984L27.2139 29.6402L28.696 32.5376L30.127 29.6147L28.6641 28.8984ZM24.0889 19.9541L22.6386 20.6957L22.6387 20.6959L24.0889 19.9541ZM24.041 14.4785L22.5781 13.7623L22.5781 13.7623L24.041 14.4785ZM29.6602 3.00098L28.1973 2.28467L28.1972 2.28476L29.6602 3.00098ZM32.9629 0.941406L32.9626 2.57026H32.9629V0.941406ZM42.3516 0.941406L40.8886 0.225171L27.2011 28.1822L28.6641 28.8984L30.127 29.6147L43.8145 1.65764L42.3516 0.941406ZM28.6641 28.8984L30.1142 28.1567L25.539 19.2123L24.0889 19.9541L22.6387 20.6959L27.2139 29.6402L28.6641 28.8984ZM24.0889 19.9541L25.5391 19.2125C24.8953 17.9535 24.8823 16.4646 25.504 15.1947L24.041 14.4785L22.5781 13.7623C21.5052 15.9539 21.5277 18.5231 22.6386 20.6957L24.0889 19.9541ZM24.041 14.4785L25.504 15.1947L31.1231 3.7172L29.6602 3.00098L28.1972 2.28476L22.5781 13.7623L24.041 14.4785ZM29.6602 3.00098L31.1231 3.71729C31.4668 3.01534 32.1807 2.5701 32.9626 2.57026L32.9629 0.941406L32.9632 -0.687443C30.9378 -0.687842 29.0882 0.46523 28.1973 2.28467L29.6602 3.00098ZM32.9629 0.941406V2.57026H42.3516V0.941406V-0.687443H32.9629V0.941406Z" fill="#091C2D" mask="url(#path-4-inside-1_1859_55377)"/>
<path d="M40.4414 21.1553C43.1197 21.1553 45.334 21.7583 46.9805 23.0693H46.9795C48.6503 24.3886 49.4932 26.1721 49.4932 28.3389C49.4931 29.7093 49.2299 30.9798 48.6895 32.1357L48.6875 32.1396C48.139 33.2976 47.298 34.2799 46.1934 35.0908L46.1943 35.0918C45.0938 35.9096 43.7205 36.5186 42.1035 36.9404L42.0967 36.9424C40.4699 37.3526 38.5681 37.5508 36.4033 37.5508H36.1074C36.1824 38.0931 36.373 38.4218 36.6055 38.626C36.9367 38.9167 37.5209 39.1367 38.5127 39.1367C39.5771 39.1367 40.5764 38.976 41.5146 38.6592L41.8857 38.5293C42.7625 38.2105 43.7028 37.7906 44.707 37.2656L45.957 36.6123V44.0527L45.4883 44.29C44.3807 44.8499 43.2401 45.314 42.0674 45.6826L41.5625 45.835C40.1596 46.2399 38.4321 46.4307 36.4033 46.4307C34.5086 46.4307 32.8303 46.0955 31.3984 45.3896L31.1152 45.2432C29.6281 44.4401 28.4816 43.2869 27.6924 41.7979L27.6875 41.7891C26.9164 40.2913 26.5479 38.5438 26.5479 36.5762C26.5479 34.6333 26.8213 32.7485 27.3682 30.9258L27.3691 30.9199L27.4785 30.5781C28.0415 28.8785 28.8553 27.339 29.9219 25.9658L29.9258 25.9619L30.1475 25.6875C31.276 24.3329 32.6634 23.2535 34.2988 22.4492L34.6338 22.29C36.3297 21.525 38.2727 21.1553 40.4414 21.1553ZM60.0322 21.1553C61.5877 21.1553 63.035 21.3445 64.3682 21.7314L64.3672 21.7324C65.6906 22.1031 66.9603 22.6637 68.1748 23.4121L68.8301 23.8154L68.4971 24.5088L66.0654 29.5723L65.6416 30.4551L64.8252 29.915C64.1327 29.4575 63.3302 29.0486 62.4141 28.6924L62.4072 28.6895L62.4014 28.6875C61.5237 28.329 60.764 28.168 60.1123 28.168C59.7905 28.168 59.6243 28.2431 59.5332 28.3135C59.5038 28.3411 59.4395 28.4213 59.4395 28.6797C59.4395 28.7183 59.4473 28.7622 59.499 28.8301C59.5993 28.9409 59.7981 29.1025 60.1494 29.3018C60.5426 29.5113 61.0478 29.7732 61.666 30.0889H61.665C62.7507 30.6256 63.6688 31.2468 64.4004 31.9619L64.6719 32.2344C65.2822 32.8775 65.7555 33.5889 66.0801 34.3691L66.2158 34.708C66.5099 35.5081 66.6523 36.3682 66.6523 37.2793C66.6523 39.2797 66.2082 41.0109 65.2607 42.417L65.2578 42.4209C64.3216 43.795 63.0069 44.807 61.3525 45.4658C59.7156 46.1177 57.8151 46.4307 55.6719 46.4307C54.1198 46.4307 52.7152 46.3208 51.4629 46.0957H51.4609C50.2253 45.871 49.1203 45.5368 48.1562 45.084L47.665 44.8535V36.626L48.9277 37.3125C50.114 37.9572 51.1924 38.3944 52.165 38.6406C53.155 38.8912 54.1562 39.0166 55.1699 39.0166C55.4433 39.0166 55.777 38.9928 56.1758 38.9434C56.5006 38.8911 56.759 38.7939 56.9668 38.6641C57.0106 38.6367 57.0208 38.6183 57.0244 38.6113C57.03 38.6004 57.0479 38.5596 57.0479 38.4639C57.0478 38.2985 57.0101 38.1808 56.9521 38.0859L56.9385 38.0625L56.9248 38.0381C56.8883 37.9691 56.7398 37.7833 56.3291 37.4971L56.3223 37.4922L56.3145 37.4873C55.9168 37.1981 55.2712 36.8041 54.3555 36.2998L54.3525 36.2969C53.484 35.813 52.7313 35.2813 52.1064 34.6953L51.8467 34.4404C51.1698 33.7484 50.6557 32.97 50.3164 32.1064L50.3135 32.0977L50.3096 32.0898C49.9877 31.2161 49.835 30.2491 49.835 29.2021C49.835 27.631 50.2042 26.217 50.9697 24.9922C51.7463 23.7363 52.9182 22.7895 54.4258 22.1309L54.4287 22.1299L54.7207 22.0098C56.1987 21.429 57.9792 21.1553 60.0322 21.1553ZM39.5771 28.1279C39.2207 28.128 38.8644 28.259 38.4883 28.6055C38.0707 28.9902 37.711 29.486 37.417 30.1094L37.4141 30.1152C37.2762 30.4021 37.1628 30.6863 37.0723 30.9678C37.9249 30.9303 38.5578 30.7953 39.0049 30.5938C39.5875 30.331 39.9209 30.0363 40.0996 29.752L40.1777 29.6201C40.3448 29.3168 40.4111 29.0464 40.4111 28.8008C40.4111 28.567 40.3449 28.4149 40.2314 28.29C40.19 28.2444 40.0422 28.1279 39.5771 28.1279Z" fill="#FFB800" stroke="#091C2D" stroke-width="1.70833"/>
<path d="M113.876 21.1543C114.832 21.1543 115.705 21.3015 116.475 21.6221H116.474C117.229 21.9311 117.894 22.3672 118.458 22.9316H118.457C118.657 23.1216 118.846 23.3236 119.024 23.5381L119.566 22.1084L119.775 21.5566H135.665L135.725 22.3467L136.48 32.4531L140.959 22.0723L141.182 21.5566H151.515L150.857 22.8076L137.398 48.4385L137.399 48.4395C136.553 50.0759 135.596 51.4525 134.522 52.5557L134.523 52.5566C133.505 53.6159 132.339 54.4273 131.028 54.9824L130.764 55.0908C129.345 55.6466 127.722 55.9131 125.912 55.9131C125.111 55.9131 124.424 55.8718 123.866 55.7812V55.7803C123.363 55.7117 122.934 55.6341 122.593 55.541L121.964 55.3691V47.4961L122.994 47.7129C123.224 47.7613 123.519 47.8123 123.883 47.8643L124.138 47.8955C124.401 47.9223 124.691 47.9355 125.008 47.9355C126.084 47.9355 126.852 47.7059 127.389 47.3281L127.404 47.3184C128.002 46.9165 128.576 46.2736 129.106 45.3359L129.425 44.7666L126.71 25.9805L122.607 45.3506L122.464 46.0283H114.637L114.712 45.1045L114.728 44.9072C114.169 45.3719 113.534 45.7355 112.824 45.9961L112.823 45.9951C112.06 46.2935 111.185 46.4297 110.219 46.4297C108.913 46.4296 107.692 46.1204 106.57 45.499L106.566 45.4971C105.399 44.8416 104.507 43.7827 103.86 42.4014L103.858 42.3984C103.197 40.9694 102.896 39.1165 102.896 36.8965C102.896 35.7208 103.03 34.4472 103.293 33.0791L103.294 33.0703L103.405 32.5537C103.678 31.3501 104.051 30.1539 104.523 28.9658L104.524 28.9619L104.742 28.4463C105.264 27.2567 105.895 26.1539 106.637 25.1406L106.969 24.708C107.761 23.7228 108.677 22.9113 109.717 22.2822C110.958 21.5261 112.352 21.1543 113.876 21.1543ZM80.7021 14.9463C83.3735 14.9463 85.6018 15.3435 87.3301 16.2002H87.3291C89.0397 17.0414 90.3285 18.2133 91.1357 19.7314L91.2803 20.0078C91.9806 21.3985 92.3252 22.9346 92.3252 24.6006C92.3252 26.4562 91.9909 28.1344 91.3018 29.6172L91.3027 29.6182C90.6311 31.0782 89.6643 32.3162 88.4092 33.3232L88.4082 33.3242C87.1733 34.3121 85.712 35.0479 84.04 35.5439L84.041 35.5449C82.3829 36.0409 80.5644 36.2842 78.5928 36.2842H77.5605L75.6924 45.3467L75.5518 46.0283H65.9463L66.1641 44.9971L72.3721 15.624L72.5156 14.9463H80.7021ZM106.229 13.0576L106.011 14.0889L99.4004 45.3506L99.2568 46.0283H89.7354L89.9541 44.9971L96.5635 13.7354L96.707 13.0576H106.229ZM115.684 29.1113C115.486 29.1114 115.253 29.1809 114.972 29.4062L114.969 29.4082C114.679 29.6382 114.38 29.9824 114.083 30.4697L114.077 30.4775C113.78 30.9526 113.511 31.5187 113.273 32.1816C113.05 32.8294 112.867 33.5177 112.728 34.248L112.729 34.249C112.603 34.9777 112.54 35.7125 112.54 36.4541C112.54 37.3075 112.673 37.8448 112.848 38.1562C112.987 38.3863 113.143 38.4726 113.413 38.4727C113.71 38.4727 114.039 38.349 114.414 37.9434C114.826 37.4848 115.198 36.8755 115.516 36.0928L115.52 36.082L115.641 35.7822C115.913 35.0767 116.115 34.3243 116.247 33.5234L116.249 33.5107L116.252 33.499C116.327 33.1101 116.383 32.7218 116.421 32.334C116.459 31.9317 116.478 31.5373 116.478 31.1504C116.478 30.3598 116.347 29.8191 116.157 29.4658L116.146 29.4424C116.064 29.2792 115.986 29.2063 115.934 29.1719C115.885 29.1403 115.813 29.1113 115.684 29.1113ZM79.3262 28.1465H79.5371C80.2409 28.1464 80.7995 27.9941 81.2471 27.7256L81.2539 27.7217L81.4287 27.6113C81.8237 27.3431 82.1314 26.999 82.3594 26.5703L82.4512 26.3818C82.6537 25.9333 82.7607 25.4244 82.7607 24.8418C82.7607 24.3713 82.6161 23.9556 82.3057 23.5674L82.2979 23.5576L82.291 23.5488C82.0955 23.2902 81.7139 23.0635 80.9033 23.0635H80.4092L79.3262 28.1465Z" fill="#FF4F00" stroke="#091C2D" stroke-width="1.70833"/>
</svg>
