<svg width="130" height="40" viewBox="0 0 130 40" fill="none" xmlns="http://www.w3.org/2000/svg">
<g id="Group 753 1" clip-path="url(#clip0_3009_28139)">
<path id="Vector" fill-rule="evenodd" clip-rule="evenodd" d="M51.5419 38.5727L51.4883 37.2055L52.9165 36.7793L58.7721 22.6095L61.0394 21.3311L67.5554 36.7793L69.0373 37.2055L68.9479 38.5727H61.5927L61.5035 37.2055L63.3245 36.7793L62.0177 33.6334C61.7422 33.6306 61.4458 33.6257 61.1286 33.6186C60.593 33.595 59.9562 33.5831 59.2184 33.5831C58.4685 33.5831 57.8318 33.595 57.3082 33.6186C56.9471 33.627 56.6067 33.6383 56.2871 33.6525L55.2016 36.7793L57.0225 37.2055L56.9511 38.5727H51.5419ZM58.9983 26.2039L61.3779 31.8669L61.2 31.8785C60.6644 31.9021 60.0039 31.9139 59.2184 31.9139C58.4091 31.9139 57.7485 31.9021 57.2367 31.8785C57.1222 31.8705 57.0109 31.8631 56.9029 31.8564L58.9983 26.2039Z" fill="black"/>
<path id="Vector_2" d="M85.6788 26.676L85.0182 21.7041C84.7326 21.716 84.3517 21.7337 83.8757 21.7574C83.4115 21.781 82.9355 21.8048 82.4475 21.8284C81.9596 21.8403 81.5489 21.8461 81.2157 21.8461H73.7534C73.42 21.8461 73.0036 21.8403 72.5037 21.8284C72.0157 21.8048 71.5336 21.781 71.0576 21.7574C70.5934 21.7337 70.2245 21.716 69.9507 21.7041L69.3438 26.7115L71.0397 26.889L72.1287 23.5508C72.5334 23.4916 72.9737 23.4621 73.4499 23.4621H74.4496C74.6281 23.4621 74.8304 23.4679 75.0565 23.4798C75.2946 23.4798 75.485 23.4916 75.6278 23.5153C75.6398 23.6455 75.6457 24.0007 75.6457 24.5808C75.6576 25.1608 75.6635 25.8533 75.6635 26.6582C75.6754 27.4632 75.6814 28.2741 75.6814 29.0909V31.9319C75.6814 33.0328 75.6695 34.0154 75.6457 34.8795C75.6219 35.7319 75.61 36.3652 75.61 36.7795L73.1285 37.1524L73.2177 38.5729H81.8405L81.9297 37.1524L79.4483 36.7795C79.4363 36.3652 79.4185 35.7319 79.3947 34.8795C79.3709 34.0154 79.359 33.0328 79.359 31.9319V26.6582C79.3709 25.8533 79.3769 25.1608 79.3769 24.5808C79.3887 24.0007 79.4007 23.6455 79.4126 23.5153C79.5673 23.4916 79.7577 23.4798 79.9838 23.4798C80.2219 23.4679 80.4301 23.4621 80.6087 23.4621H81.5906C82.0071 23.4621 82.4237 23.4916 82.8403 23.5508L84.0006 26.8181L85.6788 26.676Z" fill="black"/>
<path id="Vector_3" d="M99.0488 38.6085C99.7512 38.644 100.382 38.6854 100.941 38.7327L102.209 34.2048L100.638 33.903L99.0843 36.7262C98.8701 36.7736 98.656 36.8032 98.4418 36.8151C98.2276 36.8269 97.7637 36.8328 97.0492 36.8328H95.2994C94.2762 36.8328 93.4789 36.7973 92.9075 36.7262C92.8599 36.229 92.8362 35.0808 92.8362 33.2815V30.9109L92.9433 30.9021C93.2409 30.8784 93.5504 30.8665 93.8712 30.8665H95.4958C95.853 30.8665 96.1747 30.8784 96.46 30.9021C96.7462 30.9139 96.9538 30.9258 97.0847 30.9376L97.3709 32.8553H98.9057V27.1377H97.3709L97.0847 29.0554C96.9538 29.0673 96.7462 29.0791 96.46 29.0909H93.8712C93.5504 29.0909 93.2409 29.0849 92.9433 29.0731L92.8362 29.0643V27.0134C92.8362 25.1548 92.8599 24.0007 92.9075 23.5508C93.1218 23.5153 93.3896 23.4916 93.7113 23.4798C94.0321 23.4679 94.3837 23.4621 94.7644 23.4621H97.1025C97.3167 23.4621 97.5253 23.4739 97.7282 23.4976C97.9302 23.5094 98.15 23.539 98.3885 23.5863L99.4416 26.0723L101.031 25.8592L100.298 21.7041C99.739 21.7634 99.0544 21.8048 98.2454 21.8284C97.4364 21.8403 96.7574 21.8461 96.2103 21.8461H87.3198L87.2305 23.2134L89.0514 23.6574C89.099 23.7639 89.1407 24.2196 89.1764 25.0247C89.2121 25.8296 89.2299 26.8358 89.2299 28.0433V32.4114C89.2299 33.5834 89.2121 34.5718 89.1764 35.3768C89.1407 36.1817 89.099 36.6493 89.0514 36.7795L87.2305 37.2057L87.3198 38.5729H97.1745C97.7338 38.5729 98.3586 38.5848 99.0488 38.6085Z" fill="black"/>
<path id="Vector_4" d="M33.423 21.8457H27.5853L27.5138 23.213L29.2991 23.6569C29.2991 23.9173 29.305 24.3553 29.317 24.9708C29.3288 25.5864 29.3229 26.3618 29.2991 27.297L29.2098 32.695C29.1979 33.6657 29.1801 34.5476 29.1563 35.3408C29.1444 36.122 29.1266 36.6014 29.1027 36.779L27.1211 37.2051L27.1925 38.5724H33.3694L33.4409 37.2051L31.4593 36.779C31.4354 36.6488 31.4175 36.27 31.4057 35.6426C31.3938 35.0034 31.3878 33.938 31.3878 32.4464L31.3646 26.0891L37.297 38.6435H38.9573L44.624 25.4478L44.6879 32.3931C44.6998 33.6835 44.6998 34.6956 44.6879 35.4295C44.6879 36.1517 44.6761 36.6014 44.6522 36.779L42.8313 37.2051L42.9205 38.5724H50.4186L50.4899 37.2051L48.6511 36.779C48.6273 36.6133 48.5917 36.1339 48.5441 35.3408C48.4965 34.5476 48.4489 33.5295 48.4012 32.2865L48.2406 27.2614C48.2286 26.3736 48.2167 25.616 48.2048 24.9886C48.193 24.3612 48.193 23.9114 48.2048 23.6391L50.0079 23.213L49.9187 21.8457H44.1344L39.0203 33.792L33.423 21.8457Z" fill="black"/>
<g id="Mask group">
<mask id="mask0_3009_28139" style="mask-type:luminance" maskUnits="userSpaceOnUse" x="26" y="20" width="77" height="20">
<g id="Group">
<path id="Vector_5" d="M102.878 20.4004H26.1875V39.9353H102.878V20.4004Z" fill="white"/>
<path id="Vector_6" fill-rule="evenodd" clip-rule="evenodd" d="M51.5458 38.5727L51.4922 37.2055L52.9204 36.7793L58.776 22.6095L61.0433 21.3311L67.5593 36.7793L69.0412 37.2055L68.9518 38.5727H61.5967L61.5074 37.2055L63.3284 36.7793L62.0216 33.6334C61.7461 33.6306 61.4497 33.6257 61.1325 33.6186C60.597 33.595 59.9601 33.5831 59.2223 33.5831C58.4724 33.5831 57.8357 33.595 57.3121 33.6186C56.951 33.627 56.6106 33.6383 56.291 33.6525L55.2055 36.7793L57.0264 37.2055L56.955 38.5727H51.5458ZM59.0022 26.2039L61.3818 31.8669L61.2039 31.8785C60.6683 31.9021 60.0078 31.9139 59.2223 31.9139C58.413 31.9139 57.7524 31.9021 57.2406 31.8785C57.1261 31.8705 57.0149 31.8631 56.9068 31.8564L59.0022 26.2039Z" fill="black"/>
<path id="Vector_7" d="M85.6788 26.676L85.0182 21.7041C84.7326 21.716 84.3517 21.7337 83.8757 21.7574C83.4115 21.781 82.9355 21.8048 82.4475 21.8284C81.9596 21.8403 81.5489 21.8461 81.2157 21.8461H73.7534C73.42 21.8461 73.0036 21.8403 72.5037 21.8284C72.0157 21.8048 71.5336 21.781 71.0576 21.7574C70.5934 21.7337 70.2245 21.716 69.9507 21.7041L69.3438 26.7115L71.0397 26.889L72.1287 23.5508C72.5334 23.4916 72.9737 23.4621 73.4499 23.4621H74.4496C74.6281 23.4621 74.8304 23.4679 75.0565 23.4798C75.2946 23.4798 75.485 23.4916 75.6278 23.5153C75.6398 23.6455 75.6457 24.0007 75.6457 24.5808C75.6576 25.1608 75.6635 25.8533 75.6635 26.6582C75.6754 27.4632 75.6814 28.2741 75.6814 29.0909V31.9319C75.6814 33.0328 75.6695 34.0154 75.6457 34.8795C75.6219 35.7319 75.61 36.3652 75.61 36.7795L73.1285 37.1524L73.2177 38.5729H81.8405L81.9297 37.1524L79.4483 36.7795C79.4363 36.3652 79.4185 35.7319 79.3947 34.8795C79.3709 34.0154 79.359 33.0328 79.359 31.9319V26.6582C79.3709 25.8533 79.3769 25.1608 79.3769 24.5808C79.3887 24.0007 79.4007 23.6455 79.4126 23.5153C79.5673 23.4916 79.7577 23.4798 79.9838 23.4798C80.2219 23.4679 80.4301 23.4621 80.6087 23.4621H81.5906C82.0071 23.4621 82.4237 23.4916 82.8403 23.5508L84.0006 26.8181L85.6788 26.676Z" fill="black"/>
<path id="Vector_8" d="M99.0488 38.6085C99.7512 38.644 100.382 38.6854 100.941 38.7327L102.209 34.2048L100.638 33.903L99.0843 36.7262C98.8701 36.7736 98.656 36.8032 98.4418 36.8151C98.2276 36.8269 97.7637 36.8328 97.0492 36.8328H95.2994C94.2762 36.8328 93.4789 36.7973 92.9075 36.7262C92.8599 36.229 92.8362 35.0808 92.8362 33.2815V30.9109L92.9433 30.9021C93.2409 30.8784 93.5504 30.8665 93.8712 30.8665H95.4958C95.853 30.8665 96.1747 30.8784 96.46 30.9021C96.7462 30.9139 96.9538 30.9258 97.0847 30.9376L97.3709 32.8553H98.9057V27.1377H97.3709L97.0847 29.0554C96.9538 29.0673 96.7462 29.0791 96.46 29.0909H93.8712C93.5504 29.0909 93.2409 29.0849 92.9433 29.0731L92.8362 29.0643V27.0134C92.8362 25.1548 92.8599 24.0007 92.9075 23.5508C93.1218 23.5153 93.3896 23.4916 93.7113 23.4798C94.0321 23.4679 94.3837 23.4621 94.7644 23.4621H97.1025C97.3167 23.4621 97.5253 23.4739 97.7282 23.4976C97.9302 23.5094 98.15 23.539 98.3885 23.5863L99.4416 26.0723L101.031 25.8592L100.298 21.7041C99.739 21.7634 99.0544 21.8048 98.2454 21.8284C97.4364 21.8403 96.7574 21.8461 96.2103 21.8461H87.3198L87.2305 23.2134L89.0514 23.6574C89.099 23.7639 89.1407 24.2196 89.1764 25.0247C89.2121 25.8296 89.2299 26.8358 89.2299 28.0433V32.4114C89.2299 33.5834 89.2121 34.5718 89.1764 35.3768C89.1407 36.1817 89.099 36.6493 89.0514 36.7795L87.2305 37.2057L87.3198 38.5729H97.1745C97.7338 38.5729 98.3586 38.5848 99.0488 38.6085Z" fill="black"/>
<path id="Vector_9" d="M33.423 21.8457H27.5853L27.5138 23.213L29.2991 23.6569C29.2991 23.9173 29.305 24.3553 29.317 24.9708C29.3288 25.5864 29.3229 26.3618 29.2991 27.297L29.2098 32.695C29.1979 33.6657 29.1801 34.5476 29.1563 35.3408C29.1444 36.122 29.1266 36.6014 29.1027 36.779L27.1211 37.2051L27.1925 38.5724H33.3694L33.4409 37.2051L31.4593 36.779C31.4354 36.6488 31.4175 36.27 31.4057 35.6426C31.3938 35.0034 31.3878 33.938 31.3878 32.4464L31.3646 26.0891L37.297 38.6435H38.9573L44.624 25.4478L44.6879 32.3931C44.6998 33.6835 44.6998 34.6956 44.6879 35.4295C44.6879 36.1517 44.6761 36.6014 44.6522 36.779L42.8313 37.2051L42.9205 38.5724H50.4186L50.4899 37.2051L48.6511 36.779C48.6273 36.6133 48.5917 36.1339 48.5441 35.3408C48.4965 34.5476 48.4489 33.5295 48.4012 32.2865L48.2406 27.2614C48.2286 26.3736 48.2167 25.616 48.2048 24.9886C48.193 24.3612 48.193 23.9114 48.2048 23.6391L50.0079 23.213L49.9187 21.8457H44.1344L39.0203 33.792L33.423 21.8457Z" fill="black"/>
</g>
</mask>
<g mask="url(#mask0_3009_28139)">
<path id="Vector_10" fill-rule="evenodd" clip-rule="evenodd" d="M51.5458 38.5727L51.4922 37.2055L52.9204 36.7793L58.776 22.6095L61.0433 21.3311L67.5593 36.7793L69.0412 37.2055L68.9518 38.5727H61.5967L61.5074 37.2055L63.3284 36.7793L62.0216 33.6334C61.7461 33.6306 61.4497 33.6257 61.1325 33.6186C60.597 33.595 59.9601 33.5831 59.2223 33.5831C58.4724 33.5831 57.8357 33.595 57.3121 33.6186C56.951 33.627 56.6106 33.6383 56.291 33.6525L55.2055 36.7793L57.0264 37.2055L56.955 38.5727H51.5458ZM59.0022 26.2039L61.3818 31.8669L61.2039 31.8785C60.6683 31.9021 60.0078 31.9139 59.2223 31.9139C58.413 31.9139 57.7524 31.9021 57.2406 31.8785C57.1261 31.8705 57.0149 31.8631 56.9068 31.8564L59.0022 26.2039Z" stroke="white"/>
</g>
</g>
<g id="Mask group_2">
<mask id="mask1_3009_28139" style="mask-type:luminance" maskUnits="userSpaceOnUse" x="26" y="20" width="77" height="20">
<g id="Group_2">
<path id="Vector_11" d="M102.878 20.4004H26.1875V39.9353H102.878V20.4004Z" fill="white"/>
<path id="Vector_12" fill-rule="evenodd" clip-rule="evenodd" d="M51.5458 38.5727L51.4922 37.2055L52.9204 36.7793L58.776 22.6095L61.0433 21.3311L67.5593 36.7793L69.0412 37.2055L68.9518 38.5727H61.5967L61.5074 37.2055L63.3284 36.7793L62.0216 33.6334C61.7461 33.6306 61.4497 33.6257 61.1325 33.6186C60.597 33.595 59.9601 33.5831 59.2223 33.5831C58.4724 33.5831 57.8357 33.595 57.3121 33.6186C56.951 33.627 56.6106 33.6383 56.291 33.6525L55.2055 36.7793L57.0264 37.2055L56.955 38.5727H51.5458ZM59.0022 26.2039L61.3818 31.8669L61.2039 31.8785C60.6683 31.9021 60.0078 31.9139 59.2223 31.9139C58.413 31.9139 57.7524 31.9021 57.2406 31.8785C57.1261 31.8705 57.0149 31.8631 56.9068 31.8564L59.0022 26.2039Z" fill="black"/>
<path id="Vector_13" d="M85.6788 26.676L85.0182 21.7041C84.7326 21.716 84.3517 21.7337 83.8757 21.7574C83.4115 21.781 82.9355 21.8048 82.4475 21.8284C81.9596 21.8403 81.5489 21.8461 81.2157 21.8461H73.7534C73.42 21.8461 73.0036 21.8403 72.5037 21.8284C72.0157 21.8048 71.5336 21.781 71.0576 21.7574C70.5934 21.7337 70.2245 21.716 69.9507 21.7041L69.3438 26.7115L71.0397 26.889L72.1287 23.5508C72.5334 23.4916 72.9737 23.4621 73.4499 23.4621H74.4496C74.6281 23.4621 74.8304 23.4679 75.0565 23.4798C75.2946 23.4798 75.485 23.4916 75.6278 23.5153C75.6398 23.6455 75.6457 24.0007 75.6457 24.5808C75.6576 25.1608 75.6635 25.8533 75.6635 26.6582C75.6754 27.4632 75.6814 28.2741 75.6814 29.0909V31.9319C75.6814 33.0328 75.6695 34.0154 75.6457 34.8795C75.6219 35.7319 75.61 36.3652 75.61 36.7795L73.1285 37.1524L73.2177 38.5729H81.8405L81.9297 37.1524L79.4483 36.7795C79.4363 36.3652 79.4185 35.7319 79.3947 34.8795C79.3709 34.0154 79.359 33.0328 79.359 31.9319V26.6582C79.3709 25.8533 79.3769 25.1608 79.3769 24.5808C79.3887 24.0007 79.4007 23.6455 79.4126 23.5153C79.5673 23.4916 79.7577 23.4798 79.9838 23.4798C80.2219 23.4679 80.4301 23.4621 80.6087 23.4621H81.5906C82.0071 23.4621 82.4237 23.4916 82.8403 23.5508L84.0006 26.8181L85.6788 26.676Z" fill="black"/>
<path id="Vector_14" d="M99.0488 38.6085C99.7512 38.644 100.382 38.6854 100.941 38.7327L102.209 34.2048L100.638 33.903L99.0843 36.7262C98.8701 36.7736 98.656 36.8032 98.4418 36.8151C98.2276 36.8269 97.7637 36.8328 97.0492 36.8328H95.2994C94.2762 36.8328 93.4789 36.7973 92.9075 36.7262C92.8599 36.229 92.8362 35.0808 92.8362 33.2815V30.9109L92.9433 30.9021C93.2409 30.8784 93.5504 30.8665 93.8712 30.8665H95.4958C95.853 30.8665 96.1747 30.8784 96.46 30.9021C96.7462 30.9139 96.9538 30.9258 97.0847 30.9376L97.3709 32.8553H98.9057V27.1377H97.3709L97.0847 29.0554C96.9538 29.0673 96.7462 29.0791 96.46 29.0909H93.8712C93.5504 29.0909 93.2409 29.0849 92.9433 29.0731L92.8362 29.0643V27.0134C92.8362 25.1548 92.8599 24.0007 92.9075 23.5508C93.1218 23.5153 93.3896 23.4916 93.7113 23.4798C94.0321 23.4679 94.3837 23.4621 94.7644 23.4621H97.1025C97.3167 23.4621 97.5253 23.4739 97.7282 23.4976C97.9302 23.5094 98.15 23.539 98.3885 23.5863L99.4416 26.0723L101.031 25.8592L100.298 21.7041C99.739 21.7634 99.0544 21.8048 98.2454 21.8284C97.4364 21.8403 96.7574 21.8461 96.2103 21.8461H87.3198L87.2305 23.2134L89.0514 23.6574C89.099 23.7639 89.1407 24.2196 89.1764 25.0247C89.2121 25.8296 89.2299 26.8358 89.2299 28.0433V32.4114C89.2299 33.5834 89.2121 34.5718 89.1764 35.3768C89.1407 36.1817 89.099 36.6493 89.0514 36.7795L87.2305 37.2057L87.3198 38.5729H97.1745C97.7338 38.5729 98.3586 38.5848 99.0488 38.6085Z" fill="black"/>
<path id="Vector_15" d="M33.423 21.8457H27.5853L27.5138 23.213L29.2991 23.6569C29.2991 23.9173 29.305 24.3553 29.317 24.9708C29.3288 25.5864 29.3229 26.3618 29.2991 27.297L29.2098 32.695C29.1979 33.6657 29.1801 34.5476 29.1563 35.3408C29.1444 36.122 29.1266 36.6014 29.1027 36.779L27.1211 37.2051L27.1925 38.5724H33.3694L33.4409 37.2051L31.4593 36.779C31.4354 36.6488 31.4175 36.27 31.4057 35.6426C31.3938 35.0034 31.3878 33.938 31.3878 32.4464L31.3646 26.0891L37.297 38.6435H38.9573L44.624 25.4478L44.6879 32.3931C44.6998 33.6835 44.6998 34.6956 44.6879 35.4295C44.6879 36.1517 44.6761 36.6014 44.6522 36.779L42.8313 37.2051L42.9205 38.5724H50.4186L50.4899 37.2051L48.6511 36.779C48.6273 36.6133 48.5917 36.1339 48.5441 35.3408C48.4965 34.5476 48.4489 33.5295 48.4012 32.2865L48.2406 27.2614C48.2286 26.3736 48.2167 25.616 48.2048 24.9886C48.193 24.3612 48.193 23.9114 48.2048 23.6391L50.0079 23.213L49.9187 21.8457H44.1344L39.0203 33.792L33.423 21.8457Z" fill="black"/>
</g>
</mask>
<g mask="url(#mask1_3009_28139)">
<path id="Vector_16" d="M85.6788 26.676L85.0182 21.7041C84.7326 21.716 84.3517 21.7337 83.8757 21.7574C83.4115 21.781 82.9355 21.8048 82.4475 21.8284C81.9596 21.8403 81.5489 21.8461 81.2157 21.8461H73.7534C73.42 21.8461 73.0036 21.8403 72.5037 21.8284C72.0157 21.8048 71.5336 21.781 71.0576 21.7574C70.5934 21.7337 70.2245 21.716 69.9507 21.7041L69.3438 26.7115L71.0397 26.889L72.1287 23.5508C72.5334 23.4916 72.9737 23.4621 73.4499 23.4621H74.4496C74.6281 23.4621 74.8304 23.4679 75.0565 23.4798C75.2946 23.4798 75.485 23.4916 75.6278 23.5153C75.6398 23.6455 75.6457 24.0007 75.6457 24.5808C75.6576 25.1608 75.6635 25.8533 75.6635 26.6582C75.6754 27.4632 75.6814 28.2741 75.6814 29.0909V31.9319C75.6814 33.0328 75.6695 34.0154 75.6457 34.8795C75.6219 35.7319 75.61 36.3652 75.61 36.7795L73.1285 37.1524L73.2177 38.5729H81.8405L81.9297 37.1524L79.4483 36.7795C79.4363 36.3652 79.4185 35.7319 79.3947 34.8795C79.3709 34.0154 79.359 33.0328 79.359 31.9319V26.6582C79.3709 25.8533 79.3768 25.1608 79.3768 24.5808C79.3887 24.0007 79.4007 23.6455 79.4126 23.5153C79.5673 23.4916 79.7577 23.4798 79.9838 23.4798C80.2219 23.4679 80.4301 23.4621 80.6087 23.4621H81.5906C82.0071 23.4621 82.4237 23.4916 82.8403 23.5508L84.0006 26.8181L85.6788 26.676Z" stroke="white"/>
</g>
</g>
<g id="Mask group_3">
<mask id="mask2_3009_28139" style="mask-type:luminance" maskUnits="userSpaceOnUse" x="26" y="20" width="77" height="20">
<g id="Group_3">
<path id="Vector_17" d="M102.878 20.4004H26.1875V39.9353H102.878V20.4004Z" fill="white"/>
<path id="Vector_18" fill-rule="evenodd" clip-rule="evenodd" d="M51.5458 38.5727L51.4922 37.2055L52.9204 36.7793L58.776 22.6095L61.0433 21.3311L67.5593 36.7793L69.0412 37.2055L68.9518 38.5727H61.5967L61.5074 37.2055L63.3284 36.7793L62.0216 33.6334C61.7461 33.6306 61.4497 33.6257 61.1325 33.6186C60.597 33.595 59.9601 33.5831 59.2223 33.5831C58.4724 33.5831 57.8357 33.595 57.3121 33.6186C56.951 33.627 56.6106 33.6383 56.291 33.6525L55.2055 36.7793L57.0264 37.2055L56.955 38.5727H51.5458ZM59.0022 26.2039L61.3818 31.8669L61.2039 31.8785C60.6683 31.9021 60.0078 31.9139 59.2223 31.9139C58.413 31.9139 57.7524 31.9021 57.2406 31.8785C57.1261 31.8705 57.0149 31.8631 56.9068 31.8564L59.0022 26.2039Z" fill="black"/>
<path id="Vector_19" d="M85.6788 26.676L85.0182 21.7041C84.7326 21.716 84.3517 21.7337 83.8757 21.7574C83.4115 21.781 82.9355 21.8048 82.4475 21.8284C81.9596 21.8403 81.5489 21.8461 81.2157 21.8461H73.7534C73.42 21.8461 73.0036 21.8403 72.5037 21.8284C72.0157 21.8048 71.5336 21.781 71.0576 21.7574C70.5934 21.7337 70.2245 21.716 69.9507 21.7041L69.3438 26.7115L71.0397 26.889L72.1287 23.5508C72.5334 23.4916 72.9737 23.4621 73.4499 23.4621H74.4496C74.6281 23.4621 74.8304 23.4679 75.0565 23.4798C75.2946 23.4798 75.485 23.4916 75.6278 23.5153C75.6398 23.6455 75.6457 24.0007 75.6457 24.5808C75.6576 25.1608 75.6635 25.8533 75.6635 26.6582C75.6754 27.4632 75.6814 28.2741 75.6814 29.0909V31.9319C75.6814 33.0328 75.6695 34.0154 75.6457 34.8795C75.6219 35.7319 75.61 36.3652 75.61 36.7795L73.1285 37.1524L73.2177 38.5729H81.8405L81.9297 37.1524L79.4483 36.7795C79.4363 36.3652 79.4185 35.7319 79.3947 34.8795C79.3709 34.0154 79.359 33.0328 79.359 31.9319V26.6582C79.3709 25.8533 79.3769 25.1608 79.3769 24.5808C79.3887 24.0007 79.4007 23.6455 79.4126 23.5153C79.5673 23.4916 79.7577 23.4798 79.9838 23.4798C80.2219 23.4679 80.4301 23.4621 80.6087 23.4621H81.5906C82.0071 23.4621 82.4237 23.4916 82.8403 23.5508L84.0006 26.8181L85.6788 26.676Z" fill="black"/>
<path id="Vector_20" d="M99.0488 38.6085C99.7512 38.644 100.382 38.6854 100.941 38.7327L102.209 34.2048L100.638 33.903L99.0843 36.7262C98.8701 36.7736 98.656 36.8032 98.4418 36.8151C98.2276 36.8269 97.7637 36.8328 97.0492 36.8328H95.2994C94.2762 36.8328 93.4789 36.7973 92.9075 36.7262C92.8599 36.229 92.8362 35.0808 92.8362 33.2815V30.9109L92.9433 30.9021C93.2409 30.8784 93.5504 30.8665 93.8712 30.8665H95.4958C95.853 30.8665 96.1747 30.8784 96.46 30.9021C96.7462 30.9139 96.9538 30.9258 97.0847 30.9376L97.3709 32.8553H98.9057V27.1377H97.3709L97.0847 29.0554C96.9538 29.0673 96.7462 29.0791 96.46 29.0909H93.8712C93.5504 29.0909 93.2409 29.0849 92.9433 29.0731L92.8362 29.0643V27.0134C92.8362 25.1548 92.8599 24.0007 92.9075 23.5508C93.1218 23.5153 93.3896 23.4916 93.7113 23.4798C94.0321 23.4679 94.3837 23.4621 94.7644 23.4621H97.1025C97.3167 23.4621 97.5253 23.4739 97.7282 23.4976C97.9302 23.5094 98.15 23.539 98.3885 23.5863L99.4416 26.0723L101.031 25.8592L100.298 21.7041C99.739 21.7634 99.0544 21.8048 98.2454 21.8284C97.4364 21.8403 96.7574 21.8461 96.2103 21.8461H87.3198L87.2305 23.2134L89.0514 23.6574C89.099 23.7639 89.1407 24.2196 89.1764 25.0247C89.2121 25.8296 89.2299 26.8358 89.2299 28.0433V32.4114C89.2299 33.5834 89.2121 34.5718 89.1764 35.3768C89.1407 36.1817 89.099 36.6493 89.0514 36.7795L87.2305 37.2057L87.3198 38.5729H97.1745C97.7338 38.5729 98.3586 38.5848 99.0488 38.6085Z" fill="black"/>
<path id="Vector_21" d="M33.423 21.8457H27.5853L27.5138 23.213L29.2991 23.6569C29.2991 23.9173 29.305 24.3553 29.317 24.9708C29.3288 25.5864 29.3229 26.3618 29.2991 27.297L29.2098 32.695C29.1979 33.6657 29.1801 34.5476 29.1563 35.3408C29.1444 36.122 29.1266 36.6014 29.1027 36.779L27.1211 37.2051L27.1925 38.5724H33.3694L33.4409 37.2051L31.4593 36.779C31.4354 36.6488 31.4175 36.27 31.4057 35.6426C31.3938 35.0034 31.3878 33.938 31.3878 32.4464L31.3646 26.0891L37.297 38.6435H38.9573L44.624 25.4478L44.6879 32.3931C44.6998 33.6835 44.6998 34.6956 44.6879 35.4295C44.6879 36.1517 44.6761 36.6014 44.6522 36.779L42.8313 37.2051L42.9205 38.5724H50.4186L50.4899 37.2051L48.6511 36.779C48.6273 36.6133 48.5917 36.1339 48.5441 35.3408C48.4965 34.5476 48.4489 33.5295 48.4012 32.2865L48.2406 27.2614C48.2286 26.3736 48.2167 25.616 48.2048 24.9886C48.193 24.3612 48.193 23.9114 48.2048 23.6391L50.0079 23.213L49.9187 21.8457H44.1344L39.0203 33.792L33.423 21.8457Z" fill="black"/>
</g>
</mask>
<g mask="url(#mask2_3009_28139)">
<path id="Vector_22" d="M99.0488 38.6085C99.7512 38.644 100.382 38.6854 100.941 38.7327L102.209 34.2048L100.638 33.903L99.0843 36.7262C98.8701 36.7736 98.656 36.8032 98.4418 36.8151C98.2276 36.8269 97.7637 36.8328 97.0492 36.8328H95.2994C94.2762 36.8328 93.4789 36.7973 92.9075 36.7262C92.8599 36.229 92.8362 35.0808 92.8362 33.2815V30.9109L92.9433 30.9021C93.2409 30.8784 93.5504 30.8665 93.8712 30.8665H95.4958C95.853 30.8665 96.1747 30.8784 96.46 30.9021C96.7462 30.9139 96.9538 30.9258 97.0847 30.9376L97.3709 32.8553H98.9057V27.1377H97.3709L97.0847 29.0554C96.9538 29.0673 96.7462 29.0791 96.46 29.0909H93.8712C93.5504 29.0909 93.2409 29.0849 92.9433 29.0731L92.8362 29.0643V27.0134C92.8362 25.1548 92.8599 24.0007 92.9075 23.5508C93.1218 23.5153 93.3896 23.4916 93.7113 23.4798C94.0321 23.4679 94.3837 23.4621 94.7644 23.4621H97.1025C97.3167 23.4621 97.5253 23.4739 97.7282 23.4976C97.9302 23.5094 98.15 23.539 98.3885 23.5863L99.4416 26.0723L101.031 25.8592L100.298 21.7041C99.739 21.7634 99.0544 21.8048 98.2454 21.8284C97.4364 21.8403 96.7574 21.8461 96.2103 21.8461H87.3198L87.2305 23.2134L89.0514 23.6574C89.099 23.7639 89.1407 24.2196 89.1764 25.0247C89.2121 25.8296 89.2299 26.8358 89.2299 28.0433V32.4114C89.2299 33.5834 89.2121 34.5718 89.1764 35.3768C89.1407 36.1817 89.099 36.6493 89.0514 36.7795L87.2305 37.2057L87.3198 38.5729H97.1745C97.7338 38.5729 98.3586 38.5848 99.0488 38.6085Z" stroke="white"/>
</g>
</g>
<g id="Mask group_4">
<mask id="mask3_3009_28139" style="mask-type:luminance" maskUnits="userSpaceOnUse" x="26" y="20" width="77" height="20">
<g id="Group_4">
<path id="Vector_23" d="M102.878 20.4004H26.1875V39.9353H102.878V20.4004Z" fill="white"/>
<path id="Vector_24" fill-rule="evenodd" clip-rule="evenodd" d="M51.5458 38.5727L51.4922 37.2055L52.9204 36.7793L58.776 22.6095L61.0433 21.3311L67.5593 36.7793L69.0412 37.2055L68.9518 38.5727H61.5967L61.5074 37.2055L63.3284 36.7793L62.0216 33.6334C61.7461 33.6306 61.4497 33.6257 61.1325 33.6186C60.597 33.595 59.9601 33.5831 59.2223 33.5831C58.4724 33.5831 57.8357 33.595 57.3121 33.6186C56.951 33.627 56.6106 33.6383 56.291 33.6525L55.2055 36.7793L57.0264 37.2055L56.955 38.5727H51.5458ZM59.0022 26.2039L61.3818 31.8669L61.2039 31.8785C60.6683 31.9021 60.0078 31.9139 59.2223 31.9139C58.413 31.9139 57.7524 31.9021 57.2406 31.8785C57.1261 31.8705 57.0149 31.8631 56.9068 31.8564L59.0022 26.2039Z" fill="black"/>
<path id="Vector_25" d="M85.6788 26.676L85.0182 21.7041C84.7326 21.716 84.3517 21.7337 83.8757 21.7574C83.4115 21.781 82.9355 21.8048 82.4475 21.8284C81.9596 21.8403 81.5489 21.8461 81.2157 21.8461H73.7534C73.42 21.8461 73.0036 21.8403 72.5037 21.8284C72.0157 21.8048 71.5336 21.781 71.0576 21.7574C70.5934 21.7337 70.2245 21.716 69.9507 21.7041L69.3438 26.7115L71.0397 26.889L72.1287 23.5508C72.5334 23.4916 72.9737 23.4621 73.4499 23.4621H74.4496C74.6281 23.4621 74.8304 23.4679 75.0565 23.4798C75.2946 23.4798 75.485 23.4916 75.6278 23.5153C75.6398 23.6455 75.6457 24.0007 75.6457 24.5808C75.6576 25.1608 75.6635 25.8533 75.6635 26.6582C75.6754 27.4632 75.6814 28.2741 75.6814 29.0909V31.9319C75.6814 33.0328 75.6695 34.0154 75.6457 34.8795C75.6219 35.7319 75.61 36.3652 75.61 36.7795L73.1285 37.1524L73.2177 38.5729H81.8405L81.9297 37.1524L79.4483 36.7795C79.4363 36.3652 79.4185 35.7319 79.3947 34.8795C79.3709 34.0154 79.359 33.0328 79.359 31.9319V26.6582C79.3709 25.8533 79.3769 25.1608 79.3769 24.5808C79.3887 24.0007 79.4007 23.6455 79.4126 23.5153C79.5673 23.4916 79.7577 23.4798 79.9838 23.4798C80.2219 23.4679 80.4301 23.4621 80.6087 23.4621H81.5906C82.0071 23.4621 82.4237 23.4916 82.8403 23.5508L84.0006 26.8181L85.6788 26.676Z" fill="black"/>
<path id="Vector_26" d="M99.0488 38.6085C99.7512 38.644 100.382 38.6854 100.941 38.7327L102.209 34.2048L100.638 33.903L99.0843 36.7262C98.8701 36.7736 98.656 36.8032 98.4418 36.8151C98.2276 36.8269 97.7637 36.8328 97.0492 36.8328H95.2994C94.2762 36.8328 93.4789 36.7973 92.9075 36.7262C92.8599 36.229 92.8362 35.0808 92.8362 33.2815V30.9109L92.9433 30.9021C93.2409 30.8784 93.5504 30.8665 93.8712 30.8665H95.4958C95.853 30.8665 96.1747 30.8784 96.46 30.9021C96.7462 30.9139 96.9538 30.9258 97.0847 30.9376L97.3709 32.8553H98.9057V27.1377H97.3709L97.0847 29.0554C96.9538 29.0673 96.7462 29.0791 96.46 29.0909H93.8712C93.5504 29.0909 93.2409 29.0849 92.9433 29.0731L92.8362 29.0643V27.0134C92.8362 25.1548 92.8599 24.0007 92.9075 23.5508C93.1218 23.5153 93.3896 23.4916 93.7113 23.4798C94.0321 23.4679 94.3837 23.4621 94.7644 23.4621H97.1025C97.3167 23.4621 97.5253 23.4739 97.7282 23.4976C97.9302 23.5094 98.15 23.539 98.3885 23.5863L99.4416 26.0723L101.031 25.8592L100.298 21.7041C99.739 21.7634 99.0544 21.8048 98.2454 21.8284C97.4364 21.8403 96.7574 21.8461 96.2103 21.8461H87.3198L87.2305 23.2134L89.0514 23.6574C89.099 23.7639 89.1407 24.2196 89.1764 25.0247C89.2121 25.8296 89.2299 26.8358 89.2299 28.0433V32.4114C89.2299 33.5834 89.2121 34.5718 89.1764 35.3768C89.1407 36.1817 89.099 36.6493 89.0514 36.7795L87.2305 37.2057L87.3198 38.5729H97.1745C97.7338 38.5729 98.3586 38.5848 99.0488 38.6085Z" fill="black"/>
<path id="Vector_27" d="M33.423 21.8457H27.5853L27.5138 23.213L29.2991 23.6569C29.2991 23.9173 29.305 24.3553 29.317 24.9708C29.3288 25.5864 29.3229 26.3618 29.2991 27.297L29.2098 32.695C29.1979 33.6657 29.1801 34.5476 29.1563 35.3408C29.1444 36.122 29.1266 36.6014 29.1027 36.779L27.1211 37.2051L27.1925 38.5724H33.3694L33.4409 37.2051L31.4593 36.779C31.4354 36.6488 31.4175 36.27 31.4057 35.6426C31.3938 35.0034 31.3878 33.938 31.3878 32.4464L31.3646 26.0891L37.297 38.6435H38.9573L44.624 25.4478L44.6879 32.3931C44.6998 33.6835 44.6998 34.6956 44.6879 35.4295C44.6879 36.1517 44.6761 36.6014 44.6522 36.779L42.8313 37.2051L42.9205 38.5724H50.4186L50.4899 37.2051L48.6511 36.779C48.6273 36.6133 48.5917 36.1339 48.5441 35.3408C48.4965 34.5476 48.4489 33.5295 48.4012 32.2865L48.2406 27.2614C48.2286 26.3736 48.2167 25.616 48.2048 24.9886C48.193 24.3612 48.193 23.9114 48.2048 23.6391L50.0079 23.213L49.9187 21.8457H44.1344L39.0203 33.792L33.423 21.8457Z" fill="black"/>
</g>
</mask>
<g mask="url(#mask3_3009_28139)">
<path id="Vector_28" d="M33.423 21.8457H27.5853L27.5138 23.213L29.2991 23.6569C29.2991 23.9173 29.305 24.3553 29.317 24.9708C29.3288 25.5864 29.3229 26.3618 29.2991 27.297L29.2098 32.695C29.1979 33.6657 29.1801 34.5476 29.1563 35.3408C29.1444 36.122 29.1266 36.6014 29.1027 36.779L27.1211 37.2051L27.1925 38.5724H33.3694L33.4409 37.2051L31.4593 36.779C31.4354 36.6488 31.4175 36.27 31.4057 35.6426C31.3938 35.0034 31.3878 33.938 31.3878 32.4464L31.3646 26.0891L37.297 38.6435H38.9573L44.624 25.4478L44.6879 32.3931C44.6998 33.6835 44.6998 34.6956 44.6879 35.4295C44.6879 36.1517 44.676 36.6014 44.6522 36.779L42.8313 37.2051L42.9205 38.5724H50.4186L50.4899 37.2051L48.6511 36.779C48.6273 36.6133 48.5917 36.1339 48.5441 35.3408C48.4965 34.5476 48.4489 33.5295 48.4012 32.2865L48.2406 27.2614C48.2286 26.3736 48.2167 25.616 48.2048 24.9886C48.193 24.3612 48.193 23.9114 48.2048 23.6391L50.0079 23.213L49.9187 21.8457H44.1344L39.0203 33.792L33.423 21.8457Z" stroke="white"/>
</g>
</g>
<path id="Vector_29" d="M61.0264 16.8448C62.4358 17.4703 64.06 17.783 65.8994 17.783C66.9863 17.783 68.0254 17.6498 69.0167 17.3834C70.0199 17.117 70.8321 16.7927 71.4532 16.4105L72.2773 12.7447L70.4678 12.5362L69.375 15.1249C68.9928 15.4029 68.5509 15.6113 68.0493 15.7503C67.5476 15.8777 67.0281 15.9415 66.4906 15.9415C65.4515 15.9415 64.5079 15.6693 63.6599 15.1249C62.8119 14.5689 62.1372 13.7697 61.6355 12.7273C61.1339 11.6849 60.8831 10.4282 60.8831 8.95725C60.8831 7.08091 61.331 5.56941 62.2268 4.42275C63.1344 3.2761 64.4661 2.70277 66.2219 2.70277C66.6758 2.70277 67.1356 2.75489 67.6014 2.85913C68.0791 2.95179 68.5031 3.09078 68.8734 3.2761L69.8767 6.16011L71.5607 6.03849L71.3636 1.85146C70.7306 1.57348 69.9722 1.35342 69.0883 1.19127C68.2045 1.01753 67.3327 0.930664 66.4727 0.930664C64.5259 0.930664 62.8001 1.28972 61.2952 2.00783C59.8022 2.71435 58.6317 3.72201 57.7837 5.03082C56.9357 6.32805 56.5117 7.85113 56.5117 9.60006C56.5117 11.3606 56.9118 12.8489 57.712 14.0651C58.5122 15.2813 59.617 16.2078 61.0264 16.8448Z" fill="black"/>
<path id="Vector_30" d="M83.6014 17.5398L83.5118 16.202L85.0525 15.9239C84.9331 15.7386 84.8017 15.5533 84.6584 15.368C84.527 15.1711 84.3299 14.9047 84.0671 14.5689L80.3587 10.2602H79.6958V11.5111C79.6958 12.6925 79.7077 13.6712 79.7316 14.4472C79.7555 15.2117 79.7913 15.6576 79.8391 15.785L81.3619 16.202L81.2723 17.5398H74.2137L74.1241 16.202L75.9335 15.785C75.9693 15.6576 75.9993 15.2117 76.0231 14.4472C76.047 13.6712 76.0589 12.6925 76.0589 11.5111V7.2372C76.0589 6.06738 76.0411 5.08867 76.0052 4.30107C75.9693 3.50188 75.9275 3.05017 75.8798 2.94593L74.0703 2.5116L74.142 1.17383H81.6307L81.7023 2.5116L79.8928 2.94593C79.8331 3.07334 79.7854 3.53663 79.7495 4.33582C79.7137 5.12342 79.6958 6.09054 79.6958 7.2372V8.91251L80.4841 8.7487L86.414 2.84169L84.5868 2.5116L84.6762 1.17383H91.0362L91.108 2.56371L89.2448 2.84169L83.357 8.01057L88.2952 13.6828C88.9282 14.4125 89.394 14.9337 89.6927 15.2464C89.9912 15.5591 90.2182 15.7907 90.3734 15.9413L91.8246 16.1672V17.5398H83.6014Z" fill="black"/>
<path id="Vector_31" d="M106.496 2.94593L101.605 10.4813V12.3972C101.605 13.1963 101.616 13.9319 101.641 14.6036C101.676 15.2754 101.718 15.6692 101.766 15.785L103.772 16.1672L103.701 17.5398H95.9432L95.8544 16.1672L97.8605 15.785C97.896 15.6692 97.926 15.2754 97.9503 14.6036C97.9858 13.9319 98.0036 13.1963 98.0036 12.3972V10.8514L93.1309 2.94593L91.6797 2.5116L91.7514 1.17383H99.0613L99.1502 2.5116L97.3414 2.94593L100.796 8.59951L104.202 2.94593L102.179 2.5116L102.267 1.17383H107.875L107.965 2.5116L106.496 2.94593Z" fill="black"/>
<path id="Vector_32" d="M36.2318 1.17383H43.6667L43.7563 2.5116L41.9289 2.96331C41.905 3.24128 41.8752 3.72774 41.8393 4.42268C41.8035 5.11762 41.7916 6.0558 41.8035 7.2372V10.3471C41.7916 12.0149 42.1439 13.26 42.8605 14.0824C43.5772 14.8932 44.6102 15.2986 45.9599 15.2986C47.2618 15.2986 48.2471 14.8932 48.916 14.0824C49.5967 13.2716 49.9372 12.0092 49.9372 10.2949V7.72366C49.9372 6.51909 49.9192 5.45351 49.8834 4.52693C49.8476 3.60033 49.8058 3.07913 49.758 2.96331L47.7335 2.5116L47.8231 1.17383H54.0935L54.1652 2.5116L52.3378 2.96331C52.3019 3.04438 52.2661 3.53084 52.2303 4.42268C52.2065 5.30294 52.1945 6.40327 52.1945 7.72366V10.7119C52.1945 12.9589 51.5794 14.702 50.3491 15.9413C49.1309 17.1691 47.5006 17.7829 45.4582 17.7829C43.1053 17.7829 41.2899 17.1807 40.012 15.9761C38.7459 14.7599 38.1129 13.0342 38.1129 10.7987V7.2372C38.1129 5.99788 38.095 5.0018 38.0592 4.24894C38.0234 3.48451 37.9934 3.05596 37.9696 2.96331L36.1602 2.5116L36.2318 1.17383Z" fill="black"/>
<path id="Vector_33" d="M31.3772 17.5745C32.2252 17.6093 32.9897 17.6556 33.6705 17.7134L35.0141 12.8315L33.348 12.4493L31.7355 15.4375C31.5206 15.4839 31.2459 15.5244 30.9115 15.5591C30.589 15.5823 30.2307 15.5939 29.8365 15.5939H28.5108C27.6389 15.5939 26.9163 15.5533 26.343 15.4722C26.2952 15.2406 26.2594 14.7889 26.2355 14.1172C26.2236 13.4453 26.2176 12.5767 26.2176 11.5111V7.2372C26.2176 6.0558 26.2355 5.07708 26.2713 4.30107C26.3191 3.51347 26.3609 3.07334 26.3967 2.98067L28.7974 2.56371L28.7078 1.17383H20.6459L20.5742 2.5116L22.4195 2.96331C22.4554 3.07913 22.4852 3.54821 22.5091 4.37056C22.533 5.18133 22.5449 6.13687 22.5449 7.2372V11.5111C22.5449 12.5767 22.533 13.5206 22.5091 14.343C22.4852 15.1653 22.4554 15.646 22.4195 15.785L20.5742 16.202L20.6459 17.5398H29.4424C29.8962 17.5398 30.5412 17.5513 31.3772 17.5745Z" fill="black"/>
<g id="Mask group_5">
<mask id="mask4_3009_28139" style="mask-type:luminance" maskUnits="userSpaceOnUse" x="19" y="0" width="90" height="19">
<g id="Group_5">
<path id="Vector_34" d="M108.49 0H19.6406V18.6047H108.49V0Z" fill="white"/>
<path id="Vector_35" d="M61.0303 16.8448C62.4397 17.4703 64.0639 17.783 65.9033 17.783C66.9902 17.783 68.0293 17.6498 69.0206 17.3834C70.0238 17.117 70.836 16.7927 71.4571 16.4105L72.2813 12.7447L70.4717 12.5362L69.3789 15.1249C68.9967 15.4029 68.5548 15.6113 68.0532 15.7503C67.5515 15.8777 67.032 15.9415 66.4945 15.9415C65.4554 15.9415 64.5118 15.6693 63.6638 15.1249C62.8159 14.5689 62.1411 13.7697 61.6394 12.7273C61.1378 11.6849 60.887 10.4282 60.887 8.95725C60.887 7.08091 61.3349 5.56941 62.2307 4.42275C63.1383 3.2761 64.47 2.70277 66.2258 2.70277C66.6797 2.70277 67.1395 2.75489 67.6053 2.85913C68.083 2.95179 68.5071 3.09078 68.8773 3.2761L69.8806 6.16011L71.5646 6.03849L71.3675 1.85146C70.7345 1.57348 69.9761 1.35342 69.0922 1.19127C68.2084 1.01753 67.3366 0.930664 66.4766 0.930664C64.5298 0.930664 62.804 1.28972 61.2991 2.00783C59.8061 2.71435 58.6356 3.72201 57.7876 5.03082C56.9396 6.32805 56.5156 7.85113 56.5156 9.60006C56.5156 11.3606 56.9157 12.8489 57.7159 14.0651C58.5161 15.2813 59.6209 16.2078 61.0303 16.8448Z" fill="black"/>
<path id="Vector_36" d="M83.6014 17.5398L83.5118 16.202L85.0525 15.9239C84.9331 15.7386 84.8017 15.5533 84.6584 15.368C84.527 15.1711 84.3299 14.9047 84.0671 14.5689L80.3587 10.2602H79.6958V11.5111C79.6958 12.6925 79.7077 13.6712 79.7316 14.4472C79.7555 15.2117 79.7913 15.6576 79.8391 15.785L81.3619 16.202L81.2723 17.5398H74.2137L74.1241 16.202L75.9335 15.785C75.9693 15.6576 75.9993 15.2117 76.0231 14.4472C76.047 13.6712 76.0589 12.6925 76.0589 11.5111V7.2372C76.0589 6.06738 76.0411 5.08867 76.0052 4.30107C75.9693 3.50188 75.9275 3.05017 75.8798 2.94593L74.0703 2.5116L74.142 1.17383H81.6307L81.7023 2.5116L79.8928 2.94593C79.8331 3.07334 79.7854 3.53663 79.7495 4.33582C79.7137 5.12342 79.6958 6.09054 79.6958 7.2372V8.91251L80.4841 8.7487L86.414 2.84169L84.5868 2.5116L84.6762 1.17383H91.0362L91.108 2.56371L89.2448 2.84169L83.357 8.01057L88.2952 13.6828C88.9282 14.4125 89.394 14.9337 89.6927 15.2464C89.9912 15.5591 90.2182 15.7907 90.3734 15.9413L91.8246 16.1672V17.5398H83.6014Z" fill="black"/>
<path id="Vector_37" d="M106.496 2.94593L101.605 10.4813V12.3972C101.605 13.1963 101.616 13.9319 101.641 14.6036C101.676 15.2754 101.718 15.6692 101.766 15.785L103.772 16.1672L103.701 17.5398H95.9432L95.8544 16.1672L97.8605 15.785C97.896 15.6692 97.926 15.2754 97.9503 14.6036C97.9858 13.9319 98.0036 13.1963 98.0036 12.3972V10.8514L93.1309 2.94593L91.6797 2.5116L91.7514 1.17383H99.0613L99.1502 2.5116L97.3414 2.94593L100.796 8.59951L104.202 2.94593L102.179 2.5116L102.267 1.17383H107.875L107.965 2.5116L106.496 2.94593Z" fill="black"/>
<path id="Vector_38" d="M36.2318 1.17383H43.6667L43.7563 2.5116L41.9289 2.96331C41.905 3.24128 41.8752 3.72774 41.8393 4.42268C41.8035 5.11762 41.7916 6.0558 41.8035 7.2372V10.3471C41.7916 12.0149 42.1439 13.26 42.8605 14.0824C43.5772 14.8932 44.6102 15.2986 45.9599 15.2986C47.2618 15.2986 48.2471 14.8932 48.916 14.0824C49.5967 13.2716 49.9372 12.0092 49.9372 10.2949V7.72366C49.9372 6.51909 49.9192 5.45351 49.8834 4.52693C49.8476 3.60033 49.8058 3.07913 49.758 2.96331L47.7335 2.5116L47.8231 1.17383H54.0935L54.1652 2.5116L52.3378 2.96331C52.3019 3.04438 52.2661 3.53084 52.2303 4.42268C52.2065 5.30294 52.1945 6.40327 52.1945 7.72366V10.7119C52.1945 12.9589 51.5794 14.702 50.3491 15.9413C49.1309 17.1691 47.5006 17.7829 45.4582 17.7829C43.1053 17.7829 41.2899 17.1807 40.012 15.9761C38.7459 14.7599 38.1129 13.0342 38.1129 10.7987V7.2372C38.1129 5.99788 38.095 5.0018 38.0592 4.24894C38.0234 3.48451 37.9934 3.05596 37.9696 2.96331L36.1602 2.5116L36.2318 1.17383Z" fill="black"/>
<path id="Vector_39" d="M31.3772 17.5745C32.2252 17.6093 32.9897 17.6556 33.6705 17.7134L35.0141 12.8315L33.348 12.4493L31.7355 15.4375C31.5206 15.4839 31.2459 15.5244 30.9115 15.5591C30.589 15.5823 30.2307 15.5939 29.8365 15.5939H28.5108C27.6389 15.5939 26.9163 15.5533 26.343 15.4722C26.2952 15.2406 26.2594 14.7889 26.2355 14.1172C26.2236 13.4453 26.2176 12.5767 26.2176 11.5111V7.2372C26.2176 6.0558 26.2355 5.07708 26.2713 4.30107C26.3191 3.51347 26.3609 3.07334 26.3967 2.98067L28.7974 2.56371L28.7078 1.17383H20.6459L20.5742 2.5116L22.4195 2.96331C22.4554 3.07913 22.4852 3.54821 22.5091 4.37056C22.533 5.18133 22.5449 6.13687 22.5449 7.2372V11.5111C22.5449 12.5767 22.533 13.5206 22.5091 14.343C22.4852 15.1653 22.4554 15.646 22.4195 15.785L20.5742 16.202L20.6459 17.5398H29.4424C29.8962 17.5398 30.5412 17.5513 31.3772 17.5745Z" fill="black"/>
</g>
</mask>
<g mask="url(#mask4_3009_28139)">
<path id="Vector_40" d="M61.0303 16.8448C62.4397 17.4703 64.0639 17.783 65.9033 17.783C66.9902 17.783 68.0293 17.6498 69.0206 17.3834C70.0238 17.117 70.836 16.7927 71.4571 16.4105L72.2813 12.7447L70.4717 12.5362L69.3789 15.1249C68.9967 15.4029 68.5548 15.6113 68.0532 15.7503C67.5515 15.8777 67.032 15.9415 66.4945 15.9415C65.4554 15.9415 64.5118 15.6693 63.6638 15.1249C62.8159 14.5689 62.1411 13.7697 61.6394 12.7273C61.1378 11.6849 60.887 10.4282 60.887 8.95725C60.887 7.08091 61.3349 5.56941 62.2307 4.42275C63.1383 3.2761 64.47 2.70277 66.2258 2.70277C66.6797 2.70277 67.1395 2.75489 67.6053 2.85913C68.083 2.95179 68.5071 3.09078 68.8773 3.2761L69.8806 6.16011L71.5646 6.03849L71.3675 1.85146C70.7345 1.57348 69.9761 1.35342 69.0922 1.19127C68.2084 1.01753 67.3366 0.930664 66.4766 0.930664C64.5298 0.930664 62.804 1.28972 61.2991 2.00783C59.8061 2.71435 58.6356 3.72201 57.7876 5.03082C56.9396 6.32805 56.5156 7.85113 56.5156 9.60006C56.5156 11.3606 56.9157 12.8489 57.7159 14.0651C58.5161 15.2813 59.6209 16.2078 61.0303 16.8448Z" stroke="white"/>
</g>
</g>
<g id="Mask group_6">
<mask id="mask5_3009_28139" style="mask-type:luminance" maskUnits="userSpaceOnUse" x="19" y="0" width="90" height="19">
<g id="Group_6">
<path id="Vector_41" d="M108.49 0H19.6406V18.6047H108.49V0Z" fill="white"/>
<path id="Vector_42" d="M61.0303 16.8448C62.4397 17.4703 64.0639 17.783 65.9033 17.783C66.9902 17.783 68.0293 17.6498 69.0206 17.3834C70.0238 17.117 70.836 16.7927 71.4571 16.4105L72.2813 12.7447L70.4717 12.5362L69.3789 15.1249C68.9967 15.4029 68.5548 15.6113 68.0532 15.7503C67.5515 15.8777 67.032 15.9415 66.4945 15.9415C65.4554 15.9415 64.5118 15.6693 63.6638 15.1249C62.8159 14.5689 62.1411 13.7697 61.6394 12.7273C61.1378 11.6849 60.887 10.4282 60.887 8.95725C60.887 7.08091 61.3349 5.56941 62.2307 4.42275C63.1383 3.2761 64.47 2.70277 66.2258 2.70277C66.6797 2.70277 67.1395 2.75489 67.6053 2.85913C68.083 2.95179 68.5071 3.09078 68.8773 3.2761L69.8806 6.16011L71.5646 6.03849L71.3675 1.85146C70.7345 1.57348 69.9761 1.35342 69.0922 1.19127C68.2084 1.01753 67.3366 0.930664 66.4766 0.930664C64.5298 0.930664 62.804 1.28972 61.2991 2.00783C59.8061 2.71435 58.6356 3.72201 57.7876 5.03082C56.9396 6.32805 56.5156 7.85113 56.5156 9.60006C56.5156 11.3606 56.9157 12.8489 57.7159 14.0651C58.5161 15.2813 59.6209 16.2078 61.0303 16.8448Z" fill="black"/>
<path id="Vector_43" d="M83.6014 17.5398L83.5118 16.202L85.0525 15.9239C84.9331 15.7386 84.8017 15.5533 84.6584 15.368C84.527 15.1711 84.3299 14.9047 84.0671 14.5689L80.3587 10.2602H79.6958V11.5111C79.6958 12.6925 79.7077 13.6712 79.7316 14.4472C79.7555 15.2117 79.7913 15.6576 79.8391 15.785L81.3619 16.202L81.2723 17.5398H74.2137L74.1241 16.202L75.9335 15.785C75.9693 15.6576 75.9993 15.2117 76.0231 14.4472C76.047 13.6712 76.0589 12.6925 76.0589 11.5111V7.2372C76.0589 6.06738 76.0411 5.08867 76.0052 4.30107C75.9693 3.50188 75.9275 3.05017 75.8798 2.94593L74.0703 2.5116L74.142 1.17383H81.6307L81.7023 2.5116L79.8928 2.94593C79.8331 3.07334 79.7854 3.53663 79.7495 4.33582C79.7137 5.12342 79.6958 6.09054 79.6958 7.2372V8.91251L80.4841 8.7487L86.414 2.84169L84.5868 2.5116L84.6762 1.17383H91.0362L91.108 2.56371L89.2448 2.84169L83.357 8.01057L88.2952 13.6828C88.9282 14.4125 89.394 14.9337 89.6927 15.2464C89.9912 15.5591 90.2182 15.7907 90.3734 15.9413L91.8246 16.1672V17.5398H83.6014Z" fill="black"/>
<path id="Vector_44" d="M106.496 2.94593L101.605 10.4813V12.3972C101.605 13.1963 101.616 13.9319 101.641 14.6036C101.676 15.2754 101.718 15.6692 101.766 15.785L103.772 16.1672L103.701 17.5398H95.9432L95.8544 16.1672L97.8605 15.785C97.896 15.6692 97.926 15.2754 97.9503 14.6036C97.9858 13.9319 98.0036 13.1963 98.0036 12.3972V10.8514L93.1309 2.94593L91.6797 2.5116L91.7514 1.17383H99.0613L99.1502 2.5116L97.3414 2.94593L100.796 8.59951L104.202 2.94593L102.179 2.5116L102.267 1.17383H107.875L107.965 2.5116L106.496 2.94593Z" fill="black"/>
<path id="Vector_45" d="M36.2318 1.17383H43.6667L43.7563 2.5116L41.9289 2.96331C41.905 3.24128 41.8752 3.72774 41.8393 4.42268C41.8035 5.11762 41.7916 6.0558 41.8035 7.2372V10.3471C41.7916 12.0149 42.1439 13.26 42.8605 14.0824C43.5772 14.8932 44.6102 15.2986 45.9599 15.2986C47.2618 15.2986 48.2471 14.8932 48.916 14.0824C49.5967 13.2716 49.9372 12.0092 49.9372 10.2949V7.72366C49.9372 6.51909 49.9192 5.45351 49.8834 4.52693C49.8476 3.60033 49.8058 3.07913 49.758 2.96331L47.7335 2.5116L47.8231 1.17383H54.0935L54.1652 2.5116L52.3378 2.96331C52.3019 3.04438 52.2661 3.53084 52.2303 4.42268C52.2065 5.30294 52.1945 6.40327 52.1945 7.72366V10.7119C52.1945 12.9589 51.5794 14.702 50.3491 15.9413C49.1309 17.1691 47.5006 17.7829 45.4582 17.7829C43.1053 17.7829 41.2899 17.1807 40.012 15.9761C38.7459 14.7599 38.1129 13.0342 38.1129 10.7987V7.2372C38.1129 5.99788 38.095 5.0018 38.0592 4.24894C38.0234 3.48451 37.9934 3.05596 37.9696 2.96331L36.1602 2.5116L36.2318 1.17383Z" fill="black"/>
<path id="Vector_46" d="M31.3772 17.5745C32.2252 17.6093 32.9897 17.6556 33.6705 17.7134L35.0141 12.8315L33.348 12.4493L31.7355 15.4375C31.5206 15.4839 31.2459 15.5244 30.9115 15.5591C30.589 15.5823 30.2307 15.5939 29.8365 15.5939H28.5108C27.6389 15.5939 26.9163 15.5533 26.343 15.4722C26.2952 15.2406 26.2594 14.7889 26.2355 14.1172C26.2236 13.4453 26.2176 12.5767 26.2176 11.5111V7.2372C26.2176 6.0558 26.2355 5.07708 26.2713 4.30107C26.3191 3.51347 26.3609 3.07334 26.3967 2.98067L28.7974 2.56371L28.7078 1.17383H20.6459L20.5742 2.5116L22.4195 2.96331C22.4554 3.07913 22.4852 3.54821 22.5091 4.37056C22.533 5.18133 22.5449 6.13687 22.5449 7.2372V11.5111C22.5449 12.5767 22.533 13.5206 22.5091 14.343C22.4852 15.1653 22.4554 15.646 22.4195 15.785L20.5742 16.202L20.6459 17.5398H29.4424C29.8962 17.5398 30.5412 17.5513 31.3772 17.5745Z" fill="black"/>
</g>
</mask>
<g mask="url(#mask5_3009_28139)">
<path id="Vector_47" d="M83.6014 17.5398L83.5118 16.202L85.0525 15.9239C84.9331 15.7386 84.8017 15.5533 84.6584 15.368C84.527 15.1711 84.3299 14.9047 84.0671 14.5689L80.3587 10.2602H79.6958V11.5111C79.6958 12.6925 79.7077 13.6712 79.7316 14.4472C79.7555 15.2117 79.7913 15.6576 79.8391 15.785L81.3619 16.202L81.2723 17.5398H74.2137L74.1241 16.202L75.9335 15.785C75.9693 15.6576 75.9993 15.2117 76.0231 14.4472C76.047 13.6712 76.0589 12.6925 76.0589 11.5111V7.2372C76.0589 6.06738 76.0411 5.08867 76.0052 4.30107C75.9693 3.50188 75.9275 3.05017 75.8798 2.94593L74.0703 2.5116L74.142 1.17383H81.6307L81.7023 2.5116L79.8928 2.94593C79.8331 3.07334 79.7854 3.53663 79.7495 4.33582C79.7137 5.12342 79.6958 6.09054 79.6958 7.2372V8.91251L80.4841 8.7487L86.414 2.84169L84.5868 2.5116L84.6762 1.17383H91.0362L91.108 2.56371L89.2448 2.84169L83.357 8.01057L88.2952 13.6828C88.9282 14.4125 89.394 14.9337 89.6927 15.2464C89.9912 15.5591 90.2182 15.7907 90.3734 15.9413L91.8246 16.1672V17.5398H83.6014Z" stroke="white"/>
</g>
</g>
<g id="Mask group_7">
<mask id="mask6_3009_28139" style="mask-type:luminance" maskUnits="userSpaceOnUse" x="19" y="0" width="90" height="19">
<g id="Group_7">
<path id="Vector_48" d="M108.49 0H19.6406V18.6047H108.49V0Z" fill="white"/>
<path id="Vector_49" d="M61.0303 16.8448C62.4397 17.4703 64.0639 17.783 65.9033 17.783C66.9902 17.783 68.0293 17.6498 69.0206 17.3834C70.0238 17.117 70.836 16.7927 71.4571 16.4105L72.2813 12.7447L70.4717 12.5362L69.3789 15.1249C68.9967 15.4029 68.5548 15.6113 68.0532 15.7503C67.5515 15.8777 67.032 15.9415 66.4945 15.9415C65.4554 15.9415 64.5118 15.6693 63.6638 15.1249C62.8159 14.5689 62.1411 13.7697 61.6394 12.7273C61.1378 11.6849 60.887 10.4282 60.887 8.95725C60.887 7.08091 61.3349 5.56941 62.2307 4.42275C63.1383 3.2761 64.47 2.70277 66.2258 2.70277C66.6797 2.70277 67.1395 2.75489 67.6053 2.85913C68.083 2.95179 68.5071 3.09078 68.8773 3.2761L69.8806 6.16011L71.5646 6.03849L71.3675 1.85146C70.7345 1.57348 69.9761 1.35342 69.0922 1.19127C68.2084 1.01753 67.3366 0.930664 66.4766 0.930664C64.5298 0.930664 62.804 1.28972 61.2991 2.00783C59.8061 2.71435 58.6356 3.72201 57.7876 5.03082C56.9396 6.32805 56.5156 7.85113 56.5156 9.60006C56.5156 11.3606 56.9157 12.8489 57.7159 14.0651C58.5161 15.2813 59.6209 16.2078 61.0303 16.8448Z" fill="black"/>
<path id="Vector_50" d="M83.6014 17.5398L83.5118 16.202L85.0525 15.9239C84.9331 15.7386 84.8017 15.5533 84.6584 15.368C84.527 15.1711 84.3299 14.9047 84.0671 14.5689L80.3587 10.2602H79.6958V11.5111C79.6958 12.6925 79.7077 13.6712 79.7316 14.4472C79.7555 15.2117 79.7913 15.6576 79.8391 15.785L81.3619 16.202L81.2723 17.5398H74.2137L74.1241 16.202L75.9335 15.785C75.9693 15.6576 75.9993 15.2117 76.0231 14.4472C76.047 13.6712 76.0589 12.6925 76.0589 11.5111V7.2372C76.0589 6.06738 76.0411 5.08867 76.0052 4.30107C75.9693 3.50188 75.9275 3.05017 75.8798 2.94593L74.0703 2.5116L74.142 1.17383H81.6307L81.7023 2.5116L79.8928 2.94593C79.8331 3.07334 79.7854 3.53663 79.7495 4.33582C79.7137 5.12342 79.6958 6.09054 79.6958 7.2372V8.91251L80.4841 8.7487L86.414 2.84169L84.5868 2.5116L84.6762 1.17383H91.0362L91.108 2.56371L89.2448 2.84169L83.357 8.01057L88.2952 13.6828C88.9282 14.4125 89.394 14.9337 89.6927 15.2464C89.9912 15.5591 90.2182 15.7907 90.3734 15.9413L91.8246 16.1672V17.5398H83.6014Z" fill="black"/>
<path id="Vector_51" d="M106.496 2.94593L101.605 10.4813V12.3972C101.605 13.1963 101.616 13.9319 101.641 14.6036C101.676 15.2754 101.718 15.6692 101.766 15.785L103.772 16.1672L103.701 17.5398H95.9432L95.8544 16.1672L97.8605 15.785C97.896 15.6692 97.926 15.2754 97.9503 14.6036C97.9858 13.9319 98.0036 13.1963 98.0036 12.3972V10.8514L93.1309 2.94593L91.6797 2.5116L91.7514 1.17383H99.0613L99.1502 2.5116L97.3414 2.94593L100.796 8.59951L104.202 2.94593L102.179 2.5116L102.267 1.17383H107.875L107.965 2.5116L106.496 2.94593Z" fill="black"/>
<path id="Vector_52" d="M36.2318 1.17383H43.6667L43.7563 2.5116L41.9289 2.96331C41.905 3.24128 41.8752 3.72774 41.8393 4.42268C41.8035 5.11762 41.7916 6.0558 41.8035 7.2372V10.3471C41.7916 12.0149 42.1439 13.26 42.8605 14.0824C43.5772 14.8932 44.6102 15.2986 45.9599 15.2986C47.2618 15.2986 48.2471 14.8932 48.916 14.0824C49.5967 13.2716 49.9372 12.0092 49.9372 10.2949V7.72366C49.9372 6.51909 49.9192 5.45351 49.8834 4.52693C49.8476 3.60033 49.8058 3.07913 49.758 2.96331L47.7335 2.5116L47.8231 1.17383H54.0935L54.1652 2.5116L52.3378 2.96331C52.3019 3.04438 52.2661 3.53084 52.2303 4.42268C52.2065 5.30294 52.1945 6.40327 52.1945 7.72366V10.7119C52.1945 12.9589 51.5794 14.702 50.3491 15.9413C49.1309 17.1691 47.5006 17.7829 45.4582 17.7829C43.1053 17.7829 41.2899 17.1807 40.012 15.9761C38.7459 14.7599 38.1129 13.0342 38.1129 10.7987V7.2372C38.1129 5.99788 38.095 5.0018 38.0592 4.24894C38.0234 3.48451 37.9934 3.05596 37.9696 2.96331L36.1602 2.5116L36.2318 1.17383Z" fill="black"/>
<path id="Vector_53" d="M31.3772 17.5745C32.2252 17.6093 32.9897 17.6556 33.6705 17.7134L35.0141 12.8315L33.348 12.4493L31.7355 15.4375C31.5206 15.4839 31.2459 15.5244 30.9115 15.5591C30.589 15.5823 30.2307 15.5939 29.8365 15.5939H28.5108C27.6389 15.5939 26.9163 15.5533 26.343 15.4722C26.2952 15.2406 26.2594 14.7889 26.2355 14.1172C26.2236 13.4453 26.2176 12.5767 26.2176 11.5111V7.2372C26.2176 6.0558 26.2355 5.07708 26.2713 4.30107C26.3191 3.51347 26.3609 3.07334 26.3967 2.98067L28.7974 2.56371L28.7078 1.17383H20.6459L20.5742 2.5116L22.4195 2.96331C22.4554 3.07913 22.4852 3.54821 22.5091 4.37056C22.533 5.18133 22.5449 6.13687 22.5449 7.2372V11.5111C22.5449 12.5767 22.533 13.5206 22.5091 14.343C22.4852 15.1653 22.4554 15.646 22.4195 15.785L20.5742 16.202L20.6459 17.5398H29.4424C29.8962 17.5398 30.5412 17.5513 31.3772 17.5745Z" fill="black"/>
</g>
</mask>
<g mask="url(#mask6_3009_28139)">
<path id="Vector_54" d="M106.496 2.94593L101.605 10.4813V12.3972C101.605 13.1963 101.616 13.9319 101.641 14.6036C101.676 15.2754 101.718 15.6692 101.766 15.785L103.772 16.1672L103.701 17.5398H95.9432L95.8544 16.1672L97.8605 15.785C97.896 15.6692 97.926 15.2754 97.9503 14.6036C97.9858 13.9319 98.0036 13.1963 98.0036 12.3972V10.8514L93.1309 2.94593L91.6797 2.5116L91.7514 1.17383H99.0613L99.1502 2.5116L97.3414 2.94593L100.796 8.59951L104.202 2.94593L102.179 2.5116L102.267 1.17383H107.875L107.965 2.5116L106.496 2.94593Z" stroke="white"/>
</g>
</g>
<g id="Mask group_8">
<mask id="mask7_3009_28139" style="mask-type:luminance" maskUnits="userSpaceOnUse" x="19" y="0" width="90" height="19">
<g id="Group_8">
<path id="Vector_55" d="M108.49 0H19.6406V18.6047H108.49V0Z" fill="white"/>
<path id="Vector_56" d="M61.0303 16.8448C62.4397 17.4703 64.0639 17.783 65.9033 17.783C66.9902 17.783 68.0293 17.6498 69.0206 17.3834C70.0238 17.117 70.836 16.7927 71.4571 16.4105L72.2813 12.7447L70.4717 12.5362L69.3789 15.1249C68.9967 15.4029 68.5548 15.6113 68.0532 15.7503C67.5515 15.8777 67.032 15.9415 66.4945 15.9415C65.4554 15.9415 64.5118 15.6693 63.6638 15.1249C62.8159 14.5689 62.1411 13.7697 61.6394 12.7273C61.1378 11.6849 60.887 10.4282 60.887 8.95725C60.887 7.08091 61.3349 5.56941 62.2307 4.42275C63.1383 3.2761 64.47 2.70277 66.2258 2.70277C66.6797 2.70277 67.1395 2.75489 67.6053 2.85913C68.083 2.95179 68.5071 3.09078 68.8773 3.2761L69.8806 6.16011L71.5646 6.03849L71.3675 1.85146C70.7345 1.57348 69.9761 1.35342 69.0922 1.19127C68.2084 1.01753 67.3366 0.930664 66.4766 0.930664C64.5298 0.930664 62.804 1.28972 61.2991 2.00783C59.8061 2.71435 58.6356 3.72201 57.7876 5.03082C56.9396 6.32805 56.5156 7.85113 56.5156 9.60006C56.5156 11.3606 56.9157 12.8489 57.7159 14.0651C58.5161 15.2813 59.6209 16.2078 61.0303 16.8448Z" fill="black"/>
<path id="Vector_57" d="M83.6014 17.5398L83.5118 16.202L85.0525 15.9239C84.9331 15.7386 84.8017 15.5533 84.6584 15.368C84.527 15.1711 84.3299 14.9047 84.0671 14.5689L80.3587 10.2602H79.6958V11.5111C79.6958 12.6925 79.7077 13.6712 79.7316 14.4472C79.7555 15.2117 79.7913 15.6576 79.8391 15.785L81.3619 16.202L81.2723 17.5398H74.2137L74.1241 16.202L75.9335 15.785C75.9693 15.6576 75.9993 15.2117 76.0231 14.4472C76.047 13.6712 76.0589 12.6925 76.0589 11.5111V7.2372C76.0589 6.06738 76.0411 5.08867 76.0052 4.30107C75.9693 3.50188 75.9275 3.05017 75.8798 2.94593L74.0703 2.5116L74.142 1.17383H81.6307L81.7023 2.5116L79.8928 2.94593C79.8331 3.07334 79.7854 3.53663 79.7495 4.33582C79.7137 5.12342 79.6958 6.09054 79.6958 7.2372V8.91251L80.4841 8.7487L86.414 2.84169L84.5868 2.5116L84.6762 1.17383H91.0362L91.108 2.56371L89.2448 2.84169L83.357 8.01057L88.2952 13.6828C88.9282 14.4125 89.394 14.9337 89.6927 15.2464C89.9912 15.5591 90.2182 15.7907 90.3734 15.9413L91.8246 16.1672V17.5398H83.6014Z" fill="black"/>
<path id="Vector_58" d="M106.496 2.94593L101.605 10.4813V12.3972C101.605 13.1963 101.616 13.9319 101.641 14.6036C101.676 15.2754 101.718 15.6692 101.766 15.785L103.772 16.1672L103.701 17.5398H95.9432L95.8544 16.1672L97.8605 15.785C97.896 15.6692 97.926 15.2754 97.9503 14.6036C97.9858 13.9319 98.0036 13.1963 98.0036 12.3972V10.8514L93.1309 2.94593L91.6797 2.5116L91.7514 1.17383H99.0613L99.1502 2.5116L97.3414 2.94593L100.796 8.59951L104.202 2.94593L102.179 2.5116L102.267 1.17383H107.875L107.965 2.5116L106.496 2.94593Z" fill="black"/>
<path id="Vector_59" d="M36.2318 1.17383H43.6667L43.7563 2.5116L41.9289 2.96331C41.905 3.24128 41.8752 3.72774 41.8393 4.42268C41.8035 5.11762 41.7916 6.0558 41.8035 7.2372V10.3471C41.7916 12.0149 42.1439 13.26 42.8605 14.0824C43.5772 14.8932 44.6102 15.2986 45.9599 15.2986C47.2618 15.2986 48.2471 14.8932 48.916 14.0824C49.5967 13.2716 49.9372 12.0092 49.9372 10.2949V7.72366C49.9372 6.51909 49.9192 5.45351 49.8834 4.52693C49.8476 3.60033 49.8058 3.07913 49.758 2.96331L47.7335 2.5116L47.8231 1.17383H54.0935L54.1652 2.5116L52.3378 2.96331C52.3019 3.04438 52.2661 3.53084 52.2303 4.42268C52.2065 5.30294 52.1945 6.40327 52.1945 7.72366V10.7119C52.1945 12.9589 51.5794 14.702 50.3491 15.9413C49.1309 17.1691 47.5006 17.7829 45.4582 17.7829C43.1053 17.7829 41.2899 17.1807 40.012 15.9761C38.7459 14.7599 38.1129 13.0342 38.1129 10.7987V7.2372C38.1129 5.99788 38.095 5.0018 38.0592 4.24894C38.0234 3.48451 37.9934 3.05596 37.9696 2.96331L36.1602 2.5116L36.2318 1.17383Z" fill="black"/>
<path id="Vector_60" d="M31.3772 17.5745C32.2252 17.6093 32.9897 17.6556 33.6705 17.7134L35.0141 12.8315L33.348 12.4493L31.7355 15.4375C31.5206 15.4839 31.2459 15.5244 30.9115 15.5591C30.589 15.5823 30.2307 15.5939 29.8365 15.5939H28.5108C27.6389 15.5939 26.9163 15.5533 26.343 15.4722C26.2952 15.2406 26.2594 14.7889 26.2355 14.1172C26.2236 13.4453 26.2176 12.5767 26.2176 11.5111V7.2372C26.2176 6.0558 26.2355 5.07708 26.2713 4.30107C26.3191 3.51347 26.3609 3.07334 26.3967 2.98067L28.7974 2.56371L28.7078 1.17383H20.6459L20.5742 2.5116L22.4195 2.96331C22.4554 3.07913 22.4852 3.54821 22.5091 4.37056C22.533 5.18133 22.5449 6.13687 22.5449 7.2372V11.5111C22.5449 12.5767 22.533 13.5206 22.5091 14.343C22.4852 15.1653 22.4554 15.646 22.4195 15.785L20.5742 16.202L20.6459 17.5398H29.4424C29.8962 17.5398 30.5412 17.5513 31.3772 17.5745Z" fill="black"/>
</g>
</mask>
<g mask="url(#mask7_3009_28139)">
<path id="Vector_61" d="M36.2318 1.17383H43.6667L43.7563 2.5116L41.9289 2.96331C41.905 3.24128 41.8752 3.72774 41.8393 4.42268C41.8035 5.11762 41.7916 6.0558 41.8035 7.23719V10.3471C41.7916 12.0149 42.1439 13.26 42.8605 14.0824C43.5772 14.8932 44.6102 15.2986 45.9599 15.2986C47.2618 15.2986 48.2471 14.8932 48.916 14.0824C49.5967 13.2716 49.9372 12.0092 49.9372 10.2949V7.72366C49.9372 6.51909 49.9192 5.45351 49.8834 4.52693C49.8476 3.60033 49.8058 3.07913 49.758 2.96331L47.7335 2.5116L47.8231 1.17383H54.0935L54.1652 2.5116L52.3378 2.96331C52.3019 3.04438 52.2661 3.53084 52.2303 4.42268C52.2065 5.30294 52.1945 6.40327 52.1945 7.72366V10.7119C52.1945 12.9589 51.5794 14.702 50.3491 15.9413C49.1309 17.1691 47.5006 17.7829 45.4582 17.7829C43.1053 17.7829 41.2899 17.1807 40.012 15.9761C38.7459 14.7599 38.1129 13.0342 38.1129 10.7987V7.23719C38.1129 5.99788 38.095 5.0018 38.0592 4.24894C38.0234 3.48451 37.9934 3.05596 37.9696 2.96331L36.1602 2.5116L36.2318 1.17383Z" stroke="white"/>
</g>
</g>
<g id="Mask group_9">
<mask id="mask8_3009_28139" style="mask-type:luminance" maskUnits="userSpaceOnUse" x="19" y="0" width="90" height="19">
<g id="Group_9">
<path id="Vector_62" d="M108.49 0H19.6406V18.6047H108.49V0Z" fill="white"/>
<path id="Vector_63" d="M61.0303 16.8448C62.4397 17.4703 64.0639 17.783 65.9033 17.783C66.9902 17.783 68.0293 17.6498 69.0206 17.3834C70.0238 17.117 70.836 16.7927 71.4571 16.4105L72.2813 12.7447L70.4717 12.5362L69.3789 15.1249C68.9967 15.4029 68.5548 15.6113 68.0532 15.7503C67.5515 15.8777 67.032 15.9415 66.4945 15.9415C65.4554 15.9415 64.5118 15.6693 63.6638 15.1249C62.8159 14.5689 62.1411 13.7697 61.6394 12.7273C61.1378 11.6849 60.887 10.4282 60.887 8.95725C60.887 7.08091 61.3349 5.56941 62.2307 4.42275C63.1383 3.2761 64.47 2.70277 66.2258 2.70277C66.6797 2.70277 67.1395 2.75489 67.6053 2.85913C68.083 2.95179 68.5071 3.09078 68.8773 3.2761L69.8806 6.16011L71.5646 6.03849L71.3675 1.85146C70.7345 1.57348 69.9761 1.35342 69.0922 1.19127C68.2084 1.01753 67.3366 0.930664 66.4766 0.930664C64.5298 0.930664 62.804 1.28972 61.2991 2.00783C59.8061 2.71435 58.6356 3.72201 57.7876 5.03082C56.9396 6.32805 56.5156 7.85113 56.5156 9.60006C56.5156 11.3606 56.9157 12.8489 57.7159 14.0651C58.5161 15.2813 59.6209 16.2078 61.0303 16.8448Z" fill="black"/>
<path id="Vector_64" d="M83.6014 17.5398L83.5118 16.202L85.0525 15.9239C84.9331 15.7386 84.8017 15.5533 84.6584 15.368C84.527 15.1711 84.3299 14.9047 84.0671 14.5689L80.3587 10.2602H79.6958V11.5111C79.6958 12.6925 79.7077 13.6712 79.7316 14.4472C79.7555 15.2117 79.7913 15.6576 79.8391 15.785L81.3619 16.202L81.2723 17.5398H74.2137L74.1241 16.202L75.9335 15.785C75.9693 15.6576 75.9993 15.2117 76.0231 14.4472C76.047 13.6712 76.0589 12.6925 76.0589 11.5111V7.2372C76.0589 6.06738 76.0411 5.08867 76.0052 4.30107C75.9693 3.50188 75.9275 3.05017 75.8798 2.94593L74.0703 2.5116L74.142 1.17383H81.6307L81.7023 2.5116L79.8928 2.94593C79.8331 3.07334 79.7854 3.53663 79.7495 4.33582C79.7137 5.12342 79.6958 6.09054 79.6958 7.2372V8.91251L80.4841 8.7487L86.414 2.84169L84.5868 2.5116L84.6762 1.17383H91.0362L91.108 2.56371L89.2448 2.84169L83.357 8.01057L88.2952 13.6828C88.9282 14.4125 89.394 14.9337 89.6927 15.2464C89.9912 15.5591 90.2182 15.7907 90.3734 15.9413L91.8246 16.1672V17.5398H83.6014Z" fill="black"/>
<path id="Vector_65" d="M106.496 2.94593L101.605 10.4813V12.3972C101.605 13.1963 101.616 13.9319 101.641 14.6036C101.676 15.2754 101.718 15.6692 101.766 15.785L103.772 16.1672L103.701 17.5398H95.9432L95.8544 16.1672L97.8605 15.785C97.896 15.6692 97.926 15.2754 97.9503 14.6036C97.9858 13.9319 98.0036 13.1963 98.0036 12.3972V10.8514L93.1309 2.94593L91.6797 2.5116L91.7514 1.17383H99.0613L99.1502 2.5116L97.3414 2.94593L100.796 8.59951L104.202 2.94593L102.179 2.5116L102.267 1.17383H107.875L107.965 2.5116L106.496 2.94593Z" fill="black"/>
<path id="Vector_66" d="M36.2318 1.17383H43.6667L43.7563 2.5116L41.9289 2.96331C41.905 3.24128 41.8752 3.72774 41.8393 4.42268C41.8035 5.11762 41.7916 6.0558 41.8035 7.2372V10.3471C41.7916 12.0149 42.1439 13.26 42.8605 14.0824C43.5772 14.8932 44.6102 15.2986 45.9599 15.2986C47.2618 15.2986 48.2471 14.8932 48.916 14.0824C49.5967 13.2716 49.9372 12.0092 49.9372 10.2949V7.72366C49.9372 6.51909 49.9192 5.45351 49.8834 4.52693C49.8476 3.60033 49.8058 3.07913 49.758 2.96331L47.7335 2.5116L47.8231 1.17383H54.0935L54.1652 2.5116L52.3378 2.96331C52.3019 3.04438 52.2661 3.53084 52.2303 4.42268C52.2065 5.30294 52.1945 6.40327 52.1945 7.72366V10.7119C52.1945 12.9589 51.5794 14.702 50.3491 15.9413C49.1309 17.1691 47.5006 17.7829 45.4582 17.7829C43.1053 17.7829 41.2899 17.1807 40.012 15.9761C38.7459 14.7599 38.1129 13.0342 38.1129 10.7987V7.2372C38.1129 5.99788 38.095 5.0018 38.0592 4.24894C38.0234 3.48451 37.9934 3.05596 37.9696 2.96331L36.1602 2.5116L36.2318 1.17383Z" fill="black"/>
<path id="Vector_67" d="M31.3772 17.5745C32.2252 17.6093 32.9897 17.6556 33.6705 17.7134L35.0141 12.8315L33.348 12.4493L31.7355 15.4375C31.5206 15.4839 31.2459 15.5244 30.9115 15.5591C30.589 15.5823 30.2307 15.5939 29.8365 15.5939H28.5108C27.6389 15.5939 26.9163 15.5533 26.343 15.4722C26.2952 15.2406 26.2594 14.7889 26.2355 14.1172C26.2236 13.4453 26.2176 12.5767 26.2176 11.5111V7.2372C26.2176 6.0558 26.2355 5.07708 26.2713 4.30107C26.3191 3.51347 26.3609 3.07334 26.3967 2.98067L28.7974 2.56371L28.7078 1.17383H20.6459L20.5742 2.5116L22.4195 2.96331C22.4554 3.07913 22.4852 3.54821 22.5091 4.37056C22.533 5.18133 22.5449 6.13687 22.5449 7.2372V11.5111C22.5449 12.5767 22.533 13.5206 22.5091 14.343C22.4852 15.1653 22.4554 15.646 22.4195 15.785L20.5742 16.202L20.6459 17.5398H29.4424C29.8962 17.5398 30.5412 17.5513 31.3772 17.5745Z" fill="black"/>
</g>
</mask>
<g mask="url(#mask8_3009_28139)">
<path id="Vector_68" d="M31.3772 17.5745C32.2252 17.6093 32.9897 17.6556 33.6705 17.7134L35.0141 12.8315L33.348 12.4493L31.7355 15.4375C31.5206 15.4839 31.2459 15.5244 30.9115 15.5591C30.589 15.5823 30.2307 15.5939 29.8365 15.5939H28.5108C27.6389 15.5939 26.9163 15.5533 26.343 15.4722C26.2952 15.2406 26.2594 14.7889 26.2355 14.1172C26.2236 13.4453 26.2176 12.5767 26.2176 11.5111V7.2372C26.2176 6.0558 26.2355 5.07708 26.2713 4.30107C26.3191 3.51347 26.3609 3.07334 26.3967 2.98067L28.7974 2.56371L28.7078 1.17383H20.6459L20.5742 2.5116L22.4195 2.96331C22.4554 3.07913 22.4852 3.54821 22.5091 4.37056C22.533 5.18133 22.5449 6.13687 22.5449 7.2372V11.5111C22.5449 12.5767 22.533 13.5206 22.5091 14.343C22.4852 15.1653 22.4554 15.646 22.4195 15.785L20.5742 16.202L20.6459 17.5398H29.4424C29.8962 17.5398 30.5412 17.5513 31.3772 17.5745Z" stroke="white"/>
</g>
</g>
<path id="Vector_69" d="M14.3199 19.4808C14.3605 19.5032 14.4009 19.5249 14.4411 19.5456C14.4017 19.5671 14.362 19.5895 14.3222 19.6127C14.0098 19.7953 13.6482 20.0534 13.2602 20.3616C12.4832 20.9787 11.5821 21.8112 10.7272 22.6836C9.87217 23.5561 9.05823 24.4738 8.45709 25.2623C8.15682 25.6563 7.9062 26.0225 7.72989 26.3377C7.70731 26.378 7.68555 26.4183 7.6648 26.4582C7.64322 26.419 7.62064 26.3795 7.59725 26.34C7.41365 26.0293 7.15422 25.6697 6.84437 25.2836C6.22398 24.5109 5.38694 23.6145 4.50977 22.7642C3.63261 21.9138 2.71004 21.1043 1.91716 20.5063C1.52114 20.2076 1.15295 19.9584 0.836017 19.7831C0.795433 19.7605 0.755003 19.739 0.714844 19.7183C0.75428 19.6968 0.793947 19.6743 0.833737 19.6511C1.14609 19.4685 1.50768 19.2104 1.89575 18.9022C2.67273 18.2852 3.57387 17.4526 4.42881 16.5802C5.28377 15.7077 6.09771 14.7901 6.69886 14.0015C6.99912 13.6076 7.24975 13.2414 7.42606 12.9261C7.44863 12.8858 7.47039 12.8456 7.49115 12.8057C7.51273 12.8448 7.5353 12.8843 7.55869 12.9239C7.74229 13.2346 8.00172 13.5942 8.31158 13.9802C8.93196 14.753 9.76901 15.6493 10.6462 16.4996C11.5234 17.35 12.4459 18.1596 13.2388 18.7575C13.6348 19.0562 14.003 19.3055 14.3199 19.4808Z" fill="#B50F00" stroke="white" stroke-width="0.5"/>
<path id="Vector_70" d="M121.688 15.2268L121.885 15.5686L122.09 15.2315C123.121 13.5398 124.917 13.0343 126.46 13.375C128.007 13.7171 129.248 14.8946 129.223 16.5386V16.5397C129.205 18.4221 127.861 19.856 126.187 21.3204C125.919 21.5557 125.641 21.7921 125.362 22.0309C124.784 22.5234 124.194 23.0253 123.648 23.5459C122.928 24.2334 122.265 24.9691 121.774 25.7924C121.301 24.9651 120.657 24.2212 119.956 23.5238C119.422 22.9928 118.843 22.4796 118.276 21.9762C118.001 21.7323 117.729 21.4907 117.466 21.2505C115.827 19.7547 114.513 18.2957 114.531 16.4132C114.55 14.7682 115.818 13.612 117.373 13.2969C118.922 12.983 120.701 13.5195 121.688 15.2268Z" fill="#B50F00" stroke="white" stroke-width="0.5"/>
</g>
<defs>
<clipPath id="clip0_3009_28139">
<rect width="130" height="40" fill="white"/>
</clipPath>
</defs>
</svg>
