<svg width="313" height="30" viewBox="0 0 313 30" fill="none" xmlns="http://www.w3.org/2000/svg">
<path d="M43.9667 28.9216V6.2583H36.2773V1.07812H57.8479V6.2583H50.1586V28.9216H43.9667Z" fill="#CC2121"/>
<path d="M62.2187 28.9216V1.07812H72.2148C74.1844 1.07812 75.9785 1.34118 77.5973 1.86729C79.2162 2.3934 80.5112 3.28375 81.4825 4.53832C82.4538 5.79289 82.9394 7.51962 82.9394 9.7185C82.9394 11.8364 82.4538 13.5699 81.4825 14.9189C80.5112 16.2544 79.2162 17.2459 77.5973 17.8935C75.9785 18.5275 74.1844 18.8445 72.2148 18.8445H68.4106V28.9216H62.2187ZM68.4106 13.9476H71.7089C75.1489 13.9476 76.8689 12.5379 76.8689 9.7185C76.8689 8.31553 76.4305 7.34425 75.5536 6.80465C74.6768 6.26505 73.3952 5.99524 71.7089 5.99524H68.4106V13.9476ZM77.3343 28.9216L71.0614 17.1852L75.3715 13.2596L84.2142 28.9216H77.3343Z" fill="#CC2121"/>
<path d="M109.731 28.9216H103.195L101.434 22.2238H92.8546L91.0941 28.9216H84.801L93.5426 1.07812H100.928L109.731 28.9216ZM94.8174 14.757L94.1294 17.4078H100.159L99.4715 14.757C99.1072 13.3541 98.7295 11.8702 98.3383 10.3053C97.9606 8.74047 97.5828 7.22958 97.2051 5.77266H97.0432C96.706 7.24307 96.3418 8.7607 95.9506 10.3255C95.5593 11.8769 95.1816 13.3541 94.8174 14.757Z" fill="#CC2121"/>
<path d="M112.725 28.9216V1.07812H120.577C123.423 1.07812 125.885 1.57051 127.962 2.55528C130.053 3.52657 131.665 5.03071 132.799 7.0677C133.945 9.09121 134.519 11.6948 134.519 14.8784C134.519 18.0621 133.952 20.6926 132.819 22.7701C131.686 24.8476 130.101 26.3922 128.064 27.4039C126.027 28.4157 123.646 28.9216 120.921 28.9216H112.725ZM118.917 23.9842H120.192C121.797 23.9842 123.194 23.6942 124.381 23.1141C125.581 22.5205 126.512 21.556 127.173 20.2205C127.848 18.885 128.185 17.1043 128.185 14.8784C128.185 12.6526 127.848 10.8989 127.173 9.61732C126.512 8.32228 125.581 7.40495 124.381 6.86535C123.194 6.31226 121.797 6.03572 120.192 6.03572H118.917V23.9842Z" fill="#CC2121"/>
<path d="M161.209 28.9216H154.673L152.912 22.2238H144.333L142.572 28.9216H136.279L145.021 1.07812H152.406L161.209 28.9216ZM146.295 14.757L145.607 17.4078H151.637L150.949 14.757C150.585 13.3541 150.208 11.8702 149.816 10.3053C149.439 8.74047 149.061 7.22958 148.683 5.77266H148.521C148.184 7.24307 147.82 8.7607 147.429 10.3255C147.037 11.8769 146.66 13.3541 146.295 14.757Z" fill="#CC2121"/>
<path d="M186.571 29.4275C184.224 29.4275 182.072 28.8879 180.116 27.8087C178.16 26.7295 176.588 25.1376 175.401 23.0332C174.227 20.9152 173.641 18.2982 173.641 15.182C173.641 12.8752 173.991 10.818 174.693 9.01029C175.394 7.20262 176.352 5.6715 177.566 4.41693C178.78 3.16235 180.177 2.21131 181.755 1.56378C183.333 0.902772 184.999 0.572266 186.753 0.572266C188.547 0.572266 190.152 0.923007 191.569 1.62449C192.999 2.32597 194.179 3.1691 195.11 4.15387L191.832 7.91759C191.144 7.28356 190.402 6.79117 189.606 6.44043C188.81 6.08969 187.913 5.91432 186.915 5.91432C185.62 5.91432 184.446 6.27855 183.394 7.00702C182.355 7.73548 181.526 8.77421 180.905 10.1232C180.298 11.4722 179.994 13.0843 179.994 14.9594C179.994 17.8463 180.615 20.0924 181.856 21.6977C183.097 23.303 184.743 24.1056 186.793 24.1056C187.954 24.1056 188.986 23.8965 189.889 23.4784C190.793 23.0467 191.596 22.4464 192.297 21.6774L195.555 25.34C194.355 26.7295 192.999 27.7614 191.488 28.4359C189.977 29.097 188.338 29.4275 186.571 29.4275Z" fill="white"/>
<path d="M221.173 28.9216H214.637L212.876 22.2238H204.297L202.536 28.9216H196.243L204.985 1.07814H212.371L221.173 28.9216ZM206.26 14.757L205.572 17.4078H211.602L210.914 14.757C210.549 13.3541 210.172 11.8702 209.78 10.3053C209.403 8.74049 209.025 7.2296 208.647 5.77268H208.485C208.148 7.24309 207.784 8.76072 207.393 10.3256C207.001 11.8769 206.624 13.3541 206.26 14.757Z" fill="white"/>
<path d="M232.666 29.4275C230.791 29.4275 228.957 29.097 227.162 28.4359C225.382 27.7614 223.783 26.7429 222.367 25.3805L225.665 21.3334C226.65 22.2238 227.776 22.9118 229.044 23.3974C230.326 23.8696 231.574 24.1056 232.788 24.1056C234.137 24.1056 235.142 23.8561 235.803 23.3569C236.477 22.8578 236.814 22.1833 236.814 21.3334C236.814 20.4296 236.444 19.7686 235.702 19.3504C234.96 18.9322 233.975 18.4668 232.747 17.9542L229.125 16.4163C228.167 16.0116 227.257 15.4788 226.393 14.8177C225.53 14.1432 224.829 13.3136 224.289 12.3288C223.749 11.3306 223.48 10.1569 223.48 8.80794C223.48 7.28356 223.905 5.90083 224.754 4.65975C225.604 3.40517 226.778 2.41366 228.275 1.68519C229.773 0.943242 231.479 0.572266 233.395 0.572266C235.068 0.572266 236.68 0.875792 238.231 1.48284C239.782 2.0899 241.131 2.93977 242.278 4.03246L239.04 8.07947C237.138 6.63604 235.256 5.91432 233.395 5.91432C232.289 5.91432 231.405 6.13691 230.744 6.58208C230.096 7.02725 229.773 7.65454 229.773 8.46394C229.773 9.34079 230.177 10.0018 230.987 10.447C231.796 10.8921 232.815 11.3576 234.042 11.8432L237.583 13.2596C239.297 13.9611 240.646 14.9054 241.63 16.0926C242.629 17.2797 243.128 18.8715 243.128 20.868C243.128 22.4059 242.716 23.8224 241.893 25.1174C241.071 26.4124 239.877 27.4579 238.312 28.2538C236.761 29.0363 234.879 29.4275 232.666 29.4275Z" fill="white"/>
<path d="M247.883 28.9216V1.07814H254.075V28.9216H247.883Z" fill="white"/>
<path d="M260.712 28.9216V1.07814H267.086L274.472 15.101C274.944 16.0319 275.41 17.0234 275.868 18.0756C276.34 19.1143 276.785 20.1531 277.204 21.1918H277.366C277.244 19.7214 277.082 18.0891 276.88 16.2949C276.691 14.4872 276.597 12.7605 276.597 11.1147V1.07814H282.505V28.9216H276.172L268.745 14.9189C268.273 13.9746 267.808 12.9831 267.349 11.9444C266.904 10.9056 266.459 9.86016 266.014 8.80794H265.832C265.98 10.3458 266.142 11.9916 266.317 13.7453C266.506 15.499 266.601 17.1987 266.601 18.8445V28.9216H260.712Z" fill="white"/>
<path d="M300.393 29.4275C297.897 29.4275 295.699 28.8474 293.796 27.6872C291.894 26.5271 290.41 24.8611 289.345 22.6892C288.292 20.5173 287.766 17.9137 287.766 14.8785C287.766 11.8432 288.292 9.25985 289.345 7.12843C290.41 4.997 291.894 3.37145 293.796 2.25178C295.699 1.1321 297.897 0.572266 300.393 0.572266C302.889 0.572266 305.081 1.13885 306.969 2.27201C308.872 3.39168 310.349 5.01723 311.401 7.14866C312.467 9.28009 312.999 11.8567 312.999 14.8785C312.999 17.9137 312.467 20.5173 311.401 22.6892C310.349 24.8611 308.872 26.5271 306.969 27.6872C305.081 28.8474 302.889 29.4275 300.393 29.4275ZM300.393 24.1056C302.322 24.1056 303.853 23.276 304.986 21.6167C306.12 19.944 306.686 17.6979 306.686 14.8785C306.686 12.059 306.12 9.86016 304.986 8.28182C303.853 6.70349 302.322 5.91432 300.393 5.91432C298.477 5.91432 296.953 6.70349 295.82 8.28182C294.687 9.86016 294.12 12.059 294.12 14.8785C294.12 17.6979 294.687 19.944 295.82 21.6167C296.953 23.276 298.477 24.1056 300.393 24.1056Z" fill="white"/>
<path d="M11.9799 25.4267V10.0578H6.99414V6.54492H20.9806V10.0578H15.9948V25.4267H11.9799Z" fill="#CC2121"/>
<circle cx="13.9865" cy="14.9357" r="13.2872" stroke="white" stroke-width="1.39865"/>
</svg>
