<svg width="136" height="48" viewBox="0 0 136 48" fill="none" xmlns="http://www.w3.org/2000/svg">
<path d="M18.3871 16.0761C16.3943 19.6212 11.9087 20.8763 8.36359 18.8835C4.81845 16.8907 3.56332 12.4051 5.55614 8.85992C7.54897 5.31479 12.0381 4.05966 15.5797 6.05248C19.1213 8.04531 20.38 12.5344 18.3871 16.0761Z" fill="#333333"/>
<path d="M22.408 18.3381C19.1671 24.0998 11.8705 26.1451 6.10881 22.9041C0.347097 19.6632 -1.69817 12.3666 1.54279 6.60491C4.78376 0.843191 12.0803 -1.20208 17.842 2.03889C23.6002 5.27636 25.6455 12.5764 22.408 18.3381Z" fill="url(#paint0_linear_4048_16342)"/>
<path d="M16.2651 5.11206C17.237 5.65397 18.1356 5.86724 18.7264 5.95814C19.1669 5.18199 19.604 4.40583 20.0445 3.62619C19.3872 3.02484 18.6495 2.48992 17.8384 2.03542C17.0273 1.58092 16.1882 1.2278 15.3316 0.976074C14.9086 1.73125 14.4855 2.48643 14.0625 3.23811C14.4541 3.73806 15.1638 4.50023 16.2651 5.11206Z" fill="url(#paint1_linear_4048_16342)"/>
<path d="M7.80717 20.0022C8.77212 20.5371 9.46436 21.1525 9.91536 21.6245C9.47834 22.4041 9.04482 23.1838 8.6078 23.9634C7.75473 23.7117 6.91215 23.3621 6.10453 22.9076C5.29342 22.4531 4.55572 21.9146 3.89844 21.3133C4.32148 20.5616 4.74801 19.8064 5.17104 19.0513C5.83182 19.1771 6.78279 19.4358 7.80717 20.0022Z" fill="url(#paint2_linear_4048_16342)"/>
<path d="M7.74431 4.96538C8.63234 4.43046 9.27564 3.83611 9.70917 3.36412C9.25467 2.59496 8.80366 1.8258 8.34915 1.05664C7.49958 1.32585 6.66749 1.69644 5.87036 2.17193C5.06973 2.64741 4.34601 3.1998 3.69922 3.81513C4.13974 4.55982 4.58376 5.30101 5.02428 6.0457C5.70953 5.89886 6.69196 5.59819 7.74431 4.96538Z" fill="url(#paint3_linear_4048_16342)"/>
<path d="M16.4267 19.873C17.3567 19.3101 18.2272 19.0024 18.8705 18.8276C19.3285 19.5933 19.783 20.3625 20.241 21.1281C19.5977 21.7435 18.874 22.2959 18.0734 22.7678C17.2727 23.2433 16.4407 23.6139 15.5911 23.8831C15.1506 23.1384 14.7101 22.3937 14.2695 21.6491C14.7345 21.1351 15.4408 20.4674 16.4267 19.873Z" fill="url(#paint4_linear_4048_16342)"/>
<path d="M20.4113 12.2652C20.3869 13.5518 20.7505 14.5412 20.9882 15.0656C21.8797 15.0586 22.7748 15.0482 23.6663 15.0412C23.8551 14.1706 23.953 13.2651 23.9425 12.3351C23.932 11.4051 23.8166 10.4996 23.6033 9.63257C22.7398 9.64306 21.8727 9.65354 21.0092 9.66403C20.7714 10.1745 20.4323 11.0835 20.4113 12.2652Z" fill="url(#paint5_linear_4048_16342)"/>
<path d="M3.396 12.524C3.43096 13.6987 3.21419 14.6497 3.0184 15.2685C2.12688 15.2825 1.23186 15.293 0.34033 15.307C0.130559 14.4399 0.0151823 13.5379 0.00469371 12.6079C-0.00579485 11.6779 0.0886105 10.7724 0.280901 9.90187C1.14446 9.89138 2.0115 9.88439 2.87506 9.8739C3.09882 10.4717 3.36104 11.3843 3.396 12.524Z" fill="url(#paint6_linear_4048_16342)"/>
<g opacity="0.25">
<path d="M17.8381 2.03889C12.0764 -1.20208 4.77985 0.843191 1.53888 6.60491C-1.70208 12.3666 0.343202 19.6632 6.10492 22.9041C11.8666 26.1451 19.1667 24.0998 22.4041 18.3381C25.6451 12.5764 23.5998 5.27636 17.8381 2.03889ZM6.36712 22.4391C0.860626 19.345 -1.09373 12.3701 2.00389 6.86712C5.09801 1.36063 12.0729 -0.593739 17.5759 2.50388C23.0824 5.59801 25.0368 12.5729 21.9391 18.0759C18.845 23.5824 11.8736 25.5333 6.36712 22.4391Z" fill="url(#paint7_linear_4048_16342)"/>
</g>
<path opacity="0.5" d="M18.7987 16.3104C16.68 20.0793 11.9042 21.4183 8.1353 19.2961C4.36641 17.1774 3.02737 12.4016 5.14606 8.63274C7.26475 4.86385 12.0405 3.52481 15.8094 5.6435C19.5783 7.76219 20.9174 12.538 18.7987 16.3104Z" fill="#47060E"/>
<path d="M17.0234 17.4081C17.0234 17.4081 17.3521 17.083 17.6248 16.7054C17.7751 16.5306 17.8835 16.3243 17.9814 16.1775C18.0758 16.0306 18.1352 15.9327 18.1352 15.9327L18.6422 16.2194C18.6422 16.2194 18.5757 16.3243 18.4744 16.4851C18.3695 16.6425 18.2506 16.8627 18.0898 17.055C17.7961 17.4606 17.4395 17.8137 17.4395 17.8137L17.0234 17.4081Z" fill="white"/>
<path d="M15.5742 18.5477C15.5742 18.5477 15.6791 18.4988 15.8225 18.3974C15.9623 18.296 16.1581 18.1701 16.3399 18.0303C16.5147 17.8799 16.693 17.7296 16.8224 17.6177C16.9412 17.4919 17.0216 17.408 17.0216 17.408L17.4377 17.8135C17.4377 17.8135 17.3503 17.9044 17.2209 18.0373C17.0776 18.1596 16.8888 18.324 16.6965 18.4848C16.4972 18.6351 16.2875 18.775 16.1371 18.8833C15.9833 18.9917 15.8714 19.0442 15.8714 19.0442L15.5742 18.5477Z" fill="url(#paint8_linear_4048_16342)"/>
<path d="M13.8789 19.2786C13.8789 19.2786 13.9873 19.2436 14.1551 19.1877C14.3194 19.1317 14.5432 19.0688 14.7495 18.9639C15.1795 18.7926 15.5746 18.5479 15.5746 18.5479L15.8717 19.0478C15.8717 19.0478 15.4452 19.3135 14.9802 19.4988C14.7529 19.6072 14.5152 19.6806 14.3369 19.7401C14.1586 19.7995 14.0397 19.8379 14.0397 19.8379L13.8789 19.2786Z" fill="white"/>
<path d="M12.0508 19.5339C12.0508 19.5339 12.5158 19.5409 12.9738 19.4605C13.2045 19.4395 13.4283 19.3801 13.5996 19.3416C13.7674 19.3032 13.8828 19.2787 13.8828 19.2787L14.0401 19.8381C14.0401 19.8381 13.9178 19.8661 13.736 19.908C13.5541 19.95 13.3094 20.0129 13.0612 20.0374C12.5682 20.1213 12.0648 20.1178 12.0648 20.1178L12.0508 19.5339Z" fill="url(#paint9_linear_4048_16342)"/>
<path d="M10.218 19.3137C10.218 19.3137 10.3299 19.3452 10.4977 19.3871C10.669 19.4151 10.8962 19.4536 11.127 19.4885C11.3577 19.513 11.5885 19.52 11.7598 19.534C11.9311 19.548 12.05 19.534 12.05 19.534L12.057 20.1144C12.057 20.1144 11.9311 20.1283 11.7458 20.1144C11.557 20.1004 11.3088 20.0934 11.0606 20.0654C10.8123 20.0235 10.5676 19.985 10.3823 19.9535C10.2005 19.9046 10.0781 19.8731 10.0781 19.8731L10.218 19.3137Z" fill="white"/>
<path d="M8.50933 18.6316C8.50933 18.6316 8.61422 18.684 8.76806 18.7609C8.92538 18.8344 9.12467 18.9567 9.34493 19.0267C9.77146 19.2085 10.2225 19.3133 10.2225 19.3133L10.0791 19.8762C10.0791 19.8762 9.58966 19.7609 9.12816 19.5651C8.89042 19.4882 8.67366 19.3588 8.50234 19.2784C8.33453 19.1945 8.22266 19.1385 8.22266 19.1385L8.50933 18.6316Z" fill="url(#paint10_linear_4048_16342)"/>
<path d="M7.03447 17.5199C7.03447 17.5199 7.35961 17.8485 7.7372 18.1212C7.91201 18.2716 8.12179 18.38 8.26513 18.4779C8.41197 18.5723 8.50986 18.6317 8.50986 18.6317L8.22317 19.1386C8.22317 19.1386 8.11829 19.0722 7.95746 18.9708C7.80013 18.8659 7.57987 18.7506 7.38758 18.5862C6.98202 18.2926 6.62891 17.9359 6.62891 17.9359L7.03447 17.5199Z" fill="white"/>
<path d="M5.89449 16.0726C5.89449 16.0726 5.94344 16.1775 6.04482 16.3209C6.14621 16.4607 6.27208 16.6565 6.41192 16.8383C6.56226 17.0131 6.71259 17.1914 6.82447 17.3208C6.95034 17.4396 7.03425 17.5201 7.03425 17.5201L6.62869 17.9361C6.62869 17.9361 6.53779 17.8487 6.40493 17.7193C6.28257 17.576 6.11824 17.3872 5.95741 17.1949C5.80708 16.9956 5.66724 16.7859 5.55886 16.6355C5.45047 16.4817 5.39453 16.3698 5.39453 16.3698L5.89449 16.0726Z" fill="url(#paint11_linear_4048_16342)"/>
<path d="M5.16486 14.3768C5.16486 14.3768 5.19982 14.4852 5.25576 14.6495C5.3117 14.8139 5.37463 15.0376 5.47952 15.2439C5.65083 15.6739 5.89556 16.069 5.89556 16.069L5.3956 16.3662C5.3956 16.3662 5.1299 15.9396 4.9446 15.4746C4.83272 15.2509 4.7628 15.0096 4.70336 14.8313C4.64393 14.653 4.60547 14.5342 4.60547 14.5342L5.16486 14.3768Z" fill="white"/>
<path d="M4.9081 12.5518C4.9081 12.5518 4.90111 13.0168 4.98152 13.4748C5.0025 13.7055 5.06194 13.9293 5.10039 14.0971C5.13885 14.2649 5.16333 14.3803 5.16333 14.3803L4.60394 14.5376C4.60394 14.5376 4.57597 14.4152 4.53402 14.2334C4.49206 14.0516 4.42913 13.8069 4.40466 13.5587C4.32075 13.0622 4.32424 12.5622 4.32424 12.5622L4.9081 12.5518Z" fill="url(#paint12_linear_4048_16342)"/>
<path d="M5.13106 10.7203C5.13106 10.7203 5.10309 10.8322 5.05764 11C5.02967 11.1713 4.99122 11.3986 4.95625 11.6293C4.93178 11.86 4.92479 12.0908 4.9108 12.2621C4.89682 12.4334 4.9108 12.5523 4.9108 12.5523L4.33043 12.5593C4.33043 12.5593 4.31645 12.4334 4.33043 12.2481C4.34442 12.0593 4.35141 11.8111 4.37938 11.5629C4.42133 11.3146 4.4598 11.0699 4.49126 10.8846C4.54021 10.7028 4.57167 10.5804 4.57167 10.5804L5.13106 10.7203Z" fill="white"/>
<path d="M5.80714 9.00678C5.80714 9.00678 5.7547 9.11167 5.67778 9.2655C5.60436 9.42283 5.48549 9.62211 5.41207 9.84237C5.23027 10.2689 5.12538 10.7199 5.12538 10.7199L4.5625 10.5766C4.5625 10.5766 4.67788 10.0871 4.87366 9.6256C4.95058 9.38786 5.07994 9.1711 5.16035 8.99979C5.24426 8.83197 5.30019 8.72009 5.30019 8.72009L5.80714 9.00678Z" fill="url(#paint13_linear_4048_16342)"/>
<path d="M6.91952 7.53141C6.91952 7.53141 6.59088 7.85656 6.31817 8.23415C6.16784 8.40896 6.05946 8.61873 5.96157 8.76207C5.86717 8.90891 5.80773 9.0068 5.80773 9.0068L5.30078 8.72012C5.30078 8.72012 5.36721 8.61523 5.4686 8.45441C5.57348 8.29708 5.68886 8.07682 5.85318 7.88453C6.14686 7.47897 6.50348 7.12585 6.50348 7.12585L6.91952 7.53141Z" fill="white"/>
<path d="M8.37128 6.39514C8.37128 6.39514 8.2664 6.44409 8.12306 6.54548C7.98321 6.64687 7.78741 6.77273 7.60561 6.91258C7.4308 7.06291 7.25599 7.21325 7.12314 7.32513C7.00427 7.45099 6.92386 7.5349 6.92386 7.5349L6.50781 7.12934C6.50781 7.12934 6.59522 7.03844 6.72458 6.90558C6.86792 6.78322 7.05672 6.6189 7.24901 6.45807C7.44829 6.30773 7.65806 6.16789 7.81189 6.05951C7.96573 5.95113 8.07761 5.89868 8.07761 5.89868L8.37128 6.39514Z" fill="url(#paint14_linear_4048_16342)"/>
<path d="M10.0635 5.66095C10.0635 5.66095 9.95516 5.69591 9.79084 5.75185C9.62652 5.80779 9.40277 5.87072 9.19649 5.97561C8.76296 6.14692 8.37139 6.39165 8.37139 6.39165L8.07422 5.8917C8.07422 5.8917 8.50074 5.62599 8.96574 5.44069C9.19299 5.33231 9.43074 5.25889 9.60904 5.19946C9.78735 5.14002 9.90621 5.10156 9.90621 5.10156L10.0635 5.66095Z" fill="white"/>
<path d="M11.8921 5.40566C11.8921 5.40566 11.4271 5.39867 10.9726 5.47908C10.7418 5.50006 10.5181 5.55949 10.3468 5.59795C10.179 5.63641 10.0636 5.66088 10.0636 5.66088L9.90625 5.10149C9.90625 5.10149 10.0286 5.07352 10.2104 5.03157C10.3922 4.98961 10.6369 4.92668 10.8852 4.90221C11.3816 4.8183 11.8816 4.8218 11.8816 4.8218L11.8921 5.40566Z" fill="url(#paint15_linear_4048_16342)"/>
<path d="M13.7257 5.62606C13.7257 5.62606 13.6138 5.59459 13.446 5.55264C13.2747 5.52467 13.0474 5.48621 12.8167 5.45125C12.586 5.42677 12.3552 5.41978 12.1839 5.4058C12.0126 5.39181 11.8937 5.4058 11.8937 5.4058L11.8867 4.82543C11.8867 4.82543 12.0126 4.81144 12.1979 4.82543C12.3867 4.83941 12.6349 4.84641 12.8831 4.87438C13.1314 4.91633 13.3761 4.95479 13.5614 4.98626C13.7432 5.0352 13.8656 5.06667 13.8656 5.06667L13.7257 5.62606Z" fill="white"/>
<path d="M15.4358 6.30775C15.4358 6.30775 15.3309 6.25531 15.1771 6.17839C15.0197 6.10497 14.8205 5.9861 14.6002 5.91268C14.1737 5.73088 13.7227 5.626 13.7227 5.626L13.866 5.06311C13.866 5.06311 14.3555 5.17849 14.817 5.37427C15.0547 5.45119 15.2715 5.58055 15.4428 5.66096C15.6106 5.74487 15.7225 5.80081 15.7225 5.80081L15.4358 6.30775Z" fill="url(#paint16_linear_4048_16342)"/>
<path d="M16.909 7.41964C16.909 7.41964 16.5838 7.091 16.2063 6.81829C16.0314 6.66796 15.8252 6.55958 15.6783 6.46168C15.5315 6.36729 15.4336 6.30785 15.4336 6.30785L15.7203 5.8009C15.7203 5.8009 15.8252 5.86733 15.986 5.96872C16.1433 6.07361 16.3636 6.19248 16.5559 6.3533C16.9614 6.64698 17.3145 7.00359 17.3145 7.00359L16.909 7.41964Z" fill="white"/>
<path d="M18.046 8.86701C18.046 8.86701 17.9971 8.76212 17.8957 8.61878C17.7943 8.47893 17.6684 8.28314 17.5286 8.10134C17.3782 7.92653 17.2279 7.74823 17.116 7.61887C16.9902 7.5 16.9062 7.41959 16.9062 7.41959L17.3118 7.00354C17.3118 7.00354 17.4027 7.09095 17.5356 7.2203C17.6579 7.36365 17.8223 7.55244 17.9831 7.74473C18.1334 7.94401 18.2733 8.15379 18.3816 8.30762C18.49 8.46145 18.5425 8.57333 18.5425 8.57333L18.046 8.86701Z" fill="url(#paint17_linear_4048_16342)"/>
<path d="M18.7776 10.5624C18.7776 10.5624 18.7426 10.4541 18.6867 10.2897C18.6307 10.1254 18.5678 9.90167 18.4629 9.6954C18.2916 9.26187 18.0469 8.8703 18.0469 8.8703L18.5468 8.57312C18.5468 8.57312 18.8126 8.99966 18.9978 9.46465C19.1062 9.6919 19.1797 9.92964 19.2391 10.1079C19.2985 10.2863 19.337 10.4051 19.337 10.4051L18.7776 10.5624Z" fill="white"/>
<path d="M19.0322 12.3912C19.0322 12.3912 19.0392 11.9262 18.9587 11.4682C18.9378 11.2375 18.8783 11.0137 18.8399 10.8459C18.8014 10.6781 18.7734 10.5627 18.7734 10.5627L19.3328 10.4054C19.3328 10.4054 19.3608 10.5278 19.4028 10.7096C19.4447 10.8914 19.5076 11.1361 19.5321 11.3843C19.616 11.8808 19.609 12.3807 19.609 12.3807L19.0322 12.3912Z" fill="url(#paint18_linear_4048_16342)"/>
<path d="M18.8125 14.2195C18.8125 14.2195 18.8405 14.1077 18.8859 13.9398C18.9139 13.7685 18.9523 13.5413 18.9873 13.314C19.0118 13.0833 19.0188 12.8525 19.0328 12.6812C19.0467 12.5099 19.0328 12.391 19.0328 12.391L19.6131 12.384C19.6131 12.384 19.6271 12.5099 19.6131 12.6987C19.5991 12.884 19.5922 13.1357 19.5642 13.3839C19.5222 13.6322 19.4838 13.8769 19.4523 14.0622C19.4034 14.244 19.3719 14.3664 19.3719 14.3664L18.8125 14.2195Z" fill="white"/>
<path d="M18.1367 15.9362C18.1367 15.9362 18.1892 15.8313 18.2661 15.6774C18.3395 15.5201 18.4584 15.3208 18.5318 15.1006C18.7136 14.674 18.8185 14.223 18.8185 14.223L19.3814 14.3664C19.3814 14.3664 19.266 14.8558 19.0702 15.3173C18.9933 15.5551 18.8639 15.7718 18.7835 15.9431C18.6996 16.111 18.6437 16.2228 18.6437 16.2228L18.1367 15.9362Z" fill="url(#paint19_linear_4048_16342)"/>
<path d="M18.03 15.8769C16.149 19.2228 11.9116 20.408 8.56577 18.527C5.21992 16.6461 4.03122 12.4087 5.91217 9.06285C7.79312 5.717 12.0305 4.52829 15.3763 6.40924C18.7222 8.29369 19.9109 12.5311 18.03 15.8769Z" fill="url(#paint20_linear_4048_16342)"/>
<circle cx="11.8302" cy="12.4625" r="3.7833" fill="#EFEEEE"/>
<path d="M22.7665 26.1207C20.5545 26.1207 19.4713 25.562 19.5169 24.4446C19.5169 23.3956 20.5773 22.8711 22.6981 22.8711C23.1998 22.8711 23.6787 22.9281 24.1348 23.0421C24.8873 22.2896 25.2636 21.1494 25.2636 19.6215C25.2636 16.9761 23.4963 15.6535 19.9616 15.6535C18.1144 15.6535 16.3585 16.0526 14.6937 16.8507C14.078 17.1472 13.5193 17.4208 13.0176 17.6717C12.5387 17.9225 12.094 18.048 11.6835 18.048C11.2731 18.048 11.0678 17.9225 11.0678 17.6717C11.0678 17.3752 11.2959 16.9419 11.7519 16.3718C12.208 15.7789 12.8466 15.186 13.6675 14.5931C15.7655 13.1336 18.1486 12.3924 20.8167 12.3696C24.3058 12.3696 26.8713 13.0652 28.5133 14.4562C29.9271 15.6193 30.6341 17.2042 30.6341 19.211C30.6341 21.537 29.4939 23.3158 27.2134 24.5472C29.4026 25.8015 30.7025 27.3408 31.113 29.1652C31.2498 29.8037 31.3182 30.6474 31.3182 31.6965C31.3182 32.7455 31.0332 33.7375 30.4631 34.6724C29.8929 35.6074 29.129 36.3942 28.1712 37.0327C26.2556 38.2642 23.8041 38.8799 20.8167 38.8799C18.6959 38.8799 16.3357 38.401 13.7359 37.4432C12.0028 36.8047 10.7257 36.0407 9.90478 35.1513C9.4943 34.7181 9.28906 34.2848 9.28906 33.8515C9.31187 33.4182 9.52851 33.2016 9.93899 33.2016C10.3723 33.2016 11.1818 33.3498 12.3677 33.6462V33.612C12.3677 31.8333 12.5729 30.0089 12.9834 28.1389C13.6903 24.8779 14.5113 22.3238 15.4463 20.4766C16.4497 18.4242 17.4873 17.398 18.5591 17.398C18.8556 17.398 19.0038 17.9111 19.0038 18.9373C19.0038 19.9635 18.9012 21.0125 18.6959 22.0844C18.5135 23.1562 18.3082 24.2166 18.0802 25.2656C17.875 26.2918 17.6697 27.2268 17.4645 28.0705C17.282 28.9143 17.1908 29.5186 17.1908 29.8835L16.8488 35.0487C18.1942 35.4136 19.3344 35.596 20.2694 35.596C21.2044 35.596 22.0482 35.4364 22.8007 35.1171C24.6935 34.319 25.6399 32.9279 25.6399 30.9439C25.6399 29.7581 25.5259 28.7775 25.2978 28.0021C25.0698 27.2268 24.6593 26.5426 24.0664 25.9497C23.5419 26.0637 23.1086 26.1207 22.7665 26.1207Z" fill="white"/>
<path d="M55.058 30.0545C55.4685 30.0545 55.6737 30.579 55.6737 31.628C55.6737 32.1982 55.4343 32.8937 54.9554 33.7147C54.4765 34.5128 53.8493 35.254 53.074 35.9381C52.3214 36.5994 51.4777 37.1467 50.5427 37.58C49.6077 38.0133 48.6955 38.2299 47.8062 38.2299C46.5975 38.2299 45.788 37.1695 45.3775 35.0487C44.7846 36.0293 44.0092 36.8389 43.0514 37.4774C42.0936 38.0931 40.8052 38.401 39.186 38.401C37.5897 38.401 36.3013 37.8993 35.3207 36.8959C34.3401 35.8925 33.8612 34.6724 33.884 33.2358C33.884 29.359 35.1724 26.3032 37.7494 24.0683C38.844 23.1334 39.8588 22.5176 40.7938 22.2212C41.7516 21.9247 42.755 21.7765 43.804 21.7765C44.853 21.7765 45.7081 21.9589 46.3695 22.3238C46.6887 21.6625 47.0536 21.3318 47.4641 21.3318C48.2622 21.3318 49.0148 21.6853 49.7217 22.3922C50.4515 23.0763 50.8163 23.7263 50.8163 24.342C50.4971 25.0945 50.0296 25.9953 49.4139 27.0443C49.2314 28.0933 49.1402 29.5642 49.1402 31.457C49.1402 33.3498 49.3797 34.2962 49.8586 34.2962C50.4515 34.2962 51.8882 33.1103 54.1686 30.7387C54.5791 30.2826 54.8755 30.0545 55.058 30.0545ZM38.9124 32.1069C38.9124 33.8629 39.5623 34.7409 40.8622 34.7409C42.2533 34.7181 43.4049 33.9769 44.3171 32.5174C44.6363 32.0157 44.8986 31.4 45.1038 30.6702C45.1038 28.1161 45.3319 25.9269 45.788 24.1025C43.9408 24.4674 42.3331 25.3568 40.9648 26.7707C39.5965 28.1846 38.9124 29.9633 38.9124 32.1069Z" fill="white"/>
<path d="M61.5925 38.2299C58.3315 38.2528 56.1081 37.0327 54.9222 34.5698C54.5117 33.7033 54.3065 32.62 54.3065 31.3202C54.3065 29.9975 54.4205 28.595 54.6486 27.1127C55.1047 24.1482 55.9826 21.4116 57.2825 18.9031C57.9438 17.6261 58.685 16.5315 59.5059 15.6193C61.3075 13.6125 63.3143 12.6205 65.5263 12.6433C66.5069 12.6433 67.2709 12.9169 67.8182 13.4642C68.3883 13.9887 68.6734 14.7527 68.6734 15.7561C68.6734 16.7595 68.3769 17.7743 67.784 18.8005C67.1911 19.8039 66.4271 20.8529 65.4921 21.9475C64.5799 23.0193 63.5651 24.1482 62.4477 25.334C61.3303 26.5198 60.2357 27.8083 59.1639 29.1994V30.5676C59.1639 31.8447 59.4375 32.7797 59.9848 33.3726C60.5321 33.9655 61.1707 34.262 61.9004 34.262C63.8616 34.262 65.5947 33.2928 67.0998 31.3544C67.7156 30.5562 68.183 30.1571 68.5023 30.1571C68.8216 30.1571 68.9812 30.5448 68.9812 31.3202C68.9812 32.0955 68.7646 32.8937 68.3313 33.7147C67.9208 34.5128 67.3735 35.254 66.6894 35.9381C66.0052 36.5994 65.2185 37.1467 64.3291 37.58C63.4397 38.0133 62.5275 38.2299 61.5925 38.2299ZM63.4397 19.8609C63.9186 19.268 64.2949 18.7321 64.5685 18.2532C64.8422 17.7743 64.979 17.284 64.979 16.7823C64.979 16.2578 64.7966 15.9955 64.4317 15.9955C63.6335 15.9955 62.7442 16.8165 61.7636 18.4584C60.8058 20.1004 60.0874 22.2554 59.6086 24.9235C60.3839 23.7377 61.0908 22.7457 61.7294 21.9475C62.3907 21.1494 62.9608 20.4538 63.4397 19.8609Z" fill="white"/>
<path d="M74.5871 38.2299C71.3261 38.2528 69.1026 37.0327 67.9168 34.5698C67.5063 33.7033 67.3011 32.62 67.3011 31.3202C67.3011 29.9975 67.4151 28.595 67.6431 27.1127C68.0992 24.1482 68.9772 21.4116 70.2771 18.9031C70.9384 17.6261 71.6795 16.5315 72.5005 15.6193C74.3021 13.6125 76.3089 12.6205 78.5209 12.6433C79.5015 12.6433 80.2654 12.9169 80.8127 13.4642C81.3829 13.9887 81.6679 14.7527 81.6679 15.7561C81.6679 16.7595 81.3715 17.7743 80.7785 18.8005C80.1856 19.8039 79.4217 20.8529 78.4867 21.9475C77.5745 23.0193 76.5597 24.1482 75.4423 25.334C74.3249 26.5198 73.2302 27.8083 72.1584 29.1994V30.5676C72.1584 31.8447 72.4321 32.7797 72.9794 33.3726C73.5267 33.9655 74.1652 34.262 74.895 34.262C76.8562 34.262 78.5893 33.2928 80.0944 31.3544C80.7101 30.5562 81.1776 30.1571 81.4969 30.1571C81.8161 30.1571 81.9758 30.5448 81.9758 31.3202C81.9758 32.0955 81.7591 32.8937 81.3258 33.7147C80.9154 34.5128 80.368 35.254 79.6839 35.9381C78.9998 36.5994 78.213 37.1467 77.3237 37.58C76.4343 38.0133 75.5221 38.2299 74.5871 38.2299ZM76.4343 19.8609C76.9132 19.268 77.2894 18.7321 77.5631 18.2532C77.8368 17.7743 77.9736 17.284 77.9736 16.7823C77.9736 16.2578 77.7911 15.9955 77.4263 15.9955C76.6281 15.9955 75.7387 16.8165 74.7581 18.4584C73.8004 20.1004 73.082 22.2554 72.6031 24.9235C73.3785 23.7377 74.0854 22.7457 74.7239 21.9475C75.3853 21.1494 75.9554 20.4538 76.4343 19.8609Z" fill="white"/>
<path d="M89.1552 35.6302C88.015 37.2037 86.4871 37.9905 84.5715 37.9905C83.0208 37.9905 81.7779 37.6712 80.8429 37.0327C79.9308 36.3714 79.4747 35.3338 79.4747 33.9199C79.4747 33.327 79.5545 32.7797 79.7141 32.278C79.8966 31.7763 80.1816 31.1605 80.5693 30.4308L81.5613 22.3238C82.2682 21.7765 83.226 21.5028 84.4346 21.5028C85.4608 21.5028 86.0424 22.187 86.1792 23.5552C86.2248 23.9657 86.2476 24.456 86.2476 25.0261C86.2476 25.5734 86.1564 26.155 85.974 26.7707C85.0618 29.9177 84.6171 32.0271 84.6399 33.0989C84.6399 33.9199 85.1188 34.3304 86.0766 34.3304C87.0344 34.3304 87.7413 34.0225 88.1974 33.4068C88.6535 32.7911 89.0412 32.0271 89.3604 31.1149C89.9533 28.5836 90.5006 26.497 91.0023 24.8551C91.5268 23.2132 91.8575 22.2326 91.9943 21.9133C92.2224 21.366 92.6557 21.081 93.2942 21.0581C93.9327 21.081 94.537 21.537 95.1072 22.4264C95.6773 23.293 95.9623 23.9657 95.9623 24.4446C95.9167 26.0409 94.9247 30.0659 92.9863 36.5196C94.4686 35.3566 95.9395 33.9313 97.399 32.2438C97.9007 31.6508 98.3226 31.1605 98.6647 30.7729C99.0067 30.3624 99.2804 30.1571 99.4856 30.1571C99.8049 30.1571 99.9645 30.522 99.9645 31.2518C99.9645 32.6884 99.155 34.3646 97.5358 36.2802C95.9395 38.1957 93.9783 39.6894 91.6523 40.7612C91.3786 41.6734 91.0822 42.54 90.7629 43.361C90.4436 44.1819 90.0331 44.9003 89.5315 45.516C88.4368 46.8386 86.7721 47.5 84.5373 47.5C83.0322 47.5 81.7437 47.0667 80.6719 46.2001C79.6229 45.3335 79.0984 44.2503 79.0984 42.9505C79.0984 42.2207 79.3378 41.6392 79.8167 41.2059C80.3184 40.7726 80.9912 40.4078 81.8349 40.1113C82.7015 39.8377 83.7049 39.5868 84.8451 39.3588C85.9854 39.1535 87.2054 38.8913 88.5053 38.572C88.8245 37.2037 89.0412 36.2231 89.1552 35.6302ZM84.5031 44.8661C85.5749 44.8661 86.5441 43.9311 87.4106 42.0611C86.5897 42.2207 85.8599 42.3348 85.2214 42.4032C84.5829 42.4944 84.0356 42.5742 83.5795 42.6426C82.6673 42.7794 82.2226 43.0189 82.2454 43.361C82.2454 43.7942 82.4963 44.1591 82.998 44.4556C83.5225 44.752 84.0242 44.8889 84.5031 44.8661Z" fill="white"/>
<path d="M107.203 38.1273V20.8101H111.475C112.783 20.8101 113.822 21.2027 114.592 21.9877C115.362 22.7651 115.746 23.7964 115.746 25.0817V26.9289C115.746 27.5985 115.635 28.2104 115.412 28.7645C115.196 29.311 114.884 29.7689 114.477 30.1383L114.407 28.9146C114.892 29.2686 115.273 29.742 115.55 30.3346C115.835 30.9272 115.977 31.6007 115.977 32.3549V33.8558C115.977 35.1334 115.593 36.1647 114.823 36.9498C114.053 37.7348 113.014 38.1273 111.706 38.1273H107.203ZM110.32 35.0102H111.706C112.075 35.0102 112.36 34.9063 112.56 34.6985C112.76 34.483 112.86 34.2021 112.86 33.8558V32.3549C112.86 32.0086 112.76 31.7315 112.56 31.5237C112.36 31.3082 112.075 31.2005 111.706 31.2005H110.32V35.0102ZM110.32 28.0834H111.475C111.844 28.0834 112.129 27.9795 112.329 27.7717C112.529 27.5562 112.629 27.2752 112.629 26.9289V25.0817C112.629 24.7354 112.529 24.4583 112.329 24.2505C112.129 24.035 111.844 23.9272 111.475 23.9272H110.32V28.0834Z" fill="white"/>
<path d="M125.974 20.8101V23.9272H121.933V27.3907H125.35V30.5078H121.933V35.0102H125.974V38.1273H118.816V20.8101H125.974Z" fill="white"/>
<path d="M129.755 38.1273V23.9272H127.215V20.8101H135.412V23.9272H132.872V38.1273H129.755Z" fill="white"/>
<defs>
<linearGradient id="paint0_linear_4048_16342" x1="-4.44201" y1="25.2717" x2="38.2692" y2="-8.02236" gradientUnits="userSpaceOnUse">
<stop stop-color="#C84401"/>
<stop offset="0.968" stop-color="#FF5500"/>
</linearGradient>
<linearGradient id="paint1_linear_4048_16342" x1="17.2902" y1="3.17902" x2="19.9295" y2="0.246767" gradientUnits="userSpaceOnUse">
<stop stop-color="#E6E6E6"/>
<stop offset="1" stop-color="#F2F2F2"/>
</linearGradient>
<linearGradient id="paint2_linear_4048_16342" x1="0.858159" y1="26.002" x2="24.2518" y2="8.5708" gradientUnits="userSpaceOnUse">
<stop stop-color="#E6E6E6"/>
<stop offset="1" stop-color="#F2F2F2"/>
</linearGradient>
<linearGradient id="paint3_linear_4048_16342" x1="-7.77318" y1="14.4187" x2="15.6205" y2="-3.01259" gradientUnits="userSpaceOnUse">
<stop stop-color="#E6E6E6"/>
<stop offset="1" stop-color="#F2F2F2"/>
</linearGradient>
<linearGradient id="paint4_linear_4048_16342" x1="4.47426" y1="30.8542" x2="27.869" y2="13.4225" gradientUnits="userSpaceOnUse">
<stop stop-color="#E6E6E6"/>
<stop offset="1" stop-color="#F2F2F2"/>
</linearGradient>
<linearGradient id="paint5_linear_4048_16342" x1="22.2129" y1="12.39" x2="26.5139" y2="11.1192" gradientUnits="userSpaceOnUse">
<stop stop-color="#E6E6E6"/>
<stop offset="1" stop-color="#F2F2F2"/>
</linearGradient>
<linearGradient id="paint6_linear_4048_16342" x1="-5.28749" y1="17.7529" x2="18.1055" y2="0.32229" gradientUnits="userSpaceOnUse">
<stop stop-color="#E6E6E6"/>
<stop offset="1" stop-color="#F2F2F2"/>
</linearGradient>
<linearGradient id="paint7_linear_4048_16342" x1="20.6655" y1="5.44347" x2="3.31566" y2="19.4702" gradientUnits="userSpaceOnUse">
<stop stop-color="white"/>
<stop offset="1"/>
</linearGradient>
<linearGradient id="paint8_linear_4048_16342" x1="15.2282" y1="19.1008" x2="18.2168" y2="16.4473" gradientUnits="userSpaceOnUse">
<stop stop-color="#C84401"/>
<stop offset="0.968" stop-color="#FF5500"/>
</linearGradient>
<linearGradient id="paint9_linear_4048_16342" x1="11.6814" y1="20.1468" x2="12.9734" y2="17.7588" gradientUnits="userSpaceOnUse">
<stop stop-color="#C84401"/>
<stop offset="0.968" stop-color="#FF5500"/>
</linearGradient>
<linearGradient id="paint10_linear_4048_16342" x1="7.85128" y1="19.9193" x2="10.0839" y2="17.1227" gradientUnits="userSpaceOnUse">
<stop stop-color="#C84401"/>
<stop offset="0.968" stop-color="#FF5500"/>
</linearGradient>
<linearGradient id="paint11_linear_4048_16342" x1="5.09003" y1="18.0006" x2="8.28802" y2="15.8068" gradientUnits="userSpaceOnUse">
<stop stop-color="#C84401"/>
<stop offset="0.968" stop-color="#FF5500"/>
</linearGradient>
<linearGradient id="paint12_linear_4048_16342" x1="4.16839" y1="14.6063" x2="6.33946" y2="13.8911" gradientUnits="userSpaceOnUse">
<stop stop-color="#C84401"/>
<stop offset="0.968" stop-color="#FF5500"/>
</linearGradient>
<linearGradient id="paint13_linear_4048_16342" x1="4.33136" y1="10.7891" x2="7.22087" y2="9.38714" gradientUnits="userSpaceOnUse">
<stop stop-color="#C84401"/>
<stop offset="0.968" stop-color="#FF5500"/>
</linearGradient>
<linearGradient id="paint14_linear_4048_16342" x1="6.16176" y1="7.59153" x2="9.15041" y2="4.938" gradientUnits="userSpaceOnUse">
<stop stop-color="#C84401"/>
<stop offset="0.968" stop-color="#FF5500"/>
</linearGradient>
<linearGradient id="paint15_linear_4048_16342" x1="9.53747" y1="5.68992" x2="10.8308" y2="3.30384" gradientUnits="userSpaceOnUse">
<stop stop-color="#C84401"/>
<stop offset="0.968" stop-color="#FF5500"/>
</linearGradient>
<linearGradient id="paint16_linear_4048_16342" x1="13.3513" y1="6.35083" x2="15.5839" y2="3.55421" gradientUnits="userSpaceOnUse">
<stop stop-color="#C84401"/>
<stop offset="0.968" stop-color="#FF5500"/>
</linearGradient>
<linearGradient id="paint17_linear_4048_16342" x1="16.6024" y1="8.9315" x2="19.7979" y2="6.74409" gradientUnits="userSpaceOnUse">
<stop stop-color="#C84401"/>
<stop offset="0.968" stop-color="#FF5500"/>
</linearGradient>
<linearGradient id="paint18_linear_4048_16342" x1="18.6182" y1="12.46" x2="20.7823" y2="11.75" gradientUnits="userSpaceOnUse">
<stop stop-color="#C84401"/>
<stop offset="0.968" stop-color="#FF5500"/>
</linearGradient>
<linearGradient id="paint19_linear_4048_16342" x1="17.9056" y1="16.2921" x2="20.7951" y2="14.8901" gradientUnits="userSpaceOnUse">
<stop stop-color="#C84401"/>
<stop offset="0.968" stop-color="#FF5500"/>
</linearGradient>
<linearGradient id="paint20_linear_4048_16342" x1="2.43766" y1="19.9017" x2="27.2407" y2="0.566774" gradientUnits="userSpaceOnUse">
<stop stop-color="#C84401"/>
<stop offset="0.968" stop-color="#FF5500"/>
</linearGradient>
</defs>
</svg>
