<svg width="83" height="40" viewBox="0 0 83 40" fill="none" xmlns="http://www.w3.org/2000/svg">
<path d="M11.7209 8.48466C11.1976 8.47338 10.2801 8.47753 8.96861 8.49712C8.24467 8.53742 7.66332 8.57938 7.22456 8.62299C6.66044 8.67907 6.12921 8.74769 5.63088 8.82888L5.26875 5.18558L5.85638 5.12717C7.14133 4.99945 8.48185 4.95325 9.87795 4.98855C10.3229 5.00762 10.8251 5.04474 11.3845 5.09992L11.7209 8.48466ZM8.60654 16.5563C8.57383 16.2273 8.52696 15.9945 8.46594 15.8582C8.40335 15.7062 8.31488 15.6121 8.20051 15.576C8.08459 15.5242 7.89188 15.4959 7.62237 15.491L4.6962 15.4258C2.96947 15.4075 1.76242 14.9657 1.07506 14.1004C0.769731 13.7351 0.54202 13.2751 0.391927 12.7203C0.241835 12.1655 0.126292 11.4807 0.0452994 10.6659C-0.127589 8.9265 0.194404 7.6285 1.01128 6.77189C1.6698 6.07344 2.76144 5.59305 4.28621 5.33072L4.75581 10.0552C4.77606 10.259 4.80103 10.4306 4.83072 10.57C4.8604 10.7095 4.90265 10.8161 4.95745 10.8898C5.0138 10.9791 5.09916 11.0418 5.21352 11.0779C5.32633 11.0984 5.4932 11.1055 5.71414 11.0994L8.99757 11.1766C9.68073 11.2036 10.2409 11.2666 10.678 11.3656C11.1151 11.4646 11.4973 11.6481 11.8246 11.9163C12.603 12.5827 13.0856 13.8561 13.2725 15.7365C13.4703 17.7266 13.1702 19.1648 12.3721 20.0512C12.0162 20.4506 11.5647 20.7645 11.0177 20.9929C10.4848 21.2041 9.84466 21.3706 9.09717 21.4924L8.60654 16.5563ZM7.85373 21.6397C6.28673 21.7955 4.8224 21.8698 3.46075 21.8628C2.65379 21.8638 2.04271 21.8455 1.6275 21.8076L1.28639 18.3758C2.21871 18.3623 3.28423 18.3355 4.48295 18.2955C5.23823 18.2521 5.77257 18.2148 6.08597 18.1836C6.93215 18.0995 7.48611 18.0207 7.74782 17.9472L8.11229 21.614L7.85373 21.6397Z" fill="white"/>
<path d="M15.7779 4.33091L20.4789 3.86364L22.0863 20.0352L17.3853 20.5024L15.7779 4.33091ZM22.2161 11.3107L22.7802 11.2546C23.2817 11.2047 23.6484 11.1525 23.8803 11.0978C24.1263 11.0258 24.3129 10.9123 24.4399 10.7573C24.5685 10.6179 24.6367 10.4291 24.6447 10.191C24.6668 9.93559 24.6537 9.56501 24.6054 9.07923C24.5571 8.59346 24.4978 8.23538 24.4274 8.00501C24.3712 7.7574 24.2655 7.57009 24.1105 7.44308C23.957 7.33173 23.7533 7.27285 23.4995 7.26643C23.2441 7.24434 22.8735 7.25744 22.3877 7.30573L21.8236 7.3618L21.4661 3.76551L23.4171 3.5716C24.5766 3.45634 25.5285 3.48041 26.2727 3.64381C27.031 3.78999 27.6216 4.07944 28.0444 4.51216C28.4484 4.9151 28.7466 5.44725 28.9389 6.1086C29.1297 6.75428 29.2757 7.5864 29.3769 8.60496C29.4735 9.5765 29.4911 10.3897 29.4296 11.0447C29.3837 11.6981 29.2102 12.2613 28.9091 12.7343C28.5672 13.2747 28.0412 13.7147 27.3312 14.0543C26.6353 14.3766 25.6997 14.5962 24.5245 14.713L22.5736 14.9069L22.2161 11.3107Z" fill="white"/>
<path d="M32.1029 2.70825L36.804 2.24098L38.4114 18.4125L33.7103 18.8798L32.1029 2.70825Z" fill="white"/>
<path d="M41.1021 2.47841L41.0367 1.82026L45.7377 1.353L56.3504 15.9411L56.4181 16.6227L51.7406 17.0876L41.1021 2.47841ZM50.9312 6.79486L50.3448 0.895075L54.8107 0.451172L56.1565 13.9901L50.9312 6.79486ZM41.2961 4.42933L46.5213 11.6246L47.1101 17.5479L42.6441 17.9918L41.2961 4.42933Z" fill="white"/>
<path d="M17.5243 22.8656L17.9239 22.8259L20.4211 29.0817L18.6854 39.0815L13.9844 39.5489L17.5243 22.8656ZM24.1356 35.6438L20.2102 36.034L20.8376 32.3161L22.718 32.1291L18.9816 22.7208L23.2831 22.2932L30.0384 37.9529L25.2433 38.4296L24.1356 35.6438Z" fill="#2AFFE0"/>
<path d="M34.1424 36.8565C33.9891 36.4287 33.7873 35.8316 33.537 35.0652L32.6453 32.5427L31.6458 29.6512L28.9357 21.7312L33.6132 21.2662L38.5586 37.1059L34.3747 37.5218L34.1424 36.8565ZM37.0966 29.0856L38.0557 20.8246L42.8742 20.3455L48.3367 36.1338L44.3173 36.5334L43.3553 33.7806L42.3534 30.8655C41.9357 29.6885 41.536 28.5335 41.1543 27.4004L41.0133 27.4144L40.567 31.0431L40.4276 32.2676C40.382 32.6044 40.3348 32.9256 40.286 33.2311C40.2529 33.5351 40.2183 33.8234 40.1821 34.096L39.9153 36.1877L39.8044 36.982L39.5458 37.0077L37.0966 29.0856ZM46.5786 28.0005L47.1991 19.9156L51.8767 19.4506L50.3447 30.7832C50.1669 32.0194 50.0489 32.9015 49.9906 33.4295L49.7263 35.3073L49.6295 36.0053L49.3474 36.0333L46.5786 28.0005Z" fill="#2AFFE0"/>
<path d="M57.5427 18.8873L57.9423 18.8476L60.4394 25.1034L58.7037 35.1032L54.0027 35.5705L57.5427 18.8873ZM64.1539 31.6654L60.2285 32.0556L60.8559 28.3377L62.7363 28.1508L59 18.7424L63.3014 18.3148L70.0567 33.9746L65.2617 34.4513L64.1539 31.6654Z" fill="#2AFFE0"/>
<path d="M74.1617 28.1781L73.9034 27.729L73.1731 26.591L72.4617 25.4037C72.3881 25.3002 72.2934 25.1434 72.1775 24.9334L71.0152 23.0313L67.8899 17.8586L72.6849 17.382L78.8651 27.7342L79.3932 33.0464L74.6922 33.5137L74.1617 28.1781ZM76.6144 22.0474L78.3026 16.8235L83.0036 16.3561L81.5488 20.3462L80.932 22.0217L79.2912 26.5288L76.6144 22.0474Z" fill="#2AFFE0"/>
</svg>
