<svg width="78" height="49" viewBox="0 0 78 49" fill="none" xmlns="http://www.w3.org/2000/svg">
<path d="M3.14844 42.8896L3.14844 19.6562C11.3785 21.5589 16.2671 28.577 33.0591 24.6058C43.6079 22.1111 60.8706 20.6988 77.1378 24.6058L73.4645 47.9754C67.5461 45.5196 59.082 42.1947 42.9861 45.7498C23.6178 50.0277 11.3747 45.3608 3.14844 42.8896Z" fill="#F2CC4C" stroke="#F6CA58"/>
<path d="M10.6903 20.671C9.79126 20.671 9.01026 20.4129 8.34725 19.8965C7.68423 19.3689 7.17293 18.6504 6.81333 17.7411C6.45373 16.8206 6.27393 15.7822 6.27393 14.626C6.27393 13.5483 6.43125 12.6053 6.7459 11.797C7.07179 10.9776 7.51005 10.2984 8.06069 9.75957C8.62256 9.2095 9.26872 8.79976 9.99916 8.53034C10.7408 8.2497 11.5218 8.10938 12.3422 8.10938C13.848 8.10938 14.9605 8.32267 15.6797 8.74925C16.4102 9.1646 16.7754 9.70344 16.7754 10.3658C16.7754 10.8821 16.6405 11.3368 16.3708 11.7297C16.1124 12.1226 15.719 12.319 15.1909 12.319C14.8313 12.319 14.4885 12.2854 14.1627 12.218C13.848 12.1507 13.5221 12.0889 13.185 12.0328C12.8591 11.9654 12.4939 11.9318 12.0893 11.9318C11.2016 11.9318 10.561 12.1843 10.1677 12.6895C9.78565 13.1947 9.59461 13.8289 9.59461 14.5923C9.59461 15.2097 9.71822 15.7149 9.96545 16.1078C10.2239 16.5007 10.561 16.7925 10.9768 16.9834C11.4038 17.163 11.8758 17.2528 12.3927 17.2528C12.8198 17.2528 13.2187 17.1574 13.5895 16.9665C13.9604 16.7757 14.1964 16.4221 14.2975 15.9057H13.4715C13.0782 15.9057 12.7748 15.7878 12.5613 15.5521C12.3478 15.3051 12.241 14.9908 12.241 14.6091C12.241 14.2274 12.3478 13.9187 12.5613 13.683C12.7748 13.4472 13.0782 13.3294 13.4715 13.3294H15.4943C16.2247 13.3294 16.736 13.5258 17.0282 13.9187C17.3316 14.3004 17.4833 14.8729 17.4833 15.6363V18.7851C17.4833 19.3689 17.326 19.8123 17.0114 20.1154C16.6967 20.4185 16.2809 20.57 15.764 20.57C15.2134 20.57 14.7807 20.4185 14.4661 20.1154C14.1514 19.8123 13.9941 19.3689 13.9941 18.7851V17.7411H13.6907C13.6907 18.7627 13.4322 19.5092 12.9153 19.9807C12.3984 20.4409 11.7073 20.671 10.842 20.671H10.6903Z" fill="white"/>
<path d="M23.5737 20.6205C22.3713 20.6205 21.3543 20.3567 20.5227 19.8291C19.6912 19.3015 19.0619 18.5718 18.6348 17.6401C18.2078 16.7083 17.9943 15.6363 17.9943 14.4239C17.9943 13.2227 18.2078 12.1563 18.6348 11.2245C19.0619 10.2816 19.6912 9.54628 20.5227 9.01866C21.3543 8.47983 22.3713 8.21041 23.5737 8.21041C24.7761 8.21041 25.7875 8.47983 26.6078 9.01866C27.4394 9.54628 28.0687 10.2816 28.4957 11.2245C28.9228 12.1563 29.1363 13.2227 29.1363 14.4239C29.1363 15.6363 28.9228 16.7083 28.4957 17.6401C28.0687 18.5718 27.4394 19.3015 26.6078 19.8291C25.7875 20.3567 24.7761 20.6205 23.5737 20.6205ZM20.1182 14.1545C20.1182 14.5025 20.2025 14.8336 20.371 15.148C20.5396 15.451 20.8711 15.698 21.3655 15.8889C21.86 16.0685 22.596 16.1583 23.5737 16.1583C24.5514 16.1583 25.2818 16.0685 25.765 15.8889C26.2595 15.698 26.591 15.451 26.7595 15.148C26.9281 14.8336 27.0124 14.5025 27.0124 14.1545C27.0124 13.7952 26.9281 13.4753 26.7595 13.1947C26.591 12.9028 26.2595 12.6727 25.765 12.5043C25.2818 12.3247 24.5514 12.2349 23.5737 12.2349C22.596 12.2349 21.86 12.3247 21.3655 12.5043C20.8711 12.6727 20.5396 12.9028 20.371 13.1947C20.2025 13.4753 20.1182 13.7952 20.1182 14.1545Z" fill="white"/>
<path d="M30.0306 9.94479C30.0306 9.42841 30.1879 9.02989 30.5026 8.74925C30.8284 8.45737 31.2442 8.31144 31.7499 8.31144C32.2781 8.31144 32.6995 8.45737 33.0141 8.74925C33.3288 9.02989 33.4861 9.42841 33.4861 9.94479V17.1181C33.4861 17.3314 33.5423 17.4829 33.6547 17.5727C33.767 17.6513 33.9525 17.6176 34.2109 17.4717C34.7728 17.1461 35.2729 16.8879 35.7111 16.6971C36.1494 16.495 36.6326 16.394 37.1608 16.394C37.8912 16.394 38.4419 16.5849 38.8127 16.9665C39.1835 17.3482 39.3689 17.8478 39.3689 18.4652C39.3689 19.1275 39.1667 19.6383 38.7621 19.9975C38.3688 20.3567 37.7339 20.5363 36.8574 20.5363H33.385C32.6433 20.5363 32.0252 20.4521 31.5308 20.2838C31.0363 20.1041 30.6599 19.7842 30.4014 19.3239C30.1542 18.8637 30.0306 18.1958 30.0306 17.3201V9.94479Z" fill="white"/>
<path d="M44.1257 8.31144C45.463 8.31144 46.553 8.56402 47.3958 9.06918C48.2499 9.56312 48.8792 10.2703 49.2837 11.1909C49.6995 12.1001 49.9074 13.1834 49.9074 14.4407C49.9074 16.5512 49.4523 18.1003 48.542 19.0882C47.6318 20.0761 46.2383 20.57 44.3617 20.57H43.62C43.0694 20.57 42.5581 20.5139 42.0861 20.4016C41.6141 20.2894 41.1983 20.0873 40.8387 19.7954C40.4791 19.4923 40.1982 19.0714 39.9959 18.5325C39.7936 17.9937 39.6925 17.2977 39.6925 16.4445C39.6925 15.6475 39.7993 14.9571 40.0128 14.3734C40.2375 13.7896 40.5016 13.3238 40.805 12.9758C41.1084 12.6278 41.3837 12.4145 41.631 12.3359L41.5467 12.016H41.2601C40.7432 12.016 40.333 11.8532 40.0296 11.5276C39.7375 11.1909 39.5857 10.7418 39.5745 10.1805C39.5633 9.61924 39.7094 9.17021 40.0128 8.83344C40.3274 8.48544 40.7432 8.31144 41.2601 8.31144H44.1257ZM42.912 16.2256C42.912 16.4614 42.9626 16.6241 43.0638 16.714C43.1761 16.8038 43.3391 16.8487 43.5526 16.8487H44.4628C45.0359 16.8487 45.4798 16.7252 45.7945 16.4782C46.1091 16.2312 46.3282 15.9169 46.4519 15.5352C46.5867 15.1423 46.6541 14.727 46.6541 14.2892C46.6541 13.8514 46.5867 13.4304 46.4519 13.0263C46.3282 12.6221 46.1091 12.291 45.7945 12.0328C45.4798 11.7746 45.0359 11.6455 44.4628 11.6455H43.5526C43.3391 11.6455 43.1761 11.696 43.0638 11.797C42.9626 11.8869 42.912 12.0552 42.912 12.3022V16.2256Z" fill="white"/>
<path d="M54.9834 20.5363C54.4327 20.5363 53.9046 20.4858 53.3989 20.3848C52.9044 20.2838 52.4662 20.0929 52.0841 19.8123C51.7132 19.5204 51.4155 19.105 51.1907 18.5662C50.9772 18.0161 50.8704 17.2977 50.8704 16.4109C50.8704 15.6138 50.9772 14.929 51.1907 14.3565C51.4042 13.784 51.6571 13.3294 51.9492 12.9926C52.2527 12.6558 52.528 12.4481 52.7752 12.3696L52.6909 12.0496H52.4044C51.8874 12.0496 51.4773 11.8869 51.1739 11.5613C50.8817 11.2245 50.73 10.7699 50.7187 10.1974C50.7075 9.63608 50.8536 9.18705 51.157 8.85028C51.4716 8.5135 51.8874 8.34512 52.4044 8.34512H58.4558C59.6582 8.34512 60.2594 8.90641 60.2594 10.029C60.2594 10.5341 60.1133 10.9383 59.8211 11.2414C59.5289 11.5445 59.0738 11.696 58.4558 11.696H54.9665C54.5507 11.696 54.3428 11.9374 54.3428 12.4201V13.683C54.9047 13.5595 55.4891 13.4136 56.0959 13.2452C56.7139 13.0768 57.2983 12.9926 57.8489 12.9926C58.3771 12.9926 58.7704 13.1105 59.0289 13.3462C59.2986 13.5707 59.4334 13.8794 59.4334 14.2723C59.4334 14.6765 59.2986 14.9964 59.0289 15.2321C58.7704 15.4567 58.3771 15.5745 57.8489 15.5858C57.2983 15.597 56.7139 15.5184 56.0959 15.35C55.4778 15.1816 54.8878 15.0357 54.326 14.9122V17.1181C54.326 17.3314 54.3822 17.4829 54.4945 17.5727C54.6181 17.6513 54.8092 17.6176 55.0676 17.4717C55.6295 17.1461 56.1802 16.8879 56.7196 16.6971C57.259 16.495 57.7871 16.394 58.304 16.394C59.0345 16.394 59.5851 16.5849 59.956 16.9665C60.338 17.3482 60.5291 17.8478 60.5291 18.4652C60.5291 19.1275 60.3268 19.6383 59.9222 19.9975C59.5289 20.3567 58.8884 20.5363 58.0006 20.5363H54.9834Z" fill="white"/>
<path d="M62.9439 20.57C62.382 20.57 61.955 20.396 61.6628 20.048C61.3706 19.7 61.2245 19.2341 61.2245 18.6504V10.7531C61.2245 10.1693 61.3313 9.69782 61.5448 9.3386C61.7695 8.96815 62.0561 8.69873 62.4045 8.53034C62.7641 8.36196 63.1518 8.27776 63.5675 8.27776C64.1856 8.27776 64.7082 8.44054 65.1352 8.76608C65.5622 9.09163 65.8937 9.66415 66.1297 10.4836L67.9502 16.6971H68.2199V10.2311C68.2199 9.63608 68.3716 9.17021 68.675 8.83344C68.9784 8.48544 69.411 8.31144 69.9729 8.31144C70.5573 8.31144 70.9899 8.48544 71.2709 8.83344C71.563 9.17021 71.7091 9.63608 71.7091 10.2311V17.8421C71.7091 18.7851 71.5012 19.4811 71.0854 19.9301C70.6696 20.3792 70.0853 20.6037 69.3324 20.6037C68.5682 20.6037 67.9726 20.4016 67.5456 19.9975C67.1186 19.5934 66.7927 18.9984 66.568 18.2126L65.3712 14.1208C65.3487 14.0085 65.3037 13.9075 65.2363 13.8177C65.1801 13.7167 65.1015 13.6661 65.0003 13.6661C64.8767 13.6661 64.7924 13.7167 64.7475 13.8177C64.7025 13.9075 64.6801 14.0085 64.6801 14.1208V18.6504C64.6801 19.2341 64.534 19.7 64.2418 20.048C63.9496 20.396 63.517 20.57 62.9439 20.57Z" fill="white"/>
<path d="M10.2928 40.7765C9.70841 40.7765 9.27577 40.6025 8.99483 40.2545C8.71389 39.9065 8.57342 39.4406 8.57342 38.8568V31.01C8.57342 30.1568 8.80379 29.5282 9.26453 29.1241C9.7365 28.7199 10.2984 28.5179 10.9502 28.5179C11.5682 28.5179 12.0908 28.7199 12.5178 29.1241C12.956 29.5282 13.2763 30.1681 13.4786 31.0437L14.7934 36.752H15.2316L16.5464 31.0437C16.7487 30.1681 17.069 29.5282 17.5072 29.1241C17.9567 28.7199 18.4905 28.5179 19.1086 28.5179C19.7604 28.5179 20.3166 28.7199 20.7774 29.1241C21.2493 29.5282 21.4853 30.1568 21.4853 31.01V38.8568C21.4853 39.4406 21.3392 39.9065 21.0471 40.2545C20.7661 40.6025 20.3335 40.7765 19.7491 40.7765C19.1872 40.7765 18.7546 40.6025 18.4512 40.2545C18.1478 39.9065 17.9961 39.4406 17.9961 38.8568V34.3272C17.9961 34.215 17.9792 34.1139 17.9455 34.0241C17.923 33.9231 17.85 33.8726 17.7264 33.8726C17.6252 33.8726 17.5522 33.9231 17.5072 34.0241C17.4623 34.1139 17.4286 34.215 17.4061 34.3272L16.7656 38.5706C16.6869 39.0308 16.5914 39.4294 16.479 39.7661C16.3779 40.0917 16.2149 40.3443 15.9902 40.5239C15.7654 40.6923 15.4395 40.7765 15.0125 40.7765C14.5967 40.7765 14.2708 40.6923 14.0348 40.5239C13.8101 40.3443 13.6415 40.0917 13.5292 39.7661C13.428 39.4294 13.3437 39.0308 13.2763 38.5706L12.6189 34.3272C12.6077 34.215 12.5796 34.1139 12.5346 34.0241C12.4897 33.9231 12.411 33.8726 12.2987 33.8726C12.1863 33.8726 12.1132 33.9231 12.0795 34.0241C12.0458 34.1139 12.029 34.215 12.029 34.3272V38.8568C12.029 39.4406 11.8772 39.9065 11.5738 40.2545C11.2817 40.6025 10.8546 40.7765 10.2928 40.7765Z" fill="#1A1C20"/>
<path d="M24.3185 40.8101C23.8016 40.8101 23.3801 40.653 23.0543 40.3386C22.7284 40.0243 22.5654 39.6258 22.5654 39.1431V30.2354C22.5654 29.7415 22.7228 29.3261 23.0374 28.9894C23.3633 28.6526 23.7903 28.4842 24.3185 28.4842C24.8804 28.4842 25.3186 28.6526 25.6333 28.9894C25.9592 29.3149 26.1221 29.719 26.1221 30.2017V39.1431C26.1221 39.6258 25.9479 40.0243 25.5996 40.3386C25.2624 40.653 24.8354 40.8101 24.3185 40.8101Z" fill="#1A1C20"/>
<path d="M32.3992 40.827C31.7699 40.827 31.135 40.7652 30.4945 40.6417C29.8652 40.507 29.2808 40.3162 28.7414 40.0692C28.2132 39.811 27.7862 39.5023 27.4603 39.1431C27.1344 38.7726 26.9715 38.3461 26.9715 37.8634C26.9715 37.2459 27.1682 36.752 27.5615 36.3816C27.9548 36.0111 28.4155 35.8371 28.9437 35.8596C29.3595 35.8708 29.7753 35.9606 30.191 36.129C30.6068 36.2861 31.0282 36.4433 31.4553 36.6005C31.8935 36.7576 32.3318 36.8362 32.77 36.8362C33.2083 36.8362 33.5117 36.7801 33.6803 36.6678C33.8488 36.5555 33.9331 36.404 33.9331 36.2132C33.9331 35.9886 33.8151 35.8034 33.5791 35.6575C33.3432 35.5116 33.0454 35.3993 32.6858 35.3207L31.8598 35.1186C31.0058 34.9166 30.2416 34.6921 29.5674 34.4451C28.8931 34.1869 28.3593 33.8501 27.966 33.4348C27.5839 33.0082 27.3929 32.4413 27.3929 31.7341C27.3929 30.9595 27.6064 30.3308 28.0334 29.8481C28.4605 29.3542 29.0392 28.995 29.7696 28.7705C30.5001 28.5459 31.3148 28.4337 32.2138 28.4337C33.1353 28.4337 33.9444 28.5291 34.6411 28.7199C35.3378 28.9108 35.8772 29.1858 36.2593 29.545C36.6526 29.9043 36.8493 30.3421 36.8493 30.8585C36.8493 31.4085 36.6976 31.8407 36.3941 32.155C36.102 32.4581 35.7087 32.6097 35.2142 32.6097C34.8883 32.6097 34.5456 32.5536 34.186 32.4413C33.8376 32.329 33.4668 32.2224 33.0735 32.1214C32.6914 32.0091 32.2812 31.953 31.843 31.953C31.4496 31.953 31.1518 32.0147 30.9496 32.1382C30.7473 32.2505 30.6462 32.402 30.6462 32.5928C30.6462 32.8286 30.781 33.0026 31.0507 33.1148C31.3204 33.2271 31.7643 33.3618 32.3824 33.519L33.3263 33.7379C34.1017 33.9287 34.7816 34.1588 35.3659 34.4283C35.9503 34.6977 36.4054 35.0513 36.7313 35.4891C37.0572 35.9269 37.2201 36.4994 37.2201 37.2066C37.2201 38.0598 37.0178 38.7558 36.6133 39.2946C36.2087 39.8223 35.6468 40.2095 34.9276 40.4565C34.2084 40.7035 33.3656 40.827 32.3992 40.827Z" fill="#1A1C20"/>
<path d="M39.4079 32.2561C38.846 32.2561 38.3852 32.0933 38.0256 31.7677C37.6773 31.4422 37.5031 30.9932 37.5031 30.4207C37.5031 29.8594 37.6604 29.4103 37.9751 29.0736C38.301 28.7256 38.7786 28.5516 39.4079 28.5516H46.6729C47.3022 28.5516 47.7742 28.7256 48.0888 29.0736C48.4147 29.4103 48.5777 29.8594 48.5777 30.4207C48.5777 30.9932 48.3979 31.4422 48.0383 31.7677C47.6899 32.0933 47.2348 32.2561 46.6729 32.2561C46.2908 32.2561 45.9818 32.2168 45.7458 32.1382C45.5211 32.0484 45.3356 31.9474 45.1896 31.8351C45.0435 31.7116 44.903 31.6106 44.7681 31.532C44.6333 31.4422 44.4647 31.3973 44.2625 31.3973L44.1108 31.7004C44.1557 31.8014 44.2344 31.9474 44.3467 32.1382C44.4591 32.3178 44.5659 32.5816 44.667 32.9296C44.7681 33.2664 44.8187 33.7266 44.8187 34.3104V39.1768C44.8187 39.637 44.6445 40.0187 44.2962 40.3218C43.959 40.6249 43.5433 40.7765 43.0488 40.7765C42.5431 40.7765 42.1161 40.6249 41.7677 40.3218C41.4306 40.0187 41.262 39.637 41.262 39.1768V34.3104C41.262 33.7266 41.3126 33.2664 41.4138 32.9296C41.5149 32.5816 41.6216 32.3178 41.734 32.1382C41.8576 31.9474 41.9419 31.8014 41.9869 31.7004L41.8183 31.3973C41.616 31.3973 41.4475 31.4422 41.3126 31.532C41.1778 31.6106 41.0373 31.7116 40.8912 31.8351C40.7451 31.9474 40.5597 32.0484 40.335 32.1382C40.1102 32.2168 39.8012 32.2561 39.4079 32.2561Z" fill="#1A1C20"/>
<path d="M53.3784 40.7428C52.8278 40.7428 52.2996 40.6923 51.7939 40.5912C51.2995 40.4902 50.8612 40.2994 50.4791 40.0187C50.1083 39.7268 49.8105 39.3115 49.5857 38.7726C49.3722 38.2226 49.2655 37.5041 49.2655 36.6173C49.2655 35.8203 49.3722 35.1355 49.5857 34.563C49.7993 33.9905 50.0521 33.5358 50.3443 33.199C50.6477 32.8623 50.923 32.6546 51.1702 32.576L51.0859 32.2561H50.7994C50.2825 32.2561 49.8723 32.0933 49.5689 31.7677C49.2767 31.431 49.125 30.9763 49.1138 30.4038C49.1025 29.8425 49.2486 29.3935 49.552 29.0567C49.8667 28.7199 50.2825 28.5516 50.7994 28.5516H56.8508C58.0532 28.5516 58.6544 29.1128 58.6544 30.2354C58.6544 30.7406 58.5083 31.1447 58.2161 31.4478C57.924 31.7509 57.4689 31.9025 56.8508 31.9025H53.3615C52.9458 31.9025 52.7379 32.1438 52.7379 32.6265V33.8894C53.2997 33.7659 53.8841 33.62 54.4909 33.4516C55.109 33.2832 55.6933 33.199 56.244 33.199C56.7721 33.199 57.1654 33.3169 57.4239 33.5526C57.6936 33.7772 57.8284 34.0859 57.8284 34.4788C57.8284 34.8829 57.6936 35.2028 57.4239 35.4386C57.1654 35.6631 56.7721 35.781 56.244 35.7922C55.6933 35.8034 55.109 35.7248 54.4909 35.5565C53.8728 35.3881 53.2829 35.2421 52.721 35.1186V37.3245C52.721 37.5378 52.7772 37.6894 52.8896 37.7792C53.0132 37.8577 53.2042 37.8241 53.4627 37.6781C54.0246 37.3526 54.5752 37.0944 55.1146 36.9036C55.654 36.7015 56.1822 36.6005 56.6991 36.6005C57.4295 36.6005 57.9802 36.7913 58.351 37.173C58.7331 37.5546 58.9241 38.0542 58.9241 38.6716C58.9241 39.3339 58.7218 39.8447 58.3173 40.2039C57.924 40.5632 57.2834 40.7428 56.3957 40.7428H53.3784Z" fill="#1A1C20"/>
<path d="M67.9932 40.7765C67.4313 40.7765 66.9874 40.6081 66.6615 40.2713C66.3356 39.9233 66.1614 39.4743 66.139 38.9242C66.094 37.97 65.8524 37.2965 65.4142 36.9036C64.9871 36.4994 64.414 36.2974 63.6948 36.2974H63.3577V38.9915C63.3577 39.5753 63.2004 40.0187 62.8857 40.3218C62.5711 40.6249 62.1553 40.7765 61.6384 40.7765C61.0877 40.7765 60.6551 40.6249 60.3404 40.3218C60.0258 40.0187 59.8685 39.5753 59.8685 38.9915V36.6173C59.8685 35.4274 60.0426 34.5237 60.391 33.9063C60.7506 33.2888 61.2057 32.8454 61.7564 32.576L61.6721 32.2561H61.4024C60.8854 32.2561 60.4753 32.0933 60.1719 31.7677C59.8797 31.431 59.7224 30.9763 59.6999 30.4038C59.6887 29.8425 59.8404 29.3879 60.155 29.0399C60.4697 28.6919 60.8854 28.5179 61.4024 28.5179H65.7007C66.9031 28.5179 67.8752 28.8097 68.6168 29.3935C69.3585 29.9772 69.7294 30.909 69.7294 32.1887C69.7294 32.851 69.617 33.4067 69.3922 33.8557C69.1675 34.2936 68.8809 34.6303 68.5326 34.8661C68.1842 35.1018 67.819 35.2421 67.4369 35.287V35.5059C68.1336 35.6743 68.7067 36.0448 69.1562 36.6173C69.617 37.1898 69.8474 37.9588 69.8474 38.9242C69.8474 39.5416 69.6788 40.0075 69.3417 40.3218C69.0158 40.6249 68.5663 40.7765 67.9932 40.7765ZM63.2734 33.721C63.2734 33.968 63.3184 34.1308 63.4083 34.2094C63.4982 34.2879 63.6667 34.3272 63.914 34.3272H65.4984C65.9704 34.3272 66.3132 34.2206 66.5267 34.0073C66.7402 33.794 66.8469 33.4965 66.8469 33.1148C66.8469 32.7219 66.7402 32.4188 66.5267 32.2056C66.3132 31.9923 65.9704 31.8856 65.4984 31.8856H63.914C63.6667 31.8856 63.4982 31.9193 63.4083 31.9867C63.3184 32.054 63.2734 32.2168 63.2734 32.475V33.721Z" fill="#1A1C20"/>
<path d="M3.81848 3.70946C5.88829 3.05196 6.00038 0.591517 8.72822 0.0717569C10.9101 -0.343928 12.2211 1.11801 12.5467 2.66994C12.8194 3.96904 12.0014 7.34656 7.63696 7.34656C2.1819 7.34656 0.363964 3.96904 0 2.66994C0.545317 3.1897 2.1819 4.22922 3.81848 3.70946Z" fill="white"/>
<path d="M19.9525 3.70937C17.8821 3.05186 17.7707 0.59142 15.0428 0.0716605C12.8609 -0.344025 11.5499 1.11791 11.2243 2.66985C10.9517 3.96894 11.7696 7.34646 16.1341 7.34646C21.5891 7.34646 23.4071 3.96894 23.771 2.66985C23.2257 3.18961 21.5891 4.22913 19.9525 3.70937Z" fill="white"/>
</svg>
