<svg width="185" height="28" viewBox="0 0 185 28" fill="none" xmlns="http://www.w3.org/2000/svg">
<path d="M126.697 4.8411C127.128 2.33307 129.303 0.5 131.847 0.5H178.443C181.683 0.5 184.142 3.41753 183.594 6.61051L180.751 23.1589C180.32 25.6669 178.146 27.5 175.601 27.5H129.005C125.765 27.5 123.306 24.5825 123.854 21.3895L126.697 4.8411Z" fill="#FAC900"/>
<path d="M19.1195 9.44708C18.9151 10.5991 18.4413 11.5746 17.6981 12.3735C16.9548 13.1539 16.063 13.6742 15.0225 13.9343C15.9886 14.1759 16.7226 14.6404 17.2243 15.3279C17.7445 15.9968 18.0046 16.7864 18.0046 17.6969C18.0046 17.9942 17.9768 18.3101 17.921 18.6445C17.6237 20.3725 16.8155 21.7103 15.4963 22.6579C14.1956 23.587 12.4769 24.0515 10.3401 24.0515H0L3.48387 4.31883H13.5453C15.329 4.31883 16.7133 4.67186 17.6981 5.37792C18.7014 6.06541 19.2031 7.07805 19.2031 8.41586C19.2031 8.73173 19.1752 9.07547 19.1195 9.44708ZM12.5977 10.6455C12.6163 10.5526 12.6255 10.4319 12.6255 10.2832C12.6255 9.9116 12.5048 9.64218 12.2632 9.47496C12.0403 9.30773 11.6872 9.22412 11.2041 9.22412H8.80723L8.30555 12.0112H10.7025C11.2599 12.0112 11.6965 11.8997 12.0124 11.6768C12.3283 11.4538 12.5234 11.1101 12.5977 10.6455ZM11.7615 17.7248C11.7801 17.6319 11.7894 17.5111 11.7894 17.3624C11.7894 16.6564 11.3156 16.3033 10.368 16.3033H7.55303L7.07923 19.0904H9.89419C10.4516 19.0904 10.879 18.9882 11.1763 18.7839C11.4921 18.5609 11.6872 18.2079 11.7615 17.7248Z" fill="white"/>
<path d="M28.5843 4.31883L26.6333 15.4393C26.5776 15.7366 26.5497 16.0432 26.5497 16.3591C26.5497 16.9908 26.7169 17.4925 27.0514 17.8641C27.3858 18.2171 27.9154 18.3937 28.64 18.3937C29.5319 18.3937 30.238 18.1335 30.7582 17.6133C31.2785 17.0744 31.6222 16.3498 31.7895 15.4393L33.7404 4.31883H39.8999L37.9489 15.4393C37.6145 17.3717 36.9456 18.9975 35.9422 20.3168C34.9575 21.636 33.7404 22.6208 32.2911 23.2711C30.8604 23.9214 29.2811 24.2466 27.5531 24.2466C25.342 24.2466 23.5768 23.6706 22.2576 22.5186C20.9384 21.348 20.2787 19.685 20.2787 17.5297C20.2787 16.8422 20.3438 16.1454 20.4738 15.4393L22.4248 4.31883H28.5843Z" fill="white"/>
<path d="M58.2042 9.44708C57.9998 10.5991 57.526 11.5746 56.7827 12.3735C56.0395 13.1539 55.1476 13.6742 54.1071 13.9343C55.0733 14.1759 55.8073 14.6404 56.3089 15.3279C56.8292 15.9968 57.0893 16.7864 57.0893 17.6969C57.0893 17.9942 57.0615 18.3101 57.0057 18.6445C56.7084 20.3725 55.9002 21.7103 54.5809 22.6579C53.2803 23.587 51.5616 24.0515 49.4248 24.0515H39.0847L42.5686 4.31883H52.63C54.4137 4.31883 55.798 4.67186 56.7827 5.37792C57.7861 6.06541 58.2878 7.07805 58.2878 8.41586C58.2878 8.73173 58.2599 9.07547 58.2042 9.44708ZM51.6824 10.6455C51.7009 10.5526 51.7102 10.4319 51.7102 10.2832C51.7102 9.9116 51.5895 9.64218 51.3479 9.47496C51.1249 9.30773 50.7719 9.22412 50.2888 9.22412H47.8919L47.3902 12.0112H49.7871C50.3446 12.0112 50.7812 11.8997 51.0971 11.6768C51.4129 11.4538 51.608 11.1101 51.6824 10.6455ZM50.8462 17.7248C50.8648 17.6319 50.8741 17.5111 50.8741 17.3624C50.8741 16.6564 50.4003 16.3033 49.4527 16.3033H46.6377L46.1639 19.0904H48.9789C49.5363 19.0904 49.9636 18.9882 50.2609 18.7839C50.5768 18.5609 50.7719 18.2079 50.8462 17.7248Z" fill="#FAC900"/>
<path d="M77.2566 9.44708C77.0522 10.5991 76.5784 11.5746 75.8352 12.3735C75.0919 13.1539 74.2001 13.6742 73.1595 13.9343C74.1257 14.1759 74.8597 14.6404 75.3614 15.3279C75.8816 15.9968 76.1417 16.7864 76.1417 17.6969C76.1417 17.9942 76.1139 18.3101 76.0581 18.6445C75.7608 20.3725 74.9526 21.7103 73.6334 22.6579C72.3327 23.587 70.614 24.0515 68.4772 24.0515H58.1371L61.621 4.31883H71.6824C73.4661 4.31883 74.8504 4.67186 75.8352 5.37792C76.8385 6.06541 77.3402 7.07805 77.3402 8.41586C77.3402 8.73173 77.3123 9.07547 77.2566 9.44708ZM70.7348 10.6455C70.7534 10.5526 70.7626 10.4319 70.7626 10.2832C70.7626 9.9116 70.6419 9.64218 70.4003 9.47496C70.1774 9.30773 69.8243 9.22412 69.3412 9.22412H66.9443L66.4426 12.0112H68.8396C69.397 12.0112 69.8336 11.8997 70.1495 11.6768C70.4654 11.4538 70.6605 11.1101 70.7348 10.6455ZM69.8986 17.7248C69.9172 17.6319 69.9265 17.5111 69.9265 17.3624C69.9265 16.6564 69.4527 16.3033 68.5051 16.3033H65.6901L65.2163 19.0904H68.0313C68.5887 19.0904 69.0161 18.9882 69.3134 18.7839C69.6292 18.5609 69.8243 18.2079 69.8986 17.7248Z" fill="#FAC900"/>
<path d="M84.213 19.3692H90.1774L89.3413 24.0515H77.1895L80.6734 4.31883H86.8607L84.213 19.3692Z" fill="white"/>
<path d="M100.096 9.22412L99.6775 11.6768H105.809L104.973 16.3312H98.8413L98.3397 19.1183H105.307L104.443 24.0515H91.2883L94.7722 4.31883H107.927L107.063 9.22412H100.096Z" fill="white"/>
<path d="M115.248 24.2466C112.832 24.2466 110.9 23.7635 109.451 22.7973C108.02 21.8311 107.305 20.419 107.305 18.5609C107.305 18.3751 107.323 18.0964 107.36 17.7248H113.938C113.882 18.3008 113.966 18.7281 114.189 19.0068C114.43 19.2855 114.821 19.4249 115.359 19.4249C115.694 19.4249 115.973 19.3413 116.196 19.1741C116.419 19.0068 116.53 18.7653 116.53 18.4494C116.53 18.0035 116.307 17.6319 115.861 17.3346C115.434 17.0373 114.737 16.6842 113.771 16.2755C112.712 15.8295 111.838 15.4022 111.151 14.9934C110.482 14.5846 109.897 14.0272 109.395 13.3211C108.893 12.6151 108.643 11.7325 108.643 10.6734C108.643 9.27986 108.986 8.08141 109.674 7.07805C110.38 6.05612 111.355 5.28502 112.6 4.76476C113.845 4.2445 115.267 3.98438 116.864 3.98438C118.295 3.98438 119.568 4.20734 120.683 4.65328C121.816 5.09921 122.699 5.74954 123.331 6.60425C123.981 7.44037 124.306 8.43444 124.306 9.58644C124.306 9.73508 124.287 9.99521 124.25 10.3668H117.589C117.626 10.1439 117.645 9.99521 117.645 9.92089C117.645 9.56786 117.543 9.29844 117.338 9.11263C117.134 8.90825 116.855 8.80605 116.502 8.80605C116.186 8.80605 115.926 8.89896 115.722 9.08476C115.517 9.27057 115.415 9.51212 115.415 9.80941C115.415 10.2182 115.629 10.5805 116.056 10.8964C116.484 11.1937 117.162 11.5653 118.091 12.0112C119.15 12.5129 120.023 12.9867 120.711 13.4326C121.417 13.8786 122.021 14.4731 122.522 15.2164C123.024 15.941 123.275 16.8329 123.275 17.892C123.275 19.0997 122.95 20.1867 122.299 21.1529C121.668 22.1191 120.748 22.8809 119.54 23.4383C118.332 23.9771 116.902 24.2466 115.248 24.2466Z" fill="white"/>
<path d="M146.284 9.11263C146.079 10.2646 145.605 11.2401 144.862 12.0391C144.119 12.8195 143.227 13.3397 142.187 13.5999C143.153 13.8414 143.887 14.3059 144.388 14.9934C144.909 15.6623 145.169 16.452 145.169 17.3624C145.169 17.6597 145.141 17.9756 145.085 18.3101C144.788 20.0381 143.98 21.3759 142.66 22.3235C141.36 23.2525 139.641 23.717 137.504 23.717H127.164L130.648 3.98438H140.709C142.493 3.98438 143.877 4.33741 144.862 5.04347C145.865 5.73096 146.367 6.7436 146.367 8.08141C146.367 8.39728 146.339 8.74102 146.284 9.11263ZM139.762 10.3111C139.78 10.2182 139.79 10.0974 139.79 9.94876C139.79 9.57715 139.669 9.30773 139.427 9.1405C139.204 8.97328 138.851 8.88967 138.368 8.88967H135.971L135.47 11.6768H137.867C138.424 11.6768 138.861 11.5653 139.176 11.3423C139.492 11.1193 139.687 10.7756 139.762 10.3111ZM138.926 17.3903C138.944 17.2974 138.953 17.1766 138.953 17.028C138.953 16.3219 138.48 15.9689 137.532 15.9689H134.717L134.243 18.756H137.058C137.616 18.756 138.043 18.6538 138.34 18.4494C138.656 18.2264 138.851 17.8734 138.926 17.3903Z" fill="#181C71"/>
<path d="M155.024 8.88967L154.606 11.3423H160.737L159.901 15.9968H153.77L153.268 18.7839H160.236L159.372 23.717H146.216L149.7 3.98438H162.855L161.991 8.88967H155.024Z" fill="#181C71"/>
<path d="M180.684 3.98438L179.82 8.88967H174.58L171.96 23.717H165.773L168.392 8.88967H163.208L164.072 3.98438H180.684Z" fill="#181C71"/>
</svg>
