<svg width="191" height="50" viewBox="0 0 191 50" fill="none" xmlns="http://www.w3.org/2000/svg">
<path d="M61.2832 31.7338V27.6634L62.765 27.4289V21.6329L61.2832 21.3984V17.328H69.7335C70.7401 17.328 71.6905 17.3749 72.5846 17.4687C73.485 17.5625 74.279 17.7563 74.9668 18.0502C75.6546 18.344 76.1923 18.7848 76.58 19.3726C76.9739 19.9603 77.1708 20.7513 77.1708 21.7454C77.1708 22.577 77.0176 23.2679 76.7113 23.8181C76.4049 24.3621 75.9797 24.7966 75.4357 25.1218C74.898 25.4406 74.2728 25.6782 73.56 25.8345C72.8535 25.9846 72.0907 26.0846 71.2716 26.1347C70.4525 26.1784 69.6178 26.2003 68.7675 26.2003V27.4289L70.2493 27.6634V31.7338H61.2832ZM68.7675 23.6212C69.5115 23.6212 70.0961 23.5149 70.5213 23.3023C70.9527 23.0897 71.1684 22.6083 71.1684 21.858C71.1684 21.364 71.0684 20.9951 70.8683 20.7513C70.6745 20.5012 70.3994 20.3355 70.043 20.2542C69.6866 20.1729 69.2614 20.1323 68.7675 20.1323V23.6212Z" fill="white"/>
<path d="M78.1274 31.7338V27.6634L79.6093 27.4289V21.6329L78.1274 21.3984V17.328H86.9998V21.3984L85.6117 21.6329V28.1323C86.2182 28.1323 86.7403 28.0104 87.1779 27.7666C87.6156 27.5165 87.9845 27.2382 88.2846 26.9319H89.8509V31.7338H78.1274Z" fill="white"/>
<path d="M91.2858 31.7338V27.0069L92.4394 26.7724L95.2062 17.328H102.953L105.729 26.7724L106.883 27.0069V31.7338H101.546L101.04 29.3141H97.1194L96.6224 31.7338H91.2858ZM97.926 26.0972H100.233L99.0796 20.6669L97.926 26.0972Z" fill="white"/>
<path d="M111.516 31.7338V27.6822L112.716 27.382L108.599 21.6235L106.892 21.3984V17.328H115.089V21.3984L114.151 21.6235L116.055 24.5684L117.959 21.6235L117.021 21.3984V17.328H125.303V21.3984L123.511 21.6235L119.394 27.382L120.594 27.6822V31.7338H111.516Z" fill="white"/>
<path d="M126.512 31.7338V27.6634L127.976 27.4289V21.6329L126.512 21.3984V17.328H133.978L138.78 24.7091V21.6516L137.579 21.3984V17.328H143.844V21.3984L142.381 21.6329V31.7338H136.37L131.577 24.7091V27.4289L132.777 27.654V31.7338H126.512Z" fill="white"/>
<path d="M153.598 31.9026C151.866 31.9026 150.372 31.6369 149.115 31.1054C147.858 30.5677 146.892 29.7424 146.217 28.6294C145.542 27.5165 145.204 26.094 145.204 24.3621C145.204 22.6927 145.554 21.3234 146.255 20.2542C146.961 19.185 147.946 18.3941 149.209 17.8814C150.472 17.3687 151.935 17.1123 153.598 17.1123C155.268 17.1123 156.734 17.3687 157.997 17.8814C159.26 18.3941 160.245 19.185 160.951 20.2542C161.658 21.3234 162.011 22.6927 162.011 24.3621C162.011 26.0815 161.667 27.5008 160.979 28.62C160.292 29.733 159.316 30.5583 158.053 31.096C156.796 31.6337 155.311 31.9026 153.598 31.9026ZM153.598 27.3727C154.524 27.3727 155.155 27.0976 155.493 26.5473C155.837 25.9971 156.009 25.2687 156.009 24.3621C156.009 23.4492 155.837 22.7271 155.493 22.1956C155.149 21.6641 154.517 21.3984 153.598 21.3984C152.679 21.3984 152.051 21.6641 151.713 22.1956C151.376 22.7271 151.207 23.4492 151.207 24.3621C151.207 25.2687 151.372 25.9971 151.704 26.5473C152.041 27.0976 152.673 27.3727 153.598 27.3727Z" fill="white"/>
<path d="M168.501 31.7432L164.665 21.6235L162.958 21.3984V17.328H172.346V21.3984L171.315 21.6235L172.937 26.96L174.56 21.6235L173.528 21.3984V17.328H182.635V21.3984L181.603 21.6235L183.226 26.96L184.848 21.6235L183.817 21.3984V17.328H191.001V21.3984L189.303 21.6235L185.467 31.7432H178.79L176.98 26.2285L175.179 31.7432H168.501Z" fill="white"/>
<g clip-path="url(#clip0_8437_34008)">
<path d="M46.8486 18.776L30.4956 2.42213C27.2647 -0.808679 22.0076 -0.808679 18.7768 2.42213L2.42372 18.776C-0.807906 22.0076 -0.807906 27.2648 2.42372 30.4956L18.7768 46.8486C22.0084 50.0803 27.2656 50.0803 30.4964 46.8486L46.8494 30.4956C50.0802 27.2648 50.0802 22.0076 46.8494 18.776H46.8486ZM27.0617 43.414C25.7241 44.7516 23.5474 44.7508 22.2098 43.414L5.85757 27.0609C5.77148 26.9748 5.69189 26.8855 5.61636 26.7937C4.52561 25.448 4.60602 23.4622 5.85838 22.2098L22.2114 5.8568C23.5483 4.51997 25.7249 4.51915 27.0617 5.8568L43.4147 22.2098C44.7524 23.5467 44.7524 25.7233 43.4147 27.0609L27.0617 43.414Z" fill="url(#paint0_linear_8437_34008)"/>
<path style="mix-blend-mode:multiply" d="M5.85807 22.2101L6.80019 21.268L9.97496 18.0932L15.9761 12.0921L12.5422 8.6582L3.36552 17.8333C1.50565 19.6932 2.3032 23.5071 5.14661 26.3505C5.30011 26.504 5.45604 26.6518 5.61604 26.7931C4.5253 25.4474 4.6057 23.4616 5.85807 22.2093V22.2101Z" fill="url(#paint1_linear_8437_34008)"/>
<path style="mix-blend-mode:multiply" d="M43.4149 27.0624L42.4728 28.0045L39.298 31.1793L33.2969 37.1804L36.7307 40.6143L45.9066 31.4384C47.7665 29.5785 46.9689 25.7646 44.1255 22.9211C43.972 22.7676 43.8161 22.6198 43.6561 22.4785C44.7468 23.8243 44.6664 25.81 43.4141 27.0624H43.4149Z" fill="url(#paint2_linear_8437_34008)"/>
<path style="mix-blend-mode:multiply" d="M27.0624 5.85823L28.0045 6.80035L31.1793 9.97512L37.1804 15.9762L40.6143 12.5424L31.4384 3.3665C29.5785 1.50663 25.7646 2.30418 22.9211 5.14758C22.7676 5.30108 22.6198 5.45702 22.4785 5.61702C23.8243 4.52627 25.81 4.60668 27.0624 5.85905V5.85823Z" fill="url(#paint3_linear_8437_34008)"/>
<path style="mix-blend-mode:multiply" d="M22.2101 43.4149L21.268 42.4728L18.0932 39.298L12.0921 33.2969L8.6582 36.7307L17.8341 45.9066C19.694 47.7665 23.5079 46.9689 26.3513 44.1255C26.5048 43.972 26.6526 43.8161 26.794 43.6561C25.4482 44.7468 23.4624 44.6664 22.2101 43.4141V43.4149Z" fill="url(#paint4_linear_8437_34008)"/>
<path d="M26.3722 17.1916C27.8161 17.1916 28.9866 16.0211 28.9866 14.5773C28.9866 13.1334 27.8161 11.9629 26.3722 11.9629C24.9283 11.9629 23.7578 13.1334 23.7578 14.5773C23.7578 16.0211 24.9283 17.1916 26.3722 17.1916Z" fill="url(#paint5_linear_8437_34008)"/>
<path d="M20.5362 23.0266C21.9801 23.0266 23.1506 21.8561 23.1506 20.4122C23.1506 18.9683 21.9801 17.7979 20.5362 17.7979C19.0924 17.7979 17.9219 18.9683 17.9219 20.4122C17.9219 21.8561 19.0924 23.0266 20.5362 23.0266Z" fill="url(#paint6_linear_8437_34008)"/>
<path d="M14.7023 28.8606C16.1461 28.8606 17.3166 27.6901 17.3166 26.2462C17.3166 24.8023 16.1461 23.6318 14.7023 23.6318C13.2584 23.6318 12.0879 24.8023 12.0879 26.2462C12.0879 27.6901 13.2584 28.8606 14.7023 28.8606Z" fill="url(#paint7_linear_8437_34008)"/>
<path d="M34.6886 25.509C36.1325 25.509 37.303 24.3385 37.303 22.8946C37.303 21.4508 36.1325 20.2803 34.6886 20.2803C33.2447 20.2803 32.0742 21.4508 32.0742 22.8946C32.0742 24.3385 33.2447 25.509 34.6886 25.509Z" fill="url(#paint8_linear_8437_34008)"/>
<path d="M28.8546 31.343C30.2985 31.343 31.469 30.1725 31.469 28.7286C31.469 27.2848 30.2985 26.1143 28.8546 26.1143C27.4107 26.1143 26.2402 27.2848 26.2402 28.7286C26.2402 30.1725 27.4107 31.343 28.8546 31.343Z" fill="url(#paint9_linear_8437_34008)"/>
<path d="M23.0206 37.177C24.4645 37.177 25.635 36.0065 25.635 34.5626C25.635 33.1187 24.4645 31.9482 23.0206 31.9482C21.5767 31.9482 20.4062 33.1187 20.4062 34.5626C20.4062 36.0065 21.5767 37.177 23.0206 37.177Z" fill="url(#paint10_linear_8437_34008)"/>
</g>
<defs>
<linearGradient id="paint0_linear_8437_34008" x1="24.6362" y1="-2.45967" x2="24.6362" y2="36.3463" gradientUnits="userSpaceOnUse">
<stop stop-color="#FF4D4D"/>
<stop offset="1" stop-color="#F70808"/>
</linearGradient>
<linearGradient id="paint1_linear_8437_34008" x1="1.34038" y1="25.4637" x2="12.6229" y2="14.1812" gradientUnits="userSpaceOnUse">
<stop stop-color="#AF0808"/>
<stop offset="1" stop-color="white"/>
</linearGradient>
<linearGradient id="paint2_linear_8437_34008" x1="47.9323" y1="23.8082" x2="36.6497" y2="35.0907" gradientUnits="userSpaceOnUse">
<stop stop-color="#AF0808"/>
<stop offset="1" stop-color="white"/>
</linearGradient>
<linearGradient id="paint3_linear_8437_34008" x1="23.808" y1="1.34173" x2="35.0905" y2="12.6242" gradientUnits="userSpaceOnUse">
<stop stop-color="#AF0808"/>
<stop offset="1" stop-color="white"/>
</linearGradient>
<linearGradient id="paint4_linear_8437_34008" x1="25.4641" y1="47.9321" x2="14.1816" y2="36.6495" gradientUnits="userSpaceOnUse">
<stop stop-color="#AF0808"/>
<stop offset="1" stop-color="white"/>
</linearGradient>
<linearGradient id="paint5_linear_8437_34008" x1="42.3849" y1="30.59" x2="24.6739" y2="12.879" gradientUnits="userSpaceOnUse">
<stop stop-color="#FF4D4D"/>
<stop offset="1" stop-color="#F70808"/>
</linearGradient>
<linearGradient id="paint6_linear_8437_34008" x1="36.549" y1="36.425" x2="18.838" y2="18.714" gradientUnits="userSpaceOnUse">
<stop stop-color="#FF4D4D"/>
<stop offset="1" stop-color="#F70808"/>
</linearGradient>
<linearGradient id="paint7_linear_8437_34008" x1="30.715" y1="42.2598" x2="13.004" y2="24.548" gradientUnits="userSpaceOnUse">
<stop stop-color="#FF4D4D"/>
<stop offset="1" stop-color="#F70808"/>
</linearGradient>
<linearGradient id="paint8_linear_8437_34008" x1="42.3847" y1="30.59" x2="24.6737" y2="12.879" gradientUnits="userSpaceOnUse">
<stop stop-color="#FF4D4D"/>
<stop offset="1" stop-color="#F70808"/>
</linearGradient>
<linearGradient id="paint9_linear_8437_34008" x1="36.5499" y1="36.4248" x2="18.8389" y2="18.7138" gradientUnits="userSpaceOnUse">
<stop stop-color="#FF4D4D"/>
<stop offset="1" stop-color="#F70808"/>
</linearGradient>
<linearGradient id="paint10_linear_8437_34008" x1="30.7159" y1="42.2587" x2="13.0049" y2="24.5469" gradientUnits="userSpaceOnUse">
<stop stop-color="#FF4D4D"/>
<stop offset="1" stop-color="#F70808"/>
</linearGradient>
<clipPath id="clip0_8437_34008">
<rect width="49.2719" height="49.2719" fill="white"/>
</clipPath>
</defs>
</svg>
