<svg width="178" height="44" viewBox="0 0 178 44" fill="none" xmlns="http://www.w3.org/2000/svg">
<rect x="26.1406" y="22.2266" width="18.2048" height="13.0701" fill="#00041A"/>
<path d="M11.7108 28.072L12.3681 42.83L0 42.352L1.43398 1.30441L21.6889 1.42391L22.7047 13.314L11.0536 13.1347L11.1133 18.8706L18.0442 18.7511V28.55L11.7108 28.072Z" fill="#00041A"/>
<path d="M37.2974 14.1505L47.873 14.3297L46.0208 43.2483L37.1779 42.6508V41.5155C31.9599 41.4359 28.0961 40.5197 25.5866 38.7671C22.639 36.7356 21.0855 33.3498 20.9262 28.6097C20.8864 24.268 23.2763 20.7627 28.0961 18.0939C30.725 16.6201 33.7922 15.5446 37.2974 14.8675V14.1505ZM37.2377 31.7764V25.3235C33.5332 26.1202 31.6412 27.2753 31.5615 28.789C31.6412 29.7848 31.9798 30.5217 32.5773 30.9997C33.5332 31.7964 35.0867 32.0553 37.2377 31.7764Z" fill="#00041A"/>
<path d="M53.9954 14.031L54.3539 5.60634H61.9421L62.0018 14.031L66.961 13.8517L65.4075 20.5436L62.3006 20.6631L62.7786 34.6444H66.961L67.0207 42.591H66.483C64.4914 42.7105 62.5196 42.8101 60.5678 42.8898C59.2932 42.9296 58.1978 42.9495 57.2816 42.9495C55.29 42.9495 54.1548 42.83 53.8759 42.591C53.3581 42.2724 53.0992 40.8782 53.0992 38.4086C53.0992 36.5365 53.1988 34.027 53.3979 30.8802C53.5971 27.7334 53.8759 24.3676 54.2344 20.7826L49.2753 21.0216L50.9482 13.9115L53.9954 14.031Z" fill="#00041A"/>
<path d="M81.0291 28.072L81.6863 42.83L69.3183 42.352L70.7523 1.30441L91.0072 1.42391L92.0229 13.314L80.3719 13.1347L80.4316 18.8706L87.3625 18.7511V28.55L81.0291 28.072Z" fill="#00041A"/>
<path d="M117.023 23.4116L117.202 23.9493L107.941 25.682L107.821 25.204C107.821 25.0845 107.802 24.9252 107.762 24.7261C107.722 24.5269 107.622 24.2082 107.463 23.7701C107.304 23.2921 107.124 22.8738 106.925 22.5153C106.726 22.1568 106.427 21.8581 106.029 21.6191C105.67 21.3403 105.272 21.2208 104.834 21.2606H104.774C104.615 21.2606 104.456 21.3602 104.296 21.5593C103.699 22.3162 103.38 24.1286 103.34 26.9965C103.34 29.8645 103.48 32.593 103.758 35.1821C104.037 37.7314 104.336 40.0816 104.655 42.2325L104.714 42.83L93.7206 42.7703L93.5414 14.5687L100.592 13.7322L100.472 15.7637C101.627 14.3695 103.121 13.6526 104.953 13.6127H105.013C108.399 13.6127 111.426 15.2658 114.095 18.5719C115.37 20.1652 116.346 21.7784 117.023 23.4116Z" fill="#00041A"/>
<path d="M144.198 14.27C144.637 17.0184 144.816 20.1453 144.736 23.6506C144.577 30.5416 143.103 35.6004 140.315 38.8268C138.164 41.2965 135.296 42.5313 131.711 42.5313C131.591 42.5313 131.492 42.5313 131.412 42.5313C127.708 42.4516 124.76 41.1172 122.569 38.5281C119.861 35.3016 118.387 30.3823 118.148 23.7701C117.988 20.5038 118.108 17.5362 118.506 14.8675L118.566 14.4492L128.903 14.1505L128.843 14.748C128.763 15.1861 128.684 15.7836 128.604 16.5404C128.524 17.2972 128.425 18.6516 128.305 20.6034C128.225 22.5552 128.186 24.3476 128.186 25.9808C128.225 27.6139 128.405 29.267 128.723 30.94C129.042 32.5731 129.52 33.7282 130.157 34.4054C130.556 34.8436 131.034 35.0427 131.591 35.0029C132.109 35.0029 132.567 34.7639 132.966 34.2859C133.563 33.5689 134.001 32.3939 134.28 30.7607C134.599 29.0877 134.758 27.4347 134.758 25.8015C134.798 24.1286 134.758 22.3162 134.639 20.3644C134.559 18.4126 134.479 17.0383 134.4 16.2417C134.32 15.445 134.26 14.8475 134.22 14.4492L134.101 13.8517H144.079L144.198 14.27Z" fill="#00041A"/>
<path d="M148.884 13.553L157.906 14.031L158.504 42.1728L147.032 42.7105L148.884 13.553ZM154.919 0.826416C156.512 1.18491 157.707 2.00148 158.504 3.27613C159.34 4.55077 159.659 5.86525 159.46 7.21957C159.26 8.21539 158.763 9.05187 157.966 9.72903C157.209 10.4062 156.134 10.7448 154.739 10.7448C154.461 10.7448 154.182 10.7448 153.903 10.7448C152.19 10.5058 150.955 9.88836 150.198 8.89254C149.442 7.89672 149.123 6.82124 149.242 5.66609C149.402 4.31178 149.999 3.13671 151.035 2.14089C152.071 1.14508 153.345 0.687 154.859 0.766664L154.919 0.826416Z" fill="#00041A"/>
<path d="M164.975 14.031L165.333 5.60634H172.921L172.981 14.031L177.94 13.8517L176.387 20.5436L173.28 20.6631L173.758 34.6444H177.94L178 42.591H177.462C175.471 42.7105 173.499 42.8101 171.547 42.8898C170.272 42.9296 169.177 42.9495 168.261 42.9495C166.269 42.9495 165.134 42.83 164.855 42.591C164.337 42.2724 164.078 40.8782 164.078 38.4086C164.078 36.5365 164.178 34.027 164.377 30.8802C164.576 27.7334 164.855 24.3676 165.214 20.7826L160.255 21.0216L161.927 13.9115L164.975 14.031Z" fill="#00041A"/>
<path d="M35.0091 31.4819L29.0609 36.1156L28.093 34.8732C26.9551 33.4175 26.2705 31.6591 26.1246 29.8172L35.0091 31.4819ZM26.1331 28.2136C26.3363 25.9381 27.3595 23.7405 29.1416 22.1006L35.2326 29.9194L26.1331 28.2136ZM30.3858 21.1313C32.3524 19.8448 34.728 19.3379 37.0484 19.7098L36.4775 28.9503L30.3858 21.1313ZM38.6052 20.0947C40.3555 20.6869 41.8929 21.7808 43.0259 23.2403L43.9937 24.4836L38.0463 29.1173L38.6052 20.0947Z" fill="#FEE366"/>
</svg>
