<svg width="122" height="32" viewBox="0 0 122 32" fill="none" xmlns="http://www.w3.org/2000/svg">
<mask id="mask0_9191_130509" style="mask-type:luminance" maskUnits="userSpaceOnUse" x="0" y="0" width="22" height="32">
<path d="M21.5891 0.461914H0V31.5371H21.5891V0.461914Z" fill="white"/>
</mask>
<g mask="url(#mask0_9191_130509)">
<path fill-rule="evenodd" clip-rule="evenodd" d="M11.8489 0.461914C18.3258 6.18701 21.7681 12.2031 21.0123 18.1327C21.3735 17.6698 21.5889 17.2789 21.5889 17.2789C21.5889 17.2789 21.5285 18.4528 20.8331 20.5597C20.1381 22.6655 18.4881 24.5183 18.4862 24.5202C18.7643 20.91 18.8424 17.3827 18.8424 13.6048C18.8424 12.8655 18.4678 12.4922 17.7255 12.4922H15.2781C14.5358 12.4922 14.1647 12.8655 14.1655 13.6048C14.167 15.4916 14.1697 17.378 14.1524 19.2649H7.55128C7.53705 17.378 7.52704 15.4916 7.5255 13.6048C7.52475 12.8655 7.15515 12.4922 6.41438 12.4922H3.96553C3.22478 12.4922 2.85786 12.8655 2.85862 13.6048C2.8644 17.8628 2.92555 22.0074 3.35017 26.1953C-2.40288 20.6133 -0.647122 14.7711 7.85284 7.0056C7.85284 7.0056 7.2086 8.39852 7.15322 9.77839C10.1155 6.82183 12.6951 3.84499 11.8489 0.461914ZM13.8735 29.5002C13.9447 27.6463 14.0147 25.7948 14.0686 23.9401H7.62628C7.6782 25.8269 7.74359 27.7164 7.86128 29.6001L7.86242 29.6239C8.88012 30.2599 9.99628 30.8966 11.2166 31.5371C12.1763 30.8636 13.0612 30.1844 13.8739 29.5002H13.8735Z" fill="url(#paint0_linear_9191_130509)"/>
<path fill-rule="evenodd" clip-rule="evenodd" d="M11.8477 0.461914C12.2769 0.855509 12.69 1.24834 13.09 1.64002C16.0957 5.02464 16.4992 8.3384 16.0177 12.4926H15.2769C14.5346 12.4926 14.1634 12.8659 14.1642 13.6052C14.1657 15.492 14.1684 17.3784 14.1511 19.2652H8.10886C10.7088 12.3406 18.3772 6.53659 11.8477 0.461914ZM16.5457 12.4926H17.3146C17.1827 11.8065 17.0019 11.1185 16.7649 10.4312C16.7572 11.3007 16.6711 11.9699 16.5457 12.4926ZM13.9538 27.3492C13.0034 29.0052 12.0211 30.4306 11.2154 31.5371C9.3027 29.5768 8.20771 27.716 7.68656 25.9361C7.66308 25.2706 7.64309 24.6052 7.625 23.9401H14.0677C14.0346 25.0773 13.9954 26.2132 13.9538 27.3492Z" fill="url(#paint1_linear_9191_130509)"/>
</g>
<path d="M24.5235 30.0316C24.2085 30.0316 23.9531 29.7762 23.9531 29.4612V13.3457C23.9531 13.0307 24.2085 12.7754 24.5235 12.7754H34.6472C34.9622 12.7754 35.2176 13.0307 35.2176 13.3457V15.2488C35.2176 15.5638 34.9622 15.8192 34.6472 15.8192H27.783C27.468 15.8192 27.2126 16.0745 27.2126 16.3895V18.9398C27.2126 19.2547 27.468 19.5101 27.783 19.5101H33.2092C33.5242 19.5101 33.7796 19.7654 33.7796 20.0804V21.9835C33.7796 22.2985 33.5242 22.5539 33.2092 22.5539H27.783C27.468 22.5539 27.2126 22.8092 27.2126 23.1242V26.4174C27.2126 26.7324 27.468 26.9878 27.783 26.9878H34.6472C34.9622 26.9878 35.2176 27.2431 35.2176 27.5581V29.4612C35.2176 29.7762 34.9622 30.0316 34.6472 30.0316H24.5235Z" fill="url(#paint2_linear_9191_130509)"/>
<path d="M39.7383 30.0316C39.4233 30.0316 39.168 29.7762 39.168 29.4612V13.3457C39.168 13.0307 39.4233 12.7754 39.7383 12.7754H41.8571C42.1721 12.7754 42.4275 13.0307 42.4275 13.3457V26.4174C42.4275 26.7324 42.6828 26.9878 42.9978 26.9878H49.287C49.602 26.9878 49.8574 27.2431 49.8574 27.5581V29.4612C49.8574 29.7762 49.602 30.0316 49.287 30.0316H39.7383Z" fill="url(#paint3_linear_9191_130509)"/>
<path d="M53.543 30.0316C53.228 30.0316 52.9727 29.7762 52.9727 29.4612V13.3457C52.9727 13.0307 53.228 12.7754 53.543 12.7754H55.6618C55.9768 12.7754 56.2322 13.0307 56.2322 13.3457V26.4174C56.2322 26.7324 56.4875 26.9878 56.8025 26.9878H63.0916C63.4065 26.9878 63.6619 27.2431 63.6619 27.5581V29.4612C63.6619 29.7762 63.4065 30.0316 63.0916 30.0316H53.543Z" fill="url(#paint4_linear_9191_130509)"/>
<path d="M73.0583 30.3909C71.7801 30.3909 70.6253 30.1672 69.5947 29.7198C68.5721 29.2645 67.7297 28.6174 67.0666 27.7785C66.5191 27.0708 66.139 26.2515 65.9263 25.3206C65.856 25.0129 66.0739 24.7212 66.3861 24.675L68.7083 24.3316C69.0001 24.2884 69.2726 24.4768 69.3728 24.7543C69.6444 25.5059 70.0899 26.1026 70.7096 26.5442C71.4605 27.0795 72.3153 27.3471 73.274 27.3471C73.8093 27.3471 74.3286 27.2632 74.8319 27.0955C75.3352 26.9277 75.7462 26.68 76.0658 26.3525C76.3933 26.0249 76.5575 25.6215 76.5575 25.1422C76.5575 24.9664 76.5292 24.7986 76.4732 24.6389C76.4253 24.4711 76.3418 24.3153 76.2219 24.1715C76.1021 24.0277 75.93 23.8919 75.7063 23.7641C75.4906 23.6362 75.2153 23.5204 74.8798 23.4165L70.398 22.0984C70.0624 22.0025 69.671 21.8667 69.2236 21.6909C68.7842 21.5152 68.3564 21.2635 67.941 20.936C67.5256 20.6084 67.1784 20.177 66.8988 19.6418C66.6272 19.0985 66.4914 18.4155 66.4914 17.5926C66.4914 16.4342 66.7826 15.4715 67.3658 14.7046C67.949 13.9376 68.7283 13.3664 69.7029 12.9909C70.6776 12.6155 71.7561 12.4317 72.9385 12.4397C74.1288 12.4557 75.1914 12.6594 76.1261 13.0509C77.0608 13.4423 77.8437 14.0135 78.4748 14.7645C78.9864 15.3667 79.3825 16.0791 79.6631 16.9017C79.771 17.218 79.558 17.5448 79.2286 17.6009L76.8493 18.0055C76.5511 18.0562 76.2707 17.8624 76.1599 17.5809C76.0261 17.241 75.8429 16.9413 75.6104 16.6818C75.2669 16.2984 74.8558 16.0068 74.3765 15.8071C73.9051 15.6073 73.4098 15.4995 72.8905 15.4835C72.3793 15.4675 71.8956 15.5394 71.4402 15.6992C70.9928 15.851 70.6253 16.0747 70.3377 16.3703C70.0581 16.6659 69.9186 17.0174 69.9186 17.4248C69.9186 17.8003 70.0341 18.1079 70.2658 18.3475C70.4975 18.5792 70.7895 18.767 71.141 18.9108C71.4925 19.0546 71.852 19.1744 72.2195 19.2703L75.2153 20.0851C75.6627 20.205 76.158 20.3648 76.7013 20.5645C77.2445 20.7562 77.7638 21.0278 78.2591 21.3794C78.7624 21.7229 79.1735 22.1783 79.4931 22.7455C79.8206 23.3127 79.9847 24.0317 79.9847 24.9025C79.9847 25.8292 79.7887 26.6401 79.3972 27.3351C79.0137 28.0222 78.4944 28.5934 77.8393 29.0488C77.1843 29.4961 76.4413 29.8317 75.6104 30.0554C74.7876 30.2791 73.9371 30.3909 73.0583 30.3909Z" fill="url(#paint5_linear_9191_130509)"/>
<path d="M84.0274 30.0316C83.7124 30.0316 83.457 29.7762 83.457 29.4612V13.3457C83.457 13.0307 83.7124 12.7754 84.0274 12.7754H90.743C90.9107 12.7754 91.1344 12.7834 91.414 12.7994C91.7016 12.8073 91.9573 12.8313 92.181 12.8713C93.2116 13.031 94.054 13.3706 94.7091 13.8899C95.3722 14.4091 95.8595 15.0642 96.1711 15.8551C96.4827 16.6381 96.6388 17.5128 96.6388 18.4795C96.6388 19.4462 96.479 20.325 96.1595 21.1159C95.8479 21.8988 95.3606 22.5499 94.6975 23.0692C94.0424 23.5885 93.2036 23.928 92.181 24.0878C91.9573 24.1197 91.7016 24.1437 91.414 24.1597C91.1264 24.1756 90.9027 24.1836 90.743 24.1836H87.2869C86.9719 24.1836 86.7165 24.439 86.7165 24.754V29.4612C86.7165 29.7762 86.4612 30.0316 86.1462 30.0316H84.0274ZM86.7165 20.5695C86.7165 20.8845 86.9719 21.1398 87.2869 21.1398H90.5992C90.7669 21.1398 90.9507 21.1319 91.1504 21.1159C91.3501 21.0999 91.5339 21.0679 91.7016 21.02C92.141 20.9002 92.4802 20.7004 92.7199 20.4208C92.9595 20.1332 93.1237 19.8177 93.2116 19.4741C93.3074 19.1226 93.3554 18.7911 93.3554 18.4795C93.3554 18.1679 93.3074 17.8404 93.2116 17.4969C93.1237 17.1454 92.9595 16.8298 92.7199 16.5502C92.4802 16.2626 92.141 16.0589 91.7016 15.939C91.5339 15.8911 91.3501 15.8591 91.1504 15.8432C90.9507 15.8272 90.7669 15.8192 90.5992 15.8192H87.2869C86.9719 15.8192 86.7165 16.0745 86.7165 16.3895V20.5695Z" fill="url(#paint6_linear_9191_130509)"/>
<path d="M100.695 30.0316C100.38 30.0316 100.125 29.7762 100.125 29.4612V13.3457C100.125 13.0307 100.38 12.7754 100.695 12.7754H102.814C103.129 12.7754 103.385 13.0307 103.385 13.3457V29.4612C103.385 29.7762 103.129 30.0316 102.814 30.0316H100.695Z" fill="url(#paint7_linear_9191_130509)"/>
<path d="M108.387 30.0316C108.072 30.0316 107.816 29.7762 107.816 29.4612V13.3457C107.816 13.0307 108.072 12.7754 108.387 12.7754H110.815C111.008 12.7754 111.187 12.8727 111.293 13.0342L117.577 22.6722C117.887 23.1474 118.625 22.928 118.625 22.3607V13.3457C118.625 13.0307 118.881 12.7754 119.196 12.7754H121.363C121.678 12.7754 121.933 13.0307 121.933 13.3457V29.4612C121.933 29.7762 121.678 30.0316 121.363 30.0316H118.934C118.742 30.0316 118.562 29.9342 118.457 29.7727L112.172 20.1347C111.862 19.6595 111.124 19.879 111.124 20.4463V29.4612C111.124 29.7762 110.868 30.0316 110.553 30.0316H108.387Z" fill="url(#paint8_linear_9191_130509)"/>
<defs>
<linearGradient id="paint0_linear_9191_130509" x1="14.1355" y1="2.35331" x2="8.45655" y2="29.3655" gradientUnits="userSpaceOnUse">
<stop stop-color="#ED1C24"/>
<stop offset="1" stop-color="#FFC421"/>
</linearGradient>
<linearGradient id="paint1_linear_9191_130509" x1="14.4684" y1="9.3469" x2="7.23892" y2="30.5575" gradientUnits="userSpaceOnUse">
<stop stop-color="#E81E25"/>
<stop offset="1" stop-color="#FFC421"/>
</linearGradient>
<linearGradient id="paint2_linear_9191_130509" x1="75.2939" y1="8.96959" x2="75.2939" y2="32.9365" gradientUnits="userSpaceOnUse">
<stop stop-color="#EA2825"/>
<stop offset="1" stop-color="#FFC422"/>
</linearGradient>
<linearGradient id="paint3_linear_9191_130509" x1="75.2935" y1="8.96959" x2="75.2935" y2="32.9365" gradientUnits="userSpaceOnUse">
<stop stop-color="#EA2825"/>
<stop offset="1" stop-color="#FFC422"/>
</linearGradient>
<linearGradient id="paint4_linear_9191_130509" x1="75.2931" y1="8.96959" x2="75.2931" y2="32.9365" gradientUnits="userSpaceOnUse">
<stop stop-color="#EA2825"/>
<stop offset="1" stop-color="#FFC422"/>
</linearGradient>
<linearGradient id="paint5_linear_9191_130509" x1="75.2938" y1="8.96944" x2="75.2938" y2="32.9363" gradientUnits="userSpaceOnUse">
<stop stop-color="#EA2825"/>
<stop offset="1" stop-color="#FFC422"/>
</linearGradient>
<linearGradient id="paint6_linear_9191_130509" x1="75.293" y1="8.96959" x2="75.293" y2="32.9365" gradientUnits="userSpaceOnUse">
<stop stop-color="#EA2825"/>
<stop offset="1" stop-color="#FFC422"/>
</linearGradient>
<linearGradient id="paint7_linear_9191_130509" x1="75.2953" y1="8.96959" x2="75.2953" y2="32.9365" gradientUnits="userSpaceOnUse">
<stop stop-color="#EA2825"/>
<stop offset="1" stop-color="#FFC422"/>
</linearGradient>
<linearGradient id="paint8_linear_9191_130509" x1="75.2955" y1="8.96959" x2="75.2955" y2="32.9365" gradientUnits="userSpaceOnUse">
<stop stop-color="#EA2825"/>
<stop offset="1" stop-color="#FFC422"/>
</linearGradient>
</defs>
</svg>
