<svg width="168" height="48" viewBox="0 0 168 48" fill="none" xmlns="http://www.w3.org/2000/svg">
<path d="M45.7287 28.5237V20.5706H52.8845C53.735 20.5706 54.5116 20.4049 55.2142 20.0736C55.9538 19.7054 56.5455 19.1715 56.9893 18.4719C57.4331 17.7355 57.655 16.8335 57.655 15.7657C57.655 14.6979 57.4331 13.8142 56.9893 13.1147C56.5455 12.3783 55.9538 11.8444 55.2142 11.513C54.5116 11.1448 53.735 10.9607 52.8845 10.9607H45.7287V3.0077H55.0478C57.5995 3.0077 59.8923 3.52318 61.9262 4.55413C63.9971 5.54825 65.6243 7.00263 66.8076 8.91724C68.028 10.795 68.6382 13.0779 68.6382 15.7657C68.6382 18.4167 68.028 20.6995 66.8076 22.6141C65.6243 24.5287 63.9971 26.0015 61.9262 27.0325C59.8923 28.0266 57.5995 28.5237 55.0478 28.5237H45.7287ZM36.7425 42.331V3.0077H47.8366V42.331H36.7425Z" fill="#FF0C8A"/>
<path d="M72.6035 42.331V3.0077H83.6976V42.331H72.6035Z" fill="#FF0C8A"/>
<path d="M90.2631 42.331V3.0077H98.029L101.357 11.2921V42.331H90.2631ZM117.444 42.331L94.5344 13.667L98.029 3.0077L120.938 31.6717L117.444 42.331ZM117.444 42.331L114.67 33.6048V3.0077H125.764V42.331H117.444Z" fill="#FF0C8A"/>
<path d="M130.469 34.6541L148.663 10.6846H162.198L143.948 34.6541H130.469ZM130.469 42.331V34.6541L136.515 33.2182H161.699V42.331H130.469ZM131.357 12.1205V3.0077H162.198V10.6846L156.041 12.1205H131.357Z" fill="#FF0C8A"/>
<path d="M15.6982 42.9938C12.333 42.9938 9.39305 42.5151 6.87838 41.5578C4.40068 40.5637 2.10789 38.9988 0 36.8633L6.93385 29.9596C8.37609 31.322 9.89229 32.3713 11.4825 33.1077C13.0726 33.8073 14.7737 34.1571 16.5858 34.1571C18.102 34.1571 19.2484 33.9361 20.025 33.4943C20.8015 33.0157 21.1898 32.3713 21.1898 31.5613C21.1898 30.7512 20.857 30.0885 20.1914 29.573C19.5257 29.0207 18.6382 28.5421 17.5288 28.1371C16.4563 27.6952 15.2545 27.2534 13.9232 26.8116C12.6289 26.3697 11.3345 25.8358 10.0402 25.2099C8.7459 24.584 7.54403 23.8292 6.43461 22.9455C5.36218 22.025 4.49313 20.902 3.82749 19.5765C3.16184 18.2142 2.82901 16.5573 2.82901 14.6059C2.82901 12.0653 3.43919 9.87455 4.65955 8.03357C5.8799 6.1926 7.5995 4.79345 9.81833 3.83614C12.0372 2.84202 14.6443 2.34495 17.6397 2.34495C20.5982 2.34495 23.3347 2.82361 25.8494 3.78092C28.401 4.7014 30.5089 6.02691 32.1731 7.75743L25.1837 14.6611C23.9634 13.4829 22.743 12.6176 21.5227 12.0653C20.3023 11.4762 18.971 11.1816 17.5288 11.1816C16.3824 11.1816 15.4579 11.3657 14.7552 11.7339C14.0896 12.1021 13.7568 12.6544 13.7568 13.3908C13.7568 14.164 14.0896 14.8084 14.7552 15.3239C15.4209 15.8025 16.2899 16.2443 17.3624 16.6494C18.4718 17.0544 19.6736 17.4778 20.968 17.9196C22.2993 18.3615 23.6121 18.8953 24.9064 19.5213C26.2007 20.1104 27.3841 20.8836 28.4565 21.8409C29.5659 22.7614 30.4535 23.9212 31.1191 25.3204C31.7848 26.7195 32.1176 28.4132 32.1176 30.4015C32.1176 34.4148 30.6754 37.5261 27.7909 39.7352C24.9434 41.9076 20.9125 42.9938 15.6982 42.9938Z" fill="#FF0C8A"/>
<path d="M26.4237 1.32211L31.3696 0L35.156 14.0976L30.2101 15.4197L26.4237 1.32211Z" fill="#FF0C8A"/>
<path d="M21.0249 17.8751L19.6996 12.9409L33.8308 9.16345L35.156 14.0976L21.0249 17.8751Z" fill="#FF0C8A"/>
<path d="M154.035 30.9717L157.655 27.3597L168 37.6798L164.379 41.2919L154.035 30.9717Z" fill="#FF0C8A"/>
<path d="M157.655 48L154.035 44.3879L164.379 34.0678L168 37.6798L157.655 48Z" fill="#FF0C8A"/>
</svg>
