<svg width="199" height="48" viewBox="0 0 199 48" fill="none" xmlns="http://www.w3.org/2000/svg">
<path d="M11.5578 19.1213C14.3414 22.1636 18.9175 22.749 18.9175 22.749C18.9175 22.749 18.9816 18.4014 16.1979 15.3592C13.4124 12.3153 8.8363 11.7298 8.8363 11.7298C8.8363 11.7298 8.77726 16.0793 11.5578 19.1213ZM19.7999 30.5984C23.5199 32.0666 27.1569 30.1977 27.1569 30.1977C27.1569 30.1977 24.7628 25.9476 21.0428 24.4794C17.3228 23.0113 13.6839 24.8784 13.6839 24.8784C13.6839 24.8784 16.0798 29.1302 19.7999 30.5984ZM30.7413 38.1641C34.341 37.8513 36.2077 34.274 36.2077 34.274C36.2077 34.274 32.235 31.2036 28.6353 31.5165C25.0355 31.8293 23.1688 35.4065 23.1688 35.4065C23.1688 35.4065 27.1415 38.4769 30.7413 38.1641ZM43.5084 39.9707C46.7905 38.9063 47.7496 34.8495 47.7496 34.8495C47.7496 34.8495 43.3855 32.5193 40.1015 33.582C36.8194 34.6464 35.8622 38.7048 35.8622 38.7048C35.8622 38.7048 40.2262 41.0351 43.5084 39.9707ZM10.7255 6.36896C11.248 10.0389 15.0609 13.3114 15.0609 13.3114C15.0609 13.3114 18.0333 10.6337 17.5108 6.96375C16.9884 3.29381 13.1736 0.0196761 13.1736 0.0196761C13.1736 0.0196761 10.2031 2.69902 10.7255 6.36896Z" fill="url(#paint0_linear_1750_10082)"/>
<path d="M187.286 19.1213C184.502 22.1636 179.926 22.749 179.926 22.749C179.926 22.749 179.862 18.4014 182.646 15.3592C185.431 12.3153 190.007 11.7298 190.007 11.7298C190.007 11.7298 190.066 16.0793 187.286 19.1213ZM179.044 30.5984C175.324 32.0666 171.687 30.1977 171.687 30.1977C171.687 30.1977 174.081 25.9476 177.801 24.4794C181.521 23.0113 185.16 24.8784 185.16 24.8784C185.16 24.8784 182.764 29.1302 179.044 30.5984ZM168.102 38.1641C164.503 37.8513 162.636 34.274 162.636 34.274C162.636 34.274 166.609 31.2036 170.208 31.5165C173.808 31.8293 175.675 35.4065 175.675 35.4065C175.675 35.4065 171.702 38.4769 168.102 38.1641ZM155.335 39.9707C152.053 38.9063 151.094 34.8495 151.094 34.8495C151.094 34.8495 155.458 32.5193 158.742 33.582C162.024 34.6464 162.982 38.7048 162.982 38.7048C162.982 38.7048 158.618 41.0351 155.335 39.9707ZM188.118 6.36896C187.596 10.0389 183.783 13.3114 183.783 13.3114C183.783 13.3114 180.81 10.6337 181.333 6.96375C181.855 3.29381 185.67 0.0196761 185.67 0.0196761C185.67 0.0196761 188.641 2.69902 188.118 6.36896Z" fill="url(#paint1_linear_1750_10082)"/>
<path d="M69.6992 31.4774C69.5713 30.6609 69.2959 30.046 68.8728 29.6328C68.4596 29.2196 67.9087 29.0081 67.2201 28.9983C66.7085 28.9983 66.2608 29.1163 65.8772 29.3524C65.4935 29.5885 65.1738 29.9034 64.918 30.2969C64.672 30.6904 64.4851 31.138 64.3572 31.6398C64.2391 32.1415 64.1801 32.658 64.1801 33.1892C64.1801 34.0353 64.2982 34.7879 64.5343 35.447C64.7802 36.0964 65.1344 36.6079 65.5968 36.9818C66.0592 37.3556 66.6199 37.5425 67.2791 37.5425C67.8989 37.5425 68.5137 37.3851 69.1237 37.0703C69.7336 36.7457 70.2452 36.298 70.6584 35.7274L71.3668 36.3767C70.8847 37.0359 70.378 37.5376 69.8468 37.8819C69.3155 38.2164 68.7941 38.4427 68.2826 38.5608C67.7808 38.6788 67.3283 38.7378 66.9249 38.7378C66.1674 38.7378 65.4787 38.605 64.8589 38.3394C64.2391 38.0639 63.703 37.6901 63.2504 37.2179C62.8077 36.7358 62.4634 36.18 62.2174 35.5503C61.9813 34.9109 61.8633 34.2222 61.8633 33.4844C61.8633 32.8154 61.9715 32.1513 62.1879 31.4922C62.4044 30.833 62.7241 30.2378 63.1471 29.7066C63.58 29.1655 64.1211 28.7376 64.7704 28.4227C65.4197 28.0981 66.1723 27.9358 67.0282 27.9358C67.4119 27.9358 67.83 27.9997 68.2826 28.1276C68.7449 28.2457 69.1778 28.4227 69.5812 28.6589L69.5221 28.0391H70.6584V31.4774H69.6992Z" fill="#2C2A28"/>
<path d="M75.154 38.5017V37.4835C75.4294 37.4835 75.6508 37.4048 75.818 37.2474C75.9853 37.09 76.123 36.8834 76.2312 36.6276C76.3493 36.3718 76.4624 36.0964 76.5706 35.8012L79.4483 27.9062H80.4812L83.6245 35.9488C83.6835 36.0964 83.7622 36.3226 83.8606 36.6276C83.959 36.9227 84.018 37.1834 84.0377 37.4097C84.2049 37.39 84.3623 37.3802 84.5099 37.3802C84.6673 37.3704 84.7952 37.3655 84.8936 37.3655V38.5017H80.9239V37.5278C81.1994 37.5278 81.3863 37.4737 81.4847 37.3655C81.5929 37.2474 81.6421 37.09 81.6323 36.8932C81.6224 36.6965 81.5683 36.4751 81.47 36.2292L81.1748 35.4175L77.9726 35.4766L77.7364 36.1701C77.6873 36.298 77.6135 36.4899 77.5151 36.7457C77.4265 36.9916 77.3429 37.1982 77.2642 37.3655C77.4216 37.3458 77.6086 37.3359 77.825 37.3359C78.0513 37.3261 78.2136 37.3212 78.312 37.3212V38.5017H75.154ZM78.3415 34.3698H80.8059L80.1271 32.5252C79.9992 32.171 79.886 31.8168 79.7877 31.4627C79.6893 31.0987 79.6155 30.7789 79.5663 30.5035H79.5515C79.5122 30.6707 79.4532 30.9216 79.3745 31.2561C79.2958 31.5906 79.1728 31.989 79.0055 32.4514L78.3415 34.3698Z" fill="#2C2A28"/>
<path d="M95.341 31.4774C95.2525 30.9265 95.0951 30.469 94.8688 30.105C94.6425 29.7312 94.3523 29.4508 93.9981 29.2639C93.6538 29.077 93.2504 28.9884 92.7881 28.9983C92.365 28.9983 91.9912 29.1163 91.6665 29.3524C91.3517 29.5885 91.1943 29.8935 91.1943 30.2674C91.1943 30.5723 91.2779 30.838 91.4452 31.0642C91.6223 31.2905 91.8879 31.502 92.2421 31.6988C92.5962 31.8955 93.0438 32.1071 93.5849 32.3333C93.9588 32.4809 94.3425 32.6531 94.736 32.8498C95.1295 33.0466 95.4935 33.2827 95.828 33.5582C96.1625 33.8238 96.433 34.1386 96.6396 34.5026C96.8462 34.8568 96.9495 35.2749 96.9495 35.7569C96.9495 36.3374 96.7921 36.8539 96.4773 37.3064C96.1625 37.759 95.7198 38.1131 95.1492 38.3689C94.5884 38.6149 93.9293 38.7378 93.1717 38.7378C92.7782 38.7378 92.3503 38.6739 91.8879 38.546C91.4353 38.4279 91.0074 38.2509 90.604 38.0148L90.6483 38.6345H89.512V35.1814H90.486C90.6237 36.0078 90.9385 36.6325 91.4304 37.0556C91.9322 37.4687 92.5274 37.6753 93.216 37.6753C93.5702 37.6753 93.8801 37.6114 94.1457 37.4835C94.4113 37.3556 94.6179 37.1884 94.7655 36.9818C94.9131 36.7653 94.9868 36.5341 94.9868 36.2882C94.9868 35.9439 94.8639 35.6586 94.6179 35.4323C94.3818 35.206 94.0818 35.0142 93.7178 34.8568C93.3636 34.6994 92.9996 34.5469 92.6257 34.3993C92.1535 34.2025 91.7108 33.9959 91.2976 33.7795C90.8943 33.5532 90.5401 33.2975 90.2351 33.0122C89.9301 32.7269 89.694 32.4022 89.5268 32.0382C89.3595 31.6644 89.2759 31.2364 89.2759 30.7543C89.2759 30.4494 89.3349 30.1345 89.453 29.8099C89.5711 29.4754 89.7629 29.1704 90.0285 28.895C90.2941 28.6097 90.6483 28.3785 91.091 28.2014C91.5337 28.0243 92.0797 27.9358 92.729 27.9358C93.1226 27.9358 93.5505 27.9948 94.0129 28.1128C94.4851 28.2309 94.8885 28.408 95.223 28.6441L95.1639 28.0391H96.315V31.4774H95.341Z" fill="#2C2A28"/>
<path d="M106.123 29.1458C105.907 29.1557 105.72 29.1852 105.562 29.2344C105.405 29.2836 105.282 29.3967 105.194 29.5738C105.115 29.741 105.076 30.0263 105.076 30.4297V36.0816C105.076 36.3472 105.071 36.603 105.061 36.849C105.051 37.0949 105.036 37.2818 105.016 37.4097C105.174 37.39 105.371 37.3802 105.607 37.3802C105.853 37.3704 106.025 37.3655 106.123 37.3655V38.5017H101.888V37.5278C102.114 37.5179 102.301 37.4884 102.449 37.4392C102.606 37.39 102.724 37.2769 102.803 37.0998C102.891 36.9227 102.936 36.6374 102.936 36.2439V30.592C102.936 30.3264 102.941 30.0706 102.951 29.8247C102.97 29.5787 102.985 29.3918 102.995 29.2639C102.837 29.2737 102.641 29.2836 102.405 29.2934C102.168 29.2934 101.996 29.2983 101.888 29.3082V28.1719H106.123V29.1458Z" fill="#2C2A28"/>
<path d="M119.135 38.6493L114.413 32.6137C114.285 32.4465 114.152 32.2694 114.014 32.0825C113.876 31.8955 113.739 31.7037 113.601 31.5069H113.586L113.616 36.0816C113.616 36.3472 113.611 36.603 113.601 36.849C113.591 37.0949 113.576 37.2818 113.557 37.4097C113.714 37.39 113.911 37.3802 114.147 37.3802C114.393 37.3704 114.565 37.3655 114.663 37.3655V38.5017H111.299V37.5278C111.525 37.5179 111.712 37.4884 111.86 37.4392C112.017 37.39 112.135 37.2769 112.214 37.0998C112.302 36.9227 112.347 36.6374 112.347 36.2439L112.317 30.592C112.317 30.3264 112.322 30.0706 112.332 29.8247C112.342 29.5787 112.356 29.3918 112.376 29.2639C112.219 29.2737 112.017 29.2836 111.771 29.2934C111.535 29.2934 111.363 29.2983 111.255 29.3082V28.1719H113.571L118.087 33.8681C118.333 34.1829 118.535 34.4534 118.692 34.6797C118.859 34.906 119.002 35.1027 119.12 35.27H119.135V30.592C119.135 30.3264 119.14 30.0706 119.149 29.8247C119.159 29.5787 119.169 29.3918 119.179 29.2639C119.022 29.2737 118.825 29.2836 118.589 29.2934C118.353 29.2934 118.18 29.2983 118.072 29.3082V28.1719H121.437V29.1458C121.22 29.1557 121.033 29.1852 120.876 29.2344C120.719 29.2836 120.596 29.3967 120.507 29.5738C120.428 29.741 120.389 30.0263 120.389 30.4297V38.6493H119.135Z" fill="#2C2A28"/>
<path d="M131.157 38.7378C130.222 38.7378 129.425 38.5804 128.766 38.2656C128.117 37.9508 127.591 37.5327 127.187 37.0113C126.784 36.48 126.489 35.8947 126.302 35.2552C126.115 34.6157 126.021 33.9763 126.021 33.3368C126.021 32.717 126.125 32.0923 126.331 31.4627C126.548 30.8232 126.867 30.2378 127.29 29.7066C127.723 29.1753 128.264 28.7474 128.914 28.4227C129.563 28.0981 130.325 27.9358 131.201 27.9358C132.096 27.9358 132.869 28.0981 133.518 28.4227C134.167 28.7474 134.698 29.1803 135.112 29.7214C135.525 30.2526 135.83 30.833 136.027 31.4627C136.233 32.0923 136.336 32.717 136.336 33.3368C136.336 33.9468 136.228 34.5666 136.012 35.1962C135.805 35.8258 135.486 36.4112 135.053 36.9523C134.63 37.4835 134.093 37.9164 133.444 38.2509C132.795 38.5755 132.032 38.7378 131.157 38.7378ZM131.319 37.6606C131.831 37.6606 132.259 37.5376 132.603 37.2917C132.947 37.0359 133.223 36.7063 133.429 36.303C133.636 35.8996 133.784 35.4618 133.872 34.9896C133.961 34.5075 134.005 34.0402 134.005 33.5877C134.005 32.9089 133.946 32.2891 133.828 31.7283C133.71 31.1675 133.528 30.6855 133.282 30.2821C133.036 29.8689 132.721 29.5541 132.337 29.3377C131.964 29.1114 131.521 29.0032 131.009 29.013C130.507 29.0229 130.084 29.1606 129.74 29.4262C129.396 29.682 129.12 30.0165 128.914 30.4297C128.707 30.833 128.56 31.2758 128.471 31.7578C128.382 32.2399 128.338 32.7072 128.338 33.1597C128.338 33.6221 128.387 34.114 128.486 34.6354C128.594 35.1568 128.761 35.6487 128.988 36.1111C129.214 36.5735 129.519 36.9473 129.902 37.2326C130.286 37.5179 130.758 37.6606 131.319 37.6606Z" fill="#2C2A28"/>
<mask id="path-4-outside-1_1750_10082" maskUnits="userSpaceOnUse" x="24.25" y="1.52344" width="150" height="26" fill="black">
<rect fill="white" x="24.25" y="1.52344" width="150" height="26"/>
<path d="M37.7875 11.047C37.5829 9.74056 37.1421 8.75677 36.4653 8.09566C35.8042 7.43455 34.9227 7.09612 33.8208 7.08038C33.0023 7.08038 32.2861 7.26927 31.6722 7.64705C31.0583 8.02482 30.5468 8.52853 30.1375 9.15816C29.744 9.78779 29.4449 10.504 29.2403 11.3068C29.0514 12.1095 28.9569 12.9359 28.9569 13.7859C28.9569 15.1396 29.1458 16.3438 29.5236 17.3984C29.9171 18.4373 30.4838 19.2558 31.2236 19.854C31.9634 20.4521 32.8606 20.7512 33.9153 20.7512C34.9069 20.7512 35.8907 20.4994 36.8667 19.9957C37.8426 19.4762 38.6611 18.76 39.3222 17.847L40.4556 18.8859C39.6843 19.9406 38.8736 20.7433 38.0236 21.2943C37.1736 21.8295 36.3393 22.1915 35.5208 22.3804C34.7181 22.5693 33.994 22.6637 33.3486 22.6637C32.1366 22.6637 31.0347 22.4512 30.0431 22.0262C29.0514 21.5855 28.1935 20.9873 27.4694 20.2318C26.7611 19.4605 26.2102 18.5711 25.8167 17.5637C25.4389 16.5406 25.25 15.4387 25.25 14.2582C25.25 13.1878 25.4231 12.1253 25.7694 11.0707C26.1157 10.016 26.6273 9.06371 27.3042 8.21371C27.9968 7.34797 28.8625 6.66325 29.9014 6.15955C30.9403 5.6401 32.1444 5.38038 33.5139 5.38038C34.1278 5.38038 34.7968 5.4827 35.5208 5.68733C36.2606 5.87621 36.9532 6.15955 37.5986 6.53732L37.5042 5.54566H39.3222V11.047H37.7875Z"/>
<path d="M49.7224 22.6637C48.227 22.6637 46.952 22.4119 45.8974 21.9082C44.8585 21.4044 44.0163 20.7355 43.371 19.9012C42.7256 19.0512 42.2534 18.1146 41.9543 17.0915C41.6552 16.0683 41.5057 15.0452 41.5057 14.022C41.5057 13.0304 41.671 12.0308 42.0015 11.0234C42.3478 10.0003 42.8594 9.06371 43.5362 8.21371C44.2288 7.36371 45.0946 6.67899 46.1335 6.15955C47.1724 5.6401 48.3923 5.38038 49.7932 5.38038C51.2256 5.38038 52.4612 5.6401 53.5001 6.15955C54.539 6.67899 55.389 7.37158 56.0501 8.23732C56.7112 9.08732 57.1992 10.016 57.514 11.0234C57.8446 12.0308 58.0099 13.0304 58.0099 14.022C58.0099 14.998 57.8367 15.9896 57.4904 16.997C57.1599 18.0045 56.6483 18.941 55.9557 19.8068C55.2788 20.6568 54.421 21.3494 53.3821 21.8845C52.3432 22.404 51.1233 22.6637 49.7224 22.6637ZM49.9821 20.9401C50.8006 20.9401 51.4853 20.7433 52.0362 20.3498C52.5872 19.9406 53.0279 19.4132 53.3585 18.7679C53.689 18.1225 53.9251 17.422 54.0668 16.6665C54.2085 15.8952 54.2793 15.1475 54.2793 14.4234C54.2793 13.3373 54.1849 12.3457 53.996 11.4484C53.8071 10.5512 53.5159 9.77992 53.1224 9.13455C52.7288 8.47343 52.2251 7.96973 51.6112 7.62344C51.0131 7.2614 50.3048 7.08825 49.4862 7.10399C48.6835 7.11973 48.0066 7.3401 47.4557 7.7651C46.9048 8.17436 46.464 8.70955 46.1335 9.37066C45.8029 10.016 45.5668 10.7244 45.4251 11.4957C45.2835 12.267 45.2126 13.0146 45.2126 13.7387C45.2126 14.4785 45.2913 15.2656 45.4487 16.0998C45.6219 16.9341 45.8895 17.7211 46.2515 18.4609C46.6136 19.2007 47.1015 19.7989 47.7154 20.2554C48.3293 20.7119 49.0849 20.9401 49.9821 20.9401Z"/>
<path d="M59.7296 22.2859V20.7276C60.0916 20.7119 60.3907 20.6646 60.6268 20.5859C60.8787 20.5072 61.0676 20.3262 61.1935 20.0429C61.3351 19.7595 61.406 19.3031 61.406 18.6734V9.63038C61.406 9.20538 61.4138 8.79612 61.4296 8.4026C61.4611 8.00908 61.4847 7.71001 61.5004 7.50538C61.2486 7.52112 60.9338 7.53686 60.556 7.5526C60.1782 7.5526 59.9027 7.56047 59.7296 7.57621V5.75816H66.506V7.31649C66.1597 7.33223 65.8606 7.37945 65.6088 7.45816C65.3569 7.53686 65.1601 7.71788 65.0185 8.00121C64.8926 8.26881 64.8296 8.72529 64.8296 9.37066V18.4137C64.8296 18.8387 64.8217 19.2401 64.806 19.6179C64.7902 19.9957 64.7666 20.2869 64.7351 20.4915H67.899C68.8277 20.4915 69.5518 20.1688 70.0713 19.5234C70.6064 18.8781 70.874 17.91 70.874 16.6193H72.456L72.3143 22.2859H59.7296Z"/>
<path d="M81.8418 22.6637C80.3464 22.6637 79.0714 22.4119 78.0168 21.9082C76.9779 21.4044 76.1357 20.7355 75.4904 19.9012C74.845 19.0512 74.3728 18.1146 74.0737 17.0915C73.7746 16.0683 73.6251 15.0452 73.6251 14.022C73.6251 13.0304 73.7904 12.0308 74.1209 11.0234C74.4672 10.0003 74.9788 9.06371 75.6556 8.21371C76.3482 7.36371 77.214 6.67899 78.2529 6.15955C79.2918 5.6401 80.5117 5.38038 81.9126 5.38038C83.345 5.38038 84.5806 5.6401 85.6195 6.15955C86.6584 6.67899 87.5084 7.37158 88.1695 8.23732C88.8306 9.08732 89.3186 10.016 89.6334 11.0234C89.964 12.0308 90.1293 13.0304 90.1293 14.022C90.1293 14.998 89.9561 15.9896 89.6098 16.997C89.2793 18.0045 88.7677 18.941 88.0751 19.8068C87.3982 20.6568 86.5404 21.3494 85.5015 21.8845C84.4626 22.404 83.2427 22.6637 81.8418 22.6637ZM82.1015 20.9401C82.92 20.9401 83.6047 20.7433 84.1556 20.3498C84.7066 19.9406 85.1473 19.4132 85.4779 18.7679C85.8084 18.1225 86.0445 17.422 86.1862 16.6665C86.3279 15.8952 86.3987 15.1475 86.3987 14.4234C86.3987 13.3373 86.3043 12.3457 86.1154 11.4484C85.9265 10.5512 85.6353 9.77992 85.2418 9.13455C84.8482 8.47343 84.3445 7.96973 83.7306 7.62344C83.1325 7.2614 82.4242 7.08825 81.6056 7.10399C80.8029 7.11973 80.126 7.3401 79.5751 7.7651C79.0242 8.17436 78.5834 8.70955 78.2529 9.37066C77.9223 10.016 77.6862 10.7244 77.5445 11.4957C77.4029 12.267 77.332 13.0146 77.332 13.7387C77.332 14.4785 77.4107 15.2656 77.5681 16.0998C77.7413 16.9341 78.0089 17.7211 78.3709 18.4609C78.733 19.2007 79.2209 19.7989 79.8348 20.2554C80.4487 20.7119 81.2043 20.9401 82.1015 20.9401Z"/>
<path d="M97.1548 25.922L97.1312 22.5929C96.6433 22.5142 96.1396 22.3882 95.6201 22.2151C95.1007 22.0262 94.6127 21.7901 94.1562 21.5068L94.2035 22.4984H92.3854V16.9734H93.9201C94.1405 18.2957 94.6127 19.2952 95.3368 19.972C96.0609 20.6332 96.9738 20.9637 98.0757 20.9637C98.9099 20.9637 99.5553 20.7433 100.012 20.3026C100.468 19.8461 100.697 19.2794 100.697 18.6026C100.697 18.0674 100.531 17.6345 100.201 17.304C99.8859 16.9734 99.4609 16.6901 98.9257 16.454C98.4062 16.2021 97.8474 15.9582 97.2493 15.722C96.3363 15.3443 95.4863 14.9035 94.6993 14.3998C93.928 13.8804 93.3062 13.2586 92.834 12.5345C92.3618 11.7947 92.1257 10.9132 92.1257 9.8901C92.1257 9.41788 92.1965 8.92992 92.3382 8.42621C92.4799 7.92251 92.7238 7.45029 93.0701 7.00955C93.4164 6.56881 93.8965 6.1989 94.5104 5.89983C95.1243 5.60075 95.9035 5.4276 96.8479 5.38038V2.52344H99.0673L99.0437 5.61649C99.39 5.71094 99.7206 5.82899 100.035 5.97066C100.366 6.11232 100.673 6.29334 100.956 6.51371L100.885 5.54566H102.727V11.047H101.169C101.027 10.1656 100.799 9.43362 100.484 8.85121C100.185 8.25306 99.7836 7.80445 99.2799 7.50538C98.7761 7.20631 98.1544 7.06464 97.4146 7.08038C96.9738 7.08038 96.5882 7.16695 96.2576 7.3401C95.9271 7.51325 95.6674 7.75723 95.4785 8.07205C95.2896 8.37112 95.1951 8.71742 95.1951 9.11093C95.1951 9.5989 95.3053 10.016 95.5257 10.3623C95.7461 10.6929 96.116 11.0156 96.6354 11.3304C97.1706 11.6452 97.8868 12.0072 98.784 12.4165C99.3664 12.6683 99.9567 12.9595 100.555 13.2901C101.153 13.6049 101.696 13.9748 102.184 14.3998C102.688 14.8248 103.089 15.3207 103.388 15.8873C103.687 16.454 103.837 17.123 103.837 17.8943C103.837 18.7128 103.664 19.4526 103.317 20.1137C102.971 20.7748 102.459 21.3179 101.783 21.7429C101.122 22.1679 100.303 22.4512 99.3271 22.5929L99.3035 25.922H97.1548Z"/>
<path d="M111.036 25.922L111.012 22.5929C110.524 22.5142 110.02 22.3882 109.501 22.2151C108.981 22.0262 108.493 21.7901 108.037 21.5068L108.084 22.4984H106.266V16.9734H107.801C108.021 18.2957 108.493 19.2952 109.218 19.972C109.942 20.6332 110.855 20.9637 111.956 20.9637C112.791 20.9637 113.436 20.7433 113.893 20.3026C114.349 19.8461 114.577 19.2794 114.577 18.6026C114.577 18.0674 114.412 17.6345 114.081 17.304C113.767 16.9734 113.342 16.6901 112.806 16.454C112.287 16.2021 111.728 15.9582 111.13 15.722C110.217 15.3443 109.367 14.9035 108.58 14.3998C107.809 13.8804 107.187 13.2586 106.715 12.5345C106.243 11.7947 106.006 10.9132 106.006 9.8901C106.006 9.41788 106.077 8.92992 106.219 8.42621C106.361 7.92251 106.605 7.45029 106.951 7.00955C107.297 6.56881 107.777 6.1989 108.391 5.89983C109.005 5.60075 109.784 5.4276 110.729 5.38038V2.52344H112.948L112.924 5.61649C113.271 5.71094 113.601 5.82899 113.916 5.97066C114.247 6.11232 114.554 6.29334 114.837 6.51371L114.766 5.54566H116.608V11.047H115.049C114.908 10.1656 114.68 9.43362 114.365 8.85121C114.066 8.25306 113.664 7.80445 113.161 7.50538C112.657 7.20631 112.035 7.06464 111.295 7.08038C110.855 7.08038 110.469 7.16695 110.138 7.3401C109.808 7.51325 109.548 7.75723 109.359 8.07205C109.17 8.37112 109.076 8.71742 109.076 9.11093C109.076 9.5989 109.186 10.016 109.406 10.3623C109.627 10.6929 109.997 11.0156 110.516 11.3304C111.051 11.6452 111.768 12.0072 112.665 12.4165C113.247 12.6683 113.837 12.9595 114.436 13.2901C115.034 13.6049 115.577 13.9748 116.065 14.3998C116.568 14.8248 116.97 15.3207 117.269 15.8873C117.568 16.454 117.718 17.123 117.718 17.8943C117.718 18.7128 117.544 19.4526 117.198 20.1137C116.852 20.7748 116.34 21.3179 115.663 21.7429C115.002 22.1679 114.184 22.4512 113.208 22.5929L113.184 25.922H111.036Z"/>
<path d="M127.915 16.5957C127.915 15.9345 127.813 15.4545 127.608 15.1554C127.403 14.8563 127.12 14.6753 126.758 14.6123C126.412 14.5336 126.026 14.5021 125.601 14.5179L124.987 14.5415V18.4137C124.987 18.8387 124.979 19.2401 124.964 19.6179C124.948 19.9957 124.924 20.2869 124.893 20.4915H128.057C128.529 20.4915 128.985 20.3892 129.426 20.1845C129.867 19.9642 130.229 19.61 130.512 19.122C130.796 18.6183 130.937 17.9415 130.937 17.0915H132.472L132.354 22.2859H119.887V20.7276C120.249 20.7119 120.548 20.6646 120.784 20.5859C121.036 20.5072 121.225 20.3262 121.351 20.0429C121.493 19.7595 121.564 19.3031 121.564 18.6734V9.63038C121.564 9.20538 121.571 8.79612 121.587 8.4026C121.619 8.00908 121.642 7.71001 121.658 7.50538C121.406 7.52112 121.091 7.53686 120.714 7.5526C120.336 7.5526 120.06 7.56047 119.887 7.57621V5.75816H131.693L131.834 10.3387H130.276C130.276 9.47297 130.127 8.81973 129.827 8.37899C129.528 7.93825 129.158 7.64705 128.718 7.50538C128.277 7.34797 127.844 7.27714 127.419 7.29288L126.569 7.31649C126.239 7.31649 125.955 7.36371 125.719 7.45816C125.483 7.53686 125.302 7.72575 125.176 8.02482C125.05 8.30816 124.987 8.75677 124.987 9.37066V12.9123H127.75L127.655 10.8582H129.473V16.5957H127.915Z"/>
<path d="M140.831 7.31649C140.484 7.33223 140.185 7.37945 139.934 7.45816C139.682 7.53686 139.485 7.71788 139.343 8.00121C139.217 8.26881 139.154 8.72529 139.154 9.37066V15.8637C139.154 16.8554 139.257 17.6739 139.461 18.3193C139.682 18.9489 139.965 19.4526 140.311 19.8304C140.673 20.1924 141.075 20.4521 141.515 20.6095C141.972 20.767 142.436 20.8535 142.909 20.8693C143.774 20.9007 144.514 20.7355 145.128 20.3734C145.742 20.0114 146.214 19.4526 146.545 18.697C146.875 17.9415 147.04 16.9813 147.04 15.8165V9.63038C147.04 9.20538 147.048 8.79612 147.064 8.4026C147.08 8.00908 147.103 7.71001 147.135 7.50538C146.883 7.52112 146.56 7.53686 146.167 7.5526C145.789 7.5526 145.514 7.56047 145.34 7.57621V5.75816H150.818V7.31649C150.472 7.33223 150.173 7.37945 149.921 7.45816C149.669 7.53686 149.472 7.71788 149.331 8.00121C149.205 8.26881 149.142 8.72529 149.142 9.37066V15.2734C149.142 16.6271 148.977 17.7762 148.646 18.7207C148.315 19.6651 147.851 20.4285 147.253 21.0109C146.655 21.5933 145.954 22.0183 145.152 22.2859C144.349 22.5378 143.475 22.6637 142.531 22.6637C141.209 22.6637 140.107 22.4748 139.225 22.097C138.344 21.7193 137.643 21.1919 137.124 20.5151C136.62 19.8382 136.258 19.0591 136.038 18.1776C135.833 17.2961 135.731 16.3517 135.731 15.3443V9.63038C135.731 9.20538 135.739 8.79612 135.754 8.4026C135.786 8.00908 135.809 7.71001 135.825 7.50538C135.573 7.52112 135.259 7.53686 134.881 7.5526C134.503 7.5526 134.228 7.56047 134.054 7.57621V5.75816H140.831V7.31649Z"/>
<path d="M161.013 22.522C160.478 21.2156 159.942 19.917 159.407 18.6262C158.888 17.3355 158.36 16.0447 157.825 14.754C157.699 14.4549 157.534 14.0378 157.329 13.5026C157.141 12.9517 156.936 12.322 156.716 11.6137C156.511 10.9054 156.322 10.1734 156.149 9.41788C156.18 10.2994 156.204 11.1336 156.22 11.9207C156.235 12.692 156.235 13.4318 156.22 14.1401C156.22 14.4864 156.22 14.8406 156.22 15.2026C156.22 15.5646 156.212 15.9267 156.196 16.2887C156.196 16.635 156.196 16.9892 156.196 17.3512C156.196 17.6975 156.196 18.0517 156.196 18.4137C156.196 18.8387 156.18 19.248 156.149 19.6415C156.133 20.035 156.109 20.3341 156.078 20.5387C156.346 20.5072 156.668 20.4915 157.046 20.4915C157.44 20.4757 157.715 20.4679 157.872 20.4679V22.2859H152.489V20.7276C152.851 20.7119 153.15 20.6646 153.386 20.5859C153.638 20.5072 153.827 20.3262 153.953 20.0429C154.095 19.7595 154.166 19.3031 154.166 18.6734L154.307 9.63038C154.323 9.20538 154.339 8.79612 154.354 8.4026C154.37 8.00908 154.386 7.71001 154.402 7.50538C154.15 7.52112 153.835 7.53686 153.457 7.5526C153.079 7.5526 152.804 7.56047 152.631 7.57621V5.75816H157.849L161.414 14.8957C161.556 15.2577 161.713 15.6827 161.886 16.1707C162.059 16.6429 162.225 17.1072 162.382 17.5637C162.54 18.0045 162.658 18.3586 162.736 18.6262H162.76C162.965 18.0753 163.153 17.5401 163.327 17.0207C163.5 16.5012 163.681 15.9975 163.87 15.5095C164.484 13.8725 165.09 12.2433 165.688 10.622C166.302 9.00075 166.916 7.37945 167.529 5.75816H172.984V7.31649C172.637 7.33223 172.33 7.37945 172.063 7.45816C171.795 7.53686 171.591 7.71788 171.449 8.00121C171.323 8.26881 171.268 8.72529 171.284 9.37066L171.638 18.4137C171.669 18.8387 171.669 19.248 171.638 19.6415C171.606 20.035 171.575 20.3341 171.543 20.5387C171.811 20.5072 172.134 20.4915 172.511 20.4915C172.905 20.4757 173.18 20.4679 173.338 20.4679V22.2859H166.774V20.7276C167.136 20.7119 167.443 20.6646 167.695 20.5859C167.962 20.5072 168.159 20.3262 168.285 20.0429C168.427 19.7595 168.482 19.3031 168.45 18.6734L168.261 13.6679C168.261 13.479 168.246 13.1563 168.214 12.6998C168.183 12.2276 168.151 11.716 168.12 11.1651C168.104 10.5984 168.088 10.0711 168.072 9.58316C168.025 9.69334 167.978 9.80353 167.931 9.91371C167.884 10.0082 167.844 10.1105 167.813 10.2207L163.209 22.522H161.013Z"/>
</mask>
<path d="M37.7875 11.047C37.5829 9.74056 37.1421 8.75677 36.4653 8.09566C35.8042 7.43455 34.9227 7.09612 33.8208 7.08038C33.0023 7.08038 32.2861 7.26927 31.6722 7.64705C31.0583 8.02482 30.5468 8.52853 30.1375 9.15816C29.744 9.78779 29.4449 10.504 29.2403 11.3068C29.0514 12.1095 28.9569 12.9359 28.9569 13.7859C28.9569 15.1396 29.1458 16.3438 29.5236 17.3984C29.9171 18.4373 30.4838 19.2558 31.2236 19.854C31.9634 20.4521 32.8606 20.7512 33.9153 20.7512C34.9069 20.7512 35.8907 20.4994 36.8667 19.9957C37.8426 19.4762 38.6611 18.76 39.3222 17.847L40.4556 18.8859C39.6843 19.9406 38.8736 20.7433 38.0236 21.2943C37.1736 21.8295 36.3393 22.1915 35.5208 22.3804C34.7181 22.5693 33.994 22.6637 33.3486 22.6637C32.1366 22.6637 31.0347 22.4512 30.0431 22.0262C29.0514 21.5855 28.1935 20.9873 27.4694 20.2318C26.7611 19.4605 26.2102 18.5711 25.8167 17.5637C25.4389 16.5406 25.25 15.4387 25.25 14.2582C25.25 13.1878 25.4231 12.1253 25.7694 11.0707C26.1157 10.016 26.6273 9.06371 27.3042 8.21371C27.9968 7.34797 28.8625 6.66325 29.9014 6.15955C30.9403 5.6401 32.1444 5.38038 33.5139 5.38038C34.1278 5.38038 34.7968 5.4827 35.5208 5.68733C36.2606 5.87621 36.9532 6.15955 37.5986 6.53732L37.5042 5.54566H39.3222V11.047H37.7875Z" fill="url(#paint2_linear_1750_10082)"/>
<path d="M49.7224 22.6637C48.227 22.6637 46.952 22.4119 45.8974 21.9082C44.8585 21.4044 44.0163 20.7355 43.371 19.9012C42.7256 19.0512 42.2534 18.1146 41.9543 17.0915C41.6552 16.0683 41.5057 15.0452 41.5057 14.022C41.5057 13.0304 41.671 12.0308 42.0015 11.0234C42.3478 10.0003 42.8594 9.06371 43.5362 8.21371C44.2288 7.36371 45.0946 6.67899 46.1335 6.15955C47.1724 5.6401 48.3923 5.38038 49.7932 5.38038C51.2256 5.38038 52.4612 5.6401 53.5001 6.15955C54.539 6.67899 55.389 7.37158 56.0501 8.23732C56.7112 9.08732 57.1992 10.016 57.514 11.0234C57.8446 12.0308 58.0099 13.0304 58.0099 14.022C58.0099 14.998 57.8367 15.9896 57.4904 16.997C57.1599 18.0045 56.6483 18.941 55.9557 19.8068C55.2788 20.6568 54.421 21.3494 53.3821 21.8845C52.3432 22.404 51.1233 22.6637 49.7224 22.6637ZM49.9821 20.9401C50.8006 20.9401 51.4853 20.7433 52.0362 20.3498C52.5872 19.9406 53.0279 19.4132 53.3585 18.7679C53.689 18.1225 53.9251 17.422 54.0668 16.6665C54.2085 15.8952 54.2793 15.1475 54.2793 14.4234C54.2793 13.3373 54.1849 12.3457 53.996 11.4484C53.8071 10.5512 53.5159 9.77992 53.1224 9.13455C52.7288 8.47343 52.2251 7.96973 51.6112 7.62344C51.0131 7.2614 50.3048 7.08825 49.4862 7.10399C48.6835 7.11973 48.0066 7.3401 47.4557 7.7651C46.9048 8.17436 46.464 8.70955 46.1335 9.37066C45.8029 10.016 45.5668 10.7244 45.4251 11.4957C45.2835 12.267 45.2126 13.0146 45.2126 13.7387C45.2126 14.4785 45.2913 15.2656 45.4487 16.0998C45.6219 16.9341 45.8895 17.7211 46.2515 18.4609C46.6136 19.2007 47.1015 19.7989 47.7154 20.2554C48.3293 20.7119 49.0849 20.9401 49.9821 20.9401Z" fill="url(#paint3_linear_1750_10082)"/>
<path d="M59.7296 22.2859V20.7276C60.0916 20.7119 60.3907 20.6646 60.6268 20.5859C60.8787 20.5072 61.0676 20.3262 61.1935 20.0429C61.3351 19.7595 61.406 19.3031 61.406 18.6734V9.63038C61.406 9.20538 61.4138 8.79612 61.4296 8.4026C61.4611 8.00908 61.4847 7.71001 61.5004 7.50538C61.2486 7.52112 60.9338 7.53686 60.556 7.5526C60.1782 7.5526 59.9027 7.56047 59.7296 7.57621V5.75816H66.506V7.31649C66.1597 7.33223 65.8606 7.37945 65.6088 7.45816C65.3569 7.53686 65.1601 7.71788 65.0185 8.00121C64.8926 8.26881 64.8296 8.72529 64.8296 9.37066V18.4137C64.8296 18.8387 64.8217 19.2401 64.806 19.6179C64.7902 19.9957 64.7666 20.2869 64.7351 20.4915H67.899C68.8277 20.4915 69.5518 20.1688 70.0713 19.5234C70.6064 18.8781 70.874 17.91 70.874 16.6193H72.456L72.3143 22.2859H59.7296Z" fill="url(#paint4_linear_1750_10082)"/>
<path d="M81.8418 22.6637C80.3464 22.6637 79.0714 22.4119 78.0168 21.9082C76.9779 21.4044 76.1357 20.7355 75.4904 19.9012C74.845 19.0512 74.3728 18.1146 74.0737 17.0915C73.7746 16.0683 73.6251 15.0452 73.6251 14.022C73.6251 13.0304 73.7904 12.0308 74.1209 11.0234C74.4672 10.0003 74.9788 9.06371 75.6556 8.21371C76.3482 7.36371 77.214 6.67899 78.2529 6.15955C79.2918 5.6401 80.5117 5.38038 81.9126 5.38038C83.345 5.38038 84.5806 5.6401 85.6195 6.15955C86.6584 6.67899 87.5084 7.37158 88.1695 8.23732C88.8306 9.08732 89.3186 10.016 89.6334 11.0234C89.964 12.0308 90.1293 13.0304 90.1293 14.022C90.1293 14.998 89.9561 15.9896 89.6098 16.997C89.2793 18.0045 88.7677 18.941 88.0751 19.8068C87.3982 20.6568 86.5404 21.3494 85.5015 21.8845C84.4626 22.404 83.2427 22.6637 81.8418 22.6637ZM82.1015 20.9401C82.92 20.9401 83.6047 20.7433 84.1556 20.3498C84.7066 19.9406 85.1473 19.4132 85.4779 18.7679C85.8084 18.1225 86.0445 17.422 86.1862 16.6665C86.3279 15.8952 86.3987 15.1475 86.3987 14.4234C86.3987 13.3373 86.3043 12.3457 86.1154 11.4484C85.9265 10.5512 85.6353 9.77992 85.2418 9.13455C84.8482 8.47343 84.3445 7.96973 83.7306 7.62344C83.1325 7.2614 82.4242 7.08825 81.6056 7.10399C80.8029 7.11973 80.126 7.3401 79.5751 7.7651C79.0242 8.17436 78.5834 8.70955 78.2529 9.37066C77.9223 10.016 77.6862 10.7244 77.5445 11.4957C77.4029 12.267 77.332 13.0146 77.332 13.7387C77.332 14.4785 77.4107 15.2656 77.5681 16.0998C77.7413 16.9341 78.0089 17.7211 78.3709 18.4609C78.733 19.2007 79.2209 19.7989 79.8348 20.2554C80.4487 20.7119 81.2043 20.9401 82.1015 20.9401Z" fill="url(#paint5_linear_1750_10082)"/>
<path d="M97.1548 25.922L97.1312 22.5929C96.6433 22.5142 96.1396 22.3882 95.6201 22.2151C95.1007 22.0262 94.6127 21.7901 94.1562 21.5068L94.2035 22.4984H92.3854V16.9734H93.9201C94.1405 18.2957 94.6127 19.2952 95.3368 19.972C96.0609 20.6332 96.9738 20.9637 98.0757 20.9637C98.9099 20.9637 99.5553 20.7433 100.012 20.3026C100.468 19.8461 100.697 19.2794 100.697 18.6026C100.697 18.0674 100.531 17.6345 100.201 17.304C99.8859 16.9734 99.4609 16.6901 98.9257 16.454C98.4062 16.2021 97.8474 15.9582 97.2493 15.722C96.3363 15.3443 95.4863 14.9035 94.6993 14.3998C93.928 13.8804 93.3062 13.2586 92.834 12.5345C92.3618 11.7947 92.1257 10.9132 92.1257 9.8901C92.1257 9.41788 92.1965 8.92992 92.3382 8.42621C92.4799 7.92251 92.7238 7.45029 93.0701 7.00955C93.4164 6.56881 93.8965 6.1989 94.5104 5.89983C95.1243 5.60075 95.9035 5.4276 96.8479 5.38038V2.52344H99.0673L99.0437 5.61649C99.39 5.71094 99.7206 5.82899 100.035 5.97066C100.366 6.11232 100.673 6.29334 100.956 6.51371L100.885 5.54566H102.727V11.047H101.169C101.027 10.1656 100.799 9.43362 100.484 8.85121C100.185 8.25306 99.7836 7.80445 99.2799 7.50538C98.7761 7.20631 98.1544 7.06464 97.4146 7.08038C96.9738 7.08038 96.5882 7.16695 96.2576 7.3401C95.9271 7.51325 95.6674 7.75723 95.4785 8.07205C95.2896 8.37112 95.1951 8.71742 95.1951 9.11093C95.1951 9.5989 95.3053 10.016 95.5257 10.3623C95.7461 10.6929 96.116 11.0156 96.6354 11.3304C97.1706 11.6452 97.8868 12.0072 98.784 12.4165C99.3664 12.6683 99.9567 12.9595 100.555 13.2901C101.153 13.6049 101.696 13.9748 102.184 14.3998C102.688 14.8248 103.089 15.3207 103.388 15.8873C103.687 16.454 103.837 17.123 103.837 17.8943C103.837 18.7128 103.664 19.4526 103.317 20.1137C102.971 20.7748 102.459 21.3179 101.783 21.7429C101.122 22.1679 100.303 22.4512 99.3271 22.5929L99.3035 25.922H97.1548Z" fill="url(#paint6_linear_1750_10082)"/>
<path d="M111.036 25.922L111.012 22.5929C110.524 22.5142 110.02 22.3882 109.501 22.2151C108.981 22.0262 108.493 21.7901 108.037 21.5068L108.084 22.4984H106.266V16.9734H107.801C108.021 18.2957 108.493 19.2952 109.218 19.972C109.942 20.6332 110.855 20.9637 111.956 20.9637C112.791 20.9637 113.436 20.7433 113.893 20.3026C114.349 19.8461 114.577 19.2794 114.577 18.6026C114.577 18.0674 114.412 17.6345 114.081 17.304C113.767 16.9734 113.342 16.6901 112.806 16.454C112.287 16.2021 111.728 15.9582 111.13 15.722C110.217 15.3443 109.367 14.9035 108.58 14.3998C107.809 13.8804 107.187 13.2586 106.715 12.5345C106.243 11.7947 106.006 10.9132 106.006 9.8901C106.006 9.41788 106.077 8.92992 106.219 8.42621C106.361 7.92251 106.605 7.45029 106.951 7.00955C107.297 6.56881 107.777 6.1989 108.391 5.89983C109.005 5.60075 109.784 5.4276 110.729 5.38038V2.52344H112.948L112.924 5.61649C113.271 5.71094 113.601 5.82899 113.916 5.97066C114.247 6.11232 114.554 6.29334 114.837 6.51371L114.766 5.54566H116.608V11.047H115.049C114.908 10.1656 114.68 9.43362 114.365 8.85121C114.066 8.25306 113.664 7.80445 113.161 7.50538C112.657 7.20631 112.035 7.06464 111.295 7.08038C110.855 7.08038 110.469 7.16695 110.138 7.3401C109.808 7.51325 109.548 7.75723 109.359 8.07205C109.17 8.37112 109.076 8.71742 109.076 9.11093C109.076 9.5989 109.186 10.016 109.406 10.3623C109.627 10.6929 109.997 11.0156 110.516 11.3304C111.051 11.6452 111.768 12.0072 112.665 12.4165C113.247 12.6683 113.837 12.9595 114.436 13.2901C115.034 13.6049 115.577 13.9748 116.065 14.3998C116.568 14.8248 116.97 15.3207 117.269 15.8873C117.568 16.454 117.718 17.123 117.718 17.8943C117.718 18.7128 117.544 19.4526 117.198 20.1137C116.852 20.7748 116.34 21.3179 115.663 21.7429C115.002 22.1679 114.184 22.4512 113.208 22.5929L113.184 25.922H111.036Z" fill="url(#paint7_linear_1750_10082)"/>
<path d="M127.915 16.5957C127.915 15.9345 127.813 15.4545 127.608 15.1554C127.403 14.8563 127.12 14.6753 126.758 14.6123C126.412 14.5336 126.026 14.5021 125.601 14.5179L124.987 14.5415V18.4137C124.987 18.8387 124.979 19.2401 124.964 19.6179C124.948 19.9957 124.924 20.2869 124.893 20.4915H128.057C128.529 20.4915 128.985 20.3892 129.426 20.1845C129.867 19.9642 130.229 19.61 130.512 19.122C130.796 18.6183 130.937 17.9415 130.937 17.0915H132.472L132.354 22.2859H119.887V20.7276C120.249 20.7119 120.548 20.6646 120.784 20.5859C121.036 20.5072 121.225 20.3262 121.351 20.0429C121.493 19.7595 121.564 19.3031 121.564 18.6734V9.63038C121.564 9.20538 121.571 8.79612 121.587 8.4026C121.619 8.00908 121.642 7.71001 121.658 7.50538C121.406 7.52112 121.091 7.53686 120.714 7.5526C120.336 7.5526 120.06 7.56047 119.887 7.57621V5.75816H131.693L131.834 10.3387H130.276C130.276 9.47297 130.127 8.81973 129.827 8.37899C129.528 7.93825 129.158 7.64705 128.718 7.50538C128.277 7.34797 127.844 7.27714 127.419 7.29288L126.569 7.31649C126.239 7.31649 125.955 7.36371 125.719 7.45816C125.483 7.53686 125.302 7.72575 125.176 8.02482C125.05 8.30816 124.987 8.75677 124.987 9.37066V12.9123H127.75L127.655 10.8582H129.473V16.5957H127.915Z" fill="url(#paint8_linear_1750_10082)"/>
<path d="M140.831 7.31649C140.484 7.33223 140.185 7.37945 139.934 7.45816C139.682 7.53686 139.485 7.71788 139.343 8.00121C139.217 8.26881 139.154 8.72529 139.154 9.37066V15.8637C139.154 16.8554 139.257 17.6739 139.461 18.3193C139.682 18.9489 139.965 19.4526 140.311 19.8304C140.673 20.1924 141.075 20.4521 141.515 20.6095C141.972 20.767 142.436 20.8535 142.909 20.8693C143.774 20.9007 144.514 20.7355 145.128 20.3734C145.742 20.0114 146.214 19.4526 146.545 18.697C146.875 17.9415 147.04 16.9813 147.04 15.8165V9.63038C147.04 9.20538 147.048 8.79612 147.064 8.4026C147.08 8.00908 147.103 7.71001 147.135 7.50538C146.883 7.52112 146.56 7.53686 146.167 7.5526C145.789 7.5526 145.514 7.56047 145.34 7.57621V5.75816H150.818V7.31649C150.472 7.33223 150.173 7.37945 149.921 7.45816C149.669 7.53686 149.472 7.71788 149.331 8.00121C149.205 8.26881 149.142 8.72529 149.142 9.37066V15.2734C149.142 16.6271 148.977 17.7762 148.646 18.7207C148.315 19.6651 147.851 20.4285 147.253 21.0109C146.655 21.5933 145.954 22.0183 145.152 22.2859C144.349 22.5378 143.475 22.6637 142.531 22.6637C141.209 22.6637 140.107 22.4748 139.225 22.097C138.344 21.7193 137.643 21.1919 137.124 20.5151C136.62 19.8382 136.258 19.0591 136.038 18.1776C135.833 17.2961 135.731 16.3517 135.731 15.3443V9.63038C135.731 9.20538 135.739 8.79612 135.754 8.4026C135.786 8.00908 135.809 7.71001 135.825 7.50538C135.573 7.52112 135.259 7.53686 134.881 7.5526C134.503 7.5526 134.228 7.56047 134.054 7.57621V5.75816H140.831V7.31649Z" fill="url(#paint9_linear_1750_10082)"/>
<path d="M161.013 22.522C160.478 21.2156 159.942 19.917 159.407 18.6262C158.888 17.3355 158.36 16.0447 157.825 14.754C157.699 14.4549 157.534 14.0378 157.329 13.5026C157.141 12.9517 156.936 12.322 156.716 11.6137C156.511 10.9054 156.322 10.1734 156.149 9.41788C156.18 10.2994 156.204 11.1336 156.22 11.9207C156.235 12.692 156.235 13.4318 156.22 14.1401C156.22 14.4864 156.22 14.8406 156.22 15.2026C156.22 15.5646 156.212 15.9267 156.196 16.2887C156.196 16.635 156.196 16.9892 156.196 17.3512C156.196 17.6975 156.196 18.0517 156.196 18.4137C156.196 18.8387 156.18 19.248 156.149 19.6415C156.133 20.035 156.109 20.3341 156.078 20.5387C156.346 20.5072 156.668 20.4915 157.046 20.4915C157.44 20.4757 157.715 20.4679 157.872 20.4679V22.2859H152.489V20.7276C152.851 20.7119 153.15 20.6646 153.386 20.5859C153.638 20.5072 153.827 20.3262 153.953 20.0429C154.095 19.7595 154.166 19.3031 154.166 18.6734L154.307 9.63038C154.323 9.20538 154.339 8.79612 154.354 8.4026C154.37 8.00908 154.386 7.71001 154.402 7.50538C154.15 7.52112 153.835 7.53686 153.457 7.5526C153.079 7.5526 152.804 7.56047 152.631 7.57621V5.75816H157.849L161.414 14.8957C161.556 15.2577 161.713 15.6827 161.886 16.1707C162.059 16.6429 162.225 17.1072 162.382 17.5637C162.54 18.0045 162.658 18.3586 162.736 18.6262H162.76C162.965 18.0753 163.153 17.5401 163.327 17.0207C163.5 16.5012 163.681 15.9975 163.87 15.5095C164.484 13.8725 165.09 12.2433 165.688 10.622C166.302 9.00075 166.916 7.37945 167.529 5.75816H172.984V7.31649C172.637 7.33223 172.33 7.37945 172.063 7.45816C171.795 7.53686 171.591 7.71788 171.449 8.00121C171.323 8.26881 171.268 8.72529 171.284 9.37066L171.638 18.4137C171.669 18.8387 171.669 19.248 171.638 19.6415C171.606 20.035 171.575 20.3341 171.543 20.5387C171.811 20.5072 172.134 20.4915 172.511 20.4915C172.905 20.4757 173.18 20.4679 173.338 20.4679V22.2859H166.774V20.7276C167.136 20.7119 167.443 20.6646 167.695 20.5859C167.962 20.5072 168.159 20.3262 168.285 20.0429C168.427 19.7595 168.482 19.3031 168.45 18.6734L168.261 13.6679C168.261 13.479 168.246 13.1563 168.214 12.6998C168.183 12.2276 168.151 11.716 168.12 11.1651C168.104 10.5984 168.088 10.0711 168.072 9.58316C168.025 9.69334 167.978 9.80353 167.931 9.91371C167.884 10.0082 167.844 10.1105 167.813 10.2207L163.209 22.522H161.013Z" fill="url(#paint10_linear_1750_10082)"/>
<path d="M37.7875 11.047C37.5829 9.74056 37.1421 8.75677 36.4653 8.09566C35.8042 7.43455 34.9227 7.09612 33.8208 7.08038C33.0023 7.08038 32.2861 7.26927 31.6722 7.64705C31.0583 8.02482 30.5468 8.52853 30.1375 9.15816C29.744 9.78779 29.4449 10.504 29.2403 11.3068C29.0514 12.1095 28.9569 12.9359 28.9569 13.7859C28.9569 15.1396 29.1458 16.3438 29.5236 17.3984C29.9171 18.4373 30.4838 19.2558 31.2236 19.854C31.9634 20.4521 32.8606 20.7512 33.9153 20.7512C34.9069 20.7512 35.8907 20.4994 36.8667 19.9957C37.8426 19.4762 38.6611 18.76 39.3222 17.847L40.4556 18.8859C39.6843 19.9406 38.8736 20.7433 38.0236 21.2943C37.1736 21.8295 36.3393 22.1915 35.5208 22.3804C34.7181 22.5693 33.994 22.6637 33.3486 22.6637C32.1366 22.6637 31.0347 22.4512 30.0431 22.0262C29.0514 21.5855 28.1935 20.9873 27.4694 20.2318C26.7611 19.4605 26.2102 18.5711 25.8167 17.5637C25.4389 16.5406 25.25 15.4387 25.25 14.2582C25.25 13.1878 25.4231 12.1253 25.7694 11.0707C26.1157 10.016 26.6273 9.06371 27.3042 8.21371C27.9968 7.34797 28.8625 6.66325 29.9014 6.15955C30.9403 5.6401 32.1444 5.38038 33.5139 5.38038C34.1278 5.38038 34.7968 5.4827 35.5208 5.68733C36.2606 5.87621 36.9532 6.15955 37.5986 6.53732L37.5042 5.54566H39.3222V11.047H37.7875Z" stroke="#2C2A28" stroke-width="1.26249" mask="url(#path-4-outside-1_1750_10082)"/>
<path d="M49.7224 22.6637C48.227 22.6637 46.952 22.4119 45.8974 21.9082C44.8585 21.4044 44.0163 20.7355 43.371 19.9012C42.7256 19.0512 42.2534 18.1146 41.9543 17.0915C41.6552 16.0683 41.5057 15.0452 41.5057 14.022C41.5057 13.0304 41.671 12.0308 42.0015 11.0234C42.3478 10.0003 42.8594 9.06371 43.5362 8.21371C44.2288 7.36371 45.0946 6.67899 46.1335 6.15955C47.1724 5.6401 48.3923 5.38038 49.7932 5.38038C51.2256 5.38038 52.4612 5.6401 53.5001 6.15955C54.539 6.67899 55.389 7.37158 56.0501 8.23732C56.7112 9.08732 57.1992 10.016 57.514 11.0234C57.8446 12.0308 58.0099 13.0304 58.0099 14.022C58.0099 14.998 57.8367 15.9896 57.4904 16.997C57.1599 18.0045 56.6483 18.941 55.9557 19.8068C55.2788 20.6568 54.421 21.3494 53.3821 21.8845C52.3432 22.404 51.1233 22.6637 49.7224 22.6637ZM49.9821 20.9401C50.8006 20.9401 51.4853 20.7433 52.0362 20.3498C52.5872 19.9406 53.0279 19.4132 53.3585 18.7679C53.689 18.1225 53.9251 17.422 54.0668 16.6665C54.2085 15.8952 54.2793 15.1475 54.2793 14.4234C54.2793 13.3373 54.1849 12.3457 53.996 11.4484C53.8071 10.5512 53.5159 9.77992 53.1224 9.13455C52.7288 8.47343 52.2251 7.96973 51.6112 7.62344C51.0131 7.2614 50.3048 7.08825 49.4862 7.10399C48.6835 7.11973 48.0066 7.3401 47.4557 7.7651C46.9048 8.17436 46.464 8.70955 46.1335 9.37066C45.8029 10.016 45.5668 10.7244 45.4251 11.4957C45.2835 12.267 45.2126 13.0146 45.2126 13.7387C45.2126 14.4785 45.2913 15.2656 45.4487 16.0998C45.6219 16.9341 45.8895 17.7211 46.2515 18.4609C46.6136 19.2007 47.1015 19.7989 47.7154 20.2554C48.3293 20.7119 49.0849 20.9401 49.9821 20.9401Z" stroke="#2C2A28" stroke-width="1.26249" mask="url(#path-4-outside-1_1750_10082)"/>
<path d="M59.7296 22.2859V20.7276C60.0916 20.7119 60.3907 20.6646 60.6268 20.5859C60.8787 20.5072 61.0676 20.3262 61.1935 20.0429C61.3351 19.7595 61.406 19.3031 61.406 18.6734V9.63038C61.406 9.20538 61.4138 8.79612 61.4296 8.4026C61.4611 8.00908 61.4847 7.71001 61.5004 7.50538C61.2486 7.52112 60.9338 7.53686 60.556 7.5526C60.1782 7.5526 59.9027 7.56047 59.7296 7.57621V5.75816H66.506V7.31649C66.1597 7.33223 65.8606 7.37945 65.6088 7.45816C65.3569 7.53686 65.1601 7.71788 65.0185 8.00121C64.8926 8.26881 64.8296 8.72529 64.8296 9.37066V18.4137C64.8296 18.8387 64.8217 19.2401 64.806 19.6179C64.7902 19.9957 64.7666 20.2869 64.7351 20.4915H67.899C68.8277 20.4915 69.5518 20.1688 70.0713 19.5234C70.6064 18.8781 70.874 17.91 70.874 16.6193H72.456L72.3143 22.2859H59.7296Z" stroke="#2C2A28" stroke-width="1.26249" mask="url(#path-4-outside-1_1750_10082)"/>
<path d="M81.8418 22.6637C80.3464 22.6637 79.0714 22.4119 78.0168 21.9082C76.9779 21.4044 76.1357 20.7355 75.4904 19.9012C74.845 19.0512 74.3728 18.1146 74.0737 17.0915C73.7746 16.0683 73.6251 15.0452 73.6251 14.022C73.6251 13.0304 73.7904 12.0308 74.1209 11.0234C74.4672 10.0003 74.9788 9.06371 75.6556 8.21371C76.3482 7.36371 77.214 6.67899 78.2529 6.15955C79.2918 5.6401 80.5117 5.38038 81.9126 5.38038C83.345 5.38038 84.5806 5.6401 85.6195 6.15955C86.6584 6.67899 87.5084 7.37158 88.1695 8.23732C88.8306 9.08732 89.3186 10.016 89.6334 11.0234C89.964 12.0308 90.1293 13.0304 90.1293 14.022C90.1293 14.998 89.9561 15.9896 89.6098 16.997C89.2793 18.0045 88.7677 18.941 88.0751 19.8068C87.3982 20.6568 86.5404 21.3494 85.5015 21.8845C84.4626 22.404 83.2427 22.6637 81.8418 22.6637ZM82.1015 20.9401C82.92 20.9401 83.6047 20.7433 84.1556 20.3498C84.7066 19.9406 85.1473 19.4132 85.4779 18.7679C85.8084 18.1225 86.0445 17.422 86.1862 16.6665C86.3279 15.8952 86.3987 15.1475 86.3987 14.4234C86.3987 13.3373 86.3043 12.3457 86.1154 11.4484C85.9265 10.5512 85.6353 9.77992 85.2418 9.13455C84.8482 8.47343 84.3445 7.96973 83.7306 7.62344C83.1325 7.2614 82.4242 7.08825 81.6056 7.10399C80.8029 7.11973 80.126 7.3401 79.5751 7.7651C79.0242 8.17436 78.5834 8.70955 78.2529 9.37066C77.9223 10.016 77.6862 10.7244 77.5445 11.4957C77.4029 12.267 77.332 13.0146 77.332 13.7387C77.332 14.4785 77.4107 15.2656 77.5681 16.0998C77.7413 16.9341 78.0089 17.7211 78.3709 18.4609C78.733 19.2007 79.2209 19.7989 79.8348 20.2554C80.4487 20.7119 81.2043 20.9401 82.1015 20.9401Z" stroke="#2C2A28" stroke-width="1.26249" mask="url(#path-4-outside-1_1750_10082)"/>
<path d="M97.1548 25.922L97.1312 22.5929C96.6433 22.5142 96.1396 22.3882 95.6201 22.2151C95.1007 22.0262 94.6127 21.7901 94.1562 21.5068L94.2035 22.4984H92.3854V16.9734H93.9201C94.1405 18.2957 94.6127 19.2952 95.3368 19.972C96.0609 20.6332 96.9738 20.9637 98.0757 20.9637C98.9099 20.9637 99.5553 20.7433 100.012 20.3026C100.468 19.8461 100.697 19.2794 100.697 18.6026C100.697 18.0674 100.531 17.6345 100.201 17.304C99.8859 16.9734 99.4609 16.6901 98.9257 16.454C98.4062 16.2021 97.8474 15.9582 97.2493 15.722C96.3363 15.3443 95.4863 14.9035 94.6993 14.3998C93.928 13.8804 93.3062 13.2586 92.834 12.5345C92.3618 11.7947 92.1257 10.9132 92.1257 9.8901C92.1257 9.41788 92.1965 8.92992 92.3382 8.42621C92.4799 7.92251 92.7238 7.45029 93.0701 7.00955C93.4164 6.56881 93.8965 6.1989 94.5104 5.89983C95.1243 5.60075 95.9035 5.4276 96.8479 5.38038V2.52344H99.0673L99.0437 5.61649C99.39 5.71094 99.7206 5.82899 100.035 5.97066C100.366 6.11232 100.673 6.29334 100.956 6.51371L100.885 5.54566H102.727V11.047H101.169C101.027 10.1656 100.799 9.43362 100.484 8.85121C100.185 8.25306 99.7836 7.80445 99.2799 7.50538C98.7761 7.20631 98.1544 7.06464 97.4146 7.08038C96.9738 7.08038 96.5882 7.16695 96.2576 7.3401C95.9271 7.51325 95.6674 7.75723 95.4785 8.07205C95.2896 8.37112 95.1951 8.71742 95.1951 9.11093C95.1951 9.5989 95.3053 10.016 95.5257 10.3623C95.7461 10.6929 96.116 11.0156 96.6354 11.3304C97.1706 11.6452 97.8868 12.0072 98.784 12.4165C99.3664 12.6683 99.9567 12.9595 100.555 13.2901C101.153 13.6049 101.696 13.9748 102.184 14.3998C102.688 14.8248 103.089 15.3207 103.388 15.8873C103.687 16.454 103.837 17.123 103.837 17.8943C103.837 18.7128 103.664 19.4526 103.317 20.1137C102.971 20.7748 102.459 21.3179 101.783 21.7429C101.122 22.1679 100.303 22.4512 99.3271 22.5929L99.3035 25.922H97.1548Z" stroke="#2C2A28" stroke-width="1.26249" mask="url(#path-4-outside-1_1750_10082)"/>
<path d="M111.036 25.922L111.012 22.5929C110.524 22.5142 110.02 22.3882 109.501 22.2151C108.981 22.0262 108.493 21.7901 108.037 21.5068L108.084 22.4984H106.266V16.9734H107.801C108.021 18.2957 108.493 19.2952 109.218 19.972C109.942 20.6332 110.855 20.9637 111.956 20.9637C112.791 20.9637 113.436 20.7433 113.893 20.3026C114.349 19.8461 114.577 19.2794 114.577 18.6026C114.577 18.0674 114.412 17.6345 114.081 17.304C113.767 16.9734 113.342 16.6901 112.806 16.454C112.287 16.2021 111.728 15.9582 111.13 15.722C110.217 15.3443 109.367 14.9035 108.58 14.3998C107.809 13.8804 107.187 13.2586 106.715 12.5345C106.243 11.7947 106.006 10.9132 106.006 9.8901C106.006 9.41788 106.077 8.92992 106.219 8.42621C106.361 7.92251 106.605 7.45029 106.951 7.00955C107.297 6.56881 107.777 6.1989 108.391 5.89983C109.005 5.60075 109.784 5.4276 110.729 5.38038V2.52344H112.948L112.924 5.61649C113.271 5.71094 113.601 5.82899 113.916 5.97066C114.247 6.11232 114.554 6.29334 114.837 6.51371L114.766 5.54566H116.608V11.047H115.049C114.908 10.1656 114.68 9.43362 114.365 8.85121C114.066 8.25306 113.664 7.80445 113.161 7.50538C112.657 7.20631 112.035 7.06464 111.295 7.08038C110.855 7.08038 110.469 7.16695 110.138 7.3401C109.808 7.51325 109.548 7.75723 109.359 8.07205C109.17 8.37112 109.076 8.71742 109.076 9.11093C109.076 9.5989 109.186 10.016 109.406 10.3623C109.627 10.6929 109.997 11.0156 110.516 11.3304C111.051 11.6452 111.768 12.0072 112.665 12.4165C113.247 12.6683 113.837 12.9595 114.436 13.2901C115.034 13.6049 115.577 13.9748 116.065 14.3998C116.568 14.8248 116.97 15.3207 117.269 15.8873C117.568 16.454 117.718 17.123 117.718 17.8943C117.718 18.7128 117.544 19.4526 117.198 20.1137C116.852 20.7748 116.34 21.3179 115.663 21.7429C115.002 22.1679 114.184 22.4512 113.208 22.5929L113.184 25.922H111.036Z" stroke="#2C2A28" stroke-width="1.26249" mask="url(#path-4-outside-1_1750_10082)"/>
<path d="M127.915 16.5957C127.915 15.9345 127.813 15.4545 127.608 15.1554C127.403 14.8563 127.12 14.6753 126.758 14.6123C126.412 14.5336 126.026 14.5021 125.601 14.5179L124.987 14.5415V18.4137C124.987 18.8387 124.979 19.2401 124.964 19.6179C124.948 19.9957 124.924 20.2869 124.893 20.4915H128.057C128.529 20.4915 128.985 20.3892 129.426 20.1845C129.867 19.9642 130.229 19.61 130.512 19.122C130.796 18.6183 130.937 17.9415 130.937 17.0915H132.472L132.354 22.2859H119.887V20.7276C120.249 20.7119 120.548 20.6646 120.784 20.5859C121.036 20.5072 121.225 20.3262 121.351 20.0429C121.493 19.7595 121.564 19.3031 121.564 18.6734V9.63038C121.564 9.20538 121.571 8.79612 121.587 8.4026C121.619 8.00908 121.642 7.71001 121.658 7.50538C121.406 7.52112 121.091 7.53686 120.714 7.5526C120.336 7.5526 120.06 7.56047 119.887 7.57621V5.75816H131.693L131.834 10.3387H130.276C130.276 9.47297 130.127 8.81973 129.827 8.37899C129.528 7.93825 129.158 7.64705 128.718 7.50538C128.277 7.34797 127.844 7.27714 127.419 7.29288L126.569 7.31649C126.239 7.31649 125.955 7.36371 125.719 7.45816C125.483 7.53686 125.302 7.72575 125.176 8.02482C125.05 8.30816 124.987 8.75677 124.987 9.37066V12.9123H127.75L127.655 10.8582H129.473V16.5957H127.915Z" stroke="#2C2A28" stroke-width="1.26249" mask="url(#path-4-outside-1_1750_10082)"/>
<path d="M140.831 7.31649C140.484 7.33223 140.185 7.37945 139.934 7.45816C139.682 7.53686 139.485 7.71788 139.343 8.00121C139.217 8.26881 139.154 8.72529 139.154 9.37066V15.8637C139.154 16.8554 139.257 17.6739 139.461 18.3193C139.682 18.9489 139.965 19.4526 140.311 19.8304C140.673 20.1924 141.075 20.4521 141.515 20.6095C141.972 20.767 142.436 20.8535 142.909 20.8693C143.774 20.9007 144.514 20.7355 145.128 20.3734C145.742 20.0114 146.214 19.4526 146.545 18.697C146.875 17.9415 147.04 16.9813 147.04 15.8165V9.63038C147.04 9.20538 147.048 8.79612 147.064 8.4026C147.08 8.00908 147.103 7.71001 147.135 7.50538C146.883 7.52112 146.56 7.53686 146.167 7.5526C145.789 7.5526 145.514 7.56047 145.34 7.57621V5.75816H150.818V7.31649C150.472 7.33223 150.173 7.37945 149.921 7.45816C149.669 7.53686 149.472 7.71788 149.331 8.00121C149.205 8.26881 149.142 8.72529 149.142 9.37066V15.2734C149.142 16.6271 148.977 17.7762 148.646 18.7207C148.315 19.6651 147.851 20.4285 147.253 21.0109C146.655 21.5933 145.954 22.0183 145.152 22.2859C144.349 22.5378 143.475 22.6637 142.531 22.6637C141.209 22.6637 140.107 22.4748 139.225 22.097C138.344 21.7193 137.643 21.1919 137.124 20.5151C136.62 19.8382 136.258 19.0591 136.038 18.1776C135.833 17.2961 135.731 16.3517 135.731 15.3443V9.63038C135.731 9.20538 135.739 8.79612 135.754 8.4026C135.786 8.00908 135.809 7.71001 135.825 7.50538C135.573 7.52112 135.259 7.53686 134.881 7.5526C134.503 7.5526 134.228 7.56047 134.054 7.57621V5.75816H140.831V7.31649Z" stroke="#2C2A28" stroke-width="1.26249" mask="url(#path-4-outside-1_1750_10082)"/>
<path d="M161.013 22.522C160.478 21.2156 159.942 19.917 159.407 18.6262C158.888 17.3355 158.36 16.0447 157.825 14.754C157.699 14.4549 157.534 14.0378 157.329 13.5026C157.141 12.9517 156.936 12.322 156.716 11.6137C156.511 10.9054 156.322 10.1734 156.149 9.41788C156.18 10.2994 156.204 11.1336 156.22 11.9207C156.235 12.692 156.235 13.4318 156.22 14.1401C156.22 14.4864 156.22 14.8406 156.22 15.2026C156.22 15.5646 156.212 15.9267 156.196 16.2887C156.196 16.635 156.196 16.9892 156.196 17.3512C156.196 17.6975 156.196 18.0517 156.196 18.4137C156.196 18.8387 156.18 19.248 156.149 19.6415C156.133 20.035 156.109 20.3341 156.078 20.5387C156.346 20.5072 156.668 20.4915 157.046 20.4915C157.44 20.4757 157.715 20.4679 157.872 20.4679V22.2859H152.489V20.7276C152.851 20.7119 153.15 20.6646 153.386 20.5859C153.638 20.5072 153.827 20.3262 153.953 20.0429C154.095 19.7595 154.166 19.3031 154.166 18.6734L154.307 9.63038C154.323 9.20538 154.339 8.79612 154.354 8.4026C154.37 8.00908 154.386 7.71001 154.402 7.50538C154.15 7.52112 153.835 7.53686 153.457 7.5526C153.079 7.5526 152.804 7.56047 152.631 7.57621V5.75816H157.849L161.414 14.8957C161.556 15.2577 161.713 15.6827 161.886 16.1707C162.059 16.6429 162.225 17.1072 162.382 17.5637C162.54 18.0045 162.658 18.3586 162.736 18.6262H162.76C162.965 18.0753 163.153 17.5401 163.327 17.0207C163.5 16.5012 163.681 15.9975 163.87 15.5095C164.484 13.8725 165.09 12.2433 165.688 10.622C166.302 9.00075 166.916 7.37945 167.529 5.75816H172.984V7.31649C172.637 7.33223 172.33 7.37945 172.063 7.45816C171.795 7.53686 171.591 7.71788 171.449 8.00121C171.323 8.26881 171.268 8.72529 171.284 9.37066L171.638 18.4137C171.669 18.8387 171.669 19.248 171.638 19.6415C171.606 20.035 171.575 20.3341 171.543 20.5387C171.811 20.5072 172.134 20.4915 172.511 20.4915C172.905 20.4757 173.18 20.4679 173.338 20.4679V22.2859H166.774V20.7276C167.136 20.7119 167.443 20.6646 167.695 20.5859C167.962 20.5072 168.159 20.3262 168.285 20.0429C168.427 19.7595 168.482 19.3031 168.45 18.6734L168.261 13.6679C168.261 13.479 168.246 13.1563 168.214 12.6998C168.183 12.2276 168.151 11.716 168.12 11.1651C168.104 10.5984 168.088 10.0711 168.072 9.58316C168.025 9.69334 167.978 9.80353 167.931 9.91371C167.884 10.0082 167.844 10.1105 167.813 10.2207L163.209 22.522H161.013Z" stroke="#2C2A28" stroke-width="1.26249" mask="url(#path-4-outside-1_1750_10082)"/>
<defs>
<linearGradient id="paint0_linear_1750_10082" x1="28.061" y1="39.7616" x2="41.243" y2="24.3497" gradientUnits="userSpaceOnUse">
<stop stop-color="#C89328"/>
<stop offset="0.505" stop-color="#F8EEBD"/>
<stop offset="1" stop-color="#E0C173"/>
</linearGradient>
<linearGradient id="paint1_linear_1750_10082" x1="170.783" y1="39.7616" x2="157.601" y2="24.3497" gradientUnits="userSpaceOnUse">
<stop stop-color="#C89328"/>
<stop offset="0.505" stop-color="#F8EEBD"/>
<stop offset="1" stop-color="#E0C173"/>
</linearGradient>
<linearGradient id="paint2_linear_1750_10082" x1="25.25" y1="20.1174" x2="163.235" y2="-23.5772" gradientUnits="userSpaceOnUse">
<stop stop-color="#C89328"/>
<stop offset="0.505" stop-color="#F8EEBD"/>
<stop offset="1" stop-color="#E0C173"/>
</linearGradient>
<linearGradient id="paint3_linear_1750_10082" x1="25.25" y1="20.1174" x2="163.235" y2="-23.5772" gradientUnits="userSpaceOnUse">
<stop stop-color="#C89328"/>
<stop offset="0.505" stop-color="#F8EEBD"/>
<stop offset="1" stop-color="#E0C173"/>
</linearGradient>
<linearGradient id="paint4_linear_1750_10082" x1="25.25" y1="20.1174" x2="163.235" y2="-23.5772" gradientUnits="userSpaceOnUse">
<stop stop-color="#C89328"/>
<stop offset="0.505" stop-color="#F8EEBD"/>
<stop offset="1" stop-color="#E0C173"/>
</linearGradient>
<linearGradient id="paint5_linear_1750_10082" x1="25.25" y1="20.1174" x2="163.235" y2="-23.5772" gradientUnits="userSpaceOnUse">
<stop stop-color="#C89328"/>
<stop offset="0.505" stop-color="#F8EEBD"/>
<stop offset="1" stop-color="#E0C173"/>
</linearGradient>
<linearGradient id="paint6_linear_1750_10082" x1="25.25" y1="20.1174" x2="163.235" y2="-23.5772" gradientUnits="userSpaceOnUse">
<stop stop-color="#C89328"/>
<stop offset="0.505" stop-color="#F8EEBD"/>
<stop offset="1" stop-color="#E0C173"/>
</linearGradient>
<linearGradient id="paint7_linear_1750_10082" x1="25.25" y1="20.1174" x2="163.235" y2="-23.5772" gradientUnits="userSpaceOnUse">
<stop stop-color="#C89328"/>
<stop offset="0.505" stop-color="#F8EEBD"/>
<stop offset="1" stop-color="#E0C173"/>
</linearGradient>
<linearGradient id="paint8_linear_1750_10082" x1="25.25" y1="20.1174" x2="163.235" y2="-23.5772" gradientUnits="userSpaceOnUse">
<stop stop-color="#C89328"/>
<stop offset="0.505" stop-color="#F8EEBD"/>
<stop offset="1" stop-color="#E0C173"/>
</linearGradient>
<linearGradient id="paint9_linear_1750_10082" x1="25.25" y1="20.1174" x2="163.235" y2="-23.5772" gradientUnits="userSpaceOnUse">
<stop stop-color="#C89328"/>
<stop offset="0.505" stop-color="#F8EEBD"/>
<stop offset="1" stop-color="#E0C173"/>
</linearGradient>
<linearGradient id="paint10_linear_1750_10082" x1="25.25" y1="20.1174" x2="163.235" y2="-23.5772" gradientUnits="userSpaceOnUse">
<stop stop-color="#C89328"/>
<stop offset="0.505" stop-color="#F8EEBD"/>
<stop offset="1" stop-color="#E0C173"/>
</linearGradient>
</defs>
</svg>
