<svg width="128" height="52" viewBox="0 0 128 52" fill="none" xmlns="http://www.w3.org/2000/svg">
<mask id="path-1-outside-1_2328_9389" maskUnits="userSpaceOnUse" x="0" y="8.77344" width="64" height="25" fill="black">
<rect fill="white" y="8.77344" width="64" height="25"/>
<path d="M5.27896 32.4425C4.98332 32.4824 4.73755 32.4177 4.54166 32.2484C4.34676 32.0866 4.23089 31.8689 4.19404 31.5954C4.16515 31.3811 4.17422 31.1691 4.22124 30.9596C4.26825 30.7501 4.33944 30.5524 4.43479 30.3665L7.77074 20.6947C8.0744 20.0442 8.40075 19.5901 8.74981 19.3323C9.10526 19.0662 9.38646 18.9192 9.59341 18.8913C9.926 18.8465 10.1755 18.9107 10.3418 19.0839C10.5081 19.2572 10.6092 19.4768 10.6451 19.7429C10.7038 20.179 10.6279 20.6483 10.4171 21.1508C10.2394 21.6187 10.0391 22.1424 9.81612 22.7218C9.59219 23.2938 9.2774 24.0849 8.87173 25.0953C8.49207 26.0194 8.10153 26.9186 7.70012 27.793C7.3051 28.659 6.9144 29.4453 6.52803 30.1521C7.67988 29.8765 8.74513 29.3491 9.72378 28.5701C10.7024 27.791 11.5365 26.8884 12.226 25.8624C12.9101 24.8521 13.4099 23.814 13.7253 22.7481C14.0471 21.6737 14.1507 20.7116 14.0362 19.8616C13.9027 18.8712 13.5455 18.0916 12.9647 17.5227C12.3838 16.9538 11.576 16.739 10.5413 16.8785C9.90562 16.9641 9.27675 17.1279 8.65465 17.3698C8.03993 17.6106 7.48073 17.9005 6.97704 18.2393C6.47235 18.5707 6.06454 18.9229 5.75359 19.2959C5.46341 19.7112 5.24435 20.0681 5.09643 20.3665C4.9559 20.6639 4.7777 20.9889 4.56184 21.3416C4.37497 21.6301 4.16685 21.8726 3.93746 22.0691C3.70808 22.2656 3.42339 22.3867 3.0834 22.4325C2.44777 22.5182 2.09211 22.2802 2.01641 21.7185C1.9437 21.1789 2.11261 20.5616 2.52315 19.8667C2.94108 19.1707 3.53718 18.4846 4.31146 17.8083C5.07933 17.1404 5.9969 16.5502 7.06414 16.0377C8.13138 15.5251 9.26368 15.1881 10.461 15.0268C11.7323 14.8555 12.811 14.9584 13.6971 15.3357C14.5897 15.7045 15.2913 16.276 15.802 17.05C16.32 17.823 16.6478 18.7195 16.7852 19.7395C16.9237 20.7668 16.8368 21.881 16.5245 23.082C16.2187 24.2746 15.6883 25.4485 14.9334 26.6037C14.185 27.7506 13.2212 28.7798 12.0422 29.6912C11.156 30.375 10.1473 30.9587 9.01592 31.4423C7.88457 31.9259 6.63891 32.2593 5.27896 32.4425Z"/>
<path d="M19.7941 30.3397C19.4984 30.3796 19.1512 30.3436 18.7523 30.2318C18.3618 30.1264 18.0065 29.9184 17.6862 29.6079C17.3659 29.2973 17.1674 28.8575 17.0907 28.2884C17.029 27.8302 17.0604 27.254 17.1851 26.5599C17.3172 25.8649 17.5649 25.1617 17.9281 24.4506C18.2977 23.731 18.8115 23.1049 19.4697 22.5722C20.1269 22.0321 20.9285 21.6983 21.8746 21.5708C22.2515 21.52 22.6601 21.5365 23.1003 21.6201C23.5479 21.7028 23.9456 21.89 24.2935 22.1818C24.6403 22.4661 24.8526 22.8966 24.9303 23.4731C24.9941 23.9461 24.95 24.5127 24.7981 25.1728C24.9531 25.3175 25.1525 25.3734 25.3964 25.3405C25.6256 25.3096 25.8792 25.1814 26.1573 24.9557C26.4354 24.7301 26.7044 24.4644 26.9642 24.1585C27.2314 23.8515 27.469 23.5486 27.677 23.2497C27.8925 22.9497 28.0594 22.709 28.178 22.5275C28.2227 22.4687 28.2821 22.4344 28.356 22.4244C28.5186 22.4025 28.6508 22.4901 28.7526 22.6871C28.8544 22.8841 28.875 23.1484 28.8143 23.4802C28.7527 23.8046 28.5558 24.1584 28.2237 24.5418C28.0338 24.8082 27.7997 25.137 27.5213 25.5282C27.2493 25.911 26.9427 26.2609 26.6017 26.5778C26.267 26.8863 25.9075 27.0664 25.5231 27.1182C25.1314 27.171 24.7449 27.0951 24.3637 26.8907C23.9323 27.8217 23.3291 28.5953 22.5543 29.2115C21.7784 29.8202 20.8584 30.1963 19.7941 30.3397ZM20.4971 28.2696C20.9628 28.2068 21.3779 27.9929 21.7426 27.6277C22.1073 27.2625 22.3834 26.8264 22.5709 26.3195C22.7585 25.8126 22.8189 25.3116 22.7522 24.8164C22.7263 24.6242 22.6772 24.4276 22.605 24.2267C22.5391 24.0173 22.4265 23.8519 22.2672 23.7304C22.1068 23.6015 21.8714 23.5579 21.561 23.5998C21.1028 23.6615 20.6903 23.8676 20.3236 24.218C19.956 24.5611 19.6742 24.9828 19.4782 25.4833C19.2887 25.9754 19.2278 26.4728 19.2955 26.9754C19.3204 27.1602 19.3705 27.3641 19.4457 27.5873C19.5199 27.803 19.6382 27.9827 19.8006 28.1264C19.9693 28.2617 20.2015 28.3094 20.4971 28.2696Z"/>
<path d="M28.8961 29.1131C28.4157 29.1779 27.9679 29.1216 27.5527 28.9442C27.1449 28.7659 26.8981 28.3589 26.8125 27.7233C26.8055 27.6716 26.8078 27.5208 26.8192 27.2709C26.8381 27.02 26.885 26.6976 26.9598 26.3037C27.0523 25.8172 27.2145 25.1783 27.4465 24.3869C27.6785 23.5956 28.0258 22.627 28.4885 21.481C28.6058 21.1792 28.7563 20.9557 28.9399 20.8106C29.13 20.6571 29.3432 20.5644 29.5797 20.5325C29.8162 20.5006 30.0422 20.5304 30.2577 20.6217C30.4722 20.7057 30.5939 20.8548 30.6228 21.0692C30.6328 21.1431 30.6312 21.2148 30.6179 21.2843C30.5891 21.4613 30.484 21.7426 30.3027 22.1282C30.1288 22.5129 29.9338 22.9643 29.7177 23.4826C29.505 23.9703 29.3226 24.4878 29.1706 25.0351C29.026 25.5813 28.9735 26.0851 29.013 26.5463C29.031 26.6793 29.0844 26.7963 29.1732 26.8972C29.2621 26.9981 29.3915 27.0371 29.5615 27.0142C30.0419 26.9495 30.479 26.7589 30.8728 26.4424C31.273 26.1176 31.6347 25.7302 31.9579 25.2803C32.2801 24.823 32.5586 24.349 32.7935 23.8583C33.0283 23.3676 33.2202 22.9203 33.3689 22.5165C33.5089 22.159 33.6237 21.7823 33.7133 21.3864C33.8019 20.9832 33.9239 20.6319 34.0792 20.3325C34.2346 20.0331 34.4748 19.8615 34.8 19.8177C35.0661 19.7818 35.2882 19.8385 35.4663 19.9875C35.6444 20.1366 35.7494 20.3294 35.7813 20.5659C35.8072 20.7581 35.7419 21.0829 35.5853 21.5405C35.4351 21.9897 35.2641 22.4793 35.0721 23.0094C34.8684 23.5636 34.6994 24.1244 34.5651 24.6919C34.4373 25.2509 34.4012 25.7374 34.457 26.1513C34.4929 26.4174 34.6734 26.5285 34.9986 26.4847C35.4938 26.4179 36.1025 26.0763 36.8246 25.4597C37.1623 25.1734 37.494 24.8428 37.8197 24.4678C38.1528 24.0917 38.4381 23.6958 38.6756 23.2801L38.9896 24.7729C38.5711 25.4087 38.0437 26.0179 37.4072 26.6003C36.7772 27.1744 36.1497 27.6277 35.5248 27.9602C34.8797 28.3105 34.3186 28.4464 33.8414 28.3677C33.3642 28.289 33.0793 27.906 32.9867 27.2186C32.9399 26.8712 32.9457 26.4678 33.0042 26.0084C32.8037 26.4192 32.5192 26.8489 32.1507 27.2974C31.7812 27.7385 31.3256 28.1273 30.784 28.4636C30.2497 28.799 29.6205 29.0155 28.8961 29.1131Z"/>
<path d="M40.0923 27.7623C39.1906 27.8839 38.5263 27.7288 38.0994 27.2972C37.6725 26.8656 37.4142 26.3172 37.3246 25.652C37.2738 25.275 37.2695 24.8805 37.3118 24.4685C37.3531 24.049 37.426 23.6403 37.5304 23.2425L37.8944 21.8389C37.9346 21.6905 37.977 21.5305 38.0216 21.3589C38.0652 21.18 38.1233 20.969 38.1959 20.7259L40.4636 13.0944C40.5254 12.8829 40.6646 12.6873 40.8811 12.5076C41.1051 12.3269 41.3465 12.2192 41.6052 12.1843C41.9451 12.1385 42.1906 12.1731 42.3416 12.2883C42.4999 12.4024 42.5921 12.5555 42.618 12.7477C42.6379 12.8955 42.6228 13.0631 42.5728 13.2504C42.5218 13.4304 42.462 13.6002 42.3932 13.76C42.1904 14.3216 41.9956 14.886 41.8086 15.453C41.6216 16.02 41.4425 16.5897 41.2713 17.1621C41.1001 17.7345 40.9216 18.3079 40.7356 18.8824C40.5496 19.4568 40.3552 20.0248 40.1525 20.5864C40.5683 20.1541 41.0515 19.7466 41.6019 19.3639C42.1524 18.9812 42.7491 18.7465 43.3921 18.6598C43.6952 18.619 44.0086 18.6557 44.3326 18.7701C44.6639 18.8835 44.953 19.0741 45.1998 19.3418C45.454 19.6086 45.6105 19.96 45.6692 20.3961C45.6871 20.5291 45.6752 20.7753 45.6333 21.1346C45.5914 21.494 45.523 21.8794 45.4279 22.2911C45.3393 22.6943 45.221 23.0452 45.0731 23.3435C45.1358 23.4179 45.2093 23.4606 45.2936 23.4719C45.3769 23.4757 45.4702 23.4706 45.5737 23.4567C46.0172 23.3969 46.4438 23.2679 46.8535 23.0697C47.2697 22.8631 47.6459 22.6394 47.9822 22.3984C48.3258 22.1564 48.6096 21.9451 48.8336 21.7644C48.9094 21.6564 48.999 21.5954 49.1025 21.5814C49.2281 21.5645 49.3427 21.6055 49.4464 21.7044C49.5574 21.8023 49.6249 21.94 49.6488 22.1174C49.6717 22.2874 49.6576 22.4623 49.6066 22.6423C49.562 22.8138 49.4608 23.0119 49.3029 23.2363C48.7043 23.7083 48.0775 24.1389 47.4226 24.5282C46.7667 24.9101 46.0655 25.1513 45.319 25.2519C44.8312 25.3177 44.421 25.2337 44.0885 25.0001C43.5619 25.8386 42.9677 26.4831 42.3059 26.9335C41.6506 27.3755 40.9127 27.6518 40.0923 27.7623ZM40.6304 25.5564C41.2069 25.4787 41.7304 25.2313 42.201 24.8142C42.6705 24.3897 43.0284 23.89 43.2745 23.315C43.527 22.7316 43.6159 22.1628 43.5411 21.6085C43.5113 21.3867 43.4319 21.1604 43.3029 20.9294C43.174 20.6985 42.9247 20.6079 42.5551 20.6577C41.9934 20.7334 41.463 20.9855 40.9639 21.414C40.4637 21.835 40.0727 22.3393 39.7906 22.9266C39.5075 23.5066 39.4039 24.0774 39.4796 24.6391C39.5134 24.8904 39.6049 25.1227 39.7541 25.3359C39.9096 25.5407 40.2017 25.6142 40.6304 25.5564Z"/>
<path d="M48.8963 26.4179C48.2903 26.4995 47.8523 26.4043 47.5823 26.1321C47.3197 25.859 47.1591 25.5044 47.1003 25.0683C47.0515 24.7061 47.0534 24.3296 47.1061 23.9387C47.1652 23.5395 47.2472 23.1709 47.3522 22.8332C47.5332 22.2219 47.7184 21.6137 47.9078 21.0087C48.0972 20.4037 48.2708 19.8498 48.4288 19.3469L50.8244 11.7434C50.9446 11.3509 51.1672 11.0763 51.4923 10.9196C51.8173 10.763 52.1292 10.7322 52.428 10.8274C52.7332 10.9142 52.9087 11.1276 52.9545 11.4676C52.9725 11.6006 52.9581 11.7455 52.9115 11.9023C52.8723 12.0581 52.8161 12.2275 52.7429 12.4104C52.5446 12.9489 52.2938 13.6562 51.9904 14.5324C51.6945 15.4076 51.3681 16.3922 51.0114 17.4863C50.6242 18.6898 50.2976 19.7008 50.0317 20.5193C49.7721 21.3294 49.5292 22.0958 49.303 22.8186C49.2447 22.9996 49.1902 23.2101 49.1398 23.4502C49.0958 23.6819 49.0857 23.8864 49.1096 24.0638C49.1425 24.3077 49.2661 24.4152 49.4804 24.3863C49.717 24.3545 50.0181 24.2161 50.384 23.9711C50.7562 23.7178 51.1367 23.4144 51.5256 23.061C51.9228 22.7139 52.3037 22.3578 52.6684 21.9926C53.0321 21.62 53.3677 21.2625 53.6752 20.92C53.7805 20.808 53.9145 20.7411 54.0771 20.7191C54.4171 20.6733 54.6125 20.8389 54.6633 21.2158C54.6842 21.371 54.6559 21.5517 54.5783 21.7578C54.5007 21.9639 54.345 22.1768 54.1112 22.3964C53.697 22.8963 53.276 23.3744 52.8484 23.8309C52.4272 24.279 51.9968 24.6869 51.5572 25.0547C51.124 25.414 50.6828 25.7143 50.2337 25.9554C49.7856 26.204 49.3398 26.3581 48.8963 26.4179Z"/>
<path d="M55.7146 25.499C55.1233 25.5787 54.5976 25.5028 54.1375 25.2713C53.6837 25.0315 53.3141 24.69 53.0286 24.2468C52.7495 23.7953 52.5732 23.2961 52.4995 22.7491C52.4347 22.2687 52.4992 21.7144 52.693 21.0863C52.8932 20.4498 53.2151 19.8232 53.6588 19.2065C54.1025 18.5898 54.6589 18.0558 55.328 17.6044C56.0035 17.1447 56.7662 16.8575 57.6162 16.743C58.2297 16.6603 58.7078 16.7464 59.0507 17.0012C59.3936 17.256 59.6004 17.6457 59.6711 18.1705C59.7129 18.4809 59.6755 18.8171 59.5587 19.179C59.4419 19.5409 59.2073 19.9224 58.855 20.3236C58.5037 20.7322 58.0167 21.1665 57.3939 21.6267C56.7775 22.0785 55.9916 22.5569 55.0362 23.0619C55.1793 23.5092 55.5797 23.6886 56.2375 23.5999C56.7475 23.5312 57.2842 23.3535 57.8476 23.0669C58.41 22.7729 58.9462 22.4523 59.4563 22.1051C59.9674 21.7653 60.4029 21.4508 60.7627 21.1614C61.1226 20.8721 61.3375 20.7077 61.4074 20.6682C61.4679 20.6149 61.5236 20.5811 61.5743 20.5667C61.6325 20.5513 61.6837 20.5407 61.728 20.5347C61.9054 20.5108 62.0368 20.5646 62.1223 20.696C62.2141 20.8191 62.266 20.925 62.278 21.0137C62.2869 21.0802 62.2905 21.1625 62.2887 21.2606C62.2858 21.3513 62.2443 21.4622 62.1642 21.5934C62.0811 21.7025 61.8286 21.9509 61.4068 22.3389C60.985 22.7269 60.5284 23.1082 60.0371 23.483C59.4355 23.9328 58.755 24.3556 57.9956 24.7514C57.2362 25.1472 56.4759 25.3964 55.7146 25.499ZM54.6981 21.8094C55.1447 21.4934 55.5931 21.1357 56.0435 20.7363C56.5003 20.3286 56.8476 20.0297 57.0853 19.8397C57.4028 19.5711 57.6056 19.3444 57.6935 19.1594C57.7943 18.9577 57.8362 18.7941 57.8193 18.6684C57.8043 18.5575 57.7554 18.4738 57.6725 18.4173C57.597 18.3597 57.514 18.3295 57.4233 18.3267L57.322 18.3291L57.2222 18.3425C56.8157 18.3973 56.4547 18.5663 56.1392 18.8497C55.8301 19.1246 55.5807 19.4517 55.391 19.8309C55.1885 20.227 55.0311 20.5944 54.9187 20.9331C54.8137 21.2708 54.7402 21.5629 54.6981 21.8094Z"/>
</mask>
<path d="M5.27896 32.4425C4.98332 32.4824 4.73755 32.4177 4.54166 32.2484C4.34676 32.0866 4.23089 31.8689 4.19404 31.5954C4.16515 31.3811 4.17422 31.1691 4.22124 30.9596C4.26825 30.7501 4.33944 30.5524 4.43479 30.3665L7.77074 20.6947C8.0744 20.0442 8.40075 19.5901 8.74981 19.3323C9.10526 19.0662 9.38646 18.9192 9.59341 18.8913C9.926 18.8465 10.1755 18.9107 10.3418 19.0839C10.5081 19.2572 10.6092 19.4768 10.6451 19.7429C10.7038 20.179 10.6279 20.6483 10.4171 21.1508C10.2394 21.6187 10.0391 22.1424 9.81612 22.7218C9.59219 23.2938 9.2774 24.0849 8.87173 25.0953C8.49207 26.0194 8.10153 26.9186 7.70012 27.793C7.3051 28.659 6.9144 29.4453 6.52803 30.1521C7.67988 29.8765 8.74513 29.3491 9.72378 28.5701C10.7024 27.791 11.5365 26.8884 12.226 25.8624C12.9101 24.8521 13.4099 23.814 13.7253 22.7481C14.0471 21.6737 14.1507 20.7116 14.0362 19.8616C13.9027 18.8712 13.5455 18.0916 12.9647 17.5227C12.3838 16.9538 11.576 16.739 10.5413 16.8785C9.90562 16.9641 9.27675 17.1279 8.65465 17.3698C8.03993 17.6106 7.48073 17.9005 6.97704 18.2393C6.47235 18.5707 6.06454 18.9229 5.75359 19.2959C5.46341 19.7112 5.24435 20.0681 5.09643 20.3665C4.9559 20.6639 4.7777 20.9889 4.56184 21.3416C4.37497 21.6301 4.16685 21.8726 3.93746 22.0691C3.70808 22.2656 3.42339 22.3867 3.0834 22.4325C2.44777 22.5182 2.09211 22.2802 2.01641 21.7185C1.9437 21.1789 2.11261 20.5616 2.52315 19.8667C2.94108 19.1707 3.53718 18.4846 4.31146 17.8083C5.07933 17.1404 5.9969 16.5502 7.06414 16.0377C8.13138 15.5251 9.26368 15.1881 10.461 15.0268C11.7323 14.8555 12.811 14.9584 13.6971 15.3357C14.5897 15.7045 15.2913 16.276 15.802 17.05C16.32 17.823 16.6478 18.7195 16.7852 19.7395C16.9237 20.7668 16.8368 21.881 16.5245 23.082C16.2187 24.2746 15.6883 25.4485 14.9334 26.6037C14.185 27.7506 13.2212 28.7798 12.0422 29.6912C11.156 30.375 10.1473 30.9587 9.01592 31.4423C7.88457 31.9259 6.63891 32.2593 5.27896 32.4425Z" fill="white"/>
<path d="M19.7941 30.3397C19.4984 30.3796 19.1512 30.3436 18.7523 30.2318C18.3618 30.1264 18.0065 29.9184 17.6862 29.6079C17.3659 29.2973 17.1674 28.8575 17.0907 28.2884C17.029 27.8302 17.0604 27.254 17.1851 26.5599C17.3172 25.8649 17.5649 25.1617 17.9281 24.4506C18.2977 23.731 18.8115 23.1049 19.4697 22.5722C20.1269 22.0321 20.9285 21.6983 21.8746 21.5708C22.2515 21.52 22.6601 21.5365 23.1003 21.6201C23.5479 21.7028 23.9456 21.89 24.2935 22.1818C24.6403 22.4661 24.8526 22.8966 24.9303 23.4731C24.9941 23.9461 24.95 24.5127 24.7981 25.1728C24.9531 25.3175 25.1525 25.3734 25.3964 25.3405C25.6256 25.3096 25.8792 25.1814 26.1573 24.9557C26.4354 24.7301 26.7044 24.4644 26.9642 24.1585C27.2314 23.8515 27.469 23.5486 27.677 23.2497C27.8925 22.9497 28.0594 22.709 28.178 22.5275C28.2227 22.4687 28.2821 22.4344 28.356 22.4244C28.5186 22.4025 28.6508 22.4901 28.7526 22.6871C28.8544 22.8841 28.875 23.1484 28.8143 23.4802C28.7527 23.8046 28.5558 24.1584 28.2237 24.5418C28.0338 24.8082 27.7997 25.137 27.5213 25.5282C27.2493 25.911 26.9427 26.2609 26.6017 26.5778C26.267 26.8863 25.9075 27.0664 25.5231 27.1182C25.1314 27.171 24.7449 27.0951 24.3637 26.8907C23.9323 27.8217 23.3291 28.5953 22.5543 29.2115C21.7784 29.8202 20.8584 30.1963 19.7941 30.3397ZM20.4971 28.2696C20.9628 28.2068 21.3779 27.9929 21.7426 27.6277C22.1073 27.2625 22.3834 26.8264 22.5709 26.3195C22.7585 25.8126 22.8189 25.3116 22.7522 24.8164C22.7263 24.6242 22.6772 24.4276 22.605 24.2267C22.5391 24.0173 22.4265 23.8519 22.2672 23.7304C22.1068 23.6015 21.8714 23.5579 21.561 23.5998C21.1028 23.6615 20.6903 23.8676 20.3236 24.218C19.956 24.5611 19.6742 24.9828 19.4782 25.4833C19.2887 25.9754 19.2278 26.4728 19.2955 26.9754C19.3204 27.1602 19.3705 27.3641 19.4457 27.5873C19.5199 27.803 19.6382 27.9827 19.8006 28.1264C19.9693 28.2617 20.2015 28.3094 20.4971 28.2696Z" fill="white"/>
<path d="M28.8961 29.1131C28.4157 29.1779 27.9679 29.1216 27.5527 28.9442C27.1449 28.7659 26.8981 28.3589 26.8125 27.7233C26.8055 27.6716 26.8078 27.5208 26.8192 27.2709C26.8381 27.02 26.885 26.6976 26.9598 26.3037C27.0523 25.8172 27.2145 25.1783 27.4465 24.3869C27.6785 23.5956 28.0258 22.627 28.4885 21.481C28.6058 21.1792 28.7563 20.9557 28.9399 20.8106C29.13 20.6571 29.3432 20.5644 29.5797 20.5325C29.8162 20.5006 30.0422 20.5304 30.2577 20.6217C30.4722 20.7057 30.5939 20.8548 30.6228 21.0692C30.6328 21.1431 30.6312 21.2148 30.6179 21.2843C30.5891 21.4613 30.484 21.7426 30.3027 22.1282C30.1288 22.5129 29.9338 22.9643 29.7177 23.4826C29.505 23.9703 29.3226 24.4878 29.1706 25.0351C29.026 25.5813 28.9735 26.0851 29.013 26.5463C29.031 26.6793 29.0844 26.7963 29.1732 26.8972C29.2621 26.9981 29.3915 27.0371 29.5615 27.0142C30.0419 26.9495 30.479 26.7589 30.8728 26.4424C31.273 26.1176 31.6347 25.7302 31.9579 25.2803C32.2801 24.823 32.5586 24.349 32.7935 23.8583C33.0283 23.3676 33.2202 22.9203 33.3689 22.5165C33.5089 22.159 33.6237 21.7823 33.7133 21.3864C33.8019 20.9832 33.9239 20.6319 34.0792 20.3325C34.2346 20.0331 34.4748 19.8615 34.8 19.8177C35.0661 19.7818 35.2882 19.8385 35.4663 19.9875C35.6444 20.1366 35.7494 20.3294 35.7813 20.5659C35.8072 20.7581 35.7419 21.0829 35.5853 21.5405C35.4351 21.9897 35.2641 22.4793 35.0721 23.0094C34.8684 23.5636 34.6994 24.1244 34.5651 24.6919C34.4373 25.2509 34.4012 25.7374 34.457 26.1513C34.4929 26.4174 34.6734 26.5285 34.9986 26.4847C35.4938 26.4179 36.1025 26.0763 36.8246 25.4597C37.1623 25.1734 37.494 24.8428 37.8197 24.4678C38.1528 24.0917 38.4381 23.6958 38.6756 23.2801L38.9896 24.7729C38.5711 25.4087 38.0437 26.0179 37.4072 26.6003C36.7772 27.1744 36.1497 27.6277 35.5248 27.9602C34.8797 28.3105 34.3186 28.4464 33.8414 28.3677C33.3642 28.289 33.0793 27.906 32.9867 27.2186C32.9399 26.8712 32.9457 26.4678 33.0042 26.0084C32.8037 26.4192 32.5192 26.8489 32.1507 27.2974C31.7812 27.7385 31.3256 28.1273 30.784 28.4636C30.2497 28.799 29.6205 29.0155 28.8961 29.1131Z" fill="white"/>
<path d="M40.0923 27.7623C39.1906 27.8839 38.5263 27.7288 38.0994 27.2972C37.6725 26.8656 37.4142 26.3172 37.3246 25.652C37.2738 25.275 37.2695 24.8805 37.3118 24.4685C37.3531 24.049 37.426 23.6403 37.5304 23.2425L37.8944 21.8389C37.9346 21.6905 37.977 21.5305 38.0216 21.3589C38.0652 21.18 38.1233 20.969 38.1959 20.7259L40.4636 13.0944C40.5254 12.8829 40.6646 12.6873 40.8811 12.5076C41.1051 12.3269 41.3465 12.2192 41.6052 12.1843C41.9451 12.1385 42.1906 12.1731 42.3416 12.2883C42.4999 12.4024 42.5921 12.5555 42.618 12.7477C42.6379 12.8955 42.6228 13.0631 42.5728 13.2504C42.5218 13.4304 42.462 13.6002 42.3932 13.76C42.1904 14.3216 41.9956 14.886 41.8086 15.453C41.6216 16.02 41.4425 16.5897 41.2713 17.1621C41.1001 17.7345 40.9216 18.3079 40.7356 18.8824C40.5496 19.4568 40.3552 20.0248 40.1525 20.5864C40.5683 20.1541 41.0515 19.7466 41.6019 19.3639C42.1524 18.9812 42.7491 18.7465 43.3921 18.6598C43.6952 18.619 44.0086 18.6557 44.3326 18.7701C44.6639 18.8835 44.953 19.0741 45.1998 19.3418C45.454 19.6086 45.6105 19.96 45.6692 20.3961C45.6871 20.5291 45.6752 20.7753 45.6333 21.1346C45.5914 21.494 45.523 21.8794 45.4279 22.2911C45.3393 22.6943 45.221 23.0452 45.0731 23.3435C45.1358 23.4179 45.2093 23.4606 45.2936 23.4719C45.3769 23.4757 45.4702 23.4706 45.5737 23.4567C46.0172 23.3969 46.4438 23.2679 46.8535 23.0697C47.2697 22.8631 47.6459 22.6394 47.9822 22.3984C48.3258 22.1564 48.6096 21.9451 48.8336 21.7644C48.9094 21.6564 48.999 21.5954 49.1025 21.5814C49.2281 21.5645 49.3427 21.6055 49.4464 21.7044C49.5574 21.8023 49.6249 21.94 49.6488 22.1174C49.6717 22.2874 49.6576 22.4623 49.6066 22.6423C49.562 22.8138 49.4608 23.0119 49.3029 23.2363C48.7043 23.7083 48.0775 24.1389 47.4226 24.5282C46.7667 24.9101 46.0655 25.1513 45.319 25.2519C44.8312 25.3177 44.421 25.2337 44.0885 25.0001C43.5619 25.8386 42.9677 26.4831 42.3059 26.9335C41.6506 27.3755 40.9127 27.6518 40.0923 27.7623ZM40.6304 25.5564C41.2069 25.4787 41.7304 25.2313 42.201 24.8142C42.6705 24.3897 43.0284 23.89 43.2745 23.315C43.527 22.7316 43.6159 22.1628 43.5411 21.6085C43.5113 21.3867 43.4319 21.1604 43.3029 20.9294C43.174 20.6985 42.9247 20.6079 42.5551 20.6577C41.9934 20.7334 41.463 20.9855 40.9639 21.414C40.4637 21.835 40.0727 22.3393 39.7906 22.9266C39.5075 23.5066 39.4039 24.0774 39.4796 24.6391C39.5134 24.8904 39.6049 25.1227 39.7541 25.3359C39.9096 25.5407 40.2017 25.6142 40.6304 25.5564Z" fill="white"/>
<path d="M48.8963 26.4179C48.2903 26.4995 47.8523 26.4043 47.5823 26.1321C47.3197 25.859 47.1591 25.5044 47.1003 25.0683C47.0515 24.7061 47.0534 24.3296 47.1061 23.9387C47.1652 23.5395 47.2472 23.1709 47.3522 22.8332C47.5332 22.2219 47.7184 21.6137 47.9078 21.0087C48.0972 20.4037 48.2708 19.8498 48.4288 19.3469L50.8244 11.7434C50.9446 11.3509 51.1672 11.0763 51.4923 10.9196C51.8173 10.763 52.1292 10.7322 52.428 10.8274C52.7332 10.9142 52.9087 11.1276 52.9545 11.4676C52.9725 11.6006 52.9581 11.7455 52.9115 11.9023C52.8723 12.0581 52.8161 12.2275 52.7429 12.4104C52.5446 12.9489 52.2938 13.6562 51.9904 14.5324C51.6945 15.4076 51.3681 16.3922 51.0114 17.4863C50.6242 18.6898 50.2976 19.7008 50.0317 20.5193C49.7721 21.3294 49.5292 22.0958 49.303 22.8186C49.2447 22.9996 49.1902 23.2101 49.1398 23.4502C49.0958 23.6819 49.0857 23.8864 49.1096 24.0638C49.1425 24.3077 49.2661 24.4152 49.4804 24.3863C49.717 24.3545 50.0181 24.2161 50.384 23.9711C50.7562 23.7178 51.1367 23.4144 51.5256 23.061C51.9228 22.7139 52.3037 22.3578 52.6684 21.9926C53.0321 21.62 53.3677 21.2625 53.6752 20.92C53.7805 20.808 53.9145 20.7411 54.0771 20.7191C54.4171 20.6733 54.6125 20.8389 54.6633 21.2158C54.6842 21.371 54.6559 21.5517 54.5783 21.7578C54.5007 21.9639 54.345 22.1768 54.1112 22.3964C53.697 22.8963 53.276 23.3744 52.8484 23.8309C52.4272 24.279 51.9968 24.6869 51.5572 25.0547C51.124 25.414 50.6828 25.7143 50.2337 25.9554C49.7856 26.204 49.3398 26.3581 48.8963 26.4179Z" fill="white"/>
<path d="M55.7146 25.499C55.1233 25.5787 54.5976 25.5028 54.1375 25.2713C53.6837 25.0315 53.3141 24.69 53.0286 24.2468C52.7495 23.7953 52.5732 23.2961 52.4995 22.7491C52.4347 22.2687 52.4992 21.7144 52.693 21.0863C52.8932 20.4498 53.2151 19.8232 53.6588 19.2065C54.1025 18.5898 54.6589 18.0558 55.328 17.6044C56.0035 17.1447 56.7662 16.8575 57.6162 16.743C58.2297 16.6603 58.7078 16.7464 59.0507 17.0012C59.3936 17.256 59.6004 17.6457 59.6711 18.1705C59.7129 18.4809 59.6755 18.8171 59.5587 19.179C59.4419 19.5409 59.2073 19.9224 58.855 20.3236C58.5037 20.7322 58.0167 21.1665 57.3939 21.6267C56.7775 22.0785 55.9916 22.5569 55.0362 23.0619C55.1793 23.5092 55.5797 23.6886 56.2375 23.5999C56.7475 23.5312 57.2842 23.3535 57.8476 23.0669C58.41 22.7729 58.9462 22.4523 59.4563 22.1051C59.9674 21.7653 60.4029 21.4508 60.7627 21.1614C61.1226 20.8721 61.3375 20.7077 61.4074 20.6682C61.4679 20.6149 61.5236 20.5811 61.5743 20.5667C61.6325 20.5513 61.6837 20.5407 61.728 20.5347C61.9054 20.5108 62.0368 20.5646 62.1223 20.696C62.2141 20.8191 62.266 20.925 62.278 21.0137C62.2869 21.0802 62.2905 21.1625 62.2887 21.2606C62.2858 21.3513 62.2443 21.4622 62.1642 21.5934C62.0811 21.7025 61.8286 21.9509 61.4068 22.3389C60.985 22.7269 60.5284 23.1082 60.0371 23.483C59.4355 23.9328 58.755 24.3556 57.9956 24.7514C57.2362 25.1472 56.4759 25.3964 55.7146 25.499ZM54.6981 21.8094C55.1447 21.4934 55.5931 21.1357 56.0435 20.7363C56.5003 20.3286 56.8476 20.0297 57.0853 19.8397C57.4028 19.5711 57.6056 19.3444 57.6935 19.1594C57.7943 18.9577 57.8362 18.7941 57.8193 18.6684C57.8043 18.5575 57.7554 18.4738 57.6725 18.4173C57.597 18.3597 57.514 18.3295 57.4233 18.3267L57.322 18.3291L57.2222 18.3425C56.8157 18.3973 56.4547 18.5663 56.1392 18.8497C55.8301 19.1246 55.5807 19.4517 55.391 19.8309C55.1885 20.227 55.0311 20.5944 54.9187 20.9331C54.8137 21.2708 54.7402 21.5629 54.6981 21.8094Z" fill="white"/>
<path d="M5.27896 32.4425C4.98332 32.4824 4.73755 32.4177 4.54166 32.2484C4.34676 32.0866 4.23089 31.8689 4.19404 31.5954C4.16515 31.3811 4.17422 31.1691 4.22124 30.9596C4.26825 30.7501 4.33944 30.5524 4.43479 30.3665L7.77074 20.6947C8.0744 20.0442 8.40075 19.5901 8.74981 19.3323C9.10526 19.0662 9.38646 18.9192 9.59341 18.8913C9.926 18.8465 10.1755 18.9107 10.3418 19.0839C10.5081 19.2572 10.6092 19.4768 10.6451 19.7429C10.7038 20.179 10.6279 20.6483 10.4171 21.1508C10.2394 21.6187 10.0391 22.1424 9.81612 22.7218C9.59219 23.2938 9.2774 24.0849 8.87173 25.0953C8.49207 26.0194 8.10153 26.9186 7.70012 27.793C7.3051 28.659 6.9144 29.4453 6.52803 30.1521C7.67988 29.8765 8.74513 29.3491 9.72378 28.5701C10.7024 27.791 11.5365 26.8884 12.226 25.8624C12.9101 24.8521 13.4099 23.814 13.7253 22.7481C14.0471 21.6737 14.1507 20.7116 14.0362 19.8616C13.9027 18.8712 13.5455 18.0916 12.9647 17.5227C12.3838 16.9538 11.576 16.739 10.5413 16.8785C9.90562 16.9641 9.27675 17.1279 8.65465 17.3698C8.03993 17.6106 7.48073 17.9005 6.97704 18.2393C6.47235 18.5707 6.06454 18.9229 5.75359 19.2959C5.46341 19.7112 5.24435 20.0681 5.09643 20.3665C4.9559 20.6639 4.7777 20.9889 4.56184 21.3416C4.37497 21.6301 4.16685 21.8726 3.93746 22.0691C3.70808 22.2656 3.42339 22.3867 3.0834 22.4325C2.44777 22.5182 2.09211 22.2802 2.01641 21.7185C1.9437 21.1789 2.11261 20.5616 2.52315 19.8667C2.94108 19.1707 3.53718 18.4846 4.31146 17.8083C5.07933 17.1404 5.9969 16.5502 7.06414 16.0377C8.13138 15.5251 9.26368 15.1881 10.461 15.0268C11.7323 14.8555 12.811 14.9584 13.6971 15.3357C14.5897 15.7045 15.2913 16.276 15.802 17.05C16.32 17.823 16.6478 18.7195 16.7852 19.7395C16.9237 20.7668 16.8368 21.881 16.5245 23.082C16.2187 24.2746 15.6883 25.4485 14.9334 26.6037C14.185 27.7506 13.2212 28.7798 12.0422 29.6912C11.156 30.375 10.1473 30.9587 9.01592 31.4423C7.88457 31.9259 6.63891 32.2593 5.27896 32.4425Z" stroke="#58D59A" stroke-width="2.29106" mask="url(#path-1-outside-1_2328_9389)"/>
<path d="M19.7941 30.3397C19.4984 30.3796 19.1512 30.3436 18.7523 30.2318C18.3618 30.1264 18.0065 29.9184 17.6862 29.6079C17.3659 29.2973 17.1674 28.8575 17.0907 28.2884C17.029 27.8302 17.0604 27.254 17.1851 26.5599C17.3172 25.8649 17.5649 25.1617 17.9281 24.4506C18.2977 23.731 18.8115 23.1049 19.4697 22.5722C20.1269 22.0321 20.9285 21.6983 21.8746 21.5708C22.2515 21.52 22.6601 21.5365 23.1003 21.6201C23.5479 21.7028 23.9456 21.89 24.2935 22.1818C24.6403 22.4661 24.8526 22.8966 24.9303 23.4731C24.9941 23.9461 24.95 24.5127 24.7981 25.1728C24.9531 25.3175 25.1525 25.3734 25.3964 25.3405C25.6256 25.3096 25.8792 25.1814 26.1573 24.9557C26.4354 24.7301 26.7044 24.4644 26.9642 24.1585C27.2314 23.8515 27.469 23.5486 27.677 23.2497C27.8925 22.9497 28.0594 22.709 28.178 22.5275C28.2227 22.4687 28.2821 22.4344 28.356 22.4244C28.5186 22.4025 28.6508 22.4901 28.7526 22.6871C28.8544 22.8841 28.875 23.1484 28.8143 23.4802C28.7527 23.8046 28.5558 24.1584 28.2237 24.5418C28.0338 24.8082 27.7997 25.137 27.5213 25.5282C27.2493 25.911 26.9427 26.2609 26.6017 26.5778C26.267 26.8863 25.9075 27.0664 25.5231 27.1182C25.1314 27.171 24.7449 27.0951 24.3637 26.8907C23.9323 27.8217 23.3291 28.5953 22.5543 29.2115C21.7784 29.8202 20.8584 30.1963 19.7941 30.3397ZM20.4971 28.2696C20.9628 28.2068 21.3779 27.9929 21.7426 27.6277C22.1073 27.2625 22.3834 26.8264 22.5709 26.3195C22.7585 25.8126 22.8189 25.3116 22.7522 24.8164C22.7263 24.6242 22.6772 24.4276 22.605 24.2267C22.5391 24.0173 22.4265 23.8519 22.2672 23.7304C22.1068 23.6015 21.8714 23.5579 21.561 23.5998C21.1028 23.6615 20.6903 23.8676 20.3236 24.218C19.956 24.5611 19.6742 24.9828 19.4782 25.4833C19.2887 25.9754 19.2278 26.4728 19.2955 26.9754C19.3204 27.1602 19.3705 27.3641 19.4457 27.5873C19.5199 27.803 19.6382 27.9827 19.8006 28.1264C19.9693 28.2617 20.2015 28.3094 20.4971 28.2696Z" stroke="#58D59A" stroke-width="2.29106" mask="url(#path-1-outside-1_2328_9389)"/>
<path d="M28.8961 29.1131C28.4157 29.1779 27.9679 29.1216 27.5527 28.9442C27.1449 28.7659 26.8981 28.3589 26.8125 27.7233C26.8055 27.6716 26.8078 27.5208 26.8192 27.2709C26.8381 27.02 26.885 26.6976 26.9598 26.3037C27.0523 25.8172 27.2145 25.1783 27.4465 24.3869C27.6785 23.5956 28.0258 22.627 28.4885 21.481C28.6058 21.1792 28.7563 20.9557 28.9399 20.8106C29.13 20.6571 29.3432 20.5644 29.5797 20.5325C29.8162 20.5006 30.0422 20.5304 30.2577 20.6217C30.4722 20.7057 30.5939 20.8548 30.6228 21.0692C30.6328 21.1431 30.6312 21.2148 30.6179 21.2843C30.5891 21.4613 30.484 21.7426 30.3027 22.1282C30.1288 22.5129 29.9338 22.9643 29.7177 23.4826C29.505 23.9703 29.3226 24.4878 29.1706 25.0351C29.026 25.5813 28.9735 26.0851 29.013 26.5463C29.031 26.6793 29.0844 26.7963 29.1732 26.8972C29.2621 26.9981 29.3915 27.0371 29.5615 27.0142C30.0419 26.9495 30.479 26.7589 30.8728 26.4424C31.273 26.1176 31.6347 25.7302 31.9579 25.2803C32.2801 24.823 32.5586 24.349 32.7935 23.8583C33.0283 23.3676 33.2202 22.9203 33.3689 22.5165C33.5089 22.159 33.6237 21.7823 33.7133 21.3864C33.8019 20.9832 33.9239 20.6319 34.0792 20.3325C34.2346 20.0331 34.4748 19.8615 34.8 19.8177C35.0661 19.7818 35.2882 19.8385 35.4663 19.9875C35.6444 20.1366 35.7494 20.3294 35.7813 20.5659C35.8072 20.7581 35.7419 21.0829 35.5853 21.5405C35.4351 21.9897 35.2641 22.4793 35.0721 23.0094C34.8684 23.5636 34.6994 24.1244 34.5651 24.6919C34.4373 25.2509 34.4012 25.7374 34.457 26.1513C34.4929 26.4174 34.6734 26.5285 34.9986 26.4847C35.4938 26.4179 36.1025 26.0763 36.8246 25.4597C37.1623 25.1734 37.494 24.8428 37.8197 24.4678C38.1528 24.0917 38.4381 23.6958 38.6756 23.2801L38.9896 24.7729C38.5711 25.4087 38.0437 26.0179 37.4072 26.6003C36.7772 27.1744 36.1497 27.6277 35.5248 27.9602C34.8797 28.3105 34.3186 28.4464 33.8414 28.3677C33.3642 28.289 33.0793 27.906 32.9867 27.2186C32.9399 26.8712 32.9457 26.4678 33.0042 26.0084C32.8037 26.4192 32.5192 26.8489 32.1507 27.2974C31.7812 27.7385 31.3256 28.1273 30.784 28.4636C30.2497 28.799 29.6205 29.0155 28.8961 29.1131Z" stroke="#58D59A" stroke-width="2.29106" mask="url(#path-1-outside-1_2328_9389)"/>
<path d="M40.0923 27.7623C39.1906 27.8839 38.5263 27.7288 38.0994 27.2972C37.6725 26.8656 37.4142 26.3172 37.3246 25.652C37.2738 25.275 37.2695 24.8805 37.3118 24.4685C37.3531 24.049 37.426 23.6403 37.5304 23.2425L37.8944 21.8389C37.9346 21.6905 37.977 21.5305 38.0216 21.3589C38.0652 21.18 38.1233 20.969 38.1959 20.7259L40.4636 13.0944C40.5254 12.8829 40.6646 12.6873 40.8811 12.5076C41.1051 12.3269 41.3465 12.2192 41.6052 12.1843C41.9451 12.1385 42.1906 12.1731 42.3416 12.2883C42.4999 12.4024 42.5921 12.5555 42.618 12.7477C42.6379 12.8955 42.6228 13.0631 42.5728 13.2504C42.5218 13.4304 42.462 13.6002 42.3932 13.76C42.1904 14.3216 41.9956 14.886 41.8086 15.453C41.6216 16.02 41.4425 16.5897 41.2713 17.1621C41.1001 17.7345 40.9216 18.3079 40.7356 18.8824C40.5496 19.4568 40.3552 20.0248 40.1525 20.5864C40.5683 20.1541 41.0515 19.7466 41.6019 19.3639C42.1524 18.9812 42.7491 18.7465 43.3921 18.6598C43.6952 18.619 44.0086 18.6557 44.3326 18.7701C44.6639 18.8835 44.953 19.0741 45.1998 19.3418C45.454 19.6086 45.6105 19.96 45.6692 20.3961C45.6871 20.5291 45.6752 20.7753 45.6333 21.1346C45.5914 21.494 45.523 21.8794 45.4279 22.2911C45.3393 22.6943 45.221 23.0452 45.0731 23.3435C45.1358 23.4179 45.2093 23.4606 45.2936 23.4719C45.3769 23.4757 45.4702 23.4706 45.5737 23.4567C46.0172 23.3969 46.4438 23.2679 46.8535 23.0697C47.2697 22.8631 47.6459 22.6394 47.9822 22.3984C48.3258 22.1564 48.6096 21.9451 48.8336 21.7644C48.9094 21.6564 48.999 21.5954 49.1025 21.5814C49.2281 21.5645 49.3427 21.6055 49.4464 21.7044C49.5574 21.8023 49.6249 21.94 49.6488 22.1174C49.6717 22.2874 49.6576 22.4623 49.6066 22.6423C49.562 22.8138 49.4608 23.0119 49.3029 23.2363C48.7043 23.7083 48.0775 24.1389 47.4226 24.5282C46.7667 24.9101 46.0655 25.1513 45.319 25.2519C44.8312 25.3177 44.421 25.2337 44.0885 25.0001C43.5619 25.8386 42.9677 26.4831 42.3059 26.9335C41.6506 27.3755 40.9127 27.6518 40.0923 27.7623ZM40.6304 25.5564C41.2069 25.4787 41.7304 25.2313 42.201 24.8142C42.6705 24.3897 43.0284 23.89 43.2745 23.315C43.527 22.7316 43.6159 22.1628 43.5411 21.6085C43.5113 21.3867 43.4319 21.1604 43.3029 20.9294C43.174 20.6985 42.9247 20.6079 42.5551 20.6577C41.9934 20.7334 41.463 20.9855 40.9639 21.414C40.4637 21.835 40.0727 22.3393 39.7906 22.9266C39.5075 23.5066 39.4039 24.0774 39.4796 24.6391C39.5134 24.8904 39.6049 25.1227 39.7541 25.3359C39.9096 25.5407 40.2017 25.6142 40.6304 25.5564Z" stroke="#58D59A" stroke-width="2.29106" mask="url(#path-1-outside-1_2328_9389)"/>
<path d="M48.8963 26.4179C48.2903 26.4995 47.8523 26.4043 47.5823 26.1321C47.3197 25.859 47.1591 25.5044 47.1003 25.0683C47.0515 24.7061 47.0534 24.3296 47.1061 23.9387C47.1652 23.5395 47.2472 23.1709 47.3522 22.8332C47.5332 22.2219 47.7184 21.6137 47.9078 21.0087C48.0972 20.4037 48.2708 19.8498 48.4288 19.3469L50.8244 11.7434C50.9446 11.3509 51.1672 11.0763 51.4923 10.9196C51.8173 10.763 52.1292 10.7322 52.428 10.8274C52.7332 10.9142 52.9087 11.1276 52.9545 11.4676C52.9725 11.6006 52.9581 11.7455 52.9115 11.9023C52.8723 12.0581 52.8161 12.2275 52.7429 12.4104C52.5446 12.9489 52.2938 13.6562 51.9904 14.5324C51.6945 15.4076 51.3681 16.3922 51.0114 17.4863C50.6242 18.6898 50.2976 19.7008 50.0317 20.5193C49.7721 21.3294 49.5292 22.0958 49.303 22.8186C49.2447 22.9996 49.1902 23.2101 49.1398 23.4502C49.0958 23.6819 49.0857 23.8864 49.1096 24.0638C49.1425 24.3077 49.2661 24.4152 49.4804 24.3863C49.717 24.3545 50.0181 24.2161 50.384 23.9711C50.7562 23.7178 51.1367 23.4144 51.5256 23.061C51.9228 22.7139 52.3037 22.3578 52.6684 21.9926C53.0321 21.62 53.3677 21.2625 53.6752 20.92C53.7805 20.808 53.9145 20.7411 54.0771 20.7191C54.4171 20.6733 54.6125 20.8389 54.6633 21.2158C54.6842 21.371 54.6559 21.5517 54.5783 21.7578C54.5007 21.9639 54.345 22.1768 54.1112 22.3964C53.697 22.8963 53.276 23.3744 52.8484 23.8309C52.4272 24.279 51.9968 24.6869 51.5572 25.0547C51.124 25.414 50.6828 25.7143 50.2337 25.9554C49.7856 26.204 49.3398 26.3581 48.8963 26.4179Z" stroke="#58D59A" stroke-width="2.29106" mask="url(#path-1-outside-1_2328_9389)"/>
<path d="M55.7146 25.499C55.1233 25.5787 54.5976 25.5028 54.1375 25.2713C53.6837 25.0315 53.3141 24.69 53.0286 24.2468C52.7495 23.7953 52.5732 23.2961 52.4995 22.7491C52.4347 22.2687 52.4992 21.7144 52.693 21.0863C52.8932 20.4498 53.2151 19.8232 53.6588 19.2065C54.1025 18.5898 54.6589 18.0558 55.328 17.6044C56.0035 17.1447 56.7662 16.8575 57.6162 16.743C58.2297 16.6603 58.7078 16.7464 59.0507 17.0012C59.3936 17.256 59.6004 17.6457 59.6711 18.1705C59.7129 18.4809 59.6755 18.8171 59.5587 19.179C59.4419 19.5409 59.2073 19.9224 58.855 20.3236C58.5037 20.7322 58.0167 21.1665 57.3939 21.6267C56.7775 22.0785 55.9916 22.5569 55.0362 23.0619C55.1793 23.5092 55.5797 23.6886 56.2375 23.5999C56.7475 23.5312 57.2842 23.3535 57.8476 23.0669C58.41 22.7729 58.9462 22.4523 59.4563 22.1051C59.9674 21.7653 60.4029 21.4508 60.7627 21.1614C61.1226 20.8721 61.3375 20.7077 61.4074 20.6682C61.4679 20.6149 61.5236 20.5811 61.5743 20.5667C61.6325 20.5513 61.6837 20.5407 61.728 20.5347C61.9054 20.5108 62.0368 20.5646 62.1223 20.696C62.2141 20.8191 62.266 20.925 62.278 21.0137C62.2869 21.0802 62.2905 21.1625 62.2887 21.2606C62.2858 21.3513 62.2443 21.4622 62.1642 21.5934C62.0811 21.7025 61.8286 21.9509 61.4068 22.3389C60.985 22.7269 60.5284 23.1082 60.0371 23.483C59.4355 23.9328 58.755 24.3556 57.9956 24.7514C57.2362 25.1472 56.4759 25.3964 55.7146 25.499ZM54.6981 21.8094C55.1447 21.4934 55.5931 21.1357 56.0435 20.7363C56.5003 20.3286 56.8476 20.0297 57.0853 19.8397C57.4028 19.5711 57.6056 19.3444 57.6935 19.1594C57.7943 18.9577 57.8362 18.7941 57.8193 18.6684C57.8043 18.5575 57.7554 18.4738 57.6725 18.4173C57.597 18.3597 57.514 18.3295 57.4233 18.3267L57.322 18.3291L57.2222 18.3425C56.8157 18.3973 56.4547 18.5663 56.1392 18.8497C55.8301 19.1246 55.5807 19.4517 55.391 19.8309C55.1885 20.227 55.0311 20.5944 54.9187 20.9331C54.8137 21.2708 54.7402 21.5629 54.6981 21.8094Z" stroke="#58D59A" stroke-width="2.29106" mask="url(#path-1-outside-1_2328_9389)"/>
<mask id="path-2-outside-2_2328_9389" maskUnits="userSpaceOnUse" x="64.9297" y="0.121094" width="63" height="25" fill="black">
<rect fill="white" x="64.9297" y="0.121094" width="63" height="25"/>
<path d="M70.0886 23.7302C69.6599 23.788 69.2225 23.8093 68.7765 23.7941C68.3315 23.7864 67.9487 23.71 67.6281 23.5651C67.3076 23.4202 67.1244 23.1777 67.0786 22.8377C67.0746 22.8082 67.0711 22.7823 67.0681 22.7601C67.0716 22.7296 67.0745 22.6953 67.0769 22.6573C67.1363 22.4838 67.2139 22.3341 67.3098 22.2083C67.4132 22.0815 67.6013 21.9696 67.8742 21.8726C68.1544 21.7747 68.5902 21.6858 69.1815 21.6061C69.5252 20.6944 69.8404 19.8505 70.1271 19.0744C70.4129 18.2909 70.6659 17.572 70.8863 16.9177C71.1066 16.2634 71.3049 15.6685 71.4811 15.133C71.6647 14.5966 71.8335 14.1185 71.9877 13.6989C72.294 12.8449 72.559 12.2147 72.7827 11.8083C73.0127 11.3935 73.2571 11.1687 73.5158 11.1338C73.7597 11.101 73.9835 11.1423 74.1872 11.2578C74.3909 11.3733 74.5072 11.5383 74.5361 11.7526C74.4869 11.8345 74.4641 11.9166 74.4677 11.9989C74.4702 12.0738 74.478 12.1593 74.491 12.2554C75.7211 11.5553 76.6336 10.8717 77.2285 10.2046C77.8298 9.52903 78.1015 8.97693 78.0437 8.54825C78.0188 8.36347 77.8281 8.2048 77.4716 8.07224C77.1151 7.93967 76.6634 7.91024 76.1165 7.98395C75.3035 8.09351 74.563 8.29489 73.8952 8.58807C73.2263 8.87387 72.6262 9.19554 72.095 9.5531C71.5637 9.91065 71.101 10.274 70.7067 10.6432C70.3115 11.005 69.9815 11.3204 69.7167 11.5894C69.3914 11.9116 69.1343 12.2097 68.9455 12.4834C68.7566 12.7572 68.4552 12.922 68.0413 12.9778C67.3835 13.0664 67.0168 12.8299 66.9411 12.2682C66.8773 11.7952 67.0816 11.2446 67.5538 10.6166C68.025 9.98116 68.6754 9.36298 69.505 8.76204C70.3282 8.16949 71.2769 7.6428 72.3511 7.18198C73.4317 6.71276 74.5264 6.40346 75.635 6.25405C77.165 6.04787 78.3198 6.1293 79.0995 6.49832C79.8791 6.86734 80.3178 7.41401 80.4154 8.13834C80.512 8.85527 80.1591 9.67041 79.3565 10.5838C78.9649 11.0279 78.4751 11.4701 77.8873 11.9106C77.3059 12.3426 76.6392 12.756 75.8872 13.1509C76.7055 13.304 77.3817 13.4913 77.9157 13.7128C78.4488 13.9269 78.8724 14.1671 79.1867 14.4333C79.5094 14.7058 79.7375 15.0024 79.871 15.3231C80.011 15.6353 80.1043 15.9652 80.1511 16.3125C80.2507 17.0516 80.0569 17.819 79.5696 18.6146C79.0813 19.4029 78.3407 20.1611 77.3477 20.8894C76.3621 21.6168 75.2366 22.2275 73.9712 22.7216C72.7058 23.2157 71.4116 23.5519 70.0886 23.7302ZM71.8393 21.2254C72.6867 21.0359 73.465 20.7806 74.1742 20.4592C74.8899 20.1295 75.5024 19.761 76.0119 19.3537C76.514 18.9474 76.8924 18.5164 77.1471 18.0606C77.4091 17.6039 77.5093 17.1464 77.4475 16.6882C77.3917 16.2743 77.124 15.8513 76.6444 15.4193C76.1647 14.9872 75.3388 14.6658 74.1666 14.4551C73.7762 15.802 73.3907 16.9903 73.0102 18.0199C72.6371 19.0484 72.2468 20.1169 71.8393 21.2254Z"/>
<path d="M83.0486 21.8144C82.5681 21.8791 82.1203 21.8228 81.7051 21.6455C81.2973 21.4672 81.0506 21.0602 80.9649 20.4246C80.9579 20.3728 80.9602 20.222 80.9717 19.9721C80.9905 19.7213 81.0374 19.3989 81.1122 19.005C81.2047 18.5185 81.3669 17.8795 81.5989 17.0882C81.8309 16.2969 82.1782 15.3282 82.6409 14.1822C82.7582 13.8805 82.9087 13.657 83.0924 13.5119C83.2824 13.3583 83.4956 13.2656 83.7322 13.2337C83.9687 13.2019 84.1947 13.2316 84.4102 13.323C84.6247 13.4069 84.7464 13.5561 84.7752 13.7704C84.7852 13.8444 84.7836 13.9161 84.7704 13.9856C84.7415 14.1625 84.6365 14.4438 84.4552 14.8295C84.2812 15.2141 84.0862 15.6656 83.8701 16.1839C83.6574 16.6716 83.475 17.1891 83.323 17.7363C83.1784 18.2826 83.1259 18.7863 83.1655 19.2476C83.1834 19.3806 83.2368 19.4976 83.3256 19.5985C83.4145 19.6994 83.5439 19.7384 83.7139 19.7155C84.1943 19.6507 84.6314 19.4601 85.0253 19.1437C85.4255 18.8188 85.7872 18.4314 86.1103 17.9815C86.4325 17.5242 86.711 17.0502 86.9459 16.5595C87.1808 16.0688 87.3726 15.6216 87.5214 15.2177C87.6613 14.8602 87.7761 14.4835 87.8657 14.0877C87.9544 13.6844 88.0763 13.3331 88.2317 13.0337C88.387 12.7344 88.6272 12.5628 88.9524 12.519C89.2185 12.4831 89.4406 12.5397 89.6187 12.6888C89.7969 12.8379 89.9019 13.0307 89.9337 13.2672C89.9596 13.4593 89.8943 13.7842 89.7377 14.2418C89.5875 14.691 89.4165 15.1806 89.2245 15.7106C89.0208 16.2649 88.8518 16.8257 88.7175 17.3931C88.5897 17.9522 88.5537 18.4387 88.6094 18.8526C88.6453 19.1186 88.8258 19.2298 89.151 19.1859C89.6462 19.1192 90.2549 18.7776 90.977 18.161C91.3147 17.8747 91.6464 17.544 91.9721 17.169C92.3052 16.793 92.5905 16.3971 92.828 15.9813L93.142 17.4742C92.7235 18.11 92.1961 18.7191 91.5597 19.3016C90.9296 19.8756 90.3022 20.3289 89.6772 20.6615C89.0321 21.0118 88.471 21.1476 87.9938 21.0689C87.5166 20.9903 87.2317 20.6072 87.1391 19.9199C87.0923 19.5725 87.0981 19.1691 87.1566 18.7097C86.9561 19.1205 86.6716 19.5502 86.3031 19.9987C85.9336 20.4398 85.4781 20.8285 84.9364 21.1649C84.4022 21.5003 83.7729 21.7168 83.0486 21.8144Z"/>
<path d="M94.2448 20.4636C93.343 20.5851 92.6787 20.4301 92.2518 19.9984C91.8249 19.5668 91.5667 19.0184 91.477 18.3532C91.4262 17.9763 91.422 17.5818 91.4643 17.1697C91.5056 16.7503 91.5784 16.3416 91.6828 15.9437L92.0468 14.5401C92.087 14.3917 92.1294 14.2318 92.174 14.0602C92.2176 13.8812 92.2757 13.6702 92.3483 13.4272L94.616 5.79571C94.6778 5.5842 94.817 5.38859 95.0336 5.2089C95.2576 5.02821 95.4989 4.92043 95.7576 4.88557C96.0976 4.83975 96.343 4.8744 96.494 4.98951C96.6524 5.10363 96.7445 5.25677 96.7704 5.44893C96.7903 5.59676 96.7753 5.76434 96.7253 5.95168C96.6743 6.13164 96.6144 6.3015 96.5456 6.46128C96.3429 7.0229 96.148 7.58721 95.961 8.15423C95.774 8.72125 95.595 9.29096 95.4238 9.86338C95.2526 10.4358 95.074 11.0092 94.888 11.5836C94.702 12.158 94.5077 12.726 94.3049 13.2877C94.7208 12.8554 95.2039 12.4478 95.7543 12.0651C96.3048 11.6824 96.9015 11.4477 97.5445 11.3611C97.8476 11.3202 98.1611 11.357 98.485 11.4714C98.8164 11.5848 99.1054 11.7753 99.3522 12.0431C99.6064 12.3098 99.7629 12.6613 99.8216 13.0973C99.8396 13.2304 99.8276 13.4765 99.7857 13.8359C99.7438 14.1952 99.6754 14.5807 99.5803 14.9923C99.4917 15.3956 99.3734 15.7464 99.2255 16.0448C99.2882 16.1191 99.3617 16.1619 99.446 16.1731C99.5293 16.1769 99.6227 16.1719 99.7261 16.1579C100.17 16.0982 100.596 15.9692 101.006 15.771C101.422 15.5644 101.798 15.3406 102.135 15.0997C102.478 14.8577 102.762 14.6464 102.986 14.4657C103.062 14.3576 103.151 14.2966 103.255 14.2827C103.381 14.2658 103.495 14.3067 103.599 14.4057C103.71 14.5036 103.777 14.6412 103.801 14.8186C103.824 14.9886 103.81 15.1636 103.759 15.3435C103.714 15.5151 103.613 15.7131 103.455 15.9376C102.857 16.4096 102.23 16.8402 101.575 17.2295C100.919 17.6113 100.218 17.8526 99.4714 17.9532C98.9836 18.0189 98.5734 17.935 98.2409 17.7013C97.7143 18.5399 97.1201 19.1844 96.4584 19.6348C95.803 20.0768 95.0652 20.353 94.2448 20.4636ZM94.7828 18.2577C95.3593 18.18 95.8828 17.9326 96.3534 17.5155C96.8229 17.091 97.1808 16.5913 97.4269 16.0163C97.6794 15.4329 97.7683 14.864 97.6936 14.3097C97.6637 14.088 97.5843 13.8616 97.4553 13.6307C97.3264 13.3997 97.0771 13.3091 96.7076 13.3589C96.1458 13.4346 95.6154 13.6867 95.1163 14.1152C94.6162 14.5363 94.2251 15.0405 93.943 15.6279C93.66 16.2078 93.5563 16.7787 93.632 17.3404C93.6658 17.5917 93.7573 17.8239 93.9065 18.0371C94.062 18.2419 94.3541 18.3154 94.7828 18.2577Z"/>
<path d="M104.289 19.11C103.387 19.2315 102.723 19.0765 102.296 18.6448C101.869 18.2132 101.611 17.6648 101.521 16.9996C101.471 16.6227 101.466 16.2282 101.509 15.8161C101.55 15.3967 101.623 14.988 101.727 14.5901L102.091 13.1865C102.131 13.0381 102.174 12.8782 102.218 12.7066C102.262 12.5276 102.32 12.3166 102.393 12.0736L104.66 4.4421C104.722 4.23059 104.861 4.03499 105.078 3.8553C105.302 3.67461 105.543 3.56683 105.802 3.53197C106.142 3.48615 106.387 3.5208 106.538 3.63591C106.697 3.75002 106.789 3.90316 106.815 4.09533C106.835 4.24315 106.82 4.41074 106.77 4.59808C106.719 4.77804 106.659 4.9479 106.59 5.10767C106.387 5.66929 106.192 6.23361 106.005 6.80063C105.818 7.36764 105.639 7.93736 105.468 8.50978C105.297 9.08219 105.118 9.6556 104.932 10.23C104.746 10.8044 104.552 11.3724 104.349 11.9341C104.765 11.5017 105.248 11.0942 105.799 10.7115C106.349 10.3288 106.946 10.0941 107.589 10.0075C107.892 9.96663 108.206 10.0034 108.529 10.1178C108.861 10.2312 109.15 10.4217 109.397 10.6895C109.651 10.9562 109.807 11.3076 109.866 11.7437C109.884 11.8768 109.872 12.1229 109.83 12.4823C109.788 12.8416 109.72 13.2271 109.625 13.6387C109.536 14.042 109.418 14.3928 109.27 14.6912C109.333 14.7655 109.406 14.8083 109.49 14.8195C109.574 14.8233 109.667 14.8183 109.771 14.8043C110.214 14.7446 110.641 14.6156 111.05 14.4174C111.467 14.2108 111.843 13.987 112.179 13.746C112.523 13.5041 112.807 13.2927 113.03 13.1121C113.106 13.004 113.196 12.943 113.299 12.9291C113.425 12.9122 113.54 12.9531 113.643 13.0521C113.754 13.15 113.822 13.2876 113.846 13.465C113.869 13.635 113.854 13.81 113.803 13.9899C113.759 14.1615 113.658 14.3595 113.5 14.584C112.901 15.056 112.274 15.4866 111.619 15.8759C110.964 16.2577 110.262 16.499 109.516 16.5996C109.028 16.6653 108.618 16.5814 108.285 16.3477C107.759 17.1863 107.165 17.8308 106.503 18.2811C105.847 18.7232 105.11 18.9994 104.289 19.11ZM104.827 16.9041C105.404 16.8264 105.927 16.579 106.398 16.1619C106.867 15.7374 107.225 15.2376 107.471 14.6627C107.724 14.0793 107.813 13.5104 107.738 12.9561C107.708 12.7344 107.629 12.508 107.5 12.2771C107.371 12.0461 107.122 11.9555 106.752 12.0053C106.19 12.081 105.66 12.3331 105.161 12.7616C104.661 13.1827 104.27 13.6869 103.987 14.2743C103.704 14.8542 103.601 15.4251 103.676 15.9868C103.71 16.2381 103.802 16.4703 103.951 16.6835C104.106 16.8883 104.399 16.9618 104.827 16.9041Z"/>
<path d="M113.093 17.7655C112.487 17.8472 112.049 17.752 111.779 17.4798C111.517 17.2066 111.356 16.852 111.297 16.416C111.248 16.0538 111.25 15.6773 111.303 15.2864C111.362 14.8871 111.444 14.5186 111.549 14.1809C111.73 13.5695 111.915 12.9613 112.105 12.3564C112.294 11.7514 112.468 11.1975 112.626 10.6946L115.021 3.09101C115.141 2.69855 115.364 2.42398 115.689 2.2673C116.014 2.11061 116.326 2.07987 116.625 2.17506C116.93 2.26186 117.106 2.47525 117.151 2.81524C117.169 2.94828 117.155 3.09319 117.108 3.24998C117.069 3.40577 117.013 3.57514 116.94 3.75808C116.741 4.29653 116.491 5.00384 116.187 5.88003C115.891 6.75522 115.565 7.73986 115.208 8.83395C114.821 10.0375 114.495 11.0485 114.229 11.867C113.969 12.6771 113.726 13.4435 113.5 14.1663C113.442 14.3473 113.387 14.5578 113.337 14.7978C113.293 15.0295 113.283 15.2341 113.307 15.4115C113.339 15.6554 113.463 15.7629 113.677 15.734C113.914 15.7021 114.215 15.5637 114.581 15.3187C114.953 15.0654 115.334 14.762 115.722 14.4086C116.12 14.0616 116.501 13.7055 116.865 13.3403C117.229 12.9677 117.565 12.6102 117.872 12.2677C117.977 12.1557 118.111 12.0887 118.274 12.0668C118.614 12.021 118.809 12.1865 118.86 12.5635C118.881 12.7187 118.853 12.8994 118.775 13.1055C118.698 13.3116 118.542 13.5245 118.308 13.7441C117.894 14.2439 117.473 14.7221 117.045 15.1785C116.624 15.6266 116.194 16.0345 115.754 16.4023C115.321 16.7617 114.88 17.062 114.431 17.3031C113.982 17.5516 113.537 17.7058 113.093 17.7655Z"/>
<path d="M119.911 16.8467C119.32 16.9264 118.794 16.8505 118.334 16.619C117.881 16.3791 117.511 16.0376 117.225 15.5945C116.946 15.1429 116.77 14.6437 116.696 14.0968C116.632 13.6163 116.696 13.0621 116.89 12.4339C117.09 11.7974 117.412 11.1708 117.856 10.5542C118.299 9.93749 118.856 9.40347 119.525 8.95209C120.2 8.49231 120.963 8.20515 121.813 8.09061C122.427 8.00794 122.905 8.09401 123.248 8.34881C123.59 8.60362 123.797 8.9934 123.868 9.51817C123.91 9.82859 123.872 10.1648 123.756 10.5267C123.639 10.8886 123.404 11.2701 123.052 11.6713C122.701 12.0798 122.214 12.5142 121.591 12.9744C120.974 13.4262 120.188 13.9046 119.233 14.4096C119.376 14.8569 119.777 15.0362 120.434 14.9476C120.944 14.8788 121.481 14.7012 122.044 14.4145C122.607 14.1205 123.143 13.7999 123.653 13.4527C124.164 13.113 124.6 12.7984 124.96 12.5091C125.319 12.2198 125.534 12.0554 125.604 12.0159C125.665 11.9626 125.72 11.9287 125.771 11.9144C125.829 11.899 125.881 11.8883 125.925 11.8823C126.102 11.8584 126.234 11.9122 126.319 12.0437C126.411 12.1668 126.463 12.2727 126.475 12.3613C126.484 12.4279 126.487 12.5102 126.486 12.6082C126.483 12.6989 126.441 12.8099 126.361 12.9411C126.278 13.0501 126.025 13.2986 125.604 13.6866C125.182 14.0745 124.725 14.4559 124.234 14.8306C123.632 15.2804 122.952 15.7032 122.192 16.0991C121.433 16.4949 120.673 16.7441 119.911 16.8467ZM118.895 13.1571C119.342 12.841 119.79 12.4833 120.24 12.084C120.697 11.6763 121.044 11.3774 121.282 11.1873C121.6 10.9188 121.802 10.692 121.89 10.5071C121.991 10.3054 122.033 10.1417 122.016 10.0161C122.001 9.9052 121.952 9.82148 121.869 9.76492C121.794 9.70737 121.711 9.67718 121.62 9.67435L121.519 9.67671L121.419 9.69015C121.013 9.74493 120.652 9.91399 120.336 10.1973C120.027 10.4723 119.778 10.7994 119.588 11.1786C119.385 11.5746 119.228 11.942 119.116 12.2807C119.011 12.6185 118.937 12.9106 118.895 13.1571Z"/>
</mask>
<path d="M70.0886 23.7302C69.6599 23.788 69.2225 23.8093 68.7765 23.7941C68.3315 23.7864 67.9487 23.71 67.6281 23.5651C67.3076 23.4202 67.1244 23.1777 67.0786 22.8377C67.0746 22.8082 67.0711 22.7823 67.0681 22.7601C67.0716 22.7296 67.0745 22.6953 67.0769 22.6573C67.1363 22.4838 67.2139 22.3341 67.3098 22.2083C67.4132 22.0815 67.6013 21.9696 67.8742 21.8726C68.1544 21.7747 68.5902 21.6858 69.1815 21.6061C69.5252 20.6944 69.8404 19.8505 70.1271 19.0744C70.4129 18.2909 70.6659 17.572 70.8863 16.9177C71.1066 16.2634 71.3049 15.6685 71.4811 15.133C71.6647 14.5966 71.8335 14.1185 71.9877 13.6989C72.294 12.8449 72.559 12.2147 72.7827 11.8083C73.0127 11.3935 73.2571 11.1687 73.5158 11.1338C73.7597 11.101 73.9835 11.1423 74.1872 11.2578C74.3909 11.3733 74.5072 11.5383 74.5361 11.7526C74.4869 11.8345 74.4641 11.9166 74.4677 11.9989C74.4702 12.0738 74.478 12.1593 74.491 12.2554C75.7211 11.5553 76.6336 10.8717 77.2285 10.2046C77.8298 9.52903 78.1015 8.97693 78.0437 8.54825C78.0188 8.36347 77.8281 8.2048 77.4716 8.07224C77.1151 7.93967 76.6634 7.91024 76.1165 7.98395C75.3035 8.09351 74.563 8.29489 73.8952 8.58807C73.2263 8.87387 72.6262 9.19554 72.095 9.5531C71.5637 9.91065 71.101 10.274 70.7067 10.6432C70.3115 11.005 69.9815 11.3204 69.7167 11.5894C69.3914 11.9116 69.1343 12.2097 68.9455 12.4834C68.7566 12.7572 68.4552 12.922 68.0413 12.9778C67.3835 13.0664 67.0168 12.8299 66.9411 12.2682C66.8773 11.7952 67.0816 11.2446 67.5538 10.6166C68.025 9.98116 68.6754 9.36298 69.505 8.76204C70.3282 8.16949 71.2769 7.6428 72.3511 7.18198C73.4317 6.71276 74.5264 6.40346 75.635 6.25405C77.165 6.04787 78.3198 6.1293 79.0995 6.49832C79.8791 6.86734 80.3178 7.41401 80.4154 8.13834C80.512 8.85527 80.1591 9.67041 79.3565 10.5838C78.9649 11.0279 78.4751 11.4701 77.8873 11.9106C77.3059 12.3426 76.6392 12.756 75.8872 13.1509C76.7055 13.304 77.3817 13.4913 77.9157 13.7128C78.4488 13.9269 78.8724 14.1671 79.1867 14.4333C79.5094 14.7058 79.7375 15.0024 79.871 15.3231C80.011 15.6353 80.1043 15.9652 80.1511 16.3125C80.2507 17.0516 80.0569 17.819 79.5696 18.6146C79.0813 19.4029 78.3407 20.1611 77.3477 20.8894C76.3621 21.6168 75.2366 22.2275 73.9712 22.7216C72.7058 23.2157 71.4116 23.5519 70.0886 23.7302ZM71.8393 21.2254C72.6867 21.0359 73.465 20.7806 74.1742 20.4592C74.8899 20.1295 75.5024 19.761 76.0119 19.3537C76.514 18.9474 76.8924 18.5164 77.1471 18.0606C77.4091 17.6039 77.5093 17.1464 77.4475 16.6882C77.3917 16.2743 77.124 15.8513 76.6444 15.4193C76.1647 14.9872 75.3388 14.6658 74.1666 14.4551C73.7762 15.802 73.3907 16.9903 73.0102 18.0199C72.6371 19.0484 72.2468 20.1169 71.8393 21.2254Z" fill="white"/>
<path d="M83.0486 21.8144C82.5681 21.8791 82.1203 21.8228 81.7051 21.6455C81.2973 21.4672 81.0506 21.0602 80.9649 20.4246C80.9579 20.3728 80.9602 20.222 80.9717 19.9721C80.9905 19.7213 81.0374 19.3989 81.1122 19.005C81.2047 18.5185 81.3669 17.8795 81.5989 17.0882C81.8309 16.2969 82.1782 15.3282 82.6409 14.1822C82.7582 13.8805 82.9087 13.657 83.0924 13.5119C83.2824 13.3583 83.4956 13.2656 83.7322 13.2337C83.9687 13.2019 84.1947 13.2316 84.4102 13.323C84.6247 13.4069 84.7464 13.5561 84.7752 13.7704C84.7852 13.8444 84.7836 13.9161 84.7704 13.9856C84.7415 14.1625 84.6365 14.4438 84.4552 14.8295C84.2812 15.2141 84.0862 15.6656 83.8701 16.1839C83.6574 16.6716 83.475 17.1891 83.323 17.7363C83.1784 18.2826 83.1259 18.7863 83.1655 19.2476C83.1834 19.3806 83.2368 19.4976 83.3256 19.5985C83.4145 19.6994 83.5439 19.7384 83.7139 19.7155C84.1943 19.6507 84.6314 19.4601 85.0253 19.1437C85.4255 18.8188 85.7872 18.4314 86.1103 17.9815C86.4325 17.5242 86.711 17.0502 86.9459 16.5595C87.1808 16.0688 87.3726 15.6216 87.5214 15.2177C87.6613 14.8602 87.7761 14.4835 87.8657 14.0877C87.9544 13.6844 88.0763 13.3331 88.2317 13.0337C88.387 12.7344 88.6272 12.5628 88.9524 12.519C89.2185 12.4831 89.4406 12.5397 89.6187 12.6888C89.7969 12.8379 89.9019 13.0307 89.9337 13.2672C89.9596 13.4593 89.8943 13.7842 89.7377 14.2418C89.5875 14.691 89.4165 15.1806 89.2245 15.7106C89.0208 16.2649 88.8518 16.8257 88.7175 17.3931C88.5897 17.9522 88.5537 18.4387 88.6094 18.8526C88.6453 19.1186 88.8258 19.2298 89.151 19.1859C89.6462 19.1192 90.2549 18.7776 90.977 18.161C91.3147 17.8747 91.6464 17.544 91.9721 17.169C92.3052 16.793 92.5905 16.3971 92.828 15.9813L93.142 17.4742C92.7235 18.11 92.1961 18.7191 91.5597 19.3016C90.9296 19.8756 90.3022 20.3289 89.6772 20.6615C89.0321 21.0118 88.471 21.1476 87.9938 21.0689C87.5166 20.9903 87.2317 20.6072 87.1391 19.9199C87.0923 19.5725 87.0981 19.1691 87.1566 18.7097C86.9561 19.1205 86.6716 19.5502 86.3031 19.9987C85.9336 20.4398 85.4781 20.8285 84.9364 21.1649C84.4022 21.5003 83.7729 21.7168 83.0486 21.8144Z" fill="white"/>
<path d="M94.2448 20.4636C93.343 20.5851 92.6787 20.4301 92.2518 19.9984C91.8249 19.5668 91.5667 19.0184 91.477 18.3532C91.4262 17.9763 91.422 17.5818 91.4643 17.1697C91.5056 16.7503 91.5784 16.3416 91.6828 15.9437L92.0468 14.5401C92.087 14.3917 92.1294 14.2318 92.174 14.0602C92.2176 13.8812 92.2757 13.6702 92.3483 13.4272L94.616 5.79571C94.6778 5.5842 94.817 5.38859 95.0336 5.2089C95.2576 5.02821 95.4989 4.92043 95.7576 4.88557C96.0976 4.83975 96.343 4.8744 96.494 4.98951C96.6524 5.10363 96.7445 5.25677 96.7704 5.44893C96.7903 5.59676 96.7753 5.76434 96.7253 5.95168C96.6743 6.13164 96.6144 6.3015 96.5456 6.46128C96.3429 7.0229 96.148 7.58721 95.961 8.15423C95.774 8.72125 95.595 9.29096 95.4238 9.86338C95.2526 10.4358 95.074 11.0092 94.888 11.5836C94.702 12.158 94.5077 12.726 94.3049 13.2877C94.7208 12.8554 95.2039 12.4478 95.7543 12.0651C96.3048 11.6824 96.9015 11.4477 97.5445 11.3611C97.8476 11.3202 98.1611 11.357 98.485 11.4714C98.8164 11.5848 99.1054 11.7753 99.3522 12.0431C99.6064 12.3098 99.7629 12.6613 99.8216 13.0973C99.8396 13.2304 99.8276 13.4765 99.7857 13.8359C99.7438 14.1952 99.6754 14.5807 99.5803 14.9923C99.4917 15.3956 99.3734 15.7464 99.2255 16.0448C99.2882 16.1191 99.3617 16.1619 99.446 16.1731C99.5293 16.1769 99.6227 16.1719 99.7261 16.1579C100.17 16.0982 100.596 15.9692 101.006 15.771C101.422 15.5644 101.798 15.3406 102.135 15.0997C102.478 14.8577 102.762 14.6464 102.986 14.4657C103.062 14.3576 103.151 14.2966 103.255 14.2827C103.381 14.2658 103.495 14.3067 103.599 14.4057C103.71 14.5036 103.777 14.6412 103.801 14.8186C103.824 14.9886 103.81 15.1636 103.759 15.3435C103.714 15.5151 103.613 15.7131 103.455 15.9376C102.857 16.4096 102.23 16.8402 101.575 17.2295C100.919 17.6113 100.218 17.8526 99.4714 17.9532C98.9836 18.0189 98.5734 17.935 98.2409 17.7013C97.7143 18.5399 97.1201 19.1844 96.4584 19.6348C95.803 20.0768 95.0652 20.353 94.2448 20.4636ZM94.7828 18.2577C95.3593 18.18 95.8828 17.9326 96.3534 17.5155C96.8229 17.091 97.1808 16.5913 97.4269 16.0163C97.6794 15.4329 97.7683 14.864 97.6936 14.3097C97.6637 14.088 97.5843 13.8616 97.4553 13.6307C97.3264 13.3997 97.0771 13.3091 96.7076 13.3589C96.1458 13.4346 95.6154 13.6867 95.1163 14.1152C94.6162 14.5363 94.2251 15.0405 93.943 15.6279C93.66 16.2078 93.5563 16.7787 93.632 17.3404C93.6658 17.5917 93.7573 17.8239 93.9065 18.0371C94.062 18.2419 94.3541 18.3154 94.7828 18.2577Z" fill="white"/>
<path d="M104.289 19.11C103.387 19.2315 102.723 19.0765 102.296 18.6448C101.869 18.2132 101.611 17.6648 101.521 16.9996C101.471 16.6227 101.466 16.2282 101.509 15.8161C101.55 15.3967 101.623 14.988 101.727 14.5901L102.091 13.1865C102.131 13.0381 102.174 12.8782 102.218 12.7066C102.262 12.5276 102.32 12.3166 102.393 12.0736L104.66 4.4421C104.722 4.23059 104.861 4.03499 105.078 3.8553C105.302 3.67461 105.543 3.56683 105.802 3.53197C106.142 3.48615 106.387 3.5208 106.538 3.63591C106.697 3.75002 106.789 3.90316 106.815 4.09533C106.835 4.24315 106.82 4.41074 106.77 4.59808C106.719 4.77804 106.659 4.9479 106.59 5.10767C106.387 5.66929 106.192 6.23361 106.005 6.80063C105.818 7.36764 105.639 7.93736 105.468 8.50978C105.297 9.08219 105.118 9.6556 104.932 10.23C104.746 10.8044 104.552 11.3724 104.349 11.9341C104.765 11.5017 105.248 11.0942 105.799 10.7115C106.349 10.3288 106.946 10.0941 107.589 10.0075C107.892 9.96663 108.206 10.0034 108.529 10.1178C108.861 10.2312 109.15 10.4217 109.397 10.6895C109.651 10.9562 109.807 11.3076 109.866 11.7437C109.884 11.8768 109.872 12.1229 109.83 12.4823C109.788 12.8416 109.72 13.2271 109.625 13.6387C109.536 14.042 109.418 14.3928 109.27 14.6912C109.333 14.7655 109.406 14.8083 109.49 14.8195C109.574 14.8233 109.667 14.8183 109.771 14.8043C110.214 14.7446 110.641 14.6156 111.05 14.4174C111.467 14.2108 111.843 13.987 112.179 13.746C112.523 13.5041 112.807 13.2927 113.03 13.1121C113.106 13.004 113.196 12.943 113.299 12.9291C113.425 12.9122 113.54 12.9531 113.643 13.0521C113.754 13.15 113.822 13.2876 113.846 13.465C113.869 13.635 113.854 13.81 113.803 13.9899C113.759 14.1615 113.658 14.3595 113.5 14.584C112.901 15.056 112.274 15.4866 111.619 15.8759C110.964 16.2577 110.262 16.499 109.516 16.5996C109.028 16.6653 108.618 16.5814 108.285 16.3477C107.759 17.1863 107.165 17.8308 106.503 18.2811C105.847 18.7232 105.11 18.9994 104.289 19.11ZM104.827 16.9041C105.404 16.8264 105.927 16.579 106.398 16.1619C106.867 15.7374 107.225 15.2376 107.471 14.6627C107.724 14.0793 107.813 13.5104 107.738 12.9561C107.708 12.7344 107.629 12.508 107.5 12.2771C107.371 12.0461 107.122 11.9555 106.752 12.0053C106.19 12.081 105.66 12.3331 105.161 12.7616C104.661 13.1827 104.27 13.6869 103.987 14.2743C103.704 14.8542 103.601 15.4251 103.676 15.9868C103.71 16.2381 103.802 16.4703 103.951 16.6835C104.106 16.8883 104.399 16.9618 104.827 16.9041Z" fill="white"/>
<path d="M113.093 17.7655C112.487 17.8472 112.049 17.752 111.779 17.4798C111.517 17.2066 111.356 16.852 111.297 16.416C111.248 16.0538 111.25 15.6773 111.303 15.2864C111.362 14.8871 111.444 14.5186 111.549 14.1809C111.73 13.5695 111.915 12.9613 112.105 12.3564C112.294 11.7514 112.468 11.1975 112.626 10.6946L115.021 3.09101C115.141 2.69855 115.364 2.42398 115.689 2.2673C116.014 2.11061 116.326 2.07987 116.625 2.17506C116.93 2.26186 117.106 2.47525 117.151 2.81524C117.169 2.94828 117.155 3.09319 117.108 3.24998C117.069 3.40577 117.013 3.57514 116.94 3.75808C116.741 4.29653 116.491 5.00384 116.187 5.88003C115.891 6.75522 115.565 7.73986 115.208 8.83395C114.821 10.0375 114.495 11.0485 114.229 11.867C113.969 12.6771 113.726 13.4435 113.5 14.1663C113.442 14.3473 113.387 14.5578 113.337 14.7978C113.293 15.0295 113.283 15.2341 113.307 15.4115C113.339 15.6554 113.463 15.7629 113.677 15.734C113.914 15.7021 114.215 15.5637 114.581 15.3187C114.953 15.0654 115.334 14.762 115.722 14.4086C116.12 14.0616 116.501 13.7055 116.865 13.3403C117.229 12.9677 117.565 12.6102 117.872 12.2677C117.977 12.1557 118.111 12.0887 118.274 12.0668C118.614 12.021 118.809 12.1865 118.86 12.5635C118.881 12.7187 118.853 12.8994 118.775 13.1055C118.698 13.3116 118.542 13.5245 118.308 13.7441C117.894 14.2439 117.473 14.7221 117.045 15.1785C116.624 15.6266 116.194 16.0345 115.754 16.4023C115.321 16.7617 114.88 17.062 114.431 17.3031C113.982 17.5516 113.537 17.7058 113.093 17.7655Z" fill="white"/>
<path d="M119.911 16.8467C119.32 16.9264 118.794 16.8505 118.334 16.619C117.881 16.3791 117.511 16.0376 117.225 15.5945C116.946 15.1429 116.77 14.6437 116.696 14.0968C116.632 13.6163 116.696 13.0621 116.89 12.4339C117.09 11.7974 117.412 11.1708 117.856 10.5542C118.299 9.93749 118.856 9.40347 119.525 8.95209C120.2 8.49231 120.963 8.20515 121.813 8.09061C122.427 8.00794 122.905 8.09401 123.248 8.34881C123.59 8.60362 123.797 8.9934 123.868 9.51817C123.91 9.82859 123.872 10.1648 123.756 10.5267C123.639 10.8886 123.404 11.2701 123.052 11.6713C122.701 12.0798 122.214 12.5142 121.591 12.9744C120.974 13.4262 120.188 13.9046 119.233 14.4096C119.376 14.8569 119.777 15.0362 120.434 14.9476C120.944 14.8788 121.481 14.7012 122.044 14.4145C122.607 14.1205 123.143 13.7999 123.653 13.4527C124.164 13.113 124.6 12.7984 124.96 12.5091C125.319 12.2198 125.534 12.0554 125.604 12.0159C125.665 11.9626 125.72 11.9287 125.771 11.9144C125.829 11.899 125.881 11.8883 125.925 11.8823C126.102 11.8584 126.234 11.9122 126.319 12.0437C126.411 12.1668 126.463 12.2727 126.475 12.3613C126.484 12.4279 126.487 12.5102 126.486 12.6082C126.483 12.6989 126.441 12.8099 126.361 12.9411C126.278 13.0501 126.025 13.2986 125.604 13.6866C125.182 14.0745 124.725 14.4559 124.234 14.8306C123.632 15.2804 122.952 15.7032 122.192 16.0991C121.433 16.4949 120.673 16.7441 119.911 16.8467ZM118.895 13.1571C119.342 12.841 119.79 12.4833 120.24 12.084C120.697 11.6763 121.044 11.3774 121.282 11.1873C121.6 10.9188 121.802 10.692 121.89 10.5071C121.991 10.3054 122.033 10.1417 122.016 10.0161C122.001 9.9052 121.952 9.82148 121.869 9.76492C121.794 9.70737 121.711 9.67718 121.62 9.67435L121.519 9.67671L121.419 9.69015C121.013 9.74493 120.652 9.91399 120.336 10.1973C120.027 10.4723 119.778 10.7994 119.588 11.1786C119.385 11.5746 119.228 11.942 119.116 12.2807C119.011 12.6185 118.937 12.9106 118.895 13.1571Z" fill="white"/>
<path d="M70.0886 23.7302C69.6599 23.788 69.2225 23.8093 68.7765 23.7941C68.3315 23.7864 67.9487 23.71 67.6281 23.5651C67.3076 23.4202 67.1244 23.1777 67.0786 22.8377C67.0746 22.8082 67.0711 22.7823 67.0681 22.7601C67.0716 22.7296 67.0745 22.6953 67.0769 22.6573C67.1363 22.4838 67.2139 22.3341 67.3098 22.2083C67.4132 22.0815 67.6013 21.9696 67.8742 21.8726C68.1544 21.7747 68.5902 21.6858 69.1815 21.6061C69.5252 20.6944 69.8404 19.8505 70.1271 19.0744C70.4129 18.2909 70.6659 17.572 70.8863 16.9177C71.1066 16.2634 71.3049 15.6685 71.4811 15.133C71.6647 14.5966 71.8335 14.1185 71.9877 13.6989C72.294 12.8449 72.559 12.2147 72.7827 11.8083C73.0127 11.3935 73.2571 11.1687 73.5158 11.1338C73.7597 11.101 73.9835 11.1423 74.1872 11.2578C74.3909 11.3733 74.5072 11.5383 74.5361 11.7526C74.4869 11.8345 74.4641 11.9166 74.4677 11.9989C74.4702 12.0738 74.478 12.1593 74.491 12.2554C75.7211 11.5553 76.6336 10.8717 77.2285 10.2046C77.8298 9.52903 78.1015 8.97693 78.0437 8.54825C78.0188 8.36347 77.8281 8.2048 77.4716 8.07224C77.1151 7.93967 76.6634 7.91024 76.1165 7.98395C75.3035 8.09351 74.563 8.29489 73.8952 8.58807C73.2263 8.87387 72.6262 9.19554 72.095 9.5531C71.5637 9.91065 71.101 10.274 70.7067 10.6432C70.3115 11.005 69.9815 11.3204 69.7167 11.5894C69.3914 11.9116 69.1343 12.2097 68.9455 12.4834C68.7566 12.7572 68.4552 12.922 68.0413 12.9778C67.3835 13.0664 67.0168 12.8299 66.9411 12.2682C66.8773 11.7952 67.0816 11.2446 67.5538 10.6166C68.025 9.98116 68.6754 9.36298 69.505 8.76204C70.3282 8.16949 71.2769 7.6428 72.3511 7.18198C73.4317 6.71276 74.5264 6.40346 75.635 6.25405C77.165 6.04787 78.3198 6.1293 79.0995 6.49832C79.8791 6.86734 80.3178 7.41401 80.4154 8.13834C80.512 8.85527 80.1591 9.67041 79.3565 10.5838C78.9649 11.0279 78.4751 11.4701 77.8873 11.9106C77.3059 12.3426 76.6392 12.756 75.8872 13.1509C76.7055 13.304 77.3817 13.4913 77.9157 13.7128C78.4488 13.9269 78.8724 14.1671 79.1867 14.4333C79.5094 14.7058 79.7375 15.0024 79.871 15.3231C80.011 15.6353 80.1043 15.9652 80.1511 16.3125C80.2507 17.0516 80.0569 17.819 79.5696 18.6146C79.0813 19.4029 78.3407 20.1611 77.3477 20.8894C76.3621 21.6168 75.2366 22.2275 73.9712 22.7216C72.7058 23.2157 71.4116 23.5519 70.0886 23.7302ZM71.8393 21.2254C72.6867 21.0359 73.465 20.7806 74.1742 20.4592C74.8899 20.1295 75.5024 19.761 76.0119 19.3537C76.514 18.9474 76.8924 18.5164 77.1471 18.0606C77.4091 17.6039 77.5093 17.1464 77.4475 16.6882C77.3917 16.2743 77.124 15.8513 76.6444 15.4193C76.1647 14.9872 75.3388 14.6658 74.1666 14.4551C73.7762 15.802 73.3907 16.9903 73.0102 18.0199C72.6371 19.0484 72.2468 20.1169 71.8393 21.2254Z" stroke="#58D59A" stroke-width="2.29106" mask="url(#path-2-outside-2_2328_9389)"/>
<path d="M83.0486 21.8144C82.5681 21.8791 82.1203 21.8228 81.7051 21.6455C81.2973 21.4672 81.0506 21.0602 80.9649 20.4246C80.9579 20.3728 80.9602 20.222 80.9717 19.9721C80.9905 19.7213 81.0374 19.3989 81.1122 19.005C81.2047 18.5185 81.3669 17.8795 81.5989 17.0882C81.8309 16.2969 82.1782 15.3282 82.6409 14.1822C82.7582 13.8805 82.9087 13.657 83.0924 13.5119C83.2824 13.3583 83.4956 13.2656 83.7322 13.2337C83.9687 13.2019 84.1947 13.2316 84.4102 13.323C84.6247 13.4069 84.7464 13.5561 84.7752 13.7704C84.7852 13.8444 84.7836 13.9161 84.7704 13.9856C84.7415 14.1625 84.6365 14.4438 84.4552 14.8295C84.2812 15.2141 84.0862 15.6656 83.8701 16.1839C83.6574 16.6716 83.475 17.1891 83.323 17.7363C83.1784 18.2826 83.1259 18.7863 83.1655 19.2476C83.1834 19.3806 83.2368 19.4976 83.3256 19.5985C83.4145 19.6994 83.5439 19.7384 83.7139 19.7155C84.1943 19.6507 84.6314 19.4601 85.0253 19.1437C85.4255 18.8188 85.7872 18.4314 86.1103 17.9815C86.4325 17.5242 86.711 17.0502 86.9459 16.5595C87.1808 16.0688 87.3726 15.6216 87.5214 15.2177C87.6613 14.8602 87.7761 14.4835 87.8657 14.0877C87.9544 13.6844 88.0763 13.3331 88.2317 13.0337C88.387 12.7344 88.6272 12.5628 88.9524 12.519C89.2185 12.4831 89.4406 12.5397 89.6187 12.6888C89.7969 12.8379 89.9019 13.0307 89.9337 13.2672C89.9596 13.4593 89.8943 13.7842 89.7377 14.2418C89.5875 14.691 89.4165 15.1806 89.2245 15.7106C89.0208 16.2649 88.8518 16.8257 88.7175 17.3931C88.5897 17.9522 88.5537 18.4387 88.6094 18.8526C88.6453 19.1186 88.8258 19.2298 89.151 19.1859C89.6462 19.1192 90.2549 18.7776 90.977 18.161C91.3147 17.8747 91.6464 17.544 91.9721 17.169C92.3052 16.793 92.5905 16.3971 92.828 15.9813L93.142 17.4742C92.7235 18.11 92.1961 18.7191 91.5597 19.3016C90.9296 19.8756 90.3022 20.3289 89.6772 20.6615C89.0321 21.0118 88.471 21.1476 87.9938 21.0689C87.5166 20.9903 87.2317 20.6072 87.1391 19.9199C87.0923 19.5725 87.0981 19.1691 87.1566 18.7097C86.9561 19.1205 86.6716 19.5502 86.3031 19.9987C85.9336 20.4398 85.4781 20.8285 84.9364 21.1649C84.4022 21.5003 83.7729 21.7168 83.0486 21.8144Z" stroke="#58D59A" stroke-width="2.29106" mask="url(#path-2-outside-2_2328_9389)"/>
<path d="M94.2448 20.4636C93.343 20.5851 92.6787 20.4301 92.2518 19.9984C91.8249 19.5668 91.5667 19.0184 91.477 18.3532C91.4262 17.9763 91.422 17.5818 91.4643 17.1697C91.5056 16.7503 91.5784 16.3416 91.6828 15.9437L92.0468 14.5401C92.087 14.3917 92.1294 14.2318 92.174 14.0602C92.2176 13.8812 92.2757 13.6702 92.3483 13.4272L94.616 5.79571C94.6778 5.5842 94.817 5.38859 95.0336 5.2089C95.2576 5.02821 95.4989 4.92043 95.7576 4.88557C96.0976 4.83975 96.343 4.8744 96.494 4.98951C96.6524 5.10363 96.7445 5.25677 96.7704 5.44893C96.7903 5.59676 96.7753 5.76434 96.7253 5.95168C96.6743 6.13164 96.6144 6.3015 96.5456 6.46128C96.3429 7.0229 96.148 7.58721 95.961 8.15423C95.774 8.72125 95.595 9.29096 95.4238 9.86338C95.2526 10.4358 95.074 11.0092 94.888 11.5836C94.702 12.158 94.5077 12.726 94.3049 13.2877C94.7208 12.8554 95.2039 12.4478 95.7543 12.0651C96.3048 11.6824 96.9015 11.4477 97.5445 11.3611C97.8476 11.3202 98.1611 11.357 98.485 11.4714C98.8164 11.5848 99.1054 11.7753 99.3522 12.0431C99.6064 12.3098 99.7629 12.6613 99.8216 13.0973C99.8396 13.2304 99.8276 13.4765 99.7857 13.8359C99.7438 14.1952 99.6754 14.5807 99.5803 14.9923C99.4917 15.3956 99.3734 15.7464 99.2255 16.0448C99.2882 16.1191 99.3617 16.1619 99.446 16.1731C99.5293 16.1769 99.6227 16.1719 99.7261 16.1579C100.17 16.0982 100.596 15.9692 101.006 15.771C101.422 15.5644 101.798 15.3406 102.135 15.0997C102.478 14.8577 102.762 14.6464 102.986 14.4657C103.062 14.3576 103.151 14.2966 103.255 14.2827C103.381 14.2658 103.495 14.3067 103.599 14.4057C103.71 14.5036 103.777 14.6412 103.801 14.8186C103.824 14.9886 103.81 15.1636 103.759 15.3435C103.714 15.5151 103.613 15.7131 103.455 15.9376C102.857 16.4096 102.23 16.8402 101.575 17.2295C100.919 17.6113 100.218 17.8526 99.4714 17.9532C98.9836 18.0189 98.5734 17.935 98.2409 17.7013C97.7143 18.5399 97.1201 19.1844 96.4584 19.6348C95.803 20.0768 95.0652 20.353 94.2448 20.4636ZM94.7828 18.2577C95.3593 18.18 95.8828 17.9326 96.3534 17.5155C96.8229 17.091 97.1808 16.5913 97.4269 16.0163C97.6794 15.4329 97.7683 14.864 97.6936 14.3097C97.6637 14.088 97.5843 13.8616 97.4553 13.6307C97.3264 13.3997 97.0771 13.3091 96.7076 13.3589C96.1458 13.4346 95.6154 13.6867 95.1163 14.1152C94.6162 14.5363 94.2251 15.0405 93.943 15.6279C93.66 16.2078 93.5563 16.7787 93.632 17.3404C93.6658 17.5917 93.7573 17.8239 93.9065 18.0371C94.062 18.2419 94.3541 18.3154 94.7828 18.2577Z" stroke="#58D59A" stroke-width="2.29106" mask="url(#path-2-outside-2_2328_9389)"/>
<path d="M104.289 19.11C103.387 19.2315 102.723 19.0765 102.296 18.6448C101.869 18.2132 101.611 17.6648 101.521 16.9996C101.471 16.6227 101.466 16.2282 101.509 15.8161C101.55 15.3967 101.623 14.988 101.727 14.5901L102.091 13.1865C102.131 13.0381 102.174 12.8782 102.218 12.7066C102.262 12.5276 102.32 12.3166 102.393 12.0736L104.66 4.4421C104.722 4.23059 104.861 4.03499 105.078 3.8553C105.302 3.67461 105.543 3.56683 105.802 3.53197C106.142 3.48615 106.387 3.5208 106.538 3.63591C106.697 3.75002 106.789 3.90316 106.815 4.09533C106.835 4.24315 106.82 4.41074 106.77 4.59808C106.719 4.77804 106.659 4.9479 106.59 5.10767C106.387 5.66929 106.192 6.23361 106.005 6.80063C105.818 7.36764 105.639 7.93736 105.468 8.50978C105.297 9.08219 105.118 9.6556 104.932 10.23C104.746 10.8044 104.552 11.3724 104.349 11.9341C104.765 11.5017 105.248 11.0942 105.799 10.7115C106.349 10.3288 106.946 10.0941 107.589 10.0075C107.892 9.96663 108.206 10.0034 108.529 10.1178C108.861 10.2312 109.15 10.4217 109.397 10.6895C109.651 10.9562 109.807 11.3076 109.866 11.7437C109.884 11.8768 109.872 12.1229 109.83 12.4823C109.788 12.8416 109.72 13.2271 109.625 13.6387C109.536 14.042 109.418 14.3928 109.27 14.6912C109.333 14.7655 109.406 14.8083 109.49 14.8195C109.574 14.8233 109.667 14.8183 109.771 14.8043C110.214 14.7446 110.641 14.6156 111.05 14.4174C111.467 14.2108 111.843 13.987 112.179 13.746C112.523 13.5041 112.807 13.2927 113.03 13.1121C113.106 13.004 113.196 12.943 113.299 12.9291C113.425 12.9122 113.54 12.9531 113.643 13.0521C113.754 13.15 113.822 13.2876 113.846 13.465C113.869 13.635 113.854 13.81 113.803 13.9899C113.759 14.1615 113.658 14.3595 113.5 14.584C112.901 15.056 112.274 15.4866 111.619 15.8759C110.964 16.2577 110.262 16.499 109.516 16.5996C109.028 16.6653 108.618 16.5814 108.285 16.3477C107.759 17.1863 107.165 17.8308 106.503 18.2811C105.847 18.7232 105.11 18.9994 104.289 19.11ZM104.827 16.9041C105.404 16.8264 105.927 16.579 106.398 16.1619C106.867 15.7374 107.225 15.2376 107.471 14.6627C107.724 14.0793 107.813 13.5104 107.738 12.9561C107.708 12.7344 107.629 12.508 107.5 12.2771C107.371 12.0461 107.122 11.9555 106.752 12.0053C106.19 12.081 105.66 12.3331 105.161 12.7616C104.661 13.1827 104.27 13.6869 103.987 14.2743C103.704 14.8542 103.601 15.4251 103.676 15.9868C103.71 16.2381 103.802 16.4703 103.951 16.6835C104.106 16.8883 104.399 16.9618 104.827 16.9041Z" stroke="#58D59A" stroke-width="2.29106" mask="url(#path-2-outside-2_2328_9389)"/>
<path d="M113.093 17.7655C112.487 17.8472 112.049 17.752 111.779 17.4798C111.517 17.2066 111.356 16.852 111.297 16.416C111.248 16.0538 111.25 15.6773 111.303 15.2864C111.362 14.8871 111.444 14.5186 111.549 14.1809C111.73 13.5695 111.915 12.9613 112.105 12.3564C112.294 11.7514 112.468 11.1975 112.626 10.6946L115.021 3.09101C115.141 2.69855 115.364 2.42398 115.689 2.2673C116.014 2.11061 116.326 2.07987 116.625 2.17506C116.93 2.26186 117.106 2.47525 117.151 2.81524C117.169 2.94828 117.155 3.09319 117.108 3.24998C117.069 3.40577 117.013 3.57514 116.94 3.75808C116.741 4.29653 116.491 5.00384 116.187 5.88003C115.891 6.75522 115.565 7.73986 115.208 8.83395C114.821 10.0375 114.495 11.0485 114.229 11.867C113.969 12.6771 113.726 13.4435 113.5 14.1663C113.442 14.3473 113.387 14.5578 113.337 14.7978C113.293 15.0295 113.283 15.2341 113.307 15.4115C113.339 15.6554 113.463 15.7629 113.677 15.734C113.914 15.7021 114.215 15.5637 114.581 15.3187C114.953 15.0654 115.334 14.762 115.722 14.4086C116.12 14.0616 116.501 13.7055 116.865 13.3403C117.229 12.9677 117.565 12.6102 117.872 12.2677C117.977 12.1557 118.111 12.0887 118.274 12.0668C118.614 12.021 118.809 12.1865 118.86 12.5635C118.881 12.7187 118.853 12.8994 118.775 13.1055C118.698 13.3116 118.542 13.5245 118.308 13.7441C117.894 14.2439 117.473 14.7221 117.045 15.1785C116.624 15.6266 116.194 16.0345 115.754 16.4023C115.321 16.7617 114.88 17.062 114.431 17.3031C113.982 17.5516 113.537 17.7058 113.093 17.7655Z" stroke="#58D59A" stroke-width="2.29106" mask="url(#path-2-outside-2_2328_9389)"/>
<path d="M119.911 16.8467C119.32 16.9264 118.794 16.8505 118.334 16.619C117.881 16.3791 117.511 16.0376 117.225 15.5945C116.946 15.1429 116.77 14.6437 116.696 14.0968C116.632 13.6163 116.696 13.0621 116.89 12.4339C117.09 11.7974 117.412 11.1708 117.856 10.5542C118.299 9.93749 118.856 9.40347 119.525 8.95209C120.2 8.49231 120.963 8.20515 121.813 8.09061C122.427 8.00794 122.905 8.09401 123.248 8.34881C123.59 8.60362 123.797 8.9934 123.868 9.51817C123.91 9.82859 123.872 10.1648 123.756 10.5267C123.639 10.8886 123.404 11.2701 123.052 11.6713C122.701 12.0798 122.214 12.5142 121.591 12.9744C120.974 13.4262 120.188 13.9046 119.233 14.4096C119.376 14.8569 119.777 15.0362 120.434 14.9476C120.944 14.8788 121.481 14.7012 122.044 14.4145C122.607 14.1205 123.143 13.7999 123.653 13.4527C124.164 13.113 124.6 12.7984 124.96 12.5091C125.319 12.2198 125.534 12.0554 125.604 12.0159C125.665 11.9626 125.72 11.9287 125.771 11.9144C125.829 11.899 125.881 11.8883 125.925 11.8823C126.102 11.8584 126.234 11.9122 126.319 12.0437C126.411 12.1668 126.463 12.2727 126.475 12.3613C126.484 12.4279 126.487 12.5102 126.486 12.6082C126.483 12.6989 126.441 12.8099 126.361 12.9411C126.278 13.0501 126.025 13.2986 125.604 13.6866C125.182 14.0745 124.725 14.4559 124.234 14.8306C123.632 15.2804 122.952 15.7032 122.192 16.0991C121.433 16.4949 120.673 16.7441 119.911 16.8467ZM118.895 13.1571C119.342 12.841 119.79 12.4833 120.24 12.084C120.697 11.6763 121.044 11.3774 121.282 11.1873C121.6 10.9188 121.802 10.692 121.89 10.5071C121.991 10.3054 122.033 10.1417 122.016 10.0161C122.001 9.9052 121.952 9.82148 121.869 9.76492C121.794 9.70737 121.711 9.67718 121.62 9.67435L121.519 9.67671L121.419 9.69015C121.013 9.74493 120.652 9.91399 120.336 10.1973C120.027 10.4723 119.778 10.7994 119.588 11.1786C119.385 11.5746 119.228 11.942 119.116 12.2807C119.011 12.6185 118.937 12.9106 118.895 13.1571Z" stroke="#58D59A" stroke-width="2.29106" mask="url(#path-2-outside-2_2328_9389)"/>
<circle cx="23.9804" cy="42.7871" r="7.75687" fill="#FE65AA" stroke="#58D59A" stroke-width="1.33416"/>
<path d="M20.4375 47.4285V38.1348H24.0355C24.9826 38.1348 25.7394 38.3339 26.3058 38.7322C26.8723 39.1261 27.1555 39.7125 27.1555 40.4914C27.1555 40.7746 27.098 41.0357 26.9829 41.2747C26.8679 41.5137 26.7108 41.7261 26.5116 41.912C26.3169 42.0935 26.0978 42.2395 25.8544 42.3501C26.3545 42.5272 26.7572 42.8215 27.0626 43.233C27.3724 43.6446 27.5273 44.1336 27.5273 44.7001C27.5273 45.2533 27.3879 45.7335 27.1091 46.1407C26.8347 46.5478 26.443 46.8642 25.9341 47.0899C25.4251 47.3156 24.821 47.4285 24.1218 47.4285H20.4375ZM22.6414 45.8021H23.8032C24.2811 45.8021 24.6396 45.7047 24.8786 45.51C25.1176 45.3153 25.237 45.0232 25.237 44.6337C25.237 44.262 25.122 43.9743 24.8919 43.7708C24.6661 43.5627 24.3276 43.4587 23.8762 43.4587H22.6414V45.8021ZM22.6414 41.9452H23.7368C24.0023 41.9452 24.2302 41.9009 24.4205 41.8124C24.6153 41.7239 24.7635 41.5956 24.8653 41.4274C24.9715 41.2592 25.0246 41.0579 25.0246 40.8233C25.0246 40.4825 24.9096 40.2192 24.6794 40.0333C24.4537 39.8475 24.1284 39.7545 23.7036 39.7545H22.6414V41.9452Z" fill="white"/>
<circle cx="43.496" cy="42.7871" r="7.75687" fill="#FE65AA" stroke="#58D59A" stroke-width="1.33416"/>
<path d="M42.4844 47.3314V38.2285H44.6431V47.3314H42.4844Z" fill="white"/>
<circle cx="63.0117" cy="42.7871" r="7.75687" fill="#FE65AA" stroke="#58D59A" stroke-width="1.33416"/>
<path d="M58.9609 47.3314V38.2285H61.0936L64.8388 43.8073V38.2285H66.9325V47.3314H64.7998L61.0481 41.6746V47.3314H58.9609Z" fill="white"/>
<circle cx="82.5273" cy="42.7871" r="7.75687" fill="#FE65AA" stroke="#58D59A" stroke-width="1.33416"/>
<path d="M82.5911 47.7215C81.8888 47.7215 81.2278 47.6131 80.6079 47.3964C79.9881 47.1797 79.4419 46.8676 78.9694 46.4601C78.5013 46.0483 78.1328 45.5498 77.8641 44.9646C77.5953 44.3795 77.4609 43.7184 77.4609 42.9815C77.4609 42.249 77.5888 41.5922 77.8446 41.0114C78.1046 40.4262 78.4644 39.9256 78.9239 39.5094C79.3834 39.0933 79.9165 38.7769 80.5234 38.5601C81.1303 38.3391 81.7826 38.2285 82.4805 38.2285C82.8013 38.2285 83.1372 38.2545 83.4883 38.3065C83.8394 38.3542 84.1971 38.4409 84.5612 38.5666C84.9253 38.6923 85.2829 38.8701 85.634 39.0998L84.7367 40.7708C84.4246 40.5671 84.093 40.4175 83.7419 40.3222C83.3908 40.2225 83.018 40.1726 82.6236 40.1726C82.1684 40.1726 81.7588 40.2376 81.3947 40.3677C81.0306 40.4977 80.7206 40.6863 80.4649 40.9334C80.2135 41.1761 80.0206 41.4709 79.8862 41.8176C79.7518 42.1644 79.6846 42.5567 79.6846 42.9945C79.6846 43.623 79.819 44.1497 80.0878 44.5745C80.3565 44.995 80.7206 45.3136 81.1801 45.5303C81.6396 45.7427 82.1533 45.8489 82.7211 45.8489C82.9465 45.8489 83.1611 45.8294 83.3648 45.7904C83.5685 45.7514 83.7484 45.7059 83.9045 45.6539V44.0413H82.0449V42.3248H85.7966V46.9673C85.5235 47.1233 85.1984 47.2577 84.8213 47.3704C84.4485 47.4831 84.0649 47.5698 83.6704 47.6305C83.2803 47.6912 82.9205 47.7215 82.5911 47.7215Z" fill="white"/>
<circle cx="102.043" cy="42.7871" r="7.75687" fill="#FE65AA" stroke="#58D59A" stroke-width="1.33416"/>
<path d="M102.042 47.8504C101.387 47.8504 100.781 47.7296 100.224 47.4879C99.6707 47.2419 99.1887 46.9014 98.7779 46.4664C98.367 46.0314 98.0477 45.5218 97.82 44.9375C97.5962 44.3531 97.4844 43.7204 97.4844 43.0394C97.4844 42.3541 97.5962 41.7192 97.82 41.1348C98.0477 40.5505 98.367 40.0409 98.7779 39.6059C99.1887 39.1709 99.6707 38.8326 100.224 38.591C100.781 38.3493 101.387 38.2285 102.042 38.2285C102.701 38.2285 103.307 38.3515 103.86 38.5976C104.413 38.8436 104.896 39.1863 105.306 39.6257C105.717 40.065 106.034 40.5769 106.258 41.1612C106.486 41.7412 106.6 42.3672 106.6 43.0394C106.6 43.7204 106.486 44.3531 106.258 44.9375C106.034 45.5218 105.717 46.0314 105.306 46.4664C104.896 46.9014 104.413 47.2419 103.86 47.4879C103.307 47.7296 102.701 47.8504 102.042 47.8504ZM102.042 45.7942C102.396 45.7942 102.719 45.7305 103.012 45.6031C103.309 45.4757 103.567 45.2911 103.787 45.0495C104.007 44.8078 104.176 44.5179 104.294 44.1796C104.416 43.8369 104.477 43.4568 104.477 43.0394C104.477 42.4771 104.371 41.9894 104.159 41.5764C103.952 41.1634 103.663 40.8449 103.293 40.6208C102.927 40.3923 102.51 40.2781 102.042 40.2781C101.692 40.2781 101.369 40.344 101.072 40.4758C100.775 40.6032 100.517 40.7878 100.297 41.0294C100.082 41.271 99.9127 41.561 99.7907 41.8993C99.6687 42.2376 99.6077 42.6177 99.6077 43.0394C99.6077 43.5974 99.7134 44.0829 99.9249 44.4959C100.136 44.9089 100.425 45.2296 100.791 45.4581C101.161 45.6822 101.578 45.7942 102.042 45.7942Z" fill="white"/>
</svg>
