<svg width="137" height="36" viewBox="0 0 137 36" fill="none" xmlns="http://www.w3.org/2000/svg">
<path d="M11.1777 27.9275C9.97227 27.9275 8.83989 27.7022 7.78056 27.2517C6.72124 26.789 5.78976 26.1619 4.98614 25.3705C4.19468 24.5669 3.56761 23.6354 3.10492 22.5761C2.6544 21.5167 2.42914 20.3844 2.42914 19.1789V13.3709H0V8.40303H2.42914V0.585938H7.39701V8.40303H14.9584V13.3709H7.39701V19.1789C7.39701 19.7025 7.49442 20.1956 7.68924 20.6583C7.88406 21.1088 8.15194 21.5046 8.49287 21.8455C8.8338 22.1864 9.23561 22.4604 9.69831 22.6674C10.161 22.8622 10.6541 22.9596 11.1777 22.9596H14.9584V27.9275H11.1777Z" fill="white"/>
<path d="M36.6746 17.9735C36.6746 19.4346 36.4128 20.7984 35.8892 22.0647C35.3656 23.3188 34.6533 24.4086 33.7523 25.334C32.8513 26.2472 31.7919 26.9717 30.5743 27.5074C29.3689 28.031 28.0721 28.2928 26.684 28.2928C25.3081 28.2928 24.0114 28.031 22.7938 27.5074C21.5883 26.9717 20.529 26.2472 19.6158 25.334C18.7147 24.4086 18.0024 23.3188 17.4789 22.0647C16.9553 20.7984 16.6935 19.4346 16.6935 17.9735C16.6935 16.488 16.9553 15.1121 17.4789 13.8458C18.0024 12.5794 18.7147 11.4897 19.6158 10.5765C20.529 9.65108 21.5883 8.9266 22.7938 8.40303C24.0114 7.87945 25.3081 7.61767 26.684 7.61767C28.0721 7.61767 29.3689 7.86728 30.5743 8.3665C31.7919 8.85355 32.8513 9.55367 33.7523 10.4669C34.6533 11.3679 35.3656 12.4577 35.8892 13.7362C36.4128 15.0025 36.6746 16.4149 36.6746 17.9735ZM31.6519 17.9735C31.6519 17.1699 31.518 16.4454 31.2501 15.8C30.9944 15.1425 30.6413 14.5824 30.1908 14.1197C29.7403 13.6449 29.2106 13.2857 28.6018 13.0421C28.0052 12.7864 27.3659 12.6586 26.684 12.6586C26.0022 12.6586 25.3568 12.7864 24.748 13.0421C24.1514 13.2857 23.6278 13.6449 23.1773 14.1197C22.739 14.5824 22.3919 15.1425 22.1362 15.8C21.8805 16.4454 21.7527 17.1699 21.7527 17.9735C21.7527 18.7284 21.8805 19.4285 22.1362 20.0739C22.3919 20.7192 22.739 21.2793 23.1773 21.7542C23.6278 22.229 24.1514 22.6065 24.748 22.8866C25.3568 23.1544 26.0022 23.2884 26.684 23.2884C27.3659 23.2884 28.0052 23.1605 28.6018 22.9048C29.2106 22.6491 29.7403 22.2899 30.1908 21.8272C30.6413 21.3645 30.9944 20.8044 31.2501 20.1469C31.518 19.4894 31.6519 18.7649 31.6519 17.9735Z" fill="white"/>
<path d="M44.4186 27.9275H39.4325V8.3665H40.6379L42.2817 10.266C43.0853 9.53541 43.9924 8.97531 45.0031 8.58567C46.0259 8.18386 47.0913 7.98295 48.1993 7.98295C49.3926 7.98295 50.5189 8.2143 51.5782 8.67699C52.6375 9.12751 53.5629 9.75458 54.3544 10.5582C55.1458 11.3497 55.7668 12.2811 56.2173 13.3526C56.68 14.412 56.9113 15.5443 56.9113 16.7498V27.9275H51.9252V16.7498C51.9252 16.2384 51.8278 15.7574 51.633 15.3069C51.4382 14.8442 51.1703 14.4424 50.8294 14.1015C50.4884 13.7605 50.0927 13.4927 49.6422 13.2978C49.1917 13.103 48.7107 13.0056 48.1993 13.0056C47.6757 13.0056 47.1826 13.103 46.7199 13.2978C46.2572 13.4927 45.8554 13.7605 45.5145 14.1015C45.1735 14.4424 44.9057 14.8442 44.7108 15.3069C44.516 15.7574 44.4186 16.2384 44.4186 16.7498V27.9275Z" fill="white"/>
<path d="M65.0389 35.3793V30.3566L67.8151 30.3932C68.3021 30.3932 68.7709 30.314 69.2214 30.1557C69.672 29.9974 70.0859 29.7783 70.4634 29.4982C70.853 29.2182 71.194 28.8833 71.4862 28.4937C71.7784 28.1162 72.0159 27.7022 72.1985 27.2517C71.6506 27.4831 71.0905 27.7144 70.5182 27.9458C69.9581 28.1771 69.3919 28.2928 68.8196 28.2928C67.6142 28.2928 66.4818 28.0797 65.4225 27.6535C64.3632 27.2274 63.4317 26.6246 62.628 25.8454C61.8366 25.0539 61.2095 24.0981 60.7468 22.9779C60.2963 21.8455 60.0711 20.5792 60.0711 19.1789V8.3665H65.0389V19.1789C65.0389 19.873 65.1363 20.4818 65.3312 21.0053C65.5381 21.5167 65.8121 21.949 66.153 22.3021C66.494 22.643 66.8897 22.8987 67.3402 23.0692C67.8029 23.2397 68.2961 23.3249 68.8196 23.3249C69.331 23.3249 69.812 23.2092 70.2625 22.9779C70.7252 22.7344 71.127 22.4178 71.4679 22.0281C71.8089 21.6385 72.0767 21.2002 72.2716 20.7131C72.4664 20.2139 72.5638 19.7025 72.5638 19.1789V8.3665H77.5865V25.4618C77.5743 26.8377 77.3064 28.1284 76.7828 29.3338C76.2593 30.5393 75.5409 31.5925 74.6276 32.4935C73.7266 33.3946 72.6734 34.1069 71.4679 34.6305C70.2625 35.154 68.9718 35.4158 67.5959 35.4158L65.0389 35.3793Z" fill="white"/>
<path d="M100.983 17.9735C100.983 19.5077 100.721 20.9079 100.198 22.1743C99.674 23.4406 98.9617 24.5303 98.0607 25.4436C97.1596 26.3446 96.1003 27.0447 94.8827 27.5439C93.6772 28.0432 92.3805 28.2928 90.9924 28.2928C89.6165 28.2928 88.3197 28.0371 87.1021 27.5257C85.8967 27.0143 84.8374 26.302 83.9241 25.3888C83.0231 24.4755 82.3108 23.3919 81.7872 22.1377C81.2637 20.8714 81.0019 19.4833 81.0019 17.9735V0.585938H86.0063V9.71805C86.2741 9.37712 86.5968 9.07272 86.9743 8.80484C87.3639 8.53697 87.7779 8.31779 88.2162 8.14733C88.6668 7.97686 89.1294 7.84901 89.6043 7.76378C90.0792 7.66637 90.5419 7.61767 90.9924 7.61767C92.3805 7.61767 93.6772 7.87945 94.8827 8.40303C96.1003 8.91443 97.1596 9.63282 98.0607 10.5582C98.9617 11.4836 99.674 12.5794 100.198 13.8458C100.721 15.0999 100.983 16.4758 100.983 17.9735ZM95.9603 17.9735C95.9603 17.2186 95.8263 16.5184 95.5585 15.8731C95.3028 15.2156 94.9497 14.6494 94.4991 14.1745C94.0486 13.6997 93.519 13.3283 92.9101 13.0604C92.3135 12.7925 91.6743 12.6586 90.9924 12.6586C90.3105 12.6586 89.6652 12.8108 89.0564 13.1152C88.4598 13.4074 87.9362 13.8032 87.4857 14.3024C87.0351 14.7894 86.682 15.3556 86.4263 16.0009C86.1706 16.6341 86.0428 17.2916 86.0428 17.9735C86.0428 18.7284 86.1706 19.4285 86.4263 20.0739C86.682 20.7192 87.0351 21.2793 87.4857 21.7542C87.9362 22.229 88.4598 22.6065 89.0564 22.8866C89.6652 23.1544 90.3105 23.2884 90.9924 23.2884C91.6743 23.2884 92.3135 23.1544 92.9101 22.8866C93.519 22.6065 94.0486 22.229 94.4991 21.7542C94.9497 21.2793 95.3028 20.7192 95.5585 20.0739C95.8263 19.4285 95.9603 18.7284 95.9603 17.9735Z" fill="white"/>
<path d="M111.54 23.1423C111.734 23.2031 111.929 23.2458 112.124 23.2701C112.319 23.2823 112.514 23.2884 112.709 23.2884C113.196 23.2884 113.664 23.2214 114.115 23.0875C114.565 22.9535 114.986 22.7648 115.375 22.5213C115.777 22.2656 116.13 21.9612 116.434 21.6081C116.751 21.2428 117.007 20.841 117.202 20.4026L120.854 24.0737C120.392 24.7312 119.856 25.3218 119.247 25.8454C118.651 26.3689 117.999 26.8134 117.293 27.1787C116.599 27.5439 115.862 27.8179 115.083 28.0005C114.316 28.1954 113.524 28.2928 112.709 28.2928C111.333 28.2928 110.036 28.0371 108.818 27.5257C107.613 27.0143 106.554 26.302 105.64 25.3888C104.739 24.4755 104.027 23.3919 103.503 22.1377C102.98 20.8714 102.718 19.4833 102.718 17.9735C102.718 16.4271 102.98 15.0147 103.503 13.7362C104.027 12.4577 104.739 11.3679 105.64 10.4669C106.554 9.56585 107.613 8.86572 108.818 8.3665C110.036 7.86728 111.333 7.61767 112.709 7.61767C113.524 7.61767 114.322 7.71508 115.101 7.90989C115.88 8.10471 116.617 8.38476 117.311 8.75005C118.017 9.11533 118.675 9.56585 119.284 10.1016C119.893 10.6252 120.428 11.2157 120.891 11.8732L111.54 23.1423ZM114.097 12.8595C113.865 12.7743 113.634 12.7195 113.403 12.6951C113.183 12.6708 112.952 12.6586 112.709 12.6586C112.027 12.6586 111.381 12.7864 110.773 13.0421C110.176 13.2857 109.652 13.6388 109.202 14.1015C108.763 14.5642 108.416 15.1243 108.161 15.7818C107.905 16.4271 107.777 17.1577 107.777 17.9735C107.777 18.1561 107.783 18.3631 107.795 18.5945C107.82 18.8258 107.85 19.0632 107.887 19.3068C107.936 19.5381 107.99 19.7634 108.051 19.9825C108.112 20.2017 108.191 20.3965 108.289 20.567L114.097 12.8595Z" fill="white"/>
<path d="M133.219 27.9275C132.014 27.9275 130.881 27.7022 129.822 27.2517C128.763 26.789 127.831 26.1619 127.028 25.3705C126.236 24.5669 125.609 23.6354 125.147 22.5761C124.696 21.5167 124.471 20.3844 124.471 19.1789V13.3709H122.042V8.40303H124.471V0.585938H129.439V8.40303H137V13.3709H129.439V19.1789C129.439 19.7025 129.536 20.1956 129.731 20.6583C129.926 21.1088 130.194 21.5046 130.534 21.8455C130.875 22.1864 131.277 22.4604 131.74 22.6674C132.203 22.8622 132.696 22.9596 133.219 22.9596H137V27.9275H133.219Z" fill="white"/>
<path d="M100.981 17.9735C100.981 19.5077 100.719 20.9079 100.196 22.1743C99.6721 23.4406 98.9598 24.5303 98.0588 25.4436C97.1578 26.3446 96.0984 27.0447 94.8808 27.5439C93.6754 28.0432 92.3786 28.2928 90.9905 28.2928C89.6146 28.2928 88.3179 28.0371 87.1003 27.5257C85.8948 27.0143 84.8355 26.302 83.9223 25.3888C83.0212 24.4756 82.3089 23.3919 81.7854 22.1377C81.2618 20.8714 81 19.4833 81 17.9735V0.585938H86.0044V9.71805C86.2723 9.37712 86.5949 9.07272 86.9724 8.80484C87.362 8.53697 87.776 8.3178 88.2144 8.14733C88.6649 7.97686 89.1276 7.84901 89.6025 7.76378C90.0773 7.66637 90.54 7.61767 90.9905 7.61767C92.3786 7.61767 93.6754 7.87945 94.8808 8.40303C96.0984 8.91443 97.1578 9.63282 98.0588 10.5582C98.9598 11.4836 99.6721 12.5794 100.196 13.8458C100.719 15.0999 100.981 16.4758 100.981 17.9735ZM95.9584 17.9735C95.9584 17.2186 95.8245 16.5184 95.5566 15.8731C95.3009 15.2156 94.9478 14.6494 94.4973 14.1745C94.0467 13.6997 93.5171 13.3283 92.9083 13.0604C92.3116 12.7925 91.6724 12.6586 90.9905 12.6586C90.3087 12.6586 89.6633 12.8108 89.0545 13.1152C88.4579 13.4074 87.9343 13.8032 87.4838 14.3024C87.0333 14.7894 86.6802 15.3556 86.4245 16.0009C86.1688 16.6341 86.0409 17.2916 86.0409 17.9735C86.0409 18.7284 86.1688 19.4285 86.4245 20.0739C86.6802 20.7192 87.0333 21.2793 87.4838 21.7542C87.9343 22.2291 88.4579 22.6065 89.0545 22.8866C89.6633 23.1544 90.3087 23.2884 90.9905 23.2884C91.6724 23.2884 92.3116 23.1544 92.9083 22.8866C93.5171 22.6065 94.0467 22.2291 94.4973 21.7542C94.9478 21.2793 95.3009 20.7192 95.5566 20.0739C95.8245 19.4285 95.9584 18.7284 95.9584 17.9735Z" fill="url(#paint0_linear_3312_4488)"/>
<path d="M111.538 23.1423C111.733 23.2031 111.927 23.2458 112.122 23.2701C112.317 23.2823 112.512 23.2884 112.707 23.2884C113.194 23.2884 113.663 23.2214 114.113 23.0875C114.564 22.9535 114.984 22.7648 115.373 22.5213C115.775 22.2656 116.128 21.9612 116.433 21.6081C116.749 21.2428 117.005 20.841 117.2 20.4026L120.853 24.0737C120.39 24.7313 119.854 25.3218 119.245 25.8454C118.649 26.3689 117.997 26.8134 117.291 27.1787C116.597 27.5439 115.86 27.8179 115.081 28.0005C114.314 28.1954 113.523 28.2928 112.707 28.2928C111.331 28.2928 110.034 28.0371 108.816 27.5257C107.611 27.0143 106.552 26.302 105.638 25.3888C104.737 24.4756 104.025 23.3919 103.502 22.1377C102.978 20.8714 102.716 19.4833 102.716 17.9735C102.716 16.4271 102.978 15.0147 103.502 13.7362C104.025 12.4577 104.737 11.3679 105.638 10.4669C106.552 9.56585 107.611 8.86572 108.816 8.3665C110.034 7.86728 111.331 7.61767 112.707 7.61767C113.523 7.61767 114.32 7.71508 115.099 7.90989C115.879 8.10471 116.615 8.38476 117.309 8.75005C118.016 9.11533 118.673 9.56585 119.282 10.1016C119.891 10.6252 120.426 11.2157 120.889 11.8732L111.538 23.1423ZM114.095 12.8595C113.863 12.7743 113.632 12.7195 113.401 12.6951C113.182 12.6708 112.95 12.6586 112.707 12.6586C112.025 12.6586 111.38 12.7864 110.771 13.0421C110.174 13.2857 109.65 13.6388 109.2 14.1015C108.762 14.5642 108.415 15.1243 108.159 15.7818C107.903 16.4271 107.775 17.1577 107.775 17.9735C107.775 18.1561 107.781 18.3631 107.794 18.5945C107.818 18.8258 107.848 19.0633 107.885 19.3068C107.934 19.5381 107.988 19.7634 108.049 19.9826C108.11 20.2017 108.189 20.3965 108.287 20.567L114.095 12.8595Z" fill="url(#paint1_linear_3312_4488)"/>
<path d="M133.217 27.9275C132.012 27.9275 130.88 27.7022 129.82 27.2517C128.761 26.789 127.829 26.1619 127.026 25.3705C126.234 24.5669 125.607 23.6354 125.145 22.5761C124.694 21.5167 124.469 20.3844 124.469 19.1789V13.3709H122.04V8.40303H124.469V0.585938H129.437V8.40303H136.998V13.3709H129.437V19.1789C129.437 19.7025 129.534 20.1956 129.729 20.6583C129.924 21.1088 130.192 21.5046 130.533 21.8455C130.874 22.1864 131.275 22.4604 131.738 22.6674C132.201 22.8622 132.694 22.9596 133.217 22.9596H136.998V27.9275H133.217Z" fill="url(#paint2_linear_3312_4488)"/>
<defs>
<linearGradient id="paint0_linear_3312_4488" x1="92.4803" y1="0.585937" x2="125.518" y2="28.2928" gradientUnits="userSpaceOnUse">
<stop offset="0.68" stop-color="#A53CFF"/>
<stop offset="0.681648" stop-color="#FF5634"/>
</linearGradient>
<linearGradient id="paint1_linear_3312_4488" x1="92.4803" y1="0.585937" x2="125.518" y2="28.2928" gradientUnits="userSpaceOnUse">
<stop offset="0.68" stop-color="#A53CFF"/>
<stop offset="0.681648" stop-color="#FF5634"/>
</linearGradient>
<linearGradient id="paint2_linear_3312_4488" x1="92.4803" y1="0.585937" x2="125.518" y2="28.2928" gradientUnits="userSpaceOnUse">
<stop offset="0.68" stop-color="#A53CFF"/>
<stop offset="0.681648" stop-color="#FF5634"/>
</linearGradient>
</defs>
</svg>
