<svg width="188" height="32" viewBox="0 0 188 32" fill="none" xmlns="http://www.w3.org/2000/svg">
<path d="M14.2581 0.417366C16.9392 0.390957 19.6203 0.382547 22.3014 0.392138L36.6675 31.6265L16.8455 31.6411C15.9075 29.75 14.8973 27.8575 14.0911 25.9073C14.3967 25.3402 14.6277 24.7443 14.8679 24.1476C17.6314 24.1176 20.3876 24.1025 23.1364 24.1025L22.3343 22.244C20.997 19.1708 19.7219 16.0415 18.2257 13.0427C15.6156 19.273 12.5907 25.3364 10.0287 31.5823C6.6858 31.6099 3.34292 31.6126 0 31.5902C1.77575 27.4022 3.79629 23.3067 5.69774 19.1737L14.2581 0.417366Z" fill="#CC2345"/>
<path d="M44.2261 0.345703L38.5955 0.376143L34.8807 0.426383L34.8086 24.0042C35.9789 25.8027 36.9719 27.8039 37.9456 29.7665C38.2532 30.3865 38.5591 31.0027 38.8679 31.6074L51.6242 31.5999L55.0071 31.5911L55.0148 24.1464L44.1955 24.1222C44.2035 21.8949 44.2194 19.6659 44.2352 17.4362C44.276 11.7384 44.3165 6.03611 44.2261 0.345703Z" fill="white"/>
<path d="M90.2502 0.369474L99.562 0.369271C98.2787 1.13382 97.0057 1.93692 96.0152 3.07283C94.2979 5.04205 92.9582 8.14424 93.5422 10.4312L93.2579 10.9503L93.2543 10.9567C91.696 13.803 90.4669 16.0489 88.6969 18.8715L88.6124 19.0041C88.3139 19.4705 88.0232 19.9254 87.9057 20.479C87.6848 21.5191 87.7149 22.679 87.7438 23.794C87.7497 24.0211 87.7556 24.2464 87.7593 24.4683C87.7613 24.6014 87.7627 24.7334 87.7629 24.8638C87.7739 27.1171 87.7707 29.3703 87.7536 31.6234C85.7281 31.5837 83.6985 31.5907 81.6704 31.5976C80.7594 31.6007 79.8489 31.6039 78.939 31.6028C78.9247 29.1741 78.9225 26.7456 78.9327 24.3171C78.9331 23.9777 78.9453 23.6181 78.9577 23.2498V23.2458C78.9925 22.2147 79.0298 21.1148 78.8176 20.1921C78.6244 19.3519 77.2816 17.3386 76.354 15.948C76.0748 15.5295 75.8334 15.1675 75.6721 14.9107L66.4381 0.396376L75.6489 0.378866L77.4614 0.372605C78.4306 2.15196 79.4568 3.8979 80.4831 5.64394C81.5957 7.53652 82.7082 9.42921 83.7482 11.3647C84.8933 9.48108 86.0064 7.57528 87.1197 5.66903L87.1344 5.64399L87.1497 5.61757C88.1746 3.86275 89.1998 2.1077 90.2502 0.369474Z" fill="white"/>
<path d="M56.233 0.414726L65.8291 0.395969C65.8877 5.27251 65.8743 10.1527 65.8608 15.0324C65.8525 18.0559 65.8441 21.0791 65.8529 24.1012C69.4875 24.1231 73.1223 24.1195 76.7569 24.0903C76.8078 25.9483 76.7991 27.8105 76.7903 29.671L76.7885 30.0911C76.786 30.5931 76.784 31.0949 76.7836 31.5965L56.2064 31.604C56.3098 25.4589 56.2803 19.309 56.2507 13.1596V13.1318C56.2304 8.89197 56.21 4.65237 56.233 0.414726Z" fill="white"/>
<path fill-rule="evenodd" clip-rule="evenodd" d="M118.6 3.59528C115.033 1.06415 110.896 -0.307122 106.48 0.0583798C102.658 0.353179 99.1433 1.34521 96.5667 4.34774C94.9775 6.19937 94.2447 8.48925 94.4365 10.9228C94.4475 11.0536 94.462 11.184 94.4795 11.3142C94.497 11.4443 94.5176 11.5739 94.5414 11.703C94.5652 11.8321 94.5923 11.9606 94.6222 12.0883C94.6379 12.1552 94.6544 12.2218 94.6719 12.2883C94.6878 12.3488 94.7043 12.4091 94.7214 12.4692C94.7407 12.5364 94.7607 12.6033 94.7816 12.67C94.8002 12.7285 94.8193 12.7868 94.8391 12.8449C94.8633 12.9164 94.8885 12.9876 94.9148 13.0584C94.9343 13.1106 94.9543 13.1627 94.9749 13.2146C95.0009 13.281 95.028 13.347 95.0561 13.4127L95.0795 13.467L95.105 13.5251L95.1282 13.5772C95.1823 13.6967 95.2394 13.8149 95.2992 13.9318C95.3589 14.0487 95.4216 14.164 95.4871 14.2777C95.5525 14.3915 95.6207 14.5037 95.6916 14.6142C95.7624 14.7247 95.8357 14.8335 95.9119 14.9405C95.9882 15.0474 96.0668 15.1524 96.1481 15.2555C96.2293 15.3587 96.313 15.4598 96.3991 15.5589C96.4852 15.6578 96.5736 15.7547 96.6644 15.8495C96.7552 15.9443 96.8485 16.0368 96.9438 16.127C96.9965 16.177 97.0498 16.2263 97.104 16.2748C97.1476 16.3139 97.1918 16.3526 97.2361 16.3908C98.7612 17.6887 100.732 18.3988 102.656 18.8529C103.699 19.0989 104.747 19.2676 105.806 19.42C106.001 19.448 106.231 19.4759 106.486 19.5068C108.471 19.7471 111.963 20.17 112.062 22.2843C112.087 22.8218 111.793 23.324 111.426 23.6943C110.323 24.8046 108.602 25.0604 107.104 25.0316C103.634 24.9649 100.757 23.6933 98.0954 21.5346C97.8081 21.9255 97.5216 22.3173 97.2351 22.7091C96.0579 24.3195 94.8796 25.931 93.6406 27.4935C98.9155 31.2145 104.345 32.7495 110.799 31.6534C114.264 31.065 117.039 29.6289 119.34 26.9685L119.355 31.6232L128.401 31.6048L128.399 22.326L132.934 22.3275C136.582 22.3285 140.605 21.398 143.258 18.7186C145.321 16.6353 146.169 13.7414 146.144 10.8573C146.12 8.14169 145.261 5.1965 143.274 3.25563C141.881 1.8952 140.09 1.13587 138.208 0.73306C136.122 0.286853 133.857 0.330553 131.668 0.372801C131.04 0.384916 130.418 0.396903 129.809 0.397183L119.351 0.421769C119.346 2.19481 119.354 3.97165 119.363 5.74963C119.381 9.35687 119.399 12.9688 119.296 16.5632C117.781 14.9522 116.07 13.72 113.953 13.0171C112.742 12.6156 111.394 12.399 110.131 12.2405C109.866 12.2072 109.507 12.1802 109.089 12.1488C106.847 11.9804 102.924 11.6859 102.919 9.61805C102.918 8.99654 103.122 8.34186 103.572 7.90006C104.448 7.03961 106.243 6.99561 107.405 7.04648C110.078 7.16346 112.763 8.32308 115.019 9.69728C116.035 7.62463 117.327 5.52675 118.6 3.59528ZM129.761 7.7711C129.363 7.78792 128.985 7.8039 128.638 7.80917L128.676 14.923C129.089 14.9253 129.522 14.9406 129.965 14.9563C132.017 15.0289 134.3 15.1097 135.94 13.9512C136.715 13.1304 137.004 12.4208 136.962 11.285C136.93 10.3968 136.671 9.54404 136.008 8.92212C134.564 7.56823 131.882 7.68154 129.761 7.7711Z" fill="#FFD500"/>
<path d="M164.335 0.157002C165.258 0.0200252 166.333 0.137812 167.224 0.403444C168.121 0.670731 168.991 1.1288 169.636 1.81681C170.674 2.92426 171.49 4.40696 172.261 5.80804L172.269 5.82293C172.495 6.23251 172.716 6.63504 172.939 7.01897C174.94 10.4358 176.874 13.8907 178.74 17.3839C178.782 14.0071 178.765 10.6263 178.748 7.24592C178.736 4.92741 178.724 2.60905 178.732 0.2923L187.716 0.261657L187.729 16.8061C187.729 17.6472 187.747 18.501 187.765 19.3595C187.807 21.391 187.849 23.4487 187.668 25.4263C187.583 26.3637 187.406 27.3778 186.965 28.2179C186.067 29.9267 184.551 30.8234 182.782 31.4053C181.496 31.6614 180.204 31.7345 178.904 31.526C177.559 31.3103 176.173 30.7475 175.175 29.7995C174.338 29.0048 173.698 27.8038 173.1 26.6813C172.879 26.2655 172.663 25.8605 172.445 25.4909C172.033 24.7926 171.624 24.0855 171.214 23.3758L171.212 23.373C169.796 20.9235 168.361 18.4422 166.719 16.1767L166.647 16.0778C166.709 21.3112 166.72 26.5447 166.678 31.7783L158.033 31.8133L158.063 13.9478C158.065 13.3133 158.053 12.584 158.04 11.8151C158.004 9.75783 157.964 7.41761 158.195 5.85326C158.379 4.60897 158.774 3.50083 159.558 2.50402C160.787 0.940104 162.447 0.393213 164.335 0.157002Z" fill="#FFD500"/>
<path d="M155.869 0.322128L155.812 0.276673L146.819 0.327346C146.758 3.16849 146.786 6.01633 146.814 8.86358C146.834 10.8584 146.853 12.8529 146.842 14.8446C146.834 16.4546 146.811 18.0707 146.788 19.6892C146.73 23.7219 146.673 27.7699 146.834 31.7775L155.934 31.7869L155.929 8.83454C155.929 8.53287 155.94 7.97468 155.952 7.28185C155.996 4.91 156.068 0.960134 155.869 0.322128Z" fill="#FFD500"/>
<mask id="mask0_257_3129" style="mask-type:alpha" maskUnits="userSpaceOnUse" x="0" y="0" width="188" height="32">
<path fill-rule="evenodd" clip-rule="evenodd" d="M118.6 3.59528C115.034 1.06415 110.896 -0.307122 106.481 0.0583798C102.659 0.353179 99.1438 1.34521 96.5672 4.34774C94.978 6.19937 94.2452 8.48925 94.437 10.9228C94.448 11.0536 94.4625 11.184 94.48 11.3142C94.4975 11.4443 94.5181 11.5739 94.5419 11.703C94.5657 11.8321 94.5928 11.9606 94.6227 12.0883C94.6384 12.1552 94.6549 12.2218 94.6724 12.2883C94.6883 12.3488 94.7048 12.4091 94.7219 12.4692C94.7412 12.5364 94.7612 12.6033 94.7821 12.67C94.8007 12.7285 94.8198 12.7868 94.8395 12.8449C94.8638 12.9164 94.889 12.9876 94.9153 13.0584C94.9348 13.1106 94.9548 13.1627 94.9754 13.2146C95.0014 13.281 95.0285 13.347 95.0566 13.4127L95.08 13.467L95.1055 13.5251L95.1287 13.5772C95.1828 13.6967 95.2398 13.8149 95.2997 13.9318C95.3594 14.0487 95.4221 14.164 95.4876 14.2777C95.553 14.3915 95.6212 14.5037 95.6921 14.6142C95.7629 14.7247 95.8362 14.8335 95.9124 14.9405C95.9887 15.0474 96.0673 15.1524 96.1485 15.2555C96.2298 15.3587 96.3135 15.4598 96.3996 15.5589C96.4857 15.6578 96.5741 15.7547 96.6649 15.8495C96.7557 15.9443 96.849 16.0368 96.9442 16.127C96.997 16.177 97.0503 16.2263 97.1045 16.2748C97.1481 16.3139 97.1922 16.3526 97.2366 16.3908C98.7617 17.6887 100.732 18.3988 102.657 18.8529C103.699 19.0989 104.747 19.2676 105.806 19.42C106.001 19.448 106.231 19.4759 106.486 19.5068C108.471 19.7471 111.963 20.17 112.062 22.2843C112.088 22.8218 111.794 23.324 111.426 23.6943C110.324 24.8046 108.602 25.0604 107.104 25.0316C103.634 24.9649 100.757 23.6933 98.0958 21.5346C97.8086 21.9255 97.5221 22.3173 97.2356 22.7091C96.0583 24.3195 94.8801 25.931 93.6411 27.4935C98.916 31.2145 104.346 32.7495 110.8 31.6534C114.265 31.065 117.039 29.6289 119.34 26.9685L119.355 31.6232L128.402 31.6048L128.399 22.326L132.935 22.3275C136.582 22.3285 140.606 21.398 143.259 18.7186C145.322 16.6353 146.17 13.7414 146.144 10.8573C146.121 8.14169 145.261 5.1965 143.274 3.25563C141.882 1.8952 140.091 1.13587 138.209 0.73306C136.123 0.286853 133.857 0.330553 131.668 0.372801C131.04 0.384916 130.419 0.396903 129.809 0.397183L119.352 0.421769C119.346 2.19318 119.355 3.96839 119.364 5.74473L119.364 5.74963C119.381 9.35687 119.399 12.9688 119.296 16.5632C117.781 14.9522 116.071 13.72 113.953 13.0171C112.743 12.6156 111.395 12.399 110.132 12.2405C109.867 12.2072 109.507 12.1802 109.09 12.1489C106.847 11.9804 102.925 11.6858 102.92 9.61805C102.919 8.99654 103.123 8.34186 103.572 7.90006C104.448 7.03961 106.243 6.99561 107.406 7.04648C110.078 7.16346 112.764 8.32308 115.019 9.69728C116.036 7.62463 117.327 5.52675 118.6 3.59528ZM129.762 7.77111C129.364 7.78793 128.985 7.80391 128.639 7.80917L128.676 14.923C129.089 14.9253 129.522 14.9406 129.966 14.9563C132.017 15.0289 134.3 15.1097 135.94 13.9512C136.716 13.1304 137.005 12.4208 136.963 11.285C136.931 10.3968 136.671 9.54404 136.008 8.92212C134.564 7.56823 131.882 7.68155 129.762 7.77111Z" fill="#FFD500"/>
<path d="M164.336 0.157002C165.259 0.0200252 166.333 0.137812 167.225 0.403444C168.122 0.670731 168.991 1.1288 169.636 1.81681C170.675 2.92426 171.491 4.40696 172.262 5.80804L172.27 5.82293L172.281 5.84381L172.282 5.84596C172.504 6.2476 172.721 6.64224 172.939 7.01897C174.941 10.4358 176.875 13.8907 178.74 17.3839C178.783 14.0071 178.766 10.6263 178.748 7.24592V7.2448C178.737 4.92666 178.725 2.60868 178.732 0.2923L187.716 0.261657L187.729 16.8061C187.73 17.6472 187.747 18.501 187.765 19.3595C187.807 21.391 187.849 23.4487 187.669 25.4263C187.583 26.3637 187.407 27.3778 186.965 28.2179C186.067 29.9267 184.551 30.8234 182.782 31.4053C181.496 31.6614 180.204 31.7345 178.904 31.526C177.56 31.3103 176.174 30.7475 175.176 29.7995C174.339 29.0048 173.699 27.8038 173.101 26.6813C172.879 26.2655 172.663 25.8605 172.445 25.4909C172.033 24.7926 171.624 24.0855 171.214 23.3758L171.212 23.373L171.211 23.3712L171.21 23.3697C169.795 20.9213 168.361 18.4412 166.72 16.1767L166.647 16.0778C166.71 21.3112 166.72 26.5447 166.679 31.7783L158.033 31.8133L158.063 13.9478C158.066 13.3158 158.053 12.5898 158.04 11.8244L158.04 11.8151C158.005 9.75783 157.965 7.41761 158.195 5.85326C158.379 4.60897 158.774 3.50083 159.558 2.50402C160.788 0.940104 162.447 0.393213 164.336 0.157002Z" fill="#FFD500"/>
<path d="M155.813 0.276673L155.87 0.322128C156.069 0.960134 155.996 4.91 155.953 7.28185L155.953 7.2861L155.952 7.29816C155.94 7.98344 155.93 8.53524 155.93 8.83454L155.934 31.7869L146.835 31.7775C146.673 27.7738 146.731 23.7297 146.788 19.7008L146.788 19.6773C146.811 18.0628 146.834 16.4507 146.843 14.8446C146.854 12.8535 146.834 10.8596 146.814 8.86534V8.86417C146.786 6.01691 146.758 3.16849 146.819 0.327346L155.813 0.276673Z" fill="#FFD500"/>
<path d="M38.594 0.376143L44.2246 0.345703C44.315 6.03611 44.2745 11.7384 44.2338 17.4362L44.2337 17.4403C44.2179 19.6686 44.202 21.8962 44.1941 24.1222L55.0134 24.1464L55.0056 31.5911L51.6227 31.5999L38.8665 31.6074C38.5576 31.0027 38.2518 30.3865 37.9441 29.7665C36.9705 27.8039 35.9775 25.8027 34.8071 24.0042L34.8792 0.426383L38.594 0.376143Z" fill="#FFD500"/>
<path d="M99.5606 0.369271L90.2488 0.369474C89.1983 2.1077 88.1732 3.86275 87.1482 5.61757L87.1329 5.64399L87.1183 5.66903C86.005 7.57528 84.8918 9.48108 83.7467 11.3647C82.7067 9.42921 81.5942 7.53652 80.4817 5.64394C79.4553 3.8979 78.4291 2.15196 77.4599 0.372605L75.6474 0.378866L66.4366 0.396376L75.6706 14.9107C75.8319 15.1675 76.0734 15.5295 76.3525 15.948C77.2802 17.3386 78.6229 19.3519 78.8162 20.1921C79.0282 21.1143 78.9911 22.2135 78.9563 23.2442L78.9563 23.2458V23.2498L78.956 23.2588C78.9436 23.624 78.9316 23.9804 78.9312 24.3171C78.921 26.7456 78.9233 29.1741 78.9375 31.6028C79.8471 31.6039 80.7574 31.6007 81.668 31.5976C83.6962 31.5907 85.7266 31.5837 87.7521 31.6234C87.7692 29.3703 87.7725 27.1171 87.7615 24.8638C87.7613 24.7334 87.7598 24.6014 87.7578 24.4683C87.7542 24.2516 87.7485 24.0318 87.7427 23.8102V23.809L87.7423 23.794C87.7134 22.6793 87.6834 21.5188 87.9042 20.479C88.0217 19.9254 88.3124 19.4705 88.6109 19.0041L88.6954 18.8715C90.4627 16.0532 91.6908 13.8098 93.2457 10.9696L93.2528 10.9567L93.2565 10.9503L93.5407 10.4312C92.9567 8.14424 94.2965 5.04205 96.0137 3.07283C97.0043 1.93692 98.2772 1.13382 99.5606 0.369271Z" fill="#FFD500"/>
<path d="M56.2316 0.414726L65.8276 0.395969C65.8862 5.27207 65.8728 10.1518 65.8594 15.0312V15.0336C65.851 18.0567 65.8427 21.0795 65.8514 24.1012C69.486 24.1231 73.1208 24.1195 76.7555 24.0903C76.8064 25.9483 76.7976 27.8105 76.7888 29.671L76.787 30.0911C76.7846 30.5931 76.7825 31.0949 76.7821 31.5965L56.2049 31.604C56.3083 25.4589 56.2788 19.309 56.2493 13.1596V13.1307C56.2289 8.89137 56.2086 4.65189 56.2316 0.414726Z" fill="#FFD500"/>
<path d="M14.2581 0.417412C16.9392 0.391003 19.6203 0.382593 22.3014 0.392184L36.6675 31.6265L16.8455 31.6411C16.6255 31.1977 16.4016 30.7541 16.1772 30.3098C15.4449 28.8593 14.7082 27.4002 14.0911 25.9073C14.3683 25.393 14.5841 24.8549 14.8011 24.3141L14.8679 24.1476C17.6314 24.1176 20.3876 24.1026 23.1364 24.1026L22.3343 22.2441C22.017 21.5148 21.7031 20.7824 21.389 20.0493C20.3794 17.6931 19.3668 15.3299 18.2257 13.0428C16.9901 15.9921 15.6616 18.904 14.3332 21.8156C12.8555 25.0546 11.3779 28.2932 10.0287 31.5823C6.6858 31.61 3.34292 31.6126 0 31.5903C1.20451 28.7495 2.52165 25.9513 3.83786 23.1551C4.46203 21.829 5.08609 20.5033 5.69774 19.1738L14.2581 0.417412Z" fill="#FFD500"/>
</mask>
<g mask="url(#mask0_257_3129)">
<path d="M100.892 32.8272C100.834 33.2969 101.05 33.3436 101.164 33.7685C101.281 34.1638 101.661 34.3422 101.865 34.6622C102.015 34.8989 102.291 34.8738 102.489 34.993C102.7 35.071 102.904 35.2099 103.107 35.2055C103.314 35.201 103.515 35.131 103.711 35.2494C104.832 35.14 105.208 34.5806 105.917 33.8088C106.257 33.5193 105.995 33.0603 106.17 32.7116C106.227 32.5986 106.241 32.4928 106.184 32.3638C106.172 31.8833 105.885 31.4521 105.699 31.0039C105.614 30.7609 105.344 30.6328 105.18 30.4266C105.039 30.3226 104.806 30.3638 104.732 30.1487C104.67 29.9685 104.479 29.9999 104.362 29.9138C104.18 29.7802 104.01 29.981 103.845 29.9183C103.664 29.8502 103.497 29.7964 103.327 29.9291C103.129 29.7551 102.921 30.0832 102.723 29.9165C102.365 30.0788 101.975 30.2052 101.724 30.5108C101.476 30.6085 101.571 31.0012 101.258 31.0227C101.062 31.6143 100.598 32.189 100.892 32.8263V32.8272Z" fill="#CC2345" fill-opacity="0.5"/>
<path d="M118.522 33.1965C118.494 33.2341 118.493 33.3229 118.519 33.3632C118.635 33.5506 118.49 33.7756 118.638 33.9674C118.84 34.2292 118.839 34.6093 119.128 34.8316C119.217 34.8997 119.258 35.0306 119.346 35.1005C119.438 35.1731 119.611 35.1794 119.658 35.2646C119.777 35.5631 120.109 35.5335 120.334 35.6805C120.629 35.919 120.984 35.7038 121.29 35.8302C121.492 35.9136 121.627 35.7119 121.801 35.694C122.007 35.6724 122.285 35.7334 122.382 35.5514C122.519 35.2924 122.841 35.3228 122.945 35.1355C123.062 34.9212 123.387 34.8997 123.379 34.5842C123.432 34.3018 123.594 33.9889 123.698 33.7137C123.992 32.8092 123.629 31.764 122.883 31.1885C122.759 30.872 122.428 30.9133 122.192 30.7985C121.854 30.6847 121.503 30.4471 121.148 30.4687C121.076 30.5072 120.978 30.5117 120.894 30.5045C120.622 30.4803 120.416 30.7797 120.124 30.656C120.105 30.6479 120.069 30.6793 120.041 30.6919C119.784 30.7465 119.732 31.0486 119.469 31.1024C119.3 31.1257 119.208 31.2539 119.181 31.4171C119.147 31.6215 118.874 31.5874 118.83 31.8016C118.787 32.0123 118.717 32.231 118.602 32.4094C118.435 32.6685 118.703 32.9491 118.522 33.1947L118.522 33.1965Z" fill="#CC2345" fill-opacity="0.5"/>
<path d="M83.2298 31.8474C83.1437 31.9953 83.2477 32.1495 83.2325 32.275C83.1859 32.6506 83.4225 32.907 83.5391 33.2118C83.5902 33.3453 83.5955 33.5336 83.7739 33.5847C83.9236 33.6277 83.895 33.7917 83.9864 33.8626C84.5736 34.0311 84.1899 34.196 84.7188 34.3377C85.011 34.4264 85.2692 34.6147 85.5883 34.5815C86.154 34.4309 86.8846 34.6245 87.2754 34.0929C88.0831 33.6734 88.0374 33.2395 88.3574 32.5134C88.638 32.0876 88.3789 31.6475 88.3995 31.2163C88.4121 30.9581 88.0033 30.3745 87.7765 30.137C87.3848 29.635 86.7366 29.5731 86.197 29.3087C85.9316 29.1688 85.6771 29.3042 85.4189 29.2952C85.2799 29.2908 85.1159 29.4817 85.0003 29.4503C84.4507 29.3445 84.1271 30.1074 83.6968 30.3611C83.393 30.5269 83.4521 30.9823 83.2477 31.2387C83.1124 31.461 83.3463 31.652 83.2325 31.8483L83.2298 31.8474Z" fill="#CC2345" fill-opacity="0.5"/>
<path d="M108.124 29.0917C108.145 30.0464 108.163 30.4758 108.928 31.0953C109.026 31.2611 109.19 31.3212 109.35 31.3974C109.454 31.6959 109.74 31.7138 110.006 31.8043C110.221 31.6349 110.409 31.7998 110.61 31.8465C111.567 31.9191 112.77 31.1813 113.045 30.2607C113.478 29.3616 113.122 29.7049 113.293 29.0478C113.38 28.8013 113.018 28.6399 113.146 28.3638C113.192 28.1074 112.805 27.9282 112.749 27.7103C112.751 27.3311 112.301 27.4262 112.194 27.1608C111.948 26.8955 111.229 26.6821 110.874 26.6328C110.292 26.6615 109.77 26.7969 109.255 27.0631C109.059 27.1214 109.016 27.332 108.853 27.3948C108.559 27.5283 108.682 27.8878 108.411 28.0447C108.016 28.267 108.148 28.7323 108.124 29.0917Z" fill="#CC2345" fill-opacity="0.5"/>
<path d="M90.5133 27.774C90.7159 28.2876 90.3134 28.3298 90.4926 28.8022C90.3349 29.1204 90.7795 29.3499 90.6065 29.6628C90.5975 29.6789 90.6208 29.7345 90.6405 29.7435C90.8951 29.8519 90.8898 30.1737 91.0601 30.2974C91.2107 30.4077 91.2483 30.6004 91.4231 30.6686C91.6437 30.7546 91.8955 30.7824 91.9959 31.0693C92.2093 31.34 92.5948 30.9904 92.8449 31.1975C93.7064 31.4099 94.5167 30.7761 95.0967 30.2186C95.293 30.0814 95.276 29.8412 95.3764 29.6583C95.4481 29.4306 95.6337 29.1841 95.6148 28.9645C95.5951 28.7834 95.5404 28.6229 95.6256 28.4454C95.6471 28.4006 95.6355 28.328 95.6157 28.2769C95.544 28.0833 95.4374 27.9156 95.4795 27.6772C95.5279 27.3984 95.1146 27.3473 95.094 27.107C95.0626 26.7431 94.6494 26.8085 94.5463 26.5548C94.3016 26.2393 93.8175 26.2545 93.4822 26.0573C92.8583 26.017 92.2308 26.0627 91.693 26.4159C91.4079 26.4849 91.2322 26.7565 91.0206 26.9591C90.9382 27.0846 90.9355 27.281 90.8324 27.3697C90.6827 27.471 90.5393 27.5786 90.5133 27.7758V27.774Z" fill="#CC2345" fill-opacity="0.5"/>
<path d="M58.4144 34.3995C58.3472 34.8629 58.5803 35.2923 58.6296 35.7567C58.8626 35.797 58.868 36.0166 58.9442 36.1726C59.0249 36.3367 59.1979 36.4021 59.2956 36.5617C59.3727 36.6881 59.6488 36.6773 59.7743 36.7947C59.9007 36.9131 59.9635 37.0995 60.1687 37.1264C60.2252 37.1336 60.3005 37.1569 60.3373 37.13C60.4932 37.0198 60.6277 37.0995 60.7703 37.1506C60.8895 37.1937 61.5206 37.1721 61.6272 37.1246C62.573 36.7939 63.274 36.1251 63.5178 35.1319C63.646 34.8809 63.369 34.5886 63.6048 34.3538C63.3089 33.7881 63.5904 33.6312 63.0642 33.0988C63.0131 32.6954 62.5004 32.7456 62.4206 32.3933C62.0432 32.2525 61.6756 32.0688 61.2866 31.9872C60.4529 31.9872 59.4776 32.2839 58.9433 32.9768C58.8994 33.1857 58.8223 33.3749 58.5785 33.4636C58.2701 33.7334 58.6968 33.9952 58.4153 34.3995H58.4144Z" fill="#CC2345" fill-opacity="0.5"/>
<path d="M136.274 33.5381C136.144 34.3233 136.665 35.3453 137.28 35.8213C137.522 35.9512 137.843 35.9477 137.952 36.2444C137.969 36.2758 138.182 36.1628 138.264 36.2013C138.612 36.369 138.953 36.2668 139.304 36.2462C140.278 36.1449 140.486 35.7155 141.076 35.079C141.195 34.7581 141.356 34.4452 141.415 34.1145C141.442 33.963 141.331 33.781 141.42 33.5972C141.443 33.2485 141.154 32.9079 141.042 32.5798C140.952 32.3817 140.874 32.1764 140.767 31.9881C140.676 31.8312 140.417 31.9048 140.339 31.6878C140.252 31.444 139.976 31.4951 139.798 31.3884C139.623 31.323 139.438 31.1867 139.276 31.2109C139.06 31.2423 138.877 31.2432 138.666 31.1813C138.549 31.1473 138.395 31.3185 138.241 31.2073C137.595 31.4843 136.851 31.9146 136.607 32.6353C136.591 32.7178 136.384 32.8218 136.395 32.8406C136.55 33.1122 136.355 33.3211 136.273 33.5381H136.274Z" fill="#CC2345" fill-opacity="0.5"/>
<path d="M65.9121 30.3127C65.7014 30.7985 65.4477 31.3498 65.6862 31.8653C65.8735 32.3449 66.0824 32.8361 66.4329 33.2028C66.4715 33.382 67.8995 33.8607 68.111 33.858C68.2312 33.8312 68.3298 33.8007 68.4589 33.8383C68.5628 33.8688 68.657 33.7505 68.7986 33.7639C69.3051 33.7801 69.6592 33.3919 70.0339 33.114C70.2239 32.6362 70.4911 32.7267 70.6381 32.0311C70.8954 31.2978 70.6255 30.5395 70.2804 29.8913C70.1648 29.635 69.8752 29.4906 69.6995 29.254C69.4494 28.9393 69.003 28.8927 68.6462 28.7502C68.484 28.7027 68.3235 28.8371 68.1272 28.7654C67.4324 28.6059 66.7287 29.098 66.302 29.6215C65.9865 29.7461 66.0295 30.0778 65.9121 30.3135V30.3127Z" fill="#CC2345" fill-opacity="0.5"/>
<path d="M125.874 30.432C126.251 31.6171 126.696 31.9819 127.874 32.3154C128.125 32.4077 128.125 32.3853 128.564 32.3853C128.739 32.3853 128.899 32.232 129.083 32.3494C129.441 32.2885 129.682 31.9505 129.989 31.7928C130.067 31.756 130.172 31.7318 130.22 31.6574C130.288 31.4898 130.313 31.2908 130.541 31.2513C131.185 30.1729 130.927 28.3962 129.749 27.8108C129.667 27.7346 129.663 27.5885 129.518 27.5517C129.303 27.5186 129.015 27.2963 128.826 27.3061C128.514 27.4603 128.169 27.1313 127.876 27.3913C127.604 27.5804 127.541 27.2452 127.034 27.6486C126.818 27.7803 126.678 28.0394 126.466 28.1676C126.206 28.3245 126.229 28.5835 126.124 28.7924C125.911 29.3105 125.617 29.8869 125.873 30.432H125.874Z" fill="#CC2345" fill-opacity="0.5"/>
<path d="M72.8778 27.6135C72.8132 28.1173 72.9244 28.6669 73.118 29.1599C73.291 29.4844 73.6138 29.6592 73.7832 29.9631C73.9553 30.2186 74.953 30.4938 75.2856 30.5798C75.369 30.5861 75.472 30.4983 75.5375 30.5243C75.8252 30.6381 76.0198 30.2105 76.312 30.4032C76.3255 30.4122 76.3846 30.3871 76.3918 30.3665C76.4743 30.1325 76.6948 30.0841 76.8839 30.0025C77.0292 29.9398 77.0211 29.748 77.1986 29.6995C77.4092 29.6422 77.3017 29.2746 77.5832 29.237C77.7714 29.0685 77.792 28.7251 77.9005 28.4947C77.6638 28.2545 78.0592 27.9632 77.8377 27.722C77.931 27.3186 77.6235 27.0407 77.5114 26.7019C77.4424 26.458 77.1932 26.3424 77.1053 26.1317C76.9996 26.0304 76.788 26.0851 76.7244 25.9121C76.5962 25.6127 76.1982 25.636 75.9418 25.4971C75.6737 25.7337 75.3537 25.3474 75.0848 25.5688C74.7997 25.4101 74.6016 25.8458 74.3139 25.6817C74.295 25.671 74.2386 25.6862 74.2332 25.7015C74.1265 25.9955 73.776 25.9713 73.6111 26.1802C73.1566 26.5073 73.1082 27.1169 72.8787 27.6118L72.8778 27.6135Z" fill="#CC2345" fill-opacity="0.5"/>
<path d="M97.8747 24.5478C97.6479 25.0749 97.6989 26.2895 98.2072 26.813C98.4708 27.1107 98.6868 27.4979 99.1413 27.5759C99.4891 27.6647 99.8136 27.9031 100.185 27.887C100.755 27.8538 101.542 27.4728 102.023 27.0614C102.224 26.9188 102.174 26.571 102.483 26.5468C102.574 26.3182 102.664 26.0887 102.755 25.8601C102.527 25.6154 102.879 25.3357 102.709 25.0874C102.731 24.589 102.368 23.9023 102.026 23.576C101.93 23.3313 101.541 23.4218 101.513 23.1099C101.324 22.9754 101.052 22.9306 100.836 22.832C100.606 23.0265 100.372 22.7827 100.15 22.8392C99.8979 22.8813 99.6989 22.8374 99.4649 22.9934C99.3269 23.0283 99.1539 22.9907 99.0463 23.0615C98.8509 23.3842 98.6581 23.2766 98.4887 23.4703C98.4026 23.706 98.0593 23.7123 98.0575 24.026C98.0566 24.2008 97.9392 24.3748 97.8747 24.5496V24.5478Z" fill="#CC2345" fill-opacity="0.5"/>
<path d="M115.397 25.5365C115.327 25.6943 115.339 25.8288 115.425 25.9668C115.264 26.1649 115.58 26.3711 115.415 26.5683C115.771 27.5652 116.342 28.095 117.345 28.3953C117.597 28.5629 117.887 28.2581 118.124 28.4804C118.963 28.1461 119.285 28.1604 119.926 27.2684C120.318 27.073 120.398 26.7673 120.268 26.3657C120.567 25.6369 120.22 24.823 119.713 24.2555C119.633 23.8656 119.06 24.0583 118.987 23.6415C118.979 23.594 118.827 23.5698 118.742 23.5366C118.387 23.3259 118.418 23.5626 118.14 23.5133C117.468 23.2955 116.732 23.8082 116.13 24.1085C116.146 24.4348 115.745 24.4626 115.683 24.7531C115.625 25.0229 115.508 25.282 115.396 25.5365H115.397Z" fill="#CC2345" fill-opacity="0.5"/>
<path d="M80.0997 24.243C80.0854 24.3828 80.1687 24.5469 80.1221 24.6652C80.0459 24.8579 80.0396 25.0202 80.1553 25.1824C80.3032 25.3895 80.1239 25.6979 80.3256 25.8556C80.6241 26.0887 80.6689 26.5665 81.1118 26.6463C81.2669 27.0784 81.9257 27.0443 82.2915 27.2326C82.6124 27.0595 82.9898 27.2263 83.3143 27.0569C83.533 26.943 83.7545 26.822 83.9893 26.7548C84.1874 26.6974 84.1865 26.4536 84.3873 26.4141C84.537 26.3845 84.5164 26.2205 84.5639 26.1147C84.6778 25.8287 84.7907 25.5374 84.8876 25.2461C85.1296 24.8041 84.9476 24.2716 84.8813 23.7885C84.7594 23.3994 84.3864 23.2156 84.191 22.8965C83.8127 22.5128 83.2462 22.5111 82.7845 22.2663C81.9177 22.0781 81.1234 22.6841 80.5354 23.2479C80.3175 23.4138 80.34 23.6854 80.2261 23.896C80.1678 24.0036 80.1123 24.1237 80.1006 24.243H80.0997Z" fill="#CC2345" fill-opacity="0.5"/>
<path d="M144.108 31.9541C144.228 32.1935 144.545 32.353 144.675 32.5977C144.961 32.7125 145.25 32.8219 145.539 32.9321C145.763 32.6757 146.011 33.0307 146.222 32.9115C146.394 32.8147 146.57 32.9509 146.743 32.8353C147.675 32.4705 148.16 31.8223 148.41 30.8623C148.548 30.4122 148.383 29.8045 148.137 29.4109C148.014 29.2056 148.016 28.9313 147.78 28.7861C147.711 28.744 147.686 28.6257 147.617 28.5862C147.215 28.3908 146.34 27.9614 146.087 28.0466C145.544 28.1183 144.954 28.1479 144.514 28.5405C144.349 28.6947 144.095 28.804 144.099 29.0927C143.765 29.1805 143.79 29.5122 143.655 29.7381C143.413 30.4866 143.727 31.3167 144.109 31.9541H144.108Z" fill="#CC2345" fill-opacity="0.5"/>
<path d="M133.179 26.7772C133.268 27.5104 133.467 27.7605 133.858 28.2939C133.983 28.4642 134.223 28.4105 134.289 28.5871C134.414 28.9161 134.736 28.8972 134.978 28.9761C135.186 29.0433 135.446 28.8748 135.662 29.0496C136.817 28.6014 136.341 29.1007 137.407 28.1155C137.722 27.869 137.68 27.4522 137.874 27.1366C138.043 26.8596 137.791 26.5342 137.992 26.2689C137.777 25.8234 137.656 25.2371 137.304 24.8929C137.109 24.8382 137.032 24.6822 136.908 24.5549C136.719 24.3846 136.364 24.3819 136.138 24.2483C135.626 24.0018 134.754 24.182 134.342 24.4429C134.232 24.5325 134.19 24.7163 134.019 24.7252C133.639 24.745 133.737 25.272 133.383 25.3097C133.295 25.5419 133.208 25.7732 133.12 26.0053C133.403 26.2429 132.964 26.5351 133.178 26.7781L133.179 26.7772Z" fill="#CC2345" fill-opacity="0.5"/>
<path d="M105.006 21.9678C104.94 22.5047 105.223 23.0193 105.463 23.4926C105.512 23.5885 105.668 23.6369 105.701 23.7328C105.778 23.9552 106.057 23.8915 106.125 24.034C106.283 24.3738 106.625 24.3487 106.881 24.4894C107.181 24.3128 107.531 24.6499 107.825 24.3944C108.091 24.2053 108.158 24.5405 108.669 24.138C108.887 24.0081 109.026 23.7463 109.236 23.6199C109.562 23.3698 109.527 22.961 109.718 22.6526C109.953 22.3855 109.643 22.0511 109.838 21.784C109.682 21.2919 109.478 20.815 109.201 20.3775C108.881 20.3847 108.856 19.9822 108.556 19.9275C108.203 19.8818 107.873 19.5994 107.511 19.6093C107.086 19.7115 106.622 19.6353 106.229 19.8961C106.103 19.9795 106.103 20.1794 105.913 20.1928C105.512 20.2206 105.563 20.7441 105.219 20.8374C105.155 21.0122 105.098 21.1906 105.022 21.36C104.931 21.5617 105.168 21.7634 105.006 21.9696V21.9678Z" fill="#CC2345" fill-opacity="0.5"/>
<path d="M154.085 34.5143C154.177 35.0773 154.455 35.677 154.813 36.1153C154.943 36.2749 155.177 36.2238 155.246 36.4067C155.371 36.7321 155.695 36.7186 155.938 36.7904C156.146 36.8522 156.404 36.7007 156.622 36.8621C157.747 36.4174 157.367 36.871 158.365 35.9235C158.682 35.6958 158.62 35.2386 158.832 34.9455C159.021 34.6882 158.753 34.4157 158.908 34.1584C159.02 33.9738 158.833 33.816 158.769 33.6528C158.61 33.3489 158.527 32.9115 158.249 32.7035C157.851 32.4991 157.908 32.2535 157.343 32.1585C157.34 32.1648 157.339 32.171 157.336 32.1773C156.891 31.938 156.527 31.8931 156.05 32.0402C155.7 32.0348 155.407 32.1047 155.19 32.4032C155.142 32.4695 155.045 32.5314 154.964 32.5395C154.597 32.5762 154.677 33.0827 154.329 33.1284C154.243 33.3606 154.157 33.5937 154.07 33.8267C154.322 34.0473 154.045 34.2794 154.084 34.5161L154.085 34.5143Z" fill="#CC2345" fill-opacity="0.5"/>
<path d="M48.1088 30.0626C48.1016 30.2643 48.2191 30.4669 48.0828 30.6695C48.0649 31.2181 48.3652 31.7031 48.5875 32.197C48.834 32.2992 48.9012 32.6551 49.224 32.6479C49.2858 32.7878 49.3387 32.9276 49.5216 32.9608C49.6937 32.9922 49.8398 33.1338 50.046 33.0146C50.2755 32.9473 50.574 33.2781 50.8178 33.0854C51.3682 32.8129 51.3996 33.1688 52.0737 32.5135C52.5533 32.1495 52.7971 31.5283 52.9173 30.968C52.9101 30.7932 52.8402 30.631 52.9226 30.4481C52.8796 30.0026 52.5515 29.4235 52.3184 29.0389C52.1947 28.9251 51.9599 28.9403 51.9195 28.7099C51.3342 28.4777 50.7757 28.112 50.1249 28.3289C49.9537 28.3585 49.7699 28.2796 49.6094 28.4105C49.475 28.5208 49.2876 28.527 49.1782 28.7207C49.1038 28.8533 48.8143 28.856 48.7175 28.9878C48.5642 29.1967 48.5758 29.5185 48.2675 29.6323C48.2092 29.731 48.1366 29.9398 48.1079 30.0626H48.1088Z" fill="#CC2345" fill-opacity="0.5"/>
<path d="M40.9437 33.2539C40.7958 33.4592 41.106 33.66 40.9285 33.8662C40.8433 34.5026 41.2431 35.2207 41.6331 35.7218C41.7622 35.8804 41.9979 35.8204 42.0678 36.0131C42.1727 36.3018 42.4721 36.2525 42.6702 36.3762C42.9176 36.187 43.1337 36.3663 43.3605 36.4317C43.6312 36.4515 43.8302 36.2202 44.1296 36.274C44.5805 36.1996 45.2959 35.5712 45.4546 35.0539C45.4895 34.8737 45.5478 34.6828 45.6509 34.534C45.8284 34.2776 45.5684 34.006 45.7271 33.7469C45.8553 33.5578 45.3192 32.7555 45.2331 32.4803C45.1964 32.4068 45.1265 32.3135 45.0574 32.2983C44.853 32.2535 44.7984 32.0625 44.6657 31.9577C44.5267 31.8483 44.325 31.8178 43.9683 31.6842C43.7316 31.4673 43.105 31.6009 42.7715 31.6251C42.2247 31.6089 41.98 32.1396 41.5192 32.2615C41.2377 33.1741 41.1391 32.5977 40.9437 33.2539Z" fill="#CC2345" fill-opacity="0.5"/>
<path d="M87.3065 21.4381C87.3558 21.8119 87.432 22.2099 87.6417 22.5389C87.7305 22.7217 87.7448 22.971 88.0057 23.0292C88.0541 23.3833 88.548 23.3017 88.6063 23.646C89.042 23.9185 89.2697 23.6549 89.6435 23.8369C89.8882 24.0027 90.1177 23.732 90.3239 23.7078C90.8868 23.8602 91.1916 23.2739 91.5699 23.0032C91.8953 22.7531 91.8604 22.3444 92.0522 22.036C92.2871 21.7688 91.9769 21.4345 92.1714 21.1673C92.0154 20.6752 91.8119 20.1983 91.5349 19.7608C91.2149 19.768 91.1898 19.3655 90.8895 19.3108C90.5435 19.2723 90.1939 18.9711 89.8479 18.9953C89.6542 19.0975 89.4265 18.9585 89.2419 19.102C89.215 19.1235 89.1253 19.0455 89.0733 19.0571C88.6664 19.1405 88.4449 19.5098 88.0774 19.6533C88.029 19.6685 87.9492 19.7053 87.9295 19.7474C87.9143 20.1176 87.5611 20.2781 87.423 20.5694C87.2267 20.8473 87.5243 21.1584 87.3047 21.439L87.3065 21.4381Z" fill="#CC2345" fill-opacity="0.5"/>
<path d="M122.732 21.9731C122.872 22.1632 122.763 22.3308 122.69 22.4922C122.524 23.021 122.851 23.4755 123.038 23.9471C123.1 24.1416 123.313 24.19 123.369 24.3505C123.572 24.7323 123.888 24.4365 124.114 24.9421C124.16 24.969 124.237 24.9941 124.285 24.9753C124.604 24.7754 124.881 25.1519 125.236 24.9959C125.748 24.8569 126.403 24.7162 126.775 24.3433C126.834 24.2043 126.886 24.0878 127.034 23.9901C127.231 23.8072 127.502 23.0623 127.466 22.8265C127.398 22.1067 127.243 21.3393 126.603 20.8902C126.381 20.4913 125.908 20.4555 125.518 20.2923C125.322 20.2242 125.113 20.4366 124.912 20.269C124.652 20.2098 124.439 20.511 124.144 20.4115C124.051 20.3882 123.841 20.4895 123.828 20.5603C123.786 20.7818 123.549 20.7692 123.46 20.9377C123.368 21.1099 123.114 21.1744 123.096 21.4164C123.099 21.6961 122.655 21.7015 122.733 21.9722L122.732 21.9731Z" fill="#CC2345" fill-opacity="0.5"/>
<path d="M55.3283 27.2083C55.1777 27.9989 55.6608 28.9895 56.421 29.3552C56.6299 29.3965 56.6729 29.7255 56.888 29.7111C57.0369 29.652 57.1642 29.6197 57.3219 29.6923C57.7531 29.8895 58.1789 29.6663 58.6083 29.6538C58.8943 29.6098 58.8091 29.3579 59.1802 29.2522C59.4644 29.1383 59.4456 28.8335 59.7217 28.6928C59.8463 28.6094 59.8624 28.3629 59.9449 28.1433C60.2075 27.6646 60.0525 26.9914 59.8866 26.4687C59.7306 26.1388 59.5289 25.8601 59.2457 25.6386C59.13 25.5481 59.1327 25.3652 58.9498 25.3222C58.5473 25.2281 58.1897 24.9188 57.7361 25.0739C57.5263 24.9403 57.3264 24.9914 57.1364 25.1151C56.9517 25.2361 56.7141 25.0703 56.5367 25.2406C56.2489 25.5642 55.8168 25.7758 55.7003 26.2213C55.6555 26.3522 55.5676 26.4078 55.4582 26.4714C55.2054 26.6848 55.5577 26.8327 55.3283 27.2092V27.2083Z" fill="#CC2345" fill-opacity="0.5"/>
<path d="M62.5778 23.7651C62.4729 24.1246 62.6387 24.5065 62.6352 24.8758C62.6791 25.2209 62.9919 25.4155 63.1515 25.6978C63.415 25.7731 63.4706 26.1452 63.7951 26.1416C64.1779 26.2142 64.5177 26.5181 64.9219 26.4849C65.4159 26.4777 65.8148 26.155 66.2756 26.0152C66.644 25.9228 66.6297 25.4701 66.9542 25.3545C67.224 24.8955 67.207 24.4688 67.2572 23.9677C67.2948 23.8503 67.1173 23.6988 67.2303 23.5446C67.1164 23.2918 66.9981 23.0408 66.8914 22.7844C66.8314 22.6401 66.6395 22.6491 66.5902 22.4707C66.5328 22.2627 66.1626 22.3703 66.1357 22.087C65.7565 21.931 65.398 21.6146 64.9587 21.7831C64.8511 21.8315 64.7023 21.6424 64.5329 21.7248C63.2895 22.2044 62.9462 22.4527 62.5778 23.7651Z" fill="#CC2345" fill-opacity="0.5"/>
<path d="M94.6881 17.6039C94.4739 18.0665 94.6379 18.5264 94.7141 18.9746C94.7858 19.3977 95.1946 19.6227 95.4321 19.9508C95.6105 20.1498 95.8624 20.1498 96.0803 20.261C96.6576 20.6052 96.7302 20.3479 97.2017 20.4788C97.5415 20.4743 98.2864 20.0942 98.5311 19.7975C98.7579 19.7446 98.6844 19.4506 98.8323 19.3816C99.1694 19.2238 99.1407 18.8805 99.2823 18.625C99.0985 18.3274 99.4428 17.9777 99.1864 17.6837C99.0519 17.1826 99.2886 17.2337 98.7678 16.7729C98.7543 16.3669 98.2084 16.4215 98.1483 16.0558C97.917 15.9697 97.6858 15.8828 97.4536 15.7967C97.2178 16.0818 96.9256 15.6407 96.6854 15.8568C96.1825 15.8021 95.7853 16.1589 95.3559 16.3525C95.3631 16.6725 94.9785 16.7174 94.9122 16.9962C94.862 17.205 94.7786 17.4085 94.6881 17.6048V17.6039Z" fill="#CC2345" fill-opacity="0.5"/>
<path d="M112.281 19.0123C112.234 19.2257 112.541 19.4157 112.428 19.6945C112.644 19.8729 112.863 20.2646 113.056 20.5022C113.21 20.7263 114.206 21.101 114.451 21.0678C114.946 20.9997 115.447 20.9719 115.898 20.7057C116.056 20.6124 116.087 20.3892 116.294 20.3695C116.393 20.0145 116.903 19.7886 116.876 19.4076C116.749 19.1172 116.892 18.8814 116.975 18.6277C116.961 18.4171 116.758 18.2656 116.796 18.0334C116.81 17.9527 116.784 17.8577 116.751 17.7806C116.718 17.7017 116.669 17.5986 116.601 17.5718C116.379 17.4714 116.399 17.1979 116.268 17.0473C116.036 16.9245 115.718 16.9371 115.62 16.6054C115.086 16.2836 114.925 16.6072 114.589 16.4216C114.444 16.4333 114.234 16.4378 114.081 16.4566C113.207 16.7291 112.55 17.4229 112.313 18.3167C112.095 18.5435 112.33 18.7775 112.278 19.0132L112.281 19.0123Z" fill="#CC2345" fill-opacity="0.5"/>
<path d="M69.9261 21.8001C70.3474 22.2233 70.4944 22.8086 71.2268 22.9225C72.004 23.325 72.8726 23.0901 73.5817 22.5424C73.7718 22.4043 73.8453 22.2385 73.9609 22.0682C74.0326 21.9633 74.2218 21.9391 74.2576 21.7607C74.4791 21.2703 74.1895 21.3394 74.3778 20.8983C74.4002 20.8105 74.4791 20.6922 74.4468 20.6437C74.2576 20.356 74.3751 19.966 74.1626 19.715C73.9591 19.5474 73.8641 19.2659 73.701 19.0875C73.3747 19.0508 73.2115 18.772 72.9713 18.6106C72.7525 18.4636 72.5159 18.5568 72.2846 18.5434C71.7279 18.512 71.5881 18.5371 71.2573 18.6402C70.8064 18.7801 70.5482 19.1566 70.2165 19.4354C69.9951 19.6388 69.961 20.07 69.8086 20.3399C69.624 20.5622 69.771 20.8015 69.7593 21.031C69.7459 21.2954 70.0148 21.5025 69.927 21.801L69.9261 21.8001Z" fill="#CC2345" fill-opacity="0.5"/>
<path d="M150.922 27.3554C150.808 27.5347 151.002 27.6942 151.063 27.8592C151.183 28.0654 151.373 28.787 151.58 28.8067C151.86 28.8354 151.879 29.1725 152.137 29.2253C152.859 29.575 154.018 29.6135 154.602 28.9475C155.234 28.7296 155.168 27.9058 155.47 27.4056C155.618 26.6956 155.162 25.6773 154.525 25.3304C154.013 25.2389 153.472 24.7459 152.963 24.9019C152.882 24.9476 152.79 25.022 152.711 25.0121C151.951 24.9987 151.297 25.7284 151.066 26.3989C151.052 26.459 151.038 26.528 151 26.571C150.785 26.8121 151.084 27.0954 150.92 27.3545L150.922 27.3554Z" fill="#CC2345" fill-opacity="0.5"/>
<path d="M140.442 23.4478C140.317 23.7598 140.812 24.2062 140.839 24.5468C140.895 24.8857 141.25 24.8803 141.384 25.1008C141.456 25.2174 141.538 25.2756 141.657 25.316C142.375 25.6862 143.544 25.6987 144.122 25.0426C144.754 24.8256 144.688 24.0018 144.991 23.5007C145.14 22.7907 144.684 21.7724 144.047 21.4246C143.535 21.3331 142.994 20.841 142.485 20.9961C142.404 21.0418 142.312 21.1162 142.233 21.1063C141.474 21.0929 140.819 21.8226 140.588 22.4922C140.279 23.057 140.603 23.0139 140.442 23.4478Z" fill="#CC2345" fill-opacity="0.5"/>
<path d="M76.9492 17.196C77.1034 17.3717 76.9465 17.6102 77.0685 17.7931C77.0532 18.7003 77.8161 19.4882 78.639 19.7374C78.8739 19.8835 79.1105 19.6057 79.3373 19.7814C79.3875 19.8199 79.5067 19.7876 79.5883 19.7643C79.7568 19.7177 79.9263 19.767 80.1056 19.689C80.4722 19.5304 80.6802 19.1969 80.9912 18.9835C81.2064 18.7845 81.2091 18.4914 81.3319 18.2449C81.7666 17.5008 81.4188 16.7084 81.0262 16.0396C80.7958 15.9643 80.7653 15.6497 80.4695 15.6201C80.0482 15.5887 79.6914 15.1907 79.2531 15.275C78.8165 15.3763 78.2813 15.2813 77.9335 15.6488C77.7847 15.8218 77.5113 15.9106 77.5193 16.2019C77.1079 16.3516 77.1321 16.8599 76.951 17.196H76.9492Z" fill="#CC2345" fill-opacity="0.5"/>
<path d="M161.513 31.7228C161.783 32.5457 162.425 33.1651 163.262 33.3695C163.468 33.2512 163.657 33.3301 163.867 33.3785C164.303 33.2395 164.945 33.0091 165.228 32.7008C165.75 32.2418 165.653 31.885 165.931 31.3606C166.08 31.1239 165.862 30.8936 165.958 30.6685C165.804 30.3306 165.65 29.9926 165.495 29.6547C165.25 29.5928 165.239 29.2674 164.96 29.2145C164.219 29.0514 164.24 28.7995 163.4 28.8425C163.222 28.9931 162.993 28.8443 162.802 28.9528C162.545 29.0989 162.37 29.3589 162.069 29.4539C161.996 29.4763 162.004 29.7497 161.931 29.7748C161.599 29.8878 161.639 30.2167 161.49 30.4292C161.306 30.6901 161.493 30.9545 161.425 31.2091C161.567 31.3606 161.435 31.5578 161.513 31.7219V31.7228Z" fill="#CC2345" fill-opacity="0.5"/>
<path d="M129.945 19.0454C130.101 19.2211 129.944 19.4596 130.066 19.6424C130.023 20.3551 130.552 20.9082 131.044 21.3376C131.441 21.6747 131.94 21.5913 132.422 21.6522C132.535 21.6872 132.695 21.5294 132.841 21.5034C133.042 21.4685 133.319 21.5465 133.418 21.36C133.826 20.9602 134.211 20.6886 134.327 20.0898C134.761 19.3466 134.414 18.5524 134.019 17.8854C133.792 17.8057 133.756 17.4973 133.462 17.4659C133.224 17.4408 132.981 17.3341 132.769 17.2113C132.311 17.0338 131.749 17.1082 131.317 17.2804C131.108 17.4283 130.913 17.63 130.656 17.7124C130.604 17.8227 130.59 17.9984 130.508 18.0378C130.113 18.2306 130.121 18.6949 129.945 19.0436V19.0454Z" fill="#CC2345" fill-opacity="0.5"/>
<path d="M101.923 15.2481C101.885 15.5242 102.108 15.6927 102.145 15.9276C102.182 16.1652 102.438 16.2136 102.519 16.4117C102.611 16.6403 103.023 16.5363 103.02 16.876C103.223 16.9513 103.422 17.0392 103.629 17.0992C103.822 17.1557 104.031 16.9648 104.231 17.1234C104.263 17.1494 104.348 17.1333 104.397 17.1109C104.886 16.8707 105.434 16.7093 105.81 16.3229C105.975 16.3346 106.366 15.1504 106.349 15.0043C106.275 14.0621 106.176 13.7564 105.494 13.0886C105.316 12.8896 105.064 12.8905 104.846 12.7793C104.622 12.7345 104.376 12.5086 104.157 12.5875C103.966 12.6951 103.751 12.5678 103.553 12.7013C103.269 12.9165 102.742 13.0061 102.499 13.2302C102.479 13.5225 102.166 13.5718 102.082 13.7878C101.977 14.0621 101.797 14.332 101.957 14.6475C101.814 14.842 101.951 15.0518 101.924 15.2472L101.923 15.2481Z" fill="#CC2345" fill-opacity="0.5"/>
<path d="M119.613 14.8134C119.824 15.2472 119.395 15.2652 119.624 16.1042C119.622 16.2441 119.767 16.3794 119.799 16.5274C119.849 16.7559 120.091 16.8214 120.169 17.0123C120.241 17.1871 120.411 17.1791 120.544 17.2373C120.856 17.3001 120.77 17.6479 121.1 17.6398C121.329 17.6631 121.567 17.5314 121.791 17.699C122.406 17.5869 123.09 17.3799 123.53 16.8958C124.068 16.1562 124.214 14.8887 123.558 14.1787C123.188 13.6444 122.694 13.4221 122.094 13.241C121.889 13.1361 121.636 13.2554 121.411 13.2473C121.001 13.4248 120.539 13.5682 120.248 13.9089C119.965 14.0066 120.057 14.4431 119.716 14.4754C119.689 14.5525 119.585 14.7524 119.614 14.8134H119.613Z" fill="#CC2345" fill-opacity="0.5"/>
<path d="M84.2524 14.1303C84.0552 14.4046 84.4388 14.6144 84.3591 14.8959C84.3241 15.0061 84.3743 15.0743 84.4119 15.1523C84.4738 15.3118 84.6531 15.4221 84.732 15.5566C84.8091 15.821 84.9722 15.9734 85.2402 16.02C85.3738 16.0433 85.4303 16.1383 85.5002 16.2468C85.7234 16.583 86.1035 16.2746 86.4002 16.4467C86.9489 16.4593 87.4374 16.1706 87.9188 15.9519C87.9421 15.942 87.9717 15.9088 87.9708 15.8873C87.9609 15.5637 88.3625 15.5368 88.419 15.2446C88.8027 14.3795 88.7722 13.2913 87.9851 12.6647C87.545 12.1878 87.2527 12.2012 86.7328 12.0094C86.627 11.9959 86.5311 12.1429 86.3931 12.073C86.1143 11.8848 85.814 12.1501 85.5459 12.2577C85.3702 12.3653 85.1138 12.3473 85.0242 12.5894C84.7114 12.7238 84.6818 13.1227 84.3797 13.2814C84.1385 13.5396 84.4863 13.7511 84.2515 14.1312L84.2524 14.1303Z" fill="#CC2345" fill-opacity="0.5"/>
<path d="M37.9027 26.4626C37.7422 26.7656 37.7673 27.0461 37.9574 27.3213C37.7799 27.7794 38.3096 27.9381 38.4145 28.3173C38.5302 28.6274 39.0232 28.4616 39.0949 28.8462C39.1012 28.882 39.1926 28.9062 39.2482 28.926C39.6516 28.7018 39.8766 29.1375 40.2818 28.9322C40.7085 28.9681 41.1352 28.6265 41.535 28.4724C41.5987 28.3074 41.6551 28.1496 41.829 28.0412C41.959 27.9488 42.0056 27.7382 42.089 27.5795C42.0791 27.575 42.0702 27.5705 42.0603 27.5661C42.1078 27.3411 42.3194 27.0963 42.2477 26.8785C42.1876 26.4428 42.2459 25.9713 41.9483 25.6074C41.7833 25.3743 41.509 25.2443 41.3611 24.9772C41.3028 24.8723 41.0976 24.8472 40.9577 24.7898C40.8439 24.7432 40.7049 24.7289 40.6153 24.6545C40.367 24.4474 40.0891 24.7324 39.8336 24.5765C39.6489 24.4635 39.4956 24.6545 39.3298 24.7118C38.4647 24.987 38.4916 25.3958 37.9824 25.9139C37.7601 25.9803 37.9538 26.2994 37.9036 26.4635L37.9027 26.4626Z" fill="#CC2345" fill-opacity="0.5"/>
<path d="M45.0948 23.169C44.9352 23.472 44.9567 23.7517 45.1476 24.0278C44.9737 24.4859 45.4972 24.6445 45.6048 25.0237C45.716 25.3384 46.2144 25.1672 46.2852 25.5526C46.3049 25.5957 46.4582 25.6656 46.5201 25.6208C46.6662 25.5123 46.8051 25.5688 46.9504 25.6261C47.5761 25.8458 48.1821 25.4119 48.7253 25.1833C48.7898 25.0202 48.8427 24.8597 49.0184 24.7512C49.1493 24.6598 49.1959 24.4491 49.3842 24.095C49.5895 23.8467 49.3967 23.3644 49.3627 22.9073C49.3456 22.6823 49.2425 22.4017 49.0794 22.2618C48.6303 21.7222 48.4913 21.5922 47.8074 21.3645C47.5322 21.1942 47.2076 21.4532 46.9441 21.2471C46.4331 21.464 45.8271 21.6155 45.508 22.1067C45.3825 22.3031 45.3924 22.5872 45.0966 22.6697C45.0284 22.7468 45.1261 23.0659 45.0948 23.1699V23.169Z" fill="#CC2345" fill-opacity="0.5"/>
<path d="M30.8779 30.8532C31.0966 31.4547 31.4579 31.9039 32.0468 32.015C32.7021 32.3458 33.3153 32.3431 33.9177 31.9666C34.2054 31.8232 34.3803 31.5354 34.6384 31.3481C34.8249 31.2127 34.7962 30.9545 34.9172 30.786C35.0822 30.5565 34.9154 30.3091 34.9835 30.0966C35.0902 29.73 34.8437 29.4378 34.8374 29.0738C34.6017 29.0371 34.5837 28.8201 34.5228 28.6606C34.4412 28.4463 34.1597 28.5225 34.0997 28.3611C33.9903 28.0671 33.7196 28.0788 33.5071 27.9846C33.2561 27.8744 33.2507 27.9183 32.8196 27.9076C32.6448 27.9031 32.478 28.0797 32.3041 27.93C31.846 28.1254 31.3207 28.3262 31.0814 28.7816C30.8367 29.522 30.444 30.094 30.8788 30.8532H30.8779Z" fill="#CC2345" fill-opacity="0.5"/>
<path d="M52.2789 20.4617C52.2861 20.7361 52.6518 21.6298 52.9243 21.7123C53.0696 22.1058 53.473 22.0628 53.767 22.1865C54.892 22.7952 56.3541 21.7723 56.6033 20.5702C56.3908 20.3389 56.6517 20.1283 56.5782 19.8835C56.5352 19.7132 56.3792 19.5841 56.4464 19.3699C56.5181 19.1422 56.1685 19.1781 56.1578 18.9674C56.1371 18.5658 55.6092 18.6187 55.5168 18.2736C54.78 17.846 53.9319 18.0118 53.1986 18.348C53.0032 18.4098 52.9987 18.6483 52.7997 18.6886C52.6052 18.7594 52.5667 19.2327 52.4573 19.4228C52.3103 19.9113 52.1471 19.9337 52.2789 20.4617Z" fill="#CC2345" fill-opacity="0.5"/>
<path d="M23.5127 33.0889C23.4303 33.4699 23.5083 33.8706 23.7198 34.1978C23.8462 34.4013 23.8408 34.6765 24.0775 34.8208C24.1465 34.863 24.1707 34.9813 24.2406 35.0198C24.6924 35.2923 25.129 35.3596 25.4168 35.5218C25.6534 35.6733 25.8829 35.4465 26.1079 35.5469C26.8717 35.2556 27.6435 34.6855 27.7977 33.8446C27.8694 33.6321 27.6802 33.3776 27.8604 33.1543C27.6202 32.7025 27.4741 31.8025 26.912 31.6779C26.5454 30.9339 24.9354 31.1293 24.3903 31.5623C23.822 31.8474 23.7691 32.5618 23.5136 33.088L23.5127 33.0889Z" fill="#CC2345" fill-opacity="0.5"/>
<path d="M59.6801 16.0505C58.6161 18.141 61.4183 19.9777 63.0767 18.4933C63.2479 18.3534 63.2237 18.1284 63.438 17.9984C63.6908 17.8442 63.784 17.5036 63.7499 17.1997C63.7455 16.461 63.5034 15.7385 62.9145 15.2544C62.7191 14.9174 62.3578 14.8555 62.0064 14.7632C61.8011 14.9676 61.5967 14.6646 61.4085 14.7542C61.1879 14.8591 60.9486 14.7542 60.7164 14.9004C60.4134 15.0904 60.2207 15.3907 59.9222 15.5727C59.7438 15.6811 59.7689 15.8945 59.6819 16.0514L59.6801 16.0505Z" fill="#CC2345" fill-opacity="0.5"/>
<path d="M109.212 11.181C109.176 11.2949 109.089 11.4508 109.133 11.5199C109.243 11.6938 109.113 11.8722 109.205 12.0425C109.353 12.3132 109.468 12.6028 109.596 12.8842C110.299 13.6749 111.399 13.8587 112.421 13.4391C112.471 13.4176 112.911 12.9712 112.949 12.878C113.042 12.6574 113.374 12.6198 113.363 12.3204C113.36 12.263 113.438 12.1841 113.418 12.1501C113.28 11.9116 113.442 11.6866 113.425 11.4598C113.432 10.9578 113.161 10.4603 112.837 10.1178C112.732 9.83009 112.315 9.92063 112.261 9.58178C112.251 9.52172 112.029 9.51455 111.932 9.44552C111.727 9.2994 111.528 9.60777 111.324 9.42849C111.219 9.33526 111.084 9.45986 110.987 9.44462C110.342 9.33884 109.451 10.229 109.335 10.8323C109.32 10.9524 109.248 11.0636 109.211 11.1819L109.212 11.181Z" fill="#CC2345" fill-opacity="0.5"/>
<path d="M147.759 19.8092C147.737 19.8845 147.758 19.9867 147.792 20.062C147.856 20.2036 147.713 20.3488 147.832 20.4958C148.114 21.1018 148.354 21.7526 149.084 21.9292C149.089 21.9176 149.094 21.9059 149.099 21.8952C149.328 21.9803 149.557 22.0664 149.786 22.1515C149.937 22.0099 150.13 22.1022 150.3 22.0745C150.797 22.0601 151.18 21.7939 151.515 21.4586C151.475 21.1449 151.814 21.1153 151.936 20.9082C152.095 20.6366 151.902 20.3712 152.013 20.1247C152.1 19.6236 151.883 19.0947 151.635 18.6931C151.512 18.6375 151.463 18.5416 151.386 18.4493C151.241 18.2754 150.938 18.2772 150.864 18.0002C150.805 17.9383 150.608 17.9267 150.523 17.8675C150.325 17.7501 150.121 18.0208 149.915 17.8505C149.625 17.8191 149.042 17.9222 148.905 18.0674C148.226 18.5676 147.994 18.9898 147.758 19.8092H147.759Z" fill="#CC2345" fill-opacity="0.5"/>
<path d="M137.561 17.0302C137.812 17.8532 138.83 18.2323 139.499 18.157C139.698 18.3041 139.884 18.0925 140.104 18.1418C140.378 18.2108 140.517 17.8245 140.755 17.7277C140.943 17.6694 141.072 17.5636 141.112 17.3538C141.147 17.1656 141.414 17.1925 141.462 16.9711C141.508 16.7622 141.608 16.5731 141.476 16.3669C141.745 15.734 141.362 15.0706 140.957 14.5839C140.819 14.4395 140.583 14.4637 140.526 14.297C140.437 14.0335 140.209 14.0155 140.017 13.9617C139.798 13.8999 139.558 14.0702 139.322 13.908C138.698 14.1213 138.327 14.2387 137.841 14.6995C137.509 14.9424 137.528 15.414 137.324 15.7465C137.185 16.1983 137.354 16.6295 137.559 17.0293L137.561 17.0302Z" fill="#CC2345" fill-opacity="0.5"/>
<path d="M158.292 23.5608C158.072 24.0879 158.486 24.9601 158.852 25.3581C159.016 25.7732 160.16 26.0574 160.451 25.9731C160.651 26.112 160.838 25.9139 161.055 25.9561C161.335 26.0206 161.47 25.6441 161.707 25.5437C161.893 25.4836 162.029 25.3841 162.066 25.1726C162.1 24.9816 162.408 25.0202 162.405 24.7871C162.64 24.5523 162.355 24.2564 162.495 24.0117C162.555 23.5079 162.396 22.9683 162.082 22.5944C161.86 22.3067 161.524 22.1068 161.24 21.8665C160.977 21.6451 160.651 21.8898 160.377 21.7455C160.209 21.6577 160.094 21.8154 159.952 21.8486C159.739 21.9185 159.399 21.819 159.286 22.0261C158.554 22.7639 158.64 22.5048 158.29 23.5608H158.292Z" fill="#CC2345" fill-opacity="0.5"/>
<path d="M91.6808 10.1931C91.3231 10.8484 91.4916 11.5593 91.8842 12.1581C92.1586 12.7811 92.8838 12.8726 93.4548 13.111C93.6619 12.9676 93.9326 13.1298 94.1361 12.9667C94.5942 13.2087 94.6829 12.5911 95.0504 12.5481C95.3355 12.4548 95.2512 12.0227 95.5865 11.9887C95.6358 11.761 95.8581 11.5611 95.6914 11.2957C95.6672 11.2581 95.7022 11.1837 95.7084 11.1263C95.8967 10.5275 95.3265 9.26084 94.7564 9.21691C94.5529 8.60286 93.9272 8.97667 93.5077 8.75525C93.2916 8.82965 93.0944 9.00446 92.8264 8.93095C92.5288 8.91482 92.3755 9.30745 92.1523 9.45985C91.8484 9.60596 91.7829 9.8991 91.6817 10.1931H91.6808Z" fill="#CC2345" fill-opacity="0.5"/>
<path d="M66.6641 13.3818C66.8191 13.821 66.6246 14.392 66.9922 14.7345C67.3929 15.137 67.6448 15.5682 68.2427 15.6524C68.3861 15.6937 68.5555 15.7994 68.6694 15.7573C68.8944 15.673 69.1454 15.7761 69.3578 15.6121C69.5004 15.5018 69.6904 15.4525 69.8581 15.3745C70.1431 15.2813 70.4076 14.7802 70.7204 14.5409C70.7742 14.4781 70.8567 14.375 70.837 14.3248C70.7787 14.176 70.7132 14.029 70.8244 13.8963C71.0942 13.4302 70.7437 12.6252 70.3887 12.2639C70.1198 11.8336 69.7442 11.9923 69.5981 11.6023C69.5819 11.5611 69.4636 11.5127 69.4475 11.5279C69.2135 11.7404 68.9849 11.4733 68.7581 11.5279C67.7245 11.6418 66.777 12.2962 66.6641 13.3827V13.3818Z" fill="#CC2345" fill-opacity="0.5"/>
<path d="M126.873 11.9932C126.91 12.4826 126.91 13.0115 127.278 13.397C127.581 13.691 127.793 14.0164 128.231 14.141C128.53 14.3544 128.89 14.1051 129.185 14.2916C129.745 14.054 130.449 13.8873 130.704 13.267C131.083 12.4692 131.296 11.5458 130.591 10.8376C130.312 10.3787 129.697 10.3742 129.251 10.1322C128.985 10.0174 128.73 10.1393 128.478 10.1644C128.274 10.185 128.089 10.3805 127.883 10.4109C127.489 10.4692 127.514 10.9631 127.163 11.042C127.064 11.3594 126.829 11.6507 126.873 11.9932Z" fill="#CC2345" fill-opacity="0.5"/>
<path d="M168.861 27.2065C168.721 27.6995 168.762 28.5198 169.086 28.907C169.411 29.2262 169.635 29.6959 170.16 29.7703C170.422 29.9962 170.751 29.7425 171.026 29.8904C171.148 29.9836 172.174 29.4987 172.245 29.3499C172.693 29.0361 172.75 28.3001 172.948 28.007C173.096 27.7937 172.885 27.5964 172.966 27.3983C172.833 27.0944 172.7 26.7915 172.567 26.4876C172.341 26.4481 172.351 26.1505 172.097 26.0994C171.767 26.0331 171.447 25.8923 171.139 25.7489C170.734 25.5696 169.306 26.0429 169.301 26.5593C168.962 26.6435 168.98 26.9716 168.86 27.2065H168.861Z" fill="#CC2345" fill-opacity="0.5"/>
<path d="M74.0014 10.151C73.9557 10.3214 73.8033 10.4854 73.9592 10.6683C74.1098 10.8458 74.013 11.0735 74.0883 11.2644C74.3501 11.3236 74.325 11.5997 74.4612 11.7485C75.078 12.0873 75.1156 12.5006 75.9359 12.3598C76.8224 12.341 77.6633 11.8919 77.8748 10.9784C78.1348 10.5491 77.9421 10.1241 77.9511 9.6831C77.9098 9.54057 77.8928 9.33798 77.7924 9.27523C77.3997 9.02691 77.2429 8.45947 76.7498 8.47382C76.3796 8.34563 76.1671 8.19771 75.8157 8.28019C75.0762 8.23357 73.6078 9.37473 74.0032 10.1501L74.0014 10.151Z" fill="#CC2345" fill-opacity="0.5"/>
<path d="M98.8385 7.5254C98.6027 7.9046 99.0061 8.26317 99.1029 8.6325C99.3979 9.44556 99.5969 9.06279 99.9384 9.49666C100.06 9.57555 100.235 9.7118 100.324 9.67415C100.838 9.59706 101.444 9.82924 101.853 9.41329C102.164 9.08251 102.653 8.87454 102.697 8.37612C102.761 8.1547 102.911 7.93059 102.879 7.73607C102.794 7.51017 102.902 7.25737 102.733 7.04492C102.621 6.90328 102.54 6.71862 102.504 6.54202C102.456 6.30536 102.2 6.26413 102.124 6.05884C102.063 5.893 101.869 5.91183 101.734 5.85356C101.255 5.56043 100.87 5.61511 100.361 5.71909C99.6435 5.70834 99.3064 6.38873 98.8994 6.84322C98.73 7.05836 99.0079 7.30668 98.8376 7.52809L98.8385 7.5254Z" fill="#CC2345" fill-opacity="0.5"/>
<path d="M179.362 31.1428C179.481 31.4942 179.283 31.8878 179.441 32.2553C179.495 32.4615 179.607 32.6551 179.706 32.8478C179.786 33.0038 180.012 33.0433 180.032 33.2512C180.522 33.331 180.418 33.7075 180.673 33.6788C180.989 33.4503 181.22 33.8438 181.535 33.7281C182.38 33.6457 182.339 33.4001 182.937 32.9456C183.197 32.7717 183.166 32.4669 183.299 32.2257C183.593 31.6027 183.196 31.0057 182.945 30.4373C182.865 30.284 182.644 30.2392 182.617 30.0366C182.27 29.9067 181.922 29.7776 181.574 29.6476C181.404 29.8206 181.155 29.6332 180.979 29.7749C180.548 29.7121 180.289 29.9963 179.968 30.2132C179.69 30.4015 179.838 30.8479 179.451 30.9116C179.383 30.9447 179.337 31.072 179.362 31.1428H179.362Z" fill="#CC2345" fill-opacity="0.5"/>
<path d="M116.527 8.08746C116.436 8.42093 116.609 8.79385 116.698 9.11119C116.774 9.39535 117.007 9.54685 117.165 9.75393C117.296 9.92515 117.587 9.95383 117.688 10.1986C117.7 10.2263 117.813 10.2452 117.851 10.2219C118.001 10.1268 118.136 10.1645 118.284 10.2237C118.419 10.2783 118.544 10.3456 118.717 10.2774C119.194 10.2497 119.605 10.0175 119.915 9.64994C120.341 9.41239 120.357 8.89335 120.554 8.48727C120.558 7.901 120.305 7.38287 120.006 6.8961C119.38 6.08662 118.143 6.14131 117.316 6.55725C117.208 6.79929 116.853 6.86114 116.857 7.18565C116.821 7.35508 116.597 7.4241 116.522 7.57381C116.419 7.73247 116.67 7.90638 116.526 8.08746H116.527Z" fill="#CC2345" fill-opacity="0.5"/>
<path d="M81.1721 7.10137C81.2832 7.29052 81.1326 7.51731 81.2922 7.70198C81.5817 8.36624 81.7798 8.55628 82.4674 8.83328C82.471 8.82432 82.4746 8.81625 82.4791 8.80728C83.665 9.32811 83.0761 8.95699 83.8488 8.93009C83.873 8.93995 83.9125 8.94264 83.9322 8.93009C84.0541 8.85031 84.2271 8.85748 84.297 8.68357C84.3625 8.51953 84.6251 8.52759 84.6502 8.31335C84.9774 8.00318 85.1935 7.6231 85.1155 7.22777C85.0706 7.00187 85.2867 6.8423 85.1567 6.61999C84.8555 6.04717 84.877 5.78182 84.2934 5.40891C83.7753 4.87194 82.5373 4.88001 82.0613 5.42146C81.4957 5.60074 81.4679 6.20225 81.2653 6.67377C81.2241 6.81362 81.0779 6.94449 81.1712 7.10227L81.1721 7.10137Z" fill="#CC2345" fill-opacity="0.5"/>
<path d="M34.7509 19.6183C34.7581 20.0638 34.8979 20.5282 35.2161 20.8464C35.3739 20.971 35.4223 21.2211 35.6823 21.2355C35.9754 21.2597 36.4604 21.6442 36.7239 21.5465C36.9122 21.4354 37.1426 21.5851 37.3263 21.4255C37.563 21.2588 37.9323 21.2104 38.1367 21.0051C38.2497 20.8805 38.2371 20.6465 38.4657 20.6071C38.8037 20.1329 38.6916 19.7044 38.6396 19.1602C38.6522 18.5426 38.0659 18.3032 37.8239 17.8478C37.5917 17.7627 37.3595 17.6784 37.1273 17.5933C36.9561 17.7295 36.7885 17.6246 36.6101 17.6103C35.5317 17.7941 34.8594 18.539 34.75 19.6192L34.7509 19.6183Z" fill="#CC2345" fill-opacity="0.5"/>
<path d="M144.68 12.5741C144.653 12.6575 144.601 12.7803 144.637 12.8269C144.748 12.973 144.617 13.1308 144.683 13.2599C144.823 13.5279 144.864 13.8587 145.115 14.0541C145.274 14.1778 145.325 14.4252 145.582 14.4414C146.596 14.912 147.108 14.7829 148.044 14.2137C148.035 13.8918 148.433 13.8515 148.487 13.5664C148.706 13.0824 148.573 12.5992 148.496 12.1026C148.227 11.4751 147.691 10.9408 147.017 10.8001C146.778 11.0421 146.496 10.662 146.243 10.8583C145.289 11.2411 144.953 11.5575 144.679 12.5741H144.68Z" fill="#CC2345" fill-opacity="0.5"/>
<path d="M155.169 17.1549C155.288 17.7492 155.794 18.3256 156.394 18.4664C156.726 18.5936 156.989 18.7631 157.345 18.6098C157.759 18.617 158.081 18.3337 158.442 18.175C158.549 18.1275 158.558 17.864 158.667 17.8111C159.037 17.6309 159.008 17.2651 159.122 16.9657C158.97 16.6672 159.088 16.3284 158.98 16.0245C158.722 15.4642 158.168 14.7578 157.515 14.7246C157.331 14.7489 157.172 14.7946 156.995 14.713C156.949 14.6924 156.876 14.704 156.826 14.7264C156.28 14.9568 155.647 15.1603 155.417 15.7654C155.265 16.3517 155.015 16.513 155.17 17.1549H155.169Z" fill="#CC2345" fill-opacity="0.5"/>
<path d="M42.2002 17.2553C42.5372 17.9975 43.7904 18.4493 44.5058 18.1418C44.6501 18.0316 44.8339 17.9303 45.0096 17.9132C45.3915 17.8765 45.3359 17.4085 45.6452 17.3216C45.8442 16.9352 45.9096 16.8348 45.8191 16.3965C45.9078 15.9088 45.8406 15.6022 45.6425 15.2894C45.5833 15.1961 45.4264 15.1433 45.404 15.0509C45.3296 14.7435 44.8724 14.8456 44.8455 14.5014C44.8437 14.4745 44.7263 14.4691 44.6833 14.4306C44.4197 14.1912 44.0854 14.5014 43.8146 14.3141C43.4668 14.3078 43.1387 14.6135 42.799 14.704C42.6197 14.773 42.5982 14.9927 42.4019 15.0527C42.3239 15.076 42.2862 15.2526 42.2423 15.3638C42.1509 15.5942 42.0908 15.8407 41.9752 16.0576C41.847 16.2988 42.0119 16.5166 41.9859 16.7515C41.968 16.9101 42.1204 17.0894 42.2002 17.257V17.2553Z" fill="#CC2345" fill-opacity="0.5"/>
<path d="M27.5937 22.6499C27.4341 22.9448 27.7353 23.1277 27.7147 23.4226C27.6412 23.8736 28.1943 24.0134 28.2382 24.4195C28.5242 24.5396 28.8863 24.6669 29.1893 24.7754C29.3023 24.8049 29.4099 24.9313 29.5327 24.8363C29.694 24.7117 29.8805 24.8731 30.0517 24.7565C30.2283 24.6364 30.4354 24.5154 30.6407 24.4912C30.9974 24.4491 30.9481 24.051 31.1929 23.9399C31.3981 23.8467 31.3793 23.6396 31.4618 23.4845C31.5658 23.2891 31.3193 23.0829 31.4815 22.8767C31.538 22.381 31.3515 21.8781 30.9759 21.5366C30.8522 21.3241 30.4685 21.4137 30.4569 21.0749C29.9128 20.7333 29.8321 21.0848 29.4233 20.8911C29.1051 20.8893 28.8066 21.1798 28.4919 21.2488C28.2983 21.3107 28.2642 21.5258 28.0912 21.585C27.7721 21.8118 27.7927 22.3218 27.5937 22.6508V22.6499Z" fill="#CC2345" fill-opacity="0.5"/>
<path d="M49.1571 12.7999C49.3077 13.0061 49.15 13.2768 49.3006 13.483C49.1948 13.6444 49.2683 13.8147 49.3696 13.9034C49.7138 14.2064 49.9191 14.6824 50.4184 14.7793C50.6596 14.8295 50.8801 15.0545 51.1221 14.9559C51.2835 14.8555 51.4708 14.9926 51.6394 14.8734C51.7891 14.7685 51.9666 14.6726 52.1441 14.6439C52.4999 14.5847 52.5215 14.1948 52.7805 14.0558C52.9733 13.9527 52.9921 13.7519 53.0279 13.5879C53.0755 13.3656 52.9195 13.1191 53.0907 12.895C52.941 12.1133 52.9813 12.1491 52.396 11.5351C52.1136 11.5306 52.067 11.2231 51.8438 11.112C51.5488 10.9649 51.253 11.1639 50.9644 11.0196C50.7922 10.9847 50.4901 11.2124 50.2938 11.2742C49.5856 11.4974 49.3705 12.1536 49.1562 12.799L49.1571 12.7999Z" fill="#CC2345" fill-opacity="0.5"/>
<path d="M20.4177 25.9722C20.4446 26.1425 20.407 26.3343 20.4877 26.4858C20.5782 26.6562 20.4625 26.8301 20.5603 27.0075C20.6633 27.1958 20.9108 27.2496 20.9484 27.4791C21.1887 27.5902 21.2837 27.8995 21.5947 27.9264C22.2716 28.2312 23.1303 28.1397 23.6296 27.5418C23.9434 27.4925 23.8403 27.021 24.1818 26.9959C24.2231 26.9367 24.2554 26.8175 24.2831 26.7422C24.3369 26.5432 24.1469 26.3406 24.302 26.1335C24.3369 26.0869 24.2536 25.965 24.2652 25.8834C24.3011 25.6288 24.1872 25.4209 24.0976 25.1985C24.016 24.9969 23.7623 24.9475 23.7121 24.727C23.3374 24.7172 23.2845 24.2134 22.8919 24.2582C22.8067 24.2591 22.7198 24.3272 22.6373 24.3218C21.9004 24.2716 21.9103 24.2941 21.4352 24.4724C21.0587 24.6768 20.7171 24.9475 20.6221 25.3617C20.545 25.5688 20.3881 25.7848 20.4177 25.9713V25.9722Z" fill="#CC2345" fill-opacity="0.5"/>
<path d="M165.719 20.1454C165.636 20.3247 165.61 20.4923 165.729 20.6626C165.58 20.8365 165.793 20.9961 165.75 21.1817C165.722 21.3054 165.791 21.5402 165.885 21.586C166.045 21.6649 166.072 21.8253 166.182 21.9033C166.331 21.9777 166.381 22.1023 166.474 22.2233C166.721 22.3381 167.015 22.3937 167.254 22.5218C167.487 22.6913 167.717 22.5111 167.947 22.5192C168.168 22.5263 168.395 22.3318 168.622 22.235C168.791 22.1633 168.818 21.9257 169.025 21.9042C169.098 21.525 169.574 21.4345 169.512 21.0114C169.488 19.6676 169.467 19.5708 168.381 18.7649C168.228 18.5946 167.987 18.7927 167.784 18.7308C167.088 18.6044 166.199 18.9791 165.908 19.6228C165.888 19.8021 165.797 19.9778 165.72 20.1454H165.719Z" fill="#CC2345" fill-opacity="0.5"/>
<path d="M134.312 9.32187C134.341 9.49399 134.3 9.719 134.43 9.82209C134.789 10.108 134.973 10.6217 135.472 10.6647C135.691 10.7266 135.927 10.8835 136.113 10.844C136.314 10.7517 136.528 10.8808 136.723 10.7382C137.033 10.5778 137.31 10.4863 137.54 10.2022C137.751 10.0928 137.673 9.71003 137.998 9.6921C138.036 9.57557 138.139 9.42586 138.1 9.35056C137.997 9.15604 138.117 8.99378 138.105 8.82794C138.132 8.17713 137.89 7.96557 137.553 7.48598C137.196 7.42682 137.057 6.90868 136.668 6.99025C136.546 7.03776 136.431 7.08348 136.324 6.99743C136.143 6.8522 135.985 7.03597 135.805 7.01894C135.49 6.98846 135.24 7.22153 134.959 7.33269C134.825 7.38648 134.824 7.607 134.639 7.62224C134.303 8.10273 134.13 8.73113 134.311 9.32187H134.312Z" fill="#CC2345" fill-opacity="0.5"/>
<path d="M106.079 4.1468C106.15 4.37718 106.043 4.63176 106.203 4.83615C105.978 5.34532 106.675 5.5264 106.842 5.90111C107.03 6.12163 107.417 6.12432 107.671 6.27134C108.17 6.44435 108.688 6.20231 109.118 5.95131C109.448 5.74065 109.558 5.36415 109.864 5.11853C110 4.99841 109.918 4.68645 109.904 4.52778C109.971 4.3467 110.022 4.17907 109.89 4.00874C110.028 3.80794 109.854 3.66183 109.797 3.49599C109.769 3.23064 109.535 3.21719 109.425 3.01012C109.314 2.80125 108.937 2.87565 108.912 2.55204C108.835 2.52425 108.634 2.41847 108.573 2.44716C108.385 2.56549 108.228 2.4633 108.05 2.4373C106.986 2.40951 106.204 3.13114 106.078 4.1441L106.079 4.1468Z" fill="#CC2345" fill-opacity="0.5"/>
<path d="M56.3784 9.59975C56.4869 10.5132 57.0481 11.6355 58.1453 11.597C58.3327 11.4643 58.4949 11.7108 58.6581 11.6463C59.2524 11.4123 59.8297 11.147 59.9794 10.4263C60.1452 9.98701 60.3962 9.58003 60.0798 9.1354C59.9229 8.87185 59.8799 8.51149 59.6719 8.31517C59.2945 8.06148 58.6823 7.88129 58.2269 7.8042C57.6666 7.82392 57.1028 8.08209 56.8231 8.56527C56.5801 8.71139 56.5362 9.0108 56.4403 9.25911C56.408 9.37027 56.2843 9.48053 56.3784 9.60065V9.59975Z" fill="#CC2345" fill-opacity="0.5"/>
<path d="M88.6459 2.84692C88.5204 3.24045 88.2909 3.64833 88.4854 4.04903C88.645 4.57255 88.8799 5.17854 89.4061 5.43312C89.5836 5.48332 89.7602 5.54697 89.926 5.62765C90.1519 5.73701 90.3912 5.46271 90.6234 5.67068C91.5593 5.48512 91.9286 4.95801 92.1554 4.12344C92.5418 3.50311 91.9223 2.93118 91.7422 2.33954C90.7131 1.91284 90.0488 1.52558 89.0565 2.29203C89.0816 2.59502 88.7059 2.5986 88.6459 2.84781V2.84692Z" fill="#CC2345" fill-opacity="0.5"/>
<path d="M13.7768 30.7761C13.9651 30.7932 13.9435 31.0235 14.0744 31.0809C14.3281 31.1921 14.5863 31.3104 14.8552 31.3642C15.3312 31.3032 15.9802 31.3481 16.3388 30.9698C16.7449 30.682 16.692 30.613 16.8498 30.1612C17.1949 29.2907 17.0344 28.9008 16.5109 28.2034C16.3962 28.059 16.3128 27.921 16.121 27.8636C15.7463 27.8116 15.3698 27.4333 14.9968 27.5777C14.866 27.6619 14.7109 27.4979 14.5684 27.6252C14.4366 27.7435 14.225 27.7318 14.1076 27.8986C12.9808 28.8416 13.0955 29.6314 13.7768 30.7761Z" fill="#CC2345" fill-opacity="0.5"/>
<path d="M176.668 25.8279C176.856 25.8449 176.834 26.0753 176.965 26.1327C177.219 26.2447 177.477 26.3622 177.746 26.4159C178.222 26.355 178.871 26.4007 179.23 26.0215C179.636 25.7338 179.583 25.6656 179.741 25.2129C180.086 24.3425 179.925 23.9526 179.402 23.2551C179.287 23.1108 179.204 22.9728 179.012 22.9154C178.637 22.8634 178.261 22.4851 177.888 22.6294C177.757 22.7137 177.602 22.5496 177.459 22.6769C177.327 22.7953 177.117 22.7836 176.998 22.9503C175.872 23.8934 175.986 24.6831 176.667 25.8279H176.668Z" fill="#CC2345" fill-opacity="0.5"/>
<path d="M123.803 4.55823C123.983 4.83254 123.676 5.13643 123.856 5.41343C124.006 5.67788 124.076 6.00059 124.252 6.24801C124.776 6.54024 125.007 6.94274 125.643 6.80738C125.818 6.94454 125.979 6.76525 126.157 6.78138C126.611 6.79304 127.16 6.36006 127.279 5.91633C127.287 5.82758 127.34 5.74242 127.373 5.65547C127.426 5.43674 127.617 5.19022 127.561 4.96701C127.43 4.80834 127.61 4.61381 127.48 4.45066C127.297 4.22117 127.347 3.8366 126.995 3.71559C126.853 3.28351 126.252 3.34178 125.918 3.11498C125.65 2.98679 125.402 3.12842 125.146 3.13201C124.776 3.18131 124.467 3.52554 124.261 3.81599C123.909 3.94059 123.945 4.30454 123.805 4.56003L123.803 4.55823Z" fill="#CC2345" fill-opacity="0.5"/>
<path d="M63.6133 6.00773C63.7576 6.33582 63.4869 6.71412 63.7451 7.03325C63.9503 7.321 63.9369 7.81404 64.3905 7.84721C64.4981 8.17172 65.0028 8.31335 65.2842 8.30707C65.4635 8.23805 65.632 8.34383 65.8077 8.24881C65.9494 8.17171 66.1735 8.29722 66.308 8.14662C66.4774 7.88127 66.818 7.84721 66.9901 7.61413C67.0995 7.2215 67.3917 6.80824 67.3711 6.40574C67.2456 6.24618 67.4168 6.05524 67.2904 5.8894C67.113 5.65632 67.1255 5.31299 66.8127 5.13998C66.7096 5.08351 66.6701 4.89974 66.5034 4.84774C66.1009 4.78589 65.6948 4.38787 65.2923 4.55192C65.0216 4.75452 64.6227 4.51696 64.4201 4.89077C64.0382 5.30403 63.7504 5.39726 63.6142 6.00773H63.6133Z" fill="#CC2345" fill-opacity="0.5"/>
<path d="M6.1611 32.1881C6.12614 32.2652 6.08312 32.3916 6.11897 32.4391C6.23013 32.5843 6.09835 32.7394 6.16469 32.8694C6.22565 32.9895 6.24178 33.0953 6.17634 33.2145C6.27764 33.4063 6.33591 33.7075 6.52237 33.8375C6.70883 33.8922 6.67207 34.1871 6.90424 34.1835C6.98851 34.5215 7.30047 34.5304 7.54968 34.6048C7.64111 34.6326 7.75765 34.4677 7.88584 34.5502C8.2229 34.7214 8.54472 34.4032 8.90419 34.4229C9.09334 34.0266 9.66347 33.9209 9.66347 33.5695C9.71904 33.1365 10.0032 32.9187 9.81407 32.621C9.89654 31.6439 8.9266 30.9115 8.01493 30.908C7.76303 30.9447 7.50844 30.9851 7.24937 30.9967C7.14091 31.0012 7.10684 31.2701 6.93293 31.2665C6.55195 31.2594 6.65952 31.7228 6.38521 31.8125C6.20593 31.8707 6.22206 32.0554 6.162 32.1872L6.1611 32.1881Z" fill="#CC2345" fill-opacity="0.5"/>
<path d="M71.1612 2.29822C71.033 2.65142 70.7964 3.0575 70.9228 3.41697C70.8502 3.76927 71.0348 3.99427 71.2267 4.22107C71.3925 4.49359 71.6435 4.61998 71.9555 4.69528C72.1294 4.75983 72.3266 4.7921 72.4709 4.89788C72.6878 5.05565 72.8815 4.72756 73.0769 4.90774C73.9706 4.60026 74.5892 4.01041 74.4771 3.00551C74.4816 2.85849 74.3695 2.74465 74.4162 2.57343C74.4466 2.46227 74.3382 2.28836 74.2503 2.17541C73.5439 1.3749 72.8501 1.05666 71.8613 1.54432C71.6247 1.58197 71.578 1.84463 71.3764 1.91635C71.1989 1.97999 71.2186 2.16555 71.1603 2.29912L71.1612 2.29822Z" fill="#CC2345" fill-opacity="0.5"/>
<path d="M113.383 1.17501C113.505 1.36505 113.385 1.57751 113.488 1.78369C113.704 2.10192 113.909 2.48201 114.29 2.56538C115.218 3.03152 115.989 2.86478 116.659 2.21397C116.842 2.07682 116.814 1.81954 116.936 1.65101C117.126 1.28975 116.949 0.908768 116.948 0.53137C116.923 0.35298 116.891 0.175487 116.703 0.0831543C116.542 0.00426829 116.55 -0.251214 116.334 -0.274521C115.15 -1.52235 113.458 -0.22253 113.385 1.17501H113.383Z" fill="#CC2345" fill-opacity="0.5"/>
<path d="M96.0832 1.54975C96.3763 1.99527 96.9572 2.04278 97.4233 2.24627C97.4744 2.26331 97.5542 2.26779 97.591 2.2391C97.7505 2.11539 97.9406 2.28124 98.1082 2.15932C98.3458 1.98631 98.6918 1.98541 98.8496 1.67435C99.2745 1.45204 99.4367 0.700824 99.3274 0.241851C99.2135 -0.0781752 99.3103 -0.321108 99.0226 -0.53894C98.2454 -1.68279 96.7869 -1.6048 96.0402 -0.463641C95.972 -0.226086 95.903 0.0195365 95.7775 0.228405C95.6466 0.628214 95.7748 1.2593 96.0832 1.54975Z" fill="#CC2345" fill-opacity="0.5"/>
<path d="M186.77 28.2285C186.644 28.8058 186.792 29.1725 187.22 29.6619C187.506 29.9299 188.376 30.2697 188.8 30.1666C189.593 30.0097 190.225 29.4988 190.381 28.683C190.251 28.501 190.368 28.2805 190.282 28.0833C190.214 27.9273 190.322 27.731 190.189 27.5732C189.839 27.2254 189.565 26.7431 189.044 26.6678C188.91 26.6149 188.77 26.4706 188.617 26.5737C188.451 26.6875 188.267 26.5289 188.099 26.6535C187.863 26.8283 187.529 26.8319 187.349 27.1322C186.996 27.3581 186.95 27.8619 186.769 28.2285H186.77Z" fill="#CC2345" fill-opacity="0.5"/>
<path d="M152.031 9.37476C151.832 9.65355 152.251 9.83553 152.147 10.143C152.131 10.1923 152.148 10.2999 152.17 10.3053C152.499 10.3868 152.398 10.7857 152.668 10.9041C153.092 11.017 153.524 11.3595 153.965 11.2537C154.674 11.1389 154.702 11.1309 155.191 10.5383C156.138 10.0838 155.381 8.1601 154.608 7.84545C154.169 7.57024 154.038 7.84097 153.658 7.69754C153.393 7.63389 153.155 7.91626 152.897 7.95392C152.697 8.0068 152.7 8.25422 152.499 8.29456C152.35 8.32414 152.367 8.48729 152.323 8.59397C152.217 8.85035 152.126 9.1139 152.029 9.37476H152.031Z" fill="#CC2345" fill-opacity="0.5"/>
<path d="M162.557 13.3548C162.641 13.5323 162.499 13.7098 162.63 13.873C162.813 14.1025 162.764 14.487 163.115 14.608C163.219 15.0007 163.728 14.9505 164.02 15.1432C164.284 15.275 164.535 15.1316 164.791 15.1271C165.16 15.0769 165.469 14.7344 165.675 14.4431C165.984 14.3759 165.961 14.0809 166.067 13.8739C165.93 13.5449 166.196 13.1684 165.939 12.8483C165.864 12.7551 165.807 12.6314 165.787 12.514C165.714 12.107 165.268 12.0586 165.078 11.761C165.025 11.6776 164.859 11.6391 164.741 11.6319C164.324 11.6041 163.951 11.7027 163.543 11.7726C163.309 11.8748 163.18 12.0711 162.983 12.1975C162.786 12.3257 162.805 12.5722 162.705 12.7551C162.659 12.9586 162.461 13.1495 162.558 13.3548H162.557Z" fill="#CC2345" fill-opacity="0.5"/>
<path d="M141.626 5.28337C141.621 5.29592 141.635 5.9557 141.64 5.96735C141.704 6.10809 141.805 6.24345 141.824 6.38957C141.86 6.66567 142.113 6.76069 142.249 6.94894C142.476 7.17215 142.821 7.21787 142.977 7.28959C143.119 7.32007 143.244 7.46977 143.406 7.37654C143.593 7.26897 143.822 7.4124 144.004 7.25552C144.094 7.17843 144.305 7.1605 144.318 7.09058C144.362 6.84137 144.71 6.88799 144.717 6.6334C145.028 6.56975 145.007 6.27483 145.112 6.06685C144.986 5.73607 145.249 5.35867 144.987 5.04313C144.818 4.69262 144.72 4.28833 144.291 4.15925C144.216 3.88494 143.686 3.694 143.455 3.87508C143.278 3.72627 143.121 3.92438 142.941 3.90466C142.476 3.88673 141.951 4.31612 141.811 4.76165C141.787 4.94094 141.69 5.10946 141.626 5.28337Z" fill="#CC2345" fill-opacity="0.5"/>
<path d="M78.1654 0.0338914C78.1008 0.269653 78.3187 0.422045 78.35 0.626432C78.3913 0.892672 78.6405 0.992177 78.7606 1.19387C78.8646 1.36868 79.0762 1.35434 79.2295 1.43681C79.3774 1.49149 79.5548 1.62506 79.6588 1.58203C79.891 1.5148 80.1357 1.54617 80.3419 1.46012C80.5499 1.56769 80.687 1.39647 80.8538 1.34806C80.8376 1.07823 81.2401 1.15443 81.2339 0.880124C81.215 0.673048 81.614 0.627328 81.5799 0.416667C81.3423 0.0796086 81.8103 -0.198285 81.5969 -0.532654C80.9739 -2.03507 81.0617 -1.12878 80.5651 -1.81097C80.5221 -1.86565 80.3885 -1.91316 80.3374 -1.88537C79.839 -1.76435 79.251 -2.11306 78.8978 -1.53755C78.7409 -1.31703 78.3976 -1.20856 78.3142 -0.914535C78.1708 -0.328269 78.0533 -0.612436 78.1663 0.0338914H78.1654Z" fill="#CC2345" fill-opacity="0.5"/>
<path d="M173.08 17.6847C173.09 17.8568 173.253 18.0155 173.289 18.1921C173.337 18.4278 173.575 18.4816 173.675 18.6681C173.938 18.8994 174.352 19.0042 174.574 19.0589C174.769 19.0679 174.969 18.9827 175.168 18.946C175.357 18.9738 175.611 18.9218 175.747 18.8034C175.825 18.7201 175.871 18.617 175.991 18.5614C176.186 18.4718 176.086 18.1266 176.373 18.0997C176.397 18.097 176.43 18.071 176.44 18.0477C176.562 17.7896 176.274 17.7358 176.501 17.3629C176.682 17.0312 176.33 16.7443 176.264 16.4279C176.173 16.1357 175.984 15.9698 175.693 15.9097C175.497 15.8802 175.511 15.5628 175.315 15.5727C175.042 15.7932 174.724 15.4069 174.458 15.6426C173.987 15.4346 173.728 16.046 173.4 16.271C173.186 16.4144 173.192 16.7775 173.051 16.9989C172.944 17.2347 173.067 17.4579 173.08 17.6838V17.6847Z" fill="#CC2345" fill-opacity="0.5"/>
<path d="M131.16 1.87963C131.094 2.0867 131.271 2.21758 131.313 2.39059C131.381 2.6649 131.598 2.83701 131.76 3.04678C132.467 3.56671 133.088 3.47886 133.935 3.0163C134.43 2.75365 134.715 1.46278 134.435 0.977815C134.155 0.338658 133.379 0.0724187 132.746 -0.0665283C132.547 -0.0190174 132.393 0.179989 132.144 0.0831743C132.102 0.0670385 132.003 0.246326 131.911 0.30549C131.811 0.37093 131.728 0.43368 131.648 0.532288C131.54 0.664063 131.355 0.721433 131.312 0.92582C131.28 1.07552 131.232 1.2333 131.149 1.3588C131.024 1.54705 131.215 1.70661 131.16 1.87783V1.87963Z" fill="#CC2345" fill-opacity="0.5"/>
<path d="M31.7271 12.0882C31.8965 12.2935 31.7746 12.4907 31.7109 12.6897C31.9315 13.0321 31.9144 13.5548 32.4451 13.6623C32.5608 14.0254 32.9184 14.0639 33.1874 14.1034C33.6311 14.2217 34.0461 13.8972 34.4567 13.7448C35.034 13.4893 35.285 12.2289 35.008 11.6606C34.7221 11.051 33.9906 10.7749 33.3998 10.6414C33.1408 10.6611 32.8889 10.852 32.6388 10.9461C32.3716 10.9748 32.2551 11.2151 32.0731 11.3585C31.8472 11.5378 31.8463 11.8462 31.7271 12.0891V12.0882Z" fill="#CC2345" fill-opacity="0.5"/>
<path d="M24.6262 15.6704C24.5132 15.8434 24.7293 15.9958 24.6513 16.1921C24.6145 16.2844 24.7436 16.4673 24.8333 16.5803C25.303 17.0348 25.6947 17.4937 26.3707 17.3718C27.1837 17.1343 27.6507 17.0724 27.83 16.1428C27.8256 15.9895 28.0335 15.8264 27.9636 15.5951C27.8964 15.371 27.926 15.137 27.8148 14.9066C27.5826 14.5785 27.3576 14.3033 26.9488 14.194C26.6916 14.0909 26.4253 13.9197 26.169 13.9304C25.6598 14.0236 25.1757 14.4028 24.7786 14.722C24.6818 15.0312 24.4622 15.3199 24.6244 15.6713L24.6262 15.6704Z" fill="#CC2345" fill-opacity="0.5"/>
<path d="M39.0476 9.71175C39.0683 9.97351 39.3838 10.0345 39.4645 10.2774C39.4878 10.3482 39.6321 10.4101 39.7092 10.5096C39.8858 10.7382 40.1933 10.7391 40.4362 10.8574C40.5868 10.7149 40.7858 10.8332 40.9463 10.7668C41.2313 10.6485 41.5119 10.5176 41.7889 10.3805C42.5321 9.60866 42.5545 8.03363 41.3954 7.63292C40.6621 7.26001 40.2874 7.34427 39.6052 7.76828C38.8603 8.17078 38.9168 8.99012 39.0485 9.71265L39.0476 9.71175Z" fill="#CC2345" fill-opacity="0.5"/>
<path d="M17.4337 18.4457C17.2804 18.7334 17.5278 19.075 17.4713 19.386C17.4552 19.6245 17.5215 19.7778 17.7214 19.9131C18.0092 20.1265 18.141 20.5012 18.4915 20.5944C18.7183 20.7271 18.9549 20.4815 19.1844 20.6428C19.3368 20.7495 19.4641 20.5747 19.6049 20.538C19.9043 20.4591 20.1158 20.2466 20.3453 20.0575C20.5264 19.9078 20.5219 19.6783 20.6205 19.4936C20.6662 19.2901 20.8392 19.1144 20.7756 18.8876C20.7146 18.2825 20.6322 18.1669 20.2386 17.7232C20.1562 17.5394 19.924 17.5636 19.7644 17.4838C19.301 17.2579 19.1244 17.2714 18.6466 17.3628C18.5076 17.3592 18.3696 17.5224 18.2243 17.5349C17.872 17.5672 17.9088 17.9652 17.6721 18.079C17.5027 18.1606 17.4893 18.3103 17.4337 18.4448V18.4457Z" fill="#CC2345" fill-opacity="0.5"/>
<path d="M46.1858 5.82214C46.2198 6.559 46.34 6.67285 46.798 7.06459C46.8984 7.39806 47.2131 7.38731 47.4497 7.50205C47.6783 7.28601 47.8944 7.55584 48.1337 7.47605C49.2516 7.2385 49.9759 5.71636 49.2166 4.79034C48.5954 3.99969 47.4704 3.96563 46.7093 4.51783C46.5506 4.6245 46.5928 4.93646 46.322 4.97321C46.1652 5.24573 46.1105 5.51466 46.1858 5.82303V5.82214Z" fill="#CC2345" fill-opacity="0.5"/>
<path d="M183.681 21.0346C183.418 21.4299 183.891 21.7715 183.926 22.1399C183.936 22.528 184.4 22.3999 184.486 22.6867C184.587 22.8328 184.849 22.9691 185.029 22.8481C185.072 22.823 185.151 22.8194 185.196 22.8409C185.547 23.0372 185.887 22.7082 186.213 22.5863C186.359 22.4985 186.415 22.2923 186.608 22.2555C186.714 21.966 186.82 21.6764 186.927 21.3878C186.782 21.2372 186.886 21.0453 186.842 20.8759C186.806 20.7388 186.806 20.5926 186.789 20.4501C186.608 20.4232 186.592 20.2036 186.487 20.1534C186.327 20.0754 186.299 19.9248 186.193 19.8343C186.105 19.759 185.967 19.741 185.852 19.698C185.624 19.6496 185.424 19.4264 185.163 19.5913C184.694 19.5761 184.079 19.8145 183.936 20.2986C183.533 20.4403 183.608 20.7011 183.681 21.0355V21.0346Z" fill="#CC2345" fill-opacity="0.5"/>
<path d="M53.3368 2.62908C53.5054 2.99124 53.6703 3.35519 53.8469 3.71286C53.9419 3.77561 54.1553 3.81506 54.2153 3.93787C54.296 4.09385 54.391 4.19066 54.5658 4.09474C54.997 4.06158 55.4273 4.19694 55.8459 3.95311C56.3757 3.65549 56.7962 3.01902 56.6034 2.39959C56.7029 2.15845 56.5102 1.9953 56.4313 1.80884C56.2825 1.28981 55.3807 0.665891 54.8814 0.893585C54.8115 0.936614 54.6636 0.839799 54.5452 0.913307C54.4412 0.97785 54.3157 1.00743 54.2135 1.07377C54.1445 1.11859 54.1087 1.24319 54.0414 1.25664C53.6999 1.32656 53.7833 1.81332 53.4319 1.86532C53.3207 2.09122 53.5538 2.39511 53.3359 2.62908H53.3368Z" fill="#CC2345" fill-opacity="0.5"/>
<path d="M10.2344 22.3909C10.3034 22.6984 10.5652 23.429 10.9058 23.5374C11.025 23.567 11.1389 23.6217 11.4383 23.7329C11.6803 23.9193 12.3024 23.8969 12.6386 23.7418C12.8663 23.6378 12.9694 23.3958 13.2051 23.3223C13.3773 22.883 13.6265 22.5236 13.4893 22.0368C13.5108 21.8799 13.3378 21.7069 13.3002 21.5294C13.2446 21.2695 13.0079 21.1592 12.8887 20.9575C12.7802 20.7728 12.575 20.78 12.41 20.7191C12.0479 20.4761 11.6077 20.6204 11.2034 20.7379C11.0017 20.8356 10.9166 21.031 10.731 21.135C10.5024 21.4505 10.2729 22.0072 10.2353 22.3909H10.2344Z" fill="#CC2345" fill-opacity="0.5"/>
<path d="M60.6337 -0.93071C60.6498 -0.397333 60.718 -0.045933 61.1142 0.328776C61.2236 0.571709 61.4611 0.55199 61.6404 0.650597C62.1854 0.889048 62.1048 0.867532 62.6785 0.808367C62.899 0.826296 63.0057 0.577984 63.1706 0.460551C63.5668 0.0580533 63.8887 -0.246732 63.8026 -0.798037C63.7174 -1.88989 62.9232 -2.54608 61.8233 -2.28612C61.5741 -2.34438 61.3903 -2.27536 61.2702 -2.09787C61.1554 -1.92754 60.917 -1.88631 60.8766 -1.63172C60.839 -1.39148 60.7045 -1.16737 60.6328 -0.93071H60.6337Z" fill="#CC2345" fill-opacity="0.5"/>
<path d="M3.16025 25.6727C3.03475 26.1783 3.6264 26.9636 4.13289 26.9627C4.34893 27.0434 4.55242 27.1823 4.74963 27.1742C5.33321 26.9779 6.20275 26.6471 6.27984 25.9372C6.27267 25.731 6.23861 25.5427 6.30136 25.3303C6.33542 25.2164 6.18213 25.0578 6.14986 24.9116C6.07635 24.5809 5.79936 24.4616 5.57345 24.2698C5.20502 23.9569 5.22116 23.9399 4.72095 24.0143C4.48608 23.8852 4.31576 24.0699 4.12751 24.1461C3.90071 24.2375 3.62999 24.3066 3.4776 24.4751C3.32341 24.6454 3.28486 24.9233 3.20597 25.1573C3.1504 25.3231 3.01055 25.4872 3.16205 25.6727H3.16025Z" fill="#CC2345" fill-opacity="0.5"/>
<path d="M149 2.02937C148.849 2.8254 149.255 3.51655 150.087 3.77114C150.633 4.20142 151.505 3.54165 151.942 3.15618C152.293 2.90966 151.987 2.45338 152.136 2.13784C152.173 1.90028 151.946 1.68872 151.9 1.46103C151.838 1.25575 151.697 1.17327 151.512 1.1168C151.26 0.85773 151.027 0.54129 150.612 0.74478C150.213 0.656929 149.936 0.964405 149.596 1.06391C149.161 1.18224 149.177 1.69231 149 2.03116V2.02937Z" fill="#CC2345" fill-opacity="0.5"/>
<path d="M159.469 6.54822C159.49 6.78577 159.577 7.08159 159.861 7.22681C160.108 7.632 160.616 7.67324 161.03 7.85342C161.34 7.72254 161.649 7.57194 161.957 7.44465C162.165 7.41955 162.162 7.16855 162.355 7.10221C162.54 7.03767 162.542 6.79742 162.587 6.62979C162.638 6.43975 162.501 6.24163 162.605 6.0238C162.656 5.87679 162.445 5.60875 162.406 5.43843C162.394 5.08255 161.979 5.12468 161.867 4.88533C161.342 4.265 160.463 4.793 159.891 5.05745C159.665 5.20536 159.653 5.55228 159.532 5.7728C159.327 6.01484 159.447 6.30618 159.469 6.54732V6.54822Z" fill="#CC2345" fill-opacity="0.5"/>
<path d="M170.247 11.0861C170.652 11.6481 171.238 11.693 171.743 11.6365C172.127 11.4832 172.642 11.4151 172.73 10.9373C173.257 10.697 172.836 10.5778 172.994 10.2103L172.959 9.52539C172.892 9.25467 172.601 9.15695 172.459 8.93195L171.475 8.56531C171.131 8.49091 170.789 8.80107 170.488 8.94629C169.902 9.35955 169.753 10.5177 170.246 11.087L170.247 11.0861Z" fill="#CC2345" fill-opacity="0.5"/>
<path d="M138.478 -1.56897C138.568 -0.990773 138.62 -0.832104 139.031 -0.411678C139.084 -0.30321 139.279 -0.263766 139.369 -0.215359C139.643 -0.157091 139.845 0.0706012 140.105 -0.1051C140.581 -0.0710351 141.174 -0.344447 141.337 -0.811489C141.517 -0.884996 141.678 -1.00512 141.544 -1.2113C141.503 -1.63979 141.759 -2.28074 141.221 -2.55774C141.183 -2.73075 141.038 -2.77288 140.902 -2.84729C140.578 -3.17628 140.646 -3.1709 140.175 -3.11621C140.03 -3.13773 139.899 -3.2462 139.743 -3.13414C139.406 -2.99071 139.095 -2.83473 138.839 -2.56939C138.656 -2.43134 138.647 -2.19648 138.573 -2.00195C138.522 -1.86838 138.421 -1.74647 138.478 -1.56987V-1.56897Z" fill="#CC2345" fill-opacity="0.5"/>
<path d="M180.579 13.8694C180.532 14.0361 180.409 14.202 180.537 14.3875C180.724 14.6645 180.73 15.0895 181.121 15.1513C181.347 15.3754 181.466 15.578 181.765 15.4893C182.276 15.405 182.873 15.4713 183.145 14.946C183.258 14.6161 183.568 14.3122 183.367 13.9124C183.471 13.1989 182.777 12.7175 182.187 12.5534C181.985 12.3688 181.775 12.7085 181.581 12.5319C181.174 12.7964 180.255 13.2894 180.579 13.8694Z" fill="#CC2345" fill-opacity="0.5"/>
<path d="M28.75 5.21708C28.75 5.41429 28.9123 5.61241 29.0019 5.81052C29.1041 6.11799 29.2592 6.37258 29.5962 6.41561C30.5393 6.89879 31.7988 6.13413 31.5442 5.06379C31.5711 4.9607 31.4124 4.86389 31.4796 4.72315C31.5881 4.49545 31.3039 4.52772 31.2582 4.40222C31.2134 4.28031 31.1515 4.18529 31.0135 4.1566C30.7446 3.57213 29.8741 3.7308 29.4394 4.01496C29.0279 4.23818 28.8136 4.77335 28.75 5.21618V5.21708Z" fill="#CC2345" fill-opacity="0.5"/>
<path d="M35.9692 2.02398C36.1601 2.35655 36.2112 2.82449 36.5536 3.03605C37.1596 3.33456 37.9924 3.38745 38.4209 2.78774C38.7006 2.70437 38.6854 2.39151 38.7867 2.19251C38.6343 2.01322 38.7741 1.78284 38.6746 1.58741C38.6271 1.49508 38.7006 1.29069 38.6477 1.25932C38.4379 1.13651 38.3357 0.916882 38.1538 0.775246C37.7701 0.209597 36.9042 0.563689 36.447 0.915987C36.0812 1.16071 36.1144 1.54976 35.9369 1.85634C35.9154 1.89399 35.9468 1.97198 35.9692 2.02398Z" fill="#CC2345" fill-opacity="0.5"/>
<path d="M21.5508 8.48542C21.558 8.68533 21.7121 8.88075 21.8027 9.07796C21.9291 9.35317 22.0017 9.68037 22.3414 9.68395C23.0415 9.9224 23.7793 9.93854 24.0635 9.21333C24.4454 9.13354 24.2329 8.86013 24.2732 8.65126C24.3978 8.32407 24.223 8.07665 24.1191 7.79338C24.128 7.40881 23.6565 7.52086 23.5678 7.24207C23.5516 7.19187 23.5005 7.14526 23.4539 7.11568C23.3239 7.0332 23.1895 7.21159 23.1204 7.17215C22.6202 6.88171 21.9273 7.41688 21.7543 7.87495C21.7095 8.08472 21.5445 8.28552 21.5517 8.48542H21.5508Z" fill="#CC2345" fill-opacity="0.5"/>
<path d="M43.3202 -0.894787C43.495 -0.695779 43.4618 -0.302244 43.7684 -0.238598C44.2641 0.00971389 44.7948 0.0052309 45.3183 -0.217084C45.6043 -0.316588 45.5209 -0.745082 45.8571 -0.776457C45.9691 -0.930643 45.7854 -1.07676 45.8275 -1.20137C46.0149 -1.5949 45.7307 -1.95885 45.5702 -2.31115C45.46 -2.48147 45.1444 -2.41424 45.1005 -2.69572C45.0942 -2.73337 44.9517 -2.76923 44.871 -2.77102C44.7868 -2.77281 44.6783 -2.69034 44.62 -2.71992C44.1162 -2.95837 43.8168 -2.45547 43.4448 -2.26812C43.2727 -1.82349 42.9553 -1.39499 43.3211 -0.895681L43.3202 -0.894787Z" fill="#CC2345" fill-opacity="0.5"/>
<path d="M157.277 0.283139C157.475 0.350371 157.669 0.484837 157.88 0.317204C158.077 0.438222 158.227 0.289414 158.392 0.227561C158.422 -0.0117867 158.746 0.00703764 158.788 -0.226931C158.81 -0.352432 158.88 -0.435802 159.006 -0.494966C159.218 -0.59447 158.903 -0.730727 159.017 -0.872363C159.111 -0.988003 159.137 -1.1395 159.042 -1.29996C158.602 -2.43395 158.512 -1.76073 158.3 -2.27259C158.298 -2.28962 158.253 -2.31741 158.251 -2.31652C158.01 -2.07806 157.717 -2.4967 157.478 -2.25556C157.067 -2.42319 156.887 -2.04758 156.659 -1.86292C156.074 -1.22287 156.483 0.0106227 157.277 0.282242V0.283139Z" fill="#CC2345" fill-opacity="0.5"/>
<path d="M167.424 4.06061C167.807 4.23542 168.115 4.36809 168.542 4.2641C168.739 4.28293 168.873 4.04179 169.037 3.93511C169.222 3.81499 169.261 3.65991 169.327 3.49765C169.634 2.99386 169.609 2.61825 169.296 2.1279C169.222 1.86256 168.916 1.86435 168.704 1.75768C168.428 1.59453 168.144 1.6017 167.847 1.6268C167.7 1.59184 167.572 1.64742 167.514 1.72003C167.028 2.05619 166.843 2.47124 166.895 3.06647C166.888 3.51648 167.256 3.72803 167.425 4.06061H167.424Z" fill="#CC2345" fill-opacity="0.5"/>
<path d="M14.4695 11.7709C14.578 12.3383 14.5681 12.4208 14.9876 12.8412C15.0898 13.0447 15.3561 13.0241 15.5425 13.1182C15.6017 13.1478 16.2355 13.0868 16.3099 13.0537C16.5725 12.8744 16.9338 12.48 16.9858 12.1626C17.269 11.7108 17.0709 11.1981 16.7796 10.8126C16.3036 10.5078 15.2001 10.1905 14.8415 10.8251C14.6031 10.8682 14.6058 11.0878 14.5466 11.2501C14.4874 11.4123 14.3852 11.5557 14.4695 11.77V11.7709Z" fill="#CC2345" fill-opacity="0.5"/>
<path d="M7.34537 14.5355C7.30861 14.7399 7.16787 14.9291 7.33102 15.1352C7.22166 15.2921 7.30861 15.4284 7.38302 15.5593C7.46818 15.7099 7.46638 15.9322 7.70035 15.9689C7.76489 16.2074 7.98721 16.2405 8.16022 16.3544C8.38433 16.5014 8.57258 16.1751 8.76531 16.3643C9.04231 16.1993 9.43315 16.1509 9.63216 15.8909C9.84282 15.4786 9.89213 15.0617 9.84103 14.6037C9.64651 14.0927 9.16243 13.8686 8.66312 13.7431C8.33771 13.7001 8.04279 13.9815 7.73801 14.0784C7.73173 14.3329 7.39019 14.2872 7.34537 14.5355Z" fill="#CC2345" fill-opacity="0.5"/>
<path d="M177.438 6.8118C177.388 6.99019 177.612 7.14796 177.465 7.32456C177.634 7.51101 177.817 7.70912 178 7.87317C178.083 8.09638 178.212 8.14389 178.422 8.03274C178.579 7.95026 178.718 8.15465 178.847 8.11342C179.109 8.03005 179.355 7.89558 179.604 7.77456C179.963 7.32814 180.076 6.67106 179.805 6.10899C179.576 6.10451 179.607 5.82213 179.433 5.75849C179.201 5.67333 178.974 5.57741 178.74 5.50659C178.471 5.46446 178.231 5.69395 177.982 5.76028C177.809 5.81676 177.769 5.95122 177.706 6.09106C177.338 6.46488 177.377 6.28828 177.438 6.81269V6.8118Z" fill="#CC2345" fill-opacity="0.5"/>
<path d="M0.220968 18.2045C0.0578176 18.4806 0.316885 18.7119 0.387703 18.971C0.517686 19.43 1.07079 19.421 1.43653 19.603C1.90716 19.6926 2.63327 19.1126 2.64044 18.625C2.63864 17.9266 2.25766 17.0643 1.41502 17.1037C0.627053 17.1441 0.43163 17.4856 0.220968 18.2027V18.2045Z" fill="#CC2345" fill-opacity="0.5"/>
<path d="M174.648 0.206907C174.697 0.47763 174.94 0.488387 175.14 0.574445C175.6 0.865785 176.035 0.357507 176.359 0.0858883C176.497 -0.0369229 176.274 -0.200073 176.33 -0.333641C176.499 -0.727175 176.401 -0.979968 175.985 -1.10637C175.845 -1.18435 175.817 -1.49811 175.602 -1.40667C175.324 -1.30179 174.999 -1.36544 174.752 -1.16732C174.562 -1.01493 174.381 -0.672492 174.401 -0.46183C174.459 -0.238619 174.255 0.107402 174.648 0.20601V0.206907Z" fill="#CC2345" fill-opacity="0.5"/>
<path d="M18.7693 1.49422C18.9351 1.74791 18.9576 2.10021 19.291 2.18447C19.499 2.32521 19.6926 2.17461 19.8916 2.19971C20.3587 2.24543 20.3847 1.94154 20.5451 1.5238C20.5514 1.50049 20.6751 1.30417 20.6312 1.15806C20.5487 0.88554 20.477 0.56193 20.1059 0.48394C19.8414 0.431947 19.6111 0.209632 19.335 0.355751C19.1225 0.40864 19.0911 0.699084 18.8554 0.722391C18.789 0.974289 18.5694 1.20377 18.7702 1.49422H18.7693Z" fill="#CC2345" fill-opacity="0.5"/>
<path d="M185.343 4.28299C185.64 4.67921 185.958 4.41208 186.304 4.27761C186.634 4.19783 186.887 3.60349 186.784 3.30677C186.69 3.15169 186.649 2.91414 186.516 2.84421C186.075 2.54929 185.705 2.58873 185.238 2.87738C184.959 3.01095 184.921 3.09073 184.964 3.45289C185.002 3.77441 185.129 4.05111 185.343 4.28299Z" fill="#CC2345" fill-opacity="0.5"/>
<path d="M11.6144 4.67108C11.5893 5.09688 11.9191 5.27528 12.1791 5.49132C12.3934 5.66971 12.578 5.45277 12.7717 5.38912C13.0451 5.29231 13.2925 5.17487 13.3373 4.86112C13.3732 4.7159 13.4771 4.54737 13.435 4.43263C13.3633 3.85443 12.6488 3.45372 12.1146 3.80333C11.6341 3.99696 11.4584 4.13591 11.6135 4.67108H11.6144Z" fill="#CC2345" fill-opacity="0.5"/>
<path d="M5.07216 8.619C5.44149 8.85387 5.92826 8.62438 6.12637 8.24967C6.24559 7.97984 6.08513 7.72974 6.14968 7.47605C5.90674 7.37117 5.83951 7.06728 5.54727 6.98929C4.54327 6.72215 4.07623 8.37696 5.07216 8.6181V8.619Z" fill="#CC2345" fill-opacity="0.5"/>
</g>
</svg>
