<svg width="106" height="28" viewBox="0 0 106 28" fill="none" xmlns="http://www.w3.org/2000/svg">
<path d="M5.84961 1.47757C7.7814 1.47757 9.34096 2.03632 10.3721 3.2803L10.5557 3.51273C11.4389 4.70946 11.8213 6.43494 11.8213 8.56351C11.8213 10.0105 11.5707 11.2515 11.0127 12.2364C10.7202 12.7526 10.3488 13.185 9.90625 13.5342C10.5041 13.8892 10.9982 14.3664 11.373 14.9717L11.4932 15.17C12.0727 16.1831 12.3281 17.504 12.3281 19.0664C12.3281 21.4262 11.893 23.313 10.8975 24.5967C9.87329 25.9173 8.32116 26.5234 6.39062 26.5235H1.29688V1.47757H5.84961ZM18.7451 1.47757C20.6769 1.47765 22.2365 2.03618 23.2676 3.2803L23.4502 3.51273C24.3335 4.70947 24.7168 6.43485 24.7168 8.56351C24.7168 10.0106 24.4653 11.2514 23.9072 12.2364C23.6148 12.7524 23.2442 13.185 22.8018 13.5342C23.3994 13.8892 23.8929 14.3666 24.2676 14.9717L24.3877 15.17C24.9672 16.1831 25.2227 17.5039 25.2227 19.0664C25.2226 21.4262 24.7875 23.313 23.792 24.5967C22.7678 25.9173 21.2158 26.5234 19.2852 26.5235H14.1914V1.47757H18.7451ZM5.40527 22.9893H6.32227C7.06848 22.9893 7.49853 22.7466 7.7666 22.3516C8.07788 21.8695 8.28707 21.0264 8.28711 19.708V18.7959C8.28711 17.4402 8.06836 16.5436 7.72852 16.0059C7.42306 15.5226 6.99009 15.2784 6.32227 15.2784H5.40527V22.9893ZM18.2998 22.9893H19.2178C19.9638 22.9892 20.3931 22.7466 20.6611 22.3516C20.9725 21.8695 21.1816 21.0265 21.1816 19.708V18.7959C21.1816 17.4405 20.9638 16.5437 20.624 16.0059C20.3186 15.5226 19.8854 15.2784 19.2178 15.2784H18.2998V22.9893ZM5.40527 12.0811H6.01855C6.67635 12.0811 7.09222 11.8486 7.38086 11.4102C7.70335 10.9202 7.91504 10.0953 7.91504 8.83304V8.02347C7.91504 6.78787 7.70356 6.03764 7.40918 5.6348L7.40039 5.62308L7.3916 5.61038C7.14798 5.24505 6.74611 5.01175 6.01855 5.01175H5.40527V12.0811ZM18.2998 12.0811H18.9131C19.571 12.0811 19.9877 11.8488 20.2764 11.4102C20.5988 10.9202 20.8105 10.0952 20.8105 8.83304V8.02347C20.8105 6.78787 20.5981 6.03764 20.3037 5.6348L20.2949 5.62308L20.2871 5.61038C20.0435 5.24497 19.6407 5.01175 18.9131 5.01175H18.2998V12.0811Z" stroke="#9C46FF" stroke-width="1.40711"/>
<path d="M39.1251 26.3262C37.3015 26.3262 35.9731 25.7183 35.1401 24.5026C34.3071 23.2643 33.8906 21.2944 33.8906 18.5927V9.40713C33.8906 6.70548 34.3071 4.74679 35.1401 3.53105C35.9731 2.29279 37.3015 1.67366 39.1251 1.67366C40.5885 1.67366 41.6916 2.11268 42.4346 2.99072C43.2001 3.84624 43.6616 5.20832 43.8192 7.07696L41.3539 7.68483C41.2414 6.31149 41.005 5.33215 40.6447 4.74679C40.2845 4.16143 39.7555 3.86875 39.0575 3.86875C38.1795 3.86875 37.5379 4.26274 37.1326 5.05073C36.7499 5.83871 36.5585 7.09947 36.5585 8.83303V19.3019C36.5585 20.9904 36.7499 22.2174 37.1326 22.9829C37.5379 23.7484 38.1795 24.1311 39.0575 24.1311C39.8455 24.1311 40.4309 23.8159 40.8136 23.1855C41.2188 22.5326 41.4778 21.4182 41.5903 19.8422L43.9543 20.1462C43.7516 22.285 43.2563 23.8497 42.4684 24.8403C41.7029 25.8309 40.5885 26.3262 39.1251 26.3262Z" fill="#00C9FF"/>
<path d="M54.9305 25.8196L53.8836 19.6734H49.122L48.1088 25.8196H45.4072L49.7298 2.18022H53.3095L57.6322 25.8196H54.9305ZM51.5197 5.59105L49.4934 17.5121H53.5121L51.5197 5.59105Z" fill="#00C9FF"/>
<path d="M64.8778 26.3262C63.2343 26.3262 61.9848 25.7634 61.1293 24.6377C60.2737 23.4895 59.7559 21.6884 59.5758 19.2344L62.1086 18.7954C62.1987 20.619 62.4688 21.9585 62.9191 22.8141C63.3694 23.6696 64.0223 24.0973 64.8778 24.0973C66.6564 24.0973 67.5457 22.9041 67.5457 20.5177C67.5457 19.5946 67.3993 18.7954 67.1067 18.1199C66.8365 17.4445 66.375 16.8592 65.7221 16.3639L63.0204 14.3714C62.0073 13.6285 61.2418 12.7392 60.724 11.7035C60.2287 10.6679 59.9811 9.42965 59.9811 7.98877C59.9811 5.82745 60.3863 4.24023 61.1968 3.22711C62.0298 2.19148 63.3131 1.67366 65.0466 1.67366C66.6451 1.67366 67.8383 2.14645 68.6263 3.09203C69.4368 4.03761 69.9321 5.56854 70.1122 7.68483L67.5457 8.25893C67.4556 5.37717 66.6114 3.9363 65.0129 3.9363C63.4369 3.9363 62.6489 5.16329 62.6489 7.61729C62.6489 8.76549 62.7728 9.6773 63.0204 10.3527C63.2681 11.0056 63.7183 11.5797 64.3712 12.075L67.0391 14.0675C68.1648 14.878 68.964 15.7785 69.4368 16.7691C69.9321 17.7597 70.1798 18.9867 70.1798 20.4501C70.1798 24.3675 68.4124 26.3262 64.8778 26.3262Z" fill="#00C9FF"/>
<path d="M73.7405 25.8196V2.18022H76.4421V25.8196H73.7405Z" fill="#00C9FF"/>
<path d="M88.8378 25.8196L83.3332 8.56287V25.8196H80.6991V2.18022H83.502L89.0066 19.4708V2.18022H91.6407V25.8196H88.8378Z" fill="#00C9FF"/>
<path d="M100.732 26.3262C98.8855 26.3262 97.5347 25.7296 96.6791 24.5364C95.8461 23.3206 95.4296 21.3957 95.4296 18.7616V9.23828C95.4296 6.60417 95.8461 4.6905 96.6791 3.49728C97.5347 2.28154 98.8855 1.67366 100.732 1.67366C102.555 1.67366 103.884 2.28154 104.717 3.49728C105.572 4.71302 106 6.62669 106 9.23828V18.7616C106 21.3732 105.572 23.2868 104.717 24.5026C103.884 25.7183 102.555 26.3262 100.732 26.3262ZM100.732 24.1311C102.465 24.1311 103.332 22.5101 103.332 19.2681V8.73172C103.332 5.48974 102.465 3.86875 100.732 3.86875C99.8311 3.86875 99.1669 4.26274 98.7392 5.05073C98.3114 5.83871 98.0975 7.0657 98.0975 8.73172V19.2681C98.0975 20.9342 98.3114 22.1612 98.7392 22.9491C99.1669 23.7371 99.8311 24.1311 100.732 24.1311Z" fill="#00C9FF"/>
</svg>
