<svg width="140" height="24" viewBox="0 0 140 24" fill="none" xmlns="http://www.w3.org/2000/svg">
<path d="M10.6289 0.34747C12.6276 0.327782 14.6262 0.321513 16.6249 0.328663L27.3344 23.6128L12.5577 23.6237C11.8585 22.214 11.1054 20.8032 10.5044 19.3493C10.7323 18.9266 10.9045 18.4824 11.0835 18.0375C13.1436 18.0152 15.1983 18.004 17.2474 18.004L16.6495 16.6185C15.6526 14.3275 14.702 11.9948 13.5867 9.75926C11.6409 14.4037 9.38597 18.9238 7.47602 23.5799C4.98404 23.6005 2.49203 23.6025 0 23.5858C1.32376 20.4637 2.83001 17.4107 4.24747 14.3297L10.6289 0.34747Z" fill="#CC2345"/>
<path d="M32.9677 0.294067L28.7703 0.316759L26.001 0.354211L25.9473 17.9307C26.8197 19.2714 27.56 20.7632 28.2858 22.2263C28.5151 22.6885 28.7431 23.1478 28.9734 23.5986L38.4827 23.593L41.0046 23.5865L41.0103 18.0367L32.9449 18.0187C32.9508 16.3582 32.9627 14.6966 32.9745 13.0344C33.0049 8.7869 33.0351 4.53607 32.9677 0.294067Z" fill="white"/>
<path d="M67.2771 0.311788L74.2188 0.311636C73.2621 0.881581 72.3131 1.48027 71.5747 2.32705C70.2946 3.79503 69.2958 6.10761 69.7311 7.81248L69.5193 8.19943L69.5165 8.20421C68.3549 10.326 67.4386 12.0003 66.1192 14.1044L66.0562 14.2033C65.8337 14.551 65.6169 14.8901 65.5293 15.3027C65.3647 16.0781 65.3871 16.9428 65.4087 17.774C65.4131 17.9433 65.4175 18.1112 65.4202 18.2767C65.4217 18.3759 65.4228 18.4742 65.4229 18.5715C65.4311 20.2512 65.4287 21.9309 65.416 23.6105C63.906 23.5809 62.3931 23.5861 60.8811 23.5913C60.2021 23.5936 59.5233 23.596 58.845 23.5952C58.8344 21.7847 58.8327 19.9743 58.8403 18.164C58.8406 17.9109 58.8497 17.6429 58.8589 17.3683V17.3653C58.8849 16.5967 58.9127 15.7767 58.7545 15.0889C58.6105 14.4626 57.6095 12.9617 56.9179 11.925C56.7099 11.6131 56.5298 11.3432 56.4096 11.1518L49.526 0.331842L56.3923 0.318789L57.7435 0.314122C58.466 1.64057 59.231 2.94211 59.9961 4.24372C60.8254 5.65458 61.6548 7.06552 62.4301 8.50832C63.2837 7.10418 64.1135 5.68348 64.9435 4.26243L64.9544 4.24376L64.9658 4.22407C65.7299 2.91591 66.4941 1.60758 67.2771 0.311788Z" fill="white"/>
<path d="M41.9185 0.345522L49.072 0.331539C49.1157 3.96683 49.1057 7.60486 49.0957 11.2425C49.0894 13.4964 49.0832 15.7501 49.0897 18.003C51.7992 18.0193 54.5088 18.0166 57.2183 17.9949C57.2563 19.38 57.2497 20.7681 57.2432 22.1551L57.2418 22.4682C57.24 22.8425 57.2385 23.2166 57.2382 23.5905L41.8986 23.5961C41.9757 19.0151 41.9537 14.4305 41.9317 9.8464V9.82569C41.9165 6.66502 41.9013 3.50454 41.9185 0.345522Z" fill="white"/>
<path fill-rule="evenodd" clip-rule="evenodd" d="M88.4128 2.71654C85.754 0.829666 82.6698 -0.192572 79.3782 0.0798972C76.5288 0.29966 73.9087 1.03918 71.9879 3.27747C70.8032 4.6578 70.257 6.36482 70.4 8.17895C70.4082 8.27647 70.4189 8.37371 70.432 8.4707C70.445 8.56769 70.4604 8.6643 70.4781 8.76056C70.4959 8.85683 70.5161 8.95257 70.5384 9.04779C70.5501 9.09764 70.5624 9.14734 70.5754 9.19688C70.5873 9.24196 70.5996 9.28693 70.6123 9.33176C70.6267 9.38185 70.6416 9.43175 70.6572 9.48142C70.671 9.52506 70.6853 9.56852 70.7 9.61184C70.7181 9.66513 70.7369 9.71818 70.7565 9.77096C70.7711 9.80991 70.7859 9.84873 70.8013 9.8874C70.8207 9.93688 70.8409 9.98612 70.8618 10.0351L70.8793 10.0756L70.8983 10.1189L70.9156 10.1577C70.9559 10.2468 70.9984 10.3349 71.0431 10.4221C71.0875 10.5092 71.1343 10.5952 71.1832 10.6799C71.2319 10.7648 71.2827 10.8484 71.3355 10.9308C71.3884 11.0132 71.443 11.0942 71.4998 11.174C71.5567 11.2537 71.6153 11.332 71.6758 11.4089C71.7364 11.4857 71.7988 11.5611 71.863 11.635C71.9272 11.7088 71.9931 11.781 72.0608 11.8517C72.1285 11.9223 72.198 11.9913 72.269 12.0585C72.3083 12.0958 72.3481 12.1325 72.3885 12.1687C72.4209 12.1979 72.4539 12.2267 72.487 12.2552C73.6238 13.2227 75.0929 13.7521 76.5274 14.0906C77.3047 14.274 78.0858 14.3997 78.8755 14.5133C79.0208 14.5342 79.1923 14.555 79.3823 14.578C80.862 14.7572 83.4651 15.0724 83.539 16.6486C83.5579 17.0493 83.339 17.4237 83.0649 17.6997C82.2428 18.5274 80.9596 18.718 79.8431 18.6966C77.2563 18.6469 75.1113 17.6989 73.1275 16.0897C72.9133 16.3811 72.6998 16.6731 72.4862 16.9652C71.6086 18.1657 70.7302 19.367 69.8066 20.5319C73.7389 23.3058 77.7865 24.45 82.598 23.6329C85.1807 23.1943 87.2492 22.1238 88.9645 20.1405L88.9756 23.6104L95.7196 23.5967L95.7176 16.6796L99.0986 16.6807C101.818 16.6815 104.817 15.9879 106.795 13.9905C108.333 12.4375 108.965 10.2802 108.946 8.13015C108.928 6.10573 108.288 3.91019 106.807 2.46334C105.768 1.44919 104.433 0.883132 103.03 0.582848C101.475 0.250216 99.7865 0.282793 98.1545 0.314288C97.6864 0.323319 97.223 0.332255 96.7687 0.332464L88.9732 0.350792C88.9689 1.67254 88.9754 2.99711 88.982 4.32253C88.9952 7.01161 89.0084 9.7042 88.9317 12.3837C87.8025 11.1827 86.5273 10.2641 84.9485 9.74021C84.0461 9.44086 83.0415 9.27938 82.0998 9.16125C81.9024 9.13645 81.6343 9.11632 81.3229 9.09293C79.6513 8.96739 76.7272 8.7478 76.7235 7.20631C76.7226 6.74299 76.8749 6.25495 77.2102 5.9256C77.8628 5.28417 79.2011 5.25137 80.0678 5.28929C82.0601 5.37649 84.0621 6.24095 85.7432 7.26537C86.5011 5.72028 87.4637 4.15638 88.4128 2.71654ZM96.7335 5.82947C96.4366 5.84201 96.1546 5.85392 95.8963 5.85785L95.9242 11.161C96.2322 11.1627 96.5547 11.1741 96.8853 11.1858C98.4148 11.2399 100.117 11.3001 101.339 10.4365C101.917 9.82462 102.133 9.29569 102.102 8.44894C102.077 7.78682 101.884 7.15114 101.39 6.68751C100.314 5.67824 98.3142 5.7627 96.7335 5.82947Z" fill="#FFD500"/>
<path d="M122.507 0.153417C123.195 0.0513051 123.996 0.139111 124.661 0.337131C125.329 0.536384 125.978 0.877857 126.459 1.39075C127.233 2.21632 127.841 3.32162 128.416 4.36607L128.422 4.37717C128.59 4.6825 128.755 4.98258 128.921 5.26878C130.413 7.81589 131.855 10.3915 133.245 12.9955C133.277 10.4782 133.264 7.95796 133.251 5.43796C133.242 3.70959 133.234 1.98134 133.239 0.254277L139.937 0.231433L139.946 12.5648C139.947 13.1918 139.96 13.8283 139.973 14.4683C140.004 15.9826 140.036 17.5166 139.901 18.9908C139.837 19.6896 139.706 20.4456 139.377 21.0718C138.707 22.3457 137.577 23.0142 136.258 23.448C135.3 23.6388 134.337 23.6934 133.368 23.538C132.365 23.3771 131.332 22.9576 130.588 22.2509C129.964 21.6585 129.487 20.7632 129.041 19.9264C128.876 19.6164 128.715 19.3145 128.552 19.039C128.245 18.5184 127.941 17.9913 127.635 17.4623L127.633 17.4601C126.578 15.6342 125.508 13.7844 124.284 12.0955L124.23 12.0219C124.277 15.9232 124.285 19.8245 124.254 23.726L117.809 23.7522L117.831 10.434C117.833 9.96098 117.824 9.41729 117.814 8.84416C117.787 7.31051 117.758 5.56595 117.93 4.39979C118.067 3.4722 118.361 2.64613 118.946 1.90304C119.862 0.737193 121.099 0.329504 122.507 0.153417Z" fill="#FFD500"/>
<path d="M116.196 0.276513L116.153 0.242627L109.449 0.280402C109.404 2.39838 109.425 4.52135 109.445 6.64388C109.46 8.13093 109.475 9.61776 109.467 11.1025C109.46 12.3027 109.443 13.5075 109.426 14.714C109.383 17.7203 109.34 20.7379 109.461 23.7254L116.244 23.7324L116.241 6.62223C116.241 6.39734 116.248 5.98123 116.258 5.46475C116.29 3.69662 116.344 0.752124 116.196 0.276513Z" fill="#FFD500"/>
<mask id="mask0_257_943" style="mask-type:alpha" maskUnits="userSpaceOnUse" x="0" y="0" width="140" height="24">
<path fill-rule="evenodd" clip-rule="evenodd" d="M88.4124 2.69646C85.7536 0.798114 82.6694 -0.230341 79.3779 0.0437849C76.5284 0.264884 73.9084 1.00891 71.9875 3.2608C70.8029 4.64953 70.2566 6.36694 70.3996 8.1921C70.4078 8.29021 70.4186 8.38804 70.4316 8.48562C70.4447 8.5832 70.46 8.68039 70.4778 8.77725C70.4955 8.8741 70.5157 8.97042 70.538 9.06622C70.5497 9.11637 70.562 9.16638 70.5751 9.21622C70.5869 9.26157 70.5992 9.30681 70.6119 9.35192C70.6264 9.40231 70.6412 9.45251 70.6569 9.50249C70.6707 9.54639 70.685 9.59012 70.6997 9.6337C70.7177 9.68732 70.7366 9.74069 70.7561 9.79379C70.7707 9.83298 70.7856 9.87203 70.8009 9.91094C70.8203 9.96072 70.8405 10.0103 70.8615 10.0595L70.8789 10.1002L70.8979 10.1438L70.9152 10.1829C70.9556 10.2725 70.9981 10.3612 71.0427 10.4488C71.0872 10.5365 71.1339 10.623 71.1828 10.7083C71.2315 10.7937 71.2824 10.8778 71.3352 10.9607C71.388 11.0435 71.4427 11.1251 71.4994 11.2054C71.5563 11.2855 71.6149 11.3643 71.6755 11.4416C71.736 11.519 71.7984 11.5948 71.8626 11.6692C71.9268 11.7434 71.9927 11.8161 72.0604 11.8871C72.1281 11.9582 72.1976 12.0276 72.2687 12.0953C72.308 12.1328 72.3477 12.1697 72.3881 12.2061C72.4206 12.2354 72.4535 12.2644 72.4866 12.2931C73.6235 13.2665 75.0926 13.7991 76.5271 14.1397C77.3044 14.3242 78.0854 14.4507 78.8752 14.565C79.0204 14.586 79.1919 14.6069 79.382 14.6301C80.8617 14.8104 83.4648 15.1275 83.5387 16.7132C83.5575 17.1163 83.3386 17.493 83.0645 17.7707C82.2425 18.6034 80.9593 18.7953 79.8428 18.7737C77.2559 18.7237 75.1109 17.77 73.1271 16.1509C72.913 16.4441 72.6994 16.7379 72.4859 17.0318C71.6083 18.2396 70.7299 19.4482 69.8063 20.6201C73.7385 23.4109 77.7861 24.5621 82.5976 23.7401C85.1804 23.2988 87.2489 22.2217 88.9642 20.2264L88.9752 23.7174L95.7193 23.7036L95.7173 16.7445L99.0982 16.7456C101.817 16.7464 104.817 16.0485 106.795 14.039C108.332 12.4765 108.965 10.3061 108.946 8.143C108.928 6.10627 108.287 3.89738 106.806 2.44173C105.768 1.4214 104.433 0.851905 103.03 0.549795C101.475 0.21514 99.7861 0.247915 98.1542 0.279601C97.6861 0.288687 97.2227 0.297678 96.7684 0.297888L88.9728 0.316327C88.9686 1.64489 88.9751 2.97629 88.9816 4.30855L88.9816 4.31222C88.9948 7.01765 89.008 9.72662 88.9314 12.4224C87.8021 11.2141 86.527 10.29 84.9481 9.76285C84.0458 9.46167 83.0411 9.29921 82.0995 9.18037C81.902 9.15543 81.634 9.13518 81.3226 9.11164C79.651 8.98534 76.7268 8.76438 76.7232 7.21354C76.7223 6.7474 76.8745 6.2564 77.2098 5.92504C77.8625 5.27971 79.2007 5.24671 80.0674 5.28486C82.0597 5.37259 84.0617 6.24231 85.7429 7.27296C86.5007 5.71847 87.4633 4.14507 88.4124 2.69646ZM96.733 5.82833C96.4362 5.84094 96.1542 5.85293 95.8959 5.85688L95.9239 11.1923C96.2318 11.194 96.5544 11.2055 96.8849 11.2172C98.4145 11.2717 100.116 11.3322 101.339 10.4634C101.917 9.84777 102.132 9.31563 102.101 8.46372C102.077 7.79758 101.884 7.15803 101.389 6.69159C100.313 5.67617 98.3136 5.76116 96.733 5.82833Z" fill="#FFD500"/>
<path d="M122.507 0.117752C123.195 0.0150189 123.996 0.103359 124.66 0.302583C125.329 0.503048 125.977 0.846598 126.458 1.36261C127.232 2.1932 127.841 3.30522 128.415 4.35603L128.421 4.3672L128.43 4.38286L128.431 4.38447C128.596 4.6857 128.758 4.98168 128.92 5.26423C130.413 7.82682 131.854 10.4181 133.245 13.0379C133.276 10.5053 133.264 7.96976 133.251 5.43444V5.4336C133.242 3.695 133.233 1.95651 133.239 0.219225L139.936 0.196243L139.946 12.6046C139.946 13.2354 139.959 13.8758 139.973 14.5197C140.004 16.0432 140.035 17.5865 139.901 19.0697C139.837 19.7728 139.705 20.5334 139.376 21.1634C138.707 22.445 137.577 23.1176 136.258 23.554C135.299 23.746 134.336 23.8009 133.367 23.6445C132.365 23.4827 131.332 23.0606 130.587 22.3496C129.964 21.7536 129.487 20.8529 129.041 20.011C128.875 19.6992 128.715 19.3954 128.552 19.1182C128.245 18.5944 127.94 18.0642 127.634 17.5319L127.633 17.5297L127.632 17.5284L127.632 17.5273C126.576 15.691 125.507 13.8309 124.284 12.1325L124.23 12.0584C124.276 15.9834 124.284 19.9085 124.253 23.8337L117.809 23.86L117.831 10.4609C117.833 9.98687 117.823 9.44235 117.814 8.86829L117.814 8.86135C117.787 7.31837 117.757 5.56321 117.929 4.38995C118.066 3.45672 118.361 2.62562 118.945 1.87801C119.862 0.705078 121.099 0.29491 122.507 0.117752Z" fill="#FFD500"/>
<path d="M116.153 0.207505L116.196 0.241596C116.344 0.7201 116.29 3.6825 116.257 5.46139L116.257 5.46458L116.257 5.47362C116.248 5.98758 116.24 6.40143 116.24 6.62591L116.244 23.8401L109.46 23.8331C109.34 20.8303 109.383 17.7973 109.425 14.7756L109.426 14.758C109.443 13.5471 109.46 12.338 109.466 11.1334C109.475 9.64009 109.46 8.14466 109.445 6.64901V6.64813C109.424 4.51269 109.403 2.37637 109.449 0.245509L116.153 0.207505Z" fill="#FFD500"/>
<path d="M28.7705 0.282107L32.9679 0.259277C33.0353 4.52708 33.0051 8.80377 32.9748 13.0771L32.9748 13.0802C32.9629 14.7515 32.9511 16.4222 32.9452 18.0917L41.0106 18.1098L41.0048 23.6933L38.483 23.6999L28.9736 23.7055C28.7434 23.252 28.5154 22.7899 28.2861 22.3249C27.5602 20.8529 26.82 19.352 25.9475 18.0031L26.0013 0.319787L28.7705 0.282107Z" fill="#FFD500"/>
<path d="M74.219 0.276953L67.2774 0.277106C66.4943 1.58078 65.7301 2.89706 64.966 4.21318L64.9547 4.23299L64.9437 4.25177C64.1138 5.68146 63.284 7.11081 62.4304 8.52349C61.6551 7.07191 60.8257 5.65239 59.9964 4.23295C59.2312 2.92342 58.4663 1.61397 57.7438 0.279454L56.3926 0.284149L49.5262 0.297282L56.4099 11.183C56.5301 11.3756 56.7101 11.6471 56.9182 11.961C57.6097 13.0039 58.6107 14.514 58.7548 15.1441C58.9129 15.8357 58.8852 16.6602 58.8592 17.4332L58.8592 17.4344V17.4374L58.859 17.4441C58.8498 17.718 58.8409 17.9853 58.8405 18.2379C58.833 20.0592 58.8346 21.8806 58.8453 23.7021C59.5233 23.7029 60.2019 23.7006 60.8808 23.6982C62.3927 23.693 63.9063 23.6878 65.4162 23.7176C65.429 22.0277 65.4314 20.3378 65.4232 18.6479C65.4231 18.55 65.422 18.4511 65.4205 18.3512C65.4178 18.1887 65.4135 18.0239 65.4092 17.8577V17.8568L65.4089 17.8455C65.3874 17.0094 65.365 16.1391 65.5296 15.3592C65.6172 14.9441 65.8339 14.6029 66.0564 14.2531L66.1194 14.1536C67.4369 12.0399 68.3524 10.3574 69.5115 8.22721L69.5168 8.21753L69.5195 8.21272L69.7314 7.82341C69.2961 6.10818 70.2948 3.78153 71.575 2.30462C72.3134 1.45269 73.2623 0.850364 74.219 0.276953Z" fill="#FFD500"/>
<path d="M41.9187 0.311045L49.0723 0.296977C49.116 3.95406 49.106 7.61388 49.0959 11.2734V11.2752C49.0897 13.5425 49.0835 15.8096 49.09 18.0759C51.7995 18.0924 54.5091 18.0896 57.2186 18.0677C57.2565 19.4612 57.25 20.8579 57.2435 22.2533L57.2421 22.5683C57.2403 22.9448 57.2388 23.3212 57.2385 23.6974L41.8988 23.703C41.976 19.0942 41.9539 14.4817 41.9319 9.86971V9.84806C41.9168 6.66853 41.9016 3.48892 41.9187 0.311045Z" fill="#FFD500"/>
<path d="M10.6289 0.313059C12.6276 0.293252 14.6262 0.286945 16.6249 0.294138L27.3344 23.7199L12.5577 23.7309C12.3938 23.3983 12.2268 23.0656 12.0596 22.7323C11.5137 21.6445 10.9645 20.5502 10.5044 19.4305C10.7111 19.0447 10.872 18.6412 11.0337 18.2356L11.0835 18.1107C13.1436 18.0882 15.1983 18.0769 17.2474 18.0769L16.6495 16.6831C16.4129 16.1361 16.1789 15.5868 15.9448 15.0369C15.1922 13.2698 14.4373 11.4975 13.5867 9.7821C12.6656 11.9941 11.6752 14.178 10.6849 16.3617C9.58331 18.7909 8.48183 21.2199 7.47602 23.6867C4.98404 23.7075 2.49203 23.7095 0 23.6927C0.897921 21.5621 1.87981 19.4635 2.86099 17.3663C3.3263 16.3718 3.79151 15.3774 4.24747 14.3803L10.6289 0.313059Z" fill="#FFD500"/>
</mask>
<g mask="url(#mask0_257_943)">
<path d="M75.2115 24.6203C75.168 24.9726 75.3291 25.0075 75.4146 25.3262C75.5015 25.6227 75.7848 25.7565 75.9365 25.9965C76.0488 26.174 76.2546 26.1552 76.4023 26.2446C76.5593 26.3031 76.7117 26.4073 76.8627 26.4039C77.0171 26.4006 77.1668 26.3481 77.3131 26.4369C78.1485 26.3549 78.4291 25.9353 78.9577 25.3565C79.211 25.1393 79.0159 24.7951 79.1462 24.5335C79.1883 24.4488 79.199 24.3695 79.1562 24.2727C79.1475 23.9123 78.9337 23.5889 78.7953 23.2528C78.7319 23.0706 78.53 22.9744 78.4078 22.8198C78.3028 22.7418 78.1291 22.7727 78.0743 22.6114C78.0282 22.4762 77.8852 22.4998 77.7983 22.4352C77.6626 22.335 77.5357 22.4856 77.4127 22.4386C77.2777 22.3875 77.1534 22.3471 77.0265 22.4466C76.8794 22.3162 76.7237 22.5623 76.5767 22.4372C76.3094 22.5589 76.0187 22.6537 75.8316 22.883C75.6472 22.9563 75.718 23.2507 75.4841 23.2669C75.3384 23.7106 74.9923 24.1416 75.2115 24.6196V24.6203Z" fill="#CC2345" fill-opacity="0.5"/>
<path d="M88.3539 24.8975C88.3332 24.9257 88.3326 24.9923 88.3519 25.0225C88.4388 25.1631 88.3305 25.3318 88.4408 25.4757C88.5912 25.672 88.5905 25.9571 88.8063 26.1238C88.8725 26.1749 88.9033 26.2731 88.9687 26.3255C89.0369 26.38 89.1659 26.3847 89.2013 26.4485C89.2902 26.6724 89.5374 26.6502 89.7052 26.7605C89.925 26.9393 90.1896 26.778 90.4175 26.8728C90.5686 26.9353 90.6688 26.784 90.7984 26.7706C90.9521 26.7545 91.1593 26.8002 91.2315 26.6637C91.3337 26.4694 91.5743 26.4922 91.6511 26.3517C91.7387 26.191 91.9813 26.1749 91.9752 25.9383C92.0147 25.7265 92.135 25.4918 92.2125 25.2854C92.4323 24.607 92.1617 23.8231 91.605 23.3915C91.5128 23.1542 91.2662 23.1851 91.0898 23.099C90.8385 23.0136 90.5766 22.8355 90.3119 22.8516C90.2585 22.8805 90.185 22.8839 90.1228 22.8785C89.9197 22.8604 89.766 23.0849 89.5488 22.9921C89.5341 22.9861 89.5074 23.0096 89.4866 23.019C89.2949 23.06 89.2561 23.2866 89.0603 23.3269C88.934 23.3444 88.8658 23.4406 88.8458 23.5629C88.8204 23.7162 88.6166 23.6907 88.5838 23.8514C88.5517 24.0094 88.4996 24.1734 88.4141 24.3072C88.2898 24.5015 88.4889 24.7119 88.3546 24.8961L88.3539 24.8975Z" fill="#CC2345" fill-opacity="0.5"/>
<path d="M62.0433 23.8854C61.9791 23.9963 62.0566 24.112 62.0453 24.2061C62.0105 24.4878 62.187 24.6801 62.2738 24.9087C62.3119 25.0088 62.3159 25.15 62.4489 25.1884C62.5605 25.2206 62.5391 25.3437 62.6073 25.3968C63.045 25.5232 62.759 25.6469 63.1533 25.7531C63.3711 25.8197 63.5636 25.9609 63.8015 25.936C64.2232 25.823 64.7678 25.9682 65.0591 25.5696C65.6613 25.2549 65.6272 24.9295 65.8657 24.3849C66.0749 24.0656 65.8818 23.7355 65.8971 23.4121C65.9065 23.2184 65.6018 22.7808 65.4327 22.6026C65.1407 22.2261 64.6575 22.1797 64.2552 21.9814C64.0574 21.8765 63.8676 21.978 63.6752 21.9713C63.5716 21.9679 63.4493 22.1111 63.3631 22.0876C62.9535 22.0083 62.7122 22.5804 62.3915 22.7707C62.1649 22.8951 62.209 23.2366 62.0567 23.4289C61.9557 23.5956 62.1302 23.7388 62.0453 23.8861L62.0433 23.8854Z" fill="#CC2345" fill-opacity="0.5"/>
<path d="M80.6035 21.8188C80.6196 22.5348 80.6329 22.8569 81.203 23.3214C81.2765 23.4458 81.3981 23.4909 81.5177 23.548C81.5952 23.7719 81.8084 23.7853 82.0069 23.8532C82.1673 23.7262 82.3069 23.8499 82.4566 23.8848C83.1703 23.9393 84.0671 23.386 84.2723 22.6955C84.595 22.0212 84.3298 22.2787 84.4574 21.7859C84.5222 21.601 84.2522 21.4799 84.3471 21.2729C84.3819 21.0806 84.0932 20.9461 84.0518 20.7827C84.0531 20.4984 83.7176 20.5696 83.6381 20.3706C83.4543 20.1716 82.9184 20.0116 82.6538 19.9746C82.2201 19.9961 81.8305 20.0976 81.4469 20.2973C81.3005 20.341 81.2685 20.499 81.1475 20.5461C80.9283 20.6463 81.0199 20.9159 80.818 21.0335C80.5233 21.2003 80.6216 21.5492 80.6035 21.8188Z" fill="#CC2345" fill-opacity="0.5"/>
<path d="M67.4745 20.8306C67.6255 21.2158 67.3255 21.2474 67.4591 21.6017C67.3415 21.8404 67.6729 22.0125 67.544 22.2471C67.5373 22.2592 67.5547 22.3009 67.5694 22.3076C67.7592 22.389 67.7551 22.6304 67.8821 22.7231C67.9944 22.8058 68.0225 22.9504 68.1528 23.0015C68.3172 23.066 68.5049 23.0869 68.5798 23.302C68.7388 23.5051 69.0262 23.2429 69.2126 23.3982C69.8548 23.5575 70.4589 23.0822 70.8913 22.664C71.0376 22.5611 71.0249 22.3809 71.0998 22.2438C71.1532 22.073 71.2916 21.8881 71.2775 21.7234C71.2628 21.5876 71.2221 21.4672 71.2856 21.3341C71.3016 21.3005 71.2929 21.246 71.2782 21.2077C71.2247 21.0625 71.1452 20.9368 71.1766 20.7579C71.2127 20.5488 70.9047 20.5105 70.8893 20.3303C70.8659 20.0574 70.5578 20.1065 70.481 19.9162C70.2985 19.6795 69.9377 19.691 69.6878 19.5431C69.2226 19.5128 68.7549 19.5471 68.3539 19.812C68.1414 19.8638 68.0104 20.0675 67.8527 20.2194C67.7912 20.3135 67.7892 20.4608 67.7124 20.5273C67.6008 20.6033 67.4939 20.684 67.4745 20.8319V20.8306Z" fill="#CC2345" fill-opacity="0.5"/>
<path d="M43.5461 25.7997C43.496 26.1473 43.6697 26.4693 43.7065 26.8176C43.8802 26.8479 43.8843 27.0126 43.9411 27.1296C44.0012 27.2526 44.1302 27.3017 44.203 27.4213C44.2605 27.5161 44.4663 27.5081 44.5599 27.5962C44.6541 27.6849 44.7009 27.8247 44.8539 27.8449C44.896 27.8503 44.9521 27.8678 44.9795 27.8476C45.0958 27.7649 45.1961 27.8247 45.3023 27.8631C45.3912 27.8953 45.8616 27.8792 45.9412 27.8436C46.6462 27.5955 47.1688 27.0939 47.3505 26.349C47.4461 26.1607 47.2396 25.9416 47.4153 25.7654C47.1948 25.3412 47.4046 25.2235 47.0124 24.8242C46.9743 24.5216 46.592 24.5593 46.5326 24.295C46.2512 24.1895 45.9772 24.0517 45.6872 23.9905C45.0657 23.9905 44.3387 24.213 43.9404 24.7327C43.9076 24.8894 43.8502 25.0312 43.6684 25.0978C43.4385 25.3002 43.7566 25.4965 43.5468 25.7997H43.5461Z" fill="#CC2345" fill-opacity="0.5"/>
<path d="M101.589 25.1535C101.492 25.7425 101.881 26.5089 102.339 26.8659C102.519 26.9634 102.759 26.9607 102.84 27.1833C102.853 27.2068 103.012 27.1221 103.073 27.151C103.332 27.2767 103.586 27.2001 103.848 27.1846C104.574 27.1087 104.729 26.7866 105.169 26.3093C105.258 26.0686 105.378 25.8339 105.422 25.5858C105.442 25.4722 105.359 25.3357 105.426 25.1979C105.442 24.9364 105.227 24.6809 105.144 24.4348C105.076 24.2862 105.019 24.1323 104.939 23.9911C104.871 23.8734 104.678 23.9286 104.62 23.7659C104.555 23.583 104.349 23.6213 104.216 23.5413C104.086 23.4922 103.948 23.39 103.827 23.4082C103.666 23.4317 103.53 23.4324 103.372 23.386C103.285 23.3604 103.17 23.4889 103.055 23.4055C102.574 23.6132 102.02 23.936 101.838 24.4765C101.826 24.5384 101.671 24.6163 101.679 24.6305C101.795 24.8342 101.649 24.9908 101.589 25.1535H101.589Z" fill="#CC2345" fill-opacity="0.5"/>
<path d="M49.1348 22.7346C48.9777 23.099 48.7886 23.5125 48.9664 23.8991C49.106 24.2588 49.2617 24.6272 49.523 24.9022C49.5518 25.0367 50.6163 25.3957 50.774 25.3937C50.8635 25.3735 50.9371 25.3506 51.0333 25.3789C51.1108 25.4017 51.181 25.313 51.2866 25.3231C51.6641 25.3352 51.9281 25.044 52.2074 24.8356C52.3491 24.4773 52.5482 24.5452 52.6578 24.0235C52.8496 23.4735 52.6485 22.9047 52.3912 22.4186C52.305 22.2263 52.0891 22.1181 51.9582 21.9406C51.7717 21.7046 51.4389 21.6697 51.1729 21.5628C51.052 21.5271 50.9324 21.628 50.786 21.5742C50.2681 21.4545 49.7435 21.8236 49.4254 22.2163C49.1902 22.3097 49.2223 22.5585 49.1348 22.7353V22.7346Z" fill="#CC2345" fill-opacity="0.5"/>
<path d="M93.8351 22.824C94.1157 23.7129 94.4479 23.9865 95.326 24.2366C95.5131 24.3058 95.5131 24.289 95.8398 24.289C95.9702 24.289 96.0898 24.1741 96.2268 24.2621C96.4941 24.2164 96.6732 23.963 96.9024 23.8446C96.9605 23.8171 97.0387 23.7989 97.0748 23.7431C97.1256 23.6174 97.1436 23.4681 97.314 23.4385C97.7938 22.6297 97.6014 21.2972 96.7233 20.8582C96.6625 20.801 96.6591 20.6914 96.5515 20.6639C96.3912 20.639 96.176 20.4723 96.0357 20.4796C95.8024 20.5953 95.5458 20.3485 95.3273 20.5435C95.1241 20.6854 95.0774 20.4339 94.6991 20.7365C94.5381 20.8353 94.4338 21.0296 94.2761 21.1258C94.0823 21.2434 94.099 21.4377 94.0208 21.5944C93.8625 21.983 93.6433 22.4153 93.8337 22.824H93.8351Z" fill="#CC2345" fill-opacity="0.5"/>
<path d="M54.3262 20.7102C54.2781 21.088 54.361 21.5001 54.5053 21.8699C54.6343 22.1133 54.8749 22.2444 55.0012 22.4723C55.1295 22.6639 55.8732 22.8703 56.1212 22.9349C56.1833 22.9396 56.2602 22.8737 56.3089 22.8932C56.5235 22.9786 56.6685 22.6579 56.8863 22.8024C56.8963 22.8092 56.9405 22.7903 56.9458 22.7749C57.0073 22.5994 57.1717 22.5631 57.3127 22.5019C57.4209 22.4548 57.4149 22.311 57.5472 22.2747C57.7043 22.2316 57.6241 21.956 57.8339 21.9277C57.9743 21.8013 57.9896 21.5438 58.0705 21.3711C57.8941 21.1909 58.1888 20.9724 58.0237 20.7915C58.0932 20.489 57.864 20.2805 57.7805 20.0264C57.729 19.8435 57.5432 19.7568 57.4777 19.5988C57.3989 19.5228 57.2412 19.5638 57.1937 19.4341C57.0982 19.2095 56.8015 19.227 56.6103 19.1228C56.4105 19.3003 56.172 19.0105 55.9715 19.1766C55.759 19.0576 55.6113 19.3843 55.3968 19.2613C55.3827 19.2532 55.3406 19.2647 55.3366 19.2761C55.2571 19.4966 54.9958 19.4785 54.8729 19.6351C54.534 19.8805 54.498 20.3377 54.3269 20.7088L54.3262 20.7102Z" fill="#CC2345" fill-opacity="0.5"/>
<path d="M72.9611 18.4108C72.792 18.8061 72.8301 19.7171 73.209 20.1098C73.4055 20.333 73.5665 20.6234 73.9053 20.6819C74.1646 20.7485 74.4065 20.9273 74.6832 20.9152C75.1082 20.8903 75.6949 20.6046 76.0538 20.296C76.2035 20.1891 76.166 19.9282 76.3966 19.9101C76.4641 19.7386 76.5316 19.5665 76.5991 19.3951C76.4293 19.2115 76.692 19.0018 76.565 18.8155C76.581 18.4417 76.3111 17.9267 76.0558 17.682C75.9843 17.4985 75.6943 17.5664 75.6735 17.3324C75.5325 17.2315 75.3294 17.1979 75.1683 17.124C74.9973 17.2699 74.8228 17.087 74.6571 17.1293C74.4693 17.1609 74.321 17.128 74.1466 17.245C74.0437 17.2712 73.9147 17.243 73.8345 17.2961C73.6888 17.5381 73.5451 17.4574 73.4188 17.6027C73.3547 17.7795 73.0987 17.7842 73.0974 18.0195C73.0967 18.1506 73.0092 18.281 72.9611 18.4121V18.4108Z" fill="#CC2345" fill-opacity="0.5"/>
<path d="M86.0239 19.1525C85.9718 19.2709 85.9811 19.3717 86.0453 19.4752C85.925 19.6238 86.1602 19.7785 86.0373 19.9264C86.3026 20.674 86.7282 21.0713 87.476 21.2966C87.6638 21.4223 87.8803 21.1937 88.0567 21.3604C88.6822 21.1097 88.9228 21.1204 89.4 20.4515C89.6927 20.3049 89.7521 20.0756 89.6552 19.7744C89.8784 19.2278 89.6191 18.6174 89.2416 18.1918C89.1821 17.8993 88.7544 18.0439 88.7003 17.7312C88.6943 17.6956 88.5813 17.6774 88.5179 17.6526C88.2532 17.4946 88.2759 17.6721 88.0688 17.6351C87.5683 17.4717 87.0196 17.8563 86.5705 18.0815C86.5826 18.3262 86.2832 18.3471 86.2371 18.5649C86.1943 18.7673 86.1068 18.9616 86.0232 19.1525H86.0239Z" fill="#CC2345" fill-opacity="0.5"/>
<path d="M59.7123 18.1821C59.7016 18.287 59.7638 18.41 59.729 18.4987C59.6722 18.6433 59.6676 18.765 59.7538 18.8867C59.864 19.042 59.7304 19.2732 59.8807 19.3916C60.1033 19.5664 60.1367 19.9247 60.4668 19.9846C60.5824 20.3086 61.0736 20.2831 61.3462 20.4243C61.5855 20.2945 61.8668 20.4196 62.1087 20.2925C62.2718 20.2071 62.4368 20.1163 62.6119 20.0659C62.7596 20.0229 62.7589 19.84 62.9086 19.8104C63.0202 19.7882 63.0048 19.6652 63.0403 19.5859C63.1251 19.3714 63.2093 19.1529 63.2815 18.9344C63.4619 18.6029 63.3263 18.2036 63.2768 17.8412C63.1859 17.5494 62.9079 17.4116 62.7623 17.1722C62.4803 16.8845 62.0579 16.8831 61.7138 16.6996C61.0676 16.5584 60.4755 17.0129 60.0371 17.4358C59.8747 17.5602 59.8914 17.7639 59.8066 17.9219C59.7631 18.0026 59.7217 18.0926 59.713 18.1821H59.7123Z" fill="#CC2345" fill-opacity="0.5"/>
<path d="M107.428 23.9656C107.518 24.1451 107.754 24.2647 107.851 24.4483C108.064 24.5343 108.28 24.6164 108.495 24.6991C108.662 24.5068 108.847 24.773 109.004 24.6836C109.132 24.611 109.264 24.7132 109.392 24.6264C110.087 24.3528 110.449 23.8667 110.635 23.1467C110.738 22.8092 110.615 22.3533 110.432 22.0582C110.34 21.9042 110.342 21.6985 110.165 21.5896C110.114 21.558 110.095 21.4692 110.044 21.4396C109.744 21.2931 109.092 20.971 108.904 21.0349C108.499 21.0887 108.059 21.1109 107.731 21.4053C107.608 21.521 107.419 21.603 107.421 21.8195C107.172 21.8854 107.191 22.1341 107.091 22.3036C106.91 22.865 107.144 23.4875 107.429 23.9656H107.428Z" fill="#CC2345" fill-opacity="0.5"/>
<path d="M99.2807 20.0828C99.3469 20.6328 99.4952 20.8204 99.7866 21.2204C99.8795 21.3482 100.059 21.3078 100.108 21.4403C100.201 21.687 100.441 21.6729 100.621 21.7321C100.776 21.7825 100.97 21.6561 101.132 21.7872C101.993 21.451 101.638 21.8255 102.432 21.0866C102.667 20.9017 102.636 20.5891 102.78 20.3524C102.907 20.1447 102.719 19.9006 102.869 19.7016C102.708 19.3675 102.618 18.9278 102.355 18.6696C102.21 18.6286 102.153 18.5116 102.061 18.4161C101.92 18.2884 101.655 18.2864 101.487 18.1862C101.104 18.0013 100.455 18.1365 100.147 18.3321C100.065 18.3993 100.034 18.5372 99.9069 18.5439C99.6235 18.5587 99.6964 18.954 99.4324 18.9822C99.3669 19.1564 99.3021 19.3298 99.2366 19.504C99.4478 19.6821 99.1203 19.9013 99.28 20.0835L99.2807 20.0828Z" fill="#CC2345" fill-opacity="0.5"/>
<path d="M78.2788 16.4759C78.2293 16.8786 78.4405 17.2645 78.6196 17.6195C78.6564 17.6914 78.7726 17.7277 78.7967 17.7997C78.8542 17.9664 79.0627 17.9187 79.1128 18.0256C79.2311 18.2804 79.4857 18.2616 79.6768 18.3671C79.9 18.2347 80.1613 18.4875 80.3805 18.2958C80.5789 18.154 80.6284 18.4054 81.0093 18.1036C81.1717 18.0061 81.2753 17.8098 81.4323 17.715C81.6749 17.5274 81.6488 17.2208 81.7918 16.9895C81.9669 16.7892 81.7357 16.5384 81.8807 16.338C81.7644 15.9689 81.6127 15.6113 81.4062 15.2832C81.1677 15.2885 81.149 14.9867 80.9251 14.9457C80.6618 14.9114 80.4159 14.6996 80.1466 14.707C79.8292 14.7836 79.4837 14.7265 79.1903 14.9221C79.0967 14.9846 79.0967 15.1346 78.9551 15.1447C78.6564 15.1655 78.6945 15.5581 78.4378 15.6281C78.3897 15.7592 78.3476 15.893 78.2908 16.02C78.2227 16.1713 78.3997 16.3226 78.2788 16.4772V16.4759Z" fill="#CC2345" fill-opacity="0.5"/>
<path d="M114.864 25.8857C114.933 26.3079 115.14 26.7577 115.407 27.0864C115.504 27.2061 115.678 27.1678 115.73 27.3049C115.823 27.549 116.064 27.5389 116.246 27.5927C116.401 27.6391 116.593 27.5255 116.756 27.6465C117.594 27.313 117.311 27.6532 118.055 26.9426C118.292 26.7718 118.245 26.4289 118.403 26.2091C118.544 26.0161 118.345 25.8117 118.46 25.6188C118.543 25.4803 118.404 25.3619 118.356 25.2396C118.238 25.0117 118.176 24.6836 117.969 24.5276C117.672 24.3743 117.714 24.1901 117.293 24.1188C117.291 24.1235 117.29 24.1282 117.288 24.1329C116.957 23.9534 116.685 23.9198 116.329 24.0301C116.068 24.026 115.85 24.0785 115.688 24.3023C115.652 24.3521 115.58 24.3985 115.52 24.4045C115.246 24.4321 115.306 24.812 115.047 24.8463C114.982 25.0204 114.918 25.1952 114.854 25.37C115.041 25.5354 114.835 25.7095 114.864 25.887L114.864 25.8857Z" fill="#CC2345" fill-opacity="0.5"/>
<path d="M35.8637 22.547C35.8584 22.6982 35.9459 22.8502 35.8443 23.0021C35.831 23.4136 36.0548 23.7773 36.2206 24.1478C36.4043 24.2244 36.4544 24.4913 36.695 24.486C36.7411 24.5908 36.7806 24.6957 36.9169 24.7206C37.0452 24.7441 37.1541 24.8504 37.3078 24.7609C37.4789 24.7105 37.7014 24.9586 37.8832 24.8141C38.2935 24.6097 38.3169 24.8766 38.8194 24.3851C39.1769 24.1121 39.3587 23.6462 39.4483 23.226C39.4429 23.0949 39.3908 22.9732 39.4523 22.8361C39.4202 22.5019 39.1756 22.0676 39.0018 21.7792C38.9096 21.6938 38.7345 21.7052 38.7045 21.5324C38.2681 21.3583 37.8518 21.084 37.3666 21.2467C37.239 21.2689 37.102 21.2097 36.9824 21.3079C36.8821 21.3906 36.7425 21.3953 36.6609 21.5405C36.6055 21.64 36.3896 21.642 36.3175 21.7409C36.2032 21.8975 36.2119 22.1389 35.982 22.2243C35.9386 22.2982 35.8844 22.4549 35.863 22.547H35.8637Z" fill="#CC2345" fill-opacity="0.5"/>
<path d="M30.523 24.9404C30.4128 25.0943 30.644 25.2449 30.5117 25.3996C30.4482 25.8769 30.7462 26.4154 31.0369 26.7913C31.1331 26.9103 31.3089 26.8652 31.361 27.0098C31.4392 27.2263 31.6624 27.1893 31.8101 27.2821C31.9945 27.1402 32.1556 27.2747 32.3246 27.3237C32.5265 27.3385 32.6748 27.1651 32.898 27.2054C33.2342 27.1496 33.7674 26.6783 33.8857 26.2904C33.9118 26.1552 33.9552 26.012 34.0321 25.9004C34.1644 25.7082 33.9706 25.5044 34.0889 25.3101C34.1844 25.1683 33.7848 24.5665 33.7206 24.3601C33.6932 24.305 33.6411 24.2351 33.5897 24.2237C33.4373 24.19 33.3965 24.0468 33.2976 23.9682C33.1941 23.8862 33.0437 23.8633 32.7777 23.7631C32.6013 23.6004 32.1342 23.7006 31.8856 23.7187C31.478 23.7066 31.2955 24.1047 30.952 24.1961C30.7422 24.8805 30.6687 24.4482 30.523 24.9404Z" fill="#CC2345" fill-opacity="0.5"/>
<path d="M65.0834 16.0785C65.1201 16.3588 65.1769 16.6574 65.3333 16.9041C65.3995 17.0412 65.4101 17.2282 65.6046 17.2719C65.6407 17.5374 66.0089 17.4762 66.0523 17.7344C66.3771 17.9388 66.5469 17.7411 66.8255 17.8776C67.008 18.002 67.179 17.799 67.3327 17.7808C67.7524 17.8951 67.9796 17.4554 68.2616 17.2524C68.5042 17.0648 68.4781 16.7582 68.6211 16.5269C68.7962 16.3266 68.565 16.0758 68.71 15.8754C68.5937 15.5063 68.442 15.1487 68.2355 14.8206C67.997 14.8259 67.9783 14.5241 67.7544 14.4831C67.4965 14.4541 67.2358 14.2282 66.9779 14.2464C66.8335 14.323 66.6638 14.2188 66.5261 14.3264C66.5061 14.3425 66.4393 14.284 66.4005 14.2928C66.0971 14.3553 65.9321 14.6323 65.6581 14.7399C65.622 14.7513 65.5625 14.7789 65.5478 14.8105C65.5364 15.0881 65.2731 15.2085 65.1702 15.427C65.0239 15.6354 65.2458 15.8687 65.082 16.0792L65.0834 16.0785Z" fill="#CC2345" fill-opacity="0.5"/>
<path d="M91.4927 16.4797C91.597 16.6223 91.5161 16.748 91.462 16.869C91.3377 17.2657 91.5816 17.6065 91.7212 17.9602C91.7674 18.1061 91.9257 18.1424 91.9678 18.2627C92.1189 18.5491 92.3548 18.3273 92.5232 18.7065C92.5572 18.7266 92.6147 18.7455 92.6508 18.7313C92.8887 18.5814 93.0952 18.8638 93.3598 18.7468C93.7414 18.6426 94.2292 18.537 94.5065 18.2573C94.5507 18.1531 94.5894 18.0657 94.6997 17.9924C94.8467 17.8553 95.0485 17.2966 95.0218 17.1198C94.9717 16.5799 94.8561 16.0044 94.3789 15.6676C94.2132 15.3684 93.8603 15.3415 93.5696 15.2191C93.424 15.168 93.2676 15.3274 93.1179 15.2016C92.9241 15.1573 92.7657 15.3832 92.5452 15.3085C92.4764 15.291 92.32 15.367 92.31 15.4201C92.2786 15.5862 92.1021 15.5768 92.0353 15.7032C91.9672 15.8323 91.7774 15.8807 91.764 16.0622C91.7667 16.272 91.4359 16.276 91.4934 16.479L91.4927 16.4797Z" fill="#CC2345" fill-opacity="0.5"/>
<path d="M41.247 20.4063C41.1348 20.9993 41.495 21.7422 42.0617 22.0165C42.2174 22.0475 42.2494 22.2942 42.4098 22.2834C42.5207 22.2391 42.6156 22.2149 42.7333 22.2693C43.0547 22.4172 43.3721 22.2498 43.6922 22.2404C43.9054 22.2075 43.8419 22.0185 44.1186 21.9392C44.3304 21.8538 44.3164 21.6252 44.5222 21.5197C44.6151 21.4572 44.6271 21.2723 44.6886 21.1075C44.8844 20.7485 44.7688 20.2436 44.6451 19.8516C44.5289 19.6042 44.3785 19.3951 44.1673 19.2291C44.0811 19.1612 44.0831 19.024 43.9468 18.9917C43.6468 18.9211 43.3801 18.6892 43.042 18.8055C42.8856 18.7053 42.7366 18.7437 42.5949 18.8364C42.4573 18.9272 42.2802 18.8028 42.1479 18.9306C41.9334 19.1733 41.6112 19.3319 41.5244 19.6661C41.491 19.7642 41.4255 19.8059 41.3439 19.8537C41.1555 20.0137 41.4181 20.1246 41.247 20.407V20.4063Z" fill="#CC2345" fill-opacity="0.5"/>
<path d="M46.649 17.8239C46.5708 18.0935 46.6944 18.3799 46.6918 18.6569C46.7245 18.9157 46.9577 19.0616 47.0767 19.2734C47.2732 19.3299 47.3146 19.6089 47.5565 19.6062C47.8418 19.6607 48.0951 19.8886 48.3965 19.8637C48.7647 19.8583 49.0621 19.6163 49.4056 19.5114C49.6802 19.4422 49.6695 19.1026 49.9114 19.0159C50.1126 18.6717 50.0999 18.3516 50.1373 17.9758C50.1654 17.8877 50.0331 17.7741 50.1173 17.6585C50.0324 17.4689 49.9442 17.2806 49.8647 17.0884C49.8199 16.9801 49.6769 16.9868 49.6401 16.853C49.5974 16.6971 49.3214 16.7777 49.3013 16.5653C49.0186 16.4483 48.7513 16.211 48.4239 16.3374C48.3437 16.3737 48.2328 16.2318 48.1065 16.2937C47.1796 16.6534 46.9237 16.8396 46.649 17.8239Z" fill="#CC2345" fill-opacity="0.5"/>
<path d="M70.5869 13.203C70.4272 13.55 70.5495 13.8949 70.6063 14.231C70.6597 14.5484 70.9645 14.7171 71.1415 14.9632C71.2745 15.1124 71.4623 15.1124 71.6247 15.1958C72.0551 15.454 72.1092 15.261 72.4607 15.3592C72.714 15.3558 73.2693 15.0708 73.4517 14.8482C73.6208 14.8086 73.566 14.588 73.6762 14.5363C73.9275 14.4179 73.9061 14.1604 74.0117 13.9688C73.8747 13.7456 74.1313 13.4834 73.9402 13.2629C73.84 12.887 74.0164 12.9254 73.6281 12.5798C73.6181 12.2752 73.2111 12.3162 73.1664 12.0419C72.994 11.9774 72.8215 11.9122 72.6485 11.8476C72.4727 12.0614 72.2549 11.7306 72.0758 11.8927C71.7009 11.8517 71.4048 12.1193 71.0847 12.2645C71.0901 12.5045 70.8034 12.5381 70.754 12.7472C70.7165 12.9039 70.6544 13.0565 70.5869 13.2037V13.203Z" fill="#CC2345" fill-opacity="0.5"/>
<path d="M83.7006 14.2592C83.6658 14.4192 83.8944 14.5617 83.8102 14.7708C83.9712 14.9046 84.1349 15.1984 84.2786 15.3766C84.3935 15.5447 85.136 15.8257 85.3184 15.8008C85.6873 15.7497 86.0609 15.7289 86.397 15.5292C86.5146 15.4593 86.538 15.2919 86.6924 15.2771C86.7659 15.0108 87.1461 14.8414 87.1261 14.5557C87.0312 14.3378 87.1381 14.161 87.2002 13.9708C87.1896 13.8128 87.0379 13.6991 87.0666 13.525C87.0766 13.4645 87.0579 13.3932 87.0332 13.3354C87.0085 13.2762 86.9717 13.1989 86.9209 13.1788C86.7558 13.1035 86.7705 12.8984 86.673 12.7854C86.4999 12.6933 86.2627 12.7027 86.1898 12.454C85.7915 12.2126 85.6719 12.4553 85.4213 12.3162C85.3131 12.3249 85.1567 12.3283 85.0424 12.3424C84.3909 12.5468 83.901 13.0671 83.7246 13.7375C83.5622 13.9076 83.7373 14.083 83.6986 14.2599L83.7006 14.2592Z" fill="#CC2345" fill-opacity="0.5"/>
<path d="M52.1282 16.35C52.4423 16.6674 52.5519 17.1064 53.0978 17.1918C53.6772 17.4936 54.3247 17.3175 54.8533 16.9067C54.995 16.8032 55.0498 16.6788 55.136 16.551C55.1895 16.4724 55.3305 16.4542 55.3572 16.3204C55.5223 15.9527 55.3064 16.0044 55.4467 15.6737C55.4635 15.6078 55.5223 15.519 55.4982 15.4827C55.3572 15.2669 55.4447 14.9744 55.2864 14.7862C55.1347 14.6605 55.0638 14.4494 54.9422 14.3156C54.699 14.288 54.5773 14.0789 54.3982 13.9579C54.2352 13.8476 54.0588 13.9175 53.8864 13.9075C53.4714 13.8839 53.3671 13.9028 53.1205 13.9801C52.7844 14.085 52.5919 14.3673 52.3447 14.5764C52.1796 14.729 52.1542 15.0524 52.0406 15.2548C51.903 15.4215 52.0126 15.601 52.0039 15.7732C51.9939 15.9715 52.1943 16.1268 52.1288 16.3507L52.1282 16.35Z" fill="#CC2345" fill-opacity="0.5"/>
<path d="M112.507 20.5167C112.422 20.6511 112.566 20.7708 112.612 20.8945C112.701 21.0491 112.843 21.5904 112.997 21.6052C113.206 21.6267 113.22 21.8795 113.412 21.9191C113.951 22.1813 114.815 22.2102 115.25 21.7107C115.721 21.5473 115.672 20.9295 115.897 20.5543C116.008 20.0218 115.668 19.2581 115.192 18.9979C114.811 18.9293 114.408 18.5595 114.028 18.6765C113.968 18.7108 113.899 18.7666 113.841 18.7592C113.274 18.7491 112.787 19.2964 112.614 19.7993C112.604 19.8443 112.594 19.8961 112.565 19.9284C112.404 20.1092 112.628 20.3217 112.505 20.516L112.507 20.5167Z" fill="#CC2345" fill-opacity="0.5"/>
<path d="M104.697 17.5859C104.604 17.8199 104.973 18.1547 104.993 18.4102C105.034 18.6643 105.299 18.6603 105.399 18.8257C105.452 18.9131 105.514 18.9568 105.602 18.987C106.137 19.2647 107.009 19.2741 107.44 18.782C107.911 18.6193 107.862 18.0014 108.088 17.6256C108.199 17.0931 107.859 16.3293 107.384 16.0685C107.002 15.9999 106.599 15.6308 106.22 15.7471C106.159 15.7814 106.091 15.8372 106.032 15.8298C105.466 15.8197 104.978 16.367 104.806 16.8692C104.575 17.2928 104.817 17.2605 104.697 17.5859Z" fill="#CC2345" fill-opacity="0.5"/>
<path d="M57.3613 12.8971C57.4763 13.0288 57.3593 13.2077 57.4502 13.3448C57.4389 14.0252 58.0075 14.6162 58.621 14.8031C58.7961 14.9127 58.9725 14.7043 59.1416 14.836C59.179 14.865 59.2679 14.8408 59.3287 14.8233C59.4543 14.7883 59.5806 14.8253 59.7143 14.7668C59.9876 14.6478 60.1426 14.3977 60.3745 14.2377C60.5349 14.0884 60.5369 13.8686 60.6285 13.6837C60.9526 13.1257 60.6933 12.5313 60.4006 12.0298C60.2288 11.9733 60.2061 11.7373 59.9856 11.7151C59.6715 11.6916 59.4055 11.3931 59.0788 11.4563C58.7533 11.5322 58.3544 11.461 58.0951 11.7366C57.9841 11.8664 57.7803 11.933 57.7863 12.1515C57.4796 12.2637 57.4977 12.6449 57.3627 12.8971H57.3613Z" fill="#CC2345" fill-opacity="0.5"/>
<path d="M120.402 23.792C120.603 24.4092 121.081 24.8738 121.706 25.0271C121.859 24.9383 122 24.9975 122.157 25.0338C122.481 24.9296 122.961 24.7568 123.171 24.5255C123.56 24.1813 123.488 23.9137 123.695 23.5204C123.807 23.3429 123.644 23.1701 123.716 23.0013C123.601 22.7479 123.486 22.4944 123.37 22.241C123.188 22.1946 123.179 21.9505 122.971 21.9108C122.419 21.7885 122.435 21.5996 121.809 21.6318C121.676 21.7448 121.505 21.6332 121.363 21.7145C121.171 21.8241 121.041 22.0191 120.816 22.0904C120.762 22.1072 120.768 22.3122 120.713 22.331C120.466 22.4158 120.496 22.6625 120.384 22.8218C120.247 23.0175 120.387 23.2158 120.336 23.4068C120.442 23.5204 120.344 23.6683 120.402 23.7913V23.792Z" fill="#CC2345" fill-opacity="0.5"/>
<path d="M96.8691 14.2841C96.9854 14.4158 96.8685 14.5947 96.9593 14.7318C96.9273 15.2663 97.3216 15.6812 97.6884 16.0032C97.9838 16.256 98.356 16.1935 98.7155 16.2392C98.7997 16.2654 98.9187 16.1471 99.0276 16.1276C99.1773 16.1014 99.3838 16.1599 99.458 16.02C99.762 15.7202 100.049 15.5164 100.136 15.0673C100.459 14.51 100.2 13.9143 99.9057 13.4141C99.7366 13.3542 99.7099 13.123 99.4907 13.0994C99.313 13.0806 99.1319 13.0006 98.9742 12.9085C98.6327 12.7754 98.2137 12.8312 97.8916 12.9603C97.7359 13.0712 97.5902 13.2225 97.3991 13.2843C97.3603 13.367 97.3496 13.4988 97.2888 13.5284C96.9941 13.6729 97.0001 14.0212 96.8691 14.2827V14.2841Z" fill="#CC2345" fill-opacity="0.5"/>
<path d="M75.979 11.4361C75.9509 11.6432 76.1173 11.7696 76.1447 11.9457C76.1721 12.1239 76.3633 12.1602 76.4234 12.3088C76.4922 12.4802 76.799 12.4022 76.797 12.6571C76.948 12.7135 77.0963 12.7794 77.2507 12.8245C77.3951 12.8668 77.5508 12.7236 77.6998 12.8426C77.7238 12.8621 77.7867 12.85 77.8234 12.8332C78.1883 12.653 78.5966 12.532 78.8766 12.2422C78.9996 12.251 79.2916 11.3628 79.2789 11.2532C79.2234 10.5466 79.1499 10.3174 78.6414 9.81648C78.5084 9.66723 78.3206 9.6679 78.1582 9.58453C77.9911 9.55092 77.808 9.38149 77.6443 9.44065C77.502 9.52133 77.3423 9.42586 77.1946 9.52604C76.9827 9.6874 76.5898 9.75463 76.4087 9.92271C76.3933 10.1419 76.1601 10.1789 76.098 10.3409C76.0191 10.5466 75.8855 10.749 76.0044 10.9857C75.8981 11.1315 75.9997 11.2889 75.9797 11.4354L75.979 11.4361Z" fill="#CC2345" fill-opacity="0.5"/>
<path d="M89.1686 11.1102C89.3257 11.4356 89.0062 11.4491 89.1766 12.0784C89.1753 12.1833 89.2829 12.2848 89.307 12.3957C89.3444 12.5672 89.5248 12.6162 89.5829 12.7595C89.6364 12.8906 89.7634 12.8845 89.8623 12.9282C90.0948 12.9753 90.0307 13.2361 90.2773 13.2301C90.4477 13.2476 90.6254 13.1487 90.7918 13.2745C91.2503 13.1904 91.7601 13.0351 92.0883 12.6721C92.4892 12.1174 92.5981 11.1667 92.1096 10.6342C91.8336 10.2335 91.4654 10.0668 91.0177 9.93099C90.8653 9.85233 90.6762 9.94174 90.5092 9.93569C90.2031 10.0688 89.8589 10.1764 89.6417 10.4319C89.4306 10.5052 89.4994 10.8326 89.2455 10.8568C89.2248 10.9146 89.1472 11.0645 89.1693 11.1102H89.1686Z" fill="#CC2345" fill-opacity="0.5"/>
<path d="M62.8062 10.5976C62.6592 10.8034 62.9452 10.9607 62.8857 11.1718C62.8597 11.2545 62.8971 11.3056 62.9252 11.3641C62.9713 11.4837 63.1049 11.5664 63.1637 11.6673C63.2212 11.8656 63.3428 11.9799 63.5426 12.0149C63.6422 12.0324 63.6843 12.1036 63.7364 12.185C63.9028 12.4371 64.1862 12.2058 64.4074 12.3349C64.8163 12.3443 65.1805 12.1278 65.5394 11.9638C65.5568 11.9564 65.5788 11.9315 65.5782 11.9154C65.5708 11.6727 65.8702 11.6525 65.9123 11.4333C66.1983 10.7845 66.1756 9.96833 65.5888 9.49837C65.2607 9.1407 65.0429 9.15078 64.6553 9.00691C64.5764 8.99682 64.5049 9.10708 64.402 9.05464C64.1942 8.91345 63.9703 9.11246 63.7705 9.19314C63.6395 9.27382 63.4484 9.26037 63.3816 9.4419C63.1484 9.54275 63.1263 9.84193 62.9011 9.96093C62.7213 10.1546 62.9806 10.3132 62.8055 10.5983L62.8062 10.5976Z" fill="#CC2345" fill-opacity="0.5"/>
<path d="M28.2566 19.8469C28.137 20.0741 28.1557 20.2846 28.2974 20.491C28.1651 20.8345 28.56 20.9535 28.6382 21.2379C28.7244 21.4706 29.0919 21.3462 29.1454 21.6346C29.1501 21.6615 29.2182 21.6796 29.2597 21.6944C29.5604 21.5264 29.7281 21.8531 30.0302 21.6991C30.3483 21.726 30.6663 21.4699 30.9644 21.3542C31.0118 21.2305 31.0539 21.1122 31.1836 21.0309C31.2805 20.9616 31.3152 20.8036 31.3774 20.6846C31.37 20.6812 31.3633 20.6779 31.356 20.6745C31.3914 20.5058 31.5491 20.3222 31.4957 20.1588C31.4509 19.8321 31.4943 19.4785 31.2725 19.2055C31.1495 19.0307 30.945 18.9332 30.8347 18.7328C30.7913 18.6542 30.6383 18.6354 30.534 18.5923C30.4492 18.5574 30.3456 18.5466 30.2788 18.4908C30.0936 18.3355 29.8865 18.5493 29.696 18.4323C29.5584 18.3476 29.4441 18.4908 29.3205 18.5338C28.6756 18.7402 28.6956 19.0468 28.3161 19.4354C28.1503 19.4852 28.2947 19.7245 28.2573 19.8476L28.2566 19.8469Z" fill="#CC2345" fill-opacity="0.5"/>
<path d="M33.6165 17.3768C33.4975 17.604 33.5136 17.8138 33.6559 18.0208C33.5263 18.3644 33.9165 18.4834 33.9967 18.7678C34.0796 19.0038 34.4511 18.8754 34.5039 19.1645C34.5186 19.1967 34.6329 19.2492 34.679 19.2156C34.7879 19.1342 34.8915 19.1766 34.9998 19.2196C35.4662 19.3843 35.918 19.0589 36.3229 18.8875C36.371 18.7651 36.4105 18.6448 36.5415 18.5634C36.639 18.4948 36.6738 18.3368 36.8141 18.0713C36.9671 17.885 36.8235 17.5233 36.7981 17.1804C36.7854 17.0117 36.7085 16.8013 36.5869 16.6964C36.2521 16.2916 36.1485 16.1941 35.6386 16.0234C35.4335 15.8956 35.1916 16.0899 34.9951 15.9353C34.6142 16.098 34.1625 16.2116 33.9245 16.5801C33.831 16.7273 33.8383 16.9404 33.6178 17.0023C33.567 17.0601 33.6399 17.2994 33.6165 17.3774V17.3768Z" fill="#CC2345" fill-opacity="0.5"/>
<path d="M23.0179 23.14C23.1809 23.5911 23.4503 23.9279 23.8893 24.0113C24.3778 24.2594 24.8349 24.2574 25.284 23.975C25.4985 23.8674 25.6288 23.6516 25.8212 23.5111C25.9602 23.4096 25.9389 23.216 26.0291 23.0896C26.152 22.9174 26.0277 22.7319 26.0785 22.5725C26.158 22.2976 25.9743 22.0784 25.9696 21.8054C25.7938 21.7779 25.7805 21.6152 25.735 21.4955C25.6742 21.3348 25.4644 21.3919 25.4196 21.2709C25.3381 21.0504 25.1363 21.0591 24.9779 20.9885C24.7908 20.9059 24.7868 20.9388 24.4653 20.9307C24.335 20.9274 24.2107 21.0598 24.0811 20.9475C23.7396 21.0941 23.348 21.2447 23.1696 21.5862C22.9871 22.1416 22.6945 22.5705 23.0186 23.14H23.0179Z" fill="#CC2345" fill-opacity="0.5"/>
<path d="M38.9736 15.3464C38.979 15.5521 39.2516 16.2224 39.4548 16.2843C39.563 16.5794 39.8637 16.5472 40.0829 16.64C40.9216 17.0965 42.0115 16.3293 42.1973 15.4278C42.0389 15.2543 42.2334 15.0963 42.1786 14.9128C42.1465 14.785 42.0302 14.6882 42.0804 14.5275C42.1338 14.3567 41.8732 14.3836 41.8652 14.2256C41.8498 13.9244 41.4562 13.9641 41.3874 13.7053C40.8381 13.3846 40.2059 13.5089 39.6592 13.7611C39.5136 13.8075 39.5102 13.9863 39.3619 14.0165C39.2169 14.0697 39.1881 14.4246 39.1066 14.5672C38.997 14.9336 38.8754 14.9504 38.9736 15.3464Z" fill="#CC2345" fill-opacity="0.5"/>
<path d="M17.526 24.8168C17.4645 25.1025 17.5227 25.4031 17.6804 25.6485C17.7746 25.8011 17.7706 26.0075 17.947 26.1157C17.9985 26.1473 18.0165 26.2361 18.0686 26.265C18.4054 26.4694 18.7309 26.5198 18.9454 26.6415C19.1218 26.7551 19.2929 26.585 19.4606 26.6603C20.03 26.4418 20.6053 26.0142 20.7203 25.3836C20.7737 25.2242 20.6327 25.0333 20.7671 24.8659C20.588 24.527 20.479 23.852 20.06 23.7586C19.7867 23.2005 18.5865 23.3471 18.1802 23.6718C17.7566 23.8856 17.7171 24.4215 17.5267 24.8161L17.526 24.8168Z" fill="#CC2345" fill-opacity="0.5"/>
<path d="M44.4895 12.0377C43.6963 13.6056 45.7853 14.9832 47.0215 13.8698C47.1492 13.7649 47.1311 13.5962 47.2909 13.4987C47.4793 13.383 47.5488 13.1275 47.5234 12.8996C47.5201 12.3456 47.3396 11.8037 46.9006 11.4407C46.7549 11.1879 46.4856 11.1415 46.2237 11.0722C46.0706 11.2255 45.9183 10.9983 45.7779 11.0655C45.6135 11.1442 45.4351 11.0655 45.262 11.1751C45.0362 11.3176 44.8925 11.5429 44.6699 11.6794C44.537 11.7607 44.5557 11.9207 44.4908 12.0384L44.4895 12.0377Z" fill="#CC2345" fill-opacity="0.5"/>
<path d="M81.4135 8.38576C81.3868 8.47114 81.322 8.58813 81.3547 8.6399C81.4369 8.77033 81.3394 8.90412 81.4082 9.03186C81.5184 9.2349 81.604 9.45206 81.6996 9.66317C82.2235 10.2562 83.0441 10.394 83.8059 10.0793C83.8427 10.0632 84.1708 9.72839 84.1995 9.65847C84.2683 9.49308 84.5163 9.46484 84.5076 9.24028C84.5056 9.19725 84.5637 9.13809 84.549 9.11254C84.4461 8.9337 84.5671 8.76495 84.5544 8.59485C84.559 8.21835 84.3572 7.84521 84.116 7.58838C84.0378 7.37257 83.7264 7.44047 83.6863 7.18633C83.6789 7.14129 83.5132 7.13591 83.441 7.08414C83.2887 6.97455 83.1397 7.20583 82.988 7.07137C82.9098 7.00144 82.8089 7.0949 82.7367 7.08347C82.2562 7.00413 81.5913 7.67175 81.5051 8.12423C81.4937 8.21432 81.4403 8.29768 81.4129 8.38643L81.4135 8.38576Z" fill="#CC2345" fill-opacity="0.5"/>
<path d="M110.15 14.8569C110.133 14.9134 110.148 14.99 110.174 15.0465C110.222 15.1527 110.115 15.2616 110.204 15.3719C110.414 15.8264 110.593 16.3145 111.137 16.4469C111.141 16.4382 111.145 16.4294 111.148 16.4214C111.319 16.4852 111.489 16.5498 111.66 16.6137C111.773 16.5074 111.916 16.5767 112.043 16.5558C112.414 16.5451 112.7 16.3454 112.949 16.094C112.919 15.8586 113.172 15.8365 113.263 15.6811C113.382 15.4774 113.238 15.2784 113.32 15.0935C113.385 14.7177 113.224 14.321 113.038 14.0198C112.947 13.9782 112.911 13.9062 112.853 13.837C112.745 13.7065 112.519 13.7079 112.464 13.5001C112.42 13.4537 112.273 13.445 112.21 13.4006C112.062 13.3126 111.91 13.5156 111.757 13.3879C111.54 13.3643 111.106 13.4416 111.004 13.5506C110.498 13.9257 110.325 14.2424 110.149 14.8569H110.15Z" fill="#CC2345" fill-opacity="0.5"/>
<path d="M102.548 12.7726C102.735 13.3898 103.495 13.6742 103.993 13.6177C104.141 13.728 104.28 13.5693 104.444 13.6063C104.649 13.6581 104.752 13.3683 104.929 13.2957C105.07 13.252 105.166 13.1726 105.195 13.0153C105.221 12.8741 105.42 12.8943 105.457 12.7282C105.491 12.5716 105.565 12.4297 105.467 12.2751C105.667 11.8004 105.382 11.3029 105.08 10.9378C104.977 10.8296 104.801 10.8477 104.759 10.7227C104.692 10.525 104.522 10.5116 104.379 10.4712C104.216 10.4249 104.037 10.5526 103.861 10.4309C103.396 10.5909 103.12 10.679 102.757 11.0246C102.51 11.2068 102.524 11.5604 102.372 11.8098C102.268 12.1487 102.394 12.4721 102.547 12.7719L102.548 12.7726Z" fill="#CC2345" fill-opacity="0.5"/>
<path d="M118.001 17.6707C117.837 18.066 118.146 18.7202 118.418 19.0187C118.541 19.33 119.393 19.5431 119.611 19.4799C119.76 19.5842 119.899 19.4356 120.061 19.4672C120.269 19.5156 120.37 19.2332 120.547 19.1579C120.685 19.1129 120.787 19.0382 120.814 18.8796C120.84 18.7364 121.069 18.7653 121.067 18.5905C121.242 18.4143 121.03 18.1924 121.134 18.0089C121.179 17.6311 121.06 17.2263 120.826 16.946C120.66 16.7301 120.41 16.5802 120.199 16.4C120.003 16.234 119.76 16.4175 119.555 16.3093C119.43 16.2434 119.345 16.3617 119.238 16.3866C119.079 16.439 118.826 16.3644 118.742 16.5197C118.197 17.073 118.261 16.8787 117.999 17.6707H118.001Z" fill="#CC2345" fill-opacity="0.5"/>
<path d="M68.3456 7.64481C68.079 8.13628 68.2046 8.66944 68.4973 9.11855C68.7018 9.58581 69.2424 9.65439 69.6681 9.83323C69.8225 9.72566 70.0243 9.84735 70.176 9.72499C70.5175 9.90651 70.5836 9.44328 70.8576 9.41101C71.0701 9.34109 71.0073 9.01703 71.2572 8.99148C71.294 8.82071 71.4597 8.67078 71.3354 8.47177C71.3174 8.44354 71.3434 8.38773 71.3481 8.3447C71.4884 7.89559 71.0634 6.9456 70.6384 6.91265C70.4867 6.45211 70.0203 6.73247 69.7075 6.56641C69.5465 6.62221 69.3995 6.75331 69.1997 6.69818C68.9778 6.68608 68.8635 6.98056 68.6971 7.09485C68.4706 7.20444 68.4218 7.42429 68.3463 7.64481H68.3456Z" fill="#CC2345" fill-opacity="0.5"/>
<path d="M49.6953 10.0362C49.8109 10.3656 49.6659 10.7939 49.9399 11.0507C50.2386 11.3526 50.4264 11.676 50.8721 11.7392C50.979 11.7701 51.1053 11.8494 51.1902 11.8178C51.3579 11.7546 51.5451 11.832 51.7034 11.7089C51.8097 11.6262 51.9514 11.5892 52.0763 11.5307C52.2888 11.4608 52.486 11.085 52.7192 10.9055C52.7593 10.8584 52.8208 10.7811 52.8061 10.7435C52.7626 10.6319 52.7138 10.5216 52.7967 10.4221C52.9979 10.0725 52.7366 9.46873 52.4719 9.19778C52.2715 8.87507 51.9915 8.99407 51.8825 8.70161C51.8705 8.67068 51.7823 8.63438 51.7703 8.64581C51.5958 8.80515 51.4254 8.6048 51.2564 8.64581C50.4859 8.73119 49.7795 9.22199 49.6953 10.0368V10.0362Z" fill="#CC2345" fill-opacity="0.5"/>
<path d="M94.5783 8.9948C94.6063 9.36189 94.6063 9.75856 94.8803 10.0477C95.1062 10.2682 95.2646 10.5122 95.5907 10.6057C95.8139 10.7657 96.0825 10.5788 96.3024 10.7186C96.7194 10.5405 97.2446 10.4154 97.4344 9.95017C97.7171 9.35181 97.8761 8.65931 97.3502 8.12818C97.1424 7.78395 96.6839 7.78058 96.3511 7.59906C96.1527 7.513 95.9629 7.60443 95.7751 7.62326C95.6227 7.63872 95.4851 7.78529 95.3314 7.80815C95.038 7.85185 95.0561 8.2223 94.7948 8.28147C94.7206 8.51947 94.5455 8.73797 94.5783 8.9948Z" fill="#CC2345" fill-opacity="0.5"/>
<path d="M125.879 20.4049C125.775 20.7747 125.805 21.3899 126.047 21.6803C126.289 21.9197 126.456 22.272 126.847 22.3278C127.042 22.4972 127.288 22.3069 127.493 22.4179C127.584 22.4878 128.349 22.1241 128.402 22.0125C128.736 21.7771 128.778 21.2252 128.925 21.0053C129.036 20.8453 128.879 20.6974 128.939 20.5488C128.84 20.3209 128.74 20.0936 128.641 19.8657C128.473 19.8361 128.48 19.6129 128.291 19.5746C128.045 19.5249 127.807 19.4193 127.577 19.3117C127.275 19.1773 126.21 19.5323 126.207 19.9195C125.954 19.9827 125.968 20.2288 125.878 20.4049H125.879Z" fill="#CC2345" fill-opacity="0.5"/>
<path d="M55.1665 7.6134C55.1325 7.74114 55.0189 7.86418 55.1351 8.00133C55.2474 8.13445 55.1752 8.30522 55.2314 8.44843C55.4265 8.4928 55.4078 8.69988 55.5094 8.81148C55.9691 9.06562 55.9972 9.37556 56.6086 9.27001C57.2696 9.25589 57.8964 8.91906 58.0541 8.23396C58.2479 7.91191 58.1042 7.59323 58.1109 7.26245C58.0802 7.15555 58.0675 7.0036 57.9926 6.95654C57.6999 6.77031 57.583 6.34473 57.2154 6.35548C56.9394 6.25934 56.7811 6.14841 56.5191 6.21026C55.9678 6.1753 54.8732 7.03117 55.1679 7.61273L55.1665 7.6134Z" fill="#CC2345" fill-opacity="0.5"/>
<path d="M73.6813 5.64396C73.5055 5.92835 73.8062 6.19728 73.8784 6.47428C74.0983 7.08408 74.2466 6.797 74.5012 7.1224C74.5921 7.18157 74.7224 7.28376 74.7886 7.25552C75.1722 7.1977 75.6239 7.37184 75.9286 7.05988C76.1605 6.81179 76.5247 6.65581 76.5575 6.282C76.6056 6.11593 76.7172 5.94785 76.6931 5.80196C76.6296 5.63253 76.7105 5.44294 76.5849 5.2836C76.5013 5.17737 76.4405 5.03887 76.4138 4.90642C76.3777 4.72893 76.1872 4.698 76.1304 4.54404C76.085 4.41966 75.9407 4.43378 75.8397 4.39008C75.4829 4.17023 75.1955 4.21124 74.816 4.28923C74.2814 4.28116 74.0301 4.79146 73.7267 5.13232C73.6004 5.29368 73.8076 5.47991 73.6806 5.64598L73.6813 5.64396Z" fill="#CC2345" fill-opacity="0.5"/>
<path d="M133.708 23.357C133.797 23.6206 133.649 23.9157 133.767 24.1914C133.807 24.346 133.891 24.4912 133.964 24.6358C134.024 24.7528 134.193 24.7824 134.208 24.9383C134.573 24.9982 134.495 25.2806 134.685 25.259C134.921 25.0876 135.093 25.3827 135.328 25.296C135.958 25.2342 135.928 25.0499 136.373 24.7091C136.567 24.5786 136.544 24.3501 136.643 24.1692C136.862 23.7019 136.566 23.2542 136.379 22.8279C136.319 22.7129 136.155 22.6793 136.135 22.5274C135.875 22.4299 135.616 22.3331 135.357 22.2356C135.23 22.3654 135.045 22.2248 134.913 22.3311C134.592 22.284 134.399 22.4971 134.16 22.6598C133.952 22.801 134.062 23.1358 133.774 23.1836C133.724 23.2085 133.69 23.3039 133.708 23.357H133.708Z" fill="#CC2345" fill-opacity="0.5"/>
<path d="M86.8668 6.0655C86.7986 6.31561 86.9276 6.59529 86.9944 6.8333C87.0506 7.04642 87.225 7.16005 87.3426 7.31535C87.4402 7.44377 87.6567 7.46528 87.7322 7.64883C87.7409 7.66967 87.8257 7.68379 87.8538 7.66631C87.9654 7.59504 88.0663 7.62328 88.1766 7.66765C88.2775 7.70866 88.3704 7.75909 88.4994 7.70799C88.8549 7.68715 89.1616 7.51302 89.3921 7.23737C89.7102 7.0592 89.7223 6.66992 89.8686 6.36536C89.872 5.92566 89.6828 5.53706 89.4603 5.17199C88.9939 4.56488 88.0717 4.60589 87.4549 4.91785C87.3747 5.09937 87.11 5.14577 87.1127 5.38915C87.086 5.51622 86.9189 5.56798 86.8628 5.68026C86.7859 5.79926 86.9737 5.9297 86.8661 6.0655H86.8668Z" fill="#CC2345" fill-opacity="0.5"/>
<path d="M60.5098 5.32603C60.5926 5.46789 60.4804 5.63799 60.5993 5.77648C60.8152 6.27468 60.9628 6.41721 61.4754 6.62496C61.4781 6.61824 61.4808 6.61218 61.4841 6.60546C62.3682 6.99608 61.9291 6.71774 62.5052 6.69757C62.5232 6.70497 62.5526 6.70698 62.5673 6.69757C62.6582 6.63773 62.7872 6.64311 62.8393 6.51268C62.8881 6.38965 63.0839 6.3957 63.1026 6.23501C63.3465 6.00239 63.5076 5.71732 63.4494 5.42083C63.416 5.2514 63.5771 5.13173 63.4802 4.96499C63.2556 4.53538 63.2717 4.33637 62.8366 4.05668C62.4504 3.65396 61.5275 3.66001 61.1727 4.06609C60.751 4.20056 60.7303 4.65169 60.5793 5.00533C60.5485 5.11021 60.4396 5.20837 60.5091 5.3267L60.5098 5.32603Z" fill="#CC2345" fill-opacity="0.5"/>
<path d="M25.9069 14.7136C25.9123 15.0477 26.0165 15.396 26.2537 15.6347C26.3714 15.7281 26.4074 15.9157 26.6012 15.9265C26.8198 15.9446 27.1813 16.2331 27.3778 16.1598C27.5181 16.0764 27.6898 16.1887 27.8268 16.069C28.0032 15.944 28.2786 15.9077 28.4309 15.7537C28.5151 15.6602 28.5058 15.4848 28.6762 15.4552C28.9281 15.0995 28.8446 14.7781 28.8058 14.37C28.8152 13.9068 28.3781 13.7273 28.1977 13.3858C28.0246 13.3219 27.8516 13.2587 27.6785 13.1948C27.5508 13.297 27.4259 13.2184 27.2929 13.2076C26.489 13.3454 25.9878 13.9041 25.9062 14.7143L25.9069 14.7136Z" fill="#CC2345" fill-opacity="0.5"/>
<path d="M107.856 9.43066C107.835 9.49319 107.797 9.5853 107.824 9.62026C107.906 9.72985 107.808 9.84817 107.858 9.94499C107.962 10.146 107.993 10.3941 108.18 10.5407C108.298 10.6334 108.336 10.819 108.528 10.8311C109.284 11.1841 109.665 11.0873 110.363 10.6603C110.356 10.419 110.653 10.3887 110.693 10.1749C110.857 9.81187 110.757 9.44949 110.7 9.07702C110.499 8.60639 110.1 8.20569 109.598 8.10013C109.419 8.28166 109.209 7.99659 109.021 8.14383C108.309 8.43092 108.059 8.66824 107.855 9.43066H107.856Z" fill="#CC2345" fill-opacity="0.5"/>
<path d="M115.672 12.8661C115.761 13.3118 116.139 13.7441 116.586 13.8497C116.833 13.9451 117.029 14.0722 117.295 13.9572C117.603 13.9626 117.843 13.7502 118.112 13.6312C118.192 13.5955 118.199 13.3979 118.28 13.3582C118.556 13.2231 118.534 12.9488 118.619 12.7242C118.506 12.5003 118.594 12.2462 118.514 12.0183C118.321 11.5981 117.908 11.0683 117.421 11.0434C117.284 11.0615 117.166 11.0958 117.033 11.0347C116.999 11.0192 116.945 11.0279 116.908 11.0447C116.501 11.2175 116.029 11.3701 115.857 11.824C115.744 12.2637 115.558 12.3847 115.673 12.8661H115.672Z" fill="#CC2345" fill-opacity="0.5"/>
<path d="M31.4565 12.9413C31.7078 13.498 32.642 13.8369 33.1753 13.6062C33.2829 13.5236 33.4199 13.4476 33.5508 13.4348C33.8355 13.4072 33.7941 13.0563 34.0246 12.9911C34.173 12.7013 34.2218 12.626 34.1543 12.2972C34.2204 11.9315 34.1703 11.7016 34.0226 11.4669C33.9785 11.397 33.8616 11.3573 33.8449 11.2881C33.7894 11.0575 33.4486 11.1341 33.4285 10.8759C33.4272 10.8558 33.3397 10.8517 33.3076 10.8228C33.1111 10.6433 32.8618 10.8759 32.66 10.7354C32.4007 10.7307 32.1562 10.96 31.9029 11.0279C31.7692 11.0797 31.7532 11.2444 31.6069 11.2894C31.5487 11.3069 31.5207 11.4393 31.4879 11.5227C31.4197 11.6955 31.375 11.8804 31.2888 12.0431C31.1932 12.2239 31.3162 12.3873 31.2968 12.5635C31.2834 12.6825 31.397 12.8169 31.4565 12.9427V12.9413Z" fill="#CC2345" fill-opacity="0.5"/>
<path d="M20.5701 16.9876C20.4511 17.2088 20.6756 17.3459 20.6603 17.5671C20.6055 17.9053 21.0178 18.0102 21.0505 18.3147C21.2637 18.4048 21.5337 18.5003 21.7596 18.5816C21.8438 18.6038 21.924 18.6986 22.0155 18.6274C22.1358 18.5339 22.2748 18.6549 22.4024 18.5675C22.5341 18.4774 22.6884 18.3867 22.8415 18.3685C23.1074 18.3369 23.0707 18.0384 23.2531 17.955C23.4061 17.8851 23.3921 17.7298 23.4536 17.6135C23.5311 17.4669 23.3473 17.3123 23.4683 17.1577C23.5104 16.7859 23.3714 16.4087 23.0914 16.1525C22.9992 15.9932 22.7132 16.0604 22.7045 15.8063C22.2988 15.5501 22.2387 15.8137 21.934 15.6685C21.6967 15.6671 21.4742 15.885 21.2397 15.9367C21.0953 15.9831 21.0699 16.1445 20.9409 16.1888C20.703 16.3589 20.7184 16.7415 20.5701 16.9882V16.9876Z" fill="#CC2345" fill-opacity="0.5"/>
<path d="M36.6452 9.60016C36.7575 9.7548 36.6399 9.95784 36.7521 10.1125C36.6733 10.2335 36.7281 10.3612 36.8036 10.4278C37.0602 10.655 37.2132 11.012 37.5854 11.0847C37.7652 11.1223 37.9296 11.2911 38.11 11.2171C38.2303 11.1418 38.37 11.2447 38.4956 11.1552C38.6072 11.0766 38.7395 11.0046 38.8718 10.9831C39.1371 10.9388 39.1532 10.6463 39.3463 10.5421C39.49 10.4648 39.504 10.3142 39.5307 10.1911C39.5662 10.0244 39.4499 9.83951 39.5775 9.67143C39.4659 9.08516 39.496 9.11206 39.0596 8.65151C38.8491 8.64815 38.8144 8.41755 38.648 8.33418C38.4281 8.22392 38.2076 8.37317 37.9924 8.26493C37.8641 8.23871 37.6389 8.40948 37.4926 8.45587C36.9646 8.62328 36.8042 9.11542 36.6445 9.59949L36.6452 9.60016Z" fill="#CC2345" fill-opacity="0.5"/>
<path d="M15.2215 19.479C15.2415 19.6067 15.2135 19.7506 15.2736 19.8643C15.3411 19.992 15.2549 20.1224 15.3277 20.2555C15.4046 20.3967 15.589 20.4371 15.6171 20.6092C15.7962 20.6926 15.867 20.9245 16.0989 20.9447C16.6034 21.1733 17.2436 21.1047 17.6159 20.6562C17.8497 20.6193 17.7729 20.2656 18.0275 20.2468C18.0582 20.2024 18.0823 20.113 18.103 20.0565C18.1431 19.9073 18.0014 19.7553 18.117 19.6C18.1431 19.5651 18.081 19.4736 18.0897 19.4124C18.1164 19.2215 18.0315 19.0655 17.9647 18.8988C17.9039 18.7475 17.7148 18.7105 17.6773 18.5451C17.398 18.5378 17.3586 18.1599 17.0659 18.1935C17.0024 18.1942 16.9376 18.2453 16.8761 18.2413C16.3268 18.2036 16.3341 18.2204 15.98 18.3542C15.6993 18.5075 15.4447 18.7105 15.3738 19.0212C15.3164 19.1765 15.1994 19.3385 15.2215 19.4783V19.479Z" fill="#CC2345" fill-opacity="0.5"/>
<path d="M123.537 15.1091C123.475 15.2435 123.456 15.3693 123.544 15.497C123.433 15.6274 123.592 15.7471 123.56 15.8863C123.539 15.9791 123.59 16.1552 123.661 16.1895C123.78 16.2487 123.8 16.369 123.882 16.4275C123.993 16.4833 124.031 16.5768 124.1 16.6675C124.284 16.7536 124.503 16.7953 124.681 16.8914C124.855 17.0185 125.026 16.8833 125.198 16.8894C125.363 16.8948 125.532 16.7489 125.701 16.6763C125.827 16.6225 125.847 16.4443 126.001 16.4282C126.056 16.1438 126.41 16.0759 126.364 15.7585C126.347 14.7507 126.331 14.6781 125.522 14.0737C125.407 13.946 125.228 14.0945 125.077 14.0482C124.557 13.9534 123.894 14.2344 123.678 14.7171C123.663 14.8516 123.595 14.9834 123.538 15.1091H123.537Z" fill="#CC2345" fill-opacity="0.5"/>
<path d="M100.125 6.99134C100.147 7.12043 100.116 7.28919 100.213 7.3665C100.481 7.58097 100.618 7.96622 100.99 7.99849C101.153 8.04488 101.329 8.16253 101.468 8.13295C101.618 8.0637 101.777 8.16052 101.922 8.05362C102.154 7.93327 102.36 7.86469 102.532 7.65157C102.689 7.56954 102.631 7.28246 102.873 7.26902C102.901 7.18161 102.978 7.06933 102.949 7.01286C102.873 6.86697 102.962 6.74527 102.953 6.62089C102.973 6.13279 102.792 5.97412 102.541 5.61443C102.275 5.57005 102.172 5.18145 101.882 5.24263C101.791 5.27826 101.705 5.31255 101.625 5.24801C101.49 5.13909 101.372 5.27692 101.238 5.26414C101.004 5.24129 100.817 5.41609 100.608 5.49946C100.508 5.5398 100.507 5.70519 100.369 5.71662C100.119 6.07698 99.9898 6.54828 100.125 6.99134H100.125Z" fill="#CC2345" fill-opacity="0.5"/>
<path d="M79.0768 3.1101C79.1296 3.28288 79.0501 3.47382 79.1691 3.62711C79.0013 4.00899 79.5212 4.1448 79.6455 4.42583C79.7859 4.59123 80.0746 4.59324 80.2637 4.7035C80.6359 4.83326 81.0215 4.65173 81.3422 4.46348C81.5882 4.30549 81.6704 4.02311 81.8982 3.8389C81.9998 3.7488 81.9383 3.51484 81.9283 3.39583C81.9784 3.26003 82.0158 3.1343 81.9176 3.00656C82.0205 2.85596 81.8909 2.74637 81.8488 2.62199C81.8274 2.42298 81.653 2.4129 81.5714 2.25759C81.4886 2.10094 81.2072 2.15674 81.1885 1.91403C81.1311 1.89319 80.9814 1.81385 80.9359 1.83537C80.7956 1.92412 80.6787 1.84747 80.5463 1.82797C79.7531 1.80713 79.1697 2.34835 79.0762 3.10808L79.0768 3.1101Z" fill="#CC2345" fill-opacity="0.5"/>
<path d="M42.0298 7.19969C42.1106 7.88479 42.529 8.72654 43.3469 8.69763C43.4866 8.59813 43.6075 8.78301 43.7292 8.73461C44.1722 8.55913 44.6026 8.36012 44.7142 7.81958C44.8378 7.49014 45.0249 7.1849 44.789 6.85143C44.6721 6.65377 44.64 6.38349 44.485 6.23625C44.2036 6.04599 43.7472 5.91085 43.4077 5.85303C42.9901 5.86782 42.5697 6.06145 42.3612 6.42383C42.1801 6.53342 42.1474 6.75798 42.0759 6.94421C42.0518 7.02758 41.9596 7.11027 42.0298 7.20037V7.19969Z" fill="#CC2345" fill-opacity="0.5"/>
<path d="M66.082 2.13513C65.9884 2.43028 65.8174 2.73618 65.9624 3.03671C66.0813 3.42935 66.2564 3.88384 66.6487 4.07478C66.781 4.11243 66.9126 4.16017 67.0363 4.22068C67.2047 4.3027 67.3831 4.09697 67.5562 4.25295C68.2538 4.11378 68.5291 3.71845 68.6982 3.09252C68.9862 2.62727 68.5245 2.19833 68.3901 1.75459C67.623 1.43457 67.1278 1.14412 66.388 1.71896C66.4068 1.9462 66.1267 1.94889 66.082 2.1358V2.13513Z" fill="#CC2345" fill-opacity="0.5"/>
<path d="M10.2707 23.0823C10.411 23.095 10.395 23.2678 10.4926 23.3108C10.6817 23.3942 10.8741 23.483 11.0746 23.5233C11.4295 23.4776 11.9133 23.5112 12.1806 23.2275C12.4833 23.0117 12.4439 22.9599 12.5615 22.621C12.8188 21.9682 12.6992 21.6757 12.3089 21.1527C12.2234 21.0444 12.1612 20.9409 12.0182 20.8979C11.7389 20.8589 11.4582 20.5752 11.1802 20.6834C11.0826 20.7466 10.967 20.6236 10.8608 20.719C10.7625 20.8078 10.6048 20.799 10.5173 20.9241C9.67728 21.6314 9.76282 22.2237 10.2707 23.0823Z" fill="#CC2345" fill-opacity="0.5"/>
<path d="M131.7 19.3708C131.841 19.3836 131.825 19.5564 131.922 19.5994C132.111 19.6835 132.304 19.7715 132.504 19.8119C132.859 19.7662 133.343 19.8004 133.61 19.516C133.913 19.3002 133.874 19.2491 133.991 18.9096C134.249 18.2568 134.129 17.9643 133.739 17.4413C133.653 17.333 133.591 17.2295 133.448 17.1864C133.169 17.1475 132.888 16.8637 132.61 16.972C132.512 17.0352 132.397 16.9121 132.291 17.0076C132.192 17.0964 132.035 17.0876 131.947 17.2127C131.107 17.92 131.193 18.5123 131.7 19.3708H131.7Z" fill="#CC2345" fill-opacity="0.5"/>
<path d="M92.2897 3.41852C92.424 3.62425 92.1948 3.85217 92.3291 4.05992C92.4414 4.25825 92.4935 4.50029 92.6245 4.68585C93.0147 4.90503 93.1872 5.20691 93.6616 5.10538C93.7919 5.20825 93.9115 5.07378 94.0445 5.08589C94.3827 5.09463 94.7923 4.76989 94.8812 4.43709C94.8872 4.37053 94.9266 4.30666 94.9507 4.24145C94.9908 4.0774 95.1331 3.89251 95.091 3.7251C94.9935 3.6061 95.1278 3.46021 95.0309 3.33784C94.8946 3.16573 94.9313 2.8773 94.6693 2.78654C94.5638 2.46248 94.1154 2.50618 93.8661 2.33608C93.667 2.23994 93.4819 2.34617 93.2907 2.34886C93.0154 2.38583 92.7848 2.64401 92.6312 2.86184C92.3685 2.95529 92.3953 3.22825 92.291 3.41987L92.2897 3.41852Z" fill="#CC2345" fill-opacity="0.5"/>
<path d="M47.4219 4.50589C47.5295 4.75196 47.3276 5.03568 47.5201 5.27503C47.6731 5.49084 47.6631 5.86062 48.0013 5.8855C48.0815 6.12888 48.4577 6.2351 48.6675 6.2304C48.8012 6.17863 48.9268 6.25796 49.0578 6.1867C49.1634 6.12888 49.3304 6.223 49.4307 6.11005C49.557 5.91104 49.8109 5.8855 49.9392 5.71069C50.0207 5.41621 50.2386 5.10627 50.2232 4.8044C50.1297 4.68472 50.2573 4.54152 50.1631 4.41714C50.0308 4.24233 50.0401 3.98484 49.8069 3.85508C49.73 3.81272 49.7006 3.67489 49.5763 3.6359C49.2763 3.58951 48.9736 3.291 48.6735 3.41403C48.4717 3.56598 48.1743 3.38781 48.0233 3.66817C47.7386 3.97811 47.5241 4.04803 47.4225 4.50589H47.4219Z" fill="#CC2345" fill-opacity="0.5"/>
<path d="M4.59226 24.141C4.56619 24.1988 4.53412 24.2936 4.56085 24.3292C4.64371 24.4382 4.54548 24.5545 4.59493 24.652C4.64037 24.742 4.6524 24.8214 4.60362 24.9108C4.67913 25.0547 4.72257 25.2806 4.86157 25.3781C5.00056 25.4191 4.97316 25.6403 5.14624 25.6376C5.20906 25.891 5.44161 25.8978 5.62739 25.9536C5.69555 25.9744 5.78243 25.8507 5.87799 25.9126C6.12925 26.041 6.36916 25.8023 6.63713 25.8171C6.77814 25.5199 7.20315 25.4406 7.20315 25.177C7.24458 24.8523 7.45642 24.6889 7.31541 24.4657C7.37689 23.7329 6.65384 23.1836 5.97422 23.1809C5.78644 23.2085 5.59665 23.2387 5.40352 23.2475C5.32266 23.2508 5.29727 23.4525 5.16763 23.4498C4.88362 23.4445 4.96381 23.7921 4.75932 23.8593C4.62567 23.903 4.6377 24.0415 4.59292 24.1403L4.59226 24.141Z" fill="#CC2345" fill-opacity="0.5"/>
<path d="M53.0484 1.7237C52.9528 1.98859 52.7764 2.29316 52.8706 2.56276C52.8165 2.82698 52.9542 2.99574 53.0972 3.16583C53.2208 3.37022 53.4079 3.46502 53.6405 3.52149C53.7701 3.5699 53.9171 3.5941 54.0247 3.67344C54.1864 3.79177 54.3308 3.5457 54.4764 3.68083C55.1427 3.45023 55.6038 3.00784 55.5203 2.25416C55.5236 2.1439 55.4401 2.05852 55.4748 1.9301C55.4975 1.84673 55.4167 1.7163 55.3512 1.63159C54.8246 1.0312 54.3074 0.792529 53.5703 1.15827C53.3939 1.18651 53.3591 1.3835 53.2088 1.43729C53.0764 1.48502 53.0911 1.62419 53.0477 1.72437L53.0484 1.7237Z" fill="#CC2345" fill-opacity="0.5"/>
<path d="M84.5234 0.881256C84.6143 1.02379 84.5254 1.18313 84.6016 1.33776C84.7627 1.57644 84.9157 1.86151 85.1997 1.92403C85.8914 2.27364 86.4661 2.14859 86.9659 1.66048C87.1023 1.55761 87.0815 1.36466 87.1724 1.23826C87.3141 0.967313 87.1818 0.681576 87.1811 0.398528C87.1624 0.264735 87.1383 0.131615 86.9987 0.0623658C86.8784 0.00320125 86.8844 -0.18841 86.7233 -0.205891C85.8406 -1.14177 84.5796 -0.166897 84.5248 0.881256H84.5234Z" fill="#CC2345" fill-opacity="0.5"/>
<path d="M71.6272 1.16237C71.8457 1.49652 72.2787 1.53215 72.6262 1.68477C72.6643 1.69754 72.7238 1.7009 72.7512 1.67939C72.8701 1.58661 73.0118 1.71099 73.1368 1.61955C73.3139 1.48979 73.5718 1.48912 73.6894 1.25582C74.0062 1.08909 74.1271 0.525679 74.0456 0.181449C73.9607 -0.0585703 74.0329 -0.24077 73.8184 -0.404144C73.239 -1.26203 72.1518 -1.20354 71.5951 -0.347669C71.5443 -0.169503 71.4929 0.0147134 71.3993 0.171365C71.3017 0.471221 71.3973 0.944539 71.6272 1.16237Z" fill="#CC2345" fill-opacity="0.5"/>
<path d="M139.231 21.1714C139.138 21.6043 139.248 21.8793 139.567 22.2464C139.78 22.4474 140.429 22.7022 140.745 22.6249C141.336 22.5073 141.807 22.124 141.924 21.5122C141.827 21.3757 141.914 21.2103 141.85 21.0624C141.799 20.9455 141.88 20.7982 141.78 20.6799C141.52 20.419 141.315 20.0573 140.927 20.0008C140.827 19.9612 140.722 19.8529 140.609 19.9302C140.484 20.0156 140.347 19.8966 140.222 19.9901C140.047 20.1212 139.797 20.1239 139.663 20.3491C139.4 20.5185 139.366 20.8964 139.231 21.1714H139.231Z" fill="#CC2345" fill-opacity="0.5"/>
<path d="M113.335 7.03101C113.187 7.2401 113.499 7.37658 113.422 7.60719C113.41 7.64417 113.423 7.72485 113.439 7.72888C113.684 7.79006 113.609 8.08925 113.811 8.17799C114.127 8.26271 114.449 8.51954 114.777 8.4402C115.306 8.35414 115.327 8.34809 115.691 7.90369C116.397 7.56282 115.833 6.12001 115.257 5.88402C114.929 5.67762 114.832 5.88066 114.548 5.77309C114.351 5.72536 114.173 5.93714 113.981 5.96538C113.832 6.00504 113.834 6.19061 113.684 6.22086C113.573 6.24305 113.586 6.36541 113.553 6.44542C113.474 6.6377 113.406 6.83536 113.334 7.03101H113.335Z" fill="#CC2345" fill-opacity="0.5"/>
<path d="M121.179 10.0163C121.242 10.1494 121.136 10.2825 121.234 10.4049C121.37 10.577 121.333 10.8654 121.595 10.9562C121.673 11.2507 122.053 11.213 122.27 11.3576C122.467 11.4564 122.654 11.3488 122.844 11.3455C123.12 11.3078 123.35 11.051 123.504 10.8325C123.734 10.7821 123.717 10.5609 123.796 10.4055C123.694 10.1588 123.892 9.87643 123.7 9.63641C123.644 9.56649 123.602 9.47371 123.587 9.38564C123.533 9.0804 123.201 9.04409 123.059 8.82088C123.019 8.75836 122.895 8.72945 122.808 8.72407C122.496 8.70323 122.218 8.77718 121.914 8.82962C121.74 8.90627 121.644 9.05351 121.497 9.1483C121.35 9.24445 121.364 9.42934 121.29 9.56649C121.255 9.71911 121.108 9.86231 121.18 10.0163H121.179Z" fill="#CC2345" fill-opacity="0.5"/>
<path d="M105.577 3.9625C105.574 3.97191 105.584 4.46674 105.588 4.47548C105.635 4.58104 105.71 4.68256 105.725 4.79215C105.751 4.99922 105.94 5.07049 106.041 5.21168C106.21 5.37909 106.468 5.41337 106.584 5.46716C106.69 5.49002 106.783 5.6023 106.904 5.53238C107.043 5.4517 107.214 5.55927 107.35 5.44161C107.417 5.38379 107.574 5.37035 107.584 5.3179C107.616 5.131 107.876 5.16596 107.881 4.97502C108.113 4.92728 108.098 4.70609 108.176 4.55011C108.081 4.30202 108.278 4.01897 108.082 3.78232C107.957 3.51944 107.884 3.21622 107.564 3.1194C107.507 2.91367 107.112 2.77047 106.94 2.90628C106.808 2.79467 106.691 2.94326 106.557 2.92846C106.21 2.91502 105.819 3.23706 105.715 3.57121C105.697 3.70567 105.625 3.83207 105.577 3.9625Z" fill="#CC2345" fill-opacity="0.5"/>
<path d="M58.2693 0.0254186C58.2212 0.20224 58.3836 0.316534 58.407 0.469824C58.4377 0.669504 58.6235 0.744133 58.7131 0.895406C58.7906 1.02651 58.9483 1.01575 59.0626 1.07761C59.1728 1.11862 59.3051 1.21879 59.3827 1.18652C59.5557 1.1361 59.7382 1.15963 59.8919 1.09509C60.0469 1.17577 60.1492 1.04735 60.2735 1.01105C60.2614 0.808676 60.5615 0.865824 60.5568 0.660093C60.5428 0.504786 60.8401 0.470496 60.8147 0.3125C60.6377 0.0597063 60.9865 -0.148714 60.8274 -0.399491C60.363 -1.52631 60.4285 -0.846587 60.0583 -1.35823C60.0262 -1.39924 59.9266 -1.43487 59.8885 -1.41403C59.517 -1.32326 59.0786 -1.5848 58.8153 -1.15317C58.6984 -0.987774 58.4424 -0.906424 58.3803 -0.685901C58.2734 -0.246202 58.1858 -0.459327 58.27 0.0254186H58.2693Z" fill="#CC2345" fill-opacity="0.5"/>
<path d="M129.026 13.2635C129.034 13.3925 129.155 13.5115 129.182 13.644C129.218 13.8208 129.395 13.8611 129.47 14.001C129.666 14.1745 129.975 14.2531 130.14 14.2941C130.286 14.3008 130.434 14.237 130.583 14.2094C130.724 14.2303 130.913 14.1913 131.014 14.1025C131.072 14.04 131.107 13.9627 131.197 13.921C131.342 13.8538 131.268 13.5949 131.481 13.5747C131.499 13.5727 131.524 13.5532 131.531 13.5357C131.622 13.3421 131.407 13.3018 131.576 13.0221C131.712 12.7733 131.449 12.5582 131.4 12.3209C131.332 12.1017 131.191 11.9773 130.974 11.9323C130.829 11.9101 130.839 11.6721 130.692 11.6795C130.489 11.8449 130.252 11.5551 130.054 11.7319C129.703 11.5759 129.509 12.0344 129.265 12.2032C129.106 12.3108 129.11 12.5831 129.005 12.7491C128.925 12.9259 129.017 13.0934 129.026 13.2628V13.2635Z" fill="#CC2345" fill-opacity="0.5"/>
<path d="M97.7752 1.40981C97.7257 1.56512 97.858 1.66328 97.8894 1.79303C97.9396 1.99877 98.1013 2.12785 98.2222 2.28518C98.7495 2.67512 99.2119 2.60924 99.8434 2.26232C100.213 2.06533 100.425 1.09718 100.216 0.733453C100.008 0.254085 99.4291 0.0544056 98.9573 -0.0498047C98.809 -0.0141715 98.694 0.135083 98.5083 0.0624723C98.4775 0.0503705 98.4033 0.184836 98.3352 0.229209C98.2603 0.278289 98.1982 0.325352 98.1387 0.399307C98.0585 0.498139 97.9202 0.541167 97.8881 0.694457C97.8647 0.806735 97.8286 0.925065 97.7665 1.01919C97.6736 1.16038 97.8159 1.28005 97.7752 1.40846V1.40981Z" fill="#CC2345" fill-opacity="0.5"/>
<path d="M23.6507 9.06609C23.777 9.22005 23.6861 9.36796 23.6387 9.51722C23.8031 9.77405 23.7904 10.166 24.186 10.2467C24.2722 10.519 24.5388 10.5479 24.7393 10.5775C25.0701 10.6662 25.3795 10.4228 25.6856 10.3085C26.1159 10.1169 26.303 9.17164 26.0965 8.74539C25.8834 8.28821 25.3381 8.08113 24.8977 7.98096C24.7046 7.99575 24.5168 8.13895 24.3303 8.20955C24.1312 8.23106 24.0443 8.41124 23.9087 8.51882C23.7402 8.65328 23.7396 8.88456 23.6507 9.06676V9.06609Z" fill="#CC2345" fill-opacity="0.5"/>
<path d="M18.359 11.7529C18.2748 11.8826 18.4359 11.9969 18.3777 12.1441C18.3503 12.2134 18.4466 12.3505 18.5134 12.4353C18.8636 12.7761 19.1556 13.1204 19.6595 13.0289C20.2656 12.8508 20.6137 12.8044 20.7474 12.1072C20.744 11.9922 20.8991 11.8698 20.847 11.6964C20.7968 11.5283 20.8189 11.3528 20.736 11.18C20.5629 10.934 20.3952 10.7276 20.0905 10.6455C19.8987 10.5682 19.7002 10.4398 19.5091 10.4479C19.1295 10.5178 18.7687 10.8022 18.4726 11.0415C18.4005 11.2735 18.2367 11.49 18.3577 11.7535L18.359 11.7529Z" fill="#CC2345" fill-opacity="0.5"/>
<path d="M29.1076 7.28384C29.123 7.48016 29.3582 7.52588 29.4184 7.70808C29.4357 7.76119 29.5433 7.80758 29.6008 7.88221C29.7325 8.05365 29.9617 8.05432 30.1428 8.14307C30.255 8.03617 30.4034 8.12492 30.523 8.07517C30.7355 7.98642 30.9447 7.88826 31.1512 7.78539C31.7052 7.20652 31.7219 6.02525 30.8578 5.72472C30.3112 5.44504 30.0318 5.50823 29.5233 5.82624C28.968 6.12812 29.0101 6.74262 29.1083 7.28451L29.1076 7.28384Z" fill="#CC2345" fill-opacity="0.5"/>
<path d="M12.9969 13.8343C12.8826 14.0501 13.0671 14.3062 13.025 14.5395C13.013 14.7184 13.0624 14.8333 13.2114 14.9349C13.4259 15.0949 13.5242 15.3759 13.7855 15.4458C13.9545 15.5453 14.1309 15.3611 14.302 15.4821C14.4156 15.5621 14.5105 15.431 14.6154 15.4035C14.8386 15.3443 14.9963 15.185 15.1674 15.0431C15.3024 14.9308 15.2991 14.7587 15.3726 14.6202C15.4067 14.4676 15.5356 14.3358 15.4882 14.1657C15.4427 13.7119 15.3813 13.6252 15.0879 13.2924C15.0264 13.1545 14.8533 13.1727 14.7344 13.1129C14.3889 12.9434 14.2572 12.9535 13.9011 13.0221C13.7975 13.0194 13.6946 13.1418 13.5863 13.1512C13.3237 13.1754 13.3511 13.4739 13.1747 13.5593C13.0484 13.6205 13.0383 13.7327 12.9969 13.8336V13.8343Z" fill="#CC2345" fill-opacity="0.5"/>
<path d="M34.4292 4.36657C34.4546 4.91922 34.5442 5.00461 34.8856 5.29841C34.9605 5.54852 35.195 5.54045 35.3715 5.62651C35.5419 5.46448 35.7029 5.66685 35.8813 5.60701C36.7147 5.42884 37.2546 4.28724 36.6886 3.59273C36.2255 2.99974 35.3868 2.97419 34.8195 3.38834C34.7012 3.46835 34.7326 3.70231 34.5308 3.72988C34.4138 3.93427 34.3731 4.13596 34.4292 4.36724V4.36657Z" fill="#CC2345" fill-opacity="0.5"/>
<path d="M136.928 15.776C136.732 16.0725 137.085 16.3287 137.111 16.605C137.119 16.8961 137.464 16.8 137.529 17.0151C137.604 17.1247 137.799 17.2269 137.933 17.1361C137.965 17.1173 138.024 17.1146 138.057 17.1307C138.319 17.278 138.573 17.0312 138.816 16.9398C138.925 16.8739 138.966 16.7193 139.111 16.6917C139.189 16.4745 139.268 16.2574 139.348 16.0409C139.24 15.9279 139.318 15.7841 139.285 15.657C139.258 15.5541 139.258 15.4445 139.245 15.3376C139.111 15.3175 139.099 15.1528 139.02 15.1151C138.901 15.0566 138.88 14.9437 138.801 14.8758C138.736 14.8193 138.633 14.8058 138.547 14.7736C138.377 14.7373 138.228 14.5699 138.033 14.6936C137.684 14.6821 137.225 14.861 137.119 15.224C136.818 15.3303 136.874 15.5259 136.928 15.7767V15.776Z" fill="#CC2345" fill-opacity="0.5"/>
<path d="M39.7624 1.97159C39.888 2.24321 40.011 2.51618 40.1426 2.78443C40.2135 2.8315 40.3725 2.86108 40.4173 2.95319C40.4774 3.07017 40.5483 3.14278 40.6786 3.07084C41 3.04597 41.3208 3.14749 41.6328 2.96462C42.0278 2.74141 42.3412 2.26406 42.1975 1.79948C42.2717 1.61862 42.128 1.49626 42.0692 1.35642C41.9583 0.967142 41.286 0.499205 40.9138 0.669975C40.8617 0.702247 40.7514 0.629636 40.6632 0.684766C40.5857 0.733174 40.4921 0.755359 40.4159 0.805111C40.3645 0.838727 40.3378 0.932181 40.2876 0.942266C40.033 0.994707 40.0952 1.35978 39.8332 1.39877C39.7504 1.5682 39.9241 1.79612 39.7617 1.97159H39.7624Z" fill="#CC2345" fill-opacity="0.5"/>
<path d="M7.62891 16.7932C7.68036 17.0238 7.87549 17.5717 8.12943 17.6531C8.21831 17.6753 8.30318 17.7163 8.52638 17.7996C8.70681 17.9395 9.17058 17.9227 9.42118 17.8064C9.59091 17.7284 9.66776 17.5469 9.84352 17.4917C9.97182 17.1623 10.1576 16.8927 10.0554 16.5276C10.0714 16.41 9.94242 16.2802 9.91435 16.1471C9.87292 15.9521 9.6965 15.8694 9.60762 15.7181C9.52676 15.5796 9.37373 15.585 9.25077 15.5393C8.98079 15.3571 8.65268 15.4653 8.35129 15.5534C8.20094 15.6267 8.13745 15.7733 7.99912 15.8513C7.82871 16.0879 7.65764 16.5054 7.62957 16.7932H7.62891Z" fill="#CC2345" fill-opacity="0.5"/>
<path d="M45.1999 -0.697941C45.2119 -0.297909 45.2627 -0.0343583 45.5581 0.246673C45.6396 0.428873 45.8167 0.414084 45.9503 0.488039C46.3566 0.666878 46.2965 0.65074 46.7242 0.606367C46.8886 0.619813 46.9681 0.433579 47.0911 0.345505C47.3864 0.0436314 47.6263 -0.184957 47.5622 -0.598437C47.4987 -1.41733 46.9066 -1.90947 46.0867 -1.71449C45.9009 -1.7582 45.7639 -1.70643 45.6744 -1.57331C45.5888 -1.44557 45.4111 -1.41464 45.381 -1.2237C45.3529 -1.04352 45.2527 -0.875435 45.1992 -0.697941H45.1999Z" fill="#CC2345" fill-opacity="0.5"/>
<path d="M2.35622 19.2545C2.26266 19.6337 2.70372 20.2227 3.08128 20.222C3.24233 20.2825 3.39403 20.3867 3.54105 20.3807C3.97608 20.2334 4.6243 19.9854 4.68177 19.4529C4.67642 19.2982 4.65102 19.1571 4.6978 18.9977C4.7232 18.9123 4.60892 18.7933 4.58487 18.6837C4.53007 18.4356 4.32358 18.3462 4.15518 18.2023C3.88052 17.9677 3.89255 17.9549 3.51966 18.0107C3.34458 17.9139 3.21761 18.0524 3.07727 18.1096C2.9082 18.1781 2.70639 18.2299 2.59278 18.3563C2.47784 18.4841 2.44911 18.6925 2.3903 18.868C2.34887 18.9923 2.24462 19.1154 2.35756 19.2545H2.35622Z" fill="#CC2345" fill-opacity="0.5"/>
<path d="M111.074 1.52193C110.962 2.11896 111.264 2.63732 111.884 2.82826C112.291 3.15098 112.942 2.65614 113.267 2.36704C113.529 2.18216 113.301 1.83994 113.412 1.60329C113.439 1.42512 113.27 1.26645 113.236 1.09568C113.19 0.941717 113.085 0.879864 112.947 0.837507C112.758 0.643206 112.585 0.405876 112.276 0.558493C111.978 0.492606 111.772 0.723213 111.518 0.797841C111.194 0.886587 111.206 1.26914 111.074 1.52328V1.52193Z" fill="#CC2345" fill-opacity="0.5"/>
<path d="M118.879 4.91119C118.895 5.08936 118.959 5.31123 119.171 5.42014C119.355 5.72403 119.734 5.75496 120.042 5.8901C120.273 5.79194 120.504 5.67899 120.734 5.58352C120.889 5.56469 120.886 5.37644 121.03 5.32669C121.168 5.27828 121.17 5.0981 121.203 4.97237C121.241 4.82984 121.139 4.68126 121.216 4.51788C121.254 4.40762 121.097 4.2066 121.068 4.07885C121.059 3.81194 120.75 3.84354 120.666 3.66403C120.275 3.19878 119.62 3.59478 119.194 3.79312C119.025 3.90405 119.016 4.16424 118.926 4.32963C118.773 4.51116 118.862 4.72967 118.879 4.91052V4.91119Z" fill="#CC2345" fill-opacity="0.5"/>
<path d="M126.916 8.31462C127.217 8.73617 127.654 8.76978 128.03 8.72743C128.317 8.61246 128.701 8.56136 128.766 8.20301C129.159 8.02283 128.846 7.93341 128.963 7.65776L128.937 7.1441C128.887 6.94106 128.67 6.86778 128.564 6.69902L127.83 6.42404C127.575 6.36824 127.319 6.60086 127.095 6.70978C126.658 7.01972 126.547 7.88837 126.915 8.31529L126.916 8.31462Z" fill="#CC2345" fill-opacity="0.5"/>
<path d="M103.231 -1.17685C103.298 -0.743202 103.337 -0.6242 103.644 -0.30888C103.683 -0.227529 103.829 -0.197947 103.896 -0.161641C104.1 -0.11794 104.251 0.0528288 104.444 -0.0789466C104.799 -0.0533984 105.241 -0.258458 105.363 -0.608738C105.497 -0.663869 105.617 -0.75396 105.517 -0.908594C105.487 -1.22997 105.677 -1.71068 105.276 -1.91842C105.248 -2.04818 105.14 -2.07978 105.038 -2.13559C104.797 -2.38233 104.847 -2.3783 104.496 -2.33728C104.388 -2.35342 104.291 -2.43477 104.174 -2.35073C103.923 -2.24316 103.691 -2.12617 103.501 -1.92717C103.364 -1.82363 103.358 -1.64748 103.302 -1.50158C103.264 -1.40141 103.189 -1.30997 103.231 -1.17752V-1.17685Z" fill="#CC2345" fill-opacity="0.5"/>
<path d="M134.617 10.4022C134.581 10.5272 134.49 10.6516 134.585 10.7908C134.725 10.9985 134.729 11.3172 135.02 11.3636C135.189 11.5317 135.278 11.6836 135.501 11.6171C135.882 11.5539 136.327 11.6036 136.529 11.2096C136.613 10.9622 136.845 10.7343 136.695 10.4344C136.772 9.89928 136.255 9.53824 135.815 9.41521C135.664 9.27671 135.508 9.53152 135.364 9.39907C135.06 9.5974 134.375 9.96718 134.617 10.4022Z" fill="#CC2345" fill-opacity="0.5"/>
<path d="M21.4336 3.91287C21.4336 4.06078 21.5546 4.20937 21.6214 4.35795C21.6976 4.58856 21.8132 4.7795 22.0644 4.81177C22.7674 5.17415 23.7063 4.60066 23.5166 3.7979C23.5366 3.72059 23.4183 3.64798 23.4684 3.54242C23.5493 3.37165 23.3375 3.39585 23.3034 3.30173C23.27 3.21029 23.2239 3.13903 23.1209 3.11751C22.9205 2.67916 22.2716 2.79816 21.9475 3.01128C21.6408 3.17869 21.481 3.58007 21.4336 3.9122V3.91287Z" fill="#CC2345" fill-opacity="0.5"/>
<path d="M26.8126 1.51792C26.955 1.76735 26.9931 2.11831 27.2483 2.27697C27.7001 2.50086 28.3209 2.54053 28.6403 2.09074C28.8488 2.02822 28.8375 1.79357 28.913 1.64432C28.7994 1.50985 28.9036 1.33707 28.8294 1.1905C28.794 1.12125 28.8488 0.967959 28.8094 0.944428C28.653 0.85232 28.5768 0.687601 28.4412 0.581374C28.1552 0.157137 27.5096 0.422706 27.1688 0.686929C26.8962 0.870473 26.9209 1.16226 26.7886 1.3922C26.7725 1.42043 26.7959 1.47893 26.8126 1.51792Z" fill="#CC2345" fill-opacity="0.5"/>
<path d="M16.0664 6.36416C16.0718 6.51409 16.1867 6.66065 16.2542 6.80857C16.3484 7.01497 16.4025 7.26037 16.6558 7.26306C17.1777 7.4419 17.7277 7.454 17.9395 6.91009C18.2242 6.85025 18.0658 6.64519 18.0959 6.48854C18.1888 6.24314 18.0585 6.05758 17.981 5.84513C17.9877 5.5567 17.6361 5.64074 17.57 5.43165C17.558 5.394 17.5199 5.35904 17.4851 5.33685C17.3882 5.27499 17.288 5.40879 17.2365 5.37921C16.8636 5.16137 16.3471 5.56275 16.2181 5.90631C16.1847 6.06363 16.0617 6.21423 16.0671 6.36416H16.0664Z" fill="#CC2345" fill-opacity="0.5"/>
<path d="M32.2931 -0.671121C32.4234 -0.521865 32.3987 -0.226714 32.6272 -0.178979C32.9968 0.00725508 33.3924 0.00389266 33.7826 -0.162844C33.9958 -0.237472 33.9337 -0.558842 34.1843 -0.582373C34.2678 -0.698013 34.1308 -0.807601 34.1622 -0.901054C34.3019 -1.1962 34.09 -1.46917 33.9704 -1.73339C33.8882 -1.86113 33.653 -1.81071 33.6203 -2.02182C33.6156 -2.05006 33.5093 -2.07695 33.4492 -2.07829C33.3864 -2.07964 33.3055 -2.01779 33.2621 -2.03997C32.8865 -2.21881 32.6633 -1.84164 32.386 -1.70112C32.2577 -1.36765 32.0211 -1.04628 32.2938 -0.671792L32.2931 -0.671121Z" fill="#CC2345" fill-opacity="0.5"/>
<path d="M117.245 0.212385C117.393 0.262809 117.537 0.363658 117.694 0.237933C117.841 0.328697 117.953 0.217091 118.076 0.170701C118.098 -0.00880957 118.34 0.00530875 118.371 -0.170168C118.388 -0.264293 118.44 -0.326821 118.533 -0.371194C118.692 -0.445822 118.457 -0.548015 118.542 -0.654242C118.612 -0.740972 118.631 -0.854594 118.561 -0.97494C118.233 -1.82543 118.165 -1.32051 118.007 -1.70441C118.006 -1.71719 117.972 -1.73803 117.971 -1.73736C117.791 -1.55852 117.573 -1.87249 117.395 -1.69164C117.088 -1.81736 116.954 -1.53566 116.784 -1.39716C116.348 -0.91712 116.653 0.00799763 117.245 0.211712V0.212385Z" fill="#CC2345" fill-opacity="0.5"/>
<path d="M124.809 3.04555C125.094 3.17665 125.324 3.27616 125.642 3.19817C125.789 3.21229 125.889 3.03143 126.011 2.95143C126.149 2.86133 126.178 2.74502 126.228 2.62333C126.456 2.24548 126.438 1.96378 126.204 1.59602C126.149 1.39701 125.921 1.39836 125.763 1.31835C125.557 1.19599 125.346 1.20137 125.124 1.22019C125.015 1.19397 124.919 1.23565 124.876 1.29011C124.514 1.54223 124.375 1.85352 124.415 2.29994C124.409 2.63745 124.683 2.79612 124.81 3.04555H124.809Z" fill="#CC2345" fill-opacity="0.5"/>
<path d="M10.7856 8.8281C10.8664 9.25368 10.8591 9.31554 11.1718 9.63086C11.248 9.78347 11.4465 9.76801 11.5855 9.8386C11.6296 9.86079 12.102 9.81507 12.1575 9.7902C12.3533 9.65573 12.6226 9.35991 12.6614 9.12191C12.8725 8.78305 12.7249 8.39849 12.5077 8.10939C12.1528 7.8808 11.3302 7.64279 11.0629 8.1188C10.8851 8.15107 10.8871 8.31579 10.843 8.43748C10.7989 8.55917 10.7228 8.66674 10.7856 8.82743V8.8281Z" fill="#CC2345" fill-opacity="0.5"/>
<path d="M5.47443 10.9016C5.44703 11.0549 5.34211 11.1968 5.46374 11.3514C5.38221 11.4691 5.44703 11.5713 5.5025 11.6694C5.56598 11.7824 5.56464 11.9491 5.73906 11.9767C5.78717 12.1555 5.9529 12.1804 6.08188 12.2658C6.24894 12.376 6.38928 12.1313 6.53295 12.2732C6.73945 12.1495 7.03081 12.1131 7.17916 11.9182C7.3362 11.6089 7.37296 11.2963 7.33486 10.9527C7.18985 10.5695 6.82899 10.4014 6.45677 10.3073C6.21419 10.275 5.99434 10.4861 5.76713 10.5587C5.76245 10.7497 5.50784 10.7154 5.47443 10.9016Z" fill="#CC2345" fill-opacity="0.5"/>
<path d="M132.272 5.10872C132.234 5.24252 132.401 5.36085 132.292 5.49329C132.418 5.63314 132.554 5.78172 132.691 5.90476C132.752 6.07216 132.848 6.1078 133.005 6.02443C133.122 5.96258 133.226 6.11587 133.322 6.08494C133.517 6.02241 133.701 5.92156 133.886 5.8308C134.154 5.49598 134.238 5.00317 134.037 4.58162C133.865 4.57826 133.889 4.36648 133.759 4.31874C133.586 4.25487 133.417 4.18293 133.242 4.12982C133.042 4.09822 132.863 4.27034 132.677 4.32009C132.548 4.36245 132.518 4.46329 132.471 4.56818C132.197 4.84853 132.226 4.71609 132.272 5.1094V5.10872Z" fill="#CC2345" fill-opacity="0.5"/>
<path d="M0.164509 13.6535C0.042886 13.8606 0.236012 14.034 0.288805 14.2283C0.385702 14.5726 0.798019 14.5658 1.07067 14.7023C1.42151 14.7696 1.9628 14.3346 1.96814 13.9688C1.96681 13.4451 1.6828 12.7983 1.05463 12.8279C0.467232 12.8581 0.32155 13.1143 0.164509 13.6522V13.6535Z" fill="#CC2345" fill-opacity="0.5"/>
<path d="M130.194 0.155211C130.23 0.358253 130.411 0.366321 130.56 0.430864C130.903 0.649369 131.228 0.268161 131.469 0.0644468C131.572 -0.0276617 131.406 -0.150024 131.448 -0.2502C131.574 -0.545351 131.501 -0.734946 131.191 -0.829743C131.086 -0.888236 131.065 -1.12355 130.905 -1.05497C130.698 -0.97631 130.456 -1.02405 130.271 -0.875463C130.13 -0.761168 129.995 -0.504338 130.01 -0.346342C130.053 -0.178934 129.901 0.0805823 130.194 0.154538V0.155211Z" fill="#CC2345" fill-opacity="0.5"/>
<path d="M13.9926 1.12057C14.1162 1.31084 14.133 1.57506 14.3815 1.63826C14.5366 1.74382 14.6809 1.63087 14.8293 1.64969C15.1774 1.68398 15.1968 1.45606 15.3164 1.14276C15.3211 1.12528 15.4133 0.978039 15.3806 0.86845C15.3191 0.664064 15.2657 0.421356 14.989 0.362863C14.7919 0.323869 14.6201 0.157133 14.4143 0.266722C14.2559 0.306389 14.2325 0.524221 14.0568 0.541702C14.0073 0.730625 13.8436 0.902739 13.9933 1.12057H13.9926Z" fill="#CC2345" fill-opacity="0.5"/>
<path d="M138.169 3.21236C138.39 3.50953 138.627 3.30918 138.885 3.20833C139.131 3.14849 139.32 2.70274 139.243 2.4802C139.173 2.36389 139.142 2.18572 139.043 2.13328C138.714 1.91209 138.438 1.94167 138.091 2.15816C137.882 2.25834 137.854 2.31817 137.886 2.58979C137.915 2.83093 138.009 3.03846 138.169 3.21236Z" fill="#CC2345" fill-opacity="0.5"/>
<path d="M8.65876 3.5034C8.64005 3.82275 8.88597 3.95655 9.07976 4.11858C9.23948 4.25237 9.37714 4.08967 9.52149 4.04193C9.72531 3.96932 9.90974 3.88125 9.94316 3.64593C9.96989 3.53702 10.0474 3.41062 10.016 3.32456C9.96254 2.89091 9.42993 2.59038 9.03165 2.85259C8.67346 2.99781 8.54248 3.10202 8.65809 3.5034H8.65876Z" fill="#CC2345" fill-opacity="0.5"/>
<path d="M3.78111 6.46431C4.05643 6.64046 4.4193 6.46835 4.56698 6.18731C4.65586 5.98494 4.53624 5.79737 4.58436 5.6071C4.40326 5.52844 4.35314 5.30052 4.13529 5.24203C3.38684 5.04167 3.03867 6.28278 3.78111 6.46364V6.46431Z" fill="#CC2345" fill-opacity="0.5"/>
</g>
</svg>
