<svg width="151" height="48" viewBox="0 0 151 48" fill="none" xmlns="http://www.w3.org/2000/svg">
<path d="M90.4324 47.9801C89.4772 47.9801 88.6403 47.8013 87.9216 47.4436C87.212 47.0859 86.6662 46.5823 86.2841 45.9328C85.902 45.2834 85.7109 44.535 85.7109 43.6879C85.7109 42.5678 85.9566 41.5606 86.4478 40.6664C86.9482 39.7627 87.6487 39.0521 88.5493 38.5344C89.4499 38.0167 90.4825 37.7578 91.6469 37.7578C92.5021 37.7578 93.2571 37.9084 93.9121 38.2096C94.5671 38.5108 95.0629 38.9438 95.3995 39.5086L93.803 40.864C93.2935 40.0922 92.5248 39.7063 91.4968 39.7063C90.7963 39.7063 90.1777 39.8757 89.641 40.2146C89.1042 40.5534 88.6857 41.0146 88.3855 41.5982C88.0944 42.1818 87.9489 42.8313 87.9489 43.5467C87.9489 44.3091 88.1809 44.9163 88.6448 45.3681C89.1179 45.8105 89.7774 46.0317 90.6235 46.0317C91.6333 46.0317 92.4793 45.6505 93.1616 44.888L94.4716 46.2717C93.5255 47.4107 92.1791 47.9801 90.4324 47.9801Z" fill="url(#paint0_linear_1944_8899)" fill-opacity="0.35"/>
<path d="M104.075 45.6928H99.626L98.3843 47.8107H96.0235L102.205 37.9272H104.388L106.736 47.8107H104.525L104.075 45.6928ZM103.706 43.9562L102.901 40.144L100.649 43.9562H103.706Z" fill="url(#paint1_linear_1944_8899)" fill-opacity="0.35"/>
<path d="M113.103 47.9801C112.348 47.9801 111.625 47.8766 110.933 47.6695C110.242 47.4624 109.687 47.1989 109.269 46.8788L110.169 45.1139C110.606 45.4434 111.097 45.6975 111.643 45.8764C112.189 46.0552 112.748 46.1446 113.321 46.1446C113.931 46.1446 114.413 46.0411 114.768 45.834C115.123 45.6269 115.3 45.3445 115.3 44.9869C115.3 44.6951 115.159 44.4739 114.877 44.3233C114.595 44.1632 114.145 43.9938 113.526 43.815C112.908 43.6267 112.403 43.4479 112.011 43.2784C111.62 43.0996 111.279 42.836 110.988 42.4878C110.706 42.1395 110.565 41.6783 110.565 41.1041C110.565 40.4358 110.742 39.8475 111.097 39.3392C111.461 38.8309 111.97 38.4402 112.625 38.1673C113.29 37.8943 114.058 37.7578 114.932 37.7578C115.578 37.7578 116.187 37.8331 116.76 37.9837C117.333 38.1249 117.825 38.332 118.234 38.605L117.402 40.3558C117.047 40.1016 116.646 39.9133 116.201 39.791C115.755 39.6592 115.291 39.5933 114.809 39.5933C114.181 39.5933 113.685 39.7063 113.321 39.9322C112.958 40.1581 112.776 40.4499 112.776 40.8076C112.776 41.0241 112.853 41.2076 113.008 41.3582C113.162 41.4994 113.358 41.6171 113.594 41.7112C113.831 41.7959 114.163 41.8995 114.591 42.0218C115.2 42.1912 115.7 42.3654 116.092 42.5442C116.483 42.7137 116.815 42.9678 117.088 43.3067C117.37 43.6361 117.511 44.0738 117.511 44.6198C117.511 45.2975 117.329 45.8905 116.965 46.3988C116.601 46.8977 116.087 47.2883 115.423 47.5707C114.759 47.8436 113.986 47.9801 113.103 47.9801Z" fill="url(#paint2_linear_1944_8899)" fill-opacity="0.35"/>
<path d="M122.433 37.9272H124.657L122.747 47.8107H120.522L122.433 37.9272Z" fill="url(#paint3_linear_1944_8899)" fill-opacity="0.35"/>
<path d="M137.718 37.9272L135.807 47.8107H133.993L130.431 41.6265L129.23 47.8107H127.047L128.957 37.9272H130.786L134.347 44.1256L135.535 37.9272H137.718Z" fill="url(#paint4_linear_1944_8899)" fill-opacity="0.35"/>
<path d="M145.068 47.9801C144.113 47.9801 143.285 47.8013 142.584 47.4436C141.884 47.0859 141.347 46.5823 140.974 45.9328C140.601 45.2834 140.415 44.535 140.415 43.6879C140.415 42.5678 140.66 41.5606 141.151 40.6664C141.652 39.7627 142.348 39.0521 143.239 38.5344C144.14 38.0167 145.168 37.7578 146.323 37.7578C147.278 37.7578 148.106 37.9367 148.807 38.2943C149.507 38.652 150.044 39.1556 150.417 39.8051C150.79 40.4546 150.977 41.2029 150.977 42.0501C150.977 43.1702 150.726 44.1821 150.226 45.0857C149.735 45.9799 149.039 46.6859 148.138 47.2036C147.247 47.7213 146.223 47.9801 145.068 47.9801ZM145.259 46.0317C145.959 46.0317 146.573 45.8575 147.101 45.5093C147.629 45.161 148.034 44.6951 148.316 44.1115C148.598 43.5279 148.739 42.8831 148.739 42.1771C148.739 41.4241 148.511 40.8264 148.056 40.384C147.601 39.9322 146.96 39.7063 146.132 39.7063C145.432 39.7063 144.818 39.8804 144.29 40.2287C143.762 40.577 143.358 41.0429 143.076 41.6265C142.794 42.2101 142.653 42.8549 142.653 43.5608C142.653 44.3138 142.88 44.9163 143.335 45.3681C143.79 45.8105 144.431 46.0317 145.259 46.0317Z" fill="url(#paint5_linear_1944_8899)" fill-opacity="0.35"/>
<path d="M77.332 0.015625L67.2305 15.5059C75.2762 29.8294 91.839 29.581 99.8633 16.419L91.1491 0.015625L87.8587 8.81325H80.2347L77.332 0.015625ZM76.735 14.1507C78.271 14.0953 80.0154 14.9734 81.3639 18.2689C75.9321 20.6322 73.1302 15.835 73.1302 15.835C73.1302 15.835 74.4183 14.5605 76.0913 14.2273C76.3036 14.1844 76.5188 14.1588 76.735 14.1507ZM90.3588 14.1507C90.5751 14.1588 90.7903 14.1844 91.0027 14.2273C92.6757 14.5605 93.9635 15.835 93.9635 15.835C93.9635 15.835 91.1621 20.6322 85.7303 18.2691C87.0786 14.9734 88.8229 14.0956 90.3588 14.1507ZM74.4893 26.2994L68.9041 33.7028H73.1302L81.3639 42.0844L87.8939 33.7028H91.0413L90.1986 27.5973C85.3023 29.3371 79.6519 29.1327 74.4893 26.2994Z" fill="url(#paint6_linear_1944_8899)"/>
<path d="M99.0781 25.9807C99.0781 24.2193 99.2794 22.4956 99.682 20.8097C100.11 19.0987 100.701 17.4883 101.456 15.9785C102.211 14.4436 103.104 13.0471 104.136 11.7889C105.193 10.5056 106.338 9.39848 107.571 8.46747C108.829 7.53645 110.162 6.81931 111.571 6.31606C112.98 5.78765 114.427 5.52344 115.912 5.52344C117.648 5.52344 118.994 5.8883 119.951 6.61801C120.932 7.34773 121.423 8.36682 121.423 9.67527C121.423 10.1785 121.347 10.6944 121.196 11.2228C121.07 11.7512 120.869 12.2796 120.592 12.808C120.341 13.3113 120.039 13.8019 119.686 14.28C119.334 14.7581 118.944 15.1733 118.516 15.5256C117.862 15.4249 117.296 15.1356 116.818 14.6575C116.34 14.1542 116.038 13.5755 115.912 12.9213C116.793 12.1915 117.485 11.4367 117.988 10.6566C118.516 9.85141 118.78 9.1217 118.78 8.46747C118.78 7.36031 118.088 6.80673 116.705 6.80673C116.126 6.80673 115.522 6.93254 114.893 7.18417C114.289 7.41063 113.672 7.73775 113.043 8.16551C112.414 8.59328 111.798 9.10911 111.194 9.71302C110.615 10.3169 110.074 10.9837 109.571 11.7134C106.073 16.746 104.325 21.8917 104.325 27.1507C104.325 29.0128 104.614 30.5099 105.193 31.6423C105.771 32.7746 106.539 33.4414 107.495 33.6427C108.577 33.3911 109.948 32.6991 111.609 31.5668C113.27 30.4344 115.082 28.9624 117.044 27.1507C117.296 27.4023 117.447 27.6666 117.497 27.9433C116.767 28.8995 116.013 29.818 115.233 30.6987C114.452 31.5793 113.672 32.3846 112.892 33.1143C112.138 33.844 111.383 34.4856 110.628 35.0392C109.898 35.5928 109.219 36.0206 108.59 36.3225C105.469 36.2722 103.104 35.3789 101.494 33.6427C99.8833 31.9065 99.0781 29.3525 99.0781 25.9807Z" fill="url(#paint7_linear_1944_8899)"/>
<path d="M133.18 18.1299C133.432 18.1299 133.721 18.1802 134.048 18.2809C134.401 18.3564 134.715 18.4696 134.992 18.6206C135.269 18.7464 135.495 18.8848 135.671 19.0358C135.873 19.1867 135.973 19.3251 135.973 19.451C135.47 20.5078 135.005 21.5772 134.577 22.6592C134.149 23.716 133.784 24.7351 133.482 25.7165C133.18 26.6978 132.941 27.6162 132.765 28.4718C132.614 29.3273 132.539 30.0696 132.539 30.6987C132.539 31.4032 132.614 31.9945 132.765 32.4726C132.916 32.9255 133.168 33.2527 133.52 33.454C133.218 33.6553 132.828 33.8188 132.35 33.9446C131.872 34.0704 131.444 34.1334 131.067 34.1334C129.708 34.1334 129.029 33.2023 129.029 31.3403C129.029 29.906 129.507 27.9433 130.463 25.4522C129.96 26.6097 129.381 27.7043 128.727 28.736C128.072 29.7425 127.406 30.6357 126.726 31.4158C126.047 32.1958 125.355 32.8375 124.65 33.3407C123.971 33.8188 123.342 34.1082 122.763 34.2088C121.832 34.1585 121.077 33.7182 120.498 32.8878C119.92 32.0323 119.63 30.9503 119.63 29.6418C119.63 28.2327 119.932 26.7481 120.536 25.188C121.14 23.628 121.908 22.1811 122.839 20.8475C123.795 19.5139 124.826 18.4067 125.934 17.526C127.041 16.6202 128.11 16.1421 129.142 16.0917C129.393 16.1672 129.67 16.3182 129.972 16.5447C130.299 16.7711 130.601 17.0353 130.878 17.3373C131.18 17.6392 131.432 17.9538 131.633 18.2809C131.834 18.5828 131.947 18.8471 131.973 19.0735C130.966 19.2245 129.922 19.7152 128.84 20.5455C127.783 21.3759 126.814 22.3824 125.934 23.565C125.078 24.7225 124.373 25.9681 123.82 27.3017C123.266 28.6353 122.99 29.8809 122.99 31.0383C122.99 31.5164 123.166 31.8184 123.518 31.9442C124.248 31.7932 125.091 31.1767 126.047 30.0947C127.003 28.9876 128.16 27.2891 129.519 24.9993C129.771 24.5464 130.048 24.0431 130.35 23.4896C130.677 22.936 131.004 22.3572 131.331 21.7533C131.658 21.1494 131.973 20.5455 132.275 19.9416C132.602 19.3126 132.904 18.7087 133.18 18.1299Z" fill="url(#paint8_linear_1944_8899)"/>
<path d="M139.488 18.9225C139.363 18.7716 139.249 18.457 139.149 17.9789C139.048 17.4757 138.998 17.0479 138.998 16.6956C139.652 16.746 140.281 16.7963 140.885 16.8466C141.489 16.8718 142.042 16.8969 142.546 16.9221C142.923 16.1672 143.326 15.4249 143.753 14.6952C144.206 13.9403 144.634 13.2609 145.037 12.657C145.464 12.028 145.854 11.4996 146.207 11.0718C146.584 10.644 146.874 10.3672 147.075 10.2414C147.326 10.2414 147.641 10.2918 148.018 10.3924C148.421 10.4679 148.824 10.5811 149.226 10.7321C149.629 10.8579 149.994 10.9963 150.321 11.1473C150.648 11.2983 150.874 11.4492 151 11.6002C150.245 12.5564 149.591 13.4497 149.038 14.28C148.509 15.0852 147.93 16.0163 147.301 17.0731C147.805 17.0731 148.308 17.0605 148.811 17.0353C149.34 17.0102 149.868 16.9724 150.396 16.9221C150.522 17.0479 150.623 17.2115 150.698 17.4128C150.774 17.5889 150.812 17.7776 150.812 17.9789C149.579 18.4319 148.081 18.6835 146.32 18.7338C145.691 19.9416 145.125 21.1494 144.622 22.3572C144.143 23.5399 143.728 24.6848 143.376 25.7919C143.049 26.8991 142.785 27.9433 142.583 28.9247C142.407 29.906 142.319 30.7867 142.319 31.5668C142.319 32.6739 142.734 33.2904 143.565 33.4162C144.32 33.3156 145.037 33.1268 145.716 32.8501C146.395 32.5733 146.999 32.221 147.528 31.7932C147.679 32.0197 147.767 32.2084 147.792 32.3594C147.641 32.5859 147.377 32.8501 146.999 33.152C146.647 33.454 146.257 33.7433 145.829 34.0201C145.402 34.3221 144.986 34.5737 144.584 34.775C144.181 34.9763 143.879 35.0895 143.678 35.1147C143.049 35.0895 142.42 34.9511 141.791 34.6995C141.162 34.4479 140.583 34.1334 140.054 33.7559C139.551 33.3785 139.136 32.9633 138.809 32.5104C138.482 32.0323 138.318 31.5668 138.318 31.1138C138.318 30.5099 138.394 29.7551 138.545 28.8492C138.721 27.9182 138.96 26.9117 139.262 25.8297C139.564 24.7477 139.916 23.6154 140.319 22.4327C140.721 21.2501 141.162 20.08 141.64 18.9225H139.488Z" fill="url(#paint9_linear_1944_8899)"/>
<path d="M0 27.4844C0 25.723 0.201301 23.9993 0.603903 22.3134C1.03167 20.6024 1.62299 18.992 2.37787 17.4822C3.13275 15.9473 4.02602 14.5508 5.05769 13.2926C6.11452 12.0093 7.25942 10.9022 8.49239 9.97116C9.75052 9.04014 11.0841 8.32301 12.4932 7.81976C13.9024 7.29134 15.3492 7.02713 16.8338 7.02713C18.57 7.02713 19.9162 7.39199 20.8724 8.12171C21.8537 8.85142 22.3444 9.87051 22.3444 11.179C22.3444 11.6822 22.2689 12.1981 22.118 12.7265C21.9921 13.2549 21.7908 13.7833 21.5141 14.3117C21.2624 14.815 20.9605 15.3056 20.6082 15.7837C20.2559 16.2618 19.8659 16.677 19.4381 17.0293C18.7839 16.9286 18.2177 16.6393 17.7397 16.1612C17.2616 15.6579 16.9596 15.0792 16.8338 14.4249C17.7145 13.6952 18.4065 12.9403 18.9097 12.1603C19.4381 11.3551 19.7023 10.6254 19.7023 9.97116C19.7023 8.864 19.0104 8.31042 17.6264 8.31042C17.0477 8.31042 16.4438 8.43624 15.8147 8.68787C15.2108 8.91433 14.5943 9.24144 13.9653 9.66921C13.3362 10.097 12.7197 10.6128 12.1158 11.2167C11.5371 11.8206 10.9961 12.4874 10.4928 13.2171C6.99521 18.2497 5.24641 23.3954 5.24641 28.6544C5.24641 30.5165 5.53578 32.0136 6.11452 33.1459C6.69326 34.2783 7.46072 34.9451 8.4169 35.1464C9.49889 34.8948 10.8703 34.2028 12.531 33.0705C14.1917 31.9381 16.0034 30.4661 17.9661 28.6544C18.2177 28.906 18.3687 29.1702 18.4191 29.447C17.6893 30.4032 16.9345 31.3217 16.1544 32.2023C15.3744 33.083 14.5943 33.8882 13.8143 34.618C13.0594 35.3477 12.3045 35.9893 11.5496 36.5429C10.8199 37.0965 10.1405 37.5242 9.51148 37.8262C6.39131 37.7759 4.02602 36.8826 2.41561 35.1464C0.805204 33.4102 0 30.8561 0 27.4844Z" fill="url(#paint10_linear_1944_8899)"/>
<path d="M25.3501 36.2032C23.9158 36.0522 22.7709 35.4232 21.9154 34.316C21.0598 33.2089 20.6321 31.7997 20.6321 30.0887C20.6321 29.0822 20.7831 28.0379 21.085 26.9559C21.387 25.8739 21.8147 24.8297 22.3683 23.8232C22.9219 22.7915 23.5761 21.8228 24.331 20.9169C25.0859 20.0111 25.9037 19.231 26.7843 18.5768C28.1683 17.5451 29.4642 17.0293 30.672 17.0293C31.4772 17.457 32.2698 18.3503 33.0498 19.7091C33.1757 19.7091 33.2889 19.7091 33.3895 19.7091C33.4902 19.6839 33.6034 19.6714 33.7292 19.6714C35.0629 19.6714 35.7297 20.854 35.7297 23.2193C35.7297 24.8045 35.4655 26.3143 34.937 27.7486C34.4338 29.1577 33.7167 30.441 32.7856 31.5984C31.8798 32.7559 30.7852 33.7373 29.5019 34.5425C28.2438 35.3225 26.8598 35.8761 25.3501 36.2032ZM27.275 24.3139C26.8473 24.8926 26.4447 25.5217 26.0672 26.2011C25.6898 26.8804 25.3627 27.5724 25.0859 28.277C24.8091 28.9564 24.5952 29.6232 24.4442 30.2774C24.2932 30.9065 24.2178 31.4726 24.2178 31.9759C24.2178 32.5798 24.3184 33.1585 24.5197 33.7121C24.721 34.2657 24.9475 34.5802 25.1991 34.6557C26.3314 34.4041 27.3631 33.9386 28.2941 33.2592C29.2503 32.5546 30.0681 31.6865 30.7475 30.6548C31.452 29.6232 31.993 28.4531 32.3704 27.1447C32.7731 25.8362 32.9744 24.4397 32.9744 22.9551C32.9744 22.3008 32.9366 21.785 32.8611 21.4076C32.7856 21.0301 32.6598 20.703 32.4837 20.4262C31.3765 20.7533 30.3826 21.2818 29.5019 22.0115C28.6464 22.7412 27.9041 23.5087 27.275 24.3139Z" fill="url(#paint11_linear_1944_8899)"/>
<path d="M42.0105 36.2032C40.5762 36.0522 39.4313 35.4232 38.5758 34.316C37.7203 33.2089 37.2925 31.7997 37.2925 30.0887C37.2925 29.0822 37.4435 28.0379 37.7454 26.9559C38.0474 25.8739 38.4751 24.8297 39.0287 23.8232C39.5823 22.7915 40.2365 21.8228 40.9914 20.9169C41.7463 20.0111 42.5641 19.231 43.4448 18.5768C44.8287 17.5451 46.1246 17.0293 47.3324 17.0293C48.1376 17.457 48.9302 18.3503 49.7103 19.7091C49.8361 19.7091 49.9493 19.7091 50.05 19.7091C50.1506 19.6839 50.2638 19.6714 50.3897 19.6714C51.7233 19.6714 52.3901 20.854 52.3901 23.2193C52.3901 24.8045 52.1259 26.3143 51.5975 27.7486C51.0942 29.1577 50.3771 30.441 49.4461 31.5984C48.5402 32.7559 47.4456 33.7373 46.1623 34.5425C44.9042 35.3225 43.5203 35.8761 42.0105 36.2032ZM43.9354 24.3139C43.5077 24.8926 43.1051 25.5217 42.7276 26.2011C42.3502 26.8804 42.0231 27.5724 41.7463 28.277C41.4695 28.9564 41.2556 29.6232 41.1046 30.2774C40.9537 30.9065 40.8782 31.4726 40.8782 31.9759C40.8782 32.5798 40.9788 33.1585 41.1801 33.7121C41.3814 34.2657 41.6079 34.5802 41.8595 34.6557C42.9918 34.4041 44.0235 33.9386 44.9545 33.2592C45.9107 32.5546 46.7285 31.6865 47.4079 30.6548C48.1124 29.6232 48.6534 28.4531 49.0309 27.1447C49.4335 25.8362 49.6348 24.4397 49.6348 22.9551C49.6348 22.3008 49.597 21.785 49.5215 21.4076C49.446 21.0301 49.3202 20.703 49.1441 20.4262C48.0369 20.7533 47.043 21.2818 46.1623 22.0115C45.3068 22.7412 44.5645 23.5087 43.9354 24.3139Z" fill="url(#paint12_linear_1944_8899)"/>
<path d="M54.1794 32.4666C54.1794 31.3594 54.4436 29.8119 54.972 27.824C55.5004 25.811 56.2427 23.4709 57.1989 20.8037C58.759 16.5512 60.2184 13.0158 61.5772 10.1976C62.9611 7.35425 64.3073 5.13993 65.6158 3.55469C65.9177 3.60501 66.2826 3.73083 66.7104 3.93213C67.1633 4.13343 67.6036 4.35989 68.0314 4.61152C68.4592 4.83798 68.8366 5.07703 69.1637 5.32865C69.516 5.58028 69.7425 5.78158 69.8431 5.93256C67.8804 8.24752 66.1568 10.7386 64.6722 13.4059C63.1876 16.0731 61.8288 19.1304 60.5959 22.5776C59.539 25.5468 58.7338 28.2267 58.1802 30.6171C57.6267 32.9824 57.3499 34.9577 57.3499 36.5429C57.3499 36.9707 57.3499 37.2349 57.3499 37.3355C57.3499 37.4362 57.3625 37.5368 57.3876 37.6375C57.0353 37.5872 56.7334 37.4991 56.4818 37.3733C56.2301 37.2475 56.0666 37.0965 55.9911 36.9203C55.9408 36.7945 55.8024 36.6058 55.5759 36.3542C55.3494 36.1277 55.1481 35.9516 54.972 35.8258C54.7455 35.6748 54.5568 35.2848 54.4058 34.6557C54.2549 34.0015 54.1794 33.2718 54.1794 32.4666Z" fill="url(#paint13_linear_1944_8899)"/>
<defs>
<linearGradient id="paint0_linear_1944_8899" x1="118.344" y1="37.7578" x2="118.344" y2="47.9801" gradientUnits="userSpaceOnUse">
<stop stop-color="white"/>
<stop offset="1" stop-color="#999999"/>
</linearGradient>
<linearGradient id="paint1_linear_1944_8899" x1="118.344" y1="37.7578" x2="118.344" y2="47.9801" gradientUnits="userSpaceOnUse">
<stop stop-color="white"/>
<stop offset="1" stop-color="#999999"/>
</linearGradient>
<linearGradient id="paint2_linear_1944_8899" x1="118.344" y1="37.7578" x2="118.344" y2="47.9801" gradientUnits="userSpaceOnUse">
<stop stop-color="white"/>
<stop offset="1" stop-color="#999999"/>
</linearGradient>
<linearGradient id="paint3_linear_1944_8899" x1="118.344" y1="37.7578" x2="118.344" y2="47.9801" gradientUnits="userSpaceOnUse">
<stop stop-color="white"/>
<stop offset="1" stop-color="#999999"/>
</linearGradient>
<linearGradient id="paint4_linear_1944_8899" x1="118.344" y1="37.7578" x2="118.344" y2="47.9801" gradientUnits="userSpaceOnUse">
<stop stop-color="white"/>
<stop offset="1" stop-color="#999999"/>
</linearGradient>
<linearGradient id="paint5_linear_1944_8899" x1="118.344" y1="37.7578" x2="118.344" y2="47.9801" gradientUnits="userSpaceOnUse">
<stop stop-color="white"/>
<stop offset="1" stop-color="#999999"/>
</linearGradient>
<linearGradient id="paint6_linear_1944_8899" x1="83.6855" y1="0.0156249" x2="77.8593" y2="40.9005" gradientUnits="userSpaceOnUse">
<stop offset="0.424528" stop-color="white"/>
<stop offset="1" stop-color="#999999"/>
</linearGradient>
<linearGradient id="paint7_linear_1944_8899" x1="125.26" y1="5.52344" x2="123.228" y2="36.2172" gradientUnits="userSpaceOnUse">
<stop offset="0.424528" stop-color="white"/>
<stop offset="1" stop-color="#999999"/>
</linearGradient>
<linearGradient id="paint8_linear_1944_8899" x1="125.26" y1="5.52344" x2="123.228" y2="36.2172" gradientUnits="userSpaceOnUse">
<stop offset="0.424528" stop-color="white"/>
<stop offset="1" stop-color="#999999"/>
</linearGradient>
<linearGradient id="paint9_linear_1944_8899" x1="125.26" y1="5.52344" x2="123.228" y2="36.2172" gradientUnits="userSpaceOnUse">
<stop offset="0.424528" stop-color="white"/>
<stop offset="1" stop-color="#999999"/>
</linearGradient>
<linearGradient id="paint10_linear_1944_8899" x1="35.2184" y1="3.55469" x2="33.3458" y2="37.7562" gradientUnits="userSpaceOnUse">
<stop offset="0.424528" stop-color="white"/>
<stop offset="1" stop-color="#999999"/>
</linearGradient>
<linearGradient id="paint11_linear_1944_8899" x1="35.2184" y1="3.55469" x2="33.3458" y2="37.7562" gradientUnits="userSpaceOnUse">
<stop offset="0.424528" stop-color="white"/>
<stop offset="1" stop-color="#999999"/>
</linearGradient>
<linearGradient id="paint12_linear_1944_8899" x1="35.2184" y1="3.55469" x2="33.3458" y2="37.7562" gradientUnits="userSpaceOnUse">
<stop offset="0.424528" stop-color="white"/>
<stop offset="1" stop-color="#999999"/>
</linearGradient>
<linearGradient id="paint13_linear_1944_8899" x1="35.2184" y1="3.55469" x2="33.3458" y2="37.7562" gradientUnits="userSpaceOnUse">
<stop offset="0.424528" stop-color="white"/>
<stop offset="1" stop-color="#999999"/>
</linearGradient>
</defs>
</svg>
