<svg width="200" height="31" viewBox="0 0 200 31" fill="none" xmlns="http://www.w3.org/2000/svg">
<path d="M0.453125 29.8066V1.25195H5.76562V25.1582H13.1289V29.8066H0.453125Z" fill="white"/>
<path d="M36.1953 15.4902C36.1953 20.2168 35.3099 23.8496 33.5391 26.3887C31.7682 28.9277 29.2357 30.1973 25.9414 30.1973C22.6341 30.1973 20.0951 28.9342 18.3242 26.4082C16.5534 23.8691 15.668 20.2168 15.668 15.4512C15.668 10.7246 16.5534 7.10482 18.3242 4.5918C20.0951 2.06576 22.6471 0.802734 25.9805 0.802734C29.2747 0.802734 31.8008 2.07227 33.5586 4.61133C35.3164 7.13737 36.1953 10.7637 36.1953 15.4902ZM21.0977 15.4902C21.0977 18.7454 21.5078 21.2259 22.3281 22.9316C23.1484 24.6374 24.3529 25.4902 25.9414 25.4902C29.1445 25.4902 30.7461 22.1569 30.7461 15.4902C30.7461 8.82357 29.1576 5.49023 25.9805 5.49023C24.3659 5.49023 23.1484 6.3431 22.3281 8.04883C21.5078 9.74154 21.0977 12.222 21.0977 15.4902Z" fill="white"/>
<path d="M60.0234 15.4902C60.0234 20.2168 59.138 23.8496 57.3672 26.3887C55.5964 28.9277 53.0638 30.1973 49.7695 30.1973C46.4622 30.1973 43.9232 28.9342 42.1523 26.4082C40.3815 23.8691 39.4961 20.2168 39.4961 15.4512C39.4961 10.7246 40.3815 7.10482 42.1523 4.5918C43.9232 2.06576 46.4753 0.802734 49.8086 0.802734C53.1029 0.802734 55.6289 2.07227 57.3867 4.61133C59.1445 7.13737 60.0234 10.7637 60.0234 15.4902ZM44.9258 15.4902C44.9258 18.7454 45.3359 21.2259 46.1562 22.9316C46.9766 24.6374 48.181 25.4902 49.7695 25.4902C52.9727 25.4902 54.5742 22.1569 54.5742 15.4902C54.5742 8.82357 52.9857 5.49023 49.8086 5.49023C48.194 5.49023 46.9766 6.3431 46.1562 8.04883C45.3359 9.74154 44.9258 12.222 44.9258 15.4902Z" fill="white"/>
<path d="M72.4258 29.8066H67.1328V5.91992H61.6641V1.25195H77.8945V5.91992H72.4258V29.8066Z" fill="white"/>
<path d="M95.9297 5.49023C94.4062 5.49023 93.2018 6.38216 92.3164 8.16602C91.444 9.94987 91.0078 12.4303 91.0078 15.6074C91.0078 22.222 92.7331 25.5293 96.1836 25.5293C97.694 25.5293 99.276 25.0475 100.93 24.084V28.8105C99.5365 29.735 97.7526 30.1973 95.5781 30.1973C92.362 30.1973 89.888 28.9212 88.1562 26.3691C86.4375 23.804 85.5781 20.2038 85.5781 15.5684C85.5781 10.9329 86.4635 7.31966 88.2344 4.72852C90.0182 2.13737 92.4922 0.841797 95.6562 0.841797C96.6979 0.841797 97.694 0.985026 98.6445 1.27148C99.6081 1.55794 100.637 2.05924 101.73 2.77539L99.9727 7.0918C99.3867 6.68815 98.7617 6.32357 98.0977 5.99805C97.4336 5.65951 96.7109 5.49023 95.9297 5.49023Z" fill="url(#paint0_linear_2841_3384)"/>
<path d="M118.488 29.8066L116.848 22.5996H109.406L107.766 29.8066H102.453L109.523 1.13477H116.73L123.82 29.8066H118.488ZM115.852 17.8926L114.328 11.252C114.237 10.8483 114.029 9.83919 113.703 8.22461C113.391 6.59701 113.202 5.50977 113.137 4.96289C112.967 6.08268 112.753 7.31966 112.492 8.67383C112.232 10.015 111.555 13.0879 110.461 17.8926H115.852Z" fill="url(#paint1_linear_2841_3384)"/>
<path d="M139.348 21.9355C139.348 24.6048 138.671 26.6491 137.316 28.0684C135.975 29.4876 134.035 30.1973 131.496 30.1973C129.009 30.1973 126.893 29.709 125.148 28.7324V23.4785C127.284 24.8717 129.243 25.5684 131.027 25.5684C132.043 25.5684 132.805 25.2884 133.312 24.7285C133.833 24.1686 134.094 23.4069 134.094 22.4434C134.094 21.4928 133.788 20.627 133.176 19.8457C132.564 19.0514 131.555 18.1725 130.148 17.209C128.924 16.3626 127.993 15.5553 127.355 14.7871C126.73 14.0059 126.242 13.1335 125.891 12.1699C125.552 11.2064 125.383 10.0866 125.383 8.81055C125.383 6.36263 126.06 4.42253 127.414 2.99023C128.781 1.55794 130.611 0.841797 132.902 0.841797C135.09 0.841797 137.193 1.45378 139.211 2.67773L137.453 6.93555C136.828 6.57096 136.171 6.24544 135.48 5.95898C134.803 5.67253 134.074 5.5293 133.293 5.5293C132.434 5.5293 131.77 5.81576 131.301 6.38867C130.845 6.94857 130.617 7.7168 130.617 8.69336C130.617 9.6569 130.891 10.4967 131.438 11.2129C131.997 11.929 132.967 12.7428 134.348 13.6543C136.21 14.9043 137.505 16.1803 138.234 17.4824C138.977 18.7845 139.348 20.2689 139.348 21.9355Z" fill="url(#paint2_linear_2841_3384)"/>
<path d="M143.82 29.8066V1.25195H148.82V29.8066H143.82Z" fill="url(#paint3_linear_2841_3384)"/>
<path d="M174.855 29.8066H168.371L159.543 9.12305H159.289C159.615 10.6986 159.777 12.3913 159.777 14.2012V29.8066H154.855V1.25195H161.379L170.129 21.7207H170.344C170.096 20.3535 169.973 18.7259 169.973 16.8379V1.25195H174.855V29.8066Z" fill="url(#paint4_linear_2841_3384)"/>
<path d="M199.543 15.4902C199.543 20.2168 198.658 23.8496 196.887 26.3887C195.116 28.9277 192.583 30.1973 189.289 30.1973C185.982 30.1973 183.443 28.9342 181.672 26.4082C179.901 23.8691 179.016 20.2168 179.016 15.4512C179.016 10.7246 179.901 7.10482 181.672 4.5918C183.443 2.06576 185.995 0.802734 189.328 0.802734C192.622 0.802734 195.148 2.07227 196.906 4.61133C198.664 7.13737 199.543 10.7637 199.543 15.4902ZM184.445 15.4902C184.445 18.7454 184.855 21.2259 185.676 22.9316C186.496 24.6374 187.701 25.4902 189.289 25.4902C192.492 25.4902 194.094 22.1569 194.094 15.4902C194.094 8.82357 192.505 5.49023 189.328 5.49023C187.714 5.49023 186.496 6.3431 185.676 8.04883C184.855 9.74154 184.445 12.222 184.445 15.4902Z" fill="url(#paint5_linear_2841_3384)"/>
<defs>
<linearGradient id="paint0_linear_2841_3384" x1="142.561" y1="0.802734" x2="142.561" y2="30.1973" gradientUnits="userSpaceOnUse">
<stop stop-color="#FADE7B"/>
<stop offset="0.649038" stop-color="#F4BF51"/>
</linearGradient>
<linearGradient id="paint1_linear_2841_3384" x1="142.561" y1="0.802734" x2="142.561" y2="30.1973" gradientUnits="userSpaceOnUse">
<stop stop-color="#FADE7B"/>
<stop offset="0.649038" stop-color="#F4BF51"/>
</linearGradient>
<linearGradient id="paint2_linear_2841_3384" x1="142.561" y1="0.802734" x2="142.561" y2="30.1973" gradientUnits="userSpaceOnUse">
<stop stop-color="#FADE7B"/>
<stop offset="0.649038" stop-color="#F4BF51"/>
</linearGradient>
<linearGradient id="paint3_linear_2841_3384" x1="142.561" y1="0.802734" x2="142.561" y2="30.1973" gradientUnits="userSpaceOnUse">
<stop stop-color="#FADE7B"/>
<stop offset="0.649038" stop-color="#F4BF51"/>
</linearGradient>
<linearGradient id="paint4_linear_2841_3384" x1="142.561" y1="0.802734" x2="142.561" y2="30.1973" gradientUnits="userSpaceOnUse">
<stop stop-color="#FADE7B"/>
<stop offset="0.649038" stop-color="#F4BF51"/>
</linearGradient>
<linearGradient id="paint5_linear_2841_3384" x1="142.561" y1="0.802734" x2="142.561" y2="30.1973" gradientUnits="userSpaceOnUse">
<stop stop-color="#FADE7B"/>
<stop offset="0.649038" stop-color="#F4BF51"/>
</linearGradient>
</defs>
</svg>
