<svg width="163" height="18" viewBox="0 0 163 18" fill="none" xmlns="http://www.w3.org/2000/svg">
<path d="M69.5787 8.96273H72.1876C74.4201 8.96273 75.9503 8.26035 75.9503 6.35389C75.9503 4.29692 74.4201 3.51929 72.1876 3.51929H69.5787V8.96273ZM65.9414 17.4916V0.509088H72.2127C77.1544 0.509088 79.7382 2.6664 79.7382 6.35389C79.7382 8.76205 78.5592 10.4929 76.2513 11.3458L79.7382 17.4916H75.6242L72.4886 11.9729H69.5787V17.4916H65.9414Z" fill="white"/>
<path d="M86.5322 8.86239C86.5322 12.7757 88.8902 14.8577 91.4237 14.8577C93.9573 14.8577 96.3153 12.7757 96.3153 8.86239C96.3153 4.94913 93.9573 3.14301 91.4237 3.14301C88.8902 3.14301 86.5322 4.94913 86.5322 8.86239ZM82.644 8.86239C82.644 3.39386 86.1559 0.132812 91.4237 0.132812C96.6916 0.132812 100.203 3.39386 100.203 8.86239C100.203 14.3309 96.6916 17.8679 91.4237 17.8679C86.1559 17.8679 82.644 14.3309 82.644 8.86239Z" fill="white"/>
<path d="M103.862 17.4916V0.509088H107.499V14.4814H115.401V17.4916H103.862Z" fill="white"/>
<path d="M118.558 17.4916V0.509088H122.195V14.4814H130.097V17.4916H118.558Z" fill="white"/>
<path d="M133.254 17.4916V0.509088H145.545V3.51929H136.891V7.0061H144.04V10.0163H136.891V14.4814H145.545V17.4916H133.254Z" fill="white"/>
<path d="M152.841 8.96273H155.45C157.682 8.96273 159.212 8.26035 159.212 6.35389C159.212 4.29692 157.682 3.51929 155.45 3.51929H152.841V8.96273ZM149.204 17.4916V0.509088H155.475C160.417 0.509088 163 2.6664 163 6.35389C163 8.76205 161.821 10.4929 159.513 11.3458L163 17.4916H158.886L155.751 11.9729H152.841V17.4916H149.204Z" fill="white"/>
<path d="M0 17.4916V0.509088H3.63733V7.0061H11.0374V0.509088H14.6747V17.4916H11.0374V10.0163H3.63733V17.4916H0Z" fill="#FEBE2A"/>
<path d="M19.0857 17.4916V0.509088H22.723V17.4916H19.0857Z" fill="#FEBE2A"/>
<path d="M26.3814 8.86239C26.3814 3.14301 29.7679 0.132812 34.9103 0.132812C40.3036 0.132812 42.4107 3.1681 42.4107 6.20338H38.7232C38.7232 4.4976 37.5944 3.14301 34.9354 3.14301C32.5272 3.14301 30.2947 4.69828 30.2947 8.86239C30.2947 13.0265 32.5272 14.8577 35.1862 14.8577C37.5944 14.8577 39.3253 13.6035 39.8771 11.3458H34.6595V8.33561H43.4392V10.0916C43.4392 14.6069 40.5544 17.8679 35.1611 17.8679C29.7679 17.8679 26.3814 14.5818 26.3814 8.86239Z" fill="#FEBE2A"/>
<path d="M46.5959 17.4916V0.509088H50.2332V7.0061H57.6333V0.509088H61.2706V17.4916H57.6333V10.0163H50.2332V17.4916H46.5959Z" fill="#FEBE2A"/>
</svg>
