<svg width="221" height="28" viewBox="0 0 221 28" fill="none" xmlns="http://www.w3.org/2000/svg">
<path d="M5.59373 4.82905V12.765C5.59373 12.9601 5.70345 13.0576 5.92288 13.0576H7.75145C12.0913 13.0576 14.2612 11.5094 14.2612 8.41305C14.2612 5.658 12.2497 4.28047 8.22688 4.28047C7.49545 4.28047 6.72745 4.34143 5.92288 4.46333C5.70345 4.51209 5.59373 4.634 5.59373 4.82905ZM2.63145 27.357C2.07068 27.357 1.58307 27.1498 1.16859 26.7353C0.754113 26.3209 0.546875 25.8332 0.546875 25.2725V2.92733C0.546875 2.34219 0.741923 1.818 1.13202 1.35476C1.52211 0.891522 2.00973 0.635522 2.59488 0.586759C4.66726 0.391713 6.66649 0.294189 8.59259 0.294189C12.1766 0.294189 14.8585 0.964665 16.6383 2.30562C18.4181 3.62219 19.308 5.48733 19.308 7.90105C19.308 9.63209 18.8326 11.1559 17.8817 12.4725C16.9553 13.789 15.6996 14.7155 14.1149 15.2519C14.0905 15.2519 14.0783 15.2641 14.0783 15.2885C14.0783 15.3372 14.0905 15.3616 14.1149 15.3616C15.2852 16.093 16.2848 17.5315 17.1137 19.677L19.308 25.4188C19.4787 25.882 19.4177 26.3209 19.1252 26.7353C18.857 27.1498 18.4791 27.357 17.9914 27.357H16.8577C16.2238 27.357 15.6509 27.1864 15.1389 26.845C14.6269 26.4793 14.2612 26.0039 14.0417 25.4188L11.9937 19.7868C11.5549 18.6165 11.0551 17.8485 10.4943 17.4828C9.93354 17.117 8.9705 16.9342 7.60516 16.9342H5.92288C5.70345 16.9342 5.59373 17.0439 5.59373 17.2633V25.2725C5.59373 25.8332 5.38649 26.3209 4.97202 26.7353C4.58192 27.1498 4.10649 27.357 3.54573 27.357H2.63145Z" fill="#2C2B2B"/>
<path d="M40.8494 14.0085C40.8494 7.66943 38.5333 4.4999 33.9009 4.4999C29.2685 4.4999 26.9523 7.66943 26.9523 14.0085C26.9523 20.3475 29.2685 23.517 33.9009 23.517C38.5333 23.517 40.8494 20.3475 40.8494 14.0085ZM42.7877 24.1022C40.6178 26.5159 37.6555 27.7228 33.9009 27.7228C30.1462 27.7228 27.1717 26.5159 24.9774 24.1022C22.8075 21.6885 21.7226 18.3239 21.7226 14.0085C21.7226 9.69305 22.8075 6.32847 24.9774 3.91476C27.1717 1.50105 30.1462 0.294189 33.9009 0.294189C37.6555 0.294189 40.6178 1.50105 42.7877 3.91476C44.982 6.32847 46.0792 9.69305 46.0792 14.0085C46.0792 18.3239 44.982 21.6885 42.7877 24.1022Z" fill="#2C2B2B"/>
<path d="M61.4809 27.7228C57.6287 27.7228 54.5689 26.5403 52.3014 24.1753C50.0584 21.786 48.9369 18.397 48.9369 14.0085C48.9369 9.66866 50.0218 6.30409 52.1917 3.91476C54.386 1.50105 57.4458 0.294189 61.3712 0.294189C63.1754 0.294189 64.687 0.403904 65.906 0.623332C66.4912 0.720855 66.9788 1.01343 67.3689 1.50105C67.759 1.98866 67.954 2.53724 67.954 3.14676V3.43933C67.954 3.95133 67.7346 4.35362 67.2957 4.64619C66.8813 4.93876 66.4302 5.02409 65.9426 4.90219C64.7479 4.58524 63.407 4.42676 61.9197 4.42676C59.506 4.42676 57.6043 5.25571 56.2146 6.91362C54.8493 8.57152 54.1666 10.9365 54.1666 14.0085C54.1666 17.0561 54.8736 19.421 56.2877 21.1033C57.7262 22.7612 59.6401 23.5902 62.0294 23.5902C63.6386 23.5902 65.0161 23.4439 66.162 23.1513C66.6496 23.0294 67.1007 23.1148 67.5152 23.4073C67.954 23.6999 68.1734 24.1022 68.1734 24.6142V24.8702C68.1734 25.4797 67.9784 26.0283 67.5883 26.5159C67.2226 26.9791 66.735 27.2595 66.1255 27.357C64.7357 27.6009 63.1875 27.7228 61.4809 27.7228Z" fill="#2C2B2B"/>
<path d="M75.8092 27.357C75.2484 27.357 74.7608 27.1498 74.3463 26.7353C73.9562 26.3209 73.7612 25.8332 73.7612 25.2725V2.74447C73.7612 2.18371 73.9562 1.69609 74.3463 1.28162C74.7608 0.867141 75.2484 0.659903 75.8092 0.659903H76.7966C77.3574 0.659903 77.845 0.867141 78.2594 1.28162C78.6739 1.69609 78.8812 2.18371 78.8812 2.74447V12.2165C78.8812 12.2409 78.8934 12.253 78.9177 12.253C78.9421 12.253 78.9543 12.2409 78.9543 12.2165L86.3052 2.34219C87.1097 1.22067 88.2069 0.659903 89.5966 0.659903H91.4252C91.8396 0.659903 92.1444 0.854951 92.3394 1.24505C92.5345 1.63514 92.4979 1.98866 92.2297 2.30562L83.8183 13.2039C83.6964 13.3746 83.6964 13.5452 83.8183 13.7159L92.632 25.6748C92.9002 26.0161 92.9368 26.3818 92.7417 26.7719C92.5467 27.162 92.2297 27.357 91.7909 27.357H89.9623C88.5726 27.357 87.4876 26.7963 86.7075 25.6748L78.9543 14.7033C78.9543 14.679 78.9421 14.6668 78.9177 14.6668C78.8934 14.6668 78.8812 14.679 78.8812 14.7033V25.2725C78.8812 25.8332 78.6739 26.3209 78.2594 26.7353C77.845 27.1498 77.3574 27.357 76.7966 27.357H75.8092Z" fill="#2C2B2B"/>
<path d="M98.8814 27.357C98.3207 27.357 97.8331 27.1498 97.4186 26.7353C97.0041 26.3209 96.7969 25.8332 96.7969 25.2725V2.74447C96.7969 2.18371 97.0041 1.69609 97.4186 1.28162C97.8331 0.867141 98.3207 0.659903 98.8814 0.659903H111.316C111.877 0.659903 112.364 0.867141 112.779 1.28162C113.193 1.69609 113.4 2.18371 113.4 2.74447C113.4 3.30524 113.193 3.79286 112.779 4.20733C112.364 4.59743 111.877 4.79247 111.316 4.79247H102.246C102.027 4.79247 101.917 4.90219 101.917 5.12162V11.0096C101.917 11.229 102.027 11.3388 102.246 11.3388H110.694C111.255 11.3388 111.718 11.5338 112.084 11.9239C112.474 12.314 112.669 12.7772 112.669 13.3136C112.669 13.85 112.474 14.3132 112.084 14.7033C111.718 15.069 111.255 15.2519 110.694 15.2519H102.246C102.027 15.2519 101.917 15.3616 101.917 15.581V22.8953C101.917 23.1148 102.027 23.2245 102.246 23.2245H111.316C111.877 23.2245 112.364 23.4317 112.779 23.8462C113.193 24.2363 113.4 24.7117 113.4 25.2725C113.4 25.8332 113.193 26.3209 112.779 26.7353C112.364 27.1498 111.877 27.357 111.316 27.357H98.8814Z" fill="#2C2B2B"/>
<path d="M119.967 4.90219C119.406 4.90219 118.919 4.70714 118.504 4.31705C118.09 3.90257 117.883 3.41495 117.883 2.85419V2.74447C117.883 2.18371 118.09 1.69609 118.504 1.28162C118.919 0.867141 119.406 0.659903 119.967 0.659903H135.547C136.107 0.659903 136.595 0.867141 137.009 1.28162C137.424 1.69609 137.631 2.18371 137.631 2.74447V2.85419C137.631 3.41495 137.424 3.90257 137.009 4.31705C136.595 4.70714 136.107 4.90219 135.547 4.90219H130.646C130.451 4.90219 130.353 5.0119 130.353 5.23133V25.2725C130.353 25.8332 130.146 26.3209 129.732 26.7353C129.317 27.1498 128.83 27.357 128.269 27.357H127.245C126.684 27.357 126.196 27.1498 125.782 26.7353C125.368 26.3209 125.16 25.8332 125.16 25.2725V5.23133C125.16 5.0119 125.063 4.90219 124.868 4.90219H119.967Z" fill="#2C2B2B"/>
<path d="M150.376 16.2988C147.45 15.3236 145.329 14.1411 144.013 12.7514C142.72 11.3617 142.074 9.67937 142.074 7.70451C142.074 5.48584 142.818 3.73041 144.305 2.43822C145.792 1.14603 147.877 0.499939 150.559 0.499939C152.826 0.499939 154.801 0.755939 156.483 1.26794C157.069 1.43861 157.532 1.79213 157.873 2.32851C158.239 2.84051 158.422 3.41346 158.422 4.04737V4.37651C158.422 4.83975 158.214 5.20546 157.8 5.47365C157.385 5.71746 156.959 5.75403 156.52 5.58337C154.691 4.87632 152.826 4.52279 150.925 4.52279C149.705 4.52279 148.779 4.80317 148.145 5.36394C147.511 5.9247 147.194 6.70489 147.194 7.70451C147.194 9.45994 148.34 10.7156 150.632 11.4714C153.923 12.5197 156.203 13.7144 157.471 15.0554C158.763 16.3963 159.409 18.1274 159.409 20.2485C159.409 25.3685 156.252 27.9285 149.937 27.9285C147.962 27.9285 146.17 27.6237 144.561 27.0142C143.976 26.7948 143.513 26.4169 143.171 25.8805C142.854 25.3441 142.696 24.7468 142.696 24.0885V23.6497C142.696 23.1864 142.891 22.8573 143.281 22.6622C143.671 22.4428 144.073 22.4306 144.488 22.6257C146.097 23.4302 147.792 23.8325 149.571 23.8325C152.668 23.8325 154.216 22.6622 154.216 20.3217C154.216 19.3708 153.923 18.5906 153.338 17.9811C152.753 17.3472 151.766 16.7864 150.376 16.2988Z" fill="#4AB8E9"/>
<path d="M169.321 5.03479V13.8485C169.321 14.0192 169.419 14.1289 169.614 14.1777C170.54 14.2996 171.442 14.3605 172.32 14.3605C174.295 14.3605 175.794 13.9338 176.818 13.0805C177.867 12.2028 178.391 10.9594 178.391 9.35022C178.391 6.10756 176.367 4.48622 172.32 4.48622C171.442 4.48622 170.54 4.54718 169.614 4.66908C169.419 4.71784 169.321 4.83975 169.321 5.03479ZM166.322 27.5628C165.761 27.5628 165.274 27.3556 164.859 26.9411C164.469 26.5266 164.274 26.039 164.274 25.4782V3.13308C164.274 2.54794 164.469 2.02375 164.859 1.56051C165.249 1.09727 165.737 0.841272 166.322 0.792509C168.395 0.597462 170.394 0.499939 172.32 0.499939C175.977 0.499939 178.72 1.23137 180.549 2.69422C182.377 4.1327 183.291 6.22946 183.291 8.98451C183.291 12.0321 182.401 14.3361 180.622 15.8965C178.866 17.4569 176.257 18.2371 172.795 18.2371C171.991 18.2371 170.93 18.1883 169.614 18.0908C169.419 18.0908 169.321 18.1883 169.321 18.3834V25.4782C169.321 26.039 169.114 26.5266 168.699 26.9411C168.285 27.3556 167.797 27.5628 167.237 27.5628H166.322Z" fill="#4AB8E9"/>
<path d="M190.055 27.5628C189.494 27.5628 189.006 27.3556 188.592 26.9411C188.177 26.5266 187.97 26.039 187.97 25.4782V10.4474C187.97 9.88661 188.177 9.39899 188.592 8.98451C189.006 8.57004 189.494 8.3628 190.055 8.3628H191.517C192.078 8.3628 192.566 8.57004 192.98 8.98451C193.395 9.39899 193.602 9.88661 193.602 10.4474V25.4782C193.602 26.039 193.395 26.5266 192.98 26.9411C192.566 27.3556 192.078 27.5628 191.517 27.5628H190.055Z" fill="#4AB8E9"/>
<path d="M202.144 27.5628C201.583 27.5628 201.095 27.3556 200.681 26.9411C200.291 26.5266 200.096 26.039 200.096 25.4782V2.95022C200.096 2.38946 200.291 1.90184 200.681 1.48737C201.095 1.07289 201.583 0.865653 202.144 0.865653H202.948C204.338 0.865653 205.362 1.47518 206.02 2.69422L215.053 19.0051C215.053 19.0295 215.066 19.0417 215.09 19.0417C215.114 19.0417 215.127 19.0295 215.127 19.0051V2.95022C215.127 2.38946 215.334 1.90184 215.748 1.48737C216.163 1.07289 216.65 0.865653 217.211 0.865653H218.016C218.576 0.865653 219.052 1.07289 219.442 1.48737C219.856 1.90184 220.064 2.38946 220.064 2.95022V25.4782C220.064 26.039 219.856 26.5266 219.442 26.9411C219.052 27.3556 218.576 27.5628 218.016 27.5628H217.211C215.821 27.5628 214.797 26.9533 214.139 25.7342L205.106 9.42337C205.106 9.39899 205.094 9.3868 205.069 9.3868C205.045 9.3868 205.033 9.39899 205.033 9.42337V25.4782C205.033 26.039 204.826 26.5266 204.411 26.9411C203.997 27.3556 203.509 27.5628 202.948 27.5628H202.144Z" fill="#4AB8E9"/>
<ellipse cx="9.5" cy="8.57153" rx="7" ry="5.5" fill="#2C2B2B"/>
<path d="M15.7819 5.31342C15.7842 5.29206 15.7803 5.2705 15.7707 5.25127C15.7612 5.23204 15.7464 5.21593 15.728 5.20483C14.5047 4.45678 11.0699 4.63396 8.87877 5.76393C8.4887 5.9632 8.11674 6.19608 7.76711 6.45994C7.26937 6.25109 6.74509 6.12539 6.24779 6.1763C4.84301 6.32514 4.03277 7.62515 3.73859 8.20173C3.72229 8.23323 3.71352 8.26808 3.71296 8.30353C3.71241 8.33899 3.72009 8.3741 3.73541 8.40609C3.75072 8.43807 3.77324 8.46607 3.80121 8.48788C3.82918 8.50969 3.86182 8.52471 3.89657 8.53176L5.94413 8.94513C5.89793 9.0947 5.85937 9.24652 5.8286 9.40001C5.80569 9.50611 5.82067 9.61688 5.87093 9.71309L6.39289 10.7218C6.44228 10.8184 6.52384 10.8947 6.6235 10.9377C6.76563 11.0012 6.91087 11.0575 7.05868 11.1063L6.21094 13.0124C6.1966 13.0449 6.18996 13.0802 6.19155 13.1156C6.19314 13.151 6.20292 13.1856 6.2201 13.2166C6.23729 13.2476 6.26143 13.2742 6.29062 13.2943C6.31981 13.3144 6.35326 13.3274 6.38835 13.3325C7.0268 13.429 8.5583 13.5228 9.4905 12.4632C9.82017 12.0874 10.0219 11.5901 10.1407 11.0664C10.5592 10.9346 10.9654 10.7666 11.3547 10.5643C13.5502 9.43848 15.6566 6.80816 15.7819 5.31342ZM10.3238 8.05586C10.2202 7.85524 10.1784 7.62839 10.2038 7.40403C10.2291 7.17966 10.3204 6.96785 10.4661 6.79539C10.6119 6.62292 10.8055 6.49756 11.0225 6.43514C11.2395 6.37272 11.4701 6.37607 11.6852 6.44474C11.9003 6.51342 12.0902 6.64435 12.2309 6.82096C12.3715 6.99758 12.4567 7.21194 12.4755 7.43695C12.4943 7.66195 12.446 7.88749 12.3366 8.08503C12.2273 8.28256 12.0618 8.44323 11.8611 8.54669C11.7279 8.61551 11.5825 8.65741 11.4332 8.66998C11.2838 8.68256 11.1335 8.66557 10.9907 8.61998C10.8479 8.57439 10.7155 8.5011 10.6011 8.40431C10.4866 8.30751 10.3924 8.1891 10.3238 8.05586Z" fill="#E9F6FB"/>
<path d="M8.16333 10.2589C7.99948 10.3437 7.78487 10.3286 7.53196 10.2935C6.96418 10.2133 6.63725 9.59618 6.90779 9.0827C7.01061 8.88811 7.21217 8.63368 7.30183 8.58742C7.32133 8.5776 7.33725 8.56188 7.34731 8.54249C7.35738 8.52311 7.36108 8.50105 7.35789 8.47944C7.3547 8.45783 7.34478 8.43778 7.32955 8.42213C7.31432 8.40648 7.29454 8.39602 7.27303 8.39225C6.96014 8.33295 6.63641 8.38003 6.35337 8.52599C5.65058 8.88898 -0.00137327 12.5716 -0.00137327 12.5716C-0.00137327 12.5716 6.96387 11.4324 7.66665 11.0694C7.95023 10.9237 8.1765 10.6868 8.30903 10.3968C8.34765 10.3048 8.25035 10.2116 8.16333 10.2589Z" fill="#E9F6FB"/>
<ellipse cx="11.5" cy="7.57166" rx="2" ry="1.5" fill="#E9F6FB"/>
<path d="M189.54 1.43474C190.079 0.525936 190.348 0.0715332 190.75 0.0715332C191.152 0.0715332 191.421 0.525936 191.96 1.43474L192.099 1.66994C192.252 1.92835 192.329 2.05755 192.448 2.14275C192.567 2.22795 192.716 2.25955 193.013 2.32275L193.283 2.38035C194.329 2.60315 194.851 2.71435 194.976 3.09075C195.1 3.46676 194.744 3.85916 194.031 4.64356L193.846 4.84636C193.644 5.06917 193.543 5.18077 193.497 5.31837C193.452 5.45637 193.467 5.60517 193.498 5.90237L193.526 6.17317C193.633 7.21998 193.687 7.74318 193.362 7.97558C193.036 8.20799 192.546 7.99598 191.568 7.57198L191.314 7.46238C191.036 7.34158 190.897 7.28158 190.75 7.28158C190.603 7.28158 190.464 7.34158 190.186 7.46238L189.932 7.57198C188.954 7.99598 188.464 8.20799 188.139 7.97598C187.813 7.74318 187.867 7.21998 187.974 6.17317L188.002 5.90277C188.033 5.60517 188.048 5.45637 188.002 5.31877C187.957 5.18077 187.856 5.06917 187.654 4.84676L187.469 4.64356C186.756 3.85956 186.4 3.46716 186.524 3.09075C186.648 2.71435 187.172 2.60275 188.217 2.38035L188.487 2.32275C188.784 2.25955 188.933 2.22795 189.052 2.14275C189.172 2.05755 189.248 1.92835 189.401 1.66994L189.54 1.43474Z" fill="#2C2B2B"/>
</svg>
