<svg width="244" height="48" viewBox="0 0 244 48" fill="none" xmlns="http://www.w3.org/2000/svg">
<path d="M114.007 0L102.008 8.58441L112.449 11.7489L124.583 2.27657L114.007 0ZM126.325 3.38065L113.455 13.1652L119.023 27.4245L119.953 26.6137L120.415 24.9052C120.102 24.7023 119.835 24.3723 119.655 23.9686C119.475 23.565 119.394 23.1113 119.425 22.6809C119.454 22.2632 119.588 21.891 119.804 21.6213C120.021 21.3517 120.309 21.1995 120.624 21.1879C120.754 21.1832 120.886 21.2026 121.018 21.2456C121.134 21.284 121.248 21.3404 121.358 21.4135L122.223 18.2071C122.234 18.1687 122.246 18.1309 122.262 18.094L122.268 18.0801C122.279 18.0548 122.29 18.0299 122.303 18.0056L122.313 17.9889C122.325 17.9657 122.339 17.943 122.353 17.9209C122.371 17.8938 122.39 17.8675 122.411 17.8423L122.418 17.8343C122.437 17.8119 122.457 17.7903 122.477 17.7696C122.5 17.747 122.523 17.7255 122.548 17.7052C122.564 17.6922 122.582 17.6796 122.599 17.6677C122.608 17.6604 122.618 17.6533 122.628 17.6463C122.646 17.6348 122.664 17.624 122.682 17.6137C122.692 17.6078 122.702 17.6021 122.712 17.5966C122.728 17.5886 122.744 17.5811 122.76 17.574C122.773 17.5672 122.787 17.5608 122.801 17.5546C122.817 17.5487 122.833 17.5432 122.849 17.5381C122.864 17.5325 122.879 17.5274 122.894 17.5225C122.908 17.5186 122.923 17.5149 122.938 17.5117C122.955 17.5071 122.972 17.5029 122.989 17.4993C123.007 17.4962 123.026 17.4937 123.044 17.4916C123.058 17.4896 123.071 17.4877 123.085 17.4862H123.086L123.087 17.4859L126.753 17.1734C126.837 16.8611 126.985 16.5977 127.183 16.4107C127.381 16.2237 127.621 16.1199 127.878 16.11C128.009 16.1052 128.141 16.1246 128.273 16.1676C128.629 16.2848 128.959 16.5682 129.203 16.9646L130.625 16.8435L126.325 3.38065ZM113.838 4.20791C114.3 4.21749 114.691 4.31731 114.945 4.49044C115.199 4.66358 115.301 4.89938 115.234 5.15787C115.156 5.45496 114.861 5.75936 114.412 6.00409C113.963 6.24881 113.399 6.41383 112.842 6.46284C112.566 6.4871 112.301 6.48215 112.061 6.44826C111.821 6.41438 111.611 6.35222 111.443 6.26534C111.276 6.17846 111.153 6.06856 111.083 5.94191C111.013 5.81527 110.997 5.67436 111.036 5.52724C111.074 5.38012 111.166 5.22966 111.307 5.08444C111.448 4.93923 111.635 4.80211 111.857 4.68091C112.079 4.55971 112.332 4.4568 112.602 4.37807C112.871 4.29934 113.152 4.24633 113.427 4.22205C113.567 4.20981 113.705 4.20507 113.838 4.20791ZM124.765 6.76575C124.895 6.76099 125.028 6.78039 125.16 6.82339C125.546 6.94952 125.903 7.27178 126.15 7.7193C126.398 8.16681 126.517 8.70293 126.48 9.20971C126.462 9.46066 126.407 9.69684 126.317 9.90479C126.227 10.1127 126.105 10.2884 125.957 10.4216C125.809 10.5549 125.638 10.6432 125.455 10.6816C125.271 10.7199 125.078 10.7074 124.887 10.645C124.696 10.5826 124.51 10.4713 124.34 10.3176C124.17 10.1639 124.019 9.97075 123.897 9.74915C123.774 9.52756 123.682 9.28188 123.625 9.02614C123.568 8.77041 123.548 8.50961 123.566 8.25866C123.596 7.84089 123.729 7.46871 123.946 7.19908C124.163 6.92945 124.45 6.77724 124.765 6.76575ZM101.516 10.4815L106.639 22.8942L116.913 27.2862L111.899 13.6285L101.516 10.4815ZM117.638 12.3773C117.769 12.3724 117.901 12.3917 118.033 12.4347C118.42 12.5609 118.776 12.8832 119.023 13.3307C119.271 13.7782 119.39 14.3143 119.353 14.821C119.336 15.072 119.28 15.3082 119.19 15.5161C119.101 15.724 118.978 15.8997 118.83 16.033C118.682 16.1662 118.512 16.2546 118.328 16.2929C118.144 16.3313 117.951 16.3188 117.76 16.2564C117.374 16.1303 117.017 15.808 116.77 15.3605C116.522 14.913 116.403 14.3769 116.44 13.8701C116.469 13.4524 116.603 13.0802 116.819 12.8106C117.036 12.541 117.324 12.3888 117.638 12.3773ZM109.449 13.793C109.719 13.7783 110.058 13.938 110.399 14.241C110.741 14.544 111.061 14.9688 111.297 15.4329C111.422 15.6788 111.52 15.9286 111.586 16.1681C111.651 16.4076 111.683 16.6322 111.678 16.829C111.674 17.0258 111.634 17.191 111.561 17.3151C111.487 17.4391 111.382 17.5197 111.251 17.5522C110.986 17.6177 110.631 17.4833 110.265 17.1786C109.898 16.8739 109.551 16.4238 109.298 15.9274C109.045 15.4311 108.908 14.9291 108.917 14.5318C108.925 14.1345 109.079 13.8744 109.344 13.8086C109.377 13.8003 109.412 13.795 109.449 13.793ZM138.163 18.1664L125.942 19.2081L138.344 27.9012L150.728 26.057L138.163 18.1664ZM106.596 19.2167C106.867 19.2019 107.205 19.3615 107.547 19.6646C107.889 19.9676 108.209 20.3924 108.445 20.8566C108.698 21.353 108.835 21.8552 108.826 22.2526C108.818 22.65 108.664 22.9102 108.399 22.9758C108.134 23.0413 107.779 22.907 107.413 22.6023C107.046 22.2976 106.699 21.8475 106.446 21.3511C106.193 20.8547 106.056 20.3526 106.065 19.9553C106.073 19.5579 106.227 19.2978 106.492 19.2321C106.526 19.2239 106.56 19.2186 106.596 19.2167ZM123.753 20.0664L119.225 36.8368L131.829 47.6539L136.969 29.3302L123.753 20.0664ZM137.597 21.2811C137.936 21.2874 138.308 21.338 138.682 21.4287C139.056 21.5194 139.421 21.6473 139.744 21.8014C140.005 21.9258 140.234 22.0646 140.417 22.2099C140.6 22.3551 140.734 22.5039 140.811 22.6477C140.888 22.7916 140.907 22.9277 140.866 23.0483C140.825 23.1689 140.726 23.2716 140.573 23.3506C140.421 23.4296 140.219 23.4833 139.978 23.5087C139.738 23.5341 139.463 23.5306 139.171 23.4985C138.878 23.4663 138.574 23.4062 138.274 23.3214C137.974 23.2367 137.686 23.129 137.424 23.0045C136.897 22.7532 136.513 22.4487 136.357 22.1582C136.202 21.8677 136.287 21.6148 136.595 21.4553C136.828 21.3341 137.178 21.2733 137.597 21.2811ZM152.052 27.8394L138.874 29.8018L133.77 48L146.448 44.5445L152.052 27.8394ZM132.232 29.014C132.386 29.0142 132.542 29.0487 132.694 29.1166C132.916 29.2153 133.128 29.3829 133.319 29.6097C133.509 29.8365 133.674 30.1181 133.805 30.4385C133.935 30.7588 134.028 31.1117 134.078 31.4768C134.128 31.842 134.135 32.2123 134.098 32.5666C134.022 33.2822 133.771 33.8892 133.401 34.2542C133.031 34.6191 132.572 34.7122 132.124 34.5128C131.902 34.4141 131.69 34.2465 131.499 34.0197C131.309 33.7929 131.144 33.5113 131.013 33.1909C130.883 32.8706 130.79 32.5177 130.74 32.1526C130.689 31.7874 130.683 31.4171 130.72 31.0627C130.783 30.473 130.964 29.9533 131.237 29.5833C131.51 29.2133 131.86 29.0134 132.232 29.014ZM149.03 30.2796C149.386 30.2691 149.681 30.4274 149.867 30.7288C150.085 31.083 150.137 31.6078 150.011 32.1878C149.884 32.7678 149.59 33.3555 149.193 33.8216C148.796 34.2876 148.329 34.5938 147.894 34.6729C147.458 34.752 147.091 34.5975 146.873 34.2434C146.654 33.8892 146.602 33.3644 146.729 32.7844C146.855 32.2045 147.149 31.6168 147.546 31.1507C147.771 30.886 148.022 30.6702 148.279 30.5194C148.536 30.3686 148.793 30.2865 149.03 30.2796ZM141.541 31.4395C141.897 31.429 142.192 31.5873 142.378 31.8887C142.596 32.2429 142.648 32.7677 142.522 33.3477C142.395 33.9277 142.101 34.5154 141.704 34.9814C141.307 35.4475 140.84 35.7537 140.404 35.8328C139.969 35.9118 139.602 35.7573 139.384 35.4031C139.165 35.0489 139.113 34.5241 139.24 33.9441C139.366 33.3642 139.66 32.7765 140.057 32.3105C140.283 32.0458 140.533 31.83 140.79 31.6792C141.047 31.5284 141.304 31.4464 141.541 31.4395ZM122.573 32.8866C122.727 32.8868 122.882 32.9214 123.035 32.9894C123.257 33.0881 123.469 33.2557 123.659 33.4825C123.85 33.7093 124.015 33.991 124.145 34.3113C124.276 34.6317 124.368 34.9845 124.419 35.3497C124.469 35.7148 124.476 36.0851 124.438 36.4394C124.401 36.7938 124.32 37.1252 124.2 37.4148C124.081 37.7043 123.925 37.9464 123.742 38.1271C123.558 38.3079 123.351 38.4237 123.132 38.4681C122.913 38.5124 122.686 38.4844 122.464 38.3857C122.242 38.287 122.03 38.1194 121.84 37.8926C121.649 37.6658 121.484 37.3842 121.354 37.0638C121.223 36.7434 121.13 36.3906 121.08 36.0255C121.03 35.6603 121.023 35.29 121.061 34.9356C121.123 34.3459 121.305 33.8262 121.578 33.4561C121.851 33.086 122.2 32.8861 122.573 32.8866ZM145.715 39.5072C146.07 39.4968 146.365 39.6551 146.551 39.9564C146.769 40.3105 146.821 40.8353 146.695 41.4153C146.569 41.9952 146.275 42.5829 145.878 43.049C145.481 43.515 145.013 43.8212 144.578 43.9003C144.143 43.9794 143.775 43.8248 143.557 43.4706C143.339 43.1164 143.287 42.5916 143.413 42.0117C143.539 41.4317 143.833 40.844 144.23 40.3779C144.456 40.1133 144.706 39.8974 144.963 39.7466C145.22 39.5958 145.477 39.5141 145.715 39.5072ZM138.047 41.6268C138.403 41.6164 138.697 41.7748 138.883 42.0762C139.102 42.4303 139.154 42.9551 139.027 43.5351C138.901 44.1151 138.607 44.7027 138.21 45.1688C138.014 45.3996 137.798 45.5935 137.575 45.7396C137.352 45.8856 137.126 45.9809 136.91 46.0201C136.695 46.0592 136.494 46.0414 136.319 45.9676C136.144 45.8938 135.998 45.7656 135.89 45.5902C135.671 45.236 135.619 44.7112 135.746 44.1312C135.872 43.5513 136.166 42.9636 136.563 42.4976C136.788 42.2329 137.039 42.0171 137.296 41.8663C137.553 41.7155 137.81 41.6337 138.047 41.6268Z" fill="white"/>
<path d="M9.21605 31.8876L14.9514 9.68021H17.9575L17.6213 15.4042L11.4904 38.3197H8.36564L9.21605 31.8876ZM4.92446 9.68021L9.57204 31.7106L9.98735 38.3197H6.66483L0 9.68021H4.92446ZM24.4641 31.6516L29.0523 9.68021H33.9966L27.3317 38.3197H24.0092L24.4641 31.6516ZM19.1243 9.68021L24.8003 31.9466L25.6309 38.3197H22.5062L16.4742 15.4042L16.1578 9.68021H19.1243Z" fill="white"/>
<path d="M42.9753 9.68021V38.3197H38.0113V9.68021H42.9753Z" fill="white"/>
<path d="M67.1823 34.4054V38.3197H52.7253V34.4054H67.1823ZM54.1097 9.68021V38.3197H49.1457V9.68021H54.1097Z" fill="white"/>
<path d="M79.3846 38.3197H73.234L73.2735 34.4054H79.3846C81.1645 34.4054 82.6544 34.0185 83.8542 33.2448C85.0672 32.4711 85.9769 31.3631 86.5834 29.9206C87.2031 28.4781 87.5129 26.7603 87.5129 24.7671V23.2131C87.5129 21.6658 87.335 20.2954 86.979 19.1021C86.6362 17.9088 86.122 16.9056 85.4364 16.0926C84.764 15.2796 83.9333 14.6633 82.9445 14.2436C81.9688 13.824 80.8415 13.6142 79.5626 13.6142H73.1153V9.68021H79.5626C81.4744 9.68021 83.2214 10.0015 84.8035 10.644C86.3857 11.2735 87.7503 12.1849 88.8973 13.3782C90.0576 14.5715 90.9475 16.0008 91.5672 17.6662C92.1869 19.3316 92.4967 21.1937 92.4967 23.2525V24.7671C92.4967 26.8259 92.1869 28.688 91.5672 30.3533C90.9475 32.0187 90.0576 33.4481 88.8973 34.6414C87.7371 35.8216 86.3527 36.733 84.7442 37.3755C83.1488 38.005 81.3623 38.3197 79.3846 38.3197ZM75.983 9.68021V38.3197H71.019V9.68021H75.983Z" fill="white"/>
<path d="M169.406 38.7217H163.279L163.318 34.8062H169.406C171.179 34.8062 172.664 34.4193 173.859 33.6453C175.067 32.8714 175.974 31.763 176.578 30.3201C177.195 28.8772 177.504 27.1589 177.504 25.1651V23.6107C177.504 22.0629 177.327 20.6921 176.972 19.4984C176.63 18.3048 176.118 17.3013 175.435 16.488C174.765 15.6748 173.938 15.0583 172.953 14.6385C171.981 14.2188 170.858 14.0089 169.583 14.0089H163.16V10.0737H169.583C171.488 10.0737 173.228 10.3951 174.805 11.0378C176.381 11.6675 177.74 12.5791 178.883 13.7728C180.039 14.9664 180.926 16.3962 181.543 18.0621C182.16 19.728 182.469 21.5906 182.469 23.65V25.1651C182.469 27.2245 182.16 29.0871 181.543 30.753C180.926 32.4189 180.039 33.8487 178.883 35.0423C177.727 36.2229 176.348 37.1345 174.745 37.7773C173.156 38.4069 171.376 38.7217 169.406 38.7217ZM166.017 10.0737V38.7217H161.072V10.0737H166.017Z" fill="white"/>
<path d="M192.714 10.0737V38.7217H187.769V10.0737H192.714Z" fill="white"/>
<path d="M215.806 29.3954H220.731C220.574 31.2711 220.048 32.9436 219.155 34.4127C218.262 35.8687 217.007 37.0165 215.392 37.856C213.776 38.6955 211.813 39.1152 209.501 39.1152C207.728 39.1152 206.132 38.8004 204.713 38.1708C203.295 37.528 202.079 36.623 201.068 35.4555C200.057 34.275 199.282 32.8518 198.743 31.1859C198.218 29.52 197.955 27.6573 197.955 25.5979V23.2172C197.955 21.1578 198.224 19.2951 198.763 17.6292C199.315 15.9634 200.103 14.5401 201.127 13.3596C202.152 12.1659 203.38 11.2543 204.812 10.6246C206.256 9.99502 207.879 9.68021 209.678 9.68021C211.964 9.68021 213.894 10.1 215.471 10.9395C217.047 11.779 218.268 12.9398 219.135 14.4221C220.015 15.9043 220.554 17.603 220.751 19.5181H215.825C215.694 18.2851 215.405 17.2292 214.958 16.3503C214.525 15.4715 213.881 14.8025 213.028 14.3434C212.174 13.8712 211.057 13.635 209.678 13.635C208.549 13.635 207.563 13.8449 206.723 14.2647C205.882 14.6844 205.179 15.3009 204.615 16.1142C204.05 16.9275 203.623 17.9309 203.334 19.1246C203.058 20.3051 202.92 21.6562 202.92 23.1778V25.5979C202.92 27.0408 203.045 28.3526 203.294 29.5331C203.557 30.7005 203.951 31.704 204.477 32.5435C205.015 33.383 205.698 34.0323 206.526 34.4914C207.353 34.9505 208.345 35.1801 209.501 35.1801C210.906 35.1801 212.042 34.9571 212.909 34.5111C213.789 34.0651 214.453 33.4158 214.899 32.5632C215.359 31.6974 215.661 30.6415 215.806 29.3954Z" fill="white"/>
<path d="M244 34.8062V38.7217H228.77V34.8062H244ZM230.169 10.0737V38.7217H225.223V10.0737H230.169ZM242.01 22.0366V25.8931H228.77V22.0366H242.01ZM243.902 10.0737V14.0089H228.77V10.0737H243.902Z" fill="white"/>
</svg>
