<svg width="260" height="36" viewBox="0 0 260 36" fill="none" xmlns="http://www.w3.org/2000/svg">
<path d="M55.4539 11.65V14.6815H43.8281V0.275591H55.1777V3.3071H47.7452V5.93775H54.3239V8.81894H47.7452V11.65H55.4539Z" fill="white"/>
<path d="M58.3446 0.275591H62.3119V11.5999H69.3677V14.6815H58.3446V0.275591Z" fill="white"/>
<path d="M83.1382 11.65V14.6815H71.5125V0.275591H82.862V3.3071H75.4296V5.93775H82.0083V8.81894H75.4296V11.65H83.1382Z" fill="white"/>
<path d="M99.2366 14.6815L99.2115 6.81464L95.3446 13.1533H93.5618L89.7201 7.06518V14.6815H86.029V0.275591H89.3434L94.516 8.64357L99.563 0.275591H102.903L102.953 14.6815H99.2366Z" fill="white"/>
<path d="M118.424 11.65V14.6815H106.798V0.275591H118.148V3.3071H110.715V5.93775H117.294V8.81894H110.715V11.65H118.424Z" fill="white"/>
<path d="M135.125 0.275591V14.6815H131.861L125.207 6.73948V14.6815H121.315V0.275591H124.579L131.233 8.24271V0.275591H135.125Z" fill="white"/>
<path d="M141.706 3.35721H137.162V0.275591H150.219V3.35721H145.674V14.6815H141.706V3.35721Z" fill="white"/>
<path d="M157.056 14.9571C155.885 14.9571 154.738 14.8152 153.616 14.5312C152.512 14.2473 151.624 13.8715 150.955 13.4038L152.336 10.4725C152.989 10.9068 153.75 11.2492 154.621 11.4997C155.491 11.7502 156.378 11.8755 157.282 11.8755C158.119 11.8755 158.722 11.7669 159.09 11.5498C159.475 11.316 159.668 11.007 159.668 10.6228C159.668 10.1886 159.433 9.8712 158.965 9.67077C158.496 9.45364 157.751 9.24486 156.73 9.04443C155.608 8.81059 154.688 8.5684 153.968 8.31787C153.248 8.05063 152.62 7.62471 152.085 7.04012C151.566 6.45553 151.306 5.65381 151.306 4.63496C151.306 3.73302 151.566 2.9313 152.085 2.22979C152.604 1.52828 153.349 0.98545 154.319 0.601291C155.307 0.20043 156.462 0 157.785 0C158.755 0 159.701 0.108567 160.622 0.3257C161.543 0.52613 162.338 0.835127 163.007 1.25269L161.727 4.18399C160.522 3.44907 159.157 3.08162 157.634 3.08162C156.814 3.08162 156.203 3.20689 155.801 3.45743C155.416 3.69126 155.223 4.00861 155.223 4.40947C155.223 4.84374 155.458 5.16109 155.926 5.36152C156.395 5.56195 157.14 5.76238 158.161 5.96281C159.266 6.19664 160.178 6.44718 160.898 6.71442C161.635 6.96496 162.262 7.38252 162.781 7.96711C163.317 8.535 163.585 9.31167 163.585 10.2971C163.585 11.2158 163.325 12.0258 162.807 12.7273C162.304 13.4288 161.559 13.98 160.572 14.3809C159.584 14.765 158.412 14.9571 157.056 14.9571Z" fill="white"/>
<path d="M180.207 14.9571C178.684 14.9571 177.311 14.6398 176.089 14.0051C174.867 13.3537 173.905 12.4601 173.201 11.3243C172.498 10.1886 172.147 8.91081 172.147 7.49109C172.147 6.07137 172.498 4.79363 173.201 3.65786C173.905 2.50538 174.867 1.6118 176.089 0.977098C177.311 0.325699 178.684 0 180.207 0C181.596 0 182.793 0.208782 183.798 0.626345C184.819 1.04391 185.698 1.71201 186.434 2.63065L183.873 4.96066C182.919 3.80818 181.747 3.23194 180.358 3.23194C179.136 3.23194 178.123 3.62445 177.319 4.40947C176.533 5.19449 176.139 6.2217 176.139 7.49109C176.139 8.32622 176.315 9.06948 176.667 9.72088C177.035 10.3556 177.537 10.8483 178.173 11.1991C178.826 11.5498 179.554 11.7252 180.358 11.7252C181.747 11.7252 182.919 11.1489 183.873 9.99647L186.434 12.3265C185.714 13.2284 184.836 13.8965 183.798 14.3308C182.777 14.7483 181.58 14.9571 180.207 14.9571Z" fill="white"/>
<path d="M198.218 11.8254H191.464L190.259 14.6815H186.417L192.895 0.275591H196.812L203.316 14.6815H199.398L198.218 11.8254ZM197.013 8.96927L194.854 3.75807L192.669 8.96927H197.013Z" fill="white"/>
<path d="M209.826 14.9571C208.654 14.9571 207.507 14.8152 206.386 14.5312C205.281 14.2473 204.394 13.8715 203.724 13.4038L205.105 10.4725C205.758 10.9068 206.52 11.2492 207.39 11.4997C208.261 11.7502 209.148 11.8755 210.052 11.8755C210.889 11.8755 211.491 11.7669 211.86 11.5498C212.245 11.316 212.437 11.007 212.437 10.6228C212.437 10.1886 212.203 9.8712 211.734 9.67077C211.265 9.45364 210.521 9.24486 209.499 9.04443C208.378 8.81059 207.457 8.5684 206.737 8.31787C206.018 8.05063 205.39 7.62471 204.854 7.04012C204.335 6.45553 204.076 5.65381 204.076 4.63496C204.076 3.73302 204.335 2.9313 204.854 2.22979C205.373 1.52828 206.118 0.98545 207.089 0.601291C208.077 0.20043 209.232 0 210.554 0C211.525 0 212.471 0.108567 213.391 0.3257C214.312 0.52613 215.107 0.835127 215.777 1.25269L214.496 4.18399C213.291 3.44907 211.927 3.08162 210.403 3.08162C209.583 3.08162 208.972 3.20689 208.57 3.45743C208.185 3.69126 207.993 4.00861 207.993 4.40947C207.993 4.84374 208.227 5.16109 208.696 5.36152C209.165 5.56195 209.91 5.76238 210.931 5.96281C212.035 6.19664 212.948 6.44718 213.668 6.71442C214.404 6.96496 215.032 7.38252 215.551 7.96711C216.087 8.535 216.354 9.31167 216.354 10.2971C216.354 11.2158 216.095 12.0258 215.576 12.7273C215.074 13.4288 214.329 13.98 213.341 14.3809C212.354 14.765 211.182 14.9571 209.826 14.9571Z" fill="white"/>
<path d="M218.86 0.275591H222.827V14.6815H218.86V0.275591Z" fill="white"/>
<path d="M240.468 0.275591V14.6815H237.204L230.549 6.73948V14.6815H226.658V0.275591H229.922L236.576 8.24271V0.275591H240.468Z" fill="white"/>
<path d="M251.393 14.9571C249.853 14.9571 248.464 14.6398 247.225 14.0051C246.003 13.3537 245.04 12.4601 244.337 11.3243C243.634 10.1886 243.283 8.91081 243.283 7.49109C243.283 6.07137 243.634 4.79363 244.337 3.65786C245.04 2.50538 246.003 1.6118 247.225 0.977098C248.464 0.325699 249.853 0 251.393 0C252.933 0 254.314 0.325699 255.536 0.977098C256.775 1.6118 257.746 2.50538 258.449 3.65786C259.152 4.79363 259.503 6.07137 259.503 7.49109C259.503 8.91081 259.152 10.1886 258.449 11.3243C257.746 12.4601 256.775 13.3537 255.536 14.0051C254.314 14.6398 252.933 14.9571 251.393 14.9571ZM251.393 11.7252C252.163 11.7252 252.858 11.5415 253.477 11.174C254.113 10.8065 254.607 10.3055 254.959 9.67077C255.31 9.01937 255.486 8.29281 255.486 7.49109C255.486 6.67267 255.31 5.94611 254.959 5.31141C254.607 4.66001 254.113 4.15058 253.477 3.78313C252.858 3.41567 252.163 3.23194 251.393 3.23194C250.623 3.23194 249.92 3.41567 249.284 3.78313C248.664 4.15058 248.171 4.66001 247.802 5.31141C247.451 5.94611 247.275 6.67267 247.275 7.49109C247.275 8.29281 247.451 9.01937 247.802 9.67077C248.171 10.3055 248.664 10.8065 249.284 11.174C249.92 11.5415 250.623 11.7252 251.393 11.7252Z" fill="white"/>
<path d="M85.7808 35.4799C84.6582 35.4799 83.6388 35.2352 82.7226 34.746C81.8194 34.2568 81.1097 33.5873 80.5935 32.7375C80.0774 31.8749 79.8193 30.9093 79.8193 29.8407C79.8193 28.7721 80.0774 27.8129 80.5935 26.9631C81.1097 26.1005 81.8194 25.4246 82.7226 24.9353C83.6388 24.4461 84.6582 24.2015 85.7808 24.2015C87.6776 24.2015 89.1228 24.7744 90.1164 25.9203L88.9163 27.1369C88.0905 26.2615 87.0647 25.8237 85.8388 25.8237C85.0517 25.8237 84.342 25.9975 83.7098 26.3451C83.0904 26.6799 82.6 27.1563 82.2387 27.7743C81.8903 28.3794 81.7162 29.0682 81.7162 29.8407C81.7162 30.6003 81.8903 31.2891 82.2387 31.9071C82.6 32.5122 83.0904 32.9886 83.7098 33.3362C84.342 33.6838 85.0517 33.8576 85.8388 33.8576C87.0518 33.8576 88.0776 33.4134 88.9163 32.5251L90.1164 33.7418C89.1099 34.9005 87.6647 35.4799 85.7808 35.4799Z" fill="white"/>
<path d="M96.5109 24.356H98.3883V28.9909H104.408V24.356H106.285V35.3254H104.408V30.5359H98.3883V35.3254H96.5109V24.356Z" fill="white"/>
<path d="M113.916 24.356H115.793V35.3254H113.916V24.356Z" fill="white"/>
<path d="M123.4 24.356H125.278V33.7611H131.181V35.3254H123.4V24.356Z" fill="white"/>
<path d="M137.081 24.356H138.959V33.7611H144.862V35.3254H137.081V24.356Z" fill="white"/>
<path d="M150.762 24.356H152.64V35.3254H150.762V24.356Z" fill="white"/>
<path d="M176.235 24.356L172.519 35.3254H170.525L167.641 26.9052L164.757 35.3254H162.744L159.028 24.356H160.964L163.828 32.95L166.809 24.356H168.57L171.493 33.0079L174.415 24.356H176.235Z" fill="white"/>
<path d="M188.93 32.7182H183.027L181.866 35.3254H180.027L185.059 24.356H186.918L191.969 35.3254H190.072L188.93 32.7182ZM188.272 31.2312L185.988 26.0555L183.685 31.2312H188.272Z" fill="white"/>
<path d="M202.45 35.4799C201.327 35.4799 200.308 35.2352 199.391 34.746C198.488 34.2568 197.778 33.5873 197.262 32.7375C196.746 31.8749 196.488 30.9093 196.488 29.8407C196.488 28.7721 196.746 27.8129 197.262 26.9631C197.778 26.1005 198.488 25.4246 199.391 24.9353C200.308 24.4461 201.327 24.2015 202.45 24.2015C204.346 24.2015 205.792 24.7744 206.785 25.9203L205.585 27.1369C204.759 26.2615 203.733 25.8237 202.508 25.8237C201.721 25.8237 201.011 25.9975 200.379 26.3451C199.759 26.6799 199.269 27.1563 198.908 27.7743C198.559 28.3794 198.385 29.0682 198.385 29.8407C198.385 30.6003 198.559 31.2891 198.908 31.9071C199.269 32.5122 199.759 32.9886 200.379 33.3362C201.011 33.6838 201.721 33.8576 202.508 33.8576C203.721 33.8576 204.746 33.4134 205.585 32.5251L206.785 33.7418C205.779 34.9005 204.333 35.4799 202.45 35.4799Z" fill="white"/>
<path d="M216.935 30.5938L215.057 32.4865V35.3254H213.18V24.356H215.057V30.169L220.806 24.356H222.896L218.193 29.2999L223.206 35.3254H220.98L216.935 30.5938Z" fill="white"/>
<path d="M9.77365 18.0547C9.77365 20.6098 7.69767 22.6812 5.13682 22.6812C2.57598 22.6812 0.5 20.6098 0.5 18.0547C0.5 15.4995 2.57598 13.4281 5.13682 13.4281C7.69767 13.4281 9.77365 15.4995 9.77365 18.0547Z" fill="#DF2124"/>
<path d="M9.77365 4.7359C9.77365 7.29105 7.69767 9.36242 5.13682 9.36242C2.57598 9.36242 0.5 7.29105 0.5 4.7359C0.5 2.18074 2.57598 0.109375 5.13682 0.109375C7.69767 0.109375 9.77365 2.18074 9.77365 4.7359Z" fill="#DF2124"/>
<path d="M9.77365 31.3734C9.77365 33.9286 7.69767 36 5.13682 36C2.57598 36 0.5 33.9286 0.5 31.3734C0.5 28.8183 2.57598 26.7469 5.13682 26.7469C7.69767 26.7469 9.77365 28.8183 9.77365 31.3734Z" fill="#DF2124"/>
<path d="M23.8246 18.0547C23.8246 20.6098 21.7487 22.6812 19.1878 22.6812C16.627 22.6812 14.551 20.6098 14.551 18.0547C14.551 15.4995 16.627 13.4281 19.1878 13.4281C21.7487 13.4281 23.8246 15.4995 23.8246 18.0547Z" fill="#DF2124"/>
<path d="M23.8246 4.7359C23.8246 7.29105 21.7487 9.36242 19.1878 9.36242C16.627 9.36242 14.551 7.29105 14.551 4.7359C14.551 2.18074 16.627 0.109375 19.1878 0.109375C21.7487 0.109375 23.8246 2.18074 23.8246 4.7359Z" fill="#DF2124"/>
<path d="M37.8756 4.7359C37.8756 7.29105 35.7996 9.36242 33.2388 9.36242C30.6779 9.36242 28.602 7.29105 28.602 4.7359C28.602 2.18074 30.6779 0.109375 33.2388 0.109375C35.7996 0.109375 37.8756 2.18074 37.8756 4.7359Z" fill="#DF2124"/>
<path d="M37.8756 31.3734C37.8756 33.9286 35.7996 36 33.2388 36C30.6779 36 28.602 33.9286 28.602 31.3734C28.602 28.8183 30.6779 26.7469 33.2388 26.7469C35.7996 26.7469 37.8756 28.8183 37.8756 31.3734Z" fill="#DF2124"/>
<path d="M23.8246 31.3734C23.8246 33.9286 21.7487 36 19.1878 36C16.627 36 14.551 33.9286 14.551 31.3734C14.551 28.8183 16.627 26.7469 19.1878 26.7469C21.7487 26.7469 23.8246 28.8183 23.8246 31.3734Z" fill="#DF2124"/>
</svg>
