<svg width="83" height="48" viewBox="0 0 83 48" fill="none" xmlns="http://www.w3.org/2000/svg">
<path d="M20.9688 17.9844C20.9688 18.2969 20.9271 18.7708 20.8438 19.4062C20.7708 20.0417 20.7344 20.5104 20.7344 20.8125C20.7344 21.1042 20.7031 21.2917 20.6406 21.375C20.5781 21.4583 20.4062 21.5781 20.125 21.7344C18.7812 22.474 17.2917 22.8437 15.6562 22.8437C12.6458 22.8437 11.1406 21.6927 11.1406 19.3906C11.1406 18.7031 11.1667 17.6719 11.2188 16.2969C11.2708 14.9115 11.2969 13.875 11.2969 13.1875C11.2969 12.7292 11.0312 12.5 10.5 12.5C10.4583 12.5 10.3906 12.5 10.2969 12.5C10.2031 12.5104 10.1354 12.5156 10.0938 12.5156C9.69792 12.5156 9.5 12.375 9.5 12.0937C9.5 11.9271 9.51042 11.6719 9.53125 11.3281C9.5625 10.9844 9.57812 10.7292 9.57812 10.5625C9.57812 10.3437 9.5625 10.0104 9.53125 9.5625C9.51042 9.11458 9.5 8.78125 9.5 8.5625C9.5 8.35417 9.83333 8.23958 10.5 8.21875C10.875 8.20833 11.0781 8.10417 11.1094 7.90625C11.1719 7.51042 11.1927 6.88542 11.1719 6.03125C11.1302 4.6875 11.1094 4.04687 11.1094 4.10937C11.1094 2.90104 11.224 2.29687 11.4531 2.29687C11.7344 2.29687 12.1354 2.35937 12.6562 2.48437C13.25 2.61979 13.6615 2.69792 13.8906 2.71875C14.4219 2.79167 15.224 2.89062 16.2969 3.01562C16.5573 3.03646 16.6875 3.125 16.6875 3.28125C16.6875 3.69792 16.651 4.32812 16.5781 5.17187C16.5156 6.01562 16.4844 6.65104 16.4844 7.07812C16.4844 7.58854 16.6354 7.84375 16.9375 7.84375C17.3021 7.84375 17.8542 7.82812 18.5938 7.79687C19.3333 7.76562 19.8906 7.75 20.2656 7.75C20.4948 7.75 20.6094 7.82812 20.6094 7.98437C20.6094 8.22396 20.5833 8.58333 20.5312 9.0625C20.4792 9.54167 20.4531 9.90104 20.4531 10.1406C20.4531 10.3906 20.4583 10.7552 20.4688 11.2344C20.4792 11.7135 20.4844 12.0781 20.4844 12.3281C20.4844 12.5469 20.3333 12.6562 20.0312 12.6562C19.8229 12.6562 19.474 12.651 18.9844 12.6406C18.4948 12.6198 18.1458 12.6094 17.9375 12.6094H16.7656C16.6094 12.6094 16.5312 12.8385 16.5312 13.2969C16.5312 13.5469 16.5312 13.9167 16.5312 14.4062C16.5417 14.9062 16.5469 15.276 16.5469 15.5156C16.5469 16.3906 16.6458 16.9948 16.8438 17.3281C17.125 17.776 17.6771 18 18.5 18C18.7604 18 19.1302 17.9427 19.6094 17.8281C20.099 17.7031 20.4427 17.6406 20.6406 17.6406C20.8594 17.6406 20.9688 17.7552 20.9688 17.9844Z" fill="url(#paint0_linear_651_9366)"/>
<path d="M37.6406 14.875C37.6406 17.25 36.9115 19.1771 35.4531 20.6562C34.0052 22.1354 32.099 22.875 29.7344 22.875C27.4427 22.875 25.5573 22.1458 24.0781 20.6875C22.599 19.2292 21.8594 17.3542 21.8594 15.0625C21.8594 12.6458 22.5677 10.6875 23.9844 9.1875C25.401 7.67708 27.3177 6.92187 29.7344 6.92187C32.0885 6.92187 33.9948 7.66146 35.4531 9.14062C36.9115 10.6094 37.6406 12.5208 37.6406 14.875ZM32.5156 14.875C32.5156 14.0521 32.2604 13.3281 31.75 12.7031C31.2396 12.0677 30.5781 11.75 29.7656 11.75C28.9427 11.75 28.2656 12.0729 27.7344 12.7187C27.2344 13.3229 26.9844 14.0417 26.9844 14.875C26.9844 15.7187 27.2344 16.4427 27.7344 17.0469C28.2656 17.6927 28.9427 18.0156 29.7656 18.0156C30.5781 18.0156 31.25 17.6927 31.7812 17.0469C32.2708 16.4427 32.5156 15.7187 32.5156 14.875Z" fill="url(#paint1_linear_651_9366)"/>
<path d="M56.1094 0.390625C56.1094 0.161458 56.0677 0.505208 55.9844 1.42187C55.8698 2.57812 55.7812 4.05729 55.7188 5.85937C55.6354 7.90104 55.5938 10.224 55.5938 12.8281C55.5938 17.1302 55.7135 20.1927 55.9531 22.0156C55.974 22.2135 55.9844 22.3385 55.9844 22.3906C55.9844 22.5052 55.9062 22.5729 55.75 22.5937C55.375 22.6458 53.9948 22.6719 51.6094 22.6719C51.0469 22.6719 50.724 22.5625 50.6406 22.3437C50.6198 21.9479 50.599 21.5521 50.5781 21.1562C50.5677 21.0729 50.526 20.9896 50.4531 20.9062C50.3906 20.9375 50.3125 21 50.2188 21.0937C49.0938 22.1979 47.6875 22.75 46 22.75C43.8021 22.75 42.0417 21.9792 40.7188 20.4375C39.4583 18.9687 38.8281 17.1146 38.8281 14.875C38.8281 12.6042 39.4479 10.7344 40.6875 9.26562C42 7.70312 43.7708 6.92187 46 6.92187C47.5729 6.92187 48.7969 7.42187 49.6719 8.42187C49.8177 8.58854 49.9219 8.67187 49.9844 8.67187C50.0781 8.67187 50.125 8.53646 50.125 8.26562C50.125 7.46354 50.1042 6.26562 50.0625 4.67187C50.0208 3.07812 50 1.88542 50 1.09375C50 0.791667 50.0833 0.619792 50.25 0.578125C50.9167 0.546875 51.8333 0.484375 53 0.390625C55.0833 0.130208 56.0052 0 55.7656 0C55.9948 0 56.1094 0.130208 56.1094 0.390625ZM50.2188 14.75C50.2188 13.9271 49.9323 13.2083 49.3594 12.5937C48.7865 11.9687 48.0938 11.6562 47.2812 11.6562C46.4271 11.6562 45.7448 11.9687 45.2344 12.5937C44.7344 13.2083 44.4844 13.9479 44.4844 14.8125C44.4844 15.6562 44.7396 16.3698 45.25 16.9531C45.7708 17.5781 46.4479 17.8906 47.2812 17.8906C48.1146 17.8906 48.8125 17.5781 49.375 16.9531C49.9375 16.3281 50.2188 15.5937 50.2188 14.75Z" fill="url(#paint2_linear_651_9366)"/>
<path d="M73.4531 14.875C73.4531 17.25 72.724 19.1771 71.2656 20.6562C69.8177 22.1354 67.9115 22.875 65.5469 22.875C63.2552 22.875 61.3698 22.1458 59.8906 20.6875C58.4115 19.2292 57.6719 17.3542 57.6719 15.0625C57.6719 12.6458 58.3802 10.6875 59.7969 9.1875C61.2135 7.67708 63.1302 6.92187 65.5469 6.92187C67.901 6.92187 69.8073 7.66146 71.2656 9.14062C72.724 10.6094 73.4531 12.5208 73.4531 14.875ZM68.3281 14.875C68.3281 14.0521 68.0729 13.3281 67.5625 12.7031C67.0521 12.0677 66.3906 11.75 65.5781 11.75C64.7552 11.75 64.0781 12.0729 63.5469 12.7187C63.0469 13.3229 62.7969 14.0417 62.7969 14.875C62.7969 15.7187 63.0469 16.4427 63.5469 17.0469C64.0781 17.6927 64.7552 18.0156 65.5781 18.0156C66.3906 18.0156 67.0625 17.6927 67.5938 17.0469C68.0833 16.4427 68.3281 15.7187 68.3281 14.875Z" fill="url(#paint3_linear_651_9366)"/>
<path d="M11.3934 39.9626C11.3934 42.0871 10.5038 43.908 8.72452 45.4255C7.16378 46.7651 5.26489 47.618 3.02783 47.9843C2.94459 47.9948 2.87696 48 2.82493 48C2.58562 48 2.05497 47.2674 1.23298 45.8023C0.410994 44.3267 0 43.4266 0 43.1022C0 42.9871 0.0780369 42.9138 0.234111 42.8824C1.74282 42.5371 2.74169 42.244 3.23073 42.0033C4.31284 41.4591 4.85389 40.6533 4.85389 39.5858C4.85389 38.9056 4.50012 38.1468 3.79259 37.3096C2.56481 35.8863 1.8989 35.0962 1.79485 34.9392C1.07691 33.8508 0.717939 32.6473 0.717939 31.3287C0.717939 29.4135 1.59715 27.8228 3.35558 26.5564C4.79146 25.5099 6.5551 24.8297 8.64648 24.5157C8.76094 24.5052 8.84938 24.5 8.91181 24.5C9.06788 24.5 9.19274 24.6256 9.28639 24.8768C9.55691 25.6407 10.1864 27.0222 11.1749 29.021C11.2061 29.0838 11.2217 29.1362 11.2217 29.178C11.2217 29.3559 11.1281 29.4449 10.9408 29.4449C10.8575 29.4449 10.7171 29.4292 10.5194 29.3978C10.3217 29.3664 10.1708 29.3507 10.0668 29.3507C9.3176 29.3507 8.66209 29.5234 8.10023 29.8687C7.42391 30.2664 7.08575 30.8211 7.08575 31.5327C7.08575 32.1711 7.46032 32.956 8.20948 33.8874C9.5309 35.5619 10.2228 36.441 10.2853 36.5247C11.024 37.6759 11.3934 38.8219 11.3934 39.9626Z" fill="url(#paint4_linear_651_9366)"/>
<path d="M28.3274 47.4506C27.4326 47.4506 26.2672 47.4296 24.8313 47.3878C22.9584 47.3459 21.7931 47.3197 21.3353 47.3093L16.6687 47.2465C16.2005 47.257 15.5293 47.236 14.6553 47.1837C14.3536 47.1314 14.2027 46.9692 14.2027 46.6971C14.2027 45.5563 14.2183 43.8505 14.2495 41.5795C14.2911 39.298 14.312 37.587 14.312 36.4462C14.312 35.2322 14.2755 33.4165 14.2027 30.999C14.1299 28.571 14.0935 26.7501 14.0935 25.5361C14.0935 25.3058 14.2495 25.1907 14.5617 25.1907C14.8738 25.1907 15.3368 25.2064 15.9507 25.2378C16.575 25.2692 17.038 25.2849 17.3398 25.2849C17.6831 25.2849 18.193 25.2692 18.8693 25.2378C19.5456 25.1959 20.0555 25.175 20.3988 25.175C20.5549 25.175 20.6277 25.2744 20.6173 25.4733L20.6017 25.6774C20.4769 27.6448 20.3364 30.6013 20.1803 34.5468L20.1647 38.691C20.1647 40.0306 20.1699 41.0091 20.1803 41.6266C20.1907 41.7522 20.2011 41.8778 20.2115 42.0033C20.2219 42.1289 20.3 42.2074 20.4457 42.2388C20.4561 42.2388 20.5913 42.2388 20.8514 42.2388C21.7879 42.2388 23.1873 42.1917 25.0498 42.0975C26.9227 41.9929 28.3274 41.9405 29.2638 41.9405C29.5448 41.9405 29.6852 42.0609 29.6852 42.3016C29.6852 44.0912 29.5552 45.6348 29.295 46.9325C29.243 47.2046 29.1338 47.3668 28.9673 47.4192C28.9153 47.4401 28.702 47.4506 28.3274 47.4506Z" fill="url(#paint5_linear_651_9366)"/>
<path d="M53.1431 36.1951C53.1431 39.4603 52.1078 42.1969 50.0372 44.4051C47.925 46.6447 45.251 47.7645 42.015 47.7645C38.7999 47.7645 36.1311 46.6343 34.0085 44.3737C31.9275 42.1656 30.887 39.4393 30.887 36.1951C30.887 32.9403 31.9275 30.2036 34.0085 27.985C36.1311 25.714 38.7999 24.5785 42.015 24.5785C45.2094 24.5785 47.873 25.714 50.006 27.985C52.0974 30.2246 53.1431 32.9613 53.1431 36.1951ZM47.2279 36.1637C47.2279 34.5939 46.7545 33.2595 45.8076 32.1607C44.8192 31.0095 43.555 30.4339 42.015 30.4339C40.5479 30.4339 39.3046 31.0304 38.2849 32.2234C37.2964 33.3746 36.8022 34.6985 36.8022 36.1951C36.8022 37.7963 37.2652 39.1306 38.1912 40.1981C39.1693 41.3179 40.4439 41.8778 42.015 41.8778C43.4821 41.8778 44.7307 41.2865 45.7608 40.1039C46.7389 38.9736 47.2279 37.6602 47.2279 36.1637Z" fill="url(#paint6_linear_651_9366)"/>
<path d="M70.6702 29.9629C70.6702 30.1722 70.5557 30.2769 70.3268 30.2769C69.9314 30.2769 68.3655 30.1984 65.629 30.0414C65.5666 32.6892 65.5353 34.5363 65.5353 35.5828C65.5353 36.8177 65.5822 38.6754 65.6758 41.1556C65.7799 43.6359 65.8319 45.4935 65.8319 46.7285C65.8319 46.9273 65.7851 47.0529 65.6914 47.1052C65.6602 47.1261 65.5145 47.1523 65.2544 47.1837C64.6301 47.2674 63.7145 47.3093 62.5075 47.3093C61.1653 47.3093 60.2236 47.2674 59.6826 47.1837C59.3912 47.1314 59.2456 46.9692 59.2456 46.6971C59.2456 45.4621 59.2976 43.6098 59.4016 41.1399C59.5057 38.6701 59.5577 36.8177 59.5577 35.5828C59.5577 34.7665 59.5161 32.9456 59.4329 30.1199C57.3519 30.3292 55.6923 30.4339 54.4541 30.4339C54.2876 30.4339 54.2044 30.3815 54.2044 30.2769C54.2044 30.1408 54.2772 29.7379 54.4229 29.0681C54.5894 28.3356 54.683 27.8908 54.7038 27.7338C54.735 27.2419 54.7715 26.7501 54.8131 26.2582C54.8859 25.4733 55.0108 25.0808 55.1877 25.0808C55.2085 25.0808 55.2813 25.0861 55.4062 25.0965C57.0918 25.3163 59.5837 25.4262 62.8821 25.4262C63.8185 25.4262 65.5458 25.3268 68.0637 25.1279C69.4164 25.0233 70.0979 24.9709 70.1083 24.9709C70.3164 24.9709 70.4361 24.9866 70.4673 25.018C70.4985 25.039 70.5193 25.1384 70.5297 25.3163C70.5297 25.5989 70.5193 25.9913 70.4985 26.4937C70.4777 27.0483 70.4673 27.4408 70.4673 27.671C70.4673 27.9326 70.4985 28.3199 70.5609 28.8327C70.6338 29.335 70.6702 29.7118 70.6702 29.9629Z" fill="url(#paint7_linear_651_9366)"/>
<path d="M83 39.9626C83 42.0871 82.1104 43.908 80.3311 45.4255C78.7704 46.7651 76.8715 47.618 74.6344 47.9843C74.5512 47.9948 74.4836 48 74.4315 48C74.1922 48 73.6616 47.2674 72.8396 45.8023C72.0176 44.3267 71.6066 43.4266 71.6066 43.1022C71.6066 42.9871 71.6847 42.9138 71.8407 42.8824C73.3494 42.5371 74.3483 42.244 74.8373 42.0033C75.9194 41.4591 76.4605 40.6533 76.4605 39.5858C76.4605 38.9056 76.1067 38.1468 75.3992 37.3096C74.1714 35.8863 73.5055 35.0962 73.4015 34.9392C72.6835 33.8508 72.3246 32.6473 72.3246 31.3287C72.3246 29.4135 73.2038 27.8228 74.9622 26.5564C76.3981 25.5099 78.1617 24.8297 80.2531 24.5157C80.3676 24.5052 80.456 24.5 80.5184 24.5C80.6745 24.5 80.7994 24.6256 80.893 24.8768C81.1635 25.6407 81.793 27.0222 82.7815 29.021C82.8127 29.0838 82.8283 29.1362 82.8283 29.178C82.8283 29.3559 82.7347 29.4449 82.5474 29.4449C82.4641 29.4449 82.3237 29.4292 82.126 29.3978C81.9283 29.3664 81.7774 29.3507 81.6734 29.3507C80.9242 29.3507 80.2687 29.5234 79.7068 29.8687C79.0305 30.2664 78.6924 30.8211 78.6924 31.5327C78.6924 32.1711 79.0669 32.956 79.8161 33.8874C81.1375 35.5619 81.8294 36.441 81.8919 36.5247C82.6306 37.6759 83 38.8219 83 39.9626Z" fill="url(#paint8_linear_651_9366)"/>
<defs>
<linearGradient id="paint0_linear_651_9366" x1="41.4766" y1="0" x2="41.4766" y2="22.875" gradientUnits="userSpaceOnUse">
<stop offset="0.5" stop-color="#56EFFE"/>
<stop offset="0.655" stop-color="#2693C4"/>
</linearGradient>
<linearGradient id="paint1_linear_651_9366" x1="41.4766" y1="0" x2="41.4766" y2="22.875" gradientUnits="userSpaceOnUse">
<stop offset="0.5" stop-color="#56EFFE"/>
<stop offset="0.655" stop-color="#2693C4"/>
</linearGradient>
<linearGradient id="paint2_linear_651_9366" x1="41.4766" y1="0" x2="41.4766" y2="22.875" gradientUnits="userSpaceOnUse">
<stop offset="0.5" stop-color="#56EFFE"/>
<stop offset="0.655" stop-color="#2693C4"/>
</linearGradient>
<linearGradient id="paint3_linear_651_9366" x1="41.4766" y1="0" x2="41.4766" y2="22.875" gradientUnits="userSpaceOnUse">
<stop offset="0.5" stop-color="#56EFFE"/>
<stop offset="0.655" stop-color="#2693C4"/>
</linearGradient>
<linearGradient id="paint4_linear_651_9366" x1="41.5" y1="24.5" x2="41.5" y2="48" gradientUnits="userSpaceOnUse">
<stop offset="0.5" stop-color="#D9D8D7"/>
<stop offset="0.65" stop-color="white"/>
</linearGradient>
<linearGradient id="paint5_linear_651_9366" x1="41.5" y1="24.5" x2="41.5" y2="48" gradientUnits="userSpaceOnUse">
<stop offset="0.5" stop-color="#D9D8D7"/>
<stop offset="0.65" stop-color="white"/>
</linearGradient>
<linearGradient id="paint6_linear_651_9366" x1="41.5" y1="24.5" x2="41.5" y2="48" gradientUnits="userSpaceOnUse">
<stop offset="0.5" stop-color="#D9D8D7"/>
<stop offset="0.65" stop-color="white"/>
</linearGradient>
<linearGradient id="paint7_linear_651_9366" x1="41.5" y1="24.5" x2="41.5" y2="48" gradientUnits="userSpaceOnUse">
<stop offset="0.5" stop-color="#D9D8D7"/>
<stop offset="0.65" stop-color="white"/>
</linearGradient>
<linearGradient id="paint8_linear_651_9366" x1="41.5" y1="24.5" x2="41.5" y2="48" gradientUnits="userSpaceOnUse">
<stop offset="0.5" stop-color="#D9D8D7"/>
<stop offset="0.65" stop-color="white"/>
</linearGradient>
</defs>
</svg>
