<svg width="105" height="48" viewBox="0 0 105 48" fill="none" xmlns="http://www.w3.org/2000/svg">
<path d="M23.0351 23.4751L21.0062 10.7052C20.9532 10.7052 20.8933 10.7121 20.8264 10.7258C20.7596 10.7396 20.7002 10.746 20.6482 10.7449C19.9852 10.7449 19.4219 10.5126 18.9583 10.048C18.4947 9.58331 18.2624 9.02001 18.2613 8.35804C18.2602 7.69607 18.4926 7.13276 18.9583 6.66811C19.424 6.20346 19.9873 5.97114 20.6482 5.97114C21.3091 5.97114 21.8729 6.20346 22.3397 6.66811C22.8065 7.13276 23.0383 7.69607 23.0351 8.35804C23.0351 8.54369 23.0149 8.71607 22.9746 8.8752C22.9343 9.03433 22.8882 9.18019 22.8362 9.3128L27.8089 11.5406L32.7816 4.73791C32.4899 4.52574 32.2512 4.24727 32.0655 3.90249C31.8799 3.55772 31.7871 3.18642 31.7871 2.7886C31.7871 2.12558 32.0194 1.56174 32.484 1.09709C32.9487 0.632439 33.512 0.400644 34.174 0.401705C34.8359 0.402766 35.3998 0.635091 35.8655 1.09868C36.3312 1.56227 36.563 2.12558 36.5609 2.7886C36.5609 3.18642 36.468 3.55772 36.2824 3.90249C36.0967 4.24727 35.8581 4.52574 35.5663 4.73791L40.539 11.5406L45.5117 9.3128C45.4587 9.18019 45.412 9.03433 45.3717 8.8752C45.3314 8.71607 45.3118 8.54369 45.3128 8.35804C45.3128 7.69501 45.5452 7.13117 46.0098 6.66652C46.4745 6.20187 47.0378 5.97008 47.6997 5.97114C48.3617 5.9722 48.9255 6.20452 49.3912 6.66811C49.857 7.1317 50.0888 7.69501 50.0866 8.35804C50.0845 9.02107 49.8527 9.5849 49.3912 10.0496C48.9298 10.5142 48.3659 10.746 47.6997 10.7449C47.6467 10.7449 47.5873 10.7386 47.5215 10.7258C47.4557 10.7131 47.3958 10.7062 47.3417 10.7052L45.3128 23.4751H23.0351ZM25.7403 20.2925H42.6077L43.642 13.649L39.4649 15.479L34.174 8.19891L28.883 15.479L24.7059 13.649L25.7403 20.2925Z" fill="white"/>
<path d="M0 23.4751V0H4.49965V12.4581L9.76793 6.46925H15.3084L9.49571 12.6823L15.7248 23.4751H10.8728L6.59736 15.8369L4.49965 18.0306V23.4751H0Z" fill="white"/>
<path d="M52.6231 4.74224V0.78245H56.9027V4.74224H52.6231ZM52.6231 23.1095V6.93535H56.9027V23.1095H52.6231Z" fill="white"/>
<path d="M60.9904 6.93535H63.3663V5.71695C63.3663 4.35641 63.5084 3.34108 63.7927 2.67096C64.0872 2.00085 64.6202 1.45764 65.3919 1.04136C66.1737 0.614921 67.1586 0.401702 68.3465 0.401702C69.5649 0.401702 70.7579 0.584461 71.9255 0.94998L71.3468 3.93505C70.6665 3.7726 70.0116 3.69137 69.3821 3.69137C68.7628 3.69137 68.316 3.83859 68.0419 4.13304C67.7779 4.41733 67.6459 4.97068 67.6459 5.7931V6.93535H70.8442V10.3012H67.6459V23.1095H63.3663V10.3012H60.9904V6.93535Z" fill="white"/>
<path d="M72.9368 6.93535H75.3127V5.71695C75.3127 4.35641 75.4548 3.34108 75.7391 2.67096C76.0335 2.00085 76.5666 1.45764 77.3382 1.04136C78.12 0.614921 79.1049 0.401702 80.2929 0.401702C81.5113 0.401702 82.7043 0.584461 83.8719 0.94998L83.2932 3.93505C82.6129 3.7726 81.958 3.69137 81.3285 3.69137C80.7091 3.69137 80.2624 3.83859 79.9883 4.13304C79.7243 4.41733 79.5923 4.97068 79.5923 5.7931V6.93535H82.7906V10.3012H79.5923V23.1095H75.3127V10.3012H72.9368V6.93535Z" fill="white"/>
<path d="M15.0472 36.2425L10.8285 37.004C10.6863 36.1613 10.3614 35.5267 9.85377 35.1002C9.35626 34.6738 8.70645 34.4606 7.90434 34.4606C6.83825 34.4606 5.98537 34.8312 5.34571 35.5724C4.71621 36.3034 4.40146 37.532 4.40146 39.258C4.40146 41.177 4.72128 42.5325 5.36093 43.3244C6.01075 44.1164 6.87886 44.5123 7.96526 44.5123C8.77752 44.5123 9.44257 44.2839 9.96039 43.827C10.4782 43.3599 10.8437 42.5629 11.0569 41.4359L15.2604 42.1517C14.8238 44.0808 13.9862 45.5378 12.7475 46.5227C11.5088 47.5076 9.8487 48 7.76728 48C5.40156 48 3.51304 47.2537 2.10173 45.7612C0.700575 44.2687 0 42.2025 0 39.5626C0 36.8923 0.705653 34.8159 2.11696 33.3336C3.52827 31.841 5.43709 31.0948 7.84342 31.0948C9.81316 31.0948 11.3768 31.5212 12.5342 32.3741C13.7019 33.2168 14.5395 34.5063 15.0472 36.2425Z" fill="white"/>
<path d="M23.0642 36.3948L19.1806 35.6942C19.6172 34.1306 20.3685 32.9731 21.4346 32.2218C22.5007 31.4704 24.0846 31.0948 26.1864 31.0948C28.0952 31.0948 29.5166 31.3232 30.4508 31.7801C31.3849 32.2269 32.0397 32.8005 32.4154 33.5011C32.8012 34.1915 32.9942 35.4658 32.9942 37.3238L32.9485 42.3192C32.9485 43.7407 33.0145 44.7916 33.1465 45.4718C33.2886 46.1419 33.5475 46.8628 33.9232 47.6345H29.6893C29.5776 47.3502 29.4405 46.9288 29.278 46.3704C29.207 46.1166 29.1562 45.949 29.1257 45.8678C28.3947 46.5785 27.6129 47.1116 26.7803 47.467C25.9478 47.8223 25.0593 48 24.1151 48C22.45 48 21.1351 47.5482 20.1705 46.6445C19.2161 45.7409 18.7389 44.5986 18.7389 43.2178C18.7389 42.304 18.9572 41.4917 19.3938 40.781C19.8304 40.0601 20.4396 39.5118 21.2214 39.1362C22.0134 38.7503 23.1505 38.4153 24.6329 38.131C26.6331 37.7553 28.019 37.405 28.7907 37.0801V36.6537C28.7907 35.8313 28.5876 35.2475 28.1815 34.9023C27.7754 34.5469 27.0088 34.3692 25.8818 34.3692C25.1203 34.3692 24.5263 34.5215 24.0999 34.8261C23.6734 35.1205 23.3282 35.6434 23.0642 36.3948ZM28.7907 39.8672C28.2424 40.05 27.3743 40.2683 26.1864 40.5221C24.9984 40.7759 24.2217 41.0247 23.8562 41.2684C23.2977 41.6643 23.0185 42.1669 23.0185 42.7761C23.0185 43.3752 23.2419 43.893 23.6887 44.3296C24.1354 44.7662 24.704 44.9845 25.3944 44.9845C26.1661 44.9845 26.9022 44.7306 27.6027 44.223C28.1206 43.8372 28.4607 43.365 28.6232 42.8066C28.7348 42.4411 28.7907 41.7456 28.7907 40.7201V39.8672Z" fill="white"/>
<path d="M37.2799 43.0198L41.5747 42.3649C41.7575 43.1975 42.1281 43.8321 42.6865 44.2687C43.2449 44.6951 44.0267 44.9083 45.0319 44.9083C46.1386 44.9083 46.9712 44.7053 47.5296 44.2991C47.9053 44.0148 48.0931 43.6341 48.0931 43.1569C48.0931 42.832 47.9916 42.5629 47.7885 42.3497C47.5753 42.1466 47.0981 41.9588 46.3569 41.7862C42.9048 41.0247 40.7167 40.3292 39.7928 39.6997C38.5135 38.8265 37.8738 37.6132 37.8738 36.0597C37.8738 34.6586 38.4272 33.4808 39.5339 32.5264C40.6406 31.572 42.3565 31.0948 44.6816 31.0948C46.895 31.0948 48.5399 31.4552 49.6161 32.1761C50.6923 32.897 51.4335 33.9631 51.8397 35.3744L47.8038 36.1206C47.6311 35.4911 47.3012 35.0089 46.8138 34.6738C46.3366 34.3387 45.6512 34.1712 44.7578 34.1712C43.6307 34.1712 42.8236 34.3286 42.3362 34.6433C42.0113 34.8667 41.8488 35.1561 41.8488 35.5114C41.8488 35.816 41.991 36.075 42.2753 36.2882C42.6611 36.5725 43.9912 36.9735 46.2655 37.4913C48.55 38.0092 50.1441 38.6437 51.0477 39.3951C51.9412 40.1566 52.388 41.2176 52.388 42.5781C52.388 44.0605 51.7686 45.3348 50.5299 46.4009C49.2912 47.467 47.4585 48 45.0319 48C42.8286 48 41.0823 47.5533 39.7928 46.6598C38.5135 45.7663 37.6758 44.553 37.2799 43.0198Z" fill="white"/>
<path d="M57.7093 29.2672V25.3074H61.9889V29.2672H57.7093ZM57.7093 47.6345V31.4603H61.9889V47.6345H57.7093Z" fill="white"/>
<path d="M82.662 47.6345H78.3824V39.3799C78.3824 37.6335 78.291 36.5065 78.1083 35.9988C77.9255 35.481 77.626 35.0799 77.2097 34.7956C76.8036 34.5113 76.3111 34.3692 75.7324 34.3692C74.9912 34.3692 74.3262 34.5723 73.7373 34.9784C73.1484 35.3845 72.7423 35.9227 72.5189 36.5928C72.3057 37.2629 72.1991 38.5016 72.1991 40.3089V47.6345H67.9195V31.4603H71.8945V33.8362C73.3058 32.0086 75.0826 31.0948 77.225 31.0948C78.1692 31.0948 79.0322 31.2674 79.814 31.6126C80.5958 31.9476 81.1847 32.3792 81.5807 32.9071C81.9868 33.4351 82.2661 34.0341 82.4184 34.7043C82.5808 35.3744 82.662 36.3339 82.662 37.5827V47.6345Z" fill="white"/>
<path d="M87.5874 39.3189C87.5874 37.8975 87.9377 36.5217 88.6383 35.1916C89.3388 33.8615 90.3288 32.8462 91.6081 32.1456C92.8976 31.4451 94.3343 31.0948 95.9182 31.0948C98.3651 31.0948 100.37 31.8918 101.934 33.4859C103.498 35.0698 104.279 37.0751 104.279 39.5017C104.279 41.9486 103.487 43.9793 101.904 45.5937C100.33 47.1979 98.3448 48 95.9486 48C94.4663 48 93.0499 47.6649 91.6995 46.9948C90.3593 46.3247 89.3388 45.3449 88.6383 44.0554C87.9377 42.7558 87.5874 41.177 87.5874 39.3189ZM91.9736 39.5474C91.9736 41.1516 92.3544 42.3802 93.1159 43.233C93.8774 44.0859 94.8165 44.5123 95.9334 44.5123C97.0503 44.5123 97.9844 44.0859 98.7357 43.233C99.4972 42.3802 99.878 41.1414 99.878 39.5169C99.878 37.933 99.4972 36.7146 98.7357 35.8617C97.9844 35.0089 97.0503 34.5824 95.9334 34.5824C94.8165 34.5824 93.8774 35.0089 93.1159 35.8617C92.3544 36.7146 91.9736 37.9432 91.9736 39.5474Z" fill="white"/>
</svg>
