<svg width="213" height="41" viewBox="0 0 213 41" fill="none" xmlns="http://www.w3.org/2000/svg">
<path d="M0 40.7091V39.4997C5.78285 39.4251 10.2856 39.2271 13.5082 38.9055C16.7382 38.5847 22.8411 38.4243 31.8168 38.4243C41.2242 38.4243 47.8629 38.6185 51.733 39.0069C55.6031 39.3952 61.3153 39.5894 68.8694 39.5894C76.5129 39.5894 82.2697 39.3952 86.1398 39.0069C90.0099 38.6185 96.6487 38.4243 106.056 38.4243C115.374 38.4243 122.013 38.6185 125.972 39.0069C129.932 39.3952 135.688 39.5894 143.243 39.5894C150.886 39.5894 156.621 39.3952 160.446 39.0069C164.279 38.6185 170.895 38.4243 180.295 38.4243C189.271 38.4243 195.374 38.5851 198.604 38.9067C201.826 39.2274 206.329 39.4255 212.112 39.5009V40.7102C205.369 40.6201 200.018 40.4108 196.059 40.0822C192.099 39.7537 186.845 39.5894 180.295 39.5894C172.882 39.5894 167.204 39.7836 163.259 40.172C159.315 40.5603 152.643 40.7545 143.243 40.7545C133.925 40.7545 127.286 40.5603 123.326 40.172C119.367 39.7836 113.61 39.5898 106.056 39.5906C98.4126 39.5906 92.6558 39.7848 88.7856 40.1731C84.9155 40.5615 78.2768 40.7557 68.8694 40.7557C59.4621 40.7557 52.8122 40.5615 48.9197 40.1731C45.0273 39.7848 39.3263 39.5906 31.8168 39.5906C25.0292 39.5906 19.8083 39.7548 16.154 40.0834C12.4997 40.4127 7.11506 40.6221 0 40.7114M0 36.319V35.1096C5.78285 35.035 10.2856 34.837 13.5082 34.5154C16.7382 34.1946 22.8411 34.0342 31.8168 34.0342C41.1349 34.0342 47.7513 34.2284 51.666 34.6168C55.5808 35.0051 61.3153 35.1993 68.8694 35.1993C76.5129 35.1993 82.2697 35.0051 86.1398 34.6168C90.0099 34.2284 96.6487 34.0338 106.056 34.033C115.374 34.033 121.998 34.2272 125.928 34.6156C129.857 35.004 135.588 35.1981 143.12 35.1981C150.756 35.1981 156.509 35.004 160.379 34.6156C164.249 34.2272 170.888 34.033 180.295 34.033C189.182 34.033 195.285 34.1938 198.604 34.5154C201.916 34.8362 206.419 35.0339 212.112 35.1084V36.3178C205.287 36.2285 199.917 36.0195 196.003 35.691C192.088 35.3624 186.852 35.1981 180.295 35.1981C172.882 35.1981 167.204 35.3923 163.259 35.7807C159.315 36.1691 152.643 36.3632 143.243 36.3632C133.925 36.3632 127.286 36.1691 123.326 35.7807C119.374 35.3923 113.618 35.1981 106.056 35.1981C98.4126 35.1981 92.6781 35.3923 88.8526 35.7807C85.0197 36.1691 78.4033 36.3632 69.0034 36.3632C59.6035 36.3632 52.9052 36.1691 48.9086 35.7807C44.9119 35.3923 39.2147 35.1981 31.8168 35.1981C25.1185 35.1981 19.8976 35.3624 16.154 35.691C12.4104 36.0195 7.02575 36.2289 0 36.319ZM0 31.9266V30.7172C5.78285 30.6426 10.2856 30.4445 13.5082 30.123C16.7382 29.8022 22.8411 29.6418 31.8168 29.6418C41.1349 29.6418 47.7513 29.836 51.666 30.2243C55.5808 30.6127 61.3153 30.8069 68.8694 30.8069C76.5129 30.8069 82.2697 30.6127 86.1398 30.2243C90.0099 29.836 96.6487 29.6414 106.056 29.6406C115.374 29.6406 121.998 29.8348 125.928 30.2232C129.857 30.6115 135.588 30.8057 143.12 30.8057C150.756 30.8057 156.509 30.6115 160.379 30.2232C164.249 29.8348 170.888 29.6406 180.295 29.6406C189.182 29.6406 195.285 29.801 198.604 30.1218C201.916 30.4434 206.419 30.6414 212.112 30.716V31.9254C205.287 31.8361 199.917 31.6271 196.003 31.2986C192.088 30.97 186.852 30.8057 180.295 30.8057C172.882 30.8057 167.204 30.9999 163.259 31.3883C159.315 31.7766 152.643 31.9708 143.243 31.9708C133.925 31.9708 127.286 31.7766 123.326 31.3883C119.374 30.9999 113.618 30.8057 106.056 30.8057C98.4126 30.8057 92.6781 30.9999 88.8526 31.3883C85.0197 31.7766 78.4033 31.9708 69.0034 31.9708C59.6035 31.9708 52.9052 31.7766 48.9086 31.3883C44.9119 30.9999 39.2147 30.8057 31.8168 30.8057C25.1185 30.8057 19.8269 30.97 15.9419 31.2986C12.0569 31.6271 6.74293 31.8364 0 31.9266Z" fill="white"/>
<path d="M1.50781 25.9388V0.625366H5.95807L10.8574 16.5075V16.7525H10.8983V0.625366H15.3485V25.9388H10.7758L5.9989 11.6081L5.95807 11.3223H5.91725V25.9388H1.50781Z" fill="white"/>
<path d="M18.3733 0.625366H30.8667V4.09575H22.8236V10.3016H30.0093L29.4377 13.772H22.8236V22.4684H30.8667V25.9388H18.3733V0.625366Z" fill="white"/>
<path d="M37.1249 25.9388L32.0622 0.625366H36.5125L39.3296 16.9566L39.3704 17.814H39.4113V16.9566L41.9834 1.76855H45.3313L47.781 16.9566L47.8219 17.814H47.8627L47.9035 16.9566L50.4757 0.625366H55.0893L50.1082 25.9388H45.9029L43.7799 12.0572L43.739 11.2407H43.6982L43.6574 12.0572L41.3302 25.9388H37.1249Z" fill="white"/>
<path d="M63.3879 25.9388V0.625366H71.3085C72.4245 0.625366 73.3363 0.76146 74.044 1.03365C74.7789 1.27862 75.3233 1.74133 75.6771 2.4218C76.0582 3.07505 76.2487 4.04132 76.2487 5.3206V6.83123C76.2487 7.70223 76.1263 8.50519 75.8813 9.24009C75.6363 9.94778 75.2961 10.5194 74.8606 10.9549C74.4251 11.3904 73.9215 11.6217 73.3499 11.6489V11.7714C74.1121 11.8259 74.7245 12.0708 75.1872 12.5063C75.6499 12.9146 75.9765 13.4454 76.1671 14.0986C76.3848 14.7247 76.4937 15.4051 76.4937 16.14V20.2637C76.4937 21.5974 76.3576 22.6861 76.0854 23.5299C75.8405 24.3465 75.3641 24.9589 74.6564 25.3672C73.9488 25.7483 72.8736 25.9388 71.431 25.9388H63.3879ZM67.8381 22.5092H70.002C70.4648 22.5092 70.8322 22.4412 71.1044 22.3051C71.4038 22.1418 71.6216 21.8832 71.7576 21.5293C71.921 21.1483 72.0026 20.6311 72.0026 19.9779V16.0992C72.0026 15.2282 71.7713 14.643 71.3085 14.3436C70.873 14.0442 70.3287 13.8945 69.6754 13.8945H67.8381V22.5092ZM67.8381 10.4649H69.8796C70.2606 10.4649 70.5872 10.3833 70.8594 10.22C71.1588 10.0294 71.4038 9.71642 71.5943 9.28092C71.7849 8.84542 71.8801 8.26022 71.8801 7.52531V6.42295C71.8801 5.82414 71.8393 5.33421 71.7576 4.95314C71.676 4.57208 71.4991 4.28628 71.2269 4.09575C70.9547 3.90522 70.5192 3.80995 69.9204 3.80995H67.8381V10.4649Z" fill="white"/>
<path d="M79.1769 0.625366H88.4857C89.6561 0.625366 90.5135 0.775069 91.0578 1.07447C91.6294 1.34666 91.9969 1.78216 92.1602 2.38097C92.3507 2.95257 92.446 3.67386 92.446 4.54486V9.81168C92.446 10.7916 92.3643 11.717 92.201 12.588C92.0377 13.4318 91.6158 14.1259 90.9354 14.6702C90.2549 15.1874 89.1389 15.446 87.5875 15.446H83.6271V25.9388H79.1769V0.625366ZM89.6289 26.7553L85.0969 15.201L88.0774 15.0785L89.3431 15.4051L89.5472 15.6093L93.7525 25.163L89.6289 26.7553ZM86.1176 11.9756C86.7981 11.9756 87.2881 11.7987 87.5875 11.4448C87.8869 11.0637 88.0366 10.4241 88.0366 9.52589V6.62709C88.0366 5.53835 87.9141 4.84427 87.6691 4.54486C87.4514 4.24546 87.0023 4.09575 86.3218 4.09575H83.6271V11.9756H86.1176Z" fill="white"/>
<path d="M101.812 26.1429C100.587 26.1429 99.4844 26.0204 98.5045 25.7755C97.5246 25.5305 96.7489 25.1358 96.1773 24.5915C95.6329 24.0199 95.3607 23.2577 95.3607 22.3051V0.625366H99.811V20.9169C99.811 21.2163 99.8654 21.5021 99.9743 21.7743C100.083 22.0465 100.287 22.2643 100.587 22.4276C100.886 22.5909 101.294 22.6725 101.812 22.6725C102.383 22.6725 102.819 22.5909 103.118 22.4276C103.417 22.2643 103.622 22.0465 103.73 21.7743C103.839 21.4749 103.894 21.1891 103.894 20.9169V0.625366H108.344V22.3051C108.344 23.2577 108.058 24.0199 107.487 24.5915C106.942 25.1358 106.167 25.5305 105.159 25.7755C104.18 26.0204 103.064 26.1429 101.812 26.1429Z" fill="white"/>
<path d="M111.193 25.9388V0.625366H115.644L120.543 16.5075V16.7525H120.584V0.625366H125.034V25.9388H120.461L115.685 11.6081L115.644 11.3223H115.603V25.9388H111.193Z" fill="white"/>
<path d="M134.428 26.2246C133.23 26.2246 132.101 26.1429 131.039 25.9796C130.005 25.8163 129.175 25.5033 128.549 25.0406C127.95 24.5506 127.651 23.8565 127.651 22.9583V17.2424L132.06 16.7525V21.1211C132.06 21.611 132.196 22.0057 132.468 22.3051C132.768 22.5773 133.339 22.7134 134.183 22.7134C134.728 22.7134 135.149 22.6453 135.449 22.5092C135.748 22.3459 135.952 22.1282 136.061 21.856C136.17 21.5838 136.225 21.2436 136.225 20.8353V18.0998C136.225 17.3649 136.048 16.7116 135.694 16.14C135.367 15.5684 134.755 15.1466 133.857 14.8744L131.039 14.017C129.842 13.6359 128.971 13.146 128.426 12.5472C127.909 11.9484 127.651 11.0093 127.651 9.73003V4.42238C127.651 3.22475 127.95 2.34014 128.549 1.76855C129.148 1.19696 129.964 0.829505 130.999 0.666194C132.033 0.475662 133.162 0.380396 134.387 0.380396C135.558 0.380396 136.606 0.475662 137.531 0.666194C138.484 0.856724 139.232 1.19696 139.777 1.68689C140.348 2.14961 140.634 2.80286 140.634 3.64664V9.36258L136.225 9.975V5.85136C136.225 5.00758 136.075 4.46321 135.775 4.21824C135.503 3.94605 134.986 3.80995 134.224 3.80995C133.435 3.80995 132.877 3.97327 132.55 4.29989C132.223 4.5993 132.06 5.21172 132.06 6.13716V8.50519C132.06 9.13122 132.196 9.71642 132.468 10.2608C132.768 10.778 133.244 11.1454 133.897 11.3632L137.041 12.343C138.32 12.7513 139.232 13.2685 139.777 13.8945C140.348 14.4933 140.634 15.4324 140.634 16.7116V22.0601C140.634 23.2305 140.362 24.1151 139.817 24.7139C139.273 25.3128 138.525 25.721 137.572 25.9388C136.646 26.1293 135.599 26.2246 134.428 26.2246Z" fill="white"/>
<path d="M147.209 25.9388L142.147 0.625366H146.597L149.414 16.9566L149.455 17.814H149.496V16.9566L152.068 1.76855H155.416L157.865 16.9566L157.906 17.814H157.947L157.988 16.9566L160.56 0.625366H165.174L160.193 25.9388H155.987L153.864 12.0572L153.823 11.2407H153.783L153.742 12.0572L151.415 25.9388H147.209Z" fill="white"/>
<path d="M187.844 26.2245C185.585 26.2245 183.925 25.8162 182.863 24.9996C181.829 24.1559 181.312 22.9991 181.312 21.5292V5.44298C181.312 3.61932 181.815 2.31283 182.822 1.52348C183.83 0.734139 185.463 0.339468 187.722 0.339468C189.899 0.339468 191.532 0.734139 192.621 1.52348C193.737 2.31283 194.282 3.63293 194.254 5.48381V10.8731L189.886 11.4039V6.54534C189.886 5.70156 189.75 5.06192 189.477 4.62642C189.232 4.1637 188.661 3.93234 187.763 3.93234C186.892 3.93234 186.334 4.17731 186.089 4.66725C185.871 5.15718 185.762 5.7696 185.762 6.50451V20.5085C185.762 21.0801 185.898 21.5701 186.17 21.9784C186.443 22.3866 186.973 22.5908 187.763 22.5908C188.606 22.5908 189.164 22.3866 189.437 21.9784C189.736 21.5701 189.886 21.0665 189.886 20.4677V15.9358L194.254 15.4459V21.5292C194.254 22.9991 193.696 24.1559 192.58 24.9996C191.492 25.8162 189.913 26.2245 187.844 26.2245Z" fill="white"/>
<path d="M207.686 26.5919L200.01 12.3429L207.318 0.257812L210.666 2.34004L204.542 12.0571L211.646 24.5505L207.686 26.5919ZM196.866 0.625265H201.317V25.9387H196.866V0.625265Z" fill="white"/>
<path d="M167.744 10.8194V8.41506H168.972V3.60646H167.744V2.4043L172.656 0L177.567 2.4043V3.60646H176.34V8.41506H177.567V10.8194H176.02L168.284 15.1952L168.972 10.8194H167.744ZM173.884 8.41506V3.60646H171.428V8.41506H173.884ZM166.516 26.4473L166.565 26.1588L177.752 19.8355L178.39 23.8988L173.884 26.4473H166.516ZM167.805 18.2366L176.72 13.2237L177.359 17.2749L167.044 23.1054L167.805 18.2366Z" fill="white"/>
</svg>
