<svg width="139" height="22" viewBox="0 0 139 22" fill="none" xmlns="http://www.w3.org/2000/svg">
<path d="M0 20.9594V1.08135H3.69824V17.7234H8.82411V20.9594H0Z" fill="#28323D"/>
<path d="M24.8815 10.9932C24.8815 14.2835 24.2652 16.8125 23.0324 18.58C21.7997 20.3476 20.0367 21.2313 17.7434 21.2313C15.4411 21.2313 13.6735 20.3521 12.4408 18.5936C11.208 16.8261 10.5917 14.2835 10.5917 10.966C10.5917 7.67564 11.208 5.15576 12.4408 3.40635C13.6735 1.64787 15.4501 0.768635 17.7706 0.768635C20.0639 0.768635 21.8223 1.65241 23.046 3.41995C24.2697 5.17843 24.8815 7.70284 24.8815 10.9932ZM14.3715 10.9932C14.3715 13.2593 14.657 14.986 15.2281 16.1734C15.7991 17.3609 16.6376 17.9546 17.7434 17.9546C19.9732 17.9546 21.0881 15.6341 21.0881 10.9932C21.0881 6.35225 19.9823 4.03179 17.7706 4.03179C16.6466 4.03179 15.7991 4.6255 15.2281 5.81293C14.657 6.99129 14.3715 8.71804 14.3715 10.9932Z" fill="#28323D"/>
<path d="M41.4692 10.9932C41.4692 14.2835 40.8529 16.8125 39.6201 18.58C38.3874 20.3476 36.6244 21.2313 34.3311 21.2313C32.0288 21.2313 30.2612 20.3521 29.0285 18.5936C27.7957 16.8261 27.1794 14.2835 27.1794 10.966C27.1794 7.67564 27.7957 5.15576 29.0285 3.40635C30.2612 1.64787 32.0378 0.768635 34.3583 0.768635C36.6516 0.768635 38.41 1.65241 39.6337 3.41995C40.8574 5.17843 41.4692 7.70284 41.4692 10.9932ZM30.9592 10.9932C30.9592 13.2593 31.2447 14.986 31.8158 16.1734C32.3868 17.3609 33.2253 17.9546 34.3311 17.9546C36.5609 17.9546 37.6758 15.6341 37.6758 10.9932C37.6758 6.35225 36.57 4.03179 34.3583 4.03179C33.2343 4.03179 32.3868 4.6255 31.8158 5.81293C31.2447 6.99129 30.9592 8.71804 30.9592 10.9932Z" fill="#28323D"/>
<path d="M50.103 20.9594H46.4184V4.33091H42.6114V1.08135H53.91V4.33091H50.103V20.9594Z" fill="#28323D"/>
<path d="M66.4639 4.03179C65.4034 4.03179 64.565 4.65269 63.9486 5.89451C63.3413 7.13632 63.0376 8.86307 63.0376 11.0748C63.0376 15.6794 64.2387 17.9818 66.6407 17.9818C67.6922 17.9818 68.7935 17.6464 69.9446 16.9756V20.266C68.9748 20.9095 67.7329 21.2313 66.2192 21.2313C63.9803 21.2313 62.2581 20.343 61.0525 18.5664C59.8561 16.7808 59.2578 14.2745 59.2578 11.0476C59.2578 7.82067 59.8742 5.30533 61.1069 3.50153C62.3487 1.69773 64.071 0.795828 66.2736 0.795828C66.9987 0.795828 67.6922 0.895535 68.3539 1.09495C69.0246 1.29437 69.7407 1.64334 70.5021 2.14188L69.2784 5.1467C68.8705 4.86571 68.4354 4.61191 67.9732 4.3853C67.5109 4.14963 67.0078 4.03179 66.4639 4.03179Z" fill="url(#paint0_linear_2653_135344)"/>
<path d="M82.1679 20.9594L81.0258 15.9423H75.8455L74.7034 20.9594H71.0052L75.9271 0.999775H80.9442L85.8797 20.9594H82.1679ZM80.3323 12.6656L79.2718 8.04275C79.2084 7.76176 79.0633 7.05927 78.8367 5.9353C78.6192 4.80226 78.4878 4.04539 78.4424 3.66468C78.3246 4.44422 78.175 5.30533 77.9938 6.24801C77.8125 7.18164 77.3411 9.32082 76.5797 12.6656H80.3323Z" fill="url(#paint1_linear_2653_135344)"/>
<path d="M96.6889 15.48C96.6889 17.3382 96.2176 18.7613 95.2749 19.7493C94.3412 20.7373 92.9907 21.2313 91.2231 21.2313C89.4918 21.2313 88.0189 20.8914 86.8043 20.2116V16.5541C88.2908 17.524 89.655 18.009 90.8968 18.009C91.6038 18.009 92.1341 17.8141 92.4876 17.4243C92.8502 17.0346 93.0315 16.5043 93.0315 15.8335C93.0315 15.1718 92.8184 14.5691 92.3924 14.0252C91.9664 13.4723 91.2639 12.8604 90.285 12.1897C89.4329 11.6005 88.7848 11.0385 88.3407 10.5037C87.9056 9.95985 87.5657 9.35254 87.3209 8.68178C87.0853 8.01102 86.9674 7.23149 86.9674 6.34319C86.9674 4.6391 87.4388 3.28852 88.3815 2.29144C89.3332 1.29437 90.6067 0.795828 92.2021 0.795828C93.7249 0.795828 95.1888 1.22185 96.5937 2.0739L95.37 5.03793C94.935 4.78413 94.4772 4.55752 93.9968 4.3581C93.5255 4.15869 93.0179 4.05898 92.474 4.05898C91.8758 4.05898 91.4135 4.2584 91.0872 4.65723C90.7699 5.04699 90.6113 5.58179 90.6113 6.26161C90.6113 6.93237 90.8016 7.51702 91.1823 8.01556C91.5721 8.51409 92.2474 9.08061 93.2082 9.71512C94.5044 10.5853 95.4063 11.4736 95.9139 12.38C96.4306 13.2865 96.6889 14.3198 96.6889 15.48Z" fill="url(#paint2_linear_2653_135344)"/>
<path d="M99.8025 20.9594V1.08135H103.283V20.9594H99.8025Z" fill="url(#paint3_linear_2653_135344)"/>
<path d="M121.407 20.9594H116.893L110.748 6.56073H110.571C110.798 7.65752 110.911 8.83588 110.911 10.0958V20.9594H107.485V1.08135H112.026L118.117 15.3305H118.267C118.094 14.3787 118.008 13.2457 118.008 11.9313V1.08135H121.407V20.9594Z" fill="url(#paint4_linear_2653_135344)"/>
<path d="M138.593 10.9932C138.593 14.2835 137.977 16.8125 136.744 18.58C135.511 20.3476 133.748 21.2313 131.455 21.2313C129.153 21.2313 127.385 20.3521 126.152 18.5936C124.92 16.8261 124.303 14.2835 124.303 10.966C124.303 7.67564 124.92 5.15576 126.152 3.40635C127.385 1.64787 129.162 0.768635 131.482 0.768635C133.776 0.768635 135.534 1.65241 136.758 3.41995C137.981 5.17843 138.593 7.70284 138.593 10.9932ZM128.083 10.9932C128.083 13.2593 128.369 14.986 128.94 16.1734C129.511 17.3609 130.349 17.9546 131.455 17.9546C133.685 17.9546 134.8 15.6341 134.8 10.9932C134.8 6.35225 133.694 4.03179 131.482 4.03179C130.358 4.03179 129.511 4.6255 128.94 5.81293C128.369 6.99129 128.083 8.71804 128.083 10.9932Z" fill="url(#paint5_linear_2653_135344)"/>
<defs>
<linearGradient id="paint0_linear_2653_135344" x1="98.9255" y1="0.768635" x2="98.9255" y2="21.2313" gradientUnits="userSpaceOnUse">
<stop stop-color="#FADE7B"/>
<stop offset="0.649038" stop-color="#F4BF51"/>
</linearGradient>
<linearGradient id="paint1_linear_2653_135344" x1="98.9255" y1="0.768635" x2="98.9255" y2="21.2313" gradientUnits="userSpaceOnUse">
<stop stop-color="#FADE7B"/>
<stop offset="0.649038" stop-color="#F4BF51"/>
</linearGradient>
<linearGradient id="paint2_linear_2653_135344" x1="98.9255" y1="0.768635" x2="98.9255" y2="21.2313" gradientUnits="userSpaceOnUse">
<stop stop-color="#FADE7B"/>
<stop offset="0.649038" stop-color="#F4BF51"/>
</linearGradient>
<linearGradient id="paint3_linear_2653_135344" x1="98.9255" y1="0.768635" x2="98.9255" y2="21.2313" gradientUnits="userSpaceOnUse">
<stop stop-color="#FADE7B"/>
<stop offset="0.649038" stop-color="#F4BF51"/>
</linearGradient>
<linearGradient id="paint4_linear_2653_135344" x1="98.9255" y1="0.768635" x2="98.9255" y2="21.2313" gradientUnits="userSpaceOnUse">
<stop stop-color="#FADE7B"/>
<stop offset="0.649038" stop-color="#F4BF51"/>
</linearGradient>
<linearGradient id="paint5_linear_2653_135344" x1="98.9255" y1="0.768635" x2="98.9255" y2="21.2313" gradientUnits="userSpaceOnUse">
<stop stop-color="#FADE7B"/>
<stop offset="0.649038" stop-color="#F4BF51"/>
</linearGradient>
</defs>
</svg>
