<svg width="121" height="24" viewBox="0 0 121 24" fill="none" xmlns="http://www.w3.org/2000/svg">
<path d="M11.457 18.995V0.880993C11.457 0.614108 11.7457 0.447054 11.9771 0.579996L19.4403 4.86739C19.5481 4.9293 19.6145 5.04411 19.6145 5.16839V23.1236C19.6145 23.3881 19.3307 23.5554 19.0994 23.4274L11.6361 19.2988C11.5256 19.2377 11.457 19.1213 11.457 18.995Z" fill="#FF5050"/>
<path d="M6.25 17.7828V4.66587C6.25 4.40719 6.52278 4.23939 6.75367 4.35605L14.3037 8.1708C14.4206 8.22986 14.4943 8.34967 14.4943 8.48063V21.995C14.4943 22.2599 14.2094 22.4272 13.978 22.2981L6.42801 18.086C6.31811 18.0247 6.25 17.9087 6.25 17.7828Z" fill="white"/>
<path d="M5.12109 18.736V5.619C5.12109 5.36031 5.39388 5.19251 5.62477 5.30917L13.1748 9.12393C13.2917 9.18298 13.3654 9.30279 13.3654 9.43375V22.9481C13.3654 23.213 13.0805 23.3803 12.8491 23.2512L5.2991 19.0391C5.1892 18.9778 5.12109 18.8618 5.12109 18.736Z" fill="#0A5AC9"/>
<path d="M0.867188 19.3402V10.4281C0.867188 10.1612 1.15593 9.99415 1.38735 10.1272L7.63565 13.72C7.74335 13.7819 7.80974 13.8967 7.80974 14.0209V22.6987C7.80974 22.9612 7.52953 23.1287 7.29827 23.0044L1.04997 19.6459C0.937405 19.5854 0.867188 19.468 0.867188 19.3402Z" fill="white"/>
<path d="M0 19.6839V10.7719C0 10.5049 0.288743 10.3379 0.520161 10.471L6.76846 14.0637C6.87616 14.1257 6.94256 14.2404 6.94256 14.3647V23.0424C6.94256 23.3049 6.66234 23.4725 6.43108 23.3482L0.182783 19.9897C0.0702175 19.9292 0 19.8117 0 19.6839Z" fill="#39CC59"/>
<path d="M36.9222 23.5401L33.4143 4.96875H36.7675L40.5333 23.5401H36.9222ZM28.2556 23.5401L24.6445 4.96875H28.7715L32.3826 23.5401H28.2556ZM29.6485 23.5401L33.4143 4.96875H36.7675L33.2596 23.5401H29.6485ZM37.7992 23.5401L41.4103 4.96875H45.5373L41.9262 23.5401H37.7992Z" fill="#0A5AC9"/>
<path d="M47.6098 23.5401V4.96875H51.8916V23.5401H47.6098Z" fill="#0A5AC9"/>
<path d="M63.2836 23.5401L55.9325 4.96875H59.5436L66.8947 23.5401H63.2836ZM55.2361 23.5401V4.96875H59.5178V23.5401H55.2361ZM64.2896 23.5401V4.96875H68.5713V23.5401H64.2896Z" fill="#0A5AC9"/>
<path d="M79.7069 23.5401L72.3557 4.96875H75.9668L83.3179 23.5401H79.7069ZM71.6593 23.5401V4.96875H75.941V23.5401H71.6593ZM80.7128 23.5401V4.96875H84.9945V23.5401H80.7128Z" fill="#0A5AC9"/>
<path d="M88.3404 23.5401V4.96875H92.6222V23.5401H88.3404Z" fill="#0A5AC9"/>
<path d="M94.9349 8.21873V4.96875H107.574V8.21873H94.9349ZM99.1135 23.5401V4.96875H103.395V23.5401H99.1135Z" fill="#0A5AC9"/>
<path d="M111.532 20.6512V17.4012H118.135V20.6512H111.532ZM116.33 4.96875L111.713 23.5401H107.586L112.203 4.96875H116.33ZM116.381 4.96875L120.998 23.5401H116.871L112.254 4.96875H116.381Z" fill="#0A5AC9"/>
</svg>
