<svg width="235" height="42" viewBox="0 0 235 42" fill="none" xmlns="http://www.w3.org/2000/svg">
<path d="M79.4316 41.8237L84.2866 20.7325C85.4716 15.5857 87.2756 11.4559 89.6987 8.34307C93.9435 2.89561 98.6923 0.171875 103.945 0.171875C108.367 0.171875 111.471 1.79904 113.257 5.05337C114.23 6.82202 114.716 8.72333 114.716 10.7573C114.716 11.8362 114.584 12.9504 114.318 14.1C113.611 17.1421 111.886 19.9808 109.145 22.6161C107.376 24.314 105.369 25.5698 103.123 26.3834L109.331 39.6218L104.157 41.8237H103.892L97.1801 27.4976H91.1844L91.264 27.2323L94.2353 22.9875H97.3658C100.691 22.9875 103.255 22.174 105.059 20.5468C107.129 18.672 108.446 16.5231 109.012 14.1C109.242 13.1096 109.357 12.1899 109.357 11.3409C109.357 9.69609 108.933 8.29885 108.084 7.14922C106.863 5.50437 105.139 4.68195 102.911 4.68195C99.6562 4.68195 96.6141 6.5921 93.7843 10.4124C92.0333 12.7824 90.6361 16.2224 89.5926 20.7325L85.2947 39.436L79.6969 41.8237H79.4316Z" fill="#FFB730"/>
<path d="M117.635 13.3069H122.843V41.3493H117.635V13.3069Z" fill="#FFB730"/>
<path d="M155.871 13.3069L143.652 41.3493H138.525L126.266 13.3069H131.915L141.249 34.9396L150.663 13.3069H155.871Z" fill="#FFB730"/>
<path d="M179.862 36.9827V41.3493H158.83V13.3069H179.301V17.6735H164.038V24.9645H177.578V29.251H164.038V36.9827H179.862Z" fill="#FFB730"/>
<path d="M204.015 41.3493L198.287 33.1369C198.046 33.1636 197.686 33.1769 197.205 33.1769H190.875V41.3493H185.667V13.3069H197.205C199.635 13.3069 201.745 13.7075 203.534 14.5087C205.351 15.3099 206.739 16.4583 207.701 17.9539C208.662 19.4495 209.143 21.2255 209.143 23.282C209.143 25.3918 208.622 27.2079 207.581 28.7302C206.566 30.2525 205.097 31.3876 203.174 32.1354L209.624 41.3493H204.015ZM203.895 23.282C203.895 21.4926 203.307 20.1172 202.132 19.1557C200.957 18.1943 199.235 17.7135 196.965 17.7135H190.875V28.8904H196.965C199.235 28.8904 200.957 28.4097 202.132 27.4483C203.307 26.4601 203.895 25.0713 203.895 23.282Z" fill="#FFB730"/>
<path d="M223.663 41.7499C221.499 41.7499 219.403 41.4428 217.373 40.8285C215.37 40.2142 213.781 39.3997 212.606 38.3848L214.409 34.3387C215.557 35.2467 216.959 35.9945 218.615 36.5821C220.298 37.1429 221.98 37.4234 223.663 37.4234C225.746 37.4234 227.295 37.0895 228.31 36.4218C229.351 35.7542 229.872 34.8728 229.872 33.7778C229.872 32.9766 229.578 32.3223 228.991 31.8149C228.43 31.2807 227.709 30.8668 226.828 30.573C225.946 30.2792 224.744 29.9454 223.222 29.5715C221.085 29.064 219.35 28.5566 218.014 28.0492C216.706 27.5417 215.57 26.7539 214.609 25.6856C213.674 24.5906 213.207 23.1217 213.207 21.2789C213.207 19.7299 213.621 18.3278 214.449 17.0726C215.303 15.7906 216.572 14.7757 218.255 14.0279C219.964 13.2801 222.047 12.9062 224.504 12.9062C226.213 12.9062 227.896 13.1199 229.552 13.5472C231.207 13.9745 232.636 14.5888 233.838 15.39L232.196 19.4361C230.967 18.715 229.685 18.1675 228.35 17.7936C227.014 17.4197 225.719 17.2328 224.464 17.2328C222.407 17.2328 220.872 17.58 219.857 18.2744C218.869 18.9688 218.375 19.8902 218.375 21.0386C218.375 21.8398 218.655 22.4941 219.216 23.0015C219.804 23.509 220.538 23.9096 221.419 24.2033C222.301 24.4971 223.502 24.831 225.025 25.2049C227.108 25.6856 228.817 26.193 230.153 26.7272C231.488 27.2346 232.623 28.0225 233.558 29.0907C234.519 30.159 235 31.6012 235 33.4173C235 34.9663 234.573 36.3684 233.718 37.6237C232.89 38.8789 231.621 39.8804 229.912 40.6282C228.203 41.376 226.12 41.7499 223.663 41.7499Z" fill="#FFB730"/>
<path d="M19.8701 27.2182C21.4191 27.7256 22.6476 28.5802 23.5556 29.7821C24.4637 30.9572 24.9177 32.4261 24.9177 34.1887C24.9177 36.6191 23.983 38.5019 22.1135 39.8373C20.244 41.1459 17.5198 41.8003 13.9411 41.8003H0V13.7578H13.1399C16.4516 13.7578 19.0021 14.4121 20.7915 15.7208C22.5808 17.0027 23.4755 18.7787 23.4755 21.0488C23.4755 22.4376 23.155 23.6661 22.5141 24.7344C21.8731 25.8027 20.9918 26.6306 19.8701 27.2182ZM5.20788 17.844V25.5757H12.579C14.3951 25.5757 15.7839 25.2552 16.7453 24.6142C17.7335 23.9466 18.2276 22.9851 18.2276 21.7299C18.2276 20.4479 17.7335 19.4865 16.7453 18.8455C15.7839 18.1778 14.3951 17.844 12.579 17.844H5.20788ZM13.6206 37.7141C17.6534 37.7141 19.6698 36.3654 19.6698 33.6679C19.6698 30.9705 17.6534 29.6218 13.6206 29.6218H5.20788V37.7141H13.6206Z" fill="#FFB730"/>
<path d="M51.5076 37.4336V41.8003H30.4758V13.7578H50.9468V18.1244H35.6837V25.4155H49.2242V29.7019H35.6837V37.4336H51.5076Z" fill="#FFB730"/>
<path d="M63.0019 18.1645H53.7078V13.7578H77.5039V18.1645H68.2098V41.8003H63.0019V18.1645Z" fill="#FFB730"/>
</svg>
