<svg width="185" height="32" viewBox="0 0 185 32" fill="none" xmlns="http://www.w3.org/2000/svg">
<path d="M13.8892 10.0755C13.8669 10.0084 13.9339 9.84089 14.0904 9.57282C14.247 9.28241 14.4147 8.93615 14.5935 8.53404C14.7948 8.10959 14.9848 7.64046 15.1637 7.12665C15.3649 6.59051 15.4991 6.04319 15.5662 5.48471C15.6556 4.92622 15.6556 4.36773 15.5662 3.80925C15.4767 3.25076 15.242 2.71462 14.8619 2.20081C14.6383 1.93274 14.3029 1.78753 13.8557 1.76519C13.4308 1.72051 12.9389 1.78753 12.3799 1.96625C11.8433 2.12262 11.2731 2.37953 10.6694 2.73696C10.0881 3.07205 9.55147 3.47416 9.05956 3.94329C8.56765 4.39007 8.14281 4.89271 7.78506 5.4512C7.44967 6.00968 7.25961 6.57934 7.21489 7.16016C7.17018 7.62929 7.18135 8.06491 7.24843 8.46702C7.33787 8.86913 7.44967 9.23773 7.58383 9.57282C7.71798 9.90791 7.86332 10.2207 8.01984 10.5111C8.17635 10.8015 8.32169 11.0584 8.45585 11.2818C8.63472 11.5945 8.91422 11.9408 9.29433 12.3206C9.67444 12.7003 10.0881 13.136 10.5353 13.6274C10.9825 14.0966 11.4297 14.6327 11.8769 15.2359C12.324 15.839 12.7153 16.5204 13.0507 17.2799C13.3861 18.0395 13.6209 18.8884 13.7551 19.8266C13.8892 20.7649 13.878 21.8037 13.7215 22.943C13.4756 24.5961 13.0843 25.97 12.5476 27.0646C12.011 28.1816 11.4185 29.0751 10.7701 29.7453C10.144 30.4155 9.50675 30.8958 8.85832 31.1862C8.20989 31.499 7.67326 31.7 7.24843 31.7894C6.91304 31.8564 6.51057 31.9122 6.04102 31.9569C5.59383 32.0239 5.1131 32.0128 4.59883 31.9234C4.10692 31.8564 3.60383 31.7 3.08956 31.4543C2.57529 31.2309 2.11692 30.8735 1.71445 30.382C1.2449 29.8235 0.875967 29.2203 0.607653 28.5725C0.361698 28.014 0.182822 27.3662 0.0710244 26.629C-0.0631328 25.9141 -0.00723396 25.1657 0.238721 24.3839C0.417597 24.1828 0.607653 24.0041 0.808889 23.8477C1.01012 23.6913 1.21136 23.5573 1.4126 23.4456C1.63619 23.3116 1.87097 23.1887 2.11692 23.077C2.4076 22.9876 2.69827 22.9095 2.98894 22.8424C3.2349 22.7978 3.49203 22.7754 3.76035 22.7754C4.05102 22.7531 4.31933 22.7866 4.56529 22.8759C4.2299 23.2557 3.99512 23.6131 3.86096 23.9482C3.77153 24.127 3.70445 24.2833 3.65973 24.4174C3.57029 24.8418 3.53675 25.3444 3.55911 25.9253C3.60383 26.5284 3.72681 27.0981 3.92804 27.6342C4.15164 28.1927 4.46467 28.6619 4.86714 29.0416C5.26962 29.4437 5.80624 29.656 6.47703 29.6783C8.10928 29.723 9.49557 28.4496 10.6359 25.8583C11.016 25.054 11.2061 24.2386 11.2061 23.4121C11.2284 22.5855 11.1278 21.7925 10.9042 21.0329C10.703 20.2734 10.4235 19.5697 10.0657 18.9219C9.73034 18.2517 9.38377 17.682 9.02602 17.2129C8.66826 16.7438 8.23225 16.2411 7.71798 15.705C7.22607 15.1465 6.73416 14.5433 6.24225 13.8955C5.75035 13.2477 5.30315 12.544 4.90068 11.7844C4.52057 11.0249 4.26344 10.1983 4.12928 9.30475C3.9504 8.05374 4.0622 6.91443 4.46467 5.88682C4.8895 4.83686 5.44849 3.92095 6.14164 3.13907C6.85714 2.35719 7.62855 1.72051 8.45585 1.22905C9.30551 0.737579 10.0546 0.424828 10.703 0.290791C14.3029 -0.42407 16.6618 0.179094 17.7798 2.10028C18.2493 2.83748 18.5065 3.61936 18.5512 4.44592C18.5959 5.27248 18.54 6.04319 18.3835 6.75805C18.2493 7.45057 18.0704 8.04257 17.8468 8.53404C17.6456 9.00316 17.5115 9.26007 17.4444 9.30475C17.3102 9.43878 17.0978 9.58399 16.8071 9.74037C16.5165 9.89674 16.0469 10.0419 15.3985 10.176C15.2196 10.2207 15.0407 10.243 14.8619 10.243C14.7053 10.243 14.5376 10.2318 14.3588 10.2095C14.1799 10.1872 14.0234 10.1425 13.8892 10.0755Z" fill="#FFB504"/>
<path d="M22.0393 25.9923C21.1896 25.9923 20.4965 25.8583 19.9598 25.5902C19.4232 25.3221 18.9984 24.9982 18.6853 24.6184C18.3947 24.2163 18.1822 23.7919 18.0481 23.3451C17.9363 22.8759 17.8804 22.4515 17.8804 22.0717C17.8804 21.4015 17.9363 20.6979 18.0481 19.9606C18.1599 19.2011 18.294 18.5086 18.4506 17.8831C18.6071 17.2352 18.7412 16.6879 18.853 16.2411C18.9872 15.7943 19.0766 15.5151 19.1213 15.4034C19.3226 14.7556 19.5797 14.1971 19.8927 13.728C20.2281 13.2365 20.6865 12.9014 21.2679 12.7227C21.4915 12.678 21.7262 12.6333 21.9722 12.5886C22.1734 12.5663 22.3747 12.5551 22.5759 12.5551C22.7995 12.5551 23.0007 12.5886 23.1796 12.6557C22.5759 14.1971 22.0952 15.4816 21.7374 16.5092C21.402 17.5368 21.1449 18.3745 20.966 19.0224C20.7648 19.7596 20.6418 20.3516 20.5971 20.7984C20.4853 21.8037 20.5747 22.5632 20.8654 23.077C21.1561 23.5908 21.7486 23.8477 22.643 23.8477C23.2243 23.8477 23.7833 23.6355 24.3199 23.211C24.8566 22.7642 25.3485 22.1946 25.7957 21.5021C25.7286 21.1446 25.695 20.776 25.695 20.3963C25.695 19.6814 25.7509 18.9889 25.8627 18.3187C25.9969 17.6262 26.1422 16.9895 26.2988 16.4087C26.4776 15.8055 26.6565 15.2694 26.8354 14.8002C27.0366 14.3311 27.2043 13.9625 27.3385 13.6944C27.5844 13.1583 27.808 12.8344 28.0093 12.7227C28.2105 12.5886 28.5347 12.5105 28.9819 12.4881C29.1608 12.4658 29.3061 12.4658 29.4179 12.4881C29.5521 12.4881 29.6639 12.4993 29.7533 12.5216C30.0216 12.5886 30.1558 12.7227 30.1558 12.9237C30.1558 13.2812 30.1334 13.8173 30.0887 14.5322C30.044 15.247 29.9098 15.9842 29.6862 16.7438C29.5297 17.3693 29.3732 17.9054 29.2167 18.3522C29.0825 18.7767 28.9484 19.1453 28.8142 19.458C28.68 19.7484 28.5459 19.9942 28.4117 20.1952C28.2776 20.3739 28.1546 20.5415 28.0428 20.6979C28.0875 21.368 28.1434 21.9042 28.2105 22.3063C28.2776 22.7084 28.3558 23.0212 28.4453 23.2445C28.5571 23.4456 28.68 23.5908 28.8142 23.6802C28.9707 23.7472 29.1384 23.7807 29.3173 23.7807C29.6303 23.7807 29.9993 23.6355 30.4241 23.3451C30.8489 23.0323 31.2849 22.6525 31.7321 22.2058C32.2017 21.7366 32.66 21.234 33.1072 20.6979C33.5768 20.1394 34.0016 19.6144 34.3817 19.1229C34.7618 18.6315 35.086 18.207 35.3544 17.8496C35.6227 17.4698 35.7904 17.2352 35.8575 17.1459C36.014 16.9448 36.1593 16.822 36.2935 16.7773C36.45 16.7326 36.573 16.7549 36.6624 16.8443C36.7518 16.9113 36.7966 17.0342 36.7966 17.2129C36.8189 17.3693 36.7742 17.548 36.6624 17.749C36.2152 18.5979 35.6562 19.5027 34.9854 20.4633C34.337 21.4015 33.6327 22.2728 32.8725 23.077C32.1346 23.8812 31.3855 24.5514 30.6253 25.0875C29.8651 25.6237 29.1496 25.8918 28.4788 25.8918C27.8751 25.8918 27.3944 25.6907 27.0366 25.2886C26.7012 24.8642 26.4106 24.261 26.1646 23.4791C25.6503 24.2833 25.0466 24.9088 24.3535 25.3556C23.6603 25.7801 22.8889 25.9923 22.0393 25.9923Z" fill="#FFB504"/>
<path d="M43.9404 26.2939C43.4262 26.2939 42.979 26.1933 42.5989 25.9923C42.2411 25.8136 41.9504 25.5678 41.7268 25.2551C41.5032 24.9423 41.3579 24.5849 41.2908 24.1828C41.2237 23.7584 41.2461 23.3116 41.3579 22.8424C41.425 22.5297 41.5368 22.1164 41.6933 21.6026C41.8498 21.0665 42.0063 20.4968 42.1628 19.8936C42.3417 19.2681 42.4982 18.6538 42.6324 18.0506C42.7889 17.4251 42.8895 16.8666 42.9342 16.3752C42.979 15.8614 42.9566 15.4481 42.8672 15.1353C42.7777 14.8002 42.5877 14.6327 42.297 14.6327C41.9392 14.6327 41.5703 14.7556 41.1902 15.0013C40.8101 15.2247 40.4188 15.5374 40.0163 15.9396C39.6362 16.3417 39.2449 16.8108 38.8424 17.3469C38.4623 17.8607 38.0822 18.3969 37.7021 18.9554C37.5009 19.7149 37.3332 20.3851 37.199 20.9659C37.0649 21.5244 36.9419 22.0382 36.8301 22.5073C36.7407 22.9541 36.6512 23.3562 36.5618 23.7137C36.4723 24.0488 36.3941 24.3727 36.327 24.6854C36.2599 24.9088 36.0587 25.1322 35.7233 25.3556C35.3879 25.5567 35.0302 25.7242 34.65 25.8583C34.2699 25.9923 33.9457 26.0593 33.6774 26.0593C33.3867 26.0593 33.2637 25.9588 33.3085 25.7577C33.3308 25.6237 33.4091 25.3221 33.5432 24.853C33.655 24.3839 33.8004 23.8365 33.9793 23.211C34.1358 22.5632 34.3035 21.8818 34.4823 21.167C34.6612 20.4521 34.8289 19.7708 34.9854 19.1229C35.0972 18.6091 35.2202 18.0395 35.3544 17.414C35.4662 16.8778 35.6003 16.2523 35.7568 15.5374C35.9357 14.8226 36.1369 14.0407 36.3605 13.1918C36.5171 13.0578 36.6736 12.9572 36.8301 12.8902C37.009 12.8009 37.1878 12.7338 37.3667 12.6892C37.5456 12.6222 37.7357 12.5775 37.9369 12.5551C38.1158 12.5551 38.2946 12.5663 38.4735 12.5886C38.63 12.611 38.7866 12.6557 38.9431 12.7227C39.1219 12.7674 39.2785 12.8455 39.4126 12.9572C39.3455 13.1136 39.2673 13.337 39.1778 13.6274C39.0884 13.8955 38.999 14.1859 38.9095 14.4987C38.8201 14.8561 38.7083 15.2247 38.5741 15.6045C38.8648 15.2024 39.189 14.8002 39.5468 14.3981C39.9269 13.9737 40.3294 13.5939 40.7542 13.2588C41.2014 12.9237 41.6709 12.6557 42.1628 12.4546C42.6548 12.2312 43.1578 12.1195 43.6721 12.1195C44.0969 12.1195 44.4771 12.2424 44.8124 12.4881C45.1478 12.7338 45.405 13.0801 45.5838 13.5269C45.7851 13.9513 45.8969 14.4652 45.9192 15.0683C45.964 15.6715 45.8857 16.3305 45.6845 17.0454L45.3155 18.5198C45.2037 18.9889 45.0584 19.5474 44.8795 20.1952C44.723 20.8207 44.5218 21.5132 44.2758 22.2728C44.1417 22.7642 44.0858 23.1887 44.1081 23.5461C44.1528 23.9036 44.3764 24.0823 44.7789 24.0823C45.1814 24.0823 45.6845 23.8365 46.2882 23.3451C46.9142 22.8536 47.5403 22.2616 48.1664 21.5691C48.7924 20.8766 49.385 20.1729 49.944 19.458C50.5029 18.7208 50.9278 18.1288 51.2184 17.682C51.4197 17.3916 51.6097 17.2017 51.7886 17.1124C51.9675 17.023 52.1017 17.0118 52.1911 17.0789C52.3029 17.1459 52.3588 17.3023 52.3588 17.548C52.3588 17.7714 52.2693 18.0618 52.0905 18.4192C51.934 18.732 51.688 19.1453 51.3526 19.6591C51.0396 20.1729 50.6595 20.7202 50.2123 21.301C49.7651 21.8818 49.2844 22.4738 48.7701 23.077C48.2558 23.6578 47.7192 24.194 47.1602 24.6854C46.6012 25.1546 46.0422 25.5343 45.4832 25.8247C44.9466 26.1375 44.4323 26.2939 43.9404 26.2939Z" fill="#FFB504"/>
<path d="M57.5238 6.25542C57.1884 7.59578 56.8083 8.8803 56.3835 10.109C55.981 11.3153 55.5562 12.4546 55.109 13.5269C54.6842 14.5768 54.2482 15.5374 53.801 16.4087C53.3761 17.2799 52.996 18.0395 52.6606 18.6873C52.437 20.2957 52.437 21.5914 52.6606 22.5744C52.8842 23.5573 53.3202 24.0488 53.9687 24.0488C54.5053 24.0488 55.0308 23.803 55.545 23.3116C56.0593 22.8201 56.5177 22.2169 56.9201 21.5021C57.3226 20.7872 57.658 20.0277 57.9263 19.2234C58.217 18.3969 58.3959 17.6597 58.4629 17.0118C58.0381 16.9001 57.6804 16.7103 57.3897 16.4422C57.099 16.1518 56.9537 15.772 56.9537 15.3029C56.9537 14.9901 57.0431 14.6997 57.222 14.4316C57.4009 14.1412 57.6133 13.8955 57.8592 13.6944C58.1052 13.4934 58.3735 13.337 58.6642 13.2253C58.9548 13.1136 59.2232 13.0578 59.4691 13.0578C59.8492 13.0578 60.1734 13.3035 60.4418 13.795C60.7101 14.2641 60.8889 14.8673 60.9784 15.6045C61.8728 15.5821 62.8119 15.4481 63.7957 15.2024C64.7795 14.9566 65.7074 14.6439 66.5794 14.2641C66.8254 14.1524 67.0266 14.1189 67.1832 14.1636C67.3397 14.2082 67.4403 14.2976 67.485 14.4316C67.5521 14.5657 67.5521 14.7221 67.485 14.9008C67.4179 15.0571 67.2838 15.18 67.0825 15.2694C66.5683 15.5598 66.0316 15.8279 65.4726 16.0736C64.936 16.297 64.3994 16.4869 63.8628 16.6432C63.3261 16.7996 62.8119 16.9225 62.32 17.0118C61.828 17.1012 61.3809 17.1459 60.9784 17.1459C60.8889 18.0395 60.6095 19.0112 60.1399 20.0612C59.6704 21.0888 59.1002 22.0494 58.4294 22.943C57.7586 23.8142 57.0096 24.5402 56.1823 25.1211C55.3773 25.7019 54.5836 25.9923 53.801 25.9923C53.555 25.9923 53.2308 25.9588 52.8283 25.8918C52.4259 25.8247 52.0346 25.5902 51.6545 25.1881C51.2743 24.786 50.9501 24.1493 50.6818 23.2781C50.4135 22.3845 50.3017 21.1223 50.3464 19.4915C50.3688 18.3969 50.4918 17.2352 50.7154 16.0066C50.939 14.7779 51.2073 13.5492 51.5203 12.3206C51.8333 11.0919 52.1799 9.90791 52.56 8.7686C52.9625 7.60695 53.3426 6.56817 53.7004 5.65225C54.0581 4.714 54.3823 3.93212 54.673 3.30661C54.986 2.68111 55.2208 2.279 55.3773 2.10028C55.5786 1.85455 55.8133 1.67584 56.0816 1.56414C56.35 1.4301 56.6071 1.34074 56.8531 1.29606C57.1214 1.22905 57.3673 1.20671 57.5909 1.22905C57.8145 1.25139 57.971 1.2849 58.0605 1.32957C58.1946 1.41893 58.2282 1.9104 58.1611 2.80398C58.1164 3.69755 57.9039 4.84803 57.5238 6.25542Z" fill="#FFB504"/>
<path d="M79.2908 18.4862C78.6201 19.4692 77.8598 20.4298 77.0102 21.368C76.1605 22.2839 75.2549 23.1105 74.2935 23.8477C73.3544 24.5626 72.3817 25.1434 71.3756 25.5902C70.3917 26.037 69.4303 26.2604 68.4912 26.2604C67.9993 26.2604 67.4626 26.1375 66.8813 25.8918C66.3223 25.6684 65.808 25.3109 65.3385 24.8195C64.8689 24.328 64.4888 23.6913 64.1982 22.9095C63.9298 22.1276 63.8516 21.1781 63.9634 20.0612C64.0528 19.1453 64.3323 18.1847 64.8019 17.1794C65.2938 16.1518 65.8863 15.2135 66.5794 14.3646C67.295 13.5157 68.0887 12.812 68.9607 12.2536C69.8551 11.6951 70.7495 11.4158 71.6439 11.4158C72.4935 11.4158 73.1084 11.628 73.4885 12.0525C73.8687 12.4769 74.0363 13.0019 73.9916 13.6274C73.9246 14.3199 73.7233 14.9566 73.3879 15.5374C73.0749 16.1183 72.6948 16.6432 72.2476 17.1124C71.8004 17.5815 71.3197 18.006 70.8054 18.3857C70.3135 18.7655 69.8439 19.1118 69.3967 19.4245C68.9048 19.7596 68.4353 20.0835 67.9881 20.3963C67.5409 20.6867 67.1496 20.9548 66.8142 21.2005C66.8366 21.759 66.9372 22.2281 67.1161 22.6079C67.295 22.9876 67.5185 23.3004 67.7869 23.5461C68.0552 23.7695 68.357 23.9371 68.6924 24.0488C69.0502 24.1381 69.4079 24.1828 69.7657 24.1828C70.5259 24.1828 71.3197 23.9482 72.147 23.4791C72.9743 22.9876 73.7792 22.4068 74.5618 21.7366C75.3667 21.0441 76.1046 20.3293 76.7754 19.592C77.4685 18.8548 78.0387 18.2182 78.4859 17.682C78.6424 17.5033 78.7989 17.4028 78.9554 17.3804C79.1343 17.3358 79.2685 17.3581 79.3579 17.4475C79.4697 17.5145 79.5256 17.6485 79.5256 17.8496C79.5256 18.0283 79.4474 18.2405 79.2908 18.4862ZM70.7048 13.3258C70.4365 13.3258 70.1123 13.4599 69.7321 13.728C69.3744 13.996 69.0166 14.387 68.6589 14.9008C68.3011 15.3922 67.9657 16.0066 67.6527 16.7438C67.3397 17.4586 67.1049 18.2852 66.9484 19.2234C67.2167 19.0224 67.5074 18.8213 67.8204 18.6203C68.1334 18.3969 68.4465 18.1623 68.7595 17.9166C69.721 17.1794 70.3917 16.5315 70.7719 15.9731C71.152 15.4146 71.3644 14.9343 71.4091 14.5322C71.4538 14.1077 71.4091 13.8061 71.2749 13.6274C71.1408 13.4264 70.9507 13.3258 70.7048 13.3258Z" fill="#FFB504"/>
<path d="M89.252 16.9783C89.3414 16.8443 89.4532 16.7661 89.5874 16.7438C89.7439 16.6991 89.8669 16.7103 89.9563 16.7773C90.0458 16.8443 90.0905 16.956 90.0905 17.1124C90.1129 17.2687 90.057 17.481 89.9228 17.749C89.4756 18.5979 88.8831 19.5139 88.1452 20.4968C87.4297 21.4797 86.6695 22.4068 85.8645 23.2781C85.0596 24.127 84.277 24.8306 83.5168 25.3891C82.7566 25.9476 82.1193 26.2269 81.605 26.2269C80.8672 26.2269 80.2523 26.0816 79.7604 25.7912C79.2685 25.5008 78.8772 25.1434 78.5865 24.7189C78.3182 24.2945 78.1281 23.8365 78.0163 23.3451C77.9045 22.8313 77.871 22.3621 77.9157 21.9377C77.9381 21.5803 78.0163 20.9436 78.1505 20.0277C78.2847 19.0894 78.4635 18.0171 78.6871 16.8108C78.9107 15.5821 79.1567 14.2753 79.425 12.8902C79.7157 11.4828 80.0175 10.1313 80.3306 8.83562C79.9504 8.8803 79.5703 8.92498 79.1902 8.96966C78.8101 9.01433 78.4635 9.03667 78.1505 9.03667C77.435 9.03667 76.7642 8.95849 76.1381 8.80211C75.4897 8.62339 75.009 8.45585 74.696 8.29947C74.5171 8.21011 74.4388 8.08725 74.4612 7.93087C74.4835 7.75216 74.5506 7.58461 74.6624 7.42824C74.7742 7.24952 74.9195 7.10431 75.0984 6.99262C75.2549 6.85858 75.4003 6.79156 75.5344 6.79156C75.9593 6.83624 76.4176 6.88092 76.9095 6.9256C77.4015 6.94794 77.9381 6.94794 78.5194 6.9256C78.9443 6.90326 79.3467 6.86975 79.7269 6.82507C80.1293 6.78039 80.5206 6.72454 80.9007 6.65753C81.1914 5.58523 81.4709 4.65815 81.7392 3.87627C82.0299 3.07205 82.287 2.51356 82.5106 2.20081C82.5777 2.08911 82.723 1.99976 82.9466 1.93274C83.1926 1.84338 83.4497 1.78753 83.718 1.76519C83.9863 1.72051 84.2435 1.72051 84.4894 1.76519C84.7354 1.78753 84.9143 1.86572 85.0261 1.99976C85.1379 2.17847 85.1826 2.63643 85.1602 3.37363C85.1379 4.11083 85.0149 5.04909 84.7913 6.1884C85.7304 6.1884 86.5577 6.24425 87.2732 6.35594C88.0111 6.4453 88.6371 6.557 89.1514 6.69103C89.6657 6.80273 90.0793 6.9256 90.3923 7.05963C90.7054 7.17133 90.9402 7.24952 91.0967 7.2942C91.2532 7.33888 91.3314 7.45057 91.3314 7.62929C91.3538 7.80801 91.3203 7.99789 91.2308 8.19895C91.1637 8.37766 91.0408 8.53404 90.8619 8.66807C90.683 8.80211 90.4818 8.84679 90.2582 8.80211C90.0346 8.77977 89.7775 8.73509 89.4868 8.66807C89.2185 8.60105 88.8831 8.54521 88.4806 8.50053C88.1005 8.45585 87.6421 8.41117 87.1055 8.36649C86.5689 8.32181 85.9428 8.29947 85.2273 8.29947C85.0931 8.29947 84.9366 8.31064 84.7577 8.33298C84.6012 8.33298 84.4335 8.33298 84.2547 8.33298C84.1652 8.69041 84.0758 9.04784 83.9863 9.40527C83.9193 9.74037 83.8186 10.0978 83.6845 10.4776C83.3938 11.3711 83.0584 12.3429 82.6783 13.3929C82.3429 14.3088 81.9404 15.3587 81.4709 16.5427C81.0013 17.7267 80.4759 18.9889 79.8945 20.3293C79.7604 21.2898 79.7716 22.027 79.9281 22.5409C80.107 23.0323 80.3194 23.3897 80.5653 23.6131C80.856 23.8589 81.2138 23.9929 81.6386 24.0153C81.974 24.0599 82.3765 23.9482 82.846 23.6802C83.3379 23.3897 83.841 23.01 84.3553 22.5409C84.8695 22.0717 85.3838 21.5579 85.8981 20.9994C86.4347 20.4409 86.9266 19.8936 87.3738 19.3575C87.821 18.8213 88.2123 18.341 88.5477 17.9166C88.8831 17.4698 89.1179 17.1571 89.252 16.9783Z" fill="#FFB504"/>
<path d="M104.076 31.6888C102.958 31.6888 101.941 31.4208 101.024 30.8846C100.13 30.3485 99.3585 29.6113 98.7101 28.673C98.084 27.7348 97.6033 26.6401 97.2679 25.3891C96.9549 24.1158 96.8207 22.7642 96.8654 21.3345C96.9101 19.9942 97.0778 18.5421 97.3685 16.9783C97.6815 15.4146 98.1176 13.8508 98.6765 12.2871C99.2355 10.701 99.9063 9.18188 100.689 7.72982C101.494 6.25542 102.411 4.95973 103.439 3.84276C104.468 2.72579 105.608 1.83221 106.86 1.16203C108.112 0.469506 109.487 0.123245 110.985 0.123245C111.902 0.123245 112.674 0.31313 113.3 0.692901C113.948 1.05033 114.462 1.53063 114.842 2.13379C115.245 2.73696 115.524 3.41831 115.681 4.17785C115.837 4.93739 115.905 5.7081 115.882 6.48998C115.837 7.22718 115.726 7.94204 115.547 8.63456C115.39 9.32709 115.156 9.95259 114.842 10.5111C114.552 11.0472 114.183 11.4828 113.736 11.8179C113.311 12.1307 112.819 12.2871 112.26 12.2871C111.992 12.2647 111.735 12.1754 111.489 12.019C111.265 11.8849 111.03 11.6839 110.784 11.4158C110.561 11.1477 110.348 10.7568 110.147 10.243C110.751 9.99727 111.22 9.57282 111.556 8.96966C111.913 8.34415 112.182 7.69631 112.361 7.02613C112.562 6.26659 112.696 5.41769 112.763 4.47943C112.808 3.56352 112.618 2.89333 112.193 2.46888C111.768 2.04444 111.287 1.83221 110.751 1.83221C109.7 1.83221 108.593 2.37953 107.43 3.47416C106.268 4.56879 105.183 6.05436 104.177 7.93087C103.193 9.78504 102.355 11.952 101.662 14.4316C100.991 16.9113 100.599 19.5362 100.488 22.3063C100.443 23.5573 100.521 24.6184 100.722 25.4897C100.946 26.3609 101.248 27.0758 101.628 27.6342C102.03 28.1927 102.478 28.5948 102.97 28.8406C103.461 29.0863 103.953 29.2092 104.445 29.2092C105.228 29.2092 105.966 29.0416 106.659 28.7065C107.352 28.3714 107.978 27.9582 108.537 27.4667C109.118 26.9752 109.61 26.4614 110.013 25.9253C110.438 25.4115 110.762 24.9535 110.985 24.5514C111.142 24.261 111.31 24.0823 111.489 24.0153C111.667 23.9482 111.824 23.9706 111.958 24.0823C112.092 24.1716 112.182 24.328 112.226 24.5514C112.271 24.7525 112.226 24.9982 112.092 25.2886C111.712 26.0481 111.243 26.8077 110.684 27.5672C110.147 28.3268 109.532 29.0081 108.839 29.6113C108.168 30.2368 107.43 30.7394 106.625 31.1192C105.82 31.499 104.971 31.6888 104.076 31.6888Z" fill="white"/>
<path d="M132.92 18.7878C132.607 19.2346 132.205 19.7931 131.713 20.4633C131.221 21.1111 130.707 21.7701 130.17 22.4403C129.656 23.0882 129.141 23.6913 128.627 24.2498C128.135 24.786 127.722 25.1657 127.386 25.3891C127.163 25.5232 126.905 25.6349 126.615 25.7242C126.324 25.8136 126.022 25.8694 125.709 25.8918C125.419 25.9141 125.139 25.8918 124.871 25.8247C124.602 25.7801 124.368 25.6907 124.166 25.5567C123.965 25.4003 123.797 25.1769 123.663 24.8865C123.552 24.6408 123.44 24.3168 123.328 23.9147C123.238 23.5126 123.205 23.01 123.227 22.4068C122.691 23.3004 122.098 23.9929 121.45 24.4844C120.801 24.9535 120.186 25.2998 119.605 25.5232C118.934 25.7689 118.263 25.9141 117.593 25.9588C117.28 25.9588 116.944 25.8471 116.587 25.6237C116.229 25.4226 115.927 25.0987 115.681 24.6519C115.435 24.1828 115.278 23.5908 115.211 22.8759C115.144 22.1387 115.234 21.2675 115.48 20.2622C115.793 18.8995 116.285 17.6597 116.955 16.5427C117.649 15.4257 118.398 14.4763 119.203 13.6944C120.008 12.8902 120.801 12.2871 121.584 11.8849C122.366 11.4828 123.015 11.3041 123.529 11.3488C124.133 11.4605 124.625 11.6392 125.005 11.8849C125.318 12.1083 125.519 12.4434 125.609 12.8902C125.72 13.3147 125.542 13.8843 125.072 14.5992C125.385 14.5322 125.642 14.4875 125.843 14.4652C126.067 14.4428 126.235 14.4316 126.346 14.4316C126.481 14.4316 126.57 14.4428 126.615 14.4652C126.637 14.5098 126.648 14.6104 126.648 14.7667C126.648 14.9008 126.615 15.1577 126.548 15.5374C126.481 15.9172 126.38 16.431 126.246 17.0789C126.112 17.7267 125.933 18.5644 125.709 19.592C125.664 19.7931 125.62 19.983 125.575 20.1617C125.553 20.3181 125.519 20.4856 125.474 20.6643C125.452 20.8207 125.419 21.0106 125.374 21.234C125.329 21.4574 125.273 21.7366 125.206 22.0717C125.184 22.2728 125.173 22.4962 125.173 22.7419C125.195 22.9653 125.24 23.1775 125.307 23.3786C125.374 23.5796 125.474 23.7472 125.609 23.8812C125.765 23.9929 125.978 24.0488 126.246 24.0488C126.469 24.0488 126.76 23.9147 127.118 23.6467C127.476 23.3562 127.856 22.9988 128.258 22.5744C128.661 22.1276 129.074 21.6473 129.499 21.1335C129.946 20.5973 130.36 20.0835 130.74 19.592C131.12 19.1006 131.456 18.665 131.746 18.2852C132.059 17.9054 132.283 17.6262 132.417 17.4475C132.596 17.2464 132.775 17.1347 132.954 17.1124C133.133 17.0677 133.267 17.1124 133.356 17.2464C133.446 17.3804 133.457 17.5815 133.39 17.8496C133.345 18.1176 133.188 18.4304 132.92 18.7878ZM123.093 20.2622C123.205 19.8154 123.339 19.2905 123.496 18.6873C123.652 18.0841 123.786 17.5033 123.898 16.9448C124.01 16.3863 124.088 15.9284 124.133 15.571C124.2 15.1912 124.189 15.0125 124.099 15.0348C123.988 15.0571 123.865 15.0907 123.73 15.1353C123.619 15.18 123.473 15.2135 123.294 15.2359C123.116 15.2582 122.937 15.2917 122.758 15.3364C122.937 14.979 123.037 14.6885 123.06 14.4652C123.104 14.2194 123.116 14.0295 123.093 13.8955C123.071 13.7391 123.026 13.6163 122.959 13.5269C122.713 13.3258 122.277 13.4934 121.651 14.0295C121.047 14.5433 120.343 15.5039 119.538 16.9113C119.203 17.4921 118.934 18.1176 118.733 18.7878C118.532 19.4357 118.386 20.05 118.297 20.6308C118.23 21.2117 118.219 21.7255 118.263 22.1723C118.308 22.5967 118.398 22.8759 118.532 23.01C118.778 23.2557 119.057 23.3786 119.37 23.3786C119.683 23.3562 119.996 23.2669 120.309 23.1105C120.645 22.9318 120.969 22.7084 121.282 22.4403C121.617 22.1723 121.908 21.893 122.154 21.6026C122.422 21.3122 122.635 21.0441 122.791 20.7984C122.97 20.5526 123.071 20.3739 123.093 20.2622Z" fill="white"/>
<path d="M135.402 24.3168C135.536 24.4062 135.704 24.4509 135.905 24.4509C136.129 24.4509 136.341 24.4062 136.542 24.3168C136.766 24.2275 136.967 24.1046 137.146 23.9482C137.347 23.7919 137.493 23.5908 137.582 23.3451C137.672 23.0993 137.672 22.7531 137.582 22.3063C137.493 21.8372 137.347 21.3457 137.146 20.8319C136.967 20.2957 136.766 19.7596 136.542 19.2234C136.319 18.6873 136.129 18.1958 135.972 17.749C135.838 17.414 135.726 17.1012 135.637 16.8108C135.547 16.5651 135.458 16.3305 135.369 16.1071C135.301 15.8614 135.246 15.6938 135.201 15.6045C135.089 15.7832 134.888 16.0736 134.597 16.4757C134.329 16.8778 134.027 17.3023 133.692 17.749C133.379 18.1735 133.077 18.5756 132.786 18.9554C132.495 19.3128 132.294 19.5585 132.182 19.6926C132.003 19.8936 131.825 20.0165 131.646 20.0612C131.489 20.0835 131.355 20.05 131.243 19.9606C131.131 19.849 131.064 19.7037 131.042 19.525C131.042 19.324 131.131 19.0894 131.31 18.8213C131.444 18.6426 131.646 18.3634 131.914 17.9836C132.182 17.5815 132.451 17.1794 132.719 16.7773C132.987 16.3528 133.233 15.9842 133.457 15.6715C133.68 15.3364 133.803 15.1353 133.826 15.0683C133.87 14.8896 133.803 14.655 133.624 14.3646C133.468 14.0742 133.446 13.7391 133.557 13.3594C133.647 13.0466 133.848 12.6892 134.161 12.2871C134.474 11.8626 134.843 11.4828 135.268 11.1477C135.693 10.8127 136.129 10.5669 136.576 10.4105C137.023 10.2318 137.426 10.2318 137.783 10.4105C138.074 10.5893 138.309 10.7903 138.488 11.0137C138.667 11.2148 138.734 11.427 138.689 11.6504C138.644 11.7621 138.577 11.9073 138.488 12.086C138.398 12.2647 138.264 12.4881 138.085 12.7562C137.906 13.0019 137.649 13.3258 137.314 13.728C137.381 14.2418 137.47 14.7109 137.582 15.1353C137.716 15.5598 137.839 15.9284 137.951 16.2411C138.085 16.6209 138.231 16.9672 138.387 17.2799C138.588 17.682 138.801 18.0953 139.024 18.5198C139.248 18.9442 139.449 19.3687 139.628 19.7931C139.807 20.1952 139.952 20.575 140.064 20.9324C140.176 21.2898 140.209 21.5914 140.165 21.8372C140.098 22.2169 139.896 22.6749 139.561 23.211C139.248 23.7472 138.845 24.2722 138.354 24.786C137.884 25.2774 137.336 25.7019 136.71 26.0593C136.106 26.4167 135.469 26.5955 134.798 26.5955C134.329 26.5955 133.87 26.4503 133.423 26.1598C132.998 25.8694 132.629 25.5343 132.316 25.1546C132.026 24.7525 131.802 24.3615 131.646 23.9817C131.512 23.602 131.5 23.3116 131.612 23.1105C131.746 22.8424 131.869 22.6302 131.981 22.4738C132.093 22.3175 132.261 22.1387 132.484 21.9377C132.574 21.8707 132.685 21.7925 132.82 21.7031C132.931 21.6361 133.088 21.5691 133.289 21.5021C133.49 21.4351 133.725 21.3569 133.993 21.2675C134.217 21.96 134.418 22.5073 134.597 22.9095C134.776 23.2892 134.921 23.5908 135.033 23.8142C135.167 24.0599 135.29 24.2275 135.402 24.3168Z" fill="white"/>
<path d="M150.126 5.71927C150.059 5.965 149.925 6.21074 149.723 6.45647C149.544 6.67986 149.332 6.86975 149.086 7.02613C148.863 7.16016 148.628 7.24952 148.382 7.2942C148.136 7.33888 147.935 7.2942 147.778 7.16016C147.309 6.80273 147.063 6.42296 147.04 6.02085C147.018 5.5964 147.118 5.20546 147.342 4.84803C147.566 4.46826 147.845 4.15551 148.181 3.90978C148.516 3.6417 148.807 3.48533 149.053 3.44065C149.299 3.39597 149.5 3.45182 149.656 3.60819C149.835 3.74223 149.969 3.93212 150.059 4.17785C150.148 4.40124 150.193 4.65815 150.193 4.94856C150.215 5.23897 150.193 5.49588 150.126 5.71927ZM145.497 12.8567C145.609 12.7227 145.822 12.611 146.135 12.5216C146.448 12.4323 146.772 12.3652 147.107 12.3206C147.443 12.2536 147.745 12.22 148.013 12.22C148.304 12.1977 148.471 12.1977 148.516 12.22C148.538 12.2424 148.482 12.4769 148.348 12.9237C148.214 13.3705 148.046 13.8955 147.845 14.4987C147.644 15.1018 147.432 15.7273 147.208 16.3752C146.984 17.0007 146.817 17.5145 146.705 17.9166C146.593 18.3187 146.459 18.7767 146.302 19.2905C146.146 19.7819 146 20.2734 145.866 20.7649C145.755 21.234 145.676 21.6808 145.632 22.1052C145.587 22.5297 145.62 22.8536 145.732 23.077C145.844 23.3451 145.967 23.535 146.101 23.6467C146.235 23.736 146.381 23.7807 146.537 23.7807C146.984 23.7807 147.543 23.535 148.214 23.0435C148.907 22.552 149.6 21.9712 150.294 21.301C151.009 20.6085 151.669 19.916 152.272 19.2234C152.876 18.5086 153.323 17.9389 153.614 17.5145C153.793 17.2911 153.972 17.1459 154.151 17.0789C154.352 17.0118 154.508 17.023 154.62 17.1124C154.754 17.2017 154.821 17.3469 154.821 17.548C154.844 17.749 154.777 17.9836 154.62 18.2517C154.262 18.8772 153.737 19.6256 153.044 20.4968C152.351 21.3457 151.613 22.1723 150.83 22.9765C150.048 23.7584 149.276 24.4285 148.516 24.987C147.778 25.5455 147.174 25.8359 146.705 25.8583C146.325 25.8806 145.945 25.8136 145.564 25.6572C145.207 25.5232 144.871 25.3333 144.558 25.0875C144.268 24.8195 144.022 24.5179 143.82 24.1828C143.619 23.8254 143.507 23.4568 143.485 23.077C143.418 22.5185 143.418 21.759 143.485 20.7984C143.552 19.8154 143.675 18.8213 143.854 17.8161C144.033 16.7885 144.256 15.8167 144.525 14.9008C144.815 13.9849 145.14 13.3035 145.497 12.8567Z" fill="white"/>
<path d="M162.133 26.2939C161.619 26.2939 161.171 26.1933 160.791 25.9923C160.434 25.8136 160.143 25.5678 159.919 25.2551C159.696 24.9423 159.55 24.5849 159.483 24.1828C159.416 23.7584 159.439 23.3116 159.55 22.8424C159.617 22.5297 159.729 22.1164 159.886 21.6026C160.042 21.0665 160.199 20.4968 160.355 19.8936C160.534 19.2681 160.691 18.6538 160.825 18.0506C160.981 17.4251 161.082 16.8666 161.127 16.3752C161.171 15.8614 161.149 15.4481 161.06 15.1353C160.97 14.8002 160.78 14.6327 160.489 14.6327C160.132 14.6327 159.763 14.7556 159.383 15.0013C159.003 15.2247 158.611 15.5374 158.209 15.9396C157.829 16.3417 157.437 16.8108 157.035 17.3469C156.655 17.8607 156.275 18.3969 155.895 18.9554C155.693 19.7149 155.526 20.3851 155.391 20.9659C155.257 21.5244 155.134 22.0382 155.023 22.5073C154.933 22.9541 154.844 23.3562 154.754 23.7137C154.665 24.0488 154.587 24.3727 154.519 24.6854C154.452 24.9088 154.251 25.1322 153.916 25.3556C153.58 25.5567 153.223 25.7242 152.842 25.8583C152.462 25.9923 152.138 26.0593 151.87 26.0593C151.579 26.0593 151.456 25.9588 151.501 25.7577C151.523 25.6237 151.602 25.3221 151.736 24.853C151.848 24.3839 151.993 23.8365 152.172 23.211C152.328 22.5632 152.496 21.8818 152.675 21.167C152.854 20.4521 153.021 19.7708 153.178 19.1229C153.29 18.6091 153.413 18.0395 153.547 17.414C153.659 16.8778 153.793 16.2523 153.949 15.5374C154.128 14.8226 154.329 14.0407 154.553 13.1918C154.71 13.0578 154.866 12.9572 155.023 12.8902C155.201 12.8009 155.38 12.7338 155.559 12.6892C155.738 12.6222 155.928 12.5775 156.129 12.5551C156.308 12.5551 156.487 12.5663 156.666 12.5886C156.822 12.611 156.979 12.6557 157.136 12.7227C157.314 12.7674 157.471 12.8455 157.605 12.9572C157.538 13.1136 157.46 13.337 157.37 13.6274C157.281 13.8955 157.191 14.1859 157.102 14.4987C157.013 14.8561 156.901 15.2247 156.767 15.6045C157.057 15.2024 157.381 14.8002 157.739 14.3981C158.119 13.9737 158.522 13.5939 158.947 13.2588C159.394 12.9237 159.863 12.6557 160.355 12.4546C160.847 12.2312 161.35 12.1195 161.865 12.1195C162.289 12.1195 162.67 12.2424 163.005 12.4881C163.34 12.7338 163.597 13.0801 163.776 13.5269C163.978 13.9513 164.089 14.4652 164.112 15.0683C164.156 15.6715 164.078 16.3305 163.877 17.0454L163.508 18.5198C163.396 18.9889 163.251 19.5474 163.072 20.1952C162.915 20.8207 162.714 21.5132 162.468 22.2728C162.334 22.7642 162.278 23.1887 162.301 23.5461C162.345 23.9036 162.569 24.0823 162.971 24.0823C163.374 24.0823 163.877 23.8365 164.481 23.3451C165.107 22.8536 165.733 22.2616 166.359 21.5691C166.985 20.8766 167.577 20.1729 168.136 19.458C168.695 18.7208 169.12 18.1288 169.411 17.682C169.612 17.3916 169.802 17.2017 169.981 17.1124C170.16 17.023 170.294 17.0118 170.384 17.0789C170.495 17.1459 170.551 17.3023 170.551 17.548C170.551 17.7714 170.462 18.0618 170.283 18.4192C170.126 18.732 169.88 19.1453 169.545 19.6591C169.232 20.1729 168.852 20.7202 168.405 21.301C167.958 21.8818 167.477 22.4738 166.963 23.077C166.448 23.6578 165.912 24.194 165.353 24.6854C164.794 25.1546 164.235 25.5343 163.676 25.8247C163.139 26.1375 162.625 26.2939 162.133 26.2939Z" fill="white"/>
<path d="M177.963 20.1282C177.74 20.9771 177.438 21.7701 177.058 22.5073C176.678 23.2445 176.219 23.8812 175.683 24.4174C175.169 24.9535 174.576 25.3668 173.905 25.6572C173.257 25.97 172.541 26.1263 171.759 26.1263C170.842 26.1263 170.115 25.9253 169.579 25.5232C169.064 25.1434 168.673 24.6631 168.405 24.0823C168.159 23.5014 168.013 22.8648 167.969 22.1723C167.902 21.4797 167.868 20.8319 167.868 20.2287C167.868 19.8043 167.924 19.3351 168.036 18.8213C168.125 18.3075 168.259 17.7826 168.438 17.2464C168.617 16.7103 168.841 16.1741 169.109 15.638C169.4 15.1018 169.735 14.6104 170.115 14.1636C170.249 13.7838 170.451 13.4487 170.719 13.1583C171.01 12.8679 171.334 12.6333 171.692 12.4546C172.072 12.2536 172.474 12.1083 172.899 12.019C173.324 11.9073 173.737 11.8514 174.14 11.8514C174.207 11.8514 174.263 11.8626 174.308 11.8849C174.375 11.9073 174.442 11.9296 174.509 11.952C174.8 11.9743 175.157 12.086 175.582 12.2871C176.029 12.4881 176.454 12.7897 176.857 13.1918C177.281 13.5939 177.639 14.1077 177.93 14.7332C178.221 15.3364 178.366 16.0736 178.366 16.9448C178.366 17.1235 178.355 17.3469 178.332 17.615C178.31 17.8607 178.288 18.073 178.265 18.2517C178.78 18.0506 179.316 17.8049 179.875 17.5145C180.434 17.2241 180.971 16.9225 181.485 16.6097C182.022 16.2746 182.514 15.9396 182.961 15.6045C183.408 15.2694 183.766 14.9678 184.034 14.6997C184.258 14.4987 184.448 14.387 184.604 14.3646C184.761 14.3423 184.873 14.387 184.94 14.4987C185.007 14.6104 185.018 14.7667 184.973 14.9678C184.928 15.1688 184.805 15.3922 184.604 15.638C184.492 15.772 184.202 16.0401 183.732 16.4422C183.285 16.8443 182.748 17.2799 182.122 17.749C181.496 18.2182 180.814 18.6761 180.076 19.1229C179.339 19.5697 178.634 19.9048 177.963 20.1282ZM172.295 15.0348C172.228 15.2359 172.195 15.4481 172.195 15.6715C172.195 16.0289 172.217 16.4087 172.262 16.8108C172.306 17.1906 172.418 17.5368 172.597 17.8496C172.776 18.1623 173.056 18.4304 173.436 18.6538C173.838 18.8548 174.386 18.9554 175.079 18.9554C175.191 18.9554 175.303 18.9554 175.414 18.9554C175.526 18.933 175.638 18.9107 175.75 18.8884C175.817 18.5979 175.873 18.341 175.918 18.1176C175.985 17.8719 176.018 17.6597 176.018 17.481C176.063 17.0565 176.063 16.6209 176.018 16.1741C175.973 15.7273 175.884 15.3252 175.75 14.9678C175.638 14.588 175.482 14.2864 175.28 14.063C175.101 13.8173 174.878 13.6944 174.61 13.6944C174.185 13.6944 173.771 13.8173 173.369 14.063C172.988 14.2864 172.631 14.6104 172.295 15.0348ZM170.149 20.9324C170.149 21.3345 170.171 21.7366 170.216 22.1387C170.261 22.5185 170.35 22.8648 170.484 23.1775C170.618 23.4679 170.797 23.7137 171.021 23.9147C171.244 24.0934 171.535 24.1828 171.893 24.1828C172.295 24.1828 172.664 24.0934 173 23.9147C173.335 23.7137 173.637 23.4679 173.905 23.1775C174.173 22.8648 174.408 22.5185 174.61 22.1387C174.833 21.7366 175.023 21.3234 175.18 20.8989C175.023 20.9212 174.867 20.9436 174.71 20.9659C174.576 20.9659 174.419 20.9659 174.241 20.9659C173.391 20.9659 172.653 20.7202 172.027 20.2287C171.423 19.7149 170.954 19.0671 170.618 18.2852C170.484 18.7543 170.372 19.2123 170.283 19.6591C170.193 20.1059 170.149 20.5303 170.149 20.9324Z" fill="white"/>
</svg>
