<svg width="91" height="36" viewBox="0 0 91 36" fill="none" xmlns="http://www.w3.org/2000/svg">
<path d="M22.6983 4.74414V6.33193C22.3747 6.58355 22.0561 6.84208 21.7416 7.10655C21.2582 7.5124 20.7854 7.93308 20.3235 8.36759C20.1098 8.56829 19.8986 8.77146 19.6904 8.97809C19.4737 9.19214 19.2605 9.40915 19.0508 9.62863C16.2591 12.5437 14.0447 15.8933 12.4629 19.5963C10.6978 23.727 9.80354 28.1058 9.80354 32.6101C9.80354 33.361 9.82851 34.1084 9.87794 34.8519H8.6012C8.55326 34.1084 8.5293 33.361 8.5293 32.6101C8.5293 27.9357 9.45802 23.3923 11.2895 19.105C12.7764 15.6244 14.8011 12.4448 17.3222 9.62863C17.7066 9.19955 18.1021 8.77937 18.5085 8.3671C18.6019 8.27318 18.6953 8.17925 18.7892 8.08582C19.1267 7.75116 19.4702 7.4249 19.8197 7.10606C20.2951 6.67105 20.7819 6.25086 21.2787 5.84502C21.7426 5.46537 22.2159 5.09808 22.6978 4.74414H22.6983Z" fill="#7DD836"/>
<path d="M22.7016 7.95655V9.62739C22.7016 9.62739 22.7011 9.62739 22.7011 9.62838C22.2901 9.99418 21.8882 10.3723 21.4952 10.7614C18.6332 13.5944 16.3853 16.897 14.8124 20.5783C13.1812 24.3965 12.3543 28.4446 12.3543 32.6099C12.3543 33.3608 12.3813 34.1082 12.4347 34.8517H11.1575C11.106 34.1087 11.0801 33.3612 11.0801 32.6099C11.0801 28.2751 11.9409 24.0619 13.6391 20.087C15.2763 16.2554 17.6166 12.8178 20.595 9.86912C20.6768 9.78805 20.7587 9.70797 20.8411 9.62789C21.2895 9.19337 21.7484 8.77269 22.2182 8.36635C22.378 8.22794 22.5393 8.09101 22.7021 7.95605L22.7016 7.95655Z" fill="#7DD836"/>
<path d="M22.6989 1.65919V3.18767C22.6345 3.23216 22.5706 3.27714 22.5066 3.32212C21.9349 3.7255 21.3742 4.14617 20.826 4.58316C20.3162 4.98951 19.8163 5.40969 19.3275 5.8447C18.8687 6.25302 18.4193 6.6732 17.9794 7.10574C17.9494 7.1349 17.9195 7.16457 17.8895 7.19423C17.502 7.57733 17.1246 7.96884 16.7566 8.36678C16.3751 8.77955 16.0041 9.19973 15.6441 9.62831C13.3657 12.3353 11.5123 15.3458 10.1167 18.6133C8.21834 23.0568 7.25567 27.7658 7.25567 32.6098C7.25567 33.3607 7.27913 34.1081 7.32507 34.8516H6.04933C6.00489 34.1076 5.98242 33.3602 5.98242 32.6098C5.98242 27.5963 6.97905 22.7217 8.94384 18.1219C10.2515 15.061 11.9467 12.2176 14.0054 9.62782C14.3449 9.20022 14.6944 8.78004 15.0539 8.36629C15.4259 7.93819 15.8079 7.51752 16.2008 7.10525C16.459 6.83386 16.7216 6.56593 16.9892 6.30146C17.145 6.14723 17.3013 5.99498 17.4596 5.8442C17.912 5.41117 18.3738 4.99049 18.8452 4.58267C19.3465 4.14815 19.8588 3.72797 20.3811 3.32163C20.9438 2.88464 21.518 2.46396 22.1037 2.06009C22.3004 1.92415 22.4992 1.7897 22.6989 1.6582V1.65919Z" fill="#7DD836"/>
<path d="M21.7074 0.800299C21.1087 1.20417 20.5215 1.62386 19.9458 2.06134C19.4105 2.46719 18.8857 2.88786 18.371 3.32287C17.8881 3.7307 17.4148 4.15088 16.9504 4.58391C16.6593 4.85431 16.3722 5.13015 16.0886 5.41093C15.9433 5.55478 15.7995 5.69913 15.6567 5.84496C15.2528 6.25772 14.8588 6.6779 14.4753 7.106C14.1048 7.51926 13.7443 7.93944 13.3933 8.36704C13.0528 8.78129 12.7222 9.20147 12.4007 9.62857C10.5422 12.0943 8.99338 14.7711 7.77107 17.6313C5.73937 22.3873 4.70879 27.427 4.70879 32.6101C4.70879 33.3605 4.73026 34.1079 4.7737 34.8519H3.49796C3.45652 34.1079 3.43555 33.3605 3.43555 32.6101C3.43555 27.2569 4.49958 22.0521 6.59819 17.1399C7.73712 14.4745 9.15067 11.9638 10.8259 9.62857C11.1314 9.20246 11.446 8.78178 11.7691 8.36704C12.1011 7.94043 12.4426 7.51975 12.7936 7.106C13.1556 6.6784 13.5276 6.25822 13.9086 5.84496C14.3036 5.41686 14.708 4.99619 15.1234 4.58342C15.1449 4.56167 15.1664 4.54041 15.1883 4.51866C15.6013 4.10985 16.0217 3.71092 16.4501 3.32238C16.9264 2.88935 17.4118 2.46867 17.9066 2.06085C18.4334 1.62633 18.9711 1.20565 19.5179 0.799805H21.7079L21.7074 0.800299Z" fill="#7DD836"/>
<path d="M0 3.32227V4.58331H15.1241C15.1456 4.56156 15.1671 4.5403 15.1891 4.51855C15.602 4.10974 16.0224 3.71081 16.4508 3.32227H0Z" fill="#7DD836"/>
<path d="M0 5.84473V7.10577H12.7944C13.1564 6.67817 13.5283 6.25799 13.9093 5.84473H0Z" fill="#7DD836"/>
<path d="M18.4715 0.799805H0V2.06084H17.9068C18.4336 1.62633 18.9713 1.20565 19.5181 0.799805H18.471H18.4715Z" fill="#7DD836"/>
<path d="M0 8.36719V9.62872H10.8261C11.1317 9.20261 11.4462 8.78193 11.7693 8.36719H0Z" fill="#7DD836"/>
<path d="M11.768 8.36719C11.4449 8.78193 11.1304 9.20211 10.8248 9.62872H10.0469C10.1323 9.50662 10.2186 9.38452 10.3055 9.26341C10.5197 8.96434 10.7414 8.66428 10.9676 8.36719H11.768Z" fill="#71C530"/>
<path d="M19.5173 0.800781C18.9701 1.20663 18.4328 1.6273 17.906 2.06182H16.9219C17.1136 1.8977 17.3058 1.73606 17.4986 1.57738C17.8171 1.31489 18.1422 1.05487 18.4702 0.800781H19.5173Z" fill="#71C530"/>
<path d="M16.4489 3.32227C16.021 3.71081 15.6001 4.10974 15.1872 4.51855C15.1657 4.5398 15.1437 4.56156 15.1222 4.58331H14.2305C14.3758 4.43402 14.5226 4.28572 14.6694 4.13989C14.6908 4.11863 14.7128 4.09688 14.7348 4.07563C14.9924 3.82055 15.2536 3.56894 15.5157 3.32276H16.4489V3.32227Z" fill="#71C530"/>
<path d="M13.9081 5.84473C13.5271 6.25799 13.1552 6.67866 12.7932 7.10577H11.9668C12.0786 6.96933 12.192 6.83388 12.3053 6.70041C12.548 6.41469 12.7977 6.12798 13.0518 5.84473H13.9086H13.9081Z" fill="#71C530"/>
<path d="M22.875 34.7962L28.2963 0.670898H43.689C46.3674 0.670898 48.5295 1.042 50.1753 1.78421C51.821 2.49414 53.015 3.47837 53.7572 4.7369C54.4994 5.96315 54.8705 7.35075 54.8705 8.8997C54.8705 11.2877 54.1122 13.24 52.5955 14.7567C51.0788 16.2734 49.0942 17.2415 46.6417 17.661V16.8381C48.0616 17.0962 49.2556 17.5964 50.2237 18.3386C51.224 19.0486 51.9824 19.936 52.4987 21.0009C53.0473 22.0658 53.3216 23.2598 53.3216 24.5828C53.3216 26.7772 52.7891 28.6327 51.7242 30.1494C50.6916 31.6661 49.2072 32.8278 47.271 33.6345C45.3348 34.409 43.0598 34.7962 40.4459 34.7962H22.875ZM32.4107 28.2616H39.9135C40.5911 28.2616 41.1881 28.2132 41.7044 28.1164C42.2208 27.9873 42.6725 27.8098 43.0598 27.5839C43.4793 27.3258 43.8181 27.0192 44.0763 26.6642C44.3344 26.3093 44.5281 25.9059 44.6571 25.4541C44.7862 25.0023 44.8507 24.5183 44.8507 24.002C44.8507 23.4211 44.7539 22.9371 44.5603 22.5498C44.399 22.1626 44.1247 21.8399 43.7374 21.5817C43.3825 21.2913 42.9307 21.0816 42.3821 20.9525C41.8658 20.8234 41.2527 20.7589 40.5427 20.7589H33.6209L32.4107 28.2616ZM34.6374 14.2242H41.172C42.8823 14.2242 44.1731 13.8693 45.0444 13.1593C45.9479 12.4494 46.3997 11.4006 46.3997 10.013C46.3997 9.10946 46.0609 8.41566 45.3832 7.93161C44.7378 7.44756 43.6729 7.20554 42.1885 7.20554H35.7507L34.6374 14.2242Z" fill="white"/>
<path d="M60.4927 6.8667L61.3003 0.670796H70.352L69.5443 6.8667H60.4927ZM56.2815 34.7962L60.057 10.9811H68.6731L64.8975 34.7962H56.2815Z" fill="white"/>
<path d="M82.9161 35.3287C80.4636 35.3287 78.4629 34.893 76.914 34.0218C75.365 33.1505 74.284 31.9404 73.6708 30.3914C73.09 28.8425 72.9448 27.0676 73.2352 25.0669L74.4937 17.3221H70.0405L71.057 10.9811H75.5102L76.5751 4.05923H85.1912L84.1263 10.9811H90.9997L89.9832 17.3221H83.1098L81.8997 24.728C81.706 26.0511 81.9158 27.0031 82.5289 27.5839C83.142 28.1325 84.0133 28.4068 85.1428 28.4068C85.53 28.4068 85.9334 28.3745 86.3529 28.31C86.7724 28.2132 87.2242 28.1002 87.7082 27.9712L87.9502 34.3606C87.2726 34.6833 86.482 34.9253 85.5784 35.0867C84.6749 35.248 83.7874 35.3287 82.9161 35.3287Z" fill="white"/>
</svg>
