<svg width="104" height="21" viewBox="0 0 104 21" fill="none" xmlns="http://www.w3.org/2000/svg">
<path d="M0.651195 20.7985C0.438954 20.7985 0.265302 20.7309 0.130239 20.5959C0.014471 20.4415 -0.0241184 20.2486 0.014471 20.017L4.00847 1.3205C4.04706 1.10826 4.15318 0.924957 4.32683 0.770599C4.51978 0.616241 4.72237 0.539062 4.93461 0.539062H10.6072C10.8195 0.539062 10.9835 0.616241 11.0993 0.770599C11.2343 0.924957 11.2826 1.10826 11.244 1.3205L9.94158 7.39832H14.6302L15.9326 1.3205C15.9712 1.10826 16.0773 0.924957 16.2509 0.770599C16.4439 0.616241 16.6465 0.539062 16.8587 0.539062H22.5314C22.7436 0.539062 22.9076 0.616241 23.0234 0.770599C23.1584 0.924957 23.2067 1.10826 23.1681 1.3205L19.1741 20.017C19.1355 20.2293 19.0197 20.4126 18.8268 20.5669C18.6531 20.7213 18.4602 20.7985 18.2479 20.7985H12.5753C12.3631 20.7985 12.1894 20.7213 12.0544 20.5669C11.9386 20.4126 11.9 20.2293 11.9386 20.017L13.2699 13.7656H8.58131L7.24998 20.017C7.21139 20.2293 7.09562 20.4126 6.90267 20.5669C6.72902 20.7213 6.53607 20.7985 6.32383 20.7985H0.651195Z" fill="white"/>
<path d="M28.0444 20.7985C27.8321 20.7985 27.6585 20.7213 27.5234 20.5669C27.4076 20.4126 27.369 20.2293 27.4076 20.017L28.6232 14.3155L24.8607 1.43627C24.7836 1.20473 24.8221 1.00213 24.9765 0.828482C25.1502 0.635536 25.3624 0.539062 25.6132 0.539062H30.7649C31.1508 0.539062 31.4209 0.635536 31.5753 0.828482C31.7296 1.02143 31.8165 1.16614 31.8358 1.26261L33.4855 7.07996L37.6242 1.26261C37.6821 1.16614 37.8268 1.02143 38.0583 0.828482C38.2898 0.635536 38.5985 0.539062 38.9844 0.539062H44.715C44.9851 0.539062 45.1491 0.645184 45.207 0.857426C45.2842 1.06967 45.2552 1.26261 45.1202 1.43627L35.8587 14.3155L34.6431 20.017C34.6045 20.2293 34.4888 20.4126 34.2958 20.5669C34.1222 20.7213 33.9292 20.7985 33.717 20.7985H28.0444Z" fill="white"/>
<path d="M43.4989 20.7985C43.2867 20.7985 43.1131 20.7213 42.978 20.5669C42.8622 20.4126 42.8236 20.2293 42.8622 20.017L46.8562 1.3205C46.8948 1.10826 47.0009 0.924957 47.1746 0.770599C47.3675 0.616241 47.5701 0.539062 47.7824 0.539062H55.9729C57.2078 0.539062 58.3462 0.683772 59.3881 0.973192C60.4493 1.26261 61.3465 1.70639 62.0797 2.30453C62.8322 2.88337 63.3628 3.61656 63.6715 4.50412C63.9802 5.39167 64.0092 6.43359 63.7584 7.62986C63.2567 10.0224 62.2244 11.7686 60.6616 12.8684C59.0987 13.9489 56.9377 14.4891 54.1786 14.4891H51.5738L45.6411 20.017C45.6025 20.2293 45.4868 20.4126 45.2938 20.5669C45.1202 20.7213 44.9272 20.7985 44.715 20.7985H43.4989ZM52.5578 9.13484H54.5837C54.8925 9.13484 55.2108 9.01907 55.5388 8.78754C55.8861 8.53671 56.1273 8.13152 56.2624 7.57197C56.3203 7.32114 56.3299 7.07031 56.2913 6.81948C56.272 6.56865 56.1852 6.35641 56.0308 6.18276C55.8765 6.00911 55.6256 5.92228 55.2783 5.92228H53.2524L52.5578 9.13484Z" fill="#F4EF01"/>
<path d="M63.9053 20.7985C63.6931 20.7985 63.5194 20.7213 63.3844 20.5669C63.2686 20.4126 63.23 20.2293 63.2686 20.017L67.2626 1.3205C67.3012 1.10826 67.4073 0.924957 67.581 0.770599C67.7739 0.616241 67.9765 0.539062 68.1887 0.539062H83.036C83.2482 0.539062 83.4122 0.616241 83.528 0.770599C83.6631 0.924957 83.7113 1.10826 83.6727 1.3205L82.8045 5.40132C82.7659 5.61356 82.6501 5.79686 82.4572 5.95122C82.2642 6.10558 82.0616 6.18276 81.8494 6.18276H73.1668L72.7616 8.0061H80.8075C81.0197 8.0061 81.1837 8.08328 81.2995 8.23764C81.4345 8.392 81.4828 8.5753 81.4442 8.78754L80.6338 12.55C80.5952 12.7622 80.4795 12.9455 80.2865 13.0999C80.0936 13.2543 79.891 13.3314 79.6787 13.3314H71.6328L71.2566 15.1548H80.1707C80.383 15.1548 80.547 15.232 80.6628 15.3863C80.7785 15.5407 80.8171 15.724 80.7785 15.9362L79.9103 20.017C79.8717 20.2293 79.7559 20.4126 79.563 20.5669C79.3893 20.7213 79.1964 20.7985 78.9841 20.7985H63.9053Z" fill="white"/>
<path d="M83.5863 20.7985C83.3741 20.7985 83.2101 20.7213 83.0943 20.5669C82.9786 20.4126 82.94 20.2293 82.9786 20.017L86.9436 1.3205C86.9822 1.10826 87.098 0.924957 87.2909 0.770599C87.4839 0.616241 87.6865 0.539062 87.8987 0.539062H96.4655C99.244 0.539062 101.28 1.16614 102.572 2.42029C103.865 3.67445 104.28 5.39167 103.817 7.57197C103.547 8.86472 103.016 9.99345 102.225 10.9582C101.434 11.9036 100.527 12.6658 99.5045 13.2446L101.646 19.8434C101.665 19.9013 101.675 19.9495 101.675 19.9881C101.694 20.0267 101.694 20.0846 101.675 20.1618C101.637 20.3354 101.54 20.4898 101.386 20.6248C101.231 20.7406 101.067 20.7985 100.894 20.7985H94.9606C94.5747 20.7985 94.3045 20.702 94.1502 20.5091C94.0151 20.3161 93.9283 20.1521 93.8897 20.017L92.5873 14.4891H91.4007L90.2141 20.017C90.1755 20.2293 90.0597 20.4126 89.8668 20.5669C89.6738 20.7213 89.4712 20.7985 89.259 20.7985H83.5863ZM92.5584 8.99013H94.6711C95.1149 8.99013 95.4815 8.84542 95.7709 8.556C96.0603 8.24729 96.2437 7.89998 96.3208 7.51409C96.398 7.1282 96.3691 6.77124 96.234 6.44323C96.0989 6.09593 95.7902 5.92228 95.3079 5.92228H93.1951L92.5584 8.99013Z" fill="white"/>
</svg>
