<svg width="67" height="40" viewBox="0 0 67 40" fill="none" xmlns="http://www.w3.org/2000/svg">
<path d="M10.7603 32.5087L10.0179 37.6442C9.60437 38.0713 9.08913 38.4001 8.47219 38.6306C7.86203 38.8543 7.22475 39.0035 6.56036 39.0781C5.90274 39.1594 5.29598 39.1967 4.74006 39.1899C3.88583 39.1764 3.14687 39.0204 2.52315 38.7221C1.89943 38.4238 1.38758 38.0137 0.987584 37.4917C0.594371 36.9696 0.31641 36.3595 0.153702 35.6612C-0.00222755 34.9629 -0.039515 34.2104 0.0418394 33.4036L0.113024 32.8341C0.207938 32.0206 0.421493 31.2579 0.75369 30.546C1.08589 29.8342 1.51639 29.2105 2.04519 28.6749C2.58077 28.1393 3.20449 27.7257 3.91634 27.4342C4.62819 27.1359 5.41462 26.9969 6.27562 27.0173C7.21797 27.0308 8.03152 27.1936 8.71625 27.5054C9.40776 27.8173 9.95013 28.2884 10.3433 28.9189C10.7366 29.5427 10.9671 30.3291 11.0349 31.2782L7.85186 31.268C7.82474 30.9087 7.75356 30.6138 7.63831 30.3833C7.52305 30.146 7.35018 29.9698 7.11967 29.8545C6.88917 29.7325 6.58748 29.6647 6.2146 29.6511C5.77393 29.6376 5.39089 29.7223 5.06547 29.9054C4.74683 30.0884 4.47565 30.3359 4.25193 30.6477C4.03498 30.9596 3.86211 31.3053 3.73329 31.685C3.61126 32.0579 3.52313 32.4341 3.46889 32.8138L3.39771 33.4138C3.35703 33.7866 3.34008 34.1561 3.34686 34.5222C3.35364 34.8883 3.41127 35.2239 3.51974 35.529C3.62821 35.8273 3.81126 36.0713 4.06888 36.2612C4.3265 36.4442 4.68582 36.5391 5.14683 36.5459C5.41801 36.5527 5.68241 36.5324 5.94003 36.4849C6.19765 36.4374 6.4485 36.3629 6.69256 36.2612L7.00781 34.7968H5.0248L5.43157 32.5087H10.7603Z" fill="url(#paint0_linear_7322_49455)"/>
<path d="M17.3907 31.1053L13.4145 39.0374H9.91623L16.4347 27.1902H18.8652L17.3907 31.1053ZM18.9059 39.0374L17.5127 30.8613L17.3907 27.1902H19.6482L22.1296 39.0374H18.9059ZM19.6584 34.6239L19.2516 36.9629H13.0992L13.5162 34.6239H19.6584Z" fill="url(#paint1_linear_7322_49455)"/>
<path d="M26.7464 27.1902H29.2989L30.3769 34.7154L34.0683 27.1902H36.8547L30.8345 39.0374H28.6582L26.7464 27.1902ZM24.9261 27.1902H27.743L26.5329 37.3595L26.2481 39.0374H22.8719L24.9261 27.1902ZM35.7259 27.1902H38.5835L36.5191 39.0374H33.1531L33.4988 37.0544L35.7259 27.1902Z" fill="url(#paint2_linear_7322_49455)"/>
<path d="M44.3291 34.2578H40.9529L41.319 32.0918L44.0037 32.1019C44.2817 32.0952 44.5495 32.0613 44.8071 32.0002C45.0647 31.9324 45.285 31.8172 45.4681 31.6545C45.6579 31.485 45.78 31.2477 45.8342 30.9426C45.8884 30.6782 45.8816 30.4681 45.8139 30.3121C45.7461 30.1562 45.6308 30.041 45.4681 29.9664C45.3054 29.8918 45.102 29.8511 44.8579 29.8443L43.0783 29.8342L41.4817 39.0374H38.1259L40.1801 27.1902L44.6139 27.2003C45.1427 27.2071 45.6817 27.258 46.2308 27.3529C46.7867 27.4478 47.2986 27.6105 47.7664 27.841C48.2341 28.0715 48.607 28.3935 48.885 28.8071C49.1629 29.2206 49.2918 29.7528 49.2714 30.4037C49.2443 31.1358 49.0443 31.7189 48.6714 32.1528C48.3053 32.5799 47.8342 32.885 47.2579 33.068C46.6816 33.2511 46.0681 33.3426 45.4172 33.3426L44.3291 34.2578ZM43.4139 39.0374H39.336L40.8106 36.4035L43.5156 36.4137C43.7597 36.4002 44.0105 36.3595 44.2681 36.2917C44.5325 36.2239 44.763 36.112 44.9596 35.9561C45.1562 35.7934 45.285 35.5731 45.3461 35.2951C45.4003 35.0442 45.3901 34.8476 45.3156 34.7053C45.241 34.5561 45.1189 34.4477 44.9495 34.3799C44.7868 34.3121 44.5935 34.2748 44.3698 34.268L41.6343 34.2578L42.0207 32.0918L44.8376 32.1019L45.4478 32.9867C46.0105 32.9663 46.5359 33.0409 47.024 33.2104C47.5189 33.3731 47.9121 33.6477 48.2036 34.0341C48.4952 34.4205 48.6307 34.929 48.6104 35.5595C48.5833 36.2781 48.4104 36.8679 48.0918 37.3289C47.7799 37.7832 47.3731 38.1357 46.8715 38.3866C46.3698 38.6374 45.8172 38.8103 45.2139 38.9052C44.6105 39.0001 44.0105 39.0442 43.4139 39.0374Z" fill="url(#paint3_linear_7322_49455)"/>
<path d="M55.0679 27.1902L53.0137 39.0374H49.6578L51.712 27.1902H55.0679Z" fill="url(#paint4_linear_7322_49455)"/>
<path d="M63.2847 27.1902L61.2203 39.0374H57.8441L59.9085 27.1902H63.2847ZM66.9355 27.1902L66.4677 29.8342H55.9018L56.3696 27.1902H66.9355Z" fill="url(#paint5_linear_7322_49455)"/>
<path d="M19.3753 0.8125H20.1556V4.64204H19.8955C18.961 4.64204 18.0843 4.7721 17.2654 5.03222C16.4562 5.29234 15.7432 5.68734 15.1267 6.21721C14.5197 6.73745 14.0428 7.39739 13.696 8.19702C13.3588 8.99664 13.1902 9.93597 13.1902 11.015V14.7C13.1902 15.3744 13.248 15.9621 13.3636 16.463C13.4792 16.964 13.6526 17.3783 13.8839 17.7058C14.1151 18.0334 14.3993 18.2791 14.7365 18.4429C15.0833 18.6066 15.4831 18.6885 15.9359 18.6885C16.3116 18.6885 16.6585 18.6018 16.9764 18.4284C17.2943 18.255 17.5689 18.0093 17.8001 17.6914C18.041 17.3735 18.224 17.0026 18.3493 16.5787C18.4745 16.1548 18.5371 15.6923 18.5371 15.1914C18.5371 14.6518 18.4697 14.1653 18.3348 13.7318C18.1999 13.2983 18.0072 12.9322 17.7568 12.6335C17.5159 12.3252 17.2221 12.094 16.8752 11.9399C16.538 11.7761 16.1671 11.6942 15.7625 11.6942C15.1459 11.6942 14.6209 11.8339 14.1873 12.1133C13.7634 12.383 13.4407 12.7298 13.2191 13.1537C13.0072 13.5776 12.9012 14.0064 12.9012 14.4399L11.7306 13.2549C11.7114 12.6769 11.8222 12.0795 12.063 11.463C12.3039 10.8464 12.6652 10.2732 13.1469 9.74328C13.6286 9.21341 14.2307 8.78469 14.9532 8.45714C15.6758 8.12958 16.514 7.9658 17.4677 7.9658C18.4311 7.9658 19.2789 8.14885 20.0111 8.51494C20.753 8.88103 21.3744 9.39164 21.8753 10.0468C22.3859 10.7019 22.7713 11.4678 23.0314 12.3445C23.2915 13.2212 23.4216 14.1701 23.4216 15.1914C23.4216 16.2222 23.2385 17.1808 22.8724 18.0671C22.516 18.9438 22.0102 19.7097 21.3551 20.3648C20.7 21.02 19.9244 21.5306 19.0285 21.8967C18.1325 22.2628 17.145 22.4458 16.066 22.4458C14.9581 22.4458 13.932 22.2579 12.9879 21.8822C12.0534 21.4969 11.2345 20.9429 10.5312 20.2203C9.83755 19.4881 9.29323 18.597 8.89823 17.5469C8.51287 16.4968 8.32018 15.307 8.32018 13.9775V12.2C8.32018 10.3984 8.61402 8.79433 9.2017 7.38775C9.79901 5.98118 10.6083 4.79137 11.6295 3.81833C12.6603 2.83565 13.8405 2.08901 15.17 1.57841C16.4995 1.0678 17.9013 0.8125 19.3753 0.8125Z" fill="url(#paint6_linear_7322_49455)"/>
<path d="M36.5432 0.8125H37.3236V4.64204H37.0634C36.1289 4.64204 35.2522 4.7721 34.4333 5.03222C33.6241 5.29234 32.9112 5.68734 32.2946 6.21721C31.6876 6.73745 31.2107 7.39739 30.8639 8.19702C30.5267 8.99664 30.3581 9.93597 30.3581 11.015V14.7C30.3581 15.3744 30.4159 15.9621 30.5315 16.463C30.6471 16.964 30.8206 17.3783 31.0518 17.7058C31.283 18.0334 31.5672 18.2791 31.9044 18.4429C32.2512 18.6066 32.651 18.6885 33.1038 18.6885C33.4796 18.6885 33.8264 18.6018 34.1443 18.4284C34.4622 18.255 34.7368 18.0093 34.968 17.6914C35.2089 17.3735 35.3919 17.0026 35.5172 16.5787C35.6424 16.1548 35.705 15.6923 35.705 15.1914C35.705 14.6518 35.6376 14.1653 35.5027 13.7318C35.3678 13.2983 35.1752 12.9322 34.9247 12.6335C34.6838 12.3252 34.39 12.094 34.0432 11.9399C33.706 11.7761 33.3351 11.6942 32.9304 11.6942C32.3138 11.6942 31.7888 11.8339 31.3552 12.1133C30.9314 12.383 30.6086 12.7298 30.387 13.1537C30.1751 13.5776 30.0691 14.0064 30.0691 14.4399L28.8986 13.2549C28.8793 12.6769 28.9901 12.0795 29.2309 11.463C29.4718 10.8464 29.8331 10.2732 30.3148 9.74328C30.7965 9.21341 31.3986 8.78469 32.1212 8.45714C32.8437 8.12958 33.6819 7.9658 34.6357 7.9658C35.5991 7.9658 36.4469 8.14885 37.179 8.51494C37.9209 8.88103 38.5423 9.39164 39.0432 10.0468C39.5538 10.7019 39.9392 11.4678 40.1993 12.3445C40.4594 13.2212 40.5895 14.1701 40.5895 15.1914C40.5895 16.2222 40.4065 17.1808 40.0404 18.0671C39.6839 18.9438 39.1781 19.7097 38.523 20.3648C37.8679 21.02 37.0923 21.5306 36.1964 21.8967C35.3004 22.2628 34.3129 22.4458 33.2339 22.4458C32.126 22.4458 31.0999 22.2579 30.1558 21.8822C29.2213 21.4969 28.4024 20.9429 27.6991 20.2203C27.0055 19.4881 26.4611 18.597 26.0661 17.5469C25.6808 16.4968 25.4881 15.307 25.4881 13.9775V12.2C25.4881 10.3984 25.7819 8.79433 26.3696 7.38775C26.9669 5.98118 27.7762 4.79137 28.7974 3.81833C29.8282 2.83565 31.0084 2.08901 32.3379 1.57841C33.6674 1.0678 35.0692 0.8125 36.5432 0.8125Z" fill="url(#paint7_linear_7322_49455)"/>
<path d="M53.7111 0.8125H54.4915V4.64204H54.2314C53.2968 4.64204 52.4201 4.7721 51.6013 5.03222C50.792 5.29234 50.0791 5.68734 49.4625 6.21721C48.8555 6.73745 48.3787 7.39739 48.0318 8.19702C47.6946 8.99664 47.526 9.93597 47.526 11.015V14.7C47.526 15.3744 47.5838 15.9621 47.6995 16.463C47.8151 16.964 47.9885 17.3783 48.2197 17.7058C48.4509 18.0334 48.7351 18.2791 49.0723 18.4429C49.4191 18.6066 49.819 18.6885 50.2718 18.6885C50.6475 18.6885 50.9943 18.6018 51.3122 18.4284C51.6302 18.255 51.9047 18.0093 52.1359 17.6914C52.3768 17.3735 52.5598 17.0026 52.6851 16.5787C52.8103 16.1548 52.873 15.6923 52.873 15.1914C52.873 14.6518 52.8055 14.1653 52.6706 13.7318C52.5358 13.2983 52.3431 12.9322 52.0926 12.6335C51.8517 12.3252 51.5579 12.094 51.2111 11.9399C50.8739 11.7761 50.503 11.6942 50.0983 11.6942C49.4818 11.6942 48.9567 11.8339 48.5232 12.1133C48.0993 12.383 47.7765 12.7298 47.5549 13.1537C47.343 13.5776 47.237 14.0064 47.237 14.4399L46.0665 13.2549C46.0472 12.6769 46.158 12.0795 46.3989 11.463C46.6397 10.8464 47.001 10.2732 47.4827 9.74328C47.9644 9.21341 48.5665 8.78469 49.2891 8.45714C50.0116 8.12958 50.8498 7.9658 51.8036 7.9658C52.767 7.9658 53.6148 8.14885 54.347 8.51494C55.0888 8.88103 55.7102 9.39164 56.2112 10.0468C56.7218 10.7019 57.1071 11.4678 57.3672 12.3445C57.6274 13.2212 57.7574 14.1701 57.7574 15.1914C57.7574 16.2222 57.5744 17.1808 57.2083 18.0671C56.8518 18.9438 56.346 19.7097 55.6909 20.3648C55.0358 21.02 54.2603 21.5306 53.3643 21.8967C52.4683 22.2628 51.4808 22.4458 50.4018 22.4458C49.2939 22.4458 48.2679 22.2579 47.3237 21.8822C46.3892 21.4969 45.5703 20.9429 44.867 20.2203C44.1734 19.4881 43.6291 18.597 43.2341 17.5469C42.8487 16.4968 42.656 15.307 42.656 13.9775V12.2C42.656 10.3984 42.9499 8.79433 43.5375 7.38775C44.1348 5.98118 44.9441 4.79137 45.9653 3.81833C46.9962 2.83565 48.1763 2.08901 49.5058 1.57841C50.8353 1.0678 52.2371 0.8125 53.7111 0.8125Z" fill="url(#paint8_linear_7322_49455)"/>
<defs>
<linearGradient id="paint0_linear_7322_49455" x1="32.8582" y1="-1.95837" x2="32.8582" y2="24.3902" gradientUnits="userSpaceOnUse">
<stop stop-color="#E0C8A8"/>
<stop offset="1" stop-color="#DA863D"/>
</linearGradient>
<linearGradient id="paint1_linear_7322_49455" x1="32.8582" y1="-1.95837" x2="32.8582" y2="24.3902" gradientUnits="userSpaceOnUse">
<stop stop-color="#E0C8A8"/>
<stop offset="1" stop-color="#DA863D"/>
</linearGradient>
<linearGradient id="paint2_linear_7322_49455" x1="32.8582" y1="-1.95837" x2="32.8582" y2="24.3902" gradientUnits="userSpaceOnUse">
<stop stop-color="#E0C8A8"/>
<stop offset="1" stop-color="#DA863D"/>
</linearGradient>
<linearGradient id="paint3_linear_7322_49455" x1="32.8582" y1="-1.95837" x2="32.8582" y2="24.3902" gradientUnits="userSpaceOnUse">
<stop stop-color="#E0C8A8"/>
<stop offset="1" stop-color="#DA863D"/>
</linearGradient>
<linearGradient id="paint4_linear_7322_49455" x1="32.8582" y1="-1.95837" x2="32.8582" y2="24.3902" gradientUnits="userSpaceOnUse">
<stop stop-color="#E0C8A8"/>
<stop offset="1" stop-color="#DA863D"/>
</linearGradient>
<linearGradient id="paint5_linear_7322_49455" x1="32.8582" y1="-1.95837" x2="32.8582" y2="24.3902" gradientUnits="userSpaceOnUse">
<stop stop-color="#E0C8A8"/>
<stop offset="1" stop-color="#DA863D"/>
</linearGradient>
<linearGradient id="paint6_linear_7322_49455" x1="32.8582" y1="-1.95837" x2="32.8582" y2="24.3902" gradientUnits="userSpaceOnUse">
<stop stop-color="#E0C8A8"/>
<stop offset="1" stop-color="#DA863D"/>
</linearGradient>
<linearGradient id="paint7_linear_7322_49455" x1="32.8582" y1="-1.95837" x2="32.8582" y2="24.3902" gradientUnits="userSpaceOnUse">
<stop stop-color="#E0C8A8"/>
<stop offset="1" stop-color="#DA863D"/>
</linearGradient>
<linearGradient id="paint8_linear_7322_49455" x1="32.8582" y1="-1.95837" x2="32.8582" y2="24.3902" gradientUnits="userSpaceOnUse">
<stop stop-color="#E0C8A8"/>
<stop offset="1" stop-color="#DA863D"/>
</linearGradient>
</defs>
</svg>
