<svg width="277" height="48" viewBox="0 0 277 48" fill="none" xmlns="http://www.w3.org/2000/svg">
<path d="M20.7963 15.1132C20.7628 15.0127 20.8632 14.7613 21.0976 14.3592C21.3319 13.9236 21.583 13.4042 21.8509 12.8011C22.1522 12.1644 22.4367 11.4607 22.7046 10.69C23.0059 9.88576 23.2068 9.06479 23.3072 8.22706C23.4411 7.38933 23.4411 6.5516 23.3072 5.71387C23.1733 4.87615 22.8218 4.07193 22.2526 3.30122C21.9178 2.89911 21.4156 2.6813 20.7461 2.64779C20.11 2.58077 19.3734 2.6813 18.5365 2.94937C17.733 3.18394 16.8793 3.56929 15.9753 4.10544C15.1049 4.60807 14.3014 5.21124 13.5648 5.91493C12.8283 6.58511 12.1922 7.33907 11.6566 8.1768C11.1544 9.01452 10.8698 9.86901 10.8028 10.7402C10.7359 11.4439 10.7526 12.0974 10.8531 12.7005C10.987 13.3037 11.1544 13.8566 11.3552 14.3592C11.5561 14.8619 11.7737 15.331 12.0081 15.7666C12.2424 16.2022 12.46 16.5876 12.6609 16.9227C12.9288 17.3918 13.3472 17.9112 13.9164 18.4809C14.4855 19.0505 15.1049 19.7039 15.7745 20.4411C16.444 21.1448 17.1136 21.949 17.7832 22.8538C18.4528 23.7585 19.0386 24.7806 19.5408 25.9199C20.043 27.0592 20.3945 28.3325 20.5954 29.7399C20.7963 31.1473 20.7795 32.7055 20.5452 34.4144C20.1769 36.8941 19.591 38.9549 18.7875 40.5969C17.9841 42.2723 17.0969 43.6127 16.126 44.618C15.1886 45.6232 14.2344 46.3437 13.2635 46.7793C12.2927 47.2484 11.4892 47.55 10.8531 47.6841C10.3509 47.7846 9.74826 47.8684 9.0452 47.9354C8.37562 48.0359 7.65583 48.0191 6.88581 47.8851C6.14928 47.7846 5.39601 47.55 4.62599 47.1814C3.85598 46.8463 3.16966 46.3102 2.56704 45.573C1.86398 44.7353 1.31158 43.8305 0.909837 42.8587C0.54157 42.021 0.273739 41.0493 0.106345 39.9434C-0.0945286 38.8712 -0.0108314 37.7486 0.357436 36.5758C0.625267 36.2742 0.909837 36.0061 1.21115 35.7716C1.51246 35.537 1.81377 35.3359 2.11508 35.1684C2.44987 34.9673 2.80139 34.783 3.16966 34.6155C3.60489 34.4815 4.04011 34.3642 4.47534 34.2637C4.8436 34.1966 5.22861 34.1631 5.63036 34.1631C6.06558 34.1296 6.46733 34.1799 6.8356 34.3139C6.33341 34.8836 5.98188 35.4197 5.78101 35.9224C5.6471 36.1904 5.54666 36.425 5.4797 36.626C5.34579 37.2627 5.29557 38.0167 5.32905 38.8879C5.39601 39.7927 5.58014 40.6471 5.88145 41.4514C6.21624 42.2891 6.68494 42.9928 7.28756 43.5624C7.89018 44.1656 8.69367 44.4839 9.69804 44.5174C12.142 44.5845 14.2177 42.6744 15.9251 38.7874C16.4942 37.5811 16.7788 36.358 16.7788 35.1181C16.8123 33.8783 16.6616 32.6887 16.3269 31.5494C16.0255 30.4101 15.6071 29.3546 15.0714 28.3828C14.5692 27.3775 14.0503 26.523 13.5146 25.8194C12.979 25.1157 12.3261 24.3617 11.5561 23.5575C10.8196 22.7198 10.083 21.815 9.34651 20.8432C8.60998 19.8715 7.9404 18.8159 7.33778 17.6766C6.76864 16.5373 6.38363 15.2975 6.18276 13.9571C5.91493 12.0806 6.08232 10.3716 6.68494 8.83022C7.32104 7.25529 8.15801 5.88142 9.19586 4.7086C10.2672 3.53578 11.4222 2.58077 12.6609 1.84357C13.9331 1.10637 15.0547 0.637241 16.0255 0.436187C21.4156 -0.636105 24.9477 0.268641 26.6216 3.15043C27.3247 4.25623 27.7097 5.42905 27.7766 6.66888C27.8436 7.90872 27.7599 9.06479 27.5255 10.1371C27.3247 11.1759 27.0568 12.0639 26.722 12.8011C26.4207 13.5047 26.2199 13.8901 26.1194 13.9571C25.9185 14.1582 25.6005 14.376 25.1653 14.6105C24.73 14.8451 24.027 15.0629 23.0561 15.264C22.7883 15.331 22.5204 15.3645 22.2526 15.3645C22.0183 15.3645 21.7672 15.3477 21.4993 15.3142C21.2315 15.2807 20.9972 15.2137 20.7963 15.1132Z" fill="#FFB504"/>
<path d="M32.9993 38.9884C31.7271 38.9884 30.6893 38.7874 29.8858 38.3853C29.0823 37.9832 28.4462 37.4973 27.9775 36.9276C27.5423 36.3245 27.2242 35.6878 27.0233 35.0176C26.856 34.3139 26.7723 33.6772 26.7723 33.1076C26.7723 32.1023 26.856 31.0468 27.0233 29.941C27.1907 28.8017 27.3916 27.7629 27.626 26.8246C27.8603 25.8529 28.0612 25.0319 28.2286 24.3617C28.4295 23.6915 28.5634 23.2727 28.6303 23.1051C28.9316 22.1333 29.3167 21.2956 29.7854 20.5919C30.2875 19.8547 30.9739 19.3521 31.8443 19.084C32.1791 19.017 32.5306 18.95 32.8989 18.883C33.2002 18.8495 33.5015 18.8327 33.8028 18.8327C34.1376 18.8327 34.4389 18.883 34.7068 18.9835C33.8028 21.2956 33.083 23.2224 32.5474 24.7638C32.0452 26.3052 31.6602 27.5618 31.3923 28.5336C31.091 29.6394 30.9069 30.5274 30.8399 31.1976C30.6725 32.7055 30.8065 33.8448 31.2417 34.6155C31.6769 35.3862 32.5641 35.7716 33.9033 35.7716C34.7737 35.7716 35.6107 35.4532 36.4142 34.8166C37.2177 34.1464 37.9542 33.2919 38.6238 32.2531C38.5233 31.717 38.4731 31.1641 38.4731 30.5944C38.4731 29.5221 38.5568 28.4833 38.7242 27.4781C38.9251 26.4393 39.1427 25.4843 39.3771 24.613C39.6449 23.7083 39.9127 22.9041 40.1805 22.2004C40.4819 21.4967 40.7329 20.9438 40.9338 20.5417C41.3021 19.7374 41.6369 19.2516 41.9382 19.084C42.2395 18.883 42.7249 18.7657 43.3945 18.7322C43.6623 18.6987 43.88 18.6987 44.0474 18.7322C44.2482 18.7322 44.4156 18.7489 44.5495 18.7824C44.9513 18.883 45.1522 19.084 45.1522 19.3856C45.1522 19.9217 45.1187 20.726 45.0517 21.7983C44.9848 22.8705 44.7839 23.9763 44.4491 25.1157C44.2147 26.0539 43.9804 26.8581 43.746 27.5283C43.5452 28.165 43.3443 28.7179 43.1434 29.187C42.9426 29.6226 42.7417 29.9912 42.5408 30.2928C42.3399 30.5609 42.1558 30.8122 41.9884 31.0468C42.0554 32.052 42.1391 32.8563 42.2395 33.4594C42.3399 34.0626 42.4571 34.5317 42.591 34.8668C42.7584 35.1684 42.9426 35.3862 43.1434 35.5202C43.3778 35.6208 43.6289 35.671 43.8967 35.671C44.3654 35.671 44.9178 35.4532 45.5539 35.0176C46.19 34.5485 46.8428 33.9788 47.5124 33.3086C48.2155 32.6049 48.9018 31.851 49.5714 31.0468C50.2744 30.209 50.9105 29.4216 51.4797 28.6844C52.0488 27.9472 52.5342 27.3105 52.936 26.7744C53.3377 26.2047 53.5888 25.8529 53.6893 25.7188C53.9236 25.4172 54.1412 25.2329 54.3421 25.1659C54.5765 25.0989 54.7606 25.1324 54.8945 25.2665C55.0284 25.367 55.0954 25.5513 55.0954 25.8194C55.1289 26.0539 55.0619 26.322 54.8945 26.6236C54.2249 27.8969 53.388 29.254 52.3836 30.6949C51.4127 32.1023 50.3581 33.4092 49.2198 34.6155C48.115 35.8218 46.9935 36.8271 45.8552 37.6313C44.7169 38.4355 43.6456 38.8376 42.6412 38.8376C41.7373 38.8376 41.0175 38.5361 40.4819 37.9329C39.9797 37.2962 39.5444 36.3915 39.1762 35.2187C38.4062 36.425 37.5022 37.3632 36.4644 38.0334C35.4265 38.6701 34.2715 38.9884 32.9993 38.9884Z" fill="#FFB504"/>
<path d="M65.7919 39.4408C65.0219 39.4408 64.3523 39.29 63.7831 38.9884C63.2475 38.7204 62.8123 38.3518 62.4775 37.8826C62.1427 37.4135 61.9251 36.8774 61.8246 36.2742C61.7242 35.6375 61.7577 34.9673 61.9251 34.2637C62.0255 33.7945 62.1929 33.1746 62.4272 32.4039C62.6616 31.5997 62.896 30.7452 63.1303 29.8404C63.3981 28.9022 63.6325 27.9807 63.8334 27.0759C64.0677 26.1377 64.2184 25.3 64.2853 24.5628C64.3523 23.792 64.3188 23.1721 64.1849 22.703C64.051 22.2004 63.7664 21.949 63.3312 21.949C62.7955 21.949 62.2431 22.1333 61.674 22.5019C61.1048 22.837 60.519 23.3062 59.9163 23.9093C59.3472 24.5125 58.7613 25.2162 58.1587 26.0204C57.5896 26.7911 57.0204 27.5953 56.4513 28.4331C56.15 29.5724 55.8989 30.5776 55.698 31.4489C55.4971 32.2866 55.313 33.0573 55.1456 33.761C55.0117 34.4312 54.8778 35.0344 54.7439 35.5705C54.6099 36.0731 54.4928 36.559 54.3923 37.0282C54.2919 37.3632 53.9906 37.6983 53.4884 38.0334C52.9862 38.335 52.4506 38.5863 51.8814 38.7874C51.3123 38.9884 50.8268 39.089 50.4251 39.089C49.9899 39.089 49.8057 38.9382 49.8727 38.6366C49.9062 38.4355 50.0233 37.9832 50.2242 37.2795C50.3916 36.5758 50.6092 35.7548 50.877 34.8166C51.1114 33.8448 51.3625 32.8228 51.6303 31.7505C51.8981 30.6782 52.1492 29.6561 52.3836 28.6844C52.551 27.9137 52.7351 27.0592 52.936 26.1209C53.1034 25.3167 53.3043 24.3785 53.5386 23.3062C53.8064 22.2339 54.1078 21.0611 54.4425 19.7877C54.6769 19.5867 54.9112 19.4359 55.1456 19.3353C55.4134 19.2013 55.6813 19.1008 55.9491 19.0338C56.2169 18.9332 56.5015 18.8662 56.8028 18.8327C57.0706 18.8327 57.3385 18.8495 57.6063 18.883C57.8406 18.9165 58.075 18.9835 58.3093 19.084C58.5772 19.151 58.8115 19.2683 59.0124 19.4359C58.912 19.6704 58.7948 20.0055 58.6609 20.4411C58.527 20.8432 58.393 21.2789 58.2591 21.748C58.1252 22.2841 57.9578 22.837 57.757 23.4067C58.1922 22.8035 58.6776 22.2004 59.2133 21.5972C59.7824 20.9605 60.385 20.3909 61.0211 19.8882C61.6907 19.3856 62.3938 18.9835 63.1303 18.6819C63.8668 18.3468 64.6201 18.1793 65.3901 18.1793C66.0262 18.1793 66.5954 18.3636 67.0975 18.7322C67.5997 19.1008 67.9847 19.6202 68.2526 20.2903C68.5539 20.927 68.7213 21.6977 68.7548 22.6025C68.8217 23.5072 68.7045 24.4957 68.4032 25.568L67.8508 27.7796C67.6834 28.4833 67.4658 29.3211 67.198 30.2928C66.9636 31.2311 66.6623 32.2699 66.2941 33.4092C66.0932 34.1464 66.0095 34.783 66.043 35.3192C66.1099 35.8553 66.4447 36.1234 67.0473 36.1234C67.65 36.1234 68.4032 35.7548 69.3072 35.0176C70.2446 34.2804 71.182 33.3924 72.1194 32.3536C73.0568 31.3148 73.944 30.2593 74.781 29.187C75.6179 28.0812 76.254 27.1932 76.6892 26.523C76.9906 26.0874 77.2751 25.8026 77.543 25.6686C77.8108 25.5345 78.0117 25.5178 78.1456 25.6183C78.313 25.7188 78.3967 25.9534 78.3967 26.322C78.3967 26.6571 78.2628 27.0927 77.9949 27.6288C77.7606 28.098 77.3923 28.7179 76.8901 29.4886C76.4214 30.2593 75.8523 31.0803 75.1827 31.9515C74.5131 32.8228 73.7933 33.7108 73.0233 34.6155C72.2533 35.4867 71.4498 36.291 70.6128 37.0282C69.7759 37.7318 68.9389 38.3015 68.1019 38.7371C67.2984 39.2062 66.5284 39.4408 65.7919 39.4408Z" fill="#FFB504"/>
<path d="M86.1303 9.38312C85.6281 11.3937 85.059 13.3204 84.4229 15.1634C83.8202 16.9729 83.1841 18.6819 82.5146 20.2903C81.8785 21.8653 81.2256 23.3062 80.5561 24.613C79.92 25.9199 79.3508 27.0592 78.8486 28.031C78.5138 30.4436 78.5138 32.3871 78.8486 33.8615C79.1834 35.3359 79.8363 36.0731 80.8071 36.0731C81.6106 36.0731 82.3974 35.7045 83.1674 34.9673C83.9374 34.2301 84.6237 33.3254 85.2264 32.2531C85.829 31.1808 86.3312 30.0415 86.7329 28.8352C87.1681 27.5953 87.436 26.4895 87.5364 25.5178C86.9003 25.3502 86.3646 25.0654 85.9294 24.6633C85.4942 24.2277 85.2766 23.658 85.2766 22.9543C85.2766 22.4852 85.4105 22.0496 85.6783 21.6475C85.9462 21.2118 86.2642 20.8432 86.6325 20.5417C87.0007 20.2401 87.4025 20.0055 87.8377 19.838C88.2729 19.6704 88.6747 19.5867 89.0429 19.5867C89.6121 19.5867 90.0975 19.9553 90.4993 20.6925C90.901 21.3961 91.1689 22.3009 91.3028 23.4067C92.6419 23.3732 94.048 23.1721 95.5211 22.8035C96.9942 22.4349 98.3836 21.9658 99.6892 21.3961C100.057 21.2286 100.359 21.1783 100.593 21.2454C100.828 21.3124 100.978 21.4464 101.045 21.6475C101.146 21.8485 101.146 22.0831 101.045 22.3512C100.945 22.5857 100.744 22.77 100.442 22.9041C99.6725 23.3397 98.869 23.7418 98.032 24.1104C97.2285 24.4455 96.425 24.7303 95.6215 24.9649C94.8181 25.1994 94.048 25.3837 93.3115 25.5178C92.575 25.6518 91.9054 25.7188 91.3028 25.7188C91.1689 27.0592 90.7504 28.5168 90.0473 30.0918C89.3443 31.6332 88.4905 33.0741 87.4862 34.4144C86.4818 35.7213 85.3603 36.8103 84.1216 37.6816C82.9163 38.5528 81.7278 38.9884 80.5561 38.9884C80.1878 38.9884 79.7023 38.9382 79.0997 38.8376C78.4971 38.7371 77.9112 38.3853 77.3421 37.7821C76.7729 37.1789 76.2875 36.2239 75.8858 34.9171C75.484 33.5767 75.3166 31.6834 75.3836 29.2373C75.4171 27.5953 75.6012 25.8529 75.936 24.0099C76.2708 22.1669 76.6725 20.3239 77.1412 18.4809C77.6099 16.6378 78.1288 14.8619 78.698 13.1529C79.3006 11.4104 79.8697 9.85225 80.4054 8.47838C80.9411 7.07099 81.4265 5.89817 81.8617 4.95992C82.3304 4.02166 82.682 3.4185 82.9163 3.15043C83.2176 2.78183 83.5692 2.51375 83.9709 2.34621C84.3726 2.14515 84.7577 2.01112 85.1259 1.9441C85.5277 1.84357 85.8959 1.81006 86.2307 1.84357C86.5655 1.87708 86.7999 1.92734 86.9338 1.99436C87.1347 2.1284 87.1849 2.8656 87.0844 4.20596C87.0175 5.54633 86.6994 7.27205 86.1303 9.38312Z" fill="#FFB504"/>
<path d="M118.722 27.7294C117.718 29.2038 116.579 30.6447 115.307 32.052C114.035 33.4259 112.679 34.6658 111.239 35.7716C109.833 36.8439 108.377 37.7151 106.87 38.3853C105.397 39.0555 103.958 39.3905 102.552 39.3905C101.815 39.3905 101.012 39.2062 100.141 38.8376C99.3042 38.5026 98.5342 37.9664 97.8311 37.2292C97.1281 36.492 96.559 35.537 96.1237 34.3642C95.722 33.1914 95.6048 31.7672 95.7722 30.0918C95.9061 28.7179 96.3246 27.277 97.0277 25.7691C97.7642 24.2277 98.6514 22.8203 99.6892 21.5469C100.761 20.2736 101.949 19.2181 103.255 18.3803C104.594 17.5426 105.933 17.1237 107.272 17.1237C108.544 17.1237 109.465 17.4421 110.034 18.0787C110.603 18.7154 110.854 19.5029 110.787 20.4411C110.687 21.4799 110.386 22.4349 109.884 23.3062C109.415 24.1774 108.846 24.9649 108.176 25.6686C107.507 26.3723 106.787 27.0089 106.017 27.5786C105.28 28.1482 104.577 28.6676 103.908 29.1368C103.171 29.6394 102.468 30.1253 101.798 30.5944C101.129 31.03 100.543 31.4321 100.041 31.8007C100.074 32.6385 100.225 33.3422 100.493 33.9118C100.761 34.4815 101.095 34.9506 101.497 35.3192C101.899 35.6543 102.351 35.9056 102.853 36.0731C103.389 36.2072 103.924 36.2742 104.46 36.2742C105.598 36.2742 106.787 35.9224 108.025 35.2187C109.264 34.4815 110.469 33.6102 111.641 32.6049C112.846 31.5662 113.951 30.4939 114.956 29.3881C115.993 28.2823 116.847 27.3273 117.517 26.523C117.751 26.255 117.985 26.1042 118.22 26.0707C118.488 26.0037 118.688 26.0372 118.822 26.1712C118.99 26.2717 119.073 26.4728 119.073 26.7744C119.073 27.0424 118.956 27.3608 118.722 27.7294ZM105.866 19.9888C105.464 19.9888 104.979 20.1898 104.41 20.5919C103.874 20.994 103.338 21.5804 102.803 22.3512C102.267 23.0884 101.765 24.0099 101.296 25.1157C100.828 26.188 100.476 27.4278 100.242 28.8352C100.643 28.5336 101.079 28.232 101.547 27.9304C102.016 27.5953 102.485 27.2435 102.953 26.8749C104.393 25.7691 105.397 24.7973 105.967 23.9596C106.536 23.1219 106.854 22.4014 106.921 21.7983C106.988 21.1616 106.921 20.7092 106.72 20.4411C106.519 20.1396 106.234 19.9888 105.866 19.9888Z" fill="#FFB504"/>
<path d="M133.637 25.4675C133.771 25.2665 133.938 25.1492 134.139 25.1157C134.373 25.0486 134.557 25.0654 134.691 25.1659C134.825 25.2665 134.892 25.434 134.892 25.6686C134.926 25.9031 134.842 26.2215 134.641 26.6236C133.972 27.8969 133.084 29.2708 131.98 30.7452C130.908 32.2196 129.77 33.6102 128.565 34.9171C127.36 36.1904 126.188 37.246 125.049 38.0837C123.911 38.9214 122.957 39.3403 122.187 39.3403C121.082 39.3403 120.162 39.1225 119.425 38.6869C118.688 38.2512 118.103 37.7151 117.667 37.0784C117.266 36.4417 116.981 35.7548 116.814 35.0176C116.646 34.2469 116.596 33.5432 116.663 32.9065C116.696 32.3704 116.814 31.4154 117.015 30.0415C117.215 28.6341 117.483 27.0257 117.818 25.2162C118.153 23.3732 118.521 21.4129 118.923 19.3353C119.358 17.2243 119.81 15.197 120.279 13.2534C119.71 13.3204 119.14 13.3875 118.571 13.4545C118.002 13.5215 117.483 13.555 117.015 13.555C115.943 13.555 114.939 13.4377 114.001 13.2032C113.031 12.9351 112.311 12.6838 111.842 12.4492C111.574 12.3152 111.457 12.1309 111.491 11.8963C111.524 11.6282 111.624 11.3769 111.792 11.1424C111.959 10.8743 112.177 10.6565 112.445 10.4889C112.679 10.2879 112.897 10.1873 113.098 10.1873C113.734 10.2544 114.42 10.3214 115.156 10.3884C115.893 10.4219 116.696 10.4219 117.567 10.3884C118.203 10.3549 118.806 10.3046 119.375 10.2376C119.977 10.1706 120.563 10.0868 121.132 9.98629C121.568 8.37785 121.986 6.98722 122.388 5.8144C122.823 4.60807 123.208 3.77034 123.543 3.30122C123.643 3.13367 123.861 2.99963 124.196 2.89911C124.564 2.76507 124.949 2.6813 125.351 2.64779C125.753 2.58077 126.138 2.58077 126.506 2.64779C126.874 2.6813 127.142 2.79858 127.309 2.99963C127.477 3.26771 127.544 3.95465 127.51 5.06045C127.477 6.16625 127.293 7.57363 126.958 9.2826C128.364 9.2826 129.603 9.36637 130.674 9.53391C131.779 9.66795 132.716 9.8355 133.486 10.0366C134.256 10.2041 134.876 10.3884 135.344 10.5895C135.813 10.757 136.164 10.8743 136.399 10.9413C136.633 11.0083 136.75 11.1759 136.75 11.4439C136.784 11.712 136.734 11.9968 136.6 12.2984C136.499 12.5665 136.315 12.8011 136.047 13.0021C135.779 13.2032 135.478 13.2702 135.143 13.2032C134.809 13.1697 134.424 13.1026 133.988 13.0021C133.587 12.9016 133.084 12.8178 132.482 12.7508C131.913 12.6838 131.226 12.6168 130.423 12.5497C129.619 12.4827 128.682 12.4492 127.611 12.4492C127.41 12.4492 127.175 12.466 126.908 12.4995C126.673 12.4995 126.422 12.4995 126.154 12.4995C126.02 13.0356 125.886 13.5718 125.753 14.1079C125.652 14.6105 125.501 15.1467 125.301 15.7163C124.865 17.0567 124.363 18.5144 123.794 20.0893C123.292 21.4632 122.689 23.0381 121.986 24.8141C121.283 26.5901 120.496 28.4833 119.626 30.4939C119.425 31.9348 119.442 33.0406 119.676 33.8113C119.944 34.5485 120.262 35.0846 120.63 35.4197C121.065 35.7883 121.601 35.9894 122.237 36.0229C122.739 36.0899 123.342 35.9224 124.045 35.5202C124.782 35.0846 125.535 34.515 126.305 33.8113C127.075 33.1076 127.845 32.3369 128.615 31.4991C129.418 30.6614 130.155 29.8404 130.825 29.0362C131.494 28.232 132.08 27.5116 132.582 26.8749C133.084 26.2047 133.436 25.7356 133.637 25.4675Z" fill="#FFB504"/>
<path d="M155.833 47.5333C154.159 47.5333 152.636 47.1312 151.263 46.3269C149.924 45.5227 148.769 44.4169 147.798 43.0095C146.861 41.6021 146.141 39.9602 145.639 38.0837C145.17 36.1737 144.969 34.1464 145.036 32.0018C145.103 29.9912 145.354 27.8131 145.79 25.4675C146.258 23.1219 146.911 20.7762 147.748 18.4306C148.585 16.0514 149.589 13.7728 150.761 11.5947C151.966 9.38312 153.339 7.43959 154.879 5.76414C156.419 4.08868 158.127 2.74832 160.001 1.74304C161.876 0.70426 163.935 0.184868 166.178 0.184868C167.551 0.184868 168.706 0.469696 169.643 1.03935C170.614 1.5755 171.384 2.29594 171.953 3.20069C172.556 4.10544 172.974 5.12746 173.209 6.26678C173.443 7.40609 173.544 8.56215 173.51 9.73497C173.443 10.8408 173.276 11.9131 173.008 12.9518C172.774 13.9906 172.422 14.9289 171.953 15.7666C171.518 16.5708 170.966 17.2243 170.296 17.7269C169.66 18.196 168.924 18.4306 168.087 18.4306C167.685 18.3971 167.3 18.263 166.932 18.0285C166.597 17.8274 166.245 17.5258 165.877 17.1237C165.542 16.7216 165.224 16.1352 164.923 15.3645C165.827 14.9959 166.53 14.3592 167.032 13.4545C167.568 12.5162 167.969 11.5445 168.237 10.5392C168.538 9.39988 168.739 8.12653 168.84 6.71915C168.907 5.34527 168.622 4.34 167.986 3.70333C167.35 3.06665 166.63 2.74832 165.827 2.74832C164.253 2.74832 162.596 3.56929 160.855 5.21124C159.114 6.85318 157.49 9.08154 155.984 11.8963C154.511 14.6776 153.255 17.928 152.218 21.6475C151.213 25.367 150.627 29.3043 150.46 33.4594C150.393 35.3359 150.51 36.9276 150.811 38.2345C151.146 39.5413 151.598 40.6136 152.167 41.4514C152.77 42.2891 153.44 42.8923 154.176 43.2609C154.913 43.6295 155.649 43.8138 156.386 43.8138C157.557 43.8138 158.662 43.5624 159.7 43.0598C160.738 42.5572 161.675 41.9372 162.512 41.2C163.383 40.4628 164.119 39.6921 164.722 38.8879C165.358 38.1172 165.843 37.4303 166.178 36.8271C166.413 36.3915 166.664 36.1234 166.932 36.0229C167.199 35.9224 167.434 35.9559 167.635 36.1234C167.835 36.2574 167.969 36.492 168.036 36.8271C168.103 37.1287 168.036 37.4973 167.835 37.9329C167.266 39.0722 166.563 40.2115 165.726 41.3508C164.923 42.4901 164.002 43.5122 162.964 44.4169C161.96 45.3552 160.855 46.1091 159.65 46.6788C158.445 47.2484 157.172 47.5333 155.833 47.5333Z" fill="white"/>
<path d="M199.021 28.1817C198.552 28.8519 197.95 29.6897 197.213 30.6949C196.477 31.6667 195.707 32.6552 194.903 33.6605C194.133 34.6323 193.363 35.537 192.593 36.3747C191.857 37.1789 191.237 37.7486 190.735 38.0837C190.4 38.2847 190.015 38.4523 189.58 38.5863C189.145 38.7204 188.693 38.8041 188.224 38.8376C187.789 38.8712 187.37 38.8376 186.969 38.7371C186.567 38.6701 186.215 38.5361 185.914 38.335C185.613 38.1004 185.362 37.7654 185.161 37.3297C184.993 36.9611 184.826 36.4753 184.659 35.8721C184.525 35.2689 184.474 34.515 184.508 33.6102C183.704 34.9506 182.817 35.9894 181.846 36.7266C180.875 37.4303 179.955 37.9497 179.084 38.2847C178.08 38.6533 177.076 38.8712 176.071 38.9382C175.603 38.9382 175.1 38.7706 174.565 38.4355C174.029 38.134 173.577 37.6481 173.209 36.9779C172.841 36.2742 172.606 35.3862 172.506 34.3139C172.405 33.2081 172.539 31.9013 172.907 30.3933C173.376 28.3493 174.113 26.4895 175.117 24.8141C176.155 23.1386 177.276 21.7145 178.482 20.5417C179.687 19.3353 180.875 18.4306 182.047 17.8274C183.219 17.2243 184.19 16.9562 184.96 17.0232C185.864 17.1908 186.6 17.4588 187.169 17.8274C187.638 18.1625 187.939 18.6652 188.073 19.3353C188.241 19.972 187.973 20.8265 187.27 21.8988C187.739 21.7983 188.124 21.7312 188.425 21.6977C188.76 21.6642 189.011 21.6475 189.178 21.6475C189.379 21.6475 189.513 21.6642 189.58 21.6977C189.613 21.7647 189.63 21.9155 189.63 22.1501C189.63 22.3512 189.58 22.7365 189.48 23.3062C189.379 23.8758 189.228 24.6465 189.028 25.6183C188.827 26.5901 188.559 27.8467 188.224 29.3881C188.157 29.6897 188.09 29.9745 188.023 30.2426C187.99 30.4771 187.939 30.7284 187.873 30.9965C187.839 31.2311 187.789 31.5159 187.722 31.851C187.655 32.1861 187.571 32.6049 187.471 33.1076C187.437 33.4092 187.421 33.7443 187.421 34.1129C187.454 34.448 187.521 34.7663 187.621 35.0679C187.722 35.3695 187.873 35.6208 188.073 35.8218C188.308 35.9894 188.626 36.0731 189.028 36.0731C189.362 36.0731 189.798 35.8721 190.333 35.47C190.869 35.0344 191.438 34.4982 192.041 33.8615C192.643 33.1914 193.263 32.4709 193.899 31.7002C194.568 30.896 195.188 30.1253 195.757 29.3881C196.326 28.6509 196.828 27.9974 197.263 27.4278C197.732 26.8581 198.067 26.4393 198.268 26.1712C198.536 25.8696 198.803 25.7021 199.071 25.6686C199.339 25.6015 199.54 25.6686 199.674 25.8696C199.808 26.0707 199.824 26.3723 199.724 26.7744C199.657 27.1765 199.423 27.6456 199.021 28.1817ZM184.307 30.3933C184.474 29.7232 184.675 28.9357 184.91 28.031C185.144 27.1262 185.345 26.255 185.512 25.4172C185.68 24.5795 185.797 23.8926 185.864 23.3564C185.964 22.7868 185.948 22.5187 185.814 22.5522C185.646 22.5857 185.462 22.636 185.261 22.703C185.094 22.77 184.876 22.8203 184.608 22.8538C184.341 22.8873 184.073 22.9376 183.805 23.0046C184.073 22.4684 184.223 22.0328 184.257 21.6977C184.324 21.3291 184.341 21.0443 184.307 20.8432C184.274 20.6087 184.207 20.4244 184.106 20.2903C183.738 19.9888 183.085 20.2401 182.148 21.0443C181.244 21.815 180.189 23.2559 178.984 25.367C178.482 26.2382 178.08 27.1765 177.779 28.1817C177.477 29.1535 177.26 30.075 177.126 30.9462C177.025 31.8175 177.009 32.5882 177.076 33.2584C177.143 33.8951 177.276 34.3139 177.477 34.515C177.846 34.8836 178.264 35.0679 178.733 35.0679C179.202 35.0344 179.67 34.9003 180.139 34.6658C180.641 34.3977 181.127 34.0626 181.595 33.6605C182.097 33.2584 182.533 32.8395 182.901 32.4039C183.303 31.9683 183.621 31.5662 183.855 31.1976C184.123 30.829 184.274 30.5609 184.307 30.3933Z" fill="white"/>
<path d="M202.737 36.4753C202.938 36.6093 203.189 36.6763 203.49 36.6763C203.825 36.6763 204.143 36.6093 204.445 36.4753C204.779 36.3412 205.081 36.1569 205.349 35.9224C205.65 35.6878 205.867 35.3862 206.001 35.0176C206.135 34.649 206.135 34.1296 206.001 33.4594C205.867 32.7557 205.65 32.0185 205.349 31.2478C205.081 30.4436 204.779 29.6394 204.445 28.8352C204.11 28.031 203.825 27.2938 203.591 26.6236C203.39 26.1209 203.223 25.6518 203.089 25.2162C202.955 24.8476 202.821 24.4957 202.687 24.1607C202.587 23.792 202.503 23.5407 202.436 23.4067C202.268 23.6748 201.967 24.1104 201.532 24.7136C201.13 25.3167 200.678 25.9534 200.176 26.6236C199.707 27.2602 199.255 27.8634 198.82 28.4331C198.385 28.9692 198.084 29.3378 197.916 29.5389C197.648 29.8404 197.381 30.0247 197.113 30.0918C196.878 30.1253 196.677 30.075 196.51 29.941C196.343 29.7734 196.242 29.5556 196.209 29.2875C196.209 28.986 196.343 28.6341 196.611 28.232C196.811 27.9639 197.113 27.5451 197.514 26.9754C197.916 26.3723 198.318 25.7691 198.72 25.1659C199.121 24.5292 199.49 23.9763 199.824 23.5072C200.159 23.0046 200.343 22.703 200.377 22.6025C200.444 22.3344 200.343 21.9826 200.076 21.5469C199.841 21.1113 199.808 20.6087 199.975 20.039C200.109 19.5699 200.41 19.0338 200.879 18.4306C201.348 17.7939 201.9 17.2243 202.536 16.7216C203.172 16.219 203.825 15.8504 204.495 15.6158C205.164 15.3477 205.767 15.3477 206.303 15.6158C206.738 15.8839 207.089 16.1855 207.357 16.5206C207.625 16.8221 207.726 17.1405 207.659 17.4756C207.592 17.6431 207.491 17.8609 207.357 18.129C207.223 18.3971 207.022 18.7322 206.755 19.1343C206.487 19.5029 206.102 19.9888 205.6 20.5919C205.7 21.3626 205.834 22.0663 206.001 22.703C206.202 23.3397 206.386 23.8926 206.554 24.3617C206.755 24.9314 206.972 25.4508 207.207 25.9199C207.508 26.523 207.826 27.143 208.161 27.7796C208.496 28.4163 208.797 29.053 209.065 29.6897C209.332 30.2928 209.55 30.8625 209.717 31.3986C209.885 31.9348 209.935 32.3871 209.868 32.7557C209.768 33.3254 209.466 34.0123 208.964 34.8166C208.496 35.6208 207.893 36.4082 207.156 37.1789C206.453 37.9161 205.633 38.5528 204.696 39.089C203.792 39.6251 202.838 39.8932 201.833 39.8932C201.13 39.8932 200.444 39.6754 199.774 39.2398C199.138 38.8041 198.586 38.3015 198.117 37.7318C197.682 37.1287 197.347 36.5423 197.113 35.9726C196.912 35.403 196.895 34.9673 197.062 34.6658C197.263 34.2637 197.447 33.9453 197.615 33.7108C197.782 33.4762 198.033 33.2081 198.368 32.9065C198.502 32.806 198.669 32.6887 198.87 32.5547C199.038 32.4542 199.272 32.3536 199.573 32.2531C199.875 32.1526 200.226 32.0353 200.628 31.9013C200.963 32.94 201.264 33.761 201.532 34.3642C201.8 34.9338 202.017 35.3862 202.185 35.7213C202.386 36.0899 202.57 36.3412 202.737 36.4753Z" fill="white"/>
<path d="M224.783 8.5789C224.683 8.9475 224.482 9.3161 224.18 9.68471C223.913 10.0198 223.594 10.3046 223.226 10.5392C222.891 10.7402 222.54 10.8743 222.172 10.9413C221.803 11.0083 221.502 10.9413 221.268 10.7402C220.565 10.2041 220.196 9.63444 220.163 9.03128C220.129 8.3946 220.28 7.80819 220.615 7.27205C220.95 6.70239 221.368 6.23327 221.87 5.86467C222.373 5.46256 222.808 5.22799 223.176 5.16097C223.544 5.09396 223.846 5.17773 224.08 5.41229C224.348 5.61335 224.549 5.89817 224.683 6.26678C224.816 6.60187 224.883 6.98722 224.883 7.42284C224.917 7.85846 224.883 8.24381 224.783 8.5789ZM217.853 19.2851C218.02 19.084 218.338 18.9165 218.807 18.7824C219.276 18.6484 219.761 18.5479 220.263 18.4809C220.766 18.3803 221.217 18.3301 221.619 18.3301C222.054 18.2966 222.306 18.2966 222.373 18.3301C222.406 18.3636 222.322 18.7154 222.121 19.3856C221.921 20.0558 221.669 20.8432 221.368 21.748C221.067 22.6527 220.749 23.591 220.414 24.5628C220.079 25.501 219.828 26.2717 219.661 26.8749C219.493 27.4781 219.292 28.165 219.058 28.9357C218.824 29.6729 218.606 30.4101 218.405 31.1473C218.238 31.851 218.121 32.5212 218.054 33.1579C217.987 33.7945 218.037 34.2804 218.204 34.6155C218.372 35.0176 218.556 35.3024 218.757 35.47C218.958 35.604 219.175 35.671 219.41 35.671C220.079 35.671 220.916 35.3024 221.921 34.5652C222.958 33.828 223.996 32.9568 225.034 31.9515C226.105 30.9127 227.093 29.874 227.997 28.8352C228.901 27.7629 229.57 26.9084 230.006 26.2717C230.274 25.9366 230.541 25.7188 230.809 25.6183C231.11 25.5178 231.345 25.5345 231.512 25.6686C231.713 25.8026 231.814 26.0204 231.814 26.322C231.847 26.6236 231.747 26.9754 231.512 27.3775C230.977 28.3158 230.19 29.4383 229.152 30.7452C228.114 32.0185 227.009 33.2584 225.838 34.4647C224.666 35.6375 223.511 36.6428 222.373 37.4805C221.268 38.3183 220.364 38.7539 219.661 38.7874C219.092 38.8209 218.522 38.7204 217.953 38.4858C217.418 38.2847 216.915 37.9999 216.447 37.6313C216.012 37.2292 215.643 36.7768 215.342 36.2742C215.041 35.7381 214.873 35.1852 214.84 34.6155C214.739 33.7778 214.739 32.6385 214.84 31.1976C214.94 29.7232 215.124 28.232 215.392 26.7241C215.66 25.1827 215.995 23.725 216.397 22.3512C216.832 20.9773 217.317 19.9553 217.853 19.2851Z" fill="white"/>
<path d="M242.761 39.4408C241.991 39.4408 241.322 39.29 240.752 38.9884C240.217 38.7204 239.782 38.3518 239.447 37.8826C239.112 37.4135 238.894 36.8774 238.794 36.2742C238.693 35.6375 238.727 34.9673 238.894 34.2637C238.995 33.7945 239.162 33.1746 239.397 32.4039C239.631 31.5997 239.865 30.7452 240.1 29.8404C240.367 28.9022 240.602 27.9807 240.803 27.0759C241.037 26.1377 241.188 25.3 241.255 24.5628C241.322 23.792 241.288 23.1721 241.154 22.703C241.02 22.2004 240.736 21.949 240.3 21.949C239.765 21.949 239.212 22.1333 238.643 22.5019C238.074 22.837 237.488 23.3062 236.886 23.9093C236.316 24.5125 235.731 25.2162 235.128 26.0204C234.559 26.7911 233.99 27.5953 233.421 28.4331C233.119 29.5724 232.868 30.5776 232.667 31.4489C232.466 32.2866 232.282 33.0573 232.115 33.761C231.981 34.4312 231.847 35.0344 231.713 35.5705C231.579 36.0731 231.462 36.559 231.362 37.0282C231.261 37.3632 230.96 37.6983 230.458 38.0334C229.955 38.335 229.42 38.5863 228.851 38.7874C228.282 38.9884 227.796 39.089 227.394 39.089C226.959 39.089 226.775 38.9382 226.842 38.6366C226.875 38.4355 226.993 37.9832 227.193 37.2795C227.361 36.5758 227.578 35.7548 227.846 34.8166C228.081 33.8448 228.332 32.8228 228.6 31.7505C228.867 30.6782 229.118 29.6561 229.353 28.6844C229.52 27.9137 229.704 27.0592 229.905 26.1209C230.073 25.3167 230.274 24.3785 230.508 23.3062C230.776 22.2339 231.077 21.0611 231.412 19.7877C231.646 19.5867 231.881 19.4359 232.115 19.3353C232.383 19.2013 232.651 19.1008 232.918 19.0338C233.186 18.9332 233.471 18.8662 233.772 18.8327C234.04 18.8327 234.308 18.8495 234.576 18.883C234.81 18.9165 235.044 18.9835 235.279 19.084C235.546 19.151 235.781 19.2683 235.982 19.4359C235.881 19.6704 235.764 20.0055 235.63 20.4411C235.496 20.8432 235.362 21.2789 235.228 21.748C235.094 22.2841 234.927 22.837 234.726 23.4067C235.161 22.8035 235.647 22.2004 236.183 21.5972C236.752 20.9605 237.354 20.3909 237.99 19.8882C238.66 19.3856 239.363 18.9835 240.1 18.6819C240.836 18.3468 241.589 18.1793 242.359 18.1793C242.995 18.1793 243.565 18.3636 244.067 18.7322C244.569 19.1008 244.954 19.6202 245.222 20.2903C245.523 20.927 245.691 21.6977 245.724 22.6025C245.791 23.5072 245.674 24.4957 245.372 25.568L244.82 27.7796C244.653 28.4833 244.435 29.3211 244.167 30.2928C243.933 31.2311 243.632 32.2699 243.263 33.4092C243.062 34.1464 242.979 34.783 243.012 35.3192C243.079 35.8553 243.414 36.1234 244.017 36.1234C244.619 36.1234 245.372 35.7548 246.276 35.0176C247.214 34.2804 248.151 33.3924 249.089 32.3536C250.026 31.3148 250.913 30.2593 251.75 29.187C252.587 28.0812 253.223 27.1932 253.659 26.523C253.96 26.0874 254.244 25.8026 254.512 25.6686C254.78 25.5345 254.981 25.5178 255.115 25.6183C255.282 25.7188 255.366 25.9534 255.366 26.322C255.366 26.6571 255.232 27.0927 254.964 27.6288C254.73 28.098 254.362 28.7179 253.859 29.4886C253.391 30.2593 252.822 31.0803 252.152 31.9515C251.482 32.8228 250.763 33.7108 249.993 34.6155C249.223 35.4867 248.419 36.291 247.582 37.0282C246.745 37.7318 245.908 38.3015 245.071 38.7371C244.268 39.2062 243.498 39.4408 242.761 39.4408Z" fill="white"/>
<path d="M266.464 30.1923C266.129 31.4656 265.677 32.6552 265.108 33.761C264.539 34.8668 263.853 35.8218 263.049 36.626C262.279 37.4303 261.392 38.0502 260.388 38.4858C259.417 38.9549 258.346 39.1895 257.174 39.1895C255.801 39.1895 254.713 38.8879 253.91 38.2847C253.14 37.7151 252.554 36.9946 252.152 36.1234C251.784 35.2522 251.566 34.2972 251.499 33.2584C251.399 32.2196 251.348 31.2478 251.348 30.3431C251.348 29.7064 251.432 29.0027 251.6 28.232C251.733 27.4613 251.934 26.6738 252.202 25.8696C252.47 25.0654 252.805 24.2612 253.207 23.457C253.642 22.6527 254.144 21.9155 254.713 21.2454C254.914 20.6757 255.215 20.1731 255.617 19.7374C256.052 19.3018 256.538 18.95 257.073 18.6819C257.642 18.3803 258.245 18.1625 258.881 18.0285C259.517 17.8609 260.137 17.7772 260.739 17.7772C260.84 17.7772 260.923 17.7939 260.99 17.8274C261.091 17.8609 261.191 17.8944 261.292 17.928C261.727 17.9615 262.263 18.129 262.899 18.4306C263.568 18.7322 264.204 19.1845 264.807 19.7877C265.443 20.3909 265.979 21.1616 266.414 22.0998C266.849 23.0046 267.067 24.1104 267.067 25.4172C267.067 25.6853 267.05 26.0204 267.017 26.4225C266.983 26.7911 266.95 27.1095 266.916 27.3775C267.686 27.0759 268.49 26.7073 269.327 26.2717C270.164 25.8361 270.967 25.3837 271.737 24.9146C272.541 24.412 273.277 23.9093 273.947 23.4067C274.616 22.9041 275.152 22.4517 275.554 22.0496C275.888 21.748 276.173 21.5804 276.407 21.5469C276.642 21.5134 276.809 21.5804 276.91 21.748C277.01 21.9155 277.027 22.1501 276.96 22.4517C276.893 22.7533 276.709 23.0884 276.407 23.457C276.24 23.658 275.805 24.0601 275.102 24.6633C274.432 25.2665 273.629 25.9199 272.691 26.6236C271.754 27.3273 270.733 28.0142 269.628 28.6844C268.523 29.3546 267.469 29.8572 266.464 30.1923ZM257.977 22.5522C257.877 22.8538 257.827 23.1721 257.827 23.5072C257.827 24.0434 257.86 24.613 257.927 25.2162C257.994 25.7858 258.161 26.3052 258.429 26.7744C258.697 27.2435 259.116 27.6456 259.685 27.9807C260.287 28.2823 261.108 28.4331 262.145 28.4331C262.313 28.4331 262.48 28.4331 262.648 28.4331C262.815 28.3996 262.982 28.366 263.15 28.3325C263.25 27.8969 263.334 27.5116 263.401 27.1765C263.501 26.8079 263.552 26.4895 263.552 26.2215C263.618 25.5848 263.618 24.9314 263.552 24.2612C263.485 23.591 263.351 22.9878 263.15 22.4517C262.982 21.882 262.748 21.4297 262.447 21.0946C262.179 20.726 261.844 20.5417 261.442 20.5417C260.806 20.5417 260.187 20.726 259.584 21.0946C259.015 21.4297 258.479 21.9155 257.977 22.5522ZM254.763 31.3986C254.763 32.0018 254.797 32.6049 254.864 33.2081C254.931 33.7778 255.065 34.2972 255.266 34.7663C255.466 35.2019 255.734 35.5705 256.069 35.8721C256.404 36.1402 256.839 36.2742 257.375 36.2742C257.977 36.2742 258.53 36.1402 259.032 35.8721C259.534 35.5705 259.986 35.2019 260.388 34.7663C260.79 34.2972 261.141 33.7778 261.442 33.2081C261.777 32.6049 262.062 31.985 262.296 31.3484C262.062 31.3819 261.827 31.4154 261.593 31.4489C261.392 31.4489 261.158 31.4489 260.89 31.4489C259.618 31.4489 258.513 31.0803 257.576 30.3431C256.672 29.5724 255.969 28.6006 255.466 27.4278C255.266 28.1315 255.098 28.8184 254.964 29.4886C254.83 30.1588 254.763 30.7955 254.763 31.3986Z" fill="white"/>
</svg>
