<svg width="139" height="48" viewBox="0 0 139 48" fill="none" xmlns="http://www.w3.org/2000/svg">
<g id="Group 749">
<g id="Crown Play">
<path id="Vector" d="M125.73 34.0977C126.419 34.1293 127.003 34.1546 127.483 34.1736C127.963 34.1863 128.389 34.1926 128.761 34.1926C129.033 34.1926 129.377 34.1863 129.794 34.1736C130.211 34.1546 130.785 34.1293 131.518 34.0977V34.9523C131.095 34.9523 130.785 34.9903 130.59 35.0663C130.394 35.1359 130.296 35.253 130.296 35.4176C130.296 35.6456 130.422 35.9874 130.675 36.4432C130.744 36.5699 130.798 36.668 130.836 36.7376L132.929 40.4887L133.564 39.3871C134.902 37.0573 135.572 35.7532 135.572 35.4746C135.572 35.291 135.499 35.1581 135.354 35.0758C135.209 34.9935 134.981 34.9523 134.672 34.9523H134.464V34.0977C135.019 34.1293 135.471 34.1546 135.818 34.1736C136.172 34.1863 136.468 34.1926 136.708 34.1926C136.961 34.1926 137.267 34.1863 137.627 34.1736C137.993 34.1546 138.451 34.1293 139.001 34.0977V34.9238C138.975 34.9238 138.947 34.9238 138.915 34.9238C138.884 34.9175 138.836 34.9143 138.773 34.9143C138.161 34.9143 137.425 35.6171 136.566 37.0225C136.377 37.3454 136.225 37.5955 136.112 37.7727L133.573 41.8561L133.592 44.8949C133.605 45.7053 133.706 46.2276 133.895 46.4618C134.085 46.6961 134.454 46.8132 135.003 46.8132C135.041 46.8132 135.104 46.81 135.193 46.8037C135.281 46.7974 135.348 46.7942 135.392 46.7942V47.6489C134.697 47.6109 134.078 47.5824 133.535 47.5634C132.992 47.5444 132.531 47.5349 132.152 47.5349C131.811 47.5349 131.129 47.5571 130.106 47.6014C129.677 47.6204 129.339 47.6362 129.093 47.6489V46.7942C129.144 46.7942 129.213 46.7974 129.301 46.8037C129.396 46.81 129.462 46.8132 129.5 46.8132C130.056 46.8132 130.432 46.6898 130.627 46.4428C130.83 46.1959 130.937 45.6926 130.949 44.9329L130.968 41.9321L127.805 36.6237C127.761 36.5477 127.694 36.4369 127.606 36.2913C127.057 35.386 126.523 34.9333 126.005 34.9333C125.936 34.9333 125.879 34.9365 125.835 34.9428C125.797 34.9428 125.762 34.9428 125.73 34.9428V34.0977Z" fill="white"/>
<path id="Vector_2" d="M119.013 36.3104L116.948 41.5618C117.188 41.5681 117.44 41.5745 117.706 41.5808C117.977 41.5808 118.337 41.5808 118.785 41.5808C119.303 41.5808 119.707 41.5808 119.998 41.5808C120.288 41.5745 120.56 41.5681 120.812 41.5618L119.013 36.3104ZM118.492 34.0312H120.803C121.712 36.7029 122.577 39.1593 123.398 41.4004C124.225 43.6352 124.803 45.1229 125.132 45.8636C125.271 46.1992 125.444 46.4397 125.653 46.5854C125.867 46.7246 126.151 46.7943 126.505 46.7943H126.713V47.6489C125.911 47.611 125.296 47.5856 124.866 47.573C124.437 47.5603 124.077 47.554 123.787 47.554C123.509 47.554 123.149 47.5603 122.707 47.573C122.265 47.5856 121.624 47.611 120.784 47.6489V46.7943H120.955C121.453 46.7943 121.791 46.7373 121.968 46.6233C122.145 46.5094 122.233 46.3068 122.233 46.0156C122.233 45.9269 122.221 45.8225 122.195 45.7022C122.176 45.5819 122.132 45.4141 122.063 45.1989L121.286 42.9008C120.926 42.8945 120.453 42.8881 119.865 42.8818C119.278 42.8691 118.912 42.8628 118.767 42.8628C118.495 42.8628 117.949 42.8723 117.128 42.8913C116.831 42.8976 116.601 42.9008 116.436 42.9008L116.399 42.9958C115.78 44.5088 115.47 45.4648 115.47 45.8636C115.47 46.1928 115.562 46.4303 115.745 46.5759C115.934 46.7215 116.244 46.7943 116.673 46.7943H116.844V47.6489C116.124 47.611 115.565 47.5856 115.167 47.573C114.769 47.5603 114.441 47.554 114.182 47.554C113.967 47.554 113.683 47.5603 113.33 47.573C112.982 47.5856 112.474 47.611 111.805 47.6489V46.7943C112.259 46.7943 112.622 46.7151 112.894 46.5569C113.165 46.3986 113.396 46.1327 113.585 45.7592C113.857 45.2654 114.469 43.8852 115.423 41.6188C116.376 39.3523 117.399 36.8232 118.492 34.0312Z" fill="white"/>
<path id="Vector_3" d="M100.743 34.0977C101.28 34.1293 101.785 34.1546 102.258 34.1736C102.738 34.1863 103.165 34.1926 103.537 34.1926C103.922 34.1926 104.352 34.1863 104.825 34.1736C105.305 34.1546 105.858 34.1293 106.483 34.0977V34.9523C106.445 34.9523 106.391 34.9492 106.322 34.9428C106.252 34.9365 106.205 34.9333 106.18 34.9333C105.649 34.9333 105.289 35.0916 105.1 35.4081C104.911 35.7247 104.816 36.4401 104.816 37.5543C104.816 37.7189 104.819 38.0165 104.825 38.447C104.832 38.8775 104.835 39.2288 104.835 39.5011L104.854 46.1675L104.911 46.177C105.725 46.2276 106.341 46.2529 106.758 46.2529C108.343 46.2529 109.381 46.0883 109.874 45.7591C110.366 45.4299 110.771 44.8032 111.086 43.8788L111.958 44.1447C111.762 44.7209 111.585 45.3001 111.427 45.8826C111.276 46.465 111.143 47.0538 111.029 47.6489C109.912 47.6109 108.873 47.5824 107.913 47.5634C106.953 47.5444 106.076 47.5349 105.28 47.5349C104.491 47.5349 103.695 47.5444 102.893 47.5634C102.097 47.5824 101.305 47.6109 100.516 47.6489V46.8132H100.781C101.122 46.8132 101.384 46.7784 101.567 46.7087C101.75 46.6391 101.883 46.5251 101.965 46.3669C102.142 46.0187 102.236 44.7177 102.249 42.4639C102.255 42.1727 102.258 41.9511 102.258 41.7992L102.277 39.729C102.277 39.4504 102.281 39.0864 102.287 38.6369C102.293 38.1811 102.296 37.8645 102.296 37.6873C102.296 36.5477 102.202 35.8038 102.012 35.4556C101.829 35.1074 101.479 34.9333 100.961 34.9333H100.743V34.0977Z" fill="white"/>
<path id="Vector_4" d="M92.1815 40.9916C92.4151 41.0296 92.6298 41.0581 92.8256 41.0771C93.0277 41.0897 93.2139 41.0961 93.3844 41.0961C94.4832 41.0961 95.323 40.846 95.9039 40.3459C96.4849 39.8394 96.7754 39.1177 96.7754 38.1807C96.7754 37.307 96.5007 36.6201 95.9513 36.12C95.4019 35.6135 94.6505 35.3603 93.697 35.3603C93.476 35.3603 93.2487 35.3698 93.015 35.3888C92.7877 35.4078 92.5225 35.4426 92.2194 35.4932C92.2068 36.2846 92.1973 37.0855 92.191 37.8958C92.1847 38.7062 92.1815 39.7381 92.1815 40.9916ZM87.957 46.8128C88.0139 46.8192 88.0707 46.8255 88.1275 46.8318C88.1844 46.8318 88.2696 46.8318 88.3833 46.8318C88.8884 46.8318 89.2294 46.6767 89.4062 46.3665C89.5894 46.0563 89.6809 45.3441 89.6809 44.2298V43.4132C89.6809 43.0333 89.6778 42.7389 89.6714 42.53C89.6651 42.3211 89.6557 42.1217 89.643 41.9317L89.6241 39.6336V36.2909C89.6241 35.8035 89.5231 35.4553 89.321 35.2463C89.1189 35.0374 88.7842 34.933 88.317 34.933H88.1275V34.0498C88.6453 34.0941 89.1221 34.1258 89.5578 34.1448C89.9998 34.1638 90.4103 34.1733 90.7891 34.1733C91.3764 34.1733 92.0457 34.1543 92.7972 34.1163C93.5549 34.072 94.0096 34.0498 94.1611 34.0498C95.784 34.0498 97.0595 34.4075 97.9878 35.1229C98.916 35.8383 99.3801 36.8101 99.3801 38.0383C99.3801 39.3297 98.9002 40.3553 97.9404 41.1151C96.9806 41.8684 95.664 42.2451 93.9906 42.2451C93.7128 42.2451 93.2171 42.2135 92.5035 42.1501C92.3646 42.1375 92.2636 42.128 92.2004 42.1217V44.4767C92.2004 45.5087 92.2983 46.1544 92.4941 46.414C92.6961 46.6672 93.0971 46.7938 93.697 46.7938H94.0285V47.6485C93.4034 47.6105 92.8193 47.582 92.2762 47.563C91.7332 47.544 91.2311 47.5346 90.7702 47.5346C90.5681 47.5346 90.2334 47.544 89.7662 47.563C89.2989 47.582 88.6958 47.6105 87.957 47.6485V46.8128Z" fill="white"/>
<path id="Vector_5" d="M65.6479 34.1162C65.8878 34.1225 66.2635 34.1415 66.775 34.1732C67.2928 34.1985 67.6622 34.2112 67.8832 34.2112C68.079 34.2112 68.42 34.1985 68.9062 34.1732C69.3987 34.1415 69.7618 34.1225 69.9954 34.1162C70.0839 34.3505 70.2133 34.6005 70.3838 34.8664C70.5543 35.126 70.7785 35.4204 71.0563 35.7496L78.0181 43.9829C78.0118 43.1599 78.0024 42.0614 77.9897 40.6877C77.9645 37.6678 77.9171 36.0186 77.8476 35.7401C77.7592 35.4362 77.6203 35.2304 77.4309 35.1228C77.2414 35.0089 76.9289 34.9519 76.4932 34.9519H76.1806V34.1162C76.8689 34.1479 77.393 34.1732 77.7529 34.1922C78.1129 34.2048 78.4096 34.2112 78.6433 34.2112C78.9211 34.2112 79.2558 34.2048 79.6473 34.1922C80.0388 34.1732 80.5313 34.1479 81.1249 34.1162V34.9519H80.9544C80.5503 34.9519 80.2535 34.9994 80.0641 35.0943C79.8746 35.183 79.7389 35.3412 79.6568 35.5691C79.5557 35.873 79.4831 37.3006 79.4389 39.852V40.0039L79.401 42.0646C79.3884 42.856 79.3789 43.5998 79.3726 44.2962C79.3663 44.9863 79.3631 45.5656 79.3631 46.0341C79.3631 46.3443 79.3726 46.645 79.3916 46.9362C79.4168 47.2274 79.4516 47.5092 79.4958 47.7814H77.6393C77.5635 47.6231 77.453 47.4427 77.3077 47.2401C77.1625 47.0375 76.8847 46.6925 76.4742 46.205L68.8304 37.2405C68.8304 40.235 68.8462 42.3843 68.8778 43.6885C68.9093 44.9863 68.9567 45.7523 69.0198 45.9866C69.1082 46.2905 69.2472 46.5026 69.4366 46.6228C69.6324 46.7368 69.9481 46.7938 70.3838 46.7938H70.6774V47.6484C69.9576 47.6105 69.4113 47.5851 69.0388 47.5725C68.6725 47.5598 68.3694 47.5535 68.1295 47.5535C67.9274 47.5535 67.6496 47.5598 67.296 47.5725C66.9487 47.5851 66.393 47.6105 65.6289 47.6484V46.7938C65.6794 46.8001 65.7299 46.8064 65.7805 46.8128C65.8373 46.8128 65.9162 46.8128 66.0173 46.8128C66.9202 46.8128 67.3812 45.5687 67.4001 43.0807C67.4065 42.5299 67.4096 42.1026 67.4096 41.7987L67.438 39.776C67.438 39.3645 67.4444 38.7757 67.457 38.0097C67.4696 37.2373 67.4759 36.7435 67.4759 36.5283C67.4759 35.9142 67.3686 35.4963 67.1539 35.2748C66.9392 35.0468 66.554 34.9329 65.9983 34.9329C65.9604 34.9329 65.9004 34.9361 65.8183 34.9424C65.7426 34.9487 65.6857 34.9519 65.6479 34.9519V34.1162Z" fill="white"/>
<path id="Vector_6" d="M51.601 44.5911L54.2247 37.9247L53.6753 36.2153C53.5111 35.6899 53.3407 35.3448 53.1638 35.1802C52.987 35.0156 52.725 34.9333 52.3777 34.9333C52.3335 34.9333 52.2703 34.9365 52.1882 34.9428C52.1061 34.9492 52.0462 34.9523 52.0083 34.9523V34.0977C52.1156 34.0977 52.2766 34.104 52.4913 34.1166C53.6153 34.18 54.392 34.2116 54.8214 34.2116C55.1119 34.2116 55.4781 34.2021 55.9202 34.1831C56.3685 34.1641 56.9021 34.1356 57.5209 34.0977V34.9523C57.4704 34.9523 57.4041 34.9492 57.322 34.9428C57.2462 34.9365 57.1894 34.9333 57.1515 34.9333C56.7853 34.9333 56.5264 34.9903 56.3748 35.1043C56.2296 35.2182 56.157 35.4208 56.157 35.712C56.157 35.8513 56.1917 36.0539 56.2612 36.3198C56.3306 36.5857 56.438 36.9465 56.5832 37.4024L58.8754 44.5721L59.3963 43.0717C60.9371 38.6527 61.7075 36.2058 61.7075 35.731C61.7075 35.4461 61.6254 35.2467 61.4612 35.1328C61.3034 35.0125 61.016 34.9523 60.5993 34.9523H60.3341V34.0977C60.473 34.104 60.6656 34.1135 60.9118 34.1261C61.7959 34.1831 62.3989 34.2116 62.721 34.2116C63.0241 34.2116 63.6145 34.1831 64.4922 34.1261C64.7448 34.1135 64.9406 34.104 65.0795 34.0977V34.9523C65.0542 34.946 65.0195 34.9428 64.9753 34.9428C64.9311 34.9365 64.8711 34.9333 64.7953 34.9333C64.1197 34.9333 63.4124 35.9969 62.6736 38.1241C62.3895 38.9344 62.159 39.5802 61.9822 40.0613L61.1676 42.2075C61.0729 42.4417 60.9371 42.7899 60.7603 43.2521C59.9457 45.3793 59.4153 46.8892 59.169 47.7818H57.3788C57.3157 47.5033 57.2431 47.2215 57.161 46.9367C57.0852 46.6518 56.9842 46.3257 56.8579 45.9585L54.8593 39.9284L52.5292 45.8161C52.3398 46.2909 52.1977 46.6708 52.103 46.9556C52.0146 47.2405 51.9388 47.5159 51.8757 47.7818H50.0855C50.0097 47.3577 49.5108 45.8667 48.5889 43.3091L48.2669 42.4164L47.3102 39.7764C47.165 39.3523 46.9724 38.7825 46.7324 38.0671C46.0252 35.9653 45.3527 34.9143 44.7149 34.9143C44.6581 34.9143 44.5697 34.9238 44.4497 34.9428C44.4308 34.9428 44.415 34.946 44.4023 34.9523V34.0977C45.0401 34.1356 45.5832 34.1641 46.0315 34.1831C46.4798 34.2021 46.8429 34.2116 47.1208 34.2116C47.4428 34.2116 48.0743 34.1863 49.0152 34.1356C49.3625 34.1166 49.6308 34.104 49.8203 34.0977V34.9523H49.6024C49.2804 34.9523 49.0404 35.0125 48.8825 35.1328C48.731 35.2467 48.6552 35.424 48.6552 35.6645C48.6552 35.8798 48.7847 36.3546 49.0436 37.089L49.0625 37.146L51.601 44.5911Z" fill="white"/>
<path id="Vector_7" d="M40.531 41.1152C40.531 39.3236 40.1174 37.8833 39.2902 36.7944C38.463 35.7055 37.3769 35.161 36.0318 35.161C34.7437 35.161 33.7144 35.6454 32.944 36.614C32.1799 37.5826 31.7979 38.8931 31.7979 40.5454C31.7979 42.3497 32.2147 43.7995 33.0482 44.8948C33.888 45.99 34.9773 46.5376 36.316 46.5376C37.6105 46.5376 38.6366 46.0533 39.3944 45.0847C40.1521 44.1161 40.531 42.7929 40.531 41.1152ZM36.1834 33.7461C37.1874 33.7461 38.0841 33.8854 38.8734 34.1639C39.6627 34.4362 40.3889 34.8603 41.0519 35.4364C41.8223 36.1075 42.4159 36.9084 42.8327 37.839C43.2494 38.7633 43.4578 39.7446 43.4578 40.7829C43.4578 42.8467 42.76 44.5655 41.3645 45.9393C39.969 47.3131 38.223 48 36.1266 48C35.0341 48 34.0459 47.8228 33.1619 47.4682C32.2778 47.1074 31.4948 46.5724 30.8128 45.8634C30.1814 45.1986 29.6983 44.4421 29.3636 43.5938C29.0353 42.7391 28.8711 41.8338 28.8711 40.8778C28.8711 39.8206 29.0763 38.8393 29.4868 37.934C29.9035 37.0223 30.5066 36.2278 31.2959 35.5504C31.9526 34.9806 32.7104 34.5375 33.5692 34.2209C34.4279 33.9044 35.2994 33.7461 36.1834 33.7461Z" fill="white"/>
<path id="Vector_8" d="M18.2981 40.821C18.6328 40.84 18.9169 40.8559 19.1506 40.8685C19.3842 40.8748 19.58 40.878 19.7378 40.878C19.9336 40.878 20.142 40.8748 20.363 40.8685C20.584 40.8559 20.8145 40.84 21.0544 40.821C21.6038 40.4665 22.0048 40.0645 22.2573 39.615C22.5162 39.1592 22.6457 38.6274 22.6457 38.0196C22.6457 37.2283 22.3773 36.5889 21.8406 36.1014C21.3102 35.6076 20.6029 35.3607 19.7189 35.3607C19.4474 35.3607 19.1979 35.3702 18.9706 35.3892C18.7496 35.4081 18.5317 35.4366 18.317 35.4746C18.3107 36.1647 18.3044 36.8864 18.2981 37.6398C18.2981 38.3931 18.2981 39.4536 18.2981 40.821ZM14.0547 46.8132C14.1052 46.8195 14.1526 46.8259 14.1968 46.8322C14.2473 46.8322 14.3231 46.8322 14.4241 46.8322C14.9419 46.8322 15.2892 46.6613 15.466 46.3194C15.6491 45.9775 15.7407 45.0722 15.7407 43.6035V42.9007V42.2455V41.8941L15.7786 39.7669C15.7849 39.3175 15.788 38.8711 15.788 38.428C15.7944 37.9848 15.7975 37.453 15.7975 36.8326C15.7975 36.0349 15.6996 35.5189 15.5039 35.2847C15.3144 35.0505 14.9545 34.9333 14.4241 34.9333H14.2252V34.0977C14.9008 34.1293 15.4597 34.1546 15.9017 34.1736C16.3437 34.1863 16.7289 34.1926 17.0573 34.1926C17.5246 34.1926 18.1055 34.1768 18.8001 34.1451C19.4947 34.1135 19.962 34.0977 20.2019 34.0977C21.768 34.0977 23.0025 34.4237 23.9055 35.0758C24.8084 35.7279 25.2599 36.6142 25.2599 37.7347C25.2599 38.4818 25.0326 39.1402 24.578 39.71C24.1296 40.2797 23.454 40.7672 22.551 41.1724L24.4075 43.7934C25.2915 45.1735 25.9356 46.0408 26.3397 46.3954C26.7502 46.7499 27.1859 46.9272 27.6469 46.9272C27.6721 46.9272 27.7068 46.924 27.751 46.9177C27.8016 46.9113 27.8394 46.9082 27.8647 46.9082V47.7059C27.4795 47.7375 27.1448 47.7597 26.8607 47.7723C26.5765 47.7913 26.3271 47.8008 26.1124 47.8008C25.342 47.8008 24.739 47.7154 24.3033 47.5444C23.8676 47.3735 23.4761 47.0791 23.1288 46.6613C22.9646 46.465 22.5604 45.8351 21.9164 44.7715C21.2723 43.7016 20.7071 42.7868 20.2209 42.0271C19.8294 42.0397 19.4821 42.0492 19.179 42.0556C18.8759 42.0619 18.5823 42.0651 18.2981 42.0651V44.5911C18.2981 45.5597 18.3928 46.1706 18.5823 46.4239C18.7717 46.6708 19.1443 46.7942 19.6999 46.7942H19.9651V47.6489C19.4474 47.6172 18.9296 47.5951 18.4118 47.5824C17.894 47.5634 17.3635 47.5539 16.8205 47.5539C16.6437 47.5539 16.3816 47.5602 16.0343 47.5729C15.6933 47.5792 15.0334 47.6046 14.0547 47.6489V46.8132Z" fill="white"/>
<path id="Vector_9" d="M12.2187 34.5629C12.2187 34.6262 12.2156 34.7275 12.2093 34.8668C12.203 34.9997 12.1998 35.0978 12.1998 35.1611C12.1998 35.5853 12.2187 36.0348 12.2566 36.5096C12.2945 36.9844 12.3545 37.5067 12.4366 38.0765L11.4989 38.2379C11.3978 37.2946 10.9969 36.5634 10.2959 36.0443C9.59503 35.5188 8.66994 35.2561 7.52068 35.2561C6.0557 35.2561 4.91907 35.7151 4.1108 36.6331C3.30885 37.5447 2.90787 38.8362 2.90787 40.5076C2.90787 42.3119 3.36252 43.749 4.27182 44.8189C5.18744 45.8888 6.40931 46.4238 7.93744 46.4238C8.89726 46.4238 9.715 46.2053 10.3907 45.7685C11.0726 45.3317 11.6252 44.6669 12.0482 43.7743L12.8818 44.1636C12.6292 44.6638 12.4082 45.1544 12.2187 45.6356C12.0293 46.1104 11.8683 46.582 11.7357 47.0505C10.9716 47.3607 10.2233 47.595 9.49084 47.7532C8.76466 47.9178 8.06374 48.0001 7.38807 48.0001C5.1906 48.0001 3.40988 47.3481 2.04593 46.0439C0.681976 44.7397 0 43.0367 0 40.9349C0 38.8584 0.713549 37.149 2.14065 35.8069C3.57406 34.4584 5.38951 33.7842 7.58698 33.7842C8.37631 33.7842 9.14985 33.8475 9.9076 33.9741C10.6717 34.1007 11.442 34.297 12.2187 34.5629Z" fill="white"/>
</g>
<g id="Vector_10">
<path d="M32.5239 5.01831C33.1081 5.72288 33.7084 6.41585 34.2751 7.13297C36.5317 9.98936 38.2635 13.1356 39.8275 16.3728C41.5233 19.8831 42.9347 23.4905 43.8271 27.2675C44.2665 29.1276 44.6563 31.0003 44.9931 32.8795C45.1185 33.5789 45.5564 33.6528 46.2529 33.4456C46.3438 33.4187 46.424 33.3555 46.5066 33.3054C48.7341 31.951 51.1385 30.9534 53.6737 30.2957C56.2992 29.6148 58.9593 29.0514 61.6159 28.4871C63.8619 28.0101 66.1414 27.8123 68.4467 27.9433C68.643 27.9544 68.8462 27.8546 69.0367 27.809C69.2642 27.8518 69.5067 27.9451 69.7444 27.9349C71.4338 27.8615 73.1184 27.9173 74.7816 28.201C76.439 28.4834 78.0847 28.8281 79.7319 29.1629C81.8534 29.5944 83.9609 30.0821 86.011 30.7648C87.8846 31.3886 89.68 32.1782 91.3714 33.1758C91.5382 33.2743 91.6966 33.4071 91.8784 33.4563C92.6915 33.6755 92.988 33.5153 93.111 32.8521C93.475 30.8823 93.8837 28.9182 94.3513 26.9688C95.231 23.3052 96.623 19.8088 98.26 16.3974C100.237 12.2768 102.547 8.35355 105.673 4.91056C105.737 4.83996 105.801 4.76611 105.846 4.68437C105.952 4.48744 105.989 4.25846 105.792 4.12145C105.656 4.02716 105.442 4.02205 105.261 4.01091C105.174 4.0058 105.081 4.07733 104.993 4.11773C103.916 4.61145 102.83 5.08658 101.768 5.60677C101.02 5.97229 100.264 6.34433 99.5859 6.81111C98.4705 7.57885 97.9533 8.65591 98.1297 9.98378C98.1924 10.4566 98.3222 10.9215 98.4228 11.3971C98.0073 11.4682 97.5781 11.51 97.1684 11.6173C96.12 11.8918 95.2286 12.4152 94.5593 13.2475C94.3674 13.4862 94.1875 13.7458 94.361 14.0705C94.5307 14.3882 94.834 14.4263 95.163 14.4198C95.9596 14.4035 96.7086 14.2057 97.4313 13.8968C97.5791 13.8336 97.7336 13.7849 97.9178 13.7175C97.9013 13.8225 97.9052 13.8634 97.8882 13.8931C97.8216 14.0073 97.7502 14.1197 97.6773 14.2303C96.556 15.9279 95.1708 17.39 93.4779 18.5864C92.5958 19.2102 91.7321 19.8576 90.8708 20.5078C90.5204 20.7726 90.1996 21.0726 89.8443 21.374C89.7 21.1269 89.5649 20.9203 89.454 20.7024C88.8873 19.5915 88.29 18.4935 87.7767 17.3602C87.3889 16.5042 87.1177 15.5999 86.7813 14.7217C86.6462 14.3687 86.7259 14.1044 87.0521 13.8991C87.1332 13.848 87.1969 13.7714 87.2786 13.7203C88.186 13.15 88.3527 12.2842 88.255 11.3525C88.1738 10.5778 87.2917 10.1923 86.6175 10.634C86.3424 10.8142 86.0878 11.1054 85.9677 11.3999C85.7937 11.8272 85.7184 12.2995 85.661 12.7593C85.6129 13.1444 85.6513 13.5387 85.6513 13.9247C84.5806 14.7765 83.4525 15.5252 82.2189 16.1071C80.2695 17.0263 78.2991 17.9041 76.3365 18.7972C76.3049 18.8116 76.2602 18.7991 76.179 18.7991C73.7935 16.7211 71.7118 14.3747 69.9772 11.5852C70.4482 11.7961 70.7762 11.9591 71.1174 12.0915C71.8266 12.3674 72.263 12.3539 72.4652 12.0255C72.7835 11.5077 72.4254 11.1045 72.1021 10.7752C71.6637 10.3284 71.1393 9.95917 70.6528 9.55556C70.487 9.41762 70.3247 9.27595 70.1604 9.13568C70.4375 8.83658 70.663 8.6025 70.8778 8.36052C71.7702 7.35498 72.0953 6.1892 71.6341 4.95282C71.0625 3.42199 70.3524 1.93805 69.6997 0.435077C69.67 0.366802 69.6248 0.302255 69.5762 0.244663C69.3138 -0.0660563 68.818 -0.0869664 68.5526 0.217251C68.4292 0.358909 68.3329 0.529832 68.2566 0.700286C67.7103 1.92273 67.1533 3.14098 66.6425 4.37689C66.4578 4.82416 66.3407 5.31045 66.2833 5.78883C66.1779 6.66851 66.503 7.44925 67.0537 8.14268C67.322 8.4808 67.6228 8.79571 67.9524 9.17052C67.7512 9.32008 67.5801 9.46406 67.3915 9.58343C66.748 9.99122 66.174 10.4682 65.7487 11.0906C65.5489 11.3827 65.3997 11.7069 65.6408 12.0316C65.8862 12.3618 66.2576 12.3283 66.6031 12.2136C66.9716 12.091 67.3239 11.9261 67.6841 11.7798C67.791 11.7362 67.8979 11.6939 68.1152 11.6066C66.3664 14.4026 64.2799 16.7574 61.8585 18.8446C59.89 17.9496 57.9697 17.1025 56.0747 16.2065C54.7556 15.5832 53.5313 14.8076 52.4571 13.9219C52.4571 13.5327 52.4766 13.1964 52.4518 12.8634C52.4255 12.5109 52.3867 12.1542 52.3006 11.8114C52.1893 11.3697 51.9886 10.9601 51.5842 10.6809C50.9076 10.2142 50.1008 10.4807 49.8651 11.2466C49.6192 12.0455 50.0163 13.1458 50.7302 13.6441C51.4734 14.1629 51.486 14.1908 51.2255 15.0296C50.5412 17.2334 49.4646 19.2705 48.3098 21.2737C48.2952 21.2988 48.2427 21.3034 48.2714 21.2918C47.0092 20.3536 45.7887 19.4173 44.5352 18.5223C42.8302 17.3054 41.4572 15.8104 40.3379 14.0919C40.264 13.9781 40.212 13.8518 40.1366 13.7054C40.6932 13.8977 41.1777 14.1077 41.6852 14.2284C42.1551 14.3404 42.6499 14.4035 43.1335 14.4035C43.7148 14.4035 43.9574 13.9614 43.6866 13.4616C43.5889 13.2819 43.448 13.1179 43.3007 12.9702C42.474 12.1416 41.4674 11.6428 40.2776 11.4881C40.0715 11.4612 39.8659 11.4278 39.6268 11.3925C39.7021 11.1746 39.7648 11.0019 39.8217 10.8272C40.3208 9.30428 39.9238 7.87702 38.6241 6.88867C38.0326 6.43907 37.3463 6.09027 36.6698 5.75911C35.4853 5.17947 34.2751 4.64814 33.0751 4.09776C32.9866 4.05736 32.8904 3.98351 32.8068 3.99373C32.625 4.01602 32.3834 4.03227 32.2886 4.14467C32.1944 4.2566 32.2099 4.49254 32.2512 4.65742C32.2843 4.79212 32.4267 4.90127 32.5239 5.01831ZM99.7205 7.85054C100.018 7.55933 100.36 7.28391 100.732 7.09256C101.676 6.60813 102.648 6.17527 103.719 5.66994C102.331 7.69124 101.026 9.59179 99.7225 11.4895C98.7227 10.4775 98.7042 8.84447 99.7205 7.85054ZM95.6267 13.4788C96.3339 12.7222 97.2525 12.404 98.2814 12.3311C97.5139 12.9763 96.6386 13.3743 95.6267 13.4788ZM64.817 27.1569C63.6957 27.2475 62.5836 27.4421 61.3588 27.6056C61.5353 27.1555 61.6529 26.764 61.8366 26.4031C62.3202 25.4538 63.0031 24.6326 63.7389 23.8528C64.2342 23.3285 64.7494 22.8213 65.2981 22.2635C66.6561 23.6629 67.5665 25.2443 68.2644 27.0464C67.0659 27.0808 65.9368 27.0664 64.817 27.1569ZM69.0469 26.5434C68.2775 24.7028 67.3346 23.1004 65.9708 21.6755C66.9123 20.7424 68.0418 20.0313 69.026 19.0885C70.0754 19.9454 71.1072 20.7884 72.1571 21.6457C70.7772 23.0772 69.8362 24.7051 69.0469 26.5434ZM69.8173 27.1045C70.523 25.2429 71.4562 23.6717 72.8035 22.2556C74.3491 23.876 76.0667 25.3251 76.7355 27.6344C74.4356 27.2141 72.2095 26.9879 69.8173 27.1045ZM91.578 21.0689C92.449 20.4015 93.3438 19.7624 94.2313 19.1149C95.2933 18.3398 96.2673 17.4759 97.1572 16.5056C95.2048 20.7182 93.7258 25.0604 92.7809 29.5767C92.6055 28.2902 92.3931 27.0181 91.9173 25.81C91.4424 24.6038 90.9068 23.419 90.3576 22.1311C90.7158 21.8167 91.1245 21.4163 91.578 21.0689ZM89.6329 22.8807C91.2796 25.8755 92.1909 28.9251 91.7297 32.3653C89.909 31.3384 88.081 30.5433 86.167 29.9005C86.0387 29.3454 86.1767 28.8206 86.3215 28.3C86.7779 26.6628 87.6611 25.2388 88.7396 23.9146C89.0113 23.5816 89.3024 23.2625 89.6329 22.8807ZM86.8406 11.6433C86.915 11.5197 87.0914 11.4524 87.2207 11.359C87.2849 11.4993 87.4127 11.6437 87.4025 11.7789C87.3607 12.3386 87.125 12.8039 86.5305 13.1114C86.5233 12.5699 86.5762 12.0822 86.8406 11.6433ZM85.5488 16.8563C85.594 18.0894 85.6455 19.3258 85.313 20.5338C85.2046 20.9272 85.0258 21.3062 84.844 21.6764C84.7556 21.8566 84.6068 22.0224 84.4503 22.1576C84.0882 22.4711 83.7101 22.4339 83.4783 22.0192C83.3184 21.7326 83.2255 21.3926 83.1857 21.067C83.0923 20.309 83.2732 19.5808 83.558 18.8753C83.9901 17.8061 84.5835 16.8261 85.4613 15.926C85.4914 16.2363 85.5371 16.5456 85.5488 16.8563ZM83.8899 16.3017C83.8287 16.4151 83.7645 16.5521 83.6848 16.6798C83.0394 17.7169 82.5188 18.8014 82.3147 20.0034C82.2136 20.6003 82.2078 21.1985 82.3881 21.7841C82.4542 21.9983 82.5378 22.2128 82.653 22.4061C83.2299 23.3744 84.3657 23.5314 85.1517 22.7001C85.5099 22.3211 85.7801 21.8385 85.9847 21.3615C86.3599 20.4874 86.429 19.5455 86.4679 18.6096C86.4907 18.0513 86.4722 17.4917 86.4722 16.8215C87.3928 18.6328 88.2594 20.3383 89.1522 22.0953C87.4924 23.8742 86.0499 25.8393 85.3889 28.2837C85.316 28.221 85.245 28.1876 85.2187 28.1341C84.41 26.5002 83.2168 25.1305 81.8875 23.8793C80.3657 22.4469 78.7715 21.0851 77.2074 19.6941C77.1506 19.6435 77.082 19.6049 76.9328 19.5004C79.3173 18.4039 81.589 17.3598 83.8899 16.3017ZM78.0721 21.5807C79.6381 22.9142 81.1647 24.2866 82.5247 25.8175C83.3004 26.6906 84.0012 27.6135 84.48 28.6729C84.5796 28.8931 84.6642 29.1193 84.7876 29.4216C82.375 28.8782 80.0473 28.3538 77.7032 27.8258C77.6769 27.7621 77.6351 27.6966 77.623 27.6265C77.3484 26.0455 76.406 24.8091 75.3518 23.6373C74.7525 22.9713 74.1172 22.3345 73.4679 21.6532C74.2499 20.9491 75.1345 20.414 76.0954 19.911C76.7559 20.4679 77.4159 21.0224 78.0721 21.5807ZM75.307 19.2817C74.4735 19.8455 73.6351 20.4126 72.7636 21.0025C71.7682 20.1878 70.7524 19.3569 69.6963 18.493C70.5522 17.612 71.2866 16.7272 71.7551 15.6636C72.9639 16.8953 74.1328 18.0857 75.307 19.2817ZM71.1403 11.0576C71.1456 11.0636 71.1097 11.104 71.0542 11.1858C70.6275 10.8737 70.2056 10.5648 69.7837 10.2555C69.811 10.2207 69.8377 10.1858 69.8649 10.151C70.3714 10.3419 70.7816 10.6651 71.1403 11.0576ZM67.3818 4.98626C67.8824 3.768 68.4146 2.56135 68.9356 1.35052C68.9551 1.30593 69.0008 1.27156 69.0576 1.20468C69.1135 1.28132 69.1679 1.3338 69.1952 1.39697C69.7016 2.57296 70.2236 3.74292 70.7038 4.92867C71.3094 6.42468 70.6956 7.49663 69.4416 8.51936C69.1193 8.78224 68.9959 8.78039 68.6659 8.52029C67.3871 7.51057 66.8146 6.36615 67.3818 4.98626ZM66.9764 11.1073C67.288 10.6712 67.7162 10.3795 68.2314 10.1923C67.9247 10.6415 67.4863 10.9211 66.9764 11.1073ZM67.305 14.3343C67.8357 13.665 68.2882 12.9391 68.7723 12.2364C68.8549 12.1166 68.9342 11.9949 69.0455 11.8281C69.1791 12.0227 69.2831 12.176 69.3891 12.3279C69.8883 13.0436 70.3772 13.7663 70.8943 14.4699C71.0591 14.6943 71.0956 14.8796 70.9935 15.1388C70.5847 16.1749 69.9077 17.0286 69.0727 17.8409C68.314 17.1972 67.7541 16.4485 67.3162 15.6102C67.2724 15.5266 67.2447 15.4351 67.1981 15.3533C66.991 14.9892 67.0221 14.6906 67.305 14.3343ZM66.346 15.6627C66.8243 16.7109 67.5169 17.6106 68.3976 18.4577C67.4425 19.3848 66.3319 20.1191 65.3531 21.008C64.4996 20.4321 63.6578 19.8641 62.7994 19.2849C63.9611 18.0992 65.1411 16.8935 66.346 15.6627ZM62.0014 19.9129C62.937 20.3866 63.8138 20.9328 64.643 21.656C64.1929 22.119 63.7375 22.5468 63.3316 23.0145C62.6949 23.7479 62.0665 24.4905 61.4823 25.2624C60.9127 26.0144 60.5851 26.8773 60.4509 27.8118C58.0893 28.3455 55.7549 28.8731 53.3684 29.4123C53.4141 29.2498 53.4408 29.1095 53.4933 28.9785C53.9915 27.7357 54.8022 26.6827 55.699 25.6837C57.1444 24.073 58.7756 22.6425 60.4329 21.2375C60.9443 20.8037 61.458 20.3713 62.0014 19.9129ZM52.7424 15.8619C52.8868 16.0523 53.0365 16.239 53.175 16.4332C53.9721 17.552 54.6355 18.7299 54.8902 20.0819C54.9884 20.6021 55.002 21.1214 54.8236 21.6295C54.7687 21.7865 54.6924 21.9439 54.5918 22.0777C54.34 22.4112 54.0129 22.4636 53.6917 22.1854C53.4802 22.002 53.3067 21.7637 53.1667 21.5231C52.8304 20.9444 52.6987 20.303 52.6097 19.6528C52.4396 18.4062 52.4775 17.1619 52.7424 15.8619ZM50.7021 11.7171C50.7001 11.6052 50.7891 11.4914 50.8362 11.3785C50.9631 11.4371 51.1439 11.4631 51.208 11.5592C51.5064 12.0097 51.5978 12.5123 51.5302 13.1137C50.9485 12.7454 50.7123 12.2847 50.7021 11.7171ZM51.6357 16.8047C51.6357 17.1823 51.6406 17.5042 51.6347 17.8261C51.6177 18.7828 51.659 19.735 51.8909 20.6708C52.0644 21.3694 52.3064 22.0475 52.8338 22.5774C53.07 22.8143 53.3675 23.0345 53.6819 23.1524C54.3337 23.3958 55.0273 23.0995 55.4185 22.4488C55.8005 21.8139 55.9119 21.1223 55.8346 20.3926C55.6931 19.0578 55.1429 17.8688 54.4489 16.7272C54.3633 16.5864 54.2793 16.4443 54.185 16.2873C56.4917 17.3491 58.7688 18.3969 61.1323 19.4846C60.2356 20.2528 59.4026 20.9616 58.5753 21.6764C57.2514 22.8203 55.9843 24.0172 54.8348 25.3256C54.0387 26.2317 53.3368 27.195 52.7526 28.3891C52.0615 25.8811 50.6403 23.8974 48.9499 22.0981C49.8461 20.3332 50.7229 18.605 51.6357 16.8047ZM48.4473 22.9179C50.7385 25.1621 52.1845 28.3381 51.9551 29.8954C50.0469 30.5289 48.1912 31.3445 46.3749 32.3565C45.8966 28.9423 46.8211 25.8946 48.4473 22.9179ZM41.4261 16.9603C42.3938 18.0295 43.5588 18.8822 44.7263 19.7373C45.657 20.4191 46.545 21.1548 47.4481 21.8705C47.5662 21.9644 47.6614 22.0847 47.7956 22.2217C46.5363 24.5244 45.5763 26.9182 45.3372 29.5479C44.7899 27.3153 44.2796 25.0734 43.4869 22.9114C42.6932 20.7461 41.8096 18.611 40.9682 16.4689C41.1073 16.6176 41.2691 16.7866 41.4261 16.9603ZM42.5104 13.443C41.7138 13.4978 40.3588 12.9163 39.8086 12.2917C40.8497 12.3906 41.7483 12.7241 42.5104 13.443ZM37.7935 7.34522C39.1432 8.23976 39.3745 9.50725 38.873 10.7924C38.7694 11.0581 38.5682 11.2884 38.4117 11.536C37.0644 9.57413 35.7609 7.67637 34.4335 5.74424C35.5966 6.23192 36.7597 6.66016 37.7935 7.34522Z" fill="black"/>
<path d="M32.5239 5.01831C33.1081 5.72288 33.7084 6.41585 34.2751 7.13297C36.5317 9.98936 38.2635 13.1356 39.8275 16.3728C41.5233 19.8831 42.9347 23.4905 43.8271 27.2675C44.2665 29.1276 44.6563 31.0003 44.9931 32.8795C45.1185 33.5789 45.5564 33.6528 46.2529 33.4456C46.3438 33.4187 46.424 33.3555 46.5066 33.3054C48.7341 31.951 51.1385 30.9534 53.6737 30.2957C56.2992 29.6148 58.9593 29.0514 61.6159 28.4871C63.8619 28.0101 66.1414 27.8123 68.4467 27.9433C68.643 27.9544 68.8462 27.8546 69.0367 27.809C69.2642 27.8518 69.5067 27.9451 69.7444 27.9349C71.4338 27.8615 73.1184 27.9173 74.7816 28.201C76.439 28.4834 78.0847 28.8281 79.7319 29.1629C81.8534 29.5944 83.9609 30.0821 86.011 30.7648C87.8846 31.3886 89.68 32.1782 91.3714 33.1758C91.5382 33.2743 91.6966 33.4071 91.8784 33.4563C92.6915 33.6755 92.988 33.5153 93.111 32.8521C93.475 30.8823 93.8837 28.9182 94.3513 26.9688C95.231 23.3052 96.623 19.8088 98.26 16.3974C100.237 12.2768 102.547 8.35355 105.673 4.91056C105.737 4.83996 105.801 4.76611 105.846 4.68437C105.952 4.48744 105.989 4.25846 105.792 4.12145C105.656 4.02716 105.442 4.02205 105.261 4.01091C105.174 4.0058 105.081 4.07733 104.993 4.11773C103.916 4.61145 102.83 5.08658 101.768 5.60677C101.02 5.97229 100.264 6.34433 99.5859 6.81111C98.4705 7.57885 97.9533 8.65591 98.1297 9.98378C98.1924 10.4566 98.3222 10.9215 98.4228 11.3971C98.0073 11.4682 97.5781 11.51 97.1684 11.6173C96.12 11.8918 95.2286 12.4152 94.5593 13.2475C94.3674 13.4862 94.1875 13.7458 94.361 14.0705C94.5307 14.3882 94.834 14.4263 95.163 14.4198C95.9596 14.4035 96.7086 14.2057 97.4313 13.8968C97.5791 13.8336 97.7336 13.7849 97.9178 13.7175C97.9013 13.8225 97.9052 13.8634 97.8882 13.8931C97.8216 14.0073 97.7502 14.1197 97.6773 14.2303C96.556 15.9279 95.1708 17.39 93.4779 18.5864C92.5958 19.2102 91.7321 19.8576 90.8708 20.5078C90.5204 20.7726 90.1996 21.0726 89.8443 21.374C89.7 21.1269 89.5649 20.9203 89.454 20.7024C88.8873 19.5915 88.29 18.4935 87.7767 17.3602C87.3889 16.5042 87.1177 15.5999 86.7813 14.7217C86.6462 14.3687 86.7259 14.1044 87.0521 13.8991C87.1332 13.848 87.1969 13.7714 87.2786 13.7203C88.186 13.15 88.3527 12.2842 88.255 11.3525C88.1738 10.5778 87.2917 10.1923 86.6175 10.634C86.3424 10.8142 86.0878 11.1054 85.9677 11.3999C85.7937 11.8272 85.7184 12.2995 85.661 12.7593C85.6129 13.1444 85.6513 13.5387 85.6513 13.9247C84.5806 14.7765 83.4525 15.5252 82.2189 16.1071C80.2695 17.0263 78.2991 17.9041 76.3365 18.7972C76.3049 18.8116 76.2602 18.7991 76.179 18.7991C73.7935 16.7211 71.7118 14.3747 69.9772 11.5852C70.4482 11.7961 70.7762 11.9591 71.1174 12.0915C71.8266 12.3674 72.263 12.3539 72.4652 12.0255C72.7835 11.5077 72.4254 11.1045 72.1021 10.7752C71.6637 10.3284 71.1393 9.95917 70.6528 9.55556C70.487 9.41762 70.3247 9.27595 70.1604 9.13568C70.4375 8.83658 70.663 8.6025 70.8778 8.36052C71.7702 7.35498 72.0953 6.1892 71.6341 4.95282C71.0625 3.42199 70.3524 1.93805 69.6997 0.435077C69.67 0.366802 69.6248 0.302255 69.5762 0.244663C69.3138 -0.0660563 68.818 -0.0869664 68.5526 0.217251C68.4292 0.358909 68.3329 0.529832 68.2566 0.700286C67.7103 1.92273 67.1533 3.14098 66.6425 4.37689C66.4578 4.82416 66.3407 5.31045 66.2833 5.78883C66.1779 6.66851 66.503 7.44925 67.0537 8.14268C67.322 8.4808 67.6228 8.79571 67.9524 9.17052C67.7512 9.32008 67.5801 9.46406 67.3915 9.58343C66.748 9.99122 66.174 10.4682 65.7487 11.0906C65.5489 11.3827 65.3997 11.7069 65.6408 12.0316C65.8862 12.3618 66.2576 12.3283 66.6031 12.2136C66.9716 12.091 67.3239 11.9261 67.6841 11.7798C67.791 11.7362 67.8979 11.6939 68.1152 11.6066C66.3664 14.4026 64.2799 16.7574 61.8585 18.8446C59.89 17.9496 57.9697 17.1025 56.0747 16.2065C54.7556 15.5832 53.5313 14.8076 52.4571 13.9219C52.4571 13.5327 52.4766 13.1964 52.4518 12.8634C52.4255 12.5109 52.3867 12.1542 52.3006 11.8114C52.1893 11.3697 51.9886 10.9601 51.5842 10.6809C50.9076 10.2142 50.1008 10.4807 49.8651 11.2466C49.6192 12.0455 50.0163 13.1458 50.7302 13.6441C51.4734 14.1629 51.486 14.1908 51.2255 15.0296C50.5412 17.2334 49.4646 19.2705 48.3098 21.2737C48.2952 21.2988 48.2427 21.3034 48.2714 21.2918C47.0092 20.3536 45.7887 19.4173 44.5352 18.5223C42.8302 17.3054 41.4572 15.8104 40.3379 14.0919C40.264 13.9781 40.212 13.8518 40.1366 13.7054C40.6932 13.8977 41.1777 14.1077 41.6852 14.2284C42.1551 14.3404 42.6499 14.4035 43.1335 14.4035C43.7148 14.4035 43.9574 13.9614 43.6866 13.4616C43.5889 13.2819 43.448 13.1179 43.3007 12.9702C42.474 12.1416 41.4674 11.6428 40.2776 11.4881C40.0715 11.4612 39.8659 11.4278 39.6268 11.3925C39.7021 11.1746 39.7648 11.0019 39.8217 10.8272C40.3208 9.30428 39.9238 7.87702 38.6241 6.88867C38.0326 6.43907 37.3463 6.09027 36.6698 5.75911C35.4853 5.17947 34.2751 4.64814 33.0751 4.09776C32.9866 4.05736 32.8904 3.98351 32.8068 3.99373C32.625 4.01602 32.3834 4.03227 32.2886 4.14467C32.1944 4.2566 32.2099 4.49254 32.2512 4.65742C32.2843 4.79212 32.4267 4.90127 32.5239 5.01831ZM99.7205 7.85054C100.018 7.55933 100.36 7.28391 100.732 7.09256C101.676 6.60813 102.648 6.17527 103.719 5.66994C102.331 7.69124 101.026 9.59179 99.7225 11.4895C98.7227 10.4775 98.7042 8.84447 99.7205 7.85054ZM95.6267 13.4788C96.3339 12.7222 97.2525 12.404 98.2814 12.3311C97.5139 12.9763 96.6386 13.3743 95.6267 13.4788ZM64.817 27.1569C63.6957 27.2475 62.5836 27.4421 61.3588 27.6056C61.5353 27.1555 61.6529 26.764 61.8366 26.4031C62.3202 25.4538 63.0031 24.6326 63.7389 23.8528C64.2342 23.3285 64.7494 22.8213 65.2981 22.2635C66.6561 23.6629 67.5665 25.2443 68.2644 27.0464C67.0659 27.0808 65.9368 27.0664 64.817 27.1569ZM69.0469 26.5434C68.2775 24.7028 67.3346 23.1004 65.9708 21.6755C66.9123 20.7424 68.0418 20.0313 69.026 19.0885C70.0754 19.9454 71.1072 20.7884 72.1571 21.6457C70.7772 23.0772 69.8362 24.7051 69.0469 26.5434ZM69.8173 27.1045C70.523 25.2429 71.4562 23.6717 72.8035 22.2556C74.3491 23.876 76.0667 25.3251 76.7355 27.6344C74.4356 27.2141 72.2095 26.9879 69.8173 27.1045ZM91.578 21.0689C92.449 20.4015 93.3438 19.7624 94.2313 19.1149C95.2933 18.3398 96.2673 17.4759 97.1572 16.5056C95.2048 20.7182 93.7258 25.0604 92.7809 29.5767C92.6055 28.2902 92.3931 27.0181 91.9173 25.81C91.4424 24.6038 90.9068 23.419 90.3576 22.1311C90.7158 21.8167 91.1245 21.4163 91.578 21.0689ZM89.6329 22.8807C91.2796 25.8755 92.1909 28.9251 91.7297 32.3653C89.909 31.3384 88.081 30.5433 86.167 29.9005C86.0387 29.3454 86.1767 28.8206 86.3215 28.3C86.7779 26.6628 87.6611 25.2388 88.7396 23.9146C89.0113 23.5816 89.3024 23.2625 89.6329 22.8807ZM86.8406 11.6433C86.915 11.5197 87.0914 11.4524 87.2207 11.359C87.2849 11.4993 87.4127 11.6437 87.4025 11.7789C87.3607 12.3386 87.125 12.8039 86.5305 13.1114C86.5233 12.5699 86.5762 12.0822 86.8406 11.6433ZM85.5488 16.8563C85.594 18.0894 85.6455 19.3258 85.313 20.5338C85.2046 20.9272 85.0258 21.3062 84.844 21.6764C84.7556 21.8566 84.6068 22.0224 84.4503 22.1576C84.0882 22.4711 83.7101 22.4339 83.4783 22.0192C83.3184 21.7326 83.2255 21.3926 83.1857 21.067C83.0923 20.309 83.2732 19.5808 83.558 18.8753C83.9901 17.8061 84.5835 16.8261 85.4613 15.926C85.4914 16.2363 85.5371 16.5456 85.5488 16.8563ZM83.8899 16.3017C83.8287 16.4151 83.7645 16.5521 83.6848 16.6798C83.0394 17.7169 82.5188 18.8014 82.3147 20.0034C82.2136 20.6003 82.2078 21.1985 82.3881 21.7841C82.4542 21.9983 82.5378 22.2128 82.653 22.4061C83.2299 23.3744 84.3657 23.5314 85.1517 22.7001C85.5099 22.3211 85.7801 21.8385 85.9847 21.3615C86.3599 20.4874 86.429 19.5455 86.4679 18.6096C86.4907 18.0513 86.4722 17.4917 86.4722 16.8215C87.3928 18.6328 88.2594 20.3383 89.1522 22.0953C87.4924 23.8742 86.0499 25.8393 85.3889 28.2837C85.316 28.221 85.245 28.1876 85.2187 28.1341C84.41 26.5002 83.2168 25.1305 81.8875 23.8793C80.3657 22.4469 78.7715 21.0851 77.2074 19.6941C77.1506 19.6435 77.082 19.6049 76.9328 19.5004C79.3173 18.4039 81.589 17.3598 83.8899 16.3017ZM78.0721 21.5807C79.6381 22.9142 81.1647 24.2866 82.5247 25.8175C83.3004 26.6906 84.0012 27.6135 84.48 28.6729C84.5796 28.8931 84.6642 29.1193 84.7876 29.4216C82.375 28.8782 80.0473 28.3538 77.7032 27.8258C77.6769 27.7621 77.6351 27.6966 77.623 27.6265C77.3484 26.0455 76.406 24.8091 75.3518 23.6373C74.7525 22.9713 74.1172 22.3345 73.4679 21.6532C74.2499 20.9491 75.1345 20.414 76.0954 19.911C76.7559 20.4679 77.4159 21.0224 78.0721 21.5807ZM75.307 19.2817C74.4735 19.8455 73.6351 20.4126 72.7636 21.0025C71.7682 20.1878 70.7524 19.3569 69.6963 18.493C70.5522 17.612 71.2866 16.7272 71.7551 15.6636C72.9639 16.8953 74.1328 18.0857 75.307 19.2817ZM71.1403 11.0576C71.1456 11.0636 71.1097 11.104 71.0542 11.1858C70.6275 10.8737 70.2056 10.5648 69.7837 10.2555C69.811 10.2207 69.8377 10.1858 69.8649 10.151C70.3714 10.3419 70.7816 10.6651 71.1403 11.0576ZM67.3818 4.98626C67.8824 3.768 68.4146 2.56135 68.9356 1.35052C68.9551 1.30593 69.0008 1.27156 69.0576 1.20468C69.1135 1.28132 69.1679 1.3338 69.1952 1.39697C69.7016 2.57296 70.2236 3.74292 70.7038 4.92867C71.3094 6.42468 70.6956 7.49663 69.4416 8.51936C69.1193 8.78224 68.9959 8.78039 68.6659 8.52029C67.3871 7.51057 66.8146 6.36615 67.3818 4.98626ZM66.9764 11.1073C67.288 10.6712 67.7162 10.3795 68.2314 10.1923C67.9247 10.6415 67.4863 10.9211 66.9764 11.1073ZM67.305 14.3343C67.8357 13.665 68.2882 12.9391 68.7723 12.2364C68.8549 12.1166 68.9342 11.9949 69.0455 11.8281C69.1791 12.0227 69.2831 12.176 69.3891 12.3279C69.8883 13.0436 70.3772 13.7663 70.8943 14.4699C71.0591 14.6943 71.0956 14.8796 70.9935 15.1388C70.5847 16.1749 69.9077 17.0286 69.0727 17.8409C68.314 17.1972 67.7541 16.4485 67.3162 15.6102C67.2724 15.5266 67.2447 15.4351 67.1981 15.3533C66.991 14.9892 67.0221 14.6906 67.305 14.3343ZM66.346 15.6627C66.8243 16.7109 67.5169 17.6106 68.3976 18.4577C67.4425 19.3848 66.3319 20.1191 65.3531 21.008C64.4996 20.4321 63.6578 19.8641 62.7994 19.2849C63.9611 18.0992 65.1411 16.8935 66.346 15.6627ZM62.0014 19.9129C62.937 20.3866 63.8138 20.9328 64.643 21.656C64.1929 22.119 63.7375 22.5468 63.3316 23.0145C62.6949 23.7479 62.0665 24.4905 61.4823 25.2624C60.9127 26.0144 60.5851 26.8773 60.4509 27.8118C58.0893 28.3455 55.7549 28.8731 53.3684 29.4123C53.4141 29.2498 53.4408 29.1095 53.4933 28.9785C53.9915 27.7357 54.8022 26.6827 55.699 25.6837C57.1444 24.073 58.7756 22.6425 60.4329 21.2375C60.9443 20.8037 61.458 20.3713 62.0014 19.9129ZM52.7424 15.8619C52.8868 16.0523 53.0365 16.239 53.175 16.4332C53.9721 17.552 54.6355 18.7299 54.8902 20.0819C54.9884 20.6021 55.002 21.1214 54.8236 21.6295C54.7687 21.7865 54.6924 21.9439 54.5918 22.0777C54.34 22.4112 54.0129 22.4636 53.6917 22.1854C53.4802 22.002 53.3067 21.7637 53.1667 21.5231C52.8304 20.9444 52.6987 20.303 52.6097 19.6528C52.4396 18.4062 52.4775 17.1619 52.7424 15.8619ZM50.7021 11.7171C50.7001 11.6052 50.7891 11.4914 50.8362 11.3785C50.9631 11.4371 51.1439 11.4631 51.208 11.5592C51.5064 12.0097 51.5978 12.5123 51.5302 13.1137C50.9485 12.7454 50.7123 12.2847 50.7021 11.7171ZM51.6357 16.8047C51.6357 17.1823 51.6406 17.5042 51.6347 17.8261C51.6177 18.7828 51.659 19.735 51.8909 20.6708C52.0644 21.3694 52.3064 22.0475 52.8338 22.5774C53.07 22.8143 53.3675 23.0345 53.6819 23.1524C54.3337 23.3958 55.0273 23.0995 55.4185 22.4488C55.8005 21.8139 55.9119 21.1223 55.8346 20.3926C55.6931 19.0578 55.1429 17.8688 54.4489 16.7272C54.3633 16.5864 54.2793 16.4443 54.185 16.2873C56.4917 17.3491 58.7688 18.3969 61.1323 19.4846C60.2356 20.2528 59.4026 20.9616 58.5753 21.6764C57.2514 22.8203 55.9843 24.0172 54.8348 25.3256C54.0387 26.2317 53.3368 27.195 52.7526 28.3891C52.0615 25.8811 50.6403 23.8974 48.9499 22.0981C49.8461 20.3332 50.7229 18.605 51.6357 16.8047ZM48.4473 22.9179C50.7385 25.1621 52.1845 28.3381 51.9551 29.8954C50.0469 30.5289 48.1912 31.3445 46.3749 32.3565C45.8966 28.9423 46.8211 25.8946 48.4473 22.9179ZM41.4261 16.9603C42.3938 18.0295 43.5588 18.8822 44.7263 19.7373C45.657 20.4191 46.545 21.1548 47.4481 21.8705C47.5662 21.9644 47.6614 22.0847 47.7956 22.2217C46.5363 24.5244 45.5763 26.9182 45.3372 29.5479C44.7899 27.3153 44.2796 25.0734 43.4869 22.9114C42.6932 20.7461 41.8096 18.611 40.9682 16.4689C41.1073 16.6176 41.2691 16.7866 41.4261 16.9603ZM42.5104 13.443C41.7138 13.4978 40.3588 12.9163 39.8086 12.2917C40.8497 12.3906 41.7483 12.7241 42.5104 13.443ZM37.7935 7.34522C39.1432 8.23976 39.3745 9.50725 38.873 10.7924C38.7694 11.0581 38.5682 11.2884 38.4117 11.536C37.0644 9.57413 35.7609 7.67637 34.4335 5.74424C35.5966 6.23192 36.7597 6.66016 37.7935 7.34522Z" fill="url(#paint0_linear_2867_18657)"/>
</g>
</g>
<defs>
<linearGradient id="paint0_linear_2867_18657" x1="32.2189" y1="16.7742" x2="105.933" y2="16.7742" gradientUnits="userSpaceOnUse">
<stop offset="0.0311" stop-color="#A57D24"/>
<stop offset="0.1291" stop-color="#A88128"/>
<stop offset="0.2311" stop-color="#B28E34"/>
<stop offset="0.3351" stop-color="#C3A348"/>
<stop offset="0.4396" stop-color="#DABF64"/>
<stop offset="0.5251" stop-color="#F1DD80"/>
<stop offset="0.7377" stop-color="#F1DD80"/>
<stop offset="0.8769" stop-color="#A57D24"/>
<stop offset="1" stop-color="#BA973B"/>
</linearGradient>
</defs>
</svg>
