<svg width="190" height="32" viewBox="0 0 190 32" fill="none" xmlns="http://www.w3.org/2000/svg">
<path d="M5.09868 10.7639V6.95083H15.9715C16.4073 6.95083 16.7704 6.88546 17.061 6.75473C17.366 6.60947 17.5185 6.31168 17.5185 5.86137C17.5185 5.39653 17.366 5.09875 17.061 4.96801C16.7704 4.83728 16.4073 4.77191 15.9715 4.77191H5.44731V14.3592H0V0.414062H15.1217C16.2112 0.414062 17.228 0.493957 18.1722 0.653745C19.1309 0.799006 19.9662 1.06774 20.678 1.45995C21.3898 1.85215 21.949 2.40415 22.3557 3.11593C22.7625 3.82771 22.9658 4.74286 22.9658 5.86137C22.9658 6.97988 22.7625 7.86598 22.3557 8.51966C21.949 9.17333 21.3898 9.65996 20.678 9.97953C19.9662 10.2991 19.1309 10.5097 18.1722 10.6114C17.228 10.7131 16.2112 10.7639 15.1217 10.7639H5.09868Z" fill="#272727"/>
<path d="M31.1315 0.414062V10.2192H43.8346V14.3592H25.6842V0.414062H31.1315Z" fill="#272727"/>
<path d="M49.8127 12.2456V8.97723H64.7166V12.2456H49.8127ZM44.9319 14.3592L54.2795 0.414062H60.3369L69.7717 14.3592H63.7796L55.6958 1.87394H58.9424L50.924 14.3592H44.9319Z" fill="#272727"/>
<path d="M67.8166 0.414062H90.4774V4.55402H67.8166V0.414062ZM76.4233 4.27076H81.8706V14.3592H76.4233V4.27076Z" fill="#272727"/>
<path d="M92.9746 0.414062H98.4219V14.3592H92.9746V0.414062Z" fill="#272727"/>
<path d="M123.652 10.0885L121.626 11.2433V0.414062H127.073V14.3592H121.626L105.218 4.85907L107.245 3.68245V14.3592H101.798V0.414062H107.245L123.652 10.0885Z" fill="#272727"/>
<path d="M149.708 6.4061V0.414062H155.155V7.38662C155.155 8.62134 154.923 9.67448 154.458 10.5461C154.008 11.4031 153.376 12.1149 152.562 12.6814C151.749 13.2334 150.812 13.6619 149.751 13.967C148.691 14.272 147.551 14.4826 146.33 14.5989C145.125 14.7296 143.897 14.795 142.648 14.795C141.326 14.795 140.048 14.7296 138.813 14.5989C137.578 14.4826 136.431 14.272 135.37 13.967C134.325 13.6619 133.409 13.2334 132.625 12.6814C131.841 12.1149 131.223 11.4031 130.773 10.5461C130.337 9.67448 130.119 8.62134 130.119 7.38662V0.414062H135.567V6.4061C135.567 7.56819 135.85 8.45429 136.416 9.06439C136.983 9.67448 137.789 10.0957 138.835 10.3282C139.895 10.5461 141.166 10.655 142.648 10.655C144.086 10.655 145.335 10.5461 146.396 10.3282C147.456 10.0957 148.27 9.67448 148.836 9.06439C149.417 8.45429 149.708 7.56819 149.708 6.4061Z" fill="#272727"/>
<path d="M175.508 12.7032H172.239L184.136 0.414062H189.583V14.3592H184.136V4.85907L185.77 5.53453L177.164 14.3592H170.627L161.998 5.55632L163.654 4.88085V14.3592H158.207V0.414062H163.654L175.508 12.7032Z" fill="#272727"/>
<path d="M69.1928 27.9995C69.1057 28.7549 68.8394 29.3989 68.3939 29.9315C67.9484 30.4641 67.3432 30.8709 66.5781 31.1517C65.8131 31.4326 64.9028 31.573 63.8472 31.573C62.9659 31.573 62.1573 31.4713 61.4213 31.2679C60.695 31.0646 60.0656 30.7595 59.5329 30.3528C59.01 29.946 58.6033 29.4425 58.3127 28.8421C58.0222 28.232 57.877 27.5202 57.877 26.7067C57.877 25.8932 58.0222 25.1815 58.3127 24.5714C58.6033 23.9613 59.01 23.4529 59.5329 23.0461C60.0656 22.6297 60.695 22.3198 61.4213 22.1165C62.1573 21.9034 62.9659 21.7969 63.8472 21.7969C64.9028 21.7969 65.8131 21.9421 66.5781 22.2327C67.3528 22.5232 67.9629 22.9396 68.4084 23.4819C68.8539 24.0145 69.1154 24.6634 69.1928 25.4284H67.2754C67.1495 25.0217 66.9364 24.6731 66.6362 24.3825C66.3457 24.0823 65.968 23.8547 65.5032 23.6998C65.0383 23.5449 64.4864 23.4674 63.8472 23.4674C63.0531 23.4674 62.3558 23.5933 61.7554 23.8451C61.155 24.0872 60.6902 24.4503 60.3609 24.9345C60.0317 25.409 59.867 25.9998 59.867 26.7067C59.867 27.404 60.0317 27.9899 60.3609 28.4644C60.6902 28.9389 61.155 29.3021 61.7554 29.5538C62.3558 29.7959 63.0531 29.917 63.8472 29.917C64.4864 29.917 65.0335 29.8395 65.4887 29.6846C65.9535 29.5296 66.3312 29.3069 66.6217 29.0164C66.9219 28.7258 67.1398 28.3869 67.2754 27.9995H69.1928Z" fill="#7F7D7E"/>
<path d="M74.1105 29.3359V27.7235H80.3277V29.3359H74.1105ZM71.7718 31.3841L76.1877 21.9857H78.2795L82.739 31.3841H80.6327L76.7688 22.9154H77.6985L73.8636 31.3841H71.7718Z" fill="#7F7D7E"/>
<path d="M85.3868 28.2174H87.3478C87.3865 28.5467 87.5366 28.8469 87.7981 29.1181C88.0693 29.3795 88.4227 29.5877 88.8585 29.7427C89.2943 29.8879 89.7833 29.9606 90.3256 29.9606C90.8195 29.9606 91.2263 29.9073 91.5458 29.8008C91.8654 29.6943 92.1027 29.5442 92.2576 29.3505C92.4126 29.1568 92.49 28.9244 92.49 28.6532C92.49 28.3917 92.3932 28.1932 92.1995 28.0576C92.0058 27.9124 91.7008 27.7962 91.2844 27.709C90.868 27.6122 90.3208 27.5153 89.6429 27.4185C89.1103 27.341 88.6067 27.2345 88.1322 27.0989C87.6577 26.9537 87.2364 26.7697 86.8684 26.5469C86.5101 26.3242 86.2244 26.053 86.0114 25.7335C85.808 25.4042 85.7063 25.0168 85.7063 24.5714C85.7063 24.0194 85.8613 23.5352 86.1712 23.1188C86.4907 22.7023 86.9604 22.3779 87.5802 22.1455C88.2 21.9131 88.9602 21.7969 89.8608 21.7969C91.2166 21.7969 92.2576 22.0874 92.9839 22.6684C93.7199 23.2398 94.0782 24.0291 94.0589 25.0362H92.1705C92.1317 24.4648 91.8896 24.0533 91.4442 23.8015C91.0084 23.5497 90.4564 23.4238 89.7882 23.4238C89.1684 23.4238 88.6551 23.5158 88.2484 23.6998C87.8514 23.8838 87.6528 24.1985 87.6528 24.644C87.6528 24.8183 87.7013 24.9733 87.7981 25.1088C87.8949 25.2347 88.0596 25.3461 88.292 25.4429C88.5244 25.5398 88.8391 25.6318 89.2362 25.7189C89.6332 25.8061 90.1271 25.8932 90.7179 25.9804C91.2698 26.0579 91.7686 26.1644 92.214 26.3C92.6692 26.4259 93.0566 26.5953 93.3761 26.8084C93.7054 27.0118 93.9572 27.2732 94.1315 27.5928C94.3058 27.9124 94.393 28.3046 94.393 28.7694C94.393 29.3408 94.2429 29.8395 93.9427 30.2656C93.6521 30.682 93.197 31.0065 92.5772 31.2389C91.9671 31.4713 91.173 31.5875 90.1949 31.5875C89.4977 31.5875 88.8827 31.5149 88.3501 31.3696C87.8175 31.2147 87.3575 31.0113 86.9701 30.7595C86.5827 30.5077 86.268 30.2317 86.0259 29.9315C85.7838 29.6313 85.6095 29.3311 85.503 29.0309C85.4061 28.7307 85.3674 28.4595 85.3868 28.2174Z" fill="#7F7D7E"/>
<path d="M98.4071 21.9857H100.339V31.3841H98.4071V21.9857Z" fill="#7F7D7E"/>
<path d="M114.404 29.4667L113.793 29.7136V21.9857H115.725V31.3841H113.793L106.196 23.9613L106.806 23.7143V31.3841H104.874V21.9857H106.806L114.404 29.4667Z" fill="#7F7D7E"/>
<path d="M125.594 31.573C124.345 31.573 123.275 31.3793 122.384 30.9919C121.502 30.5949 120.825 30.0332 120.35 29.3069C119.885 28.5806 119.653 27.709 119.653 26.6922C119.653 25.6657 119.885 24.7893 120.35 24.063C120.825 23.3366 121.502 22.7798 122.384 22.3924C123.275 21.9954 124.345 21.7969 125.594 21.7969C126.853 21.7969 127.923 21.9954 128.804 22.3924C129.686 22.7798 130.359 23.3366 130.823 24.063C131.298 24.7893 131.535 25.6657 131.535 26.6922C131.535 27.709 131.298 28.5806 130.823 29.3069C130.359 30.0332 129.686 30.5949 128.804 30.9919C127.923 31.3793 126.853 31.573 125.594 31.573ZM125.594 29.9025C126.369 29.9025 127.047 29.7863 127.628 29.5538C128.218 29.3214 128.678 28.968 129.008 28.4934C129.347 28.0189 129.516 27.4185 129.516 26.6922C129.516 25.9659 129.347 25.3655 129.008 24.8909C128.678 24.4164 128.218 24.063 127.628 23.8305C127.047 23.5884 126.369 23.4674 125.594 23.4674C124.829 23.4674 124.146 23.5884 123.546 23.8305C122.945 24.063 122.476 24.4164 122.137 24.8909C121.798 25.3655 121.628 25.9659 121.628 26.6922C121.628 27.4185 121.798 28.0189 122.137 28.4934C122.476 28.968 122.945 29.3214 123.546 29.5538C124.146 29.7863 124.829 29.9025 125.594 29.9025Z" fill="#7F7D7E"/>
</svg>
