<svg width="137" height="42" viewBox="0 0 137 42" fill="none" xmlns="http://www.w3.org/2000/svg">
<path d="M7.7161 0.929688H80.4679L72.7518 39.5102H0L7.7161 0.929688Z" fill="#D21E20"/>
<path d="M89.1994 7.02814C91.2605 7.02814 93.0734 7.43789 94.6379 8.25739C96.2272 9.05206 97.4689 10.2441 98.3629 11.8334C99.2569 13.3979 99.7039 15.3598 99.7039 17.7189C99.7039 19.1841 99.5177 20.6865 99.1452 22.2262C98.7727 23.741 98.1891 25.2062 97.3944 26.6217C96.5997 28.0372 95.5816 29.3037 94.3399 30.4212C93.123 31.5139 91.6579 32.3831 89.9444 33.0287C88.2309 33.6744 86.269 33.9972 84.0588 33.9972C82.6433 33.9972 81.2775 33.8482 79.9613 33.5502C78.6452 33.2522 77.5773 32.8177 76.7578 32.2465L79.5143 27.8137C80.2097 28.2856 80.9671 28.6208 81.7866 28.8195C82.6061 28.9933 83.4753 29.0802 84.3941 29.0802C85.5364 29.0802 86.567 28.9312 87.4859 28.6332C88.4047 28.3104 89.1994 27.8758 89.8699 27.3295C90.5652 26.7583 91.1488 26.1002 91.6206 25.3552C92.1173 24.6102 92.5022 23.8155 92.7754 22.9712C93.0485 22.102 93.2348 21.208 93.3341 20.2892C93.3838 19.6684 93.4086 19.1841 93.4086 18.8364C93.4335 18.4639 93.4583 18.1287 93.4831 17.8307L95.2339 18.6502C94.7124 19.867 94.0419 20.8604 93.2224 21.6302C92.4277 22.4 91.5213 22.9588 90.5031 23.3065C89.4849 23.6541 88.4047 23.828 87.2624 23.828C85.7475 23.828 84.3444 23.5424 83.0531 22.9712C81.7617 22.3752 80.7187 21.5184 79.9241 20.4009C79.1294 19.2834 78.7321 17.9176 78.7321 16.3034C78.7321 14.3912 79.1791 12.7522 80.0731 11.3864C80.9919 9.99573 82.2336 8.92789 83.7981 8.18289C85.3874 7.41306 87.1879 7.02814 89.1994 7.02814ZM89.2739 11.5354C87.9825 11.5354 86.9023 11.9079 86.0331 12.6529C85.1639 13.3979 84.7293 14.4409 84.7293 15.7819C84.7293 16.8746 85.1018 17.7438 85.8469 18.3894C86.6167 19.0103 87.61 19.3207 88.8269 19.3207C89.7705 19.3207 90.59 19.1469 91.2854 18.7992C92.0055 18.4515 92.5643 17.9673 92.9616 17.3464C93.359 16.7256 93.5576 16.0178 93.5576 15.2232C93.5576 14.5775 93.3838 13.9815 93.0361 13.4352C92.7133 12.864 92.229 12.4046 91.5834 12.0569C90.9625 11.7092 90.1927 11.5354 89.2739 11.5354Z" fill="#32AA4C"/>
<path d="M97.9869 41.0748C97.0432 41.0748 96.1741 40.9754 95.3794 40.7768C94.5599 40.6029 93.8273 40.3298 93.1816 39.9573L95.4911 35.748C96.1617 36.2198 96.9687 36.4558 97.9124 36.4558C98.7071 36.4558 99.3403 36.2198 99.8122 35.748C100.259 35.2762 100.582 34.5312 100.781 33.513L104.804 13.5097H110.615L106.629 33.364C105.611 38.5045 102.73 41.0748 97.9869 41.0748ZM108.678 10.7159C107.66 10.7159 106.84 10.4303 106.219 9.85915C105.598 9.26315 105.288 8.54298 105.288 7.69864C105.288 6.7053 105.636 5.8858 106.331 5.24013C107.051 4.56963 107.982 4.23438 109.125 4.23438C110.143 4.23438 110.962 4.51996 111.583 5.09113C112.229 5.63746 112.552 6.32038 112.552 7.13989C112.552 8.20773 112.192 9.0769 111.471 9.7474C110.776 10.3931 109.845 10.7159 108.678 10.7159Z" fill="#32AA4C"/>
<path d="M121.032 33.8482C119.493 33.8482 118.065 33.5006 116.748 32.8052C115.432 32.0851 114.377 31.0545 113.582 29.7135C112.788 28.3725 112.39 26.7583 112.39 24.871C112.39 23.1823 112.663 21.6302 113.21 20.2147C113.781 18.7992 114.576 17.5699 115.594 16.5269C116.612 15.4839 117.791 14.6768 119.132 14.1057C120.473 13.5097 121.914 13.2117 123.453 13.2117C125.117 13.2117 126.545 13.5221 127.737 14.1429C128.929 14.7638 129.811 15.7323 130.382 17.0484C130.978 18.3398 131.189 20.016 131.015 22.0772C130.891 24.4364 130.407 26.51 129.563 28.298C128.718 30.0611 127.576 31.427 126.136 32.3955C124.72 33.364 123.019 33.8482 121.032 33.8482ZM122.82 29.043C123.963 29.043 124.968 28.7698 125.838 28.2235C126.732 27.6523 127.427 26.8825 127.924 25.914C128.445 24.9206 128.706 23.7659 128.706 22.4497C128.706 21.0839 128.296 20.0036 127.477 19.2089C126.682 18.4143 125.564 18.0169 124.124 18.0169C123.006 18.0169 122.001 18.3025 121.107 18.8737C120.213 19.42 119.505 20.1899 118.983 21.1832C118.487 22.1517 118.238 23.294 118.238 24.6102C118.238 25.976 118.636 27.0563 119.43 27.851C120.25 28.6456 121.38 29.043 122.82 29.043ZM126.806 33.5502L127.588 29.5645L128.892 23.6045L129.674 17.6444L130.494 13.5097H136.305L132.319 33.5502H126.806Z" fill="#32AA4C"/>
<path d="M6.61719 33.2548L11.8322 7.17969H24.4228C27.2538 7.17969 29.4143 7.68877 30.9043 8.70694C32.4191 9.72511 33.1765 11.2027 33.1765 13.1397C33.1765 14.7787 32.742 16.157 31.8728 17.2745C31.0285 18.392 29.8985 19.2363 28.483 19.8075C27.0675 20.3787 25.5278 20.6642 23.864 20.6642L24.8325 19.1742C27.0178 19.1742 28.7562 19.6833 30.0475 20.7015C31.3637 21.6948 32.0218 23.1352 32.0218 25.0225C32.0218 26.8602 31.5127 28.3999 30.4945 29.6415C29.5012 30.8584 28.1229 31.7648 26.3598 32.3608C24.5966 32.9568 22.5727 33.2548 20.288 33.2548H6.61719ZM13.5457 28.7103H20.6605C22.3243 28.7103 23.6281 28.3999 24.5718 27.779C25.5403 27.1334 26.0245 26.1897 26.0245 24.948C26.0245 23.9795 25.6644 23.2966 24.9443 22.8993C24.2489 22.4771 23.3053 22.266 22.1132 22.266H14.1417L15.0357 17.8705H21.8152C22.8583 17.8705 23.7523 17.7339 24.4973 17.4607C25.2671 17.1876 25.8507 16.7778 26.248 16.2315C26.6453 15.6603 26.844 14.9774 26.844 14.1827C26.844 13.3135 26.5088 12.6927 25.8383 12.3202C25.1678 11.9229 24.2241 11.7242 23.0073 11.7242H16.8982L13.5457 28.7103Z" fill="white"/>
<path d="M45.3815 33.5528C43.2955 33.5528 41.4826 33.1803 39.943 32.4353C38.4281 31.6903 37.2485 30.6473 36.4042 29.3063C35.5599 27.9653 35.1377 26.3883 35.1377 24.5755C35.1377 22.3405 35.6344 20.3538 36.6277 18.6155C37.6459 16.8523 39.0365 15.4616 40.7997 14.4435C42.5877 13.4253 44.6365 12.9162 46.946 12.9162C48.9078 12.9162 50.5965 13.2887 52.012 14.0337C53.4275 14.7539 54.5202 15.7721 55.29 17.0882C56.0847 18.3796 56.482 19.9317 56.482 21.7445C56.482 22.266 56.4448 22.7875 56.3703 23.309C56.3206 23.8305 56.2461 24.3272 56.1468 24.799H39.5705L40.1665 21.4092H53.4275L51.0435 22.4522C51.2422 21.3347 51.1801 20.4035 50.8573 19.6585C50.5344 18.8887 50.0129 18.3051 49.2928 17.9077C48.5726 17.4856 47.7034 17.2745 46.6852 17.2745C45.4187 17.2745 44.3385 17.5849 43.4445 18.2057C42.5753 18.8017 41.9172 19.6337 41.4702 20.7015C41.0232 21.7693 40.7997 22.9738 40.7997 24.3148C40.7997 25.8544 41.2219 27.0092 42.0662 27.779C42.9354 28.524 44.2392 28.8965 45.9775 28.8965C46.9957 28.8965 47.9766 28.7351 48.9203 28.4123C49.8639 28.0894 50.671 27.63 51.3415 27.034L53.7628 30.8708C52.5956 31.7896 51.2794 32.4725 49.8143 32.9195C48.3739 33.3417 46.8963 33.5528 45.3815 33.5528Z" fill="white"/>
<path d="M66.2762 33.5528C64.8359 33.5528 63.6066 33.2672 62.5884 32.696C61.5703 32.1 60.8377 31.2557 60.3907 30.163C59.9685 29.0455 59.9064 27.7294 60.2044 26.2145L63.6687 8.78145H69.4797L66.0155 26.1773C65.8665 27.0216 65.9534 27.6921 66.2762 28.1888C66.599 28.6854 67.195 28.9338 68.0642 28.9338C68.4616 28.9338 68.8589 28.8717 69.2562 28.7475C69.6784 28.6234 70.0633 28.4495 70.411 28.226L71.2677 32.3608C70.5476 32.8078 69.7529 33.1182 68.8837 33.292C68.0145 33.4659 67.1454 33.5528 66.2762 33.5528ZM58.7144 18.1312L59.6084 13.6612H73.5027L72.6087 18.1312H58.7144Z" fill="white"/>
</svg>
