<svg width="159" height="24" viewBox="0 0 159 24" fill="none" xmlns="http://www.w3.org/2000/svg">
<path d="M0 19.9428V0.480925H13.6842V4.73822H5.28361V8.08324H12.8479V12.3405H5.28361V19.9428H0Z" fill="white"/>
<path d="M36.9259 19.9428V0.480925H45.3264C46.7709 0.480925 48.0347 0.743838 49.1181 1.26966C50.2014 1.79549 51.044 2.55256 51.6458 3.54086C52.2477 4.52916 52.5486 5.71385 52.5486 7.09494C52.5486 8.48869 52.2382 9.66389 51.6173 10.6205C51.0028 11.5771 50.138 12.2994 49.023 12.7872C47.9144 13.275 46.6188 13.5189 45.1364 13.5189H40.1188V9.41364H44.072C44.6929 9.41364 45.2219 9.33762 45.659 9.18557C46.1025 9.02719 46.4414 8.77695 46.6758 8.43484C46.9166 8.09274 47.0369 7.6461 47.0369 7.09494C47.0369 6.53743 46.9166 6.08446 46.6758 5.73602C46.4414 5.38125 46.1025 5.1215 45.659 4.95679C45.2219 4.78573 44.6929 4.70021 44.072 4.70021H42.2095V19.9428H36.9259ZM48.3293 11.0101L53.1948 19.9428H47.4551L42.7036 11.0101H48.3293Z" fill="white"/>
<path d="M54.2686 4.73822V0.480925H71.1838V4.73822H65.33V19.9428H60.1224V4.73822H54.2686Z" fill="white"/>
<path d="M84.6898 0.480925H89.9734V12.9487C89.9734 14.4312 89.6186 15.7141 88.909 16.7974C88.2058 17.8744 87.2239 18.7075 85.9632 19.2966C84.7024 19.8795 83.239 20.1709 81.5728 20.1709C79.894 20.1709 78.4242 19.8795 77.1635 19.2966C75.9028 18.7075 74.9208 17.8744 74.2176 16.7974C73.5207 15.7141 73.1723 14.4312 73.1723 12.9487V0.480925H78.4559V12.4926C78.4559 13.0944 78.5889 13.6329 78.855 14.1081C79.1211 14.5769 79.4885 14.9443 79.9573 15.2104C80.4325 15.4765 80.971 15.6095 81.5728 15.6095C82.181 15.6095 82.7195 15.4765 83.1883 15.2104C83.6571 14.9443 84.0246 14.5769 84.2906 14.1081C84.5567 13.6329 84.6898 13.0944 84.6898 12.4926V0.480925Z" fill="white"/>
<path d="M109.324 0.480925V19.9428H104.914L97.8821 9.71774H97.7681V19.9428H92.4845V0.480925H96.9699L103.888 10.668H104.04V0.480925H109.324Z" fill="white"/>
<path d="M117.106 0.480925V19.9428H111.823V0.480925H117.106Z" fill="white"/>
<path d="M137.78 7.77915H132.42C132.382 7.33568 132.281 6.93339 132.116 6.57228C131.958 6.21117 131.736 5.90074 131.451 5.64099C131.172 5.37491 130.833 5.17219 130.434 5.03281C130.035 4.8871 129.582 4.81424 129.075 4.81424C128.188 4.81424 127.438 5.02964 126.823 5.46044C126.215 5.89124 125.753 6.50892 125.436 7.3135C125.125 8.11808 124.97 9.08421 124.97 10.2119C124.97 11.4029 125.129 12.4007 125.445 13.2053C125.768 14.0035 126.234 14.6054 126.842 15.0108C127.45 15.41 128.182 15.6095 129.037 15.6095C129.525 15.6095 129.962 15.5493 130.349 15.429C130.735 15.3023 131.071 15.1217 131.356 14.8873C131.641 14.6529 131.872 14.371 132.05 14.0416C132.234 13.7058 132.357 13.3288 132.42 12.9107L137.78 12.9487C137.717 13.7723 137.485 14.6117 137.086 15.467C136.687 16.3159 136.12 17.1015 135.385 17.8237C134.657 18.5396 133.754 19.1161 132.677 19.5532C131.6 19.9904 130.349 20.2089 128.923 20.2089C127.137 20.2089 125.534 19.8256 124.115 19.0591C122.702 18.2925 121.584 17.1648 120.76 15.676C119.943 14.1873 119.534 12.3659 119.534 10.2119C119.534 8.04523 119.953 6.22067 120.789 4.73822C121.625 3.24943 122.753 2.12492 124.172 1.36469C125.591 0.598127 127.175 0.214844 128.923 0.214844C130.152 0.214844 131.283 0.382728 132.316 0.718496C133.349 1.05427 134.254 1.54525 135.034 2.19144C135.813 2.83131 136.44 3.62005 136.915 4.55766C137.39 5.49528 137.679 6.56911 137.78 7.77915Z" fill="white"/>
<path d="M144.632 19.9428H138.93L145.354 0.480925H152.576L159 19.9428H153.298L149.041 5.84056H148.889L144.632 19.9428ZM143.567 12.2645H154.287V16.2177H143.567V12.2645Z" fill="white"/>
<path d="M35.1232 10.9246C35.0338 13.2183 34.3672 14.6229 33.1321 15.098C32.772 15.2326 32.3878 15.2914 32.0037 15.2707C31.7162 15.257 31.4309 15.2144 31.1521 15.1434C31.0491 15.1188 30.9596 15.0558 30.902 14.9673C29.5505 12.8894 27.995 10.9504 26.2584 9.17867C26.1073 9.02477 25.901 8.93693 25.6848 8.93449C25.4686 8.93205 25.2603 9.0152 25.1056 9.16566C24.951 9.31611 24.8628 9.52153 24.8603 9.73675C24.8579 9.95196 24.9414 10.1593 25.0925 10.3132C26.5486 11.7814 31.3713 17.0004 32.5918 22.8112C32.6361 23.0218 32.5944 23.2413 32.4761 23.4214C32.3578 23.6015 32.1725 23.7274 31.9609 23.7715C31.897 23.7849 31.8318 23.7905 31.7665 23.7884C31.5851 23.7811 31.4112 23.7138 31.2726 23.597C31.134 23.4802 31.0385 23.3207 31.0014 23.1437C30.6469 21.4582 29.9435 19.8058 29.1042 18.2904C29.0656 18.5409 28.9909 18.7845 28.8822 19.0137C28.3087 20.2036 26.8503 20.7564 24.5461 20.6675C22.242 20.5786 20.831 19.9151 20.3528 18.6846C19.8476 17.3881 20.4349 15.5592 22.0943 13.2489C22.1675 13.1502 22.2407 13.0516 22.3098 12.9527L21.9964 13.1437C20.1919 14.2333 18.6939 14.7571 17.527 14.7121C17.1425 14.7032 16.764 14.6149 16.4154 14.453C15.2251 13.8843 14.6699 12.4326 14.7593 10.1389C14.8487 7.84513 15.5153 6.44057 16.7504 5.96444C18.0538 5.4615 19.891 6.04603 22.2118 7.69782L22.5093 7.91232L22.3175 7.60039C20.8409 5.16909 20.3978 3.30045 21.0045 2.04584C21.5738 0.859843 23.0322 0.307053 25.3363 0.39596C27.6405 0.484868 29.0514 1.14837 29.5297 2.37784C30.0349 3.67534 29.4476 5.50423 27.7882 7.81452C27.7163 7.91529 27.6444 8.01403 27.5727 8.11074L27.886 7.91981C30.3285 6.44978 32.2057 6.00857 33.466 6.61246C34.6573 7.17918 35.2126 8.63088 35.1232 10.9246Z" fill="#49ED36"/>
</svg>
