<svg width="239" height="30" viewBox="0 0 239 30" fill="none" xmlns="http://www.w3.org/2000/svg">
<path d="M239 7.41257C239 9.2156 238.496 10.8811 237.487 12.4091C236.479 13.9371 234.813 15.0984 232.491 15.8929L237.808 29.599H227.586L223.552 16.9014H223.048L220.343 29.599H210.442L216.63 0.490771H228.686C230.092 0.490771 231.421 0.58245 232.674 0.76581C233.927 0.918609 235.012 1.25477 235.929 1.77428C236.876 2.26324 237.625 2.96612 238.175 3.88291C238.725 4.76915 239 5.9457 239 7.41257ZM225.798 13.9676C226.593 13.9676 227.265 13.7079 227.815 13.1884C228.396 12.6383 228.854 11.9813 229.19 11.2173C229.557 10.4533 229.817 9.64343 229.97 8.78776C230.122 7.90152 230.199 7.13753 230.199 6.49577C230.199 5.70122 230.061 5.0289 229.786 4.47883C229.511 3.89819 228.915 3.60787 227.998 3.60787H225.936L223.644 13.9676H225.798Z" fill="white"/>
<path d="M187.505 3.97459H180.125L174.67 29.599H164.768L170.223 3.97459H162.935L163.76 0.490771H188.284L187.505 3.97459Z" fill="white"/>
<path d="M151.194 8.92623C151.285 8.46783 151.331 7.84135 151.331 7.0468C151.331 6.5884 151.3 6.14529 151.239 5.71745C151.178 5.25905 151.071 4.86177 150.918 4.52562C150.766 4.1589 150.536 3.88386 150.231 3.7005C149.925 3.48658 149.528 3.37962 149.039 3.37962C148.489 3.37962 147.985 3.50186 147.526 3.74634C147.068 3.99082 146.655 4.3117 146.289 4.70898C145.952 5.0757 145.677 5.51881 145.464 6.03833C145.28 6.52729 145.188 7.0468 145.188 7.59688C145.188 8.39143 145.387 9.00263 145.784 9.43046C146.212 9.8583 146.762 10.2097 147.435 10.4848C148.107 10.7598 148.871 10.989 149.727 11.1724C150.582 11.3557 151.469 11.5696 152.385 11.8141C153.149 12.028 153.913 12.3031 154.677 12.6392C155.441 12.9754 156.114 13.4338 156.694 14.0144C157.305 14.5645 157.794 15.2979 158.161 16.2147C158.528 17.101 158.711 18.2164 158.711 19.561C158.711 21.4863 158.329 23.106 157.565 24.42C156.801 25.7341 155.747 26.8037 154.402 27.6288C153.058 28.4539 151.453 29.0499 149.589 29.4166C147.756 29.7833 145.754 29.9667 143.584 29.9667C141.384 29.9667 139.581 29.8291 138.175 29.5541C136.8 29.2485 135.715 28.9276 134.92 28.5915C133.973 28.1942 133.27 27.7358 132.812 27.2163L134.37 20.9362H142.438C142.408 21.2113 142.377 21.5933 142.346 22.0822C142.316 22.5406 142.301 22.9073 142.301 23.1824C142.301 23.5491 142.346 23.9311 142.438 24.3284C142.53 24.7256 142.667 25.0924 142.851 25.4285C143.065 25.7647 143.355 26.0397 143.722 26.2536C144.088 26.4676 144.547 26.5745 145.097 26.5745C145.708 26.5745 146.243 26.437 146.701 26.162C147.19 25.8869 147.587 25.5508 147.893 25.1535C148.229 24.7256 148.474 24.2672 148.626 23.7783C148.81 23.2588 148.901 22.7545 148.901 22.2656C148.901 21.5933 148.733 21.0279 148.397 20.5695C148.092 20.1111 147.664 19.7291 147.114 19.4235C146.564 19.0874 145.922 18.8123 145.188 18.5984C144.486 18.3539 143.752 18.1094 142.988 17.865C142.255 17.6511 141.475 17.3913 140.65 17.0857C139.856 16.7801 139.122 16.3523 138.45 15.8022C137.778 15.2521 137.212 14.5645 136.754 13.7394C136.326 12.8837 136.112 11.7988 136.112 10.4848C136.112 8.52895 136.601 6.894 137.579 5.57993C138.588 4.2353 139.841 3.15042 141.338 2.32531C142.866 1.50019 144.531 0.91956 146.334 0.583403C148.138 0.216684 149.849 0.0333252 151.469 0.0333252C153.608 0.0333252 155.441 0.293081 156.969 0.812598C158.528 1.30155 159.704 1.88219 160.499 2.55451L158.803 8.92623H151.194Z" fill="white"/>
<path d="M120.592 0.0333252C123.22 0.0333252 125.344 0.369482 126.964 1.0418C128.614 1.71411 129.913 2.75315 130.86 4.1589C131.471 5.10626 131.945 6.17584 132.281 7.36768C132.617 8.55951 132.785 9.9347 132.785 11.4933C132.785 12.8379 132.663 14.1825 132.419 15.5271C132.174 16.8718 131.823 18.1706 131.364 19.4235C130.936 20.6459 130.402 21.8072 129.76 22.9073C129.149 23.9769 128.461 24.9243 127.697 25.7494C126.261 27.3079 124.595 28.4081 122.701 29.0499C120.836 29.6611 118.529 29.9667 115.779 29.9667C113.12 29.9667 110.981 29.6916 109.361 29.1415C107.741 28.5915 106.458 27.7052 105.511 26.4828C104.838 25.6272 104.304 24.5423 103.906 23.2282C103.54 21.9142 103.356 20.2639 103.356 18.2775C103.356 14.8854 103.952 11.86 105.144 9.20126C106.366 6.512 108.093 4.3881 110.324 2.82955C111.668 1.8822 113.166 1.17932 114.816 0.72092C116.466 0.262523 118.392 0.0333252 120.592 0.0333252ZM115.412 26.7579C116.115 26.7579 116.772 26.4523 117.383 25.8411C118.025 25.1993 118.606 24.3589 119.125 23.3199C119.675 22.2503 120.164 21.0432 120.592 19.6986C121.05 18.3539 121.432 16.9635 121.738 15.5271C122.043 14.0908 122.273 12.6698 122.425 11.2641C122.609 9.82774 122.701 8.52895 122.701 7.36768C122.701 5.77857 122.532 4.6937 122.196 4.11306C121.891 3.50186 121.432 3.19627 120.821 3.19627C120.118 3.19627 119.446 3.50186 118.804 4.11306C118.162 4.72426 117.551 5.54937 116.971 6.5884C116.42 7.59688 115.916 8.77343 115.458 10.1181C115.03 11.4321 114.648 12.792 114.312 14.1978C114.006 15.6035 113.762 16.994 113.578 18.3692C113.426 19.7444 113.349 21.0126 113.349 22.1739C113.349 23.9158 113.533 25.1229 113.899 25.7952C114.297 26.437 114.801 26.7579 115.412 26.7579Z" fill="url(#paint0_linear_3912_20466)"/>
<path d="M87.6613 0.490771H97.6085L92.1994 25.7485H101.505L100.726 29.599H81.4729L87.6613 0.490771Z" fill="url(#paint1_linear_3912_20466)"/>
<path d="M64.6071 0.490771H83.9056L83.1722 3.97459H73.8209L71.8956 12.8216H79.7342L79.0008 16.2596H71.1622L69.0536 26.0693H78.4049L77.7173 29.599H58.4188L64.6071 0.490771Z" fill="url(#paint2_linear_3912_20466)"/>
<path d="M53.3298 29.599H43.4285L46.1788 16.6263H40.5406L37.7902 29.599H27.8888L34.0772 0.490771H44.0244L41.3198 13.1425H46.9123L49.6168 0.490771H59.6099L53.3298 29.599Z" fill="url(#paint3_linear_3912_20466)"/>
<path d="M13.431 13.1436L24.7534 0.446006H29.9333L19.6652 11.5851L26.6329 29.6001H16.6398L12.6059 16.8108L9.90136 29.6001H0L6.18835 0.491845H16.1356L13.431 13.1436Z" fill="url(#paint4_linear_3912_20466)"/>
<path d="M180.712 29.599H185.158L183.118 24.42L180.712 29.599Z" fill="white"/>
<path d="M197.535 29.5992H208.261L205.098 0.490967H194.234L195.518 6.49597L196.572 18.9644L196.893 22.3107L197.535 29.5992Z" fill="white"/>
<path d="M188.495 10.5052L186.532 14.8249L182.212 16.7884L186.532 18.7519L188.495 23.0716L190.459 18.7519L194.778 16.7884L190.459 14.8249" fill="#ECCF68"/>
<defs>
<linearGradient id="paint0_linear_3912_20466" x1="-844.286" y1="12.4095" x2="1110.15" y2="12.4095" gradientUnits="userSpaceOnUse">
<stop stop-color="#B07908"/>
<stop offset="0.11" stop-color="#C89B2F"/>
<stop offset="0.24" stop-color="#E0BE55"/>
<stop offset="0.34" stop-color="#EFD36D"/>
<stop offset="0.41" stop-color="#F4DB76"/>
<stop offset="0.52" stop-color="#EACC65"/>
<stop offset="0.75" stop-color="#CFA53A"/>
<stop offset="0.97" stop-color="#B07908"/>
</linearGradient>
<linearGradient id="paint1_linear_3912_20466" x1="-979.259" y1="12.2899" x2="1892.02" y2="12.2899" gradientUnits="userSpaceOnUse">
<stop stop-color="#B07908"/>
<stop offset="0.11" stop-color="#C89B2F"/>
<stop offset="0.24" stop-color="#E0BE55"/>
<stop offset="0.34" stop-color="#EFD36D"/>
<stop offset="0.41" stop-color="#F4DB76"/>
<stop offset="0.52" stop-color="#EACC65"/>
<stop offset="0.75" stop-color="#CFA53A"/>
<stop offset="0.97" stop-color="#B07908"/>
</linearGradient>
<linearGradient id="paint2_linear_3912_20466" x1="-553.482" y1="12.2899" x2="1703.26" y2="12.2899" gradientUnits="userSpaceOnUse">
<stop stop-color="#B07908"/>
<stop offset="0.11" stop-color="#C89B2F"/>
<stop offset="0.24" stop-color="#E0BE55"/>
<stop offset="0.34" stop-color="#EFD36D"/>
<stop offset="0.41" stop-color="#F4DB76"/>
<stop offset="0.52" stop-color="#EACC65"/>
<stop offset="0.75" stop-color="#CFA53A"/>
<stop offset="0.97" stop-color="#B07908"/>
</linearGradient>
<linearGradient id="paint3_linear_3912_20466" x1="-214.679" y1="12.2899" x2="1598.54" y2="12.2899" gradientUnits="userSpaceOnUse">
<stop stop-color="#B07908"/>
<stop offset="0.11" stop-color="#C89B2F"/>
<stop offset="0.24" stop-color="#E0BE55"/>
<stop offset="0.34" stop-color="#EFD36D"/>
<stop offset="0.41" stop-color="#F4DB76"/>
<stop offset="0.52" stop-color="#EACC65"/>
<stop offset="0.75" stop-color="#CFA53A"/>
<stop offset="0.97" stop-color="#B07908"/>
</linearGradient>
<linearGradient id="paint4_linear_3912_20466" x1="-4.82524" y1="12.3166" x2="1916.69" y2="12.3166" gradientUnits="userSpaceOnUse">
<stop stop-color="#B07908"/>
<stop offset="0.11" stop-color="#C89B2F"/>
<stop offset="0.24" stop-color="#E0BE55"/>
<stop offset="0.34" stop-color="#EFD36D"/>
<stop offset="0.41" stop-color="#F4DB76"/>
<stop offset="0.52" stop-color="#EACC65"/>
<stop offset="0.75" stop-color="#CFA53A"/>
<stop offset="0.97" stop-color="#B07908"/>
</linearGradient>
</defs>
</svg>
