<svg width="206" height="26" viewBox="0 0 206 26" fill="none" xmlns="http://www.w3.org/2000/svg">
<path d="M0 26V0.799866H3.81601L14.6881 15.2359L13.1761 15.1999L24.0481 0.799866H27.7921V26H23.9041V15.4159C23.9041 13.3759 23.9521 11.4799 24.0481 9.7279C24.1441 7.97589 24.3361 6.21189 24.6241 4.43588L25.0561 5.87589L15.0841 18.7639H12.708L2.77201 5.91189L3.16801 4.43588C3.45601 6.18789 3.64801 7.93989 3.74401 9.6919C3.84001 11.4199 3.88801 13.3279 3.88801 15.4159V26H0Z" fill="white"/>
<path d="M70.3125 25.4162V0.216061H74.1285L85.0006 14.6521L83.4886 14.6161L94.3606 0.216061H98.1046V25.4162H94.2166V14.8321C94.2166 12.7921 94.2646 10.8961 94.3606 9.1441C94.4566 7.39209 94.6486 5.62808 94.9366 3.85208L95.3686 5.29208L85.3966 18.1801H83.0205L73.0845 5.32808L73.4805 3.85208C73.7685 5.60408 73.9605 7.35609 74.0565 9.1081C74.1525 10.8361 74.2005 12.7441 74.2005 14.8321V25.4162H70.3125Z" fill="white"/>
<path d="M106.452 25.4162L118.044 0.216061H122.436L133.956 25.4162H129.708L122.004 8.67609C121.836 8.29209 121.644 7.86009 121.428 7.38009C121.212 6.87609 120.996 6.36009 120.78 5.83208C120.564 5.30408 120.348 4.77608 120.132 4.24808C119.94 3.72008 119.772 3.21607 119.628 2.73607L120.672 2.70007C120.48 3.22807 120.276 3.76808 120.06 4.32008C119.868 4.84808 119.664 5.37608 119.448 5.90408C119.232 6.40809 119.016 6.91209 118.8 7.41609C118.584 7.89609 118.368 8.36409 118.152 8.82009L110.52 25.4162H106.452ZM111.528 19.4041L113.04 15.6601H127.008L127.908 19.4041H111.528Z" fill="white"/>
<path d="M142.278 25.4162V0.216061H146.058L165.066 20.8441L164.778 21.1681C164.658 20.4721 164.55 19.7281 164.454 18.9361C164.382 18.1441 164.322 17.3281 164.274 16.4881C164.226 15.6241 164.178 14.7481 164.13 13.8601C164.106 12.9481 164.082 12.0481 164.058 11.1601C164.058 10.2481 164.058 9.3601 164.058 8.49609V0.216061H167.946V25.4162H164.094L145.338 5.54408L145.446 5.04008C145.518 5.76008 145.578 6.48009 145.626 7.20009C145.698 7.92009 145.77 8.62809 145.842 9.3241C145.914 10.0201 145.974 10.6921 146.022 11.3401C146.07 11.9881 146.106 12.6241 146.13 13.2481C146.154 13.8481 146.166 14.4121 146.166 14.9401V25.4162H142.278Z" fill="white"/>
<path d="M191.896 25.7762C189.952 25.7762 188.104 25.4882 186.352 24.9122C184.624 24.3122 183.088 23.4602 181.744 22.3561C180.4 21.2521 179.344 19.8961 178.576 18.2881C177.832 16.6801 177.46 14.8561 177.46 12.8161C177.46 11.0161 177.832 9.3361 178.576 7.77609C179.344 6.21609 180.4 4.86008 181.744 3.70807C183.112 2.53207 184.696 1.62007 186.496 0.972065C188.296 0.324062 190.228 6.10352e-05 192.292 6.10352e-05C193.972 6.10352e-05 195.532 0.204062 196.972 0.612064C198.437 0.996065 199.733 1.51207 200.861 2.16007C201.989 2.80807 202.877 3.51607 203.525 4.28408L201.005 7.05609C200.189 6.38408 199.313 5.80808 198.377 5.32808C197.465 4.84808 196.493 4.47608 195.46 4.21208C194.428 3.92408 193.372 3.78008 192.292 3.78008C190.78 3.78008 189.364 4.00808 188.044 4.46408C186.748 4.92008 185.608 5.55608 184.624 6.37209C183.64 7.18809 182.872 8.14809 182.32 9.2521C181.792 10.3321 181.528 11.5201 181.528 12.8161C181.528 14.3041 181.816 15.6241 182.392 16.7761C182.968 17.9281 183.748 18.8881 184.732 19.6561C185.74 20.4241 186.88 21.0121 188.152 21.4201C189.424 21.8041 190.756 21.9961 192.148 21.9961C193.468 21.9961 194.704 21.8641 195.856 21.6001C197.033 21.3121 198.053 20.9161 198.917 20.4121C199.781 19.8841 200.453 19.2841 200.933 18.6121C201.413 17.9161 201.629 17.1721 201.581 16.3801L201.545 15.8401L202.121 16.5601H192.22V12.7441H205.721C205.769 13.0801 205.805 13.3681 205.829 13.6081C205.853 13.8241 205.865 14.0041 205.865 14.1481C205.865 14.2921 205.865 14.4241 205.865 14.5441C205.865 16.3681 205.517 17.9881 204.821 19.4041C204.149 20.7961 203.189 21.9601 201.941 22.8962C200.693 23.8322 199.217 24.5522 197.513 25.0562C195.808 25.5362 193.936 25.7762 191.896 25.7762Z" fill="white"/>
<path d="M48.7126 25.9202C46.6245 25.9202 44.7045 25.5962 42.9525 24.9482C41.2005 24.2762 39.6765 23.3521 38.3805 22.1761C37.0845 21.0001 36.0765 19.6321 35.3565 18.0721C34.6605 16.4881 34.3125 14.7841 34.3125 12.9601C34.3125 11.1361 34.6605 9.4441 35.3565 7.88409C36.0765 6.30008 37.0845 4.92008 38.3805 3.74408C39.6765 2.56807 41.2005 1.65607 42.9525 1.00806C44.7045 0.336062 46.6245 6.10352e-05 48.7126 6.10352e-05C50.8006 6.10352e-05 52.7206 0.336062 54.4726 1.00806C56.2246 1.65607 57.7486 2.56807 59.0446 3.74408C60.3406 4.92008 61.3486 6.30008 62.0686 7.88409C62.7886 9.4441 63.1486 11.1361 63.1486 12.9601C63.1486 14.7841 62.7886 16.4881 62.0686 18.0721C61.3486 19.6321 60.3406 21.0001 59.0446 22.1761C57.7486 23.3521 56.2246 24.2762 54.4726 24.9482C52.7206 25.5962 50.8006 25.9202 48.7126 25.9202ZM48.7126 22.1401C50.2486 22.1401 51.6526 21.9121 52.9246 21.4561C54.1966 20.9761 55.3006 20.3281 56.2366 19.5121C57.1726 18.6721 57.8926 17.7001 58.3966 16.5961C58.9246 15.4681 59.1886 14.2561 59.1886 12.9601C59.1886 11.6641 58.9246 10.4641 58.3966 9.3601C57.8926 8.23209 57.1726 7.26009 56.2366 6.44409C55.3006 5.60408 54.1966 4.95608 52.9246 4.50008C51.6526 4.02008 50.2486 3.78008 48.7126 3.78008C47.1765 3.78008 45.7725 4.02008 44.5005 4.50008C43.2285 4.95608 42.1245 5.59208 41.1885 6.40809C40.2525 7.22409 39.5325 8.19609 39.0285 9.3241C38.5245 10.4281 38.2725 11.6401 38.2725 12.9601C38.2725 14.2561 38.5245 15.4681 39.0285 16.5961C39.5325 17.7241 40.2525 18.6961 41.1885 19.5121C42.1245 20.3281 43.2285 20.9761 44.5005 21.4561C45.7725 21.9121 47.1765 22.1401 48.7126 22.1401Z" fill="url(#paint0_linear_290_9916)"/>
<path d="M48.3025 20.1912C47.144 20.1912 46.0786 20.0114 45.1065 19.6519C44.1344 19.279 43.2888 18.7663 42.5697 18.1138C41.8506 17.4613 41.2913 16.7022 40.8918 15.8366C40.5056 14.9577 40.3125 14.0123 40.3125 13.0002C40.3125 11.9881 40.5056 11.0493 40.8918 10.1837C41.2913 9.30479 41.8506 8.53907 42.5697 7.88655C43.2888 7.23403 44.1344 6.728 45.1065 6.36845C46.0786 5.99558 47.144 5.80914 48.3025 5.80914C49.4611 5.80914 50.5264 5.99558 51.4986 6.36845C52.4707 6.728 53.3163 7.23403 54.0354 7.88655C54.7545 8.53907 55.3138 9.30479 55.7133 10.1837C56.1128 11.0493 56.3126 11.9881 56.3126 13.0002C56.3126 14.0123 56.1128 14.9577 55.7133 15.8366C55.3138 16.7022 54.7545 17.4613 54.0354 18.1138C53.3163 18.7663 52.4707 19.279 51.4986 19.6519C50.5264 20.0114 49.4611 20.1912 48.3025 20.1912ZM48.3025 18.0938C49.1548 18.0938 49.9338 17.9673 50.6396 17.7143C51.3454 17.448 51.958 17.0884 52.4773 16.6356C52.9967 16.1696 53.3962 15.6302 53.6758 15.0177C53.9688 14.3918 54.1153 13.7193 54.1153 13.0002C54.1153 12.2811 53.9688 11.6152 53.6758 11.0027C53.3962 10.3768 52.9967 9.83746 52.4773 9.38469C51.958 8.9186 51.3454 8.55905 50.6396 8.30603C49.9338 8.0397 49.1548 7.90653 48.3025 7.90653C47.4503 7.90653 46.6712 8.0397 45.9655 8.30603C45.2597 8.55905 44.6471 8.91194 44.1277 9.36471C43.6084 9.81748 43.2089 10.3568 42.9292 10.9827C42.6496 11.5953 42.5098 12.2678 42.5098 13.0002C42.5098 13.7193 42.6496 14.3918 42.9292 15.0177C43.2089 15.6436 43.6084 16.1829 44.1277 16.6356C44.6471 17.0884 45.2597 17.448 45.9655 17.7143C46.6712 17.9673 47.4503 18.0938 48.3025 18.0938Z" fill="url(#paint1_linear_290_9916)"/>
<path d="M47.752 16.1913C47.2533 16.1913 46.7947 16.1139 46.3762 15.9591C45.9577 15.7986 45.5937 15.5779 45.2842 15.297C44.9746 15.0161 44.7338 14.6893 44.5619 14.3167C44.3956 13.9384 44.3125 13.5314 44.3125 13.0957C44.3125 12.66 44.3956 12.2559 44.5619 11.8833C44.7338 11.5049 44.9746 11.1753 45.2842 10.8944C45.5937 10.6135 45.9577 10.3957 46.3762 10.2409C46.7947 10.0804 47.2533 10.0001 47.752 10.0001C48.2507 10.0001 48.7093 10.0804 49.1278 10.2409C49.5463 10.3957 49.9103 10.6135 50.2199 10.8944C50.5294 11.1753 50.7702 11.5049 50.9422 11.8833C51.1141 12.2559 51.2001 12.66 51.2001 13.0957C51.2001 13.5314 51.1141 13.9384 50.9422 14.3167C50.7702 14.6893 50.5294 15.0161 50.2199 15.297C49.9103 15.5779 49.5463 15.7986 49.1278 15.9591C48.7093 16.1139 48.2507 16.1913 47.752 16.1913ZM47.752 15.2884C48.1189 15.2884 48.4543 15.2339 48.7581 15.125C49.0619 15.0103 49.3256 14.8556 49.5492 14.6607C49.7727 14.46 49.9447 14.2279 50.0651 13.9642C50.1912 13.6947 50.2543 13.4052 50.2543 13.0957C50.2543 12.7861 50.1912 12.4995 50.0651 12.2358C49.9447 11.9664 49.7727 11.7342 49.5492 11.5393C49.3256 11.3387 49.0619 11.1839 48.7581 11.075C48.4543 10.9603 48.1189 10.903 47.752 10.903C47.3851 10.903 47.0498 10.9603 46.746 11.075C46.4421 11.1839 46.1784 11.3358 45.9549 11.5307C45.7313 11.7256 45.5593 11.9578 45.4389 12.2272C45.3186 12.4909 45.2584 12.7804 45.2584 13.0957C45.2584 13.4052 45.3186 13.6947 45.4389 13.9642C45.5593 14.2336 45.7313 14.4658 45.9549 14.6607C46.1784 14.8556 46.4421 15.0103 46.746 15.125C47.0498 15.2339 47.3851 15.2884 47.752 15.2884Z" fill="url(#paint2_linear_290_9916)"/>
<defs>
<linearGradient id="paint0_linear_290_9916" x1="34.3125" y1="12.9601" x2="63.1486" y2="12.9601" gradientUnits="userSpaceOnUse">
<stop stop-color="#6B00FF"/>
<stop offset="1" stop-color="#A237FF"/>
</linearGradient>
<linearGradient id="paint1_linear_290_9916" x1="40.3125" y1="13.0002" x2="56.3126" y2="13.0002" gradientUnits="userSpaceOnUse">
<stop stop-color="#6B00FF"/>
<stop offset="1" stop-color="#A237FF"/>
</linearGradient>
<linearGradient id="paint2_linear_290_9916" x1="44.3125" y1="13.0957" x2="51.2001" y2="13.0957" gradientUnits="userSpaceOnUse">
<stop stop-color="#6B00FF"/>
<stop offset="1" stop-color="#A237FF"/>
</linearGradient>
</defs>
</svg>
