<svg width="241" height="30" viewBox="0 0 241 30" fill="none" xmlns="http://www.w3.org/2000/svg">
<path d="M15.9616 29.892C13.6871 29.892 11.8841 29.2263 10.5527 27.8949C9.24902 26.5635 8.59718 24.7744 8.59718 22.5276C8.59718 21.8896 8.62492 21.4042 8.68039 21.0714L11.1352 2.47132C11.1629 2.33263 -0.082754 0.604213 0.000459543 0.520999C0.111411 0.410048 0.15238 0.434415 0.291069 0.434415H17.4178C17.5565 0.434415 17.6675 0.489891 17.7507 0.600842C17.8339 0.684056 17.8616 0.795008 17.8339 0.933697L15.2959 21.7371L15.2543 22.1948C15.2543 22.7495 15.3791 23.1933 15.6287 23.5262C15.9061 23.8313 16.2667 23.9839 16.7105 23.9839C17.2375 23.9839 17.6675 23.7758 18.0003 23.3598C18.3609 22.9437 18.5828 22.4028 18.666 21.7371L21.2456 0.933697C21.2456 0.795008 21.3011 0.684056 21.4121 0.600842C21.523 0.489891 21.6478 0.434415 21.7865 0.434415H27.4867C27.7918 0.434415 27.9443 0.600842 27.9443 0.933697L25.4479 21.0714C25.1151 23.7342 24.0749 25.87 22.3274 27.4788C20.6077 29.0876 18.4857 29.892 15.9616 29.892Z" fill="#4BFF2A"/>
<path d="M42.1277 0.933697C42.1554 0.795008 42.2109 0.684056 42.2941 0.600842C42.4051 0.489891 42.5299 0.434415 42.6686 0.434415H48.3271C48.4658 0.434415 48.5767 0.489891 48.66 0.600842C48.7432 0.684056 48.7709 0.795008 48.7432 0.933697L45.2898 29.0599C45.2898 29.1986 45.2343 29.3234 45.1234 29.4343C45.0124 29.5176 44.8876 29.5592 44.7489 29.5592H38.3415C38.0641 29.5592 37.8977 29.4205 37.8422 29.1431L35.5954 14.6639C35.5954 14.5807 35.5538 14.5391 35.4706 14.5391C35.4151 14.5114 35.3874 14.553 35.3874 14.6639L33.6815 29.0599C33.6538 29.1986 33.5844 29.3234 33.4735 29.4343C33.3903 29.5176 33.2793 29.5592 33.1406 29.5592H27.4821C27.3434 29.5592 27.2325 29.5176 27.1492 29.4343C27.066 29.3234 27.0383 29.1986 27.066 29.0599L30.5194 0.933697C30.5471 0.795008 30.6026 0.684056 30.6858 0.600842C30.7968 0.489891 30.9216 0.434415 31.0603 0.434415H37.3845C37.6896 0.434415 37.8699 0.573104 37.9254 0.850482L40.1722 15.4129C40.1722 15.4961 40.1999 15.5377 40.2554 15.5377C40.3386 15.5377 40.3941 15.4822 40.4218 15.3712L42.1277 0.933697Z" fill="#4BFF2A"/>
<path d="M48.5293 29.5592C48.3906 29.5592 48.2796 29.5176 48.1964 29.4343C48.1132 29.3234 48.0855 29.1986 48.1132 29.0599L51.5666 0.933697C51.5943 0.795008 51.6498 0.684056 51.733 0.600842C51.8439 0.489891 51.9688 0.434415 52.1075 0.434415H57.8492C57.9879 0.434415 58.0988 0.489891 58.1821 0.600842C58.2653 0.684056 58.293 0.795008 58.2653 0.933697L55.5192 23.443C55.4637 23.5817 55.5192 23.651 55.6856 23.651H63.9238C64.0625 23.651 64.1734 23.7065 64.2567 23.8174C64.3399 23.9006 64.3676 24.0116 64.3399 24.1503L63.7158 29.0599C63.7158 29.1986 63.6603 29.3234 63.5493 29.4343C63.4384 29.5176 63.3136 29.5592 63.1749 29.5592H48.5293Z" fill="#4BFF2A"/>
<path d="M66.1228 29.5592C65.9841 29.5592 65.8731 29.5176 65.7899 29.4343C65.7067 29.3234 65.679 29.1986 65.7067 29.0599L69.1601 0.933697C69.1878 0.795008 69.2433 0.684056 69.3265 0.600842C69.4375 0.489891 69.5623 0.434415 69.701 0.434415H75.4427C75.5814 0.434415 75.6924 0.489891 75.7756 0.600842C75.8588 0.684056 75.8865 0.795008 75.8588 0.933697L72.4054 29.0599C72.3777 29.1986 72.3083 29.3234 72.1974 29.4343C72.1142 29.5176 72.0032 29.5592 71.8645 29.5592H66.1228Z" fill="#4BFF2A"/>
<path d="M91.8166 0.76727C91.9276 0.545367 92.1356 0.434415 92.4407 0.434415H98.0576C98.1963 0.434415 98.3073 0.489891 98.3905 0.600842C98.4737 0.684056 98.5014 0.795008 98.4737 0.933697L95.0203 29.0599C94.9926 29.1986 94.9232 29.3234 94.8123 29.4343C94.7291 29.5176 94.6181 29.5592 94.4794 29.5592H88.7377C88.599 29.5592 88.4881 29.5176 88.4048 29.4343C88.3216 29.3234 88.2939 29.1986 88.3216 29.0599L90.5268 11.2106C90.5545 11.0996 90.5268 11.0441 90.4436 11.0441C90.3881 11.0164 90.3326 11.0441 90.2772 11.1274L86.8238 16.2034C86.7128 16.4253 86.6296 16.5362 86.5741 16.5362C86.4909 16.5362 86.4077 16.4253 86.3245 16.2034L84.1193 11.1274C84.0639 11.0441 84.0084 11.0025 83.9529 11.0025C83.9252 11.0025 83.8974 11.058 83.8697 11.169L81.6646 29.0599C81.6368 29.1986 81.5675 29.3234 81.4565 29.4343C81.3733 29.5176 81.2624 29.5592 81.1237 29.5592H75.3819C75.2432 29.5592 75.1323 29.5176 75.0491 29.4343C74.9659 29.3234 74.9381 29.1986 74.9659 29.0599L78.4192 0.933697C78.447 0.795008 78.5024 0.684056 78.5856 0.600842C78.6966 0.489891 78.8214 0.434415 78.9601 0.434415H84.6186C84.8683 0.434415 85.0624 0.545367 85.2011 0.76727L87.6559 6.80025C87.7391 6.9112 87.8223 6.9112 87.9056 6.80025L91.8166 0.76727Z" fill="#4BFF2A"/>
<path d="M98.0999 29.5592C97.9612 29.5592 97.8502 29.5176 97.767 29.4343C97.6838 29.3234 97.6561 29.1986 97.6838 29.0599L101.137 0.933697C101.165 0.795008 101.22 0.684056 101.304 0.600842C101.415 0.489891 101.539 0.434415 101.678 0.434415H107.42C107.558 0.434415 107.669 0.489891 107.753 0.600842C107.836 0.684056 107.864 0.795008 107.836 0.933697L104.382 29.0599C104.355 29.1986 104.285 29.3234 104.174 29.4343C104.091 29.5176 103.98 29.5592 103.842 29.5592H98.0999Z" fill="#4BFF2A"/>
<path d="M127.497 0.434415C127.635 0.434415 127.746 0.489891 127.83 0.600842C127.913 0.684056 127.941 0.795008 127.913 0.933697L127.33 5.8433C127.303 5.98199 127.233 6.10681 127.122 6.21776C127.039 6.30097 126.928 6.34258 126.789 6.34258H121.755C121.616 6.34258 121.547 6.41192 121.547 6.55061L118.759 29.0599C118.759 29.1986 118.704 29.3234 118.593 29.4343C118.482 29.5176 118.357 29.5592 118.218 29.5592H112.518C112.213 29.5592 112.061 29.3927 112.061 29.0599L114.848 6.55061C114.848 6.41192 114.793 6.34258 114.682 6.34258H109.855C109.717 6.34258 109.606 6.30097 109.523 6.21776C109.439 6.10681 109.412 5.98199 109.439 5.8433L110.022 0.933697C110.05 0.795008 110.119 0.684056 110.23 0.600842C110.341 0.489891 110.466 0.434415 110.604 0.434415H127.497Z" fill="#4BFF2A"/>
<path d="M142.811 29.892C140.481 29.892 138.65 29.254 137.318 27.9781C135.987 26.7022 135.321 24.9547 135.321 22.7356C135.321 22.4305 135.349 21.9729 135.405 21.3626L136.986 8.58934C137.291 5.98199 138.303 3.91551 140.023 2.38993C141.743 0.864353 143.878 0.101562 146.43 0.101562C148.76 0.101562 150.591 0.739532 151.922 2.01547C153.282 3.26368 153.961 4.98342 153.961 7.17471C153.961 7.45209 153.933 7.92364 153.878 8.58934L153.836 8.96381C153.809 9.1025 153.739 9.22731 153.628 9.33827C153.545 9.42148 153.434 9.46309 153.296 9.46309L147.512 9.71273C147.207 9.71273 147.068 9.5463 147.096 9.21345L147.263 8.09006C147.318 7.45209 147.207 6.95281 146.93 6.59222C146.652 6.20389 146.25 6.00972 145.723 6.00972C145.196 6.00972 144.752 6.20389 144.392 6.59222C144.031 6.95281 143.809 7.45209 143.726 8.09006L142.02 21.9451C141.965 22.5554 142.062 23.0546 142.311 23.443C142.589 23.8036 142.991 23.9839 143.518 23.9839C144.045 23.9839 144.489 23.8036 144.849 23.443C145.238 23.0546 145.473 22.5554 145.557 21.9451L145.681 20.7385C145.709 20.5998 145.765 20.4889 145.848 20.4057C145.959 20.2947 146.084 20.2392 146.222 20.2392L151.922 20.4889C152.228 20.4889 152.38 20.6553 152.38 20.9882L152.297 21.3626C151.992 23.9422 150.966 26.0087 149.218 27.562C147.498 29.1154 145.362 29.892 142.811 29.892Z" fill="#4BFF2A"/>
<path d="M165.417 29.5592C165.112 29.5592 164.959 29.4066 164.959 29.1015L164.876 25.4817C164.904 25.4262 164.89 25.3846 164.835 25.3569C164.779 25.3014 164.724 25.2737 164.668 25.2737H160.299C160.133 25.2737 160.05 25.343 160.05 25.4817L159.134 29.1015C159.051 29.4066 158.857 29.5592 158.552 29.5592H152.81C152.477 29.5592 152.366 29.3789 152.477 29.0183L161.162 2.90472C161.245 2.5996 151.41 0.434415 151.715 0.434415H168.912C169.245 0.434415 169.411 0.586974 169.411 0.892091L171.741 29.0183V29.1431C171.741 29.4205 171.589 29.5592 171.284 29.5592H165.417ZM161.631 19.74C161.631 19.8787 161.672 19.948 161.756 19.948H164.46C164.599 19.948 164.668 19.8787 164.668 19.74L164.377 10.2536C164.377 10.1427 164.349 10.0872 164.294 10.0872C164.238 10.0872 164.183 10.1427 164.127 10.2536L161.631 19.74Z" fill="#4BFF2A"/>
<path d="M180.47 29.892C178.196 29.892 176.393 29.2957 175.061 28.1029C173.758 26.8825 173.106 25.2737 173.106 23.2765C173.106 23.0269 173.134 22.6524 173.189 22.1532L173.314 20.8633C173.342 20.7247 173.411 20.6137 173.522 20.5305C173.633 20.4195 173.758 20.3641 173.896 20.3641H179.513C179.818 20.3641 179.971 20.5305 179.971 20.8633L179.846 21.8203L179.805 22.2364C179.805 22.7634 179.929 23.1933 180.179 23.5262C180.456 23.8313 180.803 23.9839 181.219 23.9839C181.746 23.9839 182.19 23.7758 182.551 23.3598C182.939 22.9159 183.133 22.3473 183.133 21.6539C183.133 21.1269 182.911 20.6137 182.467 20.1144C182.051 19.6151 181.233 18.8662 180.013 17.8677C178.848 16.9246 177.918 16.1063 177.225 15.4129C176.531 14.7194 175.921 13.8734 175.394 12.8748C174.895 11.8485 174.645 10.6836 174.645 9.37987C174.645 7.57691 175.048 5.96812 175.852 4.55349C176.656 3.13886 177.766 2.04321 179.18 1.26655C180.595 0.489892 182.19 0.101562 183.965 0.101562C186.212 0.101562 188.001 0.739532 189.332 2.01547C190.664 3.26368 191.33 4.94182 191.33 7.04989C191.33 7.29953 191.302 7.70173 191.246 8.25649L191.122 9.25505C191.094 9.39374 191.025 9.51856 190.914 9.62951C190.803 9.71273 190.678 9.75433 190.539 9.75433H184.964C184.659 9.75433 184.506 9.58791 184.506 9.25505L184.673 8.09006C184.728 7.47983 184.617 6.98055 184.34 6.59222C184.09 6.20389 183.716 6.00972 183.216 6.00972C182.689 6.00972 182.232 6.24549 181.843 6.71704C181.483 7.18858 181.302 7.78495 181.302 8.50613C181.302 9.08862 181.51 9.65725 181.926 10.212C182.37 10.739 183.161 11.4741 184.298 12.4172C185.713 13.6099 186.767 14.5807 187.46 15.3296C188.181 16.0508 188.75 16.8414 189.166 17.7012C189.61 18.5334 189.832 19.4903 189.832 20.5721C189.832 20.794 189.804 21.1823 189.749 21.7371C189.443 24.2335 188.431 26.2167 186.711 27.6869C185.019 29.157 182.939 29.892 180.47 29.892Z" fill="#4BFF2A"/>
<path d="M191.471 29.5592C191.333 29.5592 191.222 29.5176 191.138 29.4343C191.055 29.3234 191.028 29.1986 191.055 29.0599L194.509 0.933697C194.536 0.795008 194.592 0.684056 194.675 0.600842C194.786 0.489891 194.911 0.434415 195.05 0.434415H200.791C200.93 0.434415 201.041 0.489891 201.124 0.600842C201.207 0.684056 201.235 0.795008 201.207 0.933697L197.754 29.0599C197.726 29.1986 197.657 29.3234 197.546 29.4343C197.463 29.5176 197.352 29.5592 197.213 29.5592H191.471Z" fill="#4BFF2A"/>
<path d="M215.584 0.933697C215.612 0.795008 215.667 0.684056 215.751 0.600842C215.861 0.489891 215.986 0.434415 216.125 0.434415H221.783C221.922 0.434415 222.033 0.489891 222.116 0.600842C222.2 0.684056 222.227 0.795008 222.2 0.933697L218.746 29.0599C218.746 29.1986 218.691 29.3234 218.58 29.4343C218.469 29.5176 218.344 29.5592 218.205 29.5592H211.798C211.52 29.5592 211.354 29.4205 211.299 29.1431L209.052 14.6639C209.052 14.5807 209.01 14.5391 208.927 14.5391C208.872 14.5114 208.844 14.553 208.844 14.6639L207.138 29.0599C207.11 29.1986 207.041 29.3234 206.93 29.4343C206.847 29.5176 206.736 29.5592 206.597 29.5592H200.939C200.8 29.5592 200.689 29.5176 200.606 29.4343C200.522 29.3234 200.495 29.1986 200.522 29.0599L203.976 0.933697C204.004 0.795008 204.059 0.684056 204.142 0.600842C204.253 0.489891 204.378 0.434415 204.517 0.434415H210.841C211.146 0.434415 211.326 0.573104 211.382 0.850482L213.629 15.4129C213.629 15.4961 213.656 15.5377 213.712 15.5377C213.795 15.5377 213.85 15.4822 213.878 15.3712L215.584 0.933697Z" fill="#4BFF2A"/>
<path d="M229.683 29.892C227.325 29.892 225.467 29.254 224.108 27.9781C222.776 26.6744 222.111 24.8992 222.111 22.6524C222.111 22.3473 222.138 21.8896 222.194 21.2794L223.733 8.71416C224.066 6.07907 225.092 3.98486 226.812 2.43154C228.56 0.878222 230.737 0.101562 233.344 0.101562C235.702 0.101562 237.561 0.753402 238.92 2.05708C240.307 3.36076 241 5.13598 241 7.38275C241 7.66013 240.972 8.10393 240.917 8.71416L239.336 21.2794C239.031 23.9145 237.99 26.0087 236.215 27.562C234.468 29.1154 232.29 29.892 229.683 29.892ZM230.432 23.9839C231.014 23.9839 231.5 23.7758 231.888 23.3598C232.276 22.9159 232.526 22.3196 232.637 21.5707L234.218 8.42292C234.246 8.28423 234.26 8.10393 234.26 7.88203C234.26 7.29953 234.121 6.84186 233.844 6.50901C233.566 6.17615 233.164 6.00972 232.637 6.00972C232.055 6.00972 231.569 6.23163 231.181 6.67543C230.792 7.11924 230.557 7.70173 230.473 8.42292L228.851 21.5707L228.809 22.0283C228.809 22.6386 228.948 23.124 229.225 23.4846C229.503 23.8174 229.905 23.9839 230.432 23.9839Z" fill="#4BFF2A"/>
<rect x="191.285" y="20.4609" width="7.80127" height="4.76744" fill="#0A0235"/>
</svg>
