<svg width="147" height="36" viewBox="0 0 147 36" fill="none" xmlns="http://www.w3.org/2000/svg">
<path d="M19.8001 8.42175C19.8001 11.359 18.8554 13.7936 16.966 15.7258C16.0427 16.6702 14.9227 17.4023 13.6061 17.9222C12.1955 18.4854 10.5498 18.7497 8.66893 18.715L4.14211 18.637C2.91102 18.6197 1.89366 18.6457 1.09003 18.715L0.96179 18.585V18.2211L1.02591 18.0652C1.65855 17.6579 2.00052 17.4023 2.05182 17.2984C2.12876 17.1424 2.17578 16.5662 2.19288 15.5698L2.23135 12.6586V6.06938C2.23135 4.00726 2.17578 2.66429 2.06464 2.04045C2.0219 1.78919 1.87656 1.6289 1.62863 1.55958C1.50039 1.52493 1.00026 1.4816 0.128239 1.42962L0 1.29965V0.415889L0.128239 0.29892C1.03446 0.350906 1.89793 0.376899 2.71866 0.376899C4.71063 0.376899 6.50598 0.350906 8.10468 0.29892C8.89976 0.272927 9.69912 0.25993 10.5027 0.25993C12.7256 0.25993 14.4311 0.515529 15.6195 1.02673C16.919 1.58991 17.9363 2.47367 18.6716 3.67802C19.4239 4.91702 19.8001 6.49826 19.8001 8.42175ZM15.8631 9.04558C15.8631 6.64556 15.2903 4.80005 14.1447 3.50906C13.5463 2.83324 12.7982 2.3567 11.9005 2.07944C11.0456 1.81951 9.853 1.68955 8.32269 1.68955C7.52761 1.68955 6.76673 1.74587 6.04004 1.8585C5.95455 2.82891 5.9118 5.17695 5.9118 8.90262L5.93745 14.5821C5.946 15.8471 5.9802 16.6875 6.04004 17.1034C6.79238 17.2247 7.56181 17.2854 8.34834 17.2854C10.0496 17.2854 11.3919 17.0341 12.375 16.5316C13.4351 15.9857 14.2772 15.0586 14.9013 13.7503C15.5425 12.3987 15.8631 10.8304 15.8631 9.04558Z" fill="#2C2C2C"/>
<path d="M35.9453 14.2962C35.7572 15.5612 35.6632 16.9908 35.6632 18.585L35.5349 18.715L26.212 18.637C24.656 18.637 23.5574 18.663 22.9163 18.715L22.788 18.585V18.2211L22.8521 18.0652C23.4848 17.6579 23.8267 17.4023 23.878 17.2984C23.955 17.1338 24.002 16.5576 24.0191 15.5698L24.0576 12.6586V6.06938C24.0576 4.00726 24.002 2.66429 23.8909 2.04045C23.8481 1.78919 23.7028 1.6289 23.4549 1.55958C23.3266 1.52493 22.8265 1.4816 21.9545 1.42962L21.8262 1.29965V0.415889L21.9545 0.29892C22.8179 0.350906 24.1516 0.376899 25.9555 0.376899C27.5628 0.376899 30.6191 0.350906 35.1246 0.29892L35.2656 0.402892L35.0989 1.84551C35.0476 2.30472 35.0092 2.69461 34.9835 3.01519L34.8937 4.22387L34.7655 4.36683H34.0217L33.8935 4.23687C33.8849 3.05852 33.8165 2.38703 33.6883 2.22241C33.5943 2.1011 33.1326 2.0058 32.3033 1.93648C31.4826 1.86717 30.7602 1.83251 30.1361 1.83251C29.3923 1.83251 28.64 1.86284 27.8791 1.92349C27.785 2.83324 27.738 4.0939 27.738 5.70547V8.39575C28.4134 8.43908 28.9606 8.46074 29.3795 8.46074L31.0594 8.44774C31.8459 8.43908 32.2905 8.37409 32.3931 8.25279C32.5299 8.09683 32.6196 7.51199 32.6624 6.49826L32.7906 6.3683H33.5857L33.7139 6.49826C33.6798 7.46867 33.6627 8.35676 33.6627 9.16255C33.6627 10.0376 33.6798 10.9951 33.7139 12.0348L33.5857 12.1517H32.7265L32.5983 12.0218C32.5983 11.0254 32.5299 10.4362 32.3931 10.2543C32.2563 10.0636 31.8417 9.93801 31.1492 9.87736C30.6277 9.83404 30.072 9.81238 29.4821 9.81238C28.858 9.81238 28.2766 9.83404 27.738 9.87736V13.8413C27.738 14.9763 27.7594 16.0767 27.8021 17.1424H29.5462C32.0426 17.1424 33.5729 17.0428 34.1371 16.8435C34.2312 16.8088 34.2996 16.7612 34.3423 16.7005C34.4278 16.5792 34.509 16.3193 34.586 15.9207L34.8937 14.3092L35.022 14.1662H35.8042L35.9453 14.2962Z" fill="#2C2C2C"/>
<path d="M51.8725 14.2962C51.6845 15.5612 51.5904 16.9908 51.5904 18.585L51.4622 18.715L42.1392 18.637C40.5833 18.637 39.4847 18.663 38.8435 18.715L38.7153 18.585V18.2211L38.7794 18.0652C39.412 17.6579 39.754 17.4023 39.8053 17.2984C39.8822 17.1338 39.9293 16.5576 39.9464 15.5698L39.9848 12.6586V6.06938C39.9848 4.00726 39.9292 2.66429 39.8181 2.04045C39.7754 1.78919 39.63 1.6289 39.3821 1.55958C39.2539 1.52493 38.7537 1.4816 37.8817 1.42962L37.7535 1.29965V0.415889L37.8817 0.29892C38.7452 0.350906 40.0789 0.376899 41.8828 0.376899C43.49 0.376899 46.5464 0.350906 51.0518 0.29892L51.1929 0.402892L51.0262 1.84551C50.9749 2.30472 50.9364 2.69461 50.9108 3.01519L50.821 4.22387L50.6927 4.36683H49.949L49.8207 4.23687C49.8122 3.05852 49.7438 2.38703 49.6155 2.22241C49.5215 2.1011 49.0598 2.0058 48.2306 1.93648C47.4098 1.86717 46.6874 1.83251 46.0633 1.83251C45.3195 1.83251 44.5672 1.86284 43.8063 1.92349C43.7123 2.83324 43.6653 4.0939 43.6653 5.70547V8.39575C44.3407 8.43908 44.8878 8.46074 45.3067 8.46074L46.9867 8.44774C47.7732 8.43908 48.2177 8.37409 48.3203 8.25279C48.4571 8.09683 48.5469 7.51199 48.5896 6.49826L48.7179 6.3683H49.513L49.6412 6.49826C49.607 7.46867 49.5899 8.35676 49.5899 9.16255C49.5899 10.0376 49.607 10.9951 49.6412 12.0348L49.513 12.1517H48.6538L48.5255 12.0218C48.5255 11.0254 48.4571 10.4362 48.3203 10.2543C48.1835 10.0636 47.7689 9.93801 47.0764 9.87736C46.5549 9.83404 45.9992 9.81238 45.4093 9.81238C44.7852 9.81238 44.2039 9.83404 43.6653 9.87736V13.8413C43.6653 14.9763 43.6866 16.0767 43.7294 17.1424H45.4734C47.9698 17.1424 49.5001 17.0428 50.0644 16.8435C50.1584 16.8088 50.2268 16.7612 50.2696 16.7005C50.3551 16.5792 50.4363 16.3193 50.5132 15.9207L50.821 14.3092L50.9492 14.1662H51.7315L51.8725 14.2962Z" fill="#2C2C2C"/>
<path d="M71.2366 18.585L71.1083 18.715C71.0485 18.715 70.8861 18.7107 70.621 18.702C69.4498 18.6587 68.7188 18.637 68.4282 18.637C67.9921 18.637 67.2997 18.663 66.3507 18.715C66.3165 18.507 66.1541 18.1605 65.8634 17.6753L62.6831 12.2947L61.2596 10.0983C61.0801 9.8297 60.8279 9.56544 60.503 9.30551L60.6441 8.86363C60.8407 8.87229 60.986 8.87663 61.0801 8.87663C61.9179 8.87663 62.5762 8.74233 63.055 8.47373C63.491 8.23113 63.8928 7.80658 64.2604 7.20007C64.628 6.59357 64.8118 5.8701 64.8118 5.02965C64.8118 3.56538 64.2732 2.57764 63.196 2.06645C62.6831 1.82385 61.935 1.70254 60.9518 1.70254C60.5244 1.70254 60.114 1.7372 59.7207 1.80652C59.6353 2.65562 59.5925 4.10257 59.5925 6.14736V12.9445C59.5925 15.0067 59.6481 16.3496 59.7592 16.9735C59.802 17.2247 59.9473 17.385 60.1952 17.4543C60.3235 17.489 60.8236 17.5323 61.6956 17.5843L61.8239 17.7143V18.585L61.7085 18.715C60.8535 18.663 59.5369 18.637 57.7587 18.637C55.9206 18.637 54.604 18.663 53.8089 18.715L53.6807 18.598V17.7143L53.8089 17.5843C54.681 17.5323 55.1811 17.489 55.3093 17.4543C55.5573 17.385 55.7026 17.2247 55.7453 16.9735C55.8565 16.3496 55.9121 15.0067 55.9121 12.9445V6.06938C55.9121 4.00726 55.8565 2.66429 55.7453 2.04045C55.7026 1.78919 55.5573 1.6289 55.3093 1.55958C55.1811 1.52493 54.681 1.4816 53.8089 1.42962L53.6807 1.29965V0.415889L53.8089 0.29892C54.6468 0.350906 55.9634 0.376899 57.7587 0.376899C58.8017 0.376899 59.6481 0.363903 60.2978 0.33791C61.5888 0.285924 62.5548 0.25993 63.196 0.25993C64.675 0.25993 65.7608 0.394228 66.4533 0.662823C67.3851 1.02673 68.0092 1.64189 68.3256 2.50833C68.4795 2.93288 68.5564 3.43541 68.5564 4.01593C68.5564 6.37263 67.2484 8.04485 64.6323 9.03258C65.0598 9.76039 65.5129 10.4969 65.9916 11.242L67.9665 14.3222C69.1292 16.1417 69.9029 17.1771 70.2876 17.4283C70.4842 17.5583 70.7578 17.6233 71.1083 17.6233L71.2366 17.7533V18.585Z" fill="#2C2C2C"/>
<path d="M85.2787 0.402892L85.112 1.8845C85.0778 2.21374 85.0393 2.64696 84.9966 3.18415L84.9196 4.22387L84.7914 4.36683H84.0476L83.9194 4.23687C83.9023 3.06718 83.8339 2.40002 83.7142 2.2354C83.5176 1.96681 82.325 1.83251 80.1363 1.83251C79.7858 1.83251 79.2344 1.8585 78.4821 1.91049C78.388 2.79425 78.341 4.37983 78.341 6.66722V8.42175L79.7901 8.46074C80.2261 8.4694 81.034 8.45207 82.2138 8.40875C82.4446 8.40009 82.5985 8.3351 82.6755 8.2138C82.8037 8.00586 82.8807 7.43401 82.9063 6.49826L83.0345 6.3683H83.8296L83.9579 6.49826C83.9237 7.46867 83.9066 8.35676 83.9066 9.16255C83.9066 10.0376 83.9237 10.9951 83.9579 12.0348L83.8296 12.1517H82.9704L82.8422 12.0218C82.8422 11.112 82.8037 10.5792 82.7268 10.4232C82.5814 10.12 82.1412 9.93801 81.4059 9.87736C80.9015 9.83404 80.4057 9.81238 79.9183 9.81238C79.3284 9.81238 78.8027 9.82537 78.341 9.85137V12.9445C78.341 14.998 78.3966 16.341 78.5077 16.9735C78.5505 17.2247 78.6958 17.385 78.9437 17.4543C79.0036 17.4717 79.6148 17.515 80.7775 17.5843L80.9058 17.7143V18.585L80.7647 18.715L75.6095 18.637C74.8743 18.6284 73.8569 18.6543 72.5574 18.715L72.4292 18.598V17.7143L72.5574 17.5843C73.4295 17.5323 73.9296 17.489 74.0578 17.4543C74.3058 17.385 74.4511 17.2247 74.4939 16.9735C74.605 16.341 74.6606 14.998 74.6606 12.9445V6.06938C74.6606 4.01593 74.605 2.67295 74.4939 2.04045C74.4511 1.78919 74.3058 1.6289 74.0578 1.55958C73.9296 1.52493 73.4295 1.4816 72.5574 1.42962L72.4292 1.29965V0.415889L72.5574 0.29892C73.3782 0.350906 74.6948 0.376899 76.5072 0.376899C77.6784 0.376899 80.5595 0.350906 85.1505 0.29892L85.2787 0.402892Z" fill="#2C2C2C"/>
<path d="M106.925 9.03258C106.925 12.2297 106.006 14.7381 104.168 16.5576C102.381 18.3251 99.9407 19.2089 96.8458 19.2089C93.922 19.2089 91.6265 18.3771 89.9594 16.7135C88.2923 15.0413 87.4588 12.7193 87.4588 9.74739C87.4588 5.57984 89.0276 2.69461 92.1651 1.09171C93.5929 0.363903 95.3497 0 97.4357 0C100.419 0 102.741 0.792788 104.399 2.37836C106.083 3.98993 106.925 6.20801 106.925 9.03258ZM102.976 9.7084C102.976 7.19574 102.476 5.20294 101.475 3.73C100.484 2.2484 99.0259 1.5076 97.1023 1.5076C94.5632 1.5076 92.879 2.66429 92.0497 4.97767C91.6223 6.16468 91.4085 7.49466 91.4085 8.9676C91.4085 11.6449 91.8958 13.759 92.8704 15.3099C93.8793 16.9128 95.3882 17.7143 97.3973 17.7143C99.8338 17.7143 101.471 16.4969 102.309 14.0622C102.753 12.7713 102.976 11.32 102.976 9.7084Z" fill="#2C2C2C"/>
<path d="M128.803 9.03258C128.803 12.2297 127.884 14.7381 126.046 16.5576C124.259 18.3251 121.818 19.2089 118.723 19.2089C115.8 19.2089 113.504 18.3771 111.837 16.7135C110.17 15.0413 109.336 12.7193 109.336 9.74739C109.336 5.57984 110.905 2.69461 114.043 1.09171C115.47 0.363903 117.227 0 119.313 0C122.297 0 124.618 0.792788 126.277 2.37836C127.961 3.98993 128.803 6.20801 128.803 9.03258ZM124.853 9.7084C124.853 7.19574 124.353 5.20294 123.353 3.73C122.361 2.2484 120.903 1.5076 118.98 1.5076C116.441 1.5076 114.757 2.66429 113.927 4.97767C113.5 6.16468 113.286 7.49466 113.286 8.9676C113.286 11.6449 113.773 13.759 114.748 15.3099C115.757 16.9128 117.266 17.7143 119.275 17.7143C121.711 17.7143 123.349 16.4969 124.186 14.0622C124.631 12.7713 124.853 11.32 124.853 9.7084Z" fill="#2C2C2C"/>
<path d="M147 0.376899C146.897 1.01806 146.842 1.68088 146.833 2.36537L146.808 4.53579L146.679 4.66575H145.871L145.73 4.54878C145.688 3.43975 145.641 2.78992 145.589 2.5993C145.487 2.25273 145.213 2.04912 144.769 1.98847C144.598 1.96248 143.794 1.94948 142.358 1.94948H140.639C140.622 2.25273 140.614 3.45708 140.614 5.56251V12.9445C140.614 15.0067 140.669 16.3496 140.78 16.9735C140.823 17.2247 140.969 17.385 141.216 17.4543C141.345 17.489 141.845 17.5323 142.717 17.5843L142.845 17.7143V18.585L142.717 18.715C141.87 18.663 140.554 18.637 138.767 18.637C136.938 18.637 135.621 18.663 134.817 18.715L134.702 18.598V17.7143L134.83 17.5843C135.702 17.5323 136.202 17.489 136.331 17.4543C136.578 17.385 136.724 17.2247 136.767 16.9735C136.878 16.3496 136.933 15.0067 136.933 12.9445V5.56251C136.933 3.42242 136.92 2.21807 136.895 1.94948H135.061C133.531 1.94948 132.637 1.99713 132.381 2.09244C132.244 2.14443 132.15 2.20941 132.099 2.28739C132.022 2.42602 131.958 2.70328 131.906 3.11917C131.846 3.57838 131.808 4.05058 131.791 4.53579L131.663 4.66575H130.855L130.714 4.53579L130.688 2.31338C130.679 1.68955 130.628 1.04405 130.534 0.376899L130.65 0.246934C131.154 0.333577 132.992 0.376899 136.164 0.376899H141.357C144.281 0.376899 146.119 0.333577 146.872 0.246934L147 0.376899Z" fill="#2C2C2C"/>
<path d="M44.5211 35.9148C43.7862 35.9148 43.1064 35.7937 42.4817 35.5517C41.8662 35.3003 41.3288 34.9511 40.8694 34.5042C40.4193 34.048 40.0656 33.5173 39.8084 32.9122C39.5511 32.307 39.4225 31.6413 39.4225 30.9151C39.4225 30.1889 39.5511 29.5232 39.8084 28.918C40.0656 28.3128 40.4239 27.7868 40.8832 27.3399C41.3425 26.8837 41.88 26.5346 42.4955 26.2925C43.1202 26.0411 43.8 25.9154 44.5349 25.9154C45.279 25.9154 45.9635 26.0458 46.5882 26.3064C47.222 26.5578 47.7595 26.9349 48.2004 27.4377L47.3047 28.3175C46.9372 27.9265 46.5238 27.6378 46.0645 27.4516C45.6052 27.2561 45.1137 27.1583 44.59 27.1583C44.048 27.1583 43.5428 27.2515 43.0742 27.4377C42.6149 27.6239 42.2153 27.8846 41.8754 28.2197C41.5355 28.5549 41.2691 28.9553 41.0761 29.4208C40.8924 29.877 40.8005 30.3751 40.8005 30.9151C40.8005 31.4551 40.8924 31.9579 41.0761 32.4234C41.2691 32.8796 41.5355 33.2753 41.8754 33.6105C42.2153 33.9456 42.6149 34.2063 43.0742 34.3925C43.5428 34.5787 44.048 34.6718 44.59 34.6718C45.1137 34.6718 45.6052 34.5787 46.0645 34.3925C46.5238 34.197 46.9372 33.8991 47.3047 33.4987L48.2004 34.3786C47.7595 34.8813 47.222 35.263 46.5882 35.5237C45.9635 35.7844 45.2745 35.9148 44.5211 35.9148Z" fill="#2C2C2C"/>
<path d="M51.2328 35.803L55.6011 26.0271H56.9653L61.3473 35.803H59.9004L56.0007 26.8092H56.5519L52.6521 35.803H51.2328ZM53.0931 33.3591L53.4652 32.2418H58.8945L59.2941 33.3591H53.0931Z" fill="#2C2C2C"/>
<path d="M68.3534 35.9148C67.6185 35.9148 66.9157 35.803 66.2451 35.5796C65.5744 35.3468 65.0462 35.0489 64.6604 34.6858L65.1702 33.5965C65.5377 33.9223 66.0062 34.1923 66.5758 34.4065C67.1454 34.6206 67.7379 34.7277 68.3534 34.7277C68.9138 34.7277 69.3686 34.6625 69.7177 34.5322C70.0667 34.4018 70.324 34.2249 70.4893 34.0015C70.6547 33.7687 70.7374 33.508 70.7374 33.2194C70.7374 32.8842 70.6271 32.6142 70.4067 32.4094C70.1954 32.2046 69.9152 32.0416 69.5661 31.9206C69.2262 31.7903 68.8495 31.6785 68.4361 31.5854C68.0227 31.4923 67.6047 31.3853 67.1821 31.2642C66.7687 31.1339 66.3875 30.971 66.0384 30.7754C65.6985 30.5799 65.4229 30.3192 65.2116 29.9934C65.0003 29.6582 64.8946 29.2299 64.8946 28.7085C64.8946 28.2058 65.0232 27.7449 65.2805 27.3259C65.5469 26.8977 65.9511 26.5578 66.4931 26.3064C67.0443 26.0458 67.7425 25.9154 68.5877 25.9154C69.1481 25.9154 69.7039 25.9899 70.2551 26.1389C70.8063 26.2878 71.284 26.502 71.6882 26.7813L71.2335 27.8985C70.8201 27.6192 70.3837 27.419 69.9244 27.298C69.465 27.1677 69.0195 27.1025 68.5877 27.1025C68.0457 27.1025 67.6001 27.1723 67.251 27.312C66.9019 27.4516 66.6447 27.6378 66.4793 27.8706C66.3232 28.1034 66.2451 28.364 66.2451 28.6527C66.2451 28.9972 66.3507 29.2718 66.562 29.4766C66.7825 29.6815 67.0627 29.8444 67.4026 29.9654C67.7517 30.0865 68.1329 30.1982 68.5463 30.3006C68.9597 30.3937 69.3732 30.5008 69.7866 30.6218C70.2091 30.7428 70.5904 30.9011 70.9303 31.0966C71.2794 31.2922 71.5596 31.5529 71.7709 31.8787C71.9822 32.2046 72.0878 32.6235 72.0878 33.1356C72.0878 33.6291 71.9546 34.0899 71.6882 34.5182C71.4218 34.9372 71.0084 35.277 70.448 35.5377C69.8968 35.7891 69.1986 35.9148 68.3534 35.9148Z" fill="#2C2C2C"/>
<path d="M76.857 35.803V26.0271H78.235V35.803H76.857Z" fill="#2C2C2C"/>
<path d="M83.8789 35.803V26.0271H85.0089L91.389 34.0574H90.7965V26.0271H92.1745V35.803H91.0445L84.6644 27.7728H85.2569V35.803H83.8789Z" fill="#2C2C2C"/>
<path d="M102.172 35.9148C101.437 35.9148 100.753 35.7891 100.119 35.5377C99.4943 35.2863 98.9523 34.9372 98.493 34.4903C98.0337 34.0341 97.6754 33.5034 97.4181 32.8982C97.1609 32.293 97.0323 31.632 97.0323 30.9151C97.0323 30.1982 97.1609 29.5372 97.4181 28.932C97.6754 28.3268 98.0337 27.8008 98.493 27.3539C98.9523 26.8977 99.4943 26.5439 100.119 26.2925C100.744 26.0411 101.428 25.9154 102.172 25.9154C102.907 25.9154 103.582 26.0411 104.198 26.2925C104.823 26.5346 105.365 26.8837 105.824 27.3399C106.293 27.7868 106.651 28.3128 106.899 28.918C107.156 29.5232 107.285 30.1889 107.285 30.9151C107.285 31.6413 107.156 32.307 106.899 32.9122C106.651 33.5173 106.293 34.048 105.824 34.5042C105.365 34.9511 104.823 35.3003 104.198 35.5517C103.582 35.7937 102.907 35.9148 102.172 35.9148ZM102.172 34.6718C102.705 34.6718 103.197 34.5787 103.647 34.3925C104.106 34.2063 104.501 33.9456 104.832 33.6105C105.172 33.266 105.434 32.8656 105.617 32.4094C105.81 31.9532 105.907 31.4551 105.907 30.9151C105.907 30.3751 105.81 29.877 105.617 29.4208C105.434 28.9646 105.172 28.5689 104.832 28.2337C104.501 27.8892 104.106 27.6239 103.647 27.4377C103.197 27.2515 102.705 27.1583 102.172 27.1583C101.63 27.1583 101.13 27.2515 100.67 27.4377C100.22 27.6239 99.8251 27.8892 99.4852 28.2337C99.1452 28.5689 98.8788 28.9646 98.6859 29.4208C98.5022 29.877 98.4103 30.3751 98.4103 30.9151C98.4103 31.4551 98.5022 31.9532 98.6859 32.4094C98.8788 32.8656 99.1452 33.266 99.4852 33.6105C99.8251 33.9456 100.22 34.2063 100.67 34.3925C101.13 34.5787 101.63 34.6718 102.172 34.6718Z" fill="#2C2C2C"/>
</svg>
