<svg width="124" height="22" viewBox="0 0 124 22" fill="none" xmlns="http://www.w3.org/2000/svg">
<rect x="83.2734" y="0.816406" width="40.7299" height="20.365" fill="#CF1638"/>
<path d="M7.35512 19.1809C5.83636 19.1809 4.52734 18.8555 3.42805 18.2046C2.32876 17.5392 1.4826 16.6207 0.889557 15.4491C0.296519 14.2631 0 12.9034 0 11.3702C0 9.80804 0.296519 8.44116 0.889557 7.26955C1.4826 6.08347 2.32876 5.15775 3.42805 4.49239C4.52734 3.81257 5.83636 3.47266 7.35512 3.47266C9.23549 3.47266 10.7687 3.94275 11.9548 4.88293C13.1553 5.82311 13.9002 7.1466 14.1895 8.85339H10.6313C10.4577 8.08678 10.0889 7.49374 9.52477 7.07428C8.96066 6.64035 8.23021 6.42338 7.33342 6.42338C6.48003 6.42338 5.74958 6.62588 5.14208 7.03088C4.54904 7.43589 4.09341 8.00723 3.77519 8.74491C3.47144 9.46813 3.31957 10.3432 3.31957 11.3702C3.31957 12.3682 3.47144 13.2361 3.77519 13.9738C4.09341 14.697 4.54904 15.2611 5.14208 15.6661C5.74958 16.0566 6.48003 16.2519 7.33342 16.2519C8.23021 16.2519 8.95343 16.0639 9.50308 15.6878C10.0672 15.2973 10.4433 14.7404 10.6313 14.0172H14.1895C13.9002 15.6227 13.1553 16.8883 11.9548 17.8141C10.7687 18.7253 9.23549 19.1809 7.35512 19.1809Z" fill="#1B1B1B"/>
<path d="M15.5181 18.9206L21.0507 3.73301H24.7825L30.3151 18.9206H26.8654L22.8949 7.39973L18.9244 18.9206H15.5181ZM17.9264 15.601L18.7943 13.0842H26.7569L27.6031 15.601H17.9264Z" fill="#1B1B1B"/>
<path d="M37.5331 19.1809C36.4483 19.1809 35.4647 19.0001 34.5824 18.6385C33.7145 18.2625 33.0275 17.7128 32.5212 16.9896C32.015 16.2664 31.7401 15.3768 31.6968 14.3209H35.1682C35.1827 14.7404 35.2911 15.1092 35.4936 15.4274C35.6961 15.7457 35.971 15.9988 36.3181 16.1868C36.6653 16.3604 37.0703 16.4472 37.5331 16.4472C37.9237 16.4472 38.2636 16.3893 38.5529 16.2736C38.8566 16.1434 39.0953 15.9626 39.2688 15.7312C39.4424 15.4853 39.5292 15.1815 39.5292 14.8199C39.5292 14.4439 39.4279 14.1256 39.2254 13.8653C39.0229 13.5905 38.7481 13.359 38.401 13.171C38.0538 12.9685 37.6488 12.7877 37.186 12.6286C36.7376 12.455 36.253 12.2887 35.7323 12.1296C34.5318 11.739 33.606 11.2111 32.9552 10.5457C32.3187 9.88036 32.0005 8.9908 32.0005 7.87705C32.0005 6.95133 32.2247 6.16302 32.6731 5.51213C33.136 4.84677 33.7652 4.34052 34.5607 3.99337C35.3562 3.64623 36.2603 3.47266 37.2728 3.47266C38.3142 3.47266 39.2327 3.65346 40.0282 4.01507C40.8238 4.36221 41.453 4.8757 41.9158 5.55552C42.3787 6.22088 42.6246 7.01642 42.6535 7.94214H39.1604C39.1459 7.62392 39.0519 7.33464 38.8783 7.07428C38.7192 6.81392 38.495 6.60419 38.2057 6.44508C37.9309 6.28597 37.6054 6.20642 37.2294 6.20642C36.8967 6.19195 36.5929 6.24258 36.3181 6.35829C36.0578 6.45954 35.8408 6.62588 35.6672 6.85731C35.5081 7.07428 35.4286 7.3491 35.4286 7.68178C35.4286 8 35.5081 8.28205 35.6672 8.52794C35.8408 8.75937 36.0722 8.96188 36.3615 9.13545C36.6653 9.29456 37.0124 9.44643 37.4029 9.59107C37.8079 9.73572 38.2491 9.88036 38.7264 10.025C39.493 10.2854 40.1946 10.5963 40.831 10.958C41.4819 11.3051 42.0026 11.768 42.3931 12.3465C42.7981 12.9106 43.0006 13.6628 43.0006 14.603C43.0006 15.4274 42.7837 16.1868 42.3497 16.8811C41.9303 17.5754 41.3155 18.1323 40.5055 18.5517C39.71 18.9712 38.7192 19.1809 37.5331 19.1809Z" fill="#1B1B1B"/>
<path d="M45.4595 18.9206V3.73301H48.7139V18.9206H45.4595Z" fill="#1B1B1B"/>
<path d="M51.6252 18.9206V3.73301H54.8797L61.5405 13.7134V3.73301H64.795V18.9206H61.5405L54.8797 8.98357V18.9206H51.6252Z" fill="#1B1B1B"/>
<path d="M74.7799 19.1809C73.2901 19.1809 71.9811 18.8483 70.8529 18.1829C69.7246 17.5175 68.8351 16.5991 68.1842 15.4274C67.5478 14.2414 67.2296 12.8745 67.2296 11.3268C67.2296 9.77911 67.5478 8.41946 68.1842 7.24785C68.8351 6.06177 69.7246 5.13606 70.8529 4.4707C71.9811 3.80534 73.2901 3.47266 74.7799 3.47266C76.2698 3.47266 77.586 3.80534 78.7287 4.4707C79.8714 5.13606 80.7537 6.06177 81.3757 7.24785C82.0121 8.41946 82.3303 9.77911 82.3303 11.3268C82.3303 12.8745 82.0121 14.2414 81.3757 15.4274C80.7537 16.5991 79.8714 17.5175 78.7287 18.1829C77.586 18.8483 76.2698 19.1809 74.7799 19.1809ZM74.7799 16.2519C75.6623 16.2519 76.4144 16.0494 77.0364 15.6444C77.6728 15.2394 78.1646 14.6753 78.5117 13.9521C78.8589 13.2144 79.0325 12.3393 79.0325 11.3268C79.0325 10.3143 78.8589 9.44643 78.5117 8.72321C78.1646 7.98553 77.6728 7.42142 77.0364 7.03088C76.4144 6.62588 75.6623 6.42338 74.7799 6.42338C73.9265 6.42338 73.1816 6.62588 72.5452 7.03088C71.9088 7.42142 71.417 7.98553 71.0698 8.72321C70.7227 9.44643 70.5491 10.3143 70.5491 11.3268C70.5491 12.3393 70.7227 13.2144 71.0698 13.9521C71.417 14.6753 71.9088 15.2394 72.5452 15.6444C73.1816 16.0494 73.9265 16.2519 74.7799 16.2519Z" fill="#1B1B1B"/>
<path d="M84.625 18.7188V3.53125H91.1123C92.1682 3.53125 93.0577 3.69759 93.7809 4.03027C94.5042 4.34849 95.0538 4.80411 95.4299 5.39715C95.8204 5.97573 96.0157 6.66278 96.0157 7.45832C96.0157 8.22493 95.8493 8.86859 95.5167 9.38931C95.184 9.91003 94.7428 10.3078 94.1932 10.5826C93.658 10.8574 93.0649 11.0238 92.4141 11.0816L92.7612 10.8213C93.4699 10.8502 94.0919 11.0382 94.6271 11.3854C95.1623 11.7325 95.5817 12.1882 95.8855 12.7523C96.2037 13.3019 96.3628 13.9094 96.3628 14.5748C96.3628 15.3992 96.1676 16.1225 95.777 16.7444C95.3865 17.3664 94.8151 17.851 94.063 18.1981C93.3108 18.5452 92.3996 18.7188 91.3292 18.7188H84.625ZM87.8795 16.0718H90.7868C91.51 16.0718 92.0669 15.9127 92.4574 15.5945C92.8624 15.2618 93.0649 14.7845 93.0649 14.1625C93.0649 13.5406 92.8552 13.056 92.4357 12.7089C92.0307 12.3617 91.4666 12.1882 90.7434 12.1882H87.8795V16.0718ZM87.8795 9.77985H90.5481C91.2424 9.77985 91.7704 9.62074 92.132 9.30253C92.5081 8.98431 92.6961 8.53591 92.6961 7.95734C92.6961 7.37877 92.5081 6.93037 92.132 6.61216C91.7704 6.27948 91.2352 6.11314 90.5265 6.11314H87.8795V9.77985Z" fill="white"/>
<path d="M98.6938 18.7188V3.53125H108.87V6.15653H101.948V9.73645H108.219V12.2533H101.948V16.0935H108.87V18.7188H98.6938Z" fill="white"/>
<path d="M114.964 18.7188V6.15653H110.559V3.53125H122.623V6.15653H118.218V18.7188H114.964Z" fill="white"/>
</svg>
