<svg width="107" height="56" viewBox="0 0 107 56" fill="none" xmlns="http://www.w3.org/2000/svg">
<path d="M19.2375 38.37H20.2945L19.8631 43.8277H19.0002C18.6982 42.5046 18.1085 41.462 17.2313 40.6998C16.3684 39.9376 15.3186 39.5565 14.0818 39.5565C13.2333 39.5565 12.4783 39.729 11.8167 40.0742C11.1552 40.405 10.5943 40.8867 10.1341 41.5195C9.6883 42.1379 9.34315 42.9001 9.09867 43.8061C8.86857 44.6978 8.75351 45.7045 8.75351 46.8262C8.75351 49.0553 9.20652 50.7739 10.1125 51.9819C11.0329 53.1755 12.3848 53.7724 14.1681 53.7724C15.6062 53.7724 16.7927 53.3841 17.7274 52.6075C18.6766 51.8309 19.3525 50.6732 19.7552 49.1344H20.7044V54.9804H19.6905L19.3885 53.2762C17.8065 54.5561 15.8866 55.1961 13.6288 55.1961C12.3201 55.1961 11.1336 55.002 10.0694 54.6137C9.00519 54.2254 8.09917 53.6789 7.35134 52.9742C6.60351 52.2551 6.02107 51.3851 5.60401 50.364C5.20134 49.3429 5 48.2068 5 46.9556C5 45.6469 5.21572 44.4533 5.64716 43.3747C6.0786 42.2961 6.68261 41.3685 7.4592 40.5919C8.25017 39.8153 9.18495 39.2185 10.2635 38.8015C11.3565 38.37 12.5646 38.1543 13.8876 38.1543C14.7649 38.1543 15.5846 38.2765 16.3468 38.521C17.109 38.7655 17.936 39.161 18.8276 39.7075L19.2375 38.37Z" fill="url(#paint0_linear_1679_68346)"/>
<path d="M32.5526 49.9541H26.4477C25.7718 51.4786 25.4338 52.5356 25.4338 53.1252C25.4338 53.5566 25.592 53.8299 25.9084 53.9449C26.2392 54.06 26.7281 54.1175 27.3753 54.1175V54.9804H21.4646V54.1175C21.8098 54.0744 22.1046 54.0169 22.3491 53.9449C22.6079 53.873 22.8308 53.7724 23.0178 53.6429C23.2191 53.5135 23.3917 53.3481 23.5355 53.1468C23.6793 52.9311 23.8159 52.6722 23.9454 52.3702L29.6188 38.1543H31.2151L36.3708 50.7523C36.6728 51.4857 36.9245 52.061 37.1258 52.4781C37.3415 52.8951 37.5644 53.2187 37.7945 53.4488C38.039 53.6645 38.3123 53.8155 38.6143 53.9018C38.9307 53.9881 39.3333 54.0528 39.8223 54.0959V54.9804H31.6681V54.0959C32.3584 54.0672 32.8546 53.9953 33.1566 53.8802C33.4586 53.7652 33.6096 53.5351 33.6096 53.1899C33.6096 52.9886 33.5593 52.7297 33.4586 52.4133C33.3579 52.0969 33.2213 51.7087 33.0487 51.2485L32.5526 49.9541ZM26.9439 48.6598H32.078L29.5972 42.1235H29.5109L26.9439 48.6598Z" fill="url(#paint1_linear_1679_68346)"/>
<path d="M40.3528 49.4796H41.1941C41.3955 50.8458 41.942 51.9244 42.8336 52.7153C43.7253 53.4919 44.8254 53.8802 46.1341 53.8802C46.6662 53.8802 47.1552 53.8155 47.601 53.6861C48.0468 53.5567 48.4279 53.3769 48.7443 53.1468C49.0607 52.9023 49.3052 52.6219 49.4778 52.3055C49.6503 51.9747 49.7366 51.608 49.7366 51.2053C49.7366 50.8602 49.6791 50.5653 49.5641 50.3209C49.4634 50.062 49.262 49.8175 48.96 49.5874C48.658 49.3429 48.241 49.0985 47.7089 48.854C47.1911 48.6095 46.5152 48.3291 45.6811 48.0127C43.9985 47.3655 42.7545 46.6177 41.9492 45.7692C41.1438 44.9063 40.7411 43.8924 40.7411 42.7275C40.7411 42.0516 40.8706 41.4332 41.1294 40.8724C41.3883 40.3115 41.7478 39.8297 42.208 39.427C42.6826 39.0244 43.2435 38.7152 43.8906 38.4994C44.5522 38.2693 45.2784 38.1543 46.0694 38.1543C46.8028 38.1543 47.4931 38.2693 48.1403 38.4994C48.7875 38.7295 49.4274 39.0747 50.0602 39.5349L50.4485 38.4563H50.9662L51.2035 43.1158H50.3622C50.0171 41.9366 49.4778 41.0377 48.7443 40.4193C48.0109 39.7866 47.1624 39.4702 46.1988 39.4702C45.3072 39.4702 44.5809 39.6931 44.0201 40.1389C43.4736 40.5704 43.2003 41.1312 43.2003 41.8215C43.2003 42.1235 43.2507 42.3968 43.3513 42.6413C43.452 42.8714 43.639 43.0943 43.9122 43.31C44.1855 43.5257 44.5594 43.7486 45.0339 43.9787C45.5085 44.1944 46.1197 44.4389 46.8676 44.7122C47.8743 45.1005 48.7299 45.4959 49.4346 45.8986C50.1537 46.2869 50.7361 46.7112 51.1819 47.1714C51.6421 47.6172 51.9801 48.0918 52.1958 48.5951C52.4115 49.0985 52.5194 49.6521 52.5194 50.2561C52.5194 50.9896 52.3612 51.6583 52.0448 52.2623C51.7284 52.8663 51.2826 53.3841 50.7074 53.8155C50.1465 54.247 49.4706 54.5849 48.6796 54.8294C47.903 55.0739 47.0401 55.1961 46.091 55.1961C45.2281 55.1961 44.4515 55.0811 43.7612 54.851C43.0709 54.6065 42.359 54.2182 41.6256 53.6861L41.1941 54.9804H40.6764L40.3528 49.4796Z" fill="url(#paint2_linear_1679_68346)"/>
<path d="M61.9698 54.9804H54.2686V54.1175C54.7575 54.1031 55.1458 54.06 55.4335 53.9881C55.7355 53.9018 55.9656 53.7508 56.1238 53.5351C56.282 53.3194 56.3898 53.0174 56.4473 52.6291C56.5049 52.2264 56.5336 51.6871 56.5336 51.0112V42.3393C56.5336 41.7352 56.5049 41.2391 56.4473 40.8508C56.4042 40.4481 56.3107 40.1317 56.1669 39.9016C56.0231 39.6715 55.8146 39.5133 55.5413 39.427C55.2825 39.3264 54.9301 39.2617 54.4843 39.2329V38.37H61.754V39.2329C61.3082 39.2617 60.9487 39.3264 60.6754 39.427C60.4166 39.5133 60.2152 39.6715 60.0714 39.9016C59.9276 40.1317 59.827 40.4481 59.7694 40.8508C59.7263 41.2391 59.7047 41.7352 59.7047 42.3393V51.0112C59.7047 51.6871 59.7263 52.2264 59.7694 52.6291C59.827 53.0174 59.9348 53.3194 60.093 53.5351C60.2656 53.7508 60.4957 53.9018 60.7833 53.9881C61.0853 54.06 61.4808 54.1031 61.9698 54.1175V54.9804Z" fill="url(#paint3_linear_1679_68346)"/>
<path d="M77.1933 55.1961L67.6369 41.5842H67.5507V50.8602C67.5507 51.5792 67.5722 52.1473 67.6154 52.5643C67.6729 52.9814 67.7808 53.305 67.9389 53.5351C68.1115 53.7652 68.3416 53.9162 68.6292 53.9881C68.9313 54.06 69.3195 54.1031 69.7941 54.1175V54.9804H63.3873V54.1175C63.9194 54.1031 64.3436 54.06 64.66 53.9881C64.9908 53.9018 65.2425 53.7508 65.415 53.5351C65.602 53.3194 65.7242 53.0174 65.7818 52.6291C65.8393 52.2264 65.868 51.6871 65.868 51.0112V42.3393C65.868 41.7352 65.8393 41.2391 65.7818 40.8508C65.7242 40.4481 65.6164 40.1317 65.4582 39.9016C65.3 39.6715 65.0699 39.5133 64.7679 39.427C64.4802 39.3264 64.092 39.2617 63.603 39.2329V38.37H69.6216L78.315 50.8386H78.4013V42.4903C78.4013 41.7856 78.3726 41.2247 78.315 40.8076C78.2719 40.3762 78.164 40.0454 77.9915 39.8153C77.8333 39.5852 77.6032 39.4342 77.3012 39.3623C77.0135 39.2904 76.6324 39.2473 76.1579 39.2329V38.37H82.5647V39.2329C82.0326 39.2473 81.6012 39.2976 81.2704 39.3839C80.954 39.4558 80.7023 39.5996 80.5154 39.8153C80.3428 40.0311 80.2278 40.3403 80.1702 40.7429C80.1127 41.1456 80.0839 41.6777 80.0839 42.3393V55.1961H77.1933Z" fill="url(#paint4_linear_1679_68346)"/>
<path d="M92.914 38.1543C94.2083 38.1543 95.4164 38.3772 96.5381 38.823C97.6598 39.2688 98.6306 39.8801 99.4503 40.6566C100.284 41.4332 100.939 42.3464 101.413 43.3963C101.888 44.4461 102.125 45.5822 102.125 46.8046C102.125 47.9695 101.881 49.0625 101.392 50.0836C100.917 51.1046 100.263 51.9963 99.4287 52.7585C98.609 53.5063 97.6383 54.1031 96.5165 54.549C95.3948 54.9804 94.1939 55.1961 92.914 55.1961C91.6341 55.1961 90.4332 54.9804 89.3115 54.549C88.1898 54.1031 87.2118 53.5063 86.3777 52.7585C85.5436 51.9963 84.8893 51.1046 84.4147 50.0836C83.9401 49.0625 83.7028 47.9695 83.7028 46.8046C83.7028 45.5822 83.9401 44.4461 84.4147 43.3963C84.8893 42.3464 85.5364 41.4332 86.3561 40.6566C87.1903 39.8801 88.1682 39.2688 89.2899 38.823C90.4117 38.3772 91.6197 38.1543 92.914 38.1543ZM92.914 53.7939C93.7481 53.7939 94.5031 53.6357 95.1791 53.3194C95.855 52.9886 96.4302 52.5284 96.9048 51.9388C97.3794 51.3347 97.7389 50.6085 97.9834 49.76C98.2423 48.8971 98.3717 47.9336 98.3717 46.8694C98.3717 45.7476 98.2423 44.7409 97.9834 43.8493C97.7389 42.9433 97.3794 42.1739 96.9048 41.5411C96.4302 40.8939 95.855 40.405 95.1791 40.0742C94.5031 39.729 93.7481 39.5565 92.914 39.5565C92.0655 39.5565 91.3033 39.729 90.6274 40.0742C89.9659 40.405 89.3978 40.8939 88.9232 41.5411C88.4486 42.1739 88.0819 42.9433 87.823 43.8493C87.5786 44.7409 87.4563 45.7476 87.4563 46.8694C87.4563 47.9336 87.5786 48.8971 87.823 49.76C88.0819 50.6085 88.4486 51.3347 88.9232 51.9388C89.3978 52.5284 89.9659 52.9886 90.6274 53.3194C91.3033 53.6357 92.0655 53.7939 92.914 53.7939Z" fill="url(#paint5_linear_1679_68346)"/>
<path d="M10.1927 15.125C11.9185 15.125 13.3072 15.0711 14.3588 14.9632C15.4104 14.8554 16.2194 14.6396 16.7857 14.3161C17.3789 13.9655 17.7968 13.4667 18.0395 12.8195C18.2822 12.1723 18.471 11.296 18.6058 10.1904H20.1023V22.0415H18.6058C18.444 20.9629 18.2283 20.1 17.9586 19.4529C17.689 18.8057 17.2575 18.3203 16.6643 17.9968C16.0711 17.6462 15.2621 17.4305 14.2375 17.3496C13.2398 17.2417 11.8915 17.1878 10.1927 17.1878V25.52C10.1927 26.3829 10.3006 27.1109 10.5163 27.7041C10.759 28.2974 11.15 28.7827 11.6893 29.1602C12.2286 29.5108 12.9432 29.7669 13.833 29.9287C14.7228 30.0636 15.8149 30.131 17.1092 30.131C18.6462 30.131 19.9405 30.0231 20.9922 29.8074C22.0708 29.5917 22.9606 29.2142 23.6617 28.6749C24.3628 28.1356 24.9291 27.421 25.3605 26.5312C25.7919 25.6144 26.156 24.4683 26.4526 23.0931H28.0705L27.4233 32.3556H0V30.7377C0.889842 30.7107 1.61789 30.6298 2.18416 30.495C2.75042 30.3602 3.18186 30.131 3.47847 29.8074C3.77509 29.4838 3.97732 29.0254 4.08518 28.4322C4.19304 27.839 4.24697 27.0705 4.24697 26.1267V7.44001C4.24697 6.49623 4.19304 5.74122 4.08518 5.17495C4.00429 4.58173 3.82902 4.12332 3.55937 3.79974C3.28972 3.4492 2.89873 3.22 2.38639 3.11214C1.90103 2.97731 1.25387 2.88294 0.444921 2.82901V1.21111H26.0077L26.2908 9.1388H24.5515C24.3898 8.00627 24.1336 7.07598 23.783 6.34793C23.4325 5.59291 22.9471 4.99968 22.3269 4.56824C21.7067 4.10984 20.8978 3.79974 19.9001 3.63796C18.9294 3.4492 17.7294 3.35482 16.3003 3.35482H11.7297C11.0286 3.35482 10.5972 3.4492 10.4354 3.63796C10.2736 3.79974 10.1927 4.20422 10.1927 4.85138V15.125Z" fill="url(#paint6_linear_1679_68346)"/>
<path d="M57.786 9.86685C57.786 12.7791 56.6535 15.0037 54.3884 16.5407C52.1234 18.0507 48.8337 18.8057 44.5193 18.8057H41.0812V25.9244C41.0812 26.9491 41.1487 27.785 41.2835 28.4322C41.4183 29.0524 41.7014 29.5377 42.1329 29.8883C42.5643 30.2388 43.1575 30.468 43.9126 30.5759C44.6676 30.6838 45.6788 30.7377 46.9461 30.7377V32.3556H30.8885V30.7377C31.7783 30.7107 32.5064 30.6298 33.0727 30.495C33.6389 30.3602 34.0704 30.131 34.367 29.8074C34.6636 29.4838 34.8658 29.0254 34.9737 28.4322C35.0816 27.839 35.1355 27.0705 35.1355 26.1267V7.44001C35.1355 6.49623 35.0816 5.74122 34.9737 5.17495C34.8928 4.58173 34.7175 4.12332 34.4479 3.79974C34.1782 3.4492 33.7872 3.22 33.2749 3.11214C32.7895 2.97731 32.1424 2.88294 31.3334 2.82901V1.21111H45.3282C49.4269 1.21111 52.5278 1.93917 54.6311 3.39527C56.7344 4.85138 57.786 7.00857 57.786 9.86685ZM41.0812 16.3789H43.7103C46.3259 16.3789 48.2404 15.8531 49.4538 14.8014C50.6673 13.7498 51.274 12.0915 51.274 9.8264C51.274 7.80403 50.7616 6.24007 49.737 5.13451C48.7123 4.02895 47.1079 3.47617 44.9237 3.47617H41.8093C41.3239 3.47617 41.0812 3.70537 41.0812 4.16377V16.3789Z" fill="url(#paint7_linear_1679_68346)"/>
<path d="M74.3612 32.3556H59.9215V30.7377C60.8383 30.7107 61.5664 30.6298 62.1057 30.495C62.6719 30.3332 63.1034 30.0501 63.4 29.6456C63.6966 29.2411 63.8988 28.6749 64.0067 27.9468C64.1145 27.1918 64.1685 26.1806 64.1685 24.9133V8.65343C64.1685 7.5209 64.1145 6.59061 64.0067 5.86256C63.9258 5.10754 63.7505 4.51431 63.4809 4.08288C63.2112 3.65144 62.8202 3.35482 62.3079 3.19304C61.8225 3.00428 61.1619 2.88294 60.326 2.82901V1.21111H73.9567V2.82901C73.1208 2.88294 72.4467 3.00428 71.9344 3.19304C71.449 3.35482 71.0715 3.65144 70.8018 4.08288C70.5322 4.51431 70.3434 5.10754 70.2356 5.86256C70.1547 6.59061 70.1142 7.5209 70.1142 8.65343V24.9133C70.1142 26.1806 70.1547 27.1918 70.2356 27.9468C70.3434 28.6749 70.5457 29.2411 70.8423 29.6456C71.1659 30.0501 71.5973 30.3332 72.1366 30.495C72.7029 30.6298 73.4444 30.7107 74.3612 30.7377V32.3556Z" fill="url(#paint8_linear_1679_68346)"/>
<path d="M104.007 1.21111H105.989L105.18 11.4443H103.562C102.996 8.96352 101.89 7.00857 100.245 5.57943C98.6274 4.15029 96.659 3.43572 94.34 3.43572C92.749 3.43572 91.3334 3.7593 90.093 4.40645C88.8526 5.02665 87.801 5.92997 86.9381 7.11643C86.1022 8.27592 85.455 9.70506 84.9966 11.4038C84.5652 13.0757 84.3495 14.9632 84.3495 17.0665C84.3495 21.246 85.1989 24.4683 86.8977 26.7334C88.6234 28.9715 91.1581 30.0905 94.5018 30.0905C97.1983 30.0905 99.4229 29.3625 101.176 27.9064C102.955 26.4503 104.223 24.2796 104.978 21.3943H106.757V32.3556H104.856L104.29 29.1602C101.324 31.5601 97.7241 32.7601 93.4906 32.7601C91.0368 32.7601 88.8122 32.396 86.8168 31.668C84.8214 30.9399 83.1226 29.9153 81.7204 28.594C80.3182 27.2457 79.2262 25.6144 78.4442 23.6998C77.6891 21.7853 77.3116 19.6551 77.3116 17.3092C77.3116 14.8554 77.7161 12.6173 78.5251 10.5949C79.334 8.57253 80.4665 6.8333 81.9226 5.37719C83.4057 3.92109 85.1584 2.80204 87.1808 2.02006C89.2301 1.21111 91.4952 0.806641 93.976 0.806641C95.6208 0.806641 97.1578 1.03584 98.587 1.49425C100.016 1.95265 101.567 2.69418 103.238 3.71885L104.007 1.21111Z" fill="url(#paint9_linear_1679_68346)"/>
<defs>
<linearGradient id="paint0_linear_1679_68346" x1="3.64924" y1="46.8911" x2="103.419" y2="46.8911" gradientUnits="userSpaceOnUse">
<stop stop-color="#FAF3DC"/>
<stop offset="0.0371" stop-color="#F0E6C5"/>
<stop offset="0.0852" stop-color="#E6D9AD"/>
<stop offset="0.1301" stop-color="#E0D19F"/>
<stop offset="0.1684" stop-color="#DECE9A"/>
<stop offset="0.352" stop-color="#FAF3DC"/>
<stop offset="0.3973" stop-color="#F6EED5"/>
<stop offset="0.4622" stop-color="#EAE0C2"/>
<stop offset="0.539" stop-color="#D6C9A3"/>
<stop offset="0.6241" stop-color="#BCA978"/>
<stop offset="0.6786" stop-color="#A89259"/>
<stop offset="0.6939" stop-color="#836B31"/>
<stop offset="1" stop-color="#FAF3DE"/>
</linearGradient>
<linearGradient id="paint1_linear_1679_68346" x1="3.64924" y1="46.8911" x2="103.419" y2="46.8911" gradientUnits="userSpaceOnUse">
<stop stop-color="#FAF3DC"/>
<stop offset="0.0371" stop-color="#F0E6C5"/>
<stop offset="0.0852" stop-color="#E6D9AD"/>
<stop offset="0.1301" stop-color="#E0D19F"/>
<stop offset="0.1684" stop-color="#DECE9A"/>
<stop offset="0.352" stop-color="#FAF3DC"/>
<stop offset="0.3973" stop-color="#F6EED5"/>
<stop offset="0.4622" stop-color="#EAE0C2"/>
<stop offset="0.539" stop-color="#D6C9A3"/>
<stop offset="0.6241" stop-color="#BCA978"/>
<stop offset="0.6786" stop-color="#A89259"/>
<stop offset="0.6939" stop-color="#836B31"/>
<stop offset="1" stop-color="#FAF3DE"/>
</linearGradient>
<linearGradient id="paint2_linear_1679_68346" x1="3.64924" y1="46.8911" x2="103.419" y2="46.8911" gradientUnits="userSpaceOnUse">
<stop stop-color="#FAF3DC"/>
<stop offset="0.0371" stop-color="#F0E6C5"/>
<stop offset="0.0852" stop-color="#E6D9AD"/>
<stop offset="0.1301" stop-color="#E0D19F"/>
<stop offset="0.1684" stop-color="#DECE9A"/>
<stop offset="0.352" stop-color="#FAF3DC"/>
<stop offset="0.3973" stop-color="#F6EED5"/>
<stop offset="0.4622" stop-color="#EAE0C2"/>
<stop offset="0.539" stop-color="#D6C9A3"/>
<stop offset="0.6241" stop-color="#BCA978"/>
<stop offset="0.6786" stop-color="#A89259"/>
<stop offset="0.6939" stop-color="#836B31"/>
<stop offset="1" stop-color="#FAF3DE"/>
</linearGradient>
<linearGradient id="paint3_linear_1679_68346" x1="3.64924" y1="46.8911" x2="103.419" y2="46.8911" gradientUnits="userSpaceOnUse">
<stop stop-color="#FAF3DC"/>
<stop offset="0.0371" stop-color="#F0E6C5"/>
<stop offset="0.0852" stop-color="#E6D9AD"/>
<stop offset="0.1301" stop-color="#E0D19F"/>
<stop offset="0.1684" stop-color="#DECE9A"/>
<stop offset="0.352" stop-color="#FAF3DC"/>
<stop offset="0.3973" stop-color="#F6EED5"/>
<stop offset="0.4622" stop-color="#EAE0C2"/>
<stop offset="0.539" stop-color="#D6C9A3"/>
<stop offset="0.6241" stop-color="#BCA978"/>
<stop offset="0.6786" stop-color="#A89259"/>
<stop offset="0.6939" stop-color="#836B31"/>
<stop offset="1" stop-color="#FAF3DE"/>
</linearGradient>
<linearGradient id="paint4_linear_1679_68346" x1="3.64924" y1="46.8911" x2="103.419" y2="46.8911" gradientUnits="userSpaceOnUse">
<stop stop-color="#FAF3DC"/>
<stop offset="0.0371" stop-color="#F0E6C5"/>
<stop offset="0.0852" stop-color="#E6D9AD"/>
<stop offset="0.1301" stop-color="#E0D19F"/>
<stop offset="0.1684" stop-color="#DECE9A"/>
<stop offset="0.352" stop-color="#FAF3DC"/>
<stop offset="0.3973" stop-color="#F6EED5"/>
<stop offset="0.4622" stop-color="#EAE0C2"/>
<stop offset="0.539" stop-color="#D6C9A3"/>
<stop offset="0.6241" stop-color="#BCA978"/>
<stop offset="0.6786" stop-color="#A89259"/>
<stop offset="0.6939" stop-color="#836B31"/>
<stop offset="1" stop-color="#FAF3DE"/>
</linearGradient>
<linearGradient id="paint5_linear_1679_68346" x1="3.64924" y1="46.8911" x2="103.419" y2="46.8911" gradientUnits="userSpaceOnUse">
<stop stop-color="#FAF3DC"/>
<stop offset="0.0371" stop-color="#F0E6C5"/>
<stop offset="0.0852" stop-color="#E6D9AD"/>
<stop offset="0.1301" stop-color="#E0D19F"/>
<stop offset="0.1684" stop-color="#DECE9A"/>
<stop offset="0.352" stop-color="#FAF3DC"/>
<stop offset="0.3973" stop-color="#F6EED5"/>
<stop offset="0.4622" stop-color="#EAE0C2"/>
<stop offset="0.539" stop-color="#D6C9A3"/>
<stop offset="0.6241" stop-color="#BCA978"/>
<stop offset="0.6786" stop-color="#A89259"/>
<stop offset="0.6939" stop-color="#836B31"/>
<stop offset="1" stop-color="#FAF3DE"/>
</linearGradient>
<linearGradient id="paint6_linear_1679_68346" x1="-1.63178" y1="18.1993" x2="108.924" y2="18.1993" gradientUnits="userSpaceOnUse">
<stop offset="0.0051" stop-color="#C0973C"/>
<stop offset="0.0154" stop-color="#C29B42"/>
<stop offset="0.0653" stop-color="#CBA95D"/>
<stop offset="0.1163" stop-color="#D1B470"/>
<stop offset="0.1687" stop-color="#D5BA7B"/>
<stop offset="0.2245" stop-color="#D6BC7F"/>
<stop offset="0.2991" stop-color="#D4B878"/>
<stop offset="0.4109" stop-color="#CDAD63"/>
<stop offset="0.5455" stop-color="#C29A42"/>
<stop offset="0.5663" stop-color="#C0973C"/>
<stop offset="0.5781" stop-color="#C8A453"/>
<stop offset="0.6" stop-color="#D4B977"/>
<stop offset="0.6248" stop-color="#DFCC97"/>
<stop offset="0.6521" stop-color="#E9DCB3"/>
<stop offset="0.683" stop-color="#F0E9C9"/>
<stop offset="0.7191" stop-color="#F6F3DA"/>
<stop offset="0.7637" stop-color="#FAFAE5"/>
<stop offset="0.8263" stop-color="#FCFEEC"/>
<stop offset="1" stop-color="#FDFFEE"/>
</linearGradient>
<linearGradient id="paint7_linear_1679_68346" x1="-1.63178" y1="18.1993" x2="108.924" y2="18.1993" gradientUnits="userSpaceOnUse">
<stop offset="0.0051" stop-color="#C0973C"/>
<stop offset="0.0154" stop-color="#C29B42"/>
<stop offset="0.0653" stop-color="#CBA95D"/>
<stop offset="0.1163" stop-color="#D1B470"/>
<stop offset="0.1687" stop-color="#D5BA7B"/>
<stop offset="0.2245" stop-color="#D6BC7F"/>
<stop offset="0.2991" stop-color="#D4B878"/>
<stop offset="0.4109" stop-color="#CDAD63"/>
<stop offset="0.5455" stop-color="#C29A42"/>
<stop offset="0.5663" stop-color="#C0973C"/>
<stop offset="0.5781" stop-color="#C8A453"/>
<stop offset="0.6" stop-color="#D4B977"/>
<stop offset="0.6248" stop-color="#DFCC97"/>
<stop offset="0.6521" stop-color="#E9DCB3"/>
<stop offset="0.683" stop-color="#F0E9C9"/>
<stop offset="0.7191" stop-color="#F6F3DA"/>
<stop offset="0.7637" stop-color="#FAFAE5"/>
<stop offset="0.8263" stop-color="#FCFEEC"/>
<stop offset="1" stop-color="#FDFFEE"/>
</linearGradient>
<linearGradient id="paint8_linear_1679_68346" x1="-1.63178" y1="18.1993" x2="108.924" y2="18.1993" gradientUnits="userSpaceOnUse">
<stop offset="0.0051" stop-color="#C0973C"/>
<stop offset="0.0154" stop-color="#C29B42"/>
<stop offset="0.0653" stop-color="#CBA95D"/>
<stop offset="0.1163" stop-color="#D1B470"/>
<stop offset="0.1687" stop-color="#D5BA7B"/>
<stop offset="0.2245" stop-color="#D6BC7F"/>
<stop offset="0.2991" stop-color="#D4B878"/>
<stop offset="0.4109" stop-color="#CDAD63"/>
<stop offset="0.5455" stop-color="#C29A42"/>
<stop offset="0.5663" stop-color="#C0973C"/>
<stop offset="0.5781" stop-color="#C8A453"/>
<stop offset="0.6" stop-color="#D4B977"/>
<stop offset="0.6248" stop-color="#DFCC97"/>
<stop offset="0.6521" stop-color="#E9DCB3"/>
<stop offset="0.683" stop-color="#F0E9C9"/>
<stop offset="0.7191" stop-color="#F6F3DA"/>
<stop offset="0.7637" stop-color="#FAFAE5"/>
<stop offset="0.8263" stop-color="#FCFEEC"/>
<stop offset="1" stop-color="#FDFFEE"/>
</linearGradient>
<linearGradient id="paint9_linear_1679_68346" x1="-1.63178" y1="18.1993" x2="108.924" y2="18.1993" gradientUnits="userSpaceOnUse">
<stop offset="0.0051" stop-color="#C0973C"/>
<stop offset="0.0154" stop-color="#C29B42"/>
<stop offset="0.0653" stop-color="#CBA95D"/>
<stop offset="0.1163" stop-color="#D1B470"/>
<stop offset="0.1687" stop-color="#D5BA7B"/>
<stop offset="0.2245" stop-color="#D6BC7F"/>
<stop offset="0.2991" stop-color="#D4B878"/>
<stop offset="0.4109" stop-color="#CDAD63"/>
<stop offset="0.5455" stop-color="#C29A42"/>
<stop offset="0.5663" stop-color="#C0973C"/>
<stop offset="0.5781" stop-color="#C8A453"/>
<stop offset="0.6" stop-color="#D4B977"/>
<stop offset="0.6248" stop-color="#DFCC97"/>
<stop offset="0.6521" stop-color="#E9DCB3"/>
<stop offset="0.683" stop-color="#F0E9C9"/>
<stop offset="0.7191" stop-color="#F6F3DA"/>
<stop offset="0.7637" stop-color="#FAFAE5"/>
<stop offset="0.8263" stop-color="#FCFEEC"/>
<stop offset="1" stop-color="#FDFFEE"/>
</linearGradient>
</defs>
</svg>
