<svg width="154" height="36" viewBox="0 0 154 36" fill="none" xmlns="http://www.w3.org/2000/svg">
<path d="M16.5026 9.53096C16.5799 8.68152 16.3739 8.01655 15.8849 7.53606C15.3958 7.04699 14.5721 6.80245 13.4138 6.80245C12.6759 6.80245 12.0581 6.88825 11.5604 7.05986C11.0714 7.23146 10.6895 7.46742 10.415 7.76773C10.149 8.06803 9.98168 8.41553 9.91304 8.81022C9.83582 9.11911 9.84011 9.40225 9.92591 9.65966C10.0203 9.90848 10.1962 10.1359 10.4536 10.3418C10.7196 10.5477 11.0671 10.7322 11.4961 10.8952C11.9337 11.0582 12.4528 11.2041 13.0534 11.3328L15.1126 11.7961C16.5198 12.105 17.6996 12.5126 18.652 13.0188C19.613 13.5165 20.368 14.1085 20.9171 14.7949C21.4663 15.4813 21.8266 16.2493 21.9983 17.0987C22.1784 17.9481 22.1827 18.8748 22.0111 19.8787C21.7194 21.6119 21.0459 23.0791 19.9905 24.2803C18.9351 25.4816 17.558 26.3953 15.8591 27.0217C14.1602 27.6481 12.1954 27.9612 9.96452 27.9612C7.68219 27.9612 5.74306 27.6223 4.14714 26.9445C2.55981 26.2581 1.41006 25.2113 0.697903 23.8041C-0.00567398 22.3884 -0.177278 20.5823 0.18309 18.3857H6.97861C6.87565 19.1923 6.96145 19.8701 7.23602 20.4192C7.51058 20.9684 7.95246 21.3845 8.56166 21.6677C9.17085 21.9508 9.9302 22.0924 10.8397 22.0924C11.6119 22.0924 12.2726 21.998 12.8217 21.8092C13.3709 21.6205 13.8042 21.3588 14.1216 21.0241C14.4391 20.6895 14.6321 20.3077 14.7008 19.8787C14.7694 19.484 14.7008 19.1322 14.4949 18.8233C14.2889 18.5144 13.9157 18.2356 13.3751 17.9867C12.8346 17.7379 12.0924 17.5105 11.1486 17.3046L8.62601 16.7383C6.38658 16.2235 4.69628 15.3741 3.55511 14.19C2.41394 13.0059 2.01067 11.3843 2.3453 9.32503C2.61987 7.64331 3.31057 6.1761 4.41742 4.92339C5.53285 3.6621 6.94858 2.68395 8.66462 1.98896C10.3892 1.28538 12.2983 0.933594 14.3919 0.933594C16.5198 0.933594 18.3002 1.28967 19.7331 2.00183C21.1746 2.71399 22.2085 3.71358 22.8348 5.00061C23.4698 6.28764 23.6414 7.79775 23.3496 9.53096H16.5026Z" fill="#EE2222"/>
<path d="M37.8094 19.0035L39.6627 7.88356H46.7671L43.4724 27.6523H36.7283L37.3461 23.8942H37.1402C36.531 25.1555 35.6215 26.1422 34.4117 26.8544C33.2104 27.558 31.8719 27.9097 30.3961 27.9097C29.0147 27.9097 27.8607 27.5923 26.934 26.9573C26.0074 26.3224 25.351 25.4472 24.9649 24.3318C24.5787 23.2164 24.5015 21.9379 24.7332 20.4965L26.8439 7.88356H33.9483L32.095 19.0035C31.9491 19.9816 32.0736 20.7496 32.4682 21.3073C32.8715 21.865 33.5193 22.1439 34.4117 22.1439C35.0037 22.1439 35.5357 22.0194 36.0076 21.7706C36.4881 21.5132 36.8828 21.1528 37.1916 20.6895C37.5091 20.2176 37.715 19.6556 37.8094 19.0035Z" fill="#EE2222"/>
<path d="M45.9016 35.0656L50.4577 7.88356H57.5106L56.9443 11.3328H57.0988C57.4592 10.6635 57.9311 10.0501 58.5145 9.49234C59.1065 8.92605 59.8015 8.47559 60.5995 8.14096C61.406 7.79776 62.2984 7.62615 63.2765 7.62615C64.5807 7.62615 65.7605 7.97365 66.8159 8.66865C67.8712 9.36364 68.6477 10.4576 69.1454 11.9506C69.643 13.4435 69.6945 15.3827 69.2998 17.768C68.9223 20.0503 68.2488 21.9422 67.2792 23.4438C66.3182 24.9453 65.1856 26.065 63.8814 26.8029C62.5858 27.5408 61.2344 27.9097 59.8273 27.9097C58.9006 27.9097 58.0984 27.7596 57.4205 27.4593C56.7427 27.1504 56.1979 26.7343 55.786 26.2109C55.3742 25.6789 55.091 25.0783 54.9366 24.409H54.7821L53.0318 35.0656H45.9016ZM55.7603 17.768C55.6058 18.7289 55.593 19.5612 55.7217 20.2648C55.8589 20.9598 56.1292 21.5003 56.5325 21.8864C56.9443 22.264 57.4763 22.4527 58.1284 22.4527C58.7805 22.4527 59.364 22.2683 59.8788 21.8993C60.3936 21.5218 60.8312 20.9855 61.1915 20.2905C61.5519 19.587 61.8179 18.7461 61.9895 17.768C62.1439 16.7898 62.1568 15.9532 62.0281 15.2582C61.8994 14.5547 61.6377 14.0184 61.243 13.6495C60.8483 13.2719 60.3249 13.0832 59.6728 13.0832C59.0207 13.0832 58.4244 13.2719 57.8839 13.6495C57.3519 14.0184 56.9014 14.5547 56.5325 15.2582C56.1721 15.9532 55.9147 16.7898 55.7603 17.768Z" fill="#EE2222"/>
<path d="M76.0793 27.9612C74.8266 27.9612 73.7497 27.7553 72.8488 27.3435C71.9565 26.923 71.3044 26.2881 70.8925 25.4387C70.4893 24.5806 70.3992 23.4995 70.6223 22.1953C70.8024 21.1142 71.1414 20.1919 71.639 19.4282C72.1367 18.6646 72.7544 18.0382 73.4923 17.5492C74.2302 17.0601 75.0582 16.6868 75.9763 16.4294C76.903 16.1635 77.8811 15.9918 78.9107 15.9146C80.0262 15.8288 80.9314 15.7216 81.6264 15.5929C82.3214 15.4642 82.8405 15.2883 83.1837 15.0652C83.5269 14.8421 83.7328 14.5418 83.8014 14.1643V14.1128C83.8787 13.598 83.7414 13.2033 83.3896 12.9287C83.0464 12.6541 82.5659 12.5169 81.9481 12.5169C81.2789 12.5169 80.6997 12.6627 80.2106 12.9545C79.7301 13.2462 79.3998 13.7009 79.2196 14.3187H72.6815C72.9561 13.1175 73.5181 12.0106 74.3675 10.9982C75.2255 9.97713 76.3624 9.16201 77.7781 8.55281C79.2025 7.93504 80.9013 7.62615 82.8748 7.62615C84.2819 7.62615 85.5175 7.79347 86.5814 8.12809C87.6454 8.45414 88.5248 8.91318 89.2198 9.50521C89.9234 10.0887 90.4168 10.7751 90.6999 11.5645C90.9916 12.3453 91.0603 13.1947 90.9059 14.1128L88.6407 27.6523H81.9996L82.4629 24.8724H82.3085C81.7937 25.6103 81.2145 26.2066 80.571 26.6613C79.9361 27.1161 79.2411 27.4464 78.486 27.6523C77.7395 27.8583 76.9373 27.9612 76.0793 27.9612ZM79.1681 23.4824C79.7001 23.4824 80.2235 23.3708 80.7383 23.1477C81.2531 22.9247 81.695 22.6029 82.0639 22.1825C82.4329 21.762 82.6689 21.2515 82.7718 20.6509L83.0292 19.0035C82.8405 19.0807 82.6302 19.1537 82.3986 19.2223C82.1755 19.2824 81.9395 19.3424 81.6907 19.4025C81.4505 19.4625 81.1931 19.5183 80.9185 19.5698C80.6525 19.6213 80.3779 19.6728 80.0948 19.7242C79.5285 19.81 79.0523 19.9516 78.6662 20.149C78.2801 20.3377 77.9798 20.5737 77.7653 20.8568C77.5508 21.1314 77.4178 21.4403 77.3663 21.7835C77.2891 22.324 77.4135 22.7445 77.7395 23.0448C78.0742 23.3365 78.5504 23.4824 79.1681 23.4824Z" fill="#EE2222"/>
<path d="M91.9323 27.6523L96.3082 1.29396H107.737C109.745 1.29396 111.388 1.56424 112.666 2.10479C113.953 2.64534 114.863 3.40898 115.395 4.3957C115.935 5.38243 116.094 6.54505 115.871 7.88356C115.699 8.84454 115.33 9.72401 114.764 10.522C114.206 11.3113 113.499 11.9806 112.641 12.5297C111.791 13.0703 110.843 13.4435 109.796 13.6495L109.745 13.9069C110.877 13.9412 111.864 14.2243 112.705 14.7563C113.546 15.2797 114.164 16.009 114.558 16.9443C114.953 17.8709 115.047 18.952 114.841 20.1876C114.601 21.629 114.013 22.9118 113.078 24.0358C112.143 25.1598 110.929 26.0436 109.436 26.6871C107.943 27.3306 106.244 27.6523 104.339 27.6523H91.9323ZM100.066 21.9379H103.413C104.597 21.9379 105.528 21.7106 106.205 21.2558C106.892 20.8011 107.299 20.1361 107.428 19.2609C107.531 18.6431 107.48 18.1197 107.274 17.6907C107.068 17.2617 106.72 16.9357 106.231 16.7126C105.742 16.4895 105.129 16.378 104.391 16.378H100.941L100.066 21.9379ZM101.714 11.9506H104.648C105.266 11.9506 105.832 11.8519 106.347 11.6546C106.862 11.4572 107.287 11.1698 107.621 10.7922C107.956 10.4147 108.166 9.95997 108.252 9.42799C108.381 8.60429 108.183 7.97794 107.66 7.54893C107.145 7.11992 106.45 6.90541 105.575 6.90541H102.537L101.714 11.9506Z" fill="#161616"/>
<path d="M125.665 28.0127C123.555 28.0127 121.804 27.6094 120.414 26.8029C119.024 25.9878 118.046 24.8209 117.48 23.3022C116.914 21.7749 116.811 19.9473 117.171 17.8194C117.514 15.7773 118.222 13.9927 119.295 12.4654C120.376 10.9381 121.736 9.74975 123.374 8.90031C125.022 8.05087 126.867 7.62615 128.909 7.62615C130.402 7.62615 131.71 7.85782 132.834 8.32115C133.967 8.78448 134.889 9.45802 135.601 10.3418C136.313 11.2255 136.794 12.2938 137.043 13.5465C137.3 14.7906 137.3 16.1978 137.043 17.768L136.785 19.4153H119.127L119.745 15.5028H130.865C130.951 14.9365 130.895 14.4388 130.698 14.0098C130.509 13.5722 130.204 13.2333 129.784 12.9931C129.372 12.7442 128.874 12.6198 128.291 12.6198C127.707 12.6198 127.158 12.7442 126.643 12.9931C126.137 13.2419 125.704 13.5894 125.344 14.0356C124.992 14.4817 124.756 15.0051 124.636 15.6057L123.863 19.7242C123.761 20.3592 123.799 20.9255 123.979 21.4231C124.159 21.9208 124.473 22.3112 124.919 22.5943C125.365 22.8775 125.94 23.019 126.643 23.019C127.124 23.019 127.579 22.9547 128.008 22.826C128.445 22.6887 128.831 22.4914 129.166 22.2339C129.509 21.968 129.784 21.6462 129.99 21.2687H136.476C136.013 22.6415 135.279 23.8342 134.276 24.8466C133.28 25.8505 132.053 26.6313 130.595 27.189C129.145 27.7381 127.501 28.0127 125.665 28.0127Z" fill="#161616"/>
<path d="M153.378 7.88356L152.503 13.0317H139.478L140.354 7.88356H153.378ZM143.648 3.14729H150.753L147.741 21.2944C147.698 21.569 147.707 21.8006 147.767 21.9894C147.827 22.1696 147.947 22.3069 148.127 22.4013C148.316 22.4871 148.565 22.53 148.874 22.53C149.08 22.53 149.333 22.5042 149.633 22.4527C149.933 22.3927 150.161 22.3498 150.315 22.324L150.521 27.3177C150.161 27.4207 149.676 27.5365 149.067 27.6652C148.466 27.8025 147.767 27.8926 146.969 27.9355C145.304 28.0127 143.949 27.8368 142.902 27.4078C141.864 26.9788 141.143 26.3095 140.74 25.4C140.345 24.482 140.276 23.3365 140.534 21.9637L143.648 3.14729Z" fill="#161616"/>
</svg>
