<svg width="184" height="26" viewBox="0 0 184 26" fill="none" xmlns="http://www.w3.org/2000/svg">
<rect y="0.113281" width="44.8889" height="25.7749" rx="3.76488" fill="#FD1E1C"/>
<path d="M2.92969 21.2551V6.68679C2.92969 5.69826 3.09032 5.04337 3.41159 4.7221C3.75757 4.37612 4.53604 4.20312 5.74697 4.20312H13.8652L19.7963 12.7291L20.0558 14.1748V4.20312H26.1723C26.1229 4.25255 26.0858 4.45025 26.0611 4.79624C26.0364 5.11751 26.024 5.4882 26.024 5.90832C26.024 6.30373 26.024 6.64972 26.024 6.94627V19.1792C26.024 20.1183 25.7769 20.6991 25.2826 20.9215C24.8131 21.1439 23.9728 21.2551 22.7619 21.2551H15.4221L9.19444 12.3584L8.93496 10.9127V21.2551H2.92969Z" fill="white"/>
<path d="M33.0684 21.2551L33.1055 9.76356C33.1055 9.17045 32.9696 8.71325 32.6977 8.39199C32.4259 8.07072 32.0057 7.91008 31.4373 7.91008C30.9925 7.91008 30.523 7.93479 30.0287 7.98422C29.5591 8.03365 28.8672 8.14486 27.9528 8.31785V4.7221C29.4356 4.54911 30.7948 4.42554 32.0305 4.3514C33.2908 4.27726 34.4153 4.24019 35.4038 4.24019C36.9854 4.24019 38.2211 4.37612 39.1107 4.64796C40.0251 4.89509 40.6677 5.31521 41.0384 5.90832C41.4091 6.50144 41.5944 7.30461 41.5944 8.31785V21.2551H33.0684Z" fill="white"/>
<path d="M47.7812 12.3753C47.7812 10.6701 47.9913 9.26149 48.4114 8.1494C48.8563 7.0126 49.5977 6.12293 50.6356 5.48039C51.6983 4.83785 53.1316 4.38066 54.9357 4.10882C56.7397 3.83697 59.001 3.70105 61.7194 3.70105C62.7574 3.70105 63.7212 3.73812 64.6108 3.81226C65.5252 3.86169 66.489 3.94818 67.5023 4.07175C68.7379 4.22003 69.5534 4.52894 69.9489 4.99849C70.3443 5.46803 70.542 6.13529 70.542 7.00024V9.55804C69.6523 9.26149 68.6885 9.02671 67.6505 8.85372C66.6373 8.65602 65.6364 8.50774 64.6479 8.40889C63.6841 8.31003 62.8315 8.26061 62.0901 8.26061C60.805 8.26061 59.7424 8.33475 58.9021 8.48303C58.0619 8.60659 57.4317 8.96493 57.0116 9.55804C56.6162 10.1264 56.4185 11.0779 56.4185 12.4124C56.4185 13.6481 56.6285 14.5624 57.0486 15.1555C57.4935 15.7239 58.1854 16.0946 59.1245 16.2676C60.0636 16.4159 61.2746 16.4901 62.7574 16.4901C63.4493 16.4901 64.166 16.453 64.9074 16.3788C65.6488 16.28 66.4643 16.1564 67.354 16.0081C68.2684 15.8352 69.331 15.6375 70.542 15.415V17.7875C70.542 18.5783 70.3319 19.2208 69.9118 19.7151C69.4917 20.2094 68.6267 20.5306 67.3169 20.6789C66.3531 20.8272 65.3769 20.926 64.3884 20.9755C63.4246 21.0249 62.4237 21.0496 61.3858 21.0496C58.6673 21.0496 56.4185 20.9137 54.6391 20.6418C52.8845 20.37 51.5006 19.9128 50.4873 19.2703C49.4988 18.6277 48.7945 17.7504 48.3744 16.6383C47.979 15.5015 47.7812 14.0805 47.7812 12.3753Z" fill="white"/>
<path d="M71.3607 20.9013L77.922 7.03731C78.4163 5.99937 79.1082 5.18383 79.9979 4.59072C80.9123 3.99761 82.2838 3.70105 84.1126 3.70105C85.546 3.70105 86.7569 3.98525 87.7454 4.55365C88.7587 5.09734 89.5248 5.92523 90.0437 7.03731L96.6051 20.9013H87.4489L85.8549 17.7133H79.2565L77.7737 20.9013H71.3607ZM80.5539 14.6366H84.298L82.5928 11.0779C82.5681 11.0038 82.5433 10.9296 82.5186 10.8555C82.4939 10.7813 82.4816 10.7443 82.4816 10.7443C82.4816 10.7443 82.4692 10.7813 82.4445 10.8555C82.4198 10.9296 82.3827 11.0038 82.3333 11.0779L80.5539 14.6366Z" fill="white"/>
<path d="M97.8556 15.7857C98.5475 16.0329 99.4125 16.2182 100.45 16.3418C101.513 16.4406 102.613 16.5024 103.75 16.5271C104.886 16.5518 105.9 16.5642 106.789 16.5642C107.135 16.5642 107.58 16.5642 108.124 16.5642C108.692 16.5395 109.137 16.5271 109.458 16.5271C109.903 16.5271 110.249 16.4901 110.496 16.4159C110.768 16.3171 110.953 16.1935 111.052 16.0452C111.176 15.8969 111.238 15.7116 111.238 15.4892C111.238 15.2173 111.126 15.0196 110.904 14.8961C110.706 14.7478 110.36 14.6736 109.866 14.6736C109.644 14.6736 109.372 14.6736 109.051 14.6736C108.729 14.6736 108.272 14.6736 107.679 14.6736C107.111 14.6736 106.307 14.6736 105.269 14.6736C104.38 14.6736 103.503 14.6366 102.638 14.5624C101.797 14.4883 101.031 14.3029 100.339 14.0064C99.672 13.6851 99.1283 13.1909 98.7082 12.5236C98.3128 11.8564 98.1151 10.9296 98.1151 9.74339C98.1151 8.33475 98.3375 7.23502 98.7823 6.4442C99.2519 5.62867 99.9191 5.0232 100.784 4.62779C101.649 4.23238 102.699 3.98525 103.935 3.8864C105.171 3.76283 106.567 3.70105 108.124 3.70105C109.063 3.70105 110.051 3.71341 111.089 3.73812C112.152 3.73812 113.141 3.75048 114.055 3.77519C114.969 3.7999 115.661 3.82462 116.131 3.84933C117.292 3.89876 118.182 4.19531 118.8 4.739C119.442 5.28269 119.764 5.9623 119.764 6.77783C119.764 6.87668 119.764 7.08674 119.764 7.40801C119.764 7.70456 119.764 8.00112 119.764 8.29768C119.764 8.56952 119.764 8.7178 119.764 8.74251C119.615 8.61895 119.269 8.5201 118.726 8.44596C118.182 8.37182 117.54 8.32239 116.798 8.29768C116.057 8.24825 115.315 8.22354 114.574 8.22354C113.833 8.19883 113.178 8.18647 112.609 8.18647H108.42C107.901 8.18647 107.531 8.2359 107.308 8.33475C107.086 8.40889 106.95 8.5201 106.901 8.66837C106.851 8.79194 106.826 8.92786 106.826 9.07614C106.826 9.1997 106.839 9.32327 106.863 9.44683C106.888 9.5704 106.975 9.68161 107.123 9.78046C107.271 9.8546 107.506 9.89167 107.827 9.89167C109.73 9.89167 111.201 9.89167 112.239 9.89167C113.277 9.89167 113.845 9.89167 113.944 9.89167C115.229 9.89167 116.329 10.0029 117.243 10.2253C118.182 10.4477 118.899 10.9296 119.393 11.671C119.912 12.3877 120.171 13.4998 120.171 15.0073C120.171 16.3912 119.912 17.5033 119.393 18.3435C118.899 19.1838 118.182 19.8016 117.243 20.197C116.329 20.5924 115.254 20.8272 114.018 20.9013C112.412 21.0002 110.892 21.0496 109.458 21.0496C108.05 21.0743 106.542 21.0743 104.936 21.0496C103.675 21.0249 102.588 20.9755 101.674 20.9013C100.784 20.8272 100.055 20.7036 99.4866 20.5306C98.9182 20.3329 98.4981 20.0734 98.2263 19.7522C97.9791 19.4309 97.8556 19.0108 97.8556 18.4918V15.7857Z" fill="white"/>
<path d="M122.77 20.9013C122.77 18.4547 122.77 16.0205 122.77 13.5986C122.77 11.152 122.77 8.7178 122.77 6.29592C122.77 5.77695 122.807 5.33211 122.882 4.96142C122.98 4.59072 123.215 4.31888 123.586 4.14589C123.981 3.94818 124.624 3.84933 125.514 3.84933H131.222V20.9013H122.77Z" fill="white"/>
<path d="M134.174 20.9013V6.33299C134.174 5.34447 134.334 4.68957 134.656 4.3683C135.002 4.02232 135.78 3.84933 136.991 3.84933H145.109L151.04 12.3753L151.3 13.821V3.84933H157.416C157.367 3.89876 157.33 4.09646 157.305 4.44244C157.28 4.76371 157.268 5.13441 157.268 5.55453C157.268 5.94994 157.268 6.29592 157.268 6.59248V18.8254C157.268 19.7645 157.021 20.3453 156.527 20.5677C156.057 20.7901 155.217 20.9013 154.006 20.9013H146.666L140.438 12.0046L140.179 10.5589V20.9013H134.174Z" fill="white"/>
<path d="M171.837 21.1608C169.514 21.1608 167.574 21.0125 166.018 20.716C164.461 20.3947 163.213 19.8881 162.274 19.1961C161.334 18.5042 160.655 17.6021 160.235 16.4901C159.839 15.378 159.642 14.0064 159.642 12.3753C159.642 10.7443 159.839 9.3727 160.235 8.26061C160.655 7.14852 161.334 6.2465 162.274 5.55453C163.213 4.86256 164.461 4.3683 166.018 4.07175C167.574 3.75048 169.514 3.58984 171.837 3.58984C174.16 3.58984 176.1 3.75048 177.657 4.07175C179.214 4.3683 180.45 4.86256 181.364 5.55453C182.303 6.2465 182.971 7.14852 183.366 8.26061C183.786 9.3727 183.996 10.7443 183.996 12.3753C183.996 14.0064 183.786 15.378 183.366 16.4901C182.971 17.6021 182.303 18.5042 181.364 19.1961C180.45 19.8881 179.214 20.3947 177.657 20.716C176.1 21.0125 174.16 21.1608 171.837 21.1608ZM171.837 16.8607C172.505 16.8607 173.061 16.7866 173.506 16.6383C173.95 16.4901 174.309 16.2429 174.581 15.8969C174.852 15.551 175.038 15.0938 175.137 14.5254C175.26 13.9323 175.322 13.2156 175.322 12.3753C175.322 11.5104 175.26 10.7937 175.137 10.2253C175.038 9.6569 174.852 9.1997 174.581 8.85372C174.309 8.50774 173.95 8.26061 173.506 8.11233C173.061 7.96405 172.505 7.88991 171.837 7.88991C171.17 7.88991 170.602 7.96405 170.132 8.11233C169.687 8.26061 169.329 8.50774 169.057 8.85372C168.81 9.1997 168.625 9.6569 168.501 10.2253C168.378 10.7937 168.316 11.5104 168.316 12.3753C168.316 13.2156 168.378 13.9323 168.501 14.5254C168.625 15.0938 168.81 15.551 169.057 15.8969C169.329 16.2429 169.687 16.4901 170.132 16.6383C170.602 16.7866 171.17 16.8607 171.837 16.8607Z" fill="white"/>
</svg>
