<svg width="161" height="56" viewBox="0 0 161 56" fill="none" xmlns="http://www.w3.org/2000/svg">
<path d="M29.4276 31.94H25.566L18.6101 20.0659V31.94H15V13.9023H18.8616L25.8176 25.7891V13.9023H29.4276V31.94Z" fill="#FF17F2"/>
<path d="M37.5786 28.6444C37.7127 28.6864 37.8469 28.7157 37.9811 28.7325C38.1152 28.7409 38.2494 28.7451 38.3836 28.7451C38.719 28.7451 39.0419 28.699 39.3521 28.6067C39.6624 28.5145 39.9517 28.3845 40.2201 28.2168C40.4968 28.0407 40.74 27.831 40.9496 27.5878C41.1677 27.3363 41.3438 27.0595 41.4779 26.7577L43.9936 29.286C43.675 29.7388 43.306 30.1455 42.8867 30.5061C42.4758 30.8667 42.0272 31.1727 41.5408 31.4243C41.0628 31.6759 40.5555 31.8646 40.0188 31.9904C39.4905 32.1245 38.9454 32.1916 38.3836 32.1916C37.436 32.1916 36.5429 32.0155 35.7044 31.6633C34.8742 31.3111 34.1446 30.8205 33.5157 30.1916C32.8951 29.5627 32.4046 28.8164 32.044 27.9526C31.6834 27.0805 31.5031 26.1245 31.5031 25.0847C31.5031 24.0197 31.6834 23.047 32.044 22.1665C32.4046 21.286 32.8951 20.5355 33.5157 19.9149C34.1446 19.2944 34.8742 18.8122 35.7044 18.4684C36.5429 18.1246 37.436 17.9526 38.3836 17.9526C38.9454 17.9526 39.4947 18.0197 40.0314 18.1539C40.5681 18.2881 41.0754 18.4809 41.5534 18.7325C42.0398 18.9841 42.4926 19.2944 42.9119 19.6633C43.3312 20.0239 43.7001 20.4306 44.0188 20.8835L37.5786 28.6444ZM39.3396 21.5627C39.1802 21.504 39.0209 21.4663 38.8616 21.4495C38.7106 21.4327 38.5513 21.4243 38.3836 21.4243C37.914 21.4243 37.4695 21.5124 37.0503 21.6885C36.6394 21.8562 36.2788 22.0994 35.9685 22.418C35.6666 22.7367 35.4276 23.1224 35.2515 23.5753C35.0754 24.0197 34.9874 24.5229 34.9874 25.0847C34.9874 25.2105 34.9916 25.3531 35 25.5124C35.0167 25.6717 35.0377 25.8352 35.0628 26.0029C35.0964 26.1623 35.1341 26.3174 35.1761 26.4684C35.218 26.6193 35.2725 26.7535 35.3396 26.8709L39.3396 21.5627Z" fill="#FF17F2"/>
<path d="M58.6729 25.0847C58.6729 26.091 58.4926 27.0302 58.132 27.9023C57.7714 28.766 57.2808 29.5166 56.6603 30.1539C56.0397 30.7828 55.3102 31.2818 54.4716 31.6507C53.6414 32.0113 52.7483 32.1916 51.7924 32.1916C50.8448 32.1916 49.9517 32.0113 49.1131 31.6507C48.2829 31.2818 47.5534 30.7828 46.9245 30.1539C46.3039 29.5166 45.8133 28.766 45.4528 27.9023C45.0922 27.0302 44.9119 26.091 44.9119 25.0847C44.9119 24.0617 45.0922 23.1141 45.4528 22.2419C45.8133 21.3698 46.3039 20.6193 46.9245 19.9904C47.5534 19.3531 48.2829 18.8541 49.1131 18.4935C49.9517 18.1329 50.8448 17.9526 51.7924 17.9526C52.7483 17.9526 53.6414 18.1246 54.4716 18.4684C55.3102 18.8038 56.0397 19.286 56.6603 19.9149C57.2808 20.5355 57.7714 21.286 58.132 22.1665C58.4926 23.0386 58.6729 24.0113 58.6729 25.0847ZM55.2137 25.0847C55.2137 24.5313 55.1215 24.0323 54.937 23.5879C54.7609 23.135 54.5177 22.7493 54.2075 22.4306C53.8972 22.1036 53.5324 21.8562 53.1131 21.6885C52.7022 21.5124 52.262 21.4243 51.7924 21.4243C51.3228 21.4243 50.8783 21.5124 50.459 21.6885C50.0481 21.8562 49.6875 22.1036 49.3773 22.4306C49.0754 22.7493 48.8364 23.135 48.6603 23.5879C48.4842 24.0323 48.3961 24.5313 48.3961 25.0847C48.3961 25.6046 48.4842 26.0868 48.6603 26.5312C48.8364 26.9757 49.0754 27.3614 49.3773 27.6885C49.6875 28.0155 50.0481 28.2755 50.459 28.4683C50.8783 28.6528 51.3228 28.7451 51.7924 28.7451C52.262 28.7451 52.7022 28.657 53.1131 28.4809C53.5324 28.3048 53.8972 28.0574 54.2075 27.7388C54.5177 27.4201 54.7609 27.0344 54.937 26.5816C55.1215 26.1287 55.2137 25.6298 55.2137 25.0847Z" fill="#FF17F2"/>
<path d="M64.0062 31.94H60.5722V18.4684H61.4024L62.5345 19.7765C63.0879 19.2734 63.7127 18.8877 64.4087 18.6193C65.1131 18.3426 65.8468 18.2042 66.6099 18.2042C67.4317 18.2042 68.2074 18.3635 68.937 18.6822C69.6665 18.9925 70.3039 19.4243 70.8489 19.9778C71.394 20.5229 71.8217 21.1644 72.1319 21.9023C72.4506 22.6319 72.6099 23.4118 72.6099 24.2419V31.94H69.176V24.2419C69.176 23.8897 69.1089 23.5585 68.9747 23.2482C68.8405 22.9296 68.6561 22.6528 68.4213 22.418C68.1865 22.1832 67.9139 21.9988 67.6036 21.8646C67.2934 21.7304 66.9621 21.6633 66.6099 21.6633C66.2494 21.6633 65.9097 21.7304 65.5911 21.8646C65.2724 21.9988 64.9957 22.1832 64.7609 22.418C64.5261 22.6528 64.3416 22.9296 64.2074 23.2482C64.0733 23.5585 64.0062 23.8897 64.0062 24.2419V31.94Z" fill="#FF17F2"/>
<path d="M89.2137 13.9023L83.2891 31.94H79.6791L73.7797 13.9023H77.8804L81.4778 25.9401L85.0879 13.9023H89.2137Z" fill="#FF17F2"/>
<path d="M94.786 28.6444C94.9202 28.6864 95.0543 28.7157 95.1885 28.7325C95.3227 28.7409 95.4568 28.7451 95.591 28.7451C95.9264 28.7451 96.2493 28.699 96.5596 28.6067C96.8698 28.5145 97.1591 28.3845 97.4275 28.2168C97.7042 28.0407 97.9474 27.831 98.157 27.5878C98.3751 27.3363 98.5512 27.0595 98.6853 26.7577L101.201 29.286C100.882 29.7388 100.513 30.1455 100.094 30.5061C99.6832 30.8667 99.2346 31.1727 98.7482 31.4243C98.2702 31.6759 97.7629 31.8646 97.2262 31.9904C96.6979 32.1245 96.1528 32.1916 95.591 32.1916C94.6434 32.1916 93.7503 32.0155 92.9118 31.6633C92.0816 31.3111 91.352 30.8205 90.7231 30.1916C90.1025 29.5627 89.612 28.8164 89.2514 27.9526C88.8908 27.0805 88.7105 26.1245 88.7105 25.0847C88.7105 24.0197 88.8908 23.047 89.2514 22.1665C89.612 21.286 90.1025 20.5355 90.7231 19.9149C91.352 19.2944 92.0816 18.8122 92.9118 18.4684C93.7503 18.1246 94.6434 17.9526 95.591 17.9526C96.1528 17.9526 96.7021 18.0197 97.2388 18.1539C97.7755 18.2881 98.2828 18.4809 98.7608 18.7325C99.2472 18.9841 99.7 19.2944 100.119 19.6633C100.539 20.0239 100.908 20.4306 101.226 20.8835L94.786 28.6444ZM96.547 21.5627C96.3876 21.504 96.2283 21.4663 96.069 21.4495C95.9181 21.4327 95.7587 21.4243 95.591 21.4243C95.1214 21.4243 94.677 21.5124 94.2577 21.6885C93.8468 21.8562 93.4862 22.0994 93.1759 22.418C92.874 22.7367 92.635 23.1224 92.4589 23.5753C92.2828 24.0197 92.1948 24.5229 92.1948 25.0847C92.1948 25.2105 92.199 25.3531 92.2074 25.5124C92.2241 25.6717 92.2451 25.8352 92.2703 26.0029C92.3038 26.1623 92.3415 26.3174 92.3835 26.4684C92.4254 26.6193 92.4799 26.7535 92.547 26.8709L96.547 21.5627Z" fill="#FF17F2"/>
<path d="M112.446 25.0847C112.446 24.6151 112.354 24.1623 112.17 23.7262C111.993 23.2818 111.75 22.8918 111.44 22.5564C111.13 22.2126 110.765 21.9401 110.346 21.7388C109.935 21.5292 109.495 21.4243 109.025 21.4243C108.555 21.4243 108.111 21.504 107.692 21.6633C107.281 21.8227 106.92 22.0575 106.61 22.3677C106.308 22.678 106.069 23.0637 105.893 23.525C105.717 23.9778 105.629 24.4977 105.629 25.0847C105.629 25.6466 105.717 26.1539 105.893 26.6067C106.069 27.0512 106.308 27.4327 106.61 27.7514C106.92 28.07 107.281 28.3174 107.692 28.4935C108.111 28.6612 108.555 28.7451 109.025 28.7451C109.495 28.7451 109.935 28.6444 110.346 28.4432C110.765 28.2335 111.13 27.961 111.44 27.6256C111.75 27.2818 111.993 26.8918 112.17 26.4558C112.354 26.0113 112.446 25.5543 112.446 25.0847ZM115.905 30.2419C115.905 31.1895 115.725 32.0784 115.365 32.9086C115.004 33.7388 114.509 34.4641 113.88 35.0847C113.26 35.7052 112.53 36.1958 111.692 36.5564C110.861 36.917 109.973 37.0973 109.025 37.0973L107.302 37.0721V33.6381L109 33.6633C109.536 33.6633 109.993 33.592 110.371 33.4495C110.748 33.3153 111.067 33.1266 111.327 32.8834C111.587 32.6486 111.792 32.3761 111.943 32.0658C112.103 31.7556 112.228 31.4285 112.321 31.0847C112.186 31.3027 111.993 31.483 111.742 31.6256C111.49 31.7597 111.209 31.8688 110.899 31.9526C110.597 32.0449 110.279 32.1078 109.943 32.1413C109.616 32.1748 109.31 32.1916 109.025 32.1916C108.077 32.1916 107.184 32.0281 106.346 31.701C105.516 31.374 104.786 30.9086 104.157 30.3048C103.536 29.6927 103.046 28.9463 102.685 28.0658C102.325 27.1853 102.144 26.1916 102.144 25.0847C102.144 24.07 102.325 23.1266 102.685 22.2545C103.046 21.3824 103.536 20.6277 104.157 19.9904C104.786 19.3531 105.516 18.8541 106.346 18.4935C107.184 18.1329 108.077 17.9526 109.025 17.9526C109.461 17.9526 109.893 18.0072 110.321 18.1162C110.748 18.2252 111.163 18.3761 111.566 18.569C111.968 18.7619 112.35 18.9883 112.71 19.2482C113.079 19.5082 113.423 19.7891 113.742 20.091L115.075 18.4935H115.905V30.2419Z" fill="#FF17F2"/>
<path d="M131.578 31.94H130.748L129.415 30.091C129.088 30.3845 128.74 30.6612 128.371 30.9212C128.01 31.1727 127.629 31.395 127.226 31.5878C126.824 31.7723 126.409 31.9191 125.981 32.0281C125.562 32.1371 125.134 32.1916 124.698 32.1916C123.75 32.1916 122.857 32.0323 122.019 31.7136C121.188 31.395 120.459 30.9338 119.83 30.33C119.209 29.7178 118.719 28.9715 118.358 28.091C117.998 27.2105 117.817 26.2084 117.817 25.0847C117.817 24.0365 117.998 23.0763 118.358 22.2042C118.719 21.3237 119.209 20.569 119.83 19.9401C120.459 19.3111 121.188 18.8248 122.019 18.4809C122.857 18.1287 123.75 17.9526 124.698 17.9526C125.134 17.9526 125.566 18.0072 125.993 18.1162C126.421 18.2252 126.836 18.3761 127.239 18.569C127.641 18.7619 128.023 18.9883 128.383 19.2482C128.752 19.5082 129.096 19.7891 129.415 20.091L130.748 18.4935H131.578V31.94ZM128.119 25.0847C128.119 24.6151 128.027 24.1623 127.843 23.7262C127.666 23.2818 127.423 22.8918 127.113 22.5564C126.803 22.2126 126.438 21.9401 126.019 21.7388C125.608 21.5292 125.167 21.4243 124.698 21.4243C124.228 21.4243 123.784 21.504 123.365 21.6633C122.954 21.8227 122.593 22.0575 122.283 22.3677C121.981 22.678 121.742 23.0637 121.566 23.525C121.39 23.9778 121.302 24.4977 121.302 25.0847C121.302 25.6717 121.39 26.1958 121.566 26.657C121.742 27.1099 121.981 27.4914 122.283 27.8017C122.593 28.112 122.954 28.3468 123.365 28.5061C123.784 28.6654 124.228 28.7451 124.698 28.7451C125.167 28.7451 125.608 28.6444 126.019 28.4432C126.438 28.2335 126.803 27.961 127.113 27.6256C127.423 27.2818 127.666 26.8918 127.843 26.4558C128.027 26.0113 128.119 25.5543 128.119 25.0847Z" fill="#FF17F2"/>
<path d="M141.603 31.94H133.754V28.5187H141.603C141.838 28.5187 142.04 28.4348 142.207 28.2671C142.375 28.0994 142.459 27.8981 142.459 27.6633C142.459 27.4201 142.375 27.2608 142.207 27.1853C142.04 27.1099 141.838 27.0721 141.603 27.0721H138.031C137.436 27.0721 136.878 26.9589 136.358 26.7325C135.838 26.5061 135.385 26.2 135 25.8143C134.614 25.4201 134.308 24.9631 134.081 24.4432C133.863 23.9233 133.754 23.3656 133.754 22.7702C133.754 22.1749 133.863 21.6172 134.081 21.0973C134.308 20.5774 134.614 20.1246 135 19.7388C135.385 19.3531 135.838 19.0512 136.358 18.8332C136.878 18.6067 137.436 18.4935 138.031 18.4935H144.987V21.9149H138.031C137.796 21.9149 137.595 21.9988 137.427 22.1665C137.26 22.3342 137.176 22.5354 137.176 22.7702C137.176 23.0134 137.26 23.2231 137.427 23.3992C137.595 23.5669 137.796 23.6507 138.031 23.6507H141.603C142.19 23.6507 142.744 23.7514 143.264 23.9526C143.784 24.1455 144.237 24.418 144.622 24.7702C145.008 25.1224 145.314 25.5459 145.541 26.0407C145.767 26.5354 145.88 27.0763 145.88 27.6633C145.88 28.2587 145.767 28.8164 145.541 29.3363C145.314 29.8478 145.008 30.3006 144.622 30.6948C144.237 31.0805 143.784 31.3866 143.264 31.613C142.744 31.831 142.19 31.94 141.603 31.94Z" fill="#FF17F2"/>
<path d="M33.0636 42.9322H9.00001C4.58173 42.9322 1 39.3505 1 34.9322V9.99999C1 5.58171 4.58172 2 9 2H151.271C155.689 2 159.271 5.58172 159.271 10V34.9322C159.271 39.3505 155.689 42.9322 151.271 42.9322H126.525" stroke="white" stroke-width="2" stroke-linecap="round" stroke-linejoin="round" stroke-dasharray="0.1 10"/>
<path d="M63.2385 49.8156C64.1388 48.953 64.8533 48.0846 65.3822 47.2104C65.416 47.1529 65.4385 47.0954 65.4497 47.0379C65.461 46.9804 65.4666 46.9229 65.4666 46.8654C65.4666 46.7043 65.4104 46.5606 65.2978 46.434C65.1853 46.296 65.0334 46.227 64.8421 46.227C64.7296 46.227 64.6227 46.2558 64.5214 46.3133C64.4201 46.3593 64.3413 46.434 64.2851 46.5376C63.8012 47.3312 63.1485 48.1191 62.327 48.9012C61.5056 49.6833 60.5603 50.3907 59.4913 51.0233C58.4335 51.6444 57.2801 52.1505 56.031 52.5416C54.7819 52.9211 53.4822 53.1109 52.1318 53.1109C51.119 53.1109 50.1006 53.0246 49.0766 52.8521C48.0526 52.6681 47.0679 52.392 46.1227 52.024C45.1887 51.6444 44.311 51.1671 43.4895 50.592C42.6793 50.0169 41.9703 49.3383 41.3627 48.5561C40.755 47.7625 40.2767 46.8596 39.9279 45.8474C39.5903 44.8353 39.4215 43.7023 39.4215 42.4486C39.4215 41.0684 39.6297 39.7974 40.0461 38.6357C40.4737 37.474 41.042 36.4274 41.7509 35.4957C42.4598 34.5526 43.2813 33.7302 44.2153 33.0286C45.1606 32.3269 46.1508 31.7403 47.1861 31.2688C48.2214 30.7972 49.2679 30.4464 50.3257 30.2163C51.3947 29.9748 52.4131 29.854 53.3809 29.854C54.6637 29.854 55.8678 29.9978 56.9931 30.2853C58.1297 30.5729 59.1199 30.9812 59.9639 31.5103C60.8079 32.0279 61.4774 32.6605 61.9726 33.4081C62.4677 34.1442 62.7153 34.9609 62.7153 35.858C62.7153 36.6747 62.5183 37.4568 62.1245 38.2044C61.7306 38.952 61.1905 39.6134 60.504 40.1885C59.8176 40.7636 59.013 41.2237 58.0903 41.5687C57.1788 41.9138 56.1998 42.0863 55.1532 42.0863C54.5906 42.0863 54.0279 42.0288 53.4653 41.9138C52.9026 41.7873 52.3906 41.586 51.9292 41.3099C51.4679 41.0224 51.0909 40.6543 50.7983 40.2057C50.517 39.7572 50.3763 39.2051 50.3763 38.5495C50.3763 38.1354 50.4382 37.7558 50.562 37.4108C50.697 37.0657 50.8433 36.7724 51.0009 36.5309C51.1584 36.2778 51.3047 36.0823 51.4397 35.9443C51.5748 35.7948 51.6535 35.7143 51.6761 35.7027C51.8223 35.5647 51.8955 35.3922 51.8955 35.1852C51.8955 35.0011 51.8336 34.8516 51.7098 34.7366C51.586 34.6216 51.4341 34.5641 51.2541 34.5641C51.1865 34.5641 51.1134 34.5756 51.0346 34.5986C50.9671 34.6101 50.9052 34.6446 50.849 34.7021L50.5282 35.0299C50.3482 35.2139 50.1513 35.4727 49.9375 35.8063C49.7349 36.1398 49.5436 36.5424 49.3636 37.014C49.1948 37.474 49.1104 37.9859 49.1104 38.5495C49.1104 39.2281 49.2398 39.8607 49.4986 40.4473C49.7574 41.0339 50.14 41.5457 50.6464 41.9828C51.1528 42.4199 51.783 42.7649 52.5369 43.018C53.2909 43.2595 54.1573 43.3803 55.1364 43.3803C56.3517 43.3803 57.4939 43.179 58.5629 42.7764C59.6432 42.3739 60.5828 41.8275 61.3818 41.1374C62.192 40.4473 62.8278 39.6479 63.2892 38.7393C63.7505 37.8191 63.9812 36.8529 63.9812 35.8408C63.9812 34.7481 63.6999 33.7589 63.1373 32.8733C62.5859 31.9761 61.8319 31.2113 60.8754 30.5786C59.9189 29.9345 58.7992 29.44 57.5164 29.0949C56.2448 28.7383 54.8832 28.5601 53.4315 28.5601C52.1149 28.5601 50.8265 28.7153 49.5661 29.0259C48.3058 29.3364 47.1073 29.785 45.9708 30.3716C44.8342 30.9467 43.7877 31.6483 42.8312 32.4765C41.8747 33.3046 41.0476 34.2363 40.3499 35.2714C39.6522 36.2951 39.1064 37.4108 38.7126 38.6185C38.33 39.8262 38.1387 41.1029 38.1387 42.4486C38.1387 43.8289 38.3243 45.0826 38.6957 46.2097C39.0783 47.3369 39.6016 48.3434 40.2655 49.229C40.9294 50.1146 41.7059 50.8853 42.5949 51.5409C43.4951 52.185 44.4629 52.7198 45.4981 53.1454C46.5447 53.571 47.6306 53.8873 48.7559 54.0943C49.8925 54.3013 51.029 54.4049 52.1656 54.4049C53.6172 54.4049 55.0238 54.1921 56.3854 53.7665C57.7471 53.3524 59.0018 52.8061 60.1496 52.1275C61.3086 51.4374 62.3383 50.6667 63.2385 49.8156Z" fill="#00F3B9"/>
<path fill-rule="evenodd" clip-rule="evenodd" d="M79.8986 49.3843L80.1719 48.8256C80.2227 48.7507 80.2723 48.6666 80.3206 48.5734C80.4444 48.3204 80.5513 48.0788 80.6413 47.8488C80.7426 47.6187 80.827 47.4117 80.8945 47.2277C81.0296 47.5612 81.1758 47.8833 81.3334 48.1938C81.5022 48.4929 81.6541 48.7862 81.7891 49.0737C81.9354 49.3613 82.0536 49.6488 82.1436 49.9364C82.2336 50.2239 82.2786 50.5115 82.2786 50.799C82.2786 50.937 82.2505 51.1038 82.1942 51.2993C82.1492 51.4834 82.0705 51.6617 81.9579 51.8342C81.8454 51.9952 81.6935 52.1332 81.5022 52.2483C81.3221 52.3633 81.0971 52.4208 80.827 52.4208C80.692 52.4208 80.5569 52.3978 80.4219 52.3518C80.2981 52.3058 80.1856 52.254 80.0843 52.1965C79.9943 52.1275 79.9155 52.07 79.848 52.024C79.7805 51.9665 79.7411 51.9262 79.7298 51.9032C79.606 51.7767 79.4541 51.7134 79.2741 51.7134C79.1053 51.7134 78.9534 51.7824 78.8183 51.9205C78.6945 52.047 78.6327 52.1965 78.6327 52.369C78.6327 52.484 78.6664 52.5933 78.7339 52.6968C79.139 53.3179 79.6623 53.7608 80.3037 54.0253C80.9564 54.3013 81.6597 54.4394 82.4137 54.4394C83.0438 54.4394 83.6234 54.3416 84.1523 54.1461C84.6812 53.962 85.165 53.7147 85.6039 53.4042C86.054 53.0821 86.4591 52.7198 86.8192 52.3173C87.1793 51.9147 87.4944 51.5064 87.7645 51.0923C87.7951 51.0459 87.8253 50.9998 87.8548 50.9538C87.8856 51.2457 87.9343 51.5277 88.0008 51.7997C88.1358 52.2943 88.3328 52.7256 88.5916 53.0936C88.8617 53.4617 89.188 53.755 89.5706 53.9735C89.9532 54.1921 90.3977 54.3013 90.9041 54.3013C91.2979 54.3013 91.6862 54.2036 92.0688 54.008C92.4514 53.8125 92.8171 53.5595 93.1659 53.2489C93.5148 52.9269 93.8411 52.5703 94.1449 52.1792C94.46 51.7767 94.747 51.3741 95.0058 50.9715C95.2646 50.569 95.4953 50.1779 95.6979 49.7983C95.8944 49.43 96.0592 49.1158 96.1922 48.8558L96.2006 48.8402C96.2038 48.834 96.207 48.8278 96.21 48.8215C96.2217 48.7992 96.2318 48.7757 96.2401 48.7508C96.6366 47.7752 96.9623 47.095 97.217 46.7101C97.4758 46.3075 97.6559 46.089 97.7572 46.0545C97.8247 46.112 97.8697 46.273 97.8922 46.5376C97.9147 46.8021 97.926 47.0781 97.926 47.3657C97.926 47.5842 97.9147 47.8545 97.8922 48.1766C97.8697 48.4986 97.8416 48.8494 97.8078 49.229C97.774 49.5971 97.7403 49.9709 97.7065 50.3504C97.6728 50.73 97.639 51.0866 97.6052 51.4201C97.5715 51.7422 97.5434 52.024 97.5209 52.2655C97.4983 52.4955 97.4871 52.6508 97.4871 52.7313C97.4871 53.0994 97.5827 53.3869 97.774 53.594C97.9766 53.7895 98.241 53.8873 98.5674 53.8873C98.8037 53.8873 99.0344 53.801 99.2594 53.6285C99.4845 53.4675 99.7096 53.1454 99.9346 52.6623C100.047 52.4093 100.199 52.093 100.39 51.7134C100.593 51.3223 100.807 50.914 101.032 50.4885C101.268 50.0629 101.516 49.6373 101.774 49.2117C102.045 48.7747 102.303 48.3836 102.551 48.0386C102.81 47.6935 103.052 47.4174 103.277 47.2104C103.513 46.9919 103.721 46.8826 103.901 46.8826C103.991 46.8826 104.093 46.9516 104.205 47.0896C104.318 47.2162 104.374 47.4635 104.374 47.8315C104.374 48.0501 104.363 48.2801 104.34 48.5216C104.329 48.7632 104.306 49.0047 104.273 49.2463C104.25 49.4878 104.228 49.7178 104.205 49.9364C104.194 50.1549 104.188 50.3504 104.188 50.523C104.188 50.9255 104.216 51.3281 104.273 51.7307C104.34 52.1217 104.464 52.484 104.644 52.8176C104.824 53.1397 105.072 53.4042 105.387 53.6112C105.702 53.8068 106.113 53.9045 106.619 53.9045C107.069 53.9045 107.497 53.7895 107.902 53.5595C108.318 53.3294 108.701 53.0419 109.05 52.6968C109.41 52.3518 109.736 51.9722 110.029 51.5581C110.106 51.4451 110.181 51.334 110.253 51.225C110.295 51.4172 110.35 51.603 110.417 51.7824C110.597 52.254 110.85 52.6623 111.176 53.0074C111.503 53.3409 111.885 53.5997 112.324 53.7838C112.763 53.9793 113.247 54.0771 113.776 54.0771C114.226 54.0771 114.642 54.0138 115.025 53.8873C115.408 53.7608 115.751 53.5882 116.055 53.3697C116.37 53.1512 116.645 52.8981 116.882 52.6106C117.118 52.3115 117.321 51.9895 117.489 51.6444C117.703 51.6904 117.951 51.7134 118.232 51.7134C118.761 51.7249 119.239 51.6617 119.667 51.5236C120.094 51.3856 120.477 51.2016 120.815 50.9715C121.163 50.73 121.462 50.454 121.709 50.1434C121.968 49.8214 122.193 49.4878 122.384 49.1427C122.429 49.0507 122.474 48.953 122.519 48.8494C122.564 48.7344 122.587 48.6309 122.587 48.5389C122.587 48.3434 122.519 48.1881 122.384 48.0731C122.261 47.9465 122.126 47.8833 121.979 47.8833C121.867 47.8833 121.754 47.9178 121.642 47.9868C121.529 48.0443 121.456 48.1076 121.422 48.1766C121.242 48.5561 121.051 48.8897 120.848 49.1772C120.657 49.4648 120.438 49.7006 120.19 49.8846C119.942 50.0686 119.667 50.2067 119.363 50.2987C119.059 50.3907 118.716 50.4367 118.333 50.4367H118.114C118.046 50.4367 117.979 50.431 117.911 50.4195C118.001 50.0169 118.046 49.6316 118.046 49.2635C118.046 48.5619 117.984 47.958 117.861 47.452C117.737 46.9459 117.568 46.5318 117.354 46.2097C117.152 45.8877 116.915 45.6519 116.645 45.5024C116.375 45.3529 116.088 45.2781 115.785 45.2781C115.278 45.2781 114.867 45.4851 114.552 45.8992C114.248 46.3133 114.097 46.8481 114.097 47.5037C114.097 48.3204 114.31 49.0565 114.738 49.7121C115.166 50.3677 115.711 50.8738 116.375 51.2303C116.15 51.7019 115.824 52.093 115.396 52.4035C114.98 52.7026 114.451 52.8521 113.81 52.8521C113.45 52.8521 113.123 52.7888 112.831 52.6623C112.538 52.5243 112.285 52.3403 112.071 52.1102C111.857 51.8687 111.694 51.5869 111.581 51.2648C111.469 50.9313 111.413 50.5747 111.413 50.1952C111.413 49.7696 111.469 49.3843 111.581 49.0392C111.694 48.6942 111.835 48.3951 112.003 48.1421C112.184 47.889 112.375 47.682 112.577 47.521C112.78 47.3484 112.971 47.2162 113.151 47.1242C113.331 47.0321 113.478 46.9401 113.59 46.8481C113.714 46.7446 113.776 46.5951 113.776 46.3995C113.776 46.227 113.725 46.089 113.624 45.9855C113.534 45.8819 113.393 45.8302 113.202 45.8302C113.033 45.8302 112.78 45.9222 112.442 46.1062C112.105 46.2788 111.767 46.5491 111.43 46.9171C111.159 47.2031 110.913 47.552 110.693 47.9638C110.68 47.971 110.666 47.9786 110.653 47.9868C110.552 48.0558 110.473 48.1536 110.417 48.2801C110.293 48.5791 110.102 48.9702 109.843 49.4533C109.595 49.9364 109.297 50.4137 108.948 50.8853C108.611 51.3454 108.239 51.7479 107.834 52.093C107.429 52.4265 107.013 52.5933 106.585 52.5933C106.349 52.5933 106.158 52.5416 106.011 52.438C105.865 52.323 105.752 52.1735 105.674 51.9895C105.595 51.7939 105.539 51.5696 105.505 51.3166C105.482 51.0636 105.471 50.799 105.471 50.523C105.471 50.3044 105.477 50.0744 105.488 49.8329C105.51 49.5798 105.527 49.3325 105.539 49.091C105.561 48.8494 105.578 48.6252 105.589 48.4181C105.612 48.1996 105.623 48.0156 105.623 47.866C105.623 47.2219 105.482 46.6813 105.201 46.2443C104.92 45.8072 104.486 45.5886 103.901 45.5886C103.609 45.5886 103.294 45.6807 102.956 45.8647C102.63 46.0372 102.303 46.3248 101.977 46.7273C101.651 47.1414 101.336 47.5785 101.032 48.0386C100.739 48.4986 100.458 48.9645 100.188 49.436C99.9177 49.8961 99.6646 50.3562 99.4282 50.8163C99.1919 51.2648 98.9837 51.6789 98.8037 52.0585C98.8375 51.7249 98.8712 51.3108 98.905 50.8163L99.04 49.3325C99.085 48.8264 99.1188 48.3549 99.1413 47.9178C99.175 47.4807 99.1919 47.1587 99.1919 46.9516C99.1919 46.6756 99.1638 46.4053 99.1075 46.1407C99.0625 45.8762 98.9837 45.6347 98.8712 45.4161C98.7699 45.1976 98.6293 45.0251 98.4492 44.8985C98.2692 44.7605 98.0497 44.6915 97.7909 44.6915C97.3521 44.6915 96.9076 44.9848 96.4574 45.5714C96.0186 46.1465 95.5459 47.0494 95.0396 48.2801C95.028 48.3116 95.0184 48.3424 95.0108 48.3725C94.6822 49.036 94.3485 49.6436 94.0099 50.1952C93.6498 50.7703 93.2897 51.2648 92.9296 51.6789C92.5808 52.093 92.2376 52.415 91.9 52.6451C91.5624 52.8751 91.236 52.9901 90.921 52.9901C90.7297 52.9901 90.5271 52.9556 90.3133 52.8866C90.1107 52.8176 89.9138 52.6796 89.7225 52.4725C89.5425 52.2655 89.3905 51.978 89.2668 51.6099C89.1542 51.2303 89.098 50.7358 89.098 50.1262C89.098 49.6776 89.1092 49.1887 89.1317 48.6597C89.1655 48.1191 89.1992 47.613 89.233 47.1414C89.278 46.6583 89.3118 46.2443 89.3343 45.8992C89.368 45.5541 89.3849 45.3471 89.3849 45.2781C89.3849 45.1056 89.3287 44.956 89.2161 44.8295C89.1036 44.6915 88.9629 44.6225 88.7941 44.6225C88.6028 44.6225 88.4453 44.6857 88.3215 44.8123C88.209 44.9273 88.1415 45.0653 88.119 45.2263C87.9862 46.3042 87.897 47.3845 87.8512 48.4672C87.6218 48.9811 87.3566 49.4996 87.0555 50.0226C86.718 50.5977 86.3297 51.1268 85.8909 51.6099C85.4632 52.0815 84.9794 52.4668 84.4392 52.7658C83.8991 53.0649 83.3083 53.2144 82.6669 53.2144H82.4981C82.4418 53.2144 82.3855 53.2087 82.3293 53.1972C82.7681 52.8981 83.0832 52.5301 83.2745 52.093C83.4658 51.6559 83.5615 51.1958 83.5615 50.7127C83.5615 50.3447 83.494 49.9766 83.3589 49.6086C83.2351 49.2405 83.072 48.8494 82.8694 48.4354C82.6669 48.0098 82.4362 47.544 82.1774 47.0379C81.9185 46.5318 81.6597 45.951 81.4009 45.2953C81.4572 45.0193 81.5022 44.7893 81.5359 44.6052C81.5697 44.4212 81.5866 44.2372 81.5866 44.0531C81.5866 43.7196 81.5078 43.4378 81.3503 43.2077C81.204 42.9777 81.0014 42.8627 80.7426 42.8627C80.4613 42.8627 80.2418 42.9835 80.0843 43.225C79.9268 43.455 79.848 43.7598 79.848 44.1394C79.848 44.3349 79.8649 44.5247 79.8986 44.7087C79.9324 44.8928 79.9886 45.1171 80.0674 45.3816C79.9774 45.8532 79.8592 46.3075 79.7129 46.7446C79.5944 47.118 79.4153 47.5491 79.1755 48.0377C79.1048 48.1012 79.0476 48.182 79.004 48.2801C78.9027 48.4986 78.7789 48.7574 78.6327 49.0565C78.4864 49.3555 78.3176 49.6661 78.1263 49.9881C77.935 50.3102 77.7212 50.6322 77.4849 50.9543C77.2598 51.2648 77.0179 51.5466 76.759 51.7997C76.5115 52.0412 76.2526 52.2368 75.9826 52.3863C75.7238 52.5358 75.4593 52.6106 75.1892 52.6106C74.7729 52.6106 74.4465 52.4668 74.2102 52.1792C73.9739 51.8917 73.7939 51.5524 73.6701 51.1613C73.5575 50.7703 73.4844 50.3792 73.4506 49.9881C73.4169 49.5856 73.3944 49.275 73.3831 49.0565C73.3719 48.8954 73.3044 48.7517 73.1806 48.6252C73.068 48.4986 72.933 48.4354 72.7755 48.4354C72.6067 48.4354 72.4604 48.4929 72.3366 48.6079C72.2128 48.7114 72.1397 48.8437 72.1172 49.0047C72.0384 49.6028 71.8977 50.1204 71.6952 50.5575C71.5039 50.9945 71.2844 51.3569 71.0369 51.6444C70.8006 51.932 70.5474 52.1447 70.2773 52.2828C70.0185 52.4208 69.7878 52.4898 69.5852 52.4898C69.3039 52.4898 69.0676 52.4323 68.8763 52.3173C68.685 52.2022 68.5331 52.0527 68.4205 51.8687C68.308 51.6847 68.2292 51.4834 68.1842 51.2648C68.1392 51.0348 68.1167 50.8105 68.1167 50.592C68.1167 49.8904 68.2236 49.2865 68.4374 48.7804C68.6625 48.2628 68.9382 47.8373 69.2645 47.5037C69.5909 47.1587 69.951 46.9056 70.3448 46.7446C70.7387 46.5836 71.11 46.503 71.4589 46.503C71.6952 46.503 71.9034 46.5318 72.0834 46.5893C72.2747 46.6353 72.4379 46.6928 72.5729 46.7618C72.7079 46.8309 72.8148 46.8999 72.8936 46.9689C72.9724 47.0264 73.023 47.0666 73.0455 47.0896C73.1693 47.2162 73.3212 47.2794 73.5013 47.2794C73.6701 47.2794 73.8164 47.2162 73.9402 47.0896C74.0639 46.9516 74.1258 46.7963 74.1258 46.6238C74.1258 46.4628 74.0639 46.3075 73.9402 46.158C73.9289 46.1465 73.867 46.0947 73.7545 46.0027C73.6419 45.8992 73.4788 45.7899 73.265 45.6749C73.0624 45.5599 72.8148 45.4564 72.5223 45.3644C72.2297 45.2608 71.909 45.2091 71.5601 45.2091C71.0425 45.2091 70.5024 45.3241 69.9397 45.5541C69.3883 45.7842 68.8819 46.1292 68.4205 46.5893C67.9592 47.0494 67.5766 47.6245 67.2727 48.3146C66.9802 48.9932 66.8339 49.7811 66.8339 50.6782C66.8339 51.1268 66.8958 51.5409 67.0195 51.9205C67.1546 52.3 67.3403 52.6336 67.5766 52.9211C67.8129 53.1972 68.0998 53.4157 68.4374 53.5767C68.775 53.7263 69.152 53.801 69.5684 53.801C70.0972 53.801 70.6261 53.6112 71.155 53.2317C71.6839 52.8406 72.1397 52.3173 72.5223 51.6617C72.7248 52.3058 73.0455 52.8406 73.4844 53.2662C73.9345 53.6917 74.4859 53.9045 75.1386 53.9045C75.6 53.9045 76.0388 53.7953 76.4552 53.5767C76.8716 53.3467 77.2598 53.0591 77.6199 52.7141C77.98 52.369 78.3063 51.9895 78.5989 51.5754C78.8915 51.1613 79.1447 50.7645 79.3585 50.3849C79.5835 50.0054 79.7636 49.6718 79.8986 49.3843ZM115.43 48.0558C115.374 47.8143 115.346 47.5842 115.346 47.3657C115.346 47.0206 115.402 46.7963 115.514 46.6928C115.627 46.5893 115.717 46.5376 115.785 46.5376C115.953 46.5376 116.1 46.6238 116.223 46.7963C116.347 46.9574 116.448 47.1759 116.527 47.452C116.617 47.7165 116.685 48.0098 116.73 48.3319C116.775 48.6539 116.797 48.9702 116.797 49.2808C116.797 49.5108 116.78 49.7466 116.747 49.9881C116.51 49.8386 116.302 49.6603 116.122 49.4533C115.953 49.2348 115.807 49.0105 115.683 48.7804C115.571 48.5389 115.486 48.2973 115.43 48.0558Z" fill="#00F3B9"/>
<path fill-rule="evenodd" clip-rule="evenodd" d="M90.0939 41.1892C90.3977 40.8786 90.5496 40.5048 90.5496 40.0677C90.5496 39.8492 90.5102 39.6479 90.4314 39.4639C90.3527 39.2683 90.2401 39.1016 90.0939 38.9635C89.9588 38.814 89.7957 38.699 89.6044 38.6185C89.4243 38.538 89.2274 38.4977 89.0136 38.4977C88.7998 38.4977 88.5972 38.538 88.4059 38.6185C88.2259 38.699 88.0627 38.814 87.9164 38.9635C87.7814 39.1016 87.6745 39.2683 87.5957 39.4639C87.5169 39.6479 87.4775 39.8492 87.4775 40.0677C87.4775 40.5048 87.6238 40.8786 87.9164 41.1892C88.2202 41.4882 88.586 41.6377 89.0136 41.6377C89.4412 41.6377 89.8013 41.4882 90.0939 41.1892ZM89.4187 39.6537C89.5425 39.7687 89.6044 39.9067 89.6044 40.0677C89.6044 40.2288 89.5425 40.3668 89.4187 40.4818C89.3061 40.5968 89.1711 40.6543 89.0136 40.6543C88.856 40.6543 88.721 40.5968 88.6085 40.4818C88.4959 40.3668 88.4397 40.2288 88.4397 40.0677C88.4397 39.9067 88.4959 39.7687 88.6085 39.6537C88.721 39.5271 88.856 39.4639 89.0136 39.4639C89.1711 39.4639 89.3061 39.5271 89.4187 39.6537Z" fill="#00F3B9"/>
</svg>
