<svg width="136" height="55" viewBox="0 0 136 55" fill="none" xmlns="http://www.w3.org/2000/svg">
<path d="M68.6637 0.264648V24.3051H52.6598L52.2928 23.3552L47.9258 12.0656L54.9203 17.4941L57.8362 4.77601L64.4999 14.0311L68.6637 0.264648Z" fill="#FBD602"/>
<path d="M89.4023 12.0656L85.0319 23.3552L84.6649 24.3051H68.6641V0.264648L72.8282 14.0311L79.4919 4.77601L82.4044 17.4941L89.4023 12.0656Z" fill="#F4BB00"/>
<path d="M79.4914 4.77612L72.0742 11.54L72.8276 14.0312L79.4914 4.77612Z" fill="#840101"/>
<path d="M89.402 12.0656L82.0156 15.7977L82.404 17.494L89.402 12.0656Z" fill="#840101"/>
<path d="M57.8359 4.77612L65.2531 11.54L64.4997 14.0312L57.8359 4.77612Z" fill="#C42A01"/>
<path d="M47.9258 12.0656L55.3121 15.7977L54.9237 17.494L47.9258 12.0656Z" fill="#C42A01"/>
<path d="M84.6651 24.3035H52.6543V27.9831H84.6651V24.3035Z" fill="#FBD602"/>
<path opacity="0.3" d="M85.0337 23.3541L84.6667 24.3041H52.6619L52.2949 23.3541H85.0337Z" fill="#F4BB00"/>
<path opacity="0.3" d="M84.6677 24.3035H68.6621V27.9831H84.6677V24.3035Z" fill="#F4BB00"/>
<path d="M68.6639 10.9315L65.1406 16.2388L68.6639 21.5461L72.1874 16.2388L68.6639 10.9315Z" fill="#A91901"/>
<path opacity="0.3" d="M68.6641 10.9315V21.5461L72.1876 16.2388L68.6641 10.9315Z" fill="#DB7D00"/>
<path opacity="0.3" d="M65.1406 16.2388H72.1874L68.6639 21.546L65.1406 16.2388Z" fill="#DB7D00"/>
<path d="M78.03 14.0311L75.584 16.5106L76.9197 19.7275L79.3657 17.248L78.03 14.0311Z" fill="#A71801"/>
<path opacity="0.3" d="M78.0303 14.0311L76.9199 19.7275L79.366 17.248L78.0303 14.0311Z" fill="#DB7D00"/>
<path opacity="0.3" d="M75.584 16.5106L79.3657 17.2479L76.9197 19.7275L75.584 16.5106Z" fill="#DB7D00"/>
<path d="M59.2986 14.0309L61.7446 16.5104L60.4089 19.7273L57.9629 17.2477L59.2986 14.0309Z" fill="#A61701"/>
<path opacity="0.3" d="M59.2986 14.0309L60.4089 19.7273L57.9629 17.2477L59.2986 14.0309Z" fill="#DB7D00"/>
<path opacity="0.3" d="M61.7446 16.5107L57.9629 17.2481L60.4089 19.7276L61.7446 16.5107Z" fill="#DB7D00"/>
<mask id="path-19-outside-1_3998_13896" maskUnits="userSpaceOnUse" x="0" y="33.5153" width="136" height="22" fill="black">
<rect fill="white" y="33.5153" width="136" height="22"/>
<path d="M8.41094 52.9402C8.39488 53.0366 8.36676 53.1049 8.32659 53.145C8.28642 53.1852 7.89278 53.2736 7.14566 53.4101C6.39854 53.5467 5.64339 53.615 4.8802 53.615C3.62697 53.615 2.66696 53.2093 2.00018 52.3979C1.33339 51.5865 1 50.4819 1 49.0841C1 46.6017 1.29724 43.7177 1.89172 40.432C2.20503 38.6646 2.59064 37.4234 3.04855 36.7084C3.53057 35.9613 4.10898 35.4391 4.7838 35.1419C5.62732 34.7723 6.52708 34.5876 7.48307 34.5876C8.44709 34.5876 9.08978 34.6157 9.41112 34.6719C9.74049 34.7201 9.92527 34.7482 9.96543 34.7563C10.0699 34.7884 10.1221 34.8888 10.1221 35.0575L9.84493 37.2989C9.8128 37.5078 9.73246 37.6122 9.60392 37.6122C9.47539 37.6122 9.17815 37.5801 8.7122 37.5158C8.24625 37.4435 7.86868 37.4073 7.57947 37.4073C6.80825 37.4073 6.2218 37.6042 5.82013 37.9978C5.41845 38.3834 5.11719 39.1305 4.91635 40.2392C4.72355 41.3398 4.53476 42.8219 4.34999 44.6857C4.16522 46.5415 4.07283 47.9634 4.07283 48.9515C4.07283 50.1164 4.58698 50.6988 5.61527 50.6988C5.91251 50.6988 6.43067 50.6506 7.16976 50.5542C7.90885 50.4498 8.33061 50.3976 8.43504 50.3976C8.60375 50.3976 8.6881 50.498 8.6881 50.6988L8.41094 52.9402Z"/>
<path d="M18.7622 34.9852L20.172 53.133C20.172 53.3178 20.0676 53.4182 19.8587 53.4342L17.3402 53.5307C17.1715 53.5307 17.0872 53.4543 17.0872 53.3017L16.9064 49.3251L14.171 49.4335L13.2672 53.145C13.2431 53.2575 13.211 53.3338 13.1708 53.374C13.1306 53.4142 13.0583 53.4383 12.9539 53.4463L10.4595 53.5307C10.2988 53.5307 10.2185 53.4543 10.2185 53.3017L15.5086 35.0696C15.5648 34.8928 15.6733 34.8004 15.8339 34.7924L18.485 34.696C18.6537 34.704 18.7461 34.8004 18.7622 34.9852ZM16.4847 39.9499L14.7976 46.8668L16.798 46.7945L16.4847 39.9499Z"/>
<path d="M22.546 53.6632C22.3451 53.6632 22.2447 53.5668 22.2447 53.374L22.546 50.8555C22.5781 50.6787 22.6825 50.5823 22.8593 50.5663C24.1125 50.4377 24.94 50.2409 25.3416 49.9758C25.7433 49.7027 25.9441 49.1644 25.9441 48.3611C25.9441 47.5577 25.7393 46.5134 25.3296 45.228C24.9199 43.9346 24.6548 43.075 24.5343 42.6492C24.1487 41.2835 23.9558 40.1669 23.9558 39.2992C23.9558 38.4236 24.0964 37.6765 24.3776 37.0579C24.6588 36.4393 25.0605 35.9452 25.5826 35.5757C26.5949 34.8687 27.9565 34.5153 29.6677 34.5153C29.8846 34.5153 29.9931 34.6157 29.9931 34.8165L29.6677 37.3109C29.6356 37.5118 29.5351 37.6202 29.3664 37.6363C27.8079 37.7407 27.0287 38.2027 27.0287 39.0221C27.0287 39.7772 27.3581 41.2634 28.0168 43.4807C28.6836 45.6899 29.017 47.2725 29.017 48.2285C29.017 51.8516 26.86 53.6632 22.546 53.6632Z"/>
<path d="M36.5364 34.9973L34.4758 53.145C34.4517 53.3378 34.3472 53.4383 34.1625 53.4463L31.6801 53.5307C31.5034 53.5307 31.415 53.4543 31.415 53.3017L33.4997 35.0696C33.5318 34.9009 33.6363 34.8085 33.813 34.7924L36.2231 34.7081C36.4319 34.7161 36.5364 34.8125 36.5364 34.9973Z"/>
<path d="M49.6351 34.9491L47.5624 53.0968C47.5303 53.2816 47.4258 53.382 47.2491 53.3981L44.8631 53.5307C44.7266 53.5307 44.6462 53.4543 44.6221 53.3017L42.0916 40.432L41.1998 53.145C41.1918 53.3378 41.0874 53.4383 40.8865 53.4463L38.4042 53.5307C38.2274 53.5307 38.1391 53.4543 38.1391 53.3017L40.2238 35.0696C40.2559 34.9009 40.3603 34.8085 40.5371 34.7924L42.9833 34.6599C43.0958 34.6599 43.1681 34.684 43.2002 34.7322C43.2404 34.7723 43.2725 34.8446 43.2966 34.9491L45.7428 47.1078L46.5863 35.0696C46.5944 34.8928 46.7028 34.8004 46.9117 34.7924L49.3097 34.6599C49.5266 34.6599 49.6351 34.7563 49.6351 34.9491Z"/>
<path d="M55.6602 53.6632C54.3106 53.6632 53.2903 53.2615 52.5994 52.4582C51.9086 51.6548 51.5631 50.6506 51.5631 49.4456C51.5631 46.3768 51.8724 43.3441 52.491 40.3476C52.981 37.9938 53.6599 36.4192 54.5275 35.6239C55.3469 34.8848 56.4274 34.5153 57.769 34.5153C59.1187 34.5153 60.1389 34.921 60.8298 35.7323C61.5287 36.5437 61.8782 37.5439 61.8782 38.7329C61.8782 39.9138 61.8019 41.3478 61.6492 43.0348C61.4966 44.7138 61.3078 46.1197 61.0829 47.2524C60.8579 48.3771 60.6651 49.2006 60.5044 49.7228C60.3518 50.2369 60.1389 50.7591 59.8658 51.2893C59.5926 51.8195 59.2753 52.2453 58.9138 52.5666C58.1024 53.2977 57.0179 53.6632 55.6602 53.6632ZM55.9735 50.8193C56.9938 50.8193 57.6485 49.8794 57.9377 47.9996C58.1305 46.7544 58.3233 45.2039 58.5161 43.3481C58.7089 41.4924 58.8054 40.1869 58.8054 39.4318C58.8054 38.6766 58.6808 38.1424 58.4318 37.8291C58.1908 37.5158 57.8453 37.3591 57.3955 37.3591C56.4636 37.3591 55.8329 38.3031 55.5036 40.191C55.3108 41.2996 55.118 42.8059 54.9251 44.7098C54.7323 46.6057 54.6359 47.9433 54.6359 48.7226C54.6359 49.5018 54.7605 50.0481 55.0095 50.3614C55.2666 50.6667 55.5879 50.8193 55.9735 50.8193Z"/>
<path d="M76.6639 52.9402C76.6478 53.0366 76.6197 53.1049 76.5796 53.145C76.5394 53.1852 76.1458 53.2736 75.3986 53.4101C74.6515 53.5467 73.8964 53.615 73.1332 53.615C71.8799 53.615 70.9199 53.2093 70.2532 52.3979C69.5864 51.5865 69.253 50.4819 69.253 49.0841C69.253 46.6017 69.5502 43.7177 70.1447 40.432C70.458 38.6646 70.8436 37.4234 71.3015 36.7084C71.7835 35.9613 72.362 35.4391 73.0368 35.1419C73.8803 34.7723 74.78 34.5876 75.736 34.5876C76.7001 34.5876 77.3428 34.6157 77.6641 34.6719C77.9935 34.7201 78.1782 34.7482 78.2184 34.7563C78.3228 34.7884 78.3751 34.8888 78.3751 35.0575L78.0979 37.2989C78.0658 37.5078 77.9854 37.6122 77.8569 37.6122C77.7284 37.6122 77.4311 37.5801 76.9652 37.5158C76.4992 37.4435 76.1217 37.4073 75.8324 37.4073C75.0612 37.4073 74.4748 37.6042 74.0731 37.9978C73.6714 38.3834 73.3702 39.1305 73.1693 40.2392C72.9765 41.3398 72.7877 42.8219 72.603 44.6857C72.4182 46.5415 72.3258 47.9634 72.3258 48.9515C72.3258 50.1164 72.8399 50.6988 73.8682 50.6988C74.1655 50.6988 74.6836 50.6506 75.4227 50.5542C76.1618 50.4498 76.5836 50.3976 76.688 50.3976C76.8567 50.3976 76.9411 50.498 76.9411 50.6988L76.6639 52.9402Z"/>
<path d="M84.5448 34.9973L82.8216 50.3132L87.4369 50.1325C87.6458 50.1405 87.7502 50.2449 87.7502 50.4458L87.4369 52.9402C87.4128 53.1491 87.3084 53.2575 87.1236 53.2655L79.7006 53.5307C79.5319 53.5307 79.4475 53.4543 79.4475 53.3017L81.5081 35.0696C81.5242 34.9732 81.5483 34.9049 81.5804 34.8647C81.6206 34.8246 81.6969 34.8004 81.8094 34.7924L84.2315 34.7081C84.4404 34.7161 84.5448 34.8125 84.5448 34.9973Z"/>
<path d="M97.6917 34.9852L99.1016 53.133C99.1016 53.3178 98.9972 53.4182 98.7883 53.4342L96.2698 53.5307C96.1011 53.5307 96.0167 53.4543 96.0167 53.3017L95.836 49.3251L93.1005 49.4335L92.1968 53.145C92.1727 53.2575 92.1405 53.3338 92.1004 53.374C92.0602 53.4142 91.9879 53.4383 91.8835 53.4463L89.389 53.5307C89.2284 53.5307 89.148 53.4543 89.148 53.3017L94.4381 35.0696C94.4944 34.8928 94.6028 34.8004 94.7635 34.7924L97.4146 34.696C97.5833 34.704 97.6756 34.8004 97.6917 34.9852ZM95.4142 39.9499L93.7272 46.8668L95.7275 46.7945L95.4142 39.9499Z"/>
<path d="M101.476 53.6632C101.275 53.6632 101.174 53.5668 101.174 53.374L101.476 50.8555C101.508 50.6787 101.612 50.5823 101.789 50.5663C103.042 50.4377 103.87 50.2409 104.271 49.9758C104.673 49.7027 104.874 49.1644 104.874 48.3611C104.874 47.5577 104.669 46.5134 104.259 45.228C103.849 43.9346 103.584 43.075 103.464 42.6492C103.078 41.2835 102.885 40.1669 102.885 39.2992C102.885 38.4236 103.026 37.6765 103.307 37.0579C103.588 36.4393 103.99 35.9452 104.512 35.5757C105.524 34.8687 106.886 34.5153 108.597 34.5153C108.814 34.5153 108.923 34.6157 108.923 34.8165L108.597 37.3109C108.565 37.5118 108.465 37.6202 108.296 37.6363C106.737 37.7407 105.958 38.2027 105.958 39.0221C105.958 39.7772 106.288 41.2634 106.946 43.4807C107.613 45.6899 107.947 47.2725 107.947 48.2285C107.947 51.8516 105.79 53.6632 101.476 53.6632Z"/>
<path d="M110.079 53.6632C109.879 53.6632 109.778 53.5668 109.778 53.374L110.079 50.8555C110.112 50.6787 110.216 50.5823 110.393 50.5663C111.646 50.4377 112.473 50.2409 112.875 49.9758C113.277 49.7027 113.478 49.1644 113.478 48.3611C113.478 47.5577 113.273 46.5134 112.863 45.228C112.453 43.9346 112.188 43.075 112.068 42.6492C111.682 41.2835 111.489 40.1669 111.489 39.2992C111.489 38.4236 111.63 37.6765 111.911 37.0579C112.192 36.4393 112.594 35.9452 113.116 35.5757C114.128 34.8687 115.49 34.5153 117.201 34.5153C117.418 34.5153 117.527 34.6157 117.527 34.8165L117.201 37.3109C117.169 37.5118 117.069 37.6202 116.9 37.6363C115.341 37.7407 114.562 38.2027 114.562 39.0221C114.562 39.7772 114.892 41.2634 115.55 43.4807C116.217 45.6899 116.55 47.2725 116.55 48.2285C116.55 51.8516 114.393 53.6632 110.079 53.6632Z"/>
<path d="M124.07 34.9973L122.009 53.145C121.985 53.3378 121.881 53.4383 121.696 53.4463L119.214 53.5307C119.037 53.5307 118.948 53.4543 118.948 53.3017L121.033 35.0696C121.065 34.9009 121.17 34.8085 121.346 34.7924L123.757 34.7081C123.965 34.7161 124.07 34.8125 124.07 34.9973Z"/>
<path d="M133.289 53.0607C133.273 53.1571 133.245 53.2254 133.204 53.2655C133.164 53.3057 132.771 53.3941 132.024 53.5307C131.276 53.6672 130.521 53.7355 129.758 53.7355C128.505 53.7355 127.545 53.3298 126.878 52.5184C126.211 51.707 125.878 50.6024 125.878 49.2046C125.878 46.7222 126.175 43.8382 126.77 40.5525C127.083 38.7851 127.469 37.5439 127.926 36.8289C128.408 36.0818 128.987 35.5596 129.662 35.2624C130.505 34.8928 131.405 34.7081 132.361 34.7081C133.325 34.7081 133.968 34.7362 134.289 34.7924C134.618 34.8406 134.803 34.8687 134.843 34.8768C134.948 34.9089 135 35.0093 135 35.178L134.723 37.4194C134.691 37.6283 134.61 37.7327 134.482 37.7327C134.353 37.7327 134.056 37.7006 133.59 37.6363C133.124 37.564 132.747 37.5278 132.457 37.5278C131.686 37.5278 131.1 37.7247 130.698 38.1183C130.296 38.5039 129.995 39.251 129.794 40.3597C129.601 41.4603 129.413 42.9424 129.228 44.8062C129.043 46.662 128.951 48.0839 128.951 49.072C128.951 50.2369 129.465 50.8193 130.493 50.8193C130.79 50.8193 131.309 50.7711 132.048 50.6747C132.787 50.5703 133.209 50.5181 133.313 50.5181C133.482 50.5181 133.566 50.6185 133.566 50.8193L133.289 53.0607Z"/>
</mask>
<path d="M8.41094 52.9402C8.39488 53.0366 8.36676 53.1049 8.32659 53.145C8.28642 53.1852 7.89278 53.2736 7.14566 53.4101C6.39854 53.5467 5.64339 53.615 4.8802 53.615C3.62697 53.615 2.66696 53.2093 2.00018 52.3979C1.33339 51.5865 1 50.4819 1 49.0841C1 46.6017 1.29724 43.7177 1.89172 40.432C2.20503 38.6646 2.59064 37.4234 3.04855 36.7084C3.53057 35.9613 4.10898 35.4391 4.7838 35.1419C5.62732 34.7723 6.52708 34.5876 7.48307 34.5876C8.44709 34.5876 9.08978 34.6157 9.41112 34.6719C9.74049 34.7201 9.92527 34.7482 9.96543 34.7563C10.0699 34.7884 10.1221 34.8888 10.1221 35.0575L9.84493 37.2989C9.8128 37.5078 9.73246 37.6122 9.60392 37.6122C9.47539 37.6122 9.17815 37.5801 8.7122 37.5158C8.24625 37.4435 7.86868 37.4073 7.57947 37.4073C6.80825 37.4073 6.2218 37.6042 5.82013 37.9978C5.41845 38.3834 5.11719 39.1305 4.91635 40.2392C4.72355 41.3398 4.53476 42.8219 4.34999 44.6857C4.16522 46.5415 4.07283 47.9634 4.07283 48.9515C4.07283 50.1164 4.58698 50.6988 5.61527 50.6988C5.91251 50.6988 6.43067 50.6506 7.16976 50.5542C7.90885 50.4498 8.33061 50.3976 8.43504 50.3976C8.60375 50.3976 8.6881 50.498 8.6881 50.6988L8.41094 52.9402Z" fill="url(#paint0_linear_3998_13896)"/>
<path d="M18.7622 34.9852L20.172 53.133C20.172 53.3178 20.0676 53.4182 19.8587 53.4342L17.3402 53.5307C17.1715 53.5307 17.0872 53.4543 17.0872 53.3017L16.9064 49.3251L14.171 49.4335L13.2672 53.145C13.2431 53.2575 13.211 53.3338 13.1708 53.374C13.1306 53.4142 13.0583 53.4383 12.9539 53.4463L10.4595 53.5307C10.2988 53.5307 10.2185 53.4543 10.2185 53.3017L15.5086 35.0696C15.5648 34.8928 15.6733 34.8004 15.8339 34.7924L18.485 34.696C18.6537 34.704 18.7461 34.8004 18.7622 34.9852ZM16.4847 39.9499L14.7976 46.8668L16.798 46.7945L16.4847 39.9499Z" fill="url(#paint1_linear_3998_13896)"/>
<path d="M22.546 53.6632C22.3451 53.6632 22.2447 53.5668 22.2447 53.374L22.546 50.8555C22.5781 50.6787 22.6825 50.5823 22.8593 50.5663C24.1125 50.4377 24.94 50.2409 25.3416 49.9758C25.7433 49.7027 25.9441 49.1644 25.9441 48.3611C25.9441 47.5577 25.7393 46.5134 25.3296 45.228C24.9199 43.9346 24.6548 43.075 24.5343 42.6492C24.1487 41.2835 23.9558 40.1669 23.9558 39.2992C23.9558 38.4236 24.0964 37.6765 24.3776 37.0579C24.6588 36.4393 25.0605 35.9452 25.5826 35.5757C26.5949 34.8687 27.9565 34.5153 29.6677 34.5153C29.8846 34.5153 29.9931 34.6157 29.9931 34.8165L29.6677 37.3109C29.6356 37.5118 29.5351 37.6202 29.3664 37.6363C27.8079 37.7407 27.0287 38.2027 27.0287 39.0221C27.0287 39.7772 27.3581 41.2634 28.0168 43.4807C28.6836 45.6899 29.017 47.2725 29.017 48.2285C29.017 51.8516 26.86 53.6632 22.546 53.6632Z" fill="url(#paint2_linear_3998_13896)"/>
<path d="M36.5364 34.9973L34.4758 53.145C34.4517 53.3378 34.3472 53.4383 34.1625 53.4463L31.6801 53.5307C31.5034 53.5307 31.415 53.4543 31.415 53.3017L33.4997 35.0696C33.5318 34.9009 33.6363 34.8085 33.813 34.7924L36.2231 34.7081C36.4319 34.7161 36.5364 34.8125 36.5364 34.9973Z" fill="url(#paint3_linear_3998_13896)"/>
<path d="M49.6351 34.9491L47.5624 53.0968C47.5303 53.2816 47.4258 53.382 47.2491 53.3981L44.8631 53.5307C44.7266 53.5307 44.6462 53.4543 44.6221 53.3017L42.0916 40.432L41.1998 53.145C41.1918 53.3378 41.0874 53.4383 40.8865 53.4463L38.4042 53.5307C38.2274 53.5307 38.1391 53.4543 38.1391 53.3017L40.2238 35.0696C40.2559 34.9009 40.3603 34.8085 40.5371 34.7924L42.9833 34.6599C43.0958 34.6599 43.1681 34.684 43.2002 34.7322C43.2404 34.7723 43.2725 34.8446 43.2966 34.9491L45.7428 47.1078L46.5863 35.0696C46.5944 34.8928 46.7028 34.8004 46.9117 34.7924L49.3097 34.6599C49.5266 34.6599 49.6351 34.7563 49.6351 34.9491Z" fill="url(#paint4_linear_3998_13896)"/>
<path d="M55.6602 53.6632C54.3106 53.6632 53.2903 53.2615 52.5994 52.4582C51.9086 51.6548 51.5631 50.6506 51.5631 49.4456C51.5631 46.3768 51.8724 43.3441 52.491 40.3476C52.981 37.9938 53.6599 36.4192 54.5275 35.6239C55.3469 34.8848 56.4274 34.5153 57.769 34.5153C59.1187 34.5153 60.1389 34.921 60.8298 35.7323C61.5287 36.5437 61.8782 37.5439 61.8782 38.7329C61.8782 39.9138 61.8019 41.3478 61.6492 43.0348C61.4966 44.7138 61.3078 46.1197 61.0829 47.2524C60.8579 48.3771 60.6651 49.2006 60.5044 49.7228C60.3518 50.2369 60.1389 50.7591 59.8658 51.2893C59.5926 51.8195 59.2753 52.2453 58.9138 52.5666C58.1024 53.2977 57.0179 53.6632 55.6602 53.6632ZM55.9735 50.8193C56.9938 50.8193 57.6485 49.8794 57.9377 47.9996C58.1305 46.7544 58.3233 45.2039 58.5161 43.3481C58.7089 41.4924 58.8054 40.1869 58.8054 39.4318C58.8054 38.6766 58.6808 38.1424 58.4318 37.8291C58.1908 37.5158 57.8453 37.3591 57.3955 37.3591C56.4636 37.3591 55.8329 38.3031 55.5036 40.191C55.3108 41.2996 55.118 42.8059 54.9251 44.7098C54.7323 46.6057 54.6359 47.9433 54.6359 48.7226C54.6359 49.5018 54.7605 50.0481 55.0095 50.3614C55.2666 50.6667 55.5879 50.8193 55.9735 50.8193Z" fill="url(#paint5_linear_3998_13896)"/>
<path d="M76.6639 52.9402C76.6478 53.0366 76.6197 53.1049 76.5796 53.145C76.5394 53.1852 76.1458 53.2736 75.3986 53.4101C74.6515 53.5467 73.8964 53.615 73.1332 53.615C71.8799 53.615 70.9199 53.2093 70.2532 52.3979C69.5864 51.5865 69.253 50.4819 69.253 49.0841C69.253 46.6017 69.5502 43.7177 70.1447 40.432C70.458 38.6646 70.8436 37.4234 71.3015 36.7084C71.7835 35.9613 72.362 35.4391 73.0368 35.1419C73.8803 34.7723 74.78 34.5876 75.736 34.5876C76.7001 34.5876 77.3428 34.6157 77.6641 34.6719C77.9935 34.7201 78.1782 34.7482 78.2184 34.7563C78.3228 34.7884 78.3751 34.8888 78.3751 35.0575L78.0979 37.2989C78.0658 37.5078 77.9854 37.6122 77.8569 37.6122C77.7284 37.6122 77.4311 37.5801 76.9652 37.5158C76.4992 37.4435 76.1217 37.4073 75.8324 37.4073C75.0612 37.4073 74.4748 37.6042 74.0731 37.9978C73.6714 38.3834 73.3702 39.1305 73.1693 40.2392C72.9765 41.3398 72.7877 42.8219 72.603 44.6857C72.4182 46.5415 72.3258 47.9634 72.3258 48.9515C72.3258 50.1164 72.8399 50.6988 73.8682 50.6988C74.1655 50.6988 74.6836 50.6506 75.4227 50.5542C76.1618 50.4498 76.5836 50.3976 76.688 50.3976C76.8567 50.3976 76.9411 50.498 76.9411 50.6988L76.6639 52.9402Z" fill="url(#paint6_linear_3998_13896)"/>
<path d="M84.5448 34.9973L82.8216 50.3132L87.4369 50.1325C87.6458 50.1405 87.7502 50.2449 87.7502 50.4458L87.4369 52.9402C87.4128 53.1491 87.3084 53.2575 87.1236 53.2655L79.7006 53.5307C79.5319 53.5307 79.4475 53.4543 79.4475 53.3017L81.5081 35.0696C81.5242 34.9732 81.5483 34.9049 81.5804 34.8647C81.6206 34.8246 81.6969 34.8004 81.8094 34.7924L84.2315 34.7081C84.4404 34.7161 84.5448 34.8125 84.5448 34.9973Z" fill="url(#paint7_linear_3998_13896)"/>
<path d="M97.6917 34.9852L99.1016 53.133C99.1016 53.3178 98.9972 53.4182 98.7883 53.4342L96.2698 53.5307C96.1011 53.5307 96.0167 53.4543 96.0167 53.3017L95.836 49.3251L93.1005 49.4335L92.1968 53.145C92.1727 53.2575 92.1405 53.3338 92.1004 53.374C92.0602 53.4142 91.9879 53.4383 91.8835 53.4463L89.389 53.5307C89.2284 53.5307 89.148 53.4543 89.148 53.3017L94.4381 35.0696C94.4944 34.8928 94.6028 34.8004 94.7635 34.7924L97.4146 34.696C97.5833 34.704 97.6756 34.8004 97.6917 34.9852ZM95.4142 39.9499L93.7272 46.8668L95.7275 46.7945L95.4142 39.9499Z" fill="url(#paint8_linear_3998_13896)"/>
<path d="M101.476 53.6632C101.275 53.6632 101.174 53.5668 101.174 53.374L101.476 50.8555C101.508 50.6787 101.612 50.5823 101.789 50.5663C103.042 50.4377 103.87 50.2409 104.271 49.9758C104.673 49.7027 104.874 49.1644 104.874 48.3611C104.874 47.5577 104.669 46.5134 104.259 45.228C103.849 43.9346 103.584 43.075 103.464 42.6492C103.078 41.2835 102.885 40.1669 102.885 39.2992C102.885 38.4236 103.026 37.6765 103.307 37.0579C103.588 36.4393 103.99 35.9452 104.512 35.5757C105.524 34.8687 106.886 34.5153 108.597 34.5153C108.814 34.5153 108.923 34.6157 108.923 34.8165L108.597 37.3109C108.565 37.5118 108.465 37.6202 108.296 37.6363C106.737 37.7407 105.958 38.2027 105.958 39.0221C105.958 39.7772 106.288 41.2634 106.946 43.4807C107.613 45.6899 107.947 47.2725 107.947 48.2285C107.947 51.8516 105.79 53.6632 101.476 53.6632Z" fill="url(#paint9_linear_3998_13896)"/>
<path d="M110.079 53.6632C109.879 53.6632 109.778 53.5668 109.778 53.374L110.079 50.8555C110.112 50.6787 110.216 50.5823 110.393 50.5663C111.646 50.4377 112.473 50.2409 112.875 49.9758C113.277 49.7027 113.478 49.1644 113.478 48.3611C113.478 47.5577 113.273 46.5134 112.863 45.228C112.453 43.9346 112.188 43.075 112.068 42.6492C111.682 41.2835 111.489 40.1669 111.489 39.2992C111.489 38.4236 111.63 37.6765 111.911 37.0579C112.192 36.4393 112.594 35.9452 113.116 35.5757C114.128 34.8687 115.49 34.5153 117.201 34.5153C117.418 34.5153 117.527 34.6157 117.527 34.8165L117.201 37.3109C117.169 37.5118 117.069 37.6202 116.9 37.6363C115.341 37.7407 114.562 38.2027 114.562 39.0221C114.562 39.7772 114.892 41.2634 115.55 43.4807C116.217 45.6899 116.55 47.2725 116.55 48.2285C116.55 51.8516 114.393 53.6632 110.079 53.6632Z" fill="url(#paint10_linear_3998_13896)"/>
<path d="M124.07 34.9973L122.009 53.145C121.985 53.3378 121.881 53.4383 121.696 53.4463L119.214 53.5307C119.037 53.5307 118.948 53.4543 118.948 53.3017L121.033 35.0696C121.065 34.9009 121.17 34.8085 121.346 34.7924L123.757 34.7081C123.965 34.7161 124.07 34.8125 124.07 34.9973Z" fill="url(#paint11_linear_3998_13896)"/>
<path d="M133.289 53.0607C133.273 53.1571 133.245 53.2254 133.204 53.2655C133.164 53.3057 132.771 53.3941 132.024 53.5307C131.276 53.6672 130.521 53.7355 129.758 53.7355C128.505 53.7355 127.545 53.3298 126.878 52.5184C126.211 51.707 125.878 50.6024 125.878 49.2046C125.878 46.7222 126.175 43.8382 126.77 40.5525C127.083 38.7851 127.469 37.5439 127.926 36.8289C128.408 36.0818 128.987 35.5596 129.662 35.2624C130.505 34.8928 131.405 34.7081 132.361 34.7081C133.325 34.7081 133.968 34.7362 134.289 34.7924C134.618 34.8406 134.803 34.8687 134.843 34.8768C134.948 34.9089 135 35.0093 135 35.178L134.723 37.4194C134.691 37.6283 134.61 37.7327 134.482 37.7327C134.353 37.7327 134.056 37.7006 133.59 37.6363C133.124 37.564 132.747 37.5278 132.457 37.5278C131.686 37.5278 131.1 37.7247 130.698 38.1183C130.296 38.5039 129.995 39.251 129.794 40.3597C129.601 41.4603 129.413 42.9424 129.228 44.8062C129.043 46.662 128.951 48.0839 128.951 49.072C128.951 50.2369 129.465 50.8193 130.493 50.8193C130.79 50.8193 131.309 50.7711 132.048 50.6747C132.787 50.5703 133.209 50.5181 133.313 50.5181C133.482 50.5181 133.566 50.6185 133.566 50.8193L133.289 53.0607Z" fill="url(#paint12_linear_3998_13896)"/>
<path d="M8.41094 52.9402C8.39488 53.0366 8.36676 53.1049 8.32659 53.145C8.28642 53.1852 7.89278 53.2736 7.14566 53.4101C6.39854 53.5467 5.64339 53.615 4.8802 53.615C3.62697 53.615 2.66696 53.2093 2.00018 52.3979C1.33339 51.5865 1 50.4819 1 49.0841C1 46.6017 1.29724 43.7177 1.89172 40.432C2.20503 38.6646 2.59064 37.4234 3.04855 36.7084C3.53057 35.9613 4.10898 35.4391 4.7838 35.1419C5.62732 34.7723 6.52708 34.5876 7.48307 34.5876C8.44709 34.5876 9.08978 34.6157 9.41112 34.6719C9.74049 34.7201 9.92527 34.7482 9.96543 34.7563C10.0699 34.7884 10.1221 34.8888 10.1221 35.0575L9.84493 37.2989C9.8128 37.5078 9.73246 37.6122 9.60392 37.6122C9.47539 37.6122 9.17815 37.5801 8.7122 37.5158C8.24625 37.4435 7.86868 37.4073 7.57947 37.4073C6.80825 37.4073 6.2218 37.6042 5.82013 37.9978C5.41845 38.3834 5.11719 39.1305 4.91635 40.2392C4.72355 41.3398 4.53476 42.8219 4.34999 44.6857C4.16522 46.5415 4.07283 47.9634 4.07283 48.9515C4.07283 50.1164 4.58698 50.6988 5.61527 50.6988C5.91251 50.6988 6.43067 50.6506 7.16976 50.5542C7.90885 50.4498 8.33061 50.3976 8.43504 50.3976C8.60375 50.3976 8.6881 50.498 8.6881 50.6988L8.41094 52.9402Z" stroke="#FBD602" stroke-width="1.62694" mask="url(#path-19-outside-1_3998_13896)"/>
<path d="M18.7622 34.9852L20.172 53.133C20.172 53.3178 20.0676 53.4182 19.8587 53.4342L17.3402 53.5307C17.1715 53.5307 17.0872 53.4543 17.0872 53.3017L16.9064 49.3251L14.171 49.4335L13.2672 53.145C13.2431 53.2575 13.211 53.3338 13.1708 53.374C13.1306 53.4142 13.0583 53.4383 12.9539 53.4463L10.4595 53.5307C10.2988 53.5307 10.2185 53.4543 10.2185 53.3017L15.5086 35.0696C15.5648 34.8928 15.6733 34.8004 15.8339 34.7924L18.485 34.696C18.6537 34.704 18.7461 34.8004 18.7622 34.9852ZM16.4847 39.9499L14.7976 46.8668L16.798 46.7945L16.4847 39.9499Z" stroke="#FBD602" stroke-width="1.62694" mask="url(#path-19-outside-1_3998_13896)"/>
<path d="M22.546 53.6632C22.3451 53.6632 22.2447 53.5668 22.2447 53.374L22.546 50.8555C22.5781 50.6787 22.6825 50.5823 22.8593 50.5663C24.1125 50.4377 24.94 50.2409 25.3416 49.9758C25.7433 49.7027 25.9441 49.1644 25.9441 48.3611C25.9441 47.5577 25.7393 46.5134 25.3296 45.228C24.9199 43.9346 24.6548 43.075 24.5343 42.6492C24.1487 41.2835 23.9558 40.1669 23.9558 39.2992C23.9558 38.4236 24.0964 37.6765 24.3776 37.0579C24.6588 36.4393 25.0605 35.9452 25.5826 35.5757C26.5949 34.8687 27.9565 34.5153 29.6677 34.5153C29.8846 34.5153 29.9931 34.6157 29.9931 34.8165L29.6677 37.3109C29.6356 37.5118 29.5351 37.6202 29.3664 37.6363C27.8079 37.7407 27.0287 38.2027 27.0287 39.0221C27.0287 39.7772 27.3581 41.2634 28.0168 43.4807C28.6836 45.6899 29.017 47.2725 29.017 48.2285C29.017 51.8516 26.86 53.6632 22.546 53.6632Z" stroke="#FBD602" stroke-width="1.62694" mask="url(#path-19-outside-1_3998_13896)"/>
<path d="M36.5364 34.9973L34.4758 53.145C34.4517 53.3378 34.3472 53.4383 34.1625 53.4463L31.6801 53.5307C31.5034 53.5307 31.415 53.4543 31.415 53.3017L33.4997 35.0696C33.5318 34.9009 33.6363 34.8085 33.813 34.7924L36.2231 34.7081C36.4319 34.7161 36.5364 34.8125 36.5364 34.9973Z" stroke="#FBD602" stroke-width="1.62694" mask="url(#path-19-outside-1_3998_13896)"/>
<path d="M49.6351 34.9491L47.5624 53.0968C47.5303 53.2816 47.4258 53.382 47.2491 53.3981L44.8631 53.5307C44.7266 53.5307 44.6462 53.4543 44.6221 53.3017L42.0916 40.432L41.1998 53.145C41.1918 53.3378 41.0874 53.4383 40.8865 53.4463L38.4042 53.5307C38.2274 53.5307 38.1391 53.4543 38.1391 53.3017L40.2238 35.0696C40.2559 34.9009 40.3603 34.8085 40.5371 34.7924L42.9833 34.6599C43.0958 34.6599 43.1681 34.684 43.2002 34.7322C43.2404 34.7723 43.2725 34.8446 43.2966 34.9491L45.7428 47.1078L46.5863 35.0696C46.5944 34.8928 46.7028 34.8004 46.9117 34.7924L49.3097 34.6599C49.5266 34.6599 49.6351 34.7563 49.6351 34.9491Z" stroke="#FBD602" stroke-width="1.62694" mask="url(#path-19-outside-1_3998_13896)"/>
<path d="M55.6602 53.6632C54.3106 53.6632 53.2903 53.2615 52.5994 52.4582C51.9086 51.6548 51.5631 50.6506 51.5631 49.4456C51.5631 46.3768 51.8724 43.3441 52.491 40.3476C52.981 37.9938 53.6599 36.4192 54.5275 35.6239C55.3469 34.8848 56.4274 34.5153 57.769 34.5153C59.1187 34.5153 60.1389 34.921 60.8298 35.7323C61.5287 36.5437 61.8782 37.5439 61.8782 38.7329C61.8782 39.9138 61.8019 41.3478 61.6492 43.0348C61.4966 44.7138 61.3078 46.1197 61.0829 47.2524C60.8579 48.3771 60.6651 49.2006 60.5044 49.7228C60.3518 50.2369 60.1389 50.7591 59.8658 51.2893C59.5926 51.8195 59.2753 52.2453 58.9138 52.5666C58.1024 53.2977 57.0179 53.6632 55.6602 53.6632ZM55.9735 50.8193C56.9938 50.8193 57.6485 49.8794 57.9377 47.9996C58.1305 46.7544 58.3233 45.2039 58.5161 43.3481C58.7089 41.4924 58.8054 40.1869 58.8054 39.4318C58.8054 38.6766 58.6808 38.1424 58.4318 37.8291C58.1908 37.5158 57.8453 37.3591 57.3955 37.3591C56.4636 37.3591 55.8329 38.3031 55.5036 40.191C55.3108 41.2996 55.118 42.8059 54.9251 44.7098C54.7323 46.6057 54.6359 47.9433 54.6359 48.7226C54.6359 49.5018 54.7605 50.0481 55.0095 50.3614C55.2666 50.6667 55.5879 50.8193 55.9735 50.8193Z" stroke="#FBD602" stroke-width="1.62694" mask="url(#path-19-outside-1_3998_13896)"/>
<path d="M76.6639 52.9402C76.6478 53.0366 76.6197 53.1049 76.5796 53.145C76.5394 53.1852 76.1458 53.2736 75.3986 53.4101C74.6515 53.5467 73.8964 53.615 73.1332 53.615C71.8799 53.615 70.9199 53.2093 70.2532 52.3979C69.5864 51.5865 69.253 50.4819 69.253 49.0841C69.253 46.6017 69.5502 43.7177 70.1447 40.432C70.458 38.6646 70.8436 37.4234 71.3015 36.7084C71.7835 35.9613 72.362 35.4391 73.0368 35.1419C73.8803 34.7723 74.78 34.5876 75.736 34.5876C76.7001 34.5876 77.3428 34.6157 77.6641 34.6719C77.9935 34.7201 78.1782 34.7482 78.2184 34.7563C78.3228 34.7884 78.3751 34.8888 78.3751 35.0575L78.0979 37.2989C78.0658 37.5078 77.9854 37.6122 77.8569 37.6122C77.7284 37.6122 77.4311 37.5801 76.9652 37.5158C76.4992 37.4435 76.1217 37.4073 75.8324 37.4073C75.0612 37.4073 74.4748 37.6042 74.0731 37.9978C73.6714 38.3834 73.3702 39.1305 73.1693 40.2392C72.9765 41.3398 72.7877 42.8219 72.603 44.6857C72.4182 46.5415 72.3258 47.9634 72.3258 48.9515C72.3258 50.1164 72.8399 50.6988 73.8682 50.6988C74.1655 50.6988 74.6836 50.6506 75.4227 50.5542C76.1618 50.4498 76.5836 50.3976 76.688 50.3976C76.8567 50.3976 76.9411 50.498 76.9411 50.6988L76.6639 52.9402Z" stroke="#FBD602" stroke-width="1.62694" mask="url(#path-19-outside-1_3998_13896)"/>
<path d="M84.5448 34.9973L82.8216 50.3132L87.4369 50.1325C87.6458 50.1405 87.7502 50.2449 87.7502 50.4458L87.4369 52.9402C87.4128 53.1491 87.3084 53.2575 87.1236 53.2655L79.7006 53.5307C79.5319 53.5307 79.4475 53.4543 79.4475 53.3017L81.5081 35.0696C81.5242 34.9732 81.5483 34.9049 81.5804 34.8647C81.6206 34.8246 81.6969 34.8004 81.8094 34.7924L84.2315 34.7081C84.4404 34.7161 84.5448 34.8125 84.5448 34.9973Z" stroke="#FBD602" stroke-width="1.62694" mask="url(#path-19-outside-1_3998_13896)"/>
<path d="M97.6917 34.9852L99.1016 53.133C99.1016 53.3178 98.9972 53.4182 98.7883 53.4342L96.2698 53.5307C96.1011 53.5307 96.0167 53.4543 96.0167 53.3017L95.836 49.3251L93.1005 49.4335L92.1968 53.145C92.1727 53.2575 92.1405 53.3338 92.1004 53.374C92.0602 53.4142 91.9879 53.4383 91.8835 53.4463L89.389 53.5307C89.2284 53.5307 89.148 53.4543 89.148 53.3017L94.4381 35.0696C94.4944 34.8928 94.6028 34.8004 94.7635 34.7924L97.4146 34.696C97.5833 34.704 97.6756 34.8004 97.6917 34.9852ZM95.4142 39.9499L93.7272 46.8668L95.7275 46.7945L95.4142 39.9499Z" stroke="#FBD602" stroke-width="1.62694" mask="url(#path-19-outside-1_3998_13896)"/>
<path d="M101.476 53.6632C101.275 53.6632 101.174 53.5668 101.174 53.374L101.476 50.8555C101.508 50.6787 101.612 50.5823 101.789 50.5663C103.042 50.4377 103.87 50.2409 104.271 49.9758C104.673 49.7027 104.874 49.1644 104.874 48.3611C104.874 47.5577 104.669 46.5134 104.259 45.228C103.849 43.9346 103.584 43.075 103.464 42.6492C103.078 41.2835 102.885 40.1669 102.885 39.2992C102.885 38.4236 103.026 37.6765 103.307 37.0579C103.588 36.4393 103.99 35.9452 104.512 35.5757C105.524 34.8687 106.886 34.5153 108.597 34.5153C108.814 34.5153 108.923 34.6157 108.923 34.8165L108.597 37.3109C108.565 37.5118 108.465 37.6202 108.296 37.6363C106.737 37.7407 105.958 38.2027 105.958 39.0221C105.958 39.7772 106.288 41.2634 106.946 43.4807C107.613 45.6899 107.947 47.2725 107.947 48.2285C107.947 51.8516 105.79 53.6632 101.476 53.6632Z" stroke="#FBD602" stroke-width="1.62694" mask="url(#path-19-outside-1_3998_13896)"/>
<path d="M110.079 53.6632C109.879 53.6632 109.778 53.5668 109.778 53.374L110.079 50.8555C110.112 50.6787 110.216 50.5823 110.393 50.5663C111.646 50.4377 112.473 50.2409 112.875 49.9758C113.277 49.7027 113.478 49.1644 113.478 48.3611C113.478 47.5577 113.273 46.5134 112.863 45.228C112.453 43.9346 112.188 43.075 112.068 42.6492C111.682 41.2835 111.489 40.1669 111.489 39.2992C111.489 38.4236 111.63 37.6765 111.911 37.0579C112.192 36.4393 112.594 35.9452 113.116 35.5757C114.128 34.8687 115.49 34.5153 117.201 34.5153C117.418 34.5153 117.527 34.6157 117.527 34.8165L117.201 37.3109C117.169 37.5118 117.069 37.6202 116.9 37.6363C115.341 37.7407 114.562 38.2027 114.562 39.0221C114.562 39.7772 114.892 41.2634 115.55 43.4807C116.217 45.6899 116.55 47.2725 116.55 48.2285C116.55 51.8516 114.393 53.6632 110.079 53.6632Z" stroke="#FBD602" stroke-width="1.62694" mask="url(#path-19-outside-1_3998_13896)"/>
<path d="M124.07 34.9973L122.009 53.145C121.985 53.3378 121.881 53.4383 121.696 53.4463L119.214 53.5307C119.037 53.5307 118.948 53.4543 118.948 53.3017L121.033 35.0696C121.065 34.9009 121.17 34.8085 121.346 34.7924L123.757 34.7081C123.965 34.7161 124.07 34.8125 124.07 34.9973Z" stroke="#FBD602" stroke-width="1.62694" mask="url(#path-19-outside-1_3998_13896)"/>
<path d="M133.289 53.0607C133.273 53.1571 133.245 53.2254 133.204 53.2655C133.164 53.3057 132.771 53.3941 132.024 53.5307C131.276 53.6672 130.521 53.7355 129.758 53.7355C128.505 53.7355 127.545 53.3298 126.878 52.5184C126.211 51.707 125.878 50.6024 125.878 49.2046C125.878 46.7222 126.175 43.8382 126.77 40.5525C127.083 38.7851 127.469 37.5439 127.926 36.8289C128.408 36.0818 128.987 35.5596 129.662 35.2624C130.505 34.8928 131.405 34.7081 132.361 34.7081C133.325 34.7081 133.968 34.7362 134.289 34.7924C134.618 34.8406 134.803 34.8687 134.843 34.8768C134.948 34.9089 135 35.0093 135 35.178L134.723 37.4194C134.691 37.6283 134.61 37.7327 134.482 37.7327C134.353 37.7327 134.056 37.7006 133.59 37.6363C133.124 37.564 132.747 37.5278 132.457 37.5278C131.686 37.5278 131.1 37.7247 130.698 38.1183C130.296 38.5039 129.995 39.251 129.794 40.3597C129.601 41.4603 129.413 42.9424 129.228 44.8062C129.043 46.662 128.951 48.0839 128.951 49.072C128.951 50.2369 129.465 50.8193 130.493 50.8193C130.79 50.8193 131.309 50.7711 132.048 50.6747C132.787 50.5703 133.209 50.5181 133.313 50.5181C133.482 50.5181 133.566 50.6185 133.566 50.8193L133.289 53.0607Z" stroke="#FBD602" stroke-width="1.62694" mask="url(#path-19-outside-1_3998_13896)"/>
<defs>
<linearGradient id="paint0_linear_3998_13896" x1="68.7647" y1="37.2011" x2="68.7647" y2="56.0532" gradientUnits="userSpaceOnUse">
<stop stop-color="#820001"/>
<stop offset="1" stop-color="#EB4300"/>
</linearGradient>
<linearGradient id="paint1_linear_3998_13896" x1="68.7647" y1="37.2011" x2="68.7647" y2="56.0532" gradientUnits="userSpaceOnUse">
<stop stop-color="#820001"/>
<stop offset="1" stop-color="#EB4300"/>
</linearGradient>
<linearGradient id="paint2_linear_3998_13896" x1="68.7647" y1="37.2011" x2="68.7647" y2="56.0532" gradientUnits="userSpaceOnUse">
<stop stop-color="#820001"/>
<stop offset="1" stop-color="#EB4300"/>
</linearGradient>
<linearGradient id="paint3_linear_3998_13896" x1="68.7647" y1="37.2011" x2="68.7647" y2="56.0532" gradientUnits="userSpaceOnUse">
<stop stop-color="#820001"/>
<stop offset="1" stop-color="#EB4300"/>
</linearGradient>
<linearGradient id="paint4_linear_3998_13896" x1="68.7647" y1="37.2011" x2="68.7647" y2="56.0532" gradientUnits="userSpaceOnUse">
<stop stop-color="#820001"/>
<stop offset="1" stop-color="#EB4300"/>
</linearGradient>
<linearGradient id="paint5_linear_3998_13896" x1="68.7647" y1="37.2011" x2="68.7647" y2="56.0532" gradientUnits="userSpaceOnUse">
<stop stop-color="#820001"/>
<stop offset="1" stop-color="#EB4300"/>
</linearGradient>
<linearGradient id="paint6_linear_3998_13896" x1="68.7647" y1="37.2011" x2="68.7647" y2="56.0532" gradientUnits="userSpaceOnUse">
<stop stop-color="#820001"/>
<stop offset="1" stop-color="#EB4300"/>
</linearGradient>
<linearGradient id="paint7_linear_3998_13896" x1="68.7647" y1="37.2011" x2="68.7647" y2="56.0532" gradientUnits="userSpaceOnUse">
<stop stop-color="#820001"/>
<stop offset="1" stop-color="#EB4300"/>
</linearGradient>
<linearGradient id="paint8_linear_3998_13896" x1="68.7647" y1="37.2011" x2="68.7647" y2="56.0532" gradientUnits="userSpaceOnUse">
<stop stop-color="#820001"/>
<stop offset="1" stop-color="#EB4300"/>
</linearGradient>
<linearGradient id="paint9_linear_3998_13896" x1="68.7647" y1="37.2011" x2="68.7647" y2="56.0532" gradientUnits="userSpaceOnUse">
<stop stop-color="#820001"/>
<stop offset="1" stop-color="#EB4300"/>
</linearGradient>
<linearGradient id="paint10_linear_3998_13896" x1="68.7647" y1="37.2011" x2="68.7647" y2="56.0532" gradientUnits="userSpaceOnUse">
<stop stop-color="#820001"/>
<stop offset="1" stop-color="#EB4300"/>
</linearGradient>
<linearGradient id="paint11_linear_3998_13896" x1="68.7647" y1="37.2011" x2="68.7647" y2="56.0532" gradientUnits="userSpaceOnUse">
<stop stop-color="#820001"/>
<stop offset="1" stop-color="#EB4300"/>
</linearGradient>
<linearGradient id="paint12_linear_3998_13896" x1="68.7647" y1="37.2011" x2="68.7647" y2="56.0532" gradientUnits="userSpaceOnUse">
<stop stop-color="#820001"/>
<stop offset="1" stop-color="#EB4300"/>
</linearGradient>
</defs>
</svg>
