<svg width="171" height="16" viewBox="0 0 171 16" fill="none" xmlns="http://www.w3.org/2000/svg">
<path d="M8.30338 15.1181V14.3033C8.90992 14.3033 9.33087 14.2535 9.56625 14.154C9.81067 14.0544 9.93288 13.8869 9.93288 13.6515C9.93288 13.5972 9.92383 13.5203 9.90573 13.4207C9.88762 13.312 9.84236 13.1581 9.76993 12.959C9.70656 12.7508 9.61151 12.4837 9.48477 12.1578C9.35803 11.8229 9.1815 11.4019 8.95518 10.8949H4.51479C4.36089 11.2752 4.2251 11.6237 4.10741 11.9405C4.00783 12.2121 3.91278 12.4747 3.82225 12.7281C3.74078 12.9726 3.70004 13.131 3.70004 13.2034C3.70004 13.5474 3.84488 13.8054 4.13457 13.9774C4.43331 14.1494 4.90406 14.2581 5.54681 14.3033V15.1181H0.386719V14.3033C0.622091 14.2581 0.830305 14.2037 1.01136 14.1404C1.20147 14.0679 1.378 13.9593 1.54095 13.8145C1.71295 13.6606 1.8759 13.4569 2.0298 13.2034C2.1837 12.9409 2.34665 12.6059 2.51865 12.1985L7.14915 0.941406H7.9639L13.1104 12.6602C13.2462 12.968 13.4001 13.226 13.5721 13.4343C13.7441 13.6334 13.9252 13.8009 14.1153 13.9367C14.3054 14.0634 14.4955 14.154 14.6856 14.2083C14.8848 14.2626 15.0749 14.2943 15.2559 14.3033V15.1181H8.30338ZM6.5924 5.61265L4.94932 9.69998H8.42559L6.5924 5.61265Z" fill="#4C40C5"/>
<path d="M27.3821 15.1181H15.7855V14.3033C16.2019 14.3033 16.5369 14.2716 16.7904 14.2083C17.0529 14.1358 17.2521 14.0272 17.3879 13.8824C17.5327 13.7285 17.6278 13.5293 17.673 13.2849C17.7183 13.0314 17.7409 12.7281 17.7409 12.3751V3.98314C17.7409 3.63008 17.7183 3.33134 17.673 3.08692C17.6278 2.83344 17.5327 2.63428 17.3879 2.48943C17.2521 2.33554 17.0529 2.2269 16.7904 2.16353C16.5369 2.09111 16.2019 2.0549 15.7855 2.0549V1.24015H23.0775V2.0549C22.6611 2.0549 22.3171 2.09111 22.0455 2.16353C21.7739 2.2269 21.5567 2.33554 21.3937 2.48943C21.2308 2.63428 21.1176 2.83344 21.0542 3.08692C20.9909 3.33134 20.9592 3.63008 20.9592 3.98314V12.3751C20.9592 12.6829 20.9773 12.9364 21.0135 13.1355C21.0588 13.3347 21.1583 13.4931 21.3122 13.6108C21.4661 13.7194 21.6925 13.7964 21.9912 13.8416C22.299 13.8869 22.7109 13.9095 23.2269 13.9095H24.2997C24.6618 13.9095 25.0058 13.8552 25.3317 13.7466C25.6666 13.6379 25.988 13.4478 26.2958 13.1763C26.6036 12.8956 26.9023 12.5199 27.192 12.0492C27.4817 11.5784 27.7669 10.9809 28.0475 10.2567H28.8623L27.3821 15.1181Z" fill="#4C40C5"/>
<path d="M37.2542 15.1181V14.3033C37.8607 14.3033 38.2817 14.2535 38.5171 14.154C38.7615 14.0544 38.8837 13.8869 38.8837 13.6515C38.8837 13.5972 38.8746 13.5203 38.8565 13.4207C38.8384 13.312 38.7932 13.1581 38.7207 12.959C38.6574 12.7508 38.5623 12.4837 38.4356 12.1578C38.3088 11.8229 38.1323 11.4019 37.906 10.8949H33.4656C33.3117 11.2752 33.1759 11.6237 33.0582 11.9405C32.9586 12.2121 32.8636 12.4747 32.7731 12.7281C32.6916 12.9726 32.6509 13.131 32.6509 13.2034C32.6509 13.5474 32.7957 13.8054 33.0854 13.9774C33.3841 14.1494 33.8549 14.2581 34.4976 14.3033V15.1181H29.3375V14.3033C29.5729 14.2581 29.7811 14.2037 29.9622 14.1404C30.1523 14.0679 30.3288 13.9593 30.4918 13.8145C30.6638 13.6606 30.8267 13.4569 30.9806 13.2034C31.1345 12.9409 31.2975 12.6059 31.4695 12.1985L36.1 0.941406H36.9147L42.0612 12.6602C42.197 12.968 42.3509 13.226 42.5229 13.4343C42.6949 13.6334 42.876 13.8009 43.0661 13.9367C43.2562 14.0634 43.4463 14.154 43.6364 14.2083C43.8356 14.2626 44.0257 14.2943 44.2067 14.3033V15.1181H37.2542ZM35.5432 5.61265L33.9001 9.69998H37.3764L35.5432 5.61265Z" fill="#4C40C5"/>
<path d="M58.4785 8.17911C58.4785 9.16586 58.32 10.0847 58.0032 10.9357C57.6954 11.7776 57.2428 12.5109 56.6453 13.1355C56.0568 13.7511 55.3326 14.2354 54.4726 14.5885C53.6126 14.9415 52.6394 15.1181 51.5531 15.1181H44.6141V14.3033C45.0305 14.3033 45.3655 14.2716 45.619 14.2083C45.8815 14.1358 46.0807 14.0272 46.2165 13.8824C46.3613 13.7285 46.4564 13.5293 46.5016 13.2849C46.5469 13.0314 46.5695 12.7281 46.5695 12.3751V3.98314C46.5695 3.63008 46.5469 3.33134 46.5016 3.08692C46.4564 2.83344 46.3613 2.63428 46.2165 2.48943C46.0807 2.33554 45.8815 2.2269 45.619 2.16353C45.3655 2.09111 45.0305 2.0549 44.6141 2.0549V1.24015H51.5531C52.6394 1.24015 53.6126 1.42573 54.4726 1.79689C55.3326 2.15901 56.0568 2.65691 56.6453 3.2906C57.2428 3.91525 57.6954 4.64852 58.0032 5.49043C58.32 6.33234 58.4785 7.22857 58.4785 8.17911ZM54.7849 8.17911C54.7849 7.51826 54.7215 6.84835 54.5948 6.16939C54.4681 5.49043 54.2418 4.87484 53.9159 4.32262C53.599 3.7704 53.169 3.32229 52.6258 2.97828C52.0917 2.62522 51.4173 2.4487 50.6025 2.4487C50.4758 2.4487 50.3626 2.45322 50.2631 2.46227C50.1725 2.46227 50.091 2.4668 50.0186 2.47585C49.9372 2.48491 49.8647 2.49396 49.8014 2.50301V13.733C49.919 13.8054 50.091 13.8597 50.3174 13.8959C50.5527 13.9231 50.8153 13.9367 51.105 13.9367C51.8201 13.9367 52.4131 13.7692 52.8838 13.4343C53.3546 13.0902 53.7303 12.6467 54.0109 12.1035C54.2915 11.5513 54.4907 10.9312 54.6084 10.2431C54.7261 9.55513 54.7849 8.86712 54.7849 8.17911Z" fill="#4C40C5"/>
<path d="M73.497 8.17911C73.497 9.16586 73.3386 10.0847 73.0218 10.9357C72.714 11.7776 72.2613 12.5109 71.6638 13.1355C71.0754 13.7511 70.3512 14.2354 69.4912 14.5885C68.6312 14.9415 67.658 15.1181 66.5716 15.1181H59.6327V14.3033C60.0491 14.3033 60.3841 14.2716 60.6376 14.2083C60.9001 14.1358 61.0992 14.0272 61.235 13.8824C61.3799 13.7285 61.4749 13.5293 61.5202 13.2849C61.5655 13.0314 61.5881 12.7281 61.5881 12.3751V3.98314C61.5881 3.63008 61.5655 3.33134 61.5202 3.08692C61.4749 2.83344 61.3799 2.63428 61.235 2.48943C61.0992 2.33554 60.9001 2.2269 60.6376 2.16353C60.3841 2.09111 60.0491 2.0549 59.6327 2.0549V1.24015H66.5716C67.658 1.24015 68.6312 1.42573 69.4912 1.79689C70.3512 2.15901 71.0754 2.65691 71.6638 3.2906C72.2613 3.91525 72.714 4.64852 73.0218 5.49043C73.3386 6.33234 73.497 7.22857 73.497 8.17911ZM69.8035 8.17911C69.8035 7.51826 69.7401 6.84835 69.6134 6.16939C69.4866 5.49043 69.2603 4.87484 68.9344 4.32262C68.6176 3.7704 68.1876 3.32229 67.6444 2.97828C67.1103 2.62522 66.4359 2.4487 65.6211 2.4487C65.4944 2.4487 65.3812 2.45322 65.2816 2.46227C65.1911 2.46227 65.1096 2.4668 65.0372 2.47585C64.9557 2.48491 64.8833 2.49396 64.8199 2.50301V13.733C64.9376 13.8054 65.1096 13.8597 65.3359 13.8959C65.5713 13.9231 65.8338 13.9367 66.1235 13.9367C66.8387 13.9367 67.4317 13.7692 67.9024 13.4343C68.3732 13.0902 68.7488 12.6467 69.0295 12.1035C69.3101 11.5513 69.5093 10.9312 69.627 10.2431C69.7447 9.55513 69.8035 8.86712 69.8035 8.17911Z" fill="#4C40C5"/>
<path d="M74.7871 15.1181V14.3033C75.2035 14.3033 75.5384 14.2762 75.7919 14.2218C76.0544 14.1675 76.2536 14.0725 76.3894 13.9367C76.5342 13.8009 76.6293 13.6198 76.6746 13.3935C76.7289 13.1581 76.756 12.8639 76.756 12.5109V3.98314C76.756 3.63008 76.7289 3.33134 76.6746 3.08692C76.6293 2.83344 76.5342 2.63428 76.3894 2.48943C76.2536 2.33554 76.0544 2.2269 75.7919 2.16353C75.5384 2.09111 75.2035 2.0549 74.7871 2.0549V1.24015H81.9297V2.0549C81.5133 2.0549 81.1738 2.09111 80.9113 2.16353C80.6578 2.2269 80.4586 2.33554 80.3138 2.48943C80.178 2.63428 80.0875 2.83344 80.0422 3.08692C79.9969 3.33134 79.9743 3.63008 79.9743 3.98314V12.5109C79.9743 12.8639 79.9969 13.1581 80.0422 13.3935C80.0875 13.6198 80.178 13.8009 80.3138 13.9367C80.4586 14.0725 80.6578 14.1675 80.9113 14.2218C81.1738 14.2762 81.5133 14.3033 81.9297 14.3033V15.1181H74.7871Z" fill="#4C40C5"/>
<path d="M96.636 2.0549C96.3101 2.0549 96.043 2.07753 95.8348 2.1228C95.6356 2.15901 95.4772 2.23143 95.3595 2.34006C95.2509 2.4487 95.1739 2.60259 95.1287 2.80175C95.0834 2.99186 95.0608 3.24081 95.0608 3.54861V15.3353H93.8658L85.759 4.85221V12.8096C85.759 13.1265 85.7907 13.3845 85.8541 13.5836C85.9265 13.7737 86.0351 13.9231 86.18 14.0317C86.3248 14.1404 86.5149 14.2128 86.7503 14.249C86.9857 14.2852 87.2754 14.3033 87.6194 14.3033V15.1181H82.6901V14.3033C83.016 14.3033 83.2876 14.2852 83.5049 14.249C83.7312 14.2128 83.9168 14.1404 84.0616 14.0317C84.2065 13.9231 84.3106 13.7737 84.374 13.5836C84.4373 13.3845 84.469 13.1265 84.469 12.8096V3.20913C84.2608 2.93755 84.0933 2.72481 83.9666 2.57091C83.8398 2.41701 83.7176 2.30385 83.5999 2.23143C83.4913 2.14995 83.3691 2.10016 83.2333 2.08206C83.0975 2.0549 82.9165 2.04132 82.6901 2.04132V1.24015H87.2527L93.7708 9.6864V3.54861C93.7708 3.24081 93.7436 2.99186 93.6893 2.80175C93.635 2.60259 93.5444 2.4487 93.4177 2.34006C93.291 2.23143 93.1144 2.15901 92.8881 2.1228C92.6618 2.07753 92.3811 2.0549 92.0462 2.0549V1.24015H96.636V2.0549Z" fill="#4C40C5"/>
<path d="M114.805 11.1937C114.805 11.8183 114.678 12.3932 114.425 12.9182C114.171 13.4343 113.827 13.8778 113.393 14.249C112.958 14.6202 112.442 14.9099 111.845 15.1181C111.256 15.3172 110.623 15.4168 109.944 15.4168C109.428 15.4168 109.011 15.3761 108.694 15.2946C108.386 15.2131 108.124 15.1226 107.907 15.023C107.689 14.9144 107.495 14.8193 107.323 14.7379C107.16 14.6564 106.965 14.6156 106.739 14.6156C106.485 14.6156 106.277 14.6926 106.114 14.8465C105.96 14.9913 105.82 15.1814 105.693 15.4168H104.933V10.1888H105.734C105.788 10.6686 105.915 11.162 106.114 11.669C106.313 12.1759 106.59 12.6376 106.943 13.054C107.296 13.4705 107.726 13.8099 108.233 14.0725C108.74 14.335 109.328 14.4663 109.998 14.4663C110.297 14.4663 110.586 14.4255 110.867 14.3441C111.148 14.2535 111.392 14.1268 111.6 13.9638C111.817 13.7918 111.989 13.5882 112.116 13.3528C112.243 13.1084 112.306 12.8368 112.306 12.538C112.306 12.1307 112.202 11.7685 111.994 11.4517C111.786 11.1348 111.51 10.8452 111.166 10.5826C110.831 10.311 110.446 10.0576 110.011 9.82219C109.577 9.57777 109.133 9.33787 108.681 9.1025C108.237 8.85807 107.798 8.60007 107.364 8.32848C106.929 8.0569 106.54 7.75816 106.196 7.43226C105.861 7.0973 105.589 6.72161 105.381 6.30518C105.173 5.88876 105.069 5.41348 105.069 4.87937C105.069 4.29999 105.173 3.7704 105.381 3.2906C105.598 2.81081 105.897 2.39891 106.277 2.0549C106.666 1.70184 107.124 1.43026 107.649 1.24015C108.183 1.04099 108.771 0.941406 109.414 0.941406C109.858 0.941406 110.242 0.991197 110.568 1.09078C110.903 1.18131 111.197 1.28541 111.451 1.4031C111.704 1.52078 111.931 1.62942 112.13 1.729C112.329 1.81953 112.524 1.86479 112.714 1.86479C112.895 1.86479 113.031 1.77426 113.121 1.59321C113.212 1.41215 113.28 1.19488 113.325 0.941406H114.112V6.1015H113.257C113.194 5.4678 113.044 4.89295 112.809 4.37694C112.573 3.86093 112.284 3.42187 111.94 3.05976C111.596 2.69765 111.206 2.42154 110.772 2.23143C110.346 2.03227 109.912 1.93269 109.468 1.93269C109.197 1.93269 108.934 1.97795 108.681 2.06848C108.436 2.14995 108.219 2.27217 108.029 2.43512C107.839 2.59807 107.689 2.7927 107.581 3.01902C107.472 3.24534 107.418 3.49429 107.418 3.76588C107.418 4.11894 107.522 4.44031 107.73 4.73C107.947 5.01063 108.228 5.27769 108.572 5.53117C108.916 5.7756 109.31 6.01097 109.753 6.23729C110.197 6.45455 110.65 6.6854 111.111 6.92983C111.573 7.17425 112.026 7.43226 112.469 7.70384C112.913 7.97542 113.307 8.27869 113.651 8.61364C113.995 8.9486 114.271 9.32881 114.479 9.7543C114.696 10.1707 114.805 10.6505 114.805 11.1937Z" fill="#4C40C5"/>
<path d="M127.651 15.1181H116.054V14.3033C116.471 14.3033 116.806 14.2716 117.059 14.2083C117.322 14.1358 117.521 14.0272 117.657 13.8824C117.801 13.7285 117.896 13.5293 117.942 13.2849C117.987 13.0314 118.01 12.7281 118.01 12.3751V3.98314C118.01 3.63008 117.987 3.33134 117.942 3.08692C117.896 2.83344 117.801 2.63428 117.657 2.48943C117.521 2.33554 117.322 2.2269 117.059 2.16353C116.806 2.09111 116.471 2.0549 116.054 2.0549V1.24015H123.346V2.0549C122.93 2.0549 122.586 2.09111 122.314 2.16353C122.043 2.2269 121.825 2.33554 121.662 2.48943C121.499 2.63428 121.386 2.83344 121.323 3.08692C121.26 3.33134 121.228 3.63008 121.228 3.98314V12.3751C121.228 12.6829 121.246 12.9364 121.282 13.1355C121.327 13.3347 121.427 13.4931 121.581 13.6108C121.735 13.7194 121.961 13.7964 122.26 13.8416C122.568 13.8869 122.98 13.9095 123.496 13.9095H124.568C124.93 13.9095 125.274 13.8552 125.6 13.7466C125.935 13.6379 126.257 13.4478 126.564 13.1763C126.872 12.8956 127.171 12.5199 127.461 12.0492C127.75 11.5784 128.036 10.9809 128.316 10.2567H129.131L127.651 15.1181Z" fill="#4C40C5"/>
<path d="M144.937 8.17911C144.937 9.14776 144.765 10.0711 144.421 10.9493C144.086 11.8274 143.602 12.6014 142.968 13.2713C142.334 13.9322 141.56 14.4617 140.646 14.8601C139.741 15.2493 138.718 15.444 137.577 15.444C136.437 15.444 135.409 15.2493 134.495 14.8601C133.58 14.4708 132.802 13.9457 132.159 13.2849C131.525 12.624 131.037 11.8545 130.693 10.9764C130.358 10.0892 130.19 9.15681 130.19 8.17911C130.19 7.17425 130.371 6.23276 130.733 5.35464C131.104 4.46747 131.616 3.69798 132.268 3.04618C132.929 2.39438 133.707 1.8829 134.603 1.51173C135.509 1.13151 136.491 0.941406 137.55 0.941406C138.691 0.941406 139.718 1.13604 140.633 1.52531C141.547 1.90553 142.321 2.42606 142.955 3.08692C143.597 3.74777 144.086 4.51726 144.421 5.39538C144.765 6.26445 144.937 7.19236 144.937 8.17911ZM141.244 8.24701C141.244 7.78531 141.216 7.31004 141.162 6.82119C141.117 6.33234 141.04 5.85707 140.931 5.39538C140.823 4.92463 140.673 4.48557 140.483 4.0782C140.302 3.66177 140.071 3.29966 139.791 2.99186C139.519 2.67502 139.198 2.42606 138.826 2.24501C138.455 2.06395 138.03 1.97342 137.55 1.97342C137.07 1.97342 136.645 2.06395 136.274 2.24501C135.902 2.42606 135.581 2.67049 135.309 2.97828C135.038 3.28608 134.812 3.64366 134.631 4.05104C134.449 4.45841 134.3 4.88842 134.182 5.34106C134.074 5.7937 133.997 6.25992 133.952 6.73972C133.906 7.21046 133.884 7.6631 133.884 8.09764C133.884 8.49596 133.906 8.93049 133.952 9.40124C133.997 9.87198 134.074 10.3427 134.182 10.8135C134.3 11.2752 134.449 11.7233 134.631 12.1578C134.812 12.5833 135.038 12.9635 135.309 13.2985C135.581 13.6244 135.898 13.8869 136.26 14.0861C136.631 14.2852 137.061 14.3848 137.55 14.3848C138.274 14.3848 138.872 14.1902 139.342 13.8009C139.822 13.4026 140.202 12.9001 140.483 12.2936C140.764 11.6871 140.958 11.0262 141.067 10.311C141.185 9.58682 141.244 8.89881 141.244 8.24701Z" fill="#4C40C5"/>
<path d="M158.231 5.39538C158.132 4.38147 157.837 3.63914 157.348 3.16839C156.86 2.68859 156.126 2.4487 155.149 2.4487H154.266V12.5109C154.266 12.8639 154.289 13.1581 154.334 13.3935C154.388 13.6198 154.488 13.8009 154.633 13.9367C154.787 14.0725 154.99 14.1675 155.244 14.2218C155.506 14.2762 155.85 14.3033 156.276 14.3033V15.1181H149.052V14.3033C149.468 14.3033 149.808 14.2762 150.07 14.2218C150.333 14.1675 150.536 14.0725 150.681 13.9367C150.826 13.8009 150.921 13.6198 150.966 13.3935C151.021 13.1581 151.048 12.8639 151.048 12.5109V2.4487H150.029C149.549 2.4487 149.129 2.50301 148.766 2.61165C148.413 2.71123 148.11 2.8787 147.857 3.11408C147.603 3.3404 147.404 3.64366 147.259 4.02388C147.123 4.39505 147.033 4.85221 146.988 5.39538H146.159L146.295 1.24015H158.91L159.046 5.39538H158.231Z" fill="#4C40C5"/>
<path d="M170.507 11.1937C170.507 11.8183 170.38 12.3932 170.126 12.9182C169.873 13.4343 169.529 13.8778 169.094 14.249C168.66 14.6202 168.144 14.9099 167.546 15.1181C166.958 15.3172 166.324 15.4168 165.645 15.4168C165.129 15.4168 164.713 15.3761 164.396 15.2946C164.088 15.2131 163.826 15.1226 163.608 15.023C163.391 14.9144 163.197 14.8193 163.025 14.7379C162.862 14.6564 162.667 14.6156 162.441 14.6156C162.187 14.6156 161.979 14.6926 161.816 14.8465C161.662 14.9913 161.522 15.1814 161.395 15.4168H160.635V10.1888H161.436C161.49 10.6686 161.617 11.162 161.816 11.669C162.015 12.1759 162.291 12.6376 162.644 13.054C162.997 13.4705 163.427 13.8099 163.934 14.0725C164.441 14.335 165.03 14.4663 165.7 14.4663C165.998 14.4663 166.288 14.4255 166.569 14.3441C166.849 14.2535 167.094 14.1268 167.302 13.9638C167.519 13.7918 167.691 13.5882 167.818 13.3528C167.945 13.1084 168.008 12.8368 168.008 12.538C168.008 12.1307 167.904 11.7685 167.696 11.4517C167.488 11.1348 167.211 10.8452 166.867 10.5826C166.533 10.311 166.148 10.0576 165.713 9.82219C165.279 9.57777 164.835 9.33787 164.382 9.1025C163.939 8.85807 163.5 8.60007 163.065 8.32848C162.631 8.0569 162.242 7.75816 161.898 7.43226C161.563 7.0973 161.291 6.72161 161.083 6.30518C160.875 5.88876 160.77 5.41348 160.77 4.87937C160.77 4.29999 160.875 3.7704 161.083 3.2906C161.3 2.81081 161.599 2.39891 161.979 2.0549C162.368 1.70184 162.825 1.43026 163.35 1.24015C163.885 1.04099 164.473 0.941406 165.116 0.941406C165.559 0.941406 165.944 0.991197 166.27 1.09078C166.605 1.18131 166.899 1.28541 167.153 1.4031C167.406 1.52078 167.632 1.62942 167.832 1.729C168.031 1.81953 168.225 1.86479 168.416 1.86479C168.597 1.86479 168.732 1.77426 168.823 1.59321C168.913 1.41215 168.981 1.19488 169.027 0.941406H169.814V6.1015H168.959C168.895 5.4678 168.746 4.89295 168.511 4.37694C168.275 3.86093 167.986 3.42187 167.641 3.05976C167.298 2.69765 166.908 2.42154 166.474 2.23143C166.048 2.03227 165.614 1.93269 165.17 1.93269C164.899 1.93269 164.636 1.97795 164.382 2.06848C164.138 2.14995 163.921 2.27217 163.731 2.43512C163.541 2.59807 163.391 2.7927 163.283 3.01902C163.174 3.24534 163.12 3.49429 163.12 3.76588C163.12 4.11894 163.224 4.44031 163.432 4.73C163.649 5.01063 163.93 5.27769 164.274 5.53117C164.618 5.7756 165.012 6.01097 165.455 6.23729C165.899 6.45455 166.351 6.6854 166.813 6.92983C167.275 7.17425 167.728 7.43226 168.171 7.70384C168.615 7.97542 169.008 8.27869 169.352 8.61364C169.696 8.9486 169.973 9.32881 170.181 9.7543C170.398 10.1707 170.507 10.6505 170.507 11.1937Z" fill="#4C40C5"/>
<path d="M7.91666 14.7323V13.9176C8.5232 13.9176 8.94415 13.8678 9.17953 13.7682C9.42395 13.6686 9.54616 13.5012 9.54616 13.2658C9.54616 13.2115 9.53711 13.1345 9.51901 13.0349C9.5009 12.9263 9.45564 12.7724 9.38321 12.5732C9.31985 12.365 9.22479 12.098 9.09805 11.7721C8.97131 11.4371 8.79478 11.0162 8.56846 10.5092H4.12807C3.97417 10.8894 3.83838 11.238 3.7207 11.5548C3.62112 11.8264 3.52606 12.0889 3.43553 12.3424C3.35406 12.5868 3.31332 12.7452 3.31332 12.8177C3.31332 13.1617 3.45816 13.4197 3.74785 13.5917C4.0466 13.7637 4.51734 13.8723 5.16009 13.9176V14.7323H0V13.9176C0.235372 13.8723 0.443587 13.818 0.624642 13.7546C0.814751 13.6822 0.99128 13.5736 1.15423 13.4287C1.32623 13.2748 1.48918 13.0711 1.64308 12.8177C1.79698 12.5551 1.95993 12.2202 2.13193 11.8128L6.76243 0.555664H7.57718L12.7237 12.2745C12.8595 12.5823 13.0134 12.8403 13.1854 13.0485C13.3574 13.2477 13.5384 13.4152 13.7286 13.5509C13.9187 13.6777 14.1088 13.7682 14.2989 13.8225C14.498 13.8768 14.6881 13.9085 14.8692 13.9176V14.7323H7.91666ZM6.20569 5.2269L4.5626 9.31424H8.03888L6.20569 5.2269Z" fill="white"/>
<path d="M26.9954 14.7323H15.3988V13.9176C15.8152 13.9176 16.1502 13.8859 16.4037 13.8225C16.6662 13.7501 16.8653 13.6415 17.0011 13.4966C17.146 13.3427 17.241 13.1436 17.2863 12.8991C17.3316 12.6457 17.3542 12.3424 17.3542 11.9893V3.5974C17.3542 3.24434 17.3316 2.9456 17.2863 2.70117C17.241 2.4477 17.146 2.24854 17.0011 2.10369C16.8653 1.94979 16.6662 1.84116 16.4037 1.77779C16.1502 1.70537 15.8152 1.66916 15.3988 1.66916V0.854406H22.6908V1.66916C22.2744 1.66916 21.9304 1.70537 21.6588 1.77779C21.3872 1.84116 21.1699 1.94979 21.007 2.10369C20.844 2.24854 20.7309 2.4477 20.6675 2.70117C20.6041 2.9456 20.5725 3.24434 20.5725 3.5974V11.9893C20.5725 12.2971 20.5906 12.5506 20.6268 12.7498C20.672 12.9489 20.7716 13.1074 20.9255 13.225C21.0794 13.3337 21.3057 13.4106 21.6045 13.4559C21.9123 13.5012 22.3242 13.5238 22.8402 13.5238H23.9129C24.2751 13.5238 24.6191 13.4695 24.945 13.3608C25.2799 13.2522 25.6013 13.0621 25.9091 12.7905C26.2169 12.5099 26.5156 12.1342 26.8053 11.6634C27.095 11.1927 27.3802 10.5952 27.6608 9.87098H28.4755L26.9954 14.7323Z" fill="white"/>
<path d="M36.8675 14.7323V13.9176C37.474 13.9176 37.895 13.8678 38.1303 13.7682C38.3748 13.6686 38.497 13.5012 38.497 13.2658C38.497 13.2115 38.4879 13.1345 38.4698 13.0349C38.4517 12.9263 38.4065 12.7724 38.334 12.5732C38.2707 12.365 38.1756 12.098 38.0489 11.7721C37.9221 11.4371 37.7456 11.0162 37.5193 10.5092H33.0789C32.925 10.8894 32.7892 11.238 32.6715 11.5548C32.5719 11.8264 32.4769 12.0889 32.3863 12.3424C32.3049 12.5868 32.2641 12.7452 32.2641 12.8177C32.2641 13.1617 32.409 13.4197 32.6987 13.5917C32.9974 13.7637 33.4682 13.8723 34.1109 13.9176V14.7323H28.9508V13.9176C29.1862 13.8723 29.3944 13.818 29.5755 13.7546C29.7656 13.6822 29.9421 13.5736 30.105 13.4287C30.2771 13.2748 30.44 13.0711 30.5939 12.8177C30.7478 12.5551 30.9107 12.2202 31.0827 11.8128L35.7132 0.555664H36.528L41.6745 12.2745C41.8103 12.5823 41.9642 12.8403 42.1362 13.0485C42.3082 13.2477 42.4893 13.4152 42.6794 13.5509C42.8695 13.6777 43.0596 13.7682 43.2497 13.8225C43.4489 13.8768 43.639 13.9085 43.82 13.9176V14.7323H36.8675ZM35.1565 5.2269L33.5134 9.31424H36.9897L35.1565 5.2269Z" fill="white"/>
<path d="M58.0917 7.79337C58.0917 8.78012 57.9333 9.69898 57.6165 10.5499C57.3087 11.3919 56.856 12.1251 56.2585 12.7498C55.6701 13.3654 54.9459 13.8497 54.0859 14.2027C53.2259 14.5558 52.2527 14.7323 51.1664 14.7323H44.2274V13.9176C44.6438 13.9176 44.9788 13.8859 45.2323 13.8225C45.4948 13.7501 45.6939 13.6415 45.8297 13.4966C45.9746 13.3427 46.0696 13.1436 46.1149 12.8991C46.1602 12.6457 46.1828 12.3424 46.1828 11.9893V3.5974C46.1828 3.24434 46.1602 2.9456 46.1149 2.70117C46.0696 2.4477 45.9746 2.24854 45.8297 2.10369C45.6939 1.94979 45.4948 1.84116 45.2323 1.77779C44.9788 1.70537 44.6438 1.66916 44.2274 1.66916V0.854406H51.1664C52.2527 0.854406 53.2259 1.03999 54.0859 1.41115C54.9459 1.77326 55.6701 2.27117 56.2585 2.90486C56.856 3.52951 57.3087 4.26278 57.6165 5.10469C57.9333 5.9466 58.0917 6.84283 58.0917 7.79337ZM54.3982 7.79337C54.3982 7.13251 54.3348 6.46261 54.2081 5.78365C54.0814 5.10469 53.855 4.4891 53.5291 3.93688C53.2123 3.38466 52.7823 2.93655 52.2391 2.59254C51.705 2.23948 51.0306 2.06295 50.2158 2.06295C50.0891 2.06295 49.9759 2.06748 49.8763 2.07653C49.7858 2.07653 49.7043 2.08106 49.6319 2.09011C49.5504 2.09916 49.478 2.10822 49.4146 2.11727V13.3473C49.5323 13.4197 49.7043 13.474 49.9307 13.5102C50.166 13.5374 50.4286 13.5509 50.7182 13.5509C51.4334 13.5509 52.0264 13.3835 52.4971 13.0485C52.9679 12.7045 53.3436 12.2609 53.6242 11.7178C53.9048 11.1655 54.104 10.5454 54.2217 9.8574C54.3394 9.16939 54.3982 8.48138 54.3982 7.79337Z" fill="white"/>
<path d="M73.1103 7.79337C73.1103 8.78012 72.9519 9.69898 72.635 10.5499C72.3272 11.3919 71.8746 12.1251 71.2771 12.7498C70.6887 13.3654 69.9645 13.8497 69.1045 14.2027C68.2444 14.5558 67.2713 14.7323 66.1849 14.7323H59.246V13.9176C59.6624 13.9176 59.9974 13.8859 60.2508 13.8225C60.5134 13.7501 60.7125 13.6415 60.8483 13.4966C60.9932 13.3427 61.0882 13.1436 61.1335 12.8991C61.1787 12.6457 61.2014 12.3424 61.2014 11.9893V3.5974C61.2014 3.24434 61.1787 2.9456 61.1335 2.70117C61.0882 2.4477 60.9932 2.24854 60.8483 2.10369C60.7125 1.94979 60.5134 1.84116 60.2508 1.77779C59.9974 1.70537 59.6624 1.66916 59.246 1.66916V0.854406H66.1849C67.2713 0.854406 68.2444 1.03999 69.1045 1.41115C69.9645 1.77326 70.6887 2.27117 71.2771 2.90486C71.8746 3.52951 72.3272 4.26278 72.635 5.10469C72.9519 5.9466 73.1103 6.84283 73.1103 7.79337ZM69.4168 7.79337C69.4168 7.13251 69.3534 6.46261 69.2267 5.78365C69.0999 5.10469 68.8736 4.4891 68.5477 3.93688C68.2309 3.38466 67.8009 2.93655 67.2577 2.59254C66.7236 2.23948 66.0491 2.06295 65.2344 2.06295C65.1077 2.06295 64.9945 2.06748 64.8949 2.07653C64.8044 2.07653 64.7229 2.08106 64.6505 2.09011C64.569 2.09916 64.4966 2.10822 64.4332 2.11727V13.3473C64.5509 13.4197 64.7229 13.474 64.9492 13.5102C65.1846 13.5374 65.4471 13.5509 65.7368 13.5509C66.452 13.5509 67.0449 13.3835 67.5157 13.0485C67.9864 12.7045 68.3621 12.2609 68.6428 11.7178C68.9234 11.1655 69.1226 10.5454 69.2402 9.8574C69.3579 9.16939 69.4168 8.48138 69.4168 7.79337Z" fill="white"/>
<path d="M74.4003 14.7323V13.9176C74.8168 13.9176 75.1517 13.8904 75.4052 13.8361C75.6677 13.7818 75.8669 13.6867 76.0027 13.5509C76.1475 13.4152 76.2426 13.2341 76.2878 13.0078C76.3422 12.7724 76.3693 12.4782 76.3693 12.1251V3.5974C76.3693 3.24434 76.3422 2.9456 76.2878 2.70117C76.2426 2.4477 76.1475 2.24854 76.0027 2.10369C75.8669 1.94979 75.6677 1.84116 75.4052 1.77779C75.1517 1.70537 74.8168 1.66916 74.4003 1.66916V0.854406H81.543V1.66916C81.1266 1.66916 80.7871 1.70537 80.5246 1.77779C80.2711 1.84116 80.0719 1.94979 79.9271 2.10369C79.7913 2.24854 79.7007 2.4477 79.6555 2.70117C79.6102 2.9456 79.5876 3.24434 79.5876 3.5974V12.1251C79.5876 12.4782 79.6102 12.7724 79.6555 13.0078C79.7007 13.2341 79.7913 13.4152 79.9271 13.5509C80.0719 13.6867 80.2711 13.7818 80.5246 13.8361C80.7871 13.8904 81.1266 13.9176 81.543 13.9176V14.7323H74.4003Z" fill="white"/>
<path d="M96.2492 1.66916C95.9233 1.66916 95.6563 1.69179 95.4481 1.73705C95.2489 1.77326 95.0905 1.84569 94.9728 1.95432C94.8642 2.06295 94.7872 2.21685 94.742 2.41601C94.6967 2.60612 94.6741 2.85507 94.6741 3.16287V14.9496H93.4791L85.3723 4.46647V12.4239C85.3723 12.7407 85.404 12.9987 85.4674 13.1979C85.5398 13.388 85.6484 13.5374 85.7933 13.646C85.9381 13.7546 86.1282 13.8271 86.3636 13.8633C86.599 13.8995 86.8887 13.9176 87.2327 13.9176V14.7323H82.3034V13.9176C82.6293 13.9176 82.9009 13.8995 83.1182 13.8633C83.3445 13.8271 83.5301 13.7546 83.6749 13.646C83.8198 13.5374 83.9239 13.388 83.9872 13.1979C84.0506 12.9987 84.0823 12.7407 84.0823 12.4239V2.82339C83.8741 2.5518 83.7066 2.33906 83.5799 2.18517C83.4531 2.03127 83.3309 1.91811 83.2132 1.84569C83.1046 1.76421 82.9824 1.71442 82.8466 1.69632C82.7108 1.66916 82.5297 1.65558 82.3034 1.65558V0.854406H86.866L93.384 9.30066V3.16287C93.384 2.85507 93.3569 2.60612 93.3026 2.41601C93.2482 2.21685 93.1577 2.06295 93.031 1.95432C92.9042 1.84569 92.7277 1.77326 92.5014 1.73705C92.2751 1.69179 91.9944 1.66916 91.6595 1.66916V0.854406H96.2492V1.66916Z" fill="white"/>
<path d="M114.418 10.8079C114.418 11.4326 114.291 12.0074 114.038 12.5325C113.784 13.0485 113.44 13.4921 113.006 13.8633C112.571 14.2344 112.055 14.5241 111.458 14.7323C110.869 14.9315 110.236 15.0311 109.557 15.0311C109.041 15.0311 108.624 14.9903 108.308 14.9089C108 14.8274 107.737 14.7369 107.52 14.6373C107.303 14.5286 107.108 14.4336 106.936 14.3521C106.773 14.2706 106.578 14.2299 106.352 14.2299C106.099 14.2299 105.89 14.3068 105.728 14.4607C105.574 14.6056 105.433 14.7957 105.307 15.0311H104.546V9.80309H105.347C105.402 10.2829 105.528 10.7763 105.728 11.2832C105.927 11.7902 106.203 12.2519 106.556 12.6683C106.909 13.0847 107.339 13.4242 107.846 13.6867C108.353 13.9493 108.941 14.0805 109.611 14.0805C109.91 14.0805 110.2 14.0398 110.48 13.9583C110.761 13.8678 111.005 13.7411 111.214 13.5781C111.431 13.4061 111.603 13.2024 111.73 12.967C111.856 12.7226 111.92 12.451 111.92 12.1523C111.92 11.7449 111.816 11.3828 111.607 11.066C111.399 10.7491 111.123 10.4594 110.779 10.1969C110.444 9.9253 110.059 9.67182 109.625 9.43645C109.19 9.19202 108.747 8.95213 108.294 8.71675C107.85 8.47233 107.411 8.21432 106.977 7.94274C106.542 7.67116 106.153 7.37241 105.809 7.04651C105.474 6.71156 105.202 6.33587 104.994 5.91944C104.786 5.50301 104.682 5.02774 104.682 4.49363C104.682 3.91425 104.786 3.38466 104.994 2.90486C105.212 2.42506 105.51 2.01316 105.89 1.66916C106.28 1.3161 106.737 1.04451 107.262 0.854406C107.796 0.655245 108.385 0.555664 109.027 0.555664C109.471 0.555664 109.856 0.605454 110.181 0.705035C110.516 0.795563 110.811 0.89967 111.064 1.01736C111.318 1.13504 111.544 1.24368 111.743 1.34326C111.942 1.43378 112.137 1.47905 112.327 1.47905C112.508 1.47905 112.644 1.38852 112.734 1.20746C112.825 1.02641 112.893 0.809142 112.938 0.555664H113.726V5.71575H112.87C112.807 5.08206 112.657 4.50721 112.422 3.9912C112.187 3.47519 111.897 3.03613 111.553 2.67402C111.209 2.31191 110.82 2.03579 110.385 1.84569C109.96 1.64653 109.525 1.54694 109.082 1.54694C108.81 1.54694 108.547 1.59221 108.294 1.68274C108.05 1.76421 107.832 1.88642 107.642 2.04937C107.452 2.21232 107.303 2.40696 107.194 2.63328C107.085 2.8596 107.031 3.10855 107.031 3.38013C107.031 3.73319 107.135 4.05457 107.343 4.34426C107.561 4.62489 107.841 4.89195 108.185 5.14543C108.529 5.38985 108.923 5.62523 109.367 5.85155C109.81 6.06881 110.263 6.29966 110.725 6.54408C111.186 6.78851 111.639 7.04651 112.083 7.3181C112.526 7.58968 112.92 7.89295 113.264 8.2279C113.608 8.56286 113.884 8.94307 114.092 9.36855C114.31 9.78498 114.418 10.2648 114.418 10.8079Z" fill="white"/>
<path d="M127.264 14.7323H115.667V13.9176C116.084 13.9176 116.419 13.8859 116.672 13.8225C116.935 13.7501 117.134 13.6415 117.27 13.4966C117.415 13.3427 117.51 13.1436 117.555 12.8991C117.6 12.6457 117.623 12.3424 117.623 11.9893V3.5974C117.623 3.24434 117.6 2.9456 117.555 2.70117C117.51 2.4477 117.415 2.24854 117.27 2.10369C117.134 1.94979 116.935 1.84116 116.672 1.77779C116.419 1.70537 116.084 1.66916 115.667 1.66916V0.854406H122.959V1.66916C122.543 1.66916 122.199 1.70537 121.927 1.77779C121.656 1.84116 121.439 1.94979 121.276 2.10369C121.113 2.24854 121 2.4477 120.936 2.70117C120.873 2.9456 120.841 3.24434 120.841 3.5974V11.9893C120.841 12.2971 120.859 12.5506 120.895 12.7498C120.941 12.9489 121.04 13.1074 121.194 13.225C121.348 13.3337 121.574 13.4106 121.873 13.4559C122.181 13.5012 122.593 13.5238 123.109 13.5238H124.182C124.544 13.5238 124.888 13.4695 125.214 13.3608C125.549 13.2522 125.87 13.0621 126.178 12.7905C126.486 12.5099 126.784 12.1342 127.074 11.6634C127.364 11.1927 127.649 10.5952 127.929 9.87098H128.744L127.264 14.7323Z" fill="white"/>
<path d="M144.55 7.79337C144.55 8.76202 144.378 9.6854 144.034 10.5635C143.699 11.4416 143.215 12.2157 142.581 12.8856C141.948 13.5464 141.174 14.076 140.259 14.4743C139.354 14.8636 138.331 15.0582 137.19 15.0582C136.05 15.0582 135.022 14.8636 134.108 14.4743C133.194 14.0851 132.415 13.56 131.772 12.8991C131.139 12.2383 130.65 11.4688 130.306 10.5907C129.971 9.70351 129.803 8.77107 129.803 7.79337C129.803 6.78851 129.984 5.84702 130.347 4.9689C130.718 4.08173 131.229 3.31224 131.881 2.66044C132.542 2.00864 133.32 1.49715 134.217 1.12599C135.122 0.745773 136.104 0.555664 137.163 0.555664C138.304 0.555664 139.331 0.750299 140.246 1.13957C141.16 1.51979 141.934 2.04032 142.568 2.70117C143.211 3.36203 143.699 4.13152 144.034 5.00964C144.378 5.8787 144.55 6.80661 144.55 7.79337ZM140.857 7.86126C140.857 7.39957 140.83 6.9243 140.775 6.43545C140.73 5.9466 140.653 5.47133 140.545 5.00964C140.436 4.53889 140.287 4.09983 140.096 3.69246C139.915 3.27603 139.685 2.91392 139.404 2.60612C139.132 2.28927 138.811 2.04032 138.44 1.85927C138.069 1.67821 137.643 1.58768 137.163 1.58768C136.684 1.58768 136.258 1.67821 135.887 1.85927C135.516 2.04032 135.194 2.28475 134.923 2.59254C134.651 2.90034 134.425 3.25792 134.244 3.6653C134.063 4.07267 133.913 4.50268 133.796 4.95532C133.687 5.40796 133.61 5.87418 133.565 6.35398C133.52 6.82472 133.497 7.27736 133.497 7.71189C133.497 8.11022 133.52 8.54475 133.565 9.0155C133.61 9.48624 133.687 9.95699 133.796 10.4277C133.913 10.8894 134.063 11.3375 134.244 11.7721C134.425 12.1975 134.651 12.5778 134.923 12.9127C135.194 13.2386 135.511 13.5012 135.873 13.7003C136.244 13.8995 136.674 13.9991 137.163 13.9991C137.888 13.9991 138.485 13.8044 138.956 13.4152C139.436 13.0168 139.816 12.5144 140.096 11.9079C140.377 11.3013 140.572 10.6405 140.68 9.9253C140.798 9.20108 140.857 8.51307 140.857 7.86126Z" fill="white"/>
<path d="M157.844 5.00964C157.745 3.99572 157.451 3.2534 156.962 2.78265C156.473 2.30285 155.74 2.06295 154.762 2.06295H153.879V12.1251C153.879 12.4782 153.902 12.7724 153.947 13.0078C154.001 13.2341 154.101 13.4152 154.246 13.5509C154.4 13.6867 154.604 13.7818 154.857 13.8361C155.12 13.8904 155.464 13.9176 155.889 13.9176V14.7323H148.665V13.9176C149.081 13.9176 149.421 13.8904 149.683 13.8361C149.946 13.7818 150.15 13.6867 150.294 13.5509C150.439 13.4152 150.534 13.2341 150.58 13.0078C150.634 12.7724 150.661 12.4782 150.661 12.1251V2.06295H149.643C149.163 2.06295 148.742 2.11727 148.38 2.2259C148.027 2.32548 147.723 2.49296 147.47 2.72833C147.216 2.95465 147.017 3.25792 146.872 3.63814C146.737 4.0093 146.646 4.46647 146.601 5.00964H145.773L145.908 0.854406H158.523L158.659 5.00964H157.844Z" fill="white"/>
<path d="M170.12 10.8079C170.12 11.4326 169.993 12.0074 169.74 12.5325C169.486 13.0485 169.142 13.4921 168.708 13.8633C168.273 14.2344 167.757 14.5241 167.16 14.7323C166.571 14.9315 165.938 15.0311 165.259 15.0311C164.743 15.0311 164.326 14.9903 164.009 14.9089C163.702 14.8274 163.439 14.7369 163.222 14.6373C163.005 14.5286 162.81 14.4336 162.638 14.3521C162.475 14.2706 162.28 14.2299 162.054 14.2299C161.8 14.2299 161.592 14.3068 161.429 14.4607C161.275 14.6056 161.135 14.7957 161.008 15.0311H160.248V9.80309H161.049C161.103 10.2829 161.23 10.7763 161.429 11.2832C161.628 11.7902 161.905 12.2519 162.258 12.6683C162.611 13.0847 163.041 13.4242 163.548 13.6867C164.055 13.9493 164.643 14.0805 165.313 14.0805C165.612 14.0805 165.901 14.0398 166.182 13.9583C166.463 13.8678 166.707 13.7411 166.915 13.5781C167.133 13.4061 167.305 13.2024 167.431 12.967C167.558 12.7226 167.621 12.451 167.621 12.1523C167.621 11.7449 167.517 11.3828 167.309 11.066C167.101 10.7491 166.825 10.4594 166.481 10.1969C166.146 9.9253 165.761 9.67182 165.327 9.43645C164.892 9.19202 164.448 8.95213 163.996 8.71675C163.552 8.47233 163.113 8.21432 162.679 7.94274C162.244 7.67116 161.855 7.37241 161.511 7.04651C161.176 6.71156 160.904 6.33587 160.696 5.91944C160.488 5.50301 160.384 5.02774 160.384 4.49363C160.384 3.91425 160.488 3.38466 160.696 2.90486C160.913 2.42506 161.212 2.01316 161.592 1.66916C161.982 1.3161 162.439 1.04451 162.964 0.854406C163.498 0.655245 164.086 0.555664 164.729 0.555664C165.173 0.555664 165.557 0.605454 165.883 0.705035C166.218 0.795563 166.512 0.89967 166.766 1.01736C167.019 1.13504 167.246 1.24368 167.445 1.34326C167.644 1.43378 167.839 1.47905 168.029 1.47905C168.21 1.47905 168.346 1.38852 168.436 1.20746C168.527 1.02641 168.595 0.809142 168.64 0.555664H169.427V5.71575H168.572C168.509 5.08206 168.359 4.50721 168.124 3.9912C167.888 3.47519 167.599 3.03613 167.255 2.67402C166.911 2.31191 166.521 2.03579 166.087 1.84569C165.661 1.64653 165.227 1.54694 164.783 1.54694C164.512 1.54694 164.249 1.59221 163.996 1.68274C163.751 1.76421 163.534 1.88642 163.344 2.04937C163.154 2.21232 163.005 2.40696 162.896 2.63328C162.787 2.8596 162.733 3.10855 162.733 3.38013C162.733 3.73319 162.837 4.05457 163.045 4.34426C163.262 4.62489 163.543 4.89195 163.887 5.14543C164.231 5.38985 164.625 5.62523 165.069 5.85155C165.512 6.06881 165.965 6.29966 166.426 6.54408C166.888 6.78851 167.341 7.04651 167.784 7.3181C168.228 7.58968 168.622 7.89295 168.966 8.2279C169.31 8.56286 169.586 8.94307 169.794 9.36855C170.011 9.78498 170.12 10.2648 170.12 10.8079Z" fill="white"/>
</svg>
