<svg width="164" height="40" viewBox="0 0 164 40" fill="none" xmlns="http://www.w3.org/2000/svg">
<path d="M29.3413 15.4105C27.0534 15.4105 24.9962 16.3565 23.5321 17.9011C22.9117 18.554 21.8348 19.33 20.6709 20.01C21.2169 17.9356 22.9465 15.3242 24.1451 14.1787C24.9339 13.4234 25.5604 12.5174 25.9869 11.5152C26.4134 10.513 26.631 9.43538 26.6266 8.34741C26.6266 3.9253 23.0805 0.33587 18.6857 0.289062C14.291 0.33587 10.7449 3.92283 10.7449 8.34741C10.7449 10.6435 11.6879 12.7104 13.2264 14.1787C14.4275 15.3242 16.1546 17.9356 16.7005 20.01C15.5367 19.3276 14.4597 18.554 13.8394 17.9011C13.0947 17.1129 12.1948 16.485 11.1954 16.0565C10.1961 15.6281 9.1187 15.4082 8.03015 15.4105C3.5957 15.4105 0 19.0147 0 23.4688C0 27.923 3.59322 31.5272 8.03015 31.5272C10.3206 31.5272 12.3753 30.5516 13.8394 29.0069C14.492 28.3196 15.6409 27.4623 16.8742 26.7503C16.7576 32.4362 14.023 36.612 11.2387 38.2552V39.7087H26.1278V38.2552C23.3435 36.6095 20.6089 32.4338 20.4923 26.7503C21.7281 27.4623 22.877 28.3196 23.5272 29.0069C24.2692 29.8006 25.168 30.4339 26.1674 30.8675C27.1669 31.3012 28.2456 31.5257 29.3364 31.5272C33.7708 31.5272 37.3665 27.9205 37.3665 23.4688C37.3665 19.0171 33.7733 15.4105 29.3364 15.4105H29.3413Z" fill="url(#paint0_linear_791_9085)"/>
<path d="M44.7461 6.03906H51.1321V28.4294H64.9684V33.6328H44.7461V6.03906Z" fill="white"/>
<path d="M80.4495 34.1058C76.5075 34.1058 73.4328 33.0152 71.2253 30.834C69.0441 28.6528 67.9535 25.5386 67.9535 21.4916V6.03906H74.3395V21.255C74.3395 26.1956 76.3893 28.6659 80.4889 28.6659C82.4862 28.6659 84.0104 28.0746 85.0616 26.892C86.1128 25.6832 86.6384 23.8042 86.6384 21.255V6.03906H92.9455V21.4916C92.9455 25.5386 91.8418 28.6528 89.6343 30.834C87.453 33.0152 84.3915 34.1058 80.4495 34.1058Z" fill="white"/>
<path d="M109.308 22.7924L105.603 26.6555V33.6328H99.256V6.03906H105.603V18.9293L117.823 6.03906H124.918L113.487 18.338L125.588 33.6328H118.138L109.308 22.7924Z" fill="white"/>
<path d="M138.488 22.7924L134.782 26.6555V33.6328H128.436V6.03906H134.782V18.9293L147.002 6.03906H154.098L142.666 18.338L154.768 33.6328H147.318L138.488 22.7924Z" fill="white"/>
<path d="M157.616 6.03906H164.002V33.6328H157.616V6.03906Z" fill="white"/>
<defs>
<linearGradient id="paint0_linear_791_9085" x1="18.6832" y1="39.7087" x2="18.6832" y2="0.289063" gradientUnits="userSpaceOnUse">
<stop stop-color="#EF850D"/>
<stop offset="0.45" stop-color="#FFF081"/>
<stop offset="1" stop-color="#FFCA38"/>
</linearGradient>
</defs>
</svg>
