<svg width="179" height="36" viewBox="0 0 179 36" fill="none" xmlns="http://www.w3.org/2000/svg">
<g id="Group 735">
<g id="logo">
<g id="moon">
<path id="Vector" d="M81.6428 9.61523L78.601 27.9371H74.8436L69.3238 17.3626H69.1986L67.4362 27.9371H63.0078L66.0495 9.61523H69.8606L75.3357 20.1718H75.4878L77.2233 9.61523H81.6428Z" fill="white"/>
<path id="Vector_2" d="M61.8949 19.0629C61.5609 21.037 60.9049 22.704 59.9268 24.0638C58.9546 25.4177 57.7707 26.4435 56.3751 27.1413C54.9855 27.8391 53.4915 28.188 51.8931 28.188C50.2052 28.188 48.744 27.8123 47.5094 27.0608C46.2749 26.3093 45.3773 25.2149 44.8166 23.7776C44.262 22.3402 44.1546 20.5957 44.4946 18.544C44.8166 16.5699 45.4637 14.9 46.4359 13.5342C47.414 12.1684 48.6038 11.1336 50.0054 10.4298C51.413 9.7201 52.9219 9.36523 54.5322 9.36523C56.2081 9.36523 57.6604 9.74396 58.889 10.5014C60.1236 11.2588 61.0182 12.3592 61.5729 13.8026C62.1275 15.2459 62.2349 16.9993 61.8949 19.0629ZM57.4666 18.544C57.6514 17.393 57.6514 16.4238 57.4666 15.6365C57.2876 14.8493 56.9357 14.2558 56.4109 13.8562C55.8861 13.4507 55.2032 13.2479 54.3622 13.2479C53.4318 13.2479 52.5909 13.4775 51.8394 13.9367C51.0939 14.39 50.4706 15.052 49.9696 15.9228C49.4686 16.7876 49.1197 17.8343 48.9229 19.0629C48.7201 20.2259 48.7142 21.1951 48.905 21.9704C49.1019 22.7458 49.4686 23.3303 50.0054 23.7239C50.5422 24.1116 51.2251 24.3054 52.0541 24.3054C52.9785 24.3054 53.8105 24.0817 54.5501 23.6344C55.2896 23.1871 55.9069 22.534 56.402 21.6752C56.9029 20.8164 57.2578 19.7727 57.4666 18.544Z" fill="white"/>
<path id="Vector_3" d="M42.0199 19.0629C41.6859 21.037 41.0299 22.704 40.0518 24.0638C39.0796 25.4177 37.8957 26.4435 36.5001 27.1413C35.1105 27.8391 33.6165 28.188 32.0181 28.188C30.3302 28.188 28.869 27.8123 27.6344 27.0608C26.3999 26.3093 25.5022 25.2149 24.9416 23.7776C24.387 22.3402 24.2796 20.5957 24.6196 18.544C24.9416 16.5699 25.5887 14.9 26.5609 13.5342C27.539 12.1684 28.7288 11.1336 30.1304 10.4298C31.538 9.7201 33.0469 9.36523 34.6572 9.36523C36.3331 9.36523 37.7854 9.74396 39.014 10.5014C40.2486 11.2588 41.1432 12.3592 41.6979 13.8026C42.2525 15.2459 42.3599 16.9993 42.0199 19.0629ZM37.5916 18.544C37.7764 17.393 37.7764 16.4238 37.5916 15.6365C37.4126 14.8493 37.0607 14.2558 36.5359 13.8562C36.0111 13.4507 35.3282 13.2479 34.4872 13.2479C33.5568 13.2479 32.7159 13.4775 31.9644 13.9367C31.2189 14.39 30.5956 15.052 30.0946 15.9228C29.5936 16.7876 29.2447 17.8343 29.0479 19.0629C28.8451 20.2259 28.8392 21.1951 29.03 21.9704C29.2269 22.7458 29.5936 23.3303 30.1304 23.7239C30.6672 24.1116 31.3501 24.3054 32.1791 24.3054C33.1035 24.3054 33.9355 24.0817 34.6751 23.6344C35.4146 23.1871 36.0319 22.534 36.527 21.6752C37.0279 20.8164 37.3828 19.7727 37.5916 18.544Z" fill="white"/>
<path id="Vector_4" d="M3.04171 9.61523H8.52573L11.2991 20.959H11.5138L18.0445 9.61523H23.5285L20.4868 27.9371H16.1747L18.0445 16.6827H17.8924L11.648 27.8208H8.90147L6.36075 16.6201H6.20867L4.31207 27.9371H0L3.04171 9.61523Z" fill="white"/>
</g>
<g id="win">
<path id="Vector_5" d="M154.557 9.36523L151.515 27.6871H147.758L142.238 17.1126H142.113L140.35 27.6871H135.922L138.964 9.36523H142.775L148.25 19.9218H148.402L150.137 9.36523H154.557Z" fill="white"/>
<path id="Vector_6" d="M136.185 9.36523L133.143 27.6871H128.715L131.757 9.36523H136.185Z" fill="white"/>
<path id="Vector_7" d="M106.29 27.6871L104 9.36523H108.894L109.681 21.371H109.833L114.968 9.36523H118.958L120.139 21.3979H120.282L125.041 9.36523H129.926L121.561 27.6871H117.294L115.854 16.5759H115.711L110.549 27.6871H106.29Z" fill="white"/>
</g>
<g id="com">
<path id="Vector_8" d="M172.451 21.2744H173.626L174.847 26.2592H174.922L177.784 21.2744H178.958L177.893 27.6871H176.973L177.746 23.0467H177.687L175.025 27.6777H174.258L173.143 23.0435H173.084L172.307 27.6871H171.387L172.451 21.2744Z" fill="white"/>
<path id="Vector_9" d="M170.702 24.5431C170.589 25.2174 170.37 25.7956 170.044 26.2778C169.721 26.76 169.324 27.1305 168.854 27.3894C168.387 27.6461 167.882 27.7745 167.339 27.7745C166.773 27.7745 166.29 27.6399 165.889 27.3706C165.491 27.0992 165.205 26.7141 165.031 26.2152C164.858 25.7142 164.829 25.1172 164.944 24.4242C165.056 23.7499 165.274 23.1717 165.598 22.6895C165.924 22.2052 166.321 21.8336 166.791 21.5748C167.263 21.3159 167.772 21.1865 168.319 21.1865C168.881 21.1865 169.36 21.3222 169.756 21.5936C170.155 21.8629 170.441 22.249 170.614 22.7521C170.787 23.2531 170.817 23.8501 170.702 24.5431ZM169.759 24.4242C169.845 23.9127 169.835 23.4827 169.728 23.1341C169.624 22.7834 169.445 22.5183 169.193 22.3388C168.94 22.1593 168.635 22.0695 168.278 22.0695C167.898 22.0695 167.543 22.1655 167.211 22.3576C166.881 22.5496 166.599 22.8293 166.365 23.1967C166.131 23.5641 165.972 24.0129 165.886 24.5431C165.798 25.0546 165.808 25.4846 165.914 25.8332C166.021 26.1818 166.2 26.4458 166.453 26.6254C166.708 26.8028 167.013 26.8915 167.37 26.8915C167.748 26.8915 168.102 26.7965 168.432 26.6066C168.764 26.4145 169.047 26.1359 169.28 25.7706C169.514 25.4032 169.674 24.9544 169.759 24.4242Z" fill="white"/>
<path id="Vector_10" d="M164.164 23.3596H163.205C163.201 23.1508 163.163 22.9671 163.09 22.8085C163.016 22.6477 162.916 22.5131 162.789 22.4045C162.664 22.2939 162.517 22.2104 162.347 22.1541C162.178 22.0977 161.996 22.0695 161.799 22.0695C161.422 22.0695 161.067 22.1655 160.735 22.3576C160.403 22.5496 160.12 22.8293 159.886 23.1967C159.653 23.5641 159.492 24.0119 159.404 24.54C159.319 25.0535 159.329 25.4846 159.435 25.8332C159.542 26.1818 159.721 26.4458 159.974 26.6254C160.229 26.8028 160.535 26.8915 160.891 26.8915C161.1 26.8915 161.304 26.8644 161.502 26.8101C161.702 26.7537 161.888 26.6713 162.059 26.5627C162.231 26.4542 162.382 26.3216 162.513 26.1651C162.647 26.0064 162.751 25.8248 162.827 25.6203H163.797C163.693 25.9376 163.546 26.2277 163.356 26.4907C163.166 26.7537 162.941 26.9813 162.682 27.1733C162.424 27.3654 162.14 27.5136 161.831 27.6179C161.522 27.7223 161.195 27.7745 160.851 27.7745C160.285 27.7745 159.803 27.6399 159.404 27.3706C159.008 27.0992 158.723 26.713 158.549 26.2121C158.378 25.7111 158.349 25.1141 158.462 24.421C158.576 23.7468 158.796 23.1686 159.119 22.6864C159.445 22.2021 159.841 21.8315 160.309 21.5748C160.779 21.3159 161.286 21.1865 161.831 21.1865C162.175 21.1865 162.49 21.2356 162.776 21.3337C163.062 21.4297 163.309 21.5717 163.515 21.7595C163.724 21.9453 163.885 22.1728 163.998 22.4421C164.11 22.7093 164.166 23.0151 164.164 23.3596Z" fill="white"/>
</g>
</g>
<g id="Group 734">
<path id="Subtract" d="M108.135 0.71254C100.072 2.33605 94 9.45903 94 18.0002C94 26.5414 100.072 33.6644 108.135 35.2879C107.004 35.5157 105.833 35.6352 104.635 35.6352C94.8955 35.6352 87 27.7398 87 18.0002C87 8.26069 94.8955 0.365234 104.635 0.365234C105.833 0.365234 107.004 0.48476 108.135 0.71254Z" fill="white"/>
<path id="Subtract_2" d="M107.635 0.619379C99.3244 2.04364 93 9.28336 93 18.0002C93 26.7171 99.3244 33.9568 107.635 35.3811C106.66 35.5482 105.658 35.6352 104.635 35.6352C94.8955 35.6352 87 27.7398 87 18.0002C87 8.26069 94.8955 0.365234 104.635 0.365234C105.658 0.365234 106.66 0.452284 107.635 0.619379Z" fill="#0F0D00"/>
<path id="Subtract_3" d="M106.635 0.477539C97.837 1.4707 91 8.93701 91 18C91 27.063 97.837 34.5293 106.635 35.5225C105.978 35.5967 105.311 35.6348 104.635 35.6348C94.8954 35.6348 87 27.7393 87 18C87 8.26074 94.8954 0.365234 104.635 0.365234C105.311 0.365234 105.978 0.40332 106.635 0.477539Z" fill="url(#paint0_linear_2673_4769)"/>
</g>
</g>
<defs>
<linearGradient id="paint0_linear_2673_4769" x1="96.8174" y1="0.365234" x2="96.8174" y2="35.6348" gradientUnits="userSpaceOnUse">
<stop stop-color="#FFEC00"/>
<stop offset="1" stop-color="#B38600"/>
</linearGradient>
</defs>
</svg>
