<svg width="163" height="27" viewBox="0 0 163 27" fill="none" xmlns="http://www.w3.org/2000/svg">
<path d="M12.709 1.18355C15.3391 1.18355 17.3775 1.75653 18.824 2.90251C20.2706 4.04848 20.9939 5.65473 20.9939 7.72123C20.9939 9.37444 20.5806 10.8304 19.754 12.0891C18.9461 13.3478 17.7814 14.3247 16.2597 15.0198C14.7568 15.7149 13.0096 16.0624 11.0183 16.0624H7.60852L6.65041 20.9093H0L3.94516 1.18355H12.709ZM11.3564 10.9337C12.277 10.9337 12.9908 10.7083 13.4981 10.2574C14.0053 9.78775 14.2589 9.13961 14.2589 8.31301C14.2589 6.97917 13.4323 6.31225 11.7791 6.31225H9.55291L8.62298 10.9337H11.3564Z" fill="#EFE856"/>
<path d="M27.1417 21.1911C25.4321 21.1911 24.1077 20.7872 23.1683 19.9794C22.229 19.1528 21.7593 17.9974 21.7593 16.5133C21.7593 16.0248 21.8157 15.4988 21.9284 14.9352L24.9155 0H31.2841L28.3534 14.6534C28.3158 14.9164 28.297 15.0949 28.297 15.1889C28.297 15.9779 28.7103 16.3724 29.5369 16.3724C29.969 16.3724 30.3354 16.2973 30.6359 16.147L29.9596 20.7966C29.0203 21.0596 28.081 21.1911 27.1417 21.1911Z" fill="#EFE856"/>
<path d="M72.7848 5.49504L70.3332 17.8096C69.732 20.8718 68.5391 23.1073 66.7544 24.5163C64.9884 25.9441 62.6683 26.658 59.794 26.658C56.6379 26.658 54.0923 26.0192 52.1573 24.7418L54.8625 20.4021C55.4825 20.8718 56.2434 21.2381 57.1451 21.5011C58.0656 21.7829 58.9862 21.9238 59.9067 21.9238C61.0903 21.9238 61.9732 21.6702 62.5556 21.1629C63.138 20.6745 63.5231 19.9324 63.711 18.9368L63.7673 18.655C63.1474 19.1246 62.4805 19.4816 61.7666 19.7258C61.0715 19.9512 60.3764 20.0639 59.6813 20.0639C58.0281 20.0639 56.7036 19.6131 55.7079 18.7113C54.7123 17.8096 54.2144 16.5133 54.2144 14.8225C54.2144 14.1838 54.2802 13.5356 54.4117 12.8781L55.877 5.49504H62.2456L60.9212 12.1173C60.846 12.5681 60.8085 12.8875 60.8085 13.0754C60.8085 14.165 61.3251 14.7098 62.3583 14.7098C63.8237 14.7098 64.7536 13.7329 65.1481 11.7791L66.4162 5.49504H72.7848Z" fill="#EFE856"/>
<path d="M84.7379 6.11499C82.089 6.11499 80.7645 7.24218 80.7645 9.49656V9.58109H87.7531V14.5971H80.7645V20.9093H74.1141V9.63745C74.1141 6.78191 74.9877 4.5839 76.7348 3.04341C78.482 1.50292 80.9618 0.732673 84.1743 0.732673C85.3202 0.732673 86.4005 0.845391 87.4149 1.07083C88.4294 1.27748 89.303 1.56867 90.0356 1.9444L88.1194 6.96038C87.5934 6.67859 87.0298 6.47193 86.4286 6.34043C85.8463 6.19014 85.2827 6.11499 84.7379 6.11499Z" fill="white"/>
<path d="M97.2065 7.15764C98.3337 5.86137 99.9963 5.21324 102.194 5.21324V10.8492C101.687 10.774 101.217 10.7365 100.785 10.7365C98.6061 10.7365 97.5165 11.8449 97.5165 14.0617V20.9093H91.1479V5.49504H97.2065V7.15764Z" fill="white"/>
<path d="M120.77 5.49504V20.9093H114.711V19.6412C113.79 20.6745 112.381 21.1911 110.484 21.1911C109.131 21.1911 107.882 20.8718 106.736 20.233C105.609 19.5755 104.707 18.6362 104.031 17.415C103.373 16.1939 103.045 14.7849 103.045 13.1881C103.045 11.5912 103.373 10.1917 104.031 8.98932C104.707 7.7682 105.609 6.83827 106.736 6.19953C107.882 5.54201 109.131 5.21324 110.484 5.21324C112.194 5.21324 113.499 5.65472 114.401 6.53769V5.49504H120.77ZM112.006 16.2315C112.738 16.2315 113.34 15.9685 113.809 15.4425C114.279 14.8977 114.514 14.1462 114.514 13.1881C114.514 12.23 114.279 11.4879 113.809 10.9619C113.34 10.4359 112.738 10.1729 112.006 10.1729C111.273 10.1729 110.672 10.4359 110.202 10.9619C109.733 11.4879 109.498 12.23 109.498 13.1881C109.498 14.1462 109.733 14.8977 110.202 15.4425C110.672 15.9685 111.273 16.2315 112.006 16.2315Z" fill="white"/>
<path d="M134.301 5.21324C136.199 5.21324 137.72 5.78623 138.866 6.9322C140.031 8.07818 140.614 9.80653 140.614 12.1173V20.9093H134.245V13.2163C134.245 11.4503 133.616 10.5674 132.357 10.5674C131.643 10.5674 131.061 10.821 130.61 11.3282C130.178 11.8167 129.962 12.5963 129.962 13.6671V20.9093H123.593V5.49504H129.652V7.01674C130.253 6.41558 130.948 5.9647 131.737 5.66412C132.526 5.36353 133.381 5.21324 134.301 5.21324Z" fill="white"/>
<path d="M150.762 16.1751L149.748 17.2741V20.9093H143.379V0H149.748V9.97561L154.172 5.49504H161.696L155.328 12.1736L162.203 20.9093H154.51L150.762 16.1751Z" fill="white"/>
<path d="M36.3199 5.41895H48.8405C49.3148 5.41895 49.7698 5.60739 50.1052 5.94283C50.4407 6.27827 50.6291 6.73322 50.6291 7.2076V19.7282C50.6291 20.2025 50.4407 20.6575 50.1052 20.9929C49.7698 21.3284 49.3148 21.5168 48.8405 21.5168H36.3199C35.8455 21.5168 35.3906 21.3284 35.0551 20.9929C34.7197 20.6575 34.5312 20.2025 34.5312 19.7282V7.2076C34.5312 6.73322 34.7197 6.27827 35.0551 5.94283C35.3906 5.60739 35.8455 5.41895 36.3199 5.41895ZM42.5802 11.6792C42.1058 11.6792 41.6508 11.8677 41.3154 12.2031C40.98 12.5385 40.7915 12.9935 40.7915 13.4679C40.7915 13.9423 40.98 14.3972 41.3154 14.7326C41.6508 15.0681 42.1058 15.2565 42.5802 15.2565C43.0546 15.2565 43.5095 15.0681 43.8449 14.7326C44.1804 14.3972 44.3688 13.9423 44.3688 13.4679C44.3688 12.9935 44.1804 12.5385 43.8449 12.2031C43.5095 11.8677 43.0546 11.6792 42.5802 11.6792ZM38.1086 7.2076C37.6342 7.2076 37.1792 7.39604 36.8438 7.73148C36.5083 8.06692 36.3199 8.52187 36.3199 8.99625C36.3199 9.47063 36.5083 9.92558 36.8438 10.261C37.1792 10.5965 37.6342 10.7849 38.1086 10.7849C38.5829 10.7849 39.0379 10.5965 39.3733 10.261C39.7088 9.92558 39.8972 9.47063 39.8972 8.99625C39.8972 8.52187 39.7088 8.06692 39.3733 7.73148C39.0379 7.39604 38.5829 7.2076 38.1086 7.2076ZM47.0518 16.1509C46.5774 16.1509 46.1225 16.3393 45.787 16.6747C45.4516 17.0102 45.2632 17.4651 45.2632 17.9395C45.2632 18.4139 45.4516 18.8688 45.787 19.2043C46.1225 19.5397 46.5774 19.7282 47.0518 19.7282C47.5262 19.7282 47.9811 19.5397 48.3166 19.2043C48.652 18.8688 48.8405 18.4139 48.8405 17.9395C48.8405 17.4651 48.652 17.0102 48.3166 16.6747C47.9811 16.3393 47.5262 16.1509 47.0518 16.1509Z" fill="#FF6767"/>
</svg>
