<svg width="206" height="71" viewBox="0 0 206 71" fill="none" xmlns="http://www.w3.org/2000/svg">
<path d="M51.4473 63.002V44.9931H55.9308L56.1176 46.3382C56.6905 45.84 57.4004 45.4166 58.2473 45.0679C59.1191 44.7191 59.9909 44.5448 60.8627 44.5448C61.7345 44.5448 62.6187 44.6818 63.5154 44.9558C64.4122 45.2049 65.2341 45.6532 65.9814 46.3008C66.8532 45.8027 67.7997 45.3917 68.821 45.0679C69.8422 44.7191 70.9506 44.5448 72.1462 44.5448C73.566 44.5448 74.7492 44.7191 75.6957 45.0679C76.6422 45.4166 77.4019 45.9148 77.9748 46.5624C78.5726 47.21 78.9961 48.0071 79.2452 48.9536C79.4943 49.9001 79.6188 50.9836 79.6188 52.2042V63.002H74.7616V52.4283C74.7616 51.2327 74.525 50.2738 74.0518 49.5514C73.5785 48.8041 72.7067 48.4305 71.4364 48.4305C71.0627 48.4305 70.6891 48.4928 70.3155 48.6173C69.9418 48.717 69.5807 48.8415 69.232 48.991C68.9081 49.1404 68.6092 49.3023 68.3352 49.4767C68.0613 49.6261 67.8495 49.7631 67.7001 49.8877C67.7499 50.1866 67.7997 50.5228 67.8495 50.8965C67.8993 51.2701 67.9243 51.6811 67.9243 52.1294V63.002H63.0671V52.4283C63.0671 51.8804 63.0173 51.3697 62.9176 50.8965C62.818 50.3983 62.6561 49.9748 62.4319 49.6261C62.2077 49.2525 61.8964 48.9661 61.4979 48.7668C61.1242 48.5426 60.651 48.4305 60.0781 48.4305C59.3557 48.4305 58.6583 48.6173 57.9858 48.991C57.3132 49.3646 56.7652 49.7631 56.3418 50.1866V63.002H51.4473Z" fill="#111111"/>
<path d="M82.469 66.0284C82.9422 66.2526 83.403 66.4145 83.8514 66.5141C84.3247 66.6137 84.7232 66.6636 85.047 66.6636C85.3459 66.6636 85.6448 66.5764 85.9437 66.402C86.2426 66.2277 86.5166 65.8789 86.7657 65.3559L88.1481 62.2548L80.6756 44.9931H85.869L90.5767 57.2855L95.0602 44.9931H99.9921L90.6514 67.2614C90.3774 67.8841 90.0536 68.4072 89.68 68.8306C89.3064 69.254 88.8954 69.5903 88.447 69.8394C87.9987 70.0885 87.513 70.2628 86.9899 70.3625C86.4917 70.4621 85.9935 70.5119 85.4954 70.5119C84.8477 70.5119 84.1254 70.4248 83.3283 70.2504C82.5562 70.1009 81.7591 69.8519 80.9371 69.5031L82.469 66.0284Z" fill="#111111"/>
<path d="M119.275 58.6034C118.503 60.2224 117.457 61.418 116.137 62.1902C114.842 62.9624 113.322 63.3484 111.578 63.3484C110.433 63.3484 109.324 63.1492 108.253 62.7506C107.207 62.3521 106.273 61.7667 105.451 60.9946C104.654 60.1975 104.006 59.2261 103.508 58.0803C103.035 56.9096 102.798 55.5521 102.798 54.0077C102.798 52.4136 103.035 51.0187 103.508 49.8231C103.981 48.6275 104.604 47.6312 105.376 46.8341C106.173 46.037 107.083 45.4517 108.104 45.078C109.125 44.6795 110.184 44.4802 111.28 44.4802C112.376 44.4802 113.347 44.6421 114.194 44.9659C115.066 45.2648 115.813 45.6634 116.436 46.1615C117.083 46.6597 117.606 47.2202 118.005 47.8429C118.428 48.4656 118.752 49.0883 118.976 49.711L115.128 51.6165C114.705 50.4209 114.169 49.5865 113.521 49.1132C112.899 48.615 112.189 48.366 111.392 48.366C110.894 48.366 110.42 48.478 109.972 48.7022C109.524 48.9264 109.113 49.2627 108.739 49.711C108.39 50.1594 108.104 50.7323 107.88 51.4297C107.68 52.1271 107.581 52.9616 107.581 53.933C107.581 55.6517 107.954 56.9843 108.702 57.9308C109.474 58.8774 110.47 59.3506 111.691 59.3506C112.637 59.3506 113.409 59.114 114.007 58.6407C114.605 58.1675 115.14 57.4949 115.614 56.6231L119.275 58.6034Z" fill="white"/>
<path d="M131.796 62.9374L131.572 61.5924C131.049 62.1404 130.376 62.5763 129.554 62.9001C128.757 63.199 127.873 63.3484 126.902 63.3484C126.105 63.3484 125.32 63.2114 124.548 62.9374C123.801 62.6884 123.141 62.3272 122.568 61.8539C121.995 61.3558 121.534 60.7579 121.185 60.0605C120.836 59.3382 120.662 58.5286 120.662 57.6319C120.662 56.7352 120.849 55.9506 121.223 55.2781C121.596 54.5806 122.094 53.9953 122.717 53.522C123.34 53.0488 124.05 52.6627 124.847 52.3638C125.669 52.0649 126.528 51.8407 127.425 51.6912C128.048 51.5667 128.732 51.4795 129.48 51.4297C130.227 51.355 130.85 51.2927 131.348 51.2429V50.6451C131.348 49.9227 131.099 49.3374 130.601 48.889C130.102 48.4407 129.517 48.2165 128.845 48.2165C128.421 48.2165 127.886 48.3286 127.238 48.5528C126.59 48.7769 125.968 49.2004 125.37 49.8231L122.045 47.5066C122.518 46.9088 123.053 46.4106 123.651 46.0121C124.274 45.6136 124.897 45.3022 125.519 45.078C126.167 44.8539 126.802 44.7044 127.425 44.6297C128.048 44.53 128.62 44.4802 129.143 44.4802C130.19 44.4802 131.149 44.6172 132.02 44.8912C132.892 45.1403 133.639 45.5513 134.262 46.1242C134.91 46.6722 135.408 47.3821 135.757 48.2539C136.105 49.1008 136.28 50.1345 136.28 51.355V62.9374H131.796ZM131.385 54.5308C130.887 54.5557 130.352 54.6055 129.779 54.6803C129.231 54.7301 128.708 54.8048 128.209 54.9044C127.163 55.1037 126.428 55.4524 126.005 55.9506C125.606 56.4239 125.407 56.9469 125.407 57.5198C125.407 58.1176 125.631 58.6034 126.08 58.977C126.528 59.3257 127.188 59.5001 128.06 59.5001C128.683 59.5001 129.28 59.3755 129.853 59.1264C130.451 58.8773 130.962 58.566 131.385 58.1924V54.5308Z" fill="white"/>
<path d="M142.767 56.8847C143.19 57.6817 143.776 58.3543 144.523 58.9023C145.295 59.4253 146.254 59.6869 147.4 59.6869C148.396 59.6869 149.168 59.5374 149.716 59.2385C150.289 58.9147 150.576 58.4788 150.576 57.9308C150.576 57.4077 150.277 56.9469 149.679 56.5484C149.081 56.1499 147.973 55.8011 146.354 55.5022C145.407 55.3279 144.535 55.1037 143.738 54.8297C142.966 54.5308 142.306 54.1572 141.758 53.7088C141.21 53.2605 140.787 52.7249 140.488 52.1022C140.189 51.4795 140.039 50.7323 140.039 49.8605C140.039 48.2663 140.7 46.9711 142.02 45.9747C143.365 44.9784 145.171 44.4802 147.437 44.4802C149.48 44.4802 151.099 44.8165 152.294 45.489C153.49 46.1366 154.412 46.9337 155.059 47.8802L151.622 50.2341C151.174 49.6363 150.601 49.1381 149.903 48.7396C149.206 48.341 148.384 48.1418 147.437 48.1418C146.391 48.1418 145.669 48.3037 145.27 48.6275C144.872 48.9264 144.672 49.3249 144.672 49.8231C144.672 50.396 144.922 50.807 145.42 51.0561C145.918 51.3052 146.84 51.5667 148.185 51.8407C149.281 52.0649 150.252 52.3264 151.099 52.6253C151.971 52.9242 152.705 53.3103 153.303 53.7836C153.901 54.2319 154.349 54.7799 154.648 55.4275C154.972 56.0751 155.134 56.8349 155.134 57.7066C155.134 58.6781 154.935 59.525 154.536 60.2473C154.138 60.9448 153.59 61.5301 152.892 62.0034C152.195 62.4517 151.373 62.788 150.426 63.0122C149.48 63.2363 148.471 63.3484 147.4 63.3484C145.258 63.3484 143.514 62.9499 142.169 62.1528C140.849 61.3308 139.84 60.3096 139.143 59.0891L142.767 56.8847Z" fill="white"/>
<path d="M160.526 42.8736C159.554 42.8736 158.82 42.5996 158.321 42.0516C157.848 41.5037 157.611 40.8934 157.611 40.2209C157.611 39.5732 157.848 38.9754 158.321 38.4275C158.82 37.8795 159.554 37.6055 160.526 37.6055C161.497 37.6055 162.22 37.8795 162.693 38.4275C163.191 38.9754 163.44 39.5732 163.44 40.2209C163.44 40.8934 163.191 41.5037 162.693 42.0516C162.22 42.5996 161.497 42.8736 160.526 42.8736ZM158.097 62.9374V44.9286H162.954V62.9374H158.097Z" fill="white"/>
<path d="M167.278 62.9374V44.9286H171.724L171.948 46.3484C172.696 45.7506 173.555 45.2897 174.526 44.9659C175.498 44.6421 176.469 44.4802 177.441 44.4802C178.437 44.4802 179.346 44.6297 180.168 44.9286C181.015 45.2026 181.737 45.6509 182.335 46.2736C182.933 46.8963 183.394 47.7059 183.718 48.7022C184.066 49.6986 184.241 50.8942 184.241 52.289V62.9374H179.346V52.6627C179.346 51.2927 179.047 50.2341 178.449 49.4868C177.852 48.7396 177.017 48.366 175.946 48.366C175.199 48.366 174.501 48.5528 173.854 48.9264C173.206 49.3 172.646 49.711 172.173 50.1594V62.9374H167.278Z" fill="white"/>
<path d="M192.424 62.5265C191.303 61.9785 190.356 61.2561 189.584 60.3594C188.837 59.4627 188.276 58.4539 187.903 57.333C187.529 56.1872 187.342 55.029 187.342 53.8583C187.342 52.6876 187.529 51.5418 187.903 50.4209C188.276 49.3 188.837 48.3037 189.584 47.4319C190.356 46.5352 191.303 45.8253 192.424 45.3022C193.569 44.7542 194.902 44.4802 196.421 44.4802C197.941 44.4802 199.261 44.7542 200.382 45.3022C201.528 45.8253 202.474 46.5352 203.221 47.4319C203.994 48.3037 204.566 49.3 204.94 50.4209C205.314 51.5418 205.501 52.6876 205.501 53.8583C205.501 55.029 205.314 56.1872 204.94 57.333C204.566 58.4539 203.994 59.4627 203.221 60.3594C202.474 61.2561 201.528 61.9785 200.382 62.5265C199.261 63.0744 197.941 63.3484 196.421 63.3484C194.902 63.3484 193.569 63.0744 192.424 62.5265ZM193.208 57.744C193.557 58.2422 193.993 58.6407 194.516 58.9396C195.064 59.2136 195.699 59.3506 196.421 59.3506C197.119 59.3506 197.729 59.2136 198.252 58.9396C198.8 58.6407 199.248 58.2422 199.597 57.744C199.971 57.2458 200.245 56.6729 200.419 56.0253C200.618 55.3528 200.718 54.6304 200.718 53.8583C200.718 53.111 200.618 52.4011 200.419 51.7286C200.245 51.0561 199.971 50.4832 199.597 50.0099C199.248 49.5117 198.8 49.1257 198.252 48.8517C197.729 48.5528 197.119 48.4033 196.421 48.4033C195.724 48.4033 195.101 48.5528 194.553 48.8517C194.03 49.1257 193.582 49.5117 193.208 50.0099C192.859 50.4832 192.585 51.0561 192.386 51.7286C192.212 52.4011 192.125 53.111 192.125 53.8583C192.125 54.6304 192.212 55.3528 192.386 56.0253C192.585 56.6729 192.859 57.2458 193.208 57.744Z" fill="white"/>
<path d="M37.8011 44.2034C37.7452 45.5868 38.5524 46.6241 39.9221 46.8953C39.8927 48.0772 39.4263 49.0756 38.6323 49.9309C37.1866 51.488 35.3059 52.0015 33.2702 52.1089C31.5086 52.202 29.7347 52.1785 27.9869 52.383C26.1341 52.5993 24.4245 53.3025 22.8375 54.5835C25.3225 54.6669 27.6823 54.6173 30.0103 54.1382C32.1206 60.1389 29.8927 67.3549 25.8693 70.7996C25.4657 69.6682 25.1268 68.5074 24.6467 67.4084C22.6212 62.771 19.1565 59.494 14.7579 57.1351C11.7522 55.5231 8.5277 54.5894 5.1556 54.1519C4.4597 54.0617 3.75449 54.0401 2.88596 53.9744C3.45141 53.0397 3.8869 52.1319 4.49403 51.3595C5.46113 50.1286 6.55035 48.9943 7.56796 47.8016C7.71116 47.6338 7.84012 47.3489 7.80383 47.1493C6.7205 41.1123 8.16919 35.7187 11.8856 30.8901C11.8968 30.8754 11.8998 30.8543 11.9488 30.7243C11.7232 30.5276 11.4535 30.305 11.197 30.0681C6.12612 25.3846 2.84672 19.6737 1.38185 12.9256C0.728127 9.91399 0.453994 6.87245 0.7914 3.79951C0.880656 2.98591 1.06356 2.17328 1.29553 1.38763C1.65206 0.180228 2.35532 -0.186594 3.58627 0.0846055C5.7848 0.568646 7.67534 1.68336 9.38738 3.0781C14.5314 7.2692 17.9378 12.5681 19.4247 19.0686C20.1064 22.0488 20.1231 25.0575 19.8887 28.0819C19.8602 28.4517 19.8445 28.8225 19.821 29.23C20.8925 29.23 21.9474 29.1927 22.9994 29.2364C27.1223 29.409 30.7401 30.9107 33.9273 33.4893C36.6785 35.7153 38.7859 38.4866 40.6215 41.4826C40.9182 41.9671 41.2252 42.4482 41.4812 42.9543C41.8279 43.6394 41.7043 44.3 41.182 44.8507C40.7377 45.3186 40.2826 45.3823 39.5185 45.0395C38.9492 44.785 38.396 44.4952 37.8011 44.2034ZM5.73576 8.08867C11.1995 13.7432 15.6358 20.0058 17.5616 27.902C18.0893 25.4999 17.7132 21.2549 15.855 17.6435C13.6084 13.2773 10.3074 10.0283 5.73576 8.08867ZM21.101 35.2739C21.0828 35.3587 21.0642 35.4441 21.046 35.5289C21.6287 35.9114 22.2 36.3136 22.7993 36.6677C23.0827 36.8354 23.2573 36.9702 23.3108 37.3503C23.4172 38.1041 23.8042 38.747 24.4285 39.2178C25.9291 40.3507 27.5803 39.9108 29.2325 39.746C29.2046 39.514 29.1938 39.3576 29.1668 39.2041C28.7387 36.7706 27.4592 35.3013 25.2455 35.0885C23.8821 34.9576 22.4834 35.1998 21.101 35.2739Z" fill="white"/>
<path d="M22.6901 26.7855C21.7578 22.2702 22.4704 18.1238 25.2398 14.4236C26.7782 12.3678 28.3775 10.3576 29.9203 8.30468C30.6005 7.39987 31.2092 6.44159 31.9306 5.39062C31.9987 6.03797 32.089 6.59949 32.112 7.16347C32.3116 11.9745 31.1434 16.4907 29.0548 20.7799C28.0185 22.9073 26.8425 24.9665 25.7391 27.0395C24.7033 26.9537 23.6974 26.8698 22.6901 26.7855Z" fill="white"/>
<path d="M22.3691 69.6266C19.2761 66.9136 15.952 64.618 12.2675 62.8579C8.57567 61.0943 4.7161 59.9212 0.5 59.5966C0.834954 58.7099 1.13067 57.8659 1.48622 57.0474C1.54409 56.9145 1.86533 56.836 2.0664 56.8336C5.71902 56.7909 9.17545 57.6364 12.473 59.1758C15.7318 60.6971 18.5443 62.7902 20.5727 65.794C21.2563 66.8057 21.7066 67.9758 22.2494 69.0803C22.3299 69.2426 22.3314 69.4432 22.3691 69.6266Z" fill="white"/>
<path d="M30.1425 0.875C30.3132 1.83916 30.067 2.71062 29.707 3.56346C28.8792 5.52316 27.5605 7.1577 26.2246 8.77706C24.4135 10.9717 22.7049 13.2369 21.3464 15.7645C20.7716 14.461 20.2013 13.1884 19.6579 11.904C19.603 11.7745 19.6628 11.5484 19.7467 11.4155C22.3081 7.36074 25.3355 3.74588 29.4682 1.18346C29.6178 1.09077 29.7752 1.00986 29.9321 0.929926C29.9787 0.905896 30.0366 0.901973 30.1425 0.875Z" fill="white"/>
</svg>
