<svg width="209" height="34" viewBox="0 0 209 34" fill="none" xmlns="http://www.w3.org/2000/svg">
<path d="M18.1143 33.094H0C0.678227 30.0132 5.31278 7.80363 6.21708 3.71118L4.52151 1.8259C4.26718 1.50402 4.38021 0.90625 4.69107 0.90625H22.7206C30.068 1.27411 26.2248 13.2755 23.851 15.4827C27.3834 19.2073 23.9357 33.094 18.1143 33.094ZM7.9409 20.081C7.74309 20.081 7.60179 20.5408 7.79961 20.7707L8.90173 22.4261L8.28002 25.323H16.0514C16.9274 25.323 17.9447 24.4953 18.1991 23.0698L18.3686 22.3801C18.4252 21.8743 18.4534 21.5524 18.4252 21.3685C18.3404 20.4948 17.9165 20.081 17.1535 20.081H7.9409ZM10.0604 8.6773C9.83429 8.6773 9.72125 9.13712 9.91906 9.36703L11.2473 11.3443L10.7103 13.8273H17.323C18.1991 13.8273 19.2164 12.9537 19.5273 11.5282L19.6403 10.9304C19.7251 10.7925 19.7251 10.4706 19.6968 10.0568C19.5838 9.09114 19.1599 8.63131 18.4252 8.63131H11.8124V8.6773H10.0604Z" fill="url(#paint0_linear_1829_12566)"/>
<path d="M26.4833 33.094C27.6137 27.6221 31.2874 11.0224 32.7569 3.71118C32.1917 3.02145 31.6548 2.42367 31.0048 1.87188C30.6939 1.55001 30.8352 0.90625 31.1461 0.90625H39.963L33.4069 31.7145C33.209 32.6342 32.8134 33.094 32.22 33.094H26.4833Z" fill="url(#paint1_linear_1829_12566)"/>
<path d="M39.9661 33.094C39.0618 33.094 38.4684 31.7145 38.7792 30.381C39.9096 24.8631 42.9616 10.1487 44.2051 3.71118L42.679 1.8259C42.4247 1.50402 42.5377 0.90625 42.8486 0.90625H67.7734L66.417 7.29782C66.2192 8.17149 65.7388 8.6773 65.2018 8.6773H47.9918C47.681 8.6773 47.5679 9.27507 47.7657 9.59695L49.32 11.8961C49.2918 11.8961 46.5788 24.9551 46.5506 24.9551C46.5223 25.185 46.5788 25.323 46.7767 25.323H55.7066C56.0458 25.323 56.2436 25.139 56.3284 24.7252L57.4022 19.6671H55.6784C55.2828 19.6671 54.9719 19.4372 54.7458 19.0234L51.9764 14.0573C51.7786 13.7354 51.9199 13.1836 52.2307 13.1836H65.3714C65.3714 13.3675 62.715 25.9207 62.715 25.7828C61.6694 30.6569 59.7478 33.094 56.9218 33.094H39.9661Z" fill="url(#paint2_linear_1829_12566)"/>
<path d="M95.6898 33.094H77.5755C78.2537 30.0132 82.8883 7.80363 83.7926 3.71118L82.097 1.8259C81.8427 1.50402 81.9557 0.90625 82.2665 0.90625H100.296C107.644 1.27411 103.8 13.2755 101.426 15.4827C104.959 19.2073 101.511 33.094 95.6898 33.094ZM85.5164 20.081C85.3186 20.081 85.1773 20.5408 85.3751 20.7707L86.4772 22.4261L85.8555 25.323H93.6268C94.5029 25.323 95.5202 24.4953 95.7746 23.0698L95.9441 22.3801C96.0006 21.8743 96.0289 21.5524 96.0006 21.3685C95.9159 20.4948 95.492 20.081 94.729 20.081H85.5164ZM87.6358 8.6773C87.4098 8.6773 87.2967 9.13712 87.4946 9.36703L88.8227 11.3443L88.2858 13.8273H94.8985C95.7746 13.8273 96.7919 12.9537 97.1028 11.5282L97.2158 10.9304C97.3006 10.7925 97.3006 10.4706 97.2723 10.0568C97.1593 9.09114 96.7354 8.63131 96.0006 8.63131H89.3879V8.6773H87.6358Z" fill="url(#paint3_linear_1829_12566)"/>
<path d="M109.4 33.094C106.489 33.094 104.426 30.1511 105.415 25.7368L109.117 8.21747C109.937 4.21699 112.367 0.90625 115.56 0.90625H128.079C131.018 0.90625 132.968 3.84913 132.064 8.21747L128.334 25.7368C127.514 29.6453 125.14 33.094 121.89 33.094H109.4ZM112.254 24.7252C112.169 25.139 112.282 25.323 112.565 25.323H121.354C121.664 25.323 121.834 25.139 121.89 24.7252L125.197 9.27507C125.282 8.86123 125.169 8.6773 124.886 8.6773H113.384C113.074 8.6773 112.932 9.27507 113.158 9.59695L114.91 12.172L112.254 24.7252Z" fill="url(#paint4_linear_1829_12566)"/>
<path d="M135.921 33.094C133.01 33.094 130.947 30.1511 131.936 25.7368L135.638 8.21747C136.458 4.21699 138.888 0.90625 142.081 0.90625H154.6C157.539 0.90625 159.489 3.84913 158.585 8.21747L154.854 25.7368C154.035 29.6453 151.661 33.094 148.411 33.094H135.921ZM138.775 24.7252C138.69 25.139 138.803 25.323 139.086 25.323H147.874C148.185 25.323 148.355 25.139 148.411 24.7252L151.718 9.27507C151.802 8.86123 151.689 8.6773 151.407 8.6773H139.905C139.594 8.6773 139.453 9.27507 139.679 9.59695L141.431 12.172L138.775 24.7252Z" fill="url(#paint5_linear_1829_12566)"/>
<path d="M174.565 33.094H157.242L158.909 26.5645C159.107 25.7828 159.531 25.277 160.068 25.277H173.83C174.141 25.323 174.31 25.139 174.395 24.7252L175.158 21.1386C175.243 20.7707 175.158 20.5868 174.847 20.5868H165.239C162.3 20.5868 160.237 17.6439 161.226 13.2296L162.272 8.21747C163.091 4.21699 165.578 0.90625 168.743 0.90625H185.021C184.54 3.25136 184.201 4.90673 183.749 7.25184C183.551 8.21747 183.156 8.6773 182.562 8.6773H166.935C166.624 8.6773 166.511 9.27507 166.737 9.59695L168.178 11.7121L167.952 12.8617C167.867 13.2296 167.98 13.4135 168.263 13.4135H177.899C180.81 13.4135 182.873 16.3564 181.884 20.7707L180.838 25.7828C179.934 29.6913 177.815 33.094 174.565 33.094Z" fill="url(#paint6_linear_1829_12566)"/>
<path d="M186.082 1.87188C185.771 1.55001 185.912 0.90625 186.223 0.90625H209C208.689 2.42367 207.983 5.5045 207.615 7.29782C207.417 8.21747 207.022 8.6773 206.428 8.6773H199.364C199.053 8.6773 198.94 9.27507 199.166 9.59695L200.89 12.172L196.735 31.7145C196.538 32.6342 196.142 33.094 195.549 33.094H189.784L195.012 8.6773H186.76C186.816 8.35542 187.918 4.21699 188.003 3.71118L186.082 1.87188Z" fill="url(#paint7_linear_1829_12566)"/>
<defs>
<linearGradient id="paint0_linear_1829_12566" x1="209" y1="17.0001" x2="0" y2="17.0001" gradientUnits="userSpaceOnUse">
<stop stop-color="#FEDB8A"/>
<stop offset="0.5" stop-color="#FDAC7E"/>
<stop offset="1" stop-color="#FED395"/>
</linearGradient>
<linearGradient id="paint1_linear_1829_12566" x1="209" y1="17.0001" x2="0" y2="17.0001" gradientUnits="userSpaceOnUse">
<stop stop-color="#FEDB8A"/>
<stop offset="0.5" stop-color="#FDAC7E"/>
<stop offset="1" stop-color="#FED395"/>
</linearGradient>
<linearGradient id="paint2_linear_1829_12566" x1="209" y1="17.0001" x2="0" y2="17.0001" gradientUnits="userSpaceOnUse">
<stop stop-color="#FEDB8A"/>
<stop offset="0.5" stop-color="#FDAC7E"/>
<stop offset="1" stop-color="#FED395"/>
</linearGradient>
<linearGradient id="paint3_linear_1829_12566" x1="209" y1="17.0001" x2="0" y2="17.0001" gradientUnits="userSpaceOnUse">
<stop stop-color="#FEDB8A"/>
<stop offset="0.5" stop-color="#FDAC7E"/>
<stop offset="1" stop-color="#FED395"/>
</linearGradient>
<linearGradient id="paint4_linear_1829_12566" x1="209" y1="17.0001" x2="0" y2="17.0001" gradientUnits="userSpaceOnUse">
<stop stop-color="#FEDB8A"/>
<stop offset="0.5" stop-color="#FDAC7E"/>
<stop offset="1" stop-color="#FED395"/>
</linearGradient>
<linearGradient id="paint5_linear_1829_12566" x1="209" y1="17.0001" x2="0" y2="17.0001" gradientUnits="userSpaceOnUse">
<stop stop-color="#FEDB8A"/>
<stop offset="0.5" stop-color="#FDAC7E"/>
<stop offset="1" stop-color="#FED395"/>
</linearGradient>
<linearGradient id="paint6_linear_1829_12566" x1="209" y1="17.0001" x2="0" y2="17.0001" gradientUnits="userSpaceOnUse">
<stop stop-color="#FEDB8A"/>
<stop offset="0.5" stop-color="#FDAC7E"/>
<stop offset="1" stop-color="#FED395"/>
</linearGradient>
<linearGradient id="paint7_linear_1829_12566" x1="209" y1="17.0001" x2="0" y2="17.0001" gradientUnits="userSpaceOnUse">
<stop stop-color="#FEDB8A"/>
<stop offset="0.5" stop-color="#FDAC7E"/>
<stop offset="1" stop-color="#FED395"/>
</linearGradient>
</defs>
</svg>
