<svg width="214" height="24" viewBox="0 0 214 24" fill="none" xmlns="http://www.w3.org/2000/svg">
<path d="M91.3477 11.9511H94.7728C97.7039 11.9511 99.7128 11.0289 99.7128 8.52595C99.7128 5.82539 97.7039 4.80445 94.7728 4.80445H91.3477V11.9511ZM86.5723 23.1485V0.852404H94.8057C101.294 0.852404 104.686 3.6847 104.686 8.52595C104.686 11.6876 103.138 13.96 100.108 15.0798L104.686 23.1485H99.2847L95.168 15.9031H91.3477V23.1485H86.5723Z" fill="white"/>
<path d="M113.606 11.8193C113.606 16.957 116.701 19.6905 120.028 19.6905C123.354 19.6905 126.45 16.957 126.45 11.8193C126.45 6.68167 123.354 4.31044 120.028 4.31044C116.701 4.31044 113.606 6.68167 113.606 11.8193ZM108.501 11.8193C108.501 4.63978 113.112 0.358398 120.028 0.358398C126.944 0.358398 131.554 4.63978 131.554 11.8193C131.554 18.9989 126.944 23.6425 120.028 23.6425C113.112 23.6425 108.501 18.9989 108.501 11.8193Z" fill="white"/>
<path d="M136.357 23.1485V0.852404H141.133V19.1965H151.507V23.1485H136.357Z" fill="white"/>
<path d="M155.651 23.1485V0.852404H160.427V19.1965H170.801V23.1485H155.651Z" fill="white"/>
<path d="M174.945 23.1485V0.852404H191.083V4.80445H179.721V9.38223H189.107V13.3343H179.721V19.1965H191.083V23.1485H174.945Z" fill="white"/>
<path d="M200.661 11.9511H204.086C207.017 11.9511 209.026 11.0289 209.026 8.52595C209.026 5.82539 207.017 4.80445 204.086 4.80445H200.661V11.9511ZM195.886 23.1485V0.852404H204.119C210.607 0.852404 213.999 3.6847 213.999 8.52595C213.999 11.6876 212.451 13.96 209.422 15.0798L213.999 23.1485H208.598L204.481 15.9031H200.661V23.1485H195.886Z" fill="white"/>
<path d="M0 23.1485V0.852404H4.77538V9.38223H14.4908V0.852404H19.2662V23.1485H14.4908V13.3343H4.77538V23.1485H0Z" fill="#FEBE2A"/>
<path d="M25.0573 23.1485V0.852404H29.8326V23.1485H25.0573Z" fill="#FEBE2A"/>
<path d="M34.6357 11.8193C34.6357 4.31044 39.0817 0.358398 45.8331 0.358398C52.9139 0.358398 55.6803 4.34337 55.6803 8.32835H50.8391C50.8391 6.08886 49.3571 4.31044 45.8661 4.31044C42.7044 4.31044 39.7733 6.35233 39.7733 11.8193C39.7733 17.2863 42.7045 19.6905 46.1954 19.6905C49.3571 19.6905 51.6295 18.0438 52.354 15.0798H45.5038V11.1277H57.0306V13.4331C57.0306 19.3611 53.2432 23.6425 46.1625 23.6425C39.0817 23.6425 34.6357 19.3282 34.6357 11.8193Z" fill="#FEBE2A"/>
<path d="M61.175 23.1485V0.852404H65.9504V9.38223H75.6658V0.852404H80.4412V23.1485H75.6658V13.3343H65.9504V23.1485H61.175Z" fill="#FEBE2A"/>
</svg>
