<svg width="101" height="36" viewBox="0 0 101 36" fill="none" xmlns="http://www.w3.org/2000/svg">
<path d="M0 27.6018L15.1807 10.8374L13.9893 16.1416L5.88014 0.5H15.5651L20.2538 10.1405L16.3337 10.2179L24.6351 0.5H34.8581L20.6766 16.2577L20.984 11.1084L29.8234 27.6018H20.0232L15.1423 17.458L19.2546 17.5354L10.8379 27.6018H0Z" fill="#FE7801"/>
<path d="M33.4997 35.5C32.3468 35.5 31.2066 35.3322 30.0793 34.9967C28.9263 34.6611 28.0039 34.2223 27.3121 33.6803L31.0785 27.6018C31.5141 27.9373 32.0009 28.2083 32.5389 28.4148C33.077 28.6213 33.6406 28.7246 34.2299 28.7246C34.9217 28.7246 35.4854 28.5568 35.921 28.2212C36.3565 27.9115 36.7665 27.434 37.1508 26.7887L38.4959 24.5431L39.1493 23.6914L49.1801 6.42367H57.6736L44.7604 28.0277C43.6074 29.9635 42.4801 31.4735 41.3783 32.5575C40.2766 33.6416 39.0852 34.403 37.8041 34.8418C36.5487 35.2806 35.1139 35.5 33.4997 35.5ZM36.5359 28.5697L31.7703 6.42367H40.4175L43.5305 22.917L36.5359 28.5697Z" fill="white"/>
<path d="M66.74 27.9889C64.4341 27.9889 62.41 27.5889 60.6677 26.7887C58.9511 25.9886 57.606 24.8529 56.6324 23.3816C55.6587 21.9104 55.1719 20.181 55.1719 18.1936C55.1719 15.8706 55.71 13.7928 56.7861 11.9602C57.8622 10.1276 59.3739 8.68215 61.3211 7.62389C63.2939 6.56563 65.5871 6.0365 68.2005 6.0365C70.4552 6.0365 72.3768 6.43658 73.9653 7.23673C75.5538 8.03687 76.7709 9.13385 77.6164 10.5277C78.4619 11.9215 78.8846 13.5347 78.8846 15.3673C78.8846 16.0125 78.8334 16.6449 78.7309 17.2644C78.654 17.8839 78.5516 18.4775 78.4234 19.0454H62.0897L62.8968 14.8252H74.4265L70.8139 15.948C71.0188 15.1221 71.006 14.4251 70.7754 13.8573C70.5704 13.2636 70.2118 12.8119 69.6993 12.5022C69.1869 12.1667 68.5592 11.9989 67.8161 11.9989C66.7657 11.9989 65.933 12.2828 65.318 12.8507C64.7031 13.4185 64.2548 14.1541 63.9729 15.0575C63.7167 15.9609 63.5886 16.903 63.5886 17.8839C63.5886 19.2002 63.9345 20.1423 64.6263 20.7102C65.3437 21.2522 66.3813 21.5232 67.7393 21.5232C68.5335 21.5232 69.3278 21.4071 70.1221 21.1748C70.9163 20.9167 71.6466 20.5424 72.3127 20.052L75.9253 25.3562C74.4905 26.337 72.9917 27.021 71.4288 27.4082C69.8915 27.7954 68.3286 27.9889 66.74 27.9889Z" fill="white"/>
<path d="M87.8946 27.9889C86.0242 27.9889 84.2435 27.8083 82.5525 27.4469C80.8871 27.0597 79.5932 26.5951 78.6709 26.0531L81.6686 20.0907C82.7191 20.736 83.8976 21.2264 85.2043 21.5619C86.5367 21.8717 87.7921 22.0265 88.9707 22.0265C89.9443 22.0265 90.6105 21.9362 90.9692 21.7555C91.3535 21.549 91.5457 21.3038 91.5457 21.0199C91.5457 20.7102 91.2895 20.4908 90.777 20.3617C90.2646 20.2069 89.5984 20.0778 88.7785 19.9746C87.9843 19.8713 87.1388 19.7164 86.242 19.51C85.3453 19.3035 84.4869 19.0066 83.667 18.6195C82.8728 18.2065 82.2194 17.6386 81.707 16.9159C81.1946 16.1932 80.9384 15.2382 80.9384 14.0509C80.9384 12.2183 81.4636 10.7212 82.5141 9.55974C83.5902 8.37242 85.025 7.49484 86.8185 6.92699C88.612 6.33333 90.5977 6.0365 92.7755 6.0365C94.3128 6.0365 95.786 6.17847 97.1952 6.46239C98.63 6.7205 99.8983 7.10767 101 7.62389L98.0023 13.5863C96.9006 12.941 95.7988 12.5151 94.6971 12.3086C93.621 12.1021 92.6346 11.9989 91.7378 11.9989C90.7386 11.9989 90.0468 12.115 89.6625 12.3473C89.2782 12.5538 89.086 12.7861 89.086 13.0442C89.086 13.354 89.3422 13.5863 89.8546 13.7412C90.3671 13.896 91.0204 14.038 91.8147 14.167C92.609 14.2703 93.4545 14.4251 94.3512 14.6316C95.2736 14.8123 96.1319 15.1091 96.9262 15.5221C97.7205 15.9093 98.3738 16.4642 98.8862 17.1869C99.3987 17.9097 99.6549 18.8647 99.6549 20.052C99.6549 21.8072 99.1168 23.2784 98.0407 24.4657C96.9902 25.653 95.5682 26.5435 93.7747 27.1372C92.0069 27.705 90.0468 27.9889 87.8946 27.9889Z" fill="white"/>
</svg>
