<svg width="93" height="22" viewBox="0 0 93 22" fill="none" xmlns="http://www.w3.org/2000/svg">
<path d="M11.2175 14.8031L5.02459e-06 14.7857L0.400386 12.5226L0.800767 10.2596L11.409 10.2944C11.8732 10.2596 12.2678 10.1436 12.5927 9.94627C12.9177 9.74898 13.1788 9.48206 13.3761 9.14551C13.585 8.80896 13.7358 8.43179 13.8287 8.014C13.8983 7.66584 13.9389 7.30028 13.9505 6.91731C13.9737 6.53433 13.9041 6.19778 13.7416 5.90765C13.5908 5.61752 13.289 5.44924 12.8364 5.40282L10.5908 5.38542L7.85777 21.1395H2.25245L5.76883 0.859375L12.9931 0.876783C14.3393 0.923204 15.5056 1.25395 16.4921 1.86903C17.4901 2.48411 18.2445 3.31968 18.7551 4.37576C19.2657 5.42023 19.4804 6.61557 19.3992 7.96178C19.318 9.05267 19.0452 10.0275 18.581 10.8863C18.1284 11.7335 17.5191 12.4472 16.7532 13.0275C15.9989 13.6077 15.1459 14.0487 14.1942 14.3505C13.2426 14.6522 12.2503 14.8031 11.2175 14.8031Z" fill="white"/>
<path d="M26.1883 0.859375H30.4184L30.8884 13.7412L35.8149 0.859375H40.4105L31.6021 21.1395H27.9465L26.1883 0.859375ZM23.1071 0.859375H27.7898L25.7357 18.2672L25.2482 21.1395H19.5907L23.1071 0.859375ZM38.6001 0.859375H43.335L39.8013 21.1395H34.1959L34.7704 17.745L38.6001 0.859375Z" fill="white"/>
<path d="M51.8127 12.9578H47.0603L47.687 9.24996L51.4297 9.26737C51.8707 9.25576 52.2363 9.16872 52.5264 9.00625C52.8281 8.84378 53.066 8.61747 53.2401 8.32734C53.4258 8.03721 53.5535 7.68906 53.6231 7.28287C53.7043 6.96953 53.7624 6.6736 53.7972 6.39507C53.832 6.11655 53.7914 5.89024 53.6753 5.71617C53.5593 5.53048 53.3039 5.42603 52.9094 5.40282L50.6289 5.38542L47.8959 21.1395H42.2906L45.807 0.859375L52.4916 0.876783C53.3852 0.888388 54.244 0.998638 55.0679 1.20753C55.9035 1.40482 56.6521 1.71816 57.3135 2.14756C57.9867 2.56534 58.5089 3.1224 58.8803 3.81871C59.2516 4.50342 59.4199 5.3506 59.3851 6.36026C59.3387 7.53238 59.0543 8.48982 58.5321 9.23255C58.0099 9.97529 57.3077 10.5207 56.4258 10.8689C55.5554 11.2054 54.5689 11.3795 53.4664 11.3911L51.8127 12.9578ZM50.2808 21.1395H44.3099L46.7818 16.6309L50.4375 16.6483C50.8204 16.6251 51.1628 16.5322 51.4645 16.3698C51.7779 16.2073 52.0332 15.9868 52.2305 15.7083C52.4394 15.4297 52.5844 15.1048 52.6657 14.7334C52.7353 14.4433 52.7701 14.1706 52.7701 13.9153C52.7701 13.6483 52.7005 13.4336 52.5612 13.2712C52.4219 13.0971 52.184 12.9985 51.8475 12.9752L47.7392 12.9578L48.4007 9.24996L52.4045 9.26737L53.449 10.7818C54.3774 10.7586 55.1956 10.9095 55.9035 11.2345C56.623 11.5594 57.1743 12.0584 57.5573 12.7315C57.9518 13.393 58.1375 14.2112 58.1143 15.186C58.0679 16.3117 57.8184 17.2634 57.3658 18.0409C56.9248 18.8069 56.3445 19.4219 55.625 19.8862C54.9055 20.3388 54.0815 20.6637 53.1531 20.861C52.2363 21.0583 51.2788 21.1511 50.2808 21.1395Z" fill="url(#paint0_linear_4346_7706)"/>
<path d="M73.1197 16.6309L72.3189 21.1395H62.9189L63.7196 16.6309H73.1197ZM68.5936 0.859375L65.06 21.1395H59.4547L62.9711 0.859375H68.5936ZM73.346 8.39697L72.5626 12.923H64.3637L65.147 8.39697H73.346ZM75.9049 0.859375L75.1216 5.38542H65.6692L66.4699 0.859375H75.9049Z" fill="url(#paint1_linear_4346_7706)"/>
<path d="M87.4811 0.859375L83.9473 21.1395H78.3072L81.8236 0.859375H87.4811ZM92.4946 0.859375L91.7113 5.38542H76.2009L76.9842 0.859375H92.4946Z" fill="url(#paint2_linear_4346_7706)"/>
<defs>
<linearGradient id="paint0_linear_4346_7706" x1="92.4946" y1="10.9999" x2="46.5209" y2="10.9999" gradientUnits="userSpaceOnUse">
<stop stop-color="#22AD40"/>
<stop offset="1" stop-color="#6CFF89"/>
</linearGradient>
<linearGradient id="paint1_linear_4346_7706" x1="92.4946" y1="10.9999" x2="46.5209" y2="10.9999" gradientUnits="userSpaceOnUse">
<stop stop-color="#22AD40"/>
<stop offset="1" stop-color="#6CFF89"/>
</linearGradient>
<linearGradient id="paint2_linear_4346_7706" x1="92.4946" y1="10.9999" x2="46.5209" y2="10.9999" gradientUnits="userSpaceOnUse">
<stop stop-color="#22AD40"/>
<stop offset="1" stop-color="#6CFF89"/>
</linearGradient>
</defs>
</svg>
