<svg width="78" height="48" viewBox="0 0 78 48" fill="none" xmlns="http://www.w3.org/2000/svg">
<g clip-path="url(#clip0_255_19893)">
<path d="M7.72123 0.382812C10.3586 0.382812 12.3127 1.08233 13.5837 2.48135C14.8864 3.88037 15.5378 5.9312 15.5378 8.63387V12.974C15.5378 15.6767 14.8864 17.7275 13.5837 19.1265C12.3127 20.5256 10.3586 21.2251 7.72123 21.2251H5.24282V33.7686H0V0.382812H7.72123ZM5.24282 5.15221V16.4557H7.72123C8.54736 16.4557 9.18287 16.2331 9.62774 15.788C10.0726 15.3428 10.295 14.5161 10.295 13.3079V8.30002C10.295 7.09174 10.0726 6.26505 9.62774 5.81995C9.18287 5.37478 8.54736 5.15221 7.72123 5.15221H5.24282Z" fill="white"/>
<path d="M36.6038 33.7686H31.3133L30.4077 27.7115H23.9734L23.0678 33.7686H18.2539L23.592 0.382812H31.2656L36.6038 33.7686ZM24.6406 23.1805H29.6928L27.1667 6.29686L24.6406 23.1805Z" fill="white"/>
<path d="M51.6732 33.7686C51.6096 33.546 51.5461 33.3393 51.4826 33.1486C51.419 32.9578 51.3555 32.7193 51.2919 32.4332C51.2601 32.147 51.2284 31.7813 51.1966 31.3362C51.1966 30.8911 51.1966 30.3346 51.1966 29.6669V24.4206C51.1966 22.8626 50.9265 21.7656 50.3863 21.1297C49.8462 20.4938 48.9724 20.1758 47.7649 20.1758H45.9538V33.7686H40.7109V0.382812H48.6228C51.3554 0.382812 53.3255 1.01873 54.5329 2.29057C55.7724 3.56241 56.3919 5.48607 56.3919 8.06154V10.6847C56.3919 14.1187 55.2479 16.3762 52.9601 17.4573C54.2946 17.9978 55.2002 18.8881 55.6767 20.1281C56.185 21.3364 56.4395 22.8149 56.4395 24.5637V29.7146C56.4395 30.5413 56.471 31.2726 56.5346 31.9085C56.5983 32.5127 56.757 33.1327 57.0115 33.7686H51.6732ZM45.9538 5.15221V15.4064H48.0032C48.9882 15.4064 49.7509 15.1521 50.291 14.6433C50.8629 14.1346 51.1489 13.2125 51.1489 11.8771V8.58619C51.1489 7.3779 50.9265 6.50353 50.4817 5.96301C50.0686 5.42248 49.4013 5.15221 48.4798 5.15221H45.9538Z" fill="white"/>
<path d="M61.1289 8.39413C61.1289 5.69145 61.8121 3.62474 63.1785 2.19392C64.5449 0.731308 66.5148 0 69.0882 0C71.6622 0 73.6321 0.731308 74.9985 2.19392C76.3649 3.62474 77.0481 5.69145 77.0481 8.39413V25.7548C77.0481 27.6307 76.7145 29.1887 76.0468 30.4287C76.1741 30.7467 76.3328 30.9534 76.5237 31.0488C76.7461 31.1124 77.0796 31.1442 77.5244 31.1442H78.0012V35.8182H77.2865C76.1104 35.8182 75.1418 35.6115 74.3789 35.1981C73.6482 34.8166 73.1077 34.2602 72.7586 33.5289C72.2182 33.7196 71.6462 33.8627 71.0427 33.9581C70.4391 34.0853 69.7875 34.1489 69.0882 34.1489C66.5148 34.1489 64.5449 33.4335 63.1785 32.0027C61.8121 30.54 61.1289 28.4574 61.1289 25.7548V8.39413ZM66.3715 26.0886C66.3715 27.2968 66.6099 28.1553 67.0868 28.6641C67.5952 29.141 68.2623 29.3795 69.0882 29.3795C69.9147 29.3795 70.5658 29.141 71.0427 28.6641C71.551 28.1553 71.8049 27.2968 71.8049 26.0886V8.06028C71.8049 6.85205 71.551 6.00943 71.0427 5.53252C70.5658 5.02376 69.9147 4.7694 69.0882 4.7694C68.2623 4.7694 67.5952 5.02376 67.0868 5.53252C66.6099 6.00943 66.3715 6.85205 66.3715 8.06028V26.0886Z" fill="white"/>
<path d="M27.0898 45.3732V41.534C27.0898 40.9579 27.225 40.497 27.4954 40.1513C27.7657 39.8056 28.1802 39.6328 28.7387 39.6328C29.2973 39.6328 29.7118 39.8056 29.9821 40.1513C30.2525 40.497 30.3877 40.9579 30.3877 41.534V42.152H29.9074V41.4974C29.9074 41.0644 29.8149 40.7205 29.6299 40.4656C29.4449 40.2107 29.1514 40.0832 28.7494 40.0832C28.3474 40.0832 28.0539 40.2107 27.8689 40.4656C27.6839 40.7205 27.5914 41.0644 27.5914 41.4974V45.4046C27.5914 45.8376 27.6839 46.1798 27.8689 46.4311C28.0539 46.6826 28.3474 46.8083 28.7494 46.8083C29.1514 46.8083 29.4449 46.6826 29.6299 46.4311C29.8149 46.1798 29.9074 45.8376 29.9074 45.4046V44.5142H30.3877V45.3732C30.3877 45.9493 30.2525 46.4102 29.9821 46.7559C29.7118 47.0981 29.2973 47.2692 28.7387 47.2692C28.1802 47.2692 27.7657 47.0981 27.4954 46.7559C27.225 46.4102 27.0898 45.9493 27.0898 45.3732Z" fill="white"/>
<path d="M31.4805 47.2086L33.1561 39.6875H33.8871L35.5894 47.2086H35.0878L34.7089 45.5483H32.3236L31.9394 47.2086H31.4805ZM32.3983 45.1188H34.6289L33.5029 40.2584L32.3983 45.1188Z" fill="white"/>
<path d="M36.668 45.3941V45.0066H37.1483V45.4256C37.1483 45.8551 37.2407 46.1937 37.4257 46.4417C37.6107 46.6861 37.9042 46.8083 38.3062 46.8083C38.7082 46.8083 39.0017 46.6861 39.1867 46.4417C39.3717 46.1937 39.4642 45.8551 39.4642 45.4256C39.4642 45.1812 39.4126 44.9577 39.3095 44.7551C39.2098 44.5491 39.0782 44.3711 38.9145 44.2209C38.7509 44.0708 38.5713 43.9259 38.3756 43.7862C38.18 43.643 37.9842 43.4981 37.7886 43.3515C37.5929 43.2013 37.4133 43.0442 37.2497 42.8801C37.086 42.7125 36.9526 42.5117 36.8494 42.2778C36.7498 42.0404 36.7 41.7802 36.7 41.4974C36.7 40.9143 36.8334 40.4586 37.1002 40.1304C37.3706 39.8021 37.7797 39.6363 38.3275 39.6328C38.7011 39.6328 39.0124 39.7166 39.2614 39.8842C39.5104 40.0483 39.6883 40.2683 39.7951 40.5441C39.9018 40.8165 39.9551 41.1395 39.9551 41.5131V41.6702H39.4749V41.4764C39.4749 41.0504 39.3841 40.7118 39.2027 40.4603C39.0213 40.209 38.7331 40.0832 38.3382 40.0832C37.9434 40.0832 37.6552 40.2072 37.4737 40.4551C37.2923 40.703 37.2016 41.04 37.2016 41.466C37.2016 41.7104 37.2514 41.9374 37.351 42.1468C37.4542 42.3529 37.5876 42.5327 37.7512 42.6863C37.9149 42.8365 38.0945 42.9831 38.2902 43.1263C38.4859 43.266 38.6815 43.4108 38.8772 43.561C39.0729 43.7076 39.2525 43.863 39.4162 44.0271C39.5798 44.1912 39.7115 44.3903 39.811 44.6242C39.9142 44.8582 39.9658 45.1148 39.9658 45.3941C39.9658 45.9667 39.8306 46.4224 39.5603 46.7611C39.2899 47.0998 38.8754 47.2692 38.3169 47.2692C37.7584 47.2692 37.3439 47.0998 37.0735 46.7611C36.8032 46.4224 36.668 45.9667 36.668 45.3941Z" fill="white"/>
<path d="M41.1602 47.206V39.6953H41.6618V47.206H41.1602Z" fill="white"/>
<path d="M42.9219 47.206V39.6953H43.5782L45.8728 46.038V39.6953H46.3317V47.206H45.7715L43.3808 40.5124V47.206H42.9219Z" fill="white"/>
<path d="M47.5391 45.3732V41.534C47.5391 40.9579 47.6778 40.497 47.9553 40.1513C48.2364 39.8056 48.6544 39.6328 49.2093 39.6328C49.775 39.6328 50.1983 39.8056 50.4794 40.1513C50.764 40.497 50.9063 40.9579 50.9063 41.534V45.3732C50.9063 45.9493 50.764 46.4102 50.4794 46.7559C50.1983 47.0981 49.775 47.2692 49.2093 47.2692C48.6544 47.2692 48.2364 47.0981 47.9553 46.7559C47.6778 46.4102 47.5391 45.9493 47.5391 45.3732ZM48.0407 45.4046C48.0407 45.8411 48.135 46.1868 48.3235 46.4417C48.5121 46.693 48.8073 46.8187 49.2093 46.8187C49.6185 46.8187 49.9191 46.6913 50.1112 46.4364C50.3033 46.1815 50.3993 45.8376 50.3993 45.4046V41.4974C50.3993 41.0644 50.3033 40.7205 50.1112 40.4656C49.9191 40.2107 49.6185 40.0832 49.2093 40.0832C48.8073 40.0832 48.5121 40.2107 48.3235 40.4656C48.135 40.717 48.0407 41.0609 48.0407 41.4974V45.4046Z" fill="white"/>
<path d="M0 42.8984H22.7273" stroke="white" stroke-width="1.10638"/>
<path d="M55.2734 42.8984H78.0007" stroke="white" stroke-width="1.10638"/>
</g>
<defs>
<clipPath id="clip0_255_19893">
<rect width="78" height="47.5745" fill="white"/>
</clipPath>
</defs>
</svg>
