<svg width="74" height="40" viewBox="0 0 74 40" fill="none" xmlns="http://www.w3.org/2000/svg">
<path d="M0 39.573V16.6163C2.25557 16.5214 4.11593 16.7965 5.58109 17.4417C7.04624 18.0869 8.13547 19.0168 8.84877 20.2313C9.57171 21.4363 9.93318 22.85 9.93318 24.4725C9.93318 25.8768 9.66328 27.134 9.12349 28.2441C8.59333 29.3447 7.78364 30.2366 6.69441 30.9198L10.7718 39.573H7.67761L4.32317 31.9303C3.83157 32.0631 3.30624 32.1627 2.74717 32.2291V39.573H0ZM2.74717 29.5392C4.0099 29.4349 5.04611 28.9699 5.8558 28.1445C6.67513 27.3095 7.0848 26.0855 7.0848 24.4725C7.0848 22.8595 6.67513 21.6403 5.8558 20.8148C5.04611 19.9798 4.0099 19.5102 2.74717 19.4058V29.5392Z" fill="white"/>
<path d="M13.5623 39.573V16.9009H21.4713V19.4058H16.3095V28.116H20.7339V30.6209H16.3095V37.0681H21.4713V39.573H13.5623Z" fill="white"/>
<path d="M34.8456 39.8292C32.7057 39.9051 30.7924 39.5493 29.1055 38.7618C27.4283 37.9648 26.1029 36.6696 25.1293 34.8764C24.1654 33.0831 23.6835 30.73 23.6835 27.8171C23.6835 25.4356 24.0353 23.4146 24.739 21.7541C25.4426 20.0937 26.4017 18.827 27.6163 17.9541C28.8308 17.0812 30.2092 16.6447 31.7515 16.6447C32.3298 16.6447 32.86 16.6922 33.3419 16.787C33.8335 16.8819 34.3733 17.029 34.9613 17.2283L33.7323 19.477C33.4624 19.4011 33.1491 19.3441 32.7925 19.3062C32.4358 19.2587 32.1081 19.235 31.8093 19.235C30.8743 19.235 30.002 19.5671 29.1923 20.2313C28.3826 20.886 27.7271 21.8538 27.2259 23.1347C26.7343 24.4061 26.4885 25.9764 26.4885 27.8456C26.4885 30.0184 26.7295 31.7642 27.2114 33.0831C27.6934 34.3925 28.3585 35.3745 29.2067 36.0292C30.055 36.6744 31.0237 37.0919 32.1129 37.2816V30.4216H30.855V28.0306H34.8601V30.4216H34.8456V39.8292Z" fill="white"/>
<path d="M38.4603 39.573V16.9009H46.3693V19.4058H41.2075V28.116H45.6319V30.6209H41.2075V37.0681H46.3693V39.573H38.4603Z" fill="white"/>
<path d="M49.6803 39.573V16.2035H49.7671L56.9242 27.9167L58.9918 31.6741L58.6303 27.9594V16.9009H61.3486V40H61.2618L54.0903 28.2441L52.0516 24.9137L52.4275 28.2441V39.573H49.6803Z" fill="white"/>
<path d="M67.5658 39.573V19.4058H63.8789V16.9009H74V19.4058H70.313V39.573H67.5658Z" fill="white"/>
<path d="M28.8019 11.4713C28.2573 11.4713 27.7681 11.3266 27.3343 11.0372C26.9005 10.7478 26.5584 10.3137 26.3077 9.73492C26.0571 9.15614 25.9318 8.43029 25.9318 7.55737C25.9318 6.68446 26.0571 5.95861 26.3077 5.37983C26.5584 4.80104 26.9005 4.36696 27.3343 4.07757C27.7681 3.78818 28.2573 3.64348 28.8019 3.64348C29.1007 3.64348 29.3899 3.68855 29.6694 3.77869C29.9489 3.86883 30.1947 3.97557 30.4068 4.09891L29.8501 5.20192C29.7152 5.12127 29.5537 5.05011 29.3658 4.98844C29.1826 4.92202 28.9947 4.88881 28.8019 4.88881C28.5464 4.88881 28.3006 4.97658 28.0645 5.15211C27.8283 5.32764 27.6355 5.60992 27.4861 5.99893C27.3415 6.38795 27.2692 6.90743 27.2692 7.55737C27.2692 8.20257 27.3415 8.72205 27.4861 9.11582C27.6355 9.50483 27.8283 9.78711 28.0645 9.96264C28.3006 10.1382 28.5464 10.2259 28.8019 10.2259C28.9947 10.2259 29.1826 10.1951 29.3658 10.1334C29.5537 10.067 29.7152 9.99348 29.8501 9.91283L30.4068 11.0158C30.1947 11.1392 29.9489 11.2459 29.6694 11.3361C29.3899 11.4262 29.1007 11.4713 28.8019 11.4713Z" fill="white"/>
<path d="M31.4406 11.3361V0H32.7491V11.3361H31.4406Z" fill="white"/>
<path d="M36.5518 11.4642C35.9397 11.4642 35.4192 11.2554 34.9902 10.8379C34.5613 10.4204 34.3468 9.81083 34.3468 9.00907V3.77869H35.6553V8.86675C35.6553 9.36488 35.7565 9.7112 35.959 9.90571C36.1662 10.0955 36.4674 10.1904 36.8626 10.1904C37.1325 10.1904 37.3735 10.1358 37.5856 10.0267C37.8025 9.91757 37.9832 9.77288 38.1278 9.5926V3.77869H39.4435V11.3361H38.6266L38.3085 10.7597C38.0916 10.9589 37.8314 11.1273 37.5277 11.2649C37.2289 11.3977 36.9036 11.4642 36.5518 11.4642Z" fill="white"/>
<path d="M41.0412 11.4713V0H42.3425V3.99929C42.6943 3.76208 43.0896 3.64348 43.5281 3.64348C44.0342 3.64348 44.4993 3.77394 44.9234 4.03487C45.3524 4.2958 45.6945 4.70853 45.95 5.27308C46.2102 5.83289 46.3404 6.5706 46.3404 7.48621C46.3404 8.39708 46.2102 9.14665 45.95 9.73492C45.6945 10.3232 45.3524 10.7597 44.9234 11.0443C44.4993 11.3289 44.0342 11.4713 43.5281 11.4713C42.9739 11.4713 42.4992 11.291 42.1039 10.9304L41.7497 11.4713H41.0412ZM43.4414 4.839C42.998 4.839 42.6317 5.00267 42.3425 5.33001V9.78474C42.6317 10.1121 42.998 10.2758 43.4414 10.2758C43.7113 10.2758 43.9643 10.1904 44.2005 10.0196C44.4366 9.84878 44.6294 9.56176 44.7788 9.15851C44.9282 8.75052 45.0029 8.19309 45.0029 7.48621C45.0029 6.77934 44.9282 6.23614 44.7788 5.85661C44.6294 5.47234 44.4366 5.20667 44.2005 5.0596C43.9643 4.91253 43.7113 4.839 43.4414 4.839Z" fill="white"/>
</svg>
