<svg width="136" height="48" viewBox="0 0 136 48" fill="none" xmlns="http://www.w3.org/2000/svg">
<path d="M37.5037 41.1261V42.6663H33.4914V41.1261H37.5037ZM36.0281 42.6663L36.3431 41.4904C37.1942 41.4904 37.9016 41.6063 38.4653 41.8382C39.0401 42.07 39.4712 42.3902 39.7586 42.7987C40.0459 43.1962 40.1896 43.6654 40.1896 44.2064C40.1896 45.2553 39.8028 46.0337 39.029 46.5416C38.2553 47.0384 37.1611 47.2868 35.7463 47.2868C35.4699 47.2868 35.166 47.2758 34.8344 47.2537C34.5138 47.2427 34.1878 47.2095 33.8562 47.1543C33.5356 47.0991 33.2372 47.0329 32.9608 46.9556C32.4192 46.7679 32.1484 46.4422 32.1484 45.9785V37.8469C32.1484 37.6482 32.2037 37.4936 32.3142 37.3832C32.4358 37.2618 32.5906 37.1735 32.7785 37.1183C33.1543 36.9968 33.5909 36.914 34.0883 36.8698C34.5857 36.8146 35.0996 36.787 35.6302 36.787C36.9566 36.787 37.9845 37.0189 38.714 37.4826C39.4435 37.9463 39.8083 38.6529 39.8083 39.6024C39.8083 40.1103 39.6646 40.5575 39.3772 40.9439C39.1009 41.3193 38.6809 41.6119 38.1172 41.8216C37.5645 42.0314 36.8682 42.1363 36.0281 42.1363L35.8955 41.1261C36.5034 41.1261 36.9566 41.0046 37.255 40.7617C37.5534 40.5188 37.7027 40.1766 37.7027 39.7349C37.7027 39.3043 37.5313 38.9786 37.1887 38.7578C36.846 38.526 36.3321 38.41 35.6468 38.41C35.3704 38.41 35.1052 38.4211 34.8509 38.4431C34.5967 38.4652 34.3812 38.4928 34.2043 38.526V45.4982C34.4143 45.5534 34.6686 45.5921 34.967 45.6141C35.2654 45.6362 35.5583 45.6473 35.8457 45.6473C36.531 45.6473 37.0671 45.5258 37.454 45.2829C37.8519 45.029 38.0508 44.6426 38.0508 44.1236C38.0508 43.6489 37.8795 43.2901 37.5369 43.0472C37.1942 42.7932 36.6913 42.6663 36.0281 42.6663Z" fill="white"/>
<path d="M51.752 42.0369C51.752 43.1852 51.5309 44.1512 51.0888 44.9351C50.6577 45.719 50.0608 46.3152 49.2982 46.7237C48.5465 47.1212 47.6899 47.3199 46.7283 47.3199C45.7777 47.3199 44.9211 47.1212 44.1584 46.7237C43.4068 46.3152 42.8099 45.719 42.3678 44.9351C41.9367 44.1512 41.7212 43.1852 41.7212 42.0369C41.7212 40.8887 41.9423 39.9226 42.3844 39.1387C42.8376 38.3548 43.44 37.7641 44.1916 37.3667C44.9542 36.9582 45.7998 36.7539 46.7283 36.7539C47.6789 36.7539 48.53 36.9582 49.2816 37.3667C50.0442 37.7641 50.6466 38.3548 51.0888 39.1387C51.5309 39.9226 51.752 40.8887 51.752 42.0369ZM49.6132 42.0369C49.6132 40.8776 49.3479 39.9944 48.8173 39.3871C48.2978 38.7799 47.6015 38.4763 46.7283 38.4763C45.8772 38.4763 45.1864 38.7799 44.6558 39.3871C44.1363 39.9944 43.8766 40.8776 43.8766 42.0369C43.8766 43.2072 44.1363 44.096 44.6558 44.7033C45.1753 45.3105 45.8717 45.6141 46.7449 45.6141C47.6181 45.6141 48.3144 45.3105 48.8339 44.7033C49.3534 44.096 49.6132 43.2072 49.6132 42.0369Z" fill="white"/>
<path d="M53.7961 39.2546L55.6696 39.205C55.7138 39.6245 55.747 40.0661 55.7691 40.5299C55.8022 40.9936 55.8188 41.4518 55.8188 41.9044C55.8299 42.3571 55.8354 42.7932 55.8354 43.2128V47.055C55.758 47.077 55.6254 47.0991 55.4375 47.1212C55.2606 47.1543 55.0838 47.1709 54.9069 47.1709C54.509 47.1709 54.2216 47.1046 54.0448 46.9722C53.879 46.8286 53.7961 46.5802 53.7961 46.2269V39.2546ZM62.3347 44.8026L60.4446 44.8523C60.3561 44.0022 60.3064 43.1741 60.2953 42.3681C60.2843 41.5511 60.2788 40.7617 60.2788 39.9999V37.0189C60.3782 36.9968 60.5109 36.9692 60.6767 36.9361C60.8535 36.903 61.0414 36.8864 61.2404 36.8864C61.6273 36.8864 61.9036 36.9582 62.0694 37.1017C62.2462 37.2452 62.3347 37.4881 62.3347 37.8304V44.8026ZM62.3347 44.1236V46.8065C62.202 46.917 62.0252 47.0053 61.8041 47.0715C61.583 47.1488 61.3288 47.1875 61.0414 47.1875C60.6988 47.1875 60.3893 47.1323 60.113 47.0218C59.8477 46.9114 59.6211 46.6685 59.4332 46.2931L56.996 41.9376C56.8633 41.6726 56.7196 41.3966 56.5649 41.1095C56.4212 40.8224 56.283 40.5409 56.1504 40.2649C56.0178 39.9889 55.8962 39.7349 55.7856 39.5031L53.7961 39.9668V37.3667C53.9177 37.2121 54.0945 37.0962 54.3266 37.0189C54.5698 36.9416 54.8295 36.903 55.1059 36.903C55.4375 36.903 55.7414 36.9582 56.0178 37.0686C56.2941 37.179 56.5262 37.4164 56.7141 37.7807L59.1513 42.1363C59.295 42.4013 59.4387 42.6773 59.5824 42.9644C59.7372 43.2514 59.8753 43.533 59.9969 43.809C60.1295 44.085 60.2456 44.3389 60.3451 44.5708L62.3347 44.1236Z" fill="white"/>
<path d="M68.7335 38.7247H68.6506C68.507 39.1222 68.3467 39.5748 68.1698 40.0827C68.004 40.5906 67.8272 41.1205 67.6393 41.6726C67.4514 42.2136 67.2745 42.738 67.1087 43.2459L66.8766 44.2727C66.8103 44.4825 66.7384 44.7143 66.6611 44.9683C66.5948 45.2222 66.5174 45.4817 66.429 45.7466C66.3516 46.0006 66.2742 46.2435 66.1968 46.4753C66.1305 46.7072 66.0697 46.9114 66.0145 47.0881C65.9039 47.1212 65.7823 47.1488 65.6497 47.1709C65.5281 47.204 65.3789 47.2206 65.2021 47.2206C64.8484 47.2206 64.5665 47.1543 64.3565 47.0218C64.1575 46.8783 64.058 46.6685 64.058 46.3925C64.058 46.2711 64.0746 46.1441 64.1078 46.0116C64.152 45.8791 64.1962 45.7301 64.2404 45.5645C64.351 45.2001 64.5002 44.7474 64.6881 44.2064C64.876 43.6544 65.0805 43.0582 65.3015 42.4178C65.5226 41.7775 65.7492 41.1316 65.9813 40.4802C66.2245 39.8288 66.4511 39.2215 66.6611 38.6584C66.8711 38.0843 67.0535 37.604 67.2082 37.2176C67.3408 37.1403 67.5453 37.0686 67.8217 37.0023C68.098 36.9361 68.3798 36.903 68.6672 36.903C69.043 36.903 69.3857 36.9582 69.6952 37.0686C70.0157 37.179 70.2147 37.3556 70.292 37.5985C70.5242 38.2058 70.7729 38.9013 71.0381 39.6852C71.3034 40.4691 71.5742 41.2862 71.8505 42.1363C72.1269 42.9864 72.3922 43.8145 72.6464 44.6205C72.9006 45.4264 73.1272 46.1551 73.3261 46.8065C73.2156 46.928 73.0609 47.0274 72.8619 47.1046C72.674 47.1819 72.4529 47.2206 72.1987 47.2206C71.834 47.2206 71.5687 47.1543 71.4029 47.0218C71.2481 46.8783 71.1266 46.663 71.0381 46.376L70.3584 44.2064L70.1428 43.1465C69.966 42.5834 69.7891 42.0314 69.6123 41.4904C69.4465 40.9384 69.2862 40.425 69.1315 39.9502C68.9767 39.4755 68.8441 39.067 68.7335 38.7247ZM65.9481 44.6702L66.7274 43.0306H70.8723L71.1874 44.6702H65.9481Z" fill="white"/>
<path d="M74.9903 39.2546L76.8639 39.205C76.9081 39.6245 76.9412 40.0661 76.9633 40.5299C76.9965 40.9936 77.0131 41.4518 77.0131 41.9044C77.0241 42.3571 77.0297 42.7932 77.0297 43.2128V47.055C76.9523 47.077 76.8196 47.0991 76.6317 47.1212C76.4549 47.1543 76.278 47.1709 76.1012 47.1709C75.7033 47.1709 75.4159 47.1046 75.239 46.9722C75.0732 46.8286 74.9903 46.5802 74.9903 46.2269V39.2546ZM83.5289 44.8026L81.6388 44.8523C81.5504 44.0022 81.5007 43.1741 81.4896 42.3681C81.4786 41.5511 81.473 40.7617 81.473 39.9999V37.0189C81.5725 36.9968 81.7052 36.9692 81.871 36.9361C82.0478 36.903 82.2357 36.8864 82.4347 36.8864C82.8215 36.8864 83.0979 36.9582 83.2637 37.1017C83.4405 37.2452 83.5289 37.4881 83.5289 37.8304V44.8026ZM83.5289 44.1236V46.8065C83.3963 46.917 83.2194 47.0053 82.9984 47.0715C82.7773 47.1488 82.5231 47.1875 82.2357 47.1875C81.8931 47.1875 81.5836 47.1323 81.3072 47.0218C81.042 46.9114 80.8154 46.6685 80.6275 46.2931L78.1902 41.9376C78.0576 41.6726 77.9139 41.3966 77.7592 41.1095C77.6155 40.8224 77.4773 40.5409 77.3447 40.2649C77.212 39.9889 77.0905 39.7349 76.9799 39.5031L74.9903 39.9668V37.3667C75.1119 37.2121 75.2888 37.0962 75.5209 37.0189C75.7641 36.9416 76.0238 36.903 76.3001 36.903C76.6317 36.903 76.9357 36.9582 77.212 37.0686C77.4884 37.179 77.7205 37.4164 77.9084 37.7807L80.3456 42.1363C80.4893 42.4013 80.633 42.6773 80.7767 42.9644C80.9314 43.2514 81.0696 43.533 81.1912 43.809C81.3238 44.085 81.4399 44.3389 81.5394 44.5708L83.5289 44.1236Z" fill="white"/>
<path d="M86.0316 44.7861L92.0998 37.0023H92.7795C93.1222 37.2783 93.2935 37.6372 93.2935 38.0788C93.2935 38.2996 93.2438 38.5094 93.1443 38.7081C93.0559 38.8958 92.9343 39.0835 92.7795 39.2712L86.7445 47.0715H85.9818C85.8492 46.9611 85.7331 46.8121 85.6337 46.6244C85.5452 46.4367 85.501 46.2324 85.501 46.0116C85.501 45.7908 85.5508 45.581 85.6502 45.3823C85.7608 45.1725 85.8879 44.9738 86.0316 44.7861ZM86.3134 47.0715L87.0761 45.3326H93.1775C93.2327 45.432 93.2825 45.5534 93.3267 45.6969C93.382 45.8405 93.4096 46.0006 93.4096 46.1772C93.4096 46.4753 93.3377 46.7017 93.194 46.8562C93.0614 46.9998 92.879 47.0715 92.6469 47.0715H86.3134ZM92.3651 37.0023L91.7682 38.7247H85.8824C85.8271 38.6364 85.7718 38.5204 85.7166 38.3769C85.6613 38.2334 85.6337 38.0733 85.6337 37.8966C85.6337 37.5985 85.7 37.3777 85.8326 37.2342C85.9763 37.0796 86.1697 37.0023 86.4129 37.0023H92.3651Z" fill="white"/>
<path d="M99.254 38.7247H99.1711C99.0274 39.1222 98.8671 39.5748 98.6902 40.0827C98.5244 40.5906 98.3476 41.1205 98.1597 41.6726C97.9718 42.2136 97.7949 42.738 97.6291 43.2459L97.397 44.2727C97.3307 44.4825 97.2589 44.7143 97.1815 44.9683C97.1152 45.2222 97.0378 45.4817 96.9494 45.7466C96.872 46.0006 96.7946 46.2435 96.7172 46.4753C96.6509 46.7072 96.5901 46.9114 96.5349 47.0881C96.4243 47.1212 96.3028 47.1488 96.1701 47.1709C96.0485 47.204 95.8993 47.2206 95.7225 47.2206C95.3688 47.2206 95.0869 47.1543 94.8769 47.0218C94.6779 46.8783 94.5785 46.6685 94.5785 46.3925C94.5785 46.2711 94.595 46.1441 94.6282 46.0116C94.6724 45.8791 94.7166 45.7301 94.7608 45.5645C94.8714 45.2001 95.0206 44.7474 95.2085 44.2064C95.3964 43.6544 95.6009 43.0582 95.8219 42.4178C96.043 41.7775 96.2696 41.1316 96.5017 40.4802C96.7449 39.8288 96.9715 39.2215 97.1815 38.6584C97.3915 38.0843 97.5739 37.604 97.7286 37.2176C97.8613 37.1403 98.0657 37.0686 98.3421 37.0023C98.6184 36.9361 98.9003 36.903 99.1876 36.903C99.5634 36.903 99.9061 36.9582 100.216 37.0686C100.536 37.179 100.735 37.3556 100.812 37.5985C101.045 38.2058 101.293 38.9013 101.559 39.6852C101.824 40.4691 102.095 41.2862 102.371 42.1363C102.647 42.9864 102.913 43.8145 103.167 44.6205C103.421 45.4264 103.648 46.1551 103.847 46.8065C103.736 46.928 103.581 47.0274 103.382 47.1046C103.194 47.1819 102.973 47.2206 102.719 47.2206C102.354 47.2206 102.089 47.1543 101.923 47.0218C101.769 46.8783 101.647 46.663 101.559 46.376L100.879 44.2064L100.663 43.1465C100.486 42.5834 100.31 42.0314 100.133 41.4904C99.9669 40.9384 99.8066 40.425 99.6519 39.9502C99.4971 39.4755 99.3645 39.067 99.254 38.7247ZM96.4685 44.6702L97.2478 43.0306H101.393L101.708 44.6702H96.4685Z" fill="white"/>
<path d="M3.00248 33.321C1.92913 33.321 0.928301 33.2342 0 33.0606C1.39245 27.9965 2.49481 22.9036 3.30707 17.7817C4.14835 12.6308 4.94611 7.45102 5.70035 2.2423C7.20884 1.92399 8.77535 1.64909 10.3999 1.41759C12.0244 1.15715 13.7069 1.02694 15.4475 1.02694C16.4048 1.02694 17.4202 1.20056 18.4935 1.54781C19.5669 1.86612 20.4661 2.45933 21.1914 3.32745C21.9456 4.16664 22.3227 5.36754 22.3227 6.93015C22.3227 8.37702 22.0181 9.70814 21.4089 10.9235C20.7998 12.1389 20.031 13.1806 19.1027 14.0487C18.1744 14.9169 17.2171 15.539 16.2308 15.9152C16.6369 16.1178 17.1156 16.4795 17.6667 17.0003C18.2179 17.5212 18.6966 18.2157 19.1027 19.0838C19.5088 19.952 19.7119 21.0082 19.7119 22.2525C19.7119 23.9887 19.1897 25.5658 18.1454 26.9837C17.1301 28.3727 15.7666 29.5302 14.0551 30.4562C12.4015 31.3822 10.6174 32.0912 8.70283 32.5831C6.7882 33.075 4.88809 33.321 3.00248 33.321ZM10.748 12.3559C11.6473 12.1823 12.5031 11.9508 13.3153 11.6614C14.1276 11.372 14.7803 11.0393 15.2735 10.6631C15.7956 10.2869 16.0567 9.88176 16.0567 9.4477C16.0567 8.89789 15.8391 8.46383 15.404 8.14552C14.9689 7.82721 14.4467 7.59571 13.8375 7.45102C13.2283 7.30634 12.6626 7.23399 12.1404 7.23399H11.7053C11.5022 8.39149 11.3137 9.40429 11.1396 10.2724C10.9656 11.1116 10.835 11.8061 10.748 12.3559ZM8.52877 24.553C9.10896 24.4951 9.74716 24.3938 10.4434 24.2491C11.1396 24.1045 11.8068 23.8874 12.445 23.5981C13.0832 23.2797 13.6054 22.8746 14.0115 22.3827C14.4467 21.8618 14.6643 21.2397 14.6643 20.5162C14.6643 19.8217 14.4322 19.2719 13.968 18.8668C13.5039 18.4617 12.9382 18.1723 12.271 17.9987C11.6328 17.7961 11.0236 17.6948 10.4434 17.6948H10.0953C9.95023 17.6948 9.83419 17.7093 9.74716 17.7382C9.57311 18.8089 9.37004 19.9375 9.13797 21.1239C8.90589 22.3103 8.70283 23.4534 8.52877 24.553Z" fill="url(#paint0_linear_5331_15288)"/>
<path d="M18.3949 33.104C18.8881 31.3967 19.3667 29.4579 19.8309 27.2876C20.324 25.1173 20.7882 22.9036 21.2233 20.6464C21.6875 18.3604 22.1226 16.2046 22.5288 14.179C22.9059 12.327 23.2685 10.446 23.6166 8.53617C23.9647 6.62631 24.3128 4.70198 24.661 2.76317L31.4492 1.67803C31.072 3.61683 30.6949 5.54116 30.3178 7.45102C29.9407 9.33195 29.5635 11.2129 29.1864 13.0938C28.7803 15.1194 28.3597 17.2608 27.9245 19.5179C27.4894 21.775 27.0687 24.0032 26.6626 26.2024C26.2565 28.3727 25.8793 30.3983 25.5312 32.2793C25.0091 32.2793 24.3564 32.3227 23.5731 32.4095C22.7898 32.4674 22.0066 32.5542 21.2233 32.6699C20.4401 32.7567 19.7729 32.8435 19.2217 32.9303C18.6995 33.0172 18.4239 33.075 18.3949 33.104Z" fill="url(#paint1_linear_5331_15288)"/>
<path d="M37.071 34.1891C35.9976 34.1891 34.9678 33.9576 33.9815 33.4946C33.0242 33.0316 32.1974 32.3227 31.5012 31.3677C30.7759 30.4417 30.2102 29.2698 29.8041 27.8518C29.398 26.4339 29.1949 24.77 29.1949 22.8602C29.1949 19.1272 29.7316 15.8718 30.8049 13.0938C31.8783 10.3158 33.2417 8.00083 34.8953 6.14884C36.5198 4.29685 38.2604 2.92233 40.117 2.02527C42.0026 1.12822 43.7576 0.679688 45.3822 0.679688C46.9487 0.679688 48.2251 1.02694 49.2114 1.72143C50.1977 2.38699 50.923 3.28405 51.3871 4.4126C51.8513 5.54116 52.0834 6.79993 52.0834 8.18892L46.1219 9.31748C45.8608 8.15999 45.5127 7.33527 45.0776 6.84334C44.6424 6.3514 44.1493 6.10544 43.5981 6.10544C42.9599 6.10544 42.2927 6.45269 41.5964 7.14718C40.9292 7.84168 40.262 8.78214 39.5948 9.96857C38.9566 11.1261 38.3764 12.4282 37.8542 13.8751C37.3321 15.322 36.8969 16.8123 36.5488 18.3459C36.2297 19.8796 36.0411 21.3265 35.9831 22.6865C35.9831 24.4806 36.2442 25.7684 36.7664 26.5497C37.3176 27.302 38.0138 27.6782 38.8551 27.6782C39.6673 27.6782 40.4651 27.4178 41.2483 26.8969C42.0606 26.376 42.7278 25.6815 43.25 24.8134C43.8012 23.9164 44.0913 22.918 44.1203 21.8184L39.4643 22.5129L40.291 18.2157L44.2943 17.6948C45.3967 17.5502 46.5571 17.3765 47.7755 17.174C49.0229 16.9714 50.1107 16.7833 51.039 16.6097C50.8359 19.5613 50.2558 22.1512 49.2984 24.3794C48.3701 26.5786 47.2098 28.4017 45.8173 29.8485C44.4249 31.2954 42.9599 32.3805 41.4224 33.104C39.9139 33.8274 38.4634 34.1891 37.071 34.1891Z" fill="url(#paint2_linear_5331_15288)"/>
<path d="M60.5397 33.321C59.4664 33.321 58.4655 33.2342 57.5372 33.0606C58.9297 27.9965 60.032 22.9036 60.8443 17.7817C61.6856 12.6308 62.4833 7.45102 63.2376 2.2423C64.7461 1.92399 66.3126 1.64909 67.9371 1.41759C69.5616 1.15715 71.2442 1.02694 72.9847 1.02694C73.9421 1.02694 74.9574 1.20056 76.0307 1.54781C77.1041 1.86612 78.0034 2.45933 78.7286 3.32745C79.4829 4.16664 79.86 5.36754 79.86 6.93015C79.86 8.37702 79.5554 9.70814 78.9462 10.9235C78.337 12.1389 77.5682 13.1806 76.6399 14.0487C75.7116 14.9169 74.7543 15.539 73.768 15.9152C74.1741 16.1178 74.6528 16.4795 75.204 17.0003C75.7551 17.5212 76.2338 18.2157 76.6399 19.0838C77.0461 19.952 77.2491 21.0082 77.2491 22.2525C77.2491 23.9887 76.727 25.5658 75.6826 26.9837C74.6673 28.3727 73.3039 29.5302 71.5923 30.4562C69.9388 31.3822 68.1547 32.0912 66.2401 32.5831C64.3254 33.075 62.4253 33.321 60.5397 33.321ZM68.2852 12.3559C69.1845 12.1823 70.0403 11.9508 70.8526 11.6614C71.6648 11.372 72.3175 11.0393 72.8107 10.6631C73.3329 10.2869 73.594 9.88176 73.594 9.4477C73.594 8.89789 73.3764 8.46383 72.9412 8.14552C72.5061 7.82721 71.9839 7.59571 71.3747 7.45102C70.7655 7.30634 70.1998 7.23399 69.6777 7.23399H69.2425C69.0395 8.39149 68.8509 9.40429 68.6769 10.2724C68.5028 11.1116 68.3723 11.8061 68.2852 12.3559ZM66.066 24.553C66.6462 24.4951 67.2844 24.3938 67.9806 24.2491C68.6768 24.1045 69.3441 23.8874 69.9823 23.5981C70.6205 23.2797 71.1426 22.8746 71.5488 22.3827C71.9839 21.8618 72.2015 21.2397 72.2015 20.5162C72.2015 19.8217 71.9694 19.2719 71.5053 18.8668C71.0411 18.4617 70.4754 18.1723 69.8082 17.9987C69.17 17.7961 68.5608 17.6948 67.9806 17.6948H67.6325C67.4875 17.6948 67.3714 17.7093 67.2844 17.7382C67.1103 18.8089 66.9073 19.9375 66.6752 21.1239C66.4431 22.3103 66.2401 23.4534 66.066 24.553Z" fill="url(#paint3_linear_5331_15288)"/>
<path d="M87.4634 33.0606C87.5214 32.5686 87.5794 32.0912 87.6374 31.6282C87.6955 31.1652 87.7535 30.7022 87.8115 30.2392L88.0726 27.8084C88.1016 27.4033 88.1306 27.0271 88.1596 26.6799C88.1886 26.3326 88.2176 26.0143 88.2467 25.725H84.4609L82.7204 31.9754C82.0822 32.0622 81.3279 32.1635 80.4576 32.2793C79.5873 32.3661 78.7751 32.4529 78.0208 32.5397C77.5567 32.5976 77.0925 32.6554 76.6284 32.7133C76.1932 32.7712 75.7436 32.8291 75.2794 32.8869L78.717 21.5146C79.1232 20.1545 79.5873 18.6064 80.1095 16.8701C80.6317 15.1339 81.1538 13.3542 81.676 11.5312C82.2272 9.70813 82.7349 8.00083 83.199 6.40928C83.6922 4.78879 84.0838 3.42873 84.3739 2.32912C86.3465 2.18443 88.3482 2.0108 90.3788 1.80824C92.4385 1.60568 94.4402 1.33078 96.3838 0.983528C96.2387 2.60402 96.0937 4.44154 95.9486 6.49609C95.8326 8.5217 95.7166 10.6197 95.6005 12.79C95.5135 14.9603 95.412 17.1016 95.2959 19.2141C95.2379 21.2107 95.1654 23.2797 95.0784 25.4211C94.9913 27.5335 94.9043 29.7038 94.8173 31.932C94.3821 31.9899 93.947 32.0478 93.5119 32.1056C93.0767 32.1635 92.6416 32.2214 92.2064 32.2793C91.4812 32.395 90.6834 32.5252 89.8132 32.6699C88.9429 32.8146 88.1596 32.9448 87.4634 33.0606ZM85.5053 21.3843C85.6793 21.3843 85.9984 21.3699 86.4626 21.3409C86.9557 21.312 87.4199 21.2831 87.855 21.2541C88.2902 21.2252 88.5512 21.2107 88.6383 21.2107C88.6383 20.8345 88.6963 20.0677 88.8123 18.9102C88.9284 17.7527 89.0444 16.5373 89.1604 15.2641C89.2185 14.5117 89.2765 13.7449 89.3345 12.9636C89.4215 12.1533 89.5086 11.3286 89.5956 10.4894L89.8567 6.71312L89.204 6.75653L88.2031 10.4894L85.5053 21.3843Z" fill="url(#paint4_linear_5331_15288)"/>
<path d="M102.247 33.2342C101.086 33.2342 99.9259 32.9303 98.7655 32.3227C97.6051 31.686 96.4883 30.6877 95.4149 29.3276L98.635 23.0338C98.9541 23.5836 99.4182 24.1045 100.027 24.5964C100.666 25.0883 101.333 25.479 102.029 25.7684C102.725 26.0577 103.32 26.2024 103.813 26.2024C104.567 26.2024 105.278 25.9709 105.945 25.5079C106.642 25.0449 106.99 24.4228 106.99 23.6415C106.99 22.6287 106.526 21.7027 105.597 20.8635C104.669 20.0243 103.625 19.1996 102.464 18.3893C101.333 17.5791 100.289 16.6676 99.3312 15.6548C98.4029 14.613 97.9387 13.4266 97.9387 12.0955C97.9387 10.5907 98.3739 9.20173 99.2442 7.92849C100.114 6.62631 101.246 5.49775 102.638 4.54282C104.031 3.55895 105.51 2.80658 107.077 2.28571C108.672 1.7359 110.181 1.461 111.602 1.461C112.618 1.461 113.56 1.63462 114.431 1.98187C115.301 2.30018 115.997 2.83552 116.519 3.58789C117.041 4.34026 117.303 5.35307 117.303 6.62631C117.303 6.82887 117.288 7.03143 117.259 7.23399C117.259 7.43655 117.245 7.63912 117.215 7.84168C117.186 8.04424 117.143 8.26127 117.085 8.49277C117.056 8.69533 117.027 8.91236 116.998 9.14386L110.688 10.9669C110.746 10.7354 110.79 10.5039 110.819 10.2724C110.877 10.0409 110.906 9.80942 110.906 9.57792C110.906 8.7098 110.746 8.08765 110.427 7.71146C110.137 7.30634 109.746 7.10378 109.252 7.10378C108.991 7.10378 108.614 7.24846 108.121 7.53784C107.628 7.79827 107.178 8.17446 106.772 8.66639C106.395 9.12939 106.206 9.65026 106.206 10.229C106.206 11.1839 106.598 11.9797 107.381 12.6163C108.194 13.224 109.122 13.8462 110.166 14.4828C110.659 14.7722 111.211 15.2352 111.82 15.8718C112.429 16.4795 112.951 17.3187 113.386 18.3893C113.85 19.4311 114.082 20.7767 114.082 22.4261C114.082 24.5675 113.546 26.4484 112.472 28.0689C111.428 29.6894 110.007 30.9626 108.208 31.8886C106.409 32.7857 104.422 33.2342 102.247 33.2342Z" fill="url(#paint5_linear_5331_15288)"/>
<path d="M120.944 33.2342C119.784 33.2342 118.623 32.9303 117.463 32.3227C116.303 31.686 115.186 30.6877 114.112 29.3276L117.332 23.0338C117.652 23.5836 118.116 24.1045 118.725 24.5964C119.363 25.0883 120.03 25.479 120.727 25.7684C121.423 26.0577 122.017 26.2024 122.511 26.2024C123.265 26.2024 123.976 25.9709 124.643 25.5079C125.339 25.0449 125.687 24.4228 125.687 23.6415C125.687 22.6287 125.223 21.7027 124.295 20.8635C123.366 20.0243 122.322 19.1996 121.162 18.3893C120.03 17.5791 118.986 16.6676 118.029 15.6548C117.1 14.613 116.636 13.4266 116.636 12.0955C116.636 10.5907 117.071 9.20173 117.942 7.92849C118.812 6.62631 119.943 5.49775 121.336 4.54282C122.728 3.55895 124.208 2.80658 125.774 2.28571C127.37 1.7359 128.878 1.461 130.3 1.461C131.315 1.461 132.258 1.63462 133.128 1.98187C133.998 2.30018 134.695 2.83552 135.217 3.58789C135.739 4.34026 136 5.35307 136 6.62631C136 6.82887 135.986 7.03143 135.956 7.23399C135.956 7.43655 135.942 7.63912 135.913 7.84168C135.884 8.04424 135.84 8.26127 135.782 8.49277C135.753 8.69533 135.724 8.91236 135.695 9.14386L129.386 10.9669C129.444 10.7354 129.487 10.5039 129.516 10.2724C129.574 10.0409 129.603 9.80942 129.603 9.57792C129.603 8.7098 129.444 8.08765 129.125 7.71146C128.835 7.30634 128.443 7.10378 127.95 7.10378C127.689 7.10378 127.312 7.24846 126.819 7.53784C126.325 7.79827 125.876 8.17446 125.47 8.66639C125.092 9.12939 124.904 9.65026 124.904 10.229C124.904 11.1839 125.296 11.9797 126.079 12.6163C126.891 13.224 127.819 13.8462 128.864 14.4828C129.357 14.7722 129.908 15.2352 130.517 15.8718C131.126 16.4795 131.649 17.3187 132.084 18.3893C132.548 19.4311 132.78 20.7767 132.78 22.4261C132.78 24.5675 132.243 26.4484 131.17 28.0689C130.126 29.6894 128.704 30.9626 126.906 31.8886C125.107 32.7857 123.12 33.2342 120.944 33.2342Z" fill="url(#paint6_linear_5331_15288)"/>
<defs>
<linearGradient id="paint0_linear_5331_15288" x1="68" y1="0.679688" x2="68" y2="34.1891" gradientUnits="userSpaceOnUse">
<stop stop-color="#FF1200"/>
<stop offset="1" stop-color="#FFF200"/>
</linearGradient>
<linearGradient id="paint1_linear_5331_15288" x1="68" y1="0.679688" x2="68" y2="34.1891" gradientUnits="userSpaceOnUse">
<stop stop-color="#FF1200"/>
<stop offset="1" stop-color="#FFF200"/>
</linearGradient>
<linearGradient id="paint2_linear_5331_15288" x1="68" y1="0.679688" x2="68" y2="34.1891" gradientUnits="userSpaceOnUse">
<stop stop-color="#FF1200"/>
<stop offset="1" stop-color="#FFF200"/>
</linearGradient>
<linearGradient id="paint3_linear_5331_15288" x1="68" y1="0.679688" x2="68" y2="34.1891" gradientUnits="userSpaceOnUse">
<stop stop-color="#FF1200"/>
<stop offset="1" stop-color="#FFF200"/>
</linearGradient>
<linearGradient id="paint4_linear_5331_15288" x1="68" y1="0.679688" x2="68" y2="34.1891" gradientUnits="userSpaceOnUse">
<stop stop-color="#FF1200"/>
<stop offset="1" stop-color="#FFF200"/>
</linearGradient>
<linearGradient id="paint5_linear_5331_15288" x1="68" y1="0.679688" x2="68" y2="34.1891" gradientUnits="userSpaceOnUse">
<stop stop-color="#FF1200"/>
<stop offset="1" stop-color="#FFF200"/>
</linearGradient>
<linearGradient id="paint6_linear_5331_15288" x1="68" y1="0.679688" x2="68" y2="34.1891" gradientUnits="userSpaceOnUse">
<stop stop-color="#FF1200"/>
<stop offset="1" stop-color="#FFF200"/>
</linearGradient>
</defs>
</svg>
