<svg width="140" height="22" viewBox="0 0 140 22" fill="none" xmlns="http://www.w3.org/2000/svg">
<path d="M0 20.9245L3.96994 1.0748H12.7889C15.4544 1.0748 17.5055 1.65139 18.9423 2.80456C20.3979 3.95773 21.1258 5.57407 21.1258 7.65356C21.1258 9.31715 20.7099 10.7823 19.8781 12.0489C19.0652 13.3155 17.9025 14.2985 16.3902 14.998C14.8967 15.6974 13.1292 16.0471 11.0875 16.0471H4.67886L8.25181 13.1264L6.69219 20.9245H0ZM8.08167 13.9204L5.72806 10.8862H11.4278C12.3541 10.8862 13.0724 10.6594 13.5829 10.2057C14.0933 9.73305 14.3485 9.08085 14.3485 8.24905C14.3485 7.53068 14.1216 7.02026 13.6679 6.71779C13.2331 6.39641 12.6282 6.23572 11.8531 6.23572H6.66383L10.2368 3.11648L8.08167 13.9204Z" fill="white"/>
<path d="M32.2462 21.3782C30.1857 21.3782 28.3992 21.0001 26.8868 20.2439C25.3934 19.4878 24.2307 18.448 23.3989 17.1247C22.5861 15.7825 22.1796 14.2418 22.1796 12.5026C22.1796 10.7444 22.4821 9.14701 23.087 7.71027C23.7109 6.25463 24.5805 4.99748 25.6958 3.93883C26.8112 2.88018 28.1345 2.06729 29.6658 1.50015C31.197 0.914113 32.8701 0.621094 34.6849 0.621094C36.7455 0.621094 38.5225 0.999183 40.016 1.75536C41.5283 2.51154 42.691 3.56074 43.5039 4.90296C44.3357 6.22627 44.7516 7.75753 44.7516 9.49675C44.7516 11.2549 44.4396 12.8617 43.8158 14.3174C43.2108 15.7541 42.3507 17.0018 41.2353 18.0605C40.12 19.1191 38.7966 19.9415 37.2654 20.5275C35.7341 21.0946 34.0611 21.3782 32.2462 21.3782ZM32.8134 15.9621C33.6452 15.9621 34.373 15.8014 34.9968 15.48C35.6396 15.1586 36.1878 14.7144 36.6415 14.1472C37.0952 13.5801 37.4355 12.9374 37.6624 12.219C37.8892 11.4817 38.0027 10.7066 38.0027 9.89374C38.0027 9.11866 37.842 8.44755 37.5206 7.88041C37.2181 7.29437 36.7739 6.84067 36.1878 6.51929C35.6207 6.19791 34.9307 6.03723 34.1178 6.03723C33.3049 6.03723 32.5771 6.19791 31.9343 6.51929C31.2916 6.84067 30.7433 7.28492 30.2896 7.85206C29.8359 8.41919 29.4956 9.0714 29.2688 9.80867C29.0419 10.527 28.9285 11.2927 28.9285 12.1056C28.9285 12.8617 29.0797 13.5329 29.3822 14.1189C29.7036 14.7049 30.1478 15.1586 30.715 15.48C31.301 15.8014 32.0005 15.9621 32.8134 15.9621Z" fill="white"/>
<path d="M49.4373 20.9245L47.0553 1.0748H53.6624L55.5623 17.8336H52.1028L60.8367 1.0748H66.9901L68.6631 17.8336H65.4021L74.1076 1.0748H80.6864L70.3645 20.9245H63.1903L61.6874 7.19985H63.7291L56.6115 20.9245H49.4373Z" fill="white"/>
<path d="M78.2025 20.9245L82.1724 1.0748H92.6928C95.0559 1.0748 96.8329 1.4907 98.0239 2.3225C99.2148 3.13539 99.8103 4.29801 99.8103 5.81037C99.8103 7.03916 99.4511 8.07891 98.7328 8.92961C98.0333 9.78031 97.0597 10.4325 95.812 10.8862C94.5832 11.321 93.1654 11.5384 91.5585 11.5384L92.4092 10.0072C94.432 10.0072 96.02 10.4136 97.1732 11.2265C98.3452 12.0205 98.9313 13.1453 98.9313 14.601C98.9313 16.0566 98.5059 17.257 97.6552 18.2023C96.8234 19.1286 95.7081 19.8186 94.3091 20.2723C92.9102 20.7071 91.36 20.9245 89.6586 20.9245H78.2025ZM85.717 16.2456H90.0273C90.6889 16.2456 91.2277 16.0944 91.6436 15.7919C92.0784 15.4895 92.2958 15.0358 92.2958 14.4308C92.2958 13.996 92.1257 13.6746 91.7854 13.4667C91.464 13.2398 91.0859 13.1264 90.6511 13.1264H85.8872L86.7662 8.70276H90.6227C91.1332 8.70276 91.5491 8.63659 91.8704 8.50426C92.2107 8.35303 92.4565 8.15453 92.6077 7.90877C92.759 7.64411 92.8346 7.33218 92.8346 6.973C92.8346 6.5571 92.6739 6.25463 92.3525 6.06558C92.05 5.85763 91.6247 5.75366 91.0765 5.75366H87.8154L85.717 16.2456Z" fill="#FEDB3B"/>
<path d="M108.755 8.44755H117.602L116.638 13.2682H107.791L108.755 8.44755ZM107.706 15.877H117.659L116.638 20.9245H100.135L104.105 1.0748H120.24L119.219 6.1223H109.663L107.706 15.877Z" fill="#FEDB3B"/>
<path d="M123.525 20.9245L126.445 6.26408H120.632L121.682 1.0748H140L138.951 6.26408H133.138L130.217 20.9245H123.525Z" fill="#FEDB3B"/>
</svg>
