<svg width="150" height="22" viewBox="0 0 150 22" fill="none" xmlns="http://www.w3.org/2000/svg">
<path d="M11.4931 21.8653C9.84132 21.8653 8.3089 21.6066 6.89589 21.0891C5.50278 20.5518 4.28878 19.7955 3.2539 18.8204C2.23892 17.8452 1.44286 16.7009 0.865717 15.3874C0.288572 14.0539 0 12.5912 0 10.9991C0 9.40693 0.288572 7.95412 0.865717 6.64062C1.44286 5.30722 2.23892 4.15293 3.2539 3.17775C4.28878 2.20257 5.50278 1.45627 6.89589 0.938825C8.3089 0.401484 9.84132 0.132812 11.4931 0.132812C13.4236 0.132812 15.1451 0.471139 16.6576 1.14779C18.19 1.82444 19.4637 2.79962 20.4787 4.07332L16.7173 7.47648C16.0406 6.68042 15.2943 6.07343 14.4784 5.65549C13.6823 5.23756 12.7867 5.02859 11.7917 5.02859C10.9359 5.02859 10.1498 5.16791 9.43333 5.44653C8.71688 5.72515 8.09993 6.13313 7.58249 6.67047C7.08495 7.18791 6.68692 7.81481 6.3884 8.55117C6.10978 9.28753 5.97046 10.1035 5.97046 10.9991C5.97046 11.8946 6.10978 12.7106 6.3884 13.4469C6.68692 14.1833 7.08495 14.8202 7.58249 15.3575C8.09993 15.8749 8.71688 16.273 9.43333 16.5516C10.1498 16.8302 10.9359 16.9695 11.7917 16.9695C12.7867 16.9695 13.6823 16.7606 14.4784 16.3426C15.2943 15.9247 16.0406 15.3177 16.7173 14.5216L20.4787 17.9248C19.4637 19.1786 18.19 20.1538 16.6576 20.8503C15.1451 21.527 13.4236 21.8653 11.4931 21.8653Z" fill="white"/>
<path d="M33.2147 21.8653C31.5429 21.8653 30.0006 21.5966 28.5876 21.0593C27.1746 20.5219 25.9407 19.7657 24.8859 18.7905C23.851 17.7954 23.045 16.6411 22.4678 15.3276C21.8907 14.0141 21.6021 12.5713 21.6021 10.9991C21.6021 9.42684 21.8907 7.98397 22.4678 6.67047C23.045 5.35697 23.851 4.21263 24.8859 3.23745C25.9407 2.24238 27.1746 1.47617 28.5876 0.938825C30.0006 0.401484 31.5429 0.132812 33.2147 0.132812C34.9063 0.132812 36.4487 0.401484 37.8418 0.938825C39.2548 1.47617 40.4787 2.24238 41.5136 3.23745C42.5485 4.21263 43.3545 5.35697 43.9317 6.67047C44.5287 7.98397 44.8272 9.42684 44.8272 10.9991C44.8272 12.5713 44.5287 14.0241 43.9317 15.3575C43.3545 16.671 42.5485 17.8153 41.5136 18.7905C40.4787 19.7657 39.2548 20.5219 37.8418 21.0593C36.4487 21.5966 34.9063 21.8653 33.2147 21.8653ZM33.2147 16.9695C34.0107 16.9695 34.7471 16.8302 35.4237 16.5516C36.1203 16.273 36.7173 15.8749 37.2149 15.3575C37.7323 14.8202 38.1304 14.1833 38.409 13.4469C38.7075 12.7106 38.8568 11.8946 38.8568 10.9991C38.8568 10.0836 38.7075 9.26762 38.409 8.55117C38.1304 7.81481 37.7323 7.18791 37.2149 6.67047C36.7173 6.13313 36.1203 5.72515 35.4237 5.44653C34.7471 5.16791 34.0107 5.02859 33.2147 5.02859C32.4186 5.02859 31.6723 5.16791 30.9758 5.44653C30.2991 5.72515 29.7021 6.13313 29.1846 6.67047C28.6871 7.18791 28.289 7.81481 27.9905 8.55117C27.7119 9.26762 27.5726 10.0836 27.5726 10.9991C27.5726 11.8946 27.7119 12.7106 27.9905 13.4469C28.289 14.1833 28.6871 14.8202 29.1846 15.3575C29.7021 15.8749 30.2991 16.273 30.9758 16.5516C31.6723 16.8302 32.4186 16.9695 33.2147 16.9695Z" fill="white"/>
<path d="M47.923 21.4474V0.550745H57.4757C59.3863 0.550745 61.0282 0.859219 62.4014 1.47617C63.7945 2.09312 64.8692 2.98869 65.6254 4.16288C66.3817 5.31717 66.7598 6.69037 66.7598 8.2825C66.7598 9.85472 66.3817 11.218 65.6254 12.3723C64.8692 13.5266 63.7945 14.4221 62.4014 15.059C61.0282 15.6759 59.3863 15.9844 57.4757 15.9844H51.2068L53.8338 13.4171V21.4474H47.923ZM53.8338 14.044L51.2068 11.3274H57.1175C58.3514 11.3274 59.2669 11.0588 59.8639 10.5214C60.4809 9.98408 60.7894 9.23777 60.7894 8.2825C60.7894 7.30732 60.4809 6.55106 59.8639 6.01372C59.2669 5.47638 58.3514 5.20771 57.1175 5.20771H51.2068L53.8338 2.49115V14.044Z" fill="white"/>
<path d="M74.9256 21.4474V12.6111L76.2988 16.1635L66.955 0.550745H73.1942L79.9408 11.8648H76.3287L83.1051 0.550745H88.8368L79.5229 16.1635L80.8364 12.6111V21.4474H74.9256Z" fill="white"/>
<path d="M90.2527 21.4474V0.550745H100.94C103.686 0.550745 105.736 1.05823 107.089 2.07321C108.443 3.06829 109.119 4.38179 109.119 6.01372C109.119 7.0884 108.831 8.03373 108.254 8.84969C107.696 9.64575 106.9 10.2826 105.865 10.7602C104.85 11.218 103.636 11.4468 102.223 11.4468L102.82 10.0139C104.293 10.0139 105.577 10.2428 106.671 10.7005C107.766 11.1384 108.612 11.7852 109.209 12.6409C109.826 13.4768 110.134 14.5017 110.134 15.7157C110.134 17.5268 109.398 18.9398 107.925 19.9548C106.472 20.9498 104.343 21.4474 101.537 21.4474H90.2527ZM96.1037 17.1785H101.059C102.074 17.1785 102.84 17.0093 103.358 16.671C103.895 16.3128 104.164 15.7754 104.164 15.059C104.164 14.3425 103.895 13.8151 103.358 13.4768C102.84 13.1186 102.074 12.9395 101.059 12.9395H95.6858V8.84969H100.164C101.159 8.84969 101.905 8.68053 102.403 8.3422C102.9 8.00388 103.149 7.49639 103.149 6.81973C103.149 6.14308 102.9 5.64554 102.403 5.32712C101.905 4.98879 101.159 4.81963 100.164 4.81963H96.1037V17.1785Z" fill="#CEE53F"/>
<path d="M118.629 8.64073H128.331V13.0589H118.629V8.64073ZM119.047 16.88H129.973V21.4474H113.196V0.550745H129.585V5.11815H119.047V16.88Z" fill="#CEE53F"/>
<path d="M137.701 21.4474V5.23756H131.283V0.550745H150V5.23756H143.612V21.4474H137.701Z" fill="#CEE53F"/>
</svg>
