<svg width="193" height="41" viewBox="0 0 193 41" fill="none" xmlns="http://www.w3.org/2000/svg">
<path d="M19.1168 1.18161C19.3419 0.759608 19.7217 0.464205 20.2562 0.295402C20.7907 0.1266 21.466 0.0421999 22.2818 0.0421999C23.0977 0.0421999 23.7448 0.112534 24.223 0.253202C24.7013 0.39387 25.0671 0.562672 25.3203 0.759608C25.5735 0.956542 25.7704 1.23788 25.9111 1.60362C26.0517 2.08189 26.1221 2.81336 26.1221 3.79804V27.2193C26.1221 27.8663 26.0939 28.3587 26.0377 28.6963C26.0095 29.0058 25.8829 29.3715 25.6579 29.7935C25.264 30.5531 24.1668 30.9329 22.3662 30.9329C20.3969 30.9329 19.2434 30.4124 18.9058 29.3715C18.737 28.8932 18.6526 28.1617 18.6526 27.1771V18.6104H7.46947V27.2193C7.46947 27.8663 7.44134 28.3587 7.38507 28.6963C7.35694 29.0058 7.23034 29.3715 7.00527 29.7935C6.6114 30.5531 5.51419 30.9329 3.71364 30.9329C1.74428 30.9329 0.590806 30.4124 0.253203 29.3715C0.0844009 28.8932 0 28.1617 0 27.1771V3.75584C0 3.10876 0.0140668 2.63049 0.0422003 2.32102C0.0984676 1.98342 0.239136 1.60362 0.464205 1.18161C0.858075 0.422004 1.95529 0.0421999 3.75584 0.0421999C5.72519 0.0421999 6.89274 0.562672 7.25847 1.60362C7.39914 2.08189 7.46947 2.81336 7.46947 3.79804V12.4069H18.6526V3.75584C18.6526 3.10876 18.6667 2.63049 18.6948 2.32102C18.7511 1.98342 18.8917 1.60362 19.1168 1.18161Z" fill="#FF7E10"/>
<path d="M39.3822 30.8907C36.5407 30.8907 34.1775 29.8216 32.2926 27.6835C30.4357 25.5172 29.5073 22.8867 29.5073 19.792V12.4069C29.5073 11.7317 29.5214 11.2394 29.5495 10.9299C29.6058 10.6204 29.7324 10.2547 29.9293 9.8327C30.3232 9.07309 31.4204 8.69329 33.221 8.69329C35.1903 8.69329 36.3438 9.22783 36.6814 10.2969C36.8502 10.747 36.9346 11.4644 36.9346 12.4491V19.8342C36.9346 20.9877 37.2581 21.888 37.9052 22.535C38.5804 23.1821 39.4666 23.5056 40.5638 23.5056C41.6892 23.5056 42.5895 23.168 43.2647 22.4928C43.968 21.8176 44.3197 20.9314 44.3197 19.8342V12.3647C44.3197 11.7177 44.3337 11.2394 44.3619 10.9299C44.4181 10.5923 44.5588 10.2125 44.7839 9.7905C45.1496 9.05902 46.2328 8.69329 48.0333 8.69329C49.8057 8.69329 50.8889 9.07309 51.2827 9.8327C51.4797 10.2547 51.5922 10.6345 51.6203 10.9721C51.6766 11.2816 51.7048 11.7599 51.7048 12.4069V27.3459C51.7048 27.9648 51.6766 28.4431 51.6203 28.7807C51.5922 29.0902 51.4656 29.4418 51.2405 29.8357C50.8185 30.5672 49.7354 30.9329 47.9911 30.9329C46.275 30.9329 45.22 30.5953 44.8261 29.9201C44.5447 29.4418 44.4041 28.8651 44.4041 28.1899C44.2915 28.3868 44.0383 28.6682 43.6445 29.0339C43.2506 29.3996 42.8708 29.7091 42.5051 29.9623C41.5485 30.5812 40.5076 30.8907 39.3822 30.8907Z" fill="#FF7E10"/>
<path d="M69.1945 28.1899C68.1254 29.5966 66.4234 30.2999 64.0883 30.2999C61.7532 30.2999 59.5588 29.2308 57.505 27.0927C55.4794 24.9264 54.4666 22.4084 54.4666 19.5388C54.4666 16.6692 55.4934 14.1512 57.5472 11.9849C59.601 9.81863 61.8516 8.73549 64.2993 8.73549C65.2558 8.73549 66.128 8.91836 66.9157 9.28409C67.7034 9.6217 68.238 9.94523 68.5193 10.2547C68.8288 10.536 69.0679 10.8033 69.2367 11.0565C69.3211 10.2688 69.6024 9.67796 70.0807 9.28409C70.5871 8.86209 71.3889 8.65109 72.4861 8.65109C73.5834 8.65109 74.3852 8.73549 74.8916 8.90429C75.398 9.07309 75.7496 9.36849 75.9466 9.7905C76.1716 10.1844 76.2982 10.536 76.3264 10.8455C76.3827 11.155 76.4108 11.6333 76.4108 12.2803V29.7513C76.4108 32.9867 75.2854 35.589 73.0348 37.5584C70.7841 39.5559 68.252 40.5546 65.4387 40.5546C63.3005 40.5546 61.2608 40.0341 59.3196 38.9932C57.3784 37.9522 56.4078 37.0098 56.4078 36.1658C56.4078 35.0686 56.8298 34.0979 57.6738 33.2539C58.2083 32.6631 58.6163 32.2552 58.8976 32.0301C59.2071 31.8051 59.5588 31.6925 59.9526 31.6925C60.3465 31.6925 60.7544 31.8613 61.1764 32.1989C62.5268 33.2399 63.9898 33.7603 65.5653 33.7603C66.6344 33.7603 67.5065 33.3383 68.1817 32.4943C68.8569 31.6503 69.1945 30.6375 69.1945 29.4559V28.1899ZM61.6828 19.581C61.6828 20.4813 62.0345 21.2971 62.7378 22.0286C63.4693 22.7601 64.3415 23.1258 65.3543 23.1258C66.3952 23.1258 67.2533 22.7601 67.9285 22.0286C68.6037 21.269 68.9413 20.4531 68.9413 19.581C68.9413 18.6807 68.6178 17.8508 67.9707 17.0912C67.3236 16.3034 66.4515 15.9096 65.3543 15.9096C64.2571 15.9096 63.3709 16.2894 62.6956 17.049C62.0204 17.8086 61.6828 18.6526 61.6828 19.581Z" fill="#FF7E10"/>
<path d="M79.1522 19.8764C79.1522 16.5004 80.3338 13.7151 82.697 11.5207C85.0602 9.32629 87.761 8.22908 90.7995 8.22908C93.8379 8.22908 96.5247 9.32629 98.8598 11.5207C101.195 13.687 102.362 16.4582 102.362 19.8342C102.362 22.1693 101.758 24.2512 100.548 26.0799C99.338 27.8804 97.861 29.2168 96.1167 30.0889C94.4006 30.9329 92.6141 31.3549 90.7573 31.3549C88.9005 31.3549 87.0999 30.9048 85.3556 30.0045C83.6113 29.0761 82.1343 27.7257 80.9246 25.9533C79.743 24.1527 79.1522 22.1271 79.1522 19.8764ZM87.972 22.9148C88.8723 23.59 89.7867 23.9276 90.7151 23.9276C91.6435 23.9276 92.5719 23.576 93.5003 22.8726C94.4287 22.1693 94.8929 21.1283 94.8929 19.7498C94.8929 18.3713 94.4569 17.3444 93.5847 16.6692C92.7126 15.994 91.7701 15.6564 90.7573 15.6564C89.7445 15.6564 88.802 16.008 87.9299 16.7114C87.0577 17.4147 86.6216 18.4557 86.6216 19.8342C86.6216 21.1846 87.0718 22.2115 87.972 22.9148Z" fill="#FF7E10"/>
<path d="M127.118 14.3903C128.777 16.3597 129.607 18.5682 129.607 21.0158C129.551 23.8292 128.581 26.1924 126.696 28.1055C124.839 29.9904 122.574 30.9329 119.901 30.9329H108.803C106.833 30.9329 105.68 30.3984 105.342 29.3293C105.173 28.851 105.089 28.1195 105.089 27.1349V3.71364C105.089 3.03843 105.103 2.54609 105.131 2.23662C105.187 1.92715 105.328 1.56142 105.553 1.13941C105.947 0.379804 107.044 0 108.845 0H119.479C122.068 0 124.234 0.900276 125.978 2.70083C127.807 4.52951 128.721 6.72393 128.721 9.28409C128.721 11.1409 128.187 12.843 127.118 14.3903ZM122.138 20.5938C122.138 19.9186 122.054 19.3841 121.885 18.9902C121.744 18.5963 121.491 18.315 121.125 18.1462C120.562 17.9211 119.775 17.8086 118.762 17.8086C117.749 17.8086 116.989 17.6116 116.483 17.2178C115.977 16.8239 115.723 16.0221 115.723 14.8123C115.723 13.5745 115.977 12.7586 116.483 12.3647C117.018 11.9709 117.89 11.7739 119.099 11.7739C120.225 11.7739 120.9 11.4785 121.125 10.8877C121.209 10.5782 121.252 10.0718 121.252 9.36849C121.252 8.66515 121.013 8.17282 120.534 7.89148C120.084 7.61014 119.395 7.46947 118.466 7.46947H112.558V23.4634H119.479C121.252 23.4634 122.138 22.5069 122.138 20.5938Z" fill="#0FF3FF"/>
<path d="M153.809 17.2178C153.809 18.9339 153.373 20.214 152.5 21.058C151.656 21.8739 150.714 22.2818 149.673 22.2818H139.672C139.672 23.0696 140.136 23.7307 141.064 24.2652C141.993 24.7998 142.921 25.0671 143.849 25.0671C145.481 25.0671 146.761 24.8983 147.69 24.5606L148.154 24.3918C148.829 24.0824 149.392 23.9276 149.842 23.9276C150.742 23.9276 151.516 24.5606 152.163 25.8267C152.529 26.5863 152.711 27.2333 152.711 27.7679C152.711 30.2718 149.715 31.5237 143.723 31.5237C141.641 31.5237 139.784 31.172 138.152 30.4687C136.549 29.7372 135.297 28.7807 134.396 27.5991C132.624 25.3203 131.738 22.7742 131.738 19.9608C131.738 16.416 132.877 13.5885 135.156 11.4785C137.463 9.34036 140.333 8.27128 143.765 8.27128C147.676 8.27128 150.545 9.64983 152.374 12.4069C153.33 13.8699 153.809 15.4735 153.809 17.2178ZM144.904 18.4416C145.973 18.4416 146.508 17.9914 146.508 17.0912C146.508 16.4441 146.255 15.9236 145.748 15.5298C145.27 15.1359 144.567 14.9389 143.638 14.9389C142.738 14.9389 141.838 15.3188 140.938 16.0784C140.037 16.8098 139.587 17.5976 139.587 18.4416H144.904Z" fill="#0FF3FF"/>
<path d="M169.063 16.205L166.32 16.0362V21.8598C166.32 22.6194 166.433 23.168 166.658 23.5056C166.911 23.8432 167.361 24.012 168.008 24.012C168.683 24.012 169.19 24.0402 169.527 24.0964C169.893 24.1246 170.273 24.2512 170.667 24.4762C171.314 24.842 171.637 25.7845 171.637 27.3037C171.637 29.0761 171.243 30.1592 170.456 30.5531C170.034 30.75 169.654 30.8766 169.316 30.9329C169.007 30.961 168.543 30.9751 167.924 30.9751C164.998 30.9751 162.775 30.314 161.256 28.9917C159.737 27.6694 158.977 25.4328 158.977 22.2818V16.0362C158.443 16.1206 157.866 16.1628 157.247 16.1628C156.628 16.1628 156.108 15.9236 155.686 15.4454C155.292 14.9671 155.095 14.1512 155.095 12.9977C155.095 11.8443 155.165 11.0143 155.306 10.5079C155.446 9.97337 155.643 9.59356 155.897 9.36849C156.347 9.00276 156.909 8.81989 157.585 8.81989L158.977 8.98869V4.64205C158.977 3.99497 158.991 3.5167 159.019 3.20723C159.076 2.89776 159.216 2.56016 159.441 2.19442C159.807 1.49108 160.89 1.13941 162.691 1.13941C164.604 1.13941 165.743 1.65988 166.109 2.70083C166.25 3.15096 166.32 3.86837 166.32 4.85305V8.98869C167.558 8.87616 168.486 8.81989 169.105 8.81989C169.752 8.81989 170.231 8.84802 170.54 8.90429C170.878 8.93242 171.258 9.05902 171.68 9.28409C172.411 9.64983 172.777 10.733 172.777 12.5335C172.777 14.3059 172.397 15.3891 171.637 15.783C171.215 15.9799 170.836 16.1065 170.498 16.1628C170.188 16.1909 169.71 16.205 169.063 16.205Z" fill="#0FF3FF"/>
<path d="M175.276 28.9917C174.741 28.6541 174.474 28.1195 174.474 27.3881C174.474 26.6566 175.009 25.5453 176.078 24.0542C176.387 23.576 176.879 23.3368 177.555 23.3368C178.258 23.3368 179.2 23.6885 180.382 24.3918C181.564 25.0671 182.633 25.4047 183.589 25.4047C185.305 25.4047 186.164 25.0671 186.164 24.3918C186.164 23.8573 185.221 23.4634 183.336 23.2102C181.564 22.957 179.805 22.2959 178.061 21.2268C177.245 20.7204 176.57 19.9327 176.035 18.8636C175.501 17.7664 175.234 16.4722 175.234 14.9812C175.234 10.536 178.286 8.31348 184.391 8.31348C186.389 8.31348 188.442 8.79175 190.552 9.7483C191.537 10.1984 192.029 10.7611 192.029 11.4363C192.029 12.1115 191.72 12.9415 191.101 13.9261C190.482 14.9108 189.849 15.4032 189.202 15.4032C188.864 15.4032 188.231 15.1922 187.303 14.7701C186.403 14.3481 185.418 14.1371 184.349 14.1371C182.689 14.1371 181.859 14.4466 181.859 15.0656C181.859 15.9096 182.816 16.4582 184.729 16.7114C186.586 16.9083 188.386 17.4428 190.13 18.315C190.946 18.7089 191.621 19.3981 192.156 20.3828C192.719 21.3393 193 22.5491 193 24.012C193 25.475 192.719 26.7269 192.156 27.7679C191.621 28.7807 190.862 29.5403 189.877 30.0467C188.077 30.9188 185.812 31.3549 183.083 31.3549C180.382 31.3549 177.78 30.5672 175.276 28.9917Z" fill="#0FF3FF"/>
</svg>
