<svg width="239" height="24" viewBox="0 0 239 24" fill="none" xmlns="http://www.w3.org/2000/svg">
<path d="M0 20.9362V3.06383H9.54787C12.0157 3.06383 13.8368 3.50638 15.0111 4.39149C16.1854 5.25958 16.7726 6.37447 16.7726 7.73617C16.7726 8.6383 16.5173 9.44681 16.0067 10.1617C15.5132 10.8596 14.7898 11.4128 13.8368 11.8213C12.8837 12.2298 11.7093 12.434 10.3137 12.434L10.8243 11.0553C12.2199 11.0553 13.4198 11.2511 14.4239 11.6426C15.4451 12.034 16.228 12.6043 16.7726 13.3532C17.3342 14.0851 17.6151 14.9702 17.6151 16.0085C17.6151 17.5574 16.9683 18.766 15.6749 19.634C14.3984 20.5021 12.5263 20.9362 10.0585 20.9362H0ZM5.92275 16.7234H9.54787C10.2116 16.7234 10.7052 16.6043 11.0286 16.366C11.3689 16.1277 11.5391 15.7787 11.5391 15.3191C11.5391 14.8596 11.3689 14.5106 11.0286 14.2723C10.7052 14.034 10.2116 13.9149 9.54787 13.9149H5.51428V9.93192H8.73094C9.41172 9.93192 9.90528 9.82128 10.2116 9.6C10.535 9.3617 10.6967 9.02979 10.6967 8.60426C10.6967 8.1617 10.535 7.82979 10.2116 7.60851C9.90528 7.38723 9.41172 7.2766 8.73094 7.2766H5.92275V16.7234Z" fill="#A6FF01"/>
<path d="M19.7451 20.9362V3.06383H25.77V20.9362H19.7451Z" fill="#A6FF01"/>
<path d="M28.6703 20.9362V3.06383H34.6952V16.2638H42.7624V20.9362H28.6703Z" fill="#A6FF01"/>
<path d="M44.4266 20.9362V3.06383H50.4514V16.2638H58.5186V20.9362H44.4266Z" fill="#A6FF01"/>
<path d="M60.1828 20.9362V3.06383H66.2077V20.9362H60.1828Z" fill="#A6FF01"/>
<path d="M78.4772 21.3447C77.0305 21.3447 75.686 21.1149 74.4436 20.6553C73.2182 20.1957 72.1545 19.5489 71.2524 18.7149C70.3504 17.8638 69.6441 16.8681 69.1335 15.7277C68.64 14.5872 68.3932 13.3447 68.3932 12C68.3932 10.6383 68.64 9.39575 69.1335 8.27234C69.6441 7.13192 70.3504 6.14468 71.2524 5.31064C72.1545 4.45957 73.2182 3.80426 74.4436 3.34468C75.686 2.88511 77.0305 2.65532 78.4772 2.65532C79.9408 2.65532 81.2854 2.88511 82.5108 3.34468C83.7362 3.80426 84.7999 4.45957 85.7019 5.31064C86.6039 6.14468 87.3017 7.13192 87.7953 8.27234C88.3059 9.39575 88.5612 10.6383 88.5612 12C88.5612 13.3447 88.3059 14.5872 87.7953 15.7277C87.3017 16.8681 86.6039 17.8638 85.7019 18.7149C84.7999 19.5489 83.7362 20.1957 82.5108 20.6553C81.2854 21.1149 79.9408 21.3447 78.4772 21.3447ZM78.4772 16.4681C79.0388 16.4681 79.5579 16.366 80.0344 16.1617C80.528 15.9574 80.9535 15.6681 81.3109 15.2936C81.6853 14.9021 81.9747 14.434 82.1789 13.8894C82.3831 13.3277 82.4852 12.6979 82.4852 12C82.4852 11.3021 82.3831 10.6809 82.1789 10.1362C81.9747 9.57447 81.6853 9.10638 81.3109 8.73192C80.9535 8.34043 80.528 8.04255 80.0344 7.8383C79.5579 7.63404 79.0388 7.53192 78.4772 7.53192C77.9155 7.53192 77.3879 7.63404 76.8944 7.8383C76.4178 8.04255 75.9923 8.34043 75.6179 8.73192C75.2605 9.10638 74.9797 9.57447 74.7755 10.1362C74.5712 10.6809 74.4691 11.3021 74.4691 12C74.4691 12.6979 74.5712 13.3277 74.7755 13.8894C74.9797 14.434 75.2605 14.9021 75.6179 15.2936C75.9923 15.6681 76.4178 15.9574 76.8944 16.1617C77.3879 16.366 77.9155 16.4681 78.4772 16.4681Z" fill="#A6FF01"/>
<path d="M90.7479 20.9362V3.06383H95.7005L104.789 13.9404H102.491V3.06383H108.363V20.9362H103.41L94.322 10.0596H96.6196V20.9362H90.7479Z" fill="#A6FF01"/>
<path d="M109.326 20.9362L117.138 3.06383H123.06L130.872 20.9362H124.643L118.874 5.92341H121.222L115.453 20.9362H109.326ZM113.972 17.8213L115.504 13.4809H123.724L125.256 17.8213H113.972Z" fill="#A6FF01"/>
<path d="M131.834 20.9362V3.06383H137.859V20.9362H131.834Z" fill="#A6FF01"/>
<path d="M140.759 20.9362V3.06383H149.362C151.03 3.06383 152.468 3.33617 153.677 3.88085C154.902 4.42553 155.847 5.20851 156.51 6.22979C157.174 7.23404 157.506 8.42553 157.506 9.80426C157.506 11.183 157.174 12.3745 156.51 13.3787C155.847 14.366 154.902 15.1234 153.677 15.6511C152.468 16.1787 151.03 16.4426 149.362 16.4426H144.103L146.784 13.966V20.9362H140.759ZM151.456 20.9362L147.065 14.4255H153.447L157.889 20.9362H151.456ZM146.784 14.6298L144.103 11.8979H148.979C149.813 11.8979 150.426 11.7106 150.817 11.3362C151.226 10.9617 151.43 10.4511 151.43 9.80426C151.43 9.15745 151.226 8.64681 150.817 8.27234C150.426 7.89787 149.813 7.71064 148.979 7.71064H144.103L146.784 4.97872V14.6298Z" fill="#A6FF01"/>
<path d="M165.295 9.70213H173.26V14.0426H165.295V9.70213ZM165.704 16.3915H174.639V20.9362H159.781V3.06383H174.307V7.60851H165.704V16.3915Z" fill="#A6FF01"/>
<path d="M183.621 21.3447C182.124 21.3447 180.677 21.1745 179.282 20.834C177.886 20.4936 176.737 20.0511 175.835 19.5064L177.775 15.1149C178.626 15.6085 179.571 16.0085 180.609 16.3149C181.664 16.6043 182.685 16.7489 183.673 16.7489C184.251 16.7489 184.702 16.7149 185.026 16.6468C185.366 16.5617 185.613 16.4511 185.766 16.3149C185.919 16.1617 185.996 15.983 185.996 15.7787C185.996 15.4553 185.817 15.2 185.46 15.0128C185.102 14.8255 184.626 14.6723 184.03 14.5532C183.451 14.417 182.813 14.2809 182.115 14.1447C181.417 13.9915 180.711 13.7957 179.996 13.5574C179.299 13.3191 178.652 13.0043 178.056 12.6128C177.477 12.2213 177.009 11.7106 176.652 11.0809C176.295 10.434 176.116 9.63404 176.116 8.68085C176.116 7.57447 176.422 6.57021 177.035 5.66809C177.665 4.74894 178.592 4.01702 179.818 3.47234C181.06 2.92766 182.6 2.65532 184.438 2.65532C185.647 2.65532 186.838 2.78298 188.012 3.0383C189.187 3.29362 190.242 3.68511 191.178 4.21277L189.366 8.57872C188.48 8.13617 187.621 7.80426 186.787 7.58298C185.97 7.3617 185.17 7.25106 184.387 7.25106C183.809 7.25106 183.349 7.30213 183.009 7.40426C182.668 7.50638 182.422 7.64255 182.268 7.81277C182.132 7.98298 182.064 8.17021 182.064 8.37447C182.064 8.68085 182.243 8.92766 182.6 9.11489C182.958 9.28511 183.426 9.42979 184.004 9.54894C184.6 9.66809 185.247 9.79574 185.945 9.93192C186.659 10.0681 187.366 10.2553 188.064 10.4936C188.761 10.7319 189.4 11.0468 189.978 11.4383C190.574 11.8298 191.05 12.3404 191.408 12.9702C191.765 13.6 191.944 14.383 191.944 15.3191C191.944 16.4085 191.629 17.4128 190.999 18.3319C190.387 19.234 189.468 19.966 188.242 20.5277C187.017 21.0723 185.477 21.3447 183.621 21.3447ZM182.396 24V20.6809H185.996V24H182.396ZM182.396 3.31915V0H185.996V3.31915H182.396Z" fill="white"/>
<path d="M193.737 20.9362V3.06383H202.34C204.008 3.06383 205.446 3.33617 206.654 3.88085C207.88 4.42553 208.824 5.20851 209.488 6.22979C210.152 7.23404 210.484 8.42553 210.484 9.80426C210.484 11.183 210.152 12.3745 209.488 13.3787C208.824 14.383 207.88 15.166 206.654 15.7277C205.446 16.2723 204.008 16.5447 202.34 16.5447H197.081L199.762 13.966V20.9362H193.737ZM199.762 14.6298L197.081 11.8979H201.957C202.791 11.8979 203.404 11.7106 203.795 11.3362C204.204 10.9617 204.408 10.4511 204.408 9.80426C204.408 9.15745 204.204 8.64681 203.795 8.27234C203.404 7.89787 202.791 7.71064 201.957 7.71064H197.081L199.762 4.97872V14.6298Z" fill="white"/>
<path d="M212.46 20.9362V3.06383H218.485V20.9362H212.46Z" fill="white"/>
<path d="M221.385 20.9362V3.06383H226.338L235.426 13.9404H233.128V3.06383H239V20.9362H234.047L224.959 10.0596H227.257V20.9362H221.385Z" fill="white"/>
<path d="M71.9409 6.57465H83.9077V18.5427H71.9409V6.57465Z" fill="#A6FF01"/>
<path d="M78.1639 17.6634C77.2738 17.6634 76.4141 17.5559 75.5847 17.3408C74.7553 17.1258 74.0726 16.8463 73.5365 16.5022L74.6896 13.7283C75.1953 14.0401 75.7566 14.2928 76.3736 14.4863C77.0007 14.6691 77.6076 14.7605 78.1942 14.7605C78.5381 14.7605 78.8062 14.739 78.9983 14.696C79.2006 14.6422 79.3473 14.5723 79.4383 14.4863C79.5294 14.3896 79.5749 14.2767 79.5749 14.1477C79.5749 13.9434 79.4687 13.7821 79.2563 13.6638C79.0439 13.5456 78.7607 13.4488 78.4066 13.3735C78.0628 13.2875 77.6835 13.2015 77.2688 13.1155C76.8541 13.0187 76.4343 12.8951 76.0095 12.7446C75.5948 12.5941 75.2105 12.3952 74.8564 12.1479C74.5126 11.9006 74.2344 11.578 74.022 11.1802C73.8096 10.7717 73.7034 10.2664 73.7034 9.66429C73.7034 8.96544 73.8855 8.33111 74.2496 7.76128C74.6238 7.1807 75.1751 6.71839 75.9033 6.37434C76.6417 6.03029 77.557 5.85827 78.6494 5.85827C79.3675 5.85827 80.0755 5.9389 80.7734 6.10018C81.4713 6.26145 82.0984 6.50873 82.6547 6.84203L81.5776 9.59978C81.0516 9.32024 80.5408 9.11059 80.0452 8.97082C79.5597 8.83105 79.0843 8.76116 78.619 8.76116C78.2752 8.76116 78.0021 8.79342 77.7998 8.85793C77.5975 8.92244 77.4508 9.00845 77.3598 9.11596C77.2789 9.22348 77.2384 9.34174 77.2384 9.47076C77.2384 9.66429 77.3446 9.82018 77.557 9.93845C77.7694 10.046 78.0476 10.1374 78.3915 10.2126C78.7455 10.2879 79.1298 10.3685 79.5445 10.4545C79.9693 10.5405 80.3891 10.6588 80.8038 10.8093C81.2185 10.9598 81.5978 11.1587 81.9417 11.406C82.2957 11.6533 82.5789 11.9759 82.7913 12.3737C83.0037 12.7715 83.1099 13.266 83.1099 13.8574C83.1099 14.5455 82.9228 15.1798 82.5485 15.7604C82.1844 16.3302 81.6382 16.7925 80.91 17.1473C80.1817 17.4914 79.2664 17.6634 78.1639 17.6634ZM77.4357 19.3406V17.2441H79.5749V19.3406H77.4357ZM77.4357 6.27757V4.18104H79.5749V6.27757H77.4357Z" fill="#001E4D"/>
</svg>
