<svg width="67" height="44" viewBox="0 0 67 44" fill="none" xmlns="http://www.w3.org/2000/svg">
<path d="M3.70057 3.90369C6.0322 1.57206 8.95262 0.40625 12.4618 0.40625C15.9711 0.40625 18.8915 1.57206 21.2231 3.90369C23.5547 6.23532 24.7206 9.14397 24.7206 12.6296C24.7206 16.1153 23.5547 19.024 21.2231 21.3556C18.8915 23.6872 15.9711 24.853 12.4618 24.853C8.95262 24.853 6.0322 23.6872 3.70057 21.3556C1.36894 19.024 0.203125 16.1153 0.203125 12.6296C0.203125 9.14397 1.36894 6.23532 3.70057 3.90369ZM6.24416 19.0593C7.86924 20.7079 9.9418 21.5322 12.4618 21.5322C14.9819 21.5322 17.0544 20.7079 18.6795 19.0593C20.3046 17.3871 21.1171 15.2439 21.1171 12.6296C21.1171 10.0154 20.3046 7.88395 18.6795 6.23532C17.0544 4.56314 14.9819 3.72705 12.4618 3.72705C9.9418 3.72705 7.86924 4.56314 6.24416 6.23532C4.61909 7.88395 3.80655 10.0154 3.80655 12.6296C3.80655 15.2439 4.61909 17.3871 6.24416 19.0593Z" fill="#04C74D"/>
<path d="M42.3151 4.36295L39.4183 6.05868C39.1827 5.49344 38.8295 4.99885 38.3584 4.57492C37.6519 4.00968 36.804 3.72705 35.8148 3.72705C34.755 3.72705 33.9307 3.9979 33.3419 4.53959C32.7766 5.08128 32.494 5.75251 32.494 6.55327C32.494 7.77796 33.3419 8.73181 35.0376 9.41481L37.4046 10.3687C41.1022 11.876 42.951 14.1841 42.951 17.2929C42.951 19.5303 42.2327 21.3556 40.796 22.7687C39.3829 24.1582 37.5694 24.853 35.3556 24.853C33.071 24.853 31.2222 24.064 29.8091 22.4861C28.6551 21.1907 27.9956 19.6598 27.8308 17.8935L31.3989 17.1163C31.3989 18.2467 31.7286 19.2477 32.388 20.1191C33.1417 21.0612 34.1662 21.5322 35.4616 21.5322C36.5685 21.5322 37.487 21.1672 38.2171 20.4371C38.9708 19.707 39.3476 18.7531 39.3476 17.5755C39.3476 16.4921 39.0296 15.656 38.3937 15.0672C37.7814 14.4785 36.9689 13.9721 35.9561 13.5482L33.6952 12.5943C30.4921 11.2519 28.8906 9.26173 28.8906 6.62393C28.8906 4.9282 29.5029 3.46798 30.7276 2.24329C31.9759 1.0186 33.6598 0.40625 35.7795 0.40625C37.6872 0.40625 39.2652 0.936166 40.5134 1.996C41.2435 2.65545 41.8441 3.44443 42.3151 4.36295Z" fill="#04C74D"/>
<path d="M51.0631 0.830181V10.1567H61.1669V0.830181H64.7703V24.3938H61.1669V13.5482H51.0631V24.3938H47.4597V0.830181H51.0631Z" fill="#04C74D"/>
<path d="M8.36207 32.9088V34.8165C7.49301 34.0322 6.53386 33.6401 5.48463 33.6401C4.34001 33.6401 3.40736 34.0216 2.68667 34.7847C1.97659 35.5372 1.62154 36.5016 1.62154 37.678C1.62154 38.812 1.98718 39.7606 2.71847 40.5237C3.44975 41.2762 4.3771 41.6524 5.50052 41.6524C6.54976 41.6524 7.5036 41.2444 8.36207 40.4283V42.3519C7.47181 42.8818 6.50206 43.1468 5.45283 43.1468C3.97967 43.1468 2.72907 42.6592 1.70103 41.6842C0.56701 40.6244 0 39.289 0 37.678C0 35.9823 0.56701 34.5992 1.70103 33.5288C2.67607 32.6067 3.95317 32.1457 5.53232 32.1457C6.62394 32.1457 7.56719 32.4001 8.36207 32.9088Z" fill="white"/>
<path d="M19.941 42.9401L18.8282 40.3806H14.2974L13.1369 42.9401H11.3882L16.6661 31.7165L21.6897 42.9401H19.941ZM14.9651 38.8544H18.1764L16.6025 35.2616L14.9651 38.8544Z" fill="white"/>
<path d="M30.9853 33.9262L29.6817 34.6893C29.5757 34.4349 29.4167 34.2124 29.2048 34.0216C28.8868 33.7673 28.5053 33.6401 28.0601 33.6401C27.5832 33.6401 27.2123 33.762 26.9473 34.0057C26.693 34.2495 26.5658 34.5515 26.5658 34.9119C26.5658 35.463 26.9473 35.8922 27.7104 36.1996L28.7755 36.6288C30.4395 37.3071 31.2714 38.3457 31.2714 39.7447C31.2714 40.7515 30.9482 41.5729 30.3017 42.2088C29.6658 42.8341 28.8497 43.1468 27.8535 43.1468C26.8254 43.1468 25.9935 42.7917 25.3576 42.0816C24.8383 41.4987 24.5415 40.8098 24.4673 40.015L26.073 39.6652C26.073 40.1739 26.2213 40.6244 26.5181 41.0165C26.8572 41.4404 27.3183 41.6524 27.9012 41.6524C28.3993 41.6524 28.8126 41.4881 29.1412 41.1596C29.4803 40.831 29.6499 40.4018 29.6499 39.8719C29.6499 39.3844 29.5068 39.0081 29.2207 38.7432C28.9451 38.4782 28.5795 38.2503 28.1237 38.0596L27.1063 37.6303C25.6649 37.0262 24.9442 36.1307 24.9442 34.9437C24.9442 34.1806 25.2198 33.5235 25.7709 32.9724C26.3326 32.4213 27.0904 32.1457 28.0442 32.1457C28.9027 32.1457 29.6128 32.3842 30.1745 32.8611C30.5031 33.1578 30.7733 33.5129 30.9853 33.9262Z" fill="white"/>
<path d="M35.685 32.3365H37.3065V42.9401H35.685V32.3365Z" fill="white"/>
<path d="M43.8518 42.9401H42.2303V31.6211L49.9246 39.6811V32.3365H51.5462V43.5919L43.8518 35.5319V42.9401Z" fill="white"/>
<path d="M57.541 33.7196C58.5902 32.6703 59.9044 32.1457 61.4836 32.1457C63.0627 32.1457 64.3769 32.6703 65.4261 33.7196C66.4754 34.7688 67 36.0777 67 37.6462C67 39.2148 66.4754 40.5237 65.4261 41.5729C64.3769 42.6221 63.0627 43.1468 61.4836 43.1468C59.9044 43.1468 58.5902 42.6221 57.541 41.5729C56.4918 40.5237 55.9672 39.2148 55.9672 37.6462C55.9672 36.0777 56.4918 34.7688 57.541 33.7196ZM58.6856 40.5396C59.4169 41.2815 60.3496 41.6524 61.4836 41.6524C62.6176 41.6524 63.5502 41.2815 64.2815 40.5396C65.0128 39.7871 65.3785 38.8226 65.3785 37.6462C65.3785 36.4698 65.0128 35.5107 64.2815 34.7688C63.5502 34.0163 62.6176 33.6401 61.4836 33.6401C60.3496 33.6401 59.4169 34.0163 58.6856 34.7688C57.9543 35.5107 57.5887 36.4698 57.5887 37.6462C57.5887 38.8226 57.9543 39.7871 58.6856 40.5396Z" fill="white"/>
</svg>
