<svg width="172" height="30" viewBox="0 0 172 30" fill="none" xmlns="http://www.w3.org/2000/svg">
<path d="M13.863 0.692933V7.21467H7.4488V11.3723H12.7457L10.5938 17.8125H7.4488V29.2255H0V0.692933H13.863Z" fill="#FEC93A"/>
<path d="M16.8875 8.51902C16.8875 5.74728 17.6738 3.6413 19.2463 2.20109C20.8188 0.733695 22.9707 0 25.7019 0C28.4331 0 30.5574 0.760869 32.0748 2.28261C33.5921 3.80435 34.3508 5.89674 34.3508 8.55978V21.644C34.3508 23.3016 33.9921 24.7418 33.2749 25.9647C32.5576 27.1603 31.5368 28.0842 30.2126 28.7364C28.9159 29.3614 27.3986 29.6739 25.6605 29.6739C24.0328 29.6739 22.5569 29.375 21.2326 28.7772C19.9084 28.1793 18.8463 27.2826 18.0462 26.087C17.2737 24.8913 16.8875 23.4103 16.8875 21.644V8.51902ZM24.3777 20.9511C24.3777 21.4674 24.4191 21.8886 24.5018 22.2147C24.6122 22.5408 24.7639 22.7853 24.957 22.9484C25.1501 23.0842 25.3846 23.1522 25.6605 23.1522C25.9364 23.1522 26.1709 23.0707 26.364 22.9076C26.5571 22.7446 26.6951 22.5 26.7778 22.1739C26.8882 21.8478 26.9434 21.4402 26.9434 20.9511V8.88587C26.9434 8.31522 26.8882 7.86685 26.7778 7.54076C26.6675 7.21467 26.5158 6.99728 26.3226 6.88859C26.1295 6.75272 25.895 6.68478 25.6191 6.68478C25.3433 6.68478 25.1088 6.75272 24.9156 6.88859C24.7501 6.99728 24.6122 7.21467 24.5018 7.54076C24.4191 7.86685 24.3777 8.3288 24.3777 8.92663V20.9511Z" fill="#FEC93A"/>
<path d="M47.3057 7.98913L50.699 0.692933H58.7272L51.3611 14.3886L59.3065 29.2255H51.5267L47.3057 21.1141L43.1261 29.2255H35.3462L43.2502 14.3886L35.8428 0.692933H43.7882L47.3057 7.98913Z" fill="#FEC93A"/>
<path d="M80.2796 22.8261C80.2796 24.9728 79.6864 26.6576 78.5001 27.8804C77.3414 29.0761 75.424 29.7826 72.748 30L70.2651 24.3342C70.6237 24.3071 70.9548 24.2527 71.2582 24.1712C71.5893 24.0625 71.8652 23.9266 72.0859 23.7636C72.3342 23.5734 72.5273 23.3424 72.6652 23.0707C72.8032 22.7989 72.8721 22.4728 72.8721 22.0924V20.3397C72.5411 20.5027 72.1824 20.625 71.7962 20.7065C71.4376 20.788 71.0513 20.856 70.6375 20.9103C70.2237 20.9375 69.7685 20.9511 69.2719 20.9511C67.9477 20.9511 66.72 20.6386 65.5889 20.0136C64.4578 19.3886 63.5336 18.4647 62.8163 17.2418C62.1266 16.019 61.7817 14.5109 61.7817 12.7174V0.692933H69.2719V11.9837C69.2719 12.5272 69.3409 12.9891 69.4788 13.3696C69.6167 13.75 69.8236 14.0353 70.0995 14.2255C70.3754 14.4158 70.7203 14.5109 71.1341 14.5109C71.3548 14.5109 71.5617 14.4565 71.7548 14.3478C71.9755 14.2391 72.1548 14.0897 72.2928 13.8995C72.4583 13.6821 72.5825 13.4511 72.6652 13.2065C72.748 12.9348 72.7894 12.6495 72.7894 12.3505V0.692933H80.2796V22.8261Z" fill="#FEC93A"/>
<path d="M108.66 7.41848C108.329 7.30978 107.984 7.21467 107.625 7.13315C107.294 7.05163 106.963 6.98369 106.632 6.92935C106.328 6.875 106.025 6.84783 105.722 6.84783C105.087 6.84783 104.521 6.92935 104.025 7.09239C103.528 7.22826 103.142 7.48641 102.866 7.86685C102.59 8.24728 102.452 8.81793 102.452 9.5788V20.7065C102.452 21.25 102.48 21.6984 102.535 22.0516C102.618 22.4049 102.742 22.6766 102.908 22.8668C103.073 23.0299 103.28 23.1114 103.528 23.1114C103.721 23.1114 103.887 23.0707 104.025 22.9891C104.19 22.8804 104.315 22.731 104.397 22.5408C104.508 22.3505 104.577 22.106 104.604 21.8071C104.659 21.481 104.687 21.1141 104.687 20.7065V19.9728H103.57L103.156 13.5326H112.136V29.2255H107.832L107.666 28.6957C107.363 28.9674 106.963 29.1576 106.466 29.2663C105.997 29.4022 105.515 29.4837 105.018 29.5109C104.549 29.5652 104.149 29.606 103.818 29.6332C102.245 29.6603 100.783 29.3886 99.4314 28.8179C98.1072 28.2201 97.0451 27.3098 96.245 26.087C95.4449 24.8641 95.0449 23.3288 95.0449 21.481V8.68207C95.0449 6.77989 95.4036 5.21739 96.1208 3.99456C96.8381 2.74456 97.8451 1.82065 99.1418 1.22282C100.466 0.597825 102.039 0.285325 103.859 0.285325C104.659 0.285325 105.418 0.339673 106.135 0.448369C106.88 0.557064 107.598 0.720108 108.287 0.9375C109.005 1.12772 109.68 1.35869 110.315 1.63043L108.66 7.41848Z" fill="#FEC93A"/>
<path d="M115.332 8.51902C115.332 5.74728 116.118 3.6413 117.691 2.20109C119.263 0.733695 121.415 0 124.146 0C126.878 0 129.002 0.760869 130.519 2.28261C132.037 3.80435 132.795 5.89674 132.795 8.55978V21.644C132.795 23.3016 132.437 24.7418 131.719 25.9647C131.002 27.1603 129.981 28.0842 128.657 28.7364C127.36 29.3614 125.843 29.6739 124.105 29.6739C122.477 29.6739 121.001 29.375 119.677 28.7772C118.353 28.1793 117.291 27.2826 116.491 26.087C115.718 24.8913 115.332 23.4103 115.332 21.644V8.51902ZM122.822 20.9511C122.822 21.4674 122.863 21.8886 122.946 22.2147C123.057 22.5408 123.208 22.7853 123.401 22.9484C123.595 23.0842 123.829 23.1522 124.105 23.1522C124.381 23.1522 124.615 23.0707 124.808 22.9076C125.002 22.7446 125.139 22.5 125.222 22.1739C125.333 21.8478 125.388 21.4402 125.388 20.9511V8.88587C125.388 8.31522 125.333 7.86685 125.222 7.54076C125.112 7.21467 124.96 6.99728 124.767 6.88859C124.574 6.75272 124.339 6.68478 124.064 6.68478C123.788 6.68478 123.553 6.75272 123.36 6.88859C123.195 6.99728 123.057 7.21467 122.946 7.54076C122.863 7.86685 122.822 8.3288 122.822 8.92663V20.9511Z" fill="#FEC93A"/>
<path d="M136.27 29.2255V0.692933H143.719V22.7038H151.251V29.2255H136.27Z" fill="#FEC93A"/>
<path d="M162.358 0.611412C164.344 0.611412 166.055 0.937499 167.489 1.58967C168.924 2.24185 170.027 3.23369 170.8 4.56522C171.6 5.86956 172 7.5 172 9.45652V20.788C172 22.5815 171.669 24.1168 171.007 25.394C170.372 26.644 169.393 27.5951 168.069 28.2473C166.772 28.8995 165.144 29.2255 163.186 29.2255H154.537V0.611412H162.358ZM163.02 22.7038C163.268 22.7038 163.489 22.6766 163.682 22.6223C163.875 22.5408 164.027 22.4185 164.137 22.2554C164.275 22.0924 164.372 21.8886 164.427 21.644C164.482 21.3995 164.51 21.1005 164.51 20.7473V9.13043C164.51 8.66848 164.455 8.28804 164.344 7.98913C164.262 7.69022 164.11 7.47283 163.889 7.33696C163.696 7.17391 163.434 7.09239 163.103 7.09239H161.986V22.7038H163.02Z" fill="#FEC93A"/>
</svg>
