<svg width="101" height="40" viewBox="0 0 101 40" fill="none" xmlns="http://www.w3.org/2000/svg">
<path d="M6.51695 20.1775C5.36819 20.1775 4.37442 19.9496 3.53564 19.4938C2.71509 19.0197 2.0313 18.3815 1.48427 17.5791C0.955479 16.7586 0.563441 15.8378 0.30816 14.8166C0.0711139 13.7773 -0.0291749 12.7015 0.00729373 11.5892C0.080231 9.60163 0.444918 7.8876 1.10135 6.44709C1.75779 5.00658 2.58745 3.82135 3.59034 2.8914C4.59323 1.96145 5.66905 1.27766 6.81781 0.840037C7.98481 0.384179 9.10622 0.15625 10.182 0.15625C11.0938 0.15625 11.9143 0.311241 12.6437 0.621224C13.3913 0.912974 13.9839 1.3506 14.4215 1.9341C14.8592 2.49936 15.078 3.19226 15.078 4.01281C15.078 4.65101 14.8865 5.27098 14.5036 5.87271C14.1389 6.45621 13.5736 6.93942 12.8078 7.32234C12.0602 7.68703 11.0938 7.86937 9.90853 7.86937C10.1091 7.28587 10.255 6.77531 10.3462 6.33769C10.4373 5.90006 10.4829 5.52626 10.4829 5.21628C10.4829 4.57807 10.337 4.14957 10.0453 3.93076C9.75354 3.69371 9.38885 3.57519 8.95123 3.57519C8.42244 3.57519 7.92099 3.76665 7.4469 4.14957C6.97281 4.53249 6.5443 5.05217 6.16138 5.7086C5.79669 6.3468 5.50494 7.05794 5.28613 7.84202C5.06732 8.62609 4.93968 9.41929 4.90321 10.2216C4.83027 12.2456 5.12202 13.7773 5.77846 14.8166C6.43489 15.856 7.28279 16.3757 8.32215 16.3757C9.12446 16.3757 10.0088 16.0475 10.9752 15.391C11.9599 14.7346 12.9263 13.7408 13.8745 12.4097L14.2301 12.5738C13.993 14.2149 13.4733 15.6007 12.671 16.7313C11.8687 17.8618 10.9205 18.7188 9.82648 19.3023C8.75065 19.8858 7.64748 20.1775 6.51695 20.1775Z" fill="#E630CE"/>
<path d="M25.6365 20.1502C24.9983 20.1502 24.4421 19.9405 23.9681 19.5211C23.494 19.1017 23.2569 18.4179 23.2569 17.4697C23.2569 17.3786 23.2569 17.2874 23.2569 17.1962C23.2569 17.1051 23.266 17.0139 23.2843 16.9227C22.7372 18.0168 22.1173 18.8282 21.4244 19.357C20.7497 19.8676 20.0659 20.1228 19.373 20.1228C18.7348 20.1228 18.1331 19.904 17.5678 19.4664C17.0025 19.0105 16.5467 18.345 16.2002 17.4697C15.8538 16.5945 15.6806 15.5369 15.6806 14.297C15.6806 13.0206 15.8538 11.8809 16.2002 10.878C16.5649 9.87514 17.039 9.02725 17.6225 8.33434C18.206 7.64144 18.8442 7.12176 19.5371 6.77531C20.23 6.41062 20.9047 6.22828 21.5611 6.22828C22.2905 6.22828 22.9469 6.45621 23.5304 6.91207C24.1139 7.34969 24.5151 8.05171 24.7339 9.01813C24.7886 8.70815 24.8251 8.42552 24.8433 8.17024C24.8798 7.91496 24.898 7.74173 24.898 7.65056C24.9162 7.15823 25.1624 6.79354 25.6365 6.5565C26.1288 6.31945 26.6667 6.20093 27.2502 6.20093C27.7608 6.20093 28.244 6.30122 28.6999 6.5018C29.1557 6.70237 29.4657 7.03971 29.6298 7.5138L29.6845 7.67791C29.4657 8.17024 29.2469 8.76285 29.0281 9.45576C28.8093 10.1487 28.6087 10.878 28.4263 11.6439C28.244 12.3915 28.0981 13.13 27.9887 13.8593C27.8793 14.5705 27.8246 15.1996 27.8246 15.7466C27.8246 16.3483 27.8884 16.7677 28.0161 17.0048C28.1437 17.2236 28.2987 17.333 28.481 17.333C28.791 17.333 29.0737 17.1142 29.3289 16.6765L29.5478 16.786C29.5478 17.4059 29.3472 17.9712 28.946 18.4817C28.5449 18.9923 28.0434 19.4026 27.4417 19.7126C26.84 20.0043 26.2382 20.1502 25.6365 20.1502ZM21.1782 16.6765C21.6523 16.6765 22.172 16.2572 22.7372 15.4184C23.3207 14.5614 23.8222 13.3397 24.2416 11.7533C24.278 11.5892 24.3145 11.4342 24.351 11.2883C24.3874 11.1242 24.4148 10.9692 24.433 10.8233C24.1413 10.1487 23.8313 9.67457 23.5031 9.40105C23.1931 9.1093 22.8831 8.96343 22.5731 8.96343C22.1173 8.96343 21.6888 9.20959 21.2876 9.70192C20.9047 10.176 20.5856 10.7777 20.3303 11.5071C20.0933 12.2365 19.9747 12.9659 19.9747 13.6952C19.9747 14.6981 20.0841 15.4457 20.303 15.9381C20.54 16.4304 20.8317 16.6765 21.1782 16.6765Z" fill="#E630CE"/>
<path d="M35.7155 20.2596C34.585 20.2596 33.6459 20.1046 32.8983 19.7946C32.1507 19.4846 31.5946 19.0926 31.2299 18.6185C30.8652 18.1262 30.6828 17.6339 30.6828 17.1415C30.6828 16.4486 30.9928 15.8378 31.6128 15.309C32.2328 14.7619 33.0715 14.4884 34.1291 14.4884C34.1291 15.4184 34.2477 16.166 34.4847 16.7313C34.7217 17.2783 35.0226 17.6703 35.3873 17.9074C35.7702 18.1444 36.1349 18.2629 36.4814 18.2629C36.9007 18.2629 37.2472 18.1444 37.5207 17.9074C37.8125 17.6521 37.9583 17.3421 37.9583 16.9774C37.9583 16.4669 37.6939 16.0201 37.1651 15.6372C36.6364 15.2543 35.9526 14.8258 35.1138 14.3517C34.6944 14.0964 34.2385 13.8046 33.7462 13.4764C33.2539 13.13 32.8345 12.7197 32.488 12.2456C32.1416 11.7533 31.9684 11.1698 31.9684 10.4951C31.9684 9.78397 32.1689 9.15489 32.5701 8.60786C32.9895 8.06083 33.5365 7.60497 34.2112 7.24029C34.8859 6.85736 35.6152 6.57473 36.3993 6.39239C37.1834 6.19181 37.9492 6.09152 38.6968 6.09152C40.1009 6.09152 41.1585 6.37416 41.8696 6.93942C42.5807 7.50468 42.9363 8.10642 42.9363 8.74462C42.9363 9.29165 42.6628 9.78397 42.1158 10.2216C41.5687 10.6592 40.73 10.878 39.5994 10.878C39.6177 9.94808 39.4262 9.27341 39.025 8.85402C38.6239 8.4164 38.1954 8.19759 37.7395 8.19759C37.4113 8.19759 37.1378 8.29788 36.919 8.49845C36.7002 8.69903 36.5908 8.99078 36.5908 9.3737C36.5908 9.81133 36.7275 10.1942 37.001 10.5225C37.2928 10.8324 37.6484 11.1151 38.0677 11.3704C38.5054 11.6074 38.9521 11.8353 39.408 12.0541C40.0279 12.3459 40.6114 12.6559 41.1585 12.9841C41.7055 13.3123 42.1522 13.6861 42.4987 14.1055C42.8451 14.5249 43.0184 15.0355 43.0184 15.6372C43.0184 16.4577 42.681 17.2236 42.0064 17.9347C41.3499 18.6276 40.4656 19.1929 39.3533 19.6305C38.241 20.0499 37.0284 20.2596 35.7155 20.2596Z" fill="#E630CE"/>
<path d="M49.6699 5.38038C48.9405 5.38038 48.3388 5.16157 47.8647 4.72395C47.4089 4.26809 47.1809 3.70283 47.1809 3.02816C47.1809 2.29878 47.4544 1.6697 48.0015 1.1409C48.5485 0.612107 49.214 0.34771 49.9981 0.34771C50.7275 0.34771 51.3201 0.575639 51.776 1.0315C52.2501 1.48736 52.4871 2.05262 52.4871 2.72729C52.4871 3.45666 52.2136 4.08575 51.6666 4.61454C51.1195 5.1251 50.454 5.38038 49.6699 5.38038ZM47.7553 20.1228C47.0442 20.1228 46.406 19.8767 45.8407 19.3843C45.2754 18.8738 44.9928 18.0624 44.9928 16.9501C44.9928 16.3119 45.0749 15.7192 45.239 15.1722C45.4213 14.607 45.6219 14.0599 45.8407 13.5311C46.0777 13.0023 46.2783 12.4918 46.4424 11.9994C46.6248 11.4889 46.7159 10.9874 46.7159 10.4951C46.7159 10.0575 46.643 9.74751 46.4971 9.56516C46.3513 9.36458 46.178 9.2643 45.9775 9.2643C45.6675 9.2643 45.3666 9.46487 45.0749 9.86603L44.8834 9.75662C44.9563 9.02725 45.1843 8.40728 45.5672 7.89672C45.9683 7.36793 46.4515 6.95765 47.0168 6.6659C47.6003 6.37415 48.1747 6.22828 48.74 6.22828C49.4329 6.22828 50.0346 6.45621 50.5452 6.91207C51.0557 7.34969 51.311 8.06995 51.311 9.07283C51.311 9.67457 51.2198 10.3128 51.0375 10.9874C50.8734 11.6439 50.6728 12.3003 50.4357 12.9567C50.2169 13.6132 50.0164 14.224 49.834 14.7893C49.6699 15.3546 49.5879 15.8378 49.5879 16.2389C49.5879 16.5854 49.6517 16.8315 49.7793 16.9774C49.9252 17.1233 50.0802 17.1962 50.2443 17.1962C50.4084 17.1962 50.5634 17.1506 50.7093 17.0595C50.8734 16.9501 50.9919 16.8315 51.0648 16.7039L51.2563 16.7586C51.2563 17.4333 51.0739 18.0259 50.7093 18.5365C50.3628 19.0288 49.9252 19.4208 49.3964 19.7126C48.8676 19.9861 48.3206 20.1228 47.7553 20.1228Z" fill="#E630CE"/>
<path d="M56.5424 20.0955C55.8677 20.0955 55.2569 19.8311 54.7098 19.3023C54.1628 18.7553 53.8893 17.9985 53.8893 17.0321C53.8893 16.558 53.9531 16.0201 54.0808 15.4184C54.2084 14.8166 54.3452 14.2058 54.491 13.5858C54.6551 12.9659 54.801 12.3824 54.9287 11.8353C55.0563 11.2883 55.1201 10.8416 55.1201 10.4951C55.1201 10.1304 55.0472 9.84779 54.9013 9.64722C54.7554 9.4284 54.564 9.319 54.3269 9.319C54.0169 9.319 53.6796 9.50134 53.3149 9.86603L53.1508 9.75662C53.1326 9.46487 53.1964 9.11842 53.3423 8.71727C53.4881 8.31611 53.707 7.93319 53.9987 7.5685C54.3087 7.18558 54.7007 6.86648 55.1748 6.6112C55.6489 6.35592 56.2142 6.22828 56.8706 6.22828C57.837 6.22828 58.5482 6.51091 59.004 7.07618C59.4781 7.62321 59.7152 8.29788 59.7152 9.10019C59.7152 9.39194 59.6878 9.67457 59.6331 9.94808C60.016 9.38282 60.4901 8.81755 61.0554 8.25229C61.6207 7.66879 62.2406 7.18558 62.9153 6.80266C63.6082 6.41974 64.3193 6.22828 65.0487 6.22828C65.9057 6.22828 66.4892 6.5018 66.7992 7.04882C67.1092 7.59585 67.2642 8.27964 67.2642 9.10019C67.2642 9.86603 67.1821 10.6866 67.018 11.5618C66.8539 12.4371 66.6898 13.285 66.5257 14.1055C66.3616 14.9078 66.2795 15.5825 66.2795 16.1295C66.2795 16.8589 66.4892 17.2236 66.9086 17.2236C67.1274 17.2236 67.3189 17.1598 67.483 17.0321C67.6471 16.8862 67.7565 16.7495 67.8112 16.6218L68.0027 16.7039C68.0027 17.3786 67.8112 17.9712 67.4283 18.4817C67.0636 18.9923 66.5986 19.3935 66.0334 19.6852C65.4681 19.9587 64.8937 20.0955 64.3102 20.0955C63.5991 20.0955 62.97 19.8493 62.423 19.357C61.8759 18.8647 61.6024 18.0624 61.6024 16.9501C61.6024 16.2936 61.6845 15.5825 61.8486 14.8166C62.0309 14.0508 62.2042 13.3123 62.3683 12.6012C62.5324 11.89 62.6144 11.3065 62.6144 10.8507C62.6144 10.5772 62.5597 10.3675 62.4503 10.2216C62.3591 10.0575 62.1859 9.97543 61.9306 9.97543C61.5112 9.97543 61.0463 10.1669 60.5357 10.5498C60.0434 10.9327 59.6149 11.4433 59.2502 12.0815C58.9037 12.7197 58.7305 13.4217 58.7305 14.1876C58.7305 14.6799 58.7852 15.154 58.8946 15.6098C59.0223 16.0657 59.0861 16.558 59.0861 17.0868C59.0861 18.0715 58.8308 18.8191 58.3202 19.3296C57.8097 19.8402 57.2171 20.0955 56.5424 20.0955Z" fill="#E630CE"/>
<path d="M75.4113 20.2049C74.0437 20.2049 72.9132 19.9314 72.0197 19.3843C71.1262 18.8373 70.4607 18.1171 70.023 17.2236C69.6037 16.3119 69.394 15.3454 69.394 14.3243C69.394 13.3579 69.5672 12.3915 69.9136 11.4251C70.2783 10.4586 70.798 9.5834 71.4727 8.79932C72.1656 7.99701 73.0044 7.35881 73.989 6.88472C74.9737 6.39239 76.1042 6.14623 77.3806 6.14623C78.7482 6.14623 79.8696 6.42886 80.7448 6.99412C81.6383 7.54115 82.2947 8.27052 82.7141 9.18224C83.1518 10.094 83.3706 11.0695 83.3706 12.1089C83.3706 13.057 83.1973 14.0143 82.8509 14.9808C82.5044 15.9289 81.9848 16.8042 81.2919 17.6065C80.6172 18.3906 79.7875 19.0197 78.8029 19.4938C77.8182 19.9678 76.6877 20.2049 75.4113 20.2049ZM76.1498 17.88C76.6421 17.88 77.0524 17.6247 77.3806 17.1142C77.7088 16.6036 77.955 15.9563 78.1191 15.1722C78.2832 14.3699 78.3652 13.5585 78.3652 12.7379C78.3652 12.0086 78.2923 11.3248 78.1464 10.6866C78.0188 10.0301 77.8182 9.50134 77.5447 9.10019C77.2712 8.6808 76.9156 8.4711 76.478 8.4711C76.0039 8.4711 75.5936 8.72638 75.2472 9.23694C74.919 9.74751 74.6728 10.3948 74.5087 11.1789C74.3446 11.963 74.2625 12.7744 74.2625 13.6132C74.2625 14.3426 74.3263 15.0355 74.454 15.6919C74.5999 16.3301 74.8096 16.8589 75.0831 17.2783C75.3566 17.6794 75.7122 17.88 76.1498 17.88Z" fill="#E630CE"/>
<path d="M55.784 35.8223C55.0729 35.8223 54.4916 35.6172 54.0403 35.2069C53.6027 34.783 53.3839 34.1334 53.3839 33.2581C53.3839 32.8205 53.4318 32.3623 53.5275 31.8837C53.6369 31.3914 53.7532 30.9127 53.8762 30.4477C54.013 29.9691 54.1292 29.5383 54.225 29.1554C54.3207 28.7725 54.3686 28.4648 54.3686 28.2323C54.3686 27.9998 54.3207 27.8357 54.225 27.7399C54.1292 27.6305 54.013 27.5758 53.8762 27.5758C53.7395 27.5758 53.6027 27.6237 53.466 27.7194C53.3292 27.8015 53.213 27.9314 53.1172 28.1092L52.9531 28.0477C52.9805 27.4869 53.1377 27.0083 53.4249 26.6117C53.7121 26.2151 54.0677 25.9142 54.4916 25.7091C54.9293 25.504 55.3669 25.4014 55.8045 25.4014C56.1601 25.4014 56.502 25.4766 56.8302 25.627C57.1584 25.7638 57.4183 25.9826 57.6097 26.2835C57.8149 26.5707 57.9106 26.9399 57.8969 27.3912C57.8832 27.6921 57.8285 28.0613 57.7328 28.499C57.6371 28.9366 57.5208 29.4084 57.3841 29.9144C57.261 30.4067 57.1516 30.8854 57.0558 31.3503C56.9601 31.8153 56.9123 32.2256 56.9123 32.5812C56.9123 32.882 56.9533 33.1214 57.0353 33.2991C57.1311 33.4769 57.2883 33.5658 57.5071 33.5658C57.7396 33.5658 58.0473 33.4427 58.4303 33.1966C58.8132 32.9504 59.1961 32.5948 59.579 32.1299C59.497 31.364 59.4559 30.6871 59.4559 30.099C59.4559 28.5947 59.6748 27.5075 60.1124 26.8373C60.5637 26.1672 61.1244 25.8322 61.7945 25.8322C62.2868 25.8322 62.6219 25.9963 62.7997 26.3245C62.9774 26.6527 63.0663 27.0904 63.0663 27.6374C63.0663 28.4442 62.9296 29.2033 62.6561 29.9144C62.3826 30.6255 62.0612 31.1931 61.6919 31.617C61.7193 32.2324 61.8424 32.7111 62.0612 33.053C62.2937 33.3949 62.5672 33.5658 62.8817 33.5658C63.1963 33.5658 63.5176 33.388 63.8459 33.0325C64.1878 32.6769 64.4818 32.1299 64.7279 31.3914C64.9741 30.6529 65.1177 29.7161 65.1587 28.581C65.1724 27.6647 65.1109 26.9946 64.9741 26.5707V26.4681C65.1656 26.1536 65.4664 25.8869 65.8767 25.6681C66.3007 25.4356 66.7246 25.3193 67.1486 25.3193C67.4494 25.3193 67.7229 25.4082 67.9691 25.586C68.2289 25.7501 68.4341 26.0647 68.5845 26.5296C68.7349 26.9809 68.7896 27.6374 68.7486 28.499C68.7076 29.7024 68.5093 30.7623 68.1537 31.6786C67.7981 32.5812 67.34 33.3402 66.7793 33.9556C66.2323 34.571 65.6374 35.036 64.9946 35.3505C64.3519 35.665 63.7159 35.8223 63.0869 35.8223C62.3757 35.8223 61.7261 35.6309 61.1381 35.2479C60.55 34.8513 60.1055 34.2975 59.8047 33.5863C59.1893 34.2291 58.5533 34.7624 57.8969 35.1864C57.2541 35.6103 56.5498 35.8223 55.784 35.8223Z" fill="#00DEA7"/>
<path d="M77.2663 35.8428C76.7876 35.8428 76.3705 35.6856 76.0149 35.371C75.6594 35.0565 75.4816 34.5436 75.4816 33.8325C75.4816 33.7641 75.4816 33.6957 75.4816 33.6274C75.4816 33.559 75.4884 33.4906 75.5021 33.4222C75.0918 34.2428 74.6268 34.8513 74.1072 35.2479C73.6012 35.6309 73.0883 35.8223 72.5686 35.8223C72.09 35.8223 71.6387 35.6582 71.2147 35.33C70.7908 34.9881 70.4489 34.4889 70.1891 33.8325C69.9292 33.1761 69.7993 32.3829 69.7993 31.4529C69.7993 30.4956 69.9292 29.6409 70.1891 28.8887C70.4626 28.1365 70.8181 27.5006 71.2558 26.9809C71.6934 26.4613 72.172 26.0715 72.6917 25.8117C73.2114 25.5382 73.7174 25.4014 74.2097 25.4014C74.7568 25.4014 75.2491 25.5723 75.6867 25.9142C76.1243 26.2425 76.4252 26.769 76.5893 27.4938C76.6303 27.2613 76.6577 27.0493 76.6714 26.8579C76.6987 26.6664 76.7124 26.5365 76.7124 26.4681C76.7261 26.0989 76.9107 25.8253 77.2663 25.6476C77.6355 25.4698 78.0389 25.3809 78.4766 25.3809C78.8595 25.3809 79.2219 25.4561 79.5638 25.6065C79.9057 25.757 80.1382 26.01 80.2612 26.3655L80.3023 26.4886C80.1382 26.8579 79.9741 27.3023 79.8099 27.822C79.6458 28.3417 79.4954 28.8887 79.3586 29.4631C79.2219 30.0238 79.1125 30.5777 79.0304 31.1247C78.9484 31.658 78.9073 32.1299 78.9073 32.5401C78.9073 32.9914 78.9552 33.306 79.0509 33.4838C79.1467 33.6479 79.2629 33.7299 79.3997 33.7299C79.6322 33.7299 79.8441 33.5658 80.0356 33.2376L80.1997 33.3197C80.1997 33.7846 80.0493 34.2086 79.7484 34.5915C79.4475 34.9744 79.0715 35.2821 78.6202 35.5146C78.1689 35.7334 77.7176 35.8428 77.2663 35.8428ZM73.9225 33.2376C74.2781 33.2376 74.6679 32.9231 75.0918 32.294C75.5294 31.6512 75.9055 30.7349 76.2201 29.5451C76.2474 29.4221 76.2748 29.3058 76.3021 29.1964C76.3295 29.0733 76.35 28.9571 76.3637 28.8477C76.1448 28.3417 75.9124 27.9861 75.6662 27.781C75.4337 27.5622 75.2012 27.4528 74.9687 27.4528C74.6268 27.4528 74.3055 27.6374 74.0046 28.0066C73.7174 28.3622 73.4781 28.8135 73.2866 29.3605C73.1088 29.9076 73.0199 30.4546 73.0199 31.0016C73.0199 31.7538 73.102 32.3145 73.2661 32.6837C73.4439 33.053 73.6627 33.2376 73.9225 33.2376Z" fill="#00DEA7"/>
<path d="M85.6246 39.843C84.9408 39.843 84.3869 39.631 83.963 39.2071C83.5527 38.7968 83.3476 38.2361 83.3476 37.5249C83.3476 37.1557 83.4091 36.7454 83.5322 36.2941C83.669 35.8565 83.8878 35.3915 84.1886 34.8992C83.5185 34.8582 82.9647 34.6325 82.527 34.2223C82.1031 33.812 81.8911 33.1897 81.8911 32.3555C81.8911 31.8632 81.9527 31.3367 82.0757 30.776C82.2125 30.2016 82.3424 29.6682 82.4655 29.1759C82.5886 28.6699 82.6501 28.2801 82.6501 28.0066C82.6501 27.8015 82.6091 27.6579 82.527 27.5758C82.445 27.4801 82.3493 27.4322 82.2398 27.4322C82.1304 27.4322 82.0074 27.4801 81.8706 27.5758C81.7475 27.6579 81.6518 27.7878 81.5834 27.9656L81.2347 27.5964C81.3167 27.1724 81.4945 26.7963 81.768 26.4681C82.0415 26.1399 82.3766 25.88 82.7732 25.6886C83.1698 25.4971 83.5801 25.4014 84.004 25.4014C84.4827 25.4014 84.8998 25.5587 85.2553 25.8732C85.6109 26.1741 85.7887 26.7279 85.7887 27.5348C85.7887 28.0408 85.7272 28.5878 85.6041 29.1759C85.481 29.7503 85.3579 30.2973 85.2348 30.817C85.1118 31.323 85.0502 31.7264 85.0502 32.0273C85.0502 32.3008 85.1049 32.5059 85.2143 32.6427C85.3374 32.7658 85.4742 32.8273 85.6246 32.8273C85.8161 32.8273 86.0349 32.7248 86.281 32.5196C86.5272 32.3008 86.7597 31.9452 86.9785 31.4529C87.1973 30.9606 87.3409 30.2973 87.4093 29.4631C87.4366 29.2033 87.4571 28.875 87.4708 28.4784C87.4845 28.0682 87.4982 27.6921 87.5118 27.3502C87.5255 26.9946 87.5324 26.7758 87.5324 26.6938C87.5324 26.2014 87.7101 25.8595 88.0657 25.6681C88.435 25.4629 88.8384 25.3604 89.276 25.3604C89.6589 25.3604 90.0213 25.4356 90.3632 25.586C90.7051 25.7365 90.9376 25.9895 91.0607 26.345L91.1017 26.4681C90.9786 26.5775 90.8692 26.9468 90.7735 27.5758C90.6915 28.2049 90.5889 29.046 90.4658 30.099C90.3838 30.7828 90.2812 31.5555 90.1581 32.4171C90.035 33.2786 89.8641 34.147 89.6453 35.0223C89.4401 35.8839 89.1598 36.677 88.8042 37.4019C88.4623 38.1404 88.0315 38.7284 87.5118 39.166C86.9922 39.6173 86.3631 39.843 85.6246 39.843ZM85.1323 37.4839C85.5562 37.4839 85.9323 37.0942 86.2605 36.3146C86.6024 35.5488 86.8691 34.4547 87.0605 33.0325C86.1853 34.1539 85.5836 35.036 85.2553 35.6787C84.9271 36.3215 84.763 36.7865 84.763 37.0736C84.763 37.3472 84.8861 37.4839 85.1323 37.4839Z" fill="#00DEA7"/>
<path d="M95.5231 35.9249C94.6752 35.9249 93.9709 35.8086 93.4102 35.5761C92.8494 35.3437 92.4323 35.0496 92.1588 34.6941C91.8853 34.3248 91.7486 33.9556 91.7486 33.5863C91.7486 33.0667 91.981 32.6085 92.446 32.2119C92.911 31.8016 93.5401 31.5965 94.3333 31.5965C94.3333 32.294 94.4222 32.8547 94.5999 33.2786C94.7777 33.6889 95.0034 33.9829 95.2769 34.1607C95.5641 34.3385 95.8376 34.4274 96.0974 34.4274C96.412 34.4274 96.6718 34.3385 96.877 34.1607C97.0958 33.9693 97.2052 33.7368 97.2052 33.4632C97.2052 33.0803 97.0069 32.7453 96.6103 32.4581C96.2137 32.1709 95.7008 31.8495 95.0718 31.4939C94.7572 31.3025 94.4153 31.0837 94.0461 30.8375C93.6768 30.5777 93.3623 30.27 93.1024 29.9144C92.8426 29.5451 92.7127 29.1075 92.7127 28.6015C92.7127 28.0682 92.8631 27.5964 93.164 27.1861C93.4785 26.7758 93.8888 26.4339 94.3948 26.1604C94.9008 25.8732 95.4478 25.6612 96.0359 25.5245C96.624 25.374 97.1983 25.2988 97.759 25.2988C98.8121 25.2988 99.6053 25.5108 100.139 25.9348C100.672 26.3587 100.939 26.81 100.939 27.2886C100.939 27.6989 100.734 28.0682 100.323 28.3964C99.913 28.7246 99.2839 28.8887 98.436 28.8887C98.4497 28.1912 98.3061 27.6852 98.0052 27.3707C97.7043 27.0425 97.383 26.8784 97.0411 26.8784C96.7949 26.8784 96.5898 26.9536 96.4257 27.104C96.2615 27.2545 96.1795 27.4733 96.1795 27.7605C96.1795 28.0887 96.2821 28.3759 96.4872 28.622C96.706 28.8545 96.9727 29.0665 97.2872 29.258C97.6154 29.4357 97.9505 29.6067 98.2924 29.7708C98.7574 29.9896 99.195 30.2221 99.6053 30.4683C100.016 30.7144 100.351 30.9948 100.61 31.3093C100.87 31.6239 101 32.0068 101 32.4581C101 33.0735 100.747 33.6479 100.241 34.1812C99.7489 34.7009 99.0856 35.1249 98.2514 35.4531C97.4171 35.7676 96.5077 35.9249 95.5231 35.9249Z" fill="#00DEA7"/>
</svg>
