<svg width="124" height="22" viewBox="0 0 124 22" fill="none" xmlns="http://www.w3.org/2000/svg">
<path d="M0 21.399V0.601562H6.80374C8.111 0.601562 9.24991 0.829344 10.2205 1.28491C11.2108 1.74047 11.9833 2.3842 12.5379 3.2161C13.0925 4.02819 13.3698 4.97893 13.3698 6.06832C13.3698 7.1379 13.0628 8.07874 12.4488 8.89083C11.8347 9.68311 11.0028 10.2773 9.95306 10.6735C11.2207 11.0498 12.221 11.6737 12.9538 12.5452C13.7065 13.3969 14.0828 14.417 14.0828 15.6054C14.0828 16.7542 13.7857 17.7644 13.1915 18.6359C12.6171 19.5074 11.8149 20.1908 10.785 20.686C9.7748 21.1613 8.57647 21.399 7.18997 21.399H0ZM3.50586 9.3662H6.44721C7.47718 9.3662 8.29917 9.0988 8.91319 8.56401C9.52721 8.02922 9.83422 7.31617 9.83422 6.42485C9.83422 5.51372 9.52721 4.80067 8.91319 4.28568C8.29917 3.75089 7.47718 3.48349 6.44721 3.48349H3.50586V9.3662ZM3.50586 18.5171H6.77403C7.90303 18.5171 8.80425 18.2299 9.47769 17.6555C10.1709 17.0613 10.5176 16.2789 10.5176 15.3083C10.5176 14.318 10.1808 13.5356 9.5074 12.9612C8.83396 12.3868 7.92284 12.0996 6.77403 12.0996H3.50586V18.5171Z" fill="white"/>
<path d="M17.8742 21.399V0.601562H31.4817V3.63205H21.4395V9.42562H27.9461V12.3967H21.4395V18.3685H31.6005V21.399H17.8742Z" fill="white"/>
<path d="M40.2347 21.399V3.63205H33.7875V0.601562H50.2472V3.63205H43.8V21.399H40.2347Z" fill="white"/>
<path d="M91.75 21.399V0.601562H95.345L102.862 15.1598L102.802 0.601562H105.833V21.399H102.535L94.7211 6.36543L94.7805 21.399H91.75Z" fill="#0DFF00"/>
<path d="M110.278 21.399V0.601562H123.885V3.63205H113.843V9.42562H120.35V12.3967H113.843V18.3685H124.004V21.399H110.278Z" fill="#0DFF00"/>
<path d="M52.6797 21.399V19.0222L63.0487 3.54292L52.7391 3.63205V0.601562H67.535V2.97841L57.1957 18.4279L67.7133 18.3685V21.399H52.6797Z" fill="#0DFF00"/>
<path d="M79.477 21.399C78.2948 21.399 77.1346 21.2017 76.0288 20.8139C75.5689 20.6521 75.327 20.148 75.4881 19.6881C75.6499 19.2282 76.1527 18.9861 76.6139 19.1479C77.5313 19.47 78.4946 19.6333 79.4767 19.6333C84.2362 19.6333 88.1094 15.7606 88.1094 11.0006C88.1094 9.59117 87.763 8.19327 87.1059 6.95762C86.8776 6.52701 87.0414 5.99231 87.4717 5.76369C87.9026 5.5353 88.4368 5.69821 88.6657 6.12882C89.4574 7.61861 89.8751 9.30307 89.8751 11.0004C89.8753 16.7345 85.2106 21.399 79.477 21.399ZM73.1771 19.016C72.9693 19.016 72.7609 18.9432 72.5931 18.7945C70.3593 16.8198 69.0781 13.9793 69.0781 11.0008C69.0781 9.55943 69.3678 8.16397 69.9387 6.8533C70.1333 6.40627 70.6536 6.20162 71.1004 6.39606C71.5474 6.59094 71.7521 7.11121 71.5574 7.55802C71.084 8.64473 70.8443 9.80337 70.8443 11.0008C70.8443 13.4735 71.9081 15.8322 73.7624 17.4716C74.1277 17.7946 74.1621 18.3524 73.8392 18.7175C73.6645 18.9153 73.4217 19.016 73.1771 19.016ZM72.7485 5.15485C72.5225 5.15485 72.2968 5.06829 72.1241 4.89561C71.7794 4.55112 71.7794 3.99179 72.1241 3.6473C74.088 1.68318 76.6989 0.601562 79.477 0.601562C81.9489 0.601562 84.3454 1.4843 86.2237 3.08708C86.5943 3.40359 86.6381 3.96093 86.322 4.33227C86.005 4.70272 85.4479 4.74711 85.0772 4.4306C83.518 3.09995 81.5294 2.36704 79.4767 2.36704C77.1708 2.36704 75.0029 3.26553 73.3724 4.89538C73.2006 5.06851 72.9742 5.15485 72.7485 5.15485Z" fill="#FF6B00"/>
<path d="M79.48 16.2854C76.5658 16.2854 74.1953 13.9149 74.1953 11.0012C74.1953 8.08733 76.5658 5.7168 79.48 5.7168C82.3936 5.7168 84.7642 8.08733 84.7642 11.0012C84.7642 13.9149 82.3936 16.2854 79.48 16.2854Z" fill="white"/>
</svg>
