<svg width="148" height="56" viewBox="0 0 148 56" fill="none" xmlns="http://www.w3.org/2000/svg">
<path fill-rule="evenodd" clip-rule="evenodd" d="M59.9386 46.1677C58.5979 45.9313 56.8306 46.0227 55.4708 46.1502C55.5557 46.229 55.643 46.3074 55.7307 46.3863L55.7313 46.3868L55.7315 46.387C55.9497 46.583 56.1707 46.7815 56.3634 46.9941C55.3721 49.1995 53.2077 53.9968 51.6642 55.6425C52.0309 55.8873 54.2786 55.8125 54.8318 55.726C54.9282 55.711 54.9949 55.6728 55.0756 55.6266L55.095 55.6154C54.9191 54.8351 54.9161 54.5126 55.3101 53.8085C55.4986 53.807 55.79 53.7954 56.139 53.7815C57.471 53.7284 59.6431 53.642 60.1451 53.9527C60.471 54.8281 60.2925 55.1765 60.1833 55.3897C60.1392 55.4757 60.1064 55.5397 60.1225 55.6074C60.125 55.6182 60.2471 55.6852 60.2698 55.6936C60.8878 55.9259 63.4416 55.7977 64.1116 55.6297L64.1527 55.5933C64.1288 55.5884 64.1091 55.5851 64.0921 55.5823C64.0203 55.5703 63.9983 55.5667 63.926 55.487C63.8154 55.3651 63.6967 55.2661 63.5795 55.1682C63.3958 55.0149 63.2154 54.8643 63.0744 54.633C62.6541 53.9433 59.3723 47.428 59.3777 47.0497C59.3805 46.8632 59.5501 46.7228 59.6997 46.599L59.7 46.5987C59.7308 46.5732 59.7608 46.5484 59.7882 46.524C59.8652 46.4563 59.9427 46.3892 60.0206 46.3227L59.9386 46.1677ZM59.0158 51.5402C58.6013 50.7057 58.181 49.8593 57.6869 49.08C57.1669 50.1299 56.6392 51.1759 56.1038 52.218L57.8574 52.2225L59.3487 52.2064C59.2372 51.9862 59.1267 51.7636 59.0158 51.5402Z" fill="#D8E3F5"/>
<path d="M47.3892 46.9233C45.566 46.4099 43.9588 45.9928 42.0405 46.0914C40.256 46.3054 38.5013 46.812 37.3521 48.3014C36.595 49.2826 36.2496 50.6003 36.4143 51.8286C36.5694 52.9833 37.195 53.9745 38.1169 54.6759C39.7551 55.9223 42.044 56.1495 44.0328 55.864C45.0384 55.7198 45.9666 55.4142 46.9118 55.1031L46.9122 55.1029C47.1675 55.0189 47.4241 54.9344 47.6838 54.8526C47.5997 54.6983 47.5165 54.5255 47.4304 54.3468C47.186 53.8393 46.9185 53.2839 46.5434 52.967L46.3047 52.9782L45.9534 53.3645C44.2431 54.0975 42.283 54.4173 40.5063 53.6947C39.817 53.4144 39.2001 52.959 38.9029 52.257C38.6081 51.5605 38.658 50.6384 38.9453 49.9471C39.2556 49.2003 39.9171 48.6865 40.6517 48.3928C41.9589 47.8707 44.0209 47.8436 45.3107 48.431C45.6258 48.5744 45.9025 48.8681 46.1242 49.1257L46.2215 49.1124C46.6377 48.3941 47.02 47.6668 47.3892 46.9233Z" fill="#D8E3F5"/>
<path d="M87.3931 46.0975C85.8959 46.1265 84.3988 46.1242 82.9018 46.0905C82.9746 46.3376 83.1504 46.4921 83.3229 46.6438C83.4933 46.7937 83.6607 46.9408 83.7224 47.1717C83.946 48.008 83.9886 54.2241 83.6456 54.8391C83.451 55.188 83.0273 55.44 82.6688 55.6532C82.6123 55.6868 82.5573 55.7195 82.5053 55.7514C82.9921 55.7506 83.481 55.7549 83.9706 55.7592H83.9709C85.0322 55.7686 86.0968 55.778 87.1503 55.7351C87.1474 55.7286 87.1445 55.7221 87.1416 55.7156L87.1331 55.6964C87.1212 55.6694 87.1093 55.6423 87.096 55.6161C87.0097 55.4452 86.8586 55.33 86.707 55.2144C86.5365 55.0844 86.3655 54.954 86.2856 54.7436C86.0491 54.1206 86.0391 48.0429 86.2512 47.2656C86.3642 46.8511 86.8141 46.5227 87.1875 46.25C87.2599 46.1971 87.3294 46.1463 87.3931 46.0975Z" fill="#D8E3F5"/>
<path d="M74.7164 46.3105C73.7989 46.1212 72.8039 46.1233 71.8715 46.2009C70.67 46.3942 69.612 46.7191 68.8725 47.7585C68.496 48.2878 68.3015 48.9862 68.4224 49.6307C68.5399 50.2571 68.9421 50.7582 69.462 51.1094C70.2289 51.6276 71.6051 51.7771 72.8859 51.9163C74.2392 52.0634 75.4859 52.1989 75.7947 52.7453C75.7769 53.1111 75.6747 53.3718 75.3972 53.6287C74.7308 54.2449 73.5283 54.1498 72.6927 54.0719C71.3413 53.9458 70.1522 53.4794 69.016 52.7529C68.6972 53.2093 68.0399 54.1849 68.1264 54.7527C68.3429 55.0932 68.6686 55.1707 69.0411 55.2525C70.8921 55.6592 72.5452 55.9494 74.4493 55.8806C75.7824 55.6386 76.9793 55.1979 77.7923 54.0356C78.1377 53.5419 78.4247 52.8556 78.3283 52.2416C78.2287 51.608 77.7164 51.1296 77.2018 50.7961C76.4605 50.3157 75.1886 50.1804 73.9508 50.0487C72.5651 49.9013 71.2222 49.7584 70.7146 49.141C70.745 48.8465 70.7857 48.7129 71.0225 48.5007C71.7435 47.8552 73.4834 47.9872 74.3534 48.1096C75.5565 48.2788 76.0303 48.4814 76.8136 49.4173C77.1299 49.0029 77.3828 48.4535 77.6308 47.9145C77.7834 47.5827 77.9343 47.2548 78.0971 46.9649C77.3292 46.9903 76.5283 46.7756 75.7478 46.5663C75.3983 46.4726 75.0529 46.38 74.7164 46.3105Z" fill="#D8E3F5"/>
<path d="M91.7943 46.1795L91.8255 46.1745C91.8464 46.1711 91.8673 46.1677 91.8882 46.1645C92.6282 46.0552 95.7267 45.8829 96.2679 46.2761C96.253 46.3004 96.2357 46.327 96.2173 46.3554C96.1055 46.5273 95.9516 46.7643 96.0312 46.9558C96.2544 47.4953 97.323 48.5034 98.4244 49.5423C99.7137 50.7585 101.048 52.017 101.123 52.6157C101.592 51.6868 101.496 48.4908 101.306 47.424C101.184 46.746 100.907 46.5315 100.369 46.1497L104.446 46.1294C104.388 46.3292 104.239 46.456 104.084 46.5874C104.022 46.6394 103.96 46.6921 103.903 46.7504C103.501 47.1568 103.587 51.2629 103.624 53.0256C103.63 53.3096 103.634 53.5329 103.635 53.6699C103.642 54.3842 103.819 54.9803 104.339 55.4793L104.426 55.5615L104.233 55.7174L101.024 55.7321C99.9378 54.2569 98.4621 52.7696 97.0295 51.3257C96.2909 50.5813 95.5636 49.8483 94.9073 49.1346C94.9145 49.5519 94.8961 50.1234 94.876 50.7488C94.83 52.1771 94.775 53.8869 94.9945 54.6849C95.1163 55.1318 95.3723 55.2839 95.7571 55.4888L95.8789 55.5532L95.8028 55.6386C94.817 55.7849 93.7774 55.7761 92.7577 55.7675C92.4088 55.7645 92.0621 55.7616 91.7208 55.7649C92.0972 55.4228 92.3979 55.0476 92.7073 54.645C92.6944 53.819 92.7137 52.9842 92.733 52.1482C92.7639 50.8147 92.7948 49.4778 92.6952 48.1675C92.6235 47.2242 92.5233 46.8071 91.7943 46.1795Z" fill="#D8E3F5"/>
<path fill-rule="evenodd" clip-rule="evenodd" d="M113.392 46.2273C115.42 46.0639 117.497 45.9577 119.237 47.2202C120.261 47.9635 120.908 49.069 121.082 50.3195C121.255 51.5599 120.993 52.8603 120.228 53.8667C119.35 55.02 117.977 55.6276 116.571 55.822C114.984 56.1428 113.195 56.062 111.734 55.3228C110.607 54.7532 109.718 53.8207 109.341 52.6023C108.959 51.3655 109.069 49.8405 109.702 48.7029C110.509 47.2534 111.878 46.669 113.392 46.2273ZM114.06 48.072C115.26 47.9099 116.441 47.9205 117.458 48.6592C117.499 48.6883 117.539 48.7185 117.579 48.7497C117.618 48.7808 117.657 48.813 117.695 48.8461C117.733 48.8792 117.77 48.9133 117.806 48.9482C117.842 48.9832 117.877 49.019 117.912 49.0557C117.946 49.0925 117.98 49.13 118.012 49.1684C118.044 49.2068 118.076 49.2459 118.106 49.2859C118.137 49.3258 118.166 49.3665 118.195 49.4079C118.223 49.4493 118.251 49.4914 118.278 49.5342C118.305 49.5771 118.33 49.6205 118.354 49.6645C118.378 49.7086 118.401 49.7532 118.423 49.7984C118.445 49.8436 118.466 49.8893 118.485 49.9355C118.506 49.9818 118.525 50.0285 118.542 50.0757C118.559 50.1229 118.575 50.1704 118.591 50.2184C118.605 50.2664 118.619 50.3147 118.632 50.3634C118.644 50.4121 118.656 50.4611 118.667 50.5104C118.677 50.5595 118.686 50.609 118.693 50.6587C118.808 51.4109 118.646 52.1988 118.175 52.8052C117.582 53.5703 116.687 53.918 115.757 54.0485C115.173 54.2786 114.078 54.1196 113.498 53.8834C112.746 53.5779 112.117 52.9454 111.804 52.1987C111.504 51.4816 111.5 50.6361 111.811 49.9221C112.265 48.8849 113.058 48.4692 114.06 48.072Z" fill="#D8E3F5"/>
<path fill-rule="evenodd" clip-rule="evenodd" d="M32.1722 13.9944C33.8976 14.0046 35.6375 14.228 37.2521 14.8592C38.6294 15.3978 39.9756 16.2945 40.5697 17.7034C40.952 18.6099 40.9328 19.6541 40.5613 20.5606C40.0402 21.8321 38.9452 22.7537 37.689 23.2602C35.961 23.9567 34.2516 23.8603 32.5659 23.1309C32.6222 23.0757 32.6789 23.0205 32.7358 22.9652C33.0617 22.6479 33.3925 22.3258 33.6785 21.9758C34.2475 21.2796 34.8215 20.2825 34.715 19.3475C34.6601 18.8651 34.4098 18.4613 34.0288 18.1692C32.8944 17.2995 31.2422 17.3402 29.8984 17.5407C25.9872 18.1242 22.1569 20.4152 19.8141 23.6057C18.3449 25.6066 17.3545 28.2193 17.7582 30.7228C18.0006 32.2247 18.768 33.4633 20.0111 34.3421C22.3614 36.004 25.4873 35.9779 28.2123 35.5053C34.9834 34.3309 40.4412 29.498 44.2948 24.0518C43.9987 23.4039 43.8341 22.7825 43.8177 22.0664C43.7926 20.9785 44.2018 19.9815 44.9623 19.2045C46.6311 17.4996 49.1439 17.025 51.433 17.0028L51.3761 17.0756L51.3444 17.1164C50.6989 17.9463 49.8758 19.0046 50.0609 20.1185C50.132 20.5469 50.3568 20.8818 50.7041 21.1368C51.3047 21.5781 52.1869 21.6039 52.8933 21.4945C54.5145 21.2433 56.0311 20.4203 57.0027 19.0937C57.4722 19.5257 57.9381 19.9847 58.309 20.5061C58.8438 21.2577 59.1932 22.3462 58.8341 23.2494C58.5739 23.9037 57.8718 24.568 57.2802 25.1279C57.1305 25.2695 56.9878 25.4045 56.8612 25.5309C56.5671 25.8245 56.223 26.1563 55.8482 26.5178C53.6106 28.6756 50.2765 31.891 49.9225 34.3536C49.8548 34.8245 49.9354 35.2805 50.2498 35.6537C50.6965 36.1835 51.4247 36.4055 52.0954 36.4263C55.0993 36.5199 57.9102 34.0773 59.9508 32.1656C60.2352 30.1705 61.051 28.3218 62.1652 26.6556C64.6343 22.9635 68.6856 20.2001 73.0557 19.3559C75.4409 18.8951 78.2475 18.9088 80.3182 20.3367C81.7952 21.355 82.4436 22.7166 82.7557 24.4258C86.4749 23.864 89.2869 22.0041 91.8355 19.3111C92.7388 19.317 93.6715 19.4681 94.4438 19.9656C94.8646 20.2371 95.1954 20.6335 95.2812 21.14C95.4867 22.3435 93.7277 24.4831 92.466 26.0178L92.4658 26.018C92.0702 26.4992 91.7234 26.921 91.5015 27.2357C90.4954 28.6626 88.3475 31.8479 88.7357 33.6837C88.8161 34.0639 88.9828 34.3764 89.3216 34.5828C89.8008 34.8746 90.3905 34.8379 90.9136 34.7019C93.8362 33.9413 99.947 25.5609 101.544 22.7449C102.056 21.8432 102.888 20.3774 102.604 19.338C102.861 19.3352 103.117 19.3362 103.373 19.3411C104.375 19.3635 105.604 19.6214 106.314 20.3918C106.798 20.9184 106.921 21.5839 106.892 22.2802C106.796 24.6324 103.782 30.4781 102.011 32.0845C102.017 32.3185 101.829 32.674 101.653 33.0095C101.538 33.227 101.428 33.4361 101.378 33.5981C101.283 33.9089 101.292 34.2179 101.456 34.5024C101.583 34.7236 101.786 34.8386 102.033 34.8998C103.171 35.1826 104.441 34.6478 105.381 34.0479C108.794 31.8698 112.228 26.9945 113.092 23.0245C113.342 21.8707 113.45 20.3887 112.787 19.3484C114.202 19.3275 115.681 19.407 116.809 20.3743C117.665 21.1081 118.044 22.1615 118.117 23.2638C118.372 27.1193 115.792 31.2752 113.337 34.0409C110.281 37.483 105.791 40.3461 101.094 40.6125C99.5899 40.6979 97.6937 40.5191 96.5435 39.4591C95.6425 38.6292 95.4542 37.632 95.3975 36.4662C93.034 38.4284 90.2226 40.1986 87.1117 40.5773C85.7076 40.7484 84.1543 40.6213 83.0143 39.6985C82.0934 38.9532 81.6655 37.8709 81.5701 36.7125C81.2688 33.0507 83.6912 29.6285 85.9193 26.971C84.6712 27.4211 83.5481 27.788 82.2159 27.8661C81.9593 28.7108 81.6884 29.543 81.3308 30.3511C79.4706 34.5534 75.843 38.2566 71.5113 39.9059C69.1188 40.817 66.018 41.134 63.6397 40.0482C61.7005 39.1629 60.7129 37.6428 59.9948 35.7166C57.2106 38.0963 53.2266 40.252 49.551 40.7271C47.669 40.9702 45.6239 40.8094 44.0808 39.5975C43.2334 38.9321 42.6791 38.0743 42.5595 36.9915C42.2203 33.9209 45.042 30.632 46.9928 28.5499C47.247 28.2786 47.5129 28.0147 47.7792 27.7504C48.2658 27.2674 48.7537 26.7831 49.1742 26.2501L49.2476 26.156C48.2223 26.1561 47.3586 26.146 46.3962 25.7345C45.271 27.2786 44.0747 28.7658 42.8076 30.1958C37.7012 35.9387 31.1173 41.0123 23.1714 41.4581C19.5968 41.6588 15.6058 40.9894 12.869 38.5068C11.0264 36.8353 10.1421 34.6219 10.0388 32.1748C9.87315 28.2471 11.7814 24.4307 14.4012 21.6034C19.0606 16.575 25.4449 14.2591 32.1722 13.9944ZM75.1299 21.965C76.107 21.8795 76.9917 22.0026 77.9477 22.1799L77.9396 22.185C77.3237 22.5786 76.785 22.9229 76.4289 23.5813C76.1585 24.0813 76.056 24.6582 76.2241 25.2099C76.5059 26.1348 77.2481 26.5953 78.0538 27.025C76.6397 30.2977 74.4429 33.4031 71.0378 34.7798C70.0075 35.0407 68.7801 35.1467 67.809 34.6259C67.2288 34.3147 66.8566 33.8036 66.6796 33.1748C66.1624 31.3376 66.9128 29.2426 67.8368 27.6483C69.5027 24.774 71.9187 22.8204 75.1299 21.965Z" fill="#D8E3F5"/>
<path d="M127.976 19.4778C127.374 19.3256 126.747 19.2867 126.135 19.4127C126.271 19.8666 125.939 20.4733 125.708 20.8974C125.688 20.9336 125.669 20.9686 125.651 21.0019C124.483 23.1695 122.498 25.3302 120.5 27.5057C118.19 30.0202 115.862 32.5546 114.755 35.1427C114.398 35.9774 114.2 36.9102 114.462 37.8017C114.735 38.7362 115.485 39.4873 116.336 39.9272C117.558 40.5587 118.949 40.4834 120.278 40.3673C120.293 40.3445 120.31 40.3222 120.325 40.299C120.65 39.7982 120.843 39.2023 121.037 38.5994C121.229 38.0057 121.423 37.4052 121.748 36.8822C124.657 32.1957 129.093 28.0775 134.004 25.5914C134.626 25.2762 135.293 25.0407 135.956 24.8065C136.651 24.5612 137.341 24.3172 137.974 23.9842C137.812 24.7334 136.476 25.9346 135.489 26.8215C135.161 27.1168 134.871 27.3772 134.677 27.5745C132.455 29.825 127.7 35.0335 129.921 38.4463C130.208 38.8861 130.603 39.1673 130.998 39.4483C131.254 39.6307 131.51 39.813 131.737 40.0387C134.817 41 137.888 40.5388 140.728 39.0562C143.179 37.7764 146.136 35.445 147.005 32.7237C147.23 32.0175 147.437 30.9673 147.106 30.2674L146.918 30.1833L146.833 30.2837L146.879 30.4617L146.772 30.3767C145.105 32.9021 142.217 35.454 139.17 36.0809C138.579 36.2025 137.74 36.2563 137.229 35.8683C137.028 35.7154 136.933 35.4885 136.919 35.2447C136.835 33.8019 138.54 31.9392 140.41 29.8965C142.58 27.5267 144.971 24.9145 145.048 22.4347C145.07 21.687 144.855 20.9726 144.295 20.4567C143.467 19.6962 142.192 19.5556 141.12 19.6219C137.868 19.823 134.653 21.5879 132.044 23.4206C131.811 23.5841 131.572 23.7669 131.327 23.9539C130.648 24.473 129.926 25.0247 129.182 25.2863C129.951 24.7022 130.753 23.9172 130.887 22.9057C130.911 22.7284 130.893 22.6096 130.847 22.4387C130.955 22.0187 130.756 21.5181 130.547 21.1534C130.03 20.2559 128.945 19.7222 127.976 19.4778Z" fill="#D8E3F5"/>
<path fill-rule="evenodd" clip-rule="evenodd" d="M10.7339 7.14526C10.6907 7.16525 10.6481 7.18494 10.6064 7.20376C10.1302 7.68402 9.87774 8.06273 9.88547 8.76378C9.89203 9.363 10.014 9.99502 10.1373 10.6333C10.4259 12.1284 10.7211 13.6581 9.55531 14.8814C8.91025 15.5582 7.8864 15.7259 6.99274 15.7238C6.33206 15.7223 5.56879 15.5188 4.78406 15.3095C3.2244 14.8936 1.57995 14.4551 0.48751 15.5353C0.214216 15.8055 -0.0207135 16.1975 0.00145117 16.5924C0.0228974 16.9747 0.308453 17.292 0.597431 17.5144C1.06807 17.8768 1.62224 18.1388 2.17644 18.4009C2.615 18.6083 3.05358 18.8157 3.4508 19.0728C4.02429 19.444 4.70764 19.9583 5.39455 20.4752C6.31312 21.1666 7.23805 21.8627 7.91515 22.2277C8.35202 22.4632 8.86624 22.6051 9.36309 22.528C9.81102 22.4584 10.2438 22.2334 10.62 21.9888C11.0534 21.707 11.4553 21.3682 11.8568 21.0296C12.1378 20.7927 12.4186 20.5559 12.71 20.3389C14.0192 19.3638 15.4041 18.4569 16.7741 17.5685C19.7769 15.6213 23.215 13.5547 26.7429 12.8221C26.8835 12.7995 27.0309 12.7788 27.1825 12.7575C28.1438 12.6222 29.2699 12.4636 29.8623 11.678C30.1091 11.3513 30.0886 11.0038 30.0661 10.6222C30.0644 10.5937 30.0627 10.565 30.0611 10.536C30.0055 9.52634 29.8959 8.52145 29.7862 7.51578C29.6653 6.40811 29.5444 5.29948 29.4955 4.18239C29.4757 3.73264 29.5222 3.24548 29.5689 2.75687C29.6329 2.08738 29.6972 1.41517 29.5913 0.832783C29.5449 0.574555 29.471 0.297982 29.2483 0.136247C29.0611 0.000731836 28.828 -0.0245504 28.6039 0.020452C28.0225 0.136852 27.585 0.580267 27.2989 1.07459C26.9478 1.6807 26.7239 2.38795 26.4997 3.09599C26.0084 4.64774 25.5159 6.20333 23.6814 6.70666C23.3031 6.81039 22.8977 6.81292 22.5457 6.62046C22.0329 6.34012 21.7588 5.49818 21.487 4.66305C21.124 3.54763 20.7649 2.44437 19.8461 2.70762C19.391 2.83805 18.7341 3.43234 18.5145 3.84204C18.2563 4.32362 18.2737 5.19686 18.2929 6.16509C18.329 7.98675 18.3718 10.1447 16.5995 10.6631C16.2404 10.7682 15.8874 10.6364 15.5799 10.4516C15.1799 10.2111 14.622 9.60313 14.0283 8.95612C13.074 7.91614 12.0273 6.77541 11.3952 6.89851C11.1739 6.94165 10.9463 7.04699 10.7339 7.14526ZM17.1009 13.0033C15.7617 13.4411 14.4732 13.0787 13.1834 12.6643C12.7757 14.4578 11.8506 15.7342 10.2934 16.7215C9.51117 17.2173 8.6403 17.5824 7.78095 17.922C7.89198 18.0035 8.00113 18.0863 8.10959 18.1686C8.75058 18.655 9.36781 19.1233 10.21 19.1918C11.0789 18.8071 11.9149 18.2261 12.7263 17.6621C13.0118 17.4637 13.2942 17.2674 13.574 17.0825C14.0236 16.7853 14.4756 16.4822 14.9303 16.1773C17.3617 14.5469 19.8731 12.8629 22.5363 11.7414C23.9248 11.1339 25.223 10.6549 26.7466 10.5175C26.5446 9.60389 26.4224 8.70372 26.327 7.77289C24.5548 8.91384 23.1761 9.52191 21.023 9.04947C20.9603 9.03573 20.8976 9.02135 20.8351 9.00633C20.0076 10.6639 18.9706 12.3918 17.1009 13.0033Z" fill="#FF0055"/>
</svg>
