<svg width="258" height="24" viewBox="0 0 258 24" fill="none" xmlns="http://www.w3.org/2000/svg">
<path d="M12.5417 22.7535V21.5226C13.4579 21.5226 14.0939 21.4474 14.4495 21.297C14.8187 21.1465 15.0033 20.8935 15.0033 20.538C15.0033 20.4559 14.9897 20.3397 14.9623 20.1892C14.935 20.0251 14.8666 19.7926 14.7572 19.4918C14.6614 19.1772 14.5178 18.7738 14.3264 18.2814C14.1349 17.7754 13.8682 17.1395 13.5263 16.3736H6.81827C6.58578 16.948 6.38064 17.4746 6.20285 17.9532C6.05242 18.3635 5.90882 18.7601 5.77206 19.143C5.64898 19.5123 5.58743 19.7516 5.58743 19.861C5.58743 20.3807 5.80625 20.7705 6.24388 21.0303C6.69519 21.2901 7.40634 21.4543 8.37733 21.5226V22.7535H0.582031V21.5226C0.937606 21.4543 1.25215 21.3722 1.52567 21.2765C1.81287 21.1671 2.07955 21.0029 2.32572 20.7841C2.58556 20.5516 2.83173 20.2439 3.06422 19.861C3.29671 19.4644 3.54288 18.9584 3.80272 18.343L10.798 1.33691H12.0288L19.8036 19.0404C20.0087 19.5054 20.2412 19.8952 20.5011 20.2097C20.7609 20.5106 21.0344 20.7636 21.3216 20.9688C21.6088 21.1602 21.896 21.297 22.1832 21.379C22.4841 21.4611 22.7713 21.509 23.0448 21.5226V22.7535H12.5417ZM9.9569 8.39371L7.47472 14.5684H12.7263L9.9569 8.39371Z" fill="#4C40C5"/>
<path d="M41.3638 22.7535H23.8448V21.5226C24.4739 21.5226 24.9799 21.4748 25.3629 21.379C25.7595 21.2696 26.0603 21.1055 26.2655 20.8867C26.4843 20.6542 26.6279 20.3533 26.6963 19.9841C26.7647 19.6012 26.7989 19.143 26.7989 18.6097V5.93204C26.7989 5.39867 26.7647 4.94737 26.6963 4.57812C26.6279 4.19519 26.4843 3.89432 26.2655 3.6755C26.0603 3.44301 25.7595 3.2789 25.3629 3.18317C24.9799 3.07376 24.4739 3.01906 23.8448 3.01906V1.78822H34.8608V3.01906C34.2317 3.01906 33.712 3.07376 33.3018 3.18317C32.8915 3.2789 32.5633 3.44301 32.3171 3.6755C32.0709 3.89432 31.9 4.19519 31.8043 4.57812C31.7085 4.94737 31.6607 5.39867 31.6607 5.93204V18.6097C31.6607 19.0746 31.688 19.4576 31.7427 19.7584C31.8111 20.0593 31.9615 20.2986 32.194 20.4764C32.4265 20.6405 32.7684 20.7568 33.2197 20.8252C33.6847 20.8935 34.307 20.9277 35.0865 20.9277H36.7071C37.2541 20.9277 37.7738 20.8457 38.2661 20.6816C38.7722 20.5175 39.2577 20.2303 39.7226 19.82C40.1876 19.396 40.6389 18.8285 41.0766 18.1173C41.5142 17.4062 41.945 16.5036 42.3689 15.4095H43.5998L41.3638 22.7535Z" fill="#4C40C5"/>
<path d="M56.2774 22.7535V21.5226C57.1937 21.5226 57.8296 21.4474 58.1852 21.297C58.5544 21.1465 58.7391 20.8935 58.7391 20.538C58.7391 20.4559 58.7254 20.3397 58.698 20.1892C58.6707 20.0251 58.6023 19.7926 58.4929 19.4918C58.3972 19.1772 58.2536 18.7738 58.0621 18.2814C57.8706 17.7754 57.604 17.1395 57.2621 16.3736H50.554C50.3215 16.948 50.1164 17.4746 49.9386 17.9532C49.7881 18.3635 49.6445 18.7601 49.5078 19.143C49.3847 19.5123 49.3232 19.7516 49.3232 19.861C49.3232 20.3807 49.542 20.7705 49.9796 21.0303C50.4309 21.2901 51.1421 21.4543 52.1131 21.5226V22.7535H44.3178V21.5226C44.6733 21.4543 44.9879 21.3722 45.2614 21.2765C45.5486 21.1671 45.8153 21.0029 46.0614 20.7841C46.3213 20.5516 46.5675 20.2439 46.7999 19.861C47.0324 19.4644 47.2786 18.9584 47.5384 18.343L54.5337 1.33691H55.7645L63.5393 19.0404C63.7445 19.5054 63.977 19.8952 64.2368 20.2097C64.4966 20.5106 64.7702 20.7636 65.0574 20.9688C65.3446 21.1602 65.6317 21.297 65.9189 21.379C66.2198 21.4611 66.507 21.509 66.7805 21.5226V22.7535H56.2774ZM53.6926 8.39371L51.2104 14.5684H56.462L53.6926 8.39371Z" fill="#4C40C5"/>
<path d="M88.3407 12.2708C88.3407 13.7615 88.1013 15.1496 87.6227 16.4352C87.1577 17.707 86.4739 18.8148 85.5713 19.7584C84.6824 20.6884 83.5883 21.4201 82.2891 21.9534C80.9899 22.4868 79.5197 22.7535 77.8786 22.7535H67.3959V21.5226C68.025 21.5226 68.5311 21.4748 68.914 21.379C69.3106 21.2696 69.6115 21.1055 69.8166 20.8867C70.0354 20.6542 70.179 20.3533 70.2474 19.9841C70.3158 19.6012 70.35 19.143 70.35 18.6097V5.93204C70.35 5.39867 70.3158 4.94737 70.2474 4.57812C70.179 4.19519 70.0354 3.89432 69.8166 3.6755C69.6115 3.44301 69.3106 3.2789 68.914 3.18317C68.5311 3.07376 68.025 3.01906 67.3959 3.01906V1.78822H77.8786C79.5197 1.78822 80.9899 2.06858 82.2891 2.62929C83.5883 3.17633 84.6824 3.92851 85.5713 4.88583C86.4739 5.82947 87.1577 6.93722 87.6227 8.20908C88.1013 9.48095 88.3407 10.8349 88.3407 12.2708ZM82.7609 12.2708C82.7609 11.2725 82.6652 10.2605 82.4737 9.23478C82.2822 8.20908 81.9403 7.27912 81.448 6.44489C80.9693 5.61065 80.3197 4.93369 79.4992 4.41401C78.6923 3.88064 77.6734 3.61396 76.4426 3.61396C76.2511 3.61396 76.0802 3.6208 75.9297 3.63448C75.793 3.63448 75.6699 3.64131 75.5605 3.65499C75.4374 3.66867 75.328 3.68234 75.2323 3.69602V20.661C75.4101 20.7705 75.6699 20.8525 76.0118 20.9072C76.3674 20.9482 76.764 20.9688 77.2016 20.9688C78.282 20.9688 79.1778 20.7158 79.8889 20.2097C80.6001 19.6901 81.1676 19.0199 81.5916 18.1994C82.0155 17.3651 82.3164 16.4283 82.4942 15.389C82.672 14.3496 82.7609 13.3102 82.7609 12.2708Z" fill="#4C40C5"/>
<path d="M111.029 12.2708C111.029 13.7615 110.79 15.1496 110.311 16.4352C109.846 17.707 109.162 18.8148 108.26 19.7584C107.371 20.6884 106.277 21.4201 104.977 21.9534C103.678 22.4868 102.208 22.7535 100.567 22.7535H90.0844V21.5226C90.7135 21.5226 91.2195 21.4748 91.6024 21.379C91.999 21.2696 92.2999 21.1055 92.505 20.8867C92.7238 20.6542 92.8674 20.3533 92.9358 19.9841C93.0042 19.6012 93.0384 19.143 93.0384 18.6097V5.93204C93.0384 5.39867 93.0042 4.94737 92.9358 4.57812C92.8674 4.19519 92.7238 3.89432 92.505 3.6755C92.2999 3.44301 91.999 3.2789 91.6024 3.18317C91.2195 3.07376 90.7135 3.01906 90.0844 3.01906V1.78822H100.567C102.208 1.78822 103.678 2.06858 104.977 2.62929C106.277 3.17633 107.371 3.92851 108.26 4.88583C109.162 5.82947 109.846 6.93722 110.311 8.20908C110.79 9.48095 111.029 10.8349 111.029 12.2708ZM105.449 12.2708C105.449 11.2725 105.354 10.2605 105.162 9.23478C104.971 8.20908 104.629 7.27912 104.136 6.44489C103.658 5.61065 103.008 4.93369 102.188 4.41401C101.381 3.88064 100.362 3.61396 99.131 3.61396C98.9396 3.61396 98.7686 3.6208 98.6182 3.63448C98.4814 3.63448 98.3583 3.64131 98.2489 3.65499C98.1258 3.66867 98.0164 3.68234 97.9207 3.69602V20.661C98.0985 20.7705 98.3583 20.8525 98.7002 20.9072C99.0558 20.9482 99.4524 20.9688 99.89 20.9688C100.97 20.9688 101.866 20.7158 102.577 20.2097C103.289 19.6901 103.856 19.0199 104.28 18.1994C104.704 17.3651 105.005 16.4283 105.183 15.389C105.36 14.3496 105.449 13.3102 105.449 12.2708Z" fill="#4C40C5"/>
<path d="M112.978 22.7535V21.5226C113.607 21.5226 114.113 21.4816 114.496 21.3996C114.893 21.3175 115.193 21.1739 115.399 20.9688C115.617 20.7636 115.761 20.4901 115.829 20.1482C115.911 19.7926 115.952 19.3482 115.952 18.8148V5.93204C115.952 5.39867 115.911 4.94737 115.829 4.57812C115.761 4.19519 115.617 3.89432 115.399 3.6755C115.193 3.44301 114.893 3.2789 114.496 3.18317C114.113 3.07376 113.607 3.01906 112.978 3.01906V1.78822H123.768V3.01906C123.139 3.01906 122.626 3.07376 122.23 3.18317C121.847 3.2789 121.546 3.44301 121.327 3.6755C121.122 3.89432 120.985 4.19519 120.917 4.57812C120.848 4.94737 120.814 5.39867 120.814 5.93204V18.8148C120.814 19.3482 120.848 19.7926 120.917 20.1482C120.985 20.4901 121.122 20.7636 121.327 20.9688C121.546 21.1739 121.847 21.3175 122.23 21.3996C122.626 21.4816 123.139 21.5226 123.768 21.5226V22.7535H112.978Z" fill="#4C40C5"/>
<path d="M145.985 3.01906C145.493 3.01906 145.089 3.05325 144.775 3.12163C144.474 3.17633 144.234 3.28574 144.057 3.44985C143.892 3.61396 143.776 3.84645 143.708 4.14732C143.639 4.43452 143.605 4.81061 143.605 5.27559V23.0817H141.8L129.553 7.24493V19.2661C129.553 19.7448 129.601 20.1345 129.697 20.4354C129.806 20.7226 129.97 20.9482 130.189 21.1124C130.408 21.2765 130.695 21.3859 131.051 21.4406C131.406 21.4953 131.844 21.5226 132.364 21.5226V22.7535H124.917V21.5226C125.409 21.5226 125.82 21.4953 126.148 21.4406C126.49 21.3859 126.77 21.2765 126.989 21.1124C127.208 20.9482 127.365 20.7226 127.461 20.4354C127.557 20.1345 127.604 19.7448 127.604 19.2661V4.76274C127.29 4.35246 127.037 4.03108 126.845 3.79859C126.654 3.5661 126.469 3.39515 126.291 3.28574C126.127 3.16265 125.943 3.08744 125.738 3.06009C125.532 3.01906 125.259 2.99854 124.917 2.99854V1.78822H131.81L141.656 14.5479V5.27559C141.656 4.81061 141.615 4.43452 141.533 4.14732C141.451 3.84645 141.315 3.61396 141.123 3.44985C140.932 3.28574 140.665 3.17633 140.323 3.12163C139.981 3.05325 139.557 3.01906 139.051 3.01906V1.78822H145.985V3.01906Z" fill="#4C40C5"/>
<path d="M173.433 16.8249C173.433 17.7686 173.241 18.637 172.858 19.4302C172.475 20.2097 171.956 20.8799 171.299 21.4406C170.643 22.0013 169.863 22.4389 168.96 22.7535C168.072 23.0543 167.114 23.2048 166.089 23.2048C165.309 23.2048 164.68 23.1432 164.201 23.0202C163.736 22.8971 163.34 22.7603 163.011 22.6099C162.683 22.4458 162.389 22.3022 162.129 22.1791C161.883 22.056 161.589 21.9945 161.247 21.9945C160.864 21.9945 160.55 22.1107 160.304 22.3432C160.071 22.562 159.859 22.8492 159.668 23.2048H158.519V15.3069H159.729C159.811 16.0317 160.003 16.7771 160.304 17.5429C160.604 18.3088 161.022 19.0063 161.555 19.6354C162.088 20.2644 162.738 20.7773 163.504 21.1739C164.27 21.5705 165.159 21.7688 166.171 21.7688C166.622 21.7688 167.06 21.7073 167.483 21.5842C167.907 21.4474 168.277 21.256 168.591 21.0098C168.919 20.7499 169.179 20.4422 169.371 20.0867C169.562 19.7174 169.658 19.3071 169.658 18.8558C169.658 18.2404 169.501 17.6934 169.186 17.2147C168.872 16.736 168.454 16.2984 167.935 15.9018C167.429 15.4915 166.848 15.1086 166.191 14.753C165.535 14.3838 164.865 14.0214 164.181 13.6658C163.511 13.2965 162.847 12.9068 162.191 12.4965C161.534 12.0862 160.946 11.6349 160.427 11.1426C159.921 10.6366 159.51 10.069 159.196 9.43992C158.881 8.81083 158.724 8.09284 158.724 7.28596C158.724 6.4107 158.881 5.61065 159.196 4.88583C159.524 4.161 159.975 3.53874 160.55 3.01906C161.138 2.48569 161.828 2.07542 162.622 1.78822C163.429 1.48735 164.317 1.33691 165.288 1.33691C165.959 1.33691 166.54 1.41213 167.032 1.56257C167.538 1.69933 167.983 1.8566 168.366 2.03439C168.749 2.21218 169.09 2.37629 169.391 2.52672C169.692 2.66348 169.986 2.73186 170.273 2.73186C170.547 2.73186 170.752 2.5951 170.889 2.32158C171.026 2.04806 171.128 1.71984 171.197 1.33691H172.386V9.13221H171.094C170.998 8.1749 170.773 7.30647 170.417 6.52694C170.061 5.74741 169.624 5.08413 169.104 4.53709C168.584 3.99005 167.996 3.57293 167.34 3.28574C166.697 2.98487 166.041 2.83443 165.371 2.83443C164.96 2.83443 164.564 2.90281 164.181 3.03957C163.811 3.16265 163.483 3.34728 163.196 3.59345C162.909 3.83962 162.683 4.13365 162.519 4.47555C162.355 4.81745 162.273 5.19354 162.273 5.60381C162.273 6.13718 162.43 6.62267 162.745 7.0603C163.073 7.48426 163.497 7.8877 164.017 8.27063C164.536 8.63988 165.131 8.99545 165.801 9.33735C166.471 9.66558 167.155 10.0143 167.853 10.3836C168.55 10.7528 169.234 11.1426 169.904 11.5529C170.574 11.9631 171.169 12.4213 171.689 12.9273C172.209 13.4333 172.626 14.0077 172.94 14.6505C173.268 15.2796 173.433 16.0044 173.433 16.8249Z" fill="#4C40C5"/>
<path d="M192.839 22.7535H175.32V21.5226C175.949 21.5226 176.455 21.4748 176.838 21.379C177.234 21.2696 177.535 21.1055 177.74 20.8867C177.959 20.6542 178.103 20.3533 178.171 19.9841C178.24 19.6012 178.274 19.143 178.274 18.6097V5.93204C178.274 5.39867 178.24 4.94737 178.171 4.57812C178.103 4.19519 177.959 3.89432 177.74 3.6755C177.535 3.44301 177.234 3.2789 176.838 3.18317C176.455 3.07376 175.949 3.01906 175.32 3.01906V1.78822H186.336V3.01906C185.707 3.01906 185.187 3.07376 184.777 3.18317C184.366 3.2789 184.038 3.44301 183.792 3.6755C183.546 3.89432 183.375 4.19519 183.279 4.57812C183.183 4.94737 183.136 5.39867 183.136 5.93204V18.6097C183.136 19.0746 183.163 19.4576 183.218 19.7584C183.286 20.0593 183.436 20.2986 183.669 20.4764C183.901 20.6405 184.243 20.7568 184.695 20.8252C185.16 20.8935 185.782 20.9277 186.561 20.9277H188.182C188.729 20.9277 189.249 20.8457 189.741 20.6816C190.247 20.5175 190.733 20.2303 191.198 19.82C191.663 19.396 192.114 18.8285 192.552 18.1173C192.989 17.4062 193.42 16.5036 193.844 15.4095H195.075L192.839 22.7535Z" fill="#4C40C5"/>
<path d="M218.953 12.2708C218.953 13.7342 218.693 15.1291 218.173 16.4557C217.667 17.7823 216.936 18.9516 215.978 19.9636C215.021 20.9619 213.852 21.762 212.471 22.3637C211.103 22.9518 209.558 23.2458 207.834 23.2458C206.111 23.2458 204.559 22.9518 203.178 22.3637C201.796 21.7756 200.62 20.9824 199.649 19.9841C198.692 18.9857 197.954 17.8233 197.434 16.4967C196.928 15.1565 196.675 13.7478 196.675 12.2708C196.675 10.7528 196.948 9.33051 197.495 8.00395C198.056 6.6637 198.829 5.50124 199.813 4.51658C200.812 3.53191 201.988 2.75921 203.342 2.1985C204.709 1.62411 206.193 1.33691 207.793 1.33691C209.517 1.33691 211.069 1.63095 212.45 2.21901C213.831 2.7934 215.001 3.57977 215.958 4.57812C216.929 5.57646 217.667 6.73892 218.173 8.06549C218.693 9.37838 218.953 10.7802 218.953 12.2708ZM213.373 12.3734C213.373 11.6759 213.332 10.958 213.25 10.2195C213.182 9.48095 213.065 8.76296 212.901 8.06549C212.737 7.35434 212.512 6.69105 212.224 6.07563C211.951 5.44654 211.602 4.8995 211.178 4.43452C210.768 3.95586 210.282 3.57977 209.722 3.30625C209.161 3.03273 208.518 2.89597 207.793 2.89597C207.069 2.89597 206.426 3.03273 205.865 3.30625C205.304 3.57977 204.819 3.94902 204.409 4.41401C203.998 4.87899 203.656 5.41919 203.383 6.03461C203.109 6.65003 202.884 7.29963 202.706 7.98343C202.542 8.66723 202.426 9.37154 202.357 10.0964C202.289 10.8075 202.255 11.4913 202.255 12.1478C202.255 12.7495 202.289 13.406 202.357 14.1171C202.426 14.8283 202.542 15.5394 202.706 16.2506C202.884 16.948 203.109 17.625 203.383 18.2814C203.656 18.9242 203.998 19.4986 204.409 20.0046C204.819 20.4969 205.298 20.8935 205.845 21.1944C206.405 21.4953 207.055 21.6457 207.793 21.6457C208.887 21.6457 209.79 21.3517 210.501 20.7636C211.226 20.1619 211.8 19.4029 212.224 18.4866C212.648 17.5703 212.942 16.5719 213.106 15.4915C213.284 14.3975 213.373 13.3581 213.373 12.3734Z" fill="#4C40C5"/>
<path d="M239.036 8.06549C238.886 6.53378 238.441 5.41235 237.703 4.7012C236.964 3.97637 235.856 3.61396 234.379 3.61396H233.046V18.8148C233.046 19.3482 233.08 19.7926 233.149 20.1482C233.231 20.4901 233.381 20.7636 233.6 20.9688C233.832 21.1739 234.14 21.3175 234.523 21.3996C234.92 21.4816 235.439 21.5226 236.082 21.5226V22.7535H225.169V21.5226C225.798 21.5226 226.311 21.4816 226.707 21.3996C227.104 21.3175 227.412 21.1739 227.63 20.9688C227.849 20.7636 227.993 20.4901 228.061 20.1482C228.143 19.7926 228.184 19.3482 228.184 18.8148V3.61396H226.646C225.921 3.61396 225.285 3.69602 224.738 3.86013C224.205 4.01056 223.746 4.26357 223.363 4.61914C222.981 4.96104 222.68 5.41919 222.461 5.99358C222.256 6.55429 222.119 7.24493 222.051 8.06549H220.799L221.004 1.78822H240.062L240.267 8.06549H239.036Z" fill="#4C40C5"/>
<path d="M257.581 16.8249C257.581 17.7686 257.389 18.637 257.006 19.4302C256.623 20.2097 256.104 20.8799 255.447 21.4406C254.791 22.0013 254.011 22.4389 253.109 22.7535C252.22 23.0543 251.262 23.2048 250.237 23.2048C249.457 23.2048 248.828 23.1432 248.349 23.0202C247.884 22.8971 247.488 22.7603 247.16 22.6099C246.831 22.4458 246.537 22.3022 246.278 22.1791C246.031 22.056 245.737 21.9945 245.395 21.9945C245.012 21.9945 244.698 22.1107 244.452 22.3432C244.219 22.562 244.007 22.8492 243.816 23.2048H242.667V15.3069H243.877C243.959 16.0317 244.151 16.7771 244.452 17.5429C244.753 18.3088 245.17 19.0063 245.703 19.6354C246.236 20.2644 246.886 20.7773 247.652 21.1739C248.418 21.5705 249.307 21.7688 250.319 21.7688C250.77 21.7688 251.208 21.7073 251.632 21.5842C252.056 21.4474 252.425 21.256 252.739 21.0098C253.068 20.7499 253.327 20.4422 253.519 20.0867C253.71 19.7174 253.806 19.3071 253.806 18.8558C253.806 18.2404 253.649 17.6934 253.334 17.2147C253.02 16.736 252.603 16.2984 252.083 15.9018C251.577 15.4915 250.996 15.1086 250.339 14.753C249.683 14.3838 249.013 14.0214 248.329 13.6658C247.659 13.2965 246.996 12.9068 246.339 12.4965C245.683 12.0862 245.095 11.6349 244.575 11.1426C244.069 10.6366 243.659 10.069 243.344 9.43992C243.029 8.81083 242.872 8.09284 242.872 7.28596C242.872 6.4107 243.029 5.61065 243.344 4.88583C243.672 4.161 244.124 3.53874 244.698 3.01906C245.286 2.48569 245.977 2.07542 246.77 1.78822C247.577 1.48735 248.466 1.33691 249.437 1.33691C250.107 1.33691 250.688 1.41213 251.18 1.56257C251.686 1.69933 252.131 1.8566 252.514 2.03439C252.897 2.21218 253.239 2.37629 253.539 2.52672C253.84 2.66348 254.134 2.73186 254.422 2.73186C254.695 2.73186 254.9 2.5951 255.037 2.32158C255.174 2.04806 255.276 1.71984 255.345 1.33691H256.535V9.13221H255.242C255.146 8.1749 254.921 7.30647 254.565 6.52694C254.21 5.74741 253.772 5.08413 253.252 4.53709C252.733 3.99005 252.145 3.57293 251.488 3.28574C250.845 2.98487 250.189 2.83443 249.519 2.83443C249.108 2.83443 248.712 2.90281 248.329 3.03957C247.96 3.16265 247.631 3.34728 247.344 3.59345C247.057 3.83962 246.831 4.13365 246.667 4.47555C246.503 4.81745 246.421 5.19354 246.421 5.60381C246.421 6.13718 246.578 6.62267 246.893 7.0603C247.221 7.48426 247.645 7.8877 248.165 8.27063C248.684 8.63988 249.279 8.99545 249.95 9.33735C250.62 9.66558 251.303 10.0143 252.001 10.3836C252.698 10.7528 253.382 11.1426 254.052 11.5529C254.722 11.9631 255.317 12.4213 255.837 12.9273C256.357 13.4333 256.774 14.0077 257.088 14.6505C257.417 15.2796 257.581 16.0044 257.581 16.8249Z" fill="#4C40C5"/>
<path d="M11.9596 22.1705V20.9396C12.8759 20.9396 13.5119 20.8644 13.8674 20.714C14.2367 20.5635 14.4213 20.3105 14.4213 19.955C14.4213 19.8729 14.4076 19.7567 14.3803 19.6062C14.3529 19.4421 14.2845 19.2096 14.1751 18.9087C14.0794 18.5942 13.9358 18.1908 13.7443 17.6984C13.5529 17.1924 13.2862 16.5565 12.9443 15.7906H6.23624C6.00375 16.365 5.79861 16.8915 5.62082 17.3702C5.47039 17.7805 5.32679 18.1771 5.19003 18.56C5.06694 18.9293 5.0054 19.1686 5.0054 19.278C5.0054 19.7977 5.22422 20.1874 5.66185 20.4473C6.11315 20.7071 6.82431 20.8712 7.7953 20.9396V22.1705H0V20.9396C0.355575 20.8712 0.670122 20.7892 0.943641 20.6935C1.23084 20.5841 1.49752 20.4199 1.74369 20.2011C2.00353 19.9686 2.2497 19.6609 2.48219 19.278C2.71468 18.8814 2.96085 18.3754 3.22069 17.76L10.2159 0.753906H11.4468L19.2216 18.4574C19.4267 18.9224 19.6592 19.3122 19.919 19.6267C20.1789 19.9276 20.4524 20.1806 20.7396 20.3857C21.0268 20.5772 21.314 20.714 21.6012 20.796C21.9021 20.8781 22.1892 20.926 22.4628 20.9396V22.1705H11.9596ZM9.37487 7.8107L6.89268 13.9854H12.1443L9.37487 7.8107Z" fill="white"/>
<path d="M40.7817 22.1705H23.2628V20.9396C23.8919 20.9396 24.3979 20.8918 24.7808 20.796C25.1774 20.6866 25.4783 20.5225 25.6835 20.3037C25.9023 20.0712 26.0459 19.7703 26.1143 19.4011C26.1826 19.0182 26.2168 18.56 26.2168 18.0266V5.34903C26.2168 4.81567 26.1826 4.36436 26.1143 3.99511C26.0459 3.61218 25.9023 3.31131 25.6835 3.0925C25.4783 2.86 25.1774 2.69589 24.7808 2.60016C24.3979 2.49075 23.8919 2.43605 23.2628 2.43605V1.20521H34.2788V2.43605C33.6497 2.43605 33.13 2.49075 32.7197 2.60016C32.3095 2.69589 31.9812 2.86 31.7351 3.0925C31.4889 3.31131 31.318 3.61218 31.2222 3.99511C31.1265 4.36436 31.0786 4.81567 31.0786 5.34903V18.0266C31.0786 18.4916 31.106 18.8746 31.1607 19.1754C31.2291 19.4763 31.3795 19.7156 31.612 19.8934C31.8445 20.0575 32.1864 20.1738 32.6377 20.2422C33.1027 20.3105 33.7249 20.3447 34.5045 20.3447H36.1251C36.6721 20.3447 37.1918 20.2627 37.6841 20.0986C38.1901 19.9344 38.6756 19.6472 39.1406 19.237C39.6056 18.813 40.0569 18.2455 40.4945 17.5343C40.9322 16.8232 41.3629 15.9205 41.7869 14.8265H43.0177L40.7817 22.1705Z" fill="white"/>
<path d="M55.6954 22.1705V20.9396C56.6116 20.9396 57.2476 20.8644 57.6032 20.714C57.9724 20.5635 58.157 20.3105 58.157 19.955C58.157 19.8729 58.1434 19.7567 58.116 19.6062C58.0886 19.4421 58.0203 19.2096 57.9109 18.9087C57.8151 18.5942 57.6715 18.1908 57.4801 17.6984C57.2886 17.1924 57.0219 16.5565 56.68 15.7906H49.972C49.7395 16.365 49.5343 16.8915 49.3565 17.3702C49.2061 17.7805 49.0625 18.1771 48.9258 18.56C48.8027 18.9293 48.7411 19.1686 48.7411 19.278C48.7411 19.7977 48.9599 20.1874 49.3976 20.4473C49.8489 20.7071 50.56 20.8712 51.531 20.9396V22.1705H43.7357V20.9396C44.0913 20.8712 44.4058 20.7892 44.6794 20.6935C44.9666 20.5841 45.2332 20.4199 45.4794 20.2011C45.7393 19.9686 45.9854 19.6609 46.2179 19.278C46.4504 18.8814 46.6966 18.3754 46.9564 17.76L53.9517 0.753906H55.1825L62.9573 18.4574C63.1624 18.9224 63.3949 19.3122 63.6548 19.6267C63.9146 19.9276 64.1881 20.1806 64.4753 20.3857C64.7625 20.5772 65.0497 20.714 65.3369 20.796C65.6378 20.8781 65.925 20.926 66.1985 20.9396V22.1705H55.6954ZM53.1106 7.8107L50.6284 13.9854H55.88L53.1106 7.8107Z" fill="white"/>
<path d="M87.7587 11.6878C87.7587 13.1785 87.5193 14.5666 87.0407 15.8522C86.5757 17.124 85.8919 18.2318 84.9893 19.1754C84.1003 20.1054 83.0062 20.8371 81.707 21.3704C80.4078 21.9038 78.9377 22.1705 77.2965 22.1705H66.8139V20.9396C67.443 20.9396 67.949 20.8918 68.3319 20.796C68.7285 20.6866 69.0294 20.5225 69.2346 20.3037C69.4534 20.0712 69.597 19.7703 69.6654 19.4011C69.7337 19.0182 69.7679 18.56 69.7679 18.0266V5.34903C69.7679 4.81567 69.7337 4.36436 69.6654 3.99511C69.597 3.61218 69.4534 3.31131 69.2346 3.0925C69.0294 2.86 68.7285 2.69589 68.3319 2.60016C67.949 2.49075 67.443 2.43605 66.8139 2.43605V1.20521H77.2965C78.9377 1.20521 80.4078 1.48557 81.707 2.04628C83.0062 2.59332 84.1003 3.3455 84.9893 4.30282C85.8919 5.24646 86.5757 6.35421 87.0407 7.62608C87.5193 8.89794 87.7587 10.2519 87.7587 11.6878ZM82.1789 11.6878C82.1789 10.6895 82.0831 9.67747 81.8917 8.65177C81.7002 7.62608 81.3583 6.69611 80.866 5.86188C80.3873 5.02764 79.7377 4.35068 78.9171 3.831C78.1103 3.29764 77.0914 3.03095 75.8606 3.03095C75.6691 3.03095 75.4981 3.03779 75.3477 3.05147C75.211 3.05147 75.0879 3.05831 74.9785 3.07198C74.8554 3.08566 74.746 3.09933 74.6502 3.11301V20.078C74.828 20.1874 75.0879 20.2695 75.4298 20.3242C75.7853 20.3652 76.1819 20.3857 76.6196 20.3857C77.7 20.3857 78.5958 20.1327 79.3069 19.6267C80.0181 19.107 80.5856 18.4369 81.0096 17.6164C81.4335 16.7821 81.7344 15.8453 81.9122 14.806C82.09 13.7666 82.1789 12.7272 82.1789 11.6878Z" fill="white"/>
<path d="M110.447 11.6878C110.447 13.1785 110.208 14.5666 109.729 15.8522C109.264 17.124 108.58 18.2318 107.678 19.1754C106.789 20.1054 105.695 20.8371 104.395 21.3704C103.096 21.9038 101.626 22.1705 99.985 22.1705H89.5023V20.9396C90.1314 20.9396 90.6374 20.8918 91.0204 20.796C91.417 20.6866 91.7178 20.5225 91.923 20.3037C92.1418 20.0712 92.2854 19.7703 92.3538 19.4011C92.4221 19.0182 92.4563 18.56 92.4563 18.0266V5.34903C92.4563 4.81567 92.4221 4.36436 92.3538 3.99511C92.2854 3.61218 92.1418 3.31131 91.923 3.0925C91.7178 2.86 91.417 2.69589 91.0204 2.60016C90.6374 2.49075 90.1314 2.43605 89.5023 2.43605V1.20521H99.985C101.626 1.20521 103.096 1.48557 104.395 2.04628C105.695 2.59332 106.789 3.3455 107.678 4.30282C108.58 5.24646 109.264 6.35421 109.729 7.62608C110.208 8.89794 110.447 10.2519 110.447 11.6878ZM104.867 11.6878C104.867 10.6895 104.772 9.67747 104.58 8.65177C104.389 7.62608 104.047 6.69611 103.554 5.86188C103.076 5.02764 102.426 4.35068 101.606 3.831C100.799 3.29764 99.7798 3.03095 98.549 3.03095C98.3575 3.03095 98.1866 3.03779 98.0361 3.05147C97.8994 3.05147 97.7763 3.05831 97.6669 3.07198C97.5438 3.08566 97.4344 3.09933 97.3387 3.11301V20.078C97.5164 20.1874 97.7763 20.2695 98.1182 20.3242C98.4738 20.3652 98.8704 20.3857 99.308 20.3857C100.388 20.3857 101.284 20.1327 101.995 19.6267C102.706 19.107 103.274 18.4369 103.698 17.6164C104.122 16.7821 104.423 15.8453 104.601 14.806C104.778 13.7666 104.867 12.7272 104.867 11.6878Z" fill="white"/>
<path d="M112.396 22.1705V20.9396C113.025 20.9396 113.531 20.8986 113.914 20.8165C114.311 20.7345 114.611 20.5909 114.817 20.3857C115.035 20.1806 115.179 19.9071 115.247 19.5652C115.329 19.2096 115.37 18.7651 115.37 18.2318V5.34903C115.37 4.81567 115.329 4.36436 115.247 3.99511C115.179 3.61218 115.035 3.31131 114.817 3.0925C114.611 2.86 114.311 2.69589 113.914 2.60016C113.531 2.49075 113.025 2.43605 112.396 2.43605V1.20521H123.186V2.43605C122.557 2.43605 122.044 2.49075 121.648 2.60016C121.265 2.69589 120.964 2.86 120.745 3.0925C120.54 3.31131 120.403 3.61218 120.335 3.99511C120.266 4.36436 120.232 4.81567 120.232 5.34903V18.2318C120.232 18.7651 120.266 19.2096 120.335 19.5652C120.403 19.9071 120.54 20.1806 120.745 20.3857C120.964 20.5909 121.265 20.7345 121.648 20.8165C122.044 20.8986 122.557 20.9396 123.186 20.9396V22.1705H112.396Z" fill="white"/>
<path d="M145.403 2.43605C144.91 2.43605 144.507 2.47024 144.193 2.53862C143.892 2.59332 143.652 2.70273 143.475 2.86684C143.31 3.03095 143.194 3.26345 143.126 3.56432C143.057 3.85151 143.023 4.2276 143.023 4.69258V22.4987H141.218L128.971 6.66192V18.6831C128.971 19.1618 129.019 19.5515 129.115 19.8524C129.224 20.1396 129.388 20.3652 129.607 20.5293C129.826 20.6935 130.113 20.8029 130.469 20.8576C130.824 20.9123 131.262 20.9396 131.782 20.9396V22.1705H124.335V20.9396C124.827 20.9396 125.238 20.9123 125.566 20.8576C125.908 20.8029 126.188 20.6935 126.407 20.5293C126.626 20.3652 126.783 20.1396 126.879 19.8524C126.974 19.5515 127.022 19.1618 127.022 18.6831V4.17973C126.708 3.76946 126.455 3.44807 126.263 3.21558C126.072 2.98309 125.887 2.81214 125.709 2.70273C125.545 2.57965 125.361 2.50443 125.156 2.47708C124.95 2.43605 124.677 2.41554 124.335 2.41554V1.20521H131.228L141.074 13.9649V4.69258C141.074 4.2276 141.033 3.85151 140.951 3.56432C140.869 3.26345 140.732 3.03095 140.541 2.86684C140.35 2.70273 140.083 2.59332 139.741 2.53862C139.399 2.47024 138.975 2.43605 138.469 2.43605V1.20521H145.403V2.43605Z" fill="white"/>
<path d="M172.85 16.2419C172.85 17.1856 172.659 18.054 172.276 18.8472C171.893 19.6267 171.373 20.2969 170.717 20.8576C170.061 21.4183 169.281 21.8559 168.378 22.1705C167.49 22.4713 166.532 22.6218 165.507 22.6218C164.727 22.6218 164.098 22.5602 163.619 22.4371C163.154 22.3141 162.758 22.1773 162.429 22.0269C162.101 21.8628 161.807 21.7192 161.547 21.5961C161.301 21.473 161.007 21.4114 160.665 21.4114C160.282 21.4114 159.968 21.5277 159.722 21.7602C159.489 21.979 159.277 22.2662 159.086 22.6218H157.937V14.7239H159.147C159.229 15.4487 159.421 16.1941 159.722 16.9599C160.022 17.7258 160.44 18.4233 160.973 19.0523C161.506 19.6814 162.156 20.1943 162.922 20.5909C163.688 20.9875 164.577 21.1858 165.589 21.1858C166.04 21.1858 166.477 21.1243 166.901 21.0012C167.325 20.8644 167.695 20.6729 168.009 20.4268C168.337 20.1669 168.597 19.8592 168.789 19.5037C168.98 19.1344 169.076 18.7241 169.076 18.2728C169.076 17.6574 168.919 17.1104 168.604 16.6317C168.29 16.153 167.872 15.7154 167.353 15.3188C166.847 14.9085 166.266 14.5256 165.609 14.17C164.953 13.8008 164.283 13.4384 163.599 13.0828C162.929 12.7135 162.265 12.3238 161.609 11.9135C160.952 11.5032 160.364 11.0519 159.845 10.5596C159.339 10.0536 158.928 9.48601 158.614 8.85691C158.299 8.22782 158.142 7.50983 158.142 6.70295C158.142 5.82769 158.299 5.02764 158.614 4.30282C158.942 3.57799 159.393 2.95574 159.968 2.43605C160.556 1.90269 161.246 1.49241 162.04 1.20521C162.847 0.904342 163.735 0.753906 164.706 0.753906C165.377 0.753906 165.958 0.829124 166.45 0.97956C166.956 1.11632 167.401 1.27359 167.784 1.45138C168.166 1.62917 168.508 1.79328 168.809 1.94371C169.11 2.08047 169.404 2.14885 169.691 2.14885C169.965 2.14885 170.17 2.01209 170.307 1.73858C170.444 1.46506 170.546 1.13683 170.614 0.753906H171.804V8.5492H170.512C170.416 7.59189 170.191 6.72346 169.835 5.94393C169.479 5.1644 169.042 4.50112 168.522 3.95408C168.002 3.40704 167.414 2.98993 166.758 2.70273C166.115 2.40186 165.459 2.25142 164.788 2.25142C164.378 2.25142 163.982 2.3198 163.599 2.45656C163.229 2.57965 162.901 2.76427 162.614 3.01044C162.327 3.25661 162.101 3.55064 161.937 3.89254C161.773 4.23444 161.691 4.61053 161.691 5.02081C161.691 5.55417 161.848 6.03967 162.163 6.4773C162.491 6.90125 162.915 7.30469 163.435 7.68762C163.954 8.05687 164.549 8.41245 165.219 8.75434C165.889 9.08257 166.573 9.4313 167.271 9.80056C167.968 10.1698 168.652 10.5596 169.322 10.9698C169.992 11.3801 170.587 11.8383 171.107 12.3443C171.626 12.8503 172.044 13.4247 172.358 14.0675C172.686 14.6965 172.85 15.4214 172.85 16.2419Z" fill="white"/>
<path d="M192.257 22.1705H174.738V20.9396C175.367 20.9396 175.873 20.8918 176.256 20.796C176.652 20.6866 176.953 20.5225 177.158 20.3037C177.377 20.0712 177.521 19.7703 177.589 19.4011C177.658 19.0182 177.692 18.56 177.692 18.0266V5.34903C177.692 4.81567 177.658 4.36436 177.589 3.99511C177.521 3.61218 177.377 3.31131 177.158 3.0925C176.953 2.86 176.652 2.69589 176.256 2.60016C175.873 2.49075 175.367 2.43605 174.738 2.43605V1.20521H185.754V2.43605C185.125 2.43605 184.605 2.49075 184.195 2.60016C183.784 2.69589 183.456 2.86 183.21 3.0925C182.964 3.31131 182.793 3.61218 182.697 3.99511C182.601 4.36436 182.554 4.81567 182.554 5.34903V18.0266C182.554 18.4916 182.581 18.8746 182.636 19.1754C182.704 19.4763 182.854 19.7156 183.087 19.8934C183.319 20.0575 183.661 20.1738 184.113 20.2422C184.578 20.3105 185.2 20.3447 185.979 20.3447H187.6C188.147 20.3447 188.667 20.2627 189.159 20.0986C189.665 19.9344 190.151 19.6472 190.616 19.237C191.081 18.813 191.532 18.2455 191.969 17.5343C192.407 16.8232 192.838 15.9205 193.262 14.8265H194.493L192.257 22.1705Z" fill="white"/>
<path d="M218.371 11.6878C218.371 13.1512 218.111 14.5461 217.591 15.8727C217.085 17.1993 216.354 18.3685 215.396 19.3806C214.439 20.3789 213.27 21.179 211.889 21.7807C210.521 22.3688 208.976 22.6628 207.252 22.6628C205.529 22.6628 203.977 22.3688 202.596 21.7807C201.214 21.1926 200.038 20.3994 199.067 19.4011C198.11 18.4027 197.371 17.2403 196.852 15.9137C196.346 14.5735 196.093 13.1648 196.093 11.6878C196.093 10.1698 196.366 8.74751 196.913 7.42094C197.474 6.08069 198.247 4.91824 199.231 3.93357C200.23 2.9489 201.406 2.17621 202.76 1.61549C204.127 1.0411 205.611 0.753906 207.211 0.753906C208.935 0.753906 210.487 1.04794 211.868 1.63601C213.249 2.2104 214.419 2.99676 215.376 3.99511C216.347 4.99345 217.085 6.15591 217.591 7.48248C218.111 8.79537 218.371 10.1972 218.371 11.6878ZM212.791 11.7904C212.791 11.0929 212.75 10.3749 212.668 9.63644C212.6 8.89794 212.483 8.17995 212.319 7.48248C212.155 6.77133 211.93 6.10805 211.642 5.49263C211.369 4.86353 211.02 4.31649 210.596 3.85151C210.186 3.37285 209.7 2.99676 209.14 2.72324C208.579 2.44973 207.936 2.31297 207.211 2.31297C206.487 2.31297 205.844 2.44973 205.283 2.72324C204.722 2.99676 204.237 3.36601 203.827 3.831C203.416 4.29598 203.074 4.83618 202.801 5.4516C202.527 6.06702 202.302 6.71663 202.124 7.40042C201.96 8.08422 201.844 8.78853 201.775 9.51336C201.707 10.2245 201.673 10.9083 201.673 11.5648C201.673 12.1665 201.707 12.8229 201.775 13.5341C201.844 14.2452 201.96 14.9564 202.124 15.6675C202.302 16.365 202.527 17.042 202.801 17.6984C203.074 18.3412 203.416 18.9156 203.827 19.4216C204.237 19.9139 204.715 20.3105 205.263 20.6114C205.823 20.9123 206.473 21.0627 207.211 21.0627C208.305 21.0627 209.208 20.7687 209.919 20.1806C210.644 19.5789 211.218 18.8199 211.642 17.9036C212.066 16.9873 212.36 15.9889 212.524 14.9085C212.702 13.8145 212.791 12.7751 212.791 11.7904Z" fill="white"/>
<path d="M238.454 7.48248C238.304 5.95077 237.859 4.82934 237.121 4.11819C236.382 3.39337 235.274 3.03095 233.797 3.03095H232.464V18.2318C232.464 18.7651 232.498 19.2096 232.567 19.5652C232.649 19.9071 232.799 20.1806 233.018 20.3857C233.25 20.5909 233.558 20.7345 233.941 20.8165C234.338 20.8986 234.857 20.9396 235.5 20.9396V22.1705H224.587V20.9396C225.216 20.9396 225.729 20.8986 226.125 20.8165C226.522 20.7345 226.83 20.5909 227.048 20.3857C227.267 20.1806 227.411 19.9071 227.479 19.5652C227.561 19.2096 227.602 18.7651 227.602 18.2318V3.03095H226.064C225.339 3.03095 224.703 3.11301 224.156 3.27712C223.622 3.42756 223.164 3.68056 222.781 4.03614C222.398 4.37804 222.098 4.83618 221.879 5.41057C221.674 5.97129 221.537 6.66192 221.469 7.48248H220.217L220.422 1.20521H239.48L239.685 7.48248H238.454Z" fill="white"/>
<path d="M256.999 16.2419C256.999 17.1856 256.807 18.054 256.424 18.8472C256.041 19.6267 255.522 20.2969 254.865 20.8576C254.209 21.4183 253.429 21.8559 252.527 22.1705C251.638 22.4713 250.68 22.6218 249.655 22.6218C248.875 22.6218 248.246 22.5602 247.767 22.4371C247.302 22.3141 246.906 22.1773 246.578 22.0269C246.249 21.8628 245.955 21.7192 245.695 21.5961C245.449 21.473 245.155 21.4114 244.813 21.4114C244.43 21.4114 244.116 21.5277 243.87 21.7602C243.637 21.979 243.425 22.2662 243.234 22.6218H242.085V14.7239H243.295C243.377 15.4487 243.569 16.1941 243.87 16.9599C244.171 17.7258 244.588 18.4233 245.121 19.0523C245.654 19.6814 246.304 20.1943 247.07 20.5909C247.836 20.9875 248.725 21.1858 249.737 21.1858C250.188 21.1858 250.626 21.1243 251.05 21.0012C251.474 20.8644 251.843 20.6729 252.157 20.4268C252.486 20.1669 252.745 19.8592 252.937 19.5037C253.128 19.1344 253.224 18.7241 253.224 18.2728C253.224 17.6574 253.067 17.1104 252.752 16.6317C252.438 16.153 252.021 15.7154 251.501 15.3188C250.995 14.9085 250.414 14.5256 249.757 14.17C249.101 13.8008 248.431 13.4384 247.747 13.0828C247.077 12.7135 246.413 12.3238 245.757 11.9135C245.101 11.5032 244.513 11.0519 243.993 10.5596C243.487 10.0536 243.077 9.48601 242.762 8.85691C242.447 8.22782 242.29 7.50983 242.29 6.70295C242.29 5.82769 242.447 5.02764 242.762 4.30282C243.09 3.57799 243.542 2.95574 244.116 2.43605C244.704 1.90269 245.395 1.49241 246.188 1.20521C246.995 0.904342 247.884 0.753906 248.855 0.753906C249.525 0.753906 250.106 0.829124 250.598 0.97956C251.104 1.11632 251.549 1.27359 251.932 1.45138C252.315 1.62917 252.657 1.79328 252.957 1.94371C253.258 2.08047 253.552 2.14885 253.84 2.14885C254.113 2.14885 254.318 2.01209 254.455 1.73858C254.592 1.46506 254.694 1.13683 254.763 0.753906H255.952V8.5492H254.66C254.564 7.59189 254.339 6.72346 253.983 5.94393C253.628 5.1644 253.19 4.50112 252.67 3.95408C252.151 3.40704 251.562 2.98993 250.906 2.70273C250.263 2.40186 249.607 2.25142 248.937 2.25142C248.526 2.25142 248.13 2.3198 247.747 2.45656C247.378 2.57965 247.049 2.76427 246.762 3.01044C246.475 3.25661 246.249 3.55064 246.085 3.89254C245.921 4.23444 245.839 4.61053 245.839 5.02081C245.839 5.55417 245.996 6.03967 246.311 6.4773C246.639 6.90125 247.063 7.30469 247.583 7.68762C248.102 8.05687 248.697 8.41245 249.367 8.75434C250.038 9.08257 250.721 9.4313 251.419 9.80056C252.116 10.1698 252.8 10.5596 253.47 10.9698C254.14 11.3801 254.735 11.8383 255.255 12.3443C255.775 12.8503 256.192 13.4247 256.506 14.0675C256.835 14.6965 256.999 15.4214 256.999 16.2419Z" fill="white"/>
</svg>
