<svg width="119" height="42" viewBox="0 0 119 42" fill="none" xmlns="http://www.w3.org/2000/svg">
<path d="M41.3637 5.80519C41.3637 8.83559 38.907 11.2922 35.8766 11.2922C32.8463 11.2922 30.3896 8.83559 30.3896 5.80519C30.3896 2.7748 32.8463 0.318176 35.8766 0.318176C38.907 0.318176 41.3637 2.7748 41.3637 5.80519Z" fill="#E1241B"/>
<path d="M41.3637 36.1948C41.3637 39.2252 38.907 41.6818 35.8766 41.6818C32.8463 41.6818 30.3896 39.2252 30.3896 36.1948C30.3896 33.1644 32.8463 30.7078 35.8766 30.7078C38.907 30.7078 41.3637 33.1644 41.3637 36.1948Z" fill="#E1241B"/>
<path d="M26.1688 5.80519C26.1688 8.83559 23.7122 11.2922 20.6818 11.2922C17.6514 11.2922 15.1948 8.83559 15.1948 5.80519C15.1948 2.7748 17.6514 0.318176 20.6818 0.318176C23.7122 0.318176 26.1688 2.7748 26.1688 5.80519Z" fill="#E1241B"/>
<path d="M26.1688 36.1948C26.1688 39.2252 23.7122 41.6818 20.6818 41.6818C17.6514 41.6818 15.1948 39.2252 15.1948 36.1948C15.1948 33.1644 17.6514 30.7078 20.6818 30.7078C23.7122 30.7078 26.1688 33.1644 26.1688 36.1948Z" fill="#E1241B"/>
<path d="M10.974 5.80519C10.974 8.83559 8.51741 11.2922 5.48702 11.2922C2.45662 11.2922 0 8.83559 0 5.80519C0 2.7748 2.45662 0.318176 5.48702 0.318176C8.51741 0.318176 10.974 2.7748 10.974 5.80519Z" fill="#E1241B"/>
<path d="M10.974 36.1948C10.974 39.2252 8.51741 41.6818 5.48702 41.6818C2.45662 41.6818 0 39.2252 0 36.1948C0 33.1644 2.45662 30.7078 5.48702 30.7078C8.51741 30.7078 10.974 33.1644 10.974 36.1948Z" fill="#E1241B"/>
<path d="M10.974 21C10.974 24.0304 8.51741 26.487 5.48702 26.487C2.45662 26.487 0 24.0304 0 21C0 17.9696 2.45662 15.513 5.48702 15.513C8.51741 15.513 10.974 17.9696 10.974 21Z" fill="#E1241B"/>
<path d="M26.1688 21C26.1688 24.0304 23.7122 26.487 20.6818 26.487C17.6514 26.487 15.1948 24.0304 15.1948 21C15.1948 17.9696 17.6514 15.513 20.6818 15.513C23.7122 15.513 26.1688 17.9696 26.1688 21Z" fill="#E1241B"/>
<path d="M9.36692 1.92529C10.3959 2.9543 10.974 4.34995 10.974 5.80519C10.974 7.26044 10.3959 8.65608 9.36692 9.6851C8.33791 10.7141 6.94226 11.2922 5.48702 11.2922C4.03177 11.2922 2.63613 10.7141 1.60711 9.6851L9.36692 1.92529Z" fill="url(#paint0_linear_999_22178)"/>
<path d="M24.5617 1.92529C25.5908 2.9543 26.1688 4.34995 26.1688 5.80519C26.1688 7.26044 25.5908 8.65608 24.5617 9.6851C23.5327 10.7141 22.1371 11.2922 20.6818 11.2922C19.2266 11.2922 17.8309 10.7141 16.8019 9.6851L24.5617 1.92529Z" fill="url(#paint1_linear_999_22178)"/>
<path d="M39.7566 1.92529C40.7856 2.9543 41.3637 4.34995 41.3637 5.80519C41.3637 7.26044 40.7856 8.65608 39.7566 9.6851C38.7275 10.7141 37.3319 11.2922 35.8766 11.2922C34.4214 11.2922 33.0258 10.7141 31.9967 9.6851L39.7566 1.92529Z" fill="url(#paint2_linear_999_22178)"/>
<path d="M24.5617 17.1201C25.5908 18.1491 26.1688 19.5448 26.1688 21C26.1688 22.4553 25.5908 23.8509 24.5617 24.8799C23.5327 25.9089 22.1371 26.487 20.6818 26.487C19.2266 26.487 17.8309 25.9089 16.8019 24.8799L24.5617 17.1201Z" fill="url(#paint3_linear_999_22178)"/>
<path d="M9.36692 17.1201C10.3959 18.1491 10.974 19.5448 10.974 21C10.974 22.4553 10.3959 23.8509 9.36692 24.8799C8.33791 25.9089 6.94226 26.487 5.48702 26.487C4.03177 26.487 2.63613 25.9089 1.60711 24.8799L9.36692 17.1201Z" fill="url(#paint4_linear_999_22178)"/>
<path d="M9.36692 32.3149C10.3959 33.3439 10.974 34.7396 10.974 36.1948C10.974 37.6501 10.3959 39.0457 9.36692 40.0747C8.33791 41.1037 6.94226 41.6818 5.48702 41.6818C4.03177 41.6818 2.63613 41.1037 1.60711 40.0747L9.36692 32.3149Z" fill="url(#paint5_linear_999_22178)"/>
<path d="M24.5617 32.3149C25.5908 33.3439 26.1688 34.7396 26.1688 36.1948C26.1688 37.6501 25.5908 39.0457 24.5617 40.0747C23.5327 41.1037 22.1371 41.6818 20.6818 41.6818C19.2266 41.6818 17.8309 41.1037 16.8019 40.0747L24.5617 32.3149Z" fill="url(#paint6_linear_999_22178)"/>
<path d="M39.7566 32.3149C40.7856 33.3439 41.3637 34.7396 41.3637 36.1948C41.3637 37.6501 40.7856 39.0457 39.7566 40.0747C38.7275 41.1037 37.3319 41.6818 35.8766 41.6818C34.4214 41.6818 33.0258 41.1037 31.9967 40.0747L39.7566 32.3149Z" fill="url(#paint7_linear_999_22178)"/>
<path d="M107.08 16.2586H103.775V27.7997H101.571V16.2586H98.2656V14.3182H107.08V16.2586Z" fill="white"/>
<path d="M118.632 16.3343L116.943 17.2694C116.805 16.9577 116.6 16.6849 116.325 16.4512C115.913 16.1394 115.419 15.9836 114.842 15.9836C114.224 15.9836 113.744 16.133 113.4 16.4317C113.071 16.7304 112.906 17.1006 112.906 17.5421C112.906 18.2175 113.4 18.7435 114.389 19.1202L115.769 19.6462C117.924 20.4774 119.002 21.7502 119.002 23.4646C119.002 24.6985 118.584 25.7051 117.746 26.4843C116.922 27.2506 115.865 27.7997 114.574 27.7997C113.242 27.7997 112.165 27.3646 111.341 26.4944C110.668 25.7801 110.284 24.7699 110.188 23.7958L112.268 23.3672C112.268 23.9907 112.46 24.5426 112.844 25.0232C113.284 25.5427 113.881 25.8025 114.636 25.8025C115.281 25.8025 115.817 25.6012 116.243 25.1985C116.682 24.7959 116.902 24.2699 116.902 23.6205C116.902 23.0231 116.716 22.562 116.346 22.2373C115.989 21.9126 115.515 21.6333 114.924 21.3996L113.606 20.8736C111.739 20.1332 110.805 19.0358 110.805 17.5811C110.805 16.646 111.162 16.0067 111.876 15.3313C112.604 14.6559 113.586 14.3182 114.821 14.3182C115.934 14.3182 116.854 14.4445 117.581 15.029C118.007 15.3926 118.357 15.8277 118.632 16.3343Z" fill="white"/>
<path d="M32.9297 14.3181H35.0594V25.8592H39.1519V27.7995H32.9297V14.3181Z" fill="white"/>
<path d="M55.3585 27.7997H53.1484L55.7412 14.3182L61.0539 23.4949L66.1115 14.3182L68.7041 27.7997H66.4941L65.049 19.6954L60.9264 27.7997L56.8462 19.6767L55.3585 27.7997Z" fill="white"/>
<path d="M84.8423 27.7997H82.7109V14.3182L92.8245 23.7449V14.3182H94.9559L94.8961 27.7997L84.8423 18.8923V27.7997Z" fill="white"/>
<path d="M49.9477 14.3182V16.2347H44.3949V19.6085H49.7807V21.525H44.3949V25.7173H49.9477V27.7997H42.2656V14.3182H49.9477Z" fill="white"/>
<path d="M79.5023 14.3182V16.2347H73.9496V19.6085H79.3353V21.525H73.9496V25.7173H79.5023V27.7997H71.8203V14.3182H79.5023Z" fill="white"/>
<path d="M83.1779 34.4055V35.3595C82.9013 35.083 82.6006 34.8687 82.2756 34.7166C81.8816 34.5368 81.484 34.4469 81.083 34.4469C80.288 34.4469 79.6243 34.7269 79.0919 35.2869C78.5665 35.84 78.3038 36.521 78.3038 37.3299C78.3038 38.201 78.5907 38.8889 79.1645 39.3936C79.7453 39.8983 80.3882 40.1506 81.0934 40.1506C81.5359 40.1506 81.9645 40.0435 82.3793 39.8292C82.6697 39.684 82.9359 39.4904 83.1779 39.2484V40.2025C82.5487 40.6519 81.8539 40.8766 81.0934 40.8766C80.0702 40.8766 79.2164 40.5344 78.5319 39.8499C77.8544 39.1655 77.5156 38.322 77.5156 37.3195C77.5156 36.2894 77.8578 35.4321 78.5423 34.7477C79.2337 34.0632 80.0978 33.721 81.1349 33.721C81.8954 33.721 82.5764 33.9492 83.1779 34.4055Z" fill="white"/>
<path d="M90.2555 40.7521L89.4466 38.8025H86.5014L85.6718 40.7521H84.8214L88.0051 33.5032L91.1058 40.7521H90.2555ZM86.8021 38.0766H89.1458L87.9844 35.3077L86.8021 38.0766Z" fill="white"/>
<path d="M96.7092 34.7995L96.0974 35.204C95.9868 34.9897 95.852 34.8168 95.693 34.6855C95.4855 34.5264 95.2263 34.4469 94.9152 34.4469C94.5695 34.4469 94.2895 34.5472 94.0752 34.7477C93.8609 34.9413 93.7537 35.1971 93.7537 35.5151C93.7537 35.7502 93.8401 35.9506 94.013 36.1166C94.1512 36.2548 94.3932 36.4 94.7389 36.5521L95.4026 36.8425C95.8934 37.0568 96.2495 37.2746 96.4707 37.4958C96.8026 37.8277 96.9685 38.246 96.9685 38.7506C96.9685 39.3798 96.7611 39.8914 96.3463 40.2855C95.9315 40.6795 95.4095 40.8766 94.7804 40.8766C94.1581 40.8766 93.6569 40.6899 93.2767 40.3166C92.9655 40.0124 92.7512 39.6045 92.6337 39.0929L93.3804 38.8855C93.4288 39.2311 93.567 39.525 93.7952 39.7669C94.051 40.0227 94.3828 40.1506 94.7907 40.1506C95.2332 40.1506 95.5754 40.0193 95.8174 39.7566C96.0594 39.4869 96.1804 39.162 96.1804 38.7818C96.1804 38.4499 96.0663 38.1803 95.8381 37.9729C95.7068 37.8484 95.4302 37.6894 95.0085 37.4958L94.3863 37.2055C93.9646 37.0119 93.6569 36.8218 93.4633 36.6351C93.1453 36.3309 92.9863 35.9541 92.9863 35.5047C92.9863 34.9724 93.166 34.5437 93.5255 34.2188C93.892 33.8869 94.3586 33.721 94.9255 33.721C95.3542 33.721 95.7241 33.8247 96.0352 34.0321C96.3186 34.2188 96.5433 34.4746 96.7092 34.7995Z" fill="white"/>
<path d="M99.4115 33.8351H100.179V40.7521H99.4115V33.8351Z" fill="white"/>
<path d="M103.768 40.7521H103.001V33.5447L108.393 39.1966V33.8351H109.161V41.0632L103.768 35.4114V40.7521Z" fill="white"/>
<path d="M117.754 39.8499C117.062 40.5344 116.212 40.8766 115.203 40.8766C114.193 40.8766 113.34 40.5344 112.641 39.8499C111.95 39.1655 111.604 38.3151 111.604 37.2988C111.604 36.2756 111.953 35.4252 112.652 34.7477C113.35 34.0632 114.2 33.721 115.203 33.721C116.205 33.721 117.056 34.0632 117.754 34.7477C118.452 35.4252 118.801 36.2756 118.801 37.2988C118.801 38.3151 118.452 39.1655 117.754 39.8499ZM117.194 35.2766C116.648 34.7235 115.984 34.4469 115.203 34.4469C114.421 34.4469 113.758 34.7235 113.212 35.2766C112.665 35.8297 112.392 36.5037 112.392 37.2988C112.392 38.0939 112.665 38.7679 113.212 39.321C113.758 39.8741 114.421 40.1506 115.203 40.1506C115.984 40.1506 116.648 39.8741 117.194 39.321C117.74 38.7679 118.013 38.0939 118.013 37.2988C118.013 36.5037 117.74 35.8297 117.194 35.2766Z" fill="white"/>
<defs>
<linearGradient id="paint0_linear_999_22178" x1="20.6818" y1="0.318176" x2="20.6818" y2="41.6818" gradientUnits="userSpaceOnUse">
<stop stop-color="#182AB4"/>
<stop offset="1" stop-color="#162190"/>
</linearGradient>
<linearGradient id="paint1_linear_999_22178" x1="20.6818" y1="0.318176" x2="20.6818" y2="41.6818" gradientUnits="userSpaceOnUse">
<stop stop-color="#182AB4"/>
<stop offset="1" stop-color="#162190"/>
</linearGradient>
<linearGradient id="paint2_linear_999_22178" x1="20.6818" y1="0.318176" x2="20.6818" y2="41.6818" gradientUnits="userSpaceOnUse">
<stop stop-color="#182AB4"/>
<stop offset="1" stop-color="#162190"/>
</linearGradient>
<linearGradient id="paint3_linear_999_22178" x1="20.6818" y1="0.318176" x2="20.6818" y2="41.6818" gradientUnits="userSpaceOnUse">
<stop stop-color="#182AB4"/>
<stop offset="1" stop-color="#162190"/>
</linearGradient>
<linearGradient id="paint4_linear_999_22178" x1="20.6818" y1="0.318176" x2="20.6818" y2="41.6818" gradientUnits="userSpaceOnUse">
<stop stop-color="#182AB4"/>
<stop offset="1" stop-color="#162190"/>
</linearGradient>
<linearGradient id="paint5_linear_999_22178" x1="20.6818" y1="0.318176" x2="20.6818" y2="41.6818" gradientUnits="userSpaceOnUse">
<stop stop-color="#182AB4"/>
<stop offset="1" stop-color="#162190"/>
</linearGradient>
<linearGradient id="paint6_linear_999_22178" x1="20.6818" y1="0.318176" x2="20.6818" y2="41.6818" gradientUnits="userSpaceOnUse">
<stop stop-color="#182AB4"/>
<stop offset="1" stop-color="#162190"/>
</linearGradient>
<linearGradient id="paint7_linear_999_22178" x1="20.6818" y1="0.318176" x2="20.6818" y2="41.6818" gradientUnits="userSpaceOnUse">
<stop stop-color="#182AB4"/>
<stop offset="1" stop-color="#162190"/>
</linearGradient>
</defs>
</svg>
