<svg width="89" height="52" viewBox="0 0 89 52" fill="none" xmlns="http://www.w3.org/2000/svg">
<path d="M45.8798 22.6936H37.3601L35.9503 26.7695H31.4453L39.1376 5.34766H44.133L51.8252 26.7695H47.2895L45.8798 22.6936ZM44.7152 19.2612L41.6199 10.3124L38.5246 19.2612H44.7152Z" fill="#FFE330"/>
<path d="M58.991 23.3678H66.0397V26.7695H54.7005V5.3783H58.991V23.3678Z" fill="#FFE330"/>
<path d="M81.8834 22.6936H73.3637L71.954 26.7695H67.4489L75.1412 5.34766H80.1366L87.8288 26.7695H83.2932L81.8834 22.6936ZM80.7189 19.2612L77.6236 10.3124L74.5283 19.2612H80.7189Z" fill="#FFE330"/>
<path d="M40.0132 45.2568C39.814 45.0883 39.6761 44.8814 39.5995 44.6362C39.5229 44.3911 39.4846 44.1229 39.4846 43.8318C39.4846 43.6479 39.4922 43.464 39.5076 43.2801C39.5382 43.0809 39.5689 42.8817 39.5995 42.6825C39.7221 42.0696 39.929 41.3417 40.2201 40.499C40.5266 39.6562 40.8713 38.7751 41.2544 37.8557C41.6528 36.9363 42.0512 36.0476 42.4496 35.1895C42.8634 34.316 43.2311 33.5499 43.5529 32.891C43.89 32.2167 44.1428 31.7187 44.3114 31.397C44.3727 31.2744 44.4263 31.1594 44.4723 31.0522C44.5336 30.9449 44.5949 30.8453 44.6562 30.7534L43.8287 30.8683C43.1392 30.9602 42.4266 31.1058 41.6911 31.305C40.9709 31.5042 40.3197 31.7647 39.7374 32.0865C39.1705 32.393 38.7567 32.7684 38.4962 33.2128C38.4809 33.2587 38.4503 33.2817 38.4043 33.2817C38.3736 33.2817 38.3507 33.2511 38.3353 33.1898C38.3047 33.1285 38.297 33.0595 38.3123 32.9829C38.4656 32.5845 38.6571 32.2014 38.887 31.8337C39.1168 31.4659 39.339 31.1748 39.5535 30.9602C39.8906 30.6078 40.3503 30.355 40.9326 30.2017C41.5149 30.0485 42.1125 29.9489 42.7254 29.9029C43.3537 29.857 43.89 29.834 44.3344 29.834H48.8624C49.9197 29.834 50.7625 29.9949 51.3907 30.3167C52.0343 30.6385 52.494 31.0675 52.7698 31.6038C53.0456 32.1248 53.1529 32.6841 53.0916 33.2817C53.0303 33.9253 52.8464 34.4846 52.54 34.9596C52.2335 35.4346 51.8504 35.8407 51.3907 36.1778C50.9464 36.4996 50.479 36.7601 49.9887 36.9593C49.5136 37.1432 49.0693 37.2811 48.6555 37.373C49.9427 37.6182 50.8621 38.0396 51.4137 38.6372C51.9654 39.2348 52.2412 39.9473 52.2412 40.7748C52.2412 41.4337 52.0803 42.0543 51.7585 42.6366C51.452 43.2035 51.0306 43.7168 50.4943 44.1765C50.0346 44.5749 49.4294 44.935 48.6785 45.2568C47.9277 45.5633 47.1156 45.8085 46.2421 45.9923C45.3687 46.1762 44.5029 46.2682 43.6448 46.2682C42.9246 46.2682 42.2428 46.1839 41.5992 46.0153C40.9556 45.8621 40.427 45.6093 40.0132 45.2568ZM42.8174 45.2568C43.0319 45.2875 43.2464 45.3105 43.461 45.3258C43.6755 45.3411 43.89 45.3488 44.1045 45.3488C44.8554 45.3488 45.5909 45.2415 46.3111 45.027C47.0313 44.7971 47.6595 44.437 48.1958 43.9467C48.7475 43.4563 49.1382 42.8128 49.3681 42.016C49.506 41.5716 49.5749 41.1195 49.5749 40.6599C49.5749 39.9397 49.3911 39.2961 49.0233 38.7291C48.6709 38.1468 48.1116 37.8097 47.3454 37.7178C47.1768 37.7638 46.924 37.8174 46.5869 37.8787C46.2498 37.94 45.8974 37.9936 45.5296 38.0396C45.1618 38.0855 44.8477 38.1085 44.5872 38.1085C44.342 38.1085 44.2195 38.0549 44.2195 37.9476C44.2195 37.8557 44.2884 37.7484 44.4263 37.6259C44.5642 37.4879 44.7175 37.373 44.886 37.2811C45.0546 37.1738 45.1925 37.1125 45.2997 37.0972C45.5756 37.0512 45.8974 37.0282 46.2651 37.0282C46.4643 37.0282 46.6635 37.0359 46.8627 37.0512C47.0772 37.0666 47.2994 37.0895 47.5293 37.1202C48.0196 36.967 48.4257 36.7601 48.7475 36.4996C49.0693 36.2391 49.3451 35.9939 49.5749 35.7641C49.9427 35.381 50.2262 34.9443 50.4254 34.4539C50.6246 33.9483 50.7242 33.4579 50.7242 32.9829C50.7242 32.3547 50.5709 31.872 50.2645 31.5349C49.9733 31.1824 49.5826 30.9296 49.0922 30.7764C48.6019 30.6231 48.0733 30.5389 47.5063 30.5235C47.2305 30.8913 46.9393 31.328 46.6329 31.8337C46.3417 32.324 46.0659 32.8297 45.8054 33.3507C45.5449 33.8717 45.3151 34.3543 45.1159 34.7987C44.6868 35.7181 44.2348 36.7218 43.7598 37.8097C43.3001 38.8977 42.917 39.955 42.6105 40.9816C42.4573 41.4567 42.3041 41.97 42.1508 42.5216C42.0129 43.0579 41.944 43.5406 41.944 43.9697C41.944 44.3068 42.0052 44.5903 42.1278 44.8201C42.2504 45.05 42.4803 45.1955 42.8174 45.2568Z" fill="#FFE330"/>
<path d="M57.7904 34.8447C57.392 34.7068 57.1928 34.4463 57.1928 34.0632C57.1928 33.7108 57.3307 33.3507 57.6065 32.9829C57.8977 32.5998 58.2118 32.3547 58.5489 32.2474C58.6255 32.2167 58.6868 32.2014 58.7328 32.2014C58.7941 32.2014 58.8554 32.2014 58.9167 32.2014C59.1772 32.2014 59.3917 32.278 59.5602 32.4313C59.7288 32.5845 59.8131 32.7607 59.8131 32.9599C59.8131 33.2357 59.6675 33.4656 59.3764 33.6495C59.1465 33.6188 58.9243 33.6725 58.7098 33.8104C58.4953 33.9483 58.3037 34.1168 58.1352 34.316C57.9819 34.5152 57.867 34.6915 57.7904 34.8447ZM53.837 46.0153C53.6378 46.0153 53.4463 45.9694 53.2624 45.8774C53.0785 45.8008 52.9253 45.6399 52.8027 45.3947C52.6341 45.027 52.5499 44.5903 52.5499 44.0846C52.5499 43.533 52.6341 42.92 52.8027 42.2458C52.9712 41.5563 53.1934 40.8514 53.4692 40.1312C53.5765 39.8707 53.7144 39.5489 53.883 39.1658C54.0515 38.7828 54.2507 38.3997 54.4806 38.0166C54.7104 37.6335 54.9709 37.3194 55.2621 37.0742C55.5685 36.8137 55.898 36.6835 56.2504 36.6835C56.419 36.6835 56.6565 36.6911 56.9629 36.7065C57.2694 36.7218 57.4916 36.7218 57.6295 36.7065C57.5376 36.7678 57.4303 36.8903 57.3077 37.0742C57.1851 37.2581 57.0702 37.4496 56.9629 37.6488C56.8557 37.8327 56.7714 37.9783 56.7101 38.0855C56.3117 38.8824 55.9363 39.6715 55.5839 40.453C55.2314 41.2345 54.9633 41.9853 54.7794 42.7055C54.7487 42.8281 54.7258 42.9507 54.7104 43.0733C54.6951 43.1958 54.6874 43.3108 54.6874 43.418C54.6874 43.8624 54.833 44.0846 55.1242 44.0846C55.2467 44.0846 55.377 44.0539 55.5149 43.9927C55.6681 43.916 55.8444 43.8011 56.0436 43.6479C56.396 43.3721 56.7024 43.0579 56.9629 42.7055C57.2694 42.3071 57.5606 41.8857 57.8364 41.4413C58.1122 40.9816 58.3497 40.5603 58.5489 40.1772C58.6255 40.0546 58.6791 39.9933 58.7098 39.9933C58.8017 39.9933 58.8477 40.1235 58.8477 40.384C58.8477 40.5066 58.8247 40.6522 58.7788 40.8207C58.7481 40.974 58.6945 41.1195 58.6179 41.2575C58.4033 41.6252 58.1505 42.0313 57.8594 42.4757C57.5682 42.92 57.2694 43.3491 56.9629 43.7628C56.7484 44.054 56.4649 44.3757 56.1125 44.7282C55.7601 45.0806 55.3847 45.3871 54.9862 45.6476C54.5878 45.8927 54.2048 46.0153 53.837 46.0153Z" fill="#FFE330"/>
<path d="M63.8537 46.0153C63.3327 46.0153 62.9727 45.8621 62.7734 45.5556C62.5896 45.2338 62.4976 44.8661 62.4976 44.4524C62.4976 43.9467 62.5972 43.3414 62.7964 42.6366C62.9956 41.9164 63.2255 41.1962 63.486 40.476C63.7618 39.7405 64.007 39.0892 64.2215 38.5223C64.2828 38.3844 64.3134 38.2388 64.3134 38.0855C64.3134 37.917 64.2598 37.7944 64.1525 37.7178C64.0453 37.6412 63.9074 37.6029 63.7388 37.6029C63.4936 37.6029 63.2178 37.6795 62.9114 37.8327C62.4363 38.0779 61.9843 38.4686 61.5553 39.0049C61.1262 39.5413 60.7814 40.1006 60.5209 40.6828C60.2298 41.3417 59.9693 42.0006 59.7394 42.6595C59.5096 43.3184 59.3257 43.8547 59.1878 44.2685C59.0959 44.529 59.0116 44.7971 58.935 45.0729C58.8584 45.3488 58.7817 45.6169 58.7051 45.8774H56.4756C56.4756 45.8774 56.5292 45.6859 56.6365 45.3028C56.7284 44.9197 56.851 44.5366 57.0042 44.1536C57.2647 43.4793 57.5252 42.8051 57.7857 42.1309C58.0616 41.4567 58.2991 40.8591 58.4983 40.3381C58.5596 40.1848 58.6515 39.9014 58.7741 39.4876C58.912 39.0586 59.0346 38.6142 59.1418 38.1545C59.2644 37.6948 59.3257 37.3194 59.3257 37.0282C59.3257 36.8597 59.3027 36.7448 59.2568 36.6835C59.3947 36.6835 59.5479 36.6835 59.7165 36.6835C59.9003 36.6681 60.0689 36.6605 60.2221 36.6605C60.4367 36.6605 60.6359 36.6681 60.8197 36.6835C61.0189 36.6988 61.1492 36.7371 61.2105 36.7984C61.3944 36.9363 61.4863 37.1355 61.4863 37.396C61.4863 37.5799 61.448 37.7638 61.3714 37.9476C61.3101 38.1315 61.2641 38.2847 61.2335 38.4073C61.448 38.2081 61.6702 38.0166 61.9 37.8327C62.1299 37.6488 62.4823 37.4113 62.9573 37.1202C63.2331 36.9516 63.5779 36.8137 63.9916 36.7065C64.4054 36.5992 64.7808 36.5456 65.1179 36.5456C65.9913 36.5456 66.428 36.9516 66.428 37.7638C66.428 37.9017 66.4127 38.0549 66.3821 38.2235C66.3667 38.392 66.3208 38.5759 66.2442 38.7751C66.1675 39.0203 66.045 39.3574 65.8764 39.7864C65.7078 40.2155 65.5316 40.6752 65.3478 41.1655C65.1792 41.6405 65.0336 42.0926 64.911 42.5216C64.7885 42.9507 64.7272 43.2954 64.7272 43.5559C64.7272 43.9237 64.8651 44.1076 65.1409 44.1076C65.3861 44.1076 65.6925 43.9543 66.0603 43.6479C66.4127 43.3567 66.7192 43.0426 66.9797 42.7055C67.3015 42.3071 67.5926 41.8857 67.8531 41.4413C68.1289 40.9816 68.3664 40.5603 68.5656 40.1772C68.6422 40.0546 68.6959 39.9933 68.7265 39.9933C68.8185 39.9933 68.8644 40.1235 68.8644 40.384C68.8644 40.5066 68.8414 40.6522 68.7955 40.8207C68.7648 40.974 68.7112 41.1195 68.6346 41.2575C68.4201 41.6252 68.1672 42.0313 67.8761 42.4757C67.5849 42.92 67.2861 43.3491 66.9797 43.7628C66.7652 44.054 66.4817 44.3757 66.1292 44.7282C65.7768 45.0806 65.4014 45.3871 65.003 45.6476C64.6046 45.8927 64.2215 46.0153 63.8537 46.0153Z" fill="#FFE330"/>
<path d="M68.1415 51.2789C67.6358 51.2789 67.1685 51.1716 66.7394 50.9571C66.3104 50.7579 66.0958 50.3824 66.0958 49.8308C66.0958 49.5243 66.1878 49.2102 66.3717 48.8884C66.5555 48.582 66.816 48.3828 67.1531 48.2908C67.1838 48.2755 67.2221 48.2678 67.2681 48.2678C67.314 48.2678 67.3523 48.2678 67.383 48.2678C67.7967 48.2678 68.0725 48.4287 68.2104 48.7505C68.1798 48.7658 68.1338 48.8118 68.0725 48.8884C68.0112 48.9804 67.9653 49.0493 67.9346 49.0953C67.7967 49.3711 67.7278 49.6163 67.7278 49.8308C67.7278 50.076 67.8044 50.2675 67.9576 50.4054C68.1262 50.5433 68.3407 50.6123 68.6012 50.6123C68.8157 50.6123 69.0456 50.5587 69.2907 50.4514C69.5512 50.3595 69.8194 50.2062 70.0952 49.9917C70.5855 49.5933 70.984 49.1106 71.2904 48.5437C71.6122 47.992 71.888 47.448 72.1179 46.9117C72.5163 45.9617 72.8917 44.958 73.2441 43.9007C73.6119 42.8434 73.972 41.8244 74.3244 40.8437C74.0333 41.38 73.7191 41.9164 73.382 42.4527C73.0602 42.989 72.7308 43.4563 72.3937 43.8547C71.9033 44.4524 71.3824 44.9504 70.8307 45.3488C70.2944 45.7472 69.7581 45.9464 69.2218 45.9464C68.7927 45.9464 68.425 45.7931 68.1185 45.4867C67.812 45.1649 67.6588 44.6132 67.6588 43.8318C67.6588 43.035 67.7967 42.2152 68.0725 41.3724C68.3484 40.5296 68.7314 39.7481 69.2218 39.0279C69.7274 38.2924 70.3174 37.7025 70.9916 37.2581C71.6812 36.8137 72.432 36.5915 73.2441 36.5915C73.5046 36.5915 73.7881 36.6298 74.0946 36.7065C74.401 36.7831 74.6769 36.921 74.922 37.1202C75.1825 37.3194 75.3587 37.6029 75.4507 37.9706C75.6652 37.5109 75.9257 37.1815 76.2322 36.9823C76.5386 36.7831 77.0673 36.6835 77.8181 36.6835H78.7375C78.4464 36.8674 78.1552 37.2121 77.8641 37.7178C77.5729 38.2081 77.2971 38.7904 77.0366 39.4646C76.8374 39.955 76.6076 40.5296 76.3471 41.1885C76.1019 41.8474 75.8721 42.4757 75.6575 43.0733C75.4583 43.6249 75.2285 44.2378 74.968 44.9121C74.7228 45.5863 74.4393 46.2528 74.1175 46.9117C73.8111 47.5706 73.4587 48.1529 73.0602 48.6586C72.4473 49.4401 71.6965 50.0683 70.8077 50.5433C69.9343 51.0337 69.0456 51.2789 68.1415 51.2789ZM70.2331 44.0156C70.2791 44.031 70.348 44.0386 70.44 44.0386C70.7311 44.0386 71.0452 43.916 71.3824 43.6709C71.7195 43.4257 72.0566 43.1116 72.3937 42.7285C72.7308 42.3301 73.0296 41.9317 73.2901 41.5333C73.9337 40.5373 74.4164 39.7711 74.7381 39.2348C75.0753 38.6985 75.2745 38.3614 75.3358 38.2235C75.3511 38.2235 75.3587 38.2081 75.3587 38.1775C75.2821 37.917 75.1442 37.7331 74.945 37.6259C74.7611 37.5033 74.5466 37.442 74.3014 37.442C73.9643 37.442 73.6042 37.5339 73.2211 37.7178C72.8381 37.9017 72.5163 38.1239 72.2558 38.3844C71.8574 38.7828 71.4743 39.2961 71.1065 39.9243C70.7541 40.5526 70.463 41.1732 70.2331 41.7861C70.0033 42.399 69.8883 42.9124 69.8883 43.3261C69.8883 43.7092 70.0033 43.939 70.2331 44.0156Z" fill="#FFE330"/>
<path d="M80.1127 46.0613C79.4078 46.0613 78.7949 45.8391 78.2739 45.3947C77.7682 44.9504 77.5154 44.2378 77.5154 43.2571C77.5154 42.5369 77.6456 41.7861 77.9061 41.0046C78.1666 40.2231 78.5344 39.4953 79.0094 38.8211C79.4997 38.1468 80.0897 37.5952 80.7792 37.1662C81.4688 36.7371 82.2426 36.5226 83.1007 36.5226C83.8055 36.5226 84.3495 36.6605 84.7326 36.9363C85.131 37.1968 85.4145 37.5492 85.583 37.9936C85.7516 38.438 85.8359 38.913 85.8359 39.4187C85.8359 39.8018 85.7899 40.1925 85.698 40.5909C85.6214 40.974 85.5064 41.3571 85.3532 41.7401C85.6137 42.0466 85.9431 42.1998 86.3415 42.1998C86.7706 42.1998 87.169 42.0389 87.5368 41.7172C87.7513 41.5333 87.9428 41.3034 88.1114 41.0276C88.2953 40.7365 88.4562 40.4683 88.5941 40.2231C88.64 40.1312 88.6937 40.0852 88.755 40.0852C88.8316 40.0852 88.8699 40.1925 88.8699 40.407C88.8699 40.5449 88.8469 40.7058 88.8009 40.8897C88.7703 41.0736 88.6937 41.2575 88.5711 41.4413C88.3412 41.8397 88.1037 42.1462 87.8585 42.3607C87.6134 42.5599 87.3376 42.7208 87.0311 42.8434C86.8012 42.9354 86.5561 42.9813 86.2956 42.9813C85.8206 42.9813 85.3915 42.8358 85.0084 42.5446C84.8858 42.8051 84.7326 43.0733 84.5487 43.3491C84.1044 44.0999 83.5297 44.7435 82.8249 45.2798C82.12 45.8008 81.2159 46.0613 80.1127 46.0613ZM80.9861 45.1879C81.3385 45.1879 81.6756 45.0729 81.9974 44.8431C82.3345 44.5979 82.641 44.2991 82.9168 43.9467C83.1926 43.5943 83.4301 43.2265 83.6293 42.8434C83.8439 42.4603 84.0201 42.1232 84.158 41.8321C83.637 41.3877 83.3765 40.8284 83.3765 40.1542C83.3765 39.7098 83.4991 39.365 83.7443 39.1199C83.9894 38.8747 84.3265 38.7674 84.7556 38.7981C84.7403 38.4456 84.6483 38.1545 84.4798 37.9247C84.3112 37.6948 84.0354 37.5799 83.6523 37.5799C83.2999 37.5799 82.9628 37.6871 82.641 37.9017C82.3345 38.1162 82.0434 38.392 81.7676 38.7291C81.5071 39.0509 81.2696 39.388 81.055 39.7405C80.8558 40.0776 80.6873 40.384 80.5494 40.6599C80.3502 41.0583 80.1663 41.5409 79.9977 42.1079C79.8292 42.6749 79.7449 43.2035 79.7449 43.6939C79.7449 44.1229 79.8292 44.483 79.9977 44.7741C80.1816 45.05 80.5111 45.1879 80.9861 45.1879Z" fill="#FFE330"/>
<circle cx="15.3232" cy="16.0439" r="15.3232" fill="#FFE330"/>
<path d="M20.0768 11.8151C19.5865 10.9161 18.9122 10.2317 18.0541 9.76178C17.196 9.29187 16.1949 9.05691 15.0508 9.05691C13.7841 9.05691 12.6603 9.34295 11.6797 9.91501C10.699 10.4871 9.93281 11.3043 9.38117 12.3667C8.82954 13.4291 8.55372 14.655 8.55372 16.0443C8.55372 17.4745 8.82954 18.7208 9.38117 19.7832C9.95324 20.8456 10.7398 21.6628 11.741 22.2349C12.7421 22.807 13.9066 23.093 15.2346 23.093C16.8691 23.093 18.2074 22.6639 19.2493 21.8058C20.2913 20.9273 20.9758 19.7117 21.3027 18.1589H13.9475V14.8797H25.5319V18.6186C25.2458 20.1101 24.6329 21.4892 23.6931 22.7559C22.7533 24.0226 21.5376 25.0442 20.0461 25.8205C18.5751 26.5765 16.9202 26.9545 15.0814 26.9545C13.0179 26.9545 11.1485 26.4948 9.47311 25.5754C7.8182 24.6355 6.51062 23.3382 5.55036 21.6833C4.61054 20.0283 4.14062 18.1487 4.14062 16.0443C4.14062 13.9399 4.61054 12.0603 5.55036 10.4054C6.51062 8.73001 7.8182 7.43265 9.47311 6.51325C11.1485 5.57343 13.0077 5.10352 15.0508 5.10352C17.4616 5.10352 19.5558 5.69601 21.3333 6.88101C23.1108 8.04558 24.3367 9.69027 25.0109 11.8151H20.0768Z" fill="#092BA6"/>
</svg>
