<svg width="276" height="28" viewBox="0 0 276 28" fill="none" xmlns="http://www.w3.org/2000/svg">
<g clip-path="url(#clip0_3691_8519)">
<path d="M196.305 13.9781C196.305 11.7137 196.653 9.71065 197.35 7.96883C198.076 6.22701 199.048 4.77549 200.267 3.61428C201.516 2.42403 202.967 1.52409 204.622 0.914455C206.306 0.304818 208.12 0 210.065 0C212.01 0 213.81 0.304818 215.465 0.914455C217.148 1.52409 218.615 2.42403 219.863 3.61428C221.111 4.77549 222.084 6.22701 222.78 7.96883C223.506 9.71065 223.869 11.7137 223.869 13.9781C223.869 16.2425 223.521 18.2601 222.824 20.0309C222.127 21.7728 221.155 23.2388 219.906 24.429C218.687 25.5903 217.236 26.4757 215.552 27.0853C213.868 27.695 212.039 27.9998 210.065 27.9998C208.091 27.9998 206.262 27.695 204.578 27.0853C202.895 26.4467 201.443 25.5322 200.224 24.342C199.005 23.1517 198.047 21.6857 197.35 19.9439C196.653 18.202 196.305 16.2135 196.305 13.9781ZM204.143 13.9781C204.143 16.6199 204.68 18.5939 205.754 19.9003C206.828 21.2067 208.265 21.8599 210.065 21.8599C211.894 21.8599 213.346 21.2067 214.42 19.9003C215.494 18.5939 216.031 16.6199 216.031 13.9781C216.031 11.3654 215.494 9.40583 214.42 8.09947C213.375 6.7931 211.938 6.13992 210.109 6.13992C208.309 6.13992 206.857 6.7931 205.754 8.09947C204.68 9.3768 204.143 11.3364 204.143 13.9781Z" fill="white"/>
<path d="M165.688 13.9781C165.688 11.7137 166.036 9.71065 166.733 7.96883C167.458 6.22701 168.431 4.77549 169.65 3.61428C170.898 2.42403 172.35 1.52409 174.005 0.914455C175.688 0.304818 177.503 0 179.448 0C181.393 0 183.193 0.304818 184.848 0.914455C186.531 1.52409 187.997 2.42403 189.246 3.61428C190.494 4.77549 191.466 6.22701 192.163 7.96883C192.889 9.71065 193.252 11.7137 193.252 13.9781C193.252 16.2425 192.903 18.2601 192.207 20.0309C191.51 21.7728 190.537 23.2388 189.289 24.429C188.07 25.5903 186.618 26.4757 184.935 27.0853C183.251 27.695 181.422 27.9998 179.448 27.9998C177.474 27.9998 175.645 27.695 173.961 27.0853C172.277 26.4467 170.826 25.5322 169.607 24.342C168.387 23.1517 167.429 21.6857 166.733 19.9439C166.036 18.202 165.688 16.2135 165.688 13.9781ZM173.526 13.9781C173.526 16.6199 174.063 18.5939 175.137 19.9003C176.211 21.2067 177.648 21.8599 179.448 21.8599C181.277 21.8599 182.728 21.2067 183.802 19.9003C184.877 18.5939 185.414 16.6199 185.414 13.9781C185.414 11.3654 184.877 9.40583 183.802 8.09947C182.757 6.7931 181.32 6.13992 179.491 6.13992C177.692 6.13992 176.24 6.7931 175.137 8.09947C174.063 9.3768 173.526 11.3364 173.526 13.9781Z" fill="white"/>
<path d="M148.376 18.6811V27.0418C148.056 27.1289 147.548 27.216 146.852 27.3031C146.184 27.3902 145.516 27.4338 144.849 27.4338C144.181 27.4338 143.586 27.3757 143.063 27.2596C142.57 27.1725 142.149 26.9983 141.8 26.737C141.481 26.4757 141.234 26.1129 141.06 25.6484C140.886 25.1839 140.799 24.5743 140.799 23.8195V3.30953C140.799 2.69989 140.958 2.2354 141.278 1.91607C141.626 1.56771 142.091 1.29192 142.671 1.08871C143.658 0.74034 144.805 0.493582 146.111 0.348431C147.418 0.174249 148.811 0.0871582 150.292 0.0871582C154.298 0.0871582 157.317 0.929039 159.349 2.6128C161.381 4.29656 162.397 6.57544 162.397 9.44945C162.397 11.2493 161.933 12.7879 161.004 14.0653C160.075 15.3426 158.972 16.3296 157.694 17.0264C158.74 18.4489 159.77 19.7843 160.786 21.0326C161.802 22.2809 162.601 23.413 163.181 24.4291C162.891 25.4452 162.354 26.229 161.57 26.7806C160.815 27.3031 159.959 27.5644 159.001 27.5644C158.362 27.5644 157.811 27.4918 157.346 27.3467C156.882 27.2015 156.475 26.9983 156.127 26.737C155.778 26.4757 155.459 26.1564 155.169 25.779C154.879 25.4016 154.603 24.9952 154.341 24.5597L150.684 18.6811H148.376ZM151.119 12.8895C152.222 12.8895 153.093 12.6138 153.732 12.0622C154.371 11.4816 154.69 10.6397 154.69 9.53654C154.69 8.43338 154.327 7.60602 153.601 7.05444C152.904 6.47384 151.787 6.18353 150.248 6.18353C149.813 6.18353 149.464 6.19805 149.203 6.22708C148.942 6.25611 148.652 6.29965 148.332 6.35771V12.8895H151.119Z" fill="white"/>
<path d="M119.116 1.61161C119.61 1.32131 120.35 1.04552 121.337 0.784244C122.353 0.522971 123.369 0.392334 124.385 0.392334C125.837 0.392334 127.114 0.610062 128.217 1.04552C129.349 1.45194 130.075 2.10513 130.395 3.00507C130.917 4.51465 131.483 6.27098 132.093 8.27408C132.702 10.2772 133.312 12.3528 133.922 14.5011C134.531 16.6203 135.126 18.725 135.707 20.8152C136.288 22.8763 136.796 24.7053 137.231 26.3019C136.883 26.7084 136.36 27.0277 135.664 27.2599C134.967 27.5212 134.139 27.6518 133.181 27.6518C132.485 27.6518 131.89 27.5938 131.396 27.4777C130.932 27.3615 130.54 27.1874 130.22 26.9551C129.93 26.7229 129.683 26.418 129.48 26.0407C129.306 25.6633 129.146 25.2278 129.001 24.7343L128.217 21.7296H120.335C120.103 22.6006 119.871 23.5005 119.639 24.4295C119.407 25.3584 119.174 26.2584 118.942 27.1293C118.536 27.2744 118.1 27.3906 117.636 27.4777C117.2 27.5938 116.663 27.6518 116.024 27.6518C114.544 27.6518 113.441 27.4051 112.715 26.9116C112.018 26.389 111.67 25.6778 111.67 24.7778C111.67 24.3714 111.728 23.965 111.844 23.5586C111.96 23.1521 112.091 22.6731 112.236 22.1216C112.439 21.3377 112.715 20.3652 113.063 19.204C113.441 18.0428 113.847 16.7945 114.283 15.4591C114.718 14.0947 115.183 12.7012 115.676 11.2787C116.17 9.85623 116.634 8.52083 117.07 7.27253C117.505 5.99519 117.897 4.86301 118.245 3.87598C118.623 2.88895 118.913 2.13416 119.116 1.61161ZM124.342 7.22898C123.935 8.44826 123.471 9.81269 122.948 11.3223C122.455 12.8028 122.005 14.3124 121.598 15.851H126.998C126.592 14.2834 126.171 12.7593 125.735 11.2787C125.329 9.76914 124.951 8.41923 124.603 7.22898H124.342Z" fill="white"/>
<path d="M108.061 22.905C108.061 23.805 107.902 24.4727 107.582 24.9081C107.263 25.3436 106.755 25.7645 106.058 26.1709C105.652 26.4032 105.144 26.6354 104.534 26.8677C103.925 27.0709 103.257 27.2451 102.531 27.3902C101.805 27.5644 101.036 27.695 100.223 27.7821C99.4395 27.8692 98.6557 27.9128 97.8718 27.9128C95.7817 27.9128 93.8221 27.637 91.9932 27.0854C90.1643 26.5048 88.5676 25.6484 87.2032 24.5162C85.8678 23.355 84.8082 21.918 84.0244 20.2052C83.2405 18.4924 82.8486 16.5038 82.8486 14.2395C82.8486 11.859 83.2696 9.7833 84.1114 8.01245C84.9824 6.24159 86.1145 4.77556 87.508 3.61435C88.9305 2.4241 90.5417 1.53868 92.3416 0.958068C94.1705 0.377461 96.0429 0.0871582 97.9589 0.0871582C100.717 0.0871582 102.894 0.537129 104.491 1.43707C106.116 2.30798 106.929 3.45468 106.929 4.87717C106.929 5.63196 106.741 6.28514 106.363 6.83672C105.986 7.38829 105.55 7.82375 105.057 8.14308C104.331 7.70763 103.417 7.28669 102.313 6.88026C101.239 6.44481 100.02 6.22708 98.6557 6.22708C96.2171 6.22708 94.2721 6.92381 92.8206 8.31726C91.3981 9.71072 90.6868 11.6412 90.6868 14.1088C90.6868 15.4442 90.8755 16.6054 91.2529 17.5925C91.6593 18.5505 92.1964 19.3488 92.8641 19.9875C93.5318 20.5971 94.3011 21.0616 95.172 21.3809C96.0429 21.6712 96.9719 21.8164 97.9589 21.8164C98.5976 21.8164 99.1637 21.7583 99.6572 21.6422C100.151 21.5261 100.528 21.3954 100.789 21.2503V17.157H96.13C95.9558 16.8377 95.7817 16.4167 95.6075 15.8942C95.4623 15.3716 95.3897 14.8201 95.3897 14.2395C95.3897 13.1944 95.622 12.4396 96.0865 11.9751C96.58 11.5106 97.2041 11.2784 97.9589 11.2784H105.318C106.189 11.2784 106.857 11.5251 107.321 12.0186C107.815 12.4831 108.061 13.1508 108.061 14.0217V22.905Z" fill="white"/>
<path d="M78.5081 26.3018C78.1016 26.7083 77.5065 27.0131 76.7227 27.2163C75.9679 27.4485 75.0534 27.5647 73.9793 27.5647C72.9052 27.5647 71.8891 27.405 70.9311 27.0857C69.9731 26.7663 69.1893 25.997 68.5797 24.7777L64.2687 15.9815C63.8332 15.0816 63.4413 14.2397 63.0929 13.4559C62.7446 12.6431 62.3672 11.7141 61.9608 10.669L61.6995 10.7125C61.8156 12.2802 61.8737 13.8768 61.8737 15.5025C61.9027 17.1282 61.9172 18.7249 61.9172 20.2926V27.0421C61.5979 27.1292 61.1044 27.2163 60.4367 27.3034C59.798 27.3905 59.1593 27.434 58.5207 27.434C57.882 27.434 57.3159 27.3905 56.8224 27.3034C56.3289 27.2163 55.9224 27.0421 55.6031 26.7808C55.2838 26.5196 55.037 26.1712 54.8628 25.7357C54.6887 25.2713 54.6016 24.6761 54.6016 23.9504V2.17761C55.008 1.597 55.6321 1.16155 56.474 0.871246C57.3159 0.580943 58.2158 0.435791 59.1738 0.435791C60.248 0.435791 61.264 0.609973 62.222 0.958336C63.2091 1.27767 63.9929 2.03246 64.5735 3.22271L68.928 12.0189C69.3635 12.9188 69.7554 13.7752 70.1038 14.5881C70.4521 15.3719 70.8295 16.2864 71.236 17.3315L71.4537 17.2879C71.3376 15.7203 71.265 14.1526 71.236 12.585C71.2069 11.0174 71.1924 9.44972 71.1924 7.88208V0.827701C71.5117 0.740609 71.9907 0.653518 72.6294 0.566426C73.2971 0.479336 73.9503 0.435791 74.589 0.435791C75.8663 0.435791 76.8388 0.668033 77.5065 1.13252C78.1742 1.56797 78.5081 2.49694 78.5081 3.91943V26.3018Z" fill="white"/>
<path d="M32.918 1.61161C33.4115 1.32131 34.1518 1.04552 35.1388 0.784244C36.1548 0.522971 37.1709 0.392334 38.187 0.392334C39.6385 0.392334 40.9158 0.610062 42.019 1.04552C43.1512 1.45194 43.8769 2.10513 44.1963 3.00507C44.7188 4.51465 45.2849 6.27098 45.8945 8.27408C46.5042 10.2772 47.1138 12.3528 47.7234 14.5011C48.3331 16.6203 48.9282 18.725 49.5088 20.8152C50.0894 22.8763 50.5975 24.7053 51.0329 26.3019C50.6845 26.7084 50.162 27.0277 49.4653 27.2599C48.7685 27.5212 47.9412 27.6518 46.9832 27.6518C46.2864 27.6518 45.6913 27.5938 45.1978 27.4777C44.7333 27.3615 44.3414 27.1874 44.0221 26.9551C43.7318 26.7229 43.485 26.418 43.2818 26.0407C43.1076 25.6633 42.948 25.2278 42.8028 24.7343L42.019 21.7296H34.1372C33.905 22.6006 33.6728 23.5005 33.4405 24.4295C33.2083 25.3584 32.976 26.2584 32.7438 27.1293C32.3374 27.2744 31.9019 27.3906 31.4374 27.4777C31.002 27.5938 30.4649 27.6518 29.8262 27.6518C28.3457 27.6518 27.2425 27.4051 26.5168 26.9116C25.82 26.389 25.4717 25.6778 25.4717 24.7778C25.4717 24.3714 25.5297 23.965 25.6459 23.5586C25.762 23.1521 25.8926 22.6731 26.0378 22.1216C26.241 21.3377 26.5168 20.3652 26.8651 19.204C27.2425 18.0428 27.649 16.7945 28.0844 15.4591C28.5199 14.0947 28.9844 12.7012 29.4779 11.2787C29.9714 9.85623 30.4359 8.52083 30.8713 7.27253C31.3068 5.99519 31.6987 4.86301 32.0471 3.87598C32.4244 2.88895 32.7148 2.13416 32.918 1.61161ZM38.1434 7.22898C37.737 8.44826 37.2725 9.81269 36.75 11.3223C36.2565 12.8028 35.8065 14.3124 35.4001 15.851H40.7997C40.3933 14.2834 39.9723 12.7593 39.5369 11.2787C39.1305 9.76914 38.7531 8.41923 38.4047 7.22898H38.1434Z" fill="white"/>
<path d="M7.66401 17.4185V27.0421C7.34468 27.1292 6.83665 27.2163 6.13992 27.3034C5.44319 27.3905 4.76098 27.434 4.09328 27.434C3.42558 27.434 2.83046 27.376 2.30791 27.2598C1.8144 27.1727 1.39346 26.9986 1.04509 26.7373C0.696728 26.476 0.435455 26.1131 0.261273 25.6487C0.0870912 25.1842 0 24.5745 0 23.8197V0.827701C0.319334 0.769639 0.827365 0.697063 1.52409 0.609973C2.22082 0.493852 2.88852 0.435791 3.52719 0.435791C4.19489 0.435791 4.77549 0.493852 5.26901 0.609973C5.79156 0.697063 6.22701 0.871245 6.57538 1.13252C6.92374 1.39379 7.18501 1.75667 7.3592 2.22116C7.53338 2.68564 7.62047 3.29528 7.62047 4.05007V10.9738L16.6779 0.566426C18.652 0.566426 20.06 0.943821 20.9019 1.69861C21.7728 2.42437 22.2082 3.29528 22.2082 4.31134C22.2082 5.06613 22.0195 5.77738 21.6421 6.44507C21.2647 7.11277 20.6551 7.86756 19.8132 8.70944L14.37 14.1526C15.0958 14.9655 15.8506 15.8074 16.6344 16.6783C17.4472 17.5492 18.2311 18.4056 18.9859 19.2475C19.7697 20.0603 20.5099 20.8441 21.2067 21.5989C21.9324 22.3537 22.5566 23.0069 23.0791 23.5585C23.0791 24.1971 22.963 24.7632 22.7308 25.2567C22.4985 25.7503 22.1792 26.1712 21.7728 26.5196C21.3954 26.8679 20.9599 27.1292 20.4664 27.3034C19.9729 27.4776 19.4503 27.5647 18.8988 27.5647C17.7085 27.5647 16.736 27.2744 15.9812 26.6937C15.2264 26.0841 14.5007 25.3729 13.8039 24.56L7.66401 17.4185Z" fill="white"/>
</g>
<g clip-path="url(#clip1_3691_8519)">
<path d="M256.449 24.9898L256.449 24.9898L256.456 24.995C257.363 25.6652 258.441 26.1728 259.681 26.5259C260.926 26.8805 262.311 27.0541 263.829 27.0541C265.347 27.0541 266.731 26.8805 267.976 26.5259C269.217 26.1728 270.295 25.6652 271.202 24.995C272.108 24.3249 272.813 23.5204 273.304 22.5808C273.798 21.6366 274.041 20.5973 274.041 19.4738C274.041 17.8467 273.712 16.487 272.993 15.4516C272.457 14.6604 271.8 13.9592 271.024 13.3477C271.645 12.8197 272.154 12.1999 272.547 11.4893C273.075 10.535 273.329 9.4374 273.329 8.21457C273.329 7.09128 273.086 6.06217 272.589 5.1402C272.1 4.23118 271.422 3.46554 270.565 2.8457C269.711 2.22896 268.7 1.76133 267.54 1.43474C266.377 1.10709 265.112 0.94598 263.75 0.94598C262.384 0.94598 261.115 1.12104 259.948 1.47715C258.784 1.83234 257.77 2.34282 256.916 3.01584C256.065 3.68667 255.393 4.48835 254.907 5.41931C254.413 6.36352 254.17 7.40274 254.17 8.52624C254.17 9.94003 254.431 11.134 255.007 12.0596L255.007 12.0596L255.011 12.0667C255.407 12.6828 255.866 13.239 256.387 13.7344C255.726 14.2476 255.138 14.8882 254.624 15.6495L254.623 15.6494L254.617 15.6588C253.938 16.7069 253.617 17.99 253.617 19.4738C253.617 20.5973 253.86 21.6366 254.354 22.5808L254.353 22.5808L254.36 22.5927C254.874 23.5218 255.573 24.3212 256.449 24.9898ZM265.573 17.39L265.583 17.4016L265.594 17.4127C265.956 17.7894 266.147 18.2668 266.147 18.8894C266.147 19.5158 265.933 19.9945 265.507 20.3741C265.104 20.7319 264.562 20.9321 263.829 20.9321C263.1 20.9321 262.539 20.7336 262.106 20.3694C261.721 20.0259 261.511 19.5551 261.511 18.8894C261.511 18.2988 261.699 17.8136 262.074 17.4027C262.442 17.0014 263.092 16.6506 264.106 16.4036C264.748 16.6573 265.229 16.9906 265.573 17.39ZM265.13 7.48896C265.424 7.77837 265.593 8.18046 265.593 8.76C265.593 9.2089 265.44 9.60784 265.107 9.97723C264.818 10.2983 264.329 10.5781 263.573 10.772C263.121 10.5505 262.719 10.2755 262.364 9.94736C262.07 9.65441 261.906 9.26412 261.906 8.72104C261.906 8.17439 262.072 7.78255 262.37 7.48896C262.657 7.20602 263.09 7.02896 263.75 7.02896C264.41 7.02896 264.843 7.20602 265.13 7.48896Z" fill="url(#paint0_linear_3691_8519)" stroke="white" stroke-width="1.13514"/>
<path d="M234.332 24.9898L234.332 24.9898L234.339 24.995C235.245 25.6652 236.324 26.1728 237.564 26.5259C238.809 26.8805 240.194 27.0541 241.712 27.0541C243.23 27.0541 244.614 26.8805 245.859 26.5259C247.099 26.1728 248.178 25.6652 249.085 24.995C249.991 24.3249 250.696 23.5204 251.187 22.5808C251.681 21.6366 251.924 20.5973 251.924 19.4738C251.924 17.8467 251.595 16.487 250.876 15.4516C250.34 14.6604 249.682 13.9592 248.907 13.3477C249.527 12.8197 250.037 12.1999 250.43 11.4893C250.958 10.535 251.212 9.4374 251.212 8.21457C251.212 7.09128 250.969 6.06217 250.472 5.1402C249.982 4.23118 249.305 3.46554 248.447 2.8457C247.594 2.22896 246.583 1.76133 245.423 1.43474C244.259 1.10709 242.995 0.94598 241.633 0.94598C240.267 0.94598 238.998 1.12104 237.831 1.47715C236.666 1.83234 235.652 2.34282 234.799 3.01584C233.948 3.68667 233.276 4.48835 232.79 5.41931C232.296 6.36352 232.053 7.40274 232.053 8.52624C232.053 9.94003 232.314 11.134 232.89 12.0596L232.89 12.0596L232.894 12.0667C233.29 12.6828 233.749 13.239 234.27 13.7344C233.608 14.2476 233.021 14.8882 232.506 15.6495L232.506 15.6494L232.5 15.6588C231.821 16.7069 231.5 17.99 231.5 19.4738C231.5 20.5973 231.743 21.6366 232.236 22.5808L232.236 22.5808L232.243 22.5927C232.757 23.5218 233.456 24.3212 234.332 24.9898ZM243.456 17.39L243.466 17.4016L243.476 17.4127C243.839 17.7894 244.03 18.2668 244.03 18.8894C244.03 19.5158 243.815 19.9945 243.39 20.3741C242.987 20.7319 242.445 20.9321 241.712 20.9321C240.982 20.9321 240.422 20.7336 239.988 20.3694C239.604 20.0259 239.394 19.5551 239.394 18.8894C239.394 18.2988 239.581 17.8136 239.956 17.4027C240.325 17.0014 240.974 16.6506 241.989 16.4036C242.631 16.6573 243.111 16.9906 243.456 17.39ZM243.013 7.48896C243.307 7.77837 243.476 8.18047 243.476 8.76C243.476 9.2089 243.323 9.60784 242.99 9.97723C242.7 10.2983 242.212 10.5781 241.456 10.772C241.004 10.5505 240.602 10.2755 240.247 9.94736C239.952 9.65441 239.789 9.26412 239.789 8.72104C239.789 8.17439 239.955 7.78255 240.252 7.48896C240.539 7.20602 240.972 7.02896 241.633 7.02896C242.293 7.02896 242.726 7.20602 243.013 7.48896Z" fill="url(#paint1_linear_3691_8519)" stroke="white" stroke-width="1.13514"/>
</g>
<defs>
<linearGradient id="paint0_linear_3691_8519" x1="263.829" y1="1.51355" x2="263.829" y2="26.4865" gradientUnits="userSpaceOnUse">
<stop stop-color="#E70024"/>
<stop offset="0.74" stop-color="#001869"/>
</linearGradient>
<linearGradient id="paint1_linear_3691_8519" x1="241.712" y1="1.51355" x2="241.712" y2="26.4865" gradientUnits="userSpaceOnUse">
<stop stop-color="#E70024"/>
<stop offset="0.74" stop-color="#001869"/>
</linearGradient>
<clipPath id="clip0_3691_8519">
<rect width="223.873" height="28" fill="white"/>
</clipPath>
<clipPath id="clip1_3691_8519">
<rect width="44.6487" height="28" fill="white" transform="translate(230.661)"/>
</clipPath>
</defs>
</svg>
