<svg width="138" height="48" viewBox="0 0 138 48" fill="none" xmlns="http://www.w3.org/2000/svg">
<path d="M83.6358 47.5798C82.7982 47.6373 82.0323 47.5138 81.3381 47.2095C80.6511 46.8971 80.0955 46.4379 79.6714 45.832C79.2473 45.226 79.0078 44.5233 78.9529 43.7237C78.8981 42.9241 79.0393 42.1953 79.3767 41.5371C79.7141 40.8789 80.202 40.352 80.8405 39.9562C81.4861 39.5523 82.2277 39.3217 83.0653 39.2642C83.7964 39.214 84.4639 39.2983 85.0681 39.517C85.6722 39.7357 86.1851 40.0754 86.607 40.5361L85.2571 41.937C84.6964 41.3481 84.0467 41.079 83.3081 41.1297C82.874 41.1594 82.4922 41.2813 82.1626 41.4952C81.8406 41.7085 81.5964 41.9969 81.4301 42.3602C81.2708 42.7154 81.2066 43.1177 81.2374 43.567C81.2682 44.0163 81.3871 44.4098 81.5938 44.7475C81.8077 45.0772 82.0887 45.3257 82.4369 45.493C82.7926 45.6599 83.1875 45.7284 83.6215 45.6987C84.3602 45.648 84.967 45.2927 85.442 44.6327L86.9706 45.8361C86.6157 46.3501 86.1539 46.7567 85.5853 47.0559C85.0167 47.355 84.3669 47.5296 83.6358 47.5798Z" fill="#00062C"/>
<path d="M94.4447 45.1168L91.0636 45.3487L90.5419 46.9453L88.2346 47.1036L91.2156 38.8657L93.443 38.7129L97.5325 46.4657L95.1795 46.6271L94.4447 45.1168ZM93.6677 43.4945L92.4642 41.0064L91.6117 43.6356L93.6677 43.4945Z" fill="#00062C"/>
<path d="M102.251 46.3026C101.604 46.347 100.97 46.3102 100.35 46.1921C99.7297 46.0739 99.2201 45.8947 98.8211 45.6543L99.4491 43.9357C99.8232 44.1472 100.251 44.3091 100.733 44.4214C101.215 44.5337 101.685 44.5741 102.142 44.5428C103.01 44.4832 103.429 44.2364 103.399 43.8024C103.384 43.5739 103.247 43.415 102.988 43.3256C102.736 43.2281 102.332 43.1373 101.776 43.053C101.165 42.9648 100.653 42.8623 100.24 42.7453C99.8256 42.6207 99.4627 42.4046 99.1508 42.097C98.839 41.7894 98.664 41.3576 98.6259 40.8017C98.5924 40.3144 98.6957 39.8674 98.9355 39.4607C99.1749 39.0464 99.5495 38.7071 100.059 38.4426C100.577 38.1775 101.22 38.0186 101.989 37.9659C102.514 37.9298 103.036 37.9552 103.555 38.0421C104.073 38.1213 104.534 38.2618 104.938 38.4636L104.357 40.1905C103.567 39.8315 102.814 39.6766 102.098 39.7257C101.649 39.7565 101.326 39.8475 101.13 39.9987C100.933 40.1423 100.842 40.3207 100.857 40.5339C100.871 40.7471 101.004 40.8987 101.255 40.9886C101.506 41.0785 101.906 41.162 102.455 41.2391C103.073 41.3268 103.585 41.4332 103.991 41.5583C104.405 41.6753 104.768 41.8876 105.079 42.1952C105.398 42.4946 105.577 42.9223 105.615 43.4782C105.648 43.9579 105.544 44.4011 105.305 44.8078C105.065 45.2144 104.686 45.5541 104.169 45.8267C103.652 46.0917 103.013 46.2504 102.251 46.3026Z" fill="#00062C"/>
<path d="M107.534 37.7461L109.795 37.591L110.344 45.5867L108.082 45.7419L107.534 37.7461Z" fill="#00062C"/>
<path d="M120.268 36.8724L120.817 44.8682L118.955 44.9959L115.133 40.9775L115.425 45.2381L113.209 45.3901L112.661 37.3943L114.523 37.2666L118.345 41.2851L118.052 37.0244L120.268 36.8724Z" fill="#00062C"/>
<path d="M127.712 44.5558C126.867 44.6138 126.093 44.4871 125.39 44.1757C124.696 43.8637 124.133 43.4051 123.701 42.7997C123.277 42.1938 123.038 41.4948 122.983 40.7029C122.929 39.9109 123.07 39.1858 123.408 38.5277C123.753 37.869 124.248 37.3377 124.894 36.9338C125.547 36.5294 126.296 36.2982 127.141 36.2402C127.987 36.1822 128.757 36.3092 129.451 36.6211C130.153 36.9325 130.717 37.3912 131.141 37.9971C131.573 38.6025 131.816 39.3012 131.87 40.0931C131.924 40.8851 131.779 41.6104 131.434 42.2691C131.097 42.9273 130.601 43.4586 129.948 43.863C129.302 44.2669 128.557 44.4978 127.712 44.5558ZM127.583 42.6825C127.987 42.6548 128.346 42.5345 128.66 42.3217C128.975 42.1089 129.215 41.8246 129.382 41.4688C129.548 41.1055 129.616 40.6992 129.585 40.2499C129.555 39.8006 129.432 39.4111 129.218 39.0815C129.004 38.7443 128.726 38.4917 128.386 38.3238C128.045 38.1559 127.673 38.0858 127.27 38.1135C126.866 38.1412 126.507 38.2614 126.193 38.4743C125.878 38.6871 125.638 38.9752 125.472 39.3386C125.305 39.6943 125.237 40.0968 125.268 40.5461C125.299 40.9954 125.421 41.3887 125.636 41.7259C125.849 42.0555 126.127 42.3043 126.467 42.4722C126.808 42.6401 127.18 42.7102 127.583 42.6825Z" fill="#00062C"/>
<path d="M0 6.9902L138 0.265625L130.983 33.0114L41.5169 38.8588L14.904 47.7376L16.9576 38.8588H4.09322L0 6.9902Z" fill="white"/>
<path d="M17.1629 15.2376V18.3157H24.6528V22.8815H17.1629V28.6272H11.1094V10.6719H25.7045V15.2376H17.1629Z" fill="#00062C"/>
<path d="M36.338 24.1127H34.6963V28.6272H28.6428V10.6719H37.287C38.9457 10.6719 40.3907 10.9455 41.6219 11.4927C42.8532 12.0399 43.8022 12.8265 44.4691 13.8525C45.136 14.8785 45.4695 16.0756 45.4695 17.4436C45.4695 18.7261 45.1788 19.8462 44.5974 20.8038C44.016 21.7614 43.1781 22.5224 42.0836 23.0867L45.8543 28.6272H39.3904L36.338 24.1127ZM39.3647 17.4436C39.3647 16.7767 39.1595 16.2637 38.7491 15.9046C38.3387 15.5284 37.7231 15.3403 36.9023 15.3403H34.6963V19.5469H36.9023C37.7231 19.5469 38.3387 19.3674 38.7491 19.0083C39.1595 18.6321 39.3647 18.1105 39.3647 17.4436Z" fill="#00062C"/>
<path d="M48.7814 10.6719H54.8349V28.6272H48.7814V10.6719Z" fill="#00062C"/>
<path d="M58.775 10.6719H67.6244C69.6252 10.6719 71.3865 11.0395 72.9084 11.7748C74.4474 12.4931 75.6359 13.5276 76.4738 14.8785C77.3288 16.2295 77.7563 17.8198 77.7563 19.6495C77.7563 21.4792 77.3288 23.0696 76.4738 24.4205C75.6359 25.7714 74.4474 26.8145 72.9084 27.5498C71.3865 28.2681 69.6252 28.6272 67.6244 28.6272H58.775V10.6719ZM67.3679 23.9075C68.6675 23.9075 69.7021 23.5398 70.4716 22.8045C71.2582 22.0521 71.6515 21.0004 71.6515 19.6495C71.6515 18.2986 71.2582 17.2555 70.4716 16.5202C69.7021 15.7678 68.6675 15.3916 67.3679 15.3916H64.8285V23.9075H67.3679Z" fill="#00062C"/>
<path d="M92.9774 25.4978H86.1544L84.9489 28.6272H78.7928L86.6418 10.6719H92.5927L100.442 28.6272H94.183L92.9774 25.4978ZM91.3102 21.1372L89.5659 16.6228L87.8217 21.1372H91.3102Z" fill="#00062C"/>
<path d="M111.952 22.112V28.6272H105.899V22.035L99.1269 10.6719H105.514L109.182 16.8793L112.876 10.6719H118.724L111.952 22.112Z" fill="#00062C"/>
<path d="M120.122 10.6719H127.047L125.893 21.7529H121.276L120.122 10.6719ZM123.584 28.8837C122.593 28.8837 121.78 28.5844 121.148 27.9859C120.515 27.3874 120.199 26.6606 120.199 25.8056C120.199 24.9335 120.515 24.2153 121.148 23.651C121.78 23.0696 122.593 22.7789 123.584 22.7789C124.576 22.7789 125.388 23.0696 126.021 23.651C126.654 24.2153 126.97 24.9335 126.97 25.8056C126.97 26.6606 126.654 27.3874 126.021 27.9859C125.388 28.5844 124.576 28.8837 123.584 28.8837Z" fill="#00062C"/>
</svg>
