<svg width="263" height="31" viewBox="0 0 263 31" fill="none" xmlns="http://www.w3.org/2000/svg">
<path d="M17.4515 14.7887C16.4507 13.7254 15.5646 12.9852 14.7931 12.5682C14.0425 12.1303 13.3649 11.9114 12.7602 11.9114C12.0513 11.9114 11.4571 12.1303 10.9776 12.5682C10.5189 12.9852 10.1436 13.4856 9.85166 14.0694C9.55976 14.6323 9.35126 15.2057 9.22616 15.7895C9.10106 16.3525 9.03851 16.7903 9.03851 17.1031C9.03851 17.2073 9.04893 17.2699 9.06978 17.2907C9.04893 17.3324 9.03851 17.4263 9.03851 17.5722C9.03851 17.8641 9.06978 18.2394 9.13233 18.6981C9.21573 19.1568 9.36168 19.6051 9.57018 20.0429C9.79954 20.4599 10.1019 20.8248 10.4772 21.1376C10.8733 21.4503 11.3841 21.6067 12.0096 21.6067C12.6768 21.6067 13.49 21.3669 14.4491 20.8874C15.4082 20.387 16.5758 19.5008 17.9519 18.229L24.0818 24.7029C23.7482 25.3284 23.1749 25.9748 22.3617 26.642C21.5486 27.2883 20.5894 27.8826 19.4844 28.4247C18.3793 28.9459 17.1596 29.3733 15.8252 29.7069C14.4908 30.0405 13.146 30.2073 11.7907 30.2073C10.5397 30.2073 9.31998 30.0405 8.13153 29.7069C6.96393 29.3733 5.87972 28.8104 4.87892 28.0181C3.08581 26.642 1.82438 25.1199 1.09463 23.4519C0.364876 21.7839 0 20.0742 0 18.3228C0 16.8842 0.208501 15.4559 0.625502 14.0381C1.06335 12.6203 1.62631 11.2963 2.31436 10.0662C3.00241 8.81517 3.78429 7.69969 4.65999 6.71974C5.55654 5.71893 6.46352 4.91621 7.38093 4.31155C7.83963 4.01965 8.36088 3.75903 8.94468 3.52968C9.44508 3.34202 10.0289 3.1648 10.6961 2.998C11.3841 2.8312 12.1452 2.7478 12.9792 2.7478C13.6881 2.7478 14.4387 2.8312 15.231 2.998C16.0441 3.1648 16.8677 3.4567 17.7017 3.8737C18.5566 4.26985 19.4114 4.81196 20.2663 5.50001C21.142 6.16721 22.0177 7.02206 22.8934 8.06457L17.4515 14.7887Z" fill="url(#paint0_linear_9831_20250)"/>
<path d="M23.415 4.56176L32.5474 3.68605L31.4215 15.1327L36.0815 14.7887L36.4255 3.90498L45.3702 3.46713L42.8369 27.6115L35.5498 28.4559L35.9564 21.5754L32.7038 22.0445L32.391 29.2065L24.5722 29.3942L23.415 4.56176Z" fill="url(#paint1_linear_9831_20250)"/>
<path d="M56.3362 3.46713L55.054 28.7374L47.1414 29.7069V4.56176L56.3362 3.46713Z" fill="url(#paint2_linear_9831_20250)"/>
<path d="M74.1987 14.7887C73.1979 13.7254 72.3118 12.9852 71.5404 12.5682C70.7897 12.1303 70.1121 11.9114 69.5075 11.9114C68.7986 11.9114 68.2043 12.1303 67.7248 12.5682C67.2661 12.9852 66.8908 13.4856 66.5989 14.0694C66.307 14.6323 66.0985 15.2057 65.9734 15.7895C65.8483 16.3525 65.7857 16.7903 65.7857 17.1031C65.7857 17.2073 65.7962 17.2699 65.817 17.2907C65.7962 17.3324 65.7857 17.4263 65.7857 17.5722C65.7857 17.8641 65.817 18.2394 65.8796 18.6981C65.963 19.1568 66.1089 19.6051 66.3174 20.0429C66.5468 20.4599 66.8491 20.8248 67.2244 21.1376C67.6205 21.4503 68.1314 21.6067 68.7569 21.6067C69.4241 21.6067 70.2372 21.3669 71.1963 20.8874C72.1554 20.387 73.323 19.5008 74.6991 18.229L80.8291 24.7029C80.4955 25.3284 79.9221 25.9748 79.1089 26.642C78.2958 27.2883 77.3367 27.8826 76.2316 28.4247C75.1266 28.9459 73.9068 29.3733 72.5724 29.7069C71.238 30.0405 69.8932 30.2073 68.5379 30.2073C67.2869 30.2073 66.0672 30.0405 64.8788 29.7069C63.7111 29.3733 62.6269 28.8104 61.6261 28.0181C59.833 26.642 58.5716 25.1199 57.8419 23.4519C57.1121 21.7839 56.7472 20.0742 56.7472 18.3228C56.7472 16.8842 56.9557 15.4559 57.3727 14.0381C57.8106 12.6203 58.3735 11.2963 59.0616 10.0662C59.7496 8.81517 60.5315 7.69969 61.4072 6.71974C62.3038 5.71893 63.2108 4.91621 64.1282 4.31155C64.5869 4.01965 65.1081 3.75903 65.6919 3.52968C66.1923 3.34202 66.7761 3.1648 67.4433 2.998C68.1314 2.8312 68.8924 2.7478 69.7264 2.7478C70.4353 2.7478 71.1859 2.8312 71.9782 2.998C72.7914 3.1648 73.6149 3.4567 74.4489 3.8737C75.3038 4.26985 76.1586 4.81196 77.0135 5.50001C77.8892 6.16721 78.7649 7.02206 79.6406 8.06457L74.1987 14.7887Z" fill="url(#paint3_linear_9831_20250)"/>
<path d="M100.929 9.34685L92.2345 17.4784L99.9281 23.9211L95.5496 30.4888L89.4197 24.7655V28.7374L80.6939 29.7069V4.56176L89.795 3.46713V9.09665L94.8303 2.15357L100.929 9.34685Z" fill="url(#paint4_linear_9831_20250)"/>
<path d="M100.826 4.3741L118.402 3.06055L117.433 11.1295L109.426 11.5048L109.395 13.0373L115.212 12.6307L114.493 18.1977L109.176 18.6356L109.145 20.387L118.121 19.5425V28.3308L101.076 29.3004L100.826 4.3741Z" fill="url(#paint5_linear_9831_20250)"/>
<path d="M120.413 3.68605L132.392 13.6003L132.642 3.2482L141.962 3.8737L140.555 27.7053L128.576 21.7005L129.014 29.1127L120.413 29.7069V3.68605Z" fill="url(#paint6_linear_9831_20250)"/>
<path d="M173.904 24.6717L169.088 30.1448L161.394 24.5778V29.9259L153.826 29.1127L153.325 4.68685C155.327 4.4575 157.037 4.26985 158.454 4.1239C159.893 3.9571 161.081 3.82158 162.02 3.71733C163.125 3.61308 164.042 3.52968 164.772 3.46713C165.335 3.40458 165.846 3.3733 166.304 3.3733C167.576 3.3733 168.681 3.55053 169.62 3.90498C170.579 4.25943 171.361 4.73898 171.965 5.34363C172.591 5.94828 173.049 6.65719 173.341 7.47034C173.654 8.26264 173.81 9.1175 173.81 10.0349C173.81 10.9315 173.665 11.8593 173.373 12.8184C173.102 13.7566 172.695 14.6845 172.153 15.6019C171.611 16.4984 170.933 17.3637 170.12 18.1977C169.328 19.0109 168.421 19.7406 167.399 20.387L173.904 24.6717ZM160.706 16.6965C161.457 16.5297 162.103 16.2899 162.645 15.9772C163.187 15.6644 163.646 15.3308 164.021 14.9764C164.397 14.6219 164.678 14.2883 164.866 13.9756C165.074 13.642 165.199 13.3813 165.241 13.1937V13.0686C165.241 13.0269 165.241 12.9852 165.241 12.9435C165.262 12.8809 165.272 12.8184 165.272 12.7558C165.272 12.6099 165.251 12.4431 165.21 12.2554C165.189 12.0469 165.116 11.8593 164.991 11.6925C164.887 11.5257 164.72 11.3902 164.49 11.2859C164.282 11.1608 163.99 11.0983 163.615 11.0983C163.302 11.0983 162.927 11.14 162.489 11.2234C162.072 11.3068 161.571 11.4631 160.988 11.6925L160.706 16.6965Z" fill="url(#paint7_linear_9831_20250)"/>
<path d="M193.747 26.5794C193.205 27.1215 192.569 27.6219 191.839 28.0806C191.13 28.5185 190.359 28.8938 189.525 29.2065C188.691 29.5401 187.815 29.7903 186.898 29.9571C185.98 30.1448 185.063 30.2386 184.145 30.2386C183.145 30.2386 182.154 30.124 181.174 29.8946C180.215 29.6861 179.298 29.3421 178.422 28.8625C177.567 28.3621 176.775 27.7366 176.045 26.986C175.336 26.2146 174.732 25.2867 174.231 24.2025C173.355 22.2009 172.918 20.2097 172.918 18.229C172.918 16.9154 173.095 15.6227 173.449 14.3509C173.804 13.079 174.304 11.8697 174.951 10.723C175.618 9.5762 176.4 8.52327 177.296 7.56417C178.214 6.60506 179.225 5.78148 180.33 5.09343C181.435 4.38453 182.613 3.832 183.864 3.43585C185.136 3.0397 186.449 2.84162 187.805 2.84162C189.493 2.84162 191.005 3.1648 192.339 3.81115C193.695 4.43665 194.842 5.29151 195.78 6.37571C196.718 7.45992 197.437 8.73177 197.938 10.1913C198.438 11.6299 198.688 13.1624 198.688 14.7887C198.688 16.7278 198.303 18.719 197.531 20.7623C196.781 22.8056 195.519 24.7446 193.747 26.5794ZM186.585 11.4736C185.918 11.4736 185.23 11.6404 184.521 11.974C183.812 12.2867 183.155 12.7558 182.55 13.3813C181.967 13.986 181.477 14.7366 181.08 15.6331C180.705 16.5089 180.518 17.4992 180.518 18.6043C180.518 20.1472 180.851 21.2627 181.518 21.9507C182.186 22.6179 182.988 22.9515 183.926 22.9515C184.781 22.9515 185.636 22.7117 186.491 22.2322C187.346 21.7526 188.024 21.1167 188.524 20.3244C189.129 19.3862 189.546 18.5417 189.775 17.7911C190.004 17.0197 190.119 16.3108 190.119 15.6644C190.119 15.3934 190.067 15.0285 189.963 14.5698C189.879 14.0902 189.702 13.6211 189.431 13.1624C189.181 12.7037 188.826 12.3076 188.368 11.974C187.909 11.6404 187.315 11.4736 186.585 11.4736Z" fill="url(#paint8_linear_9831_20250)"/>
<path d="M202.953 3.1231L208.52 11.8489L214.525 3.1231L222.187 8.40859L212.555 20.731V29.7382L204.142 28.581V19.3862L196.26 8.40859L202.953 3.1231Z" fill="url(#paint9_linear_9831_20250)"/>
<path d="M231.761 1.84082L247.555 25.8601L237.734 29.5818L235.076 25.2346L228.539 25.4223L227.257 30.0822L217.843 27.0486L231.761 1.84082ZM230.134 20.4808L233.888 19.824L232.355 15.5393L230.134 20.4808Z" fill="url(#paint10_linear_9831_20250)"/>
<path d="M246.362 4.68685L255.807 3.3733L254.962 20.9812L262.625 19.3862L263 28.2057L246.362 29.8321V4.68685Z" fill="url(#paint11_linear_9831_20250)"/>
<path d="M17.4515 12.9479C16.4507 11.8845 15.5646 11.1444 14.7931 10.7274C14.0425 10.2895 13.3649 10.0706 12.7602 10.0706C12.0513 10.0706 11.4571 10.2895 10.9776 10.7274C10.5189 11.1444 10.1436 11.6448 9.85166 12.2286C9.55976 12.7915 9.35126 13.3649 9.22616 13.9487C9.10106 14.5117 9.03851 14.9495 9.03851 15.2623C9.03851 15.3665 9.04893 15.4291 9.06978 15.4499C9.04893 15.4916 9.03851 15.5854 9.03851 15.7314C9.03851 16.0233 9.06978 16.3986 9.13233 16.8573C9.21573 17.316 9.36168 17.7643 9.57018 18.2021C9.79954 18.6191 10.1019 18.984 10.4772 19.2967C10.8733 19.6095 11.3841 19.7659 12.0096 19.7659C12.6768 19.7659 13.49 19.5261 14.4491 19.0465C15.4082 18.5461 16.5758 17.66 17.9519 16.3882L24.0818 22.8621C23.7482 23.4876 23.1749 24.134 22.3617 24.8012C21.5486 25.4475 20.5894 26.0417 19.4844 26.5838C18.3793 27.1051 17.1596 27.5325 15.8252 27.8661C14.4908 28.1997 13.146 28.3665 11.7907 28.3665C10.5397 28.3665 9.31998 28.1997 8.13153 27.8661C6.96393 27.5325 5.87972 26.9696 4.87892 26.1773C3.08581 24.8012 1.82438 23.2791 1.09463 21.6111C0.364876 19.9431 0 18.2334 0 16.482C0 15.0433 0.208501 13.6151 0.625502 12.1973C1.06335 10.7795 1.62631 9.45551 2.31436 8.22536C3.00241 6.97435 3.78429 5.85887 4.65999 4.87892C5.55654 3.87811 6.46352 3.07539 7.38093 2.47073C7.83963 2.17883 8.36088 1.91821 8.94468 1.68885C9.44508 1.5012 10.0289 1.32398 10.6961 1.15718C11.3841 0.990378 12.1452 0.906978 12.9792 0.906978C13.6881 0.906978 14.4387 0.990378 15.231 1.15718C16.0441 1.32398 16.8677 1.61588 17.7017 2.03288C18.5566 2.42903 19.4114 2.97114 20.2663 3.65919C21.142 4.32639 22.0177 5.18124 22.8934 6.22375L17.4515 12.9479Z" fill="url(#paint12_linear_9831_20250)"/>
<path d="M23.415 2.72094L32.5474 1.84523L31.4215 13.2919L36.0815 12.9479L36.4255 2.06416L45.3702 1.62631L42.8369 25.7707L35.5498 26.6151L35.9564 19.7346L32.7038 20.2037L32.391 27.3657L24.5722 27.5534L23.415 2.72094Z" fill="url(#paint13_linear_9831_20250)"/>
<path d="M56.3362 1.62631L55.054 26.8966L47.1414 27.8661V2.72094L56.3362 1.62631Z" fill="url(#paint14_linear_9831_20250)"/>
<path d="M74.1987 12.9479C73.1979 11.8845 72.3118 11.1444 71.5404 10.7274C70.7897 10.2895 70.1121 10.0706 69.5075 10.0706C68.7986 10.0706 68.2043 10.2895 67.7248 10.7274C67.2661 11.1444 66.8908 11.6448 66.5989 12.2286C66.307 12.7915 66.0985 13.3649 65.9734 13.9487C65.8483 14.5117 65.7857 14.9495 65.7857 15.2623C65.7857 15.3665 65.7962 15.4291 65.817 15.4499C65.7962 15.4916 65.7857 15.5854 65.7857 15.7314C65.7857 16.0233 65.817 16.3986 65.8796 16.8573C65.963 17.316 66.1089 17.7643 66.3174 18.2021C66.5468 18.6191 66.8491 18.984 67.2244 19.2967C67.6205 19.6095 68.1314 19.7659 68.7569 19.7659C69.4241 19.7659 70.2372 19.5261 71.1963 19.0465C72.1554 18.5461 73.323 17.66 74.6991 16.3882L80.8291 22.8621C80.4955 23.4876 79.9221 24.134 79.1089 24.8012C78.2958 25.4475 77.3367 26.0417 76.2316 26.5838C75.1266 27.1051 73.9068 27.5325 72.5724 27.8661C71.238 28.1997 69.8932 28.3665 68.5379 28.3665C67.2869 28.3665 66.0672 28.1997 64.8788 27.8661C63.7111 27.5325 62.6269 26.9696 61.6261 26.1773C59.833 24.8012 58.5716 23.2791 57.8419 21.6111C57.1121 19.9431 56.7472 18.2334 56.7472 16.482C56.7472 15.0433 56.9557 13.6151 57.3727 12.1973C57.8106 10.7795 58.3735 9.45551 59.0616 8.22536C59.7496 6.97435 60.5315 5.85887 61.4072 4.87892C62.3038 3.87811 63.2108 3.07539 64.1282 2.47073C64.5869 2.17883 65.1081 1.91821 65.6919 1.68885C66.1923 1.5012 66.7761 1.32398 67.4433 1.15718C68.1314 0.990378 68.8924 0.906978 69.7264 0.906978C70.4353 0.906978 71.1859 0.990378 71.9782 1.15718C72.7914 1.32398 73.6149 1.61588 74.4489 2.03288C75.3038 2.42903 76.1586 2.97114 77.0135 3.65919C77.8892 4.32639 78.7649 5.18124 79.6406 6.22375L74.1987 12.9479Z" fill="url(#paint15_linear_9831_20250)"/>
<path d="M100.929 7.50603L92.2345 15.6376L99.9281 22.0802L95.5496 28.648L89.4197 22.9247V26.8966L80.6939 27.8661V2.72094L89.795 1.62631V7.25583L94.8303 0.312751L100.929 7.50603Z" fill="url(#paint16_linear_9831_20250)"/>
<path d="M100.826 2.53328L118.402 1.21973L117.433 9.28871L109.426 9.66401L109.395 11.1965L115.212 10.7899L114.493 16.3569L109.176 16.7947L109.145 18.5461L118.121 17.7017V26.49L101.076 27.4596L100.826 2.53328Z" fill="url(#paint17_linear_9831_20250)"/>
<path d="M120.413 1.84523L132.392 11.7594L132.642 1.40738L141.962 2.03288L140.555 25.8645L128.576 19.8597L129.014 27.2719L120.413 27.8661V1.84523Z" fill="url(#paint18_linear_9831_20250)"/>
<path d="M173.904 22.8308L169.088 28.304L161.394 22.737V28.0851L153.826 27.2719L153.325 2.84603C155.327 2.61668 157.037 2.42903 158.454 2.28308C159.893 2.11628 161.081 1.98076 162.02 1.87651C163.125 1.77226 164.042 1.68886 164.772 1.62631C165.335 1.56375 165.846 1.53248 166.304 1.53248C167.576 1.53248 168.681 1.70971 169.62 2.06416C170.579 2.41861 171.361 2.89816 171.965 3.50281C172.591 4.10746 173.049 4.81637 173.341 5.62952C173.654 6.42182 173.81 7.27668 173.81 8.19408C173.81 9.09063 173.665 10.0185 173.373 10.9776C173.102 11.9158 172.695 12.8436 172.153 13.7611C171.611 14.6576 170.933 15.5229 170.12 16.3569C169.328 17.17 168.421 17.8998 167.399 18.5461L173.904 22.8308ZM160.706 14.8557C161.457 14.6889 162.103 14.4491 162.645 14.1364C163.187 13.8236 163.646 13.49 164.021 13.1355C164.397 12.7811 164.678 12.4475 164.866 12.1347C165.074 11.8011 165.199 11.5405 165.241 11.3529V11.2278C165.241 11.1861 165.241 11.1444 165.241 11.1027C165.262 11.0401 165.272 10.9776 165.272 10.915C165.272 10.7691 165.251 10.6023 165.21 10.4146C165.189 10.2061 165.116 10.0185 164.991 9.85166C164.887 9.68486 164.72 9.54933 164.49 9.44508C164.282 9.31998 163.99 9.25743 163.615 9.25743C163.302 9.25743 162.927 9.29913 162.489 9.38253C162.072 9.46594 161.571 9.62231 160.988 9.85166L160.706 14.8557Z" fill="url(#paint19_linear_9831_20250)"/>
<path d="M193.747 24.7386C193.205 25.2807 192.569 25.7811 191.839 26.2398C191.13 26.6777 190.359 27.053 189.525 27.3657C188.691 27.6993 187.815 27.9495 186.898 28.1163C185.98 28.304 185.063 28.3978 184.145 28.3978C183.145 28.3978 182.154 28.2831 181.174 28.0538C180.215 27.8453 179.298 27.5013 178.422 27.0217C177.567 26.5213 176.775 25.8958 176.045 25.1452C175.336 24.3737 174.732 23.4459 174.231 22.3617C173.355 20.3601 172.918 18.3689 172.918 16.3882C172.918 15.0746 173.095 13.7819 173.449 12.51C173.804 11.2382 174.304 10.0289 174.951 8.88213C175.618 7.73538 176.4 6.68245 177.296 5.72335C178.214 4.76424 179.225 3.94066 180.33 3.25261C181.435 2.54371 182.613 1.99118 183.864 1.59503C185.136 1.19888 186.449 1.0008 187.805 1.0008C189.493 1.0008 191.005 1.32398 192.339 1.97033C193.695 2.59583 194.842 3.45069 195.78 4.53489C196.718 5.61909 197.437 6.89095 197.938 8.35046C198.438 9.78911 198.688 11.3216 198.688 12.9479C198.688 14.887 198.303 16.8781 197.531 18.9214C196.781 20.9648 195.519 22.9038 193.747 24.7386ZM186.585 9.63274C185.918 9.63274 185.23 9.79954 184.521 10.1331C183.812 10.4459 183.155 10.915 182.55 11.5405C181.967 12.1452 181.477 12.8958 181.08 13.7923C180.705 14.668 180.518 15.6584 180.518 16.7635C180.518 18.3064 180.851 19.4218 181.518 20.1099C182.186 20.7771 182.988 21.1107 183.926 21.1107C184.781 21.1107 185.636 20.8709 186.491 20.3914C187.346 19.9118 188.024 19.2759 188.524 18.4836C189.129 17.5453 189.546 16.7009 189.775 15.9503C190.004 15.1789 190.119 14.47 190.119 13.8236C190.119 13.5526 190.067 13.1877 189.963 12.729C189.879 12.2494 189.702 11.7803 189.431 11.3216C189.181 10.8629 188.826 10.4667 188.368 10.1331C187.909 9.79954 187.315 9.63274 186.585 9.63274Z" fill="url(#paint20_linear_9831_20250)"/>
<path d="M202.953 1.28228L208.52 10.008L214.525 1.28228L222.187 6.56777L212.555 18.8902V27.8974L204.142 26.7402V17.5453L196.26 6.56777L202.953 1.28228Z" fill="url(#paint21_linear_9831_20250)"/>
<path d="M231.761 0L247.555 24.0193L237.734 27.741L235.076 23.3938L228.539 23.5814L227.257 28.2414L217.843 25.2077L231.761 0ZM230.134 18.64L233.888 17.9832L232.355 13.6985L230.134 18.64Z" fill="url(#paint22_linear_9831_20250)"/>
<path d="M246.362 2.84603L255.807 1.53248L254.962 19.1404L262.625 17.5453L263 26.3649L246.362 27.9912V2.84603Z" fill="url(#paint23_linear_9831_20250)"/>
<defs>
<linearGradient id="paint0_linear_9831_20250" x1="131.402" y1="5.68749" x2="131.402" y2="34.7287" gradientUnits="userSpaceOnUse">
<stop stop-color="#A6000F"/>
<stop offset="1" stop-color="#1A0000"/>
</linearGradient>
<linearGradient id="paint1_linear_9831_20250" x1="131.402" y1="5.68749" x2="131.402" y2="34.7287" gradientUnits="userSpaceOnUse">
<stop stop-color="#A6000F"/>
<stop offset="1" stop-color="#1A0000"/>
</linearGradient>
<linearGradient id="paint2_linear_9831_20250" x1="131.402" y1="5.68749" x2="131.402" y2="34.7287" gradientUnits="userSpaceOnUse">
<stop stop-color="#A6000F"/>
<stop offset="1" stop-color="#1A0000"/>
</linearGradient>
<linearGradient id="paint3_linear_9831_20250" x1="131.402" y1="5.68749" x2="131.402" y2="34.7287" gradientUnits="userSpaceOnUse">
<stop stop-color="#A6000F"/>
<stop offset="1" stop-color="#1A0000"/>
</linearGradient>
<linearGradient id="paint4_linear_9831_20250" x1="131.402" y1="5.68749" x2="131.402" y2="34.7287" gradientUnits="userSpaceOnUse">
<stop stop-color="#A6000F"/>
<stop offset="1" stop-color="#1A0000"/>
</linearGradient>
<linearGradient id="paint5_linear_9831_20250" x1="131.402" y1="5.68749" x2="131.402" y2="34.7287" gradientUnits="userSpaceOnUse">
<stop stop-color="#A6000F"/>
<stop offset="1" stop-color="#1A0000"/>
</linearGradient>
<linearGradient id="paint6_linear_9831_20250" x1="131.402" y1="5.68749" x2="131.402" y2="34.7287" gradientUnits="userSpaceOnUse">
<stop stop-color="#A6000F"/>
<stop offset="1" stop-color="#1A0000"/>
</linearGradient>
<linearGradient id="paint7_linear_9831_20250" x1="131.402" y1="5.68749" x2="131.402" y2="34.7287" gradientUnits="userSpaceOnUse">
<stop stop-color="#A6000F"/>
<stop offset="1" stop-color="#1A0000"/>
</linearGradient>
<linearGradient id="paint8_linear_9831_20250" x1="131.402" y1="5.68749" x2="131.402" y2="34.7287" gradientUnits="userSpaceOnUse">
<stop stop-color="#A6000F"/>
<stop offset="1" stop-color="#1A0000"/>
</linearGradient>
<linearGradient id="paint9_linear_9831_20250" x1="131.402" y1="5.68749" x2="131.402" y2="34.7287" gradientUnits="userSpaceOnUse">
<stop stop-color="#A6000F"/>
<stop offset="1" stop-color="#1A0000"/>
</linearGradient>
<linearGradient id="paint10_linear_9831_20250" x1="131.402" y1="5.68749" x2="131.402" y2="34.7287" gradientUnits="userSpaceOnUse">
<stop stop-color="#A6000F"/>
<stop offset="1" stop-color="#1A0000"/>
</linearGradient>
<linearGradient id="paint11_linear_9831_20250" x1="131.402" y1="5.68749" x2="131.402" y2="34.7287" gradientUnits="userSpaceOnUse">
<stop stop-color="#A6000F"/>
<stop offset="1" stop-color="#1A0000"/>
</linearGradient>
<linearGradient id="paint12_linear_9831_20250" x1="131.5" y1="0" x2="131.5" y2="28.648" gradientUnits="userSpaceOnUse">
<stop stop-color="#FFCF1E"/>
<stop offset="1" stop-color="#E97E00"/>
</linearGradient>
<linearGradient id="paint13_linear_9831_20250" x1="131.5" y1="0" x2="131.5" y2="28.648" gradientUnits="userSpaceOnUse">
<stop stop-color="#FFCF1E"/>
<stop offset="1" stop-color="#E97E00"/>
</linearGradient>
<linearGradient id="paint14_linear_9831_20250" x1="131.5" y1="0" x2="131.5" y2="28.648" gradientUnits="userSpaceOnUse">
<stop stop-color="#FFCF1E"/>
<stop offset="1" stop-color="#E97E00"/>
</linearGradient>
<linearGradient id="paint15_linear_9831_20250" x1="131.5" y1="0" x2="131.5" y2="28.648" gradientUnits="userSpaceOnUse">
<stop stop-color="#FFCF1E"/>
<stop offset="1" stop-color="#E97E00"/>
</linearGradient>
<linearGradient id="paint16_linear_9831_20250" x1="131.5" y1="0" x2="131.5" y2="28.648" gradientUnits="userSpaceOnUse">
<stop stop-color="#FFCF1E"/>
<stop offset="1" stop-color="#E97E00"/>
</linearGradient>
<linearGradient id="paint17_linear_9831_20250" x1="131.5" y1="0" x2="131.5" y2="28.648" gradientUnits="userSpaceOnUse">
<stop stop-color="#FFCF1E"/>
<stop offset="1" stop-color="#E97E00"/>
</linearGradient>
<linearGradient id="paint18_linear_9831_20250" x1="131.5" y1="0" x2="131.5" y2="28.648" gradientUnits="userSpaceOnUse">
<stop stop-color="#FFCF1E"/>
<stop offset="1" stop-color="#E97E00"/>
</linearGradient>
<linearGradient id="paint19_linear_9831_20250" x1="131.5" y1="0" x2="131.5" y2="28.648" gradientUnits="userSpaceOnUse">
<stop stop-color="#FFCF1E"/>
<stop offset="1" stop-color="#E97E00"/>
</linearGradient>
<linearGradient id="paint20_linear_9831_20250" x1="131.5" y1="0" x2="131.5" y2="28.648" gradientUnits="userSpaceOnUse">
<stop stop-color="#FFCF1E"/>
<stop offset="1" stop-color="#E97E00"/>
</linearGradient>
<linearGradient id="paint21_linear_9831_20250" x1="131.5" y1="0" x2="131.5" y2="28.648" gradientUnits="userSpaceOnUse">
<stop stop-color="#FFCF1E"/>
<stop offset="1" stop-color="#E97E00"/>
</linearGradient>
<linearGradient id="paint22_linear_9831_20250" x1="131.5" y1="0" x2="131.5" y2="28.648" gradientUnits="userSpaceOnUse">
<stop stop-color="#FFCF1E"/>
<stop offset="1" stop-color="#E97E00"/>
</linearGradient>
<linearGradient id="paint23_linear_9831_20250" x1="131.5" y1="0" x2="131.5" y2="28.648" gradientUnits="userSpaceOnUse">
<stop stop-color="#FFCF1E"/>
<stop offset="1" stop-color="#E97E00"/>
</linearGradient>
</defs>
</svg>
